<svg height="500" viewBox="0 0 132.29167 132.29167" width="500" xmlns="http://www.w3.org/2000/svg" xmlns:xlink="http://www.w3.org/1999/xlink"><linearGradient id="a" gradientTransform="matrix(391.593 0 0 -391.593 60.7962 7618.49)" gradientUnits="userSpaceOnUse" spreadMethod="pad" x1="0" x2="1" y1="0" y2="0"><stop offset="0" stop-color="#9f571d"/><stop offset=".511236" stop-color="#fde791"/><stop offset="1" stop-color="#b7671e"/></linearGradient><linearGradient id="b" gradientTransform="matrix(3.7795274 0 0 3.7795274 -341.5064 91.506337)" gradientUnits="userSpaceOnUse" spreadMethod="reflect" x1="181.67287" x2="202.10326" xlink:href="#a" y1="8.358024" y2="25.753607"/><linearGradient id="c" gradientTransform="matrix(3.7795274 0 0 3.7795274 -341.5064 91.506337)" gradientUnits="userSpaceOnUse" spreadMethod="reflect" x1="-227.72299" x2="-170.1145" xlink:href="#a" y1="-83.506264" y2="-34.455181"/><linearGradient id="d" gradientTransform="matrix(3.7795274 0 0 3.7795274 -341.5064 91.506337)" gradientUnits="userSpaceOnUse" spreadMethod="reflect" x1="128.18454" x2="134.48341" xlink:href="#a" y1="48.786057" y2="41.81329"/><linearGradient id="e" gradientTransform="matrix(2.6778927 0 0 3.1842362 -475.64199 -806.15514)" gradientUnits="userSpaceOnUse" spreadMethod="reflect" x1="188.31386" x2="188.31386" xlink:href="#a" y1="271.11588" y2="267.09412"/><linearGradient id="f" gradientTransform="matrix(3.7795274 0 0 3.7795274 -341.5064 91.506337)" gradientUnits="userSpaceOnUse" spreadMethod="reflect" x1="97.406975" x2="107.02292" xlink:href="#a" y1="-16.253389" y2="-11.569413"/><g id="g" transform="matrix(.26458334 0 0 .26458334 -271.19792 -59.531253)"><path d="m250 24.999995c-124.27883-.000016-225 101.129655-225 225.000005 0 123.87034 100.72117 225.00002 225 225 124.27883.00002 225-101.12966 225-225 0-123.87035-100.72117-225.000021-225-225.000005z" fill="#84542e" fill-rule="evenodd"/><path d="m458.44595 250a208.44592 208.8 0 0 1 -208.44595 208.8 208.44592 208.8 0 0 1 -208.44595-208.8 208.44592 208.8 0 0 1 208.44595-208.800005 208.44592 208.8 0 0 1 208.44595 208.800005z" style="fill:#798613;fill-rule:evenodd;stroke:#798613;stroke-width:5;stroke-linecap:round;stroke-linejoin:round"/><path d="m366.94723 249.99629-25.27171-76.94915-91.68988-60.43183-91.66047 60.43183-25.24408 76.94915 25.21646 76.95613 91.68809 60.43184 91.71779-60.43184z" style="fill:#d0e830;fill-rule:evenodd;stroke:#798613;stroke-width:5;stroke-linecap:round;stroke-linejoin:round"/><path d="m249.98564 41.200661v71.414649l69.48321-7.2624zm0 0c-18.08293.149022-36.03137 2.78109-53.27744 7.319836-17.24607 4.538745-33.78973 10.748241-48.9527 19.866078l32.74873 36.966335zm-196.993622 141.839659 61.872622 18.63281-29.348397-79.18506c-7.403938 8.90963-14.085501 19.05818-19.444874 29.20349-5.359362 10.14532-9.683993 20.67675-13.079351 31.34876zm-11.424184 66.95597c.24346 11.51029 1.019629 22.74656 2.788159 33.97766s4.500878 22.46318 8.636072 32.93082l61.872865-18.57788zm106.187676 181.38075 32.74873-36.7295-95.015586-17.2314c8.179747 11.06652 17.921006 21.44041 28.354046 30.5258 10.43303 9.0854 21.81734 17.22988 33.91281 23.4351zm102.23013 27.4223v-71.41508l-69.4814 7.26328zm102.23037-27.4223-32.74687-36.7295-69.4835 64.1518c18.08566-.15122 36.09247-2.33928 53.33924-6.87854 17.24679-4.53924 33.73363-11.42923 48.89113-20.54376zm-32.74687-36.7295 22.23429-67.69512-91.71779 60.43184zm127.51017-77.74277-61.87082-18.57788 29.37536 79.08925c7.40403-8.90983 14.11267-18.77108 19.47197-28.91675 5.35931-10.14567 9.62794-20.92246 13.02349-31.59462zm11.4527-66.90848c.0614-11.13216-.84094-22.59991-2.81261-34.13437-1.97166-11.53446-5.01277-23.07673-8.2755-32.8216l-62.23546 18.63281zm-105.91087-181.609715-33.05229 36.966335 95.45723 17.13516c-8.40176-11.01606-17.96596-21.2847-28.44761-30.346634-10.48164-9.061929-21.93886-16.944813-33.95733-23.754861zm-172.01691 36.966335-22.17906 67.69423 91.66047-60.43183z" style="fill:#a3b814;fill-rule:evenodd;stroke:#798613;stroke-width:5;stroke-linecap:round;stroke-linejoin:round"/><path d="m41.567834 249.99629 73.297096 48.3306 18.21616-48.3306-18.21645-48.32316zm73.297096 48.3306-29.376276 79.08925c.172559.2318-.173516-.23109 0 0l95.015586 17.2314-22.20669-67.69512zm204.60421 96.32065 95.01471-17.2314c.17291-.2305-.17198.23122 0 0l-29.37536-79.08925-43.40506 28.62553zm138.96287-144.65125-73.32357-48.32316-18.16121 48.32316 18.16126 48.3306zm-43.50593-127.50822-95.45723-17.13516 22.20667 67.69423 43.43292 28.62599zm-300.06144 79.18506 43.46053-28.62599 22.17906-67.69423-94.987987 17.13516c-.173515.23167.172559-.2324 0 0z" style="fill:#d0e830;fill-rule:evenodd;stroke:#798613;stroke-width:5;stroke-linecap:round;stroke-linejoin:round"/><path d="m249.98564 41.200661 69.48321 64.152249 33.05229-36.966335c-13.91136-7.995213-29.2803-15.087906-46.29521-19.866078-17.0149-4.778164-28.3934-6.629437-56.24029-7.319836zm0 0-69.48141 64.152249 69.48141 7.2624zm-164.469397 81.287409 94.987987-17.13516-32.74873-36.966335c-12.24113 6.550137-23.66463 14.729436-34.15843 23.754861-10.49381 9.025424-20.289831 19.385194-28.080827 30.346634zm29.348397 79.18506-61.872622-18.63281c-4.139155 10.63801-6.913489 21.50799-8.718124 32.8216-1.804636 11.31362-2.667114 23.14032-2.70606 34.13437zm.00029 96.65376-61.872865 18.57788c3.419237 11.0748 7.863542 21.52325 13.282816 31.59462 5.419264 10.07137 12.073284 20.11236 19.213773 28.91675zm204.60421 96.32065-69.4835-7.26328v71.41508l-69.4814-64.1518-32.74873 36.7295c15.08356 9.07122 31.70851 15.97199 49.04047 20.54376 17.33197 4.57176 35.38861 6.81585 53.18966 6.87854zm0 0 32.74687 36.7295c12.24233-6.5488 23.82141-14.40901 34.31547-23.4351 10.49404-9.02609 20.16173-19.5639 27.95237-30.5258zm138.96287-144.65125-73.32352 48.3306 61.87082 18.57788c4.14218-10.6439 6.95872-21.61326 8.77699-32.93082 1.81826-11.31755 2.63824-22.98768 2.67571-33.97766zm-43.50593-127.50822-29.81764 79.18506 62.23546-18.63281c-4.76318-11.57532-8.88087-22.44687-14.07868-32.53091-5.19783-10.08404-11.47897-19.37795-18.33914-28.02134zm-164.94044 264.89619-91.68809-60.43184 22.20669 67.69512zm0-274.76895 91.68988 60.43183-22.20667-67.69423z" style="fill:#dff075;fill-rule:evenodd;stroke:#798613;stroke-width:5;stroke-linecap:round;stroke-linejoin:round"/><path d="m114.86493 298.32689 43.43262 28.62553-25.21646-76.95613zm270.24351-96.65376-43.43292-28.62599 25.27171 76.94915zm-18.16121 48.32316-25.2438 76.95613 43.40506-28.62553zm-233.86614 0 25.24408-76.94915-43.46053 28.62599z" style="fill:#eff8ba;fill-rule:evenodd;stroke:#798613;stroke-width:5;stroke-linecap:round;stroke-linejoin:round"/></g><g id="h" transform="matrix(.26458334 0 0 .26458334 -138.90625 59.531255)"><path d="m250 24.999995c-124.27883-.000016-225 101.129655-225 225.000005 0 123.87034 100.72117 225.00002 225 225 124.27883.00002 225-101.12966 225-225 0-123.87035-100.72117-225.000021-225-225.000005z" fill="#84542e" fill-rule="evenodd"/><path d="m458.44595 250a208.44592 208.8 0 0 1 -208.44595 208.8 208.44592 208.8 0 0 1 -208.44595-208.8 208.44592 208.8 0 0 1 208.44595-208.800005 208.44592 208.8 0 0 1 208.44595 208.800005z" fill="#2f5610" fill-rule="evenodd"/><path d="m366.94723 249.99629-25.27171-76.94915-91.68988-60.43183-91.66047 60.43183-25.24408 76.94915 25.21646 76.95613 91.68809 60.43184 91.71779-60.43184z" fill="#50951e" fill-rule="evenodd"/><path d="m249.98564 41.200661v71.414649l69.48321-7.2624zm0 0c-18.08293.149022-36.03137 2.78109-53.27744 7.319836-17.24607 4.538745-33.78973 10.748241-48.9527 19.866078l32.74873 36.966335zm-196.993622 141.839659 61.872622 18.63281-29.348397-79.18506c-7.403938 8.90963-14.085501 19.05818-19.444874 29.20349-5.359362 10.14532-9.683993 20.67675-13.079351 31.34876zm-11.424184 66.95597c.24346 11.51029 1.019629 22.74656 2.788159 33.97766s4.500878 22.46318 8.636072 32.93082l61.872865-18.57788zm106.187676 181.38075 32.74873-36.7295-95.015586-17.2314c8.179747 11.06652 17.921006 21.44041 28.354046 30.5258 10.43303 9.0854 21.81734 17.22988 33.91281 23.4351zm102.23013 27.4223v-71.41508l-69.4814 7.26328zm102.23037-27.4223-32.74687-36.7295-69.4835 64.1518c18.08566-.15122 36.09247-2.33928 53.33924-6.87854 17.24679-4.53924 33.73363-11.42923 48.89113-20.54376zm-32.74687-36.7295 22.23429-67.69512-91.71779 60.43184zm127.51017-77.74277-61.87082-18.57788 29.37536 79.08925c7.40403-8.90983 14.11267-18.77108 19.47197-28.91675 5.35931-10.14567 9.62794-20.92246 13.02349-31.59462zm11.4527-66.90848c.0614-11.13216-.84094-22.59991-2.81261-34.13437-1.97166-11.53446-5.01277-23.07673-8.2755-32.8216l-62.23546 18.63281zm-105.91087-181.609715-33.05229 36.966335 95.45723 17.13516c-8.40176-11.01606-17.96596-21.2847-28.44761-30.346634-10.48164-9.061929-21.93886-16.944813-33.95733-23.754861zm-172.01691 36.966335-22.17906 67.69423 91.66047-60.43183z" style="fill:#396a15;fill-rule:evenodd;stroke:#2f5610;stroke-width:5;stroke-linecap:round;stroke-linejoin:round"/><path d="m41.567834 249.99629 73.297096 48.3306 18.21616-48.3306-18.21645-48.32316zm73.297096 48.3306-29.376276 79.08925c.172559.2318-.173516-.23109 0 0l95.015586 17.2314-22.20669-67.69512zm204.60421 96.32065 95.01471-17.2314c.17291-.2305-.17198.23122 0 0l-29.37536-79.08925-43.40506 28.62553zm138.96287-144.65125-73.32357-48.32316-18.16121 48.32316 18.16126 48.3306zm-43.50593-127.50822-95.45723-17.13516 22.20667 67.69423 43.43292 28.62599zm-300.06144 79.18506 43.46053-28.62599 22.17906-67.69423-94.987987 17.13516c-.173515.23167.172559-.2324 0 0z" style="fill:#50951e;fill-rule:evenodd;stroke:#2f5610;stroke-width:5;stroke-linecap:round;stroke-linejoin:round"/><path d="m249.98564 41.200661 69.48321 64.152249 33.05229-36.966335c-13.91136-7.995213-29.2803-15.087906-46.29521-19.866078-17.0149-4.778164-28.3934-6.629437-56.24029-7.319836zm0 0-69.48141 64.152249 69.48141 7.2624zm-164.469397 81.287409 94.987987-17.13516-32.74873-36.966335c-12.24113 6.550137-23.66463 14.729436-34.15843 23.754861-10.49381 9.025424-20.289831 19.385194-28.080827 30.346634zm29.348397 79.18506-61.872622-18.63281c-4.139155 10.63801-6.913489 21.50799-8.718124 32.8216-1.804636 11.31362-2.667114 23.14032-2.70606 34.13437zm.00029 96.65376-61.872865 18.57788c3.419237 11.0748 7.863542 21.52325 13.282816 31.59462 5.419264 10.07137 12.073284 20.11236 19.213773 28.91675zm204.60421 96.32065-69.4835-7.26328v71.41508l-69.4814-64.1518-32.74873 36.7295c15.08356 9.07122 31.70851 15.97199 49.04047 20.54376 17.33197 4.57176 35.38861 6.81585 53.18966 6.87854zm0 0 32.74687 36.7295c12.24233-6.5488 23.82141-14.40901 34.31547-23.4351 10.49404-9.02609 20.16173-19.5639 27.95237-30.5258zm138.96287-144.65125-73.32352 48.3306 61.87082 18.57788c4.14218-10.6439 6.95872-21.61326 8.77699-32.93082 1.81826-11.31755 2.63824-22.98768 2.67571-33.97766zm-43.50593-127.50822-29.81764 79.18506 62.23546-18.63281c-4.76318-11.57532-8.88087-22.44687-14.07868-32.53091-5.19783-10.08404-11.47897-19.37795-18.33914-28.02134zm-164.94044 264.89619-91.68809-60.43184 22.20669 67.69512zm0-274.76895 91.68988 60.43183-22.20667-67.69423z" style="fill:#5eab21;fill-rule:evenodd;stroke:#2f5610;stroke-width:5;stroke-linecap:round;stroke-linejoin:round"/><path d="m114.86493 298.32689 43.43262 28.62553-25.21646-76.95613zm270.24351-96.65376-43.43292-28.62599 25.27171 76.94915zm-18.16121 48.32316-25.2438 76.95613 43.40506-28.62553zm-233.86614 0 25.24408-76.94915-43.46053 28.62599z" style="fill:#84c553;fill-rule:evenodd;stroke:#2f5610;stroke-width:5;stroke-linecap:round;stroke-linejoin:round"/></g><g id="i" transform="matrix(.26458334 0 0 .26458334 -138.90625 -59.531253)"><path d="m250 24.999995c-124.27883-.000016-225 101.129655-225 225.000005 0 123.87034 100.72117 225.00002 225 225 124.27883.00002 225-101.12966 225-225 0-123.87035-100.72117-225.000021-225-225.000005z" fill="#84542e" fill-rule="evenodd"/><path d="m458.44595 250a208.44592 208.8 0 0 1 -208.44595 208.8 208.44592 208.8 0 0 1 -208.44595-208.8 208.44592 208.8 0 0 1 208.44595-208.800005 208.44592 208.8 0 0 1 208.44595 208.800005z" style="fill:#798613;fill-rule:evenodd;stroke:#841515;stroke-width:5;stroke-linecap:round;stroke-linejoin:round"/><path d="m366.94723 249.99629-25.27171-76.94915-91.68988-60.43183-91.66047 60.43183-25.24408 76.94915 25.21646 76.95613 91.68809 60.43184 91.71779-60.43184z" style="fill:#cf1717;fill-rule:evenodd;stroke:#841515;stroke-width:5;stroke-linecap:round;stroke-linejoin:round"/><path d="m249.98564 41.200661v71.414649l69.48321-7.2624zm0 0c-18.08293.149022-36.03137 2.78109-53.27744 7.319836-17.24607 4.538745-33.78973 10.748241-48.9527 19.866078l32.74873 36.966335zm-196.993622 141.839659 61.872622 18.63281-29.348397-79.18506c-7.403938 8.90963-14.085501 19.05818-19.444874 29.20349-5.359362 10.14532-9.683993 20.67675-13.079351 31.34876zm-11.424184 66.95597c.24346 11.51029 1.019629 22.74656 2.788159 33.97766s4.500878 22.46318 8.636072 32.93082l61.872865-18.57788zm106.187676 181.38075 32.74873-36.7295-95.015586-17.2314c8.179747 11.06652 17.921006 21.44041 28.354046 30.5258 10.43303 9.0854 21.81734 17.22988 33.91281 23.4351zm102.23013 27.4223v-71.41508l-69.4814 7.26328zm102.23037-27.4223-32.74687-36.7295-69.4835 64.1518c18.08566-.15122 36.09247-2.33928 53.33924-6.87854 17.24679-4.53924 33.73363-11.42923 48.89113-20.54376zm-32.74687-36.7295 22.23429-67.69512-91.71779 60.43184zm127.51017-77.74277-61.87082-18.57788 29.37536 79.08925c7.40403-8.90983 14.11267-18.77108 19.47197-28.91675 5.35931-10.14567 9.62794-20.92246 13.02349-31.59462zm11.4527-66.90848c.0614-11.13216-.84094-22.59991-2.81261-34.13437-1.97166-11.53446-5.01277-23.07673-8.2755-32.8216l-62.23546 18.63281zm-105.91087-181.609715-33.05229 36.966335 95.45723 17.13516c-8.40176-11.01606-17.96596-21.2847-28.44761-30.346634-10.48164-9.061929-21.93886-16.944813-33.95733-23.754861zm-172.01691 36.966335-22.17906 67.69423 91.66047-60.43183z" style="fill:#a11212;fill-rule:evenodd;stroke:#841515;stroke-width:5;stroke-linecap:round;stroke-linejoin:round"/><path d="m41.567834 249.99629 73.297096 48.3306 18.21616-48.3306-18.21645-48.32316zm73.297096 48.3306-29.376276 79.08925c.172559.2318-.173516-.23109 0 0l95.015586 17.2314-22.20669-67.69512zm204.60421 96.32065 95.01471-17.2314c.17291-.2305-.17198.23122 0 0l-29.37536-79.08925-43.40506 28.62553zm138.96287-144.65125-73.32357-48.32316-18.16121 48.32316 18.16126 48.3306zm-43.50593-127.50822-95.45723-17.13516 22.20667 67.69423 43.43292 28.62599zm-300.06144 79.18506 43.46053-28.62599 22.17906-67.69423-94.987987 17.13516c-.173515.23167.172559-.2324 0 0z" style="fill:#cf1717;fill-rule:evenodd;stroke:#841515;stroke-width:5;stroke-linecap:round;stroke-linejoin:round"/><path d="m249.98564 41.200661 69.48321 64.152249 33.05229-36.966335c-13.91136-7.995213-29.2803-15.087906-46.29521-19.866078-17.0149-4.778164-28.3934-6.629437-56.24029-7.319836zm0 0-69.48141 64.152249 69.48141 7.2624zm-164.469397 81.287409 94.987987-17.13516-32.74873-36.966335c-12.24113 6.550137-23.66463 14.729436-34.15843 23.754861-10.49381 9.025424-20.289831 19.385194-28.080827 30.346634zm29.348397 79.18506-61.872622-18.63281c-4.139155 10.63801-6.913489 21.50799-8.718124 32.8216-1.804636 11.31362-2.667114 23.14032-2.70606 34.13437zm.00029 96.65376-61.872865 18.57788c3.419237 11.0748 7.863542 21.52325 13.282816 31.59462 5.419264 10.07137 12.073284 20.11236 19.213773 28.91675zm204.60421 96.32065-69.4835-7.26328v71.41508l-69.4814-64.1518-32.74873 36.7295c15.08356 9.07122 31.70851 15.97199 49.04047 20.54376 17.33197 4.57176 35.38861 6.81585 53.18966 6.87854zm0 0 32.74687 36.7295c12.24233-6.5488 23.82141-14.40901 34.31547-23.4351 10.49404-9.02609 20.16173-19.5639 27.95237-30.5258zm138.96287-144.65125-73.32352 48.3306 61.87082 18.57788c4.14218-10.6439 6.95872-21.61326 8.77699-32.93082 1.81826-11.31755 2.63824-22.98768 2.67571-33.97766zm-43.50593-127.50822-29.81764 79.18506 62.23546-18.63281c-4.76318-11.57532-8.88087-22.44687-14.07868-32.53091-5.19783-10.08404-11.47897-19.37795-18.33914-28.02134zm-164.94044 264.89619-91.68809-60.43184 22.20669 67.69512zm0-274.76895 91.68988 60.43183-22.20667-67.69423z" style="fill:#e51a1a;fill-rule:evenodd;stroke:#841515;stroke-width:5;stroke-linecap:round;stroke-linejoin:round"/><path d="m114.86493 298.32689 43.43262 28.62553-25.21646-76.95613zm270.24351-96.65376-43.43292-28.62599 25.27171 76.94915zm-18.16121 48.32316-25.2438 76.95613 43.40506-28.62553zm-233.86614 0 25.24408-76.94915-43.46053 28.62599z" style="fill:#e83030;fill-rule:evenodd;stroke:#841515;stroke-width:5;stroke-linecap:round;stroke-linejoin:round"/></g><g id="j" stroke-width="7.11605" transform="matrix(.14052744 0 0 .14052744 28.954312 -54.716061)"><path d="m262.97613 188.87096c-45.26208-.4228-80.87803 47.42547-67.53398 90.63858 10.33309 42.9898 63.16398 66.37737 101.91324 44.99568 39.86574-18.94729 52.04338-75.31728 23.19285-108.84866-13.76649-17.29493-35.45863-27.42013-57.57211-26.7856zm-148.81746 25.75963c-39.559088-.44109-69.488017 43.89065-53.460874 80.40459 13.854526 39.8396 70.950554 50.45667 98.166054 18.2248 29.07303-29.22355 14.90915-83.15522-23.94671-95.34555-6.69633-2.39015-13.76399-3.41418-20.75847-3.28384zm298.34096.004c-39.43334-.42015-69.33783 43.64268-53.54546 80.12512 13.73302 40.20508 71.41685 50.85825 98.56688 18.17332 28.64997-29.26017 14.50512-82.70223-24.06438-94.95575-6.75054-2.43228-13.88939-3.47962-20.95704-3.34269zm-462.158201 98.29811c20.7436 30.14614 71.358555 23.64461 83.975275-10.63113 13.76742-30.78628-10.56323-67.0345-45.069232-67.50088-39.853584-.35865-63.25551 48.67317-38.906043 78.13201zm548.310441-3.57803c17.99336 31.86871 68.99719 29.90773 84.59675-3.14411 17.29242-31.22665-6.98061-70.92609-43.42364-71.40252-37.97699-.0162-61.61465 44.6-41.17311 74.54663z" fill="#84542e" fill-rule="evenodd" stroke-width="1.882788"/><path d="m263.01562 193.57227c-41.96881-.45335-75.53211 44.67474-63.03708 84.71667 9.49778 39.89583 59.33024 61.95354 95.22659 42.03699 37.02038-17.47962 48.51573-70.61566 21.72326-101.6647-12.8319-16.17035-33.272-25.7121-53.91277-25.08896zm-148.83549 25.76171c-36.065574-.45933-63.882648 40.75462-49.098884 74.01539 12.53215 36.41609 65.558974 46.2755 90.304144 16.75652 26.67323-26.56732 13.50798-76.65806-21.93748-87.7232-6.15985-2.21538-12.73213-3.17773-19.26778-3.04871zm298.3585 0c-35.95009-.45096-63.75152 40.50843-49.2018 73.74084 12.40956 36.78152 66.01846 46.67658 90.70202 16.7073 26.25278-26.60142 13.10457-76.21546-22.06271-87.33966-6.20889-2.25422-12.84189-3.2422-19.43751-3.10848zm-424.812068 20.19727c-34.302365-.46849-55.6284 44.25777-33.641386 70.57203 18.45475 27.13119 64.688825 21.19653 75.876298-9.56147 12.929964-28.59134-11.156243-62.86667-42.234912-61.01056zm550.537108.008c-32.50616-.16796-54.08834 40.60477-35.62119 67.34532 15.99022 28.64834 62.56897 26.85701 76.42857-2.81781 16.23376-29.06818-7.82786-66.56104-40.80738-64.52751z" fill="url(#b)" fill-rule="evenodd" stroke-width="1.882788"/><use stroke-width="11.5892" transform="matrix(.61401913 0 0 .61401913 584.71573 206.42437)" xlink:href="#h"/><use stroke-width="11.5892" transform="matrix(.61401913 0 0 .61401913 33.950163 206.42437)" xlink:href="#h"/><use stroke-width="9.08129" transform="matrix(.78359374 0 0 .78359374 470.85129 268.31438)" xlink:href="#i"/><use stroke-width="9.08129" transform="matrix(.78359374 0 0 .78359374 172.49124 268.31438)" xlink:href="#i"/><use stroke-width="7.11605" transform="translate(337.41708 134.9375)" xlink:href="#h"/></g><g id="k" stroke-width="20.0654" transform="matrix(.04983696 0 0 .04983696 137.36829 -26.24888)"><path d="m-144.28454 81.383753c-33.87831.739545-60.48226 34.580297-53.16237 67.658367 5.47848 32.77251 41.49957 54.34374 72.95698 43.49837 31.560434-9.03631 48.983285-46.50369 35.368992-76.43063-8.918252-21.846269-31.642692-36.089656-55.163602-34.726107zm-18.70585 113.842327c-38.24771.0632-71.97223 31.56742-74.86489 69.63887-4.46517 39.09629 24.81865 76.92691 63.56257 82.82835 36.21122 6.8113 73.94453-15.64451 85.462107-50.58046 12.625635-34.57773-3.268907-75.48314-35.856347-92.55457-11.71088-6.43533-25.03527-9.5791-38.30344-9.33219zm-133.28439 39.69291c-33.60645-.21577-60.98273 32.32013-55.17398 65.3668 4.08234 32.27194 37.78655 55.22666 69.30706 46.97201 32.63192-6.76485 52.78562-43.81854 40.5017-74.86489-7.96162-22.71801-30.59831-38.20188-54.63478-37.47392z" fill="#84542e" fill-rule="evenodd" stroke-width="5.30898"/><path d="m-162.90625 201.85742c-34.59734.0181-65.79281 29.17124-68.34717 63.62914-4.11767 35.36862 22.98404 70.38517 58.06547 75.66573 32.78071 6.23128 67.70373-14.53543 78.089645-46.2041 11.488689-31.29015-3.207115-69.13369-32.743495-84.55308-10.66412-5.8691-22.90652-8.77097-35.06445-8.53769zm-133.26105 39.69141c-29.29854-.28992-53.89375 28.94881-48.72735 57.74427 3.45974 28.17067 33.77698 48.82279 61.23865 41.51689 28.4701-5.78948 46.59285-39.09445 35.79768-66.11327-6.92589-19.92158-27.24269-33.82626-48.30898-33.14789zm152.15753-153.546947c-29.53027.555335-53.4212 30.967517-46.93473 59.772287 4.66344 28.6122 37.07689 48.01982 64.4737 38.44519 27.546001-7.77632 43.210369-41.47314 31.249421-67.51633-7.766801-19.145858-28.180621-31.942196-48.788391-30.701147z" fill="url(#c)" fill-rule="evenodd" stroke-width="5.30898"/><use stroke-width="30.0981" transform="matrix(.66666667 0 0 .66666667 -93.045143 133.83786)" xlink:href="#i"/><use stroke-width="30.0981" transform="matrix(.66666667 0 0 .66666667 -246.62429 287.42569)" xlink:href="#i"/><use stroke-width="20.0654" transform="translate(-88.635416 146.31458)" xlink:href="#h"/><use stroke-width="56.2502" transform="matrix(.35671874 0 0 .35671874 -32.535567 57.698268)" xlink:href="#g"/><use stroke-width="56.2502" transform="matrix(.35671874 0 0 .35671874 -300.32044 325.35434)" xlink:href="#g"/></g><g stroke-width=".760682" transform="matrix(1.3146096 0 0 1.3146096 -20.810243 -20.997906)"><path d="m111.40669 52.664278.0166 3.592166.007 35.340258-53.302214 18.451938-3.0698.32982-34.159178-14.363838-.03672-39.119563c.07736-7.432535 1.994053-12.478987 4.107849-13.98438 2.113794-1.505393 2.716865-1.830134 3.341341-2.098516 0 0 55.681617-18.518275 55.874985-18.531207.193369-.01293 1.563048-.146288 2.334581-.04365 2.371439.315478 4.234234.672236 6.891094 2.005507 9.972042 5.007471 17.589012 17.191149 17.994842 28.421464z" fill="#451c08"/><g stroke-width=".760682" transform="translate(.9589 2.39559)"><path d="m36.526151 36.876486c-1.677406.558319-6.879665 2.630686-9.48414 4.624421s-4.734823 6.378952-4.808492 13.461196l.212939 36.992109.699183 1.054716 30.845652 12.971312 4.257622.66352 49.988625-17.304899 1.39216-1.952851.12887-36.640662c-.38945-10.786042-7.92732-22.814187-17.464761-27.603477-2.552175-1.28077-4.789312-1.90811-6.663678-1.902209-2.445902.008-5.920457 1.263333-6.742224 1.536856z" fill="#732f0d"/><g opacity=".5" stroke-width=".760682"><path d="m82.622047 21.596228c-5.346044 1.673704-10.693322 3.455281-15.946312 5.413564-4.387976 1.890543-8.721882 3.902799-13.070006 5.882387 4.159973-1.052628 7.816292-4.354546 12.319662-3.789432 3.556816-3.279592 8.953513-3.849632 13.260637-6.04905 1.149782-.475265 2.294727-.962181 3.436019-1.457469zm6.437333.217041c-3.761978.970392-7.804492 1.37942-10.853668 4.082083-3.758178 2.272848-6.525844 6.085808-10.888373 7.278521-2.803697.739998-3.113036 3.586896.320706 2.072174 4.697329 1.07762 8.414631-2.593494 12.891573-2.623167 4.797071.04999 8.074195-3.972012 12.418956-5.328752 5.857091-2.815804-1.353288-4.115741-3.889194-5.480859zm6.542237 7.436755c-.832486.441044 1.051633.354477 0 0zm-1.366842.392741.0047.02946zm-2.444812.84491c-2.051049.501027-8.596424 4.001148-3.176692 1.868014.621063-.659117 4.027992-.557982 3.176692-1.868014zm10.183357.731222c-2.915182 1.212147-10.122775 1.943199-10.232844 3.16856 3.28282-1.422089 7.230678-1.153406 10.232844-3.16856zm-16.571081 1.777152c-4.939947 1.852713-9.859535 3.759105-14.774809 5.67614 4.742347-.590518 10.393321-3.194103 14.774809-5.67614zm-27.783834.226343c-3.267606 1.949599-6.509885 3.994658-10.486699 3.879348-3.8654 1.47502-7.968443 1.666568-11.908834 2.824117 3.537339 1.903516 7.179199 6.167197 11.21004 3.108747 2.655588-2.239292 6.866992-2.685836 7.953641-6.257834 1.420652-.543879 3.350081-2.023768 3.231852-3.554378zm32.362883 2.015381c-4.085543 1.805648-8.206081 3.620959-12.128976 5.776392 4.172144-1.620609 8.451414-3.166349 12.128976-5.776392zm-45.332635.782898c-2.207692.700082-7.452312 2.785303-2.9505 1.624966.725841-.424663 3.015609-.695098 2.9505-1.624966zm-.439249.240295-.541053.223759zm62.096986 1.729094c-2.89326 1.267755-6.902587 2.803938-9.020081 3.78803-1.926073.671702-3.25253 2.588669-.144268 1.734759 2.895639-1.211725 9.864979.155399 10.284079-3.050718-.34214-.837651-.71644-1.662112-1.11973-2.472071zm-41.649138.193786c-5.22224 2.390272-11.441549 1.905595-16.355273 4.997954-1.081429 1.060506 4.03351-1.616932 5.589976-1.500747 3.672121-.788325 7.534344-1.498846 10.765297-3.497207zm-25.948805.146245c-1.234663.585065.600297.368128 0 0zm29.827121 1.307413c-4.478247 1.675852-9.673246 3.290922-13.536733 5.52576 4.578005-.987569 8.388211-4.197223 13.118154-4.760948.202759-.0046 1.076523-.682102.418579-.764812zm-37.314003.441317c-4.934655-.395625-4.679307 4.597302-4.858636 8.069173-1.830101 4.147922 1.561968 7.662954 1.277035 11.671967 1.165771 4.049389.399017 8.431853 1.739803 12.404186 1.066518 1.690486 1.442752 6.987237 2.069492 6.896289.708397-4.037723-1.193546-7.99196-.148776-11.9664-.292222-3.083722-.18121-5.534236 1.344746-7.877713-.0028-4.313625.591606-8.35936.507652-12.522943-.475882-2.298668-2.076265-4.21832-1.931316-6.674559zm58.841372.286288c-4.288093.344802-8.201354.864479-12.228883 2.497762-4.326235.187718-7.383076 3.194103-11.194159 4.730141-2.757612 2.589252-6.134158 4.546719-9.577012 6.001264-3.87444 1.813815 5.466806.895724 7.214955.0061 5.721309-2.226634 11.45583-4.535553 17.082268-6.891511 1.177486-1.302616 3.24438-.977868 4.223917-2.27213.210035-1.452705 9.001485-3.672633 4.478914-4.071671zm9.246464.165364c-.504324.09063.322874.314999 0 0zm-64.837388.834574c-.441742 1.331299.311942 8.09566.170362 3.161088-.04315-1.046829.132677-2.142337-.170362-3.161088zm62.262351.212391c-1.397563.268044.400673.691838 0 0zm-2.030884 1.139465c-2.048306.544852-.61798 1.006303 0 0zm-48.756715 1.842782c-2.65696.447774-2.849002 2.225224 0 0zm-21.813139.776696c-.472229 1.142835.518429 2.004028 0 0zm29.094349.465605c-2.080431.410558-.723482.920658.473356.06821zm-15.504481.406694c-2.402475 3.113184-2.152541 7.757453-2.173578 11.597551.277411 6.457686-.1579 12.951328.602897 19.349624-.124253 3.358244 1.350561 6.758142 1.131165 10.253141 1.663142 1.46146 1.02143-4.233946 2.523595-5.515676-.685477-4.952533 1.452648-9.898584.261489-14.796676-.111396-4.449245-1.359274-8.712734-1.825677-13.129025-.470051-2.593487-.432853-5.175388-.519891-7.758939zm46.71653.731738c-8.037263 2.072841-15.448911 5.914668-23.180458 8.848042 2.140102-.830649-.94342 1.052067 1.712501-.197835 7.204469-2.762125 14.26916-5.875419 21.467957-8.650207zm-37.587371 1.109493c-.999078.552271 1.298657-.02872.000004-.000048zm43.858306.525549c-4.22039.997657-7.356484 4.182613-11.731503 4.606455-3.837348 2.480088-8.526826.06515-12.573665 2.979595-3.245969.726403-6.626615 1.500868-8.187299 4.971946-3.074573.234669-5.190721 4.90399-1.169889 4.797572 3.79144-1.083501 7.632963-1.233331 11.350052-2.586535 4.223948.494249 5.985408-3.073033 8.786514-4.832131 2.851474-1.998627 6.223458-3.326562 9.077499-5.289344.855172-2.123944 3.176947-2.874909 4.448291-4.647558zm-56.343332.643372c-.05153 9.041267.311847 18.078417.320861 27.119275.81979-8.974226.003-17.985658.04239-26.976669-.181346 2.127811.04834 1.015676-.363254-.142606zm-11.793596 1.194759c.222224 3.881661.446498 7.91412 1.131394 11.800234.976654 4.421847.228733 9.040125.527565 13.547624-.832802 1.980657.564228 5.826524.458295 1.775214-.024-4.969365-.20649-10.017249.114117-14.990996-1.310799-2.689636-1.343652-7.357622-2.10653-11.403215l-.12485-.728861zm25.90643.07441c.71115 6.326716-1.801356 12.6031-.697115 18.935279-.405172-6.328898 2.487165-12.701294.697115-18.935279zm-3.396692.830957c-.589413 2.289895.623187 2.503602 0 0zm4.653979.914156c.0706 4.47548 1.627205 8.405253 2.52778 12.630212.166762 1.558644 2.371013 6.221374 1.490638 1.867077-1.128141-3.412771.447005-7.08846-1.500627-10.14982-.740156-1.503616-1.582902-2.956601-2.517791-4.347469zm57.522592.594279c-1.79854-.03365-6.59007 2.743596-2.52359 1.292177.79468-.419685 5.07837-1.336309 2.52384-1.292174zm-8.672859 1.176673c-.423821.164819-.299794.116586 0 0zm-1.017509.324528c-4.125159 1.710152-8.38717 3.415198-12.638247 4.913606-2.331713.227989-3.713063 2.124449-3.543323 2.781562 2.826362-.803009 4.739358-3.240353 7.750414-3.770185 2.632587-1.44804 7.905886-2.354924 8.923302-3.729084l-.492146-.195902zm-52.361663.54622c-.737113 4.989212.779493 10.084323-.265619 15.079183.87277 3.306229.481757-3.478601.562676-4.317788-.09767-3.575264.177-7.231822-.297057-10.761395zm53.222076.491959c-1.389715-.03093.293076.209366 0 0zm-39.417234 1.37511c-1.648628.499972-6.733659 2.818873-2.170397 1.178927.772146-.243171 1.669582-.488473 2.170397-1.178927zm45.838029 1.374593c-.72819.656998.25148.645278 0 0zm-.10232.318844-.22351.08665zm-5.347992.08268c-4.897544.17128-8.407487 4.396616-13.085767 5.524022-4.039067 2.567148-8.79236 3.604999-13.242594 5.263607-3.396388.497449-1.167802 1.60677.898495.0067 3.71341-1.048703 7.274598-2.658703 11.016275-3.615391 2.104424-1.861658 6.508809-3.390588 9.859961-5.349647 1.47455-.707165 2.975222-1.386828 4.55363-1.829243zm3.688152.320911c-.60647.193543.13619.479947 0 0zm-1.19528.26355c-1.8599.725184 1.58617.319463 0 0zm-1.70739.574125c-1.441086.336313.62929.54483 0 0zm-1.042314.425297-.04186.0088zm-.487308.289905c-1.25363.09288-1.007667.884305 0 0zm8.888862.0098c-3.85933.819803-7.599746 1.73267-11.480305 2.525747-3.793137.674394-6.183423 3.902642-9.849552 4.969081-3.446685 1.784234-7.197281 2.827243-10.13483 5.496658-1.337143.687373-4.095511 2.425294-.957623 1.145641 4.144502-1.888429 8.444167-3.087602 12.695349-4.669999 3.193534 1.532889 6.699984-1.794044 9.956908-1.792607 4.059093-1.022295 6.809233-4.619301 10.926173-5.766212 1.98747-.883238.84461-2.470612-1.15612-1.908309zm-30.32218 4.969723c-2.095737.952824-5.651937.618814-7.372677.261489-2.366498.620818-4.769375 1.179634-7.079797 1.648283-2.422835.922416-6.714027 3.102095-7.230055 2.968686.02557-1.6185-.287768-5.337322-.215058-1.666294.644882 1.39566-.896487 7.633291 1.585771 4.478092 2.123878-2.081333 5.476391-.248956 8.341195-1.906233 3.24536-1.817278 6.138274-4.285958 10.408894-4.303469.518832-.05563 2.348602-.831039 1.561727-1.480554zm28.19621 1.043864c-1.17616.168301-6.587863 2.540686-2.39582 1.016156.73631-.348285 1.86898-.446082 2.39582-1.016156zm-6.364984 2.166793c-7.334347 2.496813-14.562335 5.292342-21.881352 7.832597 7.487163-1.925487 14.587183-5.047064 21.889642-7.540629-1.663788.4242-.931518.374256-.0083-.291968zm-27.485145.85111c-.904453.058.343523.108931 0 0zm29.855029.310576c-7.100998.424717-13.395606 4.167417-20.149499 6.033337-1.84378.676405-3.526561 1.857392-5.501654 2.134124-1.345702 1.942068-7.858875 2.827715-6.247781 4.018146 4.340927-.215044 8.267087-1.610049 12.487594-2.672073 3.626537-.906434 6.955395-2.848973 10.3009-4.476127 2.833935-2.069545 8.33781-3.521697 9.83861-4.976641l-.72817-.06076zm-30.731461.798917c-.421993.147445-.278391.09727 0 0zm-20.888131 1.571998c-1.767431 4.445498-2.218181 9.06224-1.95527 13.806915-2.390906 5.325016.242108 11.00152-.04505 16.517696.0037 1.84817 2.684886 1.6836 3.933431 2.59288 3.11602 2.09033 1.120628-3.96178 2.32265-5.577893.275827-6.947765-2.309981-13.626513-3.078518-20.455503-.0557-2.305231.301496-4.919849-1.177246-6.884095zm-4.416268 1.518253c-.78803 2.696781-.04081 6.035307-.363128 8.976992-.09567 2.263338.18665 7.273902.536827 7.722572.0313-5.564755.01726-11.129639-.0058-16.694396l-.167948-.0052zm60.53687 1.338937c-1.5765.208684.29669.371728 0 0zm-50.348345.450618c-1.19941 4.336294.15957 8.532594-.170332 13.114903-.0854 3.294842.07376 10.779609.170332 11.6044-.956051-3.572838 4.032336-1.695807 5.985184-3.097379 4.129127-.566285 7.905265-2.31821 11.461718-4.435674 3.672336-2.208951 7.398813-4.25669 11.427389-5.717249 3.195337-2.110956-3.510894-.584175-5.095488-.554567-3.730491 2.055311-8.060413 1.572977-11.846359 3.372212-3.569518 2.068717-7.760058 2.880614-10.944727 5.609168-1.831243 1.473068-.656224-2.367348-.987714-3.543098 0-2.504135 0-5.008269 0-7.512404 3.000578-1.129196 7.023342-2.544684 9.32815-3.453102 1.782328-.569752 3.93198-2.191124.52758-1.3988-3.215511.942547-7.084335.379535-9.750236 2.728785-.241043-1.811679-.03861-4.582499-.105497-6.717195zm53.552285.49351c-1.59926.62762-6.76677 3.09124-2.53043 1.463835.15037-.306755 4.43997-1.280635 2.53043-1.463835zm-8.1933.649573c-2.091584.36357-.91576.942103 0 0zm-59.476469.443384c-.0078 5.090972-.0027 10.222684.896053 15.248682-.191824-5.076373-.387946-10.187799-.896053-15.248682zm68.168449.04134c-3.6029 1.398583-7.27087 2.595595-10.667586 4.447497-3.186677 1.449345-6.858182 4.015797-8.994779 6.099663 3.258494-1.669728 6.556783-3.176348 10.253755-3.421172 2.76191-1.690382 8.23286-.389334 9.40903-3.188222-.00014-1.312589-.00028-2.625177-.00042-3.937766zm-11.52281.614949c-4.212536.951973-7.954801 3.392774-12.258167 4.062805-2.301351 1.592093 3.64999-.928523 4.444496-1.082209 2.560424-.992975 5.520469-1.727761 7.813671-2.980596zm-74.370139.869198c-.394165.606669.08134.586449 0 0zm79.102669.181901c-4.970049 2.296766-10.715281 2.255546-15.591816 4.830713 5.040227-2.085781 10.958677-1.770817 15.591816-4.830713zm-34.427359.779797c-1.486717.253218-1.3116.938756 0 0zm-43.729632.625285c.002.468496.0016.363958 0 0zm41.023337.526583c-1.423866.348057.184744.453872 0 0zm13.234335.646472c-4.100246 1.4186-8.230767 2.832596-12.059213 4.900476 4.043125-1.559447 8.106912-3.11534 12.059213-4.900476zm-16.126148.435141c-.406766.307941.420638-.0217 0 0zm-40.366013 1.16737c.02745 2.094619-.05431 4.934316.03979 6.574276.823699-1.653255 1.149112-5.259996-.03979-6.574276zm84.58037.0052c-.99994.581613.0439-.130393 0 0zm-24.326165.04548c-4.538114 1.638295-9.297759 2.829859-13.603304 5.07721 4.289022-1.644017 10.681701-3.268514 13.603304-5.07721zm23.034255.501262c-.46135.166908-3.6324.562607-4.76758 1.742513 1.57865-.58325 3.28795-.940885 4.76758-1.742513zm3.89433.736906c-4.11708 2.02398-8.86275 2.159126-12.850629 4.755694-2.218585.251676-4.840646 3.534751-.79918 2.070295 2.698896-1.586444 5.747789.0012 7.270159-.398859 1.01741.363285 8.02411-2.703082 2.85864-2.68158 2.7304-.339173 4.05352-.92359 3.52101-3.74555zm-7.2409.460953-.44752.151412zm-36.585362 1.949752c-2.511039 1.19926-8.968647 2.089881-9.464206 2.862547 3.088791-1.153816 6.70151-.899731 9.464206-2.862547zm-31.044101.561723c-.371546 1.794277.631015 1.744074 0 0zm34.006711.58291c-1.689292.392591-8.715308 3.148542-3.603362 1.64899 1.223641-.469314 2.591022-.766757 3.603362-1.64899zm23.896733.12299c-3.909333 1.315057-7.970351 3.040714-11.829134 3.791434-6.128148 2.756719-12.728724 4.442578-18.935914 7.079738 10.5491-2.724288 20.642848-6.902401 30.765048-10.871172zm-58.454314.08578c-.577747 2.674395-2.932673 7.342797-1.14058 9.231302 3.325437 2.348029 1.34835-2.714549 1.958678-4.643872-.298894-.726584-.151422-3.164126-.818098-4.58743zm-11.761557 2.188463c-.08543 1.354453.218285 2.312383 0 0zm38.308774.340031c.00064.474248.000514.380437 0 0zm-25.670785.06976c-.444148.603307.526446 1.388319 0 0zm24.586097.327629c-.939011.373564.566193.488703 0 0zm-14.602727.19637c.462355 2.127609-.883354 6.095804.580654 7.159362-.37983-2.338814.363552-4.919589-.580654-7.159362zm-2.675806 2.528528c.757842 1.606959-1.229081 8.253333.01573 6.660153.301809-2.182759.796891-4.526107-.01573-6.660153zm-7.212996.504362c-.248658.286851.307617.431979 0 0zm44.936276 2.711463c-3.904489 1.517229-8.293922.441823-12.167352 1.832488-3.73523 2.71436-8.422879 2.15428-12.443029 4.01779-.440582 2.32826 1.02495 4.79338 3.073043 2.19651 3.379984-.82038 6.55944-2.25218 9.902887-2.91409 3.607926-2.179701 8.279434-2.273236 11.460198-4.689683l.174271-.443042zm-35.090365 4.116028c.566428.23834.668803.28141 0 0zm.264066 1.30328c-.502109-.0356.565917.33131 0 0z" fill="#783517"/><path d="m86.616118 21.292887c-3.970009 1.131852-7.857404 2.476156-10.983826 5.266087-4.2861 2.685903-9.289642 4.438217-12.920141 8.070567 2.871371 3.085447 8.898066 1.766235 12.999515 1.227043 3.146801-.768084 6.267318-1.658812 9.273544-2.875004-5.072503-.140258-11.379235 4.227085-15.646136.70051 2.215403-4.020102 7.802272-6.406682 11.565723-9.48395 1.769404-1.688114 13.376056-1.902856 5.711321-2.905253zm3.483509 2.811715c-3.263897 1.397789-7.61995.240613-10.01383 3.362768-3.271515 1.013211-2.073651 4.852039 1.019222 3.027357 3.188444-1.756174 6.681955-2.594426 10.123644-3.568976 1.159209-.879842.34721-3.016206-1.129036-2.821149zm-16.234669.759643-.08371.06201zm14.649236.104387c5.550539.2475-1.191913 3.323297-3.465043 3.532224-1.684231 1.237784-8.287945 3.344691-4.847081-.555083 2.194621-2.196434 5.27657-3.021593 8.312124-2.977141zm1.008724.186035c-3.447549.494225-7.285538.778714-9.599285 3.741347-.06017 2.870254 4.955471-2.091115 7.124636-1.690021.823748-.214306 4.710189-.898702 2.474649-2.051326zm-16.009359.03772c-3.669554 2.597245-7.864555 3.92245-11.975603 5.768268-4.32472 2.060143-7.923367 5.419753-12.236912 7.426061-2.027399.691189-7.079897.40676-4.441085 2.541337-2.641066 1.624133-5.003322 2.363352-3.789679 5.977476-.118953 3.6036-.213057 7.234593 1.141799 10.652278 1.284665 2.805686.403678 9.069577 2.30746 9.696137 1.217063-4.447893-2.181364-8.834059-.711979-13.343945.436834-1.820022.603994-8.805754.104743-7.541007.513913 4.911262-1.561324 9.7968.0058 14.630902.726154 1.836512.590941 8.666177-.275219 3.615935-.213898-3.841958-1.31379-7.499766-2.206577-11.211745-.227027-2.9526-.168306-8.010872.190287-9.62161.386451 3.361706-.03238 6.764466.239834 10.102619.61814 2.048008-.365582-4.654621.243165-6.199241.215061-2.929683-.998309-4.671618 2.638937-5.186148 5.601677-1.964319 9.687046-6.437829 14.688334-9.39433 4.589881-2.254865 9.947764-3.596175 13.626178-7.307494l.450492-.605486zm13.613123.486792c4.624226.828258-3.231528 1.625185-4.354493 2.839961-4.947542 3.032255.574234-3.340518 3.078977-2.584927l.314213-.13826zm9.197888 0c-.16919 2.680414-6.249494 5.082479-5.473518 5.243644 1.876602-.560547 8.553159-2.939528 5.473518-5.243644zm-8.562268.474906c-2.385538-1.073307-8.096248 3.630684-3.454559 1.302876 1.141539-.396577 2.599026-.321529 3.454559-1.302876zm13.103078 3.758944c-3.348427 1.988261-6.679207 4.314642-10.691908 4.562235-1.79035.273243-7.046368 3.05169-2.589971 1.809986 5.321366-.279425 10.232265-2.472121 15.314299-3.864366-.63988-.865495-1.31768-1.703078-2.03242-2.507855zm-47.277221 1.315165c-1.779321.235963-4.028587 2.291172-.804897.442951zm-4.649328 1.538924c-2.006008.736156-7.330399 2.281722-7.177249 2.491938 2.479825-.420055 5.295766-.611106 7.177249-2.491938zm55.208519 1.452625c-5.018286 1.094594-9.438388 4.517374-14.810476 3.980867-5.306634.992434-10.300097 3.215588-15.645767 4.112251-5.183536.32531-7.470657 5.301799-11.854163 7.094669-3.281524 2.125646-8.585509 5.296664-11.103872 4.812961.605062 6.881493 3.177668 13.506079 2.8105 20.475909.550932 4.854785-.02495 9.919252 1.919925 14.52774.08092-.584644-.393226 3.367832 1.646266.936596 3.258497-1.709724 6.673547-2.987654 10.279832-3.668115 1.962739-.44593 5.380586-2.285733 1.333583-1.08778-4.567011.338375-8.816279 2.221536-13.215757 3.339742-.513139-3.798729-1.292089-7.519351-.803994-11.381191-.09049-6.691814-1.784183-13.231948-2.376754-19.859631 1.303067.01023 6.577393-2.01592 9.76143-1.930008 3.427383-1.59495-3.910104-.480393-4.989876-.543456-1.532808.07614-6.912486 1.939506-4.982632-.323245 5.293688-.811756 9.094063-5.066263 13.866135-7.147998 3.956924-5.279759 11.175449-4.664542 16.816682-6.752584 3.879839-1.853705 8.136394-1.906363 12.239074-2.677273 2.59084-1.438013 7.934434-2.754336 9.109864-3.909454zm-67.41656 2.588989c-2.648963 1.898877-1.092739.975516 0 0zm-7.238835 3.764112c-.531547 1.738617-1.473076 7.904986-1.091493 7.202669 3.666295-3.866065 2.661814 10.060568 3.219719 3.708064-.422343-3.609921-1.104777-7.627953-2.128226-10.910733zm6.27972.179317c.512575 3.746165-1.057111 7.329952-1.039954 10.962637 1.036506-1.903197 4.522696-9.944228 1.039954-10.962637zm30.477727.896069c-4.092901-.09267-5.902078 4.91521-10.056065 4.854019-2.372644.355538-8.215835 2.170668-7.956554 2.88872 3.372913-1.957185 7.408664-2.055633 10.917462-3.529378 1.642806-1.174457 6.791144-4.953282 6.517196-3.194471-4.432539 1.962685-7.007422 6.812966-11.935582 7.68233-1.879515.161709-6.012786 3.060306-2.06113 1.219916 3.987817-1.202239 7.594005-2.98127 10.356027-6.185533.729289-.936795 6.718102-2.949165 4.218646-3.735603zm-27.734741.239262c-1.060684 4.155438-.04464 8.244668.751059 12.3274-.278578 3.723422.555087 7.375715 1.711883 10.890091 1.105975 6.652427-1.341161 13.231733-.989438 19.912112.04662 3.755648-2.163251 7.134089-1.481 10.95363-.159356 1.552436.607333 5.787125.451759 1.860183-.732697-4.270021 1.367642-8.150093 1.67832-12.30668-.216689-6.758455 1.965012-13.455946.890825-20.188603-1.270697-3.892131-1.985283-7.887883-2.103988-11.993724-1.14156-3.66255-.801422-7.466143-.448979-11.220315l-.331763-.171049-.128674-.06305zm42.799455 1.388029c-3.424517 1.43345-7.695284.560907-10.752366 2.835468-1.934565 1.020421-8.612177 4.970242-3.196496 5.09899 4.095155-1.389569 7.886602-3.69497 12.221445-4.388474 1.878937.323823 5.069233-3.228491 1.727417-3.545984zm27.260874.457337c-4.40295 2.269063-9.160561 2.461129-13.966595 3.333147-4.410909 1.44402-8.170891 4.337052-12.281376 6.357072-1.539651 1.473556-6.309456 3.322236-5.867065 4.395776 5.480485-.596644 10.562945-3.151788 14.947087-6.400159 4.987745-2.105651 10.591859-2.436462 15.490799-4.643531 1.17074-.826001 2.81059-1.307045 1.67715-3.042305zm-28.511443.08423c4.021738 1.541279-3.286724 3.869072-5.17919 4.050731-2.52175.264811-7.440587 5.046898-8.483325 1.608616 3.042868-2.21679 6.177087-5.12111 10.25169-4.738437 1.161493-.215261 2.222257-.832185 3.410825-.92091zm-37.158973.894003c.529565 3.013601-.238065 8.833193-.256946 10.143278.742091-3.245926.83317-7.002302.256946-10.143278zm62.678346 1.110009c-.34975 3.223375-7.171241 1.732566-10.184955 2.862002-4.663118 1.115398-8.090903 4.801797-12.555776 6.351906 2.58421-2.564812 6.149976-4.427608 9.322379-6.402202 3.426164-2.598962 7.762718-1.601664 11.678922-2.361236.60455-.0832 1.0954-.558999 1.73943-.45047zm-82.298338 1.413868c-.800979 3.940493.902698 8.08555.82687 12.098173 1.21567 3.888381.380298-3.645694.195676-4.790429-.316556-2.443231-1.160041-4.816438-1.022546-7.307744zm34.943088.03256c-.169359.155129.25166.08211 0 0zm-.03979.0155c-3.321772.163534-7.438134 1.563547-9.717754 3.234428 3.018316-1.652259 6.361168-2.564631 9.717754-3.234428zm-.07648.347265c-2.239437 2.294071-7.841327 1.887051-8.753471 4.100525 2.66453-1.813708 6.583-1.834948 8.753471-4.100525zm49.50602 4.606438c-5.35407 1.498191-10.578883 3.53098-15.882232 5.238956.513339-2.739188-4.583264 1.524701-6.448181 2.188498-.843492 1.59366-.682849-.409871-2.833863.953663-1.374073-.17692-3.542352 1.161805-5.92712 2.00655-1.369874.520731-5.572442 1.625406-1.631376 1.116981 1.455419-.244046-.855306.903976 1.113636.103629 7.980977-2.108456 15.541254-5.600585 23.582286-7.539959 3.09311-1.010772 6.10097-2.283621 8.97877-3.802701l-.95188-.265616zm-15.559771 3.897436c.216594-.0579-.256083-.171194 0 0zm17.283181-2.868559c-3.5266 1.905794-7.25056 3.336716-11.138854 4.288799-4.075107 1.300212-7.353382 4.30939-11.58905 5.199407-3.044332 1.659289-6.173793 3.194422-9.209061 4.874588-2.412254 2.329074 4.831737-.977924 5.998796-2.342609 3.997807-2.346743 8.452455-3.802778 12.460038-6.156886 4.414671-1.133616 8.756881-1.989705 12.579021-4.745927.30041-.357471 1.79578-.278732.89911-1.117372zm-32.973182 15.558746-.04809.0606zm-54.09024-15.334982c-.04778 3.16134.297681 6.318317.16901 9.485212 1.385193 3.297518.03388 7.391704 2.53783 10.275859.440667-5.04592-1.905827-9.55801-2.201764-14.510695-.131955-1.753104-.218302-3.51346-.505076-5.250376zm2.706812 19.761069c-.111893.196826.260221.0052 0 0zm84.6398-18.307411c-4.70934 2.64421-9.962535 3.586319-14.808088 5.844924-2.637241 1.729979-6.199593 2.457631-8.429976 4.367148 5.012169-1.481157 9.104346-5.145106 14.385754-5.849952 2.57198-1.201444 7.85595-1.814256 8.85231-4.36212zm-67.187635.356051c-.210924-.02757.221791.264536 0 0zm26.028386 1.813326c-3.574718.666867-7.053288 3.901819-9.200234 5.983595 2.380265.04295 6.876657-1.457043 7.968496-1.364099-5.901602-.619846-1.430358-3.391076 1.231738-4.619496zm-30.759363.145211c-2.69851 2.59173-.422504 7.478072-1.03853 11.044289.02867 3.004377-1.918427 8.751643 1.759558 9.523235.168385-3.831906 2.047321-7.714578 1.193469-11.586893-.52404-3.013475-.473106-6.198782-1.914497-8.980631zm57.226482.886251c-5.504576 2.280345-11.386627 3.409877-16.961518 5.509629-1.719367.83111-9.834919.864458-3.965011 1.105511 3.169738.820462 7.116356-3.483432 9.512138-1.620444-2.494154 3.45806 2.558095-1.776666 4.461036-1.294127 2.468647-.804221 4.974579-2.007663 6.953355-3.700569zm-57.444557.640271c1.687117 3.402281 2.351874 8.161315 1.83972 12.15193-.378977 2.068048-1.117086 8.460356-2.579916 3.476817-.248218-4.853831.427983-9.734555-.158369-14.607681.06942-.446474.36449-1.026745.898565-1.021066zm-8.900232.02325c-1.604863 6.080888-.682024 12.490322.373104 18.589047.200504 5.690036-1.411994 11.330144-1.008882 16.986009.804995 2.098536 3.166396 1.487139 1.851707-1.131675.0071-3.96516 2.394648-7.686537 1.642958-11.787918-.565593-7.165066-1.389488-14.28758-2.544199-21.378872l-.146344-.636455-.168344-.640132zm-3.728972 1.226282-.04548.394808zm56.384674.466638-.386261.09187zm22.807907 2.172994c-1.58397.953842-8.933769.740969-4.745028 1.996974-.545322 2.040607-7.804387 3.998723-2.408291 2.392746 2.090861-1.293445 6.535319-2.990358 7.153319-4.38972zm-81.60432 1.730644c-.08565.143756.30105.455404 0 0zm64.523195.613916c-.842229.102954.28408.147866 0 0zm22.656495.971517c-3.96508 1.87142-8.32409 2.514101-12.471064 3.545423 3.415284.66339 7.849254-.793082 11.518804-1.660978 1.31843-.196342.89019-.931097.95226-1.884445zm-80.928392 1.096057c1.226275 4.397303 1.644981 9.097375 2.260413 13.658541 1.084662 4.036868-.934043 7.692461-1.699834 11.520968-.821097 5.114196-1.774829-3.963653-.09928-5.43207 2.188081-6.484616-.59358-13.175646-.461301-19.747439zm39.473044.0217c-1.839439.541911-8.81044 3.406925-3.265434 1.882056 1.028696-.417218 2.728717-1.225313 3.265434-1.882056zm21.137212.160714c-5.656369.51834-10.692802 3.39002-15.732411 5.735575-5.724114 2.076116-12.227133 2.183343-17.196329 6.048719 3.773722.269871 7.140184-2.610572 11.107532-2.169985 5.396569-1.039062 10.160478-4.020658 15.152119-6.146391 2.194621-1.210974 4.576675-2.070884 6.669089-3.467918zm20.318656.904854c-3.99493 1.758165-8.51824 2.033213-12.08309 4.778218-5.504884 1.438523-9.54752 6.008179-15.27487 6.842391-4.800063.658297-9.242787 2.802648-14.013292 3.501026-4.515611-.03556-8.364696 2.945894-12.75051 3.569731 3.508945.396186 7.881971-3.264221 12.024073-3.021004 5.20727-.491487 10.027791-2.825295 15.186328-3.661598 4.809988-.656647 8.137953-4.418741 12.55105-5.994764 3.613188-1.67856 7.043921-3.721491 11.053391-4.374684 1.06591-.432064 2.61892-.762267 3.30692-1.639316zm-26.993184 1.494483c-3.204454 2.114561-6.830588 3.698366-10.304736 5.399465-3.556381 2.180573-7.857977 1.429145-11.683149 2.386276 2.439848-2.684496 6.663227-1.358933 9.845071-2.544285 4.267226-1.23236 7.933502-3.876732 12.142814-5.241456zm-21.535637.28267c-1.543551-.121484-8.694119 2.424261-3.486833.981002.790843-.270506 3.833796-.166797 3.486833-.981002zm48.528821.192236c-3.72799 1.291532-7.33821 2.923663-11.141438 4.025077-2.81811 2.492988-9.487299 4.523062-10.592788 6.51013 3.895933-.356665 6.576934-4.054658 10.577447-4.238284 3.907529-.738489 7.537849-2.394076 11.157299-3.976651-3.52742 1.002682-8.01047 3.541265-12.25143 3.990697-2.869073.520172-7.478021 4.22248-8.945213 3.647102 3.243056-1.7726 6.626104-3.27002 9.641034-5.446184 3.791159-1.479266 8.180809-2.725759 11.555089-4.511887zm0 .538985c-3.90521 1.540755-7.87446 2.974781-11.798741 4.406367-1.361166.950275 4.143941-1.714648 5.628761-1.718086 2.11035-.620618 4.45217-1.659153 6.16998-2.688281zm-59.457353.05891c-2.584684 2.784647-3.811223 7.159446-4.066482 11.090219-.213983 2.144695-.67969 8.418453-.217291 7.926463 1.49656-3.752013-.118109-10.765491 3.708637-12.400943 2.864495 2.52403 1.594691 6.948442 2.87111 10.269784 1.298874 5.16411 2.255035 10.56571.848915 15.827037-1.536667 2.73307 1.943233 3.40232 1.219399.21824.230299-4.329581.557517-8.692744-.616676-12.925754-1.056281-6.416563-.851466-13.058362-2.689279-19.341511l-.577217-.495427-.481116-.168099zm59.457873.727605c-4.11423 1.86569-8.2907 3.681147-12.771833 4.458642 4.457023-.502167 8.922933-2.427257 12.771833-4.458642zm-16.850137 1.198385c-4.504146 1.001016-8.641048 3.434059-13.270508 4.081923-2.838057.626986-3.327313 3.96612.02788 2.167246 3.303376-.495062 6.618344-1.001219 9.464759-2.880143.899105-.575356 6.201986-2.560004 3.777874-3.369026zm-1.139982.394808c1.339015 1.81015-4.554036 3.337472-6.327525 4.497065-2.252505.140488-5.725106 2.133534-7.267511.749127 3.480379-2.710082 8.235057-2.618576 12.030902-4.801228.528385-.121698.996214-.500735 1.564134-.444964zm5.207951 2.780709-.02761.09786zm12.783198 2.06499c-6.99218 2.088652-13.456067 5.489304-19.730814 9.155667-5.327174 2.499494-11.350953 3.726584-16.088188 7.363221 3.965891-2.164292 8.28047-3.386914 12.456476-5.117614 4.588072-1.830476 8.682387-4.840746 13.411896-6.255845 1.37627-.400443 4.73811-.309904 3.53852-1.765024 1.78126-1.602791 4.99243-1.810501 6.41211-3.380405zm.001 5.214669c-3.12544 2.463376-7.13413 2.549652-10.81794 3.497461-3.008041 2.021545-8.180154 2.994489-9.474701 6.226608 3.953425 1.036257 8.03074-2.421962 12.220271-1.283757 4.14494-.909163-3.137948-.344579-4.583991-.15633-1.6322.195467-7.059934 2.603031-4.65035-.844927 3.967402-3.148698 9.011541-4.022841 13.743571-5.359177.94422-.65525 3.29661-.882671 3.56314-2.079878zm0 1.096574c-3.97016 2.417513-8.95551 2.370468-12.805103 4.923484-1.660319 3.579221 5.098633.552243 7.110783 1.076268 1.54854.276601 5.97158-2.563865 2.12864-.957356-2.27301.257665-7.728379 2.354981-8.349523-.104243 2.925173-2.474941 7.198083-2.028668 10.401123-4.066304.22614-.463229 1.75125-.07322 1.51408-.871849zm-27.165263.745174c-4.50218.131021-8.818402 1.699727-13.064319 3.070663 3.774374.174639 9.508033-3.54911 11.992478-.704771-3.806762 3.465053-9.117065 5.308376-13.598441 7.98065-3.77626 1.446755-7.85138 1.988869-11.870734 2.237752-1.091595 2.845802 6.158342-.08527 7.984076-.344012 3.771776-.821089 7.004505-2.87331 10.4276-4.538626 4.143644-2.296682 9.57844-3.338394 12.700105-6.857557-.812008-1.443782-3.189907-.269982-4.570765-.844099zm27.165263.661459c-2.15126 1.306835-5.12698 1.873405-7.07904 2.802011 2.09284.382711 6.22272-1.019407 7.07904-2.802011zm-67.00676 1.593184c-.622528 3.580398-1.70859 7.136009-1.582748 10.838189-1.369674 2.572684 2.858705 4.603394 1.435068.919281-.379232-3.920728 1.242186-7.820759.14768-11.75747zm7.116362.38809c-2.14122 3.007827.333814 7.559566-.974379 11.110703-1.616453 3.02857 3.180006 7.7158 2.619906 2.35863 1.520277-4.028185.72127-8.182541-.54101-12.143614-.248008-.470507-.437737-1.267224-1.104517-1.325719zm44.755409.489893c-3.54213 1.58001-7.227811 2.673868-10.494221 4.823609-4.323553 1.948832-8.879898 2.917888-13.423183 3.011571-2.600318 1.017919-2.759849 1.176468.08546.608191 4.339588.44313 8.555482-.360891 12.486052-2.355428 3.833517-.915197 6.422343-4.266928 10.181852-5.342573l.632527-.351664zm-44.721303.731221c2.084606 2.83289 2.470515 7.037736 1.823075 10.525983-.04515 3.169856-2.709828 4.410566-2.52485.571193.718306-3.612112-.740961-7.900745.701772-11.097176zm-.0088.648023c-.374506 3.263476.471632 7.093522-.294034 10.572996.94069 5.06095 2.353186-3.342456 2.028543-5.098716-.553289-1.738999-.538335-4.157831-1.734509-5.47428zm14.887981.133842c-3.287601 1.06323-8.719659 2.391655-9.147246 6.328013 2.032053-2.559863 5.128808-4.733963 8.360731-5.980748zm7.862053.08578c-3.541951.847586-6.759578 2.747206-10.416419 3.204974-3.55218 1.760598-.809933 3.241894 1.686528 1.865374 3.47104-.180988 7.640082-2.065011 9.320314-4.841063zm-1.029912.459921c1.297989 1.815129-5.10327 4.165724-7.207143 4.433513-2.231543.800125-4.859989-.455078-1.324097-1.589011 2.917241-.696117 5.688761-1.974922 8.53124-2.844502zm-21.736141.07286c1.547407 3.053927 2.466547 7.490824.329021 10.229383-.408859-3.156592.249589-6.860987-.329021-10.229383zm21.641573.205672c-2.71798 1.888648-8.306298 1.774887-9.492556 4.147985 3.195083-.32035 8.348897-1.509797 9.492556-4.147987zm-.342614.313676c-1.857316 1.937829-6.063584 4.186814-8.063604 2.870161 2.724701-.757783 5.454828-1.679802 8.063604-2.870161zm-2.002462.890901c-1.227397 1.056647-7.908954 2.374623-3.217132 1.832615 1.199007-.272122 2.563817-.691279 3.217132-1.832615zm30.349569.622701c-4.27277.790072-8.764172 1.241672-12.855862 2.214522-2.5226 2.38228-5.735957 3.554843-8.589858 5.349358 2.696812-.900607 5.405371-1.747192 7.763868-3.387907 3.727711-1.046081 7.488858-2.03276 11.164721-3.164034.479697-.260306 3.379446-.980921 2.517131-1.011939zm-49.402154.538469c.785686 1.704356-.457164 9.621454.88717 4.34044.205655-1.470573.177148-3.175839-.88717-4.34044zm23.478155 1.849499-.09508.05271zm8.949324.796334c-4.444755 1.901495-9.213054 2.256299-14.031331 2.352306-4.154006 1.756594-9.309225 2.105978-12.883306 4.658635 3.98372-2.10596 8.547686-2.43249 12.699636-4.158876 4.466093-.393736 9.086633-.357057 13.263726-2.23228.669955 1.194922-6.144808 3.400382-1.440689 1.783418.615395-.345604 4.452946-2.020864 2.391964-2.403203zm-36.803956.930693c-.358229 1.491135-.162349 7.628628.790676 5.794538-.406394-1.90833-.596683-3.859187-.790676-5.794538zm32.075563 2.268078c-3.834028 1.171874-7.874615 1.69462-11.278969 4.06731-3.317843 1.2185-7.455835 1.48515-10.195169 3.52911 3.384978-1.70019 7.177748-2.09064 10.679726-3.42499 3.039914-2.69399 7.830574-2.32151 10.794416-4.171443zm-8.87026.585494c-4.338466 1.391766-8.771424 2.671236-13.036925 4.267786 2.886647-.8709 6.952003-1.62415 10.020055-3.21927 1.941245-1.11889 4.89254-.971276 1.272483.31995-3.642645 1.85099-7.881143 2.29567-11.571597 3.7222 4.036909-1.24391 12.062362-2.56998 13.315984-5.090646zm7.587134.904846c-4.751195-.0773-8.3581 3.6411-12.938398 4.16123-1.885033-.0617-8.842076 3.30094-4.065523 1.9493 2.141614-.88674 4.271372-1.6818 6.513259-2.25421 3.686368-1.27629 7.372735-2.55258 11.059103-3.82888l-.568441-.0269z" fill="#662b0f"/><path d="m88.305421 21.600362c-7.579921.116166-12.869446 6.216725-19.125838 9.569068-1.299953 1.258661-7.053544 2.924981-5.018211 4.298193 4.08163-1.442057 9.010861 1.605118 12.491977.02236-3.753701.739159-8.2697-1.156613-11.683012-1.109551 3.87186-2.916766 8.381185-5.062578 12.25404-8.055539 2.789859-2.847873 9.482808-4.398837 11.552117-4.596043zm3.162081 1.147217c-3.754677 2.015737-9.129932.448272-11.950657 4.058117-.883042 2.453441-9.580934 4.042604-5.091956 6.206016 4.71753-.230039 8.680965-2.155674 12.753769-4.156555 2.691147.04075 8.150042-1.947889 7.029245-4.63635-1.038347 4.995317-7.662513 3.328546-10.863493 6.018264-2.120089 1.411479-8.635079 3.61485-8.670902.310029 4.286861-1.533031 6.559376-6.564358 11.617577-6.246155.798614-.481591 7.916738-.80517 5.176417-1.553366zm8.418091 6.10557c-3.164303 1.977546-7.039598 2.366263-10.254155 4.318588-3.264406 1.56012-6.72518 2.673079-9.784936 4.624517-1.768622 1.235505-7.939679 1.818092-6.584317 3.71664 4.394477-.760295 8.800051-1.660357 13.002912-3.228789 3.51669-.886615 7.28729-.541294 10.528854-2.453319 2.022448-.619192 6.697129-.971886 6.585999-2.744839-3.3328 2.08936-7.436034 1.43205-10.876173 3.315544-4.245141.148741-8.225951 1.685172-12.247216 2.837643-1.046561-1.706053 5.238086-2.926998 7.064937-4.069076 4.425771-1.820103 9.058328-3.171964 13.194552-5.649268l-.630461-.66766zm-37.453012.423747c-3.582087 1.150911-6.847409 3.269907-10.485139 4.381824-4.182879.730879-7.636051 3.309073-11.688178 4.335478-1.566654.58297-7.490691 2.871928-2.740888 1.84205 4.224229-1.541841 8.999915-.920146 13.004964-2.792841 3.759066-2.898928 8.17741-4.845319 11.909241-7.766511zm27.563176 1.887224-.21239.09973zm-2.754354.992187c-4.566101 2.211593-8.513931 5.780362-13.648692 6.744165-3.073011.620411-3.919995-.582376-6.448582-.03503-3.822497.157416-7.604294.647042-11.068397 2.368338-1.486244.938693-5.09398 1.239667-2.171101-.917866 3.114809-2.772588 6.305987-5.532024 9.934048-7.615946-3.710998 1.323973-6.620843 4.229618-9.687118 6.607286-1.745467 1.370385-8.527592 5.618492-2.983806 4.214 5.856323-2.100125 12.426975-1.660627 18.033387-4.52813-1.413563 1.491173 4.756927.630766 5.694605-.170157 4.449886-1.446008 8.948674-3.542224 12.345656-6.66666zm17.733807 3.386873c-2.95348.358541-9.048215 2.269659-3.02458 1.076417 1.80546 1.223385-3.957592 4.807748.0905 2.694556.67245-1.431763 4.79281-2.074829 2.93406-3.770973zm-5.83014 2.247925c-4.02201.941054-7.951089 2.226525-12.095716 2.547387 2.922682.262139 7.692976-.726474 11.237052-1.826672-2.252155 2.3229-7.803893 2.889331-10.988458 5.375381-3.276588 2.687363 3.484656-1.987725 5.172077-1.971799 1.289264-.663608 9.314965-2.690366 6.675045-4.124297zm7.21093.299207c-1.81829.197259-6.71346 1.912125-2.29564 1.30166.51715-.291856 3.47961-.152847 2.29564-1.30166zm-4.53512 1.410767c-.0131-.0072-.001.01132 0 0zm5.14335-.121957c-2.37167 1.186525-6.88094 1.318137-8.001046 3.299556 1.845366-1.225597 9.883126-.316935 8.001046-3.299556zm-64.908183.49041c-2.001374-.42973-7.490744 2.252768-2.900046 1.512906 2.329223-1.172226 2.852889 1.057265.35033 1.026473 1.249898 4.021313-.688901 8.247796.869145 12.238351 1.371888 4.994508 3.250865 10.035657 2.44434 15.296592-.449064 3.690989 2.581755 2.300863 2.123748-.603138.527196-3.33078.626244-6.928694-.381326-10.10633-.218851-1.089538.652987-6.78589.874458-3.382928 1.936652-2.332154.333419-7.857731 4.836004-8.77051 3.537648-2.476723 8.643346-.587701 11.60143-4.22416 2.37307-.892862 6.848068-3.132377 8.418055-1.393302-4.017922 1.226378-7.415572 3.694908-10.313663 6.713536-2.081336 3.287504-8.0828 2.476244-9.292013 5.585696 3.43725-2.390592 8.375651-2.198103 10.841496-6.189352 2.418411-3.76019 7.022665-4.300013 10.306459-6.489196-2.499944-2.004368-6.336.361331-9.219488.908755-2.428842 1.344779-4.448721 3.52651-7.591988 3.196175-1.344715.484453 2.500588-1.451113-.960331-.816133-2.708553.609403-8.660582.928352-9.416131 1.917919.990055 3.850261.525121 7.713534-.490401 11.49241.656902 4.274281 1.414218 8.769345.01524 13.027577-1.815415-1.475171-.112834-7.367331-1.785588-10.293903-1.062997-4.423491-2.661135-8.886432-1.861947-13.503543.107511-2.585862-1.68019-4.495166 1.482393-4.975879 1.721982-1.011418 3.913976-1.79761.04982-2.168016zm-10.074838.191202c.86819 6.82288 2.511059 13.751206.932737 20.613086-.87169 7.207007-.01192 14.52999 1.327074 21.629298.109748-2.620056.764336-5.275636-.235209-7.803023-1.964466-10.755277 1.342072-21.759464-1.071396-32.495701-.350511-.586653.281499-2.371142-.953206-1.94366zm-1.061951.04444c-.711318 3.163873 1.283348 8.105227 1.278992 11.974462-.553802 6.095856-2.063902 12.187986-.999739 18.337271 1.03378 6.910868 2.897646 14.231739.004 20.978006-.904876 1.54609.248258 7.888549.256146 3.105111.818963-3.933724 2.589084-7.729087 1.87139-11.87207-.540001-8.878016-2.914852-17.796189-1.004903-26.678961.862663-5.289972-.861513-10.59677-1.405878-15.843819zm2.07946.02377c.443618 2.114085 1.214134 7.481413 1.54048 7.327202-.514204-1.883847.261471-6.516344-1.54048-7.327202zm65.386191.371554c-1.40955 1.103524-6.779401 4.263245-1.961617 3.399252 3.235535-.602517 9.482528-1.086554 10.976208-2.139901-.59796-.626187-5.93204 1.411323-8.323188 1.330417-4.387668.56947-1.226669-.796364-.691403-2.589768zm-69.652597.132808c-1.785514 3.587898-1.990777 8.635534-2.428365 12.892781-.222227 5.034251 1.306453 10.076246.06305 15.072655-.46155 4.663582 1.659397 9.160125.9822 13.853826-.07288 3.147943-.740045 11.482977.330326 11.782309-1.045682-7.327206 1.417136-14.78956-.536849-22.050481-.541164-3.832594.615607-7.695926-.02274-11.55259-1.065518-6.769519.619897-13.344052 1.612385-19.9985zm57.116928.267167c-4.262672.771605-8.292433 2.679034-12.650958 3.158414-4.718974.330114-6.846671 5.27862-11.266079 6.431461-3.778767.427171-4.052989 5.088153.199741 2.951867 4.632796-.363501 8.861201-1.915758 12.697063-4.566277 1.915568-.134069 8.750099-2.422893 3.459506-1.052124-5.567679.755867-9.943668 5.416867-15.799539 5.036367-4.932707-.921114 2.497825-3.016604 3.786456-4.456106 2.646914-2.751991 6.128367-4.27214 9.897139-4.701501 2.863386.05898 8.607184-3.757894 9.547251-.24317-4.800697 5.389368 5.079427-2.304445.12942-2.558931zm-58.52046.42168c-2.415365 1.076663-2.755527 3.40172-2.306638 5.679813.108992 1.996363-.05148 3.998302-.05497 5.996992.650205-3.921044 1.73592-7.753527 2.361612-11.676805zm80.80282 1.021126c-4.12495 1.468172-8.425596 1.786396-12.768991 2.145242-8.506172 2.396676-14.949465 9.562411-23.919409 10.730198-4.361615.439003-8.07352 2.71157-11.565647 5.197442-1.474776.996452-6.936718 4.867893-4.295679 1.29533 4.802709-3.235705 9.672125-6.923236 15.587178-7.788244 6.89443-1.127638 13.304951-4.423516 18.859778-8.570332-2.201082.833603-4.884797.774848-6.443379 2.767937-8.073277 5.588622-18.776691 5.513638-26.650081 11.545097-1.368131 1.388262-4.393786 2.40174-1.37793.36435 1.721048-1.207 7.146979-5.157058 2.468658-2.567496-1.489016.643765-4.783654 4.085517-5.118551.524.973429 6.111519 1.571428 12.29787 2.669595 18.391129-.636683-3.036993 3.968784-3.046566 6.006649-4.060225 5.112198-.04351 8.547693-4.821202 13.703942-4.486819 2.29885-1.224785 7.356955-2.133591 7.307399-4.772556-3.740419 1.046526-7.393038 2.765798-11.445296 1.965254 2.531668-1.066611 2.43348-1.071314-.03204-.001-1.724896-.375312-4.850666 1.300437-1.642666-.261897 1.684242-.792172 3.496416-1.277412 5.233145-1.943657-6.441806 1.110358-13.300063 1.471448-19.392065 3.560508 1.43618-2.774866 7.271884-2.021626 10.479015-3.061888 5.362114-.684336 10.543621-2.396153 15.134595-5.261828 4.095852-1.511007 8.751464-1.711482 11.957337-5.089559 5.245522-2.696067 11.400143-3.271197 16.325503-6.661986-3.05211 1.053545-8.66881 3.851705-13.064776 4.685671-4.209779.57441-6.89401 4.434582-10.991505 5.140195-5.6784 1.321216-10.343628 5.423038-16.275007 5.973228-4.608494.876493-9.335466 1.397278-13.7667 2.999242 1.158851-2.909571 6.219305-4.271885 8.754319-6.677705 4.594768-3.165272 10.636494-2.328145 15.565541-4.788148 6.120574-2.498162 10.867906-8.199019 17.865679-8.495197 3.716769.223114 8.452419-1.491968 10.988009-2.326467l-.15663-.469751zm-31.959806 2.986381c-2.941406-.738186 1.217286 2.5449-2.654618 2.174545-1.770219-1.164433-1.600038-1.735278-3.124816.36389-.507146 1.634674 4.848522-.303931 6.129277-1.017127 2.419641-.646526 1.842248-1.662891-.349843-1.521308zm-22.640995.05891c-2.801711.963013-7.172411 2.261947-7.255417 4.568189-.347559 2.23608-1.124495 5.213472-.673189 1.218825-.26098-2.66437-1.363248-5.62418 2.592907-4.98759 1.750369-.5039 3.520225-.71991 5.335699-.799424zm19.89491.42478c-3.139874 1.367432 3.498933 1.222694 0 0zm-49.160308.819588c.01384 1.932874.189791 6.15815.0566 1.991785-.01915-.663925-.03804-1.327876-.0566-1.991785zm85.145189.740007c-3.72394 1.823743-7.28354 4.172903-11.529844 4.542159-2.663143.0023-7.110397 3.45471-6.745853 4.45565 3.302627-1.848317 6.778963-3.597926 10.638577-4.547938 1.83196-1.87161 7.60102-1.752172 7.63712-4.449871zm-80.253498.937927c-2.43758 1.955466 2.626116 4.097319 1.012637.760939-.223309-.307513-.560395-.805245-1.012637-.760939zm7.837765 1.349788c-.778961 3.2389-1.761493 7.081084-1.612937 10.625886.565176 3.841554.933469 7.676902.115344 11.48894.296289 3.688086.463626-3.670189.754223-4.605632-.07329-4.939439-1.554326-10.358777 1.004041-14.904869 2.469783 2.790951.910668 8.383949 2.687183 12.135733 1.164316 4.930433-.637825 9.887658-.838547 14.831152.264241 3.070044-2.065646 3.206567-2.580489.281385-1.926066-5.367193 1.805284 9.257282 2.871237 2.402465-.03343-4.734717.806319-9.395843 1.300493-14.079941-.199847-4.299218-2.196993-8.32851-1.929166-12.712641-.305639-1.696163.304994-4.771021-1.771382-5.462478zm-8.60671.463538c-1.12412 4.415532.765533 8.909658 1.996904 13.090725-.29929-3.922552.351105-8.157019.48356-12.215843-.521949 2.712032-2.408829.885988-2.480464-.874882zm19.87579.984436c-1.075382 4.499526-1.121352 9.360607-2.21044 13.949048-.74997 1.564579-.04892 7.74299-.547534 6.321018-2.324139 2.792014-1.020413 7.069726-1.423958 10.488549.153295 3.768269.707948 7.734058 1.583637 11.278082-.271917-6.540539-2.67376-13.303618-.556042-19.745568 1.404557-.687873 1.317885-3.482115 2.21268-5.812077 1.359722-3.613319.08682-7.563049.996653-11.234804 1.789878 3.177968 2.032866 7.49365 3.019824 11.150742.48823 1.678018.930636 6.33301 1.166868 6.084568-.643884-7.233886-2.735252-14.228402-3.891936-21.386655l-.159578-.56138-.190182-.531487zm61.130123.936377c-3.3384-.04139-6.07481 1.816423-8.93441 3.225112-3.107711 1.601062-6.540819 2.057961-9.868399 2.593212-2.708982 2.01306-5.924534 3.295317-9.227008 4.188306-2.924235.859378-6.055503.634363-8.861992 1.935282 8.947409-.400059 16.789018-5.346863 25.436046-7.160281 3.925873-1.203224 8.022633-2.752793 11.455763-4.781631zm-6.9634 1.810225c-.95146.411304-5.377951 1.544289-2.65286 1.307766.93981-.314233 1.80302-.807523 2.65286-1.307766zm-24.990726.959632c-2.733444 2.160014-8.87404 2.489625-10.151221 3.684824 3.099323-.876306 1.310575 2.673587 2.03865 2.299741 3.232257-.302358 7.197383-3.740073 8.112571-5.984531zm32.184596 3.268018c-3.12857 2.421499-7.07656 2.155605-10.520353 2.811931-2.042088.92123-4.199132 1.529398-6.320476 2.234789 5.626818-1.031444 11.420029-1.388947 16.841349-3.343465-.00017-.567752-.00035-1.135503-.00052-1.703255zm-42.850095.951363c-3.515853 1.580646 3.621326 3.04598 1.001997.26699l-.506272-.202968zm42.850615 1.352889c-7.3032 2.562137-15.456802 2.207774-22.363525 6.054363-4.033684 2.002193-8.836288 1.866409-12.525353 4.687268-5.940419 2.711997-12.595614 3.611824-18.275002 6.979435-2.628798 2.052443 3.668578-1.622279 4.852719-2.016203 5.578835-2.377838 11.870409-2.922643 17.049514-6.27352 3.913229-1.374251 7.987317-2.35371 11.733414-4.231571 6.246913-2.613312 13.272193-2.374094 19.528233-4.949142v-.242317zm-11.918135.469222c-1.507023.532634-5.002293 1.888754-1.595865.59847l.832321-.312351.763544-.286136zm11.918135.280603c-5.18861 2.186155-9.894176 5.514466-15.273727 7.194953-6.422483 1.001801-12.630525 3.100111-18.237135 6.41196-3.954846 2.150126-8.331255 3.528406-12.860094 3.542697-1.870054 1.049316-7.472956 1.30025-7.37956 2.229555 3.396943-.106169 6.457469-2.006154 9.927192-1.69388 8.846069-1.353821 16.01498-7.708756 24.83422-9.274628 6.932106-1.009429 12.663264-5.3424 18.989104-8.030314v-.242317zm-.13126 1.138948c-3.30579 1.507752-6.4398 3.55808-9.808386 5.059875-6.035557 3.399574-13.244379 3.311024-19.389487 6.463811-2.393467.970034-6.96207 3.137359-7.644676 3.850846 2.204518-.588278 4.447839-1.049947 6.283821-2.499113 8.369821-4.25728 18.105488-5.060767 26.209368-9.96943 1.14774-1.536956 5.32942-1.066609 4.34936-2.905989zm-71.697949 1.114661c-.461449 2.765046-1.530015 7.14527.14393 9.076898 2.91968-2.234839-2.901192-3.695808.471041-5.669589 1.838985 2.248238-.478967-3.001756-.614971-3.407309zm43.704827.410311c-1.265492 2.651751-6.831358 4.017935-10.241014 4.225543-3.433649 2.119972-7.011796 3.838545-11.081716 4.235435-1.391613 1.19135-6.820114 2.561304-3.578199.375247 4.663951-.966113 9.253962-2.41154 13.366475-4.838625 2.806873-.94721 7.885818.03883 9.092226-2.748586-4.080516 1.149319-8.374844.706398-12.445319 1.489581-3.425736 1.851706-7.368622 1.998665-10.850934 3.687881 2.275175-.631687 7.188024-1.683648 10.270816-3.173129 3.958248-1.245422 8.322415-.357699 12.344342-1.563533-3.456657 2.462024-8.568704.888841-11.962479 3.877631-3.256298 1.225795-8.273654 3.342523-10.923978 2.695095.0609-1.673448-.670136-7.76913.371553-3.034957 3.493023-3.673742 8.521732-2.92046 12.878284-3.456637 4.162895-.04108 8.473122.173912 12.327313-1.683024l.432632-.08793zm27.208162.150895c-2.58555.715561-7.60828 3.76927-8.16695 4.258618 2.82827-1.193866 6.27041-3.088775 9.08388-3.410096.0479-.455007-.52139-.831374-.91693-.848522zm-11.252546.568441c-5.422829 2.268672 3.059706 1.990716 0 0zm-1.174605.173116c-3.083371.117007-9.121343 3.940916-9.234416 4.969572 2.880089-1.727384 6.304905-1.801283 9.370325-3.005868-2.348729.459643-1.582353-1.392762-.135909-1.963704zm-73.835289 1.258326c-.101059 3.575517.85523 7.161947 0 10.689135 1.169559-.388138.890749-6.889596.254626-9.36198l-.118986-.684196-.135644-.642954zm42.906426.455269c-.848216.341746-5.046986 1.570854-2.819219 1.109807.991075-.23371 1.883581-.728442 2.819219-1.109807zm3.920175.290939c-4.372845 1.011528-8.598877 2.713252-12.935619 3.937466-1.887605.966381 4.083948-1.079252 5.352985-1.153539 1.580323-.711018 7.991004-3.402424 7.078793-2.140589-3.716323 2.138539-7.962005 3.229492-12.19047 4.040581-2.713629.90874 3.711028-.451338 4.811924-.902193 2.081843-.833731 7.898401-2.118839 7.882387-3.781726zm-30.832228.68678c-2.649371 1.717196 2.646237 2.862454 0 0zm39.285459 1.067635c-3.352325 1.152956-6.393345 3.106809-9.990604 3.718632-3.887865 1.94537-9.262169 2.698518-12.230779 5.500862 4.218037-1.631782 8.762648-4.233538 13.456606-5.114454 3.309566-.435872 6.158353-2.117775 8.764777-4.10504zm31.900378.715718c-3.85932 1.24652-7.52029 2.929096-11.384275 4.177943-4.271372 2.487449-8.11156 5.96443-13.111041 6.908282-4.542244 2.229169 2.511462 1.432264 4.152889.57146 3.083937-.568264 5.099937-3.164655 8.361766-3.131564 2.685671-.669919-2.286111.927466.737463.621169 3.657568-.836303 7.942688-1.008511 11.244248-1.903755-1.52658-1.680586-5.47436.998188-7.77276.776305-3.007296.407745-2.584795.342082-.0913-.454387 2.39525-1.497526 5.59032-2.204523 7.8635-3.216926-4.41697.371913-7.80308 3.892472-12.282658 3.930293-4.290652.756124-7.872371 4.03612-12.454982 3.987105 1.591662-1.804762 7.409602-3.067255 10.092658-5.591926 3.208703-2.721301 7.547062-2.994091 11.030602-5.133934.96583-.876405 2.9629-.662704 3.61384-1.540065zm-87.18021.489376c-.0027 1.457076-.03683 5.744182.133541 1.823481l-.03288-.95893zm76.788597.703316c-4.602006.893051-9.227472 1.628319-13.315103 4.127071-1.584292.470105-8.652647 2.253529-3.710781 1.144328 5.28078-.779034 9.840882-4.852193 15.360638-4.19417-1.730099 2.63419-6.769217 3.108155-9.419135 5.547941-3.832982 1.98421-8.269803 2.227066-12.376371 3.408915-4.471599 1.289467.991963-3.042922.113339-2.513611-2.187235.691862-5.669383 4.80992-.965542 3.171477 4.403436-1.809533 9.398641-1.73471 13.61378-3.976825 3.038679-3.116876 9.064329-3.015136 11.008095-6.610948l-.30892-.104176zm-48.847666.906922c-.03557 3.863612-4.582276 6.714471-4.040062 10.30583.174002-2.755607 3.883962-7.37391 4.533647-7.737553.96063 7.269191 2.091452 14.529824 3.208602 21.780821.723949 3.349986-.499168 7.287866-.680665 10.118046 2.865412-7.887203-.47281-16.078651-1.153234-24.041064-.836318-3.355791-.202933-7.46268-1.868288-10.42608zm-25.282178.358634c-.09603 3.895047 1.165188 7.742482.341749 11.711168.401438 3.571627-.32595 7.898941.788123 10.970568.782467-2.479437-.916743-7.38848.115721-10.822317.929226-4.025719.164417-8.041766-1.245593-11.859419zm17.634066.7922c-1.108776 3.995502-1.48649 8.304107-1.608132 12.485669.195528 3.787899-2.022495 7.240806-1.327693 11.055731-.328257 1.704417-.322262 6.42415.672915 2.244624-.231819-3.940562.933016-7.656246 1.306852-11.543043.08507-1.589894.2329-9.413849 1.203434-4.261356.478404 6.357661.06649 12.736602.344363 19.097225 2.287933-.21133.349726-6.32893.712506-8.766672.0228-4.064789-.359659-8.092324-.632317-12.133888-.375811-2.699432.843604-5.729162-.671928-8.17829zm45.90676 2.475301c-2.272682.588542-6.176006.89126-7.224964 2.687655 2.523235 1.482102 2.15979-3.083312 4.7576-1.264872-1.313855 1.964768 2.543959-1.237636 2.467364-1.422783zm-3.352767 1.330152c-3.148273.936804 1.622956 1.439519 0 0zm-10.285161 1.836063c-4.344282 2.338598-9.372153 3.063009-13.690416 5.456726 1.076082 1.485812 6.911801-1.88283 9.775821-1.429106 1.64521-.272983-3.82369-.05555-4.968178.471255-1.192772.452708-5.933422 1.669607-2.217852.137673 3.693634-1.571932 7.732515-2.35189 11.100625-4.636548zm34.620109.568958c-1.32375.64124-8.95316 3.2065-3.89798 3.281849 1.6899.138839 6.22052-2.455553 2.03922-1.192834-4.64871.545259 2.14553-1.152473 1.85876-2.089015zm-7.80004.05219c-4.709461 1.196084-9.54039 1.980968-14.295768 3.045292-1.464968.03746-3.38009 1.904283-2.809083.666675-3.986209-.291473-7.795498 1.894125-11.493064 3.192466-1.944682.806579-8.67523 4.470303-3.595426 2.147855 4.328142-2.048223 8.740994-4.816403 13.626566-4.848275 1.88213.440539 6.884871-.03988 9.951402-1.243904 1.464613-.666448 7.327733-2.474788 3.146552.04843-3.711731 2.285522-7.444673 4.569585-11.399795 6.413704 5.708717-2.123155 10.659639-5.857722 16.108896-8.556978.24027-.221131 1.99321-.942351.75972-.865269zm-33.920928.255282c-3.365535.552388-8.756368.905063-10.695853 2.107023.664024.437211 7.942264-2.578196 8.403182-.817417-1.495241.74785-3.193184 2.335658-.59031.822888.234743-.545188 4.484877-1.996331 2.882981-2.112494zm-32.114319.536918c1.041687 5.700357-.215202 11.567432.886822 17.255964 1.860692 1.144511.88916-5.069629 1.432769-6.624998.327137-1.823073 1.89226-8.071634.397862-3.114015-1.472487 2.207949-.549688 7.327511-1.556607 8.413852-.743129-5.3005.38621-10.72435-1.160846-15.930803zm-13.346473.559142c-.146296 2.94783 1.486747 5.811714.375647 8.758202-.816367 1.547083-.0773 5.977273.15992 1.850177 1.113703-3.558841.445502-7.112929-.535567-10.608379zm41.565423.02687c-2.085359.866596-8.79412 1.083073-8.068735 2.945246 2.431497-.914551 6.704727-1.40376 8.068735-2.945246zm18.599899.784449c-4.618903.621933-9.020968 2.217266-13.542033 3.268284-4.370815.253642-8.388444 2.148874-12.610377 3.178351-2.905307 2.060568 3.793452-1.334637 4.956804-.729155 3.908327-1.511187 8.141268-1.600953 12.094869-2.993615 2.112021-1.146161 4.446857-.564544.946624.565963-6.250338 2.567882-12.844358 4.222506-18.952761 7.14416 1.724271.337366 6.637562-2.064675 9.541184-2.957905 4.066945-1.570217 8.118276-3.147487 12.127902-4.84062 1.366523-.752951 6.185707-1.35582 5.437788-2.635463zm-33.196941.751892c-1.426419 3.598545-2.140906 8.153903-1.022624 12.188744.442131 3.187823-1.799554 7.043179.136377 9.898279-1.060111-4.627498.823232-9.291353-.29358-13.962-1.089626-2.382455 2.144116-9.223148 2.718528-3.638271-.207607 4.49689 2.953278 8.665999 1.4574 13.187974-.700779 1.934067-.939213 9.096987-.292084 3.200307 1.324063-4.563746.926256-9.054921-.649757-13.469194-.704344-2.304944.570372-6.189184-2.05426-7.405839zm60.213899.153479c-3.98451.96062-8.12267 1.368057-12.023999 2.417821-4.380863 2.427933-9.047061 4.314492-13.409074 6.773864 4.822092-1.623011 9.485235-3.877377 14.4948-4.972193 3.519523-1.782245 7.347853-2.542189 10.938723-4.061917zm-48.023945.592212c-1.609078.783206-6.423546 2.484475-5.805848 3.740345 1.979201-.111066 8.462847-2.282566 3.26494-.907324-1.885997-.210065 2.716101-2.848013 2.540908-2.833021zm-1.632459.388607c-1.364537-.451349-7.085101 1.950741-2.778645 1.012859.10866-.06937 4.195579-1.054154 2.778645-1.012859zm.362769.0093c.0076.0064.0056-.01195 0 0zm49.294145 2.279448c-3.52558 2.593984-8.24446 2.074251-11.82098 4.441589 2.064553.104235 8.39395.304847 8.69663-1.412832-1.47615 1.516305-7.28314 1.245378-7.09024.785997 3.37419-1.184832 7.52158-1.501314 10.21459-3.775436zm-30.328377.437699c-1.919385-.116285-3.504544.827509-.492054.265686 1.695398.335944 5.928265.712549 5.915658 1.209524-6.233003 2.929508-12.244176 6.350727-18.532646 9.156765-3.332479 1.59165-7.670264.777438-10.686925 2.505722 4.278653-1.327398 8.977633-.931309 12.973445-3.228122 5.903713-3.125575 11.958011-5.989399 17.88967-9.033321.206223-.891555-5.609291.167908-7.067148-.876254zm28.158487 1.33997c-1.53493.899996-6.10831 1.743965-1.69116 1.145829.27566-.500606 1.77259-.782845 1.69116-1.145829zm-73.318006.189138c-.781399 3.017132-2.507715 7.152123-1.807125 9.887252.602468-1.487773.369776-7.380589 2.121303-6.377828.278477 1.936281 1.522338 4.606391.762303 1.048906-.52858-1.465346-.544865-3.220028-1.076481-4.55833zm43.382883.912606c-4.101566.391279-7.834313 1.697487-11.492839 3.545003-3.517079.274552-8.173454 1.926961-9.390674 5.36986 3.903741-.297476 8.215392-1.51673 12.084491-2.658646 2.204313-2.872747 8.537959-2.992229 8.929246-6.249504l-.130224-.0067zm-2.460832.75861c3.766782 1.237535-5.188819 3.216645-6.090195 5.041403-3.415954 1.5459-7.643269 2.39134-11.249316 2.305952 1.843611-4.195713 7.225738-3.551782 10.721168-5.376488 2.116808-.914701 4.246748-2.028288 6.618343-1.970867zm-10.134782.842842-.210323.08475zm-31.211533 2.431377c-1.392663 1.857049.04209 8.924425.392615 3.230954-.01655-1.007401.429383-2.44646-.392615-3.230954zm1.72651 3.680912c-1.090075 1.607888 1.662629 4.597963.188378 1.249872l-.154718-.705188zm10.155453.415478.01447.265617zm43.151889.05736c-2.383866-.05118-5.698921 2.240602-1.874194.648688.624731-.216229 1.249463-.432459 1.874194-.648688zm-50.776747.908989c-.160747 2.886588.377091 2.831994 0 0zm41.260532.189135c-4.070899 1.189968-8.363789 1.06999-12.445182 1.955804-3.60039 1.801147-7.653301 2.150907-11.284637 3.868647 2.766817-.87887 6.96439-1.80379 10.13442-3.175554 4.096999-1.635759 8.697168-.887745 12.913787-2.241686-3.549497 2.280714-8.472252 1.200935-11.961542 3.92071-2.770658 1.58925-9.837009 2.70362-10.466401 3.457 4.841058-1.1325 9.651407-2.55537 14.017268-4.970719 2.715563-1.000773 7.830697-.323964 9.092287-2.814202zm-43.935304.1726c-.0023.0163.01056-.0028 0 0zm.0021.0062c-1.272649.637812 1.165664 1.391549 0 0z" fill="#57230a"/><path d="m67.433826 27.683195c-1.690834-.07847-1.592034 1.662273-1.892324 1.489593 2.013573-.458806-.276186-1.17859 1.892324-1.489593zm34.558094 3.55999c-3.881573 2.170327-8.675371 1.669435-12.38452 4.187048-2.769633 1.791902 3.583789-1.890588 5.273808-1.682758 2.366551-.548824 5.530692-.759586 7.110712-2.50429zm-57.076101 4.728394c-3.348805.945164-6.550946 2.363109-9.840742 3.498492.785106.679003 2.661781-.879344 3.891846-1.112358 1.982965-.795378 3.965931-1.590756 5.948896-2.386134zm20.823538 1.550808c-4.873351 3.511589-11.173703 3.188064-16.565892 5.327328-1.515058.595043-7.638628 4.187283-3.30848 2.067608 6.128459-3.791673 14.402582-2.379375 19.874372-7.394936zm40.357743.04548c-6.127963 2.350933-12.255927 4.701866-18.38389 7.052799 3.257612-.631572 6.202098-2.319448 9.323461-3.410644-2.211809 1.236834.931446-.191497 1.745769-.46074 2.48283-.970382 4.96567-1.940765 7.4485-2.911148zm-57.760299 12.71602c.343153 6.892062-2.485537 13.829828-.356571 20.644218-1.248487-5.919429.636091-11.799716.850445-17.69402-.172438-.9255.171914-2.211199-.493874-2.950198zm51.839729 3.695382c-1.691811-.07932-1.591175 1.661852-1.893062 1.489283 2.013482-.509033-.279173-1.090528 1.893062-1.489283zm9.448 2.718697c-2.53025.905199-5.0605 1.810398-7.59075 2.715597 1.3479-.396216 3.48037-1.067326.97293-.112717-2.52643 1.004679-.0261.07711 1.16667-.34781 1.81705-.652299 3.6341-1.304598 5.45115-1.956897v-.225998zm-44.089296 9.951848c-2.698027 1.087272-5.396054 2.174545-8.094081 3.261817 2.766387-.415315 5.314512-1.744279 7.926133-2.7156-1.04023.297721-3.918528 1.318534-1.467439.242779.545129-.262999 1.090258-.525997 1.635387-.788996zm6.033223 2.766756c-1.480879.466081-2.980991 2.145532-.962997.596485-.512043-.520969 1.613548-.431374.962997-.596485zm37.370853 6.445084c-4.78189 2.512788-9.916512 4.207958-15.236559 5.132941-2.254209.306251-6.889598 2.453025-7.120287 2.854778 5.643686-3.015518 12.375861-2.65297 17.978906-5.762256 1.10332-.699713 4.65821-1.638925 4.37794-2.225463zm-35.422133 2.508891c-3.003703.629247-5.807194 1.976499-8.726085 2.909901 2.32091-1.053199-.8851.197841-1.715069.458281-2.523728.885247-5.047456 1.770493-7.571184 2.65574.894815.168254 2.62627-.838108 3.844534-1.123966 4.722601-1.633318 9.445203-3.266637 14.167804-4.899956zm-49.74632.129708c-.229506 1.301469 1.086306 4.903362.357088 1.399915-.659622.335416-.397051-1.256219-.357088-1.399915zm31.124715.213424c-.407378 2.09552 1.52447 3.880396.100772 1.437635-.283077-.421732-.19764-.977886-.100772-1.437635zm-19.355924 2.491321c-.495523 3.536803-.04761 7.139494-.135392 10.704773-.270217-2.681247-.159753.209577-.170163 1.331156.0076 1.620238.01526 3.240476.02289 4.860714.657502-.390519.08932-2.629435.279869-3.724148.000932-4.390832.0019-8.781663.0028-13.172495zm74.089022.851109c-2.96192 1.05954-5.92385 2.119079-8.88577 3.178619 3.00444-.819974 5.91808-1.95073 8.88577-2.896465v-.225998zm-41.052278 3.378603c-3.6456 1.839013-7.833063 2.096456-11.630517 3.521706-3.597865 1.833814 3.014946-1.171036 4.382249-.95527 2.542048-.525412 4.923197-1.384534 7.248268-2.566436zm-26.43353 4.640544c.139968 3.352808.268329 6.804715-.495764 10.149576.774091.41746 1.171693-6.148652.669544-8.451458-.05809-.566023-.116414-1.132024-.17378-1.698118zm39.865787.966349c-1.249024.428159-3.109776 2.09756-.884185.680578-.690517-.548476 1.499627-.563797.884185-.680578z" fill="#451c08"/><path d="m85.519545 26.760771c-.132221-.0047-.409737.0255-.885735.110587-1.207346-.424895-1.853645 1.256303-1.328601 1.018543.121171-.05487.304666-.212235.558106-.520899l.376204-.165364c.767718-.100551 1.676687-.428717 1.280026-.442867zm-11.929505 18.780249c-.102642.0025-.203404.01835-.295589.05374.509438-.0404 1.186824.267111 1.345137.735355.06209.183253.08562.516978-.453719.783932-.328097.159865-.694945.13278-.795817.09922.354311.203545.795826.124373 1.133264-.01085.07787-.03121.149995-.06531.214457-.09973.193005-.103101.59935-.43495.542086-.728121-.07631-.397315-.661196-.556095-.89917-.659391-.158357-.06825-.48272-.18157-.790649-.17415zm-35.722368 21.834327c-.271935.07771-.344567.50269-.340031.901754.0011.09209.0062.182957.01395.267684.02322.253693.164141.901138.416512 1.145666.341624.332426.648716.02887.804602-.05633.137795-.07623.430465-.3059.430465-.735873-.124287.44072-.578886.670239-1.002523.33228-.165838-.13216-.4404-.443681-.488342-1.131714-.02714-.416048.107473-.677259.165365-.72347zm47.40641 8.628931c-.03486-.002-.07154-.0017-.109555.001-.152061.01082-.325252.05664-.486275.114205-.07432.02657-.146329.0556-.21239.08475-.197797.08728-.674291.366818-.786515.610299-.153059.329987.197115.45747.31936.541569.108804.07408.394971.212649.743624.09198-.399751.03756-.740915-.213149-.611332-.601513.05061-.15199.209811-.429477.751375-.655774.328111-.135557.585641-.11603.642855-.08888-.0584-.06247-.146568-.09154-.251147-.09767zm-17.239259 16.232601c-.01814.000894-.04323.007-.07545.01964-.118971.04659-.33816.178917-.689364.437699l-.366386.14056c-.831154.119491-2.062749.577551-.468705.27957.630519.32265 1.871987-.890885 1.599902-.877466zm-17.703829 1.90686c-.02721.0017-.04186.03889-.03824.11989.0067.149527.07622.449138.245463.95343l.01654.458887c-.20737.937796-.168159 2.472968.144694.63872.622534-.463937-.177982-2.182617-.368453-2.170927z" fill="#5e270d"/></g><path d="m31.581212 40.758622c1.820807.0165 3.918171.591741 6.265934 1.770636 8.362855 4.199626 15.566103 15.455153 16.201856 25.012478l-30.95416-13.009312c.07164-6.883504 1.907082-10.817389 4.329681-12.542765 1.272279-.823599 2.673404-1.237896 4.156689-1.231037zm22.570315 30.332857v33.391611l-30.845097-12.970136-.000177-33.385173z" fill="#502916" opacity=".5"/></g><g opacity=".95" stroke-width="1.13775" transform="matrix(-.17733692 0 0 .17645487 111.58299 21.73815)"><path d="m153.57812 247.34961c-2.25328.01-4.59988.78184-6.30273 2.54492-1.40122 1.41472-2.19605 3.30136-2.29883 5.25781-.2146 2.91236.97102 5.58385 2.58008 7.6543.26598.37005.40885.50037.51367.59961v13.56836l1.27344.42773c3.94229 1.32663 7.88344 2.65804 11.82617 3.98828l2.46485.83204.002-2.60157c.004-4.4365-.004-8.87362.006-13.29687 2.43214-1.91885 3.55719-5.05723 2.99023-8.04102-.7257-4.2021-3.68632-7.55272-7.21875-9.42578-1.75253-.93317-3.74938-1.51515-5.82812-1.50781h-.004z" fill="#84542e" opacity="1" stroke-width="1.137756"/><path d="m153.58594 249.21875c-1.82816.008-3.69089.64633-4.97461 1.98047-1.06496 1.07051-1.69911 2.56053-1.77363 4.07103-.17823 2.32669.80099 4.61678 2.21542 6.42502.3597.52223 1.0688.90741.88633 1.62543v12.31016c3.94351 1.32704 7.88567 2.65813 11.82813 3.98828.004-4.71836-.008-9.44507.006-14.1582 2.37313-1.30972 3.52443-4.22633 3.02344-6.83985-.5992-3.51524-3.16427-6.47235-6.26175-8.11366-1.51619-.80733-3.22641-1.296-4.94919-1.28868z" fill="url(#d)" opacity="1" stroke-width="1.137756"/><path d="m155.85351 252.58636a6.8391444 4.6321576 39.053202 0 1 6.05972 7.27059 6.8391444 4.6321576 39.053202 0 1 -3.13797 3.51576v12.08116l-5.84352-1.97097v-12.07596a6.8391444 4.6321576 39.053202 0 1 -3.13797-5.63777 6.8391444 4.6321576 39.053202 0 1 6.05974-3.18281z" opacity=".67" transform="translate(-.000007)"/></g><path d="m93.411435 24.242781c9.972035 5.007466 17.588935 17.191217 17.994775 28.421522l.0165 3.592028.007 35.340482-53.302175 18.452097-3.070099.3297-34.159161-14.363981-.0367-39.119577c.0774-7.432528 1.99396-12.478769 4.107751-13.98416 2.113799-1.505391 2.716929-1.830197 3.3414-2.098579 0 0 55.053168-18.531169 55.874919-18.531169s1.562798-.1465 2.334221-.04393c2.371615.315342 4.234709.672296 6.891569 2.005565zm14.804785 28.535727c-.35183-9.736065-7.69211-21.405875-16.242936-25.699724-2.30804-1.158249-4.388399-1.669061-5.658569-1.665531-1.698029.0053-3.669409.3933-5.8627 1.351338l-42.55296 14.173813c.796249.291501 1.597429.639984 2.39934 1.04283 9.71486 4.878266 17.32496 16.715902 18.019061 27.689267zm-75.676525-9.624219c-1.483279-.0069-2.884569.407333-4.15685 1.230933-2.4226 1.725374-4.25832 5.659405-4.32997 12.542903l30.95419 13.009543c-.63576-9.557317-7.83875-20.813323-16.201601-25.012944-2.34776-1.178895-4.444958-1.753937-6.265769-1.770435zm-8.27495 17.368966v33.38556l30.84515 12.969755v-33.391248zm33.984491 12.653491v33.466684l49.987654-17.304362-.006-33.08222z" fill="url(#f)" stroke="#84542e" stroke-linecap="round" stroke-linejoin="round" stroke-width=".603791"/><g transform="matrix(.76068211 0 0 .76068211 15.829979 15.972731)"><path d="m24.245287 44.223002c-1.622554.905573-2.586382 2.836852-2.307983 4.678465.240472 3.735328 2.891582 7.049591 6.263884 8.529445 1.857751.776647 4.254873.700355 5.756771-.769972 1.441475-1.422729 1.708733-3.652814 1.196433-5.539912-.919216-3.409606-3.57888-6.463087-7.061965-7.356001-1.169482-.301484-3.076123-.279583-3.84714.457975z" fill="#84542e" fill-rule="evenodd"/><path d="m26.316406 44.208984c-2.243242.02267-4.007789 2.282424-3.733432 4.460489.138551 3.456483 2.554838 6.56804 5.612686 8.035393 1.805197.853303 4.326686.832611 5.623847-.886622 1.39198-1.826451 1.002094-4.368669.03213-6.294342-1.311093-2.74194-3.954244-5.039781-7.058667-5.309058-.158607-.0013-.31859-.0052-.476563-.0059z" fill="url(#e)" fill-rule="evenodd" stroke-width="1.32292"/><use stroke-width="11.25" transform="matrix(.08888889 .03735854 0 .08888889 35.110286 42.285304)" xlink:href="#h"/><g fill="#84542e"><use stroke-width=".264583" transform="matrix(1 .41285639 0 1 -82.56139 71.92)" xlink:href="#k"/><use stroke-width=".264583" transform="matrix(0 1 -1 -.41285639 3.269141 -34.662774)" xlink:href="#k"/><use stroke-width=".264583" transform="matrix(-1 -.41285639 0 -1 145.28758 106.15222)" xlink:href="#k"/><use stroke-width=".264583" transform="matrix(0 -1 1 .41285639 59.45706 212.73501)" xlink:href="#k"/><use stroke-width=".264583" transform="matrix(1 -.34617271 0 1 -12.720134 150.72347)" xlink:href="#k"/><use stroke-width=".264583" transform="matrix(0 1 -1 .34617271 47.94547 -12.295752)" xlink:href="#k"/><use stroke-width=".264583" transform="matrix(-1 .34617271 0 -1 189.96391 20.723099)" xlink:href="#k"/><use stroke-width=".264583" transform="matrix(0 -1 1 -.34617271 129.2983 183.74232)" xlink:href="#k"/><use stroke-width=".418289" transform="matrix(.5991381 -.20282343 .38138561 .53869027 52.979701 73.294746)" xlink:href="#j"/></g></g></g></svg>