<svg height="500" viewBox="0 0 132.29167 132.29167" width="500" xmlns="http://www.w3.org/2000/svg" xmlns:xlink="http://www.w3.org/1999/xlink"><pattern id="a" patternTransform="matrix(.05742368 .01466933 -.01437244 .05626145 -71.274976 117.18948)" xlink:href="#d"/><pattern id="b" patternTransform="matrix(.05917379 .0033365 -.00326907 .05797605 -71.274976 117.18948)" xlink:href="#d"/><pattern id="c" patternTransform="matrix(.05895612 .00606994 -.00594709 .05776287 -71.274976 117.18948)" xlink:href="#d"/><pattern id="d" patternTransform="matrix(.05606053 .01923241 -.01884316 .05492589 -71.274976 117.18948)" xlink:href="#j"/><linearGradient id="e"><stop offset="0" stop-color="#5c3d8f"/><stop offset=".42346233" stop-color="#5c3d8f"/><stop offset=".80982453" stop-color="#422e6b"/><stop offset="1" stop-color="#2f2145"/></linearGradient><radialGradient id="f" cx="-94.425316" cy="36.507893" gradientTransform="matrix(-1.0477434 1.4706358 -1.3133127 -.93565962 -160.88343 225.6592)" gradientUnits="userSpaceOnUse" r="36.791481" spreadMethod="pad" xlink:href="#e"/><linearGradient id="g" gradientUnits="userSpaceOnUse" x1="-69.97713417173" x2="-86.19291384907" xlink:href="#e" y1="9.03130313457" y2="28.43474866251"/><linearGradient id="h" gradientUnits="userSpaceOnUse" x1="-61.81952104907" x2="-81.18756900734" xlink:href="#e" y1="22.38954931588" y2="34.27766614242"/><linearGradient id="i" gradientUnits="userSpaceOnUse" x1="-89.03495589519" x2="-94.59094657433" xlink:href="#e" y1="2.26097956582" y2="26.03004845197"/><pattern id="j" height="1000" patternTransform="translate(4340 -272)" patternUnits="userSpaceOnUse" width="1000"><path d="m345.8298 308.4516c1.1894 8.051.9664 10.3555-5.7985 18.637 9.7385-5.0551 11.82 4.0069 14.1989 8.4598-.8921-7.4117-2.5276-15.1355 9.7385-17.5739-12.7864 2.1336-14.1989-3.6054-18.1389-9.5229zm342-210c1.1894 8.051.9664 10.3555-5.7985 18.637 9.7385-5.0551 11.82 4.0069 14.1989 8.4598-.8921-7.4117-2.5276-15.1355 9.7385-17.5739-12.7864 2.1336-14.1989-3.6054-18.1389-9.5229zm134 848c1.1894 8.051.9664 10.3555-5.7985 18.637 9.7385-5.0551 11.82 4.0069 14.1989 8.4598-.8921-7.4117-2.5276-15.1355 9.7385-17.5739-12.7864 2.1336-14.1989-3.6054-18.1389-9.5229zm-778-814c1.1894 8.051.9664 10.3555-5.7985 18.637 9.7385-5.0551 11.82 4.0069 14.1989 8.4598-.8921-7.4117-2.5276-15.1355 9.7385-17.5739-12.7864 2.1336-14.1989-3.6054-18.1389-9.5229zm104-84c1.1894 8.051.9664 10.3555-5.7985 18.637 9.7385-5.0551 11.82 4.0069 14.1989 8.4598-.8921-7.4117-2.5276-15.1355 9.7385-17.5739-12.7864 2.1336-14.1989-3.6054-18.1389-9.5229zm-104.2997 803.86793-10.1583 7.90026-12.2667-3.88991 4.3741 12.10249-7.4898 10.46441 12.8617-.4203 7.6376 10.35697 3.5749-12.3621 12.2102-4.06343-10.6523-7.21972-.091-12.86855zm122.8641-136.08754-20.9609 6.10173-16.9088-13.80853-.6748 21.82026-18.3573 11.81458 20.5436 7.38429 5.5635 21.10979 13.3714-17.25631 21.7957 1.23207-12.2798-18.04898 7.9072-20.34874zm-63.7989-100.1437-6.6105 9.92246-11.9214.17909 7.3937 9.35336-3.5133 11.3933 11.1802-4.14159 9.75 6.86212-.484-11.91286 9.5391-7.15228-11.4792-3.22081-3.8546-11.28267zm432.2801-512.59648-6.1983 18.11312-18.4352 5.16177 15.3107 11.49261-.7871 19.12783 15.6611-11.01006 17.9483 6.6596-5.6315-18.297 11.8799-15.01199-19.1414-.2979-10.6064-15.93777zm-13.7498 268.66645-9.8423 9.64166-13.5221-2.64239 6.1278 12.34009-6.6912 12.04384 13.6296-2.01484 9.3866 10.08559 2.2956-13.58518 12.4925-5.81058-12.2107-6.38107-1.6659-13.67698zm51.3908 276.9103-16.4295-12.15437.6992-20.42462-16.6367 11.86883-19.2089-6.97592 6.1471 19.48986-12.5705 16.11296 20.4356.17658 11.4399 16.93438 6.4825-19.38063 19.6411-5.64711zm-440.7772 144.10844-13.3029-7.37895-1.4623-15.14183-11.1289 10.3711-14.8525-3.28786 6.4246 13.78879-7.7168 13.10956 15.0994-1.84913 10.0833 11.39009 2.9071-14.93151 13.9488-6.07027zm137.9347-355.43855-8.8704 13.99428-16.5569.6256 10.5677 12.761-4.5209 15.93985 15.4018-6.1073 13.7626 9.22545-1.0489-16.53534 13.0268-10.2382-16.05-4.11189-5.7118-15.55327zm125.5143 61.56987-18.0432 4.76706-14.1554-12.16159-1.0425 18.63301-15.9401 9.70479 17.3988 6.74908 4.3038 18.159 11.7955-14.46167 18.6001 1.51817-10.1089-15.68664 7.1918-17.22108zm322.2085 382.55392-14.7968 3.35202-11.1493-10.2893-1.3849 15.10816-13.2307 7.42436 13.9407 5.98559 2.9723 14.87743 10.0007-11.40873 15.0677 1.77045-7.76-13.03637 6.3401-13.78351zm-561.9999-569.13909 9.5369 17.07657-8.6614 17.53676 19.1878-3.79247 14.0022 13.6561 2.3221-19.42046 17.3148-9.09673-17.7524-8.20996-3.301-19.27826-13.2935 14.34645-19.3553-2.81788zm-138.9827-312.72315c-1.2767 16.15996.4547 29.45014 4.8398 30.45508-9.8078 3.49055-16.8327-4.79186-21.2539-16.96289v29.24804c8.0493-.0466 14.896-.89161 17.9238-2.1289-6.4129 4.8614-12.2821 8.42031-17.9238 11.45312v21.72657c12.4349-10.62916 22.8148-22.60515 27.1543-29.30079.6741 17.71434-12.3451 35.90386-27.1543 50.85743v16.47265c7.8415-3.96979 14.3663-10.14938 18.5566-18.35547 0 4.257-1.7287 9.52635-4.0468 15.08985 6.3221-.8851 16.6907-2.61273 20.5683-10.19922 10.5369-22.80188 15.9305-39.24142 6.4473-58.25 12.6021 14.11949 26.8069 27.52318 24.6152 48.25976 11.3378-6.57499 20.5678-14.16088 10.4102-25.33007 5.9428.5902 9.9466 3.24454 13.8242 5.77343 5.8585-1.1801 14.5001-8.3868 14.2051-13.9082-13.3187-12.55999-35.1521-18.41845-56.3946-23.56055 30.3885-8.34519 57.7006-4.25782 74.0118 2.35938 2.1073-4.9313 3.9615-12.47596 2.4863-17.66016-6.9122-4.08829-26.427-3.28657-35.1094-2.35937 7.4602-6.6171 23.9414-8.89335 34.2676-8.93555-.056-1.88407-.4388-3.43029-1.041-4.74414h-32.5274c-18.6643 7.19711-38.935 19.49887-43.2265 22.7832 4.4562-8.054 11.5964-15.77951 19.8242-22.7832h-15.5684c-6.1869 7.37289-11.4927 14.28073-13.9902 18.56836-3.0543-3.31694-1.5194-10.15056 2.3965-18.56836zm96.5097 33.69922c-1.0115 3.7512-.7155 6.95575-7.6699 8.09375 6.7436-.8851 7.2067 3.4131 8.0918 7.375.4636-2.7395-.084-7.75424 5.8164-6.86914-4.9313-3.0768-5.4796-4.21622-6.2383-8.59961zm4.1739 26.04883c1.3065 4.88909 3.7499 8.30156-3.3731 14.16015 7.0808-5.43709 10.3694-.9275 13.9941 2.99219-1.3065-3.3718-5.2271-8.68088 2.0645-11.54687-7.5866-.2108-8.9765-1.17998-12.6855-5.60547zm-58.67 30.38672c-1.138 5.18419-1.729 10.74932-10.58 9.61132 9.1039 1.4752 8.7246 5.64792 10.0312 10.53711 1.0115-5.68999 1.7291-7.2088 8.1777-11.21289-7.7551 1.1802-7.0388-5.39505-7.6289-8.93554zm52.8946 13.91015c-3.0768 4.0462-4.298 8.04957-13.2754 5.98438 8.5981 2.27589 7.0796 7.62799 6.1523 12.89648 1.8967-3.0768 3.7095-9.44073 10.4531-5.39453-4.4676-6.15359-4.5523-7.83853-3.33-13.48633zm857.914-104.04492c1.6976 8.0021 5.1394 15.99728 14.6739 23.54297-13.5295 1.5174-17.7027-11.71698-23.3125-22.75977-25.2184 33.66084 13.7253 42.10585 39.4023 41.95703v-29.24804c-1.5146-4.16939-2.7684-8.6523-3.6309-13.49219zm-18.4336 38.37891c-5.4033 5.35279-7.0464 5.68876-12.8164 5.35156 4.4466 2.4024 8.5945 2.99226 7.8906 12.22266.9694-8.8932 6.5159-8.17523 11.8223-8.04883-3.3002-1.3909-9.8637-2.2338-6.8965-9.52539zm49.1973 13.68554c-28.842 15.50454-48.3884 9.67295-65.0098 4.98438-17.0614 35.86766 25.9036 23.60287 45.3379 15.04687-7.7552 12.93939-30.4525 15.84826-37.4785 17.28125 15.5262 12.92589 38.6668.21365 57.1504-15.58593zm0 43.28321c-8.3405 8.42178-17.2387 15.84569-24.6035 21.50976 8.8608.44713 17.3015-1.34044 24.6035-5.03711zm-43.0215 3.89257c-1.1928 6.74369-2.0397 8.5127-9.6348 13.27539 9.1377-1.39089 8.2906 6.36442 8.9903 10.53711 1.3445-6.11149 2.0398-12.68668 12.4883-11.33789-10.7477-1.77019-10.297-6.70032-11.8438-12.47461zm-891.0058 819.48047c-1.3066 4.9018-.9273 9.08769-10.0313 10.58399 8.556-1.138 9.3975 4.03642 10.5566 8.98242.569-3.7111.401-9.41289 7.6504-8.30859-6.4486-4.0462-7.1641-5.54682-8.1757-11.25782zm-65.9727 5.88282v8.85546c3.6143-1.23951 6.6577 1.19425 9.7461 3.41993-1.9388-3.0305-6.87-7.4474-.2949-11.74219-4.782.83009-7.1966.47305-9.4512-.5332zm118.4883 3.47851c.6744 4.5646.5483 5.87111-3.2871 10.56641 5.5213-2.8661 6.7001 2.27218 8.0488 4.79687-.5058-4.20219-1.4328-8.58244 5.5215-9.96484-7.2494 1.2096-8.0494-2.04344-10.2832-5.39844zm-63.0528 8.69141c-24.8755-3.17948-36.7642 34.65369-39.0214 63.22656h23.2949c8.0262-17.25355 26.9345-41.75675 42.9961-60.44141-1.3066-3.99559-9.1895-2.65903-16.2071 2.10157-1.2855.8914-2.4216 1.80539-3.5175 2.80859-9.2303 8.78349-13.9106 17.32651-20.6543 25.9668-2.6553.5057 2.2353-22.55622 13.1093-33.66211zm39.6602 5.14453c-1.0115 5.71099-1.7272 7.21289-8.1758 11.24219 6.0272-.9146 6.9127 4.714 7.8399 7.875 1.5173-4.2148 3.3285-9.47613 10.3671-8.54883-9.1039-1.4795-8.7246-5.66657-10.0312-10.56836zm8.2266 18.04101c-2.7126.39778-5.5806 1.27777-8.5625 2.55274-15.1581 6.90011-31.581 23.33577-43.4571 37.48828h15.5684c17.2191-14.65727 39.6655-25.86207 55.4941-28.25781-4.1726-9.83092-10.9051-12.97652-19.0429-11.78321zm9.3261 34.67774c-6.0793-.12933-14.0933 2.16982-22.375 5.36328h32.5274c-1.6778-3.66069-5.3003-5.26006-10.1524-5.36328zm883.2325-72.41797c2.2759 4.5224 5.3523 7.38871-.4219 14.56641 1.6379-1.9073 3.1243-2.84031 4.541-3.32618v-8.85546c-1.2826-.57243-2.4686-1.08729-4.1191-2.38477zm-54.1563 3.54492c-1.2981 4.9018-.8971 9.0877-10.0137 10.5586 8.8595-1.1549 9.4372 4.44598 10.5625 9.61328.6027-3.5531-.119-10.10227 7.6446-8.91797-6.436-4.0419-7.1566-5.54291-8.1934-11.25391zm32.7031 24.30664c-.2529 7.59499-5.0585 7.29984-9.5683 7.55274 2.9503 1.0115 8.5566 1.26538 6.4492 7.67187 4.2991-4.88919 5.6055-5.26835 10.6211-5.31054-3.9619-1.8123-7.502-2.06618-7.502-9.91407zm21.7891 14.08594c-15.6368 1.6437-26.1305 16.77527-28.6172 25.28906.3612 3.49611.8879 7.02497 1.6367 10.55469h27.1328c-2.2134-12.42125-2.3538-26.00349-.1523-35.84375zm-44.5879 15.25781c-3.6289 3.5826-5.4159 7.37462-14.0098 4.04492 8.2062 3.4983 5.8918 8.59856 4.2481 13.65625 2.3013-2.78179 5.0171-8.80933 11.1074-3.83593-3.532-6.7436-3.3814-8.38594-1.3457-13.86524zm-429.2324-979.41406c26.9726 14.90254 58.5627 13.91002 84.164 0zm37.4804 835.4707c2.3842 1.16796 4.7328 2.48553 7.0254 3.94336 33.4849 21.29213 43.3705 65.69643 22.0782 99.18164-21.2921 33.48483-65.7042 43.38027-99.1895 22.08789-2.2926-1.45782-4.4739-3.03875-6.543-4.70312 6.61 16.44524 18.2538 31.06138 34.375 41.3125 1.5616.99297 3.1757 1.82426 4.7735 2.70703h84.164c12.6744-6.88641 24.0062-16.63294 32.3047-29.68359 26.0542-40.97391 13.9787-95.18353-26.9961-121.23829-16.1212-10.25111-34.2952-14.59705-51.9922-13.60742zm-81.7383-266.87347-1.1724-8.1115 6.0175-5.5639-8.0767-1.3919-3.4323-7.4419-3.8192 7.2511-8.1384.9647 5.7159 5.8729-1.5975 8.0385 7.3519-3.6217 7.1513 4.0038zm-32.2769 22.1761-1.1724-8.1115 6.0175-5.5638-8.0767-1.3919-3.4323-7.442-3.8192 7.2512-8.1384.9646 5.7158 5.873-1.5974 8.0384 7.3519-3.6216 7.1513 4.0037zm-269.7092-345.43142-8.8939.6133-5.5469-6.979-2.1653 8.6481-8.3511 3.1191 7.5555 4.7314.3858 8.9062 6.8345-5.7235 8.5899 2.3853-3.3318-8.2687 4.9235-7.4323zm21.4352 36.8117-8.8939.6133-5.5468-6.9789-2.1654 8.648-8.3511 3.1191 7.5555 4.7314.3858 8.9062 6.8345-5.7234 8.5899 2.3853-3.3318-8.2688 4.9235-7.4323zm257.2745 422.06086-8.2253-6.7617.9076-10.6089-8.9729 5.7329-9.809-4.1409 2.6798 10.3047-6.9695 8.0494 10.6283.6358 5.502 9.116 3.8887-9.912 10.3704-2.4152zm-11.5796 49.5424-8.2253-6.7618.9076-10.6087-8.9728 5.7327-9.809-4.1409 2.6797 10.3047-6.9694 8.0494 10.6282.6359 5.502 9.116 3.8888-9.9121 10.3704-2.4152zm-133.352-558.97444-.6506-8.1926 6.3801-5.18011-7.9927-1.9131-2.9552-7.6682-4.289 7.0101-8.2062.4409 5.3415 6.2453-2.1164 7.9411 7.5902-3.1505 6.8984 4.4672zm580.1531 742.17034-.6506-8.1927 6.38-5.18001-7.9925-1.91319-2.9552-7.66821-4.2891 7.0101-8.2062.441 5.3414 6.2453-2.1164 7.9411 7.5903-3.1506 6.8984 4.4673zm-55.2476-790.03884-2.3704-8.7146 5.8352-6.8927-9.0206-.4389-4.7523-7.6791-3.2045 8.4432-8.772 2.1467 7.0396 5.6568-.669 9.0062 7.5553-4.9473 8.3588 3.4198zm-32.3279 28.5846-2.3704-8.7146 5.8352-6.8926-9.0205-.439-4.7523-7.6791-3.2046 8.4432-8.7719 2.1468 7.0394 5.6568-.6689 9.0062 7.5553-4.9474 8.3588 3.4198zm-633.4449 231.1642-6.7326-3.7383-.7369-7.6653-5.636 5.2476-7.5177-1.6675 3.2493 6.9815-3.909 6.6345 7.6437-.9328 5.102 5.7679 1.4747-7.558 7.0626-3.0696zm-1.7812 36.7528-6.7326-3.7383-.7369-7.6652-5.636 5.2475-7.5176-1.6674 3.2492 6.9814-3.909 6.6345 7.6437-.9327 5.102 5.7679 1.4747-7.5581 7.0626-3.0696zm25.6436-287.0095-4.0992-3.5695.6168-5.4002-4.6616 2.7953-4.9452-2.2551 1.2181 5.297-3.6729 4.0064 5.414.4784 2.6755 4.7313 2.1279-5.0014 5.3267-1.0822zm-6.6265 25.1121-4.0991-3.5695.6168-5.4001-4.6616 2.7952-4.9453-2.2551 1.2181 5.2971-3.6729 4.0063 5.4141.4785 2.6754 4.7313 2.1279-5.0015 5.3267-1.0822zm499.0358 450.9126-7.2161-1.4441-2.9008-6.763-3.6036 6.4165-7.3281.6694 4.9888 5.4095-1.6279 7.1764 6.6864-3.0729 6.3222 3.7659-.8566-7.3088 5.5357-4.849zm9.0715 33.9727-7.216-1.444-2.9009-6.7629-3.6035 6.4163-7.3281.6694 4.9888 5.4095-1.6278 7.1764 6.6862-3.0728 6.3223 3.7659-.8565-7.3088 5.5356-4.849zm-473.8709 86.2809-4.3111 4.4765-6.1315-1.0138 2.925 5.4835-2.8586 5.518 6.1188-1.0874 4.3646 4.4239.8566-6.1552 5.5562-2.7841-5.5894-2.7166-.9306-6.1449zm28.2972 9.0062-4.3111 4.4765-6.1314-1.0138 2.925 5.4835-2.8586 5.518 6.1187-1.0875 4.3647 4.4239.8566-6.1551 5.5563-2.7841-5.5896-2.7166-.9305-6.1449zm29.6263-679.2261-7.1961 2.67661-6.2841-4.41101.3215 7.6711-6.1364 4.6138 7.3947 2.0643 2.4917 7.2619 4.2484-6.3947 7.6766-.1258-4.7693-6.0165 2.2531-7.33979zm26.6856 25.1741-7.1961 2.6766-6.2841-4.4107.3215 7.671-6.1365 4.6136 7.3948 2.0644 2.4916 7.2618 4.2485-6.3947 7.6766-.1257-4.7693-6.0166 2.2531-7.3398zm633.695 602.1799-2.9178-9.6104 6.2629-7.8513-10.0416-.1952-5.5319-8.382-3.2882 9.4895-9.6813 2.671 8.0087 6.0597-.4513 10.0332 8.2379-5.7447 9.4027 3.5302zm-94.5974 164.09872-2.9178-9.6103 6.2628-7.8512-10.0415-.1954-5.5319-8.382-3.2883 9.4895-9.6813 2.671 8.0087 6.0598-.4513 10.0331 8.238-5.7447 9.4027 3.5302zm60.4861-755.40533-10.014.9892-6.4915-7.68869-2.1541 9.82959-9.3178 3.7981 8.6825 5.0857.7329 10.0356 7.5198-6.6859 9.7712 2.4041-4.0354-9.2178 5.3066-8.55zm25.4143 40.8165-10.0141.9892-6.4914-7.6886-2.1542 9.8294-9.3178 3.7981 8.6826 5.0858.7328 10.0355 7.5198-6.6858 9.7712 2.4042-4.0353-9.2179 5.3065-8.55zm-490.5443 685.56651-9.5683-1.4806-4.2043-8.7216-4.3653 8.6424-9.5935 1.3037 6.8704 6.8218-1.7247 9.527 8.6109-4.4259 8.528 4.5842-1.5487-9.5572 6.9957-6.6939zm13.8892 44.1296-9.5683-1.4806-4.2042-8.7215-4.3654 8.6423-9.5935 1.3037 6.8704 6.8218-1.7247 9.527 8.6109-4.4258 8.5281 4.5842-1.5488-9.5573 6.9957-6.6938zm76.0117-346.0621-8.5399-4.7994-.8872-9.7556-7.2038 6.6385-9.5521-2.1703 4.0877 8.9021-5.0159 8.414 9.7293-1.1366 6.4525 7.3706 1.9253-9.6047 9.0042-3.8586zm-2.5062 46.7405-8.5398-4.7994-.8873-9.7555-7.2037 6.6384-9.5521-2.1703 4.0876 8.9021-5.0159 8.414 9.7294-1.1365 6.4524 7.3706 1.9253-9.6048 9.0043-3.8586zm254.8777 210.7972-8.3551-6.2024.3733-10.3986-8.4809 6.0291-9.7742-3.5678 3.1134 9.9285-6.4136 8.1934 10.4045.107 5.8107 8.6318 3.3167-9.8625 10.0053-2.8584zm-8.9085 48.9155-8.3551-6.2025.3733-10.3985-8.4809 6.029-9.7742-3.5678 3.1134 9.9285-6.4136 8.1934 10.4044.1071 5.8107 8.6319 3.3167-9.8626 10.0054-2.8585zm-123.898-415.8776-8.1368 3.6512-7.6203-4.6332.9578 8.8669-6.7607 5.8156 8.7285 1.8288 3.4419 8.227 4.4365-7.736 8.8884-.7312-5.987-6.6099 2.0517-8.6793zm32.8507 27.1435-8.1367 3.6513-7.6202-4.6332.9577 8.8668-6.7607 5.8157 8.7286 1.8288 3.4419 8.227 4.4366-7.736 8.8882-.7312-5.9869-6.61 2.0517-8.6793zm-510.589 120.9332-5.7324.471-3.6376-4.4553-1.3236 5.5974-5.361 2.0829 4.9143 2.9883.3243 5.7424 4.3606-3.7503 5.5617 1.466-2.2195-5.3061 3.1133-4.8364zm14.1401 23.5663-5.7324.471-3.6375-4.4552-1.3237 5.5973-5.361 2.083 4.9143 2.9882.3244 5.7424 4.3606-3.7502 5.5616 1.466-2.2194-5.3062 3.1132-4.8364zm1.761 182.2145-2.7152 9.2387-9.1498 3.0003 7.9473 5.4376.026 9.6288 7.6267-5.878 9.1659 2.9503-3.2334-9.0697 5.6384-7.8058-9.6252.2727-5.6812-7.7751zm45.3277-7.9021-2.7152 9.2387-9.1497 3.0003 7.9472 5.4376.027 9.6288 7.6267-5.878 9.1659 2.9503-3.2333-9.0697 5.6384-7.8059-9.6253.2728-5.6812-7.7751zm284.8985-528.2957-4.1077-3.0591.1915-5.118-4.1789 2.9612-4.8082-1.7634 1.525 4.8891-3.163 4.028 5.1211.061 2.8535 4.253 1.6399-4.8518 4.9269-1.3995zm-4.4216 24.0697-4.1077-3.0592.1915-5.1179-4.1789 2.9611-4.8082-1.7634 1.525 4.8892-3.163 4.028 5.1211.061 2.8535 4.253 1.6399-4.8519 4.9269-1.3995zm473.0274 246.4251-8.6717-1.026-4.0704-7.7252-3.6558 7.9301-8.6046 1.4843 6.4121 5.927-1.2473 8.6422 7.6183-4.2667 7.834 3.8569-1.704-8.564 6.0895-6.2586zm13.9408 39.3261-8.6717-1.0261-4.0703-7.7251-3.6559 7.93-8.6046 1.4843 6.4122 5.927-1.2473 8.6422 7.6183-4.2666 7.834 3.8569-1.704-8.564 6.0894-6.2587zm-24.1393-365.36946-9.9751-5.3502-1.247-11.2501-8.1712 7.8331-11.0845-2.2899 4.9248 10.1913-5.6032 9.8345 11.2141-1.5344 7.6221 8.36819 2.0056-11.13979 10.3145-4.6626zm-1.8317 54.05479-9.9751-5.3502-1.2469-11.2501-8.1712 7.8331-11.0846-2.2899 4.9248 10.1912-5.6032 9.8346 11.2141-1.5344 7.6221 8.3683 2.0057-11.1399 10.3144-4.6627zm-401.5301 512.62677.4547 8.8044-6.9952 5.3654 8.5139 2.2886 2.9415 8.3104 4.8071-7.3898 8.8127-.2295-5.5425-6.8553 2.5051-8.4526-8.2327 3.1532-7.2647-4.9949zm36.7636-20.566.4547 8.8043-6.9951 5.3654 8.5138 2.2887 2.9415 8.3104 4.8071-7.3899 8.8127-.2294-5.5424-6.8554 2.505-8.4526-8.2327 3.1533-7.2647-4.995zm199.4335-548.77911-9.0781-3.8191-2-9.6432-6.4377 7.4534-9.7891-1.0774 5.0993 8.4254-4.0496 8.9771 9.5886-2.2461 7.2866 6.6257.8266-9.8136 8.5535-4.8822zm2.8327 46.9737-9.0781-3.81899-2-9.64321-6.4377 7.45331-9.789-1.07741 5.0993 8.4254-4.0497 8.97711 9.5886-2.24591 7.2866 6.6256.8266-9.8137 8.5536-4.8822zm28.0957 530.64373-7.1262 5.2294-8.3474-2.9061 2.771 8.3935-5.3429 7.0409 8.8386-.042 5.0453 7.2572 2.6914-8.4188 8.4614-2.5559-7.1754-5.1612.1843-8.8372zm37.4761 19.4764-7.1262 5.2293-8.3474-2.906 2.7709 8.3935-5.3428 7.0408 8.8386-.042 5.0453 7.2573 2.6915-8.4188 8.4613-2.5559-7.1755-5.1612.1844-8.8373zm-592.0968 187.36375-.5054 7.8845-6.7817 4.053 7.3423 2.9175 1.7593 7.7019 5.0432-6.0813 7.8687.7068-4.2252-6.6755 3.1038-7.2654-7.6545 1.9558-5.9505-5.1974zm34.8526-136.24868-.5055 7.8846-6.7816 4.0529 7.3422 2.9176 1.7593 7.7018 5.0432-6.0813 7.8687.7068-4.2251-6.6755 3.1038-7.2653-7.6546 1.9558-5.9505-5.1975zm-248.8914-431.80416-8.1108 16.4352-18.1371 2.6351 13.1239 12.7929-3.098 18.0636 16.222-8.5285 16.2221 8.5285-3.0981-18.0636 13.1239-12.7927-18.1366-2.6352-8.1113-16.4351zm112.1886 33.07217-4.3534 8.8212-9.7346 1.4142 7.044 6.8666-1.6627 9.6949 8.7067-4.5775 8.7067 4.5773-1.6628-9.6949 7.0439-6.8664-9.7345-1.4142-4.3533-8.8214zm-7.7913 436.0162-4.3534 8.8212-9.7345 1.4142 7.0439 6.8666-1.6627 9.6949 8.7067-4.5775 8.7067 4.5773-1.6627-9.6949 7.0439-6.8664-9.7346-1.4142-4.3533-8.8214zm150.1258-420.2612c-16.0573-2.60932-15.3883-9.99124-17.6928-18.63694-1.7841 10.07302-3.0479 12.71951-14.4219 19.82637 10.6306-1.61317 12.1917 8.31438 13.8272 13.88985 2.6762-7.43396 5.8728-16.71476 18.2875-15.07928zm648.8116 17.64372c-11.3739-7.1366-12.6377-9.78309-14.4218-19.8561-2.3046 8.64569-1.6355 16.02761-17.6929 18.66667 15.091-2.00717 16.5778 7.12173 18.6221 15.84549 1.0036-6.54561.7062-16.60375 13.4926-14.65606zm-885.0453 188.15011c4.0143 7.97664 9.4411 13.03173-.7434 25.69176 10.2589-11.94637 17.6185-5.30041 25.2011.16355-3.4196-5.34502-12.1173-13.13581-.5203-20.71101-13.2325 2.29709-15.9087 1.16713-23.9374-5.1443zm415.9391 236.10094c-2.2897 8.6457-1.5835 16.02762-17.6631 18.62207 15.6262-2.0369 16.6446 7.84283 18.6295 16.95687 1.063-6.26683-.2082-17.81921 13.4852-15.73026-11.3517-7.12917-12.6229-9.77566-14.4516-19.84868zm-137.3493-716.88798c1.1894 8.051.9664 10.3555-5.7985 18.637 9.7385-5.0551 11.82 4.0069 14.1989 8.4598-.8921-7.4116-2.5276-15.1355 9.7385-17.5739-12.7864 2.1336-14.1989-3.6054-18.1389-9.5229zm526.5566 263.45889c-.446 13.396-8.9207 12.87562-16.8751 13.32166 5.2038 1.78415 15.091 2.23019 11.374 13.52978 7.5826-8.62337 9.8872-9.29242 18.7336-9.36676-6.9879-3.19661-13.2325-3.64264-13.2325-17.48468zm-535.1056 389.95147c-6.4007 6.31887-9.5527 13.00943-24.7105 7.1366 14.4739 6.17019 10.3927 15.16528 7.4934 24.08604 4.059-4.90642 8.8464-15.53698 19.5885-6.76491-6.2296-11.89434-5.962-14.79358-2.3714-24.45773zm-110.1695 41.84385c-1.7841 6.6163-1.2637 12.26611-13.5298 14.27328 11.8944-1.56113 12.7121 6.02151 14.2732 13.00943.8178-4.83207-.1487-13.67849 10.2589-12.11735-8.6977-5.42679-9.6642-7.43396-11.0023-15.16536zm90.5889-227.78454c-9.5303 9.44113-12.4296 10.03585-22.6067 9.44113 7.8429 4.23736 15.1579 5.27811 13.9164 21.55848 1.7098-15.68565 11.4929-14.42188 20.8523-14.19886-5.8208-2.45321-17.3955-3.94-12.162-16.80075zm-39.9148 160.24221c2.3046 8.62339 6.6163 14.6449-5.9471 24.97811 12.489-9.58981 18.2875-1.63548 24.6807 5.27811-2.3045-5.94717-9.2181-15.31396 3.6427-20.36905-13.3812-.3717-15.8344-2.08151-22.3763-9.88717zm626.4947-369.06408c-2.0071 9.14377-3.0479 18.95659-18.6592 16.94943 16.0573 2.60188 15.3883 9.96143 17.6928 18.5849 1.7842-10.03585 3.0479-12.71215 14.4219-19.77441-13.6785 2.08151-12.4147-9.5154-13.4555-15.75992zm-297.7375-136.2478c-2.1038 11.8943-3.5981 15.0166-16.9941 23.4169 16.1169-2.4532 14.6226 11.2253 15.8567 18.5849 2.3714-10.7792 3.598-22.3762 22.0268-19.9973-18.9566-3.1223-18.1612-11.82-20.8894-22.0045zm56.2217 636.74965c-5.4268 7.13667-7.5826 14.19894-23.4169 10.55622 15.1652 4.01441 12.489 13.45547 10.8535 22.74792 3.3453-5.42679 6.5419-16.652 18.4363-9.51547-7.88-10.85351-8.0287-13.82709-5.8729-23.78867zm133.1477-239.9574c-16.0573-2.60932-15.3883-9.99124-17.6928-18.63694-1.7842 10.07302-3.0479 12.71951-14.4219 19.82637 10.6306-1.61316 12.1917 8.31438 13.8272 13.88985 2.6762-7.43396 5.8728-16.71475 18.2875-15.07928zm-433.7251 5.35729c-11.374-7.1366-12.6378-9.78309-14.4219-19.85611-2.3045 8.6457-1.6355 16.02762-17.6928 18.66668 15.0909-2.00717 16.5777 7.12173 18.622 15.84549 1.0036-6.54561.7063-16.60376 13.4927-14.65606zm214.6904-286.34291c4.0143 7.97664 9.4411 13.03173-.7434 25.69177 10.2589-11.94638 17.6185-5.30042 25.2011.16354-3.4196-5.34501-12.1173-13.1358-.5204-20.71101-13.2324 2.29709-15.9086 1.16713-23.9373-5.1443zm201.0561 219.88215c-2.2896 8.64569-1.5834 16.02762-17.663 18.62207 15.6261-2.03691 16.6446 7.84283 18.6295 16.95686 1.063-6.26683-.2082-17.8192 13.4852-15.73026-11.3517-7.12917-12.6229-9.77566-14.4517-19.84867zm-706.3522-388.70338c1.1895 8.051.9665 10.3555-5.7984 18.637 9.7384-5.0551 11.82 4.0069 14.1988 8.4598-.8921-7.4116-2.5275-15.1355 9.7385-17.5739-12.7864 2.1336-14.1989-3.6054-18.1389-9.5229zm337.7331-217.36467c-.4461 13.396-8.9208 12.8756-16.8751 13.3217 5.2037 1.7841 15.0909 2.2301 11.3739 13.5298 7.5827-8.6234 9.8872-9.2925 18.7336-9.3668-6.9879-3.1966-13.2324-3.6427-13.2324-17.4847zm-204.3149 575.16875c-6.4007 6.31887-9.5527 13.00943-24.7105 7.1366 14.4739 6.17019 10.3927 15.16525 7.4934 24.086 4.059-4.90641 8.8465-15.53694 19.5885-6.7649-6.2296-11.8943-5.962-14.79355-2.3714-24.4577zm598.7292-537.19178c-1.7841 6.6163-1.2638 12.2661-13.5298 14.2733 11.8943-1.5611 12.7121 6.0215 14.2732 13.0094.8177-4.832-.1487-13.6784 10.2588-12.1173-8.6977-5.4268-9.6641-7.434-11.0022-15.1654zm-262.1044-.73171c-9.5303 9.4411-12.4295 10.0358-22.6066 9.4411 7.8428 4.2374 15.1578 5.2781 13.9163 21.5585 1.7098-15.6857 11.4929-14.4219 20.8523-14.1989-5.8208-2.4532-17.3955-3.94-12.162-16.8007zm227.11 329.88359c2.3045 8.62339 6.6162 14.6449-5.9471 24.97811 12.489-9.58981 18.2875-1.63547 24.6807 5.27811-2.3045-5.94717-9.2181-15.31396 3.6426-20.36905-13.3811-.3717-15.8343-2.08151-22.3762-9.88717zm9.7837 440.88991c-2.0072 9.14377-3.0479 18.9566-18.6592 16.94943 16.0573 2.60189 15.3883 9.96143 17.6928 18.5849 1.7841-10.03585 3.0479-12.71215 14.4219-19.77441-13.6785 2.08151-12.4147-9.51539-13.4555-15.75992zm126.4971-491.24879c-2.1038 11.8944-3.598 15.0166-16.994 23.417 16.1168-2.4532 14.6226 11.22528 15.8566 18.5849 2.3714-10.77925 3.598-22.3762 22.0268-19.9974-18.9566-3.1222-18.1611-11.8199-20.8894-22.0045zm-353.9512-10.7044c-5.4268 7.1366-7.5826 14.1989-23.417 10.5563 15.1653 4.0143 12.4891 13.4554 10.8536 22.7479 3.3453-5.4268 6.5419-16.6521 18.4362-9.5155-7.88-10.8536-8.0286-13.8272-5.8728-23.7887zm-418.468 343.43917c-16.0574-2.60932-15.3883-9.99124-17.6928-18.63693-1.7842 10.07301-3.048 12.7195-14.4219 19.82637 10.6306-1.61317 12.1917 8.31438 13.8271 13.88985 2.6763-7.43396 5.8729-16.71476 18.2876-15.07929zm479.3326-136.36521c-11.374-7.1366-12.6378-9.78309-14.4219-19.85611-2.3046 8.6457-1.6355 16.02762-17.6929 18.66668 15.091-2.00717 16.5778 7.12173 18.6221 15.84548 1.0036-6.5456.7062-16.60375 13.4927-14.65605zm-51.8908-101.09632c4.0143 7.97664 9.4411 13.03173-.7434 25.69177 10.2588-11.94638 17.6185-5.30042 25.2011.16355-3.4196-5.34502-12.1174-13.13581-.5204-20.71102-13.2324 2.2971-15.9087 1.16713-23.9373-5.1443zm208.6743-192.63103c-2.2896 8.6457-1.5834 16.0276-17.6631 18.6221 15.6262-2.037 16.6447 7.8428 18.6295 16.9568 1.0631-6.2668-.2081-17.8192 13.4852-15.7302-11.3516-7.12921-12.6228-9.77571-14.4516-19.8487zm-99.0753 197.52227c1.1895 8.05098.9664 10.35551-5.7985 18.63694 9.7385-5.05509 11.82 4.00691 14.1989 8.45985-.8921-7.41166-2.5275-15.13555 9.7385-17.57388-12.7864 2.13354-14.1989-3.60547-18.1389-9.52291zm28.6942 322.80295c-.446 13.39599-8.9207 12.87562-16.8751 13.32165 5.2038 1.78416 15.091 2.23019 11.374 13.52981 7.5826-8.62339 9.8872-9.29245 18.7336-9.36679-6.9879-3.1966-13.2325-3.64264-13.2325-17.48467zm-178.626 45.75558c-6.4007 6.31886-9.5527 13.00943-24.7105 7.1366 14.4739 6.17019 10.3926 15.16528 7.4934 24.08603 4.0589-4.90641 8.8464-15.53698 19.5885-6.7649-6.2297-11.89434-5.962-14.79358-2.3714-24.45773zm-113.7358-718.76116c-1.7842 6.6162-1.2638 12.2661-13.5298 14.2732 11.8943-1.5611 12.7121 6.0215 14.2732 13.0095.8177-4.8321-.1487-13.6785 10.2588-12.1174-8.6977-5.4268-9.6641-7.434-11.0022-15.1653zm409.0247 532.79695c-9.5303 9.44114-12.4296 10.03585-22.6066 9.44114 7.8428 4.23736 15.1578 5.27811 13.9163 21.55848 1.7098-15.68566 11.4929-14.42188 20.8523-14.19887-5.8208-2.4532-17.3955-3.93999-12.162-16.80075zm-278.1929-474.418c2.3045 8.6234 6.6162 14.6449-5.9472 24.9781 12.4891-9.5898 18.2875-1.6355 24.6807 5.2781-2.3045-5.9472-9.2181-15.314 3.6427-20.3691-13.3811-.3717-15.8343-2.0815-22.3762-9.8871zm-313.1085-64.6334c-2.0072 9.1438-3.0479 18.9566-18.6592 16.9494 16.0573 2.6019 15.3883 9.9614 17.6928 18.5849 1.7841-10.0358 3.0479-12.7121 14.4219-19.7744-13.6785 2.0815-12.4147-9.5154-13.4555-15.7599zm733.4041 764.54757c-2.1038 11.89434-3.598 15.0166-16.9941 23.41698 16.1169-2.45321 14.6226 11.22528 15.8567 18.5849 2.3714-10.77924 3.598-22.37622 22.0268-19.99735-18.9566-3.12227-18.1612-11.82-20.8894-22.00453zm-257.9654-551.52597c-5.4268 7.1366-7.5827 14.1988-23.417 10.5562 15.1653 4.0143 12.489 13.4555 10.8536 22.7479 3.3453-5.4268 6.5419-16.6521 18.4362-9.5155-7.88-10.8535-8.0287-13.8271-5.8728-23.7886zm194.114 276.52817c-16.0574-2.60932-15.3883-9.99124-17.6928-18.63694-1.7842 10.07302-3.048 12.71951-14.4219 19.82637 10.6305-1.61317 12.1917 8.31438 13.8271 13.88985 2.6763-7.43396 5.8729-16.71475 18.2876-15.07928zm-599.1414-428.10177c-11.374-7.1366-12.6377-9.7831-14.4219-19.8561-2.3045 8.6457-1.6355 16.0276-17.6928 18.6667 15.0909-2.0072 16.5777 7.1217 18.622 15.8455 1.0036-6.5456.7063-16.6038 13.4927-14.6561zm495.6159 333.65358c4.0144 7.97664 9.4412 13.03173-.7434 25.69177 10.2589-11.94638 17.6185-5.30041 25.2012.16355-3.4196-5.34502-12.1174-13.13581-.5204-20.71102-13.2325 2.2971-15.9087 1.16713-23.9374-5.1443zm-359.4239 160.43903c-2.2897 8.6457-1.5835 16.02762-17.6631 18.62207 15.6262-2.03689 16.6446 7.84284 18.6295 16.95687 1.063-6.26683-.2082-17.81921 13.4852-15.73026-11.3517-7.12917-12.6229-9.77566-14.4516-19.84868zm16.183-651.26293c1.1895 8.051.9665 10.3555-5.7984 18.637 9.7384-5.0551 11.82 4.0069 14.1988 8.4598-.8921-7.4117-2.5275-15.1355 9.7385-17.5739-12.7864 2.1336-14.1989-3.6054-18.1389-9.5229zm423.4484 743.74928c-.446 13.396-8.9207 12.87562-16.8751 13.32166 5.2038 1.78415 15.091 2.23019 11.374 13.52981 7.5826-8.6234 9.8872-9.29245 18.7336-9.36679-6.9879-3.19661-13.2325-3.64264-13.2325-17.48468zm-669.6408-481.94174c-6.4006 6.3189-9.5526 13.0095-24.7105 7.1366 14.4739 6.1702 10.3927 15.1653 7.4934 24.0861 4.059-4.9065 8.8465-15.537 19.5885-6.7649-6.2296-11.8944-5.962-14.7936-2.3714-24.4578zm397.2797 301.23499c-1.7841 6.6163-1.2638 12.26611-13.5298 14.27328 11.8943-1.56113 12.7121 6.02151 14.2732 13.00943.8177-4.83209-.1487-13.6785 10.2589-12.11736-8.6978-5.42679-9.6642-7.43396-11.0023-15.16535zm273.6899-482.2318c-9.5304 9.4412-12.4296 10.0359-22.6067 9.4412 7.8428 4.2373 15.1578 5.2781 13.9164 21.5584 1.7098-15.6856 11.4929-14.4218 20.8522-14.1988-5.8208-2.4532-17.3954-3.94-12.1619-16.8008zm-403.6175 691.97243c2.3046 8.62339 6.6162 14.6449-5.9471 24.97811 12.489-9.58981 18.2875-1.63548 24.6807 5.27811-2.3045-5.94717-9.2181-15.31396 3.6427-20.36905-13.3812-.3717-15.8344-2.08151-22.3763-9.88717zm-470.9933-29.89863c-2.0071 9.14377-3.0479 18.9566-18.6592 16.94943 16.0574 2.60188 15.3883 9.96143 17.6928 18.5849 1.7842-10.03585 3.0479-12.71215 14.4219-19.77441-13.6785 2.08151-12.4147-9.5154-13.4555-15.75992zm374.9027-664.27091c-2.1038 11.8944-3.598 15.0166-16.994 23.417 16.1168-2.4532 14.6226 11.2253 15.8566 18.5849 2.3715-10.7792 3.5981-22.3762 22.0269-19.9973-18.9566-3.1223-18.1612-11.82-20.8895-22.0046zm-297.7161 383.90156c-5.4268 7.13661-7.5826 14.19887-23.417 10.55623 15.1653 4.01434 12.4891 13.45547 10.8536 22.74792 3.3453-5.4268 6.5419-16.65208 18.4362-9.51547-7.88-10.85359-8.0286-13.82717-5.8728-23.78868zm794.5029-448.18386c-1.7842 6.6162-1.2638 12.2661-13.5298 14.2732 11.8943-1.5611 12.712 6.0215 14.2732 13.0095.8177-4.8321-.1487-13.6785 10.2588-12.1174-8.6977-5.4268-9.6641-7.434-11.0022-15.1653zm-850.1341 271.64885c-1.7842 6.6162-1.2638 12.2661-13.5298 14.2732 11.8943-1.5611 12.712 6.0215 14.2732 13.0095.8177-4.8321-.1487-13.6785 10.2588-12.1174-8.6977-5.4268-9.6641-7.434-11.0022-15.1653zm266.6631-279.57554c-1.7841 6.6162-1.2638 12.26611-13.5298 14.27321 11.8943-1.5611 12.7121 6.0215 14.2732 13.0095.8178-4.8321-.1487-13.6785 10.2589-12.11741-8.6978-5.42679-9.6642-7.43399-11.0023-15.1653z" fill="#c7b7e0"/></pattern><mask id="k" maskUnits="userSpaceOnUse"><path d="m-13.229159-13.22917h158.749999v158.75002h-158.749999z" fill="url(#l)" filter="url(#m)" stroke-width="11.83"/></mask><radialGradient id="l" cx="66.145844" cy="66.145836" gradientTransform="matrix(-1.0000001 .00000145 0 -1 132.29169 132.29157)" gradientUnits="userSpaceOnUse" r="66.145836"><stop offset="0" stop-color="#fff"/><stop offset=".25342461" stop-color="#fff"/><stop offset=".75273961" stop-color="#808080"/><stop offset=".87499994" stop-color="#404040"/><stop offset="1"/></radialGradient><filter id="m" color-interpolation-filters="sRGB" height="1.0135" width="1.0135" x="-.00675" y="-.00675"><feGaussianBlur stdDeviation=".44648439"/></filter><radialGradient id="n" cx="703.05621" cy="1070.2185" gradientTransform="matrix(.12107523 -.12107523 .05841622 .05841622 -57.692804 112.54712)" gradientUnits="userSpaceOnUse" r="1011.8609" spreadMethod="pad"><stop offset="0" stop-color="#c7b7e0"/><stop offset=".1" stop-color="#c7b7e0" stop-opacity=".9"/><stop offset="1" stop-color="#c098ff" stop-opacity="0"/></radialGradient><radialGradient id="o" cx="703.05621" cy="255.40021" gradientTransform="matrix(.12107523 -.12107523 .05841622 .05841622 -57.692804 112.54712)" gradientUnits="userSpaceOnUse" r="1011.8609"><stop offset="0" stop-color="#734cb3"/><stop offset=".1" stop-color="#734cb3" stop-opacity=".9"/><stop offset="1" stop-color="#734cb3" stop-opacity="0"/></radialGradient><radialGradient id="p" cx="4601.1221" cy="4277.6772" gradientTransform="matrix(0 1 -1 0 5224.5762 -3824.5764)" gradientUnits="userSpaceOnUse" r="11.2507" xlink:href="#q"/><linearGradient id="q"><stop offset="0" stop-color="#e2d9f2"/><stop offset=".1" stop-color="#f0ebf9" stop-opacity=".9"/><stop offset="1" stop-color="#e5e5e5" stop-opacity="0"/></linearGradient><radialGradient id="r" cx="4694.3481" cy="4395.814" gradientTransform="matrix(0 1 -1 0 5224.5762 -3824.5764)" gradientUnits="userSpaceOnUse" r="11.2507" xlink:href="#q"/><radialGradient id="s" cx="4845.7568" cy="4885.4878" gradientTransform="matrix(0 1 -1 0 5224.5762 -3824.5764)" gradientUnits="userSpaceOnUse" r="11.2507" xlink:href="#q"/><radialGradient id="t" cx="4996.8203" cy="4201.0781" gradientTransform="matrix(0 1 -1 0 5224.5762 -3824.5764)" gradientUnits="userSpaceOnUse" r="11.2507" xlink:href="#q"/><radialGradient id="u" cx="4264.2671" cy="4804.9849" gradientTransform="matrix(0 1 -1 0 5224.5762 -3824.5764)" gradientUnits="userSpaceOnUse" r="11.2507" xlink:href="#q"/><radialGradient id="v" cx="4253.0161" cy="4349.7529" gradientTransform="matrix(0 1 -1 0 5224.5762 -3824.5764)" gradientUnits="userSpaceOnUse" r="11.2507" xlink:href="#q"/><radialGradient id="w" cx="4291.9346" cy="4509.8506" gradientTransform="matrix(0 1 -1 0 5224.5762 -3824.5764)" gradientUnits="userSpaceOnUse" r="11.2507" xlink:href="#q"/><radialGradient id="x" cx="4178.7915" cy="4193.6758" gradientTransform="matrix(0 1 -1 0 5224.5762 -3824.5764)" gradientUnits="userSpaceOnUse" r="11.2507" xlink:href="#q"/><radialGradient id="y" cx="4508.9131" cy="4184.4229" gradientTransform="matrix(0 1 -1 0 5224.5762 -3824.5764)" gradientUnits="userSpaceOnUse" r="11.2507" xlink:href="#q"/><radialGradient id="z" cx="4169.5386" cy="4599.0166" gradientTransform="matrix(0 1 -1 0 5224.5762 -3824.5764)" gradientUnits="userSpaceOnUse" r="11.2507" xlink:href="#q"/><radialGradient id="A" cx="4024.0554" cy="4671.3345" gradientTransform="matrix(0 1 -1 0 5224.5762 -3824.5764)" gradientUnits="userSpaceOnUse" r="11.2507" xlink:href="#q"/><radialGradient id="B" cx="4381.2778" cy="4473.0386" gradientTransform="matrix(0 1 -1 0 5224.5762 -3824.5764)" gradientUnits="userSpaceOnUse" r="5.6228" xlink:href="#q"/><radialGradient id="C" cx="4207.3452" cy="4447.1753" gradientTransform="matrix(0 1 -1 0 5224.5762 -3824.5764)" gradientUnits="userSpaceOnUse" r="5.6228" xlink:href="#q"/><radialGradient id="D" cx="4156.0269" cy="4803.9863" gradientTransform="matrix(0 1 -1 0 5224.5762 -3824.5764)" gradientUnits="userSpaceOnUse" r="5.6228" xlink:href="#q"/><radialGradient id="E" cx="4201.7222" cy="5018.0508" gradientTransform="matrix(0 1 -1 0 5224.5762 -3824.5764)" gradientUnits="userSpaceOnUse" r="5.6228" xlink:href="#q"/><radialGradient id="F" cx="4756.5977" cy="4610.2671" gradientTransform="matrix(0 1 -1 0 5224.5762 -3824.5764)" gradientUnits="userSpaceOnUse" r="5.6228" xlink:href="#q"/><radialGradient id="G" cx="4724.8408" cy="4498.3604" gradientTransform="matrix(0 1 -1 0 5224.5762 -3824.5764)" gradientUnits="userSpaceOnUse" r="5.6228" xlink:href="#q"/><radialGradient id="H" cx="4755.5991" cy="4916.6094" gradientTransform="matrix(0 1 -1 0 5224.5762 -3824.5764)" gradientUnits="userSpaceOnUse" r="5.6228" xlink:href="#q"/><radialGradient id="I" cx="4815.3223" cy="4406.499" gradientTransform="matrix(0 1 -1 0 5224.5762 -3824.5764)" gradientUnits="userSpaceOnUse" r="5.6228" xlink:href="#q"/><radialGradient id="J" cx="4840.1343" cy="4528.7949" gradientTransform="matrix(0 1 -1 0 5224.5762 -3824.5764)" gradientUnits="userSpaceOnUse" r="5.6228" xlink:href="#q"/><radialGradient id="K" cx="4994.8228" cy="4675.311" gradientTransform="matrix(0 1 -1 0 5224.5762 -3824.5764)" gradientUnits="userSpaceOnUse" r="5.6228" xlink:href="#q"/><radialGradient id="L" cx="4625.9868" cy="4580.4009" gradientTransform="matrix(0 1 -1 0 5224.5762 -3824.5764)" gradientUnits="userSpaceOnUse" r="5.6228" xlink:href="#q"/><radialGradient id="M" cx="4832.085" cy="4231.3418" gradientTransform="matrix(0 1 -1 0 5224.5762 -3824.5764)" gradientUnits="userSpaceOnUse" r="5.6228" xlink:href="#q"/><radialGradient id="N" cx="4920.2227" cy="4281.3076" gradientTransform="matrix(0 1 -1 0 5224.5762 -3824.5764)" gradientUnits="userSpaceOnUse" r="5.6228" xlink:href="#q"/><radialGradient id="O" cx="4483.835" cy="4313.1982" gradientTransform="matrix(0 1 -1 0 5224.5762 -3824.5764)" gradientUnits="userSpaceOnUse" r="5.6228" xlink:href="#q"/><radialGradient id="P" cx="4664.439" cy="4695.5273" gradientTransform="matrix(0 1 -1 0 5224.5762 -3824.5764)" gradientUnits="userSpaceOnUse" r="11.2507" xlink:href="#q"/><radialGradient id="Q" cx="4894.2646" cy="4681.8555" gradientTransform="matrix(0 1 -1 0 5224.5762 -3824.5764)" gradientUnits="userSpaceOnUse" r="11.2507" xlink:href="#q"/><radialGradient id="R" cx="4985.5698" cy="4361.0039" gradientTransform="matrix(0 1 -1 0 5224.5762 -3824.5764)" gradientUnits="userSpaceOnUse" r="11.2507" xlink:href="#q"/><radialGradient id="S" cx="4713.5898" cy="4089.8687" gradientTransform="matrix(0 1 -1 0 5224.5762 -3824.5764)" gradientUnits="userSpaceOnUse" r="11.2507" xlink:href="#q"/><radialGradient id="T" cx="4757.5957" cy="4804.9849" gradientTransform="matrix(0 1 -1 0 5224.5762 -3824.5764)" gradientUnits="userSpaceOnUse" r="11.2507" xlink:href="#q"/><radialGradient id="U" cx="4433.3354" cy="5016.0532" gradientTransform="matrix(0 1 -1 0 5224.5762 -3824.5764)" gradientUnits="userSpaceOnUse" r="11.2507" xlink:href="#q"/><radialGradient id="V" cx="4371.5723" cy="4725.9341" gradientTransform="matrix(0 1 -1 0 5224.5762 -3824.5764)" gradientUnits="userSpaceOnUse" r="11.2507" xlink:href="#q"/><radialGradient id="W" cx="4510.9111" cy="4743.7231" gradientTransform="matrix(0 1 -1 0 5224.5762 -3824.5764)" gradientUnits="userSpaceOnUse" r="11.2507" xlink:href="#q"/><radialGradient id="X" cx="4269.4331" cy="4686.5615" gradientTransform="matrix(0 1 -1 0 5224.5762 -3824.5764)" gradientUnits="userSpaceOnUse" r="11.2507" xlink:href="#q"/><radialGradient id="Y" cx="4072.584" cy="4883.4902" gradientTransform="matrix(0 1 -1 0 5224.5762 -3824.5764)" gradientUnits="userSpaceOnUse" r="11.2507" xlink:href="#q"/><radialGradient id="Z" cx="4484.8335" cy="4664.189" gradientTransform="matrix(0 1 -1 0 5224.5762 -3824.5764)" gradientUnits="userSpaceOnUse" r="7.1455" xlink:href="#q"/><radialGradient id="aa" cx="4613.2183" cy="4640.4971" gradientTransform="matrix(0 1 -1 0 5224.5762 -3824.5764)" gradientUnits="userSpaceOnUse" r="7.1455" xlink:href="#q"/><radialGradient id="ab" cx="4091.8" cy="4252.5869" gradientTransform="matrix(0 1 -1 0 5224.5762 -3824.5764)" gradientUnits="userSpaceOnUse" r="7.1455" xlink:href="#q"/><radialGradient id="ac" cx="4666.4365" cy="4863.9521" gradientTransform="matrix(0 1 -1 0 5224.5762 -3824.5764)" gradientUnits="userSpaceOnUse" r="7.1455" xlink:href="#q"/><radialGradient id="ad" cx="4894.2646" cy="4840.1016" gradientTransform="matrix(0 1 -1 0 5224.5762 -3824.5764)" gradientUnits="userSpaceOnUse" r="7.1455" xlink:href="#q"/><radialGradient id="ae" cx="4974.3188" cy="4809.6094" gradientTransform="matrix(0 1 -1 0 5224.5762 -3824.5764)" gradientUnits="userSpaceOnUse" r="7.1455" xlink:href="#q"/><radialGradient id="af" cx="4589.1577" cy="4997.6572" gradientTransform="matrix(0 1 -1 0 5224.5762 -3824.5764)" gradientUnits="userSpaceOnUse" r="7.1455" xlink:href="#q"/><radialGradient id="ag" cx="4065.4385" cy="4519.7837" gradientTransform="matrix(0 1 -1 0 5224.5762 -3824.5764)" gradientUnits="userSpaceOnUse" r="7.1455" xlink:href="#q"/><radialGradient id="ah" cx="4347.4258" cy="4820.2441" gradientTransform="matrix(0 1 -1 0 5224.5762 -3824.5764)" gradientUnits="userSpaceOnUse" r="7.1455" xlink:href="#q"/><radialGradient id="ai" cx="4533.5781" cy="4593.1694" gradientTransform="matrix(0 1 -1 0 5224.5762 -3824.5764)" gradientUnits="userSpaceOnUse" r="7.1455" xlink:href="#q"/><radialGradient id="aj" cx="4448.2217" cy="4220.0913" gradientTransform="matrix(0 1 -1 0 5224.5762 -3824.5764)" gradientUnits="userSpaceOnUse" r="11.2507" xlink:href="#q"/><radialGradient id="ak" cx="4908.2451" cy="4929.8579" gradientTransform="matrix(0 1 -1 0 5224.5762 -3824.5764)" gradientUnits="userSpaceOnUse" r="11.2507" xlink:href="#q"/><radialGradient id="al" cx="4987.5674" cy="5014.0552" gradientTransform="matrix(0 1 -1 0 5224.5762 -3824.5764)" gradientUnits="userSpaceOnUse" r="11.2507" xlink:href="#q"/><radialGradient id="am" cx="3991.5649" cy="4813.0986" gradientTransform="matrix(0 1 -1 0 5224.5762 -3824.5764)" gradientUnits="userSpaceOnUse" r="11.2507" xlink:href="#q"/><radialGradient id="an" cx="4012.8047" cy="4351.751" gradientTransform="matrix(0 1 -1 0 5224.5762 -3824.5764)" gradientUnits="userSpaceOnUse" r="11.2507" xlink:href="#q"/><radialGradient id="ao" cx="4683.0972" cy="5027.3037" gradientTransform="matrix(0 1 -1 0 5224.5762 -3824.5764)" gradientUnits="userSpaceOnUse" r="11.2507" xlink:href="#q"/><radialGradient id="ap" cx="4367.481" cy="4195.6733" gradientTransform="matrix(0 1 -1 0 5224.5762 -3824.5764)" gradientUnits="userSpaceOnUse" r="11.2507" xlink:href="#q"/><radialGradient id="aq" cx="4526.4326" cy="4089.8687" gradientTransform="matrix(0 1 -1 0 5224.5762 -3824.5764)" gradientUnits="userSpaceOnUse" r="11.2507" xlink:href="#q"/><radialGradient id="ar" cx="4261.9028" cy="4242.5928" gradientTransform="matrix(0 1 -1 0 5224.5762 -3824.5764)" gradientUnits="userSpaceOnUse" r="11.2507" xlink:href="#q"/><radialGradient id="as" cx="16633.223" cy="4517.6021" gradientTransform="matrix(0 .2895 -1 0 5224.5762 -4086.6375)" gradientUnits="userSpaceOnUse" r="19.241899" xlink:href="#q"/><radialGradient id="at" cx="-15595.086" cy="5031.6465" gradientTransform="matrix(.2895 0 0 1 5221.3418 -4303.4033)" gradientUnits="userSpaceOnUse" r="19.241899" xlink:href="#q"/><radialGradient id="au" cx="16323.169" cy="4900.5503" gradientTransform="matrix(0 .2895 -1 0 5224.5762 -4086.6375)" gradientUnits="userSpaceOnUse" r="29.7325" xlink:href="#q"/><radialGradient id="av" cx="-16917.998" cy="4941.8945" gradientTransform="matrix(.2895 0 0 1 5221.3418 -4303.4033)" gradientUnits="userSpaceOnUse" r="29.7325" xlink:href="#q"/><radialGradient id="aw" cx="17536.6" cy="5029.3018" gradientTransform="matrix(0 .2895 -1 0 5224.5762 -4086.6375)" gradientUnits="userSpaceOnUse" r="29.7325" xlink:href="#q"/><radialGradient id="ax" cx="-17362.775" cy="5293.1509" gradientTransform="matrix(.2895 0 0 1 5221.3418 -4303.4033)" gradientUnits="userSpaceOnUse" r="29.7325" xlink:href="#q"/><radialGradient id="ay" cx="15154.966" cy="4975.0698" gradientTransform="matrix(0 .2895 -1 0 5224.5762 -4086.6375)" gradientUnits="userSpaceOnUse" r="29.7325" xlink:href="#q"/><radialGradient id="az" cx="-17175.43" cy="4603.7305" gradientTransform="matrix(.2895 0 0 1 5221.3418 -4303.4033)" gradientUnits="userSpaceOnUse" r="29.7325" xlink:href="#q"/><radialGradient id="aA" cx="16788.486" cy="4380.1377" gradientTransform="matrix(0 .2895 -1 0 5224.5762 -4086.6375)" gradientUnits="userSpaceOnUse" r="29.7325" xlink:href="#q"/><radialGradient id="aB" cx="-15120.208" cy="5076.5913" gradientTransform="matrix(.2895 0 0 1 5221.3418 -4303.4033)" gradientUnits="userSpaceOnUse" r="29.7325" xlink:href="#q"/><radialGradient id="aC" cx="15052.254" cy="4385.373" gradientTransform="matrix(0 .2895 -1 0 5224.5762 -4086.6375)" gradientUnits="userSpaceOnUse" r="29.7325" xlink:href="#q"/><radialGradient id="aD" cx="-15138.295" cy="4573.998" gradientTransform="matrix(.2895 0 0 1 5221.3418 -4303.4033)" gradientUnits="userSpaceOnUse" r="29.7325" xlink:href="#q"/><radialGradient id="aE" cx="16060.047" cy="4376.7666" gradientTransform="matrix(0 .2895 -1 0 5224.5762 -4086.6375)" gradientUnits="userSpaceOnUse" r="29.7325" xlink:href="#q"/><radialGradient id="aF" cx="-15108.562" cy="4865.7275" gradientTransform="matrix(.2895 0 0 1 5221.3418 -4303.4033)" gradientUnits="userSpaceOnUse" r="29.7325" xlink:href="#q"/><radialGradient id="aG" cx="15866.068" cy="4081.2617" gradientTransform="matrix(0 .2895 -1 0 5224.5762 -4086.6375)" gradientUnits="userSpaceOnUse" r="29.7325" xlink:href="#q"/><radialGradient id="aH" cx="-14087.729" cy="4809.5757" gradientTransform="matrix(.2895 0 0 1 5221.3418 -4303.4033)" gradientUnits="userSpaceOnUse" r="29.7325" xlink:href="#q"/><radialGradient id="aI" cx="17890.787" cy="4106.2778" gradientTransform="matrix(0 .2895 -1 0 5224.5762 -4086.6375)" gradientUnits="userSpaceOnUse" r="29.7325" xlink:href="#q"/><radialGradient id="aJ" cx="-14174.147" cy="5395.6787" gradientTransform="matrix(.2895 0 0 1 5221.3418 -4303.4033)" gradientUnits="userSpaceOnUse" r="29.7325" xlink:href="#q"/><radialGradient id="aK" cx="15420.522" cy="4902.7319" gradientTransform="matrix(0 .2895 -1 0 5224.5762 -4086.6375)" gradientUnits="userSpaceOnUse" r="19.241899" xlink:href="#q"/><radialGradient id="aL" cx="-16925.533" cy="4680.6021" gradientTransform="matrix(.2895 0 0 1 5221.3418 -4303.4033)" gradientUnits="userSpaceOnUse" r="19.241899" xlink:href="#q"/><radialGradient id="aM" cx="17559.291" cy="4676.2856" gradientTransform="matrix(0 .2895 -1 0 5224.5762 -4086.6375)" gradientUnits="userSpaceOnUse" r="19.241899" xlink:href="#q"/><radialGradient id="aN" cx="-16143.265" cy="5299.7192" gradientTransform="matrix(.2895 0 0 1 5221.3418 -4303.4033)" gradientUnits="userSpaceOnUse" r="19.241899" xlink:href="#q"/><radialGradient id="aO" cx="16866.557" cy="4774.4922" gradientTransform="matrix(0 .2895 -1 0 5224.5762 -4086.6375)" gradientUnits="userSpaceOnUse" r="19.241899" xlink:href="#q"/><radialGradient id="aP" cx="-16482.523" cy="5099.1909" gradientTransform="matrix(.2895 0 0 1 5221.3418 -4303.4033)" gradientUnits="userSpaceOnUse" r="19.241899" xlink:href="#q"/><radialGradient id="aQ" cx="16071.692" cy="4574.7783" gradientTransform="matrix(0 .2895 -1 0 5224.5762 -4086.6375)" gradientUnits="userSpaceOnUse" r="19.241899" xlink:href="#q"/><radialGradient id="aR" cx="-15792.604" cy="4869.0986" gradientTransform="matrix(.2895 0 0 1 5221.3418 -4303.4033)" gradientUnits="userSpaceOnUse" r="19.241899" xlink:href="#q"/><radialGradient id="aS" cx="16699.693" cy="4871.0977" gradientTransform="matrix(0 .2895 -1 0 5224.5762 -4086.6375)" gradientUnits="userSpaceOnUse" r="19.241899" xlink:href="#q"/><radialGradient id="aT" cx="-16816.252" cy="5050.8887" gradientTransform="matrix(.2895 0 0 1 5221.3418 -4303.4033)" gradientUnits="userSpaceOnUse" r="19.241899" xlink:href="#q"/><radialGradient id="aU" cx="18061.07" cy="4512.0322" gradientTransform="matrix(0 .2895 -1 0 5224.5762 -4086.6375)" gradientUnits="userSpaceOnUse" r="19.241899" xlink:href="#q"/><radialGradient id="aV" cx="-15575.844" cy="5444.9717" gradientTransform="matrix(.2895 0 0 1 5221.3418 -4303.4033)" gradientUnits="userSpaceOnUse" r="19.241899" xlink:href="#q"/><radialGradient id="aW" cx="17188.609" cy="4244.9609" gradientTransform="matrix(0 .2895 -1 0 5224.5762 -4086.6375)" gradientUnits="userSpaceOnUse" r="19.241899" xlink:href="#q"/><radialGradient id="aX" cx="-14653.234" cy="5192.417" gradientTransform="matrix(.2895 0 0 1 5221.3418 -4303.4033)" gradientUnits="userSpaceOnUse" r="19.241899" xlink:href="#q"/><radialGradient id="aY" cx="15143.32" cy="4682.5854" gradientTransform="matrix(0 .2895 -1 0 5224.5762 -4086.6375)" gradientUnits="userSpaceOnUse" r="19.241899" xlink:href="#q"/><radialGradient id="aZ" cx="-16165.027" cy="4600.3594" gradientTransform="matrix(.2895 0 0 1 5221.3418 -4303.4033)" gradientUnits="userSpaceOnUse" r="19.241899" xlink:href="#q"/><radialGradient id="a0" cx="17652.088" cy="4368.1597" gradientTransform="matrix(0 .2895 -1 0 5224.5762 -4086.6375)" gradientUnits="userSpaceOnUse" r="19.241899" xlink:href="#q"/><radialGradient id="a1" cx="-15078.83" cy="5326.5815" gradientTransform="matrix(.2895 0 0 1 5221.3418 -4303.4033)" gradientUnits="userSpaceOnUse" r="19.241899" xlink:href="#q"/><radialGradient id="a2" cx="3957.2905" cy="4201.0781" gradientTransform="matrix(0 1 -1 0 5224.5762 -3824.5764)" gradientUnits="userSpaceOnUse" r="11.2507" xlink:href="#q"/><radialGradient id="a3" cx="3955.2927" cy="4675.311" gradientTransform="matrix(0 1 -1 0 5224.5762 -3824.5764)" gradientUnits="userSpaceOnUse" r="5.6228" xlink:href="#q"/><radialGradient id="a4" cx="3880.6929" cy="4281.3076" gradientTransform="matrix(0 1 -1 0 5224.5762 -3824.5764)" gradientUnits="userSpaceOnUse" r="5.6228" xlink:href="#q"/><radialGradient id="a5" cx="3946.0398" cy="4361.0039" gradientTransform="matrix(0 1 -1 0 5224.5762 -3824.5764)" gradientUnits="userSpaceOnUse" r="11.2507" xlink:href="#q"/><radialGradient id="a6" cx="14469.968" cy="4512.0322" gradientTransform="matrix(0 .2895 -1 0 5224.5762 -4086.6375)" gradientUnits="userSpaceOnUse" r="19.241899" xlink:href="#q"/><radialGradient id="a7" cx="-15575.844" cy="4405.4414" gradientTransform="matrix(.2895 0 0 1 5221.3418 -4303.4033)" gradientUnits="userSpaceOnUse" r="19.241899" xlink:href="#q"/><radialGradient id="a8" cx="16783.117" cy="4155.2524" gradientTransform="matrix(0 .2895 -1 0 5224.5762 -4086.6375)" gradientUnits="userSpaceOnUse" r="19.241899" xlink:href="#q"/><radialGradient id="a9" cx="-14343.332" cy="5075.0371" gradientTransform="matrix(.2895 0 0 1 5221.3418 -4303.4033)" gradientUnits="userSpaceOnUse" r="19.241899" xlink:href="#q"/><radialGradient id="ba" cx="15184.698" cy="4089.8687" gradientTransform="matrix(0 .2895 -1 0 5224.5762 -4086.6375)" gradientUnits="userSpaceOnUse" r="19.241899" xlink:href="#q"/><radialGradient id="bb" cx="-14117.461" cy="4612.3369" gradientTransform="matrix(.2895 0 0 1 5221.3418 -4303.4033)" gradientUnits="userSpaceOnUse" r="19.241899" xlink:href="#q"/><radialGradient id="bc" cx="14799.68" cy="4114.8848" gradientTransform="matrix(0 .2895 -1 0 5224.5762 -4086.6375)" gradientUnits="userSpaceOnUse" r="19.241899" xlink:href="#q"/><radialGradient id="bd" cx="-14203.88" cy="4500.8843" gradientTransform="matrix(.2895 0 0 1 5221.3418 -4303.4033)" gradientUnits="userSpaceOnUse" r="19.241899" xlink:href="#q"/><radialGradient id="be" cx="4250.4473" cy="5175.2676" gradientTransform="matrix(0 -1 1 0 -5135.66355 5025.32025)" gradientUnits="userSpaceOnUse" r="11.2507" xlink:href="#q"/><radialGradient id="bf" cx="4163.4556" cy="5234.1792" gradientTransform="matrix(0 -1 1 0 -5135.66355 5025.32025)" gradientUnits="userSpaceOnUse" r="7.1455" xlink:href="#q"/><radialGradient id="bg" cx="4333.5586" cy="5224.1846" gradientTransform="matrix(0 -1 1 0 -5135.66355 5025.32025)" gradientUnits="userSpaceOnUse" r="11.2507" xlink:href="#q"/><radialGradient id="bh" cx="4028.946" cy="5182.6704" gradientTransform="matrix(0 -1 1 0 -5135.66355 5025.32025)" gradientUnits="userSpaceOnUse" r="11.2507" xlink:href="#q"/><radialGradient id="bi" cx="3952.3484" cy="5262.8999" gradientTransform="matrix(0 -1 1 0 -5135.66355 5025.32025)" gradientUnits="userSpaceOnUse" r="5.6228" xlink:href="#q"/><radialGradient id="bj" cx="4358.6768" cy="4918.6069" gradientTransform="matrix(0 1 -1 0 5224.5762 -3824.5764)" gradientUnits="userSpaceOnUse" r="11.2507" xlink:href="#q"/><radialGradient id="bk" cx="5075.5581" cy="4804.9849" gradientTransform="matrix(0 1 -1 0 5224.5762 -3824.5764)" gradientUnits="userSpaceOnUse" r="11.2507" xlink:href="#q"/><radialGradient id="bl" cx="5064.3071" cy="4349.7529" gradientTransform="matrix(0 1 -1 0 5224.5762 -3824.5764)" gradientUnits="userSpaceOnUse" r="11.2507" xlink:href="#q"/><radialGradient id="bm" cx="5103.2256" cy="4509.8506" gradientTransform="matrix(0 1 -1 0 5224.5762 -3824.5764)" gradientUnits="userSpaceOnUse" r="11.2507" xlink:href="#q"/><radialGradient id="bn" cx="5192.5688" cy="4473.0386" gradientTransform="matrix(0 1 -1 0 5224.5762 -3824.5764)" gradientUnits="userSpaceOnUse" r="5.6228" xlink:href="#q"/><radialGradient id="bo" cx="5182.8633" cy="4725.9341" gradientTransform="matrix(0 1 -1 0 5224.5762 -3824.5764)" gradientUnits="userSpaceOnUse" r="11.2507" xlink:href="#q"/><radialGradient id="bp" cx="5080.7241" cy="4686.5615" gradientTransform="matrix(0 1 -1 0 5224.5762 -3824.5764)" gradientUnits="userSpaceOnUse" r="11.2507" xlink:href="#q"/><radialGradient id="bq" cx="5158.7168" cy="4820.2441" gradientTransform="matrix(0 1 -1 0 5224.5762 -3824.5764)" gradientUnits="userSpaceOnUse" r="7.1455" xlink:href="#q"/><radialGradient id="br" cx="5073.1938" cy="4242.5928" gradientTransform="matrix(0 1 -1 0 5224.5762 -3824.5764)" gradientUnits="userSpaceOnUse" r="11.2507" xlink:href="#q"/><radialGradient id="bs" cx="18862.688" cy="4376.7666" gradientTransform="matrix(0 .2895 -1 0 5224.5762 -4086.6375)" gradientUnits="userSpaceOnUse" r="29.7325" xlink:href="#q"/><radialGradient id="bt" cx="-15108.562" cy="5677.0186" gradientTransform="matrix(.2895 0 0 1 5221.3418 -4303.4033)" gradientUnits="userSpaceOnUse" r="29.7325" xlink:href="#q"/><radialGradient id="bu" cx="18223.164" cy="4902.7319" gradientTransform="matrix(0 .2895 -1 0 5224.5762 -4086.6375)" gradientUnits="userSpaceOnUse" r="19.241899" xlink:href="#q"/><radialGradient id="bv" cx="-16925.533" cy="5491.8931" gradientTransform="matrix(.2895 0 0 1 5221.3418 -4303.4033)" gradientUnits="userSpaceOnUse" r="19.241899" xlink:href="#q"/><radialGradient id="bw" cx="18874.334" cy="4574.7783" gradientTransform="matrix(0 .2895 -1 0 5224.5762 -4086.6375)" gradientUnits="userSpaceOnUse" r="19.241899" xlink:href="#q"/><radialGradient id="bx" cx="-15792.604" cy="5680.3896" gradientTransform="matrix(.2895 0 0 1 5221.3418 -4303.4033)" gradientUnits="userSpaceOnUse" r="19.241899" xlink:href="#q"/><radialGradient id="by" cx="4756.5977" cy="3890.749" gradientTransform="matrix(0 1 -1 0 5224.5762 -3824.5764)" gradientUnits="userSpaceOnUse" r="5.6228" xlink:href="#q"/><radialGradient id="bz" cx="4625.9868" cy="3860.8828" gradientTransform="matrix(0 1 -1 0 5224.5762 -3824.5764)" gradientUnits="userSpaceOnUse" r="5.6228" xlink:href="#q"/><radialGradient id="bA" cx="4664.439" cy="3976.0093" gradientTransform="matrix(0 1 -1 0 5224.5762 -3824.5764)" gradientUnits="userSpaceOnUse" r="11.2507" xlink:href="#q"/><radialGradient id="bB" cx="4894.2646" cy="3962.3374" gradientTransform="matrix(0 1 -1 0 5224.5762 -3824.5764)" gradientUnits="userSpaceOnUse" r="11.2507" xlink:href="#q"/><radialGradient id="bC" cx="4371.5723" cy="4006.416" gradientTransform="matrix(0 1 -1 0 5224.5762 -3824.5764)" gradientUnits="userSpaceOnUse" r="11.2507" xlink:href="#q"/><radialGradient id="bD" cx="4510.9111" cy="4024.2048" gradientTransform="matrix(0 1 -1 0 5224.5762 -3824.5764)" gradientUnits="userSpaceOnUse" r="11.2507" xlink:href="#q"/><radialGradient id="bE" cx="4269.4331" cy="3967.0435" gradientTransform="matrix(0 1 -1 0 5224.5762 -3824.5764)" gradientUnits="userSpaceOnUse" r="11.2507" xlink:href="#q"/><radialGradient id="bF" cx="4484.8335" cy="3944.6709" gradientTransform="matrix(0 1 -1 0 5224.5762 -3824.5764)" gradientUnits="userSpaceOnUse" r="7.1455" xlink:href="#q"/><radialGradient id="bG" cx="4613.2183" cy="3920.979" gradientTransform="matrix(0 1 -1 0 5224.5762 -3824.5764)" gradientUnits="userSpaceOnUse" r="7.1455" xlink:href="#q"/><radialGradient id="bH" cx="4533.5781" cy="3873.6511" gradientTransform="matrix(0 1 -1 0 5224.5762 -3824.5764)" gradientUnits="userSpaceOnUse" r="7.1455" xlink:href="#q"/><radialGradient id="bI" cx="17559.291" cy="3956.7673" gradientTransform="matrix(0 .2895 -1 0 5224.5762 -4086.6375)" gradientUnits="userSpaceOnUse" r="19.241899" xlink:href="#q"/><radialGradient id="bJ" cx="-13657.657" cy="5299.7192" gradientTransform="matrix(.2895 0 0 1 5221.3418 -4303.4033)" gradientUnits="userSpaceOnUse" r="19.241899" xlink:href="#q"/><radialGradient id="bK" cx="16071.692" cy="3855.26" gradientTransform="matrix(0 .2895 -1 0 5224.5762 -4086.6375)" gradientUnits="userSpaceOnUse" r="19.241899" xlink:href="#q"/><radialGradient id="bL" cx="-13306.996" cy="4869.0986" gradientTransform="matrix(.2895 0 0 1 5221.3418 -4303.4033)" gradientUnits="userSpaceOnUse" r="19.241899" xlink:href="#q"/><radialGradient id="bM" cx="15143.32" cy="3963.0671" gradientTransform="matrix(0 .2895 -1 0 5224.5762 -4086.6375)" gradientUnits="userSpaceOnUse" r="19.241899" xlink:href="#q"/><radialGradient id="bN" cx="-13679.42" cy="4600.3594" gradientTransform="matrix(.2895 0 0 1 5221.3418 -4303.4033)" gradientUnits="userSpaceOnUse" r="19.241899" xlink:href="#q"/><filter id="bO" color-interpolation-filters="sRGB" height="1.180182" width="1.267865" x="-.133932" y="-.090091"><feGaussianBlur stdDeviation="4.0895887"/></filter><filter id="bP" color-interpolation-filters="sRGB" height="1.072495" width="1.072495" x="-.036247" y="-.036247"><feGaussianBlur stdDeviation=".066453656"/></filter><filter id="bQ" color-interpolation-filters="sRGB" height="1.122684" width="1.122684" x="-.061342" y="-.061342"><feGaussianBlur stdDeviation=".066453656"/></filter><filter id="bR" color-interpolation-filters="sRGB" height="1.079744" width="1.079744" x="-.039872" y="-.039872"><feGaussianBlur stdDeviation=".066453656"/></filter><filter id="bS" color-interpolation-filters="sRGB" height="1.159489" width="1.159489" x="-.079744" y="-.079744"><feGaussianBlur stdDeviation=".066453656"/></filter><filter id="bT" color-interpolation-filters="sRGB" height="1.046909" width="1.046909" x="-.023454" y="-.023454"><feGaussianBlur stdDeviation=".066453656"/></filter><g><g mask="url(#k)" stroke-width=".094494"><path d="m30.833409 30.833409c-67.65774 67.657739-96.043753 148.969871-63.396059 181.617561 32.64769465 32.6477 113.959825 4.26168 181.61756-63.39606 67.65774-67.657735 96.04376-148.96986535 63.39606-181.61756-32.64769-32.647694-113.959822-4.261681-181.617561 63.396059z" fill="url(#n)" opacity=".3"/><path d="m-16.763244-16.763244c-67.65774 67.657739-96.043756 148.969874-63.396059 181.617564 32.647695 32.64769 113.959825 4.26168 181.617563-63.39606 67.65774-67.657738 96.04375-148.969868 63.39606-181.617563-32.64769-32.647697-113.959825-4.261681-181.617564 63.396059z" fill="url(#o)" opacity=".35"/></g><g opacity=".8" transform="matrix(.09660557 0 0 .09518071 -1.84517 -1.79892)"><circle cx="946.90002" cy="776.5" fill="url(#p)" opacity=".5" r="11.3"/><circle cx="828.79999" cy="869.79999" fill="url(#r)" opacity=".5" r="11.3"/><circle cx="339.10001" cy="1021.2" fill="url(#s)" opacity=".5" r="11.3"/><circle cx="1023.5" cy="1172.2" fill="url(#t)" opacity=".5" r="11.3"/><circle cx="419.60001" cy="439.70001" fill="url(#u)" opacity=".5" r="11.3"/><circle cx="874.79999" cy="428.39999" fill="url(#v)" opacity=".5" r="11.3"/><circle cx="714.70001" cy="467.39999" fill="url(#w)" opacity=".5" r="11.3"/><circle cx="1030.9" cy="354.20001" fill="url(#x)" opacity=".5" r="11.3"/><circle cx="1040.2" cy="684.29999" fill="url(#y)" opacity=".5" r="11.3"/><circle cx="625.59998" cy="345" fill="url(#z)" opacity=".5" r="11.3"/><circle cx="553.20001" cy="199.5" fill="url(#A)" opacity=".5" r="11.3"/><circle cx="751.5" cy="556.70001" fill="url(#B)" opacity=".5" r="5.6"/><circle cx="777.40002" cy="382.79999" fill="url(#C)" opacity=".5" r="5.6"/><circle cx="420.60001" cy="331.5" fill="url(#D)" opacity=".5" r="5.6"/><circle cx="206.5" cy="377.10001" fill="url(#E)" opacity=".5" r="5.6"/><circle cx="614.29999" cy="932" fill="url(#F)" opacity=".5" r="5.6"/><circle cx="726.20001" cy="900.29999" fill="url(#G)" opacity=".5" r="5.6"/><circle cx="308" cy="931" fill="url(#H)" opacity=".5" r="5.6"/><circle cx="818.09998" cy="990.70001" fill="url(#I)" opacity=".5" r="5.6"/><circle cx="695.79999" cy="1015.6" fill="url(#J)" opacity=".5" r="5.6"/><circle cx="549.29999" cy="1170.2" fill="url(#K)" opacity=".5" r="5.6"/><circle cx="644.20001" cy="801.40002" fill="url(#L)" opacity=".5" r="5.6"/><circle cx="993.20001" cy="1007.5" fill="url(#M)" opacity=".5" r="5.6"/><circle cx="943.29999" cy="1095.6" fill="url(#N)" opacity=".5" r="5.6"/><circle cx="911.40002" cy="659.29999" fill="url(#O)" opacity=".5" r="5.6"/><circle cx="529" cy="839.90002" fill="url(#P)" opacity=".5" r="11.3"/><circle cx="542.70001" cy="1069.7" fill="url(#Q)" opacity=".5" r="11.3"/><circle cx="863.59998" cy="1161" fill="url(#R)" opacity=".5" r="11.3"/><circle cx="1134.7" cy="889" fill="url(#S)" opacity=".5" r="11.3"/><circle cx="419.60001" cy="933" fill="url(#T)" opacity=".5" r="11.3"/><circle cx="208.5" cy="608.79999" fill="url(#U)" opacity=".5" r="11.3"/><circle cx="498.60001" cy="547" fill="url(#V)" opacity=".5" r="11.3"/><circle cx="480.89999" cy="686.29999" fill="url(#W)" opacity=".5" r="11.3"/><circle cx="538" cy="444.89999" fill="url(#X)" opacity=".5" r="11.3"/><circle cx="341.10001" cy="248" fill="url(#Y)" opacity=".5" r="11.3"/><circle cx="560.40002" cy="660.29999" fill="url(#Z)" opacity=".5" r="7.1"/><circle cx="584.09998" cy="788.59998" fill="url(#aa)" opacity=".5" r="7.1"/><circle cx="972" cy="267.20001" fill="url(#ab)" opacity=".5" r="7.1"/><circle cx="360.60001" cy="841.90002" fill="url(#ac)" opacity=".5" r="7.1"/><circle cx="384.5" cy="1069.7" fill="url(#ad)" opacity=".5" r="7.1"/><circle cx="415" cy="1149.7" fill="url(#ae)" opacity=".5" r="7.1"/><circle cx="226.89999" cy="764.59998" fill="url(#af)" opacity=".5" r="7.1"/><circle cx="704.79999" cy="240.89999" fill="url(#ag)" opacity=".5" r="7.1"/><circle cx="404.29999" cy="522.79999" fill="url(#ah)" opacity=".5" r="7.1"/><circle cx="631.40002" cy="709" fill="url(#ai)" opacity=".5" r="7.1"/><circle cx="1004.5" cy="623.59998" fill="url(#aj)" opacity=".5" r="11.3"/><circle cx="294.70001" cy="1083.7" fill="url(#ak)" opacity=".5" r="11.3"/><circle cx="210.5" cy="1163" fill="url(#al)" opacity=".5" r="11.3"/><circle cx="411.5" cy="167" fill="url(#am)" opacity=".5" r="11.3"/><circle cx="872.79999" cy="188.2" fill="url(#an)" opacity=".5" r="11.3"/><circle cx="197.3" cy="858.5" fill="url(#ao)" opacity=".5" r="11.3"/><circle cx="1028.9" cy="542.90002" fill="url(#ap)" opacity=".5" r="11.3"/><circle cx="1134.7" cy="701.90002" fill="url(#aq)" opacity=".5" r="11.3"/><circle cx="982" cy="437.29999" fill="url(#ar)" opacity=".5" r="11.3"/><ellipse cx="707" cy="728.20001" fill="url(#as)" rx="19.200001" ry="5.6"/><ellipse cx="707" cy="728.20001" fill="url(#at)" rx="5.6" ry="19.200001"/><ellipse cx="324" cy="638.5" fill="url(#au)" rx="29.700001" ry="8.6"/><ellipse cx="324" cy="638.5" fill="url(#av)" rx="8.6" ry="29.700001"/><ellipse cx="195.3" cy="989.70001" fill="url(#aw)" rx="29.700001" ry="8.6"/><ellipse cx="195.3" cy="989.70001" fill="url(#ax)" rx="8.6" ry="29.700001"/><ellipse cx="249.5" cy="300.29999" fill="url(#ay)" rx="29.700001" ry="8.6"/><ellipse cx="249.5" cy="300.29999" fill="url(#az)" rx="8.6" ry="29.700001"/><ellipse cx="844.40002" cy="773.20001" fill="url(#aA)" rx="29.700001" ry="8.6"/><ellipse cx="844.40002" cy="773.20001" fill="url(#aB)" rx="8.6" ry="29.700001"/><ellipse cx="839.20001" cy="270.60001" fill="url(#aC)" rx="29.700001" ry="8.6"/><ellipse cx="839.20001" cy="270.60001" fill="url(#aD)" rx="8.6" ry="29.700001"/><ellipse cx="847.79999" cy="562.29999" fill="url(#aE)" rx="29.700001" ry="8.6"/><ellipse cx="847.79999" cy="562.29999" fill="url(#aF)" rx="8.6" ry="29.700001"/><ellipse cx="1143.3" cy="506.20001" fill="url(#aG)" rx="29.700001" ry="8.6"/><ellipse cx="1143.3" cy="506.20001" fill="url(#aH)" rx="8.6" ry="29.700001"/><ellipse cx="1118.3" cy="1092.3" fill="url(#aI)" rx="29.700001" ry="8.6"/><ellipse cx="1118.3" cy="1092.3" fill="url(#aJ)" rx="8.6" ry="29.700001"/><ellipse cx="321.79999" cy="377.20001" fill="url(#aK)" rx="19.200001" ry="5.6"/><ellipse cx="321.79999" cy="377.20001" fill="url(#aL)" rx="5.6" ry="19.200001"/><ellipse cx="548.29999" cy="996.29999" fill="url(#aM)" rx="19.200001" ry="5.6"/><ellipse cx="548.29999" cy="996.29999" fill="url(#aN)" rx="5.6" ry="19.200001"/><ellipse cx="450.10001" cy="795.79999" fill="url(#aO)" rx="19.200001" ry="5.6"/><ellipse cx="450.10001" cy="795.79999" fill="url(#aP)" rx="5.6" ry="19.200001"/><ellipse cx="649.79999" cy="565.70001" fill="url(#aQ)" rx="19.200001" ry="5.6"/><ellipse cx="649.79999" cy="565.70001" fill="url(#aR)" rx="5.6" ry="19.200001"/><ellipse cx="353.5" cy="747.5" fill="url(#aS)" rx="19.200001" ry="5.6"/><ellipse cx="353.5" cy="747.5" fill="url(#aT)" rx="5.6" ry="19.200001"/><ellipse cx="712.5" cy="1141.6" fill="url(#aU)" rx="19.200001" ry="5.6"/><ellipse cx="712.5" cy="1141.6" fill="url(#aV)" rx="5.6" ry="19.200001"/><ellipse cx="979.59998" cy="889" fill="url(#aW)" rx="19.200001" ry="5.6"/><ellipse cx="979.59998" cy="889" fill="url(#aX)" rx="5.6" ry="19.200001"/><ellipse cx="542" cy="297" fill="url(#aY)" rx="19.200001" ry="5.6"/><ellipse cx="542" cy="297" fill="url(#aZ)" rx="5.6" ry="19.200001"/><ellipse cx="856.40002" cy="1023.2" fill="url(#a0)" rx="19.200001" ry="5.6"/><ellipse cx="856.40002" cy="1023.2" fill="url(#a1)" rx="5.6" ry="19.200001"/><circle cx="1023.5" cy="132.7" fill="url(#a2)" opacity=".5" r="11.3"/><circle cx="549.29999" cy="130.7" fill="url(#a3)" opacity=".5" r="5.6"/><circle cx="943.29999" cy="56.099998" fill="url(#a4)" opacity=".5" r="5.6"/><circle cx="863.59998" cy="121.5" fill="url(#a5)" opacity=".5" r="11.3"/><ellipse cx="712.5" cy="102" fill="url(#a6)" rx="19.200001" ry="5.6"/><ellipse cx="712.5" cy="102" fill="url(#a7)" rx="5.6" ry="19.200001"/><ellipse cx="1069.3" cy="771.59998" fill="url(#a8)" rx="19.200001" ry="5.6"/><ellipse cx="1069.3" cy="771.59998" fill="url(#a9)" rx="5.6" ry="19.200001"/><ellipse cx="1134.7" cy="308.89999" fill="url(#ba)" rx="19.200001" ry="5.6"/><ellipse cx="1134.7" cy="308.89999" fill="url(#bb)" rx="5.6" ry="19.200001"/><ellipse cx="1109.7" cy="197.5" fill="url(#bc)" rx="19.200001" ry="5.6"/><ellipse cx="1109.7" cy="197.5" fill="url(#bd)" rx="5.6" ry="19.200001"/><circle cx="39.599998" cy="774.90002" fill="url(#be)" opacity=".5" r="11.3"/><circle cx="98.5" cy="861.90002" fill="url(#bf)" opacity=".5" r="7.1"/><circle cx="88.5" cy="691.79999" fill="url(#bg)" opacity=".5" r="11.3"/><circle cx="47" cy="996.40002" fill="url(#bh)" opacity=".5" r="11.3"/><circle cx="127.2" cy="1073" fill="url(#bi)" opacity=".5" r="5.6"/><circle cx="306" cy="534.09998" fill="url(#bj)" opacity=".5" r="11.3"/><circle cx="419.60001" cy="1251" fill="url(#bk)" opacity=".5" r="11.3"/><circle cx="874.79999" cy="1239.7" fill="url(#bl)" opacity=".5" r="11.3"/><circle cx="714.70001" cy="1278.6" fill="url(#bm)" opacity=".5" r="11.3"/><circle cx="751.5" cy="1368" fill="url(#bn)" opacity=".5" r="5.6"/><circle cx="498.60001" cy="1358.3" fill="url(#bo)" opacity=".5" r="11.3"/><circle cx="538" cy="1256.1" fill="url(#bp)" opacity=".5" r="11.3"/><circle cx="404.29999" cy="1334.1" fill="url(#bq)" opacity=".5" r="7.1"/><circle cx="982" cy="1248.6" fill="url(#br)" opacity=".5" r="11.3"/><ellipse cx="847.79999" cy="1373.6" fill="url(#bs)" rx="29.700001" ry="8.6"/><ellipse cx="847.79999" cy="1373.6" fill="url(#bt)" rx="8.6" ry="29.700001"/><ellipse cx="321.79999" cy="1188.5" fill="url(#bu)" rx="19.200001" ry="5.6"/><ellipse cx="321.79999" cy="1188.5" fill="url(#bv)" rx="5.6" ry="19.200001"/><ellipse cx="649.79999" cy="1377" fill="url(#bw)" rx="19.200001" ry="5.6"/><ellipse cx="649.79999" cy="1377" fill="url(#bx)" rx="5.6" ry="19.200001"/><circle cx="1333.8" cy="932" fill="url(#by)" opacity=".5" r="5.6"/><circle cx="1363.7" cy="801.40002" fill="url(#bz)" opacity=".5" r="5.6"/><circle cx="1248.6" cy="839.90002" fill="url(#bA)" opacity=".5" r="11.3"/><circle cx="1262.2" cy="1069.7" fill="url(#bB)" opacity=".5" r="11.3"/><circle cx="1218.2" cy="547" fill="url(#bC)" opacity=".5" r="11.3"/><circle cx="1200.4" cy="686.29999" fill="url(#bD)" opacity=".5" r="11.3"/><circle cx="1257.5" cy="444.89999" fill="url(#bE)" opacity=".5" r="11.3"/><circle cx="1279.9" cy="660.29999" fill="url(#bF)" opacity=".5" r="7.1"/><circle cx="1303.6" cy="788.59998" fill="url(#bG)" opacity=".5" r="7.1"/><circle cx="1350.9" cy="709" fill="url(#bH)" opacity=".5" r="7.1"/><ellipse cx="1267.8" cy="996.29999" fill="url(#bI)" rx="19.200001" ry="5.6"/><ellipse cx="1267.8" cy="996.29999" fill="url(#bJ)" rx="5.6" ry="19.200001"/><ellipse cx="1369.3" cy="565.70001" fill="url(#bK)" rx="19.200001" ry="5.6"/><ellipse cx="1369.3" cy="565.70001" fill="url(#bL)" rx="5.6" ry="19.200001"/><ellipse cx="1261.5" cy="297" fill="url(#bM)" rx="19.200001" ry="5.6"/><ellipse cx="1261.5" cy="297" fill="url(#bN)" rx="5.6" ry="19.200001"/><g fill="#e2d9f2"><circle cx="946.90002" cy="776.5" filter="url(#bR)" r="2"/><circle cx="828.79999" cy="869.79999" filter="url(#bR)" r="2"/><circle cx="339.10001" cy="1021.2" filter="url(#bR)" r="2"/><circle cx="1023.5" cy="1172.2" filter="url(#bR)" r="2"/><circle cx="419.60001" cy="439.70001" filter="url(#bR)" r="2"/><circle cx="874.79999" cy="428.39999" filter="url(#bR)" r="2"/><circle cx="714.70001" cy="467.39999" filter="url(#bR)" r="2"/><circle cx="1030.9" cy="354.20001" filter="url(#bR)" r="2"/><circle cx="1040.2" cy="684.29999" filter="url(#bR)" r="2"/><circle cx="625.59998" cy="345" filter="url(#bR)" r="2"/><circle cx="553.20001" cy="199.5" filter="url(#bR)" r="2"/><circle cx="751.5" cy="556.70001" filter="url(#bS)" r="1"/><circle cx="777.40002" cy="382.79999" filter="url(#bS)" r="1"/><circle cx="420.60001" cy="331.5" filter="url(#bS)" r="1"/><circle cx="206.5" cy="377.10001" filter="url(#bS)" r="1"/><circle cx="614.29999" cy="932" filter="url(#bS)" r="1"/><circle cx="726.20001" cy="900.29999" filter="url(#bS)" r="1"/><circle cx="308" cy="931" filter="url(#bS)" r="1"/><circle cx="818.09998" cy="990.70001" filter="url(#bS)" r="1"/><circle cx="695.79999" cy="1015.6" filter="url(#bS)" r="1"/><circle cx="549.29999" cy="1170.2" filter="url(#bS)" r="1"/><circle cx="644.20001" cy="801.40002" filter="url(#bS)" r="1"/><circle cx="993.20001" cy="1007.5" filter="url(#bS)" r="1"/><circle cx="943.29999" cy="1095.6" filter="url(#bS)" r="1"/><circle cx="911.40002" cy="659.29999" filter="url(#bS)" r="1"/><circle cx="529" cy="839.90002" filter="url(#bR)" r="2"/><circle cx="542.70001" cy="1069.7" filter="url(#bR)" r="2"/><circle cx="863.59998" cy="1161" filter="url(#bR)" r="2"/><circle cx="1134.7" cy="889" filter="url(#bR)" r="2"/><circle cx="419.60001" cy="933" filter="url(#bR)" r="2"/><circle cx="208.5" cy="608.79999" filter="url(#bR)" r="2"/><circle cx="498.60001" cy="547" filter="url(#bR)" r="2"/><circle cx="480.89999" cy="686.29999" filter="url(#bR)" r="2"/><circle cx="538" cy="444.89999" filter="url(#bR)" r="2"/><circle cx="341.10001" cy="248" filter="url(#bR)" r="2"/><circle cx="560.40002" cy="660.29999" filter="url(#bQ)" r="1.3"/><circle cx="584.09998" cy="788.59998" filter="url(#bQ)" r="1.3"/><circle cx="972" cy="267.20001" filter="url(#bQ)" r="1.3"/><circle cx="360.60001" cy="841.90002" filter="url(#bQ)" r="1.3"/><circle cx="384.5" cy="1069.7" filter="url(#bQ)" r="1.3"/><circle cx="415" cy="1149.7" filter="url(#bQ)" r="1.3"/><circle cx="226.89999" cy="764.59998" filter="url(#bQ)" r="1.3"/><circle cx="704.79999" cy="240.89999" filter="url(#bQ)" r="1.3"/><circle cx="404.29999" cy="522.79999" filter="url(#bQ)" r="1.3"/><circle cx="631.40002" cy="709" filter="url(#bQ)" r="1.3"/><circle cx="1004.5" cy="623.59998" filter="url(#bR)" r="2"/><circle cx="294.70001" cy="1083.7" filter="url(#bR)" r="2"/><circle cx="210.5" cy="1163" filter="url(#bR)" r="2"/><circle cx="411.5" cy="167" filter="url(#bR)" r="2"/><circle cx="872.79999" cy="188.2" filter="url(#bR)" r="2"/><circle cx="197.3" cy="858.5" filter="url(#bR)" r="2"/><circle cx="1028.9" cy="542.90002" filter="url(#bR)" r="2"/><circle cx="1134.7" cy="701.90002" filter="url(#bR)" r="2"/><circle cx="982" cy="437.29999" filter="url(#bR)" r="2"/><circle cx="707" cy="728.20001" filter="url(#bP)" r="2.2"/><circle cx="324" cy="638.5" filter="url(#bT)" r="3.4"/><circle cx="195.3" cy="989.70001" filter="url(#bT)" r="3.4"/><circle cx="249.5" cy="300.29999" filter="url(#bT)" r="3.4"/><circle cx="844.40002" cy="773.20001" filter="url(#bT)" r="3.4"/><circle cx="839.20001" cy="270.60001" filter="url(#bT)" r="3.4"/><circle cx="847.79999" cy="562.29999" filter="url(#bT)" r="3.4"/><circle cx="1143.3" cy="506.20001" filter="url(#bT)" r="3.4"/><circle cx="1118.3" cy="1092.3" filter="url(#bT)" r="3.4"/><circle cx="321.79999" cy="377.20001" filter="url(#bP)" r="2.2"/><circle cx="548.29999" cy="996.29999" filter="url(#bP)" r="2.2"/><circle cx="450.10001" cy="795.79999" filter="url(#bP)" r="2.2"/><circle cx="649.79999" cy="565.70001" filter="url(#bP)" r="2.2"/><circle cx="353.5" cy="747.5" filter="url(#bP)" r="2.2"/><circle cx="712.5" cy="1141.6" filter="url(#bP)" r="2.2"/><circle cx="979.59998" cy="889" filter="url(#bP)" r="2.2"/><circle cx="542" cy="297" filter="url(#bP)" r="2.2"/><circle cx="856.40002" cy="1023.2" filter="url(#bP)" r="2.2"/><circle cx="1023.5" cy="132.7" filter="url(#bR)" r="2"/><circle cx="549.29999" cy="130.7" filter="url(#bS)" r="1"/><circle cx="943.29999" cy="56.099998" filter="url(#bS)" r="1"/><circle cx="863.59998" cy="121.5" filter="url(#bR)" r="2"/><circle cx="712.5" cy="102" filter="url(#bP)" r="2.2"/><circle cx="1069.3" cy="771.59998" filter="url(#bP)" r="2.2"/><circle cx="1134.7" cy="308.89999" filter="url(#bP)" r="2.2"/><circle cx="1109.7" cy="197.5" filter="url(#bP)" r="2.2"/><circle cx="39.599998" cy="774.90002" filter="url(#bR)" r="2"/><circle cx="98.5" cy="861.90002" filter="url(#bQ)" r="1.3"/><circle cx="88.5" cy="691.79999" filter="url(#bR)" r="2"/><circle cx="47" cy="996.40002" filter="url(#bR)" r="2"/><circle cx="127.2" cy="1073" filter="url(#bS)" r="1"/><circle cx="306" cy="534.09998" filter="url(#bR)" r="2"/><circle cx="419.60001" cy="1251" filter="url(#bR)" r="2"/><circle cx="874.79999" cy="1239.7" filter="url(#bR)" r="2"/><circle cx="714.70001" cy="1278.6" filter="url(#bR)" r="2"/><circle cx="751.5" cy="1368" filter="url(#bS)" r="1"/><circle cx="498.60001" cy="1358.3" filter="url(#bR)" r="2"/><circle cx="538" cy="1256.1" filter="url(#bR)" r="2"/><circle cx="404.29999" cy="1334.1" filter="url(#bQ)" r="1.3"/><circle cx="982" cy="1248.6" filter="url(#bR)" r="2"/><circle cx="847.79999" cy="1373.6" filter="url(#bT)" r="3.4"/><circle cx="321.79999" cy="1188.5" filter="url(#bP)" r="2.2"/><circle cx="649.79999" cy="1377" filter="url(#bP)" r="2.2"/><circle cx="1333.8" cy="932" filter="url(#bS)" r="1"/><circle cx="1363.7" cy="801.40002" filter="url(#bS)" r="1"/><circle cx="1248.6" cy="839.90002" filter="url(#bR)" r="2"/><circle cx="1262.2" cy="1069.7" filter="url(#bR)" r="2"/><circle cx="1218.2" cy="547" filter="url(#bR)" r="2"/><circle cx="1200.4" cy="686.29999" filter="url(#bR)" r="2"/><circle cx="1257.5" cy="444.89999" filter="url(#bR)" r="2"/><circle cx="1279.9" cy="660.29999" filter="url(#bQ)" r="1.3"/><circle cx="1303.6" cy="788.59998" filter="url(#bQ)" r="1.3"/><circle cx="1350.9" cy="709" filter="url(#bQ)" r="1.3"/><circle cx="1267.8" cy="996.29999" filter="url(#bP)" r="2.2"/><circle cx="1369.3" cy="565.70001" filter="url(#bP)" r="2.2"/><circle cx="1261.5" cy="297" filter="url(#bP)" r="2.2"/></g></g><g stroke-width="1.15172" transform="matrix(.86826542 0 0 .86826542 158.07346 18.698137)"><path d="m85.490992 13.917985c-5.308795-1.897563-6.976095 6.204606-8.197555 6.999022-3.10429-4.640718-11.376276-5.364336-12.294217 1.393798-2.008518 6.914103 1.904704 13.322331 3.949517 19.621486-2.410821 1.109168-5.574237 5.087146-3.511818 8.799517-13.979192 1.581168-24.390919 12.937466-30.86995 24.610901-5.617052 10.00075-9.849347 22.430779-4.786059 33.550051 2.788676 7.61084 10.33052 12.37238 18.203267 13.02262 9.595035.79209 19.342979 1.03916 28.909769-.20731 9.05299-1.08095 17.598698-6.73668 20.855371-15.46615 3.780343-9.316128 1.149914-19.620403-1.239056-28.940977-3.150627-9.969148-8.826084-20.093036-18.388845-25.073669 3.414268-1.683871 3.207297-5.204337 3.019882-7.392854 5.055725-5.904633 14.161325-5.512282 19.090452-11.574172 2.78919-4.893545-5.584123-8.127522-6.081064-9.158572 5.650822-4.100398-1.264774-9.645322-5.938916-9.895129-.896435-.17338-1.80773-.273717-2.720778-.288562z" fill="#5c3d8f" filter="url(#bO)" opacity=".5" transform="matrix(1.1517216 0 0 1.1517216 -179.66711 -23.924022)"/><g stroke-width="1.15172"><g transform="matrix(.99178908 -.12788442 .12788442 .99178908 -8.714402 -16.744873)"><g transform="matrix(.99698402 -.07760707 .07760707 .99698402 -2.67274 -6.868834)"><path d="m-87.967289 42.350961c2.177681-1.715147 9.065249-4.590507 10.311039-5.17713 3.885975-1.829841 10.565767-1.214356 17.648438-4.644531 2.865257-1.265296 5.640229-3.236851 6.607421-5.875 1.7319-4.990073-.509838-9.16106-2.714843-12.048828-3.767311-4.424903-12.070316-6.0849164-16.570313-4.152347-12.229559 5.700381-18.037614 19.070326-22.515625 28.421875z" fill="#2f2145"/><path d="m-90.9052 40.932179c.10429.13716 7.05224-6.104647 11.21954-8.066961 5.488-2.584208 12.14181-1.977975 17.60124-4.622006 1.57135-.761014 3.61235-1.500501 4.18481-3.149918.85858-2.473802-.41098-5.51557-2.00013-7.596788-.99674-1.305381-2.68866-2.008076-4.26616-2.465272-2.0852-.604341-4.54002-1.178974-6.50777-.261777-9.99208 4.657459-15.74656 16.79664-20.23153 26.162722z" fill="url(#h)"/><path d="m-90.9052 40.932179c.10429.13716 7.05224-6.104647 11.21954-8.066961 5.488-2.584208 12.14181-1.977975 17.60124-4.622006 1.57135-.761014 3.61235-1.500501 4.18481-3.149918.85858-2.473802-.41098-5.51557-2.00013-7.596788-.99674-1.305381-2.68866-2.008076-4.26616-2.465272-2.0852-.604341-4.54002-1.178974-6.50777-.261777-9.99208 4.657459-15.74656 16.79664-20.23153 26.162722z" fill="url(#c)" opacity=".33"/><path d="m-85.580247 27.783508c3.825399-6.934671 10.30824-13.731125 8.951381-21.1096798-.906207-4.349586-3.992401-6.53601536-6.023438-8.0214843-2.845741-2.0707302-4.735688-3.181075-8.146524-2.6367188-4.693961.77933-7.585997 4.03125944-9.220702 7.4765625-3.40002 7.1658884-2.47478 14.2393474-.357 21.8565274-.54746 4.921598.34952 7.92309.586017 12.949149l9.818641 3.077372c1.533683-5.015649 2.611824-8.558727 4.391625-13.591728z" fill="#2f2145"/><path d="m-95.716 5.533468c-2.83084 5.966289-2.43173 12.724448-.34433 19.808428.0371-.0019.70911 14.257198.70911 14.257198s4.78252-13.497054 5.26116-13.472814c1.12347-4.145994 4.71334-5.972171 6.28327-9.397836 1.30877-2.855792 3.1555-6.007129 2.51477-9.082496-.45055-2.162538-2.38875-3.845011-4.17173-5.149055-1.3161-.962572-2.94659-2.050016-4.55511-1.782956-2.45383.407405-4.63086 2.572242-5.69714 4.819531z" fill="url(#i)"/><path d="m-95.716 5.533468c-2.83084 5.966289-2.43173 12.724448-.34433 19.808428.0371-.0019.70911 14.257198.70911 14.257198s4.78252-13.497054 5.26116-13.472814c1.12347-4.145994 4.71334-5.972171 6.28327-9.397836 1.30877-2.855792 3.1555-6.007129 2.51477-9.082496-.45055-2.162538-2.38875-3.845011-4.17173-5.149055-1.3161-.962572-2.94659-2.050016-4.55511-1.782956-2.45383.407405-4.63086 2.572242-5.69714 4.819531z" fill="url(#b)" opacity=".33"/><path d="m-82.648441.58007812c-4.064241 7.00507588-9.343357 14.81622188-11.950192 24.02929688l-7.067387 18.068359 12.767583 3.828125 9.273437-13.896484c6.083122-5.575781 13.010666-10.087623 19.953125-14.888672 1.748389-1.209214 3.249591-2.585991 4.097656-4.615234.848066-2.029243.588194-4.2199129.195313-5.5820315-1.074782-3.7262613-3.62338-6.1185206-6.900391-8.21289062-3.237028-2.06832548-7.001933-3.41080548-11.008791-3.53222648-3.522698.012744-7.52756 1.6422432-9.360353 4.80175772z" fill="#2f2145"/><path d="m-78.52861 2.969814c-4.16957 7.186613-9.15162 14.679216-11.56145 23.156466l-5.26116 13.472815 4.44602 1.333084 7.70053-11.540967c6.55653-6.082189 13.85053-10.765631 20.82402-15.588139 2.70415-1.870234 2.92251-3.23469 2.42483-4.960144s-2.34982-3.896916-4.88752-5.518785c-2.53793-1.621631-5.68404-2.697956-8.50784-2.784634-2.56711.01024-4.1866.722233-5.17743 2.430304z" fill="url(#g)"/><path d="m-78.52861 2.969814c-4.16957 7.186613-9.15162 14.679216-11.56145 23.156466l-5.26116 13.472815 4.44602 1.333084 7.70053-11.540967c6.55653-6.082189 13.85053-10.765631 20.82402-15.588139 2.70415-1.870234 2.92251-3.23469 2.42483-4.960144s-2.34982-3.896916-4.88752-5.518785c-2.53793-1.621631-5.68404-2.697956-8.50784-2.784634-2.56711.01024-4.1866.722233-5.17743 2.430304z" fill="url(#a)" opacity=".33"/></g><g><g transform="matrix(-.99950539 .03144792 -.03144792 -.99950539 -185.3756 74.555503)"><path d="m-99.257101 29.267268-2.518089-2.487531c-3.31715-1.263146-8.99654-2.735688-13.58577-2.421605-3.76388.257597-7.33081 1.930244-10.76795 3.485618-1.44742.654984-4.0957 2.4375-4.0957 2.4375 2.38503 3.999577 4.77072 7.998768 7.15625 11.998047l3.95508-2.591797c4.11172-2.447243 8.53639-1.836762 12.80948-.0278l5.23354-.66967z" fill="#0f1624" stroke-width="1.15172"/><path d="m-100.90808 32.808068c.0833-.191929-2.42489-1.79699-3.81857-2.324338-2.80793-1.062479-5.67452-1.62568-8.86646-1.583053-3.19195.04263-6.71192 1.018935-10.09924 3.034901l2.27718 3.817144c5.15708-3.069432 10.15032-3.365421 15.53338-1.086565l4.81153 4.323874z" fill="#1f2b42" stroke-width="10.9701"/><path d="m-96.256759 30.548757c.686308-5.027683-.07252-7.418118-3.182694-11.070241-4.941287-4.837553-9.486377-7.908293-15.013677-11.5156254-2.61564 3.8554244-5.23279 7.7098204-7.8496 11.5644534 7.57359 4.036846 13.17828 11.199684 18.53148 15.285717z" fill="#0f1624" stroke-width="1.15172"/><path d="m-102.93833 22.708472c-3.05954-3.107427-6.72489-5.747623-10.24676-8.133636l-2.50031 3.683794c3.52901 2.390775 5.52586 4.454305 8.15401 6.836067 3.25673 2.450644 4.79373 5.247584 6.20717 9.139678.34858-1.230345.58671-2.453445 2.71357-3.800413-.79025-2.966143-2.36926-5.720685-4.32768-7.72549z" fill="#1f2b42" stroke-width="10.9701"/></g><path d="m-84.715881 45.735032c5.276097-2.118491 8.074675-6.647268 6.262736-11.336561-1.841693-3.836548-6.072391-6.545451-9.564453-7.896484-4.143273-1.504172-9.413913-1.956452-12.761702-.308628-4.53792 3.137459-5.86517 8.345806-5.5245 13.466342z" fill="#0f1624" stroke-width="1.15172"/><path d="m-88.00112 42.797611s2.73606-1.78817 3.938-2.885126c1.257751-.985608 1.828032-2.181491 1.22373-3.656409-2.511336-4.511022-11.297931-8.008498-15.77126-5.822114-2.8618 1.10993-3.88276 8.202965-2.45961 8.556069 0 0 4.94979.06586 7.28746.774945 2.08256.631699 5.78168 3.032635 5.78168 3.032635z" fill="#1f2b42" stroke-width="10.9701"/></g></g><g><path d="m-101.32422 34.234375c-6.19385.318597-12.56407 2.111766-17.78906 5.453125-8.73134 5.583652-15.77899 14.063748-20.74219 23.162109-4.81023 8.817944-9.00633 19.061392-7.99219 29.054688.74121 7.303844 4.13485 15.198013 9.98829 19.628903 7.68933 5.8206 18.73563 5.51735 28.3789 5.62891 10.669682.12343 22.430681.0647 31.535158-5.5 5.530235-3.3801 9.707663-9.35875 11.708984-15.523438 2.434459-7.498882 1.091151-15.913517-.435547-23.648438-1.563808-7.922935-4.374095-15.815314-8.791016-22.576172-3.401352-5.206356-7.713104-10.25845-13.201171-13.183593-3.795783-2.023155-8.364544-2.71705-12.660158-2.496094z" fill="#2f2145"/><path d="m-116.5486 43.70062c-8.06991 5.159068-14.52483 13.041595-19.13192 21.438871-4.38475 7.992033-8.27916 17.244103-7.42617 26.319955.56691 6.032022 3.26566 12.626364 8.10849 16.266914 6.92243 5.20387 16.89712 4.60075 25.55709 4.67308 9.805215.0819 20.643445.2882 29.02125-4.80703 4.586147-2.78921 8.018015-7.780386 9.64406-12.895894 2.148322-6.758583.831902-14.315145-.56555-21.267904-1.47428-7.335-4.049977-14.646714-8.11887-20.925235-2.950393-4.552616-6.657859-9.018825-11.44498-11.571198-3.044004-1.622986-6.720319-2.126-10.16506-1.942148-5.38542.28743-10.93444 1.805693-15.47834 4.710589z" fill="url(#f)"/><path d="m-116.5486 43.70062c-8.06991 5.159068-14.52483 13.041595-19.13192 21.438871-4.38475 7.992033-8.27916 17.244103-7.42617 26.319955.56691 6.032022 3.26566 12.626364 8.10849 16.266914 6.92243 5.20387 16.89712 4.60075 25.55709 4.67308 9.805215.0819 20.643445.2882 29.02125-4.80703 4.586147-2.78921 8.018015-7.780386 9.64406-12.895894 2.148322-6.758583.831902-14.315145-.56555-21.267904-1.47428-7.335-4.049977-14.646714-8.11887-20.925235-2.950393-4.552616-6.657859-9.018825-11.44498-11.571198-3.044004-1.622986-6.720319-2.126-10.16506-1.942148-5.38542.28743-10.93444 1.805693-15.47834 4.710589z" fill="url(#d)" opacity=".33"/></g></g></g></g></svg>