<svg height="500" viewBox="0 0 132.29167 132.29167" width="500" xmlns="http://www.w3.org/2000/svg" xmlns:xlink="http://www.w3.org/1999/xlink"><linearGradient id="a" gradientUnits="userSpaceOnUse" x1="-437.62766" x2="-437.62766" xlink:href="#b" y1="41.709736" y2="89.678802"/><linearGradient id="b"><stop offset="0" stop-color="#808080"/><stop offset="1" stop-color="#666"/></linearGradient><linearGradient id="c" gradientUnits="userSpaceOnUse" x1="-437.6279" x2="-437.6279" xlink:href="#b" y1=".324696" y2="36.544106"/><linearGradient id="d" gradientTransform="matrix(.70852579 0 0 .84249585 115.34622 -236.16161)" gradientUnits="userSpaceOnUse" spreadMethod="reflect" x1="-75.162231" x2="-56.490837" y1="363.89615" y2="379.59848"><stop offset="0" stop-color="#5e5e5e"/><stop offset=".51123601" stop-color="#c7c7c7"/><stop offset="1" stop-color="#6b6b6b"/></linearGradient><linearGradient id="e" gradientTransform="matrix(.34440893 0 0 1.0675561 36.568764 -4.095293)" gradientUnits="userSpaceOnUse" x1="66.048439" x2="66.048439" y1="77.644974" y2="81.380188"><stop offset="0" stop-color="#666" stop-opacity="0"/><stop offset="1" stop-color="#666"/></linearGradient><linearGradient id="f" gradientTransform="matrix(.34440893 0 0 1.0675561 36.568764 -4.095293)" gradientUnits="userSpaceOnUse" x1="66.048439" x2="66.048439" y1="77.644974" y2="81.380188"><stop offset="0" stop-color="#404040" stop-opacity="0"/><stop offset="1" stop-color="#404040"/></linearGradient><filter id="g" color-interpolation-filters="sRGB" height="1.614207" width="1.096278" x="-.048139" y="-.307103"><feGaussianBlur stdDeviation="2.0984039"/></filter><linearGradient id="h" gradientUnits="userSpaceOnUse" x1="216.39609" x2="214.64194" xlink:href="#b" y1="126.3782" y2="121.28157"/><filter id="i" color-interpolation-filters="sRGB" height="1.012569" width="1.01458" x="-.00729" y="-.006284"><feGaussianBlur stdDeviation=".12470675"/></filter><mask id="j" maskUnits="userSpaceOnUse"><path d="m-13.229159-13.22917h158.749999v158.75002h-158.749999z" fill="url(#k)" filter="url(#l)" stroke-width="11.83"/></mask><radialGradient id="k" cx="66.145844" cy="66.145836" gradientTransform="matrix(-1.0000001 .00000145 0 -1 132.29169 132.29157)" gradientUnits="userSpaceOnUse" r="66.145836"><stop offset="0" stop-color="#fff"/><stop offset=".25342461" stop-color="#fff"/><stop offset=".75273961" stop-color="#808080"/><stop offset=".87499994" stop-color="#404040"/><stop offset="1"/></radialGradient><filter id="l" color-interpolation-filters="sRGB" height="1.0135" width="1.0135" x="-.00675" y="-.00675"><feGaussianBlur stdDeviation=".44648439"/></filter><radialGradient id="m" cx="703.05621" cy="1070.2185" gradientTransform="matrix(.12107523 -.12107523 .05841622 .05841622 -57.692804 112.54712)" gradientUnits="userSpaceOnUse" r="1011.8609" spreadMethod="pad"><stop offset="0" stop-color="#fff"/><stop offset=".08962709" stop-color="#fff" stop-opacity=".9104"/><stop offset="1" stop-color="#fff" stop-opacity="0"/></radialGradient><radialGradient id="n" cx="703.05621" cy="255.40021" gradientTransform="matrix(.12107523 -.12107523 .05841622 .05841622 -57.692804 112.54712)" gradientUnits="userSpaceOnUse" r="1011.8609"><stop offset="0" stop-color="#fff8b3"/><stop offset=".08962709" stop-color="#fff9b3" stop-opacity=".9104"/><stop offset="1" stop-color="#fff9b3" stop-opacity="0"/></radialGradient><path d="m78.280903 96.82998c-4.481226.0532-9.164762.253869-13.939836.289131-19.344785.374483-39.898972.187876-60.4952584-.24234-6.2234249-.382726-.7663408 1.024228-1.2070858 1.478449 2.048998 1.73921 5.4523878 3.49645 6.8767996 5.22636.9976016 1.48409-.4172744 3.04492 5.9880746 4.52233 3.525072.44734 9.263147.69072 8.051722 1.53799.08478.83217 2.195013 1.71031 2.303003 2.54207 3.252635.42357 8.243162.29847 12.231732.50493 15.50194.47434 31.092917.7142 45.34873.33273 7.471765-.15814 14.595392-.44758 21.965286-.63775.51006-.52263-2.48679-1.25842-3.32998-1.87323-.76767-.62851-4.645999-1.27196-3.75466-1.87409 5.76553-.11499 5.08189-1.16197 3.62339-1.94734-3.182382-1.61541-10.244923-3.13433-12.965009-4.76102-3.630927-1.69867-7.464247-3.395798-10.696908-5.09822z" filter="url(#g)" opacity=".5" transform="matrix(1 0 0 .7600425 4.1916 26.949353)"/><g stroke-width="1.30905"><g mask="url(#j)"><path d="m30.833409 30.833409c-67.65774 67.657739-96.043753 148.969871-63.396059 181.617561 32.64769465 32.6477 113.959825 4.26168 181.61756-63.39606 67.65774-67.657735 96.04376-148.96986535 63.39606-181.61756-32.64769-32.647694-113.959822-4.261681-181.617561 63.396059z" fill="url(#m)" opacity=".3"/><path d="m-16.763244-16.763244c-67.65774 67.657739-96.043756 148.969874-63.396059 181.617564 32.647695 32.64769 113.959825 4.26168 181.617563-63.39606 67.65774-67.657738 96.04375-148.969868 63.39606-181.617563-32.64769-32.647697-113.959825-4.261681-181.617564 63.396059z" fill="url(#n)" opacity=".35"/></g><g transform="matrix(.76391586 0 0 .76391586 404.63809 29.346849)"><path d="m-392.54218-18.949863c-11.24071 1.764938-22.48932 2.758523-33.74419 3.103686l-22.66218-.148311c-11.51406-.475976-23.04251-1.534564-34.57774-3.04891l-5.18986-.679545.51005 48.144316.16381 2.992065c1.32061 24.287044.9587 48.550728-1.32395 72.806922l-.40824 4.31808 4.18527 1.14257c31.9341 8.71699 64.00333 8.42436 95.85979.0119l4.13825-1.09193-.31057-4.27157v-.002c-1.80128-24.670426-2.42118-49.28703-1.19797-73.910106l-.0559-2.374789-.17758-47.810416z" fill="#404040"/><path d="m-484.21884 104.30827c31.06261 8.47911 62.12099 8.20262 93.18308 0-1.81319-24.833261-2.44026-49.663871-1.2237-74.162043l.5285-44.395728c-11.48239 1.80287-22.9616 2.81667-34.4289 3.16672l-22.93607-.14883c-11.70623-.48207-23.40505-1.55826-35.09037-3.09232l1.31943 45.291066c1.32111 24.294534.95599 48.816114-1.35197 73.341135z" fill="url(#a)"/></g><g transform="matrix(.76391586 0 0 .76391586 404.63809 29.346849)"><path d="m-446.55273 90.91966c5.92152.58167 11.93609.617105 17.85001-.0373 7.64066-.845482 15.18246-2.684973 22.51445-4.995072 6.90945-2.176969 13.49246-5.298548 20.08329-8.305318 1.63192-.744491 4.8125-2.407633 4.8125-2.407633l-6.04071-94.942236-5.20898.818038c-11.24072 1.764938-22.48932 2.758523-33.74419 3.103686l-22.66219-.148311c-11.51406-.475976-23.04251-1.534564-34.57774-3.04891l-5.18986-.679545-.29456 2.531112-4.9258 92.205923s2.78406 1.831112 4.26151 2.594659c6.51999 3.369537 13.21234 6.531153 20.2183 8.717592 7.43311 2.319743 15.1546 3.832097 22.90397 4.593317z" fill="#404040"/><path d="m-406.18827 80.240872c6.65296-2.239247 12.34156-4.917334 19.303-8.418949l-4.84569-86.071424c-11.48239 1.802871-22.9616 2.816671-34.4289 3.166721l-22.93607-.14883c-11.70623-.48207-23.40505-1.558261-35.09037-3.092321l-4.23333 86.278654c6.44353 3.983555 12.30316 6.963616 18.96293 9.202175 7.35053 2.470747 15.09805 3.785862 22.81523 4.547453 5.95068.587258 12.00148.710081 17.93875 0 7.66798-.917069 15.19529-3 22.51445-5.463479z" fill="url(#c)"/><g opacity=".95" transform="matrix(1.3090447 0 0 1.3090447 -735.16062 -145.22662)"><g opacity=".75" stroke-width=".238125"><path d="m246.48082 113.80192c-.75132-.004-1.60557.82688-1.60921 1.5782-.005 1.1326 1.27036 2.39746 2.40296 2.40295.75132.004 1.60556-.82687 1.6092-1.57819.005-1.1326-1.27035-2.39747-2.40295-2.40296zm-15.52309.6041c-.18167-.00089-.36154.00899-.53795.02946-1.30413.17177-2.28953.84307-1.8526 1.88877.87385 2.0914 1.99259 2.32444 3.48454 3.04271-1.19356 2.2358-2.47255 5.44359-4.63589 6.31744-6.89496 2.78143-10.5179 6.21287-11.96723 10.51822-1.39604 4.15616-.74637 9.29292 1.41697 15.49518.20843.0165.58336.77617.79375.79375 6.43764.538 13.55203.79327 16.8646.13281-.13854-.4689-1.28911-1.42765-1.5875-1.5875-3.03718-1.04437-4.81694-1.16125-7.61969-1.27848.25385-2.45134.19816-5.57469-.70331-7.55561-1.2073-2.2179-2.60322-4.28675-5.10925-4.25245 0 0 3.11638-.06375 4.28863.57568 1.16159.65006 1.99245 1.68371 2.54661 2.8453.96977 2.01414 1.18311 4.43297 1.05523 6.58564l.79375.79375c.8177.0645 1.38728-.5953 2.06241-.4842 1.92617-3.07987 4.57735-5.8391 5.00331-8.87233l-.79375-.79375c-1.47064-.42627-3.45311-1.14037-3.65559-2.60036-.28773-2.08873.3836-4.79541 2.05672-5.91437-.10657 2.9626-.45808 4.67822-.24494 5.29632.61809 1.16159 3.22894 1.62002 4.67826 1.99833 1.44932.37832 3.78838 1.40625 4.09743 3.38842 1.93954-3.14376-2.32821-5.58926-4.6514-6.60166-.0528-2.21637.45661-4.58356 1.42782-6.27662.85255-1.44933 2.86701-4.6793 2.86701-4.6793s-2.06762.0545-2.88819.2036c.60744-2.12071 2.47229-2.52929 4.11344-1.71617.62876-.88451 1.42806-2.00647 2.65359-3.19257-1.11422-.82382-.34596-2.03164-1.13534-2.82102l-.79375-.79375c-2.9839-.36233-6.11699-.47434-8.37623 1.04852-1.01162-1.00126-2.37973-1.52751-3.65146-1.53376zm5.80947 2.67064c.05814.11513.13144.22377.21601.32711.01607-.02111.0322-.0419.04857-.06253.05984.11848.13391.23095.22169.33693.00016.00019.00036.00033.00052.00052.58043.4943 1.50433.80405 2.62516.87695-.08853.07182-.18375.14116-.28215.20825.17621.02527.35881.04411.54674.05633-.85254.69162-2.2062 1.21721-3.22926.55862-.13646-.08804-.23692-.18807-.30748-.29662-.71644-.50695-.34096-1.37389.1602-2.00556zm-22.69371 32.2125c-1.5559.34102-4.13175.74622-5.28908 1.70532-.90583.78861-1.60134 2.10987-1.72496 3.34605-.12468 1.23619.2121 2.30178 1.36943 3.06907 4.64317 3.07981 9.4385 2.72828 13.74386 1.50275 4.30536-1.23619 8.03528-3.4742 12.72429-2.42983 3.86577 2.32037-.76522 2.86504-2.32337 4.67827l.79375.79375c2.01111.076 4.70388-1.63122 4.9506-3.87315.21416-2.61976-3.03193-3.53636-4.76354-3.55947-1.67311-.0106-3.62338.18093-5.70146.69246-4.16681 1.02305-8.90926 2.93076-13.57695 1.98231-1.81165-.36233-2.9199-.72481-3.59874-1.58802-1.52377-2.51006 2.31231-3.45485 4.09949-3.8256-.16646-.4994.49774-1.29285.09043-1.70016z"/><path d="m247.27457 114.59567c-.75132-.001-1.608.82687-1.60921 1.5782-.002 1.12549 1.27747 2.37066 2.40296 2.37247.75133.001 1.60799-.82739 1.6092-1.57872.002-1.12549-1.27746-2.37014-2.40295-2.37195zm-3.4954 1.08934c.0477.0477-4.84822.39323-7.01197 1.39165.06264.12403.14294.24056.23616.35088.5813.48694 1.49995.79124 2.61121.86351-.08807.07145-.18173.14149-.27957.20826.17546.0251.35709.04416.54415.05633-.85254.69162-2.2062 1.21721-3.22926.55862-.13221-.0853-.2285-.18267-.29869-.28732-.50947-.35183-.48032-.88159-.24598-1.38545-1.14928-1.08347-2.7231-1.57803-4.09794-1.41851-1.30413.17177-2.29004.84307-1.85311 1.88877.87384 2.0914 1.9931 2.32444 3.48505 3.04271-1.19356 2.2358-2.47255 5.44359-4.63589 6.31744-6.89496 2.78143-10.5179 6.21287-11.96723 10.51822-1.34531 4.00512-1.35484 8.79909.62322 14.70143.0746.22258.71513.56836.79375.79375 6.58591.52219 13.56624.98021 16.98708.29817-.13854-.4689-.61784-.79926-.91623-.95911-3.03718-1.04437-4.81694-1.16125-7.61969-1.27848.25385-2.45134.19816-5.57469-.70331-7.55561-1.2073-2.2179-2.60322-4.28675-5.10925-4.25245 0 0 3.11602-.06388 4.28294.58084 1.16692.64473 1.99814 1.67855 2.5523 2.84014.85326 1.77217.29663 3.85004.26148 5.79189l.79375.79375c1.06569.0639 2.01428.17049 2.85616.30903 2.04611-3.27165 3.94314-6.43654 4.20956-9.66556l-.79375-.79375c-1.26465-.44783-2.70016-.64079-2.86184-1.80661-.28773-2.08873.3836-4.79541 2.05672-5.91437-.10657 2.9626-.45808 4.67822-.24494 5.29632.61809 1.16159 3.22894 1.62002 4.67826 1.99833 1.44932.37832 2.20088-.18125 2.50993 1.80092.96977-1.57189.87956-2.01979.46354-2.90938-.58003-1.24027-2.36585-1.59858-3.52744-2.10478-.0528-2.21637.45661-4.58356 1.42782-6.27662.85255-1.44933 2.8665-4.60902 2.8665-4.60902l-.79375-.78859-2.09393.92191c.60744-2.12071 2.47229-2.52929 4.11344-1.71617.62876-.88451 1.42806-2.00647 2.65359-3.19257-.28281-.2091-.56554-.5687-.79375-.79375-.86395-.85193-1.28708-1.68129-1.13534-2.82102zm-7.01197 1.39165c-.02186.01009-.0458.02436-.06976.03876.00716.00905.01434.01791.0217.02687.01635-.0215.0314-.04463.04806-.06563zm-21.89996 33.00625c-1.5169.31225-3.53999 1.70737-4.49533 2.49907-.90583.78861-1.60134 2.10987-1.72496 3.34605-.12468 1.23619.2121 2.30178 1.36943 3.06907 4.64317 3.07981 9.4385 2.72828 13.74386 1.50275 4.30536-1.23619 8.03528-3.4742 12.72429-2.42983 3.51681 2.11091-1.28073 2.42074-3.11712 3.88452l.79375.79375c2.2898.83192 5.43977-.31166 5.74435-3.0794.21416-2.61976-3.03193-3.53636-4.76354-3.55947-1.67311-.0106-3.62338.18093-5.70146.69246-4.16681 1.02305-8.90926 2.93076-13.57695 1.98231-1.81165-.36233-2.9199-.72481-3.59874-1.58802-1.52377-2.51006 2.31231-3.45485 4.09949-3.8256-.25576-.76729-.49019-1.74793-.70332-2.49391z" fill="#fff"/></g><path d="m247.27479 114.5958c-.90583 0-1.60919.70122-1.60919 1.57827 0 .87706.70336 1.57828 1.60919 1.57828.90582 0 1.60918-.70122 1.60918-1.57828 0-.87705-.70336-1.57827-1.60918-1.57827zm-22.68838 24.72383c1.16159.65007 1.99282 1.68378 2.54698 2.84537.96977 2.01414 1.1829 4.43324 1.05502 6.58592 1.06569.0639 2.01415.17051 2.85603.30905 2.04611-3.27165 3.94303-6.43672 4.20945-9.66574-1.47064-.42627-3.45281-1.14028-3.65529-2.60027-.28773-2.08873.38364-4.79557 2.05677-5.91453-.10657 2.9626-.45825 4.67834-.24511 5.29644.61809 1.16159 3.22902 1.61984 4.67835 1.99815 1.44932.37832 2.99456.61277 3.30361 2.59494 1.93954-3.14377-1.53458-4.79557-3.85777-5.80797-.0528-2.21637.45681-4.58381 1.42802-6.27687.85255-1.44933 1.88626-2.66421 2.86669-4.60375v-.0106c-1.00174-.13854-2.06743-.0106-2.888.13854.60744-2.12071 2.47238-2.52887 4.11353-1.71575.62876-.88451 1.42802-2.00668 2.65355-3.19278-1.35341-1.00068-2.1207-2.174-1.92888-3.6148-2.98391-.36233-6.11702-.47423-8.37626 1.04863-1.15614-1.14429-2.77818-1.66828-4.18947-1.50454-1.30413.17177-2.28989.84302-1.85296 1.88872.87385 2.0914 1.99282 2.32479 3.48478 3.04306-1.19357 2.2358-2.47238 5.44351-4.63572 6.31736-6.89497 2.78143-10.51829 6.21293-11.96762 10.51829-1.39604 4.15616-.74598 9.29275 1.41736 15.49502 6.58592.52219 13.56614.98043 16.98698.29839-.13854-.4689-.6181-.79926-.91649-.95911-3.03719-1.04437-4.81688-1.16159-7.61963-1.27882.25385-2.45135.19812-5.57477-.70335-7.55569-1.2073-2.21791-2.60327-4.28664-5.1093-4.25234 0 0 3.11648-.0637 4.28873.57573zm12.18075-22.24292c.42627.84402 1.58787 1.38006 3.11179 1.47917-.85254.69162-2.20596 1.217-3.22902.55841-.77794-.50193-.3943-1.39284.11723-2.03758zm-21.89977 33.00631c-1.5559.34102-4.13166.74598-5.28899 1.70509-.90583.78861-1.60172 2.11006-1.72534 3.34625-.12468 1.23619.21207 2.30187 1.3694 3.06916 4.64318 3.07982 9.43875 2.72815 13.74411 1.50262 4.30536-1.23619 8.03524-3.47413 12.72425-2.42976 3.86578 2.32037-.76503 2.86511-2.32319 4.67834 2.28981.83192 5.43945-.31208 5.74403-3.07982.21416-2.61976-3.03199-3.53627-4.7636-3.55938-1.67312-.0106-3.62332.18117-5.7014.6927-4.16682 1.02305-8.90911 2.93062-13.5768 1.98217-1.81166-.36233-2.91997-.72466-3.59881-1.58787-1.52377-2.51007 2.3125-3.45505 4.09968-3.8258-.25576-.76729-.49021-1.74772-.70334-2.4937z" fill="url(#h)" filter="url(#i)" opacity="1"/><path d="m236.76716 117.07671c.42627.84402 1.58787 1.38006 3.11179 1.47917-.85254.69162-2.20596 1.217-3.22902.55841-.77794-.50193-.3943-1.39284.11723-2.03758z" opacity=".25"/></g></g></g><g transform="translate(4.1916 6.724671)"><g><path d="m59.298708 66.213014v26.032521c-.0951 1.963066.670992 3.623844 1.769401 5.031734 1.124821 1.441742 2.775156 2.779081 5.076176 2.760041 2.263114-.0187 3.958752-1.28486 5.140771-2.777611 1.140831-1.440735 1.939808-3.275829 1.685686-5.36298v-25.683705h-2.645317v25.867673c.372561 2.368683-1.944574 5.29159-4.201811 5.31027-2.198576.0182-4.326385-2.960355-4.17804-5.104081v-26.073862z" fill="url(#f)"/><path d="m66.123358 97.391108c2.257239-.01868 4.574733-2.94178 4.202172-5.310466v-25.867605h-8.380188v26.074065c-.148346 2.143728 1.979438 5.122202 4.178016 5.104006z" fill="url(#e)"/></g><g stroke-linecap="round" stroke-linejoin="round"><path d="m59.318359 86.769531c-.731614-.000648-1.324866.592605-1.324218 1.324219v3.986328c-.000648.731614.592604 1.324867 1.324218 1.324219h13.634766c.731614.000648 1.324867-.592605 1.324219-1.324219v-3.986328c.000648-.731614-.592605-1.324867-1.324219-1.324219z" fill="#595959"/><path d="m59.317548 92.080642h13.636135v-3.987551h-13.635906z" fill="url(#d)" stroke-width="2.64583"/></g></g></svg>