<svg height="500" viewBox="0 0 500 500" width="500" xmlns="http://www.w3.org/2000/svg" xmlns:xlink="http://www.w3.org/1999/xlink"><linearGradient id="a"><stop offset="0" stop-color="#ba8425"/><stop offset=".17505421" stop-color="#ecc374"/><stop offset=".37238631" stop-color="#e4b967"/><stop offset=".49845961" stop-color="#fce29f"/><stop offset=".74238402" stop-color="#d7a852"/><stop offset="1" stop-color="#ba8425"/></linearGradient><linearGradient id="b" gradientUnits="userSpaceOnUse" x1="738.28906" x2="1236.3092" y1="377.03094" y2="377.03094"><stop offset="0" stop-color="#5f3e21"/><stop offset=".25" stop-color="#5f3e21" stop-opacity=".1"/><stop offset=".75" stop-color="#5f3e21" stop-opacity=".1"/><stop offset="1" stop-color="#5f3e21"/></linearGradient><linearGradient id="c" gradientUnits="userSpaceOnUse" spreadMethod="repeat" x1="934.73676" x2="987.28925" xlink:href="#a" y1="280.34717" y2="455.95135"/><linearGradient id="d" gradientUnits="userSpaceOnUse" spreadMethod="repeat" x1="1043.9917" x2="987.28906" xlink:href="#a" y1="280.50214" y2="477.37894"/><linearGradient id="e" gradientUnits="userSpaceOnUse" spreadMethod="repeat" x1="756.45502" x2="837.65717" xlink:href="#a" y1="281.15186" y2="351.79733"/><linearGradient id="f" gradientUnits="userSpaceOnUse" spreadMethod="repeat" x1="793.69617" x2="893.00616" xlink:href="#a" y1="294.98535" y2="360.03235"/><linearGradient id="g" gradientUnits="userSpaceOnUse" spreadMethod="repeat" x1="855.52014" x2="910.48309" xlink:href="#a" y1="308.67435" y2="364.33398"/><linearGradient id="h" gradientUnits="userSpaceOnUse" spreadMethod="repeat" x1="1136.8745" x2="1218.0809" xlink:href="#a" y1="306.08109" y2="322.86597"/><linearGradient id="i" gradientUnits="userSpaceOnUse" spreadMethod="repeat" x1="1070.3901" x2="1140.209" xlink:href="#a" y1="314.61435" y2="354.40039"/><linearGradient id="j" gradientUnits="userSpaceOnUse" spreadMethod="repeat" x1="1136.8745" x2="1218.2881" xlink:href="#a" y1="306.08109" y2="319.91434"/><mask id="k" maskUnits="userSpaceOnUse"><path d="m-13.229152-13.229161h158.750002v158.750011h-158.750002z" fill="url(#l)" filter="url(#m)" stroke-width="11.83"/></mask><radialGradient id="l" cx="66.145844" cy="66.145836" gradientTransform="matrix(-1.0000001 .00000145 0 -.99999998 132.2917 132.29157)" gradientUnits="userSpaceOnUse" r="66.145836"><stop offset="0" stop-color="#fff"/><stop offset=".49999994" stop-color="#fff"/><stop offset=".74999988" stop-color="#808080"/><stop offset=".87499994" stop-color="#404040"/><stop offset="1"/></radialGradient><filter id="m" color-interpolation-filters="sRGB" height="1.0135" width="1.0135" x="-.00675" y="-.00675"><feGaussianBlur stdDeviation=".44648439"/></filter><radialGradient id="n" cx="703.05621" cy="1070.2185" gradientTransform="matrix(.12107523 -.12107523 .05841622 .05841622 -57.692804 112.54712)" gradientUnits="userSpaceOnUse" r="1011.8609" spreadMethod="pad"><stop offset="0" stop-color="#b7671e"/><stop offset=".08962709" stop-color="#b7671e" stop-opacity=".9"/><stop offset="1" stop-color="#b7671e" stop-opacity="0"/></radialGradient><radialGradient id="o" cx="126.27608" cy="123.13533" gradientTransform="matrix(.43446619 -.43446528 .90042865 .90042865 -99.591428 10.133839)" gradientUnits="userSpaceOnUse" r="136.05388" spreadMethod="pad"><stop offset="0" stop-color="#fde791"/><stop offset=".125" stop-color="#f4d782" stop-opacity=".88"/><stop offset="1" stop-color="#b7671e" stop-opacity="0"/></radialGradient><radialGradient id="p" cx="703.05621" cy="255.40021" gradientTransform="matrix(.12107523 -.12107523 .05841622 .05841622 -57.692804 112.54712)" gradientUnits="userSpaceOnUse" r="1011.8609"><stop offset="0" stop-color="#fde791"/><stop offset=".08962709" stop-color="#fde791"/><stop offset="1" stop-color="#fde791" stop-opacity="0"/></radialGradient><g mask="url(#k)" stroke-width=".094494" transform="matrix(0 3.7795275 -3.7795275 0 500.00003 -.000048)"><path d="m30.833409 30.833409c-67.65774 67.657739-96.043753 148.969871-63.396059 181.617561 32.64769465 32.6477 113.959825 4.26168 181.61756-63.39606 67.65774-67.657735 96.04376-148.96986535 63.39606-181.61756-32.64769-32.647694-113.959822-4.261681-181.617561 63.396059z" fill="url(#n)" opacity=".3"/><path d="m125.25659 7.0350914c-67.657737-67.6577404-148.969869-96.0437534-181.617559-63.3960594-32.6477 32.647695-4.26168 113.959825 63.3960601 181.617558 67.6577349 67.65774 148.9698689 96.04376 181.6175589 63.39606 32.6477-32.64769 4.26168-113.95982-63.39606-181.6175586z" fill="url(#o)" opacity=".3"/><path d="m-16.763244-16.763244c-67.65774 67.657739-96.043756 148.969874-63.396059 181.617564 32.647695 32.64769 113.959825 4.26168 181.617563-63.39606 67.65774-67.657738 96.04375-148.969868 63.39606-181.617563-32.64769-32.647697-113.959825-4.261681-181.617564 63.396059z" fill="url(#p)" opacity=".3"/></g><g stroke-width="1.04851"><g transform="matrix(.95373802 0 0 -.95373802 -691.61514 561.57757)"><path d="m738.28906 385.75195c0 11.11769 14.40641 19.64579 24.41016 26.12305 32.49189 21.03793 71.89836 30.06263 109.86133 37.62109 37.42351 7.45105 76.08804 7.20527 114.24609 7.22266 38.31826.0175 77.14556.2286 114.73246-7.22266 38.1229-7.55752 77.8973-16.21239 110.3339-37.62109 10.1494-6.69878 24.4161-14.99421 24.4161-27.10352v-100.12854s-37.9356 12.0268-56.9512 17.88636c-30.4465 9.38193-60.1022 22.15453-91.4902 27.65234-33.2155 5.8179-67.32 5.3978-101.04106 5.38281-33.56297-.0149-67.47228.43405-100.52734-5.38281-31.23416-5.49643-60.73373-18.29249-91.03516-27.65234-19.01282-5.8729-56.95508-17.88636-56.95508-17.88636z" fill="#5f3e21" stroke-width="1.04851"/><g stroke-width="37.7462"><path d="m756.47514 377.03094s9.33995 15.12219 16.45 20.031c29.84622 20.60597 67.50983 27.78978 103.10022 34.77027 36.30959 7.12154 73.78894 6.86999 110.79032 6.88693 37.16062.017 74.80162.30758 111.27332-6.8147 35.7469-6.98074 73.582-14.16013 103.5621-34.8425 7.1118-4.90624 16.45-20.031 16.45-20.031v-24.819s-16.9045 24.46485-29.176 32.123c-28.8463 18.00189-64.4018 22.9901-97.967 28.42681-34.2932 5.55465-69.4022 4.05156-104.14242 4.03739-34.58055-.0141-69.52885 1.45067-103.66046-4.10339-33.40889-5.43646-68.79452-10.43123-97.50408-28.36081-12.26907-7.66223-29.176-32.1235-29.176-32.1235zm461.62596-50.34v-40.459s-17.0572 23.90123-29.176 31.52745c-28.9092 18.19223-64.2906 24.21173-97.9172 30.20776-34.2407 6.10555-69.4114 5.61354-104.19222 5.59799-34.62174-.0155-69.63137.4398-103.71061-5.66515-33.47002-5.99582-68.68178-12.02003-97.45393-30.1406-12.11623-7.63075-29.176-31.52845-29.176-31.52845v40.46s16.39883 27.41682 29.176 36.1775c28.00526 19.20182 63.60169 25.01814 97.01404 31.06953 34.20114 6.19425 69.39296 5.02951 104.1505 5.04517 34.91732.0157 70.27052 1.22091 104.63382-4.97407 33.5686-6.05168 69.3367-11.86191 97.4756-31.14063 12.7803-8.75612 29.176-36.1775 29.176-36.1775z" fill="#85582e"/><path d="m756.47514 377.03094s9.33995 15.12219 16.45 20.031c29.84622 20.60597 67.50983 27.78978 103.10022 34.77027 36.30959 7.12154 73.78894 6.86999 110.79032 6.88693 37.16062.017 74.80162.30758 111.27332-6.8147 35.7469-6.98074 73.582-14.16013 103.5621-34.8425 7.1118-4.90624 16.45-20.031 16.45-20.031v-24.819s-16.9045 24.46485-29.176 32.123c-28.8463 18.00189-64.4018 22.9901-97.967 28.42681-34.2932 5.55465-69.4022 4.05156-104.14242 4.03739-34.58055-.0141-69.52885 1.45067-103.66046-4.10339-33.40889-5.43646-68.79452-10.43123-97.50408-28.36081-12.26907-7.66223-29.176-32.1235-29.176-32.1235zm461.62596-50.34v-40.459s-17.0572 23.90123-29.176 31.52745c-28.9092 18.19223-64.2906 24.21173-97.9172 30.20776-34.2407 6.10555-69.4114 5.61354-104.19222 5.59799-34.62174-.0155-69.63137.4398-103.71061-5.66515-33.47002-5.99582-68.68178-12.02003-97.45393-30.1406-12.11623-7.63075-29.176-31.52845-29.176-31.52845v40.46s16.39883 27.41682 29.176 36.1775c28.00526 19.20182 63.60169 25.01814 97.01404 31.06953 34.20114 6.19425 69.39296 5.02951 104.1505 5.04517 34.91732.0157 70.27052 1.22091 104.63382-4.97407 33.5686-6.05168 69.3367-11.86191 97.4756-31.14063 12.7803-8.75612 29.176-36.1775 29.176-36.1775z" fill="url(#b)"/></g></g><g transform="matrix(.95373802 0 0 .95373802 -691.59592 -42.485072)"><path d="m786.3896 396.82088c30.88785 9.13896 62.42807 16.65161 94.37407 20.77873 35.24433 4.55324 70.98816 4.28907 106.52539 4.28906 35.53654-.00001 71.27974.26403 106.52344-4.28906 31.9467-4.12715 63.3693-12.0493 94.3761-20.77873 13.0579-3.67624 31.2546-8.49075 38.4724-13.27013 7.2177-4.77938 9.6281-10.78014 9.6281-34.83041v-100.12854c-19.9363 11.90343-39.142 22.23678-60.4141 29.10351-34.4789 11.12994-71.0203 14.91282-107.0215 18.98438-27.0493 3.05913-54.3427 4.05466-81.56444 4.05468-27.22237.00002-54.51647-.99549-81.5664-4.05468-36.00125-4.07153-72.61628-7.62881-107.02149-18.98438-21.3626-7.0508-40.74533-18.24562-60.41211-30.08398v101.10901c0 24.05027 4.45655 29.80836 12.6974 34.83041 8.24084 5.02206 23.3182 9.69449 35.40314 13.27013z" fill="#5f3e21" stroke-width="1.04851"/><path d="m759.82114 370.25534c34.692 13.847 81.50585 23.73011 123.403 29.513 34.38914 4.74659 69.34881 4.1198 104.06398 4.1198 34.71518 0 69.67488.62692 104.06398-4.1198 41.8972-5.78306 88.711-15.666 123.403-29.514l3.533-50.34v-40.459c-12.2772 6.30043-24.554 11.40001-37.408 15.53-20.0698 6.44843-40.8181 10.77924-61.6005 14.31056-16.161 2.74606-32.5479 4.02564-48.8895 5.31844-27.6483 2.18729-55.3673 4.1198-83.10198 4.1198s-55.4686-1.75151-83.10198-4.1198c-16.2827-1.39549-32.5583-3.18032-48.666-5.94-20.804-3.56428-41.69549-7.33655-61.824-13.689-12.87522-4.06335-25.63084-8.53489-37.408-15.53v40.46z" fill="#85582e" stroke-width="37.7462"/><path d="m781.90705 271.9038c-14.03545-6.20818-16.3871-10.354-29.95733-9.92125-8.23208 1.88149-14.25376 10.13288-13.66066 18.53842.0322 13.57655-.065 27.15612.0496 40.73076 3.10029 14.92893 17.71125 23.70953 29.6662 29.03483 9.05249 3.42778 20.09418-2.0524 22.95599-11.27001 1.85315-15.53574.61898-32.24405 3.12903-46.51269 1.87304-8.68003-3.74004-17.98268-12.18283-20.60006zm436.49925-10.44677c-9.8085.93072-18.5377 7.64356-26.7598 10.86133-7.9728 3.09643-12.6662 11.37532-11.2285 19.80664 2.2166 12.99349 2.4286 26.90447 2.2773 40.94727-.1433 13.5174 14.1076 22.36396 26.1582 16.23828 11.9052-7.50599 27.2708-14.99716 27.4356-29.39649v-40.45898c0-9.89437-7.9886-17.93264-17.8828-17.99805zm-442.52739 30.97461c-2.43985 17.02276-2.14853 33.90271-1.83789 48.65234.16179 7.66593 5.16163 14.38803 12.45703 16.74805 15.80892 5.11245 29.64857 8.67971 44.36132 11.61719 10.93572 2.18227 21.20457-6.0015 21.51758-17.14844.46492-16.59566 1.00358-30.37752 3.07813-44.08984 1.44229-9.53757-4.88938-18.51698-14.35742-20.36133-14.35035-2.79375-29.90819-6.40999-42.23047-10.10547-10.64269-3.97177-21.27705 4.38571-22.98828 14.6875zm400.02539-14.74414c-15.2606 4.39023-28.2861 7.45807-42.3652 10.15039-9.481 1.81347-15.8442 10.78224-14.4239 20.33008 2.0833 14.00106 2.869 30.19298 3.0801 43.90625.1751 11.27197 10.5496 19.61135 21.5957 17.35937 14.8297-3.02525 30.7243-6.97212 44.5606-11.6914 7.2805-2.48374 12.1783-9.31921 12.1894-17.01172.022-15.87576.7917-31.13995-1.8691-48.47656-1.6482-10.72488-12.3394-17.56495-22.7676-14.56641zm-317.50782 13.21875c-9.80124-1.58594-19.036 5.06313-20.64062 14.86133-2.78963 17.04364-3.23017 34.72866-3.39844 49.05078-.10463 8.91757 6.33571 16.56755 15.14063 17.98437 13.92266 2.23962 27.92238 3.9616 41.97265 5.16407 8.82947.75506 16.8939-5.02807 19.01238-13.63282l11.18046-45.41796c2.65525-10.79577-5.01249-21.39383-16.09713-22.24805-12.82956-.98601-29.39827-2.88405-47.16993-5.76172zm257.78122 0c-17.7701 2.8784-34.3351 4.77561-47.166 5.76172-11.0854.85309-18.7547 11.45156-16.0994 22.24805l11.1799 45.41796c2.1185 8.60477 10.1838 14.38789 19.0133 13.63282 14.0502-1.20247 28.05-2.92445 41.9726-5.16407 8.9619-1.44206 15.4481-9.33075 15.1309-18.40234-.568-16.20123-.4642-31.89515-3.4219-48.82422-1.6971-9.7063-10.8825-16.24448-20.6094-14.66992z" fill="#a9701e"/><path d="m1070.3901 314.61434 11.18 45.418c13.6071-1.16454 27.1665-2.83302 40.65-5.002-.5818-16.59412-.558-31.4392-3.164-46.3555-18.277 2.9605-35.264 4.9095-48.666 5.9395z" fill="url(#i)"/><path d="m852.35614 355.03034c13.48355 2.16898 27.04286 3.83746 40.65 5.002l11.18-45.418c-13.402-1.03-30.389-2.9805-48.666-5.94-2.50812 15.32373-2.99865 32.28218-3.164 46.356z" fill="url(#g)"/><path d="m1180.8801 294.98534c-15.741 4.52844-29.4067 7.74982-43.961 10.533 2.2778 15.30871 3.0561 32.1255 3.274 46.279 14.2683-2.91074 29.6272-6.75352 42.347-11.092.023-16.33606.6696-30.54158-1.66-45.72z" fill="url(#h)"/><path d="m793.69614 294.98534c-2.16519 15.10648-1.96823 31.0847-1.66 45.72 15.22707 4.92428 28.23912 8.27509 42.348 11.092.46747-16.68677 1.00296-31.27449 3.273-46.279-14.79977-2.88124-30.76464-6.57538-43.961-10.533z" fill="url(#f)"/><path d="m1218.2881 279.45534c-7.164 4.05256-13.4113 7.03526-20.127 9.643 2.5344 14.85603 2.6871 29.86158 2.533 44.168 9.006-4.58 15.024-9.524 17.594-13.352z" fill="url(#j)"/><path d="m756.28814 279.45534v40.46c2.57 3.827 8.588 8.77 17.594 13.35-.09-7.824-.051-16.625.42-25.1.371-6.692.974-13.156 2.113-19.067-6.93145-2.76896-14.36982-6.20507-20.127-9.643z" fill="url(#e)"/></g><g transform="matrix(.95373802 0 0 .95373802 -691.59592 -42.485072)"><path d="m978.28814 265.66406h-62.05273l-35.22369 143.08012 106.27734 68.63477 106.27144-68.63477-35.2216-143.08012h-62.05076z" fill="#a9701e"/><path d="m996.28906 450.13867 76.72654-49.55469-28.7812-116.91992-47.94534.002-18-.002-47.94726.002-28.78321 116.91992 76.73047 49.55273 9.00018 5.81263z" fill="#ba8425"/><path d="m996.28814 283.66534v33.437l31.99996 16v59.125l-31.99996 16v41.912l76.72696-49.555-28.78-116.92z" fill="url(#d)"/><path d="m930.34114 283.66534-28.782 116.92 76.729 49.553v-53.037l31.99996-16v-36.875l-31.99996-16v-44.563z" fill="url(#c)"/></g></g></svg>