<svg height="500" viewBox="0 0 500 500" width="500" xmlns="http://www.w3.org/2000/svg" xmlns:xlink="http://www.w3.org/1999/xlink"><filter id="a" color-interpolation-filters="sRGB" height="1.095146" width="1.095285" x="-.047643" y="-.047573"><feGaussianBlur stdDeviation="8.0467762"/></filter><radialGradient id="b" cx="3726.1614" cy="-4369.2554" gradientTransform="matrix(-.00000009 .07014913 -.0704408 -.00000008 -321.6177 -281.4053)" gradientUnits="userSpaceOnUse" r="233.10304" spreadMethod="reflect"><stop offset="0" stop-color="#ffde66"/><stop offset=".49865231" stop-color="#584e1d" stop-opacity="0"/></radialGradient><radialGradient id="c" cx="1726.0168" cy="-247.58325" gradientTransform="matrix(-.483988 .4231358 -.42313565 -.48398713 1181.7688 -391.21755)" gradientUnits="userSpaceOnUse" r="33.058681" spreadMethod="repeat"><stop offset="0"/><stop offset=".25"/><stop offset=".5" stop-color="#282828" stop-opacity="0"/><stop offset=".75" stop-color="#282828" stop-opacity="0"/><stop offset="1"/></radialGradient><filter id="d" color-interpolation-filters="sRGB" height="1.048034" width="1.061659" x="-.030829" y="-.024017"><feGaussianBlur stdDeviation="3.5238687"/></filter><radialGradient id="e" cx="-1920.0815" cy="-1129.0295" gradientTransform="matrix(.1166505 .12676026 -.12676026 .1166505 307.55185 525.24033)" gradientUnits="userSpaceOnUse" r="137.16223" spreadMethod="reflect"><stop offset="0" stop-color="#ffde66"/><stop offset="1" stop-color="#ffd400"/></radialGradient><clipPath id="f"><path d="m210.11719 143.80082 18.11133 221.74219-7.80079 93.66992h86.29297l6.82032-16.83398 9.42773 16.83398h174.89648l1.86719-15.6877c4.68569-34.76703-7.90352-68.24561-25.24219-95.89238-8.66933-13.82338-18.62217-25.75493-29.25586-34.77539-18.70237-13.14118-25.7231-16.70366-46.1582-15.35751-5.7569-5.32827-10.49622-10.20566-13.57422-16.75391-2.10173-44.26371 24.14717-97.73564 19.21875-138.30859-1.73668-10.33997-5.80146-25.17789-19.126-35.15625-13.13241-9.835195-31.21819-15.041957-54.80076-15.890549-19.47298.26277-39.70702 3.968241-59.34312 11.647129-25.9321 11.89735-43.08165 23.50161-61.33363 40.76304z"/></clipPath><g transform="matrix(-1 0 0 1 500.00001 0)"><use stroke-width="1.09527" transform="matrix(.88290063 .23258126 -.23258031 .88289703 222.1779 18.054324)" xlink:href="#g"/><g id="g" stroke-width="1.05552" transform="matrix(.9474046 0 0 .9474046 -68.787603 4.674299)"><path d="m78.518308 95.104343 113.476192 244.728787 29.76568 103.38008h70.97119l.54335-18.57905 15.70472 18.57905h174.89673l-3.98236-17.31395-60.99813-105.83292-42.2228-38.38034-51.8847-16.94952-19.82136-18.49068-32.35309-152.646159-32.23493-38.800669-60.72603-17.537826-55.00028 12.854518z" fill="url(#b)" filter="url(#a)" opacity=".5" transform="matrix(.96987124 0 -.02088889 1.0452138 23.83682 -20.039332)"/><g clip-path="url(#f)"><path d="m210.11719 143.80082 18.11133 221.74219-7.80079 93.66992h86.29297l6.82032-16.83398 9.42773 16.83398h174.89648l1.86719-15.6877c4.68569-34.76703-7.90352-68.24561-25.24219-95.89238-8.66933-13.82338-18.62217-25.75493-29.25586-34.77539-18.70237-13.14118-25.7231-16.70366-46.1582-15.35751-5.7569-5.32827-10.49622-10.20566-13.57422-16.75391-2.10173-44.26371 24.14717-97.73564 19.21875-138.30859-1.73668-10.33997-5.80146-25.17789-19.126-35.15625-13.13241-9.835195-31.21819-15.041961-54.80076-15.890554-19.47298.262776-39.70702 3.968242-59.34312 11.647134-25.9321 11.89735-43.08165 23.50161-61.33363 40.76304z" fill="#584e1d"/><path d="m330.50195 99.228516c-36.69085.503973-76.74546 14.090524-109.41797 44.994144a8.1570046 8.1570046 0 0 0 -2.52343 6.58984l17.53906 214.73828-6.41406 76.98438a8.1570046 8.1570046 0 0 0 8.1289 8.83398h58.125a8.1570046 8.1570046 0 0 0 7.5586-5.09375l8.90625-21.97851 12.82422 22.90039a8.1570046 8.1570046 0 0 0 7.11718 4.17187h151.53125a8.1570046 8.1570046 0 0 0 8.08399-7.06641c4.32405-32.08377-7.51682-66.03487-24.11719-92.5039-8.30018-13.23452-17.83874-24.60974-27.68359-32.96094-9.84486-8.35119-19.98776-14.08232-30.75782-14.15625a8.1570046 8.1570046 0 0 0 -.61132.0195l-12.69532.86328c-8.04075-8.57057-16.62032-16.45249-18.32031-22.8164-1.26337-21.87023 4.30596-45.49942 10.03125-68.95899 5.79495-23.74501 11.82947-47.28461 9.23633-69.64062a8.1570046 8.1570046 0 0 0 -.0586-.41211c-1.64721-9.80725-4.94996-21.83391-16.0918-30.17774v.002c-11.34276-8.496-27.8663-13.52028-49.98242-14.326175a8.1570046 8.1570046 0 0 0 -.40821-.0059z" fill="url(#e)"/><path d="m330.50195 99.228516c-36.69085.503973-76.74546 14.090524-109.41797 44.994144a8.1570046 8.1570046 0 0 0 -2.52343 6.58984l17.53906 214.73828-6.41406 76.98438a8.1570046 8.1570046 0 0 0 8.1289 8.83398h58.125a8.1570046 8.1570046 0 0 0 7.5586-5.09375l8.90625-21.97851 12.82422 22.90039a8.1570046 8.1570046 0 0 0 7.11718 4.17187h151.53125a8.1570046 8.1570046 0 0 0 8.08399-7.06641c4.32405-32.08377-7.51682-66.03487-24.11719-92.5039-8.30018-13.23452-17.83874-24.60974-27.68359-32.96094-9.84486-8.35119-19.98776-14.08232-30.75782-14.15625a8.1570046 8.1570046 0 0 0 -.61132.0195l-12.69532.86328c-8.04075-8.57057-16.62032-16.45249-18.32031-22.8164-1.26337-21.87023 4.30596-45.49942 10.03125-68.95899 5.79495-23.74501 11.82947-47.28461 9.23633-69.64062a8.1570046 8.1570046 0 0 0 -.0586-.41211c-1.64721-9.80725-4.94996-21.83391-16.0918-30.17774v.002c-11.34276-8.496-27.8663-13.52028-49.98242-14.326175a8.1570046 8.1570046 0 0 0 -.40821-.0059z" fill="url(#c)" filter="url(#d)" opacity=".125"/><path d="m374.72215 247.27223c-13.0415-8.0485-29.923-11.76675-48.06838-11.70375-18.14537.063-37.55462 3.90725-55.65162 10.98375l-6.78-17.405c20.11-7.864 41.785-12.5 62.655-12.56 17.98-.054 35.357 3.307 50.563 10.874l6.74466 1.53814-3.90564 19.22394zm8.311-60.467c-15.643-13.709-34.998-19.862-55.6865-19.5855s-42.7105 6.9825-63.6875 18.9915l-9.28-16.22c23.566-13.49 49.485-21.265 74.312-21.31 20.46-.04 40.183 5.176 57.28 16.78l10.5773 6.27865-3.90576 21.6921z" fill="#584e1d"/><path d="m282.2502 353.5198c-6.82304-2.73924-10.73707-4.31918-17.56005-7.05857 5.05914-13.62986 10.79181-26.60022 18.94438-38.26737 6.44958-9.22999 14.32736-17.64624 23.27462-24.48263 7.54635-5.76598 16.02636-10.65268 25.08199-13.51439 12.87652-4.06916 26.72958-4.49538 40.23101-4.76761 1.93722-.0391 5.79532.45083 5.79532.45083l-.24208 16.86799s-5.40151.9576-8.11724 1.33818c-10.47888 1.46851-21.44803.44515-31.53388 3.645-7.20369 2.28546-14.15573 5.95063-19.90412 10.857-12.03751 10.27426-21.14129 23.85509-29 37.592-3.0933 5.40704-6.96995 17.33957-6.96995 17.33957zm33.62695-6.61957c7.72689-9.6125 14.93108-19.96349 24.55362-27.67788 11.08095-8.88359 24.18205-15.12636 37.25938-20.66612 2.91689-1.23564 9.09295-2.76289 9.09295-2.76289l9.3126 9.77111 4.98545 7.83578s-5.5925-.13287-8.265.562c-14.42744 3.75121-28.67733 9.93257-40.4455 19.08313-12.46603 9.6932-20.58959 23.4877-30.1485 36.54187-6.59-2.63006-11.09019-4.45165-17.67149-7.10337 0 0 7.30321-10.57854 11.32649-15.58363z" fill="#584e1d"/><path d="m330.79297 91.390625c-19.47296.262776-39.70572 3.9676-59.3418 11.646485-25.93207 11.89734-43.08202 23.50226-61.33398 40.76367l18.11133 221.74219-7.80079 93.66992h86.29297l6.82032-16.83398 9.42773 16.83398h174.89648l1.86719-15.6875c4.68569-34.76699-7.90353-68.24584-25.24219-95.89258-8.66932-13.82336-18.62218-25.75494-29.25585-34.77539-18.70236-13.14116-25.72313-16.70357-46.15821-15.35742-5.75689-5.32826-10.49622-10.20566-13.57422-16.75391-2.10172-44.26366 24.14717-97.73568 19.21875-138.30859-1.73668-10.33996-5.80242-25.1779-19.12695-35.15625-13.1324-9.835185-31.21823-15.042033-54.80078-15.890625zm-.17969 15.994145c21.00748.76549 35.90764 5.60013 45.39063 12.70312 8.87199 6.64399 11.38329 15.74647 12.9375 25 1.1368 6.7683-2.00776 13.57783-2.97071 20.37305-1.00766 7.1107-1.95845 14.22904-2.9375 21.34375-1.86487 13.55191-3.73189 27.10392-5.59375 40.65625-.90721 6.60349-1.8092 13.2071-2.71679 19.81054-.83187 6.05253-1.66744 12.10577-2.5 18.15821-.85546 6.21888-3.71967 12.48601-2.56446 18.65625 1.01519 5.42235 8.03125 14.4707 8.03125 14.4707l15.12696 15.40625 16.52929-1.125c30.29997.208 82.42725 71.78806 74.53125 130.375h-151.53125l-21.12304-37.71875-15.28321 37.71875h-58.125l6.46875-77.65625-17.59375-215.4082c31.12297-29.43797 69.16037-42.28617 103.92383-42.76367z" fill="#584e1d"/></g></g></g></svg>