<svg height="500" viewBox="0 0 132.29167 132.29167" width="500" xmlns="http://www.w3.org/2000/svg" xmlns:xlink="http://www.w3.org/1999/xlink"><filter id="a" color-interpolation-filters="sRGB" height="1.055607" width="1.034332" x="-.017166" y="-.027804"><feGaussianBlur stdDeviation=".77962758"/></filter><filter id="b" color-interpolation-filters="sRGB" height="1.263847" width="1.058674" x="-.029337" y="-.131923"><feGaussianBlur stdDeviation="1.0434212"/></filter><linearGradient id="c" gradientTransform="matrix(.30163153 0 0 .24658846 -457.141 -44.740928)" gradientUnits="userSpaceOnUse" spreadMethod="reflect" x1="87.688141" x2="22.92226" xlink:href="#d" y1="85.248062" y2="92.853149"/><linearGradient id="d"><stop offset="0" stop-color="#e9f4fc"/><stop offset="1" stop-color="#b6d7e7"/></linearGradient><linearGradient id="e"><stop offset="0" stop-color="#e9f4fc"/><stop offset=".5" stop-color="#b6d7e7"/><stop offset="1" stop-color="#b6d7e7"/></linearGradient><linearGradient id="f" gradientTransform="matrix(.30363457 0 0 .12830028 242.01999 -3.035888)" gradientUnits="userSpaceOnUse" x1="41.336952" x2="93.05101" xlink:href="#d" y1="65.204704" y2="74.612602"/><linearGradient id="g" gradientTransform="matrix(1.2232183 0 0 1 -16.096144 0)" gradientUnits="userSpaceOnUse" spreadMethod="reflect" x1="67.174194" x2="96.51387" xlink:href="#e" y1="70.141975" y2="70.0009"/><linearGradient id="h" gradientUnits="userSpaceOnUse" x1="570.01666" x2="-92.49633" xlink:href="#e" y1="100.80859" y2="104.12309"/><linearGradient id="i" gradientUnits="userSpaceOnUse" x1="-179.44041" x2="-2.287315" xlink:href="#e" y1="20.87785" y2="15.236541"/><linearGradient id="j"><stop offset="0" stop-color="#f8f7ed"/><stop offset="1" stop-color="#f2eed9"/></linearGradient><linearGradient id="k" gradientTransform="matrix(.49866252 0 0 .52903801 1635.8565 1426.5126)" gradientUnits="userSpaceOnUse" spreadMethod="repeat" x1="160.71698" x2="260.9852" y1="14.152691" y2="108.66388"><stop offset="0" stop-color="#f3f3f1"/><stop offset=".03125" stop-color="#eef3f4"/><stop offset=".0625" stop-color="#ebf5f7"/><stop offset=".09375" stop-color="#eef3f4"/><stop offset=".15625" stop-color="#e4ebee"/><stop offset=".1875" stop-color="#dee8ed"/><stop offset=".21875" stop-color="#e4ebee"/><stop offset=".28125" stop-color="#e3e5ed"/><stop offset=".3125" stop-color="#e3e4e8"/><stop offset=".34375" stop-color="#e4e7ec"/><stop offset=".40625" stop-color="#d9e3ea"/><stop offset=".4375" stop-color="#e1e6eb"/><stop offset=".46875" stop-color="#dfe4e4"/><stop offset=".53125" stop-color="#f4f3ea"/><stop offset=".5625" stop-color="#f8f6e8"/><stop offset=".59375" stop-color="#f4f2ea"/><stop offset=".65625" stop-color="#eeece4"/><stop offset=".71426684" stop-color="#eee8dd"/><stop offset=".76595175" stop-color="#eeece4"/><stop offset=".8775022" stop-color="#f3f3f1"/><stop offset=".9375" stop-color="#f3f3f1"/><stop offset="1" stop-color="#f3f3f1"/></linearGradient><linearGradient id="l" gradientUnits="userSpaceOnUse" spreadMethod="reflect" x1="64.628906" x2="121.25529" y1="35.76281" y2="35.76281"><stop offset="0" stop-color="#c9c4ad" stop-opacity=".1"/><stop offset=".33159342" stop-color="#c9c4ad" stop-opacity=".2"/><stop offset=".79702407" stop-color="#c9c4ad" stop-opacity=".8"/><stop offset="1" stop-color="#c9c4ad" stop-opacity=".9"/></linearGradient><linearGradient id="m" gradientUnits="userSpaceOnUse" spreadMethod="reflect" x1="14.46469" x2="32.92758" xlink:href="#j" y1="30.898508" y2="49.134767"/><linearGradient id="n" gradientUnits="userSpaceOnUse" spreadMethod="reflect" x1="105.14383" x2="100.84079" xlink:href="#j" y1="27.530908" y2="43.620535"/><mask id="o" maskUnits="userSpaceOnUse"><path d="m-13.229159-13.229166h158.749999v158.750016h-158.749999z" fill="url(#p)" filter="url(#q)" stroke-width="11.83"/></mask><radialGradient id="p" cx="66.145844" cy="66.145836" gradientTransform="matrix(-1.0000001 .00000145 0 -.99999999 132.29169 132.29157)" gradientUnits="userSpaceOnUse" r="66.145836"><stop offset="0" stop-color="#fff"/><stop offset=".25342461" stop-color="#fff"/><stop offset=".75273961" stop-color="#808080"/><stop offset=".87499994" stop-color="#404040"/><stop offset="1"/></radialGradient><filter id="q" color-interpolation-filters="sRGB" height="1.0135" width="1.0135" x="-.00675" y="-.00675"><feGaussianBlur stdDeviation=".44648439"/></filter><radialGradient id="r" cx="703.05621" cy="255.40021" gradientTransform="matrix(.12107523 -.12107523 .05841622 .05841622 -57.692804 112.54712)" gradientUnits="userSpaceOnUse" r="1011.8609"><stop offset="0" stop-color="#0af"/><stop offset=".08962709" stop-color="#0af" stop-opacity=".9104"/><stop offset="1" stop-color="#0af" stop-opacity="0"/></radialGradient><radialGradient id="s" cx="703.05621" cy="1070.2185" gradientTransform="matrix(.12107523 -.12107523 .05841622 .05841622 -57.692804 112.54712)" gradientUnits="userSpaceOnUse" r="1011.8609" spreadMethod="pad"><stop offset="0" stop-color="#fff"/><stop offset=".08962709" stop-color="#fff" stop-opacity=".9104"/><stop offset="1" stop-color="#fff" stop-opacity="0"/></radialGradient><linearGradient id="t"><stop offset="0" stop-color="#fff"/><stop offset=".1375" stop-color="#fff" stop-opacity=".8625"/><stop offset="1" stop-color="#fff" stop-opacity="0"/></linearGradient><radialGradient id="u" cx="4845.7568" cy="4885.4878" gradientTransform="matrix(0 1 -1 0 5224.5762 -3824.5764)" gradientUnits="userSpaceOnUse" r="11.2507" xlink:href="#t"/><radialGradient id="v" cx="4264.2671" cy="4804.9849" gradientTransform="matrix(0 1 -1 0 5224.5762 -3824.5764)" gradientUnits="userSpaceOnUse" r="11.2507" xlink:href="#t"/><radialGradient id="w" cx="4024.0554" cy="4671.3345" gradientTransform="matrix(0 1 -1 0 5224.5762 -3824.5764)" gradientUnits="userSpaceOnUse" r="11.2507" xlink:href="#t"/><radialGradient id="x" cx="4156.0269" cy="4803.9863" gradientTransform="matrix(0 1 -1 0 5224.5762 -3824.5764)" gradientUnits="userSpaceOnUse" r="5.6228" xlink:href="#t"/><radialGradient id="y" cx="4201.7222" cy="5018.0508" gradientTransform="matrix(0 1 -1 0 5224.5762 -3824.5764)" gradientUnits="userSpaceOnUse" r="5.6228" xlink:href="#t"/><radialGradient id="z" cx="4755.5991" cy="4916.6094" gradientTransform="matrix(0 1 -1 0 5224.5762 -3824.5764)" gradientUnits="userSpaceOnUse" r="5.6228" xlink:href="#t"/><radialGradient id="A" cx="4994.8228" cy="4675.311" gradientTransform="matrix(0 1 -1 0 5224.5762 -3824.5764)" gradientUnits="userSpaceOnUse" r="5.6228" xlink:href="#t"/><radialGradient id="B" cx="4664.439" cy="4695.5273" gradientTransform="matrix(0 1 -1 0 5224.5762 -3824.5764)" gradientUnits="userSpaceOnUse" r="11.2507" xlink:href="#t"/><radialGradient id="C" cx="4894.2646" cy="4681.8555" gradientTransform="matrix(0 1 -1 0 5224.5762 -3824.5764)" gradientUnits="userSpaceOnUse" r="11.2507" xlink:href="#t"/><radialGradient id="D" cx="4757.5957" cy="4804.9849" gradientTransform="matrix(0 1 -1 0 5224.5762 -3824.5764)" gradientUnits="userSpaceOnUse" r="11.2507" xlink:href="#t"/><radialGradient id="E" cx="4433.3354" cy="5016.0532" gradientTransform="matrix(0 1 -1 0 5224.5762 -3824.5764)" gradientUnits="userSpaceOnUse" r="11.2507" xlink:href="#t"/><radialGradient id="F" cx="4371.5723" cy="4725.9341" gradientTransform="matrix(0 1 -1 0 5224.5762 -3824.5764)" gradientUnits="userSpaceOnUse" r="11.2507" xlink:href="#t"/><radialGradient id="G" cx="4510.9111" cy="4743.7231" gradientTransform="matrix(0 1 -1 0 5224.5762 -3824.5764)" gradientUnits="userSpaceOnUse" r="11.2507" xlink:href="#t"/><radialGradient id="H" cx="4269.4331" cy="4686.5615" gradientTransform="matrix(0 1 -1 0 5224.5762 -3824.5764)" gradientUnits="userSpaceOnUse" r="11.2507" xlink:href="#t"/><radialGradient id="I" cx="4072.584" cy="4883.4902" gradientTransform="matrix(0 1 -1 0 5224.5762 -3824.5764)" gradientUnits="userSpaceOnUse" r="11.2507" xlink:href="#t"/><radialGradient id="J" cx="4666.4365" cy="4863.9521" gradientTransform="matrix(0 1 -1 0 5224.5762 -3824.5764)" gradientUnits="userSpaceOnUse" r="7.1455" xlink:href="#t"/><radialGradient id="K" cx="4894.2646" cy="4840.1016" gradientTransform="matrix(0 1 -1 0 5224.5762 -3824.5764)" gradientUnits="userSpaceOnUse" r="7.1455" xlink:href="#t"/><radialGradient id="L" cx="4974.3188" cy="4809.6094" gradientTransform="matrix(0 1 -1 0 5224.5762 -3824.5764)" gradientUnits="userSpaceOnUse" r="7.1455" xlink:href="#t"/><radialGradient id="M" cx="4589.1577" cy="4997.6572" gradientTransform="matrix(0 1 -1 0 5224.5762 -3824.5764)" gradientUnits="userSpaceOnUse" r="7.1455" xlink:href="#t"/><radialGradient id="N" cx="4347.4258" cy="4820.2441" gradientTransform="matrix(0 1 -1 0 5224.5762 -3824.5764)" gradientUnits="userSpaceOnUse" r="7.1455" xlink:href="#t"/><radialGradient id="O" cx="4908.2451" cy="4929.8579" gradientTransform="matrix(0 1 -1 0 5224.5762 -3824.5764)" gradientUnits="userSpaceOnUse" r="11.2507" xlink:href="#t"/><radialGradient id="P" cx="4987.5674" cy="5014.0552" gradientTransform="matrix(0 1 -1 0 5224.5762 -3824.5764)" gradientUnits="userSpaceOnUse" r="11.2507" xlink:href="#t"/><radialGradient id="Q" cx="3991.5649" cy="4813.0986" gradientTransform="matrix(0 1 -1 0 5224.5762 -3824.5764)" gradientUnits="userSpaceOnUse" r="11.2507" xlink:href="#t"/><radialGradient id="R" cx="4027.6277" cy="5059.4341" gradientTransform="matrix(0 1 -1 0 5224.5762 -3824.5764)" gradientUnits="userSpaceOnUse" r="11.2507" xlink:href="#t"/><radialGradient id="S" cx="4683.0972" cy="5027.3037" gradientTransform="matrix(0 1 -1 0 5224.5762 -3824.5764)" gradientUnits="userSpaceOnUse" r="11.2507" xlink:href="#t"/><radialGradient id="T" cx="16323.169" cy="4900.5503" gradientTransform="matrix(0 .2895 -1 0 5224.5762 -4086.6375)" gradientUnits="userSpaceOnUse" r="29.7325" xlink:href="#t"/><radialGradient id="U" cx="-16917.998" cy="4941.8945" gradientTransform="matrix(.2895 0 0 1 5221.3418 -4303.4033)" gradientUnits="userSpaceOnUse" r="29.7325" xlink:href="#t"/><radialGradient id="V" cx="17536.6" cy="5029.3018" gradientTransform="matrix(0 .2895 -1 0 5224.5762 -4086.6375)" gradientUnits="userSpaceOnUse" r="29.7325" xlink:href="#t"/><radialGradient id="W" cx="-17362.775" cy="5293.1509" gradientTransform="matrix(.2895 0 0 1 5221.3418 -4303.4033)" gradientUnits="userSpaceOnUse" r="29.7325" xlink:href="#t"/><radialGradient id="X" cx="15154.966" cy="4975.0698" gradientTransform="matrix(0 .2895 -1 0 5224.5762 -4086.6375)" gradientUnits="userSpaceOnUse" r="29.7325" xlink:href="#t"/><radialGradient id="Y" cx="-17175.43" cy="4603.7305" gradientTransform="matrix(.2895 0 0 1 5221.3418 -4303.4033)" gradientUnits="userSpaceOnUse" r="29.7325" xlink:href="#t"/><radialGradient id="Z" cx="15420.522" cy="4902.7319" gradientTransform="matrix(0 .2895 -1 0 5224.5762 -4086.6375)" gradientUnits="userSpaceOnUse" r="19.241899" xlink:href="#t"/><radialGradient id="aa" cx="-16925.533" cy="4680.6021" gradientTransform="matrix(.2895 0 0 1 5221.3418 -4303.4033)" gradientUnits="userSpaceOnUse" r="19.241899" xlink:href="#t"/><radialGradient id="ab" cx="17559.291" cy="4676.2856" gradientTransform="matrix(0 .2895 -1 0 5224.5762 -4086.6375)" gradientUnits="userSpaceOnUse" r="19.241899" xlink:href="#t"/><radialGradient id="ac" cx="-16143.265" cy="5299.7192" gradientTransform="matrix(.2895 0 0 1 5221.3418 -4303.4033)" gradientUnits="userSpaceOnUse" r="19.241899" xlink:href="#t"/><radialGradient id="ad" cx="16866.557" cy="4774.4922" gradientTransform="matrix(0 .2895 -1 0 5224.5762 -4086.6375)" gradientUnits="userSpaceOnUse" r="19.241899" xlink:href="#t"/><radialGradient id="ae" cx="-16482.523" cy="5099.1909" gradientTransform="matrix(.2895 0 0 1 5221.3418 -4303.4033)" gradientUnits="userSpaceOnUse" r="19.241899" xlink:href="#t"/><radialGradient id="af" cx="16699.693" cy="4871.0977" gradientTransform="matrix(0 .2895 -1 0 5224.5762 -4086.6375)" gradientUnits="userSpaceOnUse" r="19.241899" xlink:href="#t"/><radialGradient id="ag" cx="-16816.252" cy="5050.8887" gradientTransform="matrix(.2895 0 0 1 5221.3418 -4303.4033)" gradientUnits="userSpaceOnUse" r="19.241899" xlink:href="#t"/><radialGradient id="ah" cx="15143.32" cy="4682.5854" gradientTransform="matrix(0 .2895 -1 0 5224.5762 -4086.6375)" gradientUnits="userSpaceOnUse" r="19.241899" xlink:href="#t"/><radialGradient id="ai" cx="-16165.027" cy="4600.3594" gradientTransform="matrix(.2895 0 0 1 5221.3418 -4303.4033)" gradientUnits="userSpaceOnUse" r="19.241899" xlink:href="#t"/><radialGradient id="aj" cx="3957.2905" cy="4201.0781" gradientTransform="matrix(0 1 -1 0 5224.5762 -3824.5764)" gradientUnits="userSpaceOnUse" r="11.2507" xlink:href="#t"/><radialGradient id="ak" cx="3955.2927" cy="4675.311" gradientTransform="matrix(0 1 -1 0 5224.5762 -3824.5764)" gradientUnits="userSpaceOnUse" r="5.6228" xlink:href="#t"/><radialGradient id="al" cx="3880.6929" cy="4281.3076" gradientTransform="matrix(0 1 -1 0 5224.5762 -3824.5764)" gradientUnits="userSpaceOnUse" r="5.6228" xlink:href="#t"/><radialGradient id="am" cx="3854.7346" cy="4681.8555" gradientTransform="matrix(0 1 -1 0 5224.5762 -3824.5764)" gradientUnits="userSpaceOnUse" r="11.2507" xlink:href="#t"/><radialGradient id="an" cx="3946.0398" cy="4361.0039" gradientTransform="matrix(0 1 -1 0 5224.5762 -3824.5764)" gradientUnits="userSpaceOnUse" r="11.2507" xlink:href="#t"/><radialGradient id="ao" cx="3854.7346" cy="4840.1016" gradientTransform="matrix(0 1 -1 0 5224.5762 -3824.5764)" gradientUnits="userSpaceOnUse" r="7.1455" xlink:href="#t"/><radialGradient id="ap" cx="3934.7891" cy="4809.6094" gradientTransform="matrix(0 1 -1 0 5224.5762 -3824.5764)" gradientUnits="userSpaceOnUse" r="7.1455" xlink:href="#t"/><radialGradient id="aq" cx="3868.7151" cy="4929.8579" gradientTransform="matrix(0 1 -1 0 5224.5762 -3824.5764)" gradientUnits="userSpaceOnUse" r="11.2507" xlink:href="#t"/><radialGradient id="ar" cx="14299.684" cy="4106.2778" gradientTransform="matrix(0 .2895 -1 0 4759.5761 -3951.1375)" gradientUnits="userSpaceOnUse" r="29.7325" xlink:href="#t"/><radialGradient id="as" cx="-14174.147" cy="4356.1484" gradientTransform="matrix(.2895 0 0 1 4756.3417 -4167.9033)" gradientUnits="userSpaceOnUse" r="29.7325" xlink:href="#t"/><radialGradient id="at" cx="14469.968" cy="4512.0322" gradientTransform="matrix(0 .2895 -1 0 5224.5762 -4086.6375)" gradientUnits="userSpaceOnUse" r="19.241899" xlink:href="#t"/><radialGradient id="au" cx="-15575.844" cy="4405.4414" gradientTransform="matrix(.2895 0 0 1 5221.3418 -4303.4033)" gradientUnits="userSpaceOnUse" r="19.241899" xlink:href="#t"/><radialGradient id="av" cx="14799.68" cy="4114.8848" gradientTransform="matrix(0 .2895 -1 0 5116.3762 -2926.3375)" gradientUnits="userSpaceOnUse" r="19.241899" xlink:href="#t"/><radialGradient id="aw" cx="-14203.88" cy="4500.8843" gradientTransform="matrix(.2895 0 0 1 5113.1418 -3143.1033)" gradientUnits="userSpaceOnUse" r="19.241899" xlink:href="#t"/><radialGradient id="ax" cx="4250.4473" cy="5175.2676" gradientTransform="matrix(0 -1 1 0 -5135.66355 5025.32025)" gradientUnits="userSpaceOnUse" r="11.2507" xlink:href="#t"/><radialGradient id="ay" cx="4903.7407" cy="5212.9341" gradientTransform="matrix(0 -1 1 0 -5135.66355 5025.32025)" gradientUnits="userSpaceOnUse" r="5.6228" xlink:href="#t"/><radialGradient id="az" cx="4991.8784" cy="5262.8999" gradientTransform="matrix(0 -1 1 0 -5135.66355 5025.32025)" gradientUnits="userSpaceOnUse" r="5.6228" xlink:href="#t"/><radialGradient id="aA" cx="4163.4556" cy="5234.1792" gradientTransform="matrix(0 -1 1 0 -5135.66355 5025.32025)" gradientUnits="userSpaceOnUse" r="7.1455" xlink:href="#t"/><radialGradient id="aB" cx="4333.5586" cy="5224.1846" gradientTransform="matrix(0 -1 1 0 -5135.66355 5025.32025)" gradientUnits="userSpaceOnUse" r="11.2507" xlink:href="#t"/><radialGradient id="aC" cx="17436.146" cy="5226.5532" gradientTransform="matrix(0 -.2895 1 0 -5135.6636 5287.3813)" gradientUnits="userSpaceOnUse" r="19.241899" xlink:href="#t"/><radialGradient id="aD" cx="-18044.189" cy="5264.0723" gradientTransform="matrix(-.2895 0 0 -1 -5132.4292 5504.147)" gradientUnits="userSpaceOnUse" r="19.241899" xlink:href="#t"/><radialGradient id="aE" cx="4028.946" cy="5182.6704" gradientTransform="matrix(0 -1 1 0 -5135.66355 5025.32025)" gradientUnits="userSpaceOnUse" r="11.2507" xlink:href="#t"/><radialGradient id="aF" cx="3864.2109" cy="5212.9341" gradientTransform="matrix(0 -1 1 0 -5135.66355 5025.32025)" gradientUnits="userSpaceOnUse" r="5.6228" xlink:href="#t"/><radialGradient id="aG" cx="3952.3484" cy="5262.8999" gradientTransform="matrix(0 -1 1 0 -5135.66355 5025.32025)" gradientUnits="userSpaceOnUse" r="5.6228" xlink:href="#t"/><radialGradient id="aH" cx="4358.6768" cy="4918.6069" gradientTransform="matrix(0 1 -1 0 5224.5762 -3824.5764)" gradientUnits="userSpaceOnUse" r="11.2507" xlink:href="#t"/><radialGradient id="aI" cx="5075.5581" cy="4804.9849" gradientTransform="matrix(0 1 -1 0 5224.5762 -3824.5764)" gradientUnits="userSpaceOnUse" r="11.2507" xlink:href="#t"/><radialGradient id="aJ" cx="5192.5688" cy="4473.0386" gradientTransform="matrix(0 1 -1 0 5224.5762 -3824.5764)" gradientUnits="userSpaceOnUse" r="5.6228" xlink:href="#t"/><radialGradient id="aK" cx="5182.8633" cy="4725.9341" gradientTransform="matrix(0 1 -1 0 5224.5762 -3824.5764)" gradientUnits="userSpaceOnUse" r="11.2507" xlink:href="#t"/><radialGradient id="aL" cx="5080.7241" cy="4686.5615" gradientTransform="matrix(0 1 -1 0 5224.5762 -3824.5764)" gradientUnits="userSpaceOnUse" r="11.2507" xlink:href="#t"/><radialGradient id="aM" cx="5158.7168" cy="4820.2441" gradientTransform="matrix(0 1 -1 0 5224.5762 -3824.5764)" gradientUnits="userSpaceOnUse" r="7.1455" xlink:href="#t"/><radialGradient id="aN" cx="5143.9321" cy="5055.4385" gradientTransform="matrix(0 1 -1 0 5224.5762 -3824.5764)" gradientUnits="userSpaceOnUse" r="11.2507" xlink:href="#t"/><radialGradient id="aO" cx="18862.688" cy="4376.7666" gradientTransform="matrix(0 .2895 -1 0 5224.5762 -4086.6375)" gradientUnits="userSpaceOnUse" r="29.7325" xlink:href="#t"/><radialGradient id="aP" cx="-15108.562" cy="5677.0186" gradientTransform="matrix(.2895 0 0 1 5221.3418 -4303.4033)" gradientUnits="userSpaceOnUse" r="29.7325" xlink:href="#t"/><radialGradient id="aQ" cx="18223.164" cy="4902.7319" gradientTransform="matrix(0 .2895 -1 0 5224.5762 -4086.6375)" gradientUnits="userSpaceOnUse" r="19.241899" xlink:href="#t"/><radialGradient id="aR" cx="-16925.533" cy="5491.8931" gradientTransform="matrix(.2895 0 0 1 5221.3418 -4303.4033)" gradientUnits="userSpaceOnUse" r="19.241899" xlink:href="#t"/><radialGradient id="aS" cx="18874.334" cy="4574.7783" gradientTransform="matrix(0 .2895 -1 0 5224.5762 -4086.6375)" gradientUnits="userSpaceOnUse" r="19.241899" xlink:href="#t"/><radialGradient id="aT" cx="-15792.604" cy="5680.3896" gradientTransform="matrix(.2895 0 0 1 5221.3418 -4303.4033)" gradientUnits="userSpaceOnUse" r="19.241899" xlink:href="#t"/><radialGradient id="aU" cx="3769.2778" cy="5166.0146" gradientTransform="matrix(0 -1 1 0 -5135.66355 5025.32025)" gradientUnits="userSpaceOnUse" r="11.2507" xlink:href="#t"/><radialGradient id="aV" cx="3744.1997" cy="5294.7905" gradientTransform="matrix(0 -1 1 0 -5135.66355 5025.32025)" gradientUnits="userSpaceOnUse" r="5.6228" xlink:href="#t"/><radialGradient id="aW" cx="3708.5862" cy="5201.6836" gradientTransform="matrix(0 -1 1 0 -5135.66355 5025.32025)" gradientUnits="userSpaceOnUse" r="11.2507" xlink:href="#t"/><radialGradient id="aX" cx="3627.8457" cy="5177.2656" gradientTransform="matrix(0 -1 1 0 -5135.66355 5025.32025)" gradientUnits="userSpaceOnUse" r="11.2507" xlink:href="#t"/><radialGradient id="aY" cx="5169.9678" cy="4918.6069" gradientTransform="matrix(0 1 -1 0 5224.5762 -3824.5764)" gradientUnits="userSpaceOnUse" r="11.2507" xlink:href="#t"/><g><path d="m88.512195 101.68369c-8.832879 0-16.628055.28701-25.506672 1.2403-5.058128.54309-10.520569 1.31186-15.56669 2.55887-1.735965.42899-3.191576.96926-4.357691 1.50722-3.111072 1.43523-6.374914 3.1101-7.286247 4.72848-1.346168 2.39057.206447 4.58481 3.837731 5.9952 5.483099 2.12965 13.766744 2.95226 24.99628 2.95226s21.58317-.82261 32.42524-2.95226c7.180364-1.41039 14.253094-3.60463 18.922514-5.9952 3.16112-1.61838 4.11323-3.29325 4.61376-4.72848.18759-.53796.0901-1.07823-.56637-1.50722-1.90818-1.24701-5.43611-2.01578-9.12763-2.55887-6.47978-.95329-13.551344-1.2403-22.384225-1.2403z" filter="url(#b)" opacity=".5" transform="matrix(1.1591707 0 0 1.1591707 -10.494081 -18.505285)"/><g transform="matrix(0 1 -1 0 132.291673 -.000003)"><g mask="url(#o)" stroke-width=".104701" transform="matrix(.90251643 0 0 1 12.906639 0)"><path d="m-16.763244-16.763244c-67.65774 67.657739-96.043756 148.969874-63.396059 181.617564 32.647695 32.64769 113.959825 4.26168 181.617563-63.39606 67.65774-67.657738 96.04375-148.969868 63.39606-181.617563-32.64769-32.647697-113.959825-4.261681-181.617564 63.396059z" fill="url(#r)" opacity=".3"/><path d="m30.833409 30.833409c-67.65774 67.657739-96.043753 148.969871-63.396059 181.617561 32.64769465 32.6477 113.959825 4.26168 181.61756-63.39606 67.65774-67.657735 96.04376-148.96986535 63.39606-181.61756-32.64769-32.647694-113.959822-4.261681-181.617561 63.396059z" fill="url(#s)" opacity=".3"/></g><g opacity=".8" transform="matrix(.09660557 0 0 .09518071 -1.845166 -1.798916)"><circle cx="339.10001" cy="1021.2" fill="url(#u)" opacity=".5" r="11.3"/><circle cx="419.60001" cy="439.70001" fill="url(#v)" opacity=".5" r="11.3"/><circle cx="553.20001" cy="199.5" fill="url(#w)" opacity=".5" r="11.3"/><circle cx="420.60001" cy="331.5" fill="url(#x)" opacity=".5" r="5.6"/><circle cx="206.5" cy="377.10001" fill="url(#y)" opacity=".5" r="5.6"/><circle cx="308" cy="931" fill="url(#z)" opacity=".5" r="5.6"/><circle cx="549.29999" cy="1170.2" fill="url(#A)" opacity=".5" r="5.6"/><circle cx="529" cy="839.90002" fill="url(#B)" opacity=".5" r="11.3"/><circle cx="542.70001" cy="1069.7" fill="url(#C)" opacity=".5" r="11.3"/><circle cx="419.60001" cy="933" fill="url(#D)" opacity=".5" r="11.3"/><circle cx="208.5" cy="608.79999" fill="url(#E)" opacity=".5" r="11.3"/><circle cx="498.60001" cy="547" fill="url(#F)" opacity=".5" r="11.3"/><circle cx="480.89999" cy="686.29999" fill="url(#G)" opacity=".5" r="11.3"/><circle cx="538" cy="444.89999" fill="url(#H)" opacity=".5" r="11.3"/><circle cx="341.10001" cy="248" fill="url(#I)" opacity=".5" r="11.3"/><circle cx="360.60001" cy="841.90002" fill="url(#J)" opacity=".5" r="7.1"/><circle cx="384.5" cy="1069.7" fill="url(#K)" opacity=".5" r="7.1"/><circle cx="415" cy="1149.7" fill="url(#L)" opacity=".5" r="7.1"/><circle cx="226.89999" cy="764.59998" fill="url(#M)" opacity=".5" r="7.1"/><circle cx="404.29999" cy="522.79999" fill="url(#N)" opacity=".5" r="7.1"/><circle cx="294.70001" cy="1083.7" fill="url(#O)" opacity=".5" r="11.3"/><circle cx="210.5" cy="1163" fill="url(#P)" opacity=".5" r="11.3"/><circle cx="411.5" cy="167" fill="url(#Q)" opacity=".5" r="11.3"/><circle cx="165.10001" cy="203.10001" fill="url(#R)" opacity=".5" r="11.3"/><circle cx="197.3" cy="858.5" fill="url(#S)" opacity=".5" r="11.3"/><ellipse cx="324" cy="638.5" fill="url(#T)" rx="29.700001" ry="8.6"/><ellipse cx="324" cy="638.5" fill="url(#U)" rx="8.6" ry="29.700001"/><ellipse cx="195.3" cy="989.70001" fill="url(#V)" rx="29.700001" ry="8.6"/><ellipse cx="195.3" cy="989.70001" fill="url(#W)" rx="8.6" ry="29.700001"/><ellipse cx="249.5" cy="300.29999" fill="url(#X)" rx="29.700001" ry="8.6"/><ellipse cx="249.5" cy="300.29999" fill="url(#Y)" rx="8.6" ry="29.700001"/><ellipse cx="321.79999" cy="377.20001" fill="url(#Z)" rx="19.200001" ry="5.6"/><ellipse cx="321.79999" cy="377.20001" fill="url(#aa)" rx="5.6" ry="19.200001"/><ellipse cx="548.29999" cy="996.29999" fill="url(#ab)" rx="19.200001" ry="5.6"/><ellipse cx="548.29999" cy="996.29999" fill="url(#ac)" rx="5.6" ry="19.200001"/><ellipse cx="450.10001" cy="795.79999" fill="url(#ad)" rx="19.200001" ry="5.6"/><ellipse cx="450.10001" cy="795.79999" fill="url(#ae)" rx="5.6" ry="19.200001"/><ellipse cx="353.5" cy="747.5" fill="url(#af)" rx="19.200001" ry="5.6"/><ellipse cx="353.5" cy="747.5" fill="url(#ag)" rx="5.6" ry="19.200001"/><ellipse cx="542" cy="297" fill="url(#ah)" rx="19.200001" ry="5.6"/><ellipse cx="542" cy="297" fill="url(#ai)" rx="5.6" ry="19.200001"/><circle cx="1023.5" cy="132.7" fill="url(#aj)" opacity=".5" r="11.3"/><circle cx="549.29999" cy="130.7" fill="url(#ak)" opacity=".5" r="5.6"/><circle cx="943.29999" cy="56.099998" fill="url(#al)" opacity=".5" r="5.6"/><circle cx="542.70001" cy="30.200001" fill="url(#am)" opacity=".5" r="11.3"/><circle cx="863.59998" cy="121.5" fill="url(#an)" opacity=".5" r="11.3"/><circle cx="384.5" cy="30.200001" fill="url(#ao)" opacity=".5" r="7.1"/><circle cx="415" cy="110.2" fill="url(#ap)" opacity=".5" r="7.1"/><circle cx="294.70001" cy="44.099998" fill="url(#aq)" opacity=".5" r="11.3"/><ellipse cx="653.29999" cy="188.2" fill="url(#ar)" rx="29.700001" ry="8.6"/><ellipse cx="653.29999" cy="188.2" fill="url(#as)" rx="8.6" ry="29.700001"/><ellipse cx="712.5" cy="102" fill="url(#at)" rx="19.200001" ry="5.6"/><ellipse cx="712.5" cy="102" fill="url(#au)" rx="5.6" ry="19.200001"/><ellipse cx="1001.5" cy="1357.8" fill="url(#av)" rx="19.200001" ry="5.6"/><ellipse cx="1001.5" cy="1357.8" fill="url(#aw)" rx="5.6" ry="19.200001"/><circle cx="39.599998" cy="774.90002" fill="url(#ax)" opacity=".5" r="11.3"/><circle cx="77.300003" cy="121.6" fill="url(#ay)" opacity=".5" r="5.6"/><circle cx="127.2" cy="33.400002" fill="url(#az)" opacity=".5" r="5.6"/><circle cx="98.5" cy="861.90002" fill="url(#aA)" opacity=".5" r="7.1"/><circle cx="88.5" cy="691.79999" fill="url(#aB)" opacity=".5" r="11.3"/><ellipse cx="90.900002" cy="240.10001" fill="url(#aC)" rx="19.200001" ry="5.6"/><ellipse cx="90.900002" cy="240.10001" fill="url(#aD)" rx="5.6" ry="19.200001"/><circle cx="47" cy="996.40002" fill="url(#aE)" opacity=".5" r="11.3"/><circle cx="77.300003" cy="1161.1" fill="url(#aF)" opacity=".5" r="5.6"/><circle cx="127.2" cy="1073" fill="url(#aG)" opacity=".5" r="5.6"/><circle cx="306" cy="534.09998" fill="url(#aH)" opacity=".5" r="11.3"/><circle cx="419.60001" cy="1251" fill="url(#aI)" opacity=".5" r="11.3"/><circle cx="751.5" cy="1368" fill="url(#aJ)" opacity=".5" r="5.6"/><circle cx="498.60001" cy="1358.3" fill="url(#aK)" opacity=".5" r="11.3"/><circle cx="538" cy="1256.1" fill="url(#aL)" opacity=".5" r="11.3"/><circle cx="404.29999" cy="1334.1" fill="url(#aM)" opacity=".5" r="7.1"/><circle cx="169.10001" cy="1319.4" fill="url(#aN)" opacity=".5" r="11.3"/><ellipse cx="847.79999" cy="1373.6" fill="url(#aO)" rx="29.700001" ry="8.6"/><ellipse cx="847.79999" cy="1373.6" fill="url(#aP)" rx="8.6" ry="29.700001"/><ellipse cx="321.79999" cy="1188.5" fill="url(#aQ)" rx="19.200001" ry="5.6"/><ellipse cx="321.79999" cy="1188.5" fill="url(#aR)" rx="5.6" ry="19.200001"/><ellipse cx="649.79999" cy="1377" fill="url(#aS)" rx="19.200001" ry="5.6"/><ellipse cx="649.79999" cy="1377" fill="url(#aT)" rx="5.6" ry="19.200001"/><circle cx="30.4" cy="1256" fill="url(#aU)" opacity=".5" r="11.3"/><circle cx="159.10001" cy="1281.1" fill="url(#aV)" opacity=".5" r="5.6"/><circle cx="66" cy="1316.7" fill="url(#aW)" opacity=".5" r="11.3"/><circle cx="41.599998" cy="1397.5" fill="url(#aX)" opacity=".5" r="11.3"/><circle cx="306" cy="1345.4" fill="url(#aY)" opacity=".5" r="11.3"/><g fill="#f5fbff"><circle cx="339.10001" cy="1021.2" r="2"/><circle cx="419.60001" cy="439.70001" r="2"/><circle cx="553.20001" cy="199.5" r="2"/><circle cx="420.60001" cy="331.5" r="1"/><circle cx="206.5" cy="377.10001" r="1"/><circle cx="308" cy="931" r="1"/><circle cx="549.29999" cy="1170.2" r="1"/><circle cx="529" cy="839.90002" r="2"/><circle cx="542.70001" cy="1069.7" r="2"/><circle cx="419.60001" cy="933" r="2"/><circle cx="208.5" cy="608.79999" r="2"/><circle cx="498.60001" cy="547" r="2"/><circle cx="480.89999" cy="686.29999" r="2"/><circle cx="538" cy="444.89999" r="2"/><circle cx="341.10001" cy="248" r="2"/><circle cx="360.60001" cy="841.90002" r="1.3"/><circle cx="384.5" cy="1069.7" r="1.3"/><circle cx="415" cy="1149.7" r="1.3"/><circle cx="226.89999" cy="764.59998" r="1.3"/><circle cx="404.29999" cy="522.79999" r="1.3"/><circle cx="294.70001" cy="1083.7" r="2"/><circle cx="210.5" cy="1163" r="2"/><circle cx="411.5" cy="167" r="2"/><circle cx="165.10001" cy="203.10001" r="2"/><circle cx="197.3" cy="858.5" r="2"/><circle cx="324" cy="638.5" r="3.4"/><circle cx="195.3" cy="989.70001" r="3.4"/><circle cx="249.5" cy="300.29999" r="3.4"/><circle cx="321.79999" cy="377.20001" r="2.2"/><circle cx="548.29999" cy="996.29999" r="2.2"/><circle cx="450.10001" cy="795.79999" r="2.2"/><circle cx="353.5" cy="747.5" r="2.2"/><circle cx="542" cy="297" r="2.2"/><circle cx="1023.5" cy="132.7" r="2"/><circle cx="549.29999" cy="130.7" r="1"/><circle cx="943.29999" cy="56.099998" r="1"/><circle cx="542.70001" cy="30.200001" r="2"/><circle cx="863.59998" cy="121.5" r="2"/><circle cx="384.5" cy="30.200001" r="1.3"/><circle cx="415" cy="110.2" r="1.3"/><circle cx="294.70001" cy="44.099998" r="2"/><circle cx="653.29999" cy="188.2" r="3.4"/><circle cx="712.5" cy="102" r="2.2"/><circle cx="1001.5" cy="1357.8" r="2.2"/><circle cx="39.599998" cy="774.90002" r="2"/><circle cx="77.300003" cy="121.6" r="1"/><circle cx="127.2" cy="33.400002" r="1"/><circle cx="98.5" cy="861.90002" r="1.3"/><circle cx="88.5" cy="691.79999" r="2"/><circle cx="90.900002" cy="240.10001" r="2.2"/><circle cx="47" cy="996.40002" r="2"/><circle cx="77.300003" cy="1161.1" r="1"/><circle cx="127.2" cy="1073" r="1"/><circle cx="306" cy="534.09998" r="2"/><circle cx="419.60001" cy="1251" r="2"/><circle cx="751.5" cy="1368" r="1"/><circle cx="498.60001" cy="1358.3" r="2"/><circle cx="538" cy="1256.1" r="2"/><circle cx="404.29999" cy="1334.1" r="1.3"/><circle cx="169.10001" cy="1319.4" r="2"/><circle cx="847.79999" cy="1373.6" r="3.4"/><circle cx="321.79999" cy="1188.5" r="2.2"/><circle cx="649.79999" cy="1377" r="2.2"/><circle cx="30.4" cy="1256" r="2"/><circle cx="159.10001" cy="1281.1" r="1"/><circle cx="66" cy="1316.7" r="2"/><circle cx="41.599998" cy="1397.5" r="2"/><circle cx="306" cy="1345.4" r="2"/></g></g></g><g transform="translate(0 .701214)"><path d="m64.628906 49.134766c-12.336063 0-22.718539 1.081519-33.443359 4.673828-6.109903 2.04653-12.387919 4.943479-17.244141 9.642578-1.670637 1.616583-2.754198 3.652481-3.4375 5.679687-1.8229745 5.408386-3.4382181 11.719802-1.8671872 17.81836 2.3206392 9.008447 8.3447222 17.277001 15.8945312 22.591801 11.39993 8.02516 24.414407 11.125 40.097656 11.125 15.68325 0 28.69773-3.09984 40.097654-11.125 7.54981-5.3148 13.57195-13.583352 15.89258-22.591801 1.57104-6.098559-.0423-12.409975-1.86523-17.81836-.6833-2.027209-1.76882-4.063106-3.43946-5.679687-4.85622-4.699099-11.13423-7.596048-17.244138-9.642578-10.724819-3.592309-21.105342-4.673828-33.441406-4.673828z" fill="#c9c4ad"/><path d="m25.749053 107.81021c-7.130758-5.01981-12.887244-12.945244-15.06267-21.389988-1.3897175-5.394718.0434-11.333808 1.822772-16.612833.600562-1.781735 1.553369-3.527883 2.90457-4.835365 4.508653-4.362774 10.495414-7.163529 16.444456-9.156178 10.457716-3.502843 20.556545-4.563571 32.770068-4.563571 12.213522 0 22.312352 1.060728 32.770067 4.563571 5.949044 1.992649 11.935804 4.793404 16.444454 9.156178 1.3512 1.307482 2.30401 3.05363 2.90457 4.835365 1.77937 5.279025 3.21249 11.218115 1.82277 16.612833-2.17543 8.444744-7.93191 16.370178-15.06267 21.389988-10.994094 7.73946-23.470652 10.73932-38.879191 10.73932-15.40854 0-27.885101-2.99986-38.879196-10.73932z" fill="url(#n)" filter="url(#a)"/><path d="m25.749053 107.81021c-7.130758-5.01981-12.887244-12.945244-15.06267-21.389988-1.3897175-5.394718.0434-11.333808 1.822772-16.612833.600562-1.781735 1.553369-3.527883 2.90457-4.835365 4.508653-4.362774 10.495414-7.163529 16.444456-9.156178 10.457716-3.502843 20.556545-4.563571 32.770068-4.563571 12.213522 0 22.312352 1.060728 32.770067 4.563571 5.949044 1.992649 11.935804 4.793404 16.444454 9.156178 1.3512 1.307482 2.30401 3.05363 2.90457 4.835365 1.77937 5.279025 3.21249 11.218115 1.82277 16.612833-2.17543 8.444744-7.93191 16.370178-15.06267 21.389988-10.994094 7.73946-23.470652 10.73932-38.879191 10.73932-15.40854 0-27.885101-2.99986-38.879196-10.73932z" fill="url(#l)"/><g opacity=".75" stroke-width=".845979" transform="matrix(1.3972698 0 0 1.000003 -27.811249 1.455483)"><path d="m105.11429 81.012275c0 18.23606-16.74591 36.081345-39.053693 36.081345-22.306975 0-38.860429-17.833335-38.860429-36.081345 0-4.67889.862076-9.53464 4.043422-13.17664 1.143455-1.115536 1.685847-1.529523 3.1758-2.475585 2.062713-1.309728 4.38547-2.409622 6.857484-3.098748 8.039981-2.241325 15.137607-3.161202 24.880395-3.161043 9.742823-.000164 16.670825.919713 24.710807 3.161035 2.471977.689129 4.79477 1.789023 6.857472 3.09875 1.489965.946063 1.958528 1.423537 3.246722 2.553309 3.0319 3.66128 4.14202 8.466022 4.14202 13.098922z" fill="url(#c)" opacity="1"/><g opacity="1"><path d="m66.157265 59.10027c-9.382319-.02889-18.950043.994103-27.592814 4.098939-3.14278 1.442298-6.483577 3.138761-8.200693 5.830968-.703096 2.355702 2.197771 4.139681 4.055616 5.582325 4.654049 3.304283 10.924261 4.312297 16.79783 5.264663 8.733611 1.098072 17.656404 1.082478 26.43787.388346 5.772135-.61662 11.620328-1.602962 16.835041-3.78395 2.942395-1.522217 6.073895-3.384347 7.362825-6.133438.45913-1.989981-1.95971-3.440648-3.569193-4.627668-5.046838-3.503095-11.706674-4.679354-18.025501-5.729318-4.651227-.672477-9.383058-.892702-14.100981-.890867zm19.131976 12.439278c-1.999338 1.886449-5.149154 2.540234-7.953887 3.268343-6.792921 1.317438-14.073459 1.582549-20.833143.0057-2.080083-.52922-4.554978-1.149629-5.543222-2.8552-.571287-1.177608-.279127-2.470579 1.060858-3.245295 4.3169-2.785161 10.02254-3.477007 15.349795-3.863226 1.349711-.07282 2.703305-.100199 5.709922-.0082 3.006616.09201 8.060184.437168 11.939866 2.771052 1.63658.899988 1.815754 2.916879.269811 3.926826z" fill="url(#f)" fill-rule="evenodd"/><path d="m55.681214 59.553472c-4.98825.476484-9.524334 1.347348-14.404651 2.707845-2.472012.689126-4.794479 1.788796-6.857189 3.098519-1.489952.946064-2.990007 2.009322-3.878662 3.369821-.250392.383449-.467479.845494-.357145 1.270723.488088 1.880588 2.471401 3.341223 4.235807 4.612122 1.973807 1.421748 4.367991 2.497874 6.857189 3.193603 8.024439 2.242848 15.155037 2.92451 24.880702 2.92437-10.387449-.0067-17.489767-.821711-24.880702-4.392497-2.942069-1.421409-6.68958-3.543324-6.709274-6.337081-.01983-2.831447 3.738557-5.030669 6.709274-6.486426 4.593773-2.251115 9.141185-3.407064 14.404651-3.960999zm10.476051 21.177003c9.725689.00013 16.686224-.681522 24.710663-2.92437 2.489198-.695729 4.884027-1.771855 6.857822-3.193603 1.764381-1.270909 3.74775-2.731544 4.23581-4.612122.11033-.425229-.1067-.887264-.35715-1.270723-.88862-1.360499-2.388696-2.423757-3.87866-3.369821-2.062698-1.309723-4.385847-2.409393-6.857822-3.098519-4.867596-1.356951-9.330374-2.226922-14.254207-2.704227 5.199035.55537 9.67058 1.71125 14.254207 3.957381 2.970717 1.455758 6.729601 3.654472 6.709907 6.485909-.01955 2.793757-3.767838 4.916189-6.709907 6.337598-7.390971 3.570776-14.323213 4.385497-24.710663 4.392497z" fill="url(#g)" fill-rule="evenodd"/><path d="m98.67513 143.10175c-4.073008-7.11268-5.902024-10.17981-4.554093-21.06644 5.167592-37.637273 80.133443-72.401002 165.588363-78.956454s237.49701 15.669747 205.0637 83.247904c-45.35772 84.71124-147.86984 109.42504-240.65762 119.56058 115.50784 5.29926 270.13937-33.94737 270.13937-127.83416 0-60.172637-99.34433-95.422257-215.96524-98.852284-12.05934.368743-24.30465 1.227561-36.64042 2.607624-93.38869 10.443184-171.178444 47.143299-205.59804 91.73339-2.137262 21.31753 23.413376 31.70554 97.13667 55.86846-16.28155-7.02184-28.27701-15.96935-34.51269-26.30862z" fill="url(#h)" opacity=".9" transform="matrix(.0881175 .00230727 -.0026132 .07780169 46.548996 60.842119)"/><path d="m-82.907542 4.314804c2.25901-.1659011 4.478259-.2549419 6.644707-.2719924l-.000262.0005291c20.94388-.1672539 36.987304 6.4049293 36.987304 15.7603553 0 1.280121-.300946 2.552931-.87335 3.80328l-2.946697 4.135626c-1.791629 1.838176-4.164049 3.582712-7.008447 5.18002l-6.44038 3.0417c-7.324272 2.921001-16.455879 5.008436-26.362861 5.735916-10.199291.749131-22.065452.285218-33.276602-4.1597-19.39025-6.355191-26.10956-9.085877-25.54743-14.692694 4.98246-13.3329984 24.75257-25.4048244 50.301892-29.8638616-26.008332 1.9978529-58.265692 13.1354332-58.265692 32.0389826 0 17.614231 31.83112 29.186723 66.438957 25.314974 24.56232-2.746981 45.231761-12.399846 54.28407-24.127952 8.530418-17.7740231-32.100953-30.5733387-53.935209-21.895183z" fill="url(#i)" opacity=".9" transform="matrix(.33502992 .00877244 -.00993559 .29580809 97.140485 64.244028)"/></g></g><path d="m25.749053 107.81021c-7.130758-5.01981-13.280099-14.470257-15.06267-21.389988s1.822772-16.612833 1.822772-16.612833 9.535948 5.669128 14.776307 7.335854c12.006121 3.818615 24.744026 5.837396 37.342787 5.837396 12.598759 0 25.336661-2.018782 37.342781-5.837396 5.24036-1.666726 14.77631-7.335854 14.77631-7.335854s3.60534 9.693101 1.82277 16.612833-7.93191 16.370178-15.06267 21.389988c-10.994094 7.73946-25.43414 10.73932-38.879191 10.73932-13.445052 0-27.885101-2.99986-38.879196-10.73932z" fill="url(#m)"/><path d="m25.749053 107.81021c-7.130758-5.01981-13.280099-14.470257-15.06267-21.389988s1.822772-16.612833 1.822772-16.612833 9.535948 5.669128 14.776307 7.335854c12.006121 3.818615 24.744026 5.837396 37.342787 5.837396 12.598759 0 25.336661-2.018782 37.342781-5.837396 5.24036-1.666726 14.77631-7.335854 14.77631-7.335854s3.60534 9.693101 1.82277 16.612833-7.93191 16.370178-15.06267 21.389988c-10.994094 7.73946-25.43414 10.73932-38.879191 10.73932-13.445052 0-27.885101-2.99986-38.879196-10.73932z" fill="url(#k)" opacity=".5"/><g fill="#c9c4ad"><path d="m13.689266 73.115537c2.804354 1.629241 8.396895 4.655469 12.955265 6.044619 12.258613 3.735777 25.169165 5.9375 37.984375 5.9375 12.815211 0 25.717905-2.227601 37.984374-5.9375 4.55826-1.37861 10.16899-4.357348 12.97203-5.985902l3.1686-4.043395-3.0879-1.142578s-9.24968 5.517656-14.33594 7.138672c-11.797584 3.759946-24.318921 5.736328-36.701174 5.736328s-24.903487-1.976702-36.701172-5.736328c-5.086861-1.621055-14.33789-7.138672-14.33789-7.138672l-3.101702 1.189453z"/><path d="m64.628906 49.134766c-12.336063 0-22.718539 1.081519-33.443359 4.673828-6.109903 2.04653-12.387919 4.943479-17.244141 9.642578-1.670637 1.616583-2.571676 3.679242-3.453274 5.726562-.9201187 2.136777-1.5532328 4.420042-1.86555 6.725446-.494294 3.648687-.9186628 7.42502.014137 11.046039 2.320638 9.008447 8.344722 17.277001 15.894531 22.591801 11.39993 8.02516 24.414407 11.125 40.097656 11.125 15.68325 0 28.69773-3.09984 40.097654-11.125 7.54981-5.3148 13.57193-13.583357 15.89258-22.591801.78552-3.049279.48958-7.524795-.0228-11.234376-.30957-2.24123-.91518-3.832916-1.82666-6.537109-.6833-2.027211-1.78459-4.109981-3.45523-5.726562-4.85622-4.699099-11.13423-7.596048-17.244138-9.642578-10.724819-3.592309-21.105342-4.673828-33.441406-4.673828zm0 4.234375c12.090958 0 21.907065 1.039757 32.097656 4.453125 5.788168 1.938764 11.483458 4.643481 15.644528 8.669921 1.03177.99838 1.85328 2.455931 2.3711 3.992188 1.73576 5.149655 2.98574 10.717335 1.77734 15.408203-2.0302 7.881022-7.51877 15.462702-14.23047 20.187502-10.588231 7.45376-22.526355 10.35351-37.660154 10.35351s-27.073872-2.89975-37.662109-10.35351c-6.711695-4.7248-12.200262-12.306478-14.230469-20.187502-1.2084-4.690869.04353-10.258549 1.779297-15.408203.517821-1.53626 1.337379-2.993809 2.369141-3.992188 4.161072-4.02644 9.858315-6.731157 15.646484-8.669921 10.190591-3.413368 20.006699-4.453125 32.097656-4.453125z"/></g></g></g></svg>