<svg height="500" viewBox="0 0 500 500" width="500" xmlns="http://www.w3.org/2000/svg" xmlns:xlink="http://www.w3.org/1999/xlink"><linearGradient id="a" gradientUnits="userSpaceOnUse" x1="234.3302" x2="254.62904" y1="265.18008" y2="244.12981"><stop offset="0" stop-color="#2d2834"/><stop offset=".15026954" stop-color="#2d2834" stop-opacity=".498039"/><stop offset=".45417789" stop-color="#2d2834" stop-opacity="0"/><stop offset=".55000001" stop-color="#2d2834" stop-opacity="0"/><stop offset=".89824796" stop-color="#2d2834" stop-opacity=".498039"/><stop offset="1" stop-color="#2d2834"/></linearGradient><filter id="b" color-interpolation-filters="sRGB" height="1.116547" width="1.096254" x="-.048127" y="-.058273"><feGaussianBlur stdDeviation=".82331302"/></filter><filter id="c" color-interpolation-filters="sRGB" height="1.158375" width="1.133051" x="-.066525" y="-.079188"><feGaussianBlur stdDeviation=".82331302"/></filter><filter id="d" color-interpolation-filters="sRGB" height="1.190404" width="1.136951" x="-.068476" y="-.095202"><feGaussianBlur stdDeviation=".82331302"/></filter><filter id="e" color-interpolation-filters="sRGB" height="1.112887" width="1.234517" x="-.117259" y="-.056443"><feGaussianBlur stdDeviation=".8225589"/></filter><filter id="f" color-interpolation-filters="sRGB" height="1.207031" width="1.24384" x="-.12192" y="-.103516"><feGaussianBlur stdDeviation=".82331302"/></filter><radialGradient id="g" cx="1108.8834" cy="-2738.6934" gradientTransform="matrix(.01703685 .17792689 -.26144218 .02503362 66.957229 250.97557)" gradientUnits="userSpaceOnUse" r="103.64714" spreadMethod="reflect"><stop offset="0" stop-color="#ceb397"/><stop offset="1" stop-color="#c8ab93"/></radialGradient><filter id="h" color-interpolation-filters="sRGB" height="1.150074" width="1.149926" x="-.074963" y="-.075037"><feGaussianBlur stdDeviation="15.678568"/></filter><radialGradient id="i" cx="4601.1221" cy="4277.6772" gradientTransform="matrix(0 .14277106 -.14490835 0 721.24408 -581.81013)" gradientUnits="userSpaceOnUse" r="11.2507" xlink:href="#j"/><linearGradient id="j"><stop offset="0" stop-color="#eee5ff"/><stop offset=".5" stop-color="#f9f5ff" stop-opacity=".86"/><stop offset="1" stop-color="#f9f5ff" stop-opacity="0"/></linearGradient><radialGradient id="k" cx="4694.3481" cy="4395.814" gradientTransform="matrix(0 .14277106 -.14490835 0 721.24408 -581.81013)" gradientUnits="userSpaceOnUse" r="11.2507" xlink:href="#j"/><radialGradient id="l" cx="4845.7568" cy="4885.4878" gradientTransform="matrix(0 .14277106 -.14490835 0 721.24408 -581.81013)" gradientUnits="userSpaceOnUse" r="11.2507" xlink:href="#j"/><radialGradient id="m" cx="4996.8203" cy="4201.0781" gradientTransform="matrix(0 .14277106 -.14490835 0 721.24408 -582.71669)" gradientUnits="userSpaceOnUse" r="11.2507" xlink:href="#j"/><radialGradient id="n" cx="4264.2671" cy="4804.9849" gradientTransform="matrix(0 .14277106 -.14490835 0 721.24408 -581.81013)" gradientUnits="userSpaceOnUse" r="11.2507" xlink:href="#j"/><radialGradient id="o" cx="4253.0161" cy="4349.7529" gradientTransform="matrix(0 .14277106 -.14490835 0 721.24408 -581.81013)" gradientUnits="userSpaceOnUse" r="11.2507" xlink:href="#j"/><radialGradient id="p" cx="4291.9346" cy="4509.8506" gradientTransform="matrix(0 .14277106 -.14490835 0 721.24408 -581.81013)" gradientUnits="userSpaceOnUse" r="11.2507" xlink:href="#j"/><radialGradient id="q" cx="4178.7915" cy="4193.6758" gradientTransform="matrix(0 .14277106 -.14490835 0 721.24408 -581.81013)" gradientUnits="userSpaceOnUse" r="11.2507" xlink:href="#j"/><radialGradient id="r" cx="4508.9131" cy="4184.4229" gradientTransform="matrix(0 .14277106 -.14490835 0 721.24408 -581.81013)" gradientUnits="userSpaceOnUse" r="11.2507" xlink:href="#j"/><radialGradient id="s" cx="4169.5386" cy="4599.0166" gradientTransform="matrix(0 .14277106 -.14490835 0 721.24408 -581.81013)" gradientUnits="userSpaceOnUse" r="11.2507" xlink:href="#j"/><radialGradient id="t" cx="4381.2778" cy="4473.0386" gradientTransform="matrix(0 .14277106 -.14490835 0 721.24408 -581.81013)" gradientUnits="userSpaceOnUse" r="5.6228" xlink:href="#j"/><radialGradient id="u" cx="4207.3452" cy="4447.1753" gradientTransform="matrix(0 .14277106 -.14490835 0 721.24408 -581.81013)" gradientUnits="userSpaceOnUse" r="5.6228" xlink:href="#j"/><radialGradient id="v" cx="4156.0269" cy="4803.9863" gradientTransform="matrix(0 .14277106 -.14490835 0 721.24408 -581.81013)" gradientUnits="userSpaceOnUse" r="5.6228" xlink:href="#j"/><radialGradient id="w" cx="4756.5977" cy="4610.2671" gradientTransform="matrix(0 .14277106 -.14490835 0 721.24408 -581.81013)" gradientUnits="userSpaceOnUse" r="5.6228" xlink:href="#j"/><radialGradient id="x" cx="4724.8408" cy="4498.3604" gradientTransform="matrix(0 .14277106 -.14490835 0 721.24408 -581.81013)" gradientUnits="userSpaceOnUse" r="5.6228" xlink:href="#j"/><radialGradient id="y" cx="4755.5991" cy="4916.6094" gradientTransform="matrix(0 .14277106 -.14490835 0 721.24408 -581.81013)" gradientUnits="userSpaceOnUse" r="5.6228" xlink:href="#j"/><radialGradient id="z" cx="4815.3223" cy="4406.499" gradientTransform="matrix(0 .14277106 -.14490835 0 721.24408 -581.81013)" gradientUnits="userSpaceOnUse" r="5.6228" xlink:href="#j"/><radialGradient id="A" cx="4840.1343" cy="4528.7949" gradientTransform="matrix(0 .14277106 -.14490835 0 721.24408 -581.81013)" gradientUnits="userSpaceOnUse" r="5.6228" xlink:href="#j"/><radialGradient id="B" cx="4994.8228" cy="4675.311" gradientTransform="matrix(0 .14277106 -.14490835 0 721.24408 -581.81013)" gradientUnits="userSpaceOnUse" r="5.6228" xlink:href="#j"/><radialGradient id="C" cx="4625.9868" cy="4580.4009" gradientTransform="matrix(0 .14277106 -.14490835 0 721.24408 -581.81013)" gradientUnits="userSpaceOnUse" r="5.6228" xlink:href="#j"/><radialGradient id="D" cx="4832.085" cy="4231.3418" gradientTransform="matrix(0 .14277106 -.14490835 0 721.24408 -581.81013)" gradientUnits="userSpaceOnUse" r="5.6228" xlink:href="#j"/><radialGradient id="E" cx="4920.2227" cy="4281.3076" gradientTransform="matrix(0 .14277106 -.14490835 0 721.24408 -581.81013)" gradientUnits="userSpaceOnUse" r="5.6228" xlink:href="#j"/><radialGradient id="F" cx="4483.835" cy="4313.1982" gradientTransform="matrix(0 .14277106 -.14490835 0 721.24408 -581.81013)" gradientUnits="userSpaceOnUse" r="5.6228" xlink:href="#j"/><radialGradient id="G" cx="4664.439" cy="4695.5273" gradientTransform="matrix(0 .14277106 -.14490835 0 721.24408 -581.81013)" gradientUnits="userSpaceOnUse" r="11.2507" xlink:href="#j"/><radialGradient id="H" cx="4894.2646" cy="4681.8555" gradientTransform="matrix(0 .14277106 -.14490835 0 721.24408 -581.81013)" gradientUnits="userSpaceOnUse" r="11.2507" xlink:href="#j"/><radialGradient id="I" cx="4985.5698" cy="4361.0039" gradientTransform="matrix(0 .14277106 -.14490835 0 721.24408 -581.81013)" gradientUnits="userSpaceOnUse" r="11.2507" xlink:href="#j"/><radialGradient id="J" cx="4713.5898" cy="4089.8687" gradientTransform="matrix(0 .14277106 -.14490835 0 721.24408 -581.81013)" gradientUnits="userSpaceOnUse" r="11.2507" xlink:href="#j"/><radialGradient id="K" cx="4757.5957" cy="4804.9849" gradientTransform="matrix(0 .14277106 -.14490835 0 721.24408 -581.81013)" gradientUnits="userSpaceOnUse" r="11.2507" xlink:href="#j"/><radialGradient id="L" cx="4371.5723" cy="4725.9341" gradientTransform="matrix(0 .14277106 -.14490835 0 721.24408 -581.81013)" gradientUnits="userSpaceOnUse" r="11.2507" xlink:href="#j"/><radialGradient id="M" cx="4510.9111" cy="4743.7231" gradientTransform="matrix(0 .14277106 -.14490835 0 721.24408 -581.81013)" gradientUnits="userSpaceOnUse" r="11.2507" xlink:href="#j"/><radialGradient id="N" cx="4269.4331" cy="4686.5615" gradientTransform="matrix(0 .14277106 -.14490835 0 721.24408 -581.81013)" gradientUnits="userSpaceOnUse" r="11.2507" xlink:href="#j"/><radialGradient id="O" cx="4484.8335" cy="4664.189" gradientTransform="matrix(0 .14277106 -.14490835 0 721.24408 -581.81013)" gradientUnits="userSpaceOnUse" r="7.1455" xlink:href="#j"/><radialGradient id="P" cx="4613.2183" cy="4640.4971" gradientTransform="matrix(0 .14277106 -.14490835 0 721.24408 -581.81013)" gradientUnits="userSpaceOnUse" r="7.1455" xlink:href="#j"/><radialGradient id="Q" cx="4091.8" cy="4252.5869" gradientTransform="matrix(0 .14277106 -.14490835 0 721.24408 -581.81013)" gradientUnits="userSpaceOnUse" r="7.1455" xlink:href="#j"/><radialGradient id="R" cx="4666.4365" cy="4863.9521" gradientTransform="matrix(0 .14277106 -.14490835 0 721.24408 -581.81013)" gradientUnits="userSpaceOnUse" r="7.1455" xlink:href="#j"/><radialGradient id="S" cx="4894.2646" cy="4840.1016" gradientTransform="matrix(0 .14277106 -.14490835 0 721.24408 -581.81013)" gradientUnits="userSpaceOnUse" r="7.1455" xlink:href="#j"/><radialGradient id="T" cx="4974.3188" cy="4809.6094" gradientTransform="matrix(0 .14277106 -.14490835 0 721.24408 -581.81013)" gradientUnits="userSpaceOnUse" r="7.1455" xlink:href="#j"/><radialGradient id="U" cx="4347.4258" cy="4820.2441" gradientTransform="matrix(0 .14277106 -.14490835 0 721.24408 -581.81013)" gradientUnits="userSpaceOnUse" r="7.1455" xlink:href="#j"/><radialGradient id="V" cx="4533.5781" cy="4593.1694" gradientTransform="matrix(0 .14277106 -.14490835 0 721.24408 -581.81013)" gradientUnits="userSpaceOnUse" r="7.1455" xlink:href="#j"/><radialGradient id="W" cx="4448.2217" cy="4220.0913" gradientTransform="matrix(0 .14277106 -.14490835 0 721.24408 -581.81013)" gradientUnits="userSpaceOnUse" r="11.2507" xlink:href="#j"/><radialGradient id="X" cx="4908.2451" cy="4929.8579" gradientTransform="matrix(0 .14277106 -.14490835 0 721.24408 -581.81013)" gradientUnits="userSpaceOnUse" r="11.2507" xlink:href="#j"/><radialGradient id="Y" cx="4367.481" cy="4195.6733" gradientTransform="matrix(0 .14277106 -.14490835 0 721.24408 -581.81013)" gradientUnits="userSpaceOnUse" r="11.2507" xlink:href="#j"/><radialGradient id="Z" cx="4526.4326" cy="4089.8687" gradientTransform="matrix(0 .14277106 -.14490835 0 721.24408 -581.81013)" gradientUnits="userSpaceOnUse" r="11.2507" xlink:href="#j"/><radialGradient id="aa" cx="4261.9028" cy="4242.5928" gradientTransform="matrix(0 .14277106 -.14490835 0 721.24408 -581.81013)" gradientUnits="userSpaceOnUse" r="11.2507" xlink:href="#j"/><radialGradient id="ab" cx="16633.223" cy="4517.6021" gradientTransform="matrix(0 .04133223 -.14490835 0 721.24408 -619.22488)" gradientUnits="userSpaceOnUse" r="19.241899" xlink:href="#j"/><radialGradient id="ac" cx="-15595.086" cy="5031.6465" gradientTransform="matrix(.04195096 0 0 .14277106 720.77537 -650.17277)" gradientUnits="userSpaceOnUse" r="19.241899" xlink:href="#j"/><radialGradient id="ad" cx="16323.169" cy="4900.5503" gradientTransform="matrix(0 .04133223 -.14490835 0 721.24408 -619.22488)" gradientUnits="userSpaceOnUse" r="29.7325" xlink:href="#j"/><radialGradient id="ae" cx="-16917.998" cy="4941.8945" gradientTransform="matrix(.04195096 0 0 .14277106 720.77537 -650.17277)" gradientUnits="userSpaceOnUse" r="29.7325" xlink:href="#j"/><radialGradient id="af" cx="16788.486" cy="4380.1377" gradientTransform="matrix(0 .04133223 -.14490835 0 721.24408 -619.22488)" gradientUnits="userSpaceOnUse" r="29.7325" xlink:href="#j"/><radialGradient id="ag" cx="-15120.208" cy="5076.5913" gradientTransform="matrix(.04195096 0 0 .14277106 720.77537 -650.17277)" gradientUnits="userSpaceOnUse" r="29.7325" xlink:href="#j"/><radialGradient id="ah" cx="15052.254" cy="4385.373" gradientTransform="matrix(0 .04133223 -.14490835 0 721.24408 -617.84714)" gradientUnits="userSpaceOnUse" r="29.7325" xlink:href="#j"/><radialGradient id="ai" cx="-15138.295" cy="4573.998" gradientTransform="matrix(.04195096 0 0 .14277106 720.77537 -648.79503)" gradientUnits="userSpaceOnUse" r="29.7325" xlink:href="#j"/><radialGradient id="aj" cx="16060.047" cy="4376.7666" gradientTransform="matrix(0 .04133223 -.14490835 0 721.24408 -619.22488)" gradientUnits="userSpaceOnUse" r="29.7325" xlink:href="#j"/><radialGradient id="ak" cx="-15108.562" cy="4865.7275" gradientTransform="matrix(.04195096 0 0 .14277106 720.77537 -650.17277)" gradientUnits="userSpaceOnUse" r="29.7325" xlink:href="#j"/><radialGradient id="al" cx="15866.068" cy="4081.2617" gradientTransform="matrix(0 .04133223 -.14490835 0 719.39892 -619.22488)" gradientUnits="userSpaceOnUse" r="29.7325" xlink:href="#j"/><radialGradient id="am" cx="-14087.729" cy="4809.5757" gradientTransform="matrix(.04195096 0 0 .14277106 718.93021 -650.17277)" gradientUnits="userSpaceOnUse" r="29.7325" xlink:href="#j"/><radialGradient id="an" cx="15420.522" cy="4902.7319" gradientTransform="matrix(0 .04133223 -.14490835 0 721.24408 -619.22488)" gradientUnits="userSpaceOnUse" r="19.241899" xlink:href="#j"/><radialGradient id="ao" cx="-16925.533" cy="4680.6021" gradientTransform="matrix(.04195096 0 0 .14277106 720.77537 -650.17277)" gradientUnits="userSpaceOnUse" r="19.241899" xlink:href="#j"/><radialGradient id="ap" cx="17559.291" cy="4676.2856" gradientTransform="matrix(0 .04133223 -.14490835 0 721.24408 -619.22488)" gradientUnits="userSpaceOnUse" r="19.241899" xlink:href="#j"/><radialGradient id="aq" cx="-16143.265" cy="5299.7192" gradientTransform="matrix(.04195096 0 0 .14277106 720.77537 -650.17277)" gradientUnits="userSpaceOnUse" r="19.241899" xlink:href="#j"/><radialGradient id="ar" cx="16866.557" cy="4774.4922" gradientTransform="matrix(0 .04133223 -.14490835 0 721.24408 -619.22488)" gradientUnits="userSpaceOnUse" r="19.241899" xlink:href="#j"/><radialGradient id="as" cx="-16482.523" cy="5099.1909" gradientTransform="matrix(.04195096 0 0 .14277106 720.77537 -650.17277)" gradientUnits="userSpaceOnUse" r="19.241899" xlink:href="#j"/><radialGradient id="at" cx="16071.692" cy="4574.7783" gradientTransform="matrix(0 .04133223 -.14490835 0 721.24408 -619.22488)" gradientUnits="userSpaceOnUse" r="19.241899" xlink:href="#j"/><radialGradient id="au" cx="-15792.604" cy="4869.0986" gradientTransform="matrix(.04195096 0 0 .14277106 720.77537 -650.17277)" gradientUnits="userSpaceOnUse" r="19.241899" xlink:href="#j"/><radialGradient id="av" cx="16699.693" cy="4871.0977" gradientTransform="matrix(0 .04133223 -.14490835 0 721.24408 -619.22488)" gradientUnits="userSpaceOnUse" r="19.241899" xlink:href="#j"/><radialGradient id="aw" cx="-16816.252" cy="5050.8887" gradientTransform="matrix(.04195096 0 0 .14277106 720.77537 -650.17277)" gradientUnits="userSpaceOnUse" r="19.241899" xlink:href="#j"/><radialGradient id="ax" cx="18061.07" cy="4512.0322" gradientTransform="matrix(0 .04133223 -.14490835 0 721.24408 -619.22488)" gradientUnits="userSpaceOnUse" r="19.241899" xlink:href="#j"/><radialGradient id="ay" cx="-15575.844" cy="5444.9717" gradientTransform="matrix(.04195096 0 0 .14277106 720.77537 -650.17277)" gradientUnits="userSpaceOnUse" r="19.241899" xlink:href="#j"/><radialGradient id="az" cx="17188.609" cy="4244.9609" gradientTransform="matrix(0 .04133223 -.14490835 0 721.24408 -619.22488)" gradientUnits="userSpaceOnUse" r="19.241899" xlink:href="#j"/><radialGradient id="aA" cx="-14653.234" cy="5192.417" gradientTransform="matrix(.04195096 0 0 .14277106 720.77537 -650.17277)" gradientUnits="userSpaceOnUse" r="19.241899" xlink:href="#j"/><radialGradient id="aB" cx="15143.32" cy="4682.5854" gradientTransform="matrix(0 .04133223 -.14490835 0 721.24408 -619.22488)" gradientUnits="userSpaceOnUse" r="19.241899" xlink:href="#j"/><radialGradient id="aC" cx="-16165.027" cy="4600.3594" gradientTransform="matrix(.04195096 0 0 .14277106 720.77537 -650.17277)" gradientUnits="userSpaceOnUse" r="19.241899" xlink:href="#j"/><radialGradient id="aD" cx="17652.088" cy="4368.1597" gradientTransform="matrix(0 .04133223 -.14490835 0 721.24408 -619.22488)" gradientUnits="userSpaceOnUse" r="19.241899" xlink:href="#j"/><radialGradient id="aE" cx="-15078.83" cy="5326.5815" gradientTransform="matrix(.04195096 0 0 .14277106 720.77537 -650.17277)" gradientUnits="userSpaceOnUse" r="19.241899" xlink:href="#j"/><radialGradient id="aF" cx="16783.117" cy="4155.2524" gradientTransform="matrix(0 .04133223 -.14490835 0 721.24408 -619.22488)" gradientUnits="userSpaceOnUse" r="19.241899" xlink:href="#j"/><radialGradient id="aG" cx="-14343.332" cy="5075.0371" gradientTransform="matrix(.04195096 0 0 .14277106 720.77537 -650.17277)" gradientUnits="userSpaceOnUse" r="19.241899" xlink:href="#j"/><radialGradient id="aH" cx="4358.6768" cy="4918.6069" gradientTransform="matrix(0 .14277106 -.14490835 0 721.24408 -581.81013)" gradientUnits="userSpaceOnUse" r="11.2507" xlink:href="#j"/><path d="m26.478516.19140625c-6.509031.01212536-13.293776 2.96572455-18.0800785 7.37695315-4.5551516 4.1981916-7.91344513 10.4024466-8.3984375 16.5781246-.42221058 5.376243 2.2180655 10.757953 4.96875 15.396485 31.389309 52.932396 126.96777 134.027341 126.96777 134.027341l126.96778 134.02735c-2.85774.6794-5.53645 1.285-8.25 2.12109-4.98102 1.53474-14.12738.12514-14.70899 5.30469-1.15485 10.28445 17.95365 10.41994 26.14258 16.74804 6.76019 5.22402 13.19925 10.96436 18.82227 17.39649 6.45812 7.38739 12.99229 15.09842 16.91211 24.09375 2.12837 4.88426 2.04966 10.4611 3.33007 15.63281 2.10266 8.49284 2.81116 17.65484 7.14063 25.25781 11.23136 19.72336 27.69412 37.26777 46.89844 49.36524 22.77873 14.34911 50.6737 18.53202 76.83398 24.88867 15.42042 3.74699 31.33848 5.02745 46.97266 7.74805 7.01168 1.22014 15.88379 8.79108 21.00195 3.8457 5.34001-5.15974-2.04759-14.71086-3.25781-22.03711-2.29197-13.8748-4.21978-27.84649-7.58008-41.50195-5.72147-23.25073-9.80402-47.61245-21.35938-68.58399-8.62541-15.65403-20.36467-30.23241-34.75976-40.82617-10.36463-7.62763-23.30595-11.06518-35.50781-15.1543-8.20362-2.74922-17.63709-2.0361-25.19141-6.2539-11.00274-6.14316-20.35998-15.74849-27.00586-26.45508-5.06598-8.16135.53682-25.81249-8.9375-27.39648-1.79258-.2997-2.25145 2.8567-3.28516 4.35156-2.24591 3.24784-2.38282 9.80934-6.32617 10.01562-4.41116.23076-5.29564-7.08233-8.20703-10.40429-2.92012-3.33192-4.91552-10.36921-9.26562-9.5293-7.43838 1.43619-6.63435 13.71567-8.63868 21.02148-.60305 2.19811-.75056 4.25973-.99218 6.76563l-126.88086-132.98535s-76.185833-98.579309-126.880862-132.9853544c-5.783717-3.9253321-12.455359-7.8626306-19.445312-7.84960935z" fill="#7440bf" filter="url(#h)" opacity=".75" stroke-linecap="round" stroke-width="36.9424" transform="matrix(.86622372 0 0 .86620365 32.63345 32.647818)"/><g stroke="#c01c28" stroke-width="32" transform="matrix(.91570082 -.40186069 .40186069 .91570082 -1160.867437 217.051682)"><path d="m326.95475 305.56251c-.73238-23.33987 12.09097-45.85994 10.99647-69.18564-1.00671-21.45474-4.39807-44.35282-16.02881-62.40953-12.51468-19.42905-32.95953-33.93366-54.00956-43.47311-22.8968-10.37636-49.30372-15.79982-74.2857-13.00103-20.65347 2.31386-43.1364 9.06494-57.51355 24.07219-17.85684 18.63943-26.38076 46.84033-26.80878 72.64948-.30925 18.64796 7.86035 37.21135 17.61905 53.10505 10.4268 16.98181 27.12223 29.29752 42.08381 42.46 12.27317 10.79734 27.77798 17.86487 38.94529 29.80239 10.73844 11.47908 20.80617 24.4745 26.10022 39.27506 5.60586 15.6723 5.00927 49.68225 5.00927 49.68225s6.368-20.25243 7.6398-30.731c1.27271-10.48606 1.59397-23.21911-.0666-31.68896 10.35532 17.54575 10.08812 48.15583 2.61662 75.36833 10.03679-11.49834 11.7013-16.61209 15.0191-26.07912 3.26892-9.32752 3.30681-15.66157 4.47948-29.31093 5.0975 14.41079 2.41057 41.0278.45251 63.07227 14.40285-22.03459 16.11061-51.70251 8.78991-86.95325 3.85073 14.1894 6.20098 29.50126 12.40898 43.10258 3.45415 7.56783 13.59432 20.92901 13.59432 20.92901s-4.73602-19.45134-5.57772-29.38596c-.79088-9.33494-1.28763-15.93494.5209-28.10032 2.30101 15.23173 8.09469 27.13062 16.88102 37.75254 6.01612 7.27296 23.22432 16.19995 23.22432 16.19995s-16.34088-20.64748-19.97545-32.97352c-2.17236-7.36721-2.0884-13.16538-.66377-23.03286 5.42037 14.88735 4.86954 19.03052 10.84134 26.45913 6.78686 8.44251 14.83779 18.73143 26.7203 18.49498-5.62642-2.62621-14.66667-12.19085-19.12867-20.36598-5.85066-10.71937-10.57486-25.75742-8.89168-35.5409 2.47731 7.02433 6.0738 19.10811 12.66849 26.23796 4.54943 4.91864 11.66188 7.8798 17.36513 10.12249 0 0-13.51605-17.18327-17.71653-27.13545-7.89242-18.6995-12.67293-39.13125-13.30951-59.4181z" fill="#cdab8f"/><path d="m-40.075278-348.08834s190.080438 487.05259 191.490368 490.66616c1.40992 3.61357 5.8701 8.07368 10.26049 9.88368 4.82805 1.99042 10.62889 1.62312 15.66486.24082 4.27392-1.17312 8.99102-3.19635 11.3272-6.96263 1.32367-2.13394 1.44691-5.54622.68281-7.50236-1.45718-3.73041-189.87967174-486.32567-189.87967174-486.32567s-73.24106626-187.71193-74.47112626-190.86536c-1.23006-3.15342-5.870099-8.07367-10.26049-9.88367-4.828037-1.99042-10.62888-1.62312-15.664852-.24083-4.27392 1.17312-8.99102 3.19635-11.32721 6.96263-1.32366 2.13393-1.48424 5.44832-.6828 7.50236.80143 2.05404 72.860422 186.52487 72.860422 186.52487z" fill="#63452c" stroke-linecap="round"/></g><path d="m333.62046 309.58005-287.696632-301.5390344c-5.214057-4.9692997-12.455359-7.8626306-19.445312-7.84960935-6.509031.01212536-13.293776 2.96572455-18.0800785 7.37695315-4.5551516 4.1981916-7.91361308 10.4024336-8.3984375 16.5781246-.42207178 5.376349.19866204 10.394408 4.9696747 15.396485l292.1055053 308.346641z" fill="#2d2834" stroke-linecap="round"/><path d="m325.35352 318.24609c-1.54763-1.62131-206.91211-216.83593-206.91211-216.83593h.002s-79.848966-83.713951-81.179688-85.109379c-1.364715-1.431071-2.893373-2.23933-4.65625-2.953125-1.762877-.713794-3.693194-1.240333-5.847656-1.189453h-.00005c-4.300309.101557-7.865893 2.197097-10.605469 4.527344-2.256167 1.919064-5.046712 4.682168-5.626953 8.949219-.420711 3.093853.406032 5.416109 2.416015 7.523437.937962.983395 79.376954 83.156247 79.376953 83.156247 0 0 211.316408 221.51794 212.832548 223.10752z" fill="#453c52" stroke-linecap="round" stroke-width="32"/><path d="m325.35352 318.24609c-1.54763-1.62131-206.91211-216.83593-206.91211-216.83593h.002s-79.848966-83.713951-81.179688-85.109379c-1.364715-1.431071-2.893373-2.23933-4.65625-2.953125-1.762877-.713794-3.693194-1.240333-5.847656-1.189453h-.00005c-4.300309.101557-7.865893 2.197097-10.605469 4.527344-2.256167 1.919064-5.046712 4.682168-5.626953 8.949219-.420711 3.093853.406032 5.416109 2.416015 7.523437.937962.983395 79.376954 83.156247 79.376953 83.156247 0 0 211.316408 221.51793 212.832548 223.10751" fill="url(#a)" opacity=".75" stroke-linecap="round" stroke-width="32"/><path d="m309.31653 246.22411s-6.85513 13.65867-8.63842 21.02153c-1.545 6.37901-1.67863 19.61864-1.67863 19.61864s-10.58292-7.22897-16.70649-7.90499c-10.81827-1.19431-31.85031 7.19092-31.85031 7.19092s8.70639 6.79727 11.68044 11.33486c1.68211 2.56644 3.24247 8.61578 3.24247 8.61578s-9.87698 2.15721-14.71055 3.61875c-4.98943 1.50867-14.71054 5.30413-14.71054 5.30413s17.95464 10.41887 26.14373 16.74697c6.76032 5.22402 13.19895 10.96499 18.82193 17.39727 6.45801 7.38749 12.89065 15.2482 16.91211 24.09375 1.4431 3.17423 2.34608 8.53745 3.33007 15.63281.984 7.09537 2.0883 16.04133 7.14063 25.25781 10.84224 19.77851 26.88308 37.5513 46.89844 49.36524 21.2335 12.53294 51.11813 19.69224 76.83398 24.88867s46.97266 7.74805 46.97266 7.74805l21.00195 3.8457-3.25781-22.03711s-2.7222-18.70827-7.58008-41.50195c-4.85788-22.79369-11.3705-49.37086-21.35938-68.58399-8.22065-15.81204-20.06207-30.11956-34.75976-40.82617-12.54577-9.13902-25.78438-11.91057-35.50781-15.1543-11.90215-3.97054-20.7658-4.26316-25.19141-6.2539-14.08335-6.38157-20.35926-15.74859-27.00515-26.45492-5.06613-8.16139-8.9385-27.39649-8.9385-27.39649s-2.25054 2.85682-3.28407 4.35152c-2.24591 3.24808-6.32738 10.01556-6.32738 10.01556s-5.29488-7.08272-8.20612-10.40471c-2.9201-3.3321-9.266-9.52943-9.266-9.52943z" fill="#af9079" stroke-width="32"/><path d="m453.6061 375.25691c-7.11857-13.69223-17.51101-26.18809-29.98453-35.27449-9.08489-6.61793-20.51112-9.3594-31.15053-12.9087-8.72764-2.91153-18.27348-3.05312-26.69048-6.83927-8.09376-3.64074-16.18482-8.25574-22.23323-14.96922-6.40465-7.1089-13.75592-25.5491-13.75592-25.5491s1.2928 12.40066 2.99957 18.33905c1.70799 5.94264 4.41002 12.86962 7.16895 17.03478-9.26312-6.99543-16.0179-23.52853-18.31163-39.93468-2.56041 8.55676-2.26301 11.7013-1.83367 17.57854.42301 5.79064 1.82969 9.20767 4.30122 16.82872-5.85981-6.55017-10.47414-21.50613-14.4329-33.82969-2.42813 15.25683 3.37546 31.62315 15.06798 48.86146-5.17032-6.72545-9.82356-14.40915-16.07085-20.26156-3.47601-3.2563-11.68659-8.051-11.68659-8.051s6.80924 9.34764 9.47784 14.49429c2.50752 4.83599 4.24837 8.26988 6.05956 15.24261-4.60994-7.65222-10.26136-12.68645-17.16062-16.32695-4.72402-2.49269-15.56241-3.23256-15.56241-3.23256s13.03229 7.25098 17.67218 13.02487c2.77324 3.45103 4.03562 6.59061 5.5264 12.23628-6.13276-6.73034-6.78299-9.08968-11.51932-11.67658-5.38275-2.93998-11.82975-6.57495-17.87271-3.64191 3.47787.0845 10.26935 3.09614 14.39917 6.44123 5.41508 4.38613 11.22461 11.36195 12.56382 17.02348-2.85249-3.19453-7.41829-8.84707-12.40692-11.12614-3.44147-1.57226-7.75714-1.48607-11.18807-1.34606 0 0 10.80308 6.05405 15.19883 10.41704 8.25932 8.19779 15.31212 18.06243 20.2063 28.82761 5.63072 12.38527 3.35912 27.82573 9.93555 39.8225 9.55241 17.42558 23.88789 33.17698 41.00127 43.27804 34.87275 20.58342 117.58433 30.5287 117.58433 30.5287s-10.61917-72.92153-27.30259-105.01129z" fill="url(#g)" stroke-width="32"/><g fill-rule="evenodd"><path d="m453.32363 476.10929c-7.91845-5.97305-19.98456-22.04608-19.98456-22.04608l35.03704 24.47017s7.73787 5.33661 5.66838 7.7934c-4.96135 5.88988-14.57282-5.5799-20.72086-10.21749z" fill="#af9079" filter="url(#b)" opacity=".75"/><path d="m467.44219 414.24761c-5.92612-6.64038-12.14605-13.28076-18.30909-19.92114 0 0 10.29138 3.36246 14.48864 6.61312 5.97307 4.62598 18.78211 11.54966 14.26961 17.60892-2.24973 3.02088-10.44916-4.3009-10.44916-4.3009z" fill="#af9079" filter="url(#c)" opacity=".75"/><path d="m364.42695 326.27094c6.94691 3.44964 15.0305 17.76286 15.0305 17.76286l-18.26712-13.22701s-11.53112-1.47623-10.52722-5.26984c1.17537-4.44158 9.6488-1.30943 13.76384.73399z" fill="#af9079" filter="url(#d)" opacity=".75"/><path d="m328.1984 360.05119c2.13487 8.64036 3.27135 14.67368 5.61567 23.42479 0 0-11.59359-11.14136-14.0752-18.4747-1.75027-5.17219-5.20855-14.663-.0255-16.38092 4.50431-1.49296 8.48505 11.43083 8.48505 11.43083z" fill="#af9079" filter="url(#e)" opacity=".75"/><path d="m338.42278 333.14545c-3.29469-3.5712-7.25639-12.64203-7.25639-12.64203l9.75885 10.13033s8.4181 5.90543 6.01744 8.36022c-2.40847 2.46277-6.18412-3.3167-8.5199-5.84852z" fill="#af9079" filter="url(#f)" opacity=".75"/><path d="m362.8543 300.12975c-1.24106 1.84708-5.88662 9.24633-9.11811 13.66822-4.9904 6.82874-9.57033 14.14336-15.83385 19.82703-9.46653 8.59016-21.18448 14.33448-32.14272 20.91649-4.64786 2.79171-12.48481 6.90002-14.23599 7.86785-1.75119.96783.14076 5.24026 1.26739 7.51839 1.3312 2.69177 4.71876 7.35353 6.15095 6.58218 1.14517-.61676 9.67638-4.93737 14.33583-7.72096 12.14703-7.25673 24.98796-13.82821 35.43704-23.36903 7.63817-6.97424 13.26386-15.89338 19.36122-24.24824 3.31902-4.54785 8.40398-12.64452 9.35637-14.06226s-2.83875-5.35656-5.38556-6.62895c-2.74313-1.37047-7.95151-2.1978-9.19257-.35072z" fill="#604785" stroke-linecap="round" stroke-linejoin="round"/></g><g stroke-width=".095891" transform="matrix(-3.7795275 0 0 -3.7795275 509.87659 500.00001)"><ellipse cx="101.37306" cy="75.090439" fill="url(#i)" opacity=".4" rx="1.637465" ry="1.613313"/><ellipse cx="101.37306" cy="75.090439" fill="#fffae7" opacity=".8" rx=".289817" ry=".285542"/><ellipse cx="84.259369" cy="88.410988" fill="url(#k)" opacity=".4" rx="1.637465" ry="1.613313"/><ellipse cx="84.259369" cy="88.410988" fill="#fffae7" opacity=".8" rx=".289817" ry=".285542"/><ellipse cx="13.297751" cy="110.02653" fill="url(#l)" opacity=".4" rx="1.637465" ry="1.613313"/><ellipse cx="13.297751" cy="110.02653" fill="#fffae7" opacity=".8" rx=".289817" ry=".285542"/><ellipse cx="112.47302" cy="130.67836" fill="url(#m)" opacity=".4" rx="1.637465" ry="1.613313"/><ellipse cx="112.47302" cy="130.67836" fill="#fffae7" opacity=".8" rx=".289817" ry=".285542"/><ellipse cx="24.962875" cy="27.005148" fill="url(#n)" opacity=".4" rx="1.637465" ry="1.613313"/><ellipse cx="24.962875" cy="27.005148" fill="#fffae7" opacity=".8" rx=".289817" ry=".285542"/><ellipse cx="90.925156" cy="25.391836" fill="url(#o)" opacity=".4" rx="1.637465" ry="1.613313"/><ellipse cx="90.925156" cy="25.391836" fill="#fffae7" opacity=".8" rx=".289817" ry=".285542"/><ellipse cx="67.725342" cy="30.959906" fill="url(#p)" opacity=".4" rx="1.637465" ry="1.613313"/><ellipse cx="67.725342" cy="30.959906" fill="#fffae7" opacity=".8" rx=".289817" ry=".285542"/><ellipse cx="113.54536" cy="14.798224" fill="url(#q)" opacity=".4" rx="1.637465" ry="1.613313"/><ellipse cx="113.54536" cy="14.798224" fill="#fffae7" opacity=".8" rx=".289817" ry=".285542"/><ellipse cx="114.89299" cy="61.926949" fill="url(#r)" opacity=".4" rx="1.637465" ry="1.613313"/><ellipse cx="114.89299" cy="61.926949" fill="#fffae7" opacity=".8" rx=".289817" ry=".285542"/><ellipse cx="54.813995" cy="13.484729" fill="url(#s)" opacity=".4" rx="1.637465" ry="1.613313"/><ellipse cx="54.813995" cy="13.484729" fill="#fffae7" opacity=".8" rx=".289817" ry=".285542"/><ellipse cx="73.057961" cy="43.709366" fill="url(#t)" opacity=".4" rx=".811487" ry=".799518"/><ellipse cx="73.057961" cy="43.709366" fill="#fffae7" opacity=".8" rx=".144908" ry=".142771"/><ellipse cx="76.811081" cy="18.881468" fill="url(#u)" opacity=".4" rx=".811487" ry=".799518"/><ellipse cx="76.811081" cy="18.881468" fill="#fffae7" opacity=".8" rx=".144908" ry=".142771"/><ellipse cx="25.10778" cy="11.557319" fill="url(#v)" opacity=".4" rx=".811487" ry=".799518"/><ellipse cx="25.10778" cy="11.557319" fill="#fffae7" opacity=".8" rx=".144908" ry=".142771"/><ellipse cx="53.176529" cy="97.291344" fill="url(#w)" opacity=".4" rx=".811487" ry=".799518"/><ellipse cx="53.176529" cy="97.291344" fill="#fffae7" opacity=".8" rx=".144908" ry=".142771"/><ellipse cx="69.391777" cy="92.765495" fill="url(#x)" opacity=".4" rx=".811487" ry=".799518"/><ellipse cx="69.391777" cy="92.765495" fill="#fffae7" opacity=".8" rx=".144908" ry=".142771"/><ellipse cx="8.791102" cy="97.148567" fill="url(#y)" opacity=".4" rx=".811487" ry=".799518"/><ellipse cx="8.791102" cy="97.148567" fill="#fffae7" opacity=".8" rx=".144908" ry=".142771"/><ellipse cx="82.708855" cy="105.672" fill="url(#z)" opacity=".4" rx=".811487" ry=".799518"/><ellipse cx="82.708855" cy="105.672" fill="#fffae7" opacity=".8" rx=".144908" ry=".142771"/><ellipse cx="64.986557" cy="109.227" fill="url(#A)" opacity=".4" rx=".811487" ry=".799518"/><ellipse cx="64.986557" cy="109.227" fill="#fffae7" opacity=".8" rx=".144908" ry=".142771"/><ellipse cx="43.757484" cy="131.29939" fill="url(#B)" opacity=".4" rx=".811487" ry=".799518"/><ellipse cx="43.757484" cy="131.29939" fill="#fffae7" opacity=".8" rx=".144908" ry=".142771"/><ellipse cx="57.509293" cy="78.645439" fill="url(#C)" opacity=".4" rx=".811487" ry=".799518"/><ellipse cx="57.509293" cy="78.645439" fill="#fffae7" opacity=".8" rx=".144908" ry=".142771"/><ellipse cx="108.08231" cy="108.07056" fill="url(#D)" opacity=".4" rx=".811487" ry=".799518"/><ellipse cx="108.08231" cy="108.07056" fill="#fffae7" opacity=".8" rx=".144908" ry=".142771"/><ellipse cx="100.85138" cy="120.64867" fill="url(#E)" opacity=".4" rx=".811487" ry=".799518"/><ellipse cx="100.85138" cy="120.64867" fill="#fffae7" opacity=".8" rx=".144908" ry=".142771"/><ellipse cx="96.228806" cy="58.357674" fill="url(#F)" opacity=".4" rx=".811487" ry=".799518"/><ellipse cx="96.228806" cy="58.357674" fill="#fffae7" opacity=".8" rx=".144908" ry=".142771"/><ellipse cx="40.815849" cy="84.142128" fill="url(#G)" opacity=".4" rx="1.637465" ry="1.613313"/><ellipse cx="40.815849" cy="84.142128" fill="#fffae7" opacity=".8" rx=".289817" ry=".285542"/><ellipse cx="42.801102" cy="116.9509" fill="url(#H)" opacity=".4" rx="1.637465" ry="1.613313"/><ellipse cx="42.801102" cy="116.9509" fill="#fffae7" opacity=".8" rx=".289817" ry=".285542"/><ellipse cx="89.302185" cy="129.98592" fill="url(#I)" opacity=".4" rx="1.637465" ry="1.613313"/><ellipse cx="89.302185" cy="129.98592" fill="#fffae7" opacity=".8" rx=".289817" ry=".285542"/><ellipse cx="128.58684" cy="91.152184" fill="url(#J)" opacity=".4" rx="1.637465" ry="1.613313"/><ellipse cx="128.58684" cy="91.152184" fill="#fffae7" opacity=".8" rx=".289817" ry=".285542"/><ellipse cx="24.962875" cy="97.434105" fill="url(#K)" opacity=".4" rx="1.637465" ry="1.613313"/><ellipse cx="24.962875" cy="97.434105" fill="#fffae7" opacity=".8" rx=".289817" ry=".285542"/><ellipse cx="36.410637" cy="42.324486" fill="url(#L)" opacity=".4" rx="1.637465" ry="1.613313"/><ellipse cx="36.410637" cy="42.324486" fill="#fffae7" opacity=".8" rx=".289817" ry=".285542"/><ellipse cx="33.845757" cy="62.212494" fill="url(#M)" opacity=".4" rx="1.637465" ry="1.613313"/><ellipse cx="33.845757" cy="62.212494" fill="#fffae7" opacity=".8" rx=".289817" ry=".285542"/><ellipse cx="42.120026" cy="27.747557" fill="url(#N)" opacity=".4" rx="1.637465" ry="1.613313"/><ellipse cx="42.120026" cy="27.747557" fill="#fffae7" opacity=".8" rx=".289817" ry=".285542"/><ellipse cx="45.365974" cy="58.500443" fill="url(#O)" opacity=".4" rx="1.028849" ry="1.013675"/><ellipse cx="45.365974" cy="58.500443" fill="#fffae7" opacity=".8" rx=".188381" ry=".185602"/><ellipse cx="48.800293" cy="76.817963" fill="url(#P)" opacity=".4" rx="1.028849" ry="1.013675"/><ellipse cx="48.800293" cy="76.817963" fill="#fffae7" opacity=".8" rx=".188381" ry=".185602"/><ellipse cx="105.01025" cy="2.377143" fill="url(#Q)" opacity=".4" rx="1.028849" ry="1.013675"/><ellipse cx="105.01025" cy="2.377143" fill="#fffae7" opacity=".8" rx=".188381" ry=".185602"/><ellipse cx="16.413284" cy="84.427673" fill="url(#R)" opacity=".4" rx="1.028849" ry="1.013675"/><ellipse cx="16.413284" cy="84.427673" fill="#fffae7" opacity=".8" rx=".188381" ry=".185602"/><ellipse cx="19.876591" cy="116.9509" fill="url(#S)" opacity=".4" rx="1.028849" ry="1.013675"/><ellipse cx="19.876591" cy="116.9509" fill="#fffae7" opacity=".8" rx=".188381" ry=".185602"/><ellipse cx="24.296299" cy="128.37259" fill="url(#T)" opacity=".4" rx="1.028849" ry="1.013675"/><ellipse cx="24.296299" cy="128.37259" fill="#fffae7" opacity=".8" rx=".188381" ry=".185602"/><ellipse cx="22.745773" cy="38.869423" fill="url(#U)" opacity=".4" rx="1.028849" ry="1.013675"/><ellipse cx="22.745773" cy="38.869423" fill="#fffae7" opacity=".8" rx=".188381" ry=".185602"/><ellipse cx="55.654465" cy="65.453392" fill="url(#V)" opacity=".4" rx="1.028849" ry="1.013675"/><ellipse cx="55.654465" cy="65.453392" fill="#fffae7" opacity=".8" rx=".188381" ry=".185602"/><ellipse cx="109.71977" cy="53.260742" fill="url(#W)" opacity=".4" rx="1.637465" ry="1.613313"/><ellipse cx="109.71977" cy="53.260742" fill="#fffae7" opacity=".8" rx=".289817" ry=".285542"/><ellipse cx="6.863823" cy="118.9497" fill="url(#X)" opacity=".4" rx="1.637465" ry="1.613313"/><ellipse cx="6.863823" cy="118.9497" fill="#fffae7" opacity=".8" rx=".289817" ry=".285542"/><ellipse cx="113.25554" cy="41.739128" fill="url(#Y)" opacity=".4" rx="1.637465" ry="1.613313"/><ellipse cx="113.25554" cy="41.739128" fill="#fffae7" opacity=".8" rx=".289817" ry=".285542"/><ellipse cx="128.58684" cy="64.439735" fill="url(#Z)" opacity=".4" rx="1.637465" ry="1.613313"/><ellipse cx="128.58684" cy="64.439735" fill="#fffae7" opacity=".8" rx=".289817" ry=".285542"/><ellipse cx="106.45934" cy="26.662497" fill="url(#aa)" opacity=".4" rx="1.637465" ry="1.613313"/><ellipse cx="106.45934" cy="26.662497" fill="#fffae7" opacity=".8" rx=".289817" ry=".285542"/><ellipse cx="66.609535" cy="68.194603" fill="url(#ab)" opacity=".8" rx="2.782241" ry=".799518"/><ellipse cx="66.609535" cy="68.194603" fill="url(#ac)" opacity=".8" rx=".811487" ry="2.741205"/><ellipse cx="66.609535" cy="68.194603" fill="#fffae7" opacity=".8" rx=".318798" ry=".314096"/><ellipse cx="11.109633" cy="55.388039" fill="url(#ad)" opacity=".8" rx="4.303778" ry="1.227831"/><ellipse cx="11.109633" cy="55.388039" fill="url(#ae)" opacity=".8" rx="1.246212" ry="4.240301"/><ellipse cx="11.109633" cy="55.388039" fill="#fffae7" opacity=".8" rx=".492688" ry=".485422"/><ellipse cx="86.519936" cy="74.619293" fill="url(#af)" opacity=".8" rx="4.303778" ry="1.227831"/><ellipse cx="86.519936" cy="74.619293" fill="url(#ag)" opacity=".8" rx="1.246212" ry="4.240301"/><ellipse cx="86.519936" cy="74.619293" fill="#fffae7" opacity=".8" rx=".492688" ry=".485422"/><ellipse cx="85.766418" cy="4.240301" fill="url(#ah)" opacity=".8" rx="4.303778" ry="1.227831"/><ellipse cx="85.766418" cy="4.240301" fill="url(#ai)" opacity=".8" rx="1.246212" ry="4.240301"/><ellipse cx="85.766418" cy="4.240301" fill="#fffae7" opacity=".8" rx=".492688" ry=".485422"/><ellipse cx="87.012642" cy="44.508881" fill="url(#aj)" opacity=".8" rx="4.303778" ry="1.227831"/><ellipse cx="87.012642" cy="44.508881" fill="url(#ak)" opacity=".8" rx="1.246212" ry="4.240301"/><ellipse cx="87.012642" cy="44.508881" fill="#fffae7" opacity=".8" rx=".492688" ry=".485422"/><ellipse cx="127.98789" cy="36.499428" fill="url(#al)" opacity=".8" rx="4.303778" ry="1.227831"/><ellipse cx="127.98789" cy="36.499428" fill="url(#am)" opacity=".8" rx="1.246212" ry="4.240301"/><ellipse cx="127.98789" cy="36.499428" fill="#fffae7" opacity=".8" rx=".492688" ry=".485422"/><ellipse cx="10.790835" cy="18.081957" fill="url(#an)" opacity=".8" rx="2.782241" ry=".799518"/><ellipse cx="10.790835" cy="18.081957" fill="url(#ao)" opacity=".8" rx=".811487" ry="2.741205"/><ellipse cx="10.790835" cy="18.081957" fill="#fffae7" opacity=".8" rx=".318798" ry=".314096"/><ellipse cx="43.612579" cy="106.47152" fill="url(#ap)" opacity=".8" rx="2.782241" ry=".799518"/><ellipse cx="43.612579" cy="106.47152" fill="url(#aq)" opacity=".8" rx=".811487" ry="2.741205"/><ellipse cx="43.612579" cy="106.47152" fill="#fffae7" opacity=".8" rx=".318798" ry=".314096"/><ellipse cx="29.38258" cy="77.845924" fill="url(#ar)" opacity=".8" rx="2.782241" ry=".799518"/><ellipse cx="29.38258" cy="77.845924" fill="url(#as)" opacity=".8" rx=".811487" ry="2.741205"/><ellipse cx="29.38258" cy="77.845924" fill="#fffae7" opacity=".8" rx=".318798" ry=".314096"/><ellipse cx="58.32077" cy="44.994301" fill="url(#at)" opacity=".8" rx="2.782241" ry=".799518"/><ellipse cx="58.32077" cy="44.994301" fill="url(#au)" opacity=".8" rx=".811487" ry="2.741205"/><ellipse cx="58.32077" cy="44.994301" fill="#fffae7" opacity=".8" rx=".318798" ry=".314096"/><ellipse cx="15.384429" cy="70.950073" fill="url(#av)" opacity=".8" rx="2.782241" ry=".799518"/><ellipse cx="15.384429" cy="70.950073" fill="url(#aw)" opacity=".8" rx=".811487" ry="2.741205"/><ellipse cx="15.384429" cy="70.950073" fill="#fffae7" opacity=".8" rx=".318798" ry=".314096"/><ellipse cx="67.40654" cy="127.21616" fill="url(#ax)" opacity=".8" rx="2.782241" ry=".799518"/><ellipse cx="67.40654" cy="127.21616" fill="url(#ay)" opacity=".8" rx=".811487" ry="2.741205"/><ellipse cx="67.40654" cy="127.21616" fill="#fffae7" opacity=".8" rx=".318798" ry=".314096"/><ellipse cx="106.11156" cy="91.152184" fill="url(#az)" opacity=".8" rx="2.782241" ry=".799518"/><ellipse cx="106.11156" cy="91.152184" fill="url(#aA)" opacity=".8" rx=".811487" ry="2.741205"/><ellipse cx="106.11156" cy="91.152184" fill="#fffae7" opacity=".8" rx=".318798" ry=".314096"/><ellipse cx="42.699661" cy="6.631717" fill="url(#aB)" opacity=".8" rx="2.782241" ry=".799518"/><ellipse cx="42.699661" cy="6.631717" fill="url(#aC)" opacity=".8" rx=".811487" ry="2.741205"/><ellipse cx="42.699661" cy="6.631717" fill="#fffae7" opacity=".8" rx=".318798" ry=".314096"/><ellipse cx="88.25885" cy="110.31207" fill="url(#aD)" opacity=".8" rx="2.782241" ry=".799518"/><ellipse cx="88.25885" cy="110.31207" fill="url(#aE)" opacity=".8" rx=".811487" ry="2.741205"/><ellipse cx="88.25885" cy="110.31207" fill="#fffae7" opacity=".8" rx=".318798" ry=".314096"/><ellipse cx="119.10985" cy="74.390869" fill="url(#aF)" opacity=".8" rx="2.782241" ry=".799518"/><ellipse cx="119.10985" cy="74.390869" fill="url(#aG)" opacity=".8" rx=".811487" ry="2.741205"/><ellipse cx="119.10985" cy="74.390869" fill="#fffae7" opacity=".8" rx=".318798" ry=".314096"/><ellipse cx="8.501285" cy="40.482735" fill="url(#aH)" opacity=".4" rx="1.637465" ry="1.613313"/><ellipse cx="8.501285" cy="40.482735" fill="#fffae7" opacity=".8" rx=".289817" ry=".285542"/></g></svg>