<svg height="500" viewBox="0 0 500 500" width="500" xmlns="http://www.w3.org/2000/svg" xmlns:xlink="http://www.w3.org/1999/xlink"><filter id="a" color-interpolation-filters="sRGB" height="1.006366" width="1.005674" x="-.002837" y="-.003183"><feGaussianBlur stdDeviation=".32449015"/></filter><linearGradient id="b"><stop offset="0" stop-color="#f8f7ed"/><stop offset="1" stop-color="#f2eed9"/></linearGradient><radialGradient id="c" cx=".000017" cy="-105.25659" gradientTransform="matrix(.00000013 .43572636 -.2146418 0 -22.592463 -.000008)" gradientUnits="userSpaceOnUse" r="177.0665" xlink:href="#b"/><radialGradient id="d" cx="-.000054" cy="431.66025" gradientTransform="matrix(.55389339 .00000011 -.00000189 1.5834118 .000831 -183.49595)" gradientUnits="userSpaceOnUse" r="90.607" xlink:href="#b"/><radialGradient id="e" cx="5.995092" cy="480.97437" gradientTransform="matrix(.00000003 -1.198744 1.5807514 .00000024 -618.74917 435.94916)" gradientUnits="userSpaceOnUse" r="90.605498" xlink:href="#b"/><filter id="f" color-interpolation-filters="sRGB" height="1.012924" width="1.018862" x="-.009431" y="-.006462"><feGaussianBlur stdDeviation=".37490672"/></filter><filter id="g" color-interpolation-filters="sRGB" height="1.012343" width="1.020256" x="-.010128" y="-.006171"><feGaussianBlur stdDeviation=".37490672"/></filter><filter id="h" color-interpolation-filters="sRGB" height="1.017424" width="1.015544" x="-.007772" y="-.008712"><feGaussianBlur stdDeviation=".60018545"/></filter><linearGradient id="i" gradientTransform="matrix(391.593 0 0 -391.593 60.7962 7618.49)" gradientUnits="userSpaceOnUse" spreadMethod="pad" x1="0" x2="1" y1="0" y2="0"><stop offset="0" stop-color="#9f571d"/><stop offset=".511236" stop-color="#fde791"/><stop offset="1" stop-color="#b7671e"/></linearGradient><linearGradient id="j" gradientTransform="matrix(3.7795274 0 0 3.7795274 -341.5064 91.506337)" gradientUnits="userSpaceOnUse" spreadMethod="reflect" x1="195.31215" x2="119.37583" xlink:href="#i" y1="94.278702" y2="30.047533"/><linearGradient id="k" gradientTransform="matrix(3.7795274 0 0 3.7795274 -341.5064 91.506337)" gradientUnits="userSpaceOnUse" spreadMethod="reflect" x1="532.49908" x2="501.43057" xlink:href="#i" y1="220.71098" y2="258.46228"/><linearGradient id="l" gradientTransform="matrix(3.7795274 0 0 3.7795274 -341.5064 91.506337)" gradientUnits="userSpaceOnUse" spreadMethod="reflect" x1="116.00772" x2="148.62393" xlink:href="#i" y1="38.321148" y2="84.593697"/><g fill="#c9c4ad" stroke-width="3.779528"><path d="m223.55078 30.582031s-136.336023 78.864589-152.749999 88.359379-18.815379 16.02342-23.799481 26.91234c-5.227756 11.42124-5.137671 20.80426-5.050125 37.34253.08755 16.53827-.002 148.23058-.002 157.86622 0 4.81782 2.291031 18.42043 6.810225 26.24902 4.519579 7.82927 15.155056 16.61722 19.326494 19.02637 8.342875 4.8183 142.759476 82.44049 146.931686 84.84966s22.39206 14.25028 34.98347 14.24955c12.59125-.00074 30.80972-11.84331 34.98137-14.25346 4.17166-2.41015 138.59083-80.02152 146.93359-84.83975 4.17138-2.40912 13.51373-9.61381 17.75464-16.48715 5.24805-8.50563 8.38012-23.97123 8.38012-28.78824 0 0 .00003-146.23999 0-157.70131s.52855-31.98987-6.92885-45.33448c-4.80032-8.58992-12.79167-13.51516-22.51646-19.0913s-148.57826-85.943645-152.752-88.359379-17.1625-6.572186-26.15037-6.572265c-8.9885-.000079-17.80611 1.743195-26.15231 6.572265z"/><path d="m223.55273 258.28711c16.68926 9.65431 35.60964 9.65528 52.29883 0l152.75396-88.35942c8.34512-4.82652 16.16406-13.88421 16.16406-25.49218 0-11.60842-7.81906-20.66717-16.16406-25.49414l-152.74996-88.357432c-8.34944-4.833425-17.16371-6.573887-26.15239-6.574195-8.98853-.000308-17.80618 1.743213-26.15239 6.572288l-152.749999 88.359379c-8.344641 4.82711-16.164062 13.88452-16.164062 25.49218 0 11.60873 7.819047 20.66677 16.164062 25.49414z"/><path d="m431.91591 386.34384c16.68554-9.63647 26.13476-26.00734 26.13476-45.27539v-157.70126c-.56916-7.38245-4.29969-15.45073-7.91406-20.23242-4.02977-5.22713-12.97309-10.36358-20.94922-10.0625h-.008.0003c-6.244.23841-10.94949 2.35775-15.16016 4.75l-147.04497 84.91015c-16.68577 9.6366-26.13672 26.00604-26.13672 45.27735v157.69921c0 9.6354 3.92155 20.94516 13.98438 26.75196 10.06282 5.80679 21.81683 3.54295 30.16015-1.27735z"/><path d="m85.750977 157.69531c-4.957947-2.59409-10.142748-4.15243-15.637696-4.15429l-.0098-.002.000035.00004c-8.244374 0-16.553294 4.24822-21.326172 10.11133-4.772879 5.86311-6.699044 12.7078-6.826169 19.54589l-.002 157.86622c0 19.2713 9.450951 35.63879 26.136718 45.27539l146.931687 84.84961c8.34444 4.81833 20.09945 7.07707 30.16015 1.26953s13.98243-17.11588 13.98243-26.75195v-157.70117c0-19.27106-9.45501-35.63744-26.13672-45.27344z"/></g><path d="m70.104 171.53964c-6.227 0-10.032997 5.325-10.154997 11.825v157.697c0 11.052 7.569997 24.163 17.139997 29.69l146.93 84.848c9.57 5.526 17.141 1.156 17.141-9.895v-157.7c0-11.051-7.57-24.159-17.14-29.687l-146.93-84.847c-2.567-1.338-4.911-1.93-6.986-1.93z" fill="url(#e)"/><g fill-rule="evenodd" filter="url(#f)" opacity=".667" transform="matrix(1 .57747291 0 1 -731.29209 -1197.518)"><path d="m891.98154 933.16977c-3.56251.37711-7.14632 1.31444-10.22572 3.18993-2.29161 1.40767-4.12969 3.89769-3.9735 6.68702.13706 1.58114.61579 3.11547.61657 4.71337.44807 7.70867-1.6876 15.25781-4.02334 22.52208-1.83339 5.66695-4.24159 11.15049-6.80033 16.55178-6.57717 13.71855-14.85641 26.50835-23.96477 38.68545-1.22958 1.8196-2.58945 3.5457-4.14027 5.103-2.07716 2.2046-4.18987 4.5959-4.93004 7.6158.78808 3.3229 3.25028 6.3528 6.62986 7.2402 4.08132 1.2081 8.52228.1262 12.14303-1.9228.71596-.5935 1.61343-.751 2.5065-.8596 9.84762-1.6912 19.87319-2.1736 29.88611-1.9676 1.99428.041 3.91757.1154 5.90286.209-.79957 6.1911-1.86086 12.5796-.3075 18.7445.71347 2.7009 1.76174 5.5195 4.03707 7.2952 3.53632 2.9859 8.51759 3.7867 12.96051 2.8005 3.8418-.7884 7.375-2.8719 9.98374-5.7933-1.26641-3.7255-3.73002-6.8935-5.03515-10.5977-.56701-1.5997-.56694-3.332-.13597-4.9633.19375-.8598-.30711-1.7202-.17959-2.6034.0502-.9542.25687-2.151 1.13782-2.6638 1.1961-.01 1.95477 1.1456 3.0319 1.5191 2.07461 1.0749 4.89685 1.2241 6.67513-.4995 2.08983-2.013 2.32321-5.1893 1.91705-7.9056-.41286-2.7503-1.57909-5.5725-3.82868-7.3051-2.43477-1.2795-4.69993-3.5106-4.88621-6.4004-.2121-2.0508.48009-4.0351.97062-5.9895.6459-4.55.95004-9.4455-1.0976-13.7046-1.50925-3.08356-4.65992-5.17506-8.03311-5.63396-4.11936-.7357-8.63337-.2363-12.17488 2.113-1.13374.79316-2.04604 1.85676-2.78125 3.02146 1.44132 5.4113 2.9564 11.0817 1.85156 16.7031-.0105 1.201-.0496 2.8845-1.43589 3.3225-2.41104.8384-5.00188.3006-7.49458.4602-2.25034.1444-4.47716.5323-6.72041.7567-4.70108.6021-9.37687 1.4001-14.01318 2.3844 13.73574-19.2797 25.63444-40.11726 33.01892-62.69255 1.34452-4.02602 2.34646-8.17501 2.9364-12.37909.58754-4.56797.43855-9.41703-1.5366-13.65331-1.40582-2.51882-4.33464-3.8277-7.11987-4.06353-.45403-.0463-.91135-.0469-1.36721-.0397z" fill="#84542e" opacity="1"/><path d="m896.0704 935.40282c-3.56251.37711-7.14632 1.31444-10.22572 3.18993-2.29161 1.40767-4.12969 3.89769-3.9735 6.68702.13706 1.58114.61579 3.11547.61657 4.71337.44807 7.70867-1.6876 15.25781-4.02334 22.52208-1.83339 5.66695-4.24159 11.15049-6.80033 16.55178-6.57717 13.7186-14.85641 26.5084-23.96477 38.6855-1.22958 1.8196-2.58945 3.5457-4.14027 5.103-2.07716 2.2046-4.18987 4.5959-4.93004 7.6158.78808 3.3229 3.25028 6.3528 6.62986 7.2402 4.08132 1.2081 8.52228.1262 12.14303-1.9228.71596-.5935 1.61343-.751 2.5065-.8596 9.84762-1.6912 19.87319-2.1736 29.88611-1.9676 1.99428.041 3.91757.1154 5.90286.209-.79957 6.1911-1.86086 12.5796-.3075 18.7445.71347 2.7009 1.76174 5.5195 4.03707 7.2952 3.53632 2.9859 8.51759 3.7867 12.96051 2.8005 3.8418-.7884 7.375-2.8719 9.98374-5.7933-1.26641-3.7255-3.73002-6.8935-5.03515-10.5977-.56701-1.5997-.56694-3.332-.13597-4.9633.19375-.8598-.30711-1.7202-.17959-2.6034.0502-.9542.25687-2.151 1.13782-2.6638 1.1961-.01 1.95477 1.1456 3.0319 1.5191 2.07461 1.0749 4.89685 1.2241 6.67513-.4995 2.08983-2.013 2.32321-5.1893 1.91705-7.9056-.41286-2.7503-1.57909-5.5725-3.82868-7.3051-2.43477-1.2795-4.69993-3.5106-4.88621-6.4004-.2121-2.0508.48009-4.0351.97062-5.9895.6459-4.55.95004-9.4455-1.0976-13.7046-1.50925-3.0836-4.65992-5.17514-8.03311-5.63404-4.11936-.73565-8.63337-.2363-12.17488 2.11304-1.13374.7932-2.04604 1.8568-2.78125 3.0215 1.44132 5.4113 2.9564 11.0817 1.85156 16.7031-.0105 1.201-.0496 2.8845-1.43589 3.3225-2.41104.8384-5.00188.3006-7.49458.4602-2.25034.1444-4.47716.5323-6.72041.7567-4.70108.6021-9.37687 1.4001-14.01318 2.3844 13.73574-19.2797 25.63444-40.11731 33.01892-62.6926 1.34452-4.02602 2.34646-8.17501 2.9364-12.37909.58754-4.56797.43855-9.41703-1.5366-13.65331-1.40582-2.51882-4.33464-3.8277-7.11987-4.06353-.45403-.0463-.91135-.0469-1.36721-.0397z" fill="#fde791" opacity="1"/><path d="m893.49414 936.34375c-4.75049.70267-13.47085 3.0732-11.41766 9.44215 1.48712 9.84664-1.62382 19.71356-4.69129 28.96344-7.25143 19.4569-18.2768 37.34036-30.74099 53.86666-2.29672 3.7748-6.87309 6.7635-8.0152 10.76 2.30202 7.7878 11.62089 6.5565 16.8574 2.8423 13.27456-2.4979 26.90484-2.7874 40.37295-2.0308-.94293 8.1374-3.04571 17.1469 1.16829 24.7213 5.00945 6.567 15.58825 5.2241 20.89811-.2604-1.94955-5.0483-6.473-9.5546-4.7626-15.4303-1.04983-4.2316 1.39246-9.4563 6.03953-5.5934 8.20212 4.6561 8.077-8.081 3.66093-11.7827-5.9161-3.2952-7.05685-7.9502-4.94235-14.0972.90367-5.9269 1.37301-14.5457-5.61164-16.9406-4.61014-1.53856-11.72562-.7566-14.28204 3.0974 1.45397 5.4606 2.76485 10.9853 1.65454 16.6518.15659 7.7659-8.33668 4.5975-13.15125 5.702-7.82084.7854-15.58004 2.1511-23.21648 4.0083 15.53475-21.1306 29.05096-44.19521 36.78532-69.37338 1.82429-6.96447 3.61483-14.82228.56365-21.67501-1.5693-2.27169-4.53254-3.10029-7.16922-2.87156z" fill="url(#e)" opacity="1"/></g><path d="m162.20205 254.79441c-4.75049-2.04061-13.47085-4.70585-11.41766 2.84876 1.48712 10.70541-1.62382 18.77585-4.69129 26.25435-7.25143 15.26939-18.2768 26.786-30.74099 36.11457-2.29672 2.44851-6.87309 2.79448-8.0152 6.13144 2.30202 9.11715 11.62089 13.26725 16.8574 12.57699 13.27456 5.1678 26.90484 12.74942 40.37295 21.28349-.94293 7.59288-3.04571 15.38808 1.16829 25.39595 5.00945 9.45982 15.58825 14.22589 20.89811 11.80769-1.94955-6.17411-6.473-13.29258-4.7626-18.18057-1.04983-4.83785 1.39246-8.65219 6.03953-2.10573 8.20212 9.3926 8.077-3.41675 3.66093-9.66862-5.9161-6.71158-7.05685-12.02534-4.94235-16.95127.90367-5.40505 1.37301-13.75282-5.61164-20.18117-4.61014-4.20079-11.72562-7.52783-14.28204-5.15009 1.45397 6.30023 2.76485 12.58193 1.65454 17.60725.15659 7.85633-8.33668-.2167-13.15125-1.89249-7.82084-3.73092-15.58004-6.84595-23.21648-9.39859 15.53475-12.1597 29.05096-27.41906 36.78532-48.13085 1.82429-5.91099 3.61483-12.73481.56365-21.34952-1.5693-3.17792-4.53254-5.71771-7.16922-7.01159z" fill="url(#l)" fill-rule="evenodd"/><path d="m429.867 171.05964c-1.938.074-4.218.858-6.955 2.413l-146.935 84.847c-9.57 5.527-17.14 18.638-17.14 29.69v157.699c0 11.05 7.57 15.419 17.14 9.89l146.937-84.843c9.57-5.527 17.137-18.636 17.137-29.688v-157.7c-2.497-8.048-5.23-12.495-10.184-12.308z" fill="url(#d)"/><g fill-rule="evenodd" filter="url(#g)" opacity=".667" transform="matrix(1 -.57741041 0 1 -1263.7803 241.45892)"><path d="m1589.8491 931.65815c-4.1737.0862-8.2695 2.98374-9.288 7.1117-.739 2.7575-.096 5.77969 1.4618 8.14026.851 6.4295.9686 12.93496.6484 19.375-.5334 10.17459-2.1486 20.2855-3.8193 30.38291-.092 1.212-.5267 2.34076-.9343 3.47168-.7257 2.3884.029 5.2969 2.2319 6.6473 2.7993 1.8756 6.4785 1.7828 9.5812.7867 1.127-.3301 2.0731-1.1248 3.2732-1.1949 3.2568-.6101 6.5742-1.0866 9.7845-1.2851 4.1675-.2476 8.5524 0 12.4961 1.0918 4.638 1.3007 9.108 3.9658 11.626 8.1841 3.4633 5.4323 4.14 12.286 2.7002 18.4819-.3185 1.3965-.8335 3.0861-1.4547 4.5635-2.5796 6.3147-7.5349 11.8022-13.9551 14.3166-2.2721.9137-4.676 1.5351-7.041 1.8036-5.7709.6713-12.0324-.5973-16.4622-4.5331-1.4549-1.165-2.1506-2.9269-2.8603-4.5902-1.2185-2.8238-2.2583-5.8977-4.5353-8.0721-1.5349-1.3753-3.8598-1.7746-5.7305-.8672-1.7901.7779-3.1028 2.2821-4.6777 3.3848-2.9249 2.466-4.4117 6.4339-3.9432 10.2185.4613 4.7757 3.0324 9.1892 6.6053 12.3264 3.7407 3.6473 8.6328 6.2351 13.7102 7.6282 7.0258 1.9259 14.4683 1.8357 21.6203.7072 5.9004-.9455 11.7427-2.57 17.0325-5.4009 10.8065-5.6589 19.5471-15.396 23.4486-27.0094 1.7781-4.926 2.6379-10.2069 2.2135-15.4409-.5947-8.3313-4.2555-16.6125-10.7503-22.00442-6.2047-5.18384-14.1175-7.89005-22.0341-9.03203-6.6392-.96524-13.3812-.82964-20.0532-.34229-.4614.0564-.8411-.23265-.7305-.72851-.067-1.28057.3035-2.42436.6148-3.59105.7124-2.68189 1.7112-5.37131 1.575-8.18737 1.2616-7.70611 2.4673-15.4262 3.2302-23.2001 10.0076 1.97389 20.3068 3.52274 30.5008 2.1502 3.604-.52022 7.2286-1.26927 10.5721-2.73772 3.3685-1.93865 5.2108-5.68782 6.0475-9.35323.7266-3.2218.8071-6.88447-1.0559-9.75209-.7125-1.02069-1.7917-1.92807-3.0295-2.11843-9.1927 2.85139-18.8325 4.12604-28.4608 4.18823-5.6551-.00065-11.3109.0127-16.9649-.125-2.3665-3.68308-6.8942-5.68305-11.2107-5.32345-.6573-.0817-1.3213-.0911-1.9826-.0711z" fill="#84542e" opacity="1"/><path d="m1593.8649 938.57491c-4.2668.0847-8.4491 3.12546-9.3526 7.38367-.6363 2.68558.024 5.5825 1.5264 7.86829.851 6.4295.9686 12.93496.6484 19.375-.5334 10.17459-2.1486 20.2855-3.8193 30.38293-.081 1.2526-.561 2.407-.9634 3.5777-.7105 2.4449.1695 5.3988 2.4702 6.6763 2.8919 1.7906 6.602 1.6261 9.7137.531 1.0465-.4285 2.0206-1.0485 3.1789-1.1191 3.177-.5894 6.435-1.0481 9.5879-1.2441 2.0897-.114 4.2879-.1193 6.2683.046 2.4974.1983 5.0376.6306 7.336 1.4097 4.2572 1.3942 8.255 4.0372 10.5559 7.9619 3.3858 5.4143 4.0387 12.1995 2.6113 18.3438-.3185 1.3965-.8335 3.0861-1.4547 4.5635-2.5796 6.3147-7.5349 11.8022-13.9551 14.3166-2.2721.9137-4.676 1.5351-7.041 1.8036-5.7709.6713-12.0324-.5973-16.4622-4.5331-1.6521-1.3342-2.3323-3.4054-3.1527-5.284-1.1363-2.6697-2.2022-5.5551-4.4253-7.5296-1.6632-1.39-4.1441-1.5878-6.012-.4906-1.5826.8381-2.8117 2.1793-4.2665 3.2024-2.9633 2.5335-4.419 6.6122-3.8558 10.4562.5417 4.9227 3.3573 9.3664 7.0868 12.5293 5.9695 5.5196 14.1172 8.1824 22.1379 8.5626 7.5876.4132 15.2197-.7572 22.4572-3.0168 13.7327-4.5772 25.3982-15.4253 30.3421-29.1047 1.8445-4.8672 2.9049-10.0744 2.6403-15.2942-.343-8.552-3.8729-17.162-10.4276-22.8133-6.1164-5.2902-14.0113-8.08975-21.918-9.28834-6.7805-1.0559-13.6811-.92452-20.5027-.42343-.3962.0336-.8915-.11732-.7807-.61717-.091-2.12056.8066-4.11341 1.2893-6.14246.5725-1.89437.9615-3.86422.9087-5.84593 1.2562-7.67296 2.4544-15.36094 3.2143-23.10138 10.1381 1.99863 20.5812 3.5637 30.9015 2.09374 3.4682-.5257 6.9549-1.26237 10.173-2.68368 3.514-2.03681 5.3709-6.0025 6.1506-9.84642.6429-3.20538.621-6.88071-1.4224-9.6027-.8622-1.22059-2.488-2.06004-3.9543-1.42149-3.9279 1.16681-7.9334 2.03443-11.9227 2.65001-5.8057.8985-11.63 1.21698-17.5086 1.19468-4.9362-.009-9.8726-.0169-14.8078-.13218-2.3687-3.68454-6.898-5.68338-11.2166-5.32304-.6557-.0772-1.3173-.0924-1.9767-.0715z" fill="#fde791" opacity="1"/><path d="m1593.9824 937.2168c-7.7198-1.12417-12.4422 6.15387-8.0282 12.44002 2.4294 17.65859-.568 35.4302-3.4609 52.83968-3.7278 7.4964 5.9719 8.7461 10.6426 5.6614 11.4997-2.3048 25.4603-3.565 34.7304 5.0852 12.4426 13.0807 5.8003 36.7835-10.3183 43.5466-8.8559 3.9217-20.8462 3.2907-27.58-4.2479-3.3344-4.8123-4.7711-17.3776-12.4614-9.651-7.8062 4.9116-4.5898 15.3172 1.2567 20.3491 10.2663 10.0429 25.9655 10.0523 39.0976 6.9316 15.6828-3.6313 29.1724-15.5655 33.9507-31.0495 4.3527-12.3723 1.154-27.5942-9.8152-35.4822-10.7791-7.78081-24.8854-8.66759-37.7081-7.77805-8.696 1.30003-1.3857-9.62839-2.1361-14.19158 1.4108-8.56395 2.7452-17.14969 3.5122-25.79908 13.5513 2.7506 28.1819 5.12218 41.5189.25101 5.846-2.76977 7.9497-15.33321 3.3386-17.60384-10.1689 3.10679-20.7705 4.27539-31.377 4.10702-5.0884.0516-10.177-.028-15.2642-.13734-1.7907-3.61997-5.9292-5.69574-9.8983-5.27114z" fill="url(#d)" opacity="1"/></g><path d="m1593.9824 937.2168c-7.7198-1.12417-12.4422 6.15387-8.0282 12.44002 2.4294 17.65859-.568 35.4302-3.4609 52.83968-3.7278 7.4964 5.9719 8.7461 10.6426 5.6614 11.4997-2.3048 25.4603-3.565 34.7304 5.0852 12.4426 13.0807 5.8003 36.7835-10.3183 43.5466-8.8559 3.9217-20.8462 3.2907-27.58-4.2479-3.3344-4.8123-4.7711-17.3776-12.4614-9.651-7.8062 4.9116-4.5898 15.3172 1.2567 20.3491 10.2663 10.0429 25.9655 10.0523 39.0976 6.9316 15.6828-3.6313 29.1724-15.5655 33.9507-31.0495 4.3527-12.3723 1.154-27.5942-9.8152-35.4822-10.7791-7.78081-24.8854-8.66759-37.7081-7.77805-8.696 1.30003-1.3857-9.62839-2.1361-14.19158 1.4108-8.56395 2.7452-17.14969 3.5122-25.79908 13.5513 2.7506 28.1819 5.12218 41.5189.25101 5.846-2.76977 7.9497-15.33321 3.3386-17.60384-10.1689 3.10679-20.7705 4.27539-31.377 4.10702-5.0884.0516-10.177-.028-15.2642-.13734-1.7907-3.61997-5.9292-5.69574-9.8983-5.27114z" fill="url(#k)" fill-rule="evenodd" transform="matrix(1 -.57741041 0 1 -1263.7803 241.45892)"/><path d="m249.703 42.009643c-6.176 0-12.353 1.384-17.137 4.152l-152.751999 88.359997c-9.57 5.535-9.57 14.29 0 19.826l152.751999 88.359c9.57 5.536 24.703 5.536 34.272 0l152.754-88.36c9.57-5.534 9.57-14.289 0-19.824l-152.754-88.360997c-4.785-2.77-10.96-4.152-17.135-4.152z" fill="url(#c)"/><g filter="url(#h)" opacity=".667" stroke-width="6.05061" transform="matrix(.54070713 -.31277027 .62374202 .36082655 -86.513804 104.71355)"><path d="m243.64537 197.92562c-5.7189.19301-11.34375 1.32134-16.98242 2.20117 8.02918 6.62897 16.24402 13.07804 23.63732 20.4286 4.95261 5.21545 9.22209 11.02279 13.56978 16.73786.77663 1.04675 1.55422 2.0928 2.33001 3.14018 2.54924-.024 5.12966.0324 7.5957.23828 5.99153.51883 12.11307 1.51088 18.1125 2.54202 3.64218.64921 7.27642 1.34223 10.91485 2.01267-4.41526-8.15641-8.99724-16.24913-14.42274-23.78581-3.76395-5.19221-7.74526-10.37046-12.88467-14.28477-5.65058-4.15184-12.46657-6.38211-19.28424-7.72152-3.65589-.6798-7.3437-1.25319-11.05521-1.50454-.51029-.0143-1.02051-.0121-1.53088-.004zm-43.28906 11.48828c-6.00424.1024-11.84081 1.71434-17.60829 3.23495-5.5996 1.55868-11.09868 3.44877-16.62218 5.25333 13.47413 5.28239 26.85456 10.63171 39.74327 17.2735 4.14436 2.11858 8.13562 4.5473 11.78938 7.43814 6.95096 5.33073 13.44269 11.22811 19.86774 17.17313 1.45821 1.35702 2.97426 2.80764 4.44727 4.20898 7.80964-6.17202 15.61696-12.34698 23.42773-18.51757-11.48268-9.53428-23.30019-18.73137-36.00758-26.58939-5.088-3.08573-10.3487-6.03434-16.07249-7.76218-4.20461-1.22014-8.59091-1.75982-12.96485-1.71289zm-.52344 26.22461c-10.30983 1.70816-19.83506 6.53047-28.34577 12.45108-15.48081 10.87732-28.01434 25.50573-37.99498 41.48468-9.09986 14.61988-16.04995 30.7459-19.15407 47.73791-1.5229 8.38781-1.94689 16.95606-1.41184 25.45995.74468 13.1082 3.8394 26.08611 9.11843 38.10758.36264.95325 1.34376 1.449 2.02523 2.16262 15.5195 13.82093 33.76535 24.41271 53.09113 31.95165 31.5808 12.26101 66.14922 16.30117 99.78168 12.72546 4.93364-.5402 9.86258-1.12831 14.79449-1.68835-9.7267-4.35158-19.41608-8.79012-29.17313-13.07109-11.80916-4.36896-22.2401-11.98205-30.72531-21.21602-1.1566-1.26136-2.42519-2.7087-3.56194-4.09748-9.18095-11.19751-16.04228-24.26079-20.27614-38.09791-1.64689-5.39985-2.94829-11.25359-3.63201-17.03094-.98449-8.59647-.86384-17.50431 1.84032-25.79639 1.92224-5.90624 5.5235-11.55077 11.01321-14.69941 4.08589-2.40987 8.89292-3.34445 13.59899-3.25053.7405.015 1.77632.056 2.63068.13974 2.43514.19439 4.83959.63827 7.23846 1.08487 2.02986-4.77037 3.4855-9.75874 4.67968-14.79687.85694 2.09675 1.6962 4.28879 1.74942 6.57731-.0931 3.78919-2.1742 7.10834-3.86665 10.37434-1.26424 2.32648-2.43294 4.71055-3.32613 7.20655 7.33035 19.27423 18.77113 36.84983 32.67969 52.01758 9.31248 10.09256 19.80274 19.2226 31.67801 26.18321 7.02871 4.0874 14.65219 7.41735 22.74526 8.60486 1.52155.13297 3.04879.0327 4.57438.0882 7.48815-.057 14.90025-2.72065 20.75625-7.3801 4.2866-3.38552 7.64771-7.73658 11.36022-11.70456.84786-.52876.11197-.7862-.47399-1.06931-4.57485-2.52218-9.22587-4.90718-13.78779-7.45106-1.08477-.68984-2.38257-1.34043-2.9539-2.54274.0504-1.34895.9908-2.45588 1.53811-3.64244 2.72493-5.01567 5.44847-10.0321 8.17478-15.04702-6.12388 1.73147-12.21365 3.60119-18.35374 5.26157-2.51611.0393-4.7976-1.38451-6.6404-2.97251-1.39639-1.30487-2.65464-3.03938-2.69531-5.01367.47414-1.00624 1.63934-1.4135 2.43776-2.12363 4.49583-3.27251 8.99681-6.53794 13.49583-9.80606.38017 1.71153.49063 3.47463.66239 5.20484.25568 1.27263 1.91667 1.83775 2.91757 1.03171 4.15967-2.99799 9.05472-5.45615 14.29934-5.40502 3.93301-.001 7.87399 1.76238 10.28392 4.90818 3.29567 4.19058 4.16676 9.78209 3.75626 14.97706-.19581 2.56299-.78256 5.0739-.96288 7.63917-.26514 2.45952-.53093 4.91896-.79644 7.37844 2.62981-3.23724 5.44633-6.32973 7.89569-9.70874 5.73637-8.35106 9.92302-17.97261 10.89607-28.12714 1.07009-10.36407-1.51647-20.91793-6.57925-29.96504-.98321-1.83279-2.12596-3.57227-3.23204-5.33189-6.37534-.51932-12.71095-1.82214-18.65821-4.20899-.85228-.33856-1.93861-.80437-2.8628-1.2439-9.0092-4.20904-16.88507-11.20228-21.30862-20.19031-1.19136-2.26041-1.96029-4.69802-2.81491-7.09508-2.0403-5.45056-6.22184-9.81308-10.85141-13.19799-3.95268-2.81034-8.23513-5.19162-12.77005-6.92175-13.1629-4.6598-26.83417-8.35223-40.84605-8.98482-1.87924-.0529-3.75978-.0633-5.63991-.0868-2.16432 5.71654-5.52285 11.07653-10.25096 15.01491-5.03652 4.30405-11.33905 6.92059-17.79787 8.19407-6.08589-8.39103-14.20084-15.04888-22.64359-20.94766-5.37664-3.72265-11.00512-7.06851-16.76656-10.1578-.1862.0345-.3724.069-.5586.10351zm77.75196 38.92188c4.53657.0287 9.39745.53232 13.15052 3.32338 3.13511 2.37653 4.43232 6.40419 4.64759 10.19864.0577.8439.0772 1.59759.0691 2.36665-5.46602.15717-11.17333-1.19896-15.42786-4.77728-3.54942-2.86617-6.09661-6.76001-8.14246-10.79108 1.91475-.19985 3.84991-.30674 5.70313-.32031zm22.30859 33.7207c-2.36902 3.73828-3.1587 8.48195-1.86535 12.74196.89407 3.15454 2.78212 5.98214 5.20129 8.17601-1.48854 6.10303.43249 12.77437 4.57812 17.42969 1.57978 1.82911 3.46551 3.37877 5.50196 4.67382-1.38265 5.46927.39521 11.31178 3.6314 15.78994 2.57553 3.65432 6.01581 6.70866 9.99164 8.7628-3.58296 1.64312-7.88502 2.30727-11.58244.63594-3.82088-1.62188-6.08961-5.57016-6.84187-9.50425-.91949-4.50292-.21766-9.1549 1.09249-13.50625.37406-1.33893.74961-2.67745 1.12479-4.01607-3.41333.6647-6.80197 1.84666-10.32057 1.65946-3.41617-.13985-6.87449-2.06831-8.23021-5.30399-1.72759-4.00982-.87587-8.61106.8062-12.48646.56188-1.29949 1.13303-2.595 1.69966-3.89244-2.03431-.48569-4.22005-.55912-6.10162-1.54128-2.19524-1.30668-2.74865-4.14843-2.35809-6.50404.92361-5.25784 4.69455-9.73124 9.33259-12.21385 1.4806-.78076 3.09385-1.34606 4.76189-1.53771-.14063.21224-.28125.42448-.42188.63672zm15.4336 8.88477c3.16915.003 6.51434 1.27828 8.27929 4.03124.55775.67361-.52418.0296-.85131-.005-2.53076-.8789-5.10965-1.64957-7.58493-2.66927-.6033-.33099-1.1859-.72988-1.6204-1.27105.58993-.0708 1.18371-.0872 1.77735-.0859zm9.92578 9.54687c.0427 2.5132-.48732 4.99228-.71485 7.48828 2.82097-.66473 5.54125-1.61111 8.4832-1.66679 3.84808-.0887 7.62175 2.02487 9.56885 5.34204.68108 1.1354 1.21607 2.3582 1.56905 3.6353-6.47181-.76651-12.92444-1.41232-19.35053-2.25352-3.0082-.55834-5.98905-2.73074-6.56354-5.87344-.0408-1.13006 1.20611-1.56891 1.84459-2.29304 1.71782-1.50323 3.43564-3.00646 5.15346-4.50969l.007.0997zm8.80468 59.0957c1.04749 1.41651 2.27641 2.69805 3.65039 3.80078-.60322.24357-1.22434.44555-1.85742.59571-.93025-1.47799-1.60484-3.10751-2.0664-4.78906.0911.13085.18229.26171.27343.39257z" fill="#84542e" filter="url(#a)" opacity="1" stroke-width="1.600893"/><path d="m236.7056 203.94155c-5.7189.19301-11.34375 1.32134-16.98242 2.20117 8.02918 6.62897 16.24402 13.07804 23.63732 20.4286 4.95261 5.21545 9.22209 11.02279 13.56978 16.73786.77663 1.04675 1.55422 2.0928 2.33001 3.14018 2.54924-.024 5.12966.0324 7.5957.23828 5.99153.51883 12.11307 1.51088 18.1125 2.54202 3.64218.64921 7.27642 1.34223 10.91485 2.01267-4.41526-8.15641-8.99724-16.24913-14.42274-23.78581-3.76395-5.19221-7.74526-10.37046-12.88467-14.28477-5.65058-4.15184-12.46657-6.38211-19.28424-7.72152-3.65589-.6798-7.3437-1.25319-11.05521-1.50454-.51029-.0143-1.02051-.0121-1.53088-.004zm-43.28906 11.48828c-6.00424.1024-11.84081 1.71434-17.60829 3.23495-5.5996 1.55868-11.09868 3.44877-16.62218 5.25333 13.47413 5.28239 26.85456 10.63171 39.74327 17.2735 4.14436 2.11858 8.13562 4.5473 11.78938 7.43814 6.95096 5.33073 13.44269 11.22811 19.86774 17.17313 1.45821 1.35702 2.97426 2.80764 4.44727 4.20898 7.80964-6.17202 15.61696-12.34698 23.42773-18.51757-11.48268-9.53428-23.30019-18.73137-36.00758-26.58939-5.088-3.08573-10.3487-6.03434-16.07249-7.76218-4.20461-1.22014-8.59091-1.75982-12.96485-1.71289zm-.52344 26.22461c-10.30983 1.70816-19.83506 6.53047-28.34577 12.45108-15.48081 10.87732-28.01434 25.50573-37.99498 41.48468-9.09986 14.61988-16.04995 30.7459-19.15407 47.73791-1.5229 8.38781-1.94689 16.95606-1.41184 25.45995.74468 13.1082 3.8394 26.08611 9.11843 38.10758.36264.95325 1.34376 1.449 2.02523 2.16262 15.5195 13.82093 33.76535 24.41271 53.09113 31.95165 31.5808 12.26101 66.14922 16.30117 99.78168 12.72546 4.93364-.5402 9.86258-1.12831 14.79449-1.68835-9.7267-4.35158-19.41608-8.79012-29.17313-13.07109-11.80916-4.36896-22.2401-11.98205-30.72531-21.21602-1.1566-1.26136-2.42519-2.7087-3.56194-4.09748-9.18095-11.19751-16.04228-24.26079-20.27614-38.09791-1.64689-5.39985-2.94829-11.25359-3.63201-17.03094-.98449-8.59647-.86384-17.50431 1.84032-25.79639 1.92224-5.90624 5.5235-11.55077 11.01321-14.69941 4.08589-2.40987 8.89292-3.34445 13.59899-3.25053.7405.015 1.77632.056 2.63068.13974 2.43514.19439 4.83959.63827 7.23846 1.08487 2.02986-4.77037 3.4855-9.75874 4.67968-14.79687.85694 2.09675 1.6962 4.28879 1.74942 6.57731-.0931 3.78919-2.1742 7.10834-3.86665 10.37434-1.26424 2.32648-2.43294 4.71055-3.32613 7.20655 7.33035 19.27423 18.77113 36.84983 32.67969 52.01758 9.31248 10.09256 19.80274 19.2226 31.67801 26.18321 7.02871 4.0874 14.65219 7.41735 22.74526 8.60486 1.52155.13297 3.04879.0327 4.57438.0882 7.48815-.057 14.90025-2.72065 20.75625-7.3801 4.2866-3.38552 7.64771-7.73658 11.36022-11.70456.84786-.52876.11197-.7862-.47399-1.06931-4.57485-2.52218-9.22587-4.90718-13.78779-7.45106-1.08477-.68984-2.38257-1.34043-2.9539-2.54274.0504-1.34895.9908-2.45588 1.53811-3.64244 2.72493-5.01567 5.44847-10.0321 8.17478-15.04702-6.12388 1.73147-12.21365 3.60119-18.35374 5.26157-2.51611.0393-4.7976-1.38451-6.6404-2.97251-1.39639-1.30487-2.65464-3.03938-2.69531-5.01367.47414-1.00624 1.63934-1.4135 2.43776-2.12363 4.49583-3.27251 8.99681-6.53794 13.49583-9.80606.38017 1.71153.49063 3.47463.66239 5.20484.25568 1.27263 1.91667 1.83775 2.91757 1.03171 4.15967-2.99799 9.05472-5.45615 14.29934-5.40502 3.93301-.001 7.87399 1.76238 10.28392 4.90818 3.29567 4.19058 4.16676 9.78209 3.75626 14.97706-.19581 2.56299-.78256 5.0739-.96288 7.63917-.26514 2.45952-.53093 4.91896-.79644 7.37844 2.62981-3.23724 5.44633-6.32973 7.89569-9.70874 5.73637-8.35106 9.92302-17.97261 10.89607-28.12714 1.07009-10.36407-1.51647-20.91793-6.57925-29.96504-.98321-1.83279-2.12596-3.57227-3.23204-5.33189-6.37534-.51932-12.71095-1.82214-18.65821-4.20899-.85228-.33856-1.93861-.80437-2.8628-1.2439-9.0092-4.20904-16.88507-11.20228-21.30862-20.19031-1.19136-2.26041-1.96029-4.69802-2.81491-7.09508-2.0403-5.45056-6.22184-9.81308-10.85141-13.19799-3.95268-2.81034-8.23513-5.19162-12.77005-6.92175-13.1629-4.6598-26.83417-8.35223-40.84605-8.98482-1.87924-.0529-3.75978-.0633-5.63991-.0868-2.16432 5.71654-5.52285 11.07653-10.25096 15.01491-5.03652 4.30405-11.33905 6.92059-17.79787 8.19407-6.08589-8.39103-14.20084-15.04888-22.64359-20.94766-5.37664-3.72265-11.00512-7.06851-16.76656-10.1578-.1862.0345-.3724.069-.5586.10351zm77.75196 38.92188c4.53657.0287 9.39745.53232 13.15052 3.32338 3.13511 2.37653 4.43232 6.40419 4.64759 10.19864.0577.8439.0772 1.59759.0691 2.36665-5.46602.15717-11.17333-1.19896-15.42786-4.77728-3.54942-2.86617-6.09661-6.76001-8.14246-10.79108 1.91475-.19985 3.84991-.30674 5.70313-.32031zm22.30859 33.7207c-2.36902 3.73828-3.1587 8.48195-1.86535 12.74196.89407 3.15454 2.78212 5.98214 5.20129 8.17601-1.48854 6.10303.43249 12.77437 4.57812 17.42969 1.57978 1.82911 3.46551 3.37877 5.50196 4.67382-1.38265 5.46927.39521 11.31178 3.6314 15.78994 2.57553 3.65432 6.01581 6.70866 9.99164 8.7628-3.58296 1.64312-7.88502 2.30727-11.58244.63594-3.82088-1.62188-6.08961-5.57016-6.84187-9.50425-.91949-4.50292-.21766-9.1549 1.09249-13.50625.37406-1.33893.74961-2.67745 1.12479-4.01607-3.41333.6647-6.80197 1.84666-10.32057 1.65946-3.41617-.13985-6.87449-2.06831-8.23021-5.30399-1.72759-4.00982-.87587-8.61106.8062-12.48646.56188-1.29949 1.13303-2.595 1.69966-3.89244-2.03431-.48569-4.22005-.55912-6.10162-1.54128-2.19524-1.30668-2.74865-4.14843-2.35809-6.50404.92361-5.25784 4.69455-9.73124 9.33259-12.21385 1.4806-.78076 3.09385-1.34606 4.76189-1.53771-.14063.21224-.28125.42448-.42188.63672zm15.4336 8.88477c3.16915.003 6.51434 1.27828 8.27929 4.03124.55775.67361-.52418.0296-.85131-.005-2.53076-.8789-5.10965-1.64957-7.58493-2.66927-.6033-.33099-1.1859-.72988-1.6204-1.27105.58993-.0708 1.18371-.0872 1.77735-.0859zm9.92578 9.54687c.0427 2.5132-.48732 4.99228-.71485 7.48828 2.82097-.66473 5.54125-1.61111 8.4832-1.66679 3.84808-.0887 7.62175 2.02487 9.56885 5.34204.68108 1.1354 1.21607 2.3582 1.56905 3.6353-6.47181-.76651-12.92444-1.41232-19.35053-2.25352-3.0082-.55834-5.98905-2.73074-6.56354-5.87344-.0408-1.13006 1.20611-1.56891 1.84459-2.29304 1.71782-1.50323 3.43564-3.00646 5.15346-4.50969l.007.0997zm8.80468 59.0957c1.04749 1.41651 2.27641 2.69805 3.65039 3.80078-.60322.24357-1.22434.44555-1.85742.59571-.93025-1.47799-1.60484-3.10751-2.0664-4.78906.0911.13085.18229.26171.27343.39257z" fill="#fde791" filter="url(#a)" opacity="1" stroke-width="1.600893"/><path d="m239.23438 204.17383c-3.96918.2041-8.51368.98242-8.51368.98242s13.09218 10.57294 18.88086 16.64648c5.43044 5.69768 14.74805 18.44141 14.74805 18.44141s1.64789.009 2.4668.0234c8.98793.19427 26.47461 3.58203 26.47461 3.58203s-12.87127-23.92901-23.60547-31.45313c-7.66517-5.37287-17.55804-7.16816-26.86328-8.18554-1.00555-.10994-2.26484-.10515-3.58789-.0371zm-43.29297 11.46679c-8.16036.2707-23.85938 5.54297-23.85938 5.54297s26.74962 10.43931 38.76953 18.1211c10.22834 6.53682 27.84961 23.46289 27.84961 23.46289l18.13672-14.33789s-28.02624-23.52366-44.74609-30.15235c-5.07052-2.01023-10.69893-2.81755-16.15039-2.63672zm.44531 26.25391c-19.61118 3.36265-39.43821 20.08076-52.75781 36.91016-17.44431 22.04097-30.90774 50.24591-31.17579 78.35351-.1555 16.30817 2.7068 30.64334 8.97461 45.32032 2.70247 2.44957 5.47492 4.84341 8.38086 7.12304 31.09853 24.39588 73.54282 39.18164 120.23633 39.18164 8.93883 0 17.71733-.55219 26.29492-1.59961l-17.81054-8.00976c-66.48659-24.07282-85.97064-141.52933-23.32227-129.78125 2.90445-7.04665 5.48242-20.62891 5.48242-20.62891s6.19441 10.20008 6.1836 15.88086c-.0121 6.34636-4.83694 11.88464-6.97657 17.71485 16.33911 42.4073 56.60268 79.94495 84.32618 83.67968.45524.0151.94736-.001 1.46875-.0449 8.46553.51492 17.84039-2.09983 25.97461-11.0957l3.97265-4.39453-5.21094-2.81446c-3.23723-1.74871-7.11021-3.52961-9.03906-5.43554-.96415-.95324-1.3895-1.72627-1.52929-2.58399-.14022-.85818-.0647-2.10297 1.10937-4.26758l5.31055-9.77929-10.6875 3.0957c-3.13629.90796-8.60998-1.50828-11.55469-5.32813-1.47265-1.91039-2.19406-3.93385-2.18359-5.39453.0113-1.46164.35994-2.54867 2.36328-4.0039l9.67773-7.02735-11.88281-1.35351c-4.9621-.56565-8.14409-3.31323-9.53711-6.11719-1.39401-2.80293-1.15069-5.01615.68359-6.62109l6.07227-5.3125-7.64063-2.58985c-3.34173-1.13231-5.12199-3.75775-5.15234-5.28906-.0151-.68307.11782-1.32609.91602-2.22656 5.43775-1.18904 10.57667-.22493 13.9746 3.16992 3.06165 3.05767 4.15379 7.5277 3.47071 12.35547 4.2537-1.12134 8.45038-.80453 11.99609 1.24023 4.64671 2.68006 7.28601 7.80625 7.79492 13.91211 7.56809-5.04071 15.99533-6.33 22.51758-2.56836 7.69492 4.43777 10.62746 14.68305 8.36133 25.7461 11.93616-16.59427 17.20818-37.66912 2.79492-59.91407-23.24644-2.20996-40.643-15.26254-46.41406-33.65234-2.50046-7.96803-10.58986-14.26262-20.91602-18.80273-14.81566-5.33061-27.6685-8.579-41.0957-9.22852-1.12145-.008-2.24825-.0409-3.34375-.0469-4.74473 11.37995-14.25897 19.85046-28.57422 22.9121l-2.93945.62891-1.77735-2.41992c-7.07254-9.61677-20.51268-20.12601-36.8164-28.89258zm77.7168 32.46875c13.89407-.0381 22.32649 5.77867 20.9414 22.11328-17.83258 1.68654-25.83815-8.29922-31.38086-21.20898 3.73477-.57464 7.23278-.89556 10.43946-.9043zm24.08398 33.01563c1.84428.0345 3.55259.49395 4.98242 1.39843-.75122.54826-1.44246 1.13537-2.07031 1.76368-2.60988 2.60695-4.02219 6.03074-3.95703 9.32421.0911 4.63775 2.62013 8.54808 6.30664 11.22266-1.56215 4.03125-1.21868 8.68379.70117 12.54688 1.89702 3.81489 5.24241 7.10212 9.60156 9.15429-.7189 1.67467-1.18092 3.41336-1.19336 5.13867-.0302 4.18254 1.68092 7.98051 4.11524 11.13868 3.37908 4.38304 8.3892 7.92807 13.94336 8.91015-.0907 1.08461-.10137 2.15568.0664 3.1875.52241 3.2059 2.24706 5.80263 4.16993 7.70313 1.69651 1.6766 3.57608 2.92938 5.37109 3.97461-3.15666 2.38408-6.17521 3.51181-9.26172 3.87695-3.24125-3.9487-4.83085-9.49428-4.68164-15.64844-5.8541 3.07306-12.04437 3.56051-16.97461.7168-7.29739-4.20892-9.64808-14.44716-6.56055-25.04102-5.63973 1.3781-11.01057.45764-14.52148-3.05078-4.41536-4.41036-4.74346-11.75261-1.53906-18.8789-1.8288-.30614-3.46369-1.07844-4.73828-2.35157-4.38203-4.37706-2.87212-12.98002 3.37109-19.21679 3.90194-3.89794 8.72838-5.94773 12.86914-5.86914z" fill="url(#c)" filter="url(#a)" opacity="1" stroke-width="1.60089"/></g><path d="m239.23438 204.17383c-3.96918.2041-8.51368.98242-8.51368.98242s13.09218 10.57294 18.88086 16.64648c5.43044 5.69768 14.74805 18.44141 14.74805 18.44141s1.64789.009 2.4668.0234c8.98793.19427 26.47461 3.58203 26.47461 3.58203s-12.87127-23.92901-23.60547-31.45313c-7.66517-5.37287-17.55804-7.16816-26.86328-8.18554-1.00555-.10994-2.26484-.10515-3.58789-.0371zm-43.29297 11.46679c-8.16036.2707-23.85938 5.54297-23.85938 5.54297s26.74962 10.43931 38.76953 18.1211c10.22834 6.53682 27.84961 23.46289 27.84961 23.46289l18.13672-14.33789s-28.02624-23.52366-44.74609-30.15235c-5.07052-2.01023-10.69893-2.81755-16.15039-2.63672zm.44531 26.25391c-19.61118 3.36265-39.43821 20.08076-52.75781 36.91016-17.44431 22.04097-30.90774 50.24591-31.17579 78.35351-.1555 16.30817 2.7068 30.64334 8.97461 45.32032 2.70247 2.44957 5.47492 4.84341 8.38086 7.12304 31.09853 24.39588 73.54282 39.18164 120.23633 39.18164 8.93883 0 17.71733-.55219 26.29492-1.59961l-17.81054-8.00976c-66.48659-24.07282-85.97064-141.52933-23.32227-129.78125 2.90445-7.04665 5.48242-20.62891 5.48242-20.62891s6.19441 10.20008 6.1836 15.88086c-.0121 6.34636-4.83694 11.88464-6.97657 17.71485 16.33911 42.4073 56.60268 79.94495 84.32618 83.67968.45524.0151.94736-.001 1.46875-.0449 8.46553.51492 17.84039-2.09983 25.97461-11.0957l3.97265-4.39453-5.21094-2.81446c-3.23723-1.74871-7.11021-3.52961-9.03906-5.43554-.96415-.95324-1.3895-1.72627-1.52929-2.58399-.14022-.85818-.0647-2.10297 1.10937-4.26758l5.31055-9.77929-10.6875 3.0957c-3.13629.90796-8.60998-1.50828-11.55469-5.32813-1.47265-1.91039-2.19406-3.93385-2.18359-5.39453.0113-1.46164.35994-2.54867 2.36328-4.0039l9.67773-7.02735-11.88281-1.35351c-4.9621-.56565-8.14409-3.31323-9.53711-6.11719-1.39401-2.80293-1.15069-5.01615.68359-6.62109l6.07227-5.3125-7.64063-2.58985c-3.34173-1.13231-5.12199-3.75775-5.15234-5.28906-.0151-.68307.11782-1.32609.91602-2.22656 5.43775-1.18904 10.57667-.22493 13.9746 3.16992 3.06165 3.05767 4.15379 7.5277 3.47071 12.35547 4.2537-1.12134 8.45038-.80453 11.99609 1.24023 4.64671 2.68006 7.28601 7.80625 7.79492 13.91211 7.56809-5.04071 15.99533-6.33 22.51758-2.56836 7.69492 4.43777 10.62746 14.68305 8.36133 25.7461 11.93616-16.59427 17.20818-37.66912 2.79492-59.91407-23.24644-2.20996-40.643-15.26254-46.41406-33.65234-2.50046-7.96803-10.58986-14.26262-20.91602-18.80273-14.81566-5.33061-27.6685-8.579-41.0957-9.22852-1.12145-.008-2.24825-.0409-3.34375-.0469-4.74473 11.37995-14.25897 19.85046-28.57422 22.9121l-2.93945.62891-1.77735-2.41992c-7.07254-9.61677-20.51268-20.12601-36.8164-28.89258zm77.7168 32.46875c13.89407-.0381 22.32649 5.77867 20.9414 22.11328-17.83258 1.68654-25.83815-8.29922-31.38086-21.20898 3.73477-.57464 7.23278-.89556 10.43946-.9043zm24.08398 33.01563c1.84428.0345 3.55259.49395 4.98242 1.39843-.75122.54826-1.44246 1.13537-2.07031 1.76368-2.60988 2.60695-4.02219 6.03074-3.95703 9.32421.0911 4.63775 2.62013 8.54808 6.30664 11.22266-1.56215 4.03125-1.21868 8.68379.70117 12.54688 1.89702 3.81489 5.24241 7.10212 9.60156 9.15429-.7189 1.67467-1.18092 3.41336-1.19336 5.13867-.0302 4.18254 1.68092 7.98051 4.11524 11.13868 3.37908 4.38304 8.3892 7.92807 13.94336 8.91015-.0907 1.08461-.10137 2.15568.0664 3.1875.52241 3.2059 2.24706 5.80263 4.16993 7.70313 1.69651 1.6766 3.57608 2.92938 5.37109 3.97461-3.15666 2.38408-6.17521 3.51181-9.26172 3.87695-3.24125-3.9487-4.83085-9.49428-4.68164-15.64844-5.8541 3.07306-12.04437 3.56051-16.97461.7168-7.29739-4.20892-9.64808-14.44716-6.56055-25.04102-5.63973 1.3781-11.01057.45764-14.52148-3.05078-4.41536-4.41036-4.74346-11.75261-1.53906-18.8789-1.8288-.30614-3.46369-1.07844-4.73828-2.35157-4.38203-4.37706-2.87212-12.98002 3.37109-19.21679 3.90194-3.89794 8.72838-5.94773 12.86914-5.86914z" fill="url(#j)" filter="url(#a)" stroke-width="1.600893" transform="matrix(.54070713 -.31277027 .62374202 .36082655 -86.513804 104.71355)"/></svg>