<svg height="500" viewBox="0 0 500 500" width="500" xmlns="http://www.w3.org/2000/svg" xmlns:xlink="http://www.w3.org/1999/xlink"><pattern id="a" patternTransform="translate(704.58361 105.07682)" xlink:href="#c"/><pattern id="b" patternTransform="translate(250.99264 141.2925)" xlink:href="#c"/><pattern id="c" patternTransform="translate(668.64406 75.42373)" xlink:href="#d"/><pattern id="d" height="150" patternTransform="translate(477.05264 102.52575)" patternUnits="userSpaceOnUse" width="150"><g transform="translate(-136.8644 -155.932201)"><use transform="matrix(.63183642 .3062704 -.3062704 .63183642 122.56212 94.902713)" xlink:href="#g"/><use transform="matrix(.80467885 .87825159 -.87825159 .80467885 235.308 -57.21934)" xlink:href="#g"/><use transform="matrix(.64511398 .08385277 -.08385277 .64511398 81.4385 93.390199)" xlink:href="#g"/><use transform="matrix(1.0359187 -.13409107 .13409107 1.0359187 34.837282 -31.431295)" xlink:href="#g"/><use transform="matrix(.70940974 .2487586 -.2487586 .70940974 169.01847 15.720439)" xlink:href="#g"/><use transform="matrix(.6052542 -.8789638 .8789638 .6052542 -110.91902 215.64352)" xlink:href="#g"/><use transform="matrix(.52129758 .64304497 -.64304497 .52129758 314.27729 67.401262)" xlink:href="#g"/><use transform="matrix(.66892479 .76772319 -.76772319 .66892479 268.3251 -42.31516)" xlink:href="#g"/><use transform="matrix(.89891197 .09610842 -.09610842 .89891197 67.170053 10.080985)" xlink:href="#g"/><use transform="matrix(-.03982642 .82906741 -.82906741 -.03982642 359.17426 143.90279)" xlink:href="#g"/><use transform="matrix(-.19798435 1.0973589 -1.0973589 -.19798435 509.08539 111.9081)" xlink:href="#g"/><use transform="matrix(.70940974 .2487586 -.2487586 .70940974 169.01847 15.720439)" xlink:href="#g"/><use transform="matrix(1.0359187 -.13409107 .13409107 1.0359187 34.837282 -31.431295)" xlink:href="#g"/><use transform="matrix(.64511398 .08385277 -.08385277 .64511398 81.4385 93.390199)" xlink:href="#g"/><use transform="matrix(.80467885 .87825159 -.87825159 .80467885 305.48809 -20.334083)" xlink:href="#g"/><use transform="matrix(.63183642 .3062704 -.3062704 .63183642 122.56212 94.902713)" xlink:href="#g"/><use transform="matrix(1.0726085 -.09693683 .09693683 1.0726085 19.188395 97.797809)" xlink:href="#e"/><use transform="matrix(1.1398029 -.07002106 .07002106 1.1398029 45.132653 31.344107)" xlink:href="#e"/><use transform="matrix(.75398849 .69932087 -.69932087 .75398849 145.93655 55.7045)" xlink:href="#e"/><use transform="matrix(.35581302 1.0403253 -1.0403253 .35581302 385.56131 8.32565)" xlink:href="#e"/><use transform="matrix(.37568562 1.083644 -1.083644 .37568562 404.35402 -11.318003)" xlink:href="#e"/><use transform="matrix(-.34097047 .82887276 -.82887276 -.34097047 364.41552 102.03154)" xlink:href="#e"/><use transform="matrix(.8813638 -.22645781 .22645781 .8813638 52.246653 185.44678)" xlink:href="#e"/><use transform="matrix(1.1537377 -.13051967 .13051967 1.1537377 -16.443698 67.209453)" xlink:href="#e"/><use transform="matrix(.97037256 .14757001 -.14757001 .97037256 98.392933 97.270859)" xlink:href="#e"/><use transform="matrix(1.0769786 .57520618 -.57520618 1.0769786 146.8527 -13.151948)" xlink:href="#e"/><use transform="matrix(.46116071 .72130784 -.72130784 .46116071 207.69267 -30.280957)" xlink:href="#e"/><use transform="matrix(-.23297057 1.0922217 -1.0922217 -.23297057 365.66378 134.06962)" xlink:href="#e"/><use transform="matrix(.90895066 .22701876 -.22701876 .90895066 89.549028 -36.171432)" xlink:href="#e"/><use transform="matrix(.84094914 -.70034233 .70034233 .84094914 -73.700956 175.38073)" xlink:href="#e"/><use transform="matrix(.68451351 -.34988881 .34988881 .68451351 59.133127 187.27324)" xlink:href="#e"/><use transform="matrix(.2390399 1.1870186 -1.1870186 .2390399 407.8816 50.800767)" xlink:href="#e"/><use transform="matrix(.09567797 .97295505 -.97295505 .09567797 415.1735 19.270028)" xlink:href="#e"/><use transform="matrix(.822663 .56668248 -.56668248 .822663 114.51616 51.474116)" xlink:href="#e"/><use transform="matrix(.27810607 -.71590522 .71590522 .27810607 110.41552 271.71788)" xlink:href="#e"/><use transform="matrix(.63711936 -.96094576 .96094576 .63711936 -19.727824 341.89745)" xlink:href="#e"/><use transform="matrix(.60260243 .52173729 -.52173729 .60260243 230.38234 -14.914624)" xlink:href="#e"/><use transform="matrix(.74798728 -.29954199 .29954199 .74798728 -34.030124 227.97907)" xlink:href="#e"/><use transform="matrix(.79337189 .69275606 -.69275606 .79337189 203.88969 -53.389494)" xlink:href="#e"/><use transform="matrix(.75125932 .49120819 -.49120819 .75125932 163.91903 -9.265784)" xlink:href="#e"/><use transform="matrix(.74288053 -.1257304 .1257304 .74288053 91.18597 63.388248)" xlink:href="#e"/><use transform="matrix(.92046885 -.24999446 .24999446 .92046885 -41.738996 111.1813)" xlink:href="#e"/><use transform="matrix(1.0331395 .21853658 -.21853658 1.0331395 137.53439 13.354963)" xlink:href="#e"/><use transform="matrix(.81335932 .40086123 -.40086123 .81335932 123.41992 22.486207)" xlink:href="#e"/><use transform="matrix(.8928858 -.13139133 .13139133 .8928858 -28.457032 78.833386)" xlink:href="#e"/><use transform="matrix(.6430204 1.0880826 -1.0880826 .6430204 345.40535 -123.5235)" xlink:href="#e"/><use transform="matrix(.42911778 -.77517589 .77517589 .42911778 -34.206364 348.4627)" xlink:href="#e"/><use transform="matrix(1.036648 -.46795009 .46795009 1.036648 -39.082759 98.721253)" xlink:href="#e"/><use transform="matrix(1.0597242 -.10828315 .10828315 1.0597242 -5.589274 85.420655)" xlink:href="#e"/><use transform="matrix(1.071496 .62369016 -.62369016 1.071496 125.90439 -84.658456)" xlink:href="#e"/><use transform="matrix(1.0626803 -.38862343 .38862343 1.0626803 -59.124091 182.4561)" xlink:href="#e"/><use transform="matrix(.93204383 -.06263692 .06263692 .93204383 45.776704 125.64728)" xlink:href="#e"/><use transform="matrix(.86984132 .26926257 -.26926257 .86984132 48.670467 6.331128)" xlink:href="#f"/><use transform="matrix(1.0565013 -.12917936 .12917936 1.0565013 14.133386 1.988161)" xlink:href="#f"/><use transform="matrix(.73127847 .92681619 -.92681619 .73127847 257.4843 -133.22336)" xlink:href="#f"/><use transform="matrix(1.0372951 .59739712 -.59739712 1.0372951 104.72479 -134.79373)" xlink:href="#f"/><use transform="matrix(.64164714 .66947468 -.66947468 .64164714 309.07069 11.796496)" xlink:href="#f"/><use transform="matrix(.80271726 .30475218 -.30475218 .80271726 196.83507 -29.435801)" xlink:href="#f"/><use transform="matrix(.77079818 -.04453588 .04453588 .77079818 16.729368 132.72971)" xlink:href="#f"/><use transform="matrix(1.0588864 .25451014 -.25451014 1.0588864 53.762579 -105.98606)" xlink:href="#f"/><use transform="matrix(1.2046699 .21572882 -.21572882 1.2046699 81.51307 -20.407165)" xlink:href="#f"/><use transform="matrix(.71819251 .33044349 -.33044349 .71819251 204.65651 44.399173)" xlink:href="#f"/><use transform="matrix(.81349646 .27802176 -.27802176 .81349646 152.72407 -4.405478)" xlink:href="#f"/><use transform="matrix(.96114289 -.7376223 .7376223 .96114289 -163.7522 145.83751)" xlink:href="#f"/><use transform="matrix(.72426898 .4115846 -.4115846 .72426898 228.21575 -24.390829)" xlink:href="#f"/><use transform="matrix(.19786266 .84162916 -.84162916 .19786266 284.62113 107.77045)" xlink:href="#f"/><use transform="matrix(.6732692 .57304794 -.57304794 .6732692 148.13212 26.619935)" xlink:href="#f"/><use transform="matrix(.89499916 -.5174593 .5174593 .89499916 -60.550115 169.98819)" xlink:href="#f"/><use transform="matrix(.96230881 .43967104 -.43967104 .96230881 59.676626 -60.836512)" xlink:href="#f"/><use transform="matrix(.83569581 .75049132 -.75049132 .83569581 212.21236 -89.752144)" xlink:href="#f"/><use transform="matrix(.99378944 -.29259583 .29259583 .99378944 33.332193 49.437891)" xlink:href="#f"/><use transform="matrix(.35223681 .77293927 -.77293927 .35223681 264.27828 51.413669)" xlink:href="#f"/><use transform="matrix(.67641922 -.84285212 .84285212 .67641922 -86.292381 176.64581)" xlink:href="#f"/><use transform="matrix(.61671017 -.84509915 .84509915 .61671017 -27.113239 185.55199)" xlink:href="#f"/><use transform="matrix(.61141119 -.5759759 .5759759 .61141119 -51.675936 181.8116)" xlink:href="#f"/><use transform="matrix(.86525061 .52841398 -.52841398 .86525061 151.43802 -37.164444)" xlink:href="#f"/><use transform="matrix(1.0497791 .23632286 -.23632286 1.0497791 17.650584 -67.728959)" xlink:href="#f"/><path id="e" d="m172.56492 168.24693c-.82624.89866-1.11593 1.0902-2.71992 1.08336 1.50858.65804.64869 1.75612.35417 2.45378.77979-.80365 1.52578-1.72341 2.96792-.52371-1.45573-1.28913-.92006-1.99553-.60217-3.01343z" fill="#fff"/><path id="f" d="m180.48319 214.76172-.17586-1.21672.90262-.83459-1.2115-.20878-.51485-1.11629-.57288 1.08767-1.22076.1447.85739.88094-.23963 1.20577 1.10279-.54325 1.07269.60057z" fill="#fff"/><path id="g" d="m165.3419 214.85736-1.21662 2.46528-2.72056.39526 1.96858 1.91894-.4647 2.70954 2.4333-1.27928 2.43332 1.27928-.46472-2.70954 1.96859-1.91891-2.72049-.39528-1.2167-2.46526z" fill="#fff"/></g></pattern><linearGradient id="h" gradientTransform="matrix(3.55578 0 0 3.562357 413.36535 93.356109)" gradientUnits="userSpaceOnUse" spreadMethod="pad" x1="-65.964897" x2="-108.65797" y1="31.088467" y2="44.930946"><stop offset="0" stop-color="#d9e7f2"/><stop offset=".51123601" stop-color="#c2d1db"/><stop offset="1" stop-color="#accace"/></linearGradient><linearGradient id="i" gradientTransform="matrix(3.55578 0 0 3.562357 413.36535 93.356109)" gradientUnits="userSpaceOnUse" spreadMethod="reflect" x1="-98.046707" x2="-79.404053" xlink:href="#h" y1="-48.298088" y2=".620626"/><linearGradient id="j" gradientTransform="matrix(3.55578 0 0 3.562357 413.36535 93.356109)" gradientUnits="userSpaceOnUse" spreadMethod="reflect" x1="44.652851" x2="57.065456" xlink:href="#h" y1="-11.451681" y2="21.119259"/><linearGradient id="k" gradientTransform="matrix(3.55578 0 0 3.562357 413.36535 93.356109)" gradientUnits="userSpaceOnUse" spreadMethod="reflect" x1="78.130539" x2="64.384468" xlink:href="#h" y1="-7.393072" y2="19.089954"/><mask id="l" maskUnits="userSpaceOnUse"><path d="m-13.229159-13.22917h158.749999v158.75002h-158.749999z" fill="url(#m)" filter="url(#n)" stroke-width="11.83"/></mask><radialGradient id="m" cx="66.145844" cy="66.145836" gradientTransform="matrix(-1.0000001 .00000145 0 -1 132.29169 132.29157)" gradientUnits="userSpaceOnUse" r="66.145836"><stop offset="0" stop-color="#fff"/><stop offset=".25342461" stop-color="#fff"/><stop offset=".75273961" stop-color="#808080"/><stop offset=".87499994" stop-color="#404040"/><stop offset="1"/></radialGradient><filter id="n" color-interpolation-filters="sRGB" height="1.0135" width="1.0135" x="-.00675" y="-.00675"><feGaussianBlur stdDeviation=".44648439"/></filter><radialGradient id="o" cx="703.05621" cy="255.40021" gradientTransform="matrix(.12107523 -.12107523 .05841622 .05841622 -57.692804 112.54712)" gradientUnits="userSpaceOnUse" r="1011.8609"><stop offset="0" stop-color="#fff"/><stop offset=".08962709" stop-color="#fff" stop-opacity=".9104"/><stop offset="1" stop-color="#fff" stop-opacity="0"/></radialGradient><radialGradient id="p" cx="703.05621" cy="1070.2185" gradientTransform="matrix(.12107523 -.12107523 .05841622 .05841622 -57.692804 112.54712)" gradientUnits="userSpaceOnUse" r="1011.8609"><stop offset="0" stop-color="#cce8ff"/><stop offset=".1" stop-color="#cce9ff" stop-opacity=".9"/><stop offset="1" stop-color="#cce8ff" stop-opacity="0"/></radialGradient><radialGradient id="q" cx="4601.1221" cy="4277.6772" gradientTransform="matrix(0 1 -1 0 5224.5762 -3824.5764)" gradientUnits="userSpaceOnUse" r="11.2507" xlink:href="#r"/><linearGradient id="r"><stop offset="0" stop-color="#fff"/><stop offset=".1375" stop-color="#fff" stop-opacity=".8625"/><stop offset="1" stop-color="#fff" stop-opacity="0"/></linearGradient><radialGradient id="s" cx="4694.3481" cy="4395.814" gradientTransform="matrix(0 1 -1 0 5224.5762 -3824.5764)" gradientUnits="userSpaceOnUse" r="11.2507" xlink:href="#r"/><radialGradient id="t" cx="4845.7568" cy="4885.4878" gradientTransform="matrix(0 1 -1 0 5224.5762 -3824.5764)" gradientUnits="userSpaceOnUse" r="11.2507" xlink:href="#r"/><radialGradient id="u" cx="4996.8203" cy="4201.0781" gradientTransform="matrix(0 1 -1 0 5224.5762 -3824.5764)" gradientUnits="userSpaceOnUse" r="11.2507" xlink:href="#r"/><radialGradient id="v" cx="4264.2671" cy="4804.9849" gradientTransform="matrix(0 1 -1 0 5224.5762 -3824.5764)" gradientUnits="userSpaceOnUse" r="11.2507" xlink:href="#r"/><radialGradient id="w" cx="4253.0161" cy="4349.7529" gradientTransform="matrix(0 1 -1 0 5224.5762 -3824.5764)" gradientUnits="userSpaceOnUse" r="11.2507" xlink:href="#r"/><radialGradient id="x" cx="4291.9346" cy="4509.8506" gradientTransform="matrix(0 1 -1 0 5224.5762 -3824.5764)" gradientUnits="userSpaceOnUse" r="11.2507" xlink:href="#r"/><radialGradient id="y" cx="4178.7915" cy="4193.6758" gradientTransform="matrix(0 1 -1 0 5224.5762 -3824.5764)" gradientUnits="userSpaceOnUse" r="11.2507" xlink:href="#r"/><radialGradient id="z" cx="4508.9131" cy="4184.4229" gradientTransform="matrix(0 1 -1 0 5224.5762 -3824.5764)" gradientUnits="userSpaceOnUse" r="11.2507" xlink:href="#r"/><radialGradient id="A" cx="4169.5386" cy="4599.0166" gradientTransform="matrix(0 1 -1 0 5224.5762 -3824.5764)" gradientUnits="userSpaceOnUse" r="11.2507" xlink:href="#r"/><radialGradient id="B" cx="4024.0554" cy="4671.3345" gradientTransform="matrix(0 1 -1 0 5224.5762 -3824.5764)" gradientUnits="userSpaceOnUse" r="11.2507" xlink:href="#r"/><radialGradient id="C" cx="4381.2778" cy="4473.0386" gradientTransform="matrix(0 1 -1 0 5224.5762 -3824.5764)" gradientUnits="userSpaceOnUse" r="5.6228" xlink:href="#r"/><radialGradient id="D" cx="4207.3452" cy="4447.1753" gradientTransform="matrix(0 1 -1 0 5224.5762 -3824.5764)" gradientUnits="userSpaceOnUse" r="5.6228" xlink:href="#r"/><radialGradient id="E" cx="4156.0269" cy="4803.9863" gradientTransform="matrix(0 1 -1 0 5224.5762 -3824.5764)" gradientUnits="userSpaceOnUse" r="5.6228" xlink:href="#r"/><radialGradient id="F" cx="4201.7222" cy="5018.0508" gradientTransform="matrix(0 1 -1 0 5224.5762 -3824.5764)" gradientUnits="userSpaceOnUse" r="5.6228" xlink:href="#r"/><radialGradient id="G" cx="4756.5977" cy="4610.2671" gradientTransform="matrix(0 1 -1 0 5224.5762 -3824.5764)" gradientUnits="userSpaceOnUse" r="5.6228" xlink:href="#r"/><radialGradient id="H" cx="4724.8408" cy="4498.3604" gradientTransform="matrix(0 1 -1 0 5224.5762 -3824.5764)" gradientUnits="userSpaceOnUse" r="5.6228" xlink:href="#r"/><radialGradient id="I" cx="4755.5991" cy="4916.6094" gradientTransform="matrix(0 1 -1 0 5224.5762 -3824.5764)" gradientUnits="userSpaceOnUse" r="5.6228" xlink:href="#r"/><radialGradient id="J" cx="4815.3223" cy="4406.499" gradientTransform="matrix(0 1 -1 0 5224.5762 -3824.5764)" gradientUnits="userSpaceOnUse" r="5.6228" xlink:href="#r"/><radialGradient id="K" cx="4840.1343" cy="4528.7949" gradientTransform="matrix(0 1 -1 0 5224.5762 -3824.5764)" gradientUnits="userSpaceOnUse" r="5.6228" xlink:href="#r"/><radialGradient id="L" cx="4994.8228" cy="4675.311" gradientTransform="matrix(0 1 -1 0 5224.5762 -3824.5764)" gradientUnits="userSpaceOnUse" r="5.6228" xlink:href="#r"/><radialGradient id="M" cx="4625.9868" cy="4580.4009" gradientTransform="matrix(0 1 -1 0 5224.5762 -3824.5764)" gradientUnits="userSpaceOnUse" r="5.6228" xlink:href="#r"/><radialGradient id="N" cx="4832.085" cy="4231.3418" gradientTransform="matrix(0 1 -1 0 5224.5762 -3824.5764)" gradientUnits="userSpaceOnUse" r="5.6228" xlink:href="#r"/><radialGradient id="O" cx="4920.2227" cy="4281.3076" gradientTransform="matrix(0 1 -1 0 5224.5762 -3824.5764)" gradientUnits="userSpaceOnUse" r="5.6228" xlink:href="#r"/><radialGradient id="P" cx="4483.835" cy="4313.1982" gradientTransform="matrix(0 1 -1 0 5224.5762 -3824.5764)" gradientUnits="userSpaceOnUse" r="5.6228" xlink:href="#r"/><radialGradient id="Q" cx="4664.439" cy="4695.5273" gradientTransform="matrix(0 1 -1 0 5224.5762 -3824.5764)" gradientUnits="userSpaceOnUse" r="11.2507" xlink:href="#r"/><radialGradient id="R" cx="4894.2646" cy="4681.8555" gradientTransform="matrix(0 1 -1 0 5224.5762 -3824.5764)" gradientUnits="userSpaceOnUse" r="11.2507" xlink:href="#r"/><radialGradient id="S" cx="4985.5698" cy="4361.0039" gradientTransform="matrix(0 1 -1 0 5224.5762 -3824.5764)" gradientUnits="userSpaceOnUse" r="11.2507" xlink:href="#r"/><radialGradient id="T" cx="4713.5898" cy="4089.8687" gradientTransform="matrix(0 1 -1 0 5224.5762 -3824.5764)" gradientUnits="userSpaceOnUse" r="11.2507" xlink:href="#r"/><radialGradient id="U" cx="4757.5957" cy="4804.9849" gradientTransform="matrix(0 1 -1 0 5224.5762 -3824.5764)" gradientUnits="userSpaceOnUse" r="11.2507" xlink:href="#r"/><radialGradient id="V" cx="4433.3354" cy="5016.0532" gradientTransform="matrix(0 1 -1 0 5224.5762 -3824.5764)" gradientUnits="userSpaceOnUse" r="11.2507" xlink:href="#r"/><radialGradient id="W" cx="4371.5723" cy="4725.9341" gradientTransform="matrix(0 1 -1 0 5224.5762 -3824.5764)" gradientUnits="userSpaceOnUse" r="11.2507" xlink:href="#r"/><radialGradient id="X" cx="4510.9111" cy="4743.7231" gradientTransform="matrix(0 1 -1 0 5224.5762 -3824.5764)" gradientUnits="userSpaceOnUse" r="11.2507" xlink:href="#r"/><radialGradient id="Y" cx="4269.4331" cy="4686.5615" gradientTransform="matrix(0 1 -1 0 5224.5762 -3824.5764)" gradientUnits="userSpaceOnUse" r="11.2507" xlink:href="#r"/><radialGradient id="Z" cx="4072.584" cy="4883.4902" gradientTransform="matrix(0 1 -1 0 5224.5762 -3824.5764)" gradientUnits="userSpaceOnUse" r="11.2507" xlink:href="#r"/><radialGradient id="aa" cx="4484.8335" cy="4664.189" gradientTransform="matrix(0 1 -1 0 5224.5762 -3824.5764)" gradientUnits="userSpaceOnUse" r="7.1455" xlink:href="#r"/><radialGradient id="ab" cx="4613.2183" cy="4640.4971" gradientTransform="matrix(0 1 -1 0 5224.5762 -3824.5764)" gradientUnits="userSpaceOnUse" r="7.1455" xlink:href="#r"/><radialGradient id="ac" cx="4091.8" cy="4252.5869" gradientTransform="matrix(0 1 -1 0 5224.5762 -3824.5764)" gradientUnits="userSpaceOnUse" r="7.1455" xlink:href="#r"/><radialGradient id="ad" cx="4666.4365" cy="4863.9521" gradientTransform="matrix(0 1 -1 0 5224.5762 -3824.5764)" gradientUnits="userSpaceOnUse" r="7.1455" xlink:href="#r"/><radialGradient id="ae" cx="4894.2646" cy="4840.1016" gradientTransform="matrix(0 1 -1 0 5224.5762 -3824.5764)" gradientUnits="userSpaceOnUse" r="7.1455" xlink:href="#r"/><radialGradient id="af" cx="4974.3188" cy="4809.6094" gradientTransform="matrix(0 1 -1 0 5224.5762 -3824.5764)" gradientUnits="userSpaceOnUse" r="7.1455" xlink:href="#r"/><radialGradient id="ag" cx="4589.1577" cy="4997.6572" gradientTransform="matrix(0 1 -1 0 5224.5762 -3824.5764)" gradientUnits="userSpaceOnUse" r="7.1455" xlink:href="#r"/><radialGradient id="ah" cx="4065.4385" cy="4519.7837" gradientTransform="matrix(0 1 -1 0 5224.5762 -3824.5764)" gradientUnits="userSpaceOnUse" r="7.1455" xlink:href="#r"/><radialGradient id="ai" cx="4347.4258" cy="4820.2441" gradientTransform="matrix(0 1 -1 0 5224.5762 -3824.5764)" gradientUnits="userSpaceOnUse" r="7.1455" xlink:href="#r"/><radialGradient id="aj" cx="4533.5781" cy="4593.1694" gradientTransform="matrix(0 1 -1 0 5224.5762 -3824.5764)" gradientUnits="userSpaceOnUse" r="7.1455" xlink:href="#r"/><radialGradient id="ak" cx="4448.2217" cy="4220.0913" gradientTransform="matrix(0 1 -1 0 5224.5762 -3824.5764)" gradientUnits="userSpaceOnUse" r="11.2507" xlink:href="#r"/><radialGradient id="al" cx="4908.2451" cy="4929.8579" gradientTransform="matrix(0 1 -1 0 5224.5762 -3824.5764)" gradientUnits="userSpaceOnUse" r="11.2507" xlink:href="#r"/><radialGradient id="am" cx="4987.5674" cy="5014.0552" gradientTransform="matrix(0 1 -1 0 5224.5762 -3824.5764)" gradientUnits="userSpaceOnUse" r="11.2507" xlink:href="#r"/><radialGradient id="an" cx="3991.5649" cy="4813.0986" gradientTransform="matrix(0 1 -1 0 5224.5762 -3824.5764)" gradientUnits="userSpaceOnUse" r="11.2507" xlink:href="#r"/><radialGradient id="ao" cx="4027.6277" cy="5059.4341" gradientTransform="matrix(0 1 -1 0 5224.5762 -3824.5764)" gradientUnits="userSpaceOnUse" r="11.2507" xlink:href="#r"/><radialGradient id="ap" cx="4012.8047" cy="4351.751" gradientTransform="matrix(0 1 -1 0 5224.5762 -3824.5764)" gradientUnits="userSpaceOnUse" r="11.2507" xlink:href="#r"/><radialGradient id="aq" cx="4683.0972" cy="5027.3037" gradientTransform="matrix(0 1 -1 0 5224.5762 -3824.5764)" gradientUnits="userSpaceOnUse" r="11.2507" xlink:href="#r"/><radialGradient id="ar" cx="4367.481" cy="4195.6733" gradientTransform="matrix(0 1 -1 0 5224.5762 -3824.5764)" gradientUnits="userSpaceOnUse" r="11.2507" xlink:href="#r"/><radialGradient id="as" cx="4526.4326" cy="4089.8687" gradientTransform="matrix(0 1 -1 0 5224.5762 -3824.5764)" gradientUnits="userSpaceOnUse" r="11.2507" xlink:href="#r"/><radialGradient id="at" cx="4261.9028" cy="4242.5928" gradientTransform="matrix(0 1 -1 0 5224.5762 -3824.5764)" gradientUnits="userSpaceOnUse" r="11.2507" xlink:href="#r"/><radialGradient id="au" cx="16633.223" cy="4517.6021" gradientTransform="matrix(0 .2895 -1 0 5224.5762 -4086.6375)" gradientUnits="userSpaceOnUse" r="19.241899" xlink:href="#r"/><radialGradient id="av" cx="-15595.086" cy="5031.6465" gradientTransform="matrix(.2895 0 0 1 5221.3418 -4303.4033)" gradientUnits="userSpaceOnUse" r="19.241899" xlink:href="#r"/><radialGradient id="aw" cx="16323.169" cy="4900.5503" gradientTransform="matrix(0 .2895 -1 0 5224.5762 -4086.6375)" gradientUnits="userSpaceOnUse" r="29.7325" xlink:href="#r"/><radialGradient id="ax" cx="-16917.998" cy="4941.8945" gradientTransform="matrix(.2895 0 0 1 5221.3418 -4303.4033)" gradientUnits="userSpaceOnUse" r="29.7325" xlink:href="#r"/><radialGradient id="ay" cx="17536.6" cy="5029.3018" gradientTransform="matrix(0 .2895 -1 0 5224.5762 -4086.6375)" gradientUnits="userSpaceOnUse" r="29.7325" xlink:href="#r"/><radialGradient id="az" cx="-17362.775" cy="5293.1509" gradientTransform="matrix(.2895 0 0 1 5221.3418 -4303.4033)" gradientUnits="userSpaceOnUse" r="29.7325" xlink:href="#r"/><radialGradient id="aA" cx="15154.966" cy="4975.0698" gradientTransform="matrix(0 .2895 -1 0 5224.5762 -4086.6375)" gradientUnits="userSpaceOnUse" r="29.7325" xlink:href="#r"/><radialGradient id="aB" cx="-17175.43" cy="4603.7305" gradientTransform="matrix(.2895 0 0 1 5221.3418 -4303.4033)" gradientUnits="userSpaceOnUse" r="29.7325" xlink:href="#r"/><radialGradient id="aC" cx="16788.486" cy="4380.1377" gradientTransform="matrix(0 .2895 -1 0 5224.5762 -4086.6375)" gradientUnits="userSpaceOnUse" r="29.7325" xlink:href="#r"/><radialGradient id="aD" cx="-15120.208" cy="5076.5913" gradientTransform="matrix(.2895 0 0 1 5221.3418 -4303.4033)" gradientUnits="userSpaceOnUse" r="29.7325" xlink:href="#r"/><radialGradient id="aE" cx="15052.254" cy="4385.373" gradientTransform="matrix(0 .2895 -1 0 5224.5762 -4086.6375)" gradientUnits="userSpaceOnUse" r="29.7325" xlink:href="#r"/><radialGradient id="aF" cx="-15138.295" cy="4573.998" gradientTransform="matrix(.2895 0 0 1 5221.3418 -4303.4033)" gradientUnits="userSpaceOnUse" r="29.7325" xlink:href="#r"/><radialGradient id="aG" cx="16060.047" cy="4376.7666" gradientTransform="matrix(0 .2895 -1 0 5224.5762 -4086.6375)" gradientUnits="userSpaceOnUse" r="29.7325" xlink:href="#r"/><radialGradient id="aH" cx="-15108.562" cy="4865.7275" gradientTransform="matrix(.2895 0 0 1 5221.3418 -4303.4033)" gradientUnits="userSpaceOnUse" r="29.7325" xlink:href="#r"/><radialGradient id="aI" cx="15866.068" cy="4081.2617" gradientTransform="matrix(0 .2895 -1 0 5224.5762 -4086.6375)" gradientUnits="userSpaceOnUse" r="29.7325" xlink:href="#r"/><radialGradient id="aJ" cx="-14087.729" cy="4809.5757" gradientTransform="matrix(.2895 0 0 1 5221.3418 -4303.4033)" gradientUnits="userSpaceOnUse" r="29.7325" xlink:href="#r"/><radialGradient id="aK" cx="17890.787" cy="4106.2778" gradientTransform="matrix(0 .2895 -1 0 5224.5762 -4086.6375)" gradientUnits="userSpaceOnUse" r="29.7325" xlink:href="#r"/><radialGradient id="aL" cx="-14174.147" cy="5395.6787" gradientTransform="matrix(.2895 0 0 1 5221.3418 -4303.4033)" gradientUnits="userSpaceOnUse" r="29.7325" xlink:href="#r"/><radialGradient id="aM" cx="15420.522" cy="4902.7319" gradientTransform="matrix(0 .2895 -1 0 5224.5762 -4086.6375)" gradientUnits="userSpaceOnUse" r="19.241899" xlink:href="#r"/><radialGradient id="aN" cx="-16925.533" cy="4680.6021" gradientTransform="matrix(.2895 0 0 1 5221.3418 -4303.4033)" gradientUnits="userSpaceOnUse" r="19.241899" xlink:href="#r"/><radialGradient id="aO" cx="17559.291" cy="4676.2856" gradientTransform="matrix(0 .2895 -1 0 5224.5762 -4086.6375)" gradientUnits="userSpaceOnUse" r="19.241899" xlink:href="#r"/><radialGradient id="aP" cx="-16143.265" cy="5299.7192" gradientTransform="matrix(.2895 0 0 1 5221.3418 -4303.4033)" gradientUnits="userSpaceOnUse" r="19.241899" xlink:href="#r"/><radialGradient id="aQ" cx="16866.557" cy="4774.4922" gradientTransform="matrix(0 .2895 -1 0 5224.5762 -4086.6375)" gradientUnits="userSpaceOnUse" r="19.241899" xlink:href="#r"/><radialGradient id="aR" cx="-16482.523" cy="5099.1909" gradientTransform="matrix(.2895 0 0 1 5221.3418 -4303.4033)" gradientUnits="userSpaceOnUse" r="19.241899" xlink:href="#r"/><radialGradient id="aS" cx="16071.692" cy="4574.7783" gradientTransform="matrix(0 .2895 -1 0 5224.5762 -4086.6375)" gradientUnits="userSpaceOnUse" r="19.241899" xlink:href="#r"/><radialGradient id="aT" cx="-15792.604" cy="4869.0986" gradientTransform="matrix(.2895 0 0 1 5221.3418 -4303.4033)" gradientUnits="userSpaceOnUse" r="19.241899" xlink:href="#r"/><radialGradient id="aU" cx="16699.693" cy="4871.0977" gradientTransform="matrix(0 .2895 -1 0 5224.5762 -4086.6375)" gradientUnits="userSpaceOnUse" r="19.241899" xlink:href="#r"/><radialGradient id="aV" cx="-16816.252" cy="5050.8887" gradientTransform="matrix(.2895 0 0 1 5221.3418 -4303.4033)" gradientUnits="userSpaceOnUse" r="19.241899" xlink:href="#r"/><radialGradient id="aW" cx="18061.07" cy="4512.0322" gradientTransform="matrix(0 .2895 -1 0 5224.5762 -4086.6375)" gradientUnits="userSpaceOnUse" r="19.241899" xlink:href="#r"/><radialGradient id="aX" cx="-15575.844" cy="5444.9717" gradientTransform="matrix(.2895 0 0 1 5221.3418 -4303.4033)" gradientUnits="userSpaceOnUse" r="19.241899" xlink:href="#r"/><radialGradient id="aY" cx="17188.609" cy="4244.9609" gradientTransform="matrix(0 .2895 -1 0 5224.5762 -4086.6375)" gradientUnits="userSpaceOnUse" r="19.241899" xlink:href="#r"/><radialGradient id="aZ" cx="-14653.234" cy="5192.417" gradientTransform="matrix(.2895 0 0 1 5221.3418 -4303.4033)" gradientUnits="userSpaceOnUse" r="19.241899" xlink:href="#r"/><radialGradient id="a0" cx="15143.32" cy="4682.5854" gradientTransform="matrix(0 .2895 -1 0 5224.5762 -4086.6375)" gradientUnits="userSpaceOnUse" r="19.241899" xlink:href="#r"/><radialGradient id="a1" cx="-16165.027" cy="4600.3594" gradientTransform="matrix(.2895 0 0 1 5221.3418 -4303.4033)" gradientUnits="userSpaceOnUse" r="19.241899" xlink:href="#r"/><radialGradient id="a2" cx="17652.088" cy="4368.1597" gradientTransform="matrix(0 .2895 -1 0 5224.5762 -4086.6375)" gradientUnits="userSpaceOnUse" r="19.241899" xlink:href="#r"/><radialGradient id="a3" cx="-15078.83" cy="5326.5815" gradientTransform="matrix(.2895 0 0 1 5221.3418 -4303.4033)" gradientUnits="userSpaceOnUse" r="19.241899" xlink:href="#r"/><radialGradient id="a4" cx="3957.2905" cy="4201.0781" gradientTransform="matrix(0 1 -1 0 5224.5762 -3824.5764)" gradientUnits="userSpaceOnUse" r="11.2507" xlink:href="#r"/><radialGradient id="a5" cx="3955.2927" cy="4675.311" gradientTransform="matrix(0 1 -1 0 5224.5762 -3824.5764)" gradientUnits="userSpaceOnUse" r="5.6228" xlink:href="#r"/><radialGradient id="a6" cx="3880.6929" cy="4281.3076" gradientTransform="matrix(0 1 -1 0 5224.5762 -3824.5764)" gradientUnits="userSpaceOnUse" r="5.6228" xlink:href="#r"/><radialGradient id="a7" cx="3854.7346" cy="4681.8555" gradientTransform="matrix(0 1 -1 0 5224.5762 -3824.5764)" gradientUnits="userSpaceOnUse" r="11.2507" xlink:href="#r"/><radialGradient id="a8" cx="3946.0398" cy="4361.0039" gradientTransform="matrix(0 1 -1 0 5224.5762 -3824.5764)" gradientUnits="userSpaceOnUse" r="11.2507" xlink:href="#r"/><radialGradient id="a9" cx="3854.7346" cy="4840.1016" gradientTransform="matrix(0 1 -1 0 5224.5762 -3824.5764)" gradientUnits="userSpaceOnUse" r="7.1455" xlink:href="#r"/><radialGradient id="ba" cx="3934.7891" cy="4809.6094" gradientTransform="matrix(0 1 -1 0 5224.5762 -3824.5764)" gradientUnits="userSpaceOnUse" r="7.1455" xlink:href="#r"/><radialGradient id="bb" cx="3868.7151" cy="4929.8579" gradientTransform="matrix(0 1 -1 0 5224.5762 -3824.5764)" gradientUnits="userSpaceOnUse" r="11.2507" xlink:href="#r"/><radialGradient id="bc" cx="14299.684" cy="4106.2778" gradientTransform="matrix(0 .2895 -1 0 5224.5762 -4086.6375)" gradientUnits="userSpaceOnUse" r="29.7325" xlink:href="#r"/><radialGradient id="bd" cx="-14174.147" cy="4356.1484" gradientTransform="matrix(.2895 0 0 1 5221.3418 -4303.4033)" gradientUnits="userSpaceOnUse" r="29.7325" xlink:href="#r"/><radialGradient id="be" cx="14469.968" cy="4512.0322" gradientTransform="matrix(0 .2895 -1 0 5224.5762 -4086.6375)" gradientUnits="userSpaceOnUse" r="19.241899" xlink:href="#r"/><radialGradient id="bf" cx="-15575.844" cy="4405.4414" gradientTransform="matrix(.2895 0 0 1 5221.3418 -4303.4033)" gradientUnits="userSpaceOnUse" r="19.241899" xlink:href="#r"/><radialGradient id="bg" cx="16783.117" cy="4155.2524" gradientTransform="matrix(0 .2895 -1 0 5224.5762 -4086.6375)" gradientUnits="userSpaceOnUse" r="19.241899" xlink:href="#r"/><radialGradient id="bh" cx="-14343.332" cy="5075.0371" gradientTransform="matrix(.2895 0 0 1 5221.3418 -4303.4033)" gradientUnits="userSpaceOnUse" r="19.241899" xlink:href="#r"/><radialGradient id="bi" cx="15184.698" cy="4089.8687" gradientTransform="matrix(0 .2895 -1 0 5224.5762 -4086.6375)" gradientUnits="userSpaceOnUse" r="19.241899" xlink:href="#r"/><radialGradient id="bj" cx="-14117.461" cy="4612.3369" gradientTransform="matrix(.2895 0 0 1 5221.3418 -4303.4033)" gradientUnits="userSpaceOnUse" r="19.241899" xlink:href="#r"/><radialGradient id="bk" cx="14799.68" cy="4114.8848" gradientTransform="matrix(0 .2895 -1 0 5224.5762 -4086.6375)" gradientUnits="userSpaceOnUse" r="19.241899" xlink:href="#r"/><radialGradient id="bl" cx="-14203.88" cy="4500.8843" gradientTransform="matrix(.2895 0 0 1 5221.3418 -4303.4033)" gradientUnits="userSpaceOnUse" r="19.241899" xlink:href="#r"/><radialGradient id="bm" cx="4250.4473" cy="5175.2676" gradientTransform="matrix(0 -1 1 0 -5135.66355 5025.32025)" gradientUnits="userSpaceOnUse" r="11.2507" xlink:href="#r"/><radialGradient id="bn" cx="4903.7407" cy="5212.9341" gradientTransform="matrix(0 -1 1 0 -5135.66355 5025.32025)" gradientUnits="userSpaceOnUse" r="5.6228" xlink:href="#r"/><radialGradient id="bo" cx="4991.8784" cy="5262.8999" gradientTransform="matrix(0 -1 1 0 -5135.66355 5025.32025)" gradientUnits="userSpaceOnUse" r="5.6228" xlink:href="#r"/><radialGradient id="bp" cx="4163.4556" cy="5234.1792" gradientTransform="matrix(0 -1 1 0 -5135.66355 5025.32025)" gradientUnits="userSpaceOnUse" r="7.1455" xlink:href="#r"/><radialGradient id="bq" cx="4333.5586" cy="5224.1846" gradientTransform="matrix(0 -1 1 0 -5135.66355 5025.32025)" gradientUnits="userSpaceOnUse" r="11.2507" xlink:href="#r"/><radialGradient id="br" cx="17436.146" cy="5226.5532" gradientTransform="matrix(0 -.2895 1 0 -5135.6636 5287.3813)" gradientUnits="userSpaceOnUse" r="19.241899" xlink:href="#r"/><radialGradient id="bs" cx="-18044.189" cy="5264.0723" gradientTransform="matrix(-.2895 0 0 -1 -5132.4292 5504.147)" gradientUnits="userSpaceOnUse" r="19.241899" xlink:href="#r"/><radialGradient id="bt" cx="4028.946" cy="5182.6704" gradientTransform="matrix(0 -1 1 0 -5135.66355 5025.32025)" gradientUnits="userSpaceOnUse" r="11.2507" xlink:href="#r"/><radialGradient id="bu" cx="3864.2109" cy="5212.9341" gradientTransform="matrix(0 -1 1 0 -5135.66355 5025.32025)" gradientUnits="userSpaceOnUse" r="5.6228" xlink:href="#r"/><radialGradient id="bv" cx="3952.3484" cy="5262.8999" gradientTransform="matrix(0 -1 1 0 -5135.66355 5025.32025)" gradientUnits="userSpaceOnUse" r="5.6228" xlink:href="#r"/><radialGradient id="bw" cx="4358.6768" cy="4918.6069" gradientTransform="matrix(0 1 -1 0 5224.5762 -3824.5764)" gradientUnits="userSpaceOnUse" r="11.2507" xlink:href="#r"/><radialGradient id="bx" cx="5075.5581" cy="4804.9849" gradientTransform="matrix(0 1 -1 0 5224.5762 -3824.5764)" gradientUnits="userSpaceOnUse" r="11.2507" xlink:href="#r"/><radialGradient id="by" cx="5064.3071" cy="4349.7529" gradientTransform="matrix(0 1 -1 0 5224.5762 -3824.5764)" gradientUnits="userSpaceOnUse" r="11.2507" xlink:href="#r"/><radialGradient id="bz" cx="5103.2256" cy="4509.8506" gradientTransform="matrix(0 1 -1 0 5224.5762 -3824.5764)" gradientUnits="userSpaceOnUse" r="11.2507" xlink:href="#r"/><radialGradient id="bA" cx="5192.5688" cy="4473.0386" gradientTransform="matrix(0 1 -1 0 5224.5762 -3824.5764)" gradientUnits="userSpaceOnUse" r="5.6228" xlink:href="#r"/><radialGradient id="bB" cx="5182.8633" cy="4725.9341" gradientTransform="matrix(0 1 -1 0 5224.5762 -3824.5764)" gradientUnits="userSpaceOnUse" r="11.2507" xlink:href="#r"/><radialGradient id="bC" cx="5080.7241" cy="4686.5615" gradientTransform="matrix(0 1 -1 0 5224.5762 -3824.5764)" gradientUnits="userSpaceOnUse" r="11.2507" xlink:href="#r"/><radialGradient id="bD" cx="5158.7168" cy="4820.2441" gradientTransform="matrix(0 1 -1 0 5224.5762 -3824.5764)" gradientUnits="userSpaceOnUse" r="7.1455" xlink:href="#r"/><radialGradient id="bE" cx="5143.9321" cy="5055.4385" gradientTransform="matrix(0 1 -1 0 5224.5762 -3824.5764)" gradientUnits="userSpaceOnUse" r="11.2507" xlink:href="#r"/><radialGradient id="bF" cx="5073.1938" cy="4242.5928" gradientTransform="matrix(0 1 -1 0 5224.5762 -3824.5764)" gradientUnits="userSpaceOnUse" r="11.2507" xlink:href="#r"/><radialGradient id="bG" cx="18862.688" cy="4376.7666" gradientTransform="matrix(0 .2895 -1 0 5224.5762 -4086.6375)" gradientUnits="userSpaceOnUse" r="29.7325" xlink:href="#r"/><radialGradient id="bH" cx="-15108.562" cy="5677.0186" gradientTransform="matrix(.2895 0 0 1 5221.3418 -4303.4033)" gradientUnits="userSpaceOnUse" r="29.7325" xlink:href="#r"/><radialGradient id="bI" cx="18223.164" cy="4902.7319" gradientTransform="matrix(0 .2895 -1 0 5224.5762 -4086.6375)" gradientUnits="userSpaceOnUse" r="19.241899" xlink:href="#r"/><radialGradient id="bJ" cx="-16925.533" cy="5491.8931" gradientTransform="matrix(.2895 0 0 1 5221.3418 -4303.4033)" gradientUnits="userSpaceOnUse" r="19.241899" xlink:href="#r"/><radialGradient id="bK" cx="18874.334" cy="4574.7783" gradientTransform="matrix(0 .2895 -1 0 5224.5762 -4086.6375)" gradientUnits="userSpaceOnUse" r="19.241899" xlink:href="#r"/><radialGradient id="bL" cx="-15792.604" cy="5680.3896" gradientTransform="matrix(.2895 0 0 1 5221.3418 -4303.4033)" gradientUnits="userSpaceOnUse" r="19.241899" xlink:href="#r"/><radialGradient id="bM" cx="4169.5386" cy="3879.4983" gradientTransform="matrix(0 1 -1 0 5224.5762 -3824.5764)" gradientUnits="userSpaceOnUse" r="11.2507" xlink:href="#r"/><radialGradient id="bN" cx="4024.0554" cy="3951.8164" gradientTransform="matrix(0 1 -1 0 5224.5762 -3824.5764)" gradientUnits="userSpaceOnUse" r="11.2507" xlink:href="#r"/><radialGradient id="bO" cx="4756.5977" cy="3890.749" gradientTransform="matrix(0 1 -1 0 5224.5762 -3824.5764)" gradientUnits="userSpaceOnUse" r="5.6228" xlink:href="#r"/><radialGradient id="bP" cx="4625.9868" cy="3860.8828" gradientTransform="matrix(0 1 -1 0 5224.5762 -3824.5764)" gradientUnits="userSpaceOnUse" r="5.6228" xlink:href="#r"/><radialGradient id="bQ" cx="4664.439" cy="3976.0093" gradientTransform="matrix(0 1 -1 0 5224.5762 -3824.5764)" gradientUnits="userSpaceOnUse" r="11.2507" xlink:href="#r"/><radialGradient id="bR" cx="4894.2646" cy="3962.3374" gradientTransform="matrix(0 1 -1 0 5224.5762 -3824.5764)" gradientUnits="userSpaceOnUse" r="11.2507" xlink:href="#r"/><radialGradient id="bS" cx="4371.5723" cy="4006.416" gradientTransform="matrix(0 1 -1 0 5224.5762 -3824.5764)" gradientUnits="userSpaceOnUse" r="11.2507" xlink:href="#r"/><radialGradient id="bT" cx="4510.9111" cy="4024.2048" gradientTransform="matrix(0 1 -1 0 5224.5762 -3824.5764)" gradientUnits="userSpaceOnUse" r="11.2507" xlink:href="#r"/><radialGradient id="bU" cx="4269.4331" cy="3967.0435" gradientTransform="matrix(0 1 -1 0 5224.5762 -3824.5764)" gradientUnits="userSpaceOnUse" r="11.2507" xlink:href="#r"/><radialGradient id="bV" cx="4484.8335" cy="3944.6709" gradientTransform="matrix(0 1 -1 0 5224.5762 -3824.5764)" gradientUnits="userSpaceOnUse" r="7.1455" xlink:href="#r"/><radialGradient id="bW" cx="4613.2183" cy="3920.979" gradientTransform="matrix(0 1 -1 0 5224.5762 -3824.5764)" gradientUnits="userSpaceOnUse" r="7.1455" xlink:href="#r"/><radialGradient id="bX" cx="4533.5781" cy="3873.6511" gradientTransform="matrix(0 1 -1 0 5224.5762 -3824.5764)" gradientUnits="userSpaceOnUse" r="7.1455" xlink:href="#r"/><radialGradient id="bY" cx="17559.291" cy="3956.7673" gradientTransform="matrix(0 .2895 -1 0 5224.5762 -4086.6375)" gradientUnits="userSpaceOnUse" r="19.241899" xlink:href="#r"/><radialGradient id="bZ" cx="-13657.657" cy="5299.7192" gradientTransform="matrix(.2895 0 0 1 5221.3418 -4303.4033)" gradientUnits="userSpaceOnUse" r="19.241899" xlink:href="#r"/><radialGradient id="b0" cx="16071.692" cy="3855.26" gradientTransform="matrix(0 .2895 -1 0 5224.5762 -4086.6375)" gradientUnits="userSpaceOnUse" r="19.241899" xlink:href="#r"/><radialGradient id="b1" cx="-13306.996" cy="4869.0986" gradientTransform="matrix(.2895 0 0 1 5221.3418 -4303.4033)" gradientUnits="userSpaceOnUse" r="19.241899" xlink:href="#r"/><radialGradient id="b2" cx="15143.32" cy="3963.0671" gradientTransform="matrix(0 .2895 -1 0 5224.5762 -4086.6375)" gradientUnits="userSpaceOnUse" r="19.241899" xlink:href="#r"/><radialGradient id="b3" cx="-13679.42" cy="4600.3594" gradientTransform="matrix(.2895 0 0 1 5221.3418 -4303.4033)" gradientUnits="userSpaceOnUse" r="19.241899" xlink:href="#r"/><radialGradient id="b4" cx="3955.2927" cy="3955.7927" gradientTransform="matrix(0 1 -1 0 5224.5762 -3824.5764)" gradientUnits="userSpaceOnUse" r="5.6228" xlink:href="#r"/><radialGradient id="b5" cx="3854.7346" cy="3962.3374" gradientTransform="matrix(0 1 -1 0 5224.5762 -3824.5764)" gradientUnits="userSpaceOnUse" r="11.2507" xlink:href="#r"/><radialGradient id="b6" cx="3769.2778" cy="5166.0146" gradientTransform="matrix(0 -1 1 0 -5135.66355 5025.32025)" gradientUnits="userSpaceOnUse" r="11.2507" xlink:href="#r"/><radialGradient id="b7" cx="3744.1997" cy="5294.7905" gradientTransform="matrix(0 -1 1 0 -5135.66355 5025.32025)" gradientUnits="userSpaceOnUse" r="5.6228" xlink:href="#r"/><radialGradient id="b8" cx="3708.5862" cy="5201.6836" gradientTransform="matrix(0 -1 1 0 -5135.66355 5025.32025)" gradientUnits="userSpaceOnUse" r="11.2507" xlink:href="#r"/><radialGradient id="b9" cx="3627.8457" cy="5177.2656" gradientTransform="matrix(0 -1 1 0 -5135.66355 5025.32025)" gradientUnits="userSpaceOnUse" r="11.2507" xlink:href="#r"/><radialGradient id="ca" cx="5169.9678" cy="4918.6069" gradientTransform="matrix(0 1 -1 0 5224.5762 -3824.5764)" gradientUnits="userSpaceOnUse" r="11.2507" xlink:href="#r"/><filter id="cb" color-interpolation-filters="sRGB" height="1.124767" width="1.188027" x="-.094014" y="-.062383"><feGaussianBlur stdDeviation="16.477858"/></filter><g transform="matrix(3.7795275 0 0 3.7795275 -.000016 -.000014)"><g mask="url(#l)" stroke-width=".094494"><path d="m-16.763244-16.763244c-67.65774 67.657739-96.043756 148.969874-63.396059 181.617564 32.647695 32.64769 113.959825 4.26168 181.617563-63.39606 67.65774-67.657738 96.04375-148.969868 63.39606-181.617563-32.64769-32.647697-113.959825-4.261681-181.617564 63.396059z" fill="url(#o)" opacity=".3"/><path d="m30.833409 30.833409c-67.65774 67.657739-96.043753 148.969871-63.396059 181.617561 32.64769465 32.6477 113.959825 4.26168 181.61756-63.39606 67.65774-67.657735 96.04376-148.96986535 63.39606-181.61756-32.64769-32.647694-113.959822-4.261681-181.617561 63.396059z" fill="url(#p)" opacity=".3"/></g><g opacity=".8" transform="matrix(.09660557 0 0 .09518071 -1.845166 -1.798916)"><circle cx="946.90002" cy="776.5" fill="url(#q)" opacity=".5" r="11.3"/><circle cx="828.79999" cy="869.79999" fill="url(#s)" opacity=".5" r="11.3"/><circle cx="339.10001" cy="1021.2" fill="url(#t)" opacity=".5" r="11.3"/><circle cx="1023.5" cy="1172.2" fill="url(#u)" opacity=".5" r="11.3"/><circle cx="419.60001" cy="439.70001" fill="url(#v)" opacity=".5" r="11.3"/><circle cx="874.79999" cy="428.39999" fill="url(#w)" opacity=".5" r="11.3"/><circle cx="714.70001" cy="467.39999" fill="url(#x)" opacity=".5" r="11.3"/><circle cx="1030.9" cy="354.20001" fill="url(#y)" opacity=".5" r="11.3"/><circle cx="1040.2" cy="684.29999" fill="url(#z)" opacity=".5" r="11.3"/><circle cx="625.59998" cy="345" fill="url(#A)" opacity=".5" r="11.3"/><circle cx="553.20001" cy="199.5" fill="url(#B)" opacity=".5" r="11.3"/><circle cx="751.5" cy="556.70001" fill="url(#C)" opacity=".5" r="5.6"/><circle cx="777.40002" cy="382.79999" fill="url(#D)" opacity=".5" r="5.6"/><circle cx="420.60001" cy="331.5" fill="url(#E)" opacity=".5" r="5.6"/><circle cx="206.5" cy="377.10001" fill="url(#F)" opacity=".5" r="5.6"/><circle cx="614.29999" cy="932" fill="url(#G)" opacity=".5" r="5.6"/><circle cx="726.20001" cy="900.29999" fill="url(#H)" opacity=".5" r="5.6"/><circle cx="308" cy="931" fill="url(#I)" opacity=".5" r="5.6"/><circle cx="818.09998" cy="990.70001" fill="url(#J)" opacity=".5" r="5.6"/><circle cx="695.79999" cy="1015.6" fill="url(#K)" opacity=".5" r="5.6"/><circle cx="549.29999" cy="1170.2" fill="url(#L)" opacity=".5" r="5.6"/><circle cx="644.20001" cy="801.40002" fill="url(#M)" opacity=".5" r="5.6"/><circle cx="993.20001" cy="1007.5" fill="url(#N)" opacity=".5" r="5.6"/><circle cx="943.29999" cy="1095.6" fill="url(#O)" opacity=".5" r="5.6"/><circle cx="911.40002" cy="659.29999" fill="url(#P)" opacity=".5" r="5.6"/><circle cx="529" cy="839.90002" fill="url(#Q)" opacity=".5" r="11.3"/><circle cx="542.70001" cy="1069.7" fill="url(#R)" opacity=".5" r="11.3"/><circle cx="863.59998" cy="1161" fill="url(#S)" opacity=".5" r="11.3"/><circle cx="1134.7" cy="889" fill="url(#T)" opacity=".5" r="11.3"/><circle cx="419.60001" cy="933" fill="url(#U)" opacity=".5" r="11.3"/><circle cx="208.5" cy="608.79999" fill="url(#V)" opacity=".5" r="11.3"/><circle cx="498.60001" cy="547" fill="url(#W)" opacity=".5" r="11.3"/><circle cx="480.89999" cy="686.29999" fill="url(#X)" opacity=".5" r="11.3"/><circle cx="538" cy="444.89999" fill="url(#Y)" opacity=".5" r="11.3"/><circle cx="341.10001" cy="248" fill="url(#Z)" opacity=".5" r="11.3"/><circle cx="560.40002" cy="660.29999" fill="url(#aa)" opacity=".5" r="7.1"/><circle cx="584.09998" cy="788.59998" fill="url(#ab)" opacity=".5" r="7.1"/><circle cx="972" cy="267.20001" fill="url(#ac)" opacity=".5" r="7.1"/><circle cx="360.60001" cy="841.90002" fill="url(#ad)" opacity=".5" r="7.1"/><circle cx="384.5" cy="1069.7" fill="url(#ae)" opacity=".5" r="7.1"/><circle cx="415" cy="1149.7" fill="url(#af)" opacity=".5" r="7.1"/><circle cx="226.89999" cy="764.59998" fill="url(#ag)" opacity=".5" r="7.1"/><circle cx="704.79999" cy="240.89999" fill="url(#ah)" opacity=".5" r="7.1"/><circle cx="404.29999" cy="522.79999" fill="url(#ai)" opacity=".5" r="7.1"/><circle cx="631.40002" cy="709" fill="url(#aj)" opacity=".5" r="7.1"/><circle cx="1004.5" cy="623.59998" fill="url(#ak)" opacity=".5" r="11.3"/><circle cx="294.70001" cy="1083.7" fill="url(#al)" opacity=".5" r="11.3"/><circle cx="210.5" cy="1163" fill="url(#am)" opacity=".5" r="11.3"/><circle cx="411.5" cy="167" fill="url(#an)" opacity=".5" r="11.3"/><circle cx="165.10001" cy="203.10001" fill="url(#ao)" opacity=".5" r="11.3"/><circle cx="872.79999" cy="188.2" fill="url(#ap)" opacity=".5" r="11.3"/><circle cx="197.3" cy="858.5" fill="url(#aq)" opacity=".5" r="11.3"/><circle cx="1028.9" cy="542.90002" fill="url(#ar)" opacity=".5" r="11.3"/><circle cx="1134.7" cy="701.90002" fill="url(#as)" opacity=".5" r="11.3"/><circle cx="982" cy="437.29999" fill="url(#at)" opacity=".5" r="11.3"/><ellipse cx="707" cy="728.20001" fill="url(#au)" rx="19.200001" ry="5.6"/><ellipse cx="707" cy="728.20001" fill="url(#av)" rx="5.6" ry="19.200001"/><ellipse cx="324" cy="638.5" fill="url(#aw)" rx="29.700001" ry="8.6"/><ellipse cx="324" cy="638.5" fill="url(#ax)" rx="8.6" ry="29.700001"/><ellipse cx="195.3" cy="989.70001" fill="url(#ay)" rx="29.700001" ry="8.6"/><ellipse cx="195.3" cy="989.70001" fill="url(#az)" rx="8.6" ry="29.700001"/><ellipse cx="249.5" cy="300.29999" fill="url(#aA)" rx="29.700001" ry="8.6"/><ellipse cx="249.5" cy="300.29999" fill="url(#aB)" rx="8.6" ry="29.700001"/><ellipse cx="844.40002" cy="773.20001" fill="url(#aC)" rx="29.700001" ry="8.6"/><ellipse cx="844.40002" cy="773.20001" fill="url(#aD)" rx="8.6" ry="29.700001"/><ellipse cx="839.20001" cy="270.60001" fill="url(#aE)" rx="29.700001" ry="8.6"/><ellipse cx="839.20001" cy="270.60001" fill="url(#aF)" rx="8.6" ry="29.700001"/><ellipse cx="847.79999" cy="562.29999" fill="url(#aG)" rx="29.700001" ry="8.6"/><ellipse cx="847.79999" cy="562.29999" fill="url(#aH)" rx="8.6" ry="29.700001"/><ellipse cx="1143.3" cy="506.20001" fill="url(#aI)" rx="29.700001" ry="8.6"/><ellipse cx="1143.3" cy="506.20001" fill="url(#aJ)" rx="8.6" ry="29.700001"/><ellipse cx="1118.3" cy="1092.3" fill="url(#aK)" rx="29.700001" ry="8.6"/><ellipse cx="1118.3" cy="1092.3" fill="url(#aL)" rx="8.6" ry="29.700001"/><ellipse cx="321.79999" cy="377.20001" fill="url(#aM)" rx="19.200001" ry="5.6"/><ellipse cx="321.79999" cy="377.20001" fill="url(#aN)" rx="5.6" ry="19.200001"/><ellipse cx="548.29999" cy="996.29999" fill="url(#aO)" rx="19.200001" ry="5.6"/><ellipse cx="548.29999" cy="996.29999" fill="url(#aP)" rx="5.6" ry="19.200001"/><ellipse cx="450.10001" cy="795.79999" fill="url(#aQ)" rx="19.200001" ry="5.6"/><ellipse cx="450.10001" cy="795.79999" fill="url(#aR)" rx="5.6" ry="19.200001"/><ellipse cx="649.79999" cy="565.70001" fill="url(#aS)" rx="19.200001" ry="5.6"/><ellipse cx="649.79999" cy="565.70001" fill="url(#aT)" rx="5.6" ry="19.200001"/><ellipse cx="353.5" cy="747.5" fill="url(#aU)" rx="19.200001" ry="5.6"/><ellipse cx="353.5" cy="747.5" fill="url(#aV)" rx="5.6" ry="19.200001"/><ellipse cx="712.5" cy="1141.6" fill="url(#aW)" rx="19.200001" ry="5.6"/><ellipse cx="712.5" cy="1141.6" fill="url(#aX)" rx="5.6" ry="19.200001"/><ellipse cx="979.59998" cy="889" fill="url(#aY)" rx="19.200001" ry="5.6"/><ellipse cx="979.59998" cy="889" fill="url(#aZ)" rx="5.6" ry="19.200001"/><ellipse cx="542" cy="297" fill="url(#a0)" rx="19.200001" ry="5.6"/><ellipse cx="542" cy="297" fill="url(#a1)" rx="5.6" ry="19.200001"/><ellipse cx="856.40002" cy="1023.2" fill="url(#a2)" rx="19.200001" ry="5.6"/><ellipse cx="856.40002" cy="1023.2" fill="url(#a3)" rx="5.6" ry="19.200001"/><circle cx="1023.5" cy="132.7" fill="url(#a4)" opacity=".5" r="11.3"/><circle cx="549.29999" cy="130.7" fill="url(#a5)" opacity=".5" r="5.6"/><circle cx="943.29999" cy="56.099998" fill="url(#a6)" opacity=".5" r="5.6"/><circle cx="542.70001" cy="30.200001" fill="url(#a7)" opacity=".5" r="11.3"/><circle cx="863.59998" cy="121.5" fill="url(#a8)" opacity=".5" r="11.3"/><circle cx="384.5" cy="30.200001" fill="url(#a9)" opacity=".5" r="7.1"/><circle cx="415" cy="110.2" fill="url(#ba)" opacity=".5" r="7.1"/><circle cx="294.70001" cy="44.099998" fill="url(#bb)" opacity=".5" r="11.3"/><ellipse cx="1118.3" cy="52.700001" fill="url(#bc)" rx="29.700001" ry="8.6"/><ellipse cx="1118.3" cy="52.700001" fill="url(#bd)" rx="8.6" ry="29.700001"/><ellipse cx="712.5" cy="102" fill="url(#be)" rx="19.200001" ry="5.6"/><ellipse cx="712.5" cy="102" fill="url(#bf)" rx="5.6" ry="19.200001"/><ellipse cx="1069.3" cy="771.59998" fill="url(#bg)" rx="19.200001" ry="5.6"/><ellipse cx="1069.3" cy="771.59998" fill="url(#bh)" rx="5.6" ry="19.200001"/><ellipse cx="1134.7" cy="308.89999" fill="url(#bi)" rx="19.200001" ry="5.6"/><ellipse cx="1134.7" cy="308.89999" fill="url(#bj)" rx="5.6" ry="19.200001"/><ellipse cx="1109.7" cy="197.5" fill="url(#bk)" rx="19.200001" ry="5.6"/><ellipse cx="1109.7" cy="197.5" fill="url(#bl)" rx="5.6" ry="19.200001"/><circle cx="39.599998" cy="774.90002" fill="url(#bm)" opacity=".5" r="11.3"/><circle cx="77.300003" cy="121.6" fill="url(#bn)" opacity=".5" r="5.6"/><circle cx="127.2" cy="33.400002" fill="url(#bo)" opacity=".5" r="5.6"/><circle cx="98.5" cy="861.90002" fill="url(#bp)" opacity=".5" r="7.1"/><circle cx="88.5" cy="691.79999" fill="url(#bq)" opacity=".5" r="11.3"/><ellipse cx="90.900002" cy="240.10001" fill="url(#br)" rx="19.200001" ry="5.6"/><ellipse cx="90.900002" cy="240.10001" fill="url(#bs)" rx="5.6" ry="19.200001"/><circle cx="47" cy="996.40002" fill="url(#bt)" opacity=".5" r="11.3"/><circle cx="77.300003" cy="1161.1" fill="url(#bu)" opacity=".5" r="5.6"/><circle cx="127.2" cy="1073" fill="url(#bv)" opacity=".5" r="5.6"/><circle cx="306" cy="534.09998" fill="url(#bw)" opacity=".5" r="11.3"/><circle cx="419.60001" cy="1251" fill="url(#bx)" opacity=".5" r="11.3"/><circle cx="874.79999" cy="1239.7" fill="url(#by)" opacity=".5" r="11.3"/><circle cx="714.70001" cy="1278.6" fill="url(#bz)" opacity=".5" r="11.3"/><circle cx="751.5" cy="1368" fill="url(#bA)" opacity=".5" r="5.6"/><circle cx="498.60001" cy="1358.3" fill="url(#bB)" opacity=".5" r="11.3"/><circle cx="538" cy="1256.1" fill="url(#bC)" opacity=".5" r="11.3"/><circle cx="404.29999" cy="1334.1" fill="url(#bD)" opacity=".5" r="7.1"/><circle cx="169.10001" cy="1319.4" fill="url(#bE)" opacity=".5" r="11.3"/><circle cx="982" cy="1248.6" fill="url(#bF)" opacity=".5" r="11.3"/><ellipse cx="847.79999" cy="1373.6" fill="url(#bG)" rx="29.700001" ry="8.6"/><ellipse cx="847.79999" cy="1373.6" fill="url(#bH)" rx="8.6" ry="29.700001"/><ellipse cx="321.79999" cy="1188.5" fill="url(#bI)" rx="19.200001" ry="5.6"/><ellipse cx="321.79999" cy="1188.5" fill="url(#bJ)" rx="5.6" ry="19.200001"/><ellipse cx="649.79999" cy="1377" fill="url(#bK)" rx="19.200001" ry="5.6"/><ellipse cx="649.79999" cy="1377" fill="url(#bL)" rx="5.6" ry="19.200001"/><circle cx="1345.1" cy="345" fill="url(#bM)" opacity=".5" r="11.3"/><circle cx="1272.8" cy="199.5" fill="url(#bN)" opacity=".5" r="11.3"/><circle cx="1333.8" cy="932" fill="url(#bO)" opacity=".5" r="5.6"/><circle cx="1363.7" cy="801.40002" fill="url(#bP)" opacity=".5" r="5.6"/><circle cx="1248.6" cy="839.90002" fill="url(#bQ)" opacity=".5" r="11.3"/><circle cx="1262.2" cy="1069.7" fill="url(#bR)" opacity=".5" r="11.3"/><circle cx="1218.2" cy="547" fill="url(#bS)" opacity=".5" r="11.3"/><circle cx="1200.4" cy="686.29999" fill="url(#bT)" opacity=".5" r="11.3"/><circle cx="1257.5" cy="444.89999" fill="url(#bU)" opacity=".5" r="11.3"/><circle cx="1279.9" cy="660.29999" fill="url(#bV)" opacity=".5" r="7.1"/><circle cx="1303.6" cy="788.59998" fill="url(#bW)" opacity=".5" r="7.1"/><circle cx="1350.9" cy="709" fill="url(#bX)" opacity=".5" r="7.1"/><ellipse cx="1267.8" cy="996.29999" fill="url(#bY)" rx="19.200001" ry="5.6"/><ellipse cx="1267.8" cy="996.29999" fill="url(#bZ)" rx="5.6" ry="19.200001"/><ellipse cx="1369.3" cy="565.70001" fill="url(#b0)" rx="19.200001" ry="5.6"/><ellipse cx="1369.3" cy="565.70001" fill="url(#b1)" rx="5.6" ry="19.200001"/><ellipse cx="1261.5" cy="297" fill="url(#b2)" rx="19.200001" ry="5.6"/><ellipse cx="1261.5" cy="297" fill="url(#b3)" rx="5.6" ry="19.200001"/><circle cx="1268.8" cy="130.7" fill="url(#b4)" opacity=".5" r="5.6"/><circle cx="1262.2" cy="30.200001" fill="url(#b5)" opacity=".5" r="11.3"/><circle cx="30.4" cy="1256" fill="url(#b6)" opacity=".5" r="11.3"/><circle cx="159.10001" cy="1281.1" fill="url(#b7)" opacity=".5" r="5.6"/><circle cx="66" cy="1316.7" fill="url(#b8)" opacity=".5" r="11.3"/><circle cx="41.599998" cy="1397.5" fill="url(#b9)" opacity=".5" r="11.3"/><circle cx="306" cy="1345.4" fill="url(#ca)" opacity=".5" r="11.3"/><g fill="#fff"><circle cx="946.90002" cy="776.5" r="2"/><circle cx="828.79999" cy="869.79999" r="2"/><circle cx="339.10001" cy="1021.2" r="2"/><circle cx="1023.5" cy="1172.2" r="2"/><circle cx="419.60001" cy="439.70001" r="2"/><circle cx="874.79999" cy="428.39999" r="2"/><circle cx="714.70001" cy="467.39999" r="2"/><circle cx="1030.9" cy="354.20001" r="2"/><circle cx="1040.2" cy="684.29999" r="2"/><circle cx="625.59998" cy="345" r="2"/><circle cx="553.20001" cy="199.5" r="2"/><circle cx="751.5" cy="556.70001" r="1"/><circle cx="777.40002" cy="382.79999" r="1"/><circle cx="420.60001" cy="331.5" r="1"/><circle cx="206.5" cy="377.10001" r="1"/><circle cx="614.29999" cy="932" r="1"/><circle cx="726.20001" cy="900.29999" r="1"/><circle cx="308" cy="931" r="1"/><circle cx="818.09998" cy="990.70001" r="1"/><circle cx="695.79999" cy="1015.6" r="1"/><circle cx="549.29999" cy="1170.2" r="1"/><circle cx="644.20001" cy="801.40002" r="1"/><circle cx="993.20001" cy="1007.5" r="1"/><circle cx="943.29999" cy="1095.6" r="1"/><circle cx="911.40002" cy="659.29999" r="1"/><circle cx="529" cy="839.90002" r="2"/><circle cx="542.70001" cy="1069.7" r="2"/><circle cx="863.59998" cy="1161" r="2"/><circle cx="1134.7" cy="889" r="2"/><circle cx="419.60001" cy="933" r="2"/><circle cx="208.5" cy="608.79999" r="2"/><circle cx="498.60001" cy="547" r="2"/><circle cx="480.89999" cy="686.29999" r="2"/><circle cx="538" cy="444.89999" r="2"/><circle cx="341.10001" cy="248" r="2"/><circle cx="560.40002" cy="660.29999" r="1.3"/><circle cx="584.09998" cy="788.59998" r="1.3"/><circle cx="972" cy="267.20001" r="1.3"/><circle cx="360.60001" cy="841.90002" r="1.3"/><circle cx="384.5" cy="1069.7" r="1.3"/><circle cx="415" cy="1149.7" r="1.3"/><circle cx="226.89999" cy="764.59998" r="1.3"/><circle cx="704.79999" cy="240.89999" r="1.3"/><circle cx="404.29999" cy="522.79999" r="1.3"/><circle cx="631.40002" cy="709" r="1.3"/><circle cx="1004.5" cy="623.59998" r="2"/><circle cx="294.70001" cy="1083.7" r="2"/><circle cx="210.5" cy="1163" r="2"/><circle cx="411.5" cy="167" r="2"/><circle cx="165.10001" cy="203.10001" r="2"/><circle cx="872.79999" cy="188.2" r="2"/><circle cx="197.3" cy="858.5" r="2"/><circle cx="1028.9" cy="542.90002" r="2"/><circle cx="1134.7" cy="701.90002" r="2"/><circle cx="982" cy="437.29999" r="2"/><circle cx="707" cy="728.20001" r="2.2"/><circle cx="324" cy="638.5" r="3.4"/><circle cx="195.3" cy="989.70001" r="3.4"/><circle cx="249.5" cy="300.29999" r="3.4"/><circle cx="844.40002" cy="773.20001" r="3.4"/><circle cx="839.20001" cy="270.60001" r="3.4"/><circle cx="847.79999" cy="562.29999" r="3.4"/><circle cx="1143.3" cy="506.20001" r="3.4"/><circle cx="1118.3" cy="1092.3" r="3.4"/><circle cx="321.79999" cy="377.20001" r="2.2"/><circle cx="548.29999" cy="996.29999" r="2.2"/><circle cx="450.10001" cy="795.79999" r="2.2"/><circle cx="649.79999" cy="565.70001" r="2.2"/><circle cx="353.5" cy="747.5" r="2.2"/><circle cx="712.5" cy="1141.6" r="2.2"/><circle cx="979.59998" cy="889" r="2.2"/><circle cx="542" cy="297" r="2.2"/><circle cx="856.40002" cy="1023.2" r="2.2"/><circle cx="1023.5" cy="132.7" r="2"/><circle cx="549.29999" cy="130.7" r="1"/><circle cx="943.29999" cy="56.099998" r="1"/><circle cx="542.70001" cy="30.200001" r="2"/><circle cx="863.59998" cy="121.5" r="2"/><circle cx="384.5" cy="30.200001" r="1.3"/><circle cx="415" cy="110.2" r="1.3"/><circle cx="294.70001" cy="44.099998" r="2"/><circle cx="1118.3" cy="52.700001" r="3.4"/><circle cx="712.5" cy="102" r="2.2"/><circle cx="1069.3" cy="771.59998" r="2.2"/><circle cx="1134.7" cy="308.89999" r="2.2"/><circle cx="1109.7" cy="197.5" r="2.2"/><circle cx="39.599998" cy="774.90002" r="2"/><circle cx="77.300003" cy="121.6" r="1"/><circle cx="127.2" cy="33.400002" r="1"/><circle cx="98.5" cy="861.90002" r="1.3"/><circle cx="88.5" cy="691.79999" r="2"/><circle cx="90.900002" cy="240.10001" r="2.2"/><circle cx="47" cy="996.40002" r="2"/><circle cx="77.300003" cy="1161.1" r="1"/><circle cx="127.2" cy="1073" r="1"/><circle cx="306" cy="534.09998" r="2"/><circle cx="419.60001" cy="1251" r="2"/><circle cx="874.79999" cy="1239.7" r="2"/><circle cx="714.70001" cy="1278.6" r="2"/><circle cx="751.5" cy="1368" r="1"/><circle cx="498.60001" cy="1358.3" r="2"/><circle cx="538" cy="1256.1" r="2"/><circle cx="404.29999" cy="1334.1" r="1.3"/><circle cx="169.10001" cy="1319.4" r="2"/><circle cx="982" cy="1248.6" r="2"/><circle cx="847.79999" cy="1373.6" r="3.4"/><circle cx="321.79999" cy="1188.5" r="2.2"/><circle cx="649.79999" cy="1377" r="2.2"/><circle cx="1345.1" cy="345" r="2"/><circle cx="1272.8" cy="199.5" r="2"/><circle cx="1333.8" cy="932" r="1"/><circle cx="1363.7" cy="801.40002" r="1"/><circle cx="1248.6" cy="839.90002" r="2"/><circle cx="1262.2" cy="1069.7" r="2"/><circle cx="1218.2" cy="547" r="2"/><circle cx="1200.4" cy="686.29999" r="2"/><circle cx="1257.5" cy="444.89999" r="2"/><circle cx="1279.9" cy="660.29999" r="1.3"/><circle cx="1303.6" cy="788.59998" r="1.3"/><circle cx="1350.9" cy="709" r="1.3"/><circle cx="1267.8" cy="996.29999" r="2.2"/><circle cx="1369.3" cy="565.70001" r="2.2"/><circle cx="1261.5" cy="297" r="2.2"/><circle cx="1268.8" cy="130.7" r="1"/><circle cx="1262.2" cy="30.200001" r="2"/><circle cx="30.4" cy="1256" r="2"/><circle cx="159.10001" cy="1281.1" r="1"/><circle cx="66" cy="1316.7" r="2"/><circle cx="41.599998" cy="1397.5" r="2"/><circle cx="306" cy="1345.4" r="2"/></g></g></g><path d="m668.64404 75.423729h150v150h-150z" fill="url(#c)"/><g opacity=".9" stroke-width="1.11111" transform="matrix(.89999914 0 0 .89999914 23.782929 25.000429)"><path d="m253.60248-185.82681c-21.36302-.1009-37.68207 11.51956-49.77048 21.60814-26.30839 21.95612-39.92182 51.87191-53.79197 76.24533-15.93573 28.003188-36.97642 81.2811027-36.97642 81.2811027-6.17313 18.0283283 16.56256 39.2295043 30.61201 51.9384083.20627.181699.42178.352899.62873.533827-10.83834 13.350733-21.5223 26.849347-29.55326 41.97067-25.330909 47.695042-41.418624 98.262162-55.0346 152.377972-11.303219 54.69508-17.606045 117.86366-18.064115 189.85856-.0707 11.3694 19.12616 19.95449 30.285789 17.77941 0 0 49.670696-11.73441 76.168226-15.33567 37.1723-5.05205 66.59646-9.67862 101.89276-9.69192 35.2963.0133 64.72342 4.63987 101.89572 9.69192 26.49754 3.60126 88.96228 15.33567 88.96228 15.33567 11.15963 2.17508 21.51572-6.41001 21.44502-17.77941-.45807-71.9949-7.04263-135.16348-18.34585-189.85856-13.61598-54.11581-31.08843-104.04901-55.23924-152.377972-6.90619-13.820179-14.58205-27.493034-23.64854-40.051858.21244-.214698.42511-.386565.63763-.605004 8.56112-10.229564 24.92871-42.3158271 21.9907-52.6442465 0 0-16.66835-53.3787845-31.99107-82.1500545-13.56526-25.471345-28.1644-54.953135-54.09744-76.802885-11.52732-9.71228-27.14909-21.22492-48.00588-21.32343z" fill="#d9e7f2" filter="url(#cb)" opacity=".5" stroke-width="1.51845" transform="matrix(.73174515 0 0 .73174515 67.038835 135.97739)"/><g stroke-width="1.51845" transform="matrix(.73174516 0 0 .73174516 67.038835 135.97739)"><path d="m351.89466 432.43208c26.49756 3.60126 88.96276 15.3355 88.96276 15.3355 11.15964 2.17508 21.51601-6.41184 21.44531-17.78125-.45807-71.99497-7.04434-135.16228-18.34757-189.85742-13.61599-54.11586-31.08752-104.0499-55.23836-152.37891-10.02591-20.063164-21.44869-39.985585-36.82214-56.316735-6.36978-6.766593-13.85356-12.919835-22.37066-16.637362-24.75318-10.8042234-52.65915-15.30658756-79.524-14.795903-26.86486-.51068456-56.0811 1.4756693-79.52401 14.795903-6.53922 3.715578-10.19714 11.074351-14.90049 16.943375-14.44768 18.028386-29.98767 35.60666-40.8243 56.010722-25.330939 47.69509-41.420083 98.26305-55.036073 152.37891-11.30323 54.69514-17.605002 117.86245-18.063072 189.85742-.0707 11.36941 19.126546 19.95633 30.286186 17.78125 0 0 49.669529-11.73424 76.167089-15.3355 37.17234-5.05206 66.59833-9.67855 101.89466-9.69185 35.29634.0133 64.72233 4.63979 101.89467 9.69185z" fill="#8fa2a3" opacity="1" stroke-width="1.51845"/><path d="m329.524 35.2835c-23.52-11.95-52.347-17.967-79.5235-17.967s-54.8115 5.278-75.7585 17.495c-19.50789 19.237355-41.43165 58.644218-43.22 60.7555-26.27364 46.57334-44.50835 104.73786-53.66125 148.10812-10.9405 52.97775-17.44675 114.99288-17.89875 185.95438 0 0 53.97888-10.64789 83.104-14.564 35.61196-4.78832 71.36929-10.33809 107.30172-10.32463 37.28485.014 74.38708 5.77544 111.33228 10.79663 27.86731 3.78742 83.104 14.564 83.104 14.564-.4515-70.9615-6.95825-132.9765-17.89875-185.95438-13.54685-53.80561-27.68814-104.45305-53.66125-148.10812-.0509.0783-24.83604-43.432295-43.22-60.7555z" fill="url(#i)" opacity="1"/><path d="m329.524 35.2835c-23.52-11.95-52.347-17.967-79.5235-17.967s-54.8115 5.278-75.7585 17.495c-19.50789 19.237355-41.43165 58.644218-43.22 60.7555-26.27364 46.57334-44.50835 104.73786-53.66125 148.10812-10.9405 52.97775-17.44675 114.99288-17.89875 185.95438 0 0 53.97888-10.64789 83.104-14.564 35.61196-4.78832 71.36929-10.33809 107.30172-10.32463 37.28485.014 74.38708 5.77544 111.33228 10.79663 27.86731 3.78742 83.104 14.564 83.104 14.564-.4515-70.9615-6.95825-132.9765-17.89875-185.95438-13.54685-53.80561-27.68814-104.45305-53.66125-148.10812-.0509.0783-24.83604-43.432295-43.22-60.7555z" fill="url(#c)" opacity="1"/><path d="m329.524 35.2835c-23.52-11.95-52.347-17.967-79.5235-17.967s-54.8115 5.278-75.7585 17.495c-19.50789 19.237355-41.43165 58.644218-43.22 60.7555-26.27364 46.57334-44.50835 104.73786-53.66125 148.10812-10.9405 52.97775-17.44675 114.99288-17.89875 185.95438 0 0 53.97888-10.64789 83.104-14.564 35.61196-4.78832 71.36929-10.33809 107.30172-10.32463 37.28485.014 74.38708 5.77544 111.33228 10.79663 27.86731 3.78742 83.104 14.564 83.104 14.564-.4515-70.9615-6.95825-132.9765-17.89875-185.95438-13.54685-53.80561-27.68814-104.45305-53.66125-148.10812-.0509.0783-24.83604-43.432295-43.22-60.7555z" fill="#8fa2a3" opacity=".667"/></g><g id="cc" stroke-width="1.51845" transform="matrix(.73174516 0 0 .73174516 67.038835 135.97739)"><path d="m329.524 14.795903c-5.81271-3.061324-18.64509-6.3870356-18.64509-6.3870356s.72664 12.8041986.64648 19.2109826c-.0938 7.495143.58327 16.322404-1.31836 22.448509-1.03824 3.287873-4.67578 9.226563-4.67578 9.226563s7.29709 11.159589 10.83234 16.811318c7.57789 12.114623 16.14018 24.81023 22.24383 36.64571 23.30668 55.10183 35.13346 115.71246 35.46875 161.35938-.006 43.33956-9.89065 80.09206-22.18151 118.27495-2.31709 7.1983-6.0661 13.86995-9.61059 20.54984-3.05718 5.7615-6.08898 11.60391-10.03049 16.8006-10.58465 13.95534-23.35708 26.17521-36.18327 38.10312-8.59001 7.98841-18.36397 15.05149-27.20788 22.31945 36.72603 9.84071 50.8537 9.659 83.03223 0 12.47581-3.68374 24.79455-7.97056 36.82214-12.92566 18.85243-7.76678 37.16197-16.84168 55.23836-26.27467 6.26378-3.26869 11.85765-6.71407 18.41593-10.49412-1.61863-68.3214-6.31321-140.49691-18.41593-200.33593-14.04297-52.73809-26.47964-106.64019-55.23836-152.37891-8.21821-16.278126-20.69171-39.792359-36.82214-56.31674-6.49144-6.649973-14.14823-12.30693-22.37066-16.637357z" fill="#8fa2a3" opacity="1" stroke-width="1.51845"/><path d="m354.915 105.0575c24.48665 57.62309 36.81952 120.24538 37.164 169.006 0 45.65-8.408 88.144-22.873 123.724l-8.006 17.75c-14.484 29.072-33.326 52.308-54.946 67.144 44.615-8.052 91.458-25.727 138.05-52.58-.4515-70.9615-6.95825-132.9765-17.89875-185.95438-13.98624-52.46784-27.13628-105.92174-53.66125-148.10812-13.28907-21.002127-23.58863-40.48521-43.22-60.7555 0 0 .22839 16.038915-3.261 22.923 9.65496 15.703059 21.24806 32.351185 28.652 46.851z" fill="url(#i)" opacity="1"/><path d="m354.915 105.0575c24.48665 57.62309 36.81952 120.24538 37.164 169.006 0 45.65-8.408 88.144-22.873 123.724l-8.006 17.75c-14.484 29.072-33.326 52.308-54.946 67.144 44.615-8.052 91.458-25.727 138.05-52.58-.4515-70.9615-6.95825-132.9765-17.89875-185.95438-13.98624-52.46784-27.13628-105.92174-53.66125-148.10812-13.28907-21.002127-23.58863-40.48521-43.22-60.7555 0 0 .22839 16.038915-3.261 22.923 9.65496 15.703059 21.24806 32.351185 28.652 46.851z" fill="url(#b)" opacity="1"/></g><use stroke-width="1.51845" transform="matrix(-1 0 0 1 502.706 -.345384)" xlink:href="#cc"/><g stroke-width="1.01101" transform="matrix(1.0990175 0 0 1.0990175 -514.38627 20.624226)"><path d="m697.89453-18.765625c-14.22389-.06718-25.08999 7.66956-33.13867 14.3867188-17.51661 14.6187892-26.58141 34.5373602-35.81641 50.7656252-10.6103 18.645033-24.61914 54.117191-24.61914 54.117191-4.11018 12.00359 11.02843 26.12021 20.38281 34.58203 9.5732 8.43301 20.25499 15.62498 32.00086 20.48242 12.11915 5.01181 26.07947 8.77322 40.60266 8.83398 14.52415.0605 30.8366-3.99324 42.94128-8.83398 11.69115-4.67536 21.9161-8.59232 32.28724-19.25249 5.70015-6.81103 16.5968-28.17339 14.64062-35.05024 0 0-11.09669-35.540835-21.29883-54.697271-9.032-16.959285-18.75284-36.588754-36.01953-51.1367184-7.6751-6.4666136-18.07606-14.1316806-31.96289-14.1972656z" fill="#8fa2a3" opacity="1" stroke-width="1.01101"/><path d="m733.07609 144.43986c11.14665-4.45761 22.49827-9.94617 30.86958-18.55078 5.59231-5.74817 11.82115-20.95469 11.82115-20.95469s-11.60503-36.090736-20.46826-52.733117c-9.09064-17.069391-18.37439-35.143636-33.16394-47.6044994-6.83916-5.7622978-15.35378-11.3363463-24.29673-11.3785824-9.30917-.043966-18.25521 5.640271-25.40246 11.6051292-14.81177 12.3614166-23.53806 30.7242446-33.07988 47.4916756-9.53257 16.751184-23.91078 52.645264-23.91078 52.645264s10.36863 15.13162 17.18094 21.13257c8.54389 7.5263 18.48862 13.68151 29.01049 18.03277 11.2954 4.67115 23.49655 8.24112 35.71961 8.29226 12.20002.0511 24.39239-3.4479 35.72028-7.978z" fill="url(#j)" opacity="1"/><path d="m661.6362 125.88908c-6.64619-6.43469-17.2656-21.72768-17.2656-21.72768 22.20428-46.229032 24.99908-69.04384 54.16326-68.718525 28.66729.319786 31.14467 23.32286 51.72042 68.718525 0 0-10.55086 15.29954-17.17819 21.72768-10.65066 10.33055-20.90641 26.53348-35.74409 26.52868-14.82476-.005-25.04501-16.21683-35.6958-26.52868z" fill="url(#k)" opacity="1"/><path d="m733.07609 144.43986c11.14665-4.45761 22.49827-9.94617 30.86958-18.55078 5.59231-5.74817 11.82115-20.95469 11.82115-20.95469s-11.60503-36.090736-20.46826-52.733117c-9.09064-17.069391-18.37439-35.143636-33.16394-47.6044994-6.83916-5.7622978-15.35378-11.3363463-24.29673-11.3785824-9.30917-.043966-18.25521 5.640271-25.40246 11.6051292-14.81177 12.3614166-23.53806 30.7242446-33.07988 47.4916756-9.53257 16.751184-23.91078 52.645264-23.91078 52.645264s10.36863 15.13162 17.18094 21.13257c8.54389 7.5263 18.48862 13.68151 29.01049 18.03277 11.2954 4.67115 23.49655 8.24112 35.71961 8.29226 12.20002.0511 24.39239-3.4479 35.72028-7.978z" fill="url(#a)" opacity="1"/><g fill="#8fa2a3" stroke-width="1.01101"><path d="m661.6362 125.88908c-6.64619-6.43469-17.2656-21.72768-17.2656-21.72768 22.20428-46.229032 24.99908-69.04384 54.16326-68.718525 28.66729.319786 31.14467 23.32286 51.72042 68.718525 0 0-10.55086 15.29954-17.17819 21.72768-10.65066 10.33055-20.90641 26.53348-35.74409 26.52868-14.82476-.005-25.04501-16.21683-35.6958-26.52868z" opacity=".667"/><path d="m698.53367 35.442516c-29.16415-.325314-31.95811 22.490064-54.16237 68.719054 0 0 10.61888 15.29282 17.26506 21.7275 10.65078 10.31184 20.8712 26.52438 35.69595 26.52938 14.83766.005 25.09328-16.19884 35.74393-26.52938 6.62732-6.42813 17.17798-21.7275 17.17798-21.7275-20.57573-45.395624-23.05329-68.399268-51.72055-68.719054zm-.0942 8.430826c12.08188.134774 15.7586 3.20703 21.73105 13.314449 5.51734 9.337202 11.38975 25.379665 20.44262 45.868379-3.1467 4.34501-9.47224 12.96533-13.40686 16.78168-5.9358 5.75741-11.10205 12.3096-16.16856 17.01627-5.0665 4.70666-9.3542 7.13491-13.70364 7.1335-4.3399-.001-8.61173-2.43205-13.66988-7.14061-5.05816-4.70858-10.22148-11.26009-16.16501-17.01449-3.92934-3.80428-10.19238-12.28086-13.40508-16.68749 9.76122-20.823857 16.10596-37.026434 21.90521-46.346436 6.27932-10.09151 10.05898-13.063359 22.44015-12.925252z" opacity="1"/></g></g></g><path d="m184.17265 431.82288c8.50078 13.97459 18.6636 25.33308 30.01989 33.12594-29.38201-5.30278-60.23174-16.94435-90.91573-34.62887.29734-46.73298 4.58281-87.57362 11.78787-122.46316 9.2109-34.55366 17.87053-69.75658 35.33903-97.53917 5.70691-9.01924 10.61487-17.61204 16.90487-26.20193 3.28426 2.44856 6.67479 4.74364 10.18651 6.82909-5.50553 8.64784-11.33243 17.44608-15.34921 25.31248-16.12612 37.94873-24.24889 79.18889-24.47575 111.30107 0 30.06364 5.53825 58.0497 15.06444 81.48156 3.12872 7.95018 7.29981 15.33811 11.43808 22.78299zm64.50109-17.89264c-19.47549-.007-38.86915 2.47073-58.20459 5.09495-2.33953-4.40888-4.80739-8.80254-6.33336-13.54312-8.09437-25.14602-14.60556-49.35005-14.60916-77.89211.22081-30.06161 8.01052-69.9784 23.35955-106.26669 4.8982-8.94538 10.32696-17.47398 15.15936-24.92576 13.82445 5.43594 29.9115 9.60416 42.50738 9.77694 14.17973.059 30.06391-3.85154 41.98707-8.55702 4.97278 7.94374 10.57357 16.2598 14.57401 24.01697 15.34902 36.28829 23.13873 76.20508 23.35955 106.26669-.004 28.54206-6.5148 52.74608-14.60917 77.89212-1.52597 4.74056-3.99384 9.13423-6.32992 13.53608-20.21302-2.775-40.49365-5.3914-60.86072-5.39905zm90.76984-270.2054s-10.9763-35.15404-21.06737-54.101913c-8.93367-16.774745-18.54862-36.189769-35.62732-50.579347-7.59154-6.396211-17.88034-13.97828-31.61598-14.043151-14.06904-.06645-24.81685 7.587209-32.7779 14.231237-17.3259 14.459632-26.29071 34.160281-35.42516 50.211866-10.49479 18.442038-24.35272 53.528858-24.35272 53.528858-3.86342 11.28296 9.42097 24.39478 18.69608 32.85875-7.34042 9.64753-13.20884 20.7484-17.38826 29.02674-18.93958 30.12204-27.12964 65.62179-36.3779 100.35341-7.97046 39.40808-11.06292 86.93996-12.12889 131.93425 4.31908 2.48943 8.00376 4.75906 12.12889 6.91172 20.58291 10.70287 40.00301 19.68401 60.62865 25.8152 21.19176 6.36113 30.49539 6.4808 54.68198 0-5.82431-4.78643-12.26202-9.43789-17.91912-14.69881-8.44691-7.85534-16.85817-15.90221-23.83591-25.10236 17.6908-2.40693 33.55311-4.27954 51.69722-4.28637 18.9592.007 35.48407 2.05965 54.16518 4.61249-6.96983 9.18808-15.3785 17.23382-23.82361 25.08748-5.6571 5.2609-12.0948 9.91236-17.91913 14.69881 24.1866 6.48078 33.49022 6.36111 54.68199 0 8.21616-2.42599 16.32977-5.24806 24.25076-8.51132 12.41559-5.11495 24.47336-11.09161 36.37789-17.30389 4.12514-2.15264 7.80983-4.4223 12.12889-6.91171-1.06598-44.99429-4.15843-92.52619-12.12889-131.93425-9.24826-34.73164-17.43832-70.23136-36.37789-100.35342-3.81225-7.55107-9.04428-17.44287-15.32811-26.60974 5.81212-6.90211 16.5915-28.03255 14.65663-34.83453zm-53.75211 42.79643c-11.3101 4.48045-23.19529 7.85012-35.09118 7.80029-12.08999-.0506-24.15782-3.58166-35.73454-8.37861-10.81397-4.93434-21.43719-10.72625-29.75622-19.09246-6.66465-6.57883-15.5285-19.47127-15.5285-19.47127s14.22255-35.50282 23.65134-52.071631c9.43795-16.584881 18.06938-34.747143 32.71989-46.973979 7.06944-5.899917 15.91658-11.521992 25.1244-11.478505 8.84558.04178 17.26809 5.553943 24.03278 11.253505 14.62854 12.325199 23.81085 30.202925 32.80251 47.086479 8.76673 16.461191 20.24646 52.159521 20.24646 52.159521s-6.16153 15.04075-11.85555 20.87928c-8.46884 8.53651-20.07709 14.06528-30.61139 18.28738zm43.90484 24.1075c17.46849 27.7826 26.12813 62.98553 35.33902 97.53917 7.20508 34.88953 11.49054 75.73018 11.78788 122.46316-30.68401 17.68452-61.53371 29.32609-90.91573 34.62887 11.34912-7.78794 21.50651-19.13718 30.34948-33.67517 4.58167-7.33102 7.4691-14.16359 11.10848-22.23359 9.5262-23.43184 15.06445-51.41792 15.06445-81.48156-.22686-32.11218-8.34963-73.35235-24.47576-111.30106-3.74448-7.33317-9.06181-15.47707-14.233-23.55643 3.72288-1.6862 7.3417-3.5856 10.90547-5.95555 5.41325 7.71911 9.94432 15.47196 15.06971 23.57216zm-77.83059-132.009838c-28.84669-.321773-31.61024 22.245258-53.5728 67.971038 0 0 10.50329 15.12635 17.07713 21.49099 10.53484 10.19959 20.64401 26.23565 35.30739 26.2406 14.67615.005 24.82013-16.02251 35.35485-26.2406 6.55518-6.35816 16.99099-21.49099 16.99099-21.49099-20.35175-44.90149-22.80235-67.654733-51.15756-67.971038zm-.0932 8.339055c11.95036.133307 15.58706 3.172121 21.4945 13.169523 5.45728 9.23556 11.26577 25.1034 20.2201 45.36909-3.11245 4.29771-9.36913 12.8242-13.26092 16.59901-5.87119 5.69474-10.98121 12.1756-15.99257 16.83104-5.01135 4.65543-9.25237 7.05725-13.55447 7.05585-4.29266-.00099-8.51799-2.40558-13.52108-7.06288-5.0031-4.65733-10.11022-11.13752-15.98905-16.82929-3.88657-3.76287-10.08143-12.14718-13.25916-16.50584 9.65496-20.59718 15.93064-36.62339 21.66676-45.841945 6.21097-9.981662 9.94949-12.921162 22.19589-12.784558z" fill="#8fa2a3" stroke-width=".999998"/></svg>