<svg height="500" viewBox="0 0 500 500" width="500" xmlns="http://www.w3.org/2000/svg" xmlns:xlink="http://www.w3.org/1999/xlink"><linearGradient id="a" gradientTransform="matrix(391.593 0 0 -391.593 60.7962 7618.49)" gradientUnits="userSpaceOnUse" spreadMethod="pad" x1="0" x2="1" y1="0" y2="0"><stop offset="0" stop-color="#a06122"/><stop offset=".511236" stop-color="#efbd76"/><stop offset="1" stop-color="#b57720"/></linearGradient><linearGradient id="b" gradientTransform="translate(-190.74574 -471.39542)" gradientUnits="userSpaceOnUse" spreadMethod="reflect" x1="263.4313" x2="618.06604" xlink:href="#a" y1="644.28998" y2="798.52631"/><linearGradient id="c" gradientTransform="translate(-190.74574 -471.39542)" gradientUnits="userSpaceOnUse" spreadMethod="reflect" x1="427.33063" x2="468.23111" xlink:href="#a" y1="591.06128" y2="693.94525"/><linearGradient id="d" gradientTransform="translate(-190.74574 -471.39542)" gradientUnits="userSpaceOnUse" spreadMethod="reflect" x1="556.71448" x2="446.53091" xlink:href="#a" y1="798.24408" y2="805.59583"/><linearGradient id="e" gradientTransform="translate(-191.27271 -471.33446)" gradientUnits="userSpaceOnUse" spreadMethod="reflect" x1="416.44885" x2="477.86063" xlink:href="#a" y1="690.76263" y2="739.2384"/><linearGradient id="f" gradientTransform="translate(-190.74672 -471.7333)" gradientUnits="userSpaceOnUse" spreadMethod="reflect" x1="526.09265" x2="337.20667" xlink:href="#a" y1="618.56531" y2="824.87976"/><linearGradient id="g" gradientTransform="matrix(3.7795274 0 0 3.7795274 -1207.5317 591.5066)" gradientUnits="userSpaceOnUse" spreadMethod="reflect" x1="423.86783" x2="414.58939" xlink:href="#a" y1="-112.34695" y2="-104.30617"/><linearGradient id="h" gradientTransform="matrix(3.7795274 0 0 3.7795274 -1207.5317 591.5066)" gradientUnits="userSpaceOnUse" spreadMethod="reflect" x1="428.69852" x2="417.07709" xlink:href="#a" y1="-102.63625" y2="-100.16949"/><linearGradient id="i" gradientTransform="matrix(3.7795274 0 0 3.7795274 -1207.5317 591.5066)" gradientUnits="userSpaceOnUse" spreadMethod="reflect" x1="442.05261" x2="431.50995" xlink:href="#a" y1="-116.44602" y2="-113.03431"/><linearGradient id="j" gradientTransform="matrix(1.0031154 0 0 1.0031154 -192.11857 -473.64189)" gradientUnits="userSpaceOnUse" spreadMethod="reflect" x1="309.73218" x2="571.75293" xlink:href="#a" y1="590.37299" y2="852.39447"/><g stroke-width="1.00464" transform="matrix(.99537857 0 0 .99537857 73.442737 230.01924)"><g id="k" stroke-width="3.84214" transform="matrix(.13719565 -.22259653 .22259653 .13719565 85.517917 149.10398)"><use stroke-width="3.84214" transform="translate(334.12096 -716.9507)" xlink:href="#l"/><use stroke-width="3.84214" transform="translate(1132.2135 -716.9507)" xlink:href="#l"/><use stroke-width="3.84214" transform="translate(1930.3352 -716.9507)" xlink:href="#l"/></g><use stroke-width="1.00464" transform="matrix(-1 0 0 1 354.74175 0)" xlink:href="#k"/></g><g id="l" stroke-width="1.41321" transform="matrix(-2.3230319 -1.3251828 1.3251828 -2.3230319 1140.744 1056.057)"><use stroke-width="1.41321" transform="translate(-207.5094 118.37456)" xlink:href="#m"/><use stroke-width="1.41321" transform="translate(-155.04214 88.444407)" xlink:href="#m"/><use stroke-width="1.41321" transform="translate(-103.39354 58.981254)" xlink:href="#m"/><use transform="translate(-51.696769 29.490628)" xlink:href="#m"/><g id="m" stroke-width="1.41321" transform="translate(-46.154384 -329.45068)"><path d="m389.01377 169.66216c-.20722-.002-.41471-.00026-.62167.006-6.14261.17901-12.3391 2.21603-17.6599 5.29063-5.33456 3.08256-10.26266 7.41151-13.43742 12.69174-1.70569 2.83692-2.49444 6.26694-2.63705 9.57409-.10443 2.42214.70974 4.80628 1.32035 7.15254.32859 1.26261.62145 2.56694 1.25624 3.70674.91157 1.63676 2.24772 3.01497 3.576 4.33617 1.74662 1.73731 3.53018 3.55632 5.7268 4.67156 2.97035 1.50805 6.33894 2.58191 9.6697 2.52387 6.1622-.10738 12.38311-2.20094 17.71674-5.28908 5.37975-3.11484 10.47959-7.42203 13.52373-12.84211 1.5181-2.70301 1.81906-5.99443 1.95853-9.09144.16359-3.63282.077-7.47486-1.32964-10.82828-.84611-2.01708-2.51926-3.60875-4.08604-5.13508-1.77247-1.72669-3.68837-3.41583-5.92781-4.46847-2.81064-1.32112-5.93994-2.26522-9.04856-2.29856zm-5.25238 19.0624 2.22208 3.89021 2.10013 3.67781-6.79492 3.92379-2.19885-3.81062-2.15852-3.73827z" fill="#86522c"/><path d="m403.41411 182.53505s-4.58333-4.84833-7.50165-6.32546c-2.25943-1.14363-4.85413-1.85232-7.38549-1.78064-5.36488.15191-10.76594 1.97003-15.41396 4.65349-4.64808 2.6835-8.97135 6.42261-11.73745 11.02201-1.27743 2.12407-1.92725 4.69569-1.95527 7.17414-.0353 3.12409 2.25957 9.09643 2.25957 9.09643l13.28413-7.58833-4.538-7.86247 15.09711-8.71632 4.54275 7.95212z" fill="url(#g)" stroke-width=".373911"/><path d="m361.68001 206.37527s4.31072 4.98926 7.14258 6.53799c2.2106 1.20896 4.78611 1.98305 7.30535 1.94085 5.36646-.0899 10.76644-1.96969 15.41462-4.65323 4.64798-2.68342 9.13819-6.32616 11.73692-11.02201 1.14285-2.06511 1.28585-4.58888 1.36586-6.94778.11044-3.25609-1.23123-9.69604-1.23123-9.69604l-13.34826 7.62497 4.50566 7.88717-15.02693 8.67576-4.58059-7.93626z" fill="url(#h)" stroke-width=".373911"/></g><use transform="translate(-51.696768 29.490628)" xlink:href="#n"/><use stroke-width="1.41321" transform="translate(-103.39354 58.981258)" xlink:href="#n"/><use stroke-width="1.41321" transform="translate(-155.04214 88.444409)" xlink:href="#n"/><use stroke-width="1.41321" transform="translate(-206.69075 117.90757)" xlink:href="#n"/><g id="n" stroke-width="1.41321" transform="translate(-81.543206 -307.22679)"><path d="m461.37526 139.0448c1.04043.31213 2.11385.99382 2.64163 1.90817l4.35737 7.54889c.62407 1.0955 1.05503 2.52867.714 3.75693-.3289 1.18459-1.29717 2.0874-2.4581 2.74965l-36.66983 20.81485c-1.10814.58786-2.15324.72289-3.20716.48213-1.29032-.29476-2.37412-.64922-3.28076-2.23672l-4.3222-7.56803c-.60526-1.05952-.63948-2.18777-.38916-3.2496.29917-1.26905 1.30485-2.78444 2.15086-3.26705l36.59966-20.77431c.9037-.51553 2.62899-.53532 3.86369-.16491z" fill="#86522c"/><path d="m458.86417 143.76351-35.54476 20.55721c-.8616.42028-.78458.44231-.33867 1.22282l3.43877 6.01914c.43615.90831.46245.8178 1.27938.34601l35.6674-20.59853c.35176-.39318.59418-.83192 0-1.61924l-3.26088-5.65881c-.40944-.87006-.47232-.7133-1.24124-.2686z" fill="url(#i)" stroke-width=".373911"/></g></g><g stroke-width="1.00464" transform="matrix(.99537857 0 0 .99537857 1.152438 74.644795)"><use stroke-width="1.00464" transform="matrix(0 1 -1 0 500.01563 .00977)" xlink:href="#o"/><g id="o" stroke-width="1.00464"><path d="m327.12109 72.695312-36.11381 36.113808-182.19035 182.19036-36.131383 36.13138 100.199223 100.19922 36.14718-36.14718 182.15876-182.15877 36.1296-36.13155z" fill="#86522c" stroke-width="1.00464"/><path d="m404.69273 172.89227-77.57224-77.569883-231.807284 231.808623 77.570944 77.57118z" fill="url(#b)" stroke-width="32.1486"/></g><circle cx="249.99707" cy="249.98926" fill="#86522c" r="147.01091"/><circle cx="249.99707" cy="249.98926" fill="url(#j)" r="131.01045"/><circle cx="249.99707" cy="249.98926" fill="#86522c" r="115.75195"/><path d="m242.43066 146.96876v22.96289c-10.27393 1.50144-19.06602 2.53437-28.32422 7.09375l-11.36133-19.68164c-3.60311 1.8451-7.08124 3.89905-10.42382 6.13867l11.40429 19.75781c-8.34353 5.88386-15.52674 13.29886-21.14648 21.8379l-19.83594-11.45313c-2.17618 3.38403-4.15679 6.90326-5.93359 10.54297l19.89062 11.48437c-4.13292 8.95072-6.68653 18.78075-7.30469 29.13672h-22.93554l.13672 12.09571h22.96484c.89132 10.21099 3.66563 19.87769 7.97656 28.65234l-19.8164 11.43945c1.848 3.60217 3.90232 7.08058 6.14453 10.42188l19.80273-11.4336c5.66053 8.17009 12.77806 15.25132 20.98242 20.86719l-11.34375 19.64649c3.36719 2.20078 6.87129 4.20967 10.4961 6.01367l11.31054-19.58985c8.76104 4.24234 18.39951 6.95543 28.57422 7.80079v22.41015l12.09571.0332v-21.23633c10.1658-.76402 19.81352-3.37528 28.58984-7.53125l11.00586 19.0625c3.63517-1.78652 7.15045-3.77569 10.5293-5.95899l-11.01758-19.08203c9.10102-6.12837 15.28022-13.00075 22.04092-21.78465l19.10165 11.02683 6.11915-10.43554-18.99805-10.96875c4.50965-8.95977 7.4096-18.87002 8.32422-29.35351h21.91797l.13672-12.09571h-21.89063c-.63434-10.63043-3.30701-20.70858-7.63476-29.84765l19.0625-11.00586c-1.78652-3.63517-3.77764-7.15045-5.96094-10.5293l-19.08203 11.01758c-5.80617-8.64131-13.2257-16.10424-21.83203-21.95703l11.10156-19.23242c-3.35166-2.22538-6.838-4.26224-10.44922-6.0918l-11.13281 19.2832c-9.99422-3.87253-21.62572-6.04605-31.18946-6.6582v-22.93555z" fill="url(#f)"/><path d="m274.71289 250.25977v-46.17188h18.78906l-43.04492-123.800781-43.60351 123.800781h18.8496v46.85547z" fill="#86522c" stroke-width="1.00464"/><path d="m238.44421 281.72244 31.30188 41.67014-14.1582 10.66797 110.38086 78.24609-44.58398-127.49805-13.74805 10.35352-35.44586-47.18631z" fill="#86522c" stroke-width="1.00464"/><path d="m229.45256 188.08804h12.24992v41.92757c2.8157-.76509 5.77186-1.83834 8.82253-1.83834 2.82217 0 5.56408.91424 8.18818 1.57253v-41.66176h12.28552l-20.63876-59.36098z" fill="url(#c)" stroke-width="32.1486"/><path d="m250.90946 271.67638 41.22578 54.88048-9.43616 7.10983 51.61472 36.58804-20.80189-59.4872-9.04584 6.81272-38.94503-51.84431c-4.62953 4.6271-10.13045 5.60372-14.61158 5.94044z" fill="url(#d)" stroke-width="32.1486"/><circle cx="249.99707" cy="249.98926" fill="#86522c" r="37.751968"/><circle cx="249.99707" cy="249.98926" fill="url(#e)" r="21.752026"/></g></svg>