<svg height="500" viewBox="0 0 500 500" width="500" xmlns="http://www.w3.org/2000/svg" xmlns:xlink="http://www.w3.org/1999/xlink"><linearGradient id="a"><stop offset="0" stop-color="#fefefb"/><stop offset=".5" stop-color="#fffbe5"/><stop offset="1" stop-color="#fff" stop-opacity=".953052"/></linearGradient><radialGradient id="b" cx="589.72705" cy="144.76898" gradientTransform="matrix(.08462104 -.0987984 .10044681 .08603291 525.28215 190.57817)" gradientUnits="userSpaceOnUse" r="195.06644" spreadMethod="reflect" xlink:href="#a"/><radialGradient id="c" cx="-2545.2551" cy="393.6835" gradientTransform="matrix(.08462104 -.0987984 .10044681 .08603291 525.28215 190.57817)" gradientUnits="userSpaceOnUse" r="195.06644" spreadMethod="reflect" xlink:href="#a"/><radialGradient id="d" cx="-2712.1631" cy="-1507.7623" gradientTransform="matrix(.08462104 -.0987984 .10044681 .08603291 525.28215 190.57817)" gradientUnits="userSpaceOnUse" r="195.06644" spreadMethod="reflect" xlink:href="#a"/><filter id="e" color-interpolation-filters="sRGB" height="1.003905" width="1.003963" x="-.001982" y="-.001953"><feGaussianBlur stdDeviation=".11419479"/></filter><filter id="f" color-interpolation-filters="sRGB" height="1.002939" width="1.003565" x="-.001783" y="-.001469"><feGaussianBlur stdDeviation=".11485884"/></filter><filter id="g" color-interpolation-filters="sRGB" height="1.002916" width="1.002916" x="-.001458" y="-.001458"><feGaussianBlur stdDeviation=".12149483"/></filter><filter id="h" color-interpolation-filters="sRGB" height="1.007366" width="1.005061" x="-.002531" y="-.003683"><feGaussianBlur stdDeviation=".19023803"/></filter><filter id="i" color-interpolation-filters="sRGB" height="1.005492" width="1.006612" x="-.003306" y="-.002746"><feGaussianBlur stdDeviation=".22265628"/></filter><filter id="j" color-interpolation-filters="sRGB" height="1.004898" width="1.007741" x="-.00387" y="-.002449"><feGaussianBlur stdDeviation=".2922375"/></filter><filter id="k" color-interpolation-filters="sRGB" height="2.35" width="2.35" x="-.675" y="-.675"><feGaussianBlur stdDeviation="42.1875"/></filter><filter id="l" color-interpolation-filters="sRGB" height="1.092793" width="1.102893" x="-.051447" y="-.046396"><feGaussianBlur stdDeviation="8.9202137"/></filter><radialGradient id="m" cx="4601.1221" cy="4277.6772" gradientTransform="matrix(0 1 -1 0 5224.5762 -3824.5764)" gradientUnits="userSpaceOnUse" r="11.2507" xlink:href="#n"/><linearGradient id="n"><stop offset="0" stop-color="#fff"/><stop offset=".1375" stop-color="#fff" stop-opacity=".8625"/><stop offset="1" stop-color="#fff" stop-opacity="0"/></linearGradient><radialGradient id="o" cx="4694.3481" cy="4395.814" gradientTransform="matrix(0 1 -1 0 5224.5762 -3824.5764)" gradientUnits="userSpaceOnUse" r="11.2507" xlink:href="#n"/><radialGradient id="p" cx="4845.7568" cy="4885.4878" gradientTransform="matrix(0 1 -1 0 5224.5762 -3824.5764)" gradientUnits="userSpaceOnUse" r="11.2507" xlink:href="#n"/><radialGradient id="q" cx="4996.8203" cy="4201.0781" gradientTransform="matrix(0 1 -1 0 5224.5762 -3824.5764)" gradientUnits="userSpaceOnUse" r="11.2507" xlink:href="#n"/><radialGradient id="r" cx="4264.2671" cy="4804.9849" gradientTransform="matrix(0 1 -1 0 5224.5762 -3824.5764)" gradientUnits="userSpaceOnUse" r="11.2507" xlink:href="#n"/><radialGradient id="s" cx="4253.0161" cy="4349.7529" gradientTransform="matrix(0 1 -1 0 5224.5762 -3824.5764)" gradientUnits="userSpaceOnUse" r="11.2507" xlink:href="#n"/><radialGradient id="t" cx="4291.9346" cy="4509.8506" gradientTransform="matrix(0 1 -1 0 5224.5762 -3824.5764)" gradientUnits="userSpaceOnUse" r="11.2507" xlink:href="#n"/><radialGradient id="u" cx="4178.7915" cy="4193.6758" gradientTransform="matrix(0 1 -1 0 5224.5762 -3824.5764)" gradientUnits="userSpaceOnUse" r="11.2507" xlink:href="#n"/><radialGradient id="v" cx="4508.9131" cy="4184.4229" gradientTransform="matrix(0 1 -1 0 5224.5762 -3824.5764)" gradientUnits="userSpaceOnUse" r="11.2507" xlink:href="#n"/><radialGradient id="w" cx="4169.5386" cy="4599.0166" gradientTransform="matrix(0 1 -1 0 5224.5762 -3824.5764)" gradientUnits="userSpaceOnUse" r="11.2507" xlink:href="#n"/><radialGradient id="x" cx="4024.0554" cy="4671.3345" gradientTransform="matrix(0 1 -1 0 5224.5762 -3824.5764)" gradientUnits="userSpaceOnUse" r="11.2507" xlink:href="#n"/><radialGradient id="y" cx="4381.2778" cy="4473.0386" gradientTransform="matrix(0 1 -1 0 5224.5762 -3824.5764)" gradientUnits="userSpaceOnUse" r="5.6228" xlink:href="#n"/><radialGradient id="z" cx="4207.3452" cy="4447.1753" gradientTransform="matrix(0 1 -1 0 5224.5762 -3824.5764)" gradientUnits="userSpaceOnUse" r="5.6228" xlink:href="#n"/><radialGradient id="A" cx="4156.0269" cy="4803.9863" gradientTransform="matrix(0 1 -1 0 5224.5762 -3824.5764)" gradientUnits="userSpaceOnUse" r="5.6228" xlink:href="#n"/><radialGradient id="B" cx="4201.7222" cy="5018.0508" gradientTransform="matrix(0 1 -1 0 5224.5762 -3824.5764)" gradientUnits="userSpaceOnUse" r="5.6228" xlink:href="#n"/><radialGradient id="C" cx="4756.5977" cy="4610.2671" gradientTransform="matrix(0 1 -1 0 5224.5762 -3824.5764)" gradientUnits="userSpaceOnUse" r="5.6228" xlink:href="#n"/><radialGradient id="D" cx="4724.8408" cy="4498.3604" gradientTransform="matrix(0 1 -1 0 5224.5762 -3824.5764)" gradientUnits="userSpaceOnUse" r="5.6228" xlink:href="#n"/><radialGradient id="E" cx="4755.5991" cy="4916.6094" gradientTransform="matrix(0 1 -1 0 5224.5762 -3824.5764)" gradientUnits="userSpaceOnUse" r="5.6228" xlink:href="#n"/><radialGradient id="F" cx="4815.3223" cy="4406.499" gradientTransform="matrix(0 1 -1 0 5224.5762 -3824.5764)" gradientUnits="userSpaceOnUse" r="5.6228" xlink:href="#n"/><radialGradient id="G" cx="4840.1343" cy="4528.7949" gradientTransform="matrix(0 1 -1 0 5224.5762 -3824.5764)" gradientUnits="userSpaceOnUse" r="5.6228" xlink:href="#n"/><radialGradient id="H" cx="4994.8228" cy="4675.311" gradientTransform="matrix(0 1 -1 0 5224.5762 -3824.5764)" gradientUnits="userSpaceOnUse" r="5.6228" xlink:href="#n"/><radialGradient id="I" cx="4625.9868" cy="4580.4009" gradientTransform="matrix(0 1 -1 0 5224.5762 -3824.5764)" gradientUnits="userSpaceOnUse" r="5.6228" xlink:href="#n"/><radialGradient id="J" cx="4832.085" cy="4231.3418" gradientTransform="matrix(0 1 -1 0 5224.5762 -3824.5764)" gradientUnits="userSpaceOnUse" r="5.6228" xlink:href="#n"/><radialGradient id="K" cx="4920.2227" cy="4281.3076" gradientTransform="matrix(0 1 -1 0 5224.5762 -3824.5764)" gradientUnits="userSpaceOnUse" r="5.6228" xlink:href="#n"/><radialGradient id="L" cx="4483.835" cy="4313.1982" gradientTransform="matrix(0 1 -1 0 5224.5762 -3824.5764)" gradientUnits="userSpaceOnUse" r="5.6228" xlink:href="#n"/><radialGradient id="M" cx="4664.439" cy="4695.5273" gradientTransform="matrix(0 1 -1 0 5224.5762 -3824.5764)" gradientUnits="userSpaceOnUse" r="11.2507" xlink:href="#n"/><radialGradient id="N" cx="4894.2646" cy="4681.8555" gradientTransform="matrix(0 1 -1 0 5224.5762 -3824.5764)" gradientUnits="userSpaceOnUse" r="11.2507" xlink:href="#n"/><radialGradient id="O" cx="4985.5698" cy="4361.0039" gradientTransform="matrix(0 1 -1 0 5224.5762 -3824.5764)" gradientUnits="userSpaceOnUse" r="11.2507" xlink:href="#n"/><radialGradient id="P" cx="4713.5898" cy="4089.8687" gradientTransform="matrix(0 1 -1 0 5224.5762 -3824.5764)" gradientUnits="userSpaceOnUse" r="11.2507" xlink:href="#n"/><radialGradient id="Q" cx="4757.5957" cy="4804.9849" gradientTransform="matrix(0 1 -1 0 5224.5762 -3824.5764)" gradientUnits="userSpaceOnUse" r="11.2507" xlink:href="#n"/><radialGradient id="R" cx="4433.3354" cy="5016.0532" gradientTransform="matrix(0 1 -1 0 5224.5762 -3824.5764)" gradientUnits="userSpaceOnUse" r="11.2507" xlink:href="#n"/><radialGradient id="S" cx="4371.5723" cy="4725.9341" gradientTransform="matrix(0 1 -1 0 5224.5762 -3824.5764)" gradientUnits="userSpaceOnUse" r="11.2507" xlink:href="#n"/><radialGradient id="T" cx="4510.9111" cy="4743.7231" gradientTransform="matrix(0 1 -1 0 5224.5762 -3824.5764)" gradientUnits="userSpaceOnUse" r="11.2507" xlink:href="#n"/><radialGradient id="U" cx="4269.4331" cy="4686.5615" gradientTransform="matrix(0 1 -1 0 5224.5762 -3824.5764)" gradientUnits="userSpaceOnUse" r="11.2507" xlink:href="#n"/><radialGradient id="V" cx="4072.584" cy="4883.4902" gradientTransform="matrix(0 1 -1 0 5224.5762 -3824.5764)" gradientUnits="userSpaceOnUse" r="11.2507" xlink:href="#n"/><radialGradient id="W" cx="4484.8335" cy="4664.189" gradientTransform="matrix(0 1 -1 0 5224.5762 -3824.5764)" gradientUnits="userSpaceOnUse" r="7.1455" xlink:href="#n"/><radialGradient id="X" cx="4613.2183" cy="4640.4971" gradientTransform="matrix(0 1 -1 0 5224.5762 -3824.5764)" gradientUnits="userSpaceOnUse" r="7.1455" xlink:href="#n"/><radialGradient id="Y" cx="4091.8" cy="4252.5869" gradientTransform="matrix(0 1 -1 0 5224.5762 -3824.5764)" gradientUnits="userSpaceOnUse" r="7.1455" xlink:href="#n"/><radialGradient id="Z" cx="4666.4365" cy="4863.9521" gradientTransform="matrix(0 1 -1 0 5224.5762 -3824.5764)" gradientUnits="userSpaceOnUse" r="7.1455" xlink:href="#n"/><radialGradient id="aa" cx="4894.2646" cy="4840.1016" gradientTransform="matrix(0 1 -1 0 5224.5762 -3824.5764)" gradientUnits="userSpaceOnUse" r="7.1455" xlink:href="#n"/><radialGradient id="ab" cx="4974.3188" cy="4809.6094" gradientTransform="matrix(0 1 -1 0 5224.5762 -3824.5764)" gradientUnits="userSpaceOnUse" r="7.1455" xlink:href="#n"/><radialGradient id="ac" cx="4589.1577" cy="4997.6572" gradientTransform="matrix(0 1 -1 0 5224.5762 -3824.5764)" gradientUnits="userSpaceOnUse" r="7.1455" xlink:href="#n"/><radialGradient id="ad" cx="4065.4385" cy="4519.7837" gradientTransform="matrix(0 1 -1 0 5224.5762 -3824.5764)" gradientUnits="userSpaceOnUse" r="7.1455" xlink:href="#n"/><radialGradient id="ae" cx="4347.4258" cy="4820.2441" gradientTransform="matrix(0 1 -1 0 5224.5762 -3824.5764)" gradientUnits="userSpaceOnUse" r="7.1455" xlink:href="#n"/><radialGradient id="af" cx="4533.5781" cy="4593.1694" gradientTransform="matrix(0 1 -1 0 5224.5762 -3824.5764)" gradientUnits="userSpaceOnUse" r="7.1455" xlink:href="#n"/><radialGradient id="ag" cx="4448.2217" cy="4220.0913" gradientTransform="matrix(0 1 -1 0 5224.5762 -3824.5764)" gradientUnits="userSpaceOnUse" r="11.2507" xlink:href="#n"/><radialGradient id="ah" cx="4908.2451" cy="4929.8579" gradientTransform="matrix(0 1 -1 0 5224.5762 -3824.5764)" gradientUnits="userSpaceOnUse" r="11.2507" xlink:href="#n"/><radialGradient id="ai" cx="4987.5674" cy="5014.0552" gradientTransform="matrix(0 1 -1 0 5224.5762 -3824.5764)" gradientUnits="userSpaceOnUse" r="11.2507" xlink:href="#n"/><radialGradient id="aj" cx="3991.5649" cy="4813.0986" gradientTransform="matrix(0 1 -1 0 5224.5762 -3824.5764)" gradientUnits="userSpaceOnUse" r="11.2507" xlink:href="#n"/><radialGradient id="ak" cx="4027.6277" cy="5059.4341" gradientTransform="matrix(0 1 -1 0 5224.5762 -3824.5764)" gradientUnits="userSpaceOnUse" r="11.2507" xlink:href="#n"/><radialGradient id="al" cx="4012.8047" cy="4351.751" gradientTransform="matrix(0 1 -1 0 5224.5762 -3824.5764)" gradientUnits="userSpaceOnUse" r="11.2507" xlink:href="#n"/><radialGradient id="am" cx="4683.0972" cy="5027.3037" gradientTransform="matrix(0 1 -1 0 5224.5762 -3824.5764)" gradientUnits="userSpaceOnUse" r="11.2507" xlink:href="#n"/><radialGradient id="an" cx="4367.481" cy="4195.6733" gradientTransform="matrix(0 1 -1 0 5224.5762 -3824.5764)" gradientUnits="userSpaceOnUse" r="11.2507" xlink:href="#n"/><radialGradient id="ao" cx="4526.4326" cy="4089.8687" gradientTransform="matrix(0 1 -1 0 5224.5762 -3824.5764)" gradientUnits="userSpaceOnUse" r="11.2507" xlink:href="#n"/><radialGradient id="ap" cx="4261.9028" cy="4242.5928" gradientTransform="matrix(0 1 -1 0 5224.5762 -3824.5764)" gradientUnits="userSpaceOnUse" r="11.2507" xlink:href="#n"/><radialGradient id="aq" cx="16633.223" cy="4517.6021" gradientTransform="matrix(0 .2895 -1 0 5224.5762 -4086.6375)" gradientUnits="userSpaceOnUse" r="19.241899" xlink:href="#n"/><radialGradient id="ar" cx="-15595.086" cy="5031.6465" gradientTransform="matrix(.2895 0 0 1 5221.3418 -4303.4033)" gradientUnits="userSpaceOnUse" r="19.241899" xlink:href="#n"/><radialGradient id="as" cx="16323.169" cy="4900.5503" gradientTransform="matrix(0 .2895 -1 0 5224.5762 -4086.6375)" gradientUnits="userSpaceOnUse" r="29.7325" xlink:href="#n"/><radialGradient id="at" cx="-16917.998" cy="4941.8945" gradientTransform="matrix(.2895 0 0 1 5221.3418 -4303.4033)" gradientUnits="userSpaceOnUse" r="29.7325" xlink:href="#n"/><radialGradient id="au" cx="17536.6" cy="5029.3018" gradientTransform="matrix(0 .2895 -1 0 5224.5762 -4086.6375)" gradientUnits="userSpaceOnUse" r="29.7325" xlink:href="#n"/><radialGradient id="av" cx="-17362.775" cy="5293.1509" gradientTransform="matrix(.2895 0 0 1 5221.3418 -4303.4033)" gradientUnits="userSpaceOnUse" r="29.7325" xlink:href="#n"/><radialGradient id="aw" cx="15154.966" cy="4975.0698" gradientTransform="matrix(0 .2895 -1 0 5224.5762 -4086.6375)" gradientUnits="userSpaceOnUse" r="29.7325" xlink:href="#n"/><radialGradient id="ax" cx="-17175.43" cy="4603.7305" gradientTransform="matrix(.2895 0 0 1 5221.3418 -4303.4033)" gradientUnits="userSpaceOnUse" r="29.7325" xlink:href="#n"/><radialGradient id="ay" cx="16788.486" cy="4380.1377" gradientTransform="matrix(0 .2895 -1 0 5224.5762 -4086.6375)" gradientUnits="userSpaceOnUse" r="29.7325" xlink:href="#n"/><radialGradient id="az" cx="-15120.208" cy="5076.5913" gradientTransform="matrix(.2895 0 0 1 5221.3418 -4303.4033)" gradientUnits="userSpaceOnUse" r="29.7325" xlink:href="#n"/><radialGradient id="aA" cx="15052.254" cy="4385.373" gradientTransform="matrix(0 .2895 -1 0 5224.5762 -4086.6375)" gradientUnits="userSpaceOnUse" r="29.7325" xlink:href="#n"/><radialGradient id="aB" cx="-15138.295" cy="4573.998" gradientTransform="matrix(.2895 0 0 1 5221.3418 -4303.4033)" gradientUnits="userSpaceOnUse" r="29.7325" xlink:href="#n"/><radialGradient id="aC" cx="16060.047" cy="4376.7666" gradientTransform="matrix(0 .2895 -1 0 5224.5762 -4086.6375)" gradientUnits="userSpaceOnUse" r="29.7325" xlink:href="#n"/><radialGradient id="aD" cx="-15108.562" cy="4865.7275" gradientTransform="matrix(.2895 0 0 1 5221.3418 -4303.4033)" gradientUnits="userSpaceOnUse" r="29.7325" xlink:href="#n"/><radialGradient id="aE" cx="15866.068" cy="4081.2617" gradientTransform="matrix(0 .2895 -1 0 5224.5762 -4086.6375)" gradientUnits="userSpaceOnUse" r="29.7325" xlink:href="#n"/><radialGradient id="aF" cx="-14087.729" cy="4809.5757" gradientTransform="matrix(.2895 0 0 1 5221.3418 -4303.4033)" gradientUnits="userSpaceOnUse" r="29.7325" xlink:href="#n"/><radialGradient id="aG" cx="17890.787" cy="4106.2778" gradientTransform="matrix(0 .2895 -1 0 5224.5762 -4086.6375)" gradientUnits="userSpaceOnUse" r="29.7325" xlink:href="#n"/><radialGradient id="aH" cx="-14174.147" cy="5395.6787" gradientTransform="matrix(.2895 0 0 1 5221.3418 -4303.4033)" gradientUnits="userSpaceOnUse" r="29.7325" xlink:href="#n"/><radialGradient id="aI" cx="15420.522" cy="4902.7319" gradientTransform="matrix(0 .2895 -1 0 5224.5762 -4086.6375)" gradientUnits="userSpaceOnUse" r="19.241899" xlink:href="#n"/><radialGradient id="aJ" cx="-16925.533" cy="4680.6021" gradientTransform="matrix(.2895 0 0 1 5221.3418 -4303.4033)" gradientUnits="userSpaceOnUse" r="19.241899" xlink:href="#n"/><radialGradient id="aK" cx="17559.291" cy="4676.2856" gradientTransform="matrix(0 .2895 -1 0 5224.5762 -4086.6375)" gradientUnits="userSpaceOnUse" r="19.241899" xlink:href="#n"/><radialGradient id="aL" cx="-16143.265" cy="5299.7192" gradientTransform="matrix(.2895 0 0 1 5221.3418 -4303.4033)" gradientUnits="userSpaceOnUse" r="19.241899" xlink:href="#n"/><radialGradient id="aM" cx="16866.557" cy="4774.4922" gradientTransform="matrix(0 .2895 -1 0 5224.5762 -4086.6375)" gradientUnits="userSpaceOnUse" r="19.241899" xlink:href="#n"/><radialGradient id="aN" cx="-16482.523" cy="5099.1909" gradientTransform="matrix(.2895 0 0 1 5221.3418 -4303.4033)" gradientUnits="userSpaceOnUse" r="19.241899" xlink:href="#n"/><radialGradient id="aO" cx="16071.692" cy="4574.7783" gradientTransform="matrix(0 .2895 -1 0 5224.5762 -4086.6375)" gradientUnits="userSpaceOnUse" r="19.241899" xlink:href="#n"/><radialGradient id="aP" cx="-15792.604" cy="4869.0986" gradientTransform="matrix(.2895 0 0 1 5221.3418 -4303.4033)" gradientUnits="userSpaceOnUse" r="19.241899" xlink:href="#n"/><radialGradient id="aQ" cx="16699.693" cy="4871.0977" gradientTransform="matrix(0 .2895 -1 0 5224.5762 -4086.6375)" gradientUnits="userSpaceOnUse" r="19.241899" xlink:href="#n"/><radialGradient id="aR" cx="-16816.252" cy="5050.8887" gradientTransform="matrix(.2895 0 0 1 5221.3418 -4303.4033)" gradientUnits="userSpaceOnUse" r="19.241899" xlink:href="#n"/><radialGradient id="aS" cx="18061.07" cy="4512.0322" gradientTransform="matrix(0 .2895 -1 0 5224.5762 -4086.6375)" gradientUnits="userSpaceOnUse" r="19.241899" xlink:href="#n"/><radialGradient id="aT" cx="-15575.844" cy="5444.9717" gradientTransform="matrix(.2895 0 0 1 5221.3418 -4303.4033)" gradientUnits="userSpaceOnUse" r="19.241899" xlink:href="#n"/><radialGradient id="aU" cx="17188.609" cy="4244.9609" gradientTransform="matrix(0 .2895 -1 0 5224.5762 -4086.6375)" gradientUnits="userSpaceOnUse" r="19.241899" xlink:href="#n"/><radialGradient id="aV" cx="-14653.234" cy="5192.417" gradientTransform="matrix(.2895 0 0 1 5221.3418 -4303.4033)" gradientUnits="userSpaceOnUse" r="19.241899" xlink:href="#n"/><radialGradient id="aW" cx="15143.32" cy="4682.5854" gradientTransform="matrix(0 .2895 -1 0 5224.5762 -4086.6375)" gradientUnits="userSpaceOnUse" r="19.241899" xlink:href="#n"/><radialGradient id="aX" cx="-16165.027" cy="4600.3594" gradientTransform="matrix(.2895 0 0 1 5221.3418 -4303.4033)" gradientUnits="userSpaceOnUse" r="19.241899" xlink:href="#n"/><radialGradient id="aY" cx="17652.088" cy="4368.1597" gradientTransform="matrix(0 .2895 -1 0 5224.5762 -4086.6375)" gradientUnits="userSpaceOnUse" r="19.241899" xlink:href="#n"/><radialGradient id="aZ" cx="-15078.83" cy="5326.5815" gradientTransform="matrix(.2895 0 0 1 5221.3418 -4303.4033)" gradientUnits="userSpaceOnUse" r="19.241899" xlink:href="#n"/><radialGradient id="a0" cx="3957.2905" cy="4201.0781" gradientTransform="matrix(0 1 -1 0 5224.5762 -3824.5764)" gradientUnits="userSpaceOnUse" r="11.2507" xlink:href="#n"/><radialGradient id="a1" cx="3955.2927" cy="4675.311" gradientTransform="matrix(0 1 -1 0 5224.5762 -3824.5764)" gradientUnits="userSpaceOnUse" r="5.6228" xlink:href="#n"/><radialGradient id="a2" cx="3880.6929" cy="4281.3076" gradientTransform="matrix(0 1 -1 0 5224.5762 -3824.5764)" gradientUnits="userSpaceOnUse" r="5.6228" xlink:href="#n"/><radialGradient id="a3" cx="3854.7346" cy="4681.8555" gradientTransform="matrix(0 1 -1 0 5224.5762 -3824.5764)" gradientUnits="userSpaceOnUse" r="11.2507" xlink:href="#n"/><radialGradient id="a4" cx="3946.0398" cy="4361.0039" gradientTransform="matrix(0 1 -1 0 5224.5762 -3824.5764)" gradientUnits="userSpaceOnUse" r="11.2507" xlink:href="#n"/><radialGradient id="a5" cx="3854.7346" cy="4840.1016" gradientTransform="matrix(0 1 -1 0 5224.5762 -3824.5764)" gradientUnits="userSpaceOnUse" r="7.1455" xlink:href="#n"/><radialGradient id="a6" cx="3934.7891" cy="4809.6094" gradientTransform="matrix(0 1 -1 0 5224.5762 -3824.5764)" gradientUnits="userSpaceOnUse" r="7.1455" xlink:href="#n"/><radialGradient id="a7" cx="3868.7151" cy="4929.8579" gradientTransform="matrix(0 1 -1 0 5224.5762 -3824.5764)" gradientUnits="userSpaceOnUse" r="11.2507" xlink:href="#n"/><radialGradient id="a8" cx="14299.684" cy="4106.2778" gradientTransform="matrix(0 .2895 -1 0 5224.5762 -4086.6375)" gradientUnits="userSpaceOnUse" r="29.7325" xlink:href="#n"/><radialGradient id="a9" cx="-14174.147" cy="4356.1484" gradientTransform="matrix(.2895 0 0 1 5221.3418 -4303.4033)" gradientUnits="userSpaceOnUse" r="29.7325" xlink:href="#n"/><radialGradient id="ba" cx="14469.968" cy="4512.0322" gradientTransform="matrix(0 .2895 -1 0 5224.5762 -4086.6375)" gradientUnits="userSpaceOnUse" r="19.241899" xlink:href="#n"/><radialGradient id="bb" cx="-15575.844" cy="4405.4414" gradientTransform="matrix(.2895 0 0 1 5221.3418 -4303.4033)" gradientUnits="userSpaceOnUse" r="19.241899" xlink:href="#n"/><radialGradient id="bc" cx="16783.117" cy="4155.2524" gradientTransform="matrix(0 .2895 -1 0 5224.5762 -4086.6375)" gradientUnits="userSpaceOnUse" r="19.241899" xlink:href="#n"/><radialGradient id="bd" cx="-14343.332" cy="5075.0371" gradientTransform="matrix(.2895 0 0 1 5221.3418 -4303.4033)" gradientUnits="userSpaceOnUse" r="19.241899" xlink:href="#n"/><radialGradient id="be" cx="15184.698" cy="4089.8687" gradientTransform="matrix(0 .2895 -1 0 5224.5762 -4086.6375)" gradientUnits="userSpaceOnUse" r="19.241899" xlink:href="#n"/><radialGradient id="bf" cx="-14117.461" cy="4612.3369" gradientTransform="matrix(.2895 0 0 1 5221.3418 -4303.4033)" gradientUnits="userSpaceOnUse" r="19.241899" xlink:href="#n"/><radialGradient id="bg" cx="14799.68" cy="4114.8848" gradientTransform="matrix(0 .2895 -1 0 5224.5762 -4086.6375)" gradientUnits="userSpaceOnUse" r="19.241899" xlink:href="#n"/><radialGradient id="bh" cx="-14203.88" cy="4500.8843" gradientTransform="matrix(.2895 0 0 1 5221.3418 -4303.4033)" gradientUnits="userSpaceOnUse" r="19.241899" xlink:href="#n"/><radialGradient id="bi" cx="4250.4473" cy="5175.2676" gradientTransform="matrix(0 -1 1 0 -5135.66355 5025.32025)" gradientUnits="userSpaceOnUse" r="11.2507" xlink:href="#n"/><radialGradient id="bj" cx="4903.7407" cy="5212.9341" gradientTransform="matrix(0 -1 1 0 -5135.66355 5025.32025)" gradientUnits="userSpaceOnUse" r="5.6228" xlink:href="#n"/><radialGradient id="bk" cx="4991.8784" cy="5262.8999" gradientTransform="matrix(0 -1 1 0 -5135.66355 5025.32025)" gradientUnits="userSpaceOnUse" r="5.6228" xlink:href="#n"/><radialGradient id="bl" cx="4163.4556" cy="5234.1792" gradientTransform="matrix(0 -1 1 0 -5135.66355 5025.32025)" gradientUnits="userSpaceOnUse" r="7.1455" xlink:href="#n"/><radialGradient id="bm" cx="4333.5586" cy="5224.1846" gradientTransform="matrix(0 -1 1 0 -5135.66355 5025.32025)" gradientUnits="userSpaceOnUse" r="11.2507" xlink:href="#n"/><radialGradient id="bn" cx="17436.146" cy="5226.5532" gradientTransform="matrix(0 -.2895 1 0 -5135.6636 5287.3813)" gradientUnits="userSpaceOnUse" r="19.241899" xlink:href="#n"/><radialGradient id="bo" cx="-18044.189" cy="5264.0723" gradientTransform="matrix(-.2895 0 0 -1 -5132.4292 5504.147)" gradientUnits="userSpaceOnUse" r="19.241899" xlink:href="#n"/><radialGradient id="bp" cx="4028.946" cy="5182.6704" gradientTransform="matrix(0 -1 1 0 -5135.66355 5025.32025)" gradientUnits="userSpaceOnUse" r="11.2507" xlink:href="#n"/><radialGradient id="bq" cx="3864.2109" cy="5212.9341" gradientTransform="matrix(0 -1 1 0 -5135.66355 5025.32025)" gradientUnits="userSpaceOnUse" r="5.6228" xlink:href="#n"/><radialGradient id="br" cx="3952.3484" cy="5262.8999" gradientTransform="matrix(0 -1 1 0 -5135.66355 5025.32025)" gradientUnits="userSpaceOnUse" r="5.6228" xlink:href="#n"/><radialGradient id="bs" cx="4358.6768" cy="4918.6069" gradientTransform="matrix(0 1 -1 0 5224.5762 -3824.5764)" gradientUnits="userSpaceOnUse" r="11.2507" xlink:href="#n"/><radialGradient id="bt" cx="5075.5581" cy="4804.9849" gradientTransform="matrix(0 1 -1 0 5224.5762 -3824.5764)" gradientUnits="userSpaceOnUse" r="11.2507" xlink:href="#n"/><radialGradient id="bu" cx="5064.3071" cy="4349.7529" gradientTransform="matrix(0 1 -1 0 5224.5762 -3824.5764)" gradientUnits="userSpaceOnUse" r="11.2507" xlink:href="#n"/><radialGradient id="bv" cx="5103.2256" cy="4509.8506" gradientTransform="matrix(0 1 -1 0 5224.5762 -3824.5764)" gradientUnits="userSpaceOnUse" r="11.2507" xlink:href="#n"/><radialGradient id="bw" cx="5192.5688" cy="4473.0386" gradientTransform="matrix(0 1 -1 0 5224.5762 -3824.5764)" gradientUnits="userSpaceOnUse" r="5.6228" xlink:href="#n"/><radialGradient id="bx" cx="5182.8633" cy="4725.9341" gradientTransform="matrix(0 1 -1 0 5224.5762 -3824.5764)" gradientUnits="userSpaceOnUse" r="11.2507" xlink:href="#n"/><radialGradient id="by" cx="5080.7241" cy="4686.5615" gradientTransform="matrix(0 1 -1 0 5224.5762 -3824.5764)" gradientUnits="userSpaceOnUse" r="11.2507" xlink:href="#n"/><radialGradient id="bz" cx="5158.7168" cy="4820.2441" gradientTransform="matrix(0 1 -1 0 5224.5762 -3824.5764)" gradientUnits="userSpaceOnUse" r="7.1455" xlink:href="#n"/><radialGradient id="bA" cx="5143.9321" cy="5055.4385" gradientTransform="matrix(0 1 -1 0 5224.5762 -3824.5764)" gradientUnits="userSpaceOnUse" r="11.2507" xlink:href="#n"/><radialGradient id="bB" cx="5073.1938" cy="4242.5928" gradientTransform="matrix(0 1 -1 0 5224.5762 -3824.5764)" gradientUnits="userSpaceOnUse" r="11.2507" xlink:href="#n"/><radialGradient id="bC" cx="18862.688" cy="4376.7666" gradientTransform="matrix(0 .2895 -1 0 5224.5762 -4086.6375)" gradientUnits="userSpaceOnUse" r="29.7325" xlink:href="#n"/><radialGradient id="bD" cx="-15108.562" cy="5677.0186" gradientTransform="matrix(.2895 0 0 1 5221.3418 -4303.4033)" gradientUnits="userSpaceOnUse" r="29.7325" xlink:href="#n"/><radialGradient id="bE" cx="18223.164" cy="4902.7319" gradientTransform="matrix(0 .2895 -1 0 5224.5762 -4086.6375)" gradientUnits="userSpaceOnUse" r="19.241899" xlink:href="#n"/><radialGradient id="bF" cx="-16925.533" cy="5491.8931" gradientTransform="matrix(.2895 0 0 1 5221.3418 -4303.4033)" gradientUnits="userSpaceOnUse" r="19.241899" xlink:href="#n"/><radialGradient id="bG" cx="18874.334" cy="4574.7783" gradientTransform="matrix(0 .2895 -1 0 5224.5762 -4086.6375)" gradientUnits="userSpaceOnUse" r="19.241899" xlink:href="#n"/><radialGradient id="bH" cx="-15792.604" cy="5680.3896" gradientTransform="matrix(.2895 0 0 1 5221.3418 -4303.4033)" gradientUnits="userSpaceOnUse" r="19.241899" xlink:href="#n"/><radialGradient id="bI" cx="4169.5386" cy="3879.4983" gradientTransform="matrix(0 1 -1 0 5224.5762 -3824.5764)" gradientUnits="userSpaceOnUse" r="11.2507" xlink:href="#n"/><radialGradient id="bJ" cx="4024.0554" cy="3951.8164" gradientTransform="matrix(0 1 -1 0 5224.5762 -3824.5764)" gradientUnits="userSpaceOnUse" r="11.2507" xlink:href="#n"/><radialGradient id="bK" cx="4756.5977" cy="3890.749" gradientTransform="matrix(0 1 -1 0 5224.5762 -3824.5764)" gradientUnits="userSpaceOnUse" r="5.6228" xlink:href="#n"/><radialGradient id="bL" cx="4625.9868" cy="3860.8828" gradientTransform="matrix(0 1 -1 0 5224.5762 -3824.5764)" gradientUnits="userSpaceOnUse" r="5.6228" xlink:href="#n"/><radialGradient id="bM" cx="4664.439" cy="3976.0093" gradientTransform="matrix(0 1 -1 0 5224.5762 -3824.5764)" gradientUnits="userSpaceOnUse" r="11.2507" xlink:href="#n"/><radialGradient id="bN" cx="4894.2646" cy="3962.3374" gradientTransform="matrix(0 1 -1 0 5224.5762 -3824.5764)" gradientUnits="userSpaceOnUse" r="11.2507" xlink:href="#n"/><radialGradient id="bO" cx="4371.5723" cy="4006.416" gradientTransform="matrix(0 1 -1 0 5224.5762 -3824.5764)" gradientUnits="userSpaceOnUse" r="11.2507" xlink:href="#n"/><radialGradient id="bP" cx="4510.9111" cy="4024.2048" gradientTransform="matrix(0 1 -1 0 5224.5762 -3824.5764)" gradientUnits="userSpaceOnUse" r="11.2507" xlink:href="#n"/><radialGradient id="bQ" cx="4269.4331" cy="3967.0435" gradientTransform="matrix(0 1 -1 0 5224.5762 -3824.5764)" gradientUnits="userSpaceOnUse" r="11.2507" xlink:href="#n"/><radialGradient id="bR" cx="4484.8335" cy="3944.6709" gradientTransform="matrix(0 1 -1 0 5224.5762 -3824.5764)" gradientUnits="userSpaceOnUse" r="7.1455" xlink:href="#n"/><radialGradient id="bS" cx="4613.2183" cy="3920.979" gradientTransform="matrix(0 1 -1 0 5224.5762 -3824.5764)" gradientUnits="userSpaceOnUse" r="7.1455" xlink:href="#n"/><radialGradient id="bT" cx="4533.5781" cy="3873.6511" gradientTransform="matrix(0 1 -1 0 5224.5762 -3824.5764)" gradientUnits="userSpaceOnUse" r="7.1455" xlink:href="#n"/><radialGradient id="bU" cx="17559.291" cy="3956.7673" gradientTransform="matrix(0 .2895 -1 0 5224.5762 -4086.6375)" gradientUnits="userSpaceOnUse" r="19.241899" xlink:href="#n"/><radialGradient id="bV" cx="-13657.657" cy="5299.7192" gradientTransform="matrix(.2895 0 0 1 5221.3418 -4303.4033)" gradientUnits="userSpaceOnUse" r="19.241899" xlink:href="#n"/><radialGradient id="bW" cx="16071.692" cy="3855.26" gradientTransform="matrix(0 .2895 -1 0 5224.5762 -4086.6375)" gradientUnits="userSpaceOnUse" r="19.241899" xlink:href="#n"/><radialGradient id="bX" cx="-13306.996" cy="4869.0986" gradientTransform="matrix(.2895 0 0 1 5221.3418 -4303.4033)" gradientUnits="userSpaceOnUse" r="19.241899" xlink:href="#n"/><radialGradient id="bY" cx="15143.32" cy="3963.0671" gradientTransform="matrix(0 .2895 -1 0 5224.5762 -4086.6375)" gradientUnits="userSpaceOnUse" r="19.241899" xlink:href="#n"/><radialGradient id="bZ" cx="-13679.42" cy="4600.3594" gradientTransform="matrix(.2895 0 0 1 5221.3418 -4303.4033)" gradientUnits="userSpaceOnUse" r="19.241899" xlink:href="#n"/><radialGradient id="b0" cx="3955.2927" cy="3955.7927" gradientTransform="matrix(0 1 -1 0 5224.5762 -3824.5764)" gradientUnits="userSpaceOnUse" r="5.6228" xlink:href="#n"/><radialGradient id="b1" cx="3854.7346" cy="3962.3374" gradientTransform="matrix(0 1 -1 0 5224.5762 -3824.5764)" gradientUnits="userSpaceOnUse" r="11.2507" xlink:href="#n"/><radialGradient id="b2" cx="3769.2778" cy="5166.0146" gradientTransform="matrix(0 -1 1 0 -5135.66355 5025.32025)" gradientUnits="userSpaceOnUse" r="11.2507" xlink:href="#n"/><radialGradient id="b3" cx="3744.1997" cy="5294.7905" gradientTransform="matrix(0 -1 1 0 -5135.66355 5025.32025)" gradientUnits="userSpaceOnUse" r="5.6228" xlink:href="#n"/><radialGradient id="b4" cx="3708.5862" cy="5201.6836" gradientTransform="matrix(0 -1 1 0 -5135.66355 5025.32025)" gradientUnits="userSpaceOnUse" r="11.2507" xlink:href="#n"/><radialGradient id="b5" cx="3627.8457" cy="5177.2656" gradientTransform="matrix(0 -1 1 0 -5135.66355 5025.32025)" gradientUnits="userSpaceOnUse" r="11.2507" xlink:href="#n"/><radialGradient id="b6" cx="5169.9678" cy="4918.6069" gradientTransform="matrix(0 1 -1 0 5224.5762 -3824.5764)" gradientUnits="userSpaceOnUse" r="11.2507" xlink:href="#n"/><g stroke-width="1.23048"><g opacity=".8" transform="matrix(0 .3651234 -.35973811 0 506.79904 -6.973864)"><circle cx="946.90002" cy="776.5" fill="url(#m)" opacity=".5" r="11.3"/><circle cx="828.79999" cy="869.79999" fill="url(#o)" opacity=".5" r="11.3"/><circle cx="339.10001" cy="1021.2" fill="url(#p)" opacity=".5" r="11.3"/><circle cx="1023.5" cy="1172.2" fill="url(#q)" opacity=".5" r="11.3"/><circle cx="419.60001" cy="439.70001" fill="url(#r)" opacity=".5" r="11.3"/><circle cx="874.79999" cy="428.39999" fill="url(#s)" opacity=".5" r="11.3"/><circle cx="714.70001" cy="467.39999" fill="url(#t)" opacity=".5" r="11.3"/><circle cx="1030.9" cy="354.20001" fill="url(#u)" opacity=".5" r="11.3"/><circle cx="1040.2" cy="684.29999" fill="url(#v)" opacity=".5" r="11.3"/><circle cx="625.59998" cy="345" fill="url(#w)" opacity=".5" r="11.3"/><circle cx="553.20001" cy="199.5" fill="url(#x)" opacity=".5" r="11.3"/><circle cx="751.5" cy="556.70001" fill="url(#y)" opacity=".5" r="5.6"/><circle cx="777.40002" cy="382.79999" fill="url(#z)" opacity=".5" r="5.6"/><circle cx="420.60001" cy="331.5" fill="url(#A)" opacity=".5" r="5.6"/><circle cx="206.5" cy="377.10001" fill="url(#B)" opacity=".5" r="5.6"/><circle cx="614.29999" cy="932" fill="url(#C)" opacity=".5" r="5.6"/><circle cx="726.20001" cy="900.29999" fill="url(#D)" opacity=".5" r="5.6"/><circle cx="308" cy="931" fill="url(#E)" opacity=".5" r="5.6"/><circle cx="818.09998" cy="990.70001" fill="url(#F)" opacity=".5" r="5.6"/><circle cx="695.79999" cy="1015.6" fill="url(#G)" opacity=".5" r="5.6"/><circle cx="549.29999" cy="1170.2" fill="url(#H)" opacity=".5" r="5.6"/><circle cx="644.20001" cy="801.40002" fill="url(#I)" opacity=".5" r="5.6"/><circle cx="993.20001" cy="1007.5" fill="url(#J)" opacity=".5" r="5.6"/><circle cx="943.29999" cy="1095.6" fill="url(#K)" opacity=".5" r="5.6"/><circle cx="911.40002" cy="659.29999" fill="url(#L)" opacity=".5" r="5.6"/><circle cx="529" cy="839.90002" fill="url(#M)" opacity=".5" r="11.3"/><circle cx="542.70001" cy="1069.7" fill="url(#N)" opacity=".5" r="11.3"/><circle cx="863.59998" cy="1161" fill="url(#O)" opacity=".5" r="11.3"/><circle cx="1134.7" cy="889" fill="url(#P)" opacity=".5" r="11.3"/><circle cx="419.60001" cy="933" fill="url(#Q)" opacity=".5" r="11.3"/><circle cx="208.5" cy="608.79999" fill="url(#R)" opacity=".5" r="11.3"/><circle cx="498.60001" cy="547" fill="url(#S)" opacity=".5" r="11.3"/><circle cx="480.89999" cy="686.29999" fill="url(#T)" opacity=".5" r="11.3"/><circle cx="538" cy="444.89999" fill="url(#U)" opacity=".5" r="11.3"/><circle cx="341.10001" cy="248" fill="url(#V)" opacity=".5" r="11.3"/><circle cx="560.40002" cy="660.29999" fill="url(#W)" opacity=".5" r="7.1"/><circle cx="584.09998" cy="788.59998" fill="url(#X)" opacity=".5" r="7.1"/><circle cx="972" cy="267.20001" fill="url(#Y)" opacity=".5" r="7.1"/><circle cx="360.60001" cy="841.90002" fill="url(#Z)" opacity=".5" r="7.1"/><circle cx="384.5" cy="1069.7" fill="url(#aa)" opacity=".5" r="7.1"/><circle cx="415" cy="1149.7" fill="url(#ab)" opacity=".5" r="7.1"/><circle cx="226.89999" cy="764.59998" fill="url(#ac)" opacity=".5" r="7.1"/><circle cx="704.79999" cy="240.89999" fill="url(#ad)" opacity=".5" r="7.1"/><circle cx="404.29999" cy="522.79999" fill="url(#ae)" opacity=".5" r="7.1"/><circle cx="631.40002" cy="709" fill="url(#af)" opacity=".5" r="7.1"/><circle cx="1004.5" cy="623.59998" fill="url(#ag)" opacity=".5" r="11.3"/><circle cx="294.70001" cy="1083.7" fill="url(#ah)" opacity=".5" r="11.3"/><circle cx="210.5" cy="1163" fill="url(#ai)" opacity=".5" r="11.3"/><circle cx="411.5" cy="167" fill="url(#aj)" opacity=".5" r="11.3"/><circle cx="165.10001" cy="203.10001" fill="url(#ak)" opacity=".5" r="11.3"/><circle cx="872.79999" cy="188.2" fill="url(#al)" opacity=".5" r="11.3"/><circle cx="197.3" cy="858.5" fill="url(#am)" opacity=".5" r="11.3"/><circle cx="1028.9" cy="542.90002" fill="url(#an)" opacity=".5" r="11.3"/><circle cx="1134.7" cy="701.90002" fill="url(#ao)" opacity=".5" r="11.3"/><circle cx="982" cy="437.29999" fill="url(#ap)" opacity=".5" r="11.3"/><ellipse cx="707" cy="728.20001" fill="url(#aq)" rx="19.200001" ry="5.6"/><ellipse cx="707" cy="728.20001" fill="url(#ar)" rx="5.6" ry="19.200001"/><ellipse cx="324" cy="638.5" fill="url(#as)" rx="29.700001" ry="8.6"/><ellipse cx="324" cy="638.5" fill="url(#at)" rx="8.6" ry="29.700001"/><ellipse cx="195.3" cy="989.70001" fill="url(#au)" rx="29.700001" ry="8.6"/><ellipse cx="195.3" cy="989.70001" fill="url(#av)" rx="8.6" ry="29.700001"/><ellipse cx="249.5" cy="300.29999" fill="url(#aw)" rx="29.700001" ry="8.6"/><ellipse cx="249.5" cy="300.29999" fill="url(#ax)" rx="8.6" ry="29.700001"/><ellipse cx="844.40002" cy="773.20001" fill="url(#ay)" rx="29.700001" ry="8.6"/><ellipse cx="844.40002" cy="773.20001" fill="url(#az)" rx="8.6" ry="29.700001"/><ellipse cx="839.20001" cy="270.60001" fill="url(#aA)" rx="29.700001" ry="8.6"/><ellipse cx="839.20001" cy="270.60001" fill="url(#aB)" rx="8.6" ry="29.700001"/><ellipse cx="847.79999" cy="562.29999" fill="url(#aC)" rx="29.700001" ry="8.6"/><ellipse cx="847.79999" cy="562.29999" fill="url(#aD)" rx="8.6" ry="29.700001"/><ellipse cx="1143.3" cy="506.20001" fill="url(#aE)" rx="29.700001" ry="8.6"/><ellipse cx="1143.3" cy="506.20001" fill="url(#aF)" rx="8.6" ry="29.700001"/><ellipse cx="1118.3" cy="1092.3" fill="url(#aG)" rx="29.700001" ry="8.6"/><ellipse cx="1118.3" cy="1092.3" fill="url(#aH)" rx="8.6" ry="29.700001"/><ellipse cx="321.79999" cy="377.20001" fill="url(#aI)" rx="19.200001" ry="5.6"/><ellipse cx="321.79999" cy="377.20001" fill="url(#aJ)" rx="5.6" ry="19.200001"/><ellipse cx="548.29999" cy="996.29999" fill="url(#aK)" rx="19.200001" ry="5.6"/><ellipse cx="548.29999" cy="996.29999" fill="url(#aL)" rx="5.6" ry="19.200001"/><ellipse cx="450.10001" cy="795.79999" fill="url(#aM)" rx="19.200001" ry="5.6"/><ellipse cx="450.10001" cy="795.79999" fill="url(#aN)" rx="5.6" ry="19.200001"/><ellipse cx="649.79999" cy="565.70001" fill="url(#aO)" rx="19.200001" ry="5.6"/><ellipse cx="649.79999" cy="565.70001" fill="url(#aP)" rx="5.6" ry="19.200001"/><ellipse cx="353.5" cy="747.5" fill="url(#aQ)" rx="19.200001" ry="5.6"/><ellipse cx="353.5" cy="747.5" fill="url(#aR)" rx="5.6" ry="19.200001"/><ellipse cx="712.5" cy="1141.6" fill="url(#aS)" rx="19.200001" ry="5.6"/><ellipse cx="712.5" cy="1141.6" fill="url(#aT)" rx="5.6" ry="19.200001"/><ellipse cx="979.59998" cy="889" fill="url(#aU)" rx="19.200001" ry="5.6"/><ellipse cx="979.59998" cy="889" fill="url(#aV)" rx="5.6" ry="19.200001"/><ellipse cx="542" cy="297" fill="url(#aW)" rx="19.200001" ry="5.6"/><ellipse cx="542" cy="297" fill="url(#aX)" rx="5.6" ry="19.200001"/><ellipse cx="856.40002" cy="1023.2" fill="url(#aY)" rx="19.200001" ry="5.6"/><ellipse cx="856.40002" cy="1023.2" fill="url(#aZ)" rx="5.6" ry="19.200001"/><circle cx="1023.5" cy="132.7" fill="url(#a0)" opacity=".5" r="11.3"/><circle cx="549.29999" cy="130.7" fill="url(#a1)" opacity=".5" r="5.6"/><circle cx="943.29999" cy="56.099998" fill="url(#a2)" opacity=".5" r="5.6"/><circle cx="542.70001" cy="30.200001" fill="url(#a3)" opacity=".5" r="11.3"/><circle cx="863.59998" cy="121.5" fill="url(#a4)" opacity=".5" r="11.3"/><circle cx="384.5" cy="30.200001" fill="url(#a5)" opacity=".5" r="7.1"/><circle cx="415" cy="110.2" fill="url(#a6)" opacity=".5" r="7.1"/><circle cx="294.70001" cy="44.099998" fill="url(#a7)" opacity=".5" r="11.3"/><ellipse cx="1118.3" cy="52.700001" fill="url(#a8)" rx="29.700001" ry="8.6"/><ellipse cx="1118.3" cy="52.700001" fill="url(#a9)" rx="8.6" ry="29.700001"/><ellipse cx="712.5" cy="102" fill="url(#ba)" rx="19.200001" ry="5.6"/><ellipse cx="712.5" cy="102" fill="url(#bb)" rx="5.6" ry="19.200001"/><ellipse cx="1069.3" cy="771.59998" fill="url(#bc)" rx="19.200001" ry="5.6"/><ellipse cx="1069.3" cy="771.59998" fill="url(#bd)" rx="5.6" ry="19.200001"/><ellipse cx="1134.7" cy="308.89999" fill="url(#be)" rx="19.200001" ry="5.6"/><ellipse cx="1134.7" cy="308.89999" fill="url(#bf)" rx="5.6" ry="19.200001"/><ellipse cx="1109.7" cy="197.5" fill="url(#bg)" rx="19.200001" ry="5.6"/><ellipse cx="1109.7" cy="197.5" fill="url(#bh)" rx="5.6" ry="19.200001"/><circle cx="39.599998" cy="774.90002" fill="url(#bi)" opacity=".5" r="11.3"/><circle cx="77.300003" cy="121.6" fill="url(#bj)" opacity=".5" r="5.6"/><circle cx="127.2" cy="33.400002" fill="url(#bk)" opacity=".5" r="5.6"/><circle cx="98.5" cy="861.90002" fill="url(#bl)" opacity=".5" r="7.1"/><circle cx="88.5" cy="691.79999" fill="url(#bm)" opacity=".5" r="11.3"/><ellipse cx="90.900002" cy="240.10001" fill="url(#bn)" rx="19.200001" ry="5.6"/><ellipse cx="90.900002" cy="240.10001" fill="url(#bo)" rx="5.6" ry="19.200001"/><circle cx="47" cy="996.40002" fill="url(#bp)" opacity=".5" r="11.3"/><circle cx="77.300003" cy="1161.1" fill="url(#bq)" opacity=".5" r="5.6"/><circle cx="127.2" cy="1073" fill="url(#br)" opacity=".5" r="5.6"/><circle cx="306" cy="534.09998" fill="url(#bs)" opacity=".5" r="11.3"/><circle cx="419.60001" cy="1251" fill="url(#bt)" opacity=".5" r="11.3"/><circle cx="874.79999" cy="1239.7" fill="url(#bu)" opacity=".5" r="11.3"/><circle cx="714.70001" cy="1278.6" fill="url(#bv)" opacity=".5" r="11.3"/><circle cx="751.5" cy="1368" fill="url(#bw)" opacity=".5" r="5.6"/><circle cx="498.60001" cy="1358.3" fill="url(#bx)" opacity=".5" r="11.3"/><circle cx="538" cy="1256.1" fill="url(#by)" opacity=".5" r="11.3"/><circle cx="404.29999" cy="1334.1" fill="url(#bz)" opacity=".5" r="7.1"/><circle cx="169.10001" cy="1319.4" fill="url(#bA)" opacity=".5" r="11.3"/><circle cx="982" cy="1248.6" fill="url(#bB)" opacity=".5" r="11.3"/><ellipse cx="847.79999" cy="1373.6" fill="url(#bC)" rx="29.700001" ry="8.6"/><ellipse cx="847.79999" cy="1373.6" fill="url(#bD)" rx="8.6" ry="29.700001"/><ellipse cx="321.79999" cy="1188.5" fill="url(#bE)" rx="19.200001" ry="5.6"/><ellipse cx="321.79999" cy="1188.5" fill="url(#bF)" rx="5.6" ry="19.200001"/><ellipse cx="649.79999" cy="1377" fill="url(#bG)" rx="19.200001" ry="5.6"/><ellipse cx="649.79999" cy="1377" fill="url(#bH)" rx="5.6" ry="19.200001"/><circle cx="1345.1" cy="345" fill="url(#bI)" opacity=".5" r="11.3"/><circle cx="1272.8" cy="199.5" fill="url(#bJ)" opacity=".5" r="11.3"/><circle cx="1333.8" cy="932" fill="url(#bK)" opacity=".5" r="5.6"/><circle cx="1363.7" cy="801.40002" fill="url(#bL)" opacity=".5" r="5.6"/><circle cx="1248.6" cy="839.90002" fill="url(#bM)" opacity=".5" r="11.3"/><circle cx="1262.2" cy="1069.7" fill="url(#bN)" opacity=".5" r="11.3"/><circle cx="1218.2" cy="547" fill="url(#bO)" opacity=".5" r="11.3"/><circle cx="1200.4" cy="686.29999" fill="url(#bP)" opacity=".5" r="11.3"/><circle cx="1257.5" cy="444.89999" fill="url(#bQ)" opacity=".5" r="11.3"/><circle cx="1279.9" cy="660.29999" fill="url(#bR)" opacity=".5" r="7.1"/><circle cx="1303.6" cy="788.59998" fill="url(#bS)" opacity=".5" r="7.1"/><circle cx="1350.9" cy="709" fill="url(#bT)" opacity=".5" r="7.1"/><ellipse cx="1267.8" cy="996.29999" fill="url(#bU)" rx="19.200001" ry="5.6"/><ellipse cx="1267.8" cy="996.29999" fill="url(#bV)" rx="5.6" ry="19.200001"/><ellipse cx="1369.3" cy="565.70001" fill="url(#bW)" rx="19.200001" ry="5.6"/><ellipse cx="1369.3" cy="565.70001" fill="url(#bX)" rx="5.6" ry="19.200001"/><ellipse cx="1261.5" cy="297" fill="url(#bY)" rx="19.200001" ry="5.6"/><ellipse cx="1261.5" cy="297" fill="url(#bZ)" rx="5.6" ry="19.200001"/><circle cx="1268.8" cy="130.7" fill="url(#b0)" opacity=".5" r="5.6"/><circle cx="1262.2" cy="30.200001" fill="url(#b1)" opacity=".5" r="11.3"/><circle cx="30.4" cy="1256" fill="url(#b2)" opacity=".5" r="11.3"/><circle cx="159.10001" cy="1281.1" fill="url(#b3)" opacity=".5" r="5.6"/><circle cx="66" cy="1316.7" fill="url(#b4)" opacity=".5" r="11.3"/><circle cx="41.599998" cy="1397.5" fill="url(#b5)" opacity=".5" r="11.3"/><circle cx="306" cy="1345.4" fill="url(#b6)" opacity=".5" r="11.3"/><g fill="#fff"><circle cx="946.90002" cy="776.5" r="2"/><circle cx="828.79999" cy="869.79999" r="2"/><circle cx="339.10001" cy="1021.2" r="2"/><circle cx="1023.5" cy="1172.2" r="2"/><circle cx="419.60001" cy="439.70001" r="2"/><circle cx="874.79999" cy="428.39999" r="2"/><circle cx="714.70001" cy="467.39999" r="2"/><circle cx="1030.9" cy="354.20001" r="2"/><circle cx="1040.2" cy="684.29999" r="2"/><circle cx="625.59998" cy="345" r="2"/><circle cx="553.20001" cy="199.5" r="2"/><circle cx="751.5" cy="556.70001" r="1"/><circle cx="777.40002" cy="382.79999" r="1"/><circle cx="420.60001" cy="331.5" r="1"/><circle cx="206.5" cy="377.10001" r="1"/><circle cx="614.29999" cy="932" r="1"/><circle cx="726.20001" cy="900.29999" r="1"/><circle cx="308" cy="931" r="1"/><circle cx="818.09998" cy="990.70001" r="1"/><circle cx="695.79999" cy="1015.6" r="1"/><circle cx="549.29999" cy="1170.2" r="1"/><circle cx="644.20001" cy="801.40002" r="1"/><circle cx="993.20001" cy="1007.5" r="1"/><circle cx="943.29999" cy="1095.6" r="1"/><circle cx="911.40002" cy="659.29999" r="1"/><circle cx="529" cy="839.90002" r="2"/><circle cx="542.70001" cy="1069.7" r="2"/><circle cx="863.59998" cy="1161" r="2"/><circle cx="1134.7" cy="889" r="2"/><circle cx="419.60001" cy="933" r="2"/><circle cx="208.5" cy="608.79999" r="2"/><circle cx="498.60001" cy="547" r="2"/><circle cx="480.89999" cy="686.29999" r="2"/><circle cx="538" cy="444.89999" r="2"/><circle cx="341.10001" cy="248" r="2"/><circle cx="560.40002" cy="660.29999" r="1.3"/><circle cx="584.09998" cy="788.59998" r="1.3"/><circle cx="972" cy="267.20001" r="1.3"/><circle cx="360.60001" cy="841.90002" r="1.3"/><circle cx="384.5" cy="1069.7" r="1.3"/><circle cx="415" cy="1149.7" r="1.3"/><circle cx="226.89999" cy="764.59998" r="1.3"/><circle cx="704.79999" cy="240.89999" r="1.3"/><circle cx="404.29999" cy="522.79999" r="1.3"/><circle cx="631.40002" cy="709" r="1.3"/><circle cx="1004.5" cy="623.59998" r="2"/><circle cx="294.70001" cy="1083.7" r="2"/><circle cx="210.5" cy="1163" r="2"/><circle cx="411.5" cy="167" r="2"/><circle cx="165.10001" cy="203.10001" r="2"/><circle cx="872.79999" cy="188.2" r="2"/><circle cx="197.3" cy="858.5" r="2"/><circle cx="1028.9" cy="542.90002" r="2"/><circle cx="1134.7" cy="701.90002" r="2"/><circle cx="982" cy="437.29999" r="2"/><circle cx="707" cy="728.20001" r="2.2"/><circle cx="324" cy="638.5" r="3.4"/><circle cx="195.3" cy="989.70001" r="3.4"/><circle cx="249.5" cy="300.29999" r="3.4"/><circle cx="844.40002" cy="773.20001" r="3.4"/><circle cx="839.20001" cy="270.60001" r="3.4"/><circle cx="847.79999" cy="562.29999" r="3.4"/><circle cx="1143.3" cy="506.20001" r="3.4"/><circle cx="1118.3" cy="1092.3" r="3.4"/><circle cx="321.79999" cy="377.20001" r="2.2"/><circle cx="548.29999" cy="996.29999" r="2.2"/><circle cx="450.10001" cy="795.79999" r="2.2"/><circle cx="649.79999" cy="565.70001" r="2.2"/><circle cx="353.5" cy="747.5" r="2.2"/><circle cx="712.5" cy="1141.6" r="2.2"/><circle cx="979.59998" cy="889" r="2.2"/><circle cx="542" cy="297" r="2.2"/><circle cx="856.40002" cy="1023.2" r="2.2"/><circle cx="1023.5" cy="132.7" r="2"/><circle cx="549.29999" cy="130.7" r="1"/><circle cx="943.29999" cy="56.099998" r="1"/><circle cx="542.70001" cy="30.200001" r="2"/><circle cx="863.59998" cy="121.5" r="2"/><circle cx="384.5" cy="30.200001" r="1.3"/><circle cx="415" cy="110.2" r="1.3"/><circle cx="294.70001" cy="44.099998" r="2"/><circle cx="1118.3" cy="52.700001" r="3.4"/><circle cx="712.5" cy="102" r="2.2"/><circle cx="1069.3" cy="771.59998" r="2.2"/><circle cx="1134.7" cy="308.89999" r="2.2"/><circle cx="1109.7" cy="197.5" r="2.2"/><circle cx="39.599998" cy="774.90002" r="2"/><circle cx="77.300003" cy="121.6" r="1"/><circle cx="127.2" cy="33.400002" r="1"/><circle cx="98.5" cy="861.90002" r="1.3"/><circle cx="88.5" cy="691.79999" r="2"/><circle cx="90.900002" cy="240.10001" r="2.2"/><circle cx="47" cy="996.40002" r="2"/><circle cx="77.300003" cy="1161.1" r="1"/><circle cx="127.2" cy="1073" r="1"/><circle cx="306" cy="534.09998" r="2"/><circle cx="419.60001" cy="1251" r="2"/><circle cx="874.79999" cy="1239.7" r="2"/><circle cx="714.70001" cy="1278.6" r="2"/><circle cx="751.5" cy="1368" r="1"/><circle cx="498.60001" cy="1358.3" r="2"/><circle cx="538" cy="1256.1" r="2"/><circle cx="404.29999" cy="1334.1" r="1.3"/><circle cx="169.10001" cy="1319.4" r="2"/><circle cx="982" cy="1248.6" r="2"/><circle cx="847.79999" cy="1373.6" r="3.4"/><circle cx="321.79999" cy="1188.5" r="2.2"/><circle cx="649.79999" cy="1377" r="2.2"/><circle cx="1345.1" cy="345" r="2"/><circle cx="1272.8" cy="199.5" r="2"/><circle cx="1333.8" cy="932" r="1"/><circle cx="1363.7" cy="801.40002" r="1"/><circle cx="1248.6" cy="839.90002" r="2"/><circle cx="1262.2" cy="1069.7" r="2"/><circle cx="1218.2" cy="547" r="2"/><circle cx="1200.4" cy="686.29999" r="2"/><circle cx="1257.5" cy="444.89999" r="2"/><circle cx="1279.9" cy="660.29999" r="1.3"/><circle cx="1303.6" cy="788.59998" r="1.3"/><circle cx="1350.9" cy="709" r="1.3"/><circle cx="1267.8" cy="996.29999" r="2.2"/><circle cx="1369.3" cy="565.70001" r="2.2"/><circle cx="1261.5" cy="297" r="2.2"/><circle cx="1268.8" cy="130.7" r="1"/><circle cx="1262.2" cy="30.200001" r="2"/><circle cx="30.4" cy="1256" r="2"/><circle cx="159.10001" cy="1281.1" r="1"/><circle cx="66" cy="1316.7" r="2"/><circle cx="41.599998" cy="1397.5" r="2"/><circle cx="306" cy="1345.4" r="2"/></g></g><g transform="matrix(.75476479 -.30133564 .30133564 .75476479 -15.93886 120.44158)"><g stroke-width="1.23048" transform="matrix(1 0 0 -1 0 509.44724)"><use xlink:href="#b9"/><use xlink:href="#b8"/><use xlink:href="#b7"/><use transform="matrix(-1 0 0 1 500.28708 1.536979)" xlink:href="#ca"/><use xlink:href="#cb"/></g><circle cx="249.99373" cy="254.72363" fill="#f9f06b" filter="url(#k)" r="75"/><g stroke-width="1.23048"><path id="b7" d="m85.750977 157.69531c-4.957947-2.59409-10.142748-4.15243-15.637696-4.15429l-.0098-.002.000035.00004c-8.244374 0-16.553294 4.24822-21.326172 10.11133-4.772879 5.86311-6.699044 12.7078-6.826169 19.54589l-.002 157.86622c0 19.2713 9.450951 35.63879 26.136718 45.27539l146.931687 84.84961c8.34444 4.81833 20.09945 7.07707 30.16015 1.26953s13.98243-17.11588 13.98243-26.75195v-157.70117c0-19.27106-9.45501-35.63744-26.13672-45.27344z" fill="url(#d)" opacity=".75" stroke-width="4.65061"/><g filter="url(#j)" opacity=".75" stroke-width="1.23048"><path d="m69.611328 171.59375c-1.451716.0696-2.768168.41431-3.923828 1.01953l1.261719 4.50586 52.238281 99.53125-52.238281-72.81836-7-7 7 16.32422 50.404301 73.02344 6.46484 6.46484-1.68555 2.20508c7.72696.6897 24.28479 10.44606 35.42188 17.46484 10.19794 6.42692 20.69529 14.12704 28.42187 22.36133l-28.42187-70.00586-7-7-3.03907 3.97461c-3.77876-20.40503-8.05442-42.324-10.15234-53.36719l-7.33594-4.23632c1.07155 11.43665 1.2799 34.6835 5.62305 58.20507.18288.99279 5.08143 4.61558 6.56641 6.33203l-5.10157 6.67188-33.52929-86.47852-8.160159-4.71289 30.025389 87.36133zm81.111332 44.39648-3.59375 31.24024 4.91015-.82813 1.94141 4.78516 7 7 .44726-36.01367zm19.125 11.23047-9.29297 40.16211 5.06836 12.48242 7 7 12.44336-51.04101-14.82032-8.5586zm-102.898441 14.2793-7 .96875 58.792971 58.05469 3.47265-4.54492-7-7zm136.789061 5.10547-33.0625 45.70117 3.99414 9.8418 2.73242 2.73242-1.08203.625 3.38281 9.03711 1.39258 1.39258-.79101.0879 3.44922 8.5 7 7 50.40625-12.04883v-10.21875l-42.83204 4.76367 42.69922-27.63867c-.32616-5.12198-2.09835-10.55357-4.93554-15.42383l-45.64844 26.38477 30.37305-40.87305zm-136.789061 19.78125-7 .51758 53.679691 40.30859 3.71875-4.86523-7-7zm60.898441 9.3164 5.05664 5.05665-1.28711 1.68359zm-3.56055 8.05665 3.58398 3.58398-.52343.68359zm-64.337891 4.88085v7.76172l46.130861 19.44922-3.93164 5.14258-6.464846-6.46484-35.734375.48828v8.4043l36.488281 5.04492-10.152344 13.27929 7 7 128.539064 74.22852-28.37695-59.78516c.79381-1.01027 1.21484-2.23784 1.21484-3.65234 0-4.07661-3.26685-10.49851-9.97852-18.02734-3.48449-3.90877-14.77567-14.94634-19.59375-18.79297 1.52278 3.64379 9.40235 14.37875 9.40235 17.81836 0 10.13973-7.62379 14.0366-16.9375 8.6582-9.3137-5.37841-16.9375-18.08097-16.9375-28.2207 0-3.44002 2.40234-8.04297 2.40234-8.04297s-3.89355-5.88695-7-7c-4.13951-1.48321-9.78792-1.5757-13.12891 1.2832-2.47658 2.11922-2.44335 5.39018-2.44335 9.4668 0 4.07703 3.26686 10.4981 9.97851 18.02734 6.71166 7.52925 16.39901 15.54011 27.12891 21.73633 10.72989 6.19621 20.41726 9.37336 27.1289 9.5957 3.53583.11714 6.0887-.57837 7.73829-1.84375-1.0011 4.1361.16604 10.44691-4.67383 10.28711-7.95921-.26429-18.53762-3.8492-30.19336-10.58008-11.65574-6.73086-22.23493-15.36331-30.19336-24.29101-5.60575-6.28882-7.3147-10.90935-11.23828-16.17188-2.3797-3.19177-6.85133-8.62024-7.60743-9.53711l2.57618-3.37304-7-7zm87.294921 26.95704c-1.04205.0564-2.03092.37858-2.91797 1.08203-3.16984 2.51377-1.54819 8.401 0 12.13867 1.26279 3.04865 7 7 7 7s-.52314-2.65755-.52734-3.87109c-.00001-6.42979 4.78933-8.87734 10.69531-5.4668 1.72706 1.00031 3.42618 2.44183 4.95508 4.19922-1.69258-4.42364-5.45779-8.85561-9.76367-11.40625-2.71629-1.60904-6.31525-3.84497-9.44141-3.67578zm-63.607421 14.68945-23.6875 8.27344v2.50195c0 2.46885.427684 5.04057 1.121093 7.60742l22.267579-1.83203zm109.257811 6.50586-3.57031 1.44922 7.04297 7.10742 44.79297 7.58008v-7.96875zm4.86719 11.99219-3.28125 2.16015 7 7 39.67969 17.51367v-7.51953zm-103.441408 5.0625-3.404296.99218-24.876954 4.83204c2.79361 4.33305 6.337222 8.07276 10.289063 10.55273l24.992185-9.37695zm14.669918 8.4707-30.169918 9.43359 18.355469 10.59961 17.660159-12.23437-5.33789 19.34961 8.74218 5.04882 12.54297-16.65429-7-7-7.89258-4.5586-.002.002-.6289 2.2832zm95.02735 1.87305-2.60742 3.65429 6.90429 6.93164 32.84571 23.4375v-7.51953zm-71.85156 11.51171c-2.79643 8.5602-.13427 20.55409-.16602 26.75782l7.68555 4.4375c1.73688-5.19784 3.87337-11.60598 6.63086-20.06641l-7-7zm14.96093 8.63868v.002l6.30469 30.49414 7.54883 4.35938v-23.89844l-7-7zm65.29688.55859-1.60742 6.2832 7 7 23.34375 23.00977v-7.96875zm-42.94727 12.34766-.12695 2.88476 6.27148 27.51758 7.12696 4.11719-6.27149-27.51953zm15.74219 9.08984-.89258 2.44336 12.54297 31.14063 7.89258 4.55664-12.54297-31.14063zm32.25195 1.23438 14.29883 24.98046 9.39063 11.8125v-8.79882l-16.68946-20.99219v-.002zm-16.32617 7.96289-2.02539 1.78906 18.8125 34.75976 6.08789 3.51563c.93272.53858 1.83893.95699 2.72852 1.31055l-18.60352-34.375zm16.04883 9.26757-3.40625.99024v.002l20.75977 31.76172c1.75943-.55351 3.23749-1.65372 4.34765-3.25781l-14.70117-22.4961z" fill="#a8a38a" opacity="1" stroke-width="4.65061"/><path d="m65.509766 172.72656c-1.669106.92505-3.020608 2.32852-3.958985 4.09375l53.855469 97.0586 6 7-2.38867-11.72071zm19.826172 5.50586 35.103512 89.0625 6 7-2.00586-12.22656-31.259762-79.30859zm33.630862 19.42188c1.84711 9.90931 5.41847 29.06576 10.0625 54.21679.21205 1.15114.40943 2.22864.62109 3.375l6 7-.94727-13.61132c-3.86833-20.93244-6.85237-36.96703-8.70703-46.92188zm-59.017581.54101v9.32422l51.404301 71.66016 6 7-2.54688-11.51367zm81.755861 12.58789 5.42383 36.44727v-7.5918l6.39257 10.41797.45899 1.13086-5.42383-36.44727zm21.45898 12.39258-8.60937 37.20703 5.06836 12.48242 6 7 4.96484-52.40234zm-103.214841 10.23828v7.96875l45.792971 45.14063 9.47265 2.45508-6-7zm135.986331 8.6875-31.25977 43.20508 7.22461 12.17578-1.80859 1.16992 6.01172 9.94141-1.79883.42969 8.68554 14.24804-3.0957-.47851 8.09375 13.29297-3.22656-1.30078 9.71875 16.16015 46.67969 14.64258v-8.07617l-46.89844-18.89844 46.89844 2.52539v-8.86133l-55.125-8.5332 55.125-18.84375v-11.9668l-6 1.54297-42.22852 10.09375 43.57031-32.84375c-2.25014-4.05732-5.17816-7.73085-8.51367-10.55078l-48.0664 31.11328 24.21484-45.45117zm-51.38086 8.56836-31.95313 42.21485c2.89579.25847 6.09465.91495 9.53125 1.96484 6.89606-8.67047 15.6615-.43908 22.42188 3.46484 10.8125 6.24392 20.69529 14.12704 28.42187 22.36133l-22.42187-63.00586zm-84.605471 5.99805v7.51758l40.679691 29.02734 9.71875 2.13477-6-7zm0 23.02734v7.51758l33.845703 14.93945 10.296878 1.37696-6.000003-7zm57.476561 16.48242c-3.96567.18758-9.97851 2.42534-9.97851 6.50196 0 4.07703 3.26686 10.4981 9.97851 18.02734 6.71166 7.52925 16.39901 15.54011 27.12891 21.73633 10.72989 6.19621 20.41726 9.37336 27.1289 9.5957 6.71167.22235 9.97852-2.4249 9.97852-6.50195 0-4.07661-3.26685-10.49851-9.97852-18.02734-3.48449-3.90877-7.77567-7.94634-12.59375-11.79297 1.52278 3.64379 2.40235 7.37875 2.40235 10.81836 0 10.13973-7.62379 14.0366-16.9375 8.6582-9.3137-5.37841-16.9375-18.08097-16.9375-28.2207 0-3.44002 8.40234-1.04297 8.40234-1.04297s-11.60258-10.08266-18.59375-9.75196zm-57.476561 6.32032v7.96679l24.341797 4.11914 11.392578-.0547-6-7zm84.605471 3.27734c-3.61629-.20157-7.2044 3.96254-7.83399 7.5293-1.00111 5.67152 5.25201 12.15278 7.60547 15.51367-.34491-1.35063-.52314-2.65755-.52734-3.87109-.00001-6.42979-1.21067-15.87734 4.69531-12.4668 1.72706 1.00031 9.42618 9.44183 10.95508 11.19922-1.69258-4.42364-7.1434-17.47226-14.89453-17.9043zm-42.52735.5293-21.742184 28.4414 6 7 122.539064 67.22852-15.74219-46.55273-6-7c-2.19395 3.73888-6.72902 5.2456-12.33398 5.06054-7.95921-.26429-18.53762-3.8492-30.19336-10.58008-11.65574-6.73086-21.99875-14.30609-30.19336-24.29101-2.92734-3.56689-4.54759-7.87419-6.33399-12.30664-1.14882-2.85048-6-7-6-7zm-24.390621 16.98242-17.6875 1.82227v8.79882l10.388672-1.07031 13.298828-2.55078-5.998047-6.99805zm.279297 17.55273-17.164063 6.43946c.740516 3.29069 1.986463 6.58322 3.671875 9.69531l22.97461-2.40234-16.521485 11.23242c1.92522 1.96187 4.006908 3.67323 6.212891 4.94726l1.730468 1 28.365238-8.86914-13.283206 17.57813 7.892576 4.55859 21.98828-14.1582-13.89258-11.5586-1.63281 2.16016-5.26758-6.14453-9.025386-5.21094-2.347656 1.5957zm113.101564 9.35157 10.29687 17.58593 39.84571 25.37305v-7.83594zm-64.85156 18.50976v.002c-3.29873 10.0978-7.12713 20.92243-8.63086 25.4043l7.16406 4.13867c1.7809-5.3186 11.51833-8.90625 14.61719-18.41406zm73.25781 2.19922 11.39258 20.2832 30.34375 27.71875v-8.17382zm-58.29688 6.44141.26758 30.54492 8.86328 5.11719 3.72266-21.79493-6-9.91015zm15.22266 8.79101 7.04687 30.92383.82618 4.01172 5.64062 3.25781.66211-3.15234-1.04883-23.92578-6-7zm14.97656 8.64844 14.09571 34.99414 1.7207 4.5293 5.4668 3.15625.70507-3.12696-8.0957-27.99609-6-7zm40.14649 5.79492 7.29687 17.97656 22.32617 28.63086c.032-.48351.0645-.96593.0645-1.47851v-7.28906l-23.6895-30.84375zm-25.35352 2.74805 22.80469 43.55859 6.14648 3.54883 1.2168-2.83203-15.14258-32.06445-6-7zm14.66797 8.46875v.002l28.19141 43.13281 2.5996 3.03321c1.26659.0228 2.44836-.16299 3.51172-.58008l.0703-2.90625-17.9668-29.67188-6-7z" fill="#fff" stroke-width="1.23048"/></g><g stroke-width="4.9193"><path d="m-756.77067 40.557489c-2.00742 1.632413-3.70973 3.595304-5.00108 5.757398l64.79627 72.894253 3.98578-6.89989zm24.61521-4.291029 40.73506 73.32144 4.40828-7.63683-36.49277-65.685395zm-32.64927 33.716697v9.452654l63.35631 47.519709 3.81116-6.5974zm70.94846-33.718578c1.81765 7.99075 6.41636 28.21548 11.91636 52.658315.23403 1.042856.45188 2.01965.68549 3.057884l5.57663-9.660399c-4.62965-20.555521-8.4959-37.591959-10.42034-46.054458v-.002zm25.27053.00058v33.773337l3.78098-6.549708 3.27441 5.672423.50658.877735v-33.773337zm25.11747.000581-10.29963 46.342875 5.59388 9.687207 12.45311-56.030944zm-121.33646 71.90424v8.07851l57.16317 21.43695 3.83272-6.64051zm158.70011-71.904887-36.49277 65.685497 4.40827 7.63909 40.73506-73.325372zm-58.70014 42.351109-31.36882 54.330728c8.52814-3.82436 19.43522-6.02993 31.36882-6.02993 11.93361 0 22.8411 2.20606 31.36882 6.03042zm-99.99997 54.783288v7.62113l51.51971 6.43987 4.10433-7.10931zm192.30216-93.223125-64.11724 72.133085 3.98577 6.89892 65.09591-73.230362c-1.28265-2.27539-2.95814-4.241664-4.96444-5.801643zm-192.30216 118.222955v7.62113l43.97714-5.49658 4.7424-8.216zm199.99994-88.415918-67.16532 50.373658 3.80686 6.59781 63.35846-47.518814zm-129.94176 70.649428c-7.40755 3.70378-11.01314 8.30044-11.01314 12.43321 0 4.13319 3.60559 8.73019 11.01314 12.43397 7.40756 3.70377 18.09936 6.15374 29.94179 6.15374s22.53424-2.45032 29.94179-6.1541c7.40756-3.70378 11.01315-8.30001 11.01315-12.4332 0-4.13277-3.60559-8.73061-11.01315-12.43397-3.8458-1.92269-8.5819-3.50371-13.89954-4.58269 1.68067 2.80251 2.65143 6.074 2.65143 9.56097 0 10.2794-8.41427 18.69313-18.69368 18.69313-10.2794 0-18.69368-8.41436-18.69368-18.69376 0-3.4874.97077-6.75805 2.65144-9.56015-5.31764 1.07899-10.05417 2.66017-13.89955 4.58285zm-70.05818 42.53862v8.07654l33.48781-12.5574 5.95171-10.30882zm95.64774-47.82167c-4.00113 1.67879-6.77732 5.61533-6.77732 10.25966 0 3.58655 1.65775 6.75215 4.25523 8.78156a11.802522 11.802522 67.69595 0 1 -.58202-3.6157 11.802522 11.802522 67.69595 0 1 11.80426-11.80341 11.802522 11.802522 67.69595 0 1 5.46885 1.35622c-1.86807-3.4937-5.54282-5.8474-9.81677-5.8474-1.548 0-3.01852.30947-4.35223.86907zm-42.5846 24.56415-23.99654 41.56162 141.86674.00079-23.99654-41.56194c-2.42143 5.07479-7.42672 9.25721-13.61285 12.3509-8.78445 4.39159-20.4597 6.95018-33.32398 6.95018-12.86427 0-24.54037-2.55802-33.32398-6.94961-6.18642-3.09341-11.19243-7.27692-13.61285-12.35194zm85.94092-28.87012 3.83272 6.64152 57.16316-21.4366v-8.07851zm-112.8605 60.36539-26.14356 16.34034v8.45076c0 .15229.0379.29217.041.44358l18.04698-11.27942 8.05777-13.95443zm118.23234-51.0574 4.10433 7.10928 51.51971-6.44022v-7.6231zm-117.92409 68.6884-22.36688 19.5703c1.5441 2.08343 3.4573 3.80536 5.66501 5.09343l28.18495-24.66412zm17.71287-.00018-23.33692 27.22482 9.96335-.00015 23.33476-27.22566zm107.11572-56.7321 4.7424 8.21624 43.97714 5.49654v-7.62113zm-89.53866 56.7307-15.55723 27.2266 8.71093-.001 15.55722-27.22462zm17.96291-.00015v.002c-3.64075 12.16805-6.58133 21.8008-8.24099 27.22474l7.90903-.001c1.96554-6.43444 4.80358-15.77058 8.22375-27.22351zm80.85361-40.65756 5.95172 10.30921 33.48996 12.55811v-8.07851zm-64.34143 40.65867v27.22538l7.56413-.00069v-27.22538zm16.80103.00036 7.77754 27.22435 7.86807.00045-7.77969-27.22519zm16.52942-.00011 15.55723 27.22416.12718-.00014 8.58374-.00098-15.55722-27.22416zm44.3091-17.62808 8.05346 13.95239 18.06855 11.29137c.003-.15356.0215-.30249.0215-.45694v-8.4468zm-27.98231 17.62852 23.33261 27.22428.002.00083 9.9612-.00099-23.33477-27.22511zm16.18883-.002v.002l28.25177 24.71996c2.1984-1.28712 4.11317-3.0281 5.65208-5.10478l-22.41862-19.6167z" fill="#eede90" filter="url(#g)" transform="matrix(.90605495 .5232216 0 .98641285 752.90433 527.9621)"/><path d="m-756.77067 40.557489c-2.00742 1.632413-3.70973 3.595304-5.00108 5.757398l64.79627 72.894253 3.98578-6.89989zm24.61521-4.291029 40.73506 73.32144 4.40828-7.63683-36.49277-65.685395zm-32.64927 33.716697v9.452654l63.35631 47.519709 3.81116-6.5974zm70.94846-33.718578c1.81765 7.99075 6.41636 28.21548 11.91636 52.658315.23403 1.042856.45188 2.01965.68549 3.057884l5.57663-9.660399c-4.62965-20.555521-8.4959-37.591959-10.42034-46.054458v-.002zm25.27053.00058v33.773337l3.78098-6.549708 3.27441 5.672423.50658.877735v-33.773337zm25.11747.000581-10.29963 46.342875 5.59388 9.687207 12.45311-56.030944zm-121.33646 71.90424v8.07851l57.16317 21.43695 3.83272-6.64051zm158.70011-71.904887-36.49277 65.685497 4.40827 7.63909 40.73506-73.325372zm-58.70014 42.351109-31.36882 54.330728c8.52814-3.82436 19.43522-6.02993 31.36882-6.02993 11.93361 0 22.8411 2.20606 31.36882 6.03042zm-99.99997 54.783288v7.62113l51.51971 6.43987 4.10433-7.10931zm192.30216-93.223125-64.11724 72.133085 3.98577 6.89892 65.09591-73.230362c-1.28265-2.27539-2.95814-4.241664-4.96444-5.801643zm-192.30216 118.222955v7.62113l43.97714-5.49658 4.7424-8.216zm199.99994-88.415918-67.16532 50.373658 3.80686 6.59781 63.35846-47.518814zm-129.94176 70.649428c-7.40755 3.70378-11.01314 8.30044-11.01314 12.43321 0 4.13319 3.60559 8.73019 11.01314 12.43397 7.40756 3.70377 18.09936 6.15374 29.94179 6.15374s22.53424-2.45032 29.94179-6.1541c7.40756-3.70378 11.01315-8.30001 11.01315-12.4332 0-4.13277-3.60559-8.73061-11.01315-12.43397-3.8458-1.92269-8.5819-3.50371-13.89954-4.58269 1.68067 2.80251 2.65143 6.074 2.65143 9.56097 0 10.2794-8.41427 18.69313-18.69368 18.69313-10.2794 0-18.69368-8.41436-18.69368-18.69376 0-3.4874.97077-6.75805 2.65144-9.56015-5.31764 1.07899-10.05417 2.66017-13.89955 4.58285zm-70.05818 42.53862v8.07654l33.48781-12.5574 5.95171-10.30882zm95.64774-47.82167c-4.00113 1.67879-6.77732 5.61533-6.77732 10.25966 0 3.58655 1.65775 6.75215 4.25523 8.78156a11.802522 11.802522 67.69595 0 1 -.58202-3.6157 11.802522 11.802522 67.69595 0 1 11.80426-11.80341 11.802522 11.802522 67.69595 0 1 5.46885 1.35622c-1.86807-3.4937-5.54282-5.8474-9.81677-5.8474-1.548 0-3.01852.30947-4.35223.86907zm-42.5846 24.56415-23.99654 41.56162 141.86674.00079-23.99654-41.56194c-2.42143 5.07479-7.42672 9.25721-13.61285 12.3509-8.78445 4.39159-20.4597 6.95018-33.32398 6.95018-12.86427 0-24.54037-2.55802-33.32398-6.94961-6.18642-3.09341-11.19243-7.27692-13.61285-12.35194zm85.94092-28.87012 3.83272 6.64152 57.16316-21.4366v-8.07851zm-112.8605 60.36539-26.14356 16.34034v8.45076c0 .15229.0379.29217.041.44358l18.04698-11.27942 8.05777-13.95443zm118.23234-51.0574 4.10433 7.10928 51.51971-6.44022v-7.6231zm-117.92409 68.6884-22.36688 19.5703c1.5441 2.08343 3.4573 3.80536 5.66501 5.09343l28.18495-24.66412zm17.71287-.00018-23.33692 27.22482 9.96335-.00015 23.33476-27.22566zm107.11572-56.7321 4.7424 8.21624 43.97714 5.49654v-7.62113zm-89.53866 56.7307-15.55723 27.2266 8.71093-.001 15.55722-27.22462zm17.96291-.00015v.002c-3.64075 12.16805-6.58133 21.8008-8.24099 27.22474l7.90903-.001c1.96554-6.43444 4.80358-15.77058 8.22375-27.22351zm80.85361-40.65756 5.95172 10.30921 33.48996 12.55811v-8.07851zm-64.34143 40.65867v27.22538l7.56413-.00069v-27.22538zm16.80103.00036 7.77754 27.22435 7.86807.00045-7.77969-27.22519zm16.52942-.00011 15.55723 27.22416.12718-.00014 8.58374-.00098-15.55722-27.22416zm44.3091-17.62808 8.05346 13.95239 18.06855 11.29137c.003-.15356.0215-.30249.0215-.45694v-8.4468zm-27.98231 17.62852 23.33261 27.22428.002.00083 9.9612-.00099-23.33477-27.22511zm16.18883-.002v.002l28.25177 24.71996c2.1984-1.28712 4.11317-3.0281 5.65208-5.10478l-22.41862-19.6167z" fill="url(#b)" opacity=".95" transform="matrix(.90605495 .5232216 0 .98641285 752.90433 527.9621)"/></g></g><g stroke-width="1.23048"><path id="b8" d="m431.91591 386.34384c16.68554-9.63647 26.13476-26.00734 26.13476-45.27539v-157.70126c-.56916-7.38245-4.29969-15.45073-7.91406-20.23242-4.02977-5.22713-12.97309-10.36358-20.94922-10.0625h-.008.0003c-6.244.23841-10.94949 2.35775-15.16016 4.75l-147.04497 84.91015c-16.68577 9.6366-26.13672 26.00604-26.13672 45.27735v157.69921c0 9.6354 3.92155 20.94516 13.98438 26.75196 10.06282 5.80679 21.81683 3.54295 30.16015-1.27735z" fill="url(#c)" opacity=".75" stroke-width="4.65061"/><g stroke-width="1.23048"><g filter="url(#i)" opacity=".75" stroke-width="1.23048"><path d="m349.39265 232.57406-8.26444 54.92008-44.22574 27.42182 31.44058-10.83448 2.9358-1.11368-11.63424 30.67288 40.3274-64.58689 16.29397 13.34148-26.873-49.82211zm16.35434 13.05124 18.80259 36.31357-40.20572 9.78907 58.13836-6.2043-17.39919 25.42196 18.10711-17.59221 23.57524-43.30987-30.94142 26.19147-30.07665-30.60917zm-40.05848 58.08987-53.56541 34.75855 35.53102 15.7373-7.12168 37.97395 16.00354-35.25448 26.71701 8.18461-7-7-28.45644-23.17065 17.89164-31.22944zm23.08704-6.63108c-7.26903 4.19721-14.54163 17.5602-21.81032 40.10088 14.10134 19.24326 35.59494 20.99523 50.61868-18.18588-7.2687-14.14593-21.53999-26.11183-28.80901-21.91462zm7.13075 12.46554c3.58519.97467 6.16459 7.22799 6.16459 16.3758 0 9.1471-2.5794 8.9682-6.16459 14.08276-3.5852-.97466-6.16459 2.1837-6.16459-6.96411 0-9.14711 2.57939-18.37988 6.16459-23.49445zm19.7767-18.71944 8.68423 69.686-32.50031-.0694 52.57579 11.56931-9.86595-33.62178 16.86767-57.32961-21.0759 44.44263-14.68521-34.67699zm-60.74195 64.81056-14.14417 64.53928 39.09025-33.26315 39.14709-8.67417-7-7-22.36292 3.39078 21.25783-42.45691-48.55268 59.04449-7.43573-35.57943z" fill="#a8a38a" opacity="1" stroke-width="4.65061"/><path d="m342.39298 225.57316-13.92061 47.30094-31.5699 42.04186 6.83524-4.24152 20.72864-20.80106-4.50112 40.31159 26.00678-75.13118 16.29397 13.34148-12.873-35.82211-6.99967-7.0009zm16.35433 13.05266 11.80227 29.31305-26.20572 23.78907 48.82619-20.2043-8.08702 39.42196 41.68235-60.90208-7-7-37.94142 19.19147-16.07665-16.60917-6.99968-6.99948zm-33.0588 65.08935-60.56541 27.75855 7 7 21.53102 1.7373-.12168 44.97395 7 7 2.00354-49.25448 26.71701 8.18461-30.34734-30.02073 26.78254-17.37936zm16.08639-13.6307c-7.26903 4.19721-14.54098 17.55982-21.80967 40.1005 2.19545 2.996 4.49849 4.94043 7 7 6.70536 5.52073 14.4024 8.6271 21.94107 5.23489 7.71284-3.47058 15.26284-13.6914 21.67761-30.42077-7.2687-14.14593-21.54064-26.11145-28.80966-21.91424zm-.34442 14.35898c3.58519.97467 6.64041-1.66583 6.64041 7.48198 0 9.1471-2.5794 18.37987-6.16459 23.49443-3.5852-.97466-6.16459-7.22797-6.16459-16.37578 0-9.14711 2.10357-9.48606 5.68877-14.60063zm27.25284-20.61309 1.68391 62.68583-25.50031 6.93061 7 7 38.57579-2.43069-5.88725-36.92011 26.88897-40.03128-33.88897 33.03128-1.87214-23.26564-6.99968-6.99983zm-53.74228 71.80981-21.14416 57.53986 7 7 24.9526-45.67693 46.28474-3.26039-7-7-22.36292 3.39078 28.25783-35.45691-55.77055 37.75448z" fill="#fff" stroke-width="1.23048"/></g><g stroke-width="4.65061"><path d="m349.39298 232.57316-13.92061 47.30094-38.5699 35.04186 34.56388-21.44816-11.82174 40.17288 33.3274-71.58689 16.29397 13.34148-19.87267-42.82301zm16.35433 13.05266 11.80227 29.31305-33.20572 16.78907 55.82619-13.2043-15.08702 32.42196 41.68235-60.90208-37.94142 19.19147-23.07633-23.60865zm-40.05912 58.08919-53.56509 34.75871 28.53102 8.7373-.12168 44.97395 9.00354-42.25448 26.71701 8.18461-35.45644-30.17065 24.89132-24.2296zm23.08671-6.63054c-7.26903 4.19721-14.54098 17.55982-21.80967 40.1005 14.10134 19.24326 28.59494 13.99523 43.61868-25.18588-7.2687-14.14593-14.54064-19.11145-21.80966-14.91424zm.1314 5.46516c3.58519.97467 6.16459 7.22799 6.16459 16.3758 0 9.1471-2.5794 18.37987-6.16459 23.49443-3.5852-.97466-6.16459-7.22797-6.16459-16.37578 0-9.14711 2.57939-18.37988 6.16459-23.49445zm26.77702-11.71927 1.68391 62.68583-25.50031 6.93061 45.57579 4.56931-9.86595-33.62178 23.86767-50.32961-26.88897 40.03128-8.87182-30.26547zm-60.74228 64.80981-14.14416 64.53986 32.09025-40.26315 39.14709-8.67417-29.36292-3.60922 28.25783-35.45691-55.55268 52.04449-.43574-28.58001z" fill="#eede90" filter="url(#f)"/><path d="m349.39298 232.57316-13.92061 47.30094-38.5699 35.04186 34.56388-21.44816-11.82174 40.17288 33.3274-71.58689 16.29397 13.34148-19.87267-42.82301zm16.35433 13.05266 11.80227 29.31305-33.20572 16.78907 55.82619-13.2043-15.08702 32.42196 41.68235-60.90208-37.94142 19.19147-23.07633-23.60865zm-40.05912 58.08919-53.56509 34.75871 28.53102 8.7373-.12168 44.97395 9.00354-42.25448 26.71701 8.18461-35.45644-30.17065 24.89132-24.2296zm23.08671-6.63054c-7.26903 4.19721-14.54098 17.55982-21.80967 40.1005 14.10134 19.24326 28.59494 13.99523 43.61868-25.18588-7.2687-14.14593-14.54064-19.11145-21.80966-14.91424zm.1314 5.46516c3.58519.97467 6.16459 7.22799 6.16459 16.3758 0 9.1471-2.5794 18.37987-6.16459 23.49443-3.5852-.97466-6.16459-7.22797-6.16459-16.37578 0-9.14711 2.57939-18.37988 6.16459-23.49445zm26.77702-11.71927 1.68391 62.68583-25.50031 6.93061 45.57579 4.56931-9.86595-33.62178 23.86767-50.32961-26.88897 40.03128-8.87182-30.26547zm-60.74228 64.80981-14.14416 64.53986 32.09025-40.26315 39.14709-8.67417-29.36292-3.60922 28.25783-35.45691-55.55268 52.04449-.43574-28.58001z" fill="url(#b)" opacity=".95"/></g></g></g><g stroke-width="1.23048"><path id="b9" d="m223.55273 258.28711c16.68926 9.65431 35.60964 9.65528 52.29883 0l152.75396-88.35942c8.34512-4.82652 16.16406-13.88421 16.16406-25.49218 0-11.60842-7.81906-20.66717-16.16406-25.49414l-152.74996-88.357432c-8.34944-4.833425-17.16371-6.573887-26.15239-6.574195-8.98853-.000308-17.80618 1.743213-26.15239 6.572288l-152.749999 88.359379c-8.344641 4.82711-16.164062 13.88452-16.164062 25.49218 0 11.60873 7.819047 20.66677 16.164062 25.49414z" fill="url(#b)" opacity=".75" stroke-width="4.65061"/><g stroke-width="1.23048"><g filter="url(#h)" opacity=".75" stroke-width="1.23048"><path d="m308.49637 105.47236-7-7.000001-13.59133.12291-.00038 75.129691-.009 3.67424-5.49406-1.83468-64.06674-21.40888-25.71074-.75886 7.00048 7 108.219 36.14065.52912-.17516zm-27.9223-8.79165-7-7-131.49114 53.24154-6.99998 7.55689 7 7 114.6514-38.28708 5.50354-1.83924-.009 3.67392-.009 42.89314 18.35517 6.13543-.001-73.374762zm-25.67761 28.02556-7-7-111.36771 37.18944 7 7 134.01029 44.75225 22.9737-7.6649-7-7-103.04774-29.74675-5.50377-1.83934 5.51185-1.83506 64.41488-21.49932.008-12.356z" fill="#a8a38a" opacity="1" stroke-width="4.65061"/><path d="m294.49637 91.472359-20.59133-6.87709-.00038 75.129691-.009 3.67424-5.49406-1.83468-64.06674-21.40888-18.71026 6.24114 6.99952 7 101.21948 29.14065.52912-.17516 7.12365-83.889911zm-27.9223-8.791649-138.49114 46.24154.00002 14.55689 7 7 107.6514-45.28708 5.50354-1.83924-.009 3.67392-.009 42.89314 6.99986 7 11.35531-.86457 6.99901-66.3746-7.00001-7.000162zm-25.67761 28.02556-111.36771 37.18944 7 7 127.01029 37.75225 29.9737-.6649-7-7-110.04774-36.74675-5.50377-1.83934 5.51185-1.83506 64.41488-21.49932 7.0085-5.35632-7.0005-6.99968z" fill="#fff" stroke-width="1.23048"/></g><g stroke-width="4.62373"><path d="m-1082.3427 66.084961-17.3668 4.652774 69.4476 69.446435 3.3913 3.40136-4.6335 1.24163-54.0451 14.46541-4.2349 15.77288 91.27015-24.45509.121-.44482zm-23.0563 6.802717-31.3043 116.790862 13.456 13.45568 25.9105-96.6917 1.2425-4.64269 3.3913 3.40076 39.6443 39.65326 15.4856-4.14272-67.8262-67.823452zm12.1767 39.634582-25.1694 93.92139 113.0206-30.28485 5.1984-19.36847-92.8082 24.87262-4.643 1.24252 1.2508-4.64328 14.5681-54.3138-11.417-11.42583z" fill="#eede90" filter="url(#e)" transform="matrix(.93513294 .54090912 -.93515411 .54091832 1375.4303 648.17483)"/><path d="m-1082.3427 66.084961-17.3668 4.652774 69.4476 69.446435 3.3913 3.40136-4.6335 1.24163-54.0451 14.46541-4.2349 15.77288 91.27015-24.45509.121-.44482zm-23.0563 6.802717-31.3043 116.790862 13.456 13.45568 25.9105-96.6917 1.2425-4.64269 3.3913 3.40076 39.6443 39.65326 15.4856-4.14272-67.8262-67.823452zm12.1767 39.634582-25.1694 93.92139 113.0206-30.28485 5.1984-19.36847-92.8082 24.87262-4.643 1.24252 1.2508-4.64328 14.5681-54.3138-11.417-11.42583z" fill="url(#b)" opacity=".95" transform="matrix(.93513294 .54090912 -.93515411 .54091832 1375.4303 648.17483)"/></g></g></g><path id="ca" d="m249.70312 24.009766c-8.98849-.000079-17.80615 1.7432-26.15234 6.572265 0 0-136.336039 78.864599-152.749999 88.359379-16.413959 9.49478-18.814731 16.0232-23.798828 26.91211-5.227751 11.42122-5.138327 20.80354-5.050781 37.34179.08755 16.53826-.002 148.23156-.002 157.86719 0 4.81782 2.291357 18.41946 6.810547 26.24805 4.519574 7.82926 15.154738 16.61819 19.326172 19.02734 8.342866 4.8183 142.759429 82.44044 146.931639 84.84961 4.1722 2.40917 22.39298 14.25073 34.98437 14.25 12.59124-.00074 30.80883-11.84376 34.98047-14.25391 4.17166-2.41014 138.59084-80.02161 146.9336-84.83984 4.17137-2.40912 13.513-9.61299 17.7539-16.48633 5.24805-8.50562 8.38086-23.97206 8.38086-28.78906 0 0 .00003-146.23986 0-157.70117s.52771-31.98939-6.92969-45.33399c-4.80031-8.58991-12.79084-13.51566-22.51562-19.09179-9.72478-5.57614-148.57822-85.943647-152.75195-88.359379-4.17374-2.415731-17.16253-6.572186-26.1504-6.572265zm0 18c6.175 0 12.34978 1.382346 17.13477 4.152343l152.75391 88.361331c9.56999 5.53499 9.56999 14.28827 0 19.82226l-152.75391 88.36133c-9.56899 5.536-24.70149 5.536-34.27148 0l-152.751957-88.35937c-9.56999-5.536-9.56999-14.29118 0-19.82618l152.751957-88.359371c4.78399-2.767997 10.96072-4.152343 17.13671-4.152343zm180.16407 129.050784c4.95399-.187 7.68659 4.25865 10.18359 12.30664v157.70117c0 11.05199-7.56673 24.1605-17.13672 29.6875l-146.9375 84.84375c-9.56999 5.52899-17.13867 1.15936-17.13867-9.89063v-157.69921c0-11.05199 7.56868-24.16246 17.13867-29.68946l146.93555-84.84765c2.737-1.555 5.01708-2.33811 6.95508-2.41211zm-359.763674.47851v.002c2.074998 0 4.41933.59168 6.986328 1.92968l146.929686 84.84766c9.56999 5.52799 17.14063 18.63456 17.14063 29.68555v157.70117c0 11.05099-7.57064 15.42052-17.14063 9.89453l-146.929686-84.8477c-9.569991-5.52699-17.140625-18.63746-17.140625-29.68945v-157.69727c.122-6.49999 3.927303-11.82617 10.154297-11.82617z" fill="#f9f06b" filter="url(#l)" opacity=".75" stroke-width="4.65061" transform="translate(-.000001)"/><path id="cb" d="m249.70312 24.009766c-8.98849-.000079-17.80615 1.7432-26.15234 6.572265 0 0-136.336039 78.864599-152.749999 88.359379-16.413959 9.49478-18.814731 16.0232-23.798828 26.91211-5.227751 11.42122-5.138327 20.80354-5.050781 37.34179.08755 16.53826-.002 148.23156-.002 157.86719 0 4.81782 2.291357 18.41946 6.810547 26.24805 4.519574 7.82926 15.154738 16.61819 19.326172 19.02734 8.342866 4.8183 142.759429 82.44044 146.931639 84.84961 4.1722 2.40917 22.39298 14.25073 34.98437 14.25 12.59124-.00074 30.80883-11.84376 34.98047-14.25391 4.17166-2.41014 138.59084-80.02161 146.9336-84.83984 4.17137-2.40912 13.513-9.61299 17.7539-16.48633 5.24805-8.50562 8.38086-23.97206 8.38086-28.78906 0 0 .00003-146.23986 0-157.70117s.52771-31.98939-6.92969-45.33399c-4.80031-8.58991-12.79084-13.51566-22.51562-19.09179-9.72478-5.57614-148.57822-85.943647-152.75195-88.359379-4.17374-2.415731-17.16253-6.572186-26.1504-6.572265zm0 18c6.175 0 12.34978 1.382346 17.13477 4.152343l152.75391 88.361331c9.56999 5.53499 9.56999 14.28827 0 19.82226l-152.75391 88.36133c-9.56899 5.536-24.70149 5.536-34.27148 0l-152.751957-88.35937c-9.56999-5.536-9.56999-14.29118 0-19.82618l152.751957-88.359371c4.78399-2.767997 10.96072-4.152343 17.13671-4.152343zm180.16407 129.050784c4.95399-.187 7.68659 4.25865 10.18359 12.30664v157.70117c0 11.05199-7.56673 24.1605-17.13672 29.6875l-146.9375 84.84375c-9.56999 5.52899-17.13867 1.15936-17.13867-9.89063v-157.69921c0-11.05199 7.56868-24.16246 17.13867-29.68946l146.93555-84.84765c2.737-1.555 5.01708-2.33811 6.95508-2.41211zm-359.763674.47851v.002c2.074998 0 4.41933.59168 6.986328 1.92968l146.929686 84.84766c9.56999 5.52799 17.14063 18.63456 17.14063 29.68555v157.70117c0 11.05099-7.57064 15.42052-17.14063 9.89453l-146.929686-84.8477c-9.569991-5.52699-17.140625-18.63746-17.140625-29.68945v-157.69727c.122-6.49999 3.927303-11.82617 10.154297-11.82617z" fill="#a8a38a" stroke-width="4.65061"/></g></g></svg>