<svg height="500" viewBox="0 0 500 500" width="500" xmlns="http://www.w3.org/2000/svg" xmlns:xlink="http://www.w3.org/1999/xlink"><linearGradient id="a" gradientTransform="matrix(391.593 0 0 -391.593 60.7962 7618.49)" gradientUnits="userSpaceOnUse" spreadMethod="pad" x1="0" x2="1" y1="0" y2="0"><stop offset="0" stop-color="#9f571d"/><stop offset=".511236" stop-color="#fde791"/><stop offset="1" stop-color="#84542e"/></linearGradient><linearGradient id="b" gradientTransform="matrix(3.7795274 0 0 3.7795274 -341.5064 91.506337)" gradientUnits="userSpaceOnUse" spreadMethod="reflect" x1="106.21841" x2="154.16382" xlink:href="#a" y1="24.304176" y2="96.965256"/><linearGradient id="c" gradientTransform="matrix(3.7795274 0 0 3.7795274 -341.5064 91.506337)" gradientUnits="userSpaceOnUse" spreadMethod="reflect" x1="156.42416" x2="156.50108" xlink:href="#a" y1="-13.096001" y2="43.184525"/><linearGradient id="d" gradientTransform="matrix(3.7795274 0 0 3.7795274 -341.5064 91.506337)" gradientUnits="userSpaceOnUse" spreadMethod="reflect" x1="157.77863" x2="209.45555" xlink:href="#a" y1="100.79424" y2="18.951691"/><filter id="e" color-interpolation-filters="sRGB" height="1.025101" width="1.015068" x="-.007534" y="-.01255"><feGaussianBlur stdDeviation="1.1697408"/></filter><filter id="f" color-interpolation-filters="sRGB" height="1.018434" width="1.028229" x="-.014114" y="-.009217"><feGaussianBlur stdDeviation="1.1697408"/></filter><filter id="g" color-interpolation-filters="sRGB" height="1.012029" width="1.02246" x="-.01123" y="-.006014"><feGaussianBlur stdDeviation="1.1697408"/></filter><clipPath id="h"><path d="m249.703 42.009643c-6.176 0-12.353 1.384-17.137 4.152l-152.751999 88.359997c-9.57 5.535-9.57 14.29 0 19.826l152.751999 88.359c9.57 5.536 24.703 5.536 34.272 0l152.754-88.36c9.57-5.534 9.57-14.289 0-19.824l-152.754-88.360997c-4.785-2.77-10.96-4.152-17.135-4.152z"/></clipPath><clipPath id="i"><path d="m429.867 171.05964c-1.938.074-4.218.858-6.955 2.413l-146.935 84.847c-9.57 5.527-17.14 18.638-17.14 29.69v157.699c0 11.05 7.57 15.419 17.14 9.89l146.937-84.843c9.57-5.527 17.137-18.636 17.137-29.688v-157.7c-2.497-8.048-5.23-12.495-10.184-12.308z"/></clipPath><clipPath id="j"><path d="m70.104 171.53964c-6.227 0-10.032997 5.325-10.154997 11.825v157.697c0 11.052 7.569997 24.163 17.139997 29.69l146.93 84.848c9.57 5.526 17.141 1.156 17.141-9.895v-157.7c0-11.051-7.57-24.159-17.14-29.687l-146.93-84.847c-2.567-1.338-4.911-1.93-6.986-1.93z"/></clipPath><mask id="k" maskUnits="userSpaceOnUse"><path d="m-13.229152-13.229161h158.750002v158.750011h-158.750002z" fill="url(#l)" filter="url(#m)" stroke-width="11.83"/></mask><radialGradient id="l" cx="66.145844" cy="66.145836" gradientTransform="matrix(-1.0000001 .00000145 0 -.99999998 132.2917 132.29157)" gradientUnits="userSpaceOnUse" r="66.145836"><stop offset="0" stop-color="#fff"/><stop offset=".49999994" stop-color="#fff"/><stop offset=".74999988" stop-color="#808080"/><stop offset=".87499994" stop-color="#404040"/><stop offset="1"/></radialGradient><filter id="m" color-interpolation-filters="sRGB" height="1.0135" width="1.0135" x="-.00675" y="-.00675"><feGaussianBlur stdDeviation=".44648439"/></filter><radialGradient id="n" cx="703.05621" cy="1070.2185" gradientTransform="matrix(.12107523 -.12107523 .05841622 .05841622 -57.692804 112.54712)" gradientUnits="userSpaceOnUse" r="1011.8609" spreadMethod="pad"><stop offset="0" stop-color="#b7671e"/><stop offset=".08962709" stop-color="#b7671e" stop-opacity=".9"/><stop offset="1" stop-color="#b7671e" stop-opacity="0"/></radialGradient><radialGradient id="o" cx="126.27608" cy="123.13533" gradientTransform="matrix(.43446619 -.43446528 .90042865 .90042865 -99.591428 10.133839)" gradientUnits="userSpaceOnUse" r="136.05388" spreadMethod="pad"><stop offset="0" stop-color="#fde791"/><stop offset=".125" stop-color="#f4d782" stop-opacity=".88"/><stop offset="1" stop-color="#b7671e" stop-opacity="0"/></radialGradient><radialGradient id="p" cx="703.05621" cy="255.40021" gradientTransform="matrix(.12107523 -.12107523 .05841622 .05841622 -57.692804 112.54712)" gradientUnits="userSpaceOnUse" r="1011.8609"><stop offset="0" stop-color="#fde791"/><stop offset=".08962709" stop-color="#fde791"/><stop offset="1" stop-color="#fde791" stop-opacity="0"/></radialGradient><linearGradient id="q" gradientTransform="matrix(3.7795274 0 0 3.7795274 -341.5064 91.506337)" gradientUnits="userSpaceOnUse" spreadMethod="reflect" x1="102.79266" x2="209.33228" xlink:href="#a" y1="14.37942" y2="73.646881"/><filter id="r" color-interpolation-filters="sRGB" height="1.279569" width="1.310001" x="-.155001" y="-.139785"><feGaussianBlur stdDeviation="26.875203"/></filter><linearGradient id="s" gradientTransform="matrix(3.7795274 0 0 3.7795274 -341.5064 91.506337)" gradientUnits="userSpaceOnUse" spreadMethod="reflect" x1="-347.53949" x2="-242.63313" xlink:href="#a" y1="-103.69939" y2="1.206935"/><g stroke-width="1.18895"><g mask="url(#k)" transform="matrix(0 3.7795275 -3.7795275 0 500.00003 -.000048)"><path d="m30.833409 30.833409c-67.65774 67.657739-96.043753 148.969871-63.396059 181.617561 32.64769465 32.6477 113.959825 4.26168 181.61756-63.39606 67.65774-67.657735 96.04376-148.96986535 63.39606-181.61756-32.64769-32.647694-113.959822-4.261681-181.617561 63.396059z" fill="url(#n)" opacity=".3"/><path d="m125.25659 7.0350914c-67.657737-67.6577404-148.969869-96.0437534-181.617559-63.3960594-32.6477 32.647695-4.26168 113.959825 63.3960601 181.617558 67.6577349 67.65774 148.9698689 96.04376 181.6175589 63.39606 32.6477-32.64769 4.26168-113.95982-63.39606-181.6175586z" fill="url(#o)" opacity=".3"/><path d="m-16.763244-16.763244c-67.65774 67.657739-96.043756 148.969874-63.396059 181.617564 32.647695 32.64769 113.959825 4.26168 181.617563-63.39606 67.65774-67.657738 96.04375-148.969868 63.39606-181.617563-32.64769-32.647697-113.959825-4.261681-181.617564 63.396059z" fill="url(#p)" opacity=".3"/></g><g transform="matrix(.84108267 0 0 .84108267 39.73459 35.756535)"><path d="m223.55078 30.582031s-136.336023 78.864589-152.749999 88.359379-18.815379 16.02342-23.799481 26.91234c-5.227756 11.42124-5.137671 20.80426-5.050125 37.34253.08755 16.53827-.002 148.23058-.002 157.86622 0 4.81782 2.291031 18.42043 6.810225 26.24902 4.519579 7.82927 15.155056 16.61722 19.326494 19.02637 8.342875 4.8183 142.759476 82.44049 146.931686 84.84966s22.39206 14.25028 34.98347 14.24955c12.59125-.00074 30.80972-11.84331 34.98137-14.25346 4.17166-2.41015 138.59083-80.02152 146.93359-84.83975 4.17138-2.40912 13.51373-9.61381 17.75464-16.48715 5.24805-8.50563 8.38012-23.97123 8.38012-28.78824 0 0 .00003-146.23999 0-157.70131s.52855-31.98987-6.92885-45.33448c-4.80032-8.58992-12.79167-13.51516-22.51646-19.0913s-148.57826-85.943645-152.752-88.359379-17.1625-6.572186-26.15037-6.572265c-8.9885-.000079-17.80611 1.743195-26.15231 6.572265z" fill="url(#q)" filter="url(#r)"/><path d="m223.55078 30.582031s-136.336023 78.864589-152.749999 88.359379-18.815379 16.02342-23.799481 26.91234c-5.227756 11.42124-5.137671 20.80426-5.050125 37.34253.08755 16.53827-.002 148.23058-.002 157.86622 0 4.81782 2.291031 18.42043 6.810225 26.24902 4.519579 7.82927 15.155056 16.61722 19.326494 19.02637 8.342875 4.8183 142.759476 82.44049 146.931686 84.84966s22.39206 14.25028 34.98347 14.24955c12.59125-.00074 30.80972-11.84331 34.98137-14.25346 4.17166-2.41015 138.59083-80.02152 146.93359-84.83975 4.17138-2.40912 13.51373-9.61381 17.75464-16.48715 5.24805-8.50563 8.38012-23.97123 8.38012-28.78824 0 0 .00003-146.23999 0-157.70131s.52855-31.98987-6.92885-45.33448c-4.80032-8.58992-12.79167-13.51516-22.51646-19.0913s-148.57826-85.943645-152.752-88.359379-17.1625-6.572186-26.15037-6.572265c-8.9885-.000079-17.80611 1.743195-26.15231 6.572265z" fill="#84542e"/><g stroke-width="1.18895"><g clip-path="url(#j)"><path d="m70.103516 162.70508c-5.632172 0-10.988144 2.76293-14.21875 6.73242-3.230607 3.96949-4.675089 8.834-4.767578 13.76172a8.8348668 8.8348668 0 0 0 -.002.16601v157.69727c0 15.08619 8.494744 29.79615 21.556641 37.33984l146.929731 84.84766c6.53176 3.77163 14.48352 5.02765 20.99414 1.26953 6.51063-3.75812 9.39844-11.27167 9.39844-18.81445v-157.70117c0-15.08556-8.49709-29.79224-21.55664-37.33594l-146.929688-84.84766a8.8348668 8.8348668 0 0 0 -.333984-.18359c-3.572851-1.86228-7.310767-2.92823-11.0625-2.92969a8.8348668 8.8348668 0 0 0 -.0078-.002z" fill="url(#b)" filter="url(#g)" stroke-width="1.18895"/><g stroke-linecap="round" stroke-linejoin="round" stroke-width="3.02049" transform="matrix(.37725255 .21785288 0 .41071101 700.13344 673.86776)"><path d="m-1456.7784-310.42811c-114.8148 0-208.2617 93.41883-208.2617 208.23437 0 114.816287 93.4446 208.26172 208.2617 208.26172 114.8163 0 208.2344-93.446208 208.2344-208.26172 0-114.81476-93.4204-208.23437-208.2344-208.23437zm9.0742 35.88086c91.3996 4.72491 163.7363 79.7466 163.7363 172.35351 0 42.585217-15.4604 81.320548-40.8769 111.3984387v-122.3964887l10.0762-16.39648a10.001 10.001 0 0 0 -8.5196-15.23438h.5782l-34.1524-88.10351a10.001 10.001 0 0 0 -18.664.0391l-33.7051 88.06445h.1465a10.001 10.001 0 0 0 -8.3379 5.72071v-18.81641l10.4863-16.33398a10.001 10.001 0 0 0 -8.416-15.4043h.5801zm-21.1972.15234-32.8497 84.73828h.5801a10.001 10.001 0 0 0 -8.5156 15.24414l10.0957 16.39258v60.873046a10.001 10.001 0 0 0 -8.8047-5.734376h.1231l-33.6797-88.05859a10.001 10.001 0 0 0 -18.6641-.0449l-34.1777 88.10156h.5781a10.001 10.001 0 0 0 -8.5137 15.244139l10.0957 16.394531v75.6425581c-23.0731-29.3628741-36.9804-66.2379341-36.9804-106.5917981 0-91.57578 70.7542-165.98462 160.7129-172.20117zm51.4785 145.0957 10.3867 16.20703v15.033207h-10.3867zm-82.168 40.779299v19.378907h-10.8496v-2.007813l10.4668-16.339844a10.001 10.001 0 0 0 .3828-1.03125z" fill="#84542e"/><path d="m-1456.78-300.42836c-109.4017 0-198.2614 88.83412-198.2614 198.23496 0 109.4016746 88.8589 198.261379 198.2614 198.261379 109.4017 0 198.235-88.8588789 198.235-198.261379 0-109.40167-88.8341-198.23496-198.235-198.23496zm0 15.42505c101.0639 0 182.8108 81.74686 182.8108 182.81074 0 54.1903-23.4963 102.83610066-60.8764 136.301189v-150.128179l11.5562-18.80358h-6.2693l-36.629-94.4884-36.1651 94.4884h-6.7323l12.0473 18.80358v27.961868h-30.387v-72.794118l12.0721-18.80358h-6.2676l-36.6546-94.4884-36.629 94.4884h-6.2684l11.581 18.80358v101.711019h-30.8509v-14.935556l12.0465-18.805231h-6.7604l-36.1379-94.485922-36.6538 94.485097h-6.2684l11.581 18.806056v104.57283c-35.1061-33.3066036-56.9803-80.414605-56.9803-132.689883 0-101.06387 81.7716-182.81074 182.8355-182.81074zm.903 132.50993h15.4251v29.99988h-15.4242v-29.99988zm90.9275 72.614172h15.4259v29.973467h-15.4259v-29.975943zm-203.6004 18.184498h15.4251v29.999881h-15.4242v-29.999881zm41.9944 24.273787h15.4243v29.9982298h-15.4234v-29.9982298zm140.9939 25.175995h15.4275v29.99823h-15.4275z" fill="url(#s)" stroke-width="20"/></g></g><g clip-path="url(#i)"><path d="m429.5293 162.22266c-4.05092.15468-7.52396 1.59343-10.98633 3.56054a8.8446372 8.8446372 0 0 0 -.0527.0312l-146.93554 84.84766a8.8446372 8.8446372 0 0 0 -.002 0c-13.06621 7.54618-21.55859 22.25805-21.55859 37.34766v157.69921c0 7.54417 2.88934 15.06205 9.4043 18.82227 6.51444 3.75992 14.46704 2.5004 21-1.27344l146.9375-84.84375a8.8446372 8.8446372 0 0 0 .002 0c13.06588-7.54599 21.55664-22.25713 21.55664-37.3457v-157.70112a8.8446372 8.8446372 0 0 0 -.39648-2.6211c-1.38249-4.45585-2.81189-8.38612-5.61328-12.01953-2.8014-3.63341-8.17355-6.69936-13.35157-6.5039a8.8446372 8.8446372 0 0 0 -.004 0z" fill="url(#d)" filter="url(#f)" stroke-width="1.18895"/><path d="m429.5293 162.22266c-4.05092.15468-7.52396 1.59343-10.98633 3.56054a8.8446353 8.8446353 0 0 0 -.0527.0312l-146.93554 84.84766a8.8446353 8.8446353 0 0 0 -.002 0c-13.06621 7.54618-21.55859 22.25805-21.55859 37.34766v157.69921c0 7.54417 2.88934 15.06205 9.4043 18.82227 6.51444 3.75992 14.46704 2.5004 21-1.27344l146.9375-84.84375a8.8446353 8.8446353 0 0 0 .002 0c13.06588-7.54599 21.55664-22.25713 21.55664-37.3457v-157.70112a8.8446353 8.8446353 0 0 0 -.39648-2.6211c-1.38249-4.45585-2.81189-8.38612-5.61328-12.01953-2.8014-3.63341-8.17355-6.69936-13.35157-6.5039a8.8446353 8.8446353 0 0 0 -.004 0z" fill="#84542e" opacity=".1"/><g stroke-linecap="round" stroke-linejoin="round" stroke-width="3.02045" transform="matrix(.3772588 -.21783328 0 .4107143 899.03205 39.16476)"><path d="m-1456.7784-310.42811c-114.8148 0-208.2617 93.41883-208.2617 208.23437 0 114.816287 93.4446 208.26172 208.2617 208.26172 114.8163 0 208.2344-93.446208 208.2344-208.26172 0-114.81476-93.4204-208.23437-208.2344-208.23437zm9.0742 35.88086c91.3996 4.72491 163.7363 79.7466 163.7363 172.35351 0 42.585217-15.4604 81.320548-40.8769 111.3984387v-122.3964887l10.0762-16.39648a10.001 10.001 0 0 0 -8.5196-15.23438h.5782l-34.1524-88.10351a10.001 10.001 0 0 0 -18.664.0391l-33.7051 88.06445h.1465a10.001 10.001 0 0 0 -8.3379 5.72071v-18.81641l10.4863-16.33398a10.001 10.001 0 0 0 -8.416-15.4043h.5801zm-21.1972.15234-32.8497 84.73828h.5801a10.001 10.001 0 0 0 -8.5156 15.24414l10.0957 16.39258v60.873046a10.001 10.001 0 0 0 -8.8047-5.734376h.1231l-33.6797-88.05859a10.001 10.001 0 0 0 -18.6641-.0449l-34.1777 88.10156h.5781a10.001 10.001 0 0 0 -8.5137 15.244139l10.0957 16.394531v75.6425581c-23.0731-29.3628741-36.9804-66.2379341-36.9804-106.5917981 0-91.57578 70.7542-165.98462 160.7129-172.20117zm51.4785 145.0957 10.3867 16.20703v15.033207h-10.3867zm-82.168 40.779299v19.378907h-10.8496v-2.007813l10.4668-16.339844a10.001 10.001 0 0 0 .3828-1.03125z" fill="#84542e"/><path d="m-1456.78-300.42836c-109.4017 0-198.2614 88.83412-198.2614 198.23496 0 109.4016746 88.8589 198.261379 198.2614 198.261379 109.4017 0 198.235-88.8588789 198.235-198.261379 0-109.40167-88.8341-198.23496-198.235-198.23496zm0 15.42505c101.0639 0 182.8108 81.74686 182.8108 182.81074 0 54.1903-23.4963 102.83610066-60.8764 136.301189v-150.128179l11.5562-18.80358h-6.2693l-36.629-94.4884-36.1651 94.4884h-6.7323l12.0473 18.80358v27.961868h-30.387v-72.794118l12.0721-18.80358h-6.2676l-36.6546-94.4884-36.629 94.4884h-6.2684l11.581 18.80358v101.711019h-30.8509v-14.935556l12.0465-18.805231h-6.7604l-36.1379-94.485922-36.6538 94.485097h-6.2684l11.581 18.806056v104.57283c-35.1061-33.3066036-56.9803-80.414605-56.9803-132.689883 0-101.06387 81.7716-182.81074 182.8355-182.81074zm.903 132.50993h15.4251v29.99988h-15.4242v-29.99988zm90.9275 72.614172h15.4259v29.973467h-15.4259v-29.975943zm-203.6004 18.184498h15.4251v29.999881h-15.4242v-29.999881zm41.9944 24.273787h15.4243v29.9982298h-15.4234v-29.9982298zm140.9939 25.175995h15.4275v29.99823h-15.4275z" fill="url(#s)" stroke-width="20"/></g></g><g clip-path="url(#h)"><path d="m249.70312 32.761719c-7.55791 0-15.15385 1.569816-21.76757 5.396484v-.002l-152.751956 88.359417c-6.614305 3.82552-11.794922 10.21668-11.794922 17.91797 0 7.7013 5.180866 14.09386 11.794922 17.91993l152.751956 88.35937c13.22751 7.65178 30.30621 7.65032 43.5332-.002v.002l152.75195-88.36133c6.61416-3.82473 11.79688-10.2146 11.79688-17.91601s-5.18102-14.09269-11.79492-17.91797l-152.75196-88.359377c-6.61588-3.829887-14.21242-5.396484-21.76758-5.396484z" fill="url(#c)" filter="url(#e)" stroke-width="1.18895"/><path d="m249.70312 32.763672c-7.55776 0-15.15405 1.567975-21.76757 5.394531l-152.751956 88.359377c-6.613452 3.82549-11.792969 10.21569-11.792969 17.91601 0 7.70086 5.179107 14.09202 11.792969 17.91797l152.751956 88.35938c13.22712 7.65155 30.3066 7.65205 43.5332 0l152.75195-88.36133c6.61396-3.82462 11.79492-10.21309 11.79492-17.91406 0-7.70044-5.17991-14.09076-11.79296-17.91602h-.002l-152.75-88.359374-.002-.002c-6.61516-3.828818-14.21148-5.394531-21.76563-5.394531z" fill="#fde791" opacity=".1" stroke-width="1.18895"/><g stroke-linecap="round" stroke-linejoin="round" stroke-width="2.839" transform="matrix(.38934487 .22524304 -.38936239 .22520771 777.1158 495.57252)"><path d="m-1456.7784-310.42811c-114.8148 0-208.2617 93.41883-208.2617 208.23437 0 114.816287 93.4446 208.26172 208.2617 208.26172 114.8163 0 208.2344-93.446208 208.2344-208.26172 0-114.81476-93.4204-208.23437-208.2344-208.23437zm9.0742 35.88086c91.3996 4.72491 163.7363 79.7466 163.7363 172.35351 0 42.585217-15.4604 81.320548-40.8769 111.3984387v-122.3964887l10.0762-16.39648a10.001 10.001 0 0 0 -8.5196-15.23438h.5782l-34.1524-88.10351a10.001 10.001 0 0 0 -18.664.0391l-33.7051 88.06445h.1465a10.001 10.001 0 0 0 -8.3379 5.72071v-18.81641l10.4863-16.33398a10.001 10.001 0 0 0 -8.416-15.4043h.5801zm-21.1972.15234-32.8497 84.73828h.5801a10.001 10.001 0 0 0 -8.5156 15.24414l10.0957 16.39258v60.873046a10.001 10.001 0 0 0 -8.8047-5.734376h.1231l-33.6797-88.05859a10.001 10.001 0 0 0 -18.6641-.0449l-34.1777 88.10156h.5781a10.001 10.001 0 0 0 -8.5137 15.244139l10.0957 16.394531v75.6425581c-23.0731-29.3628741-36.9804-66.2379341-36.9804-106.5917981 0-91.57578 70.7542-165.98462 160.7129-172.20117zm51.4785 145.0957 10.3867 16.20703v15.033207h-10.3867zm-82.168 40.779299v19.378907h-10.8496v-2.007813l10.4668-16.339844a10.001 10.001 0 0 0 .3828-1.03125z" fill="#84542e"/><path d="m-1456.78-300.42836c-109.4017 0-198.2614 88.83412-198.2614 198.23496 0 109.4016746 88.8589 198.261379 198.2614 198.261379 109.4017 0 198.235-88.8588789 198.235-198.261379 0-109.40167-88.8341-198.23496-198.235-198.23496zm0 15.42505c101.0639 0 182.8108 81.74686 182.8108 182.81074 0 54.1903-23.4963 102.83610066-60.8764 136.301189v-150.128179l11.5562-18.80358h-6.2693l-36.629-94.4884-36.1651 94.4884h-6.7323l12.0473 18.80358v27.961868h-30.387v-72.794118l12.0721-18.80358h-6.2676l-36.6546-94.4884-36.629 94.4884h-6.2684l11.581 18.80358v101.711019h-30.8509v-14.935556l12.0465-18.805231h-6.7604l-36.1379-94.485922-36.6538 94.485097h-6.2684l11.581 18.806056v104.57283c-35.1061-33.3066036-56.9803-80.414605-56.9803-132.689883 0-101.06387 81.7716-182.81074 182.8355-182.81074zm.903 132.50993h15.4251v29.99988h-15.4242v-29.99988zm90.9275 72.614172h15.4259v29.973467h-15.4259v-29.975943zm-203.6004 18.184498h15.4251v29.999881h-15.4242v-29.999881zm41.9944 24.273787h15.4243v29.9982298h-15.4234v-29.9982298zm140.9939 25.175995h15.4275v29.99823h-15.4275z" fill="url(#s)" stroke-width="20"/></g></g></g><path d="m249.70312 24.009766c-8.98849-.000079-17.80615 1.7432-26.15234 6.572265 0 0-136.336039 78.864599-152.749999 88.359379-16.413959 9.49478-18.814731 16.0232-23.798828 26.91211-5.227751 11.42122-5.138327 20.80354-5.050781 37.34179.08755 16.53826-.002 148.23156-.002 157.86719 0 4.81782 2.291357 18.41946 6.810547 26.24805 4.519574 7.82926 15.154738 16.61819 19.326172 19.02734 8.342866 4.8183 142.759429 82.44044 146.931639 84.84961 4.1722 2.40917 22.39298 14.25073 34.98437 14.25 12.59124-.00074 30.80883-11.84376 34.98047-14.25391 4.17166-2.41014 138.59084-80.02161 146.9336-84.83984 4.17137-2.40912 13.513-9.61299 17.7539-16.48633 5.24805-8.50562 8.38086-23.97206 8.38086-28.78906 0 0 .00003-146.23986 0-157.70117s.52771-31.98939-6.92969-45.33399c-4.80031-8.58991-12.79084-13.51566-22.51562-19.09179-9.72478-5.57614-148.57822-85.943647-152.75195-88.359379-4.17374-2.415731-17.16253-6.572186-26.1504-6.572265zm0 18c6.175 0 12.34979 1.382349 17.13477 4.152343l152.75391 88.361331c9.56998 5.53498 9.56998 14.28828 0 19.82226l-152.75391 88.36133c-9.56898 5.536-24.7015 5.536-34.27148 0l-152.751957-88.35937c-9.56998-5.536-9.56998-14.29118 0-19.82618l152.751957-88.359371c4.78398-2.767994 10.96073-4.152343 17.13671-4.152343zm180.16407 129.050784c4.95398-.187 7.68659 4.25866 10.18359 12.30664v157.70117c0 11.05198-7.56674 24.1605-17.13672 29.6875l-146.9375 84.84375c-9.56998 5.52898-17.13867 1.15935-17.13867-9.89063v-157.69921c0-11.05198 7.56869-24.16246 17.13867-29.68946l146.93555-84.84765c2.737-1.555 5.01708-2.33811 6.95508-2.41211zm-359.763674.47851v.002c2.074996 0 4.419332.59168 6.986328 1.92968l146.929686 84.84766c9.56998 5.52798 17.14063 18.63457 17.14063 29.68555v157.70117c0 11.05098-7.57065 15.42051-17.14063 9.89453l-146.929686-84.8477c-9.569982-5.52698-17.140625-18.63747-17.140625-29.68945v-157.69727c.122-6.49998 3.927309-11.82617 10.154297-11.82617z" fill="#84542e"/></g></g></svg>