<svg height="500" viewBox="0 0 500 500" width="500" xmlns="http://www.w3.org/2000/svg" xmlns:xlink="http://www.w3.org/1999/xlink"><clipPath id="a"><path d="m372.6543 113.48242c0 6.164-2.2967 12.49033-5.85352 15.02149-6.68642 4.75828-22.11074 10.86874-33.67773 15.03125-24.56432 8.83974-49.95758 15.38082-75.45899 20.96875-37.69351 8.25948-75.75017 16.3608-114.27929 18.48828-17.54037.96853-36.99267 5.35677-52.63477-2.63867-5.57524-2.84978-11.75-5.21402-11.75-14.6543v273.40625c0 24.87818 107.84284 9.4694 159.73633-2.48242 48.01649-11.0589 133.91797-30.04734 133.91797-62.58594z"/></clipPath><filter id="b" color-interpolation-filters="sRGB" height="1.143888" width="1.156654" x="-.078327" y="-.071944"><feGaussianBlur stdDeviation="10.62812"/></filter><filter id="c" color-interpolation-filters="sRGB" height="1.084441" width="1.670813" x="-.335406" y="-.04222"><feGaussianBlur stdDeviation="4.4720859"/></filter><linearGradient id="d" gradientTransform="matrix(3.7795274 0 0 3.7795274 -774.51887 341.50647)" gradientUnits="userSpaceOnUse" spreadMethod="reflect" x1="242.65169" x2="257.6973" xlink:href="#h" y1="13.690814" y2="-15.492057"/><filter id="e" color-interpolation-filters="sRGB" height="1.0518" width="1.056395" x="-.028198" y="-.0259"><feGaussianBlur stdDeviation="3.8261231"/></filter><linearGradient id="f" gradientTransform="matrix(3.7795274 0 0 3.7795274 -774.51887 341.50647)" gradientUnits="userSpaceOnUse" spreadMethod="reflect" x1="238.32867" x2="252.55238" xlink:href="#h" y1="-61.42395" y2="-75.042427"/><linearGradient id="g" gradientUnits="userSpaceOnUse" spreadMethod="reflect" x1="-24.17285" x2="-21.789375" y1="133.43625" y2="133.43625"><stop offset="0" stop-color="#68423a"/><stop offset=".10402299" stop-color="#68423a"/><stop offset=".90229887" stop-color="#68423a" stop-opacity="0"/><stop offset="1" stop-color="#68423a" stop-opacity="0"/></linearGradient><linearGradient id="h" gradientTransform="matrix(3.55578 0 0 3.562357 555.60505 733.33847)" gradientUnits="userSpaceOnUse" spreadMethod="pad" x1="-65.964897" x2="-108.65797" y1="31.088467" y2="44.930946"><stop offset="0" stop-color="#fff"/><stop offset=".51123601" stop-color="#c8d0d5"/><stop offset="1" stop-color="#b9c0c1"/></linearGradient><linearGradient id="i" gradientUnits="userSpaceOnUse" x1="79" x2="372.6543" y1="282.95383" y2="282.95383"><stop offset="0" stop-color="#8fa2a3"/><stop offset=".10757492" stop-color="#e3e7ea" stop-opacity="0"/><stop offset=".16206075" stop-color="#fff"/><stop offset=".2165466" stop-color="#e2e6e9" stop-opacity="0"/><stop offset=".55827332" stop-color="#b8c4c6" stop-opacity="0"/><stop offset=".89999998" stop-color="#8fa2a3" stop-opacity=".9"/><stop offset="1" stop-color="#8fa2a3"/></linearGradient><linearGradient id="j" gradientTransform="matrix(3.7795274 0 0 3.7795274 -774.51887 341.50647)" gradientUnits="userSpaceOnUse" spreadMethod="reflect" x1="442.30966" x2="466.28079" xlink:href="#h" y1="73.945435" y2="28.346338"/><filter id="k" color-interpolation-filters="sRGB" height="1.040545" width="1.019363" x="-.009682" y="-.020273"><feGaussianBlur stdDeviation=".88915718"/></filter><filter id="l" color-interpolation-filters="sRGB" height="1.0135" width="1.0135" x="-.00675" y="-.00675"><feGaussianBlur stdDeviation=".44648439"/></filter><radialGradient id="m" cx="66.887138" cy="67.891541" gradientTransform="matrix(.82223314 -.82223318 .43895513 .43895512 -18.65232 91.341324)" gradientUnits="userSpaceOnUse" r="80.44656"><stop offset="0" stop-color="#b6d7e7"/><stop offset=".1" stop-color="#b6d7e7" stop-opacity=".9"/><stop offset=".2" stop-color="#e9f4fc" stop-opacity=".8"/><stop offset=".30000001" stop-color="#b6d7e7" stop-opacity=".7"/><stop offset=".40000001" stop-color="#d6e9f3" stop-opacity=".6"/><stop offset=".5" stop-color="#b6d7e7" stop-opacity=".5"/><stop offset=".60000002" stop-color="#d2e6f2" stop-opacity=".4"/><stop offset=".69999999" stop-color="#b6d7e7" stop-opacity=".3"/><stop offset=".80114943" stop-color="#cfe5f1" stop-opacity=".2"/><stop offset=".90402299" stop-color="#c2deec" stop-opacity=".1"/><stop offset="1" stop-color="#b6d7e7" stop-opacity="0"/></radialGradient><radialGradient id="n" cx="66.887138" cy="13.675673" gradientTransform="matrix(2.816988 -2.816988 1.3592245 1.3592246 -186.57759 197.14208)" gradientUnits="userSpaceOnUse" r="80.446564" xlink:href="#p"/><linearGradient id="o" gradientTransform="matrix(.93198789 0 0 .93198786 192.24962 407.40044)" gradientUnits="userSpaceOnUse" spreadMethod="reflect" x1="87.688141" x2="22.92226" xlink:href="#p" y1="85.248062" y2="92.853149"/><linearGradient id="p"><stop offset="0" stop-color="#b6d7e7"/><stop offset=".10114942" stop-color="#b6d7e7" stop-opacity=".9"/><stop offset=".20086206" stop-color="#bcdae9" stop-opacity=".8"/><stop offset=".30057472" stop-color="#b6d7e7" stop-opacity=".7"/><stop offset=".40028736" stop-color="#c8e1ee" stop-opacity=".6"/><stop offset=".5" stop-color="#b6d7e7" stop-opacity=".5"/><stop offset=".59971261" stop-color="#d5e8f3" stop-opacity=".4"/><stop offset=".69942528" stop-color="#b6d7e7" stop-opacity=".3"/><stop offset=".89885056" stop-color="#e9f4fc" stop-opacity=".1"/><stop offset="1" stop-color="#e9f4fc" stop-opacity="0"/></linearGradient><radialGradient id="q" cx="89.94426" cy="89.944153" gradientTransform="matrix(1.6656415 -1.6656415 .80368634 .80369082 -86.047892 213.58149)" gradientUnits="userSpaceOnUse" r="136.05388" xlink:href="#p"/><mask id="r" maskUnits="userSpaceOnUse"><path d="m7.2018077 14.080965h158.7500023v158.750015h-158.7500023z" fill="url(#s)" filter="url(#l)" stroke-width="11.83"/></mask><radialGradient id="s" cx="66.145844" cy="66.145836" gradientTransform="matrix(-1.0000001 .00000145 0 -1 152.72266 159.6017)" gradientUnits="userSpaceOnUse" r="66.145836"><stop offset="0" stop-color="#fff"/><stop offset=".25342461" stop-color="#fff"/><stop offset=".75273961" stop-color="#808080"/><stop offset=".87499994" stop-color="#404040"/><stop offset="1"/></radialGradient><g fill="url(#m)" mask="url(#r)" transform="matrix(3.7795275 0 0 3.7795275 -77.219416 -103.21942)"><path d="m-88.913973-82.03481c-125.155447 125.155444-177.664817 275.56922-117.272057 335.96196 60.39275 60.39274 210.806524 7.88339 335.96197-117.27205 125.15543-125.155442 177.66478-275.56921 117.27204-335.96196-60.39274-60.39276-210.806509-7.8834-335.961953 117.27205z" fill="url(#n)"/><path d="m26.708934 26.708934c-125.155441 125.155436-177.664794 275.569216-117.272048 335.961956 60.392746 60.39275 210.806514 7.88339 335.961954-117.27205s177.6648-275.56921 117.27205-335.961954c-60.39274-60.392746-210.80652-7.883394-335.961956 117.272048z" fill="url(#q)"/></g><g transform="matrix(-1 0 0 1 475.82715 -3.966023)"><path d="m366.80075 128.50391c-6.68642 4.75828-22.11074 10.86874-33.67773 15.03125-24.56432 8.83974-49.95758 15.38082-75.45899 20.96875-37.69351 8.25948-75.75017 16.3608-114.27929 18.48828-17.54037.96853-36.99267 5.35677-52.63477-2.63867-8.603014-6.51778-13.497025-8.27001-11.363281-17.42383l-16.386689 2.76953v273.40625c0 17.43864 15.73876 24.90498 30.964844 27.55859 48.468176 4.76322 100.775276-3.64732 148.363276-14.44922 23.9264-5.51059 57.89068-13.05016 86.93946-23.83007 14.52438-5.38997 27.86663-11.4767 38.74609-19.54493 10.87946-8.06821 20.64063-19.62815 20.64063-34.80273v-260.55469l-16.00189.30697c.008 6.21576-2.29484 12.18336-5.85166 14.71452z" fill="#8fa2a3" fill-rule="evenodd"/><g clip-path="url(#a)"><g fill-rule="evenodd"><path d="m366.80075 128.50391c-6.68642 4.75828-22.11074 10.86874-33.67773 15.03125-24.56432 8.83974-49.95758 15.38082-75.45899 20.96875-37.69351 8.25948-75.75017 16.3608-114.27929 18.48828-17.54037.96853-36.99267 5.35677-52.63477-2.63867-8.603014-6.51778-13.497025-8.27001-11.363281-17.42383l-16.386689 2.76953v273.40625c0 17.43864 15.73876 24.90498 30.964844 27.55859 48.468176 4.76322 100.775276-3.64732 148.363276-14.44922 23.9264-5.51059 57.89068-13.05016 86.93946-23.83007 14.52438-5.38997 27.86663-11.4767 38.74609-19.54493 10.87946-8.06821 20.64063-19.62815 20.64063-34.80273v-260.55469l-16.00189.30697c.008 6.21576-2.29484 12.18336-5.85166 14.71452z" fill="url(#d)" filter="url(#e)"/><path d="m142.58984 198.14453c-.92986.0323-1.85868.0812-2.78906.10547-9.41786.24551-19.4418 1.29196-29.21094 1.31641v252.60937c9.44226.41294 20.32065.1092 32-.75976z" fill="#f1f3f3" filter="url(#c)" opacity=".5" stroke-width="3.77953"/><path d="m366.80075 128.50391c-6.68642 4.75828-22.11074 10.86874-33.67773 15.03125-24.56432 8.83974-49.95758 15.38082-75.45899 20.96875-37.69351 8.25948-75.75017 16.3608-114.27929 18.48828-17.54037.96853-36.99267 5.35677-52.63477-2.63867-8.603014-6.51778-13.497025-8.27001-11.363281-17.42383l-16.386689 2.76953v273.40625c0 17.43864 15.73876 24.90498 30.964844 27.55859 48.468176 4.76322 100.775276-3.64732 148.363276-14.44922 23.9264-5.51059 57.89068-13.05016 86.93946-23.83007 14.52438-5.38997 27.86663-11.4767 38.74609-19.54493 10.87946-8.06821 20.64063-19.62815 20.64063-34.80273v-260.55469l-16.00189.30697c.008 6.21576-2.29484 12.18336-5.85166 14.71452z" fill="url(#i)" filter="url(#b)" opacity=".67"/></g><g transform="matrix(-1 .2215815 0 1 1186.1015 -439.90725)"><g filter="url(#k)" opacity=".667"><path d="m984.59678 575.60811c-4.98188-1.7899-16.07488-8.42966-24.65119-14.75506l-12.5935-8.5007-3-3c4.61002-4.60998 9.22002-9.21998 13.83004-13.82996l3 3 6.48261 5.11686c25.35782 20.01547 49.59436 22.20247 61.34856 2.9268 6.1942-10.15775 5.3269-16.56117-3.429-25.31717-4.2347-4.23461-6.7417-7.6993-5.5712-7.6993 4.5296 0 19.2374 8.96502 25.4663 15.52268 5.4682 5.75649 6.2916 8.09459 5.0461 14.32343-5.3557 26.77803-37.4325 42.45054-65.92872 32.21242zm-121.08317-4.38017c-14.13909-6.35348-19.71356-14.94882-22.90499-32.03339l-1.48054-7.92573 4.65375 9.00454c10.89173 21.07441 22.70065 26.84851 43.71693 24.67941 16.36994-1.68952 29.1607-9.2331 58.60159-34.56144 13.70017-11.78646 29.9498-23.96417 36.11041-27.06158 21.96614-11.04412 48.30224-5.30092 58.88434 12.84108l4.4151 7.56899-7.1882-6.03276c-14.7687-12.39513-35.5338-14.06009-55.40168-4.44214-5.65092 2.73555-21.3423 14.56471-34.86971 26.28701-13.52742 11.72233-30.13719 24.13329-36.91084 27.57992-15.06684 7.66663-35.7263 9.44343-47.62616 4.09609zm-1.47644-15.76234c-8.35812-5.01021-16.70707-14.21014-16.70707-18.41008 0-.8596 1.82059.0846 4.04578 2.09845 6.80797 6.16106 20.15249 10.62757 31.75188 10.62757 15.57595 0 33.11347-9.52106 60.44362-32.81434 29.18624-24.87539 42.6407-31.72723 62.27362-31.71364 11.9925.01 16.701 1.17314 25.4154 6.28753 11.472 6.73274 22.1372 21.79999 22.1372 31.26544 0 1.00446 2.9545 4.74205 2.8391 5.1913-.3955 1.53958-4.6118-3.30706-7.6299-9.40413-9.1582-18.50103-29.8098-29.62388-47.56634-25.61825-14.62458 3.29914-27.52727 11.33713-54.96583 34.24227-14.81414 12.36666-32.08297 25.05017-38.37481 28.18556-15.34196 7.64517-30.97543 7.66748-43.66265.0622zm-2.14115-14.77625c-5.06615-2.50776-12.56379-8.01858-16.66145-12.24621-7.15641-7.38359-7.34048-8.01884-4.66837-16.11505 3.90851-11.84291 16.58032-25.0027 28.43514-29.53012 20.5996-7.86704 44.70553-1.76392 68.77503 19.57467l10.79207 9.56761c-3.90629 3.82582-10.54087 5.96799-15.34268 8.40282-.89655 0-4.98367-3.13257-9.08229-6.96127-12.4429-11.62341-23.90209-16.31316-37.17154-15.21277-25.99352 2.1556-37.11421 23.07454-21.06776 39.63026 8.46126 8.7299 8.18789 8.92707-4.00815 2.89006z" fill="#8fa2a3" opacity="1"/><path d="m990.59678 581.60811c-4.98188-1.7899-16.07488-8.42966-24.65119-14.75506l-15.5935-11.5007c.34249-.34249-3.34249-2.65751-3-3 4.26752-4.26749 12.56251-6.56247 16.83004-10.82996l9.48261 8.11686c24.54242 21.00731 49.59436 22.20247 61.34856 2.9268 6.1942-10.15775 5.3269-16.56117-3.429-25.31717-4.2347-4.23461-6.7417-7.6993-5.5712-7.6993 4.5296 0 19.2374 8.96502 25.4663 15.52268 5.4682 5.75649 6.2916 8.09459 5.0461 14.32343-5.3557 26.77803-37.4325 42.45054-65.92872 32.21242zm-121.08317-4.38017c-14.13909-6.35348-22.71325-17.94888-25.90499-35.03339l-4.48054-10.92573 7.65375 12.00454c12.75326 20.00287 25.70065 29.84851 46.71693 27.67941 16.36994-1.68952 29.1607-9.2331 58.60159-34.56144 13.70017-11.78646 29.9498-23.96417 36.11043-27.06158 21.96612-11.04412 48.30222-5.30092 58.88432 12.84108l4.4151 7.56899-7.1882-6.03276c-14.7687-12.39513-35.5338-14.06009-55.40172-4.44214-5.65088 2.73555-21.34226 14.56471-34.86967 26.28701-13.52742 11.72233-30.13719 24.13329-36.91084 27.57992-15.06684 7.66663-35.7263 9.44343-47.62616 4.09609zm-1.47644-15.76234c-8.35812-5.01021-16.70707-14.21014-16.70707-18.41008 0-.8596 1.82059.0846 4.04578 2.09845 6.80797 6.16106 20.15249 10.62757 31.75188 10.62757 15.57595 0 33.11347-9.52106 60.44362-32.81434 29.18624-24.87539 42.6407-31.72723 62.27362-31.71364 11.9925.01 16.701 1.17314 25.4154 6.28753 11.472 6.73274 22.1372 21.79999 22.1372 31.26544 0 3.7677-.8696 4.55276-3.4368-.32227-.4627-.87853-.7587-2.68791-1.354-3.89056-9.1582-18.50103-29.8098-29.62388-47.5663-25.61825-14.62462 3.29914-27.52731 11.33713-54.96587 34.24227-14.81414 12.36666-32.08297 25.05017-38.37481 28.18556-15.34196 7.64517-30.97543 7.66748-43.66265.0622zm-2.14115-14.77625c-5.06615-2.50776-12.56379-8.01858-16.66145-12.24621-7.15641-7.38359-7.34048-8.01884-4.66837-16.11505 3.90851-11.84291 16.58032-25.0027 28.43514-29.53012 20.5996-7.86704 44.17976-1.15571 68.77503 19.57467l4.79207 3.56761 3 3c-3.90629 3.82582-7.54087 8.96799-12.34268 11.40282-.89655 0-4.98367-3.13257-9.08229-6.96127-12.4429-11.62341-23.90209-16.31316-37.17154-15.21277-25.99352 2.1556-37.11421 23.07454-21.06776 39.63026 8.46126 8.7299 8.18789 8.92707-4.00815 2.89006z" fill="#f1f3f3" opacity="1" stroke-width="3.77953"/></g><path d="m987.59678 578.60811c-4.98188-1.7899-16.07488-8.42966-24.65119-14.75506l-15.5935-11.5007c4.61002-4.60998 9.22002-9.21998 13.83004-13.82996l9.48261 8.11686c24.54242 21.00731 49.59436 22.20247 61.34856 2.9268 6.1942-10.15775 5.3269-16.56117-3.429-25.31717-4.2347-4.23461-6.7417-7.6993-5.5712-7.6993 4.5296 0 19.2374 8.96502 25.4663 15.52268 5.4682 5.75649 6.2916 8.09459 5.0461 14.32343-5.3557 26.77803-37.4325 42.45054-65.92872 32.21242zm-121.08317-4.38017c-14.13909-6.35348-22.71325-17.94888-25.90499-35.03339l-1.48054-7.92573 4.65375 9.00454c10.89178 21.07438 25.70065 29.84851 46.71693 27.67941 16.36994-1.68952 29.1607-9.2331 58.60159-34.56144 13.70017-11.78646 29.9498-23.96417 36.11041-27.06158 21.96614-11.04412 48.30224-5.30092 58.88434 12.84108l4.4151 7.56899-7.1882-6.03276c-14.7687-12.39513-35.5338-14.06009-55.40168-4.44214-5.65092 2.73555-21.3423 14.56471-34.86971 26.28701-13.52742 11.72233-30.13719 24.13329-36.91084 27.57992-15.06684 7.66663-35.7263 9.44343-47.62616 4.09609zm-1.47644-15.76234c-8.35812-5.01021-16.70707-14.21014-16.70707-18.41008 0-.8596 1.82059.0846 4.04578 2.09845 6.80797 6.16106 20.15249 10.62757 31.75188 10.62757 15.57595 0 33.11347-9.52106 60.44362-32.81434 29.18624-24.87539 42.6407-31.72723 62.27362-31.71364 11.9925.01 16.701 1.17314 25.4154 6.28753 11.472 6.73274 22.1372 21.79999 22.1372 31.26544 0 3.7292-.6274 3.78001-3.1295-.94644-.4814-.90935-1.0322-1.99554-1.6613-3.26639-9.1582-18.50103-29.8098-29.62388-47.5663-25.61825-14.62462 3.29914-27.52731 11.33713-54.96587 34.24227-14.81414 12.36666-32.08297 25.05017-38.37481 28.18556-15.34196 7.64517-30.97543 7.66748-43.66265.0622zm-2.14115-14.77625c-5.06615-2.50776-12.56379-8.01858-16.66145-12.24621-7.15641-7.38359-7.34048-8.01884-4.66837-16.11505 3.90851-11.84291 16.58032-25.0027 28.43514-29.53012 20.5996-7.86704 44.17976-1.15571 68.77503 19.57467l7.79207 6.56761c-3.90629 3.82582-7.54087 8.96799-12.34268 11.40282-.89655 0-4.98367-3.13257-9.08229-6.96127-12.4429-11.62341-23.90209-16.31316-37.17154-15.21277-25.99352 2.1556-37.11421 23.07454-21.06776 39.63026 8.46126 8.7299 8.18789 8.92707-4.00815 2.89006z" fill="url(#j)"/></g></g><g fill-rule="evenodd"><path d="m339.48242 82.986328c-18.31018-.157941-34.80081 11.407111-52.27009 16.894531-19.02467 5.976001-37.75675 13.116971-57.22014 17.456011-16.42593 3.66189-33.31073 4.82532-49.97508 7.17485-12.28587 1.73221-24.57815 3.41879-36.87063 5.10351-20.20459 2.76911-43.20926-2.3847-60.624826 8.22621-9.683232 5.89978-19.521654 16.49919-19.521654 27.85778s7.231134 21.1479 16 26.68753c17.213719 10.87456 40.44675 6.39394 60.80078 5.86335 40.86362-1.06525 81.23202-9.95691 121.28711-18.11533 25.12319-5.11709 50.21674-10.94472 74.45691-19.29777 12.75238-4.3944 27.274-6.90329 37.1095-16.1335 8.52716-8.00239 16-21.97321 16-31.22108s-3.12491-12.25602-7.56836-16.251951c-10.89918-9.801475-26.94593-14.117707-41.60352-14.244141z" fill="#8fa2a3"/><path d="m90.749908 180.35434c15.642112 7.99545 35.094912 3.60545 52.635292 2.63692 38.52917-2.12747 76.58442-10.22701 114.27797-18.4865 25.50143-5.58793 50.89572-12.12952 75.46006-20.96927 11.56699-4.16251 25.19651-6.13224 33.67699-15.03187 3.70735-3.89058 5.85404-8.85797 5.85404-15.02197s-15.49036-12.87667-24.97013-14.09137c-20.42793-2.617556-39.99821 9.90372-59.72579 15.81766-18.30271 5.48679-35.73456 13.90646-54.3468 18.2283-17.00076 3.94765-34.60665 4.56367-51.89883 6.928-12.29104 1.68053-24.52246 3.834-36.85691 5.15882-15.97236 1.71557-33.33923-2.82909-48.057472 3.60775-7.426267 3.24778-17.798248 7.12776-17.798248 16.56805s6.174582 11.8057 11.749828 14.65548z" fill="url(#f)"/><path d="m283.05957 101.2336c6.93227 6.94216 12.15235 16.32541 12.15235 27.85742-.00001 17.09341-11.45347 29.48886-22.98243 36.16602-11.2771 6.53128-24.56152 9.61133-38.61718 9.61133-14.05569 0-27.34047-3.08028-38.61719-9.61133-11.52856-6.67693-22.98438-19.07183-22.98438-36.16602 0-1.18996.06665-2.35202.17383-3.49609 2.61024-.36425 5.22232-.71604 7.83203-1.08399 16.66434-2.34952 33.55065-3.51194 49.97657-7.17382 18.04338-4.02248 35.46426-10.42551 53.0664-16.10352z" fill="#8fa2a3"/><path d="m180.00977 95.658898.009 35.371372c-.002 3.3548.61372 6.46866 1.69394 9.33397 3.18846 8.45755 10.4214 14.74963 17.73671 18.68068 9.79364 5.26284 21.4555 7.82422 34.16211 7.82422 12.7066 0 24.36847-2.56137 34.16211-7.82422 9.79363-5.26284 19.43945-14.75748 19.43165-28.0332l.008-35.352822" fill="#68423a"/><path d="m271.21294 130.66242c0 11.15939-16.8346 20.20587-37.60114 20.20587s-37.60115-9.04648-37.60115-20.20587l.00001-35.003126 75.20228.000004z" fill="#b06f48" stroke-width="16"/><path d="m271.21294 130.66242c0 11.15939-16.8346 20.20587-37.60114 20.20587s-37.60115-9.04648-37.60115-20.20587l.00001-35.003126 75.20228.000004z" fill="url(#g)" opacity=".5" stroke-linecap="round" stroke-linejoin="round" stroke-width="32"/><path d="m233.61133 57.881554c-12.88728.000001-24.74674 2.823393-34.60547 8.533203s-18.9961 15.765429-18.99609 29.244141c0 13.478712 9.13736 23.534332 18.99609 29.244142s21.71819 8.5332 34.60547 8.5332c12.88727 0 24.74869-2.82339 34.60742-8.5332s18.99413-15.76543 18.99414-29.244142c0-13.478712-9.13541-23.534331-18.99414-29.244141s-21.72014-8.533202-34.60742-8.533203z" fill="#68423a"/><path d="m271.21294 95.659298c-.00001 12.027202-16.83461 21.777172-37.60114 21.777172s-37.60113-9.74997-37.60114-21.777172c0-12.027203 16.8346-21.77718 37.60114-21.777181 20.76654.000001 37.60114 9.749978 37.60114 21.777181z" fill="#b06f48" stroke-width="16"/><path d="m230.4541 73.966022c-8.83221 2.633441-18.43367 3.326211-25.57226 11.22461-2.15328 1.477208-4.48477 2.510884-6.83399 3.396484.91126-1.53742 2.1073-2.997158 3.5586-4.357422.14726-.054724.29688-.098301.4414-.169922-.07384.001817-.19298.014267-.27343.017579 2.3863-2.195691 5.42826-4.126642 8.9707-5.701172 4.41172-1.266295 9.20287-2.744952 12.45312-3.458985.55923-.137789 1.11709-.293166 1.67579-.4375 1.81294-.249981 3.67593-.4219 5.58007-.513672zm15.22071 1.06836c.85622.167934 1.702.346865 2.52929.548828-.45491-.002329-.90957-.004228-1.36718-.03125-9.05106 2.385238-18.51686 2.107151-27.28321 6.392578-6.25893 4.233441-13.09614 6.477369-19.74804 9.314453-1.14657.478929-2.26317.823602-3.36914 1.117188.13085-.501158.2995-.995034.48828-1.484375.04817-.011416.16866-.035065.20898-.044922 5.93966-1.440795 11.52447-4.29363 17.17383-6.867188 9.89559-6.36544 20.86907-6.147859 31.36719-8.945312zm5.72656 1.4375c1.20315.37496 2.3663.786378 3.48633 1.232422-2.13484.523127-4.30456.883665-6.47461 1.042968-2.85057-.802559-11.86752 2.206194-4.01758.980469 5.59165-.164656-5.34891 2.387711-5.12109 1.341797-1.39772.26761-3.60109.219649-5.89844.761719-1.8286.114394 2.70281-1.545236-1.93164-.53125-.80594-.386504-2.69374 1.45306-1.97266 1.478515-2.29865.728377-9.49894 1.058286-1.75781.703125 2.594.513077-4.81382 2.635787-5.78516 2.414063-7.91714 1.988243 5.95517-1.257023.5918 1.527344-.22021.806681-7.36635 2.545562-.78711 1.195312-1.35142 1.714086-5.56738 1.559757-1.34766 1.332031-3.19362 1.447943-5.01972 1.259098-1.29296 1.134766-5.49465 3.175361-12.10978 4.911984-18.41797 5.826172-1.18935.51455-2.71182.937985-4.40235 1.287109-.16721-.833449-.26172-1.67963-.26172-2.539062 0-.490762.03857-.976313.09375-1.458985 5.19197-1.120016 9.9776-2.063737 15.12696-4.521484 2.96936-2.068607 7.59033-2.138888 10.54687-5.087891.77448-.691233 3.992-3.553833 7.04883-3.414062 3.99449-1.125683 7.82387-.072864 11.64648-2.806641 3.70059-.864179 7.31001-1.355499 10.92774-1.898437zm-2.49414.435547c-.15442.0825.07694.455416.29687.052734-.15232-.07713-.24541-.080164-.29687-.052734zm-6.07227 1.443359c-.64254.023827-.00333.579642.35742.027344-.1487-.023081-.26563-.030748-.35742-.027344zm11.41016.070313c.0129-.0178.03537-.008937.07617.064453-.0509.301651-.11515-.011173-.07617-.064453zm-.35352.257812c-2.16288 1.221472-12.11352 4.867388-9.93945 2.099609 4.03266-.205616 6.06003-1.954889 9.93945-2.099609zm-14.84961.15625c.013-.01724.03948-.00398.08008.068359-.052.296984-.1191-.016419-.08008-.068359zm-2.11914.644531c.05049.016674.12062.053514.21289.117188.00032.549134-.41619-.013364-.3125-.113281.01725-.01668.04913-.02058.09961-.003907zm-.51172.261719c.0134-.01725.03888-.0061.08008.068359-.0544.299883-.12033-.016769-.08008-.068359zm22.91797.039063c.34339.186615.68454.374469 1.01563.568359-9.35014 3.349768-19.03847 4.065835-28.32422 7.673828-8.26718 6.298076-17.8622 8.506301-27.0918 10.4375-2.78822.275155-5.57526.595341-8.36328.912109-.03735-.125875-.08163-.250349-.11523-.376953 2.21676-.235144 4.43385-.501545 6.65429-.841797 8.64435-.906281 17.27731-3.675103 25.3418-8.15625 7.62328-7.139702 17.52226-4.150341 25.85156-8.808593 1.68276-.436929 3.35623-.927082 5.03125-1.408203zm-23.16601.023437-.10156.197266zm-.36133.076172-.10352.197266zm4.34961.132812c-.12081.05305.00991.355271.21094.060547-.10308-.0693-.17066-.078226-.21094-.060547zm.90234.333985c-.11981.05441.01707.354921.21289.058594-.10423-.06784-.17293-.076724-.21289-.058594zm1.33985.15039c-2.26355.05564-2.83234 1.000766 0 0zm-2.50782.435547c-.039.05194.02633.361501.07813.064453-.0406-.072639-.06513-.081803-.07813-.064453zm1.97461.269532c.07748-.000754.17244.010674.28711.037109-.43938.458269-.73505.107784-.46875-.005859.0444-.01892.10417-.030497.18164-.03125zm-12.19922.314453c-.0392.05127.02358.368307.07618.070312-.0406-.07445-.06308-.087452-.07618-.070312zm12.66602.304687-.10156.195313zm-7.05469.095703-.10156.19336zm-8.25195.136719c-.15398.08262.07814.462687.29687.056641-.15221-.0787-.24554-.084171-.29687-.056641zm3.60937.492188-.08593.36914zm33.57422.458984c.27373.221561.54319.444229.80274.671875-2.13054.490738-4.2611.980753-6.39453 1.435547-7.45848 2.669167-15.22203 3.224773-22.52735 6.765625 5.86215-3.436421-10.32479 3.813072-.67968-.556641 3.93927-1.749437 5.78867-1.237364 6.54687-2.679687 7.49063-1.291481 14.83164-3.72144 22.25195-5.636719zm-34.70312.255859c.0493.000167.12226.04297.21289.164063-.31078.216328-.36099-.164567-.21289-.164063zm-6.19922.310547c-.12011.05328.00795.360922.20898.064453-.10195-.06996-.16894-.082253-.20898-.064453zm43.51562 1.867188c.21781.23688.42985.476759.63282.71875-7.77284 1.516482-15.53349 3.159195-23.2461 5.261718-6.46958 2.574157-3.14937.574942 1.04297-.705078 7.14876-2.115187 14.34993-3.779965 21.57031-5.27539zm-44.84375 1.898437c-.04.05216.02638.365099.08008.066406-.0412-.073099-.06668-.083746-.08008-.066406zm23.5254.978516c-3.57289.218892-4.08089 1.251484 0 0zm24.03906.90039c.07927.14844.14679.299441.2207.449219-13.39017 1.959327-26.70661 4.848327-39.74414 9.650391-9.94945 2.500628-19.95184 4.529158-29.98828 6.132808-.05459-.06269-.11245-.12446-.16602-.1875 3.17465-.4938 6.34202-1.09327 9.4961-1.88086 13.38817-1.685 26.42699-6.491742 39.55664-10.351558 6.8415-1.615072 13.73166-2.746288 20.625-3.8125zm-23.96289 1.003907-.10157.199218zm-1.54883.503906c-2.49552 1.73645-12.05253 4.218326-3.66211 1.214844 1.1843-.441528 2.46338-1.114862 3.66211-1.214844zm-8.44531 1.085937c-2.92108 2.398078-12.40588 4.462634-3.55078 1.464844l1.76367-.746094zm35.07617.134766c.03524.118702.07746.236118.10937.355469-13.61356 1.944761-26.97615 6.028965-40.29492 10.279293-9.05782 2.41542-18.17656 4.19245-27.30859 5.85157-.12066-.09633-.23944-.19351-.35742-.29102 14.26062-2.55431 28.48048-5.42034 42.43554-10.503906 8.38333-2.696095 16.8963-4.236173 25.41602-5.691406zm-54.25.251953c-.1203.05334.01537.347758.21289.056641-.10413-.06683-.17278-.074501-.21289-.056641zm14.9668.855469c.04009-.01774.10725-.008006.21093.058594-.19831.29241-.33123-.004994-.21093-.058594zm23.92968.193359c.05687-.024412.11885-.026358.1836.003907.074.03461.15117.111368.22851.246093-.95565 1.17888-.81021-.079111-.41211-.25zm-24.39453.074219-.10351.197266zm7.51367.041016c.1271.01545.2351.0616.32032.146484-2.60001.989089-10.98731 3.849974-3.7168.916016.7289.207909 2.50675-1.170427 3.39648-1.0625zm15.76563.095703c.19544.02614.42778.085377.69922.191406-1.39221.940551-1.91622-.006673-1.17578-.181641.1234-.029119.28112-.035905.47656-.009765zm-24.21094.158203c.13394-.005193.25392.012905.35547.056641-3.27221 1.821669-11.19637 3.110093-3.7168 1.253906.80105-.179367 2.42379-1.274195 3.36133-1.310547zm5.33789.345703-.10351.199219zm-1.19336.429688c-3.82433 2.056726-9.05909 3.008652-2.88672 1.855468-5.27262 2.270392-13.656 2.606945-17.45507 4.558591-4.77171.62516-10.13092 1.83602-15.28516 2.64063-.11953-.18074-.23627-.36191-.34766-.54492 7.12095-.93649 14.20991-2.29809 21.22852-4.236332 6.41942-.830455 7.06878-1.225963 3.19726-.958984 3.93639-.615557 7.72577-1.883434 11.54883-3.314453zm12.88477 1.11914-.10352.199219zm-21.17969.097656c.0134-.017199.03888-.003977.08008.070313-.0544.299879-.12032-.018713-.08008-.070313zm-.36914.087891-.10352.199219zm20.71875.166016-.10352.195312zm-21.06445.083984c-5.8417 1.990678-9.92359 2.386414-13.4668 3.685547-4.63528 1.105325-9.30174 1.850845-13.98242 2.431645-.0843-.15896-.15624-.32194-.23438-.48243 1.78675-.2128 3.50394-.46147 5.10352-.76757 5.22807-.37511 9.85777-1.474529 14.66015-3.375004 2.59214.133631 1.69526-.266962 3.57618-.931641 3.45035-.980827-1.55953 1.135114 3.40039-.535156zm18.6582.597656c-13.37984 5.785146-27.48604 8.497226-41.51953 11.128906-.2285-.19971-.45262-.40121-.66992-.60547 2.64315-.56031 5.28134-1.16028 7.90625-1.8789-2.79534.54691-5.5979.99133-8.4043 1.39257-.24586-.24515-.48524-.49304-.71484-.74414 13.5077-1.861 26.97404-4.39101 40.11132-8.769528l1.59961-.171875zm27.39258.246094c-.02359.267591-.06536.531921-.10547.796875-7.50166 1.051075-14.94762 2.978977-22.44531 3.703127 3.6787-.60143 10.49578-2.52008 3.08398-.88867-3.93684 1.03336-17.7456 4.55043-7.23633 1.39257 8.8553-2.127302 17.76563-3.800252 26.70313-5.003902zm-53.57813 1.027344c-1.67648-.08026-1.91285.814404 0 0zm53.19141 1.171875c-.09756.368419-.21278.733611-.3418 1.095703-.79874.14167-1.5964.3029-2.38867.50781-2.68464-.26265-14.82851 3.39417-13.12305 1.61133 5.17552-1.14652 10.51307-2.384897 15.85352-3.214843zm-51.9375.134765c-1.83294-.049179-2.34029.836331 0 0zm-5.01758 1.292968c-.0392.0513.02533.36831.07813.07031-.0406-.0745-.06503-.08741-.07813-.07031zm55.92578 1.26172c-.16975.34251-.35317.68221-.55078 1.01758-3.55111.49818-7.01451 1.00896-10.5332 1.54297-8.32111 1.61963-16.55635 4.03327-24.90039 5.42968 6.30383-1.82942 13.24915-3.02893 19.75195-4.58203 5.37864-1.48339 10.79593-2.59831 16.23242-3.4082zm-22.41406.4043c-3.49166 1.38144-12.82226 3.58833-4.47461.91992 1.47104-.46833 2.96372-.85123 4.47461-.91992zm5.42969.94922-.10157.19726zm-.48438.0996-.10156.19922zm-12.98242.29688-.10156.19922zm-1.06641.39453c.0129-.0178.03723-.00619.07813.06641-.0509.30165-.117-.01311-.07813-.06641zm-.24804.06055-.10352.19726zm22.95312.21484-.10351.19922zm-23.7832.13477-.10352.19726zm23.56055.08789c-4.68089 1.80385-10.59565 1.86136-2.7461.37695l.94336-.17773zm-25.38086.29687-.08399.36914zm2.74218.1211-.10546.19531zm-3.15429.66601-.10157.19531zm-1.14844.48438c-2.03371 1.09505-6.43082.84572 0 0zm18.44922.33398c.30166-.00183.59824.01531.88867.05469-1.26323.15518-12.9817 3.36853-7.53711 1.26562 2.1801-.3874 4.53684-1.30745 6.64844-1.32031zm-25.54688.54688c.0514-.0277.14631-.02237.29883.05273-.2189.40064-.45303.03027-.29883-.05273zm-.39062.09961c.0134-.0174.03692-.00534.07812.06836-.0537.29879-.11802-.01616-.07812-.06836zm-.36914.08789-.10352.19726zm-.24219.05273-.08594.36719zm.93359.30859c.16781-.00151.36579.01711.59375.06641-1.27541.85594-1.66479.20301-1.00976-.00781.10917-.03525.24821-.05708.41601-.0586zm37.60743.99024c-.41056.33256-.83591.65831-1.27735.97656-.10899.01814-.21916.03254-.32812.05078-5.36199 1.68836-11.18572 2.85248-16.46875 3.65625 4.21214-1.02048 17.77576-4.24605 6.84179-1.86914-3.31426 1.03647-9.97954 1.82772-2.91406.27735 4.68994-1.31772 9.41154-2.27949 14.14649-3.0918zm-21.66797.02539-.10157.19727zm-20.07422.05078c-4.55349.78233-9.25633 2.15344-13.76953 2.21094 4.52784-.81631 9.44016-1.92041 13.76953-2.21094zm18.86328.20508-.10352.19726zm-.95117.35351c-4.85191 1.49548-10.38613 2.2594-15.5 3.47461 4.19625-2.37656 10.68965-2.09692 15.5-3.47461zm-28.68164.66016c.013-.0173.03752-.00639.07812.06641-.052.29698-.11716-.01451-.07812-.06641zm47.95898.00977c-.11963.0546.01463.35746.21094.06054-.10358-.0679-.17107-.07884-.21094-.06054zm-27.52148.14257c.30669.00052.60772.02161.89843.06641-3.55243 1.05796-17.86502 3.0949-7.74804 1.08203 1.89291-.16402 3.99574-.89315 5.91015-1.0957.31907-.03375.63277-.05325.93946-.05274zm26.58593.02344c-.15443.0824.07891.45708.29883.05469-.15236-.077-.24736-.08229-.29883-.05469zm-50.59375.29688c.8937-.03269.74549.20113-1.33984.84179-.31607-.18636-.62917-.37553-.93359-.56836.91053-.14245 1.75516-.25443 2.27343-.27343zm52.00586 1.01758c-6.28859 3.62506-14.78141 5.96504-24.21093 6.29687 4.56834-1.35531 9.86591-2.51389 14.3457-3.86914 3.28111-.88927 6.56998-1.69117 9.86523-2.42773zm-37.22265 1.09765c.50729-.0288 1.00103.0108 1.46679.1582-3.51288 1.57846-15.87171 1.31589-6.11718.76758 1.47242-.14942 3.12851-.83942 4.65039-.92578zm-4.7461.04297c.45583-.01131.99298-.00135 1.61719.03906-3.94442 1.15154-4.80797.04014-1.61719-.03906zm27.08789.5957c-4.56024 1.65893-5.79858.10308 0 0zm-31.60351.03711-.10352.19922zm31.29297.55078-.10352.19727zm-4.19336.18946-.10547.19531zm-10.875 2.64648-.10352.19727z" fill="#68423a" opacity=".75"/></g></g><path d="m1357.137 767.40201-11.4213 10.55462c-1.1774 7.14533-2.5875 14.54709-1.3562 21.68328 6.3661 36.89096 17.5058 76.97986 44.1694 103.2577 25.6958 25.32412 64.0438 41.17262 100.1214 41.11122 36.7143-.0624 75.6916-16.31497 101.745-42.18337 26.2948-26.10818 37.2786-65.82063 43.3046-102.38215 1.168-7.08588-.3642-14.40881-1.58-21.48668l-10.8214-11.96563z" fill="url(#o)" opacity=".75"/></svg>