<svg height="500" viewBox="0 0 132.29167 132.29167" width="500" xmlns="http://www.w3.org/2000/svg" xmlns:xlink="http://www.w3.org/1999/xlink"><linearGradient id="a" gradientTransform="matrix(.31103553 0 0 .31103553 -20.191373 59.807722)" gradientUnits="userSpaceOnUse" spreadMethod="reflect" x1="1650.4769" x2="1352.7936" xlink:href="#g" y1="-162.9362" y2="219.81471"/><linearGradient id="b" gradientTransform="matrix(.31103553 0 0 .31103553 -20.191373 59.807722)" gradientUnits="userSpaceOnUse" spreadMethod="reflect" x1="1095.8915" x2="1023.1702" xlink:href="#g" y1="-57.071743" y2="6.281296"/><linearGradient id="c" gradientTransform="matrix(.31103553 0 0 .31103553 -20.191373 59.807722)" gradientUnits="userSpaceOnUse" spreadMethod="reflect" x1="930.47833" x2="1008.1326" xlink:href="#g" y1="21.123589" y2="208.38617"/><linearGradient id="d" gradientTransform="matrix(.31103553 0 0 .31103553 -20.191373 59.807722)" gradientUnits="userSpaceOnUse" spreadMethod="reflect" x1="1264.3123" x2="1032.1927" xlink:href="#g" y1="-42.635685" y2="220.41621"/><linearGradient id="e" gradientUnits="userSpaceOnUse" spreadMethod="reflect" x1="420.8757" x2="433.36554" y1="50.938343" y2="45.789101"><stop offset="0" stop-color="#80aee7"/><stop offset="1" stop-color="#a7c8f1" stop-opacity=".5"/></linearGradient><linearGradient id="f" gradientUnits="userSpaceOnUse" spreadMethod="reflect" x1="407.97952" x2="412.56485" xlink:href="#g" y1="54.841484" y2="84.470406"/><linearGradient id="g" gradientTransform="matrix(391.593 0 0 -391.593 60.7962 7618.49)" gradientUnits="userSpaceOnUse" spreadMethod="pad" x1="0" x2="1" y1="0" y2="0"><stop offset="0" stop-color="#e3e1db"/><stop offset=".51123601" stop-color="#c1c0be"/><stop offset="1" stop-color="#a2a19a"/></linearGradient><g><g id="h" stroke-width="1.08518" transform="matrix(.92323748 0 0 .91977982 -222.14531 2.474577)"><path d="m456.04687 45.792969c-3.36263-.100912-6.66762 1.778464-8.15039 4.982422l-18.47656 39.90039v.002c-1.9724 4.268966-.086 9.466089 4.17774 11.460939h.004l19.42383 9.06446-.008.008 6.69531 3.11133.008.004c4.26695 1.98304 9.48132.0685 11.45899-4.20117v-.002l18.47851-39.898444.002-.0039c1.96946-4.264576.084-9.464773-4.18555-11.457031l-.004-.002-26.10742-12.183594c-1.0681-.498316-2.19553-.751519-3.31641-.785156z" fill="#2776d9" stroke-linecap="round"/><path d="m461.89829 109.63862-26.10964-12.181716c-1.72757-.808266-2.48123-2.872164-1.67728-4.612188l18.47509-39.898075c.80395-1.737175 2.86295-2.491591 4.59208-1.684879l26.10963 12.185081c1.73067.806453 2.48123 2.870611 1.67909 4.607528l-18.47767 39.898079c-.80472 1.73821-2.86244 2.49003-4.59156 1.68643z" fill="url(#f)" stroke-width="10.3363"/><path d="m461.89829 109.63862-26.10964-12.181716c-1.72757-.808266-2.48123-2.872164-1.67728-4.612188l18.47509-39.898075c.80395-1.737175 2.86295-2.491591 4.59208-1.684879l26.10963 12.185081c1.73067.806453 2.48123 2.870611 1.67909 4.607528l-18.47767 39.898079c-.80472 1.73821-2.86244 2.49003-4.59156 1.68643z" fill="url(#e)" stroke-linecap="round" stroke-width="10.3363"/><use stroke-width="4.02501" transform="matrix(-.24403235 -.11384928 -.11342289 .24494973 576.77864 116.24743)" xlink:href="#k"/><use transform="matrix(-1 0 0 -1 919.0782 160.897378)" xlink:href="#i"/><use id="i" stroke-width="12.6782" transform="matrix(.07746966 .03615301 -.03601759 .07776089 417.78966 76.529075)" xlink:href="#l"/><path d="m456.04674 45.793064c-3.36263-.100912-6.66747 1.778396-8.15024 4.982351l-18.47671 39.900386v.0022c-1.9724 4.268962-.0859 9.466019 4.17783 11.460869h.004l19.42377 9.06408-.008.008 6.6955 3.11088.008.004c4.26695 1.98304 9.48114.0688 11.45881-4.20084v-.002l18.47895-39.898134.002-.0039c1.96945-4.264571.0839-9.464679-4.18567-11.456935l-.004-.0022-26.10752-12.183388c-1.06809-.498315-2.19552-.751808-3.3164-.785445zm-.20206 5.147531c.44875.01557.90155.119691 1.33384.321369l26.10975 12.185074c1.73067.806452 2.48133 2.870692 1.67919 4.607607l-18.47783 39.897575c-.80471 1.73821-2.86235 2.49023-4.59147 1.68663l-26.10975-12.181703c-1.72757-.808265-2.4809-2.872641-1.67696-4.612664l18.47503-39.897576c.60297-1.30288 1.91194-2.053034 3.2582-2.006312z" fill="#2776d9"/></g><g><use id="j" stroke-width="1.18856" transform="matrix(1.197529 .13875408 -.45717003 .53814111 -115.43555 45.316909)" xlink:href="#h"/><use transform="translate(-.000003 -5.239341)" xlink:href="#j"/><use transform="translate(-.000003 -10.478682)" xlink:href="#j"/><use transform="translate(0 -15.718023)" xlink:href="#j"/></g><g><use transform="matrix(.29002619 -.95701871 .95701871 .29002619 -99.921058 238.663631)" xlink:href="#h"/><use transform="matrix(.42399848 -.9056629 .9056629 .42399848 -116.661756 207.152519)" xlink:href="#h"/><use transform="matrix(.73910264 -.67359282 .67359282 .73910264 -163.778328 110.856204)" xlink:href="#h"/><use transform="matrix(.82675232 -.56256608 .56256608 .82675232 -145.553738 98.099375)" xlink:href="#h"/><use transform="matrix(.90682562 -.42150598 .42150598 .90682562 -138.38984 64.634068)" xlink:href="#h"/></g><g id="k"><path d="m484.01213 79.829704c3.46233.338473 7.21863.423841 10.28671.0082 4.08339-.557358 7.30107-3.587402 8.26926-7.085873.99769-3.605057-1.7985-7.341163-3.55482-10.643761-1.41925-2.668755-5.29902-7.603256-8.938-10.347543-5.78437-4.362209-12.33172-7.284536-19.7202-9.138075 1.45831-3.883564 2.95141-7.849533 2.53574-11.42876 3.85257-2.119889 4.48361-10.398221 3.91868-13.617099-.7455-3.957555-3.21946-7.6924017-6.3996-10.5690028-3.166-2.885512-6.92614-4.8582358-10.71195-5.378121-3.65934-.77535169-7.3809-.317722-9.93056 1.8843283-3.87689-2.0799437-10.56396 2.5638772-12.97647 4.714441-3.18552 2.8766115-5.65914 6.6158385-6.40511 10.5723465-.74597 3.956507-.19238 8.051477 2.03232 11.896549.63327 1.088048 1.7179 1.837839 2.95951 2.04587.0975 3.525274.97365 6.852769 2.46187 9.752893-11.12951 2.469362-19.07032 7.439322-24.2378 12.939262-5.33675 5.680104-7.83684 11.693903-7.56738 15.85108.75396 5.658532 3.22152 7.524759 8.19422 8.406872 3.01118.511296 6.33725.449009 9.24749.149828 4.23252 5.736375 7.91928 13.04914 8.43049 19.244821-.85545 7.16724-6.27045 10.65892-12.21889 12.9744-4.45817 1.67058-10.13802 3.00106-16.92765 3.9765l-14.50609 2.08412 13.38265 5.97276c15.32457 6.83866 32.45496 11.99079 47.7383 7.66981 8.8563-2.48917 16.99652-8.30497 23.32015-18.54202 5.6493-11.29918 9.49094-22.861062 11.31713-33.393826z" fill="#7f7e75"/><path d="m454.12688 19.45783c-4.48968 4.823726-9.71046 9.489863-14.52563 12.625917 0 8.42698 5.34458 15.173855 12.17083 16.443855v-6.641042l-5.23875 1.957917-1.69333-4.445 9.31334-3.4925 9.31333 3.4925-1.69333 4.445-5.23875-1.957917v6.641042c6.82625-1.27 12.17083-8.016875 12.17083-16.708438-5.31813-3.50573-10.58333-7.948084-14.57854-12.361334zm-1.77271-12.5703549c-.37394 3.0202261 3.19962 6.9202909 4.63021 8.5830839 3.65125 4.243916 8.99583 8.747125 14.12875 11.890375 1.77271-3.066521 2.11666-5.924021 1.61396-8.612188-.60855-3.212042-2.54-6.238875-5.15938-8.606896-2.59292-2.3653749-5.84729-4.0243125-8.70479-4.5852291-2.23599-.3769769-4.88715-.2606324-6.50875 1.3308542zm-12.72646 4.4820419c-2.61938 2.365375-4.55083 5.394854-5.15938 8.60425-.5027 2.685521-.15875 5.540375 1.61396 8.60425 5.55852-3.956272 11.09613-8.016386 14.97542-12.887854-1.80641-2.635619-3.61292-5.621215-3.55865-8.6016046-2.6326.5847292-5.51656 2.1431251-7.87135 4.2809586zm1.03187 50.651834c4.02167.423334 8.30792 1.137709 11.95917 2.645834l-5.715-12.7c-2.75167-1.243542-5.15937-3.148542-7.11729-5.556251-21.88104 4.445001-29.77886 18.732501-29.81325 25.849793.78718 3.84565 8.71143 3.677083 11.34533 3.518958 6.90563-.449792 16.37771-2.831042 26.93459-7.540625-2.48709-.714375-5.34459-1.190625-8.09625-1.508125-4.78896-.502708-11.40355-2.883958-11.40355-2.883958s6.7998-2.381251 11.90625-1.825626zm27.78126-15.504583c-1.95792 2.38125-4.36563 4.259792-7.1173 5.476875l-1.79916 4.048125c3.86291-.661458 7.96396-1.084792 12.03854-1.164167 3.75708-.05292 7.48771.185209 11.05958.79375 2.80459.502709 5.50334 1.27 7.99042 2.354792-6.38125-5.903535-15.37769-9.96026-22.17208-11.509375zm-11.29771 14.843125-2.01084 4.524375c.0265.02646.0529.02646.0794.05292 12.48833 6.244167 23.94479 9.419167 31.98812 9.948333 2.64195-.0319 10.98316.497993 11.13896-3.307291-1.95791-7.170209-8.17562-10.742084-16.56291-12.197292-2.64584-.47625-5.47688-.687917-8.3873-.714375-5.59657.08944-11.42752.693932-16.24543 1.69333zm-35.95688 54.662917c-4.86833 1.82563-10.82675 3.20146-17.82498 4.20688 14.94102 6.6675 31.29227 11.2977 44.8654 7.46125 7.91104-2.2225 15.00187-7.19667 20.82271-16.61584 5.66823-10.09866 8.76597-20.315981 10.68916-31.379581-7.46125-1.455209-16.24541-4.418542-25.5852-8.969376-9.39271 4.577292-18.15042 7.514167-25.58521 8.916459 4.65083 6.377349 7.18615 12.857388 7.59354 19.393957-.28182 9.384971-8.2735 14.422681-14.97542 16.986251z" fill="url(#a)" stroke-width="9.524973"/></g><g id="l" transform="matrix(.97276553 .23179132 -.23179132 .97276553 41.758204 -86.989132)"><path d="m272.40625 75.027344c-6.69375-.07066-13.63871 3.117857-16.96379 9.113069-4.34835 7.724089-3.09074 17.475017.94286 25.054667 3.62695 6.88272 10.31743 12.51872 18.24793 13.32358 4.50451.54278 9.14449-.3964 13.14214-2.52257 3.36921 3.07692 8.87746 3.51572 12.49487.59751 4.45456-3.18261 5.54665-10.27251 1.68926-14.34648-2.17142-2.45473-5.50342-3.69602-8.70526-3.91472-4.90506.37577-9.04844 3.17662-13.27251 5.39958-2.23068 1.30125-5.07769 1.00805-6.94641-.80837-3.60734-2.9337-5.82845-7.608956-5.86447-12.25757-.19777-2.533088 1.53857-5.230831 4.29063-5.160304 3.47787-.02952 6.95303.949594 10.43655.31682 3.03368-.175817 5.92406-2.581643 5.89911-5.763189.0872-3.408403-2.76656-5.926138-5.34709-7.664554-3.31885-.609144-6.65736-1.336276-10.04382-1.367469z" fill="#7f7e75"/><path d="m280.53905 80.873464s-5.66632-1.11125-8.07773-1.083468c-3.88832.04418-7.05115 1.063625-9.50066 2.902479-4.89955 3.67665-6.16902 10.059458-5.16731 16.048302 1.00118 5.989113 4.18306 11.939853 9.08658 15.701433 4.90326 3.76132 11.83085 5.0165 18.79336 1.28984 1.1721-.62785 2.32198-1.27264 3.39011-1.84414.79189 2.85009 3.70892 4.54025 6.54843 3.77825 2.71278-.72761 4.37806-3.42979 3.87774-6.16744-.53145-2.33184-2.53569-3.80455-6.06055-4.39023-3.70651.45334-7.09791 2.655-10.08724 4.26613-5.46497 2.92524-9.77635 1.96056-13.45247-.85989-3.67639-2.82046-6.41774-7.80521-7.21784-12.592583-.80089-4.78737.25083-9.021498 3.25702-11.277864 1.50363-1.127919 3.69073-2.019555 6.7306-1.918225 1.35216-.0071 4.5806.463025 4.5806.463025 7.36423.412318 6.86085-1.499883 3.29936-4.315619z" fill="url(#c)" stroke-width="9.52497"/><path d="m304.72076 119.09568c-4.218 4.6588-8.06636 7.34207-13.08008 10.86328 6.71476 7.38365 11.10854 7.92625 20.12696 7.30469 14.33838-1.64087 28.61655-4.93322 41.10937-11.01172 8.08782-3.58928 11.1969-8.15319 12.26758-16.23632-5.33768-.34011-11.10338-1.29746-15.61914-2.70118 16.20596-13.449287 29.6576-35.146488 37.30273-59.345701l2.82807-8.949198-21.6875 7.324219c-5.2091 7.039187-12.40745 15.061288-20.16016 17.285156-9.99571.4165-13.99036-3.420439-17.64453-9.595703-5.65244-2.515905-12.3445-3.88157-17.52344-3.583984-3.77559.07113-7.97433 1.034385-12.55273 3.314453-8.85384 4.301334-14.95091 12.249277-17.41016 21.363281-3.42314 1.073095-7.28629 2.312998-9.08203 4.708665-1.44839 1.990578-1.38178 5.100357-.76855 7.086256 5.31569 10.560044 11.11037 18.278106 17.5137 23.811516 4.51646 3.89001 9.07039 6.56345 14.37991 8.36229z" fill="#7f7e75"/><path d="m299.48957 111.49872c4.49368 2.65906 9.1268 4.14708 13.80754 4.60507-3.72904 5.52794-8.55027 10.46957-14.27956 14.49388 7.34325 7.33584 59.46881-6.57569 60.75521-16.29622-7.11464-.65722-13.89724-2.62863-19.99244-5.70521 17.99034-11.637167 34.03997-35.26102 42.5069-62.06146l-11.23686 3.795184c-11.67077 17.809898-32.33578 27.466396-44.22642 7.408333-4.28573-1.972204-9.09109-2.896658-14.02292-2.538148-3.08965.0475-6.53044.797266-10.61588 2.836334-8.42698 4.086754-14.15468 11.951758-15.6845 20.828l-5.96159 2.008981c-3.29936 1.43854-3.84466 2.406763-3.29936 4.315619 4.93607 9.717617 10.40078 16.916927 16.18933 21.919407 2.37421 1.99381 4.18428 3.64205 6.06055 4.39023z" fill="url(#d)" stroke-width="9.52497"/><path d="m300.25793 62.393496c4.19452 1.781738 9.26759 1.366664 13.03601-1.232006 4.93606-3.867432 5.99145-7.743934 3.46114-13.240142-2.16461-4.217565-7.03217-6.513167-11.6608-6.300075-4.86762.960635-9.11162 5.025148-9.85386 10.001914-.55015 4.117355 1.79564 9.33055 5.01751 10.770309z" fill="#7f7e75"/><path d="m312.80102 55.200149c.83087-1.041159.51594-2.622815.14922-3.993356-.81042-3.027627-3.5433-5.026554-7.34615-4.886457-4.38944 1.070371-6.49605 4.753901-5.53562 8.342709.36619 1.368425.88126 2.887608 2.11667 3.373438 3.40865 1.340467 8.33123.02656 10.61588-2.836334z" fill="url(#b)" stroke-width="9.52497"/></g></g></svg>