<svg height="500" viewBox="0 0 132.29167 132.29167" width="500" xmlns="http://www.w3.org/2000/svg" xmlns:xlink="http://www.w3.org/1999/xlink"><linearGradient id="a" gradientTransform="matrix(391.593 0 0 -391.593 60.7962 7618.49)" gradientUnits="userSpaceOnUse" spreadMethod="pad" x1="0" x2="1" y1="0" y2="0"><stop offset="0" stop-color="#9f571d"/><stop offset=".511236" stop-color="#fde791"/><stop offset="1" stop-color="#b7671e"/></linearGradient><linearGradient id="b" gradientTransform="matrix(3.7795274 0 0 3.7795274 -341.5064 91.506337)" gradientUnits="userSpaceOnUse" spreadMethod="reflect" x1="275.66861" x2="283.07486" xlink:href="#a" y1="6.167348" y2="13.750447"/><linearGradient id="c" gradientTransform="matrix(3.7795274 0 0 3.7795274 -341.5064 91.506337)" gradientUnits="userSpaceOnUse" spreadMethod="reflect" x1="264.35434" x2="291.78174" xlink:href="#a" y1="-16.212465" y2="-12.200665"/><linearGradient id="d" gradientTransform="matrix(3.7795274 0 0 3.7795274 -341.5064 91.506337)" gradientUnits="userSpaceOnUse" spreadMethod="reflect" x1="259.4043" x2="298.16611" xlink:href="#a" y1="-13.440434" y2="9.50065"/><linearGradient id="e" gradientTransform="matrix(3.7795274 0 0 3.7795274 -341.5064 91.506337)" gradientUnits="userSpaceOnUse" spreadMethod="reflect" x1="258.37347" x2="296.58209" xlink:href="#a" y1="-3.130329" y2="-5.646517"/><linearGradient id="f" gradientTransform="matrix(3.7795274 0 0 3.7795274 -341.5064 91.506337)" gradientUnits="userSpaceOnUse" spreadMethod="reflect" x1="258.37347" x2="297.77011" xlink:href="#a" y1="-3.130329" y2="3.758587"/><linearGradient id="g" gradientTransform="matrix(3.7795274 0 0 3.7795274 -341.5064 91.506337)" gradientUnits="userSpaceOnUse" spreadMethod="reflect" x1="208.22574" x2="215.66298" xlink:href="#a" y1="-11.035005" y2="5.184512"/><linearGradient id="h" gradientTransform="matrix(3.7795274 0 0 3.7795274 -341.5064 91.506337)" gradientUnits="userSpaceOnUse" spreadMethod="reflect" x1="245.01889" x2="240.17113" xlink:href="#a" y1="-6.859913" y2="1.009461"/><linearGradient id="i" gradientTransform="matrix(3.7795274 0 0 3.7795274 -341.5064 91.506337)" gradientUnits="userSpaceOnUse" spreadMethod="reflect" x1="251.41676" x2="244.88972" xlink:href="#a" y1="1.001304" y2="8.462592"/><linearGradient id="j" gradientUnits="userSpaceOnUse" spreadMethod="reflect" x1="455.84467" x2="464.90582" y1="50.940594" y2="109.59058"><stop offset="0"/><stop offset=".5" stop-opacity=".67"/><stop offset="1"/></linearGradient><g><g id="k" stroke-width="1.08518" transform="matrix(.92323748 0 0 .91977982 -222.14531 2.474577)"><path d="m456.04687 45.792969c-3.36263-.100912-6.66762 1.778464-8.15039 4.982422l-18.47656 39.90039v.002c-1.9724 4.268966-.086 9.466089 4.17774 11.460939h.004l19.42383 9.06446-.008.008 6.69531 3.11133.008.004c4.26695 1.98304 9.48132.0685 11.45899-4.20117v-.002l18.47851-39.898444.002-.0039c1.96946-4.264576.084-9.464773-4.18555-11.457031l-.004-.002-26.10742-12.183594c-1.0681-.498316-2.19553-.751519-3.31641-.785156z" fill="url(#g)"/><path d="m461.89829 109.63862-26.10964-12.181716c-1.72757-.808266-2.48123-2.872164-1.67728-4.612188l18.47509-39.898075c.80395-1.737175 2.86295-2.491591 4.59208-1.684879l26.10963 12.185081c1.73067.806453 2.48123 2.870611 1.67909 4.607528l-18.47767 39.898079c-.80472 1.73821-2.86244 2.49003-4.59156 1.68643z" fill="url(#j)" stroke-width=".28712"/><g stroke-width="1.00001" transform="matrix(.98220798 .4582884 -.45657067 .98590328 -73.973459 -282.74755)"><path d="m603.96185 118.73394v-12.17879c-.99878-.97958-2.17485-1.79621-3.47647-2.39654.90726.82381 1.63968 1.84655 2.10561 2.99079-.32948-.0951-.66402-.16995-1.00057-.22687.83391 1.10447 1.42797 2.50353 1.0577 3.85927-.10414-1.66504-1.73552-3.5412-3.83142-3.9108-1.12272.1508-2.15691.51171-2.96156 1.05905 3.68133-1.00841 6.6168 2.67671 6.21678 5.66991-.30487-1.35854-1.26758-2.46466-2.52315-3.0437 1.90207 1.95197.31388 4.92333-1.691 5.40967 1.77355-2.10606 1.22782-5.7231-1.07574-6.62881 1.50764 1.96043.33389 4.30652-1.49895 5.56276.0997-.82906.10254-1.83408-.8837-2.13211.71191 2.11313-5.12793 4.73547-6.92086 5.96617zm-7.02672-16.24406c1.98672-1.61982 4.52743-1.49102 7.02672.50525l.0001-3.021411c-.59067-.09427-1.20066-.156688-1.81068-.160048-1.95778-.01115-3.91308.586319-5.21614 2.676209zm-1.84813 3.33875c1.59612-.81873 3.71108-.93092 5.70601 1.09244-.21853-1.82973-1.81955-2.93507-3.28856-2.93507-1.07197-.008-2.07445.56043-2.41745 1.84263zm-1.99433 3.70203c1.61092.66543 2.55008 1.8874 2.89202 3.47095.55364-.96898.38895-2.05328-.23138-2.77429-.81806-.75547-1.7076-.96208-2.66064-.69666z" fill="url(#i)" stroke-width=".264584"/><path d="m570.99509 71.879627 16.48343.0012c-2.12379 1.415657-9.68918 3.514443-7.79357 6.35604-2.00452-.485966-2.08994-2.274226-.8838-3.667238-2.98318.794593-2.15826 3.944203-.47038 4.830717-1.42378.08435-2.81818-.81232-3.45703-2.489865.13948 2.629661 1.80389 4.61873 4.31714 3.84814-2.0487.997051-3.64992 1.133729-5.25514.186468-1.06011-.724496-1.87648-1.678438-2.26576-2.702654.0523 1.540467.83525 2.890414 1.90668 3.988648.2224.822786.57619 1.60304 1.03677 2.325621-.85761-.719686-1.61128-1.545188-2.23646-2.445286.32796 2.873936 2.31952 5.118859 4.94205 5.722759-.38371.0241-.77905.0299-1.17047 0-1.31645-.10141-2.64841-.50138-3.82868-1.07731 1.79677 3.08548 5.17084 4.74548 7.90796 2.71125-1.39662 1.73545-3.24251 2.39911-5.06034 2.37842-1.4986-.0169-2.97819-.50015-4.1724-1.227475z" fill="url(#h)" stroke-width=".264584"/><use stroke-width="4.52056" transform="matrix(.20384848 0 0 .20384848 551.12311 114.73273)" xlink:href="#m"/></g><path d="m456.04674 45.793064c-3.36263-.100912-6.66747 1.778396-8.15024 4.982351l-18.47671 39.900386v.0022c-1.9724 4.268962-.0859 9.466019 4.17783 11.460869h.004l19.42377 9.06408-.008.008 6.6955 3.11088.008.004c4.26695 1.98304 9.48114.0688 11.45881-4.20084v-.002l18.47895-39.898134.002-.0039c1.96945-4.264571.0839-9.464679-4.18567-11.456935l-.004-.0022-26.10752-12.183388c-1.06809-.498315-2.19552-.751808-3.3164-.785445zm-.20206 5.147531c.44875.01557.90155.119691 1.33384.321369l26.10975 12.185074c1.73067.806452 2.48133 2.870692 1.67919 4.607607l-18.47783 39.897575c-.80471 1.73821-2.86235 2.49023-4.59147 1.68663l-26.10975-12.181703c-1.72757-.808265-2.4809-2.872641-1.67696-4.612664l18.47503-39.897576c.60297-1.30288 1.91194-2.053034 3.2582-2.006312z" fill="url(#g)" stroke="#84542e" stroke-linecap="round" stroke-linejoin="round" stroke-width=".717801"/></g><g><use id="l" stroke-width="1.18856" transform="matrix(1.197529 .13875408 -.45717003 .53814111 -115.43555 45.316909)" xlink:href="#k"/><use transform="translate(-.000003 -5.239341)" xlink:href="#l"/><use transform="translate(-.000003 -10.478682)" xlink:href="#l"/><use transform="translate(0 -15.718023)" xlink:href="#l"/></g><g><use transform="matrix(.29002619 -.95701871 .95701871 .29002619 -99.921058 238.663631)" xlink:href="#k"/><use transform="matrix(.42399848 -.9056629 .9056629 .42399848 -116.661756 207.152519)" xlink:href="#k"/><use transform="matrix(.73910264 -.67359282 .67359282 .73910264 -163.778371 111.186052)" xlink:href="#k"/><use transform="matrix(.82675232 -.56256608 .56256608 .82675232 -145.553738 98.099375)" xlink:href="#k"/><use transform="matrix(.90682562 -.42150598 .42150598 .90682562 -138.38984 64.634068)" xlink:href="#k"/></g><g id="m" transform="translate(-521.25142 -186.16015)"><path d="m758.95675 106.98644c0-4.08902-3.62119-11.28-5.6503-14.049393l-1.80115-15.04859c2.96532-2.519729 8.15599-8.990139 9.78535-14.975242-3.40884-4.685574-5.70601-8.612407-9.11485-13.297981-13.66219-3.073929-27.67349-4.235872-43.16963-4.221517-15.49615.01436-32.30268 1.140774-49.15055 3.320888-7.47891 2.294532-16.18464 4.455965-21.31106 10.801435-5.50849 8.972683-3.86864 17.06359.22906 25.986232 1.49246 4.845968 4.96213 14.603828 5.64621 19.632028 9.75711 2.38338 23.90246 6.29714 28.66496 6.87918 27.30583 2.80252 55.10679 2.38976 83.9276-.0628z" fill="#84542e" stroke-width=".264583"/><path d="m668.32229 111.43144 4.7625.58204c34.96221 5.25079 54.94677 2.77876 84.08458-.0794l4.45375-5.26234c1.19582-3.83624-.63014-10.055647-3.01611-14.281998-2.38598-4.22635-5.1585-8.279533-7.89008-12.698266-.82919 5.124977-1.77999 10.739319-2.76758 15.595703-2.68862-7.886688-7.06679-13.98898-11.56849-21.129026-1.17979 7.843959-2.40658 16.689312-3.71484 23.722656-2.53596-5.120038-5.34586-9.7084-8.33204-14.857422-1.82805 6.058657-3.83749 12.87627-6.10156 18.224613-2.41741-6.317655-3.8761-12.40998-5.74023-19.162113-2.68144 5.077947-5.63131 10.713966-7.84961 15.636719-1.23209-7.469966-2.89437-14.20554-4.65625-21.648437-4.45499 6.305929-9.19115 13.541789-11.96289 19.875-.53638-4.262867-.45619-8.789037-.58985-13.236328-4.64483 4.683166-9.98286 9.700092-13.375 14.871093-.30966-6.366061-.45837-12.622573-.67187-19.332031-2.98907 3.967531-6.02737 8.221819-8.96485 12.111328l1.42969-7.529297-8.96679 5.121094c-5.82226 3.325138-8.49515 8.120611-10.56641 11.589844l-1.89853 5.589428z" fill="#84542e" stroke-width=".264583"/><path d="m673.11125 58.223728c-8.87272 8.541417-15.17644 18.050621-22.12916 27.315338l4.33289 3.160232c5.86607 4.336293 10.76082 4.414481 17.74159 5.449144-1.21365-3.994516-2.68206-8.424854-3.37695-12.236328 4.1325 1.305151 7.82342 1.508899 12.01953 1.867188l1.4414 2.353515.76172-2.166015 7.00977.597656-5.31055-5.423828c.86184-2.648294 2.04448-5.444496 3.04102-7.685547 2.61309 10.121661 7.32994 15.967759 13.1914 24.710938.81112-8.872454 1.73382-18.87566 4.03516-26.607422 2.76453 5.367914 6.14768 9.096035 10.04492 13.917968 1.78383-5.597699 3.74008-11.863864 6.04688-16.714843 2.03149 5.515507 3.052 10.387783 4.52148 16.298828 3.04328-3.508733 6.76634-7.123232 9.11328-10.822266.65772 6.587527 1.25756 12.771841 1.95508 19.378906 4.15371-3.234037 9.01138-6.720667 11.29883-11.097656l-1.05469 6.771485 9.75977-8.292969c5.51222-4.68379 8.87408-10.460406 9.7761-15.232422l-9.31468-6.123983c-12.99221-1.447195-25.58074-3.220677-40.65267-2.986885l-35.56042.243747z" fill="#84542e" stroke-width=".264583"/><path d="m739.20416 87.566022c-.79375 5.34458-2.19605 15.213538-4.33917 21.722288 4.02167-.26458 8.04333-.60854 12.065-1.00541-1.61396-6.24417-4.65667-15.848548-7.72583-20.716878zm-41.35438.15875c-3.4925 5.15938-7.99042 15.081248-8.94292 21.325418 4.60375.37041 9.18105.635 13.7848.79375-2.3548-6.53521-3.54542-16.642288-4.84188-22.119168zm-38.60271 4.36563c-4.72546 2.69875-6.70719 6.32354-8.83973 9.895408 3.16706.92604 6.40556 1.82563 9.71286 2.67229-1.19063-4.20687-1.66688-8.387288-.87313-12.567698zm9.81604 0c-3.175 4.28625-6.61458 8.546038-7.85812 12.832288 3.83646 1.08479 6.50875 1.50812 10.10708 2.06375-2.35479-4.97417-2.09021-9.921878-2.24896-14.896038zm79.98355 15.980828c3.69291-.48376 6.69069-.54806 9.91009-1.08479-.79375-5.13292-2.95155-9.683778-5.6503-14.049393-.87313 5.159395-2.01084 10.239393-4.25979 15.134183zm-66.04001-14.102288c-4.445 4.49791-6.74687 8.942908-8.99583 13.414368 4.23333.58209 8.46667 1.08479 12.67354 1.45521-2.54-4.52437-3.51896-9.577918-3.67771-14.869578zm42.6773.87312c-1.56104 5.08-3.70417 10.133538-6.24417 15.107708 4.41854-.10583 8.83708-.26458 13.25563-.52917-1.95792-4.9477-4.23334-9.789578-7.01146-14.578538zm-14.55209.21167c-2.56645 4.947708-4.55083 9.895418-6.27062 14.843118 3.96875.10584 7.9375.1323 11.90625.10584-2.24896-4.92125-4.23333-9.86896-5.63563-14.948958z" fill="url(#f)" stroke-width=".264583"/><path d="m706.55458 59.123311c1.87854 5.000625 3.86292 9.974792 7.54063 14.525625 1.61396-4.974167 3.46604-9.895417 6.56166-14.393333-5.08-.07937-9.525-.264584-14.10229-.132292zm-1.87854 0c-4.60375.05292-9.04875.15875-13.335.3175 1.05833 7.9375 2.24896 15.875 7.09083 23.098131.79375-7.805214 2.64584-15.583964 6.24417-23.415631zm18.91771.238125c2.91042 4.28625 4.15396 9.04875 5.34458 13.837709 3.96875-4.418542 5.50334-8.810626 6.40292-13.229167-3.99521-.291042-7.91104-.47625-11.7475-.608542zm-33.91959.132292c-4.9477.185208-11.53583.449791-11.53583.449791-.60854.555625-1.19062 1.137709-1.77271 1.693334.9525 4.630208 2.93688 9.101667 5.60917 13.467292 1.82562-5.185834 4.25979-10.398126 7.69937-15.610417zm47.94251.635c2.69875 5.609166 3.20145 17.065625 3.75708 22.330834 5.02708-4.021667 6.72042-15.134168 7.88458-21.219584-3.94229-.449792-7.83166-.820209-11.64166-1.11125zm13.335 1.322916c2.27541 4.1275 4.39208 8.307917 3.51895 13.917084 4.5773-3.889375 6.00605-8.149167 6.82625-12.488334-3.4925-.555625-6.93208-1.031875-10.3452-1.42875zm-79.08396 4.947709c-2.14313 2.328333-4.18042 4.736042-6.13834 7.196667 3.01625 3.96875 8.14917 4.736041 12.80584 5.132916-3.70417-3.783541-5.74146-7.911041-6.6675-12.329583zm-7.54063 8.969375c-2.40771 3.069167-4.68312 6.164792-6.90562 9.313334 2.46062 2.03729 5.50333 3.14854 8.89 3.65125-1.27-4.18041-2.06375-8.466667-1.98438-12.964584z" fill="url(#e)" stroke-width=".264583"/><path d="m638.2871 131.19336c.31524 3.65016.12241 6.71502 1.49805 10.88867l14.93166 6.07027 12.37308 5.0195c1.54558.84392 3.10433 1.13466 4.81057 1.36719 2.31145.3209 4.62394.62996 19.82657 1.96473s32.09542 1.25007 48.91568.0782l20.94525-1.56443c.55673-9.77848.76334-18.57567 1.01367-28.5332-.27253-6.6071-.57942-13.21199-.97851-19.8125-20.61457 1.94866-42.29275 3.76627-61.02539 3.07031-11.62474-.57563-20.78338-1.64791-31.34179-3.03419-8.16023-1.7047-15.7319-3.73618-22.95897-5.98731 11.01279-14.039362 20.92549-29.763587 31.84136-40.777101 4.72629-.18401 10.24243-.479736 15.35005-.556885 13.81432-.1682 27.60589-.07792 41.32617.603515 7.70177.50579 15.49716 1.379472 22.53711 2.367188l11.12696 1.570312-13.5586-18.636718c-8.87876-2.108853-18.59864-3.403658-26.72265-4.013672-9.56858-.666887-18.9804-.635415-27.89854-.466713-6.66762.128247-13.25979.586401-19.77344 1.085937-7.09777.544334-13.95332 1.23558-21.22461 2.087891 0 0-9.48711 2.45969-13.80819 4.68505-3.82373 1.969226-7.97546 3.922577-10.47111 7.539559-5.54509 8.036601-5.72412 19.636979-.60351 31.21875 2.0085 5.051701 3.82872 10.172462 5.66797 15.287107-1.20743 5.47272-1.99529 11.28784-2.23828 16.13282-.19396 4.11327.0851 8.24313.43944 12.3457z" fill="#84542e"/><path d="m745.3425 56.107064c4.23301.435686 8.36083.926042 12.67354 1.534583l-5.90021-8.109479c-1.37583-.3175-2.81023-.676924-4.23333-.923396-6.63284-1.148762-13.31501-2.095421-20.02896-2.582333-9.13186-.662265-18.3096-.631157-27.46375-.455084-6.50858.125188-13.00906.57643-19.49979 1.074209-7.02467.538728-13.81125 1.222375-21.03438 2.069041 11.29771 3.820584 12.3825 3.979334 22.03979 6.360584 0 0 7.68792-.402941 11.53584-.449792 13.87344-.16892 27.76157-.0797 41.61896.608542 3.43885.170795 6.8673.520605 10.29229.873125zm-106.56888 29.395208c7.00881-11.112502 15.25852-21.087294 23.22513-31.16792-21.27779-8.442854-32.4665 10.265834-23.22513 31.16792zm28.067-29.527503c-9.2075 11.535834-18.55787 22.754167-26.01648 35.295423.71702 1.905 1.46579 3.83646 2.20927 5.79437 9.09902-13.17625 17.93346-26.696459 30.07784-38.840834-2.16959-.79375-4.28625-1.561042-6.27063-2.248959zm-22.42079 49.159581c-.99483 4.39209-1.61131 9.18105-1.81504 13.91709 3.80471 8.30792 7.81579 16.93333 11.76337 23.8125l2.0664.84667 9.7446-11.40355c.15875-7.01145.84667-14.02291 2.14313-20.87562-8.49313-1.82563-16.38829-3.94229-23.90246-6.29709zm55.96996 9.36621c-9.13069-.39769-18.20333-1.19062-27.305-2.48708-1.21708 6.32354-1.905 12.80584-2.11667 19.34104l14.86959 20.02896c19.92312 1.905 39.21125 1.71979 58.20833.37042l13.75833-18.75896c.21167-7.06437-.635-21.06081-.635-21.06081s-19.16566 2.03198-28.78666 2.46064c-9.32179.41533-18.67072.51182-27.99292.10579zm-57.3405 16.58942c.0582 2.67229-.21696 5.02708.56885 7.40833l3.7809 1.53459c-1.50283-2.91042-2.94217-5.92667-4.34975-8.94292zm27.89237 8.20208c.0794 3.4925.29105 6.95855.60855 10.39813 2.61937.37042 5.23875.71437 7.85812 1.03187zm-4.7625.29105-5.13291 6.00604 5.55625 2.24896c-.21167-2.72521-.37042-5.47688-.42334-8.255zm91.28126 1.95791-7.14375 9.73667c2.24895-.18521 4.47145-.39688 6.69395-.60854.1323-3.04271.29105-6.08542.4498-9.12813z" fill="url(#d)" stroke-width=".264583"/><path d="m681.28516 46.119141c-.73949 1.190949-1.24219 2.516276-1.24219 3.982421 0 4.008211 3.38262 7.566407 7.44888 7.134787 4.06625-.431621 6.57579-3.269092 7.17417-6.140646 3.86989.438881 6.60203-3.699823 4.67773-7.085937-4.569-6.962923-9.83668-13.796913-16.34961-18.486329-3.90147-2.579039-8.46768-1.002031-11.02734 2.476563-2.14994 3.144216-2.95704 6.59535-1.90137 9.233398 2.58693 4.687713 6.94827 6.766114 11.21973 8.885743zm74.77336-18.25586c-2.92723-3.12454-7.75419-4.109157-10.9189-1.457031-5.32136 4.807328-11.29124 10.731136-16.1299 17.917969-1.61279 3.202803.75843 6.971819 4.34375 6.904297.49688 3.589389 3.57226 6.597656 7.27929 6.597656 4.05294 0 7.43555-3.558177 7.43555-7.566406 0-1.245324-.38819-2.531011-.9707-3.626954 4.42734-2.012921 9.31499-4.931013 11.24608-8.673827 1.46048-3.740592.0313-7.53629-2.28517-10.095704z" fill="#84542e" stroke-width=".264583"/><path d="m674.40771 35.281709c1.19062 2.452688 6.19125 5.730875 11.80041 8.080375 3.14854 1.325563 6.29709 2.38125 9.15459 3.259667-4.41855-6.733646-9.47209-13.147146-15.16063-17.24025-3.25437-2.354792-6.50875 4.177771-5.79437 5.900208zm73.92458-5.341937c-5.18583 4.68577-10.87437 10.363729-15.37229 17.044458 2.8575-.844021 6.0325-1.860021 9.2075-3.145896 5.63562-2.280708 10.66271-5.49275 11.87979-7.932208 1.27-2.780771-3.36021-8.093605-5.715-5.966354zm-62.83854 18.272125c-.42334.489479-.68792 1.161521-.68792 1.889125 0 1.613958 1.21708 2.804583 2.67229 2.804583 1.82563-.449791 2.64584-1.5875 2.67229-2.989791-1.53458-.515938-3.09562-1.076855-4.65666-1.703917zm57.36167.470955c-1.66688.637646-3.3073 1.2065-4.8948 1.709209.0794 1.561041 1.27 2.672291 2.6723 2.672291 1.4552 0 2.67229-1.190625 2.67229-2.804583 0-.608542-.15875-1.124479-.44979-1.576917z" fill="url(#c)" stroke-width=".264583"/><path d="m728.16023 109.63665c-6.23497.21513-11.68843.43077-13.88985.37546l-13.87976-.25641v33.5138c10.12404 1.63067 18.85177 1.81205 27.99219.20703z" fill="#84542e" stroke-width=".264583"/><path d="m723.6202 114.57998c-6.16479.18521-12.30313.23812-18.46792.0794v24.47396c6.16479.87313 12.14438 1.45521 18.46792.34396z" fill="url(#b)" stroke-width=".264583"/><path d="m714.57146 118.73394c2.03729 0 3.67771 1.82562 3.67771 4.07458 0 1.66688-.89959 3.14854-2.27542 3.78354l2.27542 8.49313h-7.32896l2.27541-8.49313c-1.37583-.635-2.27541-2.11666-2.27541-3.78354 0-2.24896 1.64041-4.07458 3.65125-4.07458z" fill="#84542e" stroke-width=".264583"/></g></g></svg>