<svg height="500" viewBox="0 0 132.29167 132.29167" width="500" xmlns="http://www.w3.org/2000/svg" xmlns:xlink="http://www.w3.org/1999/xlink"><filter id="a" color-interpolation-filters="sRGB" height="1.412612" width="1.412612" x="-.206306" y="-.206306"><feGaussianBlur stdDeviation="9.7798247"/></filter><filter id="b" color-interpolation-filters="sRGB" height="1.441114" width="1.33998" x="-.16999" y="-.220557"><feGaussianBlur stdDeviation="4.1041125"/></filter><filter id="c" color-interpolation-filters="sRGB" height="1.600003" width="1.599997" x="-.299998" y="-.300002"><feGaussianBlur stdDeviation="14.230828"/></filter><filter id="d" color-interpolation-filters="sRGB" height="1.600139" width="1.600336" x="-.300168" y="-.300069"><feGaussianBlur stdDeviation="13.210297"/></filter><clipPath id="e"><path d="m268.67546 66.219623c-31.3739 0-56.92427 25.549107-56.92427 56.922997s25.55037 56.92299 56.92427 56.92299c31.37388 0 56.92299-25.5491 56.92299-56.92299s-25.54911-56.922999-56.92299-56.922997z"/></clipPath><clipPath id="f"><path d="m363.54648 218.01427v-189.74331h-189.74331v189.74331zm-94.87102-147.712836c29.1646 0 52.84119 23.676572 52.84119 52.841186 0 29.16462-23.67659 52.84118-52.84119 52.84118-29.16462 0-52.84119-23.67656-52.84119-52.84118 0-29.164614 23.67657-52.841186 52.84119-52.841186z"/></clipPath><radialGradient id="g" cx="4601.1221" cy="4277.6772" gradientTransform="matrix(0 1 -1 0 5224.5762 -3824.5764)" gradientUnits="userSpaceOnUse" r="11.2507" xlink:href="#h"/><linearGradient id="h"><stop offset="0" stop-color="#fff"/><stop offset=".1375" stop-color="#fff" stop-opacity=".8625"/><stop offset="1" stop-color="#fff" stop-opacity="0"/></linearGradient><radialGradient id="i" cx="4694.3481" cy="4395.814" gradientTransform="matrix(0 1 -1 0 5224.5762 -3824.5764)" gradientUnits="userSpaceOnUse" r="11.2507" xlink:href="#h"/><radialGradient id="j" cx="4845.7568" cy="4885.4878" gradientTransform="matrix(0 1 -1 0 5224.5762 -3824.5764)" gradientUnits="userSpaceOnUse" r="11.2507" xlink:href="#h"/><radialGradient id="k" cx="4996.8203" cy="4201.0781" gradientTransform="matrix(0 1 -1 0 5224.5762 -3824.5764)" gradientUnits="userSpaceOnUse" r="11.2507" xlink:href="#h"/><radialGradient id="l" cx="4264.2671" cy="4804.9849" gradientTransform="matrix(0 1 -1 0 5224.5762 -3824.5764)" gradientUnits="userSpaceOnUse" r="11.2507" xlink:href="#h"/><radialGradient id="m" cx="4253.0161" cy="4349.7529" gradientTransform="matrix(0 1 -1 0 5224.5762 -3824.5764)" gradientUnits="userSpaceOnUse" r="11.2507" xlink:href="#h"/><radialGradient id="n" cx="4291.9346" cy="4509.8506" gradientTransform="matrix(0 1 -1 0 5224.5762 -3824.5764)" gradientUnits="userSpaceOnUse" r="11.2507" xlink:href="#h"/><radialGradient id="o" cx="4178.7915" cy="4193.6758" gradientTransform="matrix(0 1 -1 0 5224.5762 -3824.5764)" gradientUnits="userSpaceOnUse" r="11.2507" xlink:href="#h"/><radialGradient id="p" cx="4508.9131" cy="4184.4229" gradientTransform="matrix(0 1 -1 0 5224.5762 -3824.5764)" gradientUnits="userSpaceOnUse" r="11.2507" xlink:href="#h"/><radialGradient id="q" cx="4169.5386" cy="4599.0166" gradientTransform="matrix(0 1 -1 0 5224.5762 -3824.5764)" gradientUnits="userSpaceOnUse" r="11.2507" xlink:href="#h"/><radialGradient id="r" cx="4024.0554" cy="4671.3345" gradientTransform="matrix(0 1 -1 0 5224.5762 -3824.5764)" gradientUnits="userSpaceOnUse" r="11.2507" xlink:href="#h"/><radialGradient id="s" cx="4381.2778" cy="4473.0386" gradientTransform="matrix(0 1 -1 0 5224.5762 -3824.5764)" gradientUnits="userSpaceOnUse" r="5.6228" xlink:href="#h"/><radialGradient id="t" cx="4207.3452" cy="4447.1753" gradientTransform="matrix(0 1 -1 0 5224.5762 -3824.5764)" gradientUnits="userSpaceOnUse" r="5.6228" xlink:href="#h"/><radialGradient id="u" cx="4156.0269" cy="4803.9863" gradientTransform="matrix(0 1 -1 0 5224.5762 -3824.5764)" gradientUnits="userSpaceOnUse" r="5.6228" xlink:href="#h"/><radialGradient id="v" cx="4201.7222" cy="5018.0508" gradientTransform="matrix(0 1 -1 0 5224.5762 -3824.5764)" gradientUnits="userSpaceOnUse" r="5.6228" xlink:href="#h"/><radialGradient id="w" cx="4756.5977" cy="4610.2671" gradientTransform="matrix(0 1 -1 0 5224.5762 -3824.5764)" gradientUnits="userSpaceOnUse" r="5.6228" xlink:href="#h"/><radialGradient id="x" cx="4724.8408" cy="4498.3604" gradientTransform="matrix(0 1 -1 0 5224.5762 -3824.5764)" gradientUnits="userSpaceOnUse" r="5.6228" xlink:href="#h"/><radialGradient id="y" cx="4755.5991" cy="4916.6094" gradientTransform="matrix(0 1 -1 0 5224.5762 -3824.5764)" gradientUnits="userSpaceOnUse" r="5.6228" xlink:href="#h"/><radialGradient id="z" cx="4815.3223" cy="4406.499" gradientTransform="matrix(0 1 -1 0 5224.5762 -3824.5764)" gradientUnits="userSpaceOnUse" r="5.6228" xlink:href="#h"/><radialGradient id="A" cx="4840.1343" cy="4528.7949" gradientTransform="matrix(0 1 -1 0 5224.5762 -3824.5764)" gradientUnits="userSpaceOnUse" r="5.6228" xlink:href="#h"/><radialGradient id="B" cx="4994.8228" cy="4675.311" gradientTransform="matrix(0 1 -1 0 5224.5762 -3824.5764)" gradientUnits="userSpaceOnUse" r="5.6228" xlink:href="#h"/><radialGradient id="C" cx="4625.9868" cy="4580.4009" gradientTransform="matrix(0 1 -1 0 5224.5762 -3824.5764)" gradientUnits="userSpaceOnUse" r="5.6228" xlink:href="#h"/><radialGradient id="D" cx="4832.085" cy="4231.3418" gradientTransform="matrix(0 1 -1 0 5224.5762 -3824.5764)" gradientUnits="userSpaceOnUse" r="5.6228" xlink:href="#h"/><radialGradient id="E" cx="4920.2227" cy="4281.3076" gradientTransform="matrix(0 1 -1 0 5224.5762 -3824.5764)" gradientUnits="userSpaceOnUse" r="5.6228" xlink:href="#h"/><radialGradient id="F" cx="4483.835" cy="4313.1982" gradientTransform="matrix(0 1 -1 0 5224.5762 -3824.5764)" gradientUnits="userSpaceOnUse" r="5.6228" xlink:href="#h"/><radialGradient id="G" cx="4664.439" cy="4695.5273" gradientTransform="matrix(0 1 -1 0 5224.5762 -3824.5764)" gradientUnits="userSpaceOnUse" r="11.2507" xlink:href="#h"/><radialGradient id="H" cx="4894.2646" cy="4681.8555" gradientTransform="matrix(0 1 -1 0 5224.5762 -3824.5764)" gradientUnits="userSpaceOnUse" r="11.2507" xlink:href="#h"/><radialGradient id="I" cx="4985.5698" cy="4361.0039" gradientTransform="matrix(0 1 -1 0 5224.5762 -3824.5764)" gradientUnits="userSpaceOnUse" r="11.2507" xlink:href="#h"/><radialGradient id="J" cx="4713.5898" cy="4089.8687" gradientTransform="matrix(0 1 -1 0 5224.5762 -3824.5764)" gradientUnits="userSpaceOnUse" r="11.2507" xlink:href="#h"/><radialGradient id="K" cx="4757.5957" cy="4804.9849" gradientTransform="matrix(0 1 -1 0 5224.5762 -3824.5764)" gradientUnits="userSpaceOnUse" r="11.2507" xlink:href="#h"/><radialGradient id="L" cx="4433.3354" cy="5016.0532" gradientTransform="matrix(0 1 -1 0 5224.5762 -3824.5764)" gradientUnits="userSpaceOnUse" r="11.2507" xlink:href="#h"/><radialGradient id="M" cx="4371.5723" cy="4725.9341" gradientTransform="matrix(0 1 -1 0 5224.5762 -3824.5764)" gradientUnits="userSpaceOnUse" r="11.2507" xlink:href="#h"/><radialGradient id="N" cx="4510.9111" cy="4743.7231" gradientTransform="matrix(0 1 -1 0 5224.5762 -3824.5764)" gradientUnits="userSpaceOnUse" r="11.2507" xlink:href="#h"/><radialGradient id="O" cx="4269.4331" cy="4686.5615" gradientTransform="matrix(0 1 -1 0 5224.5762 -3824.5764)" gradientUnits="userSpaceOnUse" r="11.2507" xlink:href="#h"/><radialGradient id="P" cx="4072.584" cy="4883.4902" gradientTransform="matrix(0 1 -1 0 5224.5762 -3824.5764)" gradientUnits="userSpaceOnUse" r="11.2507" xlink:href="#h"/><radialGradient id="Q" cx="4484.8335" cy="4664.189" gradientTransform="matrix(0 1 -1 0 5224.5762 -3824.5764)" gradientUnits="userSpaceOnUse" r="7.1455" xlink:href="#h"/><radialGradient id="R" cx="4613.2183" cy="4640.4971" gradientTransform="matrix(0 1 -1 0 5224.5762 -3824.5764)" gradientUnits="userSpaceOnUse" r="7.1455" xlink:href="#h"/><radialGradient id="S" cx="4091.8" cy="4252.5869" gradientTransform="matrix(0 1 -1 0 5224.5762 -3824.5764)" gradientUnits="userSpaceOnUse" r="7.1455" xlink:href="#h"/><radialGradient id="T" cx="4666.4365" cy="4863.9521" gradientTransform="matrix(0 1 -1 0 5224.5762 -3824.5764)" gradientUnits="userSpaceOnUse" r="7.1455" xlink:href="#h"/><radialGradient id="U" cx="4894.2646" cy="4840.1016" gradientTransform="matrix(0 1 -1 0 5224.5762 -3824.5764)" gradientUnits="userSpaceOnUse" r="7.1455" xlink:href="#h"/><radialGradient id="V" cx="4974.3188" cy="4809.6094" gradientTransform="matrix(0 1 -1 0 5224.5762 -3824.5764)" gradientUnits="userSpaceOnUse" r="7.1455" xlink:href="#h"/><radialGradient id="W" cx="4589.1577" cy="4997.6572" gradientTransform="matrix(0 1 -1 0 5224.5762 -3824.5764)" gradientUnits="userSpaceOnUse" r="7.1455" xlink:href="#h"/><radialGradient id="X" cx="4065.4385" cy="4519.7837" gradientTransform="matrix(0 1 -1 0 5224.5762 -3824.5764)" gradientUnits="userSpaceOnUse" r="7.1455" xlink:href="#h"/><radialGradient id="Y" cx="4347.4258" cy="4820.2441" gradientTransform="matrix(0 1 -1 0 5224.5762 -3824.5764)" gradientUnits="userSpaceOnUse" r="7.1455" xlink:href="#h"/><radialGradient id="Z" cx="4533.5781" cy="4593.1694" gradientTransform="matrix(0 1 -1 0 5224.5762 -3824.5764)" gradientUnits="userSpaceOnUse" r="7.1455" xlink:href="#h"/><radialGradient id="aa" cx="4448.2217" cy="4220.0913" gradientTransform="matrix(0 1 -1 0 5224.5762 -3824.5764)" gradientUnits="userSpaceOnUse" r="11.2507" xlink:href="#h"/><radialGradient id="ab" cx="4908.2451" cy="4929.8579" gradientTransform="matrix(0 1 -1 0 5224.5762 -3824.5764)" gradientUnits="userSpaceOnUse" r="11.2507" xlink:href="#h"/><radialGradient id="ac" cx="4987.5674" cy="5014.0552" gradientTransform="matrix(0 1 -1 0 5224.5762 -3824.5764)" gradientUnits="userSpaceOnUse" r="11.2507" xlink:href="#h"/><radialGradient id="ad" cx="3991.5649" cy="4813.0986" gradientTransform="matrix(0 1 -1 0 5224.5762 -3824.5764)" gradientUnits="userSpaceOnUse" r="11.2507" xlink:href="#h"/><radialGradient id="ae" cx="4012.8047" cy="4351.751" gradientTransform="matrix(0 1 -1 0 5224.5762 -3824.5764)" gradientUnits="userSpaceOnUse" r="11.2507" xlink:href="#h"/><radialGradient id="af" cx="4683.0972" cy="5027.3037" gradientTransform="matrix(0 1 -1 0 5224.5762 -3824.5764)" gradientUnits="userSpaceOnUse" r="11.2507" xlink:href="#h"/><radialGradient id="ag" cx="4367.481" cy="4195.6733" gradientTransform="matrix(0 1 -1 0 5224.5762 -3824.5764)" gradientUnits="userSpaceOnUse" r="11.2507" xlink:href="#h"/><radialGradient id="ah" cx="4526.4326" cy="4089.8687" gradientTransform="matrix(0 1 -1 0 5224.5762 -3824.5764)" gradientUnits="userSpaceOnUse" r="11.2507" xlink:href="#h"/><radialGradient id="ai" cx="4261.9028" cy="4242.5928" gradientTransform="matrix(0 1 -1 0 5224.5762 -3824.5764)" gradientUnits="userSpaceOnUse" r="11.2507" xlink:href="#h"/><radialGradient id="aj" cx="16633.223" cy="4517.6021" gradientTransform="matrix(0 .2895 -1 0 5224.5762 -4086.6375)" gradientUnits="userSpaceOnUse" r="19.241899" xlink:href="#h"/><radialGradient id="ak" cx="-15595.086" cy="5031.6465" gradientTransform="matrix(.2895 0 0 1 5221.3418 -4303.4033)" gradientUnits="userSpaceOnUse" r="19.241899" xlink:href="#h"/><radialGradient id="al" cx="16323.169" cy="4900.5503" gradientTransform="matrix(0 .2895 -1 0 5224.5762 -4086.6375)" gradientUnits="userSpaceOnUse" r="29.7325" xlink:href="#h"/><radialGradient id="am" cx="-16917.998" cy="4941.8945" gradientTransform="matrix(.2895 0 0 1 5221.3418 -4303.4033)" gradientUnits="userSpaceOnUse" r="29.7325" xlink:href="#h"/><radialGradient id="an" cx="17536.6" cy="5029.3018" gradientTransform="matrix(0 .2895 -1 0 5224.5762 -4086.6375)" gradientUnits="userSpaceOnUse" r="29.7325" xlink:href="#h"/><radialGradient id="ao" cx="-17362.775" cy="5293.1509" gradientTransform="matrix(.2895 0 0 1 5221.3418 -4303.4033)" gradientUnits="userSpaceOnUse" r="29.7325" xlink:href="#h"/><radialGradient id="ap" cx="15154.966" cy="4975.0698" gradientTransform="matrix(0 .2895 -1 0 5224.5762 -4086.6375)" gradientUnits="userSpaceOnUse" r="29.7325" xlink:href="#h"/><radialGradient id="aq" cx="-17175.43" cy="4603.7305" gradientTransform="matrix(.2895 0 0 1 5221.3418 -4303.4033)" gradientUnits="userSpaceOnUse" r="29.7325" xlink:href="#h"/><radialGradient id="ar" cx="16788.486" cy="4380.1377" gradientTransform="matrix(0 .2895 -1 0 5224.5762 -4086.6375)" gradientUnits="userSpaceOnUse" r="29.7325" xlink:href="#h"/><radialGradient id="as" cx="-15120.208" cy="5076.5913" gradientTransform="matrix(.2895 0 0 1 5221.3418 -4303.4033)" gradientUnits="userSpaceOnUse" r="29.7325" xlink:href="#h"/><radialGradient id="at" cx="15052.254" cy="4385.373" gradientTransform="matrix(0 .2895 -1 0 5224.5762 -4086.6375)" gradientUnits="userSpaceOnUse" r="29.7325" xlink:href="#h"/><radialGradient id="au" cx="-15138.295" cy="4573.998" gradientTransform="matrix(.2895 0 0 1 5221.3418 -4303.4033)" gradientUnits="userSpaceOnUse" r="29.7325" xlink:href="#h"/><radialGradient id="av" cx="16060.047" cy="4376.7666" gradientTransform="matrix(0 .2895 -1 0 5224.5762 -4086.6375)" gradientUnits="userSpaceOnUse" r="29.7325" xlink:href="#h"/><radialGradient id="aw" cx="-15108.562" cy="4865.7275" gradientTransform="matrix(.2895 0 0 1 5221.3418 -4303.4033)" gradientUnits="userSpaceOnUse" r="29.7325" xlink:href="#h"/><radialGradient id="ax" cx="15866.068" cy="4081.2617" gradientTransform="matrix(0 .2895 -1 0 5224.5762 -4086.6375)" gradientUnits="userSpaceOnUse" r="29.7325" xlink:href="#h"/><radialGradient id="ay" cx="-14087.729" cy="4809.5757" gradientTransform="matrix(.2895 0 0 1 5221.3418 -4303.4033)" gradientUnits="userSpaceOnUse" r="29.7325" xlink:href="#h"/><radialGradient id="az" cx="17890.787" cy="4106.2778" gradientTransform="matrix(0 .2895 -1 0 5224.5762 -4086.6375)" gradientUnits="userSpaceOnUse" r="29.7325" xlink:href="#h"/><radialGradient id="aA" cx="-14174.147" cy="5395.6787" gradientTransform="matrix(.2895 0 0 1 5221.3418 -4303.4033)" gradientUnits="userSpaceOnUse" r="29.7325" xlink:href="#h"/><radialGradient id="aB" cx="15420.522" cy="4902.7319" gradientTransform="matrix(0 .2895 -1 0 5224.5762 -4086.6375)" gradientUnits="userSpaceOnUse" r="19.241899" xlink:href="#h"/><radialGradient id="aC" cx="-16925.533" cy="4680.6021" gradientTransform="matrix(.2895 0 0 1 5221.3418 -4303.4033)" gradientUnits="userSpaceOnUse" r="19.241899" xlink:href="#h"/><radialGradient id="aD" cx="17559.291" cy="4676.2856" gradientTransform="matrix(0 .2895 -1 0 5224.5762 -4086.6375)" gradientUnits="userSpaceOnUse" r="19.241899" xlink:href="#h"/><radialGradient id="aE" cx="-16143.265" cy="5299.7192" gradientTransform="matrix(.2895 0 0 1 5221.3418 -4303.4033)" gradientUnits="userSpaceOnUse" r="19.241899" xlink:href="#h"/><radialGradient id="aF" cx="16866.557" cy="4774.4922" gradientTransform="matrix(0 .2895 -1 0 5224.5762 -4086.6375)" gradientUnits="userSpaceOnUse" r="19.241899" xlink:href="#h"/><radialGradient id="aG" cx="-16482.523" cy="5099.1909" gradientTransform="matrix(.2895 0 0 1 5221.3418 -4303.4033)" gradientUnits="userSpaceOnUse" r="19.241899" xlink:href="#h"/><radialGradient id="aH" cx="16071.692" cy="4574.7783" gradientTransform="matrix(0 .2895 -1 0 5224.5762 -4086.6375)" gradientUnits="userSpaceOnUse" r="19.241899" xlink:href="#h"/><radialGradient id="aI" cx="-15792.604" cy="4869.0986" gradientTransform="matrix(.2895 0 0 1 5221.3418 -4303.4033)" gradientUnits="userSpaceOnUse" r="19.241899" xlink:href="#h"/><radialGradient id="aJ" cx="16699.693" cy="4871.0977" gradientTransform="matrix(0 .2895 -1 0 5224.5762 -4086.6375)" gradientUnits="userSpaceOnUse" r="19.241899" xlink:href="#h"/><radialGradient id="aK" cx="-16816.252" cy="5050.8887" gradientTransform="matrix(.2895 0 0 1 5221.3418 -4303.4033)" gradientUnits="userSpaceOnUse" r="19.241899" xlink:href="#h"/><radialGradient id="aL" cx="18061.07" cy="4512.0322" gradientTransform="matrix(0 .2895 -1 0 5224.5762 -4086.6375)" gradientUnits="userSpaceOnUse" r="19.241899" xlink:href="#h"/><radialGradient id="aM" cx="-15575.844" cy="5444.9717" gradientTransform="matrix(.2895 0 0 1 5221.3418 -4303.4033)" gradientUnits="userSpaceOnUse" r="19.241899" xlink:href="#h"/><radialGradient id="aN" cx="17188.609" cy="4244.9609" gradientTransform="matrix(0 .2895 -1 0 5224.5762 -4086.6375)" gradientUnits="userSpaceOnUse" r="19.241899" xlink:href="#h"/><radialGradient id="aO" cx="-14653.234" cy="5192.417" gradientTransform="matrix(.2895 0 0 1 5221.3418 -4303.4033)" gradientUnits="userSpaceOnUse" r="19.241899" xlink:href="#h"/><radialGradient id="aP" cx="15143.32" cy="4682.5854" gradientTransform="matrix(0 .2895 -1 0 5224.5762 -4086.6375)" gradientUnits="userSpaceOnUse" r="19.241899" xlink:href="#h"/><radialGradient id="aQ" cx="-16165.027" cy="4600.3594" gradientTransform="matrix(.2895 0 0 1 5221.3418 -4303.4033)" gradientUnits="userSpaceOnUse" r="19.241899" xlink:href="#h"/><radialGradient id="aR" cx="17652.088" cy="4368.1597" gradientTransform="matrix(0 .2895 -1 0 5224.5762 -4086.6375)" gradientUnits="userSpaceOnUse" r="19.241899" xlink:href="#h"/><radialGradient id="aS" cx="-15078.83" cy="5326.5815" gradientTransform="matrix(.2895 0 0 1 5221.3418 -4303.4033)" gradientUnits="userSpaceOnUse" r="19.241899" xlink:href="#h"/><radialGradient id="aT" cx="3957.2905" cy="4201.0781" gradientTransform="matrix(0 1 -1 0 5224.5762 -3824.5764)" gradientUnits="userSpaceOnUse" r="11.2507" xlink:href="#h"/><radialGradient id="aU" cx="3955.2927" cy="4675.311" gradientTransform="matrix(0 1 -1 0 5224.5762 -3824.5764)" gradientUnits="userSpaceOnUse" r="5.6228" xlink:href="#h"/><radialGradient id="aV" cx="3880.6929" cy="4281.3076" gradientTransform="matrix(0 1 -1 0 5224.5762 -3824.5764)" gradientUnits="userSpaceOnUse" r="5.6228" xlink:href="#h"/><radialGradient id="aW" cx="3946.0398" cy="4361.0039" gradientTransform="matrix(0 1 -1 0 5224.5762 -3824.5764)" gradientUnits="userSpaceOnUse" r="11.2507" xlink:href="#h"/><radialGradient id="aX" cx="14469.968" cy="4512.0322" gradientTransform="matrix(0 .2895 -1 0 5224.5762 -4086.6375)" gradientUnits="userSpaceOnUse" r="19.241899" xlink:href="#h"/><radialGradient id="aY" cx="-15575.844" cy="4405.4414" gradientTransform="matrix(.2895 0 0 1 5221.3418 -4303.4033)" gradientUnits="userSpaceOnUse" r="19.241899" xlink:href="#h"/><radialGradient id="aZ" cx="16783.117" cy="4155.2524" gradientTransform="matrix(0 .2895 -1 0 5224.5762 -4086.6375)" gradientUnits="userSpaceOnUse" r="19.241899" xlink:href="#h"/><radialGradient id="a0" cx="-14343.332" cy="5075.0371" gradientTransform="matrix(.2895 0 0 1 5221.3418 -4303.4033)" gradientUnits="userSpaceOnUse" r="19.241899" xlink:href="#h"/><radialGradient id="a1" cx="15184.698" cy="4089.8687" gradientTransform="matrix(0 .2895 -1 0 5224.5762 -4086.6375)" gradientUnits="userSpaceOnUse" r="19.241899" xlink:href="#h"/><radialGradient id="a2" cx="-14117.461" cy="4612.3369" gradientTransform="matrix(.2895 0 0 1 5221.3418 -4303.4033)" gradientUnits="userSpaceOnUse" r="19.241899" xlink:href="#h"/><radialGradient id="a3" cx="14799.68" cy="4114.8848" gradientTransform="matrix(0 .2895 -1 0 5224.5762 -4086.6375)" gradientUnits="userSpaceOnUse" r="19.241899" xlink:href="#h"/><radialGradient id="a4" cx="-14203.88" cy="4500.8843" gradientTransform="matrix(.2895 0 0 1 5221.3418 -4303.4033)" gradientUnits="userSpaceOnUse" r="19.241899" xlink:href="#h"/><radialGradient id="a5" cx="4250.4473" cy="5175.2676" gradientTransform="matrix(0 -1 1 0 -5135.66355 5025.32025)" gradientUnits="userSpaceOnUse" r="11.2507" xlink:href="#h"/><radialGradient id="a6" cx="4163.4556" cy="5234.1792" gradientTransform="matrix(0 -1 1 0 -5135.66355 5025.32025)" gradientUnits="userSpaceOnUse" r="7.1455" xlink:href="#h"/><radialGradient id="a7" cx="4333.5586" cy="5224.1846" gradientTransform="matrix(0 -1 1 0 -5135.66355 5025.32025)" gradientUnits="userSpaceOnUse" r="11.2507" xlink:href="#h"/><radialGradient id="a8" cx="4028.946" cy="5182.6704" gradientTransform="matrix(0 -1 1 0 -5135.66355 5025.32025)" gradientUnits="userSpaceOnUse" r="11.2507" xlink:href="#h"/><radialGradient id="a9" cx="3952.3484" cy="5262.8999" gradientTransform="matrix(0 -1 1 0 -5135.66355 5025.32025)" gradientUnits="userSpaceOnUse" r="5.6228" xlink:href="#h"/><radialGradient id="ba" cx="4358.6768" cy="4918.6069" gradientTransform="matrix(0 1 -1 0 5224.5762 -3824.5764)" gradientUnits="userSpaceOnUse" r="11.2507" xlink:href="#h"/><radialGradient id="bb" cx="5075.5581" cy="4804.9849" gradientTransform="matrix(0 1 -1 0 5224.5762 -3824.5764)" gradientUnits="userSpaceOnUse" r="11.2507" xlink:href="#h"/><radialGradient id="bc" cx="5064.3071" cy="4349.7529" gradientTransform="matrix(0 1 -1 0 5224.5762 -3824.5764)" gradientUnits="userSpaceOnUse" r="11.2507" xlink:href="#h"/><radialGradient id="bd" cx="5103.2256" cy="4509.8506" gradientTransform="matrix(0 1 -1 0 5224.5762 -3824.5764)" gradientUnits="userSpaceOnUse" r="11.2507" xlink:href="#h"/><radialGradient id="be" cx="5192.5688" cy="4473.0386" gradientTransform="matrix(0 1 -1 0 5224.5762 -3824.5764)" gradientUnits="userSpaceOnUse" r="5.6228" xlink:href="#h"/><radialGradient id="bf" cx="5182.8633" cy="4725.9341" gradientTransform="matrix(0 1 -1 0 5224.5762 -3824.5764)" gradientUnits="userSpaceOnUse" r="11.2507" xlink:href="#h"/><radialGradient id="bg" cx="5080.7241" cy="4686.5615" gradientTransform="matrix(0 1 -1 0 5224.5762 -3824.5764)" gradientUnits="userSpaceOnUse" r="11.2507" xlink:href="#h"/><radialGradient id="bh" cx="5158.7168" cy="4820.2441" gradientTransform="matrix(0 1 -1 0 5224.5762 -3824.5764)" gradientUnits="userSpaceOnUse" r="7.1455" xlink:href="#h"/><radialGradient id="bi" cx="5073.1938" cy="4242.5928" gradientTransform="matrix(0 1 -1 0 5224.5762 -3824.5764)" gradientUnits="userSpaceOnUse" r="11.2507" xlink:href="#h"/><radialGradient id="bj" cx="18862.688" cy="4376.7666" gradientTransform="matrix(0 .2895 -1 0 5224.5762 -4086.6375)" gradientUnits="userSpaceOnUse" r="29.7325" xlink:href="#h"/><radialGradient id="bk" cx="-15108.562" cy="5677.0186" gradientTransform="matrix(.2895 0 0 1 5221.3418 -4303.4033)" gradientUnits="userSpaceOnUse" r="29.7325" xlink:href="#h"/><radialGradient id="bl" cx="18223.164" cy="4902.7319" gradientTransform="matrix(0 .2895 -1 0 5224.5762 -4086.6375)" gradientUnits="userSpaceOnUse" r="19.241899" xlink:href="#h"/><radialGradient id="bm" cx="-16925.533" cy="5491.8931" gradientTransform="matrix(.2895 0 0 1 5221.3418 -4303.4033)" gradientUnits="userSpaceOnUse" r="19.241899" xlink:href="#h"/><radialGradient id="bn" cx="18874.334" cy="4574.7783" gradientTransform="matrix(0 .2895 -1 0 5224.5762 -4086.6375)" gradientUnits="userSpaceOnUse" r="19.241899" xlink:href="#h"/><radialGradient id="bo" cx="-15792.604" cy="5680.3896" gradientTransform="matrix(.2895 0 0 1 5221.3418 -4303.4033)" gradientUnits="userSpaceOnUse" r="19.241899" xlink:href="#h"/><radialGradient id="bp" cx="4756.5977" cy="3890.749" gradientTransform="matrix(0 1 -1 0 5224.5762 -3824.5764)" gradientUnits="userSpaceOnUse" r="5.6228" xlink:href="#h"/><radialGradient id="bq" cx="4625.9868" cy="3860.8828" gradientTransform="matrix(0 1 -1 0 5224.5762 -3824.5764)" gradientUnits="userSpaceOnUse" r="5.6228" xlink:href="#h"/><radialGradient id="br" cx="4664.439" cy="3976.0093" gradientTransform="matrix(0 1 -1 0 5224.5762 -3824.5764)" gradientUnits="userSpaceOnUse" r="11.2507" xlink:href="#h"/><radialGradient id="bs" cx="4894.2646" cy="3962.3374" gradientTransform="matrix(0 1 -1 0 5224.5762 -3824.5764)" gradientUnits="userSpaceOnUse" r="11.2507" xlink:href="#h"/><radialGradient id="bt" cx="4371.5723" cy="4006.416" gradientTransform="matrix(0 1 -1 0 5224.5762 -3824.5764)" gradientUnits="userSpaceOnUse" r="11.2507" xlink:href="#h"/><radialGradient id="bu" cx="4510.9111" cy="4024.2048" gradientTransform="matrix(0 1 -1 0 5224.5762 -3824.5764)" gradientUnits="userSpaceOnUse" r="11.2507" xlink:href="#h"/><radialGradient id="bv" cx="4269.4331" cy="3967.0435" gradientTransform="matrix(0 1 -1 0 5224.5762 -3824.5764)" gradientUnits="userSpaceOnUse" r="11.2507" xlink:href="#h"/><radialGradient id="bw" cx="4484.8335" cy="3944.6709" gradientTransform="matrix(0 1 -1 0 5224.5762 -3824.5764)" gradientUnits="userSpaceOnUse" r="7.1455" xlink:href="#h"/><radialGradient id="bx" cx="4613.2183" cy="3920.979" gradientTransform="matrix(0 1 -1 0 5224.5762 -3824.5764)" gradientUnits="userSpaceOnUse" r="7.1455" xlink:href="#h"/><radialGradient id="by" cx="4533.5781" cy="3873.6511" gradientTransform="matrix(0 1 -1 0 5224.5762 -3824.5764)" gradientUnits="userSpaceOnUse" r="7.1455" xlink:href="#h"/><radialGradient id="bz" cx="17559.291" cy="3956.7673" gradientTransform="matrix(0 .2895 -1 0 5224.5762 -4086.6375)" gradientUnits="userSpaceOnUse" r="19.241899" xlink:href="#h"/><radialGradient id="bA" cx="-13657.657" cy="5299.7192" gradientTransform="matrix(.2895 0 0 1 5221.3418 -4303.4033)" gradientUnits="userSpaceOnUse" r="19.241899" xlink:href="#h"/><radialGradient id="bB" cx="16071.692" cy="3855.26" gradientTransform="matrix(0 .2895 -1 0 5224.5762 -4086.6375)" gradientUnits="userSpaceOnUse" r="19.241899" xlink:href="#h"/><radialGradient id="bC" cx="-13306.996" cy="4869.0986" gradientTransform="matrix(.2895 0 0 1 5221.3418 -4303.4033)" gradientUnits="userSpaceOnUse" r="19.241899" xlink:href="#h"/><radialGradient id="bD" cx="15143.32" cy="3963.0671" gradientTransform="matrix(0 .2895 -1 0 5224.5762 -4086.6375)" gradientUnits="userSpaceOnUse" r="19.241899" xlink:href="#h"/><radialGradient id="bE" cx="-13679.42" cy="4600.3594" gradientTransform="matrix(.2895 0 0 1 5221.3418 -4303.4033)" gradientUnits="userSpaceOnUse" r="19.241899" xlink:href="#h"/><g stroke-width="1.43428" transform="matrix(.69721388 0 0 .69721388 -121.17798 -19.710906)"><g opacity=".8" transform="matrix(.13855945 0 0 .1365158 170.5193 23.909283)"><circle cx="946.90002" cy="776.5" fill="url(#g)" opacity=".5" r="11.3"/><circle cx="828.79999" cy="869.79999" fill="url(#i)" opacity=".5" r="11.3"/><circle cx="339.10001" cy="1021.2" fill="url(#j)" opacity=".5" r="11.3"/><circle cx="1023.5" cy="1172.2" fill="url(#k)" opacity=".5" r="11.3"/><circle cx="419.60001" cy="439.70001" fill="url(#l)" opacity=".5" r="11.3"/><circle cx="874.79999" cy="428.39999" fill="url(#m)" opacity=".5" r="11.3"/><circle cx="714.70001" cy="467.39999" fill="url(#n)" opacity=".5" r="11.3"/><circle cx="1030.9" cy="354.20001" fill="url(#o)" opacity=".5" r="11.3"/><circle cx="1040.2" cy="684.29999" fill="url(#p)" opacity=".5" r="11.3"/><circle cx="625.59998" cy="345" fill="url(#q)" opacity=".5" r="11.3"/><circle cx="553.20001" cy="199.5" fill="url(#r)" opacity=".5" r="11.3"/><circle cx="751.5" cy="556.70001" fill="url(#s)" opacity=".5" r="5.6"/><circle cx="777.40002" cy="382.79999" fill="url(#t)" opacity=".5" r="5.6"/><circle cx="420.60001" cy="331.5" fill="url(#u)" opacity=".5" r="5.6"/><circle cx="206.5" cy="377.10001" fill="url(#v)" opacity=".5" r="5.6"/><circle cx="614.29999" cy="932" fill="url(#w)" opacity=".5" r="5.6"/><circle cx="726.20001" cy="900.29999" fill="url(#x)" opacity=".5" r="5.6"/><circle cx="308" cy="931" fill="url(#y)" opacity=".5" r="5.6"/><circle cx="818.09998" cy="990.70001" fill="url(#z)" opacity=".5" r="5.6"/><circle cx="695.79999" cy="1015.6" fill="url(#A)" opacity=".5" r="5.6"/><circle cx="549.29999" cy="1170.2" fill="url(#B)" opacity=".5" r="5.6"/><circle cx="644.20001" cy="801.40002" fill="url(#C)" opacity=".5" r="5.6"/><circle cx="993.20001" cy="1007.5" fill="url(#D)" opacity=".5" r="5.6"/><circle cx="943.29999" cy="1095.6" fill="url(#E)" opacity=".5" r="5.6"/><circle cx="911.40002" cy="659.29999" fill="url(#F)" opacity=".5" r="5.6"/><circle cx="529" cy="839.90002" fill="url(#G)" opacity=".5" r="11.3"/><circle cx="542.70001" cy="1069.7" fill="url(#H)" opacity=".5" r="11.3"/><circle cx="863.59998" cy="1161" fill="url(#I)" opacity=".5" r="11.3"/><circle cx="1134.7" cy="889" fill="url(#J)" opacity=".5" r="11.3"/><circle cx="419.60001" cy="933" fill="url(#K)" opacity=".5" r="11.3"/><circle cx="208.5" cy="608.79999" fill="url(#L)" opacity=".5" r="11.3"/><circle cx="498.60001" cy="547" fill="url(#M)" opacity=".5" r="11.3"/><circle cx="480.89999" cy="686.29999" fill="url(#N)" opacity=".5" r="11.3"/><circle cx="538" cy="444.89999" fill="url(#O)" opacity=".5" r="11.3"/><circle cx="341.10001" cy="248" fill="url(#P)" opacity=".5" r="11.3"/><circle cx="560.40002" cy="660.29999" fill="url(#Q)" opacity=".5" r="7.1"/><circle cx="584.09998" cy="788.59998" fill="url(#R)" opacity=".5" r="7.1"/><circle cx="972" cy="267.20001" fill="url(#S)" opacity=".5" r="7.1"/><circle cx="360.60001" cy="841.90002" fill="url(#T)" opacity=".5" r="7.1"/><circle cx="384.5" cy="1069.7" fill="url(#U)" opacity=".5" r="7.1"/><circle cx="415" cy="1149.7" fill="url(#V)" opacity=".5" r="7.1"/><circle cx="226.89999" cy="764.59998" fill="url(#W)" opacity=".5" r="7.1"/><circle cx="704.79999" cy="240.89999" fill="url(#X)" opacity=".5" r="7.1"/><circle cx="404.29999" cy="522.79999" fill="url(#Y)" opacity=".5" r="7.1"/><circle cx="631.40002" cy="709" fill="url(#Z)" opacity=".5" r="7.1"/><circle cx="1004.5" cy="623.59998" fill="url(#aa)" opacity=".5" r="11.3"/><circle cx="294.70001" cy="1083.7" fill="url(#ab)" opacity=".5" r="11.3"/><circle cx="210.5" cy="1163" fill="url(#ac)" opacity=".5" r="11.3"/><circle cx="411.5" cy="167" fill="url(#ad)" opacity=".5" r="11.3"/><circle cx="872.79999" cy="188.2" fill="url(#ae)" opacity=".5" r="11.3"/><circle cx="197.3" cy="858.5" fill="url(#af)" opacity=".5" r="11.3"/><circle cx="1028.9" cy="542.90002" fill="url(#ag)" opacity=".5" r="11.3"/><circle cx="1134.7" cy="701.90002" fill="url(#ah)" opacity=".5" r="11.3"/><circle cx="982" cy="437.29999" fill="url(#ai)" opacity=".5" r="11.3"/><ellipse cx="707" cy="728.20001" fill="url(#aj)" rx="19.200001" ry="5.6"/><ellipse cx="707" cy="728.20001" fill="url(#ak)" rx="5.6" ry="19.200001"/><ellipse cx="324" cy="638.5" fill="url(#al)" rx="29.700001" ry="8.6"/><ellipse cx="324" cy="638.5" fill="url(#am)" rx="8.6" ry="29.700001"/><ellipse cx="195.3" cy="989.70001" fill="url(#an)" rx="29.700001" ry="8.6"/><ellipse cx="195.3" cy="989.70001" fill="url(#ao)" rx="8.6" ry="29.700001"/><ellipse cx="249.5" cy="300.29999" fill="url(#ap)" rx="29.700001" ry="8.6"/><ellipse cx="249.5" cy="300.29999" fill="url(#aq)" rx="8.6" ry="29.700001"/><ellipse cx="844.40002" cy="773.20001" fill="url(#ar)" rx="29.700001" ry="8.6"/><ellipse cx="844.40002" cy="773.20001" fill="url(#as)" rx="8.6" ry="29.700001"/><ellipse cx="839.20001" cy="270.60001" fill="url(#at)" rx="29.700001" ry="8.6"/><ellipse cx="839.20001" cy="270.60001" fill="url(#au)" rx="8.6" ry="29.700001"/><ellipse cx="847.79999" cy="562.29999" fill="url(#av)" rx="29.700001" ry="8.6"/><ellipse cx="847.79999" cy="562.29999" fill="url(#aw)" rx="8.6" ry="29.700001"/><ellipse cx="1143.3" cy="506.20001" fill="url(#ax)" rx="29.700001" ry="8.6"/><ellipse cx="1143.3" cy="506.20001" fill="url(#ay)" rx="8.6" ry="29.700001"/><ellipse cx="1118.3" cy="1092.3" fill="url(#az)" rx="29.700001" ry="8.6"/><ellipse cx="1118.3" cy="1092.3" fill="url(#aA)" rx="8.6" ry="29.700001"/><ellipse cx="321.79999" cy="377.20001" fill="url(#aB)" rx="19.200001" ry="5.6"/><ellipse cx="321.79999" cy="377.20001" fill="url(#aC)" rx="5.6" ry="19.200001"/><ellipse cx="548.29999" cy="996.29999" fill="url(#aD)" rx="19.200001" ry="5.6"/><ellipse cx="548.29999" cy="996.29999" fill="url(#aE)" rx="5.6" ry="19.200001"/><ellipse cx="450.10001" cy="795.79999" fill="url(#aF)" rx="19.200001" ry="5.6"/><ellipse cx="450.10001" cy="795.79999" fill="url(#aG)" rx="5.6" ry="19.200001"/><ellipse cx="649.79999" cy="565.70001" fill="url(#aH)" rx="19.200001" ry="5.6"/><ellipse cx="649.79999" cy="565.70001" fill="url(#aI)" rx="5.6" ry="19.200001"/><ellipse cx="353.5" cy="747.5" fill="url(#aJ)" rx="19.200001" ry="5.6"/><ellipse cx="353.5" cy="747.5" fill="url(#aK)" rx="5.6" ry="19.200001"/><ellipse cx="712.5" cy="1141.6" fill="url(#aL)" rx="19.200001" ry="5.6"/><ellipse cx="712.5" cy="1141.6" fill="url(#aM)" rx="5.6" ry="19.200001"/><ellipse cx="979.59998" cy="889" fill="url(#aN)" rx="19.200001" ry="5.6"/><ellipse cx="979.59998" cy="889" fill="url(#aO)" rx="5.6" ry="19.200001"/><ellipse cx="542" cy="297" fill="url(#aP)" rx="19.200001" ry="5.6"/><ellipse cx="542" cy="297" fill="url(#aQ)" rx="5.6" ry="19.200001"/><ellipse cx="856.40002" cy="1023.2" fill="url(#aR)" rx="19.200001" ry="5.6"/><ellipse cx="856.40002" cy="1023.2" fill="url(#aS)" rx="5.6" ry="19.200001"/><circle cx="1023.5" cy="132.7" fill="url(#aT)" opacity=".5" r="11.3"/><circle cx="549.29999" cy="130.7" fill="url(#aU)" opacity=".5" r="5.6"/><circle cx="943.29999" cy="56.099998" fill="url(#aV)" opacity=".5" r="5.6"/><circle cx="863.59998" cy="121.5" fill="url(#aW)" opacity=".5" r="11.3"/><ellipse cx="712.5" cy="102" fill="url(#aX)" rx="19.200001" ry="5.6"/><ellipse cx="712.5" cy="102" fill="url(#aY)" rx="5.6" ry="19.200001"/><ellipse cx="1069.3" cy="771.59998" fill="url(#aZ)" rx="19.200001" ry="5.6"/><ellipse cx="1069.3" cy="771.59998" fill="url(#a0)" rx="5.6" ry="19.200001"/><ellipse cx="1134.7" cy="308.89999" fill="url(#a1)" rx="19.200001" ry="5.6"/><ellipse cx="1134.7" cy="308.89999" fill="url(#a2)" rx="5.6" ry="19.200001"/><ellipse cx="1109.7" cy="197.5" fill="url(#a3)" rx="19.200001" ry="5.6"/><ellipse cx="1109.7" cy="197.5" fill="url(#a4)" rx="5.6" ry="19.200001"/><circle cx="39.599998" cy="774.90002" fill="url(#a5)" opacity=".5" r="11.3"/><circle cx="98.5" cy="861.90002" fill="url(#a6)" opacity=".5" r="7.1"/><circle cx="88.5" cy="691.79999" fill="url(#a7)" opacity=".5" r="11.3"/><circle cx="47" cy="996.40002" fill="url(#a8)" opacity=".5" r="11.3"/><circle cx="127.2" cy="1073" fill="url(#a9)" opacity=".5" r="5.6"/><circle cx="306" cy="534.09998" fill="url(#ba)" opacity=".5" r="11.3"/><circle cx="419.60001" cy="1251" fill="url(#bb)" opacity=".5" r="11.3"/><circle cx="874.79999" cy="1239.7" fill="url(#bc)" opacity=".5" r="11.3"/><circle cx="714.70001" cy="1278.6" fill="url(#bd)" opacity=".5" r="11.3"/><circle cx="751.5" cy="1368" fill="url(#be)" opacity=".5" r="5.6"/><circle cx="498.60001" cy="1358.3" fill="url(#bf)" opacity=".5" r="11.3"/><circle cx="538" cy="1256.1" fill="url(#bg)" opacity=".5" r="11.3"/><circle cx="404.29999" cy="1334.1" fill="url(#bh)" opacity=".5" r="7.1"/><circle cx="982" cy="1248.6" fill="url(#bi)" opacity=".5" r="11.3"/><ellipse cx="847.79999" cy="1373.6" fill="url(#bj)" rx="29.700001" ry="8.6"/><ellipse cx="847.79999" cy="1373.6" fill="url(#bk)" rx="8.6" ry="29.700001"/><ellipse cx="321.79999" cy="1188.5" fill="url(#bl)" rx="19.200001" ry="5.6"/><ellipse cx="321.79999" cy="1188.5" fill="url(#bm)" rx="5.6" ry="19.200001"/><ellipse cx="649.79999" cy="1377" fill="url(#bn)" rx="19.200001" ry="5.6"/><ellipse cx="649.79999" cy="1377" fill="url(#bo)" rx="5.6" ry="19.200001"/><circle cx="1333.8" cy="932" fill="url(#bp)" opacity=".5" r="5.6"/><circle cx="1363.7" cy="801.40002" fill="url(#bq)" opacity=".5" r="5.6"/><circle cx="1248.6" cy="839.90002" fill="url(#br)" opacity=".5" r="11.3"/><circle cx="1262.2" cy="1069.7" fill="url(#bs)" opacity=".5" r="11.3"/><circle cx="1218.2" cy="547" fill="url(#bt)" opacity=".5" r="11.3"/><circle cx="1200.4" cy="686.29999" fill="url(#bu)" opacity=".5" r="11.3"/><circle cx="1257.5" cy="444.89999" fill="url(#bv)" opacity=".5" r="11.3"/><circle cx="1279.9" cy="660.29999" fill="url(#bw)" opacity=".5" r="7.1"/><circle cx="1303.6" cy="788.59998" fill="url(#bx)" opacity=".5" r="7.1"/><circle cx="1350.9" cy="709" fill="url(#by)" opacity=".5" r="7.1"/><ellipse cx="1267.8" cy="996.29999" fill="url(#bz)" rx="19.200001" ry="5.6"/><ellipse cx="1267.8" cy="996.29999" fill="url(#bA)" rx="5.6" ry="19.200001"/><ellipse cx="1369.3" cy="565.70001" fill="url(#bB)" rx="19.200001" ry="5.6"/><ellipse cx="1369.3" cy="565.70001" fill="url(#bC)" rx="5.6" ry="19.200001"/><ellipse cx="1261.5" cy="297" fill="url(#bD)" rx="19.200001" ry="5.6"/><ellipse cx="1261.5" cy="297" fill="url(#bE)" rx="5.6" ry="19.200001"/><g fill="#fff"><circle cx="946.90002" cy="776.5" r="2"/><circle cx="828.79999" cy="869.79999" r="2"/><circle cx="339.10001" cy="1021.2" r="2"/><circle cx="1023.5" cy="1172.2" r="2"/><circle cx="419.60001" cy="439.70001" r="2"/><circle cx="874.79999" cy="428.39999" r="2"/><circle cx="714.70001" cy="467.39999" r="2"/><circle cx="1030.9" cy="354.20001" r="2"/><circle cx="1040.2" cy="684.29999" r="2"/><circle cx="625.59998" cy="345" r="2"/><circle cx="553.20001" cy="199.5" r="2"/><circle cx="751.5" cy="556.70001" r="1"/><circle cx="777.40002" cy="382.79999" r="1"/><circle cx="420.60001" cy="331.5" r="1"/><circle cx="206.5" cy="377.10001" r="1"/><circle cx="614.29999" cy="932" r="1"/><circle cx="726.20001" cy="900.29999" r="1"/><circle cx="308" cy="931" r="1"/><circle cx="818.09998" cy="990.70001" r="1"/><circle cx="695.79999" cy="1015.6" r="1"/><circle cx="549.29999" cy="1170.2" r="1"/><circle cx="644.20001" cy="801.40002" r="1"/><circle cx="993.20001" cy="1007.5" r="1"/><circle cx="943.29999" cy="1095.6" r="1"/><circle cx="911.40002" cy="659.29999" r="1"/><circle cx="529" cy="839.90002" r="2"/><circle cx="542.70001" cy="1069.7" r="2"/><circle cx="863.59998" cy="1161" r="2"/><circle cx="1134.7" cy="889" r="2"/><circle cx="419.60001" cy="933" r="2"/><circle cx="208.5" cy="608.79999" r="2"/><circle cx="498.60001" cy="547" r="2"/><circle cx="480.89999" cy="686.29999" r="2"/><circle cx="538" cy="444.89999" r="2"/><circle cx="341.10001" cy="248" r="2"/><circle cx="560.40002" cy="660.29999" r="1.3"/><circle cx="584.09998" cy="788.59998" r="1.3"/><circle cx="972" cy="267.20001" r="1.3"/><circle cx="360.60001" cy="841.90002" r="1.3"/><circle cx="384.5" cy="1069.7" r="1.3"/><circle cx="415" cy="1149.7" r="1.3"/><circle cx="226.89999" cy="764.59998" r="1.3"/><circle cx="704.79999" cy="240.89999" r="1.3"/><circle cx="404.29999" cy="522.79999" r="1.3"/><circle cx="631.40002" cy="709" r="1.3"/><circle cx="1004.5" cy="623.59998" r="2"/><circle cx="294.70001" cy="1083.7" r="2"/><circle cx="210.5" cy="1163" r="2"/><circle cx="411.5" cy="167" r="2"/><circle cx="872.79999" cy="188.2" r="2"/><circle cx="197.3" cy="858.5" r="2"/><circle cx="1028.9" cy="542.90002" r="2"/><circle cx="1134.7" cy="701.90002" r="2"/><circle cx="982" cy="437.29999" r="2"/><circle cx="707" cy="728.20001" r="2.2"/><circle cx="324" cy="638.5" r="3.4"/><circle cx="195.3" cy="989.70001" r="3.4"/><circle cx="249.5" cy="300.29999" r="3.4"/><circle cx="844.40002" cy="773.20001" r="3.4"/><circle cx="839.20001" cy="270.60001" r="3.4"/><circle cx="847.79999" cy="562.29999" r="3.4"/><circle cx="1143.3" cy="506.20001" r="3.4"/><circle cx="1118.3" cy="1092.3" r="3.4"/><circle cx="321.79999" cy="377.20001" r="2.2"/><circle cx="548.29999" cy="996.29999" r="2.2"/><circle cx="450.10001" cy="795.79999" r="2.2"/><circle cx="649.79999" cy="565.70001" r="2.2"/><circle cx="353.5" cy="747.5" r="2.2"/><circle cx="712.5" cy="1141.6" r="2.2"/><circle cx="979.59998" cy="889" r="2.2"/><circle cx="542" cy="297" r="2.2"/><circle cx="856.40002" cy="1023.2" r="2.2"/><circle cx="1023.5" cy="132.7" r="2"/><circle cx="549.29999" cy="130.7" r="1"/><circle cx="943.29999" cy="56.099998" r="1"/><circle cx="863.59998" cy="121.5" r="2"/><circle cx="712.5" cy="102" r="2.2"/><circle cx="1069.3" cy="771.59998" r="2.2"/><circle cx="1134.7" cy="308.89999" r="2.2"/><circle cx="1109.7" cy="197.5" r="2.2"/><circle cx="39.599998" cy="774.90002" r="2"/><circle cx="98.5" cy="861.90002" r="1.3"/><circle cx="88.5" cy="691.79999" r="2"/><circle cx="47" cy="996.40002" r="2"/><circle cx="127.2" cy="1073" r="1"/><circle cx="306" cy="534.09998" r="2"/><circle cx="419.60001" cy="1251" r="2"/><circle cx="874.79999" cy="1239.7" r="2"/><circle cx="714.70001" cy="1278.6" r="2"/><circle cx="751.5" cy="1368" r="1"/><circle cx="498.60001" cy="1358.3" r="2"/><circle cx="538" cy="1256.1" r="2"/><circle cx="404.29999" cy="1334.1" r="1.3"/><circle cx="982" cy="1248.6" r="2"/><circle cx="847.79999" cy="1373.6" r="3.4"/><circle cx="321.79999" cy="1188.5" r="2.2"/><circle cx="649.79999" cy="1377" r="2.2"/><circle cx="1333.8" cy="932" r="1"/><circle cx="1363.7" cy="801.40002" r="1"/><circle cx="1248.6" cy="839.90002" r="2"/><circle cx="1262.2" cy="1069.7" r="2"/><circle cx="1218.2" cy="547" r="2"/><circle cx="1200.4" cy="686.29999" r="2"/><circle cx="1257.5" cy="444.89999" r="2"/><circle cx="1279.9" cy="660.29999" r="1.3"/><circle cx="1303.6" cy="788.59998" r="1.3"/><circle cx="1350.9" cy="709" r="1.3"/><circle cx="1267.8" cy="996.29999" r="2.2"/><circle cx="1369.3" cy="565.70001" r="2.2"/><circle cx="1261.5" cy="297" r="2.2"/></g></g><path clip-path="url(#f)" d="m268.67546 66.219623c-31.3739 0-56.92427 25.549106-56.92427 56.922997 0 31.37389 25.55037 56.92299 56.92427 56.92299 31.37388 0 56.92299-25.5491 56.92299-56.92299 0-31.373891-25.54911-56.922999-56.92299-56.922997z" fill="#fff5b3" filter="url(#c)"/><g clip-path="url(#e)"><g opacity=".85" stroke-width="1.67333" transform="matrix(.85714285 0 0 .85714285 38.382119 17.591803)"><path d="m1015.4668 214.42188c-138.34171 0-251.00586 112.65635-251.00586 250.99804 0 138.34171 112.66415 251 251.00586 251 138.3417 0 251-112.65829 251-251 0-138.34169-112.6583-250.99805-251-250.99804z" fill="#46453a" opacity="1" transform="scale(.26458334)"/><path d="m268.67494 61.494764c-34.02542 0-61.64792 27.622501-61.64792 61.647916 0 34.02542 27.6225 61.64792 61.64792 61.64792 34.02541 0 61.64791-27.6225 61.64791-61.64792 0-34.025415-27.6225-61.647916-61.64791-61.647916z" fill="#9e9c94" stroke-width="15.9384"/><path d="m268.67494 66.257264c31.4325 0 56.88541 25.452917 56.88541 56.885416 0 31.4325-25.45291 56.88542-56.88541 56.88542-31.43251 0-56.88542-25.45292-56.88542-56.88542 0-31.432499 25.45291-56.885416 56.88542-56.885416z" fill="#d7dadb" filter="url(#a)" opacity="1" stroke-width=".439248" transform="matrix(.81226411 0 0 .81226411 50.439927 23.118301)"/><path d="m318.4166 127.77289c-8.62541 19.20875-29.39521 40.58709-57.94375 41.275 2.14313 2.40771 13.17625 4.78896 20.24063 2.38125 24.71208-8.41375 34.15771-31.56479 37.70312-43.65625z" fill="#fff" filter="url(#b)" opacity="1" stroke-width=".577191"/></g><path d="m268.67546 66.219623c-31.3739 0-56.92427 25.549106-56.92427 56.922997 0 31.37389 25.55037 56.92299 56.92427 56.92299 31.37388 0 56.92299-25.5491 56.92299-56.92299 0-31.373891-25.54911-56.922999-56.92299-56.922997zm0 4.08181c29.1646 0 52.84119 23.676572 52.84119 52.841187 0 29.16462-23.67659 52.84118-52.84119 52.84118-29.16462 0-52.84119-23.67656-52.84119-52.84118 0-29.164615 23.67657-52.841187 52.84119-52.841187z" fill="#46453a"/></g><path d="m268.67546 70.301433c22.15668-.03297 43.56769 14.980852 50.05321 36.364747 9.10123 25.08921-4.92842 55.68222-29.89401 65.15003-24.77311 11.19642-56.8986-1.22736-67.77271-26.11531-11.95885-23.40469-2.35802-54.793459 20.42917-67.730423 8.20294-4.806053 17.64964-7.640631 27.18434-7.669044z" fill="#fffbcc" filter="url(#d)" opacity=".1"/></g></svg>