<svg height="500" viewBox="0 0 132.29167 132.29167" width="500" xmlns="http://www.w3.org/2000/svg" xmlns:xlink="http://www.w3.org/1999/xlink"><filter id="a" color-interpolation-filters="sRGB" height="1.499523" width="1.287181" x="-.143591" y="-.249761"><feGaussianBlur stdDeviation="6.6785811"/></filter><filter id="b" color-interpolation-filters="sRGB" height="1.323645" width="1.186067" x="-.093034" y="-.161823"><feGaussianBlur stdDeviation="4.3271092"/></filter><filter id="c" color-interpolation-filters="sRGB" height="1.371465" width="1.371465" x="-.185733" y="-.185733"><feGaussianBlur stdDeviation="2.3527334"/></filter><filter id="d" color-interpolation-filters="sRGB" height="1.601833" width="1.281965" x="-.140982" y="-.300917"><feGaussianBlur stdDeviation="8.2937652"/></filter><radialGradient id="e" cx="-149.55182" cy="-66.956741" gradientTransform="matrix(-.44907302 .9906021 -1.3689722 -.62060053 -137.93278 42.820197)" gradientUnits="userSpaceOnUse" r="40.064022" spreadMethod="reflect"><stop offset="0" stop-color="#ba8425"/><stop offset=".17505421" stop-color="#ecc374"/><stop offset=".37238631" stop-color="#e4b967"/><stop offset=".49845961" stop-color="#fce29f"/><stop offset=".74238402" stop-color="#d7a852"/><stop offset="1" stop-color="#ba8425"/></radialGradient><filter id="f" color-interpolation-filters="sRGB" height="1.130803" width="1.1758" x="-.0879" y="-.065402"><feGaussianBlur stdDeviation="2.9346959"/></filter><clipPath id="g"><path d="m61.11583 8.8346989c-2.199878 4.3443961-7.432252 8.5492281-14.219291 10.8809901-6.861942 2.357488-13.643451 2.225195-18.04543.0832-.0026.00045-.078.01499-.078.01499l14.98256 23.150526c-5.853377 4.23244-10.865009 9.578196-13.634826 15.733923-4.982924 10.96675-4.816157 22.908391-.862991 33.31166 3.898768 9.071842 11.306942 16.392502 19.446875 20.435452 10.16942 4.55605 20.865757 5.17311 30.708204 1.86397 10.698533-4.12649 18.398067-11.0808 23.192369-20.644223 4.15428-9.103503 4.79986-18.432648 2.66446-27.470156-3.27057-11.904072-11.133162-20.478262-21.420453-26.092472-6.455146-3.305807-13.73386-4.362567-20.288674-3.940845z"/></clipPath><linearGradient id="h"><stop offset="0" stop-color="#910841"/><stop offset=".25" stop-color="#921145"/><stop offset=".5" stop-color="#aa084b"/><stop offset=".75" stop-color="#a20345"/><stop offset="1" stop-color="#910841"/></linearGradient><linearGradient id="i" gradientUnits="userSpaceOnUse" spreadMethod="reflect" x1="-1006.0348" x2="-958.20056" xlink:href="#h" y1="-356.24057" y2="-188.12184"/><filter id="j" color-interpolation-filters="sRGB" height="1.123854" width="1.130228" x="-.065114" y="-.061927"><feGaussianBlur stdDeviation="4.6968705"/></filter><linearGradient id="k" gradientUnits="userSpaceOnUse" spreadMethod="reflect" x1="-1006.0348" x2="-931.96887" xlink:href="#h" y1="-356.24057" y2="-223.59644"/><filter id="l" color-interpolation-filters="sRGB" height="1.123854" width="1.130228" x="-.065114" y="-.061927"><feGaussianBlur stdDeviation="4.6968736"/></filter><linearGradient id="m" gradientUnits="userSpaceOnUse" spreadMethod="reflect" x1="-850.18774" x2="-931.96887" xlink:href="#h" y1="-368.57956" y2="-223.59644"/><filter id="n" color-interpolation-filters="sRGB" height="1.110778" width="1.105357" x="-.052678" y="-.055389"><feGaussianBlur stdDeviation="4.6968736"/></filter><filter id="o" color-interpolation-filters="sRGB" height="1.148139" width="1.105357" x="-.052678" y="-.074069"><feGaussianBlur stdDeviation="4.6968736"/></filter><linearGradient id="p" gradientUnits="userSpaceOnUse" spreadMethod="reflect" x1="-1006.0348" x2="-854.81683" xlink:href="#h" y1="-356.24057" y2="-320.76599"/><filter id="q" color-interpolation-filters="sRGB" height="1.068656" width="1.065295" x="-.032648" y="-.034328"><feGaussianBlur stdDeviation="4.709957"/></filter><g id="r" transform="matrix(.26458334 0 0 .26458334 248.44376 13.493771)"><path d="m160.79329 121.20969a11.326942 11.322048 89.999748 0 0 -5.66018 4.11434l-52.97065 72.93982a11.326942 11.322048 89.999748 0 0 -2.16196 6.65727l-.00038 90.1577a11.326942 11.322048 89.999748 0 0 2.16217 6.65732l52.97076 72.9389a11.326942 11.322048 89.999748 0 0 5.66043 4.11453l85.7086 27.86072a11.326942 11.322048 89.999748 0 0 6.99647.00015l85.70812-27.8603a11.326942 11.322048 89.999748 0 0 5.66018-4.11432l52.97067-72.93982a11.326942 11.322048 89.999748 0 0 2.16195-6.65726l.00037-90.15771a11.326942 11.322048 89.999748 0 0 -2.16215-6.65732l-52.97078-72.9389a11.326942 11.322048 89.999748 0 0 -5.66041-4.11453l-85.7086-27.860717a11.326942 11.322048 89.999748 0 0 -6.99648-.00016z" fill="#520525"/><path d="m362.19388 286.4129 26.48539-81.54886v90.1582zm-112.19389 81.54885 85.70851.00001-85.70851 27.86042zm-112.19389-81.54885 26.48539 81.54885-52.97077-72.93951zm42.85425-131.94883-69.33963 50.39997 52.97077-72.93952zm138.67928 0-69.33964-50.39997 85.70851 27.86042z" fill="#790637"/><path d="m388.67927 295.02224-52.97077 72.93952 26.48538-81.54886zm-138.67928 100.79994-85.7085-27.86043h85.7085zm-138.67927-100.79994v-90.1582l26.48538 81.54886zm52.97077-163.09772 85.7085-27.86042-69.33964 50.39997zm171.41701 0 52.97077 72.93952-69.33964-50.39997z" fill="#df2070"/><path d="m250 431.85343h-132.25168l-40.868018-125.77882 173.119698-56.25z" fill="url(#i)" filter="url(#j)" transform="matrix(.6480712 0 0 .64835128 87.982193 87.969037)"/><path d="m423.1197 306.07461-40.86801 125.77882h-132.25169v-182.02882z" fill="url(#k)" filter="url(#l)" transform="matrix(.6480712 0 0 .64835128 87.982193 87.969037)"/><path d="m356.99386 102.56019 106.99386 77.73559-40.86802 125.77883-173.1197-56.25z" fill="url(#m)" filter="url(#n)" transform="matrix(.6480712 0 0 .64835128 87.982193 87.969037)"/><path d="m143.00614 102.56019 106.99386-77.735584 106.99386 77.735584-106.99385 74.45287z" fill="url(#k)" filter="url(#o)" transform="matrix(.6480712 0 0 .64835128 87.982193 87.969037)"/><path d="m76.880302 306.07461-40.868018-125.77883 106.993856-77.73559 106.99386 147.26442z" fill="url(#p)" filter="url(#n)" transform="matrix(.6480712 0 0 .64835128 87.982193 87.969037)"/><path d="m250 249.82461.00001-72.81155 106.99386-74.45286zm0 0 69.24789-22.50002 103.87181 78.75002zm0 0 42.79756 58.90575-42.79756 123.12307zm0 0-42.79752 58.90575-130.322178-2.65575zm0 0-69.24787-22.50001-37.74599-124.76441z" fill="#df2070" filter="url(#q)" transform="matrix(.6480712 0 0 .64835128 87.982193 87.969037)"/><path d="m319.33964 154.46407-24.46208 80.89116-44.87757 14.58791m112.19389 36.46976-84.45802 1.72186-27.73587-38.19162zm-112.19389 81.54886-27.73584-79.827 27.73584-38.19162zm-112.19389-81.54886 67.31634-51.05767 44.87755 14.58791zm42.85425-131.94883 69.33965 48.27161-.00001 47.20746z" fill="#790637"/><path d="m296.52096 112.33327h16.57065v7.16939l1.49798.48693 1.49799-.48693v-7.16939h16.6632 5.58175l1.76541-5.36658 5.1382-15.820275 6.84065 2.223622.92533-1.274157v-1.575141l-6.84071-2.223643 6.30939-19.426336.53132-1.747655-1.23365-.9392-16.74072-12.168034 4.22765-5.821685-.92556-1.274469-1.49794-.486918-4.22771 5.821561-16.74052-12.168095-1.27407-.925808-1.2946.940984-16.72001 12.152919-4.22706-5.820109-1.4986.48546-.92575 1.27475 4.22779 5.821566-13.35921 9.71032-4.61512 3.508671 1.72033 5.296908 5.12039 15.76517-6.84072 2.223648v1.575139l.92533 1.274162 6.84066-2.22363 5.13895 15.791215 1.76455 5.39564zm18.06863-69.469124 15.76214 11.45689-15.76214 10.973044-15.76213-10.973044zm-19.16991 13.933906 5.5604 18.388005-15.30133 11.605737-6.02047-18.537582zm38.33982 0 15.76141 11.45616-6.02047 18.537582-15.30134-11.605737zm-31.09016 3.848103 10.42227 7.255505v7.096051zm23.84051 0-10.42227 14.351556v-7.096051zm-26.26377 1.762035 10.42264 14.351924-6.7457-2.192854v-.000264zm28.68703 0-3.67695 12.158705v.000529l-6.74569 2.192851zm-25.93572 15.008389 6.74642 2.192854-16.86661 5.482865zm23.18441 0 10.12018 7.675719-16.8666-5.482865zm-15.51308 5.042903-4.16994 5.74143-12.69668-.258929zm7.84175 0 16.86661 5.482501-12.69668.258929zm-5.41886 1.76167v17.738848l-4.16884-11.998516zm2.99597 0 4.16883 5.740332-4.16883 11.998516zm-29.10724 6.578196 19.19771.391321 6.30536 18.146621h-19.48223zm55.2185 0-6.02084 18.537942h-19.48223l6.30536-18.146621z" fill="#520525" transform="matrix(3.7795275 0 0 3.7795275 -939.00001 -51.000078)"/><path d="m314.58959 38.045795a2.9969201 2.9956253 89.999748 0 0 -.92563.146654l-22.6768 7.371437a2.9969201 2.9956253 89.999748 0 0 -1.49762 1.088379l-14.01546 19.298648a2.9969201 2.9956253 89.999748 0 0 -.57198 1.76167v23.854046a2.9969201 2.9956253 89.999748 0 0 .57199 1.761664l14.01546 19.298277a2.9969201 2.9956253 89.999748 0 0 1.49762 1.08875l22.67679 7.37144a2.9969201 2.9956253 89.999748 0 0 1.85127 0l22.6768-7.37144a2.9969201 2.9956253 89.999748 0 0 1.49762-1.08875l14.01546-19.298642a2.9969201 2.9956253 89.999748 0 0 .57199-1.761302l-.00001-23.854043a2.9969201 2.9956253 89.999748 0 0 -.57199-1.76167l-14.01546-19.29828a2.9969201 2.9956253 89.999748 0 0 -1.49762-1.088747l-22.67679-7.371437a2.9969201 2.9956253 89.999748 0 0 -.92564-.146654zm0 2.996703 22.67716 7.371437 14.0151 19.298648v23.854046l-14.0151 19.298641-22.67716 7.37144-22.67716-7.37144-14.01509-19.298641v-23.854046l14.01509-19.298648z" fill="#520525" transform="matrix(3.7795275 0 0 3.7795275 -939.00001 -51.000078)"/></g><g><use opacity=".5" stroke-width=".553492" transform="matrix(1.8067116 0 0 1.8067116 128.34063 4.965061)" xlink:href="#s"/><g stroke-width="1.43082" transform="matrix(.76049456 0 0 .64230476 -106.73088 30.038594)"><use transform="translate(256.68565 26.005322)" xlink:href="#s"/><use transform="translate(222.63551 43.591657)" xlink:href="#s"/><use transform="translate(299.83473 33.863047)" xlink:href="#s"/></g><use filter="url(#c)" stroke-width="1.09546" transform="matrix(1.6982921 0 0 .49067012 124.60837 96.065766)" xlink:href="#s"/><use opacity=".5" stroke-width="1.93024" transform="matrix(0 -.59872585 -.44827858 0 113.24908 79.046253)" xlink:href="#s"/><use opacity=".5" stroke-width="1.22569" transform="matrix(0 .96234818 -.69168168 0 125.7945 121.56036)" xlink:href="#s"/></g><g><g id="s" transform="matrix(0 1 -1 0 -1.88056 -153.461952)"><path d="m99.478534 51.816309s2.953256 1.248787 4.525486 1.527349c.87287.154652 1.78757.216698 2.66171.06879 2.78529-.471282 6.32755-.725565 7.89438-2.989977 2.72621-3.939978 2.51828-10.324766-.31428-14.194727-1.24271-1.697831-3.9366-1.797761-6.04918-2.22549-.93348-.188999-2.85829-.136525-2.85829-.136525.41152-1.734942 1.53983-3.602785.96573-5.314156-1.36517-4.06949-5.59235-7.000242-9.542347-8.963127-5.455386-2.710966-11.982863-3.21315-18.123329-3.176126-5.193123.03131-10.439382 1.089341-15.291062 2.870729-1.125891.413393-3.10729 1.777606-3.10729 1.777606s.365605-2.099584.01299-3.062422c-1.453379-3.968512-4.638757-7.453246-8.266638-9.8039119-3.657168-2.3696436-8.247395-3.9117893-12.651882-3.7142266-5.746527.2577597-11.699249 2.5917498-15.966613 6.3025405-3.313015 2.880913-5.223148 7.202852-6.306611 11.370141-.00008.000307 0 .000633 0 .00095 0 .000316-.000023.000634 0 .00095.139769 1.941849.142372 3.955392.836612 5.783792.441473 1.162696 2.057585 3.142175 2.057585 3.142175s-2.616697-.386491-3.885856-.133598c-2.950726.587961-6.1809853 1.553722-8.1623957 3.73724-2.1952211 2.419138-2.5289952 6.004791-3.0421101 9.1775-.0000423.000262-.0000757.00054 0 .000794.7250183 2.437705 2.0762303 4.930943 4.182269 6.455304 3.1378918 2.271221 7.4143248 2.846737 11.3326338 3.094832 2.1775.137873 4.48098-.06438 6.477794-.910961.687943-.291664 1.746376-1.372737 1.746376-1.372737s.000238 1.373227.447284 1.82835c5.381666 5.478908 14.734766 5.774566 22.542501 6.421437 3.659769.303212 7.772421.551686 10.945813-1.227666 1.203997-.675093 2.467365-3.246258 2.467365-3.246258s-.60335 3.321574.261018 4.621033c3.60952 5.426419 11.093112 8.421284 17.759627 9.040814 4.64059.431258 9.743819-1.100566 13.38607-3.900489 2.69129-2.068887 4.966746-5.334058 5.104346-8.645393.0642-1.545316-2.039706-4.204536-2.039706-4.204536z" fill="#6c7693" filter="url(#a)" opacity=".75" stroke-width=".644655" transform="matrix(-.32371074 0 0 -.52037561 206.96733 51.563956)"/><path d="m99.478534 51.816309s2.953256 1.248787 4.525486 1.527349c.87287.154652 1.78757.216698 2.66171.06879 2.78529-.471282 6.32755-.725565 7.89438-2.989977 2.72621-3.939978 2.51828-10.324766-.31428-14.194727-1.24271-1.697831-3.9366-1.797761-6.04918-2.22549-.93348-.188999-2.85829-.136525-2.85829-.136525.41152-1.734942 1.53983-3.602785.96573-5.314156-1.36517-4.06949-5.59235-7.000242-9.542347-8.963127-5.455386-2.710966-11.982863-3.21315-18.123329-3.176126-5.193123.03131-10.439382 1.089341-15.291062 2.870729-1.125891.413393-3.10729 1.777606-3.10729 1.777606s.365605-2.099584.01299-3.062422c-1.453379-3.968512-4.638757-7.453246-8.266638-9.8039119-3.657168-2.3696436-8.247395-3.9117893-12.651882-3.7142266-5.746527.2577597-11.699249 2.5917498-15.966613 6.3025405-3.313015 2.880913-5.223148 7.202852-6.306611 11.370141-.00008.000307 0 .000633 0 .00095 0 .000316-.000023.000634 0 .00095.139769 1.941849.142372 3.955392.836612 5.783792.441473 1.162696 2.057585 3.142175 2.057585 3.142175s-2.616697-.386491-3.885856-.133598c-2.950726.587961-6.1809853 1.553722-8.1623957 3.73724-2.1952211 2.419138-2.5289952 6.004791-3.0421101 9.1775-.0000423.000262-.0000757.00054 0 .000794.7250183 2.437705 2.0762303 4.930943 4.182269 6.455304 3.1378918 2.271221 7.4143248 2.846737 11.3326338 3.094832 2.1775.137873 4.48098-.06438 6.477794-.910961.687943-.291664 1.746376-1.372737 1.746376-1.372737s.000238 1.373227.447284 1.82835c5.381666 5.478908 14.734766 5.774566 22.542501 6.421437 3.659769.303212 7.772421.551686 10.945813-1.227666 1.203997-.675093 2.467365-3.246258 2.467365-3.246258s-.60335 3.321574.261018 4.621033c3.60952 5.426419 11.093112 8.421284 17.759627 9.040814 4.64059.431258 9.743819-1.100566 13.38607-3.900489 2.69129-2.068887 4.966746-5.334058 5.104346-8.645393.0642-1.545316-2.039706-4.204536-2.039706-4.204536z" fill="#8f98bc" filter="url(#b)" opacity=".75" stroke-width=".417677" transform="matrix(.54568176 0 0 .73537235 154.2138 5.665216)"/><path d="m99.478534 51.816309s2.953256 1.248787 4.525486 1.527349c.87287.154652 1.78757.216698 2.66171.06879 2.78529-.471282 6.32755-.725565 7.89438-2.989977 2.72621-3.939978 2.51828-10.324766-.31428-14.194727-1.24271-1.697831-3.9366-1.797761-6.04918-2.22549-.93348-.188999-2.85829-.136525-2.85829-.136525.41152-1.734942 1.53983-3.602785.96573-5.314156-1.36517-4.06949-5.59235-7.000242-9.542347-8.963127-5.455386-2.710966-11.982863-3.21315-18.123329-3.176126-5.193123.03131-10.439382 1.089341-15.291062 2.870729-1.125891.413393-3.10729 1.777606-3.10729 1.777606s.365605-2.099584.01299-3.062422c-1.453379-3.968512-4.638757-7.453246-8.266638-9.8039119-3.657168-2.3696436-8.247395-3.9117893-12.651882-3.7142266-5.746527.2577597-11.699249 2.5917498-15.966613 6.3025405-3.313015 2.880913-5.223148 7.202852-6.306611 11.370141-.00008.000307 0 .000633 0 .00095 0 .000316-.000023.000634 0 .00095.139769 1.941849.142372 3.955392.836612 5.783792.441473 1.162696 2.057585 3.142175 2.057585 3.142175s-2.616697-.386491-3.885856-.133598c-2.950726.587961-6.1809853 1.553722-8.1623957 3.73724-2.1952211 2.419138-2.5289952 6.004791-3.0421101 9.1775-.0000423.000262-.0000757.00054 0 .000794.7250183 2.437705 2.0762303 4.930943 4.182269 6.455304 3.1378918 2.271221 7.4143248 2.846737 11.3326338 3.094832 2.1775.137873 4.48098-.06438 6.477794-.910961.687943-.291664 1.746376-1.372737 1.746376-1.372737s.000238 1.373227.447284 1.82835c5.381666 5.478908 14.734766 5.774566 22.542501 6.421437 3.659769.303212 7.772421.551686 10.945813-1.227666 1.203997-.675093 2.467365-3.246258 2.467365-3.246258s-.60335 3.321574.261018 4.621033c3.60952 5.426419 11.093112 8.421284 17.759627 9.040814 4.64059.431258 9.743819-1.100566 13.38607-3.900489 2.69129-2.068887 4.966746-5.334058 5.104346-8.645393.0642-1.545316-2.039706-4.204536-2.039706-4.204536z" fill="#888ea6" filter="url(#b)" opacity=".75" stroke-width=".417677" transform="matrix(0 -.54568176 .73537235 0 160.44648 65.654956)"/></g></g><g><g transform="translate(-262.31187 39.336776)"><g clip-path="url(#g)" transform="translate(263.27369 -33.593912)"><path d="m43.755789 42.96442c-5.853387 4.232445-10.865292 9.578411-13.635104 15.734145-4.982929 10.966763-4.816019 22.908117-.862853 33.311398 3.898785 9.071847 11.306728 16.392737 19.446654 20.435687 10.169442 4.55606 20.866184 5.17289 30.708628 1.86374 10.698559-4.12649 18.397926-11.08097 23.192236-20.644401 4.15427-9.103513 4.79982-18.432414 2.66438-27.469933-3.2705-11.904078-11.133118-20.478193-21.4204-26.092409-6.455181-3.30581-13.733829-4.362608-20.288631-3.940886l-2.456058-27.4539285s-10.153971 5.2760185-15.544803 7.1303625c-5.437525 1.870413-16.786686 3.975649-16.786686 3.975649z" fill="url(#e)"/><path d="m43.755789 42.96442c-5.853387 4.232445-10.865292 9.578411-13.635104 15.734145-4.982929 10.966763-4.816019 22.908117-.862853 33.311398 3.898785 9.071847 11.306728 16.392737 19.446654 20.435687 10.169442 4.55606 20.866184 5.17289 30.708628 1.86374 10.698559-4.12649 18.397926-11.08097 23.192236-20.644401 4.15427-9.103513 4.79982-18.432414 2.66438-27.469933-3.2705-11.904078-11.133118-20.478193-21.4204-26.092409-6.455181-3.30581-13.733829-4.362608-20.288631-3.940886l-2.456058-27.4539285s-10.153971 5.2760185-15.544803 7.1303625c-5.437525 1.870413-16.786686 3.975649-16.786686 3.975649z" fill="url(#e)" filter="url(#f)"/><path d="m1525.1702 305.18145c0-18.266 31.606-33.073 70.594-33.073s70.594 14.807 70.594 33.073c0 18.27-31.606 33.075-70.594 33.075s-70.594-14.805-70.594-33.075z" fill="#fdf0ce" filter="url(#d)" transform="matrix(.21947654 0 0 .219429 -271.91029 -17.31499)"/><path d="m28.580687 19.667256 15.099044 23.322586c-5.853397 4.232445-10.865301 9.578411-13.635113 15.734145-4.982929 10.966763-4.81602 22.908112-.862853 33.311398 3.898785 9.071845 11.306728 16.392735 19.446654 20.435685 10.16945 4.55606 20.86618 5.17289 30.70864 1.86374 10.69856-4.12649 18.39792-11.08097 23.192231-20.644401 4.15427-9.103517 4.79981-18.432418 2.66438-27.469931-3.27051-11.904078-11.133121-20.478193-21.420411-26.092409-6.45517-3.305811-13.73383-4.362608-20.28863-3.940886l-2.45605-27.4539297s-10.143795 5.3062877-15.544799 7.1303627c-5.471631 1.847928-16.903093 3.80364-16.903093 3.80364zm28.842754-6.080317 2.345118 27.087462c7.68934-1.14366 15.78412-.213391 22.22139 3.108683 10.03831 5.661571 16.19884 13.070624 19.184201 23.483393 2.07094 8.605042 1.10116 17.563971-2.513991 24.935511-4.85201 8.968222-11.8248 15.267422-20.82971 18.436252-8.91099 2.73405-19.943458 2.56484-27.473649-1.70959-7.254165-4.24684-14.444144-10.327708-17.497551-18.158503-3.673775-9.421764-2.3401-21.597367.708208-30.327348 3.2215-7.161226 9.458251-12.869118 15.793271-16.222861l-14.719987-22.886977c-.515323-.796231 8.090833-1.218817 11.942362-2.532135 3.79511-1.294079 10.720693-6.551171 10.840338-5.213887z" fill="#a9701e"/></g><use opacity=".5" stroke-width="1.57725" transform="matrix(-.7278921 0 0 .55224639 289.87542 -37.371747)" xlink:href="#s"/><g stroke-width="4.73118" transform="matrix(-.25989677 .08929011 .0528216 .15374786 369.67542 -67.915437)"><path d="m212.93863 77.218894c-10.33089 12.50616-16.55182 28.517416-16.55182 45.922876 0 39.78393 32.50552 72.29029 72.28945 72.29029 39.78392 0 72.28602-32.50509 72.28602-72.28902 0-39.783928-32.50182-72.286932-72.28574-72.286932-22.37846 0-42.45533 10.283438-55.73791 26.362786zm8.17392 6.719212c11.31081-13.70322 28.42277-22.442645 47.56205-22.442645 34.02537 0 61.6486 27.620006 61.6486 61.645389 0 34.02538-27.62333 61.6485-61.64871 61.6485s-61.64706-27.62184-61.64706-61.64722c0-14.88611 5.28782-28.545964 14.08512-39.204024z" fill="#520525"/><use stroke-width="2.65914" transform="matrix(-1.8213644 -.02653771 -.00886151 1.7378937 842.42843 -8.004937)" xlink:href="#r"/></g><g stroke-width="1.57725"><use opacity=".5" transform="matrix(0 -.7278921 -.55224639 0 348.06852 -24.636809)" xlink:href="#s"/><use opacity=".7" transform="matrix(-.7278921 0 0 .55224639 323.99846 -5.762839)" xlink:href="#s"/><use opacity=".5" transform="matrix(.7278921 0 0 .55224639 382.1301 7.770466)" xlink:href="#s"/></g><use opacity=".5" stroke-width="1.77803" transform="matrix(0 -.57278535 .55224639 0 355.9538 5.513628)" xlink:href="#s"/></g><g stroke-width="1.43082" transform="matrix(.76049456 0 0 .64230476 -113.6891 19.66201)"><use transform="translate(217.39224 95.60231)" xlink:href="#s"/><use transform="translate(324.39845 79.13851)" xlink:href="#s"/><use transform="translate(254.93837 107.95017)" xlink:href="#s"/><use transform="translate(294.59145 99.25392)" xlink:href="#s"/></g></g></svg>