<svg height="500" viewBox="0 0 500 500" width="500" xmlns="http://www.w3.org/2000/svg" xmlns:xlink="http://www.w3.org/1999/xlink"><filter id="a" color-interpolation-filters="sRGB" height="1.15" width="1.15" x="-.075" y="-.075"><feGaussianBlur stdDeviation="3.5553385"/></filter><filter id="b" color-interpolation-filters="sRGB" height="1.300233" width="1.231399" x="-.1157" y="-.150117"><feGaussianBlur stdDeviation="2.7933616"/></filter><filter id="c" color-interpolation-filters="sRGB" height="1.095356" width="1.096653" x="-.048327" y="-.047678"><feGaussianBlur stdDeviation="1.1627643"/></filter><filter id="d" color-interpolation-filters="sRGB" height="1.40869" width="1.571373" x="-.285687" y="-.204345"><feGaussianBlur stdDeviation="1.6031689"/></filter><radialGradient id="e" cx="-159.54851" cy="285.4986" gradientTransform="matrix(.12337171 -.83847505 .81707822 .12022339 -373.29113 117.40243)" gradientUnits="userSpaceOnUse" r="92.356477"><stop offset=".3773585" stop-color="#f0b909"/><stop offset="1" stop-color="#bb880e"/></radialGradient><use stroke-width="1.35529" transform="matrix(.46513729 -.43533194 .89085536 .33668586 -11.676284 337.12863)" xlink:href="#f"/><g id="f" transform="translate(-54.997277 11.746029)"><g opacity=".85" stroke-width="1.43428" transform="matrix(2.635139 0 0 2.635139 -457.9955 -74.497911)"><path d="m1015.4668 214.42188c-138.34171 0-251.00586 112.65635-251.00586 250.99804 0 138.34171 112.66415 251 251.00586 251 138.3417 0 251-112.65829 251-251 0-138.34169-112.6583-250.99805-251-250.99804z" fill="#484237" opacity="1" transform="scale(.26458334)"/><path d="m268.67494 61.494764c-34.02542 0-61.64792 27.622501-61.64792 61.647916 0 34.02542 27.6225 61.64792 61.64792 61.64792 34.02541 0 61.64791-27.6225 61.64791-61.64792 0-34.025415-27.6225-61.647916-61.64791-61.647916z" fill="#363230" stroke-width="13.6615"/><path d="m268.67494 66.257264c31.4325 0 56.88541 25.452917 56.88541 56.885416 0 31.4325-25.45291 56.88542-56.88541 56.88542-31.43251 0-56.88542-25.45292-56.88542-56.88542 0-31.432499 25.45291-56.885416 56.88542-56.885416z" fill="#798186" filter="url(#a)" opacity="1" stroke-width=".305816"/></g><g stroke-width=".740958" transform="matrix(1.3496049 0 0 1.3496049 -87.401224 -87.401224)"><path d="m335.04001 250.00017a85.039703 85.039703 0 0 1 -85.0397 85.0397 85.039703 85.039703 0 0 1 -85.03971-85.0397 85.039703 85.039703 0 0 1 85.03971-85.03971 85.039703 85.039703 0 0 1 85.0397 85.03971z" fill="#a6730e" fill-rule="evenodd" stroke-width="11.8553"/><path d="m-158.92738 377.29173-10.08144-31.15409-18.7109 26.8722.0391-32.74464-26.09909 19.77499 10.15586-31.12991-30.93252 10.74207 19.27846-26.46797-32.73805.65763 26.51396-19.21516-31.33896-9.49116 31.15409-10.08144-26.8722-18.71091 32.74464.0391-19.77499-26.0991 31.12991 10.15586-10.74207-30.93252 26.46797 19.27847-.65763-32.73806 19.21516 26.51397 9.49116-31.33897 10.08144 31.15409 18.71091-26.87219-.0391 32.74463 26.0991-19.77498-10.15586 31.12991 30.932519-10.74207-19.278469 26.46797 32.738059-.65764-26.513964 19.21516 31.338964 9.49117-31.154091 10.08144 26.872195 18.7109-32.744633-.0391 19.774984 26.09909-31.129914-10.15586 10.74207 30.93252-26.46797-19.27846.65764 32.73805-19.21516-26.51396z" fill="url(#e)" fill-rule="evenodd" transform="translate(409.80644 -34.25676)"/><path d="m250 156.96094c-51.2896 0-93.03906 41.74946-93.03906 93.03906s41.74946 93.03906 93.03906 93.03906 93.03906-41.74946 93.03906-93.03906-41.74946-93.03906-93.03906-93.03906zm0 16c42.64257 0 77.03906 34.39649 77.03906 77.03906s-34.39649 77.03906-77.03906 77.03906-77.03906-34.39649-77.03906-77.03906 34.39649-77.03906 77.03906-77.03906z" fill="#a6730e" fill-rule="evenodd" stroke-width=".740958"/><circle cx="250.00031" cy="250.00017" fill-rule="evenodd" r="35.035801" stroke-width="1.06275"/><ellipse cx="341.12262" cy="89.240074" fill="#dbe2e3" fill-rule="evenodd" filter="url(#d)" opacity=".67" rx="6.733959" ry="9.414488" transform="matrix(2.4200261 0 0 2.4199666 -549.27332 14.457302)"/></g><path d="m268.67494 66.257264c31.4325 0 56.88541 25.452917 56.88541 56.885416 0 31.4325-25.45291 56.88542-56.88541 56.88542-31.43251 0-56.88542-25.45292-56.88542-56.88542 0-31.432499 25.45291-56.885416 56.88542-56.885416z" fill="#bcc1c3" filter="url(#a)" opacity=".1" stroke-width=".305816" transform="matrix(2.635139 0 0 2.635139 -457.9955 -74.497911)"/><path d="m318.4166 127.77289c-8.62541 19.20875-29.39521 40.58709-57.94375 41.275 2.14313 2.40771 13.17625 4.78896 20.24063 2.38125 24.71208-8.41375 34.15771-31.56479 37.70312-43.65625z" fill="#f6f5f4" filter="url(#b)" opacity=".5" stroke-width=".494735" transform="matrix(2.635139 0 0 2.635139 -457.9955 -74.497911)"/><path d="m261.74285 74.454056c-8.22854 2.320396-16.95979 6.646333-24.07708 12.943417 2.01083 1.137708 3.99521 2.407708 5.92666 3.81 6.64105-6.217709 15.24-11.20775 26.00855-13.562542-2.93688-1.775354-5.82084-2.878667-7.85813-3.190875zm13.04396 7.104062c-11.69458 1.658938-20.66396 6.447896-27.43729 12.665605 2.72521 2.407708 5.23875 5.132917 7.43479 8.149167 5.60917-4.7625 13.89063-8.440209 26.19375-10.451042-.82021-4.074584-3.25437-7.593542-6.19125-10.36373zm-40.69292 9.331855c-5.50333 5.926667-9.54616 13.308537-10.86114 22.066247.55827 3.25438 1.55045 6.00605 2.83368 8.36084 1.7833-7.11729 5.22288-15.13417 10.72621-22.489587 1.05834-1.42875 2.19604-2.804583 3.41313-4.153958-1.98438-1.455209-4.04813-2.69875-6.11188-3.783542zm9.86896 6.746875c-1.21708 1.296458-2.32833 2.645832-3.36021 4.048122-6.11187 8.17563-9.49854 17.43605-10.74208 24.73855 3.88937 3.88937 8.73125 5.82083 12.83229 6.56166.66146-9.97479 2.16958-19.63208 8.67833-27.22562-2.14312-3.01625-4.65666-5.74146-7.40833-8.122712z" fill="#f6f5f4" filter="url(#c)" opacity=".5" stroke-width=".494735" transform="matrix(2.635139 0 0 2.635139 -457.9955 -74.497911)"/><path d="m250.00198 75c-96.45369 0-175.003928 78.54635-175.003928 175 0 96.45366 78.550238 175 175.003928 175 96.45361 0 174.99998-78.54634 174.99998-175 0-96.45365-78.54637-175.000007-174.99998-175zm0 12.548825c89.66156 0 162.45118 72.789565 162.45118 162.451175 0 89.66162-72.78962 162.45117-162.45118 162.45117-89.66164 0-162.451199-72.78955-162.451199-162.45117 0-89.66161 72.789559-162.451175 162.451199-162.451175z" fill="#484237"/></g></svg>