<svg height="500" viewBox="0 0 500 500" width="500" xmlns="http://www.w3.org/2000/svg" xmlns:xlink="http://www.w3.org/1999/xlink"><linearGradient id="a" gradientTransform="matrix(392.59 0 0 -392.59 9596.87 3878.54)" gradientUnits="userSpaceOnUse" spreadMethod="pad" x1="0" x2="1" y1="0" y2="0"><stop offset="0" stop-color="#857060"/><stop offset=".09387415" stop-color="#979491"/><stop offset=".15581046" stop-color="#bbc5c7"/><stop offset=".32185635" stop-color="#dff5fd"/><stop offset=".46681547" stop-color="#dce7e9"/><stop offset=".55150062" stop-color="#dad9d6"/><stop offset=".668539" stop-color="#fff"/><stop offset=".82537693" stop-color="#b3aba5"/><stop offset="1" stop-color="#857060"/></linearGradient><linearGradient id="b" gradientTransform="matrix(3.7795274 0 0 3.7795274 -29.736968 114.55736)" gradientUnits="userSpaceOnUse" spreadMethod="repeat" x1="72.955406" x2="47.849937" xlink:href="#a" y1="-14.434969" y2="35.32774"/><linearGradient id="c" gradientTransform="matrix(3.7795274 0 0 3.7795274 -29.736968 114.55736)" gradientUnits="userSpaceOnUse" spreadMethod="repeat" x1="70.209282" x2="104.50719" xlink:href="#a" y1="56.073425" y2="46.371262"/><clipPath id="d"><path d="m148.20312 86.53397c-10.57907 32.64316-21.78346 56.38741-41.96616 90.57628 8.1247 27.05043 23.23172 49.28236 44.87622 70.96927 3.34687-.86725 5.88255 5.91453 8.89609 5.03376 12.21552-3.57028 22.43698-14.89465 30.25025-18.54905 15.22704-7.1231 23.92472-14.19386 33.3145-21.38643-5.52572-29.532.34764-32.06991-31.14843-100.27574-1.0189-2.20646-2.08114-4.38279-3.15684-6.5391-13.31317-2.49859-24.54012-7.55532-41.06563-19.82899z"/></clipPath><linearGradient id="e" gradientTransform="matrix(3.7795274 0 0 3.7795274 -29.736968 114.55736)" gradientUnits="userSpaceOnUse" spreadMethod="repeat" x1="32.836212" x2="82.649132" xlink:href="#a" y1="65.679199" y2="73.085274"/><radialGradient id="f" cx="1429.5214" cy="135.69588" gradientTransform="matrix(-.26629821 .60050475 -2.0466694 -.9076102 416.40358 -480.2754)" gradientUnits="userSpaceOnUse" r="132.08936" spreadMethod="repeat" xlink:href="#a"/><radialGradient id="g" cx="359.60928" cy="309.3107" gradientTransform="matrix(-2.1761991 2.1881132 -1.3452564 -1.3379309 1721.3175 -235.94581)" gradientUnits="userSpaceOnUse" r="66.01545" spreadMethod="repeat" xlink:href="#a"/><radialGradient id="h" cx="352.46402" cy="326.5957" gradientTransform="matrix(-2.6097613 -1.6470664 1.5036562 -2.3825315 931.80237 1454.9909)" gradientUnits="userSpaceOnUse" r="66.01545" spreadMethod="repeat" xlink:href="#a"/><radialGradient id="i" cx="359.60928" cy="309.3107" gradientTransform="matrix(-1.7963439 2.4136518 -1.5220413 -1.1327683 1639.3995 -380.51058)" gradientUnits="userSpaceOnUse" r="66.01545" spreadMethod="repeat" xlink:href="#a"/><radialGradient id="j" cx="293.17297" cy="86.570343" gradientTransform="matrix(-1.7985586 2.2074341 -1.3956435 -1.1371316 914.67487 -496.66603)" gradientUnits="userSpaceOnUse" r="104.22623" spreadMethod="repeat" xlink:href="#a"/><clipPath id="k"><path d="m136.12796 375.66653c5.58541 9.23583 13.17052 16.72754 21.00767 24.10595l57.88655 50.58496c18.04637 16.37688 49.62029 24.99512 64.72197 6.39658 14.57965-22.19069 9.48692-40.26854-5.01843-58.10244-9.24111-10.67012-18.51522-21.3116-27.78227-31.95919 6.44989 2.08116 12.05829 3.42028 18.63021 5.06863l17.41592 23.65126c7.6234 15.2692 15.53647 32.5765 22.71366 46.81608 3.37731 6.68089 5.32996 14.40919 10.45802 19.87446 8.58352 9.15388 19.67859 12.31907 30.16152 12.89716 19.58696-.90438 24.85034-4.18819 37.86492-15.62534 9.73991-1.17222 18.42258-4.99279 24.13767-12.09703 9.29716-1.11732 19.53113-3.37188 25.99347-7.49896 8.70432-5.96863 13.2212-16.30094 10.79991-26.17148l-.0141-.0511-.0124-.0494c-3.82149-11.52015-5.57952-24.18712-9.80416-34.5199-5.51549-13.18534-14.83551-28.39154-20.94775-37.41198-3.35921-13.88836-8.94105-22.69743-16.76408-31.75761-7.03995-8.15327-16.32659-14.11042-26.07429-19.09083-6.50561-11.35907-14.89127-22.74454-23.71826-29.14639-15.42798-9.38457-33.74882-11.63122-49.14773-14.8957l-57.88917-30.03639c-7.15875-34.31076-16.3759-69.33219-27.65189-96.9067 0 0-11.46799-29.659786-21.18566-41.944844-16.93835-21.413414-41.55402-53.862547-62.6458-52.768488-20.92583 2.766503-33.951865 37.633804-41.130631 52.539451-12.158048 25.246821-23.658181 54.845261-30.684934 78.265041-4.418999 14.72925-4.343183 32.23567.597816 50.01485 12.658223 34.36294 30.675263 54.59887 56.070019 73.39379-3.15824 23.11844-6.28412 43.92994-1.09445 60.06396 8.00629 17.58477 14.31722 28.51443 23.10668 36.3616z"/></clipPath><filter id="l" color-interpolation-filters="sRGB" height="1.276488" width="1.200368" x="-.100184" y="-.138244"><feGaussianBlur stdDeviation="4.5857828"/></filter><filter id="m" color-interpolation-filters="sRGB" height="1.149254" width="1.088172" x="-.044086" y="-.074627"><feGaussianBlur stdDeviation="4.5857828"/></filter><filter id="n" color-interpolation-filters="sRGB" height="1.126686" width="1.136813" x="-.068406" y="-.063343"><feGaussianBlur stdDeviation="5.0820842"/></filter><filter id="o" color-interpolation-filters="sRGB" height="1.160075" width="1.210432" x="-.105216" y="-.080037"><feGaussianBlur stdDeviation="5.0820842"/></filter><filter id="p" color-interpolation-filters="sRGB" height="1.153175" width="1.233924" x="-.116962" y="-.076587"><feGaussianBlur stdDeviation="5.0820842"/></filter><filter id="q" color-interpolation-filters="sRGB" height="1.15547" width="1.246155" x="-.123078" y="-.077735"><feGaussianBlur stdDeviation="5.0820842"/></filter><filter id="r" color-interpolation-filters="sRGB" height="1.132363" width="1.188" x="-.094" y="-.066181"><feGaussianBlur stdDeviation="4.5957017"/></filter><filter id="s" color-interpolation-filters="sRGB" height="1.093316" width="1.126824" x="-.063412" y="-.046658"><feGaussianBlur stdDeviation="5.0820842"/></filter><filter id="t" color-interpolation-filters="sRGB" height="1.108614" width="1.124833" x="-.062416" y="-.054307"><feGaussianBlur stdDeviation="10.182583"/></filter><path d="m129.26346 25.026958c-20.92582 2.766499-33.951877 37.634698-41.130628 52.540328-12.158038 25.246804-23.658191 54.846144-30.684946 78.265914-4.41898 14.72923-4.343551 32.23566.597449 50.01482 12.658202 34.36291 30.675663 54.59801 56.070395 73.39291-3.15824 23.11842-6.28411 43.92996-1.09445 60.06396 8.00628 17.58475 14.31723 28.51444 23.10668 36.36161 5.5854 9.23581 13.17053 16.72754 21.00767 24.10594l57.88741 50.58585c18.04635 16.37686 49.6203 24.99423 64.72196 6.3957 14.57964-22.19067 9.48606-40.26854-5.01928-58.10243-9.2411-10.67012-18.51526-21.31157-27.7823-31.95915 6.44989 2.08116 12.0583 3.42029 18.63021 5.06863l17.41593 23.65126c7.62339 15.26918 15.53647 32.57652 22.71366 46.81608 3.3773 6.68088 5.32995 14.40919 10.45801 19.87446 8.58351 9.15387 19.6786 12.31906 30.16152 12.89716 19.58694-.90438 24.85035-4.1882 37.86492-15.62534 9.73991-1.17222 18.42259-4.99279 24.13767-12.09704 9.29716-1.11731 19.53114-3.37188 25.99347-7.49895 8.70432-5.96863 13.2212-16.30095 10.79992-26.17148l-.0141-.0511-.0124-.0494c-3.82149-11.52014-5.57953-24.18713-9.80417-34.5199-5.51548-13.18533-14.83551-28.39156-20.94774-37.41198-3.35922-13.88836-8.94082-22.69808-16.76385-31.75825-7.03993-8.15328-16.32684-14.10981-26.07453-19.09022-6.5056-11.35905-14.89125-22.74453-23.71823-29.14638-15.42796-9.38456-33.74882-11.63122-49.14773-14.8957l-57.88917-30.03639c-7.15875-34.31073-16.37591-69.33222-27.65188-96.9067 0 0-11.46801-29.6598-21.18567-41.944844-16.93834-21.413394-41.55405-53.863428-62.6458-52.769368zm1.3165 16.219262c18.83977 7.862704 34.55317 24.439295 47.57216 45.184117l11.11714 19.932613c17.21125 34.50101 28.41079 75.31411 34.30489 106.81485-9.38976 7.19256-18.08741 14.2635-33.31443 21.38658-9.74076 4.55591-22.2327 9.13309-39.14617 13.51575l-18.41168 4.30024c-6.75673 1.4248-14.09515 2.81801-22.04748 4.17333-34.95669-28.61865-44.908375-71.85472-37.648139-96.0537 13.312239-44.36721 47.098639-118.576725 57.573709-119.25378zm98.91934 187.86533 63.65219 33.0254c9.88516 2.18186 17.83078 3.59398 24.49367 5.04043-1.61098 1.47712-3.06451 3.11727-4.33723 4.89416-10.20188-.15069-18.51757 2.51054-24.30158 7.35972-4.70572 3.94595-7.57223 8.77772-9.55919 13.4717-11.40832.39433-22.29235 6.4358-30.90702 15.17769-9.11454 9.24901-16.07918 21.80807-18.59672 35.89634-43.076-17.99632-69.74711-48.18266-101.64399-74.13312 31.89147-6.23157 53.17149-13.23734 68.84065-20.56707 14.49613-6.7802 24.09738-13.82901 32.35922-20.16525zm125.95615 66.21823c-3.83034 2.09045-7.3944 4.63553-10.61487 7.58003-11.29191 1.63413-25.43579 5.81707-37.16172 17.94816-16.59407 3.01202-34.26211 19.26825-45.71284 33.25275-5.44112-1.36524-11.02002-2.79773-16.3673-5.16908 1.56286-11.4002 7.2639-22.10601 14.51151-29.46009 7.33965-7.25032 17.94968-11.86848 30.5933-8.9124 2.17104-7.23588 3.30853-12.99541 8.73792-18.6919 5.81379-4.72917 15.527-3.75839 23.18246-2.85154 4.00008-8.39358 5.18466-11.15284 15.40504-14.52737 6.28978 4.01836 11.44217 10.19643 17.4265 20.83144zm-226.78064-3.79267c24.33527 21.22399 48.86345 45.40575 84.00426 62.4943-47.54711.70112-55.38253 43.04339-84.58232-20.71159-6.63852-19.6097-1.19684-30.11181.57806-41.78271zm241.61643 15.43148c11.16107 4.15799 22.4208 14.27687 28.26166 38.42536-5.73258 2.61137-11.89967 4.92125-19.04261 6.77286-5.67844-14.88595-12.70707-28.47935-21.00591-39.53214 3.35581-2.47603 7.39245-4.78901 11.78686-5.66608zm-27.01214 12.5482c8.32591 10.22083 15.95087 24.54252 21.91355 40.65654-4.59834 4.40163-12.06782 6.59449-18.95449 7.73866-4.5812-16.70236-15.95861-31.07599-23.5085-39.0563 6.48423-5.40503 13.62307-7.97726 20.54944-9.3389zm-12.6698 52.90514c-11.50577 6.35701-23.18362 10.65562-35.5421 12.00011l-17.48994-23.75348c8.49735-9.88696 18.37246-18.57066 31.13083-23.24413 5.1011 5.29921 17.66922 21.37395 21.90121 34.9975zm76.47179-13.17208c5.36894 7.92346 9.62518 17.64617 13.20206 27.82458-5.7407 3.34769-12.23639 6.32727-19.18713 9.09745-3.59492-10.2912-8.37245-20.05274-14.07795-29.36491 7.45636-2.15643 14.03667-4.76101 20.06302-7.55712zm-192.941 11.43261c5.7368-.0512 11.45596.71856 16.94537 2.5255l19.87092 22.84761c-13.93938 9.02522-28.16952 18.43073-38.34252 30.62678l-44.79111-39.14088c11.74444-9.15652 29.10691-16.70548 46.31734-16.85901zm158.70661 4.01295c5.61527 9.07215 10.15528 18.46234 13.44702 28.29516-6.21984 3.01652-12.99171 5.08596-20.16173 7.01607-3.59041-9.25172-8.10531-18.44919-12.95178-26.84999 6.90471-1.48887 13.47101-3.89899 19.66649-8.46124zm-35.98621 12.72797c5.22095 8.60835 10.25739 18.53423 14.04271 28.1947-10.43739 5.47-22.56131 6.82992-35.79235 8.79432l-12.01596-24.76685c11.93656-2.15019 23.15537-6.52604 33.7656-12.22217zm88.44547 15.48083c1.46179 5.0459 2.81528 10.03935 4.09931 14.81816 1.88049 7.17994-7.0209 11.21986-16.40255 12.51472-1.74152-5.98975-3.95311-12.26358-6.50673-18.73066 6.49595-2.55453 12.83015-5.35018 18.80997-8.60222zm-163.5197 5.52685c14.57283 16.68159 12.75462 28.40875 5.0651 38.44298-3.92247 5.11853-10.30683 6.34056-17.58834 4.64204-9.89064-3.36651-16.85138-8.23794-24.22785-13.97918 8.69678-10.17932 22.25767-19.5735 36.75109-29.10584zm129.9462 9.88699c2.18457 5.60265 4.04914 10.94466 5.51274 15.89851-1.44194 5.79034-9.1408 9.00936-17.44235 9.42173-2.16743-5.98342-4.686-12.17213-7.43905-18.4804 6.37505-1.75596 12.90247-3.83142 19.36866-6.83984zm-34.68381 12.35259c3.54259 8.07506 6.65328 15.8432 9.0481 22.97802-8.62098 7.57245-29.03104 7.00365-38.08874-2.65592l-5.41406-11.15945c11.11505-1.52224 22.9733-3.39127 34.4547-9.16265z" fill="#ebf5f9" filter="url(#t)" transform="matrix(-.99276384 -.12008312 -.12008312 .99276384 528.21171 31.829818)"/><g clip-path="url(#k)" transform="matrix(-.99276384 -.12008312 -.12008312 .99276384 528.21171 31.829818)"><path d="m136.12796 375.66653c5.58541 9.23583 13.17052 16.72754 21.00767 24.10595l57.88655 50.58496c18.04637 16.37688 49.62029 24.99512 64.72197 6.39658 14.57965-22.19069 9.48693-40.26853-5.01843-58.10244-9.24111-10.67013-18.51522-21.3116-27.78227-31.95919 6.44989 2.08116 12.05829 3.42029 18.63021 5.06863l17.41592 23.65126c7.6234 15.2692 15.53647 32.5765 22.71366 46.81608 3.37731 6.68089 5.32996 14.40919 10.45802 19.87446 8.58352 9.15388 19.67859 12.31907 30.16152 12.89716 19.58696-.90438 24.85034-4.18819 37.86492-15.62534 9.73991-1.17222 18.42258-4.99279 24.13767-12.09703 9.29716-1.11732 19.53113-3.37188 25.99347-7.49896 8.70432-5.96863 13.2212-16.30094 10.79991-26.17148l-.0141-.0511-.0124-.0494c-3.82149-11.52015-5.57952-24.18712-9.80416-34.5199-5.51549-13.18534-14.83551-28.39154-20.94775-37.41198-3.35921-13.88836-8.94105-22.69743-16.76408-31.75761-7.03995-8.15327-16.32659-14.11042-26.07429-19.09083-6.50561-11.35907-14.89127-22.74454-23.71826-29.14639-15.42798-9.38457-33.74882-11.63122-49.14773-14.8957l-57.88917-30.03639c-7.15875-34.31076-16.3759-69.33219-27.65189-96.9067 0 0-11.46799-29.659787-21.18566-41.944844-16.93835-21.413415-41.55402-53.862548-62.6458-52.768487-20.92583 2.766502-33.95187 37.633802-41.130628 52.539446-12.15805 25.246825-23.658185 54.845265-30.684947 78.265045-4.418984 14.72925-4.34318 32.23567.597825 50.01485 12.658214 34.36294 30.675263 54.59887 56.07002 73.39379-3.15824 23.11844-6.28412 43.92994-1.09445 60.06396 8.00629 17.58477 14.31722 28.51443 23.10668 36.3616z" fill="#71635b"/><path d="m116.67773 7.2382812c-7.94341.5134216-10.33029 4.4113538-13.22851 7.6484378-2.89822 3.237083-5.601117 7.11195-8.492189 11.730469-5.782143 9.237037-12.126139 21.394206-18.576172 35.052734-12.900065 27.317055-26.054736 60.376528-33.691406 85.828128-9.944286 33.14514 3.14537 83.93912 45.419922 118.54883a11.402763 11.402763 0 0 0 9.138672 2.41796c8.943493-1.52424 17.218603-3.0957 24.869143-4.70898a11.402763 11.402763 0 0 0 .24219-.0527l20.40429-4.76562a11.402763 11.402763 0 0 0 .26563-.0664c19.29035-4.99856 33.82458-10.29522 45.35351-15.6875a11.402763 11.402763 0 0 0 .002 0c17.98875-8.41499 28.78095-17.13426 39.02148-24.97851a11.402763 11.402763 0 0 0 4.27344-11.14844c-6.68482-35.72651-19.22615-81.68619-39.02153-121.367237a11.402763 11.402763 0 0 0 -.24609-.462891l-12.32031-22.089843a11.402763 11.402763 0 0 0 -.29883-.507813c-15.17003-24.17236-33.9326-44.495615-57.98828-54.535156a11.402763 11.402763 0 0 0 -5.12696-.8554688z" fill="url(#j)" filter="url(#s)" transform="matrix(.90234293 0 0 .90234293 24.632211 24.448895)"/><path d="m132.70187 252.38037c-10.13916-10.92737-18.94772-22.31666-26.20549-34.53509-8.144519-14.94609-13.851936-28.46883-17.822495-42.84787 10.434306-18.02693 21.450695-37.04579 29.100505-53.6951 10.11334-23.408732 15.32469-39.843936 22.02815-62.086776l9.38648 7.535973c13.19584 10.596203 21.40327 16.317606 28.9631 19.67883l13.98786 7.171565c17.21129 34.501078 34.47267 93.179518 40.36677 124.680318-9.38978 7.19257-23.53642 18.15607-36.82378 24.5767-16.97147 8.20082-36.90805 12.96092-53.82156 17.3436z" fill="#71635b"/><g clip-path="url(#d)" fill="url(#b)"><path d="m148.20312 86.53397c-10.57907 32.64316-21.78346 56.38741-41.96616 90.57628 8.1247 27.05043 23.23172 49.28236 44.87622 70.96927 3.34687-.86725 5.88255 5.91453 8.89609 5.03376 12.21552-3.57028 22.43698-14.89465 30.25025-18.54905 15.22704-7.1231 23.92472-14.19386 33.3145-21.38643-5.52572-29.532.34764-32.06991-31.14843-100.27574-1.0189-2.20646-2.08114-4.38279-3.15684-6.5391-13.31317-2.49859-24.54012-7.55532-41.06563-19.82899z"/><path d="m148.20312 86.53397c-10.57907 32.64316-21.78346 56.38741-41.96616 90.57628 8.1247 27.05043 23.23172 49.28236 44.87622 70.96927 3.34687-.86725 5.88255 5.91453 8.89609 5.03376 12.21552-3.57028 22.43698-14.89465 30.25025-18.54905 15.22704-7.1231 23.92472-14.19386 33.3145-21.38643-5.52572-29.532.34764-32.06991-31.14843-100.27574-1.0189-2.20646-2.08114-4.38279-3.15684-6.5391-13.31317-2.49859-24.54012-7.55532-41.06563-19.82899z" filter="url(#r)"/></g><path d="m381.08203 303.14453c-7.05905 1.40877-12.68399 4.80503-17.10156 8.06445a10.149101 10.149101 0 0 0 -2.08985 14.25977c8.45015 11.2543 15.87976 25.52026 21.91211 41.33398a10.149101 10.149101 0 0 0 .45313 1.01368l8.32031 16.22461a10.149101 10.149101 0 0 0 .37695.66992c5.99094 9.77802 10.95408 19.93935 14.67383 30.58789a10.149101 10.149101 0 0 0 .008.0254l5.98437 16.99414a10.149101 10.149101 0 0 0 .13281.35547c2.74168 6.94331 5.08891 13.61471 6.90625 19.86523a10.149101 10.149101 0 0 0 11.13086 7.21875c6.18388-.8535 12.35574-2.39706 17.9375-6.04883 2.79088-1.82588 5.54962-4.31515 7.39844-7.94921 1.84882-3.63407 2.34874-8.38103 1.27148-12.49415a10.149101 10.149101 0 0 0 -.0156-.0625c-1.42704-5.31101-2.94365-10.91065-4.5957-16.61328a10.149101 10.149101 0 0 0 -.0762-.24414l-5.5664-17.54297a10.149101 10.149101 0 0 0 -.0977-.29687c-4.1284-11.74783-9.08755-23.25103-15.80273-33.16211l.24219.37109-8.76563-14.23828c-7.22055-27.77722-22.12289-42.30845-37.10742-47.89062a10.149101 10.149101 0 0 0 -5.5293-.44141z" fill="url(#h)" filter="url(#q)" transform="matrix(.90234293 0 0 .90234293 24.632211 24.448895)"/><path d="m351.03906 316.35547c-8.82925 1.73571-18.73271 5.24623-27.62695 12.66015a10.852114 10.852114 0 0 0 -.93555 15.79297c7.63688 8.07226 19.18589 23.07546 23.47071 38.69727a10.852114 10.852114 0 0 0 .58984 1.625l7.69336 16.89453a10.852114 10.852114 0 0 0 .47656.92578c5.11556 8.86723 9.89019 18.60578 13.63672 28.25977a10.852114 10.852114 0 0 0 .0801.20117l6.90625 16.79101a10.852114 10.852114 0 0 0 .0898.2129c2.98076 6.83006 5.68507 13.48306 7.98633 19.83593a10.852114 10.852114 0 0 0 10.74219 7.14258c5.83135-.28966 11.55753-1.46712 16.85156-4.12891 5.29403-2.66178 10.68942-7.3822 12.46875-14.52734a10.852114 10.852114 0 0 0 -.12305-5.69726c-1.73095-5.85876-3.89634-12.04931-6.40625-18.48633l.11719.3125-6.02734-16.98633.0625.18359c-3.8783-11.58493-9.19633-22.58285-15.66211-33.10547l-8.18946-15.5371c-6.87513-18.35839-15.54698-34.81543-25.69531-47.27344a10.852114 10.852114 0 0 0 -10.50586-3.79297z" fill="url(#i)" filter="url(#p)" transform="matrix(.90234293 0 0 .90234293 24.632211 24.448895)"/><path d="m316.82422 338.16406a8.9130378 8.9130378 0 0 0 -5.06836.31446c-16.09248 5.89454-28.23497 16.73111-38.19531 28.32031a8.9130378 8.9130378 0 0 0 -.41602 11.09375l18.98633 25.78515 8.51562 16.15039 13.25196 27.3125 8.29297 17.08985 6 12.36719a8.9130378 8.9130378 0 0 0 1.51562 2.20507c7.24397 7.72532 17.4553 10.89293 27.29883 11.43555s19.8148-1.32222 27.29492-7.89258a8.9130378 8.9130378 0 0 0 2.56836-9.53125c-2.77386-8.26409-6.31477-17.09202-10.31445-26.20898l.0898.21094-6.76367-16.56446c-4.3064-10.9903-9.92282-22.03391-15.79883-31.81445l-6.76367-16.23242.28516.7832c-5.58377-17.97519-19.53631-35.22968-26.36133-42.32031a8.9130378 8.9130378 0 0 0 -4.41797-2.50391z" fill="url(#g)" filter="url(#o)" transform="matrix(.90234293 0 0 .90234293 24.632211 24.448895)"/><path d="m115.33789 288.71875a7.277081 7.277081 0 0 0 -7.22851 6.18164c-1.73218 11.38993-8.337126 26.10909-.33985 49.73242a7.277081 7.277081 0 0 0 .27735.69531c7.32457 15.99252 13.39772 26.37618 19.99414 33.33399l-.17383-.18945 25.36523 28.73242a7.277081 7.277081 0 0 0 .66797.66211l49.63867 43.37695 13.76563 12.0293a7.277081 7.277081 0 0 0 .36914.30273c9.02232 6.89597 17.17982 12.72158 28.98633 16.6211a7.277081 7.277081 0 0 0 .6289.17578c9.73781 2.27117 20.5943.44976 26.91992-7.80469 4.92512-6.42658 8.51724-14.38779 7.93164-23.43555-.58559-9.04775-5.11039-18.38821-13.83984-28.38086a7.277081 7.277081 0 0 0 -.004-.004l-11.9961-13.70703-22.01367-25.3125a7.277081 7.277081 0 0 0 -.24023-.26368l-20.39844-21.25195a7.277081 7.277081 0 0 0 -2.06836-1.50391c-37.71371-18.33972-64.28713-44.47063-91.49414-68.19921a7.277081 7.277081 0 0 0 -4.74805-1.79102z" fill="url(#e)" filter="url(#n)" transform="matrix(.90234293 0 0 .90234293 24.632211 24.448895)"/><path d="m320.02968 256.19421c-6.59767-1.43229-14.16807-2.81536-23.07848-4.74788l-62.27576-32.31163c-1.89616-.98372-4.03338-1.40676-6.16131-1.21957l-5.85466 2.27874c-8.11927 6.22689-16.76792 12.58104-30.28136 18.90251-14.62133 6.84046-34.97506 13.60875-66.23408 19.71674-9.35191 1.82862-12.32886 13.73431-4.93822 19.74932 30.96632 25.19338 58.72732 56.70096 104.40566 75.78447l33.61933 10.66599c4.22116 1.0584 8.67397-.41489 11.43085-3.78209 10.56534-12.90321 28.04302-27.32054 39.02457-29.31381 2.31439-.42055 4.43854-1.55659 6.07319-3.24809 9.4844-9.8121 20.77231-13.20133 30.69023-14.63663 2.2298-.32225 4.31131-1.30712 5.9745-2.82687 2.55377-2.33478 5.37943-4.35297 8.4154-6.00975 5.49805-3.00115 7.48218-9.91746 4.41126-15.37684-6.42417-11.41665-12.82272-19.4585-21.16981-24.79152-2.84857-1.82005-7.64793-3.57993-11.60532-5.03691-4.07026-1.49853-12.44599-3.79618-12.44599-3.79618z" fill="url(#f)" filter="url(#m)"/><path d="m322.6233 289.02514c-7.65548-.90686-17.36739-1.87778-23.18119 2.8514-5.4294 5.69649-6.56815 11.45614-8.73919 18.69203-12.64363-2.95607-23.25338 1.66212-30.59304 8.91244-7.24761 7.3541-12.94862 18.0613-14.51147 29.4615 5.34728 2.37136 10.92647 3.80247 16.36759 5.16772 11.45074-13.98451 29.11861-30.24022 45.7127-33.25224 11.72594-12.1311 25.86927-16.31436 37.16119-17.9485 3.22058-2.9444 6.78473-5.48936 10.61516-7.57968-5.98434-10.63502-11.13632-16.81288-17.4261-20.83147-10.22039 3.37431-11.40556 6.1332-15.40565 14.5268z" fill="url(#c)" filter="url(#l)"/><path d="m129.26346 25.026958c-20.92582 2.766499-33.951877 37.634698-41.130628 52.540328-12.158038 25.246804-23.658191 54.846144-30.684946 78.265914-4.41898 14.72923-4.343551 32.23566.597449 50.01482 12.658202 34.36291 30.675663 54.59801 56.070395 73.39291-3.15824 23.11842-6.28411 43.92996-1.09445 60.06396 8.00628 17.58475 14.31723 28.51444 23.10668 36.36161 5.5854 9.23581 13.17053 16.72754 21.00767 24.10594l57.88741 50.58585c18.04635 16.37686 49.6203 24.99423 64.72196 6.3957 14.57964-22.19067 9.48606-40.26854-5.01928-58.10243-9.2411-10.67012-18.51526-21.31157-27.7823-31.95915 6.44989 2.08116 12.0583 3.42029 18.63021 5.06863l17.41593 23.65126c7.62339 15.26918 15.53647 32.57652 22.71366 46.81608 3.3773 6.68088 5.32995 14.40919 10.45801 19.87446 8.58351 9.15387 19.6786 12.31906 30.16152 12.89716 19.58694-.90438 24.85035-4.1882 37.86492-15.62534 9.73991-1.17222 18.42259-4.99279 24.13767-12.09704 9.29716-1.11731 19.53114-3.37188 25.99347-7.49895 8.70432-5.96863 13.2212-16.30095 10.79992-26.17148l-.0141-.0511-.0124-.0494c-3.82149-11.52014-5.57953-24.18713-9.80417-34.5199-5.51548-13.18533-14.83551-28.39156-20.94774-37.41198-3.35922-13.88836-8.94082-22.69808-16.76385-31.75825-7.03993-8.15328-16.32684-14.10981-26.07453-19.09022-6.5056-11.35905-14.89125-22.74453-23.71823-29.14638-15.42796-9.38456-33.74882-11.63122-49.14773-14.8957l-57.88917-30.03639c-7.15875-34.31073-16.37591-69.33222-27.65188-96.9067 0 0-11.46801-29.6598-21.18567-41.944844-16.93834-21.413394-41.55405-53.863428-62.6458-52.769368zm1.3165 16.219262c18.83977 7.862704 34.55317 24.439295 47.57216 45.184117l11.11714 19.932613c17.21125 34.50101 28.41079 75.31411 34.30489 106.81485-9.38976 7.19256-18.08741 14.2635-33.31443 21.38658-9.74076 4.55591-22.2327 9.13309-39.14617 13.51575l-18.41168 4.30024c-6.75673 1.4248-14.09515 2.81801-22.04748 4.17333-34.95669-28.61865-44.908375-71.85472-37.648139-96.0537 13.312239-44.36721 47.098639-118.576725 57.573709-119.25378zm98.91934 187.86533 63.65219 33.0254c9.88516 2.18186 17.83078 3.59398 24.49367 5.04043-1.61098 1.47712-3.06451 3.11727-4.33723 4.89416-10.20188-.15069-18.51757 2.51054-24.30158 7.35972-4.70572 3.94595-7.57223 8.77772-9.55919 13.4717-11.40832.39433-22.29235 6.4358-30.90702 15.17769-9.11454 9.24901-16.07918 21.80807-18.59672 35.89634-43.076-17.99632-69.74711-48.18266-101.64399-74.13312 31.89147-6.23157 53.17149-13.23734 68.84065-20.56707 14.49613-6.7802 24.09738-13.82901 32.35922-20.16525zm125.95615 66.21823c-3.83034 2.09045-7.3944 4.63553-10.61487 7.58003-11.29191 1.63413-25.43579 5.81707-37.16172 17.94816-16.59407 3.01202-34.26211 19.26825-45.71284 33.25275-5.44112-1.36524-11.02002-2.79773-16.3673-5.16908 1.56286-11.4002 7.2639-22.10601 14.51151-29.46009 7.33965-7.25032 17.94968-11.86848 30.5933-8.9124 2.17104-7.23588 3.30853-12.99541 8.73792-18.6919 5.81379-4.72917 15.527-3.75839 23.18246-2.85154 4.00008-8.39358 5.18466-11.15284 15.40504-14.52737 6.28978 4.01836 11.44217 10.19643 17.4265 20.83144zm-226.78064-3.79267c24.33527 21.22399 48.86345 45.40575 84.00426 62.4943-47.54711.70112-55.38253 43.04339-84.58232-20.71159-6.63852-19.6097-1.19684-30.11181.57806-41.78271zm241.61643 15.43148c11.16107 4.15799 22.4208 14.27687 28.26166 38.42536-5.73258 2.61137-11.89967 4.92125-19.04261 6.77286-5.67844-14.88595-12.70707-28.47935-21.00591-39.53214 3.35581-2.47603 7.39245-4.78901 11.78686-5.66608zm-27.01214 12.5482c8.32591 10.22083 15.95087 24.54252 21.91355 40.65654-4.59834 4.40163-12.06782 6.59449-18.95449 7.73866-4.5812-16.70236-15.95861-31.07599-23.5085-39.0563 6.48423-5.40503 13.62307-7.97726 20.54944-9.3389zm-12.6698 52.90514c-11.50577 6.35701-23.18362 10.65562-35.5421 12.00011l-17.48994-23.75348c8.49735-9.88696 18.37246-18.57066 31.13083-23.24413 5.1011 5.29921 17.66922 21.37395 21.90121 34.9975zm76.47179-13.17208c5.36894 7.92346 9.62518 17.64617 13.20206 27.82458-5.7407 3.34769-12.23639 6.32727-19.18713 9.09745-3.59492-10.2912-8.37245-20.05274-14.07795-29.36491 7.45636-2.15643 14.03667-4.76101 20.06302-7.55712zm-192.941 11.43261c5.7368-.0512 11.45596.71856 16.94537 2.5255l19.87092 22.84761c-13.93938 9.02522-28.16952 18.43073-38.34252 30.62678l-44.79111-39.14088c11.74444-9.15652 29.10691-16.70548 46.31734-16.85901zm158.70661 4.01295c5.61527 9.07215 10.15528 18.46234 13.44702 28.29516-6.21984 3.01652-12.99171 5.08596-20.16173 7.01607-3.59041-9.25172-8.10531-18.44919-12.95178-26.84999 6.90471-1.48887 13.47101-3.89899 19.66649-8.46124zm-35.98621 12.72797c5.22095 8.60835 10.25739 18.53423 14.04271 28.1947-10.43739 5.47-22.56131 6.82992-35.79235 8.79432l-12.01596-24.76685c11.93656-2.15019 23.15537-6.52604 33.7656-12.22217zm88.44547 15.48083c1.46179 5.0459 2.81528 10.03935 4.09931 14.81816 1.88049 7.17994-7.0209 11.21986-16.40255 12.51472-1.74152-5.98975-3.95311-12.26358-6.50673-18.73066 6.49595-2.55453 12.83015-5.35018 18.80997-8.60222zm-163.5197 5.52685c14.57283 16.68159 12.75462 28.40875 5.0651 38.44298-3.92247 5.11853-10.30683 6.34056-17.58834 4.64204-9.89064-3.36651-16.85138-8.23794-24.22785-13.97918 8.69678-10.17932 22.25767-19.5735 36.75109-29.10584zm129.9462 9.88699c2.18457 5.60265 4.04914 10.94466 5.51274 15.89851-1.44194 5.79034-9.1408 9.00936-17.44235 9.42173-2.16743-5.98342-4.686-12.17213-7.43905-18.4804 6.37505-1.75596 12.90247-3.83142 19.36866-6.83984zm-34.68381 12.35259c3.54259 8.07506 6.65328 15.8432 9.0481 22.97802-8.62098 7.57245-29.03104 7.00365-38.08874-2.65592l-5.41406-11.15945c11.11505-1.52224 22.9733-3.39127 34.4547-9.16265z" fill="#71635b"/><g opacity=".667"><path d="m160.88332 110.50055c-2.99194 2.18433-2.50309 10.09461-2.77726 13.60551.7589 12.01854 4.32013 24.03772 11.59345 33.77151 3.07014 4.96014 8.01809 8.87671 9.74777 14.58337-6.16669 6.44306-12.48144 13.54094-21.04495 16.72203-5.30991 1.20858-11.17515 2.2505-16.41409.26232-2.58859-2.65464.69713-6.8102 3.05688-8.85549 1.10339-.95636 2.85261-.64795 4.3018-.82669 3.86738-.477 8.10866.38217 11.67199-.64942 0 0 1.91059-1.76146 1.9623-2.93801.16121-3.66805-2.33504-8.0325-5.29056-9.66103-6.33945.42167-13.83468 2.81367-18.70966 7.06161-2.76177 2.40654-4.07759 5.4457-5.36676 8.968-1.67684 4.16094-.11644 9.20054 3.78683 11.50631 7.60389 5.53451 17.95151 3.25832 25.60704-.94424 7.21735-3.7156 13.23596-9.45103 18.91355-15.02043 2.538 8.36253 2.9136 18.05392-.59364 26.14132-1.60437 3.69953-4.41231 7.03875-7.50471 9.80528-3.12727 2.29788-7.51965 5.69655-11.46528 3.90953-6.49185-4.34776-7.04511-16.02078.15299-19.91653 2.38448-1.28287 4.4185-.68957 1.26671 1.06994-.19655.0417.25665-1.68634.0861-1.62097-3.64175 1.39545-2.10801 9.60154 1.40941 5.82233 1.8356-1.35343 5.88119-4.56055 7.15453-7.86907.65647-1.7057 1.52712-4.50504-.0169-5.48297-6.05918-3.83768-14.9858 5.78384-19.48082 9.13621-6.17978 4.34503-7.08863 13.17021-3.55552 19.78262 2.30535 5.45489 8.56197 7.86492 14.08416 8.36978 7.44258.68216 14.14542-3.96988 18.19075-9.89303 1.32286-1.79402 2.99952-4.0292 4.03311-6 4.65848-8.88259 5.87026-18.98554 4.53514-28.883-2.14683-11.99124-9.42267-22.13612-16.5536-31.68195-3.01723-4.90183-6.30896-10.28778-6.15276-16.23649 2.1254-4.60113 7.36962 1.453 9.91828 3.16204 2.29172.7828 4.81905-2.67919 4.08117-4.11953-.7917-1.54539-4.96479-1.12576-5.68194-1.71297-2.8536-4.06814-6.66957-7.21506-10.31897-10.49884-2.52522-2.27723-2.04796-8.87316-4.62648-10.86905z" fill="#ebf5f9" opacity="1"/><path d="m163.88867 107.08789c-1.00239.73182-2.86555 2.2986-3.09765 3.54883-.46067 2.48147 1.49735 5.1347 1.31504 7.46934.7589 12.01854 4.32013 24.03772 11.59345 33.77151 3.07014 4.96014 8.01809 8.87671 9.74777 14.58337-6.16669 6.44306-12.48144 13.54094-21.04495 16.72203-5.30991 1.20858-11.17515 2.2505-16.41409.26232-.51942-.53268-1.22187-1.89262-.94312-2.85549.99629-3.44142 5.10471-6.05068 8.3018-6.82669 3.04672-1.08614 6.54669 3.60702 9.63429 2.41257 1.14344-.44234 2.00086-1.32756 2.0377-3.06199-.43809-4.00915.35724-10.56828-3.32826-12.59904-8.84964.58864-18.25362 5.18837-22.70966 13.06161-.54443.96193-.97865 1.90758-1.36676 2.968-1.67684 4.16094-.11644 9.20054 3.78683 11.50631 7.60389 5.53451 17.95151 3.25832 25.60704-.94424 7.21735-3.7156 13.23596-9.45103 18.91355-15.02043 3.20984 10.57619 2.17552 23.22057-4.59364 32.14132-1.03156 1.35945-2.20181 2.63968-3.50471 3.80528-3.12727 2.29788-7.51965 5.69655-11.46528 3.90953-6.49185-4.34776-7.04511-16.02078.15299-19.91653 2.38448-1.28287 4.4185-.68957 1.26671 1.06994-1.89058.40144-4.06053 3.03978-3.91482 4.37927.19283 1.7727 1.30524 1.08842 2.09358 1.10077 2.39844.0376 5.02586-1.49247 6.47125-3.14775 2.05955-2.35863 4.54181-7.17831 1.17797-8.73919-5.79403-.29069-11.13266 3.04006-15.62768 6.39243-2.18708 1.53775-3.97491 3.63664-5.04798 6-1.95896 4.3145-1.83829 9.5104.44442 13.78262 2.30535 5.45489 8.56197 7.86492 14.08416 8.36978 7.44258.68216 14.14539-3.9699 18.19075-9.89303 7.28512-9.87986 10.1996-22.78957 8.56825-34.883-2.14683-11.99124-9.42267-22.13612-16.5536-31.68195-3.01723-4.90183-6.30896-10.28778-6.15276-16.23649 2.1254-4.60113 6.23494 4.93784 8.7836 6.64688 4.75057 1.62269.91947-8.18284-.46609-9.31734-2.8536-4.06814-6.66957-7.21506-10.31897-10.49884-2.52522-2.27723-3.04261-6.28582-5.62113-8.28171z" fill="#71635b" opacity="1"/></g><path d="m161.88867 110.08789c-.23631-.0353-.52932.03-.72265.1543-.19334.1243-.30041.27045-.375.39453-.1492.24815-.19883.45476-.25391.69336-.11016.4772-.18409 1.07913-.27539 1.8789-1.17285 10.27382 1.89049 25.51269 6.92969 34.46094 2.16664 3.84734 5.85308 9.39487 7.74023 11.59375 2.39 2.78479 4.29375 5.44387 5.41406 7.4336.56016.99486.92091 1.83245 1.05078 2.35351.0573.22982.0532.35628.0508.41016a.90149989.90149989 0 0 0 -.0586.0449c-5.89535 6.47095-12.73669 13.13413-19.46094 16.1543-.00036.00016-.002-.00017-.002 0-2.1019.9194-7.72094 1.97436-12.32812 1.85546-2.304-.0595-4.37731-.42254-5.60938-1.07031-.61603-.32388-1.00491-.69452-1.20898-1.0957-.19373-.38085-.23333-.8488-.0781-1.5 2.69997-4.67602 5.90679-6.51816 9.27539-7.23438 3.40537-.72403 7.00002-.22847 10.20117-.0391a.90149989.90149989 0 0 0 .95313-.94922c-.21477-3.9373-.72498-7.83917-1.86914-11.49609a.90149989.90149989 0 0 0 -.86524-.63281c-7.48928.0559-16.29648 4.03021-21.1875 9.79492a.90149989.90149989 0 0 0 -.008.0117c-2.17313 2.64308-3.66815 5.54011-4.10937 8.36914s.23651 5.63388 2.37109 7.73242c4.92185 4.83877 11.87859 6.03209 19.48242 3.95898 7.60385-2.07311 15.94148-7.34586 24.0625-15.49023 1.09028-1.09341 1.88423-1.91128 2.43946-2.42188.38676-.35566.40426-.35023.45898-.40234.008.0209.008.0121.0156.0352.15337.45765.33858 1.2865.61132 2.39453 3.39934 13.81018-1.01767 28.28368-10.41211 34.87891-1.69575 1.19047-3.72546 2.16708-5.46679 2.7207-.87067.27681-1.66932.44728-2.29492.49804-.62561.0508-1.0645-.0516-1.17579-.11523-4.57557-2.61556-6.36315-7.89398-5.75-12.5625.30658-2.33426 1.21571-4.48508 2.6211-6.03516 1.39775-1.54165 3.26374-2.50808 5.66797-2.56835-.0164.0338.001-.0152-.0254.0273-.36815.58886-1.46777 1.60782-2.95899 2.39453-1.01119.53348-1.39209 1.56367-1.50586 2.49414-.0569.46524-.0497.9268.16406 1.39844s.86568.93499 1.48243.86914c.86018-.0918 1.5326-.56581 2.39453-1.18359.86192-.61779 1.80939-1.42025 2.71484-2.2754.90545-.85514 1.76377-1.75977 2.43945-2.59375.67569-.83397 1.19194-1.50544 1.36133-2.33593.19608-.96123.0385-1.8991-.53906-2.53711-.57761-.63801-1.40958-.88906-2.29492-.95117-1.77069-.12424-4.00013.45607-6.42188 1.44531-4.84349 1.97848-10.35895 5.61515-12.80468 9.73633-3.73558 6.29454-2.17183 13.64032 1.96093 18.68359a.90149989.90149989 0 0 0 .13477.13281c5.88667 4.69682 13.28381 6.00062 20.04883 3.21485 6.62785-2.72928 12.12073-11.10293 14.62109-16.76368a.90149989.90149989 0 0 0 .004-.006c2.706-6.26557 4.17992-13.37983 4.22265-20.86915.0558-9.84272-5.00283-21.50803-14.40234-33.6914-6.17994-8.0102-9.03021-15.59899-8.86914-19.30469.0403-.92642.26124-1.57418.54101-1.93945.27978-.36528.58874-.53457 1.19336-.54102 1.20925-.0129 3.55565 1.0248 6.66797 3.74024.63399.55313 1.15319.96718 1.57813 1.25976.21247.14629.39851.26268.58984.35547.19134.0928.35146.22091.79102.16211.21977-.0294.55087-.19466.71289-.45703.16201-.26237.15934-.50058.14258-.6582-.0335-.31526-.1276-.47245-.23243-.66602-.20966-.38714-.53053-.83139-1-1.41406a.90149989.90149989 0 0 0 -.0176-.0195c-3.60323-4.20253-6.41538-8.41056-10.54688-11.49414a.90149989.90149989 0 0 0 -.002-.002c-2.30575-1.71084-3.96089-3.8043-5.67969-7.26367-.435-.87551-.76797-1.53776-1.05664-2.02734-.14434-.2448-.27376-.44714-.43164-.63282-.15788-.18567-.337-.42534-.81055-.49609z" fill="url(#b)"/><path d="m161.88867 110.08789c-.23631-.0353-.52932.03-.72265.1543-.19334.1243-.30041.27045-.375.39453-.1492.24815-.19883.45476-.25391.69336-.11016.4772-.18409 1.07913-.27539 1.8789-1.17285 10.27382 1.89049 25.51269 6.92969 34.46094 2.16664 3.84734 5.85308 9.39487 7.74023 11.59375 2.39 2.78479 4.29375 5.44387 5.41406 7.4336.56016.99486.92091 1.83245 1.05078 2.35351.0573.22982.0532.35628.0508.41016a.90149989.90149989 0 0 0 -.0586.0449c-5.89535 6.47095-12.73669 13.13413-19.46094 16.1543-.00036.00016-.002-.00017-.002 0-2.1019.9194-7.72094 1.97436-12.32812 1.85546-2.304-.0595-4.37731-.42254-5.60938-1.07031-.61603-.32388-1.00491-.69452-1.20898-1.0957-.19373-.38085-.23333-.8488-.0781-1.5 2.69997-4.67602 5.90679-6.51816 9.27539-7.23438 3.40537-.72403 7.00002-.22847 10.20117-.0391a.90149989.90149989 0 0 0 .95313-.94922c-.21477-3.9373-.72498-7.83917-1.86914-11.49609a.90149989.90149989 0 0 0 -.86524-.63281c-7.48928.0559-16.29648 4.03021-21.1875 9.79492a.90149989.90149989 0 0 0 -.008.0117c-2.17313 2.64308-3.66815 5.54011-4.10937 8.36914s.23651 5.63388 2.37109 7.73242c4.92185 4.83877 11.87859 6.03209 19.48242 3.95898 7.60385-2.07311 15.94148-7.34586 24.0625-15.49023 1.09028-1.09341 1.88423-1.91128 2.43946-2.42188.38676-.35566.40426-.35023.45898-.40234.008.0209.008.0121.0156.0352.15337.45765.33858 1.2865.61132 2.39453 3.39934 13.81018-1.01767 28.28368-10.41211 34.87891-1.69575 1.19047-3.72546 2.16708-5.46679 2.7207-.87067.27681-1.66932.44728-2.29492.49804-.62561.0508-1.0645-.0516-1.17579-.11523-4.57557-2.61556-6.36315-7.89398-5.75-12.5625.30658-2.33426 1.21571-4.48508 2.6211-6.03516 1.39775-1.54165 3.26374-2.50808 5.66797-2.56835-.0164.0338.001-.0152-.0254.0273-.36815.58886-1.46777 1.60782-2.95899 2.39453-1.01119.53348-1.39209 1.56367-1.50586 2.49414-.0569.46524-.0497.9268.16406 1.39844s.86568.93499 1.48243.86914c.86018-.0918 1.5326-.56581 2.39453-1.18359.86192-.61779 1.80939-1.42025 2.71484-2.2754.90545-.85514 1.76377-1.75977 2.43945-2.59375.67569-.83397 1.19194-1.50544 1.36133-2.33593.19608-.96123.0385-1.8991-.53906-2.53711-.57761-.63801-1.40958-.88906-2.29492-.95117-1.77069-.12424-4.00013.45607-6.42188 1.44531-4.84349 1.97848-10.35895 5.61515-12.80468 9.73633-3.73558 6.29454-2.17183 13.64032 1.96093 18.68359a.90149989.90149989 0 0 0 .13477.13281c5.88667 4.69682 13.28381 6.00062 20.04883 3.21485 6.62785-2.72928 12.12073-11.10293 14.62109-16.76368a.90149989.90149989 0 0 0 .004-.006c2.706-6.26557 4.17992-13.37983 4.22265-20.86915.0558-9.84272-5.00283-21.50803-14.40234-33.6914-6.17994-8.0102-9.03021-15.59899-8.86914-19.30469.0403-.92642.26124-1.57418.54101-1.93945.27978-.36528.58874-.53457 1.19336-.54102 1.20925-.0129 3.55565 1.0248 6.66797 3.74024.63399.55313 1.15319.96718 1.57813 1.25976.21247.14629.39851.26268.58984.35547.19134.0928.35146.22091.79102.16211.21977-.0294.55087-.19466.71289-.45703.16201-.26237.15934-.50058.14258-.6582-.0335-.31526-.1276-.47245-.23243-.66602-.20966-.38714-.53053-.83139-1-1.41406a.90149989.90149989 0 0 0 -.0176-.0195c-3.60323-4.20253-6.41538-8.41056-10.54688-11.49414a.90149989.90149989 0 0 0 -.002-.002c-2.30575-1.71084-3.96089-3.8043-5.67969-7.26367-.435-.87551-.76797-1.53776-1.05664-2.02734-.14434-.2448-.27376-.44714-.43164-.63282-.15788-.18567-.337-.42534-.81055-.49609z" fill="#71635b" opacity=".25"/></g></svg>