<svg height="500" viewBox="0 0 500 500" width="500" xmlns="http://www.w3.org/2000/svg" xmlns:xlink="http://www.w3.org/1999/xlink"><pattern id="a" patternTransform="translate(524.57278 13.441619)" xlink:href="#d"/><pattern id="b" patternTransform="matrix(1.3668936 .43133086 -.41327517 1.309675 500 0)" xlink:href="#d"/><filter id="c" color-interpolation-filters="sRGB" height="3.08604" width="1.773148" x="-.386574" y="-1.04302"><feGaussianBlur stdDeviation="16.287041"/></filter><pattern id="d" height="150" patternTransform="translate(797 130)" patternUnits="userSpaceOnUse" width="150"><g transform="translate(-136.8644 -155.9322)"><use stroke-width="6.66667" transform="matrix(.63183642 .3062704 -.3062704 .63183642 122.56212 94.902713)" xlink:href="#g"/><use stroke-width="6.66667" transform="matrix(.80467885 .87825159 -.87825159 .80467885 235.308 -57.21934)" xlink:href="#g"/><use stroke-width="6.66667" transform="matrix(.64511398 .08385277 -.08385277 .64511398 81.4385 93.390199)" xlink:href="#g"/><use stroke-width="6.66667" transform="matrix(1.0359187 -.13409107 .13409107 1.0359187 34.837282 -31.431295)" xlink:href="#g"/><use stroke-width="6.66667" transform="matrix(.70940974 .2487586 -.2487586 .70940974 169.01847 15.720439)" xlink:href="#g"/><use stroke-width="6.66667" transform="matrix(.6052542 -.8789638 .8789638 .6052542 -110.91902 215.64352)" xlink:href="#g"/><use stroke-width="6.66667" transform="matrix(.52129758 .64304497 -.64304497 .52129758 314.27729 67.401262)" xlink:href="#g"/><use stroke-width="6.66667" transform="matrix(.66892479 .76772319 -.76772319 .66892479 268.3251 -42.31516)" xlink:href="#g"/><use stroke-width="6.66667" transform="matrix(.89891197 .09610842 -.09610842 .89891197 67.170053 10.080985)" xlink:href="#g"/><use stroke-width="6.66667" transform="matrix(-.03982642 .82906741 -.82906741 -.03982642 359.17426 143.90279)" xlink:href="#g"/><use stroke-width="6.66667" transform="matrix(-.19798435 1.0973589 -1.0973589 -.19798435 509.08539 111.9081)" xlink:href="#g"/><use stroke-width="6.66667" transform="matrix(.70940974 .2487586 -.2487586 .70940974 169.01847 15.720439)" xlink:href="#g"/><use stroke-width="6.66667" transform="matrix(1.0359187 -.13409107 .13409107 1.0359187 34.837282 -31.431295)" xlink:href="#g"/><use stroke-width="6.66667" transform="matrix(.64511398 .08385277 -.08385277 .64511398 81.4385 93.390199)" xlink:href="#g"/><use stroke-width="6.66667" transform="matrix(.80467885 .87825159 -.87825159 .80467885 305.48809 -20.334083)" xlink:href="#g"/><use stroke-width="6.66667" transform="matrix(.63183642 .3062704 -.3062704 .63183642 122.56212 94.902713)" xlink:href="#g"/><use transform="matrix(1.0726085 -.09693683 .09693683 1.0726085 19.188395 97.797809)" xlink:href="#e"/><use transform="matrix(1.1398029 -.07002106 .07002106 1.1398029 45.132653 31.344107)" xlink:href="#e"/><use transform="matrix(.75398849 .69932087 -.69932087 .75398849 145.93655 55.7045)" xlink:href="#e"/><use transform="matrix(.35581302 1.0403253 -1.0403253 .35581302 385.56131 8.32565)" xlink:href="#e"/><use transform="matrix(.37568562 1.083644 -1.083644 .37568562 404.35402 -11.318003)" xlink:href="#e"/><use transform="matrix(-.34097047 .82887276 -.82887276 -.34097047 364.41552 102.03154)" xlink:href="#e"/><use transform="matrix(.8813638 -.22645781 .22645781 .8813638 52.246653 185.44678)" xlink:href="#e"/><use transform="matrix(1.1537377 -.13051967 .13051967 1.1537377 -16.443698 67.209453)" xlink:href="#e"/><use transform="matrix(.97037256 .14757001 -.14757001 .97037256 98.392933 97.270859)" xlink:href="#e"/><use transform="matrix(1.0769786 .57520618 -.57520618 1.0769786 146.8527 -13.151948)" xlink:href="#e"/><use transform="matrix(.46116071 .72130784 -.72130784 .46116071 207.69267 -30.280957)" xlink:href="#e"/><use transform="matrix(-.23297057 1.0922217 -1.0922217 -.23297057 365.66378 134.06962)" xlink:href="#e"/><use transform="matrix(.90895066 .22701876 -.22701876 .90895066 89.549028 -36.171432)" xlink:href="#e"/><use transform="matrix(.84094914 -.70034233 .70034233 .84094914 -73.700956 175.38073)" xlink:href="#e"/><use transform="matrix(.68451351 -.34988881 .34988881 .68451351 59.133127 187.27324)" xlink:href="#e"/><use transform="matrix(.2390399 1.1870186 -1.1870186 .2390399 407.8816 50.800767)" xlink:href="#e"/><use transform="matrix(.09567797 .97295505 -.97295505 .09567797 415.1735 19.270028)" xlink:href="#e"/><use transform="matrix(.822663 .56668248 -.56668248 .822663 114.51616 51.474116)" xlink:href="#e"/><use transform="matrix(.27810607 -.71590522 .71590522 .27810607 110.41552 271.71788)" xlink:href="#e"/><use transform="matrix(.63711936 -.96094576 .96094576 .63711936 -19.727824 341.89745)" xlink:href="#e"/><use transform="matrix(.60260243 .52173729 -.52173729 .60260243 230.38234 -14.914624)" xlink:href="#e"/><use transform="matrix(.74798728 -.29954199 .29954199 .74798728 -34.030124 227.97907)" xlink:href="#e"/><use transform="matrix(.79337189 .69275606 -.69275606 .79337189 203.88969 -53.389494)" xlink:href="#e"/><use transform="matrix(.75125932 .49120819 -.49120819 .75125932 163.91903 -9.265784)" xlink:href="#e"/><use transform="matrix(.74288053 -.1257304 .1257304 .74288053 91.18597 63.388248)" xlink:href="#e"/><use transform="matrix(.92046885 -.24999446 .24999446 .92046885 -41.738996 111.1813)" xlink:href="#e"/><use transform="matrix(1.0331395 .21853658 -.21853658 1.0331395 137.53439 13.354963)" xlink:href="#e"/><use transform="matrix(.81335932 .40086123 -.40086123 .81335932 123.41992 22.486207)" xlink:href="#e"/><use transform="matrix(.8928858 -.13139133 .13139133 .8928858 -28.457032 78.833386)" xlink:href="#e"/><use transform="matrix(.6430204 1.0880826 -1.0880826 .6430204 345.40535 -123.5235)" xlink:href="#e"/><use transform="matrix(.42911778 -.77517589 .77517589 .42911778 -34.206364 348.4627)" xlink:href="#e"/><use transform="matrix(1.036648 -.46795009 .46795009 1.036648 -39.082759 98.721253)" xlink:href="#e"/><use transform="matrix(1.0597242 -.10828315 .10828315 1.0597242 -5.589274 85.420655)" xlink:href="#e"/><use transform="matrix(1.071496 .62369016 -.62369016 1.071496 125.90439 -84.658456)" xlink:href="#e"/><use transform="matrix(1.0626803 -.38862343 .38862343 1.0626803 -59.124091 182.4561)" xlink:href="#e"/><use transform="matrix(.93204383 -.06263692 .06263692 .93204383 45.776704 125.64728)" xlink:href="#e"/><use transform="matrix(.86984132 .26926257 -.26926257 .86984132 48.670467 6.331128)" xlink:href="#f"/><use transform="matrix(1.0565013 -.12917936 .12917936 1.0565013 14.133386 1.988161)" xlink:href="#f"/><use transform="matrix(.73127847 .92681619 -.92681619 .73127847 257.4843 -133.22336)" xlink:href="#f"/><use transform="matrix(1.0372951 .59739712 -.59739712 1.0372951 104.72479 -134.79373)" xlink:href="#f"/><use transform="matrix(.64164714 .66947468 -.66947468 .64164714 309.07069 11.796496)" xlink:href="#f"/><use transform="matrix(.80271726 .30475218 -.30475218 .80271726 196.83507 -29.435801)" xlink:href="#f"/><use transform="matrix(.77079818 -.04453588 .04453588 .77079818 16.729368 132.72971)" xlink:href="#f"/><use transform="matrix(1.0588864 .25451014 -.25451014 1.0588864 53.762579 -105.98606)" xlink:href="#f"/><use transform="matrix(1.2046699 .21572882 -.21572882 1.2046699 81.51307 -20.407165)" xlink:href="#f"/><use transform="matrix(.71819251 .33044349 -.33044349 .71819251 204.65651 44.399173)" xlink:href="#f"/><use transform="matrix(.81349646 .27802176 -.27802176 .81349646 152.72407 -4.405478)" xlink:href="#f"/><use transform="matrix(.96114289 -.7376223 .7376223 .96114289 -163.7522 145.83751)" xlink:href="#f"/><use transform="matrix(.72426898 .4115846 -.4115846 .72426898 228.21575 -24.390829)" xlink:href="#f"/><use transform="matrix(.19786266 .84162916 -.84162916 .19786266 284.62113 107.77045)" xlink:href="#f"/><use transform="matrix(.6732692 .57304794 -.57304794 .6732692 148.13212 26.619935)" xlink:href="#f"/><use transform="matrix(.89499916 -.5174593 .5174593 .89499916 -60.550115 169.98819)" xlink:href="#f"/><use transform="matrix(.96230881 .43967104 -.43967104 .96230881 59.676626 -60.836512)" xlink:href="#f"/><use transform="matrix(.83569581 .75049132 -.75049132 .83569581 212.21236 -89.752144)" xlink:href="#f"/><use transform="matrix(.99378944 -.29259583 .29259583 .99378944 33.332193 49.437891)" xlink:href="#f"/><use transform="matrix(.35223681 .77293927 -.77293927 .35223681 264.27828 51.413669)" xlink:href="#f"/><use transform="matrix(.67641922 -.84285212 .84285212 .67641922 -86.292381 176.64581)" xlink:href="#f"/><use transform="matrix(.61671017 -.84509915 .84509915 .61671017 -27.113239 185.55199)" xlink:href="#f"/><use transform="matrix(.61141119 -.5759759 .5759759 .61141119 -51.675936 181.8116)" xlink:href="#f"/><use transform="matrix(.86525061 .52841398 -.52841398 .86525061 151.43802 -37.164444)" xlink:href="#f"/><use transform="matrix(1.0497791 .23632286 -.23632286 1.0497791 17.650584 -67.728959)" xlink:href="#f"/><path id="e" d="m172.56492 168.24693c-.82624.89866-1.11593 1.0902-2.71992 1.08336 1.50858.65804.64869 1.75612.35417 2.45378.77979-.80365 1.52578-1.72341 2.96792-.52371-1.45573-1.28913-.92006-1.99553-.60217-3.01343z" fill="#fff"/><path id="f" d="m180.48319 214.76172-.17586-1.21672.90262-.83459-1.2115-.20878-.51485-1.11629-.57288 1.08767-1.22076.1447.85739.88094-.23963 1.20577 1.10279-.54325 1.07269.60057z" fill="#fff"/><path id="g" d="m165.3419 214.85736-1.21662 2.46528-2.72056.39526 1.96858 1.91894-.4647 2.70954 2.4333-1.27928 2.43332 1.27928-.46472-2.70954 1.96859-1.91891-2.72049-.39528-1.2167-2.46526z" fill="#fff"/></g></pattern><filter id="h" color-interpolation-filters="sRGB" height="1.121313" width="1.079427" x="-.039713" y="-.060657"><feGaussianBlur stdDeviation="1.8970075"/></filter><clipPath id="i"><path d="m453.01767 134.17177c-5.62057-21.47793-13.69575-38.901826-24.89649-57.472651l-9.95507 6.392578c.93965-4.956144 1.59211-9.502703 2.38476-14.671875-18.38535-19.46164-41.76211-37.522062-62.68173-46.464744-20.63974-8.453473-38.0578-9.128043-57.73633-7.484375-9.22206 15.323155-17.93957 31.088455-26.90565 46.649594-13.83831 23.770808-24.70917 42.085733-42.32677 62.041813-13.51088 5.51404-59.56165 24.19163-74.52539 29.25976-42.25688 14.31012-65.404249 43.58173-103.949219 88.31446-12.185865 14.16194-20.57558 34.84694-6.876953 50.25976l.09375.10157.0957.0996c9.197315 9.71836 23.178236 11.64255 37.837891 6.41992l-67.09375 62.00586c-15.4530408 15.49312-21.4518343 35.43569-9.8603502 50.83985 12.4488282 11.17608 26.7227832 9.24192 36.6308602 5.79785-12.443546 15.34733-26.031797 37.70584-6.069337 53.30077 21.467622 12.95682 46.772533.0192 61.28906-13.11721.267043 8.68589 5.719208 19.54211 13.941458 24.79686 29.39254 9.82455 46.68379-1.79464 63.1309-19.79787 2.01754 6.39391 6.30789 13.08782 13.17578 16.68751 13.06645 6.62955 32.67655 1.66533 44.00391-14.10937 28.39001-39.53646 60.3467-79.81239 89.198-123.87092 28.8513-44.05854 54.59721-91.89968 70.56567-146.56758 15.33814-20.5811 46.11758-40.28401 60.5293-59.41116z"/></clipPath><radialGradient id="j" cx="4601.1221" cy="4277.6772" gradientTransform="matrix(0 1 -1 0 5224.5762 -3824.5764)" gradientUnits="userSpaceOnUse" r="11.2507" xlink:href="#k"/><linearGradient id="k"><stop offset="0" stop-color="#fff"/><stop offset=".1375" stop-color="#fff" stop-opacity=".8625"/><stop offset="1" stop-color="#fff" stop-opacity="0"/></linearGradient><radialGradient id="l" cx="4694.3481" cy="4395.814" gradientTransform="matrix(0 1 -1 0 5224.5762 -3824.5764)" gradientUnits="userSpaceOnUse" r="11.2507" xlink:href="#k"/><radialGradient id="m" cx="4845.7568" cy="4885.4878" gradientTransform="matrix(0 1 -1 0 5224.5762 -3824.5764)" gradientUnits="userSpaceOnUse" r="11.2507" xlink:href="#k"/><radialGradient id="n" cx="4996.8203" cy="4201.0781" gradientTransform="matrix(0 1 -1 0 5224.5762 -3824.5764)" gradientUnits="userSpaceOnUse" r="11.2507" xlink:href="#k"/><radialGradient id="o" cx="4264.2671" cy="4804.9849" gradientTransform="matrix(0 1 -1 0 5224.5762 -3824.5764)" gradientUnits="userSpaceOnUse" r="11.2507" xlink:href="#k"/><radialGradient id="p" cx="4253.0161" cy="4349.7529" gradientTransform="matrix(0 1 -1 0 5224.5762 -3824.5764)" gradientUnits="userSpaceOnUse" r="11.2507" xlink:href="#k"/><radialGradient id="q" cx="4291.9346" cy="4509.8506" gradientTransform="matrix(0 1 -1 0 5224.5762 -3824.5764)" gradientUnits="userSpaceOnUse" r="11.2507" xlink:href="#k"/><radialGradient id="r" cx="4178.7915" cy="4193.6758" gradientTransform="matrix(0 1 -1 0 5224.5762 -3824.5764)" gradientUnits="userSpaceOnUse" r="11.2507" xlink:href="#k"/><radialGradient id="s" cx="4508.9131" cy="4184.4229" gradientTransform="matrix(0 1 -1 0 5224.5762 -3824.5764)" gradientUnits="userSpaceOnUse" r="11.2507" xlink:href="#k"/><radialGradient id="t" cx="4169.5386" cy="4599.0166" gradientTransform="matrix(0 1 -1 0 5224.5762 -3824.5764)" gradientUnits="userSpaceOnUse" r="11.2507" xlink:href="#k"/><radialGradient id="u" cx="4024.0554" cy="4671.3345" gradientTransform="matrix(0 1 -1 0 5224.5762 -3824.5764)" gradientUnits="userSpaceOnUse" r="11.2507" xlink:href="#k"/><radialGradient id="v" cx="4381.2778" cy="4473.0386" gradientTransform="matrix(0 1 -1 0 5224.5762 -3824.5764)" gradientUnits="userSpaceOnUse" r="5.6228" xlink:href="#k"/><radialGradient id="w" cx="4207.3452" cy="4447.1753" gradientTransform="matrix(0 1 -1 0 5224.5762 -3824.5764)" gradientUnits="userSpaceOnUse" r="5.6228" xlink:href="#k"/><radialGradient id="x" cx="4156.0269" cy="4803.9863" gradientTransform="matrix(0 1 -1 0 5224.5762 -3824.5764)" gradientUnits="userSpaceOnUse" r="5.6228" xlink:href="#k"/><radialGradient id="y" cx="4201.7222" cy="5018.0508" gradientTransform="matrix(0 1 -1 0 5224.5762 -3824.5764)" gradientUnits="userSpaceOnUse" r="5.6228" xlink:href="#k"/><radialGradient id="z" cx="4756.5977" cy="4610.2671" gradientTransform="matrix(0 1 -1 0 5224.5762 -3824.5764)" gradientUnits="userSpaceOnUse" r="5.6228" xlink:href="#k"/><radialGradient id="A" cx="4724.8408" cy="4498.3604" gradientTransform="matrix(0 1 -1 0 5224.5762 -3824.5764)" gradientUnits="userSpaceOnUse" r="5.6228" xlink:href="#k"/><radialGradient id="B" cx="4755.5991" cy="4916.6094" gradientTransform="matrix(0 1 -1 0 5224.5762 -3824.5764)" gradientUnits="userSpaceOnUse" r="5.6228" xlink:href="#k"/><radialGradient id="C" cx="4815.3223" cy="4406.499" gradientTransform="matrix(0 1 -1 0 5224.5762 -3824.5764)" gradientUnits="userSpaceOnUse" r="5.6228" xlink:href="#k"/><radialGradient id="D" cx="4840.1343" cy="4528.7949" gradientTransform="matrix(0 1 -1 0 5224.5762 -3824.5764)" gradientUnits="userSpaceOnUse" r="5.6228" xlink:href="#k"/><radialGradient id="E" cx="4994.8228" cy="4675.311" gradientTransform="matrix(0 1 -1 0 5224.5762 -3824.5764)" gradientUnits="userSpaceOnUse" r="5.6228" xlink:href="#k"/><radialGradient id="F" cx="4625.9868" cy="4580.4009" gradientTransform="matrix(0 1 -1 0 5224.5762 -3824.5764)" gradientUnits="userSpaceOnUse" r="5.6228" xlink:href="#k"/><radialGradient id="G" cx="4832.085" cy="4231.3418" gradientTransform="matrix(0 1 -1 0 5224.5762 -3824.5764)" gradientUnits="userSpaceOnUse" r="5.6228" xlink:href="#k"/><radialGradient id="H" cx="4920.2227" cy="4281.3076" gradientTransform="matrix(0 1 -1 0 5224.5762 -3824.5764)" gradientUnits="userSpaceOnUse" r="5.6228" xlink:href="#k"/><radialGradient id="I" cx="4483.835" cy="4313.1982" gradientTransform="matrix(0 1 -1 0 5224.5762 -3824.5764)" gradientUnits="userSpaceOnUse" r="5.6228" xlink:href="#k"/><radialGradient id="J" cx="4664.439" cy="4695.5273" gradientTransform="matrix(0 1 -1 0 5224.5762 -3824.5764)" gradientUnits="userSpaceOnUse" r="11.2507" xlink:href="#k"/><radialGradient id="K" cx="4894.2646" cy="4681.8555" gradientTransform="matrix(0 1 -1 0 5224.5762 -3824.5764)" gradientUnits="userSpaceOnUse" r="11.2507" xlink:href="#k"/><radialGradient id="L" cx="4985.5698" cy="4361.0039" gradientTransform="matrix(0 1 -1 0 5224.5762 -3824.5764)" gradientUnits="userSpaceOnUse" r="11.2507" xlink:href="#k"/><radialGradient id="M" cx="4713.5898" cy="4089.8687" gradientTransform="matrix(0 1 -1 0 5224.5762 -3824.5764)" gradientUnits="userSpaceOnUse" r="11.2507" xlink:href="#k"/><radialGradient id="N" cx="4757.5957" cy="4804.9849" gradientTransform="matrix(0 1 -1 0 5224.5762 -3824.5764)" gradientUnits="userSpaceOnUse" r="11.2507" xlink:href="#k"/><radialGradient id="O" cx="4433.3354" cy="5016.0532" gradientTransform="matrix(0 1 -1 0 5224.5762 -3824.5764)" gradientUnits="userSpaceOnUse" r="11.2507" xlink:href="#k"/><radialGradient id="P" cx="4371.5723" cy="4725.9341" gradientTransform="matrix(0 1 -1 0 5224.5762 -3824.5764)" gradientUnits="userSpaceOnUse" r="11.2507" xlink:href="#k"/><radialGradient id="Q" cx="4510.9111" cy="4743.7231" gradientTransform="matrix(0 1 -1 0 5224.5762 -3824.5764)" gradientUnits="userSpaceOnUse" r="11.2507" xlink:href="#k"/><radialGradient id="R" cx="4269.4331" cy="4686.5615" gradientTransform="matrix(0 1 -1 0 5224.5762 -3824.5764)" gradientUnits="userSpaceOnUse" r="11.2507" xlink:href="#k"/><radialGradient id="S" cx="4072.584" cy="4883.4902" gradientTransform="matrix(0 1 -1 0 5224.5762 -3824.5764)" gradientUnits="userSpaceOnUse" r="11.2507" xlink:href="#k"/><radialGradient id="T" cx="4484.8335" cy="4664.189" gradientTransform="matrix(0 1 -1 0 5224.5762 -3824.5764)" gradientUnits="userSpaceOnUse" r="7.1455" xlink:href="#k"/><radialGradient id="U" cx="4613.2183" cy="4640.4971" gradientTransform="matrix(0 1 -1 0 5224.5762 -3824.5764)" gradientUnits="userSpaceOnUse" r="7.1455" xlink:href="#k"/><radialGradient id="V" cx="4091.8" cy="4252.5869" gradientTransform="matrix(0 1 -1 0 5224.5762 -3824.5764)" gradientUnits="userSpaceOnUse" r="7.1455" xlink:href="#k"/><radialGradient id="W" cx="4666.4365" cy="4863.9521" gradientTransform="matrix(0 1 -1 0 5224.5762 -3824.5764)" gradientUnits="userSpaceOnUse" r="7.1455" xlink:href="#k"/><radialGradient id="X" cx="4894.2646" cy="4840.1016" gradientTransform="matrix(0 1 -1 0 5224.5762 -3824.5764)" gradientUnits="userSpaceOnUse" r="7.1455" xlink:href="#k"/><radialGradient id="Y" cx="4974.3188" cy="4809.6094" gradientTransform="matrix(0 1 -1 0 5224.5762 -3824.5764)" gradientUnits="userSpaceOnUse" r="7.1455" xlink:href="#k"/><radialGradient id="Z" cx="4589.1577" cy="4997.6572" gradientTransform="matrix(0 1 -1 0 5224.5762 -3824.5764)" gradientUnits="userSpaceOnUse" r="7.1455" xlink:href="#k"/><radialGradient id="aa" cx="4065.4385" cy="4519.7837" gradientTransform="matrix(0 1 -1 0 5224.5762 -3824.5764)" gradientUnits="userSpaceOnUse" r="7.1455" xlink:href="#k"/><radialGradient id="ab" cx="4347.4258" cy="4820.2441" gradientTransform="matrix(0 1 -1 0 5224.5762 -3824.5764)" gradientUnits="userSpaceOnUse" r="7.1455" xlink:href="#k"/><radialGradient id="ac" cx="4533.5781" cy="4593.1694" gradientTransform="matrix(0 1 -1 0 5224.5762 -3824.5764)" gradientUnits="userSpaceOnUse" r="7.1455" xlink:href="#k"/><radialGradient id="ad" cx="4448.2217" cy="4220.0913" gradientTransform="matrix(0 1 -1 0 5224.5762 -3824.5764)" gradientUnits="userSpaceOnUse" r="11.2507" xlink:href="#k"/><radialGradient id="ae" cx="4908.2451" cy="4929.8579" gradientTransform="matrix(0 1 -1 0 5224.5762 -3824.5764)" gradientUnits="userSpaceOnUse" r="11.2507" xlink:href="#k"/><radialGradient id="af" cx="4987.5674" cy="5014.0552" gradientTransform="matrix(0 1 -1 0 5224.5762 -3824.5764)" gradientUnits="userSpaceOnUse" r="11.2507" xlink:href="#k"/><radialGradient id="ag" cx="3991.5649" cy="4813.0986" gradientTransform="matrix(0 1 -1 0 5224.5762 -3824.5764)" gradientUnits="userSpaceOnUse" r="11.2507" xlink:href="#k"/><radialGradient id="ah" cx="4012.8047" cy="4351.751" gradientTransform="matrix(0 1 -1 0 5224.5762 -3824.5764)" gradientUnits="userSpaceOnUse" r="11.2507" xlink:href="#k"/><radialGradient id="ai" cx="4683.0972" cy="5027.3037" gradientTransform="matrix(0 1 -1 0 5224.5762 -3824.5764)" gradientUnits="userSpaceOnUse" r="11.2507" xlink:href="#k"/><radialGradient id="aj" cx="4367.481" cy="4195.6733" gradientTransform="matrix(0 1 -1 0 5224.5762 -3824.5764)" gradientUnits="userSpaceOnUse" r="11.2507" xlink:href="#k"/><radialGradient id="ak" cx="4526.4326" cy="4089.8687" gradientTransform="matrix(0 1 -1 0 5224.5762 -3824.5764)" gradientUnits="userSpaceOnUse" r="11.2507" xlink:href="#k"/><radialGradient id="al" cx="4261.9028" cy="4242.5928" gradientTransform="matrix(0 1 -1 0 5224.5762 -3824.5764)" gradientUnits="userSpaceOnUse" r="11.2507" xlink:href="#k"/><radialGradient id="am" cx="16633.223" cy="4517.6021" gradientTransform="matrix(0 .2895 -1 0 5224.5762 -4086.6375)" gradientUnits="userSpaceOnUse" r="19.241899" xlink:href="#k"/><radialGradient id="an" cx="-15595.086" cy="5031.6465" gradientTransform="matrix(.2895 0 0 1 5221.3418 -4303.4033)" gradientUnits="userSpaceOnUse" r="19.241899" xlink:href="#k"/><radialGradient id="ao" cx="16323.169" cy="4900.5503" gradientTransform="matrix(0 .2895 -1 0 5224.5762 -4086.6375)" gradientUnits="userSpaceOnUse" r="29.7325" xlink:href="#k"/><radialGradient id="ap" cx="-16917.998" cy="4941.8945" gradientTransform="matrix(.2895 0 0 1 5221.3418 -4303.4033)" gradientUnits="userSpaceOnUse" r="29.7325" xlink:href="#k"/><radialGradient id="aq" cx="17536.6" cy="5029.3018" gradientTransform="matrix(0 .2895 -1 0 5224.5762 -4086.6375)" gradientUnits="userSpaceOnUse" r="29.7325" xlink:href="#k"/><radialGradient id="ar" cx="-17362.775" cy="5293.1509" gradientTransform="matrix(.2895 0 0 1 5221.3418 -4303.4033)" gradientUnits="userSpaceOnUse" r="29.7325" xlink:href="#k"/><radialGradient id="as" cx="15154.966" cy="4975.0698" gradientTransform="matrix(0 .2895 -1 0 5224.5762 -4086.6375)" gradientUnits="userSpaceOnUse" r="29.7325" xlink:href="#k"/><radialGradient id="at" cx="-17175.43" cy="4603.7305" gradientTransform="matrix(.2895 0 0 1 5221.3418 -4303.4033)" gradientUnits="userSpaceOnUse" r="29.7325" xlink:href="#k"/><radialGradient id="au" cx="16788.486" cy="4380.1377" gradientTransform="matrix(0 .2895 -1 0 5224.5762 -4086.6375)" gradientUnits="userSpaceOnUse" r="29.7325" xlink:href="#k"/><radialGradient id="av" cx="-15120.208" cy="5076.5913" gradientTransform="matrix(.2895 0 0 1 5221.3418 -4303.4033)" gradientUnits="userSpaceOnUse" r="29.7325" xlink:href="#k"/><radialGradient id="aw" cx="15052.254" cy="4385.373" gradientTransform="matrix(0 .2895 -1 0 5224.5762 -4086.6375)" gradientUnits="userSpaceOnUse" r="29.7325" xlink:href="#k"/><radialGradient id="ax" cx="-15138.295" cy="4573.998" gradientTransform="matrix(.2895 0 0 1 5221.3418 -4303.4033)" gradientUnits="userSpaceOnUse" r="29.7325" xlink:href="#k"/><radialGradient id="ay" cx="16060.047" cy="4376.7666" gradientTransform="matrix(0 .2895 -1 0 5224.5762 -4086.6375)" gradientUnits="userSpaceOnUse" r="29.7325" xlink:href="#k"/><radialGradient id="az" cx="-15108.562" cy="4865.7275" gradientTransform="matrix(.2895 0 0 1 5221.3418 -4303.4033)" gradientUnits="userSpaceOnUse" r="29.7325" xlink:href="#k"/><radialGradient id="aA" cx="15866.068" cy="4081.2617" gradientTransform="matrix(0 .2895 -1 0 5224.5762 -4086.6375)" gradientUnits="userSpaceOnUse" r="29.7325" xlink:href="#k"/><radialGradient id="aB" cx="-14087.729" cy="4809.5757" gradientTransform="matrix(.2895 0 0 1 5221.3418 -4303.4033)" gradientUnits="userSpaceOnUse" r="29.7325" xlink:href="#k"/><radialGradient id="aC" cx="17890.787" cy="4106.2778" gradientTransform="matrix(0 .2895 -1 0 5224.5762 -4086.6375)" gradientUnits="userSpaceOnUse" r="29.7325" xlink:href="#k"/><radialGradient id="aD" cx="-14174.147" cy="5395.6787" gradientTransform="matrix(.2895 0 0 1 5221.3418 -4303.4033)" gradientUnits="userSpaceOnUse" r="29.7325" xlink:href="#k"/><radialGradient id="aE" cx="15420.522" cy="4902.7319" gradientTransform="matrix(0 .2895 -1 0 5224.5762 -4086.6375)" gradientUnits="userSpaceOnUse" r="19.241899" xlink:href="#k"/><radialGradient id="aF" cx="-16925.533" cy="4680.6021" gradientTransform="matrix(.2895 0 0 1 5221.3418 -4303.4033)" gradientUnits="userSpaceOnUse" r="19.241899" xlink:href="#k"/><radialGradient id="aG" cx="17559.291" cy="4676.2856" gradientTransform="matrix(0 .2895 -1 0 5224.5762 -4086.6375)" gradientUnits="userSpaceOnUse" r="19.241899" xlink:href="#k"/><radialGradient id="aH" cx="-16143.265" cy="5299.7192" gradientTransform="matrix(.2895 0 0 1 5221.3418 -4303.4033)" gradientUnits="userSpaceOnUse" r="19.241899" xlink:href="#k"/><radialGradient id="aI" cx="16866.557" cy="4774.4922" gradientTransform="matrix(0 .2895 -1 0 5224.5762 -4086.6375)" gradientUnits="userSpaceOnUse" r="19.241899" xlink:href="#k"/><radialGradient id="aJ" cx="-16482.523" cy="5099.1909" gradientTransform="matrix(.2895 0 0 1 5221.3418 -4303.4033)" gradientUnits="userSpaceOnUse" r="19.241899" xlink:href="#k"/><radialGradient id="aK" cx="16071.692" cy="4574.7783" gradientTransform="matrix(0 .2895 -1 0 5224.5762 -4086.6375)" gradientUnits="userSpaceOnUse" r="19.241899" xlink:href="#k"/><radialGradient id="aL" cx="-15792.604" cy="4869.0986" gradientTransform="matrix(.2895 0 0 1 5221.3418 -4303.4033)" gradientUnits="userSpaceOnUse" r="19.241899" xlink:href="#k"/><radialGradient id="aM" cx="16699.693" cy="4871.0977" gradientTransform="matrix(0 .2895 -1 0 5224.5762 -4086.6375)" gradientUnits="userSpaceOnUse" r="19.241899" xlink:href="#k"/><radialGradient id="aN" cx="-16816.252" cy="5050.8887" gradientTransform="matrix(.2895 0 0 1 5221.3418 -4303.4033)" gradientUnits="userSpaceOnUse" r="19.241899" xlink:href="#k"/><radialGradient id="aO" cx="18061.07" cy="4512.0322" gradientTransform="matrix(0 .2895 -1 0 5224.5762 -4086.6375)" gradientUnits="userSpaceOnUse" r="19.241899" xlink:href="#k"/><radialGradient id="aP" cx="-15575.844" cy="5444.9717" gradientTransform="matrix(.2895 0 0 1 5221.3418 -4303.4033)" gradientUnits="userSpaceOnUse" r="19.241899" xlink:href="#k"/><radialGradient id="aQ" cx="17188.609" cy="4244.9609" gradientTransform="matrix(0 .2895 -1 0 5224.5762 -4086.6375)" gradientUnits="userSpaceOnUse" r="19.241899" xlink:href="#k"/><radialGradient id="aR" cx="-14653.234" cy="5192.417" gradientTransform="matrix(.2895 0 0 1 5221.3418 -4303.4033)" gradientUnits="userSpaceOnUse" r="19.241899" xlink:href="#k"/><radialGradient id="aS" cx="15143.32" cy="4682.5854" gradientTransform="matrix(0 .2895 -1 0 5224.5762 -4086.6375)" gradientUnits="userSpaceOnUse" r="19.241899" xlink:href="#k"/><radialGradient id="aT" cx="-16165.027" cy="4600.3594" gradientTransform="matrix(.2895 0 0 1 5221.3418 -4303.4033)" gradientUnits="userSpaceOnUse" r="19.241899" xlink:href="#k"/><radialGradient id="aU" cx="17652.088" cy="4368.1597" gradientTransform="matrix(0 .2895 -1 0 5224.5762 -4086.6375)" gradientUnits="userSpaceOnUse" r="19.241899" xlink:href="#k"/><radialGradient id="aV" cx="-15078.83" cy="5326.5815" gradientTransform="matrix(.2895 0 0 1 5221.3418 -4303.4033)" gradientUnits="userSpaceOnUse" r="19.241899" xlink:href="#k"/><radialGradient id="aW" cx="3957.2905" cy="4201.0781" gradientTransform="matrix(0 1 -1 0 5224.5762 -3824.5764)" gradientUnits="userSpaceOnUse" r="11.2507" xlink:href="#k"/><radialGradient id="aX" cx="3955.2927" cy="4675.311" gradientTransform="matrix(0 1 -1 0 5224.5762 -3824.5764)" gradientUnits="userSpaceOnUse" r="5.6228" xlink:href="#k"/><radialGradient id="aY" cx="3880.6929" cy="4281.3076" gradientTransform="matrix(0 1 -1 0 5224.5762 -3824.5764)" gradientUnits="userSpaceOnUse" r="5.6228" xlink:href="#k"/><radialGradient id="aZ" cx="3946.0398" cy="4361.0039" gradientTransform="matrix(0 1 -1 0 5224.5762 -3824.5764)" gradientUnits="userSpaceOnUse" r="11.2507" xlink:href="#k"/><radialGradient id="a0" cx="14469.968" cy="4512.0322" gradientTransform="matrix(0 .2895 -1 0 5224.5762 -4086.6375)" gradientUnits="userSpaceOnUse" r="19.241899" xlink:href="#k"/><radialGradient id="a1" cx="-15575.844" cy="4405.4414" gradientTransform="matrix(.2895 0 0 1 5221.3418 -4303.4033)" gradientUnits="userSpaceOnUse" r="19.241899" xlink:href="#k"/><radialGradient id="a2" cx="16783.117" cy="4155.2524" gradientTransform="matrix(0 .2895 -1 0 5224.5762 -4086.6375)" gradientUnits="userSpaceOnUse" r="19.241899" xlink:href="#k"/><radialGradient id="a3" cx="-14343.332" cy="5075.0371" gradientTransform="matrix(.2895 0 0 1 5221.3418 -4303.4033)" gradientUnits="userSpaceOnUse" r="19.241899" xlink:href="#k"/><radialGradient id="a4" cx="15184.698" cy="4089.8687" gradientTransform="matrix(0 .2895 -1 0 5224.5762 -4086.6375)" gradientUnits="userSpaceOnUse" r="19.241899" xlink:href="#k"/><radialGradient id="a5" cx="-14117.461" cy="4612.3369" gradientTransform="matrix(.2895 0 0 1 5221.3418 -4303.4033)" gradientUnits="userSpaceOnUse" r="19.241899" xlink:href="#k"/><radialGradient id="a6" cx="14799.68" cy="4114.8848" gradientTransform="matrix(0 .2895 -1 0 5224.5762 -4086.6375)" gradientUnits="userSpaceOnUse" r="19.241899" xlink:href="#k"/><radialGradient id="a7" cx="-14203.88" cy="4500.8843" gradientTransform="matrix(.2895 0 0 1 5221.3418 -4303.4033)" gradientUnits="userSpaceOnUse" r="19.241899" xlink:href="#k"/><radialGradient id="a8" cx="4250.4473" cy="5175.2676" gradientTransform="matrix(0 -1 1 0 -5135.66355 5025.32025)" gradientUnits="userSpaceOnUse" r="11.2507" xlink:href="#k"/><radialGradient id="a9" cx="4163.4556" cy="5234.1792" gradientTransform="matrix(0 -1 1 0 -5135.66355 5025.32025)" gradientUnits="userSpaceOnUse" r="7.1455" xlink:href="#k"/><radialGradient id="ba" cx="4333.5586" cy="5224.1846" gradientTransform="matrix(0 -1 1 0 -5135.66355 5025.32025)" gradientUnits="userSpaceOnUse" r="11.2507" xlink:href="#k"/><radialGradient id="bb" cx="4028.946" cy="5182.6704" gradientTransform="matrix(0 -1 1 0 -5135.66355 5025.32025)" gradientUnits="userSpaceOnUse" r="11.2507" xlink:href="#k"/><radialGradient id="bc" cx="3952.3484" cy="5262.8999" gradientTransform="matrix(0 -1 1 0 -5135.66355 5025.32025)" gradientUnits="userSpaceOnUse" r="5.6228" xlink:href="#k"/><radialGradient id="bd" cx="4358.6768" cy="4918.6069" gradientTransform="matrix(0 1 -1 0 5224.5762 -3824.5764)" gradientUnits="userSpaceOnUse" r="11.2507" xlink:href="#k"/><radialGradient id="be" cx="5075.5581" cy="4804.9849" gradientTransform="matrix(0 1 -1 0 5224.5762 -3824.5764)" gradientUnits="userSpaceOnUse" r="11.2507" xlink:href="#k"/><radialGradient id="bf" cx="5064.3071" cy="4349.7529" gradientTransform="matrix(0 1 -1 0 5224.5762 -3824.5764)" gradientUnits="userSpaceOnUse" r="11.2507" xlink:href="#k"/><radialGradient id="bg" cx="5103.2256" cy="4509.8506" gradientTransform="matrix(0 1 -1 0 5224.5762 -3824.5764)" gradientUnits="userSpaceOnUse" r="11.2507" xlink:href="#k"/><radialGradient id="bh" cx="5192.5688" cy="4473.0386" gradientTransform="matrix(0 1 -1 0 5224.5762 -3824.5764)" gradientUnits="userSpaceOnUse" r="5.6228" xlink:href="#k"/><radialGradient id="bi" cx="5182.8633" cy="4725.9341" gradientTransform="matrix(0 1 -1 0 5224.5762 -3824.5764)" gradientUnits="userSpaceOnUse" r="11.2507" xlink:href="#k"/><radialGradient id="bj" cx="5080.7241" cy="4686.5615" gradientTransform="matrix(0 1 -1 0 5224.5762 -3824.5764)" gradientUnits="userSpaceOnUse" r="11.2507" xlink:href="#k"/><radialGradient id="bk" cx="5158.7168" cy="4820.2441" gradientTransform="matrix(0 1 -1 0 5224.5762 -3824.5764)" gradientUnits="userSpaceOnUse" r="7.1455" xlink:href="#k"/><radialGradient id="bl" cx="5073.1938" cy="4242.5928" gradientTransform="matrix(0 1 -1 0 5224.5762 -3824.5764)" gradientUnits="userSpaceOnUse" r="11.2507" xlink:href="#k"/><radialGradient id="bm" cx="18862.688" cy="4376.7666" gradientTransform="matrix(0 .2895 -1 0 5224.5762 -4086.6375)" gradientUnits="userSpaceOnUse" r="29.7325" xlink:href="#k"/><radialGradient id="bn" cx="-15108.562" cy="5677.0186" gradientTransform="matrix(.2895 0 0 1 5221.3418 -4303.4033)" gradientUnits="userSpaceOnUse" r="29.7325" xlink:href="#k"/><radialGradient id="bo" cx="18223.164" cy="4902.7319" gradientTransform="matrix(0 .2895 -1 0 5224.5762 -4086.6375)" gradientUnits="userSpaceOnUse" r="19.241899" xlink:href="#k"/><radialGradient id="bp" cx="-16925.533" cy="5491.8931" gradientTransform="matrix(.2895 0 0 1 5221.3418 -4303.4033)" gradientUnits="userSpaceOnUse" r="19.241899" xlink:href="#k"/><radialGradient id="bq" cx="18874.334" cy="4574.7783" gradientTransform="matrix(0 .2895 -1 0 5224.5762 -4086.6375)" gradientUnits="userSpaceOnUse" r="19.241899" xlink:href="#k"/><radialGradient id="br" cx="-15792.604" cy="5680.3896" gradientTransform="matrix(.2895 0 0 1 5221.3418 -4303.4033)" gradientUnits="userSpaceOnUse" r="19.241899" xlink:href="#k"/><radialGradient id="bs" cx="4756.5977" cy="3890.749" gradientTransform="matrix(0 1 -1 0 5224.5762 -3824.5764)" gradientUnits="userSpaceOnUse" r="5.6228" xlink:href="#k"/><radialGradient id="bt" cx="4625.9868" cy="3860.8828" gradientTransform="matrix(0 1 -1 0 5224.5762 -3824.5764)" gradientUnits="userSpaceOnUse" r="5.6228" xlink:href="#k"/><radialGradient id="bu" cx="4664.439" cy="3976.0093" gradientTransform="matrix(0 1 -1 0 5224.5762 -3824.5764)" gradientUnits="userSpaceOnUse" r="11.2507" xlink:href="#k"/><radialGradient id="bv" cx="4894.2646" cy="3962.3374" gradientTransform="matrix(0 1 -1 0 5224.5762 -3824.5764)" gradientUnits="userSpaceOnUse" r="11.2507" xlink:href="#k"/><radialGradient id="bw" cx="4371.5723" cy="4006.416" gradientTransform="matrix(0 1 -1 0 5224.5762 -3824.5764)" gradientUnits="userSpaceOnUse" r="11.2507" xlink:href="#k"/><radialGradient id="bx" cx="4510.9111" cy="4024.2048" gradientTransform="matrix(0 1 -1 0 5224.5762 -3824.5764)" gradientUnits="userSpaceOnUse" r="11.2507" xlink:href="#k"/><radialGradient id="by" cx="4269.4331" cy="3967.0435" gradientTransform="matrix(0 1 -1 0 5224.5762 -3824.5764)" gradientUnits="userSpaceOnUse" r="11.2507" xlink:href="#k"/><radialGradient id="bz" cx="4484.8335" cy="3944.6709" gradientTransform="matrix(0 1 -1 0 5224.5762 -3824.5764)" gradientUnits="userSpaceOnUse" r="7.1455" xlink:href="#k"/><radialGradient id="bA" cx="4613.2183" cy="3920.979" gradientTransform="matrix(0 1 -1 0 5224.5762 -3824.5764)" gradientUnits="userSpaceOnUse" r="7.1455" xlink:href="#k"/><radialGradient id="bB" cx="4533.5781" cy="3873.6511" gradientTransform="matrix(0 1 -1 0 5224.5762 -3824.5764)" gradientUnits="userSpaceOnUse" r="7.1455" xlink:href="#k"/><radialGradient id="bC" cx="17559.291" cy="3956.7673" gradientTransform="matrix(0 .2895 -1 0 5224.5762 -4086.6375)" gradientUnits="userSpaceOnUse" r="19.241899" xlink:href="#k"/><radialGradient id="bD" cx="-13657.657" cy="5299.7192" gradientTransform="matrix(.2895 0 0 1 5221.3418 -4303.4033)" gradientUnits="userSpaceOnUse" r="19.241899" xlink:href="#k"/><radialGradient id="bE" cx="16071.692" cy="3855.26" gradientTransform="matrix(0 .2895 -1 0 5224.5762 -4086.6375)" gradientUnits="userSpaceOnUse" r="19.241899" xlink:href="#k"/><radialGradient id="bF" cx="-13306.996" cy="4869.0986" gradientTransform="matrix(.2895 0 0 1 5221.3418 -4303.4033)" gradientUnits="userSpaceOnUse" r="19.241899" xlink:href="#k"/><radialGradient id="bG" cx="15143.32" cy="3963.0671" gradientTransform="matrix(0 .2895 -1 0 5224.5762 -4086.6375)" gradientUnits="userSpaceOnUse" r="19.241899" xlink:href="#k"/><radialGradient id="bH" cx="-13679.42" cy="4600.3594" gradientTransform="matrix(.2895 0 0 1 5221.3418 -4303.4033)" gradientUnits="userSpaceOnUse" r="19.241899" xlink:href="#k"/><g opacity=".8" stroke-width="1.2983" transform="matrix(.36512341 0 0 .35973811 -8.653432 -11.493628)"><circle cx="946.90002" cy="776.5" fill="url(#j)" opacity=".5" r="11.3"/><circle cx="828.79999" cy="869.79999" fill="url(#l)" opacity=".5" r="11.3"/><circle cx="339.10001" cy="1021.2" fill="url(#m)" opacity=".5" r="11.3"/><circle cx="1023.5" cy="1172.2" fill="url(#n)" opacity=".5" r="11.3"/><circle cx="419.60001" cy="439.70001" fill="url(#o)" opacity=".5" r="11.3"/><circle cx="874.79999" cy="428.39999" fill="url(#p)" opacity=".5" r="11.3"/><circle cx="714.70001" cy="467.39999" fill="url(#q)" opacity=".5" r="11.3"/><circle cx="1030.9" cy="354.20001" fill="url(#r)" opacity=".5" r="11.3"/><circle cx="1040.2" cy="684.29999" fill="url(#s)" opacity=".5" r="11.3"/><circle cx="625.59998" cy="345" fill="url(#t)" opacity=".5" r="11.3"/><circle cx="553.20001" cy="199.5" fill="url(#u)" opacity=".5" r="11.3"/><circle cx="751.5" cy="556.70001" fill="url(#v)" opacity=".5" r="5.6"/><circle cx="777.40002" cy="382.79999" fill="url(#w)" opacity=".5" r="5.6"/><circle cx="420.60001" cy="331.5" fill="url(#x)" opacity=".5" r="5.6"/><circle cx="206.5" cy="377.10001" fill="url(#y)" opacity=".5" r="5.6"/><circle cx="614.29999" cy="932" fill="url(#z)" opacity=".5" r="5.6"/><circle cx="726.20001" cy="900.29999" fill="url(#A)" opacity=".5" r="5.6"/><circle cx="308" cy="931" fill="url(#B)" opacity=".5" r="5.6"/><circle cx="818.09998" cy="990.70001" fill="url(#C)" opacity=".5" r="5.6"/><circle cx="695.79999" cy="1015.6" fill="url(#D)" opacity=".5" r="5.6"/><circle cx="549.29999" cy="1170.2" fill="url(#E)" opacity=".5" r="5.6"/><circle cx="644.20001" cy="801.40002" fill="url(#F)" opacity=".5" r="5.6"/><circle cx="993.20001" cy="1007.5" fill="url(#G)" opacity=".5" r="5.6"/><circle cx="943.29999" cy="1095.6" fill="url(#H)" opacity=".5" r="5.6"/><circle cx="911.40002" cy="659.29999" fill="url(#I)" opacity=".5" r="5.6"/><circle cx="529" cy="839.90002" fill="url(#J)" opacity=".5" r="11.3"/><circle cx="542.70001" cy="1069.7" fill="url(#K)" opacity=".5" r="11.3"/><circle cx="863.59998" cy="1161" fill="url(#L)" opacity=".5" r="11.3"/><circle cx="1134.7" cy="889" fill="url(#M)" opacity=".5" r="11.3"/><circle cx="419.60001" cy="933" fill="url(#N)" opacity=".5" r="11.3"/><circle cx="208.5" cy="608.79999" fill="url(#O)" opacity=".5" r="11.3"/><circle cx="498.60001" cy="547" fill="url(#P)" opacity=".5" r="11.3"/><circle cx="480.89999" cy="686.29999" fill="url(#Q)" opacity=".5" r="11.3"/><circle cx="538" cy="444.89999" fill="url(#R)" opacity=".5" r="11.3"/><circle cx="341.10001" cy="248" fill="url(#S)" opacity=".5" r="11.3"/><circle cx="560.40002" cy="660.29999" fill="url(#T)" opacity=".5" r="7.1"/><circle cx="584.09998" cy="788.59998" fill="url(#U)" opacity=".5" r="7.1"/><circle cx="972" cy="267.20001" fill="url(#V)" opacity=".5" r="7.1"/><circle cx="360.60001" cy="841.90002" fill="url(#W)" opacity=".5" r="7.1"/><circle cx="384.5" cy="1069.7" fill="url(#X)" opacity=".5" r="7.1"/><circle cx="415" cy="1149.7" fill="url(#Y)" opacity=".5" r="7.1"/><circle cx="226.89999" cy="764.59998" fill="url(#Z)" opacity=".5" r="7.1"/><circle cx="704.79999" cy="240.89999" fill="url(#aa)" opacity=".5" r="7.1"/><circle cx="404.29999" cy="522.79999" fill="url(#ab)" opacity=".5" r="7.1"/><circle cx="631.40002" cy="709" fill="url(#ac)" opacity=".5" r="7.1"/><circle cx="1004.5" cy="623.59998" fill="url(#ad)" opacity=".5" r="11.3"/><circle cx="294.70001" cy="1083.7" fill="url(#ae)" opacity=".5" r="11.3"/><circle cx="210.5" cy="1163" fill="url(#af)" opacity=".5" r="11.3"/><circle cx="411.5" cy="167" fill="url(#ag)" opacity=".5" r="11.3"/><circle cx="872.79999" cy="188.2" fill="url(#ah)" opacity=".5" r="11.3"/><circle cx="197.3" cy="858.5" fill="url(#ai)" opacity=".5" r="11.3"/><circle cx="1028.9" cy="542.90002" fill="url(#aj)" opacity=".5" r="11.3"/><circle cx="1134.7" cy="701.90002" fill="url(#ak)" opacity=".5" r="11.3"/><circle cx="982" cy="437.29999" fill="url(#al)" opacity=".5" r="11.3"/><ellipse cx="707" cy="728.20001" fill="url(#am)" rx="19.200001" ry="5.6"/><ellipse cx="707" cy="728.20001" fill="url(#an)" rx="5.6" ry="19.200001"/><ellipse cx="324" cy="638.5" fill="url(#ao)" rx="29.700001" ry="8.6"/><ellipse cx="324" cy="638.5" fill="url(#ap)" rx="8.6" ry="29.700001"/><ellipse cx="195.3" cy="989.70001" fill="url(#aq)" rx="29.700001" ry="8.6"/><ellipse cx="195.3" cy="989.70001" fill="url(#ar)" rx="8.6" ry="29.700001"/><ellipse cx="249.5" cy="300.29999" fill="url(#as)" rx="29.700001" ry="8.6"/><ellipse cx="249.5" cy="300.29999" fill="url(#at)" rx="8.6" ry="29.700001"/><ellipse cx="844.40002" cy="773.20001" fill="url(#au)" rx="29.700001" ry="8.6"/><ellipse cx="844.40002" cy="773.20001" fill="url(#av)" rx="8.6" ry="29.700001"/><ellipse cx="839.20001" cy="270.60001" fill="url(#aw)" rx="29.700001" ry="8.6"/><ellipse cx="839.20001" cy="270.60001" fill="url(#ax)" rx="8.6" ry="29.700001"/><ellipse cx="847.79999" cy="562.29999" fill="url(#ay)" rx="29.700001" ry="8.6"/><ellipse cx="847.79999" cy="562.29999" fill="url(#az)" rx="8.6" ry="29.700001"/><ellipse cx="1143.3" cy="506.20001" fill="url(#aA)" rx="29.700001" ry="8.6"/><ellipse cx="1143.3" cy="506.20001" fill="url(#aB)" rx="8.6" ry="29.700001"/><ellipse cx="1118.3" cy="1092.3" fill="url(#aC)" rx="29.700001" ry="8.6"/><ellipse cx="1118.3" cy="1092.3" fill="url(#aD)" rx="8.6" ry="29.700001"/><ellipse cx="321.79999" cy="377.20001" fill="url(#aE)" rx="19.200001" ry="5.6"/><ellipse cx="321.79999" cy="377.20001" fill="url(#aF)" rx="5.6" ry="19.200001"/><ellipse cx="548.29999" cy="996.29999" fill="url(#aG)" rx="19.200001" ry="5.6"/><ellipse cx="548.29999" cy="996.29999" fill="url(#aH)" rx="5.6" ry="19.200001"/><ellipse cx="450.10001" cy="795.79999" fill="url(#aI)" rx="19.200001" ry="5.6"/><ellipse cx="450.10001" cy="795.79999" fill="url(#aJ)" rx="5.6" ry="19.200001"/><ellipse cx="649.79999" cy="565.70001" fill="url(#aK)" rx="19.200001" ry="5.6"/><ellipse cx="649.79999" cy="565.70001" fill="url(#aL)" rx="5.6" ry="19.200001"/><ellipse cx="353.5" cy="747.5" fill="url(#aM)" rx="19.200001" ry="5.6"/><ellipse cx="353.5" cy="747.5" fill="url(#aN)" rx="5.6" ry="19.200001"/><ellipse cx="712.5" cy="1141.6" fill="url(#aO)" rx="19.200001" ry="5.6"/><ellipse cx="712.5" cy="1141.6" fill="url(#aP)" rx="5.6" ry="19.200001"/><ellipse cx="979.59998" cy="889" fill="url(#aQ)" rx="19.200001" ry="5.6"/><ellipse cx="979.59998" cy="889" fill="url(#aR)" rx="5.6" ry="19.200001"/><ellipse cx="542" cy="297" fill="url(#aS)" rx="19.200001" ry="5.6"/><ellipse cx="542" cy="297" fill="url(#aT)" rx="5.6" ry="19.200001"/><ellipse cx="856.40002" cy="1023.2" fill="url(#aU)" rx="19.200001" ry="5.6"/><ellipse cx="856.40002" cy="1023.2" fill="url(#aV)" rx="5.6" ry="19.200001"/><circle cx="1023.5" cy="132.7" fill="url(#aW)" opacity=".5" r="11.3"/><circle cx="549.29999" cy="130.7" fill="url(#aX)" opacity=".5" r="5.6"/><circle cx="943.29999" cy="56.099998" fill="url(#aY)" opacity=".5" r="5.6"/><circle cx="863.59998" cy="121.5" fill="url(#aZ)" opacity=".5" r="11.3"/><ellipse cx="712.5" cy="102" fill="url(#a0)" rx="19.200001" ry="5.6"/><ellipse cx="712.5" cy="102" fill="url(#a1)" rx="5.6" ry="19.200001"/><ellipse cx="1069.3" cy="771.59998" fill="url(#a2)" rx="19.200001" ry="5.6"/><ellipse cx="1069.3" cy="771.59998" fill="url(#a3)" rx="5.6" ry="19.200001"/><ellipse cx="1134.7" cy="308.89999" fill="url(#a4)" rx="19.200001" ry="5.6"/><ellipse cx="1134.7" cy="308.89999" fill="url(#a5)" rx="5.6" ry="19.200001"/><ellipse cx="1109.7" cy="197.5" fill="url(#a6)" rx="19.200001" ry="5.6"/><ellipse cx="1109.7" cy="197.5" fill="url(#a7)" rx="5.6" ry="19.200001"/><circle cx="39.599998" cy="774.90002" fill="url(#a8)" opacity=".5" r="11.3"/><circle cx="98.5" cy="861.90002" fill="url(#a9)" opacity=".5" r="7.1"/><circle cx="88.5" cy="691.79999" fill="url(#ba)" opacity=".5" r="11.3"/><circle cx="47" cy="996.40002" fill="url(#bb)" opacity=".5" r="11.3"/><circle cx="127.2" cy="1073" fill="url(#bc)" opacity=".5" r="5.6"/><circle cx="306" cy="534.09998" fill="url(#bd)" opacity=".5" r="11.3"/><circle cx="419.60001" cy="1251" fill="url(#be)" opacity=".5" r="11.3"/><circle cx="874.79999" cy="1239.7" fill="url(#bf)" opacity=".5" r="11.3"/><circle cx="714.70001" cy="1278.6" fill="url(#bg)" opacity=".5" r="11.3"/><circle cx="751.5" cy="1368" fill="url(#bh)" opacity=".5" r="5.6"/><circle cx="498.60001" cy="1358.3" fill="url(#bi)" opacity=".5" r="11.3"/><circle cx="538" cy="1256.1" fill="url(#bj)" opacity=".5" r="11.3"/><circle cx="404.29999" cy="1334.1" fill="url(#bk)" opacity=".5" r="7.1"/><circle cx="982" cy="1248.6" fill="url(#bl)" opacity=".5" r="11.3"/><ellipse cx="847.79999" cy="1373.6" fill="url(#bm)" rx="29.700001" ry="8.6"/><ellipse cx="847.79999" cy="1373.6" fill="url(#bn)" rx="8.6" ry="29.700001"/><ellipse cx="321.79999" cy="1188.5" fill="url(#bo)" rx="19.200001" ry="5.6"/><ellipse cx="321.79999" cy="1188.5" fill="url(#bp)" rx="5.6" ry="19.200001"/><ellipse cx="649.79999" cy="1377" fill="url(#bq)" rx="19.200001" ry="5.6"/><ellipse cx="649.79999" cy="1377" fill="url(#br)" rx="5.6" ry="19.200001"/><circle cx="1333.8" cy="932" fill="url(#bs)" opacity=".5" r="5.6"/><circle cx="1363.7" cy="801.40002" fill="url(#bt)" opacity=".5" r="5.6"/><circle cx="1248.6" cy="839.90002" fill="url(#bu)" opacity=".5" r="11.3"/><circle cx="1262.2" cy="1069.7" fill="url(#bv)" opacity=".5" r="11.3"/><circle cx="1218.2" cy="547" fill="url(#bw)" opacity=".5" r="11.3"/><circle cx="1200.4" cy="686.29999" fill="url(#bx)" opacity=".5" r="11.3"/><circle cx="1257.5" cy="444.89999" fill="url(#by)" opacity=".5" r="11.3"/><circle cx="1279.9" cy="660.29999" fill="url(#bz)" opacity=".5" r="7.1"/><circle cx="1303.6" cy="788.59998" fill="url(#bA)" opacity=".5" r="7.1"/><circle cx="1350.9" cy="709" fill="url(#bB)" opacity=".5" r="7.1"/><ellipse cx="1267.8" cy="996.29999" fill="url(#bC)" rx="19.200001" ry="5.6"/><ellipse cx="1267.8" cy="996.29999" fill="url(#bD)" rx="5.6" ry="19.200001"/><ellipse cx="1369.3" cy="565.70001" fill="url(#bE)" rx="19.200001" ry="5.6"/><ellipse cx="1369.3" cy="565.70001" fill="url(#bF)" rx="5.6" ry="19.200001"/><ellipse cx="1261.5" cy="297" fill="url(#bG)" rx="19.200001" ry="5.6"/><ellipse cx="1261.5" cy="297" fill="url(#bH)" rx="5.6" ry="19.200001"/><g fill="#fff"><circle cx="946.90002" cy="776.5" r="2"/><circle cx="828.79999" cy="869.79999" r="2"/><circle cx="339.10001" cy="1021.2" r="2"/><circle cx="1023.5" cy="1172.2" r="2"/><circle cx="419.60001" cy="439.70001" r="2"/><circle cx="874.79999" cy="428.39999" r="2"/><circle cx="714.70001" cy="467.39999" r="2"/><circle cx="1030.9" cy="354.20001" r="2"/><circle cx="1040.2" cy="684.29999" r="2"/><circle cx="625.59998" cy="345" r="2"/><circle cx="553.20001" cy="199.5" r="2"/><circle cx="751.5" cy="556.70001" r="1"/><circle cx="777.40002" cy="382.79999" r="1"/><circle cx="420.60001" cy="331.5" r="1"/><circle cx="206.5" cy="377.10001" r="1"/><circle cx="614.29999" cy="932" r="1"/><circle cx="726.20001" cy="900.29999" r="1"/><circle cx="308" cy="931" r="1"/><circle cx="818.09998" cy="990.70001" r="1"/><circle cx="695.79999" cy="1015.6" r="1"/><circle cx="549.29999" cy="1170.2" r="1"/><circle cx="644.20001" cy="801.40002" r="1"/><circle cx="993.20001" cy="1007.5" r="1"/><circle cx="943.29999" cy="1095.6" r="1"/><circle cx="911.40002" cy="659.29999" r="1"/><circle cx="529" cy="839.90002" r="2"/><circle cx="542.70001" cy="1069.7" r="2"/><circle cx="863.59998" cy="1161" r="2"/><circle cx="1134.7" cy="889" r="2"/><circle cx="419.60001" cy="933" r="2"/><circle cx="208.5" cy="608.79999" r="2"/><circle cx="498.60001" cy="547" r="2"/><circle cx="480.89999" cy="686.29999" r="2"/><circle cx="538" cy="444.89999" r="2"/><circle cx="341.10001" cy="248" r="2"/><circle cx="560.40002" cy="660.29999" r="1.3"/><circle cx="584.09998" cy="788.59998" r="1.3"/><circle cx="972" cy="267.20001" r="1.3"/><circle cx="360.60001" cy="841.90002" r="1.3"/><circle cx="384.5" cy="1069.7" r="1.3"/><circle cx="415" cy="1149.7" r="1.3"/><circle cx="226.89999" cy="764.59998" r="1.3"/><circle cx="704.79999" cy="240.89999" r="1.3"/><circle cx="404.29999" cy="522.79999" r="1.3"/><circle cx="631.40002" cy="709" r="1.3"/><circle cx="1004.5" cy="623.59998" r="2"/><circle cx="294.70001" cy="1083.7" r="2"/><circle cx="210.5" cy="1163" r="2"/><circle cx="411.5" cy="167" r="2"/><circle cx="872.79999" cy="188.2" r="2"/><circle cx="197.3" cy="858.5" r="2"/><circle cx="1028.9" cy="542.90002" r="2"/><circle cx="1134.7" cy="701.90002" r="2"/><circle cx="982" cy="437.29999" r="2"/><circle cx="707" cy="728.20001" r="2.2"/><circle cx="324" cy="638.5" r="3.4"/><circle cx="195.3" cy="989.70001" r="3.4"/><circle cx="249.5" cy="300.29999" r="3.4"/><circle cx="844.40002" cy="773.20001" r="3.4"/><circle cx="839.20001" cy="270.60001" r="3.4"/><circle cx="847.79999" cy="562.29999" r="3.4"/><circle cx="1143.3" cy="506.20001" r="3.4"/><circle cx="1118.3" cy="1092.3" r="3.4"/><circle cx="321.79999" cy="377.20001" r="2.2"/><circle cx="548.29999" cy="996.29999" r="2.2"/><circle cx="450.10001" cy="795.79999" r="2.2"/><circle cx="649.79999" cy="565.70001" r="2.2"/><circle cx="353.5" cy="747.5" r="2.2"/><circle cx="712.5" cy="1141.6" r="2.2"/><circle cx="979.59998" cy="889" r="2.2"/><circle cx="542" cy="297" r="2.2"/><circle cx="856.40002" cy="1023.2" r="2.2"/><circle cx="1023.5" cy="132.7" r="2"/><circle cx="549.29999" cy="130.7" r="1"/><circle cx="943.29999" cy="56.099998" r="1"/><circle cx="863.59998" cy="121.5" r="2"/><circle cx="712.5" cy="102" r="2.2"/><circle cx="1069.3" cy="771.59998" r="2.2"/><circle cx="1134.7" cy="308.89999" r="2.2"/><circle cx="1109.7" cy="197.5" r="2.2"/><circle cx="39.599998" cy="774.90002" r="2"/><circle cx="98.5" cy="861.90002" r="1.3"/><circle cx="88.5" cy="691.79999" r="2"/><circle cx="47" cy="996.40002" r="2"/><circle cx="127.2" cy="1073" r="1"/><circle cx="306" cy="534.09998" r="2"/><circle cx="419.60001" cy="1251" r="2"/><circle cx="874.79999" cy="1239.7" r="2"/><circle cx="714.70001" cy="1278.6" r="2"/><circle cx="751.5" cy="1368" r="1"/><circle cx="498.60001" cy="1358.3" r="2"/><circle cx="538" cy="1256.1" r="2"/><circle cx="404.29999" cy="1334.1" r="1.3"/><circle cx="982" cy="1248.6" r="2"/><circle cx="847.79999" cy="1373.6" r="3.4"/><circle cx="321.79999" cy="1188.5" r="2.2"/><circle cx="649.79999" cy="1377" r="2.2"/><circle cx="1333.8" cy="932" r="1"/><circle cx="1363.7" cy="801.40002" r="1"/><circle cx="1248.6" cy="839.90002" r="2"/><circle cx="1262.2" cy="1069.7" r="2"/><circle cx="1218.2" cy="547" r="2"/><circle cx="1200.4" cy="686.29999" r="2"/><circle cx="1257.5" cy="444.89999" r="2"/><circle cx="1279.9" cy="660.29999" r="1.3"/><circle cx="1303.6" cy="788.59998" r="1.3"/><circle cx="1350.9" cy="709" r="1.3"/><circle cx="1267.8" cy="996.29999" r="2.2"/><circle cx="1369.3" cy="565.70001" r="2.2"/><circle cx="1261.5" cy="297" r="2.2"/></g></g><g stroke-width="1.2983" transform="matrix(.77023524 0 0 .77023524 57.441189 57.441189)"><use stroke-width="1.2983" transform="matrix(-.99882493 .04846392 .04846392 .99882493 485.49854 58.913709)" xlink:href="#bI"/><g id="bI" opacity=".9" stroke-width="1.53254" transform="matrix(.838698 .11941552 -.11941552 .838698 -163.74334 -82.704246)"><g clip-path="url(#i)" opacity=".9" stroke-width="1.53254" transform="matrix(.23121314 -.97290312 .97290312 .23121314 337.461125 418.085762)"><path d="m453.01767 134.17177c-5.62057-21.47793-13.69575-38.901826-24.89649-57.472651l-9.95507 6.392578c.93965-4.956144 1.59211-9.502703 2.38476-14.671875-18.38535-19.46164-41.76211-37.522062-62.68173-46.464744-20.63974-8.453473-38.0578-9.128043-57.73633-7.484375-9.22206 15.323155-17.93957 31.088455-26.90565 46.649594-13.83831 23.770808-24.70917 42.085733-42.32677 62.041813-13.51088 5.51404-59.56165 24.19163-74.52539 29.25976-42.25688 14.31012-65.404249 43.58173-103.949219 88.31446-12.185865 14.16194-20.57558 34.84694-6.876953 50.25976l.09375.10157.0957.0996c9.197315 9.71836 23.178236 11.64255 37.837891 6.41992l-67.09375 62.00586c-15.4530408 15.49312-21.4518343 35.43569-9.8603502 50.83985 12.4488282 11.17608 26.7227832 9.24192 36.6308602 5.79785-12.443546 15.34733-26.031797 37.70584-6.069337 53.30077 21.467622 12.95682 46.772533.0192 61.28906-13.11721.267043 8.68589 5.719208 19.54211 13.941458 24.79686 29.39254 9.82455 46.68379-1.79464 63.1309-19.79787 2.01754 6.39391 6.30789 13.08782 13.17578 16.68751 13.06645 6.62955 32.67655 1.66533 44.00391-14.10937 28.39001-39.53646 60.3467-79.81239 89.198-123.87092 28.8513-44.05854 54.59721-91.89968 70.56567-146.56758 15.33814-20.5811 46.11758-40.28401 60.5293-59.41116z" fill="#8aa8a8" opacity="1" stroke-width="1.53254"/><path d="m241.60415 138.25317c-10.062 4.12-61.61 25.173-79.455 31.217-37.145 12.579-57.377 38.092-96.114996 83.0475-5.557829 6.41906-14.16713 18.74085-7.223 26.3075 3.848 4.066 14.190339 6.65817 29.5075-3.7575l80.505496-41.647c-11.54244 22.09337-26.06684 34.8832-46.028 52.4605l-94.098 86.962c-11.929 11.024-11.736 21.742-8.95 25.441 8.874046 7.78862 24.679204-1.88598 31.364-6.391 29.733004-20.365 57.435-40.716 82.341-65.5295 7.95096-2.90324 17.57977-4.77468 23.88-10.8335 6.14843-5.91284 11.4745-22.874 11.4745-22.874s8.22596 23.6127 3.0095 33.559c-4.93173 9.40341-17.93797 12.68171-27.718 15.698-24.372 32.684-55.332996 57.576-83.959996 83.508-5.463199 5.34613-21.948768 22.49791-12.329004 29.611 4.902004 3.546 21.164004 4.119 37.998004-11.39 33.013996-30.417 65.221996-60.634 90.243996-96.4785 6.71994-2.78222 14.23188-6.27532 19.453-11.7685 6.11002-6.4284 12.599-23.4345 12.599-23.4345s7.07817 23.25305 2.403 33.3825c-3.89898 8.44771-14.29849 12.54863-22.486 16.537-16.473 29.911-40.153 55.83-65.37 82.955-6.43635 7.21053-8.75452 15.99216-.64 21.179 6.76 4.2 19.635 4.864 31.433-7.312 13.606-14.042 25.89036-28.4441 36.664-44.297 10.91547-16.06159 18.75-34.088 28.054-51.0595 6.10262-2.22615 13.10248-4.55832 18.212-9.0025 6.00481-5.22289 13.4445-19.73 13.4445-19.73s5.5659 21.70332.7685 30.774c-3.60435 6.81491-12.62188 9.74965-19.436 12.536-7.137 16.201-17.16053 30.49233-25.623 45.804-3.58267 6.48235-7.224 13.13-10.648 19.502-3.35618 6.33508-4.58805 15.40165 2.093 18.905 4.825 2.448 13.382 2.178 21.13-8.612 57.44-79.992 126.521-160.277 157.107-264.986 2.243-7.679 7.14-11.461 12.994-16.895 14.76587-14.45286 34.2186-26.24131 45.258-41.259-2.444-9.527-6.436-19.066-11.633-28.252-11.087 7.119-23.137 13.666-32.795 18.957 6.175-14.902 9.925-30.610997 12.399-46.745997-14.28734-15.250396-31.44986-27.837712-50.48825-35.771746-12.41165-5.172415-26.67585-8.036537-39.73475-6.955249 0 0-32.35165 58.365561-51.752 85.420002-5.3867 7.51193-17.854 21.21899-17.854 21.21899z" fill="#d9f2f2" stroke-width="1.53254"/><path d="m321.69922 22.693359c-3.7475-.219527-7.49871-.196533-11.2168.111329a8.8400534 8.8400534 0 0 0 -7.00195 4.523437s-32.6013 58.613044-51.20508 84.556645c-4.15878 5.79955-13.93531 16.74206-15.91797 18.95507-11.83284 4.83911-60.64065 24.70374-77.04492 30.25977v-.002c-39.6605 13.43086-61.322629 40.79471-99.974609 85.65039-3.130819 3.61715-7.16497 8.75239-9.783203 15.14062-1.310757 3.19812-2.304686 6.79055-2.160157 10.84961s1.745072 8.62006 4.904297 12.0625a8.8400534 8.8400534 0 0 0 .0918.0996c7.856973 8.30209 22.972726 9.21543 40.021484-1.99805l46.578121-24.0957c-6.41165 6.5118-13.51828 12.9397-22.03515 20.43945a8.8400534 8.8400534 0 0 0 -.1582.14258l-94.099614 86.96289c-7.03051 6.49714-11.020643 13.42303-12.583985 19.87891-1.5633415 6.45588-1.2274587 12.32357 2.574219 17.37109a8.8400534 8.8400534 0 0 0 1.230469 1.32422c7.755932 6.80727 17.903918 5.61739 25.18164 3.13867 7.277723-2.47871 13.363277-6.42384 16.951172-8.84179a8.8400534 8.8400534 0 0 0 .05469-.0371c29.256116-20.03837 56.844111-40.33057 81.931641-65.02149 6.97682-2.30982 17.07656-4.23625 25.42383-12.26367.22647-.21779.38287-.46535.59961-.6875-.0335.15865-.0392.83338-.0723.89649-2.35567 4.49158-12.32956 8.22253-22.49414 11.35742a8.8400534 8.8400534 0 0 0 -4.48047 3.16406c-23.51309 31.53217-53.917184 56.06871-82.808592 82.24023a8.8400534 8.8400534 0 0 0 -.248047.23243c-2.932187 2.86935-8.787553 8.7217-13.164062 15.82421-2.188255 3.55126-4.170323 7.4268-4.675781 12.32032-.505459 4.89352 1.696862 11.38528 6.4375 14.89062a8.8400534 8.8400534 0 0 0 .07422.0547c6.028264 4.36071 12.942727 4.64931 21.433594 2.95703s18.234233-6.25542 27.734375-15.00781a8.8400534 8.8400534 0 0 0 .002 0c32.408742-29.85936 64.460182-59.9124 89.949222-95.81055 6.52838-2.77495 14.0367-6.40101 20.16406-12.84765.2404-.25293.42856-.54148.66016-.80079-.043.18662-.0439.85552-.0899.95508-1.84891 4.00594-9.63986 8.06072-18.33203 12.29492a8.8400534 8.8400534 0 0 0 -3.87109 3.6836c-15.78705 28.66548-38.91943 54.11157-64.10352 81.20117a8.8400534 8.8400534 0 0 0 -.11914.13086c-4.05426 4.54191-7.3346 9.84024-7.97852 16.36719-.64391 6.52694 2.88785 14.1265 9.17383 18.14453a8.8400534 8.8400534 0 0 0 .0957.0605c10.67742 6.63391 28.29723 5.93139 42.44336-8.66796 13.85787-14.30194 26.49664-29.10275 37.62695-45.48047 2.75002-4.04653 5.27112-8.17509 7.67383-12.33008-2.45676 4.10745-4.91622 8.09367-7.30078 12.4082-3.59419 6.50319-7.25027 13.17895-10.69727 19.59375a8.8400534 8.8400534 0 0 0 -.0234.0449c-2.28517 4.31347-3.9149 9.29937-3.74219 14.92578.17272 5.62642 3.22267 12.63513 9.53907 15.94727a8.8400534 8.8400534 0 0 0 .10547.0547c8.82083 4.47531 22.80485 1.89795 32.31054-11.33985 57.1159-79.54064 127.16269-160.68194 158.41211-267.66211 1.49126-5.10536 4.36734-7.18206 10.52344-12.89648a8.8400534 8.8400534 0 0 0 .16992-.16211c13.70945-13.41882 33.52828-25.10796 46.19531-42.33984a8.8400534 8.8400534 0 0 0 1.44141-7.43164c-2.66676-10.39537-6.96878-20.62605-12.50195-30.406253a8.8400534 8.8400534 0 0 0 -12.46875-3.085938c-4.01334 2.576975-8.21661 5.006274-12.38086 7.427731 2.33484-8.714481 4.13223-17.544577 5.49609-26.439449a8.8400534 8.8400534 0 0 0 -2.28515-7.382813c-15.042924-16.056811-33.177714-29.401261-53.539074-37.886629-10.17129-4.238771-21.39748-7.059784-32.64648-7.71875zm-78.80078 337.599611c-.0435.18632-.0877.8905-.125.96094-1.24575 2.35538-7.63885 5.49102-14.96875 8.48828a8.8400534 8.8400534 0 0 0 -4.74414 4.61914c-4.70749 10.686-10.98693 21.01499-17.34766 31.625 6.85545-11.98809 12.61135-24.12758 18.74609-35.58399 5.4812-1.95421 11.87355-4.3063 17.7168-9.38867.26017-.22629.47132-.48772.72266-.7207z" fill="url(#b)" opacity="1"/><ellipse cx="346.88019" cy="56.941933" fill="#8aa8a8" filter="url(#c)" opacity=".5" rx="50.558136" ry="18.738329" stroke-width="1.53254" transform="matrix(.86369628 .50401264 -.50401264 .86369628 -18.109003 29.485247)"/><path d="m259.45815 117.03418c30.692 2.6605 52.68194 5.07614 70.28737 22.21725 11.54567 11.24116 15.79663 45.68874 15.79663 45.68874-7.707-19.39-26.96-40.824-72.317-48.174 19.162 13.713 24.114 55.327 24.114 55.327-7.863-20.571-27.13-38.098-55.735-53.84l-10.70376-15.09106z" fill="#8aa8a8" filter="url(#h)" opacity=".5" stroke-width="1.53254"/></g><path d="m423.57487 115.23742c-1.05711 4.60303-1.9028 9.31268-2.6405 14.19401 12.77567 12.51508 26.09884 24.64231 39.16523 36.96336 19.92708 18.95943 35.23164 33.76966 50.57353 55.52396 2.24073 14.41969 9.76469 63.54115 11.23567 79.27123 4.15201 44.4205 27.2785 73.70871 61.88698 121.55198 10.96065 15.13008 29.14538 28.07511 47.30784 18.31133l.12049-.0677.11903-.0701c11.58155-6.70107 16.68618-19.85828 14.99458-35.32823l44.81274 79.61229c11.50034 18.61651 29.51533 29.0647 47.18217 21.34896 13.75156-9.52744 15.1692-23.86206 14.10934-34.29797 12.05433 15.65486 30.66548 34.04354 50.45341 18.22777 17.5693-17.89011 10.8331-45.50072 1.40908-62.66119 8.51226 1.74849 20.33494-1.04579 27.34839-7.83027 16.35426-26.3245 9.04884-45.83351-4.66376-65.99751 6.68713-.48452 14.19164-3.1109 19.28174-8.96039 9.47103-11.17954 9.17543-31.40608-3.55278-46.07381-31.90097-36.76205-63.69714-77.16454-99.89099-115.42094-36.19386-38.25639-76.78653-74.36713-126.28093-102.542801-16.47702-19.681131-28.52849-54.181911-43.80515-72.6255523-22.19548.502295-41.01438 4.3300273-61.67173 10.9334383l3.91761 11.163367c-4.60458-2.060103-8.87709-3.74612-13.72292-5.712471-23.18519 13.387365-46.16136 31.954802-59.6986 50.239883-9.74743 13.594422-14.81913 26.438236-17.99047 40.247356zm17.52622 2.51497c2.59067-11.35713 8.11414-22.664985 15.02838-32.18445 12.12096-16.688038 28.33518-30.475278 46.47574-40.849368 15.12576 6.137573 29.54185 13.419479 42.61229 22.87269-2.91457-10.619635-6.49765-23.858731-10.86028-36.291302 10.13869-2.932246 20.34214-4.610365 30.17607-4.785375 12.05829 14.212542 19.02849 35.863385 29.67565 53.570813 3.93323 6.951787 6.48193 12.591024 13.43423 16.54873 94.79973 53.967252 156.9353 139.739492 221.47882 214.118172 8.70618 10.03284 6.99142 18.42154 3.49416 22.54978-4.95316 5.68999-13.49018 2.39374-18.8776-2.33625-5.40766-4.80451-11.03357-9.88272-16.51191-14.86711-12.94012-11.77341-24.52541-24.82946-38.63723-35.51894-1.13534-7.2737-1.90633-16.72717-7.70319-21.80954-7.71566-6.76467-30.1175-6.36655-30.1175-6.36655s12.39459 10.59134 16.08755 17.64103c3.14237 5.99861 3.79215 13.34879 4.54697 19.80075 14.36041 12.97591 30.08589 24.76658 43.18846 39.09991 12.93231 14.14709 24.10564 29.42905 34.62124 45.91305 9.11821 14.29355 5.49424 26.66452-.15495 32.27024-6.92246 6.69537-14.92924 2.41116-20.45621-5.51794-20.55948-30.80533-40.30089-59.83762-65.5926-82.78004-1.98724-8.88782-3.57257-19.95408-10.88987-25.70062-8.774-6.89054-33.03414-5.3794-33.03414-5.3794s15.04438 10.24368 19.88587 17.67446c4.13714 6.34974 5.79971 14.46614 6.95279 21.64728 29.08779 32.63166 51.03912 70.95371 72.99862 110.1059 11.1965 19.96372 6.87775 35.65234 2.29443 39.60163-9.14456 7.71445-22.01853-12.2889-25.95663-18.84015-18.61037-33.84708-35.66893-69.72542-61.83214-100.99396-.67328-10.21242-.85702-23.62334-8.86534-30.59563-8.47066-7.37481-33.3447-4.83287-33.3447-4.83287s15.26916 9.10328 19.60018 16.45224c4.43794 7.53038 4.03264 17.33194 5.01885 25.73872 18.38252 29.9683 31.77665 61.62586 44.71515 95.26182 2.83733 7.54527 8.59522 25.15828-1.03415 31.99103-4.24292 1.85525-14.71381-.43402-22.68094-14.58866l-62.8494-111.65677c-12.48571-23.48435-21.57136-40.57186-40.39729-56.9098l21.90589 87.95407c6.5919 17.31033 1.67701 26.77303-3.16851 29.57664-8.96718 5.00646-18.96377-6.21799-23.92384-13.10938-34.78058-48.08257-54.92373-73.66546-58.57346-112.71235-1.75422-18.75888-10.31797-73.77789-11.99985-84.51982 0 0-10.45248-15.30011-16.51538-22.27769-21.83571-25.12998-71.14147-70.1003-71.14147-70.1003.24592-1.61938.55715-3.24225.92724-4.86469z" fill="#8aa8a8" opacity="1" stroke-width="1.53254"/></g></g><path d="m524.57281 13.441619h150v150h-150z" fill="url(#a)"/></svg>