<svg height="500" viewBox="0 0 500 500" width="500" xmlns="http://www.w3.org/2000/svg" xmlns:xlink="http://www.w3.org/1999/xlink"><filter id="a" color-interpolation-filters="sRGB" height="1.005903" width="1.006199" x="-.0031" y="-.002951"><feGaussianBlur stdDeviation=".56338952"/></filter><pattern id="b" height="150.00006" patternTransform="translate(589.09545 209.1153)" patternUnits="userSpaceOnUse" width="150.00009"><use transform="translate(-589.09545 -18.903577)" xlink:href="#l"/></pattern><linearGradient id="c" gradientUnits="userSpaceOnUse" spreadMethod="reflect" x1="443.48822" x2="358.52411" y1="-40.300194" y2="-62.865986"><stop offset="0" stop-color="#77462c"/><stop offset="1" stop-color="#724227"/></linearGradient><filter id="d" color-interpolation-filters="sRGB" height="1.955812" width="1.470538" x="-.235269" y="-.477906"><feGaussianBlur stdDeviation="9.874773"/></filter><clipPath id="e"><path d="m465.85535 163.97371c-2.83457-22.01948-8.6209-40.33121-17.36092-60.17923l-10.68925 5.07031c1.56425-4.79577 2.79141-9.221943 4.23705-14.247746-15.75227-21.648152-36.63394-42.543319-56.24174-54.081776-19.39262-11.017541-36.5823-13.908731-56.30972-14.789008-11.10158 14.021429-21.75914 28.545759-32.63718 42.835884-16.75783 21.811127-29.87642 38.589526-49.89598 56.134956-14.10394 3.74532-62.16124 16.3953-77.64928 19.513-43.73722 8.80221-70.429806 34.88157-114.366656 74.33136-13.893019 12.4916-24.853097 31.93724-13.232715 48.97174l.08002.11276.08221.11099c7.882329 10.81232 21.503527 14.50441 36.709672 11.19469l-74.4559765 52.93955c-17.3033255 13.39508-25.7973015 32.4094-16.2657415 49.16648 10.9213031 12.67293 25.325374 12.5756 35.591873 10.42371-14.2998236 13.63441-30.6294582 34.07669-12.819661 52.09094 19.639222 15.5897 46.387894 5.9861 62.461698-5.19101-.843253 8.64899 3.179364 20.11207 10.664041 26.37285 27.898986 13.49406 46.531286 4.17577 65.140786-11.58209 1.18535 6.59905 4.58665 13.78561 10.93919 18.23207 12.1139 8.24234 32.19708 5.82047 45.44437-8.38022 33.20194-35.59151 70.03576-71.46141 104.27213-111.47918 34.23638-40.0178 65.87531-84.18344 88.68762-136.36743 17.83846-18.45616 50.88002-34.07134 67.61416-51.2036z"/></clipPath><filter id="f" color-interpolation-filters="sRGB" height="1.066584" width="1.043595" x="-.021797" y="-.033292"><feGaussianBlur stdDeviation="1.0411997"/></filter><linearGradient id="g" gradientTransform="matrix(.20970969 -.20952312 -.20951986 -.20971296 -286.17583 182.52131)" gradientUnits="userSpaceOnUse" x1="-669.59882" x2="-621.9035" xlink:href="#h" y1="451.61246" y2="403.96036"/><linearGradient id="h"><stop offset="0" stop-color="#cbcbcb"/><stop offset=".40905663" stop-color="#d1d0cc"/><stop offset=".5" stop-color="#9e9e9c"/><stop offset=".59469599" stop-color="#b8b7b5"/><stop offset="1" stop-color="#a9aaa5"/></linearGradient><linearGradient id="i" gradientTransform="matrix(.20970969 -.20952312 -.20951986 -.20971296 -286.17583 182.52131)" gradientUnits="userSpaceOnUse" x1="-361.68674" x2="-275.28897" xlink:href="#h" y1="459.03134" y2="371.93448"/><g transform="translate(0 -13.469589)"><use transform="matrix(-.99882493 .04846392 .04846392 .99882493 480.5699 -21.217655)" xlink:href="#j"/><g id="j" clip-path="url(#e)" stroke-width="1.17453" transform="matrix(.81754263 -.23771806 .23771806 .81754263 -57.176263 104.05804)"><g transform="matrix(.99182876 .12757633 -.12757633 .99182876 33.656536 -26.896042)"><path d="m453.01767 134.17177c-5.62057-21.47793-13.69575-38.901826-24.89649-57.472651l-9.95507 6.392578c.93965-4.956144 1.59211-9.502703 2.38476-14.671875-18.38535-19.46164-41.76211-37.522062-62.68173-46.464744-20.63974-8.453473-38.0578-9.128043-57.73633-7.484375-9.22206 15.323155-17.93957 31.088455-26.90565 46.649594-13.83831 23.770808-24.70917 42.085733-42.32677 62.041813-13.51088 5.51404-59.56165 24.19163-74.52539 29.25976-42.25688 14.31012-65.404249 43.58173-103.949219 88.31446-12.185865 14.16194-20.57558 34.84694-6.876953 50.25976l.09375.10157.0957.0996c9.197315 9.71836 23.178236 11.64255 37.837891 6.41992l-67.09375 62.00586c-15.4530408 15.49312-21.4518343 35.43569-9.8603502 50.83985 12.4488282 11.17608 26.7227832 9.24192 36.6308602 5.79785-12.443546 15.34733-26.031797 37.70584-6.069337 53.30077 21.467622 12.95682 46.772533.0192 61.28906-13.11721.267043 8.68589 5.719208 19.54211 13.941458 24.79686 29.39254 9.82455 46.68379-1.79464 63.1309-19.79787 2.01754 6.39391 6.30789 13.08782 13.17578 16.68751 13.06645 6.62955 32.67655 1.66533 44.00391-14.10937 28.39001-39.53646 60.3467-79.81239 89.198-123.87092 28.8513-44.05854 54.59721-91.89968 70.56567-146.56758 15.33814-20.5811 46.11758-40.28401 60.5293-59.41116z" fill="#54301c" stroke-width="1.17453"/><path d="m241.60415 138.25317c-10.062 4.12-61.61 25.173-79.455 31.217-37.145 12.579-57.377 38.092-96.114996 83.0475-5.557829 6.41906-14.16713 18.74085-7.223 26.3075 3.848 4.066 14.190339 6.65817 29.5075-3.7575l80.505496-41.647c-11.54244 22.09337-26.06684 34.8832-46.028 52.4605l-94.098 86.962c-11.929 11.024-11.736 21.742-8.95 25.441 8.874046 7.78862 24.679204-1.88598 31.364-6.391 29.733004-20.365 57.435-40.716 82.341-65.5295 7.95096-2.90324 17.57977-4.77468 23.88-10.8335 6.14843-5.91284 11.4745-22.874 11.4745-22.874s8.22596 23.6127 3.0095 33.559c-4.93173 9.40341-17.93797 12.68171-27.718 15.698-24.372 32.684-55.332996 57.576-83.959996 83.508-5.463199 5.34613-21.948768 22.49791-12.329004 29.611 4.902004 3.546 21.164004 4.119 37.998004-11.39 33.013996-30.417 65.221996-60.634 90.243996-96.4785 6.71994-2.78222 14.23188-6.27532 19.453-11.7685 6.11002-6.4284 12.599-23.4345 12.599-23.4345s7.07817 23.25305 2.403 33.3825c-3.89898 8.44771-14.29849 12.54863-22.486 16.537-16.473 29.911-40.153 55.83-65.37 82.955-6.43635 7.21053-8.75452 15.99216-.64 21.179 6.76 4.2 19.635 4.864 31.433-7.312 13.606-14.042 25.89036-28.4441 36.664-44.297 10.91547-16.06159 18.75-34.088 28.054-51.0595 6.10262-2.22615 13.10248-4.55832 18.212-9.0025 6.00481-5.22289 13.4445-19.73 13.4445-19.73s5.5659 21.70332.7685 30.774c-3.60435 6.81491-12.62188 9.74965-19.436 12.536-7.137 16.201-17.16053 30.49233-25.623 45.804-3.58267 6.48235-7.224 13.13-10.648 19.502-3.35618 6.33508-4.58805 15.40165 2.093 18.905 4.825 2.448 13.382 2.178 21.13-8.612 57.44-79.992 126.521-160.277 157.107-264.986 2.243-7.679 7.14-11.461 12.994-16.895 14.76587-14.45286 34.2186-26.24131 45.258-41.259-2.444-9.527-6.436-19.066-11.633-28.252-11.087 7.119-23.137 13.666-32.795 18.957 6.175-14.902 9.925-30.610997 12.399-46.745997-14.28734-15.250396-31.44986-27.837712-50.48825-35.771746-12.41165-5.172415-26.67585-8.036537-39.73475-6.955249 0 0-32.35165 58.365561-51.752 85.420002-5.3867 7.51193-17.854 21.21899-17.854 21.21899z" fill="url(#c)" stroke-width="1.17453"/><ellipse cx="344.29526" cy="64.381851" fill="#5f3620" filter="url(#d)" opacity=".5" rx="50.366776" ry="24.795092" transform="matrix(1.0352245 .55483134 -.55483134 1.0352245 -79.177957 -.052366)"/><path id="k" d="m321.79102 21.128906c-3.81483-.223472-7.64101-.201234-11.43946.113282a10.406924 10.406924 0 0 0 -8.24218 5.326171s-32.64484 58.655641-51.10743 84.402341c-3.95801 5.51958-13.32202 16.03407-15.57812 18.5586-12.13327 4.96042-60.45967 24.6148-76.61328 30.08593-40.10052 13.57988-62.018313 41.26536-100.644534 86.0918-3.195135 3.69025-7.325142 8.91377-10.060547 15.58789-1.367703 3.33706-2.432852 7.1326-2.277344 11.5s1.904925 9.34715 5.316406 13.06446a10.406924 10.406924 0 0 0 .107422.11718c8.559926 9.04487 24.516328 9.68755 41.902344-1.69531l37.375003-19.33398c-4.45336 4.13477-9.24902 8.40285-14.60938 13.12304a10.406924 10.406924 0 0 0 -.18554.16797l-94.099614 86.96289c-7.219457 6.67175-11.396514 13.86106-13.0429691 20.66016-1.6464549 6.79909-1.3848581 13.06727 2.8437501 18.68164a10.406924 10.406924 0 0 0 1.449219 1.56055c8.344198 7.32358 19.198069 6.00744 26.720703 3.44531s13.688903-6.58007 17.320312-9.02735a10.406924 10.406924 0 0 0 .06641-.043c24.877828-17.03955 48.513602-34.41615 70.541012-54.41016-22.01439 26.49781-48.722326 48.39763-74.380856 71.64062a10.406924 10.406924 0 0 0 -.291016.2754c-2.967741 2.90414-8.888485 8.79567-13.402344 16.12109-2.256929 3.66271-4.35462 7.69667-4.90039 12.98047-.54577 5.28379 1.909821 12.50104 7.064453 16.3125a10.406924 10.406924 0 0 0 .08789.0645c6.662321 4.81937 13.864535 4.97724 22.658203 3.22461 8.793667-1.75263 18.798109-6.46332 28.490234-15.39258 25.800485-23.77093 51.404265-47.72426 73.712895-74.67969-14.39427 20.79615-32.33039 40.4685-51.54297 61.13477a10.406924 10.406924 0 0 0 -.14258.15625c-4.20245 4.70793-7.67462 10.23578-8.36719 17.25586-.69256 7.02007 3.20766 15.3486 9.88867 19.61914a10.406924 10.406924 0 0 0 .11133.0703c11.37178 7.06531 29.83416 6.12069 44.39649-8.9082 9.15019-9.4434 17.72008-19.16528 25.74218-29.36914-.30721.5698-.63917 1.16243-.94336 1.72851a10.406924 10.406924 0 0 0 -.0293.0547c-2.39278 4.51658-4.10813 9.70119-3.92383 15.70508s3.53504 13.69839 10.3789 17.28711a10.406924 10.406924 0 0 0 .12305.0645c9.52909 4.83465 24.47573 1.84939 34.29297-11.82226 57.05845-79.46065 127.27557-160.754 158.64258-268.13672 1.35801-4.6492 3.87629-6.42338 10.08594-12.1875a10.406924 10.406924 0 0 0 .19922-.19141c13.5222-13.23555 33.40774-24.90495 46.36328-42.52929a10.406924 10.406924 0 0 0 1.69531-8.75c-2.70625-10.54928-7.0635-20.90355-12.65625-30.789068a10.406924 10.406924 0 0 0 -14.679682-3.632872c-2.93171 1.882462-6.0165 3.627484-9.06055 5.435547 1.88137-7.57088 3.39465-15.212322 4.57227-22.892578a10.406924 10.406924 0 0 0 -2.69141-8.691407c-15.17683-16.199851-33.48422-29.678629-54.08007-38.261718-10.32419-4.302485-21.70409-7.165071-33.15625-7.835938z" fill="url(#b)"/><path d="m259.45815 117.03418c30.692 2.6605 52.68194 5.07614 70.28737 22.21725 11.54567 11.24116 15.79663 45.68874 15.79663 45.68874-7.707-19.39-26.96-40.824-72.317-48.174 19.162 13.713 24.114 55.327 24.114 55.327-7.863-20.571-27.13-38.098-55.735-53.84l-10.70376-15.09106z" fill="#54301c" filter="url(#f)" stroke-width="1.17453"/><use filter="url(#a)" xlink:href="#k"/></g><path d="m343.88407 26.879573c-4.6887-.566985-9.46118-.914266-14.39304-1.134336-11.10156 14.021415-21.7601 28.547046-32.63814 42.837158-16.75781 21.811108-29.87639 38.589235-49.89593 56.134645-14.10393 3.74531-62.1614 16.39561-77.64942 19.51331-43.73718 8.8022-70.429147 34.88203-114.365951 74.33178-13.893006 12.49158-24.85353 31.93689-13.233161 48.97137l.08041.11211.08268.11241c7.882321 10.81229 21.503215 14.50307 36.70935 11.19334l-74.455299 52.94094c-17.303308 13.39506-25.798876 32.4092-16.267324 49.16627 10.9212919 12.67292 25.325385 12.5747 35.591873 10.4228-14.29981 13.63442-30.6278423 34.07747-12.818063 52.0917 19.639203 15.58968 46.387897 5.98616 62.461685-5.19094-.843252 8.64898 3.178735 20.11107 10.663407 26.37184 27.898953 13.49405 46.531463 4.17635 65.140953-11.58149 1.18534 6.59904 4.5855 13.78458 10.93802 18.23102 12.1139 8.24235 32.19901 5.82194 45.44628-8.37875 33.20191-35.59147 70.0359-71.46246 104.27225-111.48019 34.23633-40.01774 65.87328-84.18273 88.68556-136.36668 17.83845-18.45612 50.88065-34.07267 67.61477-51.20491-2.83456-22.01946-8.6214-40.33046-17.36141-60.17847l-10.68801 5.07131c1.56425-4.79577 2.79022-9.222715 4.23585-14.24852-15.75225-21.648127-36.63369-42.543718-56.24147-54.082164-14.54446-8.263147-27.84975-11.954592-41.91587-13.655553zm-.65671 17.692548c11.56665 1.381468 23.39204 5.685117 33.58608 11.559495 17.87061 10.29804 33.28784 24.970895 45.51284 41.919386-4.51223 15.687518-10.23569 30.788798-18.26137 44.781238 10.25408-4.01563 23.04084-8.97024 34.94545-14.61663 3.98261 9.77395 6.72513 19.74303 7.93374 29.50397-12.86509 13.4866-33.66346 22.69802-50.1525 35.149-6.49942 4.64276-11.83823 7.7696-15.04255 15.09969-43.69442 99.95125-122.45402 170.76686-189.62968 242.77717-9.06123 9.71336-17.58286 8.88919-22.05611 5.84564-6.17951-4.32706-3.80246-13.16252.3345-19.01765 4.20894-5.88311 8.66931-12.01118 13.04969-17.9835 10.34672-14.10693 22.11275-27.00309 31.25828-42.16118 7.1139-1.89426 16.43112-3.65551 20.87544-9.9549 5.91539-8.38451 3.16384-30.62071 3.16384-30.62071s-9.23046 13.44012-15.85252 17.85426c-5.63473 3.756-12.87497 5.17529-19.21172 6.6047-11.39313 15.64584-21.46292 32.52611-34.33827 47.06389-12.70805 14.34888-26.72834 27.0666-42.01457 39.25804-13.25495 10.57136-25.93945 8.26932-32.108385 3.24123-7.386488-6.17967-3.967-14.59311 3.336648-20.92359 28.471417-23.68624 55.262577-46.37374 75.416887-73.93874 8.62942-2.91125 19.46908-5.64989 24.41392-13.53115 5.92924-9.45023 1.87433-33.41636 1.87433-33.41636s-8.60509 16.03817-15.48529 21.63453c-5.87925 4.7822-13.77562 7.28816-20.7956 9.19034-29.39041 32.35936-65.19041 58.22118-101.815093 84.17781-18.675008 13.23464-34.73099 10.59145-39.140548 6.44904-8.633688-8.28221 9.904353-23.19088 16.004946-27.79635 31.701358-22.06795 65.585625-42.80517 93.928145-72.11279 10.08491-1.74393 23.40392-3.33829 29.495-12.03568 6.44273-9.19952 1.29619-33.66881 1.29619-33.66881s-7.44677 16.14492-14.29929 21.22504c-7.0217 5.20554-16.81108 5.83204-25.06746 7.69719-27.868065 21.43331-57.940399 38.08508-90.028507 54.49043-7.204901 3.61539-24.114892 11.19472-31.9227738 2.33762-2.29132837-4.02419-1.1139235-14.68094 12.1239898-24.09299l104.423291-74.24606c22.04048-14.88709 38.07679-25.71852 52.34349-46.1588l-85.161115 31.0345c-16.520778 8.37644-26.448282 4.48607-29.74611-.0376-5.922056-8.39072 4.189721-19.51359 10.521048-25.17114 44.156667-39.64607 67.477457-62.36756 105.923677-70.10493 18.47023-3.71802 72.28351-18.0248 82.7889-20.82747 0 0 14.11418-12.00281 20.4152-18.76613 22.69331-24.35833 62.22751-78.119323 62.22751-78.119323 1.63627.07419 3.28406.210943 4.93643.408294z" fill="#54301c" stroke-width="1.17453"/></g></g><path id="l" d="m596.03243 18.903605c-.0621.148123-.10677.299987-.13462.455987-.33125 1.852116 1.66778 4.223246 3.77258 6.719611 2.52963 2.999993 5.14545 6.102409 3.62543 8.118774-.45326.601123-.89291.912351-1.34418.950976-.81896.0705-1.68905-.745506-2.61024-1.609882-.73979-.693747-1.50485-1.411473-2.33986-1.740723-1.00436-.396374-1.95995-.154505-2.8403.71812-.54171.537375-.78862 1.219464-.7336 2.027964.123 1.807489 1.77999 4.261517 4.92511 7.293753 1.28437 1.238249 2.56768 2.326125 3.45733 3.050623l-3.34857-.598861c-.20385-.03675-.39874.099-.43522.302999-.0364.203624.0993.398629.3031.435002l4.81817.862098c.15312.02616.30343-.04353.38551-.173283.0627-.100545.0679-.219391.031-.329191l-1.74522-4.588877c-.0736-.193491-.29026-.291016-.48384-.217145-.19357.0735-.29077.289854-.2172.483728l1.26321 3.321383c-.8781-.712118-2.19183-1.819854-3.50776-3.088469-2.96467-2.858246-4.58896-5.211011-4.69737-6.804757-.0402-.589498.1278-1.061981.51339-1.44448.67703-.671247 1.30526-.84191 2.03703-.553162.70166.27675 1.41355.944633 2.10201 1.590382 1.00053.938614 2.0352 1.909158 3.18745 1.810158.67557-.05813 1.2902-.465769 1.87895-1.246892.8584-1.138871.80145-2.572895-.1743-4.384142-.815-1.51274-2.16812-3.117716-3.47669-4.669457-2.06755-2.452119-4.20563-4.987493-3.48896-6.470992.0389-.08063.0793-.154139.1215-.221264zm3.10606 0c.57164.344624 1.18073.810365 1.75335 1.247989.83933.641626 1.63205 1.248014 2.3735 1.579888.95103.426 1.68955.314226 2.19505-.331897.42897-.548248.42624-1.369483-.012-2.49598h-.81013c.55854 1.285496.39786 1.821384.23151 2.034008-.19788.252748-.50684.463477-1.29786.109476-.6618-.296625-1.45629-.903719-2.22452-1.491334-.28788-.220125-.57774-.441401-.86698-.65215zm21.04279 0 1.07578 4.648473-3.29886-.134255c-.33546.02153-.4836.356102-.31938.59403l5.35462 7.423506c.0651.09038.16712.146979.27824.154853.11115.0075.21993-.03451.29695-.115136l6.63546-6.936372c.2201-.286329.0245-.632522-.27828-.634131l-3.3165.06416 1.98002-5.065127h-.80514l-2.07767 5.314518c-.0782.262566.0916.512999.35649.511469l2.97554-.05774-5.70041 5.959472-4.63996-6.432705 3.01998.122605c.25529-.0051.42801-.236407.38051-.45939l-1.14758-4.958233zm21.33355 0c-.10575.239625-.20701.48976-.30301.751133-1.19249 3.246363-.17627 5.4225.88611 6.67649 1.06237 1.253622 2.66248 2.186985 4.62672 2.699228 1.85812.484497 3.94915.549002 5.88788.181878 3.74475-.709491 6.48675-2.859396 7.5225-5.898384.65137-1.909865 1.89525-3.361098 3.35961-4.410345h-1.21761c-1.332 1.154622-2.31075 2.581483-2.85188 4.168481-.94612 2.776113-3.4804 4.745647-6.95213 5.403397-3.84299.727874-7.8742-.353269-9.80281-2.629132-1.33875-1.580248-1.5998-3.631887-.75455-5.932886.132-.359999.27416-.696362.42528-1.00986zm14.35421 2.212843c.1104-.0096.20535-.06595.27224-.152606.075-.101992.0879-.229426.0503-.347661l-.61463-1.712604h-.79689l.14955.417372c-.14355-.132376-.29878-.272247-.46453-.417372l-1.16556.000028c.72.589122 1.31176 1.141145 1.70964 1.530394l-3.14249.254607c-.20625.01687-.36003.197617-.34354.40424.0162.196127.18004.34464.38892.343889zm20.02343-2.212843c.88575 1.268621.94166 2.990982.15678 5.005471-.9675 2.484747-2.47053 4.05376-4.46626 4.662757-2.31862.707993-4.92786.0015-6.70836-.715481-1.95487-.787499-3.36934-1.761781-3.38884-1.775281-.17025-.118502-.40389-.07648-.52201.09377-.1182.169875-.0762.403514.0937.522013.06.04162 1.48764 1.02709 3.52051 1.848338 1.19886.4845 2.35911.808874 3.44811.964875 1.26282.177738 2.64123.117742 3.77323-.220112 2.22825-.679122 3.89328-2.398091 4.9489-5.108577.95438-2.450623.63672-4.155774.025-5.277771zm9.15528 0c-.62475 1.79287-1.2713 3.706149-1.89267 5.643396-1.54049 4.803725-2.62875 8.814726-3.23436 11.922339-.786 4.032736-.76122 6.519718.075 7.60346.42171.513213.99216.689491 1.5795.62287 1.68-.205125 3.63783-1.977378 5.98458-5.417241 1.81087-2.654613 3.83212-6.289845 6.00785-10.805196 1.64438-3.412862 3.13241-6.825383 4.28028-9.569628h-.813c-1.12608 2.681996-2.56195 5.962864-4.14295 9.244102-2.15925 4.481609-4.16176 8.084272-5.952 10.708137-1.05375 1.544988-2.0419 2.759243-2.93664 3.608616-.94537.898117-1.79323 1.398334-2.51922 1.486832-.39562.04838-.6799-.05848-.8944-.336728-.47248-.612-.8445-2.323493.0672-7.00048.59962-3.077985 1.68003-7.059762 3.21153-11.834613.64837-2.021622 1.32372-4.016995 1.97397-5.875866zm44.99838 0c-.36936 1.93462-1.64475 3.974242-4.76625 5.570609-.29791.195271-.23518.581348.0462.687745.0162.0056 1.61099.573752 3.37872 1.756875 1.61025 1.07774 3.7009 2.903648 4.51576 5.481014.85463 2.702993.17552 5.735957-2.01784 9.022453l-2.65765-6.384366c-.0795-.191244-.29885-.281594-.50156-.170409-.20269.111195-.25894.2953-.19069.458802l2.92163 7.019259c.0544.12492.16409.205672.29664.22725.0981.0147.18965-.01569.27038-.06825l6.46122-4.704723c.16725-.121875.20437-.356256.0822-.523881-.12195-.16725-.35627-.204372-.52389-.08213l-4.83486 3.520504c1.76212-3.06261 2.2365-5.92989 1.40851-8.544377-.3915-1.23675-1.0785-2.413481-2.04187-3.497605-.7635-.859498-1.70173-1.663118-2.78809-2.388368-1.101-.734998-2.1218-1.236005-2.77955-1.525503 1.87124-1.088624 3.18861-2.434898 3.91986-4.009896.273-.587623.46352-1.203736.57189-1.844985zm-19.62735 3.06665c-.0901.166238-.0399.358221.10905.462098l4.05187 2.828645c-1.2345-.250875-2.91486-.483777-4.71786-.416654-2.10598.07837-3.93561.554227-5.43821 1.4141-2.00646 1.432806-3.34652 3.028832-4.06127 5.019041-.88725 2.482497-.93075 5.247342-.1257 7.802587-.50287.24075-.98589.494994-1.44564.761241-1.53149.886876-2.78249 1.896399-3.71924 2.999647-.60225.709501-1.07325 1.45763-1.41036 2.237253-.2445.565875-.41814 1.147876-.51977 1.743748-.25912 1.521366-.28273 2.971463-.0708 4.310202.19763 1.246873.59999 2.403378 1.19586 3.438003 1.08375 1.88137 2.76227 3.309362 4.85364 4.129478 1.79286.703123 3.753.884999 5.51886.512624 1.85362-.391124 3.38065-1.381494 4.29977-2.788494.1137-.173249.0645-.406126-.10875-.519377-.17362-.11325-.40575-.06447-.519.10914-1.65261 2.529747-5.40265 3.365989-8.91715 1.987866-3.35135-1.313998-6.55981-4.908015-5.51281-11.053489.0923-.540751.24932-1.06012.46532-1.559619 1.01137-2.340365 3.30343-4.219463 6.13954-5.593463.86325 2.253371 2.33661 4.141825 4.19436 5.361323 1.78198 1.169615 3.81899 1.650015 5.89162 1.389765 2.32162-.292124 4.60534-1.475589 6.78784-3.518585.8925-.835123 1.4985-1.627901 1.80675-2.357277.3105-.738372.32173-1.418602.0338-2.021975-.4875-1.021867-1.82322-1.741149-3.86247-2.080148-1.84498-.307124-4.21573-.287605-6.67611.05476-2.76336.38475-5.43749 1.129852-7.74523 2.145352-.69787-2.305495-.69417-4.870477.15183-7.238221 1.34513-3.764986 4.30728-5.762642 8.80201-5.935518 2.33999-.09 4.51311.36228 5.65911.658906l-5.43675 3.049467c-.18075.10125-.24483.329622-.14355.51037.10125.18075.32999.244895.51036.143646l6.21973-3.488265c.1152-.06966.18152-.179128.19092-.312361.003-.131012-.0562-.243883-.1596-.322205l-5.7532-4.016651c-.22926-.138431-.43912-.02399-.53865.153024zm-102.34935 3.339466c-.17865 1.068375-.14565 2.251487.0956 3.421851.26707 1.295624.77032 2.52825 1.49595 3.662617 1.2036 1.882121 3.61053 4.364995 8.24137 5.503868 2.9254.719242 4.48887 2.645655 4.28956 5.284523-.20115 2.662865-2.30737 5.69433-5.43411 6.32883l1.87536-4.232972c.0838-.189374-.001-.410601-.19093-.494603-.1893-.084-.41085.0015-.49478.19083l-2.15035 4.853645c-.0479.10923-.0385.225913.0135.3303.0555.10197.1513.165892.26202.190119l5.17351.945376c.0228.004.0454.006.0678.006.1776 0 .3354-.126765.36843-.307508.0372-.203625-.0978-.399042-.30151-.436541l-3.41675-.623969c1.06988-.412499 2.06255-1.099877 2.89407-2.018626 1.19853-1.324489 1.95732-3.028473 2.08162-4.674344.1044-1.38224-.23527-2.656496-.98239-3.68437-.84097-1.156864-2.145-1.959392-3.87591-2.385015-4.39022-1.079615-6.65869-3.412499-7.78864-5.179497-1.28073-2.002863-1.83538-4.453859-1.48359-6.556849.0342-.203999-.1038-.397524-.33082-.413864-.22709-.01633-.37896.111661-.40889.290159zm38.32975 14.497089c.1431-.0108.25992-.10524.31672-.224926.0463-.09479.0282-.222149.005-.287235l-1.91997-4.957133c-.075-.192748-.29215-.288748-.48526-.214123-.19313.075-.28913.29214-.21413.485265l1.30764 3.37538c-2.00887-1.837874-3.97873-3.160888-5.87136-3.94013-1.85338-.738836-3.87271-1.059534-5.68985-.558763-1.23675.348749-2.29767 1.031278-3.15379 2.028399-.80213.934874-1.39088 2.131838-1.7025 3.462337-.4395 1.875746-.33188 3.919487.31125 5.910361.69525 2.153615 2.00101 4.139624 3.77626 5.744248 2.21025 1.997615 4.51237 3.185983 6.8426 3.532483.4605.06825.91766.10239 1.37066.10239 1.62073-.000365 3.18073-.435354 4.57311-1.284353 1.9256-1.174498 3.44549-3.102038 4.27949-5.427399.876-2.443497.96297-5.151722.25197-7.832583-.0533-.20025-.25875-.319503-.45862-.266254-.20025.05325-.3195.258376-.26625.458626 1.32673 5.000982-.39902 10.111128-4.19737 12.427494-1.30688.796873-2.71764 1.190248-4.17788 1.189871-2.51887 0-5.18474-1.170043-7.71487-3.456788-3.90598-3.530238-4.55507-7.959355-3.8602-10.927092.59288-2.530495 2.17084-4.331261 4.3297-4.939884 3.19538-.900749 7.24803.84115 11.46939 4.911759l-4.49439.327006c-.20663.015-.36185.194265-.34685.40089.015.197248.17925.347992.38754.34741zm22.5172-4.586997c-.17737.1065-.23514.336741-.1287.51449l1.47864 2.466369c-1.19812-.409121-3.34201-1.115612-5.56089-1.726112-6.21598-1.710366-7.64021-1.235967-8.17046-.730093-.21263.202874-.4275.570762-.24263 1.173004.51863 1.690873 4.67102 4.862628 9.47887 8.534991 2.73863 2.091745 5.57021 4.255103 7.59858 6.078341 2.90175 2.608489 2.94862 3.47737 2.83425 3.729743-.29775.657-1.4936.758251-2.44385.727129-1.212-.03937-2.81363-.310483-4.76026-.80623-2.11386-.538499-4.18011-1.228507-5.42098-1.666131l2.80272-.660003c.20137-.04763.32631-.2494.27906-.451149-.0476-.201374-.24941-.326249-.45116-.278999l-4.02296.947622c-.13665.03303-.23579.132945-.27711.264399-.0351.125445-.00068.252177.0806.350247l2.4394 2.745754c.15289.152001.38248.157896.52911.03114.15487-.137624.16915-.374659.0315-.529157l-1.45839-1.641353c1.2705.443624 3.25161 1.096472 5.27772 1.612845 2.18962.557991 3.93074.837373 5.23799.837373 1.54613 0 2.48478-.391097 2.83991-1.173722.42562-.939373-.47627-2.314121-3.01613-4.597107-2.05049-1.843498-4.89452-4.015901-7.64477-6.117015-2.29686-1.754246-4.46587-3.410989-6.17062-4.862979-1.82849-1.558122-2.85369-2.667021-3.04644-3.295895.47104-.990721 2.06551-.638181 2.70109-.556455 1.24274.167625 2.85525.52312 4.79211 1.055619 2.10412.579001 4.14076 1.244993 5.35501 1.657119l-2.26686.62512c-.19987.05513-.31687.261762-.26175.46126.0999.203027.26453.3141.46121.26208l3.42937-.946087c.10815-.0309.19023-.10515.24039-.204018.0532-.116055.0408-.241642-.0188-.350629l-2.01039-3.352856c-.12315-.178023-.34423-.227987-.51451-.128655zm46.29857 2.088001c1.76175.292877 2.93658.883492 3.30858 1.663108.21262.4455.15451.940172-.06 1.436297-.31913.73875-.984 1.481248-1.61586 2.072621-3.89773 3.647986-8.1825 4.394948-11.75585 2.049335-1.81424-1.190998-3.16163-2.989848-3.93338-5.046345 2.34824-1.042873 5.01187-1.756156 7.60687-2.117281 2.19545-.269146 4.37282-.39466 6.44962-.05774zm17.67708 13.964974c-.015.0147-1.48011 1.486891-2.77948 3.161256-1.86037 2.397745-2.4735 4.004262-1.87389 4.911762.4035.610123 1.27239.814487 2.65726.624736 1.41-.192749 3.41849-.810381 5.96997-1.83488.756-.30375 1.49964-.597363 2.22939-.880111v-.804363c-.81975.316493-1.65603.645741-2.50878.988491-3.62848 1.456873-5.5665 1.851362-6.60112 1.851362-.7365 0-1.01587-.199874-1.12087-.358872-.1785-.270373-.35738-1.20415 1.83675-4.033513 1.27048-1.638371 2.70716-3.081371 2.72141-3.095996.14625-.14625.0252-.398976-.1077-.511681-.1077-.09125-.34983-.09132-.42295-.01819zm-126.27171.271912c-.14985-.0024-.3078 0-.47377.0067-1.15774.04763-2.72554.316173-4.6599.798046-3.28297.81825-7.53014 2.225243-12.39113 4.10174v.804363c4.94491-1.917749 9.25799-3.352517 12.57245-4.178258 1.88513-.469875 3.40224-.730866 4.50928-.776242 1.38738-.057 1.72736.240738 1.80884.371614.1158.185249.0252.534748-.25482.984373-.36597.58725-1.04055 1.325653-2.005 2.194901-1.7103 1.541241-3.88271 3.323995-6.18272 5.211742-2.75927 2.264238-5.61247 4.605716-7.67564 6.554213-1.39821 1.320739-2.3051 2.335881-2.77239 3.124506v1.886238c.27898.2115.70869.316131 1.31001.316131.56158 0 1.27288-.09111 2.15035-.271858l9.37566-1.931996-2.76866 2.997726c-.29665.432935.23241.842191.55095.508885l3.56034-3.854987c.0616-.06657.093-.150893.099-.239996.006-.158953-.0886-.296943-.23049-.360415l-5.40945-2.249223c-.1912-.0795-.41074.01125-.49019.202477-.0795.19125.0105.410655.2023.490153l4.28451 1.78121-9.3253 1.921505c-2.53673.522373-2.8772.10464-2.91972.01577-.0357-.07462-.10125-.387775.55218-1.275398.48673-.6615 1.2541-1.484233 2.34591-2.515479 2.04415-1.930491 4.88707-4.26372 7.63642-6.519719 2.30691-1.893364 4.48588-3.681394 6.20906-5.234259 2.17155-1.957122 2.93229-3.270733 2.39409-4.1336-.2956-.473811-.95292-.714526-2.00215-.730867zm114.79102 5.422019c-.0249 0-.0503.0021-.0757.0072-2.86423.569996-5.87133 2.820778-8.24956 6.175514-1.07475 1.51574-1.95075 3.173232-2.5335 4.793603-.606 1.684865-.88015 3.297004-.79315 4.662754.0942 1.475621.3694 2.945988.81903 4.369859.49987 1.583246 1.20409 3.067507 2.09322 4.411498.98962 1.495869 2.20688 2.813242 3.61801 3.915741 1.08187.844867 2.28564 1.568602 3.59401 2.1626l-3.13314.03861c-.207.0025-.37276.172906-.37051.379906.003.207.1729.372757.3799.370129l5.03246-.06262c.14925-.0024.27834-.09355.3402-.228098.0438-.10245.0358-.213113-.009-.313733l-1.8641-3.751878c-.0922-.185625-.31728-.261383-.5029-.169133-.18525.09225-.261.317272-.16875.502896l1.44454 2.907364c-9.11548-3.599237-10.36127-12.022098-10.5244-14.581086-.33375-5.230109 5.13453-13.686745 10.97401-14.848494.20138-.04012.33299-.234396.29586-.435771-.00036-.0015-.0007-.0033-.001-.0053-.0354-.177843-.19088-.30087-.36536-.30196zm-94.0143.91027c-6.27198-.06408-9.9531 3.386579-11.99898 6.520815-2.0434 3.130486-3.31642 7.251338-3.58462 11.603576-.24277 3.939358.38792 7.486124 1.68707 9.487118.1128.173626.34498.22312.51871.11025.17374-.1125.22315-.344983.1104-.51861-1.19667-1.843113-1.79731-5.304378-1.56759-9.032613.26033-4.224359 1.49061-8.21626 3.46414-11.239873 2.2164-3.395239 6.46174-7.181615 14.09956-5.936615 10.73171 1.749363 16.74109 9.979861 18.62658 16.496216 1.67436 5.787727.64575 11.215893-2.68462 14.165639-2.46036 2.179116-6.45634 3.583844-10.96307 3.854217-4.59373.275243-9.04237-.696386-12.20508-2.665885-3.26638-2.033988-6.72112-6.057001-4.63012-13.672847 1.82204-6.635974 5.01036-10.520975 9.22042-11.234599 4.98261-.844498 10.42275 2.82111 13.22137 6.878969 2.86273 4.150854 1.72125 9.733863-.80661 12.878975-1.86075 2.315239-4.21051 3.120759-6.44737 2.209511-3.84112-1.564863-6.72148-4.957126-6.69973-7.890366.0135-1.765872 1.07884-3.112853 3.08358-3.895469 1.61924-.632249 2.97899-.622492 4.04137.0285 1.54273.945747 2.13303 3.024369 2.3359 4.043236l-4.45576-1.474531c-.1965-.06525-.40875.04163-.47363.238133-.0652.196873.0412.408752.23813.474002l5.04151 1.668382c.11295.03718.23223.01524.33111-.04844.0739-.05242.12045-.122055.1473-.206969l1.6853-6.03335c.0558-.1995-.0607-.406533-.26027-.462031-.19948-.05586-.40653.06076-.46203.260268l-1.27045 4.54723c-.34913-1.194365-1.05828-2.781385-2.46302-3.643884-1.2735-.782241-2.85786-.812215-4.70885-.08959-2.28111.890999-3.5457 2.52037-3.56078 4.588485-.012 1.563747.7014 3.291751 2.00715 4.865617 1.31175 1.580623 3.144 2.903612 5.16 3.724852 1.30987.533626 2.69809.558021 4.01434.07015 1.19963-.444369 2.34115-1.310657 3.3004-2.504274 1.41336-1.758746 2.35724-4.143731 2.58936-6.543717.261-2.692124-.34425-5.192649-1.75012-7.231136-1.48013-2.146124-3.67053-4.140365-6.00901-5.471238-2.71949-1.547246-5.47012-2.142348-7.95525-1.721225-2.13055.361125-4.02277 1.455352-5.62384 3.252715-1.77838 1.996121-3.18952 4.863767-4.19418 8.522629-.91444 3.330747-.87528 6.315008.11625 8.870621.89078 2.295371 2.51939 4.192115 4.84063 5.637738 1.69841 1.057498 3.70806 1.834478 5.97299 2.309594 1.62337.340499 3.36599.514544 5.11462.514544.51975 0 1.04064-.01541 1.55851-.04653 4.67136-.279749 8.83197-1.752755 11.41572-4.041366 1.79923-1.593374 3.00563-3.862895 3.48863-6.562508.4605-2.572488.25986-5.467828-.58089-8.372943-.56625-1.957496-1.40323-3.862896-2.48735-5.662894-1.13175-1.879115-2.50464-3.593989-4.08077-5.096986-1.67625-1.59824-3.56211-2.935853-5.60509-3.975727-2.19187-1.115621-4.56489-1.886655-7.05299-2.292404-1.00454-.163781-1.95342-.24463-2.84942-.253784zm61.46252 29.067299c.0647.130665.19385.203872.33561.20928h7.75798c.207 0 .37496-.167961.37496-.374961s-.16796-.37502-.37496-.37502h-5.5459c1.5225-.816748 3.28837-2.257144 5.05162-4.15464 1.24575-1.340615 2.36965-2.791105 3.25051-4.194353.94988-1.514242 1.58964-2.939982 1.85027-4.123106.48337-2.19449-.37839-3.213346-1.18652-3.681349-2.54887-1.476744-5.34263-.328924-8.04412.781072-2.49375 1.0245-4.84948 1.992398-6.8921.942409-.39863-.20475-.621-.457483-.6795-.771734-.20963-1.126872 1.52886-3.075774 3.06259-4.795139 1.79475-2.011871 3.48976-3.912398 3.08364-5.310015-.17513-.602998-.71552-1.036823-1.60577-1.289573-1.55707-.41376-3.14537-.217833-4.52057.289105-1.32975.499498-2.68088 1.338764-4.01587 2.49488-2.38875 2.068121-4.21464 4.724604-4.78389 6.279719-.0712.194625.029.409897.22314.481149.19462.07125.40989-.02889.48114-.223133.52312-1.428747 2.30247-4.006866 4.57046-5.970731 1.92675-1.668371 4.851-3.478901 7.8405-2.629902.62512.17775.99187.439525 1.0905.777774.29025.998997-1.41712 2.91299-2.92312 4.60123-1.809 2.027624-3.51711 3.943096-3.24036 5.431469.10245.550124.46347.98817 1.07397 1.302044.73836.3795 1.50378.533218 2.28603.533218 1.70698-.000365 3.49082-.733107 5.23381-1.448983 2.6505-1.088998 5.15366-2.117611 7.38341-.826114.86025.498749 1.1396 1.464707.82985 2.871324-.47624 2.163371-2.36063 5.216625-4.91775 7.967985-2.25711 2.429248-4.55361 4.112642-6.17809 4.559265l1.31061-4.367604c.0597-.198-.053-.40724-.25125-.466863-.19838-.05962-.40763.05321-.46725.251583l-1.48672 4.955676c-.027.09339-.0175.188502.0231.274131zm-36.51218-23.993986.45489-1.466288c.0615-.197617-.0492-.407989-.24714-.469113-.19763-.0615-.40761.04914-.46911.247137l-.95097 3.063369c-.0382.126195-.006.253105.0728.353976.1077.126734.28437.162674.43684.100334l2.96141-1.306488c.18939-.08362.27523-.304902.19161-.494275-.0836-.189752-.30491-.275229-.49428-.191603l-1.29072.569256c1.23337-1.166623 3.19088-2.596473 4.88363-1.954848.264.100124.42938.242584.52124.448076.31426.704248-.23361 2.121038-.81338 3.621034-.87711 2.269113-1.96835 5.092859-.86098 7.372473.27783.569196.75082 1.045101 1.31659 1.195474 1.31813.332998 3.00603-.880875 4.79328-2.165622 1.12874-.811498 2.29608-1.650727 3.39483-2.128103 1.17673-.510747 2.0629-.520857 2.78815-.03186 1.551 1.046243.72675 3.455215-.22725 6.244454-1.12875 3.299611-2.40825 7.039127-.0975 9.748865.91388 1.071373 1.99758 1.573155 3.21783 1.487656 1.58587-.111 3.34879-1.204876 5.23954-3.251616 1.38149-1.495123 2.30283-2.936644 2.34146-2.997394.111-.174752.0596-.406135-.1152-.51751-.17475-.111-.40646-.05961-.51783.11514-.036.05662-3.64539 5.669222-7.00087 5.90322-.98325.06862-1.83188-.332245-2.59425-1.226235-.89925-1.054501-1.24497-2.41385-1.0571-4.154972.171-1.583239.74136-3.251271 1.29336-4.864518 1.01025-2.952738 1.96424-5.741608-.0626-7.108855-2.07375-1.398372-4.71225.498771-7.04024 2.17276-1.56938 1.128375-3.19202 2.294959-4.1715 2.047468-.3375-.0855-.60788-.345743-.82613-.795742-.96487-1.986364.0183-4.530334.88611-6.774323.66524-1.721621 1.23974-3.208126.79838-4.197374-.17363-.389248-.48974-.672748-.94011-.843748-.40226-.15251-.81069-.214781-1.21775-.206749-1.76381.03513-3.50143 1.392275-4.59709 2.456546zm86.7479 7.792098c-.38587.651373-.47211 1.147888-.28761 1.534511.0663.139125.16161.256477.28761.351727zm-17.06733 1.978841c-.0668.07326-.0966.168384-.0957.265881l.27109 6.989985c.009.207.18263.368268.38925.360019.207-.0078.36828-.182241.3604-.389241l-.21753-5.604392c4.01774 6.080599 8.86878 9.752614 14.43376 10.921487.63338.13275 1.27577.232527 1.92602.299652v-.755253c-.58238-.06188-1.17375-.152989-1.77188-.278614-5.42773-1.139624-10.16701-4.775261-14.09999-10.81124l4.36722 1.653713c.1935.07312.40989-.02436.48339-.217856.0354-.229744-.0376-.405864-.21786-.483344l-5.41652-2.051255c-.16291-.05104-.2996-.02208-.4117.100455zm-119.02508 8.609653c-.0179.0123-1.81994 1.252847-4.65072 2.266089-2.2539.806999-5.56863 1.603521-9.25663 1.212396v.755253c1.41801.1455 2.87173.13389 4.34233-.03636 1.71206-.198373 3.45056-.610513 5.16714-1.225136 2.9233-1.046623 4.7494-2.303252 4.82568-2.356127.38455-.351939-.0406-.878764-.4278-.616109zm53.85194 9.732336 1.03382 6.506642c.0326.204376.22465.343867.4294.311242.20436-.03225.34386-.22464.31124-.429015l-.81864-5.151754c4.16472 4.975858 8.02876 8.737135 11.51887 11.213995-.39863.8835-.75861 1.87685-1.07435 2.96735-.7755 2.67674-1.01517 4.98454-1.02492 5.08167-.021.20586.129.38999.33525.41061.20588.021.39-.129.411-.33525.006-.0615.44628-4.20678 1.98077-7.69014.29812.20062.59289.39188.88501.57338 1.72536 1.07099 3.32434 1.78277 4.75234 2.11502 1.29525.3015 2.42325.28838 3.35324-.039 1.36537-.48037 2.18774-1.62338 2.20012-3.05738.008-.90487-.31986-1.84727-.92323-2.65352-.65513-.87562-1.60499-1.562583-2.74724-1.986707-1.77562-.659627-3.39865-.543755-4.82365.34387-1.41145 1.097877-2.30773 2.237287-2.99547 3.583837-3.47586-2.48661-7.33762-6.27597-11.51173-11.296446l4.29977.689996c.20437.03262.39673-.106545.42973-.310916.0326-.204744-.1065-.397102-.31086-.429727l-5.28073-.847483c-.25536-.03636-.46116.18007-.42974.429726zm-63.85613.520856c-.62548.288377-1.14177.954762-1.53451 1.980008-.34871.910501-.59243 2.102259-.70478 3.446623-.23694 2.835747.10455 6.036363.93675 8.781363.3698 1.21987.35646 2.05126-.0366 2.28076-.4215.24637-1.39153-.0442-2.56409-.85611v.89434c.83452.48563 2.16037 1.03507 2.94262.60941.26304-.15375.59125-.48228.66105-1.17339.0517-.51375-.0443-1.17712-.28538-1.97248-.8058-2.658-1.1364-5.756654-.90702-8.501266.21314-2.550371.9051-4.392761 1.80593-4.807886.78247-.36075 1.84371.42417 2.98783 2.210667 1.49275 2.330987 2.32576 4.961624 3.06067 7.282495.99593 3.14474 1.85609 5.86082 4.01711 6.91044.6109.297 1.30476.4455 2.09068.4455 1.03459 0 2.22853-.25761 3.60076-.77399 2.44848-.92136 4.34252-2.23421 5.47734-3.79758 1.00087-1.3785 1.40742-2.95241 1.14477-4.43215-.20513-1.155001-.81414-2.203884-1.71496-2.953507-.94161-.782999-2.13168-1.202957-3.44162-1.214207l-4.6554-.03939 4.01808-3.780005c.15083-.142125.15804-.379505.0162-.530253-.1419-.15075-.37927-.157844-.5301-.0161l-4.69856 4.420449c-.0807.0753-.1188.179772-.11745.288039.003.09981.0483.186148.1155.25615l3.50149 3.343135c.40762.346249.81733-.238802.5179-.542282l-2.81623-2.689124 4.64227.03939c2.23749.01913 4.0569 1.478219 4.4245 3.548965.2267 1.27724-.13305 2.64826-1.01326 3.86026-1.0483 1.44412-2.82384 2.66702-5.1345 3.53627-2.2116.83213-3.87979.94834-5.09974.35585-1.87102-.90862-2.68603-3.48225-3.62971-6.46237-.74898-2.365118-1.59783-5.045958-3.14406-7.460198-.69199-1.080746-1.37238-1.839045-2.02225-2.25417-.62933-.363009-1.25454-.530009-1.91123-.233661zm106.69558 1.050565c-.98872.01425-2.11011.246773-3.27167.68121-1.27386.475866-2.57361 1.18388-3.75974 2.046746-2.628 1.912873-4.37813 4.315143-4.80151 6.590633-.038.20363.0963.39933.32138.42148.22503.0222.38248-.10389.41586-.28464.38887-2.08875 2.03102-4.319961 4.50565-6.121082 2.32387-1.691242 4.99388-2.679024 6.96674-2.577774 1.98113.101625 8.46558.976892 11.40408 7.879496l-2.10713-1.01475c-.18675-.0896-.41059-.0113-.50059.1755-.09.18638-.012.41065.17512.50065l2.9651 1.42762h.00079c.012.005.0236.0105.036.015.003.001.007.002.0105.003.009.003.0172.005.0258.008.005.001.009.002.0135.003.009.002.0169.003.0252.004.005.00075.009.002.012.002.012.001.024.002.036.002.00075 0 .001.00036.002.00036s.005-.00036.006-.00036c.0135-.00037.0258-.001.039-.003.005-.00037.008-.00076.012-.001.015-.002.0292-.005.0438-.009.003-.00077.005-.002.008-.002.0135-.004.0263-.009.039-.0139.001-.001.005-.002.008-.003.0135-.006.0273-.013.0405-.021.003-.001.006-.003.008-.005.012-.008.0228-.0154.0333-.0244.001-.001.005-.002.006-.004.0105-.01.0221-.0199.0322-.0308.003-.003.006-.006.008-.009.009-.0112.019-.0228.0277-.0352.001-.002.003-.005.005-.007.005-.007.009-.0134.012-.0202.005-.007.007-.0139.0105-.021.00036-.00076.00078-.001.001-.002 0 0 .00036-.00043.00036-.00079.005-.0108.009-.0221.0135-.0333.001-.002.001-.005.003-.008.003-.008.005-.0165.008-.0248.001-.005.003-.01.003-.015.001-.006.003-.0123.003-.0187.001-.006.001-.012.003-.018.00076-.005.001-.0105.001-.0161.00036-.006.00078-.0127.00078-.0191 0-.002.00036-.005.00036-.008v-3.953633c0-.206994-.16802-.374963-.37502-.374963s-.37501.167969-.37501.374963v2.106403c-1.10474-2.224863-2.68725-4.00913-4.72086-5.318251-2.02125-1.30124-4.49472-2.087654-6.96484-2.214401-.1356-.0069-.27408-.0093-.41534-.0074zm32.56062.06795c-.97931-.0092-1.95205.147345-2.51773.25928-2.21136.437998-4.44861 1.359348-5.83874 2.404849-1.50974 1.135871-2.01862 2.399612-1.4325 3.558352.0934.184876.31911.258777.504.165402.1845-.09338.25877-.319125.16539-.503998-.51712-1.021867.37497-1.989008 1.21421-2.620509 2.80875-2.112747 8.57512-3.259879 9.95173-1.980008.44887.417375.35103 1.134412-.29097 2.130408-.9315 1.445623-1.071 3.246369-.40275 5.207243.54186 1.59111 1.61251 3.27407 3.01464 4.73845.79875.834 1.66087 1.5465 2.47312 2.049v-.89434c-.60562-.41963-1.26528-.97765-1.93128-1.67327-1.32825-1.38712-2.33923-2.97152-2.84661-4.46176-.59998-1.761367-.49122-3.295089.32327-4.559212 1.08075-1.67699.68959-2.603631.17134-3.085507-.59194-.550498-1.57782-.725236-2.55712-.73438zm-56.98231 6.530101c.61794-.0041 1.26694.119445 1.9437.370788 2.21437.82237 3.19347 2.56686 3.18147 3.93035-.006.669-.22838 1.24427-.63413 1.67964-.27487.29475-.63301.525-1.06501.67687-1.00838.35513-3.31874.56624-7.46097-2.00588-.31575-.19613-.63525-.40388-.95812-.62325.7065-1.41599 1.61398-2.65985 2.77048-3.380601.68491-.426513 1.42809-.642678 2.22258-.647917zm-46.75596 1.108508-4.2872 1.34846c-.19758.0622-.30735.27265-.24522.47027.0621.19762.27267.30752.47022.24527l2.3702-.74553c-.18675.1725-.38195.36154-.58037.56629-1.04605 1.07887-2.38414 2.81659-2.81809 4.9657-.16155.80025-.18954 1.60054-.0847 2.39853-2.14131 2.02875-3.94735 4.90874-4.84518 8.6576-.70188 2.93061-.28044 5.23459 1.25255 6.84821.87622.9225 2.11756 1.61255 3.68948 2.05092 1.23491.34463 2.67837.53621 4.29048.56959.17588.004.34988.006.52163.006 1.0365 0 1.98261-.0626 2.74048-.13689l-2.53876 1.53072c-.17738.10687-.23438.33717-.1275.51454.1329.17451.34191.22896.51487.12783l4.08075-2.46071c.1203-.0727.18148-.20111.18118-.33645-.005-.12507-.0728-.23184-.1737-.30144l-3.50062-2.21704c-.17512-.11062-.40689-.0588-.51751.1163-.111.17475-.0589.40645.11625.51745l2.64568 1.67552c-2.4135.29962-8.61499.73649-11.37859-2.17237-1.34688-1.41788-1.7059-3.48937-1.06698-6.15712.81273-3.39336 2.39499-6.0401 4.28509-7.95409.25677 1.00949.72701 2.01296 1.40916 3.00333 1.1388 1.65375 2.47557 2.67117 3.97331 3.02442 1.302.30675 2.66021.0851 3.92771-.64127 1.29413-.74175 2.38766-1.96685 2.99966-3.3611.65587-1.49362.69522-3.00305.1113-4.25104-.783-1.67325-2.74575-2.51995-5.25036-2.26532-2.12662.216-4.51225 1.20747-6.64254 2.99097-.0276-.54188.0135-1.08374.1215-1.62411.39566-1.96575 1.63668-3.57673 2.60826-4.58173.49913-.51675.9806-.93118 1.35297-1.22668l-.33339 2.17167c-.0312.20474.1095.39597.31388.42747.0195.003.0387.005.0574.005.18225 0 .34201-.13312.37014-.31838l.4702-3.06562c.015-.0915-.009-.17993-.054-.25731-.14055-.18037-.26484-.20206-.4297-.15701zm83.98786 1.85022c-.00089.002-.001.004-.003.005.0009-.002.001-.004.003-.005zm-.0105.0183c-.001.003-.005.007-.006.0101.001-.003.005-.007.006-.0101zm-.14025.13853c-.002.00093-.003.002-.005.003.001-.0009.003-.002.005-.003zm-.005.003c-.008.004-.0152.008-.023.0113.008-.004.0154-.007.023-.0113zm-.0812.0327c-.0135.003-.0268.006-.0403.008.002-.00036.005-.00036.006-.00067.012-.002.0229-.005.034-.008zm-.16925.006c.00056 0 .001.00037.001.00037-.00057 0-.001-.00037-.001-.00037zm.0915.006c-.002 0-.003.00037-.005.00037.001 0 .003 0 .005-.00037zm-24.04855 3.25242c-.1041.0708-.1569.17963-.16572.30148l-.10275 3.95216c-.006.207.15823.37911.36523.38436.20888.005.37911-.15786.38474-.36486l.0548-2.10563c1.04663 2.25299 2.58221 4.07736 4.58096 5.4386 1.98675 1.35338 4.43923 2.20386 6.90523 2.39436.16088.0127.32592.0188.49505.0188.96937 0 2.06698-.20328 3.20811-.59628 1.2855-.44287 2.6036-1.11674 3.81148-1.94886 2.67711-1.84387 4.48872-4.19961 4.97097-6.46347.043-.2025-.0858-.40165-.28833-.44478-.20288-.0431-.40205.0863-.44517.28878-.4425 2.07786-2.14233 4.26557-4.66271 6.00182-2.36735 1.63049-5.06137 2.5489-7.03162 2.39628-1.97773-.153-8.4371-1.19625-11.19558-8.17272l2.08009 1.06875c.1909.0902.42219-.009.50514-.16205.0945-.1845.0222-.41022-.16238-.50509l-2.92685-1.50414c-.10785-.0562-.25652-.0558-.38069.0225zm-29.53892 16.34424c-.13455-1.46962-.1305-3.43237-.12675-5.33062.005-1.96836.008-4.00423-.141-5.5271-.1293-1.3155-.405-2.83311-1.3995-2.89649-.2235-.0143-.43652.0648-.61727.22797-.94837.85612-1.14749 4.32415-1.36312 9.93338-.0915 2.38199-.18598 4.84498-.39709 6.69072-.29402 2.57099-.71253 2.9055-.81041 2.949-.0416-.0386-.17697-.20326-.31234-.79464-.117-.51-.20778-1.21048-.27828-2.14123-.13275-1.75875-.168-4.02749-.20513-6.42935-.10125-6.58273-.25462-10.97923-1.41036-12.0716-.20812-.19687-.45601-.29515-.71664-.28465v.00001c-.2865.012-.5475.13987-.75525.36975-1.017 1.12686-.87372 4.7831-.53959 10.23259.13425 2.18774.261 4.25442.225 5.81967-.051 2.22936-.43389 2.3396-.43764 2.33997-.29925.0375-.43614-.0412-.51339-.10387-.48338-.3915-.60975-1.8994-.78525-3.98589-.183-2.17462-.43311-5.15285-1.20448-8.93396-.41888-2.05462-.80097-2.43228-1.15158-2.53465-.132-.0386-.39155-.0637-.64617.19989-.1395.14438-.56363.58352-.98663 3.25464-.24525 1.54987-.44397 3.5715-.55909 5.69212-.20513 3.77286-.17855 8.55109.51108 10.64733.10485.199.2763.30246.47329.23889.19688-.0649.30374-.27678.23922-.47328-.55236-1.67887-.73387-5.83084-.46312-10.57796.1215-2.13186.32628-4.13437.5764-5.63812.29325-1.76061.56622-2.35611.6911-2.54849.108.16463.32328.62697.5809 1.88959.76236 3.73761 1.01061 6.69075 1.19174 8.84662.21187 2.52299.32888 3.91279 1.06049 4.50603.28389.23025.64649.31949 1.07849.26549.41887-.0525.71661-.40988.88461-1.06238.12105-.47175.18975-1.12761.21-2.00472.0364-1.59675-.091-3.67877-.22647-5.88301-.13125-2.1435-.26739-4.35976-.24677-6.15975.027-2.39812.33825-3.24.59475-3.52424.0942-.10425.17174-.12036.22874-.12261.0387-.001.0926.006.171.0799.29437.27824.69304 1.21688.92329 4.11074.17138 2.15662.21261 4.836.25274 7.42724.0363 2.36287.0708 4.59448.19836 6.35959.15525 2.14912.42226 3.22312.89214 3.59137.17737.13913.39298.18865.60711.13953.72337-.16612 1.12984-1.20939 1.40322-3.60038.2145-1.87386.30979-4.35153.40167-6.74702.0835-2.17498.16984-4.42421.34496-6.1732.23063-2.30437.54677-3.02963.80477-3.25049.11475-.0128.52948.11848.73386 2.20311.14595 1.48574.14175 3.50251.1377 5.4525-.0105 4.99273.0513 8.06849 1.38411 8.38574.276.066.53923.0113.76086-.15753.81712-.62213.94875-2.73638 1.06875-6.14438.0514-1.46287.10455-2.97561.26961-4.0796.2265-1.51275.56026-1.55736.60319-1.55718.43895.0234.71156 1.51143.95231 2.82505.29287 1.59637.65704 3.58316 1.51841 5.23877.47699.91612 1.07175 1.65675 1.76775 2.20012.807.63 1.77747 1.01999 2.88485 1.15911 4.86409.61162 8.18959.7961 9.72184.8516l-1.99611 1.76401c-.15488.13725-.1695.37424-.0326.52949.0694.0784.16428.12076.26103.12601.0949.005.19158-.0255.26845-.0934.90366-.79967 1.80905-1.5974 2.71242-2.39739.0739-.0658.1128-.15362.12405-.24901.009-.11193-.0338-.2168-.10905-.29663l-2.74762-2.73488c-.14655-.14625-.38438-.14547-.53025.001-.14625.14662-.14595.38437.001.53025l2.08092 2.07114c-1.50825-.0544-4.81203-.23664-9.66076-.84639-4.15761-.52312-4.94888-4.83828-5.52638-7.98902-.16763-.91349-.31238-1.70244-.519-2.29119-.10005-.28463-.40424-1.15051-1.17861-1.149-.27563.00075-.66449.12823-.95174.73086-.1635.3435-.28953.82271-.3859 1.46546-.17138 1.146-.22533 2.68054-.27746 4.16403-.0457 1.29562-.0927 2.63547-.21753 3.68322-.16762 1.40474-.42037 1.78763-.62248 1.90351-.14625-.007-.55503-.2085-.74741-2.31188zm-27.05436-15.30979c1.78623.002 3.14295.67811 3.70437 1.87806 1.09536 2.34036-.59886 5.37941-2.8046 6.64353-1.16925.67012-4.18349 1.80147-6.91022-2.15776-.72533-1.053-1.18994-2.118-1.39142-3.1845 2.09748-1.88286 4.49201-2.92311 6.61113-3.13873.27163-.0276.53556-.0409.79074-.0406zm92.03897 1.98078c-.14595-.005-.28796.0755-.35378.21643-.0873.1875-.006.41065.18117.4984.0607.0281 6.09374 2.87995 6.76049 6.17694.19537.96637-.0923 1.85964-.87978 2.73114-.92925 1.02862-2.23196 1.54764-3.98321 1.58664-1.59186.0356-3.31987-.31389-4.99085-.65214-3.05849-.61913-5.94789-1.2041-7.04101.98289-1.11788 2.23724 1.10513 4.60797 3.06638 6.69934 1.32225 1.41 2.6895 2.86801 2.57063 3.87114-.041.34574-.26402.64759-.68175.92246-1.84463 1.21387-4.49437.56853-6.83212-.001-1.79324-.43688-3.34203-.8141-4.26566-.24786-.363.22238-.60376.57259-.71437 1.04134-.52913 2.23274 1.51051 4.30689 2.98426 5.47426l-1.51276-.26098c-.20438-.0353-.39822.10158-.43346.30558-.0353.20401.10155.39789.30558.43314l3.16088.54602c.15529.0247.30262-.0465.38479-.1759.0723-.11784.0679-.26743-.00045-.38814l-1.67887-2.76712c-.1077-.177-.33825-.23358-.51525-.12596-.177.10763-.23327.33783-.126.51521l.73201 1.20602c-1.317-1.07175-2.98839-2.82752-2.57101-4.58926.0648-.27487.1845-.45748.3765-.57486.65775-.40275 2.13339-.0435 3.69601.33712 2.36361.57562 5.30473 1.29226 7.42197-.10086.52812-.34947.93912-.88087 1.01436-1.46102.15975-1.34961-1.26222-2.86651-2.76822-4.47225-.95063-1.014-1.93428-2.06246-2.54964-3.09034-.65925-1.10062-.78373-1.97776-.39298-2.76075.8366-1.67325 3.33185-1.16815 6.2216-.58315 3.41773.69187 7.29148 1.47603 9.67911-1.16659.94387-1.04474 1.30124-2.18441 1.05824-3.38328-.31537-1.55813-1.62862-3.16424-3.90299-4.77411-1.66161-1.17599-3.20999-1.9031-3.27524-1.93348-.0468-.0218-.096-.0332-.1446-.0349zm-110.96663 8.18365c-.2205 2.12062-1.40736 4.33574-3.17487 5.92536-1.5594 1.40287-4.3669 3.04766-8.88612 2.92016-1.78177-.0502-3.25234.3765-4.37084 1.26788-.99372.79199-1.66022 1.92974-1.92744 3.29023-.31815 1.61962-.0401 3.46385.76278 5.05947.55702 1.107 1.33099 2.03365 2.25252 2.71615l-3.45971-.30751c-.20628-.0184-.38836.13389-.40671.34014.0275.23289.14295.37951.34031.40687l5.23849.46571c.1365.0101.25852-.0507.3393-.15747.0578-.0808.0747-.17555.0648-.27148l-.78135-5.25074c-.0304-.20475-.22139-.34616-.42609-.31541-.20487.0304-.34625.2213-.31575.42604l.6814 4.57909c-2.84522-1.44337-4.06871-4.92638-3.55406-7.5465.51015-2.59687 2.5298-4.03761 5.54116-3.95249 4.76695.13425 7.74769-1.61848 9.40879-3.11248 1.00138-.90036 1.81446-1.95449 2.41671-3.13235.54394-1.06425.89059-2.19605 1.00261-3.27305.0214-.20588-.12825-.39034-.35604-.39257-.22773-.002-.37119.13481-.38994.31495zm-16.55642 1.27919c-.23469.00037-.48368.007-.7463.0228-1.22092.072-2.49162.31467-3.77694.72005-.80985.25575-1.62687.57747-2.4451.96147v.83287c2.60269-1.27238 4.75951-1.67099 6.21841-1.76287 1.95986-.123 3.11593.26516 3.13401.27153.19519.0679.40879-.0345.47742-.22989.0687-.19537-.0341-.4095-.2294-.47812-.0447-.0157-.9892-.34014-2.6321-.33783zm143.03142 1.70431c-.79762.37462-1.59676.80888-2.39139 1.3005-.77512.47963-1.46326 1.01438-2.06064 1.60088-.66525.65324-1.21795 1.37102-1.65333 2.14727-.66262 1.182-1.05417 2.49898-1.16367 3.91497-.10395 1.34287.065 2.5091.2385 3.28985l-4.92185-3.36071c-.15038-.10275-.34875-.081-.474.0416-.0172.0169-.033.036-.0472.0566-.11655.171-.0728.40425.0983.52125l5.77423 3.94238c.0775.0499.16471.073.25473.0622.1053-.0111.19131-.0685.25687-.14733l3.98699-5.33029c.1242-.16575.0905-.40085-.0753-.52498-.16613-.12412-.40124-.09-.52499.0757l-3.53886 4.73098c-.177-.71774-.38925-1.93009-.27712-3.32808.2385-2.97224 1.75989-5.34604 4.52214-7.05453.68998-.42712 1.35711-.79237 1.99685-1.1055zm-46.33268 2.08311c-.16918.0152-.29205.1356-.33531.29375l-1.15015 5.16746c-.045.2025.0822.40275.28426.44775.2025.045.40275-.0825.44775-.2846l.80585-3.61988c.3135 1.31475.75642 3.31347 1.07929 5.3471.97088 6.11772.0423 7.21653-.40203 7.40515-.29551.12525-.66784.16011-1.18834-.53289-.43575-.57975-.8363-1.49588-1.22405-2.38199-.7035-1.608-1.43095-3.27037-2.60545-3.59775-.5205-.14475-1.07101-.0158-1.63651.38397-.16425.11588-.30714.25051-.43089.40276-1.18688 1.45987-.58611 4.50262.0462 7.70585.76012 3.85011 1.54611 7.83111-.76014 8.85898-.68775.30675-1.22322.36566-1.63685.18116-.75075-.33487-1.11639-1.47039-1.50414-2.67264-.31087-.96562-.63259-1.96386-1.20372-2.65648-.68662-.83288-1.63988-1.08452-2.83276-.74702-.73425.20737-1.28061.68479-1.62411 1.41866-.768 1.641-.50662 4.59075.77663 8.76636.52387 1.7055 1.11937 3.27899 1.54687 4.34399l-2.63923-2.14612c-.16088-.13087-.39719-.10648-.52769.0544-.1305.16049-.1065.39674.0544.52761l3.7977 3.08763c.11955.0951.27264.10509.40836.0424.1101-.0576.17678-.15998.19958-.28015l.69559-4.86034c.0297-.20513-.1128-.39488-.318-.42413-.20475-.0296-.39481.11287-.42406.318l-.50367 3.51748c-.42338-1.04812-1.03613-2.65388-1.57313-4.401-1.20937-3.93636-1.49095-6.78145-.8137-8.2282.2505-.5355.62623-.86738 1.14861-1.01513.91725-.2595 1.54986-.10424 2.0501.50251.47963.582.77925 1.51123 1.06875 2.40935.42075 1.30612.85574 2.6561 1.91211 3.12748.61913.27637 1.35413.21752 2.24775-.18073 1.30236-.5805 1.94699-1.863 1.97061-3.92024.0198-1.71825-.38659-3.77741-.77997-5.76903-.621-3.14661-1.26376-6.4001.0818-7.3511.37763-.267.70577-.35622 1.00239-.27373.83137.23138 1.51573 1.79588 2.11948 3.17587.42375.96788.82352 1.88214 1.31177 2.53164.6255.83324 1.32561 1.09308 2.08086.77283.79462-.33713 1.21198-1.36197 1.27573-3.13346.0468-1.29487-.0965-3.00374-.426-5.07936-.32287-2.0355-.765-4.03728-1.08187-5.36703l2.66589 3.19015c.13275.159.36937.17999.52839.0472.15898-.13275.17997-.36938.0472-.52801l-3.71327-4.44374c-.0802-.0931-.19752-.14222-.31878-.13277zm-19.13226 8.54027c-.0486.003-.0974.0166-.14355.0401-.045.0229-1.12012.57525-2.67862 1.716-1.43399 1.04962-3.56211 2.81737-5.5571 5.27623-2.24549 2.76787-3.86809 5.82938-4.82321 9.09974-1.06236 3.63936-1.29416 7.54428-.69378 11.62764l-6.10647-8.00441c-.1257-.165-.36112-.19648-.52575-.0709-.16462.12563-.19648.36113-.0708.52575l7.03047 9.21565c.0787.10122.19894.15175.324.14622.1152-.007.21282-.0679.28083-.15747l5.65838-7.75502c.1218-.16724.0852-.40196-.082-.52421-.16725-.12187-.40164-.0851-.52389.0821l-5.14607 7.05259c-1.62825-9.74659 1.92-16.638 5.24212-20.74199 3.71848-4.59373 7.9706-6.79833 8.01335-6.82008.18413-.0941.25761-.31989.16349-.50438-.0707-.13838-.21545-.21413-.36129-.20363zm-34.61842 14.39996c-.0322 6.99972 1.3327 10.77075 4.05669 11.20724 1.33837.21488 2.51776-.12525 3.50514-1.01024 1.7351-1.55512 2.85452-4.76101 3.32665-9.52799.22087-2.23274.24109-4.3039.22609-5.52227l1.80714 2.25901c.1293.16162.36522.18787.52685.0585.0758-.0607.1218-.14474.13605-.23324.0162-.10088-.009-.2078-.0775-.29367l-2.50311-3.12934c-.0737-.089-.177-.1384-.2936-.14062-.13095.00002-.24286.0687-.31573.17325l-1.94249 3.04876c-.11144.17475-.06.40646.11475.51784.17475.111.40652.0596.51752-.11475l1.28061-2.00962c.0281 3.16574-.20175 11.57589-3.30375 14.35576-.82236.73687-1.76623 1.00762-2.88561.82837-1.22436-.1965-2.1375-1.34364-2.71312-3.40988-.486-1.74299-.72564-4.11375-.71252-7.04662.009-2.02949.1398-4.05073.29324-5.74347.36412-2.51137.50811-4.31252.51036-4.34289.0158-.201-.13005-.37836-.36737-.40234-.20605.0126-.34932.14028-.37707.31444-.005.0306-.28218 1.82416-.51093 4.34302-.25499 1.75425-.61801 3.85649-1.11676 5.93849-1.08712 4.53711-3.04278 9.90828-6.18826 9.73315-.85613-.048-1.56823-.42526-2.17611-1.1535-2.77236-3.32137-2.21098-12.57526-1.91848-15.80287l1.43547 2.4345c.1053.17813.33528.23776.51378.13239s.23775-.33526.13245-.51339l-2.01527-3.41734c-.0701-.10794-.15405-.16939-.30111-.18375-.11265-.006-.21208.039-.29229.11474l-3.00711 3.13983c-.1431.14963-.13815.387.012.53025.14955.14325.38697.13799.53027-.0113l2.25021-2.34975c-.1182 1.27837-.28311 3.53141-.26136 5.9854.0447 5.10336.83397 8.60962 2.34634 10.42161.738.88425 1.65 1.36276 2.71048 1.42163 1.65713.0926 3.14064-.98742 4.40964-3.21003.97163-1.70175 1.83-4.09199 2.55113-7.10436zm-25.46137-10.06608c-1.20903.273-2.44497.92171-3.67355 1.92821-1.31175 1.07474-2.24226 2.45589-2.76553 4.10514-.46343 1.461-.60891 3.135-.43248 4.97586.054.564.13845 1.14262.25198 1.73249-4.83002.57637-9.24608.66261-9.33046.66374-.54931.0556-.40733.74486.0135.75003.0409-.00076 4.14254-.0754 8.74972-.58991.24458-.0274.48611-.0555.72428-.084.52155 2.26986 1.45279 4.66801 2.71477 6.95626 1.04291 1.89111 2.19906 3.49495 3.24344 4.53745l-3.18275-.68736c-.55464-.0572-.56811.63118-.15831.73312l4.75098 1.02601c.1386.0294.26676-.0222.3618-.11997.0693-.0803.0956-.17819.0907-.28164l-.40287-4.79437c-.0174-.20625-.19872-.35962-.40512-.342-.20637.0172-.35964.19839-.34228.40501l.33684 4.00836c-1.09319-.90225-2.45106-2.69852-3.63575-4.84689-1.21564-2.20387-2.1151-4.50826-2.62375-6.68775 5.41716-.70387 9.06728-1.77295 10.86068-3.18257.74511-.58575 1.2765-1.35115 1.5794-2.27477.27427-.83587.34375-1.78011.20088-2.72961-.34463-2.29124-1.824-4.25588-3.76875-5.00475-.61706-.23742-1.26333-.35224-1.79795-.34563-.5346.007-.94351.0559-1.35877.14953zm1.1161.60375c.69823-.0242 1.29201.10796 1.77115.29246 1.69736.65362 2.99141 2.38688 3.29661 4.416.1488.98999.0444 1.91551-.28915 2.70714-.26442.62774-.6728 1.17148-1.21295 1.59598-1.99372 1.56712-6.35441 2.49113-10.5556 3.03376-.1137-.58313-.19788-1.15501-.2512-1.71151-.35561-3.71061.62905-6.54675 2.92681-8.42924 1.69676-1.38984 3.15062-1.8643 4.31433-1.90459zm108.05728.23884-2.05725 4.84013c-.0517.12212-.0318.25396.0382.36149.0582.0847.14685.13428.24489.15485l5.23614.87489c.20437.0341.39747-.1039.43159-.30827.0342-.20438-.1038-.39748-.30822-.4316l-4.5664-.76278c2.25-2.26199 5.94036-2.35274 8.27472-1.05562 2.31337 1.28549 3.06154 3.65103 2.05279 6.48939-1.59712 4.49361-.84828 7.86935.0611 9.91009.54825 1.23 1.30051 2.32837 2.23537 3.26437.84488.84524 1.81466 1.524 2.80466 1.96237.18937.084.41136-.001.49498-.19089.0837-.18937-.002-.41098-.19128-.49498-1.94923-.86325-3.69108-2.67488-4.65858-4.84612-.85387-1.91587-1.55364-5.09359-.0398-9.35358.59699-1.67962.64425-3.21003.141-4.54877-.44737-1.1895-1.32414-2.17421-2.53613-2.84771-1.44299-.80174-3.2831-1.1055-5.0486-.83325-1.22473.18862-2.3445.63935-3.27787 1.30572l1.35862-3.19647c.081-.1905-.007-.41064-.19836-.49202-.19185-.0741-.41199.0381-.49162.19876zm-23.98499 8.65013c-.97425.83325-1.9376 1.92524-2.86385 3.24486-.61574.88745-1.22328 1.88277-1.70849 2.78212l.14355-2.96098c.0105-.20662-.14955-.38252-.35661-.39265-.21846.0131-.38091.15627-.39259.35629-.0762 1.5874-.15545 3.17465-.23105 4.76207-.006.15084.0783.28013.20705.35101.10185.0504.21535.0497.3187.008l3.79165-1.67135c.18975-.0836.27561-.30485.19199-.4946-.0835-.18937-.30485-.27528-.49422-.19165l-2.86617 1.26337c1.0965-2.17087 4.18917-7.5641 8.14465-8.23798 1.92786-.3285 3.84787.52802 5.70711 2.54476 2.36512 2.56574 3.68095 5.35459 4.2172 7.99046-.98137-.34913-2.07673-.51787-3.27936-.50362-2.00773.0244-3.59735.56739-4.72498 1.61438-.98062.91013-1.55323 2.16153-1.65636 3.6184-.1053 1.48837.3026 3.0787 1.11935 4.36382.87487 1.37662 2.10641 2.25077 3.46766 2.46115 1.82586.28238 3.62288-.87566 4.80711-3.09715 1.00538-1.88624 1.51124-4.41974 1.21763-7.18235.46536.279.89248.61424 1.2806 1.00574 1.41225 1.42387 2.058 3.35213 2.35163 4.719.15075.70237.2265 1.33313.26437 1.80676l-1.61739-1.48651c-.15262-.14025-.39-.13009-.52855.0443-.1386.17437-.11715.381.0208.50812l2.28372 2.0985c.0937.0851.21507.11155.33715.0893.1347-.0315.23211-.1302.27641-.25947l1.26897-4.31175c.0585-.19837-.0551-.40688-.25383-.46538-.19838-.0585-.40689.0551-.46539.25384l-.70167 2.38314c-.0395-.25125-.0875-.51828-.147-.79728-.31311-1.46999-1.01025-3.54898-2.55338-5.1071-.57412-.58012-1.22323-1.04925-1.94396-1.40663-.49163-2.90886-1.87652-6.01347-4.48913-8.84771-1.78696-1.93889-3.65521-2.89616-5.56423-2.85496-1.728.0775-3.50083 1.09136-4.57915 1.99995zm10.53862 9.6c1.27875-.0154 2.42172.19196 3.4196.61908.39487 2.79111-.0758 5.35879-1.07771 7.23866-1.02748 1.92749-2.53423 2.93995-4.03048 2.70895-2.55337-.39487-4.13326-3.49536-3.95365-6.0311.0953-1.34437.83514-4.47746 5.64224-4.53559zm14.30885 2.82183c-.21181-.004-.38022.17533-.3915.35739-.009.207.15077.38251.35777.39188 1.31061.0593 5.43484 3.82724 6.41997 8.36586.20137.92848.28273 1.99051.0735 3.08589h.77063c.17213-1.02113.13575-2.10642-.11129-3.24492-.6075-2.80049-2.28188-5.06211-3.22575-6.16123-1.42163-1.65487-2.94978-2.75212-3.89327-2.79487zm-126.53401 1.70179c-.11895.0997-.15366.24951-.1194.39523l1.49661 5.07859c.0585.19874.26707.312.4657.2535.19868-.0585.3123-.26696.25373-.46571l-1.04843-3.55725c.9113.99824 2.26692 2.53235 3.5343 4.15535 1.67928 2.1506 2.56421 3.6274 3.00366 4.63952h.81014c-.105-.27-.23471-.55765-.38976-.86325-.58632-1.15538-1.53944-2.58112-2.83289-4.23786-1.26843-1.62412-2.6248-3.1613-3.546-4.17118l3.87752 1.50002c.19315.0746.41031-.0214.48504-.2145.0747-.1935-.0213-.41059-.21446-.48522l-5.40058-2.08915c-.1308-.0487-.2661-.022-.37519.0619zm87.24047 3.70612c-.16275.12862-.19054.36447-.0622.52685.12855.16237.36453.1901.52691.0619l3.61087-2.85073c-.67311 1.74749-1.94511 5.1094-3.32061 9.05514h.7946c1.33423-3.81637 2.56048-7.05714 3.21898-8.76714l.60979 3.92887c.0543.2117.23063.34099.42825.31311.20475-.0319.34461-.22349.31311-.42824l-.82425-5.30771c-.03-.15724-.12855-.26007-.26961-.30339-.11805-.0326-.23629-.004-.33305.0668zm-65.11491.35436c-.2553.005-.42806.23613-.38057.45934l1.38389 5.97941h.76981l-1.31209-5.66927 10.19947.4144-2.05428 5.25487h.80514l2.13898-5.47163c.0761-.25338-.0792-.4984-.33409-.51152zm80.32075.32097c-.0165.0435-.96638 2.55154-2.46375 6.11778h.813c1.43325-3.426 2.33626-5.81026 2.35239-5.85263.0732-.19387-.0248-.41102-.26807-.45631-.24331-.0453-.37873.046-.43357.19116zm-53.89231 2.31454c-1.75386.34574-3.12783 1.62449-4.09157 3.80324h.82611c.84713-1.75687 1.99088-2.78737 3.40988-3.06749 2.5481-.50288 5.54395 1.42649 7.5487 3.06749h1.16553c-.51038-.44813-1.11827-.94692-1.79402-1.43591-1.17298-.84901-2.30475-1.48835-3.3645-1.90047-1.28694-.43715-2.45707-.70667-3.70013-.46686zm24.97596.8288c-.77583-.009-1.57821.0605-2.38557.20803-1.938.35437-3.75525 1.12691-5.25525 2.23429-.23062.16987-.45189.34762-.66451.53212h1.21761c1.51424-1.08524 3.26398-1.74115 4.83673-2.02841 3.11586-.56962 6.00977.12939 7.37252 1.7805.0668.0806.1293.16315.18858.24791h.88088c-.15074-.27639-.31911-.51751-.49086-.72526-.786-.95212-1.98711-1.63991-3.47399-1.98902-.70105-.16463-1.45033-.25139-2.22614-.26016zm-16.25117.28422c-.0369.001-.0741.009-.1107.0217-.195.0701-.29628.28463-.22616.47961l.78564 2.18891h.79689l-.87676-2.44203c-.057-.15843-.20928-.25496-.36897-.24819zm-56.64558 1.41223c-.1224.002-.24255.0166-.36019.0446-.65043.26948-1.07492.71432-1.29299 1.23338h.84387c.17595-.2805.38111-.44625.62298-.50399.4378-.10425 1.01626.12825 1.63921.50399h1.34192c-.97272-.70842-1.93817-1.29312-2.7948-1.27798z" fill="#54301c"/><path d="m589.09545 209.1153h150.00009v150.00006h-150.00009z" fill="url(#b)"/><g stroke-width="2.64667" transform="matrix(-.09874595 1.4246128 -1.4246128 -.09874595 641.68368 1228.1943)"><g stroke-width="2.64667" transform="translate(0 -3.00343)"><path d="m-534.18708 474.76109 12.95081 10.43362 5.30935.034v-70.09524h-5.30935l-4.23248 5.93096-8.73633 16.78516z" fill="#685936" stroke-width="1.1854"/><path d="m-521.24448 480.02432v-56.761l-8.19767 15.75111.002 7.68753 4.46989-2.13049-4.4677 6.60284.004 12.79087 1.68876-.6841-1.68718 4.36788.006 4.43182z" fill="#a68f58" stroke-width="11.2909"/><path d="m-510.99684 485.19471h7.55859l14.17773-10.22594-.004-5.81641.0137.008-.0254-12.10938-.42383-1.83594 1.98242 1.69922-2.30664-10.37304.74805.49414-.006-20.50196-21.70662-16.15645z" fill="#685936" stroke-width="1.1854"/><path d="m-506.23295 480.44485 12.20812-8.85232-.003-5.13333-4.95622-9.03841 4.95404 2.72578-.007-3.4965-3.56739-15.4257 2.13705 1.83099-1.76552-7.9392 3.19156 2.11052-.003-9.24916-12.18358-9.06802z" fill="#a68f58" stroke-width="11.2909"/></g><g stroke-width="1.18555" transform="translate(-.017374 -3.63513)"><path d="m-504.03604 240.33686-7.19441.0655-7.2566.0663-8.39455-12.3032 15.65115-89.63941 15.66033 89.66499z" fill="#81817e"/><path d="m-521.21897 228.10876 9.96201-64.91946 10.02421 64.9373-5.29384 8.61053-4.75534.0435-4.75533.0435z" fill="url(#g)"/></g><g stroke-width="2.64667" transform="matrix(.99999286 -.00377905 .00377905 .99999286 -71.935685 60.761699)"><path d="m-449.62124 170.8511-1.28036 251.93504 19.94418-.00001.99617-252.43974-4.37616-1.13199-10.9521.64753z" fill="#81817e" stroke-width="1.18555"/><path d="m-444.61205 169.67434-.96907 248.32788 9.67377.0366.94782-246.71794.0202-2.24243-4.83638.29797z" fill="url(#i)" stroke-width="1.18555"/><path d="m-439.17786 168.86352c-1.8301.0984-3.66187.40973-5.43413.81083-1.75731.3977-5.01266 2.02288-5.01266 2.02288l-.0434 4.8268c6.60897-2.26906 11.83566-3.44938 19.66013-.50461l.0434-4.8268c-1.36225-.57893-3.19913-1.80927-4.97492-2.1144-1.39288-.23932-2.81501-.29126-4.23842-.2147zm-.0876 9.74005c-1.8301.0984-3.66187.40973-5.43413.81082-1.75731.39771-5.01263 2.0234-5.01263 2.0234l-.0434 4.8268c6.60896-2.26906 11.83567-3.44937 19.66014-.50461l.0434-4.82731c-1.36225-.57893-3.19911-1.80876-4.9749-2.11388-1.39287-.23933-2.81503-.29178-4.23844-.21522z" fill="#81817e" stroke-width=".313635"/></g></g></svg>