<svg height="500" viewBox="0 0 500 500" width="500" xmlns="http://www.w3.org/2000/svg" xmlns:xlink="http://www.w3.org/1999/xlink"><filter id="a" color-interpolation-filters="sRGB" height="1.15" width="1.15" x="-.075" y="-.075"><feGaussianBlur stdDeviation="2.4714234"/></filter><radialGradient id="b" cx="163.37337" cy="106.10253" fx="163.37335" gradientTransform="matrix(-1.6753118 1.8391875 -1.3523458 -1.2318435 462.82697 -255.92692)" gradientUnits="userSpaceOnUse" r="42.695023"><stop offset="0" stop-color="#f3f3f1"/><stop offset=".03125" stop-color="#eef3f4"/><stop offset=".0625" stop-color="#ebf5f7"/><stop offset=".09375" stop-color="#eef3f4"/><stop offset=".15625" stop-color="#e4ebee"/><stop offset=".1875" stop-color="#dce8ef"/><stop offset=".21875" stop-color="#e4ebee"/><stop offset=".28125" stop-color="#e1e4ef"/><stop offset=".3125" stop-color="#dbe0f0"/><stop offset=".34375" stop-color="#e1e4ef"/><stop offset=".40625" stop-color="#d8e3eb"/><stop offset=".4375" stop-color="#dbe7f1"/><stop offset=".46875" stop-color="#d8e3eb"/><stop offset=".53125" stop-color="#f4eaea"/><stop offset=".5625" stop-color="#f8e8e8"/><stop offset=".59375" stop-color="#f4eaea"/><stop offset=".65625" stop-color="#eee4e7"/><stop offset=".71426684" stop-color="#eedde2"/><stop offset=".76595175" stop-color="#eee4e7"/><stop offset=".8775022" stop-color="#f3f3f1"/><stop offset=".9375" stop-color="#f3f1f1"/><stop offset="1" stop-color="#f3f3f1"/></radialGradient><filter id="c" color-interpolation-filters="sRGB" height="1.096009" width="1.095991" x="-.047996" y="-.048004"><feGaussianBlur stdDeviation="1.7079542"/></filter><radialGradient id="d" cx="154.66905" cy="82.585289" gradientTransform="matrix(-1.2466927 1.2592688 -1.2592659 -1.2466955 342.45993 -177.96551)" gradientUnits="userSpaceOnUse" r="40.30827"><stop offset=".12393165" stop-color="#295742" stop-opacity="0"/><stop offset=".41729519" stop-color="#295742" stop-opacity=".1"/><stop offset=".66706532" stop-color="#295742" stop-opacity=".5"/><stop offset=".91683543" stop-color="#295742" stop-opacity=".75"/><stop offset="1" stop-color="#295742"/></radialGradient><filter id="e" color-interpolation-filters="sRGB" height="1.037503" width="1.037497" x="-.018748" y="-.018752"><feGaussianBlur stdDeviation=".6671696"/></filter><filter id="f" color-interpolation-filters="sRGB" height="1.294" width="1.294" x="-.147" y="-.147"><feGaussianBlur stdDeviation="3.1528593"/></filter><filter id="g" color-interpolation-filters="sRGB" height="1.294" width="1.294" x="-.147" y="-.147"><feGaussianBlur stdDeviation="1.6361592"/></filter><radialGradient id="h" cx="116.40206" cy="-24.929573" gradientTransform="matrix(-.03148079 1.4177805 -.31227751 -.0069339 112.28155 -190.13501)" gradientUnits="userSpaceOnUse" r="45.47419" spreadMethod="reflect"><stop offset="0" stop-color="#26a269"/><stop offset=".17671233" stop-color="#8196a3"/><stop offset=".49520546" stop-color="#ae90c0"/><stop offset="1" stop-color="#d394bb"/></radialGradient><radialGradient id="i" cx="116.40206" cy="-24.929573" gradientTransform="matrix(-.03148079 1.4177805 -.31227751 -.0069339 112.28155 -190.13501)" gradientUnits="userSpaceOnUse" r="45.47419" spreadMethod="reflect"><stop offset="0" stop-color="#256f4d"/><stop offset=".17671233" stop-color="#556168"/><stop offset=".49520546" stop-color="#7b608a"/><stop offset="1" stop-color="#a65988"/></radialGradient><filter id="j" color-interpolation-filters="sRGB" height="1.054" width="1.054" x="-.027" y="-.027"><feGaussianBlur stdDeviation=".90693679"/></filter><filter id="k" color-interpolation-filters="sRGB" height="1.037422" width="1.037579" x="-.018789" y="-.018711"><feGaussianBlur stdDeviation=".67960174"/></filter><mask id="l" maskUnits="userSpaceOnUse"><path d="m-13.229159-13.22917h158.749999v158.75002h-158.749999z" fill="url(#m)" filter="url(#n)" stroke-width="11.83"/></mask><radialGradient id="m" cx="66.145844" cy="66.145836" gradientTransform="matrix(-1.0000001 .00000145 0 -1 132.29169 132.29157)" gradientUnits="userSpaceOnUse" r="66.145836"><stop offset="0" stop-color="#fff"/><stop offset=".25342461" stop-color="#fff"/><stop offset=".75273961" stop-color="#808080"/><stop offset=".87499994" stop-color="#404040"/><stop offset="1"/></radialGradient><filter id="n" color-interpolation-filters="sRGB" height="1.0135" width="1.0135" x="-.00675" y="-.00675"><feGaussianBlur stdDeviation=".44648439"/></filter><radialGradient id="o" cx="703.05621" cy="255.40021" gradientTransform="matrix(.12107523 -.12107523 .05841622 .05841622 -57.692804 112.54712)" gradientUnits="userSpaceOnUse" r="1011.8609"><stop offset="0" stop-color="#ff009d"/><stop offset=".08962709" stop-color="#ff009d" stop-opacity=".9104"/><stop offset="1" stop-color="#ff009d" stop-opacity="0"/></radialGradient><radialGradient id="p" cx="703.05621" cy="1070.2185" gradientTransform="matrix(.12107523 -.12107523 .05841622 .05841622 -57.692804 112.54712)" gradientUnits="userSpaceOnUse" r="1011.8609"><stop offset="0" stop-color="#00ff8c"/><stop offset=".08962709" stop-color="#00ff8c" stop-opacity=".9104"/><stop offset="1" stop-color="#00ff8c" stop-opacity="0"/></radialGradient><clipPath id="q"><ellipse cx="66.152519" cy="-66.146759" rx="43.604259" ry="43.593754" transform="rotate(90)"/></clipPath><g mask="url(#l)" stroke-width=".094494" transform="matrix(-3.7795275 0 0 -3.7795275 499.99998 499.99998)"><path d="m-16.763244-16.763244c-67.65774 67.657739-96.043756 148.969874-63.396059 181.617564 32.647695 32.64769 113.959825 4.26168 181.617563-63.39606 67.65774-67.657738 96.04375-148.969868 63.39606-181.617563-32.64769-32.647697-113.959825-4.261681-181.617564 63.396059z" fill="url(#o)" opacity=".3"/><path d="m30.833409 30.833409c-67.65774 67.657739-96.043753 148.969871-63.396059 181.617561 32.64769465 32.6477 113.959825 4.26168 181.61756-63.39606 67.65774-67.657735 96.04376-148.96986535 63.39606-181.61756-32.64769-32.647694-113.959822-4.261681-181.617561 63.396059z" fill="url(#p)" opacity=".3"/></g><g clip-path="url(#q)" stroke-width=".884192" transform="matrix(0 -4.2745567 4.2745567 0 -32.742491 532.73129)"><ellipse cx="66.152519" cy="-66.146759" fill="#295742" rx="43.604259" ry="43.593754" transform="rotate(90)"/><ellipse cx="66.152519" cy="-66.146759" fill="url(#i)" filter="url(#j)" rx="40.308334" ry="40.30827" stroke-width=".802184" transform="rotate(90)"/><circle cx="66.145836" cy="39.542774" fill="url(#h)" filter="url(#a)" r="39.542774" transform="matrix(.90725093 0 0 .90725093 6.135896 30.277237)"/><use fill="#248e5e" filter="url(#k)" opacity=".5" xlink:href="#r"/><path id="r" clip-path="none" d="m381.65019 118.56719a186.38888 186.34397 45 0 0 -6.30734-5.87368c-3.97869 6.14491-7.8199 12.41182-11.30404 15.38924-8.63717 21.76779-9.54439 52.17498-38.90607 56.7467-21.43774 6.39337-41.95547 24.33681-33.78368 48.73512 4.44689 31.80411-23.87755 47.23073-51.34811 50.07753-27.0843 10.36867-21.54973-31.51596-39.57174-32.91776-.96436 22.76923-5.34251 46.40129-22.71718 63.757-11.42736 16.05421-45.05902 15.21063-38.13958 41.68892 5.71111 14.96398.76908 27.35601-7.27132 38.57461a186.38888 186.34397 45 0 0 7.43844 5.82534c8.99226-13.44938 11.96625-29.3838 7.60277-46.54613 6.98398-22.42926 35.32091-31.78879 45.44818-54.22073 9.94754-28.69964 35.02203-1.67881 54.4569-14.84509 21.5013-5.07729 47.9375-13.55557 46.34035-40.63655 1.25597-21.64594 1.93832-47.80197 28.10473-54.18482 25.17736-4.13039 40.49005-23.87501 45.04905-47.80843 2.94139-7.95659 9.55857-15.64651 15.65994-22.99063a186.38888 186.34397 45 0 0 -.7513-.77064zm10.56792 11.51534c-2.04156 6.45013-3.76664 12.82314-5.35716 16.28141-8.37783 20.70675-23.05044 40.75956-46.43703 45.24655-19.62121 3.65263-39.5132 16.7825-36.66045 39.34801-6.13076 20.06535-6.31132 49.91451-34.0005 51.50416-20.38053 4.37301-37.68357 19.44096-59.17738 18.34473-22.28054 7.15069-34.7865 31.07962-45.33633 50.58161-8.07414 19.00286 7.08966 43.57611-11.86475 58.22721a186.38888 186.34397 45 0 0 7.73674 4.54371c5.18315-6.23044 9.28866-12.96267 10.0017-21.24359-3.9458-23.17563-3.70423-48.59189 13.47784-66.83678 10.21909-20.89004 34.57554-16.90992 51.63676-27.06203 16.37931-10.83644 36.30192-13.28782 53.75944-21.2933 11.29251-7.30441 14.48733-47.56517 17.82407-42.90149-8.14086 18.92005-1.93142 52.87805-31.01603 53.1214-21.49912 2.66075-38.03172 17.37863-56.5713 26.7789-25.13523 1.46945-43.73833 24.83377-43.82266 49.17569-.16982 18.95543 12.88205 41.32085.145 57.63611a186.38888 186.34397 45 0 0 6.70647 2.7787c5.30307-10.4334 7.00712-21.83879.56071-34.33887-4.47124-11.82098-6.03033-35.87704-.67534-41.55219-8.68381 27.52119 14.62284 53.33606 12.43514 80.11575a186.38888 186.34397 45 0 0 8.66343 2.35472c-2.1241-15.95789-10.53564-31.88424-13.80792-47.34025 4.65014 15.80901 14.05165 31.50136 16.22893 47.95759a186.38888 186.34397 45 0 0 3.1157.79549c-2.83326-11.25096-6.74864-21.53535-4.82683-18.86953 2.26381 5.08188 4.90366 12.22883 6.68712 19.2438a186.38888 186.34397 45 0 0 7.17603 1.29545c-7.78462-19.63083-18.89868-38.47527-19.59873-59.8983 2.04261-28.52828 30.97834-5.10039 37.98627 8.60267 15.58141 21.13233 38.39094 45.56954 67.25663 40.52744 13.13716.6239 33.81051-37.20467 18.96344-11.58026-13.69918 21.37307-43.87737 15.28426-60.45901.99023-19.55589-13.3338-29.32446-37.02449-49.6342-49.1674-27.26353 6.0897-2.0876 45.30701 3.70679 62.79992.90842 2.43309 2.11226 5.19152 3.32009 8.00467a186.38888 186.34397 45 0 0 2.54392.45851c-8.42266-19.63512-20.54222-38.71852-19.51863-60.56397.75307-9.5115 17.54173-8.20313 2.86571-4.91798-1.8126 2.90946-3.13029 7.15635-2.6475 10.4754 2.30514 19.81752 12.43921 37.20652 20.67182 55.19024a186.38888 186.34397 45 0 0 4.4871.48199c-4.85626-8.31459-9.90159-16.54879-12.2487-24.75012-10.71425-10.88766-11.65339-49.64176 9.21863-26.9543 18.61165 20.04088 39.91076 45.41096 68.7026 47.51702a186.38888 186.34397 45 0 0 25.33432-8.19526c14.76914-12.62235 21.52779-35.45249 38.20724-46.88587 13.24609-18.80177 17.232-46.23225 7.937-67.44445-13.28573-16.40558-28.44483-37.40244-15.80771-58.73406 11.13493-24.30574 45.17021-16.46389 58.45233 1.54127 17.30318 12.45957 3.3111 43.76635 19.90394 52.17398a186.38888 186.34397 45 0 0 1.41836-5.01189c-6.04668-4.28664-9.63195-11.53187-7.65802-21.46042-3.0019-27.89136-35.57182-54.18662-62.86207-40.81193-17.95878 12.18555-23.33043 40.95119-7.80442 57.4179 15.44324 15.51861 19.39675 37.59944 15.10198 58.48961-3.26702 21.58498-24.44826 33.82206-34.32092 50.78877 7.94456-19.19477 30.3564-30.51632 32.9578-52.75404 4.33505-21.80918-3.47563-42.7404-18.17899-58.75201-15.3154-19.43889-4.25942-53.87569 19.77965-59.85825 31.27388-4.63117 57.74355 25.15428 59.47432 54.79802.842 3.70462 2.41354 6.5084 4.40284 8.68139a186.38888 186.34397 45 0 0 3.11569-15.24147c-5.48153-9.45978-9.24063-22.62748-16.10188-29.01484-15.16226-19.29467-46.08285-34.51817-67.79938-16.96504-17.99493 16.26192-23.50598 45.51665-6.73961 64.62845 18.72151 19.90541 23.96696 53.52825 4.43185 74.71991-17.4784 14.23724-21.68189 43.11209-46.25611 48.14542-28.07371 2.64408-50.20216-21.14441-62.04172-44.06574-6.90393-13.61712-32.37641-27.97152-40.08135-15.42376 2.3203-6.74547 6.52298-12.16925 14.24848-7.20227 27.82476 19.93858 15.76463-23.25451 31.44415-34.20353 13.25491-16.99272 47.59766-19.36663 51.6989 6.6595 4.38577 20.07729 12.96292 54.43822-13.5469 62.21573-11.02818 4.83192-45.54712-14.67312-27.53849 8.78359 13.50897 17.81828 42.77083 31.16846 61.41609 13.09529 12.69036-21.4472 33.88101-38.52479 40.75255-62.9325 5.81154-25.91713-17.07707-43.78583-25.3205-65.65873-6.41872-19.93761 5.14571-41.90854 21.12481-53.57715 29.02537-14.1326 61.28546 9.37778 74.68263 34.83053.75336 5.12912 2.98505 9.73613 6.00351 13.44746a186.38888 186.34397 45 0 0 .59386-4.41113c-6.05592-7.88899-10.99899-19.16551-17.59481-27.73184 6.69565 7.0344 12.666 14.94075 18.12238 22.90915a186.38888 186.34397 45 0 0 .56209-7.32381c-18.86972-24.42808-47.96895-49.66978-80.91953-40.05925-19.64906 8.40553-31.03392 31.3317-32.53106 51.91297-5.6819 24.64954 18.93288 37.95075 26.68223 57.98827 8.26711 23.83165-15.03463 40.13324-24.1162 59.43012-5.25289 15.10302-25.99272 28.34206-38.73067 19.69679 28.92084 4.78251 35.96815-31.30297 48.96714-49.64663 17.03223-21.0592-3.45476-40.90482-17.66385-55.30625-9.97458-28.4887 1.70225-61.42706 21.37478-83.0809 26.15887-19.90682 61.51714-3.69359 82.9718 15.63921 3.22822 3.9817 8.80999 8.93072 14.254 12.06363a186.38888 186.34397 45 0 0 -.2113-8.00328c-8.76219-2.83753-21.97493-14.44827-28.71378-18.61542-20.6551-13.56332-49.51113-19.33129-71.06838-4.3987 24.70467-19.49491 59.28162-7.25214 82.02163 9.37469 4.91196 5.70177 12.71729 8.56483 17.33378 7.00063a186.38888 186.34397 45 0 0 -13.57037-55.85591c1.16698 17.24236 13.97992 33.85102 10.03069 50.4877-22.44554-5.01757-41.79979-25.44135-66.92793-23.04312-28.30931-1.97986-43.73385 23.71149-49.26269 47.90925-1.16789.1864-4.79808 22.91764-4.57133 14.57579 4.68486-20.54684 8.76734-46.12306 28.04672-57.97171 26.06172-13.7843 55.61734-2.4002 79.31335 10.91182 21.92535 5.07123-.18019-30.37316 1.55647-41.98585-.0531-1.39456.11496-3.03556.21544-4.62105a186.38888 186.34397 45 0 0 -7.35281-14.86582c-1.76579 12.78519-.8478 25.96155 2.77319 38.39645-5.41848-13.30773-7.02084-28.35429-5.41517-43.02717a186.38888 186.34397 45 0 0 -4.21363-6.81557c-2.71693 14.78057-1.74817 30.19932 1.78019 44.78942-9.68125 18.92811-40.54376-6.64754-57.91784 6.60012-18.45053.31065-35.18966 21.03693-36.40081 32.6084-.50176-24.69681 24.86469-33.66192 45.10982-36.64665 16.22285-5.25064 51.41898 6.33115 40.11864-23.30828-1.43239-9.37807.8238-19.51096 3.92914-29.07562a186.38888 186.34397 45 0 0 -10.62318-13.83278zm-26.75404-25.77901a186.38888 186.34397 45 0 0 -10.56103-7.768507c-8.81777 12.560737-13.8868 26.683177-10.18814 43.607217.5915 29.94311-32.4588 36.94813-52.72089 50.01123-28.25235 8.37246-10.23463 36.3899-13.76372 56.12936 1.98851 24.92438-45.49374 36.91025-49.61625 8.66483-5.96607-10.98245-17.67404-53.54861-32.33494-33.55029-16.38494 19.62643-3.67117 46.2056-13.66014 67.82011-6.16894 18.5329-26.23076 27.62494-44.68307 22.5915-23.14258-9.25926-27.10509 12.03367-21.04334 29.05906 6.00503 13.5549 2.6189 25.2114-3.88908 35.73375a186.38888 186.34397 45 0 0 5.11548 5.49665 186.38888 186.34397 45 0 0 4.24678 3.95399c2.08385-2.85594 4.12968-5.46825 6.10432-7.02687 7.91478-18.10225-14.83508-56.72883 17.08242-57.90679 30.89305 1.05961 49.87301-33.36526 45.74097-61.05149-7.80957-20.97901 20.31987-37.49118 26.82587-11.10379 1.21982 26.90367 26.82454 35.77933 48.50311 22.71304 23.43161-7.92217 19.61439-38.07334 15.99139-57.23007 4.25795-25.61115 36.54285-29.02038 54.58394-42.40292 20.76292-13.88494 7.57819-43.19353 22.02665-60.04193 1.32823-2.53968 3.67344-5.11597 6.23967-7.69808zm-14.94177-10.798567a186.38888 186.34397 45 0 0 -3.73027-2.213855c-7.60311 11.672342-9.38657 25.772952-5.90959 40.441812 3.06096 22.21365-14.71261 38.3546-33.66629 45.7092-15.79461 9.08806-47.0325 15.95047-36.38147 40.82852 6.39584 17.57334 5.82115 48.44617-19.6526 47.83742-25.31353-3.73467-22.51522-40.53748-38.29701-56.73426-11.88387-24.47303-22.60943-1.5337-23.72261 14.254-9.97133 22.73286 2.13926 49.76555-12.90056 70.90541-12.57529 21.10488-39.33544 12.60073-58.31973 7.70083-29.461198-7.96135-3.82511 33.47807-6.50346 48.21447 3.50863 7.44522.39091 13.73686-4.37521 19.44267a186.38888 186.34397 45 0 0 3.04111 3.5963c6.43427-12.26793 7.56079-26.47594 2.09784-41.1572-9.61875-19.33548 2.61359-32.3028 22.06532-23.6066 22.88481 8.48758 47.30331-6.53085 50.39379-30.46773 1.12707-24.30118-.1316-49.82555 14.91968-70.8198 17.04825 3.29578 22.53937 29.84533 30.64037 44.44002 2.6584 23.96875 38.39623 20.65445 44.96067 1.41006 8.39575-21.13848-16.96556-51.66155 11.8758-62.95598 19.75466-12.69126 51.6601-18.43801 55.22614-46.10281-1.36213-18.27162-1.05577-36.1849 8.23808-50.722477zm-7.90938-4.69425a186.38888 186.34397 45 0 0 -9.65229-5.150004c-1.94031 4.215696-3.30916 8.117564-3.78274 10.793044 2.70285 21.156507 11.27226 46.996377-6.10709 64.310817-16.92905 15.18583-39.49183 20.08274-60.64407 25.67819-18.20688 15.21551 4.92668 40.7372-4.34622 60.65513-12.98792 12.67531-17.92793-22.22299-26.46816-30.13353-10.12714-17.18622-20.26249-40.16241-41.2456-45.02419-11.15472 19.37468-1.7738 47.50751-9.49622 69.8986-.46791 20.63926 2.61932 49.14587-19.72304 59.72705-29.14197 6.60546-55.33283-12.47565-79.427979-25.77901-10.866711 9.71541 12.025596 34.30507 12.490384 49.72949 4.754777 10.75201 4.333702 20.93174.736112 30.18877a186.38888 186.34397 45 0 0 9.156483 12.50971c9.09088-16.20728-.53496-38.16482-4.561675-55.43469-12.584174-28.11931 20.683515-10.05856 33.354175-6.9813 21.6952 8.61739 47.69711-3.39424 49.4809-28.32846.78686-23.88306 2.22632-47.53908 9.13024-70.65958-3.09687-20.60399 17.23603-15.58384 22.37192-1.28854 13.99803 17.86022 14.96835 45.72016 33.24784 59.22848 32.94354 4.42863 24.30655-37.55638 18.56844-56.6224 6.70088-27.26498 46.6306-24.3189 63.26949-44.82119 17.88972-17.69867 5.02201-43.61545 9.02114-64.805224.62674-2.605569 2.44054-5.161996 4.62796-7.691163zm-20.76712-10.246145a186.38888 186.34397 45 0 0 -5.22458-2.164133c-.86004 9.41141.91696 19.261294 5.14448 28.514905 9.32903 22.83651-.0182 52.13221-26.25272 57.18864-18.27705 5.49804-20.9822-22.5504-24.98214-35.04459 9.37498 15.81854 19.48873 36.2868 39.08147 17.60861 17.43526-16.09884 5.8112-42.3811-.58144-60.953428-2.16046-3.719233-3.31635-7.482044-3.77584-11.230845a186.38888 186.34397 45 0 0 -5.2232-1.557844c1.96225 7.605816 4.94843 15.016095 8.41761 21.673096 8.55212 13.771721 9.52669 44.453721-3.57283 47.753181 18.44528-18.3303 2.68593-45.846307-5.66375-65.281694-.64906-1.542842-1.13635-3.166143-1.65176-4.775731a186.38888 186.34397 45 0 0 -1.92521-.491664c3.60786 10.947024 8.82032 21.653856 13.13258 32.138829 15.21007 24.0794-18.02544 55.57253-30.58513 22.12471-7.6489-7.79336 3.77569 1.77443 4.16944 2.97068 19.52588 24.36536 35.58951-12.8011 23.17984-29.831071-3.77311-9.459709-8.92152-18.635618-12.64505-28.104729a186.38888 186.34397 45 0 0 -7.58483-1.624137c6.53935 12.312538 15.03083 24.114219 16.71507 38.201717 4.62467 12.1346-9.13994 19.65023-16.72612 8.47562 28.38957 7.68742 7.15036-34.960743-2.03846-47.047465a186.38888 186.34397 45 0 0 -2.97343-.537234c7.04994 11.720096 15.20093 23.154897 16.11844 37.049909-12.22774 20.52326-41.63965-11.540835-57.01739-18.825335-11.25211-4.529154-22.29215-9.446912-32.46615-15.722075a186.38888 186.34397 45 0 0 -2.82289.720911c14.33213 9.534768 33.09596 11.573485 46.04204 23.688076-13.98615-11.311021-33.10486-13.28317-47.46454-23.326235a186.38888 186.34397 45 0 0 -.77617.198878c1.80246 1.430913 3.67731 2.743053 5.59747 3.981618-2.37505-1.167239-4.73653-2.35966-7.06416-3.60873a186.38888 186.34397 45 0 0 -4.10729 1.12971c.91345 1.000142 1.82396 2.007441 2.7428 2.999679-1.24294-.859939-2.45474-1.769766-3.65569-2.697222a186.38888 186.34397 45 0 0 -2.87677.957082c1.49513 2.218979 2.94048 4.470777 4.31998 6.761707 7.47221 2.430166 15.48741 3.755192 23.32486 5.517365-6.53632-2.207891-12.61733-5.063689-18.23976-8.624769 18.78853 7.844986 40.33507 10.788431 54.61433 27.06478 17.90304 18.9339-12.70928-12.69486-21.3306-14.6186-1.49319-.243288-2.88496-.622587-4.33379-.925313 6.36241 2.208619 12.3225 5.331316 17.38626 10.44502 15.23005 13.417593 30.30894 28.006033 38.24454 47.091653-15.10962-21.71852-30.85371-46.128262-56.14041-57.25632-.78413-.353072-1.73767-.624997-2.60056-.946024-2.34236-.570189-4.60622-1.250596-6.83352-1.98045-11.56239-2.517251-24.23689-1.328411-20.89694 9.525223-4.20496-9.75049-13.89857-12.852983-24.03196-15.847752a186.38888 186.34397 45 0 0 -3.35876 1.389353c1.41806.520628 2.40741.835211 4.89727 1.878249 11.44758 2.350055 18.88957 9.948864 24.82746 19.256231-.39075-.96998-.75406-1.936719-1.02475-2.891949-.20376-.834563-.52444-1.528058-.79135-2.285681.83702 2.036249 2.12316 4.33354 4.07139 6.9965 5.98469 14.46457 37.64815 49.67503 8.98384 54.15857-3.7602-2.56499-7.80164-4.43004-11.83437-5.66652 6.62181 1.70377 13.01736 3.32228 17.54371 2.87953 10.50885-13.11315-1.15307-27.48261-10.20886-41.16964 4.10923 8.38161 7.789 17.06228 12.29979 24.21842 5.98351 7.94491-9.85116 23.47816-.34251 7.75331.25885-3.55472-.59151-7.02203-1.62689-10.37459-10.8565-17.77853-17.56266-43.316106-39.26238-50.432454-3.63278-1.351906-6.47607-2.67183-8.64687-3.77998a186.38888 186.34397 45 0 0 -2.62127 1.312014c6.09215 3.459861 8.48388 4.7664-1.12971.566239a186.38888 186.34397 45 0 0 -.54276.27207c15.88965 8.392214 32.85718 15.35408 39.91838 33.827871 6.51298 5.89354 9.21248 14.52968 8.08478 21.06129-5.54183-23.5738-22.76682-45.289376-46.58065-52.480583-1.13518-.150543-2.39398-.636203-3.69437-1.271957a186.38888 186.34397 45 0 0 -2.05917 1.031653c16.24662 10.168943 34.77102 18.062097 42.99818 36.810987 17.37922 23.92178-14.94735 22.80585-29.18888 14.26504-34.24924-10.99726-14.63934 37.80492-13.61871 55.17782 3.90422 22.89603 3.17289 46.52658 1.59099 69.54505-5.51449 23.69864-36.885 18.71225-52.54687 8.76702-19.41157-11.66503-37.484307-28.93935-46.033759-50.24049a186.38888 186.34397 45 0 0 -.928084 5.98831c13.230413 20.57877 31.254664 39.24256 52.890763 49.97395-22.51101-10.07103-38.620422-28.87117-53.056488-48.41334a186.38888 186.34397 45 0 0 -.273445 2.53288c20.546769 25.91123 45.477973 52.90413 80.641933 52.91561 4.91499.013 8.88029-1.09518 12.0871-3.01625-5.87246 3.84296-13.05969 5.65008-20.65801 4.60449.25905-.1027 1.0353.0219 2.75109.6491.77416 2.21377-3.50031-.30603-2.7939-.65325-3.26725-.45419-6.60441-1.4004-9.94645-2.98586-26.60534-7.99524-44.315225-29.63648-62.293068-49.53477a186.38888 186.34397 45 0 0 -.103584.95432c4.050619 3.29619 7.697776 7.04048 8.588858 10.20471.266077.30279.548404.58722.816214.88803-3.087865-3.38065-6.230071-6.68913-9.556987-9.67577a186.38888 186.34397 45 0 0 -.327313 3.74684c7.591683 6.10496 16.094345 17.09319 21.134489 20.83617 19.132521 17.7231 45.458441 34.84147 72.646931 27.69594 21.36936-12.43542 13.85521-40.63896 16.51204-61.09568 2.44414-23.5939-4.39055-46.57879-6.09741-69.8337-2.17989-11.20617 19.24427-12.81224 2.72209-4.66111-3.66938 20.26142 6.4777 40.35146 4.62243 60.91477-2.01288 21.87579 2.19787 45.31672-7.09868 65.84103-12.46674 20.18336-40.95843 10.28621-57.60297 1.225-18.612426-7.21318-30.716114-28.82127-46.943883-37.92551a186.38888 186.34397 45 0 0 -.06215 1.73049c24.644913 20.32666 48.47242 47.61692 82.95384 47.91615 17.74324 1.88545 26.12356-14.73183 27.88239-30.28268-.25861 2.79852-.50593 5.61486-.75959 8.40242-3.41095 28.26683-37.0176 26.47622-56.04926 16.04248-21.135141-8.67037-35.575125-27.28815-54.117147-39.56069a186.38888 186.34397 45 0 0 .198873 15.52044c7.939579-13.59758 28.899278 18.03625 41.454134 21.26017 16.85661 9.66371 38.46583 19.08551 57.63335 11.01401 21.53588-16.23338 12.14113-46.01193 16.10877-68.95948 3.1176-19.90313-.63885-39.70821-1.50122-59.55579 15.77903-28.28702 39.087 23.76024 57.35161 12.57462 1.65731-22.45614-10.82593-44.1213-22.57494-63.07613-17.04307-18.019241.15989-34.741991 19.97301-23.074892 26.6007 12.428502 41.773 41.979052 41.59223 70.663722 14.5427 19.28651 50.3795-4.34397 53.40176-24.70316 5.37991-19.70568-8.59388-39.391236-5.48836-58.419172zm-185.07001 205.913082c.0144.002.0284.002.0428.004-.006.002-.0372-.007-.0428-.004zm72.34172-170.61023c-2.05578-4.19318-4.30685-8.20758-6.73961-12.02081 1.57507 3.90983 4.0371 7.93622 6.73961 12.02081zm11.82332-28.222114c2.41431.525614 4.68546 1.181264 6.83352 1.98045 1.01751.247679 2.07029.448398 3.11017.665671-3.46762-1.203729-7.07647-2.079092-10.71018-2.896098.25362.08567.5114.166383.76649.249977zm172.50091 75.121804c.54462.53813-1.20043 13.9738.24031 15.68341-6.59895 21.98521-42.07634 12.69096-59.79058 24.80537-26.50156 8.30281-21.61759 41.43644-30.09623 62.706-5.32416 23.69461.879-20.01331 5.44417-26.16848-2.23162-22.90183 13.90328-39.55488 35.76414-42.51479 18.4581-8.33816 49.66111-6.84093 48.04735-33.88036.1872-.52132.31304-.70802.39084-.63115zm-115.49042-94.616964a186.38888 186.34397 45 0 0 -4.76469-.627006c1.41108 2.43973 2.84558 4.825106 4.25784 7.097308 17.32038 21.735346-12.6364 29.495522-26.36598 14.720804-12.22176-7.649007-25.96351-12.660973-38.5456-19.531061a186.38888 186.34397 45 0 0 -2.10612.379791c5.57527 3.445438 11.4535 6.376127 17.84754 8.425896 20.60032 7.590904 38.12983 28.814792 61.79726 24.113452 2.89773-12.976026-4.98541-23.622883-12.12025-34.579184zm129.55384 170.021884c-1.48608-.86451-3.04431-1.59254-4.71911-2.09783-18.28822-13.86896-49.881-16.42542-62.6991 6.09741-14.42061 17.46278-15.11603 43.77715-.60768 61.37466 15.72312 16.9865 24.18481 44.34542 9.10262 64.44754-8.49221 9.20553-22.61442 30.87708-24.37308 32.46338 8.97206-21.59401 34.76506-37.04471 30.36554-63.12447-4.01399-25.22884-33.17262-40.95539-27.38244-69.05754 3.59397-24.01463 24.43561-50.34935 51.37297-43.4484 11.12349 1.82676 20.60752 6.73009 28.94028 13.34525zm-107.12254-106.53695c-13.5331 4.383-41.84497-27.56256-41.27183-26.38117 2.58987 2.01075 5.17269 4.03155 7.84584 5.93169 8.75385 7.12756 35.05299 21.9704 33.42599 20.44948zm-30.30891-19.9371c-14.55729-13.627233-32.3244-21.365414-49.89247-29.369792 1.80746.524143 3.65625.979484 5.60576 1.2692 14.81569 4.570632 41.39398 24.425232 44.28671 28.100592zm134.2177 140.35518c-9.96348-10.48288-24.8383-16.1833-39.10217-11.17699-21.36273 10.90674-19.22053 42.56215-2.85882 57.18726 17.6172 16.29292 12.28304 41.27233 8.08477 61.92433-7.90759 23.39089-28.53418 38.74725-39.8949 60.28223a186.38888 186.34397 45 0 0 8.15796-4.08382c4.25015-7.72961 8.59192-15.37907 14.76777-20.90798 21.83183-18.43209 26.16495-48.37798 27.94867-75.1812 2.35743-23.82635-32.21318-33.90602-25.33569-59.47293 3.73889-24.37068 37.79936-20.64661 47.90372-2.8809 20.87826 16.62342-20.793 43.68576 7.54477 52.18089 4.43893 1.94622 9.27702 3.24732 14.26367 4.02442a186.38888 186.34397 45 0 0 1.73186-5.17071c-7.33535-2.47729-12.80401-7.75822-13.57314-16.84903 5.37782-14.12633.32502-29.3927-9.63847-39.87557zm-155.44886-144.28155c-4.5697-4.69122-9.79686-8.590267-15.25252-11.297136-22.61479-12.512834-29.00635 12.522906-14.22638 26.459876 11.61371 11.06681 20.19494 51.73008 41.27736 37.75012 9.70344-17.6248 1.91063-38.83922-11.79846-52.91286zm-5.27983-2.65856c14.59647 13.24174 24.76719 42.7113 3.10741 45.13607-8.103-4.20417-14.04842-11.40133-19.0104-18.88335-4.89853-4.62202-9.55342-13.38372-10.89387-20.85689.42667 2.74731 1.89178 5.92486 4.92766 9.52937 3.74247 6.82933 8.44835 13.77098 13.72919 19.0546 22.3778 24.91531 28.4311-18.95831 10.40082-29.78273-7.70729-14.171335-29.8951-12.01369-29.19715.16987-1.21678-8.750734 2.47078-15.316001 16.46094-10.411876 3.50297.795587 7.10699 2.989156 10.4754 6.044936zm1.54266 4.57548c7.73863 8.29633 11.98024 20.77609 8.27122 30.07275-16.13771 11.24656-41.60278-25.20402-30.58099-38.370207 8.15682-2.076511 16.29083 1.844747 22.30977 8.297457zm-2.40996-1.52885c-5.5312-5.84368-12.81814-8.883733-20.23956-4.29097-6.0453 10.51916 6.88353 25.05243 13.99575 32.18717 22.08402 11.39101 18.41244-15.04009 6.24381-27.8962zm-2.17795 3.77447c3.59311 3.66961 6.45619 8.45395 6.57112 13.72229-10.76215 24.35966-34.16586-34.753939-6.57112-13.72229zm90.67677 102.90751c-12.24834 14.67678-17.13925 36.32305-21.38169 55.20957 2.06794 11.875-6.38323 32.13644-16.00657 26.20162 22.02044-7.78377 10.19269-39.03662 22.4603-55.6888 2.45791-9.82565 7.26313-20.13345 14.92796-25.72239zm4.20674 6.85286c.30194.0911.0847.52304-1.57303 1.48741-.87595-.84545 1.0698-1.63929 1.57303-1.48741zm-142.35496-118.92929c11.48638 11.29681 20.38775 30.58877 19.93019 33.80716-.8524-3.48927-2.39309-6.76639-4.13906-9.88706-3.95044-11.72353-25.9124-32.052815-27.8879-31.660982 4.15305 1.097489 8.26798 3.975286 12.09677 7.740882zm2.79943 11.83437c-9.84031-10.65048-24.24763-16.775179-36.56378-25.09538a186.38888 186.34397 45 0 0 -1.50812.894933c10.79124 7.715065 23.09692 13.913767 33.51161 21.836067 12.54288 7.49968 17.733 34.14618-3.89461 24.467-16.48378-11.4093-47.09167-13.34688-37.6852 15.27875-.50702 11.5183 11.70232 45.86913-2.19314 44.67478-15.2296-18.74139-36.97613-30.10726-60.222844-35.31666a186.38888 186.34397 45 0 0 -1.238818 2.16413c29.789112 4.86232 61.252342 24.87672 64.841132 57.04087-6.65892 31.55774-42.45275 8.79935-57.899883-3.14883-24.865248-15.55741-21.251351 18.64483-6.653988 28.18206 15.571181 18.79547 45.598841 39.43812 69.313031 23.16051 12.31099-19.62072-.8932-43.73585 3.35324-65.36594.18229-23.35505-12.87266-48.85333-3.71784-70.82668 14.7007-8.96223 50.44645 24.24527 49.50577-3.23724-2.04846-5.83339-5.15746-10.6073-8.94656-14.70837zm19.34323 25.97513c-.74138 3.8617-2.84455 6.92586-6.37224 8.17316 3.38813.0486 6.23476-.27362 7.90799-1.36726-12.15438 11.41148-42.15134-9.77726-50.83159-.69329.67997-1.97364 2.59024-3.33808 4.61416-3.6253 7.09898.64696 17.7208 3.11761 27.17803 4.61138-.93255-.37577-1.85486-.73264-2.86157-1.25125-13.53259-5.87831-38.80746-9.97646-31.14309 13.84106 5.99288 28.35741 9.47972 57.27408 7.27823 86.30017 3.0807 13.60441-1.84833 25.93489-10.71156 33.26717 11.19799-9.81061 10.61107-31.74906 10.21438-46.13872 2.55482-28.88085-6.69663-56.75553-8.71316-85.25747 6.59251-25.17359 43.43999 13.98162 53.44042-7.85965zm-17.50365 7.09869c4.60587 1.85593 8.32062 2.06829 11.13141 1.07447-3.27624-.047-7.03124-.42685-11.13141-1.07447zm27.01645 14.97906c.34066.32761-1.167 1.08186-5.60989 2.77871-.73964-.0167-5.24184-1.7978-10.06799-3.79241 6.79223 1.42165 14.99076.35293 15.67788 1.0137zm-26.51788-9.40645c-13.36-2.78612-25.68638 1.87739-26.33835 14.52193-.008-.0367-.0116-.0738-.0193-.11049-2.98132-20.49106 11.59082-18.11426 26.35769-14.41144zm2.94305 4.05067.001.001c.45298.66817 1.03178 1.2333 1.67938 1.74013-6.7934-2.96095-11.15328-5.15226-1.68076-1.74152zm-7.42186-2.24009c.58721 2.77989-6.65993-3.43758 0 0zm111.32237 121.4373c-.55317 1.86116-1.42924 5.05708-2.81324 11.36481-17.22884 12.26502-43.35483 7.1147-59.71462 23.47263-13.80676 20.0968-43.43428 17.03418-54.08814 39.35768 5.2524-24.75915 35.79422-19.99369 49.22402-37.46009 15.98082-15.51207 38.57965-16.80119 58.3957-23.18399 4.92687-3.72915 7.83227-10.28191 8.99628-13.55104zm-144.91961-126.13984c3.59594 29.92857 12.03966 59.50498 8.98385 89.96967.68975 12.91251-.51446 34.58125-10.98916 38.61605 16.92481-18.45836 7.39803-46.54183 9.40784-69.30199-.61361-16.44205-10.64925-55.99548-7.40253-59.28373zm146.74676 155.10774c-18.45512-3.12312-38.96114-5.44629-55.41949 5.88335-17.62966 12.74993-26.43138 35.11461-50.59267 36.73226-6.92812 8.60791-9.96311 9.73696-.40465-2.53426 19.83343-4.09824 32.53094-17.82587 45.99508-32.2065 15.84508-13.67801 45.96192-15.63647 60.42173-7.87485zm-133.02999-126.62183c.43087 1.22078.83039 2.42428 1.41974 3.73165 3.97638 25.14744 2.02942 50.76553-.27898 76.04988.0822-1.89469.12832-3.7813.0138-5.55465 1.55692-24.77519 2.51454-49.66911-1.15457-74.22688zm112.27116 112.7269c-.096.25173-2.38866.8493-8.29884 1.8824-26.71033 1.87994-42.83851 26.46482-67.31878 32.9799-27.94107 7.49702-30.25428 42.6378-21.2353 65.36871.36512 4.06668 2.79298 7.76861-.25274 1.10071-10.41537-22.75303-8.44878-57.74118 18.27015-67.9002 23.94577-3.64568 38.6883-26.84523 62.71706-30.99945 5.91129-1.86338 16.32957-2.98584 16.11845-2.43207zm12.3426 18.26463c16.98858 15.01545 5.31874 47.79691 7.26165 68.72746-1.71827 9.4259-13.98176 21.13858-4.07415 6.09604 6.68164-21.16506 1.91942-44.37593-2.53149-65.62973-3.40475-11.98897-27.77935-17.68371-4.44843-11.95038 1.39985.83433 2.65985 1.75558 3.79242 2.75661zm28.02463 28.39753c.84711.89891 1.72586 2.04207 2.63231 3.45542 2.54964 9.97072-2.23001 21.59738-8.98246 28.83394-12.03046-4.43849-6.3565-45.77312 6.35015-32.28936zm-14.46255-13.87974-.38394 2.02188c-2.54378 19.29365-3.51874 43.67336 2.82429 60.70208 18.35501-6.03845-33.32775 33.27626-12.12577 8.7753 14.52556-21.27344.4702-49.64933 9.68542-71.49926zm-26.07732-8.73111c-6.36533-5.59626-14.91266-7.58188-25.78454-2.64613-6.58186 2.5131-12.07994 7.20318-16.41261 12.6782-12.84173 18.2753-12.62202 51.44593 12.10506 59.55856 20.2013 14.54696 50.73328-.1243 44.39029-26.84797.85688-14.05858-3.68931-33.41556-14.2982-42.74266zm-.8314 1.62689c10.7906 9.37932 13.89932 29.83313 13.84935 43.46221 4.24381 26.59528-29.08843 35.65707-45.79621 18.93997-24.69681-16.73178-17.91839-60.31118 12.04567-66.64758 8.50466-1.99427 14.99637-.0179 19.90119 4.2454zm1.167 2.80772c-16.18462-16.04193-43.69555.86366-45.85835 20.78369-6.16275 25.39053 21.26621 52.91492 46.38039 43.72874 19.05144-15.35943 11.1843-46.68357-.52204-64.51243zm-2.61022 5.75905c12.96679 12.91403 14.88494 40.6247 2.29533 52.66841-27.9623 12.35196-54.80014-31.19029-33.52818-52.23338 3.95077-3.92786 9.13777-6.6541 14.71114-7.28928 6.64933-.11193 12.19945 2.54957 16.52171 6.85425zm-2.86295 6.87358c-8.27745-9.09814-20.52456-11.53189-28.26356 5.0478-11.73919 21.99317 29.75966 53.62482 36.38562 22.4672 2.35364-9.33016-1.68405-20.43868-8.12206-27.515zm-3.75098 1.22638c9.77221 8.87666 13.90615 30.43624-.36046 35.17994-23.09135 3.30577-31.32147-43.17263-4.13491-38.12023 1.58894.66447 3.09934 1.6722 4.49537 2.94029zm-146.87934-145.79106c-1.89624-1.91059-3.93368-3.45395-6.03941-4.47604-10.51307-7.42664-25.652168-14.88497-39.995725-16.28279a186.38888 186.34397 45 0 0 -1.774671 3.54797c11.44083 1.02919 23.725196 3.50435 33.427376 9.60671 13.49 7.78186 30.43387 27.17472 18.74522 42.64875-21.46375 6.98039-36.379888-18.23868-56.359994-22.33325-2.73352.33963-5.113492.13386-7.265799-.35493a186.38888 186.34397 45 0 0 -1.389356 5.44141c15.773849-7.74353 37.802139 18.72203 54.557699 22.46997 25.71486 4.41604 19.36835-26.89364 6.09466-40.2678zm142.21686 158.2041c-14.13095-3.31577 7.20517 19.48673 0 0zm-116.02352-103.32874c2.15267 2.53079 2.70425 7.10064.76235 15.14202-7.33373 19.58018-34.80113 13.99337-48.23795 4.15702-10.525499-6.71821-19.846694-15.65995-26.06765-26.55379-13.076111-30.34098 24.2809-7.41456 35.01145.82726 11.20342 9.59225 32.07376-1.16488 38.5318 6.42749zm9.40507 35.09017c.13905.2122-1.89449 2.59288-6.51726 6.50622 4.06658-4.76213 6.37821-6.71841 6.51726-6.50622zm62.14392 63.14381c.93342-.67998.0619.21155-3.9982 4.32688l-2.83809.77755c3.16495-2.17234 5.90285-4.42445 6.83629-5.10443zm-72.03928-60.12341c.45498.35568.0347.79885-2.73589.90736-1.21149-1.84972 1.97762-1.50017 2.73589-.90736zm1.09105 4.10454c-2.00784 1.66141-5.69834 2.30667 0 0zm-4.92351-2.60332c.54474.5003-.13649.9235-3.97747.4889-1.24275-2.36875 3.06957-1.32274 3.97747-.4889zm-1.16838 4.51333c.0772.0734-.8863.32912-3.98438.83555.83714-.57359 3.85567-.95782 3.98438-.83555zm-4.72187-4.2523c.70308.40152.96539.97486-1.31892.51514-.52802-1.1464.61584-.91668 1.31892-.51514zm-3.87113.31902c-.001.11244-.73322.25646-2.88368.30384.86009-.58999 2.88588-.49127 2.88368-.30384zm1.85753 4.30479c.23192.125-.51448.36911-2.93477.35493 1.49262-.48587 2.70285-.47994 2.93477-.35493zm62.02514 62.36764c-6.28479 4.04517-6.85327 1.1221 0 0zm-68.41672-66.99698c.41256 2.74854-5.01161-2.51419 0 0zm59.60828 62.78749c-11.10343 11.47926-4.98871 39.9154-4.10593 43.57131-9.16829-12.03936-1.48088-45.03261 4.10593-43.57131zm-67.99965-64.20999c.66531.69071.76247 1.34277-1.70285-.11463-.19593-1.30545 1.03753-.57608 1.70285.11463zm2.07988 4.46637c.0409 2.85019-5.11845-3.59917 0 0zm144.76493 150.92449c-7.37635-2.89284-14.35529-6.7602-20.11249-11.15489-8.17054-3.96484-35.78893-35.55023-29.17229-11.04164 1.98565 8.44231 6.50384 16.12377 11.3938 23.64941a186.38888 186.34397 45 0 0 8.34717.29831c-.86448-2.74144-1.35615-5.56442-1.19462-8.52809 6.94016 1.7224 13.7515 4.7952 20.60139 7.86518a186.38888 186.34397 45 0 0 10.13704-1.08828zm-155.83004-154.55669c-.10398 2.51939-4.56066-3.82215 0 0zm-16.77445-9.88016c.28354.0514.87318.57862 1.9114 1.96939-.85313 2.00941-2.762-2.12378-1.9114-1.96939zm-6.935721-4.32275c-6.425861-4.25152-12.024287-10.27317-17.597568-16.43195 5.571195 5.78101 11.457562 11.21872 17.597568 16.43195zm96.529741 99.8084c.68955 6.92823 2.03027 24.66669-.29831 7.80855l-.0539-3.98437zm3.97472 5.07128c-.0359 1.41154-.0436 2.85942.11739 4.52576-.47602 4.38069-.82122.90232-.11739-4.52576zm-132.996845-105.88924a186.38888 186.34397 45 0 0 3.581107 24.58438c2.381501 5.24827 4.375669 10.23043 4.984276 14.4888 2.131071 5.24108 3.673688 10.65617 4.522994 16.0411a186.38888 186.34397 45 0 0 8.750447 18.77976c1.031838-26.19653-15.37492-49.11015-21.838824-73.89404z" fill="#248e5e" opacity=".5" transform="matrix(0 .23394239 -.23394239 0 124.62843 7.659857)"/><ellipse cx="66.152512" cy="-66.146759" fill="url(#b)" filter="url(#c)" opacity=".33" rx="42.702682" ry="42.695026" transform="rotate(90)"/><ellipse cx="66.152519" cy="-66.146759" fill="url(#d)" filter="url(#e)" opacity=".667" rx="42.702686" ry="42.695023" transform="rotate(90)"/><path d="m64.75637 40.032365a30.644657 19.640671 45 0 1 7.78099 35.557096 30.644657 19.640671 45 0 1 -35.55709-7.780994 30.644657 19.640671 45 0 1 -7.781-35.557095 30.644657 19.640671 45 0 1 35.5571 7.780993z" fill="#d4f5e6" filter="url(#f)" opacity=".2" transform="matrix(.90725093 0 0 .90725093 6.135896 30.277237)"/><path d="m95.61188 9.4458012a15.608357 10.637955 45 0 1 3.5146 18.5589498 15.608357 10.637955 45 0 1 -18.55894-3.51461 15.608357 10.637955 45 0 1 -3.51461-18.5589424 15.608357 10.637955 45 0 1 18.55895 3.5146026z" fill="#f2d9e9" filter="url(#g)" opacity=".5" transform="matrix(.90725093 0 0 .90725093 6.135896 30.277237)"/><path d="m109.73882 66.13403c0-11.164738-4.24884-22.329695-12.746662-30.827392-8.497763-8.497765-19.67365-12.76755-30.826022-12.76768-11.152477-.000129-22.330571 4.270206-30.828307 12.76768-16.995636 16.995637-17.076893 44.725747-.07402 61.728349 17.003075 17.003073 44.733181 16.921403 61.728349-.074021 8.497832-8.497582 12.746662-19.662197 12.746662-30.826936zm-3.28388 0c0 10.311988-3.9328 20.62382-11.799008 28.489797-15.73196 15.732193-41.323466 15.807833-57.055898.075391-15.732206-15.731954-15.657041-41.323007.075392-57.055441 7.86622-7.865977 18.178113-11.799589 28.490253-11.799469 10.312139.00012 20.624032 3.933247 28.490253 11.799469 7.866208 7.866097 11.799008 18.178266 11.799008 28.490253z" fill="#295742"/></g></svg>