<svg height="500" viewBox="0 0 500 500" width="500" xmlns="http://www.w3.org/2000/svg" xmlns:xlink="http://www.w3.org/1999/xlink"><radialGradient id="a" cx="154.66905" cy="82.585289" gradientTransform="matrix(-1.2466927 1.2592688 -1.2592659 -1.2466955 342.45993 -177.96551)" gradientUnits="userSpaceOnUse" r="40.30827"><stop offset="0" stop-color="#5b0b0b" stop-opacity="0"/><stop offset=".12393165" stop-color="#5b0b0b" stop-opacity="0"/><stop offset=".41729519" stop-color="#5b0b0b" stop-opacity=".1"/><stop offset=".66706532" stop-color="#5b0b0b" stop-opacity=".5"/><stop offset=".91683543" stop-color="#5b0b0b" stop-opacity=".75"/><stop offset="1" stop-color="#5b0b0b"/></radialGradient><radialGradient id="b" cx="-230.16026" cy="-125.68406" gradientTransform="matrix(-.15933645 .15681432 -.23378409 -.23008334 25.528542 20.961678)" gradientUnits="userSpaceOnUse" r="54.727684" spreadMethod="reflect"><stop offset="0" stop-color="#c10b0b"/><stop offset="1" stop-color="#3933ff"/></radialGradient><radialGradient id="c" cx="-108.92502" cy="-60.295189" gradientTransform="matrix(.16930732 .16930725 -.24841355 .24841361 49.135106 -52.635424)" gradientUnits="userSpaceOnUse" r="40.308334" spreadMethod="reflect"><stop offset="0" stop-color="#5b0b0b"/><stop offset="1" stop-color="#2622aa"/></radialGradient><filter id="d" color-interpolation-filters="sRGB" height="1.384012" width="1.384012" x="-.192006" y="-.192006"><feGaussianBlur stdDeviation="6.3270452"/></filter><filter id="e" color-interpolation-filters="sRGB" height="1.0735" width="1.0735" x="-.03675" y="-.03675"><feGaussianBlur stdDeviation="1.2344417"/></filter><filter id="f" color-interpolation-filters="sRGB" height="1.024002" width="1.023998" x="-.011999" y="-.012001"><feGaussianBlur stdDeviation=".42698854"/></filter><clipPath id="g"><ellipse cx="-65.537918" cy="66.742935" rx="43.336258" ry="43.325817" transform="matrix(-.99995623 .00935642 .00935642 .99995623 0 0)"/></clipPath><mask id="h" maskUnits="userSpaceOnUse"><path d="m-13.229159-13.22917h158.749999v158.75002h-158.749999z" fill="url(#i)" filter="url(#j)" stroke-width="11.83"/></mask><radialGradient id="i" cx="66.145844" cy="66.145836" gradientTransform="matrix(-1.0000001 .00000145 0 -1 132.29169 132.29157)" gradientUnits="userSpaceOnUse" r="66.145836"><stop offset="0" stop-color="#fff"/><stop offset=".25342461" stop-color="#fff"/><stop offset=".75273961" stop-color="#808080"/><stop offset=".87499994" stop-color="#404040"/><stop offset="1"/></radialGradient><filter id="j" color-interpolation-filters="sRGB" height="1.0135" width="1.0135" x="-.00675" y="-.00675"><feGaussianBlur stdDeviation=".44648439"/></filter><radialGradient id="k" cx="703.05621" cy="255.40021" gradientTransform="matrix(.12107523 -.12107523 .05841622 .05841622 -57.692804 112.54712)" gradientUnits="userSpaceOnUse" r="1011.8609"><stop offset="0" stop-color="#f00"/><stop offset=".08962709" stop-color="#f00" stop-opacity=".9104"/><stop offset="1" stop-color="#f00" stop-opacity="0"/></radialGradient><radialGradient id="l" cx="703.05621" cy="1070.2185" gradientTransform="matrix(.12107523 -.12107523 .05841622 .05841622 -57.692804 112.54712)" gradientUnits="userSpaceOnUse" r="1011.8609"><stop offset="0" stop-color="#00f"/><stop offset=".08962709" stop-color="#00f" stop-opacity=".9104"/><stop offset="1" stop-color="#00f" stop-opacity="0"/></radialGradient><radialGradient id="m" cx="-230.16026" cy="-125.68406" gradientTransform="matrix(-.15933645 .15681432 -.23378409 -.23008334 25.528542 20.961678)" gradientUnits="userSpaceOnUse" r="54.727684" spreadMethod="reflect"><stop offset="0" stop-color="#f43e3e"/><stop offset="1" stop-color="#524cff"/></radialGradient><filter id="n" color-interpolation-filters="sRGB" height="1.005951" width="1.006049" x="-.003025" y="-.002976"><feGaussianBlur stdDeviation=".1080947"/></filter><g mask="url(#h)" transform="matrix(0 -3.7795275 3.7795275 0 -.000016 499.99998)"><path d="m-16.763244-16.763244c-67.65774 67.657739-96.043756 148.969874-63.396059 181.617564 32.647695 32.64769 113.959825 4.26168 181.617563-63.39606 67.65774-67.657738 96.04375-148.969868 63.39606-181.617563-32.64769-32.647697-113.959825-4.261681-181.617564 63.396059z" fill="url(#k)" opacity=".3"/><path d="m30.833409 30.833409c-67.65774 67.657739-96.043753 148.969871-63.396059 181.617561 32.64769465 32.6477 113.959825 4.26168 181.61756-63.39606 67.65774-67.657735 96.04376-148.96986535 63.39606-181.61756-32.64769-32.647694-113.959822-4.261681-181.617561 63.396059z" fill="url(#l)" opacity=".3"/></g><g clip-path="url(#g)" transform="matrix(-4.3009913 0 0 4.3009913 534.49299 -34.501406)"><ellipse cx="66.152519" cy="-66.146759" fill="#5b0b0b" rx="43.604259" ry="43.593754" transform="rotate(90)"/><ellipse cx="66.152519" cy="-66.146759" fill="url(#c)" filter="url(#e)" rx="40.308334" ry="40.30827" stroke-width=".232505" transform="rotate(90)"/><circle cx="66.145836" cy="39.542774" fill="url(#b)" filter="url(#d)" r="39.542774" stroke-width=".236425" transform="matrix(.78261506 0 0 .79520263 14.380039 34.707938)"/><path clip-path="none" d="m100.49899 39.343112a43.593754 43.604259 0 0 0 -.710644-.882002c-3.887936.840858-7.35667 3.455465-8.160715 7.527316-1.069902 7.125611 6.143475 11.770305 12.583289 11.340329 1.95597.318931 3.6088 1.155528 5.03113 2.315828a43.593754 43.604259 0 0 0 -.74603-3.73345c-4.39282-1.968031-10.787935-.129825-14.085878-4.716227-3.983205-4.83911.725521-11.081106 6.088848-11.851794zm-1.147487-1.424031a43.593754 43.604259 0 0 0 -.399048-.472029c-5.604401 1.557963-10.449647 6.78098-8.582821 12.837094.815679 6.902719 7.643587 9.013191 13.540276 9.406757 2.15443.569373 4.07185 1.723507 5.70705 3.235187a43.593754 43.604259 0 0 0 -.14398-1.337028c-1.4933-1.301198-3.2098-2.298884-5.14197-2.828704-6.139082-.04845-12.805716-2.911695-13.534576-9.740175-.874335-5.72264 3.436306-9.78991 8.555069-11.101102zm-.656945-.748879a43.593754 43.604259 0 0 0 -.987019-1.060934c-6.791324 1.961281-11.993906 9.146987-9.23719 16.270028.811333 8.342201 9.854313 9.240344 16.240181 10.810528 2.01887.766161 3.6918 1.984497 5.02362 3.49312a43.593754 43.604259 0 0 0 .006-.530268 43.593754 43.604259 0 0 0 -.0906-2.540059c-4.20965-3.789369-10.760355-3.419364-15.75486-5.970595-5.448317-4.473824-6.245716-14.595913.42058-18.471567 1.357227-.917492 2.838729-1.579394 4.379008-2.000253zm-1.187994-1.276604a43.593754 43.604259 0 0 0 -.324768-.348833c-6.553342 2.142655-12.054905 8.484687-10.030405 15.682342.276721 6.585547 5.929389 11.862921 12.429442 12.175347 3.923157.188392 7.673337 2.095356 10.097777 5.041084a43.593754 43.604259 0 0 0 .0423-1.044121c-4.23206-5.122314-11.988343-3.821757-17.256475-7.269134-4.913007-3.616398-6.106955-10.97272-4.300097-16.493136 1.934139-3.995446 5.374247-6.501862 9.342226-7.743549zm-.523441-.562235a43.593754 43.604259 0 0 0 -.775108-.7238c-6.616326 2.384342-12.374847 8.530557-10.719875 15.888594.335881 7.418655 5.809506 15.969476 14.071609 15.332114 4.586301-.386509 7.996731 2.110685 9.853621 5.647381a43.593754 43.604259 0 0 0 .22566-2.381157c-.47462-.665736-1.04208-1.295029-1.73273-1.876609-5.94346-4.571238-15.914456-1.862388-19.510603-9.992661-3.118885-6.337157-2.992378-15.35542 3.661628-19.395138 1.545873-1.149719 3.20189-1.953245 4.925798-2.498724zm-1.869564-1.742555a43.593754 43.604259 0 0 0 -.724666-.636437c-5.070361 2.04184-9.455232 5.370009-11.555772 10.719482-2.083082 4.484182 2.430176-7.400231 6.090631-8.205773 1.406134-1.389616 3.121904-2.270315 4.958719-2.922356a43.593754 43.604259 0 0 0 -.429199-.345696c-6.148828 2.821312-11.433258 7.776918-12.193438 14.739268.02656 4.804524 4.02845 13.108999 4.817703 15.300159-2.936999-5.545893-6.731524-12.111135-4.759815-18.520115 1.989943-5.647431 6.510474-9.358902 11.692837-11.875967a43.593754 43.604259 0 0 0 -2.060078-1.513068c-.800138.631043-1.773582 1.160932-2.862183 1.522956-5.394593 4.57863-11.146478 11.814151-9.257754 19.281808 3.265511 7.583265-4.188708-4.861843-.21797-7.569848 2.457479-5.511077 6.165653-10.32818 10.507578-14.446254a43.593754 43.604259 0 0 0 -2.100344-1.244648c-.823341 5.040404-7.429394 9.615715-8.702459 14.931348-4.240919 7.346482 3.166724 14.107798 5.633241 20.785707 2.225632 4.345255-3.75646-4.796942-3.673014-6.60451-4.331055-4.945023-5.609014-11.630571-1.151489-16.996571 1.423218-4.169866 6.024908-8.494043 6.505347-12.811a43.593754 43.604259 0 0 0 -4.765372-2.051282c.04816.441895.08493.887398.09329 1.340596 2.219804 8.593607-6.422699 14.744978-6.705638 22.85525 1.680947 5.753623 5.7722 10.624693 7.82451 16.344467.804163 6.186303-4.826266 10.716249-6.480801 16.382833-2.503391 6.775446-9.514374 11.632749-7.260751 19.763223-.05941 2.64904.245003 5.32197.985028 7.82828a43.593754 43.604259 0 0 0 1.16507-.10207c-.595002-1.2862-.937132-2.7113-.870576-4.35936-1.876984-6.637923.957277-12.697542 4.867049-17.821105 1.863601-6.07803 4.801157-11.704544 8.077523-17.120248 2.336531-5.58723-3.206755-10.400778-4.400518-15.650556 1.967327 5.713684 9.559888 11.677223 4.914429 17.840721-4.248726 5.186657-5.972895 11.712198-7.637402 18.049731-4.252871 5.246284-5.896039 12.736477-2.599689 18.759397a43.593754 43.604259 0 0 0 1.017167-.17035c-.492101-.8169-.771764-1.55791-.729091-2.1228.305681.74673.679865 1.42599 1.106561 2.05362a43.593754 43.604259 0 0 0 .687146-.13614c-2.572716-3.68477-3.542234-8.32026-1.31537-12.582344 4.510911-5.922686 3.388174-14.14032 7.818211-20.176781.93227-1.670331 2.986193-4.157251 3.044877-3.993722.02668.07433-.358774.696102-1.44933 2.191301-5.438028 6.125137-4.355888 14.932808-8.44741 21.594284-2.756058 4.255762-1.82026 9.050572.83081 12.866882a43.593754 43.604259 0 0 0 1.58573-.377c-1.630274-2.55068-2.474507-5.22507-1.672277-5.52235-.126324 1.85224.839005 3.75017 2.10618 5.40962a43.593754 43.604259 0 0 0 3.013669-.92502c-1.919201-4.66767 5.606345-5.82014 9.894129-4.9167a43.593754 43.604259 0 0 0 1.345273-.93189c-.769415-.19458-1.528747-.40367-2.265305-.63088-4.231433-.947977-10.130319 1.44-10.251559 5.05218-.55229-2.22373-.212021-4.51557 3.00887-4.73415 7.889902-2.298219-3.539944-9.467688-.702579-15.111252.412195-6.123618 7.289424-12.784693 12.999316-7.718728 3.447469 2.238553 7.981426 6.0603 9.062686 10.230673a43.593754 43.604259 0 0 0 .78091-1.353266c-3.74088-6.010555-9.972538-14.070337-17.337879-11.848633-1.697194-.01451 7.396559-5.434033 8.463675-.05779 2.673643 3.706774 7.294254 6.825756 9.375694 10.972094a43.593754 43.604259 0 0 0 .45712-.902842c-2.8719-4.062425-7.597796-7.153411-9.035055-11.80692l.295383.517654c2.348815 3.625482 5.593852 7.83781 9.079862 10.580557a43.593754 43.604259 0 0 0 2.83748-7.977655c-.6689-2.350289-1.64717-4.554873-3.23911-6.440433-6.380759-2.341535-15.13689-.134556-18.01623-8.609354-3.668443-6.692399-6.478573-16.403288-.409431-22.644156 2.344983-2.621726 5.214132-4.302834 8.33585-5.426071zm-20.489203-10.186493a43.593754 43.604259 0 0 0 -2.563855-.441461c2.237612 5.699203 6.1876 11.310531 1.745789 17.249861-3.303416 5.883191-5.845735 14.498285 1.319036 18.708476 7.198041 6.433864 3.32206 15.502295-1.777559 21.837057-3.426866 7.831493-10.828374-1.839915-14.755929 1.432453 4.198058 5.235589 7.541794 11.434937 7.000493 18.617849.338094 2.88639-1.3305 5.9356-2.366553 8.84578a43.593754 43.604259 0 0 0 2.176561.0776c.05436-1.95726.437124-3.99179 1.039967-6.01284 1.51808-5.492653-3.794866-14.243802 2.305751-17.246237 6.467033-3.357625 8.717527-11.650937 11.668288-17.845498.0031-6.174433-5.107348-10.766514-8.256218-15.578706-2.638253-8.370672 7.043823-14.724813 4.903789-23.041901-1.086748-2.117007-1.872266-4.331188-2.43956-6.602433zm-6.163309-.771475a43.593754 43.604259 0 0 0 -2.314134-.08258 43.593754 43.604259 0 0 0 -1.109323.03951c.796646 1.418145 1.935609 2.740233 3.569161 3.938435 6.435228 6.37662 1.001907 14.856921-1.103568 21.82694-4.94532 7.206361 2.586459 10.982767 6.655585 15.490385 5.421011 4.535579-.730666 16.874146-7.519623 13.742392-3.89644-1.698784-15.798212-8.448829-14.322953-.06249.282724 7.103374 7.940949 10.291324 9.613149 16.787552 2.099596 5.448584-.485262 11.389536-5.312836 14.381646a43.593754 43.604259 0 0 0 3.121705.58353c.03924-.0393.07078-.0775.111371-.11696 6.9398-6.38288 4.70174-18.093548-2.119865-23.655045-5.810683-3.968433-.333823-11.766175 5.341173-7.051044 6.028656 6.14482 12.330722-.806682 14.226227-6.946126.506834-1.135364.707208-2.249189.669724-3.332065-.162877-4.693327-4.794174-8.798937-8.316195-11.491114-3.831632-6.350425 2.10026-13.51115 3.661545-19.820632 2.216844-5.641943-2.396376-9.692611-4.851143-14.232342zm.843097 5.756307c-1.504057-2.057512-3.650685-3.78443-5.20521-5.76576a43.593754 43.604259 0 0 0 -1.139249.04622c.800196 1.119895 1.838185 2.122544 3.185336 2.959194 5.238235 4.210778 4.986633 11.483925 2.205048 17.01732-1.330115 5.537118-8.007472 13.515466-.541708 17.399119 5.091971 2.579805 10.167452 9.654596 4.685618 14.530096-5.819175 4.659671-12.52955-3.807739-18.936878-3.968641-7.316161-2.655869-5.091045 4.53987-2.484114 8.175491 2.030466 6.912785 9.91954 10.500285 10.470636 18.044174.88234 5.23411-2.701176 8.7084-6.708345 11.41381a43.593754 43.604259 0 0 0 1.091992.27864c4.53069-3.5237 8.024164-8.683112 5.44965-14.56853-2.236935-6.392731-9.30937-9.946337-10.132462-17.084157-4.020837-6.978719 5.090875-4.811885 8.536508-3.132916 5.301436 3.287606 13.437202 5.852546 15.480274-2.408979.333345-.949439.470572-1.821679.449199-2.630623-.14962-5.662611-8.042903-8.250043-10.416505-12.906929-.111387-7.842521 6.071384-14.529434 5.800238-22.446101-.01341-1.939537-.747252-3.524938-1.790028-4.951429zm35.382666 46.694384c1.18288 1.610482 1.85135 3.682656 1.94858 5.665736l-.00064-.000087c.0171.348672.0169.694864-.00096 1.035047-4.31544 1.821221-10.781529-11.242664-2.84726-7.735212.32704.315724.62731.662866.90028 1.034516zm-37.426711-47.172711c-1.424837-1.840234-3.239807-3.508441-4.924093-5.174071a43.593754 43.604259 0 0 0 -2.419825.262078c3.874515 3.29717 8.206577 6.44376 8.123084 12.01662-.604728 6.89945-4.109956 13.188819-8.06173 18.736937-2.938997 7.035783 7.72188 8.110594 9.408682 13.908641 2.672551 6.61809-7.537602.443416-10.715458.11668-5.464341-1.591891-12.209685-4.234217-17.385193-.813043 1.140755 6.35437 8.489384 10.740162 11.021349 17.093037 3.985975 4.631163 9.779197 10.466085 6.895815 17.106171-1.792216 2.77688-4.214121 4.76632-6.95566 6.28986a43.593754 43.604259 0 0 0 1.768228.57693c2.669948-1.6235 5.061747-3.56265 6.519768-6.4754 2.899824-7.573498-3.983106-13.39728-8.019882-18.840352-1.37057-4.532334-11.54969-15.107731-1.165642-13.832313 6.901284.590955 12.841846 6.70163 19.635289 5.843734 1.96534-1.391844 2.868927-2.912745 3.035736-4.458263.500433-4.636554-5.628498-9.49245-9.601639-11.730417-3.682612-7.165214 4.981336-14.437652 5.205811-21.913652.745943-3.483486-.45937-6.252446-2.36464-8.713177zm12.640337 17.970253c-.228281 4.851156 2.642983 9.760462 4.397159 14.360939 1.652802 2.116726 4.272773 5.93274 4.405834 8.58664.06049 1.20632-.392819 2.172131-1.684472 2.629931 3.418928-6.064637-5.091855-10.719364-5.545551-16.825487-1.342825-2.720149-2.18205-5.958293-1.57297-8.752023zm-15.93042-17.09147c-1.707534-2.168182-4.211535-3.694596-6.538011-5.342442a43.593754 43.604259 0 0 0 -1.574423.360925c.569564.320991 1.166616.612058 1.79355.866623 6.776391 3.203897 9.519351 11.742521 5.00361 17.964632-2.6097 5.118444-8.656287-.257565-11.950367-2.118315 5.240959 1.48546 11.274257 3.216083 11.748315-4.67112.768841-5.58625-4.105891-9.034634-8.664044-11.50823a43.593754 43.604259 0 0 0 -1.747454.581694c1.006611.462425 2.007172.898067 2.969172 1.310151 3.925099 1.177803 7.474997 7.791221 5.60585 9.70707.520112-5.672052-4.084661-8.728105-8.882339-10.914733a43.593754 43.604259 0 0 0 -.892647.302957c.742613.289782 1.483343.564741 2.21144.826387 8.55061 1.599658 8.776188 16.388236-1.281854 12.026158-3.109121-.03473 1.138454-.428782 1.461758-.258483 9.153661.94345 5.149839-10.77156-1.248856-11.768665-.541294-.208521-1.089505-.414489-1.636768-.620748a43.593754 43.604259 0 0 0 -1.824505.755797c1.485643.550827 2.910181 1.221832 4.179336 2.179926 3.660031 1.467059 3.372279 6.748293-1.242504 6.047023 5.022665-2.926958 1.094876-6.014844-3.519062-7.977155a43.593754 43.604259 0 0 0 -.859732.430658c1.107684.401818 2.175145.884482 3.161529 1.522045 6.962347 5.407701-6.632983 8.54764-10.771568 8.76414-2.828082.426821-5.46662 1.531825-8.100703 2.616152a43.593754 43.604259 0 0 0 -.496223.690838c2.923997-1.330671 5.817535-2.797186 9.08065-2.928153-3.368462.382664-6.359482 2.022545-9.406316 3.397233a43.593754 43.604259 0 0 0 -1.38351 2.068822c4.482541-2.249952 8.845552-4.934202 14.12118-4.617757 7.446487.214216-5.148162.02796-7.369275 1.445288-.46964.340493-.946483.62957-1.420819.935996 2.167312-1.111068 4.461997-1.887771 7.070657-1.792208 4.83253-.435439 13.122419.02628 15.435108 2.043501-7.475017-1.89703-16.008157-3.29229-23.223697.225305-.0093.004-.01936.01092-.02877.01501-.549144.332231-1.105695.619244-1.662019.906589.115698-.07252.229597-.148788.345756-.220199-.146038.0852-.283438.172694-.428323.264118-1.049574.537548-2.112256.999766-3.190077 1.384973a43.593754 43.604259 0 0 0 -.654963 1.104602c1.229362-.776033 2.448445-1.594482 3.68355-2.378096-3.42571 2.225641-6.221465 6.033421.135539 7.205909 4.228654 1.677963 17.632456 3.013833 12.088193 9.726215-6.121989 1.311817-11.324539 7.109768-6.96933 11.27772-7.697266-5.354816 3.265752-9.696755 7.279331-12.442409 1.427283-5.396867-4.877212-6.25915-9.873718-7.453756 2.594845.932449 5.160637 2.06645 7.56406 2.689523 2.895842.625356 2.189735 7.133704 1.376538 1.742946-.600748-.812873-1.43798-1.382395-2.294894-1.883299-4.87656-1.326277-10.350699-4.43514-15.44461-3.335907a43.593754 43.604259 0 0 0 -.678845 1.803331c3.61322-.947619 7.254492-1.315558 11.017075.504195 4.834557.129793 6.131127 3.527857 4.501171 6.142188.961882-.85903 1.687007-1.678615 1.871438-2.392683-.487563 5.066672-11.032386 6.989694-11.171127 10.794726-.225236-.596785-.05368-1.281216.323748-1.774153 1.438093-1.224498 3.716041-2.71031 5.831386-4.199618-.296656.110624-.601867.214451-.931274.294465-3.998961 1.236869-6.921914 4.869067-4.831956 7.843492-.320909-.29967-.652798-.587529-.965348-.895957-3.27588-6.919128 12.18802-6.324673 10.12706-13.251991-4.506638-3.159886-10.453272-4.306436-15.812777-2.943007a43.593754 43.604259 0 0 0 -.514127 1.545245c3.410195-.938948 6.826161-1.63002 10.374112-.294956 5.706636.09983 6.492409 6.29554.696423 7.626496-5.900019 1.494524-10.206919 7.760866-3.00231 11.257791 5.879101 4.523489 11.741625 9.126308 16.255432 15.076872 5.243694 3.683575 6.690695 11.576365.596437 15.16796-1.264958.88178-2.614393 1.6228-4.021825 2.23251a43.593754 43.604259 0 0 0 1.345268.67387c2.152243-.99858 4.159422-2.35826 5.945973-4.18867 5.641291-5.258213-.141693-12.259274-4.138921-16.42175-4.050129-5.671905-9.887566-9.47622-15.082363-13.954875.275203.171186.560139.340421.886613.499915 7.882746 5.342751 14.342235 12.486914 19.767845 20.245595 3.769951 5.984481-1.540429 11.513945-6.997774 14.010655a43.593754 43.604259 0 0 0 1.170395.56639c3.592546-1.6861 6.635223-4.24827 8.185907-8.033514.921033-7.088095-5.932031-11.543319-9.367128-16.84911-3.777859-5.302721-9.82467-8.261197-13.930756-13.182366-.720729-2.832638 2.05347-5.016985.356351-.760643 2.922355 5.080711 8.998057 7.333081 12.405644 12.119958 3.700389 5.118787 9.062137 9.435997 10.782038 15.703974.06638.434246.09824.856705.09824 1.267907-.000014 4.650414-4.072223 7.837204-8.311132 9.824764a43.593754 43.604259 0 0 0 .495804.20539c1.364312-.67199 2.674769-1.49271 3.911782-2.51053 4.719911-2.65207 5.219419-8.471677 2.725014-12.717861.198206.275385.397189.555784.595758.829926 3.927923 6.157409-1.292803 11.875865-6.825664 14.567035a43.593754 43.604259 0 0 0 1.200322.49709c3.83601-1.90281 7.17339-4.67537 8.085167-8.929096.298252-7.440831-6.801878-11.818546-10.24805-17.634191-2.759669-5.382902-9.130272-8.089575-11.490052-13.463788 1.053643-8.001985 18.044608-1.142406 14.257435-9.725955-5.032467-4.049829-11.185834-5.8512-17.371064-7.482235-8.080672-1.920906-.656589-8.994125 4.137555-9.456885 6.991188-1.44032 14.676115.914351 19.251691 6.502224 5.782702 2.601426 8.870583-6.304193 8.824732-11.869248-.0066-.795006-.07723-1.521975-.212957-2.137343-.327616-1.527809-.987441-2.79086-1.85211-3.888794zm-26.571412 32.033241c1.456259-.542988 2.518606-1.424293 3.144555-2.428272-.884092.789557-1.972645 1.603194-3.144555 2.428272zm-2.89594-10.091249c-1.06648-.383237-2.135698-.699813-3.202885-.963924.913339.383012 2.024307.682138 3.202885.963924zm-3.202885-.963924c-.331705-.1391-.640244-.28805-.915599-.452-1.39657-.886723-2.730779-1.101591-4.03713-.92367a43.593754 43.604259 0 0 0 -.409342.988215c1.74517-.27503 3.547666-.06158 5.362071.387455zm2.448946-8.411742c.250672-.151653.49742-.330574.746701-.491612-.701058.359399-1.384793.760538-2.063241 1.177638.441909-.257807.887407-.496909 1.31654-.686026zm57.827123 29.275784c-5.032799 3.51193-10.077033 7.938648-11.222324 14.331194-.669264 6.236082.64324 12.533594-3.823893 17.668303-.197648 2.45663.128145 5.31982-.562257-.4586 3.502216-5.07342 3.742826-10.816254 3.960633-16.836307.872277-6.277194 6.917392-13.173101 11.647841-14.70459zm9.821372 13.945297c-.59291-.754073-1.33873-1.43961-2.245457-2.022019-4.435781-6.430308-15.158623-7.650653-16.988052 1.493028-.447907 1.461927-.56494 3.000808-.518587 4.522365.361991 6.292337 6.44466 12.863196 12.747104 10.795205a43.593754 43.604259 0 0 0 1.922354-1.738271c-.252919.06452-.511705.118096-.776441.159913-7.538854 2.940659-15.307575-5.261104-13.222709-12.707287.304507-1.369146.873865-2.672133 1.623461-3.854975 3.795526-6.602409 11.886475-2.130649 15.516041 2.201832 2.228526 1.611675 3.201436 3.881296 3.184416 6.146111-.001.157707-.0142.31521-.0249.472647a43.593754 43.604259 0 0 0 .54845-.859825c-.11196-1.62579-.68295-3.231684-1.76569-4.608724zm-15.826269-20.246149c.113114.16382.509315.883277 1.415846 2.43491l.287379 1.075077c-1.469376 6.386688-8.080575 10.859979-8.575488 17.910617.232506 5.91757-5.454136 15.804065-4.941327 18.627125-1.828966-6.253204 4.622185-10.902325 4.240119-17.171446.774608-6.376024 4.559528-11.65051 8.066158-16.785966 1.376573-2.06941-.832029-6.581778-.492687-6.090317zm14.234206 19.865877c-2.860177-3.762749-7.706862-6.33657-12.084861-5.64146-5.120484 2.190826-6.763193 9.431075-3.954693 13.999913 2.432642 5.023012 9.01255 6.139988 13.700337 3.927813a43.593754 43.604259 0 0 0 4.83002-5.963482c-.11957-2.231997-1.05074-4.428283-2.490803-6.322784zm-.914759.692514c1.060693 1.438716 1.754782 3.061896 1.859042 4.677773l.00028.000363c.0278.430814.0138.861267-.0466 1.287422-3.033976 8.186287-17.036397 5.48808-17.099797-3.223604.01457-1.98266.595704-3.99119 1.871274-5.540295 3.751447-4.175367 10.233426-1.518151 13.415761 2.798341zm-1.845512.154996c-3.956542-5.085665-13.787649-3.594529-11.227677 4.233335 1.659703 6.636662 12.337178 5.126965 12.982226.188037.148855-1.13975-.236931-2.46175-1.390664-3.908787-.114791-.177749-.236255-.348532-.363885-.512585zm-39.441013-50.393572c-1.938558 3.703831-14.252582 3.076236-13.871286 3.155403.939894-.124797 1.880664-.246045 2.814435-.412083 3.052157-.392121 10.439569-2.384393 11.056851-2.74332zm39.036879 51.620175c.494379.693912.81332 1.464453.870533 2.270091.05281.743663-.117387 1.5175-.578901 2.288321-4.811674 6.385996-15.668063-4.483494-7.136858-7.613231 2.301126-.418885 5.362088.973083 6.845226 3.054819zm-46.721572-56.242825c-.984143-1.250409-2.232181-2.068645-3.609928-2.672074a43.593754 43.604259 0 0 0 -1.825299.985548c6.013194 6.149208-7.27312 8.091109-11.597564 9.648649a43.593754 43.604259 0 0 0 -.42603.528847c5.762541-2.60618 14.655413-2.046562 17.458821-8.49097zm43.321755 57.852399c-.225543-.272046-.693151-.6131-1.504475-1.027009-2.771662 1.7338 1.53522 2.357124 1.671175 1.442791.017-.114292-.03137-.252553-.1667-.415782zm-45.921214-51.047226c-5.803101.226944-11.025039 2.357299-16.26125 4.39345.469574-.269742.933604-.562187 1.383826-.908402 3.955019-2.166316 13.553666-3.664385 14.877424-3.485048zm5.253861 8.4687c-3.953015-5.070272-12.716529-6.319562-18.031555-2.769118-7.835504 6.591361 7.121872 8.37843 11.508527 9.499686 2.977654 1.037666 8.286396 1.94175 8.389715-2.622004-.298407-1.564966-.954453-2.938501-1.866687-4.108564zm-2.604675-.173768c.562237.76296.863399 1.575339.793985 2.387531-.08543.999621-.732139 1.998393-2.146356 2.903523-2.27092.508379-4.578546.280242-6.826867-.219697-1.442154.044-3.109022-.42445-4.563095-1.142274.659342.227176 1.453688.360704 2.406437.359171 1.70942.449183 3.613206.788478 5.288956.775649 9.874342.52467 2.2326-10.683548-4.10372-8.650709-5.124006-.778478-7.733086 4.476941-4.877115 6.799917-2.458099-1.715182-3.394462-4.284196.98239-6.264182 3.275257-2.629555 10.609026-.255086 13.045385 3.051071zm-1.959765-.400075c.417334.519532.739549 1.102092.937425 1.742489-.962839 5.810842-13.903081 3.565931-13.823862-1.677261 2.373543-4.254287 9.965097-3.701945 12.886437-.06523zm-.819837.18664c-2.335959-2.946767-10.32749-4.97347-11.676262.484744.52831 3.484903 6.26035 3.956402 9.064235 3.916791 2.256659-.711367 3.189885-1.69541 3.249778-2.711696.03342-.567126-.205166-1.144141-.637751-1.689839zm-2.248025-.127747c.147155.472335.220518.885251.23231 1.243354.176902 5.371541-13.633992-1.512096-4.2285-2.782259 1.4493.01268 2.991688.430437 3.99619 1.538905zm44.287633 58.356851c-2.624438-.20138-5.199348-.0849-7.628195 1.11581-.23653.99372-.260561 1.89144-.112877 2.70878a43.593754 43.604259 0 0 0 .451366-.17427c.02288-1.91991 2.182207-3.43784.09913-.34196.01337.0917.03325.18688.05277.282a43.593754 43.604259 0 0 0 7.137801-3.59036zm-8.067574-7.919904c.02098.03756-.01189.576494-.09601 1.900526l-.471275.77866c.278051-1.129153.452017-2.206249.528307-2.559918.01907-.08842.03198-.131789.03898-.119268zm-34.119274-37.635425c.03937.114624-.176461.635036-.736335 1.789677-.156907.153169-1.486455.746331-2.922849 1.361826 1.781322-1.156055 3.368569-3.183991 3.627018-3.1764.01579.000463.02654.0085.03217.0249zm30.973287 44.284739c-.595676 2.19541-1.288355 1.74977 0 0zm-38.339689-47.603159c.02377.03132.03675.06013.03919.08617.0052.05554-.03952.09836-.139636.12585-.837484-.567415-1.787322-.942253-2.749135-1.237638-3.030388-1.603723-10.870773-1.36036-11.889933-.872157 3.483526-2.390977 14.008999.935085 14.739511 1.897779zm-2.2223 1.49746c-.411537-.572823-1.215277-1.13845-2.524479-1.685513-3.65298-1.278335-7.22743-.47431-10.795533.515341a43.593754 43.604259 0 0 0 -.163047.638149c2.459992-.654242 4.925387-1.263197 7.405698-1.300157 5.9122-.813621 7.606599 5.452739 1.38629 6.77213-6.727835.810178-10.310092 7.939108-3.19273 11.462512 3.380459 2.412262 13.585022 11.135966 3.231754 9.308915-2.427386-.0114-4.754769.413838-6.997461 1.126567a43.593754 43.604259 0 0 0 .223068.538833c5.820661-1.65321 12.368539-1.130064 16.355262 3.660733 1.778994 5.73027-2.746879 8.133446-7.665788 9.532656a43.593754 43.604259 0 0 0 .594084.637662c.484426-.08168.939506-.145493 1.313793-.172234 6.377398.427678 8.643204-12.978924 13.573196-4.120098.252003.725537.367813 1.431545.367499 2.113279-.0017 3.841123-3.685483 6.910134-7.406018 8.384964a43.593754 43.604259 0 0 0 .86854.5154c4.237163-1.79254 7.882231-4.988986 7.607236-9.114777-.06288-.943395-.330945-1.935095-.843553-2.970031-4.551892-4.434262-8.575115-9.324011-13.277925-13.626048-2.992443-4.214839-14.133431-7.925467-9.853094-14.021647 2.802466-1.79467 12.01551-5.10339 9.793208-8.196636zm4.171008 5.717636c-2.063053.840358-3.471364 1.330623-.74244.01.241834.04174.490586.02891.74244-.01zm-2.685855 1.215254c.01739.02865.02336.05593.0196.08156-.05259.358822-1.968407.412236-.108447-.171838.04247.03137.07146.06163.08884.09028zm10.611639 19.976147c1.712359 2.220794 3.345005 4.507602 4.970039 6.777564-.09966-.116044-.190884-.238359-.295899-.350139-4.886909-6.07704-9.452388-12.529706-15.652896-17.344712.426711.260364.892871.512102 1.419752.749812 3.62998 2.948729 6.705073 6.466152 9.559004 10.167475zm2.213732 6.211574c1.665421 2.210443 3.079671 4.885522 2.884765 6.899761-.0405.418543-.150646.80861-.342294 1.15999.375973-7.283069-7.03542-11.629656-10.928713-16.946489-3.199425-3.392362-12.856288-9.821374-12.704228-11.169561 6.397588 5.666685 13.819842 10.292869 18.791396 17.435909.733242.706993 1.542064 1.615643 2.299074 2.62039zm4.050312 6.23567c.0307.03341.04534.271766.02272.71091-.02412.468421-.09061 1.165791-.226159 2.086348-.0085-1.952381.135894-2.870758.203437-2.797258zm-.584531 3.42283c-.02465.525055-1.090988 2.226008 0 0zm-.911167-.633983c.01009.0095.01601.0232.01693.04109.0049.09544-.132842.315813-.535798.727863-.724159-.163591.367489-.911983.518867-.768955zm-.532708 1.164849c.0097.01338.01262.03149.0083.05459-.02328.123188-.262305.391413-.892954.875762-.854539-.291307.739689-1.131033.884697-.930351zm-1.131897 1.294322c.0064.007.0098.0158.0094.0267-.0021.0581-.109067.17226-.410216.36633-.488937-.19581.304944-.49956.400791-.39304zm.23241 1.43279c.01937.033-.127133.25262-.58624.7031.233048-.42592.495125-.68366.568034-.70589.0091-.003.01544-.002.01821.003zm-1.229146-.52739c.01554.0289-.118078.21898-.564462.68192.09818-.33053.538552-.7301.564462-.68192zm.269598 1.50728c.02453.0277.03694.0553.03907.0822.0299.37695-1.933206.64706-.151353-.16559.05118.0276.08775.0557.112281.0833zm-1.221639-.51301c.01931.0289.02911.0558.03083.0805.02405.34523-1.51677.27491-.11897-.17359.04022.0332.06882.0643.08814.0931zm-12.23058-15.776591c-1.688593-2.097823-4.6817-3.574641-7.623469-2.828638-1.446494.04329-2.908934.259182-4.349111.621566a43.593754 43.604259 0 0 0 .277649.554703c4.394963-1.474447 13.010085-.101504 11.651393 6.039862-1.508015 1.805003-3.468449 2.740408-5.59947 3.368325a43.593754 43.604259 0 0 0 .494512.592877c.886854-.202317 1.688455-.393991 2.311214-.581961 5.023084-1.345759 5.008329-5.069534 2.837282-7.766734zm11.340762 17.698061c.0714.0795.09668.14365.0897.19473-.04884.35752-1.675707.0665-.0897-.19473zm-1.066986-.44642c.0033.009.0029.0193-.0028.0303-.03013.0587-.19854.14141-.609504.24415-.422331-.35448.562076-.4134.612299-.27442z" fill="url(#m)" filter="url(#n)" opacity=".25"/><ellipse cx="66.152519" cy="-66.146759" fill="url(#a)" filter="url(#f)" opacity=".75" rx="42.702686" ry="42.695023" transform="rotate(90)"/><path d="m109.73882 66.13403c0-11.164738-4.24884-22.329695-12.746662-30.827392-8.497763-8.497765-19.67365-12.76755-30.826022-12.76768-11.152477-.000129-22.330571 4.270206-30.828307 12.76768-16.995636 16.995637-17.076893 44.725747-.07402 61.728349 17.003075 17.003073 44.733181 16.921403 61.728349-.074021 8.497832-8.497582 12.746662-19.662197 12.746662-30.826936zm-3.28388 0c0 10.311988-3.9328 20.62382-11.799008 28.489797-15.73196 15.732193-41.323466 15.807833-57.055898.075391-15.732206-15.731954-15.657041-41.323007.075392-57.055441 7.86622-7.865977 18.178113-11.799589 28.490253-11.799469 10.312139.00012 20.624032 3.933247 28.490253 11.799469 7.866208 7.866097 11.799008 18.178266 11.799008 28.490253z" fill="#5b0b0b"/></g></svg>