<svg height="500" viewBox="0 0 132.29167 132.29167" width="500" xmlns="http://www.w3.org/2000/svg" xmlns:xlink="http://www.w3.org/1999/xlink"><mask id="a" maskUnits="userSpaceOnUse"><path d="m-13.229145-13.229186h158.750005v158.750016h-158.750005z" fill="url(#b)" filter="url(#c)" stroke-width="11.83"/></mask><radialGradient id="b" cx="66.145844" cy="66.145836" gradientTransform="matrix(-1.0000001 .00000145 0 -.99999997 132.29171 132.29155)" gradientUnits="userSpaceOnUse" r="66.145836"><stop offset="0" stop-color="#fff"/><stop offset=".49999994" stop-color="#fff"/><stop offset=".74999988" stop-color="#808080"/><stop offset=".87499994" stop-color="#404040"/><stop offset="1"/></radialGradient><filter id="c" color-interpolation-filters="sRGB" height="1.0135" width="1.0135" x="-.00675" y="-.00675"><feGaussianBlur stdDeviation=".44648439"/></filter><radialGradient id="d" cx="703.05621" cy="255.40021" gradientTransform="matrix(.12107523 -.12107523 .05841622 .05841622 -57.692804 112.54712)" gradientUnits="userSpaceOnUse" r="1011.8609"><stop offset="0" stop-color="#c1c0be"/><stop offset=".08962709" stop-color="#c1c0be" stop-opacity=".9"/><stop offset="1" stop-color="#c1c0be" stop-opacity="0"/></radialGradient><radialGradient id="e" cx="703.05621" cy="1070.2185" gradientTransform="matrix(.12107523 -.12107523 .05841622 .05841622 -57.692804 112.54712)" gradientUnits="userSpaceOnUse" r="1011.8609" spreadMethod="pad"><stop offset="0" stop-color="#e3e1db"/><stop offset=".08962709" stop-color="#e3e1db" stop-opacity=".9"/><stop offset="1" stop-color="#e3e1db" stop-opacity="0"/></radialGradient><radialGradient id="f" cx="318.10205" cy="130.80363" gradientTransform="matrix(.43446336 .43446828 -.90042865 .90042861 45.7215 -189.83875)" gradientUnits="userSpaceOnUse" r="136.05388" spreadMethod="pad"><stop offset="0" stop-color="#e3e1db"/><stop offset=".127809" stop-color="#e3e1db" stop-opacity=".9"/><stop offset=".55261534" stop-color="#c1c0be" stop-opacity=".45"/><stop offset="1" stop-color="#a2a19a" stop-opacity="0"/></radialGradient><radialGradient id="g" cx="4601.1221" cy="4277.6772" gradientTransform="matrix(0 1 -1 0 5224.5762 -3824.5764)" gradientUnits="userSpaceOnUse" r="11.2507" xlink:href="#h"/><linearGradient id="h"><stop offset="0" stop-color="#fff"/><stop offset=".1375" stop-color="#fff" stop-opacity=".8625"/><stop offset="1" stop-color="#fff" stop-opacity="0"/></linearGradient><radialGradient id="i" cx="4694.3481" cy="4395.814" gradientTransform="matrix(0 1 -1 0 5224.5762 -3824.5764)" gradientUnits="userSpaceOnUse" r="11.2507" xlink:href="#h"/><radialGradient id="j" cx="4845.7568" cy="4885.4878" gradientTransform="matrix(0 1 -1 0 5224.5762 -3824.5764)" gradientUnits="userSpaceOnUse" r="11.2507" xlink:href="#h"/><radialGradient id="k" cx="4996.8203" cy="4201.0781" gradientTransform="matrix(0 1 -1 0 5224.5762 -3824.5764)" gradientUnits="userSpaceOnUse" r="11.2507" xlink:href="#h"/><radialGradient id="l" cx="4264.2671" cy="4804.9849" gradientTransform="matrix(0 1 -1 0 5224.5762 -3824.5764)" gradientUnits="userSpaceOnUse" r="11.2507" xlink:href="#h"/><radialGradient id="m" cx="4253.0161" cy="4349.7529" gradientTransform="matrix(0 1 -1 0 5224.5762 -3824.5764)" gradientUnits="userSpaceOnUse" r="11.2507" xlink:href="#h"/><radialGradient id="n" cx="4291.9346" cy="4509.8506" gradientTransform="matrix(0 1 -1 0 5224.5762 -3824.5764)" gradientUnits="userSpaceOnUse" r="11.2507" xlink:href="#h"/><radialGradient id="o" cx="4178.7915" cy="4193.6758" gradientTransform="matrix(0 1 -1 0 5224.5762 -3824.5764)" gradientUnits="userSpaceOnUse" r="11.2507" xlink:href="#h"/><radialGradient id="p" cx="4508.9131" cy="4184.4229" gradientTransform="matrix(0 1 -1 0 5224.5762 -3824.5764)" gradientUnits="userSpaceOnUse" r="11.2507" xlink:href="#h"/><radialGradient id="q" cx="4169.5386" cy="4599.0166" gradientTransform="matrix(0 1 -1 0 5224.5762 -3824.5764)" gradientUnits="userSpaceOnUse" r="11.2507" xlink:href="#h"/><radialGradient id="r" cx="4024.0554" cy="4671.3345" gradientTransform="matrix(0 1 -1 0 5224.5762 -3824.5764)" gradientUnits="userSpaceOnUse" r="11.2507" xlink:href="#h"/><radialGradient id="s" cx="4381.2778" cy="4473.0386" gradientTransform="matrix(0 1 -1 0 5224.5762 -3824.5764)" gradientUnits="userSpaceOnUse" r="5.6228" xlink:href="#h"/><radialGradient id="t" cx="4207.3452" cy="4447.1753" gradientTransform="matrix(0 1 -1 0 5224.5762 -3824.5764)" gradientUnits="userSpaceOnUse" r="5.6228" xlink:href="#h"/><radialGradient id="u" cx="4156.0269" cy="4803.9863" gradientTransform="matrix(0 1 -1 0 5224.5762 -3824.5764)" gradientUnits="userSpaceOnUse" r="5.6228" xlink:href="#h"/><radialGradient id="v" cx="4201.7222" cy="5018.0508" gradientTransform="matrix(0 1 -1 0 5224.5762 -3824.5764)" gradientUnits="userSpaceOnUse" r="5.6228" xlink:href="#h"/><radialGradient id="w" cx="4756.5977" cy="4610.2671" gradientTransform="matrix(0 1 -1 0 5224.5762 -3824.5764)" gradientUnits="userSpaceOnUse" r="5.6228" xlink:href="#h"/><radialGradient id="x" cx="4724.8408" cy="4498.3604" gradientTransform="matrix(0 1 -1 0 5224.5762 -3824.5764)" gradientUnits="userSpaceOnUse" r="5.6228" xlink:href="#h"/><radialGradient id="y" cx="4755.5991" cy="4916.6094" gradientTransform="matrix(0 1 -1 0 5224.5762 -3824.5764)" gradientUnits="userSpaceOnUse" r="5.6228" xlink:href="#h"/><radialGradient id="z" cx="4815.3223" cy="4406.499" gradientTransform="matrix(0 1 -1 0 5224.5762 -3824.5764)" gradientUnits="userSpaceOnUse" r="5.6228" xlink:href="#h"/><radialGradient id="A" cx="4840.1343" cy="4528.7949" gradientTransform="matrix(0 1 -1 0 5224.5762 -3824.5764)" gradientUnits="userSpaceOnUse" r="5.6228" xlink:href="#h"/><radialGradient id="B" cx="4994.8228" cy="4675.311" gradientTransform="matrix(0 1 -1 0 5224.5762 -3824.5764)" gradientUnits="userSpaceOnUse" r="5.6228" xlink:href="#h"/><radialGradient id="C" cx="4625.9868" cy="4580.4009" gradientTransform="matrix(0 1 -1 0 5224.5762 -3824.5764)" gradientUnits="userSpaceOnUse" r="5.6228" xlink:href="#h"/><radialGradient id="D" cx="4832.085" cy="4231.3418" gradientTransform="matrix(0 1 -1 0 5224.5762 -3824.5764)" gradientUnits="userSpaceOnUse" r="5.6228" xlink:href="#h"/><radialGradient id="E" cx="4920.2227" cy="4281.3076" gradientTransform="matrix(0 1 -1 0 5224.5762 -3824.5764)" gradientUnits="userSpaceOnUse" r="5.6228" xlink:href="#h"/><radialGradient id="F" cx="4483.835" cy="4313.1982" gradientTransform="matrix(0 1 -1 0 5224.5762 -3824.5764)" gradientUnits="userSpaceOnUse" r="5.6228" xlink:href="#h"/><radialGradient id="G" cx="4664.439" cy="4695.5273" gradientTransform="matrix(0 1 -1 0 5224.5762 -3824.5764)" gradientUnits="userSpaceOnUse" r="11.2507" xlink:href="#h"/><radialGradient id="H" cx="4894.2646" cy="4681.8555" gradientTransform="matrix(0 1 -1 0 5224.5762 -3824.5764)" gradientUnits="userSpaceOnUse" r="11.2507" xlink:href="#h"/><radialGradient id="I" cx="4985.5698" cy="4361.0039" gradientTransform="matrix(0 1 -1 0 5224.5762 -3824.5764)" gradientUnits="userSpaceOnUse" r="11.2507" xlink:href="#h"/><radialGradient id="J" cx="4713.5898" cy="4089.8687" gradientTransform="matrix(0 1 -1 0 5224.5762 -3824.5764)" gradientUnits="userSpaceOnUse" r="11.2507" xlink:href="#h"/><radialGradient id="K" cx="4757.5957" cy="4804.9849" gradientTransform="matrix(0 1 -1 0 5224.5762 -3824.5764)" gradientUnits="userSpaceOnUse" r="11.2507" xlink:href="#h"/><radialGradient id="L" cx="4433.3354" cy="5016.0532" gradientTransform="matrix(0 1 -1 0 5224.5762 -3824.5764)" gradientUnits="userSpaceOnUse" r="11.2507" xlink:href="#h"/><radialGradient id="M" cx="4371.5723" cy="4725.9341" gradientTransform="matrix(0 1 -1 0 5224.5762 -3824.5764)" gradientUnits="userSpaceOnUse" r="11.2507" xlink:href="#h"/><radialGradient id="N" cx="4510.9111" cy="4743.7231" gradientTransform="matrix(0 1 -1 0 5224.5762 -3824.5764)" gradientUnits="userSpaceOnUse" r="11.2507" xlink:href="#h"/><radialGradient id="O" cx="4269.4331" cy="4686.5615" gradientTransform="matrix(0 1 -1 0 5224.5762 -3824.5764)" gradientUnits="userSpaceOnUse" r="11.2507" xlink:href="#h"/><radialGradient id="P" cx="4072.584" cy="4883.4902" gradientTransform="matrix(0 1 -1 0 5224.5762 -3824.5764)" gradientUnits="userSpaceOnUse" r="11.2507" xlink:href="#h"/><radialGradient id="Q" cx="4484.8335" cy="4664.189" gradientTransform="matrix(0 1 -1 0 5224.5762 -3824.5764)" gradientUnits="userSpaceOnUse" r="7.1455" xlink:href="#h"/><radialGradient id="R" cx="4613.2183" cy="4640.4971" gradientTransform="matrix(0 1 -1 0 5224.5762 -3824.5764)" gradientUnits="userSpaceOnUse" r="7.1455" xlink:href="#h"/><radialGradient id="S" cx="4091.8" cy="4252.5869" gradientTransform="matrix(0 1 -1 0 5224.5762 -3824.5764)" gradientUnits="userSpaceOnUse" r="7.1455" xlink:href="#h"/><radialGradient id="T" cx="4666.4365" cy="4863.9521" gradientTransform="matrix(0 1 -1 0 5224.5762 -3824.5764)" gradientUnits="userSpaceOnUse" r="7.1455" xlink:href="#h"/><radialGradient id="U" cx="4894.2646" cy="4840.1016" gradientTransform="matrix(0 1 -1 0 5224.5762 -3824.5764)" gradientUnits="userSpaceOnUse" r="7.1455" xlink:href="#h"/><radialGradient id="V" cx="4974.3188" cy="4809.6094" gradientTransform="matrix(0 1 -1 0 5224.5762 -3824.5764)" gradientUnits="userSpaceOnUse" r="7.1455" xlink:href="#h"/><radialGradient id="W" cx="4589.1577" cy="4997.6572" gradientTransform="matrix(0 1 -1 0 5224.5762 -3824.5764)" gradientUnits="userSpaceOnUse" r="7.1455" xlink:href="#h"/><radialGradient id="X" cx="4065.4385" cy="4519.7837" gradientTransform="matrix(0 1 -1 0 5224.5762 -3824.5764)" gradientUnits="userSpaceOnUse" r="7.1455" xlink:href="#h"/><radialGradient id="Y" cx="4347.4258" cy="4820.2441" gradientTransform="matrix(0 1 -1 0 5224.5762 -3824.5764)" gradientUnits="userSpaceOnUse" r="7.1455" xlink:href="#h"/><radialGradient id="Z" cx="4533.5781" cy="4593.1694" gradientTransform="matrix(0 1 -1 0 5224.5762 -3824.5764)" gradientUnits="userSpaceOnUse" r="7.1455" xlink:href="#h"/><radialGradient id="aa" cx="4448.2217" cy="4220.0913" gradientTransform="matrix(0 1 -1 0 5224.5762 -3824.5764)" gradientUnits="userSpaceOnUse" r="11.2507" xlink:href="#h"/><radialGradient id="ab" cx="4908.2451" cy="4929.8579" gradientTransform="matrix(0 1 -1 0 5224.5762 -3824.5764)" gradientUnits="userSpaceOnUse" r="11.2507" xlink:href="#h"/><radialGradient id="ac" cx="4987.5674" cy="5014.0552" gradientTransform="matrix(0 1 -1 0 5224.5762 -3824.5764)" gradientUnits="userSpaceOnUse" r="11.2507" xlink:href="#h"/><radialGradient id="ad" cx="3991.5649" cy="4813.0986" gradientTransform="matrix(0 1 -1 0 5224.5762 -3824.5764)" gradientUnits="userSpaceOnUse" r="11.2507" xlink:href="#h"/><radialGradient id="ae" cx="4012.8047" cy="4351.751" gradientTransform="matrix(0 1 -1 0 5224.5762 -3824.5764)" gradientUnits="userSpaceOnUse" r="11.2507" xlink:href="#h"/><radialGradient id="af" cx="4683.0972" cy="5027.3037" gradientTransform="matrix(0 1 -1 0 5224.5762 -3824.5764)" gradientUnits="userSpaceOnUse" r="11.2507" xlink:href="#h"/><radialGradient id="ag" cx="4367.481" cy="4195.6733" gradientTransform="matrix(0 1 -1 0 5224.5762 -3824.5764)" gradientUnits="userSpaceOnUse" r="11.2507" xlink:href="#h"/><radialGradient id="ah" cx="4526.4326" cy="4089.8687" gradientTransform="matrix(0 1 -1 0 5224.5762 -3824.5764)" gradientUnits="userSpaceOnUse" r="11.2507" xlink:href="#h"/><radialGradient id="ai" cx="4261.9028" cy="4242.5928" gradientTransform="matrix(0 1 -1 0 5224.5762 -3824.5764)" gradientUnits="userSpaceOnUse" r="11.2507" xlink:href="#h"/><radialGradient id="aj" cx="16633.223" cy="4517.6021" gradientTransform="matrix(0 .2895 -1 0 5224.5762 -4086.6375)" gradientUnits="userSpaceOnUse" r="19.241899" xlink:href="#h"/><radialGradient id="ak" cx="-15595.086" cy="5031.6465" gradientTransform="matrix(.2895 0 0 1 5221.3418 -4303.4033)" gradientUnits="userSpaceOnUse" r="19.241899" xlink:href="#h"/><radialGradient id="al" cx="16323.169" cy="4900.5503" gradientTransform="matrix(0 .2895 -1 0 5224.5762 -4086.6375)" gradientUnits="userSpaceOnUse" r="29.7325" xlink:href="#h"/><radialGradient id="am" cx="-16917.998" cy="4941.8945" gradientTransform="matrix(.2895 0 0 1 5221.3418 -4303.4033)" gradientUnits="userSpaceOnUse" r="29.7325" xlink:href="#h"/><radialGradient id="an" cx="17536.6" cy="5029.3018" gradientTransform="matrix(0 .2895 -1 0 5224.5762 -4086.6375)" gradientUnits="userSpaceOnUse" r="29.7325" xlink:href="#h"/><radialGradient id="ao" cx="-17362.775" cy="5293.1509" gradientTransform="matrix(.2895 0 0 1 5221.3418 -4303.4033)" gradientUnits="userSpaceOnUse" r="29.7325" xlink:href="#h"/><radialGradient id="ap" cx="15154.966" cy="4975.0698" gradientTransform="matrix(0 .2895 -1 0 5224.5762 -4086.6375)" gradientUnits="userSpaceOnUse" r="29.7325" xlink:href="#h"/><radialGradient id="aq" cx="-17175.43" cy="4603.7305" gradientTransform="matrix(.2895 0 0 1 5221.3418 -4303.4033)" gradientUnits="userSpaceOnUse" r="29.7325" xlink:href="#h"/><radialGradient id="ar" cx="16788.486" cy="4380.1377" gradientTransform="matrix(0 .2895 -1 0 5224.5762 -4086.6375)" gradientUnits="userSpaceOnUse" r="29.7325" xlink:href="#h"/><radialGradient id="as" cx="-15120.208" cy="5076.5913" gradientTransform="matrix(.2895 0 0 1 5221.3418 -4303.4033)" gradientUnits="userSpaceOnUse" r="29.7325" xlink:href="#h"/><radialGradient id="at" cx="15052.254" cy="4385.373" gradientTransform="matrix(0 .2895 -1 0 5224.5762 -4086.6375)" gradientUnits="userSpaceOnUse" r="29.7325" xlink:href="#h"/><radialGradient id="au" cx="-15138.295" cy="4573.998" gradientTransform="matrix(.2895 0 0 1 5221.3418 -4303.4033)" gradientUnits="userSpaceOnUse" r="29.7325" xlink:href="#h"/><radialGradient id="av" cx="16060.047" cy="4376.7666" gradientTransform="matrix(0 .2895 -1 0 5224.5762 -4086.6375)" gradientUnits="userSpaceOnUse" r="29.7325" xlink:href="#h"/><radialGradient id="aw" cx="-15108.562" cy="4865.7275" gradientTransform="matrix(.2895 0 0 1 5221.3418 -4303.4033)" gradientUnits="userSpaceOnUse" r="29.7325" xlink:href="#h"/><radialGradient id="ax" cx="15866.068" cy="4081.2617" gradientTransform="matrix(0 .2895 -1 0 5224.5762 -4086.6375)" gradientUnits="userSpaceOnUse" r="29.7325" xlink:href="#h"/><radialGradient id="ay" cx="-14087.729" cy="4809.5757" gradientTransform="matrix(.2895 0 0 1 5221.3418 -4303.4033)" gradientUnits="userSpaceOnUse" r="29.7325" xlink:href="#h"/><radialGradient id="az" cx="17890.787" cy="4106.2778" gradientTransform="matrix(0 .2895 -1 0 5224.5762 -4086.6375)" gradientUnits="userSpaceOnUse" r="29.7325" xlink:href="#h"/><radialGradient id="aA" cx="-14174.147" cy="5395.6787" gradientTransform="matrix(.2895 0 0 1 5221.3418 -4303.4033)" gradientUnits="userSpaceOnUse" r="29.7325" xlink:href="#h"/><radialGradient id="aB" cx="15420.522" cy="4902.7319" gradientTransform="matrix(0 .2895 -1 0 5224.5762 -4086.6375)" gradientUnits="userSpaceOnUse" r="19.241899" xlink:href="#h"/><radialGradient id="aC" cx="-16925.533" cy="4680.6021" gradientTransform="matrix(.2895 0 0 1 5221.3418 -4303.4033)" gradientUnits="userSpaceOnUse" r="19.241899" xlink:href="#h"/><radialGradient id="aD" cx="17559.291" cy="4676.2856" gradientTransform="matrix(0 .2895 -1 0 5224.5762 -4086.6375)" gradientUnits="userSpaceOnUse" r="19.241899" xlink:href="#h"/><radialGradient id="aE" cx="-16143.265" cy="5299.7192" gradientTransform="matrix(.2895 0 0 1 5221.3418 -4303.4033)" gradientUnits="userSpaceOnUse" r="19.241899" xlink:href="#h"/><radialGradient id="aF" cx="16866.557" cy="4774.4922" gradientTransform="matrix(0 .2895 -1 0 5224.5762 -4086.6375)" gradientUnits="userSpaceOnUse" r="19.241899" xlink:href="#h"/><radialGradient id="aG" cx="-16482.523" cy="5099.1909" gradientTransform="matrix(.2895 0 0 1 5221.3418 -4303.4033)" gradientUnits="userSpaceOnUse" r="19.241899" xlink:href="#h"/><radialGradient id="aH" cx="16071.692" cy="4574.7783" gradientTransform="matrix(0 .2895 -1 0 5224.5762 -4086.6375)" gradientUnits="userSpaceOnUse" r="19.241899" xlink:href="#h"/><radialGradient id="aI" cx="-15792.604" cy="4869.0986" gradientTransform="matrix(.2895 0 0 1 5221.3418 -4303.4033)" gradientUnits="userSpaceOnUse" r="19.241899" xlink:href="#h"/><radialGradient id="aJ" cx="16699.693" cy="4871.0977" gradientTransform="matrix(0 .2895 -1 0 5224.5762 -4086.6375)" gradientUnits="userSpaceOnUse" r="19.241899" xlink:href="#h"/><radialGradient id="aK" cx="-16816.252" cy="5050.8887" gradientTransform="matrix(.2895 0 0 1 5221.3418 -4303.4033)" gradientUnits="userSpaceOnUse" r="19.241899" xlink:href="#h"/><radialGradient id="aL" cx="18061.07" cy="4512.0322" gradientTransform="matrix(0 .2895 -1 0 5224.5762 -4086.6375)" gradientUnits="userSpaceOnUse" r="19.241899" xlink:href="#h"/><radialGradient id="aM" cx="-15575.844" cy="5444.9717" gradientTransform="matrix(.2895 0 0 1 5221.3418 -4303.4033)" gradientUnits="userSpaceOnUse" r="19.241899" xlink:href="#h"/><radialGradient id="aN" cx="17188.609" cy="4244.9609" gradientTransform="matrix(0 .2895 -1 0 5224.5762 -4086.6375)" gradientUnits="userSpaceOnUse" r="19.241899" xlink:href="#h"/><radialGradient id="aO" cx="-14653.234" cy="5192.417" gradientTransform="matrix(.2895 0 0 1 5221.3418 -4303.4033)" gradientUnits="userSpaceOnUse" r="19.241899" xlink:href="#h"/><radialGradient id="aP" cx="15143.32" cy="4682.5854" gradientTransform="matrix(0 .2895 -1 0 5224.5762 -4086.6375)" gradientUnits="userSpaceOnUse" r="19.241899" xlink:href="#h"/><radialGradient id="aQ" cx="-16165.027" cy="4600.3594" gradientTransform="matrix(.2895 0 0 1 5221.3418 -4303.4033)" gradientUnits="userSpaceOnUse" r="19.241899" xlink:href="#h"/><radialGradient id="aR" cx="17652.088" cy="4368.1597" gradientTransform="matrix(0 .2895 -1 0 5224.5762 -4086.6375)" gradientUnits="userSpaceOnUse" r="19.241899" xlink:href="#h"/><radialGradient id="aS" cx="-15078.83" cy="5326.5815" gradientTransform="matrix(.2895 0 0 1 5221.3418 -4303.4033)" gradientUnits="userSpaceOnUse" r="19.241899" xlink:href="#h"/><radialGradient id="aT" cx="3957.2905" cy="4201.0781" gradientTransform="matrix(0 1 -1 0 5224.5762 -3824.5764)" gradientUnits="userSpaceOnUse" r="11.2507" xlink:href="#h"/><radialGradient id="aU" cx="3955.2927" cy="4675.311" gradientTransform="matrix(0 1 -1 0 5224.5762 -3824.5764)" gradientUnits="userSpaceOnUse" r="5.6228" xlink:href="#h"/><radialGradient id="aV" cx="3880.6929" cy="4281.3076" gradientTransform="matrix(0 1 -1 0 5224.5762 -3824.5764)" gradientUnits="userSpaceOnUse" r="5.6228" xlink:href="#h"/><radialGradient id="aW" cx="3946.0398" cy="4361.0039" gradientTransform="matrix(0 1 -1 0 5224.5762 -3824.5764)" gradientUnits="userSpaceOnUse" r="11.2507" xlink:href="#h"/><radialGradient id="aX" cx="14469.968" cy="4512.0322" gradientTransform="matrix(0 .2895 -1 0 5224.5762 -4086.6375)" gradientUnits="userSpaceOnUse" r="19.241899" xlink:href="#h"/><radialGradient id="aY" cx="-15575.844" cy="4405.4414" gradientTransform="matrix(.2895 0 0 1 5221.3418 -4303.4033)" gradientUnits="userSpaceOnUse" r="19.241899" xlink:href="#h"/><radialGradient id="aZ" cx="16783.117" cy="4155.2524" gradientTransform="matrix(0 .2895 -1 0 5224.5762 -4086.6375)" gradientUnits="userSpaceOnUse" r="19.241899" xlink:href="#h"/><radialGradient id="a0" cx="-14343.332" cy="5075.0371" gradientTransform="matrix(.2895 0 0 1 5221.3418 -4303.4033)" gradientUnits="userSpaceOnUse" r="19.241899" xlink:href="#h"/><radialGradient id="a1" cx="15184.698" cy="4089.8687" gradientTransform="matrix(0 .2895 -1 0 5224.5762 -4086.6375)" gradientUnits="userSpaceOnUse" r="19.241899" xlink:href="#h"/><radialGradient id="a2" cx="-14117.461" cy="4612.3369" gradientTransform="matrix(.2895 0 0 1 5221.3418 -4303.4033)" gradientUnits="userSpaceOnUse" r="19.241899" xlink:href="#h"/><radialGradient id="a3" cx="14799.68" cy="4114.8848" gradientTransform="matrix(0 .2895 -1 0 5224.5762 -4086.6375)" gradientUnits="userSpaceOnUse" r="19.241899" xlink:href="#h"/><radialGradient id="a4" cx="-14203.88" cy="4500.8843" gradientTransform="matrix(.2895 0 0 1 5221.3418 -4303.4033)" gradientUnits="userSpaceOnUse" r="19.241899" xlink:href="#h"/><radialGradient id="a5" cx="4250.4473" cy="5175.2676" gradientTransform="matrix(0 -1 1 0 -5135.66355 5025.32025)" gradientUnits="userSpaceOnUse" r="11.2507" xlink:href="#h"/><radialGradient id="a6" cx="4163.4556" cy="5234.1792" gradientTransform="matrix(0 -1 1 0 -5135.66355 5025.32025)" gradientUnits="userSpaceOnUse" r="7.1455" xlink:href="#h"/><radialGradient id="a7" cx="4333.5586" cy="5224.1846" gradientTransform="matrix(0 -1 1 0 -5135.66355 5025.32025)" gradientUnits="userSpaceOnUse" r="11.2507" xlink:href="#h"/><radialGradient id="a8" cx="4028.946" cy="5182.6704" gradientTransform="matrix(0 -1 1 0 -5135.66355 5025.32025)" gradientUnits="userSpaceOnUse" r="11.2507" xlink:href="#h"/><radialGradient id="a9" cx="3952.3484" cy="5262.8999" gradientTransform="matrix(0 -1 1 0 -5135.66355 5025.32025)" gradientUnits="userSpaceOnUse" r="5.6228" xlink:href="#h"/><radialGradient id="ba" cx="4358.6768" cy="4918.6069" gradientTransform="matrix(0 1 -1 0 5224.5762 -3824.5764)" gradientUnits="userSpaceOnUse" r="11.2507" xlink:href="#h"/><radialGradient id="bb" cx="5075.5581" cy="4804.9849" gradientTransform="matrix(0 1 -1 0 5224.5762 -3824.5764)" gradientUnits="userSpaceOnUse" r="11.2507" xlink:href="#h"/><radialGradient id="bc" cx="5064.3071" cy="4349.7529" gradientTransform="matrix(0 1 -1 0 5224.5762 -3824.5764)" gradientUnits="userSpaceOnUse" r="11.2507" xlink:href="#h"/><radialGradient id="bd" cx="5103.2256" cy="4509.8506" gradientTransform="matrix(0 1 -1 0 5224.5762 -3824.5764)" gradientUnits="userSpaceOnUse" r="11.2507" xlink:href="#h"/><radialGradient id="be" cx="5192.5688" cy="4473.0386" gradientTransform="matrix(0 1 -1 0 5224.5762 -3824.5764)" gradientUnits="userSpaceOnUse" r="5.6228" xlink:href="#h"/><radialGradient id="bf" cx="5182.8633" cy="4725.9341" gradientTransform="matrix(0 1 -1 0 5224.5762 -3824.5764)" gradientUnits="userSpaceOnUse" r="11.2507" xlink:href="#h"/><radialGradient id="bg" cx="5080.7241" cy="4686.5615" gradientTransform="matrix(0 1 -1 0 5224.5762 -3824.5764)" gradientUnits="userSpaceOnUse" r="11.2507" xlink:href="#h"/><radialGradient id="bh" cx="5158.7168" cy="4820.2441" gradientTransform="matrix(0 1 -1 0 5224.5762 -3824.5764)" gradientUnits="userSpaceOnUse" r="7.1455" xlink:href="#h"/><radialGradient id="bi" cx="5073.1938" cy="4242.5928" gradientTransform="matrix(0 1 -1 0 5224.5762 -3824.5764)" gradientUnits="userSpaceOnUse" r="11.2507" xlink:href="#h"/><radialGradient id="bj" cx="18862.688" cy="4376.7666" gradientTransform="matrix(0 .2895 -1 0 5224.5762 -4086.6375)" gradientUnits="userSpaceOnUse" r="29.7325" xlink:href="#h"/><radialGradient id="bk" cx="-15108.562" cy="5677.0186" gradientTransform="matrix(.2895 0 0 1 5221.3418 -4303.4033)" gradientUnits="userSpaceOnUse" r="29.7325" xlink:href="#h"/><radialGradient id="bl" cx="18223.164" cy="4902.7319" gradientTransform="matrix(0 .2895 -1 0 5224.5762 -4086.6375)" gradientUnits="userSpaceOnUse" r="19.241899" xlink:href="#h"/><radialGradient id="bm" cx="-16925.533" cy="5491.8931" gradientTransform="matrix(.2895 0 0 1 5221.3418 -4303.4033)" gradientUnits="userSpaceOnUse" r="19.241899" xlink:href="#h"/><radialGradient id="bn" cx="18874.334" cy="4574.7783" gradientTransform="matrix(0 .2895 -1 0 5224.5762 -4086.6375)" gradientUnits="userSpaceOnUse" r="19.241899" xlink:href="#h"/><radialGradient id="bo" cx="-15792.604" cy="5680.3896" gradientTransform="matrix(.2895 0 0 1 5221.3418 -4303.4033)" gradientUnits="userSpaceOnUse" r="19.241899" xlink:href="#h"/><radialGradient id="bp" cx="4756.5977" cy="3890.749" gradientTransform="matrix(0 1 -1 0 5224.5762 -3824.5764)" gradientUnits="userSpaceOnUse" r="5.6228" xlink:href="#h"/><radialGradient id="bq" cx="4625.9868" cy="3860.8828" gradientTransform="matrix(0 1 -1 0 5224.5762 -3824.5764)" gradientUnits="userSpaceOnUse" r="5.6228" xlink:href="#h"/><radialGradient id="br" cx="4664.439" cy="3976.0093" gradientTransform="matrix(0 1 -1 0 5224.5762 -3824.5764)" gradientUnits="userSpaceOnUse" r="11.2507" xlink:href="#h"/><radialGradient id="bs" cx="4894.2646" cy="3962.3374" gradientTransform="matrix(0 1 -1 0 5224.5762 -3824.5764)" gradientUnits="userSpaceOnUse" r="11.2507" xlink:href="#h"/><radialGradient id="bt" cx="4371.5723" cy="4006.416" gradientTransform="matrix(0 1 -1 0 5224.5762 -3824.5764)" gradientUnits="userSpaceOnUse" r="11.2507" xlink:href="#h"/><radialGradient id="bu" cx="4510.9111" cy="4024.2048" gradientTransform="matrix(0 1 -1 0 5224.5762 -3824.5764)" gradientUnits="userSpaceOnUse" r="11.2507" xlink:href="#h"/><radialGradient id="bv" cx="4269.4331" cy="3967.0435" gradientTransform="matrix(0 1 -1 0 5224.5762 -3824.5764)" gradientUnits="userSpaceOnUse" r="11.2507" xlink:href="#h"/><radialGradient id="bw" cx="4484.8335" cy="3944.6709" gradientTransform="matrix(0 1 -1 0 5224.5762 -3824.5764)" gradientUnits="userSpaceOnUse" r="7.1455" xlink:href="#h"/><radialGradient id="bx" cx="4613.2183" cy="3920.979" gradientTransform="matrix(0 1 -1 0 5224.5762 -3824.5764)" gradientUnits="userSpaceOnUse" r="7.1455" xlink:href="#h"/><radialGradient id="by" cx="4533.5781" cy="3873.6511" gradientTransform="matrix(0 1 -1 0 5224.5762 -3824.5764)" gradientUnits="userSpaceOnUse" r="7.1455" xlink:href="#h"/><radialGradient id="bz" cx="17559.291" cy="3956.7673" gradientTransform="matrix(0 .2895 -1 0 5224.5762 -4086.6375)" gradientUnits="userSpaceOnUse" r="19.241899" xlink:href="#h"/><radialGradient id="bA" cx="-13657.657" cy="5299.7192" gradientTransform="matrix(.2895 0 0 1 5221.3418 -4303.4033)" gradientUnits="userSpaceOnUse" r="19.241899" xlink:href="#h"/><radialGradient id="bB" cx="16071.692" cy="3855.26" gradientTransform="matrix(0 .2895 -1 0 5224.5762 -4086.6375)" gradientUnits="userSpaceOnUse" r="19.241899" xlink:href="#h"/><radialGradient id="bC" cx="-13306.996" cy="4869.0986" gradientTransform="matrix(.2895 0 0 1 5221.3418 -4303.4033)" gradientUnits="userSpaceOnUse" r="19.241899" xlink:href="#h"/><radialGradient id="bD" cx="15143.32" cy="3963.0671" gradientTransform="matrix(0 .2895 -1 0 5224.5762 -4086.6375)" gradientUnits="userSpaceOnUse" r="19.241899" xlink:href="#h"/><radialGradient id="bE" cx="-13679.42" cy="4600.3594" gradientTransform="matrix(.2895 0 0 1 5221.3418 -4303.4033)" gradientUnits="userSpaceOnUse" r="19.241899" xlink:href="#h"/><linearGradient id="bF" gradientUnits="userSpaceOnUse" spreadMethod="reflect" x1="276.80778" x2="246.79579" y1="91.44654" y2="104.94388"><stop offset="0" stop-color="#e3e1db"/><stop offset=".51123601" stop-color="#c1c0be"/><stop offset="1" stop-color="#a2a19a"/></linearGradient><filter id="bG" color-interpolation-filters="sRGB" height="1.020674" width="1.03154" x="-.01577" y="-.010337"><feGaussianBlur stdDeviation=".14652969"/></filter><filter id="bH" color-interpolation-filters="sRGB" height="1.019634" width="1.037248" x="-.018624" y="-.009817"><feGaussianBlur stdDeviation=".15435634"/></filter><g mask="url(#a)" stroke-width=".130543" transform="matrix(0 .72385163 -1 0 132.29166 36.532114)"><path d="m-16.763244-16.763244c-67.65774 67.657739-96.043756 148.969874-63.396059 181.617564 32.647695 32.64769 113.959825 4.26168 181.617563-63.39606 67.65774-67.657738 96.04375-148.969868 63.39606-181.617563-32.64769-32.647697-113.959825-4.261681-181.617564 63.396059z" fill="url(#d)" opacity=".3"/><path d="m30.833409 30.833409c-67.65774 67.657739-96.043753 148.969871-63.396059 181.617561 32.64769465 32.6477 113.959825 4.26168 181.61756-63.39606 67.65774-67.657735 96.04376-148.96986535 63.39606-181.61756-32.64769-32.647694-113.959822-4.261681-181.617561 63.396059z" fill="url(#e)" opacity=".3"/><path d="m125.25659 125.25659c67.65774-67.657734 96.04375-148.969866 63.39606-181.617556-32.64769-32.6477-113.959825-4.26168-181.61756 63.39606-67.65774 67.657735-96.04376 148.969866-63.39606 181.617556 32.64769 32.6477 113.959822 4.26168 181.61756-63.39606z" fill="url(#f)" opacity=".3"/></g><g opacity=".8" transform="matrix(.09660557 0 0 .09518071 -2.289553 -3.041022)"><circle cx="946.90002" cy="776.5" fill="url(#g)" opacity=".5" r="11.3"/><circle cx="828.79999" cy="869.79999" fill="url(#i)" opacity=".5" r="11.3"/><circle cx="339.10001" cy="1021.2" fill="url(#j)" opacity=".5" r="11.3"/><circle cx="1023.5" cy="1172.2" fill="url(#k)" opacity=".5" r="11.3"/><circle cx="419.60001" cy="439.70001" fill="url(#l)" opacity=".5" r="11.3"/><circle cx="874.79999" cy="428.39999" fill="url(#m)" opacity=".5" r="11.3"/><circle cx="714.70001" cy="467.39999" fill="url(#n)" opacity=".5" r="11.3"/><circle cx="1030.9" cy="354.20001" fill="url(#o)" opacity=".5" r="11.3"/><circle cx="1040.2" cy="684.29999" fill="url(#p)" opacity=".5" r="11.3"/><circle cx="625.59998" cy="345" fill="url(#q)" opacity=".5" r="11.3"/><circle cx="553.20001" cy="199.5" fill="url(#r)" opacity=".5" r="11.3"/><circle cx="751.5" cy="556.70001" fill="url(#s)" opacity=".5" r="5.6"/><circle cx="777.40002" cy="382.79999" fill="url(#t)" opacity=".5" r="5.6"/><circle cx="420.60001" cy="331.5" fill="url(#u)" opacity=".5" r="5.6"/><circle cx="206.5" cy="377.10001" fill="url(#v)" opacity=".5" r="5.6"/><circle cx="614.29999" cy="932" fill="url(#w)" opacity=".5" r="5.6"/><circle cx="726.20001" cy="900.29999" fill="url(#x)" opacity=".5" r="5.6"/><circle cx="308" cy="931" fill="url(#y)" opacity=".5" r="5.6"/><circle cx="818.09998" cy="990.70001" fill="url(#z)" opacity=".5" r="5.6"/><circle cx="695.79999" cy="1015.6" fill="url(#A)" opacity=".5" r="5.6"/><circle cx="549.29999" cy="1170.2" fill="url(#B)" opacity=".5" r="5.6"/><circle cx="644.20001" cy="801.40002" fill="url(#C)" opacity=".5" r="5.6"/><circle cx="993.20001" cy="1007.5" fill="url(#D)" opacity=".5" r="5.6"/><circle cx="943.29999" cy="1095.6" fill="url(#E)" opacity=".5" r="5.6"/><circle cx="911.40002" cy="659.29999" fill="url(#F)" opacity=".5" r="5.6"/><circle cx="529" cy="839.90002" fill="url(#G)" opacity=".5" r="11.3"/><circle cx="542.70001" cy="1069.7" fill="url(#H)" opacity=".5" r="11.3"/><circle cx="863.59998" cy="1161" fill="url(#I)" opacity=".5" r="11.3"/><circle cx="1134.7" cy="889" fill="url(#J)" opacity=".5" r="11.3"/><circle cx="419.60001" cy="933" fill="url(#K)" opacity=".5" r="11.3"/><circle cx="208.5" cy="608.79999" fill="url(#L)" opacity=".5" r="11.3"/><circle cx="498.60001" cy="547" fill="url(#M)" opacity=".5" r="11.3"/><circle cx="480.89999" cy="686.29999" fill="url(#N)" opacity=".5" r="11.3"/><circle cx="538" cy="444.89999" fill="url(#O)" opacity=".5" r="11.3"/><circle cx="341.10001" cy="248" fill="url(#P)" opacity=".5" r="11.3"/><circle cx="560.40002" cy="660.29999" fill="url(#Q)" opacity=".5" r="7.1"/><circle cx="584.09998" cy="788.59998" fill="url(#R)" opacity=".5" r="7.1"/><circle cx="972" cy="267.20001" fill="url(#S)" opacity=".5" r="7.1"/><circle cx="360.60001" cy="841.90002" fill="url(#T)" opacity=".5" r="7.1"/><circle cx="384.5" cy="1069.7" fill="url(#U)" opacity=".5" r="7.1"/><circle cx="415" cy="1149.7" fill="url(#V)" opacity=".5" r="7.1"/><circle cx="226.89999" cy="764.59998" fill="url(#W)" opacity=".5" r="7.1"/><circle cx="704.79999" cy="240.89999" fill="url(#X)" opacity=".5" r="7.1"/><circle cx="404.29999" cy="522.79999" fill="url(#Y)" opacity=".5" r="7.1"/><circle cx="631.40002" cy="709" fill="url(#Z)" opacity=".5" r="7.1"/><circle cx="1004.5" cy="623.59998" fill="url(#aa)" opacity=".5" r="11.3"/><circle cx="294.70001" cy="1083.7" fill="url(#ab)" opacity=".5" r="11.3"/><circle cx="210.5" cy="1163" fill="url(#ac)" opacity=".5" r="11.3"/><circle cx="411.5" cy="167" fill="url(#ad)" opacity=".5" r="11.3"/><circle cx="872.79999" cy="188.2" fill="url(#ae)" opacity=".5" r="11.3"/><circle cx="197.3" cy="858.5" fill="url(#af)" opacity=".5" r="11.3"/><circle cx="1028.9" cy="542.90002" fill="url(#ag)" opacity=".5" r="11.3"/><circle cx="1134.7" cy="701.90002" fill="url(#ah)" opacity=".5" r="11.3"/><circle cx="982" cy="437.29999" fill="url(#ai)" opacity=".5" r="11.3"/><ellipse cx="707" cy="728.20001" fill="url(#aj)" rx="19.200001" ry="5.6"/><ellipse cx="707" cy="728.20001" fill="url(#ak)" rx="5.6" ry="19.200001"/><ellipse cx="324" cy="638.5" fill="url(#al)" rx="29.700001" ry="8.6"/><ellipse cx="324" cy="638.5" fill="url(#am)" rx="8.6" ry="29.700001"/><ellipse cx="195.3" cy="989.70001" fill="url(#an)" rx="29.700001" ry="8.6"/><ellipse cx="195.3" cy="989.70001" fill="url(#ao)" rx="8.6" ry="29.700001"/><ellipse cx="249.5" cy="300.29999" fill="url(#ap)" rx="29.700001" ry="8.6"/><ellipse cx="249.5" cy="300.29999" fill="url(#aq)" rx="8.6" ry="29.700001"/><ellipse cx="844.40002" cy="773.20001" fill="url(#ar)" rx="29.700001" ry="8.6"/><ellipse cx="844.40002" cy="773.20001" fill="url(#as)" rx="8.6" ry="29.700001"/><ellipse cx="839.20001" cy="270.60001" fill="url(#at)" rx="29.700001" ry="8.6"/><ellipse cx="839.20001" cy="270.60001" fill="url(#au)" rx="8.6" ry="29.700001"/><ellipse cx="847.79999" cy="562.29999" fill="url(#av)" rx="29.700001" ry="8.6"/><ellipse cx="847.79999" cy="562.29999" fill="url(#aw)" rx="8.6" ry="29.700001"/><ellipse cx="1143.3" cy="506.20001" fill="url(#ax)" rx="29.700001" ry="8.6"/><ellipse cx="1143.3" cy="506.20001" fill="url(#ay)" rx="8.6" ry="29.700001"/><ellipse cx="1118.3" cy="1092.3" fill="url(#az)" rx="29.700001" ry="8.6"/><ellipse cx="1118.3" cy="1092.3" fill="url(#aA)" rx="8.6" ry="29.700001"/><ellipse cx="321.79999" cy="377.20001" fill="url(#aB)" rx="19.200001" ry="5.6"/><ellipse cx="321.79999" cy="377.20001" fill="url(#aC)" rx="5.6" ry="19.200001"/><ellipse cx="548.29999" cy="996.29999" fill="url(#aD)" rx="19.200001" ry="5.6"/><ellipse cx="548.29999" cy="996.29999" fill="url(#aE)" rx="5.6" ry="19.200001"/><ellipse cx="450.10001" cy="795.79999" fill="url(#aF)" rx="19.200001" ry="5.6"/><ellipse cx="450.10001" cy="795.79999" fill="url(#aG)" rx="5.6" ry="19.200001"/><ellipse cx="649.79999" cy="565.70001" fill="url(#aH)" rx="19.200001" ry="5.6"/><ellipse cx="649.79999" cy="565.70001" fill="url(#aI)" rx="5.6" ry="19.200001"/><ellipse cx="353.5" cy="747.5" fill="url(#aJ)" rx="19.200001" ry="5.6"/><ellipse cx="353.5" cy="747.5" fill="url(#aK)" rx="5.6" ry="19.200001"/><ellipse cx="712.5" cy="1141.6" fill="url(#aL)" rx="19.200001" ry="5.6"/><ellipse cx="712.5" cy="1141.6" fill="url(#aM)" rx="5.6" ry="19.200001"/><ellipse cx="979.59998" cy="889" fill="url(#aN)" rx="19.200001" ry="5.6"/><ellipse cx="979.59998" cy="889" fill="url(#aO)" rx="5.6" ry="19.200001"/><ellipse cx="542" cy="297" fill="url(#aP)" rx="19.200001" ry="5.6"/><ellipse cx="542" cy="297" fill="url(#aQ)" rx="5.6" ry="19.200001"/><ellipse cx="856.40002" cy="1023.2" fill="url(#aR)" rx="19.200001" ry="5.6"/><ellipse cx="856.40002" cy="1023.2" fill="url(#aS)" rx="5.6" ry="19.200001"/><circle cx="1023.5" cy="132.7" fill="url(#aT)" opacity=".5" r="11.3"/><circle cx="549.29999" cy="130.7" fill="url(#aU)" opacity=".5" r="5.6"/><circle cx="943.29999" cy="56.099998" fill="url(#aV)" opacity=".5" r="5.6"/><circle cx="863.59998" cy="121.5" fill="url(#aW)" opacity=".5" r="11.3"/><ellipse cx="712.5" cy="102" fill="url(#aX)" rx="19.200001" ry="5.6"/><ellipse cx="712.5" cy="102" fill="url(#aY)" rx="5.6" ry="19.200001"/><ellipse cx="1069.3" cy="771.59998" fill="url(#aZ)" rx="19.200001" ry="5.6"/><ellipse cx="1069.3" cy="771.59998" fill="url(#a0)" rx="5.6" ry="19.200001"/><ellipse cx="1134.7" cy="308.89999" fill="url(#a1)" rx="19.200001" ry="5.6"/><ellipse cx="1134.7" cy="308.89999" fill="url(#a2)" rx="5.6" ry="19.200001"/><ellipse cx="1109.7" cy="197.5" fill="url(#a3)" rx="19.200001" ry="5.6"/><ellipse cx="1109.7" cy="197.5" fill="url(#a4)" rx="5.6" ry="19.200001"/><circle cx="39.599998" cy="774.90002" fill="url(#a5)" opacity=".5" r="11.3"/><circle cx="98.5" cy="861.90002" fill="url(#a6)" opacity=".5" r="7.1"/><circle cx="88.5" cy="691.79999" fill="url(#a7)" opacity=".5" r="11.3"/><circle cx="47" cy="996.40002" fill="url(#a8)" opacity=".5" r="11.3"/><circle cx="127.2" cy="1073" fill="url(#a9)" opacity=".5" r="5.6"/><circle cx="306" cy="534.09998" fill="url(#ba)" opacity=".5" r="11.3"/><circle cx="419.60001" cy="1251" fill="url(#bb)" opacity=".5" r="11.3"/><circle cx="874.79999" cy="1239.7" fill="url(#bc)" opacity=".5" r="11.3"/><circle cx="714.70001" cy="1278.6" fill="url(#bd)" opacity=".5" r="11.3"/><circle cx="751.5" cy="1368" fill="url(#be)" opacity=".5" r="5.6"/><circle cx="498.60001" cy="1358.3" fill="url(#bf)" opacity=".5" r="11.3"/><circle cx="538" cy="1256.1" fill="url(#bg)" opacity=".5" r="11.3"/><circle cx="404.29999" cy="1334.1" fill="url(#bh)" opacity=".5" r="7.1"/><circle cx="982" cy="1248.6" fill="url(#bi)" opacity=".5" r="11.3"/><ellipse cx="847.79999" cy="1373.6" fill="url(#bj)" rx="29.700001" ry="8.6"/><ellipse cx="847.79999" cy="1373.6" fill="url(#bk)" rx="8.6" ry="29.700001"/><ellipse cx="321.79999" cy="1188.5" fill="url(#bl)" rx="19.200001" ry="5.6"/><ellipse cx="321.79999" cy="1188.5" fill="url(#bm)" rx="5.6" ry="19.200001"/><ellipse cx="649.79999" cy="1377" fill="url(#bn)" rx="19.200001" ry="5.6"/><ellipse cx="649.79999" cy="1377" fill="url(#bo)" rx="5.6" ry="19.200001"/><circle cx="1333.8" cy="932" fill="url(#bp)" opacity=".5" r="5.6"/><circle cx="1363.7" cy="801.40002" fill="url(#bq)" opacity=".5" r="5.6"/><circle cx="1248.6" cy="839.90002" fill="url(#br)" opacity=".5" r="11.3"/><circle cx="1262.2" cy="1069.7" fill="url(#bs)" opacity=".5" r="11.3"/><circle cx="1218.2" cy="547" fill="url(#bt)" opacity=".5" r="11.3"/><circle cx="1200.4" cy="686.29999" fill="url(#bu)" opacity=".5" r="11.3"/><circle cx="1257.5" cy="444.89999" fill="url(#bv)" opacity=".5" r="11.3"/><circle cx="1279.9" cy="660.29999" fill="url(#bw)" opacity=".5" r="7.1"/><circle cx="1303.6" cy="788.59998" fill="url(#bx)" opacity=".5" r="7.1"/><circle cx="1350.9" cy="709" fill="url(#by)" opacity=".5" r="7.1"/><ellipse cx="1267.8" cy="996.29999" fill="url(#bz)" rx="19.200001" ry="5.6"/><ellipse cx="1267.8" cy="996.29999" fill="url(#bA)" rx="5.6" ry="19.200001"/><ellipse cx="1369.3" cy="565.70001" fill="url(#bB)" rx="19.200001" ry="5.6"/><ellipse cx="1369.3" cy="565.70001" fill="url(#bC)" rx="5.6" ry="19.200001"/><ellipse cx="1261.5" cy="297" fill="url(#bD)" rx="19.200001" ry="5.6"/><ellipse cx="1261.5" cy="297" fill="url(#bE)" rx="5.6" ry="19.200001"/><g fill="#fff"><circle cx="946.90002" cy="776.5" r="2"/><circle cx="828.79999" cy="869.79999" r="2"/><circle cx="339.10001" cy="1021.2" r="2"/><circle cx="1023.5" cy="1172.2" r="2"/><circle cx="419.60001" cy="439.70001" r="2"/><circle cx="874.79999" cy="428.39999" r="2"/><circle cx="714.70001" cy="467.39999" r="2"/><circle cx="1030.9" cy="354.20001" r="2"/><circle cx="1040.2" cy="684.29999" r="2"/><circle cx="625.59998" cy="345" r="2"/><circle cx="553.20001" cy="199.5" r="2"/><circle cx="751.5" cy="556.70001" r="1"/><circle cx="777.40002" cy="382.79999" r="1"/><circle cx="420.60001" cy="331.5" r="1"/><circle cx="206.5" cy="377.10001" r="1"/><circle cx="614.29999" cy="932" r="1"/><circle cx="726.20001" cy="900.29999" r="1"/><circle cx="308" cy="931" r="1"/><circle cx="818.09998" cy="990.70001" r="1"/><circle cx="695.79999" cy="1015.6" r="1"/><circle cx="549.29999" cy="1170.2" r="1"/><circle cx="644.20001" cy="801.40002" r="1"/><circle cx="993.20001" cy="1007.5" r="1"/><circle cx="943.29999" cy="1095.6" r="1"/><circle cx="911.40002" cy="659.29999" r="1"/><circle cx="529" cy="839.90002" r="2"/><circle cx="542.70001" cy="1069.7" r="2"/><circle cx="863.59998" cy="1161" r="2"/><circle cx="1134.7" cy="889" r="2"/><circle cx="419.60001" cy="933" r="2"/><circle cx="208.5" cy="608.79999" r="2"/><circle cx="498.60001" cy="547" r="2"/><circle cx="480.89999" cy="686.29999" r="2"/><circle cx="538" cy="444.89999" r="2"/><circle cx="341.10001" cy="248" r="2"/><circle cx="560.40002" cy="660.29999" r="1.3"/><circle cx="584.09998" cy="788.59998" r="1.3"/><circle cx="972" cy="267.20001" r="1.3"/><circle cx="360.60001" cy="841.90002" r="1.3"/><circle cx="384.5" cy="1069.7" r="1.3"/><circle cx="415" cy="1149.7" r="1.3"/><circle cx="226.89999" cy="764.59998" r="1.3"/><circle cx="704.79999" cy="240.89999" r="1.3"/><circle cx="404.29999" cy="522.79999" r="1.3"/><circle cx="631.40002" cy="709" r="1.3"/><circle cx="1004.5" cy="623.59998" r="2"/><circle cx="294.70001" cy="1083.7" r="2"/><circle cx="210.5" cy="1163" r="2"/><circle cx="411.5" cy="167" r="2"/><circle cx="872.79999" cy="188.2" r="2"/><circle cx="197.3" cy="858.5" r="2"/><circle cx="1028.9" cy="542.90002" r="2"/><circle cx="1134.7" cy="701.90002" r="2"/><circle cx="982" cy="437.29999" r="2"/><circle cx="707" cy="728.20001" r="2.2"/><circle cx="324" cy="638.5" r="3.4"/><circle cx="195.3" cy="989.70001" r="3.4"/><circle cx="249.5" cy="300.29999" r="3.4"/><circle cx="844.40002" cy="773.20001" r="3.4"/><circle cx="839.20001" cy="270.60001" r="3.4"/><circle cx="847.79999" cy="562.29999" r="3.4"/><circle cx="1143.3" cy="506.20001" r="3.4"/><circle cx="1118.3" cy="1092.3" r="3.4"/><circle cx="321.79999" cy="377.20001" r="2.2"/><circle cx="548.29999" cy="996.29999" r="2.2"/><circle cx="450.10001" cy="795.79999" r="2.2"/><circle cx="649.79999" cy="565.70001" r="2.2"/><circle cx="353.5" cy="747.5" r="2.2"/><circle cx="712.5" cy="1141.6" r="2.2"/><circle cx="979.59998" cy="889" r="2.2"/><circle cx="542" cy="297" r="2.2"/><circle cx="856.40002" cy="1023.2" r="2.2"/><circle cx="1023.5" cy="132.7" r="2"/><circle cx="549.29999" cy="130.7" r="1"/><circle cx="943.29999" cy="56.099998" r="1"/><circle cx="863.59998" cy="121.5" r="2"/><circle cx="712.5" cy="102" r="2.2"/><circle cx="1069.3" cy="771.59998" r="2.2"/><circle cx="1134.7" cy="308.89999" r="2.2"/><circle cx="1109.7" cy="197.5" r="2.2"/><circle cx="39.599998" cy="774.90002" r="2"/><circle cx="98.5" cy="861.90002" r="1.3"/><circle cx="88.5" cy="691.79999" r="2"/><circle cx="47" cy="996.40002" r="2"/><circle cx="127.2" cy="1073" r="1"/><circle cx="306" cy="534.09998" r="2"/><circle cx="419.60001" cy="1251" r="2"/><circle cx="874.79999" cy="1239.7" r="2"/><circle cx="714.70001" cy="1278.6" r="2"/><circle cx="751.5" cy="1368" r="1"/><circle cx="498.60001" cy="1358.3" r="2"/><circle cx="538" cy="1256.1" r="2"/><circle cx="404.29999" cy="1334.1" r="1.3"/><circle cx="982" cy="1248.6" r="2"/><circle cx="847.79999" cy="1373.6" r="3.4"/><circle cx="321.79999" cy="1188.5" r="2.2"/><circle cx="649.79999" cy="1377" r="2.2"/><circle cx="1333.8" cy="932" r="1"/><circle cx="1363.7" cy="801.40002" r="1"/><circle cx="1248.6" cy="839.90002" r="2"/><circle cx="1262.2" cy="1069.7" r="2"/><circle cx="1218.2" cy="547" r="2"/><circle cx="1200.4" cy="686.29999" r="2"/><circle cx="1257.5" cy="444.89999" r="2"/><circle cx="1279.9" cy="660.29999" r="1.3"/><circle cx="1303.6" cy="788.59998" r="1.3"/><circle cx="1350.9" cy="709" r="1.3"/><circle cx="1267.8" cy="996.29999" r="2.2"/><circle cx="1369.3" cy="565.70001" r="2.2"/><circle cx="1261.5" cy="297" r="2.2"/></g></g><g stroke-width="1.31472" transform="matrix(-.74387674 .15870647 .15870647 .74387674 237.98563 -35.43691)"><path d="m248.99023 9.7324219c-24.81656 0-45.05468 20.2048221-45.05468 44.9980471v25.386718h25.64453v-24.542968c0-10.815328 8.63154-19.453125 19.41015-19.453125 10.68492 0 19.41211 9.037864 19.41211 19.453125v24.542968h25.64453v-25.386718c.00001-24.342682-20.16463-44.9980471-45.05664-44.9980471z" fill="#7f7e75"/><path d="m248.99087 15.994042c-21.44395 0-38.79427 17.325975-38.79427 38.736589v19.124348h13.12175v-18.281121c0-14.197013 11.50143-25.714061 25.67252-25.714061 14.17188 0 25.67305 11.838516 25.67305 25.713796v18.281386h13.12174v-19.124084c0-20.863984-17.38762-38.736853-38.79453-38.736853z" fill="url(#bF)" stroke-width="12.5227"/><path d="m200.81641 72.539062c-5.28339 8.158978-8.78633 18.426289-8.87891 26.574219 0 27.392199 25.89092 48.992189 57.05469 48.992189 31.16329 0 57.05273-21.59999 57.05273-48.992189-.88527-11.114242-3.55927-18.253392-8.88867-26.574219z" fill="#7f7e75"/><path d="m198.1996 99.114222c0 23.378048 22.48164 42.730208 50.79206 42.730208 28.30989 0 50.79153-19.35216 50.79153-42.730208 0-7.311761-2.18545-14.274272-6.05234-20.314709h-89.48737c-3.8653 6.039644-6.04388 13.003742-6.04388 20.314709z" fill="url(#bF)" stroke-width="12.5227"/><path d="m258.1859 97.108785c0 3.242955-2.05153 6.044265-4.86271 7.233765l6.33265 18.99138 1.23877 3.71502-2.57687-1.65112-17.31458-2.0639 6.2175-18.99119c-2.81138-1.1893-4.74795-3.99081-4.74795-7.233374 0-4.323313 3.47832-7.795821 7.80212-7.796112 4.32379-.00029 7.91107 3.471831 7.91107 7.795531z" fill="#7f7e75" filter="url(#bH)" stroke-width="1.31472"/><path d="m255.77732 100.82379c0 3.24297-2.05153 6.04428-4.86271 7.23378l7.40313 17.34026 2.57687 1.65112h-22.30003l6.2175-18.99119c-2.81138-1.1893-4.74795-3.99081-4.74795-7.23339 0-4.323324 3.47832-7.795832 7.80212-7.796123 4.32379-.00029 7.91107 3.471831 7.91107 7.795543z" fill="#e3e1db" filter="url(#bG)" stroke-width="1.31472"/><path d="m256.8478 99.17267c0 3.24297-2.05153 6.04428-4.86271 7.23378l6.33265 18.99138h-18.65268l6.2175-18.99119c-2.81138-1.1893-4.74795-3.99081-4.74795-7.233389 0-4.323313 3.47832-7.795821 7.80212-7.796112 4.32379-.00029 7.91107 3.471831 7.91107 7.795531z" fill="#323334" stroke-width="6.26135"/></g></svg>