<svg height="500" viewBox="0 0 500 500" width="500" xmlns="http://www.w3.org/2000/svg" xmlns:xlink="http://www.w3.org/1999/xlink"><filter id="a" color-interpolation-filters="sRGB" height="1.062055" width="1.06211" x="-.031055" y="-.031028"><feGaussianBlur stdDeviation="2.21625"/></filter><filter id="b" color-interpolation-filters="sRGB" height="1.061761" width="1.061695" x="-.030847" y="-.030881"><feGaussianBlur stdDeviation="2.21625"/></filter><clipPath id="c"><path d="m250 238.70312c-57.77774 0-104.75 46.97226-104.75 104.75 0 57.77775 46.97226 104.75 104.75 104.75s104.75-46.97225 104.75-104.75c0-57.77774-46.97226-104.75-104.75-104.75z"/></clipPath><linearGradient id="d" gradientTransform="matrix(391.593 0 0 -391.593 60.7962 7618.49)" gradientUnits="userSpaceOnUse" spreadMethod="pad" x1="0" x2="1" y1="0" y2="0"><stop offset="0" stop-color="#e3e1db"/><stop offset=".51123601" stop-color="#c1c0be"/><stop offset="1" stop-color="#a2a19a"/></linearGradient><linearGradient id="e" gradientTransform="matrix(3.7795274 0 0 3.7795274 -774.51887 341.50647)" gradientUnits="userSpaceOnUse" spreadMethod="reflect" x1="296.99301" x2="276.06619" xlink:href="#d" y1="-25.546221" y2="-10.092322"/><linearGradient id="f" gradientTransform="matrix(3.7795274 0 0 3.7795274 -774.51887 341.50647)" gradientUnits="userSpaceOnUse" spreadMethod="reflect" x1="322.80435" x2="317.86639" xlink:href="#d" y1="-47.563118" y2="-44.746235"/><linearGradient id="g" gradientTransform="matrix(3.7795274 0 0 3.7795274 -774.51887 341.50647)" gradientUnits="userSpaceOnUse" spreadMethod="reflect" x1="308.51785" x2="307.32819" xlink:href="#d" y1="-34.739635" y2="-36.825119"/><linearGradient id="h" gradientTransform="matrix(3.7795274 0 0 3.7795274 -774.51887 341.50647)" gradientUnits="userSpaceOnUse" spreadMethod="reflect" x1="303.77689" x2="304.95953" xlink:href="#d" y1="-43.050495" y2="-40.977306"/><linearGradient id="i" gradientTransform="matrix(3.7795274 0 0 3.7795274 -774.51887 273.17557)" gradientUnits="userSpaceOnUse" spreadMethod="reflect" x1="254.63734" x2="286.181" xlink:href="#d" y1="-11.183973" y2="10.891161"/><filter id="j" color-interpolation-filters="sRGB" height="1.11327" width="1.0833" x="-.04165" y="-.056635"><feGaussianBlur stdDeviation="2.3301058"/></filter><filter id="k" color-interpolation-filters="sRGB" height="1.045088" width="1.032098" x="-.016049" y="-.022544"><feGaussianBlur stdDeviation=".83067839"/></filter><filter id="l" color-interpolation-filters="sRGB" height="1.18035" width="1.128393" x="-.064197" y="-.090175"><feGaussianBlur stdDeviation="3.3227136"/></filter><filter id="m" color-interpolation-filters="sRGB" height="1.007214" width="1.005136" x="-.002568" y="-.003607"><feGaussianBlur stdDeviation=".13290854"/></filter><mask id="n" maskUnits="userSpaceOnUse"><path d="m-13.229145-13.229186h158.750005v158.750016h-158.750005z" fill="url(#o)" filter="url(#p)" stroke-width="11.83"/></mask><radialGradient id="o" cx="66.145844" cy="66.145836" gradientTransform="matrix(-1.0000001 .00000145 0 -.99999997 132.29171 132.29155)" gradientUnits="userSpaceOnUse" r="66.145836"><stop offset="0" stop-color="#fff"/><stop offset=".49999994" stop-color="#fff"/><stop offset=".74999988" stop-color="#808080"/><stop offset=".87499994" stop-color="#404040"/><stop offset="1"/></radialGradient><filter id="p" color-interpolation-filters="sRGB" height="1.0135" width="1.0135" x="-.00675" y="-.00675"><feGaussianBlur stdDeviation=".44648439"/></filter><radialGradient id="q" cx="703.05621" cy="255.40021" gradientTransform="matrix(.12107523 -.12107523 .05841622 .05841622 -57.692804 112.54712)" gradientUnits="userSpaceOnUse" r="1011.8609"><stop offset="0" stop-color="#c1c0be"/><stop offset=".08962709" stop-color="#c1c0be" stop-opacity=".9"/><stop offset="1" stop-color="#c1c0be" stop-opacity="0"/></radialGradient><radialGradient id="r" cx="703.05621" cy="1070.2185" gradientTransform="matrix(.12107523 -.12107523 .05841622 .05841622 -57.692804 112.54712)" gradientUnits="userSpaceOnUse" r="1011.8609" spreadMethod="pad"><stop offset="0" stop-color="#e3e1db"/><stop offset=".08962709" stop-color="#e3e1db" stop-opacity=".9"/><stop offset="1" stop-color="#e3e1db" stop-opacity="0"/></radialGradient><radialGradient id="s" cx="318.10205" cy="130.80363" gradientTransform="matrix(.43446336 .43446828 -.90042865 .90042861 45.7215 -189.83875)" gradientUnits="userSpaceOnUse" r="136.05388" spreadMethod="pad"><stop offset="0" stop-color="#e3e1db"/><stop offset=".127809" stop-color="#e3e1db" stop-opacity=".9"/><stop offset=".55261534" stop-color="#c1c0be" stop-opacity=".45"/><stop offset="1" stop-color="#a2a19a" stop-opacity="0"/></radialGradient><g mask="url(#n)" stroke-width=".136421" transform="matrix(0 3.1455663 -3.1455663 0 458.06607 81.455159)"><path d="m-16.763244-16.763244c-67.65774 67.657739-96.043756 148.969874-63.396059 181.617564 32.647695 32.64769 113.959825 4.26168 181.617563-63.39606 67.65774-67.657738 96.04375-148.969868 63.39606-181.617563-32.64769-32.647697-113.959825-4.261681-181.617564 63.396059z" fill="url(#q)" opacity=".3"/><path d="m30.833409 30.833409c-67.65774 67.657739-96.043753 148.969871-63.396059 181.617561 32.64769465 32.6477 113.959825 4.26168 181.61756-63.39606 67.65774-67.657735 96.04376-148.96986535 63.39606-181.61756-32.64769-32.647694-113.959822-4.261681-181.617561 63.396059z" fill="url(#r)" opacity=".3"/><path d="m125.25659 125.25659c67.65774-67.657734 96.04375-148.969866 63.39606-181.617556-32.64769-32.6477-113.959825-4.26168-181.61756 63.39606-67.65774 67.657735-96.04376 148.969866-63.39606 181.617556 32.64769 32.6477 113.959822 4.26168 181.61756-63.39606z" fill="url(#s)" opacity=".3"/></g><g stroke-width="6.96618" transform="matrix(.14355069 0 0 .14355069 -110.30611 31.967503)"><g transform="matrix(.53970428 .84185467 -.84185467 .53970428 985.817243 -1453.214041)"><use transform="translate(-407.29351 352.13918)" xlink:href="#u"/><use transform="translate(387.75799 352.13918)" xlink:href="#u"/><use transform="translate(1182.8697 352.13918)" xlink:href="#u"/></g><g transform="matrix(-.53970428 .84185467 .84185467 .53970428 4034.0971 -1453.214)"><use transform="translate(-407.29351 352.13918)" xlink:href="#u"/><use transform="translate(387.75799 352.13918)" xlink:href="#u"/><use transform="translate(1182.8697 352.13918)" xlink:href="#u"/></g></g><g clip-path="url(#c)" transform="translate(0 -53.931787)"><g fill-rule="evenodd"><path d="m348.5 343.45383a98.5 98.5 0 0 1 -98.5 98.5 98.5 98.5 0 0 1 -98.5-98.5 98.5 98.5 0 0 1 98.5-98.5 98.5 98.5 0 0 1 98.5 98.5z" fill="url(#e)"/><path d="m325.10352 270.52539a108.86593 108.86593 0 0 1 14.55468 53.7207 108.86593 108.86593 0 0 1 -108.86523 108.86524 108.86593 108.86593 0 0 1 -53.57031-14.41211c4.7363 4.58225 9.89833 8.72217 15.42773 12.35351a108.86593 108.86593 0 0 0 46.98438 10.90039 108.86593 108.86593 0 0 0 108.86523-108.86523 108.86593 108.86593 0 0 0 -10.76562-46.77344c-3.70206-5.66642-7.93334-10.95263-12.63086-15.78906z" fill="#7f7e75" filter="url(#a)"/><path d="m259.72266 244.95312a108.22195 108.22195 0 0 0 -108.22266 108.22266 108.22195 108.22195 0 0 0 13.04688 50.75977c3.3499 4.7201 7.06253 9.16363 11.1289 13.26172a108.22195 108.22195 0 0 1 -15.38672-55.23243 108.22195 108.22195 0 0 1 108.22266-108.22265 108.22195 108.22195 0 0 1 55.41797 15.5625c-4.62958-4.61604-9.69005-8.79892-15.11133-12.49024a108.22195 108.22195 0 0 0 -49.0957-11.86133z" style="opacity:.667;fill:#e3e1db;stroke-width:16;stroke-linecap:round;stroke-linejoin:round;filter:url(#b)"/></g><g transform="translate(0 68.3309)"><g filter="url(#j)" stroke-width="3.77953" transform="translate(0 -68.3309)"><path d="m201.7988 322.94074c-.59783 1.75396-.27474 5.19052 1.02112 6.38233 3.55679 3.2712-10.21465 9.65975-10.54623 11.15226-1.84362 5.17749 4.75931 8.74221 11.13072 9.89596 8.14023 1.66398 16.84464-1.84116 22.66439-7.51846 3.31231-4.45969 6.11429-11.08972 3.12098-16.35964-1.39154-2.48887-7.56909-.95224-2.58542-3.27387 4.39349-3.86332 9.11636.93661 8.65892 5.78238.97503 9.62953-4.59551 19.23135-13.31878 23.35708-7.73687 4.23699-18.77295 6.21384-25.89357-.23284-1.6819-1.41342-2.96171-5.41847-2.90949-1.15017-1.16419 10.05607 1.11675 20.65132 7.22155 28.73298 1.36525 1.80735 5.46023 2.76723 6.6603.87671.89862-1.41562-2.9437-3.50466-2.71644-4.23372.91232-2.92685 3.02583-9.80913 7.65033-12.08352 4.0343-2.56637 11.99312 5.64468 4.30581 4.09885-7.14294 1.11117-13.1873 6.96004-9.2397 12.21838 3.72006 6.3376 15.6131 13.72712 22.78741 11.47848 5.98444-1.69123 12.43026-4.20781 15.82476-9.75772 1.16213-3.75526-3.1955-9.80436-6.61205-11.1603-2.66205-1.0565-4.0874 1.79363-6.20905 3.92669-3.41025 2.5052 2.38279 7.96189-3.29588 5.53408-4.77836-2.03959-4.48022-9.03831.1278-11.14085 6.79043-4.92727 12.83407-.80786 16.20479 6.1951 1.13414 2.29431 4.7078 3.86401 7.44619 3.57618 7.23612-.76058 13.03593-6.9416 17.28145-13.33455 4.60987-5.88044 6.22256-14.39615-.91989-18.53842-2.3316-1.48747-8.77419-1.60582-3.05172-3.19495 5.18498-1.26855 11.29497 1.45567 12.42038 7.00087 1.45661 4.65566-11.87846 11.30281-8.44877 14.7325 0 0 2.7998 4.15462 5 5 3.78112 1.45281 8.22241.41789 12.13559-.62831 1.5757-.42127 4.51326-1.58071 4.36088-2.21933-1.04494-4.37941-5.26549-9.03906-2.48736-12.57501 2.66444-3.88686 11.85128.3599 9.71324 2.31989-5.43544-.54384-9.28324 5.41556-7.22588 10.25512 2.59688 6.77445 11.94572 6.66366 17.09711 2.98449 9.13496-6.3677 9.61347-19.64227 5.47478-29.08326-2.23579-5.19114-10.57756-14.86473-14.525-18.89146-.68085 9.1697-6.10447 20.51649-14.63316 17.34465-4.48769-1.1116-5.54846-4.96992-2.54533-9.75724.8722-2.76419 3.98837-6.67728.0502-2.34379-1.3262 6.07173 6.68961 9.4815 11.40172 6.69485 4.56371-1.85876 8.27884-8.39554 3.91504-12.35187-6.41515-7.12543-15.4684-11.33575-24.42964-14.28903h-.00002c5.22124 9.5481-2.38457 22.11348-12.78357 23.50803-5.80592-.86047-10.16137 4.20338-10.48301 9.70477-1.28209 7.0443 3.55934 13.97731 10.29587 15.90914.59926.67099-6.67448-.29036-8.76821-1.19373-6.34822-1.98923-6.97389-9.8594-6.37831-15.4512.67556-6.87276 5.76743-14.66046 13.46244-14.11713 7.58527-.23569 14.54945-9.47513 9.9815-16.40276-4.52138-5.9272-12.90191-6.44908-19.74765-5.83861-5.3261-.66432-9.95205 5.04561-6.24357 9.61729 2.48919 5.16857 9.43315-.0602 11.05485.99899 1.1579 6.04071-6.9602 8.3264-11.22004 5.56401-6.0018-2.19063-9.73163-16.70029-10.39198-19.36197-10.37984 2.43747-16.62747 12.32854-24.27355 19.8601z" fill="#7f7e75"/><path d="m219.21839 319.76559c.97503 9.62953 1.44938 18.46746-7.27389 22.59319-7.73687 4.23699-16.35095 7.62424-23.47157 1.17756 0-2.99769-5.38371-6.82887-5.33149-2.56057-1.42455 12.30497 2.89955 25.39775 12.22155 33.73298-2.72566-7.13837-.6538-16.87587 6.59419-20.44053 4.0343-2.56637 20.88266 10.64152 13.19535 9.09569-4.04973-6.21206-14.27395 2.30586-13.19535 8.6135.40941 3.05119 2.34967 4.37433 2.34967 4.37433s10.48281 7.28593 15.50385 5.71219c5.98444-1.69123 12.43026-4.20781 15.82476-9.75772.41427-1.33866 3.38795.078 3.38795-1.1603 0-5.17969-12.3351-9.9681-16.20905-6.07331-3.41025 2.5052-1.06689 7.96189-6.74556 5.53408-4.77836-2.03959-1.03054-9.03831 3.57748-11.14085 6.79043-4.92727 21.25422-5.42938 24.62494 1.57358 1.13414 2.29431 8.78371 4.03319 1.57985 14.62152 6.11432-3.86113 11.55933-11.53523 15.80485-17.92818 4.60987-5.88044 3.53416-10.02424-3.60829-14.16651l9.36866 3.80592c2.07911 6.64533 2.27119 7.9461-1.83758 13.5304 3.67374-1.23211 10.2394.39447 12.13559-.62831-1.77549-4.75607-1.30972-10.74277 1.87352-14.79434 2.66444-3.88686 11.85128.3599 9.71324 2.31989-5.43544-.54384-9.28324 5.41556-7.22588 10.25512 2.59688 6.77445 11.94572 6.66366 17.09711 2.98449 9.13496-6.3677 9.61347-19.64227 5.47478-29.08326-1.37203-3.18562-2.57094-6.20056-4.525-8.89146-1.38496-1.90721-3.47497-3.44434-5-5-.68085 9.1697-13.29914 14.88233-21.82783 11.71049-4.48769-1.1116-7.68915-5.51362-4.68602-10.30094.8722-2.76419 16.80901-6.3833 12.87082-2.04981-1.3262 6.07173-1.79567 10.36538 2.91644 7.57873 4.56371-1.85876 10.49944-.72161 10.72659-6.93847 0-3.88916-1.70104-7.6226-4.36122-10.18393-5.66285-5.4524-14.17439-7.88764-22.01484-8.45667-2.83292-.2056-8.31228 1.875-8.31228 1.875s1.06258 19.17665-9.33642 20.5712c-5.80592-.86047-10.16137 4.20338-10.48301 9.70477l-4.85065-.73579c.67556-6.87276 5.76743-14.66046 13.46244-14.11713 7.58527-.23569 17.98121-6.27593 13.41326-13.20356-4.52138-5.9272-14.75066-11.11296-22.82586-9.47975-3.3302.67353-10.86277 2.68858-7.15429 7.26026 2.48919 5.16857 9.99032 2.73877 11.61202 3.79796 1.1579 6.04071-6.9602 8.3264-11.22004 5.56401-3.70677-1.35296-4.86755-6.07758-.39198-9.36197-1.63949-2.56275-2.71755-4.77196-6.04392-4.77196-10.37984 2.43747-20.58355 7.1005-28.22963 14.63206-3.45308 4.05419-1.51874 12.11573 4.53029 11.82622 2.19872.18643 13.41552.96241 9.72438 4.00048-3.73394 5.67813-14.14719 2.76238-15.74244-3.75077-.54262-6.47502-8.62334.68566-9.19147 3.24296-1.84362 5.17749-1.48966 12.90682 4.88175 14.06057 8.14023 1.66398 11.616-1.24463 17.43575-6.92193z" fill="#e3e1db"/></g><use filter="url(#l)" xlink:href="#t"/><use filter="url(#k)" xlink:href="#t"/><path id="t" d="m268.88088 235.03136c1.85122 3.45296 2.08811 7.41502 1.10613 10.95831-1.96368 7.08683-8.57178 12.83413-16.93947 12.79888-1.81897-.006-3.5224 1.00738-4.9433 2.92536-1.42116 1.91799-2.42155 4.69267-2.59195 7.6192-.34053 5.85305 2.14221 12.2122 11.23069 15.10107 0 0-9.77272-.0609-12.98526-3.43448-2.74326-2.88085-3.36504-7.99038-3.13177-12.00058.2338-4.00965 1.54546-7.77121 3.67986-10.65185 2.13466-2.88067 5.22673-4.9237 8.75971-4.90994 6.29369.0262 10.9604-4.38772 12.23978-9.00507.6397-2.30825.4875-4.57972-.63864-6.68196-1.09386-2.04141-3.20555-4.02672-6.92748-5.40496-3.72529-1.18484-7.27399-1.46482-10.95017-1.43822-1.88567.0137-4.56895.73403-5.60737.81897-2.29313.5229-3.32777 1.66148-3.87163 2.94397-.59921 1.41403-.5237 3.28819.23144 4.93249.75568 1.64512 2.09579 2.96666 3.9291 3.41712 1.83358.45045 4.33152.10627 7.56188-2.30271.83675 2.95979.0282 4.57632-1.33357 5.99343-1.79451 1.86736-5.62616 1.93612-7.29807 1.52525-3.34355-.82174-5.8746-3.28176-7.22771-6.22777-1.27495-2.77555-1.58439-6.07031-.51388-9.03968-11.17098 2.34867-21.20729 7.38636-28.83501 14.2666-2.4831 3.14108-2.63815 6.70343-1.44794 9.09454 1.3369 2.68479 4.36702 4.57825 10.26407 2.32566 0 0-5.05039 5.809-8.29653 5.61042-2.6474-.16194-4.99244-2.83056-6.2578-5.37232-.61723-1.23923-1.01022-2.58939-1.18811-3.98887-1.21491 1.67506-2.30561 3.41311-3.2621 5.21556l.0335.0161c-2.10129 5.68548-2.04751 9.5747-1.08112 12.07187.9669 2.49743 2.89315 4.0417 5.81625 4.83264 5.84566 1.58077 15.17661-.85646 21.64194-6.47198 2.76743-2.40341 5.29857-8.09735 5.41464-12.45343.0576-2.1783-.40987-3.88259-1.27121-4.95269-.86135-1.07011-2.21531-1.84794-4.97139-1.7276 0 0 5.35756-4.06981 7.82759-2.76721 2.81603 1.48508 3.38501 6.50266 3.30251 9.60278-.16492 6.20047-2.95265 12.7452-7.26058 16.48654-7.64135 6.63726-17.88998 9.62966-25.85208 7.47643-3.68862-.99759-6.99264-3.32092-8.7629-7.02779-2.14535 13.08396 1.80833 25.04515 8.93759 33.18077.93186 1.0638 1.92016 2.06566 2.95247 2.99164-.78173-2.23318-1.17482-4.57266-1.1592-6.86216.0279-4.10321 1.66531-8.17762 4.20977-11.02695 1.52823-1.71133 3.81716-3.15697 5.99329-2.91983 2.33752.25474 4.23332 1.41979 5.74568 4.4641-4.09275-.45415-6.24493.292-8.42638 2.38449-1.76375 1.69182-2.61831 4.26975-2.63769 7.13728-.0387 5.73561 5.52164 11.74196 10.70304 13.82544 6.29182 2.52999 13.8122-.39455 19.84151-3.58382 2.40716-1.2733 5.59131-4.73245 6.00245-5.82109.48491-1.28488.50249-2.4873.0425-3.56328-1.08478-2.53726-3.44817-4.75503-5.95929-5.30199-2.56706-.55913-6.12248.0366-7.52506 2.45415-.83847 1.44527-1.14347 3.60235.70157 5.07766-4.07813.73919-6.73191-2.57222-7.00255-5.75164-.26566-3.12078 3.18381-5.66498 5.80229-6.93691 2.77047-1.34576 6.24073-1.18031 9.09375-.0599 3.86889 1.51946 7.92254 4.11876 9.46882 8.64303.40242 1.17688.61381 2.46875.59358 3.7936 4.30438-2.58427 8.85467-4.9027 13.50534-6.6837 7.78056-4.19784 11.01321-11.22061 10.72256-17.03666-.29312-5.85919-3.74073-10.68682-11.3972-11.26571 1.9439-2.33638 8.46581-2.33435 11.75739-.007 3.08129 2.17847 4.30887 6.84891 4.51553 10.98065.24055 4.81476-1.23928 9.88077-4.37598 14.25405 4.1896-.65095 8.36933-.69877 12.44372.0636-.87443-1.82514-1.32822-3.81682-1.32632-5.81004.003-3.15539.84416-8.83131 3.95452-10.46576 3.07526-1.616 7.4278-.64697 9.82714 3.12908-6.53492-.36088-8.8852 3.46206-8.88962 7.34831-.004 3.84327 2.45476 8.06569 9.18527 8.41908 7.4036-.1678 12.59113-4.73084 15.01506-11.34085 1.62254-4.42484 1.73387-10.67565.42854-15.71962-1.83383-7.08625-6.41347-13.71896-11.09495-18.46167-.0868 1.08874-.31489 2.14167-.65947 3.12677-1.76175 5.03702-6.11278 8.5392-10.70156 9.6266-6.32969 1.49968-15.22573-1.73097-16.05647-8.11671-.4328-3.32685 4.38491-7.70094 6.95456-6.6139-2.28453 1.80014-2.31742 4.13859-.95555 6.41991 1.36187 2.2819 4.34631 4.19976 9.02458 3.09141 2.94076-.69706 6.16224-3.44389 7.16676-6.31722.50305-1.43668.56977-2.84265-.0129-4.4298-.47328-1.28914-3.90591-4.86381-6.32667-6.66541-5.96046-4.43596-11.91501-7.29197-19.6744-9.82391z" fill="url(#i)" filter="url(#m)"/></g><path d="m250 238.70312c-57.77774 0-104.75 46.97226-104.75 104.75 0 57.77775 46.97226 104.75 104.75 104.75s104.75-46.97225 104.75-104.75c0-57.77774-46.97226-104.75-104.75-104.75zm0 12.5c51.02225 0 92.25 41.22776 92.25 92.25 0 51.02225-41.22775 92.25-92.25 92.25s-92.25-41.22775-92.25-92.25c0-51.02224 41.22775-92.25 92.25-92.25z" fill="#7f7e75" fill-rule="evenodd" stroke-width="3.77953"/></g><g id="u" stroke-width="1.41321" transform="matrix(-2.3230319 -1.3251828 1.3251828 -2.3230319 2111.8268 -44.916533)"><use stroke-width="1.41321" transform="translate(-206.69076 117.90757)" xlink:href="#v"/><use transform="translate(-155.04215 88.444412)" xlink:href="#v"/><use stroke-width="1.41321" transform="translate(-103.39354 58.981257)" xlink:href="#v"/><use stroke-width="1.41321" transform="translate(-51.696769 29.490628)" xlink:href="#v"/><g id="v" stroke-width="1.41321" transform="translate(-46.154456 -329.45079)"><path d="m370.7322 174.95879c-5.33456 3.08256-10.26266 7.41151-13.43742 12.69174-1.70569 2.83692-2.49444 6.26694-2.63705 9.57409-.10443 2.42214.70974 4.80628 1.32035 7.15254.32859 1.26261.62145 2.56694 1.25624 3.70674.91157 1.63676 2.24772 3.01497 3.576 4.33617 1.74662 1.73731 3.53018 3.55632 5.7268 4.67156 2.97035 1.50805 6.33894 2.58191 9.6697 2.52387 6.1622-.10738 12.38311-2.20094 17.71674-5.28908 5.37975-3.11484 10.47959-7.42203 13.52373-12.84211 1.5181-2.70301 1.81906-5.99443 1.95853-9.09144.16359-3.63282.077-7.47486-1.32964-10.82828-.84611-2.01708-2.51926-3.60875-4.08604-5.13508-1.77247-1.72669-3.68837-3.41583-5.92781-4.46847-2.81064-1.32112-5.93994-2.26522-9.35939-2.29572-6.45345.18185-12.64994 2.21887-17.97074 5.29347zm13.02919 13.76577 2.22208 3.89021 2.10013 3.67781-6.79492 3.92379-2.19885-3.81062-2.15852-3.73827z" fill="#7f7e75"/><path d="m361.68001 206.37527s4.31072 4.98926 7.14258 6.53799c2.2106 1.20896 4.78611 1.98305 7.30535 1.94085 5.36646-.0899 10.76644-1.96969 15.41462-4.65323 4.64798-2.68342 9.13819-6.32616 11.73692-11.02201 1.14285-2.06511 1.28585-4.58888 1.36586-6.94778.11044-3.25609-1.23123-9.69604-1.23123-9.69604l-13.34826 7.62497 4.50566 7.88717-15.02693 8.67576-4.58059-7.93626z" fill="url(#g)"/><path d="m403.41411 182.53505s-4.58333-4.84833-7.50165-6.32546c-2.25943-1.14363-4.85413-1.85232-7.38549-1.78064-5.36488.15191-10.76594 1.97003-15.41396 4.65349-4.64808 2.6835-8.97135 6.42261-11.73745 11.02201-1.27743 2.12407-1.92725 4.69569-1.95527 7.17414-.0353 3.12409 2.25957 9.09643 2.25957 9.09643l13.28413-7.58833-4.538-7.86247 15.09711-8.71632 4.54275 7.95212z" fill="url(#h)"/></g><use stroke-width="1.41321" transform="translate(-206.69074 117.90756)" xlink:href="#w"/><use stroke-width="1.41321" transform="translate(-155.04213 88.4444)" xlink:href="#w"/><use stroke-width="1.41321" transform="translate(-103.39352 58.981245)" xlink:href="#w"/><use transform="translate(-51.696761 29.490623)" xlink:href="#w"/><g id="w" stroke-width="1.41321" transform="translate(-81.543211 -307.22679)"><path d="m420.92303 160.00346c-.29575.16871-1.88278 1.95957-2.18749 3.2022-.26972 1.09992.29591 3.08705.42578 3.31445l4.3222 7.56803c.17386.30442 1.97737 1.87392 3.24415 2.17187 1.0612.2496 2.65335-.0277 3.26607-.37819l36.44351-20.7893c.70464-.40303 1.66884-1.45344 1.98783-2.61892.32682-1.19407.22635-3.11738-.21839-3.89792l-4.31467-7.57233c-1.01059-1.77361-1.5004-1.74438-2.63634-2.05343-1.16077-.3158-3.21959-.11771-3.86978.25319z" fill="#7f7e75"/><path d="m458.86417 143.76351-35.54476 20.55721c-.8616.42028-.78458.44231-.33867 1.22282l3.43877 6.01914c.43615.90831.46245.8178 1.27938.34601l35.6674-20.59853c.35176-.39318.59418-.83192 0-1.61924l-3.26088-5.65881c-.40944-.87006-.47232-.7133-1.24124-.2686z" fill="url(#f)"/></g></g></svg>