<svg height="500" viewBox="0 0 500 500" width="500" xmlns="http://www.w3.org/2000/svg" xmlns:xlink="http://www.w3.org/1999/xlink"><linearGradient id="a" gradientTransform="matrix(3.7795274 0 0 3.7795274 -774.51887 341.50647)" gradientUnits="userSpaceOnUse" spreadMethod="reflect" x1="301.57056" x2="288.43024" xlink:href="#b" y1="25.774698" y2="2.476273"/><linearGradient id="b" gradientTransform="matrix(391.593 0 0 -391.593 60.7962 7618.49)" gradientUnits="userSpaceOnUse" spreadMethod="pad" x1="0" x2="1" y1="0" y2="0"><stop offset="0" stop-color="#e3e1db"/><stop offset=".51123601" stop-color="#c1c0be"/><stop offset="1" stop-color="#a2a19a"/></linearGradient><linearGradient id="c" gradientTransform="matrix(3.7795274 0 0 3.7795274 -774.51887 341.50647)" gradientUnits="userSpaceOnUse" spreadMethod="reflect" x1="183.79042" x2="125.1674" xlink:href="#b" y1="160.04283" y2="181.26697"/><linearGradient id="d" gradientTransform="matrix(3.7795274 0 0 3.7795274 -774.51887 341.50647)" gradientUnits="userSpaceOnUse" spreadMethod="reflect" x1="212.67941" x2="182.29958" xlink:href="#b" y1="2.876844" y2="-25.231134"/><linearGradient id="e" gradientTransform="matrix(3.7795274 0 0 3.7795274 -774.51887 341.50647)" gradientUnits="userSpaceOnUse" spreadMethod="reflect" x1="294.91058" x2="263.59631" xlink:href="#b" y1="-34.93906" y2="-34.93906"/><linearGradient id="f" gradientTransform="matrix(3.7795274 0 0 3.7795274 -774.51887 341.50647)" gradientUnits="userSpaceOnUse" spreadMethod="reflect" x1="253.99881" x2="309.9404" xlink:href="#b" y1="-68.359711" y2="-72.392662"/><filter id="g" color-interpolation-filters="sRGB" height="1.120323" width="1.316725" x="-.158362" y="-.060161"><feGaussianBlur stdDeviation="16.928456"/></filter><radialGradient id="h" cx="703.05621" cy="255.40021" gradientTransform="matrix(.12107523 -.12107523 .05841622 .05841622 -57.692804 112.54712)" gradientUnits="userSpaceOnUse" r="1011.8609"><stop offset="0" stop-color="#c1c0be"/><stop offset=".08962709" stop-color="#c1c0be" stop-opacity=".9"/><stop offset="1" stop-color="#c1c0be" stop-opacity="0"/></radialGradient><radialGradient id="i" cx="703.05621" cy="1070.2185" gradientTransform="matrix(.12107523 -.12107523 .05841622 .05841622 -57.692804 112.54712)" gradientUnits="userSpaceOnUse" r="1011.8609" spreadMethod="pad"><stop offset="0" stop-color="#e3e1db"/><stop offset=".08962709" stop-color="#e3e1db" stop-opacity=".9"/><stop offset="1" stop-color="#e3e1db" stop-opacity="0"/></radialGradient><radialGradient id="j" cx="318.10205" cy="130.80363" gradientTransform="matrix(.43446336 .43446828 -.90042865 .90042861 45.7215 -189.83875)" gradientUnits="userSpaceOnUse" r="136.05388" spreadMethod="pad"><stop offset="0" stop-color="#e3e1db"/><stop offset=".127809" stop-color="#e3e1db" stop-opacity=".9"/><stop offset=".55261534" stop-color="#c1c0be" stop-opacity=".45"/><stop offset="1" stop-color="#a2a19a" stop-opacity="0"/></radialGradient><filter id="k" color-interpolation-filters="sRGB" height="1.0135" width="1.0135" x="-.00675" y="-.00675"><feGaussianBlur stdDeviation=".44648439"/></filter><mask id="l" maskUnits="userSpaceOnUse"><path d="m-191.63053 1.0715614h158.749997v158.7500186h-158.749997z" fill="url(#m)" filter="url(#k)" stroke-width="44.7118" transform="matrix(0 -1 1 0 -14.300713 -46.109713)"/></mask><radialGradient id="m" cx="66.145844" cy="66.145836" gradientTransform="matrix(-1.0000001 .00000145 0 -.99999998 -46.109683 146.59231)" gradientUnits="userSpaceOnUse" r="66.145836"><stop offset="0" stop-color="#fff"/><stop offset=".25342461" stop-color="#fff"/><stop offset=".75273961" stop-color="#808080"/><stop offset=".87499994" stop-color="#404040"/><stop offset="1"/></radialGradient><g mask="url(#l)" opacity=".75" stroke-width=".094494" transform="matrix(0 3.7795275 -3.7795275 0 499.99995 -.00008)"><path d="m-16.763244-16.763244c-67.65774 67.657739-96.043756 148.969874-63.396059 181.617564 32.647695 32.64769 113.959825 4.26168 181.617563-63.39606 67.65774-67.657738 96.04375-148.969868 63.39606-181.617563-32.64769-32.647697-113.959825-4.261681-181.617564 63.396059z" fill="url(#h)" opacity=".3"/><path d="m30.833409 30.833409c-67.65774 67.657739-96.043753 148.969871-63.396059 181.617561 32.64769465 32.6477 113.959825 4.26168 181.61756-63.39606 67.65774-67.657735 96.04376-148.96986535 63.39606-181.61756-32.64769-32.647694-113.959822-4.261681-181.617561 63.396059z" fill="url(#i)" opacity=".3"/><path d="m125.25659 125.25659c67.65774-67.657734 96.04375-148.969866 63.39606-181.617556-32.64769-32.6477-113.959825-4.26168-181.61756 63.39606-67.65774 67.657735-96.04376 148.969866-63.39606 181.617556 32.64769 32.6477 113.959822 4.26168 181.61756-63.39606z" fill="url(#j)" opacity=".3"/></g><path d="m310.38362-79.539681c-30.44498-34.232959-87.50241 7.284026-67.51881 46.368717-73.28011 44.939477-67.89811 155.865414-27.66521 214.285774-21.20613 17.48503-13.2147 63.43448 18.17049 63.09158 13.72235-4.29474 11.95046 6.90643 11.41015 16.87588.005 42.12655.01 84.25311.015 126.37966-12.99282-.002-25.98563-.004-38.97845-.006-.005 19.46847-.0109 38.93694-.0164 58.40541-28.18573-.25538-56.35976-1.39831-84.54081-2.00859-.47465 18.21988-.9493 36.43976-1.42395 54.65964 18.318.48643 36.63599.97286 54.95399 1.45929.18366 7.04126-17.05716 1.05999-23.64916 3.03732-8.22416 1.19636-1.56805 17.27378-3.71625 24.54641-.0002 11.62979-.00039 23.25958-.00059 34.88937 32.45225-.00067 64.9045-.001 97.35675-.002 1.16138 8.53811-4.76549 24.16151 9.19495 19.90591 20.54525-.003 41.09049-.002 61.63573-.002-.00022-112.71368-.00044-225.42736-.00066-338.14104 20.25719 3.17552 44.44598-8.44636 42.49368-32.02413 7.98622-26.17472-40.25091-38.42488 3.09424-60.53344 28.635-60.57169 17.99363-147.553928-42.25015-184.993903 7.18709-15.241651 3.41305-34.500589-8.56454-46.194188zm-12.726 12.727093c31.02528 33.190532-38.92776 60.943993-40.39032 16.731339-.50584-20.926496 26.32158-31.441674 40.39032-16.731339z" fill="#e2e0da" filter="url(#g)" opacity=".5" transform="matrix(.55435329 -.57747845 .57747845 .55435329 -52.358247 248.34075)"/><g stroke-width="1.24923" transform="matrix(.55435329 -.57747845 .57747845 .55435329 -52.358247 248.34075)"><path d="m20.059701 337.03213a127.56118 95.450577 0 0 0 20.618442-34.40371 23.659834 23.659531 0 0 1 -14.257268-21.70121 23.659834 23.659531 0 0 1 14.276589-21.64282 127.56118 95.450577 0 0 0 -123.836722-73.80741 127.56118 95.450577 0 0 0 -127.560662 95.44931 127.56118 95.450577 0 0 0 127.560199 95.45044 127.56118 95.450577 0 0 0 103.199422-39.3446z" fill="#7f7e75" transform="rotate(-90)"/><ellipse cx="-83.139061" cy="280.92715" fill="url(#d)" rx="109.56118" ry="77.450577" transform="rotate(-90)"/><path d="m310.38362-79.539681a41.659534 41.659832 0 0 0 -29.45573-12.201526 41.659534 41.659832 0 0 0 -41.66064 41.659748 41.659534 41.659832 0 0 0 41.65974 41.6606462 41.659534 41.659832 0 0 0 41.65896-41.6615082 41.659534 41.659832 0 0 0 -12.20233-29.45736zm-12.726 12.727093a23.659531 23.659834 0 0 1 6.92827 16.730056 23.659531 23.659834 0 0 1 -23.65868 23.661657 23.659531 23.659834 0 0 1 -23.6599-23.660373 23.659531 23.659834 0 0 1 23.66037-23.659897 23.659531 23.659834 0 0 1 16.72994 6.928557z" fill="#7f7e75"/><path d="m244.77539 226.20508.0195 161.25781-38.97851-.006-.0156 58.4043h-8.22266l-76.31835-2.00977-1.42383 54.66016 54.95312 1.45898.89844 3.03907h-28.26367v59.43554l97.35547-.002-.01 19.90625 35.42578-.002h35.41602v-356.13844h-18z" fill="#7f7e75" stroke-width="5.89824"/><path d="m297.61071 244.20842-34.83248-.002.019 161.26107-38.98562-.007-.006 22.63497 31.52454-.009.00084 18.68392-31.52236.009-.0115 17.0832-26.45632-.002-58.55594-1.54078-.48603 18.67627 50.04665 1.32903 5.90907 20.00316 36.32145-.002.002 18.6833-65.15419-.00038.00038 23.43533 97.36535-.00096-.0109 19.9047 17.41607-.0005 17.41607-.0005z" fill="url(#a)" stroke-width="1.56058"/><g fill="url(#c)" stroke-width="1.56058"><path d="m265.7999 82.940471c10.56595-1.887004 23.616-11.328 23.616-21.888 0-8.256-6.912-14.784-15.168-14.784-8.448 0-14.976 6.528-14.976 14.784 0 3.264.96 6.144 2.688 8.64-4.8-3.072-6.528-8.448-6.528-15.552 0-11.52 9.6-19.2 21.888-20.16 13.824 0 20.928 9.6 21.504 22.848.768 26.88-30.00056 27.631449-34.76133 46.346849-1.61228 6.33814-1.33186 14.37768 2.84133 19.41315 2.8187 3.4011 8.11336 4.47352 12.528 4.32 5.07274-.1764 10.90786-1.93911 14.016-5.952 3.92834-5.07183 3.62178-19.80097 2.85378-19.03297-3.456 2.304-8.42178 10.96897-11.30178 10.96897-3.264 0-5.76-1.152-5.76-4.8 0-8.16 11.904-12.191999 23.688-18.863999s28.55374-25.960289 24.87867-41.733152c-4.06707-17.455285-17.84667-29.258848-45.11067-29.258848h-3.456c-18.30515 0-32.52889 9.327995-39.11654 22.930923-4.84279 9.999951-2.18751 24.21991 4.60454 33.013077 4.65 6.02001 13.58371 10.097356 21.072 8.76zm8.832 75.263999c1.152.192 2.304.192 3.264.192 7.872 0 18.56893-10.17685 16.99722-18.36982-1.12924-5.88644-10.26046-7.19503-16.22922-7.74218-5.47765-.50213-13.78134-.78154-15.93745 4.2789-3.22724 7.57438 2.88145 20.8731 11.90545 21.6411z" fill="#7f7e75"/><path d="m268.15536 71.503394c11.92438 0 20.83178-8.530118 23.17121-17.480075.41035-1.569885.18045-7.255672.18045-8.83155 0-8.256-6.912-14.784-15.168-14.784-8.448 0-14.976 6.528-14.976 14.784 0 3.264.96 6.144 2.688 8.64-4.8-3.072-6.528-8.448-6.528-15.552 0-11.52 9.6-19.2 21.888-20.16 13.824 0 20.45146 12.442432 21.504 22.848 1.15178 11.386631-12.20595 19.36664-18.048 29.208-6.46261 10.886737-22.72246 20.96063-18.80445 32.999551 1.97577 6.07097 7.09245 7.87245 17.46045 7.87245 4.032 0 10.28018 6.27132 14.69618 1.85532 4.608-4.608.66382-20.671319-.10418-19.903318-3.456 2.304002-6.144 4.032002-9.024 4.032002-3.264 0-5.76-1.151999-5.76-4.800003 0-16.320002 41.27656-23.871646 46.47555-44.736452 2.95894-11.874927-2.86362-26.137576-11.41155-34.89555-8.13444-8.3343226-21.28851-11.5720316-32.93419-11.66230906-10.72657-.08315247-22.61528 2.99487386-30.49781 10.27030906-7.98402 7.369113-14.68349 19.252212-12.83966 29.959625 2.33652 13.568478 10.176 30.336 28.032 30.336zm9.62366 70.552376c5.78165.83748 14.80286 2.26015 17.26035-3.03981 3.76107-8.11135-4.49235-21.82419-13.51635-23.16819-.96 0-1.92-.192-2.88-.192-7.68 0-17.28942 11.059-15.55971 19.08185 1.15332 5.34943 9.27988 6.53366 14.69571 7.31815z" fill="#e8e6e3"/><path d="m267.71057 75.911319c14.016 0 23.616-11.328 23.616-21.888 0-8.256-6.912-14.784-15.168-14.784-8.448 0-14.976 6.528-14.976 14.784 0 3.264.96 6.144 2.688 8.64-4.8-3.072-6.528-8.448-6.528-15.552 0-11.52 9.6-19.2 21.888-20.16 13.824 0 20.928 9.6 21.504 22.848.768 26.88-36.672 33.216-36.672 53.376001 0 10.752 6.912 16.704 17.28 16.704 4.032 0 9.6-1.536 14.016-5.952 4.608-4.608 1.344-12.864.576-12.096-3.456 2.304-6.144 4.032-9.024 4.032-3.264 0-5.76-1.152-5.76-4.8 0-16.320001 47.616-16.128001 46.656-53.568001-.576-21.12-15.936-36.288-43.2-36.288-1.152 0-2.304 0-3.456 0-21.312 0-40.512 12.096-41.472 34.368-.96 17.088 10.176 30.336 28.032 30.336zm8.832 75.264001c1.152.192 2.304.192 3.264.192 7.872 0 14.016-3.072 15.168-11.904 1.344-8.448-4.608-13.44-13.632-14.784-.96 0-1.92-.192-2.88-.192-7.68 0-14.208 3.072-15.552 11.136-2.112 9.408 4.608 14.784 13.632 15.552z" fill="url(#f)"/></g><rect fill="#7f7e75" height="69.50618" rx="29.618126" ry="30.489655" width="154.35318" x="203.75055" y="174.70026"/><rect fill="url(#e)" height="33.50618" rx="11.797597" ry="12.711864" width="118.35318" x="221.75056" y="192.70024"/></g><text style="font-weight:bold;font-size:192;font-family:LT Funk;fill:#fff;stroke-width:36;stroke-linecap:round" x="660.24274" y="141.93939"><tspan x="660.24274" y="141.93939">?</tspan></text></svg>