<svg height="500" viewBox="0 0 132.29167 132.29167" width="500" xmlns="http://www.w3.org/2000/svg" xmlns:xlink="http://www.w3.org/1999/xlink"><filter id="a" color-interpolation-filters="sRGB" height="1.294" width="1.294" x="-.147" y="-.147"><feGaussianBlur stdDeviation="1.6361592"/></filter><filter id="b" color-interpolation-filters="sRGB" height="1.294" width="1.294" x="-.147" y="-.147"><feGaussianBlur stdDeviation="3.1528593"/></filter><filter id="c" color-interpolation-filters="sRGB" height="1.1248" width="1.1248" x="-.0624" y="-.0624"><feGaussianBlur stdDeviation="2.0562243"/></filter><radialGradient id="d" cx="115.69827" cy="67.621429" gradientTransform="matrix(-1.8402293 -1.6741674 1.2295935 -1.3515635 215.81983 330.76435)" gradientUnits="userSpaceOnUse" r="42.695023"><stop offset="0" stop-color="#f3f3f1"/><stop offset=".03125" stop-color="#eef3f4"/><stop offset=".0625" stop-color="#ebf5f7"/><stop offset=".09375" stop-color="#eef3f4"/><stop offset=".15625" stop-color="#e4ebee"/><stop offset=".1875" stop-color="#dce8ef"/><stop offset=".21875" stop-color="#e4ebee"/><stop offset=".28125" stop-color="#e1e4ef"/><stop offset=".3125" stop-color="#dbe0f0"/><stop offset=".34375" stop-color="#e1e4ef"/><stop offset=".40625" stop-color="#d8e3eb"/><stop offset=".4375" stop-color="#dbe7f1"/><stop offset=".46875" stop-color="#d8e3eb"/><stop offset=".53125" stop-color="#f4eaea"/><stop offset=".5625" stop-color="#f8e8e8"/><stop offset=".59375" stop-color="#f4eaea"/><stop offset=".65625" stop-color="#eee4e7"/><stop offset=".71426684" stop-color="#eedde2"/><stop offset=".76595175" stop-color="#eee4e7"/><stop offset=".8775022" stop-color="#f3f3f1"/><stop offset=".9375" stop-color="#f3f1f1"/><stop offset="1" stop-color="#f3f3f1"/></radialGradient><radialGradient id="e" cx="86.055344" cy="45.671474" gradientTransform="matrix(-1.258447 -1.2442382 1.2442408 -1.258444 137.52514 210.21979)" gradientUnits="userSpaceOnUse" r="40.308271"><stop offset="0" stop-opacity="0"/><stop offset=".12393165" stop-opacity="0"/><stop offset=".41729519" stop-opacity=".1"/><stop offset=".66706532" stop-opacity=".5"/><stop offset=".91683543" stop-opacity=".75"/><stop offset="1"/></radialGradient><filter id="f" color-interpolation-filters="sRGB" height="1.149987" width="1.150014" x="-.075007" y="-.074993"><feGaussianBlur stdDeviation="2.6686784"/></filter><clipPath id="g"><path d="m66.165946 23.443153c-10.922609-.000127-21.86236 4.178162-30.187348 12.502891-16.650086 16.650089-16.731687 43.796089-.07642 60.451107 16.655495 16.655499 43.801478 16.573439 60.45111-.07642 16.650102-16.649613 16.650082-43.724837 0-60.374685-8.324998-8.325016-19.26481-12.502767-30.187342-12.502895z"/></clipPath><mask id="h" maskUnits="userSpaceOnUse"><path d="m-13.229159-13.229166h158.749999v158.750016h-158.749999z" fill="url(#i)" filter="url(#j)" stroke-width="11.83"/></mask><radialGradient id="i" cx="66.145844" cy="66.145836" gradientTransform="matrix(-1.0000001 .00000145 0 -1 132.29169 132.29157)" gradientUnits="userSpaceOnUse" r="66.145836"><stop offset="0" stop-color="#fff"/><stop offset=".49999994" stop-color="#fff"/><stop offset=".74999988" stop-color="#808080"/><stop offset=".87499994" stop-color="#404040"/><stop offset="1"/></radialGradient><filter id="j" color-interpolation-filters="sRGB" height="1.0135" width="1.0135" x="-.00675" y="-.00675"><feGaussianBlur stdDeviation=".44648439"/></filter><radialGradient id="k" cx="42.347507" cy="42.347507" gradientTransform="matrix(.81639965 -.81639845 .39392066 .39392063 -8.906541 60.23839)" gradientUnits="userSpaceOnUse" r="150.05751"><stop offset="0" stop-color="#f00"/><stop offset=".14285706" stop-color="#f00"/><stop offset=".28571412" stop-color="#ff7800"/><stop offset=".42857116" stop-color="#ffef00"/><stop offset=".57142824" stop-color="#0c0"/><stop offset=".71428525" stop-color="#0073ff"/><stop offset=".85714233" stop-color="#b600ff"/><stop offset="1" stop-color="#b600ff" stop-opacity="0"/></radialGradient><filter id="l" color-interpolation-filters="sRGB" height="1.15" width="1.15" x="-.075" y="-.075"><feGaussianBlur stdDeviation="8.5033677"/></filter><g mask="url(#h)" stroke-width=".094494" transform="matrix(0 -1 1 0 -.000006 132.291672)"><path d="m-16.763244-16.763244c-67.65774 67.657739-96.043756 148.969874-63.396059 181.617564 32.647695 32.64769 113.959825 4.26168 181.617563-63.39606 67.65774-67.657738 96.04375-148.969868 63.39606-181.617563-32.64769-32.647697-113.959825-4.261681-181.617564 63.396059z" fill="url(#k)" filter="url(#l)" opacity=".3"/></g><g clip-path="url(#g)" transform="matrix(0 -1 1 0 .000053 132.291613)"><path d="m37.675368 37.643642c-15.732448 15.73245-15.807342 41.323485-.07512 57.055455 15.732448 15.732453 41.323484 15.657083 57.05546-.07513 15.732432-15.731969 15.732432-41.247871 0-56.98008-7.866229-7.86623-18.178025-11.799583-28.490174-11.799703-10.31215-.00012-20.623937 3.933473-28.490165 11.799458z" fill="#b2b1a1"/><circle cx="66.145836" cy="39.542774" fill="#eae9e3" filter="url(#c)" r="39.542774" stroke-width=".235017" transform="matrix(.90725093 0 0 .90725093 6.135896 30.277237)"/><path d="m66.165947 23.443153c-10.92261-.000127-21.862361 4.178162-30.18735 12.50289-16.650085 16.65009-16.731686 43.79609-.07642 60.451107 16.655494 16.6555 43.801478 16.57344 60.45111-.07642 16.650103-16.649615 16.650083-43.724837 0-60.374686-8.324996-8.325015-19.26481-12.502765-30.18734-12.502893z" fill="url(#d)" filter="url(#f)"/><path d="m66.165947 23.443153c-10.92261-.000127-21.862361 4.178162-30.18735 12.50289-16.650085 16.65009-16.731686 43.79609-.07642 60.451107 16.655494 16.6555 43.801478 16.57344 60.45111-.07642 16.650103-16.649615 16.650083-43.724837 0-60.374686-8.324996-8.325015-19.26481-12.502765-30.18734-12.502893z" fill="url(#e)" opacity=".33"/><path d="m64.75637 40.032365a30.644657 19.640671 45 0 1 7.78099 35.557096 30.644657 19.640671 45 0 1 -35.55709-7.780994 30.644657 19.640671 45 0 1 -7.781-35.557095 30.644657 19.640671 45 0 1 35.5571 7.780993z" fill="#fff" filter="url(#b)" opacity=".4" stroke-width=".380199" transform="matrix(.90725093 0 0 .90725093 6.135896 30.277237)"/><path d="m95.61188 9.4458012a15.608357 10.637955 45 0 1 3.5146 18.5589498 15.608357 10.637955 45 0 1 -18.55894-3.51461 15.608357 10.637955 45 0 1 -3.51461-18.5589424 15.608357 10.637955 45 0 1 18.55895 3.5146026z" fill="#fff" filter="url(#a)" opacity=".5" stroke-width=".234206" transform="matrix(.90725093 0 0 .90725093 6.135896 30.277237)"/><path d="m66.165989 23.443014c-10.922598-.000127-21.862326 4.178393-30.187306 12.503113-16.650069 16.650073-16.731731 43.796091-.076481 60.451092 16.655479 16.655481 43.801477 16.573361 60.451092-.07648 16.650086-16.649596 16.650066-43.724779 0-60.374611-8.324989-8.325008-19.264784-12.502986-30.187305-12.503114zm-.000517 2.401404c10.312139.00012 20.62403 3.933058 28.490251 11.79928 15.732417 15.732193 15.732417 41.24855 0 56.980503-15.73196 15.732199-41.323001 15.807369-57.055433.07493-15.732206-15.731955-15.657502-41.323.07493-57.055434 7.86622-7.865977 18.178111-11.7994 28.490251-11.79928z" fill="#606c6c"/></g></svg>