<svg height="500" viewBox="0 0 132.29167 132.29167" width="500" xmlns="http://www.w3.org/2000/svg" xmlns:xlink="http://www.w3.org/1999/xlink"><linearGradient id="a"><stop offset="0" stop-color="#424a1c"/><stop offset="1" stop-color="#46541c"/></linearGradient><linearGradient id="b"><stop offset="0" stop-color="#2b2621"/><stop offset=".12397685" stop-color="#2b2621" stop-opacity="0"/><stop offset=".12397685" stop-color="#584d41" stop-opacity="0"/><stop offset=".25993788" stop-color="#584d41"/><stop offset=".51887608" stop-color="#584d41" stop-opacity="0"/><stop offset=".77781433" stop-color="#2b2621" stop-opacity="0"/><stop offset="1" stop-color="#2b2621"/></linearGradient><linearGradient id="c" gradientUnits="userSpaceOnUse" spreadMethod="reflect" x1="-257.87482" x2="-249.93816" xlink:href="#b" y1="37.164211" y2="37.164211"/><linearGradient id="d" gradientTransform="matrix(1 0 0 .34299515 114.30188 24.417066)" gradientUnits="userSpaceOnUse" spreadMethod="reflect" x1="-257.87753" x2="-249.93816" xlink:href="#b" y1="37.164211" y2="37.164211"/><linearGradient id="e" gradientTransform="matrix(1 0 0 .38164249 101.6 22.980769)" gradientUnits="userSpaceOnUse" spreadMethod="reflect" x1="-257.87753" x2="-249.93816" xlink:href="#b" y1="37.164207" y2="37.164207"/><linearGradient id="f" gradientTransform="matrix(1 0 0 .42028984 88.9 21.54447)" gradientUnits="userSpaceOnUse" spreadMethod="reflect" x1="-257.87753" x2="-249.93816" xlink:href="#b" y1="37.164211" y2="37.164211"/><linearGradient id="g" gradientTransform="matrix(1 0 0 .49758452 76.200325 18.671874)" gradientUnits="userSpaceOnUse" spreadMethod="reflect" x1="-257.87753" x2="-249.93814" xlink:href="#b" y1="37.164211" y2="37.164211"/><linearGradient id="h" gradientTransform="matrix(1 0 0 .57487917 63.50188 15.79928)" gradientUnits="userSpaceOnUse" spreadMethod="reflect" x1="-257.87753" x2="-249.93816" xlink:href="#b" y1="37.164211" y2="37.164211"/><linearGradient id="i" gradientTransform="matrix(1 0 0 .6521738 50.8 12.926686)" gradientUnits="userSpaceOnUse" spreadMethod="reflect" x1="-257.87753" x2="-249.93816" xlink:href="#b" y1="37.164211" y2="37.164211"/><linearGradient id="j" gradientTransform="matrix(1 0 0 .72946859 38.1 10.054086)" gradientUnits="userSpaceOnUse" spreadMethod="reflect" x1="-257.87753" x2="-249.93816" xlink:href="#b" y1="37.164211" y2="37.164211"/><linearGradient id="k" gradientTransform="matrix(1 0 0 .80676329 25.4 7.18149)" gradientUnits="userSpaceOnUse" spreadMethod="reflect" x1="-257.87753" x2="-249.93816" xlink:href="#b" y1="37.164207" y2="37.164207"/><linearGradient id="l" gradientTransform="matrix(1 0 0 .92270529 12.7 2.872597)" gradientUnits="userSpaceOnUse" spreadMethod="reflect" x1="-257.87753" x2="-249.93816" xlink:href="#b" y1="37.164211" y2="37.164211"/><mask id="m" maskUnits="userSpaceOnUse"><path d="m-13.229159-13.22917h158.749999v158.75002h-158.749999z" fill="url(#n)" filter="url(#o)" stroke-width="11.83"/></mask><radialGradient id="n" cx="66.145844" cy="66.145836" gradientTransform="matrix(-1.0000001 .00000145 0 -1 132.29169 132.29157)" gradientUnits="userSpaceOnUse" r="66.145836"><stop offset="0" stop-color="#fff"/><stop offset=".25342461" stop-color="#fff"/><stop offset=".75273961" stop-color="#808080"/><stop offset=".87499994" stop-color="#404040"/><stop offset="1"/></radialGradient><filter id="o" color-interpolation-filters="sRGB" height="1.0135" width="1.0135" x="-.00675" y="-.00675"><feGaussianBlur stdDeviation=".44648439"/></filter><radialGradient id="p" cx="703.05621" cy="255.40021" gradientTransform="matrix(.12107523 -.12107523 .05841622 .05841622 -57.692804 112.54712)" gradientUnits="userSpaceOnUse" r="1011.8609"><stop offset="0" stop-color="#973"/><stop offset=".1" stop-color="#973" stop-opacity=".9"/><stop offset="1" stop-color="#973" stop-opacity="0"/></radialGradient><radialGradient id="q" cx="703.05621" cy="1070.2185" gradientTransform="matrix(.12107523 -.12107523 .05841622 .05841622 -57.692804 112.54712)" gradientUnits="userSpaceOnUse" r="1011.8609"><stop offset="0" stop-color="#aabf40"/><stop offset=".08962709" stop-color="#aabf40" stop-opacity=".9104"/><stop offset="1" stop-color="#aabf40" stop-opacity="0"/></radialGradient><linearGradient id="r" gradientUnits="userSpaceOnUse" spreadMethod="repeat" x1="-247.34178" x2="-234.8575" y1="51.980873" y2="51.980877"><stop offset="0" stop-color="#1f2013"/><stop offset=".08963155" stop-color="#1f2013"/><stop offset=".1792631" stop-color="#1f2013" stop-opacity="0"/><stop offset=".2508963" stop-color="#424a1c" stop-opacity="0"/><stop offset=".344641" stop-color="#546020"/><stop offset=".50545681" stop-color="#424a1c" stop-opacity="0"/><stop offset=".67446017" stop-color="#424a1c" stop-opacity="0"/><stop offset=".81521302" stop-color="#1f2013" stop-opacity="0"/><stop offset=".90760648" stop-color="#1f2013"/><stop offset="1" stop-color="#1f2013"/></linearGradient><linearGradient id="s" gradientUnits="userSpaceOnUse" spreadMethod="reflect" x1="-269.17636" x2="-263.03116" xlink:href="#a" y1="17.407316" y2="11.782139"/><linearGradient id="t" gradientUnits="userSpaceOnUse" spreadMethod="reflect" x1="-269.17636" x2="-263.41666" xlink:href="#a" y1="17.407316" y2="22.660484"/><clipPath id="u"><circle cx="-131.82866" cy="281.86462" r="27.774246" transform="matrix(.70710678 -.70710678 .70710678 .70710678 0 0)"/></clipPath><pattern id="v" patternTransform="matrix(.06633625 0 0 .06633625 -84.580129 206.82318)" xlink:href="#w"/><pattern id="w" height="157.80346" patternTransform="translate(2019.9456 783.76855)" patternUnits="userSpaceOnUse" width="136.66179"><g clip-path="url(#x)" transform="matrix(3.7795275 0 0 3.7795275 -1883.2838 -783.76855)"><g transform="matrix(.26458334 0 0 .26458334 516.22581 179.13634)"><path d="m114.40986 67.266953-22.776962 39.450857h-45.553928l-22.776964-39.450857 22.776964-39.45086h45.553928z" fill="url(#A)"/><path d="m114.40986 67.266953-22.776962 39.450857h-45.553928l-22.776964-39.450857 22.776964-39.45086h45.553928z" fill="url(#B)" stroke="#4b4425" stroke-linecap="round" stroke-linejoin="round" stroke-width="5"/><path d="m114.40986 67.266953-22.776962 39.450857h-45.553928l-22.776964-39.450857 22.776964-39.45086h45.553928z" fill="url(#B)" stroke-linecap="round" stroke-linejoin="round" stroke-width="5"/><path d="m46.078125 25.316406a2.50025 2.50025 0 0 0 -2.164063 1.25l-22.777343 39.451172a2.50025 2.50025 0 0 0 0 2.5l22.777343 39.451172a2.50025 2.50025 0 0 0 2.164063 1.25h45.554687a2.50025 2.50025 0 0 0 2.166016-1.25l22.775392-39.451172a2.50025 2.50025 0 0 0 0-2.5l-22.775392-39.451172a2.50025 2.50025 0 0 0 -2.166016-1.25zm1.443359 5h42.667969l21.333987 36.951172-21.333987 36.951172h-42.667969l-21.332031-36.951172z" fill="#4b4425" stroke-linecap="round" stroke-linejoin="round"/></g><g transform="matrix(.26458334 0 0 .26458334 480.06737 179.13634)"><path d="m114.40986 67.266953-22.776962 39.450857h-45.553928l-22.776964-39.450857 22.776964-39.45086h45.553928z" fill="url(#A)"/><path d="m114.40986 67.266953-22.776962 39.450857h-45.553928l-22.776964-39.450857 22.776964-39.45086h45.553928z" fill="url(#B)" stroke="#4b4425" stroke-linecap="round" stroke-linejoin="round" stroke-width="5"/><path d="m114.40986 67.266953-22.776962 39.450857h-45.553928l-22.776964-39.450857 22.776964-39.45086h45.553928z" fill="url(#B)" stroke-linecap="round" stroke-linejoin="round" stroke-width="5"/><path d="m46.078125 25.316406a2.50025 2.50025 0 0 0 -2.164063 1.25l-22.777343 39.451172a2.50025 2.50025 0 0 0 0 2.5l22.777343 39.451172a2.50025 2.50025 0 0 0 2.164063 1.25h45.554687a2.50025 2.50025 0 0 0 2.166016-1.25l22.775392-39.451172a2.50025 2.50025 0 0 0 0-2.5l-22.775392-39.451172a2.50025 2.50025 0 0 0 -2.166016-1.25zm1.443359 5h42.667969l21.333987 36.951172-21.333987 36.951172h-42.667969l-21.332031-36.951172z" fill="#4b4425" stroke-linecap="round" stroke-linejoin="round"/></g><g transform="matrix(.26458334 0 0 .26458334 480.06737 241.76458)"><path d="m114.40986 67.266953-22.776962 39.450857h-45.553928l-22.776964-39.450857 22.776964-39.45086h45.553928z" fill="url(#A)"/><path d="m114.40986 67.266953-22.776962 39.450857h-45.553928l-22.776964-39.450857 22.776964-39.45086h45.553928z" fill="url(#B)" stroke="#4b4425" stroke-linecap="round" stroke-linejoin="round" stroke-width="5"/><path d="m114.40986 67.266953-22.776962 39.450857h-45.553928l-22.776964-39.450857 22.776964-39.45086h45.553928z" fill="url(#B)" stroke-linecap="round" stroke-linejoin="round" stroke-width="5"/><path d="m46.078125 25.316406a2.50025 2.50025 0 0 0 -2.164063 1.25l-22.777343 39.451172a2.50025 2.50025 0 0 0 0 2.5l22.777343 39.451172a2.50025 2.50025 0 0 0 2.164063 1.25h45.554687a2.50025 2.50025 0 0 0 2.166016-1.25l22.775392-39.451172a2.50025 2.50025 0 0 0 0-2.5l-22.775392-39.451172a2.50025 2.50025 0 0 0 -2.166016-1.25zm1.443359 5h42.667969l21.333987 36.951172-21.333987 36.951172h-42.667969l-21.332031-36.951172z" fill="#4b4425" stroke-linecap="round" stroke-linejoin="round"/></g><g transform="matrix(.26458334 0 0 .26458334 516.22581 241.76458)"><path d="m114.40986 67.266953-22.776962 39.450857h-45.553928l-22.776964-39.450857 22.776964-39.45086h45.553928z" fill="url(#A)"/><path d="m114.40986 67.266953-22.776962 39.450857h-45.553928l-22.776964-39.450857 22.776964-39.45086h45.553928z" fill="url(#B)" stroke="#4b4425" stroke-linecap="round" stroke-linejoin="round" stroke-width="5"/><path d="m114.40986 67.266953-22.776962 39.450857h-45.553928l-22.776964-39.450857 22.776964-39.45086h45.553928z" fill="url(#B)" stroke-linecap="round" stroke-linejoin="round" stroke-width="5"/><path d="m46.078125 25.316406a2.50025 2.50025 0 0 0 -2.164063 1.25l-22.777343 39.451172a2.50025 2.50025 0 0 0 0 2.5l22.777343 39.451172a2.50025 2.50025 0 0 0 2.164063 1.25h45.554687a2.50025 2.50025 0 0 0 2.166016-1.25l22.775392-39.451172a2.50025 2.50025 0 0 0 0-2.5l-22.775392-39.451172a2.50025 2.50025 0 0 0 -2.166016-1.25zm1.443359 5h42.667969l21.333987 36.951172-21.333987 36.951172h-42.667969l-21.332031-36.951172z" fill="#4b4425" stroke-linecap="round" stroke-linejoin="round"/></g><g transform="matrix(.26458334 0 0 .26458334 480.06737 200.01242)"><path d="m114.40986 67.266953-22.776962 39.450857h-45.553928l-22.776964-39.450857 22.776964-39.45086h45.553928z" fill="url(#A)"/><path d="m114.40986 67.266953-22.776962 39.450857h-45.553928l-22.776964-39.450857 22.776964-39.45086h45.553928z" fill="url(#B)" stroke="#4b4425" stroke-linecap="round" stroke-linejoin="round" stroke-width="5"/><path d="m114.40986 67.266953-22.776962 39.450857h-45.553928l-22.776964-39.450857 22.776964-39.45086h45.553928z" fill="url(#B)" stroke-linecap="round" stroke-linejoin="round" stroke-width="5"/><path d="m46.078125 25.316406a2.50025 2.50025 0 0 0 -2.164063 1.25l-22.777343 39.451172a2.50025 2.50025 0 0 0 0 2.5l22.777343 39.451172a2.50025 2.50025 0 0 0 2.164063 1.25h45.554687a2.50025 2.50025 0 0 0 2.166016-1.25l22.775392-39.451172a2.50025 2.50025 0 0 0 0-2.5l-22.775392-39.451172a2.50025 2.50025 0 0 0 -2.166016-1.25zm1.443359 5h42.667969l21.333987 36.951172-21.333987 36.951172h-42.667969l-21.332031-36.951172z" fill="#4b4425" stroke-linecap="round" stroke-linejoin="round"/></g><g transform="matrix(.26458334 0 0 .26458334 516.22581 220.8885)"><path d="m114.40986 67.266953-22.776962 39.450857h-45.553928l-22.776964-39.450857 22.776964-39.45086h45.553928z" fill="url(#A)"/><path d="m114.40986 67.266953-22.776962 39.450857h-45.553928l-22.776964-39.450857 22.776964-39.45086h45.553928z" fill="url(#B)" stroke="#4b4425" stroke-linecap="round" stroke-linejoin="round" stroke-width="5"/><path d="m114.40986 67.266953-22.776962 39.450857h-45.553928l-22.776964-39.450857 22.776964-39.45086h45.553928z" fill="url(#B)" stroke-linecap="round" stroke-linejoin="round" stroke-width="5"/><path d="m46.078125 25.316406a2.50025 2.50025 0 0 0 -2.164063 1.25l-22.777343 39.451172a2.50025 2.50025 0 0 0 0 2.5l22.777343 39.451172a2.50025 2.50025 0 0 0 2.164063 1.25h45.554687a2.50025 2.50025 0 0 0 2.166016-1.25l22.775392-39.451172a2.50025 2.50025 0 0 0 0-2.5l-22.775392-39.451172a2.50025 2.50025 0 0 0 -2.166016-1.25zm1.443359 5h42.667969l21.333987 36.951172-21.333987 36.951172h-42.667969l-21.332031-36.951172z" fill="#4b4425" stroke-linecap="round" stroke-linejoin="round"/></g><g transform="matrix(.26458334 0 0 .26458334 498.14659 189.57438)"><path d="m114.40986 67.266953-22.776962 39.450857h-45.553928l-22.776964-39.450857 22.776964-39.45086h45.553928z" fill="url(#A)"/><path d="m114.40986 67.266953-22.776962 39.450857h-45.553928l-22.776964-39.450857 22.776964-39.45086h45.553928z" fill="url(#B)" stroke="#4b4425" stroke-linecap="round" stroke-linejoin="round" stroke-width="5"/><path d="m114.40986 67.266953-22.776962 39.450857h-45.553928l-22.776964-39.450857 22.776964-39.45086h45.553928z" fill="url(#B)" stroke-linecap="round" stroke-linejoin="round" stroke-width="5"/><path d="m46.078125 25.316406a2.50025 2.50025 0 0 0 -2.164063 1.25l-22.777343 39.451172a2.50025 2.50025 0 0 0 0 2.5l22.777343 39.451172a2.50025 2.50025 0 0 0 2.164063 1.25h45.554687a2.50025 2.50025 0 0 0 2.166016-1.25l22.775392-39.451172a2.50025 2.50025 0 0 0 0-2.5l-22.775392-39.451172a2.50025 2.50025 0 0 0 -2.166016-1.25zm1.443359 5h42.667969l21.333987 36.951172-21.333987 36.951172h-42.667969l-21.332031-36.951172z" fill="#4b4425" stroke-linecap="round" stroke-linejoin="round"/></g><g transform="matrix(.26458334 0 0 .26458334 498.14659 231.32654)"><path d="m114.40986 67.266953-22.776962 39.450857h-45.553928l-22.776964-39.450857 22.776964-39.45086h45.553928z" fill="url(#A)"/><path d="m114.40986 67.266953-22.776962 39.450857h-45.553928l-22.776964-39.450857 22.776964-39.45086h45.553928z" fill="url(#B)" stroke="#4b4425" stroke-linecap="round" stroke-linejoin="round" stroke-width="5"/><path d="m114.40986 67.266953-22.776962 39.450857h-45.553928l-22.776964-39.450857 22.776964-39.45086h45.553928z" fill="url(#B)" stroke-linecap="round" stroke-linejoin="round" stroke-width="5"/><path d="m46.078125 25.316406a2.50025 2.50025 0 0 0 -2.164063 1.25l-22.777343 39.451172a2.50025 2.50025 0 0 0 0 2.5l22.777343 39.451172a2.50025 2.50025 0 0 0 2.164063 1.25h45.554687a2.50025 2.50025 0 0 0 2.166016-1.25l22.775392-39.451172a2.50025 2.50025 0 0 0 0-2.5l-22.775392-39.451172a2.50025 2.50025 0 0 0 -2.166016-1.25zm1.443359 5h42.667969l21.333987 36.951172-21.333987 36.951172h-42.667969l-21.332031-36.951172z" fill="#4b4425" stroke-linecap="round" stroke-linejoin="round"/></g><g transform="matrix(.26458334 0 0 .26458334 516.22581 200.01242)"><path d="m114.40986 67.266953-22.776962 39.450857h-45.553928l-22.776964-39.450857 22.776964-39.45086h45.553928z" fill="url(#A)"/><path d="m114.40986 67.266953-22.776962 39.450857h-45.553928l-22.776964-39.450857 22.776964-39.45086h45.553928z" fill="url(#B)" stroke="#4b4425" stroke-linecap="round" stroke-linejoin="round" stroke-width="5"/><path d="m114.40986 67.266953-22.776962 39.450857h-45.553928l-22.776964-39.450857 22.776964-39.45086h45.553928z" fill="url(#B)" stroke-linecap="round" stroke-linejoin="round" stroke-width="5"/><path d="m46.078125 25.316406a2.50025 2.50025 0 0 0 -2.164063 1.25l-22.777343 39.451172a2.50025 2.50025 0 0 0 0 2.5l22.777343 39.451172a2.50025 2.50025 0 0 0 2.164063 1.25h45.554687a2.50025 2.50025 0 0 0 2.166016-1.25l22.775392-39.451172a2.50025 2.50025 0 0 0 0-2.5l-22.775392-39.451172a2.50025 2.50025 0 0 0 -2.166016-1.25zm1.443359 5h42.667969l21.333987 36.951172-21.333987 36.951172h-42.667969l-21.332031-36.951172z" fill="#4b4425" stroke-linecap="round" stroke-linejoin="round"/></g><g transform="matrix(.26458334 0 0 .26458334 480.06737 220.8885)"><path d="m114.40986 67.266953-22.776962 39.450857h-45.553928l-22.776964-39.450857 22.776964-39.45086h45.553928z" fill="url(#A)"/><path d="m114.40986 67.266953-22.776962 39.450857h-45.553928l-22.776964-39.450857 22.776964-39.45086h45.553928z" fill="url(#B)" stroke="#4b4425" stroke-linecap="round" stroke-linejoin="round" stroke-width="5"/><path d="m114.40986 67.266953-22.776962 39.450857h-45.553928l-22.776964-39.450857 22.776964-39.45086h45.553928z" fill="url(#B)" stroke-linecap="round" stroke-linejoin="round" stroke-width="5"/><path d="m46.078125 25.316406a2.50025 2.50025 0 0 0 -2.164063 1.25l-22.777343 39.451172a2.50025 2.50025 0 0 0 0 2.5l22.777343 39.451172a2.50025 2.50025 0 0 0 2.164063 1.25h45.554687a2.50025 2.50025 0 0 0 2.166016-1.25l22.775392-39.451172a2.50025 2.50025 0 0 0 0-2.5l-22.775392-39.451172a2.50025 2.50025 0 0 0 -2.166016-1.25zm1.443359 5h42.667969l21.333987 36.951172-21.333987 36.951172h-42.667969l-21.332031-36.951172z" fill="#4b4425" stroke-linecap="round" stroke-linejoin="round"/></g><g transform="matrix(.26458334 0 0 .26458334 498.14659 210.45046)"><path d="m114.40986 67.266953-22.776962 39.450857h-45.553928l-22.776964-39.450857 22.776964-39.45086h45.553928z" fill="url(#A)"/><path d="m114.40986 67.266953-22.776962 39.450857h-45.553928l-22.776964-39.450857 22.776964-39.45086h45.553928z" fill="url(#B)" stroke="#4b4425" stroke-linecap="round" stroke-linejoin="round" stroke-width="5"/><path d="m114.40986 67.266953-22.776962 39.450857h-45.553928l-22.776964-39.450857 22.776964-39.45086h45.553928z" fill="url(#B)" stroke-linecap="round" stroke-linejoin="round" stroke-width="5"/><path d="m46.078125 25.316406a2.50025 2.50025 0 0 0 -2.164063 1.25l-22.777343 39.451172a2.50025 2.50025 0 0 0 0 2.5l22.777343 39.451172a2.50025 2.50025 0 0 0 2.164063 1.25h45.554687a2.50025 2.50025 0 0 0 2.166016-1.25l22.775392-39.451172a2.50025 2.50025 0 0 0 0-2.5l-22.775392-39.451172a2.50025 2.50025 0 0 0 -2.166016-1.25zm1.443359 5h42.667969l21.333987 36.951172-21.333987 36.951172h-42.667969l-21.332031-36.951172z" fill="#4b4425" stroke-linecap="round" stroke-linejoin="round"/></g></g></pattern><clipPath id="x"><path d="m498.28552 207.3721h36.158432v41.752167h-36.158432z"/></clipPath><filter id="y" color-interpolation-filters="sRGB" height="1.005485" width="1.005485" x="-.002743" y="-.002743"><feGaussianBlur stdDeviation=".063476182"/></filter><radialGradient id="z" cx="-124.47027" cy="273.30508" gradientTransform="matrix(-.6419028 -1.5133214 1.5133297 -.64188399 -617.96886 260.37171)" gradientUnits="userSpaceOnUse" r="22.773233"><stop offset="0" stop-color="#a51d2d"/><stop offset="1" stop-color="#a51d2d" stop-opacity="0"/></radialGradient><radialGradient id="A" cx="192.41748" cy="99.318619" gradientTransform="matrix(-.86602539 -.00000028 .00000023 -.86602542 212.71739 133.55402)" gradientUnits="userSpaceOnUse" r="45.553928"><stop offset="0" stop-color="#f1a353"/><stop offset="1" stop-color="#729966"/></radialGradient><radialGradient id="B" cx="212.14288" cy="76.541634" gradientTransform="matrix(.00000052 -.74999994 .75000007 0 11.449593 226.3741)" gradientUnits="userSpaceOnUse" r="45.553928"><stop offset="0" stop-color="#4b4425"/><stop offset=".5" stop-color="#4b4425" stop-opacity=".75"/><stop offset=".79863018" stop-color="#4b4425" stop-opacity=".25"/><stop offset="1" stop-color="#729966" stop-opacity="0"/></radialGradient><g><g mask="url(#m)" stroke-width=".094494"><path d="m-16.763244-16.763244c-67.65774 67.657739-96.043756 148.969874-63.396059 181.617564 32.647695 32.64769 113.959825 4.26168 181.617563-63.39606 67.65774-67.657738 96.04375-148.969868 63.39606-181.617563-32.64769-32.647697-113.959825-4.261681-181.617564 63.396059z" fill="url(#p)" opacity=".3"/><path d="m30.833409 30.833409c-67.65774 67.657739-96.043753 148.969871-63.396059 181.617561 32.64769465 32.6477 113.959825 4.26168 181.61756-63.39606 67.65774-67.657735 96.04376-148.96986535 63.39606-181.61756-32.64769-32.647694-113.959822-4.261681-181.617561 63.396059z" fill="url(#q)" opacity=".3"/></g></g><g><g id="C" transform="matrix(.18708867 -.18708867 .18708867 .18708867 155.19856 53.904163)"><g id="D" transform="matrix(3.7795275 0 0 3.7795275 -802.60738 40.054679)"><use transform="matrix(.86811217 -.49636807 .49636807 .86811217 6.154861 137.866456)" xlink:href="#E"/><use transform="matrix(-.09337977 -.99563056 .99563056 -.09337977 251.912218 333.94492)" xlink:href="#E"/><path id="E" d="m287.6003 60.40804c0 1.971802-.0669 2.933352-.0669 4.947708 1.40229.47625 7.48289 2.613172 9.14976 3.195255.0794 2.566459.20432 6.747875 1.00542 10.00125 1.08427 4.403356 2.03729 9.551459 5.08 12.620626.54701.594406 2.62551.610395 3.40052-.22001.72021-.771691.64952-2.534658-.0138-3.166657-1.48167-1.455208-2.98172-6.564259-3.78355-10.054167-.81907-3.564933-.83767-7.273324-1.00541-10.927292-.0255-.55504 0-1.666875 0-1.666875s-1.05612-.394203-1.5875-.582083c-4.04321-1.429555-10.11479-3.459838-12.17854-4.147755z" fill="#1a1a1a"/></g><use transform="matrix(-1 0 0 1 490.48703 -.000001)" xlink:href="#D"/><path d="m289.66613 226.08014c-12.58897-8.72556-29.03086-11.94627-44.34785-12.03441-14.95445-.0861-30.95206 3.00856-43.43059 11.25052-18.50592 21.5822-15.15329 61.45049-8.08021 91.10685 5.99698 25.14449 22.85061 52.76443 40.97684 65.83907 6.28782 4.53491 14.77274 4.53491 21.06055 0 18.12616-13.07464 34.86184-40.7257 40.97685-65.84285 7.14395-29.34362 13.58169-75.47069-7.15559-90.31918z" fill="#1a1a1a" stroke-linecap="round" stroke-linejoin="round" stroke-width="3.77953"/><path d="m213.01485 239.44508c-9.29998 21.4-8.79999 47.9-1.90001 72 7.30001 25.5 22.00003 47.4 34.20004 56.2 12.19998-8.8 26.9-30.7 34.2-56.2 6.89998-24.1 7.39998-50.6-1.9-72-10.76667-5.62487-21.25441-7.4-32.3-7.4-11.04563 0-16.95125-1.66741-32.30003 7.4z" fill="#322e2a"/><path d="m245.31828 169.67328c-15.37716 0-31.45387 4.13029-43.16927 16.69783-7.11099 7.62818-7.72732 16.87372-6.89469 23.5187s3.30527 10.33823 6.63337 15.40644c10.07271 15.33922 26.09454 24.75105 43.43059 24.75104 17.33609 0 34.27526-8.62809 44.34792-23.96728 3.3281-5.06821 4.87605-9.54522 5.70868-16.1902s-.54883-15.89053-7.65971-23.5187c-11.7154-12.56754-27.01973-16.69783-42.39689-16.69783z" fill="#1a1a1a"/><path d="m215.31484 198.64508c-4.21527 4.52186-2.09321 13.33264 1.30001 18.5 5.91662 9.01013 17.92093 14.9 28.70003 14.9s22.78337-5.88987 28.7-14.9c3.39322-5.16736 5.51527-13.97814 1.3-18.5-13.63748-14.62942-46.36256-14.62942-60.00004 0z" fill="#322e2a"/><path d="m254.77447 119.32879c-6.16214-3.80387-14.00371-3.54501-19.90155.65699-6.22836 4.43487-9.0669 7.5706-13.0512 11.90699-6.65469 7.24276-14.55795 14.17739-17.97487 23.40059-3.60412 9.72855-6.81615 22.05349-1.69784 31.07775 8.02182 14.14359 26.90975 22.84788 43.16927 22.71408 15.76846-.12975 33.46492-9.14414 41.49725-22.71408 5.27671-8.91461 3.32338-21.27735-.034-31.07775-3.26805-9.54196-11.647-16.54742-18.52483-23.9247-4.1088-4.40719-5.04707-6.83102-13.48305-12.03987z" fill="#1a1a1a"/><path d="m245.31488 134.64508c-3.9637 2.82233-7.87589 7.01325-10.70003 9.9-12.29998 12.3-21.76241 25.35663-14.50001 36.1 9.40861 13.91828 40.99144 13.91828 50.40004 0 7.2624-10.74337-2.20002-23.8-14.50001-36.1-3.62921-3.13106-6.64879-7.39855-10.69999-9.9z" fill="#322e2a"/><g id="F" transform="matrix(3.7795275 0 0 3.7795275 -868.78397 -244.71092)"><path d="m305.79643 114.87244c.66102-1.16337 1.59712-2.14771 2.42551-3.1985 1.0683-1.35511 2.19997-2.51332 3.2807-4.00441 2.07095-2.8573 4.53981-5.46748 7.29645-7.670638 3.65936-2.924634 7.87641-5.109707 12.06722-7.202913 6.38032-3.442332 12.97987-5.044379 19.61433-5.922653 2.92532-.386929 5.89585-1.09074 8.82314-.718995 3.39527.526619 6.449 2.404331 8.2319 5.051396 1.50053 2.524604 1.14113 5.915006.56129 8.418989-.87948 4.226204-4.19028 7.084904-6.82874 9.822154-1.7369 1.81689-3.4252 3.69439-5.33204 5.33203-2.43658 2.0926-5.13786 3.85731-7.76417 5.7062-5.63079 4.21548-11.52219 7.75657-17.67989 10.00925-4.99302 1.84118-9.80826 2.72635-14.68646 1.40316-4.22925-1.20318-7.18677-3.96652-9.54151-7.20291-.76357-1.05159-1.96445-3.3676-1.96445-3.3676l-.0935-2.5257s.89226-2.70047 1.59022-3.92886z" fill="#5f8ba0" opacity=".5"/><path d="m350.51953 85.882812a.9921875.9921875 0 0 0 -.71289.261719s-2.12696 1.946197-3.14062 2.658203c-2.40429 1.688799-5.1812 2.966207-7.88086 4.539063-3.33126 1.940827-6.73789 3.815028-10.04102 5.914062-2.43229 1.545641-4.8607 3.140881-7.17969 4.912111a.99228672.99228672 0 0 0 -.15625.15039c-2.46546 2.92834-5.59674 4.12707-8.51367 6.18945a.99228672.99228672 0 0 0 -.0117.008c-1.5195 1.10916-3.33534 3.28828-3.5332 3.52343-2.38523.90037-5 2.21094-5 2.21094a.9921875.9921875 0 0 0 -.43164 1.33594.9921875.9921875 0 0 0 .25.21289c-.003.00045-.11133.0215-.11133.0215a.9921875.9921875 0 0 0 -.83203 1.13086.9921875.9921875 0 0 0 1.13086.83008s3.92804-.58652 6.00195-1.14453a.99228672.99228672 0 0 0 .004-.002c3.57994-.98017 7.00471-2.6852 10.52734-4.03321 4.37129-1.31662 9.2811-1.36632 14.04297-2.71679.40353 1.37627.96919 2.71503 1.58594 4.03906-3.80677-.26537-7.58617.23637-11.19727.67578-2.53771.3088-4.97936.91312-7.38086 1.41797-2.95136.62042-5.7478 1.5362-8.54687 1.95312-1.5814.23555-5.125.36524-5.125.36524a.9921875.9921875 0 0 0 -.95899 1.02344.9921875.9921875 0 0 0 1.02344.95898s3.46994-.1045 5.35156-.38477c3.02169-.45007 5.85634-1.38437 8.66407-1.97461 2.44598-.51419 4.83345-1.09913 7.21289-1.38867 4.18829-.50965 8.34159-1.2191 12.27539-.6582 1.59248.22706 4.13549 1.09606 6.21093 1.91016 2.07545.81409 3.71094 1.56445 3.71094 1.56445a.9921875.9921875 0 0 0 1.31641-.48828.9921875.9921875 0 0 0 -.48828-1.31446s-1.68258-.77314-3.81446-1.60937c-1.93727-.7599-4.16874-1.48753-6.04882-1.8418-.80162-1.66152-1.46525-3.27877-1.91993-4.85742 2.76805-1.07665 5.21322-2.63162 7.71094-3.61914 3.0203-1.19415 6.18955-2.09806 9.3711-3.05859 4.75868-1.43669 14.46679-4.01368 14.46679-4.01368a.9921875.9921875 0 0 0 .70508-1.212886.9921875.9921875 0 0 0 -1.21484-.705078s-9.68674 2.568654-14.53125 4.031254c-3.162.95462-6.38352 1.87107-9.52539 3.11328-3.09497 1.22365-5.72967 3.08551-8.54883 4.00195-4.27725 1.39043-9.10769 1.47015-13.83008 2.68164-.07-.35679-.13891-.71584-.14648-1.08594 4.97969-2.38334 9.52931-5.41502 14.33593-7.70703 4.47686-2.13476 9.10969-3.981129 13.77344-5.769529 3.96898-1.521976 7.95052-2.983077 11.99414-4.183594 2.03476-.604104 6.38672-1.574219 6.38672-1.574219a.9921875.9921875 0 0 0 .75391-1.183594.9921875.9921875 0 0 0 -1.1836-.753906s-4.30783.95216-6.52148 1.609375c-4.12423 1.22445-8.15423 2.703769-12.14063 4.232422-4.67967 1.794507-9.36037 3.659699-13.91601 5.832035-5.20611 2.4825-9.91681 5.70967-14.95703 8.03906-1.88003.86887-3.88216 1.54854-5.84571 2.2832.0394-.0308.0763-.0863.11328-.11328 2.59729-1.83308 5.94177-3.15846 8.72852-6.38086 2.24158-1.71128 4.61666-3.27669 7.02734-4.80859 3.23245-2.054116 6.61701-3.915737 9.97657-5.873049 2.58707-1.507259 5.41893-2.800839 8.02148-4.628907 1.30364-.915687 3.34766-2.826171 3.34766-2.826172a.9921875.9921875 0 0 0 .0547-1.402343.9921875.9921875 0 0 0 -.68945-.316407zm-31.11719 26.343748c.0318.26682.0495.53548.10547.79492-3.37715 1.33312-6.55973 2.84817-9.66601 3.69922-.89893.24187-1.6814.33744-2.90821.55274.97484-.47126 1.79927-.91571 3.31836-1.46875 3.04704-1.10931 6.12736-2.25797 9.15039-3.57813z" fill="#4d7081" opacity=".5"/><path d="m359.63578 83.796875c-3.07459-.750694-6.35673.133437-9.46778.714844-6.99508 1.307274-13.92463 3.308652-20.43164 6.189453-4.41345 1.953937-8.65515 4.421957-12.42383 7.4375-2.92179 2.337898-5.30661 5.288588-7.73828 8.132808-1.79932 2.10459-3.39081 4.57387-5.05469 6.5918-.98248 1.26114-1.81006 4.44133-1.81006 4.44133.50824 2.82566.21891 3.79063-.34396 4.89479 0 0 1.63439 2.47903 1.97236 3.89435.00015.00065-.0003.001 0 .002 2.01886 4.02975 6.49326 6.86827 10.83006 8.0958 5.19861 1.47146 10.98487.14818 16.14256-1.46084 6.6818-2.08448 12.40317-6.531 18.27929-10.33399 2.74396-1.77588 5.41861-3.68133 7.89844-5.81054 1.96362-1.68599 3.84475-3.49187 5.49414-5.48633 2.81525-3.40423 6.32241-6.69429 7.4375-10.96875.86133-3.30174.9124-7.292078-.87399-10.19934-2.03396-3.31016-6.13588-5.213361-9.91012-6.134885zm-5.25117 29.175925c-2.38745 2.05046-4.97038 3.8748-7.61229 5.58495-5.50178 3.5614-10.85733 7.7107-17.10161 9.70118-4.22252 1.34601-8.96311 2.54923-13.22761 1.34279-3.33125-.94242-6.07931-3.32111-8.25195-6.30664l-.002-.002c-.15572-.21475-.6064-.83194-.50795-1.26286 0 0 .16666-.59601.20604-.90184.12692-.98544.21085-1.99256.094-2.97924-.0504-.42555-.33946-1.23993-.33946-1.23993 2.47088-3.7441 3.70094-5.35343 5.78948-7.84269 2.13082-2.53965 4.26266-5.13878 6.85352-7.20703 3.54017-2.826072 7.53203-5.124706 11.67775-6.9502 5.99965-2.641837 12.39263-4.436194 18.8301-5.674803 2.6865-.516899 5.51153-1.337576 8.17595-.716853 2.48066.577913 5.23894 1.769182 6.53337 3.962835 1.12453 1.905717.90331 4.512752.26954 6.632812-1.0199 3.411729-3.91844 5.968139-6.22078 8.684639-1.57592 1.8594-3.31705 3.58683-5.1661 5.17488z" fill="#4d7081"/></g><use transform="matrix(-.99772771 .06737513 .06737513 .99772771 475.88684 -17.220684)" xlink:href="#F"/><g id="G" clip-path="url(#u)" transform="matrix(.70710678 -.70710678 .70710678 .70710678 0 0)"><circle cx="-131.82866" cy="281.86462" fill="#4b4425" r="27.774246" transform="matrix(.70710678 -.70710678 .70710678 .70710678 0 0)"/><circle cx="-131.82866" cy="281.86462" fill="url(#v)" filter="url(#y)" r="27.774246" transform="matrix(.70710678 -.70710678 .70710678 .70710678 0 0)"/><circle cx="-131.82866" cy="281.86462" fill="url(#z)" opacity=".5" r="22.773233" transform="matrix(.70710678 -.70710678 .70710678 .70710678 0 0)"/><path d="m-104.05469 281.86523a27.774246 27.774246 0 0 0 -27.77343-27.77539 27.774246 27.774246 0 0 0 -27.7754 27.77539 27.774246 27.774246 0 0 0 27.7754 27.77344 27.774246 27.774246 0 0 0 27.77343-27.77344zm-5 0a22.773233 22.773233 0 0 1 -22.77343 22.77344 22.773233 22.773233 0 0 1 -22.77344-22.77344 22.773233 22.773233 0 0 1 22.77344-22.77343 22.773233 22.773233 0 0 1 22.77343 22.77343z" fill="#4b4425" transform="matrix(.70710678 -.70710678 .70710678 .70710678 0 0)"/></g><use transform="translate(-73.099508)" xlink:href="#G"/></g><g stroke-width="9.50154"><use transform="matrix(.10524606 0 0 .10524606 -17.643926 2.875158)" xlink:href="#C"/><use transform="matrix(0 .10524606 -.10524606 0 116.55211 62.625021)" xlink:href="#C"/><use transform="matrix(0 .10524606 -.10524606 0 69.985453 -7.432857)" xlink:href="#C"/></g><use stroke-width="16.382" transform="matrix(.05930599 -.01445724 .01445724 .05930599 39.830853 119.52764)" xlink:href="#C"/><use stroke-width="16.382" transform="matrix(.03518699 .04988074 -.04988074 .03518699 95.617959 -2.988358)" xlink:href="#C"/><use stroke-width="12.8549" transform="matrix(.05997053 .04954765 -.04954765 .05997053 74.379605 84.736613)" xlink:href="#C"/></g><g stroke-width="1.30192" transform="matrix(.76988196 -.04138819 .03943814 .76419427 215.41884 -4.768406)"><path d="m-257.87695 31.652344a5.5120143 5.5120143 0 0 0 -5.51172 5.511718v109.537108a5.5120143 5.5120143 0 0 0 5.51172 5.51172h7.93945a5.5120143 5.5120143 0 0 0 5.51172-5.51172v-109.537108a5.5120143 5.5120143 0 0 0 -5.51172-5.511718zm12.69922 0a5.5120143 5.5120143 0 0 0 -5.51172 5.511718v101.070308a5.5120143 5.5120143 0 0 0 5.51172 5.51172h7.93945a5.5120143 5.5120143 0 0 0 5.51172-5.51172v-101.070308a5.5120143 5.5120143 0 0 0 -5.51172-5.511718zm12.70117 0a5.5120143 5.5120143 0 0 0 -5.51172 5.511718v88.371098a5.5120143 5.5120143 0 0 0 5.51172 5.51171h7.9375a5.5120143 5.5120143 0 0 0 5.51172-5.51171v-88.371098a5.5120143 5.5120143 0 0 0 -5.51172-5.511718zm12.69922 0a5.5120143 5.5120143 0 0 0 -5.51172 5.511718v79.904298a5.5120143 5.5120143 0 0 0 5.51172 5.51172h7.93945a5.5120143 5.5120143 0 0 0 5.51172-5.51172v-79.904298a5.5120143 5.5120143 0 0 0 -5.51172-5.511718zm12.69922 0a5.5120143 5.5120143 0 0 0 -5.51172 5.511718v71.437498a5.5120143 5.5120143 0 0 0 5.51172 5.51172h7.93945a5.5120143 5.5120143 0 0 0 5.51172-5.51172v-71.437498a5.5120143 5.5120143 0 0 0 -5.51172-5.511718zm12.70312 0a5.5120143 5.5120143 0 0 0 -5.51172 5.511718v62.970708a5.5120143 5.5120143 0 0 0 5.51172 5.51171h7.93945a5.5120143 5.5120143 0 0 0 5.50977-5.51171v-62.970708a5.5120143 5.5120143 0 0 0 -5.50977-5.511718zm12.69727 0a5.5120143 5.5120143 0 0 0 -5.51172 5.511718v54.503907a5.5120143 5.5120143 0 0 0 5.51172 5.511718h7.93945a5.5120143 5.5120143 0 0 0 5.51172-5.511718v-54.503907a5.5120143 5.5120143 0 0 0 -5.51172-5.511718zm12.70117 0a5.5120143 5.5120143 0 0 0 -5.51172 5.511718v46.03711a5.5120143 5.5120143 0 0 0 5.51172 5.511719h7.9375a5.5120143 5.5120143 0 0 0 5.51172-5.511719v-46.03711a5.5120143 5.5120143 0 0 0 -5.51172-5.511718zm12.69922 0a5.5120143 5.5120143 0 0 0 -5.51172 5.511718v41.804688a5.5120143 5.5120143 0 0 0 5.51172 5.511719h7.93945a5.5120143 5.5120143 0 0 0 5.51172-5.511719v-41.804688a5.5120143 5.5120143 0 0 0 -5.51172-5.511718zm12.70117 0a5.5120143 5.5120143 0 0 0 -5.51172 5.511718v37.570313a5.5120143 5.5120143 0 0 0 5.51172 5.511719h7.93945a5.5120143 5.5120143 0 0 0 5.51172-5.511719v-37.570313a5.5120143 5.5120143 0 0 0 -5.51172-5.511718z" fill="#2b2621" stroke-linecap="square" stroke-linejoin="round"/><path d="m-257.87753 37.16421v109.53751h7.93938v-109.53751zm12.7 0v101.07084h7.93938v-101.07084zm12.7 0v88.37084h7.93938v-88.37084zm12.7 0v79.90417h7.93938v-79.90417zm12.7 0v71.4375h7.93938v-71.4375zm12.70188 0v62.97084h7.93938v-62.97084zm12.69845 0v54.504169h7.93938v-54.504169zm12.69967 0v46.037502h7.93938v-46.037502zm12.7 0v41.804168h7.93938v-41.804168zm12.70188 0v37.570835h7.93938v-37.570835z" fill="#3b332b"/><g clip-rule="evenodd" fill="#2b2621" fill-rule="evenodd" stroke-width=".264583" transform="matrix(1.2843575 -.17945932 .18086965 1.294451 -300.09532 -.493946)"><path d="m28.429788 30.78365a2.261788 2.2441518.00000648 0 0 -.522966.0093l-9.535852 65.864201zm.442867.04444-11.364165 73.7123 11.667505-73.669923zm-1.393197.08578a2.261788 2.2441518.00000648 0 0 -.582393.30593l-11.098031 73.79033-.52141 3.70107zm2.088245.01085-12.697933 81.87667 13.094808-81.821886zm.973584.134876-8.278048 54.470062 8.846489-54.390997zm1.038696.144177-6.498828 44.926975 6.738607-44.893902zm.84336.116789-10.858769 71.396158 11.537797-71.302107zm1.121896.155546-7.500836 48.213596 7.965407-48.149001zm1.099157.155026-2.755904 17.802531 3.111438-17.714164a2.261788 2.2441518.00000648 0 0 -.355534-.08837zm-8.268746.12661a2.261788 2.2441518.00000648 0 0 -.392741.936377l-2.170932 15.417147zm9.073864.166915-8.346777 54.583234 8.562785-54.437506a2.261788 2.2441518.00000648 0 0 -.216008-.145728zm.670244.610816-13.045716 86.491875a2.261788 2.2441518.00000648 0 0 .02791-.009l13.335099-85.858617a2.261788 2.2441518.00000648 0 0 -.317293-.624251zm11.814783.93586a2.261788 2.2441518.00000648 0 0 -.395325.0067l-8.940539 71.500555.375164.0522 9.005652-71.553266zm-.833541.0553a2.261788 2.2441518.00000648 0 0 -.560172.199471l-8.885246 71.085584a2.261788 2.2441518.00000648 0 0 .077.0233zm1.603003.05116-8.906434 71.567215.05323.007 9.241813-71.520179zm1.219564.169499-8.95656 71.559976.264067.0362 9.946163-71.422518zm1.657264.229443-6.181019 44.857212 6.732405-44.780731zm-15.040943.0124-13.196612 84.946243a2.261788 2.2441518.00000648 0 0 .427882-.1912l12.641088-83.772674.114738-.815452a2.261788 2.2441518.00000648 0 0 .01292-.166915zm9.533785.0863a2.261788 2.2441518.00000648 0 0 -.675411 1.252637l-8.243425 63.974392zm6.58151.05013-5.538164 42.140065 5.909201-42.088388zm.70435.09767-9.946164 71.423033.526584.0729a2.261788 2.2441518.00000648 0 0 .513664-.009l8.949325-71.480382zm.532267.0739-9.124508 71.368263a2.261788 2.2441518.00000648 0 0 .0078-.003l9.455234-71.304187a2.261788 2.2441518.00000648 0 0 -.234094-.04702zm.808736.236162-1.96112 17.549833 2.183846-17.421676a2.261788 2.2441518.00000648 0 0 -.222726-.128157zm.639755.478524-7.081739 56.2622 3.745034-26.594237 3.652491-29.235426a2.261788 2.2441518.00000648 0 0 -.315743-.43253zm.56224 1.104325-1.049549 8.327657 1.070219-7.599019a2.261788 2.2441518.00000648 0 0 -.02067-.728638zm11.428243.04393a2.261788 2.2441518.00000648 0 0 -.397909.0072l-5.098397 41.052792 6.448186-40.928252zm-.775146.03617a2.261788 2.2441518.00000648 0 0 -.424265.14521l-7.363891 58.300319a2.261788 2.2441518.00000648 0 0 .136425.04134zm2.10323.147794-8.824268 58.497206.135397.01857 9.078516-58.46155zm.622701.0863-9.080066 58.461549.274922.03822 8.822717-58.497206zm-3.391007.01912a2.261788 2.2441518.00000648 0 0 -.02222.01705l-7.586616 57.979925a2.261788 2.2441518.00000648 0 0 .262516.12764zm3.802869.03824-4.17339 31.564482 4.517038-31.51694zm.796333.110587-8.451681 58.548366.06407.0088 8.818066-58.497723zm.848527.117305-8.812382 58.498756.04134.0057 9.055261-58.46465zm-5.934005.0987a2.261788 2.2441518.00000648 0 0 -.422713.593245l-4.14755 29.984734zm6.802169.0217-5.526278 38.226609 5.912302-38.172865zm.854212.118856-2.073775 15.115357 2.425692-15.065748a2.261788 2.2441518.00000648 0 0 -.0186-.0036zm.796851.164331-6.341216 41.702365 6.678145-41.54992a2.261788 2.2441518.00000648 0 0 -.336929-.152446zm.814937.51418-9.16585 57.073006 9.472291-56.701967a2.261788 2.2441518.00000648 0 0 -.306441-.371037zm11.842688 1.220081a2.261788 2.2441518.00000648 0 0 -.397908.0072l-6.900355 45.25667a2.261788 2.2441518.00000648 0 0 .161748.112655zm.729671.06718-.08058.573614.0894-.572059zm-.08058.573614-7.026444 45.055649a2.261788 2.2441518.00000648 0 0 .148828.04496l.247535.03407 3.84421-24.508065 2.321305-16.484266-1.524972 9.986471.409795-2.910417 1.115177-7.076054.661998-4.699452-.07958-.01136-.213941 1.250052zm.601514-.501262-6.813538 45.693853.127122.0181 7.026962-45.664398zm-33.781919.03669-8.581388 66.383546a2.261788 2.2441518.00000648 0 0 .350366-.26252zm34.611326.07855-7.147368 45.647344.67696.09406 6.513298-45.735711zm.365869.05064-5.955192 42.160736 6.336047-42.108026zm-3.745508.03462a2.261788 2.2441518.00000648 0 0 -1.039731 1.568379l-5.816169 41.299291a2.261788 2.2441518.00000648 0 0 .03152.756026zm4.647778.09043-5.916435 44.978134 6.468857-44.901652zm.947229.131259-6.512781 45.735711.621151.08578 7.145817-45.647344zm-15.480709.0155-4.338753 28.838034 2.192114-13.548011 2.138366-15.186671a2.261788 2.2441518.00000648 0 0 .0083-.103353zm17.565337.280086-6.962883 45.666465.174144.02433 7.169588-45.586883a2.261788 2.2441518.00000648 0 0 -.380855-.103869zm1.066601.51108-7.049182 45.203443a2.261788 2.2441518.00000648 0 0 .419613-.09663l7.006807-44.68978a2.261788 2.2441518.00000648 0 0 -.377238-.417029zm.7059 1.134814-6.54327 43.538946a2.261788 2.2441518.00000648 0 0 .299206-.312642l3.2582-20.787362 3.037552-21.57181a2.261788 2.2441518.00000648 0 0 -.05172-.867134zm11.087658.188617a2.261788 2.2441518.00000648 0 0 -.41083.03152l-4.55114 36.010206a2.261788 2.2441518.00000648 0 0 .23616.07131zm.51832.01344-4.49844 36.204509.0837.01189 4.65915-36.182289zm.71106.0987-1.92236 18.081067 2.27997-18.031458zm-1.89187.0057a2.261788 2.2441518.00000648 0 0 -.0119.0041l-4.68188 35.800399a2.261788 2.2441518.00000648 0 0 .16381.04961zm2.88975.132809-4.22455 36.242233.11627.01657 4.56561-36.195207zm-3.29644.03256a2.261788 2.2441518.00000648 0 0 -.014.01034l-5.362975 34.519858a2.261788 2.2441518.00000648 0 0 .129708.244429zm4.20491.09353-4.34547 36.225697.33796.04651 4.6886-36.178155zm-4.49223.12144a2.261788 2.2441518.00000648 0 0 -.48783.549837l-3.26233 21.626587-1.535805 10.907865a2.261788 2.2441518.00000648 0 0 .03049.753959zm5.77587.05633-4.7656 36.167303.0481.0067 4.95835-36.14043zm.70022.09715-4.31085 36.230348.19688.02743 4.69325-36.177638zm1.15342.160197-4.4018 36.135781a2.261788 2.2441518.00000648 0 0 .22996-.01912l4.56819-36.047414a2.261788 2.2441518.00000648 0 0 -.23461-.04703zm.77824.203089-4.40748 35.727536a2.261788 2.2441518.00000648 0 0 .1726-.09612l4.52427-35.475355a2.261788 2.2441518.00000648 0 0 -.28939-.156063zm.68627.476973-4.48759 34.829917a2.261788 2.2441518.00000648 0 0 .29869-.397909l4.62298-33.809307a2.261788 2.2441518.00000648 0 0 -.43408-.6227zm-65.685918 5.215187-7.549927 56.956215.267164.0372zm-15.982488 1.776118-10.384379 68.922407.425298.0589zm-.466638.221175-10.630877 68.602532.286284.0398zm39.448756 2.537313-6.896221 42.619106.408761.05633zm12.510348.465605-4.652947 30.254485a2.261788 2.2441518.00000648 0 0 .121957.159679zm-60.057835.05219-1.873788 12.038542-.968413 6.873483zm66.820213.900204-4.78007 31.084408.146237.0202zm-45.659231 2.079459-6.381005 48.616671.249086.0346zm60.539463 4.043165-2.40813 17.543632.1075.01494zm.37775.34003-2.26291 17.275948.0718.0098zm-78.47118.120407-9.6113 57.582529.357086.0496zm64.250343 2.072741-3.481441 22.36401a2.261788 2.2441518.00000648 0 0 .129708-.05994zm-50.300807 4.942334-1.331139 9.455244-3.270084 26.47849a2.261788 2.2441518.00000648 0 0 .0124.016zm19.989995.564824-3.266467 25.386048a2.261788 2.2441518.00000648 0 0 .0956.125574zm4.462777.628385-4.09329 26.030453.108.01501zm4.840532.968416-4.157886 25.5664a2.261788 2.2441518.00000648 0 0 .285253-.09819zm36.63497 2.072226-.76481 6.309176.0403.0057zm-36.458238 3.257156-3.121773 19.508887a2.261788 2.2441518.00000648 0 0 .335896-.491959l1.175123-7.578349zm-3.957381.510564-3.22461 19.489766.186037.02531zm-19.355925.856278-4.33772 28.877305.35295.0486zm-22.117513.0217-6.718454 41.810375.358114.0496zm57.051816.989087-1.089856 6.996472.102319.01447zm-36.652544 1.56683-3.671611 26.153968.232541.032zm22.037415.125057-2.425692 16.174723.08681.01193zm-41.600563 1.07797-5.924703 38.277251.381895.0532zm57.35464 1.299145-.457336 3.172933.03927.0057zm-63.204929 1.18184-5.520594 33.510626a2.261788 2.2441518.00000648 0 0 .243396.6599zm64.144407 1.770435-.06098.40566.0036.000517zm-44.458786 1.001489-2.408122 18.921852a2.261788 2.2441518.00000648 0 0 .182417.0879zm-18.14463 1.53169-5.018298 31.020852.340542.0471zm5.470467.216007-4.533573 31.625465a2.261788 2.2441518.00000648 0 0 .356567-.007zm1.565796 4.294312-4.200777 26.673313a2.261788 2.2441518.00000648 0 0 .621151-1.25367zm-10.382829 5.763472-3.128491 20.044781a2.261788 2.2441518.00000648 0 0 .220658.18861zm19.210199 2.705771-.566374 4.10621a2.261788 2.2441518.00000648 0 0 .04651.032zm2.397787 3.20704-.211874 1.68155.02326.003zm-18.257284.0114-2.443263 15.18047.347273.048zm-4.065386 2.16835-1.870687 12.3641a2.261788 2.2441518.00000648 0 0 .296623.12712z" opacity=".5"/><path d="m38.272083 32.131373-12.183752 80.780087a2.2617872 2.244151.00000691 0 0 .04082.0279l12.542391-80.752693zm-.5333.0041a2.2617872 2.244151.00000691 0 0 -.241329.01344l-8.284766 54.143466zm1.162719.0832-12.554789 80.793527a2.2617872 2.244151.00000691 0 0 .356051.10748l12.211658-80.899424zm.392741.05426-10.615889 81.140787.364835.0506 10.263973-81.18936zm.24288.03411-10.26139 81.189357.04341.006 10.616924-81.140273zm-2.565219.0217a2.2617872 2.244151.00000691 0 0 -.38964.24598l-2.575553 16.654797zm3.485576.105937-6.781499 54.486081 7.006808-54.455076zm.714685.0987-1.858285 17.44338 2.20245-17.395321zm.987537.136942-5.585189 47.999655 6.040975-47.936093zm.907438.126091-8.545215 71.232857 9.223726-71.138806zm1.281059.18035-5.865276 44.538368 6.10247-44.487725a2.2617872 2.244151.00000691 0 0 -.237194-.05064zm.695564.231511-6.448185 54.118662 6.9665-53.741424a2.2617872 2.244151.00000691 0 0 -.518315-.377202zm-9.361702.826306a2.2617872 2.244151.00000691 0 0 -.001.0041l-.0031.02325zm10.388513.296106-2.034501 16.714742 2.189014-15.545304a2.2617872 2.244151.00000691 0 0 -.154513-1.169438zm11.562085.484725a2.2617872 2.244151.00000691 0 0 -.180867.0031l-8.187098 65.097837.414962.05788 8.137488-65.132977zm-.63717.01188a2.2617872 2.244151.00000691 0 0 -.243396.06046l-1.904277 16.989661zm1.147733.05891-8.081677 64.118051 8.418608-64.071543zm.869715.120406-4.057634 34.587553 4.404383-34.539494zm-2.792078.077a2.2617872 2.244151.00000691 0 0 -.379305.28422l-8.202083 64.121669a2.2617872 2.244151.00000691 0 0 .03307.02274zm3.534668.02636-2.509924 19.974491 2.751253-19.941419zm.602031.0832-1.553394 11.918135 1.848983-11.877311zm.943611.130741-3.676261 30.559376 4.000789-30.514418zm.886251.12299-6.583061 57.362391 6.944796-57.312265zm.876949.121439-5.013131 41.40781 5.365565-41.358717zm.814421.124541-1.766301 14.624947 2.091862-14.528829a2.2617872 2.244151.00000691 0 0 -.325561-.09612zm.781864.33693-4.767667 37.564633 5.116483-37.269561a2.2617872 2.244151.00000691 0 0 -.348816-.295072zm-9.422164.179834a2.2617872 2.244151.00000691 0 0 -.137976.449585l-8.535396 61.290317a2.2617872 2.244151.00000691 0 0 .778247 1.334803zm10.272242.907438-2.375049 18.737358 2.487703-17.664555a2.2617872 2.244151.00000691 0 0 -.112654-1.072803zm11.521261.38809a2.2617872 2.244151.00000691 0 0 -.265617.0047l-8.283216 51.586503a2.2617872 2.244151.00000691 0 0 .03152.0217l8.620662-51.598402zm-.797885.04341a2.2617872 2.244151.00000691 0 0 -.379305.130225l-6.218742 40.928769zm1.462443.04858-4.587317 30.466875 4.912879-30.421916zm.972034.134876-1.507918 11.964128 1.804024-11.923304zm.656808.09095-2.869076 19.966741 3.110921-19.933151zm.637687.08837-5.312338 34.456296 5.659087-34.408237zm-4.63486.08113a2.2617872 2.244151.00000691 0 0 -.374654.37207l-1.858284 13.499952zm-16.935917.02687-8.14989 62.032904.38964.0537zm22.449793.01395-7.828463 52.09398.06305.0088 8.103382-52.056256zm.663009.09198-8.159709 52.047988.405143.05581 8.117334-52.053671zm.809769.112138-2.668054 17.132288 2.903699-17.099732zm.726054.100253-7.762834 52.10328.09508.01344 8.00468-52.050571a2.2617872 2.244151.00000691 0 0 -.282671-.05839zm.80977.253731-8.126636 51.911561.02584.0036a2.2617872 2.244151.00000691 0 0 .765845-.03307l7.383529-51.854718a2.2617872 2.244151.00000691 0 0 -.04858-.02739zm-27.758513.232544-7.869804 60.905844a2.2617872 2.244151.00000691 0 0 .257865.07803l.02222.0031zm28.108879.001-5.837887 41.328228 6.166032-41.007317a2.2617872 2.244151.00000691 0 0 -.328145-.320911zm.767395 1.179773-2.487703 18.923394 2.541963-18.049028a2.2617872 2.244151.00000691 0 0 -.05426-.874366zm-24.607284.05323-7.646562 60.336885.291455.0403zm36.067567.136426a2.2617872 2.244151.00000691 0 0 -.380339.0067l-6.074564 38.952229a2.2617872 2.244151.00000691 0 0 .377754.207739l6.139161-39.157817zm.485242.06718-5.905067 39.278741.278536.03876 6.15363-39.244117zm-1.64021.0987a2.2617872 2.244151.00000691 0 0 -.419613.224276l-5.726782 37.544479a2.2617872 2.244151.00000691 0 0 .156062.328146zm2.574519.03101-5.692159 39.308196.205156.02842 5.9986-39.265821zm.943095.130741-6.050276 39.258587.141076.01912 6.213058-39.235849zm.695048.09612-6.085933 39.253419.206189.02894 6.277136-39.227064zm.982374.136425-5.971216 39.269439.153995.02119 6.377391-39.213111zm1.02991.142627-5.67976 39.309747.02842.0041 5.89112-39.280808zm.84336.116789-5.969665 39.269955.303857.04186 6.335528-39.1542a2.2617872 2.244151.00000691 0 0 -.52141-.136942zm-22.275131.05788-7.674983 48.969105.309025.04289zm23.371181.325561-6.065776 38.95938a2.2617872 2.244151.00000691 0 0 .08475-.0015l6.387726-38.610047a2.2617872 2.244151.00000691 0 0 -.4067-.347783zm-21.382671 1.082621-7.526673 47.857029.224793.03152zm-4.443657.0072-7.553544 47.230193.228926.03152zm26.749268.196887-2.497 16.101344 2.08256-11.872144.47129-3.345533a2.2617872 2.244151.00000691 0 0 -.0568-.883667zm11.46545.199471a2.2617872 2.244151.00000691 0 0 -.22685.0041l-4.24109 32.932874.25528.03514 4.50257-32.931841zm-.66714.01189a2.2617872 2.244151.00000691 0 0 -.31109.09353l-4.038 32.693096a2.2617872 2.244151.00000691 0 0 .15968.04806zm1.36271.08475-4.12016 32.985068.31936.04393 4.32842-32.956129zm.95085.131775-4.1212 32.985068.41238.05684 4.15117-32.980934zm-3.05305.03617a2.2617872 2.244151.00000691 0 0 -.44235.330729l-3.87418 31.828549a2.2617872 2.244151.00000691 0 0 .22376.155029zm4.21938.125057-4.10621 32.987651.23306.03204 4.26176-32.965431zm1.22008.168982-4.12946 32.98455.79013.109555 4.58422-32.921506zm1.649.228926-4.53668 32.927707.14108.01964 4.93717-32.862594a2.2617872 2.244151.00000691 0 0 -.1602-.03204zm1.05833.262-4.27829 32.580441a2.2617872 2.244151.00000691 0 0 .0868-.02946l4.5408-32.344796a2.2617872 2.244151.00000691 0 0 -.34933-.206189zm.65216.475423-4.43901 31.876608a2.2617872 2.244151.00000691 0 0 .57206-.532784l3.91656-31.292664a2.2617872 2.244151.00000691 0 0 -.0496-.05116zm.45578.70745-2.97139 23.252845 3.11402-22.111312a2.2617872 2.244151.00000691 0 0 -.14263-1.141533zm-64.990345 3.056661-6.648173 52.128093.21394.0294zm-24.741643 1.651062-7.367509 48.878155-1.678968 11.921236a2.2617872 2.244151.00000691 0 0 .116789 1.00098zm-.466638.221692-.536402 3.460771-.207222 1.472778zm79.037556.145728-3.22978 22.932968-.0191.162264a2.2617872 2.244151.00000691 0 0 .12196.994254zm-73.302506.374654-8.664587 63.106747.394291.0548zm37.771339.183968-6.187219 39.069451.160713.02274zm-37.384282.157613-8.239291 62.877826.259933.0362zm22.481315.137976-6.407877 49.44608a2.2617872 2.244151.00000691 0 0 .510046-.2806zm10.846884 1.52765-2.315104 14.307654-1.737879 12.341366zm-15.590263 3.414778-6.04511 44.209702.342615.0476zm60.447993 1.606104-2.48926 18.772498.0873.0124zm-41.664127 1.039213-4.778003 31.262175.242363.03359zm25.680087.746725-3.083016 20.451465a2.2617872 2.244151.00000691 0 0 .146761-.109554zm-.46664.221175-3.187917 20.583757a2.2617872 2.244151.00000691 0 0 .09198-.03152zm-60.3281 2.675805-6.187219 51.06303a2.2617872 2.244151.00000691 0 0 .38809-.54363zm52.230922.369487-2.615345 16.795874a2.2617872 2.244151.00000691 0 0 .08578.02635zm21.160468 2.98018-1.36891 10.42572.0543.0072zm-56.392427 2.131136-4.252454 32.780947.346232.0481zm14.223421 2.002979-3.208073 19.703707a2.2617872 2.244151.00000691 0 0 .204122.06149zm24.613486.379305-1.666565 9.977685.06253.0088zm-36.80654 4.275708-3.15433 25.006743a2.2617872 2.244151.00000691 0 0 .216525-.686263l.596863-4.238501zm-1.908411 3.154846-3.165181 23.070429a2.2617872 2.244151.00000691 0 0 .125573-.002zm-25.479582.498161-5.534029 35.128088 1.151867.15968zm5.902999.02997-4.637443 35.777148a2.2617872 2.244151.00000691 0 0 .320394-.11007zm30.860133 1.060917-1.402499 9.344133a2.2617872 2.244151.00000691 0 0 .04289.05633zm8.991699 1.42472-1.400948 9.723437a2.2617872 2.244151.00000691 0 0 .127641-.04393zm-41.69358.896069-4.445724 32.430062.327112.0455zm-7.736996 5.757271-3.592545 25.065141a2.2617872 2.244151.00000691 0 0 .241328.2837zm4.686019.660425-3.836975 25.673886.280086.0388zm.840259 16.869776-1.332735 9.22424a2.2617872 2.244151.00000691 0 0 .219625-.004z" opacity=".5"/></g><g opacity=".5"><path d="m-143.57565 37.16421v37.570835h7.93938v-37.570835z" fill="url(#d)"/><path d="m-156.27753 37.16421v41.804168h7.93938v-41.804168z" fill="url(#e)"/><path d="m-168.97753 37.16421v46.037502h7.93938v-46.037502z" fill="url(#f)"/><path d="m-181.6772 37.16421v54.504169h7.93938v-54.504169z" fill="url(#g)"/><path d="m-194.37565 37.16421v62.97084h7.93938v-62.97084z" fill="url(#h)"/><path d="m-207.07753 37.16421v71.4375h7.93938v-71.4375z" fill="url(#i)"/><path d="m-219.77753 37.16421v79.90417h7.93938v-79.90417z" fill="url(#j)"/><path d="m-232.47753 37.16421v88.37084h7.93938v-88.37084z" fill="url(#k)"/><path d="m-245.17753 37.16421v101.07084h7.93938v-101.07084z" fill="url(#l)"/><path d="m-257.87753 37.16421v109.53751h7.93938v-109.53751z" fill="url(#c)"/></g><g><path d="m-263.38867 144.79393s3.77285-2.79822 5.51114-4.3744c15.05752-16.43257 31.40166-29.95188 49.15867-42.22617 15.52599-10.732133 32.4419-19.448394 49.66602-27.121093 5.2486-2.338056 11.30951-4.884741 16.25586-5.71875l7.16071-5.435139 5.51127-13.449628c-16.65083.690093-37.1325 6.026367-54.21933 13.449628-3.08944 1.342189-5.65872 3.665945-8.48011 5.511309-10.07106 6.587103-20.46825 12.703546-30.15599 19.849611-12.12247 8.94202-23.48654 18.891962-34.89726 28.738102-1.8744 1.61739-5.51098 4.98108-5.51098 4.98108z" fill="#1f2013" stroke-linecap="round" stroke-linejoin="round"/><path d="m-135.63627 51.980878c-15.37877.637371-32.67725 6.692545-46.14249 13.448809-13.13689 7.925712-25.96505 14.632064-37.94474 23.452407-13.56182 9.985228-25.79041 20.763976-38.15028 33.166806l-.005 11.62543c13.21431-16.41319 29.562-27.79427 46.13432-39.337637 15.90558-11.07895 32.97001-21.520952 50.70429-28.404584 5.70304-2.205031 11.30051-4.997515 17.32749-6.013731 2.65428-.447543 5.8494.189459 8.07641 0z" fill="url(#t)"/><path d="m-135.63627 51.980878c-15.37877.637371-32.67725 6.692545-46.14249 13.448809-13.13689 7.925712-25.96505 14.632064-37.94474 23.452407-13.56182 9.985228-25.79041 20.763976-38.15028 33.166806l-.005 11.62543c13.21431-16.41319 29.562-27.79427 46.13432-39.337637 15.90558-11.07895 32.97001-21.520952 50.70429-28.404584 5.70304-2.205031 11.30051-4.997515 17.32749-6.013731 2.65428-.447543 5.8494.189459 8.07641 0z" fill="url(#r)" opacity=".25"/><path d="m-263.38867 65.429959 133.26367-.000272v-18.960937l-133.26367.000272z" fill="#1f2013"/><path d="m-257.87566 51.980878v7.9375h122.23939v-7.9375z" fill="url(#s)"/><path d="m-257.87566 51.980878v7.9375h122.23939v-7.9375z" fill="url(#r)" opacity=".25"/></g></g><use stroke-width="9.50154" transform="matrix(0 .10524606 -.10524606 0 44.502479 37.708604)" xlink:href="#C"/></svg>