<svg height="500" viewBox="0 0 132.29167 132.29167" width="500" xmlns="http://www.w3.org/2000/svg" xmlns:xlink="http://www.w3.org/1999/xlink"><linearGradient id="a"><stop offset="0" stop-color="#371c4a"/><stop offset="1" stop-color="#2a1439"/></linearGradient><linearGradient id="b"><stop offset="0" stop-color="#a2a19a"/><stop offset=".12397685" stop-color="#c1c0be"/><stop offset=".25993788" stop-color="#e3e1db"/><stop offset=".53069228" stop-color="#c1c0be"/><stop offset=".77781433" stop-color="#a2a19a"/><stop offset="1" stop-color="#7f7e75"/></linearGradient><linearGradient id="c" gradientUnits="userSpaceOnUse" spreadMethod="reflect" x1="-257.87482" x2="-249.93816" xlink:href="#b" y1="37.164211" y2="37.164211"/><radialGradient id="d" cx="-257.87524" cy="158.57376" gradientTransform="matrix(.06491985 -.06531603 .13560576 .13478287 -262.63795 100.52452)" gradientUnits="userSpaceOnUse" r="61.118755" spreadMethod="reflect" xlink:href="#a"/><linearGradient id="e" gradientTransform="matrix(1 0 0 .34299515 114.30188 24.417066)" gradientUnits="userSpaceOnUse" spreadMethod="reflect" x1="-257.87753" x2="-249.93816" xlink:href="#b" y1="37.164211" y2="37.164211"/><linearGradient id="f" gradientTransform="matrix(1 0 0 .38164249 101.6 22.980769)" gradientUnits="userSpaceOnUse" spreadMethod="reflect" x1="-257.87753" x2="-249.93816" xlink:href="#b" y1="37.164207" y2="37.164207"/><linearGradient id="g" gradientTransform="matrix(1 0 0 .42028984 88.9 21.54447)" gradientUnits="userSpaceOnUse" spreadMethod="reflect" x1="-257.87753" x2="-249.93816" xlink:href="#b" y1="37.164211" y2="37.164211"/><linearGradient id="h" gradientTransform="matrix(1 0 0 .49758452 76.200325 18.671874)" gradientUnits="userSpaceOnUse" spreadMethod="reflect" x1="-257.87753" x2="-249.93814" xlink:href="#b" y1="37.164211" y2="37.164211"/><linearGradient id="i" gradientTransform="matrix(1 0 0 .57487917 63.50188 15.79928)" gradientUnits="userSpaceOnUse" spreadMethod="reflect" x1="-257.87753" x2="-249.93816" xlink:href="#b" y1="37.164211" y2="37.164211"/><linearGradient id="j" gradientTransform="matrix(1 0 0 .6521738 50.8 12.926686)" gradientUnits="userSpaceOnUse" spreadMethod="reflect" x1="-257.87753" x2="-249.93816" xlink:href="#b" y1="37.164211" y2="37.164211"/><linearGradient id="k" gradientTransform="matrix(1 0 0 .72946859 38.1 10.054086)" gradientUnits="userSpaceOnUse" spreadMethod="reflect" x1="-257.87753" x2="-249.93816" xlink:href="#b" y1="37.164211" y2="37.164211"/><linearGradient id="l" gradientTransform="matrix(1 0 0 .80676329 25.4 7.18149)" gradientUnits="userSpaceOnUse" spreadMethod="reflect" x1="-257.87753" x2="-249.93816" xlink:href="#b" y1="37.164207" y2="37.164207"/><linearGradient id="m" gradientTransform="matrix(1 0 0 .92270529 12.7 2.872597)" gradientUnits="userSpaceOnUse" spreadMethod="reflect" x1="-257.87753" x2="-249.93816" xlink:href="#b" y1="37.164211" y2="37.164211"/><linearGradient id="n" gradientUnits="userSpaceOnUse" spreadMethod="reflect" x1="-257.86682" x2="-253.90784" xlink:href="#a" y1="51.57336" y2="55.949627"/><mask id="o" maskUnits="userSpaceOnUse"><path d="m-13.229159-13.22917h158.749999v158.75002h-158.749999z" fill="url(#p)" filter="url(#q)" stroke-width="11.83"/></mask><radialGradient id="p" cx="66.145844" cy="66.145836" gradientTransform="matrix(-1.0000001 .00000145 0 -1 132.29169 132.29157)" gradientUnits="userSpaceOnUse" r="66.145836"><stop offset="0" stop-color="#fff"/><stop offset=".25342461" stop-color="#fff"/><stop offset=".75273961" stop-color="#808080"/><stop offset=".87499994" stop-color="#404040"/><stop offset="1"/></radialGradient><filter id="q" color-interpolation-filters="sRGB" height="1.0135" width="1.0135" x="-.00675" y="-.00675"><feGaussianBlur stdDeviation=".44648439"/></filter><radialGradient id="r" cx="703.05621" cy="255.40021" gradientTransform="matrix(.12107523 -.12107523 .05841622 .05841622 -57.692804 112.54712)" gradientUnits="userSpaceOnUse" r="1011.8609"><stop offset="0"/><stop offset=".08962709" stop-opacity=".9104"/><stop offset="1" stop-opacity="0"/></radialGradient><radialGradient id="s" cx="703.05621" cy="1070.2185" gradientTransform="matrix(.12107523 -.12107523 .05841622 .05841622 -57.692804 112.54712)" gradientUnits="userSpaceOnUse" r="1011.8609"><stop offset="0" stop-color="#9500ff"/><stop offset=".08962709" stop-color="#9500ff" stop-opacity=".9104"/><stop offset="1" stop-color="#9500ff" stop-opacity="0"/></radialGradient><radialGradient id="t" cx="4601.1221" cy="4277.6772" gradientTransform="matrix(0 1 -1 0 5224.5762 -3824.5764)" gradientUnits="userSpaceOnUse" r="11.2507" xlink:href="#u"/><linearGradient id="u"><stop offset="0" stop-color="#fff"/><stop offset=".1375" stop-color="#fff" stop-opacity=".8625"/><stop offset="1" stop-color="#fff" stop-opacity="0"/></linearGradient><radialGradient id="v" cx="4694.3481" cy="4395.814" gradientTransform="matrix(0 1 -1 0 5224.5762 -3824.5764)" gradientUnits="userSpaceOnUse" r="11.2507" xlink:href="#u"/><radialGradient id="w" cx="4845.7568" cy="4885.4878" gradientTransform="matrix(0 1 -1 0 5224.5762 -3824.5764)" gradientUnits="userSpaceOnUse" r="11.2507" xlink:href="#u"/><radialGradient id="x" cx="4996.8203" cy="4201.0781" gradientTransform="matrix(0 1 -1 0 5224.5762 -3824.5764)" gradientUnits="userSpaceOnUse" r="11.2507" xlink:href="#u"/><radialGradient id="y" cx="4264.2671" cy="4804.9849" gradientTransform="matrix(0 1 -1 0 5224.5762 -3824.5764)" gradientUnits="userSpaceOnUse" r="11.2507" xlink:href="#u"/><radialGradient id="z" cx="4253.0161" cy="4349.7529" gradientTransform="matrix(0 1 -1 0 5224.5762 -3824.5764)" gradientUnits="userSpaceOnUse" r="11.2507" xlink:href="#u"/><radialGradient id="A" cx="4291.9346" cy="4509.8506" gradientTransform="matrix(0 1 -1 0 5224.5762 -3824.5764)" gradientUnits="userSpaceOnUse" r="11.2507" xlink:href="#u"/><radialGradient id="B" cx="4178.7915" cy="4193.6758" gradientTransform="matrix(0 1 -1 0 5224.5762 -3824.5764)" gradientUnits="userSpaceOnUse" r="11.2507" xlink:href="#u"/><radialGradient id="C" cx="4508.9131" cy="4184.4229" gradientTransform="matrix(0 1 -1 0 5224.5762 -3824.5764)" gradientUnits="userSpaceOnUse" r="11.2507" xlink:href="#u"/><radialGradient id="D" cx="4169.5386" cy="4599.0166" gradientTransform="matrix(0 1 -1 0 5224.5762 -3824.5764)" gradientUnits="userSpaceOnUse" r="11.2507" xlink:href="#u"/><radialGradient id="E" cx="4024.0554" cy="4671.3345" gradientTransform="matrix(0 1 -1 0 5224.5762 -3824.5764)" gradientUnits="userSpaceOnUse" r="11.2507" xlink:href="#u"/><radialGradient id="F" cx="4381.2778" cy="4473.0386" gradientTransform="matrix(0 1 -1 0 5224.5762 -3824.5764)" gradientUnits="userSpaceOnUse" r="5.6228" xlink:href="#u"/><radialGradient id="G" cx="4207.3452" cy="4447.1753" gradientTransform="matrix(0 1 -1 0 5224.5762 -3824.5764)" gradientUnits="userSpaceOnUse" r="5.6228" xlink:href="#u"/><radialGradient id="H" cx="4156.0269" cy="4803.9863" gradientTransform="matrix(0 1 -1 0 5224.5762 -3824.5764)" gradientUnits="userSpaceOnUse" r="5.6228" xlink:href="#u"/><radialGradient id="I" cx="4201.7222" cy="5018.0508" gradientTransform="matrix(0 1 -1 0 5224.5762 -3824.5764)" gradientUnits="userSpaceOnUse" r="5.6228" xlink:href="#u"/><radialGradient id="J" cx="4756.5977" cy="4610.2671" gradientTransform="matrix(0 1 -1 0 5224.5762 -3824.5764)" gradientUnits="userSpaceOnUse" r="5.6228" xlink:href="#u"/><radialGradient id="K" cx="4724.8408" cy="4498.3604" gradientTransform="matrix(0 1 -1 0 5224.5762 -3824.5764)" gradientUnits="userSpaceOnUse" r="5.6228" xlink:href="#u"/><radialGradient id="L" cx="4755.5991" cy="4916.6094" gradientTransform="matrix(0 1 -1 0 5224.5762 -3824.5764)" gradientUnits="userSpaceOnUse" r="5.6228" xlink:href="#u"/><radialGradient id="M" cx="4815.3223" cy="4406.499" gradientTransform="matrix(0 1 -1 0 5224.5762 -3824.5764)" gradientUnits="userSpaceOnUse" r="5.6228" xlink:href="#u"/><radialGradient id="N" cx="4840.1343" cy="4528.7949" gradientTransform="matrix(0 1 -1 0 5224.5762 -3824.5764)" gradientUnits="userSpaceOnUse" r="5.6228" xlink:href="#u"/><radialGradient id="O" cx="4994.8228" cy="4675.311" gradientTransform="matrix(0 1 -1 0 5224.5762 -3824.5764)" gradientUnits="userSpaceOnUse" r="5.6228" xlink:href="#u"/><radialGradient id="P" cx="4625.9868" cy="4580.4009" gradientTransform="matrix(0 1 -1 0 5224.5762 -3824.5764)" gradientUnits="userSpaceOnUse" r="5.6228" xlink:href="#u"/><radialGradient id="Q" cx="4832.085" cy="4231.3418" gradientTransform="matrix(0 1 -1 0 5224.5762 -3824.5764)" gradientUnits="userSpaceOnUse" r="5.6228" xlink:href="#u"/><radialGradient id="R" cx="4920.2227" cy="4281.3076" gradientTransform="matrix(0 1 -1 0 5224.5762 -3824.5764)" gradientUnits="userSpaceOnUse" r="5.6228" xlink:href="#u"/><radialGradient id="S" cx="4483.835" cy="4313.1982" gradientTransform="matrix(0 1 -1 0 5224.5762 -3824.5764)" gradientUnits="userSpaceOnUse" r="5.6228" xlink:href="#u"/><radialGradient id="T" cx="4664.439" cy="4695.5273" gradientTransform="matrix(0 1 -1 0 5224.5762 -3824.5764)" gradientUnits="userSpaceOnUse" r="11.2507" xlink:href="#u"/><radialGradient id="U" cx="4894.2646" cy="4681.8555" gradientTransform="matrix(0 1 -1 0 5224.5762 -3824.5764)" gradientUnits="userSpaceOnUse" r="11.2507" xlink:href="#u"/><radialGradient id="V" cx="4985.5698" cy="4361.0039" gradientTransform="matrix(0 1 -1 0 5224.5762 -3824.5764)" gradientUnits="userSpaceOnUse" r="11.2507" xlink:href="#u"/><radialGradient id="W" cx="4713.5898" cy="4089.8687" gradientTransform="matrix(0 1 -1 0 5224.5762 -3824.5764)" gradientUnits="userSpaceOnUse" r="11.2507" xlink:href="#u"/><radialGradient id="X" cx="4757.5957" cy="4804.9849" gradientTransform="matrix(0 1 -1 0 5224.5762 -3824.5764)" gradientUnits="userSpaceOnUse" r="11.2507" xlink:href="#u"/><radialGradient id="Y" cx="4433.3354" cy="5016.0532" gradientTransform="matrix(0 1 -1 0 5224.5762 -3824.5764)" gradientUnits="userSpaceOnUse" r="11.2507" xlink:href="#u"/><radialGradient id="Z" cx="4371.5723" cy="4725.9341" gradientTransform="matrix(0 1 -1 0 5224.5762 -3824.5764)" gradientUnits="userSpaceOnUse" r="11.2507" xlink:href="#u"/><radialGradient id="aa" cx="4510.9111" cy="4743.7231" gradientTransform="matrix(0 1 -1 0 5224.5762 -3824.5764)" gradientUnits="userSpaceOnUse" r="11.2507" xlink:href="#u"/><radialGradient id="ab" cx="4269.4331" cy="4686.5615" gradientTransform="matrix(0 1 -1 0 5224.5762 -3824.5764)" gradientUnits="userSpaceOnUse" r="11.2507" xlink:href="#u"/><radialGradient id="ac" cx="4072.584" cy="4883.4902" gradientTransform="matrix(0 1 -1 0 5224.5762 -3824.5764)" gradientUnits="userSpaceOnUse" r="11.2507" xlink:href="#u"/><radialGradient id="ad" cx="4484.8335" cy="4664.189" gradientTransform="matrix(0 1 -1 0 5224.5762 -3824.5764)" gradientUnits="userSpaceOnUse" r="7.1455" xlink:href="#u"/><radialGradient id="ae" cx="4613.2183" cy="4640.4971" gradientTransform="matrix(0 1 -1 0 5224.5762 -3824.5764)" gradientUnits="userSpaceOnUse" r="7.1455" xlink:href="#u"/><radialGradient id="af" cx="4091.8" cy="4252.5869" gradientTransform="matrix(0 1 -1 0 5224.5762 -3824.5764)" gradientUnits="userSpaceOnUse" r="7.1455" xlink:href="#u"/><radialGradient id="ag" cx="4666.4365" cy="4863.9521" gradientTransform="matrix(0 1 -1 0 5224.5762 -3824.5764)" gradientUnits="userSpaceOnUse" r="7.1455" xlink:href="#u"/><radialGradient id="ah" cx="4894.2646" cy="4840.1016" gradientTransform="matrix(0 1 -1 0 5224.5762 -3824.5764)" gradientUnits="userSpaceOnUse" r="7.1455" xlink:href="#u"/><radialGradient id="ai" cx="4974.3188" cy="4809.6094" gradientTransform="matrix(0 1 -1 0 5224.5762 -3824.5764)" gradientUnits="userSpaceOnUse" r="7.1455" xlink:href="#u"/><radialGradient id="aj" cx="4589.1577" cy="4997.6572" gradientTransform="matrix(0 1 -1 0 5224.5762 -3824.5764)" gradientUnits="userSpaceOnUse" r="7.1455" xlink:href="#u"/><radialGradient id="ak" cx="4065.4385" cy="4519.7837" gradientTransform="matrix(0 1 -1 0 5224.5762 -3824.5764)" gradientUnits="userSpaceOnUse" r="7.1455" xlink:href="#u"/><radialGradient id="al" cx="4347.4258" cy="4820.2441" gradientTransform="matrix(0 1 -1 0 5224.5762 -3824.5764)" gradientUnits="userSpaceOnUse" r="7.1455" xlink:href="#u"/><radialGradient id="am" cx="4533.5781" cy="4593.1694" gradientTransform="matrix(0 1 -1 0 5224.5762 -3824.5764)" gradientUnits="userSpaceOnUse" r="7.1455" xlink:href="#u"/><radialGradient id="an" cx="4448.2217" cy="4220.0913" gradientTransform="matrix(0 1 -1 0 5224.5762 -3824.5764)" gradientUnits="userSpaceOnUse" r="11.2507" xlink:href="#u"/><radialGradient id="ao" cx="4908.2451" cy="4929.8579" gradientTransform="matrix(0 1 -1 0 5224.5762 -3824.5764)" gradientUnits="userSpaceOnUse" r="11.2507" xlink:href="#u"/><radialGradient id="ap" cx="4987.5674" cy="5014.0552" gradientTransform="matrix(0 1 -1 0 5224.5762 -3824.5764)" gradientUnits="userSpaceOnUse" r="11.2507" xlink:href="#u"/><radialGradient id="aq" cx="3991.5649" cy="4813.0986" gradientTransform="matrix(0 1 -1 0 5224.5762 -3824.5764)" gradientUnits="userSpaceOnUse" r="11.2507" xlink:href="#u"/><radialGradient id="ar" cx="4027.6277" cy="5059.4341" gradientTransform="matrix(0 1 -1 0 5224.5762 -3824.5764)" gradientUnits="userSpaceOnUse" r="11.2507" xlink:href="#u"/><radialGradient id="as" cx="4012.8047" cy="4351.751" gradientTransform="matrix(0 1 -1 0 5224.5762 -3824.5764)" gradientUnits="userSpaceOnUse" r="11.2507" xlink:href="#u"/><radialGradient id="at" cx="4683.0972" cy="5027.3037" gradientTransform="matrix(0 1 -1 0 5224.5762 -3824.5764)" gradientUnits="userSpaceOnUse" r="11.2507" xlink:href="#u"/><radialGradient id="au" cx="4367.481" cy="4195.6733" gradientTransform="matrix(0 1 -1 0 5224.5762 -3824.5764)" gradientUnits="userSpaceOnUse" r="11.2507" xlink:href="#u"/><radialGradient id="av" cx="4526.4326" cy="4089.8687" gradientTransform="matrix(0 1 -1 0 5224.5762 -3824.5764)" gradientUnits="userSpaceOnUse" r="11.2507" xlink:href="#u"/><radialGradient id="aw" cx="4261.9028" cy="4242.5928" gradientTransform="matrix(0 1 -1 0 5224.5762 -3824.5764)" gradientUnits="userSpaceOnUse" r="11.2507" xlink:href="#u"/><radialGradient id="ax" cx="16633.223" cy="4517.6021" gradientTransform="matrix(0 .2895 -1 0 5224.5762 -4086.6375)" gradientUnits="userSpaceOnUse" r="19.241899" xlink:href="#u"/><radialGradient id="ay" cx="-15595.086" cy="5031.6465" gradientTransform="matrix(.2895 0 0 1 5221.3418 -4303.4033)" gradientUnits="userSpaceOnUse" r="19.241899" xlink:href="#u"/><radialGradient id="az" cx="15154.966" cy="4975.0698" gradientTransform="matrix(0 .2895 -1 0 5224.5762 -4086.6375)" gradientUnits="userSpaceOnUse" r="29.7325" xlink:href="#u"/><radialGradient id="aA" cx="-17175.43" cy="4603.7305" gradientTransform="matrix(.2895 0 0 1 5221.3418 -4303.4033)" gradientUnits="userSpaceOnUse" r="29.7325" xlink:href="#u"/><radialGradient id="aB" cx="15052.254" cy="4385.373" gradientTransform="matrix(0 .2895 -1 0 5224.5762 -4086.6375)" gradientUnits="userSpaceOnUse" r="29.7325" xlink:href="#u"/><radialGradient id="aC" cx="-15138.295" cy="4573.998" gradientTransform="matrix(.2895 0 0 1 5221.3418 -4303.4033)" gradientUnits="userSpaceOnUse" r="29.7325" xlink:href="#u"/><radialGradient id="aD" cx="17890.787" cy="4106.2778" gradientTransform="matrix(0 .2895 -1 0 5224.5762 -4086.6375)" gradientUnits="userSpaceOnUse" r="29.7325" xlink:href="#u"/><radialGradient id="aE" cx="-14174.147" cy="5395.6787" gradientTransform="matrix(.2895 0 0 1 5221.3418 -4303.4033)" gradientUnits="userSpaceOnUse" r="29.7325" xlink:href="#u"/><radialGradient id="aF" cx="15420.522" cy="4902.7319" gradientTransform="matrix(0 .2895 -1 0 5224.5762 -4086.6375)" gradientUnits="userSpaceOnUse" r="19.241899" xlink:href="#u"/><radialGradient id="aG" cx="-16925.533" cy="4680.6021" gradientTransform="matrix(.2895 0 0 1 5221.3418 -4303.4033)" gradientUnits="userSpaceOnUse" r="19.241899" xlink:href="#u"/><radialGradient id="aH" cx="17559.291" cy="4676.2856" gradientTransform="matrix(0 .2895 -1 0 5224.5762 -4086.6375)" gradientUnits="userSpaceOnUse" r="19.241899" xlink:href="#u"/><radialGradient id="aI" cx="-16143.265" cy="5299.7192" gradientTransform="matrix(.2895 0 0 1 5221.3418 -4303.4033)" gradientUnits="userSpaceOnUse" r="19.241899" xlink:href="#u"/><radialGradient id="aJ" cx="16866.557" cy="4774.4922" gradientTransform="matrix(0 .2895 -1 0 5224.5762 -4086.6375)" gradientUnits="userSpaceOnUse" r="19.241899" xlink:href="#u"/><radialGradient id="aK" cx="-16482.523" cy="5099.1909" gradientTransform="matrix(.2895 0 0 1 5221.3418 -4303.4033)" gradientUnits="userSpaceOnUse" r="19.241899" xlink:href="#u"/><radialGradient id="aL" cx="16071.692" cy="4574.7783" gradientTransform="matrix(0 .2895 -1 0 5224.5762 -4086.6375)" gradientUnits="userSpaceOnUse" r="19.241899" xlink:href="#u"/><radialGradient id="aM" cx="-15792.604" cy="4869.0986" gradientTransform="matrix(.2895 0 0 1 5221.3418 -4303.4033)" gradientUnits="userSpaceOnUse" r="19.241899" xlink:href="#u"/><radialGradient id="aN" cx="16699.693" cy="4871.0977" gradientTransform="matrix(0 .2895 -1 0 5224.5762 -4086.6375)" gradientUnits="userSpaceOnUse" r="19.241899" xlink:href="#u"/><radialGradient id="aO" cx="-16816.252" cy="5050.8887" gradientTransform="matrix(.2895 0 0 1 5221.3418 -4303.4033)" gradientUnits="userSpaceOnUse" r="19.241899" xlink:href="#u"/><radialGradient id="aP" cx="18061.07" cy="4512.0322" gradientTransform="matrix(0 .2895 -1 0 5224.5762 -4086.6375)" gradientUnits="userSpaceOnUse" r="19.241899" xlink:href="#u"/><radialGradient id="aQ" cx="-15575.844" cy="5444.9717" gradientTransform="matrix(.2895 0 0 1 5221.3418 -4303.4033)" gradientUnits="userSpaceOnUse" r="19.241899" xlink:href="#u"/><radialGradient id="aR" cx="17188.609" cy="4244.9609" gradientTransform="matrix(0 .2895 -1 0 5224.5762 -4086.6375)" gradientUnits="userSpaceOnUse" r="19.241899" xlink:href="#u"/><radialGradient id="aS" cx="-14653.234" cy="5192.417" gradientTransform="matrix(.2895 0 0 1 5221.3418 -4303.4033)" gradientUnits="userSpaceOnUse" r="19.241899" xlink:href="#u"/><radialGradient id="aT" cx="15143.32" cy="4682.5854" gradientTransform="matrix(0 .2895 -1 0 5224.5762 -4086.6375)" gradientUnits="userSpaceOnUse" r="19.241899" xlink:href="#u"/><radialGradient id="aU" cx="-16165.027" cy="4600.3594" gradientTransform="matrix(.2895 0 0 1 5221.3418 -4303.4033)" gradientUnits="userSpaceOnUse" r="19.241899" xlink:href="#u"/><radialGradient id="aV" cx="17652.088" cy="4368.1597" gradientTransform="matrix(0 .2895 -1 0 5224.5762 -4086.6375)" gradientUnits="userSpaceOnUse" r="19.241899" xlink:href="#u"/><radialGradient id="aW" cx="-15078.83" cy="5326.5815" gradientTransform="matrix(.2895 0 0 1 5221.3418 -4303.4033)" gradientUnits="userSpaceOnUse" r="19.241899" xlink:href="#u"/><radialGradient id="aX" cx="3957.2905" cy="4201.0781" gradientTransform="matrix(0 1 -1 0 5224.5762 -3824.5764)" gradientUnits="userSpaceOnUse" r="11.2507" xlink:href="#u"/><radialGradient id="aY" cx="3955.2927" cy="4675.311" gradientTransform="matrix(0 1 -1 0 5224.5762 -3824.5764)" gradientUnits="userSpaceOnUse" r="5.6228" xlink:href="#u"/><radialGradient id="aZ" cx="3880.6929" cy="4281.3076" gradientTransform="matrix(0 1 -1 0 5224.5762 -3824.5764)" gradientUnits="userSpaceOnUse" r="5.6228" xlink:href="#u"/><radialGradient id="a0" cx="3854.7346" cy="4681.8555" gradientTransform="matrix(0 1 -1 0 5224.5762 -3824.5764)" gradientUnits="userSpaceOnUse" r="11.2507" xlink:href="#u"/><radialGradient id="a1" cx="3946.0398" cy="4361.0039" gradientTransform="matrix(0 1 -1 0 5224.5762 -3824.5764)" gradientUnits="userSpaceOnUse" r="11.2507" xlink:href="#u"/><radialGradient id="a2" cx="3854.7346" cy="4840.1016" gradientTransform="matrix(0 1 -1 0 5224.5762 -3824.5764)" gradientUnits="userSpaceOnUse" r="7.1455" xlink:href="#u"/><radialGradient id="a3" cx="3934.7891" cy="4809.6094" gradientTransform="matrix(0 1 -1 0 5224.5762 -3824.5764)" gradientUnits="userSpaceOnUse" r="7.1455" xlink:href="#u"/><radialGradient id="a4" cx="3868.7151" cy="4929.8579" gradientTransform="matrix(0 1 -1 0 5224.5762 -3824.5764)" gradientUnits="userSpaceOnUse" r="11.2507" xlink:href="#u"/><radialGradient id="a5" cx="14299.684" cy="4106.2778" gradientTransform="matrix(0 .2895 -1 0 5224.5762 -4086.6375)" gradientUnits="userSpaceOnUse" r="29.7325" xlink:href="#u"/><radialGradient id="a6" cx="-14174.147" cy="4356.1484" gradientTransform="matrix(.2895 0 0 1 5221.3418 -4303.4033)" gradientUnits="userSpaceOnUse" r="29.7325" xlink:href="#u"/><radialGradient id="a7" cx="14469.968" cy="4512.0322" gradientTransform="matrix(0 .2895 -1 0 5224.5762 -4086.6375)" gradientUnits="userSpaceOnUse" r="19.241899" xlink:href="#u"/><radialGradient id="a8" cx="-15575.844" cy="4405.4414" gradientTransform="matrix(.2895 0 0 1 5221.3418 -4303.4033)" gradientUnits="userSpaceOnUse" r="19.241899" xlink:href="#u"/><radialGradient id="a9" cx="16783.117" cy="4155.2524" gradientTransform="matrix(0 .2895 -1 0 5224.5762 -4086.6375)" gradientUnits="userSpaceOnUse" r="19.241899" xlink:href="#u"/><radialGradient id="ba" cx="-14343.332" cy="5075.0371" gradientTransform="matrix(.2895 0 0 1 5221.3418 -4303.4033)" gradientUnits="userSpaceOnUse" r="19.241899" xlink:href="#u"/><radialGradient id="bb" cx="15184.698" cy="4089.8687" gradientTransform="matrix(0 .2895 -1 0 5224.5762 -4086.6375)" gradientUnits="userSpaceOnUse" r="19.241899" xlink:href="#u"/><radialGradient id="bc" cx="-14117.461" cy="4612.3369" gradientTransform="matrix(.2895 0 0 1 5221.3418 -4303.4033)" gradientUnits="userSpaceOnUse" r="19.241899" xlink:href="#u"/><radialGradient id="bd" cx="14799.68" cy="4114.8848" gradientTransform="matrix(0 .2895 -1 0 5224.5762 -4086.6375)" gradientUnits="userSpaceOnUse" r="19.241899" xlink:href="#u"/><radialGradient id="be" cx="-14203.88" cy="4500.8843" gradientTransform="matrix(.2895 0 0 1 5221.3418 -4303.4033)" gradientUnits="userSpaceOnUse" r="19.241899" xlink:href="#u"/><radialGradient id="bf" cx="4250.4473" cy="5175.2676" gradientTransform="matrix(0 -1 1 0 -5135.66355 5025.32025)" gradientUnits="userSpaceOnUse" r="11.2507" xlink:href="#u"/><radialGradient id="bg" cx="4903.7407" cy="5212.9341" gradientTransform="matrix(0 -1 1 0 -5135.66355 5025.32025)" gradientUnits="userSpaceOnUse" r="5.6228" xlink:href="#u"/><radialGradient id="bh" cx="4991.8784" cy="5262.8999" gradientTransform="matrix(0 -1 1 0 -5135.66355 5025.32025)" gradientUnits="userSpaceOnUse" r="5.6228" xlink:href="#u"/><radialGradient id="bi" cx="4163.4556" cy="5234.1792" gradientTransform="matrix(0 -1 1 0 -5135.66355 5025.32025)" gradientUnits="userSpaceOnUse" r="7.1455" xlink:href="#u"/><radialGradient id="bj" cx="4333.5586" cy="5224.1846" gradientTransform="matrix(0 -1 1 0 -5135.66355 5025.32025)" gradientUnits="userSpaceOnUse" r="11.2507" xlink:href="#u"/><radialGradient id="bk" cx="17436.146" cy="5226.5532" gradientTransform="matrix(0 -.2895 1 0 -5135.6636 5287.3813)" gradientUnits="userSpaceOnUse" r="19.241899" xlink:href="#u"/><radialGradient id="bl" cx="-18044.189" cy="5264.0723" gradientTransform="matrix(-.2895 0 0 -1 -5132.4292 5504.147)" gradientUnits="userSpaceOnUse" r="19.241899" xlink:href="#u"/><radialGradient id="bm" cx="4028.946" cy="5182.6704" gradientTransform="matrix(0 -1 1 0 -5135.66355 5025.32025)" gradientUnits="userSpaceOnUse" r="11.2507" xlink:href="#u"/><radialGradient id="bn" cx="3864.2109" cy="5212.9341" gradientTransform="matrix(0 -1 1 0 -5135.66355 5025.32025)" gradientUnits="userSpaceOnUse" r="5.6228" xlink:href="#u"/><radialGradient id="bo" cx="3952.3484" cy="5262.8999" gradientTransform="matrix(0 -1 1 0 -5135.66355 5025.32025)" gradientUnits="userSpaceOnUse" r="5.6228" xlink:href="#u"/><radialGradient id="bp" cx="4358.6768" cy="4918.6069" gradientTransform="matrix(0 1 -1 0 5224.5762 -3824.5764)" gradientUnits="userSpaceOnUse" r="11.2507" xlink:href="#u"/><radialGradient id="bq" cx="5075.5581" cy="4804.9849" gradientTransform="matrix(0 1 -1 0 5224.5762 -3824.5764)" gradientUnits="userSpaceOnUse" r="11.2507" xlink:href="#u"/><radialGradient id="br" cx="5064.3071" cy="4349.7529" gradientTransform="matrix(0 1 -1 0 5224.5762 -3824.5764)" gradientUnits="userSpaceOnUse" r="11.2507" xlink:href="#u"/><radialGradient id="bs" cx="5103.2256" cy="4509.8506" gradientTransform="matrix(0 1 -1 0 5224.5762 -3824.5764)" gradientUnits="userSpaceOnUse" r="11.2507" xlink:href="#u"/><radialGradient id="bt" cx="5192.5688" cy="4473.0386" gradientTransform="matrix(0 1 -1 0 5224.5762 -3824.5764)" gradientUnits="userSpaceOnUse" r="5.6228" xlink:href="#u"/><radialGradient id="bu" cx="5182.8633" cy="4725.9341" gradientTransform="matrix(0 1 -1 0 5224.5762 -3824.5764)" gradientUnits="userSpaceOnUse" r="11.2507" xlink:href="#u"/><radialGradient id="bv" cx="5080.7241" cy="4686.5615" gradientTransform="matrix(0 1 -1 0 5224.5762 -3824.5764)" gradientUnits="userSpaceOnUse" r="11.2507" xlink:href="#u"/><radialGradient id="bw" cx="5158.7168" cy="4820.2441" gradientTransform="matrix(0 1 -1 0 5224.5762 -3824.5764)" gradientUnits="userSpaceOnUse" r="7.1455" xlink:href="#u"/><radialGradient id="bx" cx="5143.9321" cy="5055.4385" gradientTransform="matrix(0 1 -1 0 5224.5762 -3824.5764)" gradientUnits="userSpaceOnUse" r="11.2507" xlink:href="#u"/><radialGradient id="by" cx="5073.1938" cy="4242.5928" gradientTransform="matrix(0 1 -1 0 5224.5762 -3824.5764)" gradientUnits="userSpaceOnUse" r="11.2507" xlink:href="#u"/><radialGradient id="bz" cx="18862.688" cy="4376.7666" gradientTransform="matrix(0 .2895 -1 0 5224.5762 -4086.6375)" gradientUnits="userSpaceOnUse" r="29.7325" xlink:href="#u"/><radialGradient id="bA" cx="-15108.562" cy="5677.0186" gradientTransform="matrix(.2895 0 0 1 5221.3418 -4303.4033)" gradientUnits="userSpaceOnUse" r="29.7325" xlink:href="#u"/><radialGradient id="bB" cx="18223.164" cy="4902.7319" gradientTransform="matrix(0 .2895 -1 0 5224.5762 -4086.6375)" gradientUnits="userSpaceOnUse" r="19.241899" xlink:href="#u"/><radialGradient id="bC" cx="-16925.533" cy="5491.8931" gradientTransform="matrix(.2895 0 0 1 5221.3418 -4303.4033)" gradientUnits="userSpaceOnUse" r="19.241899" xlink:href="#u"/><radialGradient id="bD" cx="18874.334" cy="4574.7783" gradientTransform="matrix(0 .2895 -1 0 5224.5762 -4086.6375)" gradientUnits="userSpaceOnUse" r="19.241899" xlink:href="#u"/><radialGradient id="bE" cx="-15792.604" cy="5680.3896" gradientTransform="matrix(.2895 0 0 1 5221.3418 -4303.4033)" gradientUnits="userSpaceOnUse" r="19.241899" xlink:href="#u"/><radialGradient id="bF" cx="4169.5386" cy="3879.4983" gradientTransform="matrix(0 1 -1 0 5224.5762 -3824.5764)" gradientUnits="userSpaceOnUse" r="11.2507" xlink:href="#u"/><radialGradient id="bG" cx="4024.0554" cy="3951.8164" gradientTransform="matrix(0 1 -1 0 5224.5762 -3824.5764)" gradientUnits="userSpaceOnUse" r="11.2507" xlink:href="#u"/><radialGradient id="bH" cx="4756.5977" cy="3890.749" gradientTransform="matrix(0 1 -1 0 5224.5762 -3824.5764)" gradientUnits="userSpaceOnUse" r="5.6228" xlink:href="#u"/><radialGradient id="bI" cx="4625.9868" cy="3860.8828" gradientTransform="matrix(0 1 -1 0 5224.5762 -3824.5764)" gradientUnits="userSpaceOnUse" r="5.6228" xlink:href="#u"/><radialGradient id="bJ" cx="4664.439" cy="3976.0093" gradientTransform="matrix(0 1 -1 0 5224.5762 -3824.5764)" gradientUnits="userSpaceOnUse" r="11.2507" xlink:href="#u"/><radialGradient id="bK" cx="4894.2646" cy="3962.3374" gradientTransform="matrix(0 1 -1 0 5224.5762 -3824.5764)" gradientUnits="userSpaceOnUse" r="11.2507" xlink:href="#u"/><radialGradient id="bL" cx="4371.5723" cy="4006.416" gradientTransform="matrix(0 1 -1 0 5224.5762 -3824.5764)" gradientUnits="userSpaceOnUse" r="11.2507" xlink:href="#u"/><radialGradient id="bM" cx="4510.9111" cy="4024.2048" gradientTransform="matrix(0 1 -1 0 5224.5762 -3824.5764)" gradientUnits="userSpaceOnUse" r="11.2507" xlink:href="#u"/><radialGradient id="bN" cx="4269.4331" cy="3967.0435" gradientTransform="matrix(0 1 -1 0 5224.5762 -3824.5764)" gradientUnits="userSpaceOnUse" r="11.2507" xlink:href="#u"/><radialGradient id="bO" cx="4484.8335" cy="3944.6709" gradientTransform="matrix(0 1 -1 0 5224.5762 -3824.5764)" gradientUnits="userSpaceOnUse" r="7.1455" xlink:href="#u"/><radialGradient id="bP" cx="4613.2183" cy="3920.979" gradientTransform="matrix(0 1 -1 0 5224.5762 -3824.5764)" gradientUnits="userSpaceOnUse" r="7.1455" xlink:href="#u"/><radialGradient id="bQ" cx="4533.5781" cy="3873.6511" gradientTransform="matrix(0 1 -1 0 5224.5762 -3824.5764)" gradientUnits="userSpaceOnUse" r="7.1455" xlink:href="#u"/><radialGradient id="bR" cx="17559.291" cy="3956.7673" gradientTransform="matrix(0 .2895 -1 0 5224.5762 -4086.6375)" gradientUnits="userSpaceOnUse" r="19.241899" xlink:href="#u"/><radialGradient id="bS" cx="-13657.657" cy="5299.7192" gradientTransform="matrix(.2895 0 0 1 5221.3418 -4303.4033)" gradientUnits="userSpaceOnUse" r="19.241899" xlink:href="#u"/><radialGradient id="bT" cx="16071.692" cy="3855.26" gradientTransform="matrix(0 .2895 -1 0 5224.5762 -4086.6375)" gradientUnits="userSpaceOnUse" r="19.241899" xlink:href="#u"/><radialGradient id="bU" cx="-13306.996" cy="4869.0986" gradientTransform="matrix(.2895 0 0 1 5221.3418 -4303.4033)" gradientUnits="userSpaceOnUse" r="19.241899" xlink:href="#u"/><radialGradient id="bV" cx="15143.32" cy="3963.0671" gradientTransform="matrix(0 .2895 -1 0 5224.5762 -4086.6375)" gradientUnits="userSpaceOnUse" r="19.241899" xlink:href="#u"/><radialGradient id="bW" cx="-13679.42" cy="4600.3594" gradientTransform="matrix(.2895 0 0 1 5221.3418 -4303.4033)" gradientUnits="userSpaceOnUse" r="19.241899" xlink:href="#u"/><radialGradient id="bX" cx="3955.2927" cy="3955.7927" gradientTransform="matrix(0 1 -1 0 5224.5762 -3824.5764)" gradientUnits="userSpaceOnUse" r="5.6228" xlink:href="#u"/><radialGradient id="bY" cx="3854.7346" cy="3962.3374" gradientTransform="matrix(0 1 -1 0 5224.5762 -3824.5764)" gradientUnits="userSpaceOnUse" r="11.2507" xlink:href="#u"/><radialGradient id="bZ" cx="3769.2778" cy="5166.0146" gradientTransform="matrix(0 -1 1 0 -5135.66355 5025.32025)" gradientUnits="userSpaceOnUse" r="11.2507" xlink:href="#u"/><radialGradient id="b0" cx="3744.1997" cy="5294.7905" gradientTransform="matrix(0 -1 1 0 -5135.66355 5025.32025)" gradientUnits="userSpaceOnUse" r="5.6228" xlink:href="#u"/><radialGradient id="b1" cx="3708.5862" cy="5201.6836" gradientTransform="matrix(0 -1 1 0 -5135.66355 5025.32025)" gradientUnits="userSpaceOnUse" r="11.2507" xlink:href="#u"/><radialGradient id="b2" cx="3627.8457" cy="5177.2656" gradientTransform="matrix(0 -1 1 0 -5135.66355 5025.32025)" gradientUnits="userSpaceOnUse" r="11.2507" xlink:href="#u"/><radialGradient id="b3" cx="5169.9678" cy="4918.6069" gradientTransform="matrix(0 1 -1 0 5224.5762 -3824.5764)" gradientUnits="userSpaceOnUse" r="11.2507" xlink:href="#u"/><filter id="b4" color-interpolation-filters="sRGB" height="1.097429" width="1.094614" x="-.047307" y="-.048714"><feGaussianBlur stdDeviation="2.6076223"/></filter><g><g mask="url(#o)" stroke-width=".094494"><path d="m-16.763244-16.763244c-67.65774 67.657739-96.043756 148.969874-63.396059 181.617564 32.647695 32.64769 113.959825 4.26168 181.617563-63.39606 67.65774-67.657738 96.04375-148.969868 63.39606-181.617563-32.64769-32.647697-113.959825-4.261681-181.617564 63.396059z" fill="url(#r)" opacity=".3"/><path d="m30.833409 30.833409c-67.65774 67.657739-96.043753 148.969871-63.396059 181.617561 32.64769465 32.6477 113.959825 4.26168 181.61756-63.39606 67.65774-67.657735 96.04376-148.96986535 63.39606-181.61756-32.64769-32.647694-113.959822-4.261681-181.617561 63.396059z" fill="url(#s)" opacity=".3"/><g clip-rule="evenodd" fill-rule="evenodd" filter="url(#b4)" opacity=".5" stroke-width="1.09529" transform="matrix(.9132105 0 0 .91279111 5.740761 5.768512)"><path d="m53.761677 59.223648c2.777292-16.171561 24.397965-18.140273 33.257168-5.343647 2.953068 4.92178 2.953068 8.859203 3.937424 13.780982 0 7.874847-3.937424 13.780982-10.827915 18.702762-2.953067 2.953067-6.890491 2.953067-9.843558 3.937423-18.702762 2.953068-34.452455-12.796626-31.499388-31.499387 1.968712-7.874847 5.906135-15.749694 12.796626-20.671473 11.812271-7.874847 25.593253-7.874847 36.421167-.984356 4.921779 2.953067 7.874847 5.906135 10.827914 10.827914 16.734055 26.577608-6.890491 58.041844-35.43681 55.088774-5.906136 0-10.827915-2.95307-16.73405-4.92178-5.906135-3.937424-11.81227-9.843559-15.749694-15.749694-10.827917-20.671473-1.968711-45.245214 17.718406-57.057485 6.890491-2.953067 13.780982-5.906135 21.655829-5.906135 9.843558 0 18.702761 2.953068 26.577608 8.859203 8.859206 6.890491 13.780986 15.749694 17.718406 25.593252 1.96871 3.937424.98436 8.859203 1.96871 13.780982 0 31.499388-33.468098 57.057487-63.947975 46.229567-7.874847-3.93742-16.734049-6.89049-23.62454-13.78098-5.906135-7.874845-11.812271-15.749692-13.780982-25.593251-.984356-6.890491-1.968712-11.81227-.984356-18.702761 4.921779-40.358591 50.166993-61.9792645 84.619448-41.342947 5.906135 3.937424 11.812275 7.874847 15.749695 13.780982 7.87485 9.843559 11.81227 19.687118 13.78098 31.499388 4.92178 36.421167-25.59325 68.869759-60.994907 68.869759-7.874847 0-16.734049-2.95307-24.608896-4.92178-9.843559-3.93743-18.702762-8.85921-25.593253-17.71841-4.921779-6.89049-7.8748465-13.780981-11.8122699-21.655827-2.9530676-8.859203-4.92177929-18.702762-3.9374234-27.561964 1.9687117-11.812271 4.9217793-22.640186 11.8122703-31.499389-25.558097 29.565832-11.7771151 78.78362 21.655829 96.50203 5.906135 3.93742 12.796626 4.92178 18.702761 6.89049 23.624541 5.90614 47.213929-3.93742 61.979269-20.67147 3.93742-3.93743 4.92177-8.859204 7.87484-13.780984 12.79663-18.702761 8.8592-40.35859-.98435-60.010552-13.78099-23.624541-42.327306-34.45245535-69.854115-26.5776083-16.734049 4.9217793-30.515031 16.7340493-37.405522 33.4680993-1.968712 7.874847-3.937424 15.749694-3.937424 23.624541 0 9.843558 2.953068 18.702761 7.874847 27.561964 3.937424 5.906135 6.890491 10.82791 12.796626 14.76534 4.92178 2.95307 8.859203 4.92178 13.780982 7.87484 8.859203 2.95307 18.702762 4.92178 29.530676 3.93743 32.48374-4.92178 53.12006-39.374236 41.34295-70.838469-3.93743-7.874846-7.87485-15.749693-14.76534-20.671472-14.76534-10.827915-31.499389-13.780983-49.18264-7.874847-26.577608 10.827914-39.374234 41.342946-23.62454 64.932331 2.953067 4.921779 4.921779 8.859203 8.859203 12.796626 14.765337 10.827911 34.452455 14.765341 50.166993 4.921781 3.937424-3.937425 8.859203-4.921781 11.81227-9.84356 11.812274-17.718406 11.812274-41.342946-4.921779-56.073129-16.734049-14.765337-46.22957-10.827914-57.057484 9.843559-1.968712 5.906135-4.92178 10.827914-3.937424 17.718405 0 5.906135 2.953068 10.827915 3.937424 15.749694 6.890491 14.765338 25.593252 19.687117 40.35859 14.765338 4.921779-2.953068 10.827914-4.92178 13.780982-9.843559 12.796625-18.702761 1.968712-47.213926-22.640185-46.22957-5.906135 0-11.81227 3.937423-16.73405 6.890491-7.874846 5.906135-8.859202 14.765338-7.874846 23.624541 2.953067 12.796626 16.734049 18.702761 29.530675 15.749693 5.906136-1.968711 9.843559-7.874847 11.812271-13.780982.984356-6.890491-.984356-12.796626-5.906135-17.718405-8.859203-8.859203-23.624541-1.968712-25.593253 9.843558.984356 4.92178 3.937424 9.843559 7.874847 13.780982-2.953068.984356-3.937423-1.968711-4.886624-2.917909-1.863246-2.320269-4.042889-6.890491-3.831958-14.448939z" fill="#371c4a"/><path d="m54.746033 59.715826c2.531203-14.870806 22.429254-16.663739 30.585345-4.921779 2.706978 4.535067 2.706978 8.120936 3.621024 12.656003 0 7.242048-3.621024 12.656005-9.949027 17.191072-2.706979 2.706979-6.328003 2.706979-9.034981 3.621024-17.191073 2.706979-31.640009-11.74196-28.93303-28.933032 1.792933-7.242046 5.413957-14.484094 11.741957-18.984006 10.863073-7.242044 23.519075-7.242044 33.468102-.914045 4.535067 2.706978 7.242046 5.413957 9.949024 9.949027 15.362983 24.433117-6.328002 53.36615-32.554053 50.62402-5.413958 0-9.949027-2.706983-15.362985-4.535074-5.413957-3.621024-10.863069-9.034981-14.484093-14.484093-9.949024-18.984006-1.792933-41.589035 16.277027-52.452104 6.328002-2.706979 12.656005-5.413957 19.898051-5.413957 9.034981 0 17.191072 2.706978 24.397965 8.156091 8.120931 6.328002 12.656001 14.484093 16.277031 23.519074 1.79293 3.621024.91404 8.120936 1.79293 12.656003 0 28.933032-30.761122 52.45211-58.780108 42.50308-7.242046-3.62102-15.362982-6.328-21.690985-12.656003-5.413957-7.242048-10.863069-14.484093-12.656005-23.519075-.914043-6.328002-1.792933-10.863069-.914043-17.191072 4.535067-37.053966 46.124102-56.95201798 77.764113-37.968011 5.413958 3.621024 10.863068 7.242047 14.484098 12.656004 7.24204 9.03498 10.86307 18.069961 12.656 28.933031 4.53507 33.468099-23.519074 63.315176-56.07313 63.315176-7.242046 0-15.362982-2.70698-22.60503-4.53507-9.034978-3.62102-17.191072-8.15609-23.519072-16.27703-4.53507-6.327998-7.242048-12.656001-10.863072-19.898046-2.7069791-8.120936-4.5350674-17.191073-3.6210219-25.312009 1.7929331-10.863069 4.5350669-20.812096 10.8630699-28.933031-23.5190753 27.140096-10.8630699 72.350156 19.898051 88.627186 5.413957 3.62102 11.74196 4.53507 17.191072 6.328 21.690984 5.41396 43.417123-3.62102 56.952013-18.98401 3.62103-3.62102 4.53507-8.120933 7.24205-12.656 11.74196-17.191072 8.12094-37.089123-.91404-55.159086-12.65601-21.690983-38.88206-31.640008-64.194068-24.397961-15.362982 4.535068-28.018987 15.362984-34.34699 30.761119-1.792933 7.242048-3.621021 14.484094-3.621021 21.690984 0 9.034981 2.706978 17.191073 7.242045 25.312008 3.621024 5.413958 6.328003 9.949026 11.74196 13.570056 4.535067 2.70697 8.120936 4.53506 12.656003 7.24204 8.156091 2.70698 17.191072 4.53507 27.140099 3.62102 29.847072-4.53506 48.831082-36.175073 37.968012-65.108105-3.62103-7.242048-7.24205-14.484093-13.570049-18.984005-13.570049-9.949026-28.933033-12.656004-45.210059-7.242047-24.397963 9.949026-36.175078 37.968012-21.690985 59.694151 2.706979 4.535067 4.535067 8.120936 8.156091 11.74196 13.570049 9.949026 31.640011 13.570046 46.124105 4.535067 3.621022-3.621022 8.156091-4.535067 10.86307-9.034981 10.863067-16.277027 10.863067-37.968011-4.53507-51.53806-15.398136-13.640359-42.538236-10.019336-52.48726 8.964669-1.792933 5.413957-4.535069 9.949026-3.621024 16.277029 0 5.413957 2.706979 9.949024 3.621024 14.484091 6.328003 13.570051 23.519075 18.069963 37.089124 13.570051 4.535066-2.706978 9.949024-4.535069 12.656002-9.034981 11.741961-17.191073 1.792933-43.417126-20.812093-42.503081-5.413958 0-10.863073 3.621024-15.362984 6.328003-7.242046 5.413957-8.120936 13.570048-7.242046 21.690984 2.706979 11.74196 15.362981 17.191072 27.140096 14.484094 5.413958-1.792933 9.034982-7.242048 10.86307-12.656006.914046-6.328-.914045-11.741957-5.413957-16.277026-8.120936-8.156091-21.690984-1.792934-23.519075 9.034981.914045 4.535067 3.621024 9.034981 7.242048 12.656003-2.706979.914045-3.621024-1.792934-4.499912-2.671821-1.687467-2.07418-3.691334-6.257692-3.480403-13.218494z" fill="#c1c0be"/><path d="m53.972611 70.016407c-9.492002-13.394272 4.429601-30.093166 19.722275-27.315875 5.554578 1.406221 8.331867 4.183513 12.515379 6.960802 5.554581 5.554578 6.960804 12.515382 5.554581 20.882407 0 4.183512-2.777289 6.960801-4.183513 9.73809-11.144313 15.292674-33.397788 15.292674-44.542102 0-4.183513-6.960801-6.960802-15.292671-5.554581-23.659696 2.777292-13.921603 12.515382-23.659695 25.030764-26.436984 5.554581-1.406223 9.738093-1.406223 15.292671 0 30.620505 6.960801 36.175075 45.913168 13.921606 64.018285-4.183513 4.183513-9.738093 5.554581-15.292671 8.331874-6.960804 1.40622-15.292671 1.40622-22.253475 0-22.253473-6.960805-33.397789-30.620504-27.843209-52.873976 2.777289-6.960802 5.554581-13.921605 11.144314-19.476183 6.960804-6.960803 15.292671-11.144315 25.030764-12.515382 11.144314-1.406223 20.882407 1.406223 30.6205 5.554579 4.183512 1.406223 6.960806 5.55458 11.144316 8.331869 22.25347 22.253474 16.69889 64.018288-12.515384 77.939893-8.33187 2.77729-16.698895 6.9608-26.436985 6.9608-9.738093-1.40622-19.476186-2.77729-27.843211-8.36702-5.554578-4.18352-9.73809-6.96081-13.921603-12.515385-25.0307635-31.991566-8.331869-79.310959 30.620498-89.0490509 6.960804-1.4062226 13.921605-2.7772898 20.882406-1.4062226 12.515382 1.4062226 22.253475 5.5545795 31.991569 12.5153815 29.21427 22.253473 30.6205 66.795575 5.55458 91.826337-5.55458 5.55458-13.921608 9.7381-20.882409 13.92161-9.738093 4.18351-19.476184 6.9608-30.6205 5.55458-8.33187-1.40623-15.292671-4.18352-23.659696-6.96081-8.33187-4.18351-16.698894-9.73809-22.253472-16.69889-6.9608043-9.738091-12.5153823-19.476184-13.9216057-30.620497 2.847602 39.022677 47.3897047 64.088597 83.5647827 52.944287 6.960801-1.40623 12.515382-5.55459 18.10512-8.33187 20.8824-12.51539 30.62049-36.175082 29.21427-58.428557 0-5.554578-2.77729-9.738091-4.18351-15.292671-4.18351-22.253473-22.25347-34.80401-43.13588-41.7296565-26.436988-6.9608025-54.280196 5.5545796-68.201801 30.6204985-8.3318673 15.29267-9.7380907 33.397788-2.777289 50.096682 4.183512 6.960802 8.331869 13.921603 13.921605 19.476184 6.960801 6.9608 15.292671 11.14431 25.030764 13.92161 6.960801 1.40622 12.515382 2.77728 19.476183 1.40622 5.554578-1.40622 9.738091-2.77729 15.292671-4.18352 8.33187-4.18351 16.698897-9.73809 23.659697-18.105112 19.47619-26.436987 9.73809-65.389353-20.882408-79.310958-8.331869-2.77729-16.698894-5.554579-25.030761-4.183513-18.105118 2.77729-31.991568 12.515382-40.358593 29.214276-11.144314 26.436985 1.406224 57.057484 29.214277 62.612067 5.55458 1.40622 9.738093 2.77729 15.292671 2.77729 18.105117-2.77729 34.804014-13.921608 38.952374-31.991568 0-5.554581 2.77728-9.738093 1.40622-15.292671-4.18351-20.882407-20.882408-37.581302-43.135883-36.175079-22.253473 1.406223-40.358591 25.030762-33.397789 47.319392 2.777291 5.554578 4.183512 11.144314 9.738093 15.292671 4.183512 4.183513 9.73809 5.554581 13.921603 8.33187 15.292673 5.554585 31.991568-4.183512 38.952369-18.105118 1.406223-5.554578 4.183517-11.144314 2.777289-16.698894-4.183512-22.253473-31.991565-34.804009-48.69046-16.698895-4.148357 4.148358-5.519423 11.109162-6.925646 16.66374-1.406223 9.738093 4.183512 16.698894 11.144314 22.253475 11.144316 6.960801 25.030764 1.40622 31.991565-9.738093 2.777292-5.554578 1.406224-12.515382-1.406221-18.105118-4.183512-5.554578-9.738093-8.331867-16.698894-8.331867-12.515382 0-18.105118 15.292671-11.144316 25.030761 4.183515 2.777292 9.738093 4.183513 15.292673 4.183513-1.406223 2.777291-4.183512 1.406223-5.519425 1.406223-2.812444-.281244-7.558445-1.968712-12.761471-7.488135z" fill="#1a1320"/></g></g></g><g stroke-width="1.30192" transform="matrix(.7636894 .10587592 -.10670797 .75773456 229.12691 32.147149)"><path d="m-257.87695 31.652344a5.5120143 5.5120143 0 0 0 -5.51172 5.511718v109.537108a5.5120143 5.5120143 0 0 0 5.51172 5.51172h7.93945a5.5120143 5.5120143 0 0 0 5.51172-5.51172v-109.537108a5.5120143 5.5120143 0 0 0 -5.51172-5.511718zm12.69922 0a5.5120143 5.5120143 0 0 0 -5.51172 5.511718v101.070308a5.5120143 5.5120143 0 0 0 5.51172 5.51172h7.93945a5.5120143 5.5120143 0 0 0 5.51172-5.51172v-101.070308a5.5120143 5.5120143 0 0 0 -5.51172-5.511718zm12.70117 0a5.5120143 5.5120143 0 0 0 -5.51172 5.511718v88.371098a5.5120143 5.5120143 0 0 0 5.51172 5.51171h7.9375a5.5120143 5.5120143 0 0 0 5.51172-5.51171v-88.371098a5.5120143 5.5120143 0 0 0 -5.51172-5.511718zm12.69922 0a5.5120143 5.5120143 0 0 0 -5.51172 5.511718v79.904298a5.5120143 5.5120143 0 0 0 5.51172 5.51172h7.93945a5.5120143 5.5120143 0 0 0 5.51172-5.51172v-79.904298a5.5120143 5.5120143 0 0 0 -5.51172-5.511718zm12.69922 0a5.5120143 5.5120143 0 0 0 -5.51172 5.511718v71.437498a5.5120143 5.5120143 0 0 0 5.51172 5.51172h7.93945a5.5120143 5.5120143 0 0 0 5.51172-5.51172v-71.437498a5.5120143 5.5120143 0 0 0 -5.51172-5.511718zm12.70312 0a5.5120143 5.5120143 0 0 0 -5.51172 5.511718v62.970708a5.5120143 5.5120143 0 0 0 5.51172 5.51171h7.93945a5.5120143 5.5120143 0 0 0 5.50977-5.51171v-62.970708a5.5120143 5.5120143 0 0 0 -5.50977-5.511718zm12.69727 0a5.5120143 5.5120143 0 0 0 -5.51172 5.511718v54.503907a5.5120143 5.5120143 0 0 0 5.51172 5.511718h7.93945a5.5120143 5.5120143 0 0 0 5.51172-5.511718v-54.503907a5.5120143 5.5120143 0 0 0 -5.51172-5.511718zm12.70117 0a5.5120143 5.5120143 0 0 0 -5.51172 5.511718v46.03711a5.5120143 5.5120143 0 0 0 5.51172 5.511719h7.9375a5.5120143 5.5120143 0 0 0 5.51172-5.511719v-46.03711a5.5120143 5.5120143 0 0 0 -5.51172-5.511718zm12.69922 0a5.5120143 5.5120143 0 0 0 -5.51172 5.511718v41.804688a5.5120143 5.5120143 0 0 0 5.51172 5.511719h7.93945a5.5120143 5.5120143 0 0 0 5.51172-5.511719v-41.804688a5.5120143 5.5120143 0 0 0 -5.51172-5.511718zm12.70117 0a5.5120143 5.5120143 0 0 0 -5.51172 5.511718v37.570313a5.5120143 5.5120143 0 0 0 5.51172 5.511719h7.93945a5.5120143 5.5120143 0 0 0 5.51172-5.511719v-37.570313a5.5120143 5.5120143 0 0 0 -5.51172-5.511718z" fill="#7f7e75" stroke-linecap="square" stroke-linejoin="round"/><path d="m-143.57565 37.16421v37.570835h7.93938v-37.570835z" fill="url(#e)"/><path d="m-156.27753 37.16421v41.804168h7.93938v-41.804168z" fill="url(#f)"/><path d="m-168.97753 37.16421v46.037502h7.93938v-46.037502z" fill="url(#g)"/><path d="m-181.6772 37.16421v54.504169h7.93938v-54.504169z" fill="url(#h)"/><path d="m-194.37565 37.16421v62.97084h7.93938v-62.97084z" fill="url(#i)"/><path d="m-207.07753 37.16421v71.4375h7.93938v-71.4375z" fill="url(#j)"/><path d="m-219.77753 37.16421v79.90417h7.93938v-79.90417z" fill="url(#k)"/><path d="m-232.47753 37.16421v88.37084h7.93938v-88.37084z" fill="url(#l)"/><path d="m-245.17753 37.16421v101.07084h7.93938v-101.07084z" fill="url(#m)"/><path d="m-257.87753 37.16421v109.53751h7.93938v-109.53751z" fill="url(#c)"/><path d="m-263.38867 144.79393s3.77285-2.79822 5.51114-4.3744c15.05752-16.43257 31.40166-29.95188 49.15867-42.22617 15.52599-10.732133 32.4419-19.448394 49.66602-27.121093 5.2486-2.338056 11.30951-4.884741 16.25586-5.71875l7.16071-5.435139 5.51127-13.449628c-16.65083.690093-37.1325 6.026367-54.21933 13.449628-3.08944 1.342189-5.65872 3.665945-8.48011 5.511309-10.07106 6.587103-20.46825 12.703546-30.15599 19.849611-12.12247 8.94202-23.48654 18.891962-34.89726 28.738102-1.8744 1.61739-5.51098 4.98108-5.51098 4.98108z" fill="#1a1320" stroke-linecap="round" stroke-linejoin="round"/><path d="m-135.63627 51.980878c-15.37877.637371-32.67725 6.692545-46.14249 13.448809-13.13689 7.925712-25.96505 14.632064-37.94474 23.452407-13.56182 9.985228-25.79041 20.763976-38.15028 33.166806l-.005 11.62543c13.21431-16.41319 29.562-27.79427 46.13432-39.337637 15.90558-11.07895 32.97001-21.520952 50.70429-28.404584 5.70304-2.205031 11.30051-4.997515 17.32749-6.013731 2.65428-.447543 5.8494.189459 8.07641 0z" fill="url(#d)" stroke-linecap="round" stroke-linejoin="round" stroke-width="11.0229"/><path d="m-263.38867 65.429959 133.26367-.000272v-18.960937l-133.26367.000272z" fill="#1a1320"/><path d="m-257.87566 51.980878v7.9375h122.23939v-7.9375z" fill="url(#n)" stroke-width="11.0229"/></g><g opacity=".8" transform="matrix(.09660557 0 0 .09518071 -1.845166 -1.798916)"><circle cx="946.90002" cy="776.5" fill="url(#t)" opacity=".5" r="11.3"/><circle cx="828.79999" cy="869.79999" fill="url(#v)" opacity=".5" r="11.3"/><circle cx="339.10001" cy="1021.2" fill="url(#w)" opacity=".5" r="11.3"/><circle cx="1023.5" cy="1172.2" fill="url(#x)" opacity=".5" r="11.3"/><circle cx="419.60001" cy="439.70001" fill="url(#y)" opacity=".5" r="11.3"/><circle cx="874.79999" cy="428.39999" fill="url(#z)" opacity=".5" r="11.3"/><circle cx="714.70001" cy="467.39999" fill="url(#A)" opacity=".5" r="11.3"/><circle cx="1030.9" cy="354.20001" fill="url(#B)" opacity=".5" r="11.3"/><circle cx="1040.2" cy="684.29999" fill="url(#C)" opacity=".5" r="11.3"/><circle cx="625.59998" cy="345" fill="url(#D)" opacity=".5" r="11.3"/><circle cx="553.20001" cy="199.5" fill="url(#E)" opacity=".5" r="11.3"/><circle cx="751.5" cy="556.70001" fill="url(#F)" opacity=".5" r="5.6"/><circle cx="777.40002" cy="382.79999" fill="url(#G)" opacity=".5" r="5.6"/><circle cx="420.60001" cy="331.5" fill="url(#H)" opacity=".5" r="5.6"/><circle cx="206.5" cy="377.10001" fill="url(#I)" opacity=".5" r="5.6"/><circle cx="614.29999" cy="932" fill="url(#J)" opacity=".5" r="5.6"/><circle cx="726.20001" cy="900.29999" fill="url(#K)" opacity=".5" r="5.6"/><circle cx="308" cy="931" fill="url(#L)" opacity=".5" r="5.6"/><circle cx="818.09998" cy="990.70001" fill="url(#M)" opacity=".5" r="5.6"/><circle cx="695.79999" cy="1015.6" fill="url(#N)" opacity=".5" r="5.6"/><circle cx="549.29999" cy="1170.2" fill="url(#O)" opacity=".5" r="5.6"/><circle cx="644.20001" cy="801.40002" fill="url(#P)" opacity=".5" r="5.6"/><circle cx="993.20001" cy="1007.5" fill="url(#Q)" opacity=".5" r="5.6"/><circle cx="943.29999" cy="1095.6" fill="url(#R)" opacity=".5" r="5.6"/><circle cx="911.40002" cy="659.29999" fill="url(#S)" opacity=".5" r="5.6"/><circle cx="529" cy="839.90002" fill="url(#T)" opacity=".5" r="11.3"/><circle cx="542.70001" cy="1069.7" fill="url(#U)" opacity=".5" r="11.3"/><circle cx="863.59998" cy="1161" fill="url(#V)" opacity=".5" r="11.3"/><circle cx="1134.7" cy="889" fill="url(#W)" opacity=".5" r="11.3"/><circle cx="419.60001" cy="933" fill="url(#X)" opacity=".5" r="11.3"/><circle cx="208.5" cy="608.79999" fill="url(#Y)" opacity=".5" r="11.3"/><circle cx="498.60001" cy="547" fill="url(#Z)" opacity=".5" r="11.3"/><circle cx="480.89999" cy="686.29999" fill="url(#aa)" opacity=".5" r="11.3"/><circle cx="538" cy="444.89999" fill="url(#ab)" opacity=".5" r="11.3"/><circle cx="341.10001" cy="248" fill="url(#ac)" opacity=".5" r="11.3"/><circle cx="560.40002" cy="660.29999" fill="url(#ad)" opacity=".5" r="7.1"/><circle cx="584.09998" cy="788.59998" fill="url(#ae)" opacity=".5" r="7.1"/><circle cx="972" cy="267.20001" fill="url(#af)" opacity=".5" r="7.1"/><circle cx="360.60001" cy="841.90002" fill="url(#ag)" opacity=".5" r="7.1"/><circle cx="384.5" cy="1069.7" fill="url(#ah)" opacity=".5" r="7.1"/><circle cx="415" cy="1149.7" fill="url(#ai)" opacity=".5" r="7.1"/><circle cx="226.89999" cy="764.59998" fill="url(#aj)" opacity=".5" r="7.1"/><circle cx="704.79999" cy="240.89999" fill="url(#ak)" opacity=".5" r="7.1"/><circle cx="404.29999" cy="522.79999" fill="url(#al)" opacity=".5" r="7.1"/><circle cx="631.40002" cy="709" fill="url(#am)" opacity=".5" r="7.1"/><circle cx="1004.5" cy="623.59998" fill="url(#an)" opacity=".5" r="11.3"/><circle cx="294.70001" cy="1083.7" fill="url(#ao)" opacity=".5" r="11.3"/><circle cx="210.5" cy="1163" fill="url(#ap)" opacity=".5" r="11.3"/><circle cx="411.5" cy="167" fill="url(#aq)" opacity=".5" r="11.3"/><circle cx="165.10001" cy="203.10001" fill="url(#ar)" opacity=".5" r="11.3"/><circle cx="872.79999" cy="188.2" fill="url(#as)" opacity=".5" r="11.3"/><circle cx="197.3" cy="858.5" fill="url(#at)" opacity=".5" r="11.3"/><circle cx="1028.9" cy="542.90002" fill="url(#au)" opacity=".5" r="11.3"/><circle cx="1134.7" cy="701.90002" fill="url(#av)" opacity=".5" r="11.3"/><circle cx="982" cy="437.29999" fill="url(#aw)" opacity=".5" r="11.3"/><ellipse cx="707" cy="728.20001" fill="url(#ax)" rx="19.200001" ry="5.6"/><ellipse cx="707" cy="728.20001" fill="url(#ay)" rx="5.6" ry="19.200001"/><ellipse cx="249.5" cy="300.29999" fill="url(#az)" rx="29.700001" ry="8.6"/><ellipse cx="249.5" cy="300.29999" fill="url(#aA)" rx="8.6" ry="29.700001"/><ellipse cx="839.20001" cy="270.60001" fill="url(#aB)" rx="29.700001" ry="8.6"/><ellipse cx="839.20001" cy="270.60001" fill="url(#aC)" rx="8.6" ry="29.700001"/><ellipse cx="1118.3" cy="1092.3" fill="url(#aD)" rx="29.700001" ry="8.6"/><ellipse cx="1118.3" cy="1092.3" fill="url(#aE)" rx="8.6" ry="29.700001"/><ellipse cx="321.79999" cy="377.20001" fill="url(#aF)" rx="19.200001" ry="5.6"/><ellipse cx="321.79999" cy="377.20001" fill="url(#aG)" rx="5.6" ry="19.200001"/><ellipse cx="548.29999" cy="996.29999" fill="url(#aH)" rx="19.200001" ry="5.6"/><ellipse cx="548.29999" cy="996.29999" fill="url(#aI)" rx="5.6" ry="19.200001"/><ellipse cx="450.10001" cy="795.79999" fill="url(#aJ)" rx="19.200001" ry="5.6"/><ellipse cx="450.10001" cy="795.79999" fill="url(#aK)" rx="5.6" ry="19.200001"/><ellipse cx="649.79999" cy="565.70001" fill="url(#aL)" rx="19.200001" ry="5.6"/><ellipse cx="649.79999" cy="565.70001" fill="url(#aM)" rx="5.6" ry="19.200001"/><ellipse cx="353.5" cy="747.5" fill="url(#aN)" rx="19.200001" ry="5.6"/><ellipse cx="353.5" cy="747.5" fill="url(#aO)" rx="5.6" ry="19.200001"/><ellipse cx="712.5" cy="1141.6" fill="url(#aP)" rx="19.200001" ry="5.6"/><ellipse cx="712.5" cy="1141.6" fill="url(#aQ)" rx="5.6" ry="19.200001"/><ellipse cx="979.59998" cy="889" fill="url(#aR)" rx="19.200001" ry="5.6"/><ellipse cx="979.59998" cy="889" fill="url(#aS)" rx="5.6" ry="19.200001"/><ellipse cx="542" cy="297" fill="url(#aT)" rx="19.200001" ry="5.6"/><ellipse cx="542" cy="297" fill="url(#aU)" rx="5.6" ry="19.200001"/><ellipse cx="856.40002" cy="1023.2" fill="url(#aV)" rx="19.200001" ry="5.6"/><ellipse cx="856.40002" cy="1023.2" fill="url(#aW)" rx="5.6" ry="19.200001"/><circle cx="1023.5" cy="132.7" fill="url(#aX)" opacity=".5" r="11.3"/><circle cx="549.29999" cy="130.7" fill="url(#aY)" opacity=".5" r="5.6"/><circle cx="943.29999" cy="56.099998" fill="url(#aZ)" opacity=".5" r="5.6"/><circle cx="542.70001" cy="30.200001" fill="url(#a0)" opacity=".5" r="11.3"/><circle cx="863.59998" cy="121.5" fill="url(#a1)" opacity=".5" r="11.3"/><circle cx="384.5" cy="30.200001" fill="url(#a2)" opacity=".5" r="7.1"/><circle cx="415" cy="110.2" fill="url(#a3)" opacity=".5" r="7.1"/><circle cx="294.70001" cy="44.099998" fill="url(#a4)" opacity=".5" r="11.3"/><ellipse cx="1118.3" cy="52.700001" fill="url(#a5)" rx="29.700001" ry="8.6"/><ellipse cx="1118.3" cy="52.700001" fill="url(#a6)" rx="8.6" ry="29.700001"/><ellipse cx="712.5" cy="102" fill="url(#a7)" rx="19.200001" ry="5.6"/><ellipse cx="712.5" cy="102" fill="url(#a8)" rx="5.6" ry="19.200001"/><ellipse cx="1069.3" cy="771.59998" fill="url(#a9)" rx="19.200001" ry="5.6"/><ellipse cx="1069.3" cy="771.59998" fill="url(#ba)" rx="5.6" ry="19.200001"/><ellipse cx="1134.7" cy="308.89999" fill="url(#bb)" rx="19.200001" ry="5.6"/><ellipse cx="1134.7" cy="308.89999" fill="url(#bc)" rx="5.6" ry="19.200001"/><ellipse cx="1109.7" cy="197.5" fill="url(#bd)" rx="19.200001" ry="5.6"/><ellipse cx="1109.7" cy="197.5" fill="url(#be)" rx="5.6" ry="19.200001"/><circle cx="39.599998" cy="774.90002" fill="url(#bf)" opacity=".5" r="11.3"/><circle cx="77.300003" cy="121.6" fill="url(#bg)" opacity=".5" r="5.6"/><circle cx="127.2" cy="33.400002" fill="url(#bh)" opacity=".5" r="5.6"/><circle cx="98.5" cy="861.90002" fill="url(#bi)" opacity=".5" r="7.1"/><circle cx="88.5" cy="691.79999" fill="url(#bj)" opacity=".5" r="11.3"/><ellipse cx="90.900002" cy="240.10001" fill="url(#bk)" rx="19.200001" ry="5.6"/><ellipse cx="90.900002" cy="240.10001" fill="url(#bl)" rx="5.6" ry="19.200001"/><circle cx="47" cy="996.40002" fill="url(#bm)" opacity=".5" r="11.3"/><circle cx="77.300003" cy="1161.1" fill="url(#bn)" opacity=".5" r="5.6"/><circle cx="127.2" cy="1073" fill="url(#bo)" opacity=".5" r="5.6"/><circle cx="306" cy="534.09998" fill="url(#bp)" opacity=".5" r="11.3"/><circle cx="419.60001" cy="1251" fill="url(#bq)" opacity=".5" r="11.3"/><circle cx="874.79999" cy="1239.7" fill="url(#br)" opacity=".5" r="11.3"/><circle cx="714.70001" cy="1278.6" fill="url(#bs)" opacity=".5" r="11.3"/><circle cx="751.5" cy="1368" fill="url(#bt)" opacity=".5" r="5.6"/><circle cx="498.60001" cy="1358.3" fill="url(#bu)" opacity=".5" r="11.3"/><circle cx="538" cy="1256.1" fill="url(#bv)" opacity=".5" r="11.3"/><circle cx="404.29999" cy="1334.1" fill="url(#bw)" opacity=".5" r="7.1"/><circle cx="169.10001" cy="1319.4" fill="url(#bx)" opacity=".5" r="11.3"/><circle cx="982" cy="1248.6" fill="url(#by)" opacity=".5" r="11.3"/><ellipse cx="847.79999" cy="1373.6" fill="url(#bz)" rx="29.700001" ry="8.6"/><ellipse cx="847.79999" cy="1373.6" fill="url(#bA)" rx="8.6" ry="29.700001"/><ellipse cx="321.79999" cy="1188.5" fill="url(#bB)" rx="19.200001" ry="5.6"/><ellipse cx="321.79999" cy="1188.5" fill="url(#bC)" rx="5.6" ry="19.200001"/><ellipse cx="649.79999" cy="1377" fill="url(#bD)" rx="19.200001" ry="5.6"/><ellipse cx="649.79999" cy="1377" fill="url(#bE)" rx="5.6" ry="19.200001"/><circle cx="1345.1" cy="345" fill="url(#bF)" opacity=".5" r="11.3"/><circle cx="1272.8" cy="199.5" fill="url(#bG)" opacity=".5" r="11.3"/><circle cx="1333.8" cy="932" fill="url(#bH)" opacity=".5" r="5.6"/><circle cx="1363.7" cy="801.40002" fill="url(#bI)" opacity=".5" r="5.6"/><circle cx="1248.6" cy="839.90002" fill="url(#bJ)" opacity=".5" r="11.3"/><circle cx="1262.2" cy="1069.7" fill="url(#bK)" opacity=".5" r="11.3"/><circle cx="1218.2" cy="547" fill="url(#bL)" opacity=".5" r="11.3"/><circle cx="1200.4" cy="686.29999" fill="url(#bM)" opacity=".5" r="11.3"/><circle cx="1257.5" cy="444.89999" fill="url(#bN)" opacity=".5" r="11.3"/><circle cx="1279.9" cy="660.29999" fill="url(#bO)" opacity=".5" r="7.1"/><circle cx="1303.6" cy="788.59998" fill="url(#bP)" opacity=".5" r="7.1"/><circle cx="1350.9" cy="709" fill="url(#bQ)" opacity=".5" r="7.1"/><ellipse cx="1267.8" cy="996.29999" fill="url(#bR)" rx="19.200001" ry="5.6"/><ellipse cx="1267.8" cy="996.29999" fill="url(#bS)" rx="5.6" ry="19.200001"/><ellipse cx="1369.3" cy="565.70001" fill="url(#bT)" rx="19.200001" ry="5.6"/><ellipse cx="1369.3" cy="565.70001" fill="url(#bU)" rx="5.6" ry="19.200001"/><ellipse cx="1261.5" cy="297" fill="url(#bV)" rx="19.200001" ry="5.6"/><ellipse cx="1261.5" cy="297" fill="url(#bW)" rx="5.6" ry="19.200001"/><circle cx="1268.8" cy="130.7" fill="url(#bX)" opacity=".5" r="5.6"/><circle cx="1262.2" cy="30.200001" fill="url(#bY)" opacity=".5" r="11.3"/><circle cx="30.4" cy="1256" fill="url(#bZ)" opacity=".5" r="11.3"/><circle cx="159.10001" cy="1281.1" fill="url(#b0)" opacity=".5" r="5.6"/><circle cx="66" cy="1316.7" fill="url(#b1)" opacity=".5" r="11.3"/><circle cx="41.599998" cy="1397.5" fill="url(#b2)" opacity=".5" r="11.3"/><circle cx="306" cy="1345.4" fill="url(#b3)" opacity=".5" r="11.3"/><g fill="#fff"><circle cx="946.90002" cy="776.5" r="2"/><circle cx="828.79999" cy="869.79999" r="2"/><circle cx="339.10001" cy="1021.2" r="2"/><circle cx="1023.5" cy="1172.2" r="2"/><circle cx="419.60001" cy="439.70001" r="2"/><circle cx="874.79999" cy="428.39999" r="2"/><circle cx="714.70001" cy="467.39999" r="2"/><circle cx="1030.9" cy="354.20001" r="2"/><circle cx="1040.2" cy="684.29999" r="2"/><circle cx="625.59998" cy="345" r="2"/><circle cx="553.20001" cy="199.5" r="2"/><circle cx="751.5" cy="556.70001" r="1"/><circle cx="777.40002" cy="382.79999" r="1"/><circle cx="420.60001" cy="331.5" r="1"/><circle cx="206.5" cy="377.10001" r="1"/><circle cx="614.29999" cy="932" r="1"/><circle cx="726.20001" cy="900.29999" r="1"/><circle cx="308" cy="931" r="1"/><circle cx="818.09998" cy="990.70001" r="1"/><circle cx="695.79999" cy="1015.6" r="1"/><circle cx="549.29999" cy="1170.2" r="1"/><circle cx="644.20001" cy="801.40002" r="1"/><circle cx="993.20001" cy="1007.5" r="1"/><circle cx="943.29999" cy="1095.6" r="1"/><circle cx="911.40002" cy="659.29999" r="1"/><circle cx="529" cy="839.90002" r="2"/><circle cx="542.70001" cy="1069.7" r="2"/><circle cx="863.59998" cy="1161" r="2"/><circle cx="1134.7" cy="889" r="2"/><circle cx="419.60001" cy="933" r="2"/><circle cx="208.5" cy="608.79999" r="2"/><circle cx="498.60001" cy="547" r="2"/><circle cx="480.89999" cy="686.29999" r="2"/><circle cx="538" cy="444.89999" r="2"/><circle cx="341.10001" cy="248" r="2"/><circle cx="560.40002" cy="660.29999" r="1.3"/><circle cx="584.09998" cy="788.59998" r="1.3"/><circle cx="972" cy="267.20001" r="1.3"/><circle cx="360.60001" cy="841.90002" r="1.3"/><circle cx="384.5" cy="1069.7" r="1.3"/><circle cx="415" cy="1149.7" r="1.3"/><circle cx="226.89999" cy="764.59998" r="1.3"/><circle cx="704.79999" cy="240.89999" r="1.3"/><circle cx="404.29999" cy="522.79999" r="1.3"/><circle cx="631.40002" cy="709" r="1.3"/><circle cx="1004.5" cy="623.59998" r="2"/><circle cx="294.70001" cy="1083.7" r="2"/><circle cx="210.5" cy="1163" r="2"/><circle cx="411.5" cy="167" r="2"/><circle cx="165.10001" cy="203.10001" r="2"/><circle cx="872.79999" cy="188.2" r="2"/><circle cx="197.3" cy="858.5" r="2"/><circle cx="1028.9" cy="542.90002" r="2"/><circle cx="1134.7" cy="701.90002" r="2"/><circle cx="982" cy="437.29999" r="2"/><circle cx="707" cy="728.20001" r="2.2"/><circle cx="249.5" cy="300.29999" r="3.4"/><circle cx="839.20001" cy="270.60001" r="3.4"/><circle cx="1118.3" cy="1092.3" r="3.4"/><circle cx="321.79999" cy="377.20001" r="2.2"/><circle cx="548.29999" cy="996.29999" r="2.2"/><circle cx="450.10001" cy="795.79999" r="2.2"/><circle cx="649.79999" cy="565.70001" r="2.2"/><circle cx="353.5" cy="747.5" r="2.2"/><circle cx="712.5" cy="1141.6" r="2.2"/><circle cx="979.59998" cy="889" r="2.2"/><circle cx="542" cy="297" r="2.2"/><circle cx="856.40002" cy="1023.2" r="2.2"/><circle cx="1023.5" cy="132.7" r="2"/><circle cx="549.29999" cy="130.7" r="1"/><circle cx="943.29999" cy="56.099998" r="1"/><circle cx="542.70001" cy="30.200001" r="2"/><circle cx="863.59998" cy="121.5" r="2"/><circle cx="384.5" cy="30.200001" r="1.3"/><circle cx="415" cy="110.2" r="1.3"/><circle cx="294.70001" cy="44.099998" r="2"/><circle cx="1118.3" cy="52.700001" r="3.4"/><circle cx="712.5" cy="102" r="2.2"/><circle cx="1069.3" cy="771.59998" r="2.2"/><circle cx="1134.7" cy="308.89999" r="2.2"/><circle cx="1109.7" cy="197.5" r="2.2"/><circle cx="39.599998" cy="774.90002" r="2"/><circle cx="77.300003" cy="121.6" r="1"/><circle cx="127.2" cy="33.400002" r="1"/><circle cx="98.5" cy="861.90002" r="1.3"/><circle cx="88.5" cy="691.79999" r="2"/><circle cx="90.900002" cy="240.10001" r="2.2"/><circle cx="47" cy="996.40002" r="2"/><circle cx="77.300003" cy="1161.1" r="1"/><circle cx="127.2" cy="1073" r="1"/><circle cx="306" cy="534.09998" r="2"/><circle cx="419.60001" cy="1251" r="2"/><circle cx="874.79999" cy="1239.7" r="2"/><circle cx="714.70001" cy="1278.6" r="2"/><circle cx="751.5" cy="1368" r="1"/><circle cx="498.60001" cy="1358.3" r="2"/><circle cx="538" cy="1256.1" r="2"/><circle cx="404.29999" cy="1334.1" r="1.3"/><circle cx="169.10001" cy="1319.4" r="2"/><circle cx="982" cy="1248.6" r="2"/><circle cx="847.79999" cy="1373.6" r="3.4"/><circle cx="321.79999" cy="1188.5" r="2.2"/><circle cx="649.79999" cy="1377" r="2.2"/><circle cx="1345.1" cy="345" r="2"/><circle cx="1272.8" cy="199.5" r="2"/><circle cx="1333.8" cy="932" r="1"/><circle cx="1363.7" cy="801.40002" r="1"/><circle cx="1248.6" cy="839.90002" r="2"/><circle cx="1262.2" cy="1069.7" r="2"/><circle cx="1218.2" cy="547" r="2"/><circle cx="1200.4" cy="686.29999" r="2"/><circle cx="1257.5" cy="444.89999" r="2"/><circle cx="1279.9" cy="660.29999" r="1.3"/><circle cx="1303.6" cy="788.59998" r="1.3"/><circle cx="1350.9" cy="709" r="1.3"/><circle cx="1267.8" cy="996.29999" r="2.2"/><circle cx="1369.3" cy="565.70001" r="2.2"/><circle cx="1261.5" cy="297" r="2.2"/><circle cx="1268.8" cy="130.7" r="1"/><circle cx="1262.2" cy="30.200001" r="2"/><circle cx="30.4" cy="1256" r="2"/><circle cx="159.10001" cy="1281.1" r="1"/><circle cx="66" cy="1316.7" r="2"/><circle cx="41.599998" cy="1397.5" r="2"/><circle cx="306" cy="1345.4" r="2"/></g></g></svg>