<svg height="500" viewBox="0 0 500 500" width="500" xmlns="http://www.w3.org/2000/svg" xmlns:xlink="http://www.w3.org/1999/xlink"><linearGradient id="a"><stop offset="0" stop-color="#99c1f1"/><stop offset="1" stop-color="#fff" stop-opacity="0"/></linearGradient><radialGradient id="b" cx="1146.1666" cy="687.14734" gradientTransform="matrix(1.0000023 .00000373 -.00000202 .50189929 -26.111109 339.59634)" gradientUnits="userSpaceOnUse" r="37.490051" spreadMethod="reflect" xlink:href="#a"/><radialGradient id="c" cx="1143.8475" cy="687.14746" gradientTransform="matrix(1.0188666 .00000251 -.00000121 .43589912 -45.370281 384.9496)" gradientUnits="userSpaceOnUse" r="37.490051" spreadMethod="reflect" xlink:href="#a"/><radialGradient id="d" cx="1146.1666" cy="687.14734" gradientTransform="matrix(1.3552828 .05381927 -.02221103 .55931427 -418.06088 238.46184)" gradientUnits="userSpaceOnUse" r="37.490051" spreadMethod="reflect" xlink:href="#a"/><filter id="e" color-interpolation-filters="sRGB" height="1.266719" width="1.10434" x="-.05217" y="-.13336"><feGaussianBlur stdDeviation="21.750916"/></filter><filter id="f" color-interpolation-filters="sRGB" height="1.475671" width="1.207242" x="-.103621" y="-.237835"><feGaussianBlur stdDeviation="13.920585"/></filter><filter id="g" color-interpolation-filters="sRGB" height="1.252793" width="1.099129" x="-.049564" y="-.126396"><feGaussianBlur stdDeviation="13.920585"/></filter><filter id="h" color-interpolation-filters="sRGB" height="1.1707" width="1.066778" x="-.033389" y="-.08535"><feGaussianBlur stdDeviation="13.920585"/></filter><filter id="i" color-interpolation-filters="sRGB" height="1.43603" width="1.178597" x="-.089298" y="-.218015"><feGaussianBlur stdDeviation="18.171213"/></filter><filter id="j" color-interpolation-filters="sRGB" height="3.317557" width="2.16318" x="-.58159" y="-1.158778"><feGaussianBlur stdDeviation="18.16987"/></filter><filter id="k" color-interpolation-filters="sRGB" height="1.265684" width="1.104499" x="-.05225" y="-.132842"><feGaussianBlur stdDeviation="18.171213"/></filter><linearGradient id="l" gradientTransform="matrix(3.55578 0 0 3.562357 413.36535 93.356109)" gradientUnits="userSpaceOnUse" spreadMethod="pad" x1="-65.964897" x2="-108.65797" y1="31.088467" y2="44.930946"><stop offset="0" stop-color="#f1f3f4"/><stop offset=".25561801" stop-color="#e3e7ea"/><stop offset=".51123601" stop-color="#c8d0d5"/><stop offset="1" stop-color="#b9c0c1"/></linearGradient><filter id="m" color-interpolation-filters="sRGB" height="1.054402" width="1.015396" x="-.007698" y="-.027201"><feGaussianBlur stdDeviation="1.1730975"/></filter><linearGradient id="n" gradientUnits="userSpaceOnUse" spreadMethod="reflect" x1="249.19817" x2="49.06517" xlink:href="#l" y1="289.00131" y2="194.50729"/><linearGradient id="o" gradientUnits="userSpaceOnUse" spreadMethod="reflect" x1="250.11719" x2="66.331169" xlink:href="#l" y1="195.5601" y2="195.5601"/><filter id="p" color-interpolation-filters="sRGB" height="1.077052" width="1.019512" x="-.009756" y="-.038526"><feGaussianBlur stdDeviation="1.5622149"/></filter><filter id="q" color-interpolation-filters="sRGB" height="1.099331" width="1.02202" x="-.01101" y="-.049665"><feGaussianBlur stdDeviation="1.5622149"/></filter><g stroke-width="2.47739" transform="matrix(.45267234 0 0 .35993841 -255.99517 164.39297)"><ellipse cx="1120.0569" cy="684.47937" fill="#98c0f1" filter="url(#e)" opacity=".25" rx="500.30957" ry="195.71973"/><path d="m1472.5363 837.65027c39.7304-14.11601 79.3083-35.44732 107.3047-66.97461 21.0811-23.73985 40.5254-54.4464 40.5254-86.19531s-19.4443-62.45546-40.5254-86.19531c-27.9964-31.52729-67.5743-52.85848-107.3047-66.97461-107.3844-38.15349-339.2246-42.55078-339.2246-42.55078s223.5471 30.11106 326.9472 72.10156c35.2062 14.29715 71.4048 31.85606 96.918 60.01563 15.8545 17.49895 31.1896 39.99045 31.1895 63.60351-.0001 23.61248-15.3355 46.10303-31.1895 63.60156-25.5134 28.15985-61.7115 45.72015-96.918 60.01758-103.3998 41.99091-326.9472 72.09961-326.9472 72.09961s231.8402-4.39567 339.2246-42.54883zm-692.68156-29.55078c-35.53407-13.46414-71.40636-31.85711-96.91992-60.01758-15.8537-17.49845-31.18736-39.98937-31.1875-63.60156-.00014-23.61277 15.33339-46.10465 31.1875-63.60351 25.51336-28.16018 61.38611-46.55177 96.91992-60.01563 103.40153-39.17913 326.94726-72.10156 326.94726-72.10156s-232.0145 1.65049-339.2246 42.55078c-39.3942 15.02875-79.30833 35.44733-107.30469 66.97461-21.08109 23.73985-40.52539 54.4464-40.52539 86.19531s19.4443 62.45546 40.52539 86.19531c27.99636 31.52728 67.91045 51.94597 107.30469 66.97461 107.21011 40.89995 339.2246 42.54883 339.2246 42.54883s-223.546-32.92007-326.94726-72.09961z" fill="#a0bede" filter="url(#h)" transform="matrix(.94490857 0 0 .94490857 61.705534 37.708947)"/><path d="m1413.9563 815.28016c32.8931-12.76472 66.1077-30.22251 89.3242-56.79101 17.8741-20.45471 34.1094-46.84587 34.1094-74.00977s-16.2355-53.55491-34.1094-74.00976c-23.2165-26.56895-56.4309-44.02797-89.3242-56.79297-88.5489-34.36338-280.6445-33.33985-280.6445-33.33985s183.4922 30.21397 268.1797 62.8125c29.0166 11.16928 58.1993 26.53483 78.9257 49.71094 12.7418 14.24778 24.9727 32.50495 24.9727 51.61914s-12.2309 37.37136-24.9727 51.61914c-20.7264 23.17611-49.9091 38.54166-78.9257 49.71094-84.6875 32.59853-268.1797 62.8125-268.1797 62.8125s192.0953 1.02123 280.6445-33.3418zm-575.33396-29.4707c-28.6591-10.96649-57.5216-25.97838-78.08789-48.75195-13.08542-14.48981-25.81055-33.05423-25.81055-52.57813s12.72513-38.08831 25.81055-52.57812c20.5663-22.77357 49.42879-37.78547 78.08789-48.75196 84.75197-32.43061 268.17976-62.8125 268.17976-62.8125s-192.02616-.84056-280.64656 33.33985c-32.43806 12.51118-65.24238 29.5305-88.24805 55.59765-18.31344 20.7505-35.18359 47.529-35.18359 75.20508s16.86999 54.45472 35.18359 75.20508c23.00565 26.06671 55.81026 43.08479 88.24805 55.5957 88.62066 34.18005 280.64656 33.3418 280.64656 33.3418s-183.42778-30.3819-268.17976-62.8125z" fill="url(#d)" filter="url(#k)" transform="matrix(.94490857 0 0 .94490857 61.705534 37.708947)"/><path d="m1357.2472 792.52322c26.1789-10.23638 52.5851-24.22978 71.0449-45.42773 15.0868-17.32469 28.795-39.64226 28.795-62.61524s-13.7082-45.29054-28.795-62.61523c-18.4598-21.19796-44.8661-35.19125-71.0449-45.42774-70.6175-27.61298-223.9355-23.95898-223.9355-23.95898s144.6142 27.53916 211.3222 53.36719c22.3877 8.66809 44.8588 20.6046 60.875 38.48828 9.9329 11.09099 19.5782 25.25783 19.5782 40.14648s-9.6452 29.05561-19.5782 40.14649c-16.0162 17.88323-38.4875 29.81861-60.875 38.48632-66.7083 25.82727-211.3222 53.36719-211.3222 53.36719s153.3179 3.65561 223.9355-23.95703zm-461.7694-29.41016c-22.38693-8.66765-44.85734-20.60337-60.87305-38.48632-9.93289-11.09095-19.57813-25.25785-19.57813-40.14649 0-14.88863 9.64537-29.05542 19.57813-40.14648 16.01573-17.8834 38.4859-29.82024 60.87305-38.48828 66.70844-25.8287 211.3242-53.36719 211.3242-53.36719s-153.31946-3.65462-223.93748 23.95898c-26.17828 10.23643-52.58367 24.23007-71.04297 45.42774-15.08672 17.32478-28.79493 39.64226-28.79493 62.61523s13.7082 45.29046 28.79493 62.61524c18.4593 21.19767 44.86465 35.19141 71.04297 45.42773 70.61803 27.61326 223.93748 23.95703 223.93748 23.95703s-144.61546-27.53925-211.3242-53.36719z" fill="#a0bede" filter="url(#g)" transform="matrix(.94490857 0 0 .94490857 61.705534 37.708947)"/><path d="m961.52274 740.03984c-15.25233-6.3012-30.31946-15.18782-40.9707-27.79297-6.5675-7.77227-12.68151-17.5921-12.68165-27.76758-.00014-10.17607 6.11374-19.99683 12.68165-27.76953 10.65104-12.60484 25.71861-21.49021 40.9707-27.79102 45.55606-18.8197 145.27936-43.5625 145.27936-43.5625s-108.99723-6.29516-158.68171 14.50391c-19.09601 7.99403-38.04336 19.19831-51.15234 35.2207-11.33803 13.85785-21.09779 31.49339-21.09766 49.39844.00013 17.90445 9.76009 35.53904 21.09766 49.39649 13.10912 16.02275 32.05609 27.22824 51.15234 35.22265 49.68428 20.79971 158.68171 14.50391 158.68171 14.50391s-99.7236-24.74206-145.27936-43.5625zm330.46876 29.05859c19.0968-7.99447 38.0447-19.1996 51.1543-35.22265 11.3377-13.85735 21.0975-31.49205 21.0976-49.39649.0001-17.90504-9.7595-35.54069-21.0976-49.39844-13.1095-16.02269-32.0577-27.22662-51.1543-35.2207-49.6841-20.79843-158.6797-14.50391-158.6797-14.50391s99.7233 24.74281 145.2793 43.5625c15.2521 6.30081 30.3197 15.18618 40.9707 27.79102 6.5679 7.7727 12.6817 17.59347 12.6816 27.76953-.0001 10.17547-6.1141 19.99531-12.6816 27.76758-10.6512 12.60515-25.7184 21.49177-40.9707 27.79297-45.5557 18.82044-145.2793 43.5625-145.2793 43.5625s108.9959 6.29516 158.6797-14.50391z" fill="url(#c)" filter="url(#i)" stroke-width="167.797" transform="matrix(.94490857 0 0 .94490857 61.705534 37.708947)"/><path d="m1281.2668 684.47923c-13.2232-69.99872-89.3426-76.51476-147.955-66.54492 0 0 60.6367 19.27299 86.1015 33.77734 12.8393 7.31304 29.8535 17.99168 29.8535 32.76758s-17.0142 25.45454-29.8535 32.76758c-25.4648 14.50435-86.1015 33.77734-86.1015 33.77734 54.8313 5.71974 145.5312-.1606 147.955-66.54492zm-260.5663 32.76758c-12.8393-7.31303-29.85352-17.99167-29.85352-32.76758s17.01422-25.45455 29.85352-32.76758c25.4649-14.50436 86.1016-33.77734 86.1016-33.77734-54.832-5.71972-145.53132.15885-147.95512 66.54492 13.22267 69.99982 89.34212 76.5151 147.95512 66.54492 0 0-60.6367-19.27298-86.1016-33.77734z" fill="#a0bede" filter="url(#f)" stroke-width="2.62183" transform="matrix(.94490857 0 0 .94490857 61.705534 37.708947)"/><path d="m1157.5469 684.47938c0 5.75035-6.0571 10.33435-10.9806 13.30509-7.7277 4.66272-17.4841 5.51115-26.5095 5.51114s-18.7817-.84845-26.5094-5.51116c-4.9236-2.97074-10.9806-7.55473-10.9806-13.30507s6.057-10.33434 10.9806-13.30508c7.7277-4.66272 17.484-5.51116 26.5094-5.51116s18.7818.84843 26.5095 5.51114c4.9235 2.97075 10.9806 7.55475 10.9806 13.3051z" fill="url(#b)" filter="url(#j)" stroke-width="167.797" transform="matrix(.94490857 0 0 .94490857 61.705534 37.708947)"/></g><g stroke-width="1.09515" transform="matrix(0 -.91312045 .91312045 0 29.719888 436.83931)"><path d="m32.990248 186.4095c-8.245042 16.47403-11.194643 35.66059-11.381247 54.08176-.200538 19.79663 2.117953 40.68813 11.051169 58.35574 14.598894 28.87287 37.904259 55.20668 66.098219 71.07712 44.621441 25.11749 99.233801 31.07436 150.438891 31.07718 51.18446.003 105.76973-5.95583 150.38169-31.0481 28.19321-15.85743 51.21527-42.31807 66.12417-71.02417 9.4135-18.12507 13.04622-39.52593 12.67379-59.94635-.343-18.80678-5.21476-37.94845-13.6777-54.747-5.06034-10.04453-12.64786-19.03987-21.43945-26.05469-25.90448-20.66921-57.23339-34.7126-88.87928-44.5511-33.80261-10.50901-69.7849-14.504435-105.18322-14.628593-33.67505-.118114-67.82884 3.787673-100.15783 13.214173-30.42537 8.87144-60.812583 21.16681-86.172249 40.1745-12.076486 9.05162-23.122271 20.52332-29.876953 34.01953zm216.207032 6.70899c55.44103.00023 109.44495 13.76075 161.13867 41.20312-11.92426 10.0596-36.35341 18.99145-55.85351 24.95508-16.20514 4.95595-33.23857 6.85327-50.07572 8.7712-18.31104 2.08582-36.77998 2.95336-55.20944 2.95341-18.42898.00005-36.89743-.86755-55.20803-2.95301-16.83691-1.91761-33.87056-3.81288-50.07517-8.76965-19.49826-5.96425-43.926911-14.89765-55.845707-24.96093 51.691457-27.43965 105.691357-41.19945 161.128907-41.19922z" fill="#8fa2a3" stroke-width="1.095146"/><path d="m249.19817 117.0013c-68.66 0-137.1 18.922-182.866998 55.275.234 14.35 1.818 35.624 9.332 48.23 110.633998-60.336 236.435998-60.336 347.069998 0 7.513-12.606 9.098-33.88 9.332-48.23-45.767-36.353-114.207-55.275-182.867-55.275z" fill="url(#o)" stroke-width="1.09515"/><path d="m249.19817 117.0013c-68.66 0-137.1 18.922-182.866998 55.275.234 14.35 1.818 35.624 9.332 48.23 110.633998-60.336 236.435998-60.336 347.069998 0 7.513-12.606 9.098-33.88 9.332-48.23-45.767-36.353-114.207-55.275-182.867-55.275z" fill="#8fa2a3" filter="url(#m)" opacity=".333" stroke-width="1.09515"/><g stroke-width="1.095146"><path d="m431.77217 238.1203c-18.21448 20.58201-46.59588 30.49822-72.858 38.603-35.16385 10.85196-72.91571 12.27785-109.716 12.278-36.79992.00015-74.54378-1.45021-109.715-12.277-26.17256-8.05672-54.284833-18.04479-72.647998-38.36-10.577135-11.70151-16.234-28.786-17.77-43.857-6.865 13.628-9.770768 30.6654-9.423402 48.10811.347366 17.4427 3.947867 35.2907 10.095402 50.53989 10.48506 26.00858 33.406406 47.40677 57.933248 61.0015 42.10945 23.34041 93.38134 28.84447 141.52675 28.8445 48.14574.00003 99.4179-5.50414 141.52775-28.8445 24.52711-13.59472 47.59946-35.16522 58.04425-61.2935 6.17447-15.44581 10.10447-33.51456 10.55579-51.16311.45132-17.64854-2.57604-34.87689-10.31629-48.64189-1.79327 15.62858-6.57858 33.01875-17.2365 45.062z" fill="url(#n)"/><g><path d="m252.14648 120.89063-.88281.5371c-.70803.43206-1.40307.85089-3.06836 1.80665-.4244.24357-.76737.42927-1.125.72656-.35762.29728-.84346.98289-.75586 1.71289.0876.72999.4446 1.07515.76172 1.41797.31712.34281.69488.6875 1.18164 1.13476.48247.44332.84717.78995 1.24219 1.08985.39502.29989.89162.59037 1.50195.64453.61033.0542 1.13928-.13875 1.58594-.35742.44666-.21868.88064-.48954 1.45313-.83399.61064-.36741 1.09265-.662 1.51562-1.01758.42297-.35557.90102-.88651.95313-1.66211.0521-.77559-.33083-1.33814-.68165-1.7539-.35081-.41576-.7656-.79021-1.2871-1.25781-.55102-.49408-1.09573-.99068-1.63477-1.48829zm-.34375 3.39648c.30338.27633.60339.555.91016.83008.38052.34119.58172.54444.77344.74219-.21638.15413-.42879.30772-.85547.56445-.58234.35037-1.00137.60089-1.24609.7207-.24473.11981-.24455.0806-.14063.0898.10392.009.11701.0559-.0879-.0996-.2049-.15556-.55743-.47411-1.04688-.92383-.28351-.26051-.41109-.39326-.59765-.57227.0252-.0146.0206-.0142.0469-.0293 1.2046-.69135 1.67003-.97692 2.24414-1.32227zm53.83008 1.16992c-2.04254-.002-4.37876.66914-7.18359 1.88281-.37459.1621-.74976.32522-1.12305.48829l-4.08789 1.78515 4.38672.81445c.60572.1125 1.21097.22671 1.81641.3418.98379.18703 1.60428.35248 1.73828.43359.13399.0811.12992-.0536.17773.61719.0956 1.34166-.54974 4.97551-1.93555 12.1543l-2.30273 11.93359c-.17705.093-.35454.18604-.53125.2793-.36045.19023-1.65546.65232-2.41797.81836-.49657.10813-.96276.22622-1.40039.40039-.21881.0871-.43204.18271-.67187.35547-.23984.17276-.59284.45581-.70899 1.0625-.0743.38767.0779.86442.26367 1.10547.1858.24104.34916.33022.46485.39062.23138.12081.33664.12952.43164.14844.18999.0378.3116.0435.45898.0508.29477.0146.64473.0128 1.07422.002.85898-.0217 2.01192-.0851 3.2793-.17578 2.53475-.18135 5.4915-.46876 7.38086-.79883.51189-.0894 1.02392-.17825 1.53711-.26562l.90429-.1543.20118-.89648c.27712-1.23645.55483-2.47253.83203-3.70899.2277-1.01573.45584-2.03114.68359-3.04687.56807-.26187 1.13559-.5239 1.70703-.7832 5.08491-2.30748 11.32921-1.26836 14.83203.97851 1.77315 1.13739 2.69608 2.45741 2.82617 3.52344.1301 1.06603-.31955 2.21272-2.30078 3.5293-1.00094.66515-1.54021.81227-2.03515.75586-.49495-.0564-1.21536-.40533-2.32617-1.3418-.92573-.78043-1.79732-1.39394-2.9336-1.57227-1.13628-.17832-2.26569.0251-4.04101.375-.75686.14918-1.3633.28846-1.88086.45899-.51757.17052-.98126.31595-1.4375.84961-.22812.26683-.41911.68462-.4336 1.0957-.0145.41108.11533.75353.25586 1.00586.28106.50466.61472.79002 1.00586 1.11914 3.14452 2.64591 8.37466 2.8289 13.41211 2.00391 5.01123-.8207 10.13068-2.694 12.50195-6.17188.29817-.43732.67974-.79378 1.16016-1.08984 2.26025-1.39473 6.91747-1.06031 10.48047.64062 1.78625.85274 3.23446 1.98866 4.01172 3.09766.77726 1.10899.95358 2.02701.4707 3.10156-.79359 1.76597-1.94071 2.63493-3.05078 2.86524-1.11007.2303-2.311-.10812-3.4668-1.35547-1.57272-1.69728-4.08988-2.10344-6.27929-2.10938-1.09471-.003-2.09461.10691-2.99219.5332-.44879.21315-.92175.52895-1.22266 1.10938-.3009.58043-.26382 1.36388-.004 1.91602.92217 1.95895 2.98345 2.98409 5.32812 3.58007 2.34467.59599 5.11442.75903 7.91602.60547 2.78534-.15267 5.66159-.62667 8.14843-1.46484 2.48685-.83817 4.64715-2.00061 5.83204-3.89453 1.19543-1.91077 1.19735-4.14963.2207-5.97266-.97666-1.82303-2.75985-3.30389-5.05469-4.49023-4.58967-2.37268-11.352-3.57244-18.77148-2.61133-.67235.0871-1.31131.16604-1.83008.22461l.002-.002c-.26596.0299-.43329.0453-.63086.0645-.10836-.16197-.21125-.31575-.33789-.50586-2.02893-3.0457-5.85884-4.96665-10.52539-5.88086-4.66654-.91421-10.24026-.79992-15.96875.53711-.504.11763-1.00356.23975-1.50586.35937.1831-.84455.36582-1.68863.54883-2.5332 1.68245-7.76457 2.11678-12.91946.0215-16.11719-1.04764-1.59886-2.87737-2.44901-4.91992-2.45117zm-59.80078 1.2832-.7793.43555s-1.42929.79976-2.47656 1.50195c-.0155.009-.0256.0164-.041.0254-.0172.0116-.024.0138-.041.0254-.43215.25137-.80954.46703-1.1582.73242-.37321.28407-.84683.69484-.9668 1.44726-.11997.75243.25281 1.37304.59375 1.76953.34095.3965.74369.72818 1.26758 1.14063l-.0801-.0664c.54741.50198.94052.88329 1.33789 1.20703.39737.32375.86488.64717 1.49609.73633.63122.0892 1.18936-.10352 1.64649-.31445s.90726-.47423 1.52734-.81055c.63937-.34677 1.12559-.612 1.53711-.88476.41153-.27276.84824-.52676 1.10742-1.23438.1296-.3538.12886-.80342.0274-1.13281-.10151-.32939-.25663-.55108-.40039-.73242-.28752-.36268-.57839-.60749-.92578-.92578v-.002h-.002c-1.04265-.95275-2.95703-2.38281-2.95703-2.38281zm10.35352.98633-.77539.43946c-.58998.33515-1.18207.66865-1.77539 1-.66608.37197-1.19528.67706-1.65235 1.02343-.45706.34638-.9424.77975-1.10742 1.53711-.16502.75737.1732 1.46427.52148 1.91797.34829.4537.76448.82929 1.28907 1.28711.50076.43703 1.00195.83054 1.43554 1.13672.2168.15309.41296.28435.60938.39648.19641.11214.22362.25867.88086.30469.6578.0461.69528-.0919.90625-.17383.21097-.082.42939-.18281.66992-.30273.48105-.23984 1.04543-.55733 1.61914-.91602.60651-.37918 1.08601-.68617 1.50781-1.07422.42181-.38805.89769-1.03894.83399-1.8457s-.51619-1.28515-.93555-1.68164-.91995-.76599-1.55469-1.22656c-.59016-.42823-1.17496-.85946-1.75586-1.29102zm49.44336.46875c1.4065.001 2.07124.35586 2.63281 1.21289 1.12313 1.71406 1.23225 6.47536-.40625 14.03711-.33663 1.55354-.67284 3.10667-1.00977 4.66016l-.31445 1.44726-.006.002-.14844.6582c-.27725 1.23647-.55483 2.47248-.83203 3.70898-.21037.93839-.42052 1.87801-.63086 2.81641-.21458.0371-.43015.0739-.64453.11133-1.09105.1906-2.94367.33972-4.64062.5l2.48242-12.85547c1.38479-7.1735 2.14181-10.57618 1.97851-12.86719-.0816-1.1455-.62949-2.24535-1.49218-2.76758-.0522-.0316-.10816-.0184-.16016-.0469 1.25509-.37695 2.36776-.61806 3.19141-.61719zm-117.69532.11133c-6.69468.49786-14.69491 5.3386-22.88867 14.33594-1.38272 1.51831-2.39062 3.70508-2.39062 3.70508l-.0937.19336c-.69871-.17919-1.42839-.27512-2.22657-.10157-2.46612.53624-4.69287 1.67472-6.88281 3.50782-.43192.36154-.75918.6574-1.03125.9707-.13603.15665-.26337.31119-.38672.56445-.12334.25327-.30793.73059-.0469 1.32422.26106.59363.83935.8232 1.14453.87891.30518.0557.50743.0346.71094.01.407-.0497.80696-.15612 1.30859-.30859.41371-.12575.8109-.0778 1.42969.29297.61879.37081 1.36539 1.08706 2.10547 2.07226 1.48015 1.97041 2.93771 4.97577 4.04297 8.15821 1.10525 3.18243 1.87141 6.55842 2.08593 9.26757.10727 1.35458.0725 2.54357-.0898 3.41407-.16232.87049-.46033 1.36039-.64844 1.51757-.43906.3669-.82306.72309-1.12305 1.03711-.14999.15702-.27723.29655-.40234.4668-.0626.0851-.12482.17271-.20117.33203-.0764.15933-.31911.40442-.0723 1.11133.19154.54824.78787.88365 1.10547.94531.3176.0617.496.0256.6543-.002.31659-.0551.54794-.14291.81641-.25195.53694-.21809 1.16245-.53636 1.85156-.92188 1.37821-.77104 2.96695-1.79088 4.13086-2.73633.6643-.53962 1.96681-1.4872 2.91406-2.10937.79771-.52393 1.24658-.73429 1.72461-1.35547.23902-.31059.46008-.9463.33984-1.46094-.12023-.51464-.35943-.74774-.51953-.92578.33146.36861.1366.19675.082.0703-.0546-.12643-.13659-.33392-.23437-.5957-.19557-.52356-.45801-1.27147-.76172-2.17578-.60741-1.80861-1.38503-4.24552-2.18164-6.85742-.88886-2.91429-1.77923-5.82869-2.67188-8.74219.26844-.26355.53632-.52612.80664-.78906 2.54021-2.4709 6.25896-4.25165 10.04883-5.0293s7.62901-.5369 10.35547.73828c1.59864.7477 2.19679 1.74158 2.26172 2.7832.0649 1.04163-.46668 2.31482-1.90234 3.4668.0202-.0162-.45948.21808-1.09375.32031-.63428.10223-1.43166.14334-2.1836.11524s-1.47134-.13032-1.91406-.25586c-.22136-.0628-.37118-.13664-.38672-.14649-.0155-.01.17979.094.25977.45118-.13039-.58225-.70609-1.0607-1.10938-1.18946-.40329-.12875-.7001-.10817-.98437-.0781-.56855.0601-1.11051.23149-1.72071.4707-1.2204.47842-2.64077 1.24987-3.90234 2.20117-.42581.3211-.78393.67408-1.0332 1.15235-.24928.47826-.33694 1.13617-.15039 1.68554.37308 1.09875 1.27411 1.49341 2.14648 1.77344 1.74475.56006 4.12703.57551 6.62305-.0312 6.03001-1.46582 11.48434-4.84126 14.53711-8.43359 1.2381-1.4581 2.12337-2.97999 2.35351-4.59766.23015-1.61767-.40002-3.35274-1.83789-4.46094-.72822-.56126-1.53916-1.03131-2.41601-1.41406h-.002c-7.41643-3.24714-19.46142-.674-29.8789 6.69922-.23338.16517-.46478.33045-.69727.49609-.71406-.78754-1.50491-1.46345-2.39844-2.02343.73185-.46787 1.57452-1.18542 3.36719-3.10938 3.79224-4.06994 7.30639-6.85536 10.22461-8.39258 2.91822-1.53721 5.14111-1.76056 6.50391-1.18945.24907.10438.26991.14862.36523.2207-.0791.0499-.32085.41578-1.34766.79493-.63263.23359-1.12092.42857-1.5039.60156-.38299.17299-.6174.25313-.98047.57422-.0908.0803-.19853.17925-.32031.38476s-.27083.5946-.16797 1.04688.43242.76693.65234.90039.3707.16589.49219.1914c.48595.10207.6917.0447 1.02344.008 1.32694-.14753 3.59871-.6822 5.98242-1.4043 1.85724-.56261 3.37819-1.28874 4.54101-2.14063 1.16283-.85188 2.02142-1.83504 2.30274-3.06445s-.2884-2.60611-1.33984-3.41406c-1.05145-.80795-2.49031-1.26568-4.38477-1.49024-.89987-.10666-1.82877-.12385-2.78516-.0527zm57.67774 1.73047c.59802.46 1.45738 1.1057 2.04492 1.64258.009.008.007.008.0156.0156-.24741.14377-.43264.2585-.82031.46875-.64849.35173-1.107.61147-1.36914.73242-.26214.12096-.23365.0709-.11328.0879s.0955.0539-.15039-.14648c-.24591-.20035-.64761-.58157-1.2168-1.10352l-.0391-.0352-.0391-.0312c-.21572-.16984-.26101-.22774-.4043-.35352.15479-.095.22437-.14848.43555-.27148l.041-.0234.041-.0273c.574-.39114 1.0683-.66268 1.57422-.95508zm10.37695.94531c.35383.26034.70557.52226 1.0625.78125.48692.35331.7694.58463 1.01758.79492-.201.14725-.34634.26693-.71289.4961-.50194.31382-1.01062.59764-1.39063.78711-.0645.0322-.0924.0421-.14843.0684-.0452-.0304-.0663-.0422-.11719-.0781-.33647-.23759-.78114-.58609-1.21289-.96289-.33764-.29466-.47853-.45275-.64258-.625.2578-.17729.59057-.38796 1.12695-.6875.34058-.1902.67823-.38283 1.01758-.57422zm-65.5918.0957c1.59569.18915 2.60297.60631 3.03907.94141.4361.33511.39818.37128.33789.63477-.0603.26349-.41551.85349-1.25 1.46484-.8345.61135-2.09446 1.23902-3.7168 1.73047-.0798.0242-.1134.0231-.19336.0469.15575-.68245.002-1.47416-.4082-2.01953-.4373-.58159-1.03501-.95558-1.74219-1.25195-.76189-.31929-1.59094-.43609-2.44922-.46289 2.35299-.81574 4.56091-1.29994 6.38281-1.08399zm45.76368 6.23438c-8.35811.20342-12.98002 1.24742-15.99024 3.07422-.44443.26971-.73389.39855-1.12695.8125-.0983.10349-.21815.23135-.33203.49805-.11388.26669-.18374.78455.0273 1.21289.21108.42834.54404.61555.75195.70507.20792.0895.35211.11246.48243.13086.52125.0736.92517.0255 1.59375-.0332.66857-.0587 1.53717-.15517 2.65429-.2832 2.21476-.25381 5.61069-.45974 8.68946-.56446.88193-.03 1.12966.0145 1.9375.004-3.6235 1.71463-6.66981 3.53299-8.6543 5.46484-2.59247 2.52371-3.89706 5.24945-3.58399 7.85352.31603 2.62855 2.24672 4.78904 5.1875 6.28125 2.94079 1.49221 6.97853 2.45683 12.11915 2.88281 1.86345.15452 3.80591.18349 5.78125.11524 7.72101-.26404 16.36033-2.0367 22.35156-4.24805 3.02356-1.11598 5.47577-2.32948 7.00586-3.88867.76504-.7796 1.34837-1.73061 1.35742-2.85156.009-1.12096-.61819-2.16433-1.54883-2.94727-2.40151-2.02037-5.70549-2.35995-9.58008-1.24805-.81067.23265-1.4546.43859-1.97656.64649s-.91522.32309-1.37891.84961c-.23184.26326-.49876.80119-.39648 1.35937.10228.55819.4419.8729.68359 1.05078.48339.35576.87904.45008 1.39453.58985 1.63023.44201 2.53276 1.0298 2.8086 1.35547.27584.32566.25315.19869.0351.54882-.43598.70026-2.96196 2.22351-6.81835 2.82227-5.15389.80022-9.83006.89373-13.83594.45703h-.002c-6.72847-.73162-11.48988-3.10757-12.96289-5.5332-.72172-1.1885-.82578-2.32901-.0684-3.79688.75743-1.46786 2.54308-3.22966 5.73438-4.94726 3.68766-1.98475 4.84707-2.49927 7.20703-2.59961h.002c.97402-.0415 2.21061.002 3.88868.0937 6.2671.3442 11.96706.55672 16.63476.54297 4.6677-.0138 8.24613-.2192 10.57031-.86133.85061-.23501 1.52821-.39321 2.14844-.68164.15506-.0721.31468-.14431.53125-.33203.21658-.18773.62308-.67444.51953-1.35743-.10354-.68298-.54862-.96486-.7832-1.09765s-.4139-.18603-.60547-.23828c-.76626-.20902-1.81161-.31781-3.6543-.46289-1.84268-.14509-4.42051-.29746-7.95117-.47461-6.77628-.34-16.22491-.65854-21.16406-.82618-3.69465-.12109-6.89756-.14593-9.68359-.0781zm.0859 2.75781c2.70963-.0756 5.85396-.063 9.50586.0566 4.93998.16767 14.38474.48632 21.11914.82422.0515.003.0641.005.11524.008-.28225.003-.47099.0245-.76172.0254-4.5774.0135-10.23852-.19645-16.47656-.53906-1.704-.0935-3.01059-.1426-4.15625-.0937-1.38866.059-2.55141.28546-3.83399.75-.31915-.68749-.71836-.72309-.89648-.78125-.37209-.12148-.55907-.12208-.84571-.1582-.91067-.11475-2.95917-.0494-4.77539-.0215.37674-.0148.6109-.0593 1.00586-.0703zm24.78516 3.8086c-6.13885-.15786-11.87484-.11251-15.43164.0195-.60309.0224-1.10244.0457-1.48438.0703s-.46042-.0164-.93945.11133c-.931.24806-2.06261.69541-3.03516 1.13867-.48627.22163-.92147.4374-1.28125.64648-.17988.10455-.33826.2019-.51171.33985-.0867.069-.17869.14285-.29883.28906-.11993.14595-.35509.37906-.3418.9668.00001.0006.16764.62831.16797.6289.00016.0003.14038.20869.14062.20899.00025.00029.0926.10373.13477.14258.1687.1554.28175.20418.36523.24218.16697.076.23644.0844.29688.0977.12088.0265.18036.0305.24609.0371.13146.0132.26086.0204.42578.0273.32985.0138.7805.0243 1.35743.0332 1.15385.0178 2.7968.0287 4.79492.0469 2.18586.0198 4.67346.0469 7.50195.0977 4.67804.084 9.35401.24757 14.02344.49218l.2168.0117.21093-.0566c.69033-.18624 1.38097-.37007 2.07422-.55273 1.20388-.31721 2.40911-.7259 3.29297-1.0957.44193-.18491.77268-.32634 1.13086-.57618.0895-.0625.18483-.13171.30664-.25976.12181-.12806.32504-.31006.40039-.79883.0754-.48877-.29475-1.17668-.61133-1.39063-.31657-.21394-.51006-.22826-.66211-.25-1.57395-.22512-6.57061-.51577-12.49023-.66796zm-69.17383.24609c2.05599.0608 3.8711.41372 5.33008 1.05273h.002c.69194.30193 1.30459.66168 1.83985 1.07422.77615.5982.91732 1.0734.79882 1.90625-.11849.83286-.7004 2.0021-1.72851 3.21289-.75084.88355-1.78016 1.77446-2.92578 2.64649.33811-.82971.61267-1.67921.55859-2.54688-.13097-2.1012-1.5468-4.02205-3.83398-5.09179-2.27308-1.06313-4.95119-1.32399-7.70117-1.26172 2.73767-.66895 5.36181-1.0601 7.66015-.99219zm39.96289 3.4043c-.52266.61212-1.15629 1.20805-1.48633 1.84765-1.13148 2.19278-.9875 4.58472.16016 6.47461 2.30409 3.79421 7.82598 6.05307 15.00781 6.83399.11434.0125.25195.002.36719.0137-.0861.003-.17982.0283-.26562.0312h-.002c-1.88556.0652-3.72298.0365-5.45898-.10742-4.91383-.40719-8.65666-1.35214-11.10742-2.59571-2.45077-1.24356-3.52427-2.64581-3.70704-4.16601-.17573-1.46172.55771-3.40559 2.7754-5.56446.93484-.91005 2.26764-1.84302 3.71679-2.76757zm92.53711.62695c.84082.0886 1.79468.041 2.57227.19336 4.21676.8261 7.3564 2.58574 8.77343 4.71289.1944.29182.37823.56816.52149.78125.0716.10655.13301.19649.18164.26758.0483.0706.0265.0533.14844.20508.00041.00052.20269.20877.28711.26757.0472.0329.0802.0472.11914.0684-.40575.35321-.85916.64966-1.16992 1.10547-1.07599 1.57813-3.88882 2.89792-7 3.90039 1.46232-1.4605 2.40095-3.09576 2.19335-4.79687-.2712-2.22239-1.86487-4.08392-4.0664-5.4961-.75396-.48362-1.67003-.8365-2.56055-1.20898zm-163.4414.95703c.0419-.009 1.26395.12519 1.92578.39258 1.46614.72922 2.78284 1.75199 3.54492 2.91601l.30469.4668-.26758.26563.24219.79101c.9738 3.17708 1.94672 6.3552 2.91601 9.53321.803 2.63283 1.58397 5.08612 2.20313 6.92968.30957.92179.57869 1.69002.79296 2.26367.092.2463.16872.43916.24415.61915-.17778.13655-.15491.12566-.57618.40234-1.04278.68491-2.34032 1.62455-3.13672 2.27148-.43202.35094-1.10394.72564-1.69335 1.11914.22693-1.22188.24884-2.60847.1289-4.12304-.24032-3.03489-1.05645-6.57443-2.22851-9.94922-1.17207-3.37479-2.68725-6.56913-4.44141-8.9043-.87708-1.16758-1.81138-2.13099-2.88672-2.77539-.33871-.20297-.72767-.29562-1.10351-.41992 1.30792-.84413 2.6057-1.48886 4.03125-1.79883zm-18.03125 2.81055c-2.13267-.15233-4.40205.0911-6.68165.67773-4.55919 1.17328-9.2035 3.74214-12.98437 7.55078-.6687.67361-1.0981 1.05996-1.3125 1.22071-4.19797-1.36798-9.14772-.8777-13.89844 1.13867-4.45597 1.89248-8.613342 5.06085-11.660154 9.20508-.80579 1.09602-1.038515 1.35373-1.148437 1.52734-2.279178-1.73256-5.235739-1.92217-7.822266-.95898-2.62147.97619-4.952193 3.10701-6.140625 6.07617-.143855.35939-.28513.71886-.425781 1.07812l-1.335938 3.41016 3.244141-1.69727c.477251-.24973.956027-.49938 1.435547-.74609 1.053445-.54198 2.164255-.53961 3.365234-.125 1.20098.41461 2.434803 1.27745 3.421875 2.34961.987073 1.07216 1.719511 2.34873 2.015625 3.4668s.185342 1.97448-.289062 2.60546c-.337645.44909-.631067.86644-.84961 1.19922-.109271.1664-.19755.30713-.277343.45118-.0399.072-.07711.13739-.126954.26171-.02492.0622-.05801.13099-.08789.29493-.01138.0625-.01451.16901-.01367.28125l-.0059-.0176v.49414l.314453.3789v.002c.265339.31965.668617.47444.933593.50781.264977.0334.43557-.003.570313-.0352.269486-.0645.417661-.14468.574219-.22851.313114-.16766.610932-.37276.957031-.62891.692197-.51229 1.541128-1.22021 2.4375-2.01172 1.792745-1.58301 3.71913-3.43863 4.74805-4.70312.24203-.29745.48542-.59403.73047-.89063l.67382-.8164-2.9375-4.0625c-1.313047-1.81624-1.679339-2.87652-1.513668-3.76172.16567-.8852 1.039215-2.09818 3.144528-3.83203 2.58224-2.12664 5.70855-3.223 8.46094-3.4336 2.80914-.2041 5.0647.5138 6.19141 1.55664 1.12729 1.04339 1.47877 2.27708.40039 4.41016.0325-.0643-.67319.55857-1.57227.82031-.99664.28774-2.18754.13218-2.19922.125-.65506-.40242-1.37973-.36972-1.95703-.21484s-1.09642.43473-1.61914.79687c-1.04543.72429-2.09683 1.80381-3.04883 3.15625-.30251.42976-.53188.87689-.60937 1.41602-.0775.53913.0737 1.18951.42383 1.63281.70029.88661 1.63448.99229 2.53515 1.01172 1.80134.0389 4.01993-.58785 6.08203-1.80273.95182-.56076 1.85671-1.16995 2.70508-1.81641l.004-.004c5.03586-3.81152 8.56516-9.0909 7.58984-13.90234-.25905-1.27797.30888-2.37561 1.72656-3.49805 1.41769-1.12243 3.63172-2.04584 5.98243-2.48828 2.35689-.44359 4.7669-.39324 6.55273.13281 1.78583.52606 2.82427 1.38607 3.14258 2.65821.39316 1.57129-.13627 2.76595-1.06641 3.51562-.93013.74968-2.26522 1.02555-3.71875.35938-1.41233-.64728-2.69492-.0814-3.96094.63086-1.26601.71225-2.53769 1.78187-3.56835 3.09765-.30825.39352-.57246.91275-.53516 1.54297.0373.63023.43295 1.18209.82226 1.47461.77863.58505 1.57684.6671 2.48829.71289 1.82289.0916 4.09909-.28658 6.06054-1.24609 4.89414-2.39414 8.8192-5.72505 10.90039-9.1211 1.0406-1.69802 1.64478-3.44691 1.49414-5.17187-.15063-1.72496-1.18787-3.33132-2.89843-4.31641-1.73301-.99799-3.73061-1.54493-5.86328-1.69726zm127.34765.47265c1.14074.12929 2.06046.55014 2.86914 1.23047.53709.45185.57544.67657.57422.82813-.001.15156-.10317.47897-.57422.95898-.72157.7353-2.33913 1.6141-4.26367 2.46289.54586-1.08819.49463-2.53574-.33203-3.51172-.52736-.6226-1.28785-1.08465-2.17383-1.48632 1.5307-.40956 2.83938-.60268 3.90039-.48243zm81.08985 2.25586c2.71481.45408 5.12263 1.19697 6.9707 2.15235 1.96666 1.01668 3.30555 2.24124 3.90039 3.35156s.61742 2.03248-.13086 3.22852c-.60551.96783-2.21217 2.01774-4.38477 2.75-.89568.30188-1.91109.52573-2.93554.73046.75795-.72627 1.43959-1.6008 1.92968-2.6914.8912-1.98318.43966-4.1357-.7246-5.79688-1.07383-1.53213-2.73039-2.75189-4.625-3.72461zm-208.6504.0137c1.78904.12716 3.39809.57321 4.70899 1.32812 1.09652.63147 1.45884 1.28542 1.53711 2.18164.0783.89622-.25909 2.13041-1.09961 3.50195-.53264.86916-1.54179 1.78585-2.42578 2.69336.19526-.91345.24698-1.88208-.006-2.89257-.60258-2.40826-2.67003-3.92728-5.02539-4.6211-2.00996-.59207-4.32563-.60055-6.64453-.29883 1.0619-.44273 2.11615-1.03546 3.16992-1.30664 2.02761-.52179 3.99612-.7131 5.78515-.58593zm41.11915 2.43359c.10483.0898.16291.28968.26367.35351.36019.22821.71876.35965 1.10351.46875.60278.17093 1.30518.22669 2.00586.2793-.72066.24456-1.42411.53545-2.16211.71485-1.98529.4826-3.98796.39319-5.00195.10351.97445-.69222 2.10198-1.33829 2.96289-1.67578.38748-.1519.64507-.20772.82813-.24414zm219.70312.36719c-4.48675.0293-9.53434 1.30493-14.72266 4.38672l-3.39648 2.01757.0703.17969c-1.57805-.31853-3.24692-.68136-3.8125-.77539-5.60154-.93126-9.72827-.44237-12.19726 1.24219-1.2345.84228-2.07001 2.19087-1.95703 3.63476.11297 1.4439 1.02018 2.71666 2.41406 3.82032.95727.75796 1.89488 1.3155 3.05273 1.56836 1.15786.25285 2.43005.24436 4.36133.16992.17273-.007.34983-.0144.5293-.0215.65812-.0247 1.31645-.0453 1.97851-.0625l3.38867-.0879-2.49804-2.28906c-.42832-.39268-.86102-.78407-1.33203-1.20508-1.18852-1.06267-1.33731-2.0296-1.22657-2.38476.0554-.17759.12991-.28982.40039-.41993.27049-.1301.76966-.23661 1.52344-.14257.38442.048.77394.11021 1.16797.18554 3.59659.70612 7.23478 2.48322 9.83203 4.48828 1.29935 1.00309 2.33631 2.0638 2.98438 3.01368.64806.94987.86204 1.74885.80859 2.22461-.11638 1.03594-.9852 1.99053-2.41406 2.57421-1.42886.58369-3.29147.68-4.81055.10938-3.42992-1.28842-8.86516-1.95821-13-1.60156-.44422.0383-.85143.0808-1.22656.12695-.007.00074-.009.001-.0156.002-.93115.10378-1.63326.21294-2.16992.33985-.27025.0639-.49338.1256-.74023.23437-.12343.0544-.25493.11603-.42383.24805s-.43292.35759-.54492.8418c-.11201.4842.1253 1.06279.35156 1.30664.22626.24384.40449.31942.54883.38281.28868.12677.49645.16167.74023.20117.48758.079 1.07906.11602 1.83594.125h.008.008c.4 0 .84862-.007 1.3496-.0215 2.94967-.0836 5.40589.12259 7.13086.73437 1.72498.61178 2.70538 1.47677 3.24024 3.08399.16839.50601.00055 1.22843-.57617 2.0625-.57673.83406-1.5147 1.65437-2.30664 2.11523-1.67483.97463-3.71408 1.09246-6.05079.89648-2.3367-.19598-4.88732-.71247-7.44531-.71679-.89864-.002-1.98858-.19013-3.25781-.0879-.0796.006-.16957.0153-.29102.0351-.0607.01-.12399.0195-.23828.0527-.0571.0166-.12637.0351-.24609.0937-.11972.0587-.33507.10722-.59375.55273-.2892.49862-.19298.95953-.11914 1.18555.0738.22601.15034.33655.21094.42578.12119.17845.23242.2832.23242.2832l.21875.22266.29492.10547s1.84072.6646 4.16211 1.35742 5.0867 1.43034 7.23828 1.56445c2.43854.152 5.37444.59825 8.24609.5293 2.87166-.069 5.81244-.6821 7.91211-2.89258 1.13267-1.19244 2.28407-2.74618 2.6836-4.67383.28559-1.37792-.12838-2.90743-.93946-4.40429 3.66003.0706 6.51356-.44261 8.51563-1.6543 2.07116-1.2535 3.14256-3.47466 2.76367-5.74219-.69299-4.14738-4.56104-8.85523-13.53125-11.69531l-.0527-.0176-.0547-.0117c-.003-.00074-.0201-.003-.0234-.004l.25781-.0566c5.02961-1.08904 9.08191-1.66928 12.00586-1.55664 2.92396.11263 4.52072.82907 5.36328 2.15429.16651.26188.10104.31733.0801.35156-.021.0342-.0262.10201-.29492.0723-.38872-.043-1.64608-.18727-2.26172-.25977-.60027-.0707-.89052-.16135-1.53125-.008-.16018.0384-.37993.0788-.68164.34961-.30171.2708-.53874.96672-.43164 1.40039.21421.86736.55165.85158.74414.97656.76995.49995 1.72005.79436 3.30469 1.29297 3.71432 1.16872 6.81462 1.55346 9.11523.90625 1.15031-.3236 2.2209-1.0214 2.65625-2.16797.43536-1.14656.14762-2.40774-.52539-3.61328-2.39381-4.28793-8.31115-7.70309-15.78906-7.65429zm-39.76953 33.23437.21484-.28125-.125.12695zm-45.47852-31.43359c.46205.0725.75447.25533 1.59375.96289.3194.26927.62279.44106.93164.66406-2.51348-.0411-4.75316-.32837-6.14648-1.14062.19917-.0448.29125-.0812.5332-.12891 1.72264-.33955 2.62585-.42993 3.08789-.35742zm85.27539 1.00976c6.63895.0173 11.64899 3.093 13.3711 6.17774.44544.79791.40266 1.18236.35547 1.30664-.0472.12428-.18893.32189-.83594.5039-.96305.27093-2.93553.0949-5.21289-.3789.0948-.10983.24827-.16108.32422-.28516.57888-.94571.54435-2.23103-.10352-3.25-1.4665-2.30659-4.2006-3.29214-7.56836-3.42187-2.35609-.0908-5.27997.29278-8.48242.85156 2.88677-1.03288 5.64221-1.51045 8.15234-1.50391zm-287.90039 3.09375c2.10429-.1658 4.08499.0598 5.80274.68164.35522.1286.81845.12972 1.16797.0293-.0839.58091-.0743 1.18378.0508 1.80078.38185 1.88376-.62783 4.44317-2.46289 6.93946.24678-2.00218-.36679-3.86267-1.72852-5.12305-1.92735-1.7839-4.90292-2.52191-8.2539-2.27735h-.002-.002c-.9455.0722-1.93328.42689-2.91016.67188.61249-.32266 1.16852-.79646 1.79493-1.0625 2.21027-.93812 4.43868-1.49435 6.54296-1.66016zm225.75 1.81836c1.67432.005 3.78857.70283 4.2793 1.23242.44357.47871.99962.68635 1.50977 1.01954-1.45751-.0687-2.84426-.21259-3.99805-.50586-1.50698-.38306-2.41835-.96941-2.99219-1.56836.35022-.0793.64576-.17924 1.20117-.17774zm33.2793.51172c.39714-.0439 1.05361.0805 1.5.0625-.2647.32723-.49349.68532-.61719 1.08203-.43115 1.38276.1759 2.80818 1.18946 4.11524-1.46218.0401-2.58462.0392-3.19336-.0937-.69996-.15286-1.11384-.39039-1.93555-1.04102-1.03303-.81794-1.35556-1.5135-1.38477-1.88672-.0292-.37321.0804-.69.76954-1.16015.68909-.47016 1.94209-.88695 3.67187-1.07813zm14.9043 1.97656c.34777.0738 1.10028.22045 1.26562.25782 8.33365 2.64841 11.14958 6.68984 11.62305 9.52343.2217 1.32679-.13179 2.13102-1.48047 2.94727-1.26402.76501-3.60629 1.26819-6.79102 1.24609 1.72495-.91488 3.18641-2.32683 3.41211-4.33593.16068-1.43019-.39666-2.79772-1.26757-4.07422s-2.09996-2.50055-3.57422-3.63867c-.92866-.71693-2.08845-1.30206-3.1875-1.92579zm-252.75.82813c.78022.35759 1.57507.49739 2.35937.54492-.40528.22207-.6931.5142-1.11523.7207-1.40671.68814-3.40347 1.02264-4.67774.9668.64539-.64878 1.30865-1.33944 1.95508-1.70312.91047-.51223 1.65601-.44796 1.47852-.5293zm-45.673831 5.95312c.899505.0959 1.745099.42338 2.47461.9961.264699.2078.455782.40951.892578.6289.40633.2041 1.22.15829 1.71875-.0879.06007 1.58275.676379 3.13186 1.873047 4.78711l1.699218 2.34961c-.02393.0294-.04837.0585-.07227.0879-.696331.85576-2.408724 2.50681-3.976563 3.92578-.0062-.58774.01423-1.18005-.136718-1.75-.441372-1.66653-1.397681-3.26251-2.648438-4.62109s-2.804141-2.48174-4.542969-3.08203c-1.050661-.36272-2.182406-.4178-3.314453-.2832.92109-1.14906 1.998395-2.10029 3.234375-2.56055.945796-.3522 1.899323-.48654 2.798828-.39063zm20.656251 2.9375c1.04584.64254 2.13968.58678 3.2168.38672-.45222.30897-.88444.63471-1.36524.91797-1.59913.94212-3.50431 1.41144-4.54687 1.41016.72263-.95527 1.49925-1.78884 2.11133-2.21289.34308-.23769.63849-.36862.77148-.4043.13299-.0357.0143.0263-.1875-.0977zm246.30078 3.625c-.62636.0631-1.31921.21384-2.17578.38282-.77045.15199-1.37801.34711-1.90625.80078-.52824.45366-.80319 1.29737-.72461 1.8789.0786.58154.3075.94624.47852 1.23243.17101.28618.31221.50923.33007.54687.40744.85836 1.02272 1.79727 2.09766 2.2832 1.07494.48594 2.32634.50058 4.0332.25391.77798-.11244 1.37231-.19001 1.89453-.30664.52223-.11663 1.18098-.18395 1.65235-1.03711.23568-.42658.23957-.94417.1582-1.28125-.0814-.33708-.20929-.56993-.34375-.79687-.26891-.45389-.60696-.88906-1.04687-1.47266-.8342-1.10664-1.49308-1.98972-2.67188-2.3457-.5894-.178-1.14903-.20176-1.77539-.13868zm27.44141.98243c.33555.0991.86184.14503 1.14648.25195 1.22825.46137 2.51065.58355 3.76758.50586-.0951.32045-.2291.66811-.16797.88086.18269.63579.39208.70289.54492.86523 1.38043 1.46602 1.54162 2.59356 1.30274 3.7461-.23888 1.15253-1.05371 2.36191-1.98633 3.34375-1.39109 1.46449-3.46234 1.97827-5.99414 2.03906-1.36562.0328-2.85317-.15145-4.32031-.2832 1.16182-.18674 2.31467-.48034 3.40234-1.11329 1.1569-.67323 2.32139-1.67971 3.18164-2.92382.86025-1.24412 1.46545-2.85094.92187-4.48438-.37574-1.12909-1.01891-2.0518-1.79882-2.82812zm-26.45899 1.77734c.19485.0588.47079.30307 1.27735 1.37305.14698.19499.17626.24808.29296.40625-.27762.0426-.43176.0742-.81054.1289-1.4754.21322-2.21368.0985-2.51367-.0371-.3-.13561-.44353-.30899-.75391-.96289-.12029-.25342-.21598-.38996-.31445-.54297.0991-.0318.0383-.026.19336-.0566 1.6823-.33187 2.43406-.36743 2.6289-.30859z" fill="#fff" filter="url(#q)"/><path d="m389.4698 163.0313c13.3172-7.91024 25.3245-3.14156 28.61724 2.75659 2.23691 4.00689-2.50263 5.14865-9.63901 2.90318-3.09386-.97349-4.17003-1.60671-1.97517-1.34807.61904.0729 1.86778.2176 2.27093.26222 1.45781.16134 2.33576-1.2388 1.52139-2.51965-2.30907-3.63182-8.66039-3.40007-18.81554-1.20123l-5.37549 1.16393zm14.32466 14.20266c.60059 3.59431-2.85058 6.04889-10.22821 5.82444-2.09283-.0637-2.23301-.002-1.74974.51131 3.24415 3.4453 1.3779 6.79588-.68739 8.97016-3.49077 3.67498-10.0229 2.25463-15.08171 1.9393-3.78673-.23604-11.02163-2.84234-11.02163-2.84234s-.1648-.16765-.11789-.24853c.00001 0 .00002.00002.00003.00001l.00005-.00005c.0162-.0279.19549-.0488.29546-.0568 1.04536-.0842 2.09615.0901 3.1449.0919 4.7308.008 10.09884 2.01379 14.18771-.36564 1.94884-1.13409 4.20436-3.65369 3.49239-5.79314-1.33008-3.99681-5.65056-4.92659-11.70823-4.75495-.49131.0139-.92657.021-1.30966.021-2.86443-.034-3.07864-.54859.55336-.95161.36075-.0446.75865-.0864 1.19303-.12388 3.86482-.33336 9.29766.35431 12.40116 1.52011 3.77955 1.41973 8.69113-.47796 9.06568-3.81197.42824-3.81189-7.03284-9.71668-14.72782-11.22492-.42156-.0806-.84091-.14736-1.25632-.19919-3.79486-.47342-4.67722 2.73481-1.77878 5.32635.46702.41744.89488.80481 1.31899 1.19363-.66704.0173-1.33248.0382-1.99618.0631-.17671.007-.35335.0132-.52992.0199-3.81093.14689-4.7316-.0337-6.51058-1.44229-4.85382-3.84321-.1308-8.06881 10.66571-6.27388 1.26842.21088 8.51263 1.69938 9.79181 1.99118 8.66717 2.74413 12.01018 7.12408 12.59378 10.6168zm-47.61813 5.51271c3.39544-.66983 3.62464-.59357 5.26539 1.58305 1.76171 2.33713 1.71891 2.26213-1.41591 2.7152-3.18227.45989-3.98211-.25703-4.69993-1.76929-.38137-.80346-1.73768-2.01838.85045-2.52896zm-190.11879-39.18214c9.20575-10.10858 18.0737-14.60676 24.50105-13.8449 6.9803.82739 5.60328 5.33124-1.3559 7.43935-4.64907 1.40834-9.21496 2.10368-4.3059.29102 2.76579-1.02125 3.28868-2.61826 1.03757-3.56167-3.84699-1.61217-10.52758 1.61362-18.25955 9.91179-3.78525 4.06247-3.78929 3.14499-3.78929 3.14499s1.03274-2.12958 2.17202-3.38058zm1.47482 8.10799c.55196-.39693 1.10651-.79253 1.66361-1.18682 10.12179-7.16394 21.91429-9.46388 28.5404-6.56172.7847.3424 1.49752.75703 2.12948 1.2441 2.21402 1.70639 1.54284 4.41981-.72337 7.0887-2.79416 3.28801-8.0828 6.59551-13.81761 7.98957-4.54696 1.10532-8.99173-.23118-6.43805-2.15686 2.29149-1.72794 5.39458-2.92518 5.55746-2.19785.26999 1.20571 6.09436 1.41968 7.50928.28435 3.39792-2.7265 3.25008-6.7402-.63574-8.55764-6.19774-2.89872-16.3814-.85612-21.93752 4.54842-.47115.45829-.93948.91753-1.40493 1.37766.97399 3.17768 1.94572 6.35582 2.9152 9.53443 1.59961 5.24474 3.12 9.77889 3.38588 10.07457.43679.48575.29261.65137-1.27876 1.68343-.99502.65354-2.29537 1.59681-3.02572 2.19009-2.11858 1.72094-6.24362 4.03307-6.40274 3.57763-.00001.00001-.00002.00001-.00003.00001-.0409-.11713.57628-.76863 1.3852-1.44458 4.46621-3.73199-3.55035-29.10587-10.20203-27.08401-1.85733.56454-2.03757.27263-.42269-1.0791 2.05884-1.72336 4.04703-2.73163 6.29499-3.22043.68961-.14995 1.90982.10877 2.77472.47237 1.64719.80969 3.17666 1.96299 4.13297 3.42368zm99.40709-12.08788c14.09887.70741 12.90661 1.01596 9.49919 1.95737-4.04576 1.11777-14.26051.95679-26.76567.26998-1.69103-.0928-2.96338-.13849-4.02322-.0933-2.56864.10922-4.0845.76259-7.79942 2.76201-6.68514 3.59803-8.05509 7.5811-6.1857 10.65949 1.88855 3.10992 7.02996 5.42725 13.98512 6.18352 4.14057.45138 8.9335.35187 14.19528-.4651 8.11759-1.26036 11.22709-5.4746 4.12213-7.401-1.80784-.49016-1.4557-.95461 1.69348-1.85834 3.62859-1.04131 6.31237-.71009 8.32181.98043 2.93545 2.46956-.54544 5.19132-6.40787 7.35512-5.80939 2.14423-14.38118 3.90606-21.92483 4.16403-1.93045.0667-3.82112.0369-5.62085-.11233-10.05445-.83317-15.56095-3.81377-16.05974-7.96253-.48881-4.06579 4.07727-9.33833 14.67456-13.45778 2.22678-.86561 2.30719-.90637 1.20169-1.04567-2.14911-.27079-11.20679.0249-15.78152.54915-4.45968.51113-4.87772.51515-3.18403-.51267 3.54288-2.15005 10.22302-3.279 24.91807-2.79735 4.93957.16765 14.38617.48602 21.14152.82497zm27.52095 18.75862c.90709-.19752 2.16185-.62479 2.76727-.9443.36943-.19496.73958-.38943 1.11048-.58341l2.42867-12.58104c2.7706-14.35231 2.80459-14.07322-1.0697-14.80977-.60733-.11545-1.2148-.2296-1.82242-.34245.37182-.16242.74432-.32436 1.11749-.48584 10.8511-4.69535 13.52289-.18727 10.20193 15.13907-.33665 1.55362-.67345 3.10721-1.01039 4.66078 1.20069-.29396 2.40619-.5823 3.61661-.86481 11.10492-2.59189 21.5961-.40175 25.04207 4.77111.38791.58232.7365 1.10341.77969 1.15713.0267.0333.61205-.0164 1.48163-.11406.52877-.0597 1.17272-.13831 1.85137-.22622 14.33186-1.85652 26.15567 4.77704 22.26823 10.99067-1.7904 2.86176-7.53455 4.42486-12.89363 4.7186-5.39179.29553-10.64506-.67119-11.93014-3.40106-1.00878-2.14296 6.19135-2.16397 8.2548.0629 2.83483 3.05939 6.90343 2.27384 8.76914-1.87792 1.37408-3.05774-1.25194-6.14114-5.14009-7.9973-3.87999-1.85226-8.84174-2.38725-11.78853-.56888-.6268.38627-1.15984.8777-1.57274 1.48331-1.93645 2.84014-6.79619 4.80685-11.59335 5.59249-4.82375.79-9.77946.42629-12.30873-1.70193-1.36041-1.14469-1.04904-1.56206 1.87338-2.13809 3.49797-.68949 4.06314-.58707 5.82815.90092 2.38993 2.01484 3.74944 2.17477 6.00041.67894 4.49234-2.98528 3.43092-6.79469-.54376-9.34426-3.93907-2.5267-10.54888-3.60911-16.13717-1.07321-.77932.35364-1.55547.70967-2.32852 1.06801-.27725 1.23646-.55448 2.47293-.83167 3.70941-.2772 1.23647-.55438 2.47295-.83151 3.70943-.5151.0877-1.02956.17642-1.5434.26618-3.55946.62182-11.82864 1.17183-11.77351.884.0551-.28782.81531-.53967 1.72794-.7384zm-201.785335 32.83029c-.03972-.0479.442703-.79039 1.086991-1.64732 3.122454-4.15302-4.546682-13.26238-10.23352-10.33659-.482341.24816-.963535.49785-1.443571.74904.139398-.35606.28037-.71219.422931-1.06835 2.084012-5.20666 8.193087-7.43658 11.943194-4.49247 1.141201.89591.940328.94995 2.99885-1.85003 2.89095-3.93223 6.86315-6.95947 11.09368-8.7562 4.6678-1.98118 9.4847-2.40436 13.34597-1.00655.3939.1426.88236-.21994 2.30047-1.64845 7.20276-7.25567 17.78634-9.81447 23.87415-6.30865 5.61416 3.2331-.0207 11.59726-9.41408 16.19237-3.3814 1.65413-8.60644 1.44207-7.15575-.40997 1.8221-2.32615 4.64661-3.89499 5.88145-3.32906 3.79094 1.73744 7.70778-1.35457 6.68277-5.45112-.92089-3.6804-6.20888-4.75686-11.27677-3.80302-5.05706.95182-9.55364 3.87448-8.79784 7.60303.79262 3.91014-2.29919 8.92613-7.07819 12.54177-.80687.61508-1.66648 1.19525-2.57237 1.72895-3.69482 2.17679-8.38644 2.22277-6.61765-.29003 1.74455-2.47837 3.88221-3.91697 4.78874-3.36006.72042.44261 2.08276.37513 3.29766.0233 1.09336-.3183 2.08404-.86967 2.41172-1.51784 2.54731-5.03867-1.75454-8.39878-7.91671-7.94905-3.03074.23149-6.40764 1.42042-9.22745 3.74271-4.38037 3.6075-4.6527 5.60301-1.87013 9.45191l2.31685 3.20471c-.24723.29924-.49293.59892-.7371.89899-1.80562 2.21903-7.739775 7.52714-8.104295 7.08801zm146.400205-43.74355c-.007-.29054 2.87702-1.60729 4.45244-2.02705.16125-.043.93176-.0924 2.12204-.1366 3.51376-.13044 9.23608-.17681 15.34606-.0197 5.89054.15145 11.04357.47187 12.33103.65602.67374.0963-1.73357 1.09081-4.0108 1.69083-.69586.18335-1.39025.36851-2.08316.55545-4.68533-.24545-9.3769-.40926-14.07041-.4935-2.83417-.0509-5.32496-.078-7.51272-.0978-3.99841-.0363-6.57274-.0502-6.57448-.12756zm4.00122-14.68674c-1.99286-1.56897-1.68698-1.7904.18912-2.88316.95671-.65193 2.45594-1.49042 2.45594-1.49042s1.94015 1.46037 2.85777 2.29887c1.39409 1.27728 1.46288 1.32317-1.07428 2.69924-2.53716 1.37608-2.19536 1.42331-4.42855-.62453zm10.5094 1.15738c-2.0137-1.7574-1.88794-2.08432.71652-3.53879.59632-.33302 1.19078-.66794 1.78357-1.00469.58515.43471 1.17494.8676 1.76912 1.29874 2.49523 1.81057 2.57316 2.09259.22549 3.56033-1.07565.67251-2.14584 1.20286-2.37407 1.18686-.22849-.016-1.18812-.68862-2.12063-1.50245zm-4.70832-9.4783c1.67281-.96007 2.38752-1.3914 3.09938-1.82579.54405.50223 1.09411 1.00248 1.64989 1.50083 2.05117 1.83919 2.0916 2.06522-.29066 3.49858-2.30965 1.38965-2.20856 1.40811-4.15239-.37798-1.94382-1.78609-1.97902-1.83558-.30622-2.79564z" fill="#8fa2a3"/></g><g><path d="m400.07812 264.15625c-.37926.0397-.92988.39133-1.12304.77344-.41653.82399-.38022 1.7864-.11328 2.65039.26693.86398.73718 1.73223 1.38476 2.75781 1.31092 2.07614 3.34547 4.57041 5.40235 8.46289.12915.24441.26226.53058.74414.79297.48187.26239 1.40566.0966 1.75-.22266.68867-.63845.58325-1.01663.64453-1.46093.12255-.88861.0696-1.97235-.27344-3.07422-.55413-1.78006-2.00322-4.10521-3.80078-6.48047-.85185-1.12562-1.69282-2.12987-2.375-2.85352-.34109-.36182-.62974-.64946-.92969-.88672-.14997-.11862-.27941-.23029-.57812-.35156-.14936-.0606-.35316-.14712-.73243-.10742zm25.5254 4.26953c-4.13546-.075-7.51309 1.91379-9.70508 4.73828-2.19717 2.83118-3.20305 6.34115-4.17578 10.44531-.29829 1.16133-.59041 2.40408-.86329 3.69532-.0783.37059-.12662.53491-.18945.80273-1.99696-1.5765-4.14603-2.35745-6.11914-1.7793-2.25647.66119-3.92717 2.68421-4.89258 5.42774-.17339.49275-.30193.91597-.38086 1.32031-.0789.40435-.21592.77451.0899 1.45117.15288.33834.55578.73997.99023.86719.43445.12723.77632.0522 1.02344-.0273.49423-.1591.78859-.38794 1.15625-.67969.56397-.44753.83696-.55659 1.07031-.56055.23336-.004.70831.11435 1.60352.77735 1.79042 1.326 4.87997 4.60493 10.26562 10.69531 5.07618 5.74039 7.28513 8.52092 7.83399 9.78125.27443.63016.24024.71946.11718 1.08008-.12305.36061-.51474.99475-1.0039 1.96289-.33686.6667-.63219 1.28913-.84571 1.78711-.0819.19112-.14222.3522-.20117.51562l-.78711.55078.91797 1.14063c.29377.3652.84116.56085 1.18946.55664.34829-.004.55685-.0959.72851-.17578.34333-.15984.56359-.33865.8125-.55274.0878-.0755.2004-.22165.29102-.30664l.0703-.0449-.0137-.0156c.40838-.38885.82111-.79671 1.30273-1.37305 1.2206-1.46063 2.67101-3.49322 3.94531-5.70899 1.25997-2.19092 1.99569-3.58409 2.57227-4.65625.17333-.32232.31768-.58655.4375-.91015.11982-.32361.25636-.81338.0508-1.38281-.20558-.56944-.66174-.88077-.96875-1.03907-.307-.15829-.57294-.24587-.88867-.35351.26615.0907.0638.0267-.11914-.11133-.18298-.13806-.44245-.35054-.7461-.61328-.60729-.52549-1.39594-1.25112-2.25-2.05274-1.7081-1.60323-3.68155-3.51518-5.14648-4.87304-2.75176-2.55064-5.46261-5.16593-8.20312-7.76563.0832-.63887.16742-1.27865.2246-1.91406.12202-1.35506.41143-2.59347.81446-3.71094l.002-.006.002-.006c1.14582-3.26135 3.47754-5.91333 6.47071-7.26953 1.47796-.66966 3.0963-.98417 4.57422-.7539 1.47791.23026 2.84888.94941 4.06054 2.59375.94525 1.28276 1.04902 2.07193.83008 2.64843s-1.00957 1.33978-2.81836 1.98438c-.75097.26762-1.50303.52166-2.2539.75781l-.68165.21289-.21289.68164c-.13068.41617-.26926.83441-.41601 1.25196-.66454 1.89068-1.14069 3.34438-.87305 4.81054.13382.73308.64837 1.5589 1.41992 1.90821.77156.3493 1.55711.29586 2.38672.11328 2.91656-.64187 5.20194-2.88416 6.55664-5.64844 1.36704-2.7896 1.74357-5.97944 1.27539-9.01367-.93599-6.06611-5.08283-11.15877-10.33007-11.25391zm-331.308598 1.09766c-.993789.13826-2.133509.57343-2.777344 1.64453l-.869141 1.44726.785157.27149c-.130769.20585-.218044.37474-.501953.70898-.863601 1.01671-2.436887 2.54581-4.814454 4.70313-2.394252 2.17243-3.472419 3.07358-3.976562 3.4375-.04958-.10359-.0996-.20673-.152344-.3086-1.418738-2.76331-4.330881-5.16217-7.8125-7.21484-3.494428-2.06022-7.855013-3.89275-12.017578-3.77539-3.487486.0983-6.529181 1.39077-8.398437 3.84766-1.856936 2.4407-2.495458 5.87266-1.431641 8.97656 1.031457 3.00947 3.792635 7.0967 8.160156 11.08008.898716.81967 1.790633 1.60881 2.552735 2.27734l.01563.0117.01367.0117c1.904717 1.57988 2.854152 2.42252 4.855469 4.20703 6.998905 6.24075 11.679025 7.84254 16.833985 7.77148.247145-.003.370338-.0462.578125-.0566-.01564.00048-.03524.0135-.05078.0137-.715906.008-1.178449-.0145-1.83789.25196-.16486.0666-.365109.15121-.59961.39453-.2345.24332-.465993.76401-.40625 1.2207.119488.91339.605485 1.06129.878907 1.22461.546844.32665 1.141881.50987 2.080078.76563.938197.25575 2.177521.5376 3.78125.84961 1.492918.29045 2.575097.53342 3.542968.63281.967872.0994 1.943813.0239 2.777344-.48047 1.677925-1.0153 2.332466-2.7838 4.390625-6.3125 2.205099-3.78061 3.451329-6.10486 3.814449-8.08203.18157-.98859.0897-1.98662-.38671-2.79492-.28324-.48058-.76863-.71768-1.19336-1.0293 1.09935-.46822 2.41371-1.04604 3.55468-1.44727 3.62394-1.27436 7.09408-3.21104 9.92969-3.04687l.0469.004.0488-.002c1.26657-.0147 1.61774.19908 1.91016.88867.25237.59516.17287.73553.0664.8711-.10647.13556-.54046.43173-1.54492.48633-.60653.033-1.06399.0812-1.58594.3164-.26098.11761-.64774.26271-.90235.89453-.1273.31591-.13247.7555-.0156 1.07227.11685.31676.29737.50978.44922.64258.60739.53118 1.01863.53547 1.64648.64453.62786.10906 1.4219.17685 2.43946.19726 3.08967.062 5.50312-.66599 6.99804-2.19726 1.49492-1.53128 1.73256-3.89176.70899-5.93945-.75979-1.51999-2.12734-2.55151-3.71289-2.96875-1.56088-.41075-3.31928-.3189-5.26563.0703-3.39842.37636-7.76189 1.78057-11.31641 3.49219-2.57193 1.23847-6.330074 4.29492-6.330074 4.29492l.222656.37109c-.04294-.009-.0598-.029-.103515-.0371-1.388328-.25702-2.619666-.16901-3.951172-.0937-.624747.0353-1.121636.0684-1.542969.12305-.421333.0547-.729884-.00071-1.324219.44336-.297167.22203-.661648.82226-.617187 1.34961.04446.52734.272201.78682.429687.96679.314973.35995.591082.52696.951172.76563.09031.0599.154727.12423.222657.39648.06793.27226.08858.72909 0 1.29297-.177169 1.12776-.767468 2.64947-1.634766 4.10547-1.082963 1.81806-2.609121 3.38454-4.09375 4.36914.09905-.16814.230139-.28888.253906-.51562.04251-.4056-.105338-.77597-.251953-.99414-.293229-.43636-.544392-.52866-.771484-.64258-.227092-.11393-.452425-.1963-.703125-.27344-.5014-.15427-1.101908-.28035-1.810547-.38477-.09316-.0137-.797413-.24336-1.572266-.6289s-1.697279-.91546-2.595703-1.5c-.902112-.58694-1.76383-1.21842-2.441406-1.78125-.655637-.54461-1.121286-1.0529-1.236328-1.21485.06136-.18488.353175-.74237 1.050781-1.63867 1.411529-1.81355 4.341588-5.00229 9.673828-10.64062 6.58216-6.96001 9.902115-10.43663 11.466797-12.73242.384664-.56441.66382-1.04985.835937-1.58204.172118-.53218.21499-1.20985-.06836-1.79296-.283349-.58311-.763231-.90557-1.167969-1.10743-.404737-.20185-.796235-.32236-1.205078-.44531l-.07813-.0234-.08008-.0137c-.846405-.14823-1.822617-.24763-2.816406-.10937zm331.257808 1.64062c2.91124.0528 5.78221 2.9164 7.07032 6.90235-1.55962-1.94128-3.52366-3.07827-5.54102-3.39258-2.13635-.33286-4.26483.12112-6.12695.96484-2.11518.95838-3.89264 2.45793-5.32617 4.25977.64723-1.9565 1.38258-3.70292 2.43164-5.05469 1.75664-2.26352 4.23819-3.7387 7.49218-3.67969zm-331.210933.53516.03906.13281c-.0077-.0301-.03574-.0394-.04492-.0684-.0073-.0224.01401-.0421.0059-.0644zm.330078.53515c.522499-.0727 1.251903-.0183 1.908203.0918.165685.0518.254575.089.367188.13086-.07802.16206-.127613.29486-.333985.59766-1.248143 1.83134-4.613571 5.43301-11.195312 12.39258-5.341497 5.64812-8.267394 8.81647-9.84375 10.84179-.788178 1.01267-1.263282 1.73-1.511719 2.51367-.248437.78368-.05277 1.74126.287109 2.26172.434678.66566 1.043568 1.2184 1.822266 1.86524.764672.63518 1.682672 1.30455 2.648437 1.93554-2.535525-.95364-5.303774-2.69832-9.072265-6.05859-1.60336-1.42966-2.637217-2.31636-3.945313-3.41992.486235.30883.969356.62055 1.494141.89258.637221.33031 1.244493.24147 1.714844.10351.470351-.13795.885587-.35579 1.308593-.62109.846013-.53061 1.71562-1.27167 2.566407-2.11133 1.701572-1.67931 3.289391-3.55897 3.853515-5.38867.209603-.67982.329788-1.37301.382813-2.06055.24694-2.64673-.389413-5.40891-1.539063-7.57812-.01625-.0307-.0479-.0515-.06445-.082 1.824818 1.40027 3.365117 2.83546 4.033203 4.13671l.002.002.002.002c.06293.12137.121765.24463.177734.36719.192516.42154.268046.84518.853516 1.37109.292734.26296.807604.48234 1.259765.47461.452161-.008.78891-.15461 1.083985-.3125 1.180297-.63155 2.338301-1.81772 5.02539-4.25586 2.406416-2.18349 4.021386-3.73363 5.060547-4.95703.51958-.6117.902474-1.13755 1.164063-1.70508.168502-.36557.105633-.82621.103515-1.26562.124605-.0578.128446-.12813.386719-.16407zm-32.4375.93946c1.78068-.0502 3.778475.44667 5.767578 1.17383-4.403546.24273-7.980838 2.49338-9.095703 6.42773-.898249 3.16991-.08901 7.09539 2.558594 10.57617-3.482975-3.42532-5.840036-6.91617-6.546875-8.97851-.742377-2.16604-.248638-4.76284 1.019531-6.42969 1.289715-1.69515 3.421823-2.68848 6.296875-2.76953zm7.234375 3.79101c1.539295.10138 2.780889 1.21604 3.695312 2.94141.882016 1.66423 1.421665 4.04192 1.232422 6.04883v.0137l-.002.0117c-.03904.51472-.12661 1.01106-.269531 1.47461-.208089.67492-1.660124 2.76571-3.162109 4.24804-.750993.74117-1.523574 1.37823-2.097657 1.73829-.247524.15524-.421881.22897-.537109.27148-.527346-.28384-1.039729-.58139-1.517578-.90625-4.882544-3.52752-6.124769-8.27392-5.271485-11.28516.899359-3.17382 3.62827-4.83991 7.929688-4.55664zm363.41797 8.21875c-.19453.78416-.33713 1.58971-.6875 2.30469-1.07382 2.19113-2.80925 3.76676-4.68555 4.17969-.38707.0852-.44106.0531-.5.0488-.0354-.3486.13869-1.60042.73633-3.30078.0782-.2226.14878-.44388.22266-.66602.56024-.18309 1.11947-.36551 1.67773-.56445 1.38057-.49199 2.41112-1.18696 3.23633-2.00196zm-317.21094 2.80664.0957.002c-.022-.001-.0425.007-.0644.006-.0112.00007-.0201-.008-.0312-.008zm5.79297.29102c.9704.25537 1.52829.68135 1.96094 1.54687.64277 1.28589.50347 2.06095-.22071 2.80274-.52589.53868-1.71486.94258-3.23046 1.16016.55641-.97448.61105-2.18078.16015-3.24415-.49098-1.15786-1.54693-1.77914-2.72851-2.15039 1.70678-.3423 3.09973-.36756 4.05859-.11523zm283.85156.67383c1.13558-.33274 2.56291-.01 4.33203 1.68359.20517.19637.36068.39973.78321.63867.21126.11947.54823.26575.98828.22657.14894-.0133.22405-.12865.35937-.1836-.002.0157-.004.0311-.006.0469l-.10156.70312.51563.48633c2.89714 2.74234 5.77604 5.5246 8.72265 8.25586 1.42391 1.31984 3.40037 3.23524 5.13281 4.86133.86623.81304 1.67053 1.55455 2.33204 2.12695.33075.2862.62574.52866.89062.72852.20393.15387.41221.27372.67969.39843-.57864 1.0768-1.27126 2.38765-2.48828 4.50391-.44207.76867-.89664 1.27382-1.36914 1.98242-.0605-.37437-.10591-.74928-.26953-1.125-.93296-2.14231-3.20213-4.74277-8.29493-10.50195-5.40191-6.10877-8.41639-9.40343-10.68554-11.08399-1.13458-.84027-2.17797-1.33314-3.28125-1.31445-.2626.004-.47425.11602-.71289.17383.72626-1.39034 1.58166-2.34635 2.47265-2.60742zm-70.73047 6.62304c-.33191-.0278-.52021.0202-.71289.0664-.38535.0924-.74442.23608-1.14648.41797-.80411.36377-1.72368.8819-2.52344 1.45898-.47063.33961-.62932.60534-.94726 1.01758-.31795.41225-.68441.92441-1.0879 1.50977-.80697 1.17071-1.76129 2.63178-2.68554 4.07031-.92901 1.44594-1.84121 2.89333-2.52539 4.05273-.34209.57971-.62686 1.08487-.83789 1.50977-.10552.21245-.19333.39998-.26758.60547-.0743.20549-.25372.31806-.0996 1.01953.0687.31262.28551.70546.60937.94141.32387.23595.6695.29996.92383.30664.50867.0134.79754-.12164 1.09766-.25586.60024-.26845 1.18525-.66864 1.83008-1.16992 1.28966-1.00257 2.71815-2.3812 3.70507-3.77149 1.14898-1.61854 2.61816-3.95493 3.81055-5.94336.5962-.99421 1.12077-1.89784 1.5-2.58203.18962-.34209.34175-.62594.45703-.85937.0576-.11672.10491-.21751.15235-.33594.0237-.0592.0477-.11914.0762-.22461.0284-.10548.16707-.17422 0-.76758-.1015-.36056-.40263-.70828-.67383-.86523s-.48834-.18726-.6543-.20118zm55.62696.27735c-2.94914.21914-5.94792 1.43206-8.70118 3.28515l-.004.002-.004.002c-2.93825 2.00555-5.70337 4.93405-7.73242 8.29492-1.71554-1.9753-3.73429-3.20627-5.89453-3.10742-2.39451.10957-4.59506 1.62531-6.43164 4.08984-.29162.39131-.51926.71044-.70508 1.04493-.18582.33448-.56991.709-.2168 1.63281.17656.4619.66063.81747.99414.91992.33352.10245.56072.0871.76368.0703.40591-.0335.74738-.12638 1.17773-.25195 1.07784-.31449 1.86062-.0806 2.97656 1.18164 1.11595 1.26219 2.29284 3.60687 3.30274 6.9668.222.73858.44211 1.47759.66211 2.21679-.39029.47255-.78113.94536-1.17774 1.41602-.47113.5591-.8953 1.08493-1.21289 1.50586-.15879.21047-.28853.39061-.40039.56445-.0559.0869-.10645.16761-.16797.29492-.0308.0637-.0665.13381-.10547.27344-.039.13963-.16361.35701.0371.88477.18327.48186.65266.77086.92188.85156s.4269.0686.55273.0605c.25166-.0161.39113-.0618.54297-.10742.30368-.0912.60129-.21409.92969-.36524.6568-.30229 1.38612-.69791 1.99023-1.13867-.3349.24463-.1099.069.084-.004.19388-.0729.48939-.17664.86328-.30468.74778-.25608 1.81696-.61241 3.1543-1.07227 2.67467-.91972 6.42755-2.25539 10.92382-4.05859 1.95682-.78477 3.90482-1.61224 5.84375-2.48829 2.71405-1.20779 5.45602-2.48172 8.19922-3.8457l.22656-.11133.16993-.18554c.58894-.63658 1.17407-1.27738 1.7539-1.92383 1.2348-1.37665 2.53469-3.11902 3.53907-4.63086.50219-.75592.92634-1.44961 1.23828-2.03516.15596-.29277.28509-.55505.38672-.82226s.29578-.4351.13671-1.16407c-.0872-.39965-.54007-1.00064-1.06054-1.15234-.52048-.1517-.85339-.0255-1.08985.0664-.47291.18372-.74305.41779-1.05859.69531-.63108.55505-1.28471 1.31429-1.83398 2.16602-.22956.35595-.37872.54444-.98438.98242-.60565.43798-1.64524 1.0582-3.39844 2.00781-.18096.098-.36371.1898-.54492.28711 1.44542-3.22299 1.99056-6.04994 1.08984-8.30469-1.02262-2.55992-3.59435-4.02659-6.81445-4.56445-.96119-.16055-1.93883-.19805-2.92187-.125zm-294.457034.61328c1.230093-.0688 2.180486-.12386 3.113281.0488.271162.0502 1.006705.34158 1.189453.43554.56457.29029.80822.52722.90039.6836.0922.15638.15802.33884.0527.91211-.21057 1.14653-1.314531 3.47373-3.486333 7.19726-2.08842 3.58058-3.042164 5.10685-3.44336 5.34961-.190644.11536-.382415.1693-1.080078.0977-.697662-.0716-1.778243-.29949-3.300781-.5957-.473329-.0921-.682657-.15825-1.087891-.24414 2.302723-1.21616 4.251777-3.44054 5.642579-5.7754 1.00821-1.69256 1.727667-3.44991 1.984375-5.08398.128354-.81703.146945-1.61188-.04492-2.38086-.06147-.24635-.32421-.40799-.439453-.64453zm294.654294 2.125c.78575-.062 1.54717-.0334 2.27344.0879 2.69481.45012 4.14317 1.42828 4.72266 2.87891.51354 1.28556.21122 3.44282-1.06446 6.28125-.0787-1.63939-.69091-3.13757-1.81836-4.25391-2.11849-2.09765-5.57954-2.96778-9.59375-2.39844-.49212.0698-.9757.16692-1.44922.29297-.001.00036-.002.002-.004.002-.3378.0862-.63701.27231-.96485.38672.1844-.13427.35243-.33878.53711-.46484 2.44036-1.64092 5.00659-2.62685 7.36133-2.8125zm-191.71289 3.53906-.88281.53711c-.70803.43206-1.40112.85089-3.06641 1.80664-.4244.24358-.76737.42928-1.125.72656-.35762.29729-.84346.9829-.75586 1.7129.0876.72999.44265 1.07515.75977 1.41796.31712.34282.69488.68751 1.18164 1.13477.48247.44332.84717.78995 1.24219 1.08984.39502.2999.89162.59037 1.50195.64453.61033.0542 1.14123-.13874 1.58789-.35742.44666-.21867.88064-.48953 1.45313-.83398.61064-.36742 1.09069-.66201 1.51367-1.01758.42297-.35557.90102-.88456.95312-1.66016.0521-.77559-.33082-1.3401-.68164-1.75586-.35081-.41575-.7656-.7902-1.28711-1.25781-.55101-.49408-1.09572-.98872-1.63476-1.48633zm186.61719 1.76563c3.40283-.48264 5.98614.35046 7.2832 1.63476 1.29547 1.28271 1.66704 2.98983.21289 5.47071-.23066.39353-.46396.78547-.69726 1.17773-.62543.29199-1.25229.58126-1.87696.86719l-.002.002h-.002c-1.02516.47347-2.05488.93428-3.08985 1.38086-3.01879 1.30268-5.99614 2.48911-7.02539 3.00781-.0435.022-.15872.069-.63086-.24609-.47213-.31505-1.08475-.95913-1.5957-1.73242-.51095-.7733-.93275-1.67507-1.15234-2.46289s-.19235-1.441-.10352-1.67188c1.45204-3.77381 4.27585-6.36259 7.52149-7.18945l.008-.002.008-.002c.37252-.0997.7543-.17931 1.14258-.23437zm-259.77148 1.1875c-1.26323-.0227-2.66059.19433-4.17969.59375-.52651.13846-.94789.25818-1.31836.40039-.37048.1422-.78729.11068-1.21875.95898-.21573.42415-.1473 1.15012.0762 1.50196.22347.35183.44151.47858.625.58984.36698.22252.70057.3382 1.13672.48437.44522.14922.66497.33932.85547.67579.19049.33646.3313.87838.30469 1.66992-.0532 1.58307-.80875 4.06063-2.42383 7.125-.38306.72678-.76715 1.45375-1.15235 2.17968-.69683.15864-1.39436.31797-2.09765.46875-.76655.16436-1.47675.32683-2.02149.4668-.19684.0506-.34787.0964-.5039.14258l-.73828-.29492-.53516 1.20508c-.0262.0589-.0883.16406-.12891.41796-.005.0343.0332.10121.0312.14258l2.59961.55274-1.71679.69531-.875-1.21289c-.006.26373.009.60484.19531.87695.44806.65445.82987.61083 1.07226.66406.48478.10648 1.01682.14647 2.13282.25 1.25832.11673 3.83264 1.1055 16.3125 4.37891 2.00611.5262 4.00478 1.03269 5.99414 1.52149 2.8861.71707 5.78127 1.39382 8.68359 2.0332l.22461.0488.22851-.0254c.90421-.10514 1.80517-.21387 2.70508-.32618 1.7854-.22281 4.11512-.68886 6.05664-1.15429.97076-.23272 1.83706-.46377 2.50391-.67383.33343-.10503.61307-.20091.86914-.3125.12804-.0558.24744-.11099.4043-.21289.15685-.10191.48577-.14015.66992-.91602.0904-.38086-.001-.92545-.24024-1.26562-.23892-.34017-.51895-.49147-.74218-.58789-.44648-.19284-.79212-.21047-1.17774-.22071-.77122-.0205-1.66571.0994-2.6582.33594-.76966.18347-1.09322.24489-1.8457.19922-.75249-.0457-1.94018-.23775-4.0625-.63867-.0228-.004-.0455-.009-.0684-.0137 3.05913-1.28737 5.3025-2.77184 6.55273-4.50782 1.40759-1.95446 1.61235-4.24929.79297-6.14843-1.63296-3.78484-6.46212-6.17942-12.56445-6.7793-3.77975-.39009-8.04875-.0246-12.60157 1.33398-.0546.0163-.10944.0326-.16406.0488.0777-2.56632-.75612-4.75786-2.62109-5.82617-.97882-.5607-2.10787-.82302-3.37109-.8457zm202.58007.004c-.13614.19874-.31138.50593-.4375.6836-.005.006-.0149.0131-.0195.0195.0448-.0699.0761-.12338.1211-.19336.11685-.18188.21857-.32796.33593-.50977zm-129.76953.44141c.30323.2762.60353.55318.91016.82812.38052.3412.58172.54445.77344.74219-.21639.15413-.4288.30773-.85547.56446-.58234.35037-1.00138.60089-1.2461.7207s-.24454.0806-.14062.0898c.10392.009.11701.0579-.0879-.0976-.2049-.15556-.55548-.47606-1.04492-.92579-.28372-.26069-.413-.39319-.59961-.57226.0259-.015.0218-.0138.0488-.0293 1.20336-.69064 1.66837-.97516 2.24219-1.32031zm169.64844 1.53516c1.30533-.0597 2.70686.62608 4.17773 2.56836.16551.21854.29639.39338.4668.58007s.36932.50014 1.03711.60938c.11025.018.21157-.0502.33008-.0606-.25776.9843-.18618 1.98546.0879 2.96875.31307 1.12319.84563 2.23906 1.50586 3.23828s1.43449 1.88283 2.35937 2.5c.92489.61717 2.21621 1.00199 3.38282.41407.50443-.25422 3.82016-1.62038 6.87695-2.93946l1.45312-.62695-.01-.0176c.56908-.25328 1.14057-.50012 1.70703-.76172l.004-.002c.44779-.20498.89702-.41482 1.3457-.62305l-.14063.25977 3.90821-1.99024c1.40716-.71711 2.81383-1.45403 4.21484-2.21289.45567-.24681.56811-.34933.94141-.55859-.0541.0616-.10674.14943-.16016.20898-.51205.57088-1.02857 1.13716-1.54883 1.70118-2.62996 1.30307-5.26527 2.53141-7.88086 3.69531l-.004.002-.004.002c-1.90128.85904-3.81392 1.67044-5.73633 2.44141-4.44103 1.78105-8.14576 3.09882-10.79492 4.00977-1.04776.36028-1.78962.60947-2.49219.84765l.41016-.5-.20508-.69531c-.28966-.97633-.58184-1.95243-.875-2.92773-1.0734-3.5712-2.30925-6.22151-3.87305-7.99024-1.07886-1.22025-2.44801-1.95209-3.86914-2.11719 1.19245-1.22811 2.36057-1.97657 3.38477-2.02343zm-242.54688.7832c.9196.0152 1.62347.18735 2.09766.45898.94837.54326 1.44436 1.48091 1.30078 3.61524-.0357.53086-.0702 1.06272-.10351 1.59375l-.0898 1.44922c-1.41627 1.27295-2.21221 3.2036-2.58008 5.07812-.22601 1.1517-.28327 2.28459-.01 3.33985.27351 1.05525 1.11983 2.18733 2.39258 2.38867.19769.0313 1.32004.27702 2.64648.59179 1.32644.31478 2.94487.71052 4.45703 1.08594l1.20117.29688.002-.006c.7475.18323 1.49446.36996 2.24023.54883.29779.072.59655.14176.89453.21289l-.3164.11328 4.80859.97851c1.55941.31754 3.12064.62468 4.68359.91992.15313.0289.17027.0218.31446.0488-.78922.0983-1.58057.19243-2.37305.28516-2.80569-.62003-5.60343-1.27381-8.39258-1.9668h-.002-.002c-1.979-.48623-3.9657-.9894-5.95704-1.51172-7.42196-1.94674-10.83599-2.94233-13.12695-3.58789l.53711-.125.29297-.55078c.4858-.91396.96876-1.82886 1.45117-2.74414 1.72678-3.2763 2.66115-6.01668 2.73828-8.31055.0386-1.14693-.14719-2.20874-.6582-3.11132-.16965-.29965-.42539-.53241-.66406-.7793.78155-.13853 1.61659-.32243 2.21679-.3125zm66.92774.13281-.77735.43555s-1.42929.79976-2.47656 1.50195c-.0164.01-.0268.0179-.043.0274-.0163.011-.023.0125-.0391.0234-.43219.2514-.81147.46701-1.16016.73242-.3732.28408-.84682.69484-.96679 1.44727s.25476 1.37303.5957 1.76953c.34095.3965.74174.72818 1.26563 1.14063l-.0781-.0664c.54741.50198.94052.88328 1.33789 1.20703.39738.32375.86488.64716 1.4961.73633.63121.0892 1.18739-.10157 1.64453-.3125.45713-.21093.90726-.47423 1.52734-.81055.63937-.34677 1.12754-.61395 1.53906-.88672.41153-.27276.84629-.5248 1.10547-1.23242.12959-.3538.12886-.80537.0274-1.13476-.10151-.3294-.25664-.55109-.4004-.73243-.28751-.36267-.57838-.60749-.92578-.92578v-.002c-1.04265-.95275-2.95898-2.38281-2.95898-2.38281zm10.35547.98633-.77735.44141c-.58997.33515-1.18206.6667-1.77539.99804-.66608.37198-1.19527.67902-1.65234 1.02539-.45707.34638-.9424.77779-1.10742 1.53516s.17319 1.46427.52148 1.91797.76643.82929 1.29102 1.28711c.50076.43703 1 .8325 1.43359 1.13867.2168.15309.41491.2824.61133.39453.19642.11214.22167.25867.87891.30469.6578.0461.69723-.0919.9082-.17383.21097-.082.42744-.18281.66797-.30273.48105-.23984 1.04543-.55733 1.61914-.91602.60651-.37918 1.086-.68617 1.50781-1.07422s.89769-1.03894.83398-1.8457c-.0637-.80676-.51423-1.28515-.93359-1.68164s-.91995-.76599-1.55469-1.22656c-.59016-.42823-1.17691-.85947-1.75781-1.29102zm-10.57617 2.31055c.59802.45999 1.45738 1.1057 2.04492 1.64257v-.002c.01.009.008.009.0176.0176-.24753.14385-.43222.25826-.82032.46875-.64849.35173-1.107.61147-1.36914.73242-.26214.12096-.2356.0709-.11523.0879s.0955.0539-.15039-.14648c-.24591-.20035-.64761-.58157-1.2168-1.10352l-.0371-.0351-.041-.0312c-.21651-.17046-.26077-.22942-.4043-.35547.15461-.0949.22479-.14678.43555-.26953l.043-.0234.0391-.0274c.574-.39113 1.0683-.66267 1.57422-.95507zm10.37695.94726c.35388.26037.70748.52028 1.06445.7793.4875.35373.77137.58456 1.01953.79492-.20106.14742-.34885.26802-.71679.49805-.50195.31382-1.01062.59764-1.39063.78711-.0636.0317-.0911.0405-.14648.0664-.045-.0303-.0665-.0404-.11719-.0762-.33647-.23759-.7831-.58804-1.21484-.96484-.3366-.29376-.4765-.45087-.64063-.62305.25777-.17731.58831-.38974 1.125-.68945.34002-.18989.67878-.3812 1.01758-.57227zm134.42578.18946c-1.17545.056-2.37966.22192-3.5957.48632-4.86416 1.05763-10.00097 3.70573-14.49024 7.63868-.25953.22737-.37179.31902-.5625.48437-.36919-.93561-.88689-1.92861-1.48828-2.64844-.24606-.29451-.50134-.79906-1.21094-1.1914-.70959-.39235-1.47911-.45206-2.64257-.43555-2.32694.033-6.63282.48674-16.05079 1.38477h-.002c-3.93408.37884-8.80011.76248-14.875 1.04296-14.92122.68892-27.51411.42816-29.27539.34571-1.49097-.0698-1.76693-.17816-1.95898-.19141.0353-.17455.1143-.27296.0664-.58203-.0469-.30236-.25079-.7602-.61914-1.0293-.36834-.26909-.74237-.30903-.99609-.30664-.50744.005-.79279.12591-1.1836.26758-.3908.14167-.84634.33234-1.42382.58008-.6345.27219-1.20635.54357-1.71875.8164-.93202.49459-1.66495.98291-2.23243 1.53711-.5678.55454-1.05147 1.24041-1.03711 2.14649.0144.90607.64664 1.66007 1.3086 2.06055.66196.40047 1.43104.62469 2.36914.7871h.002c.99744.1714 2.18703.25495 3.58789.25391.1147-.00007.22907.00009.34375 0-2.67015 2.00921-4.38336 4.09315-5.01367 6.23438-.38652 1.31313-.37259 2.63787.01 3.83203 1.03705 3.2399 4.51121 5.32362 8.8125 5.91015 4.30129.58654 9.59777-.32884 14.79297-3.47461.2577-.15604.51412-.31239.77148-.46875 2.32967 2.73675 6.12149 3.94126 10.34375 3.77149 4.29381-.17265 9.10813-1.73126 13.66016-4.69336.25831-.16809.51213-.33907.76953-.50781.21891 2.32496.43735 4.64951.65429 6.97461.4965 5.32118.67871 7.9487.39454 9.10156-.14209.57643-.3013.8168-.73633 1.20703-.43504.39023-1.18924.86384-2.27149 1.53125-.18174.11208-.30171.20315-.47265.3125l-.041-.49414-1.70508 1.70508c-.0446.0368-.10238.0761-.14453.11328-.0883.0778-.16984.1524-.27539.27734-.10555.12495-.43718.16119-.36328 1.07422l-.006-.10937v3.30468l1.82813-1.82617c.24156-.0135.47884-.0215.71093-.0742.66828-.15175 1.45635-.42597 2.37891-.79883 1.84512-.74571 4.17483-1.88738 6.36133-3.19726.90868-.54438 1.69284-1.01407 2.32617-1.40039l.0117-.008.0117-.006c1.70762-1.08807 2.61187-1.49675 3.16015-2.66211.27415-.58268.22984-1.27225.11133-1.71875-.11851-.44651-.26841-.78674-.41406-1.22266-.0294-.088-.18585-.73075-.34766-1.57812-.1618-.84737-.35714-1.96087-.56836-3.25196-.42243-2.58217-.91474-5.88169-1.37695-9.27539-.49622-3.64235-.99239-7.28535-1.48828-10.92773.92792-.0779 1.85609-.15454 2.7832-.23828 1.79626-.16224 3.08056-.28704 3.82031-.19727.73976.0898.90586.16217 1.32422.84375.83674 1.36317 1.64851 5.57237 3.10547 14.15625 1.26882 7.47606 1.87475 11.16905 1.78125 12.86133-.0467.84614-.17097 1.08685-.43359 1.39648-.26263.30964-.83063.70981-1.72852 1.32618-.59548.40878-1.07124.80516-1.42578 1.48046-.17727.33766-.46525.9835.0156 1.73047.24043.37349.63461.58966.93164.66992.29703.0803.53077.0737.74804.0527.8691-.0839 1.67731-.44565 3.05078-1.16797 1.37348-.72231 3.22119-1.83442 5.7129-3.49805 1.04455-.69741 2.0855-1.39815 3.11914-2.10351l.74804-.50977-.17773-.88867c-.60093-3.01337-1.20095-6.02746-1.80078-9.04102-.98838-4.96569-2.1745-10.40945-2.67969-12.24414-.2133-.77464-.4244-1.54939-.63672-2.32421.60051-.57582 1.20186-1.15193 1.79492-1.73047 4.47971-4.37011 10.45554-5.46456 14.55078-4.39844 2.05238.5343 3.59314 1.59478 4.29493 2.9043.70179 1.30951.77139 2.98945-.60352 5.4082-.20941.3684-1.05548.88365-2.13086.99609-1.07537.11244-2.22831-.17773-2.78125-.63867-.70823-.59039-1.83385-1.00094-2.85156-.75-1.01772.25095-1.87449.83979-3.11719 1.74024-1.23094.89192-2.01013 1.36008-2.51562 2.38671-.25275.51332-.26357 1.37108.0547 1.9043.31826.53322.71271.77875 1.10743 1.01367 2.57581 1.53306 5.69627 1.41055 8.61523.42188s5.73216-2.84642 7.98633-5.11133c2.26675-2.27754 3.93272-4.90177 4.55664-7.54688.62392-2.6451.0526-5.46783-2.16016-7.30664-2.4732-2.05524-5.73146-2.86737-9.25781-2.69921zm-91.61719 13.19335.11524.0195h.11718zm-101.32226-12.51171.004.002h.004c5.49498.54018 9.35846 2.91385 10.31836 5.13867.47705 1.1057.44002 2.15961-.5 3.46484-.80909 1.12345-2.5944 2.36012-5.18945 3.49415.49642-.61212.91439-1.26275 1.15039-1.98829.74744-2.29793-.0137-4.87017-1.92383-7.0039-1.1454-1.27952-2.51347-2.27427-4.01563-2.97071h-.002c-.13802-.0639-.29544-.0758-.43555-.13476.18659.015.40623-.0209.58985-.002zm-6.85157 1.66211c2.00348-.1354 3.90012.19583 5.54883.95898 1.17604.54563 2.23079 1.31358 3.125 2.3125 1.45155 1.62149 1.76382 3.09267 1.36133 4.33008-.40249 1.2374-1.65027 2.48557-4.13086 3.25586-.50386.15647-1.00945.31268-1.51562.46679-.63673-.14977-1.27247-.30138-1.90821-.45507h-.002-.002c-1.14046-.27353-2.28104-.55219-3.42383-.83594l-1.20313-.29883-.002.006c-1.13153-.27833-2.29874-.56613-3.2793-.79883-1.34085-.3182-2.31286-.54759-2.85156-.63281-.0784-.0124-.0549.0727-.16992-.37109-.11501-.44376-.12499-1.26113.0449-2.12696.33983-1.73166 1.47904-3.5895 2.21289-3.97656 2.08043-1.09731 4.19184-1.69859 6.19531-1.83398zm30.52735.23437c-1.19053.16816-2.48636.56121-3.90625 1.12305-.55811.22083-1.01018.42181-1.39258.63281s-.73264.29725-1.0918.99219c-.17957.34747-.22677 1.04474.0391 1.49023.26584.4455.58725.591.82226.68945.47002.19691.83971.22459 1.32617.25977.7691.0556 1.04005.19596 1.20117.37695.16113.18099.38843.6705.40821 1.83399.0395 2.32698-.79538 6.8822-2.58399 14.55469-1.49128 6.39697-2.29614 9.66507-2.99609 11.20312-.34998.76902-.6078 1.06374-.93945 1.30859-.33166.24486-.84783.46107-1.69141.76954-.67529.24692-1.29499.49099-1.77344.69726-.23922.10313-.44016.19471-.62109.28906-.0905.0472-.17247.0914-.28516.16797-.0563.0383-.12121.0805-.21875.17383-.0975.0933-.28438.19587-.40234.70313-.12902.5546.2898 1.34551.63476 1.57421.34497.22871.56895.25252.7754.28516.41289.0653.78217.0531 1.23828.0234.91221-.0594 2.10074-.23201 3.48047-.49219 2.75946-.52036 6.23891-1.38898 9.22656-2.42578.48866-.16959.90744-.29205 1.36133-.78711.22694-.24753.43831-.65367.46484-1.06641.0265-.41273-.0996-.7542-.22852-.99609.26264.49256.14216.46723.14258.47852.00043.0113.00021-.0364.004-.10743.007-.14198.0276-.38817.0625-.70117.0697-.62599.19219-1.53031.35547-2.62695.32656-2.19329.81858-5.16326 1.39453-8.36524.66572-3.7009 1.33165-7.403 2-11.10351.55613-.36012 1.11358-.71963 1.66601-1.08203 3.33309-2.18658 7.0567-2.46956 10.03321-1.59766s5.06149 2.85963 5.45312 5.05274h-.002c.14847.8348.0709 1.71356-.35156 2.68359v.002c-.27844.64152-.71274 1.32364-1.34766 2.0293-.86178.95781-1.36339 1.1829-1.68164 1.19141-.31825.008-.93261-.22083-1.96094-1.14844-1.77512-1.60126-4.36117-1.56089-6.49609-1.09961-1.06746.23064-2.04122.57485-2.81445 1.30664-.38662.3659-.73688.88621-.82032 1.5332-.0834.647.14369 1.31325.50977 1.8125 1.56869 2.13936 4.3054 2.86175 7.15039 2.78711 2.84498-.0746 5.95151-.93137 8.76758-2.32031 4.48756-2.18499 8.22741-5.65287 8.63867-9.87695.0495-.50893.37044-.92407 1.28711-1.35547.91667-.43141 2.32424-.7121 3.84961-.74024 3.05236-.0563 6.64742.94474 8.30859 2.59766 1.58515 1.57729 1.78257 4.5894.91406 6.46484-.43425.93772-1.04392 1.50459-1.69726 1.68555-.65335.18096-1.55411.0875-2.89844-.94727-.51717-.39809-1.0316-.79737-1.54492-1.19726l-.52344-.4082-.64648.16015c-.53578.1324-1.07179.26439-1.60938.39453-1.46984.35581-2.64521.85335-3.53711 1.50782-.89189.65446-1.60381 1.55382-1.58008 2.70312.0237 1.1493.87302 2.06965 1.88477 2.57227 1.01175.50261 2.30029.76411 3.94922.83007 5.50831.22038 10.68844-2.18797 14.0957-5.46289 1.70363-1.63745 2.97954-3.50377 3.57617-5.47656.59664-1.97278.45473-4.12081-.73632-5.89844-2.14618-3.20312-5.60838-4.94418-9.59961-5.24023-3.99124-.29606-8.54768.76147-13.32227 3.00781-.50678.23843-.93259.41943-1.31641.58008-.0124-.0206-.0227-.0339-.0352-.0547-1.22211-2.04778-3.21134-3.47306-5.55469-4.3125l-.004-.002h-.004c-4.88776-1.72046-11.47206-1.14518-18.20508 1.52734-.62441.24785-1.12549.42951-1.61328.60742-.0295-.1732-.0556-.29992-.0859-.48632-.39727-2.43688-1.62105-4.37077-3.625-5.05469-1.00197-.34196-2.08681-.39863-3.27734-.23047zm-14.10547 37.26563-.0371.15234v.1582zm183.47851-37.10743c2.99567-.14438 5.5698.5507 7.39844 2.07032 1.39679 1.16074 1.70679 2.61721 1.2461 4.57031-.3671 1.55631-1.4442 3.30231-2.82227 4.96875.5534-2.01999.40675-3.91085-.42187-5.45703-1.17699-2.19622-3.44119-3.591-6.01758-4.26172-1.76749-.46013-3.75705-.46397-5.79102-.24219 1.09974-.4065 2.22478-.99405 3.28516-1.22461 1.08029-.23489 2.12449-.3757 3.12304-.42383zm-169.01953 2.58594c.88455-.12545 1.56787-.0833 2.04102.0781.9463.32296 1.49853 1.0124 1.80664 2.90234.089.54585.17622 1.05216.24805 1.4375.0359.19267.0682.35446.0957.48437.0138.065.0258.12088.041.18165.008.0304.0149.0605.0293.10742.0144.0469-.0101.0607.13281.30664.00025.00043.2906.34924.29102.34961.00028.00024.10407.0713.1875.12695-.13449.087-.26763.17483-.40234.26172l-.5.32226-.10547.58399c-.70366 3.89517-1.40668 7.78995-2.10742 11.68555-.58013 3.22522-1.07382 6.21649-1.40625 8.44921-.16622 1.11637-.29275 2.04058-.36914 2.72657-.0382.34299-.0637.62267-.0762.86133-.001.0198-.001.0394-.002.0586-2.181.7515-4.58955 1.30184-6.82812 1.79492.2944-.39219.65555-.65963.88867-1.17187.9461-2.07893 1.67795-5.3169 3.16992-11.7168 1.79818-7.71354 2.70689-12.24318 2.65625-15.22266-.0253-1.48973-.30204-2.7093-1.10156-3.60742-.18562-.2085-.43622-.29188-.6543-.44141.68016-.20817 1.43045-.4828 1.96484-.55859zm144.95899 1.75c.99998-.0142 1.2986.10551 1.27734.0937-.0213-.0117.0325.0665.43555.54883.25265.30241.90171 1.42793 1.125 2.0293.15521.41804.25428.7443.44922 1.125.0975.19035.21972.41407.49023.65039.11024.0963.31003.0976.4707.16797-.10735.10268-.21271.20599-.32031.30859l-.59179.5625.21679.78906c.28366 1.03688.5681 2.07282.85352 3.10938.42187 1.53207 1.65203 7.12523 2.63281 12.05273.54067 2.71633 1.08149 5.43225 1.62305 8.14844-.77983.52933-1.55955 1.0591-2.34571 1.58398-1.28178.85581-1.93637 1.19234-2.87304 1.75977.11835-.41816.22936-.84457.25586-1.32422.1346-2.43625-.54873-6.00138-1.81641-13.4707-1.45524-8.57375-1.95102-12.65311-3.4707-15.12891-.75984-1.2379-2.03347-1.97375-3.32813-2.13086-1.29465-.15711-2.6387.0307-4.39648.18945-1.39782.12626-2.79734.24632-4.19727.35938l-1.4414.11523.19531 1.4336c.56055 4.11768 1.12066 8.23587 1.68164 12.35351.4653 3.4164.96103 6.73366 1.38867 9.34766.21382 1.307.41107 2.43719.58008 3.32226.16901.88508.28218 1.46487.43945 1.93555.16228.48567.28345.79493.33594.9668.0308-.11107-.46134.43307-2.06836 1.45703-.61493.37493-1.38567.83614-2.28516 1.375-.59614.35714-1.12774.54695-1.73828.875.158-.32001.45202-.53348.54102-.89453.51506-2.08951.16972-4.69705-.32617-10.01172-.28758-3.08204-.57811-6.16426-.86914-9.24609l-.21485-2.28516-.0762.0508-.41406-3.82422c-.10416-.96225-.23958-1.93024-.375-2.73437s-.19503-1.30288-.4336-1.89063c-.11528-.28403-.23108-.56938-.3457-.85351l-.38281-.94727-1.01563.0977c-2.20493.20966-4.41847.39286-6.64062.55468-2.22216.16183-4.45332.30241-6.69141.42383l-.43945.0234-.18164.14453-2.50781.084c-3.26527.10878-6.54386.1824-9.83594.23242-3.2921.05-6.59793.0774-9.91406.0918l-.44141.002h-.002l-2.58594.008c-1.49991.004-3.00166.005-4.50586.006-1.28606.00096-2.33681-.0805-3.11914-.21484h-.004c-.60193-.10465-.92178-.24344-1.16406-.35547.28161-.27003.80581-.64989 1.57617-1.0586l.002-.002c.43189-.22997.93478-.47013 1.50976-.7168.22734-.0975.33434-.135.51758-.21093.1473.39298.20405.82801.50586 1.01953.99553.63171 1.85124.57671 3.88476.67187 2.075.0971 14.50882.34789 29.53125-.3457 6.12147-.28264 11.03665-.6682 15.00977-1.05078 9.42448-.89865 13.83012-1.34467 15.83008-1.37305zm-126.68555 1.01367c2.79034-.23457 5.29037.0159 7.26367.70899 1.88825.6764 3.28543 1.72859 4.12696 3.13867.15725.26349.31225.51101.4414.71094.0646.1.12102.18693.17578.26562.0548.0787-.0107.0593.26758.32227.00045.00042.1431.12119.21094.16406.0628.0397.12113.0675.17578.0918-.15614.35305-.42314.64447-.46289 1.05273-.23031 2.36555-2.60516 5.03227-5.9082 6.96094.43983-.60216.92816-1.19885 1.19726-1.81836.62391-1.43269.77972-2.90466.53906-4.25781-.62591-3.5051-3.65691-6.1109-7.3789-7.20118-.22615-.0662-.47892-.0737-.71094-.1289.0199-.002.0426-.008.0625-.01zm28.21289 1.64063c3.3481.24835 5.86714 1.55733 7.52735 4.03515.70317 1.04948.80745 2.20376.39062 3.58204-.41683 1.37827-1.41433 2.91163-2.85352 4.29492-.43148.41472-.96809.77621-1.4707 1.15625 1.29071-2.90777 1.07278-6.85994-1.50586-9.42578-1.98613-1.97628-4.92612-2.76491-7.83984-3.07813 2.08133-.48958 4.02728-.69238 5.75195-.56445zm77.36133 2.22265c-.0198-.0251.13849.54133.25586 1.23829.12477.74087.25346 1.66783.35156 2.57421l.30469 2.80664c-.36956.42426-.73941.84851-1.11328 1.27149-.71121.80461-2.147 1.96489-2.76758 2.30273-5.06088 2.75517-8.85075 1.47374-10.83203-.77343-.99064-1.12359-1.50314-2.51109-1.45508-3.83008.0481-1.31899.60583-2.59055 1.97852-3.67383.4397-.347.87787-.69459 1.31445-1.04297 2.10436-.11651 4.20362-.246 6.29687-.39844 1.89453-.13796 3.7814-.30234 5.66602-.47461zm-19.76367 1.25586c-2.83626 2.22405-4.88508 4.66639-5.27539 7.32227-.14988 1.01982-1.28591 2.38-2.88672 2.95508-3.96493 1.42436-7.50416-.0626-9.23828-2.26172-.86957-1.10277-1.27072-2.34775-1.14258-3.53516s.75444-2.39548 2.30859-3.51953c.34122-.24678.68087-.49317 1.02149-.74023 3.1733-.0148 6.34082-.038 9.49804-.0859 1.91055-.029 3.81084-.0876 5.71485-.13477zm2.51367 1.41602c-.42615.90856-.70729 1.86062-.74219 2.81836-.076 2.08548.72061 4.13185 2.13867 5.74023 1.26752 1.43763 3.10759 2.41495 5.22461 2.8711-.78957.1296-1.64458.435-2.38672.46484-3.70833.14911-6.64167-.92032-8.25-2.88867-.21353-.26133-.42583-.52351-.63867-.78516l-.74609-.91601c.11767-.33006.26855-.64779.32031-1 .24369-1.65819 1.91684-4.00156 4.84375-6.13086.0793-.0577.15715-.11613.23633-.17383zm-22.93555.36523c-.4062.78132-.75284 1.58199-.84179 2.40625-.21533 1.99527.47019 3.94748 1.71289 5.52344 1.45312 1.84281 3.74385 3.10787 6.36523 3.57422-1.97923.36656-3.85684.44423-5.49609.2207-3.62094-.49375-6.00144-2.2418-6.57422-4.03125v-.002c-.21492-.67122-.23641-1.38631.01-2.22266.42751-1.45227 1.74228-3.27172 4.41016-5.17187.1384-.0986.27571-.19827.41406-.29688zm80.63282 2.86914c.25255-.0623.0663-.12261.44531.19336 1.09195.91028 2.46439 1.18377 3.82422 1.20508-.55637.26766-1.10438.62882-1.65821.81641-2.21325.74964-4.21242.70707-5.82812-.0449.25044-.23609.31638-.33896 1.05078-.8711 1.16889-.84696 1.91346-1.23655 2.16602-1.29883zm-149.52149 4.32422c.76904.1 1.40925.29654 1.6543.51758.54922.49543 1.09436.88579 1.65234 1.20508-.80211.14864-1.62748.34598-2.36133.36523-2.18809.0574-3.76145-.52111-4.63476-1.50976.23775-.15405.62348-.37815 1.25976-.51563.76277-.1648 1.66065-.16248 2.42969-.0625zm25.48633 1.70117c.34393.26683.68577.53485 1.03125.80079.76108.58584 1.5358.92151 2.30078 1.18164-1.34864.32138-2.72661.53071-4.12891.47461-1.39588-.0558-2.35857-.30779-2.83984-.54688-.48127-.23908-.36757-.28887-.36523-.17578.002.11309-.0153-.0886.46289-.43945.47817-.35088 1.34902-.76141 2.56054-1.05469.32713-.0792.65209-.16022.97852-.24024zm-15.07422 6.7168c-1.01817.0421-2.04421.26735-2.99414.72461l-.008.004-.008.004c-.0563.0281-.11407.0568-.17187.0879-.80621.43322-1.61522.86589-2.42773 1.29493l-1.81836.95898 1.58593 1.30664c.14894.12278.30002.24456.44922.36719l-.01.006 1.65039 1.33789c.0367.0297.0746.0601.11328.0898l.01.008.01.006c1.70622 1.26724 3.90521 1.60809 5.83789 1.39063.96634-.10873 1.87857-.36132 2.66602-.8457.78744-.48439 1.50161-1.31354 1.60351-2.37891.10102-1.0562-.4116-2.02973-1.08984-2.66602-.67824-.63628-1.52468-1.0483-2.44727-1.32226-.92259-.27397-1.933-.4151-2.95117-.37305zm.125 2.76367c.70654-.0294 1.43204.0518 2.04688.23438.61483.18258 1.10632.46146 1.35351.69336.2472.2319.24854.30291.23828.41015-.004.0421-.005.11656-.31445.30664-.30901.19009-.87386.38263-1.53516.45704-1.3211.14864-2.97816-.18519-3.89648-.86524-.001-.00076-.003-.001-.004-.002l-.0391-.0312c-.00071-.00058-.001-.001-.002-.002-.16285-.13239-.3238-.26588-.48633-.39844.20897-.1118.42035-.22192.6289-.33399.025-.0134.051-.0273.0781-.041.001-.00054.003.00054.004 0 .53688-.2577 1.22255-.39835 1.92773-.42774z" fill="#fff" filter="url(#p)"/><path d="m154.93207 352.57003c.0243-.1045 1.12664-.57565 2.43797-1.05515 3.41357-1.2482 3.50726-1.45962 6.49052-14.2565 3.58679-15.38604 3.48672-18.17044-.26073-18.44145-1.68098-.12157-1.40318-.59318.70325-1.42666 5.40172-2.13742 8.24868-1.21835 8.95406 3.10847.17487 1.0727.34853 1.99554.38056 2.05066.032.0551 1.46703-.44173 3.17337-1.11903 6.50458-2.58185 12.82831-3.06413 17.24658-1.50893 2.1158.75792 3.80915 1.9968 4.84097 3.72573.29849.50016.59148.9522.64966 1.00718.0577.0546 1.17046-.38864 2.46082-.99573 9.23746-4.34603 17.39422-3.92468 21.2006 1.75627 3.78846 5.65421-5.61055 15.11278-15.74355 14.70738-6.08964-.2436-5.81178-3.61756-.44904-4.91574.53971-.13066 1.07847-.26246 1.61632-.39537.51548.40157 1.03288.80215 1.55207 1.2018 6.28302 4.83634 9.68093-5.07934 5.48138-9.25806-2.1053-2.09485-5.96493-3.05895-9.3004-2.99748-3.33423.0615-6.26017 1.15175-6.47253 3.33288-.33513 3.44215-3.65366 6.72427-7.88242 8.78177-5.30728 2.61766-11.81805 3.20992-14.20745-.0487-1.71028-2.33244 5.33316-3.76966 7.59837-1.72631 2.26799 2.04587 3.64443 2.00462 5.57821-.14463.72128-.80164 1.24096-1.6073 1.58498-2.39991.52317-1.20136.63973-2.37637.44517-3.47035-1.01754-5.69821-10.22717-9.18671-17.5844-4.36021-.71551.46939-1.43409.93686-2.1558 1.40235-.7036 3.89484-1.40573 7.7899-2.10641 11.68517-1.15607 6.4272-1.97268 11.92185-1.81934 12.20943.20355.38181-.0212.6292-.83918.91307-5.79743 2.01188-13.75893 3.43472-13.57361 2.63808zm134.90031 5.58999c-.0115-.14209 1.05248-.90946 2.35622-1.71346 4.31269-2.65957 4.25102-2.4966 3.25863-13.13247-.28753-3.08154-.57678-6.16296-.86777-9.24429-.88284.58989-1.77186 1.17581-2.6665 1.75798-8.7291 5.68021-18.4058 5.88611-22.33191 1.08112-.2142-.26214-.42801-.52442-.64145-.78681-.58714.35834-1.17538.71586-1.76457 1.07263-9.88459 5.98526-19.98184 3.34673-21.59167-1.68263-.29864-.93269-.31616-1.95354.00019-3.02828.54923-1.86579 2.10167-3.88641 4.92914-5.90022.98004-.69802 1.95862-1.39662 2.93488-2.09601-1.50113.004-3.00416.006-4.50897.007-1.34386.001-2.46458-.0821-3.35454-.23503h-.00001c-3.34651-.57939-3.43466-2.15044.00025-3.97278v-.00001c.47214-.2514 1.01029-.50766 1.61504-.76709 2.27886-.97761 2.52357-.98256 2.23929-.0185-.23891.81024-.69959 1.20424 3.27229 1.39012 1.91814.0898 14.43207.34489 29.40391-.34636 6.09858-.28158 10.98894-.66618 14.94268-1.04692 18.84247-1.79667 17.42595-1.79803 18.7241-.24427.44762.53577 1.06151 1.63338 1.35715 2.4296.64438 1.73553.50791 1.76178 2.64666-.11193 8.6553-7.5827 19.83042-10.16896 25.56621-5.40247 3.60953 2.99955 1.76285 8.55876-2.49177 12.83364-4.22642 4.24655-10.67851 7.00999-14.93086 4.4791-1.23971-.73785-.93914-1.28499 1.45611-3.02055 2.41159-1.74741 3.2027-1.95333 4.28997-1.04696 1.91275 1.59451 5.89201 1.18006 6.97847-.73126 3.07076-5.40209.0922-9.11001-4.53657-10.31503-4.61587-1.20165-11.02545.0351-15.85295 4.74449-.78478.76557-1.57627 1.52883-2.37424 2.28973.28346 1.03615.5678 2.07213.85302 3.10796.46353 1.68338 1.67164 7.20179 2.65622 12.14839.59986 3.01372 1.20026 6.02735 1.80122 9.04089-1.02977.70272-2.06516 1.40153-3.10592 2.09641-9.86178 6.58439-9.33351 4.25861-7.49875 2.99911 3.53375-2.42578 3.49133-1.99726.95483-16.94266-2.91221-17.15764-2.6149-16.57777-9.72298-15.93576-1.40221.12665-2.80547.24656-4.20964.35996.56055 4.11764 1.12131 8.23525 1.68228 12.35285.92752 6.8101 1.97723 13.2387 2.35059 14.35611.64522 1.93109 1.08602 1.8592-2.2954 4.01377-.62562.38162-1.40817.85047-2.31683 1.39483-4.23661 2.53807-9.14834 4.47768-9.20602 3.76615l-.00003.00003zm-25.38812-20.97417c2.01176-.72271 3.52986-2.35487 3.77805-4.04366.33457-2.2766 2.29642-4.78694 5.39218-7.03908.89013-.64756 1.7751-1.29737 2.65424-1.94962-3.2752.10911-6.56281.18292-9.86149.23304-3.29868.0501-6.60843.0766-9.92791.091-.45739.33213-.91543.66402-1.37403.9957-3.61414 2.61393-3.55014 6.33296-1.43788 9.01169 2.10895 2.67451 6.2806 4.31621 10.77684 2.70098zm25.14795-1.42451c.89406-.48673 2.2934-1.64399 3.13824-2.59978.50814-.57488 1.0125-1.15103 1.51285-1.72849l-.36836-3.40325c-.20226-1.86864-.52673-3.79081-.7163-4.25784-.11565-.28493-.23097-.56991-.34596-.85496-2.21581.2107-4.43972.39542-6.67111.55792s-4.47025.30279-6.71595.42463c-.54548.43656-1.09359.87207-1.64418 1.30657-6.63441 5.23564.8245 16.53618 11.81077 10.5552zm132.98211-14.20162c-.0768-.0955.41631-1.22377 1.07054-2.51862 1.81148-3.58521 3.02661-2.8481-7.14238-14.34768-10.78758-12.19916-12.21022-13.14644-14.81568-11.07894-1.23167.97736-1.37956.4237-.73656-1.40362 1.74482-4.95849 5.66428-6.37384 9.64874-2.56037.82948.79389.9643.94414 1.59995-2.06372.26887-1.27229.55556-2.49543.84872-3.6368.96514-4.07539 1.94667-7.38814 3.93178-9.94607 1.97432-2.54401 4.90427-4.27603 8.599-4.20902 4.32406.0784 8.14329 4.52393 9.00283 10.09452.42887 2.77948.0751 5.69583-1.15298 8.20186-1.21426 2.47771-3.22413 4.38625-5.62056 4.91365-2.69662.59347-2.63104-1.39348-1.34868-5.04194.15192-.43225.29526-.86368.43049-1.29431.76811-.24157 1.53577-.49971 2.3021-.7728 4.00707-1.42799 4.82113-3.76414 2.63128-6.73592-2.80744-3.80995-6.96222-3.78791-10.30231-2.27452-3.35935 1.52211-5.93637 4.47335-7.1977 8.0635-.44202 1.22559-.7563 2.58065-.88891 4.05342-.0764.84889-.17756 1.70273-.30169 2.56074 2.90403 2.74886 5.77969 5.52805 8.71235 8.24637 2.88884 2.6777 7.90114 7.65281 8.74992 7.94218 1.22175.41652 1.27357.49921.60625 1.74012-.58065 1.07972-1.30374 2.44868-2.55361 4.62205-2.46035 4.27806-5.67293 7.94375-6.07321 7.44613.0001-.00007.00021-.00014.00032-.00021zm-232.21923 26.48257c-.6966-.56629-1.39039-1.13421-2.08128-1.70375.81547-.4306 1.62772-.86332 2.43681-1.29808.0441-.0237.0887-.0467.13366-.0691 2.97455-1.43184 7.74828-.0532 7.52572 2.27369-.21187 2.21502-5.30451 2.81448-7.92843.86565-.0292-.0225-.058-.0453-.0865-.0684zm-135.506747-72.92868c1.579487-2.07602 4.166879-3.21767 7.348151-3.30736 3.713911-.10471 7.924374 1.60457 11.284586 3.58566 3.35504 1.97804 6.087122 4.31678 7.290308 6.66026.07314.14107.142639.28351.208314.42732.789754 1.72929.675341 1.71641 6.057561-3.16717 4.783987-4.34081 6.37717-6.15874 6.017871-7.14251-.03483-.13649-.159043-.22682-.363374-.29734.718118-1.19468 2.665487-1.15685 4.184157-.89088 1.559484.46897 2.245637.82297.867999 2.84433-1.406414 2.06357-4.749326 5.60304-11.331283 12.56283-10.673747 11.28647-11.708683 12.71456-10.916619 13.92744.526877.80685 2.232254 2.20875 4.119725 3.43678 1.879294 1.22272 3.832376 2.20517 4.714549 2.33516 2.631033.38767 3.494011 1.12079.411414 1.16331-4.889529.0674-9.03506-1.29798-15.905219-7.42393-2.00219-1.78529-2.975013-2.64813-4.891873-4.23808-.759957-.66665-1.646832-1.44884-2.534484-2.25842-4.22821-3.85632-6.884288-7.87905-7.787386-10.51401-.903098-2.63497-.336951-5.64961 1.225603-7.70339zm13.079137 19.95058c1.42413.73821 6.733081-4.70189 7.505295-7.20652.176952-.57392.281291-1.17031.327053-1.77367.219577-2.3286-.369618-4.90121-1.386297-6.81953-1.049213-1.9797-2.667629-3.52437-4.814336-3.66575-4.739973-.31216-8.25924 1.74865-9.33644 5.55008-1.044993 3.68777.520951 8.96986 5.792838 12.7745h.000002c.601799.41053 1.23987.79254 1.911885 1.14089zm45.67883 28.74581c.0419-.0941 1.32742-.41481 2.835-.73805.9137-.1959 1.82163-.39853 2.72421-.60736.48505-.91255.9684-1.82577 1.45007-2.73965 3.34187-6.34068 3.37575-10.44025.48758-11.40821-1.59518-.53461-1.41394-.78022.61142-1.31284 5.72056-1.5041 8.83608.14262 8.50852 5.01189-.0356.52861-.0699 1.05746-.10308 1.58654.65986-.1914 1.31795-.38518 1.97447-.5811 4.39564-1.31168 8.4869-1.65592 12.0764-1.28447 5.79866.57003 10.1453 2.95486 11.44173 5.95969 1.29643 3.00484-.4846 6.69898-7.60939 9.3447-1.10418.41002-2.21424.81461-3.33032 1.21357 1.55298.31623 3.10791.62122 4.6646.91528 4.26667.806 4.864.81029 6.47959.42517 1.80579-.43046 3.28473-.3978 3.16882.0907-.0916.38594-5.95028 1.80326-9.3406 2.22637-.89614.11183-1.79439.22013-2.69476.32482-2.89076-.63683-5.77386-1.31131-8.64782-2.02537-1.98478-.48765-3.97855-.99124-5.97789-1.51566-12.45557-3.26704-14.85738-4.26346-16.53194-4.41879-2.22326-.20626-2.29067-.23405-2.18678-.46732.00005.00002.00011.00004.00017.00006zm22.29358 2.31159c1.14671.28472 2.2922.56375 3.43581.83803.75738.1831 1.51543.3634 2.27414.54096.62775-.19024 1.25375-.38229 1.87799-.57614 5.52998-1.71721 6.74569-6.05168 3.38405-9.80691-1.02012-1.13957-2.23137-2.02068-3.57097-2.64175-3.74773-1.73473-8.48313-1.45235-12.95671.90723-2.86048 1.50872-4.36513 8.61076-1.66279 9.03824.73639.11649 4.18714.94791 7.21843 1.70048zm232.75705.53364c-.0375-.0986.6993-1.06464 1.61717-2.15389.5564-.66029 1.10712-1.32271 1.65138-1.9872-.2892-.97478-.58012-1.94904-.8728-2.92277-2.0833-6.93113-4.82842-9.98631-7.97387-9.06853-1.58043.46114-1.63861.20216-.53142-1.28353 3.37188-4.52477 7.44296-4.77012 10.72829-.43186.64826.85602.68701.86275 1.05985.17298 1.91614-3.54492 4.9074-6.63174 7.94484-8.70499 3.46396-2.33144 7.25783-3.50844 10.63275-2.94472 5.91491.98798 8.041 4.89107 4.28234 12.13913-.43215.83334-.87252 1.66469-1.3193 2.49324 1.3981-.71249 2.79436-1.44368 4.18417-2.19647 3.54354-1.91933 4.28952-2.53551 4.88133-3.4532.95021-1.47343 2.43055-2.79873 2.55581-2.22457.13152.60273-2.64674 4.84048-4.98377 7.446-.57486.64091-1.15513 1.27733-1.73957 1.90904-2.72402 1.35444-5.45151 2.62207-8.15371 3.82451-1.92011.86754-3.85149 1.68784-5.7911 2.46571-8.93732 3.58425-14.91075 5.30328-15.32193 5.60363-.96175.70169-2.77016 1.52844-2.8504 1.31747-.00002.00001-.00004.00001-.00006.00002zm19.03171-10.9671c1.04523-.45101 2.08611-.91533 3.12209-1.3938.75567-.34589 1.51249-.69615 2.26978-1.05124.30724-.51444.61264-1.03029.91572-1.54736 1.68269-2.87078 1.27939-5.44147-.43164-7.13565-1.70778-1.69098-4.73063-2.5421-8.43915-2.01611-.44288.0628-.87759.15174-1.30307.2656-3.72272.9484-6.86977 3.88871-8.46095 8.02415-1.0371 2.69539 2.95601 9.04765 5.37634 7.8279.76684-.38646 3.91317-1.66248 6.95096-2.97336zm-281.51002-25.25709c3.42912-1.65123 7.76368-3.03082 10.90831-3.37311 3.71857-.75947 6.37499-.22727 7.56743 2.15824 1.66635 3.33359-.7541 6.27015-6.45595 6.1557-3.8726-.0777-4.03189-.91999-1.98316-1.03134 2.47907-.13475 3.423-1.46884 2.66369-3.25953-.50953-1.2016-1.60215-1.741-3.18666-1.72254-3.4471-.19957-7.02908 1.91435-10.46237 3.12167-1.73937.61165-5.12366 2.08415-5.12366 2.08415s3.86629-3.07094 6.07237-4.13324zm-5.49065 5.30486c2.72071 1.39894 2.40142 3.19482-1.97548 10.69897-2.073292 3.55464-2.877633 5.20244-3.917194 5.83147-1.024177.61972-2.335431.26113-5.35089-.32554-6.326238-1.23079-6.747105-1.96264-4.141494-1.99341 5.795099-.0685 12.027757-11.54938 8.771424-13.70768-1.311883-.86951-1.031171-1.00236 1.424558-1.14127 1.337454-.0756 2.435966-.14645 3.624035.0735.54525.10095 1.255201.40464 1.565041.56395zm88.94396 18.24976c-1.99286-1.56897-1.68698-1.7904.18912-2.88316.95671-.65193 2.45594-1.49042 2.45594-1.49042s1.94015 1.46037 2.85777 2.29887c1.39409 1.27728 1.46288 1.32317-1.07428 2.69924-2.53716 1.37608-2.19536 1.42331-4.42855-.62453zm10.5094 1.15738c-2.0137-1.7574-1.88794-2.08432.71652-3.53879.59632-.33302 1.19078-.66794 1.78357-1.00469.58515.43471 1.17494.8676 1.76912 1.29874 2.49523 1.81057 2.57316 2.09259.22549 3.56033-1.07565.67251-2.14584 1.20286-2.37407 1.18686-.22849-.016-1.18812-.68862-2.12063-1.50245zm122.9507-4.13059c-.0865-.39373 1.69696-3.2736 3.54687-6.15287 1.84098-2.86534 3.7987-5.8162 4.36931-6.22794 1.40911-1.01678 3.49292-1.96908 3.59243-1.61558.0659.23405-3.58179 6.43144-5.79505 9.54923-1.72882 2.4354-5.51081 5.36994-5.71356 4.44716zm83.74728-32.85216c-2.11796-4.00807-4.22708-6.60948-5.45439-8.5532-1.23323-1.95307-1.6567-3.17369-1.20827-4.06079.14089-.27871 1.77316 1.45161 3.42507 3.63442 1.73965 2.29874 3.15009 4.66481 3.58491 6.06161.53709 1.72534.1799 3.91567-.34732 2.91796zm-211.4063 27.50445c1.67281-.96007 2.38752-1.3914 3.09938-1.82579.54405.50223 1.09411 1.00248 1.64989 1.50083 2.05117 1.83919 2.0916 2.06522-.29066 3.49858-2.30965 1.38965-2.20856 1.40811-4.15239-.37798-1.94382-1.78609-1.97902-1.83558-.30622-2.79564z" fill="#8fa2a3"/></g></g></g></svg>