<svg height="500" viewBox="0 0 500 500" width="500" xmlns="http://www.w3.org/2000/svg" xmlns:xlink="http://www.w3.org/1999/xlink"><linearGradient id="a" gradientUnits="userSpaceOnUse" spreadMethod="reflect" x1="49.064453" x2="248.86217" y1="194.50781" y2="175.25407"><stop offset="0" stop-color="#8aa8a8"/><stop offset=".29784366" stop-color="#8aa8a8" stop-opacity=".5"/><stop offset=".75202155" stop-color="#8aa8a8" stop-opacity="0"/></linearGradient><linearGradient id="b" gradientUnits="userSpaceOnUse" x1="21.609001" x2="478.40274" y1="240.49126" y2="250.00066"><stop offset=".00539084" stop-color="#8aa8a8"/><stop offset=".12904313" stop-color="#8aa8a8" stop-opacity="0"/><stop offset=".12904313" stop-color="#fff" stop-opacity="0"/><stop offset=".25269541" stop-color="#fff"/><stop offset=".37634772" stop-color="#fff" stop-opacity="0"/><stop offset=".75" stop-color="#8aa8a8" stop-opacity="0"/><stop offset="1" stop-color="#8aa8a8"/></linearGradient><pattern id="c" patternTransform="translate(565.99996 61)" xlink:href="#d"/><pattern id="d" height="150" patternTransform="translate(797 130)" patternUnits="userSpaceOnUse" width="150"><g transform="translate(-136.8644 -155.9322)"><use stroke-width="6.66667" transform="matrix(.63183642 .3062704 -.3062704 .63183642 122.56212 94.902713)" xlink:href="#g"/><use stroke-width="6.66667" transform="matrix(.80467885 .87825159 -.87825159 .80467885 235.308 -57.21934)" xlink:href="#g"/><use stroke-width="6.66667" transform="matrix(.64511398 .08385277 -.08385277 .64511398 81.4385 93.390199)" xlink:href="#g"/><use stroke-width="6.66667" transform="matrix(1.0359187 -.13409107 .13409107 1.0359187 34.837282 -31.431295)" xlink:href="#g"/><use stroke-width="6.66667" transform="matrix(.70940974 .2487586 -.2487586 .70940974 169.01847 15.720439)" xlink:href="#g"/><use stroke-width="6.66667" transform="matrix(.6052542 -.8789638 .8789638 .6052542 -110.91902 215.64352)" xlink:href="#g"/><use stroke-width="6.66667" transform="matrix(.52129758 .64304497 -.64304497 .52129758 314.27729 67.401262)" xlink:href="#g"/><use stroke-width="6.66667" transform="matrix(.66892479 .76772319 -.76772319 .66892479 268.3251 -42.31516)" xlink:href="#g"/><use stroke-width="6.66667" transform="matrix(.89891197 .09610842 -.09610842 .89891197 67.170053 10.080985)" xlink:href="#g"/><use stroke-width="6.66667" transform="matrix(-.03982642 .82906741 -.82906741 -.03982642 359.17426 143.90279)" xlink:href="#g"/><use stroke-width="6.66667" transform="matrix(-.19798435 1.0973589 -1.0973589 -.19798435 509.08539 111.9081)" xlink:href="#g"/><use stroke-width="6.66667" transform="matrix(.70940974 .2487586 -.2487586 .70940974 169.01847 15.720439)" xlink:href="#g"/><use stroke-width="6.66667" transform="matrix(1.0359187 -.13409107 .13409107 1.0359187 34.837282 -31.431295)" xlink:href="#g"/><use stroke-width="6.66667" transform="matrix(.64511398 .08385277 -.08385277 .64511398 81.4385 93.390199)" xlink:href="#g"/><use stroke-width="6.66667" transform="matrix(.80467885 .87825159 -.87825159 .80467885 305.48809 -20.334083)" xlink:href="#g"/><use stroke-width="6.66667" transform="matrix(.63183642 .3062704 -.3062704 .63183642 122.56212 94.902713)" xlink:href="#g"/><use transform="matrix(1.0726085 -.09693683 .09693683 1.0726085 19.188395 97.797809)" xlink:href="#e"/><use transform="matrix(1.1398029 -.07002106 .07002106 1.1398029 45.132653 31.344107)" xlink:href="#e"/><use transform="matrix(.75398849 .69932087 -.69932087 .75398849 145.93655 55.7045)" xlink:href="#e"/><use transform="matrix(.35581302 1.0403253 -1.0403253 .35581302 385.56131 8.32565)" xlink:href="#e"/><use transform="matrix(.37568562 1.083644 -1.083644 .37568562 404.35402 -11.318003)" xlink:href="#e"/><use transform="matrix(-.34097047 .82887276 -.82887276 -.34097047 364.41552 102.03154)" xlink:href="#e"/><use transform="matrix(.8813638 -.22645781 .22645781 .8813638 52.246653 185.44678)" xlink:href="#e"/><use transform="matrix(1.1537377 -.13051967 .13051967 1.1537377 -16.443698 67.209453)" xlink:href="#e"/><use transform="matrix(.97037256 .14757001 -.14757001 .97037256 98.392933 97.270859)" xlink:href="#e"/><use transform="matrix(1.0769786 .57520618 -.57520618 1.0769786 146.8527 -13.151948)" xlink:href="#e"/><use transform="matrix(.46116071 .72130784 -.72130784 .46116071 207.69267 -30.280957)" xlink:href="#e"/><use transform="matrix(-.23297057 1.0922217 -1.0922217 -.23297057 365.66378 134.06962)" xlink:href="#e"/><use transform="matrix(.90895066 .22701876 -.22701876 .90895066 89.549028 -36.171432)" xlink:href="#e"/><use transform="matrix(.84094914 -.70034233 .70034233 .84094914 -73.700956 175.38073)" xlink:href="#e"/><use transform="matrix(.68451351 -.34988881 .34988881 .68451351 59.133127 187.27324)" xlink:href="#e"/><use transform="matrix(.2390399 1.1870186 -1.1870186 .2390399 407.8816 50.800767)" xlink:href="#e"/><use transform="matrix(.09567797 .97295505 -.97295505 .09567797 415.1735 19.270028)" xlink:href="#e"/><use transform="matrix(.822663 .56668248 -.56668248 .822663 114.51616 51.474116)" xlink:href="#e"/><use transform="matrix(.27810607 -.71590522 .71590522 .27810607 110.41552 271.71788)" xlink:href="#e"/><use transform="matrix(.63711936 -.96094576 .96094576 .63711936 -19.727824 341.89745)" xlink:href="#e"/><use transform="matrix(.60260243 .52173729 -.52173729 .60260243 230.38234 -14.914624)" xlink:href="#e"/><use transform="matrix(.74798728 -.29954199 .29954199 .74798728 -34.030124 227.97907)" xlink:href="#e"/><use transform="matrix(.79337189 .69275606 -.69275606 .79337189 203.88969 -53.389494)" xlink:href="#e"/><use transform="matrix(.75125932 .49120819 -.49120819 .75125932 163.91903 -9.265784)" xlink:href="#e"/><use transform="matrix(.74288053 -.1257304 .1257304 .74288053 91.18597 63.388248)" xlink:href="#e"/><use transform="matrix(.92046885 -.24999446 .24999446 .92046885 -41.738996 111.1813)" xlink:href="#e"/><use transform="matrix(1.0331395 .21853658 -.21853658 1.0331395 137.53439 13.354963)" xlink:href="#e"/><use transform="matrix(.81335932 .40086123 -.40086123 .81335932 123.41992 22.486207)" xlink:href="#e"/><use transform="matrix(.8928858 -.13139133 .13139133 .8928858 -28.457032 78.833386)" xlink:href="#e"/><use transform="matrix(.6430204 1.0880826 -1.0880826 .6430204 345.40535 -123.5235)" xlink:href="#e"/><use transform="matrix(.42911778 -.77517589 .77517589 .42911778 -34.206364 348.4627)" xlink:href="#e"/><use transform="matrix(1.036648 -.46795009 .46795009 1.036648 -39.082759 98.721253)" xlink:href="#e"/><use transform="matrix(1.0597242 -.10828315 .10828315 1.0597242 -5.589274 85.420655)" xlink:href="#e"/><use transform="matrix(1.071496 .62369016 -.62369016 1.071496 125.90439 -84.658456)" xlink:href="#e"/><use transform="matrix(1.0626803 -.38862343 .38862343 1.0626803 -59.124091 182.4561)" xlink:href="#e"/><use transform="matrix(.93204383 -.06263692 .06263692 .93204383 45.776704 125.64728)" xlink:href="#e"/><use transform="matrix(.86984132 .26926257 -.26926257 .86984132 48.670467 6.331128)" xlink:href="#f"/><use transform="matrix(1.0565013 -.12917936 .12917936 1.0565013 14.133386 1.988161)" xlink:href="#f"/><use transform="matrix(.73127847 .92681619 -.92681619 .73127847 257.4843 -133.22336)" xlink:href="#f"/><use transform="matrix(1.0372951 .59739712 -.59739712 1.0372951 104.72479 -134.79373)" xlink:href="#f"/><use transform="matrix(.64164714 .66947468 -.66947468 .64164714 309.07069 11.796496)" xlink:href="#f"/><use transform="matrix(.80271726 .30475218 -.30475218 .80271726 196.83507 -29.435801)" xlink:href="#f"/><use transform="matrix(.77079818 -.04453588 .04453588 .77079818 16.729368 132.72971)" xlink:href="#f"/><use transform="matrix(1.0588864 .25451014 -.25451014 1.0588864 53.762579 -105.98606)" xlink:href="#f"/><use transform="matrix(1.2046699 .21572882 -.21572882 1.2046699 81.51307 -20.407165)" xlink:href="#f"/><use transform="matrix(.71819251 .33044349 -.33044349 .71819251 204.65651 44.399173)" xlink:href="#f"/><use transform="matrix(.81349646 .27802176 -.27802176 .81349646 152.72407 -4.405478)" xlink:href="#f"/><use transform="matrix(.96114289 -.7376223 .7376223 .96114289 -163.7522 145.83751)" xlink:href="#f"/><use transform="matrix(.72426898 .4115846 -.4115846 .72426898 228.21575 -24.390829)" xlink:href="#f"/><use transform="matrix(.19786266 .84162916 -.84162916 .19786266 284.62113 107.77045)" xlink:href="#f"/><use transform="matrix(.6732692 .57304794 -.57304794 .6732692 148.13212 26.619935)" xlink:href="#f"/><use transform="matrix(.89499916 -.5174593 .5174593 .89499916 -60.550115 169.98819)" xlink:href="#f"/><use transform="matrix(.96230881 .43967104 -.43967104 .96230881 59.676626 -60.836512)" xlink:href="#f"/><use transform="matrix(.83569581 .75049132 -.75049132 .83569581 212.21236 -89.752144)" xlink:href="#f"/><use transform="matrix(.99378944 -.29259583 .29259583 .99378944 33.332193 49.437891)" xlink:href="#f"/><use transform="matrix(.35223681 .77293927 -.77293927 .35223681 264.27828 51.413669)" xlink:href="#f"/><use transform="matrix(.67641922 -.84285212 .84285212 .67641922 -86.292381 176.64581)" xlink:href="#f"/><use transform="matrix(.61671017 -.84509915 .84509915 .61671017 -27.113239 185.55199)" xlink:href="#f"/><use transform="matrix(.61141119 -.5759759 .5759759 .61141119 -51.675936 181.8116)" xlink:href="#f"/><use transform="matrix(.86525061 .52841398 -.52841398 .86525061 151.43802 -37.164444)" xlink:href="#f"/><use transform="matrix(1.0497791 .23632286 -.23632286 1.0497791 17.650584 -67.728959)" xlink:href="#f"/><path id="e" d="m172.56492 168.24693c-.82624.89866-1.11593 1.0902-2.71992 1.08336 1.50858.65804.64869 1.75612.35417 2.45378.77979-.80365 1.52578-1.72341 2.96792-.52371-1.45573-1.28913-.92006-1.99553-.60217-3.01343z" fill="#fff"/><path id="f" d="m180.48319 214.76172-.17586-1.21672.90262-.83459-1.2115-.20878-.51485-1.11629-.57288 1.08767-1.22076.1447.85739.88094-.23963 1.20577 1.10279-.54325 1.07269.60057z" fill="#fff"/><path id="g" d="m165.3419 214.85736-1.21662 2.46528-2.72056.39526 1.96858 1.91894-.4647 2.70954 2.4333-1.27928 2.43332 1.27928-.46472-2.70954 1.96859-1.91891-2.72049-.39528-1.2167-2.46526z" fill="#fff"/></g></pattern><filter id="h" color-interpolation-filters="sRGB" height="1.291469" width="1.068881" x="-.034441" y="-.145735"><feGaussianBlur stdDeviation="4.7117531"/></filter><filter id="i" color-interpolation-filters="sRGB" height="1.208894" width="1.061143" x="-.030572" y="-.104447"><feGaussianBlur stdDeviation="4.7117531"/></filter><filter id="j" color-interpolation-filters="sRGB" height="1.120604" width="1.079734" x="-.039867" y="-.060302"><feGaussianBlur stdDeviation="7.588077"/></filter><radialGradient id="k" cx="4601.1221" cy="4277.6772" gradientTransform="matrix(0 .14277106 -.14490835 0 721.24408 -581.81013)" gradientUnits="userSpaceOnUse" r="11.2507" xlink:href="#l"/><linearGradient id="l"><stop offset="0" stop-color="#fffae5"/><stop offset=".5" stop-color="#fffdf5" stop-opacity=".86"/><stop offset="1" stop-color="#fffdf5" stop-opacity="0"/></linearGradient><radialGradient id="m" cx="4694.3481" cy="4395.814" gradientTransform="matrix(0 .14277106 -.14490835 0 721.24408 -581.81013)" gradientUnits="userSpaceOnUse" r="11.2507" xlink:href="#l"/><radialGradient id="n" cx="4996.8203" cy="4201.0781" gradientTransform="matrix(0 .14277106 -.14490835 0 727.85866 -604.41252)" gradientUnits="userSpaceOnUse" r="11.2507" xlink:href="#l"/><radialGradient id="o" cx="4264.2671" cy="4804.9849" gradientTransform="matrix(0 .14277106 -.14490835 0 721.24408 -581.81013)" gradientUnits="userSpaceOnUse" r="11.2507" xlink:href="#l"/><radialGradient id="p" cx="4253.0161" cy="4349.7529" gradientTransform="matrix(0 .14277106 -.14490835 0 721.24408 -581.81013)" gradientUnits="userSpaceOnUse" r="11.2507" xlink:href="#l"/><radialGradient id="q" cx="4291.9346" cy="4509.8506" gradientTransform="matrix(0 .14277106 -.14490835 0 721.24408 -581.81013)" gradientUnits="userSpaceOnUse" r="11.2507" xlink:href="#l"/><radialGradient id="r" cx="4178.7915" cy="4193.6758" gradientTransform="matrix(0 .14277106 -.14490835 0 721.24408 -581.81013)" gradientUnits="userSpaceOnUse" r="11.2507" xlink:href="#l"/><radialGradient id="s" cx="4508.9131" cy="4184.4229" gradientTransform="matrix(0 .14277106 -.14490835 0 721.24408 -581.81013)" gradientUnits="userSpaceOnUse" r="11.2507" xlink:href="#l"/><radialGradient id="t" cx="4169.5386" cy="4599.0166" gradientTransform="matrix(0 .14277106 -.14490835 0 721.24408 -581.81013)" gradientUnits="userSpaceOnUse" r="11.2507" xlink:href="#l"/><radialGradient id="u" cx="4381.2778" cy="4473.0386" gradientTransform="matrix(0 .14277106 -.14490835 0 721.24408 -581.81013)" gradientUnits="userSpaceOnUse" r="5.6228" xlink:href="#l"/><radialGradient id="v" cx="4207.3452" cy="4447.1753" gradientTransform="matrix(0 .14277106 -.14490835 0 721.24408 -581.81013)" gradientUnits="userSpaceOnUse" r="5.6228" xlink:href="#l"/><radialGradient id="w" cx="4156.0269" cy="4803.9863" gradientTransform="matrix(0 .14277106 -.14490835 0 721.24408 -581.81013)" gradientUnits="userSpaceOnUse" r="5.6228" xlink:href="#l"/><radialGradient id="x" cx="4756.5977" cy="4610.2671" gradientTransform="matrix(0 .14277106 -.14490835 0 721.24408 -581.81013)" gradientUnits="userSpaceOnUse" r="5.6228" xlink:href="#l"/><radialGradient id="y" cx="4724.8408" cy="4498.3604" gradientTransform="matrix(0 .14277106 -.14490835 0 721.24408 -581.81013)" gradientUnits="userSpaceOnUse" r="5.6228" xlink:href="#l"/><radialGradient id="z" cx="4755.5991" cy="4916.6094" gradientTransform="matrix(0 .14277106 -.14490835 0 721.24408 -581.81013)" gradientUnits="userSpaceOnUse" r="5.6228" xlink:href="#l"/><radialGradient id="A" cx="4815.3223" cy="4406.499" gradientTransform="matrix(0 .14277106 -.14490835 0 721.24408 -581.81013)" gradientUnits="userSpaceOnUse" r="5.6228" xlink:href="#l"/><radialGradient id="B" cx="4840.1343" cy="4528.7949" gradientTransform="matrix(0 .14277106 -.14490835 0 721.24408 -581.81013)" gradientUnits="userSpaceOnUse" r="5.6228" xlink:href="#l"/><radialGradient id="C" cx="4625.9868" cy="4580.4009" gradientTransform="matrix(0 .14277106 -.14490835 0 721.24408 -581.81013)" gradientUnits="userSpaceOnUse" r="5.6228" xlink:href="#l"/><radialGradient id="D" cx="4832.085" cy="4231.3418" gradientTransform="matrix(0 .14277106 -.14490835 0 721.24408 -581.81013)" gradientUnits="userSpaceOnUse" r="5.6228" xlink:href="#l"/><radialGradient id="E" cx="4920.2227" cy="4281.3076" gradientTransform="matrix(0 .14277106 -.14490835 0 721.24408 -581.81013)" gradientUnits="userSpaceOnUse" r="5.6228" xlink:href="#l"/><radialGradient id="F" cx="4483.835" cy="4313.1982" gradientTransform="matrix(0 .14277106 -.14490835 0 721.24408 -581.81013)" gradientUnits="userSpaceOnUse" r="5.6228" xlink:href="#l"/><radialGradient id="G" cx="4664.439" cy="4695.5273" gradientTransform="matrix(0 .14277106 -.14490835 0 721.24408 -581.81013)" gradientUnits="userSpaceOnUse" r="11.2507" xlink:href="#l"/><radialGradient id="H" cx="4894.2646" cy="4681.8555" gradientTransform="matrix(0 .14277106 -.14490835 0 721.24408 -581.81013)" gradientUnits="userSpaceOnUse" r="11.2507" xlink:href="#l"/><radialGradient id="I" cx="4985.5698" cy="4361.0039" gradientTransform="matrix(0 .14277106 -.14490835 0 721.24408 -581.81013)" gradientUnits="userSpaceOnUse" r="11.2507" xlink:href="#l"/><radialGradient id="J" cx="4713.5898" cy="4089.8687" gradientTransform="matrix(0 .14277106 -.14490835 0 721.24408 -581.81013)" gradientUnits="userSpaceOnUse" r="11.2507" xlink:href="#l"/><radialGradient id="K" cx="4757.5957" cy="4804.9849" gradientTransform="matrix(0 .14277106 -.14490835 0 721.24408 -581.81013)" gradientUnits="userSpaceOnUse" r="11.2507" xlink:href="#l"/><radialGradient id="L" cx="4371.5723" cy="4725.9341" gradientTransform="matrix(0 .14277106 -.14490835 0 721.24408 -581.81013)" gradientUnits="userSpaceOnUse" r="11.2507" xlink:href="#l"/><radialGradient id="M" cx="4510.9111" cy="4743.7231" gradientTransform="matrix(0 .14277106 -.14490835 0 721.24408 -581.81013)" gradientUnits="userSpaceOnUse" r="11.2507" xlink:href="#l"/><radialGradient id="N" cx="4269.4331" cy="4686.5615" gradientTransform="matrix(0 .14277106 -.14490835 0 721.24408 -581.81013)" gradientUnits="userSpaceOnUse" r="11.2507" xlink:href="#l"/><radialGradient id="O" cx="4484.8335" cy="4664.189" gradientTransform="matrix(0 .14277106 -.14490835 0 721.24408 -581.81013)" gradientUnits="userSpaceOnUse" r="7.1455" xlink:href="#l"/><radialGradient id="P" cx="4613.2183" cy="4640.4971" gradientTransform="matrix(0 .14277106 -.14490835 0 721.24408 -581.81013)" gradientUnits="userSpaceOnUse" r="7.1455" xlink:href="#l"/><radialGradient id="Q" cx="4666.4365" cy="4863.9521" gradientTransform="matrix(0 .14277106 -.14490835 0 721.24408 -581.81013)" gradientUnits="userSpaceOnUse" r="7.1455" xlink:href="#l"/><radialGradient id="R" cx="4894.2646" cy="4840.1016" gradientTransform="matrix(0 .14277106 -.14490835 0 721.24408 -581.81013)" gradientUnits="userSpaceOnUse" r="7.1455" xlink:href="#l"/><radialGradient id="S" cx="4347.4258" cy="4820.2441" gradientTransform="matrix(0 .14277106 -.14490835 0 721.24408 -581.81013)" gradientUnits="userSpaceOnUse" r="7.1455" xlink:href="#l"/><radialGradient id="T" cx="4533.5781" cy="4593.1694" gradientTransform="matrix(0 .14277106 -.14490835 0 721.24408 -581.81013)" gradientUnits="userSpaceOnUse" r="7.1455" xlink:href="#l"/><radialGradient id="U" cx="4448.2217" cy="4220.0913" gradientTransform="matrix(0 .14277106 -.14490835 0 721.24408 -581.81013)" gradientUnits="userSpaceOnUse" r="11.2507" xlink:href="#l"/><radialGradient id="V" cx="4367.481" cy="4195.6733" gradientTransform="matrix(0 .14277106 -.14490835 0 721.24408 -581.81013)" gradientUnits="userSpaceOnUse" r="11.2507" xlink:href="#l"/><radialGradient id="W" cx="4526.4326" cy="4089.8687" gradientTransform="matrix(0 .14277106 -.14490835 0 721.24408 -581.81013)" gradientUnits="userSpaceOnUse" r="11.2507" xlink:href="#l"/><radialGradient id="X" cx="4261.9028" cy="4242.5928" gradientTransform="matrix(0 .14277106 -.14490835 0 721.24408 -581.81013)" gradientUnits="userSpaceOnUse" r="11.2507" xlink:href="#l"/><radialGradient id="Y" cx="16633.223" cy="4517.6021" gradientTransform="matrix(0 .04133223 -.14490835 0 721.24408 -619.22488)" gradientUnits="userSpaceOnUse" r="19.241899" xlink:href="#l"/><radialGradient id="Z" cx="-15595.086" cy="5031.6465" gradientTransform="matrix(.04195096 0 0 .14277106 720.77537 -650.17277)" gradientUnits="userSpaceOnUse" r="19.241899" xlink:href="#l"/><radialGradient id="aa" cx="16323.169" cy="4900.5503" gradientTransform="matrix(0 .04133223 -.14490835 0 721.24408 -619.22488)" gradientUnits="userSpaceOnUse" r="29.7325" xlink:href="#l"/><radialGradient id="ab" cx="-16917.998" cy="4941.8945" gradientTransform="matrix(.04195096 0 0 .14277106 720.77537 -650.17277)" gradientUnits="userSpaceOnUse" r="29.7325" xlink:href="#l"/><radialGradient id="ac" cx="16788.486" cy="4380.1377" gradientTransform="matrix(0 .04133223 -.14490835 0 721.24408 -619.22488)" gradientUnits="userSpaceOnUse" r="29.7325" xlink:href="#l"/><radialGradient id="ad" cx="-15120.208" cy="5076.5913" gradientTransform="matrix(.04195096 0 0 .14277106 720.77537 -650.17277)" gradientUnits="userSpaceOnUse" r="29.7325" xlink:href="#l"/><radialGradient id="ae" cx="15052.254" cy="4385.373" gradientTransform="matrix(0 .04133223 -.14490835 0 721.24408 -617.84714)" gradientUnits="userSpaceOnUse" r="29.7325" xlink:href="#l"/><radialGradient id="af" cx="-15138.295" cy="4573.998" gradientTransform="matrix(.04195096 0 0 .14277106 720.77537 -648.79503)" gradientUnits="userSpaceOnUse" r="29.7325" xlink:href="#l"/><radialGradient id="ag" cx="16060.047" cy="4376.7666" gradientTransform="matrix(0 .04133223 -.14490835 0 721.24408 -619.22488)" gradientUnits="userSpaceOnUse" r="29.7325" xlink:href="#l"/><radialGradient id="ah" cx="-15108.562" cy="4865.7275" gradientTransform="matrix(.04195096 0 0 .14277106 720.77537 -650.17277)" gradientUnits="userSpaceOnUse" r="29.7325" xlink:href="#l"/><radialGradient id="ai" cx="15866.068" cy="4081.2617" gradientTransform="matrix(0 .04133223 -.14490835 0 719.39892 -619.22488)" gradientUnits="userSpaceOnUse" r="29.7325" xlink:href="#l"/><radialGradient id="aj" cx="-14087.729" cy="4809.5757" gradientTransform="matrix(.04195096 0 0 .14277106 718.93021 -650.17277)" gradientUnits="userSpaceOnUse" r="29.7325" xlink:href="#l"/><radialGradient id="ak" cx="15420.522" cy="4902.7319" gradientTransform="matrix(0 .04133223 -.14490835 0 723.88991 -619.22488)" gradientUnits="userSpaceOnUse" r="19.241899" xlink:href="#l"/><radialGradient id="al" cx="-16925.533" cy="4680.6021" gradientTransform="matrix(.04195096 0 0 .14277106 723.4212 -650.17277)" gradientUnits="userSpaceOnUse" r="19.241899" xlink:href="#l"/><radialGradient id="am" cx="17559.291" cy="4676.2856" gradientTransform="matrix(0 .04133223 -.14490835 0 721.24408 -619.22488)" gradientUnits="userSpaceOnUse" r="19.241899" xlink:href="#l"/><radialGradient id="an" cx="-16143.265" cy="5299.7192" gradientTransform="matrix(.04195096 0 0 .14277106 720.77537 -650.17277)" gradientUnits="userSpaceOnUse" r="19.241899" xlink:href="#l"/><radialGradient id="ao" cx="16866.557" cy="4774.4922" gradientTransform="matrix(0 .04133223 -.14490835 0 721.24408 -619.22488)" gradientUnits="userSpaceOnUse" r="19.241899" xlink:href="#l"/><radialGradient id="ap" cx="-16482.523" cy="5099.1909" gradientTransform="matrix(.04195096 0 0 .14277106 720.77537 -650.17277)" gradientUnits="userSpaceOnUse" r="19.241899" xlink:href="#l"/><radialGradient id="aq" cx="16071.692" cy="4574.7783" gradientTransform="matrix(0 .04133223 -.14490835 0 721.24408 -619.22488)" gradientUnits="userSpaceOnUse" r="19.241899" xlink:href="#l"/><radialGradient id="ar" cx="-15792.604" cy="4869.0986" gradientTransform="matrix(.04195096 0 0 .14277106 720.77537 -650.17277)" gradientUnits="userSpaceOnUse" r="19.241899" xlink:href="#l"/><radialGradient id="as" cx="16699.693" cy="4871.0977" gradientTransform="matrix(0 .04133223 -.14490835 0 721.24408 -619.22488)" gradientUnits="userSpaceOnUse" r="19.241899" xlink:href="#l"/><radialGradient id="at" cx="-16816.252" cy="5050.8887" gradientTransform="matrix(.04195096 0 0 .14277106 720.77537 -650.17277)" gradientUnits="userSpaceOnUse" r="19.241899" xlink:href="#l"/><radialGradient id="au" cx="18061.07" cy="4512.0322" gradientTransform="matrix(0 .04133223 -.14490835 0 721.24408 -625.83946)" gradientUnits="userSpaceOnUse" r="19.241899" xlink:href="#l"/><radialGradient id="av" cx="-15575.844" cy="5444.9717" gradientTransform="matrix(.04195096 0 0 .14277106 720.77537 -656.78735)" gradientUnits="userSpaceOnUse" r="19.241899" xlink:href="#l"/><radialGradient id="aw" cx="17188.609" cy="4244.9609" gradientTransform="matrix(0 .04133223 -.14490835 0 721.24408 -619.22488)" gradientUnits="userSpaceOnUse" r="19.241899" xlink:href="#l"/><radialGradient id="ax" cx="-14653.234" cy="5192.417" gradientTransform="matrix(.04195096 0 0 .14277106 720.77537 -650.17277)" gradientUnits="userSpaceOnUse" r="19.241899" xlink:href="#l"/><radialGradient id="ay" cx="15143.32" cy="4682.5854" gradientTransform="matrix(0 .04133223 -.14490835 0 721.24408 -619.22488)" gradientUnits="userSpaceOnUse" r="19.241899" xlink:href="#l"/><radialGradient id="az" cx="-16165.027" cy="4600.3594" gradientTransform="matrix(.04195096 0 0 .14277106 720.77537 -650.17277)" gradientUnits="userSpaceOnUse" r="19.241899" xlink:href="#l"/><radialGradient id="aA" cx="17652.088" cy="4368.1597" gradientTransform="matrix(0 .04133223 -.14490835 0 721.24408 -619.22488)" gradientUnits="userSpaceOnUse" r="19.241899" xlink:href="#l"/><radialGradient id="aB" cx="-15078.83" cy="5326.5815" gradientTransform="matrix(.04195096 0 0 .14277106 720.77537 -650.17277)" gradientUnits="userSpaceOnUse" r="19.241899" xlink:href="#l"/><radialGradient id="aC" cx="16783.117" cy="4155.2524" gradientTransform="matrix(0 .04133223 -.14490835 0 721.24408 -619.22488)" gradientUnits="userSpaceOnUse" r="19.241899" xlink:href="#l"/><radialGradient id="aD" cx="-14343.332" cy="5075.0371" gradientTransform="matrix(.04195096 0 0 .14277106 720.77537 -650.17277)" gradientUnits="userSpaceOnUse" r="19.241899" xlink:href="#l"/><radialGradient id="aE" cx="4358.6768" cy="4918.6069" gradientTransform="matrix(0 .14277106 -.14490835 0 721.24408 -581.81013)" gradientUnits="userSpaceOnUse" r="11.2507" xlink:href="#l"/><g stroke-width=".095891" transform="matrix(3.7795275 0 0 3.7795275 -9.876585 -.000008)"><ellipse cx="101.37306" cy="75.090439" fill="url(#k)" opacity=".4" rx="1.637465" ry="1.613313"/><ellipse cx="101.37306" cy="75.090439" fill="#fffae7" opacity=".8" rx=".289817" ry=".285542"/><ellipse cx="84.259369" cy="88.410988" fill="url(#m)" opacity=".4" rx="1.637465" ry="1.613313"/><ellipse cx="84.259369" cy="88.410988" fill="#fffae7" opacity=".8" rx=".289817" ry=".285542"/><ellipse cx="119.08761" cy="108.98253" fill="url(#n)" opacity=".4" rx="1.637465" ry="1.613313"/><ellipse cx="119.08761" cy="108.98253" fill="#fffae7" opacity=".8" rx=".289817" ry=".285542"/><ellipse cx="24.962875" cy="27.005148" fill="url(#o)" opacity=".4" rx="1.637465" ry="1.613313"/><ellipse cx="24.962875" cy="27.005148" fill="#fffae7" opacity=".8" rx=".289817" ry=".285542"/><ellipse cx="90.925156" cy="25.391836" fill="url(#p)" opacity=".4" rx="1.637465" ry="1.613313"/><ellipse cx="90.925156" cy="25.391836" fill="#fffae7" opacity=".8" rx=".289817" ry=".285542"/><ellipse cx="67.725342" cy="30.959906" fill="url(#q)" opacity=".4" rx="1.637465" ry="1.613313"/><ellipse cx="67.725342" cy="30.959906" fill="#fffae7" opacity=".8" rx=".289817" ry=".285542"/><ellipse cx="113.54536" cy="14.798224" fill="url(#r)" opacity=".4" rx="1.637465" ry="1.613313"/><ellipse cx="113.54536" cy="14.798224" fill="#fffae7" opacity=".8" rx=".289817" ry=".285542"/><ellipse cx="114.89299" cy="61.926949" fill="url(#s)" opacity=".4" rx="1.637465" ry="1.613313"/><ellipse cx="114.89299" cy="61.926949" fill="#fffae7" opacity=".8" rx=".289817" ry=".285542"/><ellipse cx="54.813995" cy="13.484729" fill="url(#t)" opacity=".4" rx="1.637465" ry="1.613313"/><ellipse cx="54.813995" cy="13.484729" fill="#fffae7" opacity=".8" rx=".289817" ry=".285542"/><ellipse cx="73.057961" cy="43.709366" fill="url(#u)" opacity=".4" rx=".811487" ry=".799518"/><ellipse cx="73.057961" cy="43.709366" fill="#fffae7" opacity=".8" rx=".144908" ry=".142771"/><ellipse cx="76.811081" cy="18.881468" fill="url(#v)" opacity=".4" rx=".811487" ry=".799518"/><ellipse cx="76.811081" cy="18.881468" fill="#fffae7" opacity=".8" rx=".144908" ry=".142771"/><ellipse cx="25.10778" cy="11.557319" fill="url(#w)" opacity=".4" rx=".811487" ry=".799518"/><ellipse cx="25.10778" cy="11.557319" fill="#fffae7" opacity=".8" rx=".144908" ry=".142771"/><ellipse cx="53.176529" cy="97.291344" fill="url(#x)" opacity=".4" rx=".811487" ry=".799518"/><ellipse cx="53.176529" cy="97.291344" fill="#fffae7" opacity=".8" rx=".144908" ry=".142771"/><ellipse cx="69.391777" cy="92.765495" fill="url(#y)" opacity=".4" rx=".811487" ry=".799518"/><ellipse cx="69.391777" cy="92.765495" fill="#fffae7" opacity=".8" rx=".144908" ry=".142771"/><ellipse cx="8.791102" cy="97.148567" fill="url(#z)" opacity=".4" rx=".811487" ry=".799518"/><ellipse cx="8.791102" cy="97.148567" fill="#fffae7" opacity=".8" rx=".144908" ry=".142771"/><ellipse cx="82.708855" cy="105.672" fill="url(#A)" opacity=".4" rx=".811487" ry=".799518"/><ellipse cx="82.708855" cy="105.672" fill="#fffae7" opacity=".8" rx=".144908" ry=".142771"/><ellipse cx="64.986557" cy="109.227" fill="url(#B)" opacity=".4" rx=".811487" ry=".799518"/><ellipse cx="64.986557" cy="109.227" fill="#fffae7" opacity=".8" rx=".144908" ry=".142771"/><ellipse cx="57.509293" cy="78.645439" fill="url(#C)" opacity=".4" rx=".811487" ry=".799518"/><ellipse cx="57.509293" cy="78.645439" fill="#fffae7" opacity=".8" rx=".144908" ry=".142771"/><ellipse cx="108.08231" cy="108.07056" fill="url(#D)" opacity=".4" rx=".811487" ry=".799518"/><ellipse cx="108.08231" cy="108.07056" fill="#fffae7" opacity=".8" rx=".144908" ry=".142771"/><ellipse cx="100.85138" cy="120.64867" fill="url(#E)" opacity=".4" rx=".811487" ry=".799518"/><ellipse cx="100.85138" cy="120.64867" fill="#fffae7" opacity=".8" rx=".144908" ry=".142771"/><ellipse cx="96.228806" cy="58.357674" fill="url(#F)" opacity=".4" rx=".811487" ry=".799518"/><ellipse cx="96.228806" cy="58.357674" fill="#fffae7" opacity=".8" rx=".144908" ry=".142771"/><ellipse cx="40.815849" cy="84.142128" fill="url(#G)" opacity=".4" rx="1.637465" ry="1.613313"/><ellipse cx="40.815849" cy="84.142128" fill="#fffae7" opacity=".8" rx=".289817" ry=".285542"/><ellipse cx="42.801102" cy="116.9509" fill="url(#H)" opacity=".4" rx="1.637465" ry="1.613313"/><ellipse cx="42.801102" cy="116.9509" fill="#fffae7" opacity=".8" rx=".289817" ry=".285542"/><ellipse cx="89.302185" cy="129.98592" fill="url(#I)" opacity=".4" rx="1.637465" ry="1.613313"/><ellipse cx="89.302185" cy="129.98592" fill="#fffae7" opacity=".8" rx=".289817" ry=".285542"/><ellipse cx="128.58684" cy="91.152184" fill="url(#J)" opacity=".4" rx="1.637465" ry="1.613313"/><ellipse cx="128.58684" cy="91.152184" fill="#fffae7" opacity=".8" rx=".289817" ry=".285542"/><ellipse cx="24.962875" cy="97.434105" fill="url(#K)" opacity=".4" rx="1.637465" ry="1.613313"/><ellipse cx="24.962875" cy="97.434105" fill="#fffae7" opacity=".8" rx=".289817" ry=".285542"/><ellipse cx="36.410637" cy="42.324486" fill="url(#L)" opacity=".4" rx="1.637465" ry="1.613313"/><ellipse cx="36.410637" cy="42.324486" fill="#fffae7" opacity=".8" rx=".289817" ry=".285542"/><ellipse cx="33.845757" cy="62.212494" fill="url(#M)" opacity=".4" rx="1.637465" ry="1.613313"/><ellipse cx="33.845757" cy="62.212494" fill="#fffae7" opacity=".8" rx=".289817" ry=".285542"/><ellipse cx="42.120026" cy="27.747557" fill="url(#N)" opacity=".4" rx="1.637465" ry="1.613313"/><ellipse cx="42.120026" cy="27.747557" fill="#fffae7" opacity=".8" rx=".289817" ry=".285542"/><ellipse cx="45.365974" cy="58.500443" fill="url(#O)" opacity=".4" rx="1.028849" ry="1.013675"/><ellipse cx="45.365974" cy="58.500443" fill="#fffae7" opacity=".8" rx=".188381" ry=".185602"/><ellipse cx="48.800293" cy="76.817963" fill="url(#P)" opacity=".4" rx="1.028849" ry="1.013675"/><ellipse cx="48.800293" cy="76.817963" fill="#fffae7" opacity=".8" rx=".188381" ry=".185602"/><ellipse cx="16.413284" cy="84.427673" fill="url(#Q)" opacity=".4" rx="1.028849" ry="1.013675"/><ellipse cx="16.413284" cy="84.427673" fill="#fffae7" opacity=".8" rx=".188381" ry=".185602"/><ellipse cx="19.876591" cy="116.9509" fill="url(#R)" opacity=".4" rx="1.028849" ry="1.013675"/><ellipse cx="19.876591" cy="116.9509" fill="#fffae7" opacity=".8" rx=".188381" ry=".185602"/><ellipse cx="22.745773" cy="38.869423" fill="url(#S)" opacity=".4" rx="1.028849" ry="1.013675"/><ellipse cx="22.745773" cy="38.869423" fill="#fffae7" opacity=".8" rx=".188381" ry=".185602"/><ellipse cx="55.654465" cy="65.453392" fill="url(#T)" opacity=".4" rx="1.028849" ry="1.013675"/><ellipse cx="55.654465" cy="65.453392" fill="#fffae7" opacity=".8" rx=".188381" ry=".185602"/><ellipse cx="109.71977" cy="53.260742" fill="url(#U)" opacity=".4" rx="1.637465" ry="1.613313"/><ellipse cx="109.71977" cy="53.260742" fill="#fffae7" opacity=".8" rx=".289817" ry=".285542"/><ellipse cx="113.25554" cy="41.739128" fill="url(#V)" opacity=".4" rx="1.637465" ry="1.613313"/><ellipse cx="113.25554" cy="41.739128" fill="#fffae7" opacity=".8" rx=".289817" ry=".285542"/><ellipse cx="128.58684" cy="64.439735" fill="url(#W)" opacity=".4" rx="1.637465" ry="1.613313"/><ellipse cx="128.58684" cy="64.439735" fill="#fffae7" opacity=".8" rx=".289817" ry=".285542"/><ellipse cx="106.45934" cy="26.662497" fill="url(#X)" opacity=".4" rx="1.637465" ry="1.613313"/><ellipse cx="106.45934" cy="26.662497" fill="#fffae7" opacity=".8" rx=".289817" ry=".285542"/><ellipse cx="66.609535" cy="68.194603" fill="url(#Y)" opacity=".8" rx="2.782241" ry=".799518"/><ellipse cx="66.609535" cy="68.194603" fill="url(#Z)" opacity=".8" rx=".811487" ry="2.741205"/><ellipse cx="66.609535" cy="68.194603" fill="#fffae7" opacity=".8" rx=".318798" ry=".314096"/><ellipse cx="11.109633" cy="55.388039" fill="url(#aa)" opacity=".8" rx="4.303778" ry="1.227831"/><ellipse cx="11.109633" cy="55.388039" fill="url(#ab)" opacity=".8" rx="1.246212" ry="4.240301"/><ellipse cx="11.109633" cy="55.388039" fill="#fffae7" opacity=".8" rx=".492688" ry=".485422"/><ellipse cx="86.519936" cy="74.619293" fill="url(#ac)" opacity=".8" rx="4.303778" ry="1.227831"/><ellipse cx="86.519936" cy="74.619293" fill="url(#ad)" opacity=".8" rx="1.246212" ry="4.240301"/><ellipse cx="86.519936" cy="74.619293" fill="#fffae7" opacity=".8" rx=".492688" ry=".485422"/><ellipse cx="85.766418" cy="4.240301" fill="url(#ae)" opacity=".8" rx="4.303778" ry="1.227831"/><ellipse cx="85.766418" cy="4.240301" fill="url(#af)" opacity=".8" rx="1.246212" ry="4.240301"/><ellipse cx="85.766418" cy="4.240301" fill="#fffae7" opacity=".8" rx=".492688" ry=".485422"/><ellipse cx="87.012642" cy="44.508881" fill="url(#ag)" opacity=".8" rx="4.303778" ry="1.227831"/><ellipse cx="87.012642" cy="44.508881" fill="url(#ah)" opacity=".8" rx="1.246212" ry="4.240301"/><ellipse cx="87.012642" cy="44.508881" fill="#fffae7" opacity=".8" rx=".492688" ry=".485422"/><ellipse cx="127.98789" cy="36.499428" fill="url(#ai)" opacity=".8" rx="4.303778" ry="1.227831"/><ellipse cx="127.98789" cy="36.499428" fill="url(#aj)" opacity=".8" rx="1.246212" ry="4.240301"/><ellipse cx="127.98789" cy="36.499428" fill="#fffae7" opacity=".8" rx=".492688" ry=".485422"/><ellipse cx="13.436668" cy="18.081957" fill="url(#ak)" opacity=".8" rx="2.782241" ry=".799518"/><ellipse cx="13.436668" cy="18.081957" fill="url(#al)" opacity=".8" rx=".811487" ry="2.741205"/><ellipse cx="13.436668" cy="18.081957" fill="#fffae7" opacity=".8" rx=".318798" ry=".314096"/><ellipse cx="43.612579" cy="106.47152" fill="url(#am)" opacity=".8" rx="2.782241" ry=".799518"/><ellipse cx="43.612579" cy="106.47152" fill="url(#an)" opacity=".8" rx=".811487" ry="2.741205"/><ellipse cx="43.612579" cy="106.47152" fill="#fffae7" opacity=".8" rx=".318798" ry=".314096"/><ellipse cx="29.38258" cy="77.845924" fill="url(#ao)" opacity=".8" rx="2.782241" ry=".799518"/><ellipse cx="29.38258" cy="77.845924" fill="url(#ap)" opacity=".8" rx=".811487" ry="2.741205"/><ellipse cx="29.38258" cy="77.845924" fill="#fffae7" opacity=".8" rx=".318798" ry=".314096"/><ellipse cx="58.32077" cy="44.994301" fill="url(#aq)" opacity=".8" rx="2.782241" ry=".799518"/><ellipse cx="58.32077" cy="44.994301" fill="url(#ar)" opacity=".8" rx=".811487" ry="2.741205"/><ellipse cx="58.32077" cy="44.994301" fill="#fffae7" opacity=".8" rx=".318798" ry=".314096"/><ellipse cx="15.384429" cy="70.950073" fill="url(#as)" opacity=".8" rx="2.782241" ry=".799518"/><ellipse cx="15.384429" cy="70.950073" fill="url(#at)" opacity=".8" rx=".811487" ry="2.741205"/><ellipse cx="15.384429" cy="70.950073" fill="#fffae7" opacity=".8" rx=".318798" ry=".314096"/><ellipse cx="67.40654" cy="120.60158" fill="url(#au)" opacity=".8" rx="2.782241" ry=".799518"/><ellipse cx="67.40654" cy="120.60158" fill="url(#av)" opacity=".8" rx=".811487" ry="2.741205"/><ellipse cx="67.40654" cy="120.60158" fill="#fffae7" opacity=".8" rx=".318798" ry=".314096"/><ellipse cx="106.11156" cy="91.152184" fill="url(#aw)" opacity=".8" rx="2.782241" ry=".799518"/><ellipse cx="106.11156" cy="91.152184" fill="url(#ax)" opacity=".8" rx=".811487" ry="2.741205"/><ellipse cx="106.11156" cy="91.152184" fill="#fffae7" opacity=".8" rx=".318798" ry=".314096"/><ellipse cx="42.699661" cy="6.631717" fill="url(#ay)" opacity=".8" rx="2.782241" ry=".799518"/><ellipse cx="42.699661" cy="6.631717" fill="url(#az)" opacity=".8" rx=".811487" ry="2.741205"/><ellipse cx="42.699661" cy="6.631717" fill="#fffae7" opacity=".8" rx=".318798" ry=".314096"/><ellipse cx="88.25885" cy="110.31207" fill="url(#aA)" opacity=".8" rx="2.782241" ry=".799518"/><ellipse cx="88.25885" cy="110.31207" fill="url(#aB)" opacity=".8" rx=".811487" ry="2.741205"/><ellipse cx="88.25885" cy="110.31207" fill="#fffae7" opacity=".8" rx=".318798" ry=".314096"/><ellipse cx="119.10985" cy="74.390869" fill="url(#aC)" opacity=".8" rx="2.782241" ry=".799518"/><ellipse cx="119.10985" cy="74.390869" fill="url(#aD)" opacity=".8" rx=".811487" ry="2.741205"/><ellipse cx="119.10985" cy="74.390869" fill="#fffae7" opacity=".8" rx=".318798" ry=".314096"/><ellipse cx="8.501285" cy="40.482735" fill="url(#aE)" opacity=".4" rx="1.637465" ry="1.613313"/><ellipse cx="8.501285" cy="40.482735" fill="#fffae7" opacity=".8" rx=".289817" ry=".285542"/></g><path d="m249.19727 99.001953c-33.67502-.118114-67.82925 3.786397-100.15821 13.212887-30.42534 8.87143-60.812232 21.16811-86.171872 40.17578-12.076474 9.05162-23.122278 20.52334-29.876954 34.01954-8.245033 16.47401-11.194255 35.66088-11.380859 54.08203-.200538 19.79661 2.117574 40.68787 11.050781 58.35547 14.59888 28.87284 37.903725 55.20574 66.097656 71.07617 44.621398 25.11746 99.234418 31.0753 150.439458 31.07812 51.1844.003 105.76894-5.95658 150.38085-31.04883 28.19319-15.85741 51.21612-42.31736 66.125-71.02343 9.4135-18.12505 13.04626-39.52687 12.67383-59.94727-.343-18.80676-5.2148-37.94756-13.67773-54.74609-5.06034-10.04452-12.64787-19.03988-21.43945-26.05469-25.90446-20.66919-57.23305-34.71229-88.87891-44.55078-33.80258-10.509-69.78531-14.504749-105.18359-14.628907zm0 17.999997c68.65993 0 137.10023 18.92048 182.86718 55.27344-.234 14.34999-1.81904 35.62448-9.33203 48.23047-110.63389-60.33594-236.43447-60.33594-347.068358 0-7.513992-12.60599-9.098031-33.88048-9.332031-48.23047 45.766949-36.35296 114.205299-55.27344 182.865239-55.27344zm199.81054 76.05664c15.48049 27.52998 12.11065 68.9131-.23828 99.80469-10.44478 26.12826-33.51784 47.69826-58.04492 61.29297-42.10981 23.34034-93.38165 28.84573-141.52734 28.8457-48.14537-.00003-99.41794-5.50531-141.52735-28.8457-24.526816-13.59472-47.448542-34.99145-57.933592-61-12.295059-30.49835-14.401861-71.39246-.671875-98.64844 1.535999 15.07099 7.19436 32.15593 17.771485 43.85742 18.363146 20.31519 46.473952 30.30267 72.646482 38.35938 35.17119 10.82678 72.91496 12.27749 109.71485 12.27734 36.80025-.00015 74.55298-1.42734 109.71679-12.27929 26.2621-8.10478 54.64296-18.01958 72.85742-38.60157 10.65791-12.04323 15.44306-29.43393 17.23633-45.0625zm-199.81054.0605c55.44097.00023 109.445 13.76078 161.13867 41.20313-11.92425 10.05959-36.35344 18.99145-55.85352 24.95507-16.20512 4.95595-33.23904 6.85356-50.07617 8.77149-18.31102 2.08582-36.77954 2.95307-55.20898 2.95312-18.42897.00005-36.89841-.86766-55.20899-2.95312-16.83689-1.91761-33.86962-3.81277-50.07422-8.76953-19.49824-5.9642-43.926917-14.89762-55.845701-24.96089 51.691401-27.43962 105.691411-41.19945 161.128911-41.19922z" fill="#d9f2f2" filter="url(#j)" stroke-width="1.16956" transform="matrix(.8376959 .2081989 -.21273584 .81983064 93.759957 -7.007962)"/><g opacity=".9" stroke-width="1.16956" transform="matrix(.8376959 .2081989 -.21273584 .81983064 93.759957 -7.007962)"><path d="m32.990248 186.4095c-8.245042 16.47403-11.194643 35.66059-11.381247 54.08176-.200538 19.79663 2.117953 40.68813 11.051169 58.35574 14.598894 28.87287 37.904259 55.20668 66.098219 71.07712 44.621441 25.11749 99.233801 31.07436 150.438891 31.07718 51.18446.003 105.76973-5.95583 150.38169-31.0481 28.19321-15.85743 51.21527-42.31807 66.12417-71.02417 9.4135-18.12507 13.04622-39.52593 12.67379-59.94635-.343-18.80678-5.21476-37.94845-13.6777-54.747-5.06034-10.04453-12.64786-19.03987-21.43945-26.05469-25.90448-20.66921-57.23339-34.7126-88.87928-44.5511-33.80261-10.50901-69.7849-14.504435-105.18322-14.628593-33.67505-.118114-67.82884 3.787673-100.15783 13.214173-30.42537 8.87144-60.812583 21.16681-86.172249 40.1745-12.076486 9.05162-23.122271 20.52332-29.876953 34.01953zm216.207032 6.70899c55.44103.00023 109.44495 13.76075 161.13867 41.20312-11.92426 10.0596-36.35341 18.99145-55.85351 24.95508-16.20514 4.95595-33.23857 6.85327-50.07572 8.7712-18.31104 2.08582-36.77998 2.95336-55.20944 2.95341-18.42898.00005-36.89743-.86755-55.20803-2.95301-16.83691-1.91761-33.87056-3.81288-50.07517-8.76965-19.49826-5.96425-43.926911-14.89765-55.845707-24.96093 51.691457-27.43965 105.691357-41.19945 161.128907-41.19922z" fill="#8aa8a8" opacity="1" stroke-width="1.16956"/><path d="m249.19727 107.45508c-70.4137 0-140.66968 19.11333-188.802739 57.3457a9.5468988 9.5468988 0 0 0 -3.607422 7.63086c.242943 14.89842 1.047338 36.80432 10.677735 52.96094a9.5468988 9.5468988 0 0 0 12.769531 3.49414c107.963535-58.87962 229.964195-58.87962 337.927735 0a9.5468988 9.5468988 0 0 0 12.76953-3.49414c9.62883-16.15613 10.43478-38.06208 10.67774-52.96094a9.5468988 9.5468988 0 0 0 -3.60743-7.63086c-48.13315-38.23245-118.39099-57.3457-188.80468-57.3457z" fill="#d9f2f2" opacity="1" stroke-width="1.16956"/><path d="m249.19727 107.45508c-70.4137 0-140.66968 19.11333-188.802739 57.3457a9.5468988 9.5468988 0 0 0 -3.607422 7.63086c.242943 14.89842 1.047338 36.80432 10.677735 52.96094a9.5468988 9.5468988 0 0 0 12.769531 3.49414c107.963535-58.87962 229.964195-58.87962 337.927735 0a9.5468988 9.5468988 0 0 0 12.76953-3.49414c9.62883-16.15613 10.43478-38.06208 10.67774-52.96094a9.5468988 9.5468988 0 0 0 -3.60743-7.63086c-48.13315-38.23245-118.39099-57.3457-188.80468-57.3457z" fill="url(#c)" opacity="1"/><g stroke-width="1.16956"><path d="m249.19727 107.00195c-70.49712 0-140.83839 19.1216-189.083989 57.44336a10.001 10.001 0 0 0 -3.779297 7.99219c.243369 14.92451 1.009171 36.862 10.740235 53.1875a10.001 10.001 0 0 0 13.376953 3.66016c107.836518-58.81035 229.657618-58.81035 337.494138 0a10.001 10.001 0 0 0 13.37696-3.66016c9.72946-16.32499 10.49685-38.26253 10.74023-53.1875a10.001 10.001 0 0 0 -3.7793-7.99219c-48.2457-38.32185-118.58882-57.44336-189.08593-57.44336z" fill="url(#a)" opacity="1"/><g><path d="m225.39258 120.86523c-10.16146 5.01023-12.79036 14.13431-6.41856 19.87996 3.26814 5.73902 5.854 11.88312 1.60888 19.09223 12.39516 7.34259 20.23075-11.3105 12.79408-21.04054 13.60429-6.08809-1.40708-15.71055-7.9844-17.93165zm-41.0586 4.60743c-11.83483 6.08038-8.57592 16.32569-5.3457 20.82226-8.19572-11.72804-29.67628 16.05014-10.37305 7.71289 4.34808 6.31339-6.26315 20.57702 7.73605 13.39279 7.37307-8.6197 13.52415-2.62616 4.31669 3.65405 5.47748 8.16757 23.27741 1.46522 13.25586-6.42969 16.3934-2.96983 16.98297-24.46136 5.01446-27.05916-.98162-6.85766-6.83649-10.0437-14.60431-12.09314zm42.25586 1.09179c1.75461 2.67809-2.096.88389 0 0zm-40.57617 4.4375c2.13276 2.4583-1.99805 1.14113 0 0zm45.79297 1.27149c2.92148 2.48918-1.6112 1.51548 0 0zm114.26563.33594c-9.97213.008-16.63715 10.57056-17.84635 14.23347-4.38165-2.81394-12.7276-6.94402-19.06381-2.94637-10.18156-9.80977-23.59053-.9825-35.03099-7.37298-8.48419 6.80785-22.14788-8.06079-26.49849 5.92885 13.05005 3.59419-8.42276 19.94431 7.5241 17.89962 9.76051-5.27956 21.09084 6.24871 30.34522-5.35978.86089 17.39459 25.5685 2.31761 27.72657-4.07617 3.89506 13.1351-28.17434 11.89084-5.36435 14.80907 10.00283 1.79485 16.37157-5.01653 22.72239 4.22253 11.03452 7.05004 28.27252-20.48019 21.21775-1.35395 1.85924 11.00542-16.05133 17.90552-7.04064 24.01008 9.89397-.30119 16.97328-4.21708 17.51367-15.40821 9.57126 17.86935 30.2295-13.40662 33.99321 4.39135-3.78617-5.62426-23.13925-.48783-9.84697 7.9628 16.15887 9.84247 34.87946-14.69382 12.81073-21.42081-12.3604 1.41824-18.49838-14.07327-32.39251-9.45287-3.98245-12.03234-17.91033.54267-23.29057-11.16225-19.35447.24387 24.99975-11.21054 2.52104-14.90414zm-124.41016.26953c1.65052 3.29008-2.44299.77344 0 0zm-29.61133 3.30078c1.58312 2.27618-2.15415 1.2458 0 0zm-51.88476.8164c-17.3318 4.32495-17.71664 27.13406-36.25758 30.4084-7.964186 5.74189-25.268303 6.59698-22.669727 23.27545 5.850682 18.4066 24.411947-1.48779 30.990587-2.51682 12.35591-4.99598 29.69083-8.59375 43.46644-17.40101 13.03174-5.98561-4.45987-12.63189-1.55854-10.61254 1.68394-10.71562-18.72941-5.86318-6.58086-13.39293 3.31024-4.98558-2.22058-10.53857-7.39032-9.76055zm41.69336.83008c1.96247 3.42832-2.55633.69072 0 0zm5.61718 3.28321-.0539.0845zm40.59766 1.42773c.81736.84144-.29491.24213 0 0zm-86.65234 1.00977.2774.26539zm129.8496 2.01562c12.67805 6.5238-1.53014 3.56342-6.5288 6.66154-1.21375-4.327 2.4367-6.97735 6.5288-6.66154zm-12.5371.18359-.0844.36332zm72.57031.54297-.31434.0252zm-48.38867.28711-.0696-.0626zm32.06445.99805-.29818-.0379zm-22.11914-.10938c9.81901 3.13312 4.61405 7.71979-2.6188 4.81263-8.97964 7.58522-.47803-6.65163 2.6188-4.81263zm-100.6875 2.12891c12.27296 5.73762-9.56192 4.47713-9.35643 8.62024-3.28381-6.07515 4.80195-8.68518 9.35643-8.62024zm-58.90235 1.19336c5.10319 4.5908-11.52342 11.85598-1.53588 1.78982l1.52221-1.91482.0109.0994zm42.00391 2.1543.26758.80664zm156.1582 1.50586c9.64478-1.82208 9.04261 13.02204 1.50922 3.95919-10.75875 5.66967-12.53299-1.25752-1.50922-3.95919zm-60.72461 1.62695-.0855-.49456zm22.36133 1.58789c-1.5179 1.77829-.84869-2.49183 0 0zm52.9043-.0566.008.15635zm-199.10352 1.11523.30636.33395zm44.06836 1.15821c-.82728 1.22067-.34762-2.47538 0 0zm120.12305 1.55859c-.31233 1.09409-.41121-.76946 0 0zm-171.53516 1.00977c11.81559 5.60015-19.40609 12.08798-4.08789.8457l1.99172-.68713zm192.20704 1.76757c-.77397 1.98623-.66921-1.67079 0 0zm-209.28126.9961c6.27037 5.99134-1.20695.26063 0 0zm247.86719 1.02148c11.31486 4.47624 2.55759 8.10452.74219 4.40625-9.58476 3.26152-8.39013-4.354-.74219-4.40625zm-180.10156 2.40625c2.1382 1.83487-1.75536 1.64083 0 0zm-72.13867 1.51758c8.89348 9.43085-8.68665 4.29513 0 0zm265.23047 1.10352c-.50987-.52141-.005-.82624 0 0zm-278.17383 1.0957c.71478 2.29543-2.17103-1.27367 0 0zm-3.0293 1.54492c11.20784 7.9649-14.710279 18.14402-9.197264 8.32031 4.777114 1.87494 7.830024-4.95367 9.197264-8.32031zm267.42188 1.44141c.7176 2.7819-2.30695.38664 0 0zm-274.800784.78515c.338816 3.75403-2.785306-1.58524 0 0zm308.546874 4.57227-.0252.20993zm-13.64648 4.1582c-1.97052 1.63044-.30982-2.49684 0 0z" fill="#fff" filter="url(#h)" stroke-width="1.16956"/><path d="m344.52563 188.23438c-.0525-.13591.74261-.49014 1.77493-.77774 3.18751-.88797 3.10863-.67469 7.52325-14.47985 3.71512-11.61776 3.79304-11.93911 3.40943-13.30869-.39003-1.3926-.66315-1.65072-2.84541-2.54571-.85602-.35107-.86666-.36291.8004-.84976 3.37954-.98699 6.64089-.50632 7.75012 1.07911.62498.8933 1.02701 2.99959.74266 3.83864-.44255 1.30564.12134 1.43543 2.93067.82827 1.60556-.34701 4.11002-.54588 6.07458-.47523 3.16613.11386 3.52843.19079 6.72087 1.48338 3.06894 1.24257 3.47551 1.5012 4.53042 2.64829 1.0263 1.11597 1.87181 2.6737 2.42005 4.46607.14685.48005.50037.50558 2.92389.28383 3.2791-.30002 6.26065-.023 8.78292.73318 4.99509 1.53877 8.10944 4.86701 8.47956 9.0662.2428 2.75479-1.94207 5.31717-5.20284 6.48206-2.84517 1.01642-7.79237 1.22784-10.91419.72018-.87934-.15339-1.65613-.36963-2.26794-.65287-1.78305-.82556-3.02132-2.08729-3.13522-3.21843-.0798-.79205.01-.9387.69858-1.11287.96554-.2442 4.36869-.27822 4.8709-.0456.18962.0878.73952.85542 1.21869 1.70818.0319.0568.0639.1125.0959.16714 1.50146 2.62556 3.11985 2.75925 5.81814.46362 2.51846-2.14266 3.07587-4.99525 1.21623-8.14875-.59941-1.01647-1.33727-1.89283-2.19808-2.61656-1.57492-1.34496-3.55356-2.15067-5.84236-2.35704-2.75123-.24804-4.06304.28244-5.45498 2.15307-2.29941 3.09031-5.04588 4.5247-9.41778 5.06786-4.22704.52513-7.38736.0794-9.34768-1.40301-1.14722-.86757-1.90457-2.10727-1.66435-2.7523.2513-.67476 4.51951-1.24728 5.75761-.76508.31218.1216.57841.48434.59194.80586.031.73802 1.50788 2.24548 2.64621 2.70979.73347.29914 1.09696.20535 2.2295-.56021 3.74465-2.53121 4.7021-5.77356 2.43838-9.26611-2.93409-4.52683-9.42728-6.02284-14.53085-3.32609-.52395.27686-1.04654.55505-1.56775.83456-.23275.89445-.46619 1.78869-.70032 2.68273-.39178 1.49596-1.9909 6.38956-3.58057 10.96609-.95917 2.76137-1.91881 5.52258-2.87891 8.28363-1.00851.18517-2.01306.37635-3.01347.57366-4.76573.93991-7.64081 1.2437-7.88311.61648zm-156.38823-17.10052c-.70361-.35712-1.40927-.71213-2.117-1.06499.53809-.57938 1.07929-1.15755 1.62354-1.73452.89883-.95288 1.89815-1.77104 2.21508-1.82459.68035-.11496 4.17918 1.73549 4.26011 2.24778.0716.45297-2.74055 3.26132-3.36346 3.36667-.28128.0476-1.45829-.40159-2.61827-.99035zm-64.51983 8.81196c1.32141-2.02677 1.3446-2.07973.92034-3.8142-.73015-2.9851-3.04433-7.55095-4.32841-8.46212-1.65742-1.17588-2.17951-1.17522-6.09316.36631-1.15415.45461-2.30573.91509-3.45475 1.38123.76163 1.62912 1.5227 3.25849 2.2832 4.88812 2.61588 5.60542 3.18806 6.21051 5.17824 5.51612.36443-.12715.729-.25368 1.09371-.37958-.23567.4477-.47012.89559-.70337 1.34368-.3822.73423-1.36145 1.96195-2.15817 2.71029-2.52384 2.37062-4.00713 2.12799-6.11181-1.0724-.00038-.00056-1.05001-1.59402-1.05038-1.59459-.39104.60046-.77988 1.20145-1.16658 1.80294-.445.69218-.9022 1.35857-1.37008 1.99809-5.10689 7.13346-11.26813 11.33674-17.347204 10.43763-4.639355-.68617-6.453834-5.55739-3.603298-11.75655 2.109343-4.58727 5.64746-8.29933 8.855435-9.40215 1.32145-.45427 3.953088-.46999 4.166839-.0349.147614.30045-1.431084 2.67892-2.590167 3.94608-.381518.41709-.75985.83537-1.135157 1.25478-.415124-.032-.830817-.0626-1.247028-.0917-2.466769-.17252-4.647839.69457-5.294957 2.05535-1.101313 2.31587-.05747 6.53031 1.814934 7.80561 2.172071 1.4794 6.989776 1.18767 10.108583-.47613 2.74685-1.46538 4.07863-2.61193 5.64235-5.07925.26982-.41859.54335-.87291.82912-1.37089.58272-1.0154 1.17123-2.0298 1.7658-3.04308-.57301-1.08488-1.14663-2.16945-1.72084-3.25371-.94802-1.79012-1.90719-3.38603-2.13324-3.5515-.3082-.22561-.0961-.65598.87666-1.74036 2.31978-2.58585 3.90053-3.64558 10.3668-6.34627 1.98585-.82941 3.98086-1.64126 5.98507-2.43439.18472-.47529.37076-.95053.55813-1.42569 2.5573-6.48517 8.30185-14.9519 11.74589-17.4356 2.93346-2.11548 5.95603-2.87009 8.18376-2.22991.86053.25073 1.60083.70977 2.17714 1.37725 1.01375 1.17413.73739 2.65921-.52612 4.14679-1.18418 1.39194-3.23007 2.79599-5.91987 4.00003-1.97814.88548-2.42872.48264-.53035-.79883 2.29974-1.5524 2.38996-3.29324.0722-4.02007-3.50323-1.09858-8.15357 3.09949-12.49532 12.20992-.72038 1.5116-1.42571 3.02475-2.11657 4.53929.31118.15911.62195.31864.9323.47859.51409.26494 1.34781 1.03443 1.85922 1.71534.51022.67934.99814 1.20849 1.08636 1.1748.0882-.0337.8887-1.03469 1.79468-2.21957.99212-1.29755 2.69973-2.98272 4.29503-4.22299 2.25863-1.75597 3.10201-2.22758 5.59726-3.15073 2.61696-.96818 3.1954-1.07443 5.15059-1.03134 1.03232.0228 2.07656.21163 3.02384.52458 1.25092.41513 2.32526 1.04407 2.9803 1.78127 1.03053 1.15975 1.27347 3.44008.62116 5.40791-.16869.50889-.48233 1.14776-.89866 1.85398-.45893.77865-1.04507 1.64355-1.69976 2.50374-.67005.88038-1.33266 1.76317-1.98804 2.64825 1.28403-.44063 2.57124-.87154 3.86168-1.29239.32253-.10519.61662-.20117.89245-.29184 2.58393-.85062 3.17967-1.12253 3.89613-1.78841 1.18296-1.09947 2.79883-1.88881 2.71294-1.34395-.0711.45073-3.55779 3.64167-5.91061 5.46929-.0266.0206-.053.0411-.0793.0614-.60231.46487-1.20176.93194-1.7984 1.40116-4.17492 1.28515-8.32305 2.67741-12.44464 4.16511-6.8478 2.47172-12.79941 5.05039-13.51673 5.49195-.40983.25228-.81906.5054-1.22768.75935.44096-.6879.88508-1.37495 1.33245-2.06111zm14.76896-8.09767c1.60867-.5654 3.2217-1.11633 4.83913-1.65211.37095-.46275.74392-.92476 1.11894-1.38601 2.45267-3.01662 2.37675-6.45682-.42529-8.27709-2.54359-1.65238-6.08323-1.82022-9.35317-.40872-2.99908 1.29459-4.67832 2.98506-6.33651 6.41634-.60492 1.25178-.59569 1.27809.78683 4.53881.76441 1.80287 1.57967 3.37776 1.80938 3.49594.28979.14909.77878.0273 1.58223-.38838.67226-.3478 3.29002-1.39387 5.97846-2.33878zm32.25292-5.61445c-.0143-.0627.60994-.63615 1.39388-1.27093 2.09665-1.69772 2.2065-2.31519 1.13911-7.31374-1.22963-5.7583-2.46606-7.29886-5.59587-6.80763-.41294.0648-.82584.13043-1.23869.19684.22091-.30591.44252-.61161.66481-.91709 1.81585-2.49547 5.72364-4.18569 7.61242-3.31482 1.21446.55996 2.24655 1.74471 2.85891 3.26865.2788.69378.5835 1.24656.67827 1.22809.0948-.0185.87493-.69204 1.74154-1.49263 5.25322-4.853 11.66609-7.35862 16.82758-7.18171 2.89761.0969 5.37499 1.03631 7.03806 2.84391 2.70808 2.94346 1.11262 7.74206-3.49312 11.71163-.42881.36958-.87903.72938-1.34282 1.07499-1.9661 1.46276-4.19644 2.68387-6.12464 3.31822-2.24394.73822-4.43372.55429-5.71161-.49885-1.13043-.93165-.91261-1.48103 1.39754-3.11546 2.07114-1.4653 2.58863-1.56406 3.50806-.72354.92739.8478 2.75529 1.20399 4.38579.86301 1.19652-.25023 1.35071-.38105 2.23127-2.06919.002-.004.0654-.12575.0673-.12943 1.11684-2.15188 1.25286-4.77128.27433-6.2773-.27955-.43028-.78783-.893-1.43167-1.33047-1.05699-.71936-2.47156-1.36625-3.82847-1.69727-1.55883-.38028-2.23662-.38425-4.76568.0265-3.68099.59783-5.96542 1.77588-8.46284 4.35774-1.71403 1.772-1.71712 1.8041-1.58435 3.80046.0736 1.1071.4155 2.97359.75674 4.15047.20675.71299.41308 1.42608.619 2.13928-.31379.24584-.6269.4921-.93931.73879-2.19544 1.73363-8.55604 4.94653-8.67553 4.4215zm52.88034-7.77687c-.005-.0659.61185-.60548 1.37541-1.19634 1.30827-1.01242 1.40429-1.19238 1.63501-3.15549.1344-1.14362.0786-3.61431-.12855-5.47907-.32291-2.90621-.51494-3.56723-1.33522-4.57706-.81541-1.00385-1.14467-1.18131-2.17514-1.1791-.66707.001-1.22017-.0906-1.22857-.20682-.0304-.42015 2.93857-2.35014 4.54237-2.94506 1.38872-.51514 1.76082-.55642 2.66013-.31428 2.38926.6433 3.13145 2.75479 3.58099 10.0505.3005 4.87709.27015 5.53025-.26124 5.99333-1.16196 1.01284-8.62864 3.5295-8.66519 3.00938zm27.83465-1.00029c.00074-.12816.5641-.46921 1.25444-.7557 2.47297-1.02626 2.71276-1.59472 2.79796-6.97705.0694-4.48432.0247-4.86385-.78276-6.11011-.8802-1.35854-1.44732-1.6749-3.02462-1.68453-1.25165-.008-1.13137-.43942.46806-1.43639 2.89854-1.80673 5.69029-2.09197 7.39243-.79714 1.01655.7733 2.02271 2.75121 1.98675 3.88215-.0106.33254.079.60773.19905.61161.12007.004 1.12458-.51615 2.2399-1.14913 2.54942-1.44687 5.50241-2.52464 8.28639-3.02545 2.89686-.52112 6.92809-.23167 8.81763.61444 1.43809.64394 3.56809 2.42733 4.25618 3.55458.21628.35431.43425.68669.48449.73737.0505.0509 1.17312-.38353 2.50389-.95562 4.29562-1.84668 9.69946-2.54582 12.76067-1.70526.23481.0645.46874.13804.70093.22004v.00001c2.62656.92889 4.9993 2.92841 5.93466 5.02812.68989 1.54866.36646 4.09365-.71092 5.83125-1.32994 2.1449-4.32966 4.0256-7.48627 5.19997-3.65747 1.36509-7.59089 1.82005-9.66246.53627-1.16495-.72193-1.9025-1.77191-1.5708-2.25917.32885-.48313 3.43789-1.72097 4.62035-1.83599.6533-.0635 1.08806.17132 2.10115 1.156 1.07303 1.04289 1.45484 1.24972 2.46574 1.31524.98175.0636 1.36836-.0918 2.15653-.86526.0612-.06.12591-.12824.19327-.20327.51368-.57133 1.18742-1.54765 1.58115-2.30794.67383-1.30123.77914-1.8236.59871-3.07425-.13214-.91594-.50156-1.7969-1.05463-2.60468-1.85143-2.70039-5.75225-4.55411-9.49688-4.1301-.80233.0908-2.29937.59644-3.34575 1.13307-1.67131.85711-1.90115 1.10392-1.99399 2.04396-.28011 2.83605-2.61295 5.7038-6.09001 7.67176-3.86022 2.1848-7.89173 3.23446-10.33871 2.61585-1.52253-.3849-3.27492-1.73949-3.06805-2.38866.16945-.53172 3.42846-2.18746 4.60593-2.33662.54841-.0695 1.14277.21481 2.15725 1.0451 1.04642.85646 1.67618 1.1642 2.5306 1.22593 1.05628.0763 1.22704-.0393 2.38819-1.54001 1.43905-1.85991 2.14973-4.65877 1.54806-6.26545-.61101-1.63171-2.52444-3.39046-4.72312-4.30766-3.90209-1.62779-8.32999-.93417-11.50042 1.78803-1.50333 1.29083-1.63578 1.54267-1.91184 3.4773-.16355 1.14598-.21931 3.00107-.12707 4.12195.0559.67939.11143 1.35878.16651 2.03819-.38521.19438-.76981.38936-1.1538.58494-1.31169.66813-7.57165 2.52667-8.45969 2.51986-.38302-.003-.69581-.10949-.69508-.23756zm59.61305 5.06936c.4818-.17104 1.29593-.43779 1.8705-.61234 1.78981-.54372 2.2449-1.42202 3.10552-6.09193.43389-2.34819.69651-4.71858.58459-5.27931-.30772-1.54189-1.51954-2.80129-3.05548-3.16388-.43113-.10178-.86245-.20278-1.29396-.30302.29506-.18172.59056-.3631.88651-.54411 1.6002-.97882 4.44867-1.53516 6.19003-1.20647 1.29028.24354 1.70896.46794 2.36176 1.25647.85227 1.02952 1.47827 3.32295 1.24055 4.4982-.0794.39261-.0459.73376.0745.7582.12037.0244 1.12001-.29491 2.22764-.70236 7.33149-2.69699 14.85182-2.37932 19.85802.69656 1.7951 1.10294 3.54406 3.16873 4.06248 4.77304.67004 2.0735-.37891 4.53417-2.63139 6.42906-2.98676 2.51258-9.35704 4.2726-13.90729 3.91703-1.4625-.11429-2.00303-.26555-3.14233-.88632-1.71652-.93527-2.72666-2.55683-1.96185-3.21479.6057-.52109 4.31257-1.40526 5.11054-1.21395.30012.072.74349.5382.98486 1.03684.56775 1.17295 2.00569 2.13943 3.63845 2.45855 1.24364.24307 1.38454.17728 3.13128-1.26815 2.94846-2.43989 3.45041-5.10794 1.25863-8.04215-3.66302-4.90384-11.60425-6.12588-17.72279-2.68857-.42418.2383-.84747.47741-1.26986.71729-.26129 1.31318-.52265 2.62634-.78407 3.93949-.26141 1.31315-.52289 2.62629-.78442 3.93942-.35335.0988-.70633.19825-1.05895.29821-1.61384.4575-7.9326 1.14823-8.8742.97532-.31642-.0581-.63296-.11579-.94959-.17305.28328-.10142.56682-.2025.85062-.30324-.0001-.00002-.00019-.00003-.00028-.00004zm-131.0453-22.02161c-1.09294-.4899-2.02451-1.04907-2.06214-1.24814-.0955-.50542 2.5531-3.10172 3.30501-3.23592.66478-.11866 4.54764 1.54416 4.61954 1.97469.0533.31947-3.02814 3.25419-3.50522 3.3391-.20507.0365-1.26444-.33991-2.35719-.82973zm10.12019-1.71963c-1.07691-.51989-1.98656-1.0801-2.01391-1.25001-.0625-.38856 2.13883-2.67774 3.05237-3.17272.53395-.28931 1.04977-.19047 2.7294.55924.90389.40343 1.68868.87106 1.98917 1.16319.0775.0749.1227.13815.12937.18566.007.0466-.02.1189-.0735.2112-.45629.79186-2.93464 3.11467-3.48419 3.19734-.20552.0309-1.25208-.37412-2.32875-.8939zm29.45752-3.43217c-1.03411-.60233-1.90011-1.25668-1.91654-1.4586-.0417-.51227 2.86058-2.81448 3.62205-2.86881.67178-.0479 4.35799 2.01338 4.38423 2.44881.0195.32346-3.35286 2.9176-3.83508 2.95179-.20766.0147-1.22075-.47098-2.25466-1.07319zm10.24245-.64661c-1.01706-.63-1.86173-1.25804-1.86945-1.40018-.0228-.41899 3.44477-2.86969 4.10317-2.89829.75676-.0329 3.87795 1.93813 3.89536 2.45511.014.4164-3.31496 2.95068-3.90533 2.97669-.20787.009-1.20701-.50352-2.22375-1.13333zm102.53619 8.38458c.0319-.11189 2.46753-1.74896 5.47994-3.58378 3.46377-2.10974 6.06881-3.37774 6.98159-3.52098 1.6601-.2605 4.4492-.12913 4.7577.21764.18034.20269-2.91467 1.76042-6.20985 3.36921-3.2634 1.59328-6.82443 3.28402-7.66581 3.44945-1.78685.35133-3.43683.39449-3.34357.0685zm-148.41077-9.51169c-.77064-.35054-1.54374-.69869-2.31936-1.04441.64428-.6142 1.29145-1.2267 1.94142-1.83748s1.30275-1.21984 1.95826-1.82718c.81516.3664 1.62759.73541 2.43731 1.10697s1.61673.74567 2.42108 1.12226c-.62207.57492-1.2417 1.15138-1.85885 1.72936-1.0183.95367-1.94098 1.75434-2.05962 1.77379-.11865.0194-1.24868-.44491-2.52024-1.02331zm40.31137-4.67864c-.7188-.42335-1.44002-.84469-2.16369-1.264.68947-.54955 1.3818-1.09726 2.07697-1.64312.69516-.54586 1.39315-1.08986 2.09395-1.63199.77713.45039 1.55148.90309 2.32305 1.35807.77159.45498 1.54039.91223 2.30642 1.37174-.68031.50653-1.35807 1.01484-2.03326 1.52489-1.11408.84159-2.11607 1.54097-2.23614 1.54786-.12007.007-1.18132-.56492-2.3673-1.26345z" fill="#8aa8a8" stroke-width="2.92391"/></g><path d="m451.19141 183.30273a10.001 10.001 0 0 0 -12.11914 8.61524c-1.65938 14.46171-6.31296 29.99833-14.78907 39.57617-15.85421 17.91496-42.31229 27.64807-68.31836 35.67383-33.4728 10.33008-70.2258 11.83383-106.76757 11.83398-36.53709.00015-73.28481-1.52514-106.77344-11.83398-25.87589-7.9654-52.117796-17.74931-68.169924-35.50781-8.519839-9.42552-13.878114-24.8011-15.240234-38.16602a10.001 10.001 0 0 0 -18.88086-3.48437c-15.722932 31.21225-12.97787 73.87874.328126 106.88476 11.66363 28.93207 36.253808 51.53694 62.361332 66.00781 44.53664 24.68576 97.46728 30.09958 146.375 30.09961 48.90806.00003 101.83804-5.41397 146.375-30.09961 26.12407-14.47987 50.8576-37.24793 62.48242-66.32812 13.25879-33.16766 17.55277-76.61571-.33008-108.41797a10.001 10.001 0 0 0 -6.5332-4.85352z" fill="#d9f2f2" opacity="1"/></g><path d="m451.19141 183.30273a10.001 10.001 0 0 0 -12.11914 8.61524c-1.65938 14.46171-6.31296 29.99833-14.78907 39.57617-15.85421 17.91496-42.31229 27.64807-68.31836 35.67383-33.4728 10.33008-70.2258 11.83383-106.76757 11.83398-36.53709.00015-73.28481-1.52514-106.77344-11.83398-25.87589-7.9654-52.117796-17.74931-68.169924-35.50781-8.519839-9.42552-13.878114-24.8011-15.240234-38.16602a10.001 10.001 0 0 0 -18.88086-3.48437c-15.722932 31.21225-12.97787 73.87874.328126 106.88476 11.66363 28.93207 36.253808 51.53694 62.361332 66.00781 44.53664 24.68576 97.46728 30.09958 146.375 30.09961 48.90806.00003 101.83804-5.41397 146.375-30.09961 26.12407-14.47987 50.8576-37.24793 62.48242-66.32812 13.25879-33.16766 17.55277-76.61571-.33008-108.41797a10.001 10.001 0 0 0 -6.5332-4.85352z" fill="url(#c)" opacity="1"/><path d="m451.19141 183.30273a10.001 10.001 0 0 0 -12.11914 8.61524c-1.65938 14.46171-6.31296 29.99833-14.78907 39.57617-15.85421 17.91496-42.31229 27.64807-68.31836 35.67383-33.4728 10.33008-70.2258 11.83383-106.76757 11.83398-36.53709.00015-73.28481-1.52514-106.77344-11.83398-25.87589-7.9654-52.117796-17.74931-68.169924-35.50781-8.519839-9.42552-13.878114-24.8011-15.240234-38.16602a10.001 10.001 0 0 0 -18.88086-3.48437c-15.722932 31.21225-12.97787 73.87874.328126 106.88476 11.66363 28.93207 36.253808 51.53694 62.361332 66.00781 44.53664 24.68576 97.46728 30.09958 146.375 30.09961 48.90806.00003 101.83804-5.41397 146.375-30.09961 26.12407-14.47987 50.8576-37.24793 62.48242-66.32812 13.25879-33.16766 17.55277-76.61571-.33008-108.41797a10.001 10.001 0 0 0 -6.5332-4.85352z" fill="url(#b)" opacity="1" stroke-width="42.1043"/><g stroke-width="1.16956"><path d="m406.85938 263.23438c-7.23928 4.09509-3.53705 10.91241-9.15929 15.77904.97251 8.45491 13.65695 4.41182 7.11271 15.95946.40528 5.21906-15.63907-5.69937-18.24883 5.80019-1.82066 5.79879-12.38481 1.30496-14.52331 7.94503.11599-12.15361-20.53637-26.5882-17.05757-7.12267 10.16186 7.59225 10.76832 29.11091 16.58704 35.34982 6.84996-8.90524 22.18531-4.38904 23.25413-17.96478 9.54824 11.8783 14.32563-11.74515 16.8155-9.79639 21.0918 12.91924 27.89403-35.54329 5.79973-23.47314-7.25155 7.9888 15.81588 13.57439-1.48685 12.56093-7.1599-9.29618 8.26624-30.2347-9.09326-35.03749zm-314.214849 2.91601c-12.220212 6.76913-16.635379 27.61788-30.564278 30.15036-5.8482 9.8047 18.428439 15.1035 26.256448 18.00714 13.629769 1.20279 5.179433-8.37598 12.255099-14.14969.97953-9.54131-8.898194-10.74889 2.16062-14.48238 2.14319-13.44655-16.29624-3.87649-6.836404-15.14066.757802-2.11997-1.079426-4.48482-3.271485-4.38477zm310.980469 12.36719c2.04531 2.29103-2.95332 1.79895 0 0zm-307.53125 3.99414c.43622 1.34698-.701486.0645 0 0zm-6.599609.0371c6.481236 8.38522-8.22424 5.66795 0 0zm-11.669922 8.86328c1.459859 2.15151-2.176814-.79501 0 0zm7.529297 3.72461c13.376174 10.61701-20.109795 7.31785 0 0zm74.750004 5.53125c-12.78549 6.5651-26.72757 17.21116-38.05833 4.29763-19.81004-7.03651-31.975015 25.91544-6.78364 24.47342 3.36737 1.60475 8.52496 5.67084 12.13768 7.87303 4.42363-.43785 35.99641 14.17898 37.14765-3.17338-5.37626-1.68704 3.81856-15.29499-7.10352-17.69531 10.64589 1.71468 14.90938-15.53164 2.66016-15.77539zm144.01171 4.14453c-15.26605 5.7042-5.2433 21.78652-16.42382 27.84766-3.63957-15.87667-17.99073-1.44694-26.26032-6.65239-15.6835 9.55358 17.72013 19.96336 1.77569 32.68874-8.23443 22.57489 33.03651 5.2286 15.14973-1.18667-12.83519 10.89099 9.50585-27.14808 9.37032-11.52642 9.65563 17.75998 30.31995-16.76121 27.94289 6.87508.0618 6.20877-3.81146 19.7462 7.21252 11.90385 12.80051-6.10594-5.02855-22.6638 12.08181-20.86817 4.69725-13.3626 12.95762 6.90426 20.30866-6.31722 12.17346-11.5811-7.58456-32.58588-18.10865-16.97755-9.11221-5.99686-15.85762 4.86076-24.27225.89553-5.33021 7.39007-18.35016 1.56887-8.40021-5.90549 1.61464-3.1335 5.81731-9.76009-.37637-10.77695zm90.41797 1.32422c11.28481.12014-3.41234 15.83912-2.60351 2.65234-.23954-1.45787 1.15797-2.87848 2.60351-2.65234zm-165.59765 1.47656c-7.02002 5.55058-10.51457 15.26552-11.11772 18.67405-11.29635-1.03372-29.83536-7.48877-41.61568-6.47812-6.04468 6.28304.48029 11.27992-4.29466 18.85411.29054 16.47591 24.98473.98692 16.51996 17.10397-3.67488 5.33049-10.57803 10.2907-.94112 15.73466 3.39316-7.34046 17.02849-8.71697 13.39648-21.13672 10.59147-3.79528 20.08035 6.13522 29.32617-4.21093 6.94423 19.11343 33.70243-11.6119 15.13153-19.74987-7.55556-2.55907-10.94522 3.37794-6.75941-5.91666-2.916-4.09139-4.25942-11.74648-9.64555-12.87449zm-107.85352 1.99805c2.02808 2.24894-2.92033 1.52527 0 0zm31.51367 3.375c4.64024 5.16635-10.12732 3.47666 0 0zm-36.66797.77734c3.29375 3.55611 11.17848 2.42309 3.44608 7.19375-6.79467 3.36187-9.62415-7.29054-3.44608-7.19375zm263.90039.58399c15.20318 3.18507-12.41489 14.89473 0 0zm20.6875 1.22461c1.5033 1.02211-1.13086 1.64216 0 0zm-266.71289 4.57617c.63868 7.10227-5.87503 10.78396 0 0zm92.01563.66015c.89429 3.70551-3.90937-.73369 0 0zm7.28516.22852c1.62056 3.67896-3.52735-.25797 0 0zm-53.60743 2.82031c1.83861 3.10269-3.76022.8661 0 0zm-30.18554.58203c10.83165 11.91053-17.0004 5.35286 0 0zm195.27539 1.26563c8.50913 5.25888 1.02137 3.61823-3.08203 8.58984 1.7648-2.73217-2.27803-8.78101 3.08203-8.58984zm-115.86914.0312c3.87464 2.15705-1.73815.72692 0 0zm-45.41016.11133c1.09971 1.96664-1.53358 1.23086 0 0zm47.38281 1.70312c5.3509-.57017-.32976 2.81302 0 0zm71.60938.48828c.10742 2.31378-1.58076-.52932 0 0zm25.5957.84571c14.50194 6.37516-16.55064 11.97459 0 0zm-19.74609 1.39843c13.33295 4.85321-17.78251 17.96806-10.15039 2.6875 3.70436 3.23487 7.92896 1.27856 10.15039-2.6875zm-121.66602 1.17188c20.54385 3.18835-13.58299 14.26477 0 0zm16.75781 1.83789c3.20108 6.74285-3.96445 16.70876-.69482 2.76221l.33154-2.81299.36328.0508zm72.55469 1.07031c5.68302 9.34183-6.48045 3.50195 0 0zm-55.56445.19141c13.20364 9.34116-19.17404 7.68146 0 0zm16.73047.55078c7.82392 6.27964 1.39897 5.98117-4.27344 7.46289 2.08173-2.28197.0178-7.29282 4.27344-7.46289zm109.77734 1.17773c1.87461 1.33161-1.13893 1.65916 0 0zm-17.375 3.31055c1.73077 1.22854-1.19972 1.41378 0 0zm-115.89453 2.91992c-.43462 1.15276-.49643-1.0707 0 0zm5.74023 2.96485c1.41376 1.86116-1.42429 1.09582 0 0zm17.73633.76757c1.03373 1.90826-1.85146.79005 0 0z" fill="#fff" filter="url(#i)" stroke-width="1.16956"/><path d="m185.29546 364.73393c.0279-.17012.76382-.63637 1.62883-1.03904 1.80562-.84051 3.63138-2.61537 4.04305-3.89436.43915-1.36434 3.23035-19.23873 3.02388-19.26349-.10166-.0122-.62562.32757-1.16737.75349-1.48907 1.17068-5.32387 2.9086-7.44998 3.36252-.5786.12352-1.18769.19576-1.8171.216-.6563.0258-1.33503-.006-2.02445-.0976-1.75331-.2316-2.21546-.41749-3.4385-1.38172-2.65092-2.08997-3.69899-5.59366-2.52911-8.27814.90073-2.06687 2.45448-3.79372 5.08495-5.69376.8063-.58241 1.61079-1.16562 2.41384-1.74936-1.07403-.16386-2.14692-.32915-3.21846-.49636-2.83571-.4425-3.26558-.58793-3.65759-1.16583-.58704-.86536-.43296-1.46677.63866-2.57527.80596-.83369 3.52844-2.32495 4.08457-2.23759.12954.0204.11028.31364-.0431.65174-.1554.34274-.14643.89453.0215 1.2471.21339.44842.45223.62331 6.34477 1.54539h.00001c1.96023.30201 4.82643.71062 8.43308 1.14938 12.99418 1.58076 14.5217 1.51052 15.12109 1.99513.77232.62448 1.41033 2.24251 1.47639 3.76098.0827 1.90063.12436 1.92727 1.62147.78173 3.67343-2.81083 7.11776-4.18904 10.28503-4.03832 2.83375.13485 4.4958 1.20977 6.13343 3.96323.24462.4113.49005.82242.7363 1.23337.25437-.21675.50835-.43368.76195-.65081 2.30666-1.97487 5.51748-3.60328 7.99394-4.0415 3.28508-.58132 6.08506.95967 7.65951 4.23054.85062 1.7672.8957 2.00262.76906 4.39333-.11238 2.12123-.28144 2.81766-1.06561 4.33218-1.14826 2.21778-2.54864 3.76434-4.8756 5.35091-2.30579 1.57215-3.83193 2.15553-5.56341 2.15542-1.60882-.00013-2.82686-.75215-3.23033-1.98921-.21738-.66647-.11438-.89834.7406-1.71912.54249-.52077 1.49964-1.16361 2.11925-1.42324.37699-.15798.75354-.31635 1.12966-.4751.36988.40287.74074.80536 1.11257 1.20747.89061.96315 1.32479 1.20899 2.13799 1.22038.9359.0131 1.08577-.10784 1.80994-1.48937 2.48832-4.74721 1.38136-9.3814-2.57077-11.77227-2.59478-1.5697-5.46476-1.11203-7.68889 1.22056-.87175.91426-1.12293 1.39741-1.15718 2.25337-.0617 1.54303-.91637 4.20685-1.87252 5.78968-1.98894 3.29267-7.17726 6.6349-10.14419 6.51129-1.52768-.0636-2.60632-.67105-3.26745-1.83508-.21941-.38632-.29623-.91278-.17208-1.17.26652-.55215 3.4759-2.56187 4.02869-2.53104.21972.0123.86337.56711 1.43285 1.23129.78794.91896 1.26443 1.21866 1.9775 1.25299.86853.0418 1.01696-.091 1.9745-1.85496 1.34638-2.48025 1.72363-5.59214.97114-7.57695-1.18324-3.12096-3.55131-4.88417-6.46569-4.81336-2.64694.0644-4.05973.88628-6.46298 3.69415-.31038.36264-.62165.72492-.93383 1.08684-.10842 1.45706-.21653 2.91413-.32432 4.37122-.28278 3.82404-.39201 4.43629-.88486 4.8873-.3124.2859-1.97501 1.00456-3.72284 1.591-4.44271 1.49062-5.60502 1.22384-3.02619-.24543 2.02749-1.15517 2.13963-1.47236 2.75683-7.26456.58754-5.51489.51909-6.87103-.38195-8.19291-.54998-.80687-.7077-.84518-3.56914-1.23901-.99865-.13745-1.99609-.27892-2.99227-.42452-.56607 4.75649-1.12911 9.51329-1.68912 14.2704-.924 7.84922-1.64911 14.7443-1.6217 15.32127.0463.97591-.0352 1.08875-1.22662 1.59734-.68052.29048-2.37571 1.17705-3.68031 1.91571-3.08779 1.74829-6.65906 2.85231-6.53145 2.07458.00003-.00001.00007-.00002.0001-.00003zm4.62087-23.15385c.84349-.364 2.2561-1.38474 3.19031-2.30834.55902-.55268 1.11521-1.10663 1.66859-1.66181.13805-1.24589.27667-2.49173.41584-3.73751.22944-2.05356.35261-3.99261.27296-4.30031-.13736-.53066-.4378-.55542-5.13298-1.03538-1.65915-.1696-2.82929-.29448-3.74588-.32983-2.25944-.0954-2.78895.37636-4.19994 1.92349-1.72315 1.88941-2.37725 3.62026-2.12462 5.6978.24476 2.01296 1.4853 4.17004 3.04656 5.29471.25298.18223.53702.34077.84415.475 1.66879.72309 3.99835.74459 5.76501-.0178zm127.4768 22.66104c-.015-.0842.30577-.552.76687-1.14019.13322-.18292.27965-.3776.43381-.57581.83798-1.07745 1.19593-1.8729 1.26621-2.81438.12842-1.72024-3.66669-23.79316-4.60915-26.9045-1.0442-3.44717-2.03497-4.7814-3.42342-4.54392-.0894.0151-.18045.037-.27334.0655-1.13073.34631-1.11615-.19482-.0283-1.61162-.00001.00001.0167-.0216.0166-.0216 1.24658-1.58146 2.2278-2.26621 3.54979-2.46941 1.4163-.2177 2.23913.54532 3.43796 3.17086.46924 1.0277.88681 1.90674.92612 1.95368.0393.0469.8284-.81953 1.74398-1.92797.90674-1.09776 2.54029-2.67043 3.58235-3.45064 1.67788-1.2563 2.20277-1.49925 4.24734-1.96387 1.97135-.448 2.51561-.47593 3.57252-.15271 1.48574.45436 3.14691 1.53208 4.03917 2.62654.35913.4405.69922.83446.75562.87747.056.0428.6627-.64251 1.33642-1.52496 1.57508-2.06306 3.99654-4.11902 5.80781-4.92298 3.12605-1.38754 6.11176-.52428 8.85333 2.535 1.02884 1.14809 1.24031 1.55576 1.78798 3.57018.99578 3.66248.29859 7.14231-2.27244 10.31676-2.32974 2.87654-4.50685 4.23347-6.49551 4.15926-1.22984-.0459-2.63397-.92621-2.84836-1.76948-.16521-.64984 1.01315-2.37378 2.21835-3.27499.31338-.23433.62594-.46915.93766-.70446.47644.30145.9546.60164 1.43454.90054 2.45677 1.53 3.681.75137 3.96596-2.53132.17934-2.06613-.28242-4.04459-1.24749-5.56386-1.76124-2.77274-4.64011-4.39585-7.25319-4.10985-2.03797.22307-3.19724.96842-4.43271 2.84344-.81397 1.2353-.97286 1.70818-.78884 2.46256.36008 1.47612.36152 3.89073-.0152 5.65509-.98086 4.59363-6.10566 9.70847-9.40885 9.4057-1.25684-.11522-3.01986-1.34194-3.02278-2.09109-.002-.54887 2.19475-2.98997 3.02641-3.36575.4553-.20572.91632-.039 1.95945.69897 1.04486.73919 1.5888.92681 2.29513.80113.85579-.15229.96434-.31375 1.40316-2.21591.3635-1.57556.38219-2.56617.0951-4.27942-.33327-1.98894-.49601-2.37916-1.47603-3.63783-1.96662-2.5257-4.774-3.60943-7.50083-2.8877-2.13926.56621-3.53412 1.81801-4.73059 4.24048-.32171.65136-.64499 1.30246-.96966 1.95328.80871 4.07928 1.61798 8.15852 2.4278 12.23772 1.33623 6.73067 2.58681 12.44213 2.77731 12.69215.38766.50886.27238.68726-2.73796 3.72831-1.05258 1.06331-2.54799 2.32718-3.33031 2.81882-.3585.2253-.64115.40134-.86357.53467-.80391.45894-.89553.43672-.93633.20812h.00004zm-48.16622 2.8986c-2.17561-.56231-3.69721-2.20901-3.75672-4.01933-.0714-2.17353 2.00673-6.52426 4.8756-10.46017.40307-.55298.80455-1.10644 1.2044-1.66037-.38675-.93686-.77108-1.87418-1.15304-2.81195-2.57123-6.313-5.67205-12.12583-7.67261-14.2112-.9881-1.02998-1.32669-1.21096-2.25977-1.19306-.60412.0116-1.10087-.0914-1.10373-.22741-.009-.43935 2.25012-2.98003 3.04136-3.42385 1.12356-.6302 2.56728-.59116 3.47758.0953.42446.32008 1.38482 1.56954 2.13037 2.76363.4529.72539.90806 1.45016 1.36553 2.17427.63217-.67256 1.26094-1.3463 1.8862-2.02123 2.87319-3.10148 6.53415-5.0014 8.96796-4.60437 3.21691.52478 5.2169 5.11921 3.85483 9.11741-.71012 2.08455-2.82096 5.40358-5.98969 9.18256-4.84812 5.78178-7.71455 10.51793-7.84748 13.622-.0588 1.37305.0401 1.70096.78978 2.55409 1.02577 1.1674 2.32375 1.78425 3.62887 1.72596 1.20945-.054 1.92324-.45415 3.65888-2.09596 1.42891-1.35171 1.92331-1.62094 1.96417-1.02731.0755 1.09617-3.71252 4.57722-6.30519 5.76231-1.56644.71604-3.64851 1.04523-4.7573.75865zm9.82281-25.89191c1.1909-2.33704 1.487-4.50778.90587-6.28773-.89016-2.72651-2.32786-3.94333-4.52102-3.83504-1.57263.0776-2.46107.67021-4.05995 2.6664-.45138.56354-.90487 1.12646-1.36042 1.68877-.00032-.00067.49784 1.02048.49751 1.01982 1.53592 3.14036 3.03008 6.39158 3.73213 8.19915.27076.69716.54278 1.39407.81608 2.09075.51557-.6207 1.02864-1.2422 1.53916-1.86453.85117-1.03759 1.93781-2.67115 2.45064-3.67759zm-216.132374-41.79786c.101258-.0999 1.028765.009 2.006926.18424 1.666288.29806 2.379102.48437 4.024098-1.06926 1.608731-1.51937 4.346038-4.97648 9.858666-11.87646 9.571837-11.98077 9.894361-12.47227 10.588806-13.39435.596065-.79145.787078-.98928.893809-1.03326.101533-.0418.342976-.15594.440893-.25255.346403-.34178 1.35609-2.04602 1.68911-2.39847.699273-.74009.482012.4259-1.101736 3.46024-.399153.76476-3.294213 5.60572-6.093994 10.12846-2.88431 4.65925-5.188647 8.4987-5.120841 8.53178.06781.0331 1.139496-.22066 2.389706-.58538 4.740844-1.38305 9.124532-1.10221 12.280408 1.08686 1.657107 1.16781 2.656574 2.78236 2.87117 4.74286.21903 2.00108-.226259 3.18971-1.783573 5.05891-1.771709 2.12654-3.50851 2.99187-7.353109 4.05366-1.036543.28626-2.063467.58419-3.078401.89626.806361.44532 1.611409.90358 2.41662 1.37271 2.299043 1.33947 2.489599 1.43087 4.181512 1.47164 6.160423.14853.06056 1.16438-2.786436 1.21881-2.979011.057-3.540957.19784-6.343903-1.21654-1.131529-.54601-2.790984-1.33937-6.152142-2.95391-4.251305-2.04212-6.468166-3.32451-8.43698-4.46491-1.810486-1.0487-2.421796-1.38434-3.253079-1.6819-2.007509-.71858-2.379336-1.04086-2.13753-1.27944zm22.013196 6.3069c.24544-.0599.576147-.18019.939451-.33207.611698-.22838 1.326778-.54989 1.879834-.86039 3.001976-1.68535 4.591277-4.71152 3.900683-7.70532h-.000001c-.246107-.91894-.715734-1.82508-1.400074-2.65922-2.380616-2.9017-5.91902-2.92145-9.878488-.93354-.667995.33538-1.339767.66421-2.018717.98314-.65359 1.16201-1.303624 2.32626-1.950281 3.49261-1.066982 1.92449-1.963161 3.63934-2.003308 3.80335-.05023.20518 1.794053 1.21071 4.908497 2.55158 2.264918.97512 3.461208 1.48701 4.06868 1.66953.678225.20379.973278.13217 1.553724-.01zm210.329438 41.97312c-2.80603-.67544-5.27162-3.25436-5.95273-6.15196-.38816-1.65131-.0186-4.57068.76092-6.19953 1.43517-2.9989 5.57308-7.19536 8.34431-8.50835 1.60229-.75917 3.87922-1.08764 4.89963-.69748 1.12337.42953 2.14399 1.23799 2.22962 1.77897.0932.58892-1.29648 2.32197-2.51946 3.12012-.85897.56059-.87987.56059-2.13179-.33559-1.3638-.97624-2.73781-1.23369-4.30374-.80454-1.22071.33454-2.02738 1.2744-2.77555 3.2127-.49409 1.28008-.54288 1.85951-.31219 3.9343.23782 2.13964.38235 2.58813 1.21475 3.69615 3.48113 4.63374 9.71397 4.61864 14.03141-.16516 1.49726-1.65897 2.77902-2.71615 3.4679-2.81632.4859-.0706.47564.0409-.13033.93173-1.16715 1.7158-4.55417 4.89415-6.83901 6.3917-3.62927 2.37873-7.19494 3.28456-9.98374 2.61326zm75.55512-14.11057c-.0501-.12318.28066-.80089.72491-1.50634.44692-.70972.8073-1.72538.81321-2.27148.008-.77148-1.29136-4.04803-5.98693-15.04865-5.44173-12.74877-6.08941-14.14364-6.84425-14.98608-.96684-1.07888-1.30561-1.23359-2.14308-.95563-.33456.11168-.6537.0935-.70696-.0376-.17084-.42044.88878-2.8787 1.58148-3.72688 1.30936-1.60325 2.65393-.8039 4.834 2.8804.52301.88387 2.83239 5.51654 5.04132 10.1235 2.22769 4.6461 4.10015 8.4663 4.15641 8.49085.0326.0142.16083-.21405.32966-.57965.116-.26169.24871-.59021.38104-.95428.68764-1.8919 1.86179-3.98388 3.17611-5.67405.87423-1.12424 1.26149-1.40853 2.88788-2.17947 1.70871-.81 2.03329-.8943 3.38984-.7198.80854.104 2.26114.54207 3.16097.95736.55341.2554 1.10964.50841 1.66843.75925.21388-.71056.42239-1.42195.62688-2.13432 1.91324-6.66518 6.18084-9.67226 11.67963-7.38668 3.09551 1.28665 5.26977 4.02175 6.20935 7.70142.58501 2.29101-.006 6.62417-1.30119 9.01992-1.62579 3.00809-4.24975 4.1582-6.2541 2.77475-.8505-.58704-.8133-1.41285.0363-3.44853.65765-1.57571 1.1895-2.0099 1.90058-1.49402.79686.57811 2.41258.60087 3.28102.0478.72643-.46263.75415-.6456.34896-2.45469-.30873-1.37852-.78201-2.46574-1.60458-3.69538-1.03747-1.55088-1.36377-1.85608-2.96426-2.77917-5.02835-2.90021-9.73676-1.26524-10.44704 3.28244-.27533 1.7629-.26713 1.82805.86708 3.65337 2.22402 3.57926 2.44494 8.16882.0265 12.30623-1.85087 3.16645-4.41435 4.42496-6.77529 3.50481-.64151-.24999-1.22391-.57954-1.30345-.7279-.2178-.40626.87421-2.78034 1.69952-3.77259.26005-.31264.51669-.62588.77008-.93968.5546.1766 1.11218.34955 1.67248.51907 1.26877.38387 1.89757.39317 2.52155.067.9683-.50625 1.07581-1.22814.43281-3.77708-.94088-3.72983-3.54995-6.1815-6.83919-7.03313-2.57866-.66763-4.43895-.25037-6.19602 1.34431-.82645.75006-1.70413 3.09474-2.00296 5.1958-.008.058-.0165.11585-.0249.1738-.066.43034-.13426.8608-.20481 1.29134.68607 1.3498 1.37355 2.69912 2.06247 4.04796.68891 1.34885 1.37925 2.69721 2.07102 4.04509-.23674.33363-.47541.66671-.71598.99926-.83486 1.15398-4.94679 4.99195-5.61847 5.21417-.17971.0595-.36784.006-.41803-.11676zm48.74012-26.21601c-1.97419.3213-3.80144.10433-5.51568-.64537-.95622-.43214-1.88715-1.02895-2.79492-1.79659-1.94092-1.64129-2.85829-3.3316-3.14492-6.01657-.002-.0217-.005-.0435-.007-.0651-.31799-2.90489-.0757-4.67566 1.05843-10.46943.94176-4.81092 1.22855-7.92469.98238-10.31294-.15248-1.94433-.68739-3.44068-1.55782-4.97704-1.0015-1.76775-1.97819-2.47331-3.01788-2.13627-.93551.30331-.9202-.18971-.39554-2.16625.53359-2.01029 1.2207-2.66617 2.4836-2.252.6583.2159 1.00069.50695 1.95246 1.65067.90946 1.09285 1.3622 1.85249 2.01664 3.75414.73744 2.14284 1.00367 4.58581.44501 8.55552-.16654 1.4028-.42132 2.99446-.7805 4.83426-1.78014 9.11831-1.60955 12.14877 2.07406 15.03895 2.68341 2.10542 6.10096 2.75195 9.08696 1.66491 2.16557-.78835 3.45391-1.99933 3.84147-3.60802.16321-.70364.15733-1.48814-.0222-2.35243-.30382-1.46303-.54639-1.92618-1.61366-3.11979-1.10494-1.23568-1.4253-1.43739-2.69623-1.70865-.53499-.11417-1.11181-.18641-1.52064-.19779-.19649-.006-.35368.002-.44797.0259-.57643.14812-.77375-.34555-.59238-1.33745.061-.32334.16202-.6983.30258-1.12175.66845-2.01386 1.42972-2.65217 2.97066-2.46669 2.68907.32366 4.7742 2.17608 5.54989 5.34359.54796 2.23761.13052 5.37825-.90958 8.22171-.29048.7718-.63102 1.51623-1.01502 2.20665-1.24714 2.24226-1.61232 2.65557-3.35568 3.86885-1.52478 1.06115-2.26084 1.40295-3.37671 1.58499zm-289.94761 26.61489c.0607-.12778.79887-.43066 1.63144-.67875 2.30962-.68826 2.49935-.98737 4.52999-6.49206 1.93457-5.24451 2.20249-6.57835 1.67941-8.03754-.31848-.88844-.47345-.95427-2.91615-1.87495-.85846-.32357-1.71242-.6538-2.56169-.991-.78819 1.92467-1.57514 3.84973-2.36084 5.77517-2.03165 4.97871-2.32944 5.90281-2.1658 6.67224.122.57365.44265.97952.88977 1.12835 1.08166.36006.58263.9742-1.47789 1.61802-4.70886 1.47131-6.02646-.0817-4.3656-4.64759.37663-1.03538.63212-1.90252.56496-1.92782-.0525-.0197-.71021.18228-1.59005.47195-.0347.0106-.77427.23593-.80895.24646-4.35412 1.33002-8.62041 1.13737-11.77099-.0658-3.17318-1.21184-5.18649-3.40889-5.59309-6.22884-.32933-2.28405.13529-3.53044 1.99662-5.73387 1.25209-1.48219 1.82447-1.92645 3.68815-2.93471 3.63418-1.96614 9.38925-2.88472 12.3407-2.20534 1.47945.34055 2.36323 1.20889 2.74263 2.65753.0946.36121.19259.72219.29418 1.08296-.48732.18526-.98018.36497-1.47818.53943-.84144.29477-1.99173.54738-2.64239.58829-.37971.0239-.76127.0449-1.14452.0632-.0827-.32742-.16309-.65488-.24132-.98237-.30828-1.2904-.72587-1.99738-1.46686-2.40671-1.01206-.55907-1.61945-.3797-3.76238.99897-3.66222 2.35613-5.21486 5.07698-4.25974 8.63309.61006 2.27136 1.86405 3.64901 4.29504 4.64244 2.54095 1.03836 5.02308.97298 8.27127-.4153.11104-.0474.22186-.0951.33246-.14308.70603-.31834 1.40704-.64074 2.10317-.96709.47492-1.17226.95149-2.34403 1.4297-3.51531.78543-1.92376 1.53205-3.86568 1.64075-4.27681.17205-.65078.40237-.80746 1.50414-1.08212 2.97108-.74063 3.97651-.5654 8.85466.873 1.47723.43559 2.96561.85208 4.46444 1.25117 1.10277-.8727 2.19286-1.75403 3.27115-2.64345 1.58821-1.31001 4.27675-3.49001 5.13548-4.13985 2.432-1.84038 6.55234-4.25923 8.07868-4.69736 3.30404-.9484 5.76769.71645 5.64598 3.97449-.12034 3.22059-3.02929 5.25754-7.48853 5.03497-1.57177-.0784-1.34647-.62431.30166-.98386.93279-.20349 1.40975-.49807 1.78655-1.09633.90533-1.43736.44216-3.31795-.92994-3.93973-1.828-.82839-5.3272 1.34239-11.50964 6.42531-1.27006 1.04419-2.5561 2.07739-3.85957 3.09864.0503.39616.10193.79244.1548 1.18883.0868.65075.0634 1.6868-.055 2.28799-.3741 1.89911-.3609 1.9375 2.07617.80701 1.23577-.57324 3.48172-1.35073 4.84245-1.67716 2.24829-.53933 2.78828-.57078 4.80152-.23798 2.798.46252 3.95197 1.27634 5.24825 3.72303 2.10042 3.96452.46542 8.15541-5.20321 11.60665-.8505.51781-1.70601 1.03191-2.56688 1.54201.99778.21815 1.99618.431 2.99505.63886 2.77715.57795 3.13606.57092 4.72975.0635.94928-.30227 1.94271-.51307 2.2078-.46333 1.12576.21125-2.92822 2.26544-6.73112 3.28371-.60111.16094-1.20383.32009-1.80823.47734-3.59781-.75954-7.1958-1.58542-10.78624-2.49336-5.92422-1.4981-11.2694-3.02631-11.91672-3.0803-.679-.0566-1.13105-.20066-1.06726-.33481 0 .00001.00001.00001.00002.00002zm16.11893.46812c1.35786.32944 2.71756.64762 4.07866.9554.4231-.21439.84498-.4298 1.26566-.64618 2.72522-1.40175 4.60405-4.49082 4.44654-7.07254-.10754-1.76218-1.1718-3.8857-2.48942-5.02175-2.74371-2.36556-6.48623-1.94556-10.17615 1.04951-1.18525.96204-1.22104 1.02027-2.4201 4.58151-1.45058 4.30824-1.44214 4.86377.12947 5.02316.56827.0577 2.96009.59653 5.16521 1.13131zm77.66226-11.54603c-.45809-.54273-.91383-1.08612-1.36718-1.63018.46697-.46466.93234-.93006 1.39613-1.3962.76496-.76884 1.58942-1.39103 1.83596-1.37965.40919.0189 2.8934 2.66574 2.87326 3.07424-.0132.26834-2.88551 2.97979-3.15309 2.96743-.11212-.005-.82925-.74013-1.58508-1.63564zm7.61491.4967c-.68588-.78165-1.23444-1.57883-1.2258-1.77107.019-.42209 1.94021-2.51767 2.63945-2.8817.41871-.21797.75532-.009 1.83577 1.11663.72949.76024 1.32559 1.59544 1.31764 1.85644-.0156.51146-2.55849 3.12189-3.03676 3.10733-.15332-.005-.84471-.64629-1.5303-1.42763zm64.84486-2.28864c.0873-.20813 1.26084-2.74 2.53657-5.63564 2.26979-5.15211 2.24501-5.25316 3.66292-6.31889 1.50984-1.13484 2.27139-1.41961 2.157-.75527-.0653.37904-1.17614 2.83071-2.43157 5.33806-1.25911 2.51471-2.60679 4.97246-2.96978 5.42982-1.26312 1.59152-3.3897 2.9774-2.95514 1.94192zm-202.755497-37.6776c-.365537-1.03356-.534296-2.02337-.414129-2.23847.140923-.25225 1.151061-.67768 2.264861-.9649 1.111657-.28667 2.337454-.41889 2.660124-.2559.582592.29427 2.362842 4.25954 2.011238 4.78324-.156262.23275-1.429526.45892-2.647913.63589-1.228748.17847-2.428026.31708-2.729594.16667-.254586-.12697-.780692-1.09761-1.144587-2.12653zm310.170407-1.76221c-1.18568-.28075-2.23992-.61766-2.33929-.74864-.23951-.31569.30778-4.18247.59374-4.36041.27928-.17378 4.44962.88262 4.67935 1.17794.22143.28464-.24814 4.11028-.55053 4.29843-.12615.0785-1.19721-.0865-2.38327-.36732zm-175.74281 34.83492c-.67856-.86044-1.22461-1.63514-1.22084-1.71968.005-.0845.71908-.83103 1.58301-1.66223.52358-.50375 1.04538-1.0084 1.56543-1.51392.47407.57675.95075 1.15282 1.42998 1.72821.47924.57539.96103 1.1501 1.4453 1.72411-.50506.5059-1.01179 1.01103-1.52021 1.51536-.83889.83212-1.64572 1.50621-1.78667 1.50084-.14091-.005-.8174-.71225-1.496-1.57269z" fill="#8aa8a8" stroke-width="2.92391"/></g></g><path d="m281.45023 126.03947c-28.18431-7.10794-57.62579-11.01777-86.71298-10.0205-27.37445.93855-55.44538 4.69323-80.73265 14.99644-12.04202 4.90649-23.735492 12.01164-32.264982 21.66991-10.411443 11.7893-16.963728 26.90526-21.038884 41.96863-4.379439 16.18812-6.881885 33.79804-3.157106 50.14237 6.087134 26.7103 20.007555 53.15087 40.249287 72.03188 32.035785 29.88219 76.517445 46.13697 119.411095 56.80012 42.87632 10.659 89.86938 17.13759 132.57862 5.85434 26.99075-7.1306 51.90595-24.02992 70.50187-44.46003 11.74149-12.89959 19.33757-29.68912 23.36974-46.50793 3.71354-15.48977 3.70439-32.19629.18868-47.73021-2.1022-9.28837-6.54461-18.24275-12.41698-25.82411-17.30298-22.33851-40.55934-40.37405-64.97595-55.02858-26.08064-15.65326-55.37319-26.42066-84.99976-33.89233zm-3.82925 14.75694c57.51614 14.29493 110.82324 44.05571 141.42844 83.38761-3.24877 11.71584-9.1024 28.82732-18.07775 37.5979-79.84194-72.49911-185.22456-98.69065-290.73774-72.25925-3.61269-11.89918-.41379-29.67045 2.44295-41.48373 46.07236-20.27465 107.42795-21.53745 164.9441-7.24253zm151.2005 103.9539c7.11133 25.79294-4.51524 59.01849-21.43164 81.77334-14.30797 19.24615-38.22489 32.12612-61.66321 38.16497-40.24054 10.3679-84.36194 4.20665-124.69338-5.81726-40.33118-10.02383-82.11082-25.21212-112.42037-53.11442-17.653929-16.25182-32.303514-38.5658-35.553846-62.07138-3.811429-27.5633 3.123355-61.52818 20.423231-81.0149-1.919439 12.67546-.814033 27.86028 5.557055 39.65566 11.06096 20.47821 32.48458 34.51888 52.69524 46.57312 27.15952 16.19873 58.46871 25.24627 89.29586 32.90785 30.82745 7.66164 62.75637 14.35167 94.52155 12.77597 23.72383-1.1768 49.60759-3.3964 69.2443-16.47791 11.49011-7.65445 19.19824-20.91561 24.02521-33.35504zm-167.39336-41.55069c46.44263 11.54294 88.75422 34.06783 126.21983 67.32848-12.12893 5.76455-34.49329 8.00103-52.0971 8.83029-14.62928.68916-29.30221-1.30157-43.81461-3.23467-15.7828-2.10231-31.4383-5.23643-46.87658-9.07339-15.43788-3.83684-30.72506-8.39354-45.6201-13.91551-13.69626-5.07753-27.56134-10.17744-40.08138-17.61492-15.06479-8.94919-33.62813-21.35911-41.47163-32.09076 49.13907-11.73375 97.30186-11.77173 143.74157-.22952z" fill="#8aa8a8" stroke-width=".999998"/></svg>