<svg height="500" viewBox="0 0 132.29167 132.29167" width="500" xmlns="http://www.w3.org/2000/svg" xmlns:xlink="http://www.w3.org/1999/xlink"><pattern id="a" patternTransform="matrix(.92476408 -.38054093 .38054093 .92476408 0 0)" xlink:href="#b"/><pattern id="b" height="5.180578" patternUnits="userSpaceOnUse" width="30.06602"><path d="m7.597.061c-2.518-.248-4.941.241-7.607 1.727v1.273c2.783-1.63 5.183-2.009 7.482-1.781 2.298.228 4.497 1.081 6.781 1.938 4.567 1.713 9.551 3.458 15.813-.157l-.004-1.273c-6.44 3.709-10.816 1.982-15.371.273-2.278-.854-4.576-1.75-7.094-2z" fill="#fff"/></pattern><mask id="c" maskUnits="userSpaceOnUse"><path d="m-13.22915-13.229166h158.75v158.750016h-158.75z" fill="url(#d)" filter="url(#e)" stroke-width="11.83"/></mask><radialGradient id="d" cx="66.145844" cy="66.145836" gradientTransform="matrix(-1.0000001 .00000145 0 -.99999999 132.2917 132.29157)" gradientUnits="userSpaceOnUse" r="66.145836"><stop offset="0" stop-color="#fff"/><stop offset=".25342461" stop-color="#fff"/><stop offset=".75273961" stop-color="#808080"/><stop offset=".87499994" stop-color="#404040"/><stop offset="1"/></radialGradient><filter id="e" color-interpolation-filters="sRGB" height="1.0135" width="1.0135" x="-.00675" y="-.00675"><feGaussianBlur stdDeviation=".44648439"/></filter><radialGradient id="f" cx="42.347507" cy="42.347507" gradientTransform="matrix(.81639965 -.81639845 .39392066 .39392063 -8.906541 60.23839)" gradientUnits="userSpaceOnUse" r="150.05751"><stop offset="0" stop-color="#f00"/><stop offset=".14285706" stop-color="#f00"/><stop offset=".28571412" stop-color="#ff7800"/><stop offset=".42857116" stop-color="#ffef00"/><stop offset=".57142824" stop-color="#0c0"/><stop offset=".71428525" stop-color="#0073ff"/><stop offset=".85714233" stop-color="#b600ff"/><stop offset="1" stop-color="#b600ff" stop-opacity="0"/></radialGradient><filter id="g" color-interpolation-filters="sRGB" height="1.007171" width="1.007171" x="-.003585" y="-.003585"><feGaussianBlur stdDeviation=".4064951"/></filter><linearGradient id="h"><stop offset="0" stop-color="#f00"/><stop offset=".14285706" stop-color="#f00"/><stop offset=".28571412" stop-color="#ff7800"/><stop offset=".42857116" stop-color="#ffef00"/><stop offset=".57142824" stop-color="#0c0"/><stop offset=".71428525" stop-color="#0073ff"/><stop offset=".85714233" stop-color="#b600ff"/><stop offset="1" stop-color="#b600ff"/></linearGradient><linearGradient id="i" gradientUnits="userSpaceOnUse" x1="32.18135204027" x2="116.48692039305" y1="52.33630200701" y2="71.19615238421"><stop offset="0" stop-color="#f99"/><stop offset=".14285706" stop-color="#f99"/><stop offset=".28571412" stop-color="#ffc999"/><stop offset=".42857116" stop-color="#fff999"/><stop offset=".57142824" stop-color="#7fff7f"/><stop offset=".71428525" stop-color="#99c7ff"/><stop offset=".85714233" stop-color="#e299ff"/><stop offset="1" stop-color="#e299ff"/></linearGradient><linearGradient id="j" gradientUnits="userSpaceOnUse" x1="32.18134704027" x2="116.48691539305" y1="53.43477200701" y2="72.2946223842"><stop offset="0" stop-color="#600"/><stop offset=".14285706" stop-color="#600"/><stop offset=".28571412" stop-color="#663000"/><stop offset=".42857116" stop-color="#666000"/><stop offset=".57142824" stop-color="#004d00"/><stop offset=".71428525" stop-color="#002e66"/><stop offset=".85714233" stop-color="#490066"/><stop offset="1" stop-color="#490066"/></linearGradient><linearGradient id="k" gradientUnits="userSpaceOnUse" x1="34.19944708064" x2="116.48698205972" xlink:href="#h" y1="57.66505709162" y2="72.29467405088"/><filter id="l" color-interpolation-filters="sRGB" height="1.033146" width="1.027854" x="-.013927" y="-.016573"><feGaussianBlur stdDeviation=".30688746"/></filter><filter id="m" color-interpolation-filters="sRGB" height="1.016653" width="1.015436" x="-.007718" y="-.008326"><feGaussianBlur stdDeviation=".30688746"/></filter><mask id="n" maskUnits="userSpaceOnUse"><path d="m66.041016 4.1894531c-3.131414-.0147897-5.676816 1.4630823-8.240235 3.6230469a2.3407125 2.3407125 0 0 0 -.412109.4511719l-17.50586 25.1308591a2.3407125 2.3407125 0 0 0 .917969 3.453125l18.4375 8.726563 5.53711 2.804687a2.3407125 2.3407125 0 0 0 2.107421.0039l5.75-2.886718 18.371094-8.648438a2.3407125 2.3407125 0 0 0 .923828-3.455078l-17.550781-25.189447a2.3407125 2.3407125 0 0 0 -.287109-.3398438c-2.542808-2.4740837-5.188931-3.660321-8.048828-3.6738281z" fill="url(#a)" filter="url(#l)" stroke-width="1.00013"/></mask><mask id="o" maskUnits="userSpaceOnUse"><path d="m84.324219 38.830078c-3.857024 1.811143-8.221579 3.589155-12.291016 5.601563l-6.199219 3.066406-5.990234-2.984375c-3.996801-1.991018-8.047065-3.625535-11.820312-5.41211a3.1594451 3.1594451 0 0 0 -3.753907.804688l-24.945312 29.21875a3.1594451 3.1594451 0 0 0 .25 4.363281s.759446.70684 1.74414 1.515625c.984695.808785 2.091073 1.727502 3.535157 2.398438 3.034186 1.409713 7.016601 2.249176 10.4375 2.880859 3.420898.631683 6.220703.972656 6.220703.972656a3.1594451 3.1594451 0 0 0 1.115234-.771484c-3.121094 12.744141-7.893229 40.759765-7.158203 42.023435 0 0 7.208987 2.07327 11.359375 2.81446 3.863652.68998 7.671255.96205 11.347656 1.25976 2.570466.20816 5.217835.40617 7.9375.40625 2.719987.00009 5.367297-.19819 7.9375-.40625 3.675357-.29751 7.484759-.56761 11.34961-1.25781 4.151624-.74141 11.357421-2.81641 11.357421-2.81641a3.1594451 3.1594451 0 0 0 2.205079-3.79101l-9.345703-38.144534a3.1594451 3.1594451 0 0 0 1.060546.748046s3.074919-.313498 6.814454-.974609c3.739532-.661111 8.080712-1.555257 11.373042-3.267578 1.39021-.72304 2.22772-1.608247 3.00391-2.382813.77619-.774565 1.36133-1.453124 1.36133-1.453124a3.1594451 3.1594451 0 0 0 .01367-4.117188l-25.175781-29.486328a3.1594451 3.1594451 0 0 0 -3.74414-.808594z" fill="url(#a)" filter="url(#m)" stroke-width="3.78002"/></mask><filter id="p" color-interpolation-filters="sRGB" height="1.048644" width="1.060681" x="-.030341" y="-.024322"><feGaussianBlur stdDeviation="1.2728198"/></filter><linearGradient id="q" gradientUnits="userSpaceOnUse" x1="34.19944708064" x2="116.48698205972" xlink:href="#h" y1="56.56655709162" y2="71.19617405088"/><g mask="url(#c)" stroke-width=".094494" transform="matrix(0 1 -1 0 132.291675 -.000013)"><path d="m-16.763244-16.763244c-67.65774 67.657739-96.043756 148.969874-63.396059 181.617564 32.647695 32.64769 113.959825 4.26168 181.617563-63.39606 67.65774-67.657738 96.04375-148.969868 63.39606-181.617563-32.64769-32.647697-113.959825-4.261681-181.617564 63.396059z" fill="url(#f)" filter="url(#g)" opacity=".3"/></g><g stroke-width=".264583"><path d="m65.925694 3.3474711c-3.579242.012856-7.006971 2.1960369-9.753926 4.4906821-4.635544 3.8722548-6.924744 9.8983848-10.386964 14.8476728-3.462243 4.949323-10.386446 14.84819-10.386446 14.84819l7.376294 3.492293-26.969931 31.591355c4.301696 3.973368 8.814549 6.842508 13.949537 8.390702 3.626268 1.090447 7.091467 1.98311 11.075293 2.527494l-9.952364 41.31324s4.099699 1.12557 6.180501 1.55339c3.414116.70195 6.861388 1.26357 10.324435 1.65882 3.667692.41862 7.359567.62694 11.048938.75241 5.118515.17406 10.245923.17405 15.364437 0 3.689544-.12547 7.381589-.33381 11.049455-.75241 3.463368-.39526 6.91051-.95687 10.324952-1.65882 2.080994-.42782 6.181535-1.55339 6.181535-1.55339l-10.136333-41.373184c.349934-.03659 7.69941-1.550793 11.517123-2.467033 5.51549-.950597 10.81487-5.024193 13.75472-8.714197l-26.915153-31.527792 6.847644-3.222543-10.414352-14.915369c-3.471446-4.971785-5.748369-11.042559-10.414351-14.915369-2.720212-2.2577974-6.12993-4.3788348-9.665044-4.3661419z" fill="url(#k)" filter="url(#p)"/><path d="m65.925694 3.3474711c-3.579242.012856-7.006971 2.1960369-9.753926 4.4906821-4.635544 3.8722548-6.924744 9.8983848-10.386964 14.8476728-3.462243 4.949323-10.386446 14.84819-10.386446 14.84819l7.376294 3.492293-26.969931 31.591355c4.301696 3.973368 8.814549 6.842508 13.949537 8.390702 3.626268 1.090447 7.091467 1.98311 11.075293 2.527494l-9.952364 41.31324s4.099699 1.12557 6.180501 1.55339c3.414116.70195 6.861388 1.26357 10.324435 1.65882 3.667692.41862 7.359567.62694 11.048938.75241 5.118515.17406 10.245923.17405 15.364437 0 3.689544-.12547 7.381589-.33381 11.049455-.75241 3.463368-.39526 6.91051-.95687 10.324952-1.65882 2.080994-.42782 6.181535-1.55339 6.181535-1.55339l-10.136333-41.373184c.349934-.03659 7.69941-1.550793 11.517123-2.467033 5.51549-.950597 10.81487-5.024193 13.75472-8.714197l-26.915153-31.527792 6.847644-3.222543-10.414352-14.915369c-3.471446-4.971785-5.748369-11.042559-10.414351-14.915369-2.720212-2.2577974-6.12993-4.3788348-9.665044-4.3661419z" fill="url(#j)"/><path d="m84.345703 38.878906c-3.858828 1.811991-8.222113 3.590385-12.289062 5.601563l-6.222657 3.078125-6.013672-2.996094c-3.994253-1.989748-8.045147-3.624627-11.820312-5.412109a3.1054002 3.1054002 0 0 0 -3.689453.791015l-24.945313 29.21875a3.1054002 3.1054002 0 0 0 .246094 4.289063s.756924.704071 1.740234 1.511719c.983311.807647 2.091573 1.726412 3.525391 2.392578 3.023935 1.40495 7.004689 2.245594 10.423828 2.876953 3.419139.631358 6.216797.970703 6.216797.970703a3.1054002 3.1054002 0 0 0 1.191406-.824219l-9.392578 38.353517a3.1054002 3.1054002 0 0 0 2.167969 3.72461s7.210217 2.07453 11.353516 2.81445c3.859959.68933 7.667058.96203 11.34375 1.25977 2.570214.20814 5.214635.40616 7.93164.40625 2.717321.00008 5.361685-.19821 7.931641-.40625 3.675665-.29754 7.484566-.56828 11.345703-1.25782 4.144513-.74013 11.353516-2.8164 11.353516-2.8164a3.1054002 3.1054002 0 0 0 2.166015-3.72461l-9.375-38.265626a3.1054002 3.1054002 0 0 0 1.136719.802734s3.075077-.313872 6.8125-.974609c3.737425-.660738 8.077165-1.557631 11.357425-3.263672 1.37813-.716757 2.21556-1.599997 2.99023-2.373047s1.35742-1.449219 1.35742-1.449219a3.1054002 3.1054002 0 0 0 .0137-4.046875l-25.175806-29.486328a3.1054002 3.1054002 0 0 0 -3.681641-.794922z" fill="url(#i)" transform="translate(0 1.098513)"/><path d="m66.041016 4.1894531c-3.131414-.0147897-5.676816 1.4630823-8.240235 3.6230469a2.3407125 2.3407125 0 0 0 -.412109.4511719l-17.50586 25.1308591a2.3407125 2.3407125 0 0 0 .917969 3.453125l18.4375 8.726563 5.53711 2.804687a2.3407125 2.3407125 0 0 0 2.107421.0039l5.75-2.886718 18.371094-8.648438a2.3407125 2.3407125 0 0 0 .923828-3.455078l-17.550781-25.189447a2.3407125 2.3407125 0 0 0 -.287109-.3398438c-2.542808-2.4740837-5.188931-3.660321-8.048828-3.6738281z" fill="url(#i)" transform="translate(0 1.098513)"/><path d="m84.345703 38.878906c-3.858828 1.811991-8.222113 3.590385-12.289062 5.601563l-6.222657 3.078125-6.013672-2.996094c-3.994253-1.989748-8.045147-3.624627-11.820312-5.412109a3.1054002 3.1054002 0 0 0 -3.689453.791015l-24.945313 29.21875a3.1054002 3.1054002 0 0 0 .246094 4.289063s.756924.704071 1.740234 1.511719c.983311.807647 2.091573 1.726412 3.525391 2.392578 3.023935 1.40495 7.004689 2.245594 10.423828 2.876953 3.419139.631358 6.216797.970703 6.216797.970703a3.1054002 3.1054002 0 0 0 1.191406-.824219l-9.392578 38.353517a3.1054002 3.1054002 0 0 0 2.167969 3.72461s7.210217 2.07453 11.353516 2.81445c3.859959.68933 7.667058.96203 11.34375 1.25977 2.570214.20814 5.214635.40616 7.93164.40625 2.717321.00008 5.361685-.19821 7.931641-.40625 3.675665-.29754 7.484566-.56828 11.345703-1.25782 4.144513-.74013 11.353516-2.8164 11.353516-2.8164a3.1054002 3.1054002 0 0 0 2.166015-3.72461l-9.375-38.265626a3.1054002 3.1054002 0 0 0 1.136719.802734s3.075077-.313872 6.8125-.974609c3.737425-.660738 8.077165-1.557631 11.357425-3.263672 1.37813-.716757 2.21556-1.599997 2.99023-2.373047s1.35742-1.449219 1.35742-1.449219a3.1054002 3.1054002 0 0 0 .0137-4.046875l-25.175806-29.486328a3.1054002 3.1054002 0 0 0 -3.681641-.794922z" fill="url(#q)" mask="url(#o)" transform="translate(0 1.098513)"/><path d="m66.041016 4.1894531c-3.131414-.0147897-5.676816 1.4630823-8.240235 3.6230469a2.3407125 2.3407125 0 0 0 -.412109.4511719l-17.50586 25.1308591a2.3407125 2.3407125 0 0 0 .917969 3.453125l18.4375 8.726563 5.53711 2.804687a2.3407125 2.3407125 0 0 0 2.107421.0039l5.75-2.886718 18.371094-8.648438a2.3407125 2.3407125 0 0 0 .923828-3.455078l-17.550781-25.189447a2.3407125 2.3407125 0 0 0 -.287109-.3398438c-2.542808-2.4740837-5.188931-3.660321-8.048828-3.6738281z" fill="url(#q)" mask="url(#n)" transform="translate(0 1.098513)"/><g fill="url(#j)"><path d="m98.345704 121.93445-1.085937-3.81836s-1.218312.37603-1.833445.54297c-3.621845.98295-7.235281 2.04246-10.930227 2.69922-3.594516.63891-7.251888.85752-10.886719 1.19921-1.836018.17259-3.888211.31205-5.515625.42969l-.212891-71.879057 9.980927-9.603034 3.368683-3.051107c.639399-.57931.831242-1.505368.474609-2.291016-2.682332-5.917949-4.157334-10.400791-6.138672-13.753906-1.981337-3.353115-5.704226-5.5476-9.330078-5.59375-3.662238-.04661-7.482916 2.06311-9.564453 5.408203s-3.681779 7.870233-6.578125 13.900391c-.380351.792216-.194402 1.74024.457031 2.330078l3.332284 3.051107 10.029044 9.664775.212891 71.817316c-1.631118-.11797-3.674354-.25902-5.507813-.43164-3.634711-.3422-7.292214-.55869-10.886718-1.19726-3.69509-.65644-7.308579-1.71618-10.930491-2.69922-.615049-.16693-1.833181-.54297-1.833181-.54297l-1.085938 3.81836c10.688925 3.54329 21.203786 5.16624 32.013674 5.17773 10.953874.0116 21.24919-1.99352 32.45117-5.17773zm-32.154295-101.15039c3.262412.03639 4.355367.93065 5.958985 3.644531 1.468513 2.485237 3.011435 6.691276 5.365234 12.033203-3.87394 3.508848-7.747568 7.01804-11.621094 10.527344-3.867933-3.502568-7.736797-7.004107-11.605469-10.505859 2.540086-5.43246 4.209726-9.680564 5.753907-12.16211 1.685998-2.709449 2.808324-3.574367 6.148437-3.537109zm-44.568361 48.685547-2.701172 2.908203s3.972675 3.837532 6.427734 4.99152c5.646207 2.65397 18.271485 4.057308 18.271485 4.057308l.480468-3.939453s-.886868-.06312-1.327836-.117855c-2.193245-.27223-4.386211-.582835-6.547164-1.046208-3.10784-.666414-6.358372-1.074405-9.205078-2.488281-1.506398-.748184-2.704143-2.004345-3.99254-3.08557-.485411-.407358-1.405897-1.279664-1.405897-1.279664zm89.017582.0059c-.43294.500651-.71293.868674-1.1015 1.273764-.96505 1.006072-1.8327 2.179984-3.04694 2.864908-2.98278 1.682514-6.541972 2.066935-9.894533 2.765625-2.341038.487884-4.731284.70337-7.105438.989526-.435965.05255-1.310577.133521-1.310577.133521l.402343 3.949219s13.432475-1.079322 19.271905-4.08274c2.32485-1.195749 5.78474-5.296167 5.78474-5.296167z"/><path d="m60.267227 44.571437-8.384533-7.589135c5.87488-12.231432 6.614339-18.26785 14.330695-18.181777 7.584886.08461 8.240361 6.17084 13.684362 18.181777l-8.287487 7.506836-5.714868 5.17655z"/><path d="m86.800907 37.521614-2.958476 1.392163-18.009754 8.475609-20.289202-9.60629-29.738754 34.834568c4.3017 3.973372 8.814544 6.842506 13.949537 8.390702 3.626272 1.090448 7.091463 1.983109 11.075293 2.527494l-9.952364 41.31324s4.099923 1.12575 6.180727 1.55357c3.414119.70195 6.861159 1.26343 10.324209 1.65868 3.667696.41862 7.359563.6269 11.048938.75237 5.11852.17407 10.245917.17406 15.364437 0 3.689547-.12547 7.381585-.33377 11.049455-.75237 3.463371-.39526 6.910733-.95674 10.325178-1.65869 2.080996-.42782 6.181309-1.55356 6.181309-1.55356l-10.136333-41.373184c.349934-.03659 7.699403-1.550792 11.517123-2.467033 5.51549-.950598 10.81487-5.024189 13.75472-8.714197zm-39.38073 28.634488c-1.473856 4.511221-5.528158 13.120587-5.528158 13.120587s-10.835788-1.369099-15.705502-3.642155c-1.686596-.787259-4.460193-3.359485-4.460193-3.359485l24.946282-29.219923c3.885327 1.839642 7.914749 3.469423 11.762589 5.386235l7.391797 3.682463 7.606255-3.761528c3.924056-1.940514 8.27032-3.713654 12.232845-5.574337l25.175728 29.48709s-2.06591 2.388025-3.4339 3.099552c-5.17278 2.690507-17.051158 3.902088-17.051158 3.902088s-3.975919-8.620538-5.452689-13.120587c-1.2997-3.960475-2.976338-12.14548-2.976338-12.14548s.02988 8.070539.613179 12.049819c.657826 4.487731 3.23774 13.216248 3.23774 13.216248l10.115238 41.291021s-7.313142 2.07737-11.048939 2.74453c-3.647824.65145-7.356006.92102-11.049455 1.22008-2.55579.20695-5.118064.39696-7.682218.39688-2.564163-.00008-5.126428-.19035-7.682219-.39739-3.693268-.29918-7.401281-.56867-11.048938-1.22008-3.735964-.66718-11.049455-2.74454-11.049455-2.74454l10.112268-41.290501s2.562586-8.664235 3.213129-13.119355c.576425-3.947535.595842-11.953352.595842-11.953352s-1.562167 8.060086-2.83373 11.95212z"/><path d="m65.925694 3.3474711c-3.579246.0128557-7.006968 2.1960346-9.753926 4.4906821-4.635548 3.8722588-6.924741 9.8983798-10.386964 14.8476728-3.462247 4.949328-10.386446 14.84819-10.386446 14.84819l23.036837 10.907345 7.391797 3.682463 7.606255-3.761528 22.986194-10.817945-10.414352-14.915369c-3.47145-4.97179-5.748364-11.042555-10.414351-14.915369-2.720214-2.2577996-6.129927-4.3788348-9.665044-4.3661419zm-5.658569 41.2238419c-6.115221-2.995233-18.463473-8.741069-18.463473-8.741069s5.834786-8.377095 8.752179-12.565642 4.833281-9.294961 8.752179-12.565641c1.891022-1.5782319 4.25799-3.0822471 6.721037-3.0706142 2.366153.011175 4.619009 1.4860395 6.428549 3.0106692 3.913062 3.296954 5.849772 8.396904 8.774658 12.595356s8.774658 12.595355 8.774658 12.595355-12.301554 5.695586-18.39681 8.65942c-1.937972.942344-5.777681 2.90037-5.777681 2.90037s-3.697875-1.903542-5.565296-2.818204z"/></g></g></svg>