<svg height="500" viewBox="0 0 132.29167 132.29167" width="500" xmlns="http://www.w3.org/2000/svg" xmlns:xlink="http://www.w3.org/1999/xlink"><pattern id="a" patternTransform="matrix(.39177304 .03166849 -.03166849 .39177304 132.29167 0)" xlink:href="#c"/><pattern id="b" patternTransform="matrix(.1178894 .37495474 -.37495474 .1178894 132.29167 0)" xlink:href="#c"/><pattern id="c" patternTransform="matrix(.3930509 0 0 .3930509 132.29167 0)" xlink:href="#h"/><linearGradient id="d" gradientTransform="matrix(391.593 0 0 -391.593 60.7962 7618.49)" gradientUnits="userSpaceOnUse" spreadMethod="pad" x1="0" x2="1" y1="0" y2="0"><stop offset="0" stop-color="#e3e1db"/><stop offset=".51123601" stop-color="#c1c0be"/><stop offset="1" stop-color="#a2a19a"/></linearGradient><radialGradient id="e" cx="161.40474" cy="217.67241" gradientTransform="matrix(-1.9021178 .61802823 -.38196532 -1.1755819 551.55887 373.85696)" gradientUnits="userSpaceOnUse" r="3.937185" xlink:href="#d"/><radialGradient id="f" cx="179.44995" cy="213.07353" gradientTransform="matrix(-.51284431 .24154295 -1.6227037 -3.4453262 617.23505 903.83648)" gradientUnits="userSpaceOnUse" r="1.759995" xlink:href="#d"/><radialGradient id="g" cx="170.17542" cy="169.34203" gradientTransform="matrix(.88112435 1.0084879 -1.1255773 .98342675 211.97204 -168.95988)" gradientUnits="userSpaceOnUse" r="1.661045" xlink:href="#d"/><pattern id="h" height="150" patternTransform="translate(500)" patternUnits="userSpaceOnUse" width="150"><use transform="matrix(3.7795275 0 0 3.7795275 -837.00002 -60.999999)" xlink:href="#ce"/></pattern><linearGradient id="i" gradientTransform="matrix(3.7795274 0 0 3.7795274 -774.51887 342.60498)" gradientUnits="userSpaceOnUse" spreadMethod="reflect" x1="211.06287" x2="212.34987" xlink:href="#d" y1="-84.119858" y2="-79.901535"/><linearGradient id="j" gradientUnits="userSpaceOnUse" spreadMethod="reflect" x1="-37.043556" x2="-29.372921" y1="34.611404" y2="45.462547"><stop offset="0" stop-color="#252060"/><stop offset="1" stop-color="#27244d"/></linearGradient><linearGradient id="k" gradientTransform="matrix(3.7795274 0 0 3.7795274 -774.51887 342.60498)" gradientUnits="userSpaceOnUse" spreadMethod="reflect" x1="219.87396" x2="224.032" xlink:href="#d" y1="-77.981789" y2="-74.417747"/><filter id="l" color-interpolation-filters="sRGB" height="1.048644" width="1.060681" x="-.030341" y="-.024322"><feGaussianBlur stdDeviation="1.2728198"/></filter><radialGradient id="m" cx="703.05621" cy="255.40021" gradientTransform="matrix(.12107523 -.12107523 .05841622 .05841622 -57.692804 112.54712)" gradientUnits="userSpaceOnUse" r="1011.8609"><stop offset="0" stop-color="#c1c0be"/><stop offset=".08962709" stop-color="#c1c0be" stop-opacity=".9"/><stop offset="1" stop-color="#c1c0be" stop-opacity="0"/></radialGradient><radialGradient id="n" cx="703.05621" cy="1070.2185" gradientTransform="matrix(.12107523 -.12107523 .05841622 .05841622 -57.692804 112.54712)" gradientUnits="userSpaceOnUse" r="1011.8609" spreadMethod="pad"><stop offset="0" stop-color="#e3e1db"/><stop offset=".08962709" stop-color="#e3e1db" stop-opacity=".9"/><stop offset="1" stop-color="#e3e1db" stop-opacity="0"/></radialGradient><radialGradient id="o" cx="318.10205" cy="130.80363" gradientTransform="matrix(.43446336 .43446828 -.90042865 .90042861 45.7215 -189.83875)" gradientUnits="userSpaceOnUse" r="136.05388" spreadMethod="pad"><stop offset="0" stop-color="#e3e1db"/><stop offset=".127809" stop-color="#e3e1db" stop-opacity=".9"/><stop offset=".55261534" stop-color="#c1c0be" stop-opacity=".45"/><stop offset="1" stop-color="#a2a19a" stop-opacity="0"/></radialGradient><filter id="p" color-interpolation-filters="sRGB" height="1.0135" width="1.0135" x="-.00675" y="-.00675"><feGaussianBlur stdDeviation=".44648439"/></filter><mask id="q" maskUnits="userSpaceOnUse"><path d="m-13.229163-13.229171h158.750003v158.750011h-158.750003z" fill="url(#r)" filter="url(#p)" stroke-width="11.83" transform="matrix(0 -1 1 0 -.000001 132.291669)"/></mask><radialGradient id="r" cx="66.145844" cy="66.145836" gradientTransform="matrix(-1.0000001 .00000145 0 -.99999998 132.29169 132.29157)" gradientUnits="userSpaceOnUse" r="66.145836"><stop offset="0" stop-color="#fff"/><stop offset=".25342461" stop-color="#fff"/><stop offset=".75273961" stop-color="#808080"/><stop offset=".87499994" stop-color="#404040"/><stop offset="1"/></radialGradient><radialGradient id="s" cx="4601.1221" cy="4277.6772" gradientTransform="matrix(0 1 -1 0 5224.5762 -3824.5764)" gradientUnits="userSpaceOnUse" r="11.2507" xlink:href="#t"/><linearGradient id="t"><stop offset="0" stop-color="#fff"/><stop offset=".1375" stop-color="#fff" stop-opacity=".8625"/><stop offset="1" stop-color="#fff" stop-opacity="0"/></linearGradient><radialGradient id="u" cx="4694.3481" cy="4395.814" gradientTransform="matrix(0 1 -1 0 5224.5762 -3824.5764)" gradientUnits="userSpaceOnUse" r="11.2507" xlink:href="#t"/><radialGradient id="v" cx="4845.7568" cy="4885.4878" gradientTransform="matrix(0 1 -1 0 5224.5762 -3824.5764)" gradientUnits="userSpaceOnUse" r="11.2507" xlink:href="#t"/><radialGradient id="w" cx="4996.8203" cy="4201.0781" gradientTransform="matrix(0 1 -1 0 5224.5762 -3824.5764)" gradientUnits="userSpaceOnUse" r="11.2507" xlink:href="#t"/><radialGradient id="x" cx="4264.2671" cy="4804.9849" gradientTransform="matrix(0 1 -1 0 5224.5762 -3824.5764)" gradientUnits="userSpaceOnUse" r="11.2507" xlink:href="#t"/><radialGradient id="y" cx="4253.0161" cy="4349.7529" gradientTransform="matrix(0 1 -1 0 5224.5762 -3824.5764)" gradientUnits="userSpaceOnUse" r="11.2507" xlink:href="#t"/><radialGradient id="z" cx="4291.9346" cy="4509.8506" gradientTransform="matrix(0 1 -1 0 5224.5762 -3824.5764)" gradientUnits="userSpaceOnUse" r="11.2507" xlink:href="#t"/><radialGradient id="A" cx="4178.7915" cy="4193.6758" gradientTransform="matrix(0 1 -1 0 5224.5762 -3824.5764)" gradientUnits="userSpaceOnUse" r="11.2507" xlink:href="#t"/><radialGradient id="B" cx="4508.9131" cy="4184.4229" gradientTransform="matrix(0 1 -1 0 5224.5762 -3824.5764)" gradientUnits="userSpaceOnUse" r="11.2507" xlink:href="#t"/><radialGradient id="C" cx="4169.5386" cy="4599.0166" gradientTransform="matrix(0 1 -1 0 5224.5762 -3824.5764)" gradientUnits="userSpaceOnUse" r="11.2507" xlink:href="#t"/><radialGradient id="D" cx="4024.0554" cy="4671.3345" gradientTransform="matrix(0 1 -1 0 5224.5762 -3824.5764)" gradientUnits="userSpaceOnUse" r="11.2507" xlink:href="#t"/><radialGradient id="E" cx="4381.2778" cy="4473.0386" gradientTransform="matrix(0 1 -1 0 5224.5762 -3824.5764)" gradientUnits="userSpaceOnUse" r="5.6228" xlink:href="#t"/><radialGradient id="F" cx="4207.3452" cy="4447.1753" gradientTransform="matrix(0 1 -1 0 5224.5762 -3824.5764)" gradientUnits="userSpaceOnUse" r="5.6228" xlink:href="#t"/><radialGradient id="G" cx="4156.0269" cy="4803.9863" gradientTransform="matrix(0 1 -1 0 5224.5762 -3824.5764)" gradientUnits="userSpaceOnUse" r="5.6228" xlink:href="#t"/><radialGradient id="H" cx="4201.7222" cy="5018.0508" gradientTransform="matrix(0 1 -1 0 5224.5762 -3824.5764)" gradientUnits="userSpaceOnUse" r="5.6228" xlink:href="#t"/><radialGradient id="I" cx="4756.5977" cy="4610.2671" gradientTransform="matrix(0 1 -1 0 5224.5762 -3824.5764)" gradientUnits="userSpaceOnUse" r="5.6228" xlink:href="#t"/><radialGradient id="J" cx="4724.8408" cy="4498.3604" gradientTransform="matrix(0 1 -1 0 5224.5762 -3824.5764)" gradientUnits="userSpaceOnUse" r="5.6228" xlink:href="#t"/><radialGradient id="K" cx="4755.5991" cy="4916.6094" gradientTransform="matrix(0 1 -1 0 5224.5762 -3824.5764)" gradientUnits="userSpaceOnUse" r="5.6228" xlink:href="#t"/><radialGradient id="L" cx="4815.3223" cy="4406.499" gradientTransform="matrix(0 1 -1 0 5224.5762 -3824.5764)" gradientUnits="userSpaceOnUse" r="5.6228" xlink:href="#t"/><radialGradient id="M" cx="4840.1343" cy="4528.7949" gradientTransform="matrix(0 1 -1 0 5224.5762 -3824.5764)" gradientUnits="userSpaceOnUse" r="5.6228" xlink:href="#t"/><radialGradient id="N" cx="4994.8228" cy="4675.311" gradientTransform="matrix(0 1 -1 0 5224.5762 -3824.5764)" gradientUnits="userSpaceOnUse" r="5.6228" xlink:href="#t"/><radialGradient id="O" cx="4625.9868" cy="4580.4009" gradientTransform="matrix(0 1 -1 0 5224.5762 -3824.5764)" gradientUnits="userSpaceOnUse" r="5.6228" xlink:href="#t"/><radialGradient id="P" cx="4832.085" cy="4231.3418" gradientTransform="matrix(0 1 -1 0 5224.5762 -3824.5764)" gradientUnits="userSpaceOnUse" r="5.6228" xlink:href="#t"/><radialGradient id="Q" cx="4920.2227" cy="4281.3076" gradientTransform="matrix(0 1 -1 0 5224.5762 -3824.5764)" gradientUnits="userSpaceOnUse" r="5.6228" xlink:href="#t"/><radialGradient id="R" cx="4483.835" cy="4313.1982" gradientTransform="matrix(0 1 -1 0 5224.5762 -3824.5764)" gradientUnits="userSpaceOnUse" r="5.6228" xlink:href="#t"/><radialGradient id="S" cx="4664.439" cy="4695.5273" gradientTransform="matrix(0 1 -1 0 5224.5762 -3824.5764)" gradientUnits="userSpaceOnUse" r="11.2507" xlink:href="#t"/><radialGradient id="T" cx="4894.2646" cy="4681.8555" gradientTransform="matrix(0 1 -1 0 5224.5762 -3824.5764)" gradientUnits="userSpaceOnUse" r="11.2507" xlink:href="#t"/><radialGradient id="U" cx="4985.5698" cy="4361.0039" gradientTransform="matrix(0 1 -1 0 5224.5762 -3824.5764)" gradientUnits="userSpaceOnUse" r="11.2507" xlink:href="#t"/><radialGradient id="V" cx="4713.5898" cy="4089.8687" gradientTransform="matrix(0 1 -1 0 5224.5762 -3824.5764)" gradientUnits="userSpaceOnUse" r="11.2507" xlink:href="#t"/><radialGradient id="W" cx="4757.5957" cy="4804.9849" gradientTransform="matrix(0 1 -1 0 5224.5762 -3824.5764)" gradientUnits="userSpaceOnUse" r="11.2507" xlink:href="#t"/><radialGradient id="X" cx="4433.3354" cy="5016.0532" gradientTransform="matrix(0 1 -1 0 5224.5762 -3824.5764)" gradientUnits="userSpaceOnUse" r="11.2507" xlink:href="#t"/><radialGradient id="Y" cx="4371.5723" cy="4725.9341" gradientTransform="matrix(0 1 -1 0 5224.5762 -3824.5764)" gradientUnits="userSpaceOnUse" r="11.2507" xlink:href="#t"/><radialGradient id="Z" cx="4510.9111" cy="4743.7231" gradientTransform="matrix(0 1 -1 0 5224.5762 -3824.5764)" gradientUnits="userSpaceOnUse" r="11.2507" xlink:href="#t"/><radialGradient id="aa" cx="4269.4331" cy="4686.5615" gradientTransform="matrix(0 1 -1 0 5224.5762 -3824.5764)" gradientUnits="userSpaceOnUse" r="11.2507" xlink:href="#t"/><radialGradient id="ab" cx="4072.584" cy="4883.4902" gradientTransform="matrix(0 1 -1 0 5224.5762 -3824.5764)" gradientUnits="userSpaceOnUse" r="11.2507" xlink:href="#t"/><radialGradient id="ac" cx="4484.8335" cy="4664.189" gradientTransform="matrix(0 1 -1 0 5224.5762 -3824.5764)" gradientUnits="userSpaceOnUse" r="7.1455" xlink:href="#t"/><radialGradient id="ad" cx="4613.2183" cy="4640.4971" gradientTransform="matrix(0 1 -1 0 5224.5762 -3824.5764)" gradientUnits="userSpaceOnUse" r="7.1455" xlink:href="#t"/><radialGradient id="ae" cx="4091.8" cy="4252.5869" gradientTransform="matrix(0 1 -1 0 5224.5762 -3824.5764)" gradientUnits="userSpaceOnUse" r="7.1455" xlink:href="#t"/><radialGradient id="af" cx="4666.4365" cy="4863.9521" gradientTransform="matrix(0 1 -1 0 5224.5762 -3824.5764)" gradientUnits="userSpaceOnUse" r="7.1455" xlink:href="#t"/><radialGradient id="ag" cx="4894.2646" cy="4840.1016" gradientTransform="matrix(0 1 -1 0 5224.5762 -3824.5764)" gradientUnits="userSpaceOnUse" r="7.1455" xlink:href="#t"/><radialGradient id="ah" cx="4974.3188" cy="4809.6094" gradientTransform="matrix(0 1 -1 0 5224.5762 -3824.5764)" gradientUnits="userSpaceOnUse" r="7.1455" xlink:href="#t"/><radialGradient id="ai" cx="4589.1577" cy="4997.6572" gradientTransform="matrix(0 1 -1 0 5224.5762 -3824.5764)" gradientUnits="userSpaceOnUse" r="7.1455" xlink:href="#t"/><radialGradient id="aj" cx="4065.4385" cy="4519.7837" gradientTransform="matrix(0 1 -1 0 5224.5762 -3824.5764)" gradientUnits="userSpaceOnUse" r="7.1455" xlink:href="#t"/><radialGradient id="ak" cx="4347.4258" cy="4820.2441" gradientTransform="matrix(0 1 -1 0 5224.5762 -3824.5764)" gradientUnits="userSpaceOnUse" r="7.1455" xlink:href="#t"/><radialGradient id="al" cx="4533.5781" cy="4593.1694" gradientTransform="matrix(0 1 -1 0 5224.5762 -3824.5764)" gradientUnits="userSpaceOnUse" r="7.1455" xlink:href="#t"/><radialGradient id="am" cx="4448.2217" cy="4220.0913" gradientTransform="matrix(0 1 -1 0 5224.5762 -3824.5764)" gradientUnits="userSpaceOnUse" r="11.2507" xlink:href="#t"/><radialGradient id="an" cx="4908.2451" cy="4929.8579" gradientTransform="matrix(0 1 -1 0 5224.5762 -3824.5764)" gradientUnits="userSpaceOnUse" r="11.2507" xlink:href="#t"/><radialGradient id="ao" cx="4987.5674" cy="5014.0552" gradientTransform="matrix(0 1 -1 0 5224.5762 -3824.5764)" gradientUnits="userSpaceOnUse" r="11.2507" xlink:href="#t"/><radialGradient id="ap" cx="3991.5649" cy="4813.0986" gradientTransform="matrix(0 1 -1 0 5224.5762 -3824.5764)" gradientUnits="userSpaceOnUse" r="11.2507" xlink:href="#t"/><radialGradient id="aq" cx="4027.6277" cy="5059.4341" gradientTransform="matrix(0 1 -1 0 5224.5762 -3824.5764)" gradientUnits="userSpaceOnUse" r="11.2507" xlink:href="#t"/><radialGradient id="ar" cx="4012.8047" cy="4351.751" gradientTransform="matrix(0 1 -1 0 5224.5762 -3824.5764)" gradientUnits="userSpaceOnUse" r="11.2507" xlink:href="#t"/><radialGradient id="as" cx="4683.0972" cy="5027.3037" gradientTransform="matrix(0 1 -1 0 5224.5762 -3824.5764)" gradientUnits="userSpaceOnUse" r="11.2507" xlink:href="#t"/><radialGradient id="at" cx="4367.481" cy="4195.6733" gradientTransform="matrix(0 1 -1 0 5224.5762 -3824.5764)" gradientUnits="userSpaceOnUse" r="11.2507" xlink:href="#t"/><radialGradient id="au" cx="4526.4326" cy="4089.8687" gradientTransform="matrix(0 1 -1 0 5224.5762 -3824.5764)" gradientUnits="userSpaceOnUse" r="11.2507" xlink:href="#t"/><radialGradient id="av" cx="4261.9028" cy="4242.5928" gradientTransform="matrix(0 1 -1 0 5224.5762 -3824.5764)" gradientUnits="userSpaceOnUse" r="11.2507" xlink:href="#t"/><radialGradient id="aw" cx="16633.223" cy="4517.6021" gradientTransform="matrix(0 .2895 -1 0 5224.5762 -4086.6375)" gradientUnits="userSpaceOnUse" r="19.241899" xlink:href="#t"/><radialGradient id="ax" cx="-15595.086" cy="5031.6465" gradientTransform="matrix(.2895 0 0 1 5221.3418 -4303.4033)" gradientUnits="userSpaceOnUse" r="19.241899" xlink:href="#t"/><radialGradient id="ay" cx="16323.169" cy="4900.5503" gradientTransform="matrix(0 .2895 -1 0 5224.5762 -4086.6375)" gradientUnits="userSpaceOnUse" r="29.7325" xlink:href="#t"/><radialGradient id="az" cx="-16917.998" cy="4941.8945" gradientTransform="matrix(.2895 0 0 1 5221.3418 -4303.4033)" gradientUnits="userSpaceOnUse" r="29.7325" xlink:href="#t"/><radialGradient id="aA" cx="17536.6" cy="5029.3018" gradientTransform="matrix(0 .2895 -1 0 5224.5762 -4086.6375)" gradientUnits="userSpaceOnUse" r="29.7325" xlink:href="#t"/><radialGradient id="aB" cx="-17362.775" cy="5293.1509" gradientTransform="matrix(.2895 0 0 1 5221.3418 -4303.4033)" gradientUnits="userSpaceOnUse" r="29.7325" xlink:href="#t"/><radialGradient id="aC" cx="15154.966" cy="4975.0698" gradientTransform="matrix(0 .2895 -1 0 5224.5762 -4086.6375)" gradientUnits="userSpaceOnUse" r="29.7325" xlink:href="#t"/><radialGradient id="aD" cx="-17175.43" cy="4603.7305" gradientTransform="matrix(.2895 0 0 1 5221.3418 -4303.4033)" gradientUnits="userSpaceOnUse" r="29.7325" xlink:href="#t"/><radialGradient id="aE" cx="16788.486" cy="4380.1377" gradientTransform="matrix(0 .2895 -1 0 5224.5762 -4086.6375)" gradientUnits="userSpaceOnUse" r="29.7325" xlink:href="#t"/><radialGradient id="aF" cx="-15120.208" cy="5076.5913" gradientTransform="matrix(.2895 0 0 1 5221.3418 -4303.4033)" gradientUnits="userSpaceOnUse" r="29.7325" xlink:href="#t"/><radialGradient id="aG" cx="15052.254" cy="4385.373" gradientTransform="matrix(0 .2895 -1 0 5224.5762 -4086.6375)" gradientUnits="userSpaceOnUse" r="29.7325" xlink:href="#t"/><radialGradient id="aH" cx="-15138.295" cy="4573.998" gradientTransform="matrix(.2895 0 0 1 5221.3418 -4303.4033)" gradientUnits="userSpaceOnUse" r="29.7325" xlink:href="#t"/><radialGradient id="aI" cx="16060.047" cy="4376.7666" gradientTransform="matrix(0 .2895 -1 0 5224.5762 -4086.6375)" gradientUnits="userSpaceOnUse" r="29.7325" xlink:href="#t"/><radialGradient id="aJ" cx="-15108.562" cy="4865.7275" gradientTransform="matrix(.2895 0 0 1 5221.3418 -4303.4033)" gradientUnits="userSpaceOnUse" r="29.7325" xlink:href="#t"/><radialGradient id="aK" cx="15866.068" cy="4081.2617" gradientTransform="matrix(0 .2895 -1 0 5224.5762 -4086.6375)" gradientUnits="userSpaceOnUse" r="29.7325" xlink:href="#t"/><radialGradient id="aL" cx="-14087.729" cy="4809.5757" gradientTransform="matrix(.2895 0 0 1 5221.3418 -4303.4033)" gradientUnits="userSpaceOnUse" r="29.7325" xlink:href="#t"/><radialGradient id="aM" cx="17890.787" cy="4106.2778" gradientTransform="matrix(0 .2895 -1 0 5224.5762 -4086.6375)" gradientUnits="userSpaceOnUse" r="29.7325" xlink:href="#t"/><radialGradient id="aN" cx="-14174.147" cy="5395.6787" gradientTransform="matrix(.2895 0 0 1 5221.3418 -4303.4033)" gradientUnits="userSpaceOnUse" r="29.7325" xlink:href="#t"/><radialGradient id="aO" cx="15420.522" cy="4902.7319" gradientTransform="matrix(0 .2895 -1 0 5224.5762 -4086.6375)" gradientUnits="userSpaceOnUse" r="19.241899" xlink:href="#t"/><radialGradient id="aP" cx="-16925.533" cy="4680.6021" gradientTransform="matrix(.2895 0 0 1 5221.3418 -4303.4033)" gradientUnits="userSpaceOnUse" r="19.241899" xlink:href="#t"/><radialGradient id="aQ" cx="17559.291" cy="4676.2856" gradientTransform="matrix(0 .2895 -1 0 5224.5762 -4086.6375)" gradientUnits="userSpaceOnUse" r="19.241899" xlink:href="#t"/><radialGradient id="aR" cx="-16143.265" cy="5299.7192" gradientTransform="matrix(.2895 0 0 1 5221.3418 -4303.4033)" gradientUnits="userSpaceOnUse" r="19.241899" xlink:href="#t"/><radialGradient id="aS" cx="16866.557" cy="4774.4922" gradientTransform="matrix(0 .2895 -1 0 5224.5762 -4086.6375)" gradientUnits="userSpaceOnUse" r="19.241899" xlink:href="#t"/><radialGradient id="aT" cx="-16482.523" cy="5099.1909" gradientTransform="matrix(.2895 0 0 1 5221.3418 -4303.4033)" gradientUnits="userSpaceOnUse" r="19.241899" xlink:href="#t"/><radialGradient id="aU" cx="16071.692" cy="4574.7783" gradientTransform="matrix(0 .2895 -1 0 5224.5762 -4086.6375)" gradientUnits="userSpaceOnUse" r="19.241899" xlink:href="#t"/><radialGradient id="aV" cx="-15792.604" cy="4869.0986" gradientTransform="matrix(.2895 0 0 1 5221.3418 -4303.4033)" gradientUnits="userSpaceOnUse" r="19.241899" xlink:href="#t"/><radialGradient id="aW" cx="16699.693" cy="4871.0977" gradientTransform="matrix(0 .2895 -1 0 5224.5762 -4086.6375)" gradientUnits="userSpaceOnUse" r="19.241899" xlink:href="#t"/><radialGradient id="aX" cx="-16816.252" cy="5050.8887" gradientTransform="matrix(.2895 0 0 1 5221.3418 -4303.4033)" gradientUnits="userSpaceOnUse" r="19.241899" xlink:href="#t"/><radialGradient id="aY" cx="18061.07" cy="4512.0322" gradientTransform="matrix(0 .2895 -1 0 5224.5762 -4086.6375)" gradientUnits="userSpaceOnUse" r="19.241899" xlink:href="#t"/><radialGradient id="aZ" cx="-15575.844" cy="5444.9717" gradientTransform="matrix(.2895 0 0 1 5221.3418 -4303.4033)" gradientUnits="userSpaceOnUse" r="19.241899" xlink:href="#t"/><radialGradient id="a0" cx="17188.609" cy="4244.9609" gradientTransform="matrix(0 .2895 -1 0 5224.5762 -4086.6375)" gradientUnits="userSpaceOnUse" r="19.241899" xlink:href="#t"/><radialGradient id="a1" cx="-14653.234" cy="5192.417" gradientTransform="matrix(.2895 0 0 1 5221.3418 -4303.4033)" gradientUnits="userSpaceOnUse" r="19.241899" xlink:href="#t"/><radialGradient id="a2" cx="15143.32" cy="4682.5854" gradientTransform="matrix(0 .2895 -1 0 5224.5762 -4086.6375)" gradientUnits="userSpaceOnUse" r="19.241899" xlink:href="#t"/><radialGradient id="a3" cx="-16165.027" cy="4600.3594" gradientTransform="matrix(.2895 0 0 1 5221.3418 -4303.4033)" gradientUnits="userSpaceOnUse" r="19.241899" xlink:href="#t"/><radialGradient id="a4" cx="17652.088" cy="4368.1597" gradientTransform="matrix(0 .2895 -1 0 5224.5762 -4086.6375)" gradientUnits="userSpaceOnUse" r="19.241899" xlink:href="#t"/><radialGradient id="a5" cx="-15078.83" cy="5326.5815" gradientTransform="matrix(.2895 0 0 1 5221.3418 -4303.4033)" gradientUnits="userSpaceOnUse" r="19.241899" xlink:href="#t"/><radialGradient id="a6" cx="3957.2905" cy="4201.0781" gradientTransform="matrix(0 1 -1 0 5224.5762 -3824.5764)" gradientUnits="userSpaceOnUse" r="11.2507" xlink:href="#t"/><radialGradient id="a7" cx="3955.2927" cy="4675.311" gradientTransform="matrix(0 1 -1 0 5224.5762 -3824.5764)" gradientUnits="userSpaceOnUse" r="5.6228" xlink:href="#t"/><radialGradient id="a8" cx="3880.6929" cy="4281.3076" gradientTransform="matrix(0 1 -1 0 5224.5762 -3824.5764)" gradientUnits="userSpaceOnUse" r="5.6228" xlink:href="#t"/><radialGradient id="a9" cx="3854.7346" cy="4681.8555" gradientTransform="matrix(0 1 -1 0 5224.5762 -3824.5764)" gradientUnits="userSpaceOnUse" r="11.2507" xlink:href="#t"/><radialGradient id="ba" cx="3946.0398" cy="4361.0039" gradientTransform="matrix(0 1 -1 0 5224.5762 -3824.5764)" gradientUnits="userSpaceOnUse" r="11.2507" xlink:href="#t"/><radialGradient id="bb" cx="3854.7346" cy="4840.1016" gradientTransform="matrix(0 1 -1 0 5224.5762 -3824.5764)" gradientUnits="userSpaceOnUse" r="7.1455" xlink:href="#t"/><radialGradient id="bc" cx="3934.7891" cy="4809.6094" gradientTransform="matrix(0 1 -1 0 5224.5762 -3824.5764)" gradientUnits="userSpaceOnUse" r="7.1455" xlink:href="#t"/><radialGradient id="bd" cx="3868.7151" cy="4929.8579" gradientTransform="matrix(0 1 -1 0 5224.5762 -3824.5764)" gradientUnits="userSpaceOnUse" r="11.2507" xlink:href="#t"/><radialGradient id="be" cx="14299.684" cy="4106.2778" gradientTransform="matrix(0 .2895 -1 0 5224.5762 -4086.6375)" gradientUnits="userSpaceOnUse" r="29.7325" xlink:href="#t"/><radialGradient id="bf" cx="-14174.147" cy="4356.1484" gradientTransform="matrix(.2895 0 0 1 5221.3418 -4303.4033)" gradientUnits="userSpaceOnUse" r="29.7325" xlink:href="#t"/><radialGradient id="bg" cx="14469.968" cy="4512.0322" gradientTransform="matrix(0 .2895 -1 0 5224.5762 -4086.6375)" gradientUnits="userSpaceOnUse" r="19.241899" xlink:href="#t"/><radialGradient id="bh" cx="-15575.844" cy="4405.4414" gradientTransform="matrix(.2895 0 0 1 5221.3418 -4303.4033)" gradientUnits="userSpaceOnUse" r="19.241899" xlink:href="#t"/><radialGradient id="bi" cx="16783.117" cy="4155.2524" gradientTransform="matrix(0 .2895 -1 0 5224.5762 -4086.6375)" gradientUnits="userSpaceOnUse" r="19.241899" xlink:href="#t"/><radialGradient id="bj" cx="-14343.332" cy="5075.0371" gradientTransform="matrix(.2895 0 0 1 5221.3418 -4303.4033)" gradientUnits="userSpaceOnUse" r="19.241899" xlink:href="#t"/><radialGradient id="bk" cx="15184.698" cy="4089.8687" gradientTransform="matrix(0 .2895 -1 0 5224.5762 -4086.6375)" gradientUnits="userSpaceOnUse" r="19.241899" xlink:href="#t"/><radialGradient id="bl" cx="-14117.461" cy="4612.3369" gradientTransform="matrix(.2895 0 0 1 5221.3418 -4303.4033)" gradientUnits="userSpaceOnUse" r="19.241899" xlink:href="#t"/><radialGradient id="bm" cx="14799.68" cy="4114.8848" gradientTransform="matrix(0 .2895 -1 0 5224.5762 -4086.6375)" gradientUnits="userSpaceOnUse" r="19.241899" xlink:href="#t"/><radialGradient id="bn" cx="-14203.88" cy="4500.8843" gradientTransform="matrix(.2895 0 0 1 5221.3418 -4303.4033)" gradientUnits="userSpaceOnUse" r="19.241899" xlink:href="#t"/><radialGradient id="bo" cx="4250.4473" cy="5175.2676" gradientTransform="matrix(0 -1 1 0 -5135.66355 5025.32025)" gradientUnits="userSpaceOnUse" r="11.2507" xlink:href="#t"/><radialGradient id="bp" cx="4903.7407" cy="5212.9341" gradientTransform="matrix(0 -1 1 0 -5135.66355 5025.32025)" gradientUnits="userSpaceOnUse" r="5.6228" xlink:href="#t"/><radialGradient id="bq" cx="4991.8784" cy="5262.8999" gradientTransform="matrix(0 -1 1 0 -5135.66355 5025.32025)" gradientUnits="userSpaceOnUse" r="5.6228" xlink:href="#t"/><radialGradient id="br" cx="4163.4556" cy="5234.1792" gradientTransform="matrix(0 -1 1 0 -5135.66355 5025.32025)" gradientUnits="userSpaceOnUse" r="7.1455" xlink:href="#t"/><radialGradient id="bs" cx="4333.5586" cy="5224.1846" gradientTransform="matrix(0 -1 1 0 -5135.66355 5025.32025)" gradientUnits="userSpaceOnUse" r="11.2507" xlink:href="#t"/><radialGradient id="bt" cx="17436.146" cy="5226.5532" gradientTransform="matrix(0 -.2895 1 0 -5135.6636 5287.3813)" gradientUnits="userSpaceOnUse" r="19.241899" xlink:href="#t"/><radialGradient id="bu" cx="-18044.189" cy="5264.0723" gradientTransform="matrix(-.2895 0 0 -1 -5132.4292 5504.147)" gradientUnits="userSpaceOnUse" r="19.241899" xlink:href="#t"/><radialGradient id="bv" cx="4028.946" cy="5182.6704" gradientTransform="matrix(0 -1 1 0 -5135.66355 5025.32025)" gradientUnits="userSpaceOnUse" r="11.2507" xlink:href="#t"/><radialGradient id="bw" cx="3864.2109" cy="5212.9341" gradientTransform="matrix(0 -1 1 0 -5135.66355 5025.32025)" gradientUnits="userSpaceOnUse" r="5.6228" xlink:href="#t"/><radialGradient id="bx" cx="3952.3484" cy="5262.8999" gradientTransform="matrix(0 -1 1 0 -5135.66355 5025.32025)" gradientUnits="userSpaceOnUse" r="5.6228" xlink:href="#t"/><radialGradient id="by" cx="4358.6768" cy="4918.6069" gradientTransform="matrix(0 1 -1 0 5224.5762 -3824.5764)" gradientUnits="userSpaceOnUse" r="11.2507" xlink:href="#t"/><radialGradient id="bz" cx="5075.5581" cy="4804.9849" gradientTransform="matrix(0 1 -1 0 5224.5762 -3824.5764)" gradientUnits="userSpaceOnUse" r="11.2507" xlink:href="#t"/><radialGradient id="bA" cx="5064.3071" cy="4349.7529" gradientTransform="matrix(0 1 -1 0 5224.5762 -3824.5764)" gradientUnits="userSpaceOnUse" r="11.2507" xlink:href="#t"/><radialGradient id="bB" cx="5103.2256" cy="4509.8506" gradientTransform="matrix(0 1 -1 0 5224.5762 -3824.5764)" gradientUnits="userSpaceOnUse" r="11.2507" xlink:href="#t"/><radialGradient id="bC" cx="5192.5688" cy="4473.0386" gradientTransform="matrix(0 1 -1 0 5224.5762 -3824.5764)" gradientUnits="userSpaceOnUse" r="5.6228" xlink:href="#t"/><radialGradient id="bD" cx="5182.8633" cy="4725.9341" gradientTransform="matrix(0 1 -1 0 5224.5762 -3824.5764)" gradientUnits="userSpaceOnUse" r="11.2507" xlink:href="#t"/><radialGradient id="bE" cx="5080.7241" cy="4686.5615" gradientTransform="matrix(0 1 -1 0 5224.5762 -3824.5764)" gradientUnits="userSpaceOnUse" r="11.2507" xlink:href="#t"/><radialGradient id="bF" cx="5158.7168" cy="4820.2441" gradientTransform="matrix(0 1 -1 0 5224.5762 -3824.5764)" gradientUnits="userSpaceOnUse" r="7.1455" xlink:href="#t"/><radialGradient id="bG" cx="5143.9321" cy="5055.4385" gradientTransform="matrix(0 1 -1 0 5224.5762 -3824.5764)" gradientUnits="userSpaceOnUse" r="11.2507" xlink:href="#t"/><radialGradient id="bH" cx="5073.1938" cy="4242.5928" gradientTransform="matrix(0 1 -1 0 5224.5762 -3824.5764)" gradientUnits="userSpaceOnUse" r="11.2507" xlink:href="#t"/><radialGradient id="bI" cx="18862.688" cy="4376.7666" gradientTransform="matrix(0 .2895 -1 0 5224.5762 -4086.6375)" gradientUnits="userSpaceOnUse" r="29.7325" xlink:href="#t"/><radialGradient id="bJ" cx="-15108.562" cy="5677.0186" gradientTransform="matrix(.2895 0 0 1 5221.3418 -4303.4033)" gradientUnits="userSpaceOnUse" r="29.7325" xlink:href="#t"/><radialGradient id="bK" cx="18223.164" cy="4902.7319" gradientTransform="matrix(0 .2895 -1 0 5224.5762 -4086.6375)" gradientUnits="userSpaceOnUse" r="19.241899" xlink:href="#t"/><radialGradient id="bL" cx="-16925.533" cy="5491.8931" gradientTransform="matrix(.2895 0 0 1 5221.3418 -4303.4033)" gradientUnits="userSpaceOnUse" r="19.241899" xlink:href="#t"/><radialGradient id="bM" cx="18874.334" cy="4574.7783" gradientTransform="matrix(0 .2895 -1 0 5224.5762 -4086.6375)" gradientUnits="userSpaceOnUse" r="19.241899" xlink:href="#t"/><radialGradient id="bN" cx="-15792.604" cy="5680.3896" gradientTransform="matrix(.2895 0 0 1 5221.3418 -4303.4033)" gradientUnits="userSpaceOnUse" r="19.241899" xlink:href="#t"/><radialGradient id="bO" cx="4169.5386" cy="3879.4983" gradientTransform="matrix(0 1 -1 0 5224.5762 -3824.5764)" gradientUnits="userSpaceOnUse" r="11.2507" xlink:href="#t"/><radialGradient id="bP" cx="4024.0554" cy="3951.8164" gradientTransform="matrix(0 1 -1 0 5224.5762 -3824.5764)" gradientUnits="userSpaceOnUse" r="11.2507" xlink:href="#t"/><radialGradient id="bQ" cx="4756.5977" cy="3890.749" gradientTransform="matrix(0 1 -1 0 5224.5762 -3824.5764)" gradientUnits="userSpaceOnUse" r="5.6228" xlink:href="#t"/><radialGradient id="bR" cx="4625.9868" cy="3860.8828" gradientTransform="matrix(0 1 -1 0 5224.5762 -3824.5764)" gradientUnits="userSpaceOnUse" r="5.6228" xlink:href="#t"/><radialGradient id="bS" cx="4664.439" cy="3976.0093" gradientTransform="matrix(0 1 -1 0 5224.5762 -3824.5764)" gradientUnits="userSpaceOnUse" r="11.2507" xlink:href="#t"/><radialGradient id="bT" cx="4894.2646" cy="3962.3374" gradientTransform="matrix(0 1 -1 0 5224.5762 -3824.5764)" gradientUnits="userSpaceOnUse" r="11.2507" xlink:href="#t"/><radialGradient id="bU" cx="4371.5723" cy="4006.416" gradientTransform="matrix(0 1 -1 0 5224.5762 -3824.5764)" gradientUnits="userSpaceOnUse" r="11.2507" xlink:href="#t"/><radialGradient id="bV" cx="4510.9111" cy="4024.2048" gradientTransform="matrix(0 1 -1 0 5224.5762 -3824.5764)" gradientUnits="userSpaceOnUse" r="11.2507" xlink:href="#t"/><radialGradient id="bW" cx="4269.4331" cy="3967.0435" gradientTransform="matrix(0 1 -1 0 5224.5762 -3824.5764)" gradientUnits="userSpaceOnUse" r="11.2507" xlink:href="#t"/><radialGradient id="bX" cx="4484.8335" cy="3944.6709" gradientTransform="matrix(0 1 -1 0 5224.5762 -3824.5764)" gradientUnits="userSpaceOnUse" r="7.1455" xlink:href="#t"/><radialGradient id="bY" cx="4613.2183" cy="3920.979" gradientTransform="matrix(0 1 -1 0 5224.5762 -3824.5764)" gradientUnits="userSpaceOnUse" r="7.1455" xlink:href="#t"/><radialGradient id="bZ" cx="4533.5781" cy="3873.6511" gradientTransform="matrix(0 1 -1 0 5224.5762 -3824.5764)" gradientUnits="userSpaceOnUse" r="7.1455" xlink:href="#t"/><radialGradient id="b0" cx="17559.291" cy="3956.7673" gradientTransform="matrix(0 .2895 -1 0 5224.5762 -4086.6375)" gradientUnits="userSpaceOnUse" r="19.241899" xlink:href="#t"/><radialGradient id="b1" cx="-13657.657" cy="5299.7192" gradientTransform="matrix(.2895 0 0 1 5221.3418 -4303.4033)" gradientUnits="userSpaceOnUse" r="19.241899" xlink:href="#t"/><radialGradient id="b2" cx="16071.692" cy="3855.26" gradientTransform="matrix(0 .2895 -1 0 5224.5762 -4086.6375)" gradientUnits="userSpaceOnUse" r="19.241899" xlink:href="#t"/><radialGradient id="b3" cx="-13306.996" cy="4869.0986" gradientTransform="matrix(.2895 0 0 1 5221.3418 -4303.4033)" gradientUnits="userSpaceOnUse" r="19.241899" xlink:href="#t"/><radialGradient id="b4" cx="15143.32" cy="3963.0671" gradientTransform="matrix(0 .2895 -1 0 5224.5762 -4086.6375)" gradientUnits="userSpaceOnUse" r="19.241899" xlink:href="#t"/><radialGradient id="b5" cx="-13679.42" cy="4600.3594" gradientTransform="matrix(.2895 0 0 1 5221.3418 -4303.4033)" gradientUnits="userSpaceOnUse" r="19.241899" xlink:href="#t"/><radialGradient id="b6" cx="3955.2927" cy="3955.7927" gradientTransform="matrix(0 1 -1 0 5224.5762 -3824.5764)" gradientUnits="userSpaceOnUse" r="5.6228" xlink:href="#t"/><radialGradient id="b7" cx="3854.7346" cy="3962.3374" gradientTransform="matrix(0 1 -1 0 5224.5762 -3824.5764)" gradientUnits="userSpaceOnUse" r="11.2507" xlink:href="#t"/><radialGradient id="b8" cx="3769.2778" cy="5166.0146" gradientTransform="matrix(0 -1 1 0 -5135.66355 5025.32025)" gradientUnits="userSpaceOnUse" r="11.2507" xlink:href="#t"/><radialGradient id="b9" cx="3744.1997" cy="5294.7905" gradientTransform="matrix(0 -1 1 0 -5135.66355 5025.32025)" gradientUnits="userSpaceOnUse" r="5.6228" xlink:href="#t"/><radialGradient id="ca" cx="3708.5862" cy="5201.6836" gradientTransform="matrix(0 -1 1 0 -5135.66355 5025.32025)" gradientUnits="userSpaceOnUse" r="11.2507" xlink:href="#t"/><radialGradient id="cb" cx="3627.8457" cy="5177.2656" gradientTransform="matrix(0 -1 1 0 -5135.66355 5025.32025)" gradientUnits="userSpaceOnUse" r="11.2507" xlink:href="#t"/><radialGradient id="cc" cx="5169.9678" cy="4918.6069" gradientTransform="matrix(0 1 -1 0 5224.5762 -3824.5764)" gradientUnits="userSpaceOnUse" r="11.2507" xlink:href="#t"/><filter id="cd" color-interpolation-filters="sRGB" height="1.022062" width="1.025691" x="-.012846" y="-.011031"><feGaussianBlur stdDeviation=".50696497"/></filter><g mask="url(#q)" stroke-width=".094494" transform="matrix(0 1 -1 0 132.29167 .000002)"><path d="m-16.763244-16.763244c-67.65774 67.657739-96.043756 148.969874-63.396059 181.617564 32.647695 32.64769 113.959825 4.26168 181.617563-63.39606 67.65774-67.657738 96.04375-148.969868 63.39606-181.617563-32.64769-32.647697-113.959825-4.261681-181.617564 63.396059z" fill="url(#m)" opacity=".3"/><path d="m30.833409 30.833409c-67.65774 67.657739-96.043753 148.969871-63.396059 181.617561 32.64769465 32.6477 113.959825 4.26168 181.61756-63.39606 67.65774-67.657735 96.04376-148.96986535 63.39606-181.61756-32.64769-32.647694-113.959822-4.261681-181.617561 63.396059z" fill="url(#n)" opacity=".3"/><path d="m125.25659 125.25659c67.65774-67.657734 96.04375-148.969866 63.39606-181.617556-32.64769-32.6477-113.959825-4.26168-181.61756 63.39606-67.65774 67.657735-96.04376 148.969866-63.39606 181.617556 32.64769 32.6477 113.959822 4.26168 181.61756-63.39606z" fill="url(#o)" opacity=".3"/></g><g opacity=".8" transform="matrix(-.09660557 0 0 -.09518071 134.13683 134.09058)"><circle cx="946.90002" cy="776.5" fill="url(#s)" opacity=".5" r="11.3"/><circle cx="828.79999" cy="869.79999" fill="url(#u)" opacity=".5" r="11.3"/><circle cx="339.10001" cy="1021.2" fill="url(#v)" opacity=".5" r="11.3"/><circle cx="1023.5" cy="1172.2" fill="url(#w)" opacity=".5" r="11.3"/><circle cx="419.60001" cy="439.70001" fill="url(#x)" opacity=".5" r="11.3"/><circle cx="874.79999" cy="428.39999" fill="url(#y)" opacity=".5" r="11.3"/><circle cx="714.70001" cy="467.39999" fill="url(#z)" opacity=".5" r="11.3"/><circle cx="1030.9" cy="354.20001" fill="url(#A)" opacity=".5" r="11.3"/><circle cx="1040.2" cy="684.29999" fill="url(#B)" opacity=".5" r="11.3"/><circle cx="625.59998" cy="345" fill="url(#C)" opacity=".5" r="11.3"/><circle cx="553.20001" cy="199.5" fill="url(#D)" opacity=".5" r="11.3"/><circle cx="751.5" cy="556.70001" fill="url(#E)" opacity=".5" r="5.6"/><circle cx="777.40002" cy="382.79999" fill="url(#F)" opacity=".5" r="5.6"/><circle cx="420.60001" cy="331.5" fill="url(#G)" opacity=".5" r="5.6"/><circle cx="206.5" cy="377.10001" fill="url(#H)" opacity=".5" r="5.6"/><circle cx="614.29999" cy="932" fill="url(#I)" opacity=".5" r="5.6"/><circle cx="726.20001" cy="900.29999" fill="url(#J)" opacity=".5" r="5.6"/><circle cx="308" cy="931" fill="url(#K)" opacity=".5" r="5.6"/><circle cx="818.09998" cy="990.70001" fill="url(#L)" opacity=".5" r="5.6"/><circle cx="695.79999" cy="1015.6" fill="url(#M)" opacity=".5" r="5.6"/><circle cx="549.29999" cy="1170.2" fill="url(#N)" opacity=".5" r="5.6"/><circle cx="644.20001" cy="801.40002" fill="url(#O)" opacity=".5" r="5.6"/><circle cx="993.20001" cy="1007.5" fill="url(#P)" opacity=".5" r="5.6"/><circle cx="943.29999" cy="1095.6" fill="url(#Q)" opacity=".5" r="5.6"/><circle cx="911.40002" cy="659.29999" fill="url(#R)" opacity=".5" r="5.6"/><circle cx="529" cy="839.90002" fill="url(#S)" opacity=".5" r="11.3"/><circle cx="542.70001" cy="1069.7" fill="url(#T)" opacity=".5" r="11.3"/><circle cx="863.59998" cy="1161" fill="url(#U)" opacity=".5" r="11.3"/><circle cx="1134.7" cy="889" fill="url(#V)" opacity=".5" r="11.3"/><circle cx="419.60001" cy="933" fill="url(#W)" opacity=".5" r="11.3"/><circle cx="208.5" cy="608.79999" fill="url(#X)" opacity=".5" r="11.3"/><circle cx="498.60001" cy="547" fill="url(#Y)" opacity=".5" r="11.3"/><circle cx="480.89999" cy="686.29999" fill="url(#Z)" opacity=".5" r="11.3"/><circle cx="538" cy="444.89999" fill="url(#aa)" opacity=".5" r="11.3"/><circle cx="341.10001" cy="248" fill="url(#ab)" opacity=".5" r="11.3"/><circle cx="560.40002" cy="660.29999" fill="url(#ac)" opacity=".5" r="7.1"/><circle cx="584.09998" cy="788.59998" fill="url(#ad)" opacity=".5" r="7.1"/><circle cx="972" cy="267.20001" fill="url(#ae)" opacity=".5" r="7.1"/><circle cx="360.60001" cy="841.90002" fill="url(#af)" opacity=".5" r="7.1"/><circle cx="384.5" cy="1069.7" fill="url(#ag)" opacity=".5" r="7.1"/><circle cx="415" cy="1149.7" fill="url(#ah)" opacity=".5" r="7.1"/><circle cx="226.89999" cy="764.59998" fill="url(#ai)" opacity=".5" r="7.1"/><circle cx="704.79999" cy="240.89999" fill="url(#aj)" opacity=".5" r="7.1"/><circle cx="404.29999" cy="522.79999" fill="url(#ak)" opacity=".5" r="7.1"/><circle cx="631.40002" cy="709" fill="url(#al)" opacity=".5" r="7.1"/><circle cx="1004.5" cy="623.59998" fill="url(#am)" opacity=".5" r="11.3"/><circle cx="294.70001" cy="1083.7" fill="url(#an)" opacity=".5" r="11.3"/><circle cx="210.5" cy="1163" fill="url(#ao)" opacity=".5" r="11.3"/><circle cx="411.5" cy="167" fill="url(#ap)" opacity=".5" r="11.3"/><circle cx="165.10001" cy="203.10001" fill="url(#aq)" opacity=".5" r="11.3"/><circle cx="872.79999" cy="188.2" fill="url(#ar)" opacity=".5" r="11.3"/><circle cx="197.3" cy="858.5" fill="url(#as)" opacity=".5" r="11.3"/><circle cx="1028.9" cy="542.90002" fill="url(#at)" opacity=".5" r="11.3"/><circle cx="1134.7" cy="701.90002" fill="url(#au)" opacity=".5" r="11.3"/><circle cx="982" cy="437.29999" fill="url(#av)" opacity=".5" r="11.3"/><ellipse cx="707" cy="728.20001" fill="url(#aw)" rx="19.200001" ry="5.6"/><ellipse cx="707" cy="728.20001" fill="url(#ax)" rx="5.6" ry="19.200001"/><ellipse cx="324" cy="638.5" fill="url(#ay)" rx="29.700001" ry="8.6"/><ellipse cx="324" cy="638.5" fill="url(#az)" rx="8.6" ry="29.700001"/><ellipse cx="195.3" cy="989.70001" fill="url(#aA)" rx="29.700001" ry="8.6"/><ellipse cx="195.3" cy="989.70001" fill="url(#aB)" rx="8.6" ry="29.700001"/><ellipse cx="249.5" cy="300.29999" fill="url(#aC)" rx="29.700001" ry="8.6"/><ellipse cx="249.5" cy="300.29999" fill="url(#aD)" rx="8.6" ry="29.700001"/><ellipse cx="844.40002" cy="773.20001" fill="url(#aE)" rx="29.700001" ry="8.6"/><ellipse cx="844.40002" cy="773.20001" fill="url(#aF)" rx="8.6" ry="29.700001"/><ellipse cx="839.20001" cy="270.60001" fill="url(#aG)" rx="29.700001" ry="8.6"/><ellipse cx="839.20001" cy="270.60001" fill="url(#aH)" rx="8.6" ry="29.700001"/><ellipse cx="847.79999" cy="562.29999" fill="url(#aI)" rx="29.700001" ry="8.6"/><ellipse cx="847.79999" cy="562.29999" fill="url(#aJ)" rx="8.6" ry="29.700001"/><ellipse cx="1143.3" cy="506.20001" fill="url(#aK)" rx="29.700001" ry="8.6"/><ellipse cx="1143.3" cy="506.20001" fill="url(#aL)" rx="8.6" ry="29.700001"/><ellipse cx="1118.3" cy="1092.3" fill="url(#aM)" rx="29.700001" ry="8.6"/><ellipse cx="1118.3" cy="1092.3" fill="url(#aN)" rx="8.6" ry="29.700001"/><ellipse cx="321.79999" cy="377.20001" fill="url(#aO)" rx="19.200001" ry="5.6"/><ellipse cx="321.79999" cy="377.20001" fill="url(#aP)" rx="5.6" ry="19.200001"/><ellipse cx="548.29999" cy="996.29999" fill="url(#aQ)" rx="19.200001" ry="5.6"/><ellipse cx="548.29999" cy="996.29999" fill="url(#aR)" rx="5.6" ry="19.200001"/><ellipse cx="450.10001" cy="795.79999" fill="url(#aS)" rx="19.200001" ry="5.6"/><ellipse cx="450.10001" cy="795.79999" fill="url(#aT)" rx="5.6" ry="19.200001"/><ellipse cx="649.79999" cy="565.70001" fill="url(#aU)" rx="19.200001" ry="5.6"/><ellipse cx="649.79999" cy="565.70001" fill="url(#aV)" rx="5.6" ry="19.200001"/><ellipse cx="353.5" cy="747.5" fill="url(#aW)" rx="19.200001" ry="5.6"/><ellipse cx="353.5" cy="747.5" fill="url(#aX)" rx="5.6" ry="19.200001"/><ellipse cx="712.5" cy="1141.6" fill="url(#aY)" rx="19.200001" ry="5.6"/><ellipse cx="712.5" cy="1141.6" fill="url(#aZ)" rx="5.6" ry="19.200001"/><ellipse cx="979.59998" cy="889" fill="url(#a0)" rx="19.200001" ry="5.6"/><ellipse cx="979.59998" cy="889" fill="url(#a1)" rx="5.6" ry="19.200001"/><ellipse cx="542" cy="297" fill="url(#a2)" rx="19.200001" ry="5.6"/><ellipse cx="542" cy="297" fill="url(#a3)" rx="5.6" ry="19.200001"/><ellipse cx="856.40002" cy="1023.2" fill="url(#a4)" rx="19.200001" ry="5.6"/><ellipse cx="856.40002" cy="1023.2" fill="url(#a5)" rx="5.6" ry="19.200001"/><circle cx="1023.5" cy="132.7" fill="url(#a6)" opacity=".5" r="11.3"/><circle cx="549.29999" cy="130.7" fill="url(#a7)" opacity=".5" r="5.6"/><circle cx="943.29999" cy="56.099998" fill="url(#a8)" opacity=".5" r="5.6"/><circle cx="542.70001" cy="30.200001" fill="url(#a9)" opacity=".5" r="11.3"/><circle cx="863.59998" cy="121.5" fill="url(#ba)" opacity=".5" r="11.3"/><circle cx="384.5" cy="30.200001" fill="url(#bb)" opacity=".5" r="7.1"/><circle cx="415" cy="110.2" fill="url(#bc)" opacity=".5" r="7.1"/><circle cx="294.70001" cy="44.099998" fill="url(#bd)" opacity=".5" r="11.3"/><ellipse cx="1118.3" cy="52.700001" fill="url(#be)" rx="29.700001" ry="8.6"/><ellipse cx="1118.3" cy="52.700001" fill="url(#bf)" rx="8.6" ry="29.700001"/><ellipse cx="712.5" cy="102" fill="url(#bg)" rx="19.200001" ry="5.6"/><ellipse cx="712.5" cy="102" fill="url(#bh)" rx="5.6" ry="19.200001"/><ellipse cx="1069.3" cy="771.59998" fill="url(#bi)" rx="19.200001" ry="5.6"/><ellipse cx="1069.3" cy="771.59998" fill="url(#bj)" rx="5.6" ry="19.200001"/><ellipse cx="1134.7" cy="308.89999" fill="url(#bk)" rx="19.200001" ry="5.6"/><ellipse cx="1134.7" cy="308.89999" fill="url(#bl)" rx="5.6" ry="19.200001"/><ellipse cx="1109.7" cy="197.5" fill="url(#bm)" rx="19.200001" ry="5.6"/><ellipse cx="1109.7" cy="197.5" fill="url(#bn)" rx="5.6" ry="19.200001"/><circle cx="39.599998" cy="774.90002" fill="url(#bo)" opacity=".5" r="11.3"/><circle cx="77.300003" cy="121.6" fill="url(#bp)" opacity=".5" r="5.6"/><circle cx="127.2" cy="33.400002" fill="url(#bq)" opacity=".5" r="5.6"/><circle cx="98.5" cy="861.90002" fill="url(#br)" opacity=".5" r="7.1"/><circle cx="88.5" cy="691.79999" fill="url(#bs)" opacity=".5" r="11.3"/><ellipse cx="90.900002" cy="240.10001" fill="url(#bt)" rx="19.200001" ry="5.6"/><ellipse cx="90.900002" cy="240.10001" fill="url(#bu)" rx="5.6" ry="19.200001"/><circle cx="47" cy="996.40002" fill="url(#bv)" opacity=".5" r="11.3"/><circle cx="77.300003" cy="1161.1" fill="url(#bw)" opacity=".5" r="5.6"/><circle cx="127.2" cy="1073" fill="url(#bx)" opacity=".5" r="5.6"/><circle cx="306" cy="534.09998" fill="url(#by)" opacity=".5" r="11.3"/><circle cx="419.60001" cy="1251" fill="url(#bz)" opacity=".5" r="11.3"/><circle cx="874.79999" cy="1239.7" fill="url(#bA)" opacity=".5" r="11.3"/><circle cx="714.70001" cy="1278.6" fill="url(#bB)" opacity=".5" r="11.3"/><circle cx="751.5" cy="1368" fill="url(#bC)" opacity=".5" r="5.6"/><circle cx="498.60001" cy="1358.3" fill="url(#bD)" opacity=".5" r="11.3"/><circle cx="538" cy="1256.1" fill="url(#bE)" opacity=".5" r="11.3"/><circle cx="404.29999" cy="1334.1" fill="url(#bF)" opacity=".5" r="7.1"/><circle cx="169.10001" cy="1319.4" fill="url(#bG)" opacity=".5" r="11.3"/><circle cx="982" cy="1248.6" fill="url(#bH)" opacity=".5" r="11.3"/><ellipse cx="847.79999" cy="1373.6" fill="url(#bI)" rx="29.700001" ry="8.6"/><ellipse cx="847.79999" cy="1373.6" fill="url(#bJ)" rx="8.6" ry="29.700001"/><ellipse cx="321.79999" cy="1188.5" fill="url(#bK)" rx="19.200001" ry="5.6"/><ellipse cx="321.79999" cy="1188.5" fill="url(#bL)" rx="5.6" ry="19.200001"/><ellipse cx="649.79999" cy="1377" fill="url(#bM)" rx="19.200001" ry="5.6"/><ellipse cx="649.79999" cy="1377" fill="url(#bN)" rx="5.6" ry="19.200001"/><circle cx="1345.1" cy="345" fill="url(#bO)" opacity=".5" r="11.3"/><circle cx="1272.8" cy="199.5" fill="url(#bP)" opacity=".5" r="11.3"/><circle cx="1333.8" cy="932" fill="url(#bQ)" opacity=".5" r="5.6"/><circle cx="1363.7" cy="801.40002" fill="url(#bR)" opacity=".5" r="5.6"/><circle cx="1248.6" cy="839.90002" fill="url(#bS)" opacity=".5" r="11.3"/><circle cx="1262.2" cy="1069.7" fill="url(#bT)" opacity=".5" r="11.3"/><circle cx="1218.2" cy="547" fill="url(#bU)" opacity=".5" r="11.3"/><circle cx="1200.4" cy="686.29999" fill="url(#bV)" opacity=".5" r="11.3"/><circle cx="1257.5" cy="444.89999" fill="url(#bW)" opacity=".5" r="11.3"/><circle cx="1279.9" cy="660.29999" fill="url(#bX)" opacity=".5" r="7.1"/><circle cx="1303.6" cy="788.59998" fill="url(#bY)" opacity=".5" r="7.1"/><circle cx="1350.9" cy="709" fill="url(#bZ)" opacity=".5" r="7.1"/><ellipse cx="1267.8" cy="996.29999" fill="url(#b0)" rx="19.200001" ry="5.6"/><ellipse cx="1267.8" cy="996.29999" fill="url(#b1)" rx="5.6" ry="19.200001"/><ellipse cx="1369.3" cy="565.70001" fill="url(#b2)" rx="19.200001" ry="5.6"/><ellipse cx="1369.3" cy="565.70001" fill="url(#b3)" rx="5.6" ry="19.200001"/><ellipse cx="1261.5" cy="297" fill="url(#b4)" rx="19.200001" ry="5.6"/><ellipse cx="1261.5" cy="297" fill="url(#b5)" rx="5.6" ry="19.200001"/><circle cx="1268.8" cy="130.7" fill="url(#b6)" opacity=".5" r="5.6"/><circle cx="1262.2" cy="30.200001" fill="url(#b7)" opacity=".5" r="11.3"/><circle cx="30.4" cy="1256" fill="url(#b8)" opacity=".5" r="11.3"/><circle cx="159.10001" cy="1281.1" fill="url(#b9)" opacity=".5" r="5.6"/><circle cx="66" cy="1316.7" fill="url(#ca)" opacity=".5" r="11.3"/><circle cx="41.599998" cy="1397.5" fill="url(#cb)" opacity=".5" r="11.3"/><circle cx="306" cy="1345.4" fill="url(#cc)" opacity=".5" r="11.3"/><g fill="#fff"><circle cx="946.90002" cy="776.5" r="2"/><circle cx="828.79999" cy="869.79999" r="2"/><circle cx="339.10001" cy="1021.2" r="2"/><circle cx="1023.5" cy="1172.2" r="2"/><circle cx="419.60001" cy="439.70001" r="2"/><circle cx="874.79999" cy="428.39999" r="2"/><circle cx="714.70001" cy="467.39999" r="2"/><circle cx="1030.9" cy="354.20001" r="2"/><circle cx="1040.2" cy="684.29999" r="2"/><circle cx="625.59998" cy="345" r="2"/><circle cx="553.20001" cy="199.5" r="2"/><circle cx="751.5" cy="556.70001" r="1"/><circle cx="777.40002" cy="382.79999" r="1"/><circle cx="420.60001" cy="331.5" r="1"/><circle cx="206.5" cy="377.10001" r="1"/><circle cx="614.29999" cy="932" r="1"/><circle cx="726.20001" cy="900.29999" r="1"/><circle cx="308" cy="931" r="1"/><circle cx="818.09998" cy="990.70001" r="1"/><circle cx="695.79999" cy="1015.6" r="1"/><circle cx="549.29999" cy="1170.2" r="1"/><circle cx="644.20001" cy="801.40002" r="1"/><circle cx="993.20001" cy="1007.5" r="1"/><circle cx="943.29999" cy="1095.6" r="1"/><circle cx="911.40002" cy="659.29999" r="1"/><circle cx="529" cy="839.90002" r="2"/><circle cx="542.70001" cy="1069.7" r="2"/><circle cx="863.59998" cy="1161" r="2"/><circle cx="1134.7" cy="889" r="2"/><circle cx="419.60001" cy="933" r="2"/><circle cx="208.5" cy="608.79999" r="2"/><circle cx="498.60001" cy="547" r="2"/><circle cx="480.89999" cy="686.29999" r="2"/><circle cx="538" cy="444.89999" r="2"/><circle cx="341.10001" cy="248" r="2"/><circle cx="560.40002" cy="660.29999" r="1.3"/><circle cx="584.09998" cy="788.59998" r="1.3"/><circle cx="972" cy="267.20001" r="1.3"/><circle cx="360.60001" cy="841.90002" r="1.3"/><circle cx="384.5" cy="1069.7" r="1.3"/><circle cx="415" cy="1149.7" r="1.3"/><circle cx="226.89999" cy="764.59998" r="1.3"/><circle cx="704.79999" cy="240.89999" r="1.3"/><circle cx="404.29999" cy="522.79999" r="1.3"/><circle cx="631.40002" cy="709" r="1.3"/><circle cx="1004.5" cy="623.59998" r="2"/><circle cx="294.70001" cy="1083.7" r="2"/><circle cx="210.5" cy="1163" r="2"/><circle cx="411.5" cy="167" r="2"/><circle cx="165.10001" cy="203.10001" r="2"/><circle cx="872.79999" cy="188.2" r="2"/><circle cx="197.3" cy="858.5" r="2"/><circle cx="1028.9" cy="542.90002" r="2"/><circle cx="1134.7" cy="701.90002" r="2"/><circle cx="982" cy="437.29999" r="2"/><circle cx="707" cy="728.20001" r="2.2"/><circle cx="324" cy="638.5" r="3.4"/><circle cx="195.3" cy="989.70001" r="3.4"/><circle cx="249.5" cy="300.29999" r="3.4"/><circle cx="844.40002" cy="773.20001" r="3.4"/><circle cx="839.20001" cy="270.60001" r="3.4"/><circle cx="847.79999" cy="562.29999" r="3.4"/><circle cx="1143.3" cy="506.20001" r="3.4"/><circle cx="1118.3" cy="1092.3" r="3.4"/><circle cx="321.79999" cy="377.20001" r="2.2"/><circle cx="548.29999" cy="996.29999" r="2.2"/><circle cx="450.10001" cy="795.79999" r="2.2"/><circle cx="649.79999" cy="565.70001" r="2.2"/><circle cx="353.5" cy="747.5" r="2.2"/><circle cx="712.5" cy="1141.6" r="2.2"/><circle cx="979.59998" cy="889" r="2.2"/><circle cx="542" cy="297" r="2.2"/><circle cx="856.40002" cy="1023.2" r="2.2"/><circle cx="1023.5" cy="132.7" r="2"/><circle cx="549.29999" cy="130.7" r="1"/><circle cx="943.29999" cy="56.099998" r="1"/><circle cx="542.70001" cy="30.200001" r="2"/><circle cx="863.59998" cy="121.5" r="2"/><circle cx="384.5" cy="30.200001" r="1.3"/><circle cx="415" cy="110.2" r="1.3"/><circle cx="294.70001" cy="44.099998" r="2"/><circle cx="1118.3" cy="52.700001" r="3.4"/><circle cx="712.5" cy="102" r="2.2"/><circle cx="1069.3" cy="771.59998" r="2.2"/><circle cx="1134.7" cy="308.89999" r="2.2"/><circle cx="1109.7" cy="197.5" r="2.2"/><circle cx="39.599998" cy="774.90002" r="2"/><circle cx="77.300003" cy="121.6" r="1"/><circle cx="127.2" cy="33.400002" r="1"/><circle cx="98.5" cy="861.90002" r="1.3"/><circle cx="88.5" cy="691.79999" r="2"/><circle cx="90.900002" cy="240.10001" r="2.2"/><circle cx="47" cy="996.40002" r="2"/><circle cx="77.300003" cy="1161.1" r="1"/><circle cx="127.2" cy="1073" r="1"/><circle cx="306" cy="534.09998" r="2"/><circle cx="419.60001" cy="1251" r="2"/><circle cx="874.79999" cy="1239.7" r="2"/><circle cx="714.70001" cy="1278.6" r="2"/><circle cx="751.5" cy="1368" r="1"/><circle cx="498.60001" cy="1358.3" r="2"/><circle cx="538" cy="1256.1" r="2"/><circle cx="404.29999" cy="1334.1" r="1.3"/><circle cx="169.10001" cy="1319.4" r="2"/><circle cx="982" cy="1248.6" r="2"/><circle cx="847.79999" cy="1373.6" r="3.4"/><circle cx="321.79999" cy="1188.5" r="2.2"/><circle cx="649.79999" cy="1377" r="2.2"/><circle cx="1345.1" cy="345" r="2"/><circle cx="1272.8" cy="199.5" r="2"/><circle cx="1333.8" cy="932" r="1"/><circle cx="1363.7" cy="801.40002" r="1"/><circle cx="1248.6" cy="839.90002" r="2"/><circle cx="1262.2" cy="1069.7" r="2"/><circle cx="1218.2" cy="547" r="2"/><circle cx="1200.4" cy="686.29999" r="2"/><circle cx="1257.5" cy="444.89999" r="2"/><circle cx="1279.9" cy="660.29999" r="1.3"/><circle cx="1303.6" cy="788.59998" r="1.3"/><circle cx="1350.9" cy="709" r="1.3"/><circle cx="1267.8" cy="996.29999" r="2.2"/><circle cx="1369.3" cy="565.70001" r="2.2"/><circle cx="1261.5" cy="297" r="2.2"/><circle cx="1268.8" cy="130.7" r="1"/><circle cx="1262.2" cy="30.200001" r="2"/><circle cx="30.4" cy="1256" r="2"/><circle cx="159.10001" cy="1281.1" r="1"/><circle cx="66" cy="1316.7" r="2"/><circle cx="41.599998" cy="1397.5" r="2"/><circle cx="306" cy="1345.4" r="2"/></g></g><g><g id="ce" transform="matrix(.26458334 0 0 .26458334 185.24422 -25.117479)"><use stroke-width="6.66667" transform="matrix(.63183642 .3062704 -.3062704 .63183642 122.56212 94.902713)" xlink:href="#ch"/><use stroke-width="6.66667" transform="matrix(.80467885 .87825159 -.87825159 .80467885 235.308 -57.21934)" xlink:href="#ch"/><use stroke-width="6.66667" transform="matrix(.64511398 .08385277 -.08385277 .64511398 81.4385 93.390199)" xlink:href="#ch"/><use stroke-width="6.66667" transform="matrix(1.0359187 -.13409107 .13409107 1.0359187 34.837282 -31.431295)" xlink:href="#ch"/><use stroke-width="6.66667" transform="matrix(.70940974 .2487586 -.2487586 .70940974 169.01847 15.720439)" xlink:href="#ch"/><use stroke-width="6.66667" transform="matrix(.6052542 -.8789638 .8789638 .6052542 -110.91902 215.64352)" xlink:href="#ch"/><use stroke-width="6.66667" transform="matrix(.52129758 .64304497 -.64304497 .52129758 314.27729 67.401262)" xlink:href="#ch"/><use stroke-width="6.66667" transform="matrix(.66892479 .76772319 -.76772319 .66892479 268.3251 -42.31516)" xlink:href="#ch"/><use stroke-width="6.66667" transform="matrix(.89891197 .09610842 -.09610842 .89891197 67.170053 10.080985)" xlink:href="#ch"/><use stroke-width="6.66667" transform="matrix(-.03982642 .82906741 -.82906741 -.03982642 359.17426 143.90279)" xlink:href="#ch"/><use stroke-width="6.66667" transform="matrix(-.19798435 1.0973589 -1.0973589 -.19798435 509.08539 111.9081)" xlink:href="#ch"/><use stroke-width="6.66667" transform="matrix(.70940974 .2487586 -.2487586 .70940974 169.01847 15.720439)" xlink:href="#ch"/><use stroke-width="6.66667" transform="matrix(1.0359187 -.13409107 .13409107 1.0359187 34.837282 -31.431295)" xlink:href="#ch"/><use stroke-width="6.66667" transform="matrix(.64511398 .08385277 -.08385277 .64511398 81.4385 93.390199)" xlink:href="#ch"/><use stroke-width="6.66667" transform="matrix(.80467885 .87825159 -.87825159 .80467885 305.48809 -20.334083)" xlink:href="#ch"/><use stroke-width="6.66667" transform="matrix(.63183642 .3062704 -.3062704 .63183642 122.56212 94.902713)" xlink:href="#ch"/><use transform="matrix(1.0726085 -.09693683 .09693683 1.0726085 19.188395 97.797809)" xlink:href="#cf"/><use transform="matrix(1.1398029 -.07002106 .07002106 1.1398029 45.132653 31.344107)" xlink:href="#cf"/><use transform="matrix(.75398849 .69932087 -.69932087 .75398849 145.93655 55.7045)" xlink:href="#cf"/><use transform="matrix(.35581302 1.0403253 -1.0403253 .35581302 385.56131 8.32565)" xlink:href="#cf"/><use transform="matrix(.37568562 1.083644 -1.083644 .37568562 404.35402 -11.318003)" xlink:href="#cf"/><use transform="matrix(-.34097047 .82887276 -.82887276 -.34097047 364.41552 102.03154)" xlink:href="#cf"/><use transform="matrix(.8813638 -.22645781 .22645781 .8813638 52.246653 185.44678)" xlink:href="#cf"/><use transform="matrix(1.1537377 -.13051967 .13051967 1.1537377 -16.443698 67.209453)" xlink:href="#cf"/><use transform="matrix(.97037256 .14757001 -.14757001 .97037256 98.392933 97.270859)" xlink:href="#cf"/><use transform="matrix(1.0769786 .57520618 -.57520618 1.0769786 146.8527 -13.151948)" xlink:href="#cf"/><use transform="matrix(.46116071 .72130784 -.72130784 .46116071 207.69267 -30.280957)" xlink:href="#cf"/><use transform="matrix(-.23297057 1.0922217 -1.0922217 -.23297057 365.66378 134.06962)" xlink:href="#cf"/><use transform="matrix(.90895066 .22701876 -.22701876 .90895066 89.549028 -36.171432)" xlink:href="#cf"/><use transform="matrix(.84094914 -.70034233 .70034233 .84094914 -73.700956 175.38073)" xlink:href="#cf"/><use transform="matrix(.68451351 -.34988881 .34988881 .68451351 59.133127 187.27324)" xlink:href="#cf"/><use transform="matrix(.2390399 1.1870186 -1.1870186 .2390399 407.8816 50.800767)" xlink:href="#cf"/><use transform="matrix(.09567797 .97295505 -.97295505 .09567797 415.1735 19.270028)" xlink:href="#cf"/><use transform="matrix(.822663 .56668248 -.56668248 .822663 114.51616 51.474116)" xlink:href="#cf"/><use transform="matrix(.27810607 -.71590522 .71590522 .27810607 110.41552 271.71788)" xlink:href="#cf"/><use transform="matrix(.63711936 -.96094576 .96094576 .63711936 -19.727824 341.89745)" xlink:href="#cf"/><use transform="matrix(.60260243 .52173729 -.52173729 .60260243 230.38234 -14.914624)" xlink:href="#cf"/><use transform="matrix(.74798728 -.29954199 .29954199 .74798728 -34.030124 227.97907)" xlink:href="#cf"/><use transform="matrix(.79337189 .69275606 -.69275606 .79337189 203.88969 -53.389494)" xlink:href="#cf"/><use transform="matrix(.75125932 .49120819 -.49120819 .75125932 163.91903 -9.265784)" xlink:href="#cf"/><use transform="matrix(.74288053 -.1257304 .1257304 .74288053 91.18597 63.388248)" xlink:href="#cf"/><use transform="matrix(.92046885 -.24999446 .24999446 .92046885 -41.738996 111.1813)" xlink:href="#cf"/><use transform="matrix(1.0331395 .21853658 -.21853658 1.0331395 137.53439 13.354963)" xlink:href="#cf"/><use transform="matrix(.81335932 .40086123 -.40086123 .81335932 123.41992 22.486207)" xlink:href="#cf"/><use transform="matrix(.8928858 -.13139133 .13139133 .8928858 -28.457032 78.833386)" xlink:href="#cf"/><use transform="matrix(.6430204 1.0880826 -1.0880826 .6430204 345.40535 -123.5235)" xlink:href="#cf"/><use transform="matrix(.42911778 -.77517589 .77517589 .42911778 -34.206364 348.4627)" xlink:href="#cf"/><use transform="matrix(1.036648 -.46795009 .46795009 1.036648 -39.082759 98.721253)" xlink:href="#cf"/><use transform="matrix(1.0597242 -.10828315 .10828315 1.0597242 -5.589274 85.420655)" xlink:href="#cf"/><use transform="matrix(1.071496 .62369016 -.62369016 1.071496 125.90439 -84.658456)" xlink:href="#cf"/><use transform="matrix(1.0626803 -.38862343 .38862343 1.0626803 -59.124091 182.4561)" xlink:href="#cf"/><use transform="matrix(.93204383 -.06263692 .06263692 .93204383 45.776704 125.64728)" xlink:href="#cf"/><use transform="matrix(.86984132 .26926257 -.26926257 .86984132 48.670467 6.331128)" xlink:href="#cg"/><use transform="matrix(1.0565013 -.12917936 .12917936 1.0565013 14.133386 1.988161)" xlink:href="#cg"/><use transform="matrix(.73127847 .92681619 -.92681619 .73127847 257.4843 -133.22336)" xlink:href="#cg"/><use transform="matrix(1.0372951 .59739712 -.59739712 1.0372951 104.72479 -134.79373)" xlink:href="#cg"/><use transform="matrix(.64164714 .66947468 -.66947468 .64164714 309.07069 11.796496)" xlink:href="#cg"/><use transform="matrix(.80271726 .30475218 -.30475218 .80271726 196.83507 -29.435801)" xlink:href="#cg"/><use transform="matrix(.77079818 -.04453588 .04453588 .77079818 16.729368 132.72971)" xlink:href="#cg"/><use transform="matrix(1.0588864 .25451014 -.25451014 1.0588864 53.762579 -105.98606)" xlink:href="#cg"/><use transform="matrix(1.2046699 .21572882 -.21572882 1.2046699 81.51307 -20.407165)" xlink:href="#cg"/><use transform="matrix(.71819251 .33044349 -.33044349 .71819251 204.65651 44.399173)" xlink:href="#cg"/><use transform="matrix(.81349646 .27802176 -.27802176 .81349646 152.72407 -4.405478)" xlink:href="#cg"/><use transform="matrix(.96114289 -.7376223 .7376223 .96114289 -159.46537 143.36264)" xlink:href="#cg"/><use transform="matrix(.72426898 .4115846 -.4115846 .72426898 228.21575 -24.390829)" xlink:href="#cg"/><use transform="matrix(.19786266 .84162916 -.84162916 .19786266 284.62113 107.77045)" xlink:href="#cg"/><use transform="matrix(.6732692 .57304794 -.57304794 .6732692 148.13212 26.619935)" xlink:href="#cg"/><use transform="matrix(.89499916 -.5174593 .5174593 .89499916 -60.550115 169.98819)" xlink:href="#cg"/><use transform="matrix(.96230881 .43967104 -.43967104 .96230881 59.676626 -60.836512)" xlink:href="#cg"/><use transform="matrix(.83569581 .75049132 -.75049132 .83569581 212.21236 -89.752144)" xlink:href="#cg"/><use transform="matrix(.99378944 -.29259583 .29259583 .99378944 33.332193 49.437891)" xlink:href="#cg"/><use transform="matrix(.35223681 .77293927 -.77293927 .35223681 264.27828 51.413669)" xlink:href="#cg"/><use transform="matrix(.67641922 -.84285212 .84285212 .67641922 -86.292381 176.64581)" xlink:href="#cg"/><use transform="matrix(.61671017 -.84509915 .84509915 .61671017 -27.113239 185.55199)" xlink:href="#cg"/><use transform="matrix(.61141119 -.5759759 .5759759 .61141119 -51.675936 181.8116)" xlink:href="#cg"/><use transform="matrix(.86525061 .52841398 -.52841398 .86525061 151.43802 -37.164444)" xlink:href="#cg"/><use transform="matrix(1.0497791 .23632286 -.23632286 1.0497791 17.650584 -67.728959)" xlink:href="#cg"/><path id="cf" d="m172.56492 168.24693c-.82624.89866-1.11593 1.0902-2.71992 1.08336 1.50858.65804.64869 1.75612.35417 2.45378.77979-.80365 1.52578-1.72341 2.96792-.52371-1.45573-1.28913-.92006-1.99553-.60217-3.01343z" fill="url(#g)"/><path id="cg" d="m180.48319 214.76172-.17586-1.21672.90262-.83459-1.2115-.20878-.51485-1.11629-.57288 1.08767-1.22076.1447.85739.88094-.23963 1.20577 1.10279-.54325 1.07269.60057z" fill="url(#f)"/><path id="ch" d="m165.3419 214.85736-1.21662 2.46528-2.72056.39526 1.96858 1.91894-.4647 2.70954 2.4333-1.27928 2.43332 1.27928-.46472-2.70954 1.96859-1.91891-2.72049-.39528-1.2167-2.46526z" fill="url(#e)"/></g><path d="m500 .000001h150v150h-150z" fill="url(#h)" transform="scale(.26458334)"/><path d="m65.925694 3.3474711c-3.579242.012856-7.006971 2.1960369-9.753926 4.4906821-4.635544 3.8722548-6.924744 9.8983848-10.386964 14.8476728-3.462243 4.949323-10.386446 14.84819-10.386446 14.84819l7.376294 3.492293-26.969931 31.591355c4.301696 3.973368 8.814549 6.842508 13.949537 8.390702 3.626268 1.090447 7.091467 1.98311 11.075293 2.527494l-9.952364 41.31324s4.099699 1.12557 6.180501 1.55339c3.414116.70195 6.861388 1.26357 10.324435 1.65882 3.667692.41862 7.359567.62694 11.048938.75241 5.118515.17406 10.245923.17405 15.364437 0 3.689544-.12547 7.381589-.33381 11.049455-.75241 3.463368-.39526 6.91051-.95687 10.324952-1.65882 2.080994-.42782 6.181535-1.55339 6.181535-1.55339l-10.136333-41.373184c.349934-.03659 7.69941-1.550793 11.517123-2.467033 5.51549-.950597 10.81487-5.024193 13.75472-8.714197l-26.915153-31.527792 6.847644-3.222543-10.414352-14.915369c-3.471446-4.971785-5.748369-11.042559-10.414351-14.915369-2.720212-2.2577974-6.12993-4.3788348-9.665044-4.3661419z" fill="url(#k)" filter="url(#l)"/><path d="m65.925694 3.3474711c-3.579242.012856-7.006971 2.1960369-9.753926 4.4906821-4.635544 3.8722548-6.924744 9.8983848-10.386964 14.8476728-3.462243 4.949323-10.386446 14.84819-10.386446 14.84819l7.376294 3.492293-26.969931 31.591355c4.301696 3.973368 8.814549 6.842508 13.949537 8.390702 3.626268 1.090447 7.091467 1.98311 11.075293 2.527494l-9.952364 41.31324s4.099699 1.12557 6.180501 1.55339c3.414116.70195 6.861388 1.26357 10.324435 1.65882 3.667692.41862 7.359567.62694 11.048938.75241 5.118515.17406 10.245923.17405 15.364437 0 3.689544-.12547 7.381589-.33381 11.049455-.75241 3.463368-.39526 6.91051-.95687 10.324952-1.65882 2.080994-.42782 6.181535-1.55339 6.181535-1.55339l-10.136333-41.373184c.349934-.03659 7.69941-1.550793 11.517123-2.467033 5.51549-.950597 10.81487-5.024193 13.75472-8.714197l-26.915153-31.527792 6.847644-3.222543-10.414352-14.915369c-3.471446-4.971785-5.748369-11.042559-10.414351-14.915369-2.720212-2.2577974-6.12993-4.3788348-9.665044-4.3661419z" fill="#252244"/><path d="m84.742188 39.722656c-3.889938 1.826598-8.2474 3.601817-12.271485 5.591797l-6.638672 3.285156-6.427734-3.203125c-3.950332-1.967868-7.994521-3.601167-11.802735-5.404296a2.1738211 2.1738211 0 0 0 -2.582031.552734l-24.945312 29.21875a2.1738211 2.1738211 0 0 0 .171875 3.003906s.737822.686565 1.697265 1.47461c.959444.788044 2.069297 1.681668 3.326172 2.265624 2.84723 1.322852 6.812363 2.180883 10.201172 2.806641s6.158203.962891 6.158203.962891a2.1738211 2.1738211 0 0 0 2.375-1.640625l6.25-25.53125.08398.03906-16.117188 65.806639a2.1738211 2.1738211 0 0 0 1.517578 2.60938s7.240629 2.07487 11.261719 2.79297c3.796303.67795 7.574161.94795 11.255859 1.24609 2.56588.20779 5.186277.40421 7.857422.4043 2.671364.00008 5.291723-.19661 7.857422-.4043 3.680982-.29797 7.460685-.56604 11.257813-1.24414 4.02194-.71825 11.259765-2.79688 11.259765-2.79688a2.1738211 2.1738211 0 0 0 1.517578-2.60742l-16.169921-65.996092.0918-.04297 6.31836 25.783203a2.1738211 2.1738211 0 0 0 2.332031 1.644532s3.043119-.310542 6.744141-.964844c3.701024-.654302 8.017714-1.574081 11.089844-3.171875 1.16989-.608455 2.01323-1.458151 2.76172-2.205078s1.3125-1.400391 1.3125-1.400391a2.1738211 2.1738211 0 0 0 .008-2.833984l-25.17597-29.486325a2.1738211 2.1738211 0 0 0 -2.576171-.554688z" fill="url(#j)" transform="translate(0 1.098513)"/><path d="m66.041016 4.1894531c-3.131414-.0147897-5.676816 1.4630823-8.240235 3.6230469a2.3407125 2.3407125 0 0 0 -.412109.4511719l-17.50586 25.1308591a2.3407125 2.3407125 0 0 0 .917969 3.453125l18.4375 8.726563 5.53711 2.804687a2.3407125 2.3407125 0 0 0 2.107421.0039l5.75-2.886718 18.371094-8.648438a2.3407125 2.3407125 0 0 0 .923828-3.455078l-17.550781-25.189447a2.3407125 2.3407125 0 0 0 -.287109-.3398438c-2.542808-2.4740837-5.188931-3.660321-8.048828-3.6738281z" fill="url(#j)" transform="translate(0 1.098513)"/><path d="m84.421875 39.039062c-3.864728 1.814761-8.228289 3.592453-12.287109 5.59961l-6.302735 3.117187-6.089843-3.035156c-3.985924-1.985598-8.034974-3.619706-11.816407-5.410156a2.9287196 2.9287196 0 0 0 -3.480469.744141l-24.945312 29.21875a2.9287196 2.9287196 0 0 0 .232422 4.046874s.753638.70193 1.732422 1.50586c.978783.80393 2.086068 1.716613 3.486328 2.367187 2.990422 1.38938 6.969426 2.232985 10.382812 2.863282 3.413387.630296 6.205078.96875 6.205078.96875a2.9287196 2.9287196 0 0 0 1.4375-.994141l-9.488281 38.74023a2.9287196 2.9287196 0 0 0 2.042969 3.51368s7.215817 2.07476 11.335938 2.81054c3.847886.68717 7.650483.95805 11.328124 1.25586 2.569393.20808 5.209662.40617 7.917969.40625 2.708605.00009 5.34882-.19827 7.917969-.40625 3.676673-.29761 7.481081-.56654 11.330078-1.2539 4.121267-.73599 11.333985-2.8125 11.333984-2.8125a2.9287196 2.9287196 0 0 0 2.042969-3.51368l-9.470703-38.658199a2.9287196 2.9287196 0 0 0 1.386719.978516s3.068309-.313139 6.798828-.972656c3.730515-.659517 8.065855-1.560583 11.306645-3.246094 1.33863-.696217 2.17756-1.573701 2.94726-2.341797s1.34961-1.439453 1.34961-1.439453a2.9287196 2.9287196 0 0 0 .0117-3.818359l-25.175762-29.486329a2.9287196 2.9287196 0 0 0 -3.470703-.748047z" fill="url(#a)" opacity=".95"/><path d="m66.041016 4.1894531c-3.131414-.0147897-5.676816 1.4630823-8.240235 3.6230469a2.3407125 2.3407125 0 0 0 -.412109.4511719l-17.50586 25.1308591a2.3407125 2.3407125 0 0 0 .917969 3.453125l18.4375 8.726563 5.53711 2.804687a2.3407125 2.3407125 0 0 0 2.107421.0039l5.75-2.886718 18.371094-8.648438a2.3407125 2.3407125 0 0 0 .923828-3.455078l-17.550781-25.189447a2.3407125 2.3407125 0 0 0 -.287109-.3398438c-2.542808-2.4740837-5.188931-3.660321-8.048828-3.6738281z" fill="url(#b)" opacity=".95"/><use stroke-width="1.40439" transform="matrix(.84001432 0 0 .84001432 -91.303302 -135.63147)" xlink:href="#ch"/><use stroke-width="1.3592" transform="matrix(.81721893 .29237306 -.29237306 .81721893 -1.259399 -172.85845)" xlink:href="#ch"/><use stroke-width="1.33688" transform="matrix(.84001329 -.27031697 .27031697 .84001329 -112.49322 -91.137592)" xlink:href="#ch"/><use stroke-width="1.39716" transform="matrix(.84397815 -.02543539 .02543539 .84397815 -67.201516 -128.81516)" xlink:href="#ch"/><use stroke-width="1.53534" transform="matrix(.76441332 .07786488 -.07786488 .76441332 -54.399257 -127.55983)" xlink:href="#ch"/><use stroke-width="1.39716" transform="matrix(.82454372 -.18186194 .18186194 .82454372 -113.49797 -96.28072)" xlink:href="#ch"/><path d="m77.864487 41.505017 3.368683-3.051107c.639399-.57931.831242-1.505368.474609-2.291016-2.682332-5.917949-4.157334-10.400791-6.138672-13.753906-1.981337-3.353115-5.704226-5.5476-9.330078-5.59375-3.662238-.04661-7.482916 2.06311-9.564453 5.408203s-3.681779 7.870233-6.578125 13.900391c-.380351.792216-.194402 1.74024.457031 2.330078l3.332284 3.051107 12.013419 8.224012zm-19.244599 81.050453c-3.636966-.31735-7.292214-.55869-10.886718-1.19726-3.69509-.65644-7.308579-1.71618-10.930491-2.69922-.615049-.16693-1.833181-.54297-1.833181-.54297l-1.085938 3.81836c10.548488 3.51597 21.203786 5.16624 32.013674 5.17773 10.953874.0116 21.24919-1.99352 32.451172-5.17773l-1.08594-3.81836s-1.218311.37603-1.833441.54297c-3.62185.98295-7.235284 2.04246-10.93023 2.69922-3.594516.63891-7.249097.88863-10.886719 1.19921-2.567009.21917-5.138498.47338-7.714842.46835-2.430838-.005-4.855705-.259-7.277346-.4703zm7.574221-101.771482c2.328168.03127 4.355367.93065 5.958985 3.644531 1.468513 2.485237 3.011435 6.691276 5.365234 12.033203-3.87394 3.508848-7.747568 7.01804-11.621094 10.527344-3.867933-3.502568-7.736797-7.004107-11.605469-10.505859 2.540086-5.43246 4.209726-9.680564 5.753907-12.16211 1.685998-2.709449 3.784228-3.56886 6.148437-3.537109zm-44.568361 48.685547-2.701172 2.908203s3.972675 3.837532 6.427734 4.99152c5.646207 2.65397 18.271485 4.057308 18.271485 4.057308l.480468-3.939453s-.886868-.06312-1.327836-.117855c-2.193245-.27223-4.386211-.582835-6.547164-1.046208-3.10784-.666414-6.358372-1.074405-9.205078-2.488281-1.506398-.748184-2.704143-2.004345-3.99254-3.08557-.485411-.407358-1.405897-1.279664-1.405897-1.279664zm89.017592.0059c-.43294.500651-.71293.868674-1.1015 1.273764-.96505 1.006072-1.8327 2.179984-3.04694 2.864908-2.98278 1.682514-6.541984 2.066935-9.894544 2.765625-2.341041.487884-4.731281.70337-7.105437.989526-.435965.05255-1.310577.133521-1.310577.133521l.402343 3.949219s12.964425-1.281698 18.695055-4.08274c2.47894-1.211665 6.3616-5.296167 6.3616-5.296167z" fill="url(#i)" filter="url(#cd)" stroke-width=".264583"/><path d="m60.267227 44.571437-8.384533-7.589135c5.87488-12.231432 6.614339-18.26785 14.330695-18.181777 7.584886.08461 8.240361 6.17084 13.684362 18.181777l-8.287487 7.506836-5.714868 5.17655z" fill="#27244d"/><g fill="#252244"><path d="m86.800907 37.521614-2.958476 1.392163-18.009754 8.475609-20.289202-9.60629-29.738754 34.834568c4.3017 3.973372 8.814544 6.842506 13.949537 8.390702 3.626272 1.090448 7.091463 1.983109 11.075293 2.527494l-9.952364 41.31324s4.099923 1.12575 6.180727 1.55357c3.414119.70195 6.861159 1.26343 10.324209 1.65868 3.667696.41862 7.359563.6269 11.048938.75237 5.11852.17407 10.245917.17406 15.364437 0 3.689547-.12547 7.381585-.33377 11.049455-.75237 3.463371-.39526 6.910733-.95674 10.325178-1.65869 2.080996-.42782 6.181309-1.55356 6.181309-1.55356l-10.136333-41.373184c.349934-.03659 7.699403-1.550792 11.517123-2.467033 5.51549-.950598 10.81487-5.024189 13.75472-8.714197zm-39.38073 28.634488c-1.473856 4.511221-5.528158 13.120587-5.528158 13.120587s-10.835788-1.369099-15.705502-3.642155c-1.686596-.787259-4.460193-3.359485-4.460193-3.359485l24.946282-29.219923c3.885327 1.839642 7.914749 3.469423 11.762589 5.386235l7.391797 3.682463 7.606255-3.761528c3.924056-1.940514 8.27032-3.713654 12.232845-5.574337l25.175728 29.48709s-2.06591 2.388025-3.4339 3.099552c-5.17278 2.690507-17.051158 3.902088-17.051158 3.902088s-3.975919-8.620538-5.452689-13.120587c-1.2997-3.960475-2.976338-12.14548-2.976338-12.14548s.02988 8.070539.613179 12.049819c.657826 4.487731 3.23774 13.216248 3.23774 13.216248l10.115238 41.291021s-7.313142 2.07737-11.048939 2.74453c-3.647824.65145-7.356006.92102-11.049455 1.22008-2.55579.20695-5.118064.39696-7.682218.39688-2.564163-.00008-5.126428-.19035-7.682219-.39739-3.693268-.29918-7.401281-.56867-11.048938-1.22008-3.735964-.66718-11.049455-2.74454-11.049455-2.74454l10.112268-41.290501s2.562586-8.664235 3.213129-13.119355c.576425-3.947535.595842-11.953352.595842-11.953352s-1.562167 8.060086-2.83373 11.95212z"/><path d="m65.925694 3.3474711c-3.579246.0128557-7.006968 2.1960346-9.753926 4.4906821-4.635548 3.8722588-6.924741 9.8983798-10.386964 14.8476728-3.462247 4.949328-10.386446 14.84819-10.386446 14.84819l23.036837 10.907345 7.391797 3.682463 7.606255-3.761528 22.986194-10.817945-10.414352-14.915369c-3.47145-4.97179-5.748364-11.042555-10.414351-14.915369-2.720214-2.2577996-6.129927-4.3788348-9.665044-4.3661419zm-5.658569 41.2238419c-6.115221-2.995233-18.463473-8.741069-18.463473-8.741069s5.834786-8.377095 8.752179-12.565642 4.833281-9.294961 8.752179-12.565641c1.891022-1.5782319 4.25799-3.0822471 6.721037-3.0706142 2.366153.011175 4.619009 1.4860395 6.428549 3.0106692 3.913062 3.296954 5.849772 8.396904 8.774658 12.595356s8.774658 12.595355 8.774658 12.595355-12.301554 5.695586-18.39681 8.65942c-1.937972.942344-5.777681 2.90037-5.777681 2.90037s-3.697875-1.903542-5.565296-2.818204z"/></g></g></svg>