<svg height="500" viewBox="0 0 500 500" width="500" xmlns="http://www.w3.org/2000/svg" xmlns:xlink="http://www.w3.org/1999/xlink"><linearGradient id="a" gradientTransform="matrix(391.593 0 0 -391.593 60.7962 7618.49)" gradientUnits="userSpaceOnUse" spreadMethod="pad" x1="0" x2="1" y1="0" y2="0"><stop offset="0" stop-color="#9f571d"/><stop offset=".511236" stop-color="#fde791"/><stop offset="1" stop-color="#b7671e"/></linearGradient><mask id="b" maskUnits="userSpaceOnUse"><path d="m-13.229152-13.229161h158.750002v158.750011h-158.750002z" fill="url(#c)" filter="url(#d)" stroke-width="11.83"/></mask><radialGradient id="c" cx="66.145844" cy="66.145836" gradientTransform="matrix(-1.0000001 .00000145 0 -.99999998 132.2917 132.29157)" gradientUnits="userSpaceOnUse" r="66.145836"><stop offset="0" stop-color="#fff"/><stop offset=".49999994" stop-color="#fff"/><stop offset=".74999988" stop-color="#808080"/><stop offset=".87499994" stop-color="#404040"/><stop offset="1"/></radialGradient><filter id="d" color-interpolation-filters="sRGB" height="1.0135" width="1.0135" x="-.00675" y="-.00675"><feGaussianBlur stdDeviation=".44648439"/></filter><radialGradient id="e" cx="703.05621" cy="255.40021" gradientTransform="matrix(.12107523 -.12107523 .05841622 .05841622 -57.692804 112.54712)" gradientUnits="userSpaceOnUse" r="1011.8609"><stop offset="0" stop-color="#fde791"/><stop offset=".08962709" stop-color="#fde791"/><stop offset="1" stop-color="#fde791" stop-opacity="0"/></radialGradient><radialGradient id="f" cx="703.05621" cy="1070.2185" gradientTransform="matrix(.12107523 -.12107523 .05841622 .05841622 -57.692804 112.54712)" gradientUnits="userSpaceOnUse" r="1011.8609" spreadMethod="pad"><stop offset="0" stop-color="#b7671e"/><stop offset=".08962709" stop-color="#b7671e" stop-opacity=".9"/><stop offset="1" stop-color="#b7671e" stop-opacity="0"/></radialGradient><radialGradient id="g" cx="126.27608" cy="123.13533" gradientTransform="matrix(.43446619 -.43446528 .90042865 .90042865 -99.591428 10.133839)" gradientUnits="userSpaceOnUse" r="136.05388" spreadMethod="pad"><stop offset="0" stop-color="#fde791"/><stop offset=".125" stop-color="#f4d782" stop-opacity=".88"/><stop offset="1" stop-color="#b7671e" stop-opacity="0"/></radialGradient><linearGradient id="h" gradientTransform="matrix(3.7795274 0 0 3.7795274 -341.5064 91.506337)" gradientUnits="userSpaceOnUse" spreadMethod="reflect" x1="203.29849" x2="211.99281" xlink:href="#a" y1="21.399637" y2="13.694487"/><linearGradient id="i" gradientTransform="matrix(3.7795274 0 0 3.7795274 -341.5064 91.506337)" gradientUnits="userSpaceOnUse" spreadMethod="reflect" x1="188.42702" x2="197.41933" xlink:href="#a" y1="34.55682" y2="26.650091"/><linearGradient id="j" gradientTransform="matrix(3.7795274 0 0 3.7795274 -341.5064 91.506337)" gradientUnits="userSpaceOnUse" spreadMethod="reflect" x1="185.45352" x2="194.73195" xlink:href="#a" y1="27.985577" y2="19.944792"/><linearGradient id="k" gradientTransform="matrix(3.7795274 0 0 3.7795274 -341.5064 91.506337)" gradientUnits="userSpaceOnUse" spreadMethod="reflect" x1="285.88071" x2="273.36932" xlink:href="#a" y1="-5.175339" y2="11.944791"/><linearGradient id="l" gradientTransform="matrix(3.7795274 0 0 3.7795274 -341.5064 91.506337)" gradientUnits="userSpaceOnUse" spreadMethod="reflect" x1="244.1409" x2="268.66479" xlink:href="#a" y1="93.08683" y2="42.152271"/><linearGradient id="m" gradientTransform="matrix(3.7795274 0 0 3.7795274 -341.5064 91.506337)" gradientUnits="userSpaceOnUse" spreadMethod="reflect" x1="258.78064" x2="289.04507" xlink:href="#a" y1="71.388855" y2="121.34394"/><linearGradient id="n" gradientTransform="matrix(3.7795274 0 0 3.7795274 -341.5064 91.506337)" gradientUnits="userSpaceOnUse" spreadMethod="reflect" x1="283.33356" x2="325.97882" xlink:href="#a" y1="-2.092017" y2="25.9349"/><linearGradient id="o" gradientTransform="matrix(3.7795274 0 0 3.7795274 -341.5064 91.506337)" gradientUnits="userSpaceOnUse" spreadMethod="reflect" x1="302.65317" x2="338.2124" xlink:href="#a" y1="20.911255" y2="110.83057"/><linearGradient id="p" gradientTransform="matrix(3.7795274 0 0 3.7795274 -341.5064 91.506337)" gradientUnits="userSpaceOnUse" spreadMethod="reflect" x1="284.35269" x2="311.85611" xlink:href="#a" y1="96.824646" y2="21.648859"/><linearGradient id="q" gradientTransform="matrix(3.8977754 0 0 4.1383923 -373.96365 59.101491)" gradientUnits="userSpaceOnUse" spreadMethod="reflect" x1="262.60974" x2="353.06393" xlink:href="#a" y1="-4.684442" y2="109.61131"/><linearGradient id="r" gradientTransform="matrix(3.7795274 0 0 3.7795274 -341.5064 91.506337)" gradientUnits="userSpaceOnUse" spreadMethod="reflect" x1="357.53568" x2="351.5246" xlink:href="#a" y1="1.598191" y2="99.462433"/><linearGradient id="s" gradientTransform="matrix(0 2.1395316 -2.2716088 0 376.41788 -360.42562)" gradientUnits="userSpaceOnUse" spreadMethod="reflect" x1="262.60974" x2="353.06393" xlink:href="#a" y1="-4.684442" y2="109.61131"/><filter id="t" color-interpolation-filters="sRGB" height="1.365596" width="1.3542" x="-.1771" y="-.182798"><feGaussianBlur stdDeviation="23.554976"/></filter><linearGradient id="u" gradientTransform="matrix(3.7795274 0 0 3.7795274 -341.5064 91.506337)" gradientUnits="userSpaceOnUse" spreadMethod="reflect" x1="235.07249" x2="268.66479" xlink:href="#a" y1="2.950012" y2="42.152271"/><path d="m409.60443 285.43499c0-85.54698-72.80955-154.62885-161.80007-154.62885-88.99054 0-157.408796 69.08187-157.408796 154.62885s68.418256 154.62991 157.408796 154.62991c88.99052 0 161.80007-69.08293 161.80007-154.62991z" fill="url(#s)" filter="url(#t)" stroke-linecap="round" stroke-linejoin="round" stroke-width="36"/><g mask="url(#b)" stroke-width=".103712" transform="matrix(0 3.4435903 -3.4435903 0 477.77918 49.245801)"><path d="m30.833409 30.833409c-67.65774 67.657739-96.043753 148.969871-63.396059 181.617561 32.64769465 32.6477 113.959825 4.26168 181.61756-63.39606 67.65774-67.657735 96.04376-148.96986535 63.39606-181.61756-32.64769-32.647694-113.959822-4.261681-181.617561 63.396059z" fill="url(#f)" opacity=".3"/><path d="m125.25659 7.0350914c-67.657737-67.6577404-148.969869-96.0437534-181.617559-63.3960594-32.6477 32.647695-4.26168 113.959825 63.3960601 181.617558 67.6577349 67.65774 148.9698689 96.04376 181.6175589 63.39606 32.6477-32.64769 4.26168-113.95982-63.39606-181.6175586z" fill="url(#g)" opacity=".3"/><path d="m-16.763244-16.763244c-67.65774 67.657739-96.043756 148.969874-63.396059 181.617564 32.647695 32.64769 113.959825 4.26168 181.617563-63.39606 67.65774-67.657738 96.04375-148.969868 63.39606-181.617563-32.64769-32.647697-113.959825-4.261681-181.617564 63.396059z" fill="url(#e)" opacity=".3"/></g><g id="v" stroke-width="1.41321" transform="matrix(2.3230319 1.3251828 -1.3251828 2.3230319 -428.77743 -437.39724)"><g stroke-width="1.41321" transform="matrix(.50895822 -.86079123 -.86079123 -.50895822 48.450284 84.932889)"><use stroke-width="1.41321" transform="translate(-207.5094 118.37456)" xlink:href="#w"/><use stroke-width="1.41321" transform="translate(-155.04215 88.444411)" xlink:href="#w"/><use stroke-width="1.41321" transform="translate(-103.39354 58.981256)" xlink:href="#w"/><use transform="translate(-51.696769 29.490628)" xlink:href="#w"/><g id="w" stroke-width="1.41321" transform="translate(-46.154386 -329.45068)"><path d="m370.7322 174.95879c-5.33456 3.08256-10.26266 7.41151-13.43742 12.69174-1.70569 2.83692-2.49444 6.26694-2.63705 9.57409-.10443 2.42214.70974 4.80628 1.32035 7.15254.32859 1.26261.62145 2.56694 1.25624 3.70674.91157 1.63676 2.24772 3.01497 3.576 4.33617 1.74662 1.73731 3.53018 3.55632 5.7268 4.67156 2.97035 1.50805 6.33894 2.58191 9.6697 2.52387 6.1622-.10738 12.38311-2.20094 17.71674-5.28908 5.37975-3.11484 10.47959-7.42203 13.52373-12.84211 1.5181-2.70301 1.81906-5.99443 1.95853-9.09144.16359-3.63282.077-7.47486-1.32964-10.82828-.84611-2.01708-2.51926-3.60875-4.08604-5.13508-1.77247-1.72669-3.68837-3.41583-5.92781-4.46847-2.81064-1.32112-5.93994-2.26522-9.35939-2.29572-6.45345.18185-12.64994 2.21887-17.97074 5.29347zm13.02919 13.76577 2.22208 3.89021 2.10013 3.67781-6.79492 3.92379-2.19885-3.81062-2.15852-3.73827z" fill="#84542e"/><path d="m361.68001 206.37527s4.31072 4.98926 7.14258 6.53799c2.2106 1.20896 4.78611 1.98305 7.30535 1.94085 5.36646-.0899 10.76644-1.96969 15.41462-4.65323 4.64798-2.68342 9.13819-6.32616 11.73692-11.02201 1.14285-2.06511 1.28585-4.58888 1.36586-6.94778.11044-3.25609-1.23123-9.69604-1.23123-9.69604l-13.34826 7.62497 4.50566 7.88717-15.02693 8.67576-4.58059-7.93626z" fill="url(#i)" stroke-width=".373911"/><path d="m403.41411 182.53505s-4.58333-4.84833-7.50165-6.32546c-2.25943-1.14363-4.85413-1.85232-7.38549-1.78064-5.36488.15191-10.76594 1.97003-15.41396 4.65349-4.64808 2.6835-8.97135 6.42261-11.73745 11.02201-1.27743 2.12407-1.92725 4.69569-1.95527 7.17414-.0353 3.12409 2.25957 9.09643 2.25957 9.09643l13.28413-7.58833-4.538-7.86247 15.09711-8.71632 4.54275 7.95212z" fill="url(#j)" stroke-width=".373911"/></g><use stroke-width="1.41321" transform="translate(-206.69075 117.90756)" xlink:href="#x"/><use stroke-width="1.41321" transform="translate(-155.04214 88.444408)" xlink:href="#x"/><use stroke-width="1.41321" transform="translate(-103.39354 58.981257)" xlink:href="#x"/><use transform="translate(-51.696769 29.490628)" xlink:href="#x"/><g id="x" stroke-width="1.41321" transform="translate(-81.543202 -307.22679)"><path d="m418.72443 163.18619c-.2602 1.08307-.0978 2.39769.42578 3.31445l4.32221 7.56803c.62537 1.09476 1.97926 1.86589 3.24414 2.17188 1.06524.25767 2.10514.28408 3.26607-.37818l36.44351-20.78931c1.07002-.65469 1.66747-1.57083 1.98784-2.61893.38039-1.2445.68667-2.30951-.2184-3.89791l-4.31467-7.57234c-.60397-1.06026-1.57161-1.72615-2.63634-2.05342-1.23563-.37979-3.02376-.22943-3.86977.25318l-36.46288 20.80035c-.90371.51552-1.88553 1.94528-2.18749 3.2022z" fill="#84542e"/><path d="m458.86417 143.76351-35.54476 20.55721c-.8616.42028-.78458.44231-.33867 1.22282l3.43877 6.01914c.43615.90831.46245.8178 1.27938.34601l35.6674-20.59853c.35176-.39318.59418-.83192 0-1.61924l-3.26088-5.65881c-.40944-.87006-.47232-.7133-1.24124-.2686z" fill="url(#h)" stroke-width=".373911"/></g></g></g><g stroke-width="5.38987" transform="translate(0 -54.960048)"><g transform="matrix(.10233217 .15476051 -.15476051 .10233217 172.86269 -7.786354)"><use transform="translate(436.57633 556.32045)" xlink:href="#v"/><use transform="translate(-361.06657 556.32045)" xlink:href="#v"/><use transform="translate(-1158.7095 556.32045)" xlink:href="#v"/></g><g transform="matrix(-.09817589 .15742993 .15742993 .09817589 321.31459 -10.080803)"><use transform="translate(436.57633 556.32045)" xlink:href="#v"/><use transform="translate(-361.06657 556.32045)" xlink:href="#v"/><use transform="translate(-1158.7095 556.32045)" xlink:href="#v"/></g></g><g stroke-width="1.82179" transform="matrix(.54891094 0 0 .54891094 -190.5884 126.57619)"><path d="m802.6582-1.3574219c-155.84856 0-281.70117 132.6436419-281.70117 294.7656219 0 162.12199 125.85261 286.76563 281.70117 286.76563 155.84857 0 281.7031-124.64364 281.7031-286.76563 0-162.12198-125.85453-294.7656219-281.7031-294.7656219z" fill="#84542e" stroke-linecap="round" stroke-linejoin="round" stroke-width="1.82179"/><path d="m1066.3617 294.40805c0 152.85336-118.06367 268.7655-263.70258 268.7655s-263.70258-115.91214-263.70258-268.7655c0-152.85337 118.06367-276.765502 263.70258-276.765502s263.70258 123.912132 263.70258 276.765502z" fill="url(#q)" stroke-linecap="round" stroke-linejoin="round" stroke-width="65.5844"/><path d="m732.19922 67.822266c-32.25217-12.282267-68.46787 22.74616-56.47266 55.447264 1.55033 21.56385 35.032 29.27148 39.9043 34.37695-14.51543 11.07093-18.31282 31.75906-20.99024 43.35547-9.93813 12.26471-20.84307 19.75267-35.58007 7.72266-1.62465-31.58566 17.22483-66.65473-2.91602-95.34766-15.78355-16.682895-58.56462-32.411222-71.16601-5.73242.27989 13.20649 9.15516 17.87006-6.16797 24.08399-9.4256 24.97971 23.70774 44.6109 17.92968 72.49414 6.30288 30.39259 30.03562 58.58579 61.67383 63.50781-39.2188 3.51534-69.14856 37.15081-75.90625 74.67187-8.91035 18.91381-42.59116 32.97969-26.01953 54.65235-28.92637 23.38716 15.12228 43.97848 37.48633 39.05273 17.44679 6.30467 37.77997-36.04288 32.63672-7.65039-1.32432 23.80098 22.24309 37.95391 24.9375 59.46485-2.00827 15.50605-4.59888 42.37505 18.94726 40.17382-1.14033 21.1424 26.11686 23.89708 36.18164 9.02149 8.99946 35.27528 49.13615 17.14863 44.01758-13.82227 4.89445-32.60608-17.29466-60.44898-41.27148-79.55273-9.5533-9.4838-36.92354-29.54378-12.17578-37.06446 20.10636 34.91541 55.15147 65.15717 96.78906 67.61329 17.46506-1.44864 38.18217.43133 55.3125-10.63086 24.8752-12.50792 44.68681-33.59458 58.4707-57.54493 27.14994 17.4964-21.24241 39.35795-31.96484 56.16602-23.52637 22.47224-28.55482 59.95371-14.20703 88.59375 15.16773 21.26708 31.62702-7.48998 38.60156-11.86328 13.78492 18.4342 34.27982.14101 38.34766-11.07813 31.66282-7.20022 1.08318-48.13314 25.72656-63.33398 12.49731-11.16703 13.73048-41.95134 15-46.91992 15.38248 24.22725 49.42368 21.6854 71.71288 9.68554 21.5953-15.16337-12.8491-28.37078 1.3223-41.45507-2.6546-24.80405-27.1073-31.64156-36.3106-63.375-10.7341-29.47616-38.40593-51.53243-69.69138-54.80664 39.10673-6.21121 64.64558-46.41391 63.95508-84.26954 5.7237-20.719 34.4367-48.38733 5.8711-60.86328 17.0273-36.054943-37.05195-32.706988-55.75196-19.33789-28.18593 15.85109-21.48498 51.7185-16.94531 78.0586 4.11965 20.46568-4.53062 42.89412-21.76953 31.14648-7.54017-11.31806-10.87454-18.28433-14.01953-27.95117-4.3369-16.3424-35.34152-32.91484-3.94922-33.39649 16.12565-6.74373 27.49866-23.42866 27.32226-40.99023 1.34419-30.948907-35.96593-55.331359-63.21484-39.892578-17.16997-.771665-42.48049-20.645799-68.43457-16.589844-25.97724-1.698989-49.02004 21.77325-67.22168 14.179688zm202.7793 252.724614c5.26376 1.38224 10.9183 1.25513 14.6914 3.40429 8.7212 21.25426 11.8528 43.07354 16.97656 63.03906-7.44343-11.78594-25.23703-29.14103-38.66992-29.2832 3.28124-11.86 5.63763-24.28211 7.00196-37.16015zm-265.12696.59179c1.37388 12.66761 3.70264 24.89194 6.9336 36.57031-13.93557 1.2411-32.79868 20.4388-38.66211 29.28125 5.12328-19.96427 8.25441-41.78231 16.97461-63.03515 4.93109-3.39669 9.82299-1.6147 14.7539-2.81641z" fill="#84542e" stroke-linecap="round" stroke-linejoin="round" stroke-width="1.82179"/><path d="m811.7235 189.952v266.49c27.463-3.062 52.496-19.53 71.733-45.777 21.4-29.194 35.032-70.275 35.032-115.86 0-27.484-4.96-53.327-13.588-75.92-3.276-2.153-6.64-4.185-10.076-6.1l-9.885 145.218-12.433-155.61c-5.88-2.25-11.9-4.2-18.026-5.848l-9.842 216.133-11.79-220.633c-6.987-1.057-14.042-1.77-21.124-2.092z" fill="url(#o)" stroke-width="1.82179"/><path d="m793.0355 189.952c-5.874.268-11.73.802-17.546 1.575l-11.818 221.15-9.883-217.037c-6.065 1.51-12.037 3.312-17.88 5.404l-12.54 156.96-10.01-147.07c-4.634 2.443-9.142 5.093-13.498 7.958-8.625 22.59-13.586 48.43-13.586 75.914 0 45.584 13.632 86.665 35.03 115.86 19.236 26.244 44.27 42.713 71.73 45.775v-266.489z" fill="url(#p)" stroke-width="1.82179"/><g id="y" fill="url(#r)" stroke-width="1.82179"><path d="m661.9285 385.762c-26.07234 27.1998-21.3094 56.50649 3.231 79.925 6.604 19.126 4.433 31.314 2.834 44.707l19.83-17.422c3.51 14.572 1.746 25.057.39 36.408l21.74-19.102c6.978 8.756 13.45 18.564 18.73 29.776 24.01-71.664-54.898-77.61-62.612-128.137 3.85928-9.77952 11.96995-16.06727 20.51-19.736-2.627-5.58-5.022-11.365-7.188-17.3195-6.552 2.7685-12.427 6.3335-17.465 10.9005z" fill="url(#m)" stroke-width="1.82179"/><path d="m599.2995 349.232c-8.83 18.03-18.94 25.084-29.502 33.394l20.663 1.334c-4.696 11.77-12.1 22.087-25.74 29.102 66.8 23.892 47.66-39.01 75.872-101.184 8.65197-5.93843 16.29523-9.00673 25.252-8.17-.22352-6.40719-.19375-12.78203.036-18.742-40.25669 2.91178-59.36561 30.3102-66.581 64.266z" fill="url(#l)" stroke-width="1.82179"/><path d="m616.0055 146.482-23.31-4.662c7.966 10.65 15.832 19.993 19.737 39.29-1.01359 30.24235 17.84308 61.77163 46.481 68.487 3.516.76 7.097 1.144 10.732 1.225 1.177-6.41 2.605-12.685 4.274-18.813-14.61275 1.01627-26.56171-7.28817-32.846-16.97-2.374-64.74 32.304-98.368-38.4555-103.7155 9.9975 12.4425 13.0835 24.0125 13.3875 35.1585z" fill="url(#u)" stroke-width="1.82179"/><path d="m691.7005 110.126c0 14.76 11.766 26.526 26.527 26.526 3.988 0 7.755-.866 11.133-2.41-5.984-7.712-9.633-16.728-9.633-26.602 0-8.255 2.546-15.913 6.875-22.71-2.628-.86-5.44-1.33-8.375-1.3305-14.76-.0005-26.527 11.7665-26.527 26.5265z" fill="url(#k)" stroke-width="1.82179"/></g><g stroke-width="1.82179"><path d="m802.3755 71.946c-21.58407.707414-61.4502 10.790654-62.06 35.694 3.36304 17.51708 16.78302 25.80637 31.28 30.793-9.496 3.654-18.545 8.9765-26.98175 15.78875-12.85903 11.17058-22.29496 22.14527-30.39425 35.30725 27.327-12.653 57.74-18.988 88.16-18.988s60.834 6.335 88.16 18.987c-8.20579-13.24966-19.34529-26.29033-30.39025-35.30838-8.4365-6.81237-17.48525-12.13462-26.98075-15.78762 13.72441-4.53753 30.92916-16.99892 31.267-30.792-4.41397-27.113868-41.09828-35.485423-62.06-35.694z" fill="url(#n)"/><use transform="matrix(-1 0 0 1 1604.7701 -.0005)" xlink:href="#y"/></g></g></svg>