<svg height="500" viewBox="0 0 500 500" width="500" xmlns="http://www.w3.org/2000/svg" xmlns:xlink="http://www.w3.org/1999/xlink"><linearGradient id="a" gradientTransform="matrix(391.593 0 0 -391.593 60.7962 7618.49)" gradientUnits="userSpaceOnUse" spreadMethod="pad" x1="0" x2="1" y1="0" y2="0"><stop offset="0" stop-color="#9f571d"/><stop offset=".511236" stop-color="#fde791"/><stop offset="1" stop-color="#b7671e"/></linearGradient><linearGradient id="b" gradientTransform="matrix(4.9866252 0 0 5.290379 198.56463 -74.873081)" gradientUnits="userSpaceOnUse" spreadMethod="repeat" x1="160.71698" x2="260.9852" y1="14.152691" y2="108.66388"><stop offset="0" stop-color="#f3f3f1"/><stop offset=".03125" stop-color="#eef3f4"/><stop offset=".0625" stop-color="#ebf5f7"/><stop offset=".09375" stop-color="#eef3f4"/><stop offset=".15625" stop-color="#e4ebee"/><stop offset=".1875" stop-color="#dce8ef"/><stop offset=".21875" stop-color="#e4ebee"/><stop offset=".28125" stop-color="#e1e4ef"/><stop offset=".3125" stop-color="#dbe0f0"/><stop offset=".34375" stop-color="#e1e4ef"/><stop offset=".40625" stop-color="#d8e3eb"/><stop offset=".4375" stop-color="#dbe7f1"/><stop offset=".46875" stop-color="#d8e3eb"/><stop offset=".53125" stop-color="#f4eaea"/><stop offset=".5625" stop-color="#f8e8e8"/><stop offset=".59375" stop-color="#f4eaea"/><stop offset=".65625" stop-color="#eee4e7"/><stop offset=".71426684" stop-color="#eedde2"/><stop offset=".76595175" stop-color="#eee4e7"/><stop offset=".8775022" stop-color="#f3f3f1"/><stop offset=".9375" stop-color="#f3f1f1"/><stop offset="1" stop-color="#f3f3f1"/></linearGradient><linearGradient id="c" gradientTransform="matrix(4.9866252 0 0 5.290379 198.56072 -74.873081)" gradientUnits="userSpaceOnUse" spreadMethod="repeat" x1="-13.326164" x2="38.923164" xlink:href="#b" y1="41.785194" y2="61.108356"/><linearGradient id="d" gradientTransform="matrix(3.7795274 0 0 3.7795274 -660.55 -934.75198)" gradientUnits="userSpaceOnUse" spreadMethod="reflect" x1="193.34563" x2="272.89658" xlink:href="#a" y1="261.87189" y2="337.4068"/><linearGradient id="e" gradientTransform="matrix(3.7795274 0 0 3.7795274 -660.55 -934.75198)" gradientUnits="userSpaceOnUse" spreadMethod="reflect" x1="267.01291" x2="215.60883" xlink:href="#a" y1="278.79608" y2="330.20016"/><linearGradient id="f" gradientTransform="matrix(4.9866252 0 0 5.290379 -304.4178 -74.873081)" gradientUnits="userSpaceOnUse" spreadMethod="repeat" x1="-13.326164" x2="38.923164" xlink:href="#b" y1="41.785194" y2="61.108356"/><filter id="g" color-interpolation-filters="sRGB" height="1.039425" width="1.017251" x="-.008625" y="-.019713"><feGaussianBlur stdDeviation="1.2999805"/></filter><clipPath id="h"><path d="m251.49804 136.9707c-40.75381.41904-74.23494 9.90077-107.66561 27.54359-22.40995 11.89027-44.306164 25.3195-63.625866 41.76132-3.598588 3.06254-9.57375 10.45486-9.57375 10.45486s9.013057 10.17791 14.288797 14.41256c18.243239 14.64322 38.530219 26.78548 59.347149 37.45765 34.56731 18.13913 70.13741 26.46908 107.22342 26.64151 40.09626-.5091 74.19135-9.35049 107.21332-26.64151 20.30722-10.70891 39.00312-24.33478 57.36871-38.11045 5.67919-4.25985 16.2793-13.73242 16.2793-13.73242s-8.08152-7.20091-12.37899-10.4822c-19.54893-14.92641-39.22352-30.01388-60.83268-41.76132-34.33004-18.71539-70.59277-27.33962-107.6438-27.54359z"/></clipPath><path d="m445.66104 139.29052c2.31993-35.00578 2.13388-68.552963 2.13388-105.226067-35.36083 5.535147-69.40579 9.859246-104.32471 12.633532-30.89544 2.454623-61.91828 3.531259-92.91108 3.537371-31.22111.0062-62.47266-1.069168-93.59691-3.526512-35.06253-2.768282-68.673468-7.187694-104.757142-12.622907-.0068 36.086346-.130653 70.972503 2.265774 106.349203 1.844038 27.22219 4.65011 56.49134 9.308445 81.32267 11.213013 52.30002 25.93544 102.1673 55.732083 144.21787 33.20637 46.86255 77.62839 90.70101 131.04775 111.87198 51.58751-26.10297 96.90156-64.81941 129.81933-111.37244 29.86331-42.23334 46.59077-94.42014 56.00045-144.71741 4.79735-28.41447 7.45286-54.86519 9.28213-82.46729z" fill="#84542e"/><path d="m258.52952 454.20245c95.13878-57.16942 138.47177-129.7064 157.45603-221.30099l3.59964-19.24442c7.98403-47.76771 10.21034-100.4862 10.20992-158.656613-55.87671 8.47493-113.55964 12.839705-171.26474 13.221846l-15.94162.02559c-58.2314-.360818-116.30584-4.798097-172.384285-13.24701 0 58.907827 2.384121 112.370987 10.768207 160.789527l2.665609 14.20663c18.945019 93.5053 62.635409 167.5171 158.950469 225.00299l7.97038 3.15923z" fill="url(#d)"/><g transform="translate(0 5)"><path d="m419.73471 207.75781h-339.278358l-16.677055 9 20.014343 9h332.59288l19.99239-9zm-178.17612-144.516756v386.142776l9 23.46383 9-24.26487v-385.367748l-9-17.978714z" fill="#84542e"/><circle cx="251.49104" cy="216.1071" fill="#84542e" r="137.37891"/><ellipse cx="251.49104" cy="216.1071" fill="url(#e)" rx="119.379" ry="119.37919"/><g clip-path="url(#h)"><path d="m251.49804 136.9707c-40.75381.41904-74.23494 9.90077-107.66561 27.54359-22.40995 11.89027-44.306164 25.3195-63.625866 41.76132-3.598588 3.06254-9.57375 10.45486-9.57375 10.45486s9.013057 10.17791 14.288797 14.41256c18.243239 14.64322 38.530219 26.78548 59.347149 37.45765 34.56731 18.13913 70.13741 26.46908 107.22342 26.64151 40.09626-.5091 74.19135-9.35049 107.21332-26.64151 20.30722-10.70891 39.00312-24.33478 57.36871-38.11045 5.67919-4.25985 16.2793-13.73242 16.2793-13.73242s-8.08152-7.20091-12.37899-10.4822c-19.54893-14.92641-39.22352-30.01388-60.83268-41.76132-34.33004-18.71539-70.59277-27.33962-107.6438-27.54359z" fill="#a7afb4" stroke-width="3.77953"/><path d="m305.78711 270.63281c35.68824-11.45261 67.09358-27.25456 98.68164-53.90039-31.92073-27.02967-62.71266-43.14482-98.38868-54.85742-17.42646-5.72118-36.24827-6.89659-54.58984-6.9043-18.32323-.008-37.12957 1.14349-54.54102 6.85157-35.69924 11.70346-66.14083 27.52754-98.439443 54.88476 31.899403 26.92645 63.003333 42.49582 98.707023 53.95117 17.35189 5.56727 36.04836 6.58764 54.27149 6.58399 18.2332-.004 36.93767-1.03806 54.29883-6.60938z" fill="url(#c)"/><ellipse cx="251.48926" cy="216.08061" fill="#a7afb4" rx="60.962868" ry="61.109955"/><ellipse cx="-251.48926" cy="216.08061" fill="url(#f)" rx="42.440628" ry="42.51223" transform="scale(-1 1)"/><circle cx="251.49316" cy="216.08061" fill="#a7afb4" r="23.918386"/><path d="m251.49804 136.9707c-40.75381.41904-74.23494 9.90077-107.66561 27.54359-22.40995 11.89027-44.306164 25.3195-63.625866 41.76132-3.598588 3.06254-9.57375 10.45486-9.57375 10.45486s9.013057 10.17791 14.288797 14.41256c18.243239 14.64322 38.530219 26.78548 59.347149 37.45765 34.56731 18.13913 70.13741 26.46908 107.22342 26.64151 40.09626-.5091 74.19135-9.35049 107.21332-26.64151 20.30722-10.70891 39.00312-24.33478 57.36871-38.11045 5.67919-4.25985 16.2793-13.73242 16.2793-13.73242s-8.08152-7.20091-12.37899-10.4822c-19.54893-14.92641-39.22352-30.01388-60.83268-41.76132-34.33004-18.71539-70.59277-27.33962-107.6438-27.54359z" fill="url(#c)" filter="url(#g)" opacity=".1"/></g></g><path d="m447.79492 34.064453c-35.36079 5.535142-69.40533 9.858529-104.32422 12.632813-30.89541 2.45462-61.91934 3.53295-92.91211 3.539062-31.22108.0062-62.47148-1.070002-93.5957-3.527344-35.06249-2.768279-68.674174-7.187839-104.757812-12.623046-.0068 36.086309-.130799 70.972942 2.265625 106.349612 1.844036 27.22216 4.650264 56.49096 9.308594 81.32226 11.213002 52.29997 25.935809 102.16822 55.732423 144.21875 33.20634 46.86251 77.62757 90.70015 131.04687 111.8711 51.58746-26.10295 96.90258-64.82007 129.82032-111.37305 29.86328-42.2333 46.59033-94.41958 56-144.7168 4.79734-28.41444 7.45198-54.86472 9.28125-82.46679 2.31992-35.00575 2.13476-68.5535 2.13476-105.226567zm-377.589842 20.935547c56.078392 8.448905 114.151472 12.887229 172.382812 13.248047l15.94336-.02539c57.70504-.382141 115.38702-4.747735 171.26367-13.222657.00042 58.17035-2.22496 110.88859-10.20898 158.65625l-3.59961 19.24609c-18.98424 91.5945-62.31835 164.13142-157.45703 221.30078l-7.97071 3.95704-7.9707-3.16016c-96.31496-57.48583-140.00422-131.4987-158.949218-225.00391l-2.666016-14.20507c-8.384077-48.4185-10.767578-101.88325-10.767578-160.79102z" fill="#84542e"/></svg>