<svg height="500" viewBox="0 0 500 500" width="500" xmlns="http://www.w3.org/2000/svg" xmlns:xlink="http://www.w3.org/1999/xlink"><pattern id="a" patternTransform="matrix(.69538479 0 0 .73783117 22.751526 80.054136)" xlink:href="#e"/><linearGradient id="b" gradientUnits="userSpaceOnUse" x1="100.61472" x2="94.691261" xlink:href="#c" y1="274.70914" y2="285.53046"/><linearGradient id="c"><stop offset="0" stop-color="#ebebe0"/><stop offset=".12685788" stop-color="#807f77"/><stop offset=".53454107" stop-color="#1d2010"/><stop offset=".73190075" stop-color="#4e3a16"/><stop offset="1" stop-color="#7f541c"/></linearGradient><linearGradient id="d" gradientUnits="userSpaceOnUse" x1="71.56443" x2="73.900421" xlink:href="#c" y1="198.18344" y2="228.94232"/><pattern id="e" height="150" patternTransform="translate(873.30211 77.806975)" patternUnits="userSpaceOnUse" width="150"><g transform="translate(.000001 -137.71187)"><path id="f" d="m113.98028 264.01778c-4.63021 8.23234-12.33808 9.67343-12.33808 9.67343 8.44034-3.09853 8.65668-10.07453 8.65668-10.07453-1.24144 6.94978-8.51484 9.60072-8.51484 9.60072 6.42949-3.2797 6.40446-9.29558 6.40446-9.29558-1.10377 5.65888-5.53611 8.31816-6.3681 8.77231.001-.001 5.05991-4.79053 4.90436-12.0085 0 0-.87372 7.72575-5.32989 11.58237 2.58538-5.00389 1.96198-12.05856 1.96198-12.05856-.37964 6.70721-1.83146 10.38682-2.60565 11.90896-2.712332-5.70178-.967282-10.94645-.967282-10.94645-2.6134 4.50684.477982 11.55555.477982 11.55555s-4.724372-3.50916-4.786952-9.87845c0 0-1.11807 5.91098 4.607562 10.30518 0 0-6.669672-3.92933-6.627362-10.98937 0 0-1.05489 6.89912 6.681002 11.48106 0 0-7.317512-2.81901-10.373722-11.75581 0 0 1.45361 8.34319 10.20922 12.31603 0 0-7.17923-2.38096-9.26101-5.70358 0 0 2.65154 4.71007 9.904082 6.20659-1.093632 4.58253-4.251162 7.64589-5.057532 8.36823-.273963.0991-.852713.12525-.948915.20376-.401684.32782-3.001446 2.44828-3.237875 2.65996-.287244.25717-.247316.53824-.34624.88683-.0739.39216.17403.77299.56202.86418.22587.053.46248-.002.64187-.1484l2.46321-2.01324c.37487-.30574.6532-.71339.80279-1.17409.11324-.34746.30038-.6681.55009-.9351 3.32143-3.55386 4.578362-7.05289 5.014622-8.68052 7.31631-.20085 10.78733-4.3936 10.78733-4.3936-2.65095 2.88874-10.14367 3.92575-10.14367 3.92575 9.33134-2.3154 12.27789-10.25511 12.27789-10.25511" fill="url(#b)"/><path id="g" d="m76.747205 196.75986c2.238739-.48925 4.437683-1.43044 5.588847-2.71663.846855-.95427 1.56573-3.03119 1.148663-4.61783.174658 1.70513-.30627 3.30069-1.373767 4.41039-2.157988 2.24329-5.981563 2.82179-8.801468 3.12052 1.473585-.33692 2.976166-.73259 4.110809-1.25403 1.328954-.68403 2.408996-1.52242 3.216484-2.49153.385807-.4919.508064-1.02706.590331-1.57845-.702412 1.82292-2.482967 3.07423-3.947502 3.76874-1.266069.58183-2.640182.97215-3.906123 1.31475.307855-.11972.646606-.2731 1.004668-.46233.48024-.27133 1.000124-.55741 1.432245-.8022.623095-.37171 1.132459-.75602 1.65624-1.16686.97635-.78594 1.629015-1.68062 2.220092-2.67085.721217-1.4046.698316-2.84226.382904-4.21232.286271 3.24746-1.39994 5.58027-3.714124 7.31791.816572-1.02929 1.257757-2.0488 1.201077-3.29866-.15408 1.12253-.727793 2.11746-1.387005 3.01897-.674252.77918-1.633714 1.34512-2.447396 1.81844-.265926.1291-.508679.24221-.726054.34096.455163-.28799.988117-.71281 1.467555-1.27335.727152-.89649 1.205815-1.76811 1.393626-2.82422-.48129.98964-1.035359 1.84159-1.70165 2.60176-.539017.58414-1.095655 1.09875-1.63014 1.51511.556429-.62619 1.060475-1.30317 1.356106-1.9277.456521-1.06066.681868-2.02899.575988-3.09676-.329299 1.83112-.966744 3.3388-2.033612 4.78997-.21299.22609-.375285.48873-.553918.72385-.141095-.26213-.382401-.51569-.55392-.72385-1.177768-1.47926-1.666332-3.04371-2.033612-4.78997-.153666 1.14827.180596 2.12807.576541 3.09676.372406.80385.872809 1.44439 1.279971 1.85984-.852417-.61527-1.407925-1.19114-2.00051-1.92326-.515824-.69347-.876715-1.40558-1.255698-2.12575.150766 1.03782.632199 1.80817 1.182872 2.57374.46438.59904 1.107401 1.1057 1.67886 1.52383-.335489-.14905-.600234-.28317-.894325-.42481-.536265-.28469-1.125494-.65268-1.677206-1.13875-.4369-.36045-.765454-.8005-1.08246-1.21928-.505854-.73886-.736596-1.55955-.907015-2.39553-.04414-.007-.128549.5004.08221 1.27776.231562.81707.632033 1.4067 1.11942 2.0209-1.302149-.91856-2.288624-2.00221-3.059797-3.24683-.719977-1.31253-.73856-2.73301-.654878-4.07108-.261799.61905-.264365 1.34121-.244401 2.04481.144177 1.33374.662028 2.29433 1.341765 3.29853.438915.58074.980783 1.07897 1.505623 1.53983.520875.44008 1.124903.82542 1.656792 1.16686.344268.2069.679709.39006.999703.55282.1451.0899.290201.17379.432543.24938.357509.18923.696812.34261 1.004667.46233-1.405475-.42026-2.806678-.80756-3.906675-1.31475-1.854057-.8806-3.166645-2.05248-3.946949-3.76874-.03258.56974.341735 1.13584.589779 1.57845 1.860685 2.22323 4.372995 3.11621 7.096676 3.70861.07945.0126.156136.0254.230617.0369-.265374-.027-.590986-.052-.884947-.091-1.998559-.26837-4.111222-.66167-5.784153-1.49739-.779712-.3976-1.545806-.8825-2.132368-1.5321-1.15079-1.32744-1.465294-2.79663-1.373767-4.41039-.303019.72531-.251596 1.58474-.07228 2.34643.428435 1.45191 1.28664 2.4448 2.377881 3.27496.447146.3128.929458.58051 1.431693.79392.96265.40904 1.978406.69571 3.000212.91915 1.378973.24917 2.627085.3506 3.832746.3972-.29213.0208-.606935.0326-.867842.0466-1.524267-.0118-3.063504-.0357-4.562109-.31448-1.575365-.29637-2.935687-.94653-4.192463-1.71969-.521189-.35778-1.41128-1.25459-1.44659-1.22645.720769 1.16529 2.054729 1.93529 3.119382 2.48767.782993.35134 1.608013.63036 2.452362.78398 1.497692.27249 3.384755.33048 4.561006.23062-2.91882.35491-5.614925.25038-8.383821-.76964-1.046599-.38786-1.643551-.74261-1.668379-.70454 1.632039 1.17978 3.981321 1.79995 5.875185 1.96189 1.729067.14234 3.300344-.0469 4.403769-.28523-1.879619.46952-3.861707.81503-5.469126.81708-2.55649-.0325-4.870599-.60134-7.146329-1.56907-.02648.0375.672537.52247 1.946441.99585 3.534443 1.09431 6.87769 1.22132 10.41026.0755.505417-.1593.947557-.34376 1.412384-.53516.100411.18538.166617.46068.09379.88826-4.584737 11.81605.506465 27.98509.506465 27.98509 1.091839 3.17455 3.929296 4.94222.994737-3.17621-1.722998-4.76845-2.988074-4.89258-2.988074-12.49794 0-6.11132.994186-10.42516 1.687688-12.44773.262615-.45296.491576-.71337.665917-.86288.540882.26067 1.124906.4645 1.65293.64658 1.280525.42317 3.133726.84136 5.210924.83033 2.550559-.11693 5.044963-.51453 7.145227-1.90176-2.565032 1.00752-5.094549 1.53554-7.643685 1.51066-1.82257-.0785-3.460449-.34232-4.971778-.75864 1.103425.23834 2.674701.42757 4.403769.28523 2.148372-.25192 4.154919-.74295 5.875185-1.96189-3.319354 1.44121-6.583706 1.98447-10.051649 1.47418 1.1757.0999 2.807113.13351 4.560455-.23062.89543-.18427 1.730722-.45406 2.452913-.78398 1.390117-.64075 2.278443-1.48808 3.11883-2.48767-2.764517 2.66606-6.75614 3.36591-10.201162 3.26062-.294614-.006-.559987-.0303-.830602-.0445 1.266994-.0345 2.680306-.19745 3.795505-.39925z" fill="url(#d)"/><use transform="matrix(.6031389 -.31805427 .31805427 .6031389 13.928085 85.612261)" xlink:href="#g"/><use transform="matrix(.75256173 0 0 .75256173 64.222781 12.04804)" xlink:href="#f"/><use stroke-width="1.32879" transform="matrix(.57345322 .48734029 -.48734029 .57345322 177.10196 24.182566)" xlink:href="#f"/><use transform="matrix(-.6031389 -.31805427 -.31805427 .6031389 117.4286 50.149385)" xlink:href="#g"/><use transform="matrix(.72745873 .19275102 -.19275102 .72745873 24.016784 12.437695)" xlink:href="#f"/><use transform="matrix(-.68528044 .31103034 .31103034 .68528044 45.776226 -54.013206)" xlink:href="#f"/><use transform="matrix(.09240613 .29038291 -.29038291 .09240613 176.75415 102.82032)" xlink:href="#g"/><use transform="matrix(-.09240613 -.29038291 .29038291 -.09240613 3.461108 308.7023)" xlink:href="#g"/><use transform="matrix(.09240613 -.29038291 -.29038291 -.09240613 193.79536 315.72554)" xlink:href="#g"/><use transform="matrix(.29038291 -.09240613 .09240613 .29038291 -17.388732 147.52891)" xlink:href="#g"/><use transform="matrix(-.42651802 .12487502 .12487502 .42651802 15.645428 134.46567)" xlink:href="#f"/><use transform="matrix(-.42651802 .12487502 .12487502 .42651802 126.09779 119.06869)" xlink:href="#f"/><use transform="matrix(-.42651802 .12487502 .12487502 .42651802 90.080839 84.905559)" xlink:href="#f"/><use transform="matrix(.42651802 .12487502 -.12487502 .42651802 113.83865 31.93946)" xlink:href="#f"/><use transform="matrix(-.42651802 .12487502 .12487502 .42651802 24.667704 36.706407)" xlink:href="#f"/></g></pattern><g opacity=".25" transform="translate(-492.58472 49.788134)"><path d="m247.66021 415.56487c3.70882-4.92827 7.35829-11.60587 9.91729-19.11216 17.01309-11.76578 29.7312-29.05361 42.91185-45.74672 8.16295-5.4977 15.18924-13.57569 21.20032-19.77925 19.37911-11.40023 34.64247-28.2881 50.80327-43.97945 23.38734-15.08655 45.12242-33.00431 63.90527-53.05217 18.97573-22.79573 24.53318-41.59351 43.39967-69.04895 9.4489-14.97022 13.88202-28.9845 14.45825-46.79137 0-66.397532-121.02444-110.9661015-252.60631-96.245394-93.38888 10.443205-171.177337 47.145157-205.597002 91.735334 18.94371-50.693105 94.111292-96.591131 191.251882-113.54473854-98.88575 7.59599304-219.1114976 49.98267554-221.5308865 121.81471854-.8105197 24.06503 15.1967245 43.27512 39.1676965 59.96854 8.759887 8.99951 11.575408 24.9733 27.036359 41.60186 6.171666 26.59771 12.745323 44.3517 19.482897 58.49892-.285732-.74713 15.431664 40.40296 25.312104 60.60442 3.77854 23.19009 7.1523 45.97535 14.21476 72.44935 7.72566 26.38326 19.43316 53.03577 39.25558 79.52092 11.62862 5.72579 27.57097 8.88404 39.66334 0 6.03836-12.31449 12.15829-31.50236 20.0293-44.77542 7.11493-7.75242 12.88078-19.55199 17.72436-34.11844z" fill="#a4c6ef" opacity=".75" transform="matrix(.99406804 0 0 .99406886 494.06747 -48.305368)"/><path d="m227.3047.00000146c-98.88578 7.59599304-221.5308865 49.94194354-221.5308865 121.81471854 0 66.97068 121.0244765 110.9702 252.6063065 96.24951 93.38793-10.44424 171.97482-47.14519 206.39244-91.73636-45.35781 84.71142-147.86872 109.42258-240.65669 119.55814 115.50807 5.29927 270.14026-33.94424 270.14026-127.83121 0-66.397532-121.02444-110.9661015-252.60631-96.245394-93.38888 10.443205-171.177337 47.145157-205.597002 91.735334 18.94371-50.693105 94.111292-96.591131 191.251882-113.54473854zm57.66448 42.04857354c79.63033-.635913 140.62873 24.35204 140.62873 59.922105 0 4.86712-1.14421 9.70644-3.32054 14.46037-32.74239-20.756752-90.60752-37.558072-153.49825-40.282829-6.28196-.271673-12.61232-.398223-18.97146-.363213-2.11971.0102-4.24149.03908-6.36634.08746-52.96407 1.19054-107.25147 13.81931-149.319577 46.160422 5.167597-37.637312 77.320257-72.469592 165.584767-78.952218 8.58894-.630769 17.0267-.969309 25.26372-1.034136zm-35.02258 52.974373c6.0175-.0381 12.0237.0793 17.99902.33751 59.15244 2.56219 115.09851 19.686612 143.12817 36.794562-6.81192 6.98889-15.83206 13.62175-26.64669 19.69484-25.61151-11.78191-65.30165-19.61252-108.99042-19.69689-3.33804-.006-6.69876.0329-10.07902.11833-45.30221 1.14938-93.82722 11.17893-132.17144 37.1362-16.28163-7.02185-28.27661-15.96373-34.512301-26.30301 39.959771-34.44846 96.032391-47.734772 151.271581-48.080502zm25.43346 56.378272c32.18986.17802 62.59748 5.289 84.5602 12.01342-27.84748 11.10588-62.5666 19.04247-100.23375 21.8084-38.77848 2.84822-74.4195-.2502-102.66629-7.72773 32.13944-17.40222 71.26772-25.04762 108.80526-25.99943 3.18985-.0824 6.36942-.11316 9.53356-.0946zm-203.402191 71.9839c5.307553 4.56355 10.583168 8.83181 15.833045 12.80576.130772.24378.271749.48567.401349.73058l.609146.0227c63.354821 47.55473 123.159611 53.84284 193.516691 53.49713.002 0 .004 0 .008-.002v.002h-.008c-76.13174 21.17255-138.12726 20.08798-190.877334-8.55698 77.098014 100.95095 249.292984 54.09698 344.937444-47.98893-44.27943 23.77682-113.25044 36.90773-190.69001 32.76503-68.16026-3.64672-129.75341-19.97265-173.731351-43.27612zm249.711801 107.54162c-69.90637 34.58842-148.0611 43.76492-204.9168 11.56172 5.04922 17.37136 15.21252 28.9722 29.11521 36.69166 16.0162 8.89353 37.4346 12.19351 60.71025 9.82681 35.2357-3.58598 74.1592-20.25045 103.68812-46.36309 3.74034-3.90399 7.55479-7.81005 11.4053-11.71812zm-64.11217 65.52597c-16.23019 6.08137-32.85554 10.03986-49.03332 11.6863-23.69242 2.40982-46.62138-.15421-65.96644-9.0912 15.56353 15.34843 32.9935 26.09522 49.34004 30.89336 16.13041 4.73745 30.70915 3.87617 42.33463-2.66509 9.66429-5.43719 17.94562-15.04381 23.32509-30.82337zm-126.59024 18.48374c7.72569 26.38326 19.43353 53.03713 39.25595 79.52228 6.26131 2.93276 12.69944 5.12564 19.5784 5.47412 11.52699.27288 15.57116-2.70259 20.08494-5.47412 6.59649-14.07186 13.36936-31.37401 20.0293-44.77542-13.71639 3.80311-28.71908 3.03352-43.43569-1.28825-19.27702-5.65947-38.51811-17.23763-55.51392-33.45861z" fill="#7295bf" opacity=".75" transform="matrix(.99406804 0 0 .99406886 494.06747 -48.305368)"/><path d="m752.23341-5.480215c8.53799-.627028 16.9257-.96356 25.11385-1.028003l-.00099.002c79.15797-.632141 139.79453 24.207605 139.79453 59.566697 0 4.83825-1.13743 9.64887-3.30085 14.3746l-11.13712 15.63071c-6.77151 6.94744-15.73814 13.54096-26.48862 19.578031l-24.34159 11.49619c-27.68229 11.04-62.19545 18.92952-99.63916 21.67905-38.5485 2.83136-83.39698 1.07799-125.76983-15.7217-73.28599-24.019621-98.68182-34.340321-96.55721-55.531441 18.83133-50.392434 93.55303-96.018232 190.11738-112.871286-98.29919 7.55094-220.21677 49.645731-220.21677 121.092216 0 66.573471 120.30656 110.312021 251.10785 95.678641 92.83396-10.38229 170.95468-46.86556 205.16813-91.192261 32.24095-67.177407-121.32643-115.552772-203.8496-82.753444z" fill="#a4c6ef"/></g><g transform="matrix(.82632746 -.18024082 .18024082 .82632746 3.518384 80.812235)"><g fill="#dab395"><path d="m161.88195 366.53044 83.54505 36.47306 15.418 6.731 178.103 77.755 6.73-15.415-36.54-15.953-156.971-68.531-83.77236-35.60971-21.27577-1.07323z"/><path d="m166.73237 359.77868 91.27463.28782 171.247 1.155 56.15.377.113-16.82-56.15-.378-171.247-1.154-91.08929.029-19.91184 7.63206z"/><path d="m168.65865 351.49588 84.82035-33.26738 159.458-62.541 55.303-21.69-6.142-15.659-55.302 21.689-159.462 62.543-84.77254 33.24851-15.44259 15.08855z"/><path d="m167.13481 342.97686 64.83619-63.96936 121.872-120.24 33.36-32.913-11.815-11.976-33.36 32.913-121.872 120.241-64.83634 63.96909-8.20079 19.90597z"/><path d="m162.38267 335.77375 34.41933-84.41925 64.688-158.606 22.431-55.004-15.575-6.352-22.433 55.005-64.683 158.602-34.30356 84.48999.19243 21.41807z"/><path d="m155.6637 331.14793.6133-91.12643 1.153-171.248.378-56.15-16.82-.113-.378 56.15-1.153 171.248-.61332 91.12945 8.27519 19.86961z"/><path d="m147.22005 329.45104-35.36405-84.07354-6.516-15.491-59.893-142.391-15.46-36.752-15.504 6.523 75.346 179.133 6.525 15.509 35.34332 84.02496 15.42155 14.9741z"/></g><ellipse cx="147.11888" cy="350.90756" fill="#bb8c68" rx="38.58889" ry="38.588776"/><ellipse cx="147.11888" cy="350.90756" fill="#dab395" rx="21.547865" ry="21.5478"/><g opacity=".9" stroke-width="1.18237"><path d="m410.66989 492.60156s4.38543-9.7255 6.39994-14.66348c2.1204-5.19752 4.37789-10.36257 5.98234-15.74179 9.83997-32.9904 18.35027-66.65584 22.19195-100.86743.62569-5.57201.57722-11.23238.11919-16.82067-2.62798-32.06321-7.74019-64.12417-16.38951-95.11037-1.50747-5.40051-3.53431-10.69573-6.14172-15.65954-16.05757-30.56934-36.82419-58.55037-57.94073-85.87109-3.43477-4.44393-6.90568-8.95209-11.14134-12.64063-26.01211-22.65215-55.98478-40.641395-86.29565-57.10351-4.92871-2.676827-10.07425-5.043632-15.42819-6.71484-30.64401-9.565396-62.54942-15.392936-94.48852-18.625003-5.5783-.564495-11.23739-.639797-16.81996-.119151-34.34845 3.20343-68.568609 9.806963-101.569581 19.857521-5.363822 1.63357-10.35366 4.308581-15.50519 6.522373-4.900562 2.105942-14.6526846 6.430659-14.6526846 6.430659l72.6132816 172.634761s9.98915-5.12215 15.160156-7.29101c4.931498-2.0684 9.939518-4.0103 15.092328-5.44086 9.03738-2.50902 18.2636-4.58448 27.601-5.469 5.58181-.52876 11.24224-.45686 16.82.113 8.43764.86205 16.83093 2.53487 24.953 4.978 5.36866 1.6149 10.62367 3.71978 15.572 6.355 8.27577 4.40724 16.13266 9.69766 23.354 15.678 4.31878 3.57659 8.2968 7.60852 11.815 11.975 5.88281 7.30122 11.06752 15.22849 15.363 23.563 2.56863 4.9839 4.6025 10.26747 6.145 15.658 2.33336 8.15433 3.89261 16.56947 4.641 25.018.49473 5.58492.49079 11.24581-.113 16.82-1.01 9.32437-3.21637 18.51952-5.84 27.524-1.47286 5.05497-3.39894 9.98152-5.53422 14.79427-2.3098 5.20611-7.84765 15.17773-7.84765 15.17773z" fill="#7295bf"/><path d="m260.845 409.73449c2.57844-4.9864 5.01483-10.07973 6.722-15.421 3.54003-11.07581 5.95034-22.57266 7.19147-34.13401.59847-5.57479.59681-11.23494.10493-16.82015-.92954-10.55481-2.84789-21.07222-5.7509-31.26244-1.53618-5.39235-3.56849-10.67657-6.13179-15.66323-5.31756-10.34484-11.72864-20.19281-19.02021-29.25511-3.51523-4.36889-7.49599-8.39857-11.81423-11.97585-8.96002-7.4226-18.69871-14.00762-28.97594-19.46247-4.95208-2.62842-10.21828-4.70786-15.59144-6.30814-10.15531-3.02454-20.64759-5.0696-31.18923-6.14299-5.53878-.56398-11.15811-.65657-16.70166-.1416-11.6176 1.07922-23.18657 3.33964-34.348 6.739-5.364357 1.63379-15.511 6.513-15.511 6.513l-59.887328-142.380441s10.143274-4.883526 15.505328-6.523559c30.922292-9.457862 62.97044-15.788911 95.163-18.835 5.58186-.528161 11.24216-.456018 16.82.113 29.91842 3.052098 59.68122 8.970379 88.483 17.624 5.37016 1.61349 10.62705 3.716617 15.577 6.351 28.53978 15.18897 55.63642 33.42419 80.538 54.043 4.31925 3.57639 8.29727 7.60884 11.815 11.976 20.28079 25.17806 38.14916 52.51819 52.953 81.26 2.56742 4.98467 4.59997 10.26891 6.141 15.66 8.2655 28.91573 13.78075 58.75604 16.43 88.713.49394 5.58533.49027 11.24642-.113 16.821-3.47904 32.14849-10.24351 64.10774-20.116 94.9-1.71183 5.33918-6.73023 15.41552-6.73023 15.41552z" fill="#a4c6ef"/><g stroke-width="1.18237"><use transform="matrix(.01436271 -.99989685 -.99989685 -.01436271 192.52914 733.65031)" xlink:href="#h"/><use transform="matrix(-.01596113 .99987261 -.99987261 -.01596113 204.879778 -28.870386)" xlink:href="#h"/><use transform="matrix(-.69730922 -.71677044 -.71677044 .69730922 451.12937 588.40308)" xlink:href="#h"/><use transform="matrix(.7046419 .7095631 -.7095631 .7046419 -87.021508 43.28018)" xlink:href="#h"/><use transform="matrix(-.99999336 .00364429 .00364429 .99999336 531.55122 298.57601)" xlink:href="#h"/><use transform="translate(-235.3028 300.09897)" xlink:href="#h"/></g></g><path d="m149.12891 52.316406c-2.80988-.02431-5.62083.08733-8.41211.347656-34.34842 3.203427-68.567424 9.806874-101.568362 19.857422-5.363817 1.633569-10.354335 4.309648-15.50586 6.523438-4.900557 2.10594-14.6523436 6.429687-14.6523436 6.429687l72.6132816 172.634771s9.989155-5.12216 15.160156-7.29102c4.931488-2.0684 9.938988-4.01085 15.091798-5.44141 9.03737-2.50901 18.26417-4.58423 27.60156-5.46875 5.58181-.52876 11.24256-.45658 16.82031.11328 8.43764.86205 16.83107 2.53539 24.95313 4.97852 5.36865 1.6149 10.62394 3.72025 15.57226 6.35547 8.27577 4.40723 16.13219 9.6974 23.35352 15.67773 4.31878 3.57659 8.29626 7.60814 11.81445 11.97461 5.88281 7.30122 11.06781 15.228 15.36328 23.5625 2.56863 4.9839 4.60204 10.26768 6.14454 15.65821 2.33335 8.15432 3.89223 16.56905 4.64062 25.01757.49473 5.58492.49246 11.24613-.11133 16.82032-1.01 9.32436-3.21621 18.51896-5.83984 27.52343-1.47286 5.05497-3.39988 9.98218-5.53516 14.79493-2.3098 5.2061-7.84765 15.17773-7.84765 15.17773l171.88476 75.03906s4.38588-9.72608 6.40039-14.66406c2.1204-5.19751 4.37798-10.36102 5.98242-15.74023 9.83996-32.99037 18.34973-66.65759 22.19141-100.86915.62569-5.572.57717-11.23202.11914-16.82031-2.62798-32.06318-7.73936-64.1232-16.38867-95.10937-1.50747-5.40051-3.53517-10.69635-6.14258-15.66016-16.05755-30.56931-36.82489-58.5504-57.94141-85.87109-3.43476-4.44393-6.90496-8.95209-11.14062-12.64063-26.01208-22.65212-55.98408-40.641415-86.29492-57.103513-4.92871-2.676824-10.07575-5.043638-15.42969-6.714844-30.64398-9.565386-62.54921-15.392936-94.48828-18.625-2.78915-.282247-5.59833-.44249-8.4082-.466797zm-.10743 15.988282c2.81004.02314 5.61929.184241 8.40821.46875 29.91839 3.052094 59.68067 8.971387 88.48242 17.625 5.37015 1.613488 10.62818 3.715229 15.57812 6.349609 28.53976 15.188953 55.63556 33.424183 80.53711 54.042973 4.31925 3.57638 8.29868 7.6094 11.81641 11.97656 20.28077 25.17803 38.1493 52.51798 52.95313 81.25976 2.56741 4.98467 4.59959 10.26908 6.14062 15.66016 8.26549 28.9157 13.78044 58.75596 16.42969 88.71289.49394 5.58533.48999 11.24574-.11328 16.82031-3.47904 32.14846-10.24276 64.10816-20.11524 94.90039-1.71183 5.33918-6.73047 15.41602-6.73047 15.41602l-141.5625-61.80273c2.57844-4.9864 5.01354-10.07866 6.72071-15.41993 3.54002-11.0758 5.95027-22.57342 7.1914-34.13476.59847-5.57479.59735-11.23511.10547-16.82031-.92954-10.5548-2.84699-21.07151-5.75-31.26172-1.53618-5.39235-3.56951-10.67741-6.13281-15.66407-5.31756-10.34483-11.72797-20.19356-19.01953-29.25586-3.51523-4.36888-7.49622-8.39733-11.81446-11.97461-8.96001-7.42259-18.69934-14.00804-28.97656-19.46289-4.95207-2.62841-10.21864-4.70831-15.5918-6.30859-10.15529-3.02454-20.64587-5.06919-31.1875-6.14258-5.53877-.56398-11.15958-.65559-16.70312-.14062-11.61759 1.07922-23.18624 3.33892-34.34766 6.73828-5.364348 1.63379-15.511715 6.51367-15.511715 6.51367l-59.886719-142.380859s10.143811-4.883406 15.50586-6.523437c30.922261-9.457853 62.969584-15.789852 95.162114-18.835938 2.79092-.26408 5.60207-.378611 8.4121-.355468z" fill="#7295bf"/></g><path id="h" d="m139.81836 60.291016c-32.75933 3.099716-65.357884 9.53996-96.830079 19.166015a8.4071631 8.4071631 0 0 0 -5.289062 11.298828l59.892578 142.390621a8.4071631 8.4071631 0 0 0 10.197263 4.78125c10.60597-3.23018 21.62252-5.3814 32.67578-6.4082a8.4071631 8.4071631 0 0 0 7.62891-8.32031l.92187-154.488282a8.4071631 8.4071631 0 0 0 -9.19726-8.419922z" fill="url(#a)" transform="translate(235.19356 -300.35942)"/></svg>