<svg height="500" viewBox="0 0 132.29167 132.29167" width="500" xmlns="http://www.w3.org/2000/svg" xmlns:xlink="http://www.w3.org/1999/xlink"><linearGradient id="a"><stop offset="0" stop-color="#d3b879"/><stop offset=".25" stop-color="#ebd6ad"/><stop offset=".5" stop-color="#ebd6ad"/><stop offset=".75" stop-color="#ebd6ad"/><stop offset="1" stop-color="#d3b879"/></linearGradient><linearGradient id="b" gradientUnits="userSpaceOnUse" x1="116.132103" x2="22.66864" xlink:href="#a" y1="0" y2="132.292314"/><filter id="c" color-interpolation-filters="sRGB" height="1.006074" width="1.005927" x="-.002964" y="-.003037"><feGaussianBlur stdDeviation=".35225928"/></filter><filter id="d" color-interpolation-filters="sRGB" height="1.008763" width="1.008521" x="-.00426" y="-.004381"><feGaussianBlur stdDeviation=".12334782"/></filter><filter id="e" color-interpolation-filters="sRGB" height="1.00169" width="1.001348" x="-.000674" y="-.000845"><feGaussianBlur stdDeviation=".031195458"/></filter><filter id="f" color-interpolation-filters="sRGB" height="1.041628" width="1.034117" x="-.017058" y="-.020814"><feGaussianBlur stdDeviation=".7737656"/></filter><linearGradient id="g" gradientUnits="userSpaceOnUse" spreadMethod="repeat" x1="147.00672" x2="237.39841" y1="134.188561" y2="235.478581"><stop offset="0" stop-color="#2e2442"/><stop offset=".125" stop-color="#342a4b"/><stop offset=".25" stop-color="#322848"/><stop offset=".375" stop-color="#322947" stop-opacity=".95"/><stop offset=".5" stop-color="#322a46" stop-opacity=".98"/><stop offset=".75" stop-color="#2e2442" stop-opacity=".97"/><stop offset=".90573049" stop-color="#34284e"/><stop offset="1" stop-color="#2e2442"/></linearGradient><path d="m250.4707 499.98252c51.835.039 104.53834.44093 157.50391-5.34765 23.52703-2.57129 63.66601-11.94336 63.66601-11.94336l20.95704-4.78907-8.40625-19.79687c-3.62583-17.49004-4.76016-37.13347-3.75586-52.85156 2.74125-40.11079 16.93348-78.89745 19.56445-119.01563.82783-12.6231.69137-24.46921.34447-42.18006-.34689-17.71086-3.70393-41.24364-10.31713-63.95285-2.60935-14.83079-5.05012-29.7543-6.34961-45.51563-2.71116-32.88338-4.95912-70.15255 6.76172-98.751949l9.07227-22.13086c-31.31324-3.171506-61.13792-7.4347299-87.3418-9.5429685l-13.60547 11.3652345-1.34961-12.5097658-15.11718-.9667968c-21.86813-1.39044747-38.84642-1.91868801-56.31446-2.02539065-5.82268-.03556755-16.5078-.02734375-22.63867-.02734375l-72.83689.32721653c-19.69041.32721654-47.16904 3.59837407-76.59084 5.94817407l-4.60938 8.8105474-.25781.496093-1.24609-7.4980466-16.01758.8046875c-16.98083.8557334-36.820718 3.3800201-54.957034 13.3808591-16.734322 9.227747-31.341428 23.054127-40.964844 40.189453-16.465591 29.318407-21.106486 61.290856-25.148437 87.197266-3.2490518 20.82441-5.7994558 41.62795-7.5839844 62.33594-1.94377399 12.57614-2.92389106 25.28234-2.93299587 38.00781l.00135527 27.97852c.01436867 46.72872-.62894005 93.96404 2.7929688 141.26953.9407191 13.00478 4.1699656 29.03511 14.3300782 43.82422 4.451018 6.4789 9.806394 11.40397 15.326172 15.69335 5.505744 4.27854 8.50915 8.11081 19.365234 9.82422 9.832331 1.66322 30.066099 3.74157 58.570317 5.875l12.77148.95899 10.22852-23.69336 15.71484 25.27344 9.36523.50195c25.46458 1.34785 54.43325 2.49136 81.95508 2.47266z" fill="#857347" stroke-width="3.77953" transform="scale(.26458334)"/><path d="m43.667127 6.1988049-6.649318 12.7232891-1.962733-11.8144838c-4.151997.209236-8.734935.8884646-12.483913 2.9557488-3.6649 2.020923-6.931432 5.134922-8.987607 8.796119-3.5936294 6.398768-4.9680452 14.21181-6.1007497 21.471745-1.7239508 11.049459-2.2092041 22.267477-2.7292176 33.438734-.5652131 12.142264-1.0750022 24.437952.6932615 36.463853.4873297 3.31431 1.1113893 6.8345 3.0041972 9.58967 1.4496055 2.11005 4.6865666 4.54405 6.0084106 4.7506 2.08291.35408 7.610648.94421 15.101134 1.50483l4.966963-11.50761 7.650707 12.30431c6.689358.35408 14.283448.65398 21.429996.64914 14.613556-.01 29.290534.20101 43.819142-1.38681 5.49586-.60065 16.3028-3.06871 16.3028-3.06871s-.84033-3.54005-1.04149-5.34358c-.4-3.58629-.56178-7.22034-.32107-10.82083.70788-10.588463 4.87617-20.80543 5.17179-31.413411.37415-13.42584-4.11707-26.631272-4.32122-40.060773-.14104-9.278493-1.4412-19.010796 2.14288-27.7560998-5.56781-.6078373-8.70335-1.1802678-14.75182-1.6700785l-8.93248 7.4651953-.88126-8.1733574c-7.610636-.4839091-12.854008-.5661144-19.284287-.5223869-5.84986.0397806-11.26574-.2361191-17.111594-.014796-6.768804.2562659-14.283499.9292252-20.732522 1.4396922z" fill="url(#b)" stroke-width="4.7625"/><g><path d="m101.60414 25.757037c-7.276008 0-13.28059 3.265573-17.691432 7.048665-4.41084 3.783092-7.427583 8.136429-9.24388 11.140406a4.7629761 4.7629761 0 0 0 -.164331.295072l-.704867 1.377177c-2.252207.459865-8.457826 1.716156-12.82609 2.732133-5.522206 1.284359-12.483944 1.736229-18.949234 4.88704-4.64893 2.267157-7.60858 5.668088-9.35033 9.263518-1.55195.162918-3.27364.374947-4.97799.652157-2.86257.465585-5.41231.78601-8.10907 2.410188-4.37104 2.633379-6.76307 6.997699-6.82852 10.851535-.0654 3.853836 1.3702 6.879105 2.36729 9.191687.29758.69019.39877 1.12911.56069 1.66605-.22911.0207-.11911.04204-.40049.05064a4.7629761 4.7629761 0 0 0 -1.24023 9.31623c2.80682.85403 5.1054 1.325685 7.29878 1.344095 2.19334.0184 4.50572-.529745 6.26576-2.000385.05056-.04225.0978-.0861.14677-.12919l5.79241 10.457765v3.24786a4.7629761 4.7629761 0 0 0 4.76405 4.76353h8.07186a4.7629761 4.7629761 0 0 0 3.92017-7.46672l-3.29127-4.77336-.24908-.90537 8.135936 7.62796v.73639a4.7629761 4.7629761 0 0 0 4.761983 4.76147h6.822323a4.7629761 4.7629761 0 0 0 3.578076-7.90598l-2.597774-2.95693-5.769674-7.525645 6.814571-9.9689a4.7629761 4.7629761 0 0 0 .817522-2.392098c1.499522-.216297 2.980226-.454714 4.443139-.701249a4.7629761 4.7629761 0 0 0 .0987.269234l2.923853 6.503483a4.7629761 4.7629761 0 0 0 -5.587773 3.41271l-1.988509 7.517375a4.7629761 4.7629761 0 0 0 3.247864 5.78311l4.722709 1.40456a4.7629761 4.7629761 0 0 0 3.859713-.51159l1.692403-1.0449.0026.008-.118856 3.20704a4.7629761 4.7629761 0 0 0 4.7594 4.93717h7.541142a4.7629761 4.7629761 0 0 0 4.189408-7.02903l-2.005562-3.70313-2.261878-9.287295 3.502112-12.384777a4.7629761 4.7629761 0 0 0 .179834-1.250053l.12454-12.585796c1.214175-3.681381 1.570222-7.6267 1.779742-11.310421.40785.579692.57807.840394.9157 1.302763.29005.397199 1.07887 1.915093 1.93942 3.441134.43028.76302.88209 1.547872 1.61902 2.41794s1.93374 2.305191 4.5589 2.396753c3.34751.116753 4.49229-1.162969 6.05286-2.404504 1.56056-1.241538 3.08213-2.709017 3.93361-5.27358.98894-2.978609.0776-4.232351-.31471-5.353162-.24829-.709412-.36832-.908511-.53537-1.259872-1.0857-3.647712-1.33125-6.742995-1.42575-10.464994.62228-.334374 1.3799-.698756 2.42001-1.382861a4.7629761 4.7629761 0 0 0 1.0666-6.998023c-2.69965-3.294542-6.36436-4.94925-9.79889-6.001701-3.43453-1.052452-6.7017-1.451074-9.2599-1.451074zm-.00051 4.7625c3.99811 0 11.85044 1.408266 15.37477 5.709212-1.76949 1.163844-3.90308 1.848236-4.65915 3.265434.0483 5.035644.24427 9.036369 1.73633 14.008964 0 0 1.2722 2.472874.87643 3.664893-.72489 2.183287-3.85418 4.469829-5.30097 4.419369s-2.92498-4.235376-4.4359-6.304525c-.9483-1.298658-2.77451-3.94653-2.77451-3.94653-3.848099-2.274094-6.846101-3.752742-6.846101-3.752742s.393242 4.336097.282154 6.502962c-.23034 4.493148-.617578 9.849032-1.960604 13.354224l-.130225 13.197128-4.502568 15.923059-10.718209 6.617175-4.723743-1.40353 1.989026-7.517385 3.661792 3.40858 5.879745-6.6151-2.495455-14.541746c-3.818402.655841-10.898529 1.939804-16.388147 2.628263-5.19468.651471-12.321287 1.569567-15.641939 1.419552l-11.63702 11.048941 3.44785 12.518105 3.7481 5.43636h-8.07238v-4.47932l-7.1701-12.941845 5.95312-11.71815s-6.98903-16.073578 7.01508-22.902996c5.29587-2.580915 11.933869-3.13062 17.941537-4.527889 4.964422-1.154629 14.955677-3.184818 14.955677-3.184818l1.735812-3.395659c3.295642-5.450668 11.134339-15.889986 22.859598-15.889986zm6.64869 10.262939c-.87786.000075-1.5895.71171-1.58957 1.589568h.00051c0 1.416495 1.71239 2.12614 2.71405 1.124479 1.00105-1.001357.2915-2.714047-1.12499-2.714047zm-76.782924 24.823292c-.0078.02621-.01503.05235-.02274.07855.0077-.0262.01491-.05234.02274-.07855zm-.46974 1.88464c-.28121 1.400075-.40997 2.764475-.41083 4.035929-.00095 1.223033.07844 2.326759.20051 3.340365-10.34789 6.516778 2.91315 22.776423-15.35824 17.217033 15.4598-.46924-6.8145503-14.351768 6.61252-22.441004 1.68947-1.01752 5.45042-1.706508 8.95604-2.152323zm.55707 11.248409c.03665.13065.07313.261779.11007.38654-.03692-.125548-.07348-.254983-.11007-.38654zm.19896.682646c.06519.211818.13034.420938.1943.614949-.06421-.194763-.12905-.401809-.1943-.614949zm47.203836 2.534729.241846 1.410766-.605648-1.347204c.120014-.02088.244237-.04283.363802-.06356zm-10.659298 1.742529c-.4119.05669-.824721.111899-1.238684.163814.413932-.05191.826529-.107665 1.238684-.163814zm-4.402315.556034-8.080644 11.82047 7.965405 10.389555 2.702678 3.0763h-6.822323v-2.79777l-11.191569-10.494455 4.54805-9.96993-.3483-.90485.18293-.17364c3.363974-.0702 7.347656-.49726 11.043773-.94568zm13.514421 5.53972a4.7629761 4.7629761 0 0 1 .614949.2651 4.7629761 4.7629761 0 0 0 -.614949-.2651zm-50.515264.18707a4.7629761 4.7629761 0 0 0 -.30231.77514 4.7629761 4.7629761 0 0 1 .30231-.77514zm51.457842.27285a4.7629761 4.7629761 0 0 1 .700732.51625 4.7629761 4.7629761 0 0 0 -.700732-.51625zm-51.808212.66507a4.7629761 4.7629761 0 0 0 -.14314.79737 4.7629761 4.7629761 0 0 1 .14314-.79737zm-.14934.93431a4.7629761 4.7629761 0 0 0 .01343.73898 4.7629761 4.7629761 0 0 1 -.01343-.73898zm.02429.87592a4.7629761 4.7629761 0 0 0 .17053.78807 4.7629761 4.7629761 0 0 1 -.17053-.78807zm18.35753.13643-.1881.41237-.05116-.18552zm-18.13016.82217a4.7629761 4.7629761 0 0 0 .32815.75809 4.7629761 4.7629761 0 0 1 -.32815-.75809zm67.197453 4.168215a4.7629761 4.7629761 0 0 1 -.28267.73329 4.7629761 4.7629761 0 0 0 .28267-.73329zm-.369486.90692a4.7629761 4.7629761 0 0 1 -.412378.66766 4.7629761 4.7629761 0 0 1 -.529684.58033 4.7629761 4.7629761 0 0 0 .529684-.58033 4.7629761 4.7629761 0 0 0 .412378-.66766zm-1.084689 1.37769a4.7629761 4.7629761 0 0 1 -.627868.47337 4.7629761 4.7629761 0 0 0 .627868-.47337zm-.876432.62685 1.111043 4.56303 2.297535 4.24573h-7.541142l.149861-4.04781-.621667-1.91823z" fill="url(#g)" filter="url(#e)" opacity=".95"/><path d="m101.60414 25.757037c-11.06262 2.710671-17.428218 15.164329-27.80451 19.86132-9.685126 4.384124-21.418616 2.775885-31.054682 7.266812-5.016 2.337727-8.636364 6.95581-13.292741 9.946358-4.944148 3.175369-12.557326 3.341977-15.474888 8.442506-2.725661 4.765045-.38017 11.046517.530132 16.46004.579594 3.446819.429803 7.769186 3.108667 10.014217 3.090425 2.58995 8.686412-.783947 12.001831 1.51095 4.568452 3.16223 2.629351 12.64311 7.772435 14.74528 4.409399 1.80229 11.605746-.0339 13.610834-4.35484 1.145283-2.46808-5.448293-6.135-3.119944-7.5428 4.13884-2.50248 4.612515 9.93548 9.296643 11.14019 4.723682 1.21488 11.979966-.72796 13.631975-5.31707 1.814507-5.04052-8.06097-8.69188-7.815131-14.043399.194296-4.229514 2.955224-10.907433 7.168173-10.485999 2.561622.256247 2.702836 4.556757 3.009186 7.112871.586313 4.892058-5.2068 10.553517-2.379222 14.588467 2.261321 3.2269 7.950798.74636 11.615787 2.19353 4.081083 1.61147 6.985595 8.53957 11.113929 7.05332 3.698566-1.33153 2.978587-7.34147 3.644236-11.21565 1.047597-6.097175.109232-12.378124.48523-18.553202.416687-6.84331-.600776-14.11483 1.96088-20.474266.61702-1.531778 1.47675-3.477837 3.07791-3.882009 4.00046-1.009819 7.57784 6.508173 11.3721 4.887358 4.17112-1.781802 3.60168-8.362055 4.76126-12.747081 1.23037-4.652741 3.76412-9.671888 2.29418-14.254581-1.59914-4.985465-6.3708-8.814263-11.0504-11.162328-2.54646-1.277725-5.69669-1.868036-8.46387-1.189994zm-.00051 4.7625c4.97079-.222648 11.20213 1.71437 13.64724 6.04793 2.27911 4.039359-.13907 9.454668-1.75189 13.803181-1.25783 3.391364-2.39836 8.57468-5.98379 9.052379-5.31096.707599-7.16276-12.782484-12.065122-10.620563-3.704072 1.63348-.01712 8.099688-.222326 12.142743-.294018 5.7929-.506325 11.61704-1.444634 17.340999-.996683 6.080056-.535429 13.168878-4.426766 17.945691-3.112797 3.821113-9.903778 9.900923-13.342793 6.370543-1.507947-1.54801 1.580429-4.10022 2.945785-5.775341 1.174456-1.440914 3.273341-1.971725 4.354761-3.483714.942359-1.31756 1.504478-2.958534 1.646625-4.572163.363921-4.131164 1.234644-9.802456-2.104278-12.262244-8.726936-6.429143-22.457056-.42124-32.239778 4.24691-4.740487 2.26208-10.20019 5.74266-11.427328 10.849846-1.486 6.184536 11.24301 13.917586 6.358125 17.991236-2.191203 1.82731-5.449488-2.19841-7.426677-4.25538-2.703377-2.81247-4.222121-6.66141-5.412263-10.37648-.475481-1.48423-.905696-3.093051-.649114-4.630317.610226-3.656056 3.659802-6.47243 5.036519-9.913909 2.936212-7.339863 1.091159-17.255645 6.805036-22.718844 6.30215-6.025663 17.526598-2.564199 25.369172-6.374677 4.965759-2.412717 8.490411-7.096382 13.100745-10.133615 6.122849-4.03366 11.907989-10.346125 19.232751-10.674211zm-70.134234 35.086231-.02274.07855zm-.46974 1.88464c3.813403 4.272442-1.471848 11.751472-4.587616 16.556448-2.318631 3.575673-6.178844 10.29762-9.855899 8.143379-3.216034-1.884146.724791-7.498907 1.998149-11.001969 1.689197-4.647054 3.273292-10.07791 7.340125-12.89027 1.417073-.979956 3.957971-2.09296 5.105241-.807588zm.55707 11.248409.09461.332257zm.19896.682646.184821.584948zm36.544538 4.277258-1.073376.142997zm-4.402315.556034c2.401447 4.124692-8.150733 7.048141-8.080644 11.82047.08152 5.550455 12.316256 8.518955 9.797856 13.465855-.900116 1.7681-4.184751.90159-5.952096 0-3.205505-1.63526-3.95754-6.04039-6.336935-8.73998-1.466818-1.66421-4.550517-2.35482-4.854634-4.552245-.601513-4.346291 3.068466-8.958167 6.7957-11.27329 2.452363-1.523253 7.178198-3.215699 8.630753-.72081zm13.514421 5.53972.579873.249979zm-50.515264.18707-.290749.745497zm51.457842.27285.728807.536934zm-51.808212.66507-.138542.771753zm-.14934.93431.01304.717693zm.02429.87592.165127.763099zm.22737.9586.316392.730926zm67.197453 4.168215-.27392.7106zm-1.454175 2.28461-.608434.45872zm-.876432.62685-1.078842 8.92179z" fill="url(#g)" filter="url(#f)" opacity=".25"/><g stroke-width="3.45091" transform="matrix(.25053926 .14560957 -.14560957 .25053926 137.25372 27.167508)"><path d="m-233.65799 75.060863c-.007-.000026-.013.002-.0195.002-9.80064-.03336-19.58638 4.045083-25.45313 7.138671-2.16431 1.141119-6.14429 3.468932-11.11328 5.861329-4.96899 2.392403-10.80902 4.743423-15.71094 5.691413-8.62123 1.66677-15.49799 6.523314-19.20898 12.669924-1.8555 3.0733-2.93803 6.56573-2.6543 10.17969.28373 3.61395 2.12392 7.22905 5.19922 9.75586 6.30637 5.18129 9.10824 10.64358 9.55859 15.74023.45036 5.09665-1.37531 10.163-5.82226 14.86328-7.20693 7.61766-7.35029 18.06404-2.7168 25.40625s13.66029 12.14313 23.82813 10.91992c8.00037-.96231 13.23766-.83978 17.14648.23438 3.90883 1.07415 6.87005 3.04191 10.75391 6.92383 6.99276 6.98803 17.36719 8.73991 26.74414 6.8457 9.37694-1.89422 18.38381-7.64565 22.07226-17.20117 2.61913-6.78398 5.45807-12.72705 12.52149-15.23828 6.74006-2.39537 11.48635-7.61325 13.18945-13.65625 1.70311-6.043.35698-12.89082-4.0957-18.21875h-.002c-2.08066-2.48946-2.80364-4.13888-2.74415-6.83008.0595-2.6912 1.27236-6.80182 4.58008-12.83203 3.51844-6.41456 4.19717-13.86964.70117-19.83399-3.49599-5.964344-10.90416-9.345074-20.15234-8.828124-4.81145.26889-7.52737-.94024-10.75781-3.41602-3.23044-2.47577-6.65187-6.459841-11.1875-10.882815v-.002c-4.07471-3.972954-9.52225-5.272276-14.65625-5.292969zm-.041 9.97461c.00074.000003.001-.000003.002 0 3.52993.01457 6.06496.835125 7.73242 2.460937 4.12443 4.021996 7.60321 8.224186 12.08398 11.658206 4.48077 3.434024 10.28554 5.857464 17.38086 5.460944 6.78397-.37921 9.65521 1.63449 10.99024 3.9121 1.33502 2.27762 1.39799 5.91233-.83985 9.99219-3.69975 6.74491-5.69339 12.19703-5.80859 17.4082-.1152 5.21118 2.01854 9.80291 5.06445 13.44727 2.45771 2.94082 2.97448 6.18619 2.14844 9.11719-.82605 2.931-3.00087 5.56731-6.92774 6.96289h-.002c-11.08168 3.93982-15.66631 13.74565-18.48437 21.04492-2.16889 5.61884-8.00311 9.65428-14.74219 11.01563-6.73908 1.36134-13.75566-.16264-17.71875-4.12305-4.55978-4.5575-9.31695-7.88006-15.16211-9.48633s-12.39545-1.55412-20.98047-.52148c-6.41729.77201-11.63562-2.27253-14.20117-6.33789s-2.86293-8.58805 1.52734-13.22852c6.05409-6.39898 9.23221-14.4419 8.51172-22.5957s-5.26477-16.08349-13.16015-22.57032c-1.1956-.98235-1.50533-1.75347-1.58985-2.83007-.0845-1.0766.24727-2.58135 1.25-4.24219 2.00546-3.32169 6.62039-6.88207 12.56445-8.03125 6.38785-1.23536 12.77289-3.913744 18.14454-6.500004 5.37164-2.58626 9.84817-5.18547 11.4375-6.02344 4.80536-2.533909 14.04387-6.016323 20.77929-5.990233z" fill="#6c131e" stroke-width="3.45091"/><path d="m-233.67812 80.048213c-8.27141-.03281-17.78794 3.750204-23.12618 6.565106-3.75364 1.979084-16.91322 9.855197-28.20299 12.038547-14.56531 2.815964-22.98647 16.835434-14.44466 23.853774 14.20177 11.66813 14.6931 26.78536 4.19205 37.88463-11.59721 12.25815.30692 29.94184 16.89206 27.94662 16.58541-1.99496 23.57888.14366 32.02252 8.58308 10.95587 10.94846 34.78134 6.55029 40.63868-8.62409 2.7186-7.04163 6.43044-14.9151 15.503-18.14063 10.66694-3.79095 13.84697-15.70911 6.93658-23.97787-5.12657-6.13383-5.71765-12.4841 1.28984-25.25924 5.75628-10.49443 1.23217-22.179234-14.79999-21.283084-11.90678.665424-17.04579-7.2644-25.70586-15.709374-2.87126-2.799557-6.86277-3.860007-11.19532-3.877469z" fill="#c20a0a" stroke-width="34.422"/><path d="m-239.05243 95.443479c-25.8613 0-46.97079 21.099831-46.97079 46.963031 0 25.86295 21.10837 46.97284 46.97079 46.97284 25.86241 0 46.97078-21.10989 46.97078-46.97284 0-25.86249-21.10938-46.963031-46.97078-46.963031z" fill="#6c131e" stroke-width="3.45091"/><path d="m-239.05234 105.15056c-20.60893 0-37.25677 16.64706-37.25677 37.25678 0 20.60945 16.64811 37.26471 37.25703 37.26471 20.6084 0 37.26498-16.655 37.26498-37.26445 0-20.60893-16.65632-37.25677-37.26498-37.25677z" fill="#c20a0a" stroke-width="34.422"/><path d="m-920.52927 467.43942c-5.58909 1.05502-11.30953 2.76071-17.28515 5.22266l-28.51367 11.74805 29.24414 9.78906c3.26725 1.09376 6.49695 2.28987 9.67187 3.57226-17.47003 7.74917-32.36177 21.94399-43.49414 36.00977-7.71534 9.74835-14.67535 20.61841-20.2793 32.24023l-.96093 1.9961-.15235 2.21094c-.23924 3.48725-.37304 7.02705-.37305 10.61718 0 84.08701 68.22681 152.3418 152.31446 152.3418 11.53886 0 22.78934-1.28657 33.60351-3.71484l33.65625-7.5586-69.56836-31.29297-.40625-.14648c-27.95187-10.12052-47.95099-42.21489-52.66992-69.47266-2.35948-13.6289-.62176-25.44943 3.11328-31.5664 3.18078-5.20917 6.95916-7.81127 15.54493-7.10352l-.82227 2.23633 1.55664 4.03906c8.89965 23.09855 23.90307 44.20088 40.60352 60.44922 16.70041 16.24834 34.73237 28.04065 52.91601 30.49024l.57422.0781.58008.0195c.69051.0242 1.35402.005 2.00976-.0312 11.15653.43709 24.2631-3.74406 34.34375-14.89258l13.80274-15.25976 10.80859-9.32422c13.69459-19.03892 20.01888-46.78418 3.10742-72.88477l-3.02343-4.66797-5.53907-.52734c-19.53819-1.85745-32.26973-12.07115-36.52929-25.64453-4.10347-13.07622-15.35431-20.64424-27.18555-25.91797l-8.89648-3.9668-3.37696-6.12304c-8.03346-14.56562-15.58306-26.76765-26.81445-35.12305-6.37742-4.74395-14.09769-8.05702-22.95898-9.55273l-11.68358-.89832c-4.11065.0533-8.34623.44535-12.74609 1.04883l-27.91797 3.82812 12.48242 9.26758c-5.47103-1.64944-11.1903-2.71763-17.20708-2.7247z" fill="#6c131e" filter="url(#c)" stroke-width="3.4509" transform="matrix(.26458334 0 0 .26458334 -16.706824 -11.275074)"/><path d="m-245.15593 112.10707c-.91879.0114-1.92688.10189-3.00757.25011 3.62909 2.69424 6.72573 5.95642 8.89713 9.28367.2185 0 .436.002.65268.006 2.37806.0514 4.67142.38253 7.00525.94775-2.06596-3.74584-3.9406-6.6063-6.24613-8.32146-1.81876-1.35291-3.95721-2.12812-6.91327-2.16576-.12728-.002-.25673-.002-.38809 0zm-12.06541 3.02203c-.0961-.00026-.19213.001-.28888.003-1.84876.0408-3.86455.51597-6.1681 1.46503 7.39507 2.4756 14.08254 6.64319 17.62632 11.00243 2.419-.67526 3.87541-1.93744 4.79867-3.79306-4.5746-3.86812-8.22392-6.76283-11.83958-7.9778-1.33845-.44991-2.6897-.69851-4.12843-.6997zm-.0269 6.94842c-5.18893.88958-10.43468 5.31303-13.95883 9.76581-1.9101 2.41342-3.63409 5.10876-5.01055 7.96334-.059.85931-.0915 1.72633-.0915 2.60087 0 20.60945 16.64824 37.2644 37.25716 37.2644 2.827 0 5.57882-.31496 8.2243-.90899l-9.97871-4.48862c-17.59126-6.36927-22.7459-37.4463-6.17017-34.33795.76847-1.86443 1.3055-3.68921 1.45004-5.45807l2.45205.20051c-.22167 2.71055-1.16183 5.32933-2.3735 7.88995-.0964.26788-.19385.54264-.28784.7984 4.32306 11.22029 14.9756 21.15159 22.31078 22.13974.12045.004.25066.00018.38861-.0114 2.23984.13624 4.72027-.5561 6.87245-2.93626l1.0511-1.1622-1.37873-.74466c-.85652-.46267-1.88073-.93387-2.39107-1.43815-.2551-.25221-.36764-.45674-.40462-.68368-.0371-.22706-.0171-.55641.29352-1.12913l1.40456-2.58744-2.82773.81907c-.82981.24023-2.27806-.39906-3.05718-1.40973-.38964-.50546-.57999-1.04083-.57722-1.4273.003-.38673.0947-.67486.62476-1.05989l2.56057-1.85932-3.14399-.3576c-1.31289-.14966-2.15479-.87662-2.52336-1.6185-.36883-.74161-.30446-1.32719.18086-1.75183l1.60662-1.4056-2.02158-.68523c-.88417-.29959-1.35519-.99424-1.36322-1.3994-.004-.18073.0312-.35086.24236-.58911 1.43874-.3146 2.79841-.0595 3.69745.83871.81006.80901 1.09902 1.99118.91829 3.26853 1.12546-.29669 2.23582-.21235 3.17397.32866 1.22943.7091 1.92827 2.06541 2.06292 3.68092 2.00239-1.33369 4.23209-1.67482 5.95777-.67955 2.03595 1.17416 2.81185 3.88489 2.21227 6.81199 3.15811-4.39057 4.55249-9.96713.73898-15.85278-6.15063-.58472-10.75346-4.03769-12.28039-8.90333-.66158-2.10821-2.80147-3.77387-5.52835-4.98936l-.0103.0284c-3.91473-1.42464-7.31537-2.28395-10.87324-2.466l.0103.0207c-.30197-.0123-.60054-.0211-.89039-.0227-1.25538 3.01096-3.77268 5.25211-7.56026 6.06217l-.77721.16588-.47078-.64027c-1.87128-2.54444-5.42717-5.32437-9.741-7.64398zm20.56309 8.59017c3.67608-.01 5.9067 1.52945 5.54023 5.85132-4.71821.44623-6.83582-2.19635-8.30234-5.61206.98816-.15204 1.91374-.2365 2.76211-.23874zm6.37222 8.73539-.00053.00052c.48809.009.93996.1307 1.31827.37001-.19876.14506-.38114.29988-.54726.46612-.69053.68976-1.06472 1.59563-1.04748 2.46703.0241 1.22707.69376 2.2622 1.66915 2.96985-.41332 1.0666-.32296 2.29758.185 3.31969.50192 1.00936 1.38757 1.87859 2.54093 2.42156-.19021.44309-.31245.90363-.31574 1.36012-.008 1.10663.44474 2.11151 1.08882 2.94711.89405 1.15968 2.21964 2.09764 3.68918 2.35748-.024.28697-.0268.57036.0176.84336.13822.84823.59402 1.53476 1.10277 2.0376.44888.4436.94669.77558 1.42162 1.05213-.8352.63079-1.63437.92865-2.45101 1.02526-.85758-1.04476-1.27816-2.51202-1.23868-4.14031-1.5489.81308-3.18674.94205-4.4912.18965-1.93077-1.11361-2.55272-3.82196-1.73581-6.62492-1.49218.36462-2.9127.12108-3.84163-.80718-1.16823-1.16692-1.25556-3.11007-.40773-4.99557-.48387-.081-.91643-.28481-1.25367-.62166-1.15941-1.1581-.75991-3.4343.89194-5.08445 1.03239-1.03133 2.30977-1.57405 3.40548-1.55339z" fill="#c20a0a" filter="url(#d)" stroke-width="21.0002"/></g></g></svg>