<svg height="500" viewBox="0 0 132.29167 132.29167" width="500" xmlns="http://www.w3.org/2000/svg" xmlns:xlink="http://www.w3.org/1999/xlink"><linearGradient id="a" gradientUnits="userSpaceOnUse" x1="116.132103" x2="22.66864" y1="0" y2="132.292314"><stop offset="0" stop-color="#d3b879"/><stop offset=".25" stop-color="#ebd6ad"/><stop offset=".5" stop-color="#ebd6ad"/><stop offset=".75" stop-color="#ebd6ad"/><stop offset="1" stop-color="#d3b879"/></linearGradient><filter id="b" color-interpolation-filters="sRGB" height="1.006074" width="1.005927" x="-.002964" y="-.003037"><feGaussianBlur stdDeviation=".35225928"/></filter><filter id="c" color-interpolation-filters="sRGB" height="1.008763" width="1.008521" x="-.00426" y="-.004381"><feGaussianBlur stdDeviation=".12334782"/></filter><linearGradient id="d" gradientTransform="matrix(.83737696 -.01999158 .01999158 .83737696 -169.40694 35.613858)" gradientUnits="userSpaceOnUse" spreadMethod="repeat" x1="193.16023" x2="216.03746" y1="90.853073" y2="107.21975"><stop offset="0" stop-color="#2e2442"/><stop offset=".125" stop-color="#342a4b"/><stop offset=".25" stop-color="#322848"/><stop offset=".375" stop-color="#322947" stop-opacity=".95"/><stop offset=".5" stop-color="#322a46" stop-opacity=".98"/><stop offset=".75" stop-color="#2e2442" stop-opacity=".97"/><stop offset=".90573049" stop-color="#34284e"/><stop offset="1" stop-color="#2e2442"/></linearGradient><filter id="e" color-interpolation-filters="sRGB" height="1.042596" width="1.033493" x="-.016746" y="-.021298"><feGaussianBlur stdDeviation=".77517009"/></filter><filter id="f" color-interpolation-filters="sRGB" height="1.00676" width="1.005394" x="-.002697" y="-.00338"><feGaussianBlur stdDeviation=".12309759"/></filter><path d="m250.4707 499.98252c51.835.039 104.53834.44093 157.50391-5.34765 23.52703-2.57129 63.66601-11.94336 63.66601-11.94336l20.95704-4.78907-8.40625-19.79687c-3.62583-17.49004-4.76016-37.13347-3.75586-52.85156 2.74125-40.11079 16.93348-78.89745 19.56445-119.01563.82783-12.6231.69137-24.46921.34447-42.18006-.34689-17.71086-3.70393-41.24364-10.31713-63.95285-2.60935-14.83079-5.05012-29.7543-6.34961-45.51563-2.71116-32.88338-4.95912-70.15255 6.76172-98.751949l9.07227-22.13086c-31.31324-3.171506-61.13792-7.4347299-87.3418-9.5429685l-13.60547 11.3652345-1.34961-12.5097658-15.11718-.9667968c-21.86813-1.39044747-38.84642-1.91868801-56.31446-2.02539065-5.82268-.03556755-16.5078-.02734375-22.63867-.02734375l-72.83689.32721653c-19.69041.32721654-47.16904 3.59837407-76.59084 5.94817407l-4.60938 8.8105474-.25781.496093-1.24609-7.4980466-16.01758.8046875c-16.98083.8557334-36.820718 3.3800201-54.957034 13.3808591-16.734322 9.227747-31.341428 23.054127-40.964844 40.189453-16.465591 29.318407-21.106486 61.290856-25.148437 87.197266-3.2490518 20.82441-5.7994558 41.62795-7.5839844 62.33594-1.94377399 12.57614-2.92389106 25.28234-2.93299587 38.00781l.00135527 27.97852c.01436867 46.72872-.62894005 93.96404 2.7929688 141.26953.9407191 13.00478 4.1699656 29.03511 14.3300782 43.82422 4.451018 6.4789 9.806394 11.40397 15.326172 15.69335 5.505744 4.27854 8.50915 8.11081 19.365234 9.82422 9.832331 1.66322 30.066099 3.74157 58.570317 5.875l12.77148.95899 10.22852-23.69336 15.71484 25.27344 9.36523.50195c25.46458 1.34785 54.43325 2.49136 81.95508 2.47266z" fill="#857347" stroke-width="3.77953" transform="scale(.26458334)"/><path d="m43.667127 6.1988049-6.649318 12.7232891-1.962733-11.8144838c-4.151997.209236-8.734935.8884646-12.483913 2.9557488-3.6649 2.020923-6.931432 5.134922-8.987607 8.796119-3.5936294 6.398768-4.9680452 14.21181-6.1007497 21.471745-1.7239508 11.049459-2.2092041 22.267477-2.7292176 33.438734-.5652131 12.142264-1.0750022 24.437952.6932615 36.463853.4873297 3.31431 1.1113893 6.8345 3.0041972 9.58967 1.4496055 2.11005 4.6865666 4.54405 6.0084106 4.7506 2.08291.35408 7.610648.94421 15.101134 1.50483l4.966963-11.50761 7.650707 12.30431c6.689358.35408 14.283448.65398 21.429996.64914 14.613556-.01 29.290534.20101 43.819142-1.38681 5.49586-.60065 16.3028-3.06871 16.3028-3.06871s-.84033-3.54005-1.04149-5.34358c-.4-3.58629-.56178-7.22034-.32107-10.82083.70788-10.588463 4.87617-20.80543 5.17179-31.413411.37415-13.42584-4.11707-26.631272-4.32122-40.060773-.14104-9.278493-1.4412-19.010796 2.14288-27.7560998-5.56781-.6078373-8.70335-1.1802678-14.75182-1.6700785l-8.93248 7.4651953-.88126-8.1733574c-7.610636-.4839091-12.854008-.5661144-19.284287-.5223869-5.84986.0397806-11.26574-.2361191-17.111594-.014796-6.768804.2562659-14.283499.9292252-20.732522 1.4396922z" fill="url(#a)" stroke-width="4.7625"/><g><path d="m80.800666 26.692474c-6.961011-.159089-13.244984 3.354622-19.808409 4.944099-15.479451.638203-31.964479 3.899238-43.822538 14.559811-4.595776 4.221475-4.85228 10.653466-4.706946 16.439495-.184932 7.38047-.131579 14.765736.09303 22.144707 2.090704 1.753998 4.181409 3.507995 6.272113 5.261993.98615 6.586802-.280085 13.276001.157915 19.868471 2.276725 2.95167 6.81824 3.55024 10.416196 4.05037 3.831508.66692 7.437669-1.29608 11.033545-1.63366 4.467812.91575 9.395468 2.07761 13.653592.0538 2.293747-1.63419 3.821129-5.45219 5.821307-1.174 5.564315 3.61595 12.487992 1.31305 18.68595 2.14579 5.609735.88185 11.68093-3.24268 10.289718-9.41757.125349-2.72051-1.502433-11.763995 2.810883-6.40688 7.265971 5.3927 19.266418 6.22065 25.183968-1.604135 5.01659-6.445828 4.92551-15.035638 5.0141-22.803528-.008-4.464119-.50131-9.346994-1.38428-13.954818-2.80866-10.168932-6.00503-20.676841-12.76288-28.993223-5.69456-1.823459-11.733193-1.408457-17.553083-2.204663-3.096641-.623513-6.214239-1.353965-9.394181-1.276059zm.09178 4.020131c3.044586-.552967 5.045699.870273 1.218155 1.835776-5.085847 2.53954-10.318935 5.113654-14.352599 9.218563-1.694073 7.45149 1.201439 14.908397 3.398978 21.927413 2.684474 5.557822 8.75509 8.126391 13.702236 11.099487-3.648875 4.109606.123762 9.074709-.27755 14.037366.47571 6.251325.383815 12.53092.0772 18.78808-4.254048 3.03456-13.488787 3.47327-13.490781-3.62248-1.49914-7.675301-2.29557-15.478341-4.072287-23.100991-2.72079.07286-4.752892.908348-3.244371 3.867958-2.820855 4.06803-9.008422 2.801043-13.366963 3.161176-3.351941.40442-8.917162-1.375744-3.948663-4.322189 3.444074-1.882731 2.590114-8.935767-1.660049-4.892331-1.673623 3.769497-6.082074 5.732265-5.698021 10.434982-1.30659 6.273665-.09947 12.781155-1.260432 19.099975-4.286755 2.39953-13.9955 3.44116-14.905677-2.71422-.599552-5.84362 1.270151-11.839316-.696369-17.55925-1.271715-4.106652-1.199745-11.264662-2.325306-13.631696-1.630432 1.81556-1.281605 9.50986-3.318499 7.930891-.766304-8.084142-.03806-16.226-.156066-24.331601-.08457-7.251332 6.46785-11.94401 12.234982-14.980835 10.699286-5.21437 22.684019-7.265357 34.513382-7.429228 5.64322-2.293291 11.459168-4.621676 17.628705-4.816846zm10.606031 1.61074c5.160438.77467 12.673863-1.43235 15.672443 3.878188 5.43406 8.800248 8.56005 18.906023 10.36816 29.027254.51448 6.507453-5.9324-1.526572-8.26919-2.774656-3.90112-3.361473-7.55848-7.0473-11.882456-9.882224-6.727665-1.244963-7.981017 8.543344-4.438 12.489899.699006 4.937595-3.932007 9.034485-8.127881 5.22863-6.14041-2.646481-11.353954-7.841852-11.91448-14.781756-1.781998-5.117703-3.638961-12.851606 2.550094-15.712891 4.788662-3.180893 10.362787-4.788856 15.656353-6.8952-.291116-.263629.171679-.575432.384957-.577244zm15.943403 16.849104c-7.18395-1.055175 2.19755 7.784645 2.55767 1.261115.18504-1.448934-1.55195-1.662436-2.55767-1.261115zm-11.396007 7.156776c7.963327 6.499982 15.219407 14.213327 24.738517 18.487055-9.09523-1.887294-18.66439-5.190132-24.877184-12.422604-1.124101-1.795095-1.489958-4.430906.138667-6.064451zm.492466 12.304164c2.612082 3.401823 10.111461 3.264842 8.548051 9.17604-.0443 2.681628.57745 7.110608-2.87805 7.879321 4.51437-4.257943-.85331-12.416098-6.539167-10.974311-3.75191.07251.451532-4.031328.821978-5.981766zm12.573581 7.020094c3.94048 1.544701 11.08366 1.855702 8.31976 8.042771-.6015 6.197501-4.3035 13.517523-11.29737 13.881517-6.707347.583046-14.768157-2.721234-16.782389-9.612417-1.619053-5.38379 7.540477-13.564167 10.256387-6.674363-2.25537 3.497845-3.412988 8.613789 2.499982 8.56884 6.09835.101266 7.35643-7.215855 7.0553-11.982565.001-.741545-.0182-1.483029-.0517-2.223783zm-19.566639.500914c3.295154.633319-5.210171 5.992343-1.308343 1.52337.436173-.50774.872213-1.015594 1.308343-1.52337zm-24.617772 12.196601c1.032807 6.977097 2.065614 13.954192 3.098421 20.931292-3.597619.79641-8.337767-1.92208-6.505761-6.03633.40549-4.626864.810979-9.253727 1.216468-13.88059.730291-.338124 1.460581-.676248 2.190872-1.014372zm-22.275791 1.533716c4.950733.04613 10.423371 2.164452 9.562864 8.12951 1.099016 3.819436 3.34527 11.516356-2.941137 11.432436-5.538188 1.94249-9.371225-3.48375-7.318376-8.47508.123489-3.701259.327541-7.401364.696649-11.086866zm15.892928 1.623072c-.402913 4.596101-.805825 9.192204-1.208738 13.788304 1.26253-4.17845-5.475508-12.655269.496833-13.679089z" fill="url(#d)" filter="url(#f)" opacity=".95"/><path d="m80.800666 26.692474c-6.795153.372712-13.273146 3.045847-19.808409 4.944099-14.781717 4.293542-33.168752 3.449883-43.822538 14.559811-3.945183 4.114096-3.926626 10.793137-4.706946 16.439495-1.010529 7.312137-3.0409211 15.461379.09303 22.144707 1.158635 2.470854 5.108851 2.793314 6.272113 5.261993 2.823108 5.991212-3.603249 14.417031.157915 19.868471 2.115582 3.06633 6.714181 3.63425 10.416196 4.05037 3.694677.41529 7.325108-1.36795 11.033545-1.63366 4.539595-.32526 9.123989.49699 13.653592.0538 1.970096-.19276 3.843578-1.09022 5.821307-1.174 6.263966-.26534 12.721789 4.07878 18.68595 2.14579 4.423093-1.43353 7.58234-5.63751 10.289718-9.41757 1.357953-1.89599.900008-5.06996 2.810883-6.40688 6.89228-4.8221 18.799318 3.87239 25.183968-1.604135 5.9073-5.067068 4.55688-15.034211 5.0141-22.803528.27462-4.666363-.19715-9.433638-1.38428-13.954818-2.68168-10.213148-4.29663-22.682718-12.76288-28.993223-4.72808-3.52418-11.705827-1.440345-17.553083-2.204663-3.133494-.409592-6.238773-1.449132-9.394181-1.276059zm.09178 4.020131c-.347225.647121 1.369093 1.117063 1.218155 1.835776-1.168641 5.564645-12.018306 4.03377-14.352599 9.218563-3.036462 6.74441-.288171 15.515541 3.398978 21.927413 2.930168 5.095498 11.224717 5.769207 13.702236 11.099487 1.972615 4.243999-.240904 9.357473-.27755 14.037366-.04904 6.262554 5.038936 14.96667.0772 18.78808-3.688947 2.84114-10.346065-.18865-13.490781-3.62248-5.280832-5.766326 3.48049-21.07781-4.072287-23.100991-1.625513-.43543-1.81196 2.984729-3.244371 3.867958-3.897246 2.403054-8.991754 4.510523-13.366963 3.161176-1.864775-.575111-2.955925-2.642126-3.948663-4.322189-.876065-1.482612.05564-4.74383-1.660049-4.892331-3.948349-.341749-4.59194 6.629349-5.698021 10.434982-1.780762 6.126969 3.770752 15.175945-1.260432 19.099975-3.982253 3.10593-11.594039 1.09868-14.905677-2.71422-3.841095-4.42249-.08654-11.733396-.696369-17.55925-.479885-4.584486 2.254481-13.108868-2.325306-13.631696-2.847233-.32504-.507051 8.485999-3.318499 7.930891-7.9570812-1.571089-2.854886-16.683083-.156066-24.331601 2.145359-6.079996 6.735003-11.616442 12.234982-14.980835 10.038722-6.140789 23.080955-4.639098 34.513382-7.429228 5.91795-1.4443 18.438705 1.220706 17.628705-4.816846 0-.000002-.000004-.000001-.000005 0zm10.606031 1.61074c5.017462-1.946264 11.680683.268654 15.672443 3.878188 7.62083 6.891111 17.56275 21.692251 10.36816 29.027254-2.0359 2.075632-5.72997-1.358502-8.26919-2.774656-4.49919-2.50925-6.9145-11.245468-11.882456-9.882224-4.260806 1.169197-1.693318 9.0275-4.438 12.489899-2.001199 2.524499-4.947746 5.743053-8.127881 5.22863-6.247344-1.010578-10.295135-8.663889-11.91448-14.781756-1.357736-5.12951-.696568-11.515927 2.550094-15.712891 3.489162-4.510444 11.290244-3.227034 15.656353-6.8952.177077-.148771.169333-.493604.384957-.577244zm15.943403 16.849104 2.55767 1.261115zm-11.396007 7.156776c9.255687-4.506245 30.140747 9.724075 24.738517 18.487055-4.86404 7.889976-20.09269-4.48414-24.877184-12.422604-1.04375-1.731797-1.679328-5.179337.138667-6.064451zm.492466 12.304164c4.131301-.637707 7.718031 5.079042 8.548051 9.17604.5552 2.740492-.0941 7.618036-2.87805 7.879321-4.239644.39791-5.691484-6.801261-6.539167-10.974311-.400655-1.972377.246224-4.053216.821978-5.981766.01048-.03511.01097-.09369.04719-.09928zm12.573581 7.020094c3.57599 1.445889 8.09 4.192382 8.31976 8.042771.35536 5.955302-5.43192 12.791395-11.29737 13.881517-6.338228 1.17799-16.599492-3.168246-16.782389-9.612417-.115721-4.077309 6.431786-8.092204 10.256387-6.674363 2.789822 1.034234-.452484 8.200444 2.499982 8.56884 4.59945.5739 5.88859-7.496684 7.0553-11.982565.18663-.717588-.56986-1.693433-.0517-2.223783.00001-.000007.00002-.000004.00003 0zm-19.566639.500914-1.308343 1.52337zm-24.617772 12.196601c6.206154 3.351153 9.338522 17.643782 3.098421 20.931292-2.617265 1.37887-5.442359-3.2758-6.505761-6.03633-1.669582-4.334141-1.453019-10.079784 1.216468-13.88059.462542-.658565 1.482744-1.396742 2.190872-1.014372zm-22.275791 1.533716c3.850687-1.635957 8.297653 4.141605 9.562864 8.12951 1.189943 3.750666.889923 10.534436-2.941137 11.432436-3.634026.85182-6.127369-4.93767-7.318376-8.47508-1.181558-3.50934-2.71144-9.638946.696649-11.086866zm15.892928 1.623072c3.366346 3.155028 3.396162 14.073584-1.208738 13.788304-4.553972-.28213-2.537173-10.271295.496833-13.679089.159642-.17931.536735-.273389.711905-.109215z" fill="url(#d)" filter="url(#e)" opacity=".25"/><g stroke-width="3.14797" transform="matrix(.31766516 0 0 .31766516 105.09992 -9.905282)"><path d="m-233.65799 75.060863c-.007-.000026-.013.002-.0195.002-9.80064-.03336-19.58638 4.045083-25.45313 7.138671-2.16431 1.141119-6.14429 3.468932-11.11328 5.861329-4.96899 2.392403-10.80902 4.743423-15.71094 5.691413-8.62123 1.66677-15.49799 6.523314-19.20898 12.669924-1.8555 3.0733-2.93803 6.56573-2.6543 10.17969.28373 3.61395 2.12392 7.22905 5.19922 9.75586 6.30637 5.18129 9.10824 10.64358 9.55859 15.74023.45036 5.09665-1.37531 10.163-5.82226 14.86328-7.20693 7.61766-7.35029 18.06404-2.7168 25.40625s13.66029 12.14313 23.82813 10.91992c8.00037-.96231 13.23766-.83978 17.14648.23438 3.90883 1.07415 6.87005 3.04191 10.75391 6.92383 6.99276 6.98803 17.36719 8.73991 26.74414 6.8457 9.37694-1.89422 18.38381-7.64565 22.07226-17.20117 2.61913-6.78398 5.45807-12.72705 12.52149-15.23828 6.74006-2.39537 11.48635-7.61325 13.18945-13.65625 1.70311-6.043.35698-12.89082-4.0957-18.21875h-.002c-2.08066-2.48946-2.80364-4.13888-2.74415-6.83008.0595-2.6912 1.27236-6.80182 4.58008-12.83203 3.51844-6.41456 4.19717-13.86964.70117-19.83399-3.49599-5.964344-10.90416-9.345074-20.15234-8.828124-4.81145.26889-7.52737-.94024-10.75781-3.41602-3.23044-2.47577-6.65187-6.459841-11.1875-10.882815v-.002c-4.07471-3.972954-9.52225-5.272276-14.65625-5.292969zm-.041 9.97461c.00074.000003.001-.000003.002 0 3.52993.01457 6.06496.835125 7.73242 2.460937 4.12443 4.021996 7.60321 8.224186 12.08398 11.658206 4.48077 3.434024 10.28554 5.857464 17.38086 5.460944 6.78397-.37921 9.65521 1.63449 10.99024 3.9121 1.33502 2.27762 1.39799 5.91233-.83985 9.99219-3.69975 6.74491-5.69339 12.19703-5.80859 17.4082-.1152 5.21118 2.01854 9.80291 5.06445 13.44727 2.45771 2.94082 2.97448 6.18619 2.14844 9.11719-.82605 2.931-3.00087 5.56731-6.92774 6.96289h-.002c-11.08168 3.93982-15.66631 13.74565-18.48437 21.04492-2.16889 5.61884-8.00311 9.65428-14.74219 11.01563-6.73908 1.36134-13.75566-.16264-17.71875-4.12305-4.55978-4.5575-9.31695-7.88006-15.16211-9.48633s-12.39545-1.55412-20.98047-.52148c-6.41729.77201-11.63562-2.27253-14.20117-6.33789s-2.86293-8.58805 1.52734-13.22852c6.05409-6.39898 9.23221-14.4419 8.51172-22.5957s-5.26477-16.08349-13.16015-22.57032c-1.1956-.98235-1.50533-1.75347-1.58985-2.83007-.0845-1.0766.24727-2.58135 1.25-4.24219 2.00546-3.32169 6.62039-6.88207 12.56445-8.03125 6.38785-1.23536 12.77289-3.913744 18.14454-6.500004 5.37164-2.58626 9.84817-5.18547 11.4375-6.02344 4.80536-2.533909 14.04387-6.016323 20.77929-5.990233z" fill="#6c131e"/><path d="m-233.67812 80.048213c-8.27141-.03281-17.78794 3.750204-23.12618 6.565106-3.75364 1.979084-16.91322 9.855197-28.20299 12.038547-14.56531 2.815964-22.98647 16.835434-14.44466 23.853774 14.20177 11.66813 14.6931 26.78536 4.19205 37.88463-11.59721 12.25815.30692 29.94184 16.89206 27.94662 16.58541-1.99496 23.57888.14366 32.02252 8.58308 10.95587 10.94846 34.78134 6.55029 40.63868-8.62409 2.7186-7.04163 6.43044-14.9151 15.503-18.14063 10.66694-3.79095 13.84697-15.70911 6.93658-23.97787-5.12657-6.13383-5.71765-12.4841 1.28984-25.25924 5.75628-10.49443 1.23217-22.179234-14.79999-21.283084-11.90678.665424-17.04579-7.2644-25.70586-15.709374-2.87126-2.799557-6.86277-3.860007-11.19532-3.877469z" fill="#c20a0a" stroke-width="9.97479"/><path d="m-239.05243 95.443479c-25.8613 0-46.97079 21.099831-46.97079 46.963031 0 25.86295 21.10837 46.97284 46.97079 46.97284 25.86241 0 46.97078-21.10989 46.97078-46.97284 0-25.86249-21.10938-46.963031-46.97078-46.963031z" fill="#6c131e" stroke-width="1"/><path d="m-239.05234 105.15056c-20.60893 0-37.25677 16.64706-37.25677 37.25678 0 20.60945 16.64811 37.26471 37.25703 37.26471 20.6084 0 37.26498-16.655 37.26498-37.26445 0-20.60893-16.65632-37.25677-37.26498-37.25677z" fill="#c20a0a" stroke-width="9.97479"/><path d="m-920.52927 467.43942c-5.58909 1.05502-11.30953 2.76071-17.28515 5.22266l-28.51367 11.74805 29.24414 9.78906c3.26725 1.09376 6.49695 2.28987 9.67187 3.57226-17.47003 7.74917-32.36177 21.94399-43.49414 36.00977-7.71534 9.74835-14.67535 20.61841-20.2793 32.24023l-.96093 1.9961-.15235 2.21094c-.23924 3.48725-.37304 7.02705-.37305 10.61718 0 84.08701 68.22681 152.3418 152.31446 152.3418 11.53886 0 22.78934-1.28657 33.60351-3.71484l33.65625-7.5586-69.56836-31.29297-.40625-.14648c-27.95187-10.12052-47.95099-42.21489-52.66992-69.47266-2.35948-13.6289-.62176-25.44943 3.11328-31.5664 3.18078-5.20917 6.95916-7.81127 15.54493-7.10352l-.82227 2.23633 1.55664 4.03906c8.89965 23.09855 23.90307 44.20088 40.60352 60.44922 16.70041 16.24834 34.73237 28.04065 52.91601 30.49024l.57422.0781.58008.0195c.69051.0242 1.35402.005 2.00976-.0312 11.15653.43709 24.2631-3.74406 34.34375-14.89258l13.80274-15.25976 10.80859-9.32422c13.69459-19.03892 20.01888-46.78418 3.10742-72.88477l-3.02343-4.66797-5.53907-.52734c-19.53819-1.85745-32.26973-12.07115-36.52929-25.64453-4.10347-13.07622-15.35431-20.64424-27.18555-25.91797l-8.89648-3.9668-3.37696-6.12304c-8.03346-14.56562-15.58306-26.76765-26.81445-35.12305-6.37742-4.74395-14.09769-8.05702-22.95898-9.55273l-11.68358-.89832c-4.11065.0533-8.34623.44535-12.74609 1.04883l-27.91797 3.82812 12.48242 9.26758c-5.47103-1.64944-11.1903-2.71763-17.20708-2.7247z" fill="#6c131e" filter="url(#b)" stroke-width=".999999" transform="matrix(.26458334 0 0 .26458334 -16.706824 -11.275074)"/><path d="m-245.15593 112.10707c-.91879.0114-1.92688.10189-3.00757.25011 3.62909 2.69424 6.72573 5.95642 8.89713 9.28367.2185 0 .436.002.65268.006 2.37806.0514 4.67142.38253 7.00525.94775-2.06596-3.74584-3.9406-6.6063-6.24613-8.32146-1.81876-1.35291-3.95721-2.12812-6.91327-2.16576-.12728-.002-.25673-.002-.38809 0zm-12.06541 3.02203c-.0961-.00026-.19213.001-.28888.003-1.84876.0408-3.86455.51597-6.1681 1.46503 7.39507 2.4756 14.08254 6.64319 17.62632 11.00243 2.419-.67526 3.87541-1.93744 4.79867-3.79306-4.5746-3.86812-8.22392-6.76283-11.83958-7.9778-1.33845-.44991-2.6897-.69851-4.12843-.6997zm-.0269 6.94842c-5.18893.88958-10.43468 5.31303-13.95883 9.76581-1.9101 2.41342-3.63409 5.10876-5.01055 7.96334-.059.85931-.0915 1.72633-.0915 2.60087 0 20.60945 16.64824 37.2644 37.25716 37.2644 2.827 0 5.57882-.31496 8.2243-.90899l-9.97871-4.48862c-17.59126-6.36927-22.7459-37.4463-6.17017-34.33795.76847-1.86443 1.3055-3.68921 1.45004-5.45807l2.45205.20051c-.22167 2.71055-1.16183 5.32933-2.3735 7.88995-.0964.26788-.19385.54264-.28784.7984 4.32306 11.22029 14.9756 21.15159 22.31078 22.13974.12045.004.25066.00018.38861-.0114 2.23984.13624 4.72027-.5561 6.87245-2.93626l1.0511-1.1622-1.37873-.74466c-.85652-.46267-1.88073-.93387-2.39107-1.43815-.2551-.25221-.36764-.45674-.40462-.68368-.0371-.22706-.0171-.55641.29352-1.12913l1.40456-2.58744-2.82773.81907c-.82981.24023-2.27806-.39906-3.05718-1.40973-.38964-.50546-.57999-1.04083-.57722-1.4273.003-.38673.0947-.67486.62476-1.05989l2.56057-1.85932-3.14399-.3576c-1.31289-.14966-2.15479-.87662-2.52336-1.6185-.36883-.74161-.30446-1.32719.18086-1.75183l1.60662-1.4056-2.02158-.68523c-.88417-.29959-1.35519-.99424-1.36322-1.3994-.004-.18073.0312-.35086.24236-.58911 1.43874-.3146 2.79841-.0595 3.69745.83871.81006.80901 1.09902 1.99118.91829 3.26853 1.12546-.29669 2.23582-.21235 3.17397.32866 1.22943.7091 1.92827 2.06541 2.06292 3.68092 2.00239-1.33369 4.23209-1.67482 5.95777-.67955 2.03595 1.17416 2.81185 3.88489 2.21227 6.81199 3.15811-4.39057 4.55249-9.96713.73898-15.85278-6.15063-.58472-10.75346-4.03769-12.28039-8.90333-.66158-2.10821-2.80147-3.77387-5.52835-4.98936l-.0103.0284c-3.91473-1.42464-7.31537-2.28395-10.87324-2.466l.0103.0207c-.30197-.0123-.60054-.0211-.89039-.0227-1.25538 3.01096-3.77268 5.25211-7.56026 6.06217l-.77721.16588-.47078-.64027c-1.87128-2.54444-5.42717-5.32437-9.741-7.64398zm20.56309 8.59017c3.67608-.01 5.9067 1.52945 5.54023 5.85132-4.71821.44623-6.83582-2.19635-8.30234-5.61206.98816-.15204 1.91374-.2365 2.76211-.23874zm6.37222 8.73539-.00053.00052c.48809.009.93996.1307 1.31827.37001-.19876.14506-.38114.29988-.54726.46612-.69053.68976-1.06472 1.59563-1.04748 2.46703.0241 1.22707.69376 2.2622 1.66915 2.96985-.41332 1.0666-.32296 2.29758.185 3.31969.50192 1.00936 1.38757 1.87859 2.54093 2.42156-.19021.44309-.31245.90363-.31574 1.36012-.008 1.10663.44474 2.11151 1.08882 2.94711.89405 1.15968 2.21964 2.09764 3.68918 2.35748-.024.28697-.0268.57036.0176.84336.13822.84823.59402 1.53476 1.10277 2.0376.44888.4436.94669.77558 1.42162 1.05213-.8352.63079-1.63437.92865-2.45101 1.02526-.85758-1.04476-1.27816-2.51202-1.23868-4.14031-1.5489.81308-3.18674.94205-4.4912.18965-1.93077-1.11361-2.55272-3.82196-1.73581-6.62492-1.49218.36462-2.9127.12108-3.84163-.80718-1.16823-1.16692-1.25556-3.11007-.40773-4.99557-.48387-.081-.91643-.28481-1.25367-.62166-1.15941-1.1581-.75991-3.4343.89194-5.08445 1.03239-1.03133 2.30977-1.57405 3.40548-1.55339z" fill="#c20a0a" filter="url(#c)" stroke-width="6.08542"/></g></g></svg>