<svg height="500" viewBox="0 0 132.29167 132.29167" width="500" xmlns="http://www.w3.org/2000/svg" xmlns:xlink="http://www.w3.org/1999/xlink"><linearGradient id="a" gradientUnits="userSpaceOnUse" x1="116.132103" x2="22.66864" y1="0" y2="132.292314"><stop offset="0" stop-color="#d3b879"/><stop offset=".25" stop-color="#ebd6ad"/><stop offset=".5" stop-color="#ebd6ad"/><stop offset=".75" stop-color="#ebd6ad"/><stop offset="1" stop-color="#d3b879"/></linearGradient><filter id="b" color-interpolation-filters="sRGB" height="1.004663" width="1.005045" x="-.002522" y="-.002332"><feGaussianBlur stdDeviation=".37192677"/></filter><linearGradient id="c" gradientUnits="userSpaceOnUse" spreadMethod="repeat" x1="146.2298" x2="236.62149" y1="133.800104" y2="235.090124"><stop offset="0" stop-color="#2e2442"/><stop offset=".125" stop-color="#342a4b"/><stop offset=".25" stop-color="#322848"/><stop offset=".375" stop-color="#322947" stop-opacity=".95"/><stop offset=".5" stop-color="#322a46" stop-opacity=".98"/><stop offset=".75" stop-color="#2e2442" stop-opacity=".97"/><stop offset=".90573049" stop-color="#34284e"/><stop offset="1" stop-color="#2e2442"/></linearGradient><filter id="d" color-interpolation-filters="sRGB" height="1.006074" width="1.005927" x="-.002964" y="-.003037"><feGaussianBlur stdDeviation=".35225928"/></filter><filter id="e" color-interpolation-filters="sRGB" height="1.008763" width="1.008521" x="-.00426" y="-.004381"><feGaussianBlur stdDeviation=".12334782"/></filter><filter id="f" color-interpolation-filters="sRGB" height="1.034965" width="1.037099" x="-.018549" y="-.017482"><feGaussianBlur stdDeviation="2.7894508"/></filter><path d="m250.4707 499.98252c51.835.039 104.53834.44093 157.50391-5.34765 23.52703-2.57129 63.66601-11.94336 63.66601-11.94336l20.95704-4.78907-8.40625-19.79687c-3.62583-17.49004-4.76016-37.13347-3.75586-52.85156 2.74125-40.11079 16.93348-78.89745 19.56445-119.01563.82783-12.6231.69137-24.46921.34447-42.18006-.34689-17.71086-3.70393-41.24364-10.31713-63.95285-2.60935-14.83079-5.05012-29.7543-6.34961-45.51563-2.71116-32.88338-4.95912-70.15255 6.76172-98.751949l9.07227-22.13086c-31.31324-3.171506-61.13792-7.4347299-87.3418-9.5429685l-13.60547 11.3652345-1.34961-12.5097658-15.11718-.9667968c-21.86813-1.39044747-38.84642-1.91868801-56.31446-2.02539065-5.82268-.03556755-16.5078-.02734375-22.63867-.02734375l-72.83689.32721653c-19.69041.32721654-47.16904 3.59837407-76.59084 5.94817407l-4.60938 8.8105474-.25781.496093-1.24609-7.4980466-16.01758.8046875c-16.98083.8557334-36.820718 3.3800201-54.957034 13.3808591-16.734322 9.227747-31.341428 23.054127-40.964844 40.189453-16.465591 29.318407-21.106486 61.290856-25.148437 87.197266-3.2490518 20.82441-5.7994558 41.62795-7.5839844 62.33594-1.94377399 12.57614-2.92389106 25.28234-2.93299587 38.00781l.00135527 27.97852c.01436867 46.72872-.62894005 93.96404 2.7929688 141.26953.9407191 13.00478 4.1699656 29.03511 14.3300782 43.82422 4.451018 6.4789 9.806394 11.40397 15.326172 15.69335 5.505744 4.27854 8.50915 8.11081 19.365234 9.82422 9.832331 1.66322 30.066099 3.74157 58.570317 5.875l12.77148.95899 10.22852-23.69336 15.71484 25.27344 9.36523.50195c25.46458 1.34785 54.43325 2.49136 81.95508 2.47266z" fill="#857347" stroke-width="3.77953" transform="scale(.26458334)"/><path d="m43.667127 6.1988049-6.649318 12.7232891-1.962733-11.8144838c-4.151997.209236-8.734935.8884646-12.483913 2.9557488-3.6649 2.020923-6.931432 5.134922-8.987607 8.796119-3.5936294 6.398768-4.9680452 14.21181-6.1007497 21.471745-1.7239508 11.049459-2.2092041 22.267477-2.7292176 33.438734-.5652131 12.142264-1.0750022 24.437952.6932615 36.463853.4873297 3.31431 1.1113893 6.8345 3.0041972 9.58967 1.4496055 2.11005 4.6865666 4.54405 6.0084106 4.7506 2.08291.35408 7.610648.94421 15.101134 1.50483l4.966963-11.50761 7.650707 12.30431c6.689358.35408 14.283448.65398 21.429996.64914 14.613556-.01 29.290534.20101 43.819142-1.38681 5.49586-.60065 16.3028-3.06871 16.3028-3.06871s-.84033-3.54005-1.04149-5.34358c-.4-3.58629-.56178-7.22034-.32107-10.82083.70788-10.588463 4.87617-20.80543 5.17179-31.413411.37415-13.42584-4.11707-26.631272-4.32122-40.060773-.14104-9.278493-1.4412-19.010796 2.14288-27.7560998-5.56781-.6078373-8.70335-1.1802678-14.75182-1.6700785l-8.93248 7.4651953-.88126-8.1733574c-7.610636-.4839091-12.854008-.5661144-19.284287-.5223869-5.84986.0397806-11.26574-.2361191-17.111594-.014796-6.768804.2562659-14.283499.9292252-20.732522 1.4396922z" fill="url(#a)" stroke-width="4.7625"/><g><path d="m382.60547 57.701172c-46.76988.545626-84.42289 34.435087-112.89156 68.255218-9.9307 17.57068-26.33529 28.48209-44.49075 36.2941-45.33647 23.86607-92.44923 47.21803-128.433793 84.5737-13.71125 10.00648-11.54221 25.81323-9.625695 40.55112 2.251862 18.2242-1.499794 36.90727-12.187841 52.01962-6.799093 21.07951 28.052469 18.83588 42.255699 21.86523 15.62779 11.93369 10.12785 59.69296 10.12785 59.69296s24.92577 18.24032 37.10153 19.59837c12.80688-6.64685 35.58066-7.65055 41.79422-16.96432-2.68123-21.35099-28.89141-31.98573-22.49438-53.36353-3.5953-13.42328 6.96392-25.41808 17.72204-12.52481 14.13743 16.47962 32.26708 28.47542 49.20026 41.8742 20.38799 17.73851 68.94266-9.85892 68.94266-9.85892s-13.74692-13.26216-19.24957-20.06281c-25.08774-16.37767-48.46565-36.0567-67.06452-59.49163 13.59131-6.24748 34.86639-7.92784 48.87045-18.79239 11.63592-6.37911 6.29456 22.76466 7.40954 32.12151.91511 14.08939-7.31386 33.7921 10.89364 39.18964 17.45575 12.72291 35.18795 29.79672 56.73956 14.74688 11.09741-5.49833 41.03731-5.84017 21.89379-21.51954-10.48305-11.24666-43.0436-34.54603-11.62558-40.38109 24.56528-4.34506 25.39258-33.83426 31.22222-53.09314-.41712-16.30257-2.77204-32.0267 13.88005-41.16581 10.06091-18.43226 12.91462-40.74096 14.57742-61.70148 1.29433-24.91126-.13754-49.94289.81758-74.805742-3.98488-19.82052-27.76151-27.009808-45.38482-27.057336zm.75976 17.621094c11.70966-6.968918 40.85191 20.440444 15.70295 15.316616-40.26794-5.733254-76.53545 24.995018-93.11592 59.381478-3.94626 15.99439-38.13971-7.16727-20.15557-15.20232 25.87945-27.71924 57.11251-58.672745 97.56854-59.495774zm26.43672 53.775214c.26581 28.58979.23558 58.98322-14.28936 84.58552-20.34742 19.17892-24.76853-19.27559-33.42383-30.568-13.22635-10.5617-9.59093-29.01562-13.26192-40.98144-23.14934-2.62603-11.98437 32.89404-3.40842 44.09597 9.01819 17.4117 2.64006 38.8526-12.80325 50.39734-10.43076 14.55799 3.87433 36.56397 1.65702 54.41731 4.04964 16.20157-4.86544 38.90987 1.66 50.72235 9.82668 2.71232 30.20345 17.86091 9.81402 21.09408-18.16502 2.56228-43.60016-12.897-38.95491-34.44916 2.8596-24.12173.68635-49.76141-11.90263-71.05207-22.71912 26.66981-59.24775 35.9573-93.02929 36.28124-1.50113 26.10228-29.96636 39.71491-34.97602 61.60767 1.41218 17.69927-12.09317 41.34229 9.58672 48.59254 16.95935 17.27653-18.43573 20.57704-25.49333 6.62754-13.53986-10.22455-5.05861-33.19052-8.6747-49.00842-.47345-28.21317-3.64643-56.20597-7.71343-84.08832-2.31156-20.57787.77406-45.18473 20.74734-56.39699 38.87986-21.90612 78.20415-43.17248 117.85349-63.73245 11.53563 4.91384 27.27735 22.33495 36.05437 19.04576 11.9139-29.73773 31.61932-62.8956 65.37964-70.04514 16.11608-4.0561 42.82837-.30337 35.17849 22.85467zm-51.12226 100.30096c25.95594 5.50746 27.07674 36.60638 17.28016 55.95395-4.91144 22.07968-39.37392 17.81539-25.06198-4.17561 14.15481-6.489 9.38316-30.6099-5.8292-34.05297-1.23746-7.79166 11.98519-9.59509 13.61102-17.72537zm-237.48633 18.37695c-4.61248 31.56936 5.54281 62.65824 6.29102 94.11523-14.94373 8.67739-42.143425-2.63616-24.30469-20.47592 9.83857-20.86468-9.017943-48.24473 8.65783-64.79592 3.04263-3.02785 6.27184-5.85884 9.35584-8.84339zm89.07617 64.79102c22.43916 25.84223 46.73012 50.63462 75.69336 69.19531-16.85404 11.34235-30.88667 1.14114-43.77838-10.89218-14.65852-11.6909-28.48785-24.38562-41.84857-37.5297 4.16005-6.47896 7.29833-13.55622 9.93359-20.77343z" fill="url(#c)" filter="url(#b)" opacity=".95" transform="matrix(-.21737712 .06134787 .06134787 .21737712 102.04477 8.495616)"/><g stroke-width="3.45091" transform="matrix(.25053926 .14560957 -.14560957 .25053926 164.87708 29.30402)"><path d="m-233.65799 75.060863c-.007-.000026-.013.002-.0195.002-9.80064-.03336-19.58638 4.045083-25.45313 7.138671-2.16431 1.141119-6.14429 3.468932-11.11328 5.861329-4.96899 2.392403-10.80902 4.743423-15.71094 5.691413-8.62123 1.66677-15.49799 6.523314-19.20898 12.669924-1.8555 3.0733-2.93803 6.56573-2.6543 10.17969.28373 3.61395 2.12392 7.22905 5.19922 9.75586 6.30637 5.18129 9.10824 10.64358 9.55859 15.74023.45036 5.09665-1.37531 10.163-5.82226 14.86328-7.20693 7.61766-7.35029 18.06404-2.7168 25.40625s13.66029 12.14313 23.82813 10.91992c8.00037-.96231 13.23766-.83978 17.14648.23438 3.90883 1.07415 6.87005 3.04191 10.75391 6.92383 6.99276 6.98803 17.36719 8.73991 26.74414 6.8457 9.37694-1.89422 18.38381-7.64565 22.07226-17.20117 2.61913-6.78398 5.45807-12.72705 12.52149-15.23828 6.74006-2.39537 11.48635-7.61325 13.18945-13.65625 1.70311-6.043.35698-12.89082-4.0957-18.21875h-.002c-2.08066-2.48946-2.80364-4.13888-2.74415-6.83008.0595-2.6912 1.27236-6.80182 4.58008-12.83203 3.51844-6.41456 4.19717-13.86964.70117-19.83399-3.49599-5.964344-10.90416-9.345074-20.15234-8.828124-4.81145.26889-7.52737-.94024-10.75781-3.41602-3.23044-2.47577-6.65187-6.459841-11.1875-10.882815v-.002c-4.07471-3.972954-9.52225-5.272276-14.65625-5.292969zm-.041 9.97461c.00074.000003.001-.000003.002 0 3.52993.01457 6.06496.835125 7.73242 2.460937 4.12443 4.021996 7.60321 8.224186 12.08398 11.658206 4.48077 3.434024 10.28554 5.857464 17.38086 5.460944 6.78397-.37921 9.65521 1.63449 10.99024 3.9121 1.33502 2.27762 1.39799 5.91233-.83985 9.99219-3.69975 6.74491-5.69339 12.19703-5.80859 17.4082-.1152 5.21118 2.01854 9.80291 5.06445 13.44727 2.45771 2.94082 2.97448 6.18619 2.14844 9.11719-.82605 2.931-3.00087 5.56731-6.92774 6.96289h-.002c-11.08168 3.93982-15.66631 13.74565-18.48437 21.04492-2.16889 5.61884-8.00311 9.65428-14.74219 11.01563-6.73908 1.36134-13.75566-.16264-17.71875-4.12305-4.55978-4.5575-9.31695-7.88006-15.16211-9.48633s-12.39545-1.55412-20.98047-.52148c-6.41729.77201-11.63562-2.27253-14.20117-6.33789s-2.86293-8.58805 1.52734-13.22852c6.05409-6.39898 9.23221-14.4419 8.51172-22.5957s-5.26477-16.08349-13.16015-22.57032c-1.1956-.98235-1.50533-1.75347-1.58985-2.83007-.0845-1.0766.24727-2.58135 1.25-4.24219 2.00546-3.32169 6.62039-6.88207 12.56445-8.03125 6.38785-1.23536 12.77289-3.913744 18.14454-6.500004 5.37164-2.58626 9.84817-5.18547 11.4375-6.02344 4.80536-2.533909 14.04387-6.016323 20.77929-5.990233z" fill="#6c131e" stroke-width="3.45091"/><path d="m-233.67812 80.048213c-8.27141-.03281-17.78794 3.750204-23.12618 6.565106-3.75364 1.979084-16.91322 9.855197-28.20299 12.038547-14.56531 2.815964-22.98647 16.835434-14.44466 23.853774 14.20177 11.66813 14.6931 26.78536 4.19205 37.88463-11.59721 12.25815.30692 29.94184 16.89206 27.94662 16.58541-1.99496 23.57888.14366 32.02252 8.58308 10.95587 10.94846 34.78134 6.55029 40.63868-8.62409 2.7186-7.04163 6.43044-14.9151 15.503-18.14063 10.66694-3.79095 13.84697-15.70911 6.93658-23.97787-5.12657-6.13383-5.71765-12.4841 1.28984-25.25924 5.75628-10.49443 1.23217-22.179234-14.79999-21.283084-11.90678.665424-17.04579-7.2644-25.70586-15.709374-2.87126-2.799557-6.86277-3.860007-11.19532-3.877469z" fill="#c20a0a" stroke-width="34.422"/><path d="m-239.05243 95.443479c-25.8613 0-46.97079 21.099831-46.97079 46.963031 0 25.86295 21.10837 46.97284 46.97079 46.97284 25.86241 0 46.97078-21.10989 46.97078-46.97284 0-25.86249-21.10938-46.963031-46.97078-46.963031z" fill="#6c131e" stroke-width="3.45091"/><path d="m-239.05234 105.15056c-20.60893 0-37.25677 16.64706-37.25677 37.25678 0 20.60945 16.64811 37.26471 37.25703 37.26471 20.6084 0 37.26498-16.655 37.26498-37.26445 0-20.60893-16.65632-37.25677-37.26498-37.25677z" fill="#c20a0a" stroke-width="34.422"/><path d="m-920.52927 467.43942c-5.58909 1.05502-11.30953 2.76071-17.28515 5.22266l-28.51367 11.74805 29.24414 9.78906c3.26725 1.09376 6.49695 2.28987 9.67187 3.57226-17.47003 7.74917-32.36177 21.94399-43.49414 36.00977-7.71534 9.74835-14.67535 20.61841-20.2793 32.24023l-.96093 1.9961-.15235 2.21094c-.23924 3.48725-.37304 7.02705-.37305 10.61718 0 84.08701 68.22681 152.3418 152.31446 152.3418 11.53886 0 22.78934-1.28657 33.60351-3.71484l33.65625-7.5586-69.56836-31.29297-.40625-.14648c-27.95187-10.12052-47.95099-42.21489-52.66992-69.47266-2.35948-13.6289-.62176-25.44943 3.11328-31.5664 3.18078-5.20917 6.95916-7.81127 15.54493-7.10352l-.82227 2.23633 1.55664 4.03906c8.89965 23.09855 23.90307 44.20088 40.60352 60.44922 16.70041 16.24834 34.73237 28.04065 52.91601 30.49024l.57422.0781.58008.0195c.69051.0242 1.35402.005 2.00976-.0312 11.15653.43709 24.2631-3.74406 34.34375-14.89258l13.80274-15.25976 10.80859-9.32422c13.69459-19.03892 20.01888-46.78418 3.10742-72.88477l-3.02343-4.66797-5.53907-.52734c-19.53819-1.85745-32.26973-12.07115-36.52929-25.64453-4.10347-13.07622-15.35431-20.64424-27.18555-25.91797l-8.89648-3.9668-3.37696-6.12304c-8.03346-14.56562-15.58306-26.76765-26.81445-35.12305-6.37742-4.74395-14.09769-8.05702-22.95898-9.55273l-11.68358-.89832c-4.11065.0533-8.34623.44535-12.74609 1.04883l-27.91797 3.82812 12.48242 9.26758c-5.47103-1.64944-11.1903-2.71763-17.20708-2.7247z" fill="#6c131e" filter="url(#d)" stroke-width="3.4509" transform="matrix(.26458334 0 0 .26458334 -16.706824 -11.275074)"/><path d="m-245.15593 112.10707c-.91879.0114-1.92688.10189-3.00757.25011 3.62909 2.69424 6.72573 5.95642 8.89713 9.28367.2185 0 .436.002.65268.006 2.37806.0514 4.67142.38253 7.00525.94775-2.06596-3.74584-3.9406-6.6063-6.24613-8.32146-1.81876-1.35291-3.95721-2.12812-6.91327-2.16576-.12728-.002-.25673-.002-.38809 0zm-12.06541 3.02203c-.0961-.00026-.19213.001-.28888.003-1.84876.0408-3.86455.51597-6.1681 1.46503 7.39507 2.4756 14.08254 6.64319 17.62632 11.00243 2.419-.67526 3.87541-1.93744 4.79867-3.79306-4.5746-3.86812-8.22392-6.76283-11.83958-7.9778-1.33845-.44991-2.6897-.69851-4.12843-.6997zm-.0269 6.94842c-5.18893.88958-10.43468 5.31303-13.95883 9.76581-1.9101 2.41342-3.63409 5.10876-5.01055 7.96334-.059.85931-.0915 1.72633-.0915 2.60087 0 20.60945 16.64824 37.2644 37.25716 37.2644 2.827 0 5.57882-.31496 8.2243-.90899l-9.97871-4.48862c-17.59126-6.36927-22.7459-37.4463-6.17017-34.33795.76847-1.86443 1.3055-3.68921 1.45004-5.45807l2.45205.20051c-.22167 2.71055-1.16183 5.32933-2.3735 7.88995-.0964.26788-.19385.54264-.28784.7984 4.32306 11.22029 14.9756 21.15159 22.31078 22.13974.12045.004.25066.00018.38861-.0114 2.23984.13624 4.72027-.5561 6.87245-2.93626l1.0511-1.1622-1.37873-.74466c-.85652-.46267-1.88073-.93387-2.39107-1.43815-.2551-.25221-.36764-.45674-.40462-.68368-.0371-.22706-.0171-.55641.29352-1.12913l1.40456-2.58744-2.82773.81907c-.82981.24023-2.27806-.39906-3.05718-1.40973-.38964-.50546-.57999-1.04083-.57722-1.4273.003-.38673.0947-.67486.62476-1.05989l2.56057-1.85932-3.14399-.3576c-1.31289-.14966-2.15479-.87662-2.52336-1.6185-.36883-.74161-.30446-1.32719.18086-1.75183l1.60662-1.4056-2.02158-.68523c-.88417-.29959-1.35519-.99424-1.36322-1.3994-.004-.18073.0312-.35086.24236-.58911 1.43874-.3146 2.79841-.0595 3.69745.83871.81006.80901 1.09902 1.99118.91829 3.26853 1.12546-.29669 2.23582-.21235 3.17397.32866 1.22943.7091 1.92827 2.06541 2.06292 3.68092 2.00239-1.33369 4.23209-1.67482 5.95777-.67955 2.03595 1.17416 2.81185 3.88489 2.21227 6.81199 3.15811-4.39057 4.55249-9.96713.73898-15.85278-6.15063-.58472-10.75346-4.03769-12.28039-8.90333-.66158-2.10821-2.80147-3.77387-5.52835-4.98936l-.0103.0284c-3.91473-1.42464-7.31537-2.28395-10.87324-2.466l.0103.0207c-.30197-.0123-.60054-.0211-.89039-.0227-1.25538 3.01096-3.77268 5.25211-7.56026 6.06217l-.77721.16588-.47078-.64027c-1.87128-2.54444-5.42717-5.32437-9.741-7.64398zm20.56309 8.59017c3.67608-.01 5.9067 1.52945 5.54023 5.85132-4.71821.44623-6.83582-2.19635-8.30234-5.61206.98816-.15204 1.91374-.2365 2.76211-.23874zm6.37222 8.73539-.00053.00052c.48809.009.93996.1307 1.31827.37001-.19876.14506-.38114.29988-.54726.46612-.69053.68976-1.06472 1.59563-1.04748 2.46703.0241 1.22707.69376 2.2622 1.66915 2.96985-.41332 1.0666-.32296 2.29758.185 3.31969.50192 1.00936 1.38757 1.87859 2.54093 2.42156-.19021.44309-.31245.90363-.31574 1.36012-.008 1.10663.44474 2.11151 1.08882 2.94711.89405 1.15968 2.21964 2.09764 3.68918 2.35748-.024.28697-.0268.57036.0176.84336.13822.84823.59402 1.53476 1.10277 2.0376.44888.4436.94669.77558 1.42162 1.05213-.8352.63079-1.63437.92865-2.45101 1.02526-.85758-1.04476-1.27816-2.51202-1.23868-4.14031-1.5489.81308-3.18674.94205-4.4912.18965-1.93077-1.11361-2.55272-3.82196-1.73581-6.62492-1.49218.36462-2.9127.12108-3.84163-.80718-1.16823-1.16692-1.25556-3.11007-.40773-4.99557-.48387-.081-.91643-.28481-1.25367-.62166-1.15941-1.1581-.75991-3.4343.89194-5.08445 1.03239-1.03133 2.30977-1.57405 3.40548-1.55339z" fill="#c20a0a" filter="url(#e)" stroke-width="21.0002"/></g><path d="m382.60547 57.701172c-43.97362.136284-76.9506 42.918578-112.89156 68.255218-15.64275 11.02738-29.06331 24.96746-44.49075 36.2941-41.31917 30.33605-99.03674 42.58128-128.433793 84.5737-7.96733 11.38099-6.436845 27.02942-9.625695 40.55112-4.087895 17.33393-19.637514 35.84314-12.187841 52.01962 6.633897 14.40507 32.903669 9.05686 42.255699 21.86523 11.90114 16.29958-1.70416 43.34312 10.12785 59.69296 8.19984 11.3308 23.13257 18.89656 37.10153 19.59837 15.01637.75444 36.0343-3.07606 41.79422-16.96432 7.39507-17.83093-27.79782-34.80274-22.49438-53.36353 1.98738-6.95537 10.49562-12.84985 17.72204-12.52481 21.51404.96769 28.51239 35.89067 49.20026 41.8742 22.30064 6.44999 61.37573 12.08789 68.94266-9.85892 3.02095-8.76183-12.5693-13.63865-19.24957-20.06281-21.53928-20.71349-72.3928-30.08757-67.06452-59.49163 3.11197-17.17335 33.45871-26.98302 48.87045-18.79239 9.70316 5.15678 4.70251 21.47183 7.40954 32.12151 3.3402 13.14064 1.2259 29.68343 10.89364 39.18964 13.93388 13.70106 37.8611 19.79422 56.73956 14.74688 9.88577-2.64306 19.29424-11.62224 21.89379-21.51954 3.55831-13.54758-13.38081-26.48441-11.62558-40.38109 2.57275-20.3692 22.69329-34.41747 31.22222-53.09314 6.01562-13.17232 9.8976-27.24324 13.88005-41.16581 5.81195-20.31848 12.01674-40.72382 14.57742-61.70148 3.02152-24.753 13.01576-53.05614.81758-74.805742-8.61554-15.361688-27.77215-27.111922-45.38482-27.057336zm.75976 17.621094c7.26558.822173 16.45203 8.043139 15.70295 15.316616-3.77136 36.619248-56.33135 60.826458-93.11592 59.381478-8.40883-.33032-20.57041-6.79724-20.15557-15.20232 1.87781-38.046217 59.71758-63.77899 97.56854-59.495774zm26.43672 53.775214c11.49367 26.18302 12.75014 75.28388-14.28936 84.58552-14.2769 4.91128-25.25759-17.86906-33.42383-30.568-7.76595-12.07646.99633-42.67054-13.26192-40.98144-14.64013 1.73434-1.01656 29.54879-3.40842 44.09597-2.8121 17.1031-10.91477 33.16779-12.80325 50.39734-1.97725 18.03947 1.08405 36.27885 1.65702 54.41731.5341 16.90807-2.26391 34.26723 1.66 50.72235 1.79885 7.54359 16.02934 16.45603 9.81402 21.09408-13.89236 10.36689-30.54822-19.29009-38.95491-34.44916-11.64635-21.00088 8.97907-59.19336-11.90263-71.05207-28.94302-16.43672-67.85603 14.50577-93.02929 36.28124-17.85978 15.44913-31.1956 38.29768-34.97602 61.60767-2.64302 16.2968 18.36813 34.61191 9.58672 48.59254-4.67015 7.43521-18.10423 11.37032-25.49333 6.62754-13.96154-8.96137-6.46926-32.56559-8.6747-49.00842-3.7418-27.8973-11.37677-56.18061-7.71343-84.08832 2.607-19.86036 7.63318-41.25601 20.74734-56.39699 29.23949-33.75852 73.19324-63.5149 117.85349-63.73245 13.59174-.0662 22.65138 21.30402 36.05437 19.04576 31.49494-5.30656 33.67756-66.16322 65.37964-70.04514 13.8799-1.69959 29.55777 10.05046 35.17849 22.85467zm-51.12226 100.30096c19.21326 3.44972 30.12491 41.25489 17.28016 55.95395-5.57281 6.37732-19.0601 1.79967-25.06198-4.17561-8.16118-8.125-8.5963-22.87426-5.8292-34.05297 1.78996-7.2312 6.27882-19.04186 13.61102-17.72537zm-237.48633 18.37695c29.27515 11.46948 34.34172 79.91164 6.29102 94.11523-9.45088 4.78549-20.48452-10.59531-24.30469-20.47592-7.858084-20.32438-1.27274-45.39969 8.65783-64.79592 1.95566-3.81977 5.36025-10.40879 9.35584-8.84339zm89.07617 64.79102c33.55619-6.52612 91.84845 39.06855 75.69336 69.19531-7.1065 13.25253-30.49212-3.84895-43.77838-10.89218-16.555-8.77603-38.18384-19.15427-41.84857-37.5297-1.5012-7.5272 2.39931-19.30814 9.93359-20.77343z" fill="url(#c)" filter="url(#f)" opacity=".25" transform="matrix(-.21737712 .06134787 .06134787 .21737712 102.04477 8.495616)"/></g></svg>