<svg height="500" viewBox="0 0 132.29167 132.29167" width="500" xmlns="http://www.w3.org/2000/svg"><g stroke-width="1.11744" transform="matrix(.89489687 0 0 .89489687 -115.9991 -3.688312)"><g stroke-width="1.11744"><g><path d="m220.04493 138.11938c3.66231 2.06644 8.12209 2.44859 12.31836 2.72071 4.35339.2823 9.04294.60605 13.03711-1.14844 2.2712-.99766 4.57559-2.63863 5.49609-5.01758 2.13506-5.76401-.64904-10.82306-1.91972-13.03542-1.27069-2.21236-1.95083-3.03337-2.66035-3.97829l.1239-13.42214-3.37577-5.728504-22.81793 6.747394-3.81693 4.37235c.51881 2.45697.94911 6.1568 1.23437 8.00746-.99357 1.48689-1.9654 3.04301-2.84428 5.65376-.87888 2.61074-1.02358 6.59402.18509 9.53378.92659 2.25367 2.91786 4.09747 5.04006 5.29492z" fill="#5e5c64" stroke-width="1.11744"/><path d="m241.68073 108.74762-.30316-5.5188c-3.38085 1.8918-6.82521 2.37024-10.38737 2.71296-3.57196.34366-10.74358-.68467-10.74358-.68467.13827 1.45999.46669 3.10236.84193 4.87937.62048 2.93842 1.369 6.12014 1.59757 8.53434-1.3791 2.03972-2.49992 3.6084-3.15848 5.56311-.70793 2.10269-.64777 4.42812.0665 7.32695.68848 2.25919 3.43763 2.39858 5.38271 3.1161 2.43053.89659 5.05661 1.2674 7.64348 1.40695 3.68114.19859 7.60095.53562 11.029-.82036 1.10751-.43808 2.16486-.5822 2.78032-2.24416 1.32073-3.56558-.41264-6.97223-1.93426-9.62014-1.1566-2.01324-2.41903-3.64504-2.96247-4.3177zm-4.88594 8.60922-9.49012-.42496-.34192-3.61512c2.97266.67466 6.39639 1.21827 9.87546 1.01122zm5.21013 13.38389c-2.91178.54475-6.02315.79664-9.03424.59378-3.0344-.20442-6.06585-.8626-8.94168-1.81411-.81661-3.06714.78627-5.42216 2.18425-7.52944l12.02321.61695c1.69526 2.39387 3.70579 5.07384 3.76846 8.13282z" fill="#77767b" stroke-width="10.6437"/></g><g><path d="m676.61713 182.92815s-39.28116-3.12881-58.72267-6.20355c-7.44778-1.17789-15.45449-1.17764-22.13133-4.68144-9.24192-4.84989-22.73718-21.52747-22.73718-21.52747s-9.20176 8.60722-12.69587 13.78572c-3.68108 5.45559-6.32108 11.61547-8.46094 17.83921-2.63122 7.65282-4.91747 15.61115-5.28516 23.69532-.78405 17.2385 2.0875 34.69591 6.63672 51.34179 4.9243 18.01834 10.56331 36.79768 22.08008 51.50391 8.47083 10.81675 19.82999 20.56633 32.88477 24.84766 19.38505 6.35735 45.91762.47114 61.19726-.8125 24.80848-2.08414 47.88124-7.13186 76.16571-9.95755 28.28448-2.82568 47.49288-4.239 62.98811-5.64792 41.80021-3.80073 80.71209-7.5987 122.51284-11.39844 12.87126-1.16847 25.73494-2.41827 38.60678-3.58008 20.88167-20.35775 28.07397-48.82661 26.13867-75.16992-1.31406-16.53219-8.71505-27.06145-18.8298-36.11919-4.53463-4.06076-17.02278-6.61052-17.02278-6.61052l-16.45002 3.975c-4.04202 1.46627-16.06349-2.80073-20.32195-2.18634z" fill="#593e26" stroke-width="4.22343" transform="scale(.26458334)"/><path d="m245.69187 76.143674c2.89922-.263543 8.69765-.790575 8.69765-.790575 4.89929-4.958292 4.74385-9.761299 4.33335-14.925676-.20856-2.623883-1.85156-4.923896-3.37199-7.14031-1.37543.498947-2.79873.855702-4.24723 1.064683 1.1532 4.722283 1.4903 8.420281 1.29382 12.937067 0 0-5.53625.422451-8.30447.632354-12.24906.928796-24.5013 1.816158-36.74807 2.774686-1.58941.1244-3.17314.359765-4.76719.386291-4.58537.0763-9.28712.432616-13.74246-.654314-2.37104-.57844-4.57433-1.77859-6.65215-3.058848-2.98311-1.838055-5.71982-4.097806-8.2169-6.555846-2.87027-2.825389-5.52053-6.153415-7.6835-9.324975l-14.9427-4.568743c-.80014 2.53936-1.86763 5.265625-1.96285 7.711728-.1458 4.089533.52762 8.221779 1.59438 12.172421 1.12768 4.176278 2.38588 8.536083 5.02047 11.967105 1.64125 2.137401 3.83199 4.113445 6.39497 4.946121 4.54208 1.475659 9.56184-.03104 14.32085-.430844 6.14973-.516633 12.20801-1.836331 18.33932-2.538575 1.71749-.196712 3.4433-.312416 5.16493-.468842 4.10019-.37254 8.20031-.745847 12.30048-1.118658 11.05975-1.005618 22.11952-2.010901 33.17929-3.01625z" fill="#7d5735" stroke-width="10.6437"/><path d="m195.9412 76.071442c1.4505.286743 3.07964-.341588 4.26191-1.229518 1.18523-.890157 1.72651-2.426651 2.37463-3.75973.7595-1.562179 1.74635-4.909734 1.74635-4.909734-5.50136-.04054-9.0552 2.41813-17.8131-1.801471 0 0 1.04529 4.313542 2.32468 6.057156 1.78933 2.438582 4.13833 5.056724 7.10553 5.643297z" fill="#593e26" stroke="#32281b" stroke-width="5.32184"/><path d="m915.69336 221.125-16.10742 1.22461-125.5586 9.56055 18.64063 40.91015c24.84132 54.94708 29.21585 69.88245 21.93164 122.53285l-2.54102 18.34375 18.41211 2.01563c23.13596 2.53326 45.93495 4.45235 65.66797.73046 11.09828-2.09529 20.95394-5.81386 28.73047-13.40625 7.00373-6.83788 11.86585-18.79005 11.79688-31.01757-.27924-50.15578-2.14143-63.84849-14.77344-117.57582z" fill="#593e26" stroke-width="4.22343" transform="scale(.26458334)"/><path d="m238.37722 63.579777-26.42041 2.011555 2.10385 4.616414c6.97098 15.411451 8.21082 20.41367 6.18596 35.049364 5.98302.65511 11.82423 1.02923 15.97369.24659 2.35162-.44397 4.08464-1.22766 5.15726-2.27488s1.70047-2.37993 1.68698-4.771764c-.0735-13.206947-.57494-16.47244-3.81039-30.167539z" fill="#7d5735" stroke-width="10.6437"/><path d="m543.17383 87.482422c-2.54503 22.859138 1.80179 47.475878 10.56445 65.322268 8.3689 16.66137 22.11189 31.37829 38.84888 37.13846 13.14719 4.52213 36.48195 5.24907 56.32497 2.20596 19.65539-3.01434 33.10605-10.78757 53.31701-24.93295l13.241-11.17905-7.16307-17.63408c-6.57521-.30045-15.35567-1.12244-22.8943-2.58975-13.53908-2.63521-27.52397-4.93988-39.86004-11.11016-13.94937-6.97723-25.8209-11.19677-37.08593-28.531245-7.83401-10.979431-22.59135-14.342458-35.4331-15.5512-10.16777-.957051-19.65996 2.71378-29.85987 6.861747z" fill="#593e26" stroke-width="4.22343" transform="scale(.26458334)"/><path d="m150.76571 38.29291c1.5501 2.924003 3.8276 5.856153 6.86329 7.174178 4.63282 2.011461 10.23299 1.327443 15.1509.177164 3.60488-.843166 9.89606-5.042097 9.89606-5.042097s-9.25445-1.136689-13.39788-3.096909c-4.67189-2.210234-8.73046-4.001559-12.2809-9.46494-.37148-.5715-3.31782-1.734683-5.13636-1.972888-1.20948-.158426-2.96333.113396-3.63881.388033-.30983 3.788834.65335 8.271647 2.5437 11.837459z" fill="#7d5735" stroke-width="10.6437"/></g><g><path d="m956.30078 254.13672s-1.24585-12.60485-2.43555-18.81641c-3.75085-19.58366-7.15155-39.54234-14.78515-57.96289-3.33293-8.04265-7.52264-15.97626-13.33774-22.45524-5.85117-6.51917-7.6063-11.94478-21.01795-15.77556-29.74167-2.49959-60.5935-2.88293-90.91536-3.41045-9.08331-.15802-18.17076-.0902-27.25395.0737-26.09295.47087-53.09839 1.23105-78.24801 2.61316-1.95086 1.74735-3.46391 3.16046-5.26045 4.66578-5.40262 4.52686-10.70304 9.23326-16.58348 13.1193-4.69573 3.10313-9.78102 5.58621-14.8294 8.07482-6.08563 2.99992-12.06529 6.45198-18.60736 8.25077-11.37241 3.12693-35.13193 4.2109-35.13193 4.2109s10.40151 17.80548 16.5118 26.08595c7.03738 9.53682 13.70811 19.80108 23.09961 27.03125 24.73055 19.03915 51.25317 40.85242 84.37011 40.60156z" fill="#110e09" stroke-width="4.22395" transform="scale(.26458334)"/><path d="m241.19924 43.885109c-.87566-1.00748-2.34739-2.288646-3.13267-2.494492-9.19903-.492919-15.15885-.611087-22.74279-.720819-2.39062-.03459-4.78207-.02132-7.17259.01971-6.28544.107867-12.74233.261938-18.84971.595313-1.14484.997651-2.2698 2.022054-3.50335 2.905125-2.15476 1.542538-4.37764 3.030917-6.77634 4.157262-2.33612 1.096959-4.95978 1.992711-7.33045 2.492244 1.67376 2.277269 3.56129 4.533636 5.63483 6.598709 5.47688 5.454914 12.02611 9.40726 18.84363 9.355137l51.48395-3.919802c-.67488-5.210183-1.74079-9.639214-3.59251-14.133777-.71557-1.736853-1.62971-3.436809-2.862-4.85461z" fill="#32281b" stroke-width="10.6437"/><path d="m244.76953 26.230473c-1.29879 5.080786-2.41688 8.654683-3.51203 11.345772l-3.19093 3.867037c1.29653.444286 2.43085 1.68581 3.36815 2.807229 1.22121 1.461102 2.04758 3.227559 2.82078 4.967768.80389 1.80927 1.86731 5.638296 1.86731 5.638296s3.33722-.17326 4.98084-.452114c1.43911-.244157 2.82259-.748551 4.24762-1.064683 1.65362-.366844 3.69759.131208 4.98905-.964774.72119-.61203.73086-1.750125.98477-2.661294.92478-3.318719 1.80386-6.67755 1.94297-10.151206.20848-5.205966-3.36218-8.571841-3.93967-12.279846s-1.52247-5.458257-2.85767-6.438904-2.73595-1.230385-5.09748-1.036609c-2.36154.193775-5.65715 2.721919-6.60371 6.423328z" fill="#110e09" stroke-width="1.1176"/><path d="m249.38439 27.409542c-1.38827 5.430838-3.37609 10.631488-4.51829 13.438188 1.00172 1.463674 1.89515 2.887613 2.70746 4.408972.77513 1.451732 1.48952 2.971435 2.05879 4.487381 1.39489-.140229 5.49329-.474398 7.00327-1.051719 1.33509-3.55547 1.74645-6.153706 1.87325-9.319948.18276-4.563575-2.19849-8.233439-4.268-13.605933-.13964-1.03194-.88085-1.39377-1.65659-1.399251-1.28378.154912-2.68634 1.034123-3.19989 3.04231z" fill="#32281b" stroke-width="10.6437"/><path d="m181.62671 41.324771c-2.76501 1.76749-8.84681 4.319481-8.84681 4.319481s4.5041 1.855866 6.86693 2.400666c3.66766.845657 7.46135 1.034352 11.21461 1.317046 7.99558.602221 16.023.799835 24.04123.804481 9.78938.0057 19.61927.09577 29.35283-.948166 1.61949-.173692 4.80615-.881502 4.80615-.881502-1.07021-2.791091-2.46248-5.30835-4.26883-7.574925-.99037-1.242697-2.17664-2.369153-3.52613-3.208197-.57533-.357708-1.22853-.604567-1.89169-.743069-7.8544-1.640411-16.03203-.762778-24.05469-.902348-2.40329-.04181-4.80768-.02387-7.21094.0195-6.90376.124584-14.04895.325715-20.70312.691399-1.48676 1.278263-3.68635 3.367597-5.77954 4.705634z" fill="#110e09" stroke-width="1.1176"/><path d="m208.15119 40.689508c-6.47647.05768-12.74233.261938-18.84971.595313-1.14484.997651-2.42502 2.084466-3.50335 2.905125 18.16788 1.322123 35.73278 1.756833 55.63659.0079-.89778-1.055528-2.03578-2.426664-3.36815-2.807229-9.19903-.492919-17.94722-.724429-22.74279-.720819-4.79557.0036-5.98778.0091-7.17259.01971z" fill="#32281b" stroke-width="10.6437"/></g></g><path d="m625.38281 229.67383c-16.23299 0-31.3457 10.92586-31.3457 26.88086 0 14.452 12.40268 24.77584 26.80469 26.58984 1.6817 16.8174 3.59205 33.60611 5.61523 50.38477 4.78704 61.84798 3.2899 124.65962-6.49609 188.84961l17.79297 2.71289c10.02001-65.72999 11.53385-130.03644 6.63086-193.18946-2.15985-16.97573-3.86956-34.00219-5.67969-51.01757 10.31697-4.116 18.02539-12.94008 18.02539-24.33008 0-15.955-15.11364-26.88086-31.34766-26.88086zm-.002 18c8.45201 0 13.34766 5.08391 13.34766 8.8789 0 3.79401-4.89565 8.87696-13.34766 8.87696-8.45099 0-13.34766-5.082-13.34766-8.875 0-3.796 4.89766-8.88086 13.34766-8.88086z" fill="#593e26" stroke="#32281b" stroke-width="20.114" transform="scale(.26458334)"/></g></svg>