<svg height="500" viewBox="0 0 500 500" width="500" xmlns="http://www.w3.org/2000/svg" xmlns:xlink="http://www.w3.org/1999/xlink"><linearGradient id="a"><stop offset="0" stop-color="#73380d"/><stop offset="1" stop-color="#301603"/></linearGradient><linearGradient id="b" gradientUnits="userSpaceOnUse" x1="300.29846140954" x2="300.12334766634" xlink:href="#a" y1="379.2893274945" y2="454.71302273297"/><linearGradient id="c" gradientUnits="userSpaceOnUse" x1="300.29732487501" x2="300.29846140954" xlink:href="#a" y1="319.8124531433" y2="376.24246493048"/><linearGradient id="d" gradientUnits="userSpaceOnUse" x1="220.10983058727" x2="220.1080529307" xlink:href="#a" y1="324.58280912254" y2="453.66344766639"/><linearGradient id="e" gradientTransform="matrix(.60937085 0 0 .60937085 -661.05052 182.57896)" gradientUnits="userSpaceOnUse" x1="1566.2216" x2="1588.9965" xlink:href="#f" y1="277.79492" y2="317.80896"/><linearGradient id="f" gradientTransform="matrix(391.593 0 0 -391.593 60.7962 7618.49)" gradientUnits="userSpaceOnUse" spreadMethod="pad" x1="0" x2="1" y1="0" y2="0"><stop offset="0" stop-color="#9f571d"/><stop offset=".511236" stop-color="#fde791"/><stop offset="1" stop-color="#b7671e"/></linearGradient><linearGradient id="g" gradientUnits="userSpaceOnUse" x1="300.33083807266" x2="300.10938869097" xlink:href="#a" y1="208.79628199079" y2="265.86737793548"/><linearGradient id="h" gradientUnits="userSpaceOnUse" x1="300.33083807266" x2="299.9584627339" xlink:href="#a" y1="167.12423517489" y2="220.61209419846"/><linearGradient id="i" gradientTransform="matrix(.60937085 0 0 .60937085 -661.05052 182.57896)" gradientUnits="userSpaceOnUse" x1="1399.8105" x2="1492.2168" xlink:href="#f" y1="277.79492" y2="277.79492"/><linearGradient id="j" gradientUnits="userSpaceOnUse" x1="156.66747927736" x2="159.67463307345" xlink:href="#a" y1="251.86486784783" y2="38.14621442442"/><linearGradient id="k" gradientUnits="userSpaceOnUse" x1="284.64044" x2="235.20288" xlink:href="#a" y1="116.15264" y2="-48.964535"/><g transform="matrix(1 -.1055529 0 1 0 21.269853)"><path d="m196.68151 74.819983c-45.4355.263356-93.40295 9.177161-138.695182 12.71322-7.84337 49.166747-7.021503 92.908207.675227 142.205627 1.13892 16.60824-1.77218 33.46937-2.3598 50.16529-3.11509 48.97129-2.098746 89.41052 4.952984 138.04834 79.368211 6.14458 159.158271 7.62668 238.647871 2.8727 14.97291-.83279 29.94212-1.84043 44.91089-2.79302 8.69423-59.52023 6.26488-111.06267 1.16834-170.83089-1.64558-17.71389 2.88447-35.20949 3.475-52.89642 2.61721-37.84276.33539-75.92689-5.39239-113.388948-48.99959-4.318848-98.19311-6.310459-147.38294-6.095899z" fill="#301603"/><path d="m332.52176 404.94704c7.28254-57.06514 4.24611-104.93214-.82885-161.91093l.18214-14.03827c6.55544-44.58961 6.39298-89.63375-.0146-135.174088-8.55659-.73355-16.17933-1.24671-25.04596-1.87503-33.90597-2.23065-69.18644-3.31561-104.52195-3.27244v-.00006.002c-35.28077.0432-70.51436 1.20616-104.384895 3.36278-8.3087.55011-17.58918 1.19847-25.22162 1.80879-6.62789 45.158648-7.2408 90.178558-.0393 135.157528l.30279 14.05337c-5.02885 57.49154-6.705036 105.60649.604514 161.89286 24.7997 1.97655 48.910071 2.82942 74.744841 4.04044 36.66327 1.16428 73.15456 1.11485 109.48858-.0571 24.53137-1.09221 51.74307-2.27991 74.73426-3.98929z" fill="url(#j)"/></g><path d="m240.91797 16.033203c-41.06488.02612-85.38409 2.553044-125.55469 17.628906-24.58276 9.225811-45.989023 30.237208-57.376952 53.871094-5.880039 12.20311-3.293692 40.503927-3.293692 40.503927s15.625313-14.42223 24.760489-19.68947c5.071168-2.92398 10.723692-4.78917 16.345703-6.41993 7.282152-2.112315 14.870422-5.630414 22.335942-4.304683 9.59121 1.70321 17.20486 9.280183 25.0371 15.072263 4.47974 3.31285 12.43732 11.16695 12.43732 11.16695l-1.62573 14.97355 13.52252 3.63021 280.15353-8.09187s.0316-14.36044-1.69263-21.25586c-2.82905-11.31403-5.98233-16.510451-13.96493-32.079238-7.9826-15.568776-17.30973-33.678816-35.76758-42.978505-48.04328-24.205835-105.74657-22.058868-155.3164-22.027344z" fill="#301603"/><path d="m170.69194 115.97539c3.455 2.88348-29.69481-30.314532-49.70645-34.095875-16.29848-3.079714-48.299465 11.970277-48.299465 11.970277 9.117563-21.217226 27.653665-37.459307 48.299465-45.207592 37.03048-13.89739 79.58061-16.582464 119.94309-16.608135 49.83087-.03169 105.23071-1.286151 148.10578 20.315762 22.17258 11.171301 40.83203 63.599973 40.83203 63.599973z" fill="url(#k)" stroke-width="32"/><g transform="matrix(1 -.07444036 0 1 0 12.416041)"><path d="m155.60919 123.86226c-5.19942 42.49087-5.55174 85.66543 1.0583 128.00261 1.13892 16.60824-1.77218 33.46937-2.3598 50.16529-3.11509 48.97129-2.8478 98.36015 4.20393 146.99797 79.36822 6.14458 159.15828 7.62668 238.64788 2.8727 14.97291-.83279 29.94212-1.84043 44.91089-2.79302 8.69423-59.52023 7.01393-120.0123 1.91739-179.78052-1.64558-17.71389 2.88447-35.20949 3.475-52.89642 1.90143-27.4932 1.21707-55.1138-1.4959-82.53069" fill="#301603"/><path d="m429.77865 436.02271c7.28254-57.06514 4.99516-113.88177-.0798-170.86056l.18214-14.03827c6.55544-44.58961 6.39298-89.63375-.0146-135.17408-8.55659-.73355-16.17933-1.24671-25.04596-1.87503-33.90597-2.23065-69.18645-3.31561-104.52195-3.27244v-.00006.002c-35.28077.0432-70.51436 1.20616-104.3849 3.36278-8.3087.55011-17.58918 1.19847-25.22162 1.80879-6.62789 45.15864-7.2408 90.17855-.0393 135.15752l.30279 14.05337c-5.02885 57.49154-7.45409 114.55612-.14454 170.84249 24.7997 1.97655 48.91008 2.82942 74.74485 4.04044 36.66327 1.16428 73.15456 1.11485 109.48858-.0571 24.53137-1.09221 51.74307-2.27991 74.73426-3.98929z" fill="url(#b)"/><path d="m231.67509 398.79083c4.58198 1.08799 9.15091 2.10763 13.70879 3.04145 18.38202 3.76607 36.58467 6.13589 54.7413 5.96025 18.51482-.17922 36.76145-2.2195 54.75081-5.80824 4.73352-.94432 9.44926-1.99584 14.14737-3.14887l-.10316-109.91169-13.87848-3.12048c-19.15373-4.82325-41.49998-5.83407-54.74352-5.88072-17.08185.16523-34.90108 1.45919-54.74509 5.85297l-13.87919 3.12323z" fill="#73380d" stroke="#301603" stroke-linecap="round" stroke-linejoin="round" stroke-width="15.4209"/><path id="l" d="m199.28753 394.24475v57.52019c7.71817.41635 33.93829 1.5901 41.64105 1.89851l-.15999-60.58341c-3.7473 2.14813-16.81121 9.88505-20.99028 9.801-4.00328-.0801-16.99486-6.62541-20.49078-8.63629z" fill="#301603" stroke-width=".771045"/><path d="m300.2982 279.92253c-22.11233.24246-47.22243 3.51748-68.62428 8.9762l-.00017 56.26012c4.25568 1.31025 9.56108 2.881 13.88015 4.36263 14.33356 4.91703 35.95016 10.22663 54.74418 10.19475 22.66842-.0321 34.33151-4.31178 54.74442-9.73961l13.8784-4.81751-.0007-56.23538c-23.43587-5.86221-44.42594-9.26363-68.622-9.0012z" fill="url(#c)" stroke="#301603" stroke-linecap="round" stroke-linejoin="round" stroke-width="15.4209"/><path id="m" d="m240.92858 231.57685c-7.72202-.43794-33.94138-3.84349-41.64105-4.42948v172.61196c.96774 3.11927 4.39058 6.58068 8.46633 9.13576 4.04624 2.5366 8.73596 4.17994 12.30585 3.70848 4.54386-.19117 8.19852-1.33216 11.12693-2.98393 5.13096-2.89411 8.03247-7.35626 9.58131-11.02464z" fill="#301603" stroke-width=".771045"/><path id="n" d="m231.67372 409.33627v44.32718c-7.71815-.31074-15.4286-.67697-23.13136-1.08872v-43.20145c3.74727 2.14814 7.71817 3.31011 11.89724 3.22607 4.00328-.0801 7.73823-1.2522 11.23412-3.26308z" fill="url(#d)" stroke-width=".771045"/><path id="o" d="m208.54434 228.7458c7.72126.58599 15.43172 1.0981 23.13139 1.53607l-.002 160.85233c-4.73192 5.56232-8.6539 7.53295-11.51601 7.59001-2.87908.0577-6.70462-1.63547-11.61539-7.54784z" fill="url(#d)" stroke-width=".771045"/><path id="p" d="m293.35925 351.56813h13.87837v24.67434h-13.87837z" fill="url(#e)" stroke="#000" stroke-width="6.09372"/><use height="100%" transform="matrix(-1 0 0 1 600.59735 .000769)" width="100%" xlink:href="#l"/><use height="100%" transform="matrix(-1 0 0 1 600.59735 .000769)" width="100%" xlink:href="#m"/><use height="100%" transform="matrix(-1 0 0 1 600.59735 .000769)" width="100%" xlink:href="#n"/><use height="100%" transform="matrix(-1 0 0 1 600.59735 .000769)" width="100%" xlink:href="#o"/><path d="m300.32434 110.8038c-47.24437.57848-86.04167 1.69197-129.6324 5.17159-6.62792 45.15865-7.24022 90.17999-.0385 135.15899 85.00017 9.32042 171.38443 9.41033 259.2282-.009 6.55541-44.58962 6.39088-89.63372-.0146-135.17404-43.08667-3.53692-91.38224-5.14761-129.54276-5.1475z" fill="url(#g)" stroke="#301603" stroke-linecap="round" stroke-linejoin="round" stroke-width="15.4209"/><path d="m268.68578 200.86375c-18.49896-2.59843-30.34223-7.8454-38.06117-15.56357-11.43461-11.43153-11.28582-26.49239-11.28582-38.82913v-5.85533l5.77054-.98539c25.01582-4.2716 50.08332-6.44749 75.16159-6.466l.002-.002c25.07906-.0192 50.16966 2.11729 75.23404 6.46908l5.75203.9985v5.83837c0 11.99285 1.29766 27.06758-9.7846 38.74508-7.64259 8.05281-19.78115 13.36763-39.56236 15.87199z" fill="url(#h)" stroke="#301603" stroke-linecap="round" stroke-linejoin="round" stroke-width="15.4209"/><path d="m293.01925 195.93776h13.87837v24.67434h-13.87837z" fill="#808000"/><path id="q" d="m195.00005 331.29282v41.13253h50.216v-41.13253h-50.21477zm11.38884 11.38643h27.44069v18.35848h-27.44192v-18.3573z" fill="url(#i)" stroke="#000" stroke-width="6.09372"/><use height="100%" transform="translate(160.33114)" width="100%" xlink:href="#q"/><use height="100%" transform="translate(.032412 -155.10902)" width="100%" xlink:href="#p"/></g></svg>