<svg height="500" viewBox="0 0 500 500" width="500" xmlns="http://www.w3.org/2000/svg" xmlns:xlink="http://www.w3.org/1999/xlink"><linearGradient id="a" gradientUnits="userSpaceOnUse" x1="488.56978614461" x2="135.32205749088" y1=".10752399066" y2="500.1099627923"><stop offset="0" stop-color="#d3b879"/><stop offset=".25" stop-color="#ebd6ad"/><stop offset=".5" stop-color="#ebd6ad"/><stop offset=".75" stop-color="#ebd6ad"/><stop offset="1" stop-color="#d3b879"/></linearGradient><linearGradient id="b" gradientUnits="userSpaceOnUse" spreadMethod="repeat" x1="39.99081119133" x2="126.45593110015" xlink:href="#c" y1="-68.44241213699" y2="-6.58410633187"/><linearGradient id="c"><stop offset="0" stop-color="#2e2442"/><stop offset=".125" stop-color="#342a4b"/><stop offset=".25" stop-color="#322848"/><stop offset=".375" stop-color="#322947" stop-opacity=".95"/><stop offset=".5" stop-color="#322a46" stop-opacity=".98"/><stop offset=".75" stop-color="#2e2442" stop-opacity=".97"/><stop offset=".90573049" stop-color="#34284e"/><stop offset="1" stop-color="#2e2442"/></linearGradient><linearGradient id="d" gradientUnits="userSpaceOnUse" spreadMethod="repeat" x1="-21.24253" x2="1.6347" xlink:href="#c" y1="110.1505" y2="126.517177"/><filter id="e" color-interpolation-filters="sRGB" height="1.033891" width="1.015422" x="-.007711" y="-.016946"><feGaussianBlur stdDeviation=".82357594"/></filter><path d="m358.99777 495.41517c21.47962-2.2019 63.66601-11.94336 63.66601-11.94336l20.95704-4.78907-8.40625-19.79687c-3.62583-17.49004-4.76016-37.13347-3.75586-52.85156 2.74125-40.11079 16.93348-78.89745 19.56445-119.01563.82783-12.6231.69137-24.46921.34447-42.18006-.34689-17.71086-3.70393-41.24364-10.31713-63.95285-2.60935-14.83079-5.05012-29.7543-6.34961-45.51563-2.71116-32.88338-4.95912-70.152546 6.76172-98.751946l9.07227-22.13086c-31.31324-3.1715-61.13792-7.4347298-87.3418-9.5429698l-13.60547 11.3652398-1.34961-12.5097698s-10.07565-.6859371-15.11718-.9668c-13.86608-.772476-27.72912-2.12697108-41.61587-1.97564485-29.86578.32545225-52.19457 3.18124915-89.388 6.19834485l-4.60938 8.8105498-.25781.49609-1.24609-7.4980498-16.01758.80469c-16.98083.8557398-36.82072 3.3800198-54.95703 13.3808598-16.73433 9.22775-31.341427 23.05413-40.964847 40.18945-16.46559 29.31841-21.10648 61.290856-25.14843 87.197266-3.24906 20.82441-5.79946 41.62795-7.58399 62.33594-1.94377 12.57614-2.92389 25.28234-2.933 38.00781l.001 27.97852c.0144 46.72872-.62894 93.96404 2.79297 141.26953.94072 13.00478 4.16996 29.03511 14.33008 43.82422 4.45102 6.4789 9.80639 11.40397 15.32617 15.69335 5.50574 4.27854 8.50915 8.11081 19.365227 9.82422 9.83233 1.66322 30.0661 3.74157 58.57032 5.875l12.77148.95899 10.22852-23.69336 15.71484 25.27344s6.23948.44775 9.36523.50195c50.71245.87935 101.67748 2.30123 152.13314-2.87103z" fill="#857347" stroke-width="3.77953"/><path d="m214.68642 23.536074-25.13128 48.08802-7.41821-44.65316c-15.69258.79081-33.01392 3.35797-47.18329 11.17133-13.85159 7.63814-26.19754 19.40758-33.96891 33.24518-13.582222 24.18432-18.776862 53.713916-23.057952 81.153046-6.51572 41.76173-8.34975 84.16054-10.31515 126.38261-2.13624 45.89202-4.063 92.36391 2.6202 137.81614 1.84188 12.52652 4.20053 25.83118 11.35445 36.24442 5.47882 7.97499 17.713 17.17436 22.708952 17.95502 7.87241 1.33826 28.76465 3.56867 57.07515 5.68755l18.77277-43.49333 28.91606 46.50448c25.28261 1.33825 39.49891 2.61983 59.2727 2.45344 30.03686-.25276 60.14702-1.58217 89.96122-5.24149 20.74399-2.54606 61.61688-11.59827 61.61688-11.59827s-3.17605-13.37972-3.93634-20.19621c-1.51181-13.55448-2.12326-27.28947-1.21349-40.89762 2.67545-40.01939 18.42962-78.6347 19.54692-118.72785 1.41411-50.74333-15.56058-100.65363-16.33217-151.4108-.53306-35.068316-5.44705-71.851816 8.09908-104.904936-21.04369-2.29734-32.89455-4.46085-55.75491-6.31211l-33.76056 28.21491-3.33074-30.89143c-47.92331-1.679481-41.26902-2.680471-61.90481-2.03027-18.95638.597285-32.26231 3.51203-56.63657 5.44135z" fill="url(#a)" stroke-width="18"/><path d="m121.282 340.90606c15.97959-.26089 56.84299-4.81994 84.78975-10.24712 6.63128-1.28777 19.56687-5.27516 19.56687-5.27516 13.95767-5.47871 41.35133-11.80509 55.43945-16.6968-6.84839-10.43564-7.89196-22.17681-2.2828-26.1554 3.45681 3.91336 15.4581 13.37147 24.39361 19.37196 5.08739-1.17401 9.39211-1.82624 12.39235-1.63057 21.7844 1.56535 47.48278 37.89429 59.2229 60.72225 4.30471 1.89146 8.9358 5.54396 9.06624 10.43566.0652 2.34803.3903 15.45835-5.93632 19.11082-6.84841 3.91337-16.56635.26062-22.56686-4.82675-3.9786-3.4568-4.5656-12.1312-4.5656-12.1312-11.21833-1.82623-30.32839-3.84894-33.32864-18.71973-18.15242 20.33743-45.28877 38.52343-69.65855 58.51779 22.37858-5.09901 47.78023-21.02364 67.93244-40.03501l.00019.00015c3.45458 2.99285 7.3307 5.23758 10.99108 6.68534 5.05382 1.99891 9.81952 3.04623 14.16432 3.81784.93877 3.24837 2.54378 7.05923 6.76559 10.72738.0352.0308.0712.0614.10703.0917 4.32773 3.66917 9.517 6.59733 15.57575 8.18853 6.05881 1.59118 13.54164 1.80056 20.40895-2.12357.015-.008.03-.017.0444-.0255 8.50623-4.91078 10.11072-12.73929 11.06115-18.19871.94892-5.45098.77484-10.1462.74014-11.39235-.16188-6.06871-3.16154-11.0009-6.28539-14.214-1.89036-1.94439-3.87855-3.35114-5.88024-4.55286-6.28233-11.66262-15.13921-25.41412-25.64583-37.42163-11.47669-13.11621-24.33169-25.1425-41.37067-26.36687-.0259-.002-.0518-.003-.0777-.005-3.57096-.23288-6.93742.20884-10.37069.83822-3.25972-2.31495-6.63295-4.69576-9.74776-7.16305-4.31596-3.41873-8.26095-7.05128-8.63312-7.47261-2.58044-2.92068-6.44196-4.3706-10.307-3.87006-1.90378.24643-3.71811.95589-5.28407 2.06624-7.52946 5.34067-9.06202 14.09398-8.43312 21.25859.20958 2.3875.72844 4.75645 1.38089 7.1121-13.46933 3.79946-31.13148 8.32804-42.97704 12.89808-.36787.11005-13.22664 3.95536-18.14011 4.90954-27.05236 5.2535-68.66881 9.80461-82.74262 10.03439-6.40788.10494-11.54786 5.32883-11.54903 11.73757z" fill="url(#b)" opacity=".95"/><path d="m292.23242 201.77344-76.37695 13.63672-97.44922 17.40039-27.511717 4.91406-.07032 19.95703 10.890637-1.94726v109.63085h-10.435555v30.00195h144.794925v-30.00195h-10.43555v-131.79687l70.04883-12.52735zm-86.16016 35.29687v128.29492h-84.79101v-113.13086zm-114.792965 170.03711v30.00195h87.146485l1.7168-3.97656 2.47266 3.97656h53.45898v-30.00195zm0 41.74219v14.1875c4.976754 4.1528 10.156995 7.45566 13.015625 7.90234 7.8724 1.33826 28.7657 3.56863 57.07617 5.6875l11.98828-27.77734zm98.636715 0 18.65626 30.0039h27.50195v-30.0039z" fill="url(#b)" opacity=".95"/><path d="m269.42188 195.52148c-24.38197.91139-52.69217 19.73268-77.85938 24.22657-33.55628 5.99186-85.48318-12.54145-100.667969 17.97656-3.042498 6.11473 7.403284 11.69793 9.291019 18.26172 1.57723 5.48413 1.2743 11.35005 1.52929 17.05078 1.3752 30.74528 9.68574 63.11597 0 92.32812-1.832362 5.52641-8.603177 8.47946-10.435543 14.00586-1.677988 5.06081-3.770106 12.22599 0 15.9961 2.085237 2.08523 4.33231 4.04067 6.714844 5.87109-2.382167 1.83021-4.629894 3.78419-6.714844 5.86914-7.071523 7.07152-7.071523 22.93043 0 30.00196 1.572296 1.57229 3.255369 2.87757 5.015625 3.99609-2.230141 2.19223-3.962096 4.75892-5.015625 7.74414-4.29037 12.15696 18.012133 19.81942 30.109373 24.27539 12.79258 4.7121 29.69443 8.90652 40.88281 1.11719 7.33532-5.10683 13.82175-18.12768 8.61524-25.39258-2.72106-3.79683-6.72292-6.99758-11.44336-9.61523 6.53972-1.22034 12.94818-2.125 18.98242-2.125h18.19531c5.43791 0 11.50917 1.52483 17.44727 2.73242-10.17328-.96506-20.29315 1.57023-24.15234 9.00781-5.63375 10.85755 10.27135 24.37016 21.1289 30.00391 7.40576 3.84268 19.12966 5.89963 25.0293 0 7.07198-7.07199 7.07198-22.93193 0-30.00391-3.72358-3.72358-9.48729-6.46759-15.72656-7.95899 6.06341.72129 11.65034.29498 15.72656-3.78124 7.07152-7.07153 7.07152-22.93044 0-30.00196-2.08495-2.08495-4.33268-4.03893-6.71484-5.86914 2.38253-1.83042 4.6296-3.78586 6.71484-5.87109 7.07152-7.07153 3.14738-20.5095 0-30.00196-1.83237-5.5264-8.60318-8.47945-10.43555-14.00585-2.725-8.21858-5.1649-19.02716 0-25.97657 11.51237-15.48995 41.45595-3.39363 55.43945-16.69531 4.61759-4.39244.67598-15.24886 6.41993-18.00977 12.78314-6.14439 28.49513 5.90314 40.22461 13.87696 22.48136 15.28306 54.03265 34.73639 53.08984 61.90429-.35104 10.11556-11.23417 20.73272-21.31641 21.625-10.2236.9048-16.1289-12.86258-25.13281-17.78906-7.19471-3.93657-14.69092-10.48193-22.79883-9.24804-27.18019 4.13638-79.49889 29.79856-63.75 52.33398 15.05592 21.54382 41.66208-40.88585 67.93164-40.0332 14.27945.46348 21.44312 21.2328 35.4375 24.10937 13.96032 2.86957 34.73221 4.12093 41.97071-8.15625 8.10653-13.74947-6.56854-31.85473-14.76172-45.55273-12.3651-20.67293-30.27923-38.35796-50.03125-52.14649-13.53012-9.44513-29.45792-24.31998-45.34375-19.85742-11.29647 3.17335-10.34708 22.43657-20.17578 28.8457-10.58896 6.90489-27.43596 15.3808-37.20313 7.35547-3.4969-2.87327-6.22975-6.5573-8.29297-10.75195-2.47702 8.22377-6.26253 15.7367-11.27343 21.41016-2.21585 2.50882-4.81296 4.81579-7.66016 6.93554 2.76709 1.42895 5.37044 3.08951 7.66016 5.11914 8.6574 7.67406 8.18052 26.52651 0 34.70703-19.98542 19.98542-64.8056 19.98542-84.79102 0-5.76503-5.76503-5.40811-18.35788 0-24.45898 2.16552-2.44301 4.70275-4.68527 7.4707-6.75391-2.69195-1.40052-5.23305-3.01585-7.4707-4.99218-19.21901-16.9746-16.45835-57.26288 0-76.92578 18.42896-22.0172 62.77382-33.59303 84.79102-15.16407 4.41651 3.69673 7.70806 8.61675 10.07812 14.20117 2.24687-6.74054 5.45605-12.8858 9.48828-17.70312 15.22483-18.18914 56.49547 6.93922 70.04883-12.52734 3.72827-5.35487 1.89927-15.53857-3.45508-19.26758-6.99295-4.87022-14.68322-6.55575-22.81054-6.25196zm-53.27149 55.75c-5.00156 15.00451-5.17958 32.96135 1.19531 45.92188 4.53183-15.04578 4.50355-32.49399-1.19531-45.92188zm-87.39844 82.88086c19.97162 10.3905 50.81996 5.4133 69.66016-8.61328-20.02666-10.34192-50.88425-5.41892-69.66016 8.61328z" fill="url(#d)" filter="url(#e)" opacity=".25"/><path d="m389.17383 78.873044c-11.81676-3.487217-24.73883-.329416-36.93437 1.42137-8.43964 1.211591-16.49482 4.335393-24.80403 6.24655-23.05363 5.302443-61.65653-7.849342-69.47436 14.477036-1.07455 3.06873 3.12523 6.52103 6.22188 7.51225 25.89053 8.28741 62.06241-42.329227 78.82314-20.926464 12.55767 16.035624-13.20679 41.194784-29.37891 53.576174-1.72908 1.32379-4.22572 2.01957-6.34939 1.53771-5.42071-1.22996-7.36771-10.47915-12.92593-10.53531-6.93839-.0701-9.97111 10.20713-16.39804 12.82262-2.61255 1.0632-6.59115 3.07807-8.4113.92334-3.75658-4.44711 9.77989-13.81424 4.78077-16.79711-4.39202-2.62063-6.99109 7.51899-10.99234 10.70452-5.68755 4.52804-12.79631 16.53138-18.33065 11.81732-5.42741-4.62297 14.43797-15.52439 8.58206-19.59095-7.9805-5.54195-11.40041 18.39868-20.93158 20.28506-3.17337.62806-8.73409-.36747-9.01633-3.59006-.2338-2.66947 7.27298-1.58274 6.83813-4.22691-.79794-4.85199-9.58248-4.44731-14.37087-3.32934-8.27613 1.93227-12.93814 21.2771-19.72225 16.15813-6.0361-4.55456 15.59795-17.10849 9.00937-20.81917-8.04972-4.53359-20.82711 14.69351-16.04578 22.5986 4.11399 6.80176 15.73791-2.26397 23.63179-3.19962 7.9327-.94025 15.87176-1.88417 23.84163-2.42538 7.9359-.5389 17.52332-5.63944 23.84854-.81653 2.87062 2.18881 2.93249 6.95053 2.5077 10.53535-1.17714 9.93387-19.20195 18.48791-13.57974 26.76185 3.53105 5.19647 13.45186 1.60893 18.76742-1.74016 9.42765-5.93993 8.74991-21.3741 17.15253-28.69254 7.12867-6.20887 17.55598-15.09812 26.10955-11.07264 7.65185 3.60112-1.02717 22.59625 7.25393 24.31153 11.39491 2.36025 18.0514-15.96164 22.4485-26.7357.99454-2.43689 3.05154-6.9059.60362-7.87296-10.58328-4.18095-10.80777 30.89552-21.35775 26.63123-6.45692-2.60988-.20583-14.17411 1.9256-20.80437 6.12628-19.05709 15.11445-38.83344 30.34711-51.820737 6.28145-5.355535 14.88885-7.949567 23.07918-8.977554 7.83626-.983546 20.6867 10.238317 23.51925 2.866004 1.50018-3.904528-6.25632-6.029236-10.26808-7.213139zm-196.71485 26.746096c-16.71673-1.96952-46.78451 6.86095-44.66445 23.55925.35692 2.81122 5.52322 2.65019 8.27201 1.96136 5.54289-1.38902 8.28111-14.79352 12.84408-11.3537 8.16615 6.1561-8.8764 18.42722-13.20681 27.69173-4.20615 8.99868-12.4335 17.16014-12.4083 27.09328.007 2.74784.79091 6.8689 3.47054 7.4774 7.75638 1.76135 10.49617-14.3696 18.40838-15.18241 15.02186-1.54317 29.26414 31.6554 40.07999 21.11713 2.05085-1.99822-1.78779-5.66937-3.80524-7.70131-8.78273-8.8458-30.69737-4.63794-33.40731-16.80514-1.64383-7.38054 9.51955-11.75649 14.02288-17.83058 7.37988-9.95397 22.77284-18.17841 21.28124-30.4796-.58102-4.79168-6.09339-8.98264-10.88701-9.54741zm-1.16601 5.25196c6.27098 5.32151-2.75431 16.75646-7.41455 23.53332-4.4437 6.46197-12.35614 19.60149-18.42345 14.63245-9.80563-8.03067 8.33555-24.90796 17.31644-33.85143 2.256-2.2466 6.094-6.37435 8.52156-4.31434zm110.18359 22.94531-12.93559 14.62861zm-27.44726 22.9375c11.50532 7.44394-6.18778 42.1234-18.72748 36.59704-8.0606-3.55238 4.89126-17.09767 9.24044-24.75778 2.4969-4.39774 5.2411-14.58638 9.48704-11.83926z" fill="url(#d)" filter="url(#e)" opacity=".25"/><path d="m389.17383 78.873044c-4.4787.0073-9.59459.278604-15.35547.810547-5.07069.468211-9.11011.883228-12.12891 1.251956-2.78822.34061-4.47041.621646-5.60155.906247-.20325-.394582-.49418-.712151-.85157-.955079-1.23627-.882575-2.53081-1.349176-3.81641-1.230467-1.76851.163298-3.35866 1.526165-5.13086 3.728518-21.40059 3.373311-41.99765 7.302834-61.7793 11.802732l-.002.000004c-5.51916 1.260466-10.41417 2.302693-14.68164 3.124999-6.86627 1.32008-11.49164 2.811719-14.07812 4.777349-1.5354 1.12313-2.50365 2.46604-2.36523 3.97266.0694.75507.35372 1.48697.79882 2.16991l.006.006.004.008c.79964 1.18184 2.06337 1.88695 3.39844 1.76367 1.38153-.12757 3.28366-.90529 6.19141-2.29688l-.00001-.002.002-.00001c17.00275-8.18413 43.54291-15.233869 79.22266-21.107414-8.84534 11.56795-15.98325 22.926574-21.27344 34.066404-3.4944 7.35832-6.19496 13.8557-8.10547 19.50977-2.4888 2.81405-5.99311 5.29302-10.45312 7.43944 1.53728-1.97654 2.86529-3.98567 3.74024-6.06054 1.35964-3.22429 1.97442-6.0358 1.75-8.47852l-.0667-.73631-.007-.0469c-.25031-1.35969-.92177-2.5155-1.97071-3.26563-1.04894-.75011-2.40067-1.08931-3.98242-1.11914l-.0547-.004-.0547.006c-2.43081.22445-5.50427 1.88527-9.14648 4.42382.016-.40229.13395-.8664.0996-1.24022-.0977-1.06382-.41601-2.01976-.99219-2.79493l-.0101-.0117-.006-.01c-1.06927-1.36379-2.68741-2.03715-4.44337-1.87501-1.50301.13879-2.82482.99912-3.80078 2.35157-.93001 1.25072-1.71124 2.78386-2.36133 4.58985-.00068.002.00084.004.00003.006l-.002.002c-.63506 1.72181-1.23006 3.49398-1.7832 5.31445-.5433 1.7881-1.08287 3.3945-1.61915 4.81641-.0968.25656-.19771.48446-.29687.71289-.823.85471-1.69631 1.6935-2.6289 2.51172-2.24511 1.96976-4.03959 3.23901-5.23634 3.78711-1.33331.61063-2.30736.90805-2.58398.93359-.58644.0541-.77703-.10274-1.00781-.39453.0207-.0925.0932-.5998.44336-1.45312.38719-.94348 1.0039-2.21762 1.84765-3.80078l.001-.006.002-.004c.66415-1.27129 1.1655-2.1885 1.48437-2.7207l.0254-.0391.125-.26563c.67947-1.21239 1.02786-2.40306.92188-3.55664-.0632-.68772-.29093-1.34726-.66993-1.91992l-.004-.006-.006-.006c-.2066-.30343-.52356-.46266-.79492-.68945.48975.0318.98723.0705 1.30664.041 1.20484-.11125 2.30925-.62916 3.17773-1.48632l.008-.01.0117-.0101c.90963-.94689 1.31874-2.2466 1.19335-3.61133-.0387-.42156-.11918-.84967-.24023-1.28517l-.0371-.1289-.0684-.11523c-.94901-1.59751-1.9085-2.70098-3.2832-2.82617-.74745-.10691-1.2257-.17636-1.69727-.13281l.00001.002c-1.1456.10578-2.18687.6979-2.99414 1.61914-.89569.98089-1.23539 2.34852-1.09765 3.84765l.002.0332.15235.94532.0468.11133c.34742.82404.72621 1.49356 1.19727 2.01563.0656.0726.17523.0678.2461.13477-.19533-.0133-.36701-.11998-.56641-.10157-1.29443.11953-2.48156.80809-3.48437 1.89453-1.00281 1.08645-1.86804 2.57394-2.65821 4.46875l-.008.0215-.008.0216c-.38766 1.06109-.69431 2.08094-.92188 3.0625-1.25788 1.11678-2.63783 2.21855-4.14844 3.30663l-.004.004h-.002c-2.61165 1.90312-4.73699 3.19833-6.30079 3.875-1.64283.71085-2.85054 1.07141-3.38866 1.12109-.70185.0648-1.10842-.0485-1.28321-.1621-.17478-.11357-.26763-.22606-.30859-.67188-.0675-.7341.32441-2.35223 1.2793-4.51172l-.22852.0488c.0761-.007.16755-.0741.24414-.0859.002-.004.002-.006.004-.009-.00017.004-.004.0122.002.008 1.33284-.20774 2.7421-1.08001 4.83789-2.61915l.002-.002c4.60853-3.36963 7.05306-6.79633 6.76954-10.33789l-.00002-.006-.00002-.006c-.18386-2.00122-1.55946-3.52144-3.5664-4.00586l-.002-.002-.006.00001c-.65132-.15282-1.31993-.19665-1.99024-.13476-1.99523.18423-4.03177 1.25031-6.17773 3.05468-.002.001-.004.001-.006.004-4.5919 3.6692-7.38446 7.83846-8.24413 12.38476-2.77035 2.7278-5.33193 4.87848-7.66406 6.42968l-.002.00001-.002.002c-2.96461 1.99175-5.27762 2.99731-6.68163 3.12695-.70157.0648-1.08294-.0604-1.27734-.20508-.19441-.14471-.34339-.36739-.39649-.94531-.0544-.59233.01-1.39541.21094-2.36329.68619-2.2146 1.98294-5.13928 3.90625-8.74219l.002-.004.002-.004c.63486-1.20598 1.20374-2.09803 1.66016-2.64843.45641-.55041.79879-.66452.73046-.65821.0581-.005.0997-.0273.31446.19141l.0156.0176.0157.0156c.15689.1454.25599.31608.29101.69727.0248.26973.003.60495-.0801 1.00195l-.0293.14648.0293.3086c.0327.35578.30532.82502.66015 1.01758.35484.19256.66372.18898.93359.16406.53198-.0491.99077-.27223 1.44532-.57813.55665-.3746.96975-.92906 1.26367-1.57617.33107-.72889.41686-1.56086.33398-2.46289l-.0367-.38871-.0159-.0644c-.47074-2.03161-1.75896-3.54321-3.60937-4.10742-1.59085-.52981-3.01951-.76907-4.30469-.6504-4.71497.43537-8.56339 3.44112-11.34765 8.64064l-.01.0195-.008.0196c-1.06089 2.20039-1.74345 4.27975-2.02539 6.24024-1.43545 1.32951-3.04387 2.63833-4.83398 3.92773l-.004.002-.002.002c-2.61165 1.90312-4.73502 3.19834-6.29883 3.87501-1.64283.71085-2.8525 1.07141-3.39061 1.12109-.70186.0648-1.10647-.0485-1.28126-.16211-.17479-.11357-.26764-.22606-.3086-.67188-.0674-.7341.32441-2.35222 1.2793-4.51171l-.22851.0489c.0761-.007.16559-.0741.24219-.0859.002-.004.002-.006.004-.009-.00017.004-.004.0122.002.008 1.33284-.20773 2.74405-1.07999 4.83985-2.61914l.002-.002c4.60853-3.36964 7.05304-6.79634 6.76952-10.33789l-.00002-.008-.002-.006c-.18386-2.00122-1.55947-3.51947-3.56641-4.0039l-.002-.002-.004.00001c-.65132-.15283-1.31994-.19862-1.99024-.13672-1.99524.18423-4.03176 1.25032-6.17773 3.05468-.002.001-.004.003-.006.006-6.14724 4.91199-9.07365 10.71935-8.44922 17.12891l.00001.002c.0001.00099.002.003.002.004.16997 1.83917.82699 3.47442 1.95898 4.79296.00061.00072.003.00072.004.002 1.4212 1.6865 3.58894 2.40656 6.10937 2.17384 1.2008-.11088 2.4973-.42473 3.90039-.92579 3.40927-1.16675 7.23496-3.87252 11.58985-8.08399.61452 2.7243 1.84809 4.8391 3.75 6.14063l.002.002c1.87101 1.30689 3.91321 1.9109 5.99413 1.71875.59759-.0552 1.20316-.17132 1.81446-.3457l.01-.004.01-.002c3.82329-1.17093 7.22089-3.14876 10.1543-5.9082 1.25318-1.14934 2.46698-2.33563 3.64648-3.55274.2383 1.62654.87112 3.07942 1.89453 4.27149l.002.002c1.42119 1.6865 3.58892 2.40656 6.10938 2.17383 1.20079-.11088 2.49924-.42473 3.90235-.92578 3.08154-1.0546 6.50083-3.36239 10.3457-6.90625.0643.59059.17268 1.15356.33007 1.6875.42144 1.53752 1.19175 2.78532 2.33203 3.57226 1.14232.78834 2.58593 1.07442 4.19922.94531l.0137-.002.76175-.0603c-4.97196 5.75927-8.92632 11.15964-11.83204 16.20312-4.55649 7.89191-6.70196 14.73429-6.27734 20.58594l.00002.0101.002.01c.16235 1.76704.64119 3.19906 1.59766 4.18945.95647.9904 2.35256 1.39199 3.86914 1.25196 3.66538-.33845 7.69644-3.96759 12.83399-10.52148 5.09718-6.46302 10.57507-16.65732 16.49608-30.44922.78801.16989 1.56364.35671 2.50782.26953 1.46634-.1354 3.12758-.55682 5.01172-1.2461l.006-.002c3.55405-1.27606 7.26558-3.01618 11.14062-5.21876 3.34328-1.88586 6.31511-3.75547 8.96093-5.61132-.33185 1.24342-.63304 2.45293-.86914 3.5957-1.54966 7.38473-2.18862 12.83925-1.8496 16.52929.22387 2.43669.71474 4.31045 1.63867 5.65626.92391 1.34579 2.41922 2.06237 4.02539 1.91406 2.06673-.19083 4.28326-1.55209 6.93163-3.89453l.0156-.0137.0176-.0156c3.33946-3.22422 6.41032-7.05299 9.22071-11.47657l.0136-.0196c4.92568-7.34665 10.52401-14.35153 16.79101-21.00975.38109-.39375.6329-.9935.58008-1.56837-.0718-.78109-.66785-1.57616-1.42383-1.81445-.30254-.0987-.50342-.19438-.9375-.15429-.53209.0491-.98018.31324-1.34766.64648l-.043.043-.041.0449c-7.01707 8.10661-12.27642 14.54938-15.79687 19.35156-2.18268 2.90617-4.1406 5.36218-5.86133 7.35938l-.002.002-.004.004c-1.6874 1.99663-3.46386 3.65672-5.32617 4.99806-.61608.39493-1.10252.57237-1.33399.59375-.17639.0163-.0842.0369-.13281-.0234-.0487-.0604-.18388-.34468-.23242-.87304-.28503-3.1024 1.59528-10.25576 5.85352-20.81055l-.00001-.002c3.24252-7.98718 7.50641-16.72523 12.79492-26.20898l.002-.002c5.31552-9.47176 11.33005-18.50793 18.04101-27.111321l-.002-.0018c1.67869-2.146441 2.83513-4.144742 3.4414-6.039062l.004-.0054.001-.0062c.16232-.528384.35739-.826458.45898-.921878l.006-.0035.006-.0035c.0181-.01745.55225-.304428 1.48828-.45703 1.01894-.163164 2.70658-.374488 5.03321-.624997l-.0136.0043c1.88317-.173886 4.30798-.434788 7.26757-.779296l2.01954-.187484c3.09049-.285366 6.48044-.473339 10.16797-.564452l.002-.000004.002-.000004c4.49018-.130305 8.40476-.01115 11.73633.349609l.004-.000018c1.6668.177031 2.929.435544 3.73046.730476.80147.294942 1.01213.600638 1.01953.625001l-.0273-.109381c.13598.738811.45712 1.42291 1.03321 1.874998.57609.452087 1.32487.593499 2.06249.525389.46611-.04304.92043-.191894 1.33399-.42383l.0196-.01186.0196-.01186c.80931-.503603 1.27324-1.504458 1.18555-2.458983l-.0176-.197264-.0273-.08988c-.60198-2.139282-2.09286-3.653931-4.14649-4.140622-1.79531-.468202-3.65698-.672297-5.57616-.611331l-1.42384-.07812-.008-.0023c-1.35155-.05637-2.77467-.08251-4.26757-.08008zm-196.71485 26.746096c-1.24317.005-2.48134.0638-3.71484.17773-4.82536.44556-9.69132 1.73658-14.58594 3.86524-6.14921 2.66841-11.58044 5.85688-16.28515 9.5664l-.002.002c-4.63223 3.67723-7.53662 6.51843-8.79103 8.88476-1.12871 2.09036-1.77993 3.46796-1.65819 4.79297.0826.89943.5309 1.73501 1.22851 2.31641.6976.58139 1.60204.94612 2.6875 1.18164l.041.008.045.006c.38745.0495.76464.0612 1.13086.0273 1.20186-.11097 2.33592-.67718 3.34571-1.58203h.002l.002-.002c.98025-.88896 1.65065-1.7229 1.93554-2.67383.0783-.19498.16966-.36038.13477-.74023-.0169-.18393-.10933-.49343-.37501-.71484-.26566-.22142-.58606-.25523-.76952-.23829l-.16016.0156-.4375.19142-.11133.0957c-.92243.783-1.64179 1.09794-1.89257 1.1211-.16111.0149-.42129-.0845-.69727-.21094.005-.11587.20698-.77756 1.08203-1.72656l.006-.006.006-.004c1.33191-1.49302 3.20337-3.17702 5.60546-5.02344 2.41806-1.8587 4.81195-3.57307 7.18165-5.14063 1.104-.7303 1.68344-1.04663 2.55468-1.59179-1.60945 3.16069-3.26434 6.42674-5.53125 11.09374l-.002.004c-2.88202 5.96081-5.68429 11.78835-8.4121 17.48437l-.002.002.00001.002c-2.65203 5.60741-4.54546 9.63835-5.74414 12.23242-.84598.5074-1.65585 1.09649-2.36523 1.87696l-.008.008-.008.01c-.79354.91483-1.32591 1.68267-1.52539 2.53711-.13726.58797-.22861.97288-.1836 1.46289.0486.52845.30395.99569.63477 1.4121-2.2075 4.79319-3.95706 8.68906-5.07813 11.36133-.59033 1.40719-1.02939 2.52142-1.32422 3.35938-.14742.41898-.25848.76734-.33593 1.06641-.0774.29907-.14657.50128-.11133.88476.0463.5042.24371.99253.54882 1.39453l.0118.0176.0157.0176c.61354.739 1.57717 1.14846 2.52929 1.06055.91412-.0844 1.72394-.63556 2.28515-1.41211l.0234-.0312.0195-.0332c2.9535-4.82514 5.32544-8.80969 7.11719-11.96094l.002-.004c2.32556-4.05896 3.99678-6.72762 4.90429-7.89648.95015-1.14136 1.72968-1.57817 2.0254-1.60548.0942-.009.84712.20735 1.87695 1.03516 1.02982.82782 2.35651 2.15891 3.93163 3.97266l.0101.0117 2.63671 2.8418.006.006c5.89437 6.10342 11.49402 10.53483 16.84179 13.27539 5.26532 2.73215 9.24693 4.22293 12.20314 4.38868 2.67514.18476 4.60774.23014 5.89452.11132l2.4004-.2207-.21485-.17969c1.12472-.26827 2.16028-.6179 3.0039-1.15625l.002-.002.004-.002c1.59337-1.03373 2.5588-2.50328 2.41017-4.12109-.0498-.54166-.2211-1.07539-.48243-1.60548l-.01-.0215-.01-.0195c-.32148-.58404-.62362-1.04773-.95312-1.41992-.32951-.37221-.70224-.72572-1.33009-.78126l-.039-.003-.041-.002c-.37062-.003-.62314-.001-.84766.0196-.70808.0654-1.43198.31351-2.2207.70116l-.0136.008-.0117.006c-.97534.51211-2.50495.90661-4.55273 1.0957l-1.14258.10547c-6.11432.40229-16.48596-5.14778-30.45313-17.08203l-.006-.001-.004-.004c-2.22472-1.85414-3.4694-2.78331-4.46289-3.39258 5.11853-3.32159 10.17699-7.22228 15.17578-11.70704l.004-.002c5.04962-4.50221 9.53824-9.12103 13.46289-13.85351 3.96124-4.73718 6.79356-8.89875 8.49219-12.53907l-.00001-.002.002-.002c1.67701-3.63749 2.47262-6.62615 2.24609-9.09179-.0843-.91718-.30802-1.7945-.66797-2.61719-.65507-1.52479-1.92855-2.69279-3.63281-3.44922-1.70669-.75751-3.85415-1.14832-6.46289-1.24023l-.0215-.00003zm-1.16601 5.25196c1.92489-.0262 3.40492.20476 4.41211.63085 1.34292.56812 1.89605 1.31206 2.01758 2.63477.15166 1.6508-.62623 4.01368-2.56836 6.9668l-.002.004-.002.002c-2.51467 3.88317-5.97709 8.04642-10.38867 12.46681-4.4306 4.40058-8.89305 8.4638-13.38087 12.18944-2.92849 2.4232-4.89073 3.79757-7.06835 5.40625 3.06892-5.55534 6.38382-11.5736 10.80078-19.66797 4.19512-7.70681 6.59507-12.51599 7.30274-14.8789.31944-1.0546.48919-1.89466.41796-2.66992-.0513-.55842-.25581-1.07894-.56641-1.56446 2.21982-.6723 4.51911-1.17954 6.95313-1.40429.73934-.0683 1.43064-.10646 2.07226-.11523zm110.18359 22.94531c.40974-.0378.60384.036.61524.0429.0114.007-.0153-.0898-.0002.0742.0217.23598-.0554.74823-.3418 1.44531l-.001.006-.004.007c-.77965 1.96376-2.29861 4.32965-4.57423 7.03516h-.002c-2.44635 2.91171-5.24047 5.34598-8.39453 7.30859l-.01.006-.0136.008c-.47149.31173-.78851.48836-1.13671.69336.22627-.63109.51149-1.37039.94335-2.36719l.004-.007.001-.006c.79938-1.92662 1.87912-4.73519 3.18945-8.26368 2.51843-1.92336 4.65167-3.4326 6.28712-4.42383 1.69144-1.02518 2.95783-1.5143 3.4375-1.55859zm-27.44726 22.9375c-1.39691 3.97206-2.79267 8.01609-4.19336 11.55664-3.9242 9.56292-7.25686 16.22707-9.8789 19.88281-1.34083 1.86942-2.49939 3.27049-3.43751 4.18164-.93813.91115-1.67889 1.26366-1.89063 1.28321-.25906.0239-.23408.0126-.31249-.0801-.0784-.0928-.2306-.41397-.28516-1.00782-.33262-3.62041 2.02725-10.16697 7.37109-19.15625l-.002-.002.002-.002c2.96713-5.02969 7.37947-10.67144 12.62696-16.65625z" fill="#2e2442"/></svg>