<svg height="500" viewBox="0 0 500 500" width="500" xmlns="http://www.w3.org/2000/svg" xmlns:xlink="http://www.w3.org/1999/xlink"><linearGradient id="a" gradientUnits="userSpaceOnUse" spreadMethod="repeat" x1="203.01116110715" x2="203.01116110715" y1="378.50782032205" y2="381.08510658099"><stop offset="0" stop-color="#d3b879"/><stop offset=".34885058" stop-color="#ebd6ad"/><stop offset=".5" stop-color="#ebd6ad"/><stop offset=".74770111" stop-color="#ebd6ad"/><stop offset="1" stop-color="#d3b879" stop-opacity=".75"/></linearGradient><filter id="b" color-interpolation-filters="sRGB" height="1.016027" width="1.003691" x="-.001845" y="-.008013"><feGaussianBlur stdDeviation=".23601584"/></filter><radialGradient id="c" cx="418.2005" cy="790.67999" gradientTransform="matrix(.2069623 .10100165 -.20889522 .42804711 247.52618 68.507278)" gradientUnits="userSpaceOnUse" r="164.77657" spreadMethod="reflect"><stop offset="0" stop-color="#c1a76c"/><stop offset="1" stop-color="#c7b27f"/></radialGradient><linearGradient id="d" gradientUnits="userSpaceOnUse" x1="59.079338" x2="117.71146" y1="207.26978" y2="186.45172"><stop offset="0" stop-color="#c2a40a"/><stop offset=".25" stop-color="#c2a40a" stop-opacity=".25"/><stop offset=".40000001" stop-color="#c2a40a" stop-opacity="0"/><stop offset=".60000002" stop-color="#fff780" stop-opacity="0"/><stop offset=".80057472" stop-color="#c2a40a" stop-opacity=".25"/><stop offset="1" stop-color="#c2a40a" stop-opacity=".67"/></linearGradient><linearGradient id="e" gradientUnits="userSpaceOnUse" spreadMethod="reflect" x1="347.00000439845" x2="307.99999674911" y1="79.9999999535" y2="155.99999724138"><stop offset="0" stop-color="#ffe666"/><stop offset="1" stop-color="#ffea00"/></linearGradient><path d="m157.20489 465.65979h302.05313l-121.04227-343.10143-302.01899 1.24002z" fill="#c2a40a"/><path d="m59.565998 140.26474 109.342692 308.9299h266.97678l-109.37288-310.02647z" fill="#c2a40a"/><path d="m453.83594 449.19464-.38672-10.4837-8.59766-13.88477 27.29102-9.77539-13.44922-19.97461c1.25441-.78817 8.36721-6.78158 9.83398-7.54492l10.39649-9.02344-14.79688-17.71093-266.976 1.0997-14.12881 9.73623c-14.26047 9.17949-23.03843 24.15095-28.28796 37.51407-5.24943 13.36314-6.83917 30.83075-3.9058 40.04776h285.05709z" fill="url(#c)"/><path d="m174.32848 378.50781c-14.26047 9.17949-17.25483 23.10334-21.65974 36.56836-3.55298 10.8608-6.27337 24.90146-3.34 34.11847l286.55603-.002c-2.63093-3.21863-.14649-10.48172-.14649-10.48172s-9.01545-9.93202-9.4043-14.98242l-15.70898-6.51563 36.39648-10.27148-13.37695-10.75782c4.60204-6.77626 11.55559-12.56353 21.37891-17.67578z" fill="url(#a)" filter="url(#b)" opacity=".75"/><path d="m19.172201 143.9568 12.691289 34.4169 77.65777 210.69586 10.26158 27.87353c12.86189 33.34884 11.9504 46.33065 37.42205 48.7167 4.26159.3992 9.00451 0 14.78468 0l-5.00864-20.13869c-3.9367-17.37337 4.43034-43.46845 25.89132-61.08814l10.13893-5.92514-121.068582-343.17688-16.21972 3.713003c-17.245667 7.120359-34.987746 28.120966-42.465475 41.92517-8.813485 16.631269-14.3838721 34.427507-8.012694 52.343277z" fill="#c2a40a"/><path d="m168.8557 333.35486-85.094185-241.290249-5.918014-16.756467-7.247788-20.539432c-27.012869 13.24718-46.936488 52.998558-39.777769 72.906088l3.892619 10.54917 12.69313 34.42048 77.659517 210.69946 10.26158 27.87353 14.00331 37.97522 1.50055-.0108c-5.65587-24.96008 5.71807-56.35446 31.53431-77.54988l-7.66295-21.68782z" fill="url(#e)"/><path d="m168.8557 333.35486-85.09418-241.290248-5.91802-16.75647-7.24779-20.53943c-27.01287 13.24718-46.93649 52.998558-39.77777 72.906088l3.89262 10.54917 12.69313 34.42048 77.65952 210.69946 10.26158 27.87353 14.00331 37.97522 1.50055-.0108c-5.65587-24.96008 5.71807-56.35446 31.53431-77.54988l-7.66295-21.68782z" fill="url(#d)"/><path d="m185.44687 378.50782h302.05313l-121.04226-344.345034-284.51551 1.167071c-5.40642 1.238028-10.812932 2.476057-16.219352 3.714086z" fill="#c2a40a"/><path d="m87.808256 51.86939 109.342694 310.02719 266.97678-1.09914-109.37288-310.024627z" fill="url(#e)"/><g fill="#fff780" stroke="none" stroke-linecap="round" stroke-linejoin="round" stroke-width="10" transform="matrix(.85867888 0 .30271638 1.1645797 0 0)"><path d="m274.6589 129.83313c.10017 2.63345 2.22524 4.73851 4.85963 4.80995l1.92188.052c2.79244.0752 5.10513-2.15249 5.13495-4.94579l.0487-4.37054c.14162-1.19304 2.14412-3.36062 3.67969-4.89548 1.40339-1.40273 3.49207-2.45607 4.95054-3.83554 1.16271-1.09973 2.16381-1.98352 2.97438-3.48839-.19469.96253-.36608 1.94178-.36608 2.98693 0 8.01317 7.22493 14.44996 15.95472 14.44996 4.61416 0 8.54084-.73299 12.16773-2.44187 2.61711 3.78049 4.29115 6.65476 4.29115 6.65476 1.62875 3.22024 6.02926 3.70642 8.32332.92073l1.45448-1.76431c1.55616-2.83167 1.08405-4.495-.0359-6.6598.2968-.13737.57879-.30218.84314-.49474 1.03967 1.31534 3.06952 1.87765 5.07424 2.76886 2.17294.91427 4.6883.18693 6.03806-1.74587 2.22286-3.18274 4.39125-7.32092 6.4613-11.75987.28164-.0773.58142-.15517.87028-.22977.98245 2.16947 2.06917 4.2707 3.40002 6.19524 3.58017 5.23366 9.24092 6.6921 12.96798 7.86292 2.73698.85647 5.4623 1.81971 7.84878 2.98925 1.62821 1.2422 3.84925 1.36714 5.60543.31362l1.03879-.62389c2.81209-1.68791 3.26498-5.58027.91579-7.86898 0 0-5.89436-3.44289-8.69174-5.27933-2.87808-1.88942-7.0236-3.4623-8.31831-5.89983 3.80317-.30224 4.79937-1.43074 7.09843-3.67617 3.20393-3.13223.9876-8.57363-3.49302-8.57673-2.62889-.11284-5.28119.0102-7.81087.0838-.77763-3.554279-1.35171-7.100063-2.08567-9.839587-.73395-2.739523-2.64236-4.877486-5.16932-5.163813l-3.22155-.365609c-2.40933-.270744-4.66557 1.227204-5.3533 3.552113-1.37523 4.646043-2.95986 9.075698-4.63605 13.369896-.15496-.67865-.24118-1.35769-.40815-2.03601-.42737-1.735211-1.74958-3.110499-3.46616-3.607453l-4.31001-1.246091c-2.62621-.58546-5.24471 1.011075-5.92562 3.614166-.43255-.787745-.86033-1.579179-1.36936-2.316085-2.82186-4.085145-7.11753-7.674443-12.73198-7.674443-6.64502 0-11.89192 4.16954-13.51368 9.401863-1.20818-.75755-5.23282-2.741216-8.3129-3.615016-3.84514-1.09084-7.61154-1.742883-12.47932-1.971451l.0565-6.089576c.0285-3.167869-2.85946-5.563128-5.96772-4.95082l-3.68833.726187c-2.40473.474703-4.10995 2.621795-4.02837 5.071572l.23808 7.144477c-.1759.06762-.42464.123185-.59223.189513-1.45173.228345-2.78365.521901-3.87843.865387-.33124-2.954824-3.15219-4.968919-6.05465-4.323582 0 0-1.56971.506192-2.97483 1.412124-1.37984.889631-3.11482 2.309878-5.09546 4.50471-1.66711-.859589-6.46742-2.578564-6.46742-2.578564s-7.61286-1.743036-12.48159-1.971451l.0587-6.089576c.0251-2.772737-2.18254-4.953951-4.07612-4.952322l-5.57737.727815c-2.40473.474703-4.11223 2.621795-4.03065 5.071572l.24036 7.144477c-.17761.06827-.43052.124242-.59965.19119-1.44888.228342-2.78019.520756-3.87329.86371-.33124-2.954824-3.15219-4.968919-6.05464-4.323582-2.5968.922499-4.50343 2.476887-6.15801 4.021703-.12844-.433338-.31353-.847793-.55319-1.230997l-3.73974-5.03803c-1.61083-2.169168-4.65178-2.665407-6.86943-1.121984-8.10713 5.644557-14.64353 12.420577-19.15795 19.734517.32556-2.14907.66169-4.29494.87533-6.47028.25492-2.592966-1.52441-4.947337-4.08841-5.410344-10.66935-1.92569-19.75555-3.479492-30.41417-4.068662-2.4766-.137116-4.67749 1.561291-5.17385 3.991515-1.10973 5.442961-1.90639 11.097291-2.19526 16.943811-5.81503 4.0208-10.96694 8.05269-13.93267 12.47432-1.92117 5.11036.80316 6.9484 5.60742 8.52139 1.95254.63972 4.09841.0211 5.40893-1.56139 2.99461-3.61851 7.53527-7.27369 12.87513-10.79722 8.6803-1.40903 17.75135 3.3143 25.0371 1.1136-.7613 3.72054-1.02354 6.54247-1.02461 9.8681-.00056 3.61063 3.70826 6.03212 7.01335 4.5785 2.74145-1.41643 3.97282-3.17853 4.36151-5.02293 4.06788.53266 9.62236-1.39881 13.21918-3.8722 3.46005-2.37934 5.17273-5.59722 5.77796-8.99295 2.97831-.59614 5.75727-2.29101 7.68382-4.1173 1.25891-1.19339 1.60181-2.43617 2.04194-4.00493.62695-.002 1.1386-.1444 1.68717-.21132.54571 2.55152 1.99024 3.79758 3.5104 5.43048 1.29999 1.3964 3.26896 2.37578 4.73905 3.67117 1.80527 1.59074 4.4551 3.97466 4.99887 5.02461l.16069 4.27997c.10017 2.63345 2.22751 4.73851 4.8619 4.80995l1.9196.052c2.79245.0752 5.10514-2.15249 5.13496-4.94579l.0459-4.37557c.14108-1.19117 2.14723-3.35709 3.68247-4.89045 1.40415-1.40243 3.5643-2.42601 4.95055-3.83554 1.53956-1.56541 2.94094-2.59265 3.60658-4.99778 1.038.262 2.07889.0653 3.12201-.22306 1.22247-.33793 3.35998-1.67878 3.35998-1.67878 1.53616 1.37136 3.07624 1.70846 5.09961 1.89681.5403.0503 1.17183-.14907 1.7373-.21803.54571 2.55152 1.99214 3.79742 3.51268 5.43048 1.29998 1.39618 3.268 2.37592 4.73792 3.67117 1.80541 1.59088 4.4562 3.97466 5.00001 5.02461zm-19.2786 22.80711s-2.87131-.0145-4.98576 1.09012c-2.11446 1.10463-3.96132 4.47612-3.82503 6.98516-1.48064-.14661-2.84529-.50819-4.40009-.30021-2.90987.38924-6.55921.76963-8.55268 2.80748-.47593-.60447-.9139-1.23073-1.43537-1.80624-3.85875-4.25876-9.20433-7.80191-15.60759-7.80191-7.26519.81941-13.64261 4.70362-16.50447 8.83333-.0316-.9509-.43733-1.82469-.87116-2.65822-.94438-1.81448-3.73746-5.03803-3.73746-5.03803-1.61098-2.17036-4.6537-2.66669-6.87171-1.12198-7.69957 5.36078-13.92119 11.75782-18.4007 18.65111-.16954-.98585-.36231-1.94403-.64577-2.88463 1.69527-1.17795 3.36567-2.34071 5.11902-3.55211 3.52933-2.44003 2.54883-7.90002-1.60908-8.95911-3.59833-1.43938-6.8271-.0674-9.87073 2.04272-3.82048-3.5742-8.07954-5.79583-14.05061-5.77931-4.5205.0125-10.16069 1.70769-13.70103 4.44266-4.76831 3.68359-6.61452 7.83109-6.61452 13.38163.001 3.21746 2.999 5.59594 6.13316 4.86865l5.81378-1.3484c1.81451-.42105 3.24334-1.81581 3.70969-3.6192.69961-1.82532 2.10275-4.91624 4.9194-5.70216 1.4556-.40615 2.31199.46427 3.45668 1.27292-7.10576 5.3108-13.61901 10.56088-18.61058 15.11074-2.21148 2.01694-2.16586 5.51066.0955 7.47151l1.21854 1.05993c.37072 5.18543 4.1771 10.07942 10.10087 10.07942 4.87305-.20509 8.16718-3.71583 9.01631-6.78725 2.7214-.4845 6.04544-1.61971 8.19548-2.80077-.40002 2.77237-.45759 4.83868-.45841 7.39101-.00055 3.61061 3.70826 6.03212 7.01335 4.5785 2.79349-1.06656 4.02286-3.4565 4.3621-5.02461.86299.11308 1.5885.1695 2.4121.13244 9.26911-.79612 15.43606-6.55105 16.58504-12.99758 1.5932-.31908 3.08362-.8942 4.45555-1.66369.5628.8118 1.24453 1.5957 2.11937 2.2339 1.177.85863 2.60991 1.56192 4.14217 2.09639-1.07058 1.73892-.71733 4.00613.2385 5.59483.89037 1.47991 2.86346 2.43999 4.83255 3.18986 3.86872 1.47329 8.43803 2.37125 13.25121 2.39491 2.01419.01 4.44235.0986 6.24903-.94422 2.89459-1.6708 4.08662-4.58549 4.66968-6.96167.41766-1.70211-.3671-3.24857-.95796-4.74118 1.55465-.24174 3.00629-1.30285 3.92541-2.11483 3.48872 3.88413 7.30393 5.46401 7.30393 5.46401 1.30214.38207 2.70394.21882 3.88311-.45282-.0316.84425-.0188 1.5127-.058 2.4033-.12995 2.96208 2.32949 5.38588 5.28924 5.21077l4.36328-.25995c2.51922-.14984 4.53145-2.15391 4.69285-4.67242.1383-2.16665.11525-3.8134.24858-5.78604l1.89442.65573c-1.05328 4.39089-1.43824 7.79392-1.43948 11.66428 1.36881 3.65807 3.32555 6.24541 8.31417 4.00493 1.57981-1.46088 2.74898-2.96899 3.06128-4.45104.78078.0903 1.57189.19871 2.4121.13243 9.2691-.79612 15.43605-6.55105 16.58504-12.99758 2.48532-.49751 4.75027-1.57465 6.59452-3.16303-.94255 2.38466-1.85472 4.90467-1.60822 7.18138.28405 2.62354 1.30034 5.23303 3.51145 7.04049 1.6492 1.34813 3.97263 2.68784 6.83525 2.47709 2.98888-.22005 6.43847-1.83254 8.48673-3.73659 2.33925-2.17456 2.63941-4.97265 2.84899-7.39102.1316-1.51851-.48132-3.13491-1.01797-4.25482l3.08607-5.02461c2.26426 1.16136 4.72719 2.02762 7.57144 2.02762 2.79796 0 5.31102-1.39967 6.87035-3.08084.31522-.33984.49254-.72258.75379-1.08006 1.84778.40145 4.52398-.66945 6.64146-1.16056 1.81451-.42105 3.24334-1.81581 3.70969-3.6192.69959-1.82581 2.20591-5.64363 4.92168-5.70216 1.10249 0 2.31092.46351 3.455 1.27125-7.10617 5.31103-13.61939 10.56234-18.61118 15.11241-2.21148 2.01694-2.16586 5.51066.0955 7.47151l1.2208 1.05993c.37072 5.18543 4.17711 10.07942 10.10088 10.07942 4.87322-.20507 8.16565-3.71603 9.01403-6.78725.56083-.11746.70821-.0848 1.27792-.22474 4.187-1.02839 9.13527-2.69062 12.19097-7.37256 1.77185-2.61995 2.55736-5.45406 2.55736-9.25428 0-2.49603-.46827-4.86018-1.15264-7.13106 1.6953-1.17795 3.36567-2.34071 5.11902-3.55211 3.52934-2.43935 2.55041-7.89889-1.6068-8.95911l-2.85561-.72618c-3.07756-.45636-4.8083 1.25276-7.0174 2.7689-3.82047-3.5742-8.74547-5.77931-14.04833-5.77931-4.97394 0-9.83747 1.44376-13.70331 4.44266-.79493.61664-1.50482 1.35626-2.19109 2.11818l-.67899-.37735c-3.14623-1.74724-7.05365.30091-7.40544 3.88251 0 0-.19046 1.5714-.5849 2.93661-.57565-.38302-1.86199-1.6511-2.7779-2.486-1.25935-1.14795-2.4385-2.34559-3.73639-3.46941-2.77085-2.39921-4.90977-5.3284-8.64251-6.98347-2.39195-1.06057-5.27871-1.89157-8.44657-1.72568-3.23014.51066-6.44291 1.07426-8.49121 3.02558-1.64111-1.85981-4.3973-2.23488-6.47632-.88216-5.28114 3.67696-9.81329 7.86593-13.63684 12.33848-.22706-1.13683-.41637-2.30821-.91399-3.3626-.68745-1.45661-1.3831-2.98727-2.83487-4.0368-1.39851-1.01103-3.23878-1.85002-5.40651-1.99408-1.20408-.08-2.69438.29277-3.83418.65324-.19225-3.07289-3.06409-5.24218-6.05803-4.58773zm51.50775 13.47052c-1.4232 2.5818-2.82403 5.13721-4.42521 8.06185-.25136-3.40159-1.82035-6.70433-3.47458-9.0547 1.47245.16899 2.38627-.95123 3.50909-.90815 1.86553.0716 3.25562.81664 4.3907 1.901zm-90.41659-.36729c3.68198 1.40605 7.07427 5.56528 6.46924 8.96079-4.18494.51107-9.95396 1.01849-12.23845-.91906-.82527-1.58534.56712-4.09107 1.93368-5.54955.9657-1.00782 3.25415-2.49218 3.83553-2.49218zm30.61523 9.1503c.0128.99817.041 1.99247.0415 2.99867-1.383-1.02396-2.22435-2.11285-2.27282-3.46323.79953.15173 1.54236.23269 2.23132.46456z" fill="#c2a40a"/><path d="m373.88691 161.73029-2.85552-.72686c-2.23249 1.50563-4.46499 3.01127-6.59365 4.56883-3.16703-4.56883-8.09928-7.42435-13.23922-7.42435-7.94353 0-15.31595 4.7765-15.31595 12.82387l5.81487-1.34988s2.44017-9.44917 9.76068-9.44917c4.46499 0 8.41079 3.06319 10.74713 7.009-8.82615 6.33406-16.66584 12.72003-22.53263 18.06764l1.55755 1.34988c7.16476-6.59365 14.27759-11.94126 21.96153-17.3927.67494 1.66139 1.03837 3.42662 1.03837 5.19185 0 7.99545-11.73358 8.09929-17.54846 9.553-1.19412.31152-3.06319 1.19413-3.84196 3.37471-.20768.67494-.36343 1.29796-.36343 1.9729 0 2.95935 2.23249 5.86679 5.24376 5.86679 3.16703 0 4.36116-3.16703 4.36116-3.16703s-1.34988.98645-3.47854.98645c-1.66139 0-2.8036-.93453-2.8036-1.92098 0-.15576.0519-.31151.10384-.46727.20767-.46726 1.09029-.51918 1.60947-.67494 3.79005-.83069 14.84869-1.19412 18.5349-6.90516.77878-1.14221 1.71332-3.84197 1.71332-6.48981 0-3.32278-.77878-6.38598-2.18058-9.03382 2.69976-1.86907 5.45144-3.79005 8.30696-5.76295zm-40.28876 2.75168-1.4018-.77878s-.77877 7.94353-3.99772 7.94353c-3.27087 0-4.93226-1.50564-8.09929-4.62075-.77877-.83069-2.28441-2.18057-3.32278-3.11511-7.63202-6.95708-8.46272-7.42434-13.44689-7.42434-4.67267 0-6.38598 2.544-6.38598 2.544l2.38825 1.34989s1.24605-1.34989 4.41308-1.34989c3.42662 0 5.86679 2.54401 9.39725 6.07447-1.71332 3.11511-6.33406 11.47399-8.46272 15.41979-1.76523 3.21895-2.44017 5.39953-2.44017 8.15121 0 2.44017 2.69976 4.51691 5.34761 4.51691 4.20539 0 6.33405-3.42662 6.33405-6.12639 0-1.9729-1.4018-3.47854-1.4018-3.47854.31151.72686.41535 1.50564.41535 2.2325 0 2.59593-1.81715 4.72458-4.51691 4.72458-1.09029 0-2.49209-.98645-2.49209-2.49208 0-1.45372.8307-3.21895 1.71331-4.67267 1.86907-3.16703 6.95708-11.47399 9.08574-14.90061.36343.36343.77878.72686 1.19413 1.09029l-8.9819 14.79677 1.92098.36343 8.51464-13.86224c2.90743 2.33634 5.76295 3.94581 9.18957 3.94581 2.59592 0 4.30923-2.33633 4.93226-4.82842.20767-.98645.31151-2.02482.31151-2.90744 0-1.50563-.20768-2.59592-.20768-2.59592zm-42.72895 12.87578c-3.71.14001-6.18449-2.55521-8.09928-4.04962-.98645.0519-2.8036 1.55756-2.8036 2.64785 0 .15575 0 .31151.15575.41534 1.14221.98645 2.28442 1.76523 3.42662 2.33634.93454.5711 1.97291 1.55755 1.97291 3.53045 0 2.59593-2.69976 4.04965-6.07447 4.25732h-.46726c-3.16703 0-5.34761-1.76523-6.23022-3.47854 3.21894-6.02254 8.04736-11.26631 15.05636-16.09473 2.33633 1.76523 6.02255 4.62074 6.02255 7.37242 0 .77878-.31151 1.50564-1.00595 2.18561-.69443.67998-1.26866.85172-1.95341.87756zm.98645-12.97962c.88262-.5711 1.81715-1.09029 2.8036-1.60947l-3.73813-5.0361c-15.21212 10.59138-24.03826 25.23239-24.03826 38.67928v1.55756l1.29796-.5711c.62302-4.10157 1.66139-7.89162 3.16703-11.42207-.36343 1.60947-.72686 3.42662-.72686 4.36115 0 1.09029 1.9729 2.38825 4.15348 2.38825.15575 0 .31151-.0519.46727-.0519 8.46271-.72686 12.25276-5.76295 12.25276-10.17602.0154-.91123-.14806-1.82837-.31151-2.59593.81793.12121 1.49975.10376 2.33633.10384 2.95936-.15576 5.19185-1.14221 6.74941-2.85552.92886-1.29342 1.1819-2.10853 1.19412-3.21896-.25959-2.8036-1.92098-5.8668-5.6072-9.55301zm-24.29785 8.25504c0 3.58238-4.51691 8.30696-4.51691 8.30696l1.86907.62302s5.08801-4.67266 5.08801-10.02027c0-5.39952-1.34988-9.96835-4.12751-9.96835s-6.41193 1.76523-9.05977 3.27087c-.10384-2.44017-.20767-4.82842-.36343-7.32051l-4.98418 1.09029c.15576 2.8036.31151 5.39952.41535 7.78777-2.44017-.36343-6.85324-.98645-9.70876-.98645-4.67266 0-6.33405 1.71331-6.33405 4.25732 0 2.44017.15575 6.12638 2.23249 9.18957 3.01127 4.41307 6.54173 5.6072 6.54173 5.6072l1.66139-1.03837s-2.8036-1.45372-5.24376-4.72458c-1.09029-1.4018-1.24605-3.37471-1.24605-5.0361-.0657-1.6941.29792-4.56324 2.69974-4.62074 4.10156 0 7.63202 1.45371 9.55301 2.49208.10383 2.38825.10383 4.72459.10383 7.009 0 4.04964-.10383 8.09929-.31151 12.82387l4.36116-.25959c.46726-7.32051.72686-13.55073.72686-19.52136v-1.29796c2.44017-1.50564 5.60719-3.32278 7.06091-3.32278 3.11511.15575 3.58238 4.62074 3.58238 5.65911zm-52.38571 7.5801c-5.71103-1.29796-9.76067-1.81715-9.76067-7.68394 0-4.46499 5.50336-11.78549 11.05864-11.78549 6.33405 0 11.57782 6.28213 11.57782 12.82386 0 6.38598-3.32278 6.64557-12.87579 6.64557zm18.58683-3.9458c0-7.11284-8.35888-17.65229-17.18503-17.65229-10.27986 0-16.51008 11.00672-16.51008 17.02926 0 4.10157 1.34988 8.15121 14.5891 8.15121 4.7765 0 9.65684 2.07674 9.65684 6.54173-2.26125 1.68066-4.95013 1.2392-7.32051.88261-5.08801-.67494-7.52818-2.85551-7.52818-2.85551l-2.02482 1.19412s3.58237 3.94581 14.38142 3.94581c3.6343 0 5.91871-.51919 5.91871-2.90744 0-3.99772-2.64784-6.7494-6.95708-8.61847 9.76068-.0519 12.97963-.67494 12.97963-5.71103zm-43.09234 1.06432c-1.66139.026-4.93226-2.05078-7.24264-3.99771-1.11624.0259-2.93339 1.53161-2.93339 2.6219 0 .15575 0 .31151.15576.41534 1.14221.98645 2.28441 1.76523 3.42662 2.33634.93453.5711 1.9729 1.55755 1.9729 3.53045 0 2.59593-2.69976 4.04965-6.3081 4.25732-3.40066 0-5.58123-1.76523-6.46385-3.47854 3.21895-6.02254 8.04737-11.26631 15.05637-16.09473 2.33633 1.76523 6.02254 4.62074 6.02254 7.37242 0 .77878-.93453 2.9831-.93453 2.23249-.51919.51917-1.09029.77877-2.75168.80472zm-2.64784 4.98421c0-.85666-.15576-1.68736-.31152-2.41422.81794.12121 1.49976.10376 2.33634.10384 2.95935-.15576 5.19185-1.14221 6.7494-2.85552.72686-.77878 1.19413-1.71331 1.06433-3.86794-.1298-2.15462-1.79119-5.21782-5.4774-8.90403.88261-.5711 1.81715-1.09029 2.8036-1.60947l-3.73813-5.0361c-15.21212 10.59138-24.03827 25.23239-24.03827 38.67928v1.55756l1.29796-.5711c.62303-4.10157 1.6614-7.89162 3.16703-11.42207-.36343 1.60947-.72686 3.42662-.72686 4.36115 0 1.09029 1.97291 2.38825 4.38711 2.3623 8.69636-.75281 12.48641-5.7889 12.48641-10.38368zm-16.19854-20.58571-2.85552-.72686c-2.2325 1.50563-4.46499 3.01127-6.59365 4.56883-3.16703-4.56883-8.09929-7.42435-13.23922-7.42435-7.94353 0-15.31595 4.7765-15.31595 12.82387l5.81487-1.34988s2.44017-9.44917 9.76068-9.44917c4.46499 0 8.41079 3.06319 10.74712 7.009-8.82614 6.33406-16.66583 12.72003-22.53262 18.06764l1.55755 1.34988c7.16475-6.59365 14.27759-11.94126 21.96153-17.3927.67494 1.66139 1.03837 3.42662 1.03837 5.19185 0 7.99545-11.73358 8.09929-17.54846 9.553-1.19412.31152-3.06319 1.19413-3.84197 3.37471-.20767.67494-.36343 1.29796-.36343 1.9729 0 2.95935 2.2325 5.86679 5.24377 5.86679 3.16703 0 4.36116-3.16703 4.36116-3.16703s-1.34988.98645-3.47854.98645c-1.66139 0-2.8036-.93453-2.8036-1.92098 0-.15576.0519-.31151.10384-.46727.20767-.46726 1.09028-.51918 1.60947-.67494 3.79005-.83069 14.84869-1.19412 18.5349-6.90516.77878-1.14221 1.71331-3.84197 1.71331-6.48981 0-3.32278-.77877-6.38598-2.18057-9.03382 2.69976-1.86907 5.45144-3.79005 8.30696-5.76295zm188.67171-54.56635c-1.34988.31152-2.64784.62303-3.99772.98646 1.19412-2.85552 2.23249-5.76296 3.16703-8.618475.41534 2.544005.98645 5.036095 1.66139 7.476265-.25959.0519-.51919.10384-.8307.15575zm-13.29113 12.56428c-.15576-1.45372-.36343-2.90743-.57111-4.36115 1.24605-.72686 2.49209-1.34988 3.79005-1.86907-1.03837 2.12866-2.07674 4.25732-3.21894 6.23022zm-8.51464-2.33633c.98645-2.95936 1.92099-6.12638 2.49209-9.39725.36343 2.07674.77878 4.30924 1.14221 6.54173-1.24605.88262-2.49209 1.81715-3.6343 2.85552zm41.63864 6.59365c-4.67267-2.12866-8.25504-4.36116-9.44917-5.97063-1.60947-2.28441-3.06319-5.50336-4.25731-9.08574 1.9729-.25959 4.56882-.46726 8.82614-.46726l2.2325-2.18058c-1.14221 0-2.28442-.0519-3.47854-.0519-2.75168 0-5.6072.0519-8.30696.25959-1.45372-5.08801-2.33634-10.539451-2.44017-14.900605l-1.4018-.207674v-.05192l-3.21895-.363429c-1.92098 6.489812-4.15348 12.720028-6.64557 18.534908-2.07674.77877-4.10156 1.66139-6.02254 2.69976-.51919-3.3747-1.19413-6.74941-2.02482-10.12411l-4.30924-1.24604c-.31151 3.68621-4.10156 18.01572-5.45144 21.07891l2.75168 1.66139c1.81715-2.2325 3.73813-4.10156 5.71103-5.65912.31151 1.86907.51919 3.68622.62303 5.19185l1.45371.62303 2.95936 1.24604c2.28441-3.27087 4.7765-7.99545 7.06091-13.13538 1.92099-.62302 3.84197-1.09029 5.86679-1.55756.51919-.10383.98646-.20767 1.45372-.36343 1.19413 3.42663 2.69976 6.59365 4.56883 9.29342 2.2325 3.27086 6.69749 4.7765 10.33178 5.9187 7.42435 2.28442 9.39725 3.79006 9.39725 3.79006l1.03837-.62303s-1.9729-1.92098-7.26859-4.30923zm-65.78066-3.58238c-4.72458-.83069-7.89161-3.32278-7.89161-5.50336 0-3.06319 2.544-6.64557 8.1512-6.85324 2.90744 2.85552 7.63202 7.47626 10.90289 11.31823-1.81715.88262-4.56883 1.4018-7.32051 1.4018-1.29796 0-2.59593-.10384-3.84197-.36343zm6.48981-22.999894c5.50336 0 10.07219 7.528184 10.07219 13.706484 0 3.16703-1.66139 5.50336-2.75168 6.54173-5.24377-7.11283-7.63202-9.03382-11.47399-13.44689-.77877-.93453-1.1422-1.81715-1.1422-2.8036 0-2.232495 1.50563-3.997724 5.29568-3.997724zm15.1602 33.383594s-2.85551-5.86679-6.43789-11.16248c1.55756-1.4018 3.68621-4.20539 3.68621-8.25504 0-7.5801-5.60719-16.717754-12.25276-16.717754-5.81487 0-9.08574 3.841969-9.08574 7.735854 0 1.45372.41535 2.75168.98645 3.73813-3.84197.20768-10.22794 2.59593-10.22794 10.02027 0 5.08802 4.46499 9.44917 10.9548 9.44917 6.12638 0 9.39725-.83069 13.60265-4.10156 4.93226 6.33406 7.32051 11.05864 7.32051 11.05864zm-49.84178-16.35433c-2.49208 1.6614-3.89388 3.0632-4.67266 4.10157l.10384-14.79678h.67494c4.72458.57111 8.82614 2.8036 8.82614 6.12639 0 1.4018-2.54401 2.95935-4.93226 4.56882zm-12.51235-.10383c-2.07674-1.29797-4.93226-3.21895-4.93226-4.56883 0-1.66139 2.44017-5.50336 9.86451-5.97063l.51919 14.69294c-1.19413-1.19413-3.01128-2.64785-5.45144-4.15348zm25.90733-7.37243 6.23022-3.11511s-3.58238-2.38825-7.94353-3.58238c-3.94581-1.090285-7.89162-1.972899-13.39498-1.972899-.98645 0-1.92098.05192-2.8036.155755l.10384-11.110558-3.68621.726859.36343 10.902884c-1.50564.311511-2.90744.830696-4.2054 1.349879-2.95936.31151-5.71104 1.81715-8.77423 2.2325-.31151 0-.62302.0519-.88261.0519-1.55756 0-2.2325-.72686-2.2325-1.6614 0-1.505632 1.71331-3.99772 1.71331-3.99772s-2.18057.571103-5.71103 4.51691c-.8307.88261-1.4018 2.02482-1.4018 3.01127 0 1.29796.5711 2.18058 2.38825 2.18058 1.50564 0 5.03609-.77878 7.52818-1.29796.31151-.0519.57111-.10384.88262-.20768-1.24605 1.60948-1.92099 3.21895-1.92099 4.62075 0 2.33633 3.3747 4.36115 6.54173 6.80132 3.94581 3.01128 5.97063 5.24377 6.90516 7.5801l.20768 5.50336 1.92098.0519.0519-4.82842c.25959-2.02482 1.14221-5.08801 5.71104-8.41079 3.06319-2.28442 6.85324-4.77651 6.85324-7.06092 0-2.8036-1.29797-4.36115-3.21895-5.45144.5711.0519 1.14221.15575 1.66139.25959 5.13993.98645 7.11284 2.75168 7.11284 2.75168zm-64.32707 7.47626c-2.49209 1.6614-3.89389 3.0632-4.67267 4.10157l.10384-14.79678h.67494c4.72458.57111 8.82614 2.8036 8.82614 6.12639 0 1.4018-2.544 2.95935-4.93225 4.56882zm-12.51236-.10383c-2.07674-1.29797-4.93226-3.21895-4.93226-4.56883 0-1.66139 2.44017-5.50336 9.86451-5.97063l.51919 14.69294c-1.19413-1.19413-3.01127-2.64785-5.45144-4.15348zm25.90733-7.37243 6.23022-3.11511s-3.58238-2.38825-7.94353-3.58238c-3.94581-1.090285-7.89161-1.972899-13.39498-1.972899-.98645 0-1.92098.05192-2.80359.155755l.10383-11.110558-3.68621.726859.36343 10.902884c-1.50564.311511-2.90744.830696-4.2054 1.349879-2.95935.31151-5.71103 1.81715-8.77423 2.2325-.31151 0-.62302.0519-.88261.0519-1.55756 0-2.2325-.72686-2.2325-1.6614 0-1.505632 1.71331-3.99772 1.71331-3.99772s-2.18057.571103-5.71103 4.51691c-.8307.88261-1.4018 2.02482-1.4018 3.01127 0 1.29796.5711 2.18058 2.38825 2.18058 1.50564 0 5.0361-.77878 7.52818-1.29796.31151-.0519.57111-.10384.88262-.20768-1.24605 1.60948-1.92099 3.21895-1.92099 4.62075 0 2.33633 3.37471 4.36115 6.54173 6.80132 3.94581 3.01128 5.97063 5.24377 6.90516 7.5801l.20768 5.50336 1.92098.0519.0519-4.82842c.25959-2.02482 1.14221-5.08801 5.71104-8.41079 3.06319-2.28442 6.85324-4.77651 6.85324-7.06092 0-2.8036-1.29796-4.36115-3.21895-5.45144.57111.0519 1.14221.15575 1.66139.25959 5.13994.98645 7.11284 2.75168 7.11284 2.75168zm-49.27064 4.67267c-.51918.51918-1.09029.77877-1.81714.83069h-.20768c-2.38825 0-5.65911-2.07674-7.83969-3.99772-.0519-.0519-.15576-.10384-.25959-.0519-.98646.0519-2.8036 1.55755-2.8036 2.64784 0 .15576 0 .31151.15575.41535 1.14221.98645 2.28442 1.76523 3.42662 2.33633.93454.57111 1.97291 1.55756 1.97291 3.53046 0 2.59593-2.69977 4.04964-6.07447 4.25732h-.46726c-3.16703 0-5.34761-1.76523-6.23022-3.47854 3.21894-6.02255 8.04736-11.26632 15.05636-16.09474 2.33633 1.76523 6.02255 4.62075 6.02255 7.37243 0 .77878-.31152 1.50564-.93454 2.2325zm4.56883-2.59593c-.25959-2.8036-1.92098-5.86679-5.6072-9.553004.88262-.571103 1.81715-1.090288 2.8036-1.609473l-3.73813-5.036094c-15.21212 10.591371-24.03827 25.232391-24.03827 38.679281v1.55756l1.29797-.57111c.62302-4.10156 1.66139-7.89161 3.16703-11.42207-.36343 1.60948-.72686 3.42662-.72686 4.36116 0 1.09028 1.9729 2.38825 4.15348 2.38825.15575 0 .31151-.0519.46726-.0519 8.46272-.72686 12.25277-5.76295 12.25277-10.17603v-.36343c0-.67494-.15576-1.50563-.31151-2.23249.5711.10383 1.1422.10383 1.71331.10383h.62302c2.95935-.15575 5.19185-1.1422 6.74941-2.85551.72685-.77878 1.19412-1.71331 1.19412-2.85552v-.36343zm-56.22769 4.98418c5.45144-3.21895 11.42207-6.28214 17.49653-9.34533-.41534 3.79005-1.09028 7.26859-1.92098 10.33178-5.81487-.67494-9.86451-.77878-15.57555-.98645zm-1.50564-12.82387h.77878c5.08801 0 9.55301.77877 14.74485 1.71331-5.50336 2.8036-11.42206 6.07446-16.97734 9.50108.25959-3.68621.83069-7.47626 1.45371-11.21439zm25.07664.31151c-10.64329-1.920987-19.46944-3.426623-29.80122-3.997727-1.09029 5.347607-1.86907 10.850967-2.12866 16.510087l2.59593.20767c-7.8397 5.03609-14.48526 10.22794-17.34078 14.48526l3.01127.98645c3.73813-4.51691 9.03382-8.7223 15.21212-12.66811 6.95708 0 16.51008.67494 25.49198 1.60947 1.4018-5.6072 2.38826-11.31823 2.95936-17.1331z"/></g></svg>