<svg height="500" viewBox="0 0 500 500" width="500" xmlns="http://www.w3.org/2000/svg" xmlns:xlink="http://www.w3.org/1999/xlink"><linearGradient id="a" gradientUnits="userSpaceOnUse" spreadMethod="repeat" x1="203.01116110715" x2="203.01116110715" y1="378.50782032205" y2="381.08510658099"><stop offset="0" stop-color="#b3ab99"/><stop offset=".34885058" stop-color="#d6cfc2"/><stop offset=".5" stop-color="#d6cfc2"/><stop offset=".74770111" stop-color="#d6cfc2"/><stop offset="1" stop-color="#b3ab99" stop-opacity=".75"/></linearGradient><filter id="b" color-interpolation-filters="sRGB" height="1.016027" width="1.003691" x="-.001845" y="-.008013"><feGaussianBlur stdDeviation=".23601584"/></filter><radialGradient id="c" cx="418.2005" cy="790.67999" gradientTransform="matrix(.2069623 .10100165 -.20889522 .42804711 247.52618 68.507278)" gradientUnits="userSpaceOnUse" r="164.77657" spreadMethod="reflect"><stop offset="0" stop-color="#a19b8c"/><stop offset="1" stop-color="#b1a995"/></radialGradient><linearGradient id="d" gradientTransform="matrix(391.593 0 0 -391.593 60.7962 7618.49)" gradientUnits="userSpaceOnUse" spreadMethod="pad" x1="0" x2="1" y1="0" y2="0"><stop offset="0" stop-color="#9f571d"/><stop offset=".511236" stop-color="#fde791"/><stop offset="1" stop-color="#b7671e"/></linearGradient><linearGradient id="e" gradientTransform="matrix(3.7795274 0 0 3.7795274 -341.5064 91.506337)" gradientUnits="userSpaceOnUse" spreadMethod="reflect" x1="113.58951" x2="213.15717" xlink:href="#d" y1="-10.777412" y2="71.249794"/><linearGradient id="f" gradientUnits="userSpaceOnUse" x1="59.079338" x2="117.71146" y1="207.26978" y2="186.45172"><stop offset="0" stop-color="#84542e"/><stop offset=".25" stop-color="#84542e" stop-opacity=".25"/><stop offset=".40000001" stop-color="#84542e" stop-opacity="0"/><stop offset=".60000002" stop-color="#84542e" stop-opacity="0"/><stop offset=".80057472" stop-color="#84542e" stop-opacity=".25"/><stop offset="1" stop-color="#84542e" stop-opacity=".67"/></linearGradient><linearGradient id="g" gradientTransform="matrix(3.7795274 0 0 3.7795274 -341.5064 91.506337)" gradientUnits="userSpaceOnUse" spreadMethod="reflect" x1="144.07028" x2="98.131454" xlink:href="#d" y1="22.741264" y2="61.09444"/><filter id="h" color-interpolation-filters="sRGB" height="1.03079" width="1.074401" x="-.0372" y="-.015395"><feGaussianBlur stdDeviation="2.6401207"/></filter><filter id="i" color-interpolation-filters="sRGB" height="1.007424" width="1.005666" x="-.002833" y="-.003712"><feGaussianBlur stdDeviation=".26156423"/></filter><filter id="j" color-interpolation-filters="sRGB" height="1.007456" width="1.005694" x="-.002847" y="-.003728"><feGaussianBlur stdDeviation=".26288057"/></filter><filter id="k" color-interpolation-filters="sRGB" height="1.007426" width="1.005664" x="-.002832" y="-.003713"><feGaussianBlur stdDeviation=".2614869"/></filter><mask id="l" maskUnits="userSpaceOnUse"><path d="m-13.229159-13.229166h158.749999v158.750016h-158.749999z" fill="url(#m)" filter="url(#n)" stroke-width="11.83"/></mask><radialGradient id="m" cx="66.145844" cy="66.145836" gradientTransform="matrix(-1.0000001 .00000145 0 -.99999999 132.29169 132.29157)" gradientUnits="userSpaceOnUse" r="66.145836"><stop offset="0" stop-color="#fff"/><stop offset=".49999994" stop-color="#fff"/><stop offset=".74999988" stop-color="#808080"/><stop offset=".87499994" stop-color="#404040"/><stop offset="1"/></radialGradient><filter id="n" color-interpolation-filters="sRGB" height="1.0135" width="1.0135" x="-.00675" y="-.00675"><feGaussianBlur stdDeviation=".44648439"/></filter><radialGradient id="o" cx="703.05621" cy="255.40021" gradientTransform="matrix(.12107523 -.12107523 .05841622 .05841622 -57.692804 112.54712)" gradientUnits="userSpaceOnUse" r="1011.8609"><stop offset="0" stop-color="#fde791"/><stop offset=".08962709" stop-color="#fde791"/><stop offset="1" stop-color="#fde791" stop-opacity="0"/></radialGradient><radialGradient id="p" cx="703.05621" cy="1070.2185" gradientTransform="matrix(.12107523 -.12107523 .05841622 .05841622 -57.692804 112.54712)" gradientUnits="userSpaceOnUse" r="1011.8609" spreadMethod="pad"><stop offset="0" stop-color="#b7671e"/><stop offset=".08962709" stop-color="#b7671e" stop-opacity=".9"/><stop offset="1" stop-color="#b7671e" stop-opacity="0"/></radialGradient><radialGradient id="q" cx="4601.1221" cy="4277.6772" gradientTransform="matrix(0 1 -1 0 5224.5762 -3824.5764)" gradientUnits="userSpaceOnUse" r="11.2507" xlink:href="#r"/><linearGradient id="r"><stop offset="0" stop-color="#fff"/><stop offset=".1375" stop-color="#fff" stop-opacity=".8625"/><stop offset="1" stop-color="#fff" stop-opacity="0"/></linearGradient><radialGradient id="s" cx="4694.3481" cy="4395.814" gradientTransform="matrix(0 1 -1 0 5224.5762 -3824.5764)" gradientUnits="userSpaceOnUse" r="11.2507" xlink:href="#r"/><radialGradient id="t" cx="4845.7568" cy="4885.4878" gradientTransform="matrix(0 1 -1 0 5224.5762 -3824.5764)" gradientUnits="userSpaceOnUse" r="11.2507" xlink:href="#r"/><radialGradient id="u" cx="4996.8203" cy="4201.0781" gradientTransform="matrix(0 1 -1 0 5224.5762 -3824.5764)" gradientUnits="userSpaceOnUse" r="11.2507" xlink:href="#r"/><radialGradient id="v" cx="4264.2671" cy="4804.9849" gradientTransform="matrix(0 1 -1 0 5224.5762 -3824.5764)" gradientUnits="userSpaceOnUse" r="11.2507" xlink:href="#r"/><radialGradient id="w" cx="4253.0161" cy="4349.7529" gradientTransform="matrix(0 1 -1 0 5224.5762 -3824.5764)" gradientUnits="userSpaceOnUse" r="11.2507" xlink:href="#r"/><radialGradient id="x" cx="4291.9346" cy="4509.8506" gradientTransform="matrix(0 1 -1 0 5224.5762 -3824.5764)" gradientUnits="userSpaceOnUse" r="11.2507" xlink:href="#r"/><radialGradient id="y" cx="4178.7915" cy="4193.6758" gradientTransform="matrix(0 1 -1 0 5224.5762 -3824.5764)" gradientUnits="userSpaceOnUse" r="11.2507" xlink:href="#r"/><radialGradient id="z" cx="4508.9131" cy="4184.4229" gradientTransform="matrix(0 1 -1 0 5224.5762 -3824.5764)" gradientUnits="userSpaceOnUse" r="11.2507" xlink:href="#r"/><radialGradient id="A" cx="4169.5386" cy="4599.0166" gradientTransform="matrix(0 1 -1 0 5224.5762 -3824.5764)" gradientUnits="userSpaceOnUse" r="11.2507" xlink:href="#r"/><radialGradient id="B" cx="4024.0554" cy="4671.3345" gradientTransform="matrix(0 1 -1 0 5224.5762 -3824.5764)" gradientUnits="userSpaceOnUse" r="11.2507" xlink:href="#r"/><radialGradient id="C" cx="4381.2778" cy="4473.0386" gradientTransform="matrix(0 1 -1 0 5224.5762 -3824.5764)" gradientUnits="userSpaceOnUse" r="5.6228" xlink:href="#r"/><radialGradient id="D" cx="4207.3452" cy="4447.1753" gradientTransform="matrix(0 1 -1 0 5224.5762 -3824.5764)" gradientUnits="userSpaceOnUse" r="5.6228" xlink:href="#r"/><radialGradient id="E" cx="4201.7222" cy="5018.0508" gradientTransform="matrix(0 1 -1 0 5224.5762 -3824.5764)" gradientUnits="userSpaceOnUse" r="5.6228" xlink:href="#r"/><radialGradient id="F" cx="4756.5977" cy="4610.2671" gradientTransform="matrix(0 1 -1 0 5224.5762 -3824.5764)" gradientUnits="userSpaceOnUse" r="5.6228" xlink:href="#r"/><radialGradient id="G" cx="4724.8408" cy="4498.3604" gradientTransform="matrix(0 1 -1 0 5224.5762 -3824.5764)" gradientUnits="userSpaceOnUse" r="5.6228" xlink:href="#r"/><radialGradient id="H" cx="4755.5991" cy="4916.6094" gradientTransform="matrix(0 1 -1 0 5224.5762 -3824.5764)" gradientUnits="userSpaceOnUse" r="5.6228" xlink:href="#r"/><radialGradient id="I" cx="4815.3223" cy="4406.499" gradientTransform="matrix(0 1 -1 0 5224.5762 -3824.5764)" gradientUnits="userSpaceOnUse" r="5.6228" xlink:href="#r"/><radialGradient id="J" cx="4840.1343" cy="4528.7949" gradientTransform="matrix(0 1 -1 0 5224.5762 -3824.5764)" gradientUnits="userSpaceOnUse" r="5.6228" xlink:href="#r"/><radialGradient id="K" cx="4994.8228" cy="4675.311" gradientTransform="matrix(0 1 -1 0 5224.5762 -3824.5764)" gradientUnits="userSpaceOnUse" r="5.6228" xlink:href="#r"/><radialGradient id="L" cx="4625.9868" cy="4580.4009" gradientTransform="matrix(0 1 -1 0 5224.5762 -3824.5764)" gradientUnits="userSpaceOnUse" r="5.6228" xlink:href="#r"/><radialGradient id="M" cx="4483.835" cy="4313.1982" gradientTransform="matrix(0 1 -1 0 5224.5762 -3824.5764)" gradientUnits="userSpaceOnUse" r="5.6228" xlink:href="#r"/><radialGradient id="N" cx="4664.439" cy="4695.5273" gradientTransform="matrix(0 1 -1 0 5224.5762 -3824.5764)" gradientUnits="userSpaceOnUse" r="11.2507" xlink:href="#r"/><radialGradient id="O" cx="4894.2646" cy="4681.8555" gradientTransform="matrix(0 1 -1 0 5224.5762 -3824.5764)" gradientUnits="userSpaceOnUse" r="11.2507" xlink:href="#r"/><radialGradient id="P" cx="4757.5957" cy="4804.9849" gradientTransform="matrix(0 1 -1 0 5224.5762 -3824.5764)" gradientUnits="userSpaceOnUse" r="11.2507" xlink:href="#r"/><radialGradient id="Q" cx="4433.3354" cy="5016.0532" gradientTransform="matrix(0 1 -1 0 5224.5762 -3824.5764)" gradientUnits="userSpaceOnUse" r="11.2507" xlink:href="#r"/><radialGradient id="R" cx="4371.5723" cy="4725.9341" gradientTransform="matrix(0 1 -1 0 5224.5762 -3824.5764)" gradientUnits="userSpaceOnUse" r="11.2507" xlink:href="#r"/><radialGradient id="S" cx="4510.9111" cy="4743.7231" gradientTransform="matrix(0 1 -1 0 5224.5762 -3824.5764)" gradientUnits="userSpaceOnUse" r="11.2507" xlink:href="#r"/><radialGradient id="T" cx="4269.4331" cy="4686.5615" gradientTransform="matrix(0 1 -1 0 5224.5762 -3824.5764)" gradientUnits="userSpaceOnUse" r="11.2507" xlink:href="#r"/><radialGradient id="U" cx="4072.584" cy="4883.4902" gradientTransform="matrix(0 1 -1 0 5224.5762 -3824.5764)" gradientUnits="userSpaceOnUse" r="11.2507" xlink:href="#r"/><radialGradient id="V" cx="4484.8335" cy="4664.189" gradientTransform="matrix(0 1 -1 0 5224.5762 -3824.5764)" gradientUnits="userSpaceOnUse" r="7.1455" xlink:href="#r"/><radialGradient id="W" cx="4613.2183" cy="4640.4971" gradientTransform="matrix(0 1 -1 0 5224.5762 -3824.5764)" gradientUnits="userSpaceOnUse" r="7.1455" xlink:href="#r"/><radialGradient id="X" cx="4091.8" cy="4252.5869" gradientTransform="matrix(0 1 -1 0 5224.5762 -3824.5764)" gradientUnits="userSpaceOnUse" r="7.1455" xlink:href="#r"/><radialGradient id="Y" cx="4666.4365" cy="4863.9521" gradientTransform="matrix(0 1 -1 0 5224.5762 -3824.5764)" gradientUnits="userSpaceOnUse" r="7.1455" xlink:href="#r"/><radialGradient id="Z" cx="4894.2646" cy="4840.1016" gradientTransform="matrix(0 1 -1 0 5224.5762 -3824.5764)" gradientUnits="userSpaceOnUse" r="7.1455" xlink:href="#r"/><radialGradient id="aa" cx="4974.3188" cy="4809.6094" gradientTransform="matrix(0 1 -1 0 5224.5762 -3824.5764)" gradientUnits="userSpaceOnUse" r="7.1455" xlink:href="#r"/><radialGradient id="ab" cx="4589.1577" cy="4997.6572" gradientTransform="matrix(0 1 -1 0 5224.5762 -3824.5764)" gradientUnits="userSpaceOnUse" r="7.1455" xlink:href="#r"/><radialGradient id="ac" cx="4065.4385" cy="4519.7837" gradientTransform="matrix(0 1 -1 0 5224.5762 -3824.5764)" gradientUnits="userSpaceOnUse" r="7.1455" xlink:href="#r"/><radialGradient id="ad" cx="4347.4258" cy="4820.2441" gradientTransform="matrix(0 1 -1 0 5224.5762 -3824.5764)" gradientUnits="userSpaceOnUse" r="7.1455" xlink:href="#r"/><radialGradient id="ae" cx="4533.5781" cy="4593.1694" gradientTransform="matrix(0 1 -1 0 5224.5762 -3824.5764)" gradientUnits="userSpaceOnUse" r="7.1455" xlink:href="#r"/><radialGradient id="af" cx="4448.2217" cy="4220.0913" gradientTransform="matrix(0 1 -1 0 5224.5762 -3824.5764)" gradientUnits="userSpaceOnUse" r="11.2507" xlink:href="#r"/><radialGradient id="ag" cx="4908.2451" cy="4929.8579" gradientTransform="matrix(0 1 -1 0 5224.5762 -3824.5764)" gradientUnits="userSpaceOnUse" r="11.2507" xlink:href="#r"/><radialGradient id="ah" cx="4987.5674" cy="5014.0552" gradientTransform="matrix(0 1 -1 0 5224.5762 -3824.5764)" gradientUnits="userSpaceOnUse" r="11.2507" xlink:href="#r"/><radialGradient id="ai" cx="3991.5649" cy="4813.0986" gradientTransform="matrix(0 1 -1 0 5224.5762 -3824.5764)" gradientUnits="userSpaceOnUse" r="11.2507" xlink:href="#r"/><radialGradient id="aj" cx="4012.8047" cy="4351.751" gradientTransform="matrix(0 1 -1 0 5224.5762 -3824.5764)" gradientUnits="userSpaceOnUse" r="11.2507" xlink:href="#r"/><radialGradient id="ak" cx="4683.0972" cy="5027.3037" gradientTransform="matrix(0 1 -1 0 5224.5762 -3824.5764)" gradientUnits="userSpaceOnUse" r="11.2507" xlink:href="#r"/><radialGradient id="al" cx="4367.481" cy="4195.6733" gradientTransform="matrix(0 1 -1 0 5224.5762 -3824.5764)" gradientUnits="userSpaceOnUse" r="11.2507" xlink:href="#r"/><radialGradient id="am" cx="4526.4326" cy="4089.8687" gradientTransform="matrix(0 1 -1 0 5224.5762 -3824.5764)" gradientUnits="userSpaceOnUse" r="11.2507" xlink:href="#r"/><radialGradient id="an" cx="16633.223" cy="4517.6021" gradientTransform="matrix(0 .2895 -1 0 5224.5762 -4086.6375)" gradientUnits="userSpaceOnUse" r="19.241899" xlink:href="#r"/><radialGradient id="ao" cx="-15595.086" cy="5031.6465" gradientTransform="matrix(.2895 0 0 1 5221.3418 -4303.4033)" gradientUnits="userSpaceOnUse" r="19.241899" xlink:href="#r"/><radialGradient id="ap" cx="16323.169" cy="4900.5503" gradientTransform="matrix(0 .2895 -1 0 5224.5762 -4086.6375)" gradientUnits="userSpaceOnUse" r="29.7325" xlink:href="#r"/><radialGradient id="aq" cx="-16917.998" cy="4941.8945" gradientTransform="matrix(.2895 0 0 1 5221.3418 -4303.4033)" gradientUnits="userSpaceOnUse" r="29.7325" xlink:href="#r"/><radialGradient id="ar" cx="17536.6" cy="5029.3018" gradientTransform="matrix(0 .2895 -1 0 5224.5762 -4086.6375)" gradientUnits="userSpaceOnUse" r="29.7325" xlink:href="#r"/><radialGradient id="as" cx="-17362.775" cy="5293.1509" gradientTransform="matrix(.2895 0 0 1 5221.3418 -4303.4033)" gradientUnits="userSpaceOnUse" r="29.7325" xlink:href="#r"/><radialGradient id="at" cx="15154.966" cy="4975.0698" gradientTransform="matrix(0 .2895 -1 0 5224.5762 -4086.6375)" gradientUnits="userSpaceOnUse" r="29.7325" xlink:href="#r"/><radialGradient id="au" cx="-17175.43" cy="4603.7305" gradientTransform="matrix(.2895 0 0 1 5221.3418 -4303.4033)" gradientUnits="userSpaceOnUse" r="29.7325" xlink:href="#r"/><radialGradient id="av" cx="16788.486" cy="4380.1377" gradientTransform="matrix(0 .2895 -1 0 5224.5762 -4086.6375)" gradientUnits="userSpaceOnUse" r="29.7325" xlink:href="#r"/><radialGradient id="aw" cx="-15120.208" cy="5076.5913" gradientTransform="matrix(.2895 0 0 1 5221.3418 -4303.4033)" gradientUnits="userSpaceOnUse" r="29.7325" xlink:href="#r"/><radialGradient id="ax" cx="15052.254" cy="4385.373" gradientTransform="matrix(0 .2895 -1 0 5224.5762 -4086.6375)" gradientUnits="userSpaceOnUse" r="29.7325" xlink:href="#r"/><radialGradient id="ay" cx="-15138.295" cy="4573.998" gradientTransform="matrix(.2895 0 0 1 5221.3418 -4303.4033)" gradientUnits="userSpaceOnUse" r="29.7325" xlink:href="#r"/><radialGradient id="az" cx="16060.047" cy="4376.7666" gradientTransform="matrix(0 .2895 -1 0 5224.5762 -4086.6375)" gradientUnits="userSpaceOnUse" r="29.7325" xlink:href="#r"/><radialGradient id="aA" cx="-15108.562" cy="4865.7275" gradientTransform="matrix(.2895 0 0 1 5221.3418 -4303.4033)" gradientUnits="userSpaceOnUse" r="29.7325" xlink:href="#r"/><radialGradient id="aB" cx="15866.068" cy="4081.2617" gradientTransform="matrix(0 .2895 -1 0 5224.5762 -4086.6375)" gradientUnits="userSpaceOnUse" r="29.7325" xlink:href="#r"/><radialGradient id="aC" cx="-14087.729" cy="4809.5757" gradientTransform="matrix(.2895 0 0 1 5221.3418 -4303.4033)" gradientUnits="userSpaceOnUse" r="29.7325" xlink:href="#r"/><radialGradient id="aD" cx="17890.787" cy="4106.2778" gradientTransform="matrix(0 .2895 -1 0 5224.5762 -4086.6375)" gradientUnits="userSpaceOnUse" r="29.7325" xlink:href="#r"/><radialGradient id="aE" cx="-14174.147" cy="5395.6787" gradientTransform="matrix(.2895 0 0 1 5221.3418 -4303.4033)" gradientUnits="userSpaceOnUse" r="29.7325" xlink:href="#r"/><radialGradient id="aF" cx="15420.522" cy="4902.7319" gradientTransform="matrix(0 .2895 -1 0 5224.5762 -4086.6375)" gradientUnits="userSpaceOnUse" r="19.241899" xlink:href="#r"/><radialGradient id="aG" cx="-16925.533" cy="4680.6021" gradientTransform="matrix(.2895 0 0 1 5221.3418 -4303.4033)" gradientUnits="userSpaceOnUse" r="19.241899" xlink:href="#r"/><radialGradient id="aH" cx="17559.291" cy="4676.2856" gradientTransform="matrix(0 .2895 -1 0 5224.5762 -4086.6375)" gradientUnits="userSpaceOnUse" r="19.241899" xlink:href="#r"/><radialGradient id="aI" cx="-16143.265" cy="5299.7192" gradientTransform="matrix(.2895 0 0 1 5221.3418 -4303.4033)" gradientUnits="userSpaceOnUse" r="19.241899" xlink:href="#r"/><radialGradient id="aJ" cx="16866.557" cy="4774.4922" gradientTransform="matrix(0 .2895 -1 0 5224.5762 -4086.6375)" gradientUnits="userSpaceOnUse" r="19.241899" xlink:href="#r"/><radialGradient id="aK" cx="-16482.523" cy="5099.1909" gradientTransform="matrix(.2895 0 0 1 5221.3418 -4303.4033)" gradientUnits="userSpaceOnUse" r="19.241899" xlink:href="#r"/><radialGradient id="aL" cx="16071.692" cy="4574.7783" gradientTransform="matrix(0 .2895 -1 0 5224.5762 -4086.6375)" gradientUnits="userSpaceOnUse" r="19.241899" xlink:href="#r"/><radialGradient id="aM" cx="-15792.604" cy="4869.0986" gradientTransform="matrix(.2895 0 0 1 5221.3418 -4303.4033)" gradientUnits="userSpaceOnUse" r="19.241899" xlink:href="#r"/><radialGradient id="aN" cx="16699.693" cy="4871.0977" gradientTransform="matrix(0 .2895 -1 0 5224.5762 -4086.6375)" gradientUnits="userSpaceOnUse" r="19.241899" xlink:href="#r"/><radialGradient id="aO" cx="-16816.252" cy="5050.8887" gradientTransform="matrix(.2895 0 0 1 5221.3418 -4303.4033)" gradientUnits="userSpaceOnUse" r="19.241899" xlink:href="#r"/><radialGradient id="aP" cx="18061.07" cy="4512.0322" gradientTransform="matrix(0 .2895 -1 0 5224.5762 -4086.6375)" gradientUnits="userSpaceOnUse" r="19.241899" xlink:href="#r"/><radialGradient id="aQ" cx="-15575.844" cy="5444.9717" gradientTransform="matrix(.2895 0 0 1 5221.3418 -4303.4033)" gradientUnits="userSpaceOnUse" r="19.241899" xlink:href="#r"/><radialGradient id="aR" cx="17188.609" cy="4244.9609" gradientTransform="matrix(0 .2895 -1 0 5224.5762 -4086.6375)" gradientUnits="userSpaceOnUse" r="19.241899" xlink:href="#r"/><radialGradient id="aS" cx="-14653.234" cy="5192.417" gradientTransform="matrix(.2895 0 0 1 5221.3418 -4303.4033)" gradientUnits="userSpaceOnUse" r="19.241899" xlink:href="#r"/><radialGradient id="aT" cx="15143.32" cy="4682.5854" gradientTransform="matrix(0 .2895 -1 0 5224.5762 -4086.6375)" gradientUnits="userSpaceOnUse" r="19.241899" xlink:href="#r"/><radialGradient id="aU" cx="-16165.027" cy="4600.3594" gradientTransform="matrix(.2895 0 0 1 5221.3418 -4303.4033)" gradientUnits="userSpaceOnUse" r="19.241899" xlink:href="#r"/><radialGradient id="aV" cx="17652.088" cy="4368.1597" gradientTransform="matrix(0 .2895 -1 0 5224.5762 -4086.6375)" gradientUnits="userSpaceOnUse" r="19.241899" xlink:href="#r"/><radialGradient id="aW" cx="-15078.83" cy="5326.5815" gradientTransform="matrix(.2895 0 0 1 5221.3418 -4303.4033)" gradientUnits="userSpaceOnUse" r="19.241899" xlink:href="#r"/><radialGradient id="aX" cx="3957.2905" cy="4201.0781" gradientTransform="matrix(0 1 -1 0 5224.5762 -3824.5764)" gradientUnits="userSpaceOnUse" r="11.2507" xlink:href="#r"/><radialGradient id="aY" cx="3955.2927" cy="4675.311" gradientTransform="matrix(0 1 -1 0 5224.5762 -3824.5764)" gradientUnits="userSpaceOnUse" r="5.6228" xlink:href="#r"/><radialGradient id="aZ" cx="3880.6929" cy="4281.3076" gradientTransform="matrix(0 1 -1 0 5224.5762 -3824.5764)" gradientUnits="userSpaceOnUse" r="5.6228" xlink:href="#r"/><radialGradient id="a0" cx="3946.0398" cy="4361.0039" gradientTransform="matrix(0 1 -1 0 5224.5762 -3824.5764)" gradientUnits="userSpaceOnUse" r="11.2507" xlink:href="#r"/><radialGradient id="a1" cx="14469.968" cy="4512.0322" gradientTransform="matrix(0 .2895 -1 0 5224.5762 -4086.6375)" gradientUnits="userSpaceOnUse" r="19.241899" xlink:href="#r"/><radialGradient id="a2" cx="-15575.844" cy="4405.4414" gradientTransform="matrix(.2895 0 0 1 5221.3418 -4303.4033)" gradientUnits="userSpaceOnUse" r="19.241899" xlink:href="#r"/><radialGradient id="a3" cx="16783.117" cy="4155.2524" gradientTransform="matrix(0 .2895 -1 0 5224.5762 -4086.6375)" gradientUnits="userSpaceOnUse" r="19.241899" xlink:href="#r"/><radialGradient id="a4" cx="-14343.332" cy="5075.0371" gradientTransform="matrix(.2895 0 0 1 5221.3418 -4303.4033)" gradientUnits="userSpaceOnUse" r="19.241899" xlink:href="#r"/><radialGradient id="a5" cx="15184.698" cy="4089.8687" gradientTransform="matrix(0 .2895 -1 0 5224.5762 -4086.6375)" gradientUnits="userSpaceOnUse" r="19.241899" xlink:href="#r"/><radialGradient id="a6" cx="-14117.461" cy="4612.3369" gradientTransform="matrix(.2895 0 0 1 5221.3418 -4303.4033)" gradientUnits="userSpaceOnUse" r="19.241899" xlink:href="#r"/><radialGradient id="a7" cx="14799.68" cy="4114.8848" gradientTransform="matrix(0 .2895 -1 0 5224.5762 -4086.6375)" gradientUnits="userSpaceOnUse" r="19.241899" xlink:href="#r"/><radialGradient id="a8" cx="-14203.88" cy="4500.8843" gradientTransform="matrix(.2895 0 0 1 5221.3418 -4303.4033)" gradientUnits="userSpaceOnUse" r="19.241899" xlink:href="#r"/><radialGradient id="a9" cx="4250.4473" cy="5175.2676" gradientTransform="matrix(0 -1 1 0 -5135.66355 5025.32025)" gradientUnits="userSpaceOnUse" r="11.2507" xlink:href="#r"/><radialGradient id="ba" cx="4163.4556" cy="5234.1792" gradientTransform="matrix(0 -1 1 0 -5135.66355 5025.32025)" gradientUnits="userSpaceOnUse" r="7.1455" xlink:href="#r"/><radialGradient id="bb" cx="4333.5586" cy="5224.1846" gradientTransform="matrix(0 -1 1 0 -5135.66355 5025.32025)" gradientUnits="userSpaceOnUse" r="11.2507" xlink:href="#r"/><radialGradient id="bc" cx="4028.946" cy="5182.6704" gradientTransform="matrix(0 -1 1 0 -5135.66355 5025.32025)" gradientUnits="userSpaceOnUse" r="11.2507" xlink:href="#r"/><radialGradient id="bd" cx="3952.3484" cy="5262.8999" gradientTransform="matrix(0 -1 1 0 -5135.66355 5025.32025)" gradientUnits="userSpaceOnUse" r="5.6228" xlink:href="#r"/><radialGradient id="be" cx="4358.6768" cy="4918.6069" gradientTransform="matrix(0 1 -1 0 5224.5762 -3824.5764)" gradientUnits="userSpaceOnUse" r="11.2507" xlink:href="#r"/><radialGradient id="bf" cx="5075.5581" cy="4804.9849" gradientTransform="matrix(0 1 -1 0 5224.5762 -3824.5764)" gradientUnits="userSpaceOnUse" r="11.2507" xlink:href="#r"/><radialGradient id="bg" cx="5064.3071" cy="4349.7529" gradientTransform="matrix(0 1 -1 0 5224.5762 -3824.5764)" gradientUnits="userSpaceOnUse" r="11.2507" xlink:href="#r"/><radialGradient id="bh" cx="5103.2256" cy="4509.8506" gradientTransform="matrix(0 1 -1 0 5224.5762 -3824.5764)" gradientUnits="userSpaceOnUse" r="11.2507" xlink:href="#r"/><radialGradient id="bi" cx="5192.5688" cy="4473.0386" gradientTransform="matrix(0 1 -1 0 5224.5762 -3824.5764)" gradientUnits="userSpaceOnUse" r="5.6228" xlink:href="#r"/><radialGradient id="bj" cx="5182.8633" cy="4725.9341" gradientTransform="matrix(0 1 -1 0 5224.5762 -3824.5764)" gradientUnits="userSpaceOnUse" r="11.2507" xlink:href="#r"/><radialGradient id="bk" cx="5080.7241" cy="4686.5615" gradientTransform="matrix(0 1 -1 0 5224.5762 -3824.5764)" gradientUnits="userSpaceOnUse" r="11.2507" xlink:href="#r"/><radialGradient id="bl" cx="5158.7168" cy="4820.2441" gradientTransform="matrix(0 1 -1 0 5224.5762 -3824.5764)" gradientUnits="userSpaceOnUse" r="7.1455" xlink:href="#r"/><radialGradient id="bm" cx="5073.1938" cy="4242.5928" gradientTransform="matrix(0 1 -1 0 5224.5762 -3824.5764)" gradientUnits="userSpaceOnUse" r="11.2507" xlink:href="#r"/><radialGradient id="bn" cx="18862.688" cy="4376.7666" gradientTransform="matrix(0 .2895 -1 0 5224.5762 -4086.6375)" gradientUnits="userSpaceOnUse" r="29.7325" xlink:href="#r"/><radialGradient id="bo" cx="-15108.562" cy="5677.0186" gradientTransform="matrix(.2895 0 0 1 5221.3418 -4303.4033)" gradientUnits="userSpaceOnUse" r="29.7325" xlink:href="#r"/><radialGradient id="bp" cx="18223.164" cy="4902.7319" gradientTransform="matrix(0 .2895 -1 0 5224.5762 -4086.6375)" gradientUnits="userSpaceOnUse" r="19.241899" xlink:href="#r"/><radialGradient id="bq" cx="-16925.533" cy="5491.8931" gradientTransform="matrix(.2895 0 0 1 5221.3418 -4303.4033)" gradientUnits="userSpaceOnUse" r="19.241899" xlink:href="#r"/><radialGradient id="br" cx="18874.334" cy="4574.7783" gradientTransform="matrix(0 .2895 -1 0 5224.5762 -4086.6375)" gradientUnits="userSpaceOnUse" r="19.241899" xlink:href="#r"/><radialGradient id="bs" cx="-15792.604" cy="5680.3896" gradientTransform="matrix(.2895 0 0 1 5221.3418 -4303.4033)" gradientUnits="userSpaceOnUse" r="19.241899" xlink:href="#r"/><radialGradient id="bt" cx="4756.5977" cy="3890.749" gradientTransform="matrix(0 1 -1 0 5224.5762 -3824.5764)" gradientUnits="userSpaceOnUse" r="5.6228" xlink:href="#r"/><radialGradient id="bu" cx="4625.9868" cy="3860.8828" gradientTransform="matrix(0 1 -1 0 5224.5762 -3824.5764)" gradientUnits="userSpaceOnUse" r="5.6228" xlink:href="#r"/><radialGradient id="bv" cx="4894.2646" cy="3962.3374" gradientTransform="matrix(0 1 -1 0 5224.5762 -3824.5764)" gradientUnits="userSpaceOnUse" r="11.2507" xlink:href="#r"/><radialGradient id="bw" cx="4371.5723" cy="4006.416" gradientTransform="matrix(0 1 -1 0 5224.5762 -3824.5764)" gradientUnits="userSpaceOnUse" r="11.2507" xlink:href="#r"/><radialGradient id="bx" cx="4269.4331" cy="3967.0435" gradientTransform="matrix(0 1 -1 0 5224.5762 -3824.5764)" gradientUnits="userSpaceOnUse" r="11.2507" xlink:href="#r"/><radialGradient id="by" cx="4484.8335" cy="3944.6709" gradientTransform="matrix(0 1 -1 0 5224.5762 -3824.5764)" gradientUnits="userSpaceOnUse" r="7.1455" xlink:href="#r"/><radialGradient id="bz" cx="4613.2183" cy="3920.979" gradientTransform="matrix(0 1 -1 0 5224.5762 -3824.5764)" gradientUnits="userSpaceOnUse" r="7.1455" xlink:href="#r"/><radialGradient id="bA" cx="4533.5781" cy="3873.6511" gradientTransform="matrix(0 1 -1 0 5224.5762 -3824.5764)" gradientUnits="userSpaceOnUse" r="7.1455" xlink:href="#r"/><radialGradient id="bB" cx="17559.291" cy="3956.7673" gradientTransform="matrix(0 .2895 -1 0 5224.5762 -4086.6375)" gradientUnits="userSpaceOnUse" r="19.241899" xlink:href="#r"/><radialGradient id="bC" cx="-13657.657" cy="5299.7192" gradientTransform="matrix(.2895 0 0 1 5221.3418 -4303.4033)" gradientUnits="userSpaceOnUse" r="19.241899" xlink:href="#r"/><radialGradient id="bD" cx="16071.692" cy="3855.26" gradientTransform="matrix(0 .2895 -1 0 5224.5762 -4086.6375)" gradientUnits="userSpaceOnUse" r="19.241899" xlink:href="#r"/><radialGradient id="bE" cx="-13306.996" cy="4869.0986" gradientTransform="matrix(.2895 0 0 1 5221.3418 -4303.4033)" gradientUnits="userSpaceOnUse" r="19.241899" xlink:href="#r"/><radialGradient id="bF" cx="15143.32" cy="3963.0671" gradientTransform="matrix(0 .2895 -1 0 5224.5762 -4086.6375)" gradientUnits="userSpaceOnUse" r="19.241899" xlink:href="#r"/><radialGradient id="bG" cx="-13679.42" cy="4600.3594" gradientTransform="matrix(.2895 0 0 1 5221.3418 -4303.4033)" gradientUnits="userSpaceOnUse" r="19.241899" xlink:href="#r"/><g transform="matrix(3.7795275 0 0 3.7795275 0 -.000006)"><g mask="url(#l)" stroke-width=".094494" transform="matrix(0 1 -1 0 132.291678 -.000004)"><path d="m-16.763244-16.763244c-67.65774 67.657739-96.043756 148.969874-63.396059 181.617564 32.647695 32.64769 113.959825 4.26168 181.617563-63.39606 67.65774-67.657738 96.04375-148.969868 63.39606-181.617563-32.64769-32.647697-113.959825-4.261681-181.617564 63.396059z" fill="url(#o)" opacity=".3"/><path d="m30.833409 30.833409c-67.65774 67.657739-96.043753 148.969871-63.396059 181.617561 32.64769465 32.6477 113.959825 4.26168 181.61756-63.39606 67.65774-67.657735 96.04376-148.96986535 63.39606-181.61756-32.64769-32.647694-113.959822-4.261681-181.617561 63.396059z" fill="url(#p)" opacity=".3"/></g><g opacity=".8" transform="matrix(.09660557 0 0 .09518071 -1.845166 -1.798916)"><circle cx="339.10001" cy="1021.2" fill="url(#t)" opacity=".5" r="11.3"/><circle cx="1023.5" cy="1172.2" fill="url(#u)" opacity=".5" r="11.3"/><circle cx="1030.9" cy="354.20001" fill="url(#y)" opacity=".5" r="11.3"/><circle cx="625.59998" cy="345" fill="url(#A)" opacity=".5" r="11.3"/><circle cx="553.20001" cy="199.5" fill="url(#B)" opacity=".5" r="11.3"/><circle cx="206.5" cy="377.10001" fill="url(#E)" opacity=".5" r="5.6"/><circle cx="308" cy="931" fill="url(#H)" opacity=".5" r="5.6"/><circle cx="549.29999" cy="1170.2" fill="url(#K)" opacity=".5" r="5.6"/><circle cx="341.10001" cy="248" fill="url(#U)" opacity=".5" r="11.3"/><circle cx="972" cy="267.20001" fill="url(#X)" opacity=".5" r="7.1"/><circle cx="384.5" cy="1069.7" fill="url(#Z)" opacity=".5" r="7.1"/><circle cx="415" cy="1149.7" fill="url(#aa)" opacity=".5" r="7.1"/><circle cx="294.70001" cy="1083.7" fill="url(#ag)" opacity=".5" r="11.3"/><circle cx="210.5" cy="1163" fill="url(#ah)" opacity=".5" r="11.3"/><circle cx="411.5" cy="167" fill="url(#ai)" opacity=".5" r="11.3"/><circle cx="872.79999" cy="188.2" fill="url(#aj)" opacity=".5" r="11.3"/><circle cx="197.3" cy="858.5" fill="url(#ak)" opacity=".5" r="11.3"/><ellipse cx="195.3" cy="989.70001" fill="url(#ar)" rx="29.700001" ry="8.6"/><ellipse cx="195.3" cy="989.70001" fill="url(#as)" rx="8.6" ry="29.700001"/><ellipse cx="249.5" cy="300.29999" fill="url(#at)" rx="29.700001" ry="8.6"/><ellipse cx="249.5" cy="300.29999" fill="url(#au)" rx="8.6" ry="29.700001"/><ellipse cx="1143.3" cy="506.20001" fill="url(#aB)" rx="29.700001" ry="8.6"/><ellipse cx="1143.3" cy="506.20001" fill="url(#aC)" rx="8.6" ry="29.700001"/><ellipse cx="1118.3" cy="1092.3" fill="url(#aD)" rx="29.700001" ry="8.6"/><ellipse cx="1118.3" cy="1092.3" fill="url(#aE)" rx="8.6" ry="29.700001"/><ellipse cx="321.79999" cy="377.20001" fill="url(#aF)" rx="19.200001" ry="5.6"/><ellipse cx="321.79999" cy="377.20001" fill="url(#aG)" rx="5.6" ry="19.200001"/><circle cx="1023.5" cy="132.7" fill="url(#aX)" opacity=".5" r="11.3"/><circle cx="549.29999" cy="130.7" fill="url(#aY)" opacity=".5" r="5.6"/><circle cx="943.29999" cy="56.099998" fill="url(#aZ)" opacity=".5" r="5.6"/><circle cx="863.59998" cy="121.5" fill="url(#a0)" opacity=".5" r="11.3"/><ellipse cx="712.5" cy="102" fill="url(#a1)" rx="19.200001" ry="5.6"/><ellipse cx="712.5" cy="102" fill="url(#a2)" rx="5.6" ry="19.200001"/><ellipse cx="1134.7" cy="308.89999" fill="url(#a5)" rx="19.200001" ry="5.6"/><ellipse cx="1134.7" cy="308.89999" fill="url(#a6)" rx="5.6" ry="19.200001"/><ellipse cx="1109.7" cy="197.5" fill="url(#a7)" rx="19.200001" ry="5.6"/><ellipse cx="1109.7" cy="197.5" fill="url(#a8)" rx="5.6" ry="19.200001"/><circle cx="39.599998" cy="774.90002" fill="url(#a9)" opacity=".5" r="11.3"/><circle cx="98.5" cy="861.90002" fill="url(#ba)" opacity=".5" r="7.1"/><circle cx="88.5" cy="691.79999" fill="url(#bb)" opacity=".5" r="11.3"/><circle cx="47" cy="996.40002" fill="url(#bc)" opacity=".5" r="11.3"/><circle cx="127.2" cy="1073" fill="url(#bd)" opacity=".5" r="5.6"/><circle cx="419.60001" cy="1251" fill="url(#bf)" opacity=".5" r="11.3"/><circle cx="874.79999" cy="1239.7" fill="url(#bg)" opacity=".5" r="11.3"/><circle cx="714.70001" cy="1278.6" fill="url(#bh)" opacity=".5" r="11.3"/><circle cx="751.5" cy="1368" fill="url(#bi)" opacity=".5" r="5.6"/><circle cx="498.60001" cy="1358.3" fill="url(#bj)" opacity=".5" r="11.3"/><circle cx="538" cy="1256.1" fill="url(#bk)" opacity=".5" r="11.3"/><circle cx="404.29999" cy="1334.1" fill="url(#bl)" opacity=".5" r="7.1"/><circle cx="982" cy="1248.6" fill="url(#bm)" opacity=".5" r="11.3"/><ellipse cx="847.79999" cy="1373.6" fill="url(#bn)" rx="29.700001" ry="8.6"/><ellipse cx="847.79999" cy="1373.6" fill="url(#bo)" rx="8.6" ry="29.700001"/><ellipse cx="321.79999" cy="1188.5" fill="url(#bp)" rx="19.200001" ry="5.6"/><ellipse cx="321.79999" cy="1188.5" fill="url(#bq)" rx="5.6" ry="19.200001"/><ellipse cx="649.79999" cy="1377" fill="url(#br)" rx="19.200001" ry="5.6"/><ellipse cx="649.79999" cy="1377" fill="url(#bs)" rx="5.6" ry="19.200001"/><circle cx="1333.8" cy="932" fill="url(#bt)" opacity=".5" r="5.6"/><circle cx="1363.7" cy="801.40002" fill="url(#bu)" opacity=".5" r="5.6"/><circle cx="1262.2" cy="1069.7" fill="url(#bv)" opacity=".5" r="11.3"/><circle cx="1218.2" cy="547" fill="url(#bw)" opacity=".5" r="11.3"/><circle cx="1257.5" cy="444.89999" fill="url(#bx)" opacity=".5" r="11.3"/><circle cx="1279.9" cy="660.29999" fill="url(#by)" opacity=".5" r="7.1"/><circle cx="1303.6" cy="788.59998" fill="url(#bz)" opacity=".5" r="7.1"/><circle cx="1350.9" cy="709" fill="url(#bA)" opacity=".5" r="7.1"/><ellipse cx="1267.8" cy="996.29999" fill="url(#bB)" rx="19.200001" ry="5.6"/><ellipse cx="1267.8" cy="996.29999" fill="url(#bC)" rx="5.6" ry="19.200001"/><ellipse cx="1369.3" cy="565.70001" fill="url(#bD)" rx="19.200001" ry="5.6"/><ellipse cx="1369.3" cy="565.70001" fill="url(#bE)" rx="5.6" ry="19.200001"/><ellipse cx="1261.5" cy="297" fill="url(#bF)" rx="19.200001" ry="5.6"/><ellipse cx="1261.5" cy="297" fill="url(#bG)" rx="5.6" ry="19.200001"/><g fill="#fff"><circle cx="339.10001" cy="1021.2" r="2"/><circle cx="1023.5" cy="1172.2" r="2"/><circle cx="1030.9" cy="354.20001" r="2"/><circle cx="553.20001" cy="199.5" r="2"/><circle cx="206.5" cy="377.10001" r="1"/><circle cx="308" cy="931" r="1"/><circle cx="549.29999" cy="1170.2" r="1"/><circle cx="341.10001" cy="248" r="2"/><circle cx="972" cy="267.20001" r="1.3"/><circle cx="384.5" cy="1069.7" r="1.3"/><circle cx="415" cy="1149.7" r="1.3"/><circle cx="294.70001" cy="1083.7" r="2"/><circle cx="210.5" cy="1163" r="2"/><circle cx="411.5" cy="167" r="2"/><circle cx="872.79999" cy="188.2" r="2"/><circle cx="197.3" cy="858.5" r="2"/><circle cx="195.3" cy="989.70001" r="3.4"/><circle cx="249.5" cy="300.29999" r="3.4"/><circle cx="1143.3" cy="506.20001" r="3.4"/><circle cx="1118.3" cy="1092.3" r="3.4"/><circle cx="321.79999" cy="377.20001" r="2.2"/><circle cx="1023.5" cy="132.7" r="2"/><circle cx="549.29999" cy="130.7" r="1"/><circle cx="943.29999" cy="56.099998" r="1"/><circle cx="863.59998" cy="121.5" r="2"/><circle cx="712.5" cy="102" r="2.2"/><circle cx="1134.7" cy="308.89999" r="2.2"/><circle cx="1109.7" cy="197.5" r="2.2"/><circle cx="39.599998" cy="774.90002" r="2"/><circle cx="98.5" cy="861.90002" r="1.3"/><circle cx="88.5" cy="691.79999" r="2"/><circle cx="47" cy="996.40002" r="2"/><circle cx="127.2" cy="1073" r="1"/><circle cx="419.60001" cy="1251" r="2"/><circle cx="874.79999" cy="1239.7" r="2"/><circle cx="714.70001" cy="1278.6" r="2"/><circle cx="751.5" cy="1368" r="1"/><circle cx="498.60001" cy="1358.3" r="2"/><circle cx="538" cy="1256.1" r="2"/><circle cx="404.29999" cy="1334.1" r="1.3"/><circle cx="982" cy="1248.6" r="2"/><circle cx="847.79999" cy="1373.6" r="3.4"/><circle cx="321.79999" cy="1188.5" r="2.2"/><circle cx="649.79999" cy="1377" r="2.2"/><circle cx="1333.8" cy="932" r="1"/><circle cx="1363.7" cy="801.40002" r="1"/><circle cx="1262.2" cy="1069.7" r="2"/><circle cx="1218.2" cy="547" r="2"/><circle cx="1257.5" cy="444.89999" r="2"/><circle cx="1279.9" cy="660.29999" r="1.3"/><circle cx="1303.6" cy="788.59998" r="1.3"/><circle cx="1350.9" cy="709" r="1.3"/><circle cx="1267.8" cy="996.29999" r="2.2"/><circle cx="1369.3" cy="565.70001" r="2.2"/><circle cx="1261.5" cy="297" r="2.2"/></g></g></g><g stroke-width="1.19218" transform="matrix(.75752311 -.36811786 .3730473 .7475132 -34.690093 158.30652)"><g fill="#84542e"><path d="m157.20489 465.65979h302.05313l-121.04227-343.10143-302.01899 1.24002z"/><path d="m59.565998 140.26474 109.342692 308.9299h266.97678l-109.37288-310.02647z"/></g><g><path d="m453.83594 449.19464-.38672-10.4837-8.59766-13.88477 27.29102-9.77539-13.44922-19.97461c1.25441-.78817 8.36721-6.78158 9.83398-7.54492l10.39649-9.02344-14.79688-17.71093-266.976 1.0997-14.12881 9.73623c-14.26047 9.17949-23.03843 24.15095-28.28796 37.51407-5.24943 13.36314-6.83917 30.83075-3.9058 40.04776h285.05709z" fill="url(#c)"/><path d="m174.32848 378.50781c-14.26047 9.17949-17.25483 23.10334-21.65974 36.56836-3.55298 10.8608-6.27337 24.90146-3.34 34.11847l286.55603-.002c-2.63093-3.21863-.14649-10.48172-.14649-10.48172s-9.01545-9.93202-9.4043-14.98242l-15.70898-6.51563 36.39648-10.27148-13.37695-10.75782c4.60204-6.77626 11.55559-12.56353 21.37891-17.67578z" fill="url(#a)" filter="url(#b)" opacity=".75"/></g><g><path d="m19.172201 143.9568 12.691289 34.4169 77.65777 210.69586 10.26158 27.87353c12.86189 33.34884 11.9504 46.33065 37.42205 48.7167 4.26159.3992 9.00451 0 14.78468 0l-5.00864-20.13869c-3.9367-17.37337 4.43034-43.46845 25.89132-61.08814l10.13893-5.92514-121.068582-343.17688-16.21972 3.713003c-17.245667 7.120359-34.987746 28.120966-42.465475 41.92517-8.813485 16.631269-14.3838721 34.427507-8.012694 52.343277z" fill="#84542e" stroke-width="1.19218"/><path d="m71.26879 54.768712c-27.012869 13.247193-47.609013 52.999018-40.450294 72.906568l3.892895 10.54874c.475156-1.66537.97396-3.33459 1.509845-5.00325 7.248708-22.5032 21.396291-44.936544 42.291386-57.91313zm-18.673804 83.705418c-3.838055 11.91329-5.383233 24.12216-5.191293 34.17115l77.659417 210.69874c.227-.52707.43872-1.05839.67391-1.58615 8.22948-18.47322 23.25551-36.71751 43.78513-48.40275l-85.099612-241.290427c-14.495853 10.469227-25.917452 28.060247-31.827552 46.409437zm88.855684 250.29385c-3.46458 7.77898-5.39731 15.56698-6.12496 22.44884l14.00303 37.97782h1.49964c-5.65596-24.9601 6.37743-56.36639 32.19376-77.56183l-7.64943-21.68914c-15.50376 9.69378-27.38938 24.15954-33.92204 38.82431z" fill="url(#g)"/><path d="m73.837891 46.830078a8.5770037 8.5770037 0 0 0 -7.017579.240234c-15.802731 7.7497-28.343775 22.23696-36.505859 37.638672-8.162084 15.401716-12.618059 31.819156-7.566406 45.867186a8.5770037 8.5770037 0 0 0 .02344.0664l3.892578 10.55078 12.69336 34.41797 77.658198 210.69726 10.25977 27.8711a8.5770037 8.5770037 0 0 0 .002.004l14.00391 37.97657a8.5770037 8.5770037 0 0 0 8.11328 5.60937l1.5-.0117a8.5770037 8.5770037 0 0 0 8.29688-10.4707c-4.76566-21.0315 5.05205-49.68136 28.61328-69.02539a8.5770037 8.5770037 0 0 0 2.64453-9.48633l-7.66211-21.68555-5.8418-16.58398a8.5770037 8.5770037 0 0 0 -.002-.002l-85.093754-241.291079a8.5770037 8.5770037 0 0 0 -.002-.0039l-5.915968-16.755866-7.248047-20.537109a8.5770037 8.5770037 0 0 0 -4.845703-5.085938z" fill="url(#f)" filter="url(#h)" opacity=".5"/></g><g><path d="m185.44687 378.50782h302.05313l-121.04226-344.345034-284.51551 1.167071c-5.40642 1.238028-10.812932 2.476057-16.219352 3.714086z" fill="#84542e"/><path d="m87.808256 51.86939 109.342694 310.02719 266.97678-1.09914-109.37288-310.024627z" fill="url(#e)"/><g transform="matrix(1 0 .35268686 1 -776.0534 -319.6653)"><path d="m812.56499 423.60671c-4.86138.80277-9.6698 2.82455-12.71359 6.73047-.24423.61384-.43936 1.29239-.65679 1.94531 3.04607-3.86789 7.82778-5.877 12.66501-6.67578.57605.51397 2.69908.93999 3.07332 1.89648.003.00013.005-.00013.008 0 1.65871-1.88179-1.60075-3.20499-2.37576-3.89648zm5.37536 2.30273c-.14572.003-.30161.0363-.44462.0312-.0829.52827-.82044 1.41131-.70537 2 .28603.0101.6242-.1358.82838.12109 3.54616 5.48921 8.97816 10.05061 13.12901 14.39258 3.11151.41408 3.95736 2.38239 3.45316 3.76563.69772-1.75241.42517-5.34337-2.74779-5.76563-4.15084-4.34197-9.58285-8.90337-13.129-14.39258-.10208-.12843-.23806-.15549-.38377-.15234zm34.38055 1.9668c-2.24869.10279-5.62001 3.01385-6.33163 4.28515.68688-.9761 3.42432-2.18449 5.62626-2.28515.44327-.00035.88681.00007 1.33008 0 2.15844.49278 2.97666 1.24933 2.99729 1.99023.23236-1.18535.0114-3.46439-2.29192-3.99023-.44327.00007-.88681-.00035-1.33008 0zm9.44445 3.375c-.11533.018-.2384.0598-.37037.13086-.7968.42876-.8631 1.77403-.84316 2.32422.00076.0211.008.0414.009.0625.0457-.12907.0664-.25619.12857-.38672 1.25081-.59788.88961 1.87127 2.44033 1.16601 3.44279 3.41889 7.26984 6.78582 9.81159 10.87891 1.94271.88758 4.75077 4.87678 4.39607 6.51367 1.7958.19691-1.4002-7.46126-3.6907-8.51367-2.54175-4.09309-6.36879-7.46002-9.81159-10.87891-.81232-.37962-1.26266-1.42265-2.06995-1.29687zm-15.89343 1.15429c-.008.0248-.0378.0636-.042.0859-.0008.004.002.004.001.008.005-.03.0304-.0629.0409-.0937zm77.21323.0156c-.14034-.009-.29237.006-.45931.0508-2.18308 1.943-3.63911 4.4291-4.38709 7.11719.83518-1.91065 2.05278-3.6674 3.68171-5.11719 1.33557-.36174 1.70131 1.23915 2.98202 1.09766 3.22087-.56603 7.40108 3.69811 9.41206 7.0664 1.72486 2.65848 6.40293 4.63031 5.20529 8.0293.2872.2055.29377-1.56559.58742-1.38867 1.19764-3.39899-3.36247-5.98215-5.08733-8.64063-2.01099-3.36829-6.19119-7.63243-9.41207-7.0664-1.12062.1238-1.5403-1.08624-2.5227-1.14844zm-73.95001.94922c-1.94594.93602-4.74777 2.87595-5.08684 3.67969.66201-.91111 4.51633-2.09732 5.83814-2.19922 1.00817 1.79024 2.46943 1.09052 4.01996 1.25586 2.70034-.99659 4.43534-.27042 4.30075.77539.27918-1.31134-.85441-3.78697-3.59537-2.77539-.66471-.0709-1.29269-.00052-1.89615-.0176-1.09808.13912-2.25757-.0152-3.13-.7168-.18952.0111-.27717-.008-.45049-.002zm-46.29499.60937c-.11579.18558-.25313.34876-.35821.54493-1.36548 4.27274-1.21743 8.7138-1.45851 13.1289-.54151 3.7488-1.57907 8.61926.00038 11.45117.006.38756-.0976.93247-.23686 1.50782.5097-1.1972.95504-2.65561.94223-3.50782-1.57943-2.83191-.54189-7.70237-.00038-11.45117.21395-3.91828.1803-7.85046 1.11135-11.67383zm-3.97185 1.3711c-.7369.007.0207.27299 0 0zm8.23448.86914c-.42077.0831-.97571 1.41213-1.34457 2.66601.15736-.34712.35278-.60943.6392-.66601-.57409.009 4.71149-.09 1.43553.40429-.35629 2.128 2.7139 5.53939 1.71239 8.87305-.84792 3.18747.60895 6.07542.28109 9.29297-.17297 4.14118-.37383 7.89078-.69155 12.11719.16014 1.07744-.027 2.97802-.3696 4.49804.73757-1.02768 1.32656-4.80502 1.07498-6.49804.31771-4.22642.51858-7.97601.69154-12.11719.32785-3.21754-1.129-6.10551-.28109-9.29297 1.00151-3.33366-.22618-3.45208.13013-5.58008.31073-1.48645-3.85373-3.68843-3.27805-3.69726zm51.07947.77148c-.0254.10114-.10809.20764-.16881.3125.0433-.006.0838-.0359.12761-.13476.0227-.0512.0246-.12052.0412-.17774zm-14.14474.0781c-.0128.0333-.0613.0824-.0647.11133-.00069.006.0196-.001.0201.004.014-.0384.0177-.0756.0445-.11523zm120.66105.35742c-.27813-.025-.59962-.003-.96954.0742-4.32146 2.02419-9.93622.29998-14.93098.77344-2.43117-1.13219-6.81201 2.96766-7.06838 4.4414.60384-1.43668 4.07647-3.50623 6.36301-2.4414 4.99475-.47346 10.60953 1.25075 14.93098-.77344 2.46956-.51801 2.97168.66798 2.54542 1.95898.0209-.0314.0488-.0409.0692-.0742.81409-1.33523 1.00722-3.78378-.93966-3.95898zm-22.9689 5.28906c-.004.0208-.0255.0525-.0274.0723-.001.0117.006.0129.005.0234.0109-.0329.008-.062.022-.0957zm-151.64419-4.99609c-2.29882.0615-4.70521.41702-6.84085.11914h-11.4043c-2.06942 0-3.8576 2.71599-4.21029 3.43164.33704-.45846 1.37613-.93766 3.50492-1.43164h11.4043c4.27127.59576 9.62236-1.4196 13.04278 1.52344.59192-.33911.27369-1.39643.70537-2-1.71021-1.47153-3.90311-1.70408-6.20193-1.64258zm111.84375 0c-2.29898.0616-4.70339.41726-6.8389.11914h-11.40625c-2.14554 0-3.8415 2.54046-4.19903 3.42187.34487-.45542 1.38085-.93147 3.49366-1.42187h11.40625c4.27101.59623 9.62132-1.42026 13.04083 1.52344.59143-.33901.274-1.39686.70537-2-1.70976-1.47186-3.90295-1.70421-6.20193-1.64258zm22.94425 1.26562c-.58527.41351-.57519 1.0966-.14234 1.83789 2.56372.58798 4.40979 2.29509 6.21403 4.01172.96701.73653 1.93003 1.34204 2.22678.39258-1.07703-.96932-2.17368-1.88386-3.34945-2.53125-1.36701-1.45006-3.23409-3.36422-4.94902-3.71094zm-73.9425.19141c-1.89192.5585-4.54851 1.62727-5.01478 2.44531.65984-.82842 4.71177-.70986 5.90053-.81445 1.27655.0834 2.68842.0182 3.3625 1.41992.0719.36451.0692.65419.035.91406.005-.0183.0195-.028.0243-.0469.0758-.29675.73709-2.40538.64599-2.86719-.25631-.533-.63953-.81424-1.06115-1.01172-1.26201.54929-2.56373.36751-3.89247-.0391zm-45.37064.44726c-.0784.34176-.1556.68554-.17623.93165-.008.0964.0146.14768.013.23437.0303-.43504.089-.81532.16319-1.16602zm-37.94178 1.66797c-.0154.0319-.0707.1144-.0795.13672-.009.0219.0159.0321.0107.0527.0178-.0632.0247-.1254.0688-.18946zm111.81757.0742c-.0161.0473-.0826.15441-.0869.18555-.001.01.0119.0139.0113.0234.006-.0693.0386-.13868.0757-.20899zm-33.62213.45703c-.001.0143-.024.0309-.0236.0449.00019.007.0107.0167.0113.0234-.002-.0242.01-.0454.0124-.0684zm-21.45242.0312c-.4582.30901-1.03163.65447-1.84807 1.09766-1.50017 4.59133-1.63659 3.80981-5.31314 6.05469.23941.45575-.98567 1.69484-.70538 2 3.67656-2.24488 3.81298-1.46336 5.31315-6.05469 2.96015-1.60688 3.3019-2.16773 2.55344-3.09766zm97.14718.0312c-1.0372 2.54855-1.84418 5.87588.10033 8.27149 1.82595 3.95814 6.74107.14222 8.23294 2.49609.37745-.23085.37066-1.66898.70538-2-1.49188-2.35387-6.407 1.46205-8.23294-2.49609-1.45515-1.79271-1.37272-4.13655-.80571-6.27149zm-57.89313.0957c-.22533.66315-.63592 1.30881-.70537 2 2.09274.35926 2.39576 2.42455 4.08108 3.51367-.17731 5.43497-.30262 11.16515-.22162 16.73242-.6755 1.87687-.47244 4.81875-.9274 7.18164 1.37166-2.39552.74267-6.70852 1.63278-9.18164-.081-5.56728.0443-11.29745.22162-16.73242-1.68532-1.08912-1.98834-3.15441-4.08109-3.51367zm-17.60286.30273c.168.20165.42114.42576.84794.69141-.42796-.26637-.68008-.48938-.84794-.69141zm112.25113 1.75781c-.88112.47449-1.16283 1.5382-.1482 3.6543-.3558 1.89414-.70769 3.84774-1.25785 5.7207.99922-2.44521 1.47783-5.13666 1.96323-7.7207-.31546-.6579-.46906-1.18368-.55718-1.6543zm-167.89756.29102c-1.03614.62383-1.3486 1.61155.14715 3.96875.1912-.6026.44062-1.19309.84055-1.75195-.65161-.98004-.91129-1.66366-.9877-2.2168zm111.84375 0c-1.03646.62402-1.34891 1.61192.14842 3.9707.19131-.60336.43878-1.19415.83928-1.7539-.65171-.98019-.91125-1.66367-.9877-2.2168zm-124.87314.0723c-.97858 1.42841-1.3894 5.15751-.1516 7.4629 2.13178 5.40922-1.05486 11.44228-.52663 17.2539-.93038 3.117-.0649 7.53563-.80523 10.96094 1.89666-3.51364.38543-9.19133 1.51061-12.96094-.52823-5.81162 2.65841-11.84468.52663-17.2539-.83965-1.56384-.89388-3.75065-.55378-5.4629zm111.84375 0c-.97809 1.42728-1.38815 5.15391-.15217 7.45899 2.13292 5.41305-1.05415 11.44458-.52606 17.25781-.93008 3.117-.0649 7.53564-.80523 10.96094 1.89662-3.51364.38577-9.19131 1.51061-12.96094-.5281-5.81323 2.65897-11.84476.52605-17.25781-.83809-1.56303-.89255-3.74801-.5532-5.45899zm-104.98805.0215c-1.2305.52699-.53968 2.70028-.58812 4.51953 1.12022-.98884.67207-2.97066.58812-4.51953zm111.84375 0c-1.2305.52699-.53968 2.70028-.58812 4.51953 1.12022-.98884.67207-2.97066.58812-4.51953zm58.15567.87109c-.0868-.1102-.34234.7939-.65229 2.01563.10301-.22184.30709-.54037.37068-.71875.14549-.65007.1924-.71525.30301-1.15821-.009-.0349-.009-.12332-.0214-.13867zm-120.30316 1.50196c-.0153.0198-.0377.0334-.0538.0527.0139-.0159.0299-.0177.0436-.0352.004-.005.006-.0129.0101-.0176zm117.21069.34961c-.95243 2.19841-2.37588 4.05793-4.35093 5.68554.31181.23699-1.02338 1.93444-.70537 2 2.44362-2.01376 4.08181-4.35255 4.97057-7.29297.0524-.15437.0452-.24998.0857-.39257zm-126.44112.2539c-.55211.45131-1.11396.89514-1.70063 1.2168-2.11996 1.51962 5.71949.36049 7.36202 1.37695 1.23602.12178 1.94574.36607 2.43548.64258 1.86363-.6649 2.38567-2.23707-1.7301-2.64258-1.05438-.65241-4.47877-.45034-6.36677-.59375zm-34.41151 1.88672c-1.75219 3.35374.0307 7.44508-1.04863 11.19141.81667 4.48041.7047 9.9942-.56402 14.34179 1.92192-4.53746 2.21785-11.13836 1.2694-16.34179.87187-3.02619-.15322-6.28313.34325-9.19141zm111.84237.004c-1.74933 3.35402.0312 7.44142-1.04725 11.1875.77659 4.3957.72748 9.84-.50869 14.14062 1.90973-4.49114 2.11755-11.02657 1.21407-16.14062.87111-3.02581-.15333-6.28029.34187-9.1875zm-118.55125.39453c-.10392.5311-.29567 1.01242-.72588 1.34375.14085 4.27876.45615 8.28068-.23132 12.45703.22019 1.03728.1745 1.96508.0318 2.79492.65224-.99204 1.11087-2.73468.67353-4.79492.65148-3.95768.39956-7.77235.25183-11.80078zm111.84375 0c-.10392.5311-.29567 1.01242-.72588 1.34375.14094 4.27958.45572 8.28011-.23132 12.45703.22107 1.03742.17609 1.96522.0338 2.79492.6526-.9918 1.11079-2.73384.67157-4.79492.65107-3.95822.39958-7.77178.25183-11.80078zm-22.7369.0293c-.7384.0293-.63022 3.22351-.45778 4.74805-.98284 5.61757-.20942 11.64058-1.35273 17.08203.11292.73858-.20999 3.87363-.7458 6.10742.93186-1.43723 1.60785-7.08259 1.45117-8.10742 1.14331-5.44145.3699-11.46447 1.35274-17.08203-.0813-.71861-.10861-1.73906-.0794-2.69336-.0585-.029-.11783-.0567-.16821-.0547zm80.69785 3.66993c-1.21908 2.80195-3.1798 5.35196-6.22989 6.32812-.35339.58543-.68058 1.69426-.70537 2 3.77209-1.20723 5.84912-4.80396 6.93526-8.32812zm-77.73442 56.71875c-5.70475 1.80247-12.55683 2.17214-16.58112 7.21875-3.22331 1.42514-4.54658 4.03158-5.37392 6.9414.87589-2.06863 2.20993-3.85436 4.66855-4.9414 4.02429-5.04661 10.87637-5.41628 16.58111-7.21875 1.7239.91349 2.71932 1.2382 4.16826 2.47461.63175-.20491 1.17533-.56402 1.52472-1.27735-1.97244-1.94739-2.94876-2.11688-4.9876-3.19726zm-56.36015 3.26953c-.51417.88703-.5357 1.53834-.26097 2.04687 3.52168.30988 7.41519.86441 10.27786 2.9336 4.55835.9858 6.0991 5.90279 9.26965 9.04297 3.26804 2.87763.71732 12.39735 7.16739 8.57421.95175.44974 1.40435 1.02275 1.50329 1.64649 1.0478-1.33019 1.1271-2.73684-.79792-3.64649-6.45007 3.82314-3.89934-5.69658-7.16739-8.57421-3.17055-3.14018-4.71129-8.05717-9.26965-9.04297-2.98154-2.15511-7.08976-2.67751-10.72226-2.98047zm64.80277.60351c.0122.9332.22003 1.92535.51281 2.9375 3.84841 3.24491 6.12313 9.10467 10.82154 12.04688 3.33943 3.75992 6.75814 7.3724 10.61054 10.46875 1.11099 2.52115 5.98872 3.40768 6.68999 5.28711 3.19059-3.49108-4.54578-4.02199-5.98461-7.28711-3.85241-3.09635-7.27111-6.70883-10.61055-10.46875-5.17956-3.24356-7.39121-10.06875-12.03972-12.98438zm53.10674 1.85157c-2.34462.96365-4.53159 3.38539-5.02168 5.99804.94997-1.78332 2.59024-3.28861 4.31631-3.99804 1.72146.54051.95212 4.37564 2.29046 5.94921.0709 1.01968-.0228 1.96875-.21837 2.83985.66028-1.29055 1.05443-2.96033.92374-4.83985-1.33834-1.57357-.569-5.4087-2.29046-5.94921zm-166.55897 1.23046c-.20758.0202-.40407.065-.58337.13672-2.84715.62447-13.95018 2.95414-9.7491 4.46094 2.58388-1.07194 7.31626-2.08205 9.04372-2.46094 1.71626-.68683 4.87592 1.12793 5.8448 2.77149 3.1293-1.10568-1.77476-5.17856-4.55605-4.90821zm202.40318 2.37891c-1.31342 1.08936-1.93168 2.46839-2.24095 3.97266.37462-.71452.83664-1.39293 1.53558-1.97266 3.34838 1.60349-.27363 5.32501.23376 7.9707 2.59626 3.16031 2.64753 7.11852 3.52559 10.72071.33754 3.2522.59019 6.61344 1.3019 9.83203-.99687 4.10066-1.82022 8.36736-3.13654 12.4375 1.75161-4.65463 2.68189-9.65765 3.84387-14.4375-.71171-3.21858-.96632-6.57983-1.30386-9.83203-.87806-3.6022-.92932-7.56039-3.52559-10.72071-.50743-2.6458 3.11633-6.36829-.23376-7.9707zm-167.78596 2.69922c-.50377.0204-1.04283.10131-1.61288.24805h-3.82031c-7.13924 1.67023-13.94881 6.18977-15.93513 13.36718 2.5992-6.01993 8.77887-9.85799 15.22976-11.36718h3.82031c4.56036-1.17389 7.12435 1.88478 5.71123 6.10742 1.26706 4.28767-3.70945 8.78372-.001 12.16406-.19102 3.73916-2.10272 6.80746-1.28608 10.8457.56077 5.39731-1.20065 10.53884-1.29715 15.62305.0153 1.60911-.0197 5.64161-.65147 8.39844 1.34262-2.14865 1.37662-8.32224 1.35684-10.39844.0965-5.08421 1.85792-10.22574 1.29715-15.62305-.81663-4.03823 1.09506-7.10655 1.28608-10.8457-3.70841-3.38035 1.26811-7.87639.001-12.16406 1.23648-3.69481-.57194-6.49866-4.09835-6.35547zm-39.16516 3.38672c-3.00929 1.80212-8.99066.35015-9.58082 4.27734.20703-.0403.39949-.0359.60143-.0605 2.06779-1.34639 6.01092-.86155 8.27402-2.2168 1.44064 2.41384 3.33049 2.10948 5.53497 1.99414 2.16871-.0999 6.26219-.5418 7.87453-.0762 4.44779-3.09747-3.75711-2.08111-7.17111-1.92383-2.20448.11534-4.09239.41969-5.53302-1.99414zm61.9584.40039c-3.05222-.20774-7.04941 2.42843-6.36609 4.31641 1.21766-1.32261 3.63024-2.4546 5.66072-2.31641 2.10503.37259 3.09805 1.01351 3.39083 1.73828 1.35623-1.39548 1.2892-3.03484-2.68546-3.73828zm30.51323 1.43555c-.23246.45636-.46963.90765-.67726 1.38867.0467 6.05904-1.42383 11.37742-1.24368 17.19922.68154 5.2207-2.34384 9.70054-1.37877 14.96289.49032 4.62218 1.50052 7.31018.0486 11.55273.007.4973-.0563.81872-.0974 1.19531.47029-.34627.82818-1.30747.80273-3.19531 1.45198-4.24255.44177-6.93055-.0485-11.55273-.96507-5.26235 2.06032-9.74219 1.37878-14.96289-.17393-5.6207 1.16323-10.78615 1.21556-16.58789zm105.66797 1.7832c-2.40043 1.12475-3.42184 2.88339-3.84814 4.90234.62124-1.1611 1.58043-2.1703 3.14276-2.90234 5.06519.56402.0584 4.41297 1.65084 6.73828.44847 6.51536.49048 13.23396-1.41316 19.36328-.0727.49106-.19884 1.03795-.35908 1.59961.5018-1.20952.90556-2.52614 1.06446-3.59961 1.90363-6.12932 1.86163-12.84792 1.41316-19.36328-1.59242-2.32531 3.41434-6.17426-1.65084-6.73828zm-97.69013 1.88476c-.90014.69179-1.23905 1.64776-1.34869 2.71094.18267-.25176.37077-.50147.64332-.71094l.25392.0664.90011.6875c1.44592 3.67596 5.35842 7.45814 3.28718 12.03906 1.23241 4.126-1.32306 8.52495 1.13312 12.49805-.71639 4.142.7355 8.6896-.86307 12.57031.6842 5.11308-.49715 10.58829-.59235 15.90625-.72978 1.19369-.42951 3.90596-.5601 5.83008 1.42981-.76667.17068-6.03933 1.26548-7.83008.0952-5.31797 1.27654-10.79316.59234-15.90625 1.59857-3.88071.14669-8.42831.86308-12.57031-2.45618-3.9731.0993-8.37205-1.13312-12.49805 2.07123-4.58091-1.84127-8.36311-3.28719-12.03906l-.9001-.6875zm-62.65656.5879c-.21517.45504-.4587.91182-.72013 1.3496-.004.23039-.002.46101-.006.69141.34056-.71445.57371-1.4026.7257-2.04101zm119.28454 2.52148c-.62397.0302-1.2684.12556-1.82686.0352-2.00839-.34149-5.21919 2.77472-4.84837 4.41015 1.00736-1.36088 2.82498-2.63426 4.143-2.41015 1.11691.18081 2.5808-.38083 3.52766.32031 7.50909-.22591 15.26137.60348 22.60711-.32031 2.24027-.12455 6.07282.37764 6.71946 1.91406 2.90406-3.11065-2.99469-4.08192-6.01409-3.91406-7.34572.92379-15.09802.0944-22.60711.32031-.47343-.35057-1.07683-.38565-1.7008-.35547zm-89.11555.58789c-1.44363.95292-4.59576.69859-6.89704.5332-4.89723.72435-11.28485-1.71166-14.69753 2.57032.17575.30285.40925.51512.62738.75195 3.57464-2.49559 9.04699-.68362 13.36478-1.32227 3.2888.23637 8.32413.66246 7.60241-2.5332zm-62.33923.60742c-.19226-.009-.38707.005-.58167.0488h-1.6211c-3.04315 1.15921-7.2117-.74917-9.95114 1.00781.29231.52543.7477.94744 1.26665 1.32617 2.53558-.37658 5.59774.57314 7.97912-.33398h1.62109c1.69302-.37825 3.32155 1.37116 3.77257 2.9043 2.10973-.6381-.0115-4.83212-2.48552-4.95313zm124.7662 3.60352c-2.83738 1.11256-5.21226 4.59384-5.92445 7.5 1.26393-2.72982 3.64463-5.41716 6.27448-5.83985 1.20725.25926.65604-.54857-.35003-1.66015zm-110.01121.64648c-.17556.37039-.37138.73459-.50856 1.11524-1.34188 3.08352 3.90925 4.90432 4.78934 6.98242 3.34639-2.8549-4.43742-4.67481-4.28078-8.09766zm47.55863 2.85742c-1.50911.9167.14746 4.62786-1.6141 7.61133.024 6.885-1.37221 13.40097-1.27771 20.26953-.0413 1.19635-.14266 2.00836-.25596 2.73047.47625-.30549.8554-1.66222.96134-4.73047-.0945-6.86856 1.30175-13.38453 1.2777-20.26953 1.11971-1.89639.86552-4.02671.90873-5.61133zm109.33227.0215c-.17324.0458-.35208.0619-.52019.13476-1.14535 4.9016 3.0776 8.7664 3.82589 13.33594 2.6534 3.8699 1.51507 8.74493 1.61722 13.21875.24217-.4181.48364-.83613.69877-1.28906-.26281-4.65866 1.18184-9.85699-1.61062-13.92969-.65079-3.97416-3.92119-7.41701-4.01107-11.4707zm-53.69505 6.91601c-.32644-.00043-.65301.008-.9792.002-3.8329.48444-4.81105 1.81758-4.29895 3.13476.6891-.50051 1.82406-.91111 3.59357-1.13476 2.61478.0451 5.23789-.11378 7.84574.13281 4.11814.21257 7.56531.98497 11.70227 1.1543 1.72263.19832 2.66237.66883 3.04535 1.22265 1.40988-1.05557 1.45255-2.78605-2.33998-3.22265-4.13694-.16933-7.58412-.94173-11.70227-1.1543-.96015-.0908-1.92335-.0943-2.88663-.10547-1.29584.83369-2.67507 1.38459-4.02776 1.06445-.0303-.33528.003-.71186.0479-1.09375zm-62.48175.83985c-.0155.0653-.0127.13181-.0266.19726.0197-.0374.0235-.0759.0439-.11328-.0101-.0264-.008-.0574-.0173-.084zm142.05744 13.07812c-.31642.70331-.68156 1.37819-1.16069 1.97852-.3543 4.45253-12.07729 7.90597-9.85462 10.08203 2.50307-2.08272 8.88897-4.81108 9.14925-8.08203.91366-1.14478 1.48878-2.51074 1.86606-3.97852zm-26.68765 2.56446c-.0335.0591-.0471.12088-.0829.17968.005.0769-.004.14848-.001.22461.033-.13438.0599-.26907.084-.40429zm-.91729 4.03515c-1.97775 3.76824-7.04849 6.09593-11.01305 6.96485-3.61881-.46675-10.36718-.81424-6.82009 1.77148 1.69569-.19061 4.28073-.008 6.11472.22852 4.62362-1.01336 10.75214-4.00961 11.71842-8.96485z" fill="#84542e" filter="url(#k)"/><path d="m814.93363 427.50124c.12981.33054.0552.72347-.37102 1.20703-4.78758-.24463-9.7658 1.49503-12.08067 5.81641-1.36548 4.27274-1.21743 8.7138-1.45851 13.1289-.54151 3.7488-1.57907 8.61926.00038 11.45117.0279 1.85408-1.95814 6.96437-2.57543 4.70508.19004 1.45234 1.46058 2.63403 1.7896 2.5625.82325-.17897 2.10286-3.77688 2.08046-5.26758-1.57945-2.83191-.5419-7.70237-.00039-11.45117.24108-4.4151.093-8.85616 1.45852-13.1289 2.31487-4.32138 7.29308-6.06104 12.08067-5.81641.99812-1.13236.12858-2.72245-.91649-3.20508-.002-.001-.005-.00084-.007-.002zm40.97096 4.6289c-.36041 1.5869-4.20102 2.94544-6.31896 1.24219-.57511.0336-.93615.003-1.36639-.008-.0289.0182-.0688.0344-.0967.0527-.18029.11784-.42171.0575-.67465-.0586-.47953-.0445-.78067-.1375-1.03568-.24219.4183.60289 1.30658 1.46136 2.54909 1.9375.30478-.0627.72056-.18735.92516-.20312.13354.23713.29302.33465.44165.49218.18318.0129.36197.0404.55216.0293 2.82993 2.27582 8.5064-1.337 5.04766-3.23633-.008-.004-.0155-.002-.0233-.006zm2.2356 4.37696c.25174.70883-.45526 1.69066-2.6136 2.37109-3.0858 2.12758-6.43938-1.18696-9.83386-.88086-.88823-.0964-1.37599-.25384-1.5949-.44531.31463.64754 1.3543 1.89461 2.39788 2.31641.16624.0672.33053.11142.49165.1289 1.39736-.12601 2.78295.36712 4.15049.83594.20826-.008.53982-.0132.67887-.0254 1.01477.0663 2.09748.0719 2.84464.76172.73183-.0254 1.45332-.20427 2.15986-.69141 2.04011-.64316 1.52916-3.56581 1.39632-4.26367-.0167-.0879-.0548-.0626-.0774-.10742zm-14.13759.65039c-.005.009-.026.0137-.0298.0234-.002.005.0104.0238.009.0293.005-.0175.0127-.035.0206-.0527zm-35.40768 1.15039c.33464.0577.38663.14311-.76198.3164-.35629 2.128 2.7139 5.53939 1.71239 8.87305-.84792 3.18747.60895 6.07542.28109 9.29297-.17297 4.14118-.37383 7.89078-.69155 12.11719.35171 2.36637-.94053 8.80575-1.98293 6.11523.51771 1.74461 1.70375 2.85998 2.0628 2.54102.79984-.71056 1.48194-4.85858 1.21476-6.65625.31772-4.22641.51857-7.97601.69154-12.11719.32786-3.21755-1.129-6.1055-.28108-9.29297 1.00151-3.33366-2.06868-6.74505-1.71239-8.87305 2.40827-.36336.82013-1.84129-.25564-2.29882-.0772-.0328-.17759-.0261-.27701-.0176zm-1.44298 36.71484c-.0693-.17878-.13062-.55117-.19713-.81445.00015.061-.00033.1167-.00018.17773.0393.23483.13329.42098.19731.63672zm54.86321-36.42773c1.03742 2.34947 3.94323 4.51928 5.79526 6.74414-.94408-2.29623-3.89013-4.46348-5.79526-6.74414zm-40.50379.0273c.13582.2383.36276.61272.4685.82031 1.00246 1.64119 1.91998 2.60934 2.68928 3.37305.28656-.89434-1.31189-1.70123-3.15778-4.19336zm102.34913.36133c-.6516.14764-1.25781.61183-1.77627 1.52539-1.23358 2.58016-2.78087 6.80782-.47514 9.64844.16333.35404.37493.58264.58305.82226-1.19086-2.7396.11402-6.22749 1.18672-8.4707.10824-.19073.22238-.35107.33788-.50391-.0771-.54435.12286-1.01012.78518-1.24609.27875.0554.53667.14415.79969.22461 1.92614-.29884 4.21284 2.01285 5.81551 3.71289 3.48935 1.92127 6.36307 5.9587 9.6993 7.96875.38593-1.0953.16168-2.04247-.37724-2.91211-.24474-.39494-.57574-.76906-.92262-1.13867.21159.63243.2669 1.3026.003 2.05078-3.33623-2.01005-6.208-6.04748-9.69734-7.96875-1.64255-1.74233-4.0072-4.15582-5.962-3.71289zm41.75064 1.14453c.70134 1.52326-1.81754 4.76865-4.02536 3.76563-2.7452-.4964-5.3849-.19079-3.47008 3.80273-.89282 4.753-1.69103 9.90107-5.94025 13.12695-.56511.65146-2.79088 2.00384-4.4442 2.56641-.052.0177-.0951.0476-.14773.0645-.009.0149-.046-.0152-.0597-.008-.77515.23628-1.40313.28938-1.59182-.0664.59375 1.75611 6.64598.46956 7.53617-.55664 4.24921-3.22588 5.04743-8.37395 5.94025-13.12695-1.91483-3.99352.72682-4.29913 3.47203-3.80273 2.35735 1.07104 4.32273-3.86783 2.73073-5.76563zm-85.8518.88672c-.006.004-.0247-.002-.03.002-.0448.0344-.0607.0751-.0959.11133.0395-.0376.0764-.0754.12589-.11328zm-84.1773.34766c-2.46563 3.44744-8.76859 1.4192-4.93338 7.1875-2.48773 3.47638-.29128 7.90871-1.45032 11.93164.98479 5.40276.64596 12.3349-1.48088 16.875-.27642-.16309-.46776-.38425-.64963-.61133.59631 1.07826 1.44651 2.31766 1.94425 2.61133 2.12685-4.5401 2.46568-11.47224 1.48089-16.875 1.15904-4.02293-1.03742-8.45526 1.45032-11.93164-3.83522-5.7683 2.46775-3.74006 4.93338-7.1875-.63099-.54292-.55122-1.74704-1.29463-2zm111.84375 0c-2.46563 3.44744-8.76859 1.4192-4.93338 7.1875-2.48855 3.47809-.29176 7.90738-1.45032 11.93164.94375 5.34191.69179 12.25488-1.46472 16.74609.14519.88414.48068 1.64717 1.23251 2.14844 2.21953-4.48638 2.48046-11.49675 1.52684-16.89453 1.15856-4.02426-1.03824-8.45355 1.45032-11.93164-3.83522-5.7683 2.46775-3.74006 4.93338-7.1875-.61214-.52699-.57596-1.7475-1.29463-2zm-139.85672.0645c-.01.0135-.0376.017-.043.0332-.005.0152.0159.037.0127.0527.006-.0286.0189-.0572.0303-.0859zm78.23702.43555c-.003.003-.0127.003-.0157.006-.006.007.0138.0366.01.0449-.003-.0184.006-.033.006-.0508zm-.00033.084c-.13568.42311 1.35629 2.41105 2.34958 3.0293 2.39139.24315 9.14882 3.46086 8.31851-.74805-.29618-.61591-.74896-.92107-1.25591-1.10742-.33155 2.77755-6.16708.0782-8.35723-.14453-.6831-.42518-.99715-.76102-1.05495-1.0293zm-78.15957.0371c.68261 1.18662 3.63936 2.81447 5.5096 3.87695.0495-.3848.0845-.77218.1493-1.15429-1.07209-.70606-4.90301-1.64199-5.6589-2.72266zm111.96418.10156c.70984 1.31573 3.53815 2.79051 5.38814 3.79492.0504-.39135.0861-.78527.15228-1.17382-1.04191-.68363-4.62316-1.58442-5.54042-2.6211zm62.10783.68555c-.003.007-.014.012-.0167.0195-.005.0148.004.0388.00025.0547.008-.0253.007-.0484.0164-.0742zm.12037.77734c.49133 1.0682 2.12039 2.5645 4.07353 2.25586 1.78901.0452 4.04915-.33803 5.45109.13867.19349-3.15783-3.90945-2.06706-6.74572-2.13867-1.5959.2522-2.43689.0967-2.7789-.25586zm-163.51015.28907c-1.58206-.34232-2.74769 5.04267-1.14307 8.03125 2.13178 5.40922-1.05486 11.44228-.52663 17.2539-1.26398 4.23463.81014 10.88418-2.37105 14.16016.11945 1.00737 1.04364 1.02084 1.29462 2 3.1812-3.27598 1.10708-9.92553 2.37106-14.16016-.52823-5.81162 2.65841-11.84468.52663-17.2539-1.51837-2.82803-.55414-7.78142.8941-8.01758.0343-.25378.0434-.50794.087-.76172-.38055-.78885-.76758-1.17296-1.13267-1.25195zm111.84375 0c-1.58209-.34271-2.7459 5.03917-1.14364 8.02734 2.13292 5.41305-1.05415 11.44458-.52606 17.25781-1.26358 4.23464.81 10.88418-2.37105 14.16016.11945 1.00783 1.04353 1.0204 1.29462 2 3.18106-3.27598 1.10748-9.92552 2.37106-14.16016-.52809-5.81323 2.65897-11.84476.52605-17.25781-1.51613-2.82765-.55338-7.77817.89468-8.01367.0343-.25378.0434-.50794.087-.76172-.38088-.78855-.76758-1.17287-1.13267-1.25195zm34.83368.15039c.18104 1.39557 2.39732 3.36119 4.71196 3.58007 1.22484.48969 4.23604 4.11665 4.13794.74414-.456-.40544-.92277-.82578-1.37222-1.2539-.41641 1.89958-2.95486-1.04826-4.06035-1.49024-1.27793-.12085-2.51685-.78231-3.41733-1.58007zm-139.8168.28906c-.19729-.0108-.42497.006-.68656.0527-2.37708.39947.38956 5.10136-1.69028 6.70313.14085 4.27876.45615 8.28068-.23132 12.45703.96453 4.54376-2.39559 7.71379-2.69415 4.11133-.0618.53285.0987.23669.10506.66015.0222 1.46438 1.51201 2.91073 2.06839 2.85743 1.06311-.10187 2.47188-2.53591 1.81532-5.62891.68747-4.17635.37218-8.17827.23133-12.45703 2.07983-1.60177-.68681-6.30366 1.69027-6.70313.18903-.0339.34125-.0357.4962-.0391.11618-1.13727-.072-1.95701-1.10426-2.01367zm-5.30231 23.32422c-.0275-.33188.0224-.8224.0526-1.27344-.0262.41833-.0184.83253-.0548 1.25195-.002.0162.004.007.002.0215zm117.14606-23.32422c-.19729-.0108-.42497.006-.68656.0527-2.37708.39947.38956 5.10136-1.69028 6.70313.14094 4.27958.45572 8.28011-.23132 12.45703.87225 4.09314-1.7368 6.9865-2.48956 4.91016-.008.0193-.0429.0289-.0433.0508-.0818 4.64739 4.85182 1.84589 3.82748-2.96094.68704-4.17692.37227-8.17745.23133-12.45703 2.07983-1.60177-.68681-6.30366 1.69027-6.70313.18896-.0338.34131-.0357.4962-.0391.11618-1.13727-.072-1.95701-1.10426-2.01367zm-62.70655.98437c.15953 1.92442-2.10399 3.65715-5.04972.98828-2.18891-1.90462-4.08784 1.14798-6.31868 2.3711-1.16472.83489.68352.86792 2.8519.89062 1.60097-1.29952 3.0985-2.70865 4.7614-1.26172 4.04221 3.66229 6.79487-.95073 3.7551-2.98828zm119.86582.0371c-.11997-.15234-.40515.69715-.98698 3.29688-.92985 2.60824-4.25606 8.4487-7.16179 6.24023-.15276.1344 1.45425 1.86846 1.29463 2 2.2655 1.72187 4.74786-1.41962 6.18943-4.13672.15905-.58589.36107-1.18376.4667-1.74414.13591-2.36441.39797-5.40234.19801-5.65625zm-88.30025 1.1836c.30991.37308.65586.72696 1.09952 1.01367-.40091-.49343-.71602-.79678-1.09952-1.01367zm1.09952 1.01367c-.17731 5.43497-.30262 11.16515-.22162 16.73242-1.1335 3.14941.25006 9.33347-3.25452 10.66211.0796.95386 1.1156 1.14294 1.29462 2 3.50459-1.32864 2.12102-7.5127 3.25453-10.66211-.0352-2.41602-.0181-4.86492.0118-7.30469-.32328-3.28299-.3063-6.55176-.10027-9.85547-.36903-.50685-.73088-1.26006-.98455-1.57226zm9.71826 2.14453c1.10256 2.13953 1.05473 3.96549-2.45893 2.45312.25501.37946.937 1.17592 1.29462 2 4.61906 1.98816 3.31387-1.76338 1.16431-4.45312zm-2.45893 2.45312c-2.42846-5.59587-2.31433.15553-2.06351 2.37305-.98284 5.61757-.20942 11.64058-1.35273 17.08203.19752 1.29195-.92812 9.91155-2.22252 8.20117 1.55841 2.39908 3.71738-4.89145 3.51715-6.20117 1.14331-5.44145.36989-11.46446 1.35273-17.08203-.21388-1.89095-.70772-6.57022.76888-4.37305zm-57.07954-1.4746c-.23244.11044-.45129.19142-.70395.3457.006.0124.0211.0304.0278.043.2863-.17481.43047-.2466.67614-.38867zm-.67487.39062c.78546 1.4649 3.05627 4.08155 4.16802 4.26953 2.55203.43151 5.79564-1.39323 8.68258-.82226 2.1771 1.0477 4.85762.21885 5.32862-.76563.17282-.36124-.34537-1.29831-1.24492-2.14648-.25969 1.04443-3.09438 2.01123-5.37833.91211-4.15516-.8218-9.04917 3.32025-11.55597-1.44727zm102.25841.10352c1.98869 4.4771 8.65706 7.22475 12.38199 3.54101-.55424-.87448-.12913-2.11369-1.29463-2-3.12367 3.08913-8.30824 1.63817-11.08736-1.54101zm-120.54274 10.82031c.0619.54209.0725 1.06813.17688 1.625.003.0807.0445.14927.0542.22851-.086-.32617-.14601-.7949-.1673-1.44726-.0253-.13479-.0394-.27129-.0638-.40625zm147.77049.62305c-.0399.10533-.0442.19303-.0622.2871.0149-.0693.0895-.18968.11655-.26953-.0109.004-.0498-.0297-.0543-.0176zm-.10707.48632c-.00052.0122.001.0232.001.0352.00031-.0124-.002-.0223-.001-.0352zm-159.46076 12c.008.0951-.006.1824.0121.28125.003.0195.0279.0626.0329.084-.0233-.11602-.0295-.2439-.045-.36524zm93.07852 40.85157c-1.90647 2.17437-6.4845-.4998-8.95502 1.57812-6.00028 1.54984-10.22343 5.55834-12.6929 11.2793.0467 6.05904-1.42383 11.37742-1.24368 17.19922.68154 5.2207-2.34384 9.70054-1.37877 14.96289.49032 4.62218 1.50052 7.31018.0486 11.55273.038 2.81741-.7652 3.54802-1.54422 3.22656.51984 2.5027 2.90373 3.58745 2.83884-1.22656 1.45198-4.24255.44177-6.93055-.0486-11.55273-.96507-5.26235 2.06032-9.74219 1.37878-14.96289-.18015-5.8218 1.2904-11.14017 1.24367-17.19922 2.46948-5.72096 6.69262-9.72946 12.69291-11.2793 2.66222-2.23917 7.7764 1.04991 9.3525-2.16797-.65073-.64247-1.18439-1.05815-1.69211-1.41015zm-60.04176 2.49414c-.56595 2.94795 5.92256 2.51268 7.82541 4.21093 1.34422 1.04411 2.53307 2.41165 3.57831 3.89258-1.22002-2.30797-2.93696-4.38882-4.87294-5.89258-1.28115-1.1434-4.63688-1.32195-6.53078-2.21093zm118.29564 1.44336c-.0436.0179-.0854.0475-.12889.0664.25402 1.34835.35024 2.9722 1.12472 3.88281.36027 5.18146-3.22939 8.79458-5.53865 7.04297 1.80499 5.3113 7.27374 1.29192 6.83328-5.04297-1.33833-1.57357-.56901-5.4087-2.29046-5.94921zm-162.28417 3.00976c.009.72568-.65442 1.298-2.46586 1.39844-3.01823 3.24654-7.53179-1.3635-11.50209-.0937-.30909-.0494-.39643-.11146-.65308-.16406-1.53691.79453-1.64133 1.59007 1.9477 2.16406 3.97031-1.26975 8.48387 3.34029 11.50209.0937 3.36412-.18652 2.80927-1.97023 1.17124-3.39844zm198.22984.67188c.0319 1.79344-1.50905 4.09054-1.16233 5.89843 2.59626 3.16031 2.64753 7.11852 3.52559 10.72071.33754 3.2522.59019 6.61344 1.3019 9.83203-1.69512 6.97296-2.85093 14.43939-6.87011 20.57031-2.3476 4.4567-6.95518 5.65041-11.39536 7.61133-.11795-.0344-.18227-.0721-.28828-.10742-.63559.82402-.38925 1.53245 1.58291 2.10742 4.44018-1.96092 9.04776-3.15463 11.39535-7.61133 4.01919-6.13092 5.175-13.59735 6.87012-20.57031-.71171-3.21859-.96437-6.57983-1.30191-9.83203-.87806-3.60219-.92932-7.5604-3.52559-10.72071-.50068-2.61073 2.99198-6.26145-.13229-7.89843zm-164.89548 3.51367c.26537.9927.24894 2.16243-.18822 3.46875 1.26706 4.28767-3.70945 8.78372-.001 12.16406-.19102 3.73916-2.10272 6.80746-1.28608 10.8457.56077 5.39731-1.20065 10.53884-1.29715 15.62305.0238 2.49564-.0267 10.9254-2.34126 11.14063.007.47874.003.95882.0106 1.4375 3.58761 3.21422 3.65285-7.68454 3.62529-10.57813.0965-5.08421 1.85793-10.22574 1.29716-15.62305-.81664-4.03823 1.09505-7.10654 1.28607-10.8457-3.7084-3.38034 1.2681-7.87639.001-12.16406.80164-2.39541.28992-4.3826-1.1064-5.46875zm30.88464 2.19336c1.07406 2.68303.94072 6.57103 2.70858 7.45508-.70352-2.28074-.79736-5.72243-2.56102-7.27539-.0547-.0542-.0938-.12451-.14756-.17969zm-36.60764.0449c-.79114-.0979-2.13346.38587-4.22761 1.76953-5.51797.14359-11.0624 4.49303-12.92665 9.66602-.58099 1.33505.11463 2.42144 1.11897 3.40625-.0832-.44015-.042-.90612.17565-1.40625 1.86425-5.17299 7.40868-9.52243 12.92666-9.66602 1.75146-1.15724 2.96691-1.67338 3.78402-1.75781.19256-1.08275.0145-1.90458-.85104-2.01172zm27.66266 1.2832c-.48929 1.66579-3.74267 3.41174-6.1154 3.40625-1.03975-.11886-1.8214-.32049-2.40754-.57226-.3199 1.14173.56406 2.21352 3.70217 2.57226 3.42046.008 8.68547-3.62238 4.82077-5.40625zm-52.37735.69336c-.42575.31754-.88199.64481-1.62346 1.06446-2.81339 2.7006-5.98198 2.89097-9.08481 1.2871-3.33366.20644-6.05271-1.54891-9.24106-1.875-.70415.44477-1.20158 1.09226-1.35091 2.08594 4.44955-.86596 7.67043 2.05015 11.8866 1.78906 3.10282 1.60387 6.27142 1.4135 9.0848-1.2871 4.23336-2.39591 2.90366-3.0012.32884-3.06446zm112.50424 1.76563c.75722 2.08099 4.50605 5.42478 6.54777 7.58984.94361-.43107-4.01854-4.45498-6.54777-7.58984zm74.85166.36523c-.30921 1.41819-1.4777 3.20014-.57951 4.51172.44847 6.51536.49048 13.23396-1.41316 19.36328-.36376 2.45756-1.98754 6.21973-3.20872 6.88281.59701 5.3629 3.95765-1.19612 4.50335-4.88281 1.90364-6.12932 1.86163-12.84792 1.41316-19.36328-1.46498-2.13921 2.5598-5.53745-.71512-6.51172zm-97.92733 2.06445c1.69631 3.1708 4.21233 6.48474 2.44807 10.38672 1.23241 4.126-1.32306 8.52495 1.13312 12.49805-.71639 4.142.7355 8.6896-.86307 12.57031.6842 5.11308-.49715 10.58829-.59235 15.90625-1.17707 1.92532.36525 7.87542-1.63769 7.92188.0479.52723.0638 1.06084.1223 1.58594 3.7133 2.27514 1.45443-5.2905 2.81002-7.50782.0952-5.31796 1.27655-10.79317.59235-15.90625 1.59856-3.88071.14668-8.42831.86307-12.57031-2.45618-3.9731.0993-8.37205-1.13312-12.49805 2.07124-4.58092-1.84126-8.3631-3.28719-12.03906zm-20.5925 2.66016c-.31882 2.73609-6.61051 6.09567-9.53715 4.7793-7.05773-2.59439-2.82774 3.01533-5.2854 7.17773.024 6.885-1.37221 13.40097-1.27771 20.26953-.12764 3.69706-.64785 4.93908-1.26279 4.79883 1.02338 2.68772 2.34199 3.44081 2.55742-2.79883-.0945-6.86856 1.30175-13.38453 1.2777-20.26953 2.45766-4.1624-1.77232-9.77212 5.2854-7.17773 3.73105 1.67818 12.94733-4.24072 8.24253-6.7793zm106.26437.90625c-.18431.55995-.69859 1.21066-1.69309 1.9707-2.34214 3.46162-6.06788.36756-8.96765 1.625-1.14535 4.9016 3.0776 8.7664 3.82589 13.33594 2.79246 4.0727 1.34781 9.27103 1.61062 13.92969-2.28985 4.82105-6.17034 7.57361-10.38858 10.28906-3.61891 2.28998-8.32776 2.72211-12.57181 1.79297-.71662-.36775-1.16379-.66202-1.62467-.95898-.72494.46889-.19512 1.36072 2.91929 2.95898 4.24406.92914 8.95291.49701 12.57181-1.79297 4.21825-2.71545 8.09874-5.46801 10.38858-10.28906-.26281-4.65866 1.18184-9.85699-1.61062-13.92969-.74828-4.56954-4.97123-8.43434-3.82588-13.33594 2.89976-1.25744 6.62551 1.83662 8.96764-1.625 2.59309-1.98175 2.00502-3.23636.39847-3.9707zm-192.75202 1.11328c-.20118.0884-.4106.15451-.59908.27539 1.87008 3.36147 9.01962 3.43351 13.23066 3.89258 3.20836.66716 2.56201-2.42894.8117-4.0293.3969 1.30038-.0315 2.46034-2.10438 2.0293-3.30513-.36031-8.38653-.50692-11.3389-2.16797zm163.8952 1.27735c-2.19404.0507-4.39759.20758-6.56855.14453-.30908.0197-.57533.0115-.81687-.01-.47162 1.16173-.106 2.15123 2.1115 2.00977 4.34191.1261 8.81687-.62454 13.07671.34179 1.86543 1.5659 3.57754 3.38245 5.04275 5.42774-1.69154-2.88954-3.88628-5.37021-6.33737-7.42774-2.12992-.48316-4.31413-.53699-6.50817-.48632zm-111.22069.0332c-.12568.13306-.25635.2554-.37501.4043 2.2157 3.81824 8.02085 2.08434 11.8268 2.49023 1.08883-.24665 1.85608-.27251 2.41828-.15039-.00014-1.57098-.64645-2.54425-3.71291-1.84961-3.07283-.32771-7.41903.69173-10.15716-.89453zm88.00944 2.80859c-.94125-.1192-1.91083.21279-2.95898 1.34571-1.64063.9911-4.45909 4.38351-7.33757 4.89453-.0741.30815-.14189.60855-.17624.89843 1.29494-.0111 2.58716.0293 3.87882.10547 1.97302-1.24058 3.75438-3.18847 4.92961-3.89843 4.19261-4.53167 7.11847 3.75928 12.07093 2.42382 3.16353-2.27929 2.55472-3.50425.92979-4.58007-.12278.69615-.75366 1.52041-2.22441 2.58007-3.71435 1.0016-6.28817-3.41192-9.11195-3.76953zm-116.0202 2.32227c1.29436 2.44495 3.25558 4.54243 5.887 5.16601 1.54768-1.28309.81266-2.35839-.43505-3.45703-.005.46249-.23818.94187-.85958 1.45703-1.86948-.44302-3.39408-1.64089-4.59237-3.16601zm125.22184 8.51953c-.64405 1.35345-3.50323 2.45635-5.7762.88281-4.15925.0698-9.12493-.12748-12.5752 1.12696-2.29054 1.28273-5.60754.3201-7.42033-1.15625.0621 2.31263 5.46058 4.97875 8.71496 3.15625 3.45026-1.25444 8.41595-1.05716 12.57519-1.12696 3.48053 2.4095 8.34896-1.44726 4.48158-2.88281z" fill="#fde791" filter="url(#j)"/><path d="m811.85962 425.60671c-4.86139.80277-9.66988 2.82455-12.71367 6.73047-1.7665 4.43989-2.96735 10.02634-1.64309 14.95917-.46425 5.04055-.15339 10.10151.77308 15.04273.17238 5.28172 2.77925-1.11213 2.74736-3.23434-1.57945-2.83192-.54194-7.70238-.00043-11.45118.24108-4.41511.0938-8.85615 1.45929-13.1289 2.31487-4.32138 7.29308-6.061 12.08067-5.81637 1.65871-1.88179-1.9282-2.41009-2.70321-3.10158zm4.93074 2.33398c-.46914 2.99077 2.7401 7.23529 3.89465 9.50191 3.24873 5.31873 6.69497 4.48502 1.12287 7.50976-1.50017 4.59134-1.63645 3.80982-5.31301 6.0547 2.50643 4.77127 7.40213.62732 11.55798 1.44925 3.67741 1.76972 8.79237-1.81598 2.2661-2.45899-1.64254-1.01646-9.48186.14293-7.3619-1.37669 2.23084-1.22312 4.13017-4.27601 6.31908-2.37138 4.78882 4.33872 7.80225-2.95259 1.47132-3.79511-4.15085-4.34198-9.58288-8.90339-13.12904-14.3926-.20418-.25689-.54202-.11076-.82805-.12085zm34.82517 1.93555c-3.95844.18096-9.6694 3.94336-2.02972 3.49652 3.21398 2.58468 10.4492-1.87814 3.35952-3.49673-.44327.00007-.88653-.00014-1.3298.00021zm9.07407 3.50586c-2.39559 5.03148 7.73544 8.95174 7.4195 13.58566-.45277 5.25386-.46401 10.37886.45513 15.60373-.85467 5.26263.11449 10.3338-.55323 15.62039 1.52141 6.09834 3.05045-5.15403 2.82272-6.64359 1.14331-5.44146.37083-11.46526 1.35367-17.08283-.25082-2.21752-.36553-7.96816 2.06293-2.37228 6.33172 2.72533 1.55778-5.35616-1.30924-6.66603-2.54175-4.09309-6.36843-7.4601-9.81123-10.87899-1.55072.70526-1.18944-1.76394-2.44025-1.16606zm61.23086 1.08984c-4.01342 3.57205-5.66447 8.95349-4.72224 14.12109 1.66616 4.7902 8.77194 7.89014 12.64411 4.06079-1.49188-2.35387-6.40841 1.46236-8.23436-2.49579-2.30573-2.84062-.75748-7.06865.47611-9.64881 2.07384-3.65423 5.54848-.13494 7.73854 2.18817 3.48935 1.92127 6.36181 5.95814 9.69804 7.96819 1.19764-3.39899-3.48043-5.37085-5.20529-8.02933-2.01099-3.3683-6.19119-7.63241-9.41207-7.06638-1.28071.14149-1.64727-1.45967-2.98284-1.09793zm-72.03402.37891c-1.92671.14854-9.23715 2.59944-4.19299 3.14681 3.39448-.3061 6.74735 3.00806 9.83316.88048 4.65361-1.46709 2.77096-4.39252-1.61915-2.77231-1.55054-.16534-3.01285.53526-4.02102-1.25498zm-51.01814.5c.0207.27299-.7369.007 0 0zm7.52911 2.86914c-1.4562.28768-1.01924 4.95413-.97818 7.65659.19598 9.07887 1.2854 18.26342 1.30684 27.39617 1.0658 6.36413 2.81021-1.66053 2.40826-4.36496.31772-4.22641.51863-7.9758.6916-12.11698.32786-3.21755-1.12844-6.10598-.28052-9.29345 1.00151-3.33366-2.06968-6.745-1.71339-8.873 3.27596-.49427-2.0087-.39552-1.43461-.40437zm156.62624 1.28125c-4.32146 2.02419-9.93534.30007-14.9301.77353-3.65846-1.70372-10.35428 4.61715-3.47556 3.53011 3.2359.0817 8.12547-1.35604 6.39601 3.73706-.88876 2.94042-2.52745 5.27962-4.97107 7.29338 2.90573 2.20847 6.23156-3.63208 7.16141-6.24033 1.55155-6.93262 1.00635-1.42367.7889 2.3594-.77879 4.13156-2.93324 9.27291-7.58582 10.76194-2.57749 4.26983 4.68298.35707 5.76717-.89278 4.24922-3.22589 5.04743-8.37395 5.94025-13.12695-1.91483-3.99352.72512-4.29905 3.47033-3.80265 3.08728 1.40257 6.81912-5.52134 1.43848-4.39271zm-191.8887.33789c-8.54938 1.98387.43688 3.72591 2.17017 4.86742-1.04759 6.17623-.007 12.72373.0839 19.0117.80022 6.37918-.70505 13.30757.89871 19.56446 3.1812-3.27598 1.10712-9.92545 2.3711-14.16008-.52823-5.81163 2.65841-11.84478.52663-17.25401-1.97492-3.67825.24615-10.98672 2.27574-6.7795-1.16934 6.81033 1.10677 13.61911.50629 20.53713-.83057 6.45433 3.71503 3.05616 2.61271-2.13672.68747-4.17635.3722-8.17826.23135-12.45703 2.07984-1.60177-.68664-6.30368 1.69044-6.70315 4.18551-.74926-.31788 6.25519 1.17399 9.06497.31579 4.75597 1.03729 9.3616.76555 14.29429.86307 3.00112-1.46851 8.04911 1.27557 9.66809 2.12685-4.5401 2.46575-11.47248 1.48096-16.87525 1.15904-4.02293-1.03775-8.45504 1.44999-11.93143-3.83522-5.7683 2.46765-3.74005 4.93328-7.1875-3.42042-2.94304-8.76984-.92766-13.04112-1.52342-3.80174.00001-7.60348.00002-11.40522.00003zm111.84375 0c-8.54627 1.98365.43157 3.7254 2.17212 4.86742-1.05231 6.17531-.007 12.72388.0819 19.0117.80022 6.37918-.70505 13.30757.89871 19.56446 3.18106-3.27598 1.10735-9.92544 2.37093-14.16008-.52809-5.81324 2.65917-11.84485.52625-17.25791-1.97201-3.67775.24502-10.98112 2.27638-6.77555-1.16934 6.81033 1.10677 13.61911.50629 20.53713-.83304 6.45279 3.71995 3.05913 2.61271-2.13672.68704-4.17692.37229-8.17744.23135-12.45703 2.07984-1.60177-.68664-6.30368 1.69044-6.70315 4.18551-.74926-.31788 6.25519 1.17399 9.06497.31668 4.75602 1.03717 9.36155.76545 14.29429.8535 3.02596-1.4362 7.9103 1.22962 9.68767 2.21953-4.48638 2.48053-11.49699 1.52691-16.89478 1.15856-4.02426-1.03817-8.45333 1.45039-11.93143-3.83522-5.7683 2.46765-3.74005 4.93328-7.1875-3.41951-2.9437-8.77016-.92723-13.04117-1.52346-3.80185-.00001-7.60371-.00002-11.40556-.00003zm41.52321.91992c-2.35902.84045.71678 4.50551 3.92153 4.80859 1.22484.48969 4.23606 4.11663 4.13796.74412-2.41969-2.1514-4.60569-4.86636-8.05949-5.55271zm-72.68519.0488c-1.6264.1431-8.67949-.14972-4.9558 2.16798 2.39139.24315 9.14845 3.46007 8.31814-.74884-.67408-1.40176-2.08579-1.33571-3.36234-1.41914zm11.09353 3.17383c-1.25156 3.68328.39363 7.86037-.53358 11.85009 1.24014 6.01473.009 13.65249 1.13824 19.05887 3.50459-1.32864 2.12106-7.51422 3.25457-10.66363-.081-5.56728.0442-11.29666.22151-16.73164-1.68532-1.08912-1.98799-3.15443-4.08074-3.51369zm8.893 4.82226c.0785-.0337.11278.21414 0 0zm3.09973 63.30274c-5.70475 1.80248-12.55688 2.17219-16.58117 7.2188-5.70079 2.52052-5.51564 8.69791-7.00945 13.81054-2.36995 6.84324 1.34175 13.72893-.13914 20.51438-.15227 5.82293.0338 11.45921 1.60947 17.01732-1.88128 4.01638 2.57605 8.33822 2.4879 1.79838 1.45198-4.24256.44272-6.92986-.0476-11.55205-.96507-5.26235 2.06098-9.74344 1.37944-14.96415-.18015-5.8218 1.2888-11.13959 1.24207-17.19864 2.46948-5.72096 6.69405-9.72963 12.69434-11.27947 2.66223-2.23917 7.77499 1.05009 9.35109-2.16779-1.97244-1.94739-2.94811-2.11694-4.98695-3.19732zm-56.36015 3.26953c-2.3695 4.08781 5.3405 3.34952 7.43929 5.22265 3.42059 2.65691 6.2129 7.08933 6.64804 11.45895 4.41909 6.07093-2.20673 5.49143-6.21889 5.20307-4.89725.72435-11.28578-1.71166-14.69847 2.57032 2.21571 3.81825 8.02157 2.08437 11.82752 2.49026 6.48611-1.4693 2.26056 4.4164 3.62005 7.98312-2.5846 4.7334.88295 9.86833.25532 14.92955-.80623 4.85745 3.28754 16.45366 3.67992 5.08893-.0945-6.86857 1.30124-13.38428 1.27719-20.26929 2.45766-4.16241-1.77274-9.77264 5.28499-7.17825 3.78909 1.70429 13.26775-4.43347 8.04415-6.90183-6.45007 3.82314-3.89915-5.69649-7.1672-8.57413-3.17055-3.14018-4.71091-8.05658-9.26927-9.04238-2.98154-2.15511-7.09013-2.67801-10.72264-2.98097zm64.80278.60351c.0593 4.54898 4.05803 10.33458 6.09339 14.44742.10336 3.00753 11.0807 10.97303 7.34982 10.17183-4.01959.64605-7.5091 6.58484-7.21164 9.87506 3.36933.79741 6.927-3.72705 8.85633-4.89256 4.19261-4.53167 7.11838 3.7599 12.07085 2.42444 6.53076-4.70536-2.90859-4.94134-4.509-8.57311-3.85241-3.09635-7.27038-6.70861-10.60982-10.46854-5.17957-3.24352-7.39129-10.06916-12.03993-12.98454zm53.10674 1.85157c-2.90976 1.19594-5.62474 4.63222-5.08362 7.90006.53388 9.59495 7.88185 5.34926 7.37422-1.95162-1.33834-1.57358-.56914-5.40793-2.2906-5.94844zm-167.14235 1.36721c-3.17167.69565-16.76104 3.51698-7.81437 4.9478 3.97031-1.26975 8.48312 3.33954 11.50135.093 6.21415-.34454-.81808-6.18889-3.68698-5.04078zm202.98656 2.24219c-4.14876 3.44117-1.78281 9.60315-2.41276 14.37529-.4864 6.02783.4416 12.61581.00092 19.08809.007 4.22308.0195 9.15148-2.55128 12.37257-.40054 5.03365-15.36712 8.79253-8.2422 10.86974 4.44018-1.96092 9.0483-3.15499 11.3959-7.61169 4.01919-6.13093 5.17656-13.59783 6.87168-20.5708-.71171-3.21859-.9658-6.57933-1.30334-9.83154-.87806-3.60219-.92941-7.56084-3.52568-10.72115-.50739-2.6457 3.11515-6.36702-.23324-7.97051zm-173.21915 2.94727c-8.06456 1.88671-15.7224 7.40326-16.46497 16.28711.89167 3.80422 3.37111 8.10555 7.35153 9.04882 3.76016-3.11733-5.8-4.98853-4.04411-9.02342 1.86425-5.17299 7.40863-9.52239 12.92661-9.66598 6.70128-4.42772 5.70671.35992 3.57269 3.93355-.25669 14.90593-.25509 29.84016-.0199 44.73832 3.58762 3.21423 3.6527-7.68551 3.62514-10.5791.0965-5.08422 1.85742-10.22457 1.29665-15.62188-.81664-4.03825 1.09576-7.10677 1.28678-10.84593-3.70841-3.38034 1.26769-7.87616.00063-12.16384 1.41312-4.22264-1.15025-7.28155-5.71061-6.10766-1.27348 0-2.54696.00001-3.82044.00001zm-33.73197 3.13867c-3.0093 1.80212-8.99066.35012-9.58083 4.27732 4.44956-.86596 7.6697 2.05011 11.88587 1.78902 3.10283 1.60387 6.27215 1.41348 9.08554-1.28713 7.43483-4.20781-2.14281-2.9564-5.85648-2.78531-2.20449.11534-4.09346.41994-5.5341-1.9939zm88.04788.31836c.0108.13827-.37331.007 0 0zm-26.08948.082c-4.32265-.29419-10.58772 5.12365-2.68241 6.02737 3.89294.009 10.19547-4.69754 2.68241-6.02737zm136.18119 3.21875c-5.68857 2.66544-3.84349 8.79602-3.89788 13.8692-.88015 4.95765.30697 10.04548-.48315 15.01244-.0928 9.08595 4.01355 1.31135 4.61915-2.78002 1.90364-6.12933 1.86117-12.8479 1.4127-19.36327-1.59242-2.32531 3.41437-6.17433-1.65082-6.73835zm-97.69012 1.88476c-2.78595 2.14109-.48118 6.67969-1.16088 9.78611.14845 9.43702.48502 18.84153 1.66729 28.21257.28598 7.75708-.0486 15.63645.80224 23.27686 3.7133 2.27515 1.45497-5.29124 2.81056-7.50856.0952-5.31797 1.27583-10.79331.59163-15.90639 1.59857-3.88072.14674-8.42743.86313-12.56943-2.45618-3.9731.0997-8.37254-1.13271-12.49854 2.07124-4.58093-1.84133-8.36255-3.28725-12.03851l-.90011-.6875zm54.80112 3.14454c-2.78178-.47298-7.90765 5.70347-2.56214 5.36245 4.34192.1261 8.8172-.62276 13.07705.34357 4.48987 3.76894 8.18693 8.90319 9.32714 15.51476 1.45408 3.11336 3.39786 7.17525 1.28589 10.64648.41188 6.07376-6.67157 9.68544-11.84801 10.81996-4.14207-.53423-12.39228-.91418-4.60092 3.0842 4.24406.92914 8.9529.49697 12.57181-1.79301 4.21825-2.71545 8.0987-5.46799 10.38855-10.28905-.26281-4.65866 1.18184-9.85699-1.61062-13.92969-.74829-4.56955-4.97086-8.43434-3.82551-13.33594 2.89977-1.25745 6.62552 1.83666 8.96766-1.62496 4.99732-3.81917-1.74586-4.98176-5.03652-4.79882-7.34574.9238-15.09752.0944-22.60662.32031-.94686-.70114-2.41085-.13945-3.52776-.32026zm-151.83069 1.20898c-3.04316 1.15921-7.21173-.74909-9.95117 1.00788 1.87008 3.36147 9.0206 3.43352 13.23164 3.89259 4.50378.93654 1.45457-5.59602-1.65902-4.90038-.54048-.00003-1.08097-.00006-1.62145-.00009zm119.1744 13.99805c-10.0648 1.27209-.51179 8.40134 4.30273 5.70513 3.45027-1.25444 8.41627-1.05716 12.57552-1.12696 3.9071 2.7048 9.59237-2.494 2.6694-3.29101-4.13696-.16933-7.58277-.94267-11.70092-1.15524-2.60785-.24659-5.23195-.0868-7.84673-.13192z" fill="#b7671e" filter="url(#i)" opacity=".25"/></g></g></g><g opacity=".8" transform="matrix(.36512341 0 0 .35973811 -6.973856 -6.799059)"><circle cx="946.90002" cy="776.5" fill="url(#q)" opacity=".5" r="11.3"/><circle cx="828.79999" cy="869.79999" fill="url(#s)" opacity=".5" r="11.3"/><circle cx="419.60001" cy="439.70001" fill="url(#v)" opacity=".5" r="11.3"/><circle cx="874.79999" cy="428.39999" fill="url(#w)" opacity=".5" r="11.3"/><circle cx="714.70001" cy="467.39999" fill="url(#x)" opacity=".5" r="11.3"/><circle cx="1040.2" cy="684.29999" fill="url(#z)" opacity=".5" r="11.3"/><circle cx="625.59998" cy="345" fill="url(#A)" opacity=".5" r="11.3"/><circle cx="751.5" cy="556.70001" fill="url(#C)" opacity=".5" r="5.6"/><circle cx="777.40002" cy="382.79999" fill="url(#D)" opacity=".5" r="5.6"/><circle cx="614.29999" cy="932" fill="url(#F)" opacity=".5" r="5.6"/><circle cx="726.20001" cy="900.29999" fill="url(#G)" opacity=".5" r="5.6"/><circle cx="818.09998" cy="990.70001" fill="url(#I)" opacity=".5" r="5.6"/><circle cx="695.79999" cy="1015.6" fill="url(#J)" opacity=".5" r="5.6"/><circle cx="644.20001" cy="801.40002" fill="url(#L)" opacity=".5" r="5.6"/><circle cx="911.40002" cy="659.29999" fill="url(#M)" opacity=".5" r="5.6"/><circle cx="529" cy="839.90002" fill="url(#N)" opacity=".5" r="11.3"/><circle cx="542.70001" cy="1069.7" fill="url(#O)" opacity=".5" r="11.3"/><circle cx="419.60001" cy="933" fill="url(#P)" opacity=".5" r="11.3"/><circle cx="208.5" cy="608.79999" fill="url(#Q)" opacity=".5" r="11.3"/><circle cx="498.60001" cy="547" fill="url(#R)" opacity=".5" r="11.3"/><circle cx="480.89999" cy="686.29999" fill="url(#S)" opacity=".5" r="11.3"/><circle cx="538" cy="444.89999" fill="url(#T)" opacity=".5" r="11.3"/><circle cx="560.40002" cy="660.29999" fill="url(#V)" opacity=".5" r="7.1"/><circle cx="584.09998" cy="788.59998" fill="url(#W)" opacity=".5" r="7.1"/><circle cx="360.60001" cy="841.90002" fill="url(#Y)" opacity=".5" r="7.1"/><circle cx="226.89999" cy="764.59998" fill="url(#ab)" opacity=".5" r="7.1"/><circle cx="704.79999" cy="240.89999" fill="url(#ac)" opacity=".5" r="7.1"/><circle cx="404.29999" cy="522.79999" fill="url(#ad)" opacity=".5" r="7.1"/><circle cx="631.40002" cy="709" fill="url(#ae)" opacity=".5" r="7.1"/><circle cx="1004.5" cy="623.59998" fill="url(#af)" opacity=".5" r="11.3"/><circle cx="1028.9" cy="542.90002" fill="url(#al)" opacity=".5" r="11.3"/><circle cx="1134.7" cy="701.90002" fill="url(#am)" opacity=".5" r="11.3"/><ellipse cx="707" cy="728.20001" fill="url(#an)" rx="19.200001" ry="5.6"/><ellipse cx="707" cy="728.20001" fill="url(#ao)" rx="5.6" ry="19.200001"/><ellipse cx="324" cy="638.5" fill="url(#ap)" rx="29.700001" ry="8.6"/><ellipse cx="324" cy="638.5" fill="url(#aq)" rx="8.6" ry="29.700001"/><ellipse cx="844.40002" cy="773.20001" fill="url(#av)" rx="29.700001" ry="8.6"/><ellipse cx="844.40002" cy="773.20001" fill="url(#aw)" rx="8.6" ry="29.700001"/><ellipse cx="839.20001" cy="270.60001" fill="url(#ax)" rx="29.700001" ry="8.6"/><ellipse cx="839.20001" cy="270.60001" fill="url(#ay)" rx="8.6" ry="29.700001"/><ellipse cx="847.79999" cy="562.29999" fill="url(#az)" rx="29.700001" ry="8.6"/><ellipse cx="847.79999" cy="562.29999" fill="url(#aA)" rx="8.6" ry="29.700001"/><ellipse cx="548.29999" cy="996.29999" fill="url(#aH)" rx="19.200001" ry="5.6"/><ellipse cx="548.29999" cy="996.29999" fill="url(#aI)" rx="5.6" ry="19.200001"/><ellipse cx="450.10001" cy="795.79999" fill="url(#aJ)" rx="19.200001" ry="5.6"/><ellipse cx="450.10001" cy="795.79999" fill="url(#aK)" rx="5.6" ry="19.200001"/><ellipse cx="649.79999" cy="565.70001" fill="url(#aL)" rx="19.200001" ry="5.6"/><ellipse cx="649.79999" cy="565.70001" fill="url(#aM)" rx="5.6" ry="19.200001"/><ellipse cx="353.5" cy="747.5" fill="url(#aN)" rx="19.200001" ry="5.6"/><ellipse cx="353.5" cy="747.5" fill="url(#aO)" rx="5.6" ry="19.200001"/><ellipse cx="712.5" cy="1141.6" fill="url(#aP)" rx="19.200001" ry="5.6"/><ellipse cx="712.5" cy="1141.6" fill="url(#aQ)" rx="5.6" ry="19.200001"/><ellipse cx="979.59998" cy="889" fill="url(#aR)" rx="19.200001" ry="5.6"/><ellipse cx="979.59998" cy="889" fill="url(#aS)" rx="5.6" ry="19.200001"/><ellipse cx="542" cy="297" fill="url(#aT)" rx="19.200001" ry="5.6"/><ellipse cx="542" cy="297" fill="url(#aU)" rx="5.6" ry="19.200001"/><ellipse cx="856.40002" cy="1023.2" fill="url(#aV)" rx="19.200001" ry="5.6"/><ellipse cx="856.40002" cy="1023.2" fill="url(#aW)" rx="5.6" ry="19.200001"/><ellipse cx="1069.3" cy="771.59998" fill="url(#a3)" rx="19.200001" ry="5.6"/><ellipse cx="1069.3" cy="771.59998" fill="url(#a4)" rx="5.6" ry="19.200001"/><circle cx="306" cy="534.09998" fill="url(#be)" opacity=".5" r="11.3"/><g fill="#fff"><circle cx="946.90002" cy="776.5" r="2"/><circle cx="828.79999" cy="869.79999" r="2"/><circle cx="419.60001" cy="439.70001" r="2"/><circle cx="874.79999" cy="428.39999" r="2"/><circle cx="714.70001" cy="467.39999" r="2"/><circle cx="1040.2" cy="684.29999" r="2"/><circle cx="625.59998" cy="345" r="2"/><circle cx="751.5" cy="556.70001" r="1"/><circle cx="777.40002" cy="382.79999" r="1"/><circle cx="614.29999" cy="932" r="1"/><circle cx="726.20001" cy="900.29999" r="1"/><circle cx="818.09998" cy="990.70001" r="1"/><circle cx="695.79999" cy="1015.6" r="1"/><circle cx="644.20001" cy="801.40002" r="1"/><circle cx="911.40002" cy="659.29999" r="1"/><circle cx="529" cy="839.90002" r="2"/><circle cx="542.70001" cy="1069.7" r="2"/><circle cx="419.60001" cy="933" r="2"/><circle cx="208.5" cy="608.79999" r="2"/><circle cx="498.60001" cy="547" r="2"/><circle cx="480.89999" cy="686.29999" r="2"/><circle cx="538" cy="444.89999" r="2"/><circle cx="560.40002" cy="660.29999" r="1.3"/><circle cx="584.09998" cy="788.59998" r="1.3"/><circle cx="360.60001" cy="841.90002" r="1.3"/><circle cx="226.89999" cy="764.59998" r="1.3"/><circle cx="704.79999" cy="240.89999" r="1.3"/><circle cx="404.29999" cy="522.79999" r="1.3"/><circle cx="631.40002" cy="709" r="1.3"/><circle cx="1004.5" cy="623.59998" r="2"/><circle cx="1028.9" cy="542.90002" r="2"/><circle cx="1134.7" cy="701.90002" r="2"/><circle cx="707" cy="728.20001" r="2.2"/><circle cx="324" cy="638.5" r="3.4"/><circle cx="844.40002" cy="773.20001" r="3.4"/><circle cx="839.20001" cy="270.60001" r="3.4"/><circle cx="847.79999" cy="562.29999" r="3.4"/><circle cx="548.29999" cy="996.29999" r="2.2"/><circle cx="450.10001" cy="795.79999" r="2.2"/><circle cx="649.79999" cy="565.70001" r="2.2"/><circle cx="353.5" cy="747.5" r="2.2"/><circle cx="712.5" cy="1141.6" r="2.2"/><circle cx="979.59998" cy="889" r="2.2"/><circle cx="542" cy="297" r="2.2"/><circle cx="856.40002" cy="1023.2" r="2.2"/><circle cx="1069.3" cy="771.59998" r="2.2"/><circle cx="306" cy="534.09998" r="2"/></g></g></svg>