<svg height="500" viewBox="0 0 500 500" width="500" xmlns="http://www.w3.org/2000/svg" xmlns:xlink="http://www.w3.org/1999/xlink"><linearGradient id="a" gradientUnits="userSpaceOnUse" spreadMethod="repeat" x1="203.01116110715" x2="203.01116110715" y1="378.50782032205" y2="381.08510658099"><stop offset="0" stop-color="#d3b879"/><stop offset=".34885058" stop-color="#ebd6ad"/><stop offset=".5" stop-color="#ebd6ad"/><stop offset=".74770111" stop-color="#ebd6ad"/><stop offset="1" stop-color="#d3b879" stop-opacity=".75"/></linearGradient><filter id="b" color-interpolation-filters="sRGB" height="1.016027" width="1.003691" x="-.001845" y="-.008013"><feGaussianBlur stdDeviation=".23601584"/></filter><radialGradient id="c" cx="418.2005" cy="790.67999" gradientTransform="matrix(.2069623 .10100165 -.20889522 .42804711 247.52618 68.507278)" gradientUnits="userSpaceOnUse" r="164.77657" spreadMethod="reflect"><stop offset="0" stop-color="#c1a76c"/><stop offset="1" stop-color="#c7b27f"/></radialGradient><linearGradient id="d" gradientUnits="userSpaceOnUse" x1="59.079338" x2="117.71146" y1="207.26978" y2="186.45172"><stop offset="0"/><stop offset=".25" stop-opacity=".25"/><stop offset=".40000001" stop-opacity="0"/><stop offset=".60000002" stop-opacity="0"/><stop offset=".80057472" stop-opacity=".25"/><stop offset="1" stop-opacity=".67"/></linearGradient><linearGradient id="e" gradientUnits="userSpaceOnUse" spreadMethod="reflect" x1="293.00000893701" x2="467.00001457126" y1="-114.0000016127" y2="-102.00001208117"><stop offset="0" stop-color="#0d0d0d"/><stop offset="1" stop-color="#252428"/></linearGradient><path d="m157.20489 465.65979h302.05313l-121.04227-343.10143-302.01899 1.24002z"/><path d="m59.565998 140.26474 109.342692 308.9299h266.97678l-109.37288-310.02647z" stroke-width="36"/><path d="m453.83594 449.19464-.38672-10.4837-8.59766-13.88477 27.29102-9.77539-13.44922-19.97461c1.25441-.78817 8.36721-6.78158 9.83398-7.54492l10.39649-9.02344-14.79688-17.71093-266.976 1.0997-14.12881 9.73623c-14.26047 9.17949-23.03843 24.15095-28.28796 37.51407-5.24943 13.36314-6.83917 30.83075-3.9058 40.04776h285.05709z" fill="url(#c)"/><path d="m174.32848 378.50781c-14.26047 9.17949-17.25483 23.10334-21.65974 36.56836-3.55298 10.8608-6.27337 24.90146-3.34 34.11847l286.55603-.002c-2.63093-3.21863-.14649-10.48172-.14649-10.48172s-9.01545-9.93202-9.4043-14.98242l-15.70898-6.51563 36.39648-10.27148-13.37695-10.75782c4.60204-6.77626 11.55559-12.56353 21.37891-17.67578z" fill="url(#a)" filter="url(#b)" opacity=".75"/><path d="m19.172201 143.9568 12.691289 34.4169 77.65777 210.69586 10.26158 27.87353c12.86189 33.34884 11.9504 46.33065 37.42205 48.7167 4.26159.3992 9.00451 0 14.78468 0l-5.00864-20.13869c-3.9367-17.37337 4.43034-43.46845 25.89132-61.08814l10.13893-5.92514-121.068582-343.17688-16.21972 3.713003c-17.245667 7.120359-34.987746 28.120966-42.465475 41.92517-8.813485 16.631269-14.3838721 34.427507-8.012694 52.343277z"/><path d="m70.921553 54.766732c-27.012869 13.247193-47.609013 52.999018-40.450294 72.906568l3.892895 10.54874c.475156-1.66537.97396-3.33459 1.509845-5.00325 7.248708-22.5032 21.396291-44.936544 42.291386-57.91313zm-18.673804 83.705418c-3.838055 11.91329-5.383233 24.12216-5.191293 34.17115l77.659414 210.69874c.227-.52707.43872-1.05839.67391-1.58615 8.22948-18.47322 23.25551-36.71751 43.78513-48.40275l-85.099609-241.290427c-14.495853 10.469227-25.917452 28.060247-31.827552 46.409437zm88.855681 250.29385c-3.46458 7.77898-5.39731 15.56698-6.12496 22.44884l14.00303 37.97782h1.49964c-5.65596-24.9601 6.37743-56.36639 32.19376-77.56183l-7.64943-21.68914c-15.50376 9.69378-27.38938 24.15954-33.92204 38.82431z" fill="url(#e)"/><path d="m168.8557 333.35486-85.09418-241.290248-5.91802-16.75647-7.24779-20.53943c-27.01287 13.24718-46.93649 52.998558-39.77777 72.906088l3.89262 10.54917 12.69313 34.42048 77.65952 210.69946 10.26158 27.87353 14.00331 37.97522 1.50055-.0108c-5.65587-24.96008 5.71807-56.35446 31.53431-77.54988l-7.66295-21.68782z" fill="url(#d)" opacity=".75"/><path d="m185.44687 378.50782h302.05313l-121.04226-344.345034-284.51551 1.167071c-5.40642 1.238028-10.812932 2.476057-16.219352 3.714086z"/><path d="m87.808256 51.86939 109.342694 310.02719 266.97678-1.09914-109.37288-310.024627z" fill="url(#e)"/><g stroke-linecap="round" stroke-linejoin="round"><path d="m197.55664 83.650391c-3.89319-.257585-6.92162 2.539173-8.65023 6.171028-2.9561 4.830929-6.65577 9.270779-9.14791 14.345731-.0385 5.05343 5.89638 6.60625 8.99896 9.70809 1.84682 2.22638 8.08456 3.63497 4.57871 6.85826-1.78591 3.83464-7.39346 8.26566-3.20719 12.35829 8.15129 5.75742 16.24054 12.17921 24.42404 17.52156 5.6851 1.57312 11.14673-1.52804 9.86499-7.74034-3.03799-10.85573-7.44858-21.38038-11.01772-32.10799-2.87826-5.5435.61597-2.45651 3.49673-.20037 3.23381 2.7261 7.11332 5.1134 11.4098 5.30462 3.80238 9.83442 6.51143 20.20601 10.9335 29.73658 1.67883 4.33364 8.8326 8.11951 10.13105 1.36502 1.06255-7.15164-3.34376-13.48585-5.13016-20.18766-2.78084-5.45953 2.58093.2829 4.65137 1.49738 3.84316 2.93268 11.42055 3.4932 11.43351-1.75368 6.08087 4.37113 12.69597 9.60199 18.44954 13.44013 3.97674 3.06482 13.22508 2.8213 9.85157-4.31051-2.43557-3.45653-4.38043-5.44914-7.98069-7.78062-5.24472-3.86155-10.48944-7.72309-15.73416-11.58464 3.01714-5.17523 7.40216-10.20597 9.47644-15.48432.91607-2.868982-.0535-6.641172-2.50224-7.960517-2.03335-1.095557-4.35639-2.820413-6.66338 1.900539-4.506 4.448592-7.41965 10.932778-11.2631 16.223498.8017-2.53208-3.24918-7.16021-5.71681-9.09852-8.08878-5.924957-15.88653-12.306695-24.15974-17.942171-12.93831-1.840476 3.18413 19.668291-3.0187 16.078641-7.44812-5.323407-14.59239-11.137836-22.22864-16.157199l-1.27958-.20083zm76.78906 11.353515c.007.01838.009-.0035 0 0zm21.10352-2.578125c-7.07391 1.69543-9.38785 9.058889-13.34531 14.404129-1.92891 4.12398-7.10421 7.77401-5.36649 12.64961 8.50817 7.12267 17.85172 13.31592 26.69398 20.06539 3.0132 1.57223 10.74662 5.2817 11.42378-1.37164-.85881-3.66808-3.57883-6.38458-6.10159-8.34749-6.12758-4.51157-12.25516-9.02315-18.38274-13.53472 3.01701-5.17367 7.40395-10.21138 9.47646-15.48242.62777-3.432987.67025-8.82109-4.39809-8.382859zm-42.72852 20.453129c.046 6.05763-8.42811-.99298-3.02458 1.1825 1.11593.0179 2.19021-.46679 3.02458-1.1825zm-12.38867 44.37695c-7.93603.2013-.52981 8.68085-3.70558 10.65771-4.98876 3.05738-6.88187 9.1913-10.41209 13.68174-2.20716 5.71278-3.06152-.004-4.23087-3.059-2.49774-6.3779-4.17148-13.18433-7.18859-19.29212-3.35398-4.30274-7.4506.47629-8.99586 3.82547-2.09847 3.22817-4.19695 6.45634-6.29542 9.68451-6.83732-4.90559-13.46394-10.14788-20.4322-14.84422-5.01956-1.01684-11.03342 1.01911-13.31536 6.10389-3.63962 5.92519-7.97365 11.48874-11.16092 17.64951.12313 5.18749 6.27156 6.7931 9.54994 9.98911 4.14171 3.05346 8.28343 6.10692 12.42514 9.16038-2.95351 5.10612-7.31232 10.07612-9.32014 15.27734-1.79443 4.62221 2.06849 11.0932 7.10737 7.46327 5.32093-2.17308 6.89003-8.42921 10.30865-12.62038 1.78539-2.16548 4.09326-8.76184 4.9191-2.78986 2.22277 5.82203 3.49107 13.01827 9.297 16.36278 5.75699 1.24885 6.05056-6.29451 5.05412-9.92268-3.97939-11.24182-7.95878-22.48363-11.93817-33.72544 3.66632 2.14417 6.54284 6.37615 10.99407 6.5467 3.74233-.63942 5.05044-7.47249 7.18703-8.07079 4.8052 13.18596 9.13556 26.58095 14.23913 39.63557 1.79986 4.33381 8.97021 8.98555 10.52925 1.8418 1.07315-6.88993-3.2113-13.0868-4.97218-19.66341-1.39364-3.50514 4.4025 2.69869 6.06273 3.31744 5.58837 3.6395 10.3825 8.88418 16.47338 10.75512 3.94435.24222 4.0453 4.82315 6.82188 7.29583 3.90531 5.48695 9.35581-.6908 8.00105-5.55956-.22652-3.17959-2.03851-6.43114-2.97094-9.63366 5.18485 3.56407 9.51396 8.25372 15.89449 8.79316 1.40876 3.51662 3.76051 7.78518 7.70116 8.57634 5.0479-.53434 4.65137-7.13143 3.64412-10.62541-3.91842-11.06956-7.83683-22.13912-11.75525-33.20868 3.66631 2.14411 6.54278 6.37623 10.99406 6.54653 3.74243-.63924 5.05044-7.47237 7.18704-8.07062 4.80536 13.18525 9.13464 26.58064 14.23913 39.63387 1.79846 4.33496 8.96757 8.98827 10.5273 1.8437 1.07612-6.89235-3.21033-13.08882-4.96938-19.6637-1.52911-4.3263-3.05821-8.6526-4.58732-12.9789 5.55601-.93751 7.24434-6.7234 10.15231-10.74995 5.01767 13.78751 9.56014 27.78491 14.87889 41.43943 1.84336 4.32626 8.99698 9.18374 10.62301 1.95314 1.12387-6.94948-3.18383-13.17823-4.9602-19.77857-2.54649-7.19424-5.09299-14.38849-7.63948-21.58273 5.45623 3.73318 10.72132 9.77095 17.9041 8.90917 3.16748-2.99633 6.26719 2.80057 9.4339 4.12965 3.77601 2.78461 7.55201 5.56922 11.32802 8.35383-2.97393 5.09362-7.26236 10.06044-9.30256 15.24804-1.79443 4.62221 2.06849 11.0932 7.10737 7.46327 5.31397-2.17241 6.90693-8.40779 10.33484-12.5878 2.05454-3.96213 6.03332-7.27752 6.36663-11.84306-2.59078-4.69087-8.21245-6.87145-12.20009-10.3935-3.26741-2.40574-6.53481-4.81147-9.80221-7.2172 2.96209-5.10714 7.33347-10.07407 9.34558-15.27929.74973-3.35848.55959-9.02404-4.30879-8.59495-4.49478.95241-7.52516 4.28523-9.53053 8.22605-2.96763 4.56501-5.93525 9.13003-8.90288 13.69505-4.00335-4.60628-10.33795-7.9611-15.38504-12.09478-4.64557-3.15617-8.85643-7.06308-13.7863-9.72824-5.14179-.64377-6.34286 5.95693-9.18858 9.09665-2.16119 3.3248-4.32239 6.6496-6.48358 9.9744-2.27856-5.80494-3.7832-12.0121-6.57032-17.55273-3.35187-4.3142-7.44918.45721-9.0037 3.81572-2.09847 3.22817-4.19695 6.45634-6.29542 9.68451-6.95706-4.92742-13.59578-10.3781-20.75413-14.97467-7.19135-1.14732-5.2036 7.11789-3.13105 10.97633 1.1574 3.19858 3.46572 7.94039-1.04362 3.54064-6.96167-4.89093-13.61263-10.29482-20.77003-14.86258l-1.32266-.17766zm-64.0918 13.24414c2.59636 7.32422 5.19271 14.64844 7.78907 21.97266l-14.92969-10.99219zm66.0586 8.55859c2.62174 7.39518 5.24349 14.79037 7.86523 22.18555-5.02865-3.70247-10.05729-7.40495-15.08594-11.10742 2.4069-3.69271 4.81381-7.38542 7.22071-11.07813zm25.27929 1.28516c2.53581 7.15299 5.07162 14.30599 7.60743 21.45898-4.81315-3.56315-9.62631-7.1263-14.43946-10.68945 2.24848-3.60391 4.71265-7.09913 6.83203-10.76953z"/><path d="m197.48633 87.666016a.11799365.11799365 0 0 0 -.041.134765l19.42188 54.865239a.11799365.11799365 0 0 0 .0176.0332l3.14062 4.125a.11799365.11799365 0 0 0 .21094-.0664l.18945-4.125a.11799365.11799365 0 0 0 -.006-.0449l-16.51357-46.654326 19.57227 14.537106a.11799365.11799365 0 0 0 .0332.0176l4.91601 1.61524a.11799365.11799365 0 0 0 .125-.18946l-3.72851-4.15234a.11799365.11799365 0 0 0 -.0176-.0176l-27.17967-20.078124a.11799365.11799365 0 0 0 -.14062 0zm25.1914.05859a.11799365.11799365 0 0 0 -.041.134766c.87785 2.480781 1.60987 4.54735 2.19531 6.201172.58545 1.653832 1.46684 4.143786 2.64453 7.470706 1.17768 3.32686 2.8716 8.11719 5.08399 14.36719 2.20559 6.23074 5.36494 15.15224 9.47656 26.76758a.11799365.11799365 0 0 0 .0176.0312l3.11133 4.125a.11799365.11799365 0 0 0 .21093-.0645l.22071-4.125a.11799365.11799365 0 0 0 -.006-.0449l-10.63086-30.02734 16.5 12.65039a.11799365.11799365 0 0 0 .0312.0176l4.47265 1.67382a.11799365.11799365 0 0 0 .13282-.18554l-3.41993-4.18164a.11799365.11799365 0 0 0 -.0195-.0195l-19.42382-14.83593-4.2168-11.906255 16.51172 12.679685a.11799365.11799365 0 0 0 .0312.0176l4.46289 1.64258a.11799365.11799365 0 0 0 .13281-.18555l-3.42187-4.18164a.11799365.11799365 0 0 0 -.0215-.0195l-23.89434-18.000038a.11799365.11799365 0 0 0 -.14063-.002zm-27.58398.123047a.11799365.11799365 0 0 0 -.11133.05273l-11.29687 17.019527a.11799365.11799365 0 0 0 .0273.1582l16.41016 12.3379-7.66797 12.2832a.11799365.11799365 0 0 0 .0293.1582l23.33398 16.99024a.11799365.11799365 0 0 0 .18168-.13476l-20.80859-58.787109a.11799365.11799365 0 0 0 -.0977-.07813zm-.83008 7.65625 6.68945 18.902347-12.55273-9.45117zm76.33203.882813a.11799365.11799365 0 0 0 -.082.01172l-3.61133 1.990234a.11799365.11799365 0 0 0 -.043.03906l-12.19727 18.8086a.11799365.11799365 0 0 0 .0293.16015l25.52343 18.83594a.11799365.11799365 0 0 0 .0274.0137l5.04883 1.99024a.11799365.11799365 0 0 0 .13476-.18164l-3.15625-4.00977a.11799365.11799365 0 0 0 -.0215-.0234l-22.75-16.75 10.88281-16.69531a.11799365.11799365 0 0 0 .0176-.0566l.28906-4.009768a.11799365.11799365 0 0 0 -.0918-.123047zm25.46094 0a.11799365.11799365 0 0 0 -.082.01172l-3.61133 1.990234a.11799365.11799365 0 0 0 -.043.03906l-12.19922 18.8086a.11799365.11799365 0 0 0 .0293.16015l25.52344 18.83594a.11799365.11799365 0 0 0 .0273.0137l5.05078 1.99024a.11799365.11799365 0 0 0 .13477-.18164l-3.1582-4.00977a.11799365.11799365 0 0 0 -.0215-.0234l-22.75-16.75 10.88281-16.69531a.11799365.11799365 0 0 0 .0176-.0566l.29102-4.009768a.11799365.11799365 0 0 0 -.0918-.123047zm-93.02148 23.894534 6.67968 18.87109-12.52539-9.44922zm37.41406 40.94336a.11799365.11799365 0 0 0 -.18164.13477l19.55273 55.15234a.11799365.11799365 0 0 0 .0176.0312l3.11133 4.125a.11799365.11799365 0 0 0 .21094-.0644l.1914-4.125a.11799365.11799365 0 0 0 -.006-.0449l-7.11132-20.08789 19.02343 14.05078a.11799365.11799365 0 0 0 .0274.0137l5.12695 1.96093a.11799365.11799365 0 0 0 .13086-.1875l-3.71094-4.18164a.11799365.11799365 0 0 0 -.0176-.0176l-21.46093-15.88672 8.70703-13.52149a.11799365.11799365 0 0 0 -.0293-.16015zm-28.79297.29492a.11799365.11799365 0 0 0 -.11328.0527l-10.99609 16.91406-23-16.91602a.11799365.11799365 0 0 0 -.18165.13477l19.42969 54.80664a.11799365.11799365 0 0 0 .0176.0332l3.13867 4.125a.11799365.11799365 0 0 0 .21094-.0664l.19141-4.125a.11799365.11799365 0 0 0 -.006-.0449l-16.52539-46.68164 18.36132 13.72852a.11799365.11799365 0 0 0 .16993-.0312l8.6582-13.75391 16.57226 46.81641a.11799365.11799365 0 0 0 .0176.0332l3.14063 4.125a.11799365.11799365 0 0 0 .21093-.0664l.18946-4.125a.11799365.11799365 0 0 0 -.006-.0449l-19.38281-54.83593a.11799365.11799365 0 0 0 -.0977-.0781zm87.84961 0a.11799365.11799365 0 0 0 -.11328.0527l-10.9961 16.91406-23.00195-16.91602a.11799365.11799365 0 0 0 -.18164.13477l19.42969 54.80664a.11799365.11799365 0 0 0 .0176.0332l3.14062 4.125a.11799365.11799365 0 0 0 .21094-.0664l.1914-4.125a.11799365.11799365 0 0 0 -.006-.0449l-16.52539-46.68164 18.36132 13.72852a.11799365.11799365 0 0 0 .16992-.0312l8.65821-13.75391 16.57226 46.81641a.11799365.11799365 0 0 0 .0176.0332l3.13867 4.125a.11799365.11799365 0 0 0 .21094-.0664l.19141-4.125a.11799365.11799365 0 0 0 -.006-.0449l-19.38281-54.83593a.11799365.11799365 0 0 0 -.0977-.0781zm-124.87891.0879a.11799365.11799365 0 0 0 -.0801.01l-3.59571 1.78906a.11799365.11799365 0 0 0 -.0469.041l-12.37891 18.95312a.11799365.11799365 0 0 0 .0293.16016l23.42578 17.26953-10.72266 16.49219a.11799365.11799365 0 0 0 -.0176.0566l-.30468 4.21093a.11799365.11799365 0 0 0 .16992.11328l3.5957-1.7871a.11799365.11799365 0 0 0 .0469-.041l12.34765-19.03906a.11799365.11799365 0 0 0 -.0293-.16016l-23.37689-17.21309 10.70508-16.46289a.11799365.11799365 0 0 0 .0176-.0566l.30469-4.21289a.11799365.11799365 0 0 0 -.0899-.12305zm149.29102 0a.11799365.11799365 0 0 0 -.0781.0508l-12.22656 18.8086a.11799365.11799365 0 0 0 -.0176.0469l-.59765 4.03906a.11799365.11799365 0 0 0 .1582.12696l3.80469-1.44336a.11799365.11799365 0 0 0 .0586-.0469l9.39063-14.88086 17.02148 48.08789a.11799365.11799365 0 0 0 .0176.0332l3.23828 4.24023a.11799365.11799365 0 0 0 .21094-.0664l.20703-4.24024a.11799365.11799365 0 0 0 -.006-.0449l-16.98438-47.98047 19.89844 14.88281a.11799365.11799365 0 0 0 .0371.0195l4.81641 1.41407a.11799365.11799365 0 0 0 .12304-.18946l-3.41796-4.00976a.11799365.11799365 0 0 0 -.0195-.0195l-25.54296-18.8086a.11799365.11799365 0 0 0 -.0918-.0195zm49.11523 0a.11799365.11799365 0 0 0 -.0801.01l-3.5957 1.78906a.11799365.11799365 0 0 0 -.0469.041l-12.35743 19.00976a.11799365.11799365 0 0 0 .0293.16016l23.38477 17.24219-10.70313 16.46289a.11799365.11799365 0 0 0 -.0176.0566l-.30468 4.21093a.11799365.11799365 0 0 0 .16992.11328l3.5957-1.7871a.11799365.11799365 0 0 0 .0469-.041l12.3789-18.95312a.11799365.11799365 0 0 0 -.0293-.16016l-23.45502-17.26973 10.75195-16.49219a.11799365.11799365 0 0 0 .0176-.0566l.30469-4.21289a.11799365.11799365 0 0 0 -.0898-.12305zm-126.4375 7.50977 12.74414 9.42383-6.08203 9.39843zm-5.83203 1.11523a.11799365.11799365 0 0 0 -.082.0117l-3.61133 1.99219a.11799365.11799365 0 0 0 -.043.0391l-12.19922 18.80664a.11799365.11799365 0 0 0 .0293.16016l25.52344 18.83593a.11799365.11799365 0 0 0 .0273.0137l5.04883 1.99023a.11799365.11799365 0 0 0 .13477-.18164l-3.15625-4.00977a.11799365.11799365 0 0 0 -.0215-.0234l-22.75-16.75 10.88282-16.69531a.11799365.11799365 0 0 0 .0176-.0566l.29102-4.00976a.11799365.11799365 0 0 0 -.0918-.12305z" fill="#77767b" stroke-width="8"/></g></svg>