<svg height="500" viewBox="0 0 500 500" width="500" xmlns="http://www.w3.org/2000/svg" xmlns:xlink="http://www.w3.org/1999/xlink"><linearGradient id="a" gradientUnits="userSpaceOnUse" spreadMethod="repeat" x1="203.01116110715" x2="203.01116110715" y1="378.50782032205" y2="381.08510658099"><stop offset="0" stop-color="#d3b879"/><stop offset=".34885058" stop-color="#ebd6ad"/><stop offset=".5" stop-color="#ebd6ad"/><stop offset=".74770111" stop-color="#ebd6ad"/><stop offset="1" stop-color="#d3b879" stop-opacity=".75"/></linearGradient><filter id="b" color-interpolation-filters="sRGB" height="1.016027" width="1.003691" x="-.001845" y="-.008013"><feGaussianBlur stdDeviation=".23601584"/></filter><radialGradient id="c" cx="418.2005" cy="790.67999" gradientTransform="matrix(.2069623 .10100165 -.20889522 .42804711 247.52618 68.507278)" gradientUnits="userSpaceOnUse" r="164.77657" spreadMethod="reflect"><stop offset="0" stop-color="#c1a76c"/><stop offset="1" stop-color="#c7b27f"/></radialGradient><linearGradient id="d" gradientUnits="userSpaceOnUse" x1="59.079338" x2="117.71146" y1="207.26978" y2="186.45172"><stop offset="0" stop-color="#126d12"/><stop offset=".25" stop-color="#126d12" stop-opacity=".52"/><stop offset=".40000001" stop-color="#126d12" stop-opacity="0"/><stop offset=".60000002" stop-color="#3fd93f" stop-opacity="0"/><stop offset=".80057472" stop-color="#126d12" stop-opacity=".25"/><stop offset="1" stop-color="#126d12" stop-opacity=".67"/></linearGradient><linearGradient id="e" gradientUnits="userSpaceOnUse" spreadMethod="reflect" x1="-133.00000609861" x2="-27.00000376108" y1="40.00000013508" y2="85.00000016894"><stop offset="0" stop-color="#1b981b"/><stop offset="1" stop-color="#1ab21a"/></linearGradient><path d="m157.20489 465.65979h302.05313l-121.04227-343.10143-302.01899 1.24002z" fill="#126d12"/><path d="m59.565998 140.26474 109.342692 308.9299h266.97678l-109.37288-310.02647z" fill="#126d12"/><path d="m453.83594 449.19464-.38672-10.4837-8.59766-13.88477 27.29102-9.77539-13.44922-19.97461c1.25441-.78817 8.36721-6.78158 9.83398-7.54492l10.39649-9.02344-14.79688-17.71093-266.976 1.0997-14.12881 9.73623c-14.26047 9.17949-23.03843 24.15095-28.28796 37.51407-5.24943 13.36314-6.83917 30.83075-3.9058 40.04776h285.05709z" fill="url(#c)"/><path d="m174.32848 378.50781c-14.26047 9.17949-17.25483 23.10334-21.65974 36.56836-3.55298 10.8608-6.27337 24.90146-3.34 34.11847l286.55603-.002c-2.63093-3.21863-.14649-10.48172-.14649-10.48172s-9.01545-9.93202-9.4043-14.98242l-15.70898-6.51563 36.39648-10.27148-13.37695-10.75782c4.60204-6.77626 11.55559-12.56353 21.37891-17.67578z" fill="url(#a)" filter="url(#b)" opacity=".75"/><path d="m19.172201 143.9568 12.691289 34.4169 77.65777 210.69586 10.26158 27.87353c12.86189 33.34884 11.9504 46.33065 37.42205 48.7167 4.26159.3992 9.00451 0 14.78468 0l-5.00864-20.13869c-3.9367-17.37337 4.43034-43.46845 25.89132-61.08814l10.13893-5.92514-121.068582-343.17688-16.21972 3.713003c-17.245667 7.120359-34.987746 28.120966-42.465475 41.92517-8.813485 16.631269-14.3838721 34.427507-8.012694 52.343277z" fill="#126d12"/><path d="m70.921553 54.766732c-27.012869 13.247193-47.609013 52.999018-40.450294 72.906568l3.892895 10.54874c.475156-1.66537.97396-3.33459 1.509845-5.00325 7.248708-22.5032 21.396291-44.936544 42.291386-57.91313zm-18.673804 83.705418c-3.838055 11.91329-5.383233 24.12216-5.191293 34.17115l77.659414 210.69874c.227-.52707.43872-1.05839.67391-1.58615 8.22948-18.47322 23.25551-36.71751 43.78513-48.40275l-85.099609-241.290427c-14.495853 10.469227-25.917452 28.060247-31.827552 46.409437zm88.855681 250.29385c-3.46458 7.77898-5.39731 15.56698-6.12496 22.44884l14.00303 37.97782h1.49964c-5.65596-24.9601 6.37743-56.36639 32.19376-77.56183l-7.64943-21.68914c-15.50376 9.69378-27.38938 24.15954-33.92204 38.82431z" fill="url(#e)"/><path d="m69.693359 52.984375c-10.098761 5.00985-18.497356 12.934896-25.288495 21.839781-6.679423 8.858007-11.974767 18.849309-14.981293 29.553314-1.846278 6.7718-2.835447 13.98681-1.359599 20.92884.733679 3.21801 2.126576 6.23266 3.196518 9.34477 32.818456 89.00449 65.624645 178.01351 98.42025 267.02642 6.07699 16.51236 12.17234 33.01796 18.25676 49.52758 1.7871-.0152 3.57422-.0285 5.36133-.043-.9747-4.18425-1.72476-8.43572-1.84661-12.73927-.0634-1.67937-.0543-3.36096.0146-5.04003.0299-.42258.0532-1.12584.0911-1.58843.13019-1.94896.355-3.89063.64719-5.82172.11888-.72584.2883-1.75223.45131-2.59024 2.31879-11.94254 7.56262-23.22855 14.71861-33.03281.63405-.86563 1.43668-1.9318 2.16931-2.84926 4.44285-5.64276 9.5878-10.71015 15.16858-15.22301-16.68508-47.23278-33.32056-94.48372-49.98964-141.72271-20.99859-59.53287-41.981092-119.0714-62.998671-178.597569-.677083.342448-1.354166.684896-2.03125 1.027344z" fill="url(#d)"/><path d="m185.44687 378.50782h302.05313l-121.04226-344.345034-284.51551 1.167071c-5.40642 1.238028-10.812932 2.476057-16.219352 3.714086z" fill="#126d12"/><path d="m87.808256 51.86939 109.342694 310.02719 266.97678-1.09914-109.37288-310.024627z" fill="url(#e)"/><g fill="#3fd93f" stroke="none" stroke-linecap="round" stroke-linejoin="round" stroke-width="10" transform="matrix(.87124249 0 .30714552 1.1477861 0 0)"><path d="m230.82227 79.802734c-.78505-.02171-1.61627.07192-2.49415.3125-1.75575.481167-3.4655 1.764906-4.47265 3.34961-.89039 1.400973-1.28051 2.949515-1.46094 4.566406-1.30446-.523163-2.64676-.919178-3.99609-1.121094-3.08506-.461652-6.25318-.321349-9.30274 1.25-1.52478.785675-3.06993 2.054205-4.03125 3.917969-.96131 1.863764-1.14573 4.168965-.66992 6.191406.53543 2.276649 2.57737 3.878069 4.91602 3.855469 1.62254-.0159 2.25041.13339 3.24023.26953-.0838.1394-.16068.2828-.23047.42969-1.69032 3.79783-4.17106 9.43999-4.53711 15.45508-.18302 3.00754.18589 6.32515 2.11914 9.2832s5.40527 5.00367 9.41211 5.66211c.0558.009.11184.0179.16797.0254 5.60673.7254 10.44608-.71969 14.49805-1.59961s7.10573-1.25239 9.89258-.23437c.11956.0437.24074.0828.36328.11718 2.23135.62689 3.76956 1.05113 5.97265.77735 1.10155-.1369 2.76078-.52657 4.08204-2.20703 1.32125-1.68047 1.29343-3.97881.93164-5.18946-.72358-2.42129-1.7878-3.185-2.89649-4.24023s-2.39449-2.05074-3.82031-3.01953c-.11657-.0799-.23647-.15485-.35938-.22461-5.98087-3.36104-12.20995-2.14651-17.00976-1.08985-2.99935.6603-5.3758 1.0309-7.41211 1.15821.14088-.5555.2385-1.06278.51758-1.7793.59741-1.53387 1.48951-3.43169 2.33398-5.53516 6.77927-1.70285 13.55863-3.40457 20.33789-5.10742l-.0781.0176c5.31165-1.24191 8.92551-5.222233 8.49023-10.3125-.21764-2.545134-2.77751-5.749423-5.76758-6.171875-2.49341-.352283-4.48105.520528-6.42578 1.740234-1.09481.27242-2.17856.514031-3.27148.785157.0944-.365114.28682-.718362.32031-1.082032.33399-3.626322-1.52432-6.116997-3.54883-7.8125-1.51838-1.271626-3.4554-2.372375-5.81054-2.4375zm34.38085 6.96875c-1.55881.173722-3.11193.602998-4.63671 1.388672-1.52478.785675-3.07189 2.054207-4.03321 3.917969-.96131 1.863762-1.14573 4.168965-.66992 6.191406.53543 2.276649 2.57737 3.878069 4.91602 3.855469 1.62254-.0159 2.25041.13339 3.24023.26953-.0838.1394-.16068.2828-.23047.42969-1.69031 3.79782-4.17106 9.43999-4.53711 15.45508-.18302 3.00754.18589 6.32515 2.11914 9.2832s5.40526 5.00367 9.41211 5.66211c.0565.009.11314.0179.16992.0254 5.60674.7254 10.44413-.71969 14.4961-1.59961s7.10573-1.25239 9.89258-.23437c.11956.0437.24074.0828.36328.11718 2.23135.62689 3.77152 1.05113 5.97461.77735 1.10154-.1369 2.75882-.52657 4.08008-2.20703 1.32125-1.68047 1.29538-3.97881.93359-5.18946-.72358-2.42129-1.78975-3.185-2.89844-4.24023s-2.39253-2.05074-3.81836-3.01953c-.1172-.08-.23775-.1549-.36133-.22461-5.98087-3.36104-12.208-2.14651-17.00781-1.08985-2.99935.6603-5.37775 1.0309-7.41406 1.15821.14088-.55558.23845-1.06264.51758-1.7793.59744-1.53393 1.49144-3.43158 2.33593-5.53516 6.77927-1.70285 13.55864-3.40457 20.3379-5.10742l-.0801.0176c5.31165-1.2419 8.92746-5.222233 8.49218-10.3125-.21763-2.545134-2.77751-5.749421-5.76757-6.171875-2.49342-.352285-4.48301.520528-6.42774 1.740234-4.87406 1.212806-9.71718 2.353395-14.56445 3.490235-.36809-1.003476-.86098-1.924824-1.51953-2.664063-2.4355-2.733923-5.56338-3.803973-8.64844-4.265625-1.54253-.230826-3.1072-.312393-4.66602-.138672zm-112.48046 60.753906c-.78505-.0217-1.61627.0719-2.49414.3125-1.75576.48117-3.46355 1.76491-4.47071 3.34961-1.00715 1.5847-1.43682 3.34094-1.56836 5.19336-.0104.15341-.0138.30722-.01.46094.0737 3.41002 1.99729 5.86028 4.54492 7.25781-.0432.086-.0852.17236-.12695.25976-1.50852 1.60224-2.78933 3.28018-3.9043 4.98633-.0218-.94481-.1442-1.86217-.39063-2.70508-.93958-3.21387-2.92476-5.63899-5.18359-7.48046-2.25883-1.84148-4.78979-3.2321-8.01758-3.36329-1.61389-.0656-3.53643.29134-5.1875 1.48243-1.65106 1.19108-2.73704 3.10978-3.14648 4.96289-.54436 2.46681.8366 4.95221 3.21875 5.79297 1.79501.63341 2.16758 1.34939 2.39648 2.63086.22891 1.28146-.15464 3.23303-1.39062 4.93164-.0699.0966-.13637.19557-.19922.29687-2.68133 4.29973-3.64298 9.64591-2.67969 14.97461.48165 2.66435 1.579 5.5107 4.12305 7.58789s6.3306 2.68865 9.80664 1.82617c.31093-.0769.61376-.18352.9043-.31836 6.8363-3.17789 10.60317-8.96998 13.5664-14.13086.71459-1.24455 1.35766-2.3125 2.02735-3.48437.25612.45891.46873.97216.80273 1.30469 1.97014 1.96145 3.44999 1.99804 4.61523 2.10156-1.54585 1.98462-3.87446 3.57875-5.92578 3.50391-3.46815-.12584-6.0068 3.23293-4.93945 6.53515 1.13888 3.51916 5.04202 5.88733 8.13477 6.00391 3.09274.11658 5.76223-.88435 8.29101-2.25391 5.05756-2.73912 10.11071-6.95449 10.69141-13.72265l-.31836 1.37109c1.21017-3.13672.54615-6.93508-.99024-9.09375-1.33742-1.87912-2.71553-2.81765-3.68945-3.52344.47468-.46325.85245-1.0163 1.11133-1.62695 1.57548-3.75263 1.61412-7.82618-.15625-10.94531-1.77037-3.11914-4.8747-4.8384-7.92578-5.42969-.71858-.13926-1.47895-.0307-2.22266-.0566-.1603-2.928-1.71527-5.0695-3.48633-6.55274-1.51838-1.27162-3.4554-2.37432-5.81054-2.43945zm100.23046 0c-.78504-.0217-1.61626.0719-2.49414.3125-1.75575.48117-3.4655 1.76491-4.47265 3.34961-.89011 1.40054-1.28041 2.95006-1.46094 4.56641-1.30392-.52274-2.64542-.91927-3.99414-1.1211-3.08506-.46165-6.25317-.32135-9.30273 1.25-1.30193.67085-2.55016 1.7817-3.50586 3.22656-.66858-.44179-1.43356-.71643-2.23047-.80078-11.83011-.95854-23.36326-.1092-34.45508-.19922-.27203-.002-.54376.0183-.8125.0605.22046-.0344-.84156.0157-2-.0293s-2.53654-.12298-4.07617.006c-1.53964.12885-3.82102-.0218-5.91211 2.89258-1.04555 1.45721-1.29049 3.58258-.96875 5.01172.32173 1.42914.92656 2.41493 1.60742 3.35938.62427.86583 1.50922 1.50918 2.52539 1.83593 5.33347 1.71502 10.23102 1.67616 14.74023 1.65039.006 3.53588.005 7.05404.006 10.6875.00004.43116.0558.8605.16602 1.27735.20315.76902.14743.92014.13672 1.13672-.44155.0463-1.36321.13677-3.04883-.33594l1.08789.44922c-1.44213-.80595-2.75235-1.38356-4.2832-1.66016-1.53085-.27659-3.64933-.23068-5.47266 1.19141-1.82332 1.42208-2.40453 3.70144-2.36328 5.21094.0413 1.50949.45709 2.65258.98047 3.71679 1.04676 2.12842 2.65306 3.98549 5.01562 5.35547 2.36257 1.36998 5.8038 2.05524 9.06055.83203l-1.21289.28906c3.12108-.34217 8.51891.50854 14.14648.3379 2.81379-.0853 5.79567-.45605 8.70118-1.79493 2.90551-1.33887 5.61232-3.81033 7.24023-7.16211.36485-.75052.53607-1.58042.49805-2.41406-.0695-1.51471-.74568-3.67423-2.44727-5.0039-1.70159-1.32968-3.51207-1.41818-4.71484-1.33594-2.40554.16447-3.89147.88853-5.4707 1.44336-1.11.38997-1.9445.58305-2.79493.79101-.0139-3.86465-.0337-7.73118-.0508-11.56445-.002-.44567-.0639-.88905-.18359-1.31836-.13581-.48813-.0789-.23244-.10742-.49023.85029-.0626 2.70257-.14833 5.47461.0723l-.21485-.58594c.3094.23409.64499.43138 1 .58789 1.83795-.14284 4.11679-.48229 6.50196-1.47656 1.35576-.56515 2.90205-1.52857 4.15429-2.91992.90012.99128 2.16019 1.58016 3.49805 1.63477 1.62316-.0159 2.25057.1334 3.24023.26953-.0845.13999-.16205.28405-.23242.43164-1.69032 3.79783-4.16911 9.43804-4.53515 15.45312-.18303 3.00755.18588 6.32516 2.11914 9.28321 1.93325 2.95805 5.4033 5.00367 9.41015 5.66211.0565.009.11314.0179.16992.0254 5.60673.72538 10.44608-.71969 14.49805-1.59961s7.10378-1.25239 9.89063-.23438c.11956.0437.24074.0828.36328.11719 2.23135.62688 3.77152 1.05113 5.97461.77734 1.10154-.13689 2.75881-.52462 4.08007-2.20508 1.32127-1.68045 1.29539-3.98075.9336-5.1914-.72358-2.4213-1.78975-3.18501-2.89844-4.24024-1.10869-1.05522-2.39254-2.05073-3.81836-3.01953-.11724-.0793-.23779-.15358-.36133-.22265-5.98087-3.36106-12.20799-2.14847-17.00781-1.0918-2.99935.6603-5.37775 1.0309-7.41406 1.1582.14088-.5553.23863-1.0631.51758-1.77929.59744-1.53393 1.49144-3.43158 2.33593-5.53516 6.75262-1.69616 13.5052-3.39173 20.25782-5.08789 5.31165-1.2419 8.92746-5.22419 8.49218-10.31445-.21763-2.54514-2.77751-5.74942-5.76757-6.17188-2.49109-.35196-4.47689.52254-6.41993 1.74024-1.09738.27306-2.18381.51339-3.27929.78515.0944-.36511.28682-.71836.32031-1.08203.33399-3.62632-1.52432-6.11504-3.54883-7.81055-1.51838-1.27162-3.4554-2.37432-5.81055-2.43945zm72.22071 7.00195c-2.36376.06-4.8746.4188-7.31641 1.25196-2.104.7179-4.32337 1.80196-5.98633 4.00781-4.58463 3.32399-8.36194 7.24615-12.01562 10.38672-3.45968 2.9738-6.70646 5.06952-10.30078 5.94531-.72004-.352-1.43812-.84832-2.20313-1.05859-1.54124-.42364-3.59326-.64563-5.64453.61132-2.05126 1.25696-2.91461 3.72656-2.93359 5.3379-.019 1.61133.40438 2.82164.94531 3.95117 1.08185 2.25906 2.80776 4.2602 5.43945 5.62695 1.28932.6696 2.87718 1.08476 4.54688 1.14453.91566 1.69209 2.10419 3.43178 3.83398 5.03516 1.59614 1.47949 3.71767 2.8206 6.3418 3.29492 2.5935.46879 5.50477-.0632 8.12109-1.46875 1.59503-.53623 2.94867-1.32389 3.91407-2.25195 1.31616-1.26527 2.23551-2.55296 2.8457-4.29297.30509-.87001.67202-1.87226.28515-3.63477-.38686-1.76251-2.87136-4.11118-4.83203-4.3125s-2.99726.37141-3.94922.86524c-.22429.11635-.43282.31034-.64843.43945.79207-1.46537 2.01824-3.16213 2.69922-3.45313.38277-.16346.74363-.37408 1.07421-.62695 4.23901-3.24522 7.60615-7.09695 10.90625-9.84375 3.30011-2.7468 6.10787-4.28656 9.62696-4.24414 1.24404.0144 2.44878-.43546 3.3789-1.26172 1.12315-.99708 2.66842-2.86997 2.30664-5.60156-.36177-2.73159-2.35546-4.11244-3.58984-4.71094-2.46876-1.19699-4.48195-1.19675-6.8457-1.13672zm19.01172 1.26953c-1.6139-.0656-3.53644.29134-5.1875 1.48243-1.65107 1.19108-2.73704 3.10978-3.14649 4.96289-.54436 2.46681.8366 4.95221 3.21875 5.79297 1.79502.63341 2.16758 1.34939 2.39649 2.63086.2289 1.28146-.15465 3.23303-1.39063 4.93164-.0699.0966-.13637.19557-.19922.29687-2.68133 4.29973-3.64298 9.64591-2.67968 14.97461.48164 2.66435 1.57899 5.5107 4.12304 7.58789s6.3306 2.68865 9.80664 1.82617c.31027-.077.61243-.18364.90235-.31836 6.8363-3.17789 10.60512-8.96998 13.56836-14.13086.71459-1.24455 1.35765-2.3125 2.02734-3.48437.25612.45891.46873.97216.80273 1.30469 1.97014 1.96145 3.44999 1.99804 4.61524 2.10156-1.54586 1.98462-3.87447 3.57875-5.92578 3.50391-3.46815-.12585-6.00682 3.23293-4.93946 6.53515 1.13889 3.51916 5.04202 5.88733 8.13477 6.00391s5.76224-.88435 8.29102-2.25391c5.05755-2.73912 10.1107-6.95449 10.6914-13.72265l-.31836 1.37109c1.21017-3.13672.54616-6.93508-.99023-9.09375-1.33743-1.87912-2.71554-2.81765-3.68946-3.52344.47468-.46325.85245-1.0163 1.11133-1.62695 1.57548-3.75263 1.61413-7.82618-.15625-10.94531-1.77037-3.11914-4.8747-4.8384-7.92578-5.42969-5.77702-1.11958-12.62782 1.46536-15.64453 7.78515-1.50851 1.60224-2.78933 3.28018-3.9043 4.98633-.0217-.94481-.1442-1.86217-.39062-2.70508-.93958-3.21387-2.92477-5.63899-5.1836-7.48046-2.25882-1.84148-4.78979-3.2321-8.01757-3.36329z" fill="#126d12"/><path d="m379.65304 182.90239c-.65746 6.09127-6.49938 11.58074-12.71737 11.35387 2.22495 6.87513 16.74854-1.54009 17.37672-8.86166 2.93048-7.59573-11.24001-6.87616-3.51483-14.38101 4.60923-10.97872-11.4154-13.16058-14.96361-3.82359-6.78631 6.76117-8.85995 17.12163-16.15517 23.31092-6.67547.52715-.31921-11.76168 1.60268-16.68502 6.45419-7.31351-8.90335-17.93649-10.54741-10.49566 6.6402 2.34316 7.3104 9.8253 3.38502 15.21994-3.49697 5.60766-3.77754 19.26825 5.80352 16.89098 10.72128-4.98384 12.53855-18.55884 20.93999-26.05985 7.59037-7.35776 4.276 5.07947 1.28674 8.41798-2.67427 4.69788 5.81216 1.84183 7.50372 5.1131zm-73.95369 11.26913c-7.29006 3.98582-11.7366-4.16996-13.00284-8.0184-7.71772 3.93252-13.6563-11.28017-3.62996-4.76771 10.97223-1.69191 17.69469-12.06429 26.38493-18.08546 2.77855-4.99909 18.64096-4.70913 14.53264-1.06192-10.20198-.12298-16.28032 9.48898-23.63294 15.11786-6.46335 2.76191-10.80199 16.14616.30984 13.36177 6.2024-5.02343 3.13651 3.00771-.96167 3.45386zm-56.29143-37.43735c.72155-10.16164 14.22758 1.11102 4.32073 3.65705-2.07381.13497-4.27324-1.45949-4.32073-3.65705zm18.42071 11.21495c6.50597-1.52114 6.16807-10.14622-.83977-5.14696-7.07214 1.75968-14.14618 3.52459-21.26506 5.09278 5.33485-9.40886-16.3788-11.75498-14.33021-3.04754 5.42364-.053 12.38966.28871 7.62562 7.73398-3.26269 7.33064-8.78544 21.45655 3.23717 23.43221 8.62777 1.11624 17.00439-4.66136 25.46389-1.57116 7.78978 2.18849 5.09283-1.54347.10836-4.93024-8.39424-4.71729-18.62462 3.09351-26.81836.34539-1.88488-5.72715 2.44447-10.83179 3.95503-16.16552 7.62111-1.91431 15.24222-3.82863 22.86333-5.74294zm-50.92777-.32507c-6.4358-.51215-12.80099-1.23904-10.58067 6.7415.0235 5.28365.0781 10.56722.07 15.85096 4.83805 4.02368 15.18068-5.05242 15.41378.0271-4.63553 9.54427-17.57394 4.8952-26.13626 5.83393-7.00232 2.63002-12.67764-10.66486-3.61816-5.60192 6.23089 1.74738 10.8566-.23043 9.09684-6.89217-.001-5.21136.10253-10.42387-.0115-15.63429-6.06533-.32691-12.35591.41767-18.20397-1.46282-3.53229-4.89973 5.20196-2.92923 8.06482-3.37633 11.36138.0922 22.77325-.734 34.09282.18318-.56322 3.05013-5.2987 4.10635-8.18772 4.33088zm-67.72309-10.88988c.72156-10.16164 14.22758 1.11103 4.32074 3.65705-2.07382.13497-4.27324-1.45949-4.32074-3.65705zm17.3913 26.16822c-.65746 6.09127-6.49938 11.58074-12.71737 11.35387 2.22495 6.87513 16.74854-1.54009 17.37672-8.86166 2.93048-7.59573-11.24001-6.87616-3.51483-14.38101 4.60923-10.97871-11.4154-13.16058-14.96361-3.82359-6.78631 6.76117-8.85995 17.12163-16.15517 23.31092-6.67546.52715-.31921-11.76168 1.60268-16.68502 6.45419-7.31351-8.90335-17.93649-10.54741-10.49566 6.6402 2.34316 7.3104 9.8253 3.38502 15.21994-3.49696 5.60766-3.77754 19.26825 5.80352 16.89098 10.72128-4.98384 12.53855-18.55883 20.93999-26.05985 7.59037-7.35776 4.276 5.07947 1.28674 8.41798-2.67427 4.69788 5.81216 1.84183 7.50372 5.1131zm130.59722-82.67639c6.50597-1.521141 6.16808-10.146236-.83977-5.146961-7.07214 1.759674-14.14618 3.524578-21.26505 5.092781 5.33483-9.408875-16.37879-11.754972-14.33022-3.047543 5.42364-.05302 12.38967.288703 7.62563 7.733983-3.26268 7.33063-8.78545 21.45655 3.23716 23.4322 8.62778 1.11626 17.00439-4.66136 25.4639-1.57116 7.78978 2.1885 5.09282-1.54348.10835-4.93024-8.39424-4.71726-18.62461 3.09351-26.81835.34539-1.88488-5.72715 2.44446-10.83179 3.95503-16.16551 7.62111-1.91431 15.24221-3.82863 22.86332-5.74294zm-69.89022-11.214954c.72154-10.161641 14.22759 1.11102 4.32073 3.657049-2.07381.134976-4.27324-1.459493-4.32073-3.657049zm18.42071 11.214954c6.50597-1.521151 6.16807-10.146233-.83977-5.146961-7.07215 1.759672-14.14618 3.524578-21.26506 5.092781 5.33485-9.408869-16.3788-11.754976-14.33022-3.047543 5.42365-.05302 12.38967.288701 7.62563 7.733983-3.26269 7.33063-8.78544 21.45654 3.23716 23.4322 8.62778 1.11626 17.00439-4.66136 25.4639-1.57116 7.78978 2.1885 5.09282-1.54348.10835-4.93024-8.39424-4.71726-18.62461 3.09351-26.81835.34539-1.88487-5.72715 2.44445-10.83179 3.95503-16.16551 7.62111-1.91431 15.24222-3.82863 22.86333-5.74294z" fill="#3fd93f"/></g></svg>