<svg height="500" viewBox="0 0 500 500" width="500" xmlns="http://www.w3.org/2000/svg" xmlns:xlink="http://www.w3.org/1999/xlink"><linearGradient id="a" gradientUnits="userSpaceOnUse" spreadMethod="repeat" x1="203.01116110715" x2="203.01116110715" y1="378.50782032205" y2="379.87312171804"><stop offset="0" stop-color="#d3b879"/><stop offset=".34885058" stop-color="#ebd6ad"/><stop offset=".5" stop-color="#ebd6ad"/><stop offset=".74770111" stop-color="#ebd6ad"/><stop offset="1" stop-color="#d3b879" stop-opacity=".75"/></linearGradient><filter id="b" color-interpolation-filters="sRGB" height="1.016027" width="1.003702" x="-.001851" y="-.008013"><feGaussianBlur stdDeviation=".23601584"/></filter><radialGradient id="c" cx="418.2005" cy="790.67999" gradientTransform="matrix(.2069623 .10100165 -.20889522 .42804711 247.52618 68.507278)" gradientUnits="userSpaceOnUse" r="164.77657" spreadMethod="reflect"><stop offset="0" stop-color="#c1a76c"/><stop offset="1" stop-color="#c7b27f"/></radialGradient><linearGradient id="d" gradientUnits="userSpaceOnUse" x1="34.003029" x2="127.86031" y1="216.91658" y2="182.47691"><stop offset="0" stop-color="#533c2c"/><stop offset=".25" stop-color="#533c2c" stop-opacity=".25"/><stop offset=".4" stop-color="#533c2c" stop-opacity="0"/><stop offset=".6" stop-color="#533c2c" stop-opacity="0"/><stop offset=".8" stop-color="#533c2c" stop-opacity=".25"/><stop offset="1" stop-color="#533c2c" stop-opacity=".66667"/></linearGradient><clipPath id="e"><path d="m87.808256 51.86939 109.342694 310.02719 266.97678-1.09914-109.37288-310.024627z"/></clipPath><clipPath id="f"><path d="m169.17491 333.35314-85.41339-241.288528-5.91802-16.75647-6.930357-21.547789c-13.506435 6.62359-26.383496 32.285445-32.861948 51.629697-9.640858 28.787-10.812615 80.83399-7.233255 90.78775l3.89262 10.54917 12.69313 34.42048 77.31218 210.69759 10.75764 29.21541 13.50799 36.63521 2.39525.002c-1.39377-14.59284-2.3903-39.64759-.008-59.25514 2.13202-17.54942 6.35989-34.9907 12.70593-51.49086 4.79588-12.46966 10.9798-22.35527 18.9477-35.31883l-7.99667-21.69112z"/></clipPath><linearGradient id="g" gradientTransform="matrix(2.6972546 0 0 2.6857875 1920.4315 -12.476119)" gradientUnits="userSpaceOnUse" spreadMethod="reflect" x1="-605.62903" x2="-558.80072" xlink:href="#h" y1="48.402653" y2="64.181854"/><linearGradient id="h"><stop offset="0" stop-color="#a77858"/><stop offset="1" stop-color="#866046"/></linearGradient><linearGradient id="i" gradientUnits="userSpaceOnUse" spreadMethod="reflect" x1="223.01105220077" x2="338.21575038648" xlink:href="#h" y1="223.99998453899" y2="122.55835132481"/><filter id="j" color-interpolation-filters="sRGB" height="1.079733" width="1.014377" x="-.007189" y="-.039867"><feGaussianBlur stdDeviation=".86534485"/></filter><filter id="k" color-interpolation-filters="sRGB" height="1.080754" width="1.014431" x="-.007215" y="-.040377"><feGaussianBlur stdDeviation=".86534485"/></filter><filter id="l" color-interpolation-filters="sRGB" height="1.039354" width="1.017624" x="-.008812" y="-.019677"><feGaussianBlur stdDeviation=".57464899"/></filter><filter id="m" color-interpolation-filters="sRGB" height="1.039253" width="1.017767" x="-.008883" y="-.019627"><feGaussianBlur stdDeviation=".57464899"/></filter><linearGradient id="n" gradientTransform="matrix(3.5585872 0 0 3.5630393 2205.5548 -196.05211)" gradientUnits="userSpaceOnUse" spreadMethod="reflect" x1="-377.47375" x2="-379.81552" xlink:href="#h" y1="141.73444" y2="150.87712"/><filter id="o" color-interpolation-filters="sRGB" height="1.006346" width="1.005674" x="-.002837" y="-.003173"><feGaussianBlur stdDeviation=".32449015"/></filter><linearGradient id="p" gradientTransform="matrix(3.5585872 0 0 3.5630393 2205.5548 -183.05211)" gradientUnits="userSpaceOnUse" spreadMethod="reflect" x1="-377.47375" x2="-366.95905" xlink:href="#h" y1="141.73444" y2="154.65285"/><linearGradient id="q" gradientUnits="userSpaceOnUse" spreadMethod="reflect" x1="203.01113379377" x2="338.21575038648" xlink:href="#h" y1="76.99999525037" y2="122.55835132481"/><g id="r" transform="translate(-1707.1523 -253.25788)"><g opacity=".75" stroke-width="1.07272" transform="matrix(.93419795 0 0 .93022628 97.243268 45.895699)"><path d="m1380.9735 666.07017c.4425-.0586 2.2627-.11922 2.7046-.17784 1.3726-.32834 5.908.007 6.1467 1.69277.4273 1.43123-3.2672 2.81823-4.7451 2.9738-2.8875.51557-5.8382.37287-8.7597.46463-.47 1.12138 1.1369 3.48401-.3694 3.51995-1.6266.0364-4.2008-2.31895-3.9477-3.6916.3015-1.40771-.7105-2.51279-.7432-3.84422.1444-3.18488.5233-6.36523 1.1838-9.48494.7801-5.97021.4966-12.07866 1.7051-16.3271 1.2085-4.24843 5.1144-1.79162 5.1126-.74213.5621 3.46828-2.1694 7.34828-1.9937 10.84512 1.3728-.27782 1.4455-.55098 2.9348-.71974 1.9619-.22231 5.348-.26344 7.1271.10464.5092.0492 3.9619.16377 3.9532 1.58323l-13.8553 6.64236zm229.3054 6.32235c.8806.0263 1.6111.0562 2.4916.0876.3337.0119.8175.024 1.1513.0361.2197-.47734.4794-.97246.7092-1.47921.5086-1.12169.8701-2.30028.3244-3.46845-1.3924-1.31514-2.5864.99506-3.9813 1.06103zm-3.811 9.59145c-1.2799.4727-3.502-1.18057-3.3056-2.41414-.066-1.63115.1549-3.28849-.1296-4.90098-2.6494-2.09144-5.1117-4.72264-5.8702-8.0986-.1696-1.32972-1.0012-3.48584.6422-4.19738 2.4989-.53766 5.0816-.41429 7.6237-.57262.095-4.00167-.01-8.0143.3342-12.00517.1467-.83084.3753-1.84789 1.1107-2.24019 1.2082-.64457 3.2212-.53788 4.0734.5341 2.9398 3.69817-1.0159 9.92247-1.3744 14.10608 1.4876-.0318 2.8225.31996 4.2002.65041.9316.22346 1.9712.31265 2.7308.89644 1.5511 1.19202 3.4353 2.76927 3.2039 4.91691-.2257 3.00908-1.3949 6.43666-4.3372 7.81342zm-37.4388-15.53549c-1.6656-.0209-2.91-3.41413-2.3627-4.4034 4.4289-5.58301 8.0486-11.606 13.674-15.13399 1.2676-.79339 6.4883-.39528 7.0326 1.97828l-16.8454 14.92694s-.489 2.64483-1.4985 2.63217zm-33.1225-21.72983c-1.8348 1.58088-5.6763 5.36112-7.1835 7.23958l4 3c1.5104 2.00657 3.4808 3.83329 1.9326 5.62215-2.2854 3.07712-5.4966 5.57799-6.9184 9.21687.1263 1.6752 2.2614 1.89732 4.3867 2.12213 1.3155.13916 6.1558-.42809 6.3745 1.7659.1569 1.57426-2.5609 2.29854-4.2338 2.14507-3.4346.12152-5.6316.24852-9.0464-.18067-1.5583.0287-3.6727-1.51329-3.1649-2.87769 2.3555-6.12774 6.3444-10.86796 9.7842-15.80953-2.4064-.32566-4.1551-.2447-6.1973-.61796-.9048-.16537-2.1458-.5095-2.665-.71516-1.4308-.91442-.2595-3.00515.4326-4.10658 2.2201-3.09194 4.973-5.75253 7.5406-8.55557-1.2057-1.48966-2.5155-2.90644-3.6119-4.47538-.5131-1.55046.2943-3.19486.9401-4.60006.5317-1.19067 1.3393-2.18243 2.4927-2.82396 1.5095-1.03457 6.7785-.1472 6.8877 1.76533l-5.673 3.46321zm-41.551 13.94566-5.0097 16.25991c-1.2863.14252-3.1472-1.45589-2.9602-2.51233.1911-1.96065.6807-4.262 1.1034-6.18394.3648-1.65859.6586-2.9385.9194-4.61413-2.0227.58961-3.412 2.05501-5.1794 1.6538-1.1088-.25171-4.2273-1.46225-2.483-2.33889 2.8935-1.82119 5.9892-3.29734 8.9894-4.93518.6136-2.91134 1.237-5.82142 1.938-8.71303-.108-1.29236 3.7501-1.83763 4.7563-.59638l-2.2111 6.38928c1.2408.35485 2.6787-.83625 4.0356-1.1913.7184-.18798 1.4326-.56818 2.1717-.4966 1.4582.14123 3.9576.3199 4.0169 1.78374zm-66.9049 6.40327-5.9001 10.96053c-1.1105-.0303-3.9918-1.70495-3.5077-2.80517 1.1158-3.58328 2.7987-6.95999 4.3276-10.38191.587-1.30175 2.0767-2.23683 2.7054-3.59986.6935-1.50353.4419-3.3193 1.0835-4.84771-1.749.44561-2.1836 2.12867-3.5158 1.96385-1.3872-.17163-3.7842-1.75779-3.0521-2.87539 2.1049-2.68358 4.6681-4.71545 7.7894-5.274 1.2579-.20168 6.1864-.70871 6.7793 1.5308zm-88.8787 10.14129c-1.6082-.24127-4.3494-.13002-2.9123-2.71013.1541-.41676.322-.85173.6411-1.17531 1.3284-.88286 3.0481-.44583 4.5529-.44536 6.2123.38012 12.459.53643 18.6238 1.43102.5094.14054 4.1594.40877 4.041 1.89126zm-3.6774-7.29056c-1.039-.17748-1.313-.15022-3-1 .3058-1.04993.053-2.96261 2.0296-2.66728.898-.10008 1.8008-.15158 2.7031-.1966v-.00004c7.4478-.10873 14.9019.0707 22.344.37856 1.97.18875 7.1539 1.0844 8.9115 2.06402zm22.0879-35.92123c1.7086.37931 4.419.79829 4.5956 2.53957-5.4496 1.21582-5.0055 1.06006-9.882 2.40538-9.425 1.91432-9.6397 9.76753-9.5919 17.26353 1.5286-.0234 2.2493-.0151 3.9415-.0141 2.6701.002 6.3826-.0152 9.0196-.2038.4793-.69784 3.5515-.73398 4.8809-.42622-.4826-1.11709-6.3223-1.23127-7.1683-2.70609-.8514-2.21655 1.3224-3.46554 3.2874-3.05471 1.7389-.0463 6.9957.16886 7.7432 2.81104.5255 1.85741-1.9758 3.1994-3.6012 4.53501-3.3336 3.26032-8.3166 3.51593-12.7277 3.46845-1.916-.0846-3.5537.36592-5.3006.0992-1.042-.15911-2.1928-.63174-3-1-1.6791-1.56218-1.2929-4.12058-1.4075-6.19388-.1075-5.10538.6203-10.52825 3.9233-14.64692 1.664-2.11747 4.0487-3.63778 6.7964-4.26099 2.7476-.6232 5.6811-1.23933 8.4913-.61547zm47.2848 34.5645c.4425-.0586 2.2627-.11922 2.7046-.17784 1.3726-.32834 5.908.007 6.1467 1.69277.4273 1.43123-3.2672 2.81823-4.7451 2.9738-2.8875.51557-5.8382.37287-8.7597.46463-.47 1.12138 1.1369 3.48401-.3694 3.51995-1.6266.0364-4.2008-2.31895-3.9477-3.6916.3015-1.40771-.7105-2.51279-.7432-3.84422.1444-3.18488.5233-6.36523 1.1838-9.48494.7801-5.97021.4966-12.07866 1.7051-16.3271 1.2085-4.24843 5.1144-1.79162 5.1126-.74213.5621 3.46828-2.1694 7.34828-1.9937 10.84512 1.3728-.27782 1.4455-.55098 2.9348-.71974 1.9619-.22231 5.348-.26344 7.1271.10464.5092.0492 3.9619.16377 3.9532 1.58323l-13.8553 6.64236zm61.9382.84261c.4425-.0586 2.2627-.11922 2.7046-.17784 1.3726-.32834 5.908.007 6.1467 1.69277.4273 1.43123-3.2672 2.81823-4.7451 2.9738-2.8875.51557-5.8382.37287-8.7597.46463-.47 1.12138 1.1369 3.48401-.3694 3.51995-1.6266.0364-4.2008-2.31895-3.9477-3.6916.3015-1.40771-.7105-2.51279-.7432-3.84422.1444-3.18488.5233-6.36523 1.1838-9.48494.7801-5.97021.4966-12.07866 1.7051-16.3271 1.2085-4.24843 5.1144-1.79162 5.1126-.74213.5621 3.46828-2.1694 7.34828-1.9937 10.84512 1.3728-.27782 1.4455-.55098 2.9348-.71974 1.9619-.22231 5.348-.26344 7.1271.10464.5092.0492 3.9619.16377 3.9532 1.58323l-13.8553 6.64236zm85.6905 1.16872c.4425-.0586 2.2627-.11922 2.7046-.17784 1.3726-.32834 5.908.007 6.1467 1.69277.4273 1.43123-3.2672 2.81823-4.7451 2.9738-2.8875.51557-5.8382.37287-8.7597.46463-.47 1.12138 1.1369 3.48401-.3694 3.51995-1.6266.0364-4.2008-2.31895-3.9477-3.6916.3015-1.40771-.7105-2.51279-.7432-3.84422.1444-3.18488.5233-6.36523 1.1838-9.48494.7801-5.97021.4966-12.07866 1.7051-16.3271 1.2085-4.24843 5.1144-1.79162 5.1126-.74213.5621 3.46828-2.1694 7.34828-1.9937 10.84512 1.3728-.27782 1.4455-.55098 2.9348-.71974 1.9619-.22231 5.348-.26344 7.1271.10464.5092.0492 3.9619.16377 3.9532 1.58323l-13.8553 6.64236z" fill="#533c2c" filter="url(#k)" opacity="1"/><path d="m1381.1546 650.49299-.8871 1.80562c.018.75022.33 1.67345 1 2 3.0621 1.49236 6.8855-2.67936 10.0151-2.03187 1.6675.16126 1.6491 4.4676.014 4.54033-2.0571.2731-4.1898.48658-6.0225 1.54859-1.5136.87708-2.9549 2.03604-3.8466 3.55344-.3286 1.50913-.4281 2.93455-.458 4.33257l-1.0183 1.16701c.6137 1.25731.2189 2.96602 9.8736.17642.3923.2745 1.2931 2.32721 1.3758 2.91132.4273 1.43123-.6428 2.90691-2.1207 3.06248-2.8875.51557-5.8382.37287-8.7597.46463-.47 1.12138-.8052 2.75172-2.3115 2.78766-1.6266.0364-1.6196-1.34591-2.0581-2.26771l3.3108-34.08999c.6452-.0215 1.128 2.17394 1.4105 3.35316.5206 2.1731.432 4.42701.4827 6.68634zm232.4583 20.05907c-.3158-1.94577-.8282 1.27128-.8415 1.92275l-.8728.64423c.1639 3.69502 6.0782 2.29422 7.6747.75228.706-1.53393.1339-5.21249-1.6179-5.30277l-3.3244 2.46846c-.5769.42842-1.1053.30634-1.0181-.48494zm-5.0474-.80182c-.053-.99961-2.397-.60265-3.0642-.32371.6418 1.14433 1.7196 1.97711 2.6315 2.91145.1271-.86674.1746-1.74782.4327-2.58774zm2.3812-21.66125c1.7682-.29191 2.8467 3.18273 2.9181 4.51536.4017 3.39747.1952 6.78778-.088 10.18947l-1.2045.40125c1.9431.86568 6.0167 1.4156 8.2117 2.29768 1.9392.80756 3.155 4.01844 2.9236 6.16608-.2257 3.00908-1.3949 6.43666-4.3372 7.81342-2.3506.69465-6.6505.31305-7.6968.42046-.5505 1.67425-.6966 3.64495-2.1012 4.86931-1.3284.80879-3.3009-1.54448-3.1045-2.77805-.066-1.63115.8497-2.70263.5652-4.31512-2.6494-2.09144-5.1117-4.72264-5.8702-8.0986-.1696-1.32972-1.0012-3.48584.6422-4.19738 2.4989-.53766 5.0816-.41429 7.6237-.57262.095-4.00167-.01-8.0143.3342-12.00517.1467-.83084-.4119-4.4426 1.1841-4.70609zm-23.5737.80038c.6891.28413.746 1.35474 1 2-3.5073 5.96782-9.8188 11.16999-13.8454 15.92694 5.0691 4.23275 12.0246 4.14957 17.3915 6.47122 1.3302.22874 3.0102 4.10994 1.5864 4.71486-5.8022 1.16182-11.8039-1.88999-16.3665-4.29298-2.5542-1.46375-5.1984-2.98422-7.1099-5.26093-.3512-.42934-1.093-1.52695-1-2zm-53.2242-13.01721 3.5083-3.03904c1.0321.40555 1.31 2.334 1.3503 3.04037-.1109 1.8697-2.4919 1.7994-3.0233 3.42284.057 1.76837 1.4882 2.43836 2.3184 3.89595 1.3891 1.83545 1.1533 5.11963-.7395 6.40127-1.8348 1.58088-3.3327 3.48622-4.8399 5.36468 2.2909.28588 3.964-1.87273 5.6698-.0792 1.5104 2.00657 1.811 6.91251.2628 8.70137-2.0902 2.81433-4.9699 5.17722-6.5317 8.339l-.5202.19267c.2045 2.71218 2.1348 3.27109 6.8947 1.57323 1.0397 1.36617 1.4391 5.29854-.2338 5.14507-3.4346.12152-6.8998.10791-10.3146-.32128-1.5583.0287-3.2396-1.49499-2.7318-2.85939 2.3555-6.12774 10.6193-15.68722 10.6193-15.68722l-1-2.00002-4.7582 1.46502c-1.0936-.15278-2.0675-.3875-3.1041-.79812-.7415-.47388-1.4413-1.40919-1.335-2.28486.1019-.83994 1.4342-1.29108 1.7676-1.82172 2.2201-3.09194 4.973-5.75253 7.5406-8.55557zm-37.719 10.81198c.9491-.14781 1.1527 1.58425 1.4225 2.50614.2557.87378.339 1.7868.402 2.69184.051.734-1.0111 1.45291-1.0356 2.1913l.9996 2c1.8738.53586 4.3785-3.29887 6.2242-2.90416 1.4511.45021 1.7661 3.62251.4505 4.45412-2.0846 1.48592-4.307 2.78326-6.5378 4.04093-1.0968.53704-.6495 2.20125-.991 3.23664-.5508 3.75441-1.0426 7.60008-2.5747 11.10936-.5409 1.22731-1.7174 2.7168-3.2512 2.27789-1.3318-.28093-2.3798-2.30754-2.1928-3.36398 1.4451-3.58164 2.849-8.66942 2.0626-12.3104l-3.9194 3.61413c-.4192.0606-.7659.08-1.205.0414-1.2337.16583-3.3318-1.60119-3.055-3.00176l10.5064-4.27407zm-65.0489 4.52378c1.2579-.20168 1.8283-1.90943 2.7793-1.4692 1.7145.7937 1.4316 4.39197 1.2225 5.53451-.9541 4.51152-3.3676 9.15207-3.932 12.79435 2.5695 1.36029 5 2.05411 6.6731 4.0459.9768 1.16278 2.2523 3.03959 1.6542 4.24485-.5966 1.37714-2.3725 1.36725-3.6107 1.00641-2.6537-.77386-4.8687-2.52666-6.9611-4.25325-2.0414 1.48449-3.1107 5.32912-5.5412 5.33021-1.1105-.0303-1.9665-1.35428-2.1144-2.41359-.5196-3.7205 3.291-6.76516 4.8199-10.18708 1.2685-2.81315 2.5947-5.60276 3.7889-8.44757-.7341.18704-1.4317.48967-2.1266.80012-.9608.42918-1.9165.8733-2.9569 1.04759-.312-.0208-.6287-.12876-.9262-.29808-.9256-.52681-1.666-1.64765-1.5061-2.58578.568-3.33255 5.616-4.59084 8.7373-5.14939zm-67.8624 22.99243c.9299 1.28895.9668 5.5155-1.4254 4.55007-6.1725.11701-12.3683.13282-18.522-.42144-1.6082-.24127-6.4362-.54-4.9991-3.12011zm4.3643-7.70338c.7859 2.12223-.3242 5.19421-2.1893 4.86643-8.09.1073-16.1887.008-24.2704-.38033-1.8483-.23943-3.8415-.21498-5.5285-1.06476-.3786-.41177-1.321-1.32729-1-2zm-4.0743-15.88529c1.868 1.6843 2.0242 6.1994.3988 7.53501-3.3336 3.26032-8.3166 3.51593-12.7277 3.46845-2.7761-.12264-5.6951.28786-8.3006-.90082-.6477-.60259-1.0196-1.42952-1.2515-2.25832-.3538-1.26432-.086-2.66201-.156-3.93556-.1075-5.10538.6203-10.52825 3.9233-14.64692 1.664-2.11747 4.0487-3.63778 6.6718-4.29025 2.8722-.59392 6.3762-1.76238 9.2115-1.04662 1.8678.39671 2.7686 3.55988 2.4115 5.45154.027 1.71754-2.0318 3.46937-3.454 1.85584-.7508-2.09154-3.1209-2.12706-4.8395-1.902-3.5428.46396-7.3037 2.77541-8.6304 6.3576-1.0281 2.5113-1.0751 5.20531-1.0201 7.88799l-.9414 1.01794c3.1143 2.04307 9.6529 2.0903 13.9611 1.7821.4793-.69784.5515-1.73398 1.8809-1.42622-.4826-1.11709-3.3223-.23127-4.1683-1.70609-1.1343-.90041-1.6284-2.63328-1.1199-3.47726zm40.6439.20122-.8871 1.80562c.018.75022.33 1.67345 1 2 3.0621 1.49236 6.8855-2.67936 10.0151-2.03187 1.6675.16126 1.6491 4.4676.014 4.54033-2.0571.2731-4.1898.48658-6.0225 1.54859-1.5136.87708-2.9549 2.03604-3.8466 3.55344-.3286 1.50913-.4281 2.93455-.458 4.33257l-1.0183 1.16701c.6137 1.25731.2189 2.96602 9.8736.17642.3923.2745 1.2931 2.32721 1.3758 2.91132.4273 1.43123-.6428 2.90691-2.1207 3.06248-2.8875.51557-5.8382.37287-8.7597.46463-.47 1.12138-.8052 2.75172-2.3115 2.78766-1.6266.0364-1.6196-1.34591-2.0581-2.26771l3.3108-34.08999c.6452-.0215 1.128 2.17394 1.4105 3.35316.5206 2.1731.432 4.42701.4827 6.68634zm61.9382.84261-.8871 1.80562c.018.75022.33 1.67345 1 2 3.0621 1.49236 6.8855-2.67936 10.0151-2.03187 1.6675.16126 1.6491 4.4676.014 4.54033-2.0571.2731-4.1898.48658-6.0225 1.54859-1.5136.87708-2.9549 2.03604-3.8466 3.55344-.3286 1.50913-.4281 2.93455-.458 4.33257l-1.0183 1.16701c.6137 1.25731.2189 2.96602 9.8736.17642.3923.2745 1.2931 2.32721 1.3758 2.91132.4273 1.43123-.6428 2.90691-2.1207 3.06248-2.8875.51557-5.8382.37287-8.7597.46463-.47 1.12138-.8052 2.75172-2.3115 2.78766-1.6266.0364-1.6196-1.34591-2.0581-2.26771l3.3108-34.08999c.6452-.0215 1.128 2.17394 1.4105 3.35316.5206 2.1731.432 4.42701.4827 6.68634zm85.6905 1.16872-.8871 1.80562c.018.75022.33 1.67345 1 2 3.0621 1.49236 6.8855-2.67936 10.0151-2.03187 1.6675.16126 1.6491 4.4676.014 4.54033-2.0571.2731-4.1898.48658-6.0225 1.54859-1.5136.87708-2.9549 2.03604-3.8466 3.55344-.3286 1.50913-.4281 2.93455-.458 4.33257l-1.0183 1.16701c.6137 1.25731.2189 2.96602 9.8736.17642.3923.2745 1.2931 2.32721 1.3758 2.91132.4273 1.43123-.6428 2.90691-2.1207 3.06248-2.8875.51557-5.8382.37287-8.7597.46463-.47 1.12138-.8052 2.75172-2.3115 2.78766-1.6266.0364-1.6196-1.34591-2.0581-2.26771l3.3108-34.08999c.6452-.0215 1.128 2.17394 1.4105 3.35316.5206 2.1731.432 4.42701.4827 6.68634z" fill="#cdab8f" filter="url(#j)" opacity="1" stroke-width="1.07272"/></g><path d="m1386.1298 642.92111c.5252 3.22628.3924 6.50704.5565 9.75989 2.972-.59888 6.4762-1.17449 9.3998-.57218 1.5578.15002 1.4969 2.83796-.031 2.90562-1.9217.25405-3.9141.45263-5.6262 1.44054-1.414.81588-2.7604 1.89398-3.5935 3.30551-.5404 2.4715-.4174 4.70163-.4448 6.9763 2.1103.11835 4.1998-.20501 6.2843-.48033 1.2823-.30542 3.0675-.076 3.2905 1.49218.3992 1.33136-.6005 2.70408-1.9812 2.84879-2.6974.4796-5.454.34686-8.1832.43221-.4391 1.04315-.7522 2.55972-2.1594 2.59316-1.5196.0339-2.1101-1.47596-1.8737-2.75283.2817-1.30948-.6637-2.33746-.6942-3.57599.1348-2.96266.4888-5.9211 1.1059-8.82314.7287-5.55365.4639-11.23589 1.5929-15.1879 1.129-3.952 2.3588-1.3381 2.3571-.36183zm21.7648.29759c.5251 3.22629.3924 6.50705.5565 9.7599 2.9719-.59888 6.4761-1.1745 9.3998-.57219 1.5577.15001 1.4969 2.83797-.031 2.90562-1.9218.25404-3.9142.45263-5.6262 1.44054-1.414.81589-2.7605 1.89398-3.5935 3.3055-.5405 2.47151-.4175 4.70164-.4448 6.97631 2.1103.11835 4.1997-.205 6.2843-.48032 1.2822-.30543 3.0675-.076 3.2905 1.49216.3991 1.33137-.6005 2.70409-1.9812 2.84881-2.6975.47959-5.454.34685-8.1833.43221-.4391 1.04313-.7522 2.55972-2.1594 2.59315-1.5195.0339-2.11-1.47595-1.8736-2.75283.2817-1.30949-.6637-2.33747-.6943-3.57599.1349-2.96266.4889-5.92111 1.1059-8.82314.7288-5.55365.4639-11.23589 1.5929-15.1879 1.129-3.952 2.3589-1.33809 2.3572-.36183zm195.8483 24.58169c-.2949-1.81001-.7737 1.12398-.7861 1.73-.2216 1.2851-.5578 3.17846 1.4083 2.77272 1.1345.0337 2.2688.074 3.4032.11506.6595-1.4269 1.7058-3.02485.9656-4.60244-1.3008-1.22338-2.4163.92564-3.7193.987-.6619.11183-1.3532-.26626-1.2717-1.00233zm-4.7152-.74588c-.05-.92985-2.2393-.56059-2.8626-.30112.5995 1.06449 1.6065 1.83916 2.4583 2.70832.1188-.80628.1631-1.62587.4043-2.4072zm2.1559-17.85601c1.2616-1.32868 2.728.66681 2.7946 1.90646.4628 3.89685.062 7.82051-.2732 11.71222 2.234-.0476 4.4244.61838 6.4749 1.43892 1.8116.75121 3.2093 2.57605 2.9931 4.57384-.2109 2.79912-1.3031 5.98755-4.0518 7.26825-2.1959.64618-6.2129.29121-7.1904.39112-.5143 1.55743-.6507 3.39063-1.9629 4.52956-1.2409.75235-2.4346-.89173-2.2511-2.03923-.062-1.51734.1447-3.05904-.1211-4.55902-2.475-1.94551-4.7753-4.39313-5.484-7.53353-.1583-1.23694-.9353-3.24262.6-3.90452 2.3345-.50014 4.7472-.38538 7.1221-.53267.088-3.72245-.01-7.4551.3122-11.16752.137-.77287.4787-1.51929 1.0376-2.08388zm-24.787-.59888c1.1842-.73803 3.2169-.48208 3.7672.91002-3.2764 5.55143-9.1727 10.39062-12.9343 14.81566 4.7355 3.93742 12.1676 5.7205 17.1813 7.88015 1.2426.21278 1.8779 1.96273.5478 2.52543-5.4203 1.08076-11.0272-1.75812-15.2895-3.99344-2.3861-1.36162-4.8563-2.77599-6.6421-4.89385-.8237-1.0027.084-2.24569.5954-3.16594 4.1375-5.19346 7.519-10.7962 12.7742-14.07803zm-30.5876-3.50993c.5253 3.22629.3924 6.50705.5565 9.7599 2.972-.59884 6.4762-1.17453 9.3998-.57219 1.5578.15001 1.4969 2.83797-.031 2.90562-3.7345.46734-7.3195 1.62645-9.2197 4.74604-.5404 2.47153-.4174 4.70164-.4448 6.97631 2.1102.11837 4.1997-.205 6.2843-.48032 1.2822-.30543 3.0675-.076 3.2904 1.49217.3992 1.33136-.6005 2.70408-1.9811 2.8488-2.6974.47959-5.454.34685-8.1832.43221-.4391 1.04313-.7522 2.55973-2.1594 2.59315-2.2774-.85219-2.4705-4.41737-2.568-6.32882.1349-2.96266.4889-5.92111 1.106-8.82313.7287-5.55366.4639-11.23588 1.593-15.18789 1.129-3.95201 2.3588-1.33816 2.357-.36185zm-15.7215-11.22792c1.4102-.96239 3.8571-.0994 3.9591 1.67971-.1036 1.73924-2.3279 1.67384-2.8243 3.18401.053 1.64499 1.6814 2.71364 2.457 4.06952 1.2977 1.70739.7862 4.31701-.982 5.50923-1.7141 1.47057-3.1134 3.24297-4.5214 4.99036 2.1401.26594 4.6373.11839 6.2308 1.78677 1.4111 1.86655.7577 4.56974-.6886 6.23379-2.1351 2.86241-5.135 5.18878-6.4632 8.57377.1911 2.52294 5.6227 1.50278 7.2505 2.68652.8284.96863.4102 3.06839-1.1526 2.92563-3.2086.11304-6.4458.10038-9.6359-.29886-1.4557.0267-2.2463-1.27691-1.7719-2.54611 2.2005-5.70018 5.927-10.10966 9.1404-14.70644-2.7576-.37159-5.654-.20464-8.2792-1.2401-1.3366-.85063-.2424-2.79547.4042-3.82005 2.074-2.8762 4.6458-5.35116 7.0444-7.95862-1.1263-1.38572-2.3499-2.70365-3.3742-4.16312-.4794-1.44228.2749-2.97194.8782-4.27909.4968-1.1076 1.2512-2.03016 2.3287-2.62692zm-36.5233 15.0815c-.1009-1.20218 1.2545-2.41399 2.0354-1.01417.859 2.02869.3271 4.27864.3423 6.40288 1.7505.49847 4.0746-1.9373 5.7989-1.57013 1.3556.4188 1.6656 2.23836.4365 3.01195-1.9473 1.38223-4.0235 2.58905-6.1075 3.75898-1.0246.49956-.6067 2.04765-.9258 3.0108-.5145 3.49246-.974 7.06979-2.4053 10.33422-.5053 1.14168-1.6044 2.52724-3.0372 2.11895-1.2442-.26133-1.2519-1.69288-1.0772-2.67562.3327-3.39779 1.3638-6.67973 1.8897-10.04464-1.8896.54847-3.67 1.71956-5.7214 1.54004-1.1525.15426-3.0663-1.36186-1.4368-2.17733 2.7031-1.69413 5.5951-3.06728 8.3979-4.59084.5732-2.7082 1.1556-5.41524 1.8105-8.10509zm-27.807-4.94076c.525 3.22629.3923 6.50705.5564 9.7599 2.972-.59888 6.4762-1.17449 9.3998-.57218 1.5578.15001 1.4969 2.83796-.031 2.90561-1.9218.25406-3.9141.45264-5.6262 1.44055-1.414.81588-2.7605 1.89397-3.5935 3.30551-.5404 2.4715-.4174 4.70162-.4447 6.97629 2.1102.11836 4.1996-.205 6.2842-.48032 1.2823-.30543 3.0675-.076 3.2905 1.49218.3992 1.33136-.6005 2.70408-1.9811 2.84879-2.6976.47959-5.454.34685-8.1833.43221-.4391 1.04314-.7522 2.55972-2.1594 2.59315-1.5195.0339-2.1101-1.47595-1.8736-2.75282.2816-1.3095-.6638-2.33746-.6943-3.576.1349-2.96266.4889-5.9211 1.1059-8.82314.7287-5.55365.4639-11.23588 1.5929-15.1879 1.1289-3.952 2.3588-1.33809 2.3572-.36183zm-32.255 5.80345c1.1751-.1876 2.6531-.57686 3.5305.49377.707.93052.4033 2.22507.208 3.28789-.8914 4.19674-3.1461 8.5135-3.6733 11.90164 2.4004 1.26538 4.4804 3.02418 6.4492 4.8605.6831.75213 1.8889 1.73061 1.3301 2.85178-.5573 1.28105-2.2164 1.27185-3.3731.93619-2.479-.71987-4.5483-2.35037-6.5031-3.95649-1.907 1.38091-2.9059 4.95729-5.1765 4.9583-1.0374-.0282-1.9676-1.04049-1.5154-2.06395 1.0424-3.33326 2.6146-6.47436 4.0428-9.65752 1.1851-2.61687 2.424-5.21183 3.5396-7.85815-1.6338.41452-3.0739 1.43937-4.7489 1.71879-1.1985-.0795-2.0707-1.52711-1.3867-2.56673 1.9664-2.49634 4.3609-4.38644 7.2768-4.90602zm-85.0869 21.50266c1.2411-.82126 2.8475-.41473 4.2534-.41429 5.8035.3536 11.6391.499 17.3983 1.33118 2.0746.56996.9414 4.09928-1.2934 3.20121-5.7663.10885-11.5544.12356-17.3032-.39204-1.5024-.22442-4.9965-.23267-3.654-2.63276.144-.38768.3008-.79229.5989-1.0933zm.3051-6.76185c6.9577-.10115 13.9212.0658 20.8736.35214 1.8404.17558 3.8806.0786 5.5225.98979.7343 1.97415-1.237 2.97133-2.9794 2.66642-7.5576.0998-15.1234.008-22.6734-.35379-1.7266-.22272-3.5887-.19998-5.1646-.99047.2857-.97667.05-2.7559 1.896-2.48117.8389-.093 1.6823-.14101 2.5253-.18288zm10.9668-29.27526c2.6831-.55248 5.5253-.40136 8.174.26446 1.7449.36903 3.0178 2.07343 2.6842 3.8331.025 1.59771-1.8981 3.22731-3.2268 1.72636-.7014-1.9456-2.7127-2.30251-4.521-1.76929-3.4803.435-6.8232 2.58176-8.0625 5.914-1.3225 3.21651-.9073 6.75522-.8982 10.14499 4.0353-.0616 8.0835.084 12.1082-.2027.4478-.64915.5152-1.61299 1.7571-1.32671-.4509-1.03914-3.1037-.21513-3.894-1.58704-.7954-2.0619 1.2354-3.22374 3.0711-2.84157 1.6245-.0431 3.544.11142 4.4311 1.68467.8745 1.57542.9567 3.9064-.5617 5.14881-3.1143 3.03284-7.7693 3.27061-11.8901 3.22645-2.5934-.11409-5.3204.26777-7.7545-.83797-1.5686-1.45319-1.2078-3.83308-1.3148-5.76171-.1004-4.74916.5795-9.79366 3.6651-13.62495 1.5544-1.96973 3.7823-3.38396 6.2328-3.9909z" fill="url(#g)"/></g><g id="s" transform="translate(-1100.1603 -370.43812)"><g opacity=".75" transform="translate(0 -13)"><path d="m916.77845 428.85611c-5.1028.86412-8.41457 5.209-10.5429 9.41833-2.3351 4.61827-4.07156 10.98661-1.47601 15.46292 1.94923 3.36166 6.40473 4.32632 10.61319 4.77944.22551-4.81991 1.01532-15.11835 1.32259-22.67352.11709-2.87909.16411-5.35982.0831-6.98717zm2.81144-15.74406c1.54285-2.02166 3.72838.49006 4.5633 1.91596 1.36604 2.33295-.90843 4.84043-.90843 8.06465 3.26536.0449 6.20698.85781 8.99661 2.17886 2.59899 1.23077 5.91518 2.78387 7.97559 5.20117.97019 1.13823 2.7304 2.90837 1.82762 4.10105-1.56772 2.07113-6.32388.16276-7.69463-1.14904-3.12839-3.18049-7.81909-5.08192-11.59719-3.86573-.85644 9.23441-.47704 18.67423-1.68686 28.95783 3.10351.0479 6.30274-.21716 8.78575-1.89772 1.73108-1.17163 3.37373-3.04573 3.5143-5.20116.0209-2.43044 1.20246-3.694 2.74115-3.72516 1.49743-.0303 3.64388 1.45584 3.93665 3.10364-2.45186 8.69348-12.05648 12.54336-19.259 13.62443-.79267 2.73994-.7943 5.75386-1.33543 8.64518-.37486 1.82743-.17368 3.7461-1.58725 4.04095-.92182.19228-1.61127-1.30005-1.99734-2.00266v-10.75376c-3.97467-.52677-8.43359-.7065-11.5269-3.23315-3.48592-2.84733-6.181-7.27648-6.18517-12.01891 0-4.21716.93171-8.29646 2.5303-12.08919 1.40383-3.33066 3.30633-6.64365 6.04459-8.99661 3.04643-2.61776 6.7199-4.38545 10.89433-5.13088.70872-3.18225.52917-6.86096 1.96801-9.76975zm-41.39844 15.32234c2.03068-1.08592 7.47862-.87532 8.18251 2.21352.77039 1.96839-3.17962 1.84795-4.10592 2.91736-7.66595 8.44673-13.58181 13.75002-21.57781 22.56181 8.70285 4.11713 19.78714 8.81601 27.41154 13.00291 1.49944.89029 4.2465 3.61924 4.2465 4.18153-2.106 3.05651-8.50698-.0729-11.13452-1.44038-4.0916-1.90746-6.472-4.96825-10.5429-6.95831-4.44993-2.03524-8.23015-2.7344-12.93263-4.77945-1.87584-.89891-2.75703-2.24414-3.16287-4.07659 0-1.73372 1.87429-4.1703 5.62288-7.30974 4.04424-2.9298 7.52194-7.22541 9.84004-10.75376 3.37373-5.06059 6.09145-8.24689 8.15318-9.5589zm1.97057-5.33782c.20564.94114-1.6407 1.01237-2.39228 1.61267-2.11049 1.68567-3.88103 3.76232-5.90402 5.55259-3.81246 3.37387-11.12862 9.76976-11.73776 9.76976-1.23249-.30034-1.6879-1.19148-2.0383-2.24916 0-.984 1.99144-3.60801 5.97431-7.87203 4.02973-4.31087 5.3286-5.9911 8.71546-8.0126 1.17112-.699 6.84908-1.2429 7.38259 1.19877zm-49.76503 31.34365c-4.53127 1.40748-6.49522 5.28532-4.99031 9.34803 2.08163.70722 3.5817.49201 5.90402.49201-.68592-3.17033.40442-7.38626-.91371-9.84004zm-.21086-21.78867c-4.59022-.86247-16.84785 2.4215-11.38633 8.36405 4.29812 1.67274 7.15041 2.31532 11.63234 2.74115.16781-3.86688-.0804-6.79909-.24601-11.1052zm5.97202-14.57282c.67587 1.24027-1.04511 2.86601-.71856 4.17834.39127 1.57244.4397 4.84189.4397 4.84189 1.678.22956 4.02408.12947 5.86675.84381 2.50602.9715 6.43781 1.84898 6.67349 4.53258.10149 1.15562-1.37749 1.44413-2.48934 2.42536-1.07294.94688-3.0031.84851-4.28744-.0703-7.86258-5.94425-5.56829 4.74844-5.13086 9.62918.98695.36945 4.78491.23103 6.69517 1.49014 1.30826.8623 2.69404 2.60527 2.75248 3.81597-3.47868-.14663-5.8248.12822-8.53393 2.07388-2.46769 2.852-1.17464 8.21978-.98401 12.15948 2.13535.15084 4.73135-.31879 5.83374-1.26515-.5442-1.16214.13304-.984 1.26515-.984 1.26515 0 4.10592 2.16666 4.52763 2.49466.96564 1.4369-1.3506.95171-1.92704 2.42536-1.03086 1.54629-3.6783 2.5303-7.94232 2.95201l-2.10858.14057c-.22297 2.81552-.33211 5.88997-1.05429 8.43432-.42171 1.45258 1.93731 3.77985.59162 4.18153-2.36354.7055-2.37966-4.36499-3.13619-6.71839-.57555-1.79037-.85258-5.26488-1.04001-5.54603-2.86865-.85129-7.64231-1.58204-10.373-4.11222-1.00015-.92671-1.5413-2.33771-1.79672-3.67891-.57215-3.00429-.37128-5.78078.7131-9.14779.70826-1.70555 1.86777-2.56644 2.88172-3.93602-2.35375-.85683-3.30719.32684-5.38269-1.0196-3.55716-2.33286-6.61445-8.15934-6.63621-11.77245-.10812-3.88215 1.84518-6.92216 5.06059-8.08289 5.19836-1.33115 8.69618-1.31627 13.98691-1.54629 0 0-.43392-3.49701-.0883-5.19332.45138-2.21518-.12121-4.72221 1.61452-5.54903 1.5451-.73602 3.90671.49816 4.72692 2.00331zm-40.20127-1.45238c1.84775-.44624 4.82657.32613 5.27145 2.17886.44206 1.84097-3.05133 2.28546-3.68123 4.3182.10094 2.20342 2.27519 3.60586 3.3265 5.40873 1.74857 2.2644 1.11832 5.7708-1.2006 7.40062-2.24218 2.00204-4.06231 4.40269-5.89497 6.76969 2.8379.31743 4.94992.27158 7.1035 1.3572 1.2843.64742 2.91659 1.50856 3.17468 2.92646.39567 2.17372-2.14762 3.73323-2.97256 5.92105-1.71655 4.55245-6.52676 7.48929-8.22373 12.0496-1.22675 2.41254 2.34491 1.5542 3.64464 2.06211.45211.17668.92528.29249 1.40802.37952 1.56127.28147 3.2225.26187 4.59409 1.02654.8229.45877 2.72981 1.80591 2.52201 3.1457-.20861 1.34506-2.60168.90534-3.99472.79581-4.24549.2099-7.91337 1.93553-12.14365 1.45858-1.3195-.71714-3.6144-3.35398-3.00936-5.06341 1.33689-4.50948 4.19934-8.34502 6.63157-12.32564.4369-.71504.89769-1.41443 1.3714-2.10538 1.25395-1.82898 2.59844-3.59877 3.83013-5.44297-3.65714-.44779-6.31596.6279-9.80984-.71194-1.78483-1.11556-1.54396-4.54091-.70671-5.9257 2.69338-3.89207 6.05311-7.25547 9.18111-10.79329-1.51628-1.83645-3.95015-3.20775-4.54223-5.51745-.48432-1.88932.24355-3.99119 1.08451-5.75027.67338-1.40855 1.52145-3.19686 3.03599-3.56262z" fill="#533c2c" filter="url(#l)" transform="matrix(1.2325217 0 0 1.2340637 -199.84453 -105.61445)"/><path d="m918.77579 430.85877-2.08047 4.98451c-3.40644 1.72692-5.79814 5.14495-7.46376 8.43914-2.3351 4.61827-4.07156 10.98661-1.47601 15.46292 1.94923 3.36166 6.40473 4.32632 10.61319 4.77944.31145-6.65666 4.14965-32.01697.40705-33.66601zm4.25811-16.13015c2.20896-.32821 2.45553 3.83551 2.99601 6.00798.22048.88624.31916 1.77761.35217 2.6428l-1.13998 1.71592c2.17661 1.70471 7.20565 4.86313 9.99528 6.18418 2.59899 1.23077 5.07348 1.1388 6.8072 3.29424 1.12838 1.63667 1.33303 5.01425.57283 6.61609-2.1565 1.7067-3.9007-.44535-5.27145-1.75715-3.12839-3.18049-7.81909-5.08192-11.59719-3.86573-.68291 7.36338-.58005 14.85736-1.1237 22.8056l-1.56183 2.14691c4.29016 5.01556 12.7513 2.89182 13.29872-3.09356.0209-2.43044 1.17495-6.91189 3.68179-6.6295 2.2092.24886 1.85723 4.7787 1.8708 6.41864.0206 2.55321-1.46777 4.36207-2.88172 6.11488-1.50143 1.86125-3.44402 3.13944-5.69317 4.35773-3.2784 1.72167-6.08941 2.22504-9.5589 2.74116-.79267 2.73994-.7943 5.75386-1.33543 8.64518-.37486 1.82743-.86686 2.74115-1.47601 2.74115-.80992-.14559-1.30986-.39566-2.10858-.70286 0 0-.93167-2.63076-.99867-4.00532-.11072-2.2714.99867-6.74844.99867-6.74844-3.97467-.52677-8.43359-.7065-11.5269-3.23315-3.48592-2.84733-6.181-7.27648-6.18517-12.01891 0-4.21716.93171-8.29646 2.5303-12.08919 1.40383-3.33066 3.30633-6.64365 6.04459-8.99661 3.04643-2.61776 6.7199-4.38545 10.89433-5.13088 4.40426.30023-2.3086-13.45918 2.41601-14.16116zm-41.84644 19.71375c2.03068-1.08592 3.61328-5.34115 5.1865-3.79446.77039 1.96839-.18361 7.85593-1.10991 8.92534-6.63989 7.31617-11.96683 12.45682-18.46973 19.37892l-4.10675-.82243c4.24132 6.60754 22.0363 10.99488 29.6607 15.18178 1.49944.89029.99867 3.44303.99867 4.00532-2.106 3.05651-6.50964 1.92977-9.13718.56228-4.0916-1.90746-6.472-4.96825-10.5429-6.95831-4.44993-2.03524-8.23015-2.7344-12.93263-4.77945-1.87584-.89891-3.7557-6.24946-4.16154-8.08191 0-1.73372 2.87296-.16498 6.62155-3.30442 4.04424-2.9298 7.52194-7.22541 9.84004-10.75376 3.37373-5.06059 6.09145-8.24689 8.15318-9.5589zm-1.02543-11.3458c2.85933.31326 2.01115 6.19736.60372 7.62065-.84343.89029-3.88103 3.76232-5.90402 5.55259-3.81246 3.37387-11.12862 9.76976-11.73776 9.76976-1.23249-.30034-2.64561-4.9503-2.99601-6.00798 0-.984 2.94915.15081 6.93202-4.11321 4.02973-4.31087 5.3286-5.9911 8.71546-8.0126 1.17112-.699 3.35572-4.80921 4.38659-4.80921zm-47.7677 33.34631c-.77198.24383-.60504 4.76706-1.33238 5.16876-1.36253.7941-2.31605 1.37019-2.85798 2.68527l-.79995 1.494c-.21875 4.79466 3.72668 4.5067 6.90269 4.49733-.68592-3.17033-.59425-11.39158-1.91238-13.84536zm-.21086-21.78867-1.73675 4.08911c-3.31498.013-6.78607-.14623-9.7052.97051-1.12458.51543-1.68687 1.26515-1.68687 2.24916 1.00728 6.88491 9.67821 7.33988 14.3735 7.80174.16781-3.86688.40882-11.44139-1.24468-15.11052zm5.69316-5.55259c.39127 1.57244.99867 4.00532.99867 4.00532 3.35599.45912 7.7757-3.33885 9.54423-.63159.55726 1.43476 1.61852 7.45211.50667 8.43334-1.07294.94688-3.0031.84851-4.28744-.0703-1.81545-1.55463-3.26547-1.72038-5.48231-1.89772.042 1.94978.0156 3.93348.0748 5.89543l-.722 1.62615c.0283.93877.91113 3.07386.99867 4.00532 1.97389.7389 6.33476-3.12328 6.45164-.70187 0 1.12457.0147 5.78589-1.95334 5.97332-1.31201.18743-2.08515.49201-2.31944.91372-.18743.46857-.60914.86686-1.26514 1.19486-1.30756 1.5112-1.66768 3.73505-1.47852 6.06591l-.50416 2.08825c2.71782 2.01588 8.79357 1.90717 9.62918-1.75715.96564 1.4369 1.64541 6.95969 1.06897 8.43334-1.03086 1.54629-3.6783 2.5303-7.94232 2.95201l-2.10858.14057c-.22297 2.81552-.19837 4.48192-.92055 7.02627-.42171 1.45258-.54585 2.24888-1.40572 2.17887-.93926-.0765-.84409-1.69771-1.13241-2.59727-1.06717-3.32953-.92751-9.98061-2.17886-10.26176-.63309-.18787-.34991 3.12501-.95862 3.5393-2.39993-.46239-5.01224-.72199-7.10961-1.85341-1.78058-.98401-3.8804-6.25448-4.30211-7.80077.36619-4.95075 1.08157-11.15873 3.79544-14.76006-1.17687-.42842-3.5723 2.75083-4.87906 1.93332l-2.06898-1.29436c-3.55716-2.33286-4.98394-8.3923-5.0057-12.00541-.10812-3.88215 2.77869-4.34244 5.9941-5.50317 5.19836-1.33115 8.69618-1.31627 13.98691-1.54629 0 0-.43392-3.49701-.0883-5.19332.45138-2.21518-.015-9.75129 3.34543-9.55374 3.0799.18106 2.01272 6.20775 2.1565 9.22395zm-36.6483-10.29641c2.22588.1797 2.82871 3.62574 2.99601 6.00798-.10586 2.33257-3.05133 2.28546-3.68123 4.3182.10094 2.20342 2.20355 1.74131 3.25486 3.54418 1.74857 2.2644 1.18996 7.63535-1.12896 9.26517l-1.78748 2.11891-5.10616.64546c2.50226.94565 6.8442 1.53877 8.98397 3.74547 1.90187 2.47561.25893 7.97525-.67968 10.46456-1.22909 3.25972-4.04434 5.69109-6.16708 8.48325l-3.1476.88065c-1.22675 2.41254 3.43586 4.2399 4.73559 4.74781 1.91433.74809 3.314-3.87641 5.00344-2.59926 1.1143 1.28295 1.59732 8.10969-.47404 7.94683-4.24549.2099-8.53102.25181-12.7613-.22514-1.92658.0622-3.72994-3.29378-3.1249-5.00321 1.33689-4.50948 4.93253-6.7215 7.36476-10.70212 1.59341-2.6078 3.32951-8.70407 4.20286-11.55367l-5.82747 3.44031c-1.41237-.17035-2.81421-.43156-4.15605-.94613-.89242-.55778-2.26383-3.42235-1.82366-5.20878.64107-2.60179 5.4552-4.78083 5.87382-5.47323 2.69338-3.89207 1.31861-1.92284 1.71806-6.05826l-.38667-3.77144c-.8104-2.23764-.0575-4.84137.80748-6.6758.67338-1.40855 2.29248-7.63547 5.31143-7.39174z" fill="#cdab8f" filter="url(#m)" stroke-width=".810838" transform="matrix(1.2325217 0 0 1.2340637 -199.84453 -105.61445)"/></g><path d="m932.56657 413.09272c-6.28931 1.06638-10.37114 6.42824-12.99435 11.62282-2.87807 5.69924-5.01829 13.55817-1.81922 19.08223 2.40247 4.1485 7.89397 5.33895 13.08099 5.89813.38387-8.21474 2.09432-29.32496 1.73258-36.60318zm3.46516-19.42918c1.9016-2.49485 3.59771.0217 4.24482 1.99496.3796 3.70774.25989 6.34286.25989 10.32175 4.02462.0554 7.65023 1.0586 11.08851 2.68886 3.20331 1.51884 6.3528 3.75862 8.48965 6.41857 1.39075 2.01976 1.54336 3.83463.6064 5.8114-2.65793 2.10618-4.8077-.54959-6.49718-2.16843-3.8558-3.92493-9.63719-6.27141-14.29378-4.77056-1.05559 11.39585-.58797 23.04519-2.0791 35.73581 3.82515.0591 7.76827-.26799 10.82863-2.34191 2.13359-1.44586 4.1582-3.75862 4.33145-6.41856.0258-2.99932 1.48206-4.55863 3.37853-4.59709 1.84561-.0374 3.44843 2.31308 3.46516 4.33687.0254 3.15083-1.80906 5.38308-3.55178 7.54616-1.85055 2.2969-4.24483 3.87426-7.01696 5.37771-4.0407 2.12465-7.50533 2.74584-11.78155 3.38277-.97698 3.38126-.97899 7.10063-1.64595 10.6687-.46202 2.25517-1.06842 3.38275-1.81921 3.38275-.99824-.17966-1.61443-.48827-2.59887-.86737v-13.27082c-4.89887-.65007-10.39458-.87187-14.20716-3.98992-4.29647-3.51378-7.61821-8.97964-7.62335-14.8321 0-5.20424 1.14835-10.23836 3.11865-14.91883 1.73025-4.11025 4.07512-8.19869 7.45009-11.10239 3.75479-3.23048 8.28242-5.41192 13.42749-6.33183.87352-3.9271.65222-8.46686 2.42562-12.0565zm-51.02448 18.90875c2.50286-1.3401 5.68433-1.6485 7.62336.26021.94952 2.42912-1.45719 4.7519-2.59887 6.07162-9.44845 10.4238-16.73988 16.9684-26.59512 27.84271 10.72645 5.0808 24.38808 10.87952 33.78532 16.04642 1.84809 1.09868 2.77214 1.99496 2.77214 2.68887-2.59569 3.77192-8.02328 2.38145-11.26178.69388-5.04298-2.35392-7.97688-6.13113-12.99435-8.58699-5.48463-2.51162-10.14384-3.37443-15.93975-5.89815-2.31201-1.10931-3.3981-2.76941-3.8983-5.03077 0-2.13952 2.3101-5.14642 6.93032-9.02069 4.98461-3.61555 9.27095-8.91661 12.12806-13.27082 4.1582-6.24509 7.50785-10.17719 10.04897-11.79629zm-1.90583-9.71459c3.52418.38658 3.12076 3.36109 1.38607 5.11752-1.03955 1.09867-4.78346 4.64294-7.27684 6.85225-4.69894 4.16357-13.71626 12.0565-14.46704 12.0565-1.51907-.37064-2.08037-1.47036-2.51225-2.7756 0-1.21432 2.45449-4.45252 7.36347-9.71459 4.96673-5.31989 6.56761-7.3934 10.74199-9.88806 1.44343-.86261 3.49403-1.64802 4.7646-1.64802zm-57.00188 41.80744c-2.21505.70049-4.41417 1.90219-5.97741 3.7297-1.06473 2.70879-1.177 5.20412-.17325 7.80636 2.56565.87276 4.41452.60718 7.27683.60718-.84541-3.91239.49846-9.11512-1.12617-12.14324zm-.25988-26.88861c-5.01568.35406-10.72476-.46419-15.33334 1.30108-1.38607.63607-2.0791 1.56127-2.0791 2.7756.0599 2.4656 1.47515 5.12698 3.37854 6.24509 5.29752 2.06427 8.81303 2.85726 14.33711 3.38276.20683-4.77198-.0991-8.39051-.30321-13.70453zm2.94538-21.25066c3.68419-.10922 2.79512 5.46774 3.52962 8.42321.48225 1.94049.54194 5.9752.54194 5.9752 4.13633.56659 10.8146.82247 12.99435 4.1634.68684 1.77059.76398 4.25356-.6064 5.46446-1.32242 1.16851-3.70139 1.04711-5.28436-.0868-2.23758-1.91851-4.02476-2.12305-6.75707-2.3419.10168 4.72874-.006 9.54428.43317 14.22493 2.43286.91185 9.03861 1.08849 9.18267 4.07666 0 1.38779-1.2128 2.19734-3.63842 2.42864-1.61708.2313-2.56999.60717-2.85876 1.12759-.23101.57825-.75077 1.06976-1.55931 1.47453-3.04148 3.51955-1.44777 10.14374-1.21281 15.00558 2.63186.18614 5.83149-.39341 7.19021-1.56128-.67074-1.43415.16397-1.21432 1.55932-1.21432 1.55933 0 2.59887.20239 3.11864.60716 1.19017 1.77323.79712 3.64588.0866 5.46446-1.27056 1.90822-4.53359 3.12255-9.78908 3.64297l-2.59888.17347c-.27481 3.47453-.40933 7.2686-1.29943 10.40849-.51977 1.79257-1.0973 2.68886-1.73258 2.68886-1.82963-2.33111-1.85217-6.04158-1.99247-8.24005-.23101-2.60212-.46201-4.07666-.69302-4.42361-3.53568-1.05055-7.85803-1.07068-11.17515-2.86233-2.19461-1.21433-3.5518-2.7756-4.07157-4.68382.0929-4.38178-.21034-9.20245 1.12618-13.35756.87295-2.10476 2.30207-3.16715 3.55179-4.8573-2.90105-1.05738-6.53795-2.06812-9.09605-3.72971-4.38428-2.8789-5.69069-7.59768-5.71751-12.05649-.13326-4.79082 2.27423-8.54239 6.23729-9.9748 6.40709-1.64273 10.71823-1.62436 17.23917-1.90822 0 0-.53482-4.31554-.10883-6.40889.55633-2.73368.001-6.82479 3.40066-7.64257zm-45.13368 1.47455c2.27739-.55069 6.29098-.25099 6.49718 2.68885-.13048 2.87854-3.76083 2.8204-4.5372 5.32893.12441 2.71916 2.80422 4.44986 4.09999 6.67472 2.15515 2.79441 1.37835 7.12153-1.47977 9.13283-2.76354 2.47065-5.00688 5.4332-7.26568 8.35423 3.49778.39173 7.569.0917 10.20632 2.8149 2.34409 3.05506-.0451 6.7064-1.20198 9.77837-2.11566 5.61802-8.04438 9.24226-10.13593 14.86997-1.51199 2.97723 2.89015 1.91798 4.4921 2.54477 2.35945.9232 5.31546.15909 7.39773 1.73517 1.3734 1.58324.73785 5.06506-1.81515 4.86408-5.23266.25903-10.51466.31075-15.72858-.27784-2.37455.0768-3.69356-2.06121-2.94783-4.17075 1.64775-5.56499 5.17578-10.29829 8.17355-15.21063 1.96392-3.21819 4.31942-6.17951 6.411-9.31514-4.5075-.5526-9.2295-.2114-13.53579-1.86485-2.19984-1.37667-.45801-4.6175.57392-6.32642 3.31965-4.80307 7.46059-8.95372 11.31591-13.31961-1.86884-2.2663-4.86864-3.95857-5.59839-6.80889-.59694-2.33154.30018-4.92538 1.33668-7.09619.82995-1.73825 1.87522-3.94513 3.74192-4.3965z" fill="url(#n)"/><g fill="#b57720" opacity=".75" stroke-width="4.25689" transform="matrix(.88786002 0 0 .88786002 639.44143 308.42921)"><path d="m236.19922 199.00781c-7.80919-.36415-15.37668 1.42799-5.82031 7.3418 14.9152-3.10492 30.51382 1.30305 43.05078 9.28516-6.71103-12.92376-24.07428-15.72782-37.23047-16.62696zm-43.23828 11.47461c-8.43635.78714-28.98896 4.81643-28.42471 8.86072 13.21686 6.88639 27.65204-7.20299 42.02893-1.58808 19.24525 5.84698 34.33068 20.33 50.30307 31.72672-.15481-5.72603-18.05556-16.06698-25.54966-22.53693-11.42633-7.9535-23.68966-17.11392-38.35763-16.46243zm52.7832 9.18164c6.92549 6.93332 12.01588 15.87609 19.40094 22.14321-2.58923-7.91508-11.9013-19.43975-20.30133-24.66469zm-55.82617 22.58594c-33.691 8.72447-60.22752 35.55107-73.10146 67.298-13.50196 29.63026-10.04185 63.14093-4.89896 94.28048.12479 7.31907 5.96498 22.53363 11.36233 21.88377-8.19577-23.10815-9.55317-48.1069-9.57864-72.43881 2.85382-37.12825 23.67391-71.71125 52.10588-95.13627 8.22334-7.37101 18.94427-10.98891 28.39412-15.84029-1.4729-1.04715-2.86941-.35131-4.28327-.0469zm71.54297 2.96875c-1.82531 8.4987-1.59365 3.9719-8.05006 12.04303-4.34052 7.80269-20.8901 8.24091-22.42858 12.55266 8.93449 10.72767 27.47777-4.5968 33.53678-13.84838 9.03478-12.04668 30.373.86973 43.46159 3.13534 5.65767.57733 23.26873 15.49731 14.13905 4.12889-15.06504-12.77875-35.70949-16.40262-54.79148-18.56161-1.22418 1.23011-5.44979-2.02869-5.8673.55007zm25.88867 33.10547c5.76362 8.1041 2.31917 17.52382-8.25116 12.10676-4.71708-1.7748-14.71644-8.35601-6.93668.0952 9.46841 11.05375 33.14065 9.82667 21.76893-8.29105-.19071-2.1896-12.60365-12.30366-6.58109-3.91089zm-47.76172 10.20312c3.36705 10.22984 1.2544 20.55438-4.90234 29.83204 8.51483 21.9671 22.36196 41.69117 39.26367 58.02148 4.98156-.87548-8.46246-10.9182-10.86816-15.91993-8.76601-11.82245-17.53371-24.70737-21.71778-38.74609 8.5868-11.00469 7.66949-25.32039-1.16992-36.00195zm100.48828 5.93555c11.00497 11.66359 25.97832 20.23205 42.0432 22.00654-2.775-10.37955-16.64093-6.31878-23.92513-12.61275-5.36384-.76853-18.8063-15.29615-18.11807-9.39379zm-41.92578 11.79102c-14.5259 6.4281 2.1106 19.79862-.42495 29.79074.34832 7.79808 15.24801 18.00555 6.69773 5.33552 3.90921-11.50697-12.88218-19.00284-2.55192-30.01979 7.2005-3.41391-.42866-4.66599-3.72086-5.10647zm19.70117 13.02929c5.19059 9.71132 4.22102 8.54763 7.43555 17.88282 5.13721-7.41245-5.62439-23.14269-8.35547-19.66993zm-12.38476 1.13672c1.65734 8.41967 25.20413 10.184 8.7451 3.49975-2.44872.6304-12.76485-12.35532-8.7451-3.49975zm-24.70313 12.3418c5.12921 5.59225 12.00497 2.22174 2.44615-1.04024-2.69812-1.7911-5.86343-3.23994-2.44615 1.04024zm55.47071 2.375c4.12991 5.48502 11.80219 24.34683 8.38982 7.4495 1.10638-3.53095-13.71068-15.68711-8.38982-7.4495zm-25.07422 4.05469c2.57151 9.15561 22.63492 9.91841 23.80891 7.19394-6.1151.0835-24.59048-12.14034-23.80891-7.19394zm55.64843 7.46289c6.08514 8.13602 5.83229 18.64826 8.56055 27.97461 7.04136-9.19282-2.88601-31.71092-9.30795-29.44346zm-58.29101 2.23437c-4.53709 5.08165 4.99208 24.3864 9.39999 20.26836-8.20191-6.74629 1.54791-19.83319-9.39999-20.26836zm-23.0918 2.91406c3.44492 10.27641 18.74898 1.72366 16.08062 11.91507-.29254-4.20294 5.02599-7.46161 3.81099-7.37893-3.49986 1.12996-19.79853-8.22631-20.92089-6.23633l1.02929 1.70019zm36.75781 10.84375c3.9702 11.47251 25.58719 6.01932 24.93192 2.02595-8.02236 1.97248-24.50905-4.43339-26.05887-3.83845zm-18.54297 15.22461c6.15871 13.87509 22.80234-.88442 27.98226 9.44882 8.89599 7.34152-1.51659-6.75522-.60374-10.41078-7.52375-4.63332-3.48324 2.11052-6.52909 2.87469-6.8347.2415-19.04675-3.36462-21.45685-3.38734zm35.29883 2.56641c2.67236 5.26137 17.03461 12.76544 17.9758 10.05203-2.34305-2.45675-20.77325-16.83954-17.9758-10.05203zm-8.63281 11.02148c-8.51143.11184 3.84131 11.52666 8.20288 3.88418 12.96399-6.57116-4.62677-2.49178-8.20288-3.88418zm-103.99609 27.38086c13.03883 15.135 32.27466 21.48252 49.85937 29.50196 17.44979-.89151-12.12807-8.51823-17.84097-12.68716-12.36726-3.90007-22.57473-12.28015-32.94028-19.27573z" fill="#533c2c" filter="url(#l)" opacity="1"/><path d="m230.00195 206.02344c5.87934 5.00433 12.31778 10.24007 17.63039 15.30308 3.07927 5.70454 5.56387-1.61794 1.32664 1.2516-1.02734-3.94314 2.59261-.25231-1.64695-4.26598-2.52104-3.67961 1.01636 2.72656-2.82375.0746.99282-5.01669-10.17694-11.8979-15.51172-14.66797zm44.66211 12.55078c5.54354 6.71626 14.71023 18.02951 15.01877 23.47561-9.11833-1.57782-18.31419-3.12704-27.6008-2.95414 5.48948 11.00044 20.16067 5.00163 30.25794 9.00166 14.08548 5.04167-1.55266-11.35555-4.12812-17.06941-3.31693-4.37484-10.82903-15.75287-14.04584-13.73986l.49805 1.28613zm-104.77539 1.68164c11.74243 8.07522 26.17456 12.52333 38.38065 20.30931 12.87012 7.32296 23.40883 18.00801 34.4803 27.60162 5.2849-5.75988 17.8909-10.92265 18.3968-17.06702-6.80067-8.99186-14.95972 7.12209-22.37494 10.17757-13.6054-13.10698-28.23595-25.65258-46.06372-32.58559-7.51007-2.7199-14.86639-7.89258-22.81909-8.43589zm58.30664 46.34961c1.44888 4.76201 13.13392 11.67592 6.78056 3.73375-1.04141-1.56692-9.60461-10.17877-6.78056-3.73375zm98.72461 4.74023c5.41763 8.38117 7.53901 19.03057 15.65461 25.71636 8.57225 4.82927-5.60481-9.67329-5.18634-14.22295 1.66446-3.1619-14.33624-20.30311-10.46827-11.49341zm-54.04883 1.90821c-6.01301.1037-14.7592-.0366-7.78916 7.59892 4.01352 7.8402 11.14348 15.4613 20.44541 16.05342-4.07946-4.60931-17.2669-13.22898-13.74124-16.96187 7.06453-3.20123 20.71468 3.53964 22.42933 2.88117-3.7378-8.01163-13.35652-9.88944-21.34434-9.57164zm-33.28515 15.28906c-2.45563 8.92557-1.64178 23.52866-14.48474 18.94293-14.99817-.1208-26.41413 13.28023-28.13697 27.4735-4.20401 30.13809 8.56467 60.92932 28.61192 83.13094 3.18223 5.29521 10.93722 7.24846 3.67745.25158-18.38678-21.7259-30.37774-51.15851-25.89422-79.88294 1.81761-12.93872 12.30781-25.07973 26.13741-24.73832 7.73903 1.39502 13.42376.95897 13.56581-8.63218 4.33531-5.31807.18859-18.29557-3.18369-18.01133zm57.80468 17.71875c-12.11186.48827-24.88662 16.44819-15.97831 27.24362 6.69306 4.46246-2.68435 19.36517 9.21099 23.31925 5.79704 4.04963-3.44999-9.26331-1.97484-13.46127-.67482-7.82725-.74761-14.21575-3.81209-9.30979-3.36901-14.05241 11.53274-19.50357 20.3648-25.39923-2.30728-1.53346-4.98083-2.62935-7.81055-2.39258zm80.63909 59.08279c-5.62999 6.27797-3.08217 10.14916 1.75822 2.29762 7.394-7.67871 14.59903-17.54569 11.90708-28.86927-1.57903-10.2581-6.96113-19.38227-13.43134-27.37636 10.16433 16.2239 10.13948 37.98487-.23396 53.94801zm-66.72502-49.49881c-12.88691-3.04838-.41703 15.22001.43216 8.76916 1.56955-8.8824 21.55211 7.82339 10.78021-4.36843-2.79915-3.12465-7.09776-4.52132-11.21237-4.40073zm7.18359 10.86719c-12.28932 3.00949-6.61781 20.00691-.0382 18.68729-5.29017-5.78127 4.88945-20.06224 1.65445-20.05252zm10.64453 4.50586c-5.18266-.17616-11.2127 2.93679-2.49314 3.16478 10.28518-.90476 16.24409 8.31231 18.51631 14.82997 9.84691-.53379 20.71287-2.2827 29.40652 3.45838-3.7386-14.4651-23.09728-8.9324-29.42256-8.28273-1.47388-7.46759-8.15102-13.63564-16.00713-13.1704zm4.09961 14.83398c-9.0054 4.01719-18.76376 15.07759-5.77164 21.76481 6.00438 3.8189-5.1569-8.16144 2.46027-10.61041.34408-2.4688 11.83033-18.81134 3.31137-11.1544zm-24.33984 4.9336c2.92727 7.29108 9.88758 2.19899 2.6151-.8166-2.29008-1.81659-5.46748-3.03266-2.6151.8166zm-7.23242 5.45898c-3.50906 10.21927-.75268 24.11275 10.43554 28.11524-7.51803-7.34633-6.62434-26.09391-9.72461-29.6836zm43.6289 8.64063c-7.08367 6.07995-7.86991 22.07555.69939 20.67016-4.06615-6.22737 3.65789-20.09617.34697-21.86841l-1.04688 1.19825zm-74.50586 8.00976c12.96814 14.69248 27.35928 30.28393 46.65103 36.13874 13.82086 2.2203 30.45478 1.78011 39.80661-10.37631 8.08118-3.63384 2.78245-10.8803-3.08442-8.40446-8.4531 12.09022-24.79285 18.17529-38.67803 12.25603-17.41539-6.14158-31.14103-19.33308-44.2157-31.61793-2.50959-1.97745-.31946 1.33615-.47949 2.00393zm49.11133.78516c9.8344 4.07446 1.5615 24.25409 14.23242 23.36719-2.43904-6.94682-10.39902-18.94781-2.31479-16.02782 1.14862-6.61115-8.74806-6.26519-13.01866-9.9133l.55051 1.28696zm5.75977 3.67773c-1.23204-1.16008.88506-1.23168 0 0zm10.51172 13.83985c6.88852 7.20727 5.96955-2.09125-1.39258-2.96094l.69629 1.48047z" fill="#cdab8f" filter="url(#m)" opacity="1" stroke-width="1.1263"/></g><path d="m239.23438 204.17383c-3.96918.2041-8.51368.98242-8.51368.98242s13.09218 10.57294 18.88086 16.64648c5.43044 5.69768 14.74805 18.44141 14.74805 18.44141s1.64789.009 2.4668.0234c8.98793.19427 26.47461 3.58203 26.47461 3.58203s-12.87127-23.92901-23.60547-31.45313c-7.66517-5.37287-17.55804-7.16816-26.86328-8.18554-1.00555-.10994-2.26484-.10515-3.58789-.0371zm-43.29297 11.46679c-8.16036.2707-23.85938 5.54297-23.85938 5.54297s26.74962 10.43931 38.76953 18.1211c10.22834 6.53682 27.84961 23.46289 27.84961 23.46289l18.13672-14.33789s-28.02624-23.52366-44.74609-30.15235c-5.07052-2.01023-10.69893-2.81755-16.15039-2.63672zm.44531 26.25391c-19.61118 3.36265-39.43821 20.08076-52.75781 36.91016-17.44431 22.04097-30.90774 50.24591-31.17579 78.35351-.1555 16.30817 2.7068 51.94265 8.97461 66.61963 2.70247 2.44957 5.47492 4.84341 8.38086 7.12304 31.09853 24.39588 73.54282 17.88233 120.23633 17.88233 8.93883 0 17.71733-.55219 26.29492-1.59961l-17.81054-8.00976c-66.48659-24.07282-85.97064-141.52933-23.32227-129.78125 2.90445-7.04665 5.48242-20.62891 5.48242-20.62891s6.19441 10.20008 6.1836 15.88086c-.0121 6.34636-4.83694 11.88464-6.97657 17.71485 16.33911 42.4073 56.60268 79.94495 84.32618 83.67968.45524.0151.94736-.001 1.46875-.0449 8.46553.51492 17.84039-2.09983 25.97461-11.0957l3.97265-4.39453-5.21094-2.81446c-3.23723-1.74871-7.11021-3.52961-9.03906-5.43554-.96415-.95324-1.3895-1.72627-1.52929-2.58399-.14022-.85818-.0647-2.10297 1.10937-4.26758l5.31055-9.77929-10.6875 3.0957c-3.13629.90796-8.60998-1.50828-11.55469-5.32813-1.47265-1.91039-2.19406-3.93385-2.18359-5.39453.0113-1.46164.35994-2.54867 2.36328-4.0039l9.67773-7.02735-11.88281-1.35351c-4.9621-.56565-8.14409-3.31323-9.53711-6.11719-1.39401-2.80293-1.15069-5.01615.68359-6.62109l6.07227-5.3125-7.64063-2.58985c-3.34173-1.13231-5.12199-3.75775-5.15234-5.28906-.0151-.68307.11782-1.32609.91602-2.22656 5.43775-1.18904 10.57667-.22493 13.9746 3.16992 3.06165 3.05767 4.15379 7.5277 3.47071 12.35547 4.2537-1.12134 8.45038-.80453 11.99609 1.24023 4.64671 2.68006 7.28601 7.80625 7.79492 13.91211 7.56809-5.04071 15.99533-6.33 22.51758-2.56836 7.69492 4.43777 10.62746 14.68305 8.36133 25.7461 11.93616-16.59427 17.20818-37.66912 2.79492-59.91407-23.24644-2.20996-40.643-15.26254-46.41406-33.65234-2.50046-7.96803-10.58986-14.26262-20.91602-18.80273-14.81566-5.33061-27.6685-8.579-41.0957-9.22852-1.12145-.008-2.24825-.0409-3.34375-.0469-4.74473 11.37995-14.25897 19.85046-28.57422 22.9121l-2.93945.62891-1.77735-2.41992c-7.07254-9.61677-20.51268-20.12601-36.8164-28.89258zm77.7168 32.46875c13.89407-.0381 22.32649 5.77867 20.9414 22.11328-17.83258 1.68654-25.83815-8.29922-31.38086-21.20898 3.73477-.57464 7.23278-.89556 10.43946-.9043zm24.08398 33.01563c1.84428.0345 3.55259.49395 4.98242 1.39843-.75122.54826-1.44246 1.13537-2.07031 1.76368-2.60988 2.60695-4.02219 6.03074-3.95703 9.32421.0911 4.63775 2.62013 8.54808 6.30664 11.22266-1.56215 4.03125-1.21868 8.68379.70117 12.54688 1.89702 3.81489 5.24241 7.10212 9.60156 9.15429-.7189 1.67467-1.18092 3.41336-1.19336 5.13867-.0302 4.18254 1.68092 7.98051 4.11524 11.13868 3.37908 4.38304 8.3892 7.92807 13.94336 8.91015-.0907 1.08461-.10137 2.15568.0664 3.1875.52241 3.2059 2.24706 5.80263 4.16993 7.70313 1.69651 1.6766 3.57608 2.92938 5.37109 3.97461-3.15666 2.38408-6.17521 3.51181-9.26172 3.87695-3.24125-3.9487-4.83085-9.49428-4.68164-15.64844-5.8541 3.07306-12.04437 3.56051-16.97461.7168-7.29739-4.20892-9.64808-14.44716-6.56055-25.04102-5.63973 1.3781-11.01057.45764-14.52148-3.05078-4.41536-4.41036-4.74346-11.75261-1.53906-18.8789-1.8288-.30614-3.46369-1.07844-4.73828-2.35157-4.38203-4.37706-2.87212-12.98002 3.37109-19.21679 3.90194-3.89794 8.72838-5.94773 12.86914-5.86914z" fill="url(#p)" filter="url(#o)" transform="matrix(.88786002 0 0 .88786002 639.44143 308.42921)"/></g><g stroke-width="1.19565" transform="matrix(.83405001 -.06216683 .06216683 .83405001 25.960412 57.034682)"><path d="m157.20489 500h302.05313l-121.04227-343.10143-302.01899 1.24002z" fill="#533c2c"/><g stroke-width=".85206" transform="matrix(1 0 0 1.9691051 0 -400.9766)"><path d="m453.83594 449.19464-.38672-10.4837-8.59766-13.88477 27.29102-9.77539-13.44922-19.97461c1.25441-.78817 8.36721-6.78158 9.83398-7.54492l10.39649-9.02344-14.7961-8.99414-267.18222.26238-13.92814 5.23342c-14.26047 9.17949-22.88619 22.10014-28.28319 34.13741-5.84302 13.03206-6.83917 30.83075-3.9058 40.04776h285.05709z" fill="url(#c)"/><path d="m185.44687 378.5078c-20.19528 14.52776-27.35765 22.67153-33.18759 35.40129-5.24704 11.457-2.9871 25.49789-.88254 35.28554l284.50803-.002c-2.63093-3.21863-.14649-10.48172-.14649-10.48172s-9.01545-9.93202-9.4043-14.98242l-15.70898-6.51563 36.39648-10.27148-13.37695-10.75782c4.60204-6.77626 11.55559-12.56353 21.37891-17.67578z" fill="url(#a)" filter="url(#b)" opacity=".75"/></g><path d="m32.386722 212.50781c35.085126 95.69425 70.178928 191.86173 105.437498 287.49219h33.58789s-3.57243-10.84692-4.43164-16.46538c-1.84357-12.05527-1.98765-24.37111-1.48438-36.55614.61201-14.81777 1.44257-29.87978 5.46485-44.1543 5.09183-18.07019 11.84933-36.3932 23.28296-51.28383 2.30221-2.99828 8.76562-7.19532 8.76562-7.19532l-5.85857-16.61124-109.342694-310.027186-5.866026-16.539533-16.219352 3.714086c-12.282597 6.023416-20.237662 16.900728-27.646706 27.612984-7.001421 10.1229-11.628585 21.872805-15.197266 33.652343-5.54455 18.301509-8.290904 37.505456-9.375 56.597656-.846098 14.90078-2.061664 32.33213 2.269533 44.7168 5.54026 15.0147 11.076107 30.03103 16.613283 45.04687z" fill="#533c2c"/><g clip-path="url(#f)" stroke-width="1.19565" transform="translate(0 -34.162786)"><path d="m32.386722 212.50781c35.085126 95.69425 70.178928 191.86173 105.437498 287.49219h33.58789s-3.57243-10.84692-4.43164-16.46538c-1.84357-12.05527-1.98765-24.37111-1.48438-36.55614.61201-14.81777 1.44257-29.87978 5.46485-44.1543 5.09183-18.07019 11.84933-36.3932 23.28296-51.28383 2.30221-2.99828 8.76562-7.19532 8.76562-7.19532l-5.85857-16.61124-109.342694-310.027186-5.866026-16.539533-16.219352 3.714086c-12.282597 6.023416-20.237662 16.900728-27.646706 27.612984-7.001421 10.1229-11.628585 21.872805-15.197266 33.652343-5.54455 18.301509-8.290904 37.505456-9.375 56.597656-.846098 14.90078-2.061664 32.33213 2.269533 44.7168 5.54026 15.0147 11.076107 30.03103 16.613283 45.04687z" fill="url(#i)" transform="translate(0 34.162786)"/><use stroke-width="1.19565" transform="matrix(.34495892 .93861778 -.41035966 1.7823256 345.25018 -231.55835)" xlink:href="#r"/><path d="m32.386722 212.50781c35.085126 95.69425 70.178928 191.86173 105.437498 287.49219h33.58789s-3.57243-10.84692-4.43164-16.46538c-1.84357-12.05527-1.98765-24.37111-1.48438-36.55614.61201-14.81777 1.44257-29.87978 5.46485-44.1543 5.09183-18.07019 11.84933-36.3932 23.28296-51.28383 2.30221-2.99828 8.76562-7.19532 8.76562-7.19532l-5.85857-16.61124-109.342694-310.027186-5.866026-16.539533-16.219352 3.714086c-12.282597 6.023416-20.237662 16.900728-27.646706 27.612984-7.001421 10.1229-11.628585 21.872805-15.197266 33.652343-5.54455 18.301509-8.290904 37.505456-9.375 56.597656-.846098 14.90078-2.061664 32.33213 2.269533 44.7168 5.54026 15.0147 11.076107 30.03103 16.613283 45.04687z" fill="url(#d)" transform="translate(0 34.162786)"/></g><g stroke-width="1.19565" transform="translate(0 -34.162786)"><path d="m185.44687 378.50782h302.05313l-121.04226-344.345034-284.51551 1.167071c-5.40642 1.238028-10.812932 2.476057-16.219352 3.714086z" fill="#533c2c"/><g clip-path="url(#e)" stroke-width="1.19565"><path d="m185.44687 378.50782h302.05313l-121.04226-344.345034-284.51551 1.167071c-5.40642 1.238028-10.812932 2.476057-16.219352 3.714086z" fill="url(#q)"/><use stroke-width="1.19565" transform="matrix(1 0 .34898487 1 455.99042 50.773423)" xlink:href="#s"/></g></g><path d="m366.45703 0s-278.648774 1.1438847-284.515624 1.1679688c-5.86685.024084-7.94918.9741392-16.21875 3.7128906s-20.881196 16.8184866-27.646484 27.6132816c-6.536223 10.429295-11.628591 21.872829-15.197266 33.652343-5.544538 18.301473-8.290906 37.505496-9.375 56.597656-.846096 14.90076-2.061657 32.33215 2.269532 44.7168 5.540248 15.01466 11.076115 30.03107 16.613281 45.04687 35.085056 95.69407 70.178991 191.86193 105.437501 287.49219h33.58789 287.8457l-5.80859-16.46484h-17.56445-268.9043c-1.84357-12.05525-1.98765-24.37165-1.48438-36.55664.61201-14.81775 1.44257-29.87982 5.46485-44.1543 5.09181-18.07015 11.84959-36.39261 23.2832-51.2832 2.30221-2.99828 8.76563-7.19532 8.76563-7.19532h284.49023zm-11.70312 16.609375 109.37304 310.025395-266.97656 1.09961-109.341796-310.027349zm-283.839848 2.988281 6.929688 21.546875 5.917969 16.757813 85.414061 241.287106 5.84961 16.58985 7.99609 21.6914c-7.96789 12.96355-14.15139 22.84871-18.94726 35.31836-6.34603 16.50015-10.57306 33.94083-12.70508 51.49024-2.3823 19.60753-1.38596 44.66303.008 59.25586l-2.39453-.002-13.50995-36.63472-10.75586-29.2168-77.312503-210.69726-12.693359-34.41993-3.892579-10.54883c-3.579356-9.95375-2.408426-62.00209 7.232422-90.789058 6.478446-19.344232 19.35686-45.005322 32.863281-51.628906z" fill="#533c2c"/></g></svg>