<svg height="500" viewBox="0 0 132.29167 132.29167" width="500" xmlns="http://www.w3.org/2000/svg" xmlns:xlink="http://www.w3.org/1999/xlink"><linearGradient id="a"><stop offset=".2"/><stop offset=".78864086" stop-opacity="0"/><stop offset=".84368986" stop-color="#fff" stop-opacity=".078431"/><stop offset=".89873886" stop-opacity=".155235"/><stop offset="1"/></linearGradient><linearGradient id="b" gradientUnits="userSpaceOnUse" x1="24.890131" x2="47.916145" y1="63.626438" y2="94.256218"><stop offset="0" stop-color="#84542e"/><stop offset=".25" stop-color="#84542e" stop-opacity=".8"/><stop offset=".5" stop-color="#84542e" stop-opacity=".5"/><stop offset=".75" stop-color="#fde791" stop-opacity="0"/><stop offset=".875" stop-color="#84542e" stop-opacity=".5"/><stop offset="1" stop-color="#84542e"/></linearGradient><linearGradient id="c" gradientUnits="userSpaceOnUse" x1="21.193327" x2="44.479282" y1="67.183907" y2="97.859848"><stop offset="0" stop-color="#fde791" stop-opacity="0"/><stop offset=".28553611" stop-color="#84542e" stop-opacity=".2"/><stop offset=".70769507" stop-color="#84542e"/><stop offset=".790259" stop-color="#84542e" stop-opacity=".5"/><stop offset="1" stop-color="#84542e" stop-opacity=".8"/></linearGradient><linearGradient id="d" gradientUnits="userSpaceOnUse" x1="29.47986" x2="45.49699" y1="74.91674" y2="103.6477"><stop offset="0" stop-color="#fde791" stop-opacity="0"/><stop offset=".28553611" stop-color="#84542e" stop-opacity=".5"/><stop offset=".5" stop-color="#84542e"/><stop offset=".790259" stop-color="#84542e" stop-opacity=".5"/><stop offset="1" stop-color="#84542e" stop-opacity="0"/></linearGradient><radialGradient id="e" cx="4601.1221" cy="4277.6772" gradientTransform="matrix(0 1 -1 0 5224.5762 -3824.5764)" gradientUnits="userSpaceOnUse" r="11.2507" xlink:href="#f"/><linearGradient id="f"><stop offset="0" stop-color="#fff"/><stop offset=".1375" stop-color="#fff" stop-opacity=".8625"/><stop offset="1" stop-color="#fff" stop-opacity="0"/></linearGradient><radialGradient id="g" cx="4694.3481" cy="4395.814" gradientTransform="matrix(0 1 -1 0 5224.5762 -3824.5764)" gradientUnits="userSpaceOnUse" r="11.2507" xlink:href="#f"/><radialGradient id="h" cx="4845.7568" cy="4885.4878" gradientTransform="matrix(0 1 -1 0 5224.5762 -3824.5764)" gradientUnits="userSpaceOnUse" r="11.2507" xlink:href="#f"/><radialGradient id="i" cx="4996.8203" cy="4201.0781" gradientTransform="matrix(0 1 -1 0 5224.5762 -3824.5764)" gradientUnits="userSpaceOnUse" r="11.2507" xlink:href="#f"/><radialGradient id="j" cx="4264.2671" cy="4804.9849" gradientTransform="matrix(0 1 -1 0 5224.5762 -3824.5764)" gradientUnits="userSpaceOnUse" r="11.2507" xlink:href="#f"/><radialGradient id="k" cx="4253.0161" cy="4349.7529" gradientTransform="matrix(0 1 -1 0 5224.5762 -3824.5764)" gradientUnits="userSpaceOnUse" r="11.2507" xlink:href="#f"/><radialGradient id="l" cx="4291.9346" cy="4509.8506" gradientTransform="matrix(0 1 -1 0 5224.5762 -3824.5764)" gradientUnits="userSpaceOnUse" r="11.2507" xlink:href="#f"/><radialGradient id="m" cx="4178.7915" cy="4193.6758" gradientTransform="matrix(0 1 -1 0 5224.5762 -3824.5764)" gradientUnits="userSpaceOnUse" r="11.2507" xlink:href="#f"/><radialGradient id="n" cx="4508.9131" cy="4184.4229" gradientTransform="matrix(0 1 -1 0 5224.5762 -3824.5764)" gradientUnits="userSpaceOnUse" r="11.2507" xlink:href="#f"/><radialGradient id="o" cx="4169.5386" cy="4599.0166" gradientTransform="matrix(0 1 -1 0 5224.5762 -3824.5764)" gradientUnits="userSpaceOnUse" r="11.2507" xlink:href="#f"/><radialGradient id="p" cx="4024.0554" cy="4671.3345" gradientTransform="matrix(0 1 -1 0 5224.5762 -3824.5764)" gradientUnits="userSpaceOnUse" r="11.2507" xlink:href="#f"/><radialGradient id="q" cx="4381.2778" cy="4473.0386" gradientTransform="matrix(0 1 -1 0 5224.5762 -3824.5764)" gradientUnits="userSpaceOnUse" r="5.6228" xlink:href="#f"/><radialGradient id="r" cx="4207.3452" cy="4447.1753" gradientTransform="matrix(0 1 -1 0 5224.5762 -3824.5764)" gradientUnits="userSpaceOnUse" r="5.6228" xlink:href="#f"/><radialGradient id="s" cx="4156.0269" cy="4803.9863" gradientTransform="matrix(0 1 -1 0 5224.5762 -3824.5764)" gradientUnits="userSpaceOnUse" r="5.6228" xlink:href="#f"/><radialGradient id="t" cx="4201.7222" cy="5018.0508" gradientTransform="matrix(0 1 -1 0 5224.5762 -3824.5764)" gradientUnits="userSpaceOnUse" r="5.6228" xlink:href="#f"/><radialGradient id="u" cx="4756.5977" cy="4610.2671" gradientTransform="matrix(0 1 -1 0 5224.5762 -3824.5764)" gradientUnits="userSpaceOnUse" r="5.6228" xlink:href="#f"/><radialGradient id="v" cx="4724.8408" cy="4498.3604" gradientTransform="matrix(0 1 -1 0 5224.5762 -3824.5764)" gradientUnits="userSpaceOnUse" r="5.6228" xlink:href="#f"/><radialGradient id="w" cx="4755.5991" cy="4916.6094" gradientTransform="matrix(0 1 -1 0 5224.5762 -3824.5764)" gradientUnits="userSpaceOnUse" r="5.6228" xlink:href="#f"/><radialGradient id="x" cx="4815.3223" cy="4406.499" gradientTransform="matrix(0 1 -1 0 5224.5762 -3824.5764)" gradientUnits="userSpaceOnUse" r="5.6228" xlink:href="#f"/><radialGradient id="y" cx="4840.1343" cy="4528.7949" gradientTransform="matrix(0 1 -1 0 5224.5762 -3824.5764)" gradientUnits="userSpaceOnUse" r="5.6228" xlink:href="#f"/><radialGradient id="z" cx="4994.8228" cy="4675.311" gradientTransform="matrix(0 1 -1 0 5224.5762 -3824.5764)" gradientUnits="userSpaceOnUse" r="5.6228" xlink:href="#f"/><radialGradient id="A" cx="4625.9868" cy="4580.4009" gradientTransform="matrix(0 1 -1 0 5224.5762 -3824.5764)" gradientUnits="userSpaceOnUse" r="5.6228" xlink:href="#f"/><radialGradient id="B" cx="4832.085" cy="4231.3418" gradientTransform="matrix(0 1 -1 0 5224.5762 -3824.5764)" gradientUnits="userSpaceOnUse" r="5.6228" xlink:href="#f"/><radialGradient id="C" cx="4920.2227" cy="4281.3076" gradientTransform="matrix(0 1 -1 0 5224.5762 -3824.5764)" gradientUnits="userSpaceOnUse" r="5.6228" xlink:href="#f"/><radialGradient id="D" cx="4483.835" cy="4313.1982" gradientTransform="matrix(0 1 -1 0 5224.5762 -3824.5764)" gradientUnits="userSpaceOnUse" r="5.6228" xlink:href="#f"/><radialGradient id="E" cx="4664.439" cy="4695.5273" gradientTransform="matrix(0 1 -1 0 5224.5762 -3824.5764)" gradientUnits="userSpaceOnUse" r="11.2507" xlink:href="#f"/><radialGradient id="F" cx="4894.2646" cy="4681.8555" gradientTransform="matrix(0 1 -1 0 5224.5762 -3824.5764)" gradientUnits="userSpaceOnUse" r="11.2507" xlink:href="#f"/><radialGradient id="G" cx="4985.5698" cy="4361.0039" gradientTransform="matrix(0 1 -1 0 5224.5762 -3824.5764)" gradientUnits="userSpaceOnUse" r="11.2507" xlink:href="#f"/><radialGradient id="H" cx="4713.5898" cy="4089.8687" gradientTransform="matrix(0 1 -1 0 5224.5762 -3824.5764)" gradientUnits="userSpaceOnUse" r="11.2507" xlink:href="#f"/><radialGradient id="I" cx="4757.5957" cy="4804.9849" gradientTransform="matrix(0 1 -1 0 5224.5762 -3824.5764)" gradientUnits="userSpaceOnUse" r="11.2507" xlink:href="#f"/><radialGradient id="J" cx="4433.3354" cy="5016.0532" gradientTransform="matrix(0 1 -1 0 5224.5762 -3824.5764)" gradientUnits="userSpaceOnUse" r="11.2507" xlink:href="#f"/><radialGradient id="K" cx="4371.5723" cy="4725.9341" gradientTransform="matrix(0 1 -1 0 5224.5762 -3824.5764)" gradientUnits="userSpaceOnUse" r="11.2507" xlink:href="#f"/><radialGradient id="L" cx="4510.9111" cy="4743.7231" gradientTransform="matrix(0 1 -1 0 5224.5762 -3824.5764)" gradientUnits="userSpaceOnUse" r="11.2507" xlink:href="#f"/><radialGradient id="M" cx="4269.4331" cy="4686.5615" gradientTransform="matrix(0 1 -1 0 5224.5762 -3824.5764)" gradientUnits="userSpaceOnUse" r="11.2507" xlink:href="#f"/><radialGradient id="N" cx="4072.584" cy="4883.4902" gradientTransform="matrix(0 1 -1 0 5224.5762 -3824.5764)" gradientUnits="userSpaceOnUse" r="11.2507" xlink:href="#f"/><radialGradient id="O" cx="4484.8335" cy="4664.189" gradientTransform="matrix(0 1 -1 0 5224.5762 -3824.5764)" gradientUnits="userSpaceOnUse" r="7.1455" xlink:href="#f"/><radialGradient id="P" cx="4613.2183" cy="4640.4971" gradientTransform="matrix(0 1 -1 0 5224.5762 -3824.5764)" gradientUnits="userSpaceOnUse" r="7.1455" xlink:href="#f"/><radialGradient id="Q" cx="4091.8" cy="4252.5869" gradientTransform="matrix(0 1 -1 0 5224.5762 -3824.5764)" gradientUnits="userSpaceOnUse" r="7.1455" xlink:href="#f"/><radialGradient id="R" cx="4666.4365" cy="4863.9521" gradientTransform="matrix(0 1 -1 0 5224.5762 -3824.5764)" gradientUnits="userSpaceOnUse" r="7.1455" xlink:href="#f"/><radialGradient id="S" cx="4894.2646" cy="4840.1016" gradientTransform="matrix(0 1 -1 0 5224.5762 -3824.5764)" gradientUnits="userSpaceOnUse" r="7.1455" xlink:href="#f"/><radialGradient id="T" cx="4974.3188" cy="4809.6094" gradientTransform="matrix(0 1 -1 0 5224.5762 -3824.5764)" gradientUnits="userSpaceOnUse" r="7.1455" xlink:href="#f"/><radialGradient id="U" cx="4589.1577" cy="4997.6572" gradientTransform="matrix(0 1 -1 0 5224.5762 -3824.5764)" gradientUnits="userSpaceOnUse" r="7.1455" xlink:href="#f"/><radialGradient id="V" cx="4065.4385" cy="4519.7837" gradientTransform="matrix(0 1 -1 0 5224.5762 -3824.5764)" gradientUnits="userSpaceOnUse" r="7.1455" xlink:href="#f"/><radialGradient id="W" cx="4347.4258" cy="4820.2441" gradientTransform="matrix(0 1 -1 0 5224.5762 -3824.5764)" gradientUnits="userSpaceOnUse" r="7.1455" xlink:href="#f"/><radialGradient id="X" cx="4533.5781" cy="4593.1694" gradientTransform="matrix(0 1 -1 0 5224.5762 -3824.5764)" gradientUnits="userSpaceOnUse" r="7.1455" xlink:href="#f"/><radialGradient id="Y" cx="4448.2217" cy="4220.0913" gradientTransform="matrix(0 1 -1 0 5224.5762 -3824.5764)" gradientUnits="userSpaceOnUse" r="11.2507" xlink:href="#f"/><radialGradient id="Z" cx="4908.2451" cy="4929.8579" gradientTransform="matrix(0 1 -1 0 5224.5762 -3824.5764)" gradientUnits="userSpaceOnUse" r="11.2507" xlink:href="#f"/><radialGradient id="aa" cx="4987.5674" cy="5014.0552" gradientTransform="matrix(0 1 -1 0 5224.5762 -3824.5764)" gradientUnits="userSpaceOnUse" r="11.2507" xlink:href="#f"/><radialGradient id="ab" cx="3991.5649" cy="4813.0986" gradientTransform="matrix(0 1 -1 0 5224.5762 -3824.5764)" gradientUnits="userSpaceOnUse" r="11.2507" xlink:href="#f"/><radialGradient id="ac" cx="4012.8047" cy="4351.751" gradientTransform="matrix(0 1 -1 0 5224.5762 -3824.5764)" gradientUnits="userSpaceOnUse" r="11.2507" xlink:href="#f"/><radialGradient id="ad" cx="4683.0972" cy="5027.3037" gradientTransform="matrix(0 1 -1 0 5224.5762 -3824.5764)" gradientUnits="userSpaceOnUse" r="11.2507" xlink:href="#f"/><radialGradient id="ae" cx="4367.481" cy="4195.6733" gradientTransform="matrix(0 1 -1 0 5224.5762 -3824.5764)" gradientUnits="userSpaceOnUse" r="11.2507" xlink:href="#f"/><radialGradient id="af" cx="4526.4326" cy="4089.8687" gradientTransform="matrix(0 1 -1 0 5224.5762 -3824.5764)" gradientUnits="userSpaceOnUse" r="11.2507" xlink:href="#f"/><radialGradient id="ag" cx="4261.9028" cy="4242.5928" gradientTransform="matrix(0 1 -1 0 5224.5762 -3824.5764)" gradientUnits="userSpaceOnUse" r="11.2507" xlink:href="#f"/><radialGradient id="ah" cx="16633.223" cy="4517.6021" gradientTransform="matrix(0 .2895 -1 0 5224.5762 -4086.6375)" gradientUnits="userSpaceOnUse" r="19.241899" xlink:href="#f"/><radialGradient id="ai" cx="-15595.086" cy="5031.6465" gradientTransform="matrix(.2895 0 0 1 5221.3418 -4303.4033)" gradientUnits="userSpaceOnUse" r="19.241899" xlink:href="#f"/><radialGradient id="aj" cx="16323.169" cy="4900.5503" gradientTransform="matrix(0 .2895 -1 0 5224.5762 -4086.6375)" gradientUnits="userSpaceOnUse" r="29.7325" xlink:href="#f"/><radialGradient id="ak" cx="-16917.998" cy="4941.8945" gradientTransform="matrix(.2895 0 0 1 5221.3418 -4303.4033)" gradientUnits="userSpaceOnUse" r="29.7325" xlink:href="#f"/><radialGradient id="al" cx="17536.6" cy="5029.3018" gradientTransform="matrix(0 .2895 -1 0 5224.5762 -4086.6375)" gradientUnits="userSpaceOnUse" r="29.7325" xlink:href="#f"/><radialGradient id="am" cx="-17362.775" cy="5293.1509" gradientTransform="matrix(.2895 0 0 1 5221.3418 -4303.4033)" gradientUnits="userSpaceOnUse" r="29.7325" xlink:href="#f"/><radialGradient id="an" cx="15154.966" cy="4975.0698" gradientTransform="matrix(0 .2895 -1 0 5224.5762 -4086.6375)" gradientUnits="userSpaceOnUse" r="29.7325" xlink:href="#f"/><radialGradient id="ao" cx="-17175.43" cy="4603.7305" gradientTransform="matrix(.2895 0 0 1 5221.3418 -4303.4033)" gradientUnits="userSpaceOnUse" r="29.7325" xlink:href="#f"/><radialGradient id="ap" cx="16788.486" cy="4380.1377" gradientTransform="matrix(0 .2895 -1 0 5224.5762 -4086.6375)" gradientUnits="userSpaceOnUse" r="29.7325" xlink:href="#f"/><radialGradient id="aq" cx="-15120.208" cy="5076.5913" gradientTransform="matrix(.2895 0 0 1 5221.3418 -4303.4033)" gradientUnits="userSpaceOnUse" r="29.7325" xlink:href="#f"/><radialGradient id="ar" cx="15052.254" cy="4385.373" gradientTransform="matrix(0 .2895 -1 0 5224.5762 -4086.6375)" gradientUnits="userSpaceOnUse" r="29.7325" xlink:href="#f"/><radialGradient id="as" cx="-15138.295" cy="4573.998" gradientTransform="matrix(.2895 0 0 1 5221.3418 -4303.4033)" gradientUnits="userSpaceOnUse" r="29.7325" xlink:href="#f"/><radialGradient id="at" cx="16060.047" cy="4376.7666" gradientTransform="matrix(0 .2895 -1 0 5224.5762 -4086.6375)" gradientUnits="userSpaceOnUse" r="29.7325" xlink:href="#f"/><radialGradient id="au" cx="-15108.562" cy="4865.7275" gradientTransform="matrix(.2895 0 0 1 5221.3418 -4303.4033)" gradientUnits="userSpaceOnUse" r="29.7325" xlink:href="#f"/><radialGradient id="av" cx="15866.068" cy="4081.2617" gradientTransform="matrix(0 .2895 -1 0 5224.5762 -4086.6375)" gradientUnits="userSpaceOnUse" r="29.7325" xlink:href="#f"/><radialGradient id="aw" cx="-14087.729" cy="4809.5757" gradientTransform="matrix(.2895 0 0 1 5221.3418 -4303.4033)" gradientUnits="userSpaceOnUse" r="29.7325" xlink:href="#f"/><radialGradient id="ax" cx="17890.787" cy="4106.2778" gradientTransform="matrix(0 .2895 -1 0 5224.5762 -4086.6375)" gradientUnits="userSpaceOnUse" r="29.7325" xlink:href="#f"/><radialGradient id="ay" cx="-14174.147" cy="5395.6787" gradientTransform="matrix(.2895 0 0 1 5221.3418 -4303.4033)" gradientUnits="userSpaceOnUse" r="29.7325" xlink:href="#f"/><radialGradient id="az" cx="15420.522" cy="4902.7319" gradientTransform="matrix(0 .2895 -1 0 5224.5762 -4086.6375)" gradientUnits="userSpaceOnUse" r="19.241899" xlink:href="#f"/><radialGradient id="aA" cx="-16925.533" cy="4680.6021" gradientTransform="matrix(.2895 0 0 1 5221.3418 -4303.4033)" gradientUnits="userSpaceOnUse" r="19.241899" xlink:href="#f"/><radialGradient id="aB" cx="17559.291" cy="4676.2856" gradientTransform="matrix(0 .2895 -1 0 5224.5762 -4086.6375)" gradientUnits="userSpaceOnUse" r="19.241899" xlink:href="#f"/><radialGradient id="aC" cx="-16143.265" cy="5299.7192" gradientTransform="matrix(.2895 0 0 1 5221.3418 -4303.4033)" gradientUnits="userSpaceOnUse" r="19.241899" xlink:href="#f"/><radialGradient id="aD" cx="16866.557" cy="4774.4922" gradientTransform="matrix(0 .2895 -1 0 5224.5762 -4086.6375)" gradientUnits="userSpaceOnUse" r="19.241899" xlink:href="#f"/><radialGradient id="aE" cx="-16482.523" cy="5099.1909" gradientTransform="matrix(.2895 0 0 1 5221.3418 -4303.4033)" gradientUnits="userSpaceOnUse" r="19.241899" xlink:href="#f"/><radialGradient id="aF" cx="16071.692" cy="4574.7783" gradientTransform="matrix(0 .2895 -1 0 5224.5762 -4086.6375)" gradientUnits="userSpaceOnUse" r="19.241899" xlink:href="#f"/><radialGradient id="aG" cx="-15792.604" cy="4869.0986" gradientTransform="matrix(.2895 0 0 1 5221.3418 -4303.4033)" gradientUnits="userSpaceOnUse" r="19.241899" xlink:href="#f"/><radialGradient id="aH" cx="16699.693" cy="4871.0977" gradientTransform="matrix(0 .2895 -1 0 5224.5762 -4086.6375)" gradientUnits="userSpaceOnUse" r="19.241899" xlink:href="#f"/><radialGradient id="aI" cx="-16816.252" cy="5050.8887" gradientTransform="matrix(.2895 0 0 1 5221.3418 -4303.4033)" gradientUnits="userSpaceOnUse" r="19.241899" xlink:href="#f"/><radialGradient id="aJ" cx="18061.07" cy="4512.0322" gradientTransform="matrix(0 .2895 -1 0 5224.5762 -4086.6375)" gradientUnits="userSpaceOnUse" r="19.241899" xlink:href="#f"/><radialGradient id="aK" cx="-15575.844" cy="5444.9717" gradientTransform="matrix(.2895 0 0 1 5221.3418 -4303.4033)" gradientUnits="userSpaceOnUse" r="19.241899" xlink:href="#f"/><radialGradient id="aL" cx="17188.609" cy="4244.9609" gradientTransform="matrix(0 .2895 -1 0 5224.5762 -4086.6375)" gradientUnits="userSpaceOnUse" r="19.241899" xlink:href="#f"/><radialGradient id="aM" cx="-14653.234" cy="5192.417" gradientTransform="matrix(.2895 0 0 1 5221.3418 -4303.4033)" gradientUnits="userSpaceOnUse" r="19.241899" xlink:href="#f"/><radialGradient id="aN" cx="15143.32" cy="4682.5854" gradientTransform="matrix(0 .2895 -1 0 5224.5762 -4086.6375)" gradientUnits="userSpaceOnUse" r="19.241899" xlink:href="#f"/><radialGradient id="aO" cx="-16165.027" cy="4600.3594" gradientTransform="matrix(.2895 0 0 1 5221.3418 -4303.4033)" gradientUnits="userSpaceOnUse" r="19.241899" xlink:href="#f"/><radialGradient id="aP" cx="17652.088" cy="4368.1597" gradientTransform="matrix(0 .2895 -1 0 5224.5762 -4086.6375)" gradientUnits="userSpaceOnUse" r="19.241899" xlink:href="#f"/><radialGradient id="aQ" cx="-15078.83" cy="5326.5815" gradientTransform="matrix(.2895 0 0 1 5221.3418 -4303.4033)" gradientUnits="userSpaceOnUse" r="19.241899" xlink:href="#f"/><radialGradient id="aR" cx="3957.2905" cy="4201.0781" gradientTransform="matrix(0 1 -1 0 5224.5762 -3824.5764)" gradientUnits="userSpaceOnUse" r="11.2507" xlink:href="#f"/><radialGradient id="aS" cx="3955.2927" cy="4675.311" gradientTransform="matrix(0 1 -1 0 5224.5762 -3824.5764)" gradientUnits="userSpaceOnUse" r="5.6228" xlink:href="#f"/><radialGradient id="aT" cx="3880.6929" cy="4281.3076" gradientTransform="matrix(0 1 -1 0 5224.5762 -3824.5764)" gradientUnits="userSpaceOnUse" r="5.6228" xlink:href="#f"/><radialGradient id="aU" cx="3946.0398" cy="4361.0039" gradientTransform="matrix(0 1 -1 0 5224.5762 -3824.5764)" gradientUnits="userSpaceOnUse" r="11.2507" xlink:href="#f"/><radialGradient id="aV" cx="14469.968" cy="4512.0322" gradientTransform="matrix(0 .2895 -1 0 5224.5762 -4086.6375)" gradientUnits="userSpaceOnUse" r="19.241899" xlink:href="#f"/><radialGradient id="aW" cx="-15575.844" cy="4405.4414" gradientTransform="matrix(.2895 0 0 1 5221.3418 -4303.4033)" gradientUnits="userSpaceOnUse" r="19.241899" xlink:href="#f"/><radialGradient id="aX" cx="16783.117" cy="4155.2524" gradientTransform="matrix(0 .2895 -1 0 5224.5762 -4086.6375)" gradientUnits="userSpaceOnUse" r="19.241899" xlink:href="#f"/><radialGradient id="aY" cx="-14343.332" cy="5075.0371" gradientTransform="matrix(.2895 0 0 1 5221.3418 -4303.4033)" gradientUnits="userSpaceOnUse" r="19.241899" xlink:href="#f"/><radialGradient id="aZ" cx="15184.698" cy="4089.8687" gradientTransform="matrix(0 .2895 -1 0 5224.5762 -4086.6375)" gradientUnits="userSpaceOnUse" r="19.241899" xlink:href="#f"/><radialGradient id="a0" cx="-14117.461" cy="4612.3369" gradientTransform="matrix(.2895 0 0 1 5221.3418 -4303.4033)" gradientUnits="userSpaceOnUse" r="19.241899" xlink:href="#f"/><radialGradient id="a1" cx="14799.68" cy="4114.8848" gradientTransform="matrix(0 .2895 -1 0 5224.5762 -4086.6375)" gradientUnits="userSpaceOnUse" r="19.241899" xlink:href="#f"/><radialGradient id="a2" cx="-14203.88" cy="4500.8843" gradientTransform="matrix(.2895 0 0 1 5221.3418 -4303.4033)" gradientUnits="userSpaceOnUse" r="19.241899" xlink:href="#f"/><radialGradient id="a3" cx="4250.4473" cy="5175.2676" gradientTransform="matrix(0 -1 1 0 -5135.66355 5025.32025)" gradientUnits="userSpaceOnUse" r="11.2507" xlink:href="#f"/><radialGradient id="a4" cx="4163.4556" cy="5234.1792" gradientTransform="matrix(0 -1 1 0 -5135.66355 5025.32025)" gradientUnits="userSpaceOnUse" r="7.1455" xlink:href="#f"/><radialGradient id="a5" cx="4333.5586" cy="5224.1846" gradientTransform="matrix(0 -1 1 0 -5135.66355 5025.32025)" gradientUnits="userSpaceOnUse" r="11.2507" xlink:href="#f"/><radialGradient id="a6" cx="4028.946" cy="5182.6704" gradientTransform="matrix(0 -1 1 0 -5135.66355 5025.32025)" gradientUnits="userSpaceOnUse" r="11.2507" xlink:href="#f"/><radialGradient id="a7" cx="3952.3484" cy="5262.8999" gradientTransform="matrix(0 -1 1 0 -5135.66355 5025.32025)" gradientUnits="userSpaceOnUse" r="5.6228" xlink:href="#f"/><radialGradient id="a8" cx="4358.6768" cy="4918.6069" gradientTransform="matrix(0 1 -1 0 5224.5762 -3824.5764)" gradientUnits="userSpaceOnUse" r="11.2507" xlink:href="#f"/><radialGradient id="a9" cx="5075.5581" cy="4804.9849" gradientTransform="matrix(0 1 -1 0 5224.5762 -3824.5764)" gradientUnits="userSpaceOnUse" r="11.2507" xlink:href="#f"/><radialGradient id="ba" cx="5064.3071" cy="4349.7529" gradientTransform="matrix(0 1 -1 0 5224.5762 -3824.5764)" gradientUnits="userSpaceOnUse" r="11.2507" xlink:href="#f"/><radialGradient id="bb" cx="5103.2256" cy="4509.8506" gradientTransform="matrix(0 1 -1 0 5224.5762 -3824.5764)" gradientUnits="userSpaceOnUse" r="11.2507" xlink:href="#f"/><radialGradient id="bc" cx="5192.5688" cy="4473.0386" gradientTransform="matrix(0 1 -1 0 5224.5762 -3824.5764)" gradientUnits="userSpaceOnUse" r="5.6228" xlink:href="#f"/><radialGradient id="bd" cx="5182.8633" cy="4725.9341" gradientTransform="matrix(0 1 -1 0 5224.5762 -3824.5764)" gradientUnits="userSpaceOnUse" r="11.2507" xlink:href="#f"/><radialGradient id="be" cx="5080.7241" cy="4686.5615" gradientTransform="matrix(0 1 -1 0 5224.5762 -3824.5764)" gradientUnits="userSpaceOnUse" r="11.2507" xlink:href="#f"/><radialGradient id="bf" cx="5158.7168" cy="4820.2441" gradientTransform="matrix(0 1 -1 0 5224.5762 -3824.5764)" gradientUnits="userSpaceOnUse" r="7.1455" xlink:href="#f"/><radialGradient id="bg" cx="5073.1938" cy="4242.5928" gradientTransform="matrix(0 1 -1 0 5224.5762 -3824.5764)" gradientUnits="userSpaceOnUse" r="11.2507" xlink:href="#f"/><radialGradient id="bh" cx="18862.688" cy="4376.7666" gradientTransform="matrix(0 .2895 -1 0 5224.5762 -4086.6375)" gradientUnits="userSpaceOnUse" r="29.7325" xlink:href="#f"/><radialGradient id="bi" cx="-15108.562" cy="5677.0186" gradientTransform="matrix(.2895 0 0 1 5221.3418 -4303.4033)" gradientUnits="userSpaceOnUse" r="29.7325" xlink:href="#f"/><radialGradient id="bj" cx="18223.164" cy="4902.7319" gradientTransform="matrix(0 .2895 -1 0 5224.5762 -4086.6375)" gradientUnits="userSpaceOnUse" r="19.241899" xlink:href="#f"/><radialGradient id="bk" cx="-16925.533" cy="5491.8931" gradientTransform="matrix(.2895 0 0 1 5221.3418 -4303.4033)" gradientUnits="userSpaceOnUse" r="19.241899" xlink:href="#f"/><radialGradient id="bl" cx="18874.334" cy="4574.7783" gradientTransform="matrix(0 .2895 -1 0 5224.5762 -4086.6375)" gradientUnits="userSpaceOnUse" r="19.241899" xlink:href="#f"/><radialGradient id="bm" cx="-15792.604" cy="5680.3896" gradientTransform="matrix(.2895 0 0 1 5221.3418 -4303.4033)" gradientUnits="userSpaceOnUse" r="19.241899" xlink:href="#f"/><radialGradient id="bn" cx="4756.5977" cy="3890.749" gradientTransform="matrix(0 1 -1 0 5224.5762 -3824.5764)" gradientUnits="userSpaceOnUse" r="5.6228" xlink:href="#f"/><radialGradient id="bo" cx="4625.9868" cy="3860.8828" gradientTransform="matrix(0 1 -1 0 5224.5762 -3824.5764)" gradientUnits="userSpaceOnUse" r="5.6228" xlink:href="#f"/><radialGradient id="bp" cx="4664.439" cy="3976.0093" gradientTransform="matrix(0 1 -1 0 5224.5762 -3824.5764)" gradientUnits="userSpaceOnUse" r="11.2507" xlink:href="#f"/><radialGradient id="bq" cx="4894.2646" cy="3962.3374" gradientTransform="matrix(0 1 -1 0 5224.5762 -3824.5764)" gradientUnits="userSpaceOnUse" r="11.2507" xlink:href="#f"/><radialGradient id="br" cx="4371.5723" cy="4006.416" gradientTransform="matrix(0 1 -1 0 5224.5762 -3824.5764)" gradientUnits="userSpaceOnUse" r="11.2507" xlink:href="#f"/><radialGradient id="bs" cx="4510.9111" cy="4024.2048" gradientTransform="matrix(0 1 -1 0 5224.5762 -3824.5764)" gradientUnits="userSpaceOnUse" r="11.2507" xlink:href="#f"/><radialGradient id="bt" cx="4269.4331" cy="3967.0435" gradientTransform="matrix(0 1 -1 0 5224.5762 -3824.5764)" gradientUnits="userSpaceOnUse" r="11.2507" xlink:href="#f"/><radialGradient id="bu" cx="4484.8335" cy="3944.6709" gradientTransform="matrix(0 1 -1 0 5224.5762 -3824.5764)" gradientUnits="userSpaceOnUse" r="7.1455" xlink:href="#f"/><radialGradient id="bv" cx="4613.2183" cy="3920.979" gradientTransform="matrix(0 1 -1 0 5224.5762 -3824.5764)" gradientUnits="userSpaceOnUse" r="7.1455" xlink:href="#f"/><radialGradient id="bw" cx="4533.5781" cy="3873.6511" gradientTransform="matrix(0 1 -1 0 5224.5762 -3824.5764)" gradientUnits="userSpaceOnUse" r="7.1455" xlink:href="#f"/><radialGradient id="bx" cx="17559.291" cy="3956.7673" gradientTransform="matrix(0 .2895 -1 0 5224.5762 -4086.6375)" gradientUnits="userSpaceOnUse" r="19.241899" xlink:href="#f"/><radialGradient id="by" cx="-13657.657" cy="5299.7192" gradientTransform="matrix(.2895 0 0 1 5221.3418 -4303.4033)" gradientUnits="userSpaceOnUse" r="19.241899" xlink:href="#f"/><radialGradient id="bz" cx="16071.692" cy="3855.26" gradientTransform="matrix(0 .2895 -1 0 5224.5762 -4086.6375)" gradientUnits="userSpaceOnUse" r="19.241899" xlink:href="#f"/><radialGradient id="bA" cx="-13306.996" cy="4869.0986" gradientTransform="matrix(.2895 0 0 1 5221.3418 -4303.4033)" gradientUnits="userSpaceOnUse" r="19.241899" xlink:href="#f"/><radialGradient id="bB" cx="15143.32" cy="3963.0671" gradientTransform="matrix(0 .2895 -1 0 5224.5762 -4086.6375)" gradientUnits="userSpaceOnUse" r="19.241899" xlink:href="#f"/><radialGradient id="bC" cx="-13679.42" cy="4600.3594" gradientTransform="matrix(.2895 0 0 1 5221.3418 -4303.4033)" gradientUnits="userSpaceOnUse" r="19.241899" xlink:href="#f"/><linearGradient id="bD" gradientUnits="userSpaceOnUse" x1="64.795837" x2="52.469883" y1="67.136147" y2="50.613346"><stop offset="0"/><stop offset=".2" stop-opacity=".8"/><stop offset=".75" stop-color="#fff" stop-opacity="0"/><stop offset=".85000002" stop-opacity=".4"/><stop offset="1"/></linearGradient><linearGradient id="bE" gradientUnits="userSpaceOnUse" x1="90.732544" x2="65.485085" xlink:href="#a" y1="92.284332" y2="71.550323"/><linearGradient id="bF" gradientUnits="userSpaceOnUse" x1="86.722076" x2="74.465286" xlink:href="#a" y1="78.03492" y2="62.995438"/><filter id="bG" color-interpolation-filters="sRGB" height="1.091238" width="1.101828" x="-.050914" y="-.045619"><feGaussianBlur stdDeviation=".47258178"/></filter><filter id="bH" color-interpolation-filters="sRGB" height="1.066859" width="1.04499" x="-.022495" y="-.033429"><feGaussianBlur stdDeviation=".34595669"/></filter><filter id="bI" color-interpolation-filters="sRGB" height="1.059552" width="1.049217" x="-.024609" y="-.029776"><feGaussianBlur stdDeviation=".49379355"/></filter><filter id="bJ" color-interpolation-filters="sRGB" height="1.026941" width="1.025408" x="-.012704" y="-.01347"><feGaussianBlur stdDeviation=".44072593"/></filter><filter id="bK" color-interpolation-filters="sRGB" height="1.111623" width="1.135778" x="-.067889" y="-.055812"><feGaussianBlur stdDeviation=".44072591"/></filter><filter id="bL" color-interpolation-filters="sRGB" height="1.024669" width="1.02343" x="-.011715" y="-.012334"><feGaussianBlur stdDeviation=".44072589"/></filter><linearGradient id="bM" gradientTransform="matrix(391.593 0 0 -391.593 60.7962 7618.49)" gradientUnits="userSpaceOnUse" spreadMethod="pad" x1="0" x2="1" y1="0" y2="0"><stop offset="0" stop-color="#9f571d"/><stop offset=".511236" stop-color="#fde791"/><stop offset="1" stop-color="#b7671e"/></linearGradient><linearGradient id="bN" gradientTransform="matrix(3.7795274 0 0 3.7795274 -341.5064 91.506337)" gradientUnits="userSpaceOnUse" spreadMethod="reflect" x1="113.27657" x2="117.91421" xlink:href="#bM" y1="-21.719631" y2="-6.310533"/><linearGradient id="bO" gradientTransform="matrix(3.7795274 0 0 3.7795274 -341.5064 91.506337)" gradientUnits="userSpaceOnUse" spreadMethod="reflect" x1="97.221344" x2="102.28247" xlink:href="#bM" y1="-3.631885" y2="-2.423216"/><linearGradient id="bP" gradientTransform="matrix(3.7795274 0 0 3.7795274 -341.5064 91.506337)" gradientUnits="userSpaceOnUse" spreadMethod="reflect" x1="93.377235" x2="95.255821" xlink:href="#bM" y1="-5.691519" y2="4.821462"/><mask id="bQ" maskUnits="userSpaceOnUse"><path d="m-13.229159-13.229166h158.749999v158.750016h-158.749999z" fill="url(#bR)" filter="url(#bS)" stroke-width="11.83"/></mask><radialGradient id="bR" cx="66.145844" cy="66.145836" gradientTransform="matrix(-1.0000001 .00000145 0 -.99999999 132.29169 132.29157)" gradientUnits="userSpaceOnUse" r="66.145836"><stop offset="0" stop-color="#fff"/><stop offset=".49999994" stop-color="#fff"/><stop offset=".74999988" stop-color="#808080"/><stop offset=".87499994" stop-color="#404040"/><stop offset="1"/></radialGradient><filter id="bS" color-interpolation-filters="sRGB" height="1.0135" width="1.0135" x="-.00675" y="-.00675"><feGaussianBlur stdDeviation=".44648439"/></filter><radialGradient id="bT" cx="703.05621" cy="255.40021" gradientTransform="matrix(.12107523 -.12107523 .05841622 .05841622 -57.692804 112.54712)" gradientUnits="userSpaceOnUse" r="1011.8609"><stop offset="0" stop-color="#fde791"/><stop offset=".08962709" stop-color="#fde791"/><stop offset="1" stop-color="#fde791" stop-opacity="0"/></radialGradient><radialGradient id="bU" cx="703.05621" cy="1070.2185" gradientTransform="matrix(.12107523 -.12107523 .05841622 .05841622 -57.692804 112.54712)" gradientUnits="userSpaceOnUse" r="1011.8609" spreadMethod="pad"><stop offset="0" stop-color="#b7671e"/><stop offset=".08962709" stop-color="#b7671e" stop-opacity=".9"/><stop offset="1" stop-color="#b7671e" stop-opacity="0"/></radialGradient><g><g mask="url(#bQ)" stroke-width=".094494" transform="matrix(0 1 -1 0 132.291678 -.000004)"><path d="m-16.763244-16.763244c-67.65774 67.657739-96.043756 148.969874-63.396059 181.617564 32.647695 32.64769 113.959825 4.26168 181.617563-63.39606 67.65774-67.657738 96.04375-148.969868 63.39606-181.617563-32.64769-32.647697-113.959825-4.261681-181.617564 63.396059z" fill="url(#bT)" opacity=".3"/><path d="m30.833409 30.833409c-67.65774 67.657739-96.043753 148.969871-63.396059 181.617561 32.64769465 32.6477 113.959825 4.26168 181.61756-63.39606 67.65774-67.657735 96.04376-148.96986535 63.39606-181.61756-32.64769-32.647694-113.959822-4.261681-181.617561 63.396059z" fill="url(#bU)" opacity=".3"/></g><g opacity=".8" transform="matrix(.09660557 0 0 .09518071 -1.845166 -1.798916)"><circle cx="946.90002" cy="776.5" fill="url(#e)" opacity=".5" r="11.3"/><circle cx="828.79999" cy="869.79999" fill="url(#g)" opacity=".5" r="11.3"/><circle cx="339.10001" cy="1021.2" fill="url(#h)" opacity=".5" r="11.3"/><circle cx="1023.5" cy="1172.2" fill="url(#i)" opacity=".5" r="11.3"/><circle cx="419.60001" cy="439.70001" fill="url(#j)" opacity=".5" r="11.3"/><circle cx="874.79999" cy="428.39999" fill="url(#k)" opacity=".5" r="11.3"/><circle cx="714.70001" cy="467.39999" fill="url(#l)" opacity=".5" r="11.3"/><circle cx="1030.9" cy="354.20001" fill="url(#m)" opacity=".5" r="11.3"/><circle cx="1040.2" cy="684.29999" fill="url(#n)" opacity=".5" r="11.3"/><circle cx="625.59998" cy="345" fill="url(#o)" opacity=".5" r="11.3"/><circle cx="553.20001" cy="199.5" fill="url(#p)" opacity=".5" r="11.3"/><circle cx="751.5" cy="556.70001" fill="url(#q)" opacity=".5" r="5.6"/><circle cx="777.40002" cy="382.79999" fill="url(#r)" opacity=".5" r="5.6"/><circle cx="420.60001" cy="331.5" fill="url(#s)" opacity=".5" r="5.6"/><circle cx="206.5" cy="377.10001" fill="url(#t)" opacity=".5" r="5.6"/><circle cx="614.29999" cy="932" fill="url(#u)" opacity=".5" r="5.6"/><circle cx="726.20001" cy="900.29999" fill="url(#v)" opacity=".5" r="5.6"/><circle cx="308" cy="931" fill="url(#w)" opacity=".5" r="5.6"/><circle cx="818.09998" cy="990.70001" fill="url(#x)" opacity=".5" r="5.6"/><circle cx="695.79999" cy="1015.6" fill="url(#y)" opacity=".5" r="5.6"/><circle cx="549.29999" cy="1170.2" fill="url(#z)" opacity=".5" r="5.6"/><circle cx="644.20001" cy="801.40002" fill="url(#A)" opacity=".5" r="5.6"/><circle cx="993.20001" cy="1007.5" fill="url(#B)" opacity=".5" r="5.6"/><circle cx="943.29999" cy="1095.6" fill="url(#C)" opacity=".5" r="5.6"/><circle cx="911.40002" cy="659.29999" fill="url(#D)" opacity=".5" r="5.6"/><circle cx="529" cy="839.90002" fill="url(#E)" opacity=".5" r="11.3"/><circle cx="542.70001" cy="1069.7" fill="url(#F)" opacity=".5" r="11.3"/><circle cx="863.59998" cy="1161" fill="url(#G)" opacity=".5" r="11.3"/><circle cx="1134.7" cy="889" fill="url(#H)" opacity=".5" r="11.3"/><circle cx="419.60001" cy="933" fill="url(#I)" opacity=".5" r="11.3"/><circle cx="208.5" cy="608.79999" fill="url(#J)" opacity=".5" r="11.3"/><circle cx="498.60001" cy="547" fill="url(#K)" opacity=".5" r="11.3"/><circle cx="480.89999" cy="686.29999" fill="url(#L)" opacity=".5" r="11.3"/><circle cx="538" cy="444.89999" fill="url(#M)" opacity=".5" r="11.3"/><circle cx="341.10001" cy="248" fill="url(#N)" opacity=".5" r="11.3"/><circle cx="560.40002" cy="660.29999" fill="url(#O)" opacity=".5" r="7.1"/><circle cx="584.09998" cy="788.59998" fill="url(#P)" opacity=".5" r="7.1"/><circle cx="972" cy="267.20001" fill="url(#Q)" opacity=".5" r="7.1"/><circle cx="360.60001" cy="841.90002" fill="url(#R)" opacity=".5" r="7.1"/><circle cx="384.5" cy="1069.7" fill="url(#S)" opacity=".5" r="7.1"/><circle cx="415" cy="1149.7" fill="url(#T)" opacity=".5" r="7.1"/><circle cx="226.89999" cy="764.59998" fill="url(#U)" opacity=".5" r="7.1"/><circle cx="704.79999" cy="240.89999" fill="url(#V)" opacity=".5" r="7.1"/><circle cx="404.29999" cy="522.79999" fill="url(#W)" opacity=".5" r="7.1"/><circle cx="631.40002" cy="709" fill="url(#X)" opacity=".5" r="7.1"/><circle cx="1004.5" cy="623.59998" fill="url(#Y)" opacity=".5" r="11.3"/><circle cx="294.70001" cy="1083.7" fill="url(#Z)" opacity=".5" r="11.3"/><circle cx="210.5" cy="1163" fill="url(#aa)" opacity=".5" r="11.3"/><circle cx="411.5" cy="167" fill="url(#ab)" opacity=".5" r="11.3"/><circle cx="872.79999" cy="188.2" fill="url(#ac)" opacity=".5" r="11.3"/><circle cx="197.3" cy="858.5" fill="url(#ad)" opacity=".5" r="11.3"/><circle cx="1028.9" cy="542.90002" fill="url(#ae)" opacity=".5" r="11.3"/><circle cx="1134.7" cy="701.90002" fill="url(#af)" opacity=".5" r="11.3"/><circle cx="982" cy="437.29999" fill="url(#ag)" opacity=".5" r="11.3"/><ellipse cx="707" cy="728.20001" fill="url(#ah)" rx="19.200001" ry="5.6"/><ellipse cx="707" cy="728.20001" fill="url(#ai)" rx="5.6" ry="19.200001"/><ellipse cx="324" cy="638.5" fill="url(#aj)" rx="29.700001" ry="8.6"/><ellipse cx="324" cy="638.5" fill="url(#ak)" rx="8.6" ry="29.700001"/><ellipse cx="195.3" cy="989.70001" fill="url(#al)" rx="29.700001" ry="8.6"/><ellipse cx="195.3" cy="989.70001" fill="url(#am)" rx="8.6" ry="29.700001"/><ellipse cx="249.5" cy="300.29999" fill="url(#an)" rx="29.700001" ry="8.6"/><ellipse cx="249.5" cy="300.29999" fill="url(#ao)" rx="8.6" ry="29.700001"/><ellipse cx="844.40002" cy="773.20001" fill="url(#ap)" rx="29.700001" ry="8.6"/><ellipse cx="844.40002" cy="773.20001" fill="url(#aq)" rx="8.6" ry="29.700001"/><ellipse cx="839.20001" cy="270.60001" fill="url(#ar)" rx="29.700001" ry="8.6"/><ellipse cx="839.20001" cy="270.60001" fill="url(#as)" rx="8.6" ry="29.700001"/><ellipse cx="847.79999" cy="562.29999" fill="url(#at)" rx="29.700001" ry="8.6"/><ellipse cx="847.79999" cy="562.29999" fill="url(#au)" rx="8.6" ry="29.700001"/><ellipse cx="1143.3" cy="506.20001" fill="url(#av)" rx="29.700001" ry="8.6"/><ellipse cx="1143.3" cy="506.20001" fill="url(#aw)" rx="8.6" ry="29.700001"/><ellipse cx="1118.3" cy="1092.3" fill="url(#ax)" rx="29.700001" ry="8.6"/><ellipse cx="1118.3" cy="1092.3" fill="url(#ay)" rx="8.6" ry="29.700001"/><ellipse cx="321.79999" cy="377.20001" fill="url(#az)" rx="19.200001" ry="5.6"/><ellipse cx="321.79999" cy="377.20001" fill="url(#aA)" rx="5.6" ry="19.200001"/><ellipse cx="548.29999" cy="996.29999" fill="url(#aB)" rx="19.200001" ry="5.6"/><ellipse cx="548.29999" cy="996.29999" fill="url(#aC)" rx="5.6" ry="19.200001"/><ellipse cx="450.10001" cy="795.79999" fill="url(#aD)" rx="19.200001" ry="5.6"/><ellipse cx="450.10001" cy="795.79999" fill="url(#aE)" rx="5.6" ry="19.200001"/><ellipse cx="649.79999" cy="565.70001" fill="url(#aF)" rx="19.200001" ry="5.6"/><ellipse cx="649.79999" cy="565.70001" fill="url(#aG)" rx="5.6" ry="19.200001"/><ellipse cx="353.5" cy="747.5" fill="url(#aH)" rx="19.200001" ry="5.6"/><ellipse cx="353.5" cy="747.5" fill="url(#aI)" rx="5.6" ry="19.200001"/><ellipse cx="712.5" cy="1141.6" fill="url(#aJ)" rx="19.200001" ry="5.6"/><ellipse cx="712.5" cy="1141.6" fill="url(#aK)" rx="5.6" ry="19.200001"/><ellipse cx="979.59998" cy="889" fill="url(#aL)" rx="19.200001" ry="5.6"/><ellipse cx="979.59998" cy="889" fill="url(#aM)" rx="5.6" ry="19.200001"/><ellipse cx="542" cy="297" fill="url(#aN)" rx="19.200001" ry="5.6"/><ellipse cx="542" cy="297" fill="url(#aO)" rx="5.6" ry="19.200001"/><ellipse cx="856.40002" cy="1023.2" fill="url(#aP)" rx="19.200001" ry="5.6"/><ellipse cx="856.40002" cy="1023.2" fill="url(#aQ)" rx="5.6" ry="19.200001"/><circle cx="1023.5" cy="132.7" fill="url(#aR)" opacity=".5" r="11.3"/><circle cx="549.29999" cy="130.7" fill="url(#aS)" opacity=".5" r="5.6"/><circle cx="943.29999" cy="56.099998" fill="url(#aT)" opacity=".5" r="5.6"/><circle cx="863.59998" cy="121.5" fill="url(#aU)" opacity=".5" r="11.3"/><ellipse cx="712.5" cy="102" fill="url(#aV)" rx="19.200001" ry="5.6"/><ellipse cx="712.5" cy="102" fill="url(#aW)" rx="5.6" ry="19.200001"/><ellipse cx="1069.3" cy="771.59998" fill="url(#aX)" rx="19.200001" ry="5.6"/><ellipse cx="1069.3" cy="771.59998" fill="url(#aY)" rx="5.6" ry="19.200001"/><ellipse cx="1134.7" cy="308.89999" fill="url(#aZ)" rx="19.200001" ry="5.6"/><ellipse cx="1134.7" cy="308.89999" fill="url(#a0)" rx="5.6" ry="19.200001"/><ellipse cx="1109.7" cy="197.5" fill="url(#a1)" rx="19.200001" ry="5.6"/><ellipse cx="1109.7" cy="197.5" fill="url(#a2)" rx="5.6" ry="19.200001"/><circle cx="39.599998" cy="774.90002" fill="url(#a3)" opacity=".5" r="11.3"/><circle cx="98.5" cy="861.90002" fill="url(#a4)" opacity=".5" r="7.1"/><circle cx="88.5" cy="691.79999" fill="url(#a5)" opacity=".5" r="11.3"/><circle cx="47" cy="996.40002" fill="url(#a6)" opacity=".5" r="11.3"/><circle cx="127.2" cy="1073" fill="url(#a7)" opacity=".5" r="5.6"/><circle cx="306" cy="534.09998" fill="url(#a8)" opacity=".5" r="11.3"/><circle cx="419.60001" cy="1251" fill="url(#a9)" opacity=".5" r="11.3"/><circle cx="874.79999" cy="1239.7" fill="url(#ba)" opacity=".5" r="11.3"/><circle cx="714.70001" cy="1278.6" fill="url(#bb)" opacity=".5" r="11.3"/><circle cx="751.5" cy="1368" fill="url(#bc)" opacity=".5" r="5.6"/><circle cx="498.60001" cy="1358.3" fill="url(#bd)" opacity=".5" r="11.3"/><circle cx="538" cy="1256.1" fill="url(#be)" opacity=".5" r="11.3"/><circle cx="404.29999" cy="1334.1" fill="url(#bf)" opacity=".5" r="7.1"/><circle cx="982" cy="1248.6" fill="url(#bg)" opacity=".5" r="11.3"/><ellipse cx="847.79999" cy="1373.6" fill="url(#bh)" rx="29.700001" ry="8.6"/><ellipse cx="847.79999" cy="1373.6" fill="url(#bi)" rx="8.6" ry="29.700001"/><ellipse cx="321.79999" cy="1188.5" fill="url(#bj)" rx="19.200001" ry="5.6"/><ellipse cx="321.79999" cy="1188.5" fill="url(#bk)" rx="5.6" ry="19.200001"/><ellipse cx="649.79999" cy="1377" fill="url(#bl)" rx="19.200001" ry="5.6"/><ellipse cx="649.79999" cy="1377" fill="url(#bm)" rx="5.6" ry="19.200001"/><circle cx="1333.8" cy="932" fill="url(#bn)" opacity=".5" r="5.6"/><circle cx="1363.7" cy="801.40002" fill="url(#bo)" opacity=".5" r="5.6"/><circle cx="1248.6" cy="839.90002" fill="url(#bp)" opacity=".5" r="11.3"/><circle cx="1262.2" cy="1069.7" fill="url(#bq)" opacity=".5" r="11.3"/><circle cx="1218.2" cy="547" fill="url(#br)" opacity=".5" r="11.3"/><circle cx="1200.4" cy="686.29999" fill="url(#bs)" opacity=".5" r="11.3"/><circle cx="1257.5" cy="444.89999" fill="url(#bt)" opacity=".5" r="11.3"/><circle cx="1279.9" cy="660.29999" fill="url(#bu)" opacity=".5" r="7.1"/><circle cx="1303.6" cy="788.59998" fill="url(#bv)" opacity=".5" r="7.1"/><circle cx="1350.9" cy="709" fill="url(#bw)" opacity=".5" r="7.1"/><ellipse cx="1267.8" cy="996.29999" fill="url(#bx)" rx="19.200001" ry="5.6"/><ellipse cx="1267.8" cy="996.29999" fill="url(#by)" rx="5.6" ry="19.200001"/><ellipse cx="1369.3" cy="565.70001" fill="url(#bz)" rx="19.200001" ry="5.6"/><ellipse cx="1369.3" cy="565.70001" fill="url(#bA)" rx="5.6" ry="19.200001"/><ellipse cx="1261.5" cy="297" fill="url(#bB)" rx="19.200001" ry="5.6"/><ellipse cx="1261.5" cy="297" fill="url(#bC)" rx="5.6" ry="19.200001"/><g fill="#fff"><circle cx="946.90002" cy="776.5" r="2"/><circle cx="828.79999" cy="869.79999" r="2"/><circle cx="339.10001" cy="1021.2" r="2"/><circle cx="1023.5" cy="1172.2" r="2"/><circle cx="419.60001" cy="439.70001" r="2"/><circle cx="874.79999" cy="428.39999" r="2"/><circle cx="714.70001" cy="467.39999" r="2"/><circle cx="1030.9" cy="354.20001" r="2"/><circle cx="1040.2" cy="684.29999" r="2"/><circle cx="625.59998" cy="345" r="2"/><circle cx="553.20001" cy="199.5" r="2"/><circle cx="751.5" cy="556.70001" r="1"/><circle cx="777.40002" cy="382.79999" r="1"/><circle cx="420.60001" cy="331.5" r="1"/><circle cx="206.5" cy="377.10001" r="1"/><circle cx="614.29999" cy="932" r="1"/><circle cx="726.20001" cy="900.29999" r="1"/><circle cx="308" cy="931" r="1"/><circle cx="818.09998" cy="990.70001" r="1"/><circle cx="695.79999" cy="1015.6" r="1"/><circle cx="549.29999" cy="1170.2" r="1"/><circle cx="644.20001" cy="801.40002" r="1"/><circle cx="993.20001" cy="1007.5" r="1"/><circle cx="943.29999" cy="1095.6" r="1"/><circle cx="911.40002" cy="659.29999" r="1"/><circle cx="529" cy="839.90002" r="2"/><circle cx="542.70001" cy="1069.7" r="2"/><circle cx="863.59998" cy="1161" r="2"/><circle cx="1134.7" cy="889" r="2"/><circle cx="419.60001" cy="933" r="2"/><circle cx="208.5" cy="608.79999" r="2"/><circle cx="498.60001" cy="547" r="2"/><circle cx="480.89999" cy="686.29999" r="2"/><circle cx="538" cy="444.89999" r="2"/><circle cx="341.10001" cy="248" r="2"/><circle cx="560.40002" cy="660.29999" r="1.3"/><circle cx="584.09998" cy="788.59998" r="1.3"/><circle cx="972" cy="267.20001" r="1.3"/><circle cx="360.60001" cy="841.90002" r="1.3"/><circle cx="384.5" cy="1069.7" r="1.3"/><circle cx="415" cy="1149.7" r="1.3"/><circle cx="226.89999" cy="764.59998" r="1.3"/><circle cx="704.79999" cy="240.89999" r="1.3"/><circle cx="404.29999" cy="522.79999" r="1.3"/><circle cx="631.40002" cy="709" r="1.3"/><circle cx="1004.5" cy="623.59998" r="2"/><circle cx="294.70001" cy="1083.7" r="2"/><circle cx="210.5" cy="1163" r="2"/><circle cx="411.5" cy="167" r="2"/><circle cx="872.79999" cy="188.2" r="2"/><circle cx="197.3" cy="858.5" r="2"/><circle cx="1028.9" cy="542.90002" r="2"/><circle cx="1134.7" cy="701.90002" r="2"/><circle cx="982" cy="437.29999" r="2"/><circle cx="707" cy="728.20001" r="2.2"/><circle cx="324" cy="638.5" r="3.4"/><circle cx="195.3" cy="989.70001" r="3.4"/><circle cx="249.5" cy="300.29999" r="3.4"/><circle cx="844.40002" cy="773.20001" r="3.4"/><circle cx="839.20001" cy="270.60001" r="3.4"/><circle cx="847.79999" cy="562.29999" r="3.4"/><circle cx="1143.3" cy="506.20001" r="3.4"/><circle cx="1118.3" cy="1092.3" r="3.4"/><circle cx="321.79999" cy="377.20001" r="2.2"/><circle cx="548.29999" cy="996.29999" r="2.2"/><circle cx="450.10001" cy="795.79999" r="2.2"/><circle cx="649.79999" cy="565.70001" r="2.2"/><circle cx="353.5" cy="747.5" r="2.2"/><circle cx="712.5" cy="1141.6" r="2.2"/><circle cx="979.59998" cy="889" r="2.2"/><circle cx="542" cy="297" r="2.2"/><circle cx="856.40002" cy="1023.2" r="2.2"/><circle cx="1023.5" cy="132.7" r="2"/><circle cx="549.29999" cy="130.7" r="1"/><circle cx="943.29999" cy="56.099998" r="1"/><circle cx="863.59998" cy="121.5" r="2"/><circle cx="712.5" cy="102" r="2.2"/><circle cx="1069.3" cy="771.59998" r="2.2"/><circle cx="1134.7" cy="308.89999" r="2.2"/><circle cx="1109.7" cy="197.5" r="2.2"/><circle cx="39.599998" cy="774.90002" r="2"/><circle cx="98.5" cy="861.90002" r="1.3"/><circle cx="88.5" cy="691.79999" r="2"/><circle cx="47" cy="996.40002" r="2"/><circle cx="127.2" cy="1073" r="1"/><circle cx="306" cy="534.09998" r="2"/><circle cx="419.60001" cy="1251" r="2"/><circle cx="874.79999" cy="1239.7" r="2"/><circle cx="714.70001" cy="1278.6" r="2"/><circle cx="751.5" cy="1368" r="1"/><circle cx="498.60001" cy="1358.3" r="2"/><circle cx="538" cy="1256.1" r="2"/><circle cx="404.29999" cy="1334.1" r="1.3"/><circle cx="982" cy="1248.6" r="2"/><circle cx="847.79999" cy="1373.6" r="3.4"/><circle cx="321.79999" cy="1188.5" r="2.2"/><circle cx="649.79999" cy="1377" r="2.2"/><circle cx="1333.8" cy="932" r="1"/><circle cx="1363.7" cy="801.40002" r="1"/><circle cx="1248.6" cy="839.90002" r="2"/><circle cx="1262.2" cy="1069.7" r="2"/><circle cx="1218.2" cy="547" r="2"/><circle cx="1200.4" cy="686.29999" r="2"/><circle cx="1257.5" cy="444.89999" r="2"/><circle cx="1279.9" cy="660.29999" r="1.3"/><circle cx="1303.6" cy="788.59998" r="1.3"/><circle cx="1350.9" cy="709" r="1.3"/><circle cx="1267.8" cy="996.29999" r="2.2"/><circle cx="1369.3" cy="565.70001" r="2.2"/><circle cx="1261.5" cy="297" r="2.2"/></g></g></g><g transform="matrix(.99944572 -.0332904 .0332904 .99944572 2.537462 9.936424)"><path d="m83.209088 14.599523c-3.63638-.03853-7.663762 1.14904-9.368419 4.847766v.000529c-4.009391 8.703719-8.404993 15.041578-15.292097 21.764049-3.68771 3.249155-5.780564 4.788951-8.077042 6.28127l-4.403857 2.657202c-6.490812 3.627872-14.023579 6.713519-22.785177 9.976136-.422222.09459-.703738.323221-1.030419.58601-2.335769 1.880275-4.803114 4.642313-6.250279 7.717875-1.63023 3.464592-1.693916 7.940646-.108003 13.089123 1.229281 3.991438 3.397091 7.803827 6.030648 10.789007 2.449698 2.776564 4.604835 4.931307 7.492207 7.188 2.887398 2.25669 5.807101 3.52424 8.278415 3.96636 2.471315.44211 5.255419.1562 7.4109-1.57148 1.490134-.9834 3.168703-2.106254 4.169781-3.342951.843359-1.100119 1.296696-2.240444 1.710505-3.483507 3.146425-7.231142 6.558756-13.417257 10.433103-18.653017.726546-.981856 1.469337-1.930292 2.22967-2.84593l3.672126-4.031279c1.754293-1.752203 3.519646-3.301688 7.529777-6.195489 8.806154-5.596647 16.625227-8.44491 26.457303-10.216431 3.28194-.591767 5.0446-3.294067 5.97019-5.882843.92554-2.588779 1.22671-5.573676.98803-8.752438l-.97512-5.458067c-.88149-3.073002-2.35098-6.153091-5.15525-9.450751-2.804259-3.29766-7.144199-5.980766-11.421-7.516701-2.229829-1.236931-4.738741-1.705386-7.505992-1.462443z" fill="#84542e"/><path d="m19.353541 70.007513c-1.06453 2.262335-1.30352 5.929971.0801 10.421585 1.05352 3.420812 3.02715 6.888936 5.26791 9.428883 2.24078 2.539764 4.79866 4.784278 7.67807 7.396964 4.26352 2.716432 8.17978 3.533075 10.40919 1.746147.78052-.625718 2.64848-1.577501 3.58727-2.758062.59587-.749316 1.19279-2.612665 1.19279-2.612665 3.84578-8.846616 8.13147-16.302059 13.25502-22.464261l3.84731-4.223514c1.89338-1.893409 3.89146-3.642318 8.09305-6.669363 9.21557-5.873089 17.6599-8.953088 27.886659-10.795723 2.73182-.492575 4.33342-5.229003 3.92173-10.712524l-6.440939-.182936 5.599139-4.531506c-.76001-2.649528-2.01805-5.251828-3.876249-7.437272-2.84504-3.344831-6.67462-5.730119-10.39214-7.065202l-4.75682 2.847888.51523-3.926892c-.70999-.100451-1.39446-.158607-2.05002-.165365v-.000005c-2.86115-.0305-5.11352.844135-5.96604 2.693893-4.17338 9.059754-8.93109 15.915314-16.13802 22.935551-3.8403 3.388302-6.15495 5.094367-8.5969 6.680213l-4.56871 2.756938c-6.77911 3.791929-14.49065 6.937578-23.3262 10.227731-1.64119 1.321138-4.29004 4.430056-5.22142 6.409497z" fill="url(#bP)"/><path d="m83.191406 16.248047c-3.291937-.03509-6.52679 1.016197-7.851562 3.890625-4.080483 8.858088-8.637865 15.425299-15.66211 22.277344-3.760662 3.315769-5.953319 4.931721-8.316406 6.466796l-4.472656 2.699219c-6.620406 3.702315-14.233745 6.813858-23.03125 10.089844a2.0546808 2.0546808 0 0 0 -.572266.326172c-2.026926 1.631651-4.573822 4.547893-5.791015 7.134765-1.378325 2.92921-1.519295 7.046377-.02344 11.902344 1.150992 3.737307 3.230973 7.394903 5.689453 10.181641 2.356328 2.670729 4.972903 4.960947 7.837891 7.560547a2.0546808 2.0546808 0 0 0 .277344.210937c2.293555 1.461299 4.540595 2.463709 6.708984 2.851559 2.168389.38786 4.397776.12186 6.089844-1.23437.163346-.13095.85999-.56886 1.605469-1.076173.745478-.507315 1.5897-1.108693 2.304687-2.007813.606396-.762552.866726-1.471633 1.119141-2.103515.213814-.535254.315382-.855753.357422-.984375 3.787333-8.709086 7.979776-15.978355 12.935546-21.941406.0029-.0035.0049-.0082.0078-.01172l3.730469-4.091797c1.81843-1.817907 3.691781-3.46107 7.789062-6.416016 8.98734-5.718177 17.085663-8.671725 27.091792-10.474609 2.42824-.437836 3.88806-2.518891 4.70899-4.814453.82092-2.295562 1.12053-5.088123.89648-8.072266a2.0546808 2.0546808 0 0 0 -1.99023-1.898437l-.89063-.02539 1.28321-1.039062a2.0546808 2.0546808 0 0 0 .68164-2.164063c-.82721-2.883802-2.20169-5.750793-4.28516-8.201172a2.0546808 2.0546808 0 0 0 0-.002c-3.122381-3.670866-7.234266-6.219585-11.261702-7.665969a2.0546808 2.0546808 0 0 0 -1.75.169922l-1.166015.697266a2.0546808 2.0546808 0 0 0 -1.734376-2.048828c-.781413-.110556-1.552757-.177675-2.316406-.185547z" fill="url(#c)" filter="url(#bL)"/><path d="m32.379031 97.254836c1.04985-.214234 2.00277-.729822 2.40687-1.075556l8.11085-8.016528 2.287841-2.151316c-.12582-1.391756-.54817-2.681335-.97972-3.967742l-2.595971 2.580447-4.29466 4.268978c-.11305-1.200843-.39942-2.472185-.87029-3.795216-1.08374-3.047312-2.92143-5.616115-5.33627-7.168538l4.75803-2.984944 4.058872-.327884c-1.78326-2.492049-2.261113-2.969933-2.141093-2.742872l-4.213469.47976-7.04845 4.417279-3.63013 2.282976 4.20819.833559c2.61179.520154 4.85348 2.805868 6.11494 6.352147.93882 2.638754.85271 4.766852.33786 6.027052-.17525.48436-.42676.793132-.76703 1.16432-.39674.394865-.91635.543175-1.60038.519425-1.73882-.06027-4.24343-1.552422-6.4842-4.092186l-2.776378 2.450493z" fill="#84542e"/><path d="m44.204872 82.043694-2.595971 2.580447-4.29466 4.268978c-.11305-1.200843-.39942-2.472185-.87029-3.795216-1.08374-3.047312-2.92143-5.616115-5.33627-7.168538l4.75803-2.984944 2.907195-1.823825" fill="url(#bO)"/><path d="m39.144531 71.552734a1.6119565 1.6119565 0 0 0 -1.228515.203125l-2.908204 1.824219-4.757812 2.984375a1.6119565 1.6119565 0 0 0 -.01367 2.720703c2.047488 1.316263 3.700676 3.578717 4.6875 6.353516a1.6119565 1.6119565 0 0 0 .002 0c.430942 1.210841.684079 2.351377.783203 3.404297a1.6119565 1.6119565 0 0 0 2.742188.992187l4.294922-4.267578 2.595703-2.582031a1.6119565 1.6119565 0 0 0 .240234-1.980469l-5.43164-8.921875a1.6119565 1.6119565 0 0 0 -1.00586-.730469z" fill="url(#d)" filter="url(#bK)"/><path d="m47.568851 93.630519c3.84577-8.846618 8.1315-16.302211 13.25504-22.464415l3.84731-4.223514c1.58485-1.584862 3.05529-3.028646 6.01774-5.245354 1.51297-1.080146 3.11122-2.093574 4.59691-2.972626 8.26066-4.880237 16.07704-7.57344 25.365139-9.246949 2.7318-.492575 4.33351-5.229291 3.92181-10.712813l-6.441259-.182636 5.599189-4.531797c-.76-2.649528-2.0178-5.251572-3.876009-7.437016-2.84503-3.344831-6.67468-5.730448-10.3922-7.065531l-4.75693 2.848056.51521-3.926716c-.70997-.100451-1.3943-.158895-2.04986-.165653l-.00018.000183c-2.86115-.0305-5.11365.844153-5.96617 2.69391-3.81829 8.288903-8.08595 14.69189-14.31065 21.104827-1.1828 1.186147-2.20954 2.253851-3.473 3.346011-3.0118 2.582147-4.83008 3.787656-6.95097 5.165002l-4.56895 2.756734c-6.77911 3.791929-14.49045 6.937503-23.32602 10.227725.10516.0077.20887.01698.31513.02849 2.024497.239993 3.927432 1.044068 5.7082 1.986186 1.470428.777932 2.757501 1.876517 4.00774 2.973895 1.145442 1.005394 2.16254 2.096135 3.17776 3.287482 1.90182 2.231288 3.640755 4.782056 5.113335 7.511097 1.47258 2.729042 2.678805 5.636359 3.515205 8.580745.54599 1.922059.93625 3.822955 1.15648 5.664677z" fill="url(#bN)"/><path d="m83.1875 16.705078a1.5984434 1.5984434 0 0 0 -.0059.002c-3.193343-.03274-6.208406.975453-7.427735 3.621094a1.5984434 1.5984434 0 0 0 0 .002c-3.759784 8.161897-7.897125 14.36474-14.005859 20.658203-1.188012 1.191715-2.179753 2.222135-3.371094 3.251953-2.946567 2.525785-4.655932 3.65386-6.761719 5.021485l-4.519531 2.726562c-6.651468 3.71784-14.281885 6.835025-23.080078 10.111328a1.5984434 1.5984434 0 0 0 .441406 3.091797c.07619.0056.158906.01413.246094.02344.000614.000073.0013-.000073.002 0 1.725575.204916 3.447805.912891 5.144531 1.810547 1.262052.66769 2.462664 1.674637 3.701172 2.761718 1.067392.936886 2.029945 1.966365 3.015625 3.123047 1.823633 2.139555 3.503254 4.601713 4.923828 7.234375 1.420479 2.632487 2.583174 5.437916 3.384766 8.259766.524996 1.848153.896264 3.666495 1.105469 5.416015a1.5984434 1.5984434 0 0 0 3.052734.447266c3.799572-8.740346 8.012256-16.052269 13.003906-22.060547l3.765625-4.132812.0039-.0039c1.5742-1.574184 2.94301-2.923868 5.828125-5.083984 1.459084-1.040705 3.014911-2.027958 4.46289-2.884766l.002-.002c8.101265-4.785707 15.687179-7.400777 24.833981-9.048828 2.19271-.39537 3.56943-2.304567 4.36133-4.519531.79191-2.214964 1.0911-4.954425.8711-7.884766a1.5984434 1.5984434 0 0 0 -1.54883-1.478515l-2.12305-.06055 2.24219-1.814453a1.5984434 1.5984434 0 0 0 .53125-1.683594c-.81228-2.831786-2.16186-5.639698-4.19531-8.03125-3.060808-3.598511-7.109745-6.111534-11.068364-7.533203a1.5984434 1.5984434 0 0 0 -1.361328.132812l-1.923828 1.150391.08594-.650391a1.5984434 1.5984434 0 0 0 -1.359424-1.791068c-.76514-.108257-1.518132-.174016-2.257812-.181641z" fill="url(#b)" filter="url(#bJ)" opacity=".33"/><g fill="#84542e"><path d="m28.739461 68.816232c1.76411.933171 3.355306 2.193125 4.83056 3.537193.852977.777126 1.578484 1.687054 2.29569 2.590996 1.235074 1.556646 2.44038 3.150495 3.446186 4.864236.900182 1.533774 1.60927 3.175419 2.297004 4.815484.485409 1.157571.967794 2.324875 1.28785 3.538611.509136 1.93078.674508 3.936246.99344 5.907391.421412 2.604513 1.21577 7.821227 1.21577 7.821227l2.46289-8.260856c-.22023-1.841722-.5957-3.822803-1.15648-5.667572-.898721-2.956478-2.051913-5.856225-3.515205-8.57785-1.434283-2.66767-3.201635-5.161829-5.113335-7.511092-.961968-1.182149-2.07935-2.295399-3.17776-3.287487l2.89725-5.975915-6.90499 3.00202c-1.84666-1.071536-3.76112-1.775058-5.7082-1.986186-.10626-.01151-.31513-.02849-.31513-.02849s-6.28104 1.174834-7.83287 3.430131c0 0 3.078921-.131283 4.615513-.05261 1.123861.05754 2.258623.125968 3.354197.383051 1.39001.326174 2.699428.755137 4.02762 1.457718z"/><path d="m88.209778 21.642065c-.659799-.0071-1.334245.03202-2.023649.115752-3.635635.08255-7.621451 1.403379-9.202023 5.156792v.000516c-3.717403 8.832333-7.899853 15.31318-14.559318 22.261175-3.577485 3.370102-5.617569 4.978435-7.863087 6.546369l-4.312915 2.802414c-6.366417 3.841926-13.792395 7.176588-22.440488 10.729061-.41884.108593-.69253.346599-1.01028.620117-1.91666 1.651009-3.90417 3.933094-5.2865 6.480742-.003.005-.007.0099-.0103.01498h.003c-.25307.467394-.48815.942732-.69608 1.425753-1.51398 3.51693-1.42828 7.992699.32814 13.085507 1.36147 3.948287 3.65471 7.686459 6.38618 10.582297 2.540757 2.69346 4.766804 4.77566 7.727689 6.93498 2.960912 2.15932 5.921035 3.32854 8.405689 3.68814 2.484652.3596 5.257827-.0185 7.35459-1.81694 1.456566-1.03246 3.096734-2.21056 4.056083-3.47989.806265-1.12758 1.221504-2.28266 1.593702-3.5388 2.903942-7.331851 6.108236-13.628239 9.806119-18.990055.693457-1.005495 1.404295-1.978247 2.133721-2.918685l3.536218-4.151168c1.694981-1.809625 3.407376-3.416818 7.318933-6.442501 8.614923-5.88668 16.335173-8.993986 26.102808-11.09183 3.26038-.700691 4.9318-3.460036 5.7707-6.078182.83884-2.618144 1.04096-5.6113.69659-8.780343l-1.15651-5.422925c-.9833-3.041941-2.55439-6.071386-5.46685-9.273852-2.91291-3.202464-7.339809-5.73968-11.665352-7.13238-1.70232-.871506-3.547405-1.305694-5.526794-1.32705zm-1.441773 3.816821c.502867.0072 1.022826.04165 1.557528.09922l-.384473 3.941879 4.659664-3.004986c3.759893 1.210582 7.666766 3.467101 10.621576 6.715354 1.92992 2.122364 3.27391 4.681717 4.12171 7.304463l-5.44515 4.715475 6.44302-.03204c.59401 5.466756-.84867 10.254341-3.56258 10.837582-10.15969 2.182057-18.497098 5.541033-27.512007 11.717632-4.09847 3.165227-6.037413 4.980111-7.866703 6.935493l-3.704168 4.349089c-4.915548 6.329327-8.950882 13.923473-12.500012 22.893173-.281419-1.83337-.722738-3.800937-1.344621-5.62601-.528921-1.55226-1.129849-3.085526-1.808675-4.582665l.000518-.0015-.000984.000515c-.600155-1.323548-1.260877-2.618767-1.989543-3.872116-1.522293-2.61844-3.371549-5.052702-5.360396-7.33702-1.000788-1.149468-2.15476-2.22468-3.285587-3.179651l2.696476-6.06888-6.801135 3.229776c-1.881306-1.009464-3.818197-1.64853-5.771225-1.794722-.106583-.008-.315742-.01809-.315742-.01809 8.721087-3.582451 16.323668-6.982802 22.972758-10.998295l4.474663-2.907832c2.387791-1.666256 4.644153-3.44811 8.369515-6.962367 6.969198-7.256238 11.496022-14.266438 15.365471-23.460067.790464-1.877106 3.012458-2.826531 5.873026-2.891296.163855-.0038.329503-.0045.497127-.0021zm-60.649017 50.704917c1.12297.0201 2.257123.05075 3.358456.270784 1.400097.27972 2.722809.664943 4.073653 1.322917 1.794196.873925 3.426772 2.080262 4.945952 3.374471l-6.89777 4.649329-3.551721 2.402955 4.233333.69298c2.627649.432916 4.944316 2.642538 6.323128 6.144845 1.026141 2.606028 1.011078 4.735918.538468 6.012546-.159028.48993-.400396.80677-.72812 1.18908-.383375.40785-.897892.57354-1.582333.57257-1.631116-.002-3.976618-1.23983-6.178434-3.424588-.01214-.012-.02405-.0251-.03617-.0372-.133482-.13758-.269498-.27297-.401009-.41238-2.324064-2.463933-4.412174-5.864701-5.578984-9.248533-1.53238-4.443043-1.41599-8.11629-.42737-10.412801.38212-.887676 1.09788-2.005511 1.90893-3.096969zm14.758794 7.481197c1.286209 1.514665 2.543683 3.067691 3.605981 4.746998.950742 1.502954 1.714231 3.119885 2.456181 4.736145l-4.150134 4.409549c-.03824-.299102-.08742-.602101-.147794-.908988-.120115-.610638-.284932-1.236381-.494544-1.874305-.0011-.0033-.0015-.0066-.0026-.0098-.0011-.0036-.0024-.0073-.0037-.01085-.104657-.317181-.220544-.637111-.347783-.960148-.666237-1.692863-1.565981-3.22647-2.664436-4.506184-.841811-.995514-1.829204-1.814642-2.907317-2.48047zm7.467244 12.976987c.57313 1.912755.805217 3.911523 1.189592 5.870953.19943 1.01663.465594 2.41709.72037 3.7636-.6523.47397-1.28504.88215-1.657264 1.20147-2.168675 1.86016-6.109805 1.1741-10.461377-1.39888 1.041938-.24911 1.976543-.79603 2.368848-1.15496z" transform="matrix(.99944572 .0332904 -.0332904 .99944572 -2.205265 -10.01539)"/></g></g><g transform="matrix(.99944572 -.0332904 .0332904 .99944572 2.537461 9.936424)"><path d="m62.171071 75.415527c3.8881.207826 5.35448 2.913564 6.99446 4.984704s2.85129 5.021846 4.15625 8.427735c2.60992 6.811777 6.19438 15.775204 17.10352 19.458984l7.90429 2.66798-4.54687-10.47853c4.1449.87321 8.363759.94391 12.410149-.46484l10.66602-3.714844-10.79492-3.324219c-11.668499-3.593702-14.965529-8.298751-18.757809-13.720703-3.30116-4.719785-7.06441-10.458772-15.36352-13.749566l-3.80016-1.709589-6.69329 6.687016z" fill="#4d1922"/><path d="m66.915721 67.964089-4.49438 4.634439c18.40293 3.265201 10.15952 25.752864 29.18869 32.178612l-4.54018-10.461499c6.00337 2.949603 12.34716 4.131818 17.904199 2.197135-24.875699-7.661297-17.647689-23.191914-38.058329-28.548687z" fill="#c91d3a"/><path d="m66.373047 67.003906c-2.028213 2.093495-4.058563 4.184926-6.087891 6.277344 3.625039.500245 7.41568 1.599517 9.974341 4.372233 3.309826 3.442686 4.642852 8.156499 6.406066 12.469904 1.801588 4.716221 4.288817 9.423879 8.439669 12.480383 2.502038 1.8992 5.480407 3.00707 8.43969 3.9724-1.472407-3.39622-2.946729-6.791615-4.419922-10.187498 5.095315 2.070759 10.95656 2.965856 16.2523 1.104752 1.02379-.32873 2.04361-.671509 3.06606-1.005143-4.81536-1.413123-9.528527-3.001715-13.745114-5.785788-3.58119-2.295093-6.452591-5.50987-8.87454-8.972026-2.38821-3.328046-4.598486-6.877756-7.821813-9.484375-3.244483-2.793851-7.304092-4.418433-11.410096-5.470701-.07292.07617-.145833.152343-.21875.228515z" fill="url(#bE)" filter="url(#bI)" opacity=".5"/><path d="m61.449191 70.479655 6.05864-1.130588 2.29051.519914c5.95116 1.350828 9.12684 5.236652 12.66211 9.964844 1.89333 2.532292 4.0742 5.037172 6.63963 7.60486.36164.488553.77034.643615 1.31445.84961 2.63058.991548 5.17902 1.692945 7.94436 1.104124 2.765339-.588822 5.257889-2.192608 7.496089-4.486328l4.26954-4.376953-5.85352-1.757813c-7.696669-2.312534-11.316209-5.862726-14.896479-9.628906-2.67735-2.816372-6.19741-6.220072-9.87424-8.553003-1.29678-.822807-2.51004-1.538348-4.21261-1.865986l-4.59873 2.973806c-2.1492 1.857477-4.2488 3.677216-6.01766 5.245362z" fill="#4d1922"/><path d="m74.576671 63.284175c-1.33933.922323-2.64972 1.919526-3.92767 2.97919 7.17487 1.691227 11.16777 6.524193 14.77756 11.352045 1.91721 2.564236 3.77395 5.133954 6.06914 7.431173 4.43208 1.67059 7.90958 1.165231 11.708819-2.728247-16.886419-5.07368-17.609219-16.914099-28.628029-19.034524z" fill="#c91d3a"/><path d="m74.152344 62.285156c-2.028402 1.393717-3.93389 2.95265-5.835938 4.511719 3.772347.688398 7.47497 2.163442 10.346913 4.760026 4.804596 4.158433 7.721029 9.977809 12.242931 14.40013 3.007947 1.246642 6.630364 1.550982 9.53626-.139221 1.84778-.996341 3.30071-2.542922 4.78405-3.995544-5.503865-1.441812-10.765029-4.051687-14.904563-7.999475-3.805811-3.46983-6.853132-7.950506-11.586519-10.271168-1.387653-.677781-2.879736-1.118923-4.395634-1.399279-.0625.04427-.125.08854-.1875.132812z" fill="url(#bF)" filter="url(#bH)" opacity=".5"/><path d="m54.310731 44.761565c-1.22175.921867-2.55671 1.897593-3.86327 2.746093l-6.23035 3.647939 3.68391 2.214625c3.42286 1.130491 6.45224 3.2837 8.58657 6.062213 2.54012 3.306772 3.64781 7.026037 4.3363 11.733669l1.34718 4.249428 5.15008-5.880841c2.42044-2.37252 4.50613-4.039019 7.52978-6.195489.92383-1.473752.74047-3.05188.43492-4.614592-.13858-.708739-.248-1.374994-.38582-2.095811-.55626-2.90956-1.99024-5.641515-3.86657-8.07232-1.87634-2.430805-4.09703-4.441727-6.56122-5.710883-.69911-.359963-.94023-.529151-1.5783-.743121-.71606-.240122-1.49135-.418732-2.25856-.480948-.89888-.07289-2.70238.129753-2.70238.129753-1.92336 1.623462-2.54607 2.224747-3.62227 3.010285z" fill="#4d1922"/><path d="m59.970601 45.362646c-.19476.0095-.37743.04127-.54966.08584-2.19423 1.872771-4.50902 3.579156-6.95097 5.165002.15427.06027.30597.12182.45805.188481 2.5876 1.130895 5.02717 3.13133 7.04845 5.593289 2.44707 2.981015 4.32764 6.746645 4.69481 10.54734 1.89339-1.893408 3.89158-3.642348 6.01766-5.245362.75047-1.197191.90327-2.642406.57256-4.371987-.40015-2.093031-1.58338-4.461845-3.16054-6.506475-1.57751-2.04445-3.55079-3.76636-5.3249-4.680098-1.10884-.570926-2.04363-.812738-2.80564-.776211z" fill="#c91d3a"/><path d="m59.712891 44.308594c-1.244835.146715-1.958159 1.331621-2.960227 1.952972-2.094839 1.65238-4.324669 3.121132-6.553445 4.584137 2.749911.91128 5.310869 2.398793 7.35781 4.460664 3.392345 3.373846 5.855088 7.848897 6.182 12.682033.115777.406176-.106643 1.738583.463042.905004 2.289661-2.320181 4.691813-4.539561 7.305741-6.49106 1.559291-2.432401 1.014635-5.545124-.08549-8.043059-1.801135-3.990765-4.835988-7.569677-8.831053-9.473724-.90259-.403923-1.88595-.633894-2.878382-.576967z" fill="url(#bD)" filter="url(#bG)" opacity=".5"/><path d="m60.456747 41.610977c-.93879-.0378-2.523746.140337-2.523746.140337-1.923356 1.623458-2.546216 2.224549-3.622414 3.010085-1.221746.921865-2.5568 1.897621-3.863356 2.746119l-6.229955 3.648136 3.68364 2.214686c3.422854 1.130489 6.452588 3.283489 8.586914 6.061996 2.540114 3.306766 3.647558 7.025986 4.336046 11.733608l1.347043 4.249527c3.888088.207826 5.35463 2.913546 6.994604 4.98468 1.639977 2.071134 2.851137 5.021918 4.156094 8.427795 2.609911 6.811759 6.194641 15.775374 17.103748 19.459124l7.904219 2.66809-4.546928-10.47851c4.144888.87321 8.363874.94365 12.410234-.4651l10.6659-3.714957-10.79491-3.324336c-3.44556-1.061172-6.15703-2.219561-8.370965-3.464378.22088-.03126.442628-.06775.666184-.115346 2.765341-.588819 5.257501-2.192802 7.495701-4.486513l4.26978-4.376804-5.8534-1.758015c-7.696642-2.312528-11.316338-5.862691-14.896599-9.628859-2.677341-2.816363-6.197304-6.220183-9.874122-8.553108-1.296777-.822804-2.510265-1.538086-4.212832-1.865724l-.0016.000982c-.138578-.708737-.248418-1.374731-.386238-2.095546-.55626-2.909556-1.99017-5.641443-3.866496-8.072242-1.876338-2.430801-4.096716-4.442015-6.560902-5.711169-.699108-.359961-.940563-.528875-1.578631-.742845-.71606-.240122-1.491274-.418896-2.258482-.481112-.05618-.0046-.115961-.0081-.178547-.0106zm-.192675 3.750991c.704571.02962 1.541588.276955 2.511822.776514 1.774108.913737 3.747333 2.635913 5.324842 4.680361 1.577158 2.044628 2.760507 4.41334 3.160657 6.506369.330709 1.729579.178267 3.175064-.572202 4.372254-2.126078 1.603012-4.124514 3.351725-6.017902 5.245131-.367169-3.800691-2.247506-7.566532-4.694573-10.547544-2.021278-2.461956-4.4612-4.462092-7.048798-5.592986-.15208-.06666-.303764-.128199-.458034-.188468 2.441948-1.585845 4.756865-3.292159 6.951093-5.164928.17223-.04457.354632-.07664.549392-.08614.09525-.0046.19305-.0048.293703-.000558zm14.584869 17.978673c10.757477 2.262876 11.61079 13.946487 28.355819 18.977685-3.641184 3.731499-6.987537 4.349481-11.161249 2.923914-1.853459-1.872601-3.258707-3.876708-4.737261-5.990644-3.301148-4.719773-7.064699-10.458506-15.363785-13.749288l-.0061-.0028c.891934-.693869 1.842003-1.395306 2.912588-2.158878zm-7.337018 6.009343 2.286183.518746c5.951142 1.350822 9.127343 5.236808 12.662601 9.964985 1.893324 2.532286 4.074063 5.037479 6.639487 7.605158.132739.179323.272039.313058.421835.421487 3.306067 3.272913 7.897236 6.325853 15.451861 8.652549-5.557033 1.934677-11.900811.752437-17.904163-2.197157l4.540265 10.461228c-18.356872-6.198733-11.33757-27.341939-27.339083-31.759445l3.050266-3.482596c.06405-.06278.12714-.123137.190748-.184955z" fill="#4d1922"/></g></svg>