<svg height="500" viewBox="0 0 500 500" width="500" xmlns="http://www.w3.org/2000/svg" xmlns:xlink="http://www.w3.org/1999/xlink"><linearGradient id="a" gradientUnits="userSpaceOnUse" spreadMethod="repeat" x1="203.01116110715" x2="203.01116110715" y1="378.50782032205" y2="381.08510658099"><stop offset="0" stop-color="#d3b879"/><stop offset=".34885058" stop-color="#ebd6ad"/><stop offset=".5" stop-color="#ebd6ad"/><stop offset=".74770111" stop-color="#ebd6ad"/><stop offset="1" stop-color="#d3b879" stop-opacity=".75"/></linearGradient><filter id="b" color-interpolation-filters="sRGB" height="1.016027" width="1.003691" x="-.001845" y="-.008013"><feGaussianBlur stdDeviation=".23601584"/></filter><radialGradient id="c" cx="418.2005" cy="790.67999" gradientTransform="matrix(.2069623 .10100165 -.20889522 .42804711 247.52618 68.507278)" gradientUnits="userSpaceOnUse" r="164.77657" spreadMethod="reflect"><stop offset="0" stop-color="#c1a76c"/><stop offset="1" stop-color="#c7b27f"/></radialGradient><linearGradient id="d" gradientUnits="userSpaceOnUse" x1="59.079338" x2="117.71146" y1="207.26978" y2="186.45172"><stop offset="0" stop-color="#162d50"/><stop offset=".25" stop-color="#162d50" stop-opacity=".25"/><stop offset=".4" stop-color="#162d50" stop-opacity="0"/><stop offset=".6" stop-color="#162d50" stop-opacity="0"/><stop offset=".8" stop-color="#162d50" stop-opacity=".25"/><stop offset="1" stop-color="#162d50" stop-opacity=".6667"/></linearGradient><clipPath id="e"><path d="m87.808256 51.86939 109.342694 310.02719 266.97678-1.09914-109.37288-310.024627z"/></clipPath><clipPath id="f"><path d="m169.17491 333.35314-85.41339-241.288528-5.91802-16.75647-6.930357-21.547789c-27.01287 13.24718-47.253923 54.006917-40.095203 73.914447l3.89262 10.54917 12.69313 34.42048 77.31218 210.69759 10.75764 29.21541 13.50799 36.63521 2.39525.002c-5.65587-24.96008 5.82915-56.36641 31.64539-77.56183l-7.99667-21.69112z"/></clipPath><radialGradient id="g" cx="594.92407" cy="-581.79492" gradientTransform="matrix(-2.3446963 2.0292601 -2.0210241 -2.3351845 1085.5722 -2039.8542)" gradientUnits="userSpaceOnUse" r="66.145836"><stop offset="0" stop-color="#d7e3f4"/><stop offset="1" stop-color="#3771c8"/></radialGradient><filter id="h" color-interpolation-filters="sRGB" height="1.095195" width="1.013594" x="-.006797" y="-.047597"><feGaussianBlur stdDeviation=".5860215"/></filter><filter id="i" color-interpolation-filters="sRGB" height="1.043881" width="1.016116" x="-.008058" y="-.02194"><feGaussianBlur stdDeviation=".74137584"/></filter><g id="j" transform="translate(-1100.1603 -370.43812)"><path d="m732.82625 371.53469-.031 310.02719 267.36455-1.09914v-310.02462z" fill="url(#g)"/><path d="m-108.75391.03515625-14.92187.0625c.6486 9.86618435.71393 19.81127275-.0898 30.03320275-1.14038 8.032593-2.28167 15.498656-3.99219 23.53125-2.88437 12.05729-6.90746 22.959992-12.64258 33.876953-16.065 30.416558-43.0646 55.108588-75.77149 64.294918v-1.15429c24.69122-10.33339 44.78028-26.97457 59.70508-50.51563 2.28056-3.441103 4.02584-7.463735 5.73633-10.908201 6.30526-10.906892 9.7584-21.810458 12.03906-33.871093 0-1.143681 1.17383-1.724056 1.17383-2.871094 3.22742-17.743721 4.12565-35.194457 2.21485-52.36914075l-14.14258.0585938c2.80776 18.343334 2.59264 37.215154-.71485 56.332031-2.85079 12.630802-6.30591 24.68559-12.04101 36.166016-3.45459 6.315385-6.90897 12.053738-10.9336 18.369138-12.04037 16.64544-26.39116 28.70179-43.61328 37.88477-.57328 0-1.14843-1.7168-1.14843-1.7168 10.32987-5.74189 18.93697-13.20639 26.98632-21.8125 13.18062-14.35471 21.79969-31.578477 27.56836-49.951171 7.26776-24.878236 7.61701-50.517549 2.63868-75.22656212l-14.16797.0585937c2.6577 9.70988838 4.50368 19.66740838 5.1914 29.82421838 1.71051 25.254893-2.28135 50.512398-13.78515 73.476561-1.14026 1.72392-2.28133 3.44406-2.85157 5.16797-.57041.5769-1.17403 1.72141-1.74414 2.29492-.57045 1.15039-.56875 1.72071-1.13867 2.8711-8.61936 12.05729-16.64277 23.53437-29.27344 31.57031 0 0-.57125-.57099-1.14453-1.14453 10.3333-7.46581 17.21892-17.80154 23.54102-28.70508 21.76625-36.272439 23.19017-77.303669 10.71289-115.31250062l-14.3711.0585937c.0702.15088134.13649.29212857.20704.44335938 4.02127 9.7564995 6.30296 18.9425555 8.61718 29.2792965 7.44552 40.756637-1.74389 83.232841-29.85937 113.085941 0-.57015-.57031-1.14258-.57031-1.14258 15.4982-20.67011 23.51968-43.057464 25.26367-67.742189 1.6486-25.561492-4.21345-50.916488-15.30664-73.87499975l-14.5918.0585938c6.14695 10.32071 11.20689 21.339686 14.96484 33.056641.57707 2.297417.5764 4.016474 1.72657 6.310546.57326 1.153745.57226 2.298825.57226 3.449219.57327 1.147033 1.14453 1.72406 1.14453 2.871094 6.88892 33.294204 4.02144 65.440575-15.49804 94.716795 0 0-.57272-.57422-1.14649-.57422 6.31538-12.05391 10.33154-24.68449 12.62891-38.45898 1.7205-12.06064 1.7205-24.107341 0-36.16797-3.45184-23.844185-12.93722-45.95368-26.51953-65.15234375l-16.31446.0664063c19.28576 21.8142545 32.68468 48.6629235 36.51954 78.2910155 2.29405 20.666749.57404 41.335902-8.03516 60.275392-.57328 0-1.15039-.57227-1.15039-.57227 0-1.72391 1.14911-3.44602 1.72265-5.16992 5.74179-22.38731 5.16623-45.348313-1.72265-67.162108-5.16167-15.498392-11.48439-29.281449-21.24414-42.482422-1.72059-1.717195-2.86526-3.445464-4.01563-5.166016-5.4182-6.502963-11.15623-12.4365059-17.16015-17.9511715l-20.2168.0820313c14.70803 10.17753725 27.45936 22.54261025 38.52734 37.95898425 21.23673 29.853104 29.85114 63.724772 22.38868 99.316402h-1.72071c2.29074-10.91025 1.14373-21.24068 0-32.15429-1.72057-14.347993-6.31813-26.976063-13.20703-39.603518-7.45902-14.924873-17.79374-28.132169-30.42773-40.189453-10.3299-9.17964-21.23725-16.6476479-33.29102-23.5332034-1.1538-.5734721-2.29683-.5734682-3.44726-1.1503906-.37637-.1978451-.76489-.3589057-1.14258-.55273438l-42.20117.17382818c19.87164 4.3372564 38.44746 11.8542812 56.54492 22.1992192 1.15367.570143 1.15376 1.720855 2.30078 2.291015 39.03574 24.114566 65.44111 66.595222 63.15039 111.943357h-1.1543c-1.72061-34.4446-18.94333-65.44262-44.77148-88.410154-1.72394-1.143677-3.44692-2.294522-5.16406-4.011718-.57708-.576895-1.72995-1.152496-2.87696-1.722657-.57708-.576894-1.14731-1.721403-2.29101-2.294922-24.2487-17.242435-50.53944-26.810185-78.83399-29.832031v14.589844c28.87169 2.578173 56.34622 11.93134 81.125 30.167969 27.55541 20.089888 45.92688 48.792979 51.0918 81.513669h-1.72266c-9.18295-39.032737-36.7393-67.740588-71.18359-84.962888-4.01796-1.717196-8.03615-3.446167-12.05078-4.589844-15.27742-6.03881-31.21289-9.426153-47.26172-10.597656l-.002 13.927734c8.98897.364242 18.0299 1.388511 27.16406 2.988282 1.1538 0 1.7265 1.142578 2.87695 1.142578 29.84947 6.315404 55.68158 20.09107 75.20117 43.058593.57328.57348 1.72137 1.147195 2.29493 1.720701 9.18627 12.0573 17.22167 23.54068 21.23632 37.88867 0 0-.57272.57227-1.14648.57227-17.79566-40.759998-57.40482-67.73859-101.60547-74.630859-8.67532-1.299776-17.34863-1.941074-26.02148-1.931641l-.002 13.037109c27.72368-1.404069 55.65573 4.084692 80.55274 18.748047 19.52293 11.483774 34.44869 26.412084 45.35547 45.351564-.57327 0-1.72461.57422-1.72461.57422-18.93939-28.1292-45.34391-44.201617-77.49414-51.664065-15.67805-3.377733-31.35199-4.191282-46.68946-2.841797l-.002 12.607422c2.72639-.410574 5.4559-.806671 8.22461-1.152344 43.05712-4.594843 87.25896 10.903064 114.81445 44.197264-.57328 0-1.14648.57617-1.14648.57617-26.40849-25.8351-62.57486-38.4661-98.73633-36.74218-7.83481.41185-15.56134 1.48679-23.1582 3.08593v12.20704c34.5896-9.8979 71.73486-7.96952 104.09765 11.11718 3.44439 2.29406 6.31534 4.58999 9.75977 6.31055 2.29737 1.15039 4.01569 3.44462 6.3164 5.17187 0 0-.57812.571-.57812 1.14454-6.31193-4.5915-13.20291-7.46305-20.0918-11.48438-4.5881-1.71721-9.18388-3.44015-13.77539-5.16406-25.83151-8.03595-52.8176-6.88351-79.22265.57226-2.20538.65563-4.36183 1.3918-6.50782 2.14454v12.50585c14.87486-6.76972 30.53897-10.95861 47.27149-12.34961 24.68115-1.72389 49.93962 2.872 71.17969 15.4961-.57708.5769-1.1504 1.1543-1.1504 1.1543-8.60939-4.59149-17.21877-6.89273-26.97851-8.61329-12.05046-2.87094-23.538-2.87038-35.5918-2.29687-19.58287 1.6317-37.99875 7.76885-54.73242 17.03125l-.002 13.74414c7.46683-5.17967 15.39125-9.73651 23.73828-13.55469 10.32989-4.59484 20.65893-7.46571 32.14258-9.75976h3.44531c19.52291-4.01799 39.03898-1.14268 57.4082 5.16601 0 .57346-.57226 1.15039-.57226 1.15039-33.29721-8.03595-66.02614-2.86808-95.29883 13.77735-7.52112 4.38746-14.41919 9.24593-20.86328 14.60156l-.002 16.2207c11.78515-12.78315 24.96313-23.22383 40.95899-30.82226 12.0538-5.74189 24.11079-10.33358 37.31836-12.05078 12.62395-1.72726 24.67784-1.72726 37.30859 0v1.71679c-32.72039-2.87095-65.4472 8.61005-91.27539 30.42383-9.27823 7.76401-17.34624 16.47972-24.3125 25.91016l-.002 24.5664c22.27915-44.0028 64.47248-77.9433 115.01758-79.17968v1.72851c-43.05369 4.5915-79.79627 32.14577-100.46289 70.03516-.57327 1.13966-.57332 2.29135-1.15039 3.4414-6.21476 11.01828-10.46952 22.45738-13.40821 34.17383l-.004 42.07031c1.70896 1.69225 3.44509 3.39114 5.34765 4.95508l4.37696-.0176c-1.12234-14.86417 1.01245-28.87162 3.6875-43.86523 4.59817-23.53771 13.7773-43.63134 28.13867-62.57422 18.93926-24.1112 43.05159-40.76008 73.47461-46.50195 0 0 .57226.57292.57226 1.14648-8.03591 2.29743-16.07596 5.74321-24.11523 9.75782-1.71716 1.15375-3.44074 1.72655-5.16797 2.87695-13.20084 8.0326-23.52931 17.79175-33.28906 29.8457-13.7777 17.79917-22.38832 36.16887-27.55664 57.98633-1.71715 9.1867-3.44399 18.36835-4.01758 27.55469-.36971 7.77321-.22724 15.77931.20312 23.72265l14.59766-.0586c-3.36805-28.78181.52204-58.35676 12.7539-85.08984 13.20425-29.27894 37.30843-52.8166 67.16797-64.86719v1.72265c-54.64301 26.83009-77.23792 90.53969-68.73242 148.1875l14.08985-.0566c-3.4967-16.97354-4.50426-34.42102-2.19141-52.26562 5.16829-38.46258 25.26145-74.05185 57.97851-94.14844 0 .57346.57227 1.15039.57227 1.15039-21.23676 16.07191-35.59083 37.31585-43.05664 61.42774-9.0756 27.61814-9.12942 56.47161-2.22852 83.78906l13.86524-.0566c-15.93118-49.64611-9.05644-107.01491 32.56836-143.43946 0 0 .57575.57813 1.15234.57813-16.64862 18.36598-27.55431 40.18259-31.57226 65.4375-2.30412 16.07526-1.72814 31.57472.57617 47.65234 0 1.14769 1.14453 1.72082 1.14453 2.86719 1.44316 9.53369 4.05806 18.33843 7.46289 26.85742l14.23828-.0586c-3.56937-7.29572-6.6647-14.8631-9.07422-22.77734-.57042-2.2941-.5712-4.02161-1.72461-6.31836-.57326-1.14369-.57226-2.29504-.57226-3.44141-.57042-1.15042-1.14649-1.72462-1.14649-2.875-8.03925-37.88604-2.2946-75.7733 21.81641-105.62305 0 0 .57271.57227 1.14648.57227-16.64531 24.1112-21.81698 53.96121-18.36914 82.66992 2.64677 20.59047 9.53849 40.11454 19.70117 57.74609l15.1504-.0625c-.52362-.68899-1.02262-1.29042-1.55664-2.00195-7.45563-10.3367-12.05378-20.66591-17.21876-32.15039-1.72391-4.01796-2.30229-8.03611-4.01953-12.05273-9.18629-31.00416-7.46378-64.29925 7.46094-93.00196 0 0 1.1491.57813 1.72266.57813-15.50162 35.58827-10.90683 76.3514 7.45898 110.79297 5.47612 10.10611 11.97583 19.3454 19.26172 27.78125l18.1875-.0742c-8.67116-7.66978-16.29926-15.878-22.51758-25.98633-10.90679-12.62677-16.64811-28.70285-21.8164-44.77539-3.44441-13.7785-4.59115-27.55614-4.01758-41.33399.57329-8.0393 2.29377-14.92693 4.01758-22.96289.57326-1.14703-.57434-2.29882 2.29297-2.29882-8.0325 36.742 1.7309 74.63232 25.26171 105.05859 1.72047 1.7202 2.86723 3.44114 4.01758 5.16406 8.86652 10.42981 18.72631 19.37013 29.37891 27.06641l26.28125-.10742c-16.42798-8.05561-31.63076-18.78428-45.32617-32.12305-2.87097-3.44448-5.73846-6.31396-8.60938-9.75977-22.38713-26.98184-33.29813-60.85299-29.27344-94.7207.56664 0 1.72071.57227 1.72071.57227-1.15368 25.83176 6.30886 49.94397 21.24023 72.33398 4.01463 6.31872 8.03285 11.4868 13.20117 17.22266 4.60152 4.59048 9.19652 8.60933 13.75782 13.20117 12.64408 10.33673 25.85847 18.3728 40.7832 24.6875 8.54403 3.49924 17.11761 6.17248 25.85937 8.44922l16.0625-.0664c1.61219-1.44132 3.21588-2.8827 4.78516-4.32422v-6.90039c-17.04888-1.7125-33.26085-6.05803-49.02148-12.66211-2.28063-1.14634-3.99049-1.72138-6.30469-2.86914-18.94934-9.18262-35.01526-20.66304-48.79297-36.73828-2.87095-4.02069-6.31463-7.46225-9.18555-12.05273-2.29737-3.44849-4.01846-6.89747-6.3125-10.33789-1.72383-3.44481-3.44737-7.46179-5.16797-10.90625-5.16831-12.62744-8.61391-25.26264-9.1875-39.03711h1.15235c5.73846 34.44459 24.10945 63.14843 52.80859 83.82226 24.73175 17.59277 51.85324 26.42001 80.01172 28.96485v-14.38672c-3.35052-.2331-6.68469-.51964-9.98242-.80664-12.61062-1.15172-24.68421-4.59322-36.72461-8.61524-4.0246-1.72019-8.04959-3.43875-12.07422-5.15625-35.01444-16.08164-62.56049-47.08238-72.32031-84.39453h1.7207c9.18625 27.55228 27.5561 49.94195 52.82422 65.44336 4.02459 2.29407 7.4459 4.01866 10.90039 6.31641 20.76466 10.19477 43.13502 15.50393 65.65625 16.29101v-13.88476c-40.64652.33799-81.35721-13.3744-108.71094-46.04102-.57326-.57357-1.72391-1.14382-2.30078-1.7207-6.88547-8.61282-12.62656-17.21921-16.64453-26.98242 0 0 .57323-.56836 1.15039-.56836 13.77439 24.68064 35.5956 43.05587 61.41992 53.96289 20.61553 8.42852 42.92805 12.06651 65.08594 11.16992v-12.73633c-18.5027 1.76405-37.38438.34557-55.89648-4.75195-16.63525-4.58815-31.59205-12.63022-45.34961-23.53711-9.18628-7.45907-17.22704-15.49656-23.53907-25.25977.57329 0 1.14844-.57226 1.14844-.57226 17.22218 20.0899 38.46218 33.87027 63.7168 40.75586 20.04226 5.16313 40.23833 6.26979 59.91992 3.48828v-12.21094c-29.76622 6.52623-60.76386 4.04424-89.19922-9.64258-1.71039-1.15038-3.45563-2.30147-5.16601-2.875-.57042-.57346-1.70916-1.14327-2.2793-1.71679-1.17384-.58023-1.74586-.58023-2.88281-1.15039-8.6094-5.7419-15.49985-10.33247-22.38868-17.79493 0 0 .57652-1.15429 1.14649-1.15429 1.72723.57348 2.87447 2.875 4.02148 4.02539 31.00324 24.10785 68.90225 30.42604 106.76758 22.38672 3.51919-.75224 6.76147-1.53551 9.98047-2.38477v-12.34375c-39.35787 15.23165-83.02049 12.83757-119.61523-12.82813 0 0 .57226-.57633.57226-1.14648 37.26137 21.73467 81.10482 19.9265 119.04297 3.2793v-12.46101012c-13.04167 7.33105-27.28988 12.86891-42.68164 16.06641-25.8583 4.59485-51.68403 2.87439-75.21484-8.60938 0-.57358.57421-1.14648.57421-1.14648 24.66778 8.61283 50.52656 9.1858 75.78125 2.29687 14.35463-4.02132 26.96547-10.33655 40.17969-18.36914.47991-.31893.89728-.63983 1.36133-.95898v-14.91992c-7.42523 6.39791-15.32771 12.1731-24.33594 17.02343-28.67564 15.50174-61.41083 21.24243-92.41406 13.20313 0-.57013.57813-1.71875.57812-1.71875 26.97178 5.165 53.39958-.001 77.48047-12.0586 14.69677-7.5182 27.53353-17.32436 38.69141-29.07812v-19.552736c-10.62125 14.972256-23.44863 27.817916-39.83203 38.874996-5.16489 3.44445-10.89949 5.73773-16.06445 9.18555-5.16501 2.86758-10.89966 4.02107-16.63477 5.73828-13.78447 4.59149-28.14557 7.4668-43.07031 5.16602v-1.14453c18.38598-.57348 36.73157-5.16437 53.40039-13.20703 1.71039-1.14367 3.4201-1.71735 5.16406-2.8711 12.04051-6.88892 21.80079-14.92232 31.56055-24.68554 2.88433-3.44447 5.73481-6.31196 8.61914-9.75977 1.14038-1.72056 2.28139-3.44351 4.02539-5.16406 4.83766-7.179493 9.07486-14.420249 12.83203-21.751956v-40.4375c-4.39754 22.554145-13.38405 43.943051-27.75781 63.910156-21.8337 29.27623-52.82266 48.22897-87.84375 52.24023v-1.7207c19.52624-4.01797 36.73134-11.47661 52.25976-24.10742 16.0651-13.20767 28.10531-28.13332 37.29492-45.925782 12.90441-26.349501 18.62229-54.893572 17.29297-83.48242175z" fill="#3771c8" fill-rule="evenodd" transform="translate(1100.1603 370.43812)"/><g stroke-width="1.08491" transform="matrix(.92173548 0 0 .92173548 68.259209 58.367195)"><path d="m832.78226 446.15188-4.71595 1.27478c-37.04905 10.00357-63.61988 31.96941-72.54958 57.00451-4.46485 12.51755-4.11738 26.1485 2.38041 37.85565s18.62462 21.02741 35.7687 26.977l.0178.007.0178.004c4.34768 1.4892 8.93555 2.67472 13.74037 3.71219 18.65782 7.41042 32.50023 25.02128 35.38272 41.55477-11.52844 9.10735-20.77052 20.56412-28.7602 32.78643l10.19453 15.0058-39.32483 22.39096h83.42262 7.9973 82.45439l-38.40332-22.32086 10.24406-15.0759c-9.27157-13.07504-18.99932-24.90987-29.10974-33.05559 2.98186-16.45975 16.78972-33.92444 35.35468-41.29215 4.8001-1.03654 9.38552-2.21595 13.72636-3.70565l.0149-.004.014-.007c17.14475-5.94892 29.27252-15.26647 35.77152-26.97326 6.49897-11.70679 6.84884-25.34147 2.38508-37.85939-8.92819-25.03578-35.49756-47.00008-72.54769-57.00451l-4.71969-1.27478-3.51406 3.39817c-10.0884 9.75203-11.72511 22.93373-7.65431 33.09391-5.55158-11.10536-15.67698-18.82713-27.87421-18.82736-18.50298-.00033-32.46212 17.60227-32.46212 38.16687 0 3.58669.56585 7.01006 1.37105 10.32444-6.46523 3.16938-13.80971 7.12299-20.89 7.12533-4.17541-.0647-5.74674-1.15166-7.13936-3.08041-2.13979-2.9636-2.92918-10.689.26917-20.62832 3.11976 1.47683 6.37874 2.33425 9.64592 2.2776 7.1664-.12426 13.34349-3.97808 17.29463-9.159 7.90227-10.36184 8.00442-27.41267-4.28791-39.29306zm68.85514 39.30427c.63628 1.17627 1.30034 2.33596 2.10189 3.38696 3.95121 5.18083 10.12822 9.03481 17.29463 9.159 3.26824.0566 6.52907-.79971 9.64966-2.2776 3.18189 9.88537 2.42015 17.58403.30468 20.5685-1.37851 1.94478-2.91366 3.02594-7.00197 3.13275-8.80543-1.16477-14.0919-3.30381-20.48345-6.78887.85781-3.41268 1.4589-6.94743 1.4589-10.65342 0-5.89192-1.254-11.46624-3.32434-16.52732zm-29.28919 159.35262c8.43234 0 13.57204 3.9088 15.6161 8.35805 2.04407 4.44924 1.89856 10.04749-4.90661 16.85256l-10.70295 10.70669-10.70294-10.70669c-7.53106-7.53181-7.43766-12.88387-5.35802-17.10022 2.07964-4.21636 7.65487-8.11041 16.05442-8.11039z" fill="#162d50"/><path d="m810.4021 564.88103c23.37176 9.1783 40.27663 31.41901 41.64741 53.1533-15.57312 10.73054-27.63421 29.19773-27.63421 29.19773l12.21166 17.97374-19.15391 10.90432h38.08941c-18.78448-18.78636-5.46458-39.91247 16.78637-39.91247 22.55533 0 34.3604 22.35314 16.8008 39.91247h37.69722l-18.76126-10.90432 12.21306-17.97374s-12.25627-18.77012-28.01153-29.45885c1.48881-21.65158 18.35466-43.75059 41.63253-52.89265 4.97483-1.02538 9.54723-2.25798 13.90378-3.75308 62.87907-21.81792 36.03763-86.52551-33.8123-105.38667-18.92249 18.29155 3.03898 47.24257 20.2719 26.42542 17.14651 32.09501 3.99759 59.27773-33.5867 38.75096-5.52034 11.37914-15.89792 19.22263-28.20018 19.22263-12.40822 0-22.84715-7.9759-28.33124-19.51347-37.99833 21.08383-51.35215-6.21272-34.12434-38.46012 17.2348 20.81669 39.19534-8.13433 20.27076-26.42472-69.84784 18.85953-96.69677 83.56527-33.82044 105.3855 4.36354 1.49464 8.93826 2.72864 13.91121 3.75402zm38.24413-62.89702c0 16.75185 11.12526 29.26789 23.85178 29.26789 12.72604 0 23.85036-12.5165 23.85036-29.26742 0-16.75278-11.12432-29.55361-23.8506-29.55385-12.72628-.00023-23.85154 12.80247-23.85154 29.55338z" fill="#c1d4ee"/></g><path d="m772.92188 386.16016c-8.73319 4.03678 2.11847 8.828 2.30643 12.82677.36343 6.22462.40226 12.45666.38499 18.6908-6.34778-3.3804-15.85929-2.0527-22.60556-2.15039-6.54629 6.85031 6.01295 9.91978 5.72266 13.8086 2.22374 10.33081-3.64138 24.61641 3.40464 32.24325 9.6017-3.52902 6.3841-15.52895 8.63552-23.05402 2.08407-4.69025 4.07294-15.84305 4.8639-16.72455.0495 13.64199.20769 27.32935.13892 40.94157 1.57399 8.39999 10.17011 3.32667 8.77294-1.15035 2.24109-10.43542 1.9333-20.54246 4.31774-31.14063 1.32342-13.13882.87575-26.43569 1.56842-39.54261-2.71104-8.17667-16.46059-1.743-17.51069-4.74846zm135.30468.22851c-6.66729.25751.74386 9.27256-3.5 2.66797-.28392 6.49741 9.02542 7.2632 5.42098 14.66896-.0195 18.75219 2.34517 37.49481.70403 56.23338-1.77871 7.01803 9.47467 10.96484 8.81446 1.83985 2.28599-10.67557 2.17733-21.72083 4.43729-32.3907.99532-12.85984.91124-25.82446 1.22677-38.66594-1.89964-7.3944-11.86466-2.09202-17.10353-4.35352zm-32.60742 1.06836c-7.61512 2.65823-1.83449 12.54104 4.37504 12.78907-1.00089 8.5968.14393 17.65675-.54172 26.43318-2.60736 8.87837 8.20203 9.14378 9.56711 1.37003 2.3552-7.72361.62069-16.22325 4.41999-23.59615.95631-5.3891 7.07832-16.99644-3.12543-16.00926-4.95095-.0232-9.90187.62921-14.69499-.98687zm-73.58008.875c-8.23344 1.23323-4.09317 12.14661 2.82615 12.57419-1.29088 9.38319.63348 21.42065-.80339 29.50502 2.4043 10.71759 13.06086-1.83422 11.01457-8.35312.58896-5.61815.47096-11.51117 3.54866-16.48271.54966-6.00799 6.97544-18.11922-4.47589-16.23449-4.04466.0466-8.2216.34563-12.1101-1.00889zm148.22656 3.07031c-6.82295 4.69453 2.18136 12.18155 5.69532 12.5393-1.25212 10.13794.11072 20.92632-.84767 31.21484 7.52272 8.1263 12.03466-7.53885 11.23928-13.66434.25125-9.429 6.01187-18.17799 5.55566-27.3591-6.2051-3.92158-14.74148-.33805-21.64259-2.7307zm-96.51367 4.24024c-9.07164.77737-3.60865 12.43421 3.07227 12.64257-1.0744 8.02067.24621 16.53839-.45726 24.76281-2.58442 6.54648 3.96705 12.10463 8.10979 5.83094 4.59757-7.76502 1.35999-17.69008 5.71192-25.52518 1.01178-6.37179 7.21062-18.20987-4.24268-17.03042-4.05893-.0947-8.26161.67481-12.19404-.68072zm92.94922 17.88476c-6.80281 1.52655-19.66718-3.61492-21.23728 4.74245 1.54093 5.98213 10.46394 3.5255 6.91002 11.07894 4.72537 10.85664 13.2872-2.35752 16.69024-7.38484 1.96559-2.59393 1.6062-7.90323-2.36298-8.43655zm-50.14648 25.53711c-7.32506 1.68547-15.11835-.35715-22.48564 2.32551-13.84956 2.27237-28.05121 1.89251-41.87965 4.55154-9.34299.97969-2.12065 11.65187 4.4898 8.41722 16.34098-.26075 32.70796-.16766 49.02831.22197 3.09199 1.50168 15.53264 9.47689 13.58078-2.37418-.97969-4.15849 2.03316-10.67773-2.7336-13.14206z" fill="#c1d4ee" filter="url(#i)"/><path d="m907.704 389.34221c4.49473.79717 9.10142.59312 13.6428.40766 2.37214 1.41062.2117 6.16015.85707 8.74265-.3036 10.90234-.23319 21.84017-1.27126 32.70446-1.50271 5.31861-1.60292 11.00459-2.31118 16.49915-.36659 4.5089-.82895 9.00196-1.87484 13.41014-.23972 1.19537-.47943 2.39074-.71914 3.5861-3.829-1.74676-1.29455-7.13067-2.04753-10.49204 1.87681-20.20275-2.35036-40.98965-.42207-58.65495-1.71169-2.4761-6.21981-2.32568-5.84552-6.19901zm43.90391 4.7436c3.16439 1.8259 6.80886 1.15511 10.27104 1.27712 2.45523.10109 4.9649-.21491 7.38198.18243.53418 1.00095-.58784 2.36978-.73698 3.51708-.92 2.45748-1.4879 4.98236-1.62899 7.60822-4.22849 8.08747-3.14865 17.59937-5.2629 25.58625-1.80516 2.57094-4.58871 4.13587-3.47019-.22288.5973-9.49342.46194-17.64826.0316-26.08924 2.77675-3.09126-1.41096-5.73858-4.23032-6.17821-1.33202-.35022-2.045-1.74133-3.087-2.57919-.0708-1.00346.22496-2.84799.73174-3.10158zm-4.93919 22.44084c1.62492 2.03534-.1925 4.54849-2.13338 5.5336-1.94937 2.54378-2.90051 6.50473-5.64127 8.02584-2.04269.7747-4.1104.76362-3.38427-1.82283-.3225-2.09007.6732-4.05022 1.00614-5.97246-1.89222-2.91596-7.97374-.54228-8.27772-5.5817 5.91389.0364 12.17968-.25182 18.4305-.18245zm-70.70358-26.08976c5.93738 2.45858 11.85455.36676 17.4701 1.32274-1.38934 5.83154-2.49176 12.14471-4.8363 17.1916-1.74904 6.57298-.25765 14.87183-3.39458 20.23613-.90445.71623-1.66581 1.79456-2.65363 2.29986-.3885-8.38579.58017-17.65049.0298-25.31214-.0709-1.4147-.14185-2.8294-.21278-4.2441 2.75724-3.24975-2.52898-5.57695-5.21358-6.02071-.68261-.87189-1.72667-1.60285-2.19521-2.55823.15431-.83385-.19227-2.77582 1.00614-2.91515zm-23.23249 8.02763c5.87621 2.12228 11.90804.29103 17.4701 1.18589.60456 2.1551-1.70295 4.89095-1.82647 7.4108-.43245 3.28877-.78839 6.16779-2.70112 8.9181-1.69529 6.95023-.83341 14.53357-3.24706 20.70762l-2.92693 2.73668c-.82712-2.32022.0852-5.61557-.12469-8.28275.26823-7.06041.31897-14.13364-.24118-21.18226 2.69563-2.81981-1.75438-5.41955-4.32178-5.81332-2.37156-.72341-4.22412-3.75316-2.08087-5.68076zm43.53804 47.04733c-.0565 3.55362.11247 7.16032-.0836 10.68108-2.65698.20592-4.51183-2.95921-7.12653-3.42226-1.11807-2.22824-3.44404-1.01735-5.24075-1.06616-17.28216-.90275-35.89127-.33605-51.66712-.33067-2.50444-.45325-2.01517-2.75038.42124-2.46052 12.27853-2.11863 24.75948-2.71227 37.16746-3.66861 5.21336-.7948 10.34917-2.2871 15.64282-2.67825 3.39635-.18235 7.74368 1.72485 10.15476-.67982 1.39086.50062.46316 2.44509.73173 3.62521zm-123.20534-56.16964c4.23077.83541 8.57906.54882 12.86247.44472 3.12478.36768.51251 5.83394 1.26509 8.11652-.34218 11.09887-.26956 22.24047-1.41916 33.29353-1.52614 5.54732-1.68293 11.47263-2.39899 17.20563-.30668 4.85252-1.10139 9.62011-2.14603 14.3641-.0743 4.43385-3.58332-.53082-2.40261-2.64084-.0942-18.07087-.01-36.14822-.27124-54.21483-.1694-3.63794-.56024-7.2921-.35311-10.913-1.7618-2.09742-6.81414-2.32453-5.22788-5.83827l.0889.17744zm45.42454 3.056c.005 2.99838-2.43796 6.34073-2.34954 9.71525.22808 3.59312-3.0331 6.1249-3.00822 9.91532-.98291 5.68021-.73246 11.59032-2.49692 17.12087-.80473 1.47849-4.32606 4.58768-3.48072 1.02547.88154-9.74279.27804-18.52694.11933-27.51432 3.27147-4.29404-4.06039-5.13453-6.16255-7.09258-1.77127-.8263-.0572-2.76934-.0572-4.40154 5.94599 2.06676 11.73856.9245 17.4358 1.23153zm-63.16904 25.04068c3.81214 1.95782 8.12551 1.0834 12.22352 1.27711 1.79989.0877 3.6833-.17763 5.42952.13681-1.57307 4.29179-1.85991 9.34525-3.02983 13.23876-2.20959 2.65586-2.13477 6.48594-2.7883 9.75659-.74163 4.61767-.60198 9.41609-2.07086 13.89296-.8666 1.01411-2.01897 1.86928-2.99552 2.83932-.50991-9.63103.29344-20.56552-.36587-29.46502 2.90387-2.71843-1.75558-5.32455-4.23033-5.79194-1.27248-.46385-2.31074-1.76848-3.08699-2.78301-.0681-1.13228.23008-2.27404.91466-3.10158z" fill="#162d50" stroke-width=".999994"/></g><g id="k" transform="translate(-1707.1523 -253.25788)"><path d="m1520.6621 643.77539c-5.8787 2.94153 3.4126 7.33975.095 12.58656.8782 8.18778 7.2428-.0672 6.4655-4.51796 2.7741-6.09576.062-8.3631-6.5602-8.0686zm-132.6289.0762c-6.1668.95674 4.7115 11.73232-4.3142 9.88478-6.0401-1.74428-4.112 4.5726-1.8843 6.56936.04 3.88459-1.2429 15.09535 4.9831 8.58492 2.0235-10.68423-1.7713 8.06034 4.9953 3.59268 1.6497-5.43625 2.3392-13.74752 2.5459-20.89114.8066-4.51027-.5799-9.00073-6.3251-7.74063zm45.709.0176c-5.234 1.97217 1.8888 6.59927-.4384 10.88833 2.1419 5.66953-3.3684 16.66822 3.8272 18.33757 3.2873-3.88428.9385-12.65712 3.7802-14.94266-1.7965 1.69813 5.1774 6.5287 6.5846-.0312-2.077 2.35102 2.8192-4.09478 1.0768.32632-2.4225 5.12067 6.6559 6.4301 5.6215-.59562 1.2699-6.03024 4.683-13.83185-5.2109-12.2971-7.7186-.0127 4.7072 11.28567-2.3166 7.47461-5.6432 1.55045-7.4518-.51936-6.2739-5.53125.6677-4.45887-3.9923-3.26443-6.6505-3.62895zm146.0996.006c-5.2403 2.09752 1.9606 7.76003-.4249 12.52944-.275 4.64819.731 14.01597-1.0812 6.2772-.2418-3.5419-1.4172-13.15561-6.3199-7.97266.2143 5.29149.6576 9.69072-2.544 13.39919 1.5431 6.37331 11.1713-1.45616 9.9576 1.97577 3.1227 8.3332 7.1289-3.72959 6.329-7.85184-1.2143-5.202 4.1612-17.06325-2.8577-18.23374-1.0188.0262-2.0578.0684-3.0589-.12336zm-82.6699.17969c-8.5816-.43073-4.6981 12.18605 1.9118 7.51872 1.938-.45192 3.7589-6.12518-1.9118-7.51872zm-16.2754.0625c-2.6062-.008-12.2346 1.51144-17.7905 1.77651-3.539-.76096-9.7907 2.4926-4.1236 5.39736 6.0773-.10991 13.4588.0159 18.4864.0117 2.5675 3.79433 6.6917-.78586 5.2421-5.03318-.6754-1.02386.2902-1.42516-1.8144-2.15239zm-58.5254.10351c-2.0473 3.47779-4.3854 3.29137-8.749 3.01744-1.7948 4.25276 3.4548 7.60917 1.342 12.89069 1.4342 7.19225-11.9863-.0764-9.141 7.87306 6.0077 1.96955 12.9813.0205 19.3398.91988 4.1046 3.58734 7.5174-1.05506 6.357-4.24992.3464-5.59908-8.5008-.54922-3.5157-5.51935-.3755-5.23578 6.3134-14.85055-2.381-14.57127-1.1001.091-2.1898-.2133-3.2521-.36053zm131.4551 0c-1.9383 3.88389-4.8621 2.78557-9.004 3.2109-1.8639 4.2166 3.9224 7.27572 1.5959 12.69723 1.4355 7.19185-11.9927-.076-9.1371 7.87502 6.5016 2.27337 14.0936-.38714 20.8755 1.24804 5.0562 4.23114 5.8232-4.85592 4.0508-6.99474-3.1293-1.52999-5.9684.84251-2.7488-3.10469-.3752-5.23614 6.317-14.84993-2.379-14.571-1.1003.0909-2.1814-.21141-3.2533-.36076zm-156.4883.24219c-6.6699 2.38649 3.4609 7.13965 0 12.11204-2.7341 4.57418 4.6872 8.21108 5.3788 1.639-1.0022-4.75886 6.1579-12.99515-1.5069-13.35846-1.2917-.0626-2.6489.0881-3.873-.39258zm170.418 2.71289c-10.6727 3.02651 1.9163 13.33635 4.791 5.50783.9129-2.73189-2.6957-4.8514-4.791-5.50783zm-145.1407 2.8125c.1494 3.78732.4237 12.43532 1.3212 12.08667-6.9168 4.00487-2.566-6.1157-2.6121-7.11782.6553-1.60938.6234-3.36268 1.2909-4.96885zm131.4512 0c1.6852 3.48909-2.3246 10.84124 2.7135 11.9082-6.1213 2.35111-5.6061.0179-4.5065-5.03623.4573-2.30897 1.1865-4.57655 1.793-6.87197zm-77.4531.76953c2.1124.79327.013.57406 0 0zm54.4531 1.67774c-5.3473-.0637-1.5787 7.34544-7.3313 8.58191-3.7453 4.22306-6.417 2.17703-10.6532.53926-8.0497 3.01483-.6214 9.46656 4.3227 9.92184 6.0781-3.52326 12.1104-6.72087 17.668-11.03516 4.2493-3.05525-1.6825-6.41775-4.0062-8.00785zm-57.5879.0449c-4.503-1.44825-3.4437 8.63282-5.1289 6.35156.4822-7.10645-12.0023-5.4817-9.1269.75974 2.9273 3.67594 8.3487 1.61919 1.7466 4.608-5.7972 2.2966-3.7047 10.88923 1.9725 5.46106 5.3689-3.60131 13.0856-6.09748 15.9528-11.97923-.7526-2.4168-3.5723-3.70129-5.4161-5.20113zm33.0664 2.65625c-6.9787.86293-16.6321 1.8488-21.6315 2.3882-6.4744 5.33926 5.3888 5.39688 9.1112 4.81407 5.019-.009 12.505-.24947 3.5623.77181-5.324 1.52658-17.5083-1.37884-13.3795 5.88179 6.6002 1.21862 14.1923-1.0935 20.3984 1.01681 3.7416 2.95714 5.1439-2.10243 4.412-5.00165-.6154-1.3615.1937-6.31758.056-7.77422-.1269-1.19239-1.3338-2.2031-2.5288-2.09681zm-35.8008 1.95312c.8475 1.3803-.056.37407 0 0zm32.1368 4.79297c1.9125.45168-.1688.73147 0 0zm-77.6114 6.30078c2.1351.93688-.073.6115 0 0z" fill="#c1d4ee" filter="url(#h)"/><path d="m1579.456 645.83717c1.5467.30513 3.1313.16433 4.6947.12337-.035 8.43288.2509 17.4785-2.0205 25.3538-1.1536-.43764-.4851-1.90758-.6785-2.85583-.3474-7.51094.3179-14.03714-.2383-20.74565-.7058-.69594-2.1718-.63303-1.7574-1.87569zm-11.8767 3.33116c.9611.0849 1.5836 1.04006 2.3329 1.56786.5616.41902 1.3879 1.02346.3601 1.48316-.7887.59558-1.5248 1.38894-2.3865 1.82234-.9916-.39513-1.7304-1.27418-2.5672-1.92522-.6508-1.24151 1.2335-2.14543 2.2607-2.94814zm7.9604 8.38525c.2523 1.89347.3493 3.8292.8718 5.67288.7612 1.57527 1.7375 5.17768.6727 5.03432-1.3942.0152-2.7932-.0306-4.1845.0231-.7728.39467-1.5819.42788-1.403-.67085.5807-1.16407 2.4399-.85196 2.7749-2.10126-.2638-3.53654-.3529-7.30587-.2563-10.74528 1.1411.50395 1.5505 1.67381 1.5244 2.78708zm-21.4848-11.34628c1.2857.61828 2.7239.33817 4.0959.40097.6105.0307 1.2502-.0615 1.8424.0463.08.76008-.5754 1.59333-.6345 2.42488-.045 1.2689-.4829 2.26419-1.0095 3.3879-.2411 1.20981-.2188 2.45289-.4446 3.66875-.2326 1.04373-.1404 2.25748-.7092 3.17344-.3072.24226-.5661.6062-.9016.77761-.2816-.66161.062-1.68542 0-2.47494.1667-2.7865.073-4.92076-.058-7.51853.9372-1.09878-.8596-1.88569-1.7722-2.03572-.232-.2948-.5869-.54195-.7461-.86498.053-.282-.065-.938.3416-.98565zm-7.8971 2.71427c1.1167.51271 2.3463.29325 3.5309.33929.8003.0344 1.6222-.073 2.4075.0617.2054.72869-.5789 1.65372-.6209 2.50572-.1469 1.112-.268 2.08544-.9181 3.01536-.5742 2.34964-.2841 4.91623-1.1038 7.0016-.3316.30844-.6632.61689-.9948.92533-.2813-.78447.029-1.89874-.043-2.80055.091-2.38725.1084-4.77882-.082-7.16208.9163-.95342-.5963-1.83245-1.4691-1.96559-.8061-.24462-1.4358-1.26891-.7073-1.92076zm14.5505 14.68176c.4728.16932.1574.82674.2487 1.22576-.019 1.20159.038 2.42092-.028 3.61152-.9028.0693-1.5335-1.00058-2.4221-1.15719-1.952-.87434-4.9885-.54942-7.0159-.50417-4.1091.0426-8.2185.03-12.3278.0319-.8513-.15323-.6851-.92995.1432-.83195 4.1736-.71635 8.416-.91706 12.6337-1.24042 1.7721-.26873 3.5178-.7733 5.3172-.90555 1.1539-.0616 2.2966-.18522 3.4513-.22988zm-40.0448-17.82785c1.2106.66656 2.6079.36376 3.9236.43182h1.8903c.4439.83526-.7732 2.04797-.649 3.10319.2031 1.23334-.9006 2.0006-.9541 3.19237-.2057 1.58095-.4537 3.18407-.9386 4.70757-.3523.34465-.7103.68363-1.0649 1.02604-.2543-1.0187.062-2.34736.038-3.48709.1866-1.68706-.082-3.3712-.163-5.0567.9695-.89149-.4872-1.85024-1.3833-1.94222-.8209-.26373-1.6024-1.34432-.6997-1.97498zm9.5137 8.45127c1.6297.80775 2.6999 2.37786 4.2594 3.30031.6245 1.12982-1.232 1.49373-1.863 2.07434-2.2497 1.69383-4.4994 3.38766-6.7491 5.08148-2.0611.0642-3.5558 1.6485-5.2594 2.58852-1.3499.83915-2.6933 1.69325-4.0989 2.43906-.1355-.91994.9423-1.59009 1.4732-2.23813 1.0976-.99263 2.1966-2.00224 3.3987-2.86657.8869-.1718 1.9857.0951 2.3589-1.01055 1.83-1.39796 3.575-2.90439 5.237-4.4951-.1344-1.1613 1.5309-1.24435 1.3991-2.34414-.2189-.83336-1.2529-1.97917-.1559-2.52922zm-16.105 9.06814c1.1067.65486 2.0227 1.59426 3.0158 2.40584-.544.98168-1.6771 1.49972-2.495 2.25161-1.054.70853-1.9213-.90979-2.803-1.37545-.8792-.37975-.914-1.07924-.064-1.5287.7546-.60749 1.5088-1.27595 2.3463-1.7533zm-17.5974-17.36519c.8383.3116 1.4987 1.13012 2.2547 1.65257.6094.3679 1.1842.969.2288 1.37304-.824.62049-1.5798 1.57116-2.5369 1.87281-1.0596-.65686-1.9731-1.51741-2.9312-2.30752.77-1.15936 1.9347-1.91944 2.9846-2.5909zm10.26 11.19638c.6409.15679.188.86059.3114 1.32023-.021 1.19296.042 2.39938-.031 3.58398-.9627-.0193-1.498-1.04613-2.4484-1.22413-.608-.95306-1.7082-.0255-2.5966-.41374-3.0234-.11725-6.0519-.0331-9.0776-.0585-2.5367-.006-5.0734.0219-7.6099.0617-.901-.20241-.6875-1.01824.2166-.89364 4.3499-.7083 8.7617-.93522 13.1525-1.26545 2.63-.72672 5.3815-.85223 8.0832-1.1104zm.3106 8.2158v3.53579c-.9065.13871-1.5946-1.00517-2.4985-1.21449-.2977-.6305-.9844-.38288-1.505-.29976-1.649-.13948-3.297-.22174-4.9526-.15664-4.2689.0465-8.538.0349-12.807.0362-.7852-.0959-.8217-.95658.042-.83784 3.5664-.66283 7.208-.68781 10.8071-1.09053 2.8883-.36043 5.5423-.7744 8.2444-1.08205.7944-.0508 1.6797-.11138 2.421-.16653.4691.21274.1601.85771.2489 1.27586zm-26.3336-19.0729v4.62661c-.8306.30342-1.4944-1.04496-2.3454-1.09882-.4918-.89796-1.3456-.27231-2.1-.42688-5.9122-.23953-11.7872-.0812-17.2866-.0782-.9067-.14923-.7111-1.02693.1876-.87737 4.4153-.6859 8.8853-.93406 13.3369-1.28171 2.5853-.73651 5.3028-.84206 7.9729-1.01593.1593-.0947.1701.0776.2346.15228zm-8.2079 7.95777c1.51.84185 2.6242 2.24903 4.0885 3.15477 1.1297.9838-.8639 1.68322-1.5289 2.12807-2.2938 1.73471-4.5874 3.46942-6.8812 5.20413-2.0626.0443-3.533 1.6389-5.2238 2.57879-1.3576.84255-2.6979 1.71689-4.1034 2.47963.7009-2.18638 3.0809-3.69009 4.664-4.99673.8376-.4887 2.1336.18271 2.4631-1.07158 1.7942-1.40349 3.6401-2.79667 5.193-4.45719.089-1.16212 1.9327-1.46633 1.4195-2.7567-.5379-.65996-.8696-1.64989-.091-2.26319zm-5.9072 3.6396c-.4691.85119-1.5471 1.43536-2.2954 2.1304-.846 1.06067-1.6936-.33356-2.4659-.76514-.5999-.53117-1.9913-1.2501-.7244-1.87745.7717-.64537 1.6273-1.3762 2.4856-1.83195 1.0983.65329 2.0149 1.55487 3.0001 2.34414zm-33.2049-12.02918c1.5276.26963 3.0934.20047 4.6369.13783.8064.47692.072 2.08286.2914 2.95604-.1032 3.68626-.079 7.38452-.4321 11.05793-.5108 1.79831-.5449 3.72084-.7857 5.57865-.1246 1.52421-.2816 3.04308-.637 4.53324-.082.4045-.1631.80898-.2446 1.21348-1.301-.59125-.4398-2.41096-.6958-3.54755.6552-7.08823-.8285-13.54465-.1444-19.83224-.5817-.83743-2.1144-.78588-1.9868-2.09627zm20.924 2.09741c.1816.33827-.1996.8009-.2503 1.18865-.3127.83111-.5058 1.68498-.5538 2.57302-.3226 1.04442-.9885 2.01966-1.0093 3.19802-.2802 1.8131-.2889 3.67775-.7797 5.45313-.6136.8693-1.5598 1.39839-1.1796-.0754.2038-3.21012.156-5.96697.011-8.82121.9438-1.04523-.4797-1.94031-1.438-2.08896-1.0032-.52326-1.0649-1.00414-.8006-1.92078 1.992.69979 4.0768.3976 6.0004.4935zm-7.6793 7.09412c.5522.68821-.065 1.5379-.7253 1.871-.6626.8601-.9858 2.19938-1.9175 2.71367-.6942.26174-1.3966.25838-1.1499-.616-.1096-.7068.2287-1.36969.3421-2.01972-.6433-.98595-2.7105-.18336-2.8141-1.88727 2.01.0123 4.1399-.0851 6.2647-.0617zm-19.9373-8.42043c.6105.0307 1.2503-.0615 1.8424.0463.08.76002-.5753 1.59334-.6345 2.42488-.045 1.26887-.4828 2.26419-1.0093 3.3879-.2411 1.20981-.2189 2.45289-.4447 3.66875-.2326 1.04373-.1405 2.25749-.7092 3.17344-.3072.24226-.5662.6062-.9016.77761-.2815-.66176.062-1.6854 0-2.47494.1666-2.7865.073-4.92076-.059-7.51853.9373-1.09878-.8596-1.88569-1.7721-2.03572-.232-.2948-.5869-.54195-.7462-.86498.053-.282-.065-.938.3398-.98567 1.2838.61827 2.7219.33816 4.0939.40096zm-8.462 2.65259c.8003.0344 1.6222-.073 2.4074.0617.2054.72869-.5789 1.65372-.6209 2.50572-.1469 1.112-.2679 2.08544-.9181 3.01536-.3158 1.18404-.246 2.42861-.4704 3.63276-.1983 1.11805-.2024 2.31734-.6333 3.36884-.3316.30844-.6633.61689-.9949.92533-.2812-.78447.029-1.89874-.043-2.80055.091-2.38725.1085-4.77882-.082-7.16208.9163-.95342-.5963-1.83245-1.469-1.96559-.8061-.24456-.7073-.94329-.7073-1.92077 1.1168.5127 2.3463.29324 3.5309.33928zm11.0195 14.34247c.4728.16932.1575.82674.2487 1.22576-.019 1.20159.038 2.42092-.028 3.61152-.9028.0693-1.5335-1.00057-2.4221-1.15719-.38-.75342-1.1707-.34398-1.7814-.3605-5.8746-.30483-12.1999-.11366-17.5624-.11178-.8512-.15325-.6849-.92995.1432-.83195 4.1736-.71634 8.4161-.91706 12.6338-1.24042 1.772-.26873 3.5177-.7733 5.3171-.90555 1.154-.0616 2.2964-.18521 3.4514-.22988zm-37.2583-17.6158c1.0621.12428.1742 1.97257.43 2.74433-.1163 3.75272-.092 7.51988-.4823 11.25711-.5188 1.87564-.5722 3.8791-.8156 5.81752-.1043 1.64068-.374 3.25279-.7293 4.85675-.025 1.49913-1.2175-.17977-.8164-.89291.4685-7.94081-.5791-14.94071-.2113-22.02084-.5989-.70915-2.3163-.78599-1.7621-1.94318 1.4529.31335 2.931.2164 4.387.18122zm9.1454.8675c.6405.0108 1.285-.0212 1.9229.0154 0 1.01383-.8287 2.14391-.7986 3.28489.078 1.2149-1.031 2.07092-1.0226 3.35254-.3341 1.92058-.2489 3.91889-.8488 5.78887-.2735.49961-1.4699 1.55116-1.1827.34694.058-1.99432.2082-3.98975.2046-5.98334-.066-1.10596-.1466-2.21188-.164-3.31995 1.112-1.45191-1.3802-1.73606-2.0947-2.39812-.6022-.27959-.5714-1.54292-.02-1.48822 1.2522.62193 2.6625.33701 4.0039.40099zm-15.3952 8.91392c.6121.0296 1.2526-.06 1.8466.0462.01.51603-.3035 1.02915-.4221 1.54372-.4168.93194-.3023 1.97277-.6078 2.93256-1.3969 2.45368-.8997 5.61618-1.6517 7.99631-.2946.3429-.6863.63203-1.0182.96001-.4388-.62004.084-1.91991-.038-2.77757.1439-2.39541.098-4.79325-.085-7.18506.987-.91918-.5967-1.80031-1.438-1.95836-.4325-.15683-.7854-.59798-1.0493-.94099-.023-.38284.079-.7689.3104-1.04867 1.2954.66189 2.7612.36639 4.1539.43183z" fill="#162d50" stroke-width=".999995"/></g><g><path d="m157.20489 465.65979h302.05313l-121.04227-343.10143-302.01899 1.24002z" fill="#162d50"/><g><path d="m453.83594 449.19464-.38672-10.4837-8.59766-13.88477 27.29102-9.77539-13.44922-19.97461c1.25441-.78817 8.36721-6.78158 9.83398-7.54492l10.39649-9.02344-14.79688-17.71093-266.976 1.0997-14.12881 9.73623c-14.26047 9.17949-23.03843 24.15095-28.28796 37.51407-5.24943 13.36314-6.83917 30.83075-3.9058 40.04776h285.05709z" fill="url(#c)"/><path d="m174.32848 378.50781c-14.26047 9.17949-17.25483 23.10334-21.65974 36.56836-3.55298 10.8608-6.27337 24.90146-3.34 34.11847l286.55603-.002c-2.63093-3.21863-.14649-10.48172-.14649-10.48172s-9.01545-9.93202-9.4043-14.98242l-15.70898-6.51563 36.39648-10.27148-13.37695-10.75782c4.60204-6.77626 11.55559-12.56353 21.37891-17.67578z" fill="url(#a)" filter="url(#b)" opacity=".75"/></g><path d="m19.172201 143.9568 12.691289 34.4169 77.65777 210.69586 10.26158 27.87353c12.86189 33.34884 11.9504 46.33065 37.42205 48.7167 4.26159.3992 9.00451 0 14.78468 0l-5.00864-20.13869c-3.9367-17.37337 4.43034-43.46845 25.89132-61.08814l10.13893-5.92514-121.068582-343.17688-16.21972 3.713003c-17.245667 7.120359-34.987746 28.120966-42.465475 41.92517-8.813485 16.631269-14.3838721 34.427507-8.012694 52.343277z" fill="#162d50"/><g clip-path="url(#f)"><path d="m19.172201 143.9568 12.691289 34.4169 77.65777 210.69586 10.26158 27.87353c12.86189 33.34884 11.9504 46.33065 37.42205 48.7167 4.26159.3992 9.00451 0 14.78468 0l-5.00864-20.13869c-3.9367-17.37337 4.43034-43.46845 25.89132-61.08814l10.13893-5.92514-121.068582-343.17688-16.21972 3.713003c-17.245667 7.120359-34.987746 28.120966-42.465475 41.92517-8.813485 16.631269-14.3838721 34.427507-8.012694 52.343277z" fill="#3771c8"/><use transform="matrix(.34534565 .93847556 -.57431645 1.3349467 412.24689 -83.157525)" xlink:href="#k"/><path d="m190.96484 344.36133-15.93945 5.58008c-15.50374 9.69377-27.38922 24.15946-33.92187 38.82421-3.46458 7.77898-5.39736 15.56737-6.125 22.44922l-6.23047 30.41602c5.73131 15.33092 10.66793 22.36291 28.45703 24.0293 4.26158.3992 9.00499 0 14.78515 0l-5.00976-20.13868c-3.9367-17.37335 4.43162-43.46821 25.89258-61.08789l10.13867-5.92578z" fill="#c1d4ee"/><path d="m184.82617 326.96094-15.65039 6.39258c-20.5296 11.68522-35.55568 29.92914-43.78516 48.40234l-10.73857 21.25047 14.096 38.62648 6.23047-30.41797c.72764-6.88185 2.66042-14.67024 6.125-22.44922 6.53265-14.66475 18.41813-29.13044 33.92187-38.82421l15.93945-5.58008z" fill="#162d50"/><path d="m94.0625 69.681641-16.21875 5.626953c-10.447538 6.488286-19.127169 15.340129-26.101562 25.382816-6.845449 9.99333-13.651774 24.15071-17.03125 37.5332l-8.378907 25.15039 5.53125 14.99805 10.384766 28.17773 5.15625-33.90625c-.19194-10.04898 1.005699-22.2586 4.84375-34.17187 5.910094-18.34918 17.017833-35.93899 31.513672-46.408207l16.806641-3.939453z" fill="#162d50"/><path d="m81.943359 35.330078-16.220703 3.712891c-17.24565 7.120352-34.987122 28.121591-42.464844 41.925781-8.813476 16.631252-14.3848431 34.428-8.013671 52.34375l3.927734 10.64453 8.515625 23.0918 7.023438-28.82422c3.379476-13.38249 10.185801-27.53987 17.03125-37.5332 6.974393-10.042687 15.654024-18.89453 26.101562-25.382816l16.189453-5.708985z" fill="#c1d4ee"/><path d="m19.172201 143.9568 12.691289 34.4169 77.65777 210.69586 10.26158 27.87353c12.86189 33.34884 11.9504 46.33065 37.42205 48.7167 4.26159.3992 9.00451 0 14.78468 0l-5.00864-20.13869c-3.9367-17.37337 4.43034-43.46845 25.89132-61.08814l10.13893-5.92514-121.068582-343.17688-16.21972 3.713003c-17.245667 7.120359-34.987746 28.120966-42.465475 41.92517-8.813485 16.631269-14.3838721 34.427507-8.012694 52.343277z" fill="url(#d)"/></g><g><path d="m185.44687 378.50782h302.05313l-121.04226-344.345034-284.51551 1.167071c-5.40642 1.238028-10.812932 2.476057-16.219352 3.714086z" fill="#162d50"/><g clip-path="url(#e)"><path d="m185.44687 378.50782h302.05313l-121.04226-344.345034-284.51551 1.167071c-5.40642 1.238028-10.812932 2.476057-16.219352 3.714086z" fill="#3771c8"/><use transform="matrix(1 0 .35153922 1 455.59302 50.77342)" xlink:href="#j"/></g></g><path d="m65.722656 39.042969c-17.245616 7.120338-34.987136 28.121619-42.464844 41.925781-8.813458 16.631218-14.3848311 34.42804-8.013671 52.34375l3.927734 10.64453 12.691406 34.41602 77.658199 210.69726 10.26172 27.87305c12.86186 33.34875 11.95029 46.33075 37.42188 48.7168 4.26156.3992 9.00501 0 14.78515 0h287.26758l-5.80859-16.46485h-17.56445-267.99024l-.91406-3.67383c-3.9367-17.37331 4.43166-43.46823 25.89258-61.08789l10.13867-5.92578h284.48828l-121.04297-344.345701-284.514647 1.167969zm289.031254 11.730469 109.37304 310.023442-266.97656 1.0996-109.341796-310.027339zm-283.484379 3.996093 111.753909 316.863279c-25.81622 21.1954-37.85118 52.58878-32.19532 77.54883l-1.5.0117-118.509761-321.51951c-7.158711-19.90751 13.43833-59.657132 40.451172-72.904299z" fill="#162d50"/></g></svg>