<svg height="500" viewBox="0 0 500 500" width="500" xmlns="http://www.w3.org/2000/svg" xmlns:xlink="http://www.w3.org/1999/xlink"><linearGradient id="a" gradientUnits="userSpaceOnUse" x1="24.153801" x2="47.179815" xlink:href="#b" y1="66.368058" y2="96.997838"/><linearGradient id="b"><stop offset="0" stop-color="#d3b879"/><stop offset=".25" stop-color="#ebd6ad"/><stop offset=".5" stop-color="#ebd6ad"/><stop offset=".75" stop-color="#ebd6ad"/><stop offset="1" stop-color="#d3b879"/></linearGradient><linearGradient id="c" gradientUnits="userSpaceOnUse" x1="21.193327" x2="44.479282" y1="67.183907" y2="97.859848"><stop offset="0" stop-color="#d3b879"/><stop offset=".28553611" stop-color="#bda46a"/><stop offset=".70769507" stop-color="#9c8653"/><stop offset=".790259" stop-color="#b69a5a"/><stop offset="1" stop-color="#bda46a"/></linearGradient><linearGradient id="d" gradientUnits="userSpaceOnUse" x1="29.47986" x2="45.49699" y1="74.91674" y2="103.6477"><stop offset="0" stop-color="#d3b879"/><stop offset=".28553611" stop-color="#bda46a"/><stop offset=".5" stop-color="#a8915b"/><stop offset=".790259" stop-color="#bda46a"/><stop offset="1" stop-color="#d3b879"/></linearGradient><linearGradient id="e" gradientUnits="userSpaceOnUse" x1="24.890131" x2="47.916145" xlink:href="#b" y1="63.626438" y2="94.256218"/><g transform="matrix(3.7795275 0 0 3.7795275 -14.535921 4.894542)"><path d="m123.99606 49.449401-22.25192-.865417-7.781249-9.679687-47.96875 23.363281-16.577491 37.228912 2.525391 1.5957 12.038517 5.27704 20.982333 8.79483 2.292968-4.05859s3.316518-5.86801 6.710938-11.724611c1.69721-2.928299 3.415965-5.857119 4.730469-8.017578.657251-1.080229 1.218125-1.9742 1.591796-2.535156l1.193363-1c.724479-.574587 1.662763-1.349631 2.765625-2.275391 2.205723-1.851519 5.054014-4.295969 7.880859-6.740234 5.605783-4.847106 11.026061-9.607751 11.119141-9.689453l21.99466-17.26363z" fill="#857347"/><path d="m33.921697 97.960131 11.184268 3.931239 18.925175 7.391s13.291939-23.518695 13.97041-23.518695c.34957 0 6.417633-5.178163 12.218688-10.198577.538723-.466228-1.638744-1.524759-1.10942-1.983993.529325-.459234 3.765441-.319171 4.275779-.762863 4.149787-3.607865 7.513383-6.56064 7.513383-6.56064l16.99355-13.338975-17.97887-.699346-6.986725-8.690491-43.96714 21.414399z" fill="url(#a)" stroke-width="7.40833"/><path d="m83.209088 14.599523c-3.63638-.03853-7.663762 1.14904-9.368419 4.847766v.000529c-4.009391 8.703719-8.404993 15.041578-15.292097 21.764049-3.68771 3.249155-5.780564 4.788951-8.077042 6.28127l-4.403857 2.657202c-6.490812 3.627872-14.023579 6.713519-22.785177 9.976136-.422222.09459-.703738.323221-1.030419.58601-2.335769 1.880275-4.803114 4.642313-6.250279 7.717875-1.63023 3.464592-1.693916 7.940646-.108003 13.089123 1.229281 3.991438 3.397091 7.803827 6.030648 10.789007 2.449698 2.776564 4.604835 4.931307 7.492207 7.188 2.887398 2.25669 5.807101 3.52424 8.278415 3.96636 2.471315.44211 5.255419.1562 7.4109-1.57148 1.490134-.9834 3.168703-2.106254 4.169781-3.342951.843359-1.100119 1.296696-2.240444 1.710505-3.483507 3.146425-7.231142 6.558756-13.417257 10.433103-18.653017.726546-.981856 1.469337-1.930292 2.22967-2.84593l3.672126-4.031279c1.754293-1.752203 3.519646-3.301688 7.529777-6.195489 8.806154-5.596647 16.625227-8.44491 26.457303-10.216431 3.28194-.591767 5.0446-3.294067 5.97019-5.882843.92554-2.588779 1.22671-5.573676.98803-8.752438l-.97512-5.458067c-.88149-3.073002-2.35098-6.153091-5.15525-9.450751-2.804259-3.29766-7.144199-5.980766-11.421-7.516701-2.229829-1.236931-4.738741-1.705386-7.505992-1.462443z" fill="#857347"/><path d="m19.353541 70.007513c-1.06453 2.262335-1.30352 5.929971.0801 10.421585 1.05352 3.420812 3.02715 6.888936 5.26791 9.428883 2.24078 2.539764 4.79866 4.784278 7.67807 7.396964 4.26352 2.716432 8.17978 3.533075 10.40919 1.746147.78052-.625718 2.64848-1.577501 3.58727-2.758062.59587-.749316 1.19279-2.612665 1.19279-2.612665 3.84578-8.846616 8.13147-16.302059 13.25502-22.464261l3.84731-4.223514c1.89338-1.893409 3.89146-3.642318 8.09305-6.669363 9.21557-5.873089 17.6599-8.953088 27.886659-10.795723 2.73182-.492575 4.33342-5.229003 3.92173-10.712524l-6.440939-.182936 5.599139-4.531506c-.76001-2.649528-2.01805-5.251828-3.876249-7.437272-2.84504-3.344831-6.67462-5.730119-10.39214-7.065202l-4.75682 2.847888.51523-3.926892c-.70999-.100451-1.39446-.158607-2.05002-.165365v-.000005c-2.86115-.0305-5.11352.844135-5.96604 2.693893-4.17338 9.059754-8.93109 15.915314-16.13802 22.935551-3.8403 3.388302-6.15495 5.094367-8.5969 6.680213l-4.56871 2.756938c-6.77911 3.791929-14.49065 6.937578-23.3262 10.227731-1.64119 1.321138-4.29004 4.430056-5.22142 6.409497z" fill="url(#c)"/><path d="m32.379031 97.254836c1.04985-.214234 2.00277-.729822 2.40687-1.075556l8.11085-8.016528 21.74561-21.492726c-.12582-1.391756-.54817-2.681335-.97972-3.967742l-22.05374 21.921857-4.29466 4.268978c-.11305-1.200843-.39942-2.472185-.87029-3.795216-1.08374-3.047312-2.92143-5.616115-5.33627-7.168538l4.75803-2.984944 25.81448-16.194683c-1.78326-2.492049-2.18897-3.01607-2.06895-2.789009l-26.04122 16.392696-7.04845 4.417279-3.63013 2.282976 4.20819.833559c2.61179.520154 4.85348 2.805868 6.11494 6.352147.93882 2.638754.85271 4.766852.33786 6.027052-.17525.48436-.42676.793132-.76703 1.16432-.39674.394865-.91635.543175-1.60038.519425-1.73882-.06027-4.24343-1.552422-6.4842-4.092186l-2.776378 2.450493z" fill="#857347"/><path d="m63.662641 62.702284-22.05374 21.921857-4.29466 4.268978c-.11305-1.200843-.39942-2.472185-.87029-3.795216-1.08374-3.047312-2.92143-5.616115-5.33627-7.168538l4.75803-2.984944 25.81448-16.194683" fill="url(#d)"/><path d="m47.568851 93.630519c3.84577-8.846618 8.1315-16.302211 13.25504-22.464415l3.84731-4.223514c1.58485-1.584862 3.05529-3.028646 6.01774-5.245354 1.51297-1.080146 3.11122-2.093574 4.59691-2.972626 8.26066-4.880237 16.07704-7.57344 25.365139-9.246949 2.7318-.492575 4.33351-5.229291 3.92181-10.712813l-6.441259-.182636 5.599189-4.531797c-.76-2.649528-2.0178-5.251572-3.876009-7.437016-2.84503-3.344831-6.67468-5.730448-10.3922-7.065531l-4.75693 2.848056.51521-3.926716c-.70997-.100451-1.3943-.158895-2.04986-.165653l-.00018.000183c-2.86115-.0305-5.11365.844153-5.96617 2.69391-3.81829 8.288903-8.08595 14.69189-14.31065 21.104827-1.1828 1.186147-2.20954 2.253851-3.473 3.346011-3.0118 2.582147-4.83008 3.787656-6.95097 5.165002l-4.56895 2.756734c-6.77911 3.791929-14.49045 6.937503-23.32602 10.227725.10516.0077.20887.01698.31513.02849 2.024497.239993 3.927432 1.044068 5.7082 1.986186 1.470428.777932 2.757501 1.876517 4.00774 2.973895 1.145442 1.005394 2.16254 2.096135 3.17776 3.287482 1.90182 2.231288 3.640755 4.782056 5.113335 7.511097 1.47258 2.729042 2.678805 5.636359 3.515205 8.580745.54599 1.922059.93625 3.822955 1.15648 5.664677z" fill="url(#e)"/><path d="m28.739461 68.816232c1.76411.933171 3.355306 2.193125 4.83056 3.537193.852977.777126 1.578484 1.687054 2.29569 2.590996 1.235074 1.556646 2.44038 3.150495 3.446186 4.864236.900182 1.533774 1.60927 3.175419 2.297004 4.815484.485409 1.157571.967794 2.324875 1.28785 3.538611.509136 1.93078.674508 3.936246.99344 5.907391.421412 2.604513 1.21577 7.821227 1.21577 7.821227l2.46289-8.260856c-.22023-1.841722-.5957-3.822803-1.15648-5.667572-.898721-2.956478-2.051913-5.856225-3.515205-8.57785-1.434283-2.66767-3.201635-5.161829-5.113335-7.511092-.961968-1.182149-2.07935-2.295399-3.17776-3.287487l2.89725-5.975915-6.90499 3.00202c-1.84666-1.071536-3.76112-1.775058-5.7082-1.986186-.10626-.01151-.31513-.02849-.31513-.02849s-6.28104 1.174834-7.83287 3.430131c0 0 3.078921-.131283 4.615513-.05261 1.123861.05754 2.258623.125968 3.354197.383051 1.39001.326174 2.699428.755137 4.02762 1.457718z" fill="#857347"/></g></svg>