<svg height="500" viewBox="0 0 500 500" width="500" xmlns="http://www.w3.org/2000/svg" xmlns:xlink="http://www.w3.org/1999/xlink"><linearGradient id="a" gradientUnits="userSpaceOnUse" x1="-156.675523" x2="-133.389568" y1="206.553177" y2="237.229118"><stop offset="0" stop-color="#d3b879"/><stop offset=".28553611" stop-color="#bda46a"/><stop offset=".70769507" stop-color="#9c8653"/><stop offset=".790259" stop-color="#b69a5a"/><stop offset="1" stop-color="#bda46a"/></linearGradient><linearGradient id="b" gradientUnits="userSpaceOnUse" x1="-148.38899" x2="-132.37186" y1="214.28601" y2="243.01697"><stop offset="0" stop-color="#d3b879"/><stop offset=".28553611" stop-color="#bda46a"/><stop offset=".5" stop-color="#a8915b"/><stop offset=".790259" stop-color="#bda46a"/><stop offset="1" stop-color="#d3b879"/></linearGradient><linearGradient id="c" gradientUnits="userSpaceOnUse" x1="-152.978719" x2="-129.952705" xlink:href="#d" y1="202.995708" y2="233.625488"/><linearGradient id="d"><stop offset="0" stop-color="#d3b879"/><stop offset=".25" stop-color="#ebd6ad"/><stop offset=".5" stop-color="#ebd6ad"/><stop offset=".75" stop-color="#ebd6ad"/><stop offset="1" stop-color="#d3b879"/></linearGradient><linearGradient id="e" gradientUnits="userSpaceOnUse" x1="-530.51537760163" x2="-466.84141702173" xlink:href="#d" y1="763.38845458532" y2="830.35296251538"/><g transform="matrix(3.7795275 0 0 3.7795275 687.61023 -497.86016)"><path d="m-94.659762 153.96879c-3.63638-.0385-7.663758 1.14904-9.368418 4.84777v.00053c-4.00939 8.70372-8.40499 15.04158-15.2921 21.76405-3.68771 3.24915-5.78056 4.78895-8.07704 6.28127l-4.40386 2.6572c-6.49081 3.62787-14.02358 6.71352-22.78517 9.97613-.42223.0946-.70374.32323-1.03042.58601-2.33577 1.88028-4.80312 4.64232-6.25028 7.71788-1.63023 3.46459-1.69392 7.94065-.10801 13.08912 1.22929 3.99144 3.3971 7.80383 6.03065 10.78901 2.4497 2.77656 4.60484 4.93131 7.49221 7.188 2.8874 2.25669 5.8071 3.52424 8.27842 3.96636 2.47131.44211 5.25541.1562 7.4109-1.57148 1.49013-.9834 3.1687-2.10625 4.16978-3.34295.84335-1.10012 1.29669-2.24044 1.7105-3.48351 3.14643-7.23114 6.55876-13.41725 10.4331-18.65301.72655-.98186 1.46934-1.9303 2.22967-2.84593l3.67213-4.03128c1.75429-1.75221 3.51965-3.30169 7.52978-6.19549 8.806151-5.59665 16.625224-8.44491 26.4573-10.21643 3.28194-.59177 5.0446-3.29407 5.97019-5.88285.92554-2.58878 1.22671-5.57367.98803-8.75243l-.97512-5.45807c-.88149-3.073-2.35098-6.15309-5.15525-9.45075-2.804259-3.29766-7.144199-5.98077-11.421-7.5167-2.229829-1.23693-4.738741-1.70539-7.505992-1.46245z" fill="#857347"/><path d="m-158.51531 209.37678c-1.06453 2.26234-1.30352 5.92997.0801 10.42159 1.05352 3.42081 3.02715 6.88893 5.26791 9.42888 2.24078 2.53977 4.79866 4.78428 7.67807 7.39696 4.26352 2.71644 8.17978 3.53308 10.40919 1.74615.78052-.62572 2.64848-1.5775 3.58727-2.75806.59587-.74932 1.19279-2.61267 1.19279-2.61267 3.84578-8.84661 8.13147-16.30205 13.25502-22.46426l3.84731-4.22351c1.89338-1.89341 3.89146-3.64232 8.09305-6.66936 9.215571-5.87309 17.659901-8.95309 27.88666-10.79573 2.73182-.49257 4.33342-5.229 3.92173-10.71252l-6.440939-.18294 5.599139-4.5315c-.76001-2.64953-2.01805-5.25183-3.876249-7.43727-2.84504-3.34483-6.67462-5.73012-10.39214-7.06521l-4.75682 2.84789.51523-3.92689c-.70999-.10045-1.39446-.15861-2.05002-.16536v-.00001c-2.86115-.0305-5.11352.84414-5.966041 2.69389-4.17338 9.05976-8.93109 15.91532-16.13802 22.93555-3.8403 3.38831-6.15495 5.09437-8.5969 6.68022l-4.56871 2.75694c-6.77911 3.79192-14.49065 6.93757-23.3262 10.22773-1.64119 1.32113-4.29004 4.43005-5.22142 6.40949z" fill="url(#a)"/><path d="m-145.48982 236.62411c1.04985-.21424 2.00277-.72983 2.40687-1.07556l8.11085-8.01653 21.74561-21.49272c-.12582-1.39176-.54817-2.68134-.97972-3.96775l-22.05374 21.92186-4.29466 4.26898c-.11305-1.20084-.39942-2.47219-.87029-3.79522-1.08374-3.04731-2.92143-5.61611-5.33627-7.16854l4.75803-2.98494 25.81448-16.19468c-1.78326-2.49205-2.18897-3.01607-2.06895-2.78901l-26.04122 16.3927-7.04845 4.41727-3.63013 2.28298 4.20819.83356c2.61179.52015 4.85348 2.80587 6.11494 6.35215.93882 2.63875.85271 4.76685.33786 6.02705-.17525.48436-.42676.79313-.76703 1.16432-.39674.39486-.91635.54317-1.60038.51942-1.73882-.0603-4.24343-1.55242-6.4842-4.09218l-2.77638 2.45049z" fill="#857347"/><path d="m-114.20621 202.07155-22.05374 21.92186-4.29466 4.26898c-.11305-1.20084-.39942-2.47219-.87029-3.79522-1.08374-3.04731-2.92143-5.61611-5.33627-7.16854l4.75803-2.98494 25.81448-16.19468" fill="url(#b)"/><path d="m-130.3 232.99979c3.84577-8.84662 8.1315-16.30221 13.25504-22.46442l3.84731-4.22351c1.58485-1.58486 3.05529-3.02865 6.01774-5.24535 1.51297-1.08015 3.11122-2.09358 4.59691-2.97263 8.260661-4.88024 16.077041-7.57344 25.36514-9.24695 2.7318-.49257 4.33351-5.22929 3.92181-10.71281l-6.441259-.18264 5.599189-4.53179c-.76-2.64953-2.0178-5.25158-3.876009-7.43702-2.84503-3.34483-6.67468-5.73045-10.3922-7.06553l-4.75693 2.84805.51521-3.92671c-.70997-.10045-1.3943-.1589-2.04986-.16565l-.00018.00018c-2.86115-.0305-5.11365.84415-5.966171 2.69391-3.81829 8.2889-8.08595 14.69189-14.31065 21.10482-1.1828 1.18615-2.20954 2.25386-3.473 3.34602-3.0118 2.58214-4.83008 3.78765-6.95097 5.165l-4.56895 2.75673c-6.77911 3.79193-14.49045 6.9375-23.32602 10.22773.10516.008.20887.017.31513.0285 2.0245.23999 3.92743 1.04407 5.7082 1.98618 1.47043.77794 2.7575 1.87652 4.00774 2.9739 1.14544 1.00539 2.16254 2.09613 3.17776 3.28748 1.90182 2.23129 3.64076 4.78206 5.11334 7.5111s2.6788 5.63636 3.5152 8.58074c.54599 1.92206.93625 3.82296 1.15648 5.66468z" fill="url(#c)"/><path d="m-149.12939 208.1855c1.76411.93317 3.35531 2.19313 4.83056 3.53719.85298.77713 1.57849 1.68706 2.29569 2.591 1.23508 1.55665 2.44038 3.1505 3.44619 4.86424.90018 1.53377 1.60927 3.17542 2.297 4.81548.48541 1.15757.9678 2.32488 1.28785 3.53861.50914 1.93078.67451 3.93625.99344 5.90739.42141 2.60452 1.21577 7.82123 1.21577 7.82123l2.46289-8.26086c-.22023-1.84172-.5957-3.8228-1.15648-5.66757-.89872-2.95648-2.05191-5.85622-3.5152-8.57785-1.43429-2.66767-3.20164-5.16183-5.11334-7.51109-.96197-1.18215-2.07935-2.2954-3.17776-3.28749l2.89725-5.97591-6.90499 3.00202c-1.84666-1.07154-3.76112-1.77506-5.7082-1.98619-.10626-.0115-.31513-.0285-.31513-.0285s-6.28104 1.17484-7.83287 3.43013c0 0 3.07892-.13128 4.61551-.0526 1.12387.0575 2.25863.12597 3.3542.38305 1.39001.32618 2.69943.75514 4.02762 1.45772z" fill="#857347"/><g transform="scale(.26458334)"><path d="m-380.46289 606.11133c-14.43133 31.32812-30.56147 55.52778-54.08789 79.76562-4.47043 4.48309-8.35167 8.51864-13.12695 12.64649-11.38319 9.75927-18.25553 14.31575-26.27149 19.52148l-17.26758 10.41992c-25.62183 14.33171-54.76766 26.21962-87.5664 38.70899l-25.04102 4.51562 12.28516 8.19532 12.67773 1.44921c5.80607.67646 9.70818 2.60275 15.70508 5.7754 3.72673 1.97166 7.82644 5.32768 12.45313 9.38867 3.64432 3.19876 8.94662 9.44171 13.99835 13.50643 5.56963 4.48143 11.94449 7.85905 17.8492 11.88874 4.5305 3.09184 8.53356 7.07075 13.48614 9.42806 5.90545 2.81085 18.86552 5.39161 18.86552 5.39161l8.66797-15.33984s12.53398-22.17732 25.36328-44.3125c6.41466-11.06759 12.91068-22.13722 17.87891-30.30274 2.48409-4.08276 4.60333-7.4619 6.01563-9.58203l4.51171-3.7793c2.73816-2.17167 6.28484-5.10067 10.45313-8.5996 8.33658-6.99788 19.101-16.23647 29.78516-25.47461 21.1872-18.31979 41.67359-36.31426 42.02539-36.62305l83.1289-65.24805-4.71094-9.10937-81.78167-6.13815-3.99609-4.97266c-2.27444.53025-11.05809 4.86491-11.04055 4.81353-10.59696-.21335-17.03768 17.07559-20.25981 24.06681z" fill="#857347"/><path d="m-354.58831 592.82669c-.0586.0137-1.00586.23438-1.00586.23438-10.8138-.11528-21.64659 6.05904-24.86872 13.05026-14.43133 31.32812-30.56147 55.52778-54.08789 79.76562-4.47043 4.48309-8.35167 8.51864-13.12695 12.64649-11.38319 9.75927-18.25553 14.31575-26.27149 19.52148l-17.26758 10.41992c-25.62183 14.33171-54.76766 26.21962-87.5664 38.70899 8.24715.96091 15.43945 3.99981 22.16992 7.56055 5.55753 2.94024 10.42312 7.09265 15.14844 11.24023 4.32922 3.7999 10.0711 10.18737 15.41632 14.94784 2.09108 1.86231 4.15884 3.78655 6.50425 5.31621 3.78089 2.46585 7.7512 4.82647 12.06975 6.1401 5.60493 1.70492 17.44913 2.10366 17.44913 2.10366s50.23844-88.88867 52.80273-88.88867c1.32121 0 24.25443-19.5721 46.17969-38.54687 2.03611-1.76213-6.19202-5.76234-4.19141-7.49805 2.00058-1.73567 14.23132-1.20588 16.16016-2.88281 15.68422-13.63601 28.39649-24.79688 28.39649-24.79688l64.22851-50.41406-65.63323-5.5112z" fill="url(#e)" stroke-width="28"/></g></g></svg>