<svg height="500" viewBox="0 0 132.29167 132.29167" width="500" xmlns="http://www.w3.org/2000/svg" xmlns:xlink="http://www.w3.org/1999/xlink"><linearGradient id="a" gradientTransform="matrix(.74360245 -.66862201 -.66862201 -.74360245 63.368573 146.17705)" gradientUnits="userSpaceOnUse" x1="24.890131" x2="47.916145" y1="63.626438" y2="94.256218"><stop offset="0" stop-color="#d3b879"/><stop offset=".25" stop-color="#ebd6ad"/><stop offset=".5" stop-color="#ebd6ad"/><stop offset=".75" stop-color="#ebd6ad"/><stop offset="1" stop-color="#d3b879"/></linearGradient><linearGradient id="b" gradientTransform="matrix(.74360245 -.66862201 -.66862201 -.74360245 63.368573 146.17705)" gradientUnits="userSpaceOnUse" x1="29.47986" x2="45.49699" y1="74.91674" y2="103.6477"><stop offset="0" stop-color="#d3b879"/><stop offset=".28553611" stop-color="#bda46a"/><stop offset=".5" stop-color="#a8915b"/><stop offset=".790259" stop-color="#bda46a"/><stop offset="1" stop-color="#d3b879"/></linearGradient><linearGradient id="c" gradientTransform="matrix(.74360245 -.66862201 -.66862201 -.74360245 63.368573 146.17705)" gradientUnits="userSpaceOnUse" x1="21.193327" x2="44.479282" y1="67.183907" y2="97.859848"><stop offset="0" stop-color="#d3b879"/><stop offset=".28553611" stop-color="#bda46a"/><stop offset=".70769507" stop-color="#9c8653"/><stop offset=".790259" stop-color="#b69a5a"/><stop offset="1" stop-color="#bda46a"/></linearGradient><linearGradient id="d" gradientTransform="matrix(.26011945 -.96557646 -.96557646 -.26011945 92.958757 133.16102)" gradientUnits="userSpaceOnUse" x1="64.795837" x2="52.469883" y1="67.136147" y2="50.613346"><stop offset="0" stop-color="#1152d4"/><stop offset=".42431507" stop-color="#0d59f2"/><stop offset=".75" stop-color="#628fe9"/><stop offset="1" stop-color="#1152d4"/></linearGradient><g transform="matrix(.9999697 -.00778445 .00778445 .9999697 -15.911092 13.333547)"><path d="m69.005606 68.979951c5.925263-1.460238 9.919575 6.125682 13.454845 10.853874 1.89333 2.532292 4.0742 5.037172 6.63963 7.60486.36164.488553.77034.643615 1.31445.84961 2.63058.991548 5.17902 1.692945 7.94436 1.104124 2.765339-.588822 5.257889-2.192608 7.496089-4.486328l4.26954-4.376953-5.85352-1.757813c-7.696669-2.312534-11.316209-5.862726-14.896479-9.628906-2.67735-2.816372-6.19741-6.220072-9.87424-8.553003-1.29678-.822807-2.51004-1.538348-4.21261-1.865986z" fill="#14439e"/><path d="m70.649001 66.263365c7.17487 1.691227 11.16777 6.524193 14.77756 11.352045 1.91721 2.564236 3.77395 5.133954 6.06914 7.431173 4.43208 1.67059 7.90958 1.165231 11.708819-2.728247-16.886419-5.07368-17.609219-16.914099-28.627939-19.034343l-2.042718-.848488z" fill="#145dec"/></g><g transform="matrix(.96819991 .25017782 -.25017782 .96819991 8.179535 -9.460049)"><path d="m62.171071 75.415527c3.8881.207826 5.35448 2.913564 6.99446 4.984704s2.85129 5.021846 4.15625 8.427735c2.60992 6.811777 6.19438 15.775204 17.10352 19.458984l7.90429 2.66798-4.54687-10.47853c4.1449.87321 8.363759.94391 12.410149-.46484l10.66602-3.714844-10.79492-3.324219c-11.668499-3.593702-14.965529-8.298751-18.757809-13.720703-3.30116-4.719785-7.06441-10.458772-15.36352-13.749566l-3.80016-1.709589-6.69329 6.687016z" fill="#14439e"/><path d="m66.915721 67.964089-4.49438 4.634439c18.40293 3.265201 10.15952 25.752864 29.18869 32.178612l-4.54018-10.461499c6.00337 2.949603 12.34716 4.131818 17.904199 2.197135-24.875699-7.661297-17.647689-23.191914-38.058329-28.548687z" fill="#145dec"/></g><g transform="matrix(.74360245 -.66862201 -.66862201 -.74360245 56.121802 149.07648)"><path d="m83.209088 14.599523c-3.63638-.03853-7.663762 1.14904-9.368419 4.847766v.000529c-4.009391 8.703719-8.404993 15.041578-15.292097 21.764049-3.68771 3.249155-5.780564 4.788951-8.077042 6.28127l-4.403857 2.657202c-6.490812 3.627872-14.023579 6.713519-22.785177 9.976136-.422222.09459-.703738.323221-1.030419.58601-2.335769 1.880275-4.803114 4.642313-6.250279 7.717875-1.63023 3.464592-1.693916 7.940646-.108003 13.089123 1.229281 3.991438 3.397091 7.803827 6.030648 10.789007 2.449698 2.776564 4.604835 4.931307 7.492207 7.188 2.887398 2.25669 5.807101 3.52424 8.278415 3.96636 2.471315.44211 5.255419.1562 7.4109-1.57148 1.490134-.9834 3.168703-2.106254 4.169781-3.342951.843359-1.100119 1.296696-2.240444 1.710505-3.483507 3.146425-7.231142 6.558756-13.417257 10.433103-18.653017.726546-.981856 1.469337-1.930292 2.22967-2.84593l3.672126-4.031279c1.754293-1.752203 3.519646-3.301688 7.529777-6.195489 8.806154-5.596647 16.625227-8.44491 26.457303-10.216431 3.28194-.591767 5.0446-3.294067 5.97019-5.882843.92554-2.588779 1.22671-5.573676.98803-8.752438l-.97512-5.458067c-.88149-3.073002-2.35098-6.153091-5.15525-9.450751-2.804259-3.29766-7.144199-5.980766-11.421-7.516701-2.229829-1.236931-4.738741-1.705386-7.505992-1.462443z" fill="#857347"/><path d="m30.951347 81.179092c-2.30423-.970514-4.934205-3.537983-6.908535-7.803076-1.503834-3.248127-2.355096-7.146651-2.387129-10.533581-.03189-3.386811.369422-6.76609.763658-10.634125 1.354099-4.870631 3.720217-8.096389 6.572786-8.258253.998768-.05659 3.024171-.597801 4.511608-.347629.944096.158784 2.633845 1.145259 2.633845 1.145259 8.774773 4.006993 16.946496 6.685372 24.876566 7.841881l5.6848.568223c2.673898.141987 5.329034.10652 10.477296-.451838 10.779601-1.794493 19.118177-5.15026 27.954848-10.617909 2.36074-1.460276 6.71857.990881 10.07883 5.343705l-4.66718 4.442584 7.1934-.37407c1.20639 2.478354 2.01086 5.254581 2.09033 8.12212.12085 4.389478-1.13198 8.723729-3.00367 12.202113l-5.44134 1.062821 3.00873 2.575549c-.46078.549411-.93088 1.050309-1.41383 1.493657v.000004c-2.10717 1.935705-4.36683 2.791308-6.23755 1.985838-9.160895-3.946437-17.282511-5.863145-27.335488-6.264697-5.121154.04816-7.983045.327155-10.859215.780655l-5.240655 1.004675c-7.576331 1.712977-15.413897 4.529966-24.183901 7.991042-2.103736.114934-6.152122-.425782-8.168198-1.274956z" fill="url(#c)" transform="matrix(.74360246 -.66862202 -.66862202 -.74360246 50.616172 151.06723)"/><path d="m32.379031 97.254836c1.04985-.214234 2.00277-.729822 2.40687-1.075556l8.11085-8.016528 2.287841-2.151316c-.12582-1.391756-.54817-2.681335-.97972-3.967742l-2.595971 2.580447-4.29466 4.268978c-.11305-1.200843-.39942-2.472185-.87029-3.795216-1.08374-3.047312-2.92143-5.616115-5.33627-7.168538l4.75803-2.984944 4.058872-.327884c-1.78326-2.492049-2.261113-2.969933-2.141093-2.742872l-4.213469.47976-7.04845 4.417279-3.63013 2.282976 4.20819.833559c2.61179.520154 4.85348 2.805868 6.11494 6.352147.93882 2.638754.85271 4.766852.33786 6.027052-.17525.48436-.42676.793132-.76703 1.16432-.39674.394865-.91635.543175-1.60038.519425-1.73882-.06027-4.24343-1.552422-6.4842-4.092186l-2.776378 2.450493z" fill="#857347"/><path d="m44.204872 82.043694-2.595971 2.580447-4.29466 4.268978c-.11305-1.200843-.39942-2.472185-.87029-3.795216-1.08374-3.047312-2.92143-5.616115-5.33627-7.168538l4.75803-2.984944 2.907195-1.823825" fill="#dc8add"/><path d="m68.784142 56.985236-31.056653-1.55553-6.047849-.30292c.718842.968542 1.355946 2.105384 1.890417 3.404026 1.231625 2.990604 1.58267 6.129493.824975 8.898493l5.53388-.96171 30.023837-5.217728" fill="url(#b)" transform="matrix(.74360246 -.66862202 -.66862202 -.74360246 50.616172 151.06723)"/><path d="m36.137458 44.747589c8.774767 4.007002 16.946624 6.685462 24.876688 7.841979l5.6848.568223c2.238171.118842 4.296939.209275 7.981969-.123139 1.847256-.208404 3.713321-.523444 5.405835-.863142 9.405684-1.894306 17.018698-5.117837 25.04429-10.083633 2.36072-1.460263 6.71883.991029 10.0791 5.343861l-4.66763 4.442575 7.19363-.373885c1.2064 2.478346 2.01088 5.254228 2.09035 8.121767.12085 4.389478-1.13181 8.724013-3.0035 12.202403l-5.44154 1.062766 3.0086 2.575438c-.46077.549397-.93056 1.050409-1.41352 1.493755l-.00026-.000011c-2.10717 1.935705-4.36694 2.791382-6.23766 1.985913-8.381436-3.610658-15.836059-5.518481-24.752591-6.125185-1.67262-.09117-3.149991-.198625-4.819745-.165982-3.966062.09367-6.124169.412988-8.622198.806869l-5.240692 1.004983c-7.576331 1.712976-15.413704 4.529893-24.18377 7.990932.07305-.07604.143961-.152284.215289-.23189 1.344954-1.532079 2.22236-3.402337 2.916619-5.293556.573271-1.561632.79581-3.239113.991753-4.891058.179528-1.513483.206554-3.004618.164907-4.5693-.07769-2.930792-.490108-5.990242-1.219795-9.00416-.729679-3.013925-1.776625-5.98232-3.123355-8.731011-.879133-1.794306-1.85992-3.46875-2.927572-4.98551z" fill="url(#a)" transform="matrix(.74360246 -.66862202 -.66862202 -.74360246 50.616172 151.06723)"/><g fill="#857347"><path d="m28.739461 68.816232c1.76411.933171 3.355306 2.193125 4.83056 3.537193.852977.777126 1.578484 1.687054 2.29569 2.590996 1.235074 1.556646 2.44038 3.150495 3.446186 4.864236.900182 1.533774 1.60927 3.175419 2.297004 4.815484.485409 1.157571.967794 2.324875 1.28785 3.538611.509136 1.93078.674508 3.936246.99344 5.907391.421412 2.604513 1.21577 7.821227 1.21577 7.821227l2.46289-8.260856c-.22023-1.841722-.5957-3.822803-1.15648-5.667572-.898721-2.956478-2.051913-5.856225-3.515205-8.57785-1.434283-2.66767-3.201635-5.161829-5.113335-7.511092-.961968-1.182149-2.07935-2.295399-3.17776-3.287487l2.89725-5.975915-6.90499 3.00202c-1.84666-1.071536-3.76112-1.775058-5.7082-1.986186-.10626-.01151-.31513-.02849-.31513-.02849s-6.28104 1.174834-7.83287 3.430131c0 0 3.078921-.131283 4.615513-.05261 1.123861.05754 2.258623.125968 3.354197.383051 1.39001.326174 2.699428.755137 4.02762 1.457718z"/><path d="m88.209778 21.642065c-.659799-.0071-1.334245.03202-2.023649.115752-3.635635.08255-7.621451 1.403379-9.202023 5.156792v.000516c-3.717403 8.832333-7.899853 15.31318-14.559318 22.261175-3.577485 3.370102-5.617569 4.978435-7.863087 6.546369l-4.312915 2.802414c-6.366417 3.841926-13.792395 7.176588-22.440488 10.729061-.41884.108593-.69253.346599-1.01028.620117-1.91666 1.651009-3.90417 3.933094-5.2865 6.480742-.003.005-.007.0099-.0103.01498h.003c-.25307.467394-.48815.942732-.69608 1.425753-1.51398 3.51693-1.42828 7.992699.32814 13.085507 1.36147 3.948287 3.65471 7.686459 6.38618 10.582297 2.540757 2.69346 4.766804 4.77566 7.727689 6.93498 2.960912 2.15932 5.921035 3.32854 8.405689 3.68814 2.484652.3596 5.257827-.0185 7.35459-1.81694 1.456566-1.03246 3.096734-2.21056 4.056083-3.47989.806265-1.12758 1.221504-2.28266 1.593702-3.5388 2.903942-7.331851 6.108236-13.628239 9.806119-18.990055.693457-1.005495 1.404295-1.978247 2.133721-2.918685l3.536218-4.151168c1.694981-1.809625 3.407376-3.416818 7.318933-6.442501 8.614923-5.88668 16.335173-8.993986 26.102808-11.09183 3.26038-.700691 4.9318-3.460036 5.7707-6.078182.83884-2.618144 1.04096-5.6113.69659-8.780343l-1.15651-5.422925c-.9833-3.041941-2.55439-6.071386-5.46685-9.273852-2.91291-3.202464-7.339809-5.73968-11.665352-7.13238-1.70232-.871506-3.547405-1.305694-5.526794-1.32705zm-1.441773 3.816821c.502867.0072 1.022826.04165 1.557528.09922l-.384473 3.941879 4.659664-3.004986c3.759893 1.210582 7.666766 3.467101 10.621576 6.715354 1.92992 2.122364 3.27391 4.681717 4.12171 7.304463l-5.44515 4.715475 6.44302-.03204c.59401 5.466756-.84867 10.254341-3.56258 10.837582-10.15969 2.182057-18.497098 5.541033-27.512007 11.717632-4.09847 3.165227-6.037413 4.980111-7.866703 6.935493l-3.704168 4.349089c-4.915548 6.329327-8.950882 13.923473-12.500012 22.893173-.281419-1.83337-.722738-3.800937-1.344621-5.62601-.528921-1.55226-1.129849-3.085526-1.808675-4.582665l.000518-.0015-.000984.000515c-.600155-1.323548-1.260877-2.618767-1.989543-3.872116-1.522293-2.61844-3.371549-5.052702-5.360396-7.33702-1.000788-1.149468-2.15476-2.22468-3.285587-3.179651l2.696476-6.06888-6.801135 3.229776c-1.881306-1.009464-3.818197-1.64853-5.771225-1.794722-.106583-.008-.315742-.01809-.315742-.01809 8.721087-3.582451 16.323668-6.982802 22.972758-10.998295l4.474663-2.907832c2.387791-1.666256 4.644153-3.44811 8.369515-6.962367 6.969198-7.256238 11.496022-14.266438 15.365471-23.460067.790464-1.877106 3.012458-2.826531 5.873026-2.891296.163855-.0038.329503-.0045.497127-.0021zm-60.649017 50.704917c1.12297.0201 2.257123.05075 3.358456.270784 1.400097.27972 2.722809.664943 4.073653 1.322917 1.794196.873925 3.426772 2.080262 4.945952 3.374471l-6.89777 4.649329-3.551721 2.402955 4.233333.69298c2.627649.432916 4.944316 2.642538 6.323128 6.144845 1.026141 2.606028 1.011078 4.735918.538468 6.012546-.159028.48993-.400396.80677-.72812 1.18908-.383375.40785-.897892.57354-1.582333.57257-1.631116-.002-3.976618-1.23983-6.178434-3.424588-.01214-.012-.02405-.0251-.03617-.0372-.133482-.13758-.269498-.27297-.401009-.41238-2.324064-2.463933-4.412174-5.864701-5.578984-9.248533-1.53238-4.443043-1.41599-8.11629-.42737-10.412801.38212-.887676 1.09788-2.005511 1.90893-3.096969zm14.758794 7.481197c1.286209 1.514665 2.543683 3.067691 3.605981 4.746998.950742 1.502954 1.714231 3.119885 2.456181 4.736145l-4.150134 4.409549c-.03824-.299102-.08742-.602101-.147794-.908988-.120115-.610638-.284932-1.236381-.494544-1.874305-.0011-.0033-.0015-.0066-.0026-.0098-.0011-.0036-.0024-.0073-.0037-.01085-.104657-.317181-.220544-.637111-.347783-.960148-.666237-1.692863-1.565981-3.22647-2.664436-4.506184-.841811-.995514-1.829204-1.814642-2.907317-2.48047zm7.467244 12.976987c.57313 1.912755.805217 3.911523 1.189592 5.870953.19943 1.01663.465594 2.41709.72037 3.7636-.6523.47397-1.28504.88215-1.657264 1.20147-2.168675 1.86016-6.109805 1.1741-10.461377-1.39888 1.041938-.24911 1.976543-.79603 2.368848-1.15496z" transform="matrix(.99944572 .0332904 -.0332904 .99944572 -2.205265 -10.01539)"/></g></g><g transform="matrix(.74360245 -.66862201 -.66862201 -.74360245 63.368566 146.17705)"><path d="m46.983398 47.450888c-1.22175.921867-2.55671 1.897593-3.86327 2.746093l-6.23035 3.647939 3.68391 2.214625c3.42286 1.130491 6.45224 3.2837 8.58657 6.062213 2.54012 3.306772 3.64781 7.026037 4.3363 11.733669l1.34718 4.249428 5.15008-5.880841c2.42044-2.37252 4.50613-4.039019 7.52978-6.195489.92383-1.473752.74047-3.05188.43492-4.614592-.13858-.708739-.248-1.374994-.38582-2.095811-.55626-2.90956-1.99024-5.641515-3.86657-8.07232-1.87634-2.430805-4.09703-4.441727-6.56122-5.710883-.69911-.359963-.94023-.529151-1.5783-.743121-.71606-.240122-1.49135-.418732-2.25856-.480948-.89888-.07289-2.70238.129753-2.70238.129753-1.92336 1.623462-2.54607 2.224747-3.62227 3.010285z" fill="#14439e"/><path d="m52.643268 48.051969c-.19476.0095-.37743.04127-.54966.08584-2.19423 1.872771-4.50902 3.579156-6.95097 5.165002.15427.06027.30597.12182.45805.188481 2.5876 1.130895 5.02717 3.13133 7.04845 5.593289 2.44707 2.981015 4.32764 6.746645 4.69481 10.54734 1.89339-1.893408 3.89158-3.642348 6.01766-5.245362.75047-1.197191.90327-2.642406.57256-4.371987-.40015-2.093031-1.58338-4.461845-3.16054-6.506475-1.57751-2.04445-3.55079-3.76636-5.3249-4.680098-1.10884-.570926-2.04363-.812738-2.80564-.776211z" fill="url(#d)"/><path d="m50.605915 44.440672c-1.923358 1.62346-1.430707 1.246896-2.169333 1.842215-1.129093.91003-2.255863 1.828542-3.4562 2.642296-2.9449 1.996459-9.161326 5.476738-9.161326 5.476738l4.754545 1.657621c3.422856 1.130489 6.452287 3.283533 8.586615 6.062043 2.540118 3.306769 3.648161 7.026264 4.336651 11.733891l1.346871 4.249379 5.149927-5.881033c2.420438-2.372517 4.506244-4.038651 7.529891-6.195119.923829-1.473751.74058-3.052327.43503-4.615037-.13858-.708739-.2481-1.374579-.38592-2.095396-.556259-2.909557-1.990182-5.641428-3.86651-8.07223-1.876338-2.430803-4.096919-4.442002-6.561106-5.711157-.699109-.359962-.940112-.529035-1.578181-.743005-.71606-.240122-1.491418-.418795-2.258627-.481011-.898879-.07289-2.702327.129805-2.702327.129805zm1.487413 3.697148c.17223-.04457.355162-.07619.549922-.08569l-.000271-.00044c.762009-.03653 1.697087.205365 2.805926.77629 1.774108.913737 3.746899 2.635638 5.324408 4.680086 1.577158 2.044628 2.760845 4.41331 3.160995 6.506339.330709 1.72958.177871 3.174841-.572598 4.372031-2.126078 1.603012-4.124526 3.352033-6.017914 5.245439-.36717-3.800691-2.247382-7.566175-4.69445-10.547187-2.021278-2.461957-4.46119-4.462515-7.048788-5.593409-.15208-.06666-.3035-.128108-.457769-.188378 2.441947-1.585844 4.756311-3.292317 6.950539-5.165086z" fill="#14439e"/></g></svg>