<svg height="500" viewBox="0 0 132.29167 132.29167" width="500" xmlns="http://www.w3.org/2000/svg" xmlns:xlink="http://www.w3.org/1999/xlink"><linearGradient id="a" gradientTransform="matrix(1.9816278 0 0 1 345.1094 -91.982706)" gradientUnits="userSpaceOnUse" x1="24.890131" x2="47.916145" y1="63.626438" y2="94.256218"><stop offset="0" stop-color="#d3b879"/><stop offset=".25" stop-color="#ebd6ad"/><stop offset=".5" stop-color="#ebd6ad"/><stop offset=".75" stop-color="#ebd6ad"/><stop offset="1" stop-color="#d3b879"/></linearGradient><linearGradient id="b" gradientTransform="matrix(-3.2081389 0 0 3.2081389 -720.06589 -464.31363)" gradientUnits="userSpaceOnUse" x1="-249.87244" x2="-230.9847" y1="161.64737" y2="171.94391"><stop offset="0" stop-color="#deaa87"/><stop offset="1" stop-color="#d38d5f"/></linearGradient><g stroke-width="1.07426" transform="matrix(.78636308 .49815664 -.49815664 .78636308 -91.914388 -101.5625)"><g stroke-width="1.41413" transform="matrix(.1490449 .13487801 -.13484881 .14901263 236.32802 -17.766449)"><path d="m40.03911 99.465809c-3.855136-2.092382-9.081489-4.864504-14.03158-7.742585-5.474948-3.183243-16.570558-12.454718-19.140552-15.120868-3.8724233-4.329287-6.04535863-10.483299-6.18712033-16.290063 3.21743983-13.820085 16.57478133-30.483544 25.56501633-37.283772 10.594809-7.830329 24.067643-13.4974104 40.255017-16.7721184 5.755308-1.529062 11.989942 1.547093 16.50559 5.1244254 1.580751 1.747358 9.012506 10.376027 10.360348 13.330652 2.514389 5.511833 4.592727 12.013981 6.120167 15.36368.683214 1.918563 10.649404 16.205058 18.413264 30.505835 13.27307 22.503591 12.99425 24.60018-4.8029 42.397945-15.987787 21.8603-31.223642 10.38714-48.547053 1.26441-16.06678-8.46496-22.985671-13.74212-24.510197-14.777541z" fill="#c36e36"/><path d="m102.84466 66.661043c5.05249 8.528909 12.95051 20.023072 7.38696 28.807342-5.09799 6.044095-6.43309 7.795705-14.370697 13.742665-3.82936 3.42199-19.969409-2.591-29.124477-6.47595-17.733116-7.525048-37.334534-23.594331-48.217933-31.856533 14.881674-6.628078 27.680024-12.112384 38.881174-21.899902 8.204727-7.169255 19.715634-26.07174 19.715634-26.07174s19.155813 32.657619 25.729339 43.754118z" fill="url(#b)"/><path d="m68.602894 16.656548c-12.624283 1.66512-23.006765 4.621931-32.21328 11.312044-10.876312 7.903506-21.186905 20.572397-24.464143 32.067769 18.711407-2.892779 26.908217-9.837804 37.763845-18.768067 7.990291-6.573125 15.665144-14.074485 18.91401-24.611313l.000432.000433" fill="#deaa87" stroke-width="1.41413"/></g><path d="m225.78125 2.1425781v4.7617188 21.6269531c-6.51186 4.741509-11.46875 10.293593-11.46875 17.283203v68.986327c-.00009.003-.0634 2.14685 1.10742 4.40235 1.17161 2.25711 4.41962 4.77734 8.24219 4.77734h27.50781c3.88436 0 7.14016-2.6351 8.28711-4.91992 1.14696-2.28482 1.08203-4.42969 1.08203-4.42969v-68.816407c0-6.990467-4.95812-12.543571-11.4707-17.285156v-26.3867189z" fill="#133a2a" stroke-width="1.07426"/><path d="m230.54319 6.905201v23.999032c-6.88181 4.587875-11.46889 10.322454-11.46889 14.910065v68.986132s-.0008 4.41775 4.58708 4.41775h27.50793c4.60667 0 4.6064-4.58788 4.6064-4.58788v-68.816002c0-4.587875-4.58735-10.322455-11.46889-14.910065v-23.999032z" fill="#267353" stroke-width="10.2323"/><path d="m219.07431 55.189015h36.70139v42.862498h-36.70139z" fill="#857347"/><path d="m219.07431 59.951515v33.337498h36.70139v-33.337498z" fill="url(#a)"/></g></svg>