<svg height="500" viewBox="0 0 500 500" width="500" xmlns="http://www.w3.org/2000/svg"><g stroke-linecap="round" stroke-linejoin="round"><path d="m462.16602 109.69141c-57.18134-40.291574-123.24061-58.917689-201.4004-58.957035-11.14788-.0052-22.3336.380002-33.48046 1.201172-3.79443.279843-7.40262 1.754711-10.30664 4.212891l-7.875 6.666015c-9.34537 7.912455-18.34431 27.547413-30.91976 37.941307-11.35215 9.38281-32.29926 15.40077-38.8927 20.96509l-104.891982 88.52842s-7.27069 4.28106-9.238922 7.79761c-4.796928 8.57045-3.952734 18.19582-4.424414 29.13062-.07737 29.00554.283445 56.12902.67832 85.06078.0017 11.78335 9.07335 29.97302 8.945517 45.39523-.117929 14.22736-7.44625 27.58699-8.945517 41.73563-.417866 3.94342 0 11.89648 0 11.89648.0014 11.7844 11.137403 20.38945 22.541016 17.41797l182.306642-47.53125c10.89463-2.84129 28.79369-19.49459 45.29154-23.84374 16.95878-4.47066 40.69887 1.31025 52.58932-1.62695l143.57812-36.98243c7.9513-2.04892 13.50856-9.21865 13.50977-17.42969v-164.71729s2.12054-14.06839 0-20.59912c-3.34071-10.28855-10.22182-20.03095-19.06445-26.26171z" fill="#e5a50a"/><path d="m100.04875 230.59465-60.6339 15.8058v85.8375c.2763-.072.4743-.189.7587-.252 12.9573-2.979 25.3737-1.1322 34.821 5.0328 9.4455 6.165 15.525 16.9137 15.525 29.1663 0 24.5043-20.8314 46.566-46.6884 52.5096-1.5345.351-2.961.4923-4.4163.675v11.8962l182.3067-47.5308c-2.367-5.0418-3.6567-10.557-3.6567-16.3404 0-23.8635 22.2048-43.2288 49.6125-43.2288 23.4162 0 43.0416 14.1372 48.2625 33.1317 1.2285.306 2.4714.6174 3.7125.954l143.5788-36.9828v-185.3163l-.002.0009-268.398 69.948z" fill="#f6d32d" stroke-width="36"/><path d="m187.20745 192.31495 263.1384-69.048c-40.4784-35.2404-114.5007-54.495-189.5895-54.5328v.0009c-10.728-.005-21.4704.3654-32.148 1.152l-7.875 6.6663c9.153 5.6358 15.3 14.0112 16.9038 23.4576 1.7883 10.521-2.2644 21.663-10.9125 30.2058-17.2953 17.0856-46.269 21.3156-68.1462 10.2096-2.8044-1.4238-5.3703-3.087-7.677-4.95l-114.1326 96.3261 66.4596-17.4366z" fill="#f6d32d" stroke-width="36"/></g><path d="m378.93715 254.10715c18.6246 0 34.9587 13.536 34.9587 31.5288s-16.3332 31.5558-34.9578 31.5558c-18.6255 0-34.9875-13.563-34.9875-31.5558s16.362-31.527 34.9875-31.527z" fill="#e5a50a"/><path d="m156.21595 196.47835c-2.0754.004-4.2534.1836-6.525.5913-18.1845 3.267-32.823 19.6146-32.823 33.525 0 6.957 2.8935 11.9277 8.0154 15.4692 5.121 3.5415 12.7332 5.373 21.825 3.7404 18.1836-3.2652 32.85-19.584 32.85-33.4962 0-6.9552-2.8935-11.9547-8.0154-15.4962-3.8412-2.6568-9.1062-4.3407-15.327-4.3317z" fill="#e5a50a"/></svg>