<svg height="500" viewBox="0 0 132.29167 132.29167" width="500" xmlns="http://www.w3.org/2000/svg" xmlns:xlink="http://www.w3.org/1999/xlink"><linearGradient id="a" gradientUnits="userSpaceOnUse" x1="153.45882" x2="107.33691" xlink:href="#b" y1="368.399459" y2="314.227309"/><linearGradient id="b"><stop offset="0" stop-color="#bf7340"/><stop offset=".65644342" stop-color="#cc8f66"/><stop offset="1" stop-color="#7d4b2a"/></linearGradient><linearGradient id="c" gradientUnits="userSpaceOnUse" x1="120.365112" x2="69.227394" y1="278.762319" y2="341.708819"><stop offset="0" stop-color="#683e22"/><stop offset=".49608541" stop-color="#a45928"/><stop offset=".7167356" stop-color="#8b502a"/><stop offset="1" stop-color="#9b5425"/></linearGradient><linearGradient id="d" gradientUnits="userSpaceOnUse" x1="113.692378" x2="202.18537" xlink:href="#b" y1="388.456129" y2="379.280289"/><g stroke-width="1.13916" transform="matrix(.87783777 0 0 .87783777 -48.365243 -238.09351)"><path d="m100.01453 278.7628c-.841763-.003-1.683278.008-2.52388.0315-7.906748.35335-16.010883 1.87545-22.829613 6.08645-4.21979 2.64845-7.359312 7.12232-7.959723 12.11657-.991118 5.90693-.02543 11.8913-.11317 17.83352.0722 6.23454-.539126 12.45802-2.306836 18.47123-.529241 1.99697-.513178 4.15171.279053 6.07819 1.349629 3.7618 3.957736 6.87602 6.398575 9.97458 5.503 6.59186 11.779192 12.47691 17.746721 18.63762 3.266501 3.30769 6.464533 6.72741 9.714654 10.06761 2.724099 2.79996 5.297829 3.14698 7.821749 3.26388.00008-.00011-.00009 0 0 0 1.11999.28278 2.30247.40669 3.51606.40669 1.94059 0 4.79781-.0119 25.14679-1.27744 9.81007-.61005 15.53144-.0177 19.53679.48059 2.00268.24921 3.58708.51245 5.38107.55086 1.79399.0384 4.08603-.31554 5.98258-1.50585 4.22319-2.65057 4.16377-6.12179 4.47828-8.55657.31514-2.07929.30672-4.90064-.0881-6.08594v-.006l-.002-.004c-4.1557-12.28982-5.90576-21.95021-2.21485-33.07602 1.40095-4.22283 1.15316-8.53149-.42943-11.84373-.00053 0-.001-.003-.002-.003-.00053 0-.001-.003-.002-.003-.65866-1.37652-1.51959-2.62056-2.53731-3.74758-3.75845-5.00589-9.52326-10.98095-13.78624-13.43689-3.77277-2.1735-4.8541-4.13965-7.89978-6.51071-2.78153-2.16546-5.70725-4.93993-9.07955-6.46938-1.03673-.47019-2.21637-2.10706-4.74441-3.81167-3.64619-2.45851-7.80582-4.08768-12.02045-5.31646-5.66874-1.63406-11.57172-2.32383-17.46406-2.34405z" fill="#603a20" stroke-width=".301403"/><path d="m134.55287 307.30023c-10.71712.0421-20.3776 2.20023-27.39832 6.63886-3.48396 2.20255-6.34223 4.99637-7.976262 8.5566h.0016c-1.58555 3.45366-1.852134 7.81632-.480073 12.11141 3.624165 11.33991 4.879515 18.78386.441317 32.54116l-.02532.0801-.146761.50953c-.961988 3.0316-.831049 5.38287.910537 8.60362v.003.003c.673472 1.24378 1.896252 2.86115 3.714502 3.91604 1.81824 1.0549 3.93997 1.46659 6.16396 1.46659 1.94059 0 4.7978-.0119 25.14679-1.27746 9.81008-.61005 15.53144-.0177 19.53679.48061 2.00268.24921 3.58707.51245 5.38107.55087 1.79399.0384 4.08603-.31555 5.98258-1.50585 4.22319-2.65057 3.43323-3.98767 4.30976-7.08525.54508-2.12805.64362-5.93604.0807-7.55727-.00018-.003.00053-.004 0-.006-.00026-.003-.002-.003-.002-.004-2.89683-10.66356-5.90576-21.95021-2.21485-33.07602 1.40096-4.22283 1.15315-8.53149-.42944-11.84373-1.63993-3.43138-4.51819-6.05366-8.02173-8.03722-6.17221-3.49354-14.42708-5.1077-24.9747-5.06637z" fill="#603a20"/><path d="m109.98274 318.41113c-2.86597 1.81186-4.9141 3.93805-5.9944 6.29179-1.08082 2.35426-1.30783 4.97787-.24871 8.29336 3.75444 11.7475 5.17314 21.10052.43842 35.77696l-.12383.42967c-.34316 1.04245-.31829 3.14801.4789 4.62227.79798 1.47373 2.03729 2.61223 5.22552 2.61223 1.93146 0 4.49448-.005 24.81681-1.26878 20.32234-1.26378 24.92287 2.51863 28.416.32627 2.47137-1.55108 2.9137-6.48542 2.18946-8.47513-4.29207-12.69312-6.3791-23.91304-2.22409-36.43789 1.0795-3.25385.85461-5.72664-.18203-7.89623-1.03664-2.16905-3.02048-4.10897-5.85391-5.71314-4.95829-2.80644-12.37985-4.41854-22.34657-4.37947-9.96672.0391-18.85937 2.19409-24.59157 5.81809z" fill="url(#a)" stroke-width=".301403"/><path d="m100.01986 281.91532c-11.292951.005-21.901684 2.97128-26.797534 8.25156-8.110009 8.7466.327554 22.96319-6.011334 44.46667-2.278856 7.73113 19.626263 25.91171 32.328909 40.11745-.826823-2.24631-.834231-4.55295-.305858-6.53203v-.18203l.124354-.38021c4.644493-14.13034 3.357033-21.61434-.330729-33.15573-1.374246-4.29948-1.1176-8.39523.470958-11.85651 1.588554-3.46128 4.392084-6.23835 7.838284-8.41719 6.89239-4.35769 16.45576-6.51219 26.01198-6.78815 1.19433-.0344 2.38284-.0415 3.57188-.0164 6.19918.13017 12.25285 1.07764 17.43762 2.96862-1.53246-1.59808-3.26575-3.20754-5.1181-4.82071-11.07281-6.39048-41.14456-4.86621-55.041268 4.26641 8.748448-11.70146 30.366228-17.51383 48.823568-9.3681-2.18467-1.71001-4.4286-3.40307-6.64766-5.06042-10.87782-6.54844-41.277648-5.07101-55.272784 4.12591 8.518261-11.39296 29.244394-17.21035 47.368354-9.98802-7.60756-5.24193-18.30308-7.63588-28.45064-7.63138z" fill="url(#c)" stroke-width=".301403"/><g stroke-width="1.13916" transform="translate(.00001 5.352403)"><path d="m142.8087 364.96079c-3.02339 0-5.5981.45379-7.69307 2.08206-6.3631 4.9453-15.41755 11.49659-21.77542 16.45687-1.64442 1.28267-2.57885 2.50394-2.95485 3.99407v.003h-.002c-.10235.40671-.24717 1.20504.24259 3.9692.48976 2.76413 3.04194 8.51254 7.4789 8.47862 13.55249-.10318 23.85442 3.22533 33.50907 6.75566 5.09178 1.86172 15.05656 3.21294 21.7656 1.66841 10.24076-2.35759 17.18545-9.31733 21.31753-14.66588 2.30533-3.21358 2.75697-7.9566 1.81902-11.58743-.22618-1.30881-1.71932-3.43265-3.8633-4.70696h-.002c-2.299-1.36522-5.43655-2.28243-9.76943-2.75228-12.95866-1.4044-21.49516-2.9161-32.75201-8.30646-1.83302-.87794-4.16769-1.38985-7.32048-1.38856z" fill="#603a20"/><path d="m137.22636 369.75754c-6.4479 5.01121-15.50379 11.56494-21.76992 16.45365-1.2356.96361-1.63618 1.72614-1.73672 2.1246-.10055.39952-.0651.57283.2151.96785.55986.78978 2.59027 1.84229 4.60534 1.82721 14.47906-.10716 25.76777 3.35915 35.29674 7.94544 5.16731 2.48708 11.49562 2.57228 17.653 1.075 6.15686-1.49754 12.07506-4.57994 16.14752-7.98724 4.07247-3.40731 5.90815-7.04056 5.57292-8.97943-.16774-.96943-.68315-1.84944-2.3151-2.8194-1.63248-.96943-4.38256-1.85605-8.38412-2.28997-13.0683-1.41631-22.21256-3.04324-33.86667-8.62383-.88053-.42174-3.23956-1.05304-5.8334-1.05197-2.59384.001-4.46471.48762-5.58469 1.35809z" fill="url(#d)"/></g></g></svg>