<svg height="500" viewBox="0 0 500 500" width="500" xmlns="http://www.w3.org/2000/svg" xmlns:xlink="http://www.w3.org/1999/xlink"><radialGradient id="a" cx="219.91321" cy="-77.60083" gradientTransform="matrix(-1.954775 .94351742 -.75428885 -1.0738087 908.42577 -427.77954)" gradientUnits="userSpaceOnUse" r="54.40234" spreadMethod="reflect" xlink:href="#b"/><linearGradient id="b"><stop offset="0" stop-color="#e6e0cd"/><stop offset=".5" stop-color="#d8d1b6"/><stop offset=".75" stop-color="#dcd5bc"/><stop offset="1" stop-color="#e6e0cd"/></linearGradient><radialGradient id="c" cx="219.91321" cy="-77.60083" gradientTransform="matrix(2.0396327 1.1078682 .78703287 -1.2608549 -555.71546 -403.66619)" gradientUnits="userSpaceOnUse" r="54.40234" spreadMethod="reflect" xlink:href="#b"/><radialGradient id="d" cx="219.91321" cy="-77.60083" gradientTransform="matrix(-2.1941115 1.1624371 -.79345873 -1.4167773 1029.8048 -307.29853)" gradientUnits="userSpaceOnUse" r="54.40234" spreadMethod="reflect" xlink:href="#b"/><radialGradient id="e" cx="219.91321" cy="-77.60083" gradientTransform="matrix(-2.2204539 1.1367111 -.85680632 -1.2936807 1012.3302 -676.70782)" gradientUnits="userSpaceOnUse" r="54.40234" spreadMethod="reflect" xlink:href="#b"/><filter id="f" color-interpolation-filters="sRGB" height="1.120748" width="1.01876" x="-.00938" y="-.060374"><feGaussianBlur stdDeviation=".79766337"/></filter><filter id="g" color-interpolation-filters="sRGB" height="1.07833" width="1.013241" x="-.00662" y="-.039165"><feGaussianBlur stdDeviation=".73623596"/></filter><filter id="h" color-interpolation-filters="sRGB" height="1.016204" width="1.002604" x="-.001302" y="-.008102"><feGaussianBlur stdDeviation=".1448101"/></filter><filter id="i" color-interpolation-filters="sRGB" height="1.039141" width="1.006665" x="-.003332" y="-.019571"><feGaussianBlur stdDeviation=".25857002"/></filter><filter id="j" color-interpolation-filters="sRGB" height="1.091523" width="1.013813" x="-.006906" y="-.045762"><feGaussianBlur stdDeviation=".58721383"/></filter><filter id="k" color-interpolation-filters="sRGB" height="1.102088" width="1.01487" x="-.007435" y="-.051044"><feGaussianBlur stdDeviation=".79631281"/></filter><filter id="l" color-interpolation-filters="sRGB" height="1.02351" width="1.003439" x="-.001719" y="-.011755"><feGaussianBlur stdDeviation=".18699651"/></filter><filter id="m" color-interpolation-filters="sRGB" height="1.094558" width="1.018455" x="-.009227" y="-.047279"><feGaussianBlur stdDeviation=".73542974"/></filter><filter id="n" color-interpolation-filters="sRGB" height="1.09798" width="1.013734" x="-.006867" y="-.04899"><feGaussianBlur stdDeviation=".74026537"/></filter><radialGradient id="o" cx="219.91321" cy="-77.60083" gradientTransform="matrix(-2.2101672 1.1396054 -2.0971468 -3.5379722 932.16839 -466.88401)" gradientUnits="userSpaceOnUse" r="54.40234" spreadMethod="reflect" xlink:href="#b"/><filter id="p" color-interpolation-filters="sRGB" height="1.049332" width="1.059644" x="-.029822" y="-.024666"><feGaussianBlur stdDeviation="2.3605401"/></filter><text fill="#c061cb" font-family="Myfontrunes" font-size="85.3334" stroke="#865e3c" stroke-width="32"><tspan x="-309.35938" y="33.990033">x</tspan></text><g transform="matrix(.99605539 .0887337 -.0887337 .99605539 2.854045 16.094583)"><path d="m57.304687-.05664062c-1.529483.00574849-3.086625.09338427-4.669921.27539062-17.828584 2.0494679-31.994917 12.624438-38.466797 28.460937-3.484364 8.526125-2.51962 17.315919-.496094 23.876954.994869 3.225742 2.208597 6.103727 3.458984 8.738281-1.769614 3.549106-3.63434 7.560536-5.226562 12.238281-2.8048806 8.240379-4.9047395 19.425807.525391 30.548827 8.717792 17.85745 26.525893 26.48063 45.427734 26.9375 7.305296.17657 16.242255.38798 25.921875-3.29297 6.980722-2.65461 13.691935-7.81312 19.027343-14.83008l182.60938-3.43164c8.5907 11.03682 17.29147 18.31603 27.33007 21.47461 12.13016 3.81668 22.34995 1.25691 30.8125-.12304 19.2341-3.13634 30.60599-17.65254 33.86719-33.593754 1.76717-8.63809-.657-16.700985-3.67383-22.541015-.70694-1.368521-1.5117-2.436579-2.27148-3.66211 1.16688-1.612582 2.33498-3.051374 3.45703-4.916015 3.99511-6.639135 8.37836-15.942486 5.375-27.402344-4.80544-18.335976-19.98655-27.899736-36.91797-30.4804689-20.7014-3.1554026-41.98553 1.7630838-63.52344 20.0058589-16.84017 4.711237-50.56537 7.04782-83.81836 5.59961-34.87719-1.518946-70.59525-7.010936-87.71679-13.355469l-.0195-.0078-.0215-.0078c-10.588242-3.890411-16.620824-8.182793-24.279315-12.6543218-6.701179-3.9125876-16.004553-7.89766128-26.710938-7.85742182z" fill="#b7af93"/><path d="m287.38656 42.757378c-40.51631 13.237412-143.35831 8.002314-184.60986-7.283795-24.780248-9.104901-30.659421-21.388508-48.315608-19.358857-11.118216 1.278084-21.814101 9.64115-25.482302 18.617129-3.477853 8.510193 1.395516 17.609102 6.110607 26.515291-4.902605 10.001416-13.770843 24.572295-8.282254 35.815063 4.828537 9.890731 18.799394 17.656651 31.436972 17.962111 13.829216.33425 27.209058-.35631 35.670209-17.9621l199.383386-3.749555c18.80962 27.799585 29.96347 24.601695 47.68655 21.711655 10.59197-1.72714 18.92477-12.01203 20.76534-21.009004 1.6839-8.231072-4.16857-15.905532-10.25616-23.50888 5.61501-6.488966 15.89735-17.999615 13.34225-27.749059-2.3482-8.95995-13.1809-17.093785-23.85143-18.720216-19.02106-2.899277-33.0114-.0064-53.5977 18.720217z" fill="url(#e)" stroke-width="32.0001"/><path d="m58.384766 43.890625c-.73266 9.133648-.165481 18.377095.386718 27.529297.664993 1.583405 1.313938 2.347354 1.916016 2.550781-.521147-8.678589-.996794-17.427635-.302734-26.080078 1.280648-.11483 2.227056.08935 2.958984.498047-.244209-2.839541-1.398118-4.817333-4.958984-4.498047zm258.822264.333984c-.91425-.04075-1.66196 1.032807-1.76172 3.929688 1.15957 7.092564-5.09227-3.115291-6.18164 3.460937 1.08022.663796 1.97852 1.386893 2.73633 2.154297 1.96952-2.178907 6.44206 4.481427 5.44531-1.615234.15199-4.413591 1.81019-4.574191 3.26367-3.029297-.57304-2.530134-2.20202-4.842452-3.50195-4.900391zm-240.576171 4.376953c-.26724-.0199-.573428.007-.923828.08789-3.899196 1.780565-1.904416 7.010489-2.765625 10.119141 1.220625 6.365936-3.886021 17.873951.998047 22.28125-.879355-5.41705 1.942115-13.378014 1.001953-18.28125.861209-3.108652-1.133571-8.338576 2.765625-10.119141.288906-.06672.530018-.07507.761719-.07227-.0093-1.776011-.08627-3.885188-1.837891-4.015626zm209.458981.154297c-2.68249 1.535803-.71087 5.422455-1.40234 7.759766 1.59176 8.345577-4.69963 20.15982.86523 26.525391-1.52376-6.587425 2.43409-15.713077 1.13477-22.525391.69147-2.337311-1.28015-6.223963 1.40234-7.759766 3.08046.871592 8.15478 4.392587 10.96485 7.97461-.49564-4.499584-8.70104-10.768197-12.96485-11.97461zm-154.45117.720703c-.19427-.01125-.37879.0015-.55078.03906-1.88913.405728-.84335 2.651748-1.25586 3.798828-1.02391 6.950492 1.14749 18.574317-1.82031 22.556641-3.62807-6.028959-14.37532-3.239892-6.2461 2.123047.01.01734.0233.03156.0332.04883-.0925-2.413056 5.59198-2.527184 8.21289 1.828125 2.9678-3.982324.7964-15.606149 1.82031-22.556641.41251-1.14708-.63327-3.3931 1.25586-3.798828 4.15793-.959404 12.28255 7.566431 11.03516 9.675781 2.65168.08017-7.85021-13.446385-12.48438-13.714844zm36.74024 1.316407c-3.41128 4.005334-14.28328 13.004799-10.94336 18.478515.0311.05091.0678.06221.0996.103516-2.29497-5.309449 9.53924-10.702062 12.84375-14.582031 6.09459 2.502912 12.4854 10.154824 14.84961 15.576172l-2-4c-1.64869-3.29738-8.75502-13.07326-14.84961-15.576172zm-82.345707.111328c-.817908-.142598-2.260211.359711-4.505859 1.896484-.563545.685308-.936475 1.04148-1.310547 1.400391.73962 2.79051-.976808 7.813316 3.310547 2.599609.667294-.456652 1.241201-.795908 1.771484-1.080078 1.587603-2.177426 2.220574-4.557295.734375-4.816406zm107.263677.414062c-1.71624 8.063867-.14963 16.592323-.23633 24.806641-.52036 3.025685 1.65778 7.969226 2.9707 7.847656-.83392-.411228-1.35756-1.598237-.9707-3.847656.0867-8.214318-1.47991-16.742774.23633-24.806641 8.77571-.444239 16.31142 8.794222 23.92773 12.81836-.0582-1.188113-1.49778-3.240048-2-4-7.61631-4.024138-15.15202-13.262599-23.92773-12.81836zm25.92773 16.81836c-.38786 1.457325-.16129 3.792005.0977 6.265625.0594-2.332269-.016-4.597398-.0977-6.265625zm50.34375-16.339844c-1.80315-.03717-4.06881.753474-5.53125 2.828125-4.5548 3.070441-9.10605 6.14416-13.72266 9.142578-2.43757 2.486054-1.62482 4.751026.55469 6.894531.0556-.934867.46538-1.895108 1.44531-2.894531 2.23081-1.448874 4.42261-2.942692 6.63086-4.417969 1.50317-1.150507 3.29126-2.2942 5.16211-3.439453.64051-.431643 1.28926-.853438 1.92969-1.285156 1.17865-1.672067 2.87624-2.499452 4.43555-2.742188 3.37525-2.183013 1.7493-4.03123-.9043-4.085937zm52.91016 5.498047c-.0814 1.202202 1.17055 2.899958 2.39453 4.544922.3739-.926675-1.05314-2.725717-2.39453-4.544922zm-7.47071 1.628906c1.33941 4.410136.66728 9.519639 1.01563 14.457031.75069.826508 1.37988 1.313015 1.91211 1.535157-.1015-5.743176.4886-11.526898-2.92774-15.992188zm-227.47656.458984c-1.040398 1.540985-2.546836 3.044651-4.269531 3.685547-2.877971 1.793018-3.932278 4.755813-2.775391 4.810547.952786-1.08783 2.171023-2.060801 3.703125-2.898437 1.131483-1.342077 2.254954-2.007102 3.21875-2.177735 1.032076-1.282161.914928-2.645376.123047-3.419922zm203.90039 4.990235c.0406.541389.0444.972307.15039 1.708984.86949 1.484581 3.86146 4.353594 5.92578 6.904297.49025-1.804337-3.49882-5.749117-6.07617-8.613281zm-115.04297.710937c-.95748 3.88753-7.87163 7.720974-10.86133 3.992188-.77807-.223954-1.38036-.518884-1.89843-.84375-.19947 2.037157.79646 3.950909 3.89843 4.84375 4.11376 5.13073 15.63157-4.048764 8.86133-7.992188zm35.37695 3.28125c1.26793 3.975425 1.13846 8.599599 1.19336 13.070313.69854.113573 1.44244 4.07248 2 4-.0747-6.081231.19557-12.447741-3.19336-17.070313zm46.18165 2.417969c-.59172 1.867639.66263 3.804326 5.37304 5.882813 2.20052.458928 4.91106 2.829608 6.74024 5.154296.15-2.278137-5.06373-8.387543-8.74024-9.154296-1.45256-.640947-2.52484-1.266425-3.37304-1.882813zm-94.11524 4.410156c.42313 3.283235-3.35331 6.550173-7.86133 8.685547-2.86868 1.97445-2.54448 3.322277-1.04882 3.847656-.11069-.688064.47082-1.631582 2.1582-2.792968 5.28886-2.505246 9.23659-6.117373 6.75195-9.740235zm10.80469 3.669922c-.60182 1.297318-.087 2.729386 2.53711 4.439453 2.2399 1.091307 3.87518 3.833975 4.04883 5.669922 1.16554-1.281144-3.07359-8.220347-6.04883-9.669922-.22575-.147113-.35954-.292999-.53711-.439453z" fill="#b7af93" filter="url(#g)"/><path d="m65.34375 52.388672c.383622 4.460555-1.516228 11.082394-.146484 14.533203 1.638752 2.871048-.01825 11.890651-2.509766 11.048828.02898.482659.05489.967037.08398 1.449219 3.416867 8.13586 6.46054-4.933209 4.425782-8.498047-1.92811-4.857506 2.646638-16.020371-1.853516-18.533203zm257.36523.736328c.31362 1.384708.31553 2.833662-.23437 4.015625-.18342 1.07447.86829 2.614169 2.00391 4.154297.003-.04943-.012-.106731-.004-.154297 1.18478-2.546381-.16622-6.315725-1.76554-8.015625zm-242.078121 3.476562c-.0469-.0035-.112791.01622-.162109.01563.0098 1.879386.02924 3.233127 1.748047 1.583984-.226434-.854313-.646356-1.529642-1.585938-1.59961zm233.369141 1.167969c-.32173.35593-.58336.922302-.73633 1.845703 1.60701.987505 2.81996 2.100648 3.74414 3.308594-.56651-1.86532-1.48169-3.608846-3.00781-5.154297zm-223.966797 1.134766c-.574867-.100225-1.480093.144258-2.734375.816406-1.03354 1.417519-2.441153 2.753911-4.037109 3.347656-4.333956 2.700118-4.564549 8.094446.728515 2.132813 2.241329-2.821447 4.4799-2.856246 5.541016-1.81836 1.40402-2.079562 1.911318-4.2328.501953-4.478515zm183.535157.892578c-.3499-.0072-.72027.02749-1.0957.08594-.44729.289291-.95656.583151-1.58985.88086-1.38207 1.063532-3.07654 2.106526-4.77539 3.146484-1.71364 1.154848-3.44298 2.290946-5.16211 3.439453-3.10574 2.377102-4.6195 4.801901-.99804 7.433594 1.08926-3.438049 8.53873-6.636098 12.93554-10.019531 5.41216-2.544247 3.6908-4.904841.68555-4.966797zm-102.57031 1.328125c-4.55411-.306982-10.59532 7.802229-5.36719 11.101562.47038-4.74802 7.53378-10.177252 10.33203-5.019531l1.11133 1.248047c.52891.119401.96694.272917 1.33203.453125.34057-1.708227-.47508-3.40544-3.33203-4.453125l-1.11133-1.248047c-.75003-1.382454-1.80829-2.00407-2.96484-2.082031zm120.89453.349609c-.59366.171564-.76641 1.439789-.31055 4.607422.33653.574592 1.04619 1.398188 1.84961 2.291016-.51862-6.907933 4.00425 1.059825 8.28516 3.378906 2.29721-1.674694 1.42248-4.364243-.66211-7.021484.12808 1.162738-.23027 2.214016-1.33789 3.021484-3.17379-1.719322-6.51818-6.654783-7.82422-6.277344zm-91.55469.103516c-3.14228.786113.70724 12.969626-.70703 16.884766 1.68014 3.812446-2.24625 6.792812-3.95117 5.246093-.00009.0085.00009.01691 0 .02539-1.23794 7.198141 8.23513 3.911101 5.95117-1.271484 1.74064-4.818634-4.4918-22.163636 4.15039-15.367188 7.35156 2.263764 8.76179 6.913464 9.05273 12.28125-.32052-6.986019-1.91746-13.468232-11.05273-16.28125-1.62041-1.274334-2.71822-1.698989-3.44336-1.517577zm-62.54297.625c-3.47999.627791-.20823 14.027971-1.75195 17.994141 2.27061 9.628135-7.27948 8.254272-11.0918 1.517578-1.87149-1.234648-2.77403-2.307161-3.05859-3.169922.34935 1.391442 1.80497 3.690054 5.05859 7.169922 3.81232 6.736694 13.36241 8.110557 11.0918-1.517578 1.76426-4.532766-2.76193-21.386712 3.68945-17.416016 5.47823 2.155436 4.95814-.707021 2.47852-3.824219-.2223.879763-1.50407 1.062045-4.47852-.175781-.80642-.496337-1.44036-.667809-1.9375-.578125zm22.41602.740234c-1.21253.933238-2.13331 2.029617-2.59961 3.298829.50835-1.114502 1.44102-2.219911 2.59961-3.298829zm166.66211 2.896485c-.25478.631435-1.32839.874433-3.88282.439453-.44868 2.917277.60872 14.165747-3.05468 12.636719.0146.823212.0302 1.647443.0879 2.464843 5.91778 6.515472 4.45292-7.760455 4.96679-11.101562 5.9192 1.007948 4.00293-1.590121 1.88282-4.439453zm-111.21875.06445c1.19065.826094 2.38078 1.603926 3.57031 2.232422-1.19206-.744747-2.3813-1.488772-3.57031-2.232422zm3.57031 2.232422c-1.26439 4.750749 3.9716 18.638079-4.26563 17.298828-.008-.685138-.038-1.370863-.043-2.060547.003.693678.0168 1.361876.0293 2.0625.0239 1.336551 1.99737 2.668244 2.01367 3.998047 8.23723 1.339251 3.00124-12.548079 4.26563-17.298828-.60232-.318241-1.39803-3.623914-2-4zm-129.160157-1.384763c-.207292-.01-.42903.01055-.65625.05078-.478026.593859-1.179267 1.169811-2.205078 1.652344-.359805.166047-.685235.345826-1.013672.525391-.06666.07907-.132543.136769-.199219.220703-1.778196 2.002801-2.918629 2.705425-3.503906 2.677734-3.46619 3.957475-3.662888 9.331634-4.68164 14.378906-.758412-.291972-1.349614-.702681-1.865235-1.167968.382853 2.358468 1.456195 4.240538 3.865235 5.167968 1.358818-6.732081 1.254165-14.044214 9.398437-17.802734 4.268236-2.007741 3.36573-5.58285.861328-5.703124zm67.240237 2.046875c.26895 2.102179 1.69919 4.553887 4.86328 7.386719 1.08063.590349 1.85925 1.162662 2.40234 1.720703.23392-1.881412-.96216-3.841328-4.40234-5.720703-1.71928-1.117375-2.586-2.251435-2.86328-3.386719zm27.92383 1.570313c-2.51848 4.528873-15.96487 7.157585-8.60157 12.523437 1.35225-3.004048 8.79438-5.273651 10.60157-8.523437-.52525-1.204454-1.12459-2.656314-2-4zm106.57617 3.960937c-2.07648.519.0654 11.00387-3.9961 13.033203-.0979-.101578-.16444-.2177-.25586-.322265.37363 1.61521 1.06286 3.084593 2.25586 4.322265 5.41531-2.705778-.19779-20.442572 7.86524-9.548828 5.39453.737061 4.26678-1.82214 1.83398-4.828125-.2171.799041-1.31709 1.17201-3.83398.828125-2.01576-2.723436-3.17698-3.657375-3.86914-3.484375zm-38.93555.332031c-.32624 5.481631 13.12969 9.964642 16.32617 14.685547 6.29794 3.277221 5.58555-.07011 2.86524-3.527344-.0733 1.113248-1.40778 1.32648-4.86524-.472656-2.38558-3.523284-10.49191-6.91464-14.32617-10.685547zm-130.86914 2.576172c-.0509.06196-.0703.151785-.10352.230469.0331-.07768.0556-.160496.10352-.230469zm-.20508.578125c-.004.06006.001.127177.004.19336-.001-.06462-.0111-.132171-.004-.19336zm46.21875 4.910156c-1.38188.08624-2.85504.994091-4.48633 3.181641-1.77436 3.792285-8.80637 3.886129-8.57812 1.53125-.0116.0055-.0235.01207-.0352.01758-6.74952 4.645545 8.34401 7.301228 10.61328 2.451172 5.22011-7.000161 8.8245-.894737 12.97852 3.291016 5.94556 4.187934 5.54247-1.033601 2.7168-4.22461.17247 1.834557-1.11583 2.761065-4.7168.22461-2.85589-2.877705-5.45206-6.662385-8.49219-6.472657z" fill="#edebde" filter="url(#f)" stroke-width="32"/><path d="m317.44448 52.154765c.31922-9.270027 7.29073.125798 5.02938 4.986372-.5477 3.208452 9.99423 10.752273.51729 9.138494-.51387 3.34111.94997 17.616704-4.96782 11.101226-.56884-8.062703 1.63841-16.603737-6.76056-21.764896 1.08937-6.576235 7.34128 3.631375 6.18171-3.461196zm-29.35459.600781c5.36562 1.518164 17.02022 11.063531 11.62631 14.995755-4.61642-2.500835-9.59301-11.804863-8.13424-1.668428 1.89418 3.234151 14.06392 13.095 4.09189 11.732512-8.06304-10.893755-2.44898 6.841247-7.86429 9.547028-6.05851-6.285362.49514-18.363365-1.12277-26.84604.69147-2.337313-1.2794-6.225023 1.4031-7.760827zm-22.05263 5.869126c3.89984-5.532407 13.50574-1.93183 4.84628 2.138969-6.78529 5.221408-20.94389 9.99867-7.56228 15.90335 5.47309 1.14144 14.40657 14.160615 3.8738 8.679743-3.74163-5.526039-21.60708-10.71946-14.88127-17.579046 4.61661-2.998421 9.16867-6.072572 13.72347-9.143016zm-70.74131-3.30582c8.77572-.44424 16.31203 8.79349 23.92835 12.817632-1.26439 4.750754 3.97153 18.638508-4.2657 17.299256-.11096-9.034709.57875-18.719292-11.17795-22.339526-8.6422-6.796455-2.4097 10.548665-4.15034 15.367303 2.28396 5.182591-5.80731 8.860157-4.56937 1.662009.0867-8.214326-1.48123-16.742799.23501-24.806674zm-21.33331 7.888889c-4.00017-7.373097-16.77017 6.894097-6.43623 9.868514 4.34865 5.423695 17.00404-5.153986 7.5472-8.621948zm-3.584-8.414815c6.0946 2.502915 12.48637 10.154319 14.85058 15.575672-2.58305 4.645003-16.72608 7.282742-8.05473 12.933709 4.4798 2.182615 6.53685 10.97253-.66785 5.89768-4.15402-4.185757-7.75903-10.292377-12.97914-3.292209-2.26928 4.850061-13.196 3.670682-6.44647-.974867 6.76292-3.203485 11.38278-8.216016 3.08731-12.747836-9.47459-6.157632 6.31937-12.82363 10.2103-17.392149zm-37.29064-1.277249c5.47117-1.262422 17.85603 13.930609 6.6451 9.265153-6.45139-3.9707-1.9267 12.882873-3.69096 17.415643 2.27061 9.628145-7.27776 8.2551-11.09008 1.518399-8.12923-5.362944 1.43169-7.871811 5.05976-1.842846 2.9678-3.982328.79711-15.606251 1.82102-22.55675.41251-1.147081-.63397-3.393871 1.25516-3.799599zm-55.38145-.826455c5.6064-1.294806-.15342 11.375452 5.81984 4.111573 8.9826-6.1471 5.1325 4.259978-.26414 6.267696-4.33396 2.70012-4.56426 8.093882.72881 2.132243 4.68869-5.902253 9.41984.333656 3.21149 3.254009-8.14428 3.758524-8.03825 11.071175-9.39707 17.803263-7.94225-3.057603-1.51393-16.411862-2.86342-23.44987.86121-3.108655-1.13471-8.338347 2.76449-10.118914zm-17.32271-4.797967c9.15454-.820845 2.5715 13.383739 4.81321 19.031301 2.03476 3.564842-1.0096 16.633789-4.42647 8.497921-.5522-9.152211-1.1194-18.395565-.38674-27.529222z" fill="#b7af93" filter="url(#h)" opacity=".5"/></g><g transform="matrix(.99717279 -.07514271 .07514271 .99717279 96.231952 11.895381)"><path d="m71.720703 131.34375c-2.658744-.25369-5.429639-.26785-8.279297.041-16.128626 1.74809-29.088235 10.46207-35.388672 24.99804-3.442809 7.94303-2.46976 16.32045-.541015 22.2168.745375 2.27868 1.642296 4.17138 2.529297 6.05078-1.367042 2.67271-2.811922 5.706-4.054688 9.14844-2.616703 7.24823-4.704521 17.74221.626953 28.03906 8.472667 16.36357 24.487147 23.16068 41.519531 23.54883 6.455665.14711 14.423386.35587 23.238282-2.80469 6.076389-2.17867 12.034166-6.48791 16.914066-12.24805l159.54882-2.82812c7.60957 9.03036 15.46718 15.11836 24.39063 17.76562 11.04565 3.27685 20.18985 1.07493 27.61328-.0664 17.50822-2.69177 28.27989-15.08143 31.48633-29.85938 1.7742-8.17686-.69465-15.81664-3.55274-21.0332-.277-.50559-.58673-.84901-.87109-1.32813.61324-.8583 1.21795-1.50176 1.81641-2.43945 3.71586-5.82221 8.14641-14.47658 5.10351-25.42383-4.79843-17.26293-18.81743-24.88826-34.13672-27.08984-18.29006-2.62854-37.48323 1.55074-56.63476 16.70117-14.62403 3.77968-44.1467 5.73546-73.1875 4.54297-30.6379-1.25807-62.09647-5.85344-76.88281-11.01953l-.0195-.008-.0215-.006c-9.17448-3.17831-14.304674-6.63632-21.138672-10.39844-5.125498-2.82159-12.101893-5.73892-20.078125-6.5z" fill="#b7af93"/><path d="m270.22207 169.40645c-35.6685 10.9876-126.20537 6.64225-162.52115-6.04585-21.815273-7.55745-26.990999-17.75336-42.534611-16.06866-9.787915 1.06086-19.20403 8.00257-22.433327 15.453-3.061725 7.06381 1.228541 14.61628 5.379469 22.0088-4.316004 8.30158-12.123152 20.39601-7.291276 29.72797 4.250798 8.20972 16.550032 14.65577 27.675515 14.90931 12.174543.27743 23.953477-.29576 31.402245-14.9093l175.527025-3.11228c16.55903 23.0748 26.37831 20.42042 41.98082 18.02158 9.32463-1.4336 16.66041-9.9705 18.28075-17.43837 1.48242-6.83211-3.66979-13.20222-9.02899-19.51333 4.94315-5.38611 13.9952-14.94044 11.74583-23.03287-2.06724-7.43714-11.60381-14.18855-20.99759-15.53856-16.74518-2.40652-29.06155-.005-47.18471 15.53856z" fill="url(#a)" stroke-width="32.0002"/><path d="m230.76172 174.66797c-3.72214 2.1687-1.66144 6.26441-2.19922 9.38086v19.29492c.65539 1.44731 1.3747 2.05834 2.06641 2.12109-.0215-.0454-.0451-.0739-.0664-.12109v-19.29492c.53778-3.11645-1.52292-7.21216 2.19922-9.38086.0737.01.12423.0454.19336.0606.0151-.0625.0184-.12037.0351-.1836-.41847-.77122-.99529-1.71258-2.22851-1.87695zm-144.701173 2.26758c-1.802128 7.36317-.955612 15.15093-1.013672 22.66406-.658954 2.45836.490502 3.32892 1.828125 3.19922.0071-.35337.04839-.73852.171875-1.19922.05806-7.51313-.788456-15.30089 1.013672-22.66406 2.638971.47963 7.563746 2.28465 10.587891 4.54101-2.054069-3.13559-9.203249-5.92585-12.587891-6.54101zm60.421873.0605c-.80051 8.60097-1.31399 16.71444-2.13476 24.8086.50668 2.09865 1.33193 2.76226 2.1875 2.59961-.0631-.19746-.1317-.36849-.1875-.59961.82077-8.09416 1.33425-16.20763 2.13476-24.8086 2.91548.51169 6.67151 2.3528 9.37696 4.59961-2.50993-3.08748-7.63029-5.94204-11.37696-6.59961zm48.85156.17774c-5.28837.32167-7.55699 8.33313-12.20312 10.73437-.22152-.10226-.43992-.23989-.65625-.39062.86904 1.07039 1.73681 1.96618 2.65625 2.39062 4.80246-2.48203 7.07709-10.92689 12.75976-10.70898-.028-.55104-.0393-1.10101-.0898-1.65234-.89447-.30666-1.71131-.419-2.4668-.37305zm-24.20898.10941c-.36113.005-.73447.0501-1.11914.14063l-.28711.53515c-.74552 7.53568-1.30773 15.12691-1.09375 22.69727.11093 2.35482.96857 3.25349 2.16602 3.30859-.086-.37573-.14252-.80976-.16602-1.30859-.21398-7.57036.34823-15.16159 1.09375-22.69727l.28711-.53515c1.80082-.42363 3.32804.15698 4.69336 1.21484-1.5938-1.87635-3.36478-3.38645-5.57422-3.35547zm-57.16406.0508c-1.03859-.0828-1.94668.39216-2.60352 1.74024.37393 6.10104.47083 12.21088.8457 18.3125-.97848 2.26307.22589 3.3795 1.65626 3.48437.001-.42718.0979-.91577.34374-1.48437-.37487-6.10162-.47177-12.21146-.8457-18.3125 2.62735-5.39234 9.26917 3.19401 12.2461 5.49805 1.82826-2.48169 7.0139-6.90345 10.00781-6.60743-1.3359-5.30922-9.59274 1.3292-12.00781 4.60743-2.2327-1.72803-6.52682-6.98991-9.64258-7.23829zm171.48047.83204c-.74463-.0179-1.87744.25236-3.48829.93164-2.4418 3.59066-16.13056 6.88666-9.07617 10.86523-.70235-3.1229 9.05459-5.89249 11.07617-8.86523.9089-.38328 1.63546-.61124 2.25586-.75586.61531-1.18405.56038-2.14387-.76757-2.17578zm-27.67579.31836c-.42384-.004-.89776.0355-1.42968.125-.69668 7.80558-.18915 15.73122.52734 23.54101.75086.41895 1.37096.62663 1.89258.68359-.65147-7.38392-1.07759-14.85611-.41992-22.2246 1.02502-.17242 1.82806-.15252 2.4707.006-.36558-1.26591-1.22311-2.11319-3.04102-2.13085zm-21.90234 5.36132c1.8168 2.56881 5.57604 4.33016 9.4082 6.15039.45201.18092.79264.36003 1.14063.53907-.0929-.82601-.97235-1.67118-3.14063-2.53907-2.74506-1.30387-5.42232-2.58946-7.4082-4.15039zm-141.949218 1.62891c-.258507.37448-.783948.79229-1.599609 1.31055-.299691.42421-.565825.70457-.816406.92773-.0177 1.9875.86158 3.83933 2.816406 1.07227 2.388596-1.51767 2.472328-2.21216-.400391-3.31055zm38.294918.44922c-.37868.53767-.86424 1.0942-1.39062 1.64258-.01 3.09444-.76904 6.88471-.54492 9.80468.0982 1.93941-1.28836 5.23594 1.77539 4.86719.0346-.94079.26701-2.02965.22461-2.86719-.32589-4.24589 1.46569-10.36883-.0645-13.44726zm62.21485.32812c-.20058.60219-.76167 1.21059-1.43164 1.82227-.18163 2.70509-.81893 6.12398-.75 8.23047-.0743.56751-.27373.74589-.54492.68945 1.1818 1.5272 2.33548 2.90944 2.54492 1.31055-.1142-3.49001 1.73494-10.61461.18164-12.05274zm-75.01367.60352c.53952.90971 1.18527 1.47773 1.89257 1.78711-.12834-.23432-.25841-.46398-.37304-.74024-.62889-.58134-1.11699-.89626-1.51953-1.04687zm57.30664.28515c.28261.26032.56614.5212.85742.78126-.16461-.22319-.31644-.44657-.41211-.67579-.16562-.0674-.30875-.0935-.44531-.10547zm102.82617 1.67579c-.6157 1.28481 2.52397 2.11963 4.74805 3.26757-.14229-1.45544-2.77194-2.37023-4.74805-3.26757zm-100.52344.59961c.53397.69164.8341 1.4067.5332 2.17968-.87432.82767-2.61594 2.8912-4.10937 4.35938-.0521.52627-.13879.98735-.29492 1.31054-1.64658 6.10761 4.49216-1.85982 6.40429-3.66992.59745-1.53479-1.05273-2.85261-2.5332-4.17968zm-25.41601 1.37304c1.10168 1.31275 2.5568 2.52738 3.93554 3.77344-1.10731-1.32993-2.5656-2.54098-3.93554-3.77344zm86.44336.0293c.20076.91737-.77869 1.82759-3.85547 2.67187-.27231.23775-.50206.41285-.72657.57813-.23171 2.29783-.0794 3.87172 2.72657 1.42187 5.32705-1.46176 4.35443-3.12003 1.85547-4.67187zm36.05273 1.62109c-1.24385.74907-4.24133 1.47409-5.82813 2.60743-.20488 1.89104.92695 3.40964 2.7129 4.71679-.53836-.81937-.82162-1.71325-.7129-2.71679 2.81376-2.00968 10.10085-2.74226 3.82813-4.60743zm-87.25391 1.4668c.0464.0632.0913.12637.14844.18945-.049-.0623-.10008-.12883-.14844-.18945zm-92.726559 1.4043c1.117152 1.38048 3.076775 2.79099 4.589839 4.27734.19036.0781.37027.17969.54883.2832-.60701-.95918-1.474198-1.8423-2.548826-2.2832-.792952-.77895-1.723401-1.53284-2.589843-2.27734zm90.117189 1.97461c.28944.35145.58978.68454.86523 1.03906.62977 1.19849 2.02978 2.90376 3.58008 4.19726-.6689-.7837-1.24792-1.56515-1.58008-2.19726-.89243-1.1486-1.86863-2.34216-2.86523-3.03906zm92.625 1.30859c-.54576.61087-.0311 1.31135 2.65625 2.25586 1.40289.76147 5.06683 2.34179 7.39648 3.89648-.5395-1.97184-7.36417-4.79337-9.39648-5.89648-.25267-.0888-.44083-.17122-.65625-.25586zm-184.615236.45117c1.004257 1.07106 1.993851 2.11748 2.851562 2.88867-.97225-1.0425-1.959334-2.10115-2.851562-2.88867z" fill="#b7af93" filter="url(#j)"/><path d="m234.76172 180.66797c-.007.004-.0123.009-.0195.0137.0738 1.64352.85458 2.98458 2.01953 4.16992-.053-.7134.008-1.47558.22851-2.30664-.41847-.77122-.99529-1.71258-2.22851-1.87695zm-34.80078 2.53515c.0549 6.8696-1.25653 13.72383-1.23047 20.61524-1.35535 6.09377-8.01411-.42108-9.62891-3.49414-1.65819-2.13416-3.60268-4.51981-5.4375-3.29688-.008.1867-.0361.37523-.11133.56836-.41764.39536-1.08546 1.14788-1.78125 1.91992-1.7862 2.27837-6.43669 6.75902-9.15039 6.42969.005.23694-.003.47404.004.71094.37763 8.01647 9.29971-.55325 11.45117-3.51172 2.2481-4.79998 4.87721-1.58511 7.02539 1.17969 1.6148 3.07306 8.27356 9.58791 9.62891 3.49414-.0307-8.114 1.8128-16.17458 1.07031-24.27148-.65717-.22531-1.25995-.31434-1.83984-.34376zm-62.15625.79688c-.001.0419.006.0707.004.11328-.97492 6.54237.30013 13.4719-2.21679 19.75195-.54865.18459-.98389.27473-1.38086.33399-.18542 2.23154-1.09148 5.17065 3.38086 3.66601 2.51692-6.28005 1.24187-13.20958 2.21679-19.75195.11263-2.72126-.72249-3.88685-2.0039-4.11328zm151.63672.16602c-.74463-.0179-1.87744.25236-3.48829.93164-.99527 1.46354-3.84617 2.87911-6.42187 4.31054.33175.78076 2.00419 1.42237 3.63086 2.14063.43751-.21776.96722-.44891 1.60351-.69336 3.85623-1.11839 7.90251-6.6119 4.67579-6.68945zm-26.4043.52539c-.0464 3.21184-1.30456 7.42287-.22656 9.5-.0532 2.75661 1.81255 11.27-2.22266 10.60547.0909 1.1181.17318 2.2394.27539 3.35351 6.26233 3.49412 3.88767-6.86824 3.94727-9.95898-1.72285-3.31965 2.52519-12.09473-1.77344-13.5zm-170.271485.1875c-2.041793.0997-1.746972 8.57146 1.548828 3.90625 2.435994-1.54778 2.518144-2.23585-.533203-3.37305-.385173-.3901-.72394-.54745-1.015625-.5332zm60.107425.71289c-.64509-.0753-.88507.74997-.52344 3.27148.39316.92621 1.07229 1.7701 1.85156 2.58594-.31529-5.39637 4.31867 2.69798 8.72852 3.1875 1.02515-1.68814.1665-3.69727-1.56446-5.58008-.003.54715-.13105 1.07866-.43554 1.58008-3.25627-.36147-6.63745-4.87926-8.05664-5.04492zm-20.58399.57422c-.24747.17768-.48314.36855-.72461.55664-.83807 1.01574-1.89775 2.03008-3.07422 2.82226-.31966.35514-.65992.71949-.88671 1.02735-.10845-.0839-.2533-.22655-.3711-.32618-2.38594 1.15389-4.88819 1.06527-6.30273-2.34375-5.60811-5.18421-1.37877 8.41247-2.25586 11.28907.80193 2.36536-.89534 3.6414-2.49414 3.69336.01.16726.0132.3347.0234.50195-2.12773 4.92112 6.05602 4.4807 4.47071-.19531.87709-2.8766-3.35225-16.47328 2.25586-11.28907 2.16593 5.21987 6.87211 2.75544 9.80273-.25195.16488-2.11781.15925-4.07573-.44336-5.48437zm62.13477.0859c-.26998.81055-1.15759 1.63285-2.1543 2.45899-1.18655 1.57106-2.37959 3.1369-3.76758 4.26562.0006.52461.2827 1.04641.97852 1.56446.35543.15473.84393.71164 1.37109 1.37304.7506-1.20885 2.55437-2.42501 3.92774-3.6289.31473-2.69808.50384-5.23761-.35547-6.03321zm-17.78321.8711c-2.31576-.0519-.42312 7.92954-1.49218 10.14257-.90187 3.34529.54808 2.41199 2.34375.63672-.0616-3.37129-.52351-7.54935 1.66992-6.65625.36372.87143 1.30826 1.69121 2.23633 2.51563.0391-.0385.11815-.1318.15429-.16602.91688-2.35538-3.4921-4.1969-4.39062-6.34961-.19391-.079-.3671-.11958-.52149-.12304zm-75.55078.69336c-.25008.80299-.92011 1.59997-2.234371 2.36132-.340876.13959-.623214.27874-.910157.41797.470264.60711-.129094 1.23527-1.630859 2.18946-.380527.53863-.710151.86245-1.011719 1.08398.2159.92008 1.067633 1.85165 2.115235 2.80078.375733-.82986 1.398783-1.65733 3.437501-2.49219 3.5461-2.05427 2.68771-4.36188.23437-6.36132zm134.25586.59765c1.74686 1.70593-2.21018 11.04855 2.35157 7.46875.15965-1.498.22647-2.90426-.35157-3.46875 1.20763.58437 2.58924 1.2233 3.80274 1.88672 3.02385-1.9849-2.23845-4.16196-5.80274-5.88672zm40.13672 3.83399c-.86179 1.00894-.95246 2.04685.45899 3.13281 2.70818-.99436 4.62365-1.76743-.45899-3.13281zm-27.85547 1.91601c-.82278.77903-2.20683 1.53754-3.73633 2.28321.57124 1.04209-.20735 2.08478-3.69921 3.04296-2.11437 1.846-2.70751 1.38839-2.78125.082-.7144.40329-1.31483.80219-1.72071 1.19726.88144 2.07855-1.01184 6.97602-3.12695 6.67774v1.89648c2.63417 5.81708 6.2882-1.83583 5.12695-4.57422 3.29969-3.21183 19.04175-6.68541 9.9375-10.60547zm37.75 1.47852c-1.26525.7832-3.21218 1.39014-4.73828 1.99609.25461.52196-.6664.97372-1.95703 1.46485.0749.49197.8625 1.0525 2.83594 1.74609.29267.15886.93576.46305 1.39453.68555 1.66674-.63658 3.76856-1.2709 4.89453-2.13868 1.44984-1.74577-.36985-2.82793-2.42969-3.7539zm-133.4414.18164c-.5754.0511-.8077.87214-.47266 3.15234 1.1876 2.26432-1.00634 7.15124-2.99219 7.42969-.0451.46355-.0761.9351-.12304 1.39844 1.67236 6.92687 6.80051-1.61492 5.11523-4.82813-1.34016-9.12082 6.39635 5.08797 8.86133-1.34375-.65-1.05045-1.61155-1.9989-2.62891-2.92773-2.13935 2.45958-6.20271-3.0191-7.75976-2.88086zm-59.660159 2.07422c-.585303.0385-.915237.73591-.830079 2.48437 1.235661 2.26888-.68657 4.12515-2.408203 4.39258.000105.27345.01187.55146.0098.82422-1.52572 5.69201 6.642141 2.90301 4.398437-1.2168-.340633-6.99384 5.956996 2.83248 8.689454 4.35742 5.20468 3.22564 4.7271-1.79041 1.99023-4.23242-.072 1.32128-1.22314 1.94735-3.99023.23242-2.04934-1.14371-6.103468-6.95719-7.859375-6.84179zm181.999999 3.29492c-.4076 5.67146 11.15061 8.01703 16.51172 11.18359 3.85279-.81431 1.928-2.60924-.95899-4.29492-.28707.10872-.62754.20753-1.04101.29492-3.8899-2.29758-11.02985-4.16753-14.51172-7.18359z" fill="#edebde" filter="url(#f)" stroke-width="32"/><path d="m283.95373 181.09836c8.59119-3.62282 3.55879 4.38107-1.18734 5.75755-10.21657 3.92506 6.67345 4.16586 3.04026 8.54063-2.71117 2.08948-11.69693 2.85017-4.28991 5.45347 2.73231 1.48306 14.1471 6.0738 7.27069 7.52717-5.40851-3.19456-17.14152-5.54953-16.51515-11.33085 2.95779-2.11255 11.04181-2.79741 2.92036-4.88826-7.87236-4.06695 6.27919-7.41013 8.76106-11.05971zm-25.61866-.48883c8.51075-1.43155 2.48231 9.73928 4.4762 13.58117-.0596 3.09075 2.31483 13.45301-3.94751 9.95889-.71649-7.8098-1.22537-15.73447-.52869-23.54006zm-25.57425-3.94133c-3.72214 2.1687-1.66021 6.26432-2.19799 9.38077v19.29494c2.63417 5.81709 6.28735-1.83618 5.1261-4.57457 3.34699-3.25788 19.55014-6.78341 9.58345-10.77274-6.00296-2.85134-11.85064-5.55018-10.28282-11.45167-.41847-.77122-.99552-1.71236-2.22874-1.87673zm2.58516 11.74497c4.29335 2.07755 11.09197 4.81399 2.84626 7.07665-5.37456 4.69238-1.0371-5.30988-2.84626-7.07665zm-58.18351-1.16798c-3.1026-1.2633-.8737 7.66038-2.01403 10.02095-1.64658 6.10761 4.49251-1.85992 6.40465-3.67002.91688-2.35539-3.4921-4.19822-4.39062-6.35093zm17.07909 11.05971c-.1142-3.49001 1.73461-10.61451.18131-12.05264-.90561 2.71895-8.60709 5.5608-4.94245 8.28916 1.31158.57099 4.4045 6.48615 4.76114 3.76348zm-22.23504-18.88094c6.15468-1.44782 9.1688 8.65856 13.12345 10.48416 5.30987-2.74428 7.51461-12.8152 14.67035-10.36195.74249 8.09691-1.10036 16.15872-1.06968 24.27273-1.35535 6.09378-8.01386-.42167-9.62866-3.49473-2.14818-2.7648-4.77711-5.97907-7.02521-1.17908-2.15146 2.95847-11.07473 11.52799-11.45236 3.51151-.21398-7.57037.34961-15.16231 1.09513-22.69799l.28701-.53465zm-11.0773 11.21249c-4.7364-.52577-9.73702-9.84279-8.57982-1.77395 1.38638 3.26606 6.00867 5.59157 7.9756 8.77029-2.46498 6.43172-10.20194-7.77656-8.86178 1.34427 1.68528 3.21321-3.4433 11.75405-5.11567 4.82717.82077-8.09417 1.33437-16.20701 2.13488-24.80798 5.83536 1.02414 15.03575 7.3769 12.44679 11.6402zm-47.57179-9.5627c2.62735-5.39234 9.26846 3.19526 12.24539 5.4993 2.67909-3.6366 12.57768-11.46141 12.2051-2.45942-.97492 6.54238.30149 13.47159-2.21544 19.75165-5.02877 1.69184-3.20723-2.28644-3.31906-4.4951-.32589-4.2459 1.46565-10.36794-.0645-13.44637-2.48196 3.52399-8.69855 8.19622-11.27864 1.97825-5.60811-5.18422-1.3786 8.41224-2.25569 11.28884 1.58531 4.67602-6.60018 5.11638-4.47244.19525-.37488-6.10162-.47077-12.21135-.8447-18.3124zm-19.576515 4.33834c-3.08139-3.12078-3.232905 8.70382.533728 3.37214 2.435996-1.54778 2.517622-2.23494-.533728-3.37214zm-5.719882-6.47696c5.065171.9206 18.623747 6.70794 10.795268 11.24302-7.514686 3.07726-1.560709 6.05658 1.852919 9.40992 3.88147 1.5925 5.43895 8.87833-.574 5.15177-2.732456-1.52495-9.031231-11.35128-8.690597-4.35743 2.243706 4.11981-5.923889 6.90929-4.398167 1.21727.05806-7.51314-.787553-15.30137 1.014577-22.66455z" fill="#b7af93" filter="url(#i)" opacity=".5"/></g><g transform="matrix(.94315216 .33236124 -.33236124 .94315216 140.42339 -103.071889)"><path d="m321.5918 255.41602c-10.32063-.0308-19.37568 4.06569-25.60352 7.92382-7.11752 4.4093-12.51986 8.48925-22.03125 12.19727l-.0215.008-.0215.01c-15.31116 6.01994-48.03858 11.40738-79.92578 12.88086-30.11826 1.39174-60.70164-.89391-75.84961-5.24805-9.30599-8.48545-18.293464-14.54228-27.960936-17.82227-10.764709-3.65226-21.5974-3.50675-31.771484-1.86132-16.416246 2.6549-30.525288 12.53775-34.888672 30.20312-2.723172 11.02484 1.248665 19.95284 4.929688 26.44336 1.029685 1.81558 2.10307 3.2193 3.175781 4.79297-4.122098 6.71632-7.491531 14.98345-5.447266 25.58594 2.96113 15.35786 13.202305 29.95083 32.056641 33.21289 7.718625 1.33546 17.584548 3.96547 29.322265.0469 9.563083-3.1926 17.568253-10.26292 25.378903-20.80664l165.92774 3.31055c4.90914 6.65212 11.0543 11.68485 17.5957 14.32422 9.30888 3.75601 17.86289 3.52703 24.62891 3.35351 18.2543-.46813 34.99742-9.41538 43.00195-26.8125 4.98564-10.83579 3.04142-21.48124.47461-29.48242-1.46275-4.55964-3.17995-8.47704-4.81055-11.94531 3.9301-8.28756 7.59963-19.13318 2.73633-31.75977-5.92085-15.37236-19.08514-26.16541-36.40039-28.27734-1.52146-.18557-3.02172-.27295-4.49609-.27734z" fill="#b7af93"/><path d="m110.19294 297.54329c37.21689 12.90152 131.68401 7.79926 169.57628-7.09897 22.76228-8.87388 28.16269-20.84581 44.38106-18.86765 10.21281 1.24565 20.03768 9.39652 23.40716 18.14474 3.19464 8.29425-1.28187 17.16229-5.61299 25.84248 4.50336 9.74765 12.64942 23.94881 7.60779 34.9063-4.43532 9.63977-17.26847 17.20864-28.87692 17.50634-12.70304.32577-24.9933-.34728-32.76543-17.50633l-183.14674-3.65442c-17.277849 27.0942-27.523399 23.97745-43.803209 21.16075-9.7294-1.68332-17.38366-11.70724-19.07434-20.47593-1.54676-8.0222 3.8291-15.50193 9.42096-22.91236-5.15776-6.32431-14.60275-17.54289-12.25571-27.04495 2.15697-8.7326 12.10752-16.66006 21.90909-18.24521 17.47211-2.82571 30.32312-.007 49.232999 18.24521z" fill="url(#c)" stroke-width="32.0001"/><path d="m311.35547 300.96289c-2.36394 1.95455-5.29499 3.26653-7.75 5.12891-3.6515 2.28114-2.4578 3.9434-.24024 4.23632.2292-.64319.89832-1.39801 2.24024-2.23632 2.45501-1.86238 5.38606-3.17436 7.75-5.12891 2.76531.069 5.5858 1.71831 8.00586 3.88672-2.75606-3.10333-6.43273-5.79751-10.00586-5.88672zm-235.29297 2.11133c-.319113-.0399-.615535-.0288-.882812.041-1.902145.42203-.867923 2.9001-1.310547 4.16797-2.06691 5.11136 2.985119 26.33028-5.603516 17.77149-6.754719-3.57797-3.539723 3.42408-.08789 6.01953-2.331787-3.01064-3.271818-6.85856 2.087891-4.01953 8.588635 8.55879 3.536606-12.66013 5.603516-17.77149.442624-1.26787-.591598-3.74594 1.310547-4.16797 1.4312-.37403 3.689592.98603 5.722656 2.76954-2.014337-2.30155-4.838381-4.56049-6.839844-4.81055zm195.75977 1.07617c-.46062-.0767-1.02115-.001-1.71875.27344-1.7303 8.40919-1.37072 17.25435-1.63477 25.83398.78449 1.70872 1.49448 2.30509 2.12305 2.22657-.0416-.0854-.0811-.1351-.12305-.22657.26405-8.57963-.0955-17.42479 1.63477-25.83398.63563-.25027 1.14581-.31619 1.58203-.27149-.40922-1.05473-.92937-1.84638-1.86328-2.00195zm19.25585 1.08789c-4.328-.30845-2.58617 6.74082-3.08593 9.76758 1.53391 9.4503-5.11048 1.69632-8.8711-1.66992-.65048-.0651-1.18363-.24649-1.66211-.48047.72326 1.26979 1.7711 2.29129 3.66211 2.48047 3.76062 3.36624 10.40501 11.12022 8.8711 1.66992.48347-2.92813-1.11169-9.59811 2.70117-9.75195-.11264-.65747-.30443-1.28516-.66602-1.85157-.34494-.0893-.66068-.1435-.94922-.16406zm-181.69921.0527c-4.38207 4.55233-18.107243 10.13986-9.708988 16.5371-3.63691-5.5664 7.789388-10.46522 11.708988-14.5371 1.59955.65031 3.2233 1.81608 4.77734 3.22265-2.10807-2.31746-4.46983-4.28451-6.77734-5.22265zm24.57031 1.17773c-.99262-.0204-1.7224.42682-2.08399 1.52148-1.92843 5.83821-2.87157 19.8428 1.31446 26.07422.24843-.2009.46706-.41858.67383-.64257-2.61094-6.93231-1.678-18.31617.0117-23.43165 1.82602-5.52812 13.01129 5.38341 19.84961 9.60547-.18308-.46031-.42607-.8992-.83789-1.27343-5.40671-2.90776-14.6264-11.76529-18.92773-11.85352zm50.18164 1.14453c-.407-.0104-.8152.0168-1.22266.0859-1.597 8.61567-1.39166 17.48272-1.66406 26.2207.77589 2.40168 1.57494 3.07933 2.29297 2.77539-.0981-.2495-.19545-.47352-.29297-.77539.2724-8.73798.0671-17.60503 1.66406-26.2207 6.51939-1.1067 12.97522 8.8961 19.51368.30469.94519-.25275 1.70119-.29564 2.3125-.17969-.48659-1.63312-1.68124-2.52393-4.3125-1.82031-6.12981 8.05444-12.18608-.23494-18.29102-.39063zm32.50391 1.15039c-.42276-.0436-.89917-.036-1.43555.0293-.95235 8.5275-.61697 17.17561-.39844 25.74414.75909 2.24116 1.5475 2.90315 2.26367 2.65234-.0879-.21751-.17648-.39493-.26367-.65234-.21853-8.56853-.55391-17.21664.39844-25.74414.87386-.10636 1.55269-.0267 2.13476.14648-.40639-1.19656-1.20155-2.02121-2.69921-2.17578zm17.08203.30469c-.38025.03-.78104.12306-1.20703.28711-2.13697 2.05066 1.82189 3.66457 2.05078 5.73437.7516.56684 1.3555 1.12106 1.89453 1.66993-.57328-1.91257-3.96585-3.46537-1.94531-5.4043 1.25456-.48312 2.29743-.33867 3.19921.18555-1.06187-1.50622-2.31422-2.60482-3.99218-2.47266zm77.09179.77734c-.22779.39511-.5151.7213-.82226 1.01953.83399 5.24012-2.19697 12.92995.24414 17.95118.45488-.13934.86305-.31699 1.22851-.5293-1.01771-6.08158 2.48942-14.26893-.65039-18.44141zm8.18164.8125c.68494.76675 1.38666 1.54245 2.12305 2.13672-.72638-.81214-1.43312-1.60136-2.12305-2.13672zm-64.13281.14258c-2.59446.48859-7.73824 6.09726-9.79297 7.91211-.82095.60046-1.51851.65891-2.15234.41211 1.14175 1.81627 2.3749 2.88794 4.15234 1.58789 1.93971-1.71326 6.6183-6.77997 9.32032-7.75586.054-1.76408-.54557-2.34114-1.52735-2.15625zm-142.4082 2.53125.76562.94141c.32508.12118.56392.27019.83594.4082-.44557-.69649-.98835-1.13831-1.60156-1.34961zm77.14062 1.49219c.0449.28704.0369.58877-.0684.90234-.45644.0306-.96216.38742-1.44921.76953.0524.40317.15277.85455.38671 1.42774-.50748 3.38032 1.61467-.10012 3.0625-.19727.47609-1.41782-.7898-2.64651-1.93164-2.90234zm13.44141.35742c-1.11435.21068-1.65116 5.57604 1.08203 3.25781.0414-.42459.0835-.8508.125-1.27539-.40045-1.55024-.83558-2.05265-1.20703-1.98242zm-86.73828 1.61914c1.70964 4.27982-7.13566 10.33142-10.19336 5.43555-.37365-.12657-.65785-.2958-.96094-.45508.42869 1.02488 1.34296 1.90701 2.96094 2.45508 3.59253 5.75223 15.12814-3.59248 8.19336-7.43555zm121.08203.97461c4.65224 6.00893-2.57532 10.99101-8.2207 15.89063-2.38284 3.72034-1.15087 4.48883 1.02343 3.85351.20955-.52091.50079-1.11067.97657-1.85351 6.25857-5.43181 14.41727-10.96979 6.2207-17.89063zm-91.08203.85938c3.20171 3.83003 4.18275 8.75209 2.81641 14.26757.52534 2.51266 1.38264 3.22727 2.24804 2.91797-.0864-.28525-.17394-.56356-.24804-.91797 1.61812-6.53185-.0545-12.23095-4.81641-16.26757zm55.63867 4.52734c-.0941 4.68897-.43176 9.38243-.13281 14.07031.78178.39908 1.41827.53155 1.95117.47266-.15856-4.38864.13577-8.78139.20117-13.16992-.63222-.48227-1.33983-.91889-2.01953-1.37305zm-97.98437 2.11133c1.95843 4.86566-14.614156 9.27746-7.126958 12.18359.66362-3.23495 14.346028-7.57736 7.126958-12.18359zm182.95117.88867c1.62417 3.35863.60693 9.02478 3.39258 8.26562-.55895-2.66215-.48514-7.0371-3.39258-8.26562zm-41.71289 4.37695c1.76942 2.32756 3.39085 5.74291 5.16211 7.70313.23704.0796.41219.10608.62109.16211-1.87826-2.82942-3.67017-6.61024-5.7832-7.86524zm-174.994144 2.54492c.570092.6812 1.108723 1.15427 1.626953 1.50196-.207708-.27143-.413289-.51636-.626953-.83594-.330045-.15245-.665302-.41557-1-.66602zm44.978514.19532c.52864.81241 1.45719 1.68207 2.89453 2.62695-.3902-.52998-.91523-1.11092-1.66406-1.76367-.47235-.2968-.85428-.58065-1.23047-.86328zm-4.33203.43945c.25823.45093.50834.96198.74609 1.57617.52822 1.35126 1.45896 2.31966 2.47657 2.95313-.17961-.29494-.34291-.61122-.47657-.95313-.80386-2.0766-1.73287-3.14234-2.74609-3.57617z" fill="#b7af93" filter="url(#k)"/><path d="m310.87305 309.95312c-.0857.0517-.17028.10446-.25586.15626-.77887 1.15612-1.96003 1.79858-3.16602 2.09179-5.80095 3.75581 1.44853 5.90819 4.66602 2.54297-.0247-1.84499-.32381-3.50567-1.24414-4.79102zm6.61328.041c-.19358-.002-.38691.035-.58008.11328-2.09593 5.92158 2.1232 17.13267-3.5918 20.24024.0521 1.60638.27067 3.14131.91602 4.46875 7.32552-2.24391 2.45828-14.44395 4.67578-20.70899 3.09076-1.25183 6.19798 8.50957 10.41602 4.85352-.44314-1.16215-1.20046-2.51377-2.16993-3.88282-3.8689 3.04289-6.80474-5.05673-9.66601-5.08398zm-41.07031.37109c.42086 1.35277.91934 2.74551 1.9082 3.71875-.49769-1.63179-.91205-3.14768-1.9082-3.71875zm18.6621.87305c-.10238-.007-.18359.0109-.27929.0117-.0752 1.84717-.46052 3.80712-.25391 5.54688l-.53125 18.70117c-.88596.65898-1.54041.94288-2.05664.99023.41885 3.04853.71662 5.49412 4.05664 3.00977l.53125-18.70117c-.36292-3.05592 1.13715-6.80247-.51758-9.39454-.34494-.0893-.66068-.1435-.94922-.16406zm-214.070308 1.59961c-2.528319.40494-.291769 11.53955-1.626953 14.19141 1.316526 5.80588-2.351594 15.45247-8.189453 6.7207-.973181-.44952-1.994013-1.38856-2.857422-2.45703.135508 1.89625 2.638487 5.43209 4.857422 6.45703 5.837859 8.73177 9.505979-.91482 8.189453-6.7207 1.643304-3.26383-2.124495-19.37805 4.240235-12.52149 5.029987 1.78681 4.192907-1.13978 1.667968-4.19726-.171631.82078-1.23806 1.06044-3.667968.19726-1.193387-1.2856-2.029823-1.76337-2.613282-1.66992zm30.884768.31641c-.22981-.0301-.47186.002-.71094.0215-1.61958 1.2334-3.56505 2.5318-5.33398 3.89258-1.39047 2.31932-1.57466 5.07161 1.05468 6.60156.59661-4.49364 7.27435-9.52939 9.54102-4.34375l.77148.94727c.45878.17101.82548.37249 1.17969.57617.44046-1.73986-.30996-3.50644-3.17969-4.57617l-.77148-.94727c-.60268-1.3788-1.51858-2.03649-2.55078-2.17187zm26.72656.5957c-1.39531-.15391-.77595 3.31408-.86523 5.50977-.70444 5.41043 1.8287 12.85949-2.34766 16.58789.44976 1.58587.99825 3.06283 1.77344 4.21679 4.51747-3.65322 1.85649-11.29215 2.57422-16.80468.11905-2.92758-1.01987-8.11668 3.0332-3.9668 3.65168 1.56318 6.3913 3.70318 8.2207 6.27344-1.3814-4.38377-4.81074-7.9576-10.2207-10.27344-1.01327-1.03747-1.70287-1.49167-2.16797-1.54297zm70.36719.1543c.0756 3.29945-.99754 7.72472-.55274 10.12695-.95832 3.67584 1.26466 15.34955-2.75 15.66992.008 1.17713.0402 2.35457.11524 3.53125 6.54792 3.34251 3.55209-11.04837 4.63476-15.20117-.71195-3.84506 2.55357-12.96124-1.44726-14.12695zm-19.42774.90625c-1.14992-.23986-2.15558.52608-1.09961 3.11328-.50748 3.38032 1.61467-.10012 3.0625-.19727.48049-1.43094-.81296-2.67616-1.96289-2.91601zm32.09961.21093c.14942 4.17618-1.78286 10.3101-.54687 13.30469 1.35584 2.69583-.24448 10.9371-2.33399 10.91016.0114.43276.0124.8684.0234 1.30078 2.81946 8.32425 6.07978-4.69316 4.31055-8.21094-1.79874-4.35802 3.17163-15.42006-1.45313-17.30469zm14.41797.94141c-.90149 1.77177 2.27866 3.26672 2.48438 5.12695.93177.70273 1.64526 1.38716 2.2539 2.0625-.1885-1.91287-1.41249-3.91958-4.2539-6.0625-.0432-.39075-.24133-.76269-.48438-1.12695zm-32.08008.43164c-.61018.41546-1.22091.66714-1.83007.8457-.0827 1.31178.37029 2.53677 1.94726 1.19922.0414-.42459.0835-.8508.125-1.27539-.0792-.30675-.16095-.54115-.24219-.76953zm54.86133.40625c-.43695.0823-.98441.39645-1.53906.72656-1.17402 1.29448-2.94977 2.48154-4.5918 3.69727-1.29705 1.22278-2.39581 2.3034-3.23242 3.07617-.79196 1.2554-.92565 2.64061.24024 4.27539.2317.34595.7632 1.10933 1.16796 1.68555-.0452-4.00685 7.7093-6.50315 9.38282-10.11719.40384-2.73017-.24844-3.56583-1.42774-3.34375zm17.49805.78516c-1.05583-.038-1.58055 1.18604-1.13281 4.63476.77422 2.57132-.40872 12.22856-2.7168 12.27344-.013.58509-.0192 1.1808-.0371 1.76367 3.5938 7.82773 5.73189-6.78909 4.75391-10.03711-1.43275-11.0359 7.08949.69997 11.1289 3.72071.51297.12617.92369.36218 1.29297.64062-.41173-2.11697-1.16758-4.11784-3.29297-4.64062-2.7771-2.07676-7.67326-8.27197-9.99609-8.35547zm-79.87109 2.05468c-.86044.53596-1.86439 1.04198-2.86329 1.56446-.009.16958-.0402.34465-.0996.52148-1.18722.0797-2.80557 2.37621-3.07812 1.35742-1.99621 1.41555-3.35751 3.18646-2.62695 5.89454.66967 2.91296-.72409 9.65672-2.54297 9.7832-.0103.38509-.0173.77358-.0293 1.1582 2.59828 8.04265 5.48038-2.99129 4.57227-6.9414-1.40488-5.20769 4.88046-6.97867 8.66797-9.3379 1.7719 1.16193 3.61594 2.29931 5.38867 3.48047.027-.8618.0653-1.72434.0781-2.58593-2.29721-1.75236-4.99458-3.27339-7.46679-4.89454zm-72.29102 2.25977c.085.22302.2049.46616.27539.67969-1.17639 1.18929-2.85311 2.27641-4.5 3.34765-.89346 1.69138-2.77231 3.20543-4.72461 3.82813-1.06241 1.5049-.98367 3.15724 1.44336 5.1543.80366-3.04272 6.85296-5.3697 9.78125-8.33008-.46262-1.40129-1.26835-3.02197-2.27539-4.67969zm-23.20313 1.40625c-.14471 1.64052.76547 3.34333 3.44727 5.10938.55552.25891.9459.51599 1.36328.77343.7312-1.54107.13396-3.14349-3.36328-4.77343-.56656-.3731-1.02973-.74173-1.44727-1.10938zm55.04493.48828c-.0641 1.74586-.56464 3.65546-.27344 5.26758 1.38959 2.63123-.57819 8.21989-2.47266 8.77734-.0696.35696-.09.70033-.17968 1.0625 1.66232 7.95067 6.65956-2.0391 4.65234-5.83984-.51153-2.83187 1.46868-6.60158-.88477-8.74023-.25616-.13777-.56945-.36443-.84179-.52735zm87.34179 6.34375c-.45576.0785-.93509.34072-1.42773.7168-.62324 1.12548-1.56618 2.21708-2.6211 3.29492-.76936 1.5314-2.8004 3.21724-4.80859 4.33789-.46143.39048-.91709.78879-1.36523 1.17774-5.17651 8.08212 6.65152 2.31637 8.32031-1.78516 5.79024-9.77879 8.94512 2.01437 12.87305 6.36133 5.18899 1.74244 3.49286-2.29497 1.08398-6.19336.67543 2.03887.20995 3.29945-3.08398 2.19336-2.94595-3.26022-5.4565-10.70849-8.97071-10.10352zm-133.60742 3.32422c-.88949-.0136-1.83333.36696-2.80664.9375-3.32949 3.69714-12.533743 6.96094-5.73242 9.23828 5.18661-2.08645 10.89826-11.26964 14.35351-2.34375 2.21167 5.65776 11.36081 4.829 5.06641-.91015-.97255 1.5728-5.5808.71053-7.06641-3.08985-1.07976-2.78934-2.37867-3.81014-3.81445-3.83203z" fill="#edebde" filter="url(#f)" stroke-width="32"/><path d="m313.3552 302.9638c5.95416.14866 12.25167 7.49717 13.96753 11.99712-4.21804 3.65606-7.32611-6.1062-10.41687-4.85437-2.2175 6.26504 2.651 18.46545-4.67453 20.70936-2.97144-6.11209 2.17777-16.18543-1.42351-20.97116-2.68231 4.65235-11.80785 2.3731-5.20308-1.75299 2.45501-1.86238 5.38652-3.17341 7.75046-5.12796zm-41.25184 3.4608c5.58088-2.19733 2.42201 8.25228 9.01787 8.91212 3.76062 3.36625 10.40457 11.12029 8.87066 1.66998.53308-3.22855-1.48316-11.03444 4.0359-9.60496 1.65473 2.59207.15437 6.3393.51729 9.39522l-.53091 18.70127c-6.29583 4.68292-1.75943-8.10443-7.66312-9.55656-4.03942-3.02074-12.56046-14.75638-11.12771-3.72047.97798 3.24802-1.16118 17.86434-4.75498 10.0366.26405-8.57964-.0953-17.424 1.635-25.8332zm-37.59422 4.93009c6.81592-2.62475 7.44322 13.09636 12.55492 9.35759 2.98869-2.63979 12.51358-13.30398 11.22127-4.56742-1.97405 4.26305-12.45154 6.96122-8.55063 12.43101 1.85926 2.77604 10.79824 14.41426 2.61375 11.66594-3.92793-4.34696-7.08287-16.13967-12.87312-6.36087-1.66879 4.10153-13.49846 9.868-8.32195 1.78587 6.46518-5.61112 15.0147-11.33246 5.40782-18.57772-.22889-2.06981-4.18903-3.68374-2.05206-5.7344zm-17.31059-.56235c8.5821-1.04455 1.86809 12.58147 3.91226 17.53414 1.76923 3.51778-1.49044 16.5343-4.3099 8.21004-.21853-8.56854-.55471-17.21667.39764-25.74418zm-12.96021 6.37249c-1.60181-6.20098-3.76862 4.36475-.12436 1.27378.0414-.42459.0829-.84919.12436-1.27378zm-12.71683.56136c.96098-2.86188-5.1752-4.97755-3.06325.19685-.50748 3.38033 1.61541-.0997 3.06325-.19685zm4.96328 1.91469c-3.78751 2.35923-10.074 4.13081-8.66912 9.3385.90811 3.95012-1.97406 14.98417-4.57234 6.94151.2724-8.73799.0686-17.60691 1.6656-26.22259 6.51939-1.1067 12.97456 8.89707 19.51302.30565 7.7634-2.07598 3.18389 9.5549 4.01187 14.02656-1.08267 4.1528 1.91217 18.54364-4.63576 15.20113-.31227-4.89675.0796-9.79842.15259-14.69597-2.29721-1.75236-4.99364-3.27364-7.46586-4.89479zm-41.60856.68235c2.35345 2.13866.37493 5.90768.88646 8.73955 2.00722 3.80074-2.99187 13.79009-4.6542 5.83942 2.13596-8.62219-1.43599-15.80605-10.32135-19.60961-4.05307-4.14988-2.91474 1.03979-3.03379 3.96737-.71773 5.51254 1.94392 13.15097-2.57356 16.8042-4.18603-6.23143-3.24379-20.23619-1.31535-26.0744s14.35737 6.75469 21.01179 10.33347zm-40.43262-4.99802c-3.2143-7.3536-15.358062 5.85708-6.3437 8.91059 3.76439 6.02741 16.30202-4.53747 7.11548-7.96188zm-3.06476-8.0336c5.5033 2.23743 11.41019 10.20076 13.09006 15.2892-4.38332 4.43137-15.82427 7.43105-6.06781 13.56134 6.84418 5.96611-2.57276 6.89327-4.81641 1.1537-3.45526-8.9259-9.16836.25541-14.354983 2.34186-10.304727-3.45041 16.223123-9.15527 3.207983-15.2212-10.090306-6.64476 4.42463-12.43288 8.94116-17.1249zm-34.199197-2.17705c4.276445-1.11762 16.094541 12.82235 6.441488 9.39328-6.364736-6.85657-2.597889 9.25845-4.241194 12.52228 1.316527 5.80589-2.349782 15.45262-8.187647 6.72084-3.739129-1.72712-8.345846-10.62546-.927133-6.69578 8.588644 8.5588 3.536093-12.66041 5.603005-17.77177.442625-1.26787-.590665-3.74682 1.311481-4.16885z" fill="#b7af93" filter="url(#l)" opacity=".5"/></g><g transform="matrix(.84661413 -.53220721 .53220721 .84661413 -102.945571 81.357699)"><path d="m80.253906 396.07227c-1.550013-.0384-3.130668.0156-4.738281.17382-18.272485 1.79845-32.223336 13.35652-38.628906 29.29883-5.397751 13.434-1.630743 25.18208 2.314453 34.3418-1.954412 3.97596-4.043811 8.45024-5.845703 13.76758-2.884273 8.51141-5.124847 19.5072-.466797 30.94531 7.522457 18.47184 24.746355 29.09179 43.953125 30.1543 7.150797.39556 16.19699.88514 26.041013-2.9336 7.07416-2.74423 13.69673-8.0929 18.99219-15.32422l176.25195 1.35352c7.89763 11.95333 16.01874 19.95863 26.03907 23.77344 12.15816 4.6287 22.67304 2.05818 30.89453.81445 19.88403-3.0079 30.672-18.56932 34.08984-34.51172 2.4476-11.41649-1.11016-20.57022-5.41211-28.05273 1.41375-1.97176 2.84296-3.87211 4.20508-6.2168 3.98637-6.86196 8.15707-16.05655 5.80469-27.43359-3.80203-18.38783-18.00558-29.86949-35.17578-33.27344-10.69182-2.11965-22.12613-2.59533-33.54688 1.08594-10.31354 3.32437-19.94698 9.71178-30.04297 18.81445-16.24146 4.41737-48.75244 6.01136-80.69726 3.55664-33.72783-2.59173-68.1796-9.50871-84.32032-16.67578l-.0215-.01-.0215-.01c-10.01425-4.41111-15.69746-9.14879-23.04687-14.20313-6.43073-4.42254-15.771004-9.16677-26.621094-9.43554z" fill="#b7af93"/><path d="m302.76693 447.31541c-39.80528 13.13062-139.65015 4.64222-179.29469-12.96141-23.817289-10.4911-29.1572-23.88098-46.38874-22.18498-10.850815 1.06798-21.508459 9.77671-25.351059 19.34025-3.643202 9.06725.816416 19 5.128038 28.72081-5.074439 10.63349-14.145429 26.07741-9.153375 38.33569 4.391712 10.78411 17.738836 19.53371 30.018491 20.21301 13.437545.74333 26.469575.37071 35.237875-18.35245l193.9995 1.4904c17.43737 30.45581 28.38178 27.32159 45.70481 24.70099 10.35285-1.5661 18.77159-12.40973 20.8376-22.04657 1.89017-8.81645-3.56527-17.24248-9.25155-25.59846 5.65936-6.83159 16.0115-18.94107 13.8262-29.51002-2.00836-9.71308-12.29261-18.77184-22.61889-20.819-18.40745-3.64928-32.10075-.92223-52.69421 18.67174z" fill="url(#d)" stroke-width="32.0001"/><path d="m106.77734 453.18555c-.72517.10441-1.37967.77336-1.92187 2.27929.32309 6.75155.4015 13.51243.69922 20.26563-1.31508 3.39708.23043 5.92077 1.81054 6.20508-.40027-1.08772-.45695-2.5353.18946-4.20508-.29772-6.7532-.37613-13.51408-.69922-20.26563.98241-2.72856 2.33363-2.67892 3.8125-1.53711-1.37374-1.60447-2.72603-2.90986-3.89063-2.74218zm98.59766.36133a.95591296 1.030879 0 0 0 -.49219.0156c-.48437.15776-.92156.46355-1.18554.88867s-.32664.88385-.33399 1.25c-.0147.7323.0958 1.27457.0586 1.5293a.95591296 1.030879 0 0 0 -.0117.19922c.31313 9.32053-.65194 19.05638 1.09765 28.4707a.95591296 1.030879 0 0 0 1.26953.76367c.18527-.074.32999-.19612.49805-.29101-1.38961-8.938-.56897-18.12485-.86523-26.94336a.95591296 1.030879 0 0 1 .0117-.19922c.0372-.25473-.0733-.797-.0586-1.5293.007-.36615.07-.82488.33399-1.25.26398-.42512.70117-.73091 1.18554-.88867a.95591296 1.030879 0 0 1 .49219-.0156h.002c2.06744.52 3.91854 1.80192 5.66211 3.40429-2.31279-2.54458-4.78678-4.68109-7.66211-5.40429zm-80.66602.66406c-2.66167.29407-6.35587 3.6357-7.63281 7.06445-.56489.33726-1.21678.12389-1.91601-.38086 1.46025 1.70808 2.8423 3.0219 3.91601 2.38086 1.39584-3.748 5.67311-7.37612 8.33985-7.04883-.42569-1.56886-1.43742-2.1559-2.70704-2.01562zm-42.160152 2.13281c-.674163.0311-1.292685.18508-1.832031.48437l-.164063.99219-.117187 1.70899c.09701 9.97832-.634297 20.17229.894531 30.00781.482188.0508 1.087926.0181 1.738281-.0488-1.14597-9.19925-.542512-18.6704-.632812-27.95898l.117187-1.70899.164063-.99219c3.002507-1.66617 8.42459 1.19485 12.222656 4.56641-3.035565-3.48058-8.574724-7.22681-12.390625-7.05078zm73.941402.11133-.66992.44726c-1.07175 9.96029-.75578 20.31825-1.82617 30.39844 1.18234 2.68073 1.98577 3.45877 2.57031 3.13281-.18655-.3606-.36109-.65844-.57031-1.13281 1.07039-10.08019.75442-20.43815 1.82617-30.39844l.66992-.44726c1.54448.43821 3.807 1.95326 5.91797 3.84765-2.54113-2.80378-5.85732-5.26299-7.91797-5.84765zm161.40821 1.22656c-.36075.0429-.74.15259-1.14063.33789-1.97554 2.21716 1.83016 3.79422 2.10352 5.96094.77468.60826 1.39049 1.20663 1.9375 1.80078-.472-2.06332-3.95412-3.61463-2.04102-5.76172 1.13599-.52543 2.09512-.41866 2.94336.0566-1.03718-1.50645-2.24057-2.58011-3.80273-2.39453zm-77.9375.18945c-.40294-.0332-.8553-.0103-1.36328.0742-.675 8.9833-.12245 18.05541.3164 27.04688.80179 2.39024 1.58753 3.03275 2.27344 2.68945-.0911-.2293-.18193-.41664-.27344-.68945-.43885-8.99147-.9914-18.06358-.3164-27.04688.79726-.13269 1.42458-.0745 1.9707.0742-.42376-1.2122-1.20197-2.03259-2.60742-2.14844zm39.41601 0c-.40294-.0332-.85529-.0103-1.36328.0742-.67502 8.9833-.12244 18.05541.31641 27.04688.80178 2.39024 1.58752 3.03275 2.27344 2.68945-.0911-.22939-.18188-.41651-.27344-.68945-.43885-8.99147-.99143-18.06358-.31641-27.04688.79689-.13263 1.42278-.0743 1.96875.0742-.42376-1.2122-1.20001-2.03258-2.60547-2.14844zm-11.88086.20703c-.78178-.0591-1.807.45842-2.97851 1.89649-3.76896 5.0706-19.14624 9.40406-10.33985 16.04101-3.71901-5.54508 8.96334-9.49839 12.33985-14.04101.97137-1.19239 1.8338-1.7248 2.54883-1.84766-.0848-1.10643-.65254-1.97946-1.57032-2.04883zm29.95899.25391c-.74277-.11562-1.39564.93885-1.63477 3.94336l-.0195 1.23828-.0547.88477c-6.36146-2.93564-5.10917 3.31067-.96289 6.56054-2.36555-3.22198-2.22104-6.95278 2.96289-4.56054l.0547-.88477.0195-1.23828c.20703-2.60113.7268-3.70681 1.34375-3.89062-.53205-1.11683-1.13732-1.96375-1.70898-2.05274zm41.18945.52149c-2.17388-.52544-7.6202 6.46238-9.69531 8.60937-.72949.6301-1.36448.73499-1.95117.54102 1.12295 1.83064 2.31511 2.87214 3.95117 1.45898 1.78451-1.84632 6.05206-7.24506 8.59766-8.39453-.00024-1.39373-.33232-2.07707-.90235-2.21484zm-213.83203 4.27343c-.59294.91898-1.29495 1.82724-2.0332 2.68555-.15757 5.97473-.72041 12.1591-.42578 17.66602.78507-.1852 1.41273-.50825 1.96875-.89454-.0373-6.25642.66493-13.11403.49023-19.45703zm-12.5293 1.24219c-.20632.0209-.37106.12475-.51562.26953.65894 1.29129 1.41341 2.0763 2.22851 2.44922-.40327-.69406-.77826-1.54766-1.10547-2.61914-.22858-.0855-.43016-.11754-.60742-.0996zm98.83789.37695c1.22404 1.35498 2.49944 2.90683 3.41211 3.88477a.95591296 1.030879 0 0 0 .006.008c4.65187 4.89453 8.35558 11.07524 13.46875 15.8418-4.12841-4.41309-7.44503-9.60818-11.46875-13.8418a.95591296 1.030879 0 0 1 -.006-.008c-1.44401-1.54728-3.81172-4.59489-5.41211-5.88477zm-120.480465.81055c-.119079.5764-.98177 1.20858-3.140625 1.97656-.439971.56441-.821033.89068-1.167969 1.09961.231586 2.00326 1.211573 3.41013 3.167969.90039 4.780693-1.70066 3.299285-2.738 1.140625-3.97656zm230.710935.85352c5.03898 6.29671-1.80835 11.8397-7.12695 17.24023-2.17698 4.00142-.95834 4.75636 1.11328 4.00195.18434-.55855.4475-1.19463.88672-2.00195 5.87446-5.96495 13.60602-12.10346 5.12695-19.24023zm-157.41406 2.17968c.82493.88171 1.67626 1.82123 2.53711 2.76758.0373-.024.0561-.0555.0918-.0801-.9367-1.02278-1.85305-2.00683-2.62891-2.6875zm132.03516 3.69336c.0724 5.15627-.0206 10.32061.41992 15.46289.81413.79951 1.44948 1.19263 1.95703 1.29883-.38733-5.06721-.29879-10.15415-.38086-15.23242-.74504-.41426-1.39862-.95129-1.99609-1.5293zm-205.556644 3.59766c.276058.90521 1.431726 1.89065 3.955078 3.03516.568031.29855 1.011131.60085 1.447265.90234-.570729-.96698-1.623931-1.94401-3.447265-2.90234-.797873-.36189-1.415025-.70253-1.955078-1.03516zm169.966794.25391c.53913 1.06525 1.75991 2.09295 3.90821 3.0332.88037.25314 1.88884.94391 2.85742 1.77148-1.39325-1.69359-3.32674-3.33136-4.85742-3.77148-.76156-.33331-1.36886-.68-1.90821-1.0332zm-98.25 3.59765c-.0672.00077-.12905.0301-.1914.0547.0745.13949.13307.20523.21093.36133.42703.21801.77891.36736 1.13282.51953-.44994-.63417-.83253-.93921-1.15235-.93555zm167.33203.14453c1.46521 1.96054 2.79001 4.69386 3.92578 6.75391.6275.57931 1.14447.96944 1.61133 1.27734-1.56455-2.92413-3.4203-6.76268-5.53711-8.03125zm-238.542965 1.88672c-.07988.11356-.223649.21559-.492187.29688-1.346031 1.85424-2.5406 2.33907-3.513672 2.09961.945932 2.09609 2.963808 3.41299 5.513672-.0996 1.441492-.43635-.112258-1.38441-1.507813-2.29688z" fill="#b7af93" filter="url(#m)"/><path d="m129.625 460.25586c-.013.65081-.0633 1.35968-.20117 2.19531-2.0814 6.30483 2.23263 18.46428-3.1211 22.14649-.0289 1.6651-.0334 3.30715.0508 4.88086 8.30163-1.95833 2.77433-16.07253 5.07031-23.02735.67543-4.09295-.2523-5.87121-1.79883-6.19531zm-4.8125 2.87109c-3.22382 4.99649-9.1287 10.48856-11.92188 1.3418-3.6574-1.36783-.40415 11.2097-1.11718 15.08789.16429 3.65644-1.34628 4.77447-2.70117 4.29102-.29244 4.65904 5.00132 6.38926 4.70117-.29102.71303-3.87819-2.54022-16.45572 1.11718-15.08789 2.2662 7.42105 6.56311 5.17845 9.83204 1.41016.0906-2.28319.15042-4.55237.0898-6.75196zm-36.832031.89063c-2.28234-.39181-2.455923 8.30597.351562 6.61523.226835-1.77462.975852-3.24684 2.195313-2.36719.248664.1804.53612.3269.808594.49415 3.375799-1.752-.469613-2.79729-2.808594-4.49415-.194135-.14003-.375917-.21869-.546875-.24804zm183.515621.0605c-.25701-.0194-.54721.0524-.85351.16993-.4782 1.00742-1.38008 1.9345-2.79297 2.48242-1.44023 1.48798-3.7312 2.92654-5.9707 4.39062-2.0981 2.26133-2.80021 4.71355.28125 6.86329.59667-2.55099 4.00142-5.11563 7.11132-7.03516 4.71742-1.32027 4.56996-6.69383 2.22461-6.8711zm-26.54492.0352c.29748 4.3808-1.43015 10.98981-.16211 14.12891 1.36231 2.79269.0614 11.50488-1.92773 11.52539.0202.40731.0329.81761.0527 1.22461 2.90405 8.65741 5.65129-5.10866 3.875-8.75-1.82604-4.52047 2.5965-16.2783-1.83789-18.12891zm39.41406 0c.29748 4.3808-1.43014 10.98981-.16211 14.12891 1.3622 2.79245.063 11.50338-1.92578 11.52539.0202.40731.0329.81761.0527 1.22461 2.90405 8.65741 5.64934-5.10866 3.87304-8.75-1.82606-4.52051 2.5967-16.27845-1.83789-18.12891zm-74.08203.10938c-.0138.0485-.0767.13209-.0898.60351-.0165.59118.0597 1.50142.27344 2.73047a.95591296 1.030879 0 0 1 -.0117.43555c-.55624 2.45365.1963 6.91117.52344 10.99414.16358 2.04148.21387 4.01161-.17969 5.73828-.37416 1.64156-1.28292 3.09669-2.80078 3.81055.13783 1.12496.30215 2.2481.50976 3.36523a.95591296 1.030879 0 0 0 1.26953.76367c1.6655-.6657 2.62793-2.21278 3.02149-3.93945s.34327-3.6968.17969-5.73828c-.32714-4.08297-1.07968-8.54049-.52344-10.99414a.95591296 1.030879 0 0 0 .0117-.43555c-.21375-1.22905-.28991-2.13929-.27344-2.73047.0131-.47142.076-.55501.0898-.60351.17028.0644.46143.21912.82813.51367 1.6005 1.2856 3.9751 4.3443 5.42187 5.89453a.95591296 1.030879 0 0 0 .006.008c5.21201 5.48389 9.22028 12.59635 15.3711 17.50781a.95591296 1.030879 0 0 0 1.31445-.18164c1.01363-1.35768 1.01559-3.07269.4375-4.49804-.37788-.93175-.99042-1.80451-1.66992-2.66016.13509 1.08049-.0568 2.20622-.76758 3.1582a.95591296 1.030879 0 0 1 -1.31445.18164c-6.15082-4.91146-10.15909-12.02392-15.3711-17.50781a.95591296 1.030879 0 0 1 -.006-.008c-1.44677-1.55023-3.82137-4.60893-5.42187-5.89453-.3667-.29455-.65785-.44927-.82813-.51367zm91.67578.36132c.47349 1.76538.69135 3.7087.28125 5.14844-.32237 1.33715.82418 2.837 1.98243 4.25977.009-.0862-.003-.17511.0176-.25977.82845-2.90848-.76384-7.96979-2.28125-9.14844zm18.36329.15235c-.71347 1.85698 2.29615 3.31877 2.53906 5.24414.89535.70301 1.58616 1.39386 2.17969 2.07812-.27774-1.9532-1.49532-3.97043-4.17969-6.07812-.0551-.43687-.273-.84516-.53906-1.24414zm22.32226.11719c-.6983-.16878-1.74111.46134-2.89453 1.43359-1.02487 1.04463-2.15146 2.10687-3.21289 3.1875-.44163.48337-.7814.84296-1.18945 1.30469-2.49448 2.8557-3.87983 5.88619-.51172 9.25781-.11299-4.26948 5.8323-8.03155 8.64648-11.69531.24864-2.30234-.11326-3.31314-.83789-3.48828zm-180.68164 2.65429c-.70638.12649-.85801 1.47559-.0977 4.84961.45762.48007 1.03208 1.14678 1.63672 1.88281-.75304-5.73209 3.19581-1.03479 6.97266 3.11719 2.39115-1.53497 1.44293-4.45819-.6582-7.32226.23601 1.34397-.0996 2.52482-1.3418 3.32226-2.61407-2.87371-5.33441-6.06042-6.51172-5.84961zm-63.828124 1.00196c-.865603 1.05018-2.177314 1.95815-3.490235 2.8164.08738.63372-.692932 1.32554-3.097656 2.1875-.06443.0564-.123382.11344-.183594.16992-.171577.20824-.337515.38785-.49414.53711-.928059 1.18219-.711736 2.42742 2.035156 3.95508 1.587763-1.95869 6.257765-3.75815 7.755863-6.4082-.50854-1.00223-1.420464-2.13412-2.525394-3.25781zm197.199214 3.07031c.10705 1.38337 1.10817 3.23351 2.65821 4.72461-.007-.83075-.01-1.66188-.0234-2.49219-1.03456-.57524-1.8991-1.37927-2.63477-2.23242zm-39.81445 5.88281c-.25338 1.45937.49606 3.02044 2.875 4.73633 3.5069 2.72594 6.99112 5.47958 10.43945 8.2793 5.63628 2.46225 4.62302-.81761 2.09961-3.76758-.20685.80475-1.38184.95485-4.09961-.23242-3.44833-2.79972-6.93255-5.55336-10.43945-8.2793-.34803-.25103-.59441-.49174-.875-.73633zm50.625.42969c-.31629.43998-1.09891.74282-2.66211.83594-2.3808.28135.31546 13.33756-3.25976 12.28515.0482.91156.0919 1.82218.16992 2.73242 6.24355 6.13135 2.38493-10.69791 5.08984-11.01757 4.70868-.2805 2.61618-2.42331.66211-4.83594zm22.00391 1.54883c-.60396-.0121-1.22641.26943-1.86133.83789-.00062.001-.001.003-.002.004-.52655 1.0819-1.31047 2.14181-2.17383 3.19336-.009.0191-.0182.0315-.0274.0508-.60771 1.79473-2.83355 3.88611-4.92773 5.18164-.31363.31165-.62575.63081-.93164.94141-4.70142 8.64151 6.38411 2.23379 7.85937-2.12305 4.53798-9.56424 8.48445-.0153 11.30664 5.10352 6.18306 5.70825 4.18357-2.66195 1.46876-6.4707 1.17383 3.47142.90889 6.51218-3.46876 2.4707-1.94026-3.51922-4.41228-9.13277-7.24218-9.18945zm-240.576174.0801c-2.065723.0199-1.381982 5.106.78125 6.39454-.124588-1.89457.712658-3.34513 2.919922-1.63086.01142.17579.199289.3838.443359.60156.234674-.2519.468121-.48899.712891-.82617 2.302297-.69692-3.087255-2.71353-3.15625-3.77539-.698449-.54245-1.262044-.7679-1.701172-.76368zm74.560544.21094c-2.2484.0258-1.69319 13.77353-4.07422 12.72266-.0277.28076-.0347.56535-.0645.8457 5.72448 12.97914 2.64561-18.20455 8.1582-7.15234 5.82966 2.97624 4.63052-.40325 2.16407-4.12891.26336 1.42729-.73199 1.8811-4.16407.12891-.86134-1.72691-1.51132-2.42184-2.01953-2.41602zm-63.898435 4.34375c-.356412 1.64109-2.00361 3.16798-4.169922 4.41016-1.345806 1.64193-2.531585 1.97433-3.470703 1.5625-2.061698.77648-4.136145 1.32766-5.761719 1.46484.131911 1.34613.290635 2.68908.498047 4.02344 4.995862.52629 20.662792-5.60376 12.904297-11.46094z" fill="#edebde" filter="url(#n)" stroke-width="32"/><path d="m318.75696 460.01964c6.41001-2.96484 7.42991 13.55728 12.19258 9.44348 2.76682-2.86266 11.52687-14.33137 10.53232-5.12202-3.86182 5.02767-13.67459 10.236-5.54149 16.69441 3.09346 2.83124 6.3234 13.94027-.5495 7.59515-2.8222-5.11887-6.76859-14.66804-11.30657-5.10379-1.47527 4.35684-12.56199 10.765-7.86057 2.12348 5.99279-6.0851 13.96346-12.34807 4.63811-19.67008-.27336-2.16672-4.08042-3.74347-2.10488-5.96063zm-20.93668 4.25489c.76521-9.61443 5.75969.75316 4.41948 5.45834-.85945 3.56481 8.67318 8.55359 1.24312 8.99619-2.70491.31966 1.15374 17.1492-5.08982 11.01785-.45394-5.2987-.33789-10.62292-.42374-15.93537-5.07707-2.82299-7.17274-10.6204-.22352-7.41353l.0559-.88478zm-17.8074-4.32939c8.1278-1.35274 2.11477 13.15637 4.19106 18.29633 1.7763 3.64135-.97036 17.40744-3.87441 8.75002-.43885-8.99148-.99167-18.06304-.31665-27.04635zm-23.61906 18.25445c-9.34818-6.74266 6.31961-11.10615 10.12375-16.22409 4.68607-5.75229 7.04429 3.21302.7544 4.97338-5.32132 3.28448-11.57352 8.45828-2.98032 12.21928 4.13804 1.18983 11.2494 11.11473 2.54258 7.31108-3.44834-2.79972-6.93351-5.55371-10.44041-8.27965zm-15.79569-18.25445c8.1278-1.35275 2.11477 13.15637 4.19106 18.29633 1.77629 3.64135-.97036 17.40744-3.87441 8.75002-.43885-8.99148-.99165-18.06304-.31665-27.04635zm-33.22202-4.39921a.95591296 1.030879 0 0 0 -.49337.017c-.48437.15776-.92203.46337-1.18601.88849s-.32631.88387-.33366 1.25002c-.0147.7323.0957 1.27497.0585 1.5297a.95591296 1.030879 0 0 0 -.0111.19782c.31313 9.32054-.65214 19.05646 1.09745 28.47079a.95591296 1.030879 0 0 0 1.26981.76399c1.6655-.6657 2.62836-2.21268 3.02192-3.93935s.34227-3.69702.17869-5.7385c-.32714-4.08297-1.07965-8.54072-.52341-10.99437a.95591296 1.030879 0 0 0 .0111-.43487c-.21375-1.22905-.29004-2.13908-.27357-2.73026.0131-.47142.0763-.5552.0901-.6037.17028.0644.46191.21876.82861.51331 1.6005 1.2856 3.97563 4.34516 5.4224 5.89539a.95591296 1.030879 0 0 0 .006.007c5.21201 5.48389 9.21976 12.59734 15.37058 17.50881a.95591296 1.030879 0 0 0 1.31408-.18247c1.01363-1.35769 1.01611-3.07336.43802-4.49871-.57807-1.42536-1.62172-2.72789-2.7863-4.01098-2.32916-2.56618-5.20149-5.16882-5.96638-6.8555a.95591296 1.030879 0 0 0 -.23246-.32572c-2.60362-2.43238-5.2257-6.13285-8.00629-9.46639-2.78058-3.33353-5.7351-6.36673-9.29508-7.26137zm-48.88569 2.90905c4.5233 1.28338 15.28175 11.50081 9.98405 14.90161-4.18252-4.59794-8.63599-9.99683-6.60838-.99942 3.16823 3.3237 11.50045 14.49516 2.28692 9.79134-5.5126-11.05222-2.43411 20.1319-8.1586 7.15275 1.07039-10.0802.75369-20.4389 1.82544-30.3992l.67057-.44704zm-51.63401-.99047c2.89176-8.03167 8.94168 7.76845 12.21929 5.81162 2.27012-6.09556 12.17843-11.92063 10.34727-.82428-2.29598 6.95483 3.23244 21.06925-5.0692 23.02758-.37249-6.96237.6608-15.02749.45906-22.35236-3.22382 4.99649-9.12808 10.48795-11.92126 1.34118-3.65741-1.36783-.40456 11.20965-1.11759 15.08784.34225 7.61722-6.59212 4.30231-4.22017-1.82486-.29772-6.75321-.37431-13.51517-.6974-20.26672zm-17.583827 22.82127c-5.587595-4.33959-2.494233 11.55938 3.157067 3.77435 2.3023-.69692-3.088071-2.71249-3.157067-3.77435zm-.745084-16.01919c-3.106163-2.24063-3.293756 10.73953.973261 5.26564 6.323355-2.24944 1.690405-3.33324-.973261-5.26564zm-5.811608-5.43908c4.31477-2.39439 13.708471 4.53381 15.944683 8.94095-2.554837 4.51937-14.410116 6.5576-4.288863 11.14824 11.748439 6.17491-5.713773 13.18097-11.04113 12.61976-1.52883-9.83553-.797053-20.0297-.894059-30.00803l.116416-1.70903.162988-.99189z" fill="#b7af93" filter="url(#i)" opacity=".5"/></g><g stroke-width="2.5179" transform="matrix(.39715757 0 0 .39715757 -252.71787 257.14456)"><path d="m971.39575 308.5923-28.57739 85.77293-9.39063 4.73243-127.32238 63.22634-116.55-33.8634-16.84637 11.25424 2.82715 18.66895 10.32129 45.91113 92.16797 28.64258 15.03711 2.31445 164.68359-65.86718 15.5625-14.00977 32.96011-95.81447 41.8722-121.68947-3.0459-40.63086-13.1166-23.4108-20.4897 6.89703-32.49875 105.73127z" fill="#b7af93"/><path d="m1029.3333 191.5068-1.629 4.698-35.38265 103.2174 10.77305 20.196 28.8837-83.9547-2.646-44.1558zm-44.49245 129.6576-27.648 80.6058.9855 48.402 37.4328-108.8424-10.7712-20.1654zm-44.2125 92.2212-135.9855 68.5404-2.3904 1.2096-5.3721 33.3576 144.648-57.8547-.9-45.252zm-250.173 33.102 9.198 45.3393 80.1837 24.9183 6.1875-38.4192-95.5692-31.8375z" fill="url(#d)" stroke-width="32.0001"/><path d="m799.91992 73.236328v12.669922l-2.08789-1.982422-106.35156 50.412112 34.16601 94.62109-39.93359 29.22266-13.00391 181.53515 133.41211 44.42969-1.02734-3.39648 150.09961-75.60743 35.96484-104.8496h.002l40.8182-126.46162z" fill="#b7af93"/><path d="m815.92075 99.3144 10.098 33.4404-31.248-29.673-83.3058 39.4884 33.3 92.223-43.623 31.9212-11.5866 161.7462 92.3067 30.7404-8.4375-27.9 32.6808 31.023 136.0692-68.5413 29.2212-85.1904-56.025-9.0576 63.6192-13.077 33.34225-104.66347-196.41145-82.48253z" fill="url(#o)" stroke-width="32.0001"/><path d="m864.45703 174.16016c-12.82964 1.38059-25.67488 4.23399-37.8315 8.49629-6.79151 8.80414-.79104 21.60506 9.04844 25.20526 19.38957 12.9082 39.21535 25.16117 58.58237 38.09327 3.63486 3.69294 18.62084 7.86564 20.0582-3.04269 6.58848-10.8867-5.35236-17.18736-12.95296-22.12257-11.79502-7.92639-24.00472-15.20657-35.91805-22.94967 12.87632.47971 19.26709-16.72586 6.86331-22.73107-2.47-1.01747-5.22663-1.00331-7.84981-.94882zm-18.06641 61.6289c-4.0705-.4969-13.30223 3.31462-11.55942 2.54661-8.60181-.54027-17.2042 2.2282-27.90818 2.55592-7.57837 2.50183-20.69678-.0876-23.61832 9.27248-2.10644 9.9095 2.42257 19.72873 4.15116 29.40993 3.04631 10.69751 4.19423 22.42277 10.47005 31.82662 8.82084 7.68683 19.80267 1.10216 29.92585.76487 7.91467-1.81275 16.3493-3.93146 15.23997 7.01312 2.00517 10.44003.52123 22.00587 5.97024 31.47658 5.85572 6.29732 18.15744 1.14081 20.57716-5.80724.079-9.40706-1.3701-20.4731-2.31326-28.49536-4.07912-9.42149 1.55791-11.35034 10.16023-10.95664 9.4039-1.83914 21.24629-1.55771 27.72916-9.68484 6.37074-9.03895-2.90911-20.43671-13.21087-16.88642-9.38963-1.19484-22.17929 5.57201-28.64262 1.48997-.57168-6.00889-.88518-12.26156-1.49865-18.57254-1.14722-9.91294-1.65584-26.42035-15.4725-25.95306zm-9.60156 26.33789c-.81924 7.36548 6.00444 19.7629.22372 23.71899-6.87411-1.53599-18.95596 7.63345-22.59463.21573-.35379-7.39818-11.39933-23.4633 2.46078-21.21825 6.67722-.59451 13.28795-1.72081 19.91013-2.71647zm-66.06054 62.67578c-12.82895 1.38286-25.67365 4.23697-37.83049 8.49613-6.78982 8.80229-.79412 21.60981 9.04909 25.20583 19.38928 12.90766 39.21378 25.1616 58.58069 38.09287 3.63392 3.69216 18.62392 7.86713 20.05822-3.04268 6.58874-10.88655-5.35247-17.18741-12.95295-22.12257-11.79503-7.92639-24.00472-15.20658-35.91806-22.94967 12.8757.48007 19.26859-16.72706 6.86331-22.73105-2.46999-1.01737-5.22655-1.00353-7.84981-.94886z" fill="#b7af93" filter="url(#i)" opacity=".5"/><path d="m859.42034 169.12656c-12.82963 1.38059-25.67571 4.23067-37.83232 8.49297-6.7915 8.80413-1.92188 22.7639 7.91759 26.3641.10041.06684.20441.12996.3049.19671-5.97059-5.47558-8.46437-14.68336-3.18671-21.52503 12.15661-4.26229 25.00269-7.11238 37.83232-8.49297 2.62318-.05449 5.37874-.07326 7.84874.94421 2.74833 1.33059 4.53008 3.22949 5.5669 5.34561-.00428-.03347.00971-.06484.00492-.09836-.47658-3.33575-6.56597-8.3263-10.6076-10.28303-2.47-1.01747-5.22557-.9987-7.84874-.94421zm8.65525 28.53775c-.84455.13395-1.71663.21111-2.631.17704 11.91332 7.74309 24.1243 15.01988 35.91931 22.94626 5.70044 3.70141 13.83782 8.17181 14.77294 14.76803.9899-8.96877-13.11308-15.45621-19.80873-19.80381-9.28327-6.23847-18.80217-12.1089-28.25252-18.08752zm48.06125 37.89133c.31171 2.19874-.17737 4.63529-1.82449 7.35697-.00257.01951-.00717.03468-.00983.05409.79884-.89971 1.35014-2.03175 1.53926-3.46702.78445-1.29621.16127-2.73186.29506-3.94404zm-80.76926-27.84435c1.06126.67898 2.12354 1.35502 3.19162 2.02612-.95688-.63267-1.93185-1.23798-2.88672-1.87367-.10728-.03925-.19854-.11102-.3049-.15245zm5.98491 23.0397c-4.0705-.4969-13.29954 3.31541-11.55673 2.5474-8.6018-.54027-17.20431 2.22951-27.90828 2.55723-7.57836 2.50183-20.69846-.08517-23.62 9.2749-2.10643 9.90949 2.422 19.727 4.15059 29.40819 3.04631 10.6975 4.1941 22.42389 10.46991 31.82773 1.80919 2.14277 3.45676 3.73672 4.99644 4.96694-6.23694-9.39257-7.39144-21.0866-10.43056-31.75888-1.72859-9.68119-6.25703-19.49871-4.15059-29.4082 2.92154-9.36007 16.04163-6.77306 23.61999-9.27489 10.70397-.32772 19.30648-3.09751 27.90828-2.55724-1.74281.76801 7.48624-3.04429 11.55674-2.5474 4.92652-.16661 8.1131 1.88084 10.28795 4.96202-.07406-.12953-.10494-.25301-.18688-.38358-2.1715-3.46024-9.86023-9.79268-15.13686-9.61422zm-4.56368 31.3753c-1.53763.23119-3.07548.46626-4.61286.70324 1.2526 6.90285 4.25245 14.9345-.19671 17.97932-4.99146-1.11532-12.69796 3.35392-17.95473 3.07852.16877.75584.36268 1.53094.39342 2.17365 3.63866 7.41771 15.72299-1.75237 22.5971-.21638 5.78071-3.95609-1.04546-16.35288-.22622-23.71835zm52.92983 11.14364c-.95096.04871-1.87359.21958-2.74902.52128-7.46734-.95022-17.03913 3.05527-23.91506 2.7146.10038 1.25184.1876 2.57836.3049 3.81127 6.46332 4.08203 19.25632-2.68492 28.64594-1.49008 5.7224-1.97211 11.02297.72501 13.60744 5.01119-.01254-.0876.00742-.16528-.01475-.25572-1.27971-5.22004-9.22267-10.65354-15.87945-10.31254zm-51.6758 37.55692c.11784.94874.14547 2.02495.01475 3.31457 2.00517 10.44002.52116 22.00787 5.97016 31.47857 1.65128 1.7758 2.72548 4.86494 5.03579 5.03579-5.44901-9.4707-3.965-21.03856-5.97016-31.47858.60135-5.93286-1.64595-7.96525-5.05054-8.35035zm-40.03055.63439c.90905.71679 1.77141 1.27367 2.60149 1.72122-.88079-.48413-1.75735-.99564-2.60149-1.72122zm-32.31951 8.3061c-12.82894 1.38285-25.67549 4.23873-37.83232 8.49788-5.86896 7.6085-2.16272 18.17852 5.30134 23.23641-3.70569-5.43433-4.57476-12.61418-.26555-18.20062 12.15682-4.25916 25.00337-7.11503 37.83231-8.49789 2.62326-.05467 5.37876-.06824 7.84874.94913 2.74223 1.3272 4.51895 3.21592 5.55707 5.32593.00037-.02651.0147-.05217.01475-.07868.008-3.90126-5.92942-8.01886-10.6076-10.28304-2.46999-1.01737-5.22549-1.00379-7.84874-.94912zm8.66017 28.53775c-.84759.1351-1.71797.21126-2.63592.17704 11.91333 7.74308 24.11937 15.02479 35.91439 22.95118 5.39549 3.50341 12.85976 7.73299 14.44838 13.7648.01711-.07403.07586-.12803.07376-.21146-.18047-7.16671-13.56565-14.69821-19.55792-18.58913-9.28164-6.23736-18.79398-12.11492-28.24269-18.09243z" fill="#b7af93" filter="url(#m)"/><path d="m878.83073 185.98463c-.47553 6.15269-5.72395 12.14218-13.38614 11.85672 5.01631 3.26037 10.09313 6.42537 15.16145 9.60438 4.88059-6.52333 5.52684-17.02035-1.77531-21.4611zm-49.69887 17.63017c-1.50731 7.85236 3.76498 16.49815 11.5764 19.3563 19.38955 12.90818 39.21826 25.16087 58.58526 38.09295 3.63486 3.69294 18.61726 7.86423 20.05462-3.04409 3.91043-6.46154.91573-12.94243-3.71783-18.20062-.31115.99844-.66035 2.00665-1.31796 3.09327-1.43735 10.90832-16.41976 6.73703-20.05461 3.04409-19.367-12.93209-39.19571-25.18477-58.58526-38.09296-2.472-.90449-4.69521-2.39227-6.54062-4.24894zm31.97527 51.55286c.28535 2.29696.53017 4.61221.75733 6.57504.61347 6.31098.92332 12.56549 1.495 18.57438 1.11555.70455 2.47207 1.00078 3.91454 1.15567-.12413-1.5606-.22107-3.052-.37375-4.62269-.77187-6.66959-1.35167-16.22093-5.79312-21.6824zm-24.31832 6.95863c-6.62217.99566-13.23479 2.12501-19.912 2.71952-13.8601-2.24505-2.81267 13.81704-2.45888 21.21521.27547.56158.68606.86091 1.0524 1.24419-1.18527-4.83215-.6567-8.50193 6.44226-7.35205 5.77156-.51387 11.49453-1.43063 17.21707-2.31134-.67719-5.08447-2.82463-11.16601-2.34085-15.51553zm70.2551 28.84265c-.24809 1.5946-.74174 3.19751-1.82941 4.74072-6.48286 8.12712-18.32243 7.84885-27.72632 9.68799-8.60231-.3937-14.23921 1.53528-10.16009 10.95676.94316 8.02225 2.39035 19.08644 2.31135 28.49349-2.41972 6.94805-14.72019 12.10519-20.5759 5.80788-.32646-.56741-.55709-1.16405-.83602-1.74581-.00279 2.12341.14324 4.31395.83602 6.78159.64108 2.28352 3.82121 7.96057 5.03578 10.07157 5.85571 6.29731 18.15618 1.14017 20.5759-5.80787.079-9.40705-1.36819-20.47124-2.31134-28.49349-4.07912-9.42148 1.55777-11.35047 10.16008-10.95677 9.40389-1.83914 21.24346-1.56086 27.72633-9.68798 1.74839-7.1529-.07943-14.64274-3.20638-19.84808zm-111.45116 16.35155c1.61433 6.75569 3.50976 13.4096 7.3668 19.18909 8.82083 7.68683 19.80631 1.09955 29.92948.76226 3.99192-.9143 8.10467-1.89451 11.06987-1.24912-.21173-2.3073-.43613-4.60984-.86552-6.84552 1.10933-10.94456-7.32547-8.82547-15.24014-7.01272-10.12317.33729-21.10864 6.92457-29.92947-.76225-.87783-1.31536-1.63462-2.68471-2.33102-4.08174zm-10.35188 28.29678c.07864 6.49477-5.43722 13.16637-13.52384 12.86486 4.84985 3.15217 9.75481 6.21116 14.65492 9.28473 4.27902-6.57934 4.73451-16.9953-1.13108-22.14959zm-52.46265 15.28931c-.90377.36256-1.62285.84184-1.59335 1.98186.17904 6.92029 8.99462 18.23875 15.79584 20.72343 19.38926 12.90765 39.21836 25.1617 58.58525 38.09296 3.63392 3.69216 18.62032 7.86571 20.05462-3.04409 3.88443-6.41824.84314-14.748-3.46702-18.63831-.01708-.01542-.03699-.01434-.05409-.0295-.30239 1.1354-.75708 2.30869-1.51467 3.56045-1.4343 10.9098-16.42071 6.73625-20.05462 3.0441-19.36689-12.93126-39.196-25.18531-58.58526-38.09296-3.82246-1.39646-7.02811-4.19722-9.1667-7.59794z" fill="#edebde" filter="url(#p)"/></g></svg>