<svg height="500" viewBox="0 0 500 500" width="500" xmlns="http://www.w3.org/2000/svg" xmlns:xlink="http://www.w3.org/1999/xlink"><linearGradient id="a" gradientTransform="matrix(3.55578 0 0 3.562357 413.36535 93.356109)" gradientUnits="userSpaceOnUse" spreadMethod="reflect" x1="-81.997307" x2="29.840145" y1="48.709511" y2="97.267273"><stop offset="0" stop-color="#e3e1db"/><stop offset=".51123601" stop-color="#c1c0be"/><stop offset="1" stop-color="#a2a19a"/></linearGradient><mask id="b" maskUnits="userSpaceOnUse"><path d="m-13.229159-13.22917h158.749999v158.75002h-158.749999z" fill="url(#c)" filter="url(#d)" stroke-width="11.83"/></mask><radialGradient id="c" cx="66.145844" cy="66.145836" gradientTransform="matrix(-1.0000001 .00000145 0 -1 132.29169 132.29157)" gradientUnits="userSpaceOnUse" r="66.145836"><stop offset="0" stop-color="#fff"/><stop offset=".49999994" stop-color="#fff"/><stop offset=".74999988" stop-color="#808080"/><stop offset=".87499994" stop-color="#404040"/><stop offset="1"/></radialGradient><filter id="d" color-interpolation-filters="sRGB" height="1.0135" width="1.0135" x="-.00675" y="-.00675"><feGaussianBlur stdDeviation=".44648439"/></filter><radialGradient id="e" cx="703.05621" cy="1070.2185" gradientTransform="matrix(.12107523 -.12107523 .05841622 .05841622 -57.692804 112.54712)" gradientUnits="userSpaceOnUse" r="1011.8609" spreadMethod="pad"><stop offset="0" stop-color="#fff"/><stop offset=".08962709" stop-color="#fff" stop-opacity=".9104"/><stop offset="1" stop-color="#fff" stop-opacity="0"/></radialGradient><radialGradient id="f" cx="703.05621" cy="255.40021" gradientTransform="matrix(.12107523 -.12107523 .05841622 .05841622 -57.692804 112.54712)" gradientUnits="userSpaceOnUse" r="1011.8609"><stop offset="0" stop-color="#ffc6b3"/><stop offset=".08962709" stop-color="#ffc6b3" stop-opacity=".9104"/><stop offset="1" stop-color="#ffc6b3" stop-opacity="0"/></radialGradient><radialGradient id="g" cx="4601.1221" cy="4277.6772" gradientTransform="matrix(0 1 -1 0 5224.5762 -3824.5764)" gradientUnits="userSpaceOnUse" r="11.2507" xlink:href="#h"/><linearGradient id="h"><stop offset="0" stop-color="#fff"/><stop offset=".1375" stop-color="#fff" stop-opacity=".8625"/><stop offset="1" stop-color="#fff" stop-opacity="0"/></linearGradient><radialGradient id="i" cx="4694.3481" cy="4395.814" gradientTransform="matrix(0 1 -1 0 5224.5762 -3824.5764)" gradientUnits="userSpaceOnUse" r="11.2507" xlink:href="#h"/><radialGradient id="j" cx="4845.7568" cy="4885.4878" gradientTransform="matrix(0 1 -1 0 5224.5762 -3824.5764)" gradientUnits="userSpaceOnUse" r="11.2507" xlink:href="#h"/><radialGradient id="k" cx="4996.8203" cy="4201.0781" gradientTransform="matrix(0 1 -1 0 5224.5762 -3824.5764)" gradientUnits="userSpaceOnUse" r="11.2507" xlink:href="#h"/><radialGradient id="l" cx="4264.2671" cy="4804.9849" gradientTransform="matrix(0 1 -1 0 5224.5762 -3824.5764)" gradientUnits="userSpaceOnUse" r="11.2507" xlink:href="#h"/><radialGradient id="m" cx="4253.0161" cy="4349.7529" gradientTransform="matrix(0 1 -1 0 5224.5762 -3824.5764)" gradientUnits="userSpaceOnUse" r="11.2507" xlink:href="#h"/><radialGradient id="n" cx="4291.9346" cy="4509.8506" gradientTransform="matrix(0 1 -1 0 5224.5762 -3824.5764)" gradientUnits="userSpaceOnUse" r="11.2507" xlink:href="#h"/><radialGradient id="o" cx="4178.7915" cy="4193.6758" gradientTransform="matrix(0 1 -1 0 5224.5762 -3824.5764)" gradientUnits="userSpaceOnUse" r="11.2507" xlink:href="#h"/><radialGradient id="p" cx="4508.9131" cy="4184.4229" gradientTransform="matrix(0 1 -1 0 5224.5762 -3824.5764)" gradientUnits="userSpaceOnUse" r="11.2507" xlink:href="#h"/><radialGradient id="q" cx="4169.5386" cy="4599.0166" gradientTransform="matrix(0 1 -1 0 5224.5762 -3824.5764)" gradientUnits="userSpaceOnUse" r="11.2507" xlink:href="#h"/><radialGradient id="r" cx="4024.0554" cy="4671.3345" gradientTransform="matrix(0 1 -1 0 5224.5762 -3824.5764)" gradientUnits="userSpaceOnUse" r="11.2507" xlink:href="#h"/><radialGradient id="s" cx="4381.2778" cy="4473.0386" gradientTransform="matrix(0 1 -1 0 5224.5762 -3824.5764)" gradientUnits="userSpaceOnUse" r="5.6228" xlink:href="#h"/><radialGradient id="t" cx="4207.3452" cy="4447.1753" gradientTransform="matrix(0 1 -1 0 5224.5762 -3824.5764)" gradientUnits="userSpaceOnUse" r="5.6228" xlink:href="#h"/><radialGradient id="u" cx="4156.0269" cy="4803.9863" gradientTransform="matrix(0 1 -1 0 5224.5762 -3824.5764)" gradientUnits="userSpaceOnUse" r="5.6228" xlink:href="#h"/><radialGradient id="v" cx="4201.7222" cy="5018.0508" gradientTransform="matrix(0 1 -1 0 5224.5762 -3824.5764)" gradientUnits="userSpaceOnUse" r="5.6228" xlink:href="#h"/><radialGradient id="w" cx="4756.5977" cy="4610.2671" gradientTransform="matrix(0 1 -1 0 5224.5762 -3824.5764)" gradientUnits="userSpaceOnUse" r="5.6228" xlink:href="#h"/><radialGradient id="x" cx="4724.8408" cy="4498.3604" gradientTransform="matrix(0 1 -1 0 5224.5762 -3824.5764)" gradientUnits="userSpaceOnUse" r="5.6228" xlink:href="#h"/><radialGradient id="y" cx="4755.5991" cy="4916.6094" gradientTransform="matrix(0 1 -1 0 5224.5762 -3824.5764)" gradientUnits="userSpaceOnUse" r="5.6228" xlink:href="#h"/><radialGradient id="z" cx="4815.3223" cy="4406.499" gradientTransform="matrix(0 1 -1 0 5224.5762 -3824.5764)" gradientUnits="userSpaceOnUse" r="5.6228" xlink:href="#h"/><radialGradient id="A" cx="4840.1343" cy="4528.7949" gradientTransform="matrix(0 1 -1 0 5224.5762 -3824.5764)" gradientUnits="userSpaceOnUse" r="5.6228" xlink:href="#h"/><radialGradient id="B" cx="4994.8228" cy="4675.311" gradientTransform="matrix(0 1 -1 0 5224.5762 -3824.5764)" gradientUnits="userSpaceOnUse" r="5.6228" xlink:href="#h"/><radialGradient id="C" cx="4625.9868" cy="4580.4009" gradientTransform="matrix(0 1 -1 0 5224.5762 -3824.5764)" gradientUnits="userSpaceOnUse" r="5.6228" xlink:href="#h"/><radialGradient id="D" cx="4832.085" cy="4231.3418" gradientTransform="matrix(0 1 -1 0 5224.5762 -3824.5764)" gradientUnits="userSpaceOnUse" r="5.6228" xlink:href="#h"/><radialGradient id="E" cx="4920.2227" cy="4281.3076" gradientTransform="matrix(0 1 -1 0 5224.5762 -3824.5764)" gradientUnits="userSpaceOnUse" r="5.6228" xlink:href="#h"/><radialGradient id="F" cx="4483.835" cy="4313.1982" gradientTransform="matrix(0 1 -1 0 5224.5762 -3824.5764)" gradientUnits="userSpaceOnUse" r="5.6228" xlink:href="#h"/><radialGradient id="G" cx="4664.439" cy="4695.5273" gradientTransform="matrix(0 1 -1 0 5224.5762 -3824.5764)" gradientUnits="userSpaceOnUse" r="11.2507" xlink:href="#h"/><radialGradient id="H" cx="4894.2646" cy="4681.8555" gradientTransform="matrix(0 1 -1 0 5224.5762 -3824.5764)" gradientUnits="userSpaceOnUse" r="11.2507" xlink:href="#h"/><radialGradient id="I" cx="4985.5698" cy="4361.0039" gradientTransform="matrix(0 1 -1 0 5224.5762 -3824.5764)" gradientUnits="userSpaceOnUse" r="11.2507" xlink:href="#h"/><radialGradient id="J" cx="4713.5898" cy="4089.8687" gradientTransform="matrix(0 1 -1 0 5224.5762 -3824.5764)" gradientUnits="userSpaceOnUse" r="11.2507" xlink:href="#h"/><radialGradient id="K" cx="4757.5957" cy="4804.9849" gradientTransform="matrix(0 1 -1 0 5224.5762 -3824.5764)" gradientUnits="userSpaceOnUse" r="11.2507" xlink:href="#h"/><radialGradient id="L" cx="4433.3354" cy="5016.0532" gradientTransform="matrix(0 1 -1 0 5224.5762 -3824.5764)" gradientUnits="userSpaceOnUse" r="11.2507" xlink:href="#h"/><radialGradient id="M" cx="4371.5723" cy="4725.9341" gradientTransform="matrix(0 1 -1 0 5224.5762 -3824.5764)" gradientUnits="userSpaceOnUse" r="11.2507" xlink:href="#h"/><radialGradient id="N" cx="4510.9111" cy="4743.7231" gradientTransform="matrix(0 1 -1 0 5224.5762 -3824.5764)" gradientUnits="userSpaceOnUse" r="11.2507" xlink:href="#h"/><radialGradient id="O" cx="4269.4331" cy="4686.5615" gradientTransform="matrix(0 1 -1 0 5224.5762 -3824.5764)" gradientUnits="userSpaceOnUse" r="11.2507" xlink:href="#h"/><radialGradient id="P" cx="4072.584" cy="4883.4902" gradientTransform="matrix(0 1 -1 0 5224.5762 -3824.5764)" gradientUnits="userSpaceOnUse" r="11.2507" xlink:href="#h"/><radialGradient id="Q" cx="4484.8335" cy="4664.189" gradientTransform="matrix(0 1 -1 0 5224.5762 -3824.5764)" gradientUnits="userSpaceOnUse" r="7.1455" xlink:href="#h"/><radialGradient id="R" cx="4613.2183" cy="4640.4971" gradientTransform="matrix(0 1 -1 0 5224.5762 -3824.5764)" gradientUnits="userSpaceOnUse" r="7.1455" xlink:href="#h"/><radialGradient id="S" cx="4091.8" cy="4252.5869" gradientTransform="matrix(0 1 -1 0 5224.5762 -3824.5764)" gradientUnits="userSpaceOnUse" r="7.1455" xlink:href="#h"/><radialGradient id="T" cx="4666.4365" cy="4863.9521" gradientTransform="matrix(0 1 -1 0 5224.5762 -3824.5764)" gradientUnits="userSpaceOnUse" r="7.1455" xlink:href="#h"/><radialGradient id="U" cx="4894.2646" cy="4840.1016" gradientTransform="matrix(0 1 -1 0 5224.5762 -3824.5764)" gradientUnits="userSpaceOnUse" r="7.1455" xlink:href="#h"/><radialGradient id="V" cx="4974.3188" cy="4809.6094" gradientTransform="matrix(0 1 -1 0 5224.5762 -3824.5764)" gradientUnits="userSpaceOnUse" r="7.1455" xlink:href="#h"/><radialGradient id="W" cx="4589.1577" cy="4997.6572" gradientTransform="matrix(0 1 -1 0 5224.5762 -3824.5764)" gradientUnits="userSpaceOnUse" r="7.1455" xlink:href="#h"/><radialGradient id="X" cx="4065.4385" cy="4519.7837" gradientTransform="matrix(0 1 -1 0 5224.5762 -3824.5764)" gradientUnits="userSpaceOnUse" r="7.1455" xlink:href="#h"/><radialGradient id="Y" cx="4347.4258" cy="4820.2441" gradientTransform="matrix(0 1 -1 0 5224.5762 -3824.5764)" gradientUnits="userSpaceOnUse" r="7.1455" xlink:href="#h"/><radialGradient id="Z" cx="4533.5781" cy="4593.1694" gradientTransform="matrix(0 1 -1 0 5224.5762 -3824.5764)" gradientUnits="userSpaceOnUse" r="7.1455" xlink:href="#h"/><radialGradient id="aa" cx="4448.2217" cy="4220.0913" gradientTransform="matrix(0 1 -1 0 5224.5762 -3824.5764)" gradientUnits="userSpaceOnUse" r="11.2507" xlink:href="#h"/><radialGradient id="ab" cx="4908.2451" cy="4929.8579" gradientTransform="matrix(0 1 -1 0 5224.5762 -3824.5764)" gradientUnits="userSpaceOnUse" r="11.2507" xlink:href="#h"/><radialGradient id="ac" cx="4987.5674" cy="5014.0552" gradientTransform="matrix(0 1 -1 0 5224.5762 -3824.5764)" gradientUnits="userSpaceOnUse" r="11.2507" xlink:href="#h"/><radialGradient id="ad" cx="3991.5649" cy="4813.0986" gradientTransform="matrix(0 1 -1 0 5224.5762 -3824.5764)" gradientUnits="userSpaceOnUse" r="11.2507" xlink:href="#h"/><radialGradient id="ae" cx="4012.8047" cy="4351.751" gradientTransform="matrix(0 1 -1 0 5224.5762 -3824.5764)" gradientUnits="userSpaceOnUse" r="11.2507" xlink:href="#h"/><radialGradient id="af" cx="4683.0972" cy="5027.3037" gradientTransform="matrix(0 1 -1 0 5224.5762 -3824.5764)" gradientUnits="userSpaceOnUse" r="11.2507" xlink:href="#h"/><radialGradient id="ag" cx="4367.481" cy="4195.6733" gradientTransform="matrix(0 1 -1 0 5224.5762 -3824.5764)" gradientUnits="userSpaceOnUse" r="11.2507" xlink:href="#h"/><radialGradient id="ah" cx="4526.4326" cy="4089.8687" gradientTransform="matrix(0 1 -1 0 5224.5762 -3824.5764)" gradientUnits="userSpaceOnUse" r="11.2507" xlink:href="#h"/><radialGradient id="ai" cx="4261.9028" cy="4242.5928" gradientTransform="matrix(0 1 -1 0 5224.5762 -3824.5764)" gradientUnits="userSpaceOnUse" r="11.2507" xlink:href="#h"/><radialGradient id="aj" cx="16633.223" cy="4517.6021" gradientTransform="matrix(0 .2895 -1 0 5224.5762 -4086.6375)" gradientUnits="userSpaceOnUse" r="19.241899" xlink:href="#h"/><radialGradient id="ak" cx="-15595.086" cy="5031.6465" gradientTransform="matrix(.2895 0 0 1 5221.3418 -4303.4033)" gradientUnits="userSpaceOnUse" r="19.241899" xlink:href="#h"/><radialGradient id="al" cx="16323.169" cy="4900.5503" gradientTransform="matrix(0 .2895 -1 0 5224.5762 -4086.6375)" gradientUnits="userSpaceOnUse" r="29.7325" xlink:href="#h"/><radialGradient id="am" cx="-16917.998" cy="4941.8945" gradientTransform="matrix(.2895 0 0 1 5221.3418 -4303.4033)" gradientUnits="userSpaceOnUse" r="29.7325" xlink:href="#h"/><radialGradient id="an" cx="17536.6" cy="5029.3018" gradientTransform="matrix(0 .2895 -1 0 5224.5762 -4086.6375)" gradientUnits="userSpaceOnUse" r="29.7325" xlink:href="#h"/><radialGradient id="ao" cx="-17362.775" cy="5293.1509" gradientTransform="matrix(.2895 0 0 1 5221.3418 -4303.4033)" gradientUnits="userSpaceOnUse" r="29.7325" xlink:href="#h"/><radialGradient id="ap" cx="15154.966" cy="4975.0698" gradientTransform="matrix(0 .2895 -1 0 5224.5762 -4086.6375)" gradientUnits="userSpaceOnUse" r="29.7325" xlink:href="#h"/><radialGradient id="aq" cx="-17175.43" cy="4603.7305" gradientTransform="matrix(.2895 0 0 1 5221.3418 -4303.4033)" gradientUnits="userSpaceOnUse" r="29.7325" xlink:href="#h"/><radialGradient id="ar" cx="16788.486" cy="4380.1377" gradientTransform="matrix(0 .2895 -1 0 5224.5762 -4086.6375)" gradientUnits="userSpaceOnUse" r="29.7325" xlink:href="#h"/><radialGradient id="as" cx="-15120.208" cy="5076.5913" gradientTransform="matrix(.2895 0 0 1 5221.3418 -4303.4033)" gradientUnits="userSpaceOnUse" r="29.7325" xlink:href="#h"/><radialGradient id="at" cx="15052.254" cy="4385.373" gradientTransform="matrix(0 .2895 -1 0 5224.5762 -4086.6375)" gradientUnits="userSpaceOnUse" r="29.7325" xlink:href="#h"/><radialGradient id="au" cx="-15138.295" cy="4573.998" gradientTransform="matrix(.2895 0 0 1 5221.3418 -4303.4033)" gradientUnits="userSpaceOnUse" r="29.7325" xlink:href="#h"/><radialGradient id="av" cx="16060.047" cy="4376.7666" gradientTransform="matrix(0 .2895 -1 0 5224.5762 -4086.6375)" gradientUnits="userSpaceOnUse" r="29.7325" xlink:href="#h"/><radialGradient id="aw" cx="-15108.562" cy="4865.7275" gradientTransform="matrix(.2895 0 0 1 5221.3418 -4303.4033)" gradientUnits="userSpaceOnUse" r="29.7325" xlink:href="#h"/><radialGradient id="ax" cx="15866.068" cy="4081.2617" gradientTransform="matrix(0 .2895 -1 0 5224.5762 -4086.6375)" gradientUnits="userSpaceOnUse" r="29.7325" xlink:href="#h"/><radialGradient id="ay" cx="-14087.729" cy="4809.5757" gradientTransform="matrix(.2895 0 0 1 5221.3418 -4303.4033)" gradientUnits="userSpaceOnUse" r="29.7325" xlink:href="#h"/><radialGradient id="az" cx="17890.787" cy="4106.2778" gradientTransform="matrix(0 .2895 -1 0 5224.5762 -4086.6375)" gradientUnits="userSpaceOnUse" r="29.7325" xlink:href="#h"/><radialGradient id="aA" cx="-14174.147" cy="5395.6787" gradientTransform="matrix(.2895 0 0 1 5221.3418 -4303.4033)" gradientUnits="userSpaceOnUse" r="29.7325" xlink:href="#h"/><radialGradient id="aB" cx="15420.522" cy="4902.7319" gradientTransform="matrix(0 .2895 -1 0 5224.5762 -4086.6375)" gradientUnits="userSpaceOnUse" r="19.241899" xlink:href="#h"/><radialGradient id="aC" cx="-16925.533" cy="4680.6021" gradientTransform="matrix(.2895 0 0 1 5221.3418 -4303.4033)" gradientUnits="userSpaceOnUse" r="19.241899" xlink:href="#h"/><radialGradient id="aD" cx="17559.291" cy="4676.2856" gradientTransform="matrix(0 .2895 -1 0 5224.5762 -4086.6375)" gradientUnits="userSpaceOnUse" r="19.241899" xlink:href="#h"/><radialGradient id="aE" cx="-16143.265" cy="5299.7192" gradientTransform="matrix(.2895 0 0 1 5221.3418 -4303.4033)" gradientUnits="userSpaceOnUse" r="19.241899" xlink:href="#h"/><radialGradient id="aF" cx="16866.557" cy="4774.4922" gradientTransform="matrix(0 .2895 -1 0 5224.5762 -4086.6375)" gradientUnits="userSpaceOnUse" r="19.241899" xlink:href="#h"/><radialGradient id="aG" cx="-16482.523" cy="5099.1909" gradientTransform="matrix(.2895 0 0 1 5221.3418 -4303.4033)" gradientUnits="userSpaceOnUse" r="19.241899" xlink:href="#h"/><radialGradient id="aH" cx="16071.692" cy="4574.7783" gradientTransform="matrix(0 .2895 -1 0 5224.5762 -4086.6375)" gradientUnits="userSpaceOnUse" r="19.241899" xlink:href="#h"/><radialGradient id="aI" cx="-15792.604" cy="4869.0986" gradientTransform="matrix(.2895 0 0 1 5221.3418 -4303.4033)" gradientUnits="userSpaceOnUse" r="19.241899" xlink:href="#h"/><radialGradient id="aJ" cx="16699.693" cy="4871.0977" gradientTransform="matrix(0 .2895 -1 0 5224.5762 -4086.6375)" gradientUnits="userSpaceOnUse" r="19.241899" xlink:href="#h"/><radialGradient id="aK" cx="-16816.252" cy="5050.8887" gradientTransform="matrix(.2895 0 0 1 5221.3418 -4303.4033)" gradientUnits="userSpaceOnUse" r="19.241899" xlink:href="#h"/><radialGradient id="aL" cx="18061.07" cy="4512.0322" gradientTransform="matrix(0 .2895 -1 0 5224.5762 -4086.6375)" gradientUnits="userSpaceOnUse" r="19.241899" xlink:href="#h"/><radialGradient id="aM" cx="-15575.844" cy="5444.9717" gradientTransform="matrix(.2895 0 0 1 5221.3418 -4303.4033)" gradientUnits="userSpaceOnUse" r="19.241899" xlink:href="#h"/><radialGradient id="aN" cx="17188.609" cy="4244.9609" gradientTransform="matrix(0 .2895 -1 0 5224.5762 -4086.6375)" gradientUnits="userSpaceOnUse" r="19.241899" xlink:href="#h"/><radialGradient id="aO" cx="-14653.234" cy="5192.417" gradientTransform="matrix(.2895 0 0 1 5221.3418 -4303.4033)" gradientUnits="userSpaceOnUse" r="19.241899" xlink:href="#h"/><radialGradient id="aP" cx="15143.32" cy="4682.5854" gradientTransform="matrix(0 .2895 -1 0 5224.5762 -4086.6375)" gradientUnits="userSpaceOnUse" r="19.241899" xlink:href="#h"/><radialGradient id="aQ" cx="-16165.027" cy="4600.3594" gradientTransform="matrix(.2895 0 0 1 5221.3418 -4303.4033)" gradientUnits="userSpaceOnUse" r="19.241899" xlink:href="#h"/><radialGradient id="aR" cx="17652.088" cy="4368.1597" gradientTransform="matrix(0 .2895 -1 0 5224.5762 -4086.6375)" gradientUnits="userSpaceOnUse" r="19.241899" xlink:href="#h"/><radialGradient id="aS" cx="-15078.83" cy="5326.5815" gradientTransform="matrix(.2895 0 0 1 5221.3418 -4303.4033)" gradientUnits="userSpaceOnUse" r="19.241899" xlink:href="#h"/><radialGradient id="aT" cx="3957.2905" cy="4201.0781" gradientTransform="matrix(0 1 -1 0 5224.5762 -3824.5764)" gradientUnits="userSpaceOnUse" r="11.2507" xlink:href="#h"/><radialGradient id="aU" cx="3955.2927" cy="4675.311" gradientTransform="matrix(0 1 -1 0 5224.5762 -3824.5764)" gradientUnits="userSpaceOnUse" r="5.6228" xlink:href="#h"/><radialGradient id="aV" cx="3880.6929" cy="4281.3076" gradientTransform="matrix(0 1 -1 0 5224.5762 -3824.5764)" gradientUnits="userSpaceOnUse" r="5.6228" xlink:href="#h"/><radialGradient id="aW" cx="3946.0398" cy="4361.0039" gradientTransform="matrix(0 1 -1 0 5224.5762 -3824.5764)" gradientUnits="userSpaceOnUse" r="11.2507" xlink:href="#h"/><radialGradient id="aX" cx="14469.968" cy="4512.0322" gradientTransform="matrix(0 .2895 -1 0 5224.5762 -4086.6375)" gradientUnits="userSpaceOnUse" r="19.241899" xlink:href="#h"/><radialGradient id="aY" cx="-15575.844" cy="4405.4414" gradientTransform="matrix(.2895 0 0 1 5221.3418 -4303.4033)" gradientUnits="userSpaceOnUse" r="19.241899" xlink:href="#h"/><radialGradient id="aZ" cx="16783.117" cy="4155.2524" gradientTransform="matrix(0 .2895 -1 0 5224.5762 -4086.6375)" gradientUnits="userSpaceOnUse" r="19.241899" xlink:href="#h"/><radialGradient id="a0" cx="-14343.332" cy="5075.0371" gradientTransform="matrix(.2895 0 0 1 5221.3418 -4303.4033)" gradientUnits="userSpaceOnUse" r="19.241899" xlink:href="#h"/><radialGradient id="a1" cx="15184.698" cy="4089.8687" gradientTransform="matrix(0 .2895 -1 0 5224.5762 -4086.6375)" gradientUnits="userSpaceOnUse" r="19.241899" xlink:href="#h"/><radialGradient id="a2" cx="-14117.461" cy="4612.3369" gradientTransform="matrix(.2895 0 0 1 5221.3418 -4303.4033)" gradientUnits="userSpaceOnUse" r="19.241899" xlink:href="#h"/><radialGradient id="a3" cx="14799.68" cy="4114.8848" gradientTransform="matrix(0 .2895 -1 0 5224.5762 -4086.6375)" gradientUnits="userSpaceOnUse" r="19.241899" xlink:href="#h"/><radialGradient id="a4" cx="-14203.88" cy="4500.8843" gradientTransform="matrix(.2895 0 0 1 5221.3418 -4303.4033)" gradientUnits="userSpaceOnUse" r="19.241899" xlink:href="#h"/><radialGradient id="a5" cx="4250.4473" cy="5175.2676" gradientTransform="matrix(0 -1 1 0 -5135.66355 5025.32025)" gradientUnits="userSpaceOnUse" r="11.2507" xlink:href="#h"/><radialGradient id="a6" cx="4163.4556" cy="5234.1792" gradientTransform="matrix(0 -1 1 0 -5135.66355 5025.32025)" gradientUnits="userSpaceOnUse" r="7.1455" xlink:href="#h"/><radialGradient id="a7" cx="4333.5586" cy="5224.1846" gradientTransform="matrix(0 -1 1 0 -5135.66355 5025.32025)" gradientUnits="userSpaceOnUse" r="11.2507" xlink:href="#h"/><radialGradient id="a8" cx="4028.946" cy="5182.6704" gradientTransform="matrix(0 -1 1 0 -5135.66355 5025.32025)" gradientUnits="userSpaceOnUse" r="11.2507" xlink:href="#h"/><radialGradient id="a9" cx="3952.3484" cy="5262.8999" gradientTransform="matrix(0 -1 1 0 -5135.66355 5025.32025)" gradientUnits="userSpaceOnUse" r="5.6228" xlink:href="#h"/><radialGradient id="ba" cx="4358.6768" cy="4918.6069" gradientTransform="matrix(0 1 -1 0 5224.5762 -3824.5764)" gradientUnits="userSpaceOnUse" r="11.2507" xlink:href="#h"/><radialGradient id="bb" cx="5075.5581" cy="4804.9849" gradientTransform="matrix(0 1 -1 0 5224.5762 -3824.5764)" gradientUnits="userSpaceOnUse" r="11.2507" xlink:href="#h"/><radialGradient id="bc" cx="5064.3071" cy="4349.7529" gradientTransform="matrix(0 1 -1 0 5224.5762 -3824.5764)" gradientUnits="userSpaceOnUse" r="11.2507" xlink:href="#h"/><radialGradient id="bd" cx="5103.2256" cy="4509.8506" gradientTransform="matrix(0 1 -1 0 5224.5762 -3824.5764)" gradientUnits="userSpaceOnUse" r="11.2507" xlink:href="#h"/><radialGradient id="be" cx="5192.5688" cy="4473.0386" gradientTransform="matrix(0 1 -1 0 5224.5762 -3824.5764)" gradientUnits="userSpaceOnUse" r="5.6228" xlink:href="#h"/><radialGradient id="bf" cx="5182.8633" cy="4725.9341" gradientTransform="matrix(0 1 -1 0 5224.5762 -3824.5764)" gradientUnits="userSpaceOnUse" r="11.2507" xlink:href="#h"/><radialGradient id="bg" cx="5080.7241" cy="4686.5615" gradientTransform="matrix(0 1 -1 0 5224.5762 -3824.5764)" gradientUnits="userSpaceOnUse" r="11.2507" xlink:href="#h"/><radialGradient id="bh" cx="5158.7168" cy="4820.2441" gradientTransform="matrix(0 1 -1 0 5224.5762 -3824.5764)" gradientUnits="userSpaceOnUse" r="7.1455" xlink:href="#h"/><radialGradient id="bi" cx="5073.1938" cy="4242.5928" gradientTransform="matrix(0 1 -1 0 5224.5762 -3824.5764)" gradientUnits="userSpaceOnUse" r="11.2507" xlink:href="#h"/><radialGradient id="bj" cx="18862.688" cy="4376.7666" gradientTransform="matrix(0 .2895 -1 0 5224.5762 -4086.6375)" gradientUnits="userSpaceOnUse" r="29.7325" xlink:href="#h"/><radialGradient id="bk" cx="-15108.562" cy="5677.0186" gradientTransform="matrix(.2895 0 0 1 5221.3418 -4303.4033)" gradientUnits="userSpaceOnUse" r="29.7325" xlink:href="#h"/><radialGradient id="bl" cx="18223.164" cy="4902.7319" gradientTransform="matrix(0 .2895 -1 0 5224.5762 -4086.6375)" gradientUnits="userSpaceOnUse" r="19.241899" xlink:href="#h"/><radialGradient id="bm" cx="-16925.533" cy="5491.8931" gradientTransform="matrix(.2895 0 0 1 5221.3418 -4303.4033)" gradientUnits="userSpaceOnUse" r="19.241899" xlink:href="#h"/><radialGradient id="bn" cx="18874.334" cy="4574.7783" gradientTransform="matrix(0 .2895 -1 0 5224.5762 -4086.6375)" gradientUnits="userSpaceOnUse" r="19.241899" xlink:href="#h"/><radialGradient id="bo" cx="-15792.604" cy="5680.3896" gradientTransform="matrix(.2895 0 0 1 5221.3418 -4303.4033)" gradientUnits="userSpaceOnUse" r="19.241899" xlink:href="#h"/><radialGradient id="bp" cx="4756.5977" cy="3890.749" gradientTransform="matrix(0 1 -1 0 5224.5762 -3824.5764)" gradientUnits="userSpaceOnUse" r="5.6228" xlink:href="#h"/><radialGradient id="bq" cx="4625.9868" cy="3860.8828" gradientTransform="matrix(0 1 -1 0 5224.5762 -3824.5764)" gradientUnits="userSpaceOnUse" r="5.6228" xlink:href="#h"/><radialGradient id="br" cx="4664.439" cy="3976.0093" gradientTransform="matrix(0 1 -1 0 5224.5762 -3824.5764)" gradientUnits="userSpaceOnUse" r="11.2507" xlink:href="#h"/><radialGradient id="bs" cx="4894.2646" cy="3962.3374" gradientTransform="matrix(0 1 -1 0 5224.5762 -3824.5764)" gradientUnits="userSpaceOnUse" r="11.2507" xlink:href="#h"/><radialGradient id="bt" cx="4371.5723" cy="4006.416" gradientTransform="matrix(0 1 -1 0 5224.5762 -3824.5764)" gradientUnits="userSpaceOnUse" r="11.2507" xlink:href="#h"/><radialGradient id="bu" cx="4510.9111" cy="4024.2048" gradientTransform="matrix(0 1 -1 0 5224.5762 -3824.5764)" gradientUnits="userSpaceOnUse" r="11.2507" xlink:href="#h"/><radialGradient id="bv" cx="4269.4331" cy="3967.0435" gradientTransform="matrix(0 1 -1 0 5224.5762 -3824.5764)" gradientUnits="userSpaceOnUse" r="11.2507" xlink:href="#h"/><radialGradient id="bw" cx="4484.8335" cy="3944.6709" gradientTransform="matrix(0 1 -1 0 5224.5762 -3824.5764)" gradientUnits="userSpaceOnUse" r="7.1455" xlink:href="#h"/><radialGradient id="bx" cx="4613.2183" cy="3920.979" gradientTransform="matrix(0 1 -1 0 5224.5762 -3824.5764)" gradientUnits="userSpaceOnUse" r="7.1455" xlink:href="#h"/><radialGradient id="by" cx="4533.5781" cy="3873.6511" gradientTransform="matrix(0 1 -1 0 5224.5762 -3824.5764)" gradientUnits="userSpaceOnUse" r="7.1455" xlink:href="#h"/><radialGradient id="bz" cx="17559.291" cy="3956.7673" gradientTransform="matrix(0 .2895 -1 0 5224.5762 -4086.6375)" gradientUnits="userSpaceOnUse" r="19.241899" xlink:href="#h"/><radialGradient id="bA" cx="-13657.657" cy="5299.7192" gradientTransform="matrix(.2895 0 0 1 5221.3418 -4303.4033)" gradientUnits="userSpaceOnUse" r="19.241899" xlink:href="#h"/><radialGradient id="bB" cx="16071.692" cy="3855.26" gradientTransform="matrix(0 .2895 -1 0 5224.5762 -4086.6375)" gradientUnits="userSpaceOnUse" r="19.241899" xlink:href="#h"/><radialGradient id="bC" cx="-13306.996" cy="4869.0986" gradientTransform="matrix(.2895 0 0 1 5221.3418 -4303.4033)" gradientUnits="userSpaceOnUse" r="19.241899" xlink:href="#h"/><radialGradient id="bD" cx="15143.32" cy="3963.0671" gradientTransform="matrix(0 .2895 -1 0 5224.5762 -4086.6375)" gradientUnits="userSpaceOnUse" r="19.241899" xlink:href="#h"/><radialGradient id="bE" cx="-13679.42" cy="4600.3594" gradientTransform="matrix(.2895 0 0 1 5221.3418 -4303.4033)" gradientUnits="userSpaceOnUse" r="19.241899" xlink:href="#h"/><linearGradient id="bF"><stop offset="0" stop-color="#f2efde"/><stop offset=".5" stop-color="#efe9d2"/><stop offset="1" stop-color="#f3f0e0"/></linearGradient><radialGradient id="bG" cx="60.508289" cy="115.85359" gradientTransform="matrix(.30391977 .73301864 -1.7343059 .71906638 229.3397 -26.78043)" gradientUnits="userSpaceOnUse" r="25.549786" spreadMethod="reflect" xlink:href="#bF"/><radialGradient id="bH" cx="75.96949" cy="100.86523" gradientTransform="matrix(-1.3088639 1.3088624 -.68937121 -.68937121 258.021 55.265189)" gradientUnits="userSpaceOnUse" r="26.528481" spreadMethod="reflect" xlink:href="#bF"/><radialGradient id="bI" cx="26.363939" cy="127.13718" gradientTransform="matrix(.36546383 .36546383 -1.4726626 1.4726511 259.46115 -45.159945)" gradientUnits="userSpaceOnUse" r="26.528484" spreadMethod="reflect" xlink:href="#bF"/><radialGradient id="bJ" cx="6.868057" cy="160.68141" gradientTransform="matrix(-1.281674 1.1902 -.43734942 -.47096268 226.71216 207.5647)" gradientUnits="userSpaceOnUse" r="30.731085" spreadMethod="reflect" xlink:href="#bF"/><radialGradient id="bK" cx="212.8598" cy="140.99054" gradientTransform="matrix(-.28860139 .36665557 -.41416114 -.32599404 359.84669 97.508039)" gradientUnits="userSpaceOnUse" r="106.93773" spreadMethod="reflect" xlink:href="#bF"/><linearGradient id="bL" gradientTransform="matrix(4.9866252 0 0 5.290379 -241.48217 -79.171967)" gradientUnits="userSpaceOnUse" spreadMethod="repeat" x1="55.623501" x2="72.830376" y1="35.863968" y2="30.543739"><stop offset="0" stop-color="#f3f3f1"/><stop offset=".03125" stop-color="#eef3f4"/><stop offset=".0625" stop-color="#ebf5f7"/><stop offset=".09375" stop-color="#eef3f4"/><stop offset=".15625" stop-color="#e4ebee"/><stop offset=".1875" stop-color="#dee8ed"/><stop offset=".21875" stop-color="#e4ebee"/><stop offset=".28125" stop-color="#e3e5ed"/><stop offset=".3125" stop-color="#e3e4e8"/><stop offset=".34375" stop-color="#e4e7ec"/><stop offset=".40625" stop-color="#d9e3ea"/><stop offset=".4375" stop-color="#e1e6eb"/><stop offset=".46875" stop-color="#dfe4e4"/><stop offset=".53125" stop-color="#f4f3ea"/><stop offset=".5625" stop-color="#f8f6e8"/><stop offset=".59375" stop-color="#f4f2ea"/><stop offset=".65625" stop-color="#eeece4"/><stop offset=".71426684" stop-color="#eee8dd"/><stop offset=".76595175" stop-color="#eeece4"/><stop offset=".8775022" stop-color="#f3f3f1"/><stop offset=".9375" stop-color="#f3f3f1"/><stop offset="1" stop-color="#f3f3f1"/></linearGradient><filter id="bM" color-interpolation-filters="sRGB" height="1.043865" width="1.04388" x="-.02194" y="-.021933"><feGaussianBlur stdDeviation="2.0592335"/></filter><g transform="matrix(3.7795274 0 0 3.7795274 -.000009 -.000008)"><g mask="url(#b)" stroke-width=".094494"><path d="m30.833409 30.833409c-67.65774 67.657739-96.043753 148.969871-63.396059 181.617561 32.64769465 32.6477 113.959825 4.26168 181.61756-63.39606 67.65774-67.657735 96.04376-148.96986535 63.39606-181.61756-32.64769-32.647694-113.959822-4.261681-181.617561 63.396059z" fill="url(#e)" opacity=".3"/><path d="m-16.763244-16.763244c-67.65774 67.657739-96.043756 148.969874-63.396059 181.617564 32.647695 32.64769 113.959825 4.26168 181.617563-63.39606 67.65774-67.657738 96.04375-148.969868 63.39606-181.617563-32.64769-32.647697-113.959825-4.261681-181.617564 63.396059z" fill="url(#f)" opacity=".35"/></g><g opacity=".8" transform="matrix(.09660557 0 0 .09518071 -1.845166 -1.798916)"><circle cx="946.90002" cy="776.5" fill="url(#g)" opacity=".5" r="11.3"/><circle cx="828.79999" cy="869.79999" fill="url(#i)" opacity=".5" r="11.3"/><circle cx="339.10001" cy="1021.2" fill="url(#j)" opacity=".5" r="11.3"/><circle cx="1023.5" cy="1172.2" fill="url(#k)" opacity=".5" r="11.3"/><circle cx="419.60001" cy="439.70001" fill="url(#l)" opacity=".5" r="11.3"/><circle cx="874.79999" cy="428.39999" fill="url(#m)" opacity=".5" r="11.3"/><circle cx="714.70001" cy="467.39999" fill="url(#n)" opacity=".5" r="11.3"/><circle cx="1030.9" cy="354.20001" fill="url(#o)" opacity=".5" r="11.3"/><circle cx="1040.2" cy="684.29999" fill="url(#p)" opacity=".5" r="11.3"/><circle cx="625.59998" cy="345" fill="url(#q)" opacity=".5" r="11.3"/><circle cx="553.20001" cy="199.5" fill="url(#r)" opacity=".5" r="11.3"/><circle cx="751.5" cy="556.70001" fill="url(#s)" opacity=".5" r="5.6"/><circle cx="777.40002" cy="382.79999" fill="url(#t)" opacity=".5" r="5.6"/><circle cx="420.60001" cy="331.5" fill="url(#u)" opacity=".5" r="5.6"/><circle cx="206.5" cy="377.10001" fill="url(#v)" opacity=".5" r="5.6"/><circle cx="614.29999" cy="932" fill="url(#w)" opacity=".5" r="5.6"/><circle cx="726.20001" cy="900.29999" fill="url(#x)" opacity=".5" r="5.6"/><circle cx="308" cy="931" fill="url(#y)" opacity=".5" r="5.6"/><circle cx="818.09998" cy="990.70001" fill="url(#z)" opacity=".5" r="5.6"/><circle cx="695.79999" cy="1015.6" fill="url(#A)" opacity=".5" r="5.6"/><circle cx="549.29999" cy="1170.2" fill="url(#B)" opacity=".5" r="5.6"/><circle cx="644.20001" cy="801.40002" fill="url(#C)" opacity=".5" r="5.6"/><circle cx="993.20001" cy="1007.5" fill="url(#D)" opacity=".5" r="5.6"/><circle cx="943.29999" cy="1095.6" fill="url(#E)" opacity=".5" r="5.6"/><circle cx="911.40002" cy="659.29999" fill="url(#F)" opacity=".5" r="5.6"/><circle cx="529" cy="839.90002" fill="url(#G)" opacity=".5" r="11.3"/><circle cx="542.70001" cy="1069.7" fill="url(#H)" opacity=".5" r="11.3"/><circle cx="863.59998" cy="1161" fill="url(#I)" opacity=".5" r="11.3"/><circle cx="1134.7" cy="889" fill="url(#J)" opacity=".5" r="11.3"/><circle cx="419.60001" cy="933" fill="url(#K)" opacity=".5" r="11.3"/><circle cx="208.5" cy="608.79999" fill="url(#L)" opacity=".5" r="11.3"/><circle cx="498.60001" cy="547" fill="url(#M)" opacity=".5" r="11.3"/><circle cx="480.89999" cy="686.29999" fill="url(#N)" opacity=".5" r="11.3"/><circle cx="538" cy="444.89999" fill="url(#O)" opacity=".5" r="11.3"/><circle cx="341.10001" cy="248" fill="url(#P)" opacity=".5" r="11.3"/><circle cx="560.40002" cy="660.29999" fill="url(#Q)" opacity=".5" r="7.1"/><circle cx="584.09998" cy="788.59998" fill="url(#R)" opacity=".5" r="7.1"/><circle cx="972" cy="267.20001" fill="url(#S)" opacity=".5" r="7.1"/><circle cx="360.60001" cy="841.90002" fill="url(#T)" opacity=".5" r="7.1"/><circle cx="384.5" cy="1069.7" fill="url(#U)" opacity=".5" r="7.1"/><circle cx="415" cy="1149.7" fill="url(#V)" opacity=".5" r="7.1"/><circle cx="226.89999" cy="764.59998" fill="url(#W)" opacity=".5" r="7.1"/><circle cx="704.79999" cy="240.89999" fill="url(#X)" opacity=".5" r="7.1"/><circle cx="404.29999" cy="522.79999" fill="url(#Y)" opacity=".5" r="7.1"/><circle cx="631.40002" cy="709" fill="url(#Z)" opacity=".5" r="7.1"/><circle cx="1004.5" cy="623.59998" fill="url(#aa)" opacity=".5" r="11.3"/><circle cx="294.70001" cy="1083.7" fill="url(#ab)" opacity=".5" r="11.3"/><circle cx="210.5" cy="1163" fill="url(#ac)" opacity=".5" r="11.3"/><circle cx="411.5" cy="167" fill="url(#ad)" opacity=".5" r="11.3"/><circle cx="872.79999" cy="188.2" fill="url(#ae)" opacity=".5" r="11.3"/><circle cx="197.3" cy="858.5" fill="url(#af)" opacity=".5" r="11.3"/><circle cx="1028.9" cy="542.90002" fill="url(#ag)" opacity=".5" r="11.3"/><circle cx="1134.7" cy="701.90002" fill="url(#ah)" opacity=".5" r="11.3"/><circle cx="982" cy="437.29999" fill="url(#ai)" opacity=".5" r="11.3"/><ellipse cx="707" cy="728.20001" fill="url(#aj)" rx="19.200001" ry="5.6"/><ellipse cx="707" cy="728.20001" fill="url(#ak)" rx="5.6" ry="19.200001"/><ellipse cx="324" cy="638.5" fill="url(#al)" rx="29.700001" ry="8.6"/><ellipse cx="324" cy="638.5" fill="url(#am)" rx="8.6" ry="29.700001"/><ellipse cx="195.3" cy="989.70001" fill="url(#an)" rx="29.700001" ry="8.6"/><ellipse cx="195.3" cy="989.70001" fill="url(#ao)" rx="8.6" ry="29.700001"/><ellipse cx="249.5" cy="300.29999" fill="url(#ap)" rx="29.700001" ry="8.6"/><ellipse cx="249.5" cy="300.29999" fill="url(#aq)" rx="8.6" ry="29.700001"/><ellipse cx="844.40002" cy="773.20001" fill="url(#ar)" rx="29.700001" ry="8.6"/><ellipse cx="844.40002" cy="773.20001" fill="url(#as)" rx="8.6" ry="29.700001"/><ellipse cx="839.20001" cy="270.60001" fill="url(#at)" rx="29.700001" ry="8.6"/><ellipse cx="839.20001" cy="270.60001" fill="url(#au)" rx="8.6" ry="29.700001"/><ellipse cx="847.79999" cy="562.29999" fill="url(#av)" rx="29.700001" ry="8.6"/><ellipse cx="847.79999" cy="562.29999" fill="url(#aw)" rx="8.6" ry="29.700001"/><ellipse cx="1143.3" cy="506.20001" fill="url(#ax)" rx="29.700001" ry="8.6"/><ellipse cx="1143.3" cy="506.20001" fill="url(#ay)" rx="8.6" ry="29.700001"/><ellipse cx="1118.3" cy="1092.3" fill="url(#az)" rx="29.700001" ry="8.6"/><ellipse cx="1118.3" cy="1092.3" fill="url(#aA)" rx="8.6" ry="29.700001"/><ellipse cx="321.79999" cy="377.20001" fill="url(#aB)" rx="19.200001" ry="5.6"/><ellipse cx="321.79999" cy="377.20001" fill="url(#aC)" rx="5.6" ry="19.200001"/><ellipse cx="548.29999" cy="996.29999" fill="url(#aD)" rx="19.200001" ry="5.6"/><ellipse cx="548.29999" cy="996.29999" fill="url(#aE)" rx="5.6" ry="19.200001"/><ellipse cx="450.10001" cy="795.79999" fill="url(#aF)" rx="19.200001" ry="5.6"/><ellipse cx="450.10001" cy="795.79999" fill="url(#aG)" rx="5.6" ry="19.200001"/><ellipse cx="649.79999" cy="565.70001" fill="url(#aH)" rx="19.200001" ry="5.6"/><ellipse cx="649.79999" cy="565.70001" fill="url(#aI)" rx="5.6" ry="19.200001"/><ellipse cx="353.5" cy="747.5" fill="url(#aJ)" rx="19.200001" ry="5.6"/><ellipse cx="353.5" cy="747.5" fill="url(#aK)" rx="5.6" ry="19.200001"/><ellipse cx="712.5" cy="1141.6" fill="url(#aL)" rx="19.200001" ry="5.6"/><ellipse cx="712.5" cy="1141.6" fill="url(#aM)" rx="5.6" ry="19.200001"/><ellipse cx="979.59998" cy="889" fill="url(#aN)" rx="19.200001" ry="5.6"/><ellipse cx="979.59998" cy="889" fill="url(#aO)" rx="5.6" ry="19.200001"/><ellipse cx="542" cy="297" fill="url(#aP)" rx="19.200001" ry="5.6"/><ellipse cx="542" cy="297" fill="url(#aQ)" rx="5.6" ry="19.200001"/><ellipse cx="856.40002" cy="1023.2" fill="url(#aR)" rx="19.200001" ry="5.6"/><ellipse cx="856.40002" cy="1023.2" fill="url(#aS)" rx="5.6" ry="19.200001"/><circle cx="1023.5" cy="132.7" fill="url(#aT)" opacity=".5" r="11.3"/><circle cx="549.29999" cy="130.7" fill="url(#aU)" opacity=".5" r="5.6"/><circle cx="943.29999" cy="56.099998" fill="url(#aV)" opacity=".5" r="5.6"/><circle cx="863.59998" cy="121.5" fill="url(#aW)" opacity=".5" r="11.3"/><ellipse cx="712.5" cy="102" fill="url(#aX)" rx="19.200001" ry="5.6"/><ellipse cx="712.5" cy="102" fill="url(#aY)" rx="5.6" ry="19.200001"/><ellipse cx="1069.3" cy="771.59998" fill="url(#aZ)" rx="19.200001" ry="5.6"/><ellipse cx="1069.3" cy="771.59998" fill="url(#a0)" rx="5.6" ry="19.200001"/><ellipse cx="1134.7" cy="308.89999" fill="url(#a1)" rx="19.200001" ry="5.6"/><ellipse cx="1134.7" cy="308.89999" fill="url(#a2)" rx="5.6" ry="19.200001"/><ellipse cx="1109.7" cy="197.5" fill="url(#a3)" rx="19.200001" ry="5.6"/><ellipse cx="1109.7" cy="197.5" fill="url(#a4)" rx="5.6" ry="19.200001"/><circle cx="39.599998" cy="774.90002" fill="url(#a5)" opacity=".5" r="11.3"/><circle cx="98.5" cy="861.90002" fill="url(#a6)" opacity=".5" r="7.1"/><circle cx="88.5" cy="691.79999" fill="url(#a7)" opacity=".5" r="11.3"/><circle cx="47" cy="996.40002" fill="url(#a8)" opacity=".5" r="11.3"/><circle cx="127.2" cy="1073" fill="url(#a9)" opacity=".5" r="5.6"/><circle cx="306" cy="534.09998" fill="url(#ba)" opacity=".5" r="11.3"/><circle cx="419.60001" cy="1251" fill="url(#bb)" opacity=".5" r="11.3"/><circle cx="874.79999" cy="1239.7" fill="url(#bc)" opacity=".5" r="11.3"/><circle cx="714.70001" cy="1278.6" fill="url(#bd)" opacity=".5" r="11.3"/><circle cx="751.5" cy="1368" fill="url(#be)" opacity=".5" r="5.6"/><circle cx="498.60001" cy="1358.3" fill="url(#bf)" opacity=".5" r="11.3"/><circle cx="538" cy="1256.1" fill="url(#bg)" opacity=".5" r="11.3"/><circle cx="404.29999" cy="1334.1" fill="url(#bh)" opacity=".5" r="7.1"/><circle cx="982" cy="1248.6" fill="url(#bi)" opacity=".5" r="11.3"/><ellipse cx="847.79999" cy="1373.6" fill="url(#bj)" rx="29.700001" ry="8.6"/><ellipse cx="847.79999" cy="1373.6" fill="url(#bk)" rx="8.6" ry="29.700001"/><ellipse cx="321.79999" cy="1188.5" fill="url(#bl)" rx="19.200001" ry="5.6"/><ellipse cx="321.79999" cy="1188.5" fill="url(#bm)" rx="5.6" ry="19.200001"/><ellipse cx="649.79999" cy="1377" fill="url(#bn)" rx="19.200001" ry="5.6"/><ellipse cx="649.79999" cy="1377" fill="url(#bo)" rx="5.6" ry="19.200001"/><circle cx="1333.8" cy="932" fill="url(#bp)" opacity=".5" r="5.6"/><circle cx="1363.7" cy="801.40002" fill="url(#bq)" opacity=".5" r="5.6"/><circle cx="1248.6" cy="839.90002" fill="url(#br)" opacity=".5" r="11.3"/><circle cx="1262.2" cy="1069.7" fill="url(#bs)" opacity=".5" r="11.3"/><circle cx="1218.2" cy="547" fill="url(#bt)" opacity=".5" r="11.3"/><circle cx="1200.4" cy="686.29999" fill="url(#bu)" opacity=".5" r="11.3"/><circle cx="1257.5" cy="444.89999" fill="url(#bv)" opacity=".5" r="11.3"/><circle cx="1279.9" cy="660.29999" fill="url(#bw)" opacity=".5" r="7.1"/><circle cx="1303.6" cy="788.59998" fill="url(#bx)" opacity=".5" r="7.1"/><circle cx="1350.9" cy="709" fill="url(#by)" opacity=".5" r="7.1"/><ellipse cx="1267.8" cy="996.29999" fill="url(#bz)" rx="19.200001" ry="5.6"/><ellipse cx="1267.8" cy="996.29999" fill="url(#bA)" rx="5.6" ry="19.200001"/><ellipse cx="1369.3" cy="565.70001" fill="url(#bB)" rx="19.200001" ry="5.6"/><ellipse cx="1369.3" cy="565.70001" fill="url(#bC)" rx="5.6" ry="19.200001"/><ellipse cx="1261.5" cy="297" fill="url(#bD)" rx="19.200001" ry="5.6"/><ellipse cx="1261.5" cy="297" fill="url(#bE)" rx="5.6" ry="19.200001"/><g fill="#fff"><circle cx="946.90002" cy="776.5" r="2"/><circle cx="828.79999" cy="869.79999" r="2"/><circle cx="339.10001" cy="1021.2" r="2"/><circle cx="1023.5" cy="1172.2" r="2"/><circle cx="419.60001" cy="439.70001" r="2"/><circle cx="874.79999" cy="428.39999" r="2"/><circle cx="714.70001" cy="467.39999" r="2"/><circle cx="1030.9" cy="354.20001" r="2"/><circle cx="1040.2" cy="684.29999" r="2"/><circle cx="625.59998" cy="345" r="2"/><circle cx="553.20001" cy="199.5" r="2"/><circle cx="751.5" cy="556.70001" r="1"/><circle cx="777.40002" cy="382.79999" r="1"/><circle cx="420.60001" cy="331.5" r="1"/><circle cx="206.5" cy="377.10001" r="1"/><circle cx="614.29999" cy="932" r="1"/><circle cx="726.20001" cy="900.29999" r="1"/><circle cx="308" cy="931" r="1"/><circle cx="818.09998" cy="990.70001" r="1"/><circle cx="695.79999" cy="1015.6" r="1"/><circle cx="549.29999" cy="1170.2" r="1"/><circle cx="644.20001" cy="801.40002" r="1"/><circle cx="993.20001" cy="1007.5" r="1"/><circle cx="943.29999" cy="1095.6" r="1"/><circle cx="911.40002" cy="659.29999" r="1"/><circle cx="529" cy="839.90002" r="2"/><circle cx="542.70001" cy="1069.7" r="2"/><circle cx="863.59998" cy="1161" r="2"/><circle cx="1134.7" cy="889" r="2"/><circle cx="419.60001" cy="933" r="2"/><circle cx="208.5" cy="608.79999" r="2"/><circle cx="498.60001" cy="547" r="2"/><circle cx="480.89999" cy="686.29999" r="2"/><circle cx="538" cy="444.89999" r="2"/><circle cx="341.10001" cy="248" r="2"/><circle cx="560.40002" cy="660.29999" r="1.3"/><circle cx="584.09998" cy="788.59998" r="1.3"/><circle cx="972" cy="267.20001" r="1.3"/><circle cx="360.60001" cy="841.90002" r="1.3"/><circle cx="384.5" cy="1069.7" r="1.3"/><circle cx="415" cy="1149.7" r="1.3"/><circle cx="226.89999" cy="764.59998" r="1.3"/><circle cx="704.79999" cy="240.89999" r="1.3"/><circle cx="404.29999" cy="522.79999" r="1.3"/><circle cx="631.40002" cy="709" r="1.3"/><circle cx="1004.5" cy="623.59998" r="2"/><circle cx="294.70001" cy="1083.7" r="2"/><circle cx="210.5" cy="1163" r="2"/><circle cx="411.5" cy="167" r="2"/><circle cx="872.79999" cy="188.2" r="2"/><circle cx="197.3" cy="858.5" r="2"/><circle cx="1028.9" cy="542.90002" r="2"/><circle cx="1134.7" cy="701.90002" r="2"/><circle cx="982" cy="437.29999" r="2"/><circle cx="707" cy="728.20001" r="2.2"/><circle cx="324" cy="638.5" r="3.4"/><circle cx="195.3" cy="989.70001" r="3.4"/><circle cx="249.5" cy="300.29999" r="3.4"/><circle cx="844.40002" cy="773.20001" r="3.4"/><circle cx="839.20001" cy="270.60001" r="3.4"/><circle cx="847.79999" cy="562.29999" r="3.4"/><circle cx="1143.3" cy="506.20001" r="3.4"/><circle cx="1118.3" cy="1092.3" r="3.4"/><circle cx="321.79999" cy="377.20001" r="2.2"/><circle cx="548.29999" cy="996.29999" r="2.2"/><circle cx="450.10001" cy="795.79999" r="2.2"/><circle cx="649.79999" cy="565.70001" r="2.2"/><circle cx="353.5" cy="747.5" r="2.2"/><circle cx="712.5" cy="1141.6" r="2.2"/><circle cx="979.59998" cy="889" r="2.2"/><circle cx="542" cy="297" r="2.2"/><circle cx="856.40002" cy="1023.2" r="2.2"/><circle cx="1023.5" cy="132.7" r="2"/><circle cx="549.29999" cy="130.7" r="1"/><circle cx="943.29999" cy="56.099998" r="1"/><circle cx="863.59998" cy="121.5" r="2"/><circle cx="712.5" cy="102" r="2.2"/><circle cx="1069.3" cy="771.59998" r="2.2"/><circle cx="1134.7" cy="308.89999" r="2.2"/><circle cx="1109.7" cy="197.5" r="2.2"/><circle cx="39.599998" cy="774.90002" r="2"/><circle cx="98.5" cy="861.90002" r="1.3"/><circle cx="88.5" cy="691.79999" r="2"/><circle cx="47" cy="996.40002" r="2"/><circle cx="127.2" cy="1073" r="1"/><circle cx="306" cy="534.09998" r="2"/><circle cx="419.60001" cy="1251" r="2"/><circle cx="874.79999" cy="1239.7" r="2"/><circle cx="714.70001" cy="1278.6" r="2"/><circle cx="751.5" cy="1368" r="1"/><circle cx="498.60001" cy="1358.3" r="2"/><circle cx="538" cy="1256.1" r="2"/><circle cx="404.29999" cy="1334.1" r="1.3"/><circle cx="982" cy="1248.6" r="2"/><circle cx="847.79999" cy="1373.6" r="3.4"/><circle cx="321.79999" cy="1188.5" r="2.2"/><circle cx="649.79999" cy="1377" r="2.2"/><circle cx="1333.8" cy="932" r="1"/><circle cx="1363.7" cy="801.40002" r="1"/><circle cx="1248.6" cy="839.90002" r="2"/><circle cx="1262.2" cy="1069.7" r="2"/><circle cx="1218.2" cy="547" r="2"/><circle cx="1200.4" cy="686.29999" r="2"/><circle cx="1257.5" cy="444.89999" r="2"/><circle cx="1279.9" cy="660.29999" r="1.3"/><circle cx="1303.6" cy="788.59998" r="1.3"/><circle cx="1350.9" cy="709" r="1.3"/><circle cx="1267.8" cy="996.29999" r="2.2"/><circle cx="1369.3" cy="565.70001" r="2.2"/><circle cx="1261.5" cy="297" r="2.2"/></g></g></g><g stroke-width="1.08067" transform="matrix(.92535064 0 0 .92535064 19.307789 14.038315)"><g><path d="m212.06641 181.31836c-7.48045-.81069-14.5152 3.69975-16.90039 10.83594l-7.26172 21.73828-4.58008 4.57226-21.79297 7.25c-11.29582 3.7592-14.6775 18.09728-6.25195 26.50782l21.93554 21.89062c28.18486 26.99237 39.6729 64.68105 22.54102 102.08789-2.1999 4.80417-1.88635 10.38462.83789 14.91211 46.99806 78.10176 166.89391 135.246 288.28906 96.37109 21.88069-7.35798 25.20842-14.2374 30.58753-20.88476 0 0-22.83886-6.78452-30.0055-9.39063-91.95499-33.3957-118.6681-68.78641-142.27343-110.48437-19.57366-34.57615-36.54915-75.34603-80.90039-116.01563-.12141-.15856-.24579-.31484-.37305-.46875l-44.25391-44.32031c-2.58041-2.5841-5.96708-4.20782-9.59765-4.60156zm3.3789 48.9043c.39101.53625.81501 1.04766 1.26953 1.53125 62.67562 44.42092 77.37067 86.11856 102.62891 130.73632 20.55108 36.30275 48.63983 72.74934 110.80664 104.10938-85.21335 7.2668-163.34512-35.14637-197.82031-85.59961 11.81541-32.05446 8.28804-65.00499-5.73438-93.125.91171-5.1203-.72216-10.36426-4.38086-14.06055l-25.97461-25.92187.76563-.25586c2.35474-.783 4.49511-2.10293 6.25195-3.85547l9.92774-9.9082c.91381-1.10976 1.6739-2.33761 2.25976-3.65039z" fill="#919188"/><path d="m188.22121 262.49322c32.27278 30.86634 46.1416 76.56903 26.08123 120.37013 42.41778 70.49022 155.71611 125.88549 269.70091 89.38364-189.26615-68.73664-126.6842-160.45245-258.03641-253.54744m28.62888 22.8458-44.25401-44.32129-8.45853 25.32379-9.9273 9.90733-25.37479 8.44153 44.33229 44.24317" fill="url(#a)"/></g><g><g transform="matrix(1.0806714 0 0 1.0806714 -17.805545 -18.225937)"><path d="m70.598473 59.330863c-10.000315.315551-20.180739 5.539251-27.220557 12.648881-7.122816 7.193451-12.072267 17.553328-12.52562 27.666425-.450629 10.052321 4.169002 20.260671 9.939778 28.503871 3.582491 5.11737 8.479664 10.24306 14.515281 11.85335 9.220922 2.46011 21.012214-2.37171 28.249286-4.65573 8.363868-2.63964 13.329556-7.61824 16.820309-11.08985 3.55363-3.53414 9.77564-8.89373 12.44532-19.04492 2.25317-8.567467 2.26215-13.818115-.0846-20.090291-2.17522-5.813723-7.09603-10.516244-12.16447-14.099796-8.757044-6.191512-19.255295-12.030183-29.974727-11.69194z" fill="#c9c4ad" stroke-width="3.779528"/><path d="m53.574924 119.99003c1.521063 2.22162 3.595635 4.33882 6.122402 5.26871 4.360755 1.60482 14.612206-3.77041 19.043441-5.16891 4.004373-1.26378 4.960837-1.79839 7.938178-4.7594 3.398065-3.37943 9.451278-9.55306 10.670198-14.18788 1.094067-4.160083.437189-8.88807-1.252954-12.84366-1.000463-2.34147-2.896978-4.328578-4.981249-5.791186-5.561782-3.902901-12.262226-7.472382-19.052957-7.244264-6.331976.212707-12.80676 3.437811-17.272449 7.931894-4.55901 4.587997-7.715308 11.222077-7.985729 17.684366-.282554 6.75224 2.953181 13.53396 6.771119 19.11033z" fill="url(#bG)"/></g><path d="m147.7257 122.01537c-5.46279-.17775-14.912 6.82173-14.912 6.82173s-7.3842 15.45142-13.32898 21.38548c-5.95009 5.93933-21.427693 13.30155-21.427693 13.30155s-6.983491 9.45702-6.79641 14.91833c.113683 3.31864 2.918135 5.98569 4.740602 8.76146 2.604003 3.96611 5.605261 7.67889 8.794061 11.19207 4.02543 4.4349 10.13061 10.35344 12.99033 12.41384 20.17911-6.72573 38.54913-10.24291 47.64875-14.73048 4.49447-9.0774 8.01878-27.40121 14.7537-47.53054-2.17727-2.92664-7.97486-8.95596-12.41039-12.97347-3.53972-3.20613-7.28324-6.21976-11.27996-8.83415-2.77949-1.81816-5.45182-4.61778-8.77201-4.72582z" fill="#c9c4ad"/><path d="m105.38437 170.50553c.5848 1.83029 1.84908 4.70792 3.92174 7.81106 2.93077 4.38672 7.12423 9.35388 11.69921 13.91966 1.83675 1.83306 3.73755 3.59903 5.64113 5.25263 14.40958-4.1231 26.75922-6.57948 32.55153-7.63319 1.04867-5.74255 3.5096-18.07889 7.64856-32.48609-1.65653-1.89937-3.42645-3.79675-5.2632-5.62981-4.57498-4.56577-9.55215-8.7508-13.94771-11.67568-3.10939-2.0685-5.99321-3.32984-7.82678-3.91387 0 0-7.27157 15.33913-13.1624 21.21936-5.89611 5.8855-21.26208 13.13593-21.26208 13.13593z" fill="url(#bJ)"/><path d="m65.060373 152.82512c.228929 6.16408 5.246537 11.4643 9.635577 15.79842 4.567203 4.51005 10.293313 8.45142 16.564667 9.81892 5.563638 1.21318 11.578453-.0232 16.987783-1.80221 2.24188-.73732 4.12325-2.30332 6.10946-3.57793 5.62905-3.61233 11.69807-6.79065 16.43169-11.51591 4.73037-4.72201 7.90431-10.78957 11.53701-16.40003 1.29183-1.99514 2.88908-3.87571 3.64255-6.12998 1.80673-5.40546 3.08275-11.43018 1.85964-16.99681-1.38104-6.2854-5.4105-11.98365-9.95151-16.54356-4.35473-4.37286-9.65765-9.39151-15.82516-9.609086-5.50612-.194243-14.69748 7.561716-14.69748 7.561716s-7.384189 15.4514-13.328984 21.38548c-5.950081 5.93934-21.429799 13.30154-21.429799 13.30154s-7.739906 9.20414-7.535444 14.70944z" fill="#c9c4ad"/><path d="m79.75735 145.26195c.548998 4.16796 2.777607 8.58128 6.23947 12.03618 3.461863 3.45491 7.884072 5.67903 12.060422 6.22692 0 0 15.478288-7.36253 21.428378-13.30188 5.9448-5.93408 13.3287-21.38531 13.3287-21.38531-.549-4.16796-2.77761-8.58128-6.23948-12.03618-3.46186-3.45491-7.88407-5.67903-12.06042-6.22693 0 0-7.38389 15.45123-13.32869 21.38531-5.950093 5.93936-21.42838 13.30189-21.42838 13.30189z" fill="url(#bI)"/><path d="m91.134766 69.300781c-3.530611-.155797-8.502959-1.295668-10.474999 1.637l-9.987892 14.853235c-2.105151 3.130621-3.580086 6.770212-6.25 9.435546-2.67351 2.668924-6.321695 4.137853-9.458984 6.242188l-14.871557 9.97509c-3.777708 2.5339-1.813041 6.95843-1.65774 10.49757.117071 2.66792.86701 5.32721 1.938015 7.77352 2.15867 4.93069 4.990394 9.75948 8.862766 13.49796 4.440449 4.28692 9.830182 8.1475 15.825998 9.61223 5.453966 1.33236 11.433385.50944 16.805683-1.1213 2.588146-.78563 4.748973-2.59866 7.030428-4.05148 5.641621-3.59255 10.886576-5.98056 16.431646-11.51562 5.54242-5.53243 7.92572-10.77473 11.5371-16.39844 1.47085-2.29044 3.32431-4.44791 4.11837-7.05156 1.63883-5.37354 2.41531-11.36571 1.06848-16.819776-1.47896-5.989109-5.34293-11.370439-9.63606-15.800538-3.74745-3.867008-8.58515-6.688087-13.521323-8.840129-2.443004-1.065085-5.097438-1.808007-7.759931-1.925496z" fill="#c9c4ad"/><path d="m54.296629 119.85241c.548993 4.16796 2.777607 8.58128 6.239464 12.03618 3.461863 3.4549 7.884073 5.67903 12.060429 6.22692 0 0 15.478287-7.36253 21.428374-13.30188 5.944801-5.93408 13.328694-21.38531 13.328694-21.38531-.54899-4.167963-2.7776-8.581283-6.23947-12.036187-3.461862-3.454904-7.884071-5.679032-12.060427-6.226921 0 0-7.383892 15.451228-13.328692 21.385308-5.950087 5.93936-21.428372 13.30189-21.428372 13.30189z" fill="url(#bH)"/><g stroke-width="1.08067"><path d="m194.30664 90.277347c-4.76051 4.59415-8.37972 9.50691-11.40528 14.040033-7.54209 11.65879-13.12755 25.0726-17.52831 38.04785-5.76038 16.98122-9.82591 32.83919-12.4043 41.23438-8.41507 2.57605-24.30753 6.63097-41.32812 12.38086-12.996943 4.39125-26.432657 9.96228-38.110357 17.48731-4.54268 3.01925-9.463419 6.63008-14.067382 11.38183-4.603972 4.75174-9.01872 10.79689-11.39258 18.63672-4.846463 16.71989.02081 33.46797 8.85742 47.91015 8.842237 14.45105 21.487706 26.33994 38.128907 30.21289 15.936392 3.70947 30.636972-2.20556 43.194362-10.82521 12.61345-8.65914 22.43694-19.41017 26.94046-32.89358 2.20557-6.6041 2.17506-14.12258.0254-20.08007-1.39449-3.86462-3.37014-6.72714-5.39453-9.21289l35.45117-13.4336c4.27853-1.62149 7.65826-4.99696 9.28515-9.27344l13.47657-35.42578c2.5022 2.03949 5.38326 4.03197 9.2832 5.4336 5.95421 2.13993 13.45877 2.17269 20.0635-.0234 13.48353-4.48603 24.26491-14.28812 32.94436-26.88186 8.63972-12.53762 14.58113-27.22872 10.85536-43.17087-3.88874-16.6419-15.8074-29.252841-30.2793-38.07227-10.84759-6.610713-22.98495-10.989052-35.39062-10.740234-4.13523.08294-8.3001.678989-12.54883 1.906251-7.83827 2.363971-13.89397 6.764631-18.65625 11.36133z" fill="#c9c4ad"/><path d="m70.953513 235.98275c-3.399007 3.5081-6.165474 7.50295-7.542344 12.04928-2.92241 10.08361.155148 23.55702 7.165203 35.01395 7.010449 11.45732 17.769591 20.57339 28.10744 22.97935 8.958198 2.08517 20.512198-1.56864 30.511898-8.43239 9.9997-6.86455 18.17378-16.84692 20.8205-24.77113 2.51504-7.53075-.53467-12.46417-4.74365-16.66469-3.99017-3.98215-8.57469-6.19119-9.05526-6.41749-9.31624-3.08806-17.77676-5.37293-24.07471-5.13591-6.36597.2398-10.41383 2.0681-14.096881 9.12401-1.89802 4.81551-3.839798 13.1685.767797 16.79015 7.385204 3.97421 17.059484 2.06929 22.987454-3.64111l7.16083 7.14644c-4.14533 4.13699-10.0737 7.03209-16.55146 8.26008-6.47816 1.2276-13.781016.69361-19.641757-3.65778-15.180952-18.01695-.508816-42.74639 18.990917-44.12089 8.45376-.31841 17.25322 2.22294 26.3419 5.21253l51.50346-19.51572 19.55503-51.39992c-2.99562-9.07042-5.54209-17.85219-5.22303-26.28895 1.37726-19.46053 26.15651-34.10318 44.20975-18.95274 4.36015 5.84896 4.89522 13.13713 3.66515 19.60227-1.23047 6.46474-4.1314 12.38119-8.27672 16.51818l-7.16083-7.14643c5.7223-5.91566 7.63106-15.57049 3.64805-22.94164-3.62816-4.59753-11.99837-2.66006-16.82357-.76586-7.07013 3.67565-8.9021 7.71537-9.14199 14.06815-.2379 6.28569 2.05118 14.7296 5.14585 24.02671.22676.48039 2.44025 5.05491 6.43042 9.03706 4.20898 4.20051 9.15234 7.2441 16.69865 4.73451 7.93977-2.64179 17.94225-10.79945 24.82062-20.77905 6.87758-9.97959 10.53875-21.51036 8.44938-30.45055-2.41081-10.31707-11.54524-21.05458-23.02564-28.05094-11.4804-6.996357-24.98055-10.067342-35.08447-7.150801-4.55548 1.374102-8.55878 4.134609-12.07356 7.527181-3.51517 3.39217-6.54221 7.41521-9.14636 11.31558-6.32739 9.78228-11.61526 22.22025-15.74627 34.40015-6.96868 20.54322-10.51726 39.33993-15.09024 48.57589-9.25498 4.56419-28.08914 8.10525-48.67374 15.05913-12.20444 4.12349-24.667468 9.40073-34.469045 15.7158-3.908617 2.59852-7.939771 5.61948-11.338772 9.12759z" fill="url(#bK)"/></g><path d="m74.89258 72.435549c-6.331993.212707-12.805789 3.437567-17.271485 7.931641-4.558995 4.587988-7.715928 11.223274-7.986328 17.685547-.2825 6.752233 2.953688 13.533013 6.771485 19.109373l13.761719-9.23047c2.903097-1.94724 6.278056-3.3057 8.751953-5.77539 2.470598-2.466366 3.835205-5.835502 5.783203-8.732419l9.244141-13.744141c-5.561694-3.902893-12.263995-7.472258-19.054688-7.244141zm26.82031 20.410157s-6.831034 14.297954-12.332028 19.789064c-5.505895 5.49598-19.830079 12.30859-19.830079 12.30859.508 3.85682 2.570041 7.94169 5.773438 11.13868s7.29556 5.25472 11.160156 5.76171c0 0 14.324183-6.81262 19.830083-12.30859 5.50099-5.4911 12.33398-19.78906 12.33398-19.78906-.508-3.85683-2.5719-7.94168-5.77539-11.138675-3.2034-3.196997-7.29556-5.25473-11.16016-5.761719zm126.37305 7.402344c-2.65194.01195-5.18406.34092-7.52148 1.01562-4.2154 1.27152-7.92143 3.82553-11.17383 6.96485-3.2527 3.13895-6.05309 6.8615-8.46289 10.4707-5.85499 9.05203-10.74772 20.56137-14.57031 31.83203-6.4485 19.00967-9.73315 36.40273-13.96485 44.94922-8.56409 4.22348-25.99118 7.50078-45.03906 13.93555-11.29339 3.81567-22.8266 8.69933-31.896486 14.54297-3.616796 2.40454-7.346991 5.19909-10.492188 8.44531-3.145297 3.24622-5.704417 6.94345-6.978516 11.15039-2.704297 9.33088.142113 21.79873 6.628907 32.4004 6.487093 10.60203 16.443673 19.03731 26.009763 21.26367 8.28948 1.92951 18.98119-1.45136 28.23438-7.80274 9.25329-6.3521 16.81653-15.58921 19.26562-22.92187 2.3273-6.96857-.49397-11.53298-4.38867-15.41992-3.69229-3.68489-7.9342-5.73005-8.3789-5.93946-8.6208-2.85753-16.45151-4.97127-22.2793-4.75195-5.8907.2219-9.63487 1.91418-13.04297 8.44336-1.7564 4.45603-3.55461 12.18386.70898 15.53516 6.83389 3.67752 15.78599 1.91498 21.27149-3.36915l6.62695 6.61329c-3.83589 3.82815-9.32221 6.50821-15.3164 7.64453-5.9946 1.13596-12.75259.64179-18.17579-3.38477-14.047678-16.67198-.46985-39.55623 17.57422-40.82812 7.8227-.29464 15.96481 2.0578 24.375 4.82421l47.65821-18.05859 18.0957-47.56445c-2.772-8.39332-5.12723-16.51922-4.83203-24.32618 1.2744-18.00779 24.20262-31.55656 40.9082-17.53711 4.0347 5.41234 4.53078 12.15615 3.39258 18.13868-1.1387 5.98214-3.82426 11.457-7.66015 15.28515l-6.625-6.61328c5.29519-5.47405 7.06069-14.40762 3.375-21.22851-3.3573-4.25433-11.10141-2.46179-15.56641-.70899-6.54229 3.40126-8.23894 7.13904-8.46094 13.01758-.2201 5.81646 1.89812 13.62935 4.76172 22.23242.2098.44453 2.25888 4.67841 5.95117 8.36328 3.8948 3.88695 8.46818 6.70311 15.45118 4.38086 7.34709-2.44457 16.60385-9.99389 22.96875-19.22851 6.36419-9.23461 9.75175-19.90298 7.81836-28.17579-2.2308-9.5469-10.68326-19.48295-21.30665-25.95703-7.96754-4.85555-16.98753-7.66867-24.94336-7.63281zm-96.83008 18.07617c-.73678 2.40398-2.44782 4.3977-3.80664 6.51367-3.34179 5.2039-5.5471 10.0544-10.67578 15.17383-5.13113 5.12187-9.98461 7.33189-15.20508 10.65625-2.107657 1.34215-4.104453 3.01718-6.494139 3.7461.971314 1.85046 2.249323 3.62158 3.810547 5.17968 3.203392 3.197 7.295562 5.25473 11.160162 5.76172 0 0 14.32223-6.81262 19.82812-12.30859 5.501-5.4911 12.33399-19.78906 12.33399-19.78906-.508-3.85682-2.56995-7.93973-5.77344-11.13672-1.55744-1.55432-3.32845-2.82834-5.17774-3.79688zm23.12305 24.35938c-.698 2.08338-2.17494 3.82155-3.36914 5.66601-3.3615 5.19163-6.29859 10.80627-10.67578 15.17579-4.3803 4.3725-9.99619 7.31358-15.20508 10.65625-1.8356 1.178-3.57519 2.62527-5.64648 3.30859.30249.50845.62045 1.02554.97265 1.55273 2.712 4.05926 6.59072 8.65594 10.82422 12.88086.1748.17446.3572.33863.5332.51172 12.08649-3.76431 22.81183-6.59582 29.04493-8.5039 1.90729-6.21004 4.73971-16.89055 8.5039-28.92969-.1799-.18233-.3518-.36974-.5332-.55078-4.2334-4.22494-8.83875-8.09815-12.90625-10.80469-.5238-.34846-1.03757-.66324-1.54297-.96289z" fill="url(#bL)" filter="url(#bM)" opacity=".25" transform="matrix(1.0806714 0 0 1.0806714 -20.865376 -15.170806)"/></g></g></svg>