<svg height="500" viewBox="0 0 500 500" width="500" xmlns="http://www.w3.org/2000/svg" xmlns:xlink="http://www.w3.org/1999/xlink"><linearGradient id="a" gradientTransform="matrix(-1.1230942 3.1816782 -3.4276786 -1.6994907 1050.7956 -602.37535)" gradientUnits="userSpaceOnUse" spreadMethod="reflect" x1="366.96631" x2="262.53394" y1="70.650635" y2="80.088348"><stop offset="0" stop-color="#ffdae1"/><stop offset=".25" stop-color="#fee6f2"/><stop offset=".375" stop-color="#f0ebff"/><stop offset=".75" stop-color="#f8fdff"/><stop offset="1" stop-color="#eeefff"/></linearGradient><linearGradient id="b" gradientUnits="userSpaceOnUse" x1="171.12689" x2="486.13559" y1="585.34204" y2="900.35071"><stop offset=".21264368" stop-color="#fff"/><stop offset=".89999998" stop-color="#f4d6e8" stop-opacity="0"/></linearGradient><filter id="c" color-interpolation-filters="sRGB" height="1.150216" width="1.149784" x="-.074892" y="-.075108"><feGaussianBlur stdDeviation="10.126711"/></filter><path d="m103.98408 32.978539c-6.135426 1.690966.54738 5.147501 2.59961 11.468751 5.33552 8.79993 9.9347 15.639781 14.19336 23.347656 3.08408 5.888965 6.26409 7.302376 6.96093 12.121094 4.07449 2.519426 3.99512 15.146443-1.93555 9.914062-2.19848-.770324-.14997.531972 3.88282 3.546876 2.16143 8.485402-1.1351-6.304621 1.11328-3.753907-.99193-10.006029 8.57869 5.974463 4.18555 6.107423-2.33702 3.417994 7.56506 4.645876 10.77734 13.386716 5.40473 7.62909 8.13639 12.57531 13.18164 21.04492 2.50747 4.16887 13.20986 17.75127 11.2168 14.75391-.31149 1.087 2.31144 3.29175 3.51367 7.05859 1.62386.37498 1.27987.20702 3.51367 6.17188 1.50323 3.71512 3.06627 1.55173 4.37891.78516-3.10691-1.85841-3.58158-4.7496-8.07422-10.13086-4.79773-7.82459-6.69171-14.73677-12.65235-21.83594.0465-7.26773-13.22871-14.18728-9.7246-19.6875 1.31872 3.97438 12.82126 7.67289 13.60742 15.66211 3.03415 4.46464 4.27464 7.19152 7.44922 12.04492 2.83171 6.82073 6.04562 9.30001 8.00195 15.51562 4.38377 2.94141 6.54387 8.898 1.05469-2.6289-3.79077-5.88991-7.91816-13.74771-12.78907-19.7207-.14402-4.18644-11.08726-13.35902-3.05859-10.5918 5.40467 5.83084 12.59523 6.26905 14.14258 11.33398 3.6889 1.49384 9.98118 1.6878 1.2793-.77929.84358-4.46837-2.93303-1.80954-4.40039-4.84376-7.39993-4.3154-15.2419-8.34297-20.92383-17.38085 1.09706 6.44908-5.66093.0649-11.67969-6.810551 2.13099-9.445426 6.74613-32.830986 2.13281-12.810546-2.68699 10.024054-8.35531 8.618814-8.71875-.857421-1.59268-4.082332-.72821 5.539479-4.40039-4.843751-2.39807 3.065158-2.48842-18.125637-3.07812-5.289063-2.20865-3.523881-12.64992-17.466707-8.13672-11.238281-.50571-3.724329-9.06795-15.195565-7.58399-13.158203-.0304-3.628969-4.66546-14.58323-6.0332-11.970704-2.13593-1.548811-2.32551-4.17953-3.99609-5.931641zm77.58203 125.953131c.55646.33284 1.01942.69685 1.79687.96679-.48244-1.4807-1.11513-1.36493-1.79687-.96679zm-78.93555-125.828131c.40285.306325-1.15304-.01735 0 0zm-1.32422.44336c.40337.311663-1.15786-.01649 0 0zm17.83594 1.125001c-1.17677-.1447 1.21842.589791 0 0zm.99219.451172c-1.28607.209577 1.28027.205347 0 0zm.88086.439453c-1.67634-.126926 1.18802 1.40697 0 0zm-23.181636.726561c.64903 1.306922.52484-.215951 0 0zm-18.91797.134767c-2.312079 1.527224 3.87741 7.163637 0 0zm45.183586 1.429688c-.81512.222494.80976.218467 0 0zm.70703.648438c.0497 1.620665 3.55416-.458436 0 0zm-52.589837.95117c-.567752.09308-.646435.208356-.88672.31836-.181077.09728-.353204.209248-.533203.308594.02226.475335 2.016743.724831 1.419923-.626954zm55.521477.195313c-3.01959.125585 1.56459 1.504834 0 0zm-51.576166.421876c.588152 13.035515 4.43128 31.73798 1.330078 8.197266-.329361-2.663802-.301889-5.658108-1.330078-8.197266zm53.749996.08984c-1.35285.480125 1.57173 1.270624 0 0zm-57.919918.398438.21875.662109zm56.714838.03125c-3.0043.376921 2.73868 1.21025 0 0zm-47.664056.164064c-1.55091 2.845596 1.43134.725298 0 0zm48.345696.523437c-1.35813 1.829988 5.19482 3.164032 0 0zm-57.837883.251953c-.810244.226455.80946.220482 0 0zm.3125.744141c-.684037 1.619859.610551 2.425505 0 0zm63.701163.753906c-1.26607 2.753343 1.48069 2.470801 0 0zm-1.99023.669922c-1.16884.430735 1.18023.611038 0 0zm-1.32422.0039c-1.15864.413864 1.17232.6198 0 0zm-60.707026.476561c-.810239.226454.809467.220475 0 0zm38.189446.02734c4.54207 3.797736-4.74297-1.110516 0 0zm24.38086.140626c.0194.759075 2.93945 4.59375 1.22657.667968-.91712-.831525-1.23303-.920993-1.22657-.667968zm-4.40625.02929c.45562.730022.92699 1.01952 0 0zm-57.457024.140627c-.683384-.284183.176781.651089 0 0zm64.035154.929688c-2.02708-.207592 1.97882 3.377845 0 0zm-52.162106.154296c-2.43497 1.276914 2.2495 4.185888 0 0zm45.251946.0957.88281.437501zm-16.77734.134766c-.81024.226449.80946.22048 0 0zm-41.060545.02734c-.250918.60464 1.332359.573308 0 0zm11.58985.173827c-1.18118-.142283 1.21458.593411 0 0zm53.755845.08203c.24274 2.892621 5.35797 2.354027 0 0zm-52.177725.128906c.002.594549.78352 2.392453 0 0zm28.882805 1.029295c-1.17677-.1447 1.21843.589795 0 0zm-50.347649.08789c-2.055825.254405 1.00408.973071 0 0zm72.751949.171875c-.80276.220331.80354.226293 0 0zm-25.33985.591796c2.87107-.513478-1.49932 1.716308 0 0zm-38.228505.582031c.154246 4.951575-4.618233 1.063429-1.136719 7.527344 1.848089.463491 2.620023-.210726 1.136719-7.527344zm67.541005.04688.36719.03516zm-55.410145.02734c-.81512.221016.81051.222999 0 0zm51.361325.02344c-1.34776.169089 1.42614 1.317887 0 0zm-70.617186.341798c-.885278 1.435509 2.042521-.409276 0 0zm75.298826.214844c-1.22866-.130969.25551.32111 0 0zm-73.36328.31836c-1.936971-.173296 2.473902 3.35251 0 0zm76.00781.558593c-1.22905-.126072.25556.320831 0 0zm-.66406.222655c-1.22905-.126089.25555.320851 0 0zm-72.998045.687501c-.685069-.283469.180506.650712 0 0zm-1.148439.01758c.64309 1.305885.526026-.223081 0 0zm74.835934.0098.36719.0332zm-7.50586.02148c-1.58871 1.130011 1.58478 1.125383 0 0zm-19.86719.05469.88282.437499zm32.14453.111329c-.54353 1.249196 1.5304.225422 0 0zm-3.91797.197265c-1.22903-.126075.25556.32083 0 0zm-26.90624 1.101563c-.80947.22193.80946.22193 0 0zm12.58203.537108c-1.04694 2.619562 2.22948 2.570162 0 0zm-75.843748.134765c2.453902 12.289001 12.823799 19.714224 1.505858 2.814455zm81.994138 1.119141c-1.23201-.128054.24649.320661 0 0zm-61.343747.226562c-1.07152 2.794812 2.867975 1.366312 0 0zm15.371092.326172c.25818 6.199996 2.55045 4.296333 3.10352 8.074219.95623 6.341687 3.40478 6.550659 7.511705 13.603516 4.27936 5.271729 7.12388 10.860588 10.54883 17.632813 2.99768 2.959439 8.40088 12.642743 8.13477 11.236333 1.63326-.79187-4.52049-7.212959-7.02735-13.150395-.79792-2.186762-8.27344-10.23387-5.97656-8.914062-1.69914-6.523852-2.99758-8.329523-8.742185-16.070314-1.89435 1.20444-1.74657-6.070857-7.55273-12.41211zm28.916015.11719c-.86554.386616 1.86656.982846 0 0zm-43.042967.953123c-.0247.721084.224424-.363557 0 0zm12.990232.09766c-1.17677-.144702 1.21842.58979 0 0zm30.804685.132811c-1.11334.285841 2.35247 1.390249 0 0zm-42.617182.353516c-1.282408.20959 1.285017.200375 0 0zm33.003902.335937c-1.17678-.1447 1.21843.589794 0 0zm19.72851.123049c-1.2348-.127198.25618.321995 0 0zm-57.353508.140625c-.596819.0044-2.395388.796522 0 0zm57.972648.03125c-.37999 1.019428-1.19447 1.07937 0 0zm-10.30468.34961.8789.443358zm-4.16016.177734c1.23792 2.939588-1.53631-.134193 0 0zm-43.525384.04883c-.814859.224469.804851.222483 0 0zm58.404294.779297c-3.01039.363222-.12464 3.357912 0 0zm-59.031248.31836-.03906.357423zm39.474608.560548c-.80947.2234.80869.217406 0 0zm-38.585936.002c-.685069-.283468.180507.650712 0 0zm8.785151.208984c-3.455669.03712 1.500129.811954 0 0zm-8.832027.466798c-2.505482 1.073275.851406 7.057019 0 0zm63.246092.0332c-1.17677-.144701 1.21841.589798 0 0zm-53.310546.160157c-.10909 2.302249 3.15383.331759 0 0zm-.88476.0918c-.81025.226454.80946.220479 0 0zm.70703.33789c-.68768-.285556.17489.646904 0 0zm71.228506.203124c-1.2229-.129855.25489.319969 0 0zm1.54688.212892c-1.22009-.132943.24322.328554 0 0zm-19.14844.06836c-.96131.04081-.32964 1.156872 0 0zm-6.43555.06055c.0566 2.847468 2.77788.186192 0 0zm-16.88476.03125c-1.16976-.15087 1.21229.596613 0 0zm-28.589846.0957c-1.15163 1.296474 4.76356 2.154607 0 0zm38.964846.09765c-1.17677-.1447 1.21842.589791 0 0zm32.44922.570314c-1.17281-.139017 1.22429.591807 0 0zm-19.31446.06641c-2.10746.251688 2.23273 4.634555 0 0zm-12.58789.699218c1.58428 3.325566 5.06689 7.699855.54297.197264zm5.95899.203124c1.48444 4.021228 1.43409-.06719 0 0zm-43.597656.02148c-1.96098.0077 2.0083.740541 0 0zm69.175776.296875c-1.21101-.132479.25363.317911 0 0zm-17.21875.04883c-1.21101-.13248.25362.31791 0 0zm-58.912106.08594c-.8159.227018.80976.217019 0 0zm7.72461.199217c-.8159.225545.81051.221553 0 0zm27.595706.142579c-.81486.224462.80485.222481 0 0zm36.61718.195311c-1.22904-.126068.25556.32083 0 0zm-78.958979.482424c-.684575-.283.178597.645936 0 0zm7.015623.30664c-.80946.221938.80947.221938 0 0zm77.499996.0918c-.86202-.122519 1.00474 1.171323 0 0zm-6.19336.279296c-3.24502 8.983066-.37406 12.45476 0 0zm-78.369134.08789c-.815901.227019.809762.217023 0 0zm7.285158.199219c-.81301.217395.79997.22936 0 0zm56.931636.144529c-1.23244-.150269.22557.326031 0 0zm-61.35156.220705.882812.439452zm-2.648436.09765c-.815901.225545.810513.221553 0 0zm53.755856.187502c-1.16975-.150871 1.21229.596613 0 0zm-53.316404.164062c-2.000634 1.058725.471142 4.123778 0 0zm6.624998.07031c-.80946.223408.8087.21741 0 0zm50.843746.486329c-.98279 3.563176 1.83348 4.206485 0 0zm-54.599602.09765.880859.437502zm50.773432.296877.88477.437499zm-64.66015.476561c4.662117 8.286673-.743521-.757669 0 0zm14.658202.255861c6.806552 10.631144 14.115622 23.382902 20.769532 33.347603-6.57239-11.210547-13.29806-23.569802-20.769533-33.347655zm16.556643.0098c-1.17259-.14309 1.22328.589015 0 0zm35.398435 1.626955c-1.22637-.124311.25422.325216 0 0zm31.17968.367187c-.67359-.199851.25722.692843 0 0zm-30.74218.515624c-1.22024-.128055.25359.324333 0 0zm-64.433592.763672c-.810247.224989.810235.224995 0 0zm95.779292.0332c-1.21088-.137548.2432.322324 0 0zm-41.00782.347657c-.66729-.208184.25307.682293 0 0zm-47.048817.261719c-.810239.226458.809468.220476 0 0zm-7.568359.06055c-2.004531 1.247899 2.551129 3.626448 0 0zm71.699216.320312c-1.1783-.13878 1.22441.587394 0 0zm24.85547.558594c-.66481-.187922.27099.692642 0 0zm-41.0586.121093c-.6673-.208183.25307.682298 0 0zm16.53516.119141c-2.24958-.511954 1.94359 3.591393 0 0zm-33.56055.500001c-.80946.223399.8087.217406 0 0zm-37.089837.544922c-.81024.226452.809461.220472 0 0zm6.511717.322265c-1.17677-.144704 1.218422.589791 0 0zm32.45117.570312c-1.17676-.144702 1.21842.589793 0 0zm-31.978514.08398c-1.311905.597121 1.108033-.111997 0 0zm63.849604.228516c-1.23192-.127738.25709.316322 0 0zm-31.32031.138672c-2.44526 2.30732 6.10132 2.090643 0 0zm-10.044916.236327c-1.17414-.148437 1.20848.600212 0 0zm-29.029299.183595c-.809464.221931.809465.221931 0 0zm65.761715.119141c-1.2271-.144185.22504.324587 0 0zm-59.851558.179688c1.329083 1.148017.160833.333179 0 0zm-5.03125.05273c-.925004 1.3996.632279 1.607645 0 0zm40.177728.861327c2.5097 5.47575 5.44915 1.123177 0 0zm25.27539.04687c-1.16705-.142163 1.22239.588562 0 0zm-59.714837.490235c-.815124.222495.809758.218467 0 0zm63.845697.08203c-1.55259-.05636 1.07304 1.230834 0 0zm-68.921868.06055.216797.66211zm65.539058.431642c-1.23619-.142246.22719.321204 0 0zm-64.773435.880859c-1.178084-.142836 1.223412.584577 0 0zm68.138675.777343-.0352.367188zm-27.85157.0039c-1.60202 1.67748 2.47491 1.540589 0 0zm2.09766.02539c-2.16256 1.087874 5.16889 2.88294 0 0zm-42.277343.08984c-1.272973.07303 1.275501.0643 0 0zm3.531252.429686.882811.439455zm-2.128907.212893c-1.352829.480657 1.576888 1.270284 0 0zm93.714838.13867c-1.22048-.128044.24326.328273 0 0zm-14.98242.09571c-1.38468 1.948773 1.77238.690734 0 0zm-34.4375.09375c-3.50875 3.076562 2.68345 1.582298 4.625 4.572266 2.63809-.923931-5.64946-3.087823-4.625-4.572266zm-77.636715.390626c.644734 1.811558-2.737112 5.966262.341798 9.984373 3.929188 5.137775 7.080515 10.208146 9.433595 15.556646 5.03972 5.62842 2.766435 4.95258 7.447263 10.99609-.182993-.15155 1.834098 3.06344 3.634766 5.98047.02984-.099.06432-.20141.439453-.14063.959415 1.20275.337137.99984-.148437.61914 2.41462 3.92263 4.634988 7.64194 3.14453 5.9961 1.757158 4.79761 7.216228 13.51399 7.880861 12.61523.559028 4.29367 7.041428 14.85265 5.853516 11.26367 2.864113 5.06875 5.456675 8.53487 8.902345 13.80469.81131 2.94058 3.12436 6.51976 5.49804 10.08985-.0381-.14076.0494-.34004.4336-.61329 1.15414.81959-.19236 1.02698-.40821.65235 1.55223 2.33455 3.19031 4.70655 4.23438 6.75 1.93479 5.08471 7.415905 12.69024 8.039055 12.87304.40943.0499 1.46692.34294 2.33399.80469-4.654466-4.83117-5.439425-12.37881-4.656246-18.00391-2.638989 5.14482-7.145099-2.30955-8.320319-6.1914-2.97093-2.1838-1.45236-4.66415-5.27148-8.66211-3.53381-1.04436-3.72378-10.62137-4.08789-10.70508-9.312678-5.89234-5.888504-9.9187-4.632812-9.8418-4.757195-6.33553-3.456091-3.96615-9.84961-10.21679 10.667553-4.0555-5.970738-2.82589-4.771484-9.98836-1.646094-2.4904-2.837227-6.71698-5.548828-9.24218.216954.79116-.855135 1.2885-.851563-.63868-.387009-.27302-.682326-.65421-1.132812-.84961.470455-4.65953-3.272685-4.87472-5.921874-13.00976-3.270346-2.870178-9.641809-10.85173-8.134767-12.558594.01248-3.426032-3.437805-4.03381-3.88086-7.324218zm19.070313 33.742189c.290924.20523.592095.39704.851563.63867-.0793-.28916-.324332-.59893-.882812-.82813-.0055.1024.03142.0985.03125.18946zm43.333986 65.48625c.64421-1.25591 1.283916-2.60218 1.613276-5.69922-.713536 1.3241-1.286556 3.35257-1.613276 5.69922zm4.656246 18.00391c.003.003.007.005.01.008-.005-.003-.005-.005-.01-.008zm.01.008c.86424.46336 1.53868 1.09497 1.18164 1.82617 3.63556 3.56146 4.68448 2.74511 1.98243.66016-1.21725-.69684-2.25627-1.54566-3.16407-2.48633zm-14.617476-20.43567c-.009-.0136-.0163-.0254-.0254-.0391.005.0174.0165.0237.0254.0391zm-31.304681-53.80859c-.145178-.23585-.146914-.24508-.291016-.47852-.03978.13196.05868.29637.291016.47852zm106.927777-42.875069c-1.17699-.140651 1.21944.592609 0 0zm-92.605464.269532c.660096 5.118377.219415 9.378289.888674 1.421875l-.220703-.972658zm77.933594.05469c-.0462-.222444-.44592-.250955-1.48242.175782-1.42229 2.903581 1.62099.491549 1.48242-.175782zm-80.142576.04297c-.807365.218328.798933.228289 0 0zm65.541016.339845c-1.22674-.149106.22501.324838 0 0zm-64.843751.0664c-1.653107.805706 1.703666 1.749604 0 0zm79.214841.164064c-1.81214 1.330287.67975 2.319771 0 0zm-78.105466 1.308593c-.682799-.283811.174627.646321 0 0zm76.748046.40625c-1.22905-.126068.25555.32083 0 0zm-30.25781 1.003908c-.54535.190683-.71469 1.750921.6289.423827-.22306-.39828-.44713-.48739-.6289-.423827zm-6.9961.445311c-1.22706.02614-.47099 1.574284 0 0zm8.57813.01172c-1.05398 2.33275 4.42304 1.090583 0 0zm44.39062.71289c-.66153-.185149.27474.691526 0 0zm-42.18359.164062c-3.65901.849318 5.93962 4.209617 0 0zm29.33203.08203c-1.22905-.126069.25556.32083 0 0zm-41.0586.564455c-1.23012-.146025.22659.320253 0 0zm53.47852.07617c-.95684.03445-.33374 1.159948 0 0zm-55 .195313c1.22396-.03101.24069 1.447841 0 0zm29.99219.746094c-1.22904-.126074.25555.32083 0 0zm24.41797.109375c-6.66467 8.452179-7.14566 11.444667-.10938.320311zm-91.945312.146483c-.0103.0452.42103.305168 1.101563 1.087892l.445312-.884764c-1.084622-.07874-1.53657-.24832-1.546875-.203128zm2.771486.16211c-1.435687.467522 1.685595 1.418228 0 0zm49.960926.728517c-1.22865-.130971.25552.32111 0 0zm-49.117179.499999c1.302525 2.769291.937162-.331628 0 0zm-31.810546.238282c-1.322154.786038 2.028177.753115 0 0zm29.296876.339843c-1.588708 1.130001 1.584767 1.1254 0 0zm34.660149.566406c-2.93717 3.567195-8.611296 12.090307-2.22265 4.423829-2.32426 7.139688-9.989036 41.890338-3.35547 16.123048 2.16857-6.4156 3.29729-14.310643 5.57812-20.546877zm-62.699212.173827c-.255282.611139 1.33996.572628 0 0zm121.634762.326172c-1.89376 2.609118.84629.845192 0 0zm-19.00781.443362c-1.23619-.142253.22718.321202 0 0zm-100.644531.421874c-.815898.227026.80976.217021 0 0zm-7.064453.369141c1.584928 1.12981-1.589109 1.130704 0 0zm37.75.205076c-.814854.224473.804856.222483 0 0zm-4.197265.234377c-.814856.224464.804854.222473 0 0zm-.441346.439513c-.81024.226449.80946.220481 0 0zm58.650385.109375c.40246.31112-1.15144-.02024 0 0zm.55664.285157c.18319.656703-.69091-.27454 0 0zm.60352.177734c1.0752 1.178846-.82117-.04497 0 0zm-88.732479.08392c.993058-.180815.222076 1.138697 0 0zm29.13867.449219c-.809459.223402.808704.217406 0 0zm69.240229.111328c2.17288 1.485451-.58523 3.899496 0 0zm-63.943353.316406c-.815118.221017.810508.222996 0 0zm59.164053.185547c3.70179 2.42014.13668 4.29029 0 0zm12.5586.576171c-1.2271-.144185.22504.324589 0 0zm-70.841795.560547c-.80764.21634.80381.224314 0 0zm35.367185.01758c2.07755.930703-.74006 2.480043 0 0zm39.8789.291016c-1.2229-.12984.2549.319947 0 0zm-101.03124.101563c-.683948-.287259.177724.647424 0 0zm26.712894.58594c-.68704-.28982.174.648375 0 0zm50.675776.04492c-.4681 1.870443.8095.153896 0 0zm20.55078.597655c-1.22905-.12607.25556.32083 0 0zm5.32422.484376c-2.50631 2.670201-4.19322 7.254981-.78907 1.767581zm-83.22656.09961c-.810238.22645.809462.220474 0 0zm87.31054.09375c-1.17281-.139022 1.2243.591811 0 0zm-87.531244.568361c-.808411.219396.804582.22737 0 0zm-15.894532.04492c-.814851.224469.804861.222477 0 0zm94.896476.0332c-1.22329-.12494.25494.319666 0 0zm-116.273429.240234-.03906.357416zm65.654289.06055c-1.720047.322356-.93633 2.370926 0 0zm50.83203.794926c-1.20611-.11644.2694.32779 0 0zm-70.167956.25586c-.90843 1.88877.99407 1.6497 0 0zm-46.802737.2207c-.810246.22645.809461.22048 0 0zm64.937496.35547c-1.225409.0329-.48325 1.57911 0 0zm-65.333981.20508c-.679705-.28125.178324.64535 0 0zm118.062498.12304c.25905 1.18106.96106-.20315 0 0zm9.01757.14453c-1.211-.13248.25363.31791 0 0zm-44.78515.40039c-.60625-.25071-.58168 1.34261 0 0zm45.66797.0391c-1.22905-.12607.25555.32083 0 0zm-65.533196.0156.88086.43946zm-14.79493.35157c-.81485.22446.80486.22248 0 0zm-48.298824.0312c-.692383-.28483.175905.65594 0 0zm129.0664.041c-1.22329-.12495.25494.31966 0 0zm-32.53125.0352c.24098-1.07944-1.12659 1.99743 0 0zm-57.287102.13672c-.810239.22645.809457.22048 0 0zm-39.957033.24414c-2.441608 1.17557 2.430868 1.172 0 0zm50.220699.72851c-1.17999-.13778 1.209091.5917 0 0zm69.457036.002c-.95758.0346-.33585 1.16159 0 0zm-118.576172.0176c-.807358.21832.79893.22829 0 0zm102.738282.0996c-1.69522.32092.27786 4.4054 0 0zm-72.9375.041c-.81513.2225.809752.21847 0 0zm-29.142579.0801c-.81024.22646.809464.22048 0 0zm.662111.21876c-.810246.22645.809457.22048 0 0zm108.955078.0117c.73301 3.49799-2.0476.0163 0 0zm-108.29297.20704c-.810238.22645.809462.22047 0 0zm95.33984.0312c-1.22329-.12494.25494.31966 0 0zm-34.166016.10351c-.66481-.18792.271.69265 0 0zm-60.509762.084c-.815901.22702.809749.21702 0 0zm-4.638673.14648c-1.016357.90623 1.042015.13909 0 0zm98.900391.16406c-2.8517-.21656 2.1597 3.62254 0 0zm-92.277343.34571c-.802759.22178.802759.22178 0 0zm121.210933.15234c-.59082.0238-2.3915.79306 0 0zm-75.699216.14648-.0371.36524zm-11.294918.26758c-.81591.22702.809755.21703 0 0zm85.013664.0742c-.66564-.19771.26027.68276 0 0zm-37.11133.36719c-2.07536 2.88012 1.72582 4.86944 4.63477 11.54492 2.8669.78198 6.13514 16.065 5.66797 13.8125-1.9617 9.04236 1.41392 8.69568.60937-.73242-1.29009-7.92162 4.4745 8.43363 6.22266 4.90625-2.34402-3.78058-1.72128-6.54655-.56836-11.58594 2.62083-9.48365 7.03012-21.89401-.46094-11.80078-2.75232 8.63457-5.21843 15.66957-5.9082 7.62109-.22811 1.00481-4.28291-3.01434-8.44141-9.79882 1.18826-1.28271-1.79159-3.51389-1.75586-3.9668zm17.13477 29.53125c-4.31864 3.89574.13034 5.31633 4.15039 5.9668-1.38054-2.09916-3.2875-5.36814-4.15039-5.9668zm4.15039 5.9668c.30194.45911.68622 1.01656.9082 1.30468 7.00616-.78809 3.28046-.62694-.9082-1.30468zm-46.037106-35.48632c-1.22329-.12494.25494.31966 0 0zm-28.451172.002c-.810238.22645.809469.22047 0 0zm89.187498.10547c-.89317.60738.84107.29334 0 0zm-37.5293.10351c-1.58979 1.13415 1.58438 1.12626 0 0zm17.23633.13477c-.87596-.13886.98483 1.17276 0 0zm-5.125.43945c-1.22904-.12608.25555.32085 0 0zm-.875.0117c-1.44648 1.47148 1.97438 2.89563 0 0zm-57.931636.63477c-1.169921-.14563 1.212546.59454 0 0zm-1.65625.45898c-1.489476-.0451.320469 1.51148 0 0zm60.277336.67383c-.86245-.11733 1.0068 1.17329 0 0zm-58.734368.0742c-.809465.22341.808699.21741 0 0zm57.726558.6211c-1.17258-.1431 1.22327.58901 0 0zm-43.624996.084c-1.22476-.13994.22606.31882 0 0zm44.175776.36718c-1.46421 5.52698 1.82919 6.91175 0 0zm5.95899.20508c.49267 1.43148.74031-.49424 0 0zm-87.599608.69531c-.07514.13738-.09279.35565.173827.24219.03395-.43606-.09869-.37957-.173827-.24219zm38.601562.50391c-.86348-.12728 1.0093 1.17393 0 0zm49.089836.0195c-1.89346.0442 1.9659.7006 0 0zm-61.46679.27539.369142.0332zm-2.363281.37891c-1.565633-.13644 1.006424 1.22037 0 0zm73.666011.0879c-1.61084.34181.81295 2.43937 0 0zm31.28711.18554c-2.1594 1.16089 2.32508.50217 0 0zm-2.17773.11914c-1.2233-.12496.25493.31969 0 0zm-98.669921.0566c-1.230131-.14602.22658.32026 0 0zm47.042961.14063c2.4142 2.86451-3.10141-.1183 0 0zm15.23242.17968c-3.13306 4.11025-3.1909 24.18471-4.9414 11.67188 1.27435-3.21456.99937-6.47965 1.85547-8.81445.17699.40394 1.60629.19281.43164-.64454-.36518.25984-.4325.44558-.41016.58594.49066-1.29591 1.24596-2.37813 3.06445-2.79883zm-61.615225.33985c-1.230134-.14602.226589.32026 0 0zm68.013665.30469c-9.52861 11.2218-3.76469 8.05378 0 0zm-56.486326.33593c-.66775-.20158.25443.68909 0 0zm45.427736.043c-1.86203.32066.25447.53671 0 0zm36.44336.21289c-1.3698.90868.14865 6.08243 0 0zm-4.82032.0859-.0352.36719zm-32.95507.1836c-1.22311-.13004.24446.32412 0 0zm-1.07813.2793.36914.0332zm-42.449216.10742c-.0227.59557.77124 2.37512 0 0zm40.749996.0488c-1.48746 1.68825 2.33247 4.34707 0 0zm-5.83593.38867c2.32476.99472-1.26961.96463 0 0zm4.6621.12695-.9082.49414zm-1.57421.61133c-1.22615-.12662.25645.31517 0 0zm-45.667966.40235c-1.17601.49789 1.15674.54053 0 0zm8.57812.58398c-1.22329-.12494.25494.31967 0 0zm93.408206.0137.36914.0312zm1.10351.21875c-1.68491.31271 1.34391 1.32811 0 0zm-64.01758.17773c-6.73334 2.2297-31.284026 7.62914-24.964836 6.91211 7.325106-1.49389 18.021226-3.93291 24.964836-6.91211zm-30.054686.0312c-1.2229-.12984.2549.31995 0 0zm31.128906.13086c-1.2229-.12985.25489.31995 0 0zm14.19141.0898-.0371.36719zm49.63281.008c-1.67218 1.40974 2.99681 2.16679 0 0zm-6.5957.19922c-.66787-.20414.25389.6807 0 0zm-48.17383.34571c-1.23013-.14602.22659.32025 0 0zm48.11523.74414c-1.22329-.12494.25494.31966 0 0zm-87.203116.0176c-1.20307-.11243.26979.32214 0 0zm-5.23828.2539c-.67258-.20352.25459.68969 0 0zm66.201166.51563c1.58086 1.13331-1.59367 1.13229 0 0zm-98.310543.41406c.402549.3106-1.152046-.0155 0 0zm-17.814453.44532c-.809465.22193.809463.22193 0 0zm142.359376.56054c-1.22905-.12608.25554.32085 0 0zm-85.947266.14844c-2.41166 1.07078 2.46636.81218 0 0zm-3.01758.32227c-1.22905-.12607.25556.32083 0 0zm-54.279296.29492c-.815901.22702.809752.21702 0 0zm100.441402.73437-.22266 1.10352zm-44.828126.0586c-.013 1.44448 1.55336-.71515 0 0zm87.845706.42774c-1.20829-.13554.24205.32646 0 0zm-144.080076.004c-.683951-.28727.177717.64742 0 0zm103.462886.10742c-1.22329-.12494.25494.31967 0 0zm51.46289.13281c.26071 1.17862.96258-.20825 0 0zm-97.603506.21875c-1.2233-.12494.25494.31967 0 0zm-58.476568.88087c-1.013228.90361 1.039508.14188 0 0zm157.156244.39453c-1.23012-.14604.22658.32028 0 0zm-94.017566.31055c-2.15614 4.01079 1.184309 3.54081 0 0zm-4.85938.0176c-2.97061.17813-1.91259 1.75193 0 0zm100.037106.83594c-1.31125.14864 1.17916 1.38426 0 0zm-103.126946.0527c-8.96663 1.78618-26.125241 8.64459-6.1875 2.22461 2.05455-.62699 4.46411-.83788 6.1875-2.22461zm37.718746.0606c-1.2233-.12494.25494.31966 0 0zm-.85352.0586c-4.31202 3.29093-22.86035 12.2518-13.71875 11.07422 4.27217-2.95346 17.90273-10.05207 14.375-8.65039 1.05845-.73257-.55583-1.81483-.65625-2.42383zm1.03516.20508c-.0193.59589.77823 2.37485 0 0zm-54.710935.55273c-1.223291-.12496.254932.31969 0 0zm25.746088.18945c-1.178289-.13878 1.224417.5874 0 0zm63.658207.22266c-1.22905-.12607.25555.32083 0 0zm31.26757.30469c-.22118 2.08585 1.76889 2.40942 0 0zm-93.962887.31054c-1.229429-.12118.255587.32056 0 0zm.580077.26172c-1.172587-.14309 1.22328.58902 0 0zm33.66211.36133c1.58145 1.12229-1.57849 1.12838 0 0zm-32.89062.31055c-1.08085.47911 1.13899.53795 0 0zm36.39257.0664c-1.22329-.12494.25494.31966 0 0zm17.68946.44727c-1.99632 9.12895-11.0222 34.94549-7.49414 24.89062.63207.76298 1.03649.69218 1.63476 1.13086-.99053-3.5368 2.72977-9.12205 3.84571-16.96485 1.16664-2.27153 1.97113-6.77129 2.01367-9.05663zm-5.85938 26.02148c.3359 1.19933 1.19843 2.17046 2.90821 2.90429 1.97241-1.06721-.23186-.94192-2.90821-2.90429zm53.32227-25.9375.66211.21875zm-7.69141.31836-.0352.36719zm-95.873037.14062c-1.229049-.12607.25555.32083 0 0zm38.197257.11719c-1.23012-.14604.22658.32028 0 0zm42.5957.53906c-1.22904-.12607.25556.32083 0 0zm-3.5332.0117c-1.22905-.12607.25556.32083 0 0zm-3.5.0605c-1.6538.88078 1.94712 3.09571 0 0zm12.3125.10156c1.90395 2.81929 5.98347.12808 0 0zm10.42383.49805c.41529 4.21897 2.62783 2.03149 0 0zm-90.62109.24023c-1.16997-.14679 1.21333.59943 0 0zm25.9082.10743c-1.20829-.13554.24204.32646 0 0zm58.30664.33398c-4.45371 1.73649 5.28566 3.04088 0 0zm-151.955077.49024c10.865575 7.6337 12.67876 5.83036 25.658203 9.13477-6.309148-1.51863-12.322531-3.50886-2.630858-5.73438-7.503518 3.93608-16.624273.79991-23.027345-3.40039zm154.624997 1.44922c-.67155-.20721.25196.68654 0 0zm-1.13086.0449c-.56557 2.04047 6.66881 2.83761 0 0zm-10.8457.19531c-1.22311-.13003.24446.32413 0 0zm-41.87891.24414-.0352.36719zm42.1543.65039c-.67155-.20721.25196.68654 0 0zm-19.70313.041c-1.20829-.13554.24206.32647 0 0zm-99.564445.5c-1.223684-.12006.254974.31941 0 0zm97.574215.16992c-1.21677-.13362.25423.31908 0 0zm40.39844.54688c-1.22291-.12986.25489.31997 0 0zm-18.88282.29687c-1.51249-.09.50481 3.39638 0 0zm-20.18945.041c-1.23708-.14168.23874.31663 0 0zm-25.58203 1c-1.65469 7.5334-2.60885 11.75437 1.69922 3.6836-3.70093 2.43128-.0976-3.50535-1.69922-3.6836zm42.13281.0508c-1.22614-.12662.25646.31517 0 0zm-25.16015.0742c-1.23013-.14601.22659.32026 0 0zm-77.699218.01c-.778872.91747.278689.34031 0 0zm76.587888.21094c-1.22615-.12663.25645.31517 0 0zm-.66211.2207c-1.21438-.13179.24264.32737 0 0zm-41.39649.25586c-9.092967 2.52423-1.1807 5.16608 0 0zm39.65821.2461.36718.0332zm-.69727.1621c-1.20307-.11241.26979.32215 0 0zm-.84766.0606c-9.16454 1.60959-1.66065 1.524 0 0zm36.75391.10743c-1.17677-.14471 1.21842.58979 0 0zm-2.78906.1875c-1.22311-.13004.24446.32412 0 0zm-48.0957.18945-.22461 1.10547zm-1.10547.22461c-.48778 7.35784 2.69271 3.58056 0 0zm-3.95313.18359c-.6611-.18484.27297.68679 0 0zm52.95899.1211-.0391 1.03906zm-131.378905.0898c-1.223289-.12496.254932.31968 0 0zm46.414059.10547c-.66831-.20448.2557.68544 0 0zm-47.076168.11718c-1.210895-.13755.243217.32233 0 0zm-.66211.22071c-1.223293-.12495.25494.31966 0 0zm-.664063.22461c-1.223104-.13004.244462.32412 0 0zm-.664061.22265c-1.213723-.13671.252909.32375 0 0zm-.660158.22071c-1.223291-.12495.25494.31966 0 0zm57.425776.33789c-11.061346 5.68957-4.335516 5.6434 0 0zm27.56445.0898c-1.22309-.13005.24447.32412 0 0zm54.35157.0879c-.88048-.15145.98276 1.17404 0 0zm-121.01953.0957c-1.223292-.12495.25494.31966 0 0zm77.27539.23632c.19398.32203-1.23314-.16859 0 0zm-10.6836.19336c-3.75808 2.10294-29.49063 7.69852-16.91015 5.68945 5.00016-3.10103 17.49169-.97377 16.91015-5.68945zm49.96485.12891c-1.23519-.12232.2562.32174 0 0zm-11.92188.47461c-1.214-.13669.24263.32765 0 0zm-30.64453.0996c-.86631-.12548 1.00201 1.17705 0 0zm42.62891.37891c-1.30747.14768 1.17958 1.3758 0 0zm-37.125.0898c-1.95033 3.40926 4.05896 8.46705 3.00586 6.78906 1.43224 4.31628-.30656-4.68514-3.00586-6.78906zm20.29687.12304c-2.0242 13.57233-14.47795 24.23486-1.62695 34.04102 5.06139 9.46129 12.5669 22.62719 2.67187 6.78515-4.46065-7.87156-14.15357-20.53078-4.6582-6.56054 1.42174 3.66417 6.94184 11.56622 6.37109 10.80273 4.28497 8.96871 6.62439 11.16135 10.32227 17.02735.002 1.45661 7.1409 14.3069.43555 4.35547-2.1793 1.21143-16.60034-4.4728-8.80469-9.6875-2.78829 4.28349-4.35418 3.88138-5.97461 2.63867 1.78609 1.43674-2.37549.13124-.14844-.0527-1.75207-1.39756-3.60304-3.72728-7.12109-2.55078 12.97123 7.08755 2.75789 4.20559 13 9.01563 4.71304 1.97456 15.45309 10.63212 12.08203 7.99023 3.61318 1.56583 4.86692 3.23599 9.2793 9.83203 2.74683 4.87675 4.20755 7.48836 6.15625 9.69336-14.49019-27.57443 15.42131 23.75533 8.62695 10.41407 2.78317 7.86129 11.60187 16.51396 10.37695 22.26171.48116 1.3332 9.85786 17.59487 4.96484 6.60937-9.2962-16.03732-1.48978-4.79545 2.02344-1.62109-2.76921-2.67746-6.40269-10.99042-5.21483-8.6328-4.91889-3.05407-.66705-5.47506 3.45117-6.97656-1.21794.31629-.81231.31656-2.82423.77342-5.64691 1.40669-8.25538-4.27773-10.70703-9.86523.70745.10499 1.31463-.74658-.79687-1.73047-.009.0714.032.0739.0273.14063-.65652-1.47322-1.34051-3.08055-2.06054-4.26758-8.69785-3.98268 18.44398 3.57167 2.24218-1.5-10.1203-3.19456-7.98466-10.5417-9.42187-14.14063 10.68318 4.91553 1.53465-.45476 11.45508 7.84376 4.75569 4.08804 5.43038 5.99046 5.90234 3.12304.21875-.4032 2.37486-.0522 4.28906.56836-.5165-.49989-.76889-.46427-1.48437-1.38867-1.93167-.44043-11.00708-6.88938-9.41602-6.04297-2.62314-.84184-7.49224-6.16183-13.38281-8.41601-5.89946-3.36714-13.73209-20.06963-11.67383-16.44141.17174-3.97006-10.02167-9.542-7.57031-16.20313-4.11295 3.04431-8.49169-8.05279-6.63867-6.85742-1.6535-2.21309-7.75053-10.08673-5.76758-8.85351 1.6665-2.02182-1.3794-6.09489-3.08203-5.29102-7.10289-5.19026 30.10894-10.41797 10.41406-7.17969-22.66134 10.25578-5.81382-7.96074-5.7168-19.65625zm10.79102 47.83789c.80805-.5981 1.60759-1.55034 2.3457-3.45898-1.25434 1.18613-1.93144 2.33331-2.3457 3.45898zm43.52734 48.49219c1.13428 1.09782 1.86599 1.49099 2.14258.98633-.59647-.3786-1.26872-.70304-2.14258-.98633zm2.14258.98633c.80287.50961 1.28806 1.04918.74805 1.57422-.42522 3.35141 5.02042 6.15641 6.53126 5.39259.88658 1.73624 6.32827 4.86236 6.61131 5.27732 5.91194 3.79925 2.96755 3.35903 6.59961 7.48829 4.25891 6.79204-4.94192-8.70002 5.07617.9707 7.65911 1.53618 7.52073 11.61033 7.71486 5.17579 7.29884 4.42016 12.63563 8.28804 13.30859 12.71875 1.66808.50739 4.01524 6.10431 1.17969-.9414-4.7802-5.46444 3.37066-3.32862 5.23436-.13869.82244.79257 1.91362 1.42242 2.84765 2.2168.14658-.16161.35587-.32948 1.00978-.46093.26679.67998-.007.89933-.35156.97266 7.70042 6.40108 17.54961 12.50701 15.58203 11.66797 12.8956 7.91793 5.15062 2.95381 2.40234-1.20314 13.99083 9.52302 4.92559 3.3315 9.23632 9.0293 5.04979 8.97155.91475-7.31673 7.0625 3.2832-8.09652-3.55606 11.4589 9.10161 2.11329 1.41603.32152-3.28861-2.9831-1.68359-6.72657-8.68556 5.31535 1.69339-4.79847-2.94192-6.60742-4.83984 13.04381 10.16989-4.20056 2.74277-4.03125-4.97461-4.56699 1.9895-9.91572-.0733-9.63475-3.81639 2.61014 1.48485-11.06574-9.83852-1.76953.88867-6.4991-1.25445-4.56458-5.47019-1.78125-9.52149-1.07882 1.00515-2.47906 2.03108-4.68166 3.09569 1.01278 3.31486-8.1799-5.13197-13.36522-9.27733 1.2348.0811-10.52046-8.23083-8.01758-7.86914 2.18446 2.06928-.38933-1.39292-.0742-1.79102.99313.16968 2.49804.57619 3.68164.81446-3.52173-1.24721-5.89671-2.67575-7.01564-4.54103.041.6912-.33466.80727-1.04686-1.03906.11817-.34873.0386-.72852-.0449-1.08985.36844.42849.61534.78385.78516 1.20899-.37486-.91458-.70514-1.8413-.68751-2.95899-2.64372-3.62022-3.1069-2.25876-3.34765-1.5332 1.5324 1.22353-1.06693.38385 2.45118 3.14259.30076 7.51649-1.1505 4.48826-.12696 9.15624-3.64966-6.18791-4.00841-5.45335-7.0625-6.96679 5.88564 5.53123-1.50264.38913-5.94141-.28126 8.36364-3.59089-8.04862-8.70214 1.55077-2.4375-8.37681-2.23316-3.77807-4.91934-9.31443-9.09179-1.50601-4.01463 2.58204 7.27407 2.4785 6.24413-.72358.2086-1.62341-.13497-2.58789-.70702.31261.81197-.32461 1.8714-.93945-.61133.16121-.006.19369.11765.31445.1582-5.50949-3.87611-13.37621-16.81386-13.85156-18.60351 3.48964 4.75401 5.22074 10.15186 4.48828 11.48828zm9.36328 7.11523c.20754.14602.42479.33438.625.45313-.0925-.2402-.32966-.35397-.625-.45313zm19.17774 1.39454c-.30341-.24226.22171-.0809-.58205-.57618.35597 1.26474.43983 1.00481.58205.57618zm4.03515 4.49219c.12084.29481.14088.64359.30663.91991-.0149-.25183-.15658-.54424-.30663-.91991zm7.32227 5.46094c2.56774.90935 5.60235 1.75104 9.73242 2.51172 1.37576.75907 2.15464.77275 3.21874 1.13279-4.48736-1.57927-8.81489-2.81185-12.95116-3.64451zm12.95116 3.64451c7.26961 2.55847 12.94407 5.83988 10.57618 9.87111 1.40714-1.92304 2.28007-3.48051 2.76563-4.72657-.39239-.0701-.6513-.33751-.0195-1.24805.32127.0826.26886.18898.44141.28517-.001-.12437.26054-.40283.2207-.50587-5.46449-6.56507-6.45623-1.12852-13.98438-3.67579zm13.76368 4.18166c.002.23688-.30271.65709-.42187.96288.62306.11126 1.3813-.42811.42187-.96288zm-3.1875 5.68945c-.37321.51004-.71012.98744-1.0703 1.51172.55651-.51853.77602-1.01071 1.0703-1.51172zm12.11523 13.96093c2.28741-.99646 4.41903-2.70396 5.46876-6.33789-4.14602 1.85857-5.4199 4.11136-5.46876 6.33789zm-19.03124-5.69335c-.21997-.18285-.44241-.32819-.65822-.51173-.32498.35834.17693.61405.65822.51173zm-56.75781-22.17773c6.76637-1.75724 4.44156-1.61941 0 0zm-57.62501-56.03517c.0476.038.10091.0163.14844.0527-.0527-.0424-.00064-.0346-.0644-.082-.069.003-.0246.0244-.084.0293zm-30.35547-58.92605c.1912.45383 1.2944-.32642 0 0zm-.56054.35547c-1.17677-.1447 1.21842.5898 0 0zm-46.158206.0371c-1.89628.052 1.9769.69289 0 0zm46.931636.19336c-1.67862 1.10303 1.28106 2.35315 0 0zm-62.615225.20898c-.35046-.26923.07704 1.19792 0 0zm18.238279.13868c.84759.64861 6.6359 6.73399-3.09765 3.53906 8.10517 4.73016 17.101516-2.48707 3.09765-3.53906zm116.972656.5c-1.2233-.12495.25494.31967 0 0zm-.19336.71875c.8093 2.2137 1.73515.07 0 0zm-109.277336.084c-1.58912 1.1307 1.58492 1.12981 0 0zm92.246086.1289c-1.22329-.12494.25494.31967 0 0zm.0273.49609c.26701 1.17767.96231-.21515 0 0zm-12.64648.24415c-.0216.59503.77014 2.37049 0 0zm-43.09961.041c-.51956 1.37514.55981 8.73573-1.24219 12.67578-4.08541 16.40926.39353 4.41687 1.41406-4.48438.82154-.3248.2824-2.12113 1.04688-7.22265-.69431-1.21989-1.04556-1.42714-1.21875-.96875zm-52.011716.40234c-1.22598-.12919.25419.3255 0 0zm-3.794922.64453c.393905.31687-1.141668-.0245 0 0zm20.378902.4668c.77724.49994 2.01774.80025 3.076179 1.32031-.12564-.10775-.10955-.27048.23242-.55078zm3.076179 1.32031c.0297.0255.0838.0412.13476.0586-.0468-.0228-.0883-.0358-.13476-.0586zm.13476.0586c6.453577 3.14279 15.730687 6.10991 5.394527-.29883 7.77916-2.41373-3.79147.84725-5.394527.29883zm41.572267-1.33789c-1.22329-.12494.25494.31967 0 0zm-59.603516.16601c-1.22943-.12119.25559.32058 0 0zm90.755856.46485c.27166 1.18128.95659-.21563 0 0zm17.2207.39062c-.74986.3886 1.18273.0262 0 0zm-58.02344.0156-.0352.36719zm-47.499996.28321c-1.28189 1.09083 1.83133 1.33347 0 0zm133.113286.73242c-1.09593 2.27257.6238 1.36676 0 0zm-36.86719.32031c.0825 1.61866.50981.10592 0 0zm-94.261716.0449c-1.75049-.0345-.41541 1.24399 0 0zm62.033196.043c-.74974.38872 1.1827.0261 0 0zm30.03125.54102c-.87113-.1277 1.00244 1.17763 0 0zm-39.99804.0977c-1.22329-.12494.25494.31966 0 0zm-51.847656.1582c-3.46292.69301 4.14881 1.21827 0 0zm61.369136.0898c.26067 1.17489.96388-.20617 0 0zm-.95508.0879c.15161 2.25747 1.25431.22879 0 0zm44.00391.0137.66211.21875zm-97.798826.0527c-2.25758.81076 1.6192 1.52521 0 0zm112.999996.51367c-1.22615-.12662.25646.31517 0 0zm-25.33789.0781c-.66273-.18851.26505.68841 0 0zm-92.326166.0293c-1.22905-.12607.25555.32083 0 0zm66.904296.24024c-.0143 1.44623 1.54428-.71222 0 0zm36.21679.18945c.24432 2.05041 1.68205-.0959 0 0zm-117.664015.1074c.08597 1.6188.511695.0997 0 0zm14.863279.01c-2.16827 1.58263 4.31545.58803 0 0zm22.939446.15625c10.24085 6.70907 19.36721 6.31105 0 0zm89.32227.74805c-1.22943-.12119.25559.32057 0 0zm-.66406.22265c-1.20829-.13553.24205.32647 0 0zm-19.42774.0547c-1.22272-.13494.24443.3244 0 0zm18.13282.004c-2.88174.21289 1.7653 1.98674 0 0zm-113.718746.041c-1.22329-.12494.25493.31967 0 0zm5.43554.2461c-1.1728-.13902 1.2243.59181 0 0zm102.542966.16992c-.74785.3815 1.18221.0206 0 0zm4.19336.20898c-2.83307.41317-1.04572 1.73076 0 0zm-122.990228.0664c-1.225976-.12919.25419.32551 0 0zm106.404288.14258c-1.22329-.12495.25493.31967 0 0zm-89.406246.0332c-1.22588-.13182.24586.31976 0 0zm21.628906.38086c-1.21101-.13248.25362.31791 0 0zm-38.787105.23633-.03516.36914zm118.701165.21094c-.33585.28971 1.29879 1.26429 1.13282.0449-.68928-.16238-1.02087-.14149-1.13282-.0449zm-99.339836.0488c-1.22905-.12607.25556.32083 0 0zm-1.73633.0586c.48744 1.43039.74196-.49492 0 0zm94.367186.12695c.11974 5.12923 4.59216 4.67694 0 0zm-20.22461.0527c-1.22329-.12496.25493.31969 0 0zm.66211.21875c-1.22329-.12494.25494.31967 0 0zm19.43945.10742c1.39349-.17663-1.13454 1.33864 0 0zm28.49414.0371c2.29939 1.4507 4.50484 6.3461 6.51563 9.9707-1.54274-4.42366-3.54792-8.72676-6.51563-9.9707zm6.51563 9.9707c2.47938 7.10942 3.42409 14.64941 2.69531 11.19727 4.36498-6.37946 1.37376.42105 3.34961-12.5957-1.50162 8.2302-3.62618 5.75842-6.04492 1.39843zm-28.61914-9.96484c-1.22329-.12494.25493.31967 0 0zm-25.16211.0723c-1.22674-.14911.22501.32484 0 0zm-73.736326.20099c-1.22311-.13003.24446.32413 0 0zm74.394526.0117c-1.22009-.13294.24322.32856 0 0zm23.17969.15625c-1.22637-.1243.25423.32522 0 0zm-116.939451.0156-.03711.36914zm94.419921.0469c-1.22024-.12805.25359.32433 0 0zm21.85546.16211c-1.22047-.12804.24327.32827 0 0zm-21.19335.0586c-1.217-.1338.24384.32322 0 0zm20.33789 0-.90821.49609zm-19.67774.21875c-1.22329-.12494.25494.31967 0 0zm.66211.21875c-1.22329-.12494.25494.31966 0 0zm.66797.22461c-1.23013-.14605.22657.32028 0 0zm-38.83203.16016.36719.0312zm39.49414.0586c-1.23584-.14719.22714.32144 0 0zm-97.531246.0566c-.660546-.18884.272154.6884 0 0zm98.646476.0449c-2.30931 1.11293 2.71175.70533 0 0zm-25.82031.0195c.17825 2.27445 1.62693.24239 0 0zm-51.765615.1289c-1.16997-.14679 1.21333.59942 0 0zm90.597645.15235c-1.22709-.14418.22506.32458 0 0zm-8.83789.0195c-1.22329-.12495.25493.31966 0 0zm-2.17969.50195c-1.07729.48863 1.14061.53407 0 0zm-42.36718.0371c-.5969.0146-2.39555.80209 0 0zm62.89843.12695c.26667 1.18532.9614-.21074 0 0zm-14.85937.17969c.40255.3106-1.15204-.0155 0 0zm-3.66211.0469c-.66281-.19529.26581.68639 0 0zm-110.499994.12886c-1.048573-.40499-1.638279 1.92359 0 0zm66.326164.25977-.0352.043zm-.0351.0449c-2.43598-.33505.0779 3.76928 0 0zm56.32617.0234c-.80405 5.27598-.10036-1.47656 0 0zm-17.19141.22461c-.67053-.21091.24932.68337 0 0zm8.5332.19726c-.77296 1.64718 2.05349-.33905 0 0zm-28.45898.50391c-1.22329-.12496.25493.31969 0 0zm-4.84375.25586c-.78107.90742.27606.34018 0 0zm24.04492.35547c-1.22329-.12497.25493.31968 0 0zm17.4707.22851.36719.0312zm44.60546.0508c-.86648-.11502 1.00439 1.17616 0 0zm-100.26562.0469c-1.2233-.12496.25493.31969 0 0zm94.26367.40039c-1.2231-.13003.24446.32413 0 0zm-95.23047.0879c-1.17677-.14469 1.21843.5898 0 0zm50.66211.0957c-3.83593-.64504-.59081 2.56451 1.70313 4.78711-.37702-1.2551-.45436-1.70934-1.70313-4.78711zm1.70313 4.78711c.10891.36257.31464.80776.49218 1.38282.80478.45514.52952.15842.64649.13671-.265 1.64077 2.18812-.5765.0351-.35351-.2991-.30746-.72545-.73157-1.17382-1.16602zm14.82812-4.67187c-1.22311-.13004.24446.32412 0 0zm28.47656.14062c-1.22329-.12494.25494.31967 0 0zm-29.58203.0859c-1.22272-.13494.24442.3244 0 0zm36.42578.11524c-1.22904-.12608.25555.32082 0 0zm1.09961.2207c-1.22329-.12496.25494.31969 0 0zm-89.07226.0195c-2.7702 5.71324-.5407 6.3124 0 0zm80.75976.0508c-1.77421-.34503.90109 3.47404 0 0zm31.72656.10156c-.78449.91102.28043.34145 0 0zm-68.41796.008c-4.07962 2.58655 11.85795 4.26427.2207.22071zm-50.58203.30469c-1.22311-.13004.24446.32413 0 0zm115.92578.39258.36523.0332zm-57.83789.16211.36523.0352zm-66.25977.13086c-1.22329-.12494.25494.31967 0 0zm66.92188.0879c-3.86854 5.70977 28.15006 9.31165 7.92773 4.83984-3.20579-1.38325-6.92679-1.0523-7.92773-4.83984zm60.70312.0527c-1.99913 3.00343 1.43196 8.9446 0 0zm-90.60352.13867c-1.72247.31803-.92998 2.36753 0 0zm88.55079.0781c-.0286.59591.7925 2.36403 0 0zm-.81446.01c-1.58911 1.1307 1.58493 1.12981 0 0zm-118.13672.49609c-1.22329-.12494.25494.31967 0 0zm-5.51953.23828c-1.22309-.13004.24446.32413 0 0zm-.66406.22266c-1.22904-.12607.25556.32083 0 0zm-28.03516.29883c-1.2231-.13004.24447.32413 0 0zm86.78711.0332c3.0014 5.20752 8.28383 11.43498 2.08789 2.44531-.98455-1.04562 2.51615-2.64406-2.08789-2.44531zm-6.18164.0176c-2.18636 1.18637 1.79544 1.68307 0 0zm-17.2207.0469c-7.69402 8.71749-5.0846 8.18121 0 0zm-34.91016.0449c-1.22329-.12494.25494.31966 0 0zm127.4043.80273c.85632 1.93695 2.01019-.21255 0 0zm-32.70117.91797c-1.22009-.13294.24322.32856 0 0zm33.80273.18164c.25965 1.17949.96178-.20564 0 0zm-67.54101.8086c1.00488 1.17681-.87114-.11754 0 0zm68.86328.0703c-.75006.38839 1.18279.0263 0 0zm1.29492.38281c-1.22905-.12608.25555.32083 0 0zm-62.44727.0117c.086 1.6188.51171.0997 0 0zm26.24024.0918c-1.2233-.12495.25493.31966 0 0zm-41.04688.12109c.20545.32133-1.2327-.16091 0 0zm15.4668.44727c-.94707 2.60653 2.19642.46426 0 0zm62.25391.26562.66211.21875zm1.10351.21875.66211.21875zm-6.21093.40235c-1.22291-.12986.25489.31997 0 0zm7.2832.20117c-1.22329-.12494.25494.31966 0 0zm-62.91602.39844c-1.2231-.13004.24447.32412 0 0zm56.07227.2832c-1.22614-.12662.25644.31517 0 0zm-44.59375.125c-1.21089-.13756.24321.32232 0 0zm51.87305.0684c-1.21228-.1127.27005.32864 0 0zm-51.2129.15039c-1.22329-.12494.25494.31967 0 0zm-12.54492.11133c.66911 3.71935 4.93781 5.30528 0 0zm64.86328.4043c-1.22329-.12494.25494.31966 0 0zm-8.38867.0234c-1.22329-.12494.25494.31966 0 0zm-157.61523.004c-1.23013-.14603.22658.32025 0 0zm157.61523.87695c-1.22009-.13295.24321.32855 0 0zm10.18164.46875.66016.21875zm1.78907.61719c-.66832-.20448.25569.68544 0 0zm-161.21289 1.54101c-1.21677-.13362.25423.3191 0 0zm149.45312.24414c-1.22048-.12804.24326.32828 0 0zm-74.36719.043c-7.10206 8.25417-4.78417 8.10593 0 0zm42.16602.10157c5.27434 8.50884 24.98192 40.52708 22.55078 35.74023-7.16425-12.13042-14.56063-24.13302-22.55078-35.74023zm-116.89067.53319c-1.17677-.1447 1.21842.58979 0 0zm14.23633.41406c-.20545 2.36947 1.84572.21168 0 0zm-13.58008.6875c-1.17259-.14309 1.22327.58902 0 0zm14.65039.80079c-1.22904-.12608.25556.32083 0 0zm-14.32226.3164c-.39468 1.50316 3.03299.37781 0 0zm-11.929686 3.125c.52364 3.54432 2.414286-.74592 0 0zm80.574216.43946c-6.04688 6.9242-1.93218 6.03691 0 0zm-79.0625 1.04687c-1.223286-.12496.25493.31969 0 0zm.3457.90234c.0677 1.20653 1.44598.47882 0 0zm120.25.21289-.0371.36719zm-119.46679 1.36133c.94582 2.48144 2.08417.30929 0 0zm1.3164 2.20508.88281.43945zm102.87305 1.03711c-5.29013 4.29575 2.5644-.1008 0 0zm-101.77149.0644c6.26951 7.60776 10.5739 19.12157 17.46875 24.13477-.73914-1.1608-.77718-2.9606-.73242-4.94532-2.36507 7.0701-11.87223-15.58767-16.73633-19.18945zm16.73633 19.18945c.36322-1.08578.58419-2.76894.56641-5.43945 3.31842-11.5669-.40068-1.90905-.56641 5.43945zm.73242 4.94532c.24145.37917.59875.57976.95508.80469-.34256-.20737-.62544-.56502-.95508-.80469zm.95508.80469c.26539.16064.46654.48307.74024.62304 9.82849 2.73302 17.40922 8.88046 18.71679 6.27344 10.27056 3.91327 35.11842 12.8918 35.06641 11.70703-17.95119-5.46906-35.24659-13.10362-52.58984-17.98828-.8646.11624-1.38619-.2697-1.9336-.61523zm74.29492-24.75782c1.63784 2.00101 2.0125-.36156 0 0zm15.67188.61914.6582.22266zm-6.0293.22657c-.016.59563.76983 2.37527 0 0zm-7.88281.0352c-2.45447 2.15371 3.02996.92543 0 0zm-99.650386.13476c1.882706-.2933-.867269 2.90922 0 0zm107.374996.94727c-1.4541 2.69669 4.53435 3.27431 0 0zm-88.19141.0117c-1.17677-.1447 1.21842.58979 0 0zm80.90821.22656c2.44575 1.37106.47844-.79147 0 0zm-.42383.17969c-.66481-.18792.27099.69264 0 0zm8.36719.24219.66211.21875zm-7.58399.0606c.11933 2.6255-.05 1.16194 0 0zm-77.8125.0312-.0371.36718zm-21.01172.64843c.4242.0549-.35353 1.03742 0 0zm20.74805.82618c.16174 2.48829 1.88742.30415 0 0zm55.38281.45117c-1.21089-.13755.24322.32232 0 0zm-25.82422 2.06836c.20541.32154-1.23238-.16588 0 0zm25.4043.19531.66211.21875zm-28.72656.0254c-1.21676-.13361.25424.31907 0 0zm54.62305.32031c-.97999-.25846.16758 3.63377 0 0zm-65.30274.19727c-1.98711.24108 2.06924.9192 0 0zm35.95703.0586c2.10882 2.95213-2.44032-.61661 0 0zm-40.48437.62304c-1.64817-.0565 1.19723 1.41581 0 0zm43.93164.0977c-.55039 2.84306 1.99481.64133 0 0zm26.04687.81055c.4269 1.94885.96178-.60079 0 0zm-60.83594.0469c-.49279 1.91734 5.60448.74194 0 0zm32.57813.0332c1.40229 2.85679-2.70964-.59806 0 0zm-20.09961.10547c-1.98249 1.54935 3.36637.0172 0 0zm48.83594.45117c-.34399.50945.32413.10374 0 0zm-58.31836.4082c1.89362 2.86113 6.49043.53307 0 0zm-12.61524.20118c-1.2231-.13004.24447.32412 0 0zm10.84571.24609c-5.06898 5.42107-2.04345 5.19921 0 0zm31.3457.35547c2.44084.0113 1.8826 3.87193 0 0zm-42.19141.28711c-1.23708-.14168.23874.31662 0 0zm72.19727.1875c-.76281.19377.83638.15952 0 0zm-23.60547.60742c-.75186.38482 1.1831.0239 0 0zm-47.93555.74023c-1.22329-.12494.25493.31967 0 0zm47.49219.14649c.26392 1.18378.96023-.21691 0 0zm-47.93164.74414c-1.22674-.14911.22501.32483 0 0zm-9.1543.28125c-.29513.38687.0742 1.74784 0 0zm16.92188 1.02734c-.6611-.18484.27296.68679 0 0zm-16.80664.43164c-.06.92865.0601.0605 0 0zm85.05468.73047c-2.03824-.0686 1.84302 2.13526 0 0zm-75.80859.39453c-1.22904-.12607.25556.32083 0 0zm-18.10351.0508c-1.2233-.12494.25494.31967 0 0zm.66211.21875c-1.22329-.12496.25493.31969 0 0zm8.45703.68555c-.0795 6.85142 1.58341 9.52572 0 0zm44.99609.10352c1.09804 1.36328-2.568.37363 0 0zm39.48438.0566c-1.22291-.12986.25488.31996 0 0zm-29.55274.13867c2.28186.15922 1.48167 6.39754 0 0zm29.35938.57812.66015.21875zm2.42773.6543c.11193 5.3055.45429.61119 0 0zm-90.98438.64063c-1.22329-.12494.25494.31966 0 0zm90.06837.1914c-1.22311-.13003.24446.32413 0 0zm-37.06251.60156c.91762 2.66504-2.42265-.2827 0 0zm39.51563.99219c-3.77669.0539 1.20851 2.62742 0 0zm-88.99609.41211c-1.2233-.12494.25494.31967 0 0zm95.65429.0254c-1.30854.14667 1.17692 1.38093 0 0zm-95.88086.63281c-1.20938-.1182.26079.32736 0 0zm88.5586.0332c-1.59429 1.13292 1.58616 1.12744 0 0zm-87.89453.1914c-1.2233-.12494.25494.31967 0 0zm96.28125.22657.36718.0312zm-6.62305.0215c1.77667 8.96415.7955 1.52521 0 0zm-85.24609 1.94727c-1.22894-.12099.26578.31633 0 0zm55.9707.63476c1.99754 1.44914-1.54052.26727 0 0zm-63.91992.26953c-1.2231-.13004.24446.32413 0 0zm4.91796 1-.0371.36914zm96.21485.0977.88086.4375zm-6.40625.24023c.26418 1.1782.96408-.2147 0 0zm.88281.43946c-1.65092 1.15551.40126 2.97291 0 0zm-90.73047.91406c1.87695 3.98539-.71526 4.15436 0 0zm98.89453 1.04687.88282.43946zm-7.94531.0234c-.94061 1.64519 1.87839 1.88539 0 0zm8.13086 1.46875c-1.21715-.12872.25427.31878 0 0zm-6.14844.0703c-2.23914 2.26744 1.57536 2.5645 0 0zm-1.54882.66797.66211.21875zm-3.97266.008c-1.2339.18414.49785 2.60561 0 0zm-79.0625.16992c-1.2233-.12495.25493.31966 0 0zm92.71875.18164c-1.22866-.13097.25552.32111 0 0zm-98.43164.33203-.2207 1.10156zm107.0664.36133c-1.79649.72148.22498 1.91667 0 0zm-15.43163.21875c-.65847-.18942.26618.68416 0 0zm-25.43555.0586c-1.22329-.12494.25494.31967 0 0zm26.04687.8125c-1.22865-.13099.25551.32113 0 0zm-6.4043.23828c-1.22008-.13294.24323.32856 0 0zm.92969 1.99219c-.66437-.1876.26922.68791 0 0zm7.47852 1.57227c-1.27837.7283 1.31795 6.71186 0 0zm-21.41602.7207c1.94302 4.40586-1.62897-.40833 0 0zm-60.48632.16992c.42227 2.74905.0458-.075 0 0zm-6.65235.4043c-1.2233-.12495.25494.31967 0 0zm15.47852.89453.66211.21875zm-7.76172.625c-1.21457-.11466.27105.32447 0 0zm-2.83594.72852c-3.65491 3.50849.44005 2.25878 0 0zm84.73633.59374c-1.2109-.13754.24322.32233 0 0zm-41.28516 1.21875c-1.22904-.12606.25556.32083 0 0zm31.78711.35352c-1.22329-.12494.25494.31967 0 0zm.46875.49415.6621.21875zm-58.74219.11327c-1.22708-.14418.22506.32459 0 0zm51.19141.006c2.43896-.10794-.99537 1.51892 0 0zm-39.5.61914c-1.22024-.12805.25359.32433 0 0zm15.8125.19532 1.43164.69531c14.89806 3.96958-.87118 1.06389-1.43164-.69531zm33.19531.10742c-1.22944-.12118.25559.32055 0 0zm24.86328.0937c-.6145.33678.53868.65012 0 0zm-74.09375.70899c-1.21398-.13669.24262.32765 0 0zm-23.15039.33789.66016.22266zm82.97461.1543c-1.22329-.12494.25494.31966 0 0zm6.87304.2578.65821.22072zm-5.92773.31055-.0371.3672zm-60.99218.043c-1.2231-.13004.24446.32412 0 0zm-5.74023.0156c-1.22905-.12607.25554.32083 0 0zm74.39061.45508c-1.22309-.13002.24446.32411 0 0zm-69.03124.10156-.0371.36719zm61.7793.19336c-2.07712 3.10265 1.685 1.68574 0 0zm-1.77149.006.66212.21876zm8.80859.36523c-1.23352-.14488.23695.32136 0 0zm-38.61132.38086c.27968.60041.46646.73132.73437 1.26758l.12891-.73633zm.73437 1.26758-.0488.28321c-.10591-.0228 1.04757 1.42647 1.16602 1.64648-.38451-.69373-.70941-1.11346-1.11719-1.92969zm1.11719 1.92969c3.34565 6.03622 6.05834 8.7938 9.41602 17.12696 1.08998.99059 2.74252 2.74436 4.0293 4.32031-3.73939-8.88065-12.33401-19.38315-13.44532-21.44727zm13.44532 21.44727c.48234 1.14552 1.28605 2.44325 1.52148 3.45507.92088-.102-.0626-1.66826-1.52148-3.45507zm-45.72462-24.48633-.0371.36719zm69.25391.11914c-1.22592-.13185.24588.31976 0 0zm-6.40821 1.12109c-1.22049-.12804.24333.32828 0 0zm-.66015.22071c-1.22903-.12607.25552.32082 0 0zm-11.44922.0859c.84744.29201-.89961.61608 0 0zm27.1289.10351c.20759.31689-1.23635-.16268 0 0zm-14.13671.0313c-1.22309-.13002.24445.32411 0 0zm-64.65039.0117c-1.19684 4.20669 1.06535 6.38488 0 0zm63.79491.0469c-1.20416 1.19353 1.49704 1.71669 0 0zm-4.4453.3965c-1.22288-.12983.25487.31993 0 0zm-26.03907.084c.20596.32254-1.23838-.1621 0 0zm26.92187.35546c-1.22331-.12496.255.3197 0 0zm19.89454.43946c.99664-.17908.21982 1.14025 0 0zm-19.42579.0547c-.88395.60959.82876.28863 0 0zm.64845.37305c-.0135 1.44625 1.54865-.7139 0 0zm4.83984.66211c-1.21088-.13754.24322.32231 0 0zm-3.94531.0644c1.14622 1.68807 1.7437.30787 0 0zm11.27929.36523c-.66382-.1916.26842.68953 0 0zm-7.11524.22851c-1.2233-.12493.25501.31969 0 0zm-11.72069.34962c-.029 1.78416.99026-.54049 0 0zm9.70899.36524c.21841 1.42038 1.70379.79779 0 0zm18.37499.17968c-1.58956 1.1168 1.57848 1.13192 0 0zm-75.75.37695c-1.2233-.12494.25494.31967 0 0zm80.4043.006c-.66009-.18848.27039.68367 0 0zm-39.82422.14258c-1.14272 1.35016 5.47437.45815 0 0zm26.5547.16017c-1.13669 2.02396 4.64921 3.07329 0 0zm-57.42384.10741c-1.21127-.13265.24325.32204 0 0zm-17.1875.0996c-4.75737 10.47057-1.01944 17.93127-.90039 4.86328l.66211-2.43359zm8.35742.36523c-1.22329-.12494.25494.31967 0 0zm42.21289.10938c-1.21517.74777 2.67466.59398 0 0zm-33.33398.0937c-.65998-.18596.27081.69203 0 0zm66.65429.59765c.19064.45427 1.29477-.32664 0 0zm-7.29492.60938c-.97648 6.08399.18305-1.14305 0 0zm-65.63281.0742c-1.03945-.0843.47655 2.50358 0 0zm-23.33203.39258c-1.58979 1.13414 1.58437 1.12626 0 0zm24.05859.59765.66211.21875zm58.91407 0c-1.23194-.12777.25708.31634 0 0zm-82.11524.23438c-1.23013-.14602.22659.32025 0 0zm72.20899.0703c-1.2347 2.26005 3.96078.7037 0 0zm-28.91602.20116c-1.75463.12928.85615 2.19759 0 0zm-18.98828.15234c-1.17153.50172 1.15625.53836 0 0zm-24.28321.0684c-1.11825 1.08867 2.39597 1.8418 0 0zm89.40235.85352c.46786 7.09168 4.89049-.95039 0 0zm-64.04297.1289c-1.2271-.14419.22505.32459 0 0zm3.30469.20703c-1.22598-.12919.25419.3255 0 0zm-1.95703.2793.36718.0332zm.43951.44134c.25046 2.04736 1.68175-.0982 0 0zm-2.17187.0801-.0371.36719zm-20.56837.64844c.24224 3.62075 8.27521 3.91434 0 0zm50.77534.29498c-1.13692.47956.61598 1.33028 0 0zm-3.3125.23242c1.57931 1.12686-1.5877 1.12865 0 0zm-22.32618.22656c-1.22329-.12494.25494.31967 0 0zm25.46289.22852c-.47339 1.58104 2.26601-.11474 0 0zm-23.69726.6582c-1.23013-.14601.22659.32025 0 0zm55.58594.16798c-.63477.95431 2.33867.46706 0 0zm-31.00196.15038c-.58567 1.01494 1.89724 1.60083 0 0zm-15.75781.53125c-1.22329-.12494.25494.31967 0 0zm3.33594.26953c.0956 1.61323.51241.094 0 0zm32.22851.79101c-2.60149 2.51052 3.49282 1.02732 0 0zm-36.23046.0469c-1.22905-.12609.25554.32085 0 0zm-29.11133.58399c.37445.77394.1913-.42031 0 0zm84.76758.19922c.41045 1.43544 4.77483.33804 0 0zm-83.88868.23437.66211.21875zm125.80664.0332c-1.2284-.13604.24499.32556 0 0zm-1.74023.0644.66211.21681zm-60.68555.15821c-2.3735.37221-.40368 1.1953 0 0zm-63.56641.47852-.0352.36914zm68.39649.17773c-1.5887 1.13001 1.58478 1.1254 0 0zm20.53125.60546c6.48625 4.53516-.54703 4.64429 0 0zm-14.57031.0391c-.35809 1.09549.40241.0151 0 0zm-6.59766.19921c-.67583-.20625.25091.69079 0 0zm-68.90429.0156.88281.43751zm67.55272.25c-4.37907 10.7323-13.628 23.86961-2.0117 7.73243.26935-5.53176 7.13252-1.8851 2.0117-7.73243zm60.26563.0547.66211.21875zm-57.64453.33008c-1.23012-.14598.22663.32024 0 0zm-65.53906.0117.66211.21875zm111.72657.0508c1.97797 3.61447 2.05896 1.08376 0 0zm-18.38086 2.50587c-1.22884-.1312.24505.32531 0 0zm-7.91992.0762c8.79868 2.14088 4.11962 9.54925 0 0zm39.04686.0547c-1.22862-.13094.2555.3211 0 0zm-10.5078.0566c-1.62329-.33362 1.53926 1.20522 0 0zm-75.11914.23632c-.74959.38728 1.18237.0225 0 0zm53.86718.29297.66211.21875zm-10.59766.0293c1.34182 1.33196-1.68835.31362 0 0zm-7.48828.008c1.06565 1.75756-1.147-.25681 0 0zm49.45117.0527c-.65636-.18998.26026.67991 0 0zm-84.35156.0605.66211.2168zm-19.86719.9336-1.33398 2.21289zm72.84571.24414c.27327 1.18625.95674-.22652 0 0zm30.5918.0176c-1.71994.30507-.93599 2.38146 0 0zm-47.81445.46874c.48808 1.43331.74783-.5006 0 0zm-68.90431.57813c-1.22329-.12494.25494.31966 0 0zm68.22853.24024c-.0135 1.44657 1.54856-.714 0 0zm47.25975.30858c-1.8247 2.09246.038.43968 0 0zm-45.70311.63478c-1.9582-.66188-.23667 2.24478 0 0zm.67382.416c-1.2781 3.82441 1.63272 2.58543 0 0zm51.61328.48829c-1.22652-.12172.25649.3149 0 0zm-82.30078.23046c.29742.69626-.65122-.16294 0 0zm82.78907.44142c-.66164-.19196.27552.68953 0 0zm-7.37695.48828c3.83881 2.61624 9.97296 2.65693 0 0zm-111.00392.48827c-1.21456-.11465.27106.32447 0 0zm67.82617.26758c-.66592-.19101.27441.6938 0 0zm-64.04297.004.66211.21875zm70.20312.24609c.95594 2.70719.81211 4.36032.70509 5.77148.15206-1.2468.0648-2.93947-.70509-5.77148zm.70509 5.77148c-.32223 2.64215-2.16933 2.40915-4.03516.64062 3.36347 5.86382 2.6094 3.81666 4.27345 6.77736.52788 1.42448-.0193 3.3451 4.22655 5.5078-3.83584-4.27831-4.27721-12.09616-4.08594-10.09375-.57972-.9461-.45393-1.84252-.3789-2.83203zm-71.12109-5.40039c-1.76864-.23122 1.61022 2.83923 0 0zm64.67577.0859c-3.53536.10399 2.06694 2.19307 0 0zm20.27735.33008c-1.22329-.12495.25492.31967 0 0zm-12.33203.5293c-1.77583 1.49536 3.61777 4.20514 0 0zm12.14063.18555.66015.2246zm-23.8711.0137c-1.22329-.12494.25492.31967 0 0zm4.15039.25c-2.56005 2.91482 1.36435 2.01605 0 0zm-27.30469.0898c.47078 2.71814 1.82551-.31131 0 0zm33.33594.13087c.40717.0242-.34414 1.06904 0 0zm14.78907.17969.66211.21875zm-19.86523.0547c-1.48489 2.27819 1.04284 1.8229 0 0zm-26.67775.36913-.0371.3672zm48.31056.008c-.2049 2.06893 2.96539 1.65525 0 0zm28.0039.5332c-1.2344-.13212.2561.3223 0 0zm-119.62305.38867c-2.16804 3.23494 3.45937-.39083 0 0zm77.96289.0762-.0351.3672zm-8.11328.33789c-2.34928 1.25704 3.66728-.10406 0 0zm23.53125.42578c.0134 1.65372 1.65518-.16634 0 0zm-84.11328.0156.36914.0332zm73.29687.23633.66016.21875zm12.76953.35155c-1.2235-.12514.2445.32386 0 0zm-16.77734.0488c-1.22331-.12493.25501.31968 0 0zm-75.68945.041c-2.15876 1.52272-1.84098 3.83204 0 0zm-2.61524.082-.0351.36719zm94.00783.10352.66209.21874zm1.541.21874c-.43803 1.55235 2.60742 1.57441 0 0zm15.64649.12305c-1.22903-.12606.25552.32082 0 0zm7.28711.19923c-1.23441-.13211.2561.32226 0 0zm-39.73633.55272c-1.22902-.12607.25553.32085 0 0zm39.51172.10939c-1.21795-.11896.25434.31822 0 0zm-.2168.67186c-1.23551-.15209.22716.32169 0 0zm-20.73046.10548c.56875 1.68098 3.75161 1.3166 0 0zm-24.29884.0234c.20539.32133-1.23268-.16093 0 0zm9.29101.0176.66603.21876zm24.06055.15625c2.33926 1.57917 2.33563-.44125 0 0zm-64.12891.0352c-.49335.25807.5319 1.23378 0 0zm31.4004.39844c3.08358 1.33315-1.27271 2.47949 0 0zm7.0918.4629c-1.22327-.12496.25491.31968 0 0zm36.86522.11913c-1.22845-.1361.24501.32558 0 0zm-25.09373.33204c.17586.65329-.68768-.29031 0 0zm-48.18361.23436c-1.00371 1.4459 3.85471 1.50687 0 0zm36.38674.33595c-1.19662 1.01284 2.36363.95562 0 0zm32.50194.0469.87696.43946zm-94.04492.26172c-3.61348 1.73937 1.30121 1.4686 0 0zm-5.05665.41211c-.66699-.18759.26397.69266 0 0zm63.11523.0918.66211.21875zm39.29493.32813.66211.21875zm-37.99609.0586c-1.23017-.14603.22664.32027 0 0zm-33.56056.0879c-1.22266-.13488.24443.3244 0 0zm36.45314.17579.66406.21679zm-2.23047.39844c-1.23551-.1521.22716.32168 0 0zm.92383.6621c-.66153-.18514.27472.69151 0 0zm2.86133.21681c-.8714-.11726 1.00502 1.1768 0 0zm33.10155.16795c-2.36897.93376 2.24548 2.97226 0 0zm-34.21874.75978.36718.0312zm8.13867.14453c-1.23126-.13787.24643.32118 0 0zm-7.50196.46678c-1.2301-.14595.22662.32025 0 0zm9.73439.46096c1.72727 4.22372.47489.74902 0 0zm-8.83009.0254.66015.2246zm27.83595.10157c-.66015-.193.25849.68574 0 0zm-26.76564.5039c-1.20298-.12946.24159.325 0 0zm26.93164.36718c-1.21773-.12394.24392.32267 0 0zm-85.87303.0176c-1.22908-.12611.25554.32084 0 0zm58.97264.11132c-1.28616 1.09219 1.82544 1.33257 0 0zm42.38477.32423c.188 3.12568 1.58785-.85606 0 0zm-101.33008.0605c.26463 1.17931.96278-.20716 0 0zm59.86133.57031-.0371.3672zm3.27344 1.02149c-1.90541 1.64866 2.85966 1.84422 0 0zm23.87109.0117c-1.20706 1.53743 2.86017.13698 0 0zm-18.35546.19142c-4.14636 2.18172 2.76675 5.65415 2.86523 6.7578 3.26278 5.93606-3.18154-9.39421-2.86523-6.7578zm20.08789.16601c-1.66406 2.31037 1.90964 2.24341 0 0zm-93.37696.0391c.87566 15.06256 2.90765 13.52235 0 0zm65.12109.0391c.0819 1.61415.51074.0989 0 0zm54.7461.29102c-1.27439 2.29286 2.19471 3.2409 0 0zm-10.37305.24999c-2.05779 1.38586 3.9096 3.76232 0 0zm-39.96094.0234c-2.49121-.10458 2.27726 2.80507 0 0zm.66407.9668c.75517 4.01454 2.94323-.70685 0 0zm60.26562.0547.66407.2168zm-23.8711.0137c-1.23404-.137.25616.32256 0 0zm23.42384.8711.66212.2168zm-18.54101.0488c-1.93776 2.46619 2.69694 3.56642 0 0zm8.60742.19531c-1.22025 2.58394.94388 4.60259 0 0zm-13.91017 1.14843.88282.4336zm-8.166.2422c.98688 1.76344 1.9082-.18764 0 0zm8.48436.69725c-.74736.98976 1.24592 1.82086 0 0zm-15.14452 1.47462c-1.226-.12924.25414.32551 0 0zm-13.65821.0898c.1317.89146.41805 1.3252.60937 2.0996.0897-.31527.40299-.51548 1.3672-.39452.78791.78392 1.84838 1.31546 2.87499 1.87108.0314-.95481-4.18802-2.64644-4.85156-3.57616zm4.85156 3.57616c-.004.12677.17903.28545-.004.38088.49098.10046.52166.14884.94531.23047-.34723-.16348-.60548-.42952-.94142-.61135zm.94142.61135c2.18432 1.02837 4.2562 1.76215 5.87108 2.49803-.44274-.47217-1.21284-1.27331-1.86133-1.51562-.0483-.15865-.0131-.24412-.28125-.5918-.54067.0149-.6167.19074-.5293.39257-.84072-.23957-1.76518-.50695-3.1992-.78318zm5.87108 2.49803c.64204.68471 1.25214 1.17775 1.95117 2.83789.87598-1.27737-.26963-2.07163-1.95117-2.83789zm-11.05469-4.58594c-.0585.20547.059.51021.24415.84376-.0834-.29195-.16727-.53262-.24415-.84376zm.24415.84376c1.05316 3.68463 2.44001 6.29751 2.65233 6.76171 2.96774-.88493-1.53266-4.74473-2.65233-6.76171zm28.25977-2.1914c-1.22474-.13996.22598.31883 0 0zm6.86718.40429c-1.88621.56921 2.43917 1.47802 0 0zm-26.30274.0859c-1.2179-.1189.25435.31822 0 0zm32.41602.17187c-.59514.38555.71374 1.95527 0 0zm-27.48241.002c-1.54841-.0575 1.07244 1.23118 0 0zm22.69139.90819c-2.1406 1.26864 7.50697 11.10507-2.88672 5.96875 12.90473 7.53351 4.98525 5.92898 7.26367 19.24024-3.48554-.16304-3.09429-3.11273-7.08592-3.56444-4.66862-5.47904.34691 2.58674.87303 2.20115 8.10816-2.30887 8.01385 14.99367 7.9375 3.95704 9.83443 6.18073-2.68304-1.11909-.85937-7.94922.15929-3.37243 7.06571-.78432 7.06056.86329 3.48098 7.95077 4.04196 8.66791 3.76952 9.26172-5.97413 2.50255-2.14 2.34357 3.03126 6.39062 5.90789 2.59758 3.06229 5.02962 7.19529 10.35741 2.81112 4.55611 4.76853 9.46137 8.41407 12.78125.3591.7772 2.73482 7.74456 7.03516 11.01563.60709 4.87093 2.28194 1.02453-1.53711-3.74609-4.33716-2.47841-3.04138-6.53689-7.76367-12.78125-.54297-5.01176-4.75094-3.31769-8.05468-14.10742 9.06362 16.77378-1.12512-24.86849 2.49804-2.10156-4.81102 2.98849-11.69092-12.36573-10.53516-10.1875.40522-5.28303-12.97193-16.00321-6.20898-11.61328-3.50548-5.90207 5.82469 2.35079-3.15624-5.07226-2.46726-1.20611-.50643-8.83526-1.93165-4.08008-2.5081.64004-2.86244-3.16516-5.0586-6.834zm5.48634.59181c-1.21778-.12401.24391.32267 0 0zm-29.36328.74609c-1.21965-.12796.26365.32028 0 0zm28.5078.19336c-.0831 1.90665 2.39581.0521 0 0zm11.00586.35742c-1.21778-.12401.24392.32267 0 0zm-20.69921 1.17383c-.66458-.19465.2569.68163 0 0zm-19.26172.48633c-1.22867-.131.25549.32111 0 0zm29.36523.14062c-1.22139-.143.22451.32339 0 0zm-9.68945.0762c.12631 1.55401 2.35186-.66125 0 0zm20.19922.37891c-1.99565.24658 2.08141.91701 0 0zm-18.21484.27735c-1.95383-.40941-.16199 1.51114 0 0zm-17.02735.21483c-1.2179-.11889.25434.31823 0 0zm35.31835 1.22656c-1.23478-.12716.25623.32199 0 0zm-34.41014 1.03322.66015.22265zm-8.60157.4121c.29917.70114-.65181-.16319 0 0zm43.23048.98829c-1.24251-.1478.23921.31804 0 0zm-15.18752 1.32811c-1.657 1.16372 4.41571 2.41028 0 0zm-101.57617.5918.88282.43946zm117.04102.18946-.0371.36718zm-94.08008.6289c.14691 1.54147.43738.19764 0 0zm-22.30078.28515.88086.4375zm115.79493 1.05666c-5.33524 2.58929-1.4093 2.01124 0 0zm-91.70509.1621c.24257.68084-.66798-.21549 0 0zm-10.40624.0664c-1.46763-.1587 1.09968.38553 0 0zm-12.36134.0371c4.46829 8.98667 12.40213 17.8651 2.1172 3.13868l-1.459-2.47853zm14.10548.34962c-1.23551-.1521.22716.32168 0 0zm.65624.21288c-1.22328-.12494.25492.31967 0 0zm90.31447 1.34767c3.99766 1.39886 2.02579 5.62028 0 0zm-77.75.0586c-.68041 2.93824 2.83088 1.62577 0 0zm10.38476.73829c-1.23441-.13212.2561.32226 0 0zm72.02149.0332c-.66827-.19772.25497.68747 0 0zm-85.84767.47459c-.56273 2.90281 4.8256 2.93847 0 0zm5.90431.008c.93997 2.8659 5.69131 3.89484 0 0zm77.26756.23045c-.35025 1.0866.40056.007 0 0zm-77.55858.0274c-1.35046.16753 1.42649 1.31872 0 0zm85.47461.33398c-1.21796-.11895.25434.31823 0 0zm-1.73439.50195c3.68388 2.57493 3.38758-.3675 0 0zm-85.43944.0176c1.67583 4.41088 3.22751 1.31715 0 0zm2.03516.25001c.2378.18068.68015.39853.61328.11327-.88436-.43752-.85109-.29397-.61328-.11327zm-3.60352.81054c-1.23552-.15215.22706.32168 0 0zm88.54882.0254c.13299 8.75183.21694 7.58095 1.75586 3.08008-2.12934.0961-.29767-2.8187-1.75586-3.08008zm-2.24023.39064c-1.22867-.131.25549.32111 0 0zm4.44531.041c-2.62299-.33852-.11224 1.35564 0 0zm-82.78515.008c-.21331.15177-.17555.23079-.24023.3418-.22948-.1143-.25799-.24838-.64454-.33789-.1024 2.40539 2.0261 1.54338 1.26173.66211.10543-.13805.0794-.34072-.37696-.66602zm78.99805.61134c-1.22893-.12099.26574.31632 0 0zm4.64062.20702c-1.22846-.1361.245.32558 0 0zm-.88477.004c-1.23404-.13699.25616.32257 0 0zm-86.98046.24416c-1.22179-.14462.25476.32085 0 0zm88.11132.0254c-1.5877 1.12866 1.57934 1.12688 0 0zm-4.41601.0137.66211.21875zm-11.23828.42579c-.65675-.17903.27332.68453 0 0zm-76.4004.041c1.92196 2.05247 2.22275-.0941 0 0zm93.38282.25196c-1.94993 2.75533 2.42541.17621 0 0zm24.24804.0254c-1.21754-.12384.25429.31849 0 0zm-42.0625.16406c-3.19648 1.56396-2.18205 2.45065 0 0zm38.08985.28712c-1.2205-.12579.24524.31831 0 0zm-18.83984.67773c-.9645.70466 2.95531 1.40418 0 0zm-92.46485.0566c-2.24966-.17872-.18691 2.18443 0 0zm89.03321.48438c.25477 1.17586.96948-.20251 0 0zm-12.58594.25976c-1.27213 3.87931 1.3873.68888 0 0zm34.2539.19922-.0351.36719zm-102.05079.16015c-1.23047-.14107.22667.32002 0 0zm-7.95311.0156c-1.21795-.11895.25434.31823 0 0zm93.63085.23632c.25543 1.17792.96522-.2122 0 0zm-93.60156.26173c-1.78624.47675 1.04719 1.95545 0 0zm115.45509.3418c.26534 1.18141.95841-.21699 0 0zm-5.54689.17968c-1.22598-.12919.25422.32549 0 0zm-21.6289.50781c-1.23551-.15209.22716.32169 0 0zm-87.42968.23829c-1.21778-.12401.24391.32267 0 0zm-.66211.22461c-1.2164-.13854.25418.31937 0 0zm9.07616.24803c-1.16359.49378 1.16605.537 0 0zm100.16211.53516c-.38517.26429-.0421 1.66756 0 0zm-100.56054.17579c-1.19955 1.32739 2.97471.70612 0 0zm81.38867.11328c-1.21361-.14162.24256.32796 0 0zm-88.96485.46679c-1.23155-.13266.25704.31659 0 0zm.87696.44141c-1.20848-.12818.2545.31198 0 0zm97.82813.004c-1.57182.39736-.16513 1.35363 0 0zm-94.95703.20899c-1.21896-.14771.24309.32944 0 0zm4.22265.26366c-1.63339 1.24632.56133 2.32768 0 0zm123.03711.50391c-1.21576.65353.89612 1.66604 0 0zm-31.64258.12109c.27517 1.62599 3.34335.11211 0 0zm-96.47265.0508c-4.3308.57866-.10884 5.59183 0 0zm3.30858.65233c-3.54037.39764.0699 1.3077 0 0zm124.7422.28908c-.20883.31234 1.05293.79977 0 0zm-52.58594.11718c-1.21795-.11895.25434.31823 0 0zm-74.02148.0332c-1.04115-.40333-1.6445 1.91999 0 0zm126.93164.26954c.27512 1.0762.56567-.15438 0 0zm-29.5879.11522c-1.18116-.14226 1.21463.59343 0 0zm29.89844.24805c-2.56915 9.43869.71039 12.17304.43945 4.31836l-.19726-2.19726zm-.76367.11329c-1.17937-.14977 1.23043.59609 0 0zm-15.56251.27342c-8.48359 5.41517-8.15343 15.64663 0 0zm-8.35546.0996-.0351.36719zm-101.16992.15431c-1.22867-.131.25549.32111 0 0zm79.72071.0547c3.47122 3.65467.29727 8.58067 0 0zm14.24023.16601c-1.17718-.13543 1.2197.59055 0 0zm-101.2168.0742.66211.21875zm81.24804.10742c-.30509.26125.2981 1.8107.65039.32812-.34667-.35921-.54868-.4152-.65039-.32812zm24.27149.0391c-.90148 1.19516 2.38817.15476 0 0zm-106.625.0781c-12.43497 2.98285-13.09721 5.44384 0 0zm121.83007.0449c-1.22863-.13093.25557.3211 0 0zm.25001.71875c-.88933.6068.82898.28753 0 0zm-13.03126.25585c-1.8491 1.54418 2.71689 1.53642 0 0zm-.6875.16797c-1.23479-.12718.25623.32202 0 0zm14.15822.0156c-1.74882.83651 1.76384 1.99266 0 0zm18.95312.33594c-1.21778-.124.24392.32268 0 0zm-18.25976.39844-.0352.36717zm18.04492.26758c-1.23928-.14606.23755.32256 0 0zm-30.91212.52147c-1.23441-.13211.2561.32226 0 0zm30.56054.18359c-1.86322 2.08138-.57269 3.91497 0 0zm-17.06836.0547c-1.58776.42114-.16464 1.34555 0 0zm-12.61522.20118c-1.20557-.13152.24268.32087 0 0zm12.42187.5371c-1.07796 1.45403 2.65095 1.21276 0 0zm-122.35351.21681c-1.24157-.14837.22766.32262 0 0zm123.53321 1.01758c-1.17585-.13617 1.21389.59086 0 0zm-16.25001.006c-1.22476-.13994.22608.31884 0 0zm16.80859.86913c-1.33584-.53647.45722 3.0629 0 0zm14.75391.1465c-1.2164-.13855.25418.31937 0 0zm-24.36523.10742c-1.18074-.15034 1.21257.58774 0 0zm1.01171.62499c-.66644-.18697.27521.69215 0 0zm9.25196.2422c-1.75962.92347 1.29376 2.61928 0 0zm-18.07032.12304-.0351.36719zm24.44141.0254c-1.20556-.13152.24268.32088 0 0zm-14.74805.0527c-.86969-.123.99792 1.1751 0 0zm14.08595.16993c-1.226-.12923.25414.32551 0 0zm-.66407.22265c-1.22868-.13099.25549.32111 0 0zm-19.39845.54883c-5.57841 5.89751-2.56796 8.15337 0 0zm-3.97459.0137c-.82048 2.5245 3.02342 4.35541 0 0zm19.0078.49803c-.65787.85753 2.02495 2.73816 0 0zm-6.9746.11525c-1.17415-.14846 1.20847.60021 0 0zm1.00976.62695c-.66699-.18759.26396.69266 0 0zm-110.63672.0977c-.776.92229.2766.33453 0 0zm111.27343.83202.3672.0313zm-13.93945.20313c-1.21754-.12383.2543.31849 0 0zm20.34181.44141c1.16153 2.79682 2.87083.26303 0 0zm-27.34766.66016c-1.45885 1.08934 2.58412 1.53975 0 0zm28.50585.666c-2.30199 1.14111 2.48756 2.52239 0 0zm5.6836.19728c-2.89957 1.63857.93627 8.21284 0 0zm-33.11719.0937c-.15985 1.79449 1.73931-.12497 0 0zm8.60156.24999c.21112 2.71065 7.40407 12.99909 9.59571 15.61524-1.71684.83067 2.157 1.9436.14845-.13085-.0327.011-.009.0239-.0391.0351.10663.0113.44961.36411-.25781-.79492-4.36087-7.93953-4.94033-5.77458-9.44728-14.72462zm-7.67578.57617c-.0485 2.60359 4.01774.0121 0 0zm4.3711.041c-3.88816 3.25856.23753 8.48129 0 0zm20.27733.32617c-1.21793-.1189.25442.31822 0 0zm.88282.44336c-1.20298-.12947.24157.32498 0 0zm-23.17186.28908c-1.23779-.15642.22599.32747 0 0zm23.88867.16406c-.67311-.20377.25664.69445 0 0zm-29.19532.28515c-1.21778-.124.24392.32268 0 0zm30.01953.36133c-1.23441-.13212.2561.32226 0 0zm7.50587.41797c-1.21796-.11895.25434.31823 0 0zm-29.55666 1.02147.88282.44141zm-99.14648.004c-1.2256-.1341.2542.32582 0 0zm2.86718.65429c-1.22863-.13092.25557.32111 0 0zm98.01369.16603c-1.22328-.12496.2549.31968 0 0zm.44134.43951c-1.21777-.12401.24392.32268 0 0zm.80079.48243c-1.178-.15044 1.22464.59639 0 0zm-99.67383.73242.66211.21875zm100.6367.10741c-1.22863-.13093.25557.3211 0 0zm-100.85735.11518c-.43754.001-.15522 1.12991 0 0zm101.74218.0449c-1.95745 1.44166 4.08771 1.83595 0 0zm-94.66601.55469c-.86603-.12011 1.00234 1.17416 0 0zm-6.83788.0547c-.32463 3.6805 1.5474-.20071 0 0zm94.65624.3457c-1.21778-.12401.24392.32267 0 0zm-87.61524.52343.88477.43946zm-3.31054.23243c-2.22498 2.98518-.13288 2.90182 0 0zm-3.75587 1.11523c.26634 1.18474.96105-.21991 0 0zm94.23244.78321c-1.21362-.14161.24256.32796 0 0zm-94.69924.0469c-1.22139-.143.22452.32339 0 0zm1.09573.21681c-1.22867-.131.25547.32113 0 0zm107.36717.5371c-.51686 1.21523 1.9229 1.06002 0 0zm-98.50977.8125c1.18318.0241-.75208.38463 0 0zm-7.94921.0274c-.76839.0748-1.07891.25644-1.23633.44336l.63092.63276c.40017-.009.77045-.20705.60547-1.07618zm7.94531.85742c1.33712 1.64011 2.30482.35044 0 0zm113.89063.0801c.20539.32132-1.23268-.16093 0 0zm-113.89453.80273.66405.22069zm116.78319.33788c.49275 1.43022.73954-.49056 0 0zm-113.72265.041c-1.21778-.12401.24392.32267 0 0zm-1.98632.22657c-1.21795-.11896.25434.31823 0 0zm113.05859.17968c-3.69293.4306 2.08045 1.95751 0 0zm-96.44336.22851c-.96347.0393-.322 1.15723 0 0zm100.21484.15625c-.66917-.19377.27062.69488 0 0zm-116.13866.15235c-2.06659-.13974 1.28341 1.46961 0 0zm2.83788.15625c-1.21479-.12692.24267.32708 0 0zm109.88672.1875c-.11479.76393.29455-.10502 0 0zm-97.7168.0527c-8.15162 5.10291-5.70566 5.82105 0 0zm97.12892.61329c-1.66009.6539-.14245 1.23264 0 0zm-107.96876.0312c-1.24157-.1483.22776.32263 0 0zm-3.06835.0586c-.99777 1.74964.99041 1.73948 0 0zm-.69922.60351c-1.20348-.10755.26978.32182 0 0zm112.25194.0254c-1.4219 1.58208-.43377 9.25185.14063 2.58985l.01-2.20704zm-14.57031.41797c-1.92237.33849 2.77656 2.94044 0 0zm-96.76758.49805c.27111 1.18049.95482-.21797 0 0zm1.1582.77734c-.58516 1.01012 1.89872 1.60464 0 0zm90.01367.0723c-1.16846 2.11915 2.99789 2.62993 0 0zm38.88869.0742c-1.22902.023-.48077 1.58565 0 0zm-12.88672.58203c-.83204 3.16647 3.3321.20377 0 0zm-18.05469.20116c-3.40275-.37676 2.10487 2.29607 0 0zm-13.41211.42188c-1.89197.71516 2.85641 2.2713 0 0zm-84.35547.0293c-.73992 1.03483 2.78451 3.53672 0 0zm127.37695.53125c-.95041.0321-.34484 1.15888 0 0zm-8.23047.44921c-1.21778-.124.24391.32267 0 0zm-21.63477.0645c-1.23438-.13204.25619.32227 0 0zm34.21485.12501c-1.2164-.13855.25418.31937 0 0zm-33.96876.14843c1.24248 4.61456 4.10807 5.29643 0 0zm19.46681.0176-.0391.36524zm-112.875.40821c-1.22075-.12059.25585.31372 0 0zm122.14062.11327c-.96785.0259-.33044 1.1627 0 0zm-105.80664.28126c-1.2239-.12026.24454.32359 0 0zm-1.29298.0605c-9.83071 2.0355 2.3609.62866 0 0zm-17.44334.71096c-2.35672 1.87046 2.6613.73862 0 0zm14.7578.56444c-1.21778-.124.24392.32268 0 0zm-.65821.22265c-1.22845-.13609.24501.32558 0 0zm-.66014.22658c-1.22473-.13993.226.31882 0 0zm-14.99024.0937c-.16486 1.79024 1.75888-.10341 0 0zm12.33204.79297c-1.21795-.11896.25434.31823 0 0zm-.66211.22461c-1.226-.12924.25414.3255 0 0zm-.65626.22459c-1.23702-.1416.23872.31659 0 0zm-8.05079.0566c-.3034.38558.0818 1.75179 0 0zm117.22071.77735c-.29817.3839.0741 1.74898 0 0zm-20.14453.0801c-.68737 1.30357 2.99245-.45755 0 0zm-91.75194.0235c-4.38299.52808-2.3415 1.7807 0 0zm101.84374.33202c-1.24284-.14282.23935.3178 0 0zm-8.8086.0723c-.32153 4.72713 3.48594 4.41506 0 0zm18.29297.1211c-1.21634-.13849.25417.31935 0 0zm-115.42577.1504c-3.55064 2.26188 3.54443 1.8106 0 0zm100.22656.16406c-2.33644 2.05156.58099 2.0926 0 0zm-87.01171.18946c-1.22868-.131.25549.32111 0 0zm.4707.49412c.16434 2.18293 1.40328-.25982 0 0zm-15.03712.43164c-1.22477-.13992.2261.31883 0 0zm16.35744.44727c-.74242.38725 1.18084.0214 0 0zm-14.60743.17187c-.36429 1.29064 3.88231 3.86288 0 0zm99.125 1.08203c-1.22652-.12172.25649.31491 0 0zm-97.31446 1.53322c-.29523.48221.61346.0136 0 0zm.95507.98633c-1.38388-.29218-.74833 1.08885 0 0zm14.44922.57618c-1.21778-.12401.24392.32267 0 0zm-14.53711.0996c-.1623.48548-.0878.65036-.008.79492l.1582.1582c.52188.006 1.47383-1.1004-.15038-.95312zm1.11913.83203c-.65946-.18575.2688.68728 0 0zm-.0215.70899.88086.4375zm21.72267.67383c1.72247 2.59794.60176 1.01045 0 0zm2.08007 1.41211c-1.21796-.11898.25433.31824 0 0zm-7.69532.29882c-.59904 11.91551 5.70565 25.26484 1.79883 5.40234-.44586-1.83671-.47971-4.09841-1.79883-5.40234zm8.60156.14453c-1.66576 1.27192 2.18893 2.69174 0 0zm-1.20702.26172c-1.17654-.14757 1.21666.58209 0 0zm2.5371 1.11328c.11659.16238.47499.52592.72657.60352-.71792-.72712-.84315-.76591-.72657-.60352zm-.0351.38281c-1.21791-.11892.25433.31824 0 0zm2.88868.51954c-.70055.68845-.67741 2.68167 1.98437 4.82226-1.37161 1.31589 3.19357.47173 1.18946-1.16014.13568-.007.15152.0851.33399.0332-.33019-1.52478-.95128-1.17097-1.10547-.65431-.031-.0141-.0148-.0229-.0469-.0371-.23064-3.07603-1.65491-3.69235-2.35546-3.0039zm1.9414 6.16211c-1.02974.67091.23897 1.24008 0 0zm.2168 5.44727c-1.22867-.131.25549.32111 0 0zm9.40819.67576c-1.17281-.13902 1.22431.59182 0 0zm-1 1.9961c-4.71628 5.83471-12.90248 19.69498-1.55273 4.20899-1.13111-1.77032 1.77191-2.4511 1.55273-4.20899zm-2.90234 2.38868c-1.22598-.12919.25422.32549 0 0zm.20313 5.08007c-1.21793-.11891.25442.31826 0 0zm-5.51952 1.55861c-1.22868-.131.25549.32111 0 0zm17.24804.44922c.49381 1.427.73856-.49433 0 0zm16.00781.68944c-1.23441 3.02278 2.31042 1.38277 0 0zm-15.68165.17968c-1.17145-.1397 1.21857.59216 0 0zm-4.74804.0234c-1.67753 3.29051 2.45533.87682 0 0zm5.63087.41406c-1.18368-.14495 1.22504.58991 0 0zm20.60937.1211c-1.21795-.11895.25434.31823 0 0zm-8.98829.37694-.0371.36523zm-12.17969.17969.88477.43946zm-7.06055.0176c.15615 4.05581 2.80359.19245 0 0zm24.6875.31446c-1.19732-.1113.26918.32098 0 0zm-.65429.22852c-1.22862-.13094.25549.32111 0 0zm-15.45507.043c-1.21778-.12401.24392.32267 0 0zm16.63866.11521c-4.6878 1.65724 3.37357 1.03565 0 0zm-16.39258.15626c-2.57653.0857.85051 1.44757 0 0zm-9.26953.0312c-10.86597 5.52508-1.47272 4.64026 0 0zm9.26953.58984c-.91192 2.92961 1.07971-.0932 0 0zm-7.2832.0625c-.70254 2.83681 1.80149-.40635 0 0zm17.40625 1.00195c-1.21771-.12392.24392.32267 0 0zm7.9707.3711c-.40952 1.25857 1.60828.5349 0 0zm-17.65625.15039c.4884 1.42463.7397-.49107 0 0zm-6.84569.24219c.49037 1.4337.7448-.50113 0 0zm7.50781.41797c.48984 1.42686.73665-.48436 0 0zm-7.06641.0234c-3.87458 1.5431 1.26673 2.36946 0 0zm1.50585 2.36327c-1.20569-.12131.26937.32813 0 0zm-1.73045.0664c.25257 1.17117.95918-.2171 0 0zm9.68748.36132c-1.2217-.13804.22455.32313 0 0zm-.66796.22071c-1.23394-.13188.26638.31806 0 0zm-7.03711.51366c6.82234 9.29706 10.69227 21.95749 14.45703 22.54884-6.06522-13.6333-2.70095-6.30469-14.45703-22.54884zm-2.87108.22853c-.49104 3.11193 2.12702.88629 0 0zm1.29686.82616c-1.22845-.13609.24501.32558 0 0zm.041.6797c-.8755-.14402.98273 1.17072 0 0zm10.55077 1.05663c-1.22838-.13602.245.32555 0 0zm-11.56443.0723c-1.17263-.14314 1.22323.589 0 0zm.55077.44921c.26051 1.17727.96548-.19186 0 0zm11.44922.35742c-1.21778-.124.24392.32268 0 0zm-11.7539.45899c-1.2199.31682 1.94557 4.01402 0 0zm12.55469.0234c-1.1714-.13853 1.21774.58724 0 0zm-.13674.62694c-1.22477-.13992.2261.31883 0 0zm.48243.18555c-.43472 1.41829 1.23205 2.10469 0 0zm20.08984 4.62695c-1.22891.0322-.47279 1.57075 0 0zm-16.92186.29103c-1.17298-.13379 1.22447.58967 0 0zm41.37499.74217c-.78035.90757.28159.33965 0 0zm-8.66211.1797c-.31884-.11341-.52173.01-.37305.62109 3.32857 2.18913 1.32959-.28085.37305-.62109zm-11.66211.082c-1.20294-.12946.2415.32499 0 0zm-5.23633.24805c-.96487.0346-.3219 1.16006 0 0zm-15.2871.0332c-1.23707-.14166.23872.31659 0 0zm41.7168.10156c-1.22595-.12918.25414.3255 0 0zm10.6953.20703c.10734.5081.28864-.13951 0 0zm.13673.16796c.0698 4.55661 5.78346 10.10773 9.67383 18.82618-6.8287-5.44151-.51598 4.19642.65039 4.63475.71254-1.7637 1.6697-1.41185 2.60742-.50195.66458-4.64482-5.31287-5.94548-2.36913-7.8164-2.15494-.35673-3.70093-1.88609-4.61133-5.35351-11.92126-8.42599 12.84624-11.96156-4.61133-8.15626l-1.33788-1.63085zm12.93164 22.95898c-.0269.18806.0913.29655.041.4961.23927.0252.20937.0988.43555.13086-.16748-.20852-.30327-.4588-.47657-.62696zm.47657.62696c2.01419 2.50785 3.52709 7.15314.72655.52539 6.38794 2.56554 4.4841.21227-.72655-.52539zm-.16797-23.35742c.19328.32855-1.24108-.16892 0 0zm-65.54688.006c-1.08455.48156 1.14526.54074 0 0zm40.40625.0449c-1.41924 1.01281 2.38206 1.4047 0 0zm22.30664.0508c-2.48644.88002 2.79484 2.46511 0 0zm-28.93751.0351c-1.13914 2.17055 1.29877 1.28829 0 0zm49.86134.24414c-1.23479-.12715.25622.32199 0 0zm-31.78906.0899c-1.22598-.12918.25421.3255 0 0zm33.25391.0273c-2.60634 1.03712 3.088 1.29717 0 0zm-70.94336.0977c-1.22064.0305-.47734 1.58051 0 0zm-13.4961.0723c.0891 1.61533.50792.10475 0 0zm76.87305.20117c3.67301 5.27083 3.49159.65677 0 0zm1.76757.13671c-.58549 1.01298 1.90362 1.61232 0 0zm7.41993.25001c-1.22053-.1258.24531.31835 0 0zm-19.64648.27344c-1.2239-.12026.24454.32359 0 0zm-4.50587.1914c-2.08033 1.4578 2.46551.32431 0 0zm-49.33008.0156c-2.69816 2.32642-.41461 2.65936 0 0zm54.08595.0684c-1.26007 3.50585 2.23606 2.68049 0 0zm-1.08399.0117c-.81956 1.34108 1.75547.49606 0 0zm19.9453.29882c-2.00195 1.9763 2.60602 1.07537 0 0zm-84.61327.33398c-1.30847.14673 1.1769 1.38091 0 0zm90.22461.3379c-1.22866-.13101.25548.32112 0 0zm-28.89454.35546c-.73852.38856 1.18558.0196 0 0zm-60.51562.11719c-1.22867-.13099.25549.32112 0 0zm77.26367.22461c-1.22864-.13093.25557.3211 0 0zm-42.79883.17383.88477.43945zm-34.20507.0527c-.87158-.12255 1.00449 1.17962 0 0zm77.79102.29492c-4.01711 1.38054 4.49126 1.62735 0 0zm-12.67969.44727.36718.0312zm-11.03516.0293c-1.59368 1.13228 1.58088 1.13334 0 0zm-45.22656.0937c-1.23249.0223-.46789 1.58188 0 0zm-8.23047.004c-1.21479-.12692.24267.32708 0 0zm84.13671.041.36915.0313zm-19.00781.44336c-1.23551-.15209.22717.32168 0 0zm.24219.26759c-1.05622 1.04705 1.21562.19239 0 0zm-65.10937.14062c-.87096-.12235 1.00301 1.17484 0 0zm.64843.92383c-1.03521.0963.82942 2.44087 0 0zm53.08789 1.38477c-1.1712-.14375 1.2175.58931 0 0zm-52.45898.10546c-1.22866-.13101.25548.32112 0 0zm58.05469.49804c-1.21791-.11889.25434.31823 0 0zm8.61523.20117c-1.22746-.13925.22509.32434 0 0zm-66.1582.004c-1.47117 1.66698 1.57975.78496 0 0zm65.18946.0371c-1.17702-.14069 1.21941.5926 0 0zm19.97655.83983c.26536 1.18063.95943-.20249 0 0zm-27.81836.0781c-2.41532.67376 1.77521 1.14709 0 0zm20.72071.33009c-1.22369-.12008.25495.31941 0 0zm-11.47265.0371c-1.23012-.14604.22654.32026 0 0zm12.43944.55467c-.80289 1.44536 1.21916 1.11418 0 0zm-1.18554.0703c-1.22867-.131.25549.32111 0 0zm-19.87109.0527c-1.20867-.13065.24207.32618 0 0zm-4.16408.28905c-.91287.91653 1.13955.83008 0 0zm13.48635 1.24611c-.67325-.20637.25606.68604 0 0zm-9.96095.0703c-1.45975 1.90432 1.42888 1.579 0 0zm-56.54492.98633c-1.2179-.1189.25434.31822 0 0zm34.79883.38476c-1.17697-.14062 1.21946.59262 0 0zm-.53906.41407c-.86609-.1202 1.00234 1.17419 0 0zm47.22656.13281c-1.30475 1.53007.69902 3.29005 0 0zm-13.05468.19923c-1.21777-.12401.24392.32267 0 0zm-11.0293.0371c-1.23781-.15639.22609.32749 0 0zm-33.56446.0918c-1.21923-.13285.26359.32059 0 0zm-22.02929.0313c-.59134.0167-2.38558.80001 0 0zm-3.06837.0586c-.84289.58907-1.04021.93736-1.02735 1.17188l.14656.14839c.59797.376 2.95639-.3822.88085-1.32033zm81.39063.41212c-1.22369-.12007.25497.3194 0 0zm-11.91602.041c-1.24247-.14773.23932.31804 0 0zm-33.08984.58399c-2.85804-.53429 2.53162 4.09878 0 0zm34.41406.17773c.88433 1.93363 1.27001-.065 0 0zm12.35157.95703c-1.21791-.11889.25434.31823 0 0zm-56.92189.21679c.4907 1.42501.7367-.49155 0 0zm44.78126.043c-1.23405-.13699.25615.32257 0 0zm13.46485.17774c-1.21797-.11898.25432.31825 0 0zm-1.24806.26757c-3.01875.51068 2.0904 2.51617 0 0zm7.4297.15822c-1.2237-.12007.25496.3194 0 0zm-19.43164.0508c-1.20898-.12311.26071.32767 0 0zm13.05664.24219c.25719 1.17828.96434-.20763 0 0zm-13.02539.69921.88086.43556zm1.50586.59766c-1.20528-.11191.27871.32384 0 0zm-36.41992.32813c-1.22411-.11519.25501.31913 0 0zm21.39842-.00001c2.39599-.42919-.77794 1.29684 0 0zm-30.22851.0254c-1.22945-.12116.25567.32057 0 0zm.88867.44531c-1.23674-.14661.23871.31688 0 0zm8.08205.23439c-1.16995-.14567 1.21251.59452 0 0zm-.75392.63281c-.66173-.19219.26245.68527 0 0zm-7.52734.28515c.26473 1.17766.95645-.20893 0 0zm56.52538.0215c-.86967-.12299.99792 1.17509 0 0zm-10.1953.23438c-1.226-.12923.25414.32551 0 0zm-38.16407.38672c-1.85938 1.33117 2.17911 1.16863 0 0zm37.93946.27734c-1.22077-.12061.25585.31374 0 0zm-38.63281.76759c-1.21795-.11896.25432.31821 0 0zm39.95702.11131c-1.2284-.13603.24499.32556 0 0zm-45.67188.40235c-.88384.61114.83353.29138 0 0zm45.67579.44531c-1.87199.30882.25512.53892 0 0zm.26563.49025c-.6731-.20377.25665.69444 0 0zm10.94141.51757c-.39106 1.50581 2.15689.78729 0 0zm-55.15039.25391c-1.21796-.11895.25434.31823 0 0zm.0625.57227-.0371.36523zm4.58007 1.41405c.20786.31839-1.24165-.16889 0 0zm-3.98633.88086c-1.22074-.12058.25586.31373 0 0zm-.20507 3.8086c-4.84335 6.03353-2.09137 5.81781 0 0zm-3.0957 5.02149c-1.82557 2.09432.0389.44291 0 0zm-1.33399 1.61718c-2.87559 2.2907 1.0123 1.24835 0 0zm14.99414 4.8125c-1.58929.8589 2.61644 1.9838 0 0zm16.08789.12109c-1.22867-.13099.25549.32111 0 0zm-.41407.49805c.0808 1.61874.51199.0994 0 0z" fill="#fff" fill-rule="evenodd" opacity=".75"/><g stroke-linecap="round" stroke-linejoin="round"><path d="m413.53185 465.37422c9.34303-1.18166 18.31973-6.06154 25.50892-12.14464 10.8202-9.15547 20.83146-21.11524 24.38133-34.8374 4.86026-18.78748 9.97182-41.87797-6.06339-57.90129l-314.93692-314.945948c-15.94886-15.93599-37.10078-13.3036-55.953616-10.91919-9.34304 1.18166-18.31975 6.0615-25.50895 12.1446-10.82021 9.15546-20.83145 21.11525-24.38133 34.83741-4.86026 18.787458-9.97181 41.877988 6.06334 57.901238l314.936956 314.94598c15.94886 15.93604 37.10079 13.30366 55.95366 10.91924z" fill="url(#a)" opacity=".85" stroke-width="16"/><path d="m171.12691 585.342c-4.9722 4.97226-7.8395 14.78694-1.59142 21.03528l293.97119 293.9734c6.24856 6.24938 17.29523 5.33369 22.62891 0 5.33322-5.33322 6.24808-16.37861 0-22.62695l-293.97315-293.9734c-4.04215-4.04192-16.06326-3.38065-21.03553 1.59167z" fill="url(#b)" filter="url(#c)" opacity=".5" transform="translate(-51.860489 -517.91798)"/><path d="m159.7207 542.91797c-8.01283-.0293-15.61244.93939-22.26953 1.67383-11.99968 1.32393-21.96446 7.38143-29.78906 13.98047-11.429752 9.63953-22.956497 22.23975-27.001954 39.08593-2.144881 8.93175-4.863581 19.97167-4.810547 31.53711.05303 11.56544 3.231014 24.13084 12.998047 33.89063l314.933594 314.94336a8.0008 8.0008 0 0 0 .002.002c9.45984 9.4522 21.11282 13.37032 32.08594 14.47852 10.97312 1.10819 21.5243-.28635 30.40039-1.26563 11.99983-1.32386 21.96451-7.38153 29.78906-13.98047 11.42983-9.63953 22.95648-22.23979 27.00196-39.08594 2.14488-8.93174 4.86357-19.97167 4.81054-31.53711-.053-11.56543-3.23103-24.13086-12.99804-33.89062l-314.93365-314.94341a8.0008 8.0008 0 0 0 -.002-.002c-9.45983-9.45223-21.11283-13.37032-32.08594-14.47852-2.74328-.27705-5.45991-.39843-8.13086-.4082zm-.0293 16.01758c2.22765.001 4.41914.0931 6.55273.30859 8.53435.8619 15.8938 3.39511 22.38281 9.87891l314.93556 314.94336a8.0008 8.0008 0 0 0 .002.002c6.26813 6.26347 8.26575 13.72718 8.30664 22.64648.0409 8.91931-2.2279 18.81813-4.36718 27.72657-2.8269 11.77177-11.59376 22.01617-21.75977 30.58984-6.34893 5.35445-13.65498 9.47306-21.22852 10.30859-9.05229.99872-18.5047 2.11386-27.03906 1.25196-8.53346-.86181-15.89235-3.39274-22.38086-9.875l-.002-.002-314.93555-314.94532a8.0008 8.0008 0 0 0 -.002-.002c-6.268161-6.26352-8.26574-13.72718-8.306641-22.64649-.0409-8.9193 2.227904-18.81812 4.367188-27.72656 2.826876-11.77174 11.593763-22.01611 21.759763-30.58984 6.34887-5.35445 13.655-9.47301 21.22852-10.3086 6.78927-.74902 13.80338-1.56415 20.48633-1.56054z" fill="#918198" transform="translate(-51.860489 -517.91798)"/></g></svg>