<svg height="500" viewBox="0 0 132.29167 132.29167" width="500" xmlns="http://www.w3.org/2000/svg" xmlns:xlink="http://www.w3.org/1999/xlink"><linearGradient id="a"><stop offset="0" stop-color="#549e2e"/><stop offset="1" stop-color="#71ad2e"/></linearGradient><linearGradient id="b"><stop offset="0" stop-color="#c20a0a"/><stop offset="1" stop-color="#e60a0a"/></linearGradient><linearGradient id="c" gradientTransform="matrix(391.593 0 0 -391.593 60.7962 7618.49)" gradientUnits="userSpaceOnUse" spreadMethod="pad" x1="0" x2="1" y1="0" y2="0"><stop offset="0" stop-color="#9f571d"/><stop offset=".511236" stop-color="#fde791"/><stop offset="1" stop-color="#b7671e"/></linearGradient><linearGradient id="d" gradientTransform="matrix(3.7795274 0 0 3.7795274 -341.5064 91.506337)" gradientUnits="userSpaceOnUse" spreadMethod="pad" x1="94.045052" x2="119.2919" xlink:href="#c" y1="-4.883033" y2="2.117459"/><radialGradient id="e" cx="-.599177" cy="36.992382" gradientTransform="matrix(.00000801 .93600048 -2.3293456 0 150.79696 49.695596)" gradientUnits="userSpaceOnUse" r="54.499665"><stop offset="0" stop-color="#85532d" stop-opacity=".1"/><stop offset=".295977" stop-color="#85532d" stop-opacity=".25"/><stop offset=".66551721" stop-color="#724727" stop-opacity=".67"/><stop offset="1" stop-color="#724727"/></radialGradient><filter id="f" color-interpolation-filters="sRGB" height="1.055607" width="1.034332" x="-.017166" y="-.027804"><feGaussianBlur stdDeviation=".77962758"/></filter><linearGradient id="g" gradientTransform="matrix(2.6778927 0 0 3.1842362 -475.64199 -806.15514)" gradientUnits="userSpaceOnUse" spreadMethod="reflect" x1="-75.162231" x2="-56.490837" xlink:href="#c" y1="363.89615" y2="379.59848"/><radialGradient id="h" cx="192.11943" cy="-55.6866" gradientTransform="matrix(-6.4320287 -.00006367 .00000975 -1.0000502 1503.8008 -47.48304)" gradientUnits="userSpaceOnUse" r="5.819336" xlink:href="#b"/><radialGradient id="i" cx="150.85452" cy="-58.065563" gradientTransform="matrix(-6.4320281 -.00002031 .00000331 -1.0000504 1197.1184 -52.250073)" gradientUnits="userSpaceOnUse" r="5.819336" xlink:href="#b"/><radialGradient id="j" cx="137.09962" cy="-55.695789" gradientTransform="matrix(-6.4320279 -.00003223 .00000511 -1.0000503 1094.8917 -47.509127)" gradientUnits="userSpaceOnUse" r="5.819336" xlink:href="#b"/><radialGradient id="k" cx="123.34467" cy="-51.677383" fy="-51.677387" gradientTransform="matrix(-6.4320297 -.00003862 .00000604 -1.0000507 992.66475 -39.471543)" gradientUnits="userSpaceOnUse" r="5.819336" xlink:href="#b"/><radialGradient id="l" cx="205.87439" cy="-51.662754" fy="-51.662758" gradientTransform="matrix(-6.4320282 -.00006086 .0000096 -1.0000504 1606.0279 -39.43462)" gradientUnits="userSpaceOnUse" r="5.819336" xlink:href="#b"/><radialGradient id="m" cx="219.62926" cy="-44.189278" fy="-44.189281" gradientTransform="matrix(-6.432034 -.00005243 .00000802 -1.0000505 1708.2556 -24.488164)" gradientUnits="userSpaceOnUse" r="5.819336" xlink:href="#b"/><radialGradient id="n" cx="110.64803" cy="-44.873051" gradientTransform="matrix(-6.432031 -.00003529 .00000532 -1.0000507 898.30298 -25.863475)" gradientUnits="userSpaceOnUse" r="5.819336" xlink:href="#b"/><radialGradient id="o" cx="178.36443" cy="-58.065594" fy="-58.06559" gradientTransform="matrix(-6.4320328 .00000013 0 -1.0000502 1401.5734 -52.253181)" gradientUnits="userSpaceOnUse" r="5.819336" xlink:href="#b"/><radialGradient id="p" cx="1600.8293" cy="-2083.2708" gradientTransform="matrix(-7.8621457 -.00000098 -.00000006 -1 15252.38 -3278.9813)" gradientUnits="userSpaceOnUse" r="66.14583" xlink:href="#b"/><filter id="q" color-interpolation-filters="sRGB" height="1.051137" width="1.05697" x="-.028485" y="-.025569"><feGaussianBlur stdDeviation="3.2525143"/></filter><filter id="r" color-interpolation-filters="sRGB" height="1.051137" width="1.056957" x="-.028479" y="-.025569"><feGaussianBlur stdDeviation="3.2525143"/></filter><radialGradient id="s" cx="180.21974" cy="-133.39171" gradientTransform="matrix(-.61081286 -.00000001 -.00000008 -.33065647 429.30313 54.901034)" gradientUnits="userSpaceOnUse" r="226.65421" spreadMethod="reflect" xlink:href="#b"/><radialGradient id="t" cx="111.35471" cy="-76.873337" gradientTransform="matrix(-1.0888405 -.00000001 .00000007 -.5894312 440.47013 53.696323)" gradientUnits="userSpaceOnUse" r="127.14746" xlink:href="#b"/><linearGradient id="u" gradientUnits="userSpaceOnUse" spreadMethod="reflect" x1="41.04969" x2="5.345703" xlink:href="#a" y1="54.999996" y2="101.99999"/><linearGradient id="v" gradientUnits="userSpaceOnUse" spreadMethod="reflect" x1="41.04969" x2="5.345703" xlink:href="#a" y1="54.999996" y2="130.99998"/><filter id="w" color-interpolation-filters="sRGB" height="1.281415" width="1.281415" x="-.140707" y="-.140707"><feGaussianBlur stdDeviation=".68235235"/></filter><filter id="x" color-interpolation-filters="sRGB" height="1.319829" width="1.319829" x="-.159915" y="-.159915"><feGaussianBlur stdDeviation=".77549729"/></filter><filter id="y" color-interpolation-filters="sRGB" height="1.31448" width="1.31448" x="-.15724" y="-.15724"><feGaussianBlur stdDeviation=".76252776"/></filter><clipPath id="z"><path d="m64.628907 49.134767c-12.336063 0-22.718541 1.081518-33.44336 4.673827-6.109903 2.046531-12.387919 4.943478-17.244141 9.642579-1.670637 1.616583-2.754198 3.65248-3.4375 5.679686-1.8229745 5.408385-3.4382182 11.719801-1.8671872 17.81836 2.3206392 9.008446 8.3447222 17.277001 15.8945312 22.591801 11.39993 8.02516 24.414406 11.125 40.097657 11.125 15.683249 0 28.697728-3.09984 40.097653-11.125 7.54981-5.3148 13.57195-13.583352 15.89258-22.591801 1.57104-6.098559-.0423-12.409975-1.86523-17.81836-.6833-2.027208-1.76882-4.063106-3.43946-5.679686-4.85622-4.699101-11.13423-7.596048-17.244137-9.642579-10.72482-3.592309-21.105342-4.673827-33.441406-4.673827z"/></clipPath><filter id="A" color-interpolation-filters="sRGB" height="1.263847" width="1.058674" x="-.029337" y="-.131923"><feGaussianBlur stdDeviation="1.0434212"/></filter><g transform="translate(0 -10.31875)"><path d="m88.512195 101.68369c-8.832879 0-16.628055.28701-25.506672 1.2403-5.058128.54309-10.520569 1.31186-15.56669 2.55887-1.735965.42899-3.191576.96926-4.357691 1.50722-3.111072 1.43523-6.374914 3.1101-7.286247 4.72848-1.346168 2.39057.206447 4.58481 3.837731 5.9952 5.483099 2.12965 13.766744 2.95226 24.99628 2.95226s21.58317-.82261 32.42524-2.95226c7.180364-1.41039 14.253094-3.60463 18.922514-5.9952 3.16112-1.61838 4.11323-3.29325 4.61376-4.72848.18759-.53796.0901-1.07823-.56637-1.50722-1.90818-1.24701-5.43611-2.01578-9.12763-2.55887-6.47978-.95329-13.551344-1.2403-22.384225-1.2403z" filter="url(#A)" opacity=".5" transform="matrix(1.1591707 0 0 1.1591707 -10.494081 -19.206498)"/><path d="m64.628906 49.134766c-12.336063 0-22.718539 1.081519-33.443359 4.673828-6.109903 2.04653-12.387919 4.943479-17.244141 9.642578-1.670637 1.616583-2.754198 3.652481-3.4375 5.679687-1.8229745 5.408386-3.4382181 11.719802-1.8671872 17.81836 2.3206392 9.008447 8.3447222 17.277001 15.8945312 22.591801 11.39993 8.02516 24.414407 11.125 40.097656 11.125 15.68325 0 28.69773-3.09984 40.097654-11.125 7.54981-5.3148 13.57195-13.583352 15.89258-22.591801 1.57104-6.098559-.0423-12.409975-1.86523-17.81836-.6833-2.027209-1.76882-4.063106-3.43946-5.679687-4.85622-4.699099-11.13423-7.596048-17.244138-9.642578-10.724819-3.592309-21.105342-4.673828-33.441406-4.673828z" fill="#84542e"/><path d="m25.749053 107.81021c-7.130758-5.01981-12.887244-12.945244-15.06267-21.389988-1.3897175-5.394718.0434-11.333808 1.822772-16.612833.600562-1.781735 1.553369-3.527883 2.90457-4.835365 4.508653-4.362774 10.495414-7.163529 16.444456-9.156178 10.457716-3.502843 20.556545-4.563571 32.770068-4.563571 12.213522 0 22.312352 1.060728 32.770067 4.563571 5.949044 1.992649 11.935804 4.793404 16.444454 9.156178 1.3512 1.307482 2.30401 3.05363 2.90457 4.835365 1.77937 5.279025 3.21249 11.218115 1.82277 16.612833-2.17543 8.444744-7.93191 16.370178-15.06267 21.389988-10.994094 7.73946-23.470652 10.73932-38.879191 10.73932-15.40854 0-27.885101-2.99986-38.879196-10.73932z" fill="#bf7d40" filter="url(#f)"/><path d="m25.749053 107.81021c-7.130758-5.01981-12.887244-12.945244-15.06267-21.389988-1.3897175-5.394718.0434-11.333808 1.822772-16.612833.600562-1.781735 1.553369-3.527883 2.90457-4.835365 4.508653-4.362774 10.495414-7.163529 16.444456-9.156178 10.457716-3.502843 20.556545-4.563571 32.770068-4.563571 12.213522 0 22.312352 1.060728 32.770067 4.563571 5.949044 1.992649 11.935804 4.793404 16.444454 9.156178 1.3512 1.307482 2.30401 3.05363 2.90457 4.835365 1.77937 5.279025 3.21249 11.218115 1.82277 16.612833-2.17543 8.444744-7.93191 16.370178-15.06267 21.389988-10.994094 7.73946-23.470652 10.73932-38.879191 10.73932-15.40854 0-27.885101-2.99986-38.879196-10.73932z" fill="url(#e)"/><path d="m25.749053 107.81021c-7.130758-5.01981-13.280099-14.470257-15.06267-21.389988s1.822772-16.612833 1.822772-16.612833 9.535948 5.669128 14.776307 7.335854c12.006121 3.818615 24.744026 5.837396 37.342787 5.837396 12.598759 0 25.336661-2.018782 37.342781-5.837396 5.24036-1.666726 14.77631-7.335854 14.77631-7.335854s3.60534 9.693101 1.82277 16.612833-7.93191 16.370178-15.06267 21.389988c-10.994094 7.73946-25.43414 10.73932-38.879191 10.73932-13.445052 0-27.885101-2.99986-38.879196-10.73932z" fill="url(#d)"/><path d="m115.66602 67.988281s-9.24968 5.517656-14.33594 7.138672c-11.797584 3.759946-24.318921 5.736328-36.701174 5.736328s-24.903487-1.976702-36.701172-5.736328c-5.086861-1.621055-14.33789-7.138672-14.33789-7.138672l-3.101712 1.189453s-1.5532328 4.420042-1.86555 6.725446c-.494294 3.648687-1.0992475 7.536393.014137 11.046039 2.784247 8.776593 8.369543 17.285661 15.894531 22.591801 11.335966 7.9934 24.414407 11.125 40.097656 11.125 15.68325 0 28.76192-3.13127 40.097654-11.125 7.52453-5.30615 13.12324-13.810887 15.89258-22.591801 1.12635-3.571393.48957-7.524794-.0228-11.234376-.30956-2.241229-1.82664-6.537109-1.82664-6.537109zm-.34766 5.060547c.76597 3.508304 2.30819 8.688763 1.20117 12.84375-2.11959 7.955483-7.49428 15.453982-14.23047 20.187502-10.65217 7.48527-22.526355 10.35351-37.660154 10.35351s-27.009376-2.86795-37.662109-10.35351c-6.736219-4.73347-12.111531-12.231844-14.230469-20.187502-1.106527-4.154511.230527-9.002863 1.203125-12.841797 2.804354 1.629241 8.218031 4.713304 12.705078 6.109375 12.236613 3.80722 25.169165 5.9375 37.984375 5.9375 12.815211 0 25.747999-2.129516 37.984374-5.9375 4.48723-1.396435 9.90204-4.482774 12.70508-6.111328z" fill="#84542e"/><path d="m64.628906 49.134766c-12.336063 0-22.718539 1.081519-33.443359 4.673828-6.109903 2.04653-12.387919 4.943479-17.244141 9.642578-1.670637 1.616583-2.571676 3.679242-3.453274 5.726562-.9201187 2.136777-1.5532328 4.420042-1.86555 6.725446-.494294 3.648687-.9186628 7.42502.014137 11.046039 2.320638 9.008447 8.344722 17.277001 15.894531 22.591801 11.39993 8.02516 24.414407 11.125 40.097656 11.125 15.68325 0 28.69773-3.09984 40.097654-11.125 7.54981-5.3148 13.57193-13.583357 15.89258-22.591801.78552-3.049279.48958-7.524795-.0228-11.234376-.30957-2.24123-.91518-3.832916-1.82666-6.537109-.6833-2.027211-1.78459-4.109981-3.45523-5.726562-4.85622-4.699099-11.13423-7.596048-17.244138-9.642578-10.724819-3.592309-21.105342-4.673828-33.441406-4.673828zm0 4.234375c12.090958 0 21.907065 1.039757 32.097656 4.453125 5.788168 1.938764 11.483458 4.643481 15.644528 8.669921 1.03177.99838 1.85328 2.455931 2.3711 3.992188 1.73576 5.149655 2.98574 10.717335 1.77734 15.408203-2.0302 7.881022-7.51877 15.462702-14.23047 20.187502-10.588231 7.45376-22.526355 10.35351-37.660154 10.35351s-27.073872-2.89975-37.662109-10.35351c-6.711695-4.7248-12.200262-12.306478-14.230469-20.187502-1.2084-4.690869.04353-10.258549 1.779297-15.408203.517821-1.53626 1.337379-2.993809 2.369141-3.992188 4.161072-4.02644 9.858315-6.731157 15.646484-8.669921 10.190591-3.413368 20.006699-4.453125 32.097656-4.453125z" fill="#84542e"/><g clip-path="url(#z)"><g fill="url(#l)" transform="matrix(.9289831 .42287362 -.37012214 .90796604 -1.184264 -25.928543)"><path d="m64.626953 88.507812c-3.203763 0-5.820312 2.625627-5.820312 5.820313s2.616549 5.818355 5.820312 5.818355 5.818359-2.623669 5.818359-5.818355-2.614596-5.820313-5.818359-5.820313zm0 2.117188c2.055498 0 3.701172 1.655838 3.701172 3.703125s-1.645674 3.701172-3.701172 3.701172-3.703125-1.653885-3.703125-3.701172 1.647627-3.703125 3.703125-3.703125z" fill="#84542e" fill-rule="evenodd" filter="url(#w)"/><path d="m64.626276 89.566349c-2.629633 0-4.760806 2.139816-4.760806 4.760805s2.131173 4.760805 4.760806 4.760805 4.760806-2.139816 4.760806-4.760805-2.131173-4.760805-4.760806-4.760805z" fill="url(#g)" fill-rule="evenodd" stroke-width="2.11667"/><g fill="url(#p)" stroke-width=".989251" transform="matrix(.01945932 0 0 .01904322 59.761446 89.566349)"><g fill-rule="evenodd"><path d="m250 0c-135.13489-.00001831-244.6542969 112.36629-244.6542969 250s109.5194069 250.00002 244.6542969 250c135.13489.00002 244.6543-112.36629 244.6543-250s-109.51941-250.00001831-244.6543-250z" fill="#910808"/><path d="m476.65421 250a226.65418 232 0 0 1 -226.65421 232 226.65418 232 0 0 1 -226.65421-232 226.65418 232 0 0 1 226.65421-232 226.65418 232 0 0 1 226.65421 232z" fill="url(#s)"/><path d="m377.16286 249.99588-27.47926-85.49905-99.69921-67.14648-99.66723 67.14648-27.44922 85.49905 27.41918 85.50681 99.69727 67.14649 99.72956-67.14649z" fill="url(#t)"/><path d="m249.98439 18.00074v79.34961l75.55273-8.06934zm0 0c-19.66253.16558-39.17881 3.0901-57.93135 8.13315-18.75256 5.04305-36.74135 11.94249-53.22884 22.07342l35.6094 41.0737zm-214.201498 157.59962 67.277348 20.70312-31.912053-87.9834c-8.05069 9.8996-15.315904 21.17576-21.143431 32.44833-5.827515 11.27257-10.529914 22.97416-14.221864 34.83195zm-12.422114 74.39552c.264726 12.78921 1.108696 25.27396 3.031711 37.75296 1.923016 12.479 4.894041 24.95909 9.390454 36.5898l67.277607-20.64209zm115.463432 201.53416 35.6094-40.81055-103.315422-19.146c8.894269 12.29613 19.486451 23.82268 30.830842 33.91756 11.34438 10.09488 23.72314 19.14431 36.87518 26.03899zm111.16018 30.46923v-79.35009l-75.55078 8.07031zm111.16044-30.46923-35.60739-40.81055-75.55305 71.27978c19.66549-.16802 39.24523-2.5992 57.99855-7.64282 18.75334-5.04361 36.68034-12.69915 53.16189-22.82641zm-35.60739-40.81055 24.17651-75.2168-99.72956 67.14649zm138.64849-86.38085-67.27539-20.64209 31.94137 87.87694c8.05079-9.89981 15.34545-20.85675 21.1729-32.12972s10.46897-23.24718 14.16112-35.10513zm12.45312-74.34276c.0667-12.36906-.9144-25.11101-3.05829-37.92707-2.14389-12.81607-5.45065-25.64081-8.99839-36.46845l-67.67188 20.70312zm-115.16244-201.78857-35.93949 41.0737 103.79566 19.03907c-9.13568-12.24007-19.53534-23.64967-30.93258-33.71848s-23.85527-18.82757-36.92359-26.39429zm-187.04301 41.0737-24.11644 75.21582 99.66723-67.14648z" fill="#a90a0a"/><path d="m23.360778 249.99588 79.699772 53.70067 19.80739-53.70067-19.8077-53.6924zm79.699772 53.70067-31.942362 87.87694c.187633.25756-.188672-.25676 0 0l103.315422 19.146-24.14649-75.2168zm222.47689 107.02294 103.31447-19.146c.18802-.25611-.18699.25691 0 0l-31.94137-87.87694-47.19659 31.80614zm151.10161-160.72361-79.72856-53.6924-19.74763 53.6924 19.74768 53.70067zm-47.30627-141.6758-103.79566-19.03907 24.14648 75.21582 47.22689 31.80665zm-326.27254 87.9834 47.25692-31.80665 24.11644-75.21582-103.285413 19.03907c-.188672.25741.187633-.25822 0 0z" fill="url(#t)"/><path d="m249.98439 18.00074 75.55273 71.28027 35.93949-41.0737c-15.12655-8.88357-31.83801-16.76434-50.33921-22.07342-18.50119-5.30907-30.87363-7.36604-61.15301-8.13315zm0 0-75.55079 71.28027 75.55079 8.06934zm-178.836203 90.31934 103.285413-19.03907-35.6094-41.0737c-13.31043 7.27793-25.7318 16.36604-37.14226 26.39429-11.410469 10.02825-22.062195 21.5391-30.533753 33.71848zm31.912053 87.9834-67.277348-20.70312c-4.50072 11.82001-7.517399 23.89777-9.479674 36.46845s-2.900093 25.71146-2.94244 37.92707zm.00031 107.39307-67.277607 20.64209c3.717916 12.30533 8.550441 23.91472 14.443103 35.10513 5.892649 11.19041 13.127915 22.34707 20.892142 32.12972zm222.47689 107.02294-75.55305-8.07031v79.35009l-75.55078-71.27978-35.6094 40.81055c16.40114 10.07914 34.47832 17.74666 53.32427 22.82641 18.84596 5.07973 38.47989 7.57316 57.83591 7.64282zm0 0 35.60739 40.81055c13.31173-7.27644 25.90227-16.01001 37.313-26.03899 11.41073-10.02899 21.92292-21.73767 30.39408-33.91756zm151.10161-160.72361-79.72851 53.70067 67.27539 20.64209c4.50401-11.82656 7.56658-24.01474 9.54368-36.5898s2.8687-25.54187 2.90944-37.75296zm-47.30627-141.6758-32.42229 87.9834 67.67188-20.70312c-5.17925-12.86146-9.65663-24.94096-15.30849-36.14545s-12.48168-21.53106-19.9411-31.13483zm-179.34839 294.3291-99.69727-67.14649 24.14649 75.2168zm0-305.29883 99.69921 67.14648-24.14648-75.21582z" fill="#fa3838"/><path d="m103.06055 303.69655 47.22657 31.80614-27.41918-85.50681zm19.80739-53.70067 27.44922-85.49905-47.25692 31.80665z" fill="#910808" opacity=".5"/><path d="m396.91049 196.30348-47.22689-31.80665 27.47926 85.49905zm-19.74763 53.6924-27.44891 85.50681 47.19659-31.80614z" fill="#f99" opacity=".5"/></g><path d="m188.72656 350.53224c-19.51713-15.1448-35.96509-36.80411-43.61523-60.64064-8.11015-25.26984-8.10965-54.51223 0-79.78223 7.64861-23.83336 23.95502-45.60524 43.60677-60.63396 17.39289-13.30126 39.54395-22.68204 61.26836-22.70588 21.55333-.0237 43.41569 8.99589 60.83307 22.39361l86.09096 47.14034-146.9261-98.95313-99.66723 67.14648-27.44922 85.49905 27.41918 85.50681 99.69727 67.14649z" fill="#f99" filter="url(#q)" opacity=".5"/><path d="m103.06055 303.69655 146.92384 98.95263 99.72956-67.14649 27.44891-85.50681-27.47926-85.49905-99.69921-67.14648 60.83514 51.81279c19.87561 15.28864 36.33708 36.95446 44.07011 60.94623 8.14157 25.25928 8.07024 54.49938-.00097 79.78223-7.54895 23.64687-23.61016 45.31057-43.05974 60.26653-17.53486 13.48362-39.89724 23.04753-61.84231 23.07234-21.72096.0246-43.83878-9.17975-61.26006-22.69823-28.55534-15.6119-57.11067-31.22379-85.66601-46.83569z" fill="#910808" fill-rule="evenodd" filter="url(#r)" opacity=".5"/><path d="m476.42305 238.9927-58.82735-39.6177 49.72774-15.25651 8.5789-2.63216-5.28125-17.20703-9.40008 2.884-49.57453 15.20975 26.17774-71.07617-6.83203-11.964849-88.2461-16.068359 26.60344-30.494111 4.8868-5.597686-13.5625-11.833984-7.25708 8.321386-28.49292 32.655176-61.28342-57.818718-13.64041-7.04261-13.57549 6.963389-61.34639 57.897939-28.44888-32.608032-7.30112-8.36853-13.56445 11.833984 4.8898 5.595781 26.60239 30.496016-88.246094 16.068359-6.833985 11.964849 26.177735 71.07617-50.371094-15.45508-8.603516-2.63867-5.279297 17.20703 8.603516 2.64062 49.701172 15.24805-58.802343 39.598-16.3694712 11.027 16.5206602 11.12596 58.651154 39.49904-49.727697 15.25664-8.576991 2.63203 5.279297 17.20703 8.958006-2.74793 50.016604-15.34582-23.933971 64.98404 1.172251 12.07455 13.633078 7.85273 78.029036 14.19806-26.42547 30.28715-5.06477 5.80464 13.5625 11.83399 7.43043-8.51587 28.32152-32.45874 61.33318 57.86556 13.5887 6.99381 13.57572-6.9634 61.34615-57.89597 28.3146 32.45184 7.43736 8.52277 13.5625-11.83399-4.88729-5.59737-26.60295-30.49442 77.80357-14.16692 20.97494-3.81924-5.8967-16.01037-23.98142-65.11285 50.3711 15.45508 8.60351 2.63867 5.2793-17.20703-8.60352-2.64062-49.70117-15.24805 58.77592-39.58307 16.39589-11.04193zm-217.42305-200.127466 46.15234 43.542969-46.15234 4.929688zm-18 .002v48.470704l-46.15039-4.929688zm-60.2207 60.140625 43.71484 4.669921-57.6875 38.85157zm138.44336 0 13.97265 43.521491-57.68945-38.85157zm-157.9336 1.816411-18.60351 57.94922-35.12696 23.6582-24.791012-67.30859zm177.42188 0 78.52148 14.29883-24.78906 67.31054-35.12891-23.66015zm-88.71094 7.37886 92.08398 62.01562 25.61133 79.78125-25.61328 79.7832-92.08203 62.01563-92.08203-62.01563-25.61328-79.7832 25.61328-79.78125zm116.20312 78.25976 19.83594 13.35938-8.30664 22.55273zm-232.40625.002-11.52734 35.90821-8.30664-22.55078zm-35.20312 23.70894 14.66797 39.82422-14.669923 39.82812-59.134766-39.82617zm302.81445 0 59.13477 39.82617-59.13477 39.82617-14.66797-39.82617zm-279.13867 67.45312 11.52734 35.91016-19.83398-13.35742zm255.46094 0 8.30664 22.55274-19.83399 13.35742zm-270.17188 39.93946 35.12696 23.6582 18.60351 57.95117-78.521482-14.29883zm284.88282 0 24.79101 67.31054-78.52148 14.29883 18.60351-57.95117zm-225.63477 39.90429 57.68945 38.85157-43.71679 4.66992zm166.38672 0-13.97266 43.52149-43.71679-4.66992zm-92.19336 55.18946v48.47461l-46.15234-43.54493zm18 0 46.15234 4.92968-46.15234 43.54493z" fill="#910808"/></g></g><g fill="url(#k)" transform="matrix(.9289831 -.42287362 .37012214 .90796604 10.070019 28.787702)"><path d="m64.626953 88.507812c-3.203763 0-5.820312 2.625627-5.820312 5.820313s2.616549 5.818355 5.820312 5.818355 5.818359-2.623669 5.818359-5.818355-2.614596-5.820313-5.818359-5.820313zm0 2.117188c2.055498 0 3.701172 1.655838 3.701172 3.703125s-1.645674 3.701172-3.701172 3.701172-3.703125-1.653885-3.703125-3.701172 1.647627-3.703125 3.703125-3.703125z" fill="#84542e" fill-rule="evenodd" filter="url(#w)"/><path d="m64.626276 89.566349c-2.629633 0-4.760806 2.139816-4.760806 4.760805s2.131173 4.760805 4.760806 4.760805 4.760806-2.139816 4.760806-4.760805-2.131173-4.760805-4.760806-4.760805z" fill="url(#g)" fill-rule="evenodd" stroke-width="2.11667"/><g fill="url(#p)" stroke-width=".989251" transform="matrix(.01945932 0 0 .01904322 59.761446 89.566349)"><g fill-rule="evenodd"><path d="m250 0c-135.13489-.00001831-244.6542969 112.36629-244.6542969 250s109.5194069 250.00002 244.6542969 250c135.13489.00002 244.6543-112.36629 244.6543-250s-109.51941-250.00001831-244.6543-250z" fill="#910808"/><path d="m476.65421 250a226.65418 232 0 0 1 -226.65421 232 226.65418 232 0 0 1 -226.65421-232 226.65418 232 0 0 1 226.65421-232 226.65418 232 0 0 1 226.65421 232z" fill="url(#s)"/><path d="m377.16286 249.99588-27.47926-85.49905-99.69921-67.14648-99.66723 67.14648-27.44922 85.49905 27.41918 85.50681 99.69727 67.14649 99.72956-67.14649z" fill="url(#t)"/><path d="m249.98439 18.00074v79.34961l75.55273-8.06934zm0 0c-19.66253.16558-39.17881 3.0901-57.93135 8.13315-18.75256 5.04305-36.74135 11.94249-53.22884 22.07342l35.6094 41.0737zm-214.201498 157.59962 67.277348 20.70312-31.912053-87.9834c-8.05069 9.8996-15.315904 21.17576-21.143431 32.44833-5.827515 11.27257-10.529914 22.97416-14.221864 34.83195zm-12.422114 74.39552c.264726 12.78921 1.108696 25.27396 3.031711 37.75296 1.923016 12.479 4.894041 24.95909 9.390454 36.5898l67.277607-20.64209zm115.463432 201.53416 35.6094-40.81055-103.315422-19.146c8.894269 12.29613 19.486451 23.82268 30.830842 33.91756 11.34438 10.09488 23.72314 19.14431 36.87518 26.03899zm111.16018 30.46923v-79.35009l-75.55078 8.07031zm111.16044-30.46923-35.60739-40.81055-75.55305 71.27978c19.66549-.16802 39.24523-2.5992 57.99855-7.64282 18.75334-5.04361 36.68034-12.69915 53.16189-22.82641zm-35.60739-40.81055 24.17651-75.2168-99.72956 67.14649zm138.64849-86.38085-67.27539-20.64209 31.94137 87.87694c8.05079-9.89981 15.34545-20.85675 21.1729-32.12972s10.46897-23.24718 14.16112-35.10513zm12.45312-74.34276c.0667-12.36906-.9144-25.11101-3.05829-37.92707-2.14389-12.81607-5.45065-25.64081-8.99839-36.46845l-67.67188 20.70312zm-115.16244-201.78857-35.93949 41.0737 103.79566 19.03907c-9.13568-12.24007-19.53534-23.64967-30.93258-33.71848s-23.85527-18.82757-36.92359-26.39429zm-187.04301 41.0737-24.11644 75.21582 99.66723-67.14648z" fill="#a90a0a"/><path d="m23.360778 249.99588 79.699772 53.70067 19.80739-53.70067-19.8077-53.6924zm79.699772 53.70067-31.942362 87.87694c.187633.25756-.188672-.25676 0 0l103.315422 19.146-24.14649-75.2168zm222.47689 107.02294 103.31447-19.146c.18802-.25611-.18699.25691 0 0l-31.94137-87.87694-47.19659 31.80614zm151.10161-160.72361-79.72856-53.6924-19.74763 53.6924 19.74768 53.70067zm-47.30627-141.6758-103.79566-19.03907 24.14648 75.21582 47.22689 31.80665zm-326.27254 87.9834 47.25692-31.80665 24.11644-75.21582-103.285413 19.03907c-.188672.25741.187633-.25822 0 0z" fill="url(#t)"/><path d="m249.98439 18.00074 75.55273 71.28027 35.93949-41.0737c-15.12655-8.88357-31.83801-16.76434-50.33921-22.07342-18.50119-5.30907-30.87363-7.36604-61.15301-8.13315zm0 0-75.55079 71.28027 75.55079 8.06934zm-178.836203 90.31934 103.285413-19.03907-35.6094-41.0737c-13.31043 7.27793-25.7318 16.36604-37.14226 26.39429-11.410469 10.02825-22.062195 21.5391-30.533753 33.71848zm31.912053 87.9834-67.277348-20.70312c-4.50072 11.82001-7.517399 23.89777-9.479674 36.46845s-2.900093 25.71146-2.94244 37.92707zm.00031 107.39307-67.277607 20.64209c3.717916 12.30533 8.550441 23.91472 14.443103 35.10513 5.892649 11.19041 13.127915 22.34707 20.892142 32.12972zm222.47689 107.02294-75.55305-8.07031v79.35009l-75.55078-71.27978-35.6094 40.81055c16.40114 10.07914 34.47832 17.74666 53.32427 22.82641 18.84596 5.07973 38.47989 7.57316 57.83591 7.64282zm0 0 35.60739 40.81055c13.31173-7.27644 25.90227-16.01001 37.313-26.03899 11.41073-10.02899 21.92292-21.73767 30.39408-33.91756zm151.10161-160.72361-79.72851 53.70067 67.27539 20.64209c4.50401-11.82656 7.56658-24.01474 9.54368-36.5898s2.8687-25.54187 2.90944-37.75296zm-47.30627-141.6758-32.42229 87.9834 67.67188-20.70312c-5.17925-12.86146-9.65663-24.94096-15.30849-36.14545s-12.48168-21.53106-19.9411-31.13483zm-179.34839 294.3291-99.69727-67.14649 24.14649 75.2168zm0-305.29883 99.69921 67.14648-24.14648-75.21582z" fill="#fa3838"/><path d="m103.06055 303.69655 47.22657 31.80614-27.41918-85.50681zm19.80739-53.70067 27.44922-85.49905-47.25692 31.80665z" fill="#910808" opacity=".5"/><path d="m396.91049 196.30348-47.22689-31.80665 27.47926 85.49905zm-19.74763 53.6924-27.44891 85.50681 47.19659-31.80614z" fill="#f99" opacity=".5"/></g><path d="m188.72656 350.53224c-19.51713-15.1448-35.96509-36.80411-43.61523-60.64064-8.11015-25.26984-8.10965-54.51223 0-79.78223 7.64861-23.83336 23.95502-45.60524 43.60677-60.63396 17.39289-13.30126 39.54395-22.68204 61.26836-22.70588 21.55333-.0237 43.41569 8.99589 60.83307 22.39361l86.09096 47.14034-146.9261-98.95313-99.66723 67.14648-27.44922 85.49905 27.41918 85.50681 99.69727 67.14649z" fill="#f99" filter="url(#q)" opacity=".5"/><path d="m103.06055 303.69655 146.92384 98.95263 99.72956-67.14649 27.44891-85.50681-27.47926-85.49905-99.69921-67.14648 60.83514 51.81279c19.87561 15.28864 36.33708 36.95446 44.07011 60.94623 8.14157 25.25928 8.07024 54.49938-.00097 79.78223-7.54895 23.64687-23.61016 45.31057-43.05974 60.26653-17.53486 13.48362-39.89724 23.04753-61.84231 23.07234-21.72096.0246-43.83878-9.17975-61.26006-22.69823-28.55534-15.6119-57.11067-31.22379-85.66601-46.83569z" fill="#910808" fill-rule="evenodd" filter="url(#r)" opacity=".5"/><path d="m476.42305 238.9927-58.82735-39.6177 49.72774-15.25651 8.5789-2.63216-5.28125-17.20703-9.40008 2.884-49.57453 15.20975 26.17774-71.07617-6.83203-11.964849-88.2461-16.068359 26.60344-30.494111 4.8868-5.597686-13.5625-11.833984-7.25708 8.321386-28.49292 32.655176-61.28342-57.818718-13.64041-7.04261-13.57549 6.963389-61.34639 57.897939-28.44888-32.608032-7.30112-8.36853-13.56445 11.833984 4.8898 5.595781 26.60239 30.496016-88.246094 16.068359-6.833985 11.964849 26.177735 71.07617-50.371094-15.45508-8.603516-2.63867-5.279297 17.20703 8.603516 2.64062 49.701172 15.24805-58.802343 39.598-16.3694712 11.027 16.5206602 11.12596 58.651154 39.49904-49.727697 15.25664-8.576991 2.63203 5.279297 17.20703 8.958006-2.74793 50.016604-15.34582-23.933971 64.98404 1.172251 12.07455 13.633078 7.85273 78.029036 14.19806-26.42547 30.28715-5.06477 5.80464 13.5625 11.83399 7.43043-8.51587 28.32152-32.45874 61.33318 57.86556 13.5887 6.99381 13.57572-6.9634 61.34615-57.89597 28.3146 32.45184 7.43736 8.52277 13.5625-11.83399-4.88729-5.59737-26.60295-30.49442 77.80357-14.16692 20.97494-3.81924-5.8967-16.01037-23.98142-65.11285 50.3711 15.45508 8.60351 2.63867 5.2793-17.20703-8.60352-2.64062-49.70117-15.24805 58.77592-39.58307 16.39589-11.04193zm-217.42305-200.127466 46.15234 43.542969-46.15234 4.929688zm-18 .002v48.470704l-46.15039-4.929688zm-60.2207 60.140625 43.71484 4.669921-57.6875 38.85157zm138.44336 0 13.97265 43.521491-57.68945-38.85157zm-157.9336 1.816411-18.60351 57.94922-35.12696 23.6582-24.791012-67.30859zm177.42188 0 78.52148 14.29883-24.78906 67.31054-35.12891-23.66015zm-88.71094 7.37886 92.08398 62.01562 25.61133 79.78125-25.61328 79.7832-92.08203 62.01563-92.08203-62.01563-25.61328-79.7832 25.61328-79.78125zm116.20312 78.25976 19.83594 13.35938-8.30664 22.55273zm-232.40625.002-11.52734 35.90821-8.30664-22.55078zm-35.20312 23.70894 14.66797 39.82422-14.669923 39.82812-59.134766-39.82617zm302.81445 0 59.13477 39.82617-59.13477 39.82617-14.66797-39.82617zm-279.13867 67.45312 11.52734 35.91016-19.83398-13.35742zm255.46094 0 8.30664 22.55274-19.83399 13.35742zm-270.17188 39.93946 35.12696 23.6582 18.60351 57.95117-78.521482-14.29883zm284.88282 0 24.79101 67.31054-78.52148 14.29883 18.60351-57.95117zm-225.63477 39.90429 57.68945 38.85157-43.71679 4.66992zm166.38672 0-13.97266 43.52149-43.71679-4.66992zm-92.19336 55.18946v48.47461l-46.15234-43.54493zm18 0 46.15234 4.92968-46.15234 43.54493z" fill="#910808"/></g></g><g fill="url(#i)" transform="matrix(.99347508 -.17046302 .11404942 .98699888 3.418662 11.127417)"><path d="m64.626953 88.507812c-3.203763 0-5.820312 2.625627-5.820312 5.820313s2.616549 5.818355 5.820312 5.818355 5.818359-2.623669 5.818359-5.818355-2.614596-5.820313-5.818359-5.820313zm0 2.117188c2.055498 0 3.701172 1.655838 3.701172 3.703125s-1.645674 3.701172-3.701172 3.701172-3.703125-1.653885-3.703125-3.701172 1.647627-3.703125 3.703125-3.703125z" fill="#84542e" fill-rule="evenodd" filter="url(#w)"/><path d="m64.626276 89.566349c-2.629633 0-4.760806 2.139816-4.760806 4.760805s2.131173 4.760805 4.760806 4.760805 4.760806-2.139816 4.760806-4.760805-2.131173-4.760805-4.760806-4.760805z" fill="url(#g)" fill-rule="evenodd" stroke-width="2.11667"/><g fill="url(#p)" stroke-width=".989251" transform="matrix(.01945932 0 0 .01904322 59.761446 89.566349)"><g fill-rule="evenodd"><path d="m250 0c-135.13489-.00001831-244.6542969 112.36629-244.6542969 250s109.5194069 250.00002 244.6542969 250c135.13489.00002 244.6543-112.36629 244.6543-250s-109.51941-250.00001831-244.6543-250z" fill="#910808"/><path d="m476.65421 250a226.65418 232 0 0 1 -226.65421 232 226.65418 232 0 0 1 -226.65421-232 226.65418 232 0 0 1 226.65421-232 226.65418 232 0 0 1 226.65421 232z" fill="url(#s)"/><path d="m377.16286 249.99588-27.47926-85.49905-99.69921-67.14648-99.66723 67.14648-27.44922 85.49905 27.41918 85.50681 99.69727 67.14649 99.72956-67.14649z" fill="url(#t)"/><path d="m249.98439 18.00074v79.34961l75.55273-8.06934zm0 0c-19.66253.16558-39.17881 3.0901-57.93135 8.13315-18.75256 5.04305-36.74135 11.94249-53.22884 22.07342l35.6094 41.0737zm-214.201498 157.59962 67.277348 20.70312-31.912053-87.9834c-8.05069 9.8996-15.315904 21.17576-21.143431 32.44833-5.827515 11.27257-10.529914 22.97416-14.221864 34.83195zm-12.422114 74.39552c.264726 12.78921 1.108696 25.27396 3.031711 37.75296 1.923016 12.479 4.894041 24.95909 9.390454 36.5898l67.277607-20.64209zm115.463432 201.53416 35.6094-40.81055-103.315422-19.146c8.894269 12.29613 19.486451 23.82268 30.830842 33.91756 11.34438 10.09488 23.72314 19.14431 36.87518 26.03899zm111.16018 30.46923v-79.35009l-75.55078 8.07031zm111.16044-30.46923-35.60739-40.81055-75.55305 71.27978c19.66549-.16802 39.24523-2.5992 57.99855-7.64282 18.75334-5.04361 36.68034-12.69915 53.16189-22.82641zm-35.60739-40.81055 24.17651-75.2168-99.72956 67.14649zm138.64849-86.38085-67.27539-20.64209 31.94137 87.87694c8.05079-9.89981 15.34545-20.85675 21.1729-32.12972s10.46897-23.24718 14.16112-35.10513zm12.45312-74.34276c.0667-12.36906-.9144-25.11101-3.05829-37.92707-2.14389-12.81607-5.45065-25.64081-8.99839-36.46845l-67.67188 20.70312zm-115.16244-201.78857-35.93949 41.0737 103.79566 19.03907c-9.13568-12.24007-19.53534-23.64967-30.93258-33.71848s-23.85527-18.82757-36.92359-26.39429zm-187.04301 41.0737-24.11644 75.21582 99.66723-67.14648z" fill="#a90a0a"/><path d="m23.360778 249.99588 79.699772 53.70067 19.80739-53.70067-19.8077-53.6924zm79.699772 53.70067-31.942362 87.87694c.187633.25756-.188672-.25676 0 0l103.315422 19.146-24.14649-75.2168zm222.47689 107.02294 103.31447-19.146c.18802-.25611-.18699.25691 0 0l-31.94137-87.87694-47.19659 31.80614zm151.10161-160.72361-79.72856-53.6924-19.74763 53.6924 19.74768 53.70067zm-47.30627-141.6758-103.79566-19.03907 24.14648 75.21582 47.22689 31.80665zm-326.27254 87.9834 47.25692-31.80665 24.11644-75.21582-103.285413 19.03907c-.188672.25741.187633-.25822 0 0z" fill="url(#t)"/><path d="m249.98439 18.00074 75.55273 71.28027 35.93949-41.0737c-15.12655-8.88357-31.83801-16.76434-50.33921-22.07342-18.50119-5.30907-30.87363-7.36604-61.15301-8.13315zm0 0-75.55079 71.28027 75.55079 8.06934zm-178.836203 90.31934 103.285413-19.03907-35.6094-41.0737c-13.31043 7.27793-25.7318 16.36604-37.14226 26.39429-11.410469 10.02825-22.062195 21.5391-30.533753 33.71848zm31.912053 87.9834-67.277348-20.70312c-4.50072 11.82001-7.517399 23.89777-9.479674 36.46845s-2.900093 25.71146-2.94244 37.92707zm.00031 107.39307-67.277607 20.64209c3.717916 12.30533 8.550441 23.91472 14.443103 35.10513 5.892649 11.19041 13.127915 22.34707 20.892142 32.12972zm222.47689 107.02294-75.55305-8.07031v79.35009l-75.55078-71.27978-35.6094 40.81055c16.40114 10.07914 34.47832 17.74666 53.32427 22.82641 18.84596 5.07973 38.47989 7.57316 57.83591 7.64282zm0 0 35.60739 40.81055c13.31173-7.27644 25.90227-16.01001 37.313-26.03899 11.41073-10.02899 21.92292-21.73767 30.39408-33.91756zm151.10161-160.72361-79.72851 53.70067 67.27539 20.64209c4.50401-11.82656 7.56658-24.01474 9.54368-36.5898s2.8687-25.54187 2.90944-37.75296zm-47.30627-141.6758-32.42229 87.9834 67.67188-20.70312c-5.17925-12.86146-9.65663-24.94096-15.30849-36.14545s-12.48168-21.53106-19.9411-31.13483zm-179.34839 294.3291-99.69727-67.14649 24.14649 75.2168zm0-305.29883 99.69921 67.14648-24.14648-75.21582z" fill="#fa3838"/><path d="m103.06055 303.69655 47.22657 31.80614-27.41918-85.50681zm19.80739-53.70067 27.44922-85.49905-47.25692 31.80665z" fill="#910808" opacity=".5"/><path d="m396.91049 196.30348-47.22689-31.80665 27.47926 85.49905zm-19.74763 53.6924-27.44891 85.50681 47.19659-31.80614z" fill="#f99" opacity=".5"/></g><path d="m188.72656 350.53224c-19.51713-15.1448-35.96509-36.80411-43.61523-60.64064-8.11015-25.26984-8.10965-54.51223 0-79.78223 7.64861-23.83336 23.95502-45.60524 43.60677-60.63396 17.39289-13.30126 39.54395-22.68204 61.26836-22.70588 21.55333-.0237 43.41569 8.99589 60.83307 22.39361l86.09096 47.14034-146.9261-98.95313-99.66723 67.14648-27.44922 85.49905 27.41918 85.50681 99.69727 67.14649z" fill="#f99" filter="url(#q)" opacity=".5"/><path d="m103.06055 303.69655 146.92384 98.95263 99.72956-67.14649 27.44891-85.50681-27.47926-85.49905-99.69921-67.14648 60.83514 51.81279c19.87561 15.28864 36.33708 36.95446 44.07011 60.94623 8.14157 25.25928 8.07024 54.49938-.00097 79.78223-7.54895 23.64687-23.61016 45.31057-43.05974 60.26653-17.53486 13.48362-39.89724 23.04753-61.84231 23.07234-21.72096.0246-43.83878-9.17975-61.26006-22.69823-28.55534-15.6119-57.11067-31.22379-85.66601-46.83569z" fill="#910808" fill-rule="evenodd" filter="url(#r)" opacity=".5"/><path d="m476.42305 238.9927-58.82735-39.6177 49.72774-15.25651 8.5789-2.63216-5.28125-17.20703-9.40008 2.884-49.57453 15.20975 26.17774-71.07617-6.83203-11.964849-88.2461-16.068359 26.60344-30.494111 4.8868-5.597686-13.5625-11.833984-7.25708 8.321386-28.49292 32.655176-61.28342-57.818718-13.64041-7.04261-13.57549 6.963389-61.34639 57.897939-28.44888-32.608032-7.30112-8.36853-13.56445 11.833984 4.8898 5.595781 26.60239 30.496016-88.246094 16.068359-6.833985 11.964849 26.177735 71.07617-50.371094-15.45508-8.603516-2.63867-5.279297 17.20703 8.603516 2.64062 49.701172 15.24805-58.802343 39.598-16.3694712 11.027 16.5206602 11.12596 58.651154 39.49904-49.727697 15.25664-8.576991 2.63203 5.279297 17.20703 8.958006-2.74793 50.016604-15.34582-23.933971 64.98404 1.172251 12.07455 13.633078 7.85273 78.029036 14.19806-26.42547 30.28715-5.06477 5.80464 13.5625 11.83399 7.43043-8.51587 28.32152-32.45874 61.33318 57.86556 13.5887 6.99381 13.57572-6.9634 61.34615-57.89597 28.3146 32.45184 7.43736 8.52277 13.5625-11.83399-4.88729-5.59737-26.60295-30.49442 77.80357-14.16692 20.97494-3.81924-5.8967-16.01037-23.98142-65.11285 50.3711 15.45508 8.60351 2.63867 5.2793-17.20703-8.60352-2.64062-49.70117-15.24805 58.77592-39.58307 16.39589-11.04193zm-217.42305-200.127466 46.15234 43.542969-46.15234 4.929688zm-18 .002v48.470704l-46.15039-4.929688zm-60.2207 60.140625 43.71484 4.669921-57.6875 38.85157zm138.44336 0 13.97265 43.521491-57.68945-38.85157zm-157.9336 1.816411-18.60351 57.94922-35.12696 23.6582-24.791012-67.30859zm177.42188 0 78.52148 14.29883-24.78906 67.31054-35.12891-23.66015zm-88.71094 7.37886 92.08398 62.01562 25.61133 79.78125-25.61328 79.7832-92.08203 62.01563-92.08203-62.01563-25.61328-79.7832 25.61328-79.78125zm116.20312 78.25976 19.83594 13.35938-8.30664 22.55273zm-232.40625.002-11.52734 35.90821-8.30664-22.55078zm-35.20312 23.70894 14.66797 39.82422-14.669923 39.82812-59.134766-39.82617zm302.81445 0 59.13477 39.82617-59.13477 39.82617-14.66797-39.82617zm-279.13867 67.45312 11.52734 35.91016-19.83398-13.35742zm255.46094 0 8.30664 22.55274-19.83399 13.35742zm-270.17188 39.93946 35.12696 23.6582 18.60351 57.95117-78.521482-14.29883zm284.88282 0 24.79101 67.31054-78.52148 14.29883 18.60351-57.95117zm-225.63477 39.90429 57.68945 38.85157-43.71679 4.66992zm166.38672 0-13.97266 43.52149-43.71679-4.66992zm-92.19336 55.18946v48.47461l-46.15234-43.54493zm18 0 46.15234 4.92968-46.15234 43.54493z" fill="#910808"/></g></g><g fill="url(#o)" transform="matrix(.99347508 .11404942 -.11404942 .99347508 -2.575308 -7.541266)"><path d="m64.626953 88.507812c-3.203763 0-5.820312 2.625627-5.820312 5.820313s2.616549 5.818355 5.820312 5.818355 5.818359-2.623669 5.818359-5.818355-2.614596-5.820313-5.818359-5.820313zm0 2.117188c2.055498 0 3.701172 1.655838 3.701172 3.703125s-1.645674 3.701172-3.701172 3.701172-3.703125-1.653885-3.703125-3.701172 1.647627-3.703125 3.703125-3.703125z" fill="#84542e" fill-rule="evenodd" filter="url(#w)"/><path d="m64.626276 89.566349c-2.629633 0-4.760806 2.139816-4.760806 4.760805s2.131173 4.760805 4.760806 4.760805 4.760806-2.139816 4.760806-4.760805-2.131173-4.760805-4.760806-4.760805z" fill="url(#g)" fill-rule="evenodd" stroke-width="2.11667"/><g fill="url(#p)" stroke-width=".989251" transform="matrix(.01945932 0 0 .01904322 59.761446 89.566349)"><g fill-rule="evenodd"><path d="m250 0c-135.13489-.00001831-244.6542969 112.36629-244.6542969 250s109.5194069 250.00002 244.6542969 250c135.13489.00002 244.6543-112.36629 244.6543-250s-109.51941-250.00001831-244.6543-250z" fill="#910808"/><path d="m476.65421 250a226.65418 232 0 0 1 -226.65421 232 226.65418 232 0 0 1 -226.65421-232 226.65418 232 0 0 1 226.65421-232 226.65418 232 0 0 1 226.65421 232z" fill="url(#s)"/><path d="m377.16286 249.99588-27.47926-85.49905-99.69921-67.14648-99.66723 67.14648-27.44922 85.49905 27.41918 85.50681 99.69727 67.14649 99.72956-67.14649z" fill="url(#t)"/><path d="m249.98439 18.00074v79.34961l75.55273-8.06934zm0 0c-19.66253.16558-39.17881 3.0901-57.93135 8.13315-18.75256 5.04305-36.74135 11.94249-53.22884 22.07342l35.6094 41.0737zm-214.201498 157.59962 67.277348 20.70312-31.912053-87.9834c-8.05069 9.8996-15.315904 21.17576-21.143431 32.44833-5.827515 11.27257-10.529914 22.97416-14.221864 34.83195zm-12.422114 74.39552c.264726 12.78921 1.108696 25.27396 3.031711 37.75296 1.923016 12.479 4.894041 24.95909 9.390454 36.5898l67.277607-20.64209zm115.463432 201.53416 35.6094-40.81055-103.315422-19.146c8.894269 12.29613 19.486451 23.82268 30.830842 33.91756 11.34438 10.09488 23.72314 19.14431 36.87518 26.03899zm111.16018 30.46923v-79.35009l-75.55078 8.07031zm111.16044-30.46923-35.60739-40.81055-75.55305 71.27978c19.66549-.16802 39.24523-2.5992 57.99855-7.64282 18.75334-5.04361 36.68034-12.69915 53.16189-22.82641zm-35.60739-40.81055 24.17651-75.2168-99.72956 67.14649zm138.64849-86.38085-67.27539-20.64209 31.94137 87.87694c8.05079-9.89981 15.34545-20.85675 21.1729-32.12972s10.46897-23.24718 14.16112-35.10513zm12.45312-74.34276c.0667-12.36906-.9144-25.11101-3.05829-37.92707-2.14389-12.81607-5.45065-25.64081-8.99839-36.46845l-67.67188 20.70312zm-115.16244-201.78857-35.93949 41.0737 103.79566 19.03907c-9.13568-12.24007-19.53534-23.64967-30.93258-33.71848s-23.85527-18.82757-36.92359-26.39429zm-187.04301 41.0737-24.11644 75.21582 99.66723-67.14648z" fill="#a90a0a"/><path d="m23.360778 249.99588 79.699772 53.70067 19.80739-53.70067-19.8077-53.6924zm79.699772 53.70067-31.942362 87.87694c.187633.25756-.188672-.25676 0 0l103.315422 19.146-24.14649-75.2168zm222.47689 107.02294 103.31447-19.146c.18802-.25611-.18699.25691 0 0l-31.94137-87.87694-47.19659 31.80614zm151.10161-160.72361-79.72856-53.6924-19.74763 53.6924 19.74768 53.70067zm-47.30627-141.6758-103.79566-19.03907 24.14648 75.21582 47.22689 31.80665zm-326.27254 87.9834 47.25692-31.80665 24.11644-75.21582-103.285413 19.03907c-.188672.25741.187633-.25822 0 0z" fill="url(#t)"/><path d="m249.98439 18.00074 75.55273 71.28027 35.93949-41.0737c-15.12655-8.88357-31.83801-16.76434-50.33921-22.07342-18.50119-5.30907-30.87363-7.36604-61.15301-8.13315zm0 0-75.55079 71.28027 75.55079 8.06934zm-178.836203 90.31934 103.285413-19.03907-35.6094-41.0737c-13.31043 7.27793-25.7318 16.36604-37.14226 26.39429-11.410469 10.02825-22.062195 21.5391-30.533753 33.71848zm31.912053 87.9834-67.277348-20.70312c-4.50072 11.82001-7.517399 23.89777-9.479674 36.46845s-2.900093 25.71146-2.94244 37.92707zm.00031 107.39307-67.277607 20.64209c3.717916 12.30533 8.550441 23.91472 14.443103 35.10513 5.892649 11.19041 13.127915 22.34707 20.892142 32.12972zm222.47689 107.02294-75.55305-8.07031v79.35009l-75.55078-71.27978-35.6094 40.81055c16.40114 10.07914 34.47832 17.74666 53.32427 22.82641 18.84596 5.07973 38.47989 7.57316 57.83591 7.64282zm0 0 35.60739 40.81055c13.31173-7.27644 25.90227-16.01001 37.313-26.03899 11.41073-10.02899 21.92292-21.73767 30.39408-33.91756zm151.10161-160.72361-79.72851 53.70067 67.27539 20.64209c4.50401-11.82656 7.56658-24.01474 9.54368-36.5898s2.8687-25.54187 2.90944-37.75296zm-47.30627-141.6758-32.42229 87.9834 67.67188-20.70312c-5.17925-12.86146-9.65663-24.94096-15.30849-36.14545s-12.48168-21.53106-19.9411-31.13483zm-179.34839 294.3291-99.69727-67.14649 24.14649 75.2168zm0-305.29883 99.69921 67.14648-24.14648-75.21582z" fill="#fa3838"/><path d="m103.06055 303.69655 47.22657 31.80614-27.41918-85.50681zm19.80739-53.70067 27.44922-85.49905-47.25692 31.80665z" fill="#910808" opacity=".5"/><path d="m396.91049 196.30348-47.22689-31.80665 27.47926 85.49905zm-19.74763 53.6924-27.44891 85.50681 47.19659-31.80614z" fill="#f99" opacity=".5"/></g><path d="m188.72656 350.53224c-19.51713-15.1448-35.96509-36.80411-43.61523-60.64064-8.11015-25.26984-8.10965-54.51223 0-79.78223 7.64861-23.83336 23.95502-45.60524 43.60677-60.63396 17.39289-13.30126 39.54395-22.68204 61.26836-22.70588 21.55333-.0237 43.41569 8.99589 60.83307 22.39361l86.09096 47.14034-146.9261-98.95313-99.66723 67.14648-27.44922 85.49905 27.41918 85.50681 99.69727 67.14649z" fill="#f99" filter="url(#q)" opacity=".5"/><path d="m103.06055 303.69655 146.92384 98.95263 99.72956-67.14649 27.44891-85.50681-27.47926-85.49905-99.69921-67.14648 60.83514 51.81279c19.87561 15.28864 36.33708 36.95446 44.07011 60.94623 8.14157 25.25928 8.07024 54.49938-.00097 79.78223-7.54895 23.64687-23.61016 45.31057-43.05974 60.26653-17.53486 13.48362-39.89724 23.04753-61.84231 23.07234-21.72096.0246-43.83878-9.17975-61.26006-22.69823-28.55534-15.6119-57.11067-31.22379-85.66601-46.83569z" fill="#910808" fill-rule="evenodd" filter="url(#r)" opacity=".5"/><path d="m476.42305 238.9927-58.82735-39.6177 49.72774-15.25651 8.5789-2.63216-5.28125-17.20703-9.40008 2.884-49.57453 15.20975 26.17774-71.07617-6.83203-11.964849-88.2461-16.068359 26.60344-30.494111 4.8868-5.597686-13.5625-11.833984-7.25708 8.321386-28.49292 32.655176-61.28342-57.818718-13.64041-7.04261-13.57549 6.963389-61.34639 57.897939-28.44888-32.608032-7.30112-8.36853-13.56445 11.833984 4.8898 5.595781 26.60239 30.496016-88.246094 16.068359-6.833985 11.964849 26.177735 71.07617-50.371094-15.45508-8.603516-2.63867-5.279297 17.20703 8.603516 2.64062 49.701172 15.24805-58.802343 39.598-16.3694712 11.027 16.5206602 11.12596 58.651154 39.49904-49.727697 15.25664-8.576991 2.63203 5.279297 17.20703 8.958006-2.74793 50.016604-15.34582-23.933971 64.98404 1.172251 12.07455 13.633078 7.85273 78.029036 14.19806-26.42547 30.28715-5.06477 5.80464 13.5625 11.83399 7.43043-8.51587 28.32152-32.45874 61.33318 57.86556 13.5887 6.99381 13.57572-6.9634 61.34615-57.89597 28.3146 32.45184 7.43736 8.52277 13.5625-11.83399-4.88729-5.59737-26.60295-30.49442 77.80357-14.16692 20.97494-3.81924-5.8967-16.01037-23.98142-65.11285 50.3711 15.45508 8.60351 2.63867 5.2793-17.20703-8.60352-2.64062-49.70117-15.24805 58.77592-39.58307 16.39589-11.04193zm-217.42305-200.127466 46.15234 43.542969-46.15234 4.929688zm-18 .002v48.470704l-46.15039-4.929688zm-60.2207 60.140625 43.71484 4.669921-57.6875 38.85157zm138.44336 0 13.97265 43.521491-57.68945-38.85157zm-157.9336 1.816411-18.60351 57.94922-35.12696 23.6582-24.791012-67.30859zm177.42188 0 78.52148 14.29883-24.78906 67.31054-35.12891-23.66015zm-88.71094 7.37886 92.08398 62.01562 25.61133 79.78125-25.61328 79.7832-92.08203 62.01563-92.08203-62.01563-25.61328-79.7832 25.61328-79.78125zm116.20312 78.25976 19.83594 13.35938-8.30664 22.55273zm-232.40625.002-11.52734 35.90821-8.30664-22.55078zm-35.20312 23.70894 14.66797 39.82422-14.669923 39.82812-59.134766-39.82617zm302.81445 0 59.13477 39.82617-59.13477 39.82617-14.66797-39.82617zm-279.13867 67.45312 11.52734 35.91016-19.83398-13.35742zm255.46094 0 8.30664 22.55274-19.83399 13.35742zm-270.17188 39.93946 35.12696 23.6582 18.60351 57.95117-78.521482-14.29883zm284.88282 0 24.79101 67.31054-78.52148 14.29883 18.60351-57.95117zm-225.63477 39.90429 57.68945 38.85157-43.71679 4.66992zm166.38672 0-13.97266 43.52149-43.71679-4.66992zm-92.19336 55.18946v48.47461l-46.15234-43.54493zm18 0 46.15234 4.92968-46.15234 43.54493z" fill="#910808"/></g></g><g fill="url(#n)" stroke-width="1.1175" transform="matrix(.68658899 -.75240866 .4120959 .71469581 33.6201 62.615012)"><path d="m64.626953 88.507812c-3.203763 0-5.820312 2.625627-5.820312 5.820313s2.616549 5.818355 5.820312 5.818355 5.818359-2.623669 5.818359-5.818355-2.614596-5.820313-5.818359-5.820313zm0 2.117188c2.055498 0 3.701172 1.655838 3.701172 3.703125s-1.645674 3.701172-3.701172 3.701172-3.703125-1.653885-3.703125-3.701172 1.647627-3.703125 3.703125-3.703125z" fill="#84542e" fill-rule="evenodd" filter="url(#y)" stroke-width="1.1175"/><path d="m64.626276 89.566349c-2.629633 0-4.760806 2.139816-4.760806 4.760805s2.131173 4.760805 4.760806 4.760805 4.760806-2.139816 4.760806-4.760805-2.131173-4.760805-4.760806-4.760805z" fill="url(#g)" fill-rule="evenodd" stroke-width="2.36538"/><g fill="url(#p)" stroke-width="1.10549" transform="matrix(.01945932 0 0 .01904322 59.761446 89.566349)"><g fill-rule="evenodd"><path d="m250 0c-135.13489-.00001831-244.6542969 112.36629-244.6542969 250s109.5194069 250.00002 244.6542969 250c135.13489.00002 244.6543-112.36629 244.6543-250s-109.51941-250.00001831-244.6543-250z" fill="#4d7723"/><path d="m476.65421 250a226.65418 232 0 0 1 -226.65421 232 226.65418 232 0 0 1 -226.65421-232 226.65418 232 0 0 1 226.65421-232 226.65418 232 0 0 1 226.65421 232z" fill="url(#u)"/><path d="m377.16286 249.99588-27.47926-85.49905-99.69921-67.14648-99.66723 67.14648-27.44922 85.49905 27.41918 85.50681 99.69727 67.14649 99.72956-67.14649z" fill="url(#v)"/><path d="m249.98439 18.00074v79.34961l75.55273-8.06934zm0 0c-19.66253.16558-39.17881 3.0901-57.93135 8.13315-18.75256 5.04305-36.74135 11.94249-53.22884 22.07342l35.6094 41.0737zm-214.201498 157.59962 67.277348 20.70312-31.912053-87.9834c-8.05069 9.8996-15.315904 21.17576-21.143431 32.44833-5.827515 11.27257-10.529914 22.97416-14.221864 34.83195zm-12.422114 74.39552c.264726 12.78921 1.108696 25.27396 3.031711 37.75296 1.923016 12.479 4.894041 24.95909 9.390454 36.5898l67.277607-20.64209zm115.463432 201.53416 35.6094-40.81055-103.315422-19.146c8.894269 12.29613 19.486451 23.82268 30.830842 33.91756 11.34438 10.09488 23.72314 19.14431 36.87518 26.03899zm111.16018 30.46923v-79.35009l-75.55078 8.07031zm111.16044-30.46923-35.60739-40.81055-75.55305 71.27978c19.66549-.16802 39.24523-2.5992 57.99855-7.64282 18.75334-5.04361 36.68034-12.69915 53.16189-22.82641zm-35.60739-40.81055 24.17651-75.2168-99.72956 67.14649zm138.64849-86.38085-67.27539-20.64209 31.94137 87.87694c8.05079-9.89981 15.34545-20.85675 21.1729-32.12972s10.46897-23.24718 14.16112-35.10513zm12.45312-74.34276c.0667-12.36906-.9144-25.11101-3.05829-37.92707-2.14389-12.81607-5.45065-25.64081-8.99839-36.46845l-67.67188 20.70312zm-115.16244-201.78857-35.93949 41.0737 103.79566 19.03907c-9.13568-12.24007-19.53534-23.64967-30.93258-33.71848s-23.85527-18.82757-36.92359-26.39429zm-187.04301 41.0737-24.11644 75.21582 99.66723-67.14648z" fill="#5b8e24"/><path d="m23.360778 249.99588 79.699772 53.70067 19.80739-53.70067-19.8077-53.6924zm79.699772 53.70067-31.942362 87.87694c.187633.25756-.188672-.25676 0 0l103.315422 19.146-24.14649-75.2168zm222.47689 107.02294 103.31447-19.146c.18802-.25611-.18699.25691 0 0l-31.94137-87.87694-47.19659 31.80614zm151.10161-160.72361-79.72856-53.6924-19.74763 53.6924 19.74768 53.70067zm-47.30627-141.6758-103.79566-19.03907 24.14648 75.21582 47.22689 31.80665zm-326.27254 87.9834 47.25692-31.80665 24.11644-75.21582-103.285413 19.03907c-.188672.25741.187633-.25822 0 0z" fill="url(#u)"/><path d="m249.98439 18.00074 75.55273 71.28027 35.93949-41.0737c-15.12655-8.88357-31.83801-16.76434-50.33921-22.07342-18.50119-5.30907-30.87363-7.36604-61.15301-8.13315zm0 0-75.55079 71.28027 75.55079 8.06934zm-178.836203 90.31934 103.285413-19.03907-35.6094-41.0737c-13.31043 7.27793-25.7318 16.36604-37.14226 26.39429-11.410469 10.02825-22.062195 21.5391-30.533753 33.71848zm31.912053 87.9834-67.277348-20.70312c-4.50072 11.82001-7.517399 23.89777-9.479674 36.46845s-2.900093 25.71146-2.94244 37.92707zm.00031 107.39307-67.277607 20.64209c3.717916 12.30533 8.550441 23.91472 14.443103 35.10513 5.892649 11.19041 13.127915 22.34707 20.892142 32.12972zm222.47689 107.02294-75.55305-8.07031v79.35009l-75.55078-71.27978-35.6094 40.81055c16.40114 10.07914 34.47832 17.74666 53.32427 22.82641 18.84596 5.07973 38.47989 7.57316 57.83591 7.64282zm0 0 35.60739 40.81055c13.31173-7.27644 25.90227-16.01001 37.313-26.03899 11.41073-10.02899 21.92292-21.73767 30.39408-33.91756zm151.10161-160.72361-79.72851 53.70067 67.27539 20.64209c4.50401-11.82656 7.56658-24.01474 9.54368-36.5898s2.8687-25.54187 2.90944-37.75296zm-47.30627-141.6758-32.42229 87.9834 67.67188-20.70312c-5.17925-12.86146-9.65663-24.94096-15.30849-36.14545s-12.48168-21.53106-19.9411-31.13483zm-179.34839 294.3291-99.69727-67.14649 24.14649 75.2168zm0-305.29883 99.69921 67.14648-24.14648-75.21582z" fill="#77cb4d"/><path d="m103.06055 303.69655 47.22657 31.80614-27.41918-85.50681zm19.80739-53.70067 27.44922-85.49905-47.25692 31.80665z" fill="#5b8e24"/><path d="m396.91049 196.30348-47.22689-31.80665 27.47926 85.49905zm-19.74763 53.6924-27.44891 85.50681 47.19659-31.80614z" fill="#77cb4d"/></g><path d="m188.72656 350.53224c-19.51713-15.1448-35.96509-36.80411-43.61523-60.64064-8.11015-25.26984-8.10965-54.51223 0-79.78223 7.64861-23.83336 23.95502-45.60524 43.60677-60.63396 17.39289-13.30126 39.54395-22.68204 61.26836-22.70588 21.55333-.0237 43.41569 8.99589 60.83307 22.39361l86.09096 47.14034-146.9261-98.95313-99.66723 67.14648-27.44922 85.49905 27.41918 85.50681 99.69727 67.14649z" fill="#77cb4d" filter="url(#q)"/><path d="m103.06055 303.69655 146.92384 98.95263 99.72956-67.14649 27.44891-85.50681-27.47926-85.49905-99.69921-67.14648 60.83514 51.81279c19.87561 15.28864 36.33708 36.95446 44.07011 60.94623 8.14157 25.25928 8.07024 54.49938-.00097 79.78223-7.54895 23.64687-23.61016 45.31057-43.05974 60.26653-17.53486 13.48362-39.89724 23.04753-61.84231 23.07234-21.72096.0246-43.83878-9.17975-61.26006-22.69823-28.55534-15.6119-57.11067-31.22379-85.66601-46.83569z" fill="#5b8e24" fill-rule="evenodd" filter="url(#r)"/><path d="m476.42305 238.9927-58.82735-39.6177 49.72774-15.25651 8.5789-2.63216-5.28125-17.20703-9.40008 2.884-49.57453 15.20975 26.17774-71.07617-6.83203-11.964849-88.2461-16.068359 26.60344-30.494111 4.8868-5.597686-13.5625-11.833984-7.25708 8.321386-28.49292 32.655176-61.28342-57.818718-13.64041-7.04261-13.57549 6.963389-61.34639 57.897939-28.44888-32.608032-7.30112-8.36853-13.56445 11.833984 4.8898 5.595781 26.60239 30.496016-88.246094 16.068359-6.833985 11.964849 26.177735 71.07617-50.371094-15.45508-8.603516-2.63867-5.279297 17.20703 8.603516 2.64062 49.701172 15.24805-58.802343 39.598-16.3694712 11.027 16.5206602 11.12596 58.651154 39.49904-49.727697 15.25664-8.576991 2.63203 5.279297 17.20703 8.958006-2.74793 50.016604-15.34582-23.933971 64.98404 1.172251 12.07455 13.633078 7.85273 78.029036 14.19806-26.42547 30.28715-5.06477 5.80464 13.5625 11.83399 7.43043-8.51587 28.32152-32.45874 61.33318 57.86556 13.5887 6.99381 13.57572-6.9634 61.34615-57.89597 28.3146 32.45184 7.43736 8.52277 13.5625-11.83399-4.88729-5.59737-26.60295-30.49442 77.80357-14.16692 20.97494-3.81924-5.8967-16.01037-23.98142-65.11285 50.3711 15.45508 8.60351 2.63867 5.2793-17.20703-8.60352-2.64062-49.70117-15.24805 58.77592-39.58307 16.39589-11.04193zm-217.42305-200.127466 46.15234 43.542969-46.15234 4.929688zm-18 .002v48.470704l-46.15039-4.929688zm-60.2207 60.140625 43.71484 4.669921-57.6875 38.85157zm138.44336 0 13.97265 43.521491-57.68945-38.85157zm-157.9336 1.816411-18.60351 57.94922-35.12696 23.6582-24.791012-67.30859zm177.42188 0 78.52148 14.29883-24.78906 67.31054-35.12891-23.66015zm-88.71094 7.37886 92.08398 62.01562 25.61133 79.78125-25.61328 79.7832-92.08203 62.01563-92.08203-62.01563-25.61328-79.7832 25.61328-79.78125zm116.20312 78.25976 19.83594 13.35938-8.30664 22.55273zm-232.40625.002-11.52734 35.90821-8.30664-22.55078zm-35.20312 23.70894 14.66797 39.82422-14.669923 39.82812-59.134766-39.82617zm302.81445 0 59.13477 39.82617-59.13477 39.82617-14.66797-39.82617zm-279.13867 67.45312 11.52734 35.91016-19.83398-13.35742zm255.46094 0 8.30664 22.55274-19.83399 13.35742zm-270.17188 39.93946 35.12696 23.6582 18.60351 57.95117-78.521482-14.29883zm284.88282 0 24.79101 67.31054-78.52148 14.29883 18.60351-57.95117zm-225.63477 39.90429 57.68945 38.85157-43.71679 4.66992zm166.38672 0-13.97266 43.52149-43.71679-4.66992zm-92.19336 55.18946v48.47461l-46.15234-43.54493zm18 0 46.15234 4.92968-46.15234 43.54493z" fill="#4d7723"/></g></g><g fill="url(#m)" stroke-width="1.13651" transform="matrix(.66381581 .75240866 -.39842726 .71469581 7.038999 -34.759509)"><path d="m64.626953 88.507812c-3.203763 0-5.820312 2.625627-5.820312 5.820313s2.616549 5.818355 5.820312 5.818355 5.818359-2.623669 5.818359-5.818355-2.614596-5.820313-5.818359-5.820313zm0 2.117188c2.055498 0 3.701172 1.655838 3.701172 3.703125s-1.645674 3.701172-3.701172 3.701172-3.703125-1.653885-3.703125-3.701172 1.647627-3.703125 3.703125-3.703125z" fill="#84542e" fill-rule="evenodd" filter="url(#x)" stroke-width="1.13651"/><path d="m64.626276 89.566349c-2.629633 0-4.760806 2.139816-4.760806 4.760805s2.131173 4.760805 4.760806 4.760805 4.760806-2.139816 4.760806-4.760805-2.131173-4.760805-4.760806-4.760805z" fill="url(#g)" fill-rule="evenodd" stroke-width="2.40561"/><g fill="url(#p)" stroke-width="1.12429" transform="matrix(.01945932 0 0 .01904322 59.761446 89.566349)"><g fill-rule="evenodd"><path d="m250 0c-135.13489-.00001831-244.6542969 112.36629-244.6542969 250s109.5194069 250.00002 244.6542969 250c135.13489.00002 244.6543-112.36629 244.6543-250s-109.51941-250.00001831-244.6543-250z" fill="#4d7723"/><path d="m476.65421 250a226.65418 232 0 0 1 -226.65421 232 226.65418 232 0 0 1 -226.65421-232 226.65418 232 0 0 1 226.65421-232 226.65418 232 0 0 1 226.65421 232z" fill="url(#u)"/><path d="m377.16286 249.99588-27.47926-85.49905-99.69921-67.14648-99.66723 67.14648-27.44922 85.49905 27.41918 85.50681 99.69727 67.14649 99.72956-67.14649z" fill="url(#v)"/><path d="m249.98439 18.00074v79.34961l75.55273-8.06934zm0 0c-19.66253.16558-39.17881 3.0901-57.93135 8.13315-18.75256 5.04305-36.74135 11.94249-53.22884 22.07342l35.6094 41.0737zm-214.201498 157.59962 67.277348 20.70312-31.912053-87.9834c-8.05069 9.8996-15.315904 21.17576-21.143431 32.44833-5.827515 11.27257-10.529914 22.97416-14.221864 34.83195zm-12.422114 74.39552c.264726 12.78921 1.108696 25.27396 3.031711 37.75296 1.923016 12.479 4.894041 24.95909 9.390454 36.5898l67.277607-20.64209zm115.463432 201.53416 35.6094-40.81055-103.315422-19.146c8.894269 12.29613 19.486451 23.82268 30.830842 33.91756 11.34438 10.09488 23.72314 19.14431 36.87518 26.03899zm111.16018 30.46923v-79.35009l-75.55078 8.07031zm111.16044-30.46923-35.60739-40.81055-75.55305 71.27978c19.66549-.16802 39.24523-2.5992 57.99855-7.64282 18.75334-5.04361 36.68034-12.69915 53.16189-22.82641zm-35.60739-40.81055 24.17651-75.2168-99.72956 67.14649zm138.64849-86.38085-67.27539-20.64209 31.94137 87.87694c8.05079-9.89981 15.34545-20.85675 21.1729-32.12972s10.46897-23.24718 14.16112-35.10513zm12.45312-74.34276c.0667-12.36906-.9144-25.11101-3.05829-37.92707-2.14389-12.81607-5.45065-25.64081-8.99839-36.46845l-67.67188 20.70312zm-115.16244-201.78857-35.93949 41.0737 103.79566 19.03907c-9.13568-12.24007-19.53534-23.64967-30.93258-33.71848s-23.85527-18.82757-36.92359-26.39429zm-187.04301 41.0737-24.11644 75.21582 99.66723-67.14648z" fill="#5b8e24"/><path d="m23.360778 249.99588 79.699772 53.70067 19.80739-53.70067-19.8077-53.6924zm79.699772 53.70067-31.942362 87.87694c.187633.25756-.188672-.25676 0 0l103.315422 19.146-24.14649-75.2168zm222.47689 107.02294 103.31447-19.146c.18802-.25611-.18699.25691 0 0l-31.94137-87.87694-47.19659 31.80614zm151.10161-160.72361-79.72856-53.6924-19.74763 53.6924 19.74768 53.70067zm-47.30627-141.6758-103.79566-19.03907 24.14648 75.21582 47.22689 31.80665zm-326.27254 87.9834 47.25692-31.80665 24.11644-75.21582-103.285413 19.03907c-.188672.25741.187633-.25822 0 0z" fill="url(#u)"/><path d="m249.98439 18.00074 75.55273 71.28027 35.93949-41.0737c-15.12655-8.88357-31.83801-16.76434-50.33921-22.07342-18.50119-5.30907-30.87363-7.36604-61.15301-8.13315zm0 0-75.55079 71.28027 75.55079 8.06934zm-178.836203 90.31934 103.285413-19.03907-35.6094-41.0737c-13.31043 7.27793-25.7318 16.36604-37.14226 26.39429-11.410469 10.02825-22.062195 21.5391-30.533753 33.71848zm31.912053 87.9834-67.277348-20.70312c-4.50072 11.82001-7.517399 23.89777-9.479674 36.46845s-2.900093 25.71146-2.94244 37.92707zm.00031 107.39307-67.277607 20.64209c3.717916 12.30533 8.550441 23.91472 14.443103 35.10513 5.892649 11.19041 13.127915 22.34707 20.892142 32.12972zm222.47689 107.02294-75.55305-8.07031v79.35009l-75.55078-71.27978-35.6094 40.81055c16.40114 10.07914 34.47832 17.74666 53.32427 22.82641 18.84596 5.07973 38.47989 7.57316 57.83591 7.64282zm0 0 35.60739 40.81055c13.31173-7.27644 25.90227-16.01001 37.313-26.03899 11.41073-10.02899 21.92292-21.73767 30.39408-33.91756zm151.10161-160.72361-79.72851 53.70067 67.27539 20.64209c4.50401-11.82656 7.56658-24.01474 9.54368-36.5898s2.8687-25.54187 2.90944-37.75296zm-47.30627-141.6758-32.42229 87.9834 67.67188-20.70312c-5.17925-12.86146-9.65663-24.94096-15.30849-36.14545s-12.48168-21.53106-19.9411-31.13483zm-179.34839 294.3291-99.69727-67.14649 24.14649 75.2168zm0-305.29883 99.69921 67.14648-24.14648-75.21582z" fill="#77cb4d"/><path d="m103.06055 303.69655 47.22657 31.80614-27.41918-85.50681zm19.80739-53.70067 27.44922-85.49905-47.25692 31.80665z" fill="#5b8e24"/><path d="m396.91049 196.30348-47.22689-31.80665 27.47926 85.49905zm-19.74763 53.6924-27.44891 85.50681 47.19659-31.80614z" fill="#77cb4d"/></g><path d="m188.72656 350.53224c-19.51713-15.1448-35.96509-36.80411-43.61523-60.64064-8.11015-25.26984-8.10965-54.51223 0-79.78223 7.64861-23.83336 23.95502-45.60524 43.60677-60.63396 17.39289-13.30126 39.54395-22.68204 61.26836-22.70588 21.55333-.0237 43.41569 8.99589 60.83307 22.39361l86.09096 47.14034-146.9261-98.95313-99.66723 67.14648-27.44922 85.49905 27.41918 85.50681 99.69727 67.14649z" fill="#77cb4d" filter="url(#q)"/><path d="m103.06055 303.69655 146.92384 98.95263 99.72956-67.14649 27.44891-85.50681-27.47926-85.49905-99.69921-67.14648 60.83514 51.81279c19.87561 15.28864 36.33708 36.95446 44.07011 60.94623 8.14157 25.25928 8.07024 54.49938-.00097 79.78223-7.54895 23.64687-23.61016 45.31057-43.05974 60.26653-17.53486 13.48362-39.89724 23.04753-61.84231 23.07234-21.72096.0246-43.83878-9.17975-61.26006-22.69823-28.55534-15.6119-57.11067-31.22379-85.66601-46.83569z" fill="#5b8e24" fill-rule="evenodd" filter="url(#r)"/><path d="m476.42305 238.9927-58.82735-39.6177 49.72774-15.25651 8.5789-2.63216-5.28125-17.20703-9.40008 2.884-49.57453 15.20975 26.17774-71.07617-6.83203-11.964849-88.2461-16.068359 26.60344-30.494111 4.8868-5.597686-13.5625-11.833984-7.25708 8.321386-28.49292 32.655176-61.28342-57.818718-13.64041-7.04261-13.57549 6.963389-61.34639 57.897939-28.44888-32.608032-7.30112-8.36853-13.56445 11.833984 4.8898 5.595781 26.60239 30.496016-88.246094 16.068359-6.833985 11.964849 26.177735 71.07617-50.371094-15.45508-8.603516-2.63867-5.279297 17.20703 8.603516 2.64062 49.701172 15.24805-58.802343 39.598-16.3694712 11.027 16.5206602 11.12596 58.651154 39.49904-49.727697 15.25664-8.576991 2.63203 5.279297 17.20703 8.958006-2.74793 50.016604-15.34582-23.933971 64.98404 1.172251 12.07455 13.633078 7.85273 78.029036 14.19806-26.42547 30.28715-5.06477 5.80464 13.5625 11.83399 7.43043-8.51587 28.32152-32.45874 61.33318 57.86556 13.5887 6.99381 13.57572-6.9634 61.34615-57.89597 28.3146 32.45184 7.43736 8.52277 13.5625-11.83399-4.88729-5.59737-26.60295-30.49442 77.80357-14.16692 20.97494-3.81924-5.8967-16.01037-23.98142-65.11285 50.3711 15.45508 8.60351 2.63867 5.2793-17.20703-8.60352-2.64062-49.70117-15.24805 58.77592-39.58307 16.39589-11.04193zm-217.42305-200.127466 46.15234 43.542969-46.15234 4.929688zm-18 .002v48.470704l-46.15039-4.929688zm-60.2207 60.140625 43.71484 4.669921-57.6875 38.85157zm138.44336 0 13.97265 43.521491-57.68945-38.85157zm-157.9336 1.816411-18.60351 57.94922-35.12696 23.6582-24.791012-67.30859zm177.42188 0 78.52148 14.29883-24.78906 67.31054-35.12891-23.66015zm-88.71094 7.37886 92.08398 62.01562 25.61133 79.78125-25.61328 79.7832-92.08203 62.01563-92.08203-62.01563-25.61328-79.7832 25.61328-79.78125zm116.20312 78.25976 19.83594 13.35938-8.30664 22.55273zm-232.40625.002-11.52734 35.90821-8.30664-22.55078zm-35.20312 23.70894 14.66797 39.82422-14.669923 39.82812-59.134766-39.82617zm302.81445 0 59.13477 39.82617-59.13477 39.82617-14.66797-39.82617zm-279.13867 67.45312 11.52734 35.91016-19.83398-13.35742zm255.46094 0 8.30664 22.55274-19.83399 13.35742zm-270.17188 39.93946 35.12696 23.6582 18.60351 57.95117-78.521482-14.29883zm284.88282 0 24.79101 67.31054-78.52148 14.29883 18.60351-57.95117zm-225.63477 39.90429 57.68945 38.85157-43.71679 4.66992zm166.38672 0-13.97266 43.52149-43.71679-4.66992zm-92.19336 55.18946v48.47461l-46.15234-43.54493zm18 0 46.15234 4.92968-46.15234 43.54493z" fill="#4d7723"/></g></g><g fill="url(#j)" transform="matrix(.97435671 -.22500887 .22500887 .97435671 7.760822 13.696697)"><path d="m64.626953 88.507812c-3.203763 0-5.820312 2.625627-5.820312 5.820313s2.616549 5.818355 5.820312 5.818355 5.818359-2.623669 5.818359-5.818355-2.614596-5.820313-5.818359-5.820313zm0 2.117188c2.055498 0 3.701172 1.655838 3.701172 3.703125s-1.645674 3.701172-3.701172 3.701172-3.703125-1.653885-3.703125-3.701172 1.647627-3.703125 3.703125-3.703125z" fill="#84542e" fill-rule="evenodd" filter="url(#w)"/><path d="m64.626276 89.566349c-2.629633 0-4.760806 2.139816-4.760806 4.760805s2.131173 4.760805 4.760806 4.760805 4.760806-2.139816 4.760806-4.760805-2.131173-4.760805-4.760806-4.760805z" fill="url(#g)" fill-rule="evenodd" stroke-width="2.11667"/><g fill="url(#p)" stroke-width=".989251" transform="matrix(.01945932 0 0 .01904322 59.761446 89.566349)"><g fill-rule="evenodd"><path d="m250 0c-135.13489-.00001831-244.6542969 112.36629-244.6542969 250s109.5194069 250.00002 244.6542969 250c135.13489.00002 244.6543-112.36629 244.6543-250s-109.51941-250.00001831-244.6543-250z" fill="#4d7723"/><path d="m476.65421 250a226.65418 232 0 0 1 -226.65421 232 226.65418 232 0 0 1 -226.65421-232 226.65418 232 0 0 1 226.65421-232 226.65418 232 0 0 1 226.65421 232z" fill="url(#u)"/><path d="m377.16286 249.99588-27.47926-85.49905-99.69921-67.14648-99.66723 67.14648-27.44922 85.49905 27.41918 85.50681 99.69727 67.14649 99.72956-67.14649z" fill="url(#v)"/><path d="m249.98439 18.00074v79.34961l75.55273-8.06934zm0 0c-19.66253.16558-39.17881 3.0901-57.93135 8.13315-18.75256 5.04305-36.74135 11.94249-53.22884 22.07342l35.6094 41.0737zm-214.201498 157.59962 67.277348 20.70312-31.912053-87.9834c-8.05069 9.8996-15.315904 21.17576-21.143431 32.44833-5.827515 11.27257-10.529914 22.97416-14.221864 34.83195zm-12.422114 74.39552c.264726 12.78921 1.108696 25.27396 3.031711 37.75296 1.923016 12.479 4.894041 24.95909 9.390454 36.5898l67.277607-20.64209zm115.463432 201.53416 35.6094-40.81055-103.315422-19.146c8.894269 12.29613 19.486451 23.82268 30.830842 33.91756 11.34438 10.09488 23.72314 19.14431 36.87518 26.03899zm111.16018 30.46923v-79.35009l-75.55078 8.07031zm111.16044-30.46923-35.60739-40.81055-75.55305 71.27978c19.66549-.16802 39.24523-2.5992 57.99855-7.64282 18.75334-5.04361 36.68034-12.69915 53.16189-22.82641zm-35.60739-40.81055 24.17651-75.2168-99.72956 67.14649zm138.64849-86.38085-67.27539-20.64209 31.94137 87.87694c8.05079-9.89981 15.34545-20.85675 21.1729-32.12972s10.46897-23.24718 14.16112-35.10513zm12.45312-74.34276c.0667-12.36906-.9144-25.11101-3.05829-37.92707-2.14389-12.81607-5.45065-25.64081-8.99839-36.46845l-67.67188 20.70312zm-115.16244-201.78857-35.93949 41.0737 103.79566 19.03907c-9.13568-12.24007-19.53534-23.64967-30.93258-33.71848s-23.85527-18.82757-36.92359-26.39429zm-187.04301 41.0737-24.11644 75.21582 99.66723-67.14648z" fill="#5b8e24"/><path d="m23.360778 249.99588 79.699772 53.70067 19.80739-53.70067-19.8077-53.6924zm79.699772 53.70067-31.942362 87.87694c.187633.25756-.188672-.25676 0 0l103.315422 19.146-24.14649-75.2168zm222.47689 107.02294 103.31447-19.146c.18802-.25611-.18699.25691 0 0l-31.94137-87.87694-47.19659 31.80614zm151.10161-160.72361-79.72856-53.6924-19.74763 53.6924 19.74768 53.70067zm-47.30627-141.6758-103.79566-19.03907 24.14648 75.21582 47.22689 31.80665zm-326.27254 87.9834 47.25692-31.80665 24.11644-75.21582-103.285413 19.03907c-.188672.25741.187633-.25822 0 0z" fill="url(#u)"/><path d="m249.98439 18.00074 75.55273 71.28027 35.93949-41.0737c-15.12655-8.88357-31.83801-16.76434-50.33921-22.07342-18.50119-5.30907-30.87363-7.36604-61.15301-8.13315zm0 0-75.55079 71.28027 75.55079 8.06934zm-178.836203 90.31934 103.285413-19.03907-35.6094-41.0737c-13.31043 7.27793-25.7318 16.36604-37.14226 26.39429-11.410469 10.02825-22.062195 21.5391-30.533753 33.71848zm31.912053 87.9834-67.277348-20.70312c-4.50072 11.82001-7.517399 23.89777-9.479674 36.46845s-2.900093 25.71146-2.94244 37.92707zm.00031 107.39307-67.277607 20.64209c3.717916 12.30533 8.550441 23.91472 14.443103 35.10513 5.892649 11.19041 13.127915 22.34707 20.892142 32.12972zm222.47689 107.02294-75.55305-8.07031v79.35009l-75.55078-71.27978-35.6094 40.81055c16.40114 10.07914 34.47832 17.74666 53.32427 22.82641 18.84596 5.07973 38.47989 7.57316 57.83591 7.64282zm0 0 35.60739 40.81055c13.31173-7.27644 25.90227-16.01001 37.313-26.03899 11.41073-10.02899 21.92292-21.73767 30.39408-33.91756zm151.10161-160.72361-79.72851 53.70067 67.27539 20.64209c4.50401-11.82656 7.56658-24.01474 9.54368-36.5898s2.8687-25.54187 2.90944-37.75296zm-47.30627-141.6758-32.42229 87.9834 67.67188-20.70312c-5.17925-12.86146-9.65663-24.94096-15.30849-36.14545s-12.48168-21.53106-19.9411-31.13483zm-179.34839 294.3291-99.69727-67.14649 24.14649 75.2168zm0-305.29883 99.69921 67.14648-24.14648-75.21582z" fill="#77cb4d"/><path d="m103.06055 303.69655 47.22657 31.80614-27.41918-85.50681zm19.80739-53.70067 27.44922-85.49905-47.25692 31.80665z" fill="#5b8e24"/><path d="m396.91049 196.30348-47.22689-31.80665 27.47926 85.49905zm-19.74763 53.6924-27.44891 85.50681 47.19659-31.80614z" fill="#77cb4d"/></g><path d="m188.72656 350.53224c-19.51713-15.1448-35.96509-36.80411-43.61523-60.64064-8.11015-25.26984-8.10965-54.51223 0-79.78223 7.64861-23.83336 23.95502-45.60524 43.60677-60.63396 17.39289-13.30126 39.54395-22.68204 61.26836-22.70588 21.55333-.0237 43.41569 8.99589 60.83307 22.39361l86.09096 47.14034-146.9261-98.95313-99.66723 67.14648-27.44922 85.49905 27.41918 85.50681 99.69727 67.14649z" fill="#77cb4d" filter="url(#q)"/><path d="m103.06055 303.69655 146.92384 98.95263 99.72956-67.14649 27.44891-85.50681-27.47926-85.49905-99.69921-67.14648 60.83514 51.81279c19.87561 15.28864 36.33708 36.95446 44.07011 60.94623 8.14157 25.25928 8.07024 54.49938-.00097 79.78223-7.54895 23.64687-23.61016 45.31057-43.05974 60.26653-17.53486 13.48362-39.89724 23.04753-61.84231 23.07234-21.72096.0246-43.83878-9.17975-61.26006-22.69823-28.55534-15.6119-57.11067-31.22379-85.66601-46.83569z" fill="#5b8e24" fill-rule="evenodd" filter="url(#r)"/><path d="m476.42305 238.9927-58.82735-39.6177 49.72774-15.25651 8.5789-2.63216-5.28125-17.20703-9.40008 2.884-49.57453 15.20975 26.17774-71.07617-6.83203-11.964849-88.2461-16.068359 26.60344-30.494111 4.8868-5.597686-13.5625-11.833984-7.25708 8.321386-28.49292 32.655176-61.28342-57.818718-13.64041-7.04261-13.57549 6.963389-61.34639 57.897939-28.44888-32.608032-7.30112-8.36853-13.56445 11.833984 4.8898 5.595781 26.60239 30.496016-88.246094 16.068359-6.833985 11.964849 26.177735 71.07617-50.371094-15.45508-8.603516-2.63867-5.279297 17.20703 8.603516 2.64062 49.701172 15.24805-58.802343 39.598-16.3694712 11.027 16.5206602 11.12596 58.651154 39.49904-49.727697 15.25664-8.576991 2.63203 5.279297 17.20703 8.958006-2.74793 50.016604-15.34582-23.933971 64.98404 1.172251 12.07455 13.633078 7.85273 78.029036 14.19806-26.42547 30.28715-5.06477 5.80464 13.5625 11.83399 7.43043-8.51587 28.32152-32.45874 61.33318 57.86556 13.5887 6.99381 13.57572-6.9634 61.34615-57.89597 28.3146 32.45184 7.43736 8.52277 13.5625-11.83399-4.88729-5.59737-26.60295-30.49442 77.80357-14.16692 20.97494-3.81924-5.8967-16.01037-23.98142-65.11285 50.3711 15.45508 8.60351 2.63867 5.2793-17.20703-8.60352-2.64062-49.70117-15.24805 58.77592-39.58307 16.39589-11.04193zm-217.42305-200.127466 46.15234 43.542969-46.15234 4.929688zm-18 .002v48.470704l-46.15039-4.929688zm-60.2207 60.140625 43.71484 4.669921-57.6875 38.85157zm138.44336 0 13.97265 43.521491-57.68945-38.85157zm-157.9336 1.816411-18.60351 57.94922-35.12696 23.6582-24.791012-67.30859zm177.42188 0 78.52148 14.29883-24.78906 67.31054-35.12891-23.66015zm-88.71094 7.37886 92.08398 62.01562 25.61133 79.78125-25.61328 79.7832-92.08203 62.01563-92.08203-62.01563-25.61328-79.7832 25.61328-79.78125zm116.20312 78.25976 19.83594 13.35938-8.30664 22.55273zm-232.40625.002-11.52734 35.90821-8.30664-22.55078zm-35.20312 23.70894 14.66797 39.82422-14.669923 39.82812-59.134766-39.82617zm302.81445 0 59.13477 39.82617-59.13477 39.82617-14.66797-39.82617zm-279.13867 67.45312 11.52734 35.91016-19.83398-13.35742zm255.46094 0 8.30664 22.55274-19.83399 13.35742zm-270.17188 39.93946 35.12696 23.6582 18.60351 57.95117-78.521482-14.29883zm284.88282 0 24.79101 67.31054-78.52148 14.29883 18.60351-57.95117zm-225.63477 39.90429 57.68945 38.85157-43.71679 4.66992zm166.38672 0-13.97266 43.52149-43.71679-4.66992zm-92.19336 55.18946v48.47461l-46.15234-43.54493zm18 0 46.15234 4.92968-46.15234 43.54493z" fill="#4d7723"/></g></g><g fill="url(#h)" transform="matrix(-.97435671 .22500887 .22500887 .97435671 79.013847 -15.183418)"><path d="m64.626953 88.507812c-3.203763 0-5.820312 2.625627-5.820312 5.820313s2.616549 5.818355 5.820312 5.818355 5.818359-2.623669 5.818359-5.818355-2.614596-5.820313-5.818359-5.820313zm0 2.117188c2.055498 0 3.701172 1.655838 3.701172 3.703125s-1.645674 3.701172-3.701172 3.701172-3.703125-1.653885-3.703125-3.701172 1.647627-3.703125 3.703125-3.703125z" fill="#84542e" fill-rule="evenodd" filter="url(#w)"/><path d="m64.626276 89.566349c-2.629633 0-4.760806 2.139816-4.760806 4.760805s2.131173 4.760805 4.760806 4.760805 4.760806-2.139816 4.760806-4.760805-2.131173-4.760805-4.760806-4.760805z" fill="url(#g)" fill-rule="evenodd" stroke-width="2.11667"/><g fill="url(#p)" stroke-width=".989251" transform="matrix(.01945932 0 0 .01904322 59.761446 89.566349)"><g fill-rule="evenodd"><path d="m250 0c-135.13489-.00001831-244.6542969 112.36629-244.6542969 250s109.5194069 250.00002 244.6542969 250c135.13489.00002 244.6543-112.36629 244.6543-250s-109.51941-250.00001831-244.6543-250z" fill="#4d7723"/><path d="m476.65421 250a226.65418 232 0 0 1 -226.65421 232 226.65418 232 0 0 1 -226.65421-232 226.65418 232 0 0 1 226.65421-232 226.65418 232 0 0 1 226.65421 232z" fill="url(#u)"/><path d="m377.16286 249.99588-27.47926-85.49905-99.69921-67.14648-99.66723 67.14648-27.44922 85.49905 27.41918 85.50681 99.69727 67.14649 99.72956-67.14649z" fill="url(#v)"/><path d="m249.98439 18.00074v79.34961l75.55273-8.06934zm0 0c-19.66253.16558-39.17881 3.0901-57.93135 8.13315-18.75256 5.04305-36.74135 11.94249-53.22884 22.07342l35.6094 41.0737zm-214.201498 157.59962 67.277348 20.70312-31.912053-87.9834c-8.05069 9.8996-15.315904 21.17576-21.143431 32.44833-5.827515 11.27257-10.529914 22.97416-14.221864 34.83195zm-12.422114 74.39552c.264726 12.78921 1.108696 25.27396 3.031711 37.75296 1.923016 12.479 4.894041 24.95909 9.390454 36.5898l67.277607-20.64209zm115.463432 201.53416 35.6094-40.81055-103.315422-19.146c8.894269 12.29613 19.486451 23.82268 30.830842 33.91756 11.34438 10.09488 23.72314 19.14431 36.87518 26.03899zm111.16018 30.46923v-79.35009l-75.55078 8.07031zm111.16044-30.46923-35.60739-40.81055-75.55305 71.27978c19.66549-.16802 39.24523-2.5992 57.99855-7.64282 18.75334-5.04361 36.68034-12.69915 53.16189-22.82641zm-35.60739-40.81055 24.17651-75.2168-99.72956 67.14649zm138.64849-86.38085-67.27539-20.64209 31.94137 87.87694c8.05079-9.89981 15.34545-20.85675 21.1729-32.12972s10.46897-23.24718 14.16112-35.10513zm12.45312-74.34276c.0667-12.36906-.9144-25.11101-3.05829-37.92707-2.14389-12.81607-5.45065-25.64081-8.99839-36.46845l-67.67188 20.70312zm-115.16244-201.78857-35.93949 41.0737 103.79566 19.03907c-9.13568-12.24007-19.53534-23.64967-30.93258-33.71848s-23.85527-18.82757-36.92359-26.39429zm-187.04301 41.0737-24.11644 75.21582 99.66723-67.14648z" fill="#5b8e24"/><path d="m23.360778 249.99588 79.699772 53.70067 19.80739-53.70067-19.8077-53.6924zm79.699772 53.70067-31.942362 87.87694c.187633.25756-.188672-.25676 0 0l103.315422 19.146-24.14649-75.2168zm222.47689 107.02294 103.31447-19.146c.18802-.25611-.18699.25691 0 0l-31.94137-87.87694-47.19659 31.80614zm151.10161-160.72361-79.72856-53.6924-19.74763 53.6924 19.74768 53.70067zm-47.30627-141.6758-103.79566-19.03907 24.14648 75.21582 47.22689 31.80665zm-326.27254 87.9834 47.25692-31.80665 24.11644-75.21582-103.285413 19.03907c-.188672.25741.187633-.25822 0 0z" fill="url(#u)"/><path d="m249.98439 18.00074 75.55273 71.28027 35.93949-41.0737c-15.12655-8.88357-31.83801-16.76434-50.33921-22.07342-18.50119-5.30907-30.87363-7.36604-61.15301-8.13315zm0 0-75.55079 71.28027 75.55079 8.06934zm-178.836203 90.31934 103.285413-19.03907-35.6094-41.0737c-13.31043 7.27793-25.7318 16.36604-37.14226 26.39429-11.410469 10.02825-22.062195 21.5391-30.533753 33.71848zm31.912053 87.9834-67.277348-20.70312c-4.50072 11.82001-7.517399 23.89777-9.479674 36.46845s-2.900093 25.71146-2.94244 37.92707zm.00031 107.39307-67.277607 20.64209c3.717916 12.30533 8.550441 23.91472 14.443103 35.10513 5.892649 11.19041 13.127915 22.34707 20.892142 32.12972zm222.47689 107.02294-75.55305-8.07031v79.35009l-75.55078-71.27978-35.6094 40.81055c16.40114 10.07914 34.47832 17.74666 53.32427 22.82641 18.84596 5.07973 38.47989 7.57316 57.83591 7.64282zm0 0 35.60739 40.81055c13.31173-7.27644 25.90227-16.01001 37.313-26.03899 11.41073-10.02899 21.92292-21.73767 30.39408-33.91756zm151.10161-160.72361-79.72851 53.70067 67.27539 20.64209c4.50401-11.82656 7.56658-24.01474 9.54368-36.5898s2.8687-25.54187 2.90944-37.75296zm-47.30627-141.6758-32.42229 87.9834 67.67188-20.70312c-5.17925-12.86146-9.65663-24.94096-15.30849-36.14545s-12.48168-21.53106-19.9411-31.13483zm-179.34839 294.3291-99.69727-67.14649 24.14649 75.2168zm0-305.29883 99.69921 67.14648-24.14648-75.21582z" fill="#77cb4d"/><path d="m103.06055 303.69655 47.22657 31.80614-27.41918-85.50681zm19.80739-53.70067 27.44922-85.49905-47.25692 31.80665z" fill="#5b8e24"/><path d="m396.91049 196.30348-47.22689-31.80665 27.47926 85.49905zm-19.74763 53.6924-27.44891 85.50681 47.19659-31.80614z" fill="#77cb4d"/></g><path d="m188.72656 350.53224c-19.51713-15.1448-35.96509-36.80411-43.61523-60.64064-8.11015-25.26984-8.10965-54.51223 0-79.78223 7.64861-23.83336 23.95502-45.60524 43.60677-60.63396 17.39289-13.30126 39.54395-22.68204 61.26836-22.70588 21.55333-.0237 43.41569 8.99589 60.83307 22.39361l86.09096 47.14034-146.9261-98.95313-99.66723 67.14648-27.44922 85.49905 27.41918 85.50681 99.69727 67.14649z" fill="#77cb4d" filter="url(#q)"/><path d="m103.06055 303.69655 146.92384 98.95263 99.72956-67.14649 27.44891-85.50681-27.47926-85.49905-99.69921-67.14648 60.83514 51.81279c19.87561 15.28864 36.33708 36.95446 44.07011 60.94623 8.14157 25.25928 8.07024 54.49938-.00097 79.78223-7.54895 23.64687-23.61016 45.31057-43.05974 60.26653-17.53486 13.48362-39.89724 23.04753-61.84231 23.07234-21.72096.0246-43.83878-9.17975-61.26006-22.69823-28.55534-15.6119-57.11067-31.22379-85.66601-46.83569z" fill="#5b8e24" fill-rule="evenodd" filter="url(#r)"/><path d="m476.42305 238.9927-58.82735-39.6177 49.72774-15.25651 8.5789-2.63216-5.28125-17.20703-9.40008 2.884-49.57453 15.20975 26.17774-71.07617-6.83203-11.964849-88.2461-16.068359 26.60344-30.494111 4.8868-5.597686-13.5625-11.833984-7.25708 8.321386-28.49292 32.655176-61.28342-57.818718-13.64041-7.04261-13.57549 6.963389-61.34639 57.897939-28.44888-32.608032-7.30112-8.36853-13.56445 11.833984 4.8898 5.595781 26.60239 30.496016-88.246094 16.068359-6.833985 11.964849 26.177735 71.07617-50.371094-15.45508-8.603516-2.63867-5.279297 17.20703 8.603516 2.64062 49.701172 15.24805-58.802343 39.598-16.3694712 11.027 16.5206602 11.12596 58.651154 39.49904-49.727697 15.25664-8.576991 2.63203 5.279297 17.20703 8.958006-2.74793 50.016604-15.34582-23.933971 64.98404 1.172251 12.07455 13.633078 7.85273 78.029036 14.19806-26.42547 30.28715-5.06477 5.80464 13.5625 11.83399 7.43043-8.51587 28.32152-32.45874 61.33318 57.86556 13.5887 6.99381 13.57572-6.9634 61.34615-57.89597 28.3146 32.45184 7.43736 8.52277 13.5625-11.83399-4.88729-5.59737-26.60295-30.49442 77.80357-14.16692 20.97494-3.81924-5.8967-16.01037-23.98142-65.11285 50.3711 15.45508 8.60351 2.63867 5.2793-17.20703-8.60352-2.64062-49.70117-15.24805 58.77592-39.58307 16.39589-11.04193zm-217.42305-200.127466 46.15234 43.542969-46.15234 4.929688zm-18 .002v48.470704l-46.15039-4.929688zm-60.2207 60.140625 43.71484 4.669921-57.6875 38.85157zm138.44336 0 13.97265 43.521491-57.68945-38.85157zm-157.9336 1.816411-18.60351 57.94922-35.12696 23.6582-24.791012-67.30859zm177.42188 0 78.52148 14.29883-24.78906 67.31054-35.12891-23.66015zm-88.71094 7.37886 92.08398 62.01562 25.61133 79.78125-25.61328 79.7832-92.08203 62.01563-92.08203-62.01563-25.61328-79.7832 25.61328-79.78125zm116.20312 78.25976 19.83594 13.35938-8.30664 22.55273zm-232.40625.002-11.52734 35.90821-8.30664-22.55078zm-35.20312 23.70894 14.66797 39.82422-14.669923 39.82812-59.134766-39.82617zm302.81445 0 59.13477 39.82617-59.13477 39.82617-14.66797-39.82617zm-279.13867 67.45312 11.52734 35.91016-19.83398-13.35742zm255.46094 0 8.30664 22.55274-19.83399 13.35742zm-270.17188 39.93946 35.12696 23.6582 18.60351 57.95117-78.521482-14.29883zm284.88282 0 24.79101 67.31054-78.52148 14.29883 18.60351-57.95117zm-225.63477 39.90429 57.68945 38.85157-43.71679 4.66992zm166.38672 0-13.97266 43.52149-43.71679-4.66992zm-92.19336 55.18946v48.47461l-46.15234-43.54493zm18 0 46.15234 4.92968-46.15234 43.54493z" fill="#4d7723"/></g></g><g><path d="m64.626953 88.507812c-3.203763 0-5.820312 2.625627-5.820312 5.820313s2.616549 5.818355 5.820312 5.818355 5.818359-2.623669 5.818359-5.818355-2.614596-5.820313-5.818359-5.820313zm0 2.117188c2.055498 0 3.701172 1.655838 3.701172 3.703125s-1.645674 3.701172-3.701172 3.701172-3.703125-1.653885-3.703125-3.701172 1.647627-3.703125 3.703125-3.703125z" fill="#84542e" fill-rule="evenodd" filter="url(#w)"/><path d="m64.626276 89.566349c-2.629633 0-4.760806 2.139816-4.760806 4.760805s2.131173 4.760805 4.760806 4.760805 4.760806-2.139816 4.760806-4.760805-2.131173-4.760805-4.760806-4.760805z" fill="url(#g)" fill-rule="evenodd" stroke-width="2.11667"/><g fill="url(#p)" stroke-width=".989251" transform="matrix(.01945932 0 0 .01904322 59.761446 89.566349)"><g fill-rule="evenodd"><path d="m250 0c-135.13489-.00001831-244.6542969 112.36629-244.6542969 250s109.5194069 250.00002 244.6542969 250c135.13489.00002 244.6543-112.36629 244.6543-250s-109.51941-250.00001831-244.6543-250z" fill="#4d7723"/><path d="m476.65421 250a226.65418 232 0 0 1 -226.65421 232 226.65418 232 0 0 1 -226.65421-232 226.65418 232 0 0 1 226.65421-232 226.65418 232 0 0 1 226.65421 232z" fill="url(#u)"/><path d="m377.16286 249.99588-27.47926-85.49905-99.69921-67.14648-99.66723 67.14648-27.44922 85.49905 27.41918 85.50681 99.69727 67.14649 99.72956-67.14649z" fill="url(#v)"/><path d="m249.98439 18.00074v79.34961l75.55273-8.06934zm0 0c-19.66253.16558-39.17881 3.0901-57.93135 8.13315-18.75256 5.04305-36.74135 11.94249-53.22884 22.07342l35.6094 41.0737zm-214.201498 157.59962 67.277348 20.70312-31.912053-87.9834c-8.05069 9.8996-15.315904 21.17576-21.143431 32.44833-5.827515 11.27257-10.529914 22.97416-14.221864 34.83195zm-12.422114 74.39552c.264726 12.78921 1.108696 25.27396 3.031711 37.75296 1.923016 12.479 4.894041 24.95909 9.390454 36.5898l67.277607-20.64209zm115.463432 201.53416 35.6094-40.81055-103.315422-19.146c8.894269 12.29613 19.486451 23.82268 30.830842 33.91756 11.34438 10.09488 23.72314 19.14431 36.87518 26.03899zm111.16018 30.46923v-79.35009l-75.55078 8.07031zm111.16044-30.46923-35.60739-40.81055-75.55305 71.27978c19.66549-.16802 39.24523-2.5992 57.99855-7.64282 18.75334-5.04361 36.68034-12.69915 53.16189-22.82641zm-35.60739-40.81055 24.17651-75.2168-99.72956 67.14649zm138.64849-86.38085-67.27539-20.64209 31.94137 87.87694c8.05079-9.89981 15.34545-20.85675 21.1729-32.12972s10.46897-23.24718 14.16112-35.10513zm12.45312-74.34276c.0667-12.36906-.9144-25.11101-3.05829-37.92707-2.14389-12.81607-5.45065-25.64081-8.99839-36.46845l-67.67188 20.70312zm-115.16244-201.78857-35.93949 41.0737 103.79566 19.03907c-9.13568-12.24007-19.53534-23.64967-30.93258-33.71848s-23.85527-18.82757-36.92359-26.39429zm-187.04301 41.0737-24.11644 75.21582 99.66723-67.14648z" fill="#5b8e24"/><path d="m23.360778 249.99588 79.699772 53.70067 19.80739-53.70067-19.8077-53.6924zm79.699772 53.70067-31.942362 87.87694c.187633.25756-.188672-.25676 0 0l103.315422 19.146-24.14649-75.2168zm222.47689 107.02294 103.31447-19.146c.18802-.25611-.18699.25691 0 0l-31.94137-87.87694-47.19659 31.80614zm151.10161-160.72361-79.72856-53.6924-19.74763 53.6924 19.74768 53.70067zm-47.30627-141.6758-103.79566-19.03907 24.14648 75.21582 47.22689 31.80665zm-326.27254 87.9834 47.25692-31.80665 24.11644-75.21582-103.285413 19.03907c-.188672.25741.187633-.25822 0 0z" fill="url(#u)"/><path d="m249.98439 18.00074 75.55273 71.28027 35.93949-41.0737c-15.12655-8.88357-31.83801-16.76434-50.33921-22.07342-18.50119-5.30907-30.87363-7.36604-61.15301-8.13315zm0 0-75.55079 71.28027 75.55079 8.06934zm-178.836203 90.31934 103.285413-19.03907-35.6094-41.0737c-13.31043 7.27793-25.7318 16.36604-37.14226 26.39429-11.410469 10.02825-22.062195 21.5391-30.533753 33.71848zm31.912053 87.9834-67.277348-20.70312c-4.50072 11.82001-7.517399 23.89777-9.479674 36.46845s-2.900093 25.71146-2.94244 37.92707zm.00031 107.39307-67.277607 20.64209c3.717916 12.30533 8.550441 23.91472 14.443103 35.10513 5.892649 11.19041 13.127915 22.34707 20.892142 32.12972zm222.47689 107.02294-75.55305-8.07031v79.35009l-75.55078-71.27978-35.6094 40.81055c16.40114 10.07914 34.47832 17.74666 53.32427 22.82641 18.84596 5.07973 38.47989 7.57316 57.83591 7.64282zm0 0 35.60739 40.81055c13.31173-7.27644 25.90227-16.01001 37.313-26.03899 11.41073-10.02899 21.92292-21.73767 30.39408-33.91756zm151.10161-160.72361-79.72851 53.70067 67.27539 20.64209c4.50401-11.82656 7.56658-24.01474 9.54368-36.5898s2.8687-25.54187 2.90944-37.75296zm-47.30627-141.6758-32.42229 87.9834 67.67188-20.70312c-5.17925-12.86146-9.65663-24.94096-15.30849-36.14545s-12.48168-21.53106-19.9411-31.13483zm-179.34839 294.3291-99.69727-67.14649 24.14649 75.2168zm0-305.29883 99.69921 67.14648-24.14648-75.21582z" fill="#77cb4d"/><path d="m103.06055 303.69655 47.22657 31.80614-27.41918-85.50681zm19.80739-53.70067 27.44922-85.49905-47.25692 31.80665z" fill="#5b8e24"/><path d="m396.91049 196.30348-47.22689-31.80665 27.47926 85.49905zm-19.74763 53.6924-27.44891 85.50681 47.19659-31.80614z" fill="#77cb4d"/></g><path d="m188.72656 350.53224c-19.51713-15.1448-35.96509-36.80411-43.61523-60.64064-8.11015-25.26984-8.10965-54.51223 0-79.78223 7.64861-23.83336 23.95502-45.60524 43.60677-60.63396 17.39289-13.30126 39.54395-22.68204 61.26836-22.70588 21.55333-.0237 43.41569 8.99589 60.83307 22.39361l86.09096 47.14034-146.9261-98.95313-99.66723 67.14648-27.44922 85.49905 27.41918 85.50681 99.69727 67.14649z" fill="#77cb4d" filter="url(#q)"/><path d="m103.06055 303.69655 146.92384 98.95263 99.72956-67.14649 27.44891-85.50681-27.47926-85.49905-99.69921-67.14648 60.83514 51.81279c19.87561 15.28864 36.33708 36.95446 44.07011 60.94623 8.14157 25.25928 8.07024 54.49938-.00097 79.78223-7.54895 23.64687-23.61016 45.31057-43.05974 60.26653-17.53486 13.48362-39.89724 23.04753-61.84231 23.07234-21.72096.0246-43.83878-9.17975-61.26006-22.69823-28.55534-15.6119-57.11067-31.22379-85.66601-46.83569z" fill="#5b8e24" fill-rule="evenodd" filter="url(#r)"/><path d="m476.42305 238.9927-58.82735-39.6177 49.72774-15.25651 8.5789-2.63216-5.28125-17.20703-9.40008 2.884-49.57453 15.20975 26.17774-71.07617-6.83203-11.964849-88.2461-16.068359 26.60344-30.494111 4.8868-5.597686-13.5625-11.833984-7.25708 8.321386-28.49292 32.655176-61.28342-57.818718-13.64041-7.04261-13.57549 6.963389-61.34639 57.897939-28.44888-32.608032-7.30112-8.36853-13.56445 11.833984 4.8898 5.595781 26.60239 30.496016-88.246094 16.068359-6.833985 11.964849 26.177735 71.07617-50.371094-15.45508-8.603516-2.63867-5.279297 17.20703 8.603516 2.64062 49.701172 15.24805-58.802343 39.598-16.3694712 11.027 16.5206602 11.12596 58.651154 39.49904-49.727697 15.25664-8.576991 2.63203 5.279297 17.20703 8.958006-2.74793 50.016604-15.34582-23.933971 64.98404 1.172251 12.07455 13.633078 7.85273 78.029036 14.19806-26.42547 30.28715-5.06477 5.80464 13.5625 11.83399 7.43043-8.51587 28.32152-32.45874 61.33318 57.86556 13.5887 6.99381 13.57572-6.9634 61.34615-57.89597 28.3146 32.45184 7.43736 8.52277 13.5625-11.83399-4.88729-5.59737-26.60295-30.49442 77.80357-14.16692 20.97494-3.81924-5.8967-16.01037-23.98142-65.11285 50.3711 15.45508 8.60351 2.63867 5.2793-17.20703-8.60352-2.64062-49.70117-15.24805 58.77592-39.58307 16.39589-11.04193zm-217.42305-200.127466 46.15234 43.542969-46.15234 4.929688zm-18 .002v48.470704l-46.15039-4.929688zm-60.2207 60.140625 43.71484 4.669921-57.6875 38.85157zm138.44336 0 13.97265 43.521491-57.68945-38.85157zm-157.9336 1.816411-18.60351 57.94922-35.12696 23.6582-24.791012-67.30859zm177.42188 0 78.52148 14.29883-24.78906 67.31054-35.12891-23.66015zm-88.71094 7.37886 92.08398 62.01562 25.61133 79.78125-25.61328 79.7832-92.08203 62.01563-92.08203-62.01563-25.61328-79.7832 25.61328-79.78125zm116.20312 78.25976 19.83594 13.35938-8.30664 22.55273zm-232.40625.002-11.52734 35.90821-8.30664-22.55078zm-35.20312 23.70894 14.66797 39.82422-14.669923 39.82812-59.134766-39.82617zm302.81445 0 59.13477 39.82617-59.13477 39.82617-14.66797-39.82617zm-279.13867 67.45312 11.52734 35.91016-19.83398-13.35742zm255.46094 0 8.30664 22.55274-19.83399 13.35742zm-270.17188 39.93946 35.12696 23.6582 18.60351 57.95117-78.521482-14.29883zm284.88282 0 24.79101 67.31054-78.52148 14.29883 18.60351-57.95117zm-225.63477 39.90429 57.68945 38.85157-43.71679 4.66992zm166.38672 0-13.97266 43.52149-43.71679-4.66992zm-92.19336 55.18946v48.47461l-46.15234-43.54493zm18 0 46.15234 4.92968-46.15234 43.54493z" fill="#4d7723"/></g></g></g></g></svg>