<svg height="500" viewBox="0 0 500 500" width="500" xmlns="http://www.w3.org/2000/svg" xmlns:xlink="http://www.w3.org/1999/xlink"><linearGradient id="a" gradientTransform="matrix(1.1230942 -3.1816782 3.4276786 1.6994907 -498.93509 1620.2933)" gradientUnits="userSpaceOnUse" spreadMethod="reflect" x1="366.96631" x2="262.53394" y1="70.650635" y2="80.088348"><stop offset="0" stop-color="#e5fbff"/><stop offset=".25" stop-color="#b2d7fd"/><stop offset=".375" stop-color="#c0e2f2"/><stop offset=".75" stop-color="#d2dff9"/><stop offset="1" stop-color="#d8eaf2"/></linearGradient><linearGradient id="b" gradientUnits="userSpaceOnUse" x1="171.12689" x2="486.13559" y1="585.34204" y2="900.35071"><stop offset=".21264368" stop-color="#d9eef2"/><stop offset=".89999998" stop-color="#f0faff" stop-opacity="0"/></linearGradient><filter id="c" color-interpolation-filters="sRGB" height="1.150216" width="1.149784" x="-.074892" y="-.075108"><feGaussianBlur stdDeviation="10.126711"/></filter><g stroke-linecap="round" stroke-linejoin="round" transform="translate(-51.860489 -517.91798)"><path d="m138.32864 552.54373c-9.34303 1.18166-18.31973 6.06154-25.50892 12.14464-10.8202 9.15547-20.831461 21.11524-24.381337 34.8374-4.860257 18.78748-9.97182 41.87797 6.06339 57.90129l314.936917 314.94595c15.94886 15.93599 37.10078 13.3036 55.95362 10.91919 9.34304-1.18166 18.31975-6.0615 25.50895-12.1446 10.82021-9.15546 20.83145-21.11525 24.38133-34.83741 4.86026-18.78746 9.97181-41.87799-6.06334-57.90124l-314.93696-314.94598c-15.94886-15.93604-37.10079-13.30366-55.95365-10.91924z" fill="url(#a)" opacity=".75" stroke-width="16"/><path d="m171.12691 585.342c-4.9722 4.97226-7.8395 14.78694-1.59142 21.03528l293.97119 293.9734c6.24856 6.24938 17.29523 5.33369 22.62891 0 5.33322-5.33322 6.24808-16.37861 0-22.62695l-293.97315-293.9734c-4.04215-4.04192-16.06326-3.38065-21.03553 1.59167z" fill="url(#b)" filter="url(#c)" opacity=".5"/><path d="m159.7207 542.91797c-8.01283-.0293-15.61244.93939-22.26953 1.67383-11.99968 1.32393-21.96446 7.38143-29.78906 13.98047-11.429752 9.63953-22.956497 22.23975-27.001954 39.08593-2.144881 8.93175-4.863581 19.97167-4.810547 31.53711.05303 11.56544 3.231014 24.13084 12.998047 33.89063l314.933594 314.94336a8.0008 8.0008 0 0 0 .002.002c9.45984 9.4522 21.11282 13.37032 32.08594 14.47852 10.97312 1.10819 21.5243-.28635 30.40039-1.26563 11.99983-1.32386 21.96451-7.38153 29.78906-13.98047 11.42983-9.63953 22.95648-22.23979 27.00196-39.08594 2.14488-8.93174 4.86357-19.97167 4.81054-31.53711-.053-11.56543-3.23103-24.13086-12.99804-33.89062l-314.93365-314.94341a8.0008 8.0008 0 0 0 -.002-.002c-9.45983-9.45223-21.11283-13.37032-32.08594-14.47852-2.74328-.27705-5.45991-.39843-8.13086-.4082zm-.0293 16.01758c2.22765.001 4.41914.0931 6.55273.30859 8.53435.8619 15.8938 3.39511 22.38281 9.87891l314.93556 314.94336a8.0008 8.0008 0 0 0 .002.002c6.26813 6.26347 8.26575 13.72718 8.30664 22.64648.0409 8.91931-2.2279 18.81813-4.36718 27.72657-2.8269 11.77177-11.59376 22.01617-21.75977 30.58984-6.34893 5.35445-13.65498 9.47306-21.22852 10.30859-9.05229.99872-18.5047 2.11386-27.03906 1.25196-8.53346-.86181-15.89235-3.39274-22.38086-9.875l-.002-.002-314.93555-314.94532a8.0008 8.0008 0 0 0 -.002-.002c-6.268161-6.26352-8.26574-13.72718-8.306641-22.64649-.0409-8.9193 2.227904-18.81812 4.367188-27.72656 2.826876-11.77174 11.593763-22.01611 21.759763-30.58984 6.34887-5.35445 13.655-9.47301 21.22852-10.3086 6.78927-.74902 13.80338-1.56415 20.48633-1.56054z" fill="#6c8693"/></g></svg>