<svg height="500" viewBox="0 0 132.29167 132.29167" width="500" xmlns="http://www.w3.org/2000/svg" xmlns:xlink="http://www.w3.org/1999/xlink"><linearGradient id="a" gradientTransform="matrix(2.6778927 0 0 3.1842362 -475.64199 -806.15514)" gradientUnits="userSpaceOnUse" spreadMethod="reflect" x1="-75.162231" x2="-56.490837" xlink:href="#b" y1="363.89615" y2="379.59848"/><linearGradient id="b" gradientTransform="matrix(391.593 0 0 -391.593 60.7962 7618.49)" gradientUnits="userSpaceOnUse" spreadMethod="pad" x1="0" x2="1" y1="0" y2="0"><stop offset="0" stop-color="#9f571d"/><stop offset=".511236" stop-color="#fde791"/><stop offset="1" stop-color="#b7671e"/></linearGradient><linearGradient id="c" gradientTransform="matrix(2.6778927 0 0 3.1842362 -475.64199 -806.15514)" gradientUnits="userSpaceOnUse" spreadMethod="reflect" x1="264.03821" x2="276.0336" xlink:href="#b" y1="249.74651" y2="293.43756"/><g><g stroke-width="1.28762" transform="matrix(.77662566 0 0 .77662566 -123.35888 15.08236)"><g><path d="m961.86719-29.742188-64.25233-11.467104 48.16834 42.9299951c86.6519 67.9332149 129.2592 126.1091269 144.0273 170.4101569 14.7682 44.30103 4.3936 74.20778-17.871 96.5332-22.2647 22.32543-58.8598 35.64827-95.51567 36.04492-47.52452-3.69355-77.85928-18.09025-106.1875-49.36914l-68.09766 62.04493 64.82031 64.22265.58985.49414c58.69908 48.93241 126.2866 57.24591 183.91207 38.40039 57.6255-18.84548 105.825-63.33475 131.9746-118.63476s29.7622-122.52036-3.7871-183.69727c-33.5492-61.176907-102.9434-114.8517012-217.78121-147.912108z" fill="#84542e" transform="scale(.26458334)"/><path d="m253.81023-2.6809888c93.44026 73.2551888 3.84297 107.5746288-23.88351 76.9768908l-10.74388 9.822656 14.07726 13.932626c57.56328 47.985616 138.79693-66.690352 20.55013-100.7321728z" fill="url(#c)"/></g><g><path d="m213.58415 85.898601-9.86308 4.483425s-6.42355 3.435354-14.19959 9.698054c-7.77603 6.2627-16.45571 14.00778-19.26757 23.39453-1.54636 5.16211-.99829 11.35327 3.73046 15.57617 4.87573 4.35413 11.1789 3.79167 15.94922 2.0918 8.85204-3.15435 16.53477-11.45698 22.77735-18.89063 6.24257-7.43365 10.41076-13.29329 10.41076-13.29329l4.74995-8.92073-7.66712-7.587608z" fill="#241e24" stroke-width="1.28762"/><path d="m174.81577 124.84079c-1.04373 3.48423-.37221 8.23491 2.34069 10.6576 2.79394 2.49505 7.64914 2.41606 11.17766 1.1587 13.83694-4.93068 31.0818-31.23899 31.0818-31.23899l-6.21771-5.961455-6.21771-5.961456s-27.86874 17.004451-32.16473 31.345601z" fill="#382e37" stroke-width="12.2645"/><path d="m215.79347 80.730288s-4.06749.641094-5.89971 1.516195c-.94737.452481-1.7704 1.152142-2.52704 1.879975-.5489.528008-1.02379 1.137172-1.43393 1.778948-.89627 1.402462-2.21172 4.47662-2.21172 4.47662l19.40063 18.576634s3.41339-1.01028 4.9875-1.81874c.68989-.35433 1.34989-.78789 1.92126-1.31233.64057-.58796 1.25134-1.2476 1.65004-2.02031.91231-1.76814 1.5796-5.756096 1.5796-5.756096l-14.07726-13.932626z" fill="#241e24" stroke-width="1.28762"/><path d="m213.58415 85.898601c-1.31385.515399-1.83779.619094-2.56431 1.227567-.68048.569919-.91349 1.023914-1.5534 2.162804l14.60182 13.981638c.97987-.16514 1.80541-.23441 2.4722-.78478.71631-.59127 1.32073-1.54319 1.33119-2.4479z" fill="#382e37" stroke-width="12.2645"/></g></g><g fill-rule="evenodd" transform="matrix(.26458334 0 0 .26458334 370.31857 -29.856519)"><path d="m-844.91846 352.57608h50v50h-50z" fill="#84542e"/><path d="m-794.91846 352.57608h50v50h-50z" fill="#b7671e"/><path d="m-744.91846 352.57605h50.000061v50.000061h-50.000061z" fill="#fde791"/><path d="m-676.9184 352.57608h50v50h-50z" fill="url(#a)" stroke="#84542e" stroke-width="36"/></g></g></svg>