<svg height="500" viewBox="0 0 132.29167 132.29167" width="500" xmlns="http://www.w3.org/2000/svg" xmlns:xlink="http://www.w3.org/1999/xlink"><linearGradient id="a"><stop offset="0" stop-color="#867e79"/><stop offset="1" stop-color="#68625e"/></linearGradient><radialGradient id="b" cx="-101.15455" cy="50.113056" gradientTransform="matrix(-.37870981 1.330701 -1.170911 -.33323452 -94.051191 212.47428)" gradientUnits="userSpaceOnUse" r="36.791481" xlink:href="#a"/><linearGradient id="c" gradientUnits="userSpaceOnUse" x1="-95.35122620479" x2="-62.27929909375" xlink:href="#a" y1="40.93218312094" y2="-.689455267"/><linearGradient id="d" gradientUnits="userSpaceOnUse" x1="-95.35122620479" x2="-53.40038896749" xlink:href="#a" y1="39.59909645368" y2="26.65429758345"/><linearGradient id="e" gradientUnits="userSpaceOnUse" x1="-86.68359992985" x2="-93.99495469087" xlink:href="#a" y1="43.69531265769" y2="-4.22265707174"/><radialGradient id="f" cx="-24.805227" cy="109.54855" gradientTransform="matrix(.11022848 .32485098 -.45970522 .15598724 76.535999 74.175641)" gradientUnits="userSpaceOnUse" r="35.493263" spreadMethod="reflect"><stop offset="0" stop-color="#594d41"/><stop offset="1" stop-color="#6b5548"/></radialGradient><g><g stroke-width="1.15172" transform="matrix(-.86826542 0 0 .86826542 -12.528598 10.022306)"><g><g><path d="m-67.101562 9.5039063c-1.673553-.1537718-3.56757.00934-5.583985.9492187-12.229559 5.700381-18.037614 19.070326-22.515625 28.421875l-1.255859 2.625 1.761719 2.314453c.000407.000536 1.479853 1.282862 1.480468 1.283203.000616.000342 1.464021.523289 1.464844.523438s.767104.08391 1.048828.07227c.281725-.01164.503771-.04505.689453-.08008.74273-.140125.989327-.293679 1.199219-.394531.419783-.201704.535371-.294558.658203-.376953.245664-.164791.364208-.261684.507813-.373047.287208-.222725.591398-.470338.96289-.773438.742985-.606198 1.721707-1.410004 2.810547-2.267578 2.177681-1.715147 4.971007-3.667283 6.216797-4.253906 3.885975-1.829841 10.565767-1.214356 17.648438-4.644531.602298-.291697 1.665325-.708167 2.914062-1.488281 1.248737-.780115 2.904573-2.114007 3.693359-4.386719 1.7319-4.990073-.509838-9.16106-2.714843-12.048828-2.074043-2.716272-4.768444-3.581496-6.72461-4.148438-1.134901-.328921-2.588166-.799353-4.261718-.9531247z" fill="#433f3c"/><path d="m-90.9052 40.932179c.10429.13716 7.05224-6.104647 11.21954-8.066961 5.488-2.584208 12.14181-1.977975 17.60124-4.622006 1.57135-.761014 3.61235-1.500501 4.18481-3.149918.85858-2.473802-.41098-5.51557-2.00013-7.596788-.99674-1.305381-2.68866-2.008076-4.26616-2.465272-2.0852-.604341-4.54002-1.178974-6.50777-.261777-9.99208 4.657459-15.74656 16.79664-20.23153 26.162722z" fill="url(#d)"/><path d="m-87.964844-4.0136719c-.846552-.1318596-1.78844-.1442931-2.833984.029297-4.693961.77933-7.585997 4.03125944-9.220702 7.4765625-3.40002 7.1658884-2.87851 15.0039134-.76758 22.5136714.004.07099.008.115196.0137.214844.021.373216.0501.927662.084 1.591797.0678 1.32827.15401 3.106515.24023 4.886719.17244 3.560407.33985 7.125.33984 7.125l9.248052 1.365234s1.185965-3.349846 2.423828-6.673828c.478165-1.283995.920366-2.413745 1.337891-3.470703l.601562.03125 1.003906-3.705078c.272986-1.007411.834704-1.794692 1.955079-3.06836 1.120374-1.273667 2.838285-2.918546 4.0625-5.589843 1.154689-2.519582 3.993575-6.538895 2.847656-12.0390628-.906207-4.349586-3.992401-6.53601536-6.023438-8.0214843-1.08704-.795042-2.772843-2.2704369-5.3125-2.6660157zm-12.773436 30.2304689c.0227.07955.0336.160762.0566.240234-.0112-.04011-.0308-.09497-.0352-.115234-.0178-.08301-.0128-.07606-.0215-.125z" fill="#433f3c"/><path d="m-95.716 5.533468c-2.83084 5.966289-2.43173 12.724448-.34433 19.808428.0371-.0019.70911 14.257198.70911 14.257198s4.78252-13.497054 5.26116-13.472814c1.12347-4.145994 4.71334-5.972171 6.28327-9.397836 1.30877-2.855792 3.1555-6.007129 2.51477-9.082496-.45055-2.162538-2.38875-3.845011-4.17173-5.149055-1.3161-.962572-2.94659-2.050016-4.55511-1.782956-2.45383.407405-4.63086 2.572242-5.69714 4.819531z" fill="url(#e)"/><path d="m-73.371094-4.2226562c-3.439688.013721-7.44455 1.6432198-9.277343 4.80273432-4.064245 7.00507588-9.343361 14.81622188-12.023438 24.24414088l.146484-.429688-7.140629 18.283203 12.767583 3.828125 9.273437-13.896484c6.083122-5.575781 13.010666-10.087623 19.953125-14.888672 1.748389-1.209214 3.249591-2.585991 4.097656-4.615234.848066-2.029243.588194-4.2199129.195313-5.5820315-1.074782-3.7262613-3.62338-6.1185206-6.900391-8.21289062-3.237028-2.06832548-7.001933-3.41080548-10.925781-3.53124998l-.08203-.00195z" fill="#433f3c"/><path d="m-78.52861 2.969814c-4.16957 7.186613-9.15162 14.679216-11.56145 23.156466l-5.26116 13.472815 4.44602 1.333084 7.70053-11.540967c6.55653-6.082189 13.85053-10.765631 20.82402-15.588139 2.70415-1.870234 2.92251-3.23469 2.42483-4.960144s-2.34982-3.896916-4.88752-5.518785c-2.53793-1.621631-5.68404-2.697956-8.50784-2.784634-2.56711.01024-4.1866.722233-5.17743 2.430304z" fill="url(#c)"/></g><g><path d="m-98.61065 30.433962-3.16454-3.654225c-3.31715-1.263146-8.99654-2.735688-13.58577-2.421605-3.76388.257597-7.33081 1.930244-10.76795 3.485618-1.44742.654984-4.0957 2.4375-4.0957 2.4375 2.38503 3.999577 4.77072 7.998768 7.15625 11.998047l3.95508-2.591797c4.11172-2.447243 8.53639-1.836762 12.80948-.0278l5.23354-.66967z" fill="#1f1914" stroke-width="1.15172"/><path d="m-100.90808 32.808068c.0833-.191929-2.42489-1.79699-3.81857-2.324338-2.80793-1.062479-5.67452-1.62568-8.86646-1.583053-3.19195.04263-6.71192 1.018935-10.09924 3.034901l2.27718 3.817144c5.15708-3.069432 10.15032-3.365421 15.53338-1.086565l4.81153 4.323874z" fill="#2a2422" stroke-width="10.9701"/><path d="m-114.45313 7.9628906c-2.61564 3.8554244-5.23279 7.7098204-7.8496 11.5644534 0 0 2.66102 1.738693 3.94531 2.673828 2.95914 2.154652 6.03293 4.20487 8.65429 6.759765.95259.928438 1.82369 1.957675 2.53641 3.080822.5323.838831 1.2752 2.693822 1.2752 2.693822l4.5673-.501206c.81065-.880029 2.318357-3.632575 2.71357-3.800413l2.791713-.567184s.187708-3.076677-.241393-4.524882c-.640851-2.162855-1.909036-4.152393-3.379123-5.86338-3.078897-3.583426-7.270147-6.043989-11.074217-8.845703-1.27729-.9407269-3.93946-2.6699224-3.93946-2.6699224z" fill="#1f1914" stroke-width="1.15172"/><path d="m-100.19751 26.27368c-.73164-1.30831-1.68913-2.497062-2.74082-3.565208-3.05954-3.107427-6.72489-5.747623-10.24676-8.133636l-2.50031 3.683794c3.52901 2.390775 5.52586 4.454305 8.15401 6.836067 1.2698 1.150758 2.6885 2.194259 3.67351 3.596544 1.16774 1.662433 2.53366 5.543134 2.53366 5.543134.34858-1.230345.58671-2.453445 2.71357-3.800413 0 0-.862428-2.864869-1.58686-4.160282z" fill="#2a2422" stroke-width="10.9701"/><path d="m-84.715881 45.735032s3.134951-1.189016 4.329614-2.305311c1.018292-.951494 1.299794-.854222 2.210466-3.548828.730533-2.161648.373129-3.946096-.277344-5.482422-1.108522-2.618144-2.905389-3.853449-3.917969-4.671875-1.721702-1.391582-3.641009-2.461795-5.646484-3.224609-2.018556-.767789-4.236287-1.305307-6.128975-1.367441-1.892687-.06214-4.107984-.231818-6.632727 1.058813-2.16679 1.10766-3.4142 2.750812-4.27343 4.267578-.90385 1.595532-.63042 2.790374-.82906 4.20522-.23224 1.654225-.51431 3.85107-.42201 4.993544z" fill="#1f1914" stroke-width="1.15172"/><path d="m-88.00112 42.797611s2.73606-1.78817 3.938-2.885126c.51123-.466573 1.1531-.900449 1.3747-1.556146.22472-.664947.12269-1.453917-.15097-2.100263-.49265-1.163557-1.54312-2.032268-2.52582-2.826543-1.29664-1.048022-2.78722-1.883777-4.34552-2.476501-1.6118-.613073-3.33733-1.016517-5.06086-1.073087-1.29225-.04241-2.68782-.03449-3.83906.554017-.98055.501254-1.75463 1.41593-2.29743 2.374106-.40025.706553-.57378 1.543049-.63062 2.353104-.09 1.282649-.0461 3.795459.46844 3.828859 0 0 4.94979.06586 7.28746.774945 2.08256.631699 5.78168 3.032635 5.78168 3.032635z" fill="#2a2422" stroke-width="10.9701"/></g></g><g><path d="m-101.32422 34.234375c-6.19385.318597-12.56407 2.111766-17.78906 5.453125-8.73134 5.583652-15.77899 14.063748-20.74219 23.162109-4.81023 8.817944-9.00633 19.061392-7.99219 29.054688.74121 7.303844 4.13485 15.198013 9.98829 19.628903 7.68933 5.8206 18.73563 5.51735 28.3789 5.62891 10.669682.12343 22.430681.0647 31.535158-5.5 5.530235-3.3801 9.707663-9.35875 11.708984-15.523438 2.434459-7.498882 1.091151-15.913517-.435547-23.648438-1.563808-7.922935-4.374095-15.815314-8.791016-22.576172-3.401352-5.206356-7.713104-10.25845-13.201171-13.183593-3.795783-2.023155-8.364544-2.71705-12.660158-2.496094z" fill="#433f3c"/><path d="m-116.5486 43.70062c-8.06991 5.159068-14.52483 13.041595-19.13192 21.438871-4.38475 7.992033-8.27916 17.244103-7.42617 26.319955.56691 6.032022 3.26566 12.626364 8.10849 16.266914 6.92243 5.20387 16.89712 4.60075 25.55709 4.67308 9.805215.0819 20.643445.2882 29.02125-4.80703 4.586147-2.78921 8.018015-7.780386 9.64406-12.895894 2.148322-6.758583.831902-14.315145-.56555-21.267904-1.47428-7.335-4.049977-14.646714-8.11887-20.925235-2.950393-4.552616-6.657859-9.018825-11.44498-11.571198-3.044004-1.622986-6.720319-2.126-10.16506-1.942148-5.38542.28743-10.93444 1.805693-15.47834 4.710589z" fill="url(#b)"/></g></g><path d="m80.56487 68.014481c-.111351 1.790354 2.042403.0698 3.064877.43601 1.346824-.242665 3.065462-.338139 4.14499-.735156-.516307-1.964398-2.554253.386088-3.896619-.108395-1.125288.04615-2.171854.507145-3.313248.407541zm-5.508382.893608c-.04227 1.796839 2.54068.177048 3.694704.298571 1.387688.526526.753743-1.703108-.24993-.834476-1.161521.10339-2.292122.487425-3.444774.535905zm.713386 1.975793c-.273812 1.738978 1.98115.416075 2.740145.425196-.195449-1.635998-1.716892-.09411-2.740145-.425196zm3.515622-.556411c.167377 1.397086 1.473081.64809 2.609883.628199 1.594794-.46372 3.282432-.269337 4.871765-.747516.671038-.29047 1.918299.01078 1.254705-1.197556-1.222299-.0924-2.660169.816765-4.029408.65734-1.599766.121339-3.117143.377133-4.706949.659601zm-2.766314 2.723056c.07333-.174739.05591 1.506547.697757.667979 1.482192-.139443 3.058529-.475568 4.5876-.427297.885741-.251916 2.783413.0817 1.647741-1.332057-1.735637.0977-3.392118.599299-5.120819.746787-.586549.218573-1.226427.145174-1.812279.344588zm11.927144-1.956194c-.863465-.220983-2.641323.400682-1.42525 1.277601.666805-.569811 2.379513.07111 1.42525-1.277601zm-2.946643.521418c-.708668.05923-1.363943.254865-.69898 1.123411.428054-.534407 1.722486.399632.821754-.854335zm-6.586152-13.121129c-.214367.0019-.404633.03954-.556038.118856-1.853575.0474-2.496143 2.454979-1.256771 3.714502.02027 1.309337 2.701898 1.09404 1.53479 2.334741.338655.924755 1.149313.532126.879533-.268717.845515-1.067771.0069 1.484555 1.089856.906405.891249.123976-.483601-2.076045.672311-.958082-.125211 1.149976 1.790506 1.034841.794266.07286-.773858-.571809-.101614-1.070827.256832-.226859 1.008397 1.209941 1.39586-.632127.179834-.744141-.385496-.816931.706009-2.585053-.640788-3.418913-.642247-.873137-2.024899-1.538718-2.953825-1.530656zm2.128553 3.138827c1.488358-.01872.564732 2.298032-.431498.935343-.138128-.385981-.341794-.852473.280086-.926041.05311-.0057.1034-.0087.151412-.0093zm-2.251542.24908c.0088-.000203.0177-.000032.02635 0 1.196339.0044.960532 2.170961-.271302 1.127063-.39406-.315176-.199606-.772187.04909-1.104842.06902-.01335.134223-.0208.195854-.02222zm1.319299.5271c.507852.599021 1.559585 1.101644.250114 1.348238-.639856-.225947-.14228-1.138999-.250114-1.348238zm-10.703547.815592c.437384.244322-1.422364 1.674388-1.480992 2.590957-.833403 1.090647.615437 2.759664.513992 4.135417.460839 1.57069.768834 3.188892 1.493813 4.633288.820615 1.481612.437636 3.168024 1.091667 4.683952.384276 1.596373 1.034965 3.085012 1.447397 4.652506.457919 1.010262-.51242 2.887157 1.092094 2.199027 1.185773-.09579 2.959124.05099 2.085753-1.580607-.762844-1.849171-1.05993-3.861889-1.682936-5.759646-.407128-1.31408-1.180539-2.560537-1.360463-3.975757-.559919-1.668201-.671653-3.441891-1.23693-5.119711.0037-.814159-3.191626-.501994-1.34938-1.14892 1.173942-.592678 2.049204-1.200877 3.143602-1.861932-.724697-.474944-2.965636.619532-2.855561-.808653-.409738-.845712-.226824-1.909087-.902056-2.639921z" fill="#433f3c" fill-opacity=".298305" stroke-dasharray="2.38125 .396875" stroke-width=".396875"/><path d="m80.056641 55.185547c-1.329324.04022-2.623428.377416-3.919906.644747-.757639.170957-.02169.688588.439172.298091.793606-.131004 1.079674-.325672 1.554861-.300262.441325-.375567 2.346266.135331 1.925873-.642576zm.457031.0098c-.08687.801104 1.962273.566899 2.327404.61568.134991-.57201-1.904566-.496536-2.327404-.61568zm2.769531.50586c-.353818.564852.475586.457292.798666.683574.424904.170314.832965.381511 1.222818.621115.497311-.455314-.340946-.586871-.649704-.803128-.439594-.210672-.900355-.377831-1.37178-.501561zm-7.888672.355469c-.749417.28554-1.504496.564865-2.2266.916055.116188.679823.71348.0014 1.109425-.05669.336334-.328287 1.594204-.179139 1.117175-.859365zm10.455078.828125c-.555267.469045.442981.638246.65589.996863.281746.719094 1.712273 1.055426.787456.177966-.446528-.431556-.929606-.826027-1.443346-1.174829zm-13.041015.271484c-.721729.384915-1.397063.888875-1.894625 1.545007.406761.560533.648117-.337722 1.042974-.509767.250804-.402724 1.409396-.473038.851651-1.03524zm15.154297 1.599609c-.39633.462859.564754 1.703458.588795 2.32989.639727-.179242-.10344-1.276566-.161059-1.826026l-.210202-.254125-.217532-.249782zm-17.265625.304688c-.226966.749183-1.625137 1.549691-1.098349 2.130623.339797-.490336 1.475733-1.440221 1.289384-2.014261-.06368-.03879-.127357-.07757-.191035-.116362zm-1.617188 2.230469c-.510981.616027-.901841 1.311445-1.320356 1.988279.498072.573533.643588-.505806.93985-.788115.114533-.359852.812597-.776246.558513-1.06397-.05934-.0454-.118671-.0908-.178007-.136194zm19.863281.111328c-.734588.05443-.03474 2.385315.466564 2.330951.260456-.447899-.480844-1.692197-.466564-2.330951zm-21.412109 2.199183c-.475923.662601-.988761 1.361248-1.097638 2.191454.505517.259495.413149-.297818.572248-.585948-.04516-.500493 1.300981-1.35319.52539-1.605506zm22.130859.466797c-.78338.12584.09588 1.156702.06661 1.725514-.120002.62454.7289.946584.458888.193917-.196009-.695441-.274001-1.245554-.525502-1.919431zm-23.257812 2.146485c.07915.732043.186794 1.98958.704873 2.317401.432468-.437573-.50067-1.54834-.30843-2.260807.02536-.129314-.315602-.0212-.396443-.05659zm23.970703.554687c-.799114.02199-.03443 1.038546-.115234 1.562499.04485.361385-.01295 1.155367.486382.753909-.088036-.77736-.180931-1.555249-.371148-2.316408zm-22.931641 2.074219c-.757297.05486-.03268.93918-.08594 1.433596.156396.358308.05004 1.248705.634769.886718-.247575-.759758-.315877-1.559017-.548825-2.320314zm23.396485.654297c-.850326.248234.37242 1.53579.408812 2.171163.813517.501528.02487-.981654-.137386-1.375642-.102858-.260781-.197606-.525298-.271426-.795521zm-22.734375 2.042969c-.821801.189351.196678 1.336999.167829 1.973638-.06384.673097.774113.370628.37138-.154318-.156484-.613066-.356818-1.213793-.539209-1.81932zm23.71875.539062c-.752327.208176.192129 2.13619.427573 2.363068.548827-.08004-.479947-1.888376-.427573-2.363068zm-22.990235 2.166016c-.720421-.06134-.166418.788769-.199264 1.214597-.121906.857729.814915 1.840929.477479.424142-.09759-.545364-.186864-1.092261-.278215-1.638739zm23.740235.517578c-.91856.19137.304541 1.900747.324359 2.381549.721041-.07833-.386284-1.871777-.324359-2.381549zm-23.246094 2.205078c-.683893-.03916-.170104.676455-.141663 1.062643-.0026.703715.956849 2.032021.624007.673594-.191621-.564057-.352012-1.147718-.482344-1.736237zm23.972656.478516c-.717434-.01933-.120519.731331-.0766 1.116091.188271.374774.186615 1.042974.44802 1.248372.59988-.04315-.000335-.788485-.0042-1.165258-.13312-.396774-.264888-.792986-.367237-1.199205zm-23.191406 2.164062c-.81718.178087.15781 1.257223.142157 1.884348-.127685.629668.739164.627939.412547.018-.1492-.645278-.347706-1.273726-.554704-1.902346zm23.960937.507813c-.758415.12154.03895 2.160138.398937 2.356755.522085-.230912-.482499-1.818348-.398937-2.356755zm-23.25 2.208984c-.686066-.0916-.225744.68664-.232278 1.073604-.05286.750496.86571 2.061063.549603.628537-.138859-.549969-.249813-1.130179-.317325-1.702141zm23.97461.425781c-.752467.195958.318818 1.378578-.672686 1.64199-.56172.08962-.09882.763097.254123.310715.728861-.367376.85239-1.288824.418563-1.952705zm-1.328125 1.902344c-.751183.243834-1.540506.294596-2.314455.427731-.0084.821391 1.230004-.000968 1.708424.136618.343014-.137098.945888-.01921.606031-.564349zm-22.060547.359375c-.857651.177715.289507 1.44922.148732 2.05456.357893.940653.614597-.456291.191022-.86715-.107904-.398508-.226977-.789974-.339754-1.18741zm19.351562.132812c-.787546.131293-1.570814.288237-2.347643.4727-.03993.706102.697852.144978 1.092707.164406.380718-.185277 1.236566-.01949 1.292162-.418308-.01241-.07293-.02482-.145865-.03723-.218798zm-2.728515.5625c-.665823.303599-1.986559-.212689-2.333458.295161.269352.557415 1.630316.0524 2.274966.120894.289232.0374.04005-.272831.05849-.416055zm-2.757813.164063c-.76283.083-1.377581.587609-2.152341.632805-.433824.537867.537842.351998.908526.209002.429761-.1462.827037-.429086 1.304363-.45118-.02018-.130209-.04036-.260418-.06055-.390627zm-2.666015.732422c-.774947.142436-1.554796.261709-2.339844.332032-.02223.837157 1.229247.112096 1.801098.164726.36147-.08882.786995.02712.538746-.496758zm-2.71875.332031c-.668626.228514-2.428542-.440218-2.365235.490264.565397-.31094 2.530966.415256 2.365235-.490264zm-2.78711.119141c-.797132.07207-1.601997.03534-2.396482.11926-.0201.793866 1.197787.111422 1.673876.320245.363875-.09012.94807.179442.722606-.439505zm-2.798828.203125c-.706605.116396-1.451135.530348-2.160139.273193-.565846.522832.490935.531232.838595.441286.389542-.176505 1.333475-.07798 1.372968-.499385-.01714-.0717-.03428-.143396-.05142-.215094zm4.607422-28.964844c-.390677-.07365-1.141578.248725-.62305.519611.339474-.126675.793345.0033.62305-.519611zm.306641.01563c-.250082.507185.284349.410037.60352.544921.48834-.273511-.131033-.532992-.507813-.53125l-.08627-.01232zm-1.527344.224609c-.400967.05722-1.043044.630621-.404256.695264.252003-.29249.747754-.205635.404256-.695264zm2.722656.128907c-.410869.439359.223811.493598.494151.732438.536695-.443068-.203199-.514207-.494151-.732438zm1.050781.652343c-.50733.312296.06626.512326.242157.819412.457038.0035.200179-.557686-.134743-.72762-.03496-.03158-.07265-.06-.107414-.09179zm-4.789062.02148c-.304566.28446-.462468 1.131137.07427.783211.05785-.377032.492214-.591834-.07427-.783211zm5.669922.820312c-.508791.156592-.04944.694187.07958.859787.607793.05915.08061-.647468-.07958-.859787zm-6.070313.392578c-.219926.461004.335244 1.241309.421875.560544-.06056-.364148.09448-.647727-.421875-.560544zm6.09375.837891c-.127566.386091.0016 1.17472.349876.645432.0032-.365983.246652-.795181-.349876-.645432zm-1.330078.04492c-.328642-.01861-.751696.142658-.76565.5235.262824.07986.368787.01435.558681-.10563.249702-.04417.578686-.04292.7344.1933.675726-.156144-.0049-.625191-.369146-.605455-.292083-.116543-.09041.405689-.158285-.0057zm-4.171875.208984c-.607371.05949-.180201.508355.04303.765623.875588.03697.0372-.381914-.04303-.765623zm1.927735.03906c.16941.218774-.454109-.190209-.542962.402389-.168107.451235.460319.201342.566439-.0059.312595-.08134.455389.431316.704304.115012.339022-.191208-.539551-.589456-.727781-.511452zm1.464843.591797c-.552406.205103-.119619.417968.222102.768256.178245-.06371.755525.17168.563024-.317027-.313685-.510797-.410901-.228256-.785126-.451229zm1.365235.04102c-.0246.332709-.487921.574126-.08208.814501.29332-.148586.465827-.475388.48046-.796875-.132794-.0059-.265589-.01175-.398383-.01763zm.628906.238281c.000817.263902-.180519 1.038716.286406.791121.130008-.112116.257608-.959761-.238448-.785899zm-2.457031.0293c-.497575-.148779-.29597.298128-.562485.49612.097.88827.688998-.131974.562485-.49612zm-2.400391.06836c-.653764.181214.0067.60776.310533.779303.515419-.422819-.144414-.409761-.310533-.779303zm1.140625.01367c-.68699-.0471-.185969.531524.128931.67385.447369.128208.285047-.472686-.07811-.572244-.02159-.03155-.04138-.06415-.05082-.101606zm1.34375.148437c-.0837.239928-.09511 1.086927.250314.816525.289494-.144739-.01185-.48291.138535-.742313-.129616-.02474-.259233-.04948-.388849-.07421zm1.232422.333984c-.208986.299503-.82913.273638-.579885.727041-.01584.06268.604221.271208.29082.345332.159837.240093.671262.507409.662204.04304-.385929-.414644-.778709-.354929-.292985-.830073.0082-.101291-.0289-.199945-.08015-.285342zm-2.847656.125c-.434337.361811.262847.63459.488271.672453.615585-.259438-.292937-.523329-.488271-.672453zm4.61914.05859c-.297891.320755.136074.821056.444649.786628.315659-.03451-.06653-.563219-.243526-.675317-.06475-.04082-.130087-.08216-.201123-.111311zm-.986328.207031c-.511674.01464-.42197.660087-.0058.39464.09663.297619.7102.08583.402278-.181455-.102829-.111583-.240693-.20482-.39646-.213185zm-2.085937.392579c-.575973.09911-.24633.500349-.04684.591789.605212.205063.44066-.55977.04684-.591789zm2.246093.208984c-.534802.273694.02948.425504.105484.767653.653559.200917.108235-.512749.652358-.12695.405452.135184.651229-.316658.175686-.3924-.237129.05985-.396403-.375285-.55522.004-.09989.125291-.251499-.198088-.378308-.252346zm-3.33789.05469c-.193495.287187-.426052.524531-.117205.83989.244194-.104861.712864-.749495.248657-.802315l-.08379-.02395zm2.326172.242188c-.548813-.05805-.270147.346363-.341882.671938.524911.72351.443889-.369089.341882-.671938zm-2.177735.265625c.0018.02975-.07949.05875 0 0zm.503907.02539c.03467.317097-.365681.205249-.325359.510387.01789.433904.855309-.09285.723692-.492734-.09692-.03457-.27475-.0083-.398333-.01765zm2.1875.02148c-.568774.189512-.07279.564169.279293.605464.58739.06104.148633-.52202-.21289-.527488l-.03516-.03711zm-1.365235.132812c-.564977-.151123-.389877.461793-.0898.64653.389743.292208.578126-.272495.218761-.341817-.111174-.02691-.101159-.221987-.12896-.304713zm-10.675781-1.824213c-.462801.667558-1.02601 1.2997-1.501937 1.990277.525964.54767.715695-.637411 1.144578-.837878.310045-.658328.520528-.355065.582011.226566.616393.06814.270162-.520731.147533-.848865-.09971-.189088-.209262-.390657-.372185-.5301zm.689453 1.691406c-.640862-.07901-.25283.575506-.187824.93051.128073.422599.135972 1.022712.709257 1.100717.5087.238672.455526-.522277-.02931-.429691-.32282-.207423-.126168-.668623-.3524-.954818-.06209-.211864-.100957-.429625-.139723-.646718zm-2.388672.683594c-.19746.548451-.492268 1.109439-.29106 1.716803-.07394.434105.457095 1.014204.52734.42969-.221189-.574068-.285475-1.255039.07314-1.775926.168719-.298105-.109695-.262669-.309419-.370567zm4.69336.912109c-.479708-.2365-1.602343.329172-.741355.452796.94278-.245527.68908.01728 1.00877.345168.350297-.235591 1.129928-.498467.347775-.711937-.195702-.07481-.408039-.08435-.61519-.08603zm-.353516.716797c-.667233.419116-1.336615.837249-2.037109 1.199217.142322.711289.752214-.0663 1.133295-.177323.320996-.255008.953457-.445822 1.068597-.757935-.05493-.08799-.109855-.175973-.164783-.263959zm-3.925781 1.037109c-.690055.04287-.0669.692737-.06641 1.097657.112806.441544.04487.90005.23047 1.326171.677731.01001.11393-.66183.220753-1.072691-.06472-.465803-.226825-.910548-.384816-1.351137zm1.542968.316407c-.503167.02807-.75024.729817-.104936.765314.475263.121879 1.00082.12399 1.427159.389008.563126-.398195-.252449-.551585-.595696-.630902-.50587-.112645-.641527.01507-.726527-.52342zm1.810547 1.283203c-.716812.04492-.04643.804926-.06967 1.240514.213167.358324-.02691 1.371811.589154 1.104854-.02393-.704166-.307319-1.606562-.519481-2.345368zm-2.703125 1.101562c-.823287.175842.137861 1.39593.153681 2.031556.209397.777303.689155.01455.279383-.448715-.155671-.524446-.289906-1.054925-.433064-1.582841zm3.345703 1.625c-.710443-.05116-.148814.751651-.164061 1.156248-.02073.713756.906559 1.950417.544921.539071-.153565-.55887-.267951-1.127155-.38086-1.695319zm-2.566406 1.021485c-.710129.07131-.02903.773934.06545 1.166268.304865.29263.227526 1.1148.60779 1.114736.464002-.134502-.120837-.886859-.224025-1.234129-.169388-.339973-.315693-.691422-.449217-1.046875zm3.201172 1.68164c-.691637-.07189-.188227.648695-.131382 1.015987.154427.456534.345376.899313.531735 1.343393.678886-.07498.05751-.671645-.0055-1.058055-.162485-.423307-.308008-.855564-.394854-1.301325zm-2.232422.949219c-.693734-.0748-.19526.712822-.25551 1.117182.1318.375908-.04264 1.253372.370619 1.278921.445425-.112-.05429-.855179.03182-1.245794-.04439-.383933-.0805-.769373-.14693-1.150309zm3.152344 1.623047c-.729509.08934.02324.793671.02274 1.223616.217451.313132.114941 1.150701.509111 1.120573.453301-.128342-.112892-.840586-.122124-1.216584-.117381-.382611-.25913-.757027-.409723-1.127605zm-2.722656 1.089844c-.701895.03008-.05776.712106-.06835 1.125.167956.375445.197482 1.063623.479069 1.245626.596317-.07351-.04815-.766321-.03839-1.145757-.121974-.410102-.208678-.828376-.372327-1.224869zm3.570312 1.582031c-.829582.177597.137424 1.429395.126957 2.084032.195798.721315.665501-.03621.285149-.466844-.140806-.538184-.271413-1.078982-.412106-1.617188zm-2.738281 1.064453c-.845639.240285.252466 1.426177.275496 2.124317.287004.645948.595419-.190599.242082-.573536-.164961-.519433-.341974-1.03488-.517578-1.550781zm3.447266 1.615234c-.713325-.0021-.09755.713808-.05189 1.097498.103672.404823.414421.758503.395668 1.189615.721052.267958.271772-.653427.115601-.963676-.173287-.433647-.324485-.876468-.459382-1.323437zm-2.595704 1.048828c-.610367-.0552-.237696.540753-.335988.910161-.03683.518067-.132313 1.476602.63676 1.455056.06915-.310814-.08636-.348262-.2188-.533315-.109984-.602627.07419-1.230756-.08197-1.831902zm2.832032 1.464844c-.647187.45889-1.51333.189838-2.22274.42584.05147.695102.940211.141598 1.419967.24415.376518-.04764.786312-.113596 1.074215-.38282-.09048-.09572-.180961-.191447-.271442-.28717zm11.333984-18.845703c-.525629.02911-1.00364.276156-1.486324.462922.07767.703253.715634.01788 1.128716-.0025.313736-.113786.756633-.102234.906438.254424.716277-.121967-.02743-.730651-.412144-.710924l-.06836-.0039zm-1.845703.599609c-.664918.316464-1.366508-.03274-2.050787.18745-.637984.169007.0556.624207.470711.330042.568425-.03637 1.156893.132618 1.705092-.1406-.04167-.125631-.08334-.251261-.125016-.376892zm2.544922.244141c-.709085.230264-1.451614.326106-2.1875.42773-.09786.673604.65578.232788 1.042962.247188.528499-.08746 1.053696-.207147 1.554697-.399539.05496-.404789-.686892.139932-.410159-.275379zm-5.251953.07227c-.582865.119228-1.177856.233178-1.775396.17969-.215778.204248-.342539.689123.03717 1.048799.525384.389541 1.19857.03879 1.755852-.08992.0093-.657468-.592187-.159357-.970703-.1543-.290855.11598-.708976-.04237-.630963-.39663.560696.01929 1.115428-.08716 1.66211-.1992-.02602-.12948-.05205-.258959-.07807-.388439zm2.671875.408203c-.660162.08257-1.307679.230499-1.968785.16785-.579371-.154207-.440967.698375.04492.394479.661303.06766 1.311555-.08738 1.976558-.16989-.01757-.130813-.03513-.261626-.0527-.392439zm-6.09961-.07422c-.399839.119963-.757453.300888-1.195296.303716-.71157.218862.09845.595843.536114.322393.342459.05768.73018-.499841.995099-.03618.209719.444205.679943-.09231.223221-.355741-.142719-.152282-.348879-.245217-.559138-.234191zm-1.878906.433594c-.662841.131139-1.326899.275232-2.003906.30664-.1802.211601-.292923.683876.107451 1.031246.51095.391149 1.199454.166768 1.763672.03519.02201-.667857-.624737-.15201-1.019532-.214853-.291262.06326-.690917-.1756-.609458-.469.620495-.05002 1.230372-.179545 1.839844-.30077-.02602-.129484-.05205-.258969-.07807-.388453zm2.279297.585937c-.268369.276394-.710511-.144779-1.045413.03937-.350332.147488-1.309958.02815-.994834.596943.496783-.0019 1.161398-.387321 1.727634-.147972.356504.0763 1.04893-.320306.312613-.488339zm-1.507813 1.353516c-.481575-.160922-.767384.541435-.228519.433622.293743-.124242.66166.0079.68561.35556-.561174-.121784-.643525.689391-.08167.423421.59357.08156.608812-.301234.384395-.759321-.120628-.303205-.439695-.479084-.759816-.453282zm-.9375.228516c-.337634.101225-.704759.226978-1.056637.12107-.285526.173399-.409401.642107-.09373 1.039057.481958.463503 1.208723.171022 1.765631.02738.0055-.651739-.587731-.154607-.973292-.18338-.300281.09071-.654594-.113497-.577549-.45343.321285.003.908391-.0097 1.027017-.255051-.03048-.09855-.06096-.197097-.09144-.295646zm10.904297-1.765625c-.487051.236948.22272.365833.218807.699204-.01412.454449-.725245.286799-1.021569.42585-.05312.665093.678768.234544 1.046925.181598.57905-.19389.399698-1.064391.0262-1.299307-.09007-.0058-.180097-.0091-.270365-.0073zm-.560547.05859c-.781959.137608-1.524047.444011-2.308596.57032-.08144.682244.645641.208579 1.023246.169426.448718-.125363.894556-.266138 1.35371-.349108-.02279-.130213-.04557-.260425-.06836-.390638zm-3.232421.603516c-.613817.04586-1.225908.114014-1.835942.19535-.103871.685536.661537.223248 1.049611.274593.453279-.06634.906793-.06316 1.362496-.06176.07397-.57247-.178459-.332097-.576165-.408179zm-2.228516.25c-.787906.110563-1.57197.246758-2.355469.384753-.08877.265608-.533342.394023-.107418.882813.445555.602605 1.279008.345568 1.894524.24805.07902-.662823-.591741-.20823-.976565-.259785-.285049.11631-.848164-.295182-.619311-.501577.738094-.129564 1.477017-.255556 2.218878-.361723-.01821-.130844-.03643-.261687-.05464-.392531zm4.832031.332031c-.753744.210276-1.537734.27639-2.31445.34183-.06727.807893 1.099596.160706 1.613285.218761.348767-.135097 1.067205.02071.701165-.560591zm-2.710937.376953c-.799833.02701-1.571216.259095-2.357418.3555-.124771.625407.515831.315899.859372.251831.504565-.111607 1.019431-.16462 1.533203-.21289-.01172-.13148-.02344-.262961-.03516-.394441zm-.341797 1.326175c-.577939.03402-1.153425.101306-1.72461.19531-.07556.712613.759785.170179 1.179324.244691.497927-.288353.440435.488851.779946.438134.568412.09988-.14575-.739424-.23466-.878135zm-2.121094.261719c-.778965.136474-1.554303.295746-2.337891.4043-.08866.706921.735475.192997 1.140264.216194.359143-.195259 1.343486.04221 1.221625-.487173l-.01544-.08577zm-2.728516.453125c-.757354.15123-1.533.232321-2.29297.38865.309074.533859-.177473.07657.02223.669594-.01334.4873.581251.882029.893872.381226.41483.08283 1.242135-.238602.610347-.469846-.363882.01819-.84609.08738-1.038088.262821-.194603-.354876-.131972-.659865.32805-.591826.520524-.01621 1.01061-.200082 1.523441-.24608-.01563-.131513-.03125-.263026-.04688-.394539zm4.820313.326172c-.713939.224946-1.490678.253548-2.234392.29691-.18158.618476.555302.369223.919958.324264.510933-.07986 1.067278-.03172 1.533202-.28907-.07292-.110701-.145845-.221403-.218768-.332104zm-2.640625.310547c-.797818.04198-1.589276.156801-2.380859.25977-.08729.717688.775741.183222 1.196574.245601.359455-.142977 1.133223.09275 1.197435-.282871-.0044-.07417-.0088-.148333-.01315-.2225zm-4.224609.111328c-.0025.01559-.04803.00073 0 0zm11.333984-2.365235c-.621815.02691-1.632529.268543-1.560593 1.0645.01013.339333.507754.05864.392552-.181657.343914-.469217 1.048926-.537848 1.58791-.44537.204749-.477624-.02796-.430542-.419869-.437473zm.820312.44336c-.319453.08072-.336072.208519-.289202.455077-.569043.250288-1.453245.02581-1.703177.710923.329714.324609.76205-.319867 1.225755-.19106.455257.03393 1.102656-.287053.834909-.826509-.02388-.04895-.04197-.100627-.06829-.148431zm-3.324218.123047c-.561866-.02824-1.425784.343832-1.08207 1.03906.176808.382306.376658.728886.705088.316414.502363-.342294-.170044-.365511-.339787-.470594-.219874-.370269.497235-.560462.649949-.395543.462164.248093-.02968.91776.467336.862325.598281-.248239-.07444-.861693-.194736-1.222096-.180321.04944-.207163.143184-.20578-.129566z" fill="#433f3c" stroke-dasharray="2.38125 .396875"/><g transform="translate(0 -1.630426)"><path d="m42.431641 81.356417c-2.904641.08679-5.521006 1.95848-7.984375 3.5-6.039333 3.779276-11.30986 8.744702-16.275391 13.853515-4.245934 4.368458-8.5633962 8.880938-11.4453125 14.248048-.7073425 1.31731-1.1959607 2.78762-1.3632813 4.27344-.1570522 1.39463-.2103339 2.91097.3554688 4.19531.9836904 2.23292 3.0220456 3.90272 4.964844 5.37891.864062.65654 1.95604.94484 2.896484 1.48633 1.721084.99096 3.127955 2.59568 5.013672 3.21875 2.299893.75992 4.840603.24166 7.25.49023 2.380589.24559 4.729113.759 7.111328.98828 2.156582.20756 4.32399.31332 6.490234.34961 2.371901.0397 4.74597-.26319 7.115235-.14453 2.014025.10087 3.989587.75998 6.005859.72656 3.162425-.0524 6.28026-.8076 9.376953-1.45117 3.148424-.65432 6.467949-.98321 9.332032-2.44531 1.960076-1.00061 3.695781-2.49762 5.10133-4.191 1.550656-1.86821 3.437154-3.9564 3.508045-6.38327.09339-3.19702-2.475444-5.92271-4.122562-8.66436-2.579932-4.29433-5.566084-8.3795-8.949704-12.073875-4.856374-5.302389-9.967755-10.620731-16.136719-14.314453-2.513008-1.504686-5.316404-3.128497-8.24414-3.041015z" fill="#32271b"/><path d="m74.015431 115.96462c-2.99129-5.10271-6.3827-10.02575-10.34554-14.41774-4.63466-5.136556-10.58247-10.046544-15.5354-13.765471-2.12111-1.592653-3.85364-2.219418-5.64121-2.193676-1.78758.02574-3.52334 1.127725-5.46046 2.621119-5.16636 3.981715-10.99503 8.499903-15.83122 13.457258-3.97877 4.07847-8.0501 8.27361-10.74445 13.29305-.4720602.87944-.7626802 1.86707-.9004702 2.85552-.0898.64424-.19953 1.35217.0556 1.95059.6617402 1.55248 2.1835502 2.62052 3.5515002 3.6097.76668.55439 1.72754.78075 2.54527 1.25675 1.46893.85504 2.60764 2.32447 4.22066 2.86066 1.99574.66341 4.20865.0982 6.30295.29166 2.38859.22071 4.74007.7604 7.1278.99019 2.0459.19689 4.10208.29644 6.15714.33188 2.42302.0418 4.84885-.26966 7.26881-.14077 1.91669.10209 3.79351.75297 5.71267.7224 2.90019-.0462 5.75232-.78324 8.59365-1.36605 2.80018-.57437 5.75028-.83516 8.31512-2.09652 1.05728-.51996 1.85764-1.44952 2.77644-2.18689.72505-.58188 1.58929-1.03102 2.15917-1.7654.63474-.81798 1.30896-1.78216 1.30708-2.81729-.002-1.28483-.98519-2.38238-1.63506-3.49097z" fill="url(#f)" stroke-width="8.46667"/></g></g></svg>