<svg height="500" viewBox="0 0 132.29167 132.29167" width="500" xmlns="http://www.w3.org/2000/svg"><g stroke-linecap="round" stroke-linejoin="round" stroke-width="2.33359" transform="matrix(-1.1338281 0 0 1.1337751 235.83873 -226.91079)"><path d="m152.29453 249.63374c.48684-3.15384.97367-6.39234 1.56634-9.60967.79478-4.85081 2.45949-9.70162 4.52963-14.55243 2.58233-5.03979 6.39233-9.39589 12.34017-12.40367-7.78934 1.2319-12.6365 5.98593-16.02317 12.27667-1.86879 3.45381-2.78029 6.90762-4.1698 10.36143-2.01083 6.45583-3.72905 12.77824-5.31283 19.2405-3.91628 15.97947-7.70438 24.69909-10.35054 48.25965l3.76767.4445c.61383-5.12233.50616-15.89744 3.08849-20.32127 1.28153-2.45017.57444-.63474 2.64583-4.78367 2.95907-5.92692 5.95215-15.52172 7.91821-28.91204z" fill="#d4aa00" stroke="#a80"/><path d="m161.6925 261.33859c13.92767-8.636 28.10933-16.8275 36.99933-34.77683v-.00004c-10.033 14.37217-22.67125 22.34457-36.6395 27.13567-20.88808 7.16459-27.43087 15.64839-33.401 26.543-4.99533 8.91116-9.80017 15.26116-14.89075 24.5745l3.35492 1.82033c4.953-9.0805 9.73666-15.45167 14.9225-24.61683 7.38655-9.85298 9.42784-11.27665 29.6545-20.6798z" fill="#c49810" stroke="#896910"/><path d="m196.10951 209.36195c-2.39183.0593-4.97414.31102-7.38714.77669-3.38666.65193-6.43477 1.76358-8.02224 2.93833-.1482.46778-.19066 1.10913-.16952 1.54305l-3.34396 3.43959c-4.86834 5.07788-9.41909 10.36489-13.67359 15.80472l-5.2705 7.02748c-2.05317 2.87867-4.04294 5.77876-5.94794 8.7421l-7.06985 5.31285c-.254-.0423-.52891-.0636-.78291-.0636-3.34433-.0212-6.28665 2.87845-7.04867 5.05861 2.56118 2.20134 5.37608 2.62468 7.68325 1.60868-.86783 1.54517-1.75678 3.11142-2.60345 4.67776-.762-.33866-1.54482-.50798-2.28565-.50798-2.413-.0212-4.61446 1.50281-5.94796 3.15381 0 0 .9669 1.7519 1.73271 2.35438.75668.5953 2.66392 1.11621 2.66392 1.11621-4.18164 12.34276-12.59112 23.70844-17.05425 33.82481l3.4711 1.52392c6.33679-13.01506 11.57112-20.59191 17.14521-33.50647l6.22289-11.26029 7.89511-12.50983c2.62467-4.0005 5.37668-7.89525 8.27649-11.72642 2.24369 4.7625 7.19632 5.63051 11.28149 2.30735-1.03717-3.83117-3.81011-5.03787-6.45594-4.97437-1.18533.0212-2.34916.31771-3.34396.74104 4.1698-5.3975 8.63565-10.58328 13.41932-15.61248l2.85771-2.88975c1.7145.75565 3.74626.76643 5.0586-.16278h.0212c2.83634-2.04047 6.62538-5.45253 8.67855-8.73125zm-5.67253 2.235c-3.02683 2.13148-6.14 3.08143-8.59533 5.3759l-.293-1.54667c2.81516-2.09762 5.39583-2.69258 8.88833-3.82923z" fill="#9ec20a" stroke="#758f0a"/><path d="m156.71833 254.22655c-1.16416.0423-2.58233.84667-3.4925 2.51884-1.2065 2.24366-.61383 4.42383.5715 5.05883 1.82034.78317 3.85234-1.05833 4.52967-2.286 1.2065-2.24367.61383-4.40267-.5715-5.05883-.29633-.16934-.65617-.23284-1.03717-.23284z" fill="#d45500" stroke="#a40"/><path d="m114.50777 238.07639c-.31538 0-.65193.0212-.97155.0212 1.98755 5.35517 4.12539 9.92717 8.63812 12.67883h.0212c3.00566 1.905 6.604 1.37584 9.7155.1905l-8.97467-7.4295 11.19717 5.92667c.3175-1.88383 1.41817-4.40267.27517-6.20183h-.0212v-.0212c-5.18584-3.3655-11.70517-5.10117-19.87974-5.16467z" fill="#919c16" stroke="#6d7510"/><path d="m156.21033 228.93239c-.0847.0212-.16933.0212-.254.0423-1.3335.254-2.54 2.13783-2.05316 4.6355.48683 2.49767 2.32833 3.81 3.64066 3.53483 1.3335-.254 2.54-2.13783 2.05317-4.6355-.46567-2.3495-2.07433-3.64066-3.38667-3.57716z" fill="#d45500" stroke="#a40"/><path d="m179.70533 227.49305c-3.34433-.0423-6.2865 2.89984-7.0485 5.05884 4.42384 3.81 9.5885 2.30716 11.70517-2.81517-1.524-1.5875-3.13267-2.2225-4.65667-2.24367z" fill="#9ec20a" stroke="#758f0a"/><path d="m137.96471 248.0674c1.9391.9801 3.89006 1.02358 5.63231.31618 1.87307-.76049 3.20096-2.26485 4.10435-4.46484-1.524-1.5875-2.93526-2.16994-4.65666-2.24367-1.60637-.0688-3.25967.71967-4.5085 1.7145l-3.01434 3.50831z" fill="#9ec20a" stroke="#758f0a"/><path d="m135.2765 237.0819c-1.29117-1.778-3.81513-3.24514-6.1595-3.45016-1.23594-.10808-2.32834.381-3.51367 1.22766 1.17505 2.0634 2.07921 3.08641 3.68985 3.82297 1.68797.77193 3.74769.60992 5.55999.30453l1.89079-.20289z" fill="#9ec20a" stroke="#758f0a"/><path d="m135.594 230.52024c-.0423 2.18016-.14817 4.36033-.3175 6.56166" fill="#d4aa00" stroke="#a80"/><path d="m135.61517 227.9379c-1.37584-1.50283-3.78685-2.88351-5.99017-2.80458-1.85768.0665-3.3655.81492-4.86835 2.71992 1.23087 2.30787 2.94267 3.71059 5.08641 4.17947 1.93639.42352 3.89875-.0674 5.75094-1.51247l1.29991-1.08128z" fill="#9ec20a" stroke="#758f0a"/><g fill="#d4aa00" stroke="#a80"><path d="m135.42467 221.91387c.127 1.99813.1905 4.0132.1905 6.02403"/><path d="m131.08814 213.27099c.10848.9181.36777 1.76477.75936 2.51513"/><path d="m131.23366 210.32724c-.21167 1.03611-.254 2.02565-.14552 2.94375"/></g><path d="m145.76319 219.77615c1.71321-1.22339 2.58355-3.1755 2.80602-5.65796-2.43295-1.34304-4.26715-1.0183-6.20268-.28513-1.24971.47339-2.17639 1.67427-2.87782 2.79126-.30343.60593-1.97988 2.92779-1.99147 3.75272l1.6528.2626s4.80396.42842 6.61315-.86349z" fill="#9ec20a" stroke="#758f0a"/><path d="m139.38287 225.11215c-.0423-1.49225-.127-2.9845-.23283-4.47251" fill="#d4aa00" stroke="#a80"/><path d="m139.42521 228.65757c2.09915.98303 4.10485 1.0119 5.88383.18389 1.96156-.91301 3.30099-2.6251 4.02217-5.09456-1.524-1.27635-2.82716-1.85374-4.40267-1.74836-2.11527.14148-4.27567 1.47108-5.54567 3.11361l-2.31762 2.58229z" fill="#9ec20a" stroke="#758f0a"/><path d="m139.21354 235.40974c.127-2.26484.21167-4.5085.21167-6.75217" fill="#d4aa00" stroke="#a80"/><path d="m146.32578 238.32117c1.96699-.44341 3.39801-1.94235 4.50826-4.03327-1.50283-1.905-3.0112-2.71701-4.86833-2.70933-2.58776.0107-5.588 1.9685-6.77334 4.23333 2.2188 2.6064 4.7081 3.05598 7.13341 2.50927z" fill="#9ec20a" stroke="#758f0a"/><path d="m138.53621 243.38957c.27516-2.39183.48683-4.78367.635-7.1755" fill="#d4aa00" stroke="#a80"/><path d="m131.8475 215.78612c-1.905-.7493-4.191-.62442-6.51935 1.32503.69297 2.36123 1.92341 4.07231 3.80711 4.97118 1.89277.9032 4.03802.94749 6.28941-.16846l2.07257-1.53683c-1.11695-1.76871-1.93776-2.59324-5.64974-4.59092z" fill="#9ec20a" stroke="#758f0a"/><path d="m139.48871 216.62432c-.23509-1.84004-1.08884-4.01139-2.63309-5.18114-1.52296-1.15362-3.65887-1.54576-5.62196-1.11594-.54066 2.10236-.0413 3.80999.61384 5.45853 1.1588 3.57297 3.41895 3.8727 5.64974 4.59127 1.82216-1.74506 1.88936-1.95819 1.99147-3.75272z" fill="#d4aa00" stroke="#a80"/><path d="m139.21353 235.40974c.127-2.26484.21167-4.5085.21167-6.75217l-.0423-3.54542c-.0423-1.49225-.127-2.9845-.23284-4.47251l.33867-4.01532c-.23507-1.84004-1.08883-4.01139-2.63308-5.18114-1.52295-1.15362-3.65887-1.54576-5.62196-1.11594-.42333 2.07222-.16933 3.95816.61384 5.45888l3.57717 6.12775c.127 1.99813.1905 4.0132.1905 6.02403l-.0212 2.58234c-.0423 2.18016-.14817 4.36033-.3175 6.56166l-.42333 1.905-1.43934 13.75834c-.4445 2.70933-.93133 5.43983-1.4605 8.1915-3.13267-3.81-6.2865-5.207-9.398-5.22817-7.95655-.0847-15.73953 8.72067-23.003934 8.86883 9.836154.6985 25.141764-9.3345 30.475764 2.45534-4.73055 10.80428-11.81575 20.06143-21.48628 24.89165l1.66793 3.429c7.05485-3.429 12.89685-9.12284 17.68052-15.494 6.45098-8.67068 8.25636-18.92787 10.07537-31.79199l.5715-4.67783c.27517-2.39183.48683-4.78367.635-7.1755z" fill="#abb30f" stroke="#70780d"/><path d="m127.0215 269.50889-1.905 4.84716c6.9215 3.048 12.827 6.58284 18.4785 10.13884l2.64583-4.78367c-6.75216-2.07433-13.12333-5.56683-19.21933-10.20233z" fill="#d38d5f" stroke="#a05a2c"/><path d="m149.3735 266.60908h-.0212c-2.64878.66425-3.81906 1.59688-4.77525 3.2731-.75285 1.31976-.52718 3.2624-.30465 4.54798l15.34573-2.31774-15.30327 4.30036c1.38708 1.65355 2.42056 2.98106 4.10445 3.76061 2.41408 1.11759 5.56849 1.56986 7.91799.99836 5.842-1.37583 10.43517-6.13833 15.24-11.7475-5.50333-2.51883-10.62567-3.7465-14.5309-3.6724s-5.81023.3704-7.6729.85723z" fill="#919c16" stroke="#6d7510"/></g></svg>