<svg height="500" viewBox="0 0 132.29167 132.29167" width="500" xmlns="http://www.w3.org/2000/svg"><g stroke-linecap="round" stroke-linejoin="round"><path d="m42.58965 12.570292c-5.157255 1.037543-.468906 4.977595 2.024449 5.91089 6.247265 4.021607 10.146238 10.699692 12.245946 17.680084 3.845959 11.380122 3.97758 23.585421 7.040073 35.162969 2.014174 8.718516 5.126579 17.216287 9.804606 24.863597 2.441087 6.863578 2.008503 14.282798 2.836342 21.425658.9273 2.94203 4.091303 1.41585 6.265568 1.38761 4.19446-1.06205 1.100955-6.49041 1.327646-9.51761-1.840759-15.162368-6.069574-29.866618-10.074468-44.561132-3.257499-12.630821-6.096604-25.531874-11.769039-37.348363-3.925046-7.635578-10.982777-13.824882-19.701123-15.003703z" fill="#a80"/><path d="m63.162912 56.117729c-.551992-3.575746-1.103974-7.247476-1.77596-10.895205-.901144-5.499728-2.788639-10.999455-5.135822-16.499183-2.927918-5.713988-7.247803-10.652826-13.991631-14.062972 8.831772 1.396698 14.327619 6.786698 18.16752 13.918983 2.118887 3.915844 3.152371 7.831687 4.727837 11.747531 2.279935 7.319459 4.228101 14.48765 6.023836 21.8144 4.440388 18.117125 8.735442 28.003213 11.735733 54.715587l-4.27189.50397c-.695978-5.80757-.573899-18.024126-3.501817-23.039754-1.453035-2.777942-.651316-.719653-2.999917-5.423606-3.355076-6.719795-6.748715-17.59814-8.977889-32.779751z" fill="#d4aa00" stroke-width="4.23333"/><path d="m10.581267 27.844296c-5.0660491 2.608682 1.909885 8.559244 3.367284 12.076191 9.568386 14.098376 24.252385 23.493301 38.725569 31.880945 10.5304 5.202484 22.524384 9.36501 29.552374 19.407522 4.410243 5.807014 7.599107 12.449326 11.753932 18.448876 3.681958 3.91614 4.720147 11.97165 10.078344 12.94761 1.72492-1.28094 4.98321-1.65374 4.87513-4.31445-5.68637-11.03093-13.242362-21.009219-19.091964-31.968221-6.285207-11.287049-16.90689-19.583191-28.761787-24.412498-9.363807-3.781659-19.219687-6.649319-27.625201-12.451498-8.344281-5.40442-15.501354-12.555157-21.163708-20.710656z" fill="#896910"/><path d="m52.50723 69.388396c-15.791584-9.791282-31.871148-19.0786-41.95088-39.429104v-.000045c11.375697 16.294808 25.7053 25.333717 41.542895 30.765747 23.683492 8.123033 31.101891 17.741755 37.870992 30.093792 5.663845 10.103254 11.111713 17.302724 16.883553 27.861954l-3.8039 2.06385c-5.615855-10.29525-11.039704-17.51872-16.919555-27.909952-8.375078-11.171063-10.68955-12.785185-33.623105-23.446242z" fill="#c49810" stroke-width="4.23333"/><path d="m85.521397 59.607216c3.853696 1.501472 8.431143 2.036815 12.193981-.01432 4.278732-2.22557 7.256322-6.31117 9.238152-10.613679.83729-1.869901 1.69245-3.755963 2.26112-5.723204.2182-1.687818-1.57576-2.62073-3.04249-2.356711-8.2229.01922-16.706766 1.586382-23.710306 6.099312-.876468.720133-1.501127 1.783325-1.630446 2.987894-.310082 2.146621.374076 4.300037.889186 6.336219 1.266934 1.094829 2.533869 2.189657 3.800803 3.284486z" fill="#6d7510"/><path d="m106.0066 43.014293c.35759 0 .73918.02404 1.10157.02404-2.25354 6.071558-4.67748 11.255178-9.79414 14.374942h-.02404c-3.407902 2.159841-7.487801 1.559893-11.015707.215984l10.175733-8.423382-12.695666 6.719511c-.35999-2.13584-1.607961-4.991638-.311995-7.031481h.02404v-.02404c5.879851-3.81572 13.271651-5.783579 22.540205-5.855574z" fill="#919c16" stroke-width="4.23333"/><path d="m13.537159 8.3416099c-5.5516821 3.2271491 3.319256 8.7854451 5.857817 11.6549181 2.431807 4.044893 7.488576 1.846418 10.187302 4.068021 1.409104 1.812878 7.316089 6.337223 2.474163 4.833998-5.837884-.435491-9.771936 6.159173-4.307501 9.762259 2.038878 3.258831 8.85462 2.367675 9.516144 2.300649-4.98366 3.414178-2.144419 9.437471 3.323151 9.599263 3.465386 1.650768 7.156255-2.707934 9.134556-2.497858 6.186233 8.306634 11.660929 17.124143 16.99718 25.989393 3.412525 6.08642 6.822328 12.168186 9.560064 18.595896 4.986393 10.232101 10.936359 19.961471 15.86633 30.222961 2.1419 2.27081 5.630373-.12586 7.66743-1.58843.492165-3.77592-2.871638-7.10078-4.207561-10.54985-4.953667-9.10539-10.522125-17.947946-14.172443-27.693969 4.8598-1.495692 5.616411-7.836751.325817-9.474614-1.610905-2.037731-9.7489-.556697-4.160075-1.930808 6.436937-.882448 4.700321-7.600315.216968-9.780732-2.606903-2.186553-6.313465-1.111949-8.563195-3.807004-2.466732-1.887354-5.254907-3.468227-6.544074-6.462057-8.713471-12.929863-18.561112-25.109361-29.574284-36.156159-.864597-4.640813-7.05626-5.039606-10.873224-6.1655169-2.875453-.5511397-5.798582-.8442984-8.724565-.9203602z" fill="#758f0a"/><path d="m32.083777 31.015166c3.791895-.04796 7.12781 3.287766 7.991787 5.735586-5.015874 4.319683-10.87171 2.615801-13.27165-3.191769 1.727954-1.799868 3.551909-2.519815 5.279863-2.543817zm-18.59952-20.55659c2.711924.06723 5.63982.352627 8.375747.880592 3.83989.739142 7.295923 1.999503 9.095841 3.331405.168033.530357.216176 1.257504.192206 1.749472l3.791476 3.899721c5.519861 5.757174 10.679629 11.751454 15.503501 17.918998l5.975841 7.967582c2.327942 3.263764 4.583999 6.551814 6.743941 9.911575l8.015995 6.023577c.287992-.04796.599693-.07211.887685-.07211 3.791896-.02404 7.127981 3.263515 7.99198 5.735326-2.903937 2.495825-6.09555 2.975797-8.711484 1.823882.98397 1.751875 1.991886 3.52765 2.951864 5.303527.863977-.383964 1.751561-.575935 2.591535-.575935 2.735927-.02404 5.232004 1.703849 6.743964 3.575712 0 0-1.096299 1.98626-1.964595 2.669337-.857946.674936-3.020428 1.265531-3.020428 1.265531 4.741261 13.993914 14.276166 26.880042 19.336588 38.349732l-3.935631 1.72778c-7.18483-14.75615-13.119661-23.346595-19.439721-37.988801l-7.055687-12.766637-8.951698-14.183334c-2.975924-4.535667-6.096231-8.951437-9.384117-13.295123-2.543958 5.399604-8.159389 6.383732-12.79127 2.616016 1.175973-4.343685 4.32001-5.711811 7.319926-5.639816 1.343961.02404 2.663544.360211 3.791476.840172-4.727836-6.119551-9.791343-11.999059-15.215202-17.701041l-3.240152-3.276326c-1.943948.856737-4.247615.868959-5.735583-.184556h-.02404c-3.215919-2.313434-7.512039-6.181943-9.839981-9.899274zm6.431674 2.533987c3.431905 2.416619 6.961704 3.493649 9.745626 6.095062l.332212-1.753576c-3.191907-2.37823-6.117944-3.05278-10.077838-4.341486z" fill="#9ec20a" stroke-width="4.23333"/><path d="m82.625966 46.140854c3.456426.718439 7.454761.397104 10.057098-2.254869 1.174756-1.213367 2.295275-2.603088 2.837705-4.213709.661263-1.918962-2.549089-2.540197-2.587722-3.313859 1.550219-1.33508 3.355458-2.985456 3.561723-5.122385-.589129-2.167444-2.86061-3.471779-4.833217-4.248143-1.923327-.212991-.293323-.690138.469518-1.366584 1.923827-1.604003 3.294433-3.930192 3.723898-6.392918-.298754-2.202537-2.905254-3.052907-4.725931-3.720835-2.645431-.785873-5.526866-.132552-7.72749 1.4815-1.48511.540909-3.076749 3.398583-3.827075.755085-1.248919-2.349489-3.411506-4.249858-6.084379-4.70932-2.564354-.60758-5.471128-.252693-7.616038 1.335859-1.188771 1.402513-.294654 3.36989.10622 4.921453.526161 1.470087 1.37143 2.836159 2.513741 3.906972-1.495942.658122-3.27606 1.391163-3.997044 2.953462-.268783 1.68027.779752 3.263372 1.591079 4.663988.39376 1.169199 2.875125 2.501976 2.476135 2.971457-2.333785.565843-4.474445 2.097418-5.714516 4.153568-.542816 1.854522 1.158121 3.396859 2.174152 4.753495 1.576597 1.762518 3.878215 2.905331 6.267439 2.838068-1.892976.619128-3.945281 1.600217-4.922921 3.417861-.381666 1.823872 1.05316 3.440606 2.023587 4.851841 2.686807 3.47956 7.827997 4.530157 11.720654 2.551421.977263-.506291 2.345065-1.04636 3.408882-1.699131 1.178707-.904178.878723-2.662054-.173964-3.527845-1.197758-1.301562-2.221004-2.781877-3.542558-3.957433-1.505694-1.113888-3.315666-1.813304-5.180038-1.995865 1.930049-.224843 3.723874-2.46296 4.996126-2.786044 1.001645 1.25097 2.003291 2.50194 3.004936 3.75291z" fill="#758f0a"/><path d="m86.34633 17.74214c2.159942-.849538 4.751873-.707952 7.391822 1.502286-.785709 2.677104-2.180816 4.617083-4.316608 5.6362-2.146076 1.024026-4.578421 1.07424-7.13111-.190996l-2.349938-1.742419c1.266429-2.00532 2.197086-2.940151 6.405834-5.205071zm-16.415881 25.549678c-2.230229-.502727-3.852759-2.202188-5.111592-4.572821 1.703951-2.159841 3.414183-3.080478 5.519849-3.071771 2.934075.01213 6.335832 2.231837 7.679804 4.799645-2.515738 2.955071-5.338176 3.464794-8.088061 2.844947zm7.82406-10.956349c-2.380075 1.114535-4.654194 1.147267-6.671252.20849-2.224072-1.035148-3.742755-2.976273-4.560449-5.776085 1.727954-1.447094 3.205513-2.101724 4.991871-1.982247 2.398352.160406 4.847875 1.667874 6.287836 3.530133l2.627783 2.927736zm-7.18618-10.069533c-1.942485-1.387049-2.929301-3.600302-3.181544-6.414854 2.758547-1.522705 4.838214-1.154523 7.032773-.323273 1.416956.536718 2.467652 1.898246 3.262953 3.164661.344037.686988 2.244844 3.319455 2.257985 4.254741l-1.873991.297729s-5.446865.485732-7.498176-.979004zm11.50611 9.253589c1.559967-1.703871 4.293637-3.269251 6.791824-3.179763 2.106289.0754 3.815898.923936 5.519872 3.083778-1.395595 2.616606-3.336482 4.206975-5.767115 4.738579-2.195533.480176-4.420512-.07642-6.520577-1.714801l-1.473875-1.225928zm.383994 10.36724c1.463965-2.015852 4.325702-3.679259 6.983814-3.911706 1.401344-.122538 2.639938.431969 3.983898 1.391891-1.332305 2.339431-2.357467 3.499295-4.183656 4.334388-1.913867.875195-4.249236.691512-6.304073.345268l-2.14383-.230031zm-3.047968 12.455086c-2.198606 1.111213-4.410659 1.16051-6.386071.358477-2.12374-.862224-3.629339-2.56783-4.653628-5.062124 1.727954-1.799868 3.328081-2.460224 5.279852-2.543817 1.821348-.078 3.695906.815944 5.111864 1.943857l3.417744 3.977635z" fill="#9ec20a" stroke-width="4.23333"/><path d="m85.370502 9.2376793c-5.795811-.3944498-10.517117 5.4097527-9.683337 10.9768237.523896 4.674308-.272802 9.372052-.03106 14.067015.317406 12.629996 1.9981 25.22743 4.699894 37.560742 2.089138 9.384482 6.554303 18.218941 13.198147 25.20659 4.648278 5.18935 10.107099 9.75295 16.400869 12.80858 3.01483.79292 3.4252-2.74215 4.59896-4.61512 1.40537-3.61602-3.97874-4.0203-5.80799-6.061207-8.08949-5.7727-13.819047-14.264945-17.894159-23.210544 1.825023-4.20618 6.815596-5.049365 10.872699-4.386356 7.17743.87821 14.08586 3.949862 21.39097 3.587477 4.04916-1.162204.82721-5.061831-2.03268-4.48465-8.60679-2.320426-15.41985-10.140801-24.804643-9.780902-3.201822-.498127-7.144907 3.162948-8.802118 2.990461-1.556903-7.501792-1.526777-15.242346-2.947335-22.754676-.317866-5.326998-.570346-10.752848-.02887-16.039268 2.062223-3.93943 5.494982-7.650875 4.839557-12.435298.193261-2.395349-1.77573-3.6487864-3.968903-3.4296677z" fill="#70780d"/><path d="m77.994518 39.990912c-.143996-2.56782-.239998-5.111626-.239998-7.655443l.04796-4.019709c.04796-1.691876.143996-3.383751.264001-5.07082l-.383994-4.55247c.266529-2.086191 1.234546-4.548014 2.98546-5.874247 1.726764-1.307946 4.14853-1.752545 6.374337-1.265225.479983 2.349431.191991 4.487663-.695989 6.189142l-4.055895 6.94749c-.143996 2.26543-.215995 4.550066-.215995 6.829895l.02404 2.927793c.04796 2.471811.167999 4.943634.35999 7.439447l.479983 2.159841 1.631965 15.598864c.503986 3.071771 1.055968 6.167544 1.655956 9.287318 3.551909-4.319683 7.12781-5.903566 10.655716-5.927568 9.021355-.09603 17.845915 9.887278 26.082505 10.055258-11.15251.791942-28.506437-10.583224-34.554276 2.783803 5.363631 12.249624 13.397026 22.74515 24.361746 28.221529l-1.89115 3.88772c-7.99898-3.88772-14.622807-10.34325-20.046666-17.566712-7.314302-9.830601-9.361293-21.459948-11.423738-36.044967l-.647982-5.303607c-.311996-2.711797-.551982-5.423606-.719981-8.135403z" fill="#abb30f" stroke-width="4.23333"/><path d="m92.388672 76.613281c-1.471468-.430669-2.48092.969449-3.598415 1.64838-5.967014 4.326785-12.557597 7.854636-19.618759 10.02003-1.3034.521771-1.618952 2.27013-.79268 3.332926.974528 1.745682 1.922908 3.506729 2.914137 5.242596.78113 1.195922 2.487883 1.088579 3.460164.200247 6.5142-4.108164 13.209621-7.964498 20.267136-11.067865 1.110024-.581609 1.3273-2.046051.746459-3.076344-.697923-1.751748-1.36121-3.518292-2.081372-5.26054-.267158-.503907-.746659-.88837-1.29667-1.03943z" fill="#a05a2c"/><path d="m91.818184 78.651679 2.159943 5.495589c-7.847792 3.455747-14.543614 7.46346-20.951443 11.495164l-2.999916-5.423606c7.655788-2.351823 14.8796-6.311533 21.791416-11.567147z" fill="#d38d5f" stroke-width="4.23333"/><path d="m57.351023 72.271559c-5.894978.06395-11.607404 1.958009-16.932817 4.359424-2.706039 1.61082-.149347 4.048677 1.206877 5.527877 4.118212 4.635428 8.731127 9.280373 14.752396 11.290595 4.369074 1.561637 9.389321.861706 13.338932-1.492155 1.721689-1.146903 3.050558-2.777122 4.111137-6.310865 1.060579-3.533744 1.046799-6.350319-.59803-8.43645-1.976718-2.850595-5.485944-3.917409-8.750797-4.42661-2.354807-.378966-4.745941-.482559-7.127698-.511816z" fill="#6d7510"/><path d="m66.474858 75.363946h.02404c3.003262.75311 4.330158 1.810503 5.414313 3.71096.853603 1.496311.597732 3.698828.345421 5.156386l-17.39942-2.627796 17.351277 4.875641c-1.57271 1.874754-2.744498 3.379852-4.65374 4.263686-2.737152 1.267096-6.313711 1.779868-8.97764 1.131916-6.623824-1.559882-11.831689-6.959486-17.27954-13.319023 6.23983-2.855787 12.047683-4.247688 16.475543-4.163676 4.427859.08401 6.587802.419951 8.699749.971906z" fill="#919c16" stroke-width="4.23333"/><path d="m58.146484 59.208984c-1.929619-.07592-3.741649 1.273528-4.372373 3.071647-.791197 2.182967-.217015 4.661235 1.00158 6.571662 1.183922 1.744762 3.068346 3.147371 5.208971 3.367141 1.403156.153894 2.862753-.385428 3.782738-1.465609 1.322838-1.486197 1.507067-3.669981 1.011055-5.528813-.670574-2.566895-2.502661-4.975822-5.106231-5.773608-.49443-.147494-1.00927-.236456-1.52574-.24242z" fill="#a40"/><path d="m58.147084 61.324942c1.319957.04796 2.927918.959934 3.959894 2.855798 1.367964 2.543806.695978 5.015629-.647982 5.735576-2.063953.887938-4.367892-1.199908-5.135868-2.59181-1.367963-2.543817-.695977-4.991638.647983-5.735576.335987-.191993.743984-.263988 1.175973-.263988z" fill="#d45500" stroke-width="4.23333"/><path d="m52.806641 36.291016c-.00067.002-.0013.0039-.002.0059-.714348 3.664775.834673 7.117647 3.992188 7.732422 3.19117.655322 5.903555-2.002703 6.619141-5.673828.71402-3.663021-.833825-7.113266-4.28904-7.776388-3.255532-.188883-5.640301 2.281224-6.320289 5.711894z" fill="#a40"/><path d="m61.338991 37.950628c-.551981 2.831796-2.639926 4.319683-4.127882 4.007702-1.51196-.287979-2.879924-2.423819-2.327942-5.255615.527989-2.663804 2.351933-4.127689 3.995893-3.923706s3.011924 2.339822 2.459931 5.171619z" fill="#d45500" stroke-width="4.23333"/></g></svg>