<svg height="500" viewBox="0 0 132.29167 132.29167" width="500" xmlns="http://www.w3.org/2000/svg" xmlns:xlink="http://www.w3.org/1999/xlink"><linearGradient id="a"><stop offset="0" stop-color="#b21a1a"/><stop offset="1" stop-color="#eb4756"/></linearGradient><linearGradient id="b" gradientTransform="matrix(391.593 0 0 -391.593 60.7962 7618.49)" gradientUnits="userSpaceOnUse" spreadMethod="pad" x1="0" x2="1" y1="0" y2="0"><stop offset="0" stop-color="#9f571d"/><stop offset=".511236" stop-color="#fde791"/><stop offset="1" stop-color="#b7671e"/></linearGradient><linearGradient id="c" gradientTransform="matrix(391.593 0 0 -391.593 60.7962 7618.49)" gradientUnits="userSpaceOnUse" spreadMethod="pad" x1="0" x2="1" y1="0" y2="0"><stop offset="0" stop-color="#fde791" stop-opacity=".87"/><stop offset=".50424302" stop-color="#fde791" stop-opacity=".5"/><stop offset=".86983711" stop-color="#b7671e" stop-opacity=".1"/><stop offset="1" stop-color="#9f571d" stop-opacity="0"/></linearGradient><linearGradient id="d"><stop offset="0" stop-color="#fffae5"/><stop offset=".5" stop-color="#fffdf5" stop-opacity=".86"/><stop offset="1" stop-color="#fffdf5" stop-opacity="0"/></linearGradient><linearGradient id="e" gradientTransform="translate(-47.050705 92.934063)" gradientUnits="userSpaceOnUse" x1="436.81439" x2="445.32999" xlink:href="#b" y1="103.62647" y2="118.13898"/><linearGradient id="f" gradientTransform="translate(-47.050705 92.934063)" gradientUnits="userSpaceOnUse" x1="421.38184" x2="429.49817" xlink:href="#b" y1="82.362961" y2="96.550133"/><linearGradient id="g" gradientUnits="userSpaceOnUse" x1="66.146446" x2="58.796577" xlink:href="#a" y1="65.385208" y2="76.343895"/><linearGradient id="h" gradientUnits="userSpaceOnUse" x1="66.146446" x2="73.496178" xlink:href="#a" y1="65.385208" y2="76.34462"/><linearGradient id="i" gradientUnits="userSpaceOnUse" x1="66.146446" x2="78.308418" xlink:href="#a" y1="65.385208" y2="61.553352"/><linearGradient id="j" gradientUnits="userSpaceOnUse" x1="66.146446" x2="66.146584" xlink:href="#a" y1="65.385208" y2="53.289093"/><linearGradient id="k" gradientUnits="userSpaceOnUse" x1="66.146446" x2="53.984737" xlink:href="#a" y1="65.385208" y2="61.552826"/><linearGradient id="l" gradientUnits="userSpaceOnUse" x1="53.984737" x2="66.146446" xlink:href="#a" y1="61.552826" y2="65.385208"/><linearGradient id="m" gradientUnits="userSpaceOnUse" x1="66.146584" x2="66.146446" xlink:href="#a" y1="53.289093" y2="65.385208"/><linearGradient id="n" gradientUnits="userSpaceOnUse" x1="78.308418" x2="66.146446" xlink:href="#a" y1="61.553352" y2="65.385208"/><linearGradient id="o" gradientUnits="userSpaceOnUse" x1="73.496178" x2="66.146446" xlink:href="#a" y1="76.34462" y2="65.385208"/><linearGradient id="p" gradientUnits="userSpaceOnUse" x1="58.796715" x2="66.146446" xlink:href="#a" y1="76.344093" y2="65.385208"/><linearGradient id="q" gradientTransform="translate(-47.050705 92.934063)" gradientUnits="userSpaceOnUse" x1="473.47021" x2="510.41699" xlink:href="#b" y1="78.628616" y2="58.376099"/><linearGradient id="r" gradientTransform="matrix(2.6778927 0 0 3.1842362 -507.92108 -821.82797)" gradientUnits="userSpaceOnUse" spreadMethod="reflect" x1="205.62047" x2="222.00148" xlink:href="#b" y1="272.55243" y2="285.40546"/><mask id="s" maskUnits="userSpaceOnUse"><path d="m-13.229165-13.229165h158.750005v158.750005h-158.750005z" fill="url(#t)" filter="url(#u)" stroke-width="11.83"/></mask><radialGradient id="t" cx="66.145844" cy="66.145836" gradientTransform="matrix(-1.0000001 .00000145 0 -.99999998 132.29169 132.29157)" gradientUnits="userSpaceOnUse" r="66.145836"><stop offset="0" stop-color="#fff"/><stop offset=".49999994" stop-color="#fff"/><stop offset=".74999988" stop-color="#808080"/><stop offset=".87499994" stop-color="#404040"/><stop offset="1"/></radialGradient><filter id="u" color-interpolation-filters="sRGB" height="1.0135" width="1.0135" x="-.00675" y="-.00675"><feGaussianBlur stdDeviation=".44648439"/></filter><radialGradient id="v" cx="92.324318" cy="-14.471824" gradientTransform="matrix(-.90042865 .90042865 -.43446565 -.4344658 119.19146 -47.071464)" gradientUnits="userSpaceOnUse" r="136.05388" xlink:href="#c"/><filter id="w" color-interpolation-filters="sRGB" height="1.063446" width="1.063446" x="-.031723" y="-.031723"><feGaussianBlur stdDeviation="3.5966747"/></filter><radialGradient id="x" cx="92.324326" cy="95.080315" gradientTransform="matrix(.43446574 -.43446576 .43446574 .43446579 8.523266 88.746776)" gradientUnits="userSpaceOnUse" r="136.05388" xlink:href="#c"/><radialGradient id="y" cx="4601.1221" cy="4277.6772" gradientTransform="matrix(0 .14277106 -.14490835 0 721.24408 -581.81013)" gradientUnits="userSpaceOnUse" r="11.2507" xlink:href="#d"/><radialGradient id="z" cx="4694.3481" cy="4395.814" gradientTransform="matrix(0 .14277106 -.14490835 0 721.24408 -581.81013)" gradientUnits="userSpaceOnUse" r="11.2507" xlink:href="#d"/><radialGradient id="A" cx="4845.7568" cy="4885.4878" gradientTransform="matrix(0 .14277106 -.14490835 0 721.24408 -581.81013)" gradientUnits="userSpaceOnUse" r="11.2507" xlink:href="#d"/><radialGradient id="B" cx="4996.8203" cy="4201.0781" gradientTransform="matrix(0 .14277106 -.14490835 0 721.24408 -582.71669)" gradientUnits="userSpaceOnUse" r="11.2507" xlink:href="#d"/><radialGradient id="C" cx="4264.2671" cy="4804.9849" gradientTransform="matrix(0 .14277106 -.14490835 0 721.24408 -581.81013)" gradientUnits="userSpaceOnUse" r="11.2507" xlink:href="#d"/><radialGradient id="D" cx="4253.0161" cy="4349.7529" gradientTransform="matrix(0 .14277106 -.14490835 0 721.24408 -581.81013)" gradientUnits="userSpaceOnUse" r="11.2507" xlink:href="#d"/><radialGradient id="E" cx="4291.9346" cy="4509.8506" gradientTransform="matrix(0 .14277106 -.14490835 0 721.24408 -581.81013)" gradientUnits="userSpaceOnUse" r="11.2507" xlink:href="#d"/><radialGradient id="F" cx="4178.7915" cy="4193.6758" gradientTransform="matrix(0 .14277106 -.14490835 0 721.24408 -581.81013)" gradientUnits="userSpaceOnUse" r="11.2507" xlink:href="#d"/><radialGradient id="G" cx="4508.9131" cy="4184.4229" gradientTransform="matrix(0 .14277106 -.14490835 0 721.24408 -581.81013)" gradientUnits="userSpaceOnUse" r="11.2507" xlink:href="#d"/><radialGradient id="H" cx="4169.5386" cy="4599.0166" gradientTransform="matrix(0 .14277106 -.14490835 0 721.24408 -581.81013)" gradientUnits="userSpaceOnUse" r="11.2507" xlink:href="#d"/><radialGradient id="I" cx="4381.2778" cy="4473.0386" gradientTransform="matrix(0 .14277106 -.14490835 0 721.24408 -581.81013)" gradientUnits="userSpaceOnUse" r="5.6228" xlink:href="#d"/><radialGradient id="J" cx="4207.3452" cy="4447.1753" gradientTransform="matrix(0 .14277106 -.14490835 0 721.24408 -581.81013)" gradientUnits="userSpaceOnUse" r="5.6228" xlink:href="#d"/><radialGradient id="K" cx="4156.0269" cy="4803.9863" gradientTransform="matrix(0 .14277106 -.14490835 0 721.24408 -581.81013)" gradientUnits="userSpaceOnUse" r="5.6228" xlink:href="#d"/><radialGradient id="L" cx="4756.5977" cy="4610.2671" gradientTransform="matrix(0 .14277106 -.14490835 0 721.24408 -581.81013)" gradientUnits="userSpaceOnUse" r="5.6228" xlink:href="#d"/><radialGradient id="M" cx="4724.8408" cy="4498.3604" gradientTransform="matrix(0 .14277106 -.14490835 0 721.24408 -581.81013)" gradientUnits="userSpaceOnUse" r="5.6228" xlink:href="#d"/><radialGradient id="N" cx="4755.5991" cy="4916.6094" gradientTransform="matrix(0 .14277106 -.14490835 0 721.24408 -581.81013)" gradientUnits="userSpaceOnUse" r="5.6228" xlink:href="#d"/><radialGradient id="O" cx="4815.3223" cy="4406.499" gradientTransform="matrix(0 .14277106 -.14490835 0 721.24408 -581.81013)" gradientUnits="userSpaceOnUse" r="5.6228" xlink:href="#d"/><radialGradient id="P" cx="4840.1343" cy="4528.7949" gradientTransform="matrix(0 .14277106 -.14490835 0 721.24408 -581.81013)" gradientUnits="userSpaceOnUse" r="5.6228" xlink:href="#d"/><radialGradient id="Q" cx="4994.8228" cy="4675.311" gradientTransform="matrix(0 .14277106 -.14490835 0 721.24408 -581.81013)" gradientUnits="userSpaceOnUse" r="5.6228" xlink:href="#d"/><radialGradient id="R" cx="4625.9868" cy="4580.4009" gradientTransform="matrix(0 .14277106 -.14490835 0 721.24408 -581.81013)" gradientUnits="userSpaceOnUse" r="5.6228" xlink:href="#d"/><radialGradient id="S" cx="4832.085" cy="4231.3418" gradientTransform="matrix(0 .14277106 -.14490835 0 721.24408 -581.81013)" gradientUnits="userSpaceOnUse" r="5.6228" xlink:href="#d"/><radialGradient id="T" cx="4920.2227" cy="4281.3076" gradientTransform="matrix(0 .14277106 -.14490835 0 721.24408 -581.81013)" gradientUnits="userSpaceOnUse" r="5.6228" xlink:href="#d"/><radialGradient id="U" cx="4483.835" cy="4313.1982" gradientTransform="matrix(0 .14277106 -.14490835 0 721.24408 -581.81013)" gradientUnits="userSpaceOnUse" r="5.6228" xlink:href="#d"/><radialGradient id="V" cx="4664.439" cy="4695.5273" gradientTransform="matrix(0 .14277106 -.14490835 0 721.24408 -581.81013)" gradientUnits="userSpaceOnUse" r="11.2507" xlink:href="#d"/><radialGradient id="W" cx="4894.2646" cy="4681.8555" gradientTransform="matrix(0 .14277106 -.14490835 0 721.24408 -581.81013)" gradientUnits="userSpaceOnUse" r="11.2507" xlink:href="#d"/><radialGradient id="X" cx="4985.5698" cy="4361.0039" gradientTransform="matrix(0 .14277106 -.14490835 0 721.24408 -581.81013)" gradientUnits="userSpaceOnUse" r="11.2507" xlink:href="#d"/><radialGradient id="Y" cx="4713.5898" cy="4089.8687" gradientTransform="matrix(0 .14277106 -.14490835 0 721.24408 -581.81013)" gradientUnits="userSpaceOnUse" r="11.2507" xlink:href="#d"/><radialGradient id="Z" cx="4757.5957" cy="4804.9849" gradientTransform="matrix(0 .14277106 -.14490835 0 721.24408 -581.81013)" gradientUnits="userSpaceOnUse" r="11.2507" xlink:href="#d"/><radialGradient id="aa" cx="4371.5723" cy="4725.9341" gradientTransform="matrix(0 .14277106 -.14490835 0 721.24408 -581.81013)" gradientUnits="userSpaceOnUse" r="11.2507" xlink:href="#d"/><radialGradient id="ab" cx="4510.9111" cy="4743.7231" gradientTransform="matrix(0 .14277106 -.14490835 0 721.24408 -581.81013)" gradientUnits="userSpaceOnUse" r="11.2507" xlink:href="#d"/><radialGradient id="ac" cx="4269.4331" cy="4686.5615" gradientTransform="matrix(0 .14277106 -.14490835 0 721.24408 -581.81013)" gradientUnits="userSpaceOnUse" r="11.2507" xlink:href="#d"/><radialGradient id="ad" cx="4484.8335" cy="4664.189" gradientTransform="matrix(0 .14277106 -.14490835 0 721.24408 -581.81013)" gradientUnits="userSpaceOnUse" r="7.1455" xlink:href="#d"/><radialGradient id="ae" cx="4613.2183" cy="4640.4971" gradientTransform="matrix(0 .14277106 -.14490835 0 721.24408 -581.81013)" gradientUnits="userSpaceOnUse" r="7.1455" xlink:href="#d"/><radialGradient id="af" cx="4091.8" cy="4252.5869" gradientTransform="matrix(0 .14277106 -.14490835 0 721.24408 -581.81013)" gradientUnits="userSpaceOnUse" r="7.1455" xlink:href="#d"/><radialGradient id="ag" cx="4666.4365" cy="4863.9521" gradientTransform="matrix(0 .14277106 -.14490835 0 721.24408 -581.81013)" gradientUnits="userSpaceOnUse" r="7.1455" xlink:href="#d"/><radialGradient id="ah" cx="4894.2646" cy="4840.1016" gradientTransform="matrix(0 .14277106 -.14490835 0 721.24408 -581.81013)" gradientUnits="userSpaceOnUse" r="7.1455" xlink:href="#d"/><radialGradient id="ai" cx="4974.3188" cy="4809.6094" gradientTransform="matrix(0 .14277106 -.14490835 0 721.24408 -581.81013)" gradientUnits="userSpaceOnUse" r="7.1455" xlink:href="#d"/><radialGradient id="aj" cx="4347.4258" cy="4820.2441" gradientTransform="matrix(0 .14277106 -.14490835 0 721.24408 -581.81013)" gradientUnits="userSpaceOnUse" r="7.1455" xlink:href="#d"/><radialGradient id="ak" cx="4533.5781" cy="4593.1694" gradientTransform="matrix(0 .14277106 -.14490835 0 721.24408 -581.81013)" gradientUnits="userSpaceOnUse" r="7.1455" xlink:href="#d"/><radialGradient id="al" cx="4448.2217" cy="4220.0913" gradientTransform="matrix(0 .14277106 -.14490835 0 721.24408 -581.81013)" gradientUnits="userSpaceOnUse" r="11.2507" xlink:href="#d"/><radialGradient id="am" cx="4908.2451" cy="4929.8579" gradientTransform="matrix(0 .14277106 -.14490835 0 721.24408 -581.81013)" gradientUnits="userSpaceOnUse" r="11.2507" xlink:href="#d"/><radialGradient id="an" cx="4367.481" cy="4195.6733" gradientTransform="matrix(0 .14277106 -.14490835 0 721.24408 -581.81013)" gradientUnits="userSpaceOnUse" r="11.2507" xlink:href="#d"/><radialGradient id="ao" cx="4526.4326" cy="4089.8687" gradientTransform="matrix(0 .14277106 -.14490835 0 721.24408 -581.81013)" gradientUnits="userSpaceOnUse" r="11.2507" xlink:href="#d"/><radialGradient id="ap" cx="4261.9028" cy="4242.5928" gradientTransform="matrix(0 .14277106 -.14490835 0 721.24408 -581.81013)" gradientUnits="userSpaceOnUse" r="11.2507" xlink:href="#d"/><radialGradient id="aq" cx="16633.223" cy="4517.6021" gradientTransform="matrix(0 .04133223 -.14490835 0 721.24408 -619.22488)" gradientUnits="userSpaceOnUse" r="19.241899" xlink:href="#d"/><radialGradient id="ar" cx="-15595.086" cy="5031.6465" gradientTransform="matrix(.04195096 0 0 .14277106 720.77537 -650.17277)" gradientUnits="userSpaceOnUse" r="19.241899" xlink:href="#d"/><radialGradient id="as" cx="16323.169" cy="4900.5503" gradientTransform="matrix(0 .04133223 -.14490835 0 721.24408 -619.22488)" gradientUnits="userSpaceOnUse" r="29.7325" xlink:href="#d"/><radialGradient id="at" cx="-16917.998" cy="4941.8945" gradientTransform="matrix(.04195096 0 0 .14277106 720.77537 -650.17277)" gradientUnits="userSpaceOnUse" r="29.7325" xlink:href="#d"/><radialGradient id="au" cx="16788.486" cy="4380.1377" gradientTransform="matrix(0 .04133223 -.14490835 0 721.24408 -619.22488)" gradientUnits="userSpaceOnUse" r="29.7325" xlink:href="#d"/><radialGradient id="av" cx="-15120.208" cy="5076.5913" gradientTransform="matrix(.04195096 0 0 .14277106 720.77537 -650.17277)" gradientUnits="userSpaceOnUse" r="29.7325" xlink:href="#d"/><radialGradient id="aw" cx="15052.254" cy="4385.373" gradientTransform="matrix(0 .04133223 -.14490835 0 721.24408 -617.84714)" gradientUnits="userSpaceOnUse" r="29.7325" xlink:href="#d"/><radialGradient id="ax" cx="-15138.295" cy="4573.998" gradientTransform="matrix(.04195096 0 0 .14277106 720.77537 -648.79503)" gradientUnits="userSpaceOnUse" r="29.7325" xlink:href="#d"/><radialGradient id="ay" cx="16060.047" cy="4376.7666" gradientTransform="matrix(0 .04133223 -.14490835 0 721.24408 -619.22488)" gradientUnits="userSpaceOnUse" r="29.7325" xlink:href="#d"/><radialGradient id="az" cx="-15108.562" cy="4865.7275" gradientTransform="matrix(.04195096 0 0 .14277106 720.77537 -650.17277)" gradientUnits="userSpaceOnUse" r="29.7325" xlink:href="#d"/><radialGradient id="aA" cx="15866.068" cy="4081.2617" gradientTransform="matrix(0 .04133223 -.14490835 0 719.39892 -619.22488)" gradientUnits="userSpaceOnUse" r="29.7325" xlink:href="#d"/><radialGradient id="aB" cx="-14087.729" cy="4809.5757" gradientTransform="matrix(.04195096 0 0 .14277106 718.93021 -650.17277)" gradientUnits="userSpaceOnUse" r="29.7325" xlink:href="#d"/><radialGradient id="aC" cx="15420.522" cy="4902.7319" gradientTransform="matrix(0 .04133223 -.14490835 0 721.24408 -619.22488)" gradientUnits="userSpaceOnUse" r="19.241899" xlink:href="#d"/><radialGradient id="aD" cx="-16925.533" cy="4680.6021" gradientTransform="matrix(.04195096 0 0 .14277106 720.77537 -650.17277)" gradientUnits="userSpaceOnUse" r="19.241899" xlink:href="#d"/><radialGradient id="aE" cx="17559.291" cy="4676.2856" gradientTransform="matrix(0 .04133223 -.14490835 0 721.24408 -619.22488)" gradientUnits="userSpaceOnUse" r="19.241899" xlink:href="#d"/><radialGradient id="aF" cx="-16143.265" cy="5299.7192" gradientTransform="matrix(.04195096 0 0 .14277106 720.77537 -650.17277)" gradientUnits="userSpaceOnUse" r="19.241899" xlink:href="#d"/><radialGradient id="aG" cx="16866.557" cy="4774.4922" gradientTransform="matrix(0 .04133223 -.14490835 0 721.24408 -619.22488)" gradientUnits="userSpaceOnUse" r="19.241899" xlink:href="#d"/><radialGradient id="aH" cx="-16482.523" cy="5099.1909" gradientTransform="matrix(.04195096 0 0 .14277106 720.77537 -650.17277)" gradientUnits="userSpaceOnUse" r="19.241899" xlink:href="#d"/><radialGradient id="aI" cx="16071.692" cy="4574.7783" gradientTransform="matrix(0 .04133223 -.14490835 0 721.24408 -619.22488)" gradientUnits="userSpaceOnUse" r="19.241899" xlink:href="#d"/><radialGradient id="aJ" cx="-15792.604" cy="4869.0986" gradientTransform="matrix(.04195096 0 0 .14277106 720.77537 -650.17277)" gradientUnits="userSpaceOnUse" r="19.241899" xlink:href="#d"/><radialGradient id="aK" cx="16699.693" cy="4871.0977" gradientTransform="matrix(0 .04133223 -.14490835 0 721.24408 -619.22488)" gradientUnits="userSpaceOnUse" r="19.241899" xlink:href="#d"/><radialGradient id="aL" cx="-16816.252" cy="5050.8887" gradientTransform="matrix(.04195096 0 0 .14277106 720.77537 -650.17277)" gradientUnits="userSpaceOnUse" r="19.241899" xlink:href="#d"/><radialGradient id="aM" cx="18061.07" cy="4512.0322" gradientTransform="matrix(0 .04133223 -.14490835 0 721.24408 -619.22488)" gradientUnits="userSpaceOnUse" r="19.241899" xlink:href="#d"/><radialGradient id="aN" cx="-15575.844" cy="5444.9717" gradientTransform="matrix(.04195096 0 0 .14277106 720.77537 -650.17277)" gradientUnits="userSpaceOnUse" r="19.241899" xlink:href="#d"/><radialGradient id="aO" cx="17188.609" cy="4244.9609" gradientTransform="matrix(0 .04133223 -.14490835 0 721.24408 -619.22488)" gradientUnits="userSpaceOnUse" r="19.241899" xlink:href="#d"/><radialGradient id="aP" cx="-14653.234" cy="5192.417" gradientTransform="matrix(.04195096 0 0 .14277106 720.77537 -650.17277)" gradientUnits="userSpaceOnUse" r="19.241899" xlink:href="#d"/><radialGradient id="aQ" cx="15143.32" cy="4682.5854" gradientTransform="matrix(0 .04133223 -.14490835 0 721.24408 -619.22488)" gradientUnits="userSpaceOnUse" r="19.241899" xlink:href="#d"/><radialGradient id="aR" cx="-16165.027" cy="4600.3594" gradientTransform="matrix(.04195096 0 0 .14277106 720.77537 -650.17277)" gradientUnits="userSpaceOnUse" r="19.241899" xlink:href="#d"/><radialGradient id="aS" cx="17652.088" cy="4368.1597" gradientTransform="matrix(0 .04133223 -.14490835 0 721.24408 -619.22488)" gradientUnits="userSpaceOnUse" r="19.241899" xlink:href="#d"/><radialGradient id="aT" cx="-15078.83" cy="5326.5815" gradientTransform="matrix(.04195096 0 0 .14277106 720.77537 -650.17277)" gradientUnits="userSpaceOnUse" r="19.241899" xlink:href="#d"/><radialGradient id="aU" cx="16783.117" cy="4155.2524" gradientTransform="matrix(0 .04133223 -.14490835 0 721.24408 -619.22488)" gradientUnits="userSpaceOnUse" r="19.241899" xlink:href="#d"/><radialGradient id="aV" cx="-14343.332" cy="5075.0371" gradientTransform="matrix(.04195096 0 0 .14277106 720.77537 -650.17277)" gradientUnits="userSpaceOnUse" r="19.241899" xlink:href="#d"/><radialGradient id="aW" cx="4358.6768" cy="4918.6069" gradientTransform="matrix(0 .14277106 -.14490835 0 721.24408 -581.81013)" gradientUnits="userSpaceOnUse" r="11.2507" xlink:href="#d"/><g mask="url(#s)" stroke-width="9.525"><path d="m-16.763244-16.763244c-67.65774 67.657739-96.043756 148.969874-63.396059 181.617564 32.647695 32.64769 113.959825 4.26168 181.617563-63.39606 67.65774-67.657738 96.04375-148.969868 63.39606-181.617563-32.64769-32.647697-113.959825-4.261681-181.617564 63.396059z" fill="url(#v)" filter="url(#w)" opacity=".5"/><path d="m30.833409 30.833409c-67.65774 67.657739-96.043753 148.969871-63.396059 181.617561 32.64769465 32.6477 113.959825 4.26168 181.61756-63.39606 67.65774-67.657735 96.04376-148.96986535 63.39606-181.61756-32.64769-32.647694-113.959822-4.261681-181.617561 63.396059z" fill="url(#x)" filter="url(#w)" opacity=".5"/></g><g stroke-width=".095891"><ellipse cx="101.37306" cy="75.090439" fill="url(#y)" opacity=".4" rx="1.637465" ry="1.613313"/><ellipse cx="101.37306" cy="75.090439" fill="#fffae7" opacity=".8" rx=".289817" ry=".285542"/><ellipse cx="84.259369" cy="88.410988" fill="url(#z)" opacity=".4" rx="1.637465" ry="1.613313"/><ellipse cx="84.259369" cy="88.410988" fill="#fffae7" opacity=".8" rx=".289817" ry=".285542"/><ellipse cx="13.297751" cy="110.02653" fill="url(#A)" opacity=".4" rx="1.637465" ry="1.613313"/><ellipse cx="13.297751" cy="110.02653" fill="#fffae7" opacity=".8" rx=".289817" ry=".285542"/><ellipse cx="112.47302" cy="130.67836" fill="url(#B)" opacity=".4" rx="1.637465" ry="1.613313"/><ellipse cx="112.47302" cy="130.67836" fill="#fffae7" opacity=".8" rx=".289817" ry=".285542"/><ellipse cx="24.962875" cy="27.005148" fill="url(#C)" opacity=".4" rx="1.637465" ry="1.613313"/><ellipse cx="24.962875" cy="27.005148" fill="#fffae7" opacity=".8" rx=".289817" ry=".285542"/><ellipse cx="90.925156" cy="25.391836" fill="url(#D)" opacity=".4" rx="1.637465" ry="1.613313"/><ellipse cx="90.925156" cy="25.391836" fill="#fffae7" opacity=".8" rx=".289817" ry=".285542"/><ellipse cx="67.725342" cy="30.959906" fill="url(#E)" opacity=".4" rx="1.637465" ry="1.613313"/><ellipse cx="67.725342" cy="30.959906" fill="#fffae7" opacity=".8" rx=".289817" ry=".285542"/><ellipse cx="113.54536" cy="14.798224" fill="url(#F)" opacity=".4" rx="1.637465" ry="1.613313"/><ellipse cx="113.54536" cy="14.798224" fill="#fffae7" opacity=".8" rx=".289817" ry=".285542"/><ellipse cx="114.89299" cy="61.926949" fill="url(#G)" opacity=".4" rx="1.637465" ry="1.613313"/><ellipse cx="114.89299" cy="61.926949" fill="#fffae7" opacity=".8" rx=".289817" ry=".285542"/><ellipse cx="54.813995" cy="13.484729" fill="url(#H)" opacity=".4" rx="1.637465" ry="1.613313"/><ellipse cx="54.813995" cy="13.484729" fill="#fffae7" opacity=".8" rx=".289817" ry=".285542"/><ellipse cx="73.057961" cy="43.709366" fill="url(#I)" opacity=".4" rx=".811487" ry=".799518"/><ellipse cx="73.057961" cy="43.709366" fill="#fffae7" opacity=".8" rx=".144908" ry=".142771"/><ellipse cx="76.811081" cy="18.881468" fill="url(#J)" opacity=".4" rx=".811487" ry=".799518"/><ellipse cx="76.811081" cy="18.881468" fill="#fffae7" opacity=".8" rx=".144908" ry=".142771"/><ellipse cx="25.10778" cy="11.557319" fill="url(#K)" opacity=".4" rx=".811487" ry=".799518"/><ellipse cx="25.10778" cy="11.557319" fill="#fffae7" opacity=".8" rx=".144908" ry=".142771"/><ellipse cx="53.176529" cy="97.291344" fill="url(#L)" opacity=".4" rx=".811487" ry=".799518"/><ellipse cx="53.176529" cy="97.291344" fill="#fffae7" opacity=".8" rx=".144908" ry=".142771"/><ellipse cx="69.391777" cy="92.765495" fill="url(#M)" opacity=".4" rx=".811487" ry=".799518"/><ellipse cx="69.391777" cy="92.765495" fill="#fffae7" opacity=".8" rx=".144908" ry=".142771"/><ellipse cx="8.791102" cy="97.148567" fill="url(#N)" opacity=".4" rx=".811487" ry=".799518"/><ellipse cx="8.791102" cy="97.148567" fill="#fffae7" opacity=".8" rx=".144908" ry=".142771"/><ellipse cx="82.708855" cy="105.672" fill="url(#O)" opacity=".4" rx=".811487" ry=".799518"/><ellipse cx="82.708855" cy="105.672" fill="#fffae7" opacity=".8" rx=".144908" ry=".142771"/><ellipse cx="64.986557" cy="109.227" fill="url(#P)" opacity=".4" rx=".811487" ry=".799518"/><ellipse cx="64.986557" cy="109.227" fill="#fffae7" opacity=".8" rx=".144908" ry=".142771"/><ellipse cx="43.757484" cy="131.29939" fill="url(#Q)" opacity=".4" rx=".811487" ry=".799518"/><ellipse cx="43.757484" cy="131.29939" fill="#fffae7" opacity=".8" rx=".144908" ry=".142771"/><ellipse cx="57.509293" cy="78.645439" fill="url(#R)" opacity=".4" rx=".811487" ry=".799518"/><ellipse cx="57.509293" cy="78.645439" fill="#fffae7" opacity=".8" rx=".144908" ry=".142771"/><ellipse cx="108.08231" cy="108.07056" fill="url(#S)" opacity=".4" rx=".811487" ry=".799518"/><ellipse cx="108.08231" cy="108.07056" fill="#fffae7" opacity=".8" rx=".144908" ry=".142771"/><ellipse cx="100.85138" cy="120.64867" fill="url(#T)" opacity=".4" rx=".811487" ry=".799518"/><ellipse cx="100.85138" cy="120.64867" fill="#fffae7" opacity=".8" rx=".144908" ry=".142771"/><ellipse cx="96.228806" cy="58.357674" fill="url(#U)" opacity=".4" rx=".811487" ry=".799518"/><ellipse cx="96.228806" cy="58.357674" fill="#fffae7" opacity=".8" rx=".144908" ry=".142771"/><ellipse cx="40.815849" cy="84.142128" fill="url(#V)" opacity=".4" rx="1.637465" ry="1.613313"/><ellipse cx="40.815849" cy="84.142128" fill="#fffae7" opacity=".8" rx=".289817" ry=".285542"/><ellipse cx="42.801102" cy="116.9509" fill="url(#W)" opacity=".4" rx="1.637465" ry="1.613313"/><ellipse cx="42.801102" cy="116.9509" fill="#fffae7" opacity=".8" rx=".289817" ry=".285542"/><ellipse cx="89.302185" cy="129.98592" fill="url(#X)" opacity=".4" rx="1.637465" ry="1.613313"/><ellipse cx="89.302185" cy="129.98592" fill="#fffae7" opacity=".8" rx=".289817" ry=".285542"/><ellipse cx="128.58684" cy="91.152184" fill="url(#Y)" opacity=".4" rx="1.637465" ry="1.613313"/><ellipse cx="128.58684" cy="91.152184" fill="#fffae7" opacity=".8" rx=".289817" ry=".285542"/><ellipse cx="24.962875" cy="97.434105" fill="url(#Z)" opacity=".4" rx="1.637465" ry="1.613313"/><ellipse cx="24.962875" cy="97.434105" fill="#fffae7" opacity=".8" rx=".289817" ry=".285542"/><ellipse cx="36.410637" cy="42.324486" fill="url(#aa)" opacity=".4" rx="1.637465" ry="1.613313"/><ellipse cx="36.410637" cy="42.324486" fill="#fffae7" opacity=".8" rx=".289817" ry=".285542"/><ellipse cx="33.845757" cy="62.212494" fill="url(#ab)" opacity=".4" rx="1.637465" ry="1.613313"/><ellipse cx="33.845757" cy="62.212494" fill="#fffae7" opacity=".8" rx=".289817" ry=".285542"/><ellipse cx="42.120026" cy="27.747557" fill="url(#ac)" opacity=".4" rx="1.637465" ry="1.613313"/><ellipse cx="42.120026" cy="27.747557" fill="#fffae7" opacity=".8" rx=".289817" ry=".285542"/><ellipse cx="45.365974" cy="58.500443" fill="url(#ad)" opacity=".4" rx="1.028849" ry="1.013675"/><ellipse cx="45.365974" cy="58.500443" fill="#fffae7" opacity=".8" rx=".188381" ry=".185602"/><ellipse cx="48.800293" cy="76.817963" fill="url(#ae)" opacity=".4" rx="1.028849" ry="1.013675"/><ellipse cx="48.800293" cy="76.817963" fill="#fffae7" opacity=".8" rx=".188381" ry=".185602"/><ellipse cx="105.01025" cy="2.377143" fill="url(#af)" opacity=".4" rx="1.028849" ry="1.013675"/><ellipse cx="105.01025" cy="2.377143" fill="#fffae7" opacity=".8" rx=".188381" ry=".185602"/><ellipse cx="16.413284" cy="84.427673" fill="url(#ag)" opacity=".4" rx="1.028849" ry="1.013675"/><ellipse cx="16.413284" cy="84.427673" fill="#fffae7" opacity=".8" rx=".188381" ry=".185602"/><ellipse cx="19.876591" cy="116.9509" fill="url(#ah)" opacity=".4" rx="1.028849" ry="1.013675"/><ellipse cx="19.876591" cy="116.9509" fill="#fffae7" opacity=".8" rx=".188381" ry=".185602"/><ellipse cx="24.296299" cy="128.37259" fill="url(#ai)" opacity=".4" rx="1.028849" ry="1.013675"/><ellipse cx="24.296299" cy="128.37259" fill="#fffae7" opacity=".8" rx=".188381" ry=".185602"/><ellipse cx="22.745773" cy="38.869423" fill="url(#aj)" opacity=".4" rx="1.028849" ry="1.013675"/><ellipse cx="22.745773" cy="38.869423" fill="#fffae7" opacity=".8" rx=".188381" ry=".185602"/><ellipse cx="55.654465" cy="65.453392" fill="url(#ak)" opacity=".4" rx="1.028849" ry="1.013675"/><ellipse cx="55.654465" cy="65.453392" fill="#fffae7" opacity=".8" rx=".188381" ry=".185602"/><ellipse cx="109.71977" cy="53.260742" fill="url(#al)" opacity=".4" rx="1.637465" ry="1.613313"/><ellipse cx="109.71977" cy="53.260742" fill="#fffae7" opacity=".8" rx=".289817" ry=".285542"/><ellipse cx="6.863823" cy="118.9497" fill="url(#am)" opacity=".4" rx="1.637465" ry="1.613313"/><ellipse cx="6.863823" cy="118.9497" fill="#fffae7" opacity=".8" rx=".289817" ry=".285542"/><ellipse cx="113.25554" cy="41.739128" fill="url(#an)" opacity=".4" rx="1.637465" ry="1.613313"/><ellipse cx="113.25554" cy="41.739128" fill="#fffae7" opacity=".8" rx=".289817" ry=".285542"/><ellipse cx="128.58684" cy="64.439735" fill="url(#ao)" opacity=".4" rx="1.637465" ry="1.613313"/><ellipse cx="128.58684" cy="64.439735" fill="#fffae7" opacity=".8" rx=".289817" ry=".285542"/><ellipse cx="106.45934" cy="26.662497" fill="url(#ap)" opacity=".4" rx="1.637465" ry="1.613313"/><ellipse cx="106.45934" cy="26.662497" fill="#fffae7" opacity=".8" rx=".289817" ry=".285542"/><ellipse cx="66.609535" cy="68.194603" fill="url(#aq)" opacity=".8" rx="2.782241" ry=".799518"/><ellipse cx="66.609535" cy="68.194603" fill="url(#ar)" opacity=".8" rx=".811487" ry="2.741205"/><ellipse cx="66.609535" cy="68.194603" fill="#fffae7" opacity=".8" rx=".318798" ry=".314096"/><ellipse cx="11.109633" cy="55.388039" fill="url(#as)" opacity=".8" rx="4.303778" ry="1.227831"/><ellipse cx="11.109633" cy="55.388039" fill="url(#at)" opacity=".8" rx="1.246212" ry="4.240301"/><ellipse cx="11.109633" cy="55.388039" fill="#fffae7" opacity=".8" rx=".492688" ry=".485422"/><ellipse cx="86.519936" cy="74.619293" fill="url(#au)" opacity=".8" rx="4.303778" ry="1.227831"/><ellipse cx="86.519936" cy="74.619293" fill="url(#av)" opacity=".8" rx="1.246212" ry="4.240301"/><ellipse cx="86.519936" cy="74.619293" fill="#fffae7" opacity=".8" rx=".492688" ry=".485422"/><ellipse cx="85.766418" cy="4.240301" fill="url(#aw)" opacity=".8" rx="4.303778" ry="1.227831"/><ellipse cx="85.766418" cy="4.240301" fill="url(#ax)" opacity=".8" rx="1.246212" ry="4.240301"/><ellipse cx="85.766418" cy="4.240301" fill="#fffae7" opacity=".8" rx=".492688" ry=".485422"/><ellipse cx="87.012642" cy="44.508881" fill="url(#ay)" opacity=".8" rx="4.303778" ry="1.227831"/><ellipse cx="87.012642" cy="44.508881" fill="url(#az)" opacity=".8" rx="1.246212" ry="4.240301"/><ellipse cx="87.012642" cy="44.508881" fill="#fffae7" opacity=".8" rx=".492688" ry=".485422"/><ellipse cx="127.98789" cy="36.499428" fill="url(#aA)" opacity=".8" rx="4.303778" ry="1.227831"/><ellipse cx="127.98789" cy="36.499428" fill="url(#aB)" opacity=".8" rx="1.246212" ry="4.240301"/><ellipse cx="127.98789" cy="36.499428" fill="#fffae7" opacity=".8" rx=".492688" ry=".485422"/><ellipse cx="10.790835" cy="18.081957" fill="url(#aC)" opacity=".8" rx="2.782241" ry=".799518"/><ellipse cx="10.790835" cy="18.081957" fill="url(#aD)" opacity=".8" rx=".811487" ry="2.741205"/><ellipse cx="10.790835" cy="18.081957" fill="#fffae7" opacity=".8" rx=".318798" ry=".314096"/><ellipse cx="43.612579" cy="106.47152" fill="url(#aE)" opacity=".8" rx="2.782241" ry=".799518"/><ellipse cx="43.612579" cy="106.47152" fill="url(#aF)" opacity=".8" rx=".811487" ry="2.741205"/><ellipse cx="43.612579" cy="106.47152" fill="#fffae7" opacity=".8" rx=".318798" ry=".314096"/><ellipse cx="29.38258" cy="77.845924" fill="url(#aG)" opacity=".8" rx="2.782241" ry=".799518"/><ellipse cx="29.38258" cy="77.845924" fill="url(#aH)" opacity=".8" rx=".811487" ry="2.741205"/><ellipse cx="29.38258" cy="77.845924" fill="#fffae7" opacity=".8" rx=".318798" ry=".314096"/><ellipse cx="58.32077" cy="44.994301" fill="url(#aI)" opacity=".8" rx="2.782241" ry=".799518"/><ellipse cx="58.32077" cy="44.994301" fill="url(#aJ)" opacity=".8" rx=".811487" ry="2.741205"/><ellipse cx="58.32077" cy="44.994301" fill="#fffae7" opacity=".8" rx=".318798" ry=".314096"/><ellipse cx="15.384429" cy="70.950073" fill="url(#aK)" opacity=".8" rx="2.782241" ry=".799518"/><ellipse cx="15.384429" cy="70.950073" fill="url(#aL)" opacity=".8" rx=".811487" ry="2.741205"/><ellipse cx="15.384429" cy="70.950073" fill="#fffae7" opacity=".8" rx=".318798" ry=".314096"/><ellipse cx="67.40654" cy="127.21616" fill="url(#aM)" opacity=".8" rx="2.782241" ry=".799518"/><ellipse cx="67.40654" cy="127.21616" fill="url(#aN)" opacity=".8" rx=".811487" ry="2.741205"/><ellipse cx="67.40654" cy="127.21616" fill="#fffae7" opacity=".8" rx=".318798" ry=".314096"/><ellipse cx="106.11156" cy="91.152184" fill="url(#aO)" opacity=".8" rx="2.782241" ry=".799518"/><ellipse cx="106.11156" cy="91.152184" fill="url(#aP)" opacity=".8" rx=".811487" ry="2.741205"/><ellipse cx="106.11156" cy="91.152184" fill="#fffae7" opacity=".8" rx=".318798" ry=".314096"/><ellipse cx="42.699661" cy="6.631717" fill="url(#aQ)" opacity=".8" rx="2.782241" ry=".799518"/><ellipse cx="42.699661" cy="6.631717" fill="url(#aR)" opacity=".8" rx=".811487" ry="2.741205"/><ellipse cx="42.699661" cy="6.631717" fill="#fffae7" opacity=".8" rx=".318798" ry=".314096"/><ellipse cx="88.25885" cy="110.31207" fill="url(#aS)" opacity=".8" rx="2.782241" ry=".799518"/><ellipse cx="88.25885" cy="110.31207" fill="url(#aT)" opacity=".8" rx=".811487" ry="2.741205"/><ellipse cx="88.25885" cy="110.31207" fill="#fffae7" opacity=".8" rx=".318798" ry=".314096"/><ellipse cx="119.10985" cy="74.390869" fill="url(#aU)" opacity=".8" rx="2.782241" ry=".799518"/><ellipse cx="119.10985" cy="74.390869" fill="url(#aV)" opacity=".8" rx=".811487" ry="2.741205"/><ellipse cx="119.10985" cy="74.390869" fill="#fffae7" opacity=".8" rx=".318798" ry=".314096"/><ellipse cx="8.501285" cy="40.482735" fill="url(#aW)" opacity=".4" rx="1.637465" ry="1.613313"/><ellipse cx="8.501285" cy="40.482735" fill="#fffae7" opacity=".8" rx=".289817" ry=".285542"/></g><g transform="translate(0 5.776776)"><g id="aX" transform="matrix(.99672459 .08087089 -.08087089 .99672459 -.986576 -11.590375)"><g id="aY" stroke-width="2.07087" transform="matrix(.47980925 .05445788 -.05445788 .47980925 42.758238 12.916181)"><g stroke-width="6.49817" transform="matrix(-.31854604 .00942775 -.00942775 -.31854604 204.58896 102.01913)"><path d="m389.01377 169.66216c-.20722-.002-.41471-.00026-.62167.006-6.14261.17901-12.3391 2.21603-17.6599 5.29063-5.33456 3.08256-10.26266 7.41151-13.43742 12.69174-1.70569 2.83692-2.49444 6.26694-2.63705 9.57409-.10443 2.42214.70974 4.80628 1.32035 7.15254.32859 1.26261.62145 2.56694 1.25624 3.70674.91157 1.63676 2.24772 3.01497 3.576 4.33617 1.74662 1.73731 3.53018 3.55632 5.7268 4.67156 2.97035 1.50805 6.33894 2.58191 9.6697 2.52387 6.1622-.10738 12.38311-2.20094 17.71674-5.28908 5.37975-3.11484 10.47959-7.42203 13.52373-12.84211 1.5181-2.70301 1.81906-5.99443 1.95853-9.09144.16359-3.63282.077-7.47486-1.32964-10.82828-.84611-2.01708-2.51926-3.60875-4.08604-5.13508-1.77247-1.72669-3.68837-3.41583-5.92781-4.46847-2.81064-1.32112-5.93994-2.26522-9.04856-2.29856zm-5.25238 19.0624 2.22208 3.89021 2.10013 3.67781-6.79492 3.92379-2.19885-3.81062-2.15852-3.73827z" fill="#84542e"/><path d="m361.68001 206.37527s4.31072 4.98926 7.14258 6.53799c2.2106 1.20896 4.78611 1.98305 7.30535 1.94085 5.36646-.0899 10.76644-1.96969 15.41462-4.65323 4.64798-2.68342 9.13819-6.32616 11.73692-11.02201 1.14285-2.06511 1.28585-4.58888 1.36586-6.94778.11044-3.25609-1.23123-9.69604-1.23123-9.69604l-13.34826 7.62497s1.50189 2.62906 2.25283 3.94359.12443 2.94688-.54076 4.18699c-.9845 1.83542-2.24464 2.6654-4.71988 4.09447s-4.13323 2.51435-6.39154 2.32068c-1.3054-.11195-2.37684-.15698-3.41222-1.95093-1.03538-1.79389-2.29029-3.96813-2.29029-3.96813z" fill="url(#e)" stroke-width="43.7974"/><path d="m403.41411 182.53505s-4.58333-4.84833-7.50165-6.32546c-2.25943-1.14363-4.85413-1.85232-7.38549-1.78064-5.36488.15191-10.76594 1.97003-15.41396 4.65349-4.64808 2.6835-8.97135 6.42261-11.73745 11.02201-1.27743 2.12407-1.92725 4.69569-1.95527 7.17414-.0353 3.12409 2.25957 9.09643 2.25957 9.09643l13.28413-7.58833s-1.51267-2.62082-2.269-3.93123c-.75633-1.31042-.0631-2.98352.62121-4.23574.98712-1.80624 2.14216-2.60094 4.65834-4.05366 2.51619-1.45272 4.17189-2.56812 6.45308-2.36149 1.29656.11744 2.60973.65404 3.36685 1.97939.75713 1.32535 2.27138 3.97606 2.27138 3.97606z" fill="url(#f)" stroke-width="43.7974"/></g><g stroke-width="6.49817" transform="matrix(-.31681232 -.03450242 .03450242 -.31681232 207.46201 112.79378)"><path d="m420.04933 160.48203c-.56161.38515-1.07534 1.84028-1.23069 2.86933-.15779 1.04521.10851 2.68077.33397 3.15351l4.35744 7.54783c.39598.57859 1.984 2.08814 3.31054 2.40803.96482.23267 1.73553.27254 2.94146-.46142l36.70384-20.91975c1.59255-1.13466 2.14315-1.49668 2.49882-2.66009.38445-1.25757.1094-2.91242-.63152-3.89418l-4.35737-7.54889c-.48999-.65371-1.77784-1.45519-2.85315-1.75753-1.17196-.32952-2.58763-.63781-3.65217.0143z" fill="#84542e"/><path d="m458.86417 143.76351-35.54476 20.55721c-.8616.42028-.78458.44231-.33867 1.22282l3.43877 6.01914c.43615.90831.46245.8178 1.27938.34601l35.6674-20.59853c.35176-.39318.59418-.83192 0-1.61924l-3.26088-5.65881c-.40944-.87006-.47232-.7133-1.24124-.2686z" fill="url(#q)" stroke-width="43.7974"/></g></g><use stroke-width="2.07087" transform="matrix(.9660959 -.25818349 .25818349 .9660959 .575588 16.749282)" xlink:href="#aY"/><use stroke-width="2.07087" transform="matrix(.914365 -.40489091 .40489091 .914365 5.800982 24.387737)" xlink:href="#aY"/><use stroke-width="2.07087" transform="matrix(.87793789 -.47877454 .47877454 .87793789 12.307204 25.360509)" xlink:href="#aY"/><use stroke-width="2.07087" transform="matrix(.83501078 -.55023358 .55023358 .83501078 18.647949 25.539588)" xlink:href="#aY"/><use stroke-width="2.07087" transform="matrix(.82368415 -.56704887 .56704887 .82368415 24.33792 19.997335)" xlink:href="#aY"/><use stroke-width="2.07087" transform="matrix(.72577459 -.68793258 .68793258 .72577459 31.821201 25.442633)" xlink:href="#aY"/><use stroke-width="2.07087" transform="matrix(.66669142 -.74533385 .74533385 .66669142 38.277142 24.178503)" xlink:href="#aY"/><use stroke-width="2.07087" transform="matrix(.60229685 -.7982722 .7982722 .60229685 44.311163 22.222048)" xlink:href="#aY"/></g><use transform="matrix(-1 0 0 1 132.29168 .048083)" xlink:href="#aX"/><path d="m38.343914 36.320397s2.643065 6.120828 3.786849 9.250082c1.228765 3.361753 2.71345 6.687442 3.299023 10.218498.642896 3.876714.762582 7.899193.19327 11.787394-.610514 4.169597-2.397054 8.084782-3.822506 12.050428-.813174 2.262274-2.694926 6.689514-2.694926 6.689514s4.7861-.502363 7.156153-.907955c1.457557-.249434 2.876643-.699331 4.336194-.936822 4.140075-.673655 8.319556-1.149021 12.507757-1.379241 2.023652-.111238 4.056394-.109853 6.080122 0 4.187337.227299 8.366959.691746 12.506584 1.361791 1.463907.23695 2.887165.68778 4.348828.938203 2.369495.405959 7.154085.912606 7.154085.912606s-1.880466-4.428738-2.693375-6.691581c-1.424999-3.966681-3.210035-7.882873-3.822506-12.053012-.570241-3.882607-.458285-7.899685.181901-11.771374.583908-3.531331 2.070126-6.856793 3.299023-10.218498 1.143688-3.12861 3.78685-9.248015 3.78685-9.248015s-6.116547 2.662317-9.277471 3.712952c-4.532603 1.506556-9.107823 3.077208-13.843599 3.698999-3.092647.406054-6.264907.405939-9.357569 0-4.73712-.621788-9.313967-2.191723-13.847734-3.698999-3.16094-1.050872-9.276953-3.71497-9.276953-3.71497zm22.573816 11.610661c3.456342.453144 7.001409.453591 10.45776.000517 5.085619-.666646 10.757548-2.322301 14.86731-3.966683-1.264708 3.087681-2.929584 7.293155-3.558439 11.140405-.702595 4.298384-.821637 8.754825-.194304 13.064836.655317 4.502269 4.085022 13.023495 4.085022 13.023495-.723098-.0921-3.536794-.834816-5.329261-1.122412-2.499325-.401009-5.020017-.698882-7.547472-.838192-5.023937-.276912-10.071024-.274652-15.094686.0072-2.527642.141813-5.048135.443702-7.547593.845943-1.792091.288403-4.606314 1.030086-5.328624 1.121896 0 0 3.431446-8.520973 4.085022-13.023495.626367-4.315078.500497-8.776398-.204639-13.079306-.630432-3.847045-3.558956-11.140387-3.558956-11.140387s9.782803 3.299375 14.86886 3.966183z" fill="#b7671e"/><g><path d="m58.717645 43.270535-2.180592 3.781238-1.494084 2.590805-6.476148 1.378312c-1.370794.291745-2.740497.588663-4.112382.875233-4.314126.90117-12.952486 2.654658-12.952486 2.654658s9.172001 9.965339 13.758002 14.948009c.818296.889075 2.454889 2.667226 2.454889 2.667226l-.895046 8.822404-.446482 4.400946-1.293238 12.747353 21.066406-11.900391 21.064453 11.900391-1.289537-12.764879-.444442-4.399446-.891021-8.82005s1.638274-1.779256 2.457411-2.668884c4.582558-4.976909 13.747672-14.930726 13.747672-14.930726s-8.627459-1.799921-12.941188-2.699882c-1.393659-.290755-2.787317-.58151-4.180976-.872265-2.140921-.446654-6.422762-1.339962-6.422762-1.339962l-1.437761-2.495013-2.232957-3.874953-7.42611-12.88687z" fill="#84542e"/><path d="m79.611782 66.856056c1.14801.0066 2.207673.524879 2.878123 1.314131l2.650055-2.903406 7.4676-8.090958-7.30038-1.516592-2.622744-.553925-5.278506-1.105806c-.27517 1.656292-1.71239 2.923646-3.45811 2.923646-1.94283 0-3.52504-1.562365-3.52504-3.4925 0-1.488546.9361-2.737115 2.25531-3.239294l-1.302744-2.259694-1.437286-2.512596-3.792005-7.869503.000264-.000265-3.792008 7.869504-1.436554 2.512351-1.303071 2.259542c1.318683.501914 2.254774 1.751012 2.254774 3.239823 0 1.930135-1.582203 3.4925-3.524774 3.4925-1.74625 0-3.18347-1.267354-3.458107-2.923646l-5.278969 1.105958-2.622945.553641-7.300384 1.516591 7.467865 8.090959 2.660412 2.918097c.67019-.788988 1.720587-1.31472 2.590008-1.314719s1.408349.125146 2.384169.671797c.975821.546651 1.649379 1.652565 1.649379 2.920449 0 1.930135-1.565272 3.4925-3.507843 3.4925-.396875 0-.780521-.0672-1.13665-.189442l-.735546 6.320898-.279137 2.453218-.734748 7.93273 13.063538-7.37975c-.127-.3609-.201084-.74878-.201084-1.15359 0-1.84097 1.423459-3.34169 3.241146-3.476623 1.81769.134933 3.24062 1.635653 3.24062 3.476623 0 .40534-.0746.79269-.20056 1.15359l13.06381 7.38002-.73449-7.93274-.269345-2.4683-.73555-6.320892c-.3556.119856-.738975.18997-1.135585.18997-1.94283 0-3.508377-1.5621-3.508377-3.4925 0-1.267354.672572-2.374635 1.910827-3.110966.714115-.354537 1.254162-.487441 1.834642-.480831z" fill="url(#r)" stroke-width="8.46667"/></g><g><path d="m69.036296 58.297559c-.30665.117078-.56809.32001-.74804.578908-.18388.264549-.30296.600771-.288071.922603.0192.415109.18539.857395.479861 1.150607.29581.294554.74056.467973 1.15792.477109.375069.0082.77164-.140887 1.05837-.382819.281329-.237385.481099-.575369.545-.96047l7.067084 1.469857-4.812045 5.214841c-.14949-.203729-.351991-.366852-.575599-.476647-.23325-.114527-.50157-.192336-.760541-.171053-.414969.0341-.861329.176771-1.157551.469371-.29385.290256-.479168.729442-.47969 1.142471-.000519.415461.18529.857185.47962 1.150408.29558.294466.74215.433702 1.15709.477308.17462.01835.35242-.03757.51805-.09525l.818426 7.079818-6.064316-2.749647c.0601-.167746.087-.347702.0672-.522023-.0419-.369174-.14469-.763523-.38676-1.045402-.23978-.279231-.59773-.535241-.96579-.535219-.36816.000022-.72606.256241-.96599.535484-.24208.28174-.3453.675808-.38735 1.044873-.0199.174228.005.353218.0672.521758l-6.063659 2.749647.818029-7.079553c.16563.05239.34307.113562.51752.09525.41502-.04357.86169-.182822 1.15732-.477341.29438-.293277.48015-.735103.47966-1.150641-.00049-.413034-.18565-.852304-.47949-1.14257-.29625-.29264-.74272-.435305-1.15775-.469271-.25905-.0212-.52738.05688-.76065.171516-.22356.109869-.42601.273249-.5755.476713l-4.811116-5.21537 7.066167-1.469857c.0635.385233.263689.7232.545099.960569.286921.242018.683791.391042 1.059061.38272.417189-.0093.861669-.182772 1.15733-.477242.29427-.293083.46036-.735071.47965-1.149945.015-.32196-.10387-.658427-.287801-.923099-.17983-.258774-.44112-.461599-.74778-.578412l2.89012-5.008465z" fill="#b21a1a" stroke="#b21a1a" stroke-width=".79375"/><path d="m66.146446 65.385211 7.349734 10.95941-6.064364-2.749744c.146024-.527453-.0097-1.193226-.319561-1.567425-.239779-.279231-.965808-.535217-.965808-.535217z" fill="url(#o)"/><path d="m63.362427 61.25821c-.222931.103999-.46961.162649-.70743.16795-.37527.0083-.77214-.140702-1.059061-.38272-.281409-.237369-.4816-.575336-.545099-.960569l-7.066099 1.469954 12.161709 3.832386z" fill="url(#l)"/><path d="m61.712776 67.32665c.136259.546528-.07835 1.200586-.42326 1.555701-.535375.410418-1.079463.551876-1.67484.382091l-.81815 7.079456 7.34987-10.958687z" fill="url(#p)"/><path d="m68.930147 61.258918c-.562465-.27153-.896899-.904003-.93003-1.459945.03157-.691892.445399-1.268393 1.03611-1.501511l-2.889643-5.008368-.000137 12.096117z" fill="url(#m)"/><path d="m66.146447 65.385211 12.161973-3.831857-4.812113 5.214744c-.342424-.397641-.84037-.681316-1.33614-.6477-.779456.118224-1.372776.477492-1.58032 1.205138z" fill="url(#n)" fill-rule="evenodd"/><path d="m68.930147 61.258918c.597975.256489 1.299579.167334 1.76612-.215048.28133-.237385.4811-.575369.545-.96047l7.067153 1.469954-12.161973 3.831857z" fill="url(#i)"/><path d="m73.49618 76.344621-.818473-7.079915c-.567786.192061-1.295276-.01796-1.67514-.382058-.40875-.51184-.526951-.987583-.42272-1.557112l-4.4334-1.940325z" fill="url(#h)"/><path d="m66.146584 53.289094-2.890188 5.008368c.613615.28 1.055378.861836 1.035581 1.501511-.0928.70986-.381601 1.136011-.92955 1.459237l2.78402 4.127001z" fill="url(#j)"/><path d="m61.289686 66.58914c-.29625-.29264-.74272-.435305-1.15775-.469271-.537236.01322-1.035464.247401-1.33615.648229l-4.811048-5.215273 12.161708 3.832386-4.43367 1.941439c-.076-.277724-.22481-.541639-.42309-.73751z" fill="url(#k)"/><path d="m58.796577 76.343898 6.06373-2.74955c-.150916-.524886.01235-1.195194.32015-1.566631.23959-.27885.59837-.534741.96599-.535482v-6.107024z" fill="url(#g)"/></g></g></svg>