<svg height="500" viewBox="0 0 132.29167 132.29167" width="500" xmlns="http://www.w3.org/2000/svg" xmlns:xlink="http://www.w3.org/1999/xlink"><filter id="a" color-interpolation-filters="sRGB" height="1.414109" width="1.384074" x="-.192037" y="-.207054"><feGaussianBlur stdDeviation="2.1501963"/></filter><filter id="b" color-interpolation-filters="sRGB" height="1.187764" width="1.221692" x="-.110846" y="-.093882"><feGaussianBlur stdDeviation="2.3011928"/></filter><filter id="c" color-interpolation-filters="sRGB" height="1.171482" width="1.212392" x="-.106196" y="-.085741"><feGaussianBlur stdDeviation="2.3011928"/></filter><filter id="d" color-interpolation-filters="sRGB" height="1.039933" width="1.047154" x="-.023577" y="-.019967"><feGaussianBlur stdDeviation=".48941167"/></filter><filter id="e" color-interpolation-filters="sRGB" height="1.03647" width="1.045171" x="-.022586" y="-.018235"><feGaussianBlur stdDeviation=".48941167"/></filter><mask id="f" maskUnits="userSpaceOnUse"><path d="m-13.229159-13.22917h158.749999v158.75002h-158.749999z" fill="url(#g)" filter="url(#h)" stroke-width="11.83"/></mask><radialGradient id="g" cx="66.145844" cy="66.145836" gradientTransform="matrix(-1.0000001 .00000145 0 -1 132.29169 132.29157)" gradientUnits="userSpaceOnUse" r="66.145836"><stop offset="0" stop-color="#fff"/><stop offset=".49999994" stop-color="#fff"/><stop offset=".74999988" stop-color="#808080"/><stop offset=".87499994" stop-color="#404040"/><stop offset="1"/></radialGradient><filter id="h" color-interpolation-filters="sRGB" height="1.0135" width="1.0135" x="-.00675" y="-.00675"><feGaussianBlur stdDeviation=".44648439"/></filter><radialGradient id="i" cx="703.05621" cy="1070.2185" gradientTransform="matrix(.12107523 -.12107523 .05841622 .05841622 -57.692804 112.54712)" gradientUnits="userSpaceOnUse" r="1011.8609" spreadMethod="pad"><stop offset="0" stop-color="#fff"/><stop offset=".08962709" stop-color="#fff" stop-opacity=".9104"/><stop offset="1" stop-color="#fff" stop-opacity="0"/></radialGradient><radialGradient id="j" cx="703.05621" cy="255.40021" gradientTransform="matrix(.12107523 -.12107523 .05841622 .05841622 -57.692804 112.54712)" gradientUnits="userSpaceOnUse" r="1011.8609"><stop offset="0" stop-color="#fff8b3"/><stop offset=".08962709" stop-color="#fff9b3" stop-opacity=".9104"/><stop offset="1" stop-color="#fff9b3" stop-opacity="0"/></radialGradient><radialGradient id="k" cx="4601.1221" cy="4277.6772" gradientTransform="matrix(0 1 -1 0 5224.5762 -3824.5764)" gradientUnits="userSpaceOnUse" r="11.2507" xlink:href="#l"/><linearGradient id="l"><stop offset="0" stop-color="#fff"/><stop offset=".1375" stop-color="#fff" stop-opacity=".8625"/><stop offset="1" stop-color="#fff" stop-opacity="0"/></linearGradient><radialGradient id="m" cx="4694.3481" cy="4395.814" gradientTransform="matrix(0 1 -1 0 5224.5762 -3824.5764)" gradientUnits="userSpaceOnUse" r="11.2507" xlink:href="#l"/><radialGradient id="n" cx="4845.7568" cy="4885.4878" gradientTransform="matrix(0 1 -1 0 5224.5762 -3824.5764)" gradientUnits="userSpaceOnUse" r="11.2507" xlink:href="#l"/><radialGradient id="o" cx="4996.8203" cy="4201.0781" gradientTransform="matrix(0 1 -1 0 5224.5762 -3824.5764)" gradientUnits="userSpaceOnUse" r="11.2507" xlink:href="#l"/><radialGradient id="p" cx="4264.2671" cy="4804.9849" gradientTransform="matrix(0 1 -1 0 5224.5762 -3824.5764)" gradientUnits="userSpaceOnUse" r="11.2507" xlink:href="#l"/><radialGradient id="q" cx="4253.0161" cy="4349.7529" gradientTransform="matrix(0 1 -1 0 5224.5762 -3824.5764)" gradientUnits="userSpaceOnUse" r="11.2507" xlink:href="#l"/><radialGradient id="r" cx="4291.9346" cy="4509.8506" gradientTransform="matrix(0 1 -1 0 5224.5762 -3824.5764)" gradientUnits="userSpaceOnUse" r="11.2507" xlink:href="#l"/><radialGradient id="s" cx="4178.7915" cy="4193.6758" gradientTransform="matrix(0 1 -1 0 5224.5762 -3824.5764)" gradientUnits="userSpaceOnUse" r="11.2507" xlink:href="#l"/><radialGradient id="t" cx="4508.9131" cy="4184.4229" gradientTransform="matrix(0 1 -1 0 5224.5762 -3824.5764)" gradientUnits="userSpaceOnUse" r="11.2507" xlink:href="#l"/><radialGradient id="u" cx="4169.5386" cy="4599.0166" gradientTransform="matrix(0 1 -1 0 5224.5762 -3824.5764)" gradientUnits="userSpaceOnUse" r="11.2507" xlink:href="#l"/><radialGradient id="v" cx="4024.0554" cy="4671.3345" gradientTransform="matrix(0 1 -1 0 5224.5762 -3824.5764)" gradientUnits="userSpaceOnUse" r="11.2507" xlink:href="#l"/><radialGradient id="w" cx="4381.2778" cy="4473.0386" gradientTransform="matrix(0 1 -1 0 5224.5762 -3824.5764)" gradientUnits="userSpaceOnUse" r="5.6228" xlink:href="#l"/><radialGradient id="x" cx="4207.3452" cy="4447.1753" gradientTransform="matrix(0 1 -1 0 5224.5762 -3824.5764)" gradientUnits="userSpaceOnUse" r="5.6228" xlink:href="#l"/><radialGradient id="y" cx="4156.0269" cy="4803.9863" gradientTransform="matrix(0 1 -1 0 5224.5762 -3824.5764)" gradientUnits="userSpaceOnUse" r="5.6228" xlink:href="#l"/><radialGradient id="z" cx="4201.7222" cy="5018.0508" gradientTransform="matrix(0 1 -1 0 5224.5762 -3824.5764)" gradientUnits="userSpaceOnUse" r="5.6228" xlink:href="#l"/><radialGradient id="A" cx="4756.5977" cy="4610.2671" gradientTransform="matrix(0 1 -1 0 5224.5762 -3824.5764)" gradientUnits="userSpaceOnUse" r="5.6228" xlink:href="#l"/><radialGradient id="B" cx="4724.8408" cy="4498.3604" gradientTransform="matrix(0 1 -1 0 5224.5762 -3824.5764)" gradientUnits="userSpaceOnUse" r="5.6228" xlink:href="#l"/><radialGradient id="C" cx="4755.5991" cy="4916.6094" gradientTransform="matrix(0 1 -1 0 5224.5762 -3824.5764)" gradientUnits="userSpaceOnUse" r="5.6228" xlink:href="#l"/><radialGradient id="D" cx="4815.3223" cy="4406.499" gradientTransform="matrix(0 1 -1 0 5224.5762 -3824.5764)" gradientUnits="userSpaceOnUse" r="5.6228" xlink:href="#l"/><radialGradient id="E" cx="4840.1343" cy="4528.7949" gradientTransform="matrix(0 1 -1 0 5224.5762 -3824.5764)" gradientUnits="userSpaceOnUse" r="5.6228" xlink:href="#l"/><radialGradient id="F" cx="4994.8228" cy="4675.311" gradientTransform="matrix(0 1 -1 0 5224.5762 -3824.5764)" gradientUnits="userSpaceOnUse" r="5.6228" xlink:href="#l"/><radialGradient id="G" cx="4625.9868" cy="4580.4009" gradientTransform="matrix(0 1 -1 0 5224.5762 -3824.5764)" gradientUnits="userSpaceOnUse" r="5.6228" xlink:href="#l"/><radialGradient id="H" cx="4832.085" cy="4231.3418" gradientTransform="matrix(0 1 -1 0 5224.5762 -3824.5764)" gradientUnits="userSpaceOnUse" r="5.6228" xlink:href="#l"/><radialGradient id="I" cx="4920.2227" cy="4281.3076" gradientTransform="matrix(0 1 -1 0 5224.5762 -3824.5764)" gradientUnits="userSpaceOnUse" r="5.6228" xlink:href="#l"/><radialGradient id="J" cx="4483.835" cy="4313.1982" gradientTransform="matrix(0 1 -1 0 5224.5762 -3824.5764)" gradientUnits="userSpaceOnUse" r="5.6228" xlink:href="#l"/><radialGradient id="K" cx="4664.439" cy="4695.5273" gradientTransform="matrix(0 1 -1 0 5224.5762 -3824.5764)" gradientUnits="userSpaceOnUse" r="11.2507" xlink:href="#l"/><radialGradient id="L" cx="4894.2646" cy="4681.8555" gradientTransform="matrix(0 1 -1 0 5224.5762 -3824.5764)" gradientUnits="userSpaceOnUse" r="11.2507" xlink:href="#l"/><radialGradient id="M" cx="4985.5698" cy="4361.0039" gradientTransform="matrix(0 1 -1 0 5224.5762 -3824.5764)" gradientUnits="userSpaceOnUse" r="11.2507" xlink:href="#l"/><radialGradient id="N" cx="4713.5898" cy="4089.8687" gradientTransform="matrix(0 1 -1 0 5224.5762 -3824.5764)" gradientUnits="userSpaceOnUse" r="11.2507" xlink:href="#l"/><radialGradient id="O" cx="4757.5957" cy="4804.9849" gradientTransform="matrix(0 1 -1 0 5224.5762 -3824.5764)" gradientUnits="userSpaceOnUse" r="11.2507" xlink:href="#l"/><radialGradient id="P" cx="4433.3354" cy="5016.0532" gradientTransform="matrix(0 1 -1 0 5224.5762 -3824.5764)" gradientUnits="userSpaceOnUse" r="11.2507" xlink:href="#l"/><radialGradient id="Q" cx="4371.5723" cy="4725.9341" gradientTransform="matrix(0 1 -1 0 5224.5762 -3824.5764)" gradientUnits="userSpaceOnUse" r="11.2507" xlink:href="#l"/><radialGradient id="R" cx="4510.9111" cy="4743.7231" gradientTransform="matrix(0 1 -1 0 5224.5762 -3824.5764)" gradientUnits="userSpaceOnUse" r="11.2507" xlink:href="#l"/><radialGradient id="S" cx="4269.4331" cy="4686.5615" gradientTransform="matrix(0 1 -1 0 5224.5762 -3824.5764)" gradientUnits="userSpaceOnUse" r="11.2507" xlink:href="#l"/><radialGradient id="T" cx="4072.584" cy="4883.4902" gradientTransform="matrix(0 1 -1 0 5224.5762 -3824.5764)" gradientUnits="userSpaceOnUse" r="11.2507" xlink:href="#l"/><radialGradient id="U" cx="4484.8335" cy="4664.189" gradientTransform="matrix(0 1 -1 0 5224.5762 -3824.5764)" gradientUnits="userSpaceOnUse" r="7.1455" xlink:href="#l"/><radialGradient id="V" cx="4613.2183" cy="4640.4971" gradientTransform="matrix(0 1 -1 0 5224.5762 -3824.5764)" gradientUnits="userSpaceOnUse" r="7.1455" xlink:href="#l"/><radialGradient id="W" cx="4091.8" cy="4252.5869" gradientTransform="matrix(0 1 -1 0 5224.5762 -3824.5764)" gradientUnits="userSpaceOnUse" r="7.1455" xlink:href="#l"/><radialGradient id="X" cx="4666.4365" cy="4863.9521" gradientTransform="matrix(0 1 -1 0 5224.5762 -3824.5764)" gradientUnits="userSpaceOnUse" r="7.1455" xlink:href="#l"/><radialGradient id="Y" cx="4894.2646" cy="4840.1016" gradientTransform="matrix(0 1 -1 0 5224.5762 -3824.5764)" gradientUnits="userSpaceOnUse" r="7.1455" xlink:href="#l"/><radialGradient id="Z" cx="4974.3188" cy="4809.6094" gradientTransform="matrix(0 1 -1 0 5224.5762 -3824.5764)" gradientUnits="userSpaceOnUse" r="7.1455" xlink:href="#l"/><radialGradient id="aa" cx="4589.1577" cy="4997.6572" gradientTransform="matrix(0 1 -1 0 5224.5762 -3824.5764)" gradientUnits="userSpaceOnUse" r="7.1455" xlink:href="#l"/><radialGradient id="ab" cx="4065.4385" cy="4519.7837" gradientTransform="matrix(0 1 -1 0 5224.5762 -3824.5764)" gradientUnits="userSpaceOnUse" r="7.1455" xlink:href="#l"/><radialGradient id="ac" cx="4347.4258" cy="4820.2441" gradientTransform="matrix(0 1 -1 0 5224.5762 -3824.5764)" gradientUnits="userSpaceOnUse" r="7.1455" xlink:href="#l"/><radialGradient id="ad" cx="4533.5781" cy="4593.1694" gradientTransform="matrix(0 1 -1 0 5224.5762 -3824.5764)" gradientUnits="userSpaceOnUse" r="7.1455" xlink:href="#l"/><radialGradient id="ae" cx="4448.2217" cy="4220.0913" gradientTransform="matrix(0 1 -1 0 5224.5762 -3824.5764)" gradientUnits="userSpaceOnUse" r="11.2507" xlink:href="#l"/><radialGradient id="af" cx="4908.2451" cy="4929.8579" gradientTransform="matrix(0 1 -1 0 5224.5762 -3824.5764)" gradientUnits="userSpaceOnUse" r="11.2507" xlink:href="#l"/><radialGradient id="ag" cx="4987.5674" cy="5014.0552" gradientTransform="matrix(0 1 -1 0 5224.5762 -3824.5764)" gradientUnits="userSpaceOnUse" r="11.2507" xlink:href="#l"/><radialGradient id="ah" cx="3991.5649" cy="4813.0986" gradientTransform="matrix(0 1 -1 0 5224.5762 -3824.5764)" gradientUnits="userSpaceOnUse" r="11.2507" xlink:href="#l"/><radialGradient id="ai" cx="4012.8047" cy="4351.751" gradientTransform="matrix(0 1 -1 0 5224.5762 -3824.5764)" gradientUnits="userSpaceOnUse" r="11.2507" xlink:href="#l"/><radialGradient id="aj" cx="4683.0972" cy="5027.3037" gradientTransform="matrix(0 1 -1 0 5224.5762 -3824.5764)" gradientUnits="userSpaceOnUse" r="11.2507" xlink:href="#l"/><radialGradient id="ak" cx="4367.481" cy="4195.6733" gradientTransform="matrix(0 1 -1 0 5224.5762 -3824.5764)" gradientUnits="userSpaceOnUse" r="11.2507" xlink:href="#l"/><radialGradient id="al" cx="4526.4326" cy="4089.8687" gradientTransform="matrix(0 1 -1 0 5224.5762 -3824.5764)" gradientUnits="userSpaceOnUse" r="11.2507" xlink:href="#l"/><radialGradient id="am" cx="4261.9028" cy="4242.5928" gradientTransform="matrix(0 1 -1 0 5224.5762 -3824.5764)" gradientUnits="userSpaceOnUse" r="11.2507" xlink:href="#l"/><radialGradient id="an" cx="16633.223" cy="4517.6021" gradientTransform="matrix(0 .2895 -1 0 5224.5762 -4086.6375)" gradientUnits="userSpaceOnUse" r="19.241899" xlink:href="#l"/><radialGradient id="ao" cx="-15595.086" cy="5031.6465" gradientTransform="matrix(.2895 0 0 1 5221.3418 -4303.4033)" gradientUnits="userSpaceOnUse" r="19.241899" xlink:href="#l"/><radialGradient id="ap" cx="16323.169" cy="4900.5503" gradientTransform="matrix(0 .2895 -1 0 5224.5762 -4086.6375)" gradientUnits="userSpaceOnUse" r="29.7325" xlink:href="#l"/><radialGradient id="aq" cx="-16917.998" cy="4941.8945" gradientTransform="matrix(.2895 0 0 1 5221.3418 -4303.4033)" gradientUnits="userSpaceOnUse" r="29.7325" xlink:href="#l"/><radialGradient id="ar" cx="17536.6" cy="5029.3018" gradientTransform="matrix(0 .2895 -1 0 5224.5762 -4086.6375)" gradientUnits="userSpaceOnUse" r="29.7325" xlink:href="#l"/><radialGradient id="as" cx="-17362.775" cy="5293.1509" gradientTransform="matrix(.2895 0 0 1 5221.3418 -4303.4033)" gradientUnits="userSpaceOnUse" r="29.7325" xlink:href="#l"/><radialGradient id="at" cx="15154.966" cy="4975.0698" gradientTransform="matrix(0 .2895 -1 0 5224.5762 -4086.6375)" gradientUnits="userSpaceOnUse" r="29.7325" xlink:href="#l"/><radialGradient id="au" cx="-17175.43" cy="4603.7305" gradientTransform="matrix(.2895 0 0 1 5221.3418 -4303.4033)" gradientUnits="userSpaceOnUse" r="29.7325" xlink:href="#l"/><radialGradient id="av" cx="16788.486" cy="4380.1377" gradientTransform="matrix(0 .2895 -1 0 5224.5762 -4086.6375)" gradientUnits="userSpaceOnUse" r="29.7325" xlink:href="#l"/><radialGradient id="aw" cx="-15120.208" cy="5076.5913" gradientTransform="matrix(.2895 0 0 1 5221.3418 -4303.4033)" gradientUnits="userSpaceOnUse" r="29.7325" xlink:href="#l"/><radialGradient id="ax" cx="15052.254" cy="4385.373" gradientTransform="matrix(0 .2895 -1 0 5224.5762 -4086.6375)" gradientUnits="userSpaceOnUse" r="29.7325" xlink:href="#l"/><radialGradient id="ay" cx="-15138.295" cy="4573.998" gradientTransform="matrix(.2895 0 0 1 5221.3418 -4303.4033)" gradientUnits="userSpaceOnUse" r="29.7325" xlink:href="#l"/><radialGradient id="az" cx="16060.047" cy="4376.7666" gradientTransform="matrix(0 .2895 -1 0 5224.5762 -4086.6375)" gradientUnits="userSpaceOnUse" r="29.7325" xlink:href="#l"/><radialGradient id="aA" cx="-15108.562" cy="4865.7275" gradientTransform="matrix(.2895 0 0 1 5221.3418 -4303.4033)" gradientUnits="userSpaceOnUse" r="29.7325" xlink:href="#l"/><radialGradient id="aB" cx="15866.068" cy="4081.2617" gradientTransform="matrix(0 .2895 -1 0 5224.5762 -4086.6375)" gradientUnits="userSpaceOnUse" r="29.7325" xlink:href="#l"/><radialGradient id="aC" cx="-14087.729" cy="4809.5757" gradientTransform="matrix(.2895 0 0 1 5221.3418 -4303.4033)" gradientUnits="userSpaceOnUse" r="29.7325" xlink:href="#l"/><radialGradient id="aD" cx="17890.787" cy="4106.2778" gradientTransform="matrix(0 .2895 -1 0 5224.5762 -4086.6375)" gradientUnits="userSpaceOnUse" r="29.7325" xlink:href="#l"/><radialGradient id="aE" cx="-14174.147" cy="5395.6787" gradientTransform="matrix(.2895 0 0 1 5221.3418 -4303.4033)" gradientUnits="userSpaceOnUse" r="29.7325" xlink:href="#l"/><radialGradient id="aF" cx="15420.522" cy="4902.7319" gradientTransform="matrix(0 .2895 -1 0 5224.5762 -4086.6375)" gradientUnits="userSpaceOnUse" r="19.241899" xlink:href="#l"/><radialGradient id="aG" cx="-16925.533" cy="4680.6021" gradientTransform="matrix(.2895 0 0 1 5221.3418 -4303.4033)" gradientUnits="userSpaceOnUse" r="19.241899" xlink:href="#l"/><radialGradient id="aH" cx="17559.291" cy="4676.2856" gradientTransform="matrix(0 .2895 -1 0 5224.5762 -4086.6375)" gradientUnits="userSpaceOnUse" r="19.241899" xlink:href="#l"/><radialGradient id="aI" cx="-16143.265" cy="5299.7192" gradientTransform="matrix(.2895 0 0 1 5221.3418 -4303.4033)" gradientUnits="userSpaceOnUse" r="19.241899" xlink:href="#l"/><radialGradient id="aJ" cx="16866.557" cy="4774.4922" gradientTransform="matrix(0 .2895 -1 0 5224.5762 -4086.6375)" gradientUnits="userSpaceOnUse" r="19.241899" xlink:href="#l"/><radialGradient id="aK" cx="-16482.523" cy="5099.1909" gradientTransform="matrix(.2895 0 0 1 5221.3418 -4303.4033)" gradientUnits="userSpaceOnUse" r="19.241899" xlink:href="#l"/><radialGradient id="aL" cx="16071.692" cy="4574.7783" gradientTransform="matrix(0 .2895 -1 0 5224.5762 -4086.6375)" gradientUnits="userSpaceOnUse" r="19.241899" xlink:href="#l"/><radialGradient id="aM" cx="-15792.604" cy="4869.0986" gradientTransform="matrix(.2895 0 0 1 5221.3418 -4303.4033)" gradientUnits="userSpaceOnUse" r="19.241899" xlink:href="#l"/><radialGradient id="aN" cx="16699.693" cy="4871.0977" gradientTransform="matrix(0 .2895 -1 0 5224.5762 -4086.6375)" gradientUnits="userSpaceOnUse" r="19.241899" xlink:href="#l"/><radialGradient id="aO" cx="-16816.252" cy="5050.8887" gradientTransform="matrix(.2895 0 0 1 5221.3418 -4303.4033)" gradientUnits="userSpaceOnUse" r="19.241899" xlink:href="#l"/><radialGradient id="aP" cx="18061.07" cy="4512.0322" gradientTransform="matrix(0 .2895 -1 0 5224.5762 -4086.6375)" gradientUnits="userSpaceOnUse" r="19.241899" xlink:href="#l"/><radialGradient id="aQ" cx="-15575.844" cy="5444.9717" gradientTransform="matrix(.2895 0 0 1 5221.3418 -4303.4033)" gradientUnits="userSpaceOnUse" r="19.241899" xlink:href="#l"/><radialGradient id="aR" cx="17188.609" cy="4244.9609" gradientTransform="matrix(0 .2895 -1 0 5224.5762 -4086.6375)" gradientUnits="userSpaceOnUse" r="19.241899" xlink:href="#l"/><radialGradient id="aS" cx="-14653.234" cy="5192.417" gradientTransform="matrix(.2895 0 0 1 5221.3418 -4303.4033)" gradientUnits="userSpaceOnUse" r="19.241899" xlink:href="#l"/><radialGradient id="aT" cx="15143.32" cy="4682.5854" gradientTransform="matrix(0 .2895 -1 0 5224.5762 -4086.6375)" gradientUnits="userSpaceOnUse" r="19.241899" xlink:href="#l"/><radialGradient id="aU" cx="-16165.027" cy="4600.3594" gradientTransform="matrix(.2895 0 0 1 5221.3418 -4303.4033)" gradientUnits="userSpaceOnUse" r="19.241899" xlink:href="#l"/><radialGradient id="aV" cx="17652.088" cy="4368.1597" gradientTransform="matrix(0 .2895 -1 0 5224.5762 -4086.6375)" gradientUnits="userSpaceOnUse" r="19.241899" xlink:href="#l"/><radialGradient id="aW" cx="-15078.83" cy="5326.5815" gradientTransform="matrix(.2895 0 0 1 5221.3418 -4303.4033)" gradientUnits="userSpaceOnUse" r="19.241899" xlink:href="#l"/><radialGradient id="aX" cx="3957.2905" cy="4201.0781" gradientTransform="matrix(0 1 -1 0 5224.5762 -3824.5764)" gradientUnits="userSpaceOnUse" r="11.2507" xlink:href="#l"/><radialGradient id="aY" cx="3955.2927" cy="4675.311" gradientTransform="matrix(0 1 -1 0 5224.5762 -3824.5764)" gradientUnits="userSpaceOnUse" r="5.6228" xlink:href="#l"/><radialGradient id="aZ" cx="3880.6929" cy="4281.3076" gradientTransform="matrix(0 1 -1 0 5224.5762 -3824.5764)" gradientUnits="userSpaceOnUse" r="5.6228" xlink:href="#l"/><radialGradient id="a0" cx="3946.0398" cy="4361.0039" gradientTransform="matrix(0 1 -1 0 5224.5762 -3824.5764)" gradientUnits="userSpaceOnUse" r="11.2507" xlink:href="#l"/><radialGradient id="a1" cx="14469.968" cy="4512.0322" gradientTransform="matrix(0 .2895 -1 0 5224.5762 -4086.6375)" gradientUnits="userSpaceOnUse" r="19.241899" xlink:href="#l"/><radialGradient id="a2" cx="-15575.844" cy="4405.4414" gradientTransform="matrix(.2895 0 0 1 5221.3418 -4303.4033)" gradientUnits="userSpaceOnUse" r="19.241899" xlink:href="#l"/><radialGradient id="a3" cx="16783.117" cy="4155.2524" gradientTransform="matrix(0 .2895 -1 0 5224.5762 -4086.6375)" gradientUnits="userSpaceOnUse" r="19.241899" xlink:href="#l"/><radialGradient id="a4" cx="-14343.332" cy="5075.0371" gradientTransform="matrix(.2895 0 0 1 5221.3418 -4303.4033)" gradientUnits="userSpaceOnUse" r="19.241899" xlink:href="#l"/><radialGradient id="a5" cx="15184.698" cy="4089.8687" gradientTransform="matrix(0 .2895 -1 0 5224.5762 -4086.6375)" gradientUnits="userSpaceOnUse" r="19.241899" xlink:href="#l"/><radialGradient id="a6" cx="-14117.461" cy="4612.3369" gradientTransform="matrix(.2895 0 0 1 5221.3418 -4303.4033)" gradientUnits="userSpaceOnUse" r="19.241899" xlink:href="#l"/><radialGradient id="a7" cx="14799.68" cy="4114.8848" gradientTransform="matrix(0 .2895 -1 0 5224.5762 -4086.6375)" gradientUnits="userSpaceOnUse" r="19.241899" xlink:href="#l"/><radialGradient id="a8" cx="-14203.88" cy="4500.8843" gradientTransform="matrix(.2895 0 0 1 5221.3418 -4303.4033)" gradientUnits="userSpaceOnUse" r="19.241899" xlink:href="#l"/><radialGradient id="a9" cx="4250.4473" cy="5175.2676" gradientTransform="matrix(0 -1 1 0 -5135.66355 5025.32025)" gradientUnits="userSpaceOnUse" r="11.2507" xlink:href="#l"/><radialGradient id="ba" cx="4163.4556" cy="5234.1792" gradientTransform="matrix(0 -1 1 0 -5135.66355 5025.32025)" gradientUnits="userSpaceOnUse" r="7.1455" xlink:href="#l"/><radialGradient id="bb" cx="4333.5586" cy="5224.1846" gradientTransform="matrix(0 -1 1 0 -5135.66355 5025.32025)" gradientUnits="userSpaceOnUse" r="11.2507" xlink:href="#l"/><radialGradient id="bc" cx="4028.946" cy="5182.6704" gradientTransform="matrix(0 -1 1 0 -5135.66355 5025.32025)" gradientUnits="userSpaceOnUse" r="11.2507" xlink:href="#l"/><radialGradient id="bd" cx="3952.3484" cy="5262.8999" gradientTransform="matrix(0 -1 1 0 -5135.66355 5025.32025)" gradientUnits="userSpaceOnUse" r="5.6228" xlink:href="#l"/><radialGradient id="be" cx="4358.6768" cy="4918.6069" gradientTransform="matrix(0 1 -1 0 5224.5762 -3824.5764)" gradientUnits="userSpaceOnUse" r="11.2507" xlink:href="#l"/><radialGradient id="bf" cx="5075.5581" cy="4804.9849" gradientTransform="matrix(0 1 -1 0 5224.5762 -3824.5764)" gradientUnits="userSpaceOnUse" r="11.2507" xlink:href="#l"/><radialGradient id="bg" cx="5064.3071" cy="4349.7529" gradientTransform="matrix(0 1 -1 0 5224.5762 -3824.5764)" gradientUnits="userSpaceOnUse" r="11.2507" xlink:href="#l"/><radialGradient id="bh" cx="5103.2256" cy="4509.8506" gradientTransform="matrix(0 1 -1 0 5224.5762 -3824.5764)" gradientUnits="userSpaceOnUse" r="11.2507" xlink:href="#l"/><radialGradient id="bi" cx="5192.5688" cy="4473.0386" gradientTransform="matrix(0 1 -1 0 5224.5762 -3824.5764)" gradientUnits="userSpaceOnUse" r="5.6228" xlink:href="#l"/><radialGradient id="bj" cx="5182.8633" cy="4725.9341" gradientTransform="matrix(0 1 -1 0 5224.5762 -3824.5764)" gradientUnits="userSpaceOnUse" r="11.2507" xlink:href="#l"/><radialGradient id="bk" cx="5080.7241" cy="4686.5615" gradientTransform="matrix(0 1 -1 0 5224.5762 -3824.5764)" gradientUnits="userSpaceOnUse" r="11.2507" xlink:href="#l"/><radialGradient id="bl" cx="5158.7168" cy="4820.2441" gradientTransform="matrix(0 1 -1 0 5224.5762 -3824.5764)" gradientUnits="userSpaceOnUse" r="7.1455" xlink:href="#l"/><radialGradient id="bm" cx="5073.1938" cy="4242.5928" gradientTransform="matrix(0 1 -1 0 5224.5762 -3824.5764)" gradientUnits="userSpaceOnUse" r="11.2507" xlink:href="#l"/><radialGradient id="bn" cx="18862.688" cy="4376.7666" gradientTransform="matrix(0 .2895 -1 0 5224.5762 -4086.6375)" gradientUnits="userSpaceOnUse" r="29.7325" xlink:href="#l"/><radialGradient id="bo" cx="-15108.562" cy="5677.0186" gradientTransform="matrix(.2895 0 0 1 5221.3418 -4303.4033)" gradientUnits="userSpaceOnUse" r="29.7325" xlink:href="#l"/><radialGradient id="bp" cx="18223.164" cy="4902.7319" gradientTransform="matrix(0 .2895 -1 0 5224.5762 -4086.6375)" gradientUnits="userSpaceOnUse" r="19.241899" xlink:href="#l"/><radialGradient id="bq" cx="-16925.533" cy="5491.8931" gradientTransform="matrix(.2895 0 0 1 5221.3418 -4303.4033)" gradientUnits="userSpaceOnUse" r="19.241899" xlink:href="#l"/><radialGradient id="br" cx="18874.334" cy="4574.7783" gradientTransform="matrix(0 .2895 -1 0 5224.5762 -4086.6375)" gradientUnits="userSpaceOnUse" r="19.241899" xlink:href="#l"/><radialGradient id="bs" cx="-15792.604" cy="5680.3896" gradientTransform="matrix(.2895 0 0 1 5221.3418 -4303.4033)" gradientUnits="userSpaceOnUse" r="19.241899" xlink:href="#l"/><radialGradient id="bt" cx="4756.5977" cy="3890.749" gradientTransform="matrix(0 1 -1 0 5224.5762 -3824.5764)" gradientUnits="userSpaceOnUse" r="5.6228" xlink:href="#l"/><radialGradient id="bu" cx="4625.9868" cy="3860.8828" gradientTransform="matrix(0 1 -1 0 5224.5762 -3824.5764)" gradientUnits="userSpaceOnUse" r="5.6228" xlink:href="#l"/><radialGradient id="bv" cx="4664.439" cy="3976.0093" gradientTransform="matrix(0 1 -1 0 5224.5762 -3824.5764)" gradientUnits="userSpaceOnUse" r="11.2507" xlink:href="#l"/><radialGradient id="bw" cx="4894.2646" cy="3962.3374" gradientTransform="matrix(0 1 -1 0 5224.5762 -3824.5764)" gradientUnits="userSpaceOnUse" r="11.2507" xlink:href="#l"/><radialGradient id="bx" cx="4371.5723" cy="4006.416" gradientTransform="matrix(0 1 -1 0 5224.5762 -3824.5764)" gradientUnits="userSpaceOnUse" r="11.2507" xlink:href="#l"/><radialGradient id="by" cx="4510.9111" cy="4024.2048" gradientTransform="matrix(0 1 -1 0 5224.5762 -3824.5764)" gradientUnits="userSpaceOnUse" r="11.2507" xlink:href="#l"/><radialGradient id="bz" cx="4269.4331" cy="3967.0435" gradientTransform="matrix(0 1 -1 0 5224.5762 -3824.5764)" gradientUnits="userSpaceOnUse" r="11.2507" xlink:href="#l"/><radialGradient id="bA" cx="4484.8335" cy="3944.6709" gradientTransform="matrix(0 1 -1 0 5224.5762 -3824.5764)" gradientUnits="userSpaceOnUse" r="7.1455" xlink:href="#l"/><radialGradient id="bB" cx="4613.2183" cy="3920.979" gradientTransform="matrix(0 1 -1 0 5224.5762 -3824.5764)" gradientUnits="userSpaceOnUse" r="7.1455" xlink:href="#l"/><radialGradient id="bC" cx="4533.5781" cy="3873.6511" gradientTransform="matrix(0 1 -1 0 5224.5762 -3824.5764)" gradientUnits="userSpaceOnUse" r="7.1455" xlink:href="#l"/><radialGradient id="bD" cx="17559.291" cy="3956.7673" gradientTransform="matrix(0 .2895 -1 0 5224.5762 -4086.6375)" gradientUnits="userSpaceOnUse" r="19.241899" xlink:href="#l"/><radialGradient id="bE" cx="-13657.657" cy="5299.7192" gradientTransform="matrix(.2895 0 0 1 5221.3418 -4303.4033)" gradientUnits="userSpaceOnUse" r="19.241899" xlink:href="#l"/><radialGradient id="bF" cx="16071.692" cy="3855.26" gradientTransform="matrix(0 .2895 -1 0 5224.5762 -4086.6375)" gradientUnits="userSpaceOnUse" r="19.241899" xlink:href="#l"/><radialGradient id="bG" cx="-13306.996" cy="4869.0986" gradientTransform="matrix(.2895 0 0 1 5221.3418 -4303.4033)" gradientUnits="userSpaceOnUse" r="19.241899" xlink:href="#l"/><radialGradient id="bH" cx="15143.32" cy="3963.0671" gradientTransform="matrix(0 .2895 -1 0 5224.5762 -4086.6375)" gradientUnits="userSpaceOnUse" r="19.241899" xlink:href="#l"/><radialGradient id="bI" cx="-13679.42" cy="4600.3594" gradientTransform="matrix(.2895 0 0 1 5221.3418 -4303.4033)" gradientUnits="userSpaceOnUse" r="19.241899" xlink:href="#l"/><radialGradient id="bJ" cx="219.91321" cy="-77.60083" gradientTransform="matrix(-.17106159 .22188824 -.21854058 -.16868376 234.42623 -60.164181)" gradientUnits="userSpaceOnUse" r="54.40234" spreadMethod="reflect"><stop offset="0" stop-color="#d4ebf7"/><stop offset="1" stop-color="#e8f5fc"/></radialGradient><filter id="bK" color-interpolation-filters="sRGB" height="1.027933" width="1.023949" x="-.011975" y="-.013966"><feGaussianBlur stdDeviation="2.3012281"/></filter><radialGradient id="bL" cx="4601.1221" cy="4277.6772" gradientTransform="matrix(0 .14277106 -.14490835 0 721.24408 -581.81013)" gradientUnits="userSpaceOnUse" r="11.2507" xlink:href="#bM"/><linearGradient id="bM"><stop offset="0" stop-color="#b3e4ff"/><stop offset=".1375" stop-color="#b3e4ff" stop-opacity=".85"/><stop offset="1" stop-color="#b3e4ff" stop-opacity="0"/></linearGradient><radialGradient id="bN" cx="4264.2671" cy="4804.9849" gradientTransform="matrix(0 .14277106 -.14490835 0 721.24408 -581.81013)" gradientUnits="userSpaceOnUse" r="11.2507" xlink:href="#bM"/><radialGradient id="bO" cx="4253.0161" cy="4349.7529" gradientTransform="matrix(0 .14277106 -.14490835 0 721.24408 -581.81013)" gradientUnits="userSpaceOnUse" r="11.2507" xlink:href="#bM"/><radialGradient id="bP" cx="4291.9346" cy="4509.8506" gradientTransform="matrix(0 .14277106 -.14490835 0 721.24408 -581.81013)" gradientUnits="userSpaceOnUse" r="11.2507" xlink:href="#bM"/><radialGradient id="bQ" cx="4178.7915" cy="4193.6758" gradientTransform="matrix(0 .14277106 -.14490835 0 721.24408 -581.81013)" gradientUnits="userSpaceOnUse" r="11.2507" xlink:href="#bM"/><radialGradient id="bR" cx="4508.9131" cy="4184.4229" gradientTransform="matrix(0 .14277106 -.14490835 0 721.24408 -581.81013)" gradientUnits="userSpaceOnUse" r="11.2507" xlink:href="#bM"/><radialGradient id="bS" cx="4169.5386" cy="4599.0166" gradientTransform="matrix(0 .14277106 -.14490835 0 721.24408 -581.81013)" gradientUnits="userSpaceOnUse" r="11.2507" xlink:href="#bM"/><radialGradient id="bT" cx="4381.2778" cy="4473.0386" gradientTransform="matrix(0 .14277106 -.14490835 0 721.24408 -581.81013)" gradientUnits="userSpaceOnUse" r="5.6228" xlink:href="#bM"/><radialGradient id="bU" cx="4207.3452" cy="4447.1753" gradientTransform="matrix(0 .14277106 -.14490835 0 721.24408 -581.81013)" gradientUnits="userSpaceOnUse" r="5.6228" xlink:href="#bM"/><radialGradient id="bV" cx="4156.0269" cy="4803.9863" gradientTransform="matrix(0 .14277106 -.14490835 0 721.24408 -581.81013)" gradientUnits="userSpaceOnUse" r="5.6228" xlink:href="#bM"/><radialGradient id="bW" cx="4625.9868" cy="4580.4009" gradientTransform="matrix(0 .14277106 -.14490835 0 721.24408 -581.81013)" gradientUnits="userSpaceOnUse" r="5.6228" xlink:href="#bM"/><radialGradient id="bX" cx="4483.835" cy="4313.1982" gradientTransform="matrix(0 .14277106 -.14490835 0 721.24408 -581.81013)" gradientUnits="userSpaceOnUse" r="5.6228" xlink:href="#bM"/><radialGradient id="bY" cx="4664.439" cy="4695.5273" gradientTransform="matrix(0 .14277106 -.14490835 0 721.24408 -581.81013)" gradientUnits="userSpaceOnUse" r="11.2507" xlink:href="#bM"/><radialGradient id="bZ" cx="4371.5723" cy="4725.9341" gradientTransform="matrix(0 .14277106 -.14490835 0 721.24408 -581.81013)" gradientUnits="userSpaceOnUse" r="11.2507" xlink:href="#bM"/><radialGradient id="b0" cx="4510.9111" cy="4743.7231" gradientTransform="matrix(0 .14277106 -.14490835 0 721.24408 -581.81013)" gradientUnits="userSpaceOnUse" r="11.2507" xlink:href="#bM"/><radialGradient id="b1" cx="4269.4331" cy="4686.5615" gradientTransform="matrix(0 .14277106 -.14490835 0 721.24408 -581.81013)" gradientUnits="userSpaceOnUse" r="11.2507" xlink:href="#bM"/><radialGradient id="b2" cx="4484.8335" cy="4664.189" gradientTransform="matrix(0 .14277106 -.14490835 0 721.24408 -581.81013)" gradientUnits="userSpaceOnUse" r="7.1455" xlink:href="#bM"/><radialGradient id="b3" cx="4613.2183" cy="4640.4971" gradientTransform="matrix(0 .14277106 -.14490835 0 721.24408 -581.81013)" gradientUnits="userSpaceOnUse" r="7.1455" xlink:href="#bM"/><radialGradient id="b4" cx="4091.8" cy="4252.5869" gradientTransform="matrix(0 .14277106 -.14490835 0 721.24408 -581.81013)" gradientUnits="userSpaceOnUse" r="7.1455" xlink:href="#bM"/><radialGradient id="b5" cx="4347.4258" cy="4820.2441" gradientTransform="matrix(0 .14277106 -.14490835 0 721.24408 -581.81013)" gradientUnits="userSpaceOnUse" r="7.1455" xlink:href="#bM"/><radialGradient id="b6" cx="4533.5781" cy="4593.1694" gradientTransform="matrix(0 .14277106 -.14490835 0 721.24408 -581.81013)" gradientUnits="userSpaceOnUse" r="7.1455" xlink:href="#bM"/><radialGradient id="b7" cx="4448.2217" cy="4220.0913" gradientTransform="matrix(0 .14277106 -.14490835 0 721.24408 -581.81013)" gradientUnits="userSpaceOnUse" r="11.2507" xlink:href="#bM"/><radialGradient id="b8" cx="4367.481" cy="4195.6733" gradientTransform="matrix(0 .14277106 -.14490835 0 721.24408 -581.81013)" gradientUnits="userSpaceOnUse" r="11.2507" xlink:href="#bM"/><radialGradient id="b9" cx="4526.4326" cy="4089.8687" gradientTransform="matrix(0 .14277106 -.14490835 0 721.24408 -581.81013)" gradientUnits="userSpaceOnUse" r="11.2507" xlink:href="#bM"/><radialGradient id="ca" cx="4261.9028" cy="4242.5928" gradientTransform="matrix(0 .14277106 -.14490835 0 721.24408 -581.81013)" gradientUnits="userSpaceOnUse" r="11.2507" xlink:href="#bM"/><radialGradient id="cb" cx="16633.223" cy="4517.6021" gradientTransform="matrix(0 .04133223 -.14490835 0 721.24408 -619.22488)" gradientUnits="userSpaceOnUse" r="19.241899" xlink:href="#bM"/><radialGradient id="cc" cx="-15595.086" cy="5031.6465" gradientTransform="matrix(.04195096 0 0 .14277106 720.77537 -650.17277)" gradientUnits="userSpaceOnUse" r="19.241899" xlink:href="#bM"/><radialGradient id="cd" cx="16323.169" cy="4900.5503" gradientTransform="matrix(0 .04133223 -.14490835 0 721.24408 -619.22488)" gradientUnits="userSpaceOnUse" r="29.7325" xlink:href="#bM"/><radialGradient id="ce" cx="-16917.998" cy="4941.8945" gradientTransform="matrix(.04195096 0 0 .14277106 720.77537 -650.17277)" gradientUnits="userSpaceOnUse" r="29.7325" xlink:href="#bM"/><radialGradient id="cf" cx="16788.486" cy="4380.1377" gradientTransform="matrix(0 .04133223 -.14490835 0 721.24408 -619.22488)" gradientUnits="userSpaceOnUse" r="29.7325" xlink:href="#bM"/><radialGradient id="cg" cx="-15120.208" cy="5076.5913" gradientTransform="matrix(.04195096 0 0 .14277106 720.77537 -650.17277)" gradientUnits="userSpaceOnUse" r="29.7325" xlink:href="#bM"/><radialGradient id="ch" cx="15052.254" cy="4385.373" gradientTransform="matrix(0 .04133223 -.14490835 0 721.24408 -617.84714)" gradientUnits="userSpaceOnUse" r="29.7325" xlink:href="#bM"/><radialGradient id="ci" cx="-15138.295" cy="4573.998" gradientTransform="matrix(.04195096 0 0 .14277106 720.77537 -648.79503)" gradientUnits="userSpaceOnUse" r="29.7325" xlink:href="#bM"/><radialGradient id="cj" cx="16060.047" cy="4376.7666" gradientTransform="matrix(0 .04133223 -.14490835 0 721.24408 -619.22488)" gradientUnits="userSpaceOnUse" r="29.7325" xlink:href="#bM"/><radialGradient id="ck" cx="-15108.562" cy="4865.7275" gradientTransform="matrix(.04195096 0 0 .14277106 720.77537 -650.17277)" gradientUnits="userSpaceOnUse" r="29.7325" xlink:href="#bM"/><radialGradient id="cl" cx="15866.068" cy="4081.2617" gradientTransform="matrix(0 .04133223 -.14490835 0 719.39892 -619.22488)" gradientUnits="userSpaceOnUse" r="29.7325" xlink:href="#bM"/><radialGradient id="cm" cx="-14087.729" cy="4809.5757" gradientTransform="matrix(.04195096 0 0 .14277106 718.93021 -650.17277)" gradientUnits="userSpaceOnUse" r="29.7325" xlink:href="#bM"/><radialGradient id="cn" cx="16866.557" cy="4774.4922" gradientTransform="matrix(0 .04133223 -.14490835 0 721.24408 -619.22488)" gradientUnits="userSpaceOnUse" r="19.241899" xlink:href="#bM"/><radialGradient id="co" cx="-16482.523" cy="5099.1909" gradientTransform="matrix(.04195096 0 0 .14277106 720.77537 -650.17277)" gradientUnits="userSpaceOnUse" r="19.241899" xlink:href="#bM"/><radialGradient id="cp" cx="16071.692" cy="4574.7783" gradientTransform="matrix(0 .04133223 -.14490835 0 721.24408 -619.22488)" gradientUnits="userSpaceOnUse" r="19.241899" xlink:href="#bM"/><radialGradient id="cq" cx="-15792.604" cy="4869.0986" gradientTransform="matrix(.04195096 0 0 .14277106 720.77537 -650.17277)" gradientUnits="userSpaceOnUse" r="19.241899" xlink:href="#bM"/><radialGradient id="cr" cx="16699.693" cy="4871.0977" gradientTransform="matrix(0 .04133223 -.14490835 0 721.24408 -619.22488)" gradientUnits="userSpaceOnUse" r="19.241899" xlink:href="#bM"/><radialGradient id="cs" cx="-16816.252" cy="5050.8887" gradientTransform="matrix(.04195096 0 0 .14277106 720.77537 -650.17277)" gradientUnits="userSpaceOnUse" r="19.241899" xlink:href="#bM"/><radialGradient id="ct" cx="15143.32" cy="4682.5854" gradientTransform="matrix(0 .04133223 -.14490835 0 721.24408 -619.22488)" gradientUnits="userSpaceOnUse" r="19.241899" xlink:href="#bM"/><radialGradient id="cu" cx="-16165.027" cy="4600.3594" gradientTransform="matrix(.04195096 0 0 .14277106 720.77537 -650.17277)" gradientUnits="userSpaceOnUse" r="19.241899" xlink:href="#bM"/><radialGradient id="cv" cx="16783.117" cy="4155.2524" gradientTransform="matrix(0 .04133223 -.14490835 0 721.24408 -619.22488)" gradientUnits="userSpaceOnUse" r="19.241899" xlink:href="#bM"/><radialGradient id="cw" cx="-14343.332" cy="5075.0371" gradientTransform="matrix(.04195096 0 0 .14277106 720.77537 -650.17277)" gradientUnits="userSpaceOnUse" r="19.241899" xlink:href="#bM"/><g mask="url(#f)" stroke-width=".094494"><path d="m30.833409 30.833409c-67.65774 67.657739-96.043753 148.969871-63.396059 181.617561 32.64769465 32.6477 113.959825 4.26168 181.61756-63.39606 67.65774-67.657735 96.04376-148.96986535 63.39606-181.61756-32.64769-32.647694-113.959822-4.261681-181.617561 63.396059z" fill="url(#i)" opacity=".3"/><path d="m-16.763244-16.763244c-67.65774 67.657739-96.043756 148.969874-63.396059 181.617564 32.647695 32.64769 113.959825 4.26168 181.617563-63.39606 67.65774-67.657738 96.04375-148.969868 63.39606-181.617563-32.64769-32.647697-113.959825-4.261681-181.617564 63.396059z" fill="url(#j)" opacity=".35"/></g><g opacity=".8" transform="matrix(.09660557 0 0 .09518071 -2.289553 -3.041022)"><circle cx="946.90002" cy="776.5" fill="url(#k)" opacity=".5" r="11.3"/><circle cx="828.79999" cy="869.79999" fill="url(#m)" opacity=".5" r="11.3"/><circle cx="339.10001" cy="1021.2" fill="url(#n)" opacity=".5" r="11.3"/><circle cx="1023.5" cy="1172.2" fill="url(#o)" opacity=".5" r="11.3"/><circle cx="419.60001" cy="439.70001" fill="url(#p)" opacity=".5" r="11.3"/><circle cx="874.79999" cy="428.39999" fill="url(#q)" opacity=".5" r="11.3"/><circle cx="714.70001" cy="467.39999" fill="url(#r)" opacity=".5" r="11.3"/><circle cx="1030.9" cy="354.20001" fill="url(#s)" opacity=".5" r="11.3"/><circle cx="1040.2" cy="684.29999" fill="url(#t)" opacity=".5" r="11.3"/><circle cx="625.59998" cy="345" fill="url(#u)" opacity=".5" r="11.3"/><circle cx="553.20001" cy="199.5" fill="url(#v)" opacity=".5" r="11.3"/><circle cx="751.5" cy="556.70001" fill="url(#w)" opacity=".5" r="5.6"/><circle cx="777.40002" cy="382.79999" fill="url(#x)" opacity=".5" r="5.6"/><circle cx="420.60001" cy="331.5" fill="url(#y)" opacity=".5" r="5.6"/><circle cx="206.5" cy="377.10001" fill="url(#z)" opacity=".5" r="5.6"/><circle cx="614.29999" cy="932" fill="url(#A)" opacity=".5" r="5.6"/><circle cx="726.20001" cy="900.29999" fill="url(#B)" opacity=".5" r="5.6"/><circle cx="308" cy="931" fill="url(#C)" opacity=".5" r="5.6"/><circle cx="818.09998" cy="990.70001" fill="url(#D)" opacity=".5" r="5.6"/><circle cx="695.79999" cy="1015.6" fill="url(#E)" opacity=".5" r="5.6"/><circle cx="549.29999" cy="1170.2" fill="url(#F)" opacity=".5" r="5.6"/><circle cx="644.20001" cy="801.40002" fill="url(#G)" opacity=".5" r="5.6"/><circle cx="993.20001" cy="1007.5" fill="url(#H)" opacity=".5" r="5.6"/><circle cx="943.29999" cy="1095.6" fill="url(#I)" opacity=".5" r="5.6"/><circle cx="911.40002" cy="659.29999" fill="url(#J)" opacity=".5" r="5.6"/><circle cx="529" cy="839.90002" fill="url(#K)" opacity=".5" r="11.3"/><circle cx="542.70001" cy="1069.7" fill="url(#L)" opacity=".5" r="11.3"/><circle cx="863.59998" cy="1161" fill="url(#M)" opacity=".5" r="11.3"/><circle cx="1134.7" cy="889" fill="url(#N)" opacity=".5" r="11.3"/><circle cx="419.60001" cy="933" fill="url(#O)" opacity=".5" r="11.3"/><circle cx="208.5" cy="608.79999" fill="url(#P)" opacity=".5" r="11.3"/><circle cx="498.60001" cy="547" fill="url(#Q)" opacity=".5" r="11.3"/><circle cx="480.89999" cy="686.29999" fill="url(#R)" opacity=".5" r="11.3"/><circle cx="538" cy="444.89999" fill="url(#S)" opacity=".5" r="11.3"/><circle cx="341.10001" cy="248" fill="url(#T)" opacity=".5" r="11.3"/><circle cx="560.40002" cy="660.29999" fill="url(#U)" opacity=".5" r="7.1"/><circle cx="584.09998" cy="788.59998" fill="url(#V)" opacity=".5" r="7.1"/><circle cx="972" cy="267.20001" fill="url(#W)" opacity=".5" r="7.1"/><circle cx="360.60001" cy="841.90002" fill="url(#X)" opacity=".5" r="7.1"/><circle cx="384.5" cy="1069.7" fill="url(#Y)" opacity=".5" r="7.1"/><circle cx="415" cy="1149.7" fill="url(#Z)" opacity=".5" r="7.1"/><circle cx="226.89999" cy="764.59998" fill="url(#aa)" opacity=".5" r="7.1"/><circle cx="704.79999" cy="240.89999" fill="url(#ab)" opacity=".5" r="7.1"/><circle cx="404.29999" cy="522.79999" fill="url(#ac)" opacity=".5" r="7.1"/><circle cx="631.40002" cy="709" fill="url(#ad)" opacity=".5" r="7.1"/><circle cx="1004.5" cy="623.59998" fill="url(#ae)" opacity=".5" r="11.3"/><circle cx="294.70001" cy="1083.7" fill="url(#af)" opacity=".5" r="11.3"/><circle cx="210.5" cy="1163" fill="url(#ag)" opacity=".5" r="11.3"/><circle cx="411.5" cy="167" fill="url(#ah)" opacity=".5" r="11.3"/><circle cx="872.79999" cy="188.2" fill="url(#ai)" opacity=".5" r="11.3"/><circle cx="197.3" cy="858.5" fill="url(#aj)" opacity=".5" r="11.3"/><circle cx="1028.9" cy="542.90002" fill="url(#ak)" opacity=".5" r="11.3"/><circle cx="1134.7" cy="701.90002" fill="url(#al)" opacity=".5" r="11.3"/><circle cx="982" cy="437.29999" fill="url(#am)" opacity=".5" r="11.3"/><ellipse cx="707" cy="728.20001" fill="url(#an)" rx="19.200001" ry="5.6"/><ellipse cx="707" cy="728.20001" fill="url(#ao)" rx="5.6" ry="19.200001"/><ellipse cx="324" cy="638.5" fill="url(#ap)" rx="29.700001" ry="8.6"/><ellipse cx="324" cy="638.5" fill="url(#aq)" rx="8.6" ry="29.700001"/><ellipse cx="195.3" cy="989.70001" fill="url(#ar)" rx="29.700001" ry="8.6"/><ellipse cx="195.3" cy="989.70001" fill="url(#as)" rx="8.6" ry="29.700001"/><ellipse cx="249.5" cy="300.29999" fill="url(#at)" rx="29.700001" ry="8.6"/><ellipse cx="249.5" cy="300.29999" fill="url(#au)" rx="8.6" ry="29.700001"/><ellipse cx="844.40002" cy="773.20001" fill="url(#av)" rx="29.700001" ry="8.6"/><ellipse cx="844.40002" cy="773.20001" fill="url(#aw)" rx="8.6" ry="29.700001"/><ellipse cx="839.20001" cy="270.60001" fill="url(#ax)" rx="29.700001" ry="8.6"/><ellipse cx="839.20001" cy="270.60001" fill="url(#ay)" rx="8.6" ry="29.700001"/><ellipse cx="847.79999" cy="562.29999" fill="url(#az)" rx="29.700001" ry="8.6"/><ellipse cx="847.79999" cy="562.29999" fill="url(#aA)" rx="8.6" ry="29.700001"/><ellipse cx="1143.3" cy="506.20001" fill="url(#aB)" rx="29.700001" ry="8.6"/><ellipse cx="1143.3" cy="506.20001" fill="url(#aC)" rx="8.6" ry="29.700001"/><ellipse cx="1118.3" cy="1092.3" fill="url(#aD)" rx="29.700001" ry="8.6"/><ellipse cx="1118.3" cy="1092.3" fill="url(#aE)" rx="8.6" ry="29.700001"/><ellipse cx="321.79999" cy="377.20001" fill="url(#aF)" rx="19.200001" ry="5.6"/><ellipse cx="321.79999" cy="377.20001" fill="url(#aG)" rx="5.6" ry="19.200001"/><ellipse cx="548.29999" cy="996.29999" fill="url(#aH)" rx="19.200001" ry="5.6"/><ellipse cx="548.29999" cy="996.29999" fill="url(#aI)" rx="5.6" ry="19.200001"/><ellipse cx="450.10001" cy="795.79999" fill="url(#aJ)" rx="19.200001" ry="5.6"/><ellipse cx="450.10001" cy="795.79999" fill="url(#aK)" rx="5.6" ry="19.200001"/><ellipse cx="649.79999" cy="565.70001" fill="url(#aL)" rx="19.200001" ry="5.6"/><ellipse cx="649.79999" cy="565.70001" fill="url(#aM)" rx="5.6" ry="19.200001"/><ellipse cx="353.5" cy="747.5" fill="url(#aN)" rx="19.200001" ry="5.6"/><ellipse cx="353.5" cy="747.5" fill="url(#aO)" rx="5.6" ry="19.200001"/><ellipse cx="712.5" cy="1141.6" fill="url(#aP)" rx="19.200001" ry="5.6"/><ellipse cx="712.5" cy="1141.6" fill="url(#aQ)" rx="5.6" ry="19.200001"/><ellipse cx="979.59998" cy="889" fill="url(#aR)" rx="19.200001" ry="5.6"/><ellipse cx="979.59998" cy="889" fill="url(#aS)" rx="5.6" ry="19.200001"/><ellipse cx="542" cy="297" fill="url(#aT)" rx="19.200001" ry="5.6"/><ellipse cx="542" cy="297" fill="url(#aU)" rx="5.6" ry="19.200001"/><ellipse cx="856.40002" cy="1023.2" fill="url(#aV)" rx="19.200001" ry="5.6"/><ellipse cx="856.40002" cy="1023.2" fill="url(#aW)" rx="5.6" ry="19.200001"/><circle cx="1023.5" cy="132.7" fill="url(#aX)" opacity=".5" r="11.3"/><circle cx="549.29999" cy="130.7" fill="url(#aY)" opacity=".5" r="5.6"/><circle cx="943.29999" cy="56.099998" fill="url(#aZ)" opacity=".5" r="5.6"/><circle cx="863.59998" cy="121.5" fill="url(#a0)" opacity=".5" r="11.3"/><ellipse cx="712.5" cy="102" fill="url(#a1)" rx="19.200001" ry="5.6"/><ellipse cx="712.5" cy="102" fill="url(#a2)" rx="5.6" ry="19.200001"/><ellipse cx="1069.3" cy="771.59998" fill="url(#a3)" rx="19.200001" ry="5.6"/><ellipse cx="1069.3" cy="771.59998" fill="url(#a4)" rx="5.6" ry="19.200001"/><ellipse cx="1134.7" cy="308.89999" fill="url(#a5)" rx="19.200001" ry="5.6"/><ellipse cx="1134.7" cy="308.89999" fill="url(#a6)" rx="5.6" ry="19.200001"/><ellipse cx="1109.7" cy="197.5" fill="url(#a7)" rx="19.200001" ry="5.6"/><ellipse cx="1109.7" cy="197.5" fill="url(#a8)" rx="5.6" ry="19.200001"/><circle cx="39.599998" cy="774.90002" fill="url(#a9)" opacity=".5" r="11.3"/><circle cx="98.5" cy="861.90002" fill="url(#ba)" opacity=".5" r="7.1"/><circle cx="88.5" cy="691.79999" fill="url(#bb)" opacity=".5" r="11.3"/><circle cx="47" cy="996.40002" fill="url(#bc)" opacity=".5" r="11.3"/><circle cx="127.2" cy="1073" fill="url(#bd)" opacity=".5" r="5.6"/><circle cx="306" cy="534.09998" fill="url(#be)" opacity=".5" r="11.3"/><circle cx="419.60001" cy="1251" fill="url(#bf)" opacity=".5" r="11.3"/><circle cx="874.79999" cy="1239.7" fill="url(#bg)" opacity=".5" r="11.3"/><circle cx="714.70001" cy="1278.6" fill="url(#bh)" opacity=".5" r="11.3"/><circle cx="751.5" cy="1368" fill="url(#bi)" opacity=".5" r="5.6"/><circle cx="498.60001" cy="1358.3" fill="url(#bj)" opacity=".5" r="11.3"/><circle cx="538" cy="1256.1" fill="url(#bk)" opacity=".5" r="11.3"/><circle cx="404.29999" cy="1334.1" fill="url(#bl)" opacity=".5" r="7.1"/><circle cx="982" cy="1248.6" fill="url(#bm)" opacity=".5" r="11.3"/><ellipse cx="847.79999" cy="1373.6" fill="url(#bn)" rx="29.700001" ry="8.6"/><ellipse cx="847.79999" cy="1373.6" fill="url(#bo)" rx="8.6" ry="29.700001"/><ellipse cx="321.79999" cy="1188.5" fill="url(#bp)" rx="19.200001" ry="5.6"/><ellipse cx="321.79999" cy="1188.5" fill="url(#bq)" rx="5.6" ry="19.200001"/><ellipse cx="649.79999" cy="1377" fill="url(#br)" rx="19.200001" ry="5.6"/><ellipse cx="649.79999" cy="1377" fill="url(#bs)" rx="5.6" ry="19.200001"/><circle cx="1333.8" cy="932" fill="url(#bt)" opacity=".5" r="5.6"/><circle cx="1363.7" cy="801.40002" fill="url(#bu)" opacity=".5" r="5.6"/><circle cx="1248.6" cy="839.90002" fill="url(#bv)" opacity=".5" r="11.3"/><circle cx="1262.2" cy="1069.7" fill="url(#bw)" opacity=".5" r="11.3"/><circle cx="1218.2" cy="547" fill="url(#bx)" opacity=".5" r="11.3"/><circle cx="1200.4" cy="686.29999" fill="url(#by)" opacity=".5" r="11.3"/><circle cx="1257.5" cy="444.89999" fill="url(#bz)" opacity=".5" r="11.3"/><circle cx="1279.9" cy="660.29999" fill="url(#bA)" opacity=".5" r="7.1"/><circle cx="1303.6" cy="788.59998" fill="url(#bB)" opacity=".5" r="7.1"/><circle cx="1350.9" cy="709" fill="url(#bC)" opacity=".5" r="7.1"/><ellipse cx="1267.8" cy="996.29999" fill="url(#bD)" rx="19.200001" ry="5.6"/><ellipse cx="1267.8" cy="996.29999" fill="url(#bE)" rx="5.6" ry="19.200001"/><ellipse cx="1369.3" cy="565.70001" fill="url(#bF)" rx="19.200001" ry="5.6"/><ellipse cx="1369.3" cy="565.70001" fill="url(#bG)" rx="5.6" ry="19.200001"/><ellipse cx="1261.5" cy="297" fill="url(#bH)" rx="19.200001" ry="5.6"/><ellipse cx="1261.5" cy="297" fill="url(#bI)" rx="5.6" ry="19.200001"/><g fill="#fff"><circle cx="946.90002" cy="776.5" r="2"/><circle cx="828.79999" cy="869.79999" r="2"/><circle cx="339.10001" cy="1021.2" r="2"/><circle cx="1023.5" cy="1172.2" r="2"/><circle cx="419.60001" cy="439.70001" r="2"/><circle cx="874.79999" cy="428.39999" r="2"/><circle cx="714.70001" cy="467.39999" r="2"/><circle cx="1030.9" cy="354.20001" r="2"/><circle cx="1040.2" cy="684.29999" r="2"/><circle cx="625.59998" cy="345" r="2"/><circle cx="553.20001" cy="199.5" r="2"/><circle cx="751.5" cy="556.70001" r="1"/><circle cx="777.40002" cy="382.79999" r="1"/><circle cx="420.60001" cy="331.5" r="1"/><circle cx="206.5" cy="377.10001" r="1"/><circle cx="614.29999" cy="932" r="1"/><circle cx="726.20001" cy="900.29999" r="1"/><circle cx="308" cy="931" r="1"/><circle cx="818.09998" cy="990.70001" r="1"/><circle cx="695.79999" cy="1015.6" r="1"/><circle cx="549.29999" cy="1170.2" r="1"/><circle cx="644.20001" cy="801.40002" r="1"/><circle cx="993.20001" cy="1007.5" r="1"/><circle cx="943.29999" cy="1095.6" r="1"/><circle cx="911.40002" cy="659.29999" r="1"/><circle cx="529" cy="839.90002" r="2"/><circle cx="542.70001" cy="1069.7" r="2"/><circle cx="863.59998" cy="1161" r="2"/><circle cx="1134.7" cy="889" r="2"/><circle cx="419.60001" cy="933" r="2"/><circle cx="208.5" cy="608.79999" r="2"/><circle cx="498.60001" cy="547" r="2"/><circle cx="480.89999" cy="686.29999" r="2"/><circle cx="538" cy="444.89999" r="2"/><circle cx="341.10001" cy="248" r="2"/><circle cx="560.40002" cy="660.29999" r="1.3"/><circle cx="584.09998" cy="788.59998" r="1.3"/><circle cx="972" cy="267.20001" r="1.3"/><circle cx="360.60001" cy="841.90002" r="1.3"/><circle cx="384.5" cy="1069.7" r="1.3"/><circle cx="415" cy="1149.7" r="1.3"/><circle cx="226.89999" cy="764.59998" r="1.3"/><circle cx="704.79999" cy="240.89999" r="1.3"/><circle cx="404.29999" cy="522.79999" r="1.3"/><circle cx="631.40002" cy="709" r="1.3"/><circle cx="1004.5" cy="623.59998" r="2"/><circle cx="294.70001" cy="1083.7" r="2"/><circle cx="210.5" cy="1163" r="2"/><circle cx="411.5" cy="167" r="2"/><circle cx="872.79999" cy="188.2" r="2"/><circle cx="197.3" cy="858.5" r="2"/><circle cx="1028.9" cy="542.90002" r="2"/><circle cx="1134.7" cy="701.90002" r="2"/><circle cx="982" cy="437.29999" r="2"/><circle cx="707" cy="728.20001" r="2.2"/><circle cx="324" cy="638.5" r="3.4"/><circle cx="195.3" cy="989.70001" r="3.4"/><circle cx="249.5" cy="300.29999" r="3.4"/><circle cx="844.40002" cy="773.20001" r="3.4"/><circle cx="839.20001" cy="270.60001" r="3.4"/><circle cx="847.79999" cy="562.29999" r="3.4"/><circle cx="1143.3" cy="506.20001" r="3.4"/><circle cx="1118.3" cy="1092.3" r="3.4"/><circle cx="321.79999" cy="377.20001" r="2.2"/><circle cx="548.29999" cy="996.29999" r="2.2"/><circle cx="450.10001" cy="795.79999" r="2.2"/><circle cx="649.79999" cy="565.70001" r="2.2"/><circle cx="353.5" cy="747.5" r="2.2"/><circle cx="712.5" cy="1141.6" r="2.2"/><circle cx="979.59998" cy="889" r="2.2"/><circle cx="542" cy="297" r="2.2"/><circle cx="856.40002" cy="1023.2" r="2.2"/><circle cx="1023.5" cy="132.7" r="2"/><circle cx="549.29999" cy="130.7" r="1"/><circle cx="943.29999" cy="56.099998" r="1"/><circle cx="863.59998" cy="121.5" r="2"/><circle cx="712.5" cy="102" r="2.2"/><circle cx="1069.3" cy="771.59998" r="2.2"/><circle cx="1134.7" cy="308.89999" r="2.2"/><circle cx="1109.7" cy="197.5" r="2.2"/><circle cx="39.599998" cy="774.90002" r="2"/><circle cx="98.5" cy="861.90002" r="1.3"/><circle cx="88.5" cy="691.79999" r="2"/><circle cx="47" cy="996.40002" r="2"/><circle cx="127.2" cy="1073" r="1"/><circle cx="306" cy="534.09998" r="2"/><circle cx="419.60001" cy="1251" r="2"/><circle cx="874.79999" cy="1239.7" r="2"/><circle cx="714.70001" cy="1278.6" r="2"/><circle cx="751.5" cy="1368" r="1"/><circle cx="498.60001" cy="1358.3" r="2"/><circle cx="538" cy="1256.1" r="2"/><circle cx="404.29999" cy="1334.1" r="1.3"/><circle cx="982" cy="1248.6" r="2"/><circle cx="847.79999" cy="1373.6" r="3.4"/><circle cx="321.79999" cy="1188.5" r="2.2"/><circle cx="649.79999" cy="1377" r="2.2"/><circle cx="1333.8" cy="932" r="1"/><circle cx="1363.7" cy="801.40002" r="1"/><circle cx="1248.6" cy="839.90002" r="2"/><circle cx="1262.2" cy="1069.7" r="2"/><circle cx="1218.2" cy="547" r="2"/><circle cx="1200.4" cy="686.29999" r="2"/><circle cx="1257.5" cy="444.89999" r="2"/><circle cx="1279.9" cy="660.29999" r="1.3"/><circle cx="1303.6" cy="788.59998" r="1.3"/><circle cx="1350.9" cy="709" r="1.3"/><circle cx="1267.8" cy="996.29999" r="2.2"/><circle cx="1369.3" cy="565.70001" r="2.2"/><circle cx="1261.5" cy="297" r="2.2"/></g></g><g stroke-width="1.12421" transform="matrix(.87793898 .14299982 -.14299982 .87793898 -217.72031 -46.605611)"><g stroke-width="1.31363" transform="matrix(.85580028 0 0 .85580028 48.343334 10.321134)"><use opacity=".75" transform="matrix(1.313643 0 0 1.313643 434.55476 -18.26492)" xlink:href="#cx"/><g stroke-width="3.51499" transform="matrix(.48455076 -.07892425 .07892425 .48455076 305.1147 87.560454)"><g stroke="none" stroke-width="3.52329" transform="matrix(.85172933 0 0 .67718457 -116.02886 38.413342)"><path d="m202.36092 11.014899c-9.53346 6.068022-18.28667 14.071489-26.54492 22.598609-6.69563 6.913617-14.13935 13.553402-18.48047 22.982422-1.59244 3.458809-2.14319 9.467895-2.43905 11.591523-.13992 1.004372-.73343 3.083936.44141 5.841797 1.84257 4.325375 5.28939 6.420928 7.49609 8.017578 2.33777 1.691481 4.12291 2.058609 4.59571 2.333984 1.23937.721857 3.30347 3.607704 7.87109 5.126953 5.12727 1.705392 9.23183.505896 11.4707.712891 3.48407.32212 7.34333 1.207688 11.69727 1.626953 3.51999.338959 7.03049.50829 10.51172.56836 4.46598.07706 8.3913-.418217 11.76758-.238282 2.20118.11731 5.40391 1.262377 9.73437 1.19336 5.55755-.08858 10.5415-1.423363 15.04492-2.347657 4.21921-.865961 9.53601-1.235944 14.86328-3.857421 2.95223-1.452746 4.46375-3.361671 5.48243-4.179688.66171-.531369 2.53641-1.378716 4.36328-3.734375 1.15793-1.493107 3.19842-3.823847 3.1914-7.689453-.009-4.641459-1.17239-9.389272-2.95353-13.474336-4.2107-9.657264-11.04981-17.221414-17.60156-24.529297-8.0093-8.93364-16.60968-17.410728-26.24219-23.285156-3.85771-2.3526424-8.04432-4.7473851-12.33007-4.6034909-4.22288.1417831-8.17024 2.9456275-11.93946 5.3447259z" fill="#77a1bb"/><path d="m266.1847 60.600639c-2.45835-4.196115-5.08112-8.318356-7.9035-12.294484-2.82237-3.976128-5.84436-7.806142-9.10116-11.417805-3.80893-4.223951-8.15746-8.354742-12.57138-12.194092-4.41391-3.83935-8.89322-7.387258-12.9637-10.445445-3.48642-2.619374-6.33413-3.650192-9.27231-3.607856-2.93819.04234-5.7912 1.854727-8.97519 4.310854-4.2459 3.274285-8.76396 6.769149-13.21417 10.464589-4.45022 3.695439-8.83259 7.591454-12.80714 11.668039-3.2699 3.353845-6.57784 6.755666-9.62187 10.350934s-5.82417 7.383984-8.03847 11.51162c-.77592 1.446373-1.66921 8.300896-1.89569 9.92655-.14761 1.059558-.32797 2.223864.0913 3.208073 1.08768 2.553289 3.58903 4.309852 5.8375 5.936721 1.26017.911791 2.83951 1.284079 4.18359 2.066925 2.41442 1.406252 4.2861 3.822972 6.93738 4.704821 3.28033 1.091078 6.91763.161427 10.35997.479689 3.92605.362984 7.79111 1.250585 11.71575 1.628511 3.36278.323821 6.74247.487549 10.12031.545835 3.98266.06872 7.96992-.443493 11.94753-.23151 3.1504.167898 6.23528 1.238369 9.38975 1.188094 4.76696-.07598 9.45492-1.288165 14.12514-2.246692 4.60257-.944644 9.45157-1.373545 13.66731-3.44805 1.73783-.855161 3.05336-2.383983 4.56355-3.596696 1.19176-.957007 2.61229-1.695682 3.54897-2.903488 1.04331-1.345303 2.15151-2.931048 2.14842-4.633494-.004-2.113101-1.20372-9.1484-2.27189-10.971643z" fill="url(#bJ)"/></g><path d="m170.666 68.290435-81.199236 34.865235-9.84179 13.44141-61.832029 83.27148-9.445313 13.58789 202.625008 222.07031 39.04492 42.79297 39.04492-42.79297 202.58985-222.03515-9.46875-13.61524-63.99415-84.05859-10.33789-12.70703-77.90039-34.820315zm3.10546 16h152.49219l59.7793 25.505865-113.21666 34.71083-22.80873 6.87901-22.80915-6.85153-115.6409-34.73986zm-71.26953 39.486325 124.70703 37.46485-70.3125 54.09961zm292.5293 0-52.82031 90.60938-69.38477-53.14453zm15.10352 7.875 53.82812 70.70508-106.59375 19.79102zm-322.259776.67383 53.101566 89.82227-105.103526-19.79102zm167.837876 34.16255 70.5508 58.94878-76.24609 3.08203-76.2461-3.08203 70.64241-59.0267zm209.09573 52.68511-187.56446 205.57031 74.89258-185.77734zm-429.582036.002 112.669926 19.78906 74.89649 185.7793zm130.556646 23.08003h.002l84.23242 3.08203 84.23238-3.08203-84.23438 208.08008z" fill="#77a1bb" stroke-width="44.1927" transform="matrix(.01085653 -.0117802 .0117802 .01085653 96.051125 85.505833)"/><g stroke-width="44.1927" transform="matrix(.00675916 .01452416 -.01452416 .00675916 61.566176 48.301863)"><g opacity=".67" stroke-width="85.625"><g fill="#e5f6ff"><g transform="matrix(-1 0 0 1 125.26851 23.305445)"><path d="m-124.7495 213.62288-92.6854-4.01693h-.0009-.0009l92.6863 238.8231"/><path d="m-124.7504 448.42905-92.6854-238.8231-139.66277-19.45495z"/><path d="m-280.17645 86.559075-76.92212 103.591925 139.66277 19.45495z"/><path d="m-124.74905 133.25186-92.68675 76.3541 92.6863 4.01693"/><path d="m-217.4358 209.60595 92.68675-76.35409-155.4274-46.692785z"/></g><path d="m250.01711 236.92833-92.6854-4.01693h-.0009-.0009l92.6863 238.8231"/><path d="m250.01621 471.7345-92.6854-238.8231-139.662773-19.45495z"/><path d="m94.590154 109.86452-76.922117 103.59193 139.662773 19.45495z"/><path d="m250.01756 156.55731-92.68675 76.35409 92.6863 4.01693"/><path d="m157.33081 232.9114 92.68675-76.35409-155.427406-46.69279z"/><path d="m405.44496 109.86452-155.42742 46.692-155.427516-46.69241 82.149006-33.574325 155.39184.00003z"/></g><g fill="#b3e4ff" filter="url(#bK)" transform="translate(.000019 23.305445)"><path d="m157.32989 209.60596 92.6863 238.8231.0009-234.80617-92.6854-4.01693"/><path d="m94.590138 86.559082-76.92212 103.591928 71.260547 9.76684z"/><path d="m410.66664 188.94803 53.29665-9.89512-53.82945-70.7067"/><path d="m342.21129 191.08066 52.8192-90.60945-61.10212 18.73244z"/><path d="m166.62303 108.19888-72.032892-21.639798 62.740652 123.046878z"/><path d="m250.01619 447.23896 228.86967-251.36865-70.41297 9.89467z"/><path d="m88.928565 199.91785-71.260531-9.76684 232.348156 258.27805z"/><path d="m281.82811 60.984994c18.84955.986529 38.37271.05666 56.31642 5.913444 12.05052 3.933259 32.88085 12.749309 32.88085 19.105468 0 3.105743-8.84311 6.922418-13.8711 9.320313-7.87662 3.756431-16.55431 5.589571-25.02279 7.695961-27.04456 6.72689-54.24535 15.68278-82.11393 15.72372-28.28741.0416-56.4186-8.38812-83.39453-15.71509 0 0-12.44464-2.92461-18.26172-5.485841-6.87348-3.026364-19.35156-7.63523-19.35156-11.539063 0-6.356159 22.8309-15.370171 35.84506-19.105468 27.3516-7.850398 58.60734-5.882194 85.16275-5.91211 0 0 21.22153-.555532 31.81055-.0013zm-105.08852-8.000114-82.149452 33.574202 155.427402 46.692788 155.4274-46.692785-73.31345-33.574205z"/><path d="m250.01754 133.25187-92.68675 76.35409 92.6863 4.01693z" opacity="1"/></g></g><path d="m170.666 68.290435-81.199236 34.865235-9.84179 13.44141-61.832029 83.27148-9.445313 13.58789 202.625008 222.07031 39.04492 42.79297 39.04492-42.79297 202.58985-222.03515-9.46875-13.61524-63.99415-84.05859-10.33789-12.70703-77.90039-34.820315zm3.10546 16h152.49219l59.7793 25.505865-113.21666 34.71083-22.80873 6.87901-22.80915-6.85153-115.6409-34.73986zm-71.26953 39.486325 124.70703 37.46485-70.3125 54.09961zm292.5293 0-52.82031 90.60938-69.38477-53.14453zm15.10352 7.875 53.82812 70.70508-106.59375 19.79102zm-322.259776.67383 53.101566 89.82227-105.103526-19.79102zm167.837876 34.16255 70.5508 58.94878-76.24609 3.08203-76.2461-3.08203 70.64241-59.0267zm209.09573 52.68511-187.56446 205.57031 74.89258-185.77734zm-429.582036.002 112.669926 19.78906 74.89649 185.7793zm130.556646 23.08003h.002l84.23242 3.08203 84.23238-3.08203-84.23438 208.08008z" fill="#77a1bb" stroke-width="44.1927"/></g><g stroke-width=".559785" transform="matrix(-.83941575 0 0 .83941575 124.67542 15.751847)"><ellipse cx="101.37306" cy="75.090439" fill="url(#bL)" opacity=".4" rx="1.637465" ry="1.613313"/><ellipse cx="101.37306" cy="75.090439" fill="#e5f6ff" opacity=".8" rx=".289817" ry=".285542"/><ellipse cx="24.962875" cy="27.005148" fill="url(#bN)" opacity=".4" rx="1.637465" ry="1.613313"/><ellipse cx="24.962875" cy="27.005148" fill="#e5f6ff" opacity=".8" rx=".289817" ry=".285542"/><ellipse cx="90.925156" cy="25.391836" fill="url(#bO)" opacity=".4" rx="1.637465" ry="1.613313"/><ellipse cx="90.925156" cy="25.391836" fill="#e5f6ff" opacity=".8" rx=".289817" ry=".285542"/><ellipse cx="67.725342" cy="30.959906" fill="url(#bP)" opacity=".4" rx="1.637465" ry="1.613313"/><ellipse cx="67.725342" cy="30.959906" fill="#e5f6ff" opacity=".8" rx=".289817" ry=".285542"/><ellipse cx="113.54536" cy="14.798224" fill="url(#bQ)" opacity=".4" rx="1.637465" ry="1.613313"/><ellipse cx="113.54536" cy="14.798224" fill="#e5f6ff" opacity=".8" rx=".289817" ry=".285542"/><ellipse cx="114.89299" cy="61.926949" fill="url(#bR)" opacity=".4" rx="1.637465" ry="1.613313"/><ellipse cx="114.89299" cy="61.926949" fill="#e5f6ff" opacity=".8" rx=".289817" ry=".285542"/><ellipse cx="54.813995" cy="13.484729" fill="url(#bS)" opacity=".4" rx="1.637465" ry="1.613313"/><ellipse cx="54.813995" cy="13.484729" fill="#e5f6ff" opacity=".8" rx=".289817" ry=".285542"/><ellipse cx="73.057961" cy="43.709366" fill="url(#bT)" opacity=".4" rx=".811487" ry=".799518"/><ellipse cx="73.057961" cy="43.709366" fill="#e5f6ff" opacity=".8" rx=".144908" ry=".142771"/><ellipse cx="76.811081" cy="18.881468" fill="url(#bU)" opacity=".4" rx=".811487" ry=".799518"/><ellipse cx="76.811081" cy="18.881468" fill="#e5f6ff" opacity=".8" rx=".144908" ry=".142771"/><ellipse cx="25.10778" cy="11.557319" fill="url(#bV)" opacity=".4" rx=".811487" ry=".799518"/><ellipse cx="25.10778" cy="11.557319" fill="#e5f6ff" opacity=".8" rx=".144908" ry=".142771"/><ellipse cx="57.509293" cy="78.645439" fill="url(#bW)" opacity=".4" rx=".811487" ry=".799518"/><ellipse cx="57.509293" cy="78.645439" fill="#e5f6ff" opacity=".8" rx=".144908" ry=".142771"/><ellipse cx="96.228806" cy="58.357674" fill="url(#bX)" opacity=".4" rx=".811487" ry=".799518"/><ellipse cx="96.228806" cy="58.357674" fill="#e5f6ff" opacity=".8" rx=".144908" ry=".142771"/><ellipse cx="40.815849" cy="84.142128" fill="url(#bY)" opacity=".4" rx="1.637465" ry="1.613313"/><ellipse cx="40.815849" cy="84.142128" fill="#e5f6ff" opacity=".8" rx=".289817" ry=".285542"/><ellipse cx="36.410637" cy="42.324486" fill="url(#bZ)" opacity=".4" rx="1.637465" ry="1.613313"/><ellipse cx="36.410637" cy="42.324486" fill="#e5f6ff" opacity=".8" rx=".289817" ry=".285542"/><ellipse cx="33.845757" cy="62.212494" fill="url(#b0)" opacity=".4" rx="1.637465" ry="1.613313"/><ellipse cx="33.845757" cy="62.212494" fill="#e5f6ff" opacity=".8" rx=".289817" ry=".285542"/><ellipse cx="42.120026" cy="27.747557" fill="url(#b1)" opacity=".4" rx="1.637465" ry="1.613313"/><ellipse cx="42.120026" cy="27.747557" fill="#e5f6ff" opacity=".8" rx=".289817" ry=".285542"/><ellipse cx="45.365974" cy="58.500443" fill="url(#b2)" opacity=".4" rx="1.028849" ry="1.013675"/><ellipse cx="45.365974" cy="58.500443" fill="#e5f6ff" opacity=".8" rx=".188381" ry=".185602"/><ellipse cx="48.800293" cy="76.817963" fill="url(#b3)" opacity=".4" rx="1.028849" ry="1.013675"/><ellipse cx="48.800293" cy="76.817963" fill="#e5f6ff" opacity=".8" rx=".188381" ry=".185602"/><ellipse cx="105.01025" cy="2.377143" fill="url(#b4)" opacity=".4" rx="1.028849" ry="1.013675"/><ellipse cx="105.01025" cy="2.377143" fill="#e5f6ff" opacity=".8" rx=".188381" ry=".185602"/><ellipse cx="22.745773" cy="38.869423" fill="url(#b5)" opacity=".4" rx="1.028849" ry="1.013675"/><ellipse cx="22.745773" cy="38.869423" fill="#e5f6ff" opacity=".8" rx=".188381" ry=".185602"/><ellipse cx="55.654465" cy="65.453392" fill="url(#b6)" opacity=".4" rx="1.028849" ry="1.013675"/><ellipse cx="55.654465" cy="65.453392" fill="#e5f6ff" opacity=".8" rx=".188381" ry=".185602"/><ellipse cx="109.71977" cy="53.260742" fill="url(#b7)" opacity=".4" rx="1.637465" ry="1.613313"/><ellipse cx="109.71977" cy="53.260742" fill="#e5f6ff" opacity=".8" rx=".289817" ry=".285542"/><ellipse cx="113.25554" cy="41.739128" fill="url(#b8)" opacity=".4" rx="1.637465" ry="1.613313"/><ellipse cx="113.25554" cy="41.739128" fill="#e5f6ff" opacity=".8" rx=".289817" ry=".285542"/><ellipse cx="128.58684" cy="64.439735" fill="url(#b9)" opacity=".4" rx="1.637465" ry="1.613313"/><ellipse cx="128.58684" cy="64.439735" fill="#e5f6ff" opacity=".8" rx=".289817" ry=".285542"/><ellipse cx="106.45934" cy="26.662497" fill="url(#ca)" opacity=".4" rx="1.637465" ry="1.613313"/><ellipse cx="106.45934" cy="26.662497" fill="#e5f6ff" opacity=".8" rx=".289817" ry=".285542"/><ellipse cx="66.609535" cy="68.194603" fill="url(#cb)" opacity=".8" rx="2.782241" ry=".799518"/><ellipse cx="66.609535" cy="68.194603" fill="url(#cc)" opacity=".8" rx=".811487" ry="2.741205"/><ellipse cx="66.609535" cy="68.194603" fill="#e5f6ff" opacity=".8" rx=".318798" ry=".314096"/><ellipse cx="11.109633" cy="55.388039" fill="url(#cd)" opacity=".8" rx="4.303778" ry="1.227831"/><ellipse cx="11.109633" cy="55.388039" fill="url(#ce)" opacity=".8" rx="1.246212" ry="4.240301"/><ellipse cx="11.109633" cy="55.388039" fill="#e5f6ff" opacity=".8" rx=".492688" ry=".485422"/><ellipse cx="86.519936" cy="74.619293" fill="url(#cf)" opacity=".8" rx="4.303778" ry="1.227831"/><ellipse cx="86.519936" cy="74.619293" fill="url(#cg)" opacity=".8" rx="1.246212" ry="4.240301"/><ellipse cx="86.519936" cy="74.619293" fill="#e5f6ff" opacity=".8" rx=".492688" ry=".485422"/><ellipse cx="85.766418" cy="4.240301" fill="url(#ch)" opacity=".8" rx="4.303778" ry="1.227831"/><ellipse cx="85.766418" cy="4.240301" fill="url(#ci)" opacity=".8" rx="1.246212" ry="4.240301"/><ellipse cx="85.766418" cy="4.240301" fill="#e5f6ff" opacity=".8" rx=".492688" ry=".485422"/><ellipse cx="87.012642" cy="44.508881" fill="url(#cj)" opacity=".8" rx="4.303778" ry="1.227831"/><ellipse cx="87.012642" cy="44.508881" fill="url(#ck)" opacity=".8" rx="1.246212" ry="4.240301"/><ellipse cx="87.012642" cy="44.508881" fill="#e5f6ff" opacity=".8" rx=".492688" ry=".485422"/><ellipse cx="127.98789" cy="36.499428" fill="url(#cl)" opacity=".8" rx="4.303778" ry="1.227831"/><ellipse cx="127.98789" cy="36.499428" fill="url(#cm)" opacity=".8" rx="1.246212" ry="4.240301"/><ellipse cx="127.98789" cy="36.499428" fill="#e5f6ff" opacity=".8" rx=".492688" ry=".485422"/><ellipse cx="29.38258" cy="77.845924" fill="url(#cn)" opacity=".8" rx="2.782241" ry=".799518"/><ellipse cx="29.38258" cy="77.845924" fill="url(#co)" opacity=".8" rx=".811487" ry="2.741205"/><ellipse cx="29.38258" cy="77.845924" fill="#e5f6ff" opacity=".8" rx=".318798" ry=".314096"/><ellipse cx="58.32077" cy="44.994301" fill="url(#cp)" opacity=".8" rx="2.782241" ry=".799518"/><ellipse cx="58.32077" cy="44.994301" fill="url(#cq)" opacity=".8" rx=".811487" ry="2.741205"/><ellipse cx="58.32077" cy="44.994301" fill="#e5f6ff" opacity=".8" rx=".318798" ry=".314096"/><ellipse cx="15.384429" cy="70.950073" fill="url(#cr)" opacity=".8" rx="2.782241" ry=".799518"/><ellipse cx="15.384429" cy="70.950073" fill="url(#cs)" opacity=".8" rx=".811487" ry="2.741205"/><ellipse cx="15.384429" cy="70.950073" fill="#e5f6ff" opacity=".8" rx=".318798" ry=".314096"/><ellipse cx="42.699661" cy="6.631717" fill="url(#ct)" opacity=".8" rx="2.782241" ry=".799518"/><ellipse cx="42.699661" cy="6.631717" fill="url(#cu)" opacity=".8" rx=".811487" ry="2.741205"/><ellipse cx="42.699661" cy="6.631717" fill="#e5f6ff" opacity=".8" rx=".318798" ry=".314096"/><ellipse cx="119.10985" cy="74.390869" fill="url(#cv)" opacity=".8" rx="2.782241" ry=".799518"/><ellipse cx="119.10985" cy="74.390869" fill="url(#cw)" opacity=".8" rx=".811487" ry="2.741205"/><ellipse cx="119.10985" cy="74.390869" fill="#e5f6ff" opacity=".8" rx=".318798" ry=".314096"/></g></g><g stroke-width="21.5196" transform="matrix(-.01542939 .00457965 -.00448521 -.01557527 342.52454 71.484333)"><g opacity=".67" stroke-width="41.695"><g fill="#e5f6ff"><g transform="matrix(-1 0 0 1 125.26851 23.305445)"><path d="m-124.7495 213.62288-92.6854-4.01693h-.0009-.0009l92.6863 238.8231"/><path d="m-124.7504 448.42905-92.6854-238.8231-139.66277-19.45495z"/><path d="m-280.17645 86.559075-76.92212 103.591925 139.66277 19.45495z"/><path d="m-124.74905 133.25186-92.68675 76.3541 92.6863 4.01693"/><path d="m-217.4358 209.60595 92.68675-76.35409-155.4274-46.692785z"/></g><path d="m250.01711 236.92833-92.6854-4.01693h-.0009-.0009l92.6863 238.8231"/><path d="m250.01621 471.7345-92.6854-238.8231-139.662773-19.45495z"/><path d="m94.590154 109.86452-76.922117 103.59193 139.662773 19.45495z"/><path d="m250.01756 156.55731-92.68675 76.35409 92.6863 4.01693"/><path d="m157.33081 232.9114 92.68675-76.35409-155.427406-46.69279z"/><path d="m405.44496 109.86452-155.42742 46.692-155.427516-46.69241 82.149006-33.574325 155.39184.00003z"/></g><g fill="#b3e4ff" filter="url(#bK)" transform="translate(.000019 23.305445)"><path d="m157.32989 209.60596 92.6863 238.8231.0009-234.80617-92.6854-4.01693"/><path d="m94.590138 86.559082-76.92212 103.591928 71.260547 9.76684z"/><path d="m410.66664 188.94803 53.29665-9.89512-53.82945-70.7067"/><path d="m342.21129 191.08066 52.8192-90.60945-61.10212 18.73244z"/><path d="m166.62303 108.19888-72.032892-21.639798 62.740652 123.046878z"/><path d="m250.01619 447.23896 228.86967-251.36865-70.41297 9.89467z"/><path d="m88.928565 199.91785-71.260531-9.76684 232.348156 258.27805z"/><path d="m281.82811 60.984994c18.84955.986529 38.37271.05666 56.31642 5.913444 12.05052 3.933259 32.88085 12.749309 32.88085 19.105468 0 3.105743-8.84311 6.922418-13.8711 9.320313-7.87662 3.756431-16.55431 5.589571-25.02279 7.695961-27.04456 6.72689-54.24535 15.68278-82.11393 15.72372-28.28741.0416-56.4186-8.38812-83.39453-15.71509 0 0-12.44464-2.92461-18.26172-5.485841-6.87348-3.026364-19.35156-7.63523-19.35156-11.539063 0-6.356159 22.8309-15.370171 35.84506-19.105468 27.3516-7.850398 58.60734-5.882194 85.16275-5.91211 0 0 21.22153-.555532 31.81055-.0013zm-105.08852-8.000114-82.149452 33.574202 155.427402 46.692788 155.4274-46.692785-73.31345-33.574205z"/><path d="m250.01754 133.25187-92.68675 76.35409 92.6863 4.01693z" opacity="1"/></g></g><path d="m170.666 68.290435-81.199236 34.865235-9.84179 13.44141-61.832029 83.27148-9.445313 13.58789 202.625008 222.07031 39.04492 42.79297 39.04492-42.79297 202.58985-222.03515-9.46875-13.61524-63.99415-84.05859-10.33789-12.70703-77.90039-34.820315zm3.10546 16h152.49219l59.7793 25.505865-113.21666 34.71083-22.80873 6.87901-22.80915-6.85153-115.6409-34.73986zm-71.26953 39.486325 124.70703 37.46485-70.3125 54.09961zm292.5293 0-52.82031 90.60938-69.38477-53.14453zm15.10352 7.875 53.82812 70.70508-106.59375 19.79102zm-322.259776.67383 53.101566 89.82227-105.103526-19.79102zm167.837876 34.16255 70.5508 58.94878-76.24609 3.08203-76.2461-3.08203 70.64241-59.0267zm209.09573 52.68511-187.56446 205.57031 74.89258-185.77734zm-429.582036.002 112.669926 19.78906 74.89649 185.7793zm130.556646 23.08003h.002l84.23242 3.08203 84.23238-3.08203-84.23438 208.08008z" fill="#77a1bb" stroke-width="21.5196"/></g><use opacity=".2" transform="matrix(1.313643 0 0 1.313643 434.55476 -18.26492)" xlink:href="#cx"/><path d="m90.48818 21.727061c3.424439 1.264269 10.89547-1.102367 10.89547-1.102367.29401 2.904266-.42383 5.546724-2.25717 7.380057-4.154382 4.154374-12.4635 2.58083-18.55894-3.51461-3.180902-3.180902-4.70076-6.60528-5.677013-10.446199-.709583-2.791747 0-8.6415411 0-8.6415411s8.53734 13.7180611 15.597653 16.3246601z" fill="#f0f3f4" filter="url(#a)" opacity=".5" stroke-width=".307664" transform="matrix(.90725093 0 0 .90725093 246.82047 37.505189)"/><path d="m1345.702 38.564788-113.4941 19.070915-110.2434 17.280051 8.7337 48.422626c9.5867 44.47933 27.011 84.76184 49.1949 112.83732 16.2044 20.51041 35.2122 35.61749 55.427 42.24183-17.0922 12.6316-30.3723 32.8791-39.2605 57.45136-6.1939 17.12439-10.9984 38.3009-12.3 58.0312-2.57 38.95567 6.3278 93.7049 9.0211 116.77312l2.1834 17.88042 110.7616-17.99845 110.7617-17.99588c-1.2774-5.87159-2.5532-11.74456-3.8306-17.61616-4.9363-22.69031-13.4695-77.4628-28.0483-113.66091-7.3684-18.29498-18.3064-36.94352-29.5981-51.23464-16.2236-20.53558-34.9178-35.5996-55.1909-42.229 16.9819-12.69113 30.1705-32.96795 39.027-57.45649 12.0227-33.23932 16.2716-78.15246 11.6047-122.725561zm-9.0005 11.214714 4.7492 40.781945c2.1634 21.308523.9722 41.574623-1.0828 62.213313-1.8306 18.38593-4.0478 38.12136-9.9806 54.52388-13.0288 36.02539-35.0427 60.52754-63.0497 65.07921-28.0088 4.55196-56.6393-11.72421-80.3811-41.77487-10.5684-13.37514-20.594-31.00186-28.1561-47.91205-8.6175-19.27023-14.6368-38.67036-19.3018-60.31469l-6.7427-39.465737zm-58.5571 223.306488c24.8168.53747 49.0365 16.24701 69.8103 42.54202 10.7558 13.61278 21.4839 31.38126 28.5641 48.87162 14.3556 35.46323 22.7196 89.34672 27.3248 111.47749l1.9191 9.2032-101.4763 16.49238-101.4738 16.48981c-.3642-3.11761-.729-6.23439-1.093-9.35201-2.6233-22.46859-11.4923-76.28603-8.9826-114.48193 1.2379-18.83995 5.8861-39.10418 11.7818-55.40392 13.0302-36.02339 35.0387-60.54697 63.0548-65.09974z" fill="#374548" stroke-width="4.96496" transform="matrix(.26458334 0 0 .26458334 .000001 0)"/></g><path d="m1172.3747 261.62384c3.2642-6.21663 3.2833-14.91604 2.3499-20.97345-1.8935-11.6749-8.7258-21.33213-17.8945-27.56445l-17.8184-109.96875-56.5469 9.19922 17.9239 110.44726c-6.4214 8.72926-9.6534 19.81595-7.8028 31.22461 1.8878 7.04152 3.7143 14.79677 8.9966 19.16754 0 0 12.8775 15.31957 14.4331 24.73919 1.5611 9.4529-5.7329 28.16525-5.7329 28.16525-3.4804 6.28198-3.5447 15.30775-2.6011 21.45351 1.8548 11.44165 8.4695 20.93948 17.3555 27.18369l16.0725 111.48156 58.5799-9.51832-18.0782-110.76989c6.6823-8.7957 10.094-20.07821 8.209-31.71689-1.9018-7.29406-3.8622-14.78592-9.0771-19.51571 0 0-12.8316-15.47578-14.3226-24.9482-1.4881-9.45371 5.9541-28.08617 5.9541-28.08617z" fill="#674232" stroke-width="4.24901" transform="scale(.26458334)"/><path d="m298.20569 88.814013c-.17621.738188-.2196 1.519238-.0908 2.315104.37756 2.328334 2.06798 4.10845 4.19206 4.721225l4.37409 27.186188 4.87839-.79272-4.37356-27.137211c1.87933-1.241425 2.96333-3.503084 2.57968-5.871105-.12805-.787135-.40798-1.51077-.80221-2.149475 0 0-3.79321-3.021071-5.9372-2.678638-2.14978.343359-4.82045 4.406632-4.82045 4.406632z" fill="#8f583d" stroke-width="11.4815"/><path d="m305.72224 66.663852c.14817-.696648.17039-1.429544.0495-2.174875-.38523-2.375165-2.13969-4.185709-4.32435-4.762501l-4.30797-26.764043-4.87839.792556 4.32435 26.831686c-1.80895 1.256771-2.84003 3.476625-2.4638 5.795963.12092.746125.38259 1.436687.74401 2.05052 0 0 3.84687 2.981132 6.00287 2.629433 2.15499-.351535 4.85378-4.398739 4.85378-4.398739z" fill="#8f583d" stroke-width="11.4815"/><path d="m299.20189 66.159302c-1.56985.446479-3.05107 1.267902-4.3363 2.273856-1.34706 1.054344-2.57891 2.286681-3.40521 3.839321-1.13684 2.136137-1.623 4.90713-1.2221 7.362292.40359 2.47163 1.70209 4.908461 3.52403 6.635342 2.61034 2.47415 6.6047 3.740659 10.08339 3.177158 3.47646-.563141 6.8663-3.012589 8.55928-6.193951 1.17576-2.209429 1.64513-4.941112 1.25127-7.417378-.391-2.458246-1.73341-4.899399-3.46544-6.614633-1.24473-1.232664-2.83889-2.035176-4.44353-2.681817-.9005-.362887-1.87234-.570858-2.84041-.644529-1.23456-.09395-2.51408-.07437-3.70498.264339z" fill="#674232" stroke-width="1.12421"/><path d="m300.86846 71.062591c-3.71078.60325-6.19125 4.04151-5.58933 7.755467.60193 3.71422 4.03622 6.192308 7.74701 5.589323 3.71078-.602721 6.19125-4.041246 5.58932-7.754938-.52652-3.250142-3.22316-5.551488-6.37487-5.672667z" fill="#8f583d" stroke-width="11.4815"/><path d="m1361.9511 284.86685c-3.0194 6.54504-3.3028 15.12367-2.332 21.40073 1.8798 11.59698 8.6326 21.21562 17.7227 27.46094l18.1152 111.12299 57.4331-9.33199-19.0542-111.22655c6.4836-8.73323 9.7757-19.84702 7.9141-31.33213-1.3769-6.94625-4.2766-14.90154-8.9687-19.43644 0 0-12.9078-15.3262-14.4207-24.75539-1.5156-9.4465 5.9634-28.07561 5.9634-28.07561 3.1246-6.42957 3.3035-15.06594 2.3403-21.29263-1.8643-11.50406-8.5384-21.03987-17.4942-27.27734l-17.3848-107.1543-17.9865-.00038-39.0136 6.347656 17.8066 109.873044c-6.592 8.77508-9.9409 19.98622-8.0684 31.54102l.01.008v.008c.8521 5.63464 7.344 13.8721 10.1014 17.47635 0 0 12.0758 16.85673 13.3188 26.73519 1.188 9.44123-6.0025 27.90884-6.0025 27.90884z" fill="#674232" stroke-width="4.24901" transform="scale(.26458334)"/><path d="m364.83968 77.975357c-.16033.714375-.1905 1.473729-.0661 2.240227.38285 2.361935 2.11561 4.167187 4.28307 4.754562l4.38203 27.218464 4.87839-.79375-4.3905-27.251801c1.82457-1.253067 2.87444-3.481917 2.49661-5.812102-.0622-.383117-.15987-.751351-.28929-1.102222-.12941-.35087-.29054-.684377-.47959-.998041 0 0-3.81941-3.00047-5.96957-2.654826-2.15384.346235-4.84505 4.399489-4.84505 4.399489z" fill="#8f583d" stroke-width="11.4815"/><path d="m359.01885 22.909345 4.29948 26.713525c-1.85473 1.246982-2.91941 3.494617-2.53841 5.845705.12541.770731.39687 1.478227.77787 2.108729 0 0 3.8193 3.000303 5.969 2.653774 2.15165-.346844 4.83714-4.399003 4.83714-4.399003.16405-.719666.19156-1.484312.0661-2.256896-.37915-2.33971-2.08624-4.124854-4.22487-4.729427l-4.30792-26.728962z" fill="#8f583d" stroke-width="11.4815"/><path d="m366.70703 55.191407c-1.86738.302435-3.61452 1.27991-5.14924 2.385897-1.23963.893328-2.34664 2.046614-3.14399 3.335819-1.41267 2.284085-1.90991 5.241787-1.51732 7.891565.36244 2.446274 1.62356 4.838277 3.45309 6.566335 1.24026 1.171472 2.82114 2.140591 4.47226 2.686631 1.80688.597552 3.802.852817 5.68208.557581 1.87394-.294272 3.69807-1.133451 5.22058-2.264927 1.39455-1.036387 2.54984-2.434758 3.36557-3.980309 1.16185-2.201344 1.61818-4.909055 1.22439-7.367092-.39351-2.45626-1.69599-4.941618-3.46205-6.61111-1.27275-1.203152-2.85114-2.025241-4.48847-2.559722-1.804-.588891-3.78362-.944059-5.6569-.640668z" fill="#674232" stroke-width="1.12421"/><path d="m367.52679 60.231078c-3.71052.60325-6.19125 4.04151-5.58906 7.755731.60219 3.713692 4.03675 6.192044 7.747 5.589059 3.71105-.60325 6.19178-4.041511 5.58986-7.755732-.52705-3.249612-3.22316-5.550958-6.37488-5.671608z" fill="#8f583d" stroke-width="11.4815"/><path d="m298.94922 140.16992 91.9082-14.93164-2.50781-15.47265-91.88867 14.93164z" fill="#674232" stroke-width="1.12422"/><path d="m301.91859 128.63487.97552 6.06875 82.50052-13.40274-.98411-6.06967z" fill="#8f583d" stroke-width="11.4815"/><path d="m371.36523 5.0253906-91.88476 14.9277344.7539 4.695312 1.73047 10.779297 91.90821-14.93164z" fill="#674232" stroke-width="1.12422"/><path d="m284.93578 23.892405.97472 6.068748 82.50053-13.402733-.98385-6.069013z" fill="#8f583d" stroke-width="11.4815"/></g><g id="cx" stroke-width="1.31363" transform="matrix(.76124183 0 0 .76124183 -330.80127 13.904021)"><path d="m326.84517 73.664757c-4.52231 3.342113-8.03632 8.699206-10.38799 15.200622-1.6388 4.530834-2.90952 10.133666-3.2539 15.353981-.67998 10.30703 1.67368 24.79283 2.38628 30.8963l.57825 4.73064 29.30572-4.76172 29.3057-4.76173c-.33798-1.55352-.67593-3.10705-1.01391-4.66058-1.30606-6.00349-3.56393-20.49549-7.42127-30.072916-1.94955-4.840552-4.84293-9.77492-7.83053-13.556115-4.29252-5.433377-9.2388-9.418931-14.60272-11.172963 0 0-5.85814-.28598-8.73046.185934-2.87374.472149-8.33517 2.618547-8.33517 2.618547z" fill="#6f8a91" stroke-width="1.31363"/><path d="m296.85293 19.821391 2.31124 12.812096c2.53648 11.7685 7.14627 22.42638 13.01576 29.85469 4.28741 5.426718 9.31674 9.423887 14.66524 11.17658 0 0 5.85441.253801 8.72525-.217877 2.87226-.471911 8.34038-2.586604 8.34038-2.586604 4.49313-3.357864 7.98219-8.722905 10.32547-15.202173 3.181-8.794578 4.3054-20.677317 3.07062-32.470629l-1.25653-12.983822z" fill="#6f8a91" stroke-width="1.31363"/><path d="m335.76039 74.799827c-6.25211 1.016-11.55013 6.629665-14.8254 15.684501-1.47704 4.083579-2.69512 9.281016-2.97839 14.064902-.68251 11.5264 2.45163 28.7151 3.12684 34.49836l24.39141-3.96353 24.39141-3.96353c-1.18626-5.70072-3.58934-23.00249-7.85408-33.729939-1.76834-4.448057-4.54353-8.998059-7.23487-12.404305-5.22155-6.609292-11.08154-10.231438-16.65234-10.352088z" fill="#6f8a91" filter="url(#e)" stroke-width="6.25622"/><path d="m302.09456 18.970638s3.1957 17.575274 6.29534 25.90267c1.91656 5.148973 4.88249 11.316389 7.527 14.663236 5.96715 7.552796 12.76509 11.194521 19.01666 10.178521 6.25158-1.016 11.54986-6.621728 14.82461-15.676563 1.45177-4.013729 1.84278-10.811102 2.08578-16.275107.39584-8.900754-1.03082-26.708772-1.03082-26.708772z" fill="#6f8a91" filter="url(#d)" stroke-width="6.25622"/><path d="m335.76039 74.799827c-6.25211 1.016-11.55013 6.629665-14.8254 15.684501-1.47704 4.083579-2.69512 9.281016-2.97839 14.064902-.68251 11.5264 2.45163 28.7151 3.12684 34.49836l24.39141-3.96353 24.39141-3.96353c-1.18626-5.70072-3.58935-23.00249-7.85408-33.729939-1.76834-4.448057-4.54353-8.998059-7.23487-12.404305-5.22155-6.609292-11.08154-10.231438-16.65234-10.352088z" fill="#b7c4c8" filter="url(#c)" stroke-width=".280094"/><path d="m302.08871 18.971588s3.20057 17.574525 6.30119 25.90172c1.91713 5.148761 4.88249 11.316389 7.527 14.663236 5.96715 7.552796 12.76509 11.194521 19.01666 10.178521 6.25158-1.016 11.54986-6.621728 14.82461-15.676563 1.45177-4.013729 1.84278-10.811102 2.08578-16.275107.39584-8.900754-1.03082-26.708772-1.03082-26.708772z" fill="#b7c4c8" filter="url(#b)" stroke-width=".280094"/></g></svg>