<svg height="500" viewBox="0 0 500 500" width="500" xmlns="http://www.w3.org/2000/svg" xmlns:xlink="http://www.w3.org/1999/xlink"><radialGradient id="a" cx="198.28249" cy="59.970482" fx="198.2825" fy="59.970474" gradientTransform="matrix(-.05943633 -.215151 .51674886 -.14292595 181.3842 124.9828)" gradientUnits="userSpaceOnUse" r="7.119916" xlink:href="#b"/><linearGradient id="b"><stop offset="0" stop-color="#93a0aa"/><stop offset=".25" stop-color="#9da9b2"/><stop offset=".375" stop-color="#7f8f9a"/><stop offset=".5" stop-color="#93a0aa"/><stop offset=".75" stop-color="#7c8c98"/><stop offset="1" stop-color="#93a0aa"/></linearGradient><filter id="c" color-interpolation-filters="sRGB" height="1.52614" width="1.439071" x="-.130049" y="-.264715"><feGaussianBlur stdDeviation=".1932006"/></filter><radialGradient id="d" cx="198.29079" cy="62.824783" fx="198.29077" fy="62.824776" gradientTransform="matrix(-.06221644 -.22521443 .6093086 -.16852688 174.64596 128.9964)" gradientUnits="userSpaceOnUse" r="6.801772" xlink:href="#b"/><filter id="e" color-interpolation-filters="sRGB" height="1.472715" width="1.413956" x="-.279563" y="-.242592"><feGaussianBlur stdDeviation=".20114683"/></filter><linearGradient id="f" gradientUnits="userSpaceOnUse" x1="139.88864" x2="270.28525" xlink:href="#b" y1="12.414123" y2="78.356216"/><filter id="g" color-interpolation-filters="sRGB" height="1.004178" width="1.002901" x="-.00145" y="-.002089"><feGaussianBlur stdDeviation=".071789799"/></filter><radialGradient id="h" cx="198.23987" cy="-11.522913" fx="198.23985" fy="-11.522932" gradientTransform="matrix(-.04836417 -.17507138 .3477705 -.09618873 214.18373 107.34854)" gradientUnits="userSpaceOnUse" r="8.749891" xlink:href="#b"/><filter id="i" color-interpolation-filters="sRGB" height="1.656153" width="1.501027" x="-.250514" y="-.348155"><feGaussianBlur stdDeviation=".20050787"/></filter><radialGradient id="j" cx="198.24263" cy="-11.246129" fx="198.24261" fy="-11.246142" gradientTransform="matrix(-.04896323 -.17723989 .3479434 -.09623656 214.20831 107.805)" gradientUnits="userSpaceOnUse" r="8.642839" xlink:href="#b"/><filter id="k" color-interpolation-filters="sRGB" height="1.663986" width="1.508812" x="-.25441" y="-.352435"><feGaussianBlur stdDeviation=".19688825"/></filter><radialGradient id="l" cx="198.23967" cy="-4.253581" fx="198.23965" fy="-4.253594" gradientTransform="matrix(-.04833235 -.17495616 .34754172 -.09612549 211.64838 108.02516)" gradientUnits="userSpaceOnUse" r="8.755652" xlink:href="#b"/><filter id="m" color-interpolation-filters="sRGB" height="1.656241" width="1.50097" x="-.2506" y="-.348172"><feGaussianBlur stdDeviation=".20061212"/></filter><radialGradient id="n" cx="198.30466" cy="48.583179" gradientTransform="matrix(-.06747129 -.24423628 .69269352 -.19159002 180.31531 131.49203)" gradientUnits="userSpaceOnUse" r="6.272019" xlink:href="#b"/><filter id="o" color-interpolation-filters="sRGB" height="1.431312" width="1.369019" x="-.149836" y="-.202597"><feGaussianBlur stdDeviation=".20136215"/></filter><radialGradient id="p" cx="198.28844" cy="33.003365" fy="33.003357" gradientTransform="matrix(-.06139963 -.22225739 .54034734 -.14945327 194.93025 122.75432)" gradientUnits="userSpaceOnUse" r="6.892261" xlink:href="#b"/><filter id="q" color-interpolation-filters="sRGB" height="1.568915" width="1.491969" x="-.332555" y="-.282904"><feGaussianBlur stdDeviation=".18334638"/></filter><radialGradient id="r" cx="198.27672" cy="48.612526" fx="198.27673" fy="48.612522" gradientTransform="matrix(-.05765502 -.20870268 .68270969 -.18882874 178.8321 124.31111)" gradientUnits="userSpaceOnUse" r="7.339898" xlink:href="#b"/><filter id="s" color-interpolation-filters="sRGB" height="1.379906" width="1.332727" x="-.179102" y="-.18215"><feGaussianBlur stdDeviation=".24471815"/></filter><radialGradient id="t" cx="198.22644" cy="13.384259" fx="198.22646" fy="13.384251" gradientTransform="matrix(-.04566647 -.16530614 .41932584 -.11597997 204.02863 108.07114)" gradientUnits="userSpaceOnUse" r="9.266785" xlink:href="#b"/><filter id="u" color-interpolation-filters="sRGB" height="1.540221" width="1.423018" x="-.159634" y="-.273177"><feGaussianBlur stdDeviation=".23925938"/></filter><radialGradient id="v" cx="198.25975" cy="7.58742" fy="7.587419" gradientTransform="matrix(-.05296297 -.19171837 .34948235 -.09666223 208.43745 112.49424)" gradientUnits="userSpaceOnUse" r="7.990143" xlink:href="#b"/><filter id="w" color-interpolation-filters="sRGB" height="1.717723" width="1.562509" x="-.281255" y="-.381859"><feGaussianBlur stdDeviation=".17497394"/></filter><radialGradient id="x" cx="198.21716" cy="8.520003" fx="198.21713" fy="8.519999" gradientTransform="matrix(-.04399636 -.15926055 .3466428 -.09587769 206.35613 106.13584)" gradientUnits="userSpaceOnUse" r="9.618558" xlink:href="#b"/><filter id="y" color-interpolation-filters="sRGB" height="1.601824" width="1.44703" x="-.22361" y="-.318447"><feGaussianBlur stdDeviation=".22985673"/></filter><radialGradient id="z" cx="198.25966" cy="13.730732" gradientTransform="matrix(-.0529667 -.19173197 .34950752 -.09666916 206.29086 113.09084)" gradientUnits="userSpaceOnUse" r="7.989568" xlink:href="#b"/><filter id="A" color-interpolation-filters="sRGB" height="1.717614" width="1.562442" x="-.281206" y="-.381809"><feGaussianBlur stdDeviation=".17497885"/></filter><radialGradient id="B" cx="198.30103" cy="53.688522" fx="198.30099" fy="53.688515" gradientTransform="matrix(-.06601789 -.23897465 .7191686 -.19891315 175.06901 131.81906)" gradientUnits="userSpaceOnUse" r="6.410113" xlink:href="#b"/><filter id="C" color-interpolation-filters="sRGB" height="1.408674" width="1.373916" x="-.178391" y="-.191799"><feGaussianBlur stdDeviation=".21045472"/></filter><radialGradient id="D" cx="198.24951" cy="30.168201" fy="30.168188" gradientTransform="matrix(-.05049551 -.18278643 .45994039 -.12721352 196.72383 113.82591)" gradientUnits="userSpaceOnUse" r="8.380575" xlink:href="#b"/><filter id="E" color-interpolation-filters="sRGB" height="1.549869" width="1.447336" x="-.267887" y="-.275311"><feGaussianBlur stdDeviation=".21817872"/></filter><radialGradient id="F" cx="198.27271" cy="51.705505" fx="198.27272" fy="51.705502" gradientTransform="matrix(-.0564748 -.20443044 .6687347 -.1849634 177.20884 123.84739)" gradientUnits="userSpaceOnUse" r="7.493283" xlink:href="#b"/><filter id="G" color-interpolation-filters="sRGB" height="1.383372" width="1.33432" x="-.159049" y="-.19033"><feGaussianBlur stdDeviation=".24670407"/></filter><radialGradient id="H" cx="198.26636" cy="24.693016" fx="198.26634" fy="24.693008" gradientTransform="matrix(-.05470527 -.1980254 .41546398 -.1149118 201.17585 115.85008)" gradientUnits="userSpaceOnUse" r="7.735652" xlink:href="#b"/><filter id="I" color-interpolation-filters="sRGB" height="1.651633" width="1.530591" x="-.278944" y="-.330941"><feGaussianBlur stdDeviation=".18251952"/></filter><radialGradient id="J" cx="198.2599" cy="31.516365" fx="198.25992" fy="31.516356" gradientTransform="matrix(-.05300227 -.19186048 .34974145 -.09673398 200.07434 114.83773)" gradientUnits="userSpaceOnUse" r="7.984223" xlink:href="#b"/><filter id="K" color-interpolation-filters="sRGB" height="1.717649" width="1.562594" x="-.281459" y="-.381856"><feGaussianBlur stdDeviation=".17486805"/></filter><radialGradient id="L" cx="198.25989" cy="37.937183" fx="198.25987" fy="37.937164" gradientTransform="matrix(-.05300342 -.19186499 .34974857 -.09674181 195.9648 115.46003)" gradientUnits="userSpaceOnUse" r="7.984026" xlink:href="#b"/><filter id="M" color-interpolation-filters="sRGB" height="1.717545" width="1.562521" x="-.281422" y="-.381806"><feGaussianBlur stdDeviation=".17487971"/></filter><radialGradient id="N" cx="198.29549" cy="54.941109" fx="198.29547" fy="54.941097" gradientTransform="matrix(-.06393573 -.23143776 .68807494 -.19031283 175.46326 130.09985)" gradientUnits="userSpaceOnUse" r="6.618872" xlink:href="#b"/><filter id="O" color-interpolation-filters="sRGB" height="1.396055" width="1.325353" x="-.142998" y="-.193209"><feGaussianBlur stdDeviation=".21939226"/></filter><radialGradient id="P" cx="198.24283" cy="50.464848" fx="198.24281" fy="50.46484" gradientTransform="matrix(-.04900096 -.17737659 .58023582 -.16048551 181.02127 117.0133)" gradientUnits="userSpaceOnUse" r="8.636179" xlink:href="#b"/><filter id="Q" color-interpolation-filters="sRGB" height="1.346547" width="1.227961" x="-.10205" y="-.171981"><feGaussianBlur stdDeviation=".29955775"/></filter><radialGradient id="R" cx="198.3074" cy="51.018932" gradientTransform="matrix(-.06862175 -.24840084 .63010912 -.17427994 182.0494 131.90209)" gradientUnits="userSpaceOnUse" r="6.166873" xlink:href="#b"/><filter id="S" color-interpolation-filters="sRGB" height="1.461329" width="1.298982" x="-.15159" y="-.237659"><feGaussianBlur stdDeviation=".19536524"/></filter><radialGradient id="T" cx="198.28688" cy="44.569111" fy="44.569099" gradientTransform="matrix(-.06087319 -.22035211 .53571542 -.14817192 188.78269 124.04761)" gradientUnits="userSpaceOnUse" r="6.951855" xlink:href="#b"/><filter id="U" color-interpolation-filters="sRGB" height="1.494476" width="1.415197" x="-.205913" y="-.247656"><feGaussianBlur stdDeviation=".1946795"/></filter><radialGradient id="V" cx="198.30183" cy="52.499775" fx="198.3018" fy="52.499767" gradientTransform="matrix(-.06636103 -.24021702 .63407413 -.17537686 180.45946 130.59351)" gradientUnits="userSpaceOnUse" r="6.376963" xlink:href="#b"/><filter id="W" color-interpolation-filters="sRGB" height="1.427194" width="1.277287" x="-.134792" y="-.216084"><feGaussianBlur stdDeviation=".20722187"/></filter><radialGradient id="X" cx="198.33925" cy="54.868111" fx="198.33926" fy="54.868107" gradientTransform="matrix(-.08551778 -.30956286 .66684428 -.18443991 180.96174 145.26912)" gradientUnits="userSpaceOnUse" r="4.948452" xlink:href="#b"/><filter id="Y" color-interpolation-filters="sRGB" height="1.499259" width="1.389541" x="-.165846" y="-.248522"><feGaussianBlur stdDeviation=".14966164"/></filter><radialGradient id="Z" cx="198.31067" cy="59.344265" gradientTransform="matrix(-.0700519 -.25357786 .68604512 -.18975107 173.76789 135.29862)" gradientUnits="userSpaceOnUse" r="6.040969" xlink:href="#b"/><filter id="aa" color-interpolation-filters="sRGB" height="1.511661" width="1.411417" x="-.209681" y="-.231682"><feGaussianBlur stdDeviation=".18448401"/></filter><path d="m266.80281 71.105832 8.2849-2.9845-9.31862-2.290498-.86243 2.997313z" fill="url(#a)" filter="url(#c)" stroke="#617984" stroke-width="1.55368" transform="matrix(3.2191344 0 0 3.2171969 -438.53427 117.49083)"/><path d="m151.46087 65.938255 8.35925 2.935288 1.57961-2.378163-1.19674-3.774723z" fill="url(#d)" filter="url(#e)" stroke="#617984" stroke-width="1.55368" transform="matrix(3.2191344 0 0 3.2171969 -438.53427 117.49083)"/><g filter="url(#g)" stroke="none" stroke-width="1.17444" transform="matrix(3.2191344 0 0 3.2171969 -438.53427 95.490832)"><path d="m213.88477 10.900391c-4.93571.07112-8.55475 2.734744-11.93946 5.345703v-.002c-8.50009 6.554963-18.25603 14.097921-26.54492 22.599609-6.54598 6.714026-13.61109 13.905524-18.48047 22.982422-1.10711 2.063741-1.72758 4.2377-2.02344 6.361328-.13992 1.004372-.73343 3.083936.44141 5.841797 1.84257 4.325375 5.28939 6.420928 7.49609 8.017578 2.33777 1.691481 4.12291 2.058609 4.59571 2.333984 1.23937.721857 3.30347 3.607704 7.87109 5.126953 5.12727 1.705392 9.23183.505896 11.4707.712891 3.48407.32212 7.34333 1.207688 11.69727 1.626953 3.51999.338959 7.03049.50829 10.51172.56836 4.46598.07706 8.3913-.418217 11.76758-.238282 2.20118.11731 5.40391 1.262377 9.73437 1.19336 5.55755-.08858 10.5415-1.423363 15.04492-2.347657 4.21921-.865961 9.53601-1.235944 14.86328-3.857421 2.95223-1.452746 4.46375-3.361671 5.48243-4.179688.66171-.531369 2.53641-1.378716 4.36328-3.734375 1.15793-1.493107 3.19842-3.823847 3.1914-7.689453-.009-4.641459-2.68257-7.072252-3.36914-8.244141-5.04017-8.602988-10.7953-16.981427-17.60156-24.529297-7.97932-8.848748-17.94928-17.05463-26.24219-23.285156-4.02506-3.02406-8.18314-4.663268-12.33007-4.603515z" fill="#57676f"/><path d="m265.76909 65.830834c-4.9167-8.392231-10.49106-16.488964-17.00466-23.712289-7.61786-8.447899-17.39411-16.523164-25.53508-22.639537-3.48642-2.619375-6.33413-3.650192-9.27231-3.607856-2.93819.04234-5.7912 1.854727-8.97519 4.310854-8.4918 6.54857-18.07221 13.979457-26.02131 22.132628-6.5398 6.70769-13.23173 13.607282-17.66034 21.862554-.77592 1.446372-1.2536 3.070701-1.48008 4.696355-.14761 1.059558-.32797 2.223864.0913 3.208073 1.08768 2.553289 3.58903 4.309852 5.8375 5.936721 1.26017.911791 2.83951 1.284079 4.18359 2.066925 2.41442 1.406252 4.2861 3.822972 6.93738 4.704821 3.28033 1.091078 6.91763.161427 10.35997.479689 3.92605.362984 7.79111 1.250585 11.71575 1.628511 3.36278.323821 6.74247.487549 10.12031.545835 3.98266.06872 7.96992-.443493 11.94753-.23151 3.1504.167898 6.23528 1.238369 9.38975 1.188094 4.76696-.07598 9.45492-1.288165 14.12514-2.246692 4.60257-.944644 9.45157-1.373545 13.66731-3.44805 1.73783-.855161 3.05336-2.383983 4.56355-3.596696 1.19176-.957007 2.61229-1.695682 3.54897-2.903488 1.04331-1.345303 2.15151-2.931048 2.14842-4.633494-.004-2.113101-1.61933-3.918204-2.6875-5.741448z" fill="url(#f)"/></g><g stroke="#617984" stroke-width="1.55368"><path d="m187.48601 104.5669-5.978 4.08463h11.956z" fill="url(#h)" filter="url(#i)" transform="matrix(3.2191344 0 0 3.2171969 -438.53427 117.49083)"/><path d="m243.86666 108.48782h11.74089l-5.87031-4.01017z" fill="url(#j)" filter="url(#k)" transform="matrix(3.2191344 0 0 3.2171969 -438.53427 117.49083)"/><path d="m164.45932 104.50128h11.96446l-5.97826-4.08451z" fill="url(#l)" filter="url(#m)" transform="matrix(3.2191344 0 0 3.2171969 -438.53427 117.49083)"/><path d="m231.09252 106.35363 8.15261-3.05118-4.72745-3.565862-4.76448 1.432532z" fill="url(#n)" filter="url(#o)" transform="matrix(3.2191344 0 0 3.2171969 -438.53427 117.49083)"/><path d="m229.7532 101.16912-8.14388 3.00963 9.4832 2.17488z" fill="url(#p)" filter="url(#q)" transform="matrix(3.2191344 0 0 3.2171969 -438.53427 117.49083)"/><path d="m207.32923 100.30102-5.87798-2.396202-5.63113 4.082922 7.66498 3.98542z" fill="url(#r)" filter="url(#s)" transform="matrix(3.2191344 0 0 3.2171969 -438.53427 117.49083)"/><path d="m203.4851 105.97316 13.46861-1.36472-9.62448-4.30742z" fill="url(#t)" filter="url(#u)" transform="matrix(3.2191344 0 0 3.2171969 -438.53427 117.49083)"/><path d="m244.54473 97.828748h10.43464l-5.21732-3.563275z" fill="url(#v)" filter="url(#w)" transform="matrix(3.2191344 0 0 3.2171969 -438.53427 117.49083)"/><path d="m260.2957 92.778981-6.85429 4.688418 13.70012-.00053z" fill="url(#x)" filter="url(#y)" transform="matrix(3.2191344 0 0 3.2171969 -438.53427 117.49083)"/><path d="m213.92741 90.776016-5.21679 3.563938h10.43437z" fill="url(#z)" filter="url(#A)" transform="matrix(3.2191344 0 0 3.2171969 -438.53427 117.49083)"/><path d="m189.62728 97.489818 5.91185-3.579812-4.78591-3.565676-4.90498 1.63898z" fill="url(#B)" filter="url(#C)" transform="matrix(3.2191344 0 0 3.2171969 -438.53427 117.49083)"/><path d="m185.84824 91.98331-8.16875 3.993618 11.94779 1.51289z" fill="url(#D)" filter="url(#E)" transform="matrix(3.2191344 0 0 3.2171969 -438.53427 117.49083)"/><path d="m165.51686 95.596458 7.07761-3.985417-5.81991-4.018489-5.91251 3.745704z" fill="url(#F)" filter="url(#G)" transform="matrix(3.2191344 0 0 3.2171969 -438.53427 117.49083)"/><path d="m172.0142 91.537521-5.68855 3.547004 10.34336.711198z" fill="url(#H)" filter="url(#I)" transform="matrix(3.2191344 0 0 3.2171969 -438.53427 117.49083)"/><path d="m152.67976 84.230062h10.42617l-5.20885-3.563274z" fill="url(#J)" filter="url(#K)" transform="matrix(3.2191344 0 0 3.2171969 -438.53427 117.49083)"/><path d="m265.19558 80.573418h10.42644l-5.20899-3.563937z" fill="url(#L)" filter="url(#M)" transform="matrix(3.2191344 0 0 3.2171969 -438.53427 117.49083)"/><path d="m253.32573 86.724716 5.49756 3.139255 4.89581-3.611007-5.52345-3.547004-3.85672 1.317634z" fill="url(#N)" filter="url(#O)" transform="matrix(3.2191344 0 0 3.2171969 -438.53427 117.49083)"/><path d="m230.02599 90.304793 7.56846 2.898251 7.24821-5.37872-3.37274-3.76923-11.32907 2.435206z" fill="url(#P)" filter="url(#Q)" transform="matrix(3.2191344 0 0 3.2171969 -438.53427 117.49083)"/><path d="m222.6626 85.413537-1.71525 2.377715 3.48165 3.431844 5.59699-.918303.74102-2.295705z" fill="url(#R)" filter="url(#S)" transform="matrix(3.2191344 0 0 3.2171969 -438.53427 117.49083)"/><path d="m199.14476 87.89461 4.80318 2.968393 5.31713-2.422558-4.94021-3.031492z" fill="url(#T)" filter="url(#U)" transform="matrix(3.2191344 0 0 3.2171969 -438.53427 117.49083)"/><path d="m176.86989 84.790083.57147 2.604274 4.47502 1.604513 4.39196-1.244698.92152-2.4844-5.41987-2.488682z" fill="url(#V)" filter="url(#W)" transform="matrix(3.2191344 0 0 3.2171969 -438.53427 117.49083)"/><path d="m169.73336 81.87865-.33073 1.364191 2.60954 3.181778 4.65857.158852-2.17936-4.451326z" fill="url(#X)" filter="url(#Y)" transform="matrix(3.2191344 0 0 3.2171969 -438.53427 117.49083)"/><path d="m159.91142 72.081616-2.9845 3.249083 8.822 2.687638-1.68938-4.137756z" fill="url(#Z)" filter="url(#aa)" transform="matrix(3.2191344 0 0 3.2171969 -438.53427 117.49083)"/></g></svg>