<svg height="500" viewBox="0 0 132.29167 132.29167" width="500" xmlns="http://www.w3.org/2000/svg" xmlns:xlink="http://www.w3.org/1999/xlink"><radialGradient id="a" cx="219.91321" cy="-77.60083" gradientTransform="matrix(-.17106159 .22188824 -.21854058 -.16868376 234.42623 -60.164181)" gradientUnits="userSpaceOnUse" r="54.40234" spreadMethod="reflect"><stop offset="0" stop-color="#b21a27"/><stop offset="1" stop-color="#c71f2c"/></radialGradient><filter id="b" color-interpolation-filters="sRGB" height="1.024199" width="1.023804" x="-.011902" y="-.012099"><feGaussianBlur stdDeviation="1.5471338"/></filter><radialGradient id="c" cx="4601.1221" cy="4277.6772" gradientTransform="matrix(0 .14277106 -.14490835 0 721.24408 -581.81013)" gradientUnits="userSpaceOnUse" r="11.2507" xlink:href="#d"/><linearGradient id="d"><stop offset="0" stop-color="#e74b58"/><stop offset=".1375" stop-color="#e74b58" stop-opacity=".85"/><stop offset="1" stop-color="#da4652" stop-opacity="0"/></linearGradient><radialGradient id="e" cx="4694.3481" cy="4395.814" gradientTransform="matrix(0 .14277106 -.14490835 0 721.24408 -581.81013)" gradientUnits="userSpaceOnUse" r="11.2507" xlink:href="#d"/><radialGradient id="f" cx="4264.2671" cy="4804.9849" gradientTransform="matrix(0 .14277106 -.14490835 0 721.24408 -581.81013)" gradientUnits="userSpaceOnUse" r="11.2507" xlink:href="#d"/><radialGradient id="g" cx="4253.0161" cy="4349.7529" gradientTransform="matrix(0 .14277106 -.14490835 0 721.24408 -581.81013)" gradientUnits="userSpaceOnUse" r="11.2507" xlink:href="#d"/><radialGradient id="h" cx="4291.9346" cy="4509.8506" gradientTransform="matrix(0 .14277106 -.14490835 0 721.24408 -581.81013)" gradientUnits="userSpaceOnUse" r="11.2507" xlink:href="#d"/><radialGradient id="i" cx="4178.7915" cy="4193.6758" gradientTransform="matrix(0 .14277106 -.14490835 0 721.24408 -581.81013)" gradientUnits="userSpaceOnUse" r="11.2507" xlink:href="#d"/><radialGradient id="j" cx="4508.9131" cy="4184.4229" gradientTransform="matrix(0 .14277106 -.14490835 0 721.24408 -581.81013)" gradientUnits="userSpaceOnUse" r="11.2507" xlink:href="#d"/><radialGradient id="k" cx="4169.5386" cy="4599.0166" gradientTransform="matrix(0 .14277106 -.14490835 0 721.24408 -581.81013)" gradientUnits="userSpaceOnUse" r="11.2507" xlink:href="#d"/><radialGradient id="l" cx="4381.2778" cy="4473.0386" gradientTransform="matrix(0 .14277106 -.14490835 0 721.24408 -581.81013)" gradientUnits="userSpaceOnUse" r="5.6228" xlink:href="#d"/><radialGradient id="m" cx="4207.3452" cy="4447.1753" gradientTransform="matrix(0 .14277106 -.14490835 0 721.24408 -581.81013)" gradientUnits="userSpaceOnUse" r="5.6228" xlink:href="#d"/><radialGradient id="n" cx="4156.0269" cy="4803.9863" gradientTransform="matrix(0 .14277106 -.14490835 0 721.24408 -581.81013)" gradientUnits="userSpaceOnUse" r="5.6228" xlink:href="#d"/><radialGradient id="o" cx="4756.5977" cy="4610.2671" gradientTransform="matrix(0 .14277106 -.14490835 0 721.24408 -581.81013)" gradientUnits="userSpaceOnUse" r="5.6228" xlink:href="#d"/><radialGradient id="p" cx="4724.8408" cy="4498.3604" gradientTransform="matrix(0 .14277106 -.14490835 0 721.24408 -581.81013)" gradientUnits="userSpaceOnUse" r="5.6228" xlink:href="#d"/><radialGradient id="q" cx="4625.9868" cy="4580.4009" gradientTransform="matrix(0 .14277106 -.14490835 0 721.24408 -581.81013)" gradientUnits="userSpaceOnUse" r="5.6228" xlink:href="#d"/><radialGradient id="r" cx="4483.835" cy="4313.1982" gradientTransform="matrix(0 .14277106 -.14490835 0 721.24408 -581.81013)" gradientUnits="userSpaceOnUse" r="5.6228" xlink:href="#d"/><radialGradient id="s" cx="4664.439" cy="4695.5273" gradientTransform="matrix(0 .14277106 -.14490835 0 721.24408 -581.81013)" gradientUnits="userSpaceOnUse" r="11.2507" xlink:href="#d"/><radialGradient id="t" cx="4371.5723" cy="4725.9341" gradientTransform="matrix(0 .14277106 -.14490835 0 721.24408 -581.81013)" gradientUnits="userSpaceOnUse" r="11.2507" xlink:href="#d"/><radialGradient id="u" cx="4510.9111" cy="4743.7231" gradientTransform="matrix(0 .14277106 -.14490835 0 721.24408 -581.81013)" gradientUnits="userSpaceOnUse" r="11.2507" xlink:href="#d"/><radialGradient id="v" cx="4269.4331" cy="4686.5615" gradientTransform="matrix(0 .14277106 -.14490835 0 721.24408 -581.81013)" gradientUnits="userSpaceOnUse" r="11.2507" xlink:href="#d"/><radialGradient id="w" cx="4484.8335" cy="4664.189" gradientTransform="matrix(0 .14277106 -.14490835 0 721.24408 -581.81013)" gradientUnits="userSpaceOnUse" r="7.1455" xlink:href="#d"/><radialGradient id="x" cx="4613.2183" cy="4640.4971" gradientTransform="matrix(0 .14277106 -.14490835 0 721.24408 -581.81013)" gradientUnits="userSpaceOnUse" r="7.1455" xlink:href="#d"/><radialGradient id="y" cx="4091.8" cy="4252.5869" gradientTransform="matrix(0 .14277106 -.14490835 0 721.24408 -581.81013)" gradientUnits="userSpaceOnUse" r="7.1455" xlink:href="#d"/><radialGradient id="z" cx="4347.4258" cy="4820.2441" gradientTransform="matrix(0 .14277106 -.14490835 0 721.24408 -581.81013)" gradientUnits="userSpaceOnUse" r="7.1455" xlink:href="#d"/><radialGradient id="A" cx="4533.5781" cy="4593.1694" gradientTransform="matrix(0 .14277106 -.14490835 0 721.24408 -581.81013)" gradientUnits="userSpaceOnUse" r="7.1455" xlink:href="#d"/><radialGradient id="B" cx="4448.2217" cy="4220.0913" gradientTransform="matrix(0 .14277106 -.14490835 0 721.24408 -581.81013)" gradientUnits="userSpaceOnUse" r="11.2507" xlink:href="#d"/><radialGradient id="C" cx="4367.481" cy="4195.6733" gradientTransform="matrix(0 .14277106 -.14490835 0 721.24408 -581.81013)" gradientUnits="userSpaceOnUse" r="11.2507" xlink:href="#d"/><radialGradient id="D" cx="4526.4326" cy="4089.8687" gradientTransform="matrix(0 .14277106 -.14490835 0 721.24408 -581.81013)" gradientUnits="userSpaceOnUse" r="11.2507" xlink:href="#d"/><radialGradient id="E" cx="4261.9028" cy="4242.5928" gradientTransform="matrix(0 .14277106 -.14490835 0 721.24408 -581.81013)" gradientUnits="userSpaceOnUse" r="11.2507" xlink:href="#d"/><radialGradient id="F" cx="16633.223" cy="4517.6021" gradientTransform="matrix(0 .04133223 -.14490835 0 721.24408 -619.22488)" gradientUnits="userSpaceOnUse" r="19.241899" xlink:href="#d"/><radialGradient id="G" cx="-15595.086" cy="5031.6465" gradientTransform="matrix(.04195096 0 0 .14277106 720.77537 -650.17277)" gradientUnits="userSpaceOnUse" r="19.241899" xlink:href="#d"/><radialGradient id="H" cx="16323.169" cy="4900.5503" gradientTransform="matrix(0 .04133223 -.14490835 0 721.24408 -619.22488)" gradientUnits="userSpaceOnUse" r="29.7325" xlink:href="#d"/><radialGradient id="I" cx="-16917.998" cy="4941.8945" gradientTransform="matrix(.04195096 0 0 .14277106 720.77537 -650.17277)" gradientUnits="userSpaceOnUse" r="29.7325" xlink:href="#d"/><radialGradient id="J" cx="16788.486" cy="4380.1377" gradientTransform="matrix(0 .04133223 -.14490835 0 721.24408 -619.22488)" gradientUnits="userSpaceOnUse" r="29.7325" xlink:href="#d"/><radialGradient id="K" cx="-15120.208" cy="5076.5913" gradientTransform="matrix(.04195096 0 0 .14277106 720.77537 -650.17277)" gradientUnits="userSpaceOnUse" r="29.7325" xlink:href="#d"/><radialGradient id="L" cx="15052.254" cy="4385.373" gradientTransform="matrix(0 .04133223 -.14490835 0 721.24408 -617.84714)" gradientUnits="userSpaceOnUse" r="29.7325" xlink:href="#d"/><radialGradient id="M" cx="-15138.295" cy="4573.998" gradientTransform="matrix(.04195096 0 0 .14277106 720.77537 -648.79503)" gradientUnits="userSpaceOnUse" r="29.7325" xlink:href="#d"/><radialGradient id="N" cx="16060.047" cy="4376.7666" gradientTransform="matrix(0 .04133223 -.14490835 0 721.24408 -619.22488)" gradientUnits="userSpaceOnUse" r="29.7325" xlink:href="#d"/><radialGradient id="O" cx="-15108.562" cy="4865.7275" gradientTransform="matrix(.04195096 0 0 .14277106 720.77537 -650.17277)" gradientUnits="userSpaceOnUse" r="29.7325" xlink:href="#d"/><radialGradient id="P" cx="15866.068" cy="4081.2617" gradientTransform="matrix(0 .04133223 -.14490835 0 719.39892 -619.22488)" gradientUnits="userSpaceOnUse" r="29.7325" xlink:href="#d"/><radialGradient id="Q" cx="-14087.729" cy="4809.5757" gradientTransform="matrix(.04195096 0 0 .14277106 718.93021 -650.17277)" gradientUnits="userSpaceOnUse" r="29.7325" xlink:href="#d"/><radialGradient id="R" cx="15420.522" cy="4902.7319" gradientTransform="matrix(0 .04133223 -.14490835 0 721.24408 -619.22488)" gradientUnits="userSpaceOnUse" r="19.241899" xlink:href="#d"/><radialGradient id="S" cx="-16925.533" cy="4680.6021" gradientTransform="matrix(.04195096 0 0 .14277106 720.77537 -650.17277)" gradientUnits="userSpaceOnUse" r="19.241899" xlink:href="#d"/><radialGradient id="T" cx="16866.557" cy="4774.4922" gradientTransform="matrix(0 .04133223 -.14490835 0 721.24408 -619.22488)" gradientUnits="userSpaceOnUse" r="19.241899" xlink:href="#d"/><radialGradient id="U" cx="-16482.523" cy="5099.1909" gradientTransform="matrix(.04195096 0 0 .14277106 720.77537 -650.17277)" gradientUnits="userSpaceOnUse" r="19.241899" xlink:href="#d"/><radialGradient id="V" cx="16071.692" cy="4574.7783" gradientTransform="matrix(0 .04133223 -.14490835 0 721.24408 -619.22488)" gradientUnits="userSpaceOnUse" r="19.241899" xlink:href="#d"/><radialGradient id="W" cx="-15792.604" cy="4869.0986" gradientTransform="matrix(.04195096 0 0 .14277106 720.77537 -650.17277)" gradientUnits="userSpaceOnUse" r="19.241899" xlink:href="#d"/><radialGradient id="X" cx="16699.693" cy="4871.0977" gradientTransform="matrix(0 .04133223 -.14490835 0 721.24408 -619.22488)" gradientUnits="userSpaceOnUse" r="19.241899" xlink:href="#d"/><radialGradient id="Y" cx="-16816.252" cy="5050.8887" gradientTransform="matrix(.04195096 0 0 .14277106 720.77537 -650.17277)" gradientUnits="userSpaceOnUse" r="19.241899" xlink:href="#d"/><radialGradient id="Z" cx="17188.609" cy="4244.9609" gradientTransform="matrix(0 .04133223 -.14490835 0 721.24408 -619.22488)" gradientUnits="userSpaceOnUse" r="19.241899" xlink:href="#d"/><radialGradient id="aa" cx="-14653.234" cy="5192.417" gradientTransform="matrix(.04195096 0 0 .14277106 720.77537 -650.17277)" gradientUnits="userSpaceOnUse" r="19.241899" xlink:href="#d"/><radialGradient id="ab" cx="15143.32" cy="4682.5854" gradientTransform="matrix(0 .04133223 -.14490835 0 721.24408 -619.22488)" gradientUnits="userSpaceOnUse" r="19.241899" xlink:href="#d"/><radialGradient id="ac" cx="-16165.027" cy="4600.3594" gradientTransform="matrix(.04195096 0 0 .14277106 720.77537 -650.17277)" gradientUnits="userSpaceOnUse" r="19.241899" xlink:href="#d"/><radialGradient id="ad" cx="16783.117" cy="4155.2524" gradientTransform="matrix(0 .04133223 -.14490835 0 721.24408 -619.22488)" gradientUnits="userSpaceOnUse" r="19.241899" xlink:href="#d"/><radialGradient id="ae" cx="-14343.332" cy="5075.0371" gradientTransform="matrix(.04195096 0 0 .14277106 720.77537 -650.17277)" gradientUnits="userSpaceOnUse" r="19.241899" xlink:href="#d"/><g><g stroke="none" stroke-width="1.17444" transform="matrix(.85172933 0 0 .85121669 -116.02886 25.118623)"><path d="m213.88477 10.900391c-4.93571.07112-8.55475 2.734744-11.93946 5.345703v-.002c-8.50009 6.554963-18.25603 14.097921-26.54492 22.599609-6.54598 6.714026-13.61109 13.905524-18.48047 22.982422-1.10711 2.063741-1.72758 4.2377-2.02344 6.361328-.13992 1.004372-.73343 3.083936.44141 5.841797 1.84257 4.325375 5.28939 6.420928 7.49609 8.017578 2.33777 1.691481 4.12291 2.058609 4.59571 2.333984 1.23937.721857 3.30347 3.607704 7.87109 5.126953 5.12727 1.705392 9.23183.505896 11.4707.712891 3.48407.32212 7.34333 1.207688 11.69727 1.626953 3.51999.338959 7.03049.50829 10.51172.56836 4.46598.07706 8.3913-.418217 11.76758-.238282 2.20118.11731 5.40391 1.262377 9.73437 1.19336 5.55755-.08858 10.5415-1.423363 15.04492-2.347657 4.21921-.865961 9.53601-1.235944 14.86328-3.857421 2.95223-1.452746 4.46375-3.361671 5.48243-4.179688.66171-.531369 2.53641-1.378716 4.36328-3.734375 1.15793-1.493107 3.19842-3.823847 3.1914-7.689453-.009-4.641459-2.68257-7.072252-3.36914-8.244141-5.04017-8.602988-10.7953-16.981427-17.60156-24.529297-7.97932-8.848748-17.94928-17.05463-26.24219-23.285156-4.02506-3.02406-8.18314-4.663268-12.33007-4.603515zm.14453 9.941406c1.72941-.02492 3.26512.396643 6.21289 2.611328 7.98901 6.002208 17.57369 13.947108 24.83008 21.994141 6.22093 6.898766 11.61303 14.715028 16.40625 22.896484 1.44977 2.474595 2.00664 3.653542 2.00585 3.238281-.00083-.460717-.17678.378676-1.10546 1.576172-.0465.05995-1.01062.691576-2.73243 2.074219-2.0017 1.607407-3.12305 2.754144-3.64648 3.011719-3.10419 1.527529-7.48478 2.015738-12.4707 3.039062-4.83701.992759-9.22871 2.083106-13.20508 2.146484-1.97847.03153-4.94726-.963155-9.04688-1.18164-4.57893-.24403-8.62566.28499-12.125.224609-3.27445-.0565-6.5249-.214755-9.73047-.523437-3.49533-.336586-7.36634-1.227012-11.73437-1.63086-4.6458-.429528-7.81466.230669-9.24805-.246093-.73493-.244447-2.41444-2.192559-6.0039-4.283204-2.21536-1.290314-3.58892-1.666728-3.77149-1.798828-2.11379-1.529425-3.49048-2.801808-3.96875-3.611328-.00082-.154189-.0147-.36401.0488-.820312.1571-1.127677.49278-2.20225.9375-3.03125 3.98783-7.43363 10.30428-14.040847 16.83789-20.742188 7.60929-7.804637 17.01456-15.123852 25.49805-21.666015h.002c2.98327-2.301291 5.0691-3.263789 6.00977-3.277344z" fill="#831628"/><path d="m265.76909 65.830834c-4.9167-8.392231-10.49106-16.488964-17.00466-23.712289-7.61786-8.447899-17.39411-16.523164-25.53508-22.639537-3.48642-2.619375-6.33413-3.650192-9.27231-3.607856-2.93819.04234-5.7912 1.854727-8.97519 4.310854-8.4918 6.54857-18.07221 13.979457-26.02131 22.132628-6.5398 6.70769-13.23173 13.607282-17.66034 21.862554-.77592 1.446372-1.2536 3.070701-1.48008 4.696355-.14761 1.059558-.32797 2.223864.0913 3.208073 1.08768 2.553289 3.58903 4.309852 5.8375 5.936721 1.26017.911791 2.83951 1.284079 4.18359 2.066925 2.41442 1.406252 4.2861 3.822972 6.93738 4.704821 3.28033 1.091078 6.91763.161427 10.35997.479689 3.92605.362984 7.79111 1.250585 11.71575 1.628511 3.36278.323821 6.74247.487549 10.12031.545835 3.98266.06872 7.96992-.443493 11.94753-.23151 3.1504.167898 6.23528 1.238369 9.38975 1.188094 4.76696-.07598 9.45492-1.288165 14.12514-2.246692 4.60257-.944644 9.45157-1.373545 13.66731-3.44805 1.73783-.855161 3.05336-2.383983 4.56355-3.596696 1.19176-.957007 2.61229-1.695682 3.54897-2.903488 1.04331-1.345303 2.15151-2.931048 2.14842-4.633494-.004-2.113101-1.61933-3.918204-2.6875-5.741448z" fill="url(#a)"/></g><g id="af" opacity=".95" stroke-width="1.37562" transform="matrix(.72693955 0 0 .72693955 8.32608 31.087548)"><path d="m716.94336 276.20898 6.96875 15.83985 177.23242 176.92187 17.31836 1.5 241.32811-64.40039 10.1797-14.29101 62.4402-231.91266-.034-19.84924-176.404-176.128718-15.0606-9.279307-246.15624 65.691406-12.46094 12.121094z" fill="#831628" stroke-width="5.19924" transform="scale(.26458334)"/><path d="m292.26367 77.613281-160.63086 42.867189 42.25391 37.00391 99.63672-26.80469zm12.4043 5.701172-19.74219 55.837887 66.6543 66.78711 69.51172-6.38281zm-183.68945 45.888667-43.001958 160.42579 57.427738-22.87696 27.10156-101.1582zm150.79492 15.99219-96.70508 26.03321-25.9668 96.95507 70.69532 70.89844 96.72851-26.03125 25.9668-96.95703zm151.47656 67.81055-67.51562 6.19922-26.14649 97.54883 51.86133 52.22461zm-282.37109 66.19726-59.539066 23.71485 117.582036 117.37891 12.58398-70.31055-70.625-70.78321zm178.98632 47.02344-94.88671 25.53321-12.76758 71.37695 161.15234-43.00391z" fill="#b21a27" stroke-width="36.0001" transform="matrix(.36396883 0 0 .36396883 166.89113 -34.757655)"/><path d="m274.27344 92.083984-84.4375 21.285156c50.54411-9.18997 77.98586-8.09951 78.18945 3.17969zm37.11914 10.630856c23.53759 28.97436 58.77642 79.67234 47 95.20704l42.77734-5.49805zm-186.25586 46.61524c21.31677 25.55192 10.52096 97.94747-26.419923 120.15039l28.373043-11.49609 21.92188-86.48243zm142.39062 10.74609-82.73632 22.3086-7.17969 27.1914c70.28343-70.87661 182.48264 23.98983 95.59375 102.40625l32.48437-8.70117 21.92188-82.73242zm143.16016 63.01563-43.54883 3.38281c22.26238 15.0113 27.17745 30.98745 22.28516 81.05469zm-269.73828 70.65039c30.78267 42.08354 47.58093 72.14551 51.38281 104.54101l5.4082-44.61523zm192.45508 63.3789c-5.52473 14.64495-21.56056 22.62107-66.10742 41.84571l83.75781-23.78516z" fill="#da4652" filter="url(#b)" opacity="1" stroke-width="36.0001" transform="matrix(.36396883 0 0 .36396883 166.89113 -34.757655)"/></g><use stroke-width="11.982" transform="matrix(.08967401 0 0 .07767401 -3.753315 91.296066)" xlink:href="#af"/><use stroke-width="11.982" transform="matrix(.08967401 0 0 .07767401 10.442368 103.70707)" xlink:href="#af"/><use stroke-width="12.0862" transform="matrix(.08967401 0 0 .07634068 105.75475 86.658987)" xlink:href="#af"/><g stroke-width="11.1515"><use transform="matrix(.08967401 0 0 .08967401 45.148827 108.01926)" xlink:href="#af"/><use transform="matrix(.08837047 .02140811 -.02930298 .08389801 53.944311 107.46582)" xlink:href="#af"/><use transform="matrix(.08967401 0 .01333333 .08967401 77.974963 82.260687)" xlink:href="#af"/></g><g stroke-width=".095891" transform="matrix(-1 0 0 1 135.6946 0)"><ellipse cx="101.37306" cy="75.090439" fill="url(#c)" opacity=".4" rx="1.637465" ry="1.613313"/><ellipse cx="101.37306" cy="75.090439" fill="#ffccd0" opacity=".8" rx=".289817" ry=".285542"/><ellipse cx="84.259369" cy="88.410988" fill="url(#e)" opacity=".4" rx="1.637465" ry="1.613313"/><ellipse cx="84.259369" cy="88.410988" fill="#ffccd0" opacity=".8" rx=".289817" ry=".285542"/><ellipse cx="24.962875" cy="27.005148" fill="url(#f)" opacity=".4" rx="1.637465" ry="1.613313"/><ellipse cx="24.962875" cy="27.005148" fill="#ffccd0" opacity=".8" rx=".289817" ry=".285542"/><ellipse cx="90.925156" cy="25.391836" fill="url(#g)" opacity=".4" rx="1.637465" ry="1.613313"/><ellipse cx="90.925156" cy="25.391836" fill="#ffccd0" opacity=".8" rx=".289817" ry=".285542"/><ellipse cx="67.725342" cy="30.959906" fill="url(#h)" opacity=".4" rx="1.637465" ry="1.613313"/><ellipse cx="67.725342" cy="30.959906" fill="#ffccd0" opacity=".8" rx=".289817" ry=".285542"/><ellipse cx="113.54536" cy="14.798224" fill="url(#i)" opacity=".4" rx="1.637465" ry="1.613313"/><ellipse cx="113.54536" cy="14.798224" fill="#ffccd0" opacity=".8" rx=".289817" ry=".285542"/><ellipse cx="114.89299" cy="61.926949" fill="url(#j)" opacity=".4" rx="1.637465" ry="1.613313"/><ellipse cx="114.89299" cy="61.926949" fill="#ffccd0" opacity=".8" rx=".289817" ry=".285542"/><ellipse cx="54.813995" cy="13.484729" fill="url(#k)" opacity=".4" rx="1.637465" ry="1.613313"/><ellipse cx="54.813995" cy="13.484729" fill="#ffccd0" opacity=".8" rx=".289817" ry=".285542"/><ellipse cx="73.057961" cy="43.709366" fill="url(#l)" opacity=".4" rx=".811487" ry=".799518"/><ellipse cx="73.057961" cy="43.709366" fill="#ffccd0" opacity=".8" rx=".144908" ry=".142771"/><ellipse cx="76.811081" cy="18.881468" fill="url(#m)" opacity=".4" rx=".811487" ry=".799518"/><ellipse cx="76.811081" cy="18.881468" fill="#ffccd0" opacity=".8" rx=".144908" ry=".142771"/><ellipse cx="25.10778" cy="11.557319" fill="url(#n)" opacity=".4" rx=".811487" ry=".799518"/><ellipse cx="25.10778" cy="11.557319" fill="#ffccd0" opacity=".8" rx=".144908" ry=".142771"/><ellipse cx="53.176529" cy="97.291344" fill="url(#o)" opacity=".4" rx=".811487" ry=".799518"/><ellipse cx="53.176529" cy="97.291344" fill="#ffccd0" opacity=".8" rx=".144908" ry=".142771"/><ellipse cx="69.391777" cy="92.765495" fill="url(#p)" opacity=".4" rx=".811487" ry=".799518"/><ellipse cx="69.391777" cy="92.765495" fill="#ffccd0" opacity=".8" rx=".144908" ry=".142771"/><ellipse cx="57.509293" cy="78.645439" fill="url(#q)" opacity=".4" rx=".811487" ry=".799518"/><ellipse cx="57.509293" cy="78.645439" fill="#ffccd0" opacity=".8" rx=".144908" ry=".142771"/><ellipse cx="96.228806" cy="58.357674" fill="url(#r)" opacity=".4" rx=".811487" ry=".799518"/><ellipse cx="96.228806" cy="58.357674" fill="#ffccd0" opacity=".8" rx=".144908" ry=".142771"/><ellipse cx="40.815849" cy="84.142128" fill="url(#s)" opacity=".4" rx="1.637465" ry="1.613313"/><ellipse cx="40.815849" cy="84.142128" fill="#ffccd0" opacity=".8" rx=".289817" ry=".285542"/><ellipse cx="36.410637" cy="42.324486" fill="url(#t)" opacity=".4" rx="1.637465" ry="1.613313"/><ellipse cx="36.410637" cy="42.324486" fill="#ffccd0" opacity=".8" rx=".289817" ry=".285542"/><ellipse cx="33.845757" cy="62.212494" fill="url(#u)" opacity=".4" rx="1.637465" ry="1.613313"/><ellipse cx="33.845757" cy="62.212494" fill="#ffccd0" opacity=".8" rx=".289817" ry=".285542"/><ellipse cx="42.120026" cy="27.747557" fill="url(#v)" opacity=".4" rx="1.637465" ry="1.613313"/><ellipse cx="42.120026" cy="27.747557" fill="#ffccd0" opacity=".8" rx=".289817" ry=".285542"/><ellipse cx="45.365974" cy="58.500443" fill="url(#w)" opacity=".4" rx="1.028849" ry="1.013675"/><ellipse cx="45.365974" cy="58.500443" fill="#ffccd0" opacity=".8" rx=".188381" ry=".185602"/><ellipse cx="48.800293" cy="76.817963" fill="url(#x)" opacity=".4" rx="1.028849" ry="1.013675"/><ellipse cx="48.800293" cy="76.817963" fill="#ffccd0" opacity=".8" rx=".188381" ry=".185602"/><ellipse cx="105.01025" cy="2.377143" fill="url(#y)" opacity=".4" rx="1.028849" ry="1.013675"/><ellipse cx="105.01025" cy="2.377143" fill="#ffccd0" opacity=".8" rx=".188381" ry=".185602"/><ellipse cx="22.745773" cy="38.869423" fill="url(#z)" opacity=".4" rx="1.028849" ry="1.013675"/><ellipse cx="22.745773" cy="38.869423" fill="#ffccd0" opacity=".8" rx=".188381" ry=".185602"/><ellipse cx="55.654465" cy="65.453392" fill="url(#A)" opacity=".4" rx="1.028849" ry="1.013675"/><ellipse cx="55.654465" cy="65.453392" fill="#ffccd0" opacity=".8" rx=".188381" ry=".185602"/><ellipse cx="109.71977" cy="53.260742" fill="url(#B)" opacity=".4" rx="1.637465" ry="1.613313"/><ellipse cx="109.71977" cy="53.260742" fill="#ffccd0" opacity=".8" rx=".289817" ry=".285542"/><ellipse cx="113.25554" cy="41.739128" fill="url(#C)" opacity=".4" rx="1.637465" ry="1.613313"/><ellipse cx="113.25554" cy="41.739128" fill="#ffccd0" opacity=".8" rx=".289817" ry=".285542"/><ellipse cx="128.58684" cy="64.439735" fill="url(#D)" opacity=".4" rx="1.637465" ry="1.613313"/><ellipse cx="128.58684" cy="64.439735" fill="#ffccd0" opacity=".8" rx=".289817" ry=".285542"/><ellipse cx="106.45934" cy="26.662497" fill="url(#E)" opacity=".4" rx="1.637465" ry="1.613313"/><ellipse cx="106.45934" cy="26.662497" fill="#ffccd0" opacity=".8" rx=".289817" ry=".285542"/><ellipse cx="66.609535" cy="68.194603" fill="url(#F)" opacity=".8" rx="2.782241" ry=".799518"/><ellipse cx="66.609535" cy="68.194603" fill="url(#G)" opacity=".8" rx=".811487" ry="2.741205"/><ellipse cx="66.609535" cy="68.194603" fill="#ffccd0" opacity=".8" rx=".318798" ry=".314096"/><ellipse cx="11.109633" cy="55.388039" fill="url(#H)" opacity=".8" rx="4.303778" ry="1.227831"/><ellipse cx="11.109633" cy="55.388039" fill="url(#I)" opacity=".8" rx="1.246212" ry="4.240301"/><ellipse cx="11.109633" cy="55.388039" fill="#ffccd0" opacity=".8" rx=".492688" ry=".485422"/><ellipse cx="86.519936" cy="74.619293" fill="url(#J)" opacity=".8" rx="4.303778" ry="1.227831"/><ellipse cx="86.519936" cy="74.619293" fill="url(#K)" opacity=".8" rx="1.246212" ry="4.240301"/><ellipse cx="86.519936" cy="74.619293" fill="#ffccd0" opacity=".8" rx=".492688" ry=".485422"/><ellipse cx="85.766418" cy="4.240301" fill="url(#L)" opacity=".8" rx="4.303778" ry="1.227831"/><ellipse cx="85.766418" cy="4.240301" fill="url(#M)" opacity=".8" rx="1.246212" ry="4.240301"/><ellipse cx="85.766418" cy="4.240301" fill="#ffccd0" opacity=".8" rx=".492688" ry=".485422"/><ellipse cx="87.012642" cy="44.508881" fill="url(#N)" opacity=".8" rx="4.303778" ry="1.227831"/><ellipse cx="87.012642" cy="44.508881" fill="url(#O)" opacity=".8" rx="1.246212" ry="4.240301"/><ellipse cx="87.012642" cy="44.508881" fill="#ffccd0" opacity=".8" rx=".492688" ry=".485422"/><ellipse cx="127.98789" cy="36.499428" fill="url(#P)" opacity=".8" rx="4.303778" ry="1.227831"/><ellipse cx="127.98789" cy="36.499428" fill="url(#Q)" opacity=".8" rx="1.246212" ry="4.240301"/><ellipse cx="127.98789" cy="36.499428" fill="#ffccd0" opacity=".8" rx=".492688" ry=".485422"/><ellipse cx="10.790835" cy="18.081957" fill="url(#R)" opacity=".8" rx="2.782241" ry=".799518"/><ellipse cx="10.790835" cy="18.081957" fill="url(#S)" opacity=".8" rx=".811487" ry="2.741205"/><ellipse cx="10.790835" cy="18.081957" fill="#ffccd0" opacity=".8" rx=".318798" ry=".314096"/><ellipse cx="29.38258" cy="77.845924" fill="url(#T)" opacity=".8" rx="2.782241" ry=".799518"/><ellipse cx="29.38258" cy="77.845924" fill="url(#U)" opacity=".8" rx=".811487" ry="2.741205"/><ellipse cx="29.38258" cy="77.845924" fill="#ffccd0" opacity=".8" rx=".318798" ry=".314096"/><ellipse cx="58.32077" cy="44.994301" fill="url(#V)" opacity=".8" rx="2.782241" ry=".799518"/><ellipse cx="58.32077" cy="44.994301" fill="url(#W)" opacity=".8" rx=".811487" ry="2.741205"/><ellipse cx="58.32077" cy="44.994301" fill="#ffccd0" opacity=".8" rx=".318798" ry=".314096"/><ellipse cx="15.384429" cy="70.950073" fill="url(#X)" opacity=".8" rx="2.782241" ry=".799518"/><ellipse cx="15.384429" cy="70.950073" fill="url(#Y)" opacity=".8" rx=".811487" ry="2.741205"/><ellipse cx="15.384429" cy="70.950073" fill="#ffccd0" opacity=".8" rx=".318798" ry=".314096"/><ellipse cx="106.11156" cy="91.152184" fill="url(#Z)" opacity=".8" rx="2.782241" ry=".799518"/><ellipse cx="106.11156" cy="91.152184" fill="url(#aa)" opacity=".8" rx=".811487" ry="2.741205"/><ellipse cx="106.11156" cy="91.152184" fill="#ffccd0" opacity=".8" rx=".318798" ry=".314096"/><ellipse cx="42.699661" cy="6.631717" fill="url(#ab)" opacity=".8" rx="2.782241" ry=".799518"/><ellipse cx="42.699661" cy="6.631717" fill="url(#ac)" opacity=".8" rx=".811487" ry="2.741205"/><ellipse cx="42.699661" cy="6.631717" fill="#ffccd0" opacity=".8" rx=".318798" ry=".314096"/><ellipse cx="119.10985" cy="74.390869" fill="url(#ad)" opacity=".8" rx="2.782241" ry=".799518"/><ellipse cx="119.10985" cy="74.390869" fill="url(#ae)" opacity=".8" rx=".811487" ry="2.741205"/><ellipse cx="119.10985" cy="74.390869" fill="#ffccd0" opacity=".8" rx=".318798" ry=".314096"/></g></g></svg>