<svg height="500" viewBox="0 0 500 500" width="500" xmlns="http://www.w3.org/2000/svg" xmlns:xlink="http://www.w3.org/1999/xlink"><linearGradient id="a"><stop offset="0" stop-color="#5bba2c"/><stop offset=".51739246" stop-color="#5bba2c"/><stop offset=".83532399" stop-color="#5bba2c" stop-opacity="0"/><stop offset="1" stop-color="#5bba2c" stop-opacity="0"/></linearGradient><linearGradient id="b" gradientUnits="userSpaceOnUse" x1="276.02634" x2="269.65936" xlink:href="#a" y1="88.762878" y2="237.07553"/><linearGradient id="c" gradientUnits="userSpaceOnUse" x1="404.82788" x2="241.81781" xlink:href="#a" y1="255.48943" y2="221.67209"/><linearGradient id="d" gradientUnits="userSpaceOnUse" x1="258.30777" x2="259.51877" xlink:href="#a" y1="373.7753" y2="212.61919"/><linearGradient id="e" gradientUnits="userSpaceOnUse" x1="119.03395" x2="279.49426" xlink:href="#a" y1="233.12531" y2="225.9783"/><g stroke-linecap="round" stroke-width="1.1339"><g transform="matrix(.88191422 0 0 .88191422 38.988017 -21.087837)"><path d="m265.07422 250.93555 17.94379-19.43201-11.71723-18.37268c-29.80209-39.51722-59.98089-83.77154-103.24219-96.95313-14.43079-4.39702-28.10551-6.12181-40.52929-5.38281-20.70631 1.23166-37.937748 9.30594-50.565433 25.16895-17.53298 39.92778-10.812716 71.4267 1.766602 97.13965-8.566367 23.51247-20.01765 53.54593-17.457625 78.37376s13.941776 39.69906 27.546487 46.72389c23.867419 9.61459 53.209129 9.23427 75.601579-5.81446 44.57264-30.28895 72.10039-66.83061 100.65331-101.45116z" fill="#4a862d" stroke-width="1.1339"/><g stroke-width="36.2847"><path d="m252.72973 240.75521c-81.42373 18.00078-107.83423 4.81521-133.69578-7.6299 32.95106-2.77419 52.84355 10.42264 139.4918-10.35966-29.84741-39.57731-60.42946-80.70925-95.13112-91.28274-34.70165-10.5735-59.17653-3.97992-72.901665 12.72394-15.970543 37.09426-8.075813 62.80298 5.615263 87.88358-8.706336 24.50768-21.083281 56.99382-18.649167 81.98704 1.862007 16.73463 8.704056 24.7567 18.026541 29.59961 17.450318 6.99929 44.204738 6.05225 59.976608-4.54683 42.11458-28.6184 68.43976-63.42124 97.26752-98.37504z" fill="#5bba2c"/><path d="m252.72973 240.75521c-81.42373 18.00078-107.83423 4.81521-133.69578-7.6299 32.95106-2.77419 52.84355 10.42264 139.4918-10.35966 15.14345-.31623 18.14924 2.18169 24.68263 9.41455-8.85313 2.69503-17.72448 5.39235-30.47865 8.57501z" fill="url(#e)" opacity=".5"/></g></g><g transform="matrix(.88191422 0 0 .88191422 36.165373 -25.291876)"><path d="m262.74805 224.25586c-154.00555 79.1416-222.599247 203.29118-295.103519 333.39648l-8.652343 15.52344 16.345703 6.97852 36.236328 15.47265 7.015625-12.57422c72.778509-130.46877 131.362786-237.49291 260.876956-331.62304 16.10491-13.54599 48.5783-32.46773 48.5783-32.46773s-33.06368-8.69098-65.29705 5.2939z" fill="#598131" stroke-width="1.1339"/><path d="m-18.379619 565.44027 22.9956991 9.81843c72.7450489-130.40879 133.1012299-240.58635 265.4445099-336.77266-149.70117 76.92963-215.917808 196.81639-288.440209 326.95423z" fill="#73b234" stroke-width="36.2847"/></g><g transform="matrix(.88191422 0 0 .88191422 49.383211 -8.479534)"><path d="m258.80469 417.26758c19.48985 9.31925 40.56514 10.64177 56.5127 9.21971 24.71957-2.42066 45.16848-10.50169 56.97166-26.23926 8.07845-10.70717 10.32753-25.93499 10.50585-39.58592.22832-17.47853-3.77077-33.15655-12.12305-51.01953-15.29653-32.71444-45.54604-65.84112-94.5332-85.95703l-10.47486-11.06636-21.06809 14.35737c-29.78501 17.58574-57.49686 35.18038-77.5 59.07617-22.63995 27.0174-34.66352 62.78381-27.70312 111.18555 1.43523 10.35421 9.10877 17.14905 16.67383 22.7168 9.15252 6.73609 19.29183 9.13981 32.23828 11.08985 26.37519.94874 49.78245-2.39469 70.5-13.77735z" fill="#4a862d" stroke-width="1.1339"/><g stroke-width="36.2847"><path d="m252.72973 240.75521c-29.42844 17.37521-55.63579 34.38944-73.36463 55.56835-20.27543 24.19272-30.62912 53.60299-24.13058 98.69419.46951 3.43776 3.34767 7.59435 9.45295 11.46171 6.01559 3.87489 14.95608 7.08855 25.11372 8.66453 27.13901.91705 49.24367-3.07885 68.53137-16.35291 17.19842 10.94894 39.99384 13.14704 55.49507 11.76543 21.45444-2.10087 38.3791-10.27878 45.69477-19.95233 9.10183-12.06351 11.41035-42.63116-3.34368-74.18556-13.65295-29.19932-40.65524-59.26386-86.11813-77.93258-9.29635 34.46948-8.04624 91.26427-11.75282 135.28926-12.20365-40.97202-14.34081-94.35054-5.57804-133.02009z" fill="#5bba2c"/><path d="m270.06059 238.48604c-9.29635 34.46948-8.04624 91.26427-11.75282 135.28926-12.20365-40.97202-14.34081-94.35054-5.57804-133.02009 3.35835-10.76222 6.5691-21.08163 9.43002-30.35157 4.31794 9.53393 8.02007 11.69078 7.90084 28.0824z" fill="url(#d)" opacity=".5"/></g></g><g transform="matrix(.88191422 0 0 .88191422 72.295766 -12.41734)"><path d="m388.57436 367.30097c20.95418.58745 34.71804-.9461 48.58984-9.93945 10.7037-6.9394 18.95265-18.35205 22.30371-31.09766 3.56051-28.13365-2.17825-52.73996-8.2998-73.50781 12.00507-25.08895 23.23278-58.11004 9.1084-87.48243-11.43479-22.48381-33.25953-35.13104-54.55185-40.45412-8.45686-2.24061-16.26733-4.32527-24.46491-3.50693-22.78246 2.27432-44.71854 8.15499-64.72362 22.99504-25.63886 22.10793-42.22471 45.49189-58.58496 64.23926l-14.74659 15.34077 12.26612 21.16705c12.52662 27.82433 26.96922 53.12717 44.76277 74.94931 21.68207 26.70023 50.65359 46.25732 88.34089 47.29697z" fill="#4a862d" stroke-width="1.1339"/><g stroke-width="36.2847"><path d="m270.00625 219.06797c50.20402 14.61498 88.51188 29.75135 134.82162 36.42145-48.00035 9.56564-87.55482-3.01919-134.76728-17.00338 12.12956 26.94239 25.94547 51.01981 42.59099 71.42789 19.89508 24.50217 43.66993 40.49199 76.36368 41.39389 18.94667.53208 31.68258-2.68771 39.86916-7.63845 8.18659-4.95073 12.52478-11.57937 14.9193-20.46987 3.20353-25.87991-3.13494-50.52225-9.68761-71.89635 11.89519-23.61147 22.43379-56.86036 11.81963-78.93634-8.54094-16.79027-26.20098-27.30207-44.30631-32.08097-29.84081-7.9087-51.15935-1.22423-75.10479 16.50573-23.46678 20.26232-39.42384 42.68758-56.51839 62.2764z" fill="#5bba2c"/><path d="m270.00625 219.06797c50.20402 14.61498 88.51188 29.75135 134.82162 36.42145-48.00035 9.56564-87.55482-3.01919-134.76728-17.00338-14.72188-5.4421-10.90605-8.90568-26.85601-14.5984 4.56369-1.90392 13.31367-7.63618 26.80167-4.81967z" fill="url(#c)" opacity=".5"/></g></g><g transform="matrix(.88191422 0 0 .88191422 48.433443 -25.273527)"><path d="m278.73045 42.666014c-18.64058-10.917595-36.46865-14.659269-55.54003-13.917968-19.978.776541-45.83036 6.734765-56.87306 19.051707-11.0427 12.316943-14.26774 26.358521-15.87988 40.891651-1.92722 17.373466.98141 33.355856 7.80859 51.855466 13.03164 35.31155 45.88391 72.32727 92.98438 96.45899l12.33459 6.44608 13.39392-9.97342c31.14973-15.02838 60.233-30.23988 82.16602-52.37305 24.82314-25.02414 39.80429-59.65398 36.92578-108.462894-.55789-10.456029-7.65306-17.876841-14.73633-24.066406-8.55098-7.472089-18.44867-10.709226-31.17578-13.734375-26.20241-3.154214-49.81019-1.78382-71.4082 7.824219z" fill="#4a862d" stroke-width="1.1339"/><g stroke-width="36.2847"><path d="m270.00625 219.06797c30.78-14.85 58.32-29.61 77.76-49.23 22.23-22.41 35.01-50.85 32.31-96.327004-.18-3.465-2.7-7.848-8.46-12.213-5.67-4.365-14.31-8.316-24.3-10.737-26.96691-3.186317-49.32853-1.055394-69.66 10.557-16.22121-12.350595-38.75252-16.449756-54.315-16.371-21.555.297-39.105 7.029-47.205 16.056-10.08 11.259-14.94 41.526004-2.88 74.205004 11.16 30.24 41.5295 65.34768 85.2695 87.75768 12.15-33.57 9.6805-93.15768 17.0605-136.717684 8.73 41.850004 6.39 95.220004-5.58 133.020004z" fill="#5bba2c"/><path d="m258.32434 222.78646c12.15-33.57 9.6805-93.15768 17.0605-136.717688 8.73 41.850008 6.39 95.220008-5.58 133.020008-2.32939 6.76758-1.36765 13.12378.25575 19.39726-5.14969-3.29857-12.3205-4.2462-11.73625-15.69958z" fill="url(#b)" opacity=".5" transform="translate(.20141 -.020806)"/></g></g></g></svg>