<svg height="500" viewBox="0 0 500 500" width="500" xmlns="http://www.w3.org/2000/svg" xmlns:xlink="http://www.w3.org/1999/xlink"><linearGradient id="a" gradientUnits="userSpaceOnUse" x1="135.156346" x2="450.165046" y1="67.42408" y2="382.43275"><stop offset=".21264368" stop-color="#fff"/><stop offset=".89999998" stop-color="#e3e1db" stop-opacity="0"/></linearGradient><filter id="b" color-interpolation-filters="sRGB" height="1.150216" width="1.149784" x="-.074892" y="-.075108"><feGaussianBlur stdDeviation="10.126711"/></filter><linearGradient id="c" gradientUnits="userSpaceOnUse" spreadMethod="reflect" x1="28.50038439525" x2="285.02783186743" y1="206.73884480533" y2="324.23348930958"><stop offset="0" stop-color="#e3e1db"/><stop offset=".51123601" stop-color="#c1c0be"/><stop offset="1" stop-color="#a2a19a"/></linearGradient><text style="font-size:223.974;font-family:Julian Daniel;text-anchor:middle;fill:#a51d2d;stroke:#000;stroke-width:9.99999" transform="matrix(.70710678 .70710678 -.70710678 .70710678 0 0)" x="-398.11673" y="736.36932"><tspan style="font-weight:bold;font-size:223.974;font-family:Action Man;fill:#a51d2d;stroke:#000;stroke-width:9.99999" x="-398.11673" y="736.36932">TODO</tspan></text><path d="m139.26953 14.380859c-2.65395.181893-4.98144.515523-6.95898.765625-8.08273 1.02223-14.1981 4.67696-18.99805 8.738282-5.47626 4.633558-13.565823 11.498485-15.652344 24.193359-2.581544 15.706529 1.257117 31.379522 13.041014 43.154297a16.0016 16.0016 0 0 0 .44531.427734s34.91095 32.289604 69.75196 65.853514c17.4205 16.78196 34.83402 33.89767 47.68359 47.26563 6.42479 6.68398 11.73013 12.46918 15.12305 16.52148 1.15348 1.37764 1.67836 2.12113 2.30664 2.9668.0314 3.43368.0356 7.07263-.36524 10.67187-.56384 5.06283-2.60585 8.44747-1.90429 7.77344.004-.004-1.89374 1.1194-6.3711 1.43555-3.38464.23898-7.67853.056-12.21093-.0625-.84105-.63687-1.57637-1.16622-2.94141-2.32422-4.02826-3.41728-9.78609-8.74336-16.45117-15.1875-13.33016-12.88827-30.43983-30.33952-47.23438-47.79688-33.58909-34.91471-65.978513-69.89453-65.978513-69.89453a16.0016 16.0016 0 0 0 -.43164-.44922c-11.688224-11.678444-26.952099-15.196559-41.775391-14.236324-9.429397.610841-15.579459 5.116513-19.970703 8.832034-6.056391 5.1244-12.608198 12.15998-15.355469 22.77929-1.074007 4.15148-2.599736 9.74958-2.517578 16.74024.08216 6.99065 2.560812 16.13825 9.234375 22.80664.254273.2663 36.68945 38.42939 74.958985 77.56836 19.201414 19.63764 38.792754 39.44895 54.476564 54.80273 7.8419 7.6769 14.69119 14.22692 20.16015 19.19531 2.73449 2.4842 5.10801 4.56544 7.25 6.30274 2.142 1.7373 2.99877 2.95082 7.51368 4.91797 16.65692 7.25742 35.13118 7.89694 49.79296 9.61523 10.99711 1.2888 21.38675-.23747 29.64258-.72656 4.12792-.24455 7.64642-.2409 9.44336-.0312.24872.029.0981.0236.25196.0605 9.72983 9.72967 138.66992 138.66601 138.66992 138.66601a16.0016 16.0016 0 0 0 .004.004c6.14929 6.14412 14.28233 9.04247 20.84766 9.74805 6.56533.70557 11.91992-.1248 15.875-.625 8.08264-1.02223 14.19805-4.67691 18.99805-8.73829 6.05639-5.12441 12.6082-12.16193 15.35547-22.78125 1.074-4.15146 2.59973-9.74763 2.51757-16.73828-.0821-6.98925-2.5599-16.13467-9.23047-22.80273l-.004-.004c-.007-.007-127.9721-127.96835-138.62891-138.625-.01-.0981-.004.0191-.0117-.10547-.10757-1.84887.15133-5.60545.73633-10.03125 1.17002-8.85159 3.79282-20.01725 2.29688-32.48047-1.64039-13.6665-3.3059-30.31045-11.45313-45.20117-2.20702-4.03379-2.99477-4.3257-4.63086-6.19726s-3.65469-4.06626-6.08984-6.65235c-4.8703-5.17217-11.3768-11.86005-19.01953-19.60351-15.28546-15.48692-35.0829-35.14937-54.7168-54.51563-39.26781-38.732511-77.86525-76.261716-77.86525-76.261716l.15429.154297c-6.14927-6.144132-14.28036-9.042464-20.8457-9.748047-3.28267-.352791-6.26401-.322517-8.91797-.140625z" fill="#7f7e75" stroke-width="3.779528"/><path d="m220.79181 259.98826c-10.13253 0-139.977762-140.23588-139.977762-140.23588-6.67173-6.66615-19.135505-10.25588-29.432239-9.58887-3.931271.25467-7.66351 2.53559-10.670886 5.08019-4.526309 3.82978-8.714213 8.83263-10.199196 14.57269-2.033144 7.85893-4.171407 17.51782 2.536434 24.22046 0 0 147.093739 154.05919 159.439729 159.43834s30.02432 6.6057 45.2657 8.39192c15.67055 1.8365 40.12837-4.77945 47.27425 2.36638 7.14589 7.14582 140.18384 140.17929 140.18384 140.17929 6.67172 6.66612 15.52 5.56498 23.40651 4.56756 3.90838-.4943 7.66352-2.53556 10.67089-5.08016 4.52631-3.82978 8.71421-8.83263 10.19919-14.5727 2.03314-7.85891 4.17141-17.51783-2.53641-24.22045 0 0-132.11942-132.11493-140.18385-140.17929-8.06444-8.06437 2.00507-33.76955 0-50.47448-1.61204-13.43037-3.7528-28.73475-9.60327-39.42768-5.1632-9.43682-159.43974-159.438334-159.43974-159.438334-6.67173-6.666148-15.52-5.565008-23.40652-4.56759-3.90837.494295-7.66351 2.535583-10.67089 5.080182-4.52631 3.829788-9.2376 8.722163-10.19919 14.572699-1.64723 10.022011 1.85431 22.539089 8.56215 29.241735 0 0 139.97776 129.457838 139.97776 140.235868 0 6.74228 1.21368 26.05322-7.162 34.10024-8.29623 7.9707-23.90197 5.73788-34.0345 5.73788z" fill="url(#c)"/><path d="m135.15637 67.424036c-4.9722 4.97226-7.8395 14.78694-1.59142 21.03528l293.97119 293.973404c6.24856 6.24938 17.29523 5.33369 22.62891 0 5.33322-5.33322 6.24808-16.37861 0-22.62695l-293.97315-293.973404c-4.04215-4.04192-16.06326-3.38065-21.03553 1.59167z" fill="url(#a)" filter="url(#b)" stroke-linecap="round" stroke-linejoin="round" stroke-width="1.5859" transform="matrix(-.63055536 0 0 -.63055536 533.74029 510.92129)"/><path d="m143.49219 14.25c-1.48741-.013794-2.89568.039913-4.22266.130859-2.65395.181893-4.98145.515524-6.95898.765625-8.08273 1.022229-14.1981 4.676964-18.99805 8.738282-5.47625 4.633553-13.565825 11.498498-15.652344 24.193359-2.581541 15.706513 1.257131 31.379534 13.041014 43.154297a16.0016 16.0016 0 0 0 .44531.427734s34.91098 32.289644 69.75196 65.853514c17.42048 16.78195 34.83403 33.89768 47.68359 47.26563 6.42478 6.68397 11.73013 12.46919 15.12305 16.52148 1.15348 1.37764 1.67836 2.12113 2.30664 2.9668.0314 3.43367.0356 7.07264-.36524 10.67187-.56384 5.06283-2.60585 8.44747-1.90429 7.77344.004-.004-1.89374 1.1194-6.3711 1.43555-3.38463.23898-7.67854.056-12.21093-.0625-.84105-.63687-1.57637-1.16622-2.94141-2.32422-4.02826-3.41728-9.7861-8.74337-16.45117-15.1875-13.33015-12.88826-30.43984-30.33953-47.23438-47.79688-33.58905-34.91467-65.978512-69.89453-65.978512-69.89453a16.0016 16.0016 0 0 0 -.431641-.44922c-11.688212-11.678429-26.952114-15.196558-41.775391-14.236324-9.429387.61084-15.579463 5.116514-19.970703 8.832034-6.056385 5.12439-12.6082 12.15999-15.355469 22.77929-1.074006 4.15148-2.599736 9.74959-2.517578 16.74024.08216 6.99064 2.560819 16.13826 9.234375 22.80664.254273.2663 36.689488 38.42943 74.958985 77.56836 19.201394 19.63762 38.792764 39.44897 54.476564 54.80273 7.84189 7.67689 14.6912 14.22693 20.16015 19.19532 2.73449 2.48419 5.10802 4.56543 7.25 6.30273 2.142 1.7373 2.99877 2.95082 7.51368 4.91797 16.6569 7.25741 35.1312 7.89694 49.79296 9.61523 10.9971 1.2888 21.38676-.23747 29.64258-.72656 4.12792-.24455 7.64642-.24095 9.44336-.03125.24872.029.0981.02365.25196.06055 9.72982 9.72966 138.66992 138.66601 138.66992 138.66601a16.0016 16.0016 0 0 0 .0039.00391c6.14929 6.14411 14.28234 9.04247 20.84766 9.74805 6.56532.70556 11.91992-.1248 15.875-.625 8.08263-1.02223 14.19805-4.67691 18.99805-8.73829 6.05638-5.1244 12.6082-12.16194 15.35547-22.78125 1.07399-4.15145 2.59973-9.74763 2.51757-16.73828-.0821-6.98924-2.5599-16.13468-9.23047-22.80273l-.0039-.00391c-.007-.007-127.97211-127.96836-138.62891-138.625-.01-.0981-.00402.0191-.01172-.10547-.10757-1.84886.15133-5.60545.73633-10.03125 1.17002-8.85158 3.79282-20.01726 2.29688-32.48046-1.64039-13.66649-3.30591-30.31047-11.45313-45.20118-2.20702-4.03378-2.99477-4.3257-4.63086-6.19726s-3.65469-4.06626-6.08984-6.65235c-4.8703-5.17216-11.37681-11.86006-19.01953-19.60351-15.28545-15.48691-35.08292-35.14939-54.7168-54.51563-39.26777-38.732469-77.86523-76.261716-77.86523-76.261716l.15429.154297c-6.14926-6.144126-14.28037-9.042464-20.8457-9.748047-1.64133-.176395-3.2079-.25769-4.69531-.271484zm-3.12696 16.125c6.12844-.418005 12.35559.213285 17.35938 5.212891 0 0 154.27626 150.000689 159.43945 159.437499 5.85047 10.69292 7.99148 25.99738 9.60352 39.42773 2.00507 16.70492-8.06443 42.41025 0 50.47461 8.06442 8.06436 140.18359 140.17969 140.18359 140.17969 6.70782 6.70262 4.57025 16.3618 2.53711 24.2207-1.48498 5.74007-5.67291 10.74249-10.19922 14.57227-3.00736 2.5446-6.76154 4.58578-10.66992 5.08008-7.8865.99742-16.73649 2.09775-23.4082-4.56836 0 0-133.03771-133.03192-140.1836-140.17773-7.14587-7.14583-31.6029-.53069-47.27343-2.36719-15.24137-1.78622-32.91965-3.01344-45.26563-8.39258-12.34598-5.37915-159.439452-159.4375-159.439452-159.4375-6.707834-6.70263-4.570251-16.36178-2.537109-24.2207 1.484981-5.74006 5.672914-10.74249 10.199219-14.57227 3.007372-2.5446 6.738654-4.82541 10.669921-5.08008 10.296724-.66701 22.761871 2.92175 29.433594 9.58789 0 0 129.844047 140.23633 139.976567 140.23633s25.73893 2.23241 34.03515-5.73828c8.37567-8.04701 7.16211-27.35734 7.16211-34.09961 0-10.77802-139.97851-140.236328-139.97851-140.236328-6.70784-6.702639-10.20778-19.220186-8.56055-29.242187.96159-5.85053 5.67291-10.742481 10.19922-14.572266 3.00737-2.544596 6.76155-4.585783 10.66992-5.080078 1.97163-.249354 4.00406-.505196 6.04687-.644531z" fill="#7f7e75" stroke-width="3.779528"/></svg>