<svg height="500" viewBox="0 0 132.29167 132.29167" width="500" xmlns="http://www.w3.org/2000/svg" xmlns:xlink="http://www.w3.org/1999/xlink"><linearGradient id="a" gradientUnits="userSpaceOnUse" x1="116.132103" x2="22.66864" y1="0" y2="132.292314"><stop offset="0" stop-color="#d3b879"/><stop offset=".25" stop-color="#ebd6ad"/><stop offset=".5" stop-color="#ebd6ad"/><stop offset=".75" stop-color="#ebd6ad"/><stop offset="1" stop-color="#d3b879"/></linearGradient><linearGradient id="b" gradientUnits="userSpaceOnUse" spreadMethod="repeat" x1="-17.85017" x2="5.02706" xlink:href="#c" y1="110.489736" y2="126.856413"/><linearGradient id="c"><stop offset="0" stop-color="#2e2442"/><stop offset=".125" stop-color="#342a4b"/><stop offset=".25" stop-color="#322848"/><stop offset=".375" stop-color="#322947" stop-opacity=".95"/><stop offset=".5" stop-color="#322a46" stop-opacity=".98"/><stop offset=".75" stop-color="#2e2442" stop-opacity=".97"/><stop offset=".90573049" stop-color="#34284e"/><stop offset="1" stop-color="#2e2442"/></linearGradient><filter id="d" color-interpolation-filters="sRGB" height="1.006074" width="1.005927" x="-.002964" y="-.003037"><feGaussianBlur stdDeviation=".35225928"/></filter><filter id="e" color-interpolation-filters="sRGB" height="1.008763" width="1.008521" x="-.00426" y="-.004381"><feGaussianBlur stdDeviation=".12334782"/></filter><filter id="f" color-interpolation-filters="sRGB" height="1.050833" width="1.035287" x="-.017644" y="-.025417"><feGaussianBlur stdDeviation=".82357594"/></filter><linearGradient id="g" gradientUnits="userSpaceOnUse" spreadMethod="repeat" x1="-21.24253" x2="1.6347" xlink:href="#c" y1="110.1505" y2="126.517177"/><path d="m250.4707 499.98252c51.835.039 104.53834.44093 157.50391-5.34765 23.52703-2.57129 63.66601-11.94336 63.66601-11.94336l20.95704-4.78907-8.40625-19.79687c-3.62583-17.49004-4.76016-37.13347-3.75586-52.85156 2.74125-40.11079 16.93348-78.89745 19.56445-119.01563.82783-12.6231.69137-24.46921.34447-42.18006-.34689-17.71086-3.70393-41.24364-10.31713-63.95285-2.60935-14.83079-5.05012-29.7543-6.34961-45.51563-2.71116-32.88338-4.95912-70.15255 6.76172-98.751949l9.07227-22.13086c-31.31324-3.171506-61.13792-7.4347299-87.3418-9.5429685l-13.60547 11.3652345-1.34961-12.5097658-15.11718-.9667968c-21.86813-1.39044747-38.84642-1.91868801-56.31446-2.02539065-5.82268-.03556755-16.5078-.02734375-22.63867-.02734375l-72.83689.32721653c-19.69041.32721654-47.16904 3.59837407-76.59084 5.94817407l-4.60938 8.8105474-.25781.496093-1.24609-7.4980466-16.01758.8046875c-16.98083.8557334-36.820718 3.3800201-54.957034 13.3808591-16.734322 9.227747-31.341428 23.054127-40.964844 40.189453-16.465591 29.318407-21.106486 61.290856-25.148437 87.197266-3.2490518 20.82441-5.7994558 41.62795-7.5839844 62.33594-1.94377399 12.57614-2.92389106 25.28234-2.93299587 38.00781l.00135527 27.97852c.01436867 46.72872-.62894005 93.96404 2.7929688 141.26953.9407191 13.00478 4.1699656 29.03511 14.3300782 43.82422 4.451018 6.4789 9.806394 11.40397 15.326172 15.69335 5.505744 4.27854 8.50915 8.11081 19.365234 9.82422 9.832331 1.66322 30.066099 3.74157 58.570317 5.875l12.77148.95899 10.22852-23.69336 15.71484 25.27344 9.36523.50195c25.46458 1.34785 54.43325 2.49136 81.95508 2.47266z" fill="#857347" stroke-width="3.77953" transform="scale(.26458334)"/><path d="m43.667127 6.1988049-6.649318 12.7232891-1.962733-11.8144838c-4.151997.209236-8.734935.8884646-12.483913 2.9557488-3.6649 2.020923-6.931432 5.134922-8.987607 8.796119-3.5936294 6.398768-4.9680452 14.21181-6.1007497 21.471745-1.7239508 11.049459-2.2092041 22.267477-2.7292176 33.438734-.5652131 12.142264-1.0750022 24.437952.6932615 36.463853.4873297 3.31431 1.1113893 6.8345 3.0041972 9.58967 1.4496055 2.11005 4.6865666 4.54405 6.0084106 4.7506 2.08291.35408 7.610648.94421 15.101134 1.50483l4.966963-11.50761 7.650707 12.30431c6.689358.35408 14.283448.65398 21.429996.64914 14.613556-.01 29.290534.20101 43.819142-1.38681 5.49586-.60065 16.3028-3.06871 16.3028-3.06871s-.84033-3.54005-1.04149-5.34358c-.4-3.58629-.56178-7.22034-.32107-10.82083.70788-10.588463 4.87617-20.80543 5.17179-31.413411.37415-13.42584-4.11707-26.631272-4.32122-40.060773-.14104-9.278493-1.4412-19.010796 2.14288-27.7560998-5.56781-.6078373-8.70335-1.1802678-14.75182-1.6700785l-8.93248 7.4651953-.88126-8.1733574c-7.610636-.4839091-12.854008-.5661144-19.284287-.5223869-5.84986.0397806-11.26574-.2361191-17.111594-.014796-6.768804.2562659-14.283499.9292252-20.732522 1.4396922z" fill="url(#a)" stroke-width="4.7625"/><g><path d="m44.008697 35.309085c5.671583.393266 11.983148 3.158086 15.113736 7.903709 2.003524 3.037119-1.202241 7.873725.843348 10.882673 3.122509 4.593039 10.075984 4.688839 14.973874 7.307378 4.301467 2.299676 8.28776 5.170393 12.640698 7.371089 8.372962 4.233082 17.953847 6.081444 25.833257 11.174615 3.3841 2.187447 8.50453 4.139056 8.93188 8.145852.40208 3.769885-6.11389 5.504069-6.59823 9.264271-.41666 3.234738 4.56387 6.074888 3.47131 9.147908-1.45308 4.08707-6.9389 6.15409-11.261 6.52151-10.791421.91737-20.013128-14.154108-30.461517-11.30323-2.88399.78691-2.998802 5.59275-5.658264 6.95799-7.8663 4.03818-18.857083 6.08724-26.478274 1.6036-4.223792-2.48491-2.475083-10.26072-6.35155-13.258755-3.594935-2.780298-10.086353.520259-13.381891-2.609125-2.611125-2.479477-.798965-7.370983-2.61253-10.481732-2.101038-3.603842-8.357135-4.507211-9.076169-8.61635-.79674-4.553211 2.349194-9.864733 6.217382-12.395276 2.974374-1.945816 9.04922 2.612075 10.648084-.562312.812222-1.612588-1.411797-3.640213-2.990536-4.516415-2.092683-1.161441-4.969828.727645-7.177442-.196861-4.374395-1.831913-10.8941515-5.161514-10.255944-9.860868.610732-4.497041 7.439587-6.331687 11.97558-6.477102 4.893572-.156879 8.732076 7.798881 13.34067 6.145847 3.866095-1.386711 2.30767-8.348549 5.363002-11.093473.776974-.698037 1.908545-1.127194 2.950526-1.054943zm-.366412 4.012142c-17.040854 5.527296-27.141986 34.707328-18.565773 50.435973 1.994355 3.657616 8.540154 4.718251 12.197632 2.723643 7.134338-3.890716 10.711924-15.083326 8.418375-22.879228-.974239-3.311491-7.296759-2.921645-8.269028-6.233715-1.675931-5.70912 1.317888-13.32046 6.183816-16.744719 2.936323-2.066354 9.741986 3.338566 10.771076-.101316 1.235037-4.128292-6.637247-8.530123-10.736098-7.200638zm-17.727135 5.789969c-1.503453-3.369064-9.774933-1.591196-10.899666 1.922482-1.034771 3.232635 4.063855 5.821591 7.136747 7.263123 2.681729 1.258032 6.527054 2.568223 8.85578.737554 1.199284-.942787 1.461722-3.195329.707679-4.521432-1.490367-2.621044-7.96934-.382749-8.39514-3.367671-.155195-1.087942 3.042443-1.030492 2.5946-2.034056zm19.775187 6.622048c-3.969796 2.282414-3.777788 9.951269-1.134585 13.690543 5.156684 7.295034 19.7238 13.262184 25.917392 6.824147 2.462393-2.559577-.791295-7.500637-3.109705-10.191323-5.223373-6.06211-14.735909-14.31187-21.673102-10.323367zm-24.533266 15.034161c-3.020655.712307-5.333322 6.466773-3.217232 8.736993 2.261593 2.426321 8.780144.450324 9.556067-2.774545.678583-2.82031-3.515476-6.62823-6.338835-5.962448zm57.098685 2.352805c-2.116015 3.548577 6.125393 5.664629 9.740273 7.66527 7.173192 3.969974 19.689781 15.731501 23.152641 8.300218 1.87009-4.013202-7.52345-4.692424-11.474346-6.690783-6.942591-3.511554-17.433915-15.957004-21.418568-9.274705zm-28.785452 1.823308c-1.457823 2.93475 4.866994 4.505 7.774263 6.016885 5.827854 3.030694 12.600064 3.730487 18.823635 5.831953 6.121635 2.067046 11.756397 6.225255 18.202824 6.661908 3.664769.248236 10.531634 1.308595 10.764434-2.357187.70052-11.030779-20.585195-8.171847-31.233982-11.133631-7.559727-2.102613-15.433326-2.877364-23.070179-4.679844-.211854-.05-.420332-.113361-.630498-.170042-.210166-.05668-.533658-.364989-.630497-.170042zm-2.287655 5.399952c-1.125461.902625-.829707 3.971111.577444 4.289418 1.276355.28872 2.558552-2.044196 2.147302-3.286499-.304153-.918786-1.969744-1.608434-2.724746-1.002919zm10.579963 5.007302c-7.881056 3.051893-16.754035 13.953563-13.22384 21.632288 3.327358 7.23752 17.805928 9.28948 23.590983 3.81352 5.633293-5.33231 2.528472-17.19105-2.447768-23.141224-1.763768-2.108968-5.355597-3.297392-7.919375-2.304584zm57.959178 2.087836c-2.68864-.05421-4.51388 3.253248-5.78511 5.622998-.92347 1.721483-2.78095 4.801765-1.07883 5.760455 3.72351 2.097204 9.37912-4.28005 9.55315-8.550006.053-1.301066-1.38733-2.807197-2.68921-2.833447zm-42.52231 2.492287c-2.698403 2.532288.666965 7.912218 3.167458 10.64011 3.993119 4.356255 10.967054 4.407505 16.488211 6.514355 6.824198 2.60409 14.732481 11.97145 20.562801 7.57164 2.72106-2.05343 1.28763-7.47698-.76578-10.19806-8.44163-11.186445-29.233606-24.118038-39.45269-14.528045z" fill="url(#g)" filter="url(#f)" opacity=".25"/><path d="m56.659014 39.822306c4.331932 1.814109 1.981546 6.272543.858647 9.329944-.163537 1.349928-2.294609 3.473597.0523 3.777032 5.768188 2.863343 11.745733 5.351553 17.369694 8.473563 2.149872 2.14972 2.851811 4.248141 5.781507 4.404029l32.692448 14.141675c3.48767-1.589956 6.12723 1.507103 8.2798 3.928825 3.07271 3.404333-.7888 6.41359-3.13648 8.581045-1.48811 1.412466-2.9762 2.824939-4.4643 4.237412 3.00748 1.066175 7.74406 2.244376 6.31772 6.616809-1.49865 3.46579-2.1668 7.36733-4.41311 10.44084-3.31506 2.08791-6.6802-.65357-9.9475-1.51428-10.047752-3.69989-20.09551-7.39978-30.143274-11.09968-2.585547 10.61092-15.405223 16.90287-25.368696 12.39865-6.596234-2.68419-11.261138-9.40169-11.529805-16.510475-3.209938 2.151769-6.494436-.583431-9.675294-1.407515-2.775636-1.362028-6.688545-1.43905-8.080467-4.593678-.497964-3.201418 1.586724-6.088927 2.418151-9.114734-2.85704-1.234459-6.069364-1.816722-8.62715-3.606513-2.543605-2.905853.230135-6.349303 1.028472-9.389595.932869-3.137605 2.773477-7.723515 6.999721-5.737442 2.199895.811477 4.399782 1.622962 6.599677 2.434447l2.250933-6.117907-7.281411-2.920346c-3.414927 3.410408-6.307351-.336137-8.467522-2.612733-2.05916-2.271933-4.536895-4.204811-6.2382581-6.766557-1.725579-4.937869 3.8554581-5.975945 7.4166121-5.740318 2.795553-.123246 5.591097-.246482 8.38665-.369728 3.278981 1.087311 4.13054 4.442328 6.876772 5.446919 1.26291.461982 3.803269 2.593382 4.03227.126994 1.07116-2.910125 2.142309-5.820243 3.213468-8.730368 0 0 .84935-1.643687 1.629536-2.01369 1.404614-.666138 4.663648.0223 4.663648.0223 2.145065.628127 6.278845 2.413214 10.505241 3.885076zm-13.016729-.501079c-6.18859 16.811994-12.377181 33.623979-18.565773 50.435973 3.874699 1.42745 7.749406 2.854908 11.624105 4.282358l8.991902-24.437943c-3.205099-.862997-6.410213-1.725935-9.614965-2.590226 2.510876-6.795714 5.019088-13.592409 7.529753-20.388208 2.991607 1.423507 5.982562 2.848359 8.973542 4.273178.895039-2.430928 1.79007-4.861846 2.685109-7.292774-3.874555-1.42745-7.749118-2.854908-11.623673-4.282358zm-17.727135 5.789969c-4.085891.180147-8.17178.360285-12.257669.540431l8.49475 8.645174c-.231701-1.694501-1.156176-4.266841 1.317387-2.53346 3.425368 1.373696 6.850745 2.747392 10.276114 4.121088.06828-1.328438 2.464797-3.655115.794884-4.2383l-11.220066-4.500877zm19.775187 6.622048c-1.569268 4.249706-3.138527 8.499421-4.707793 12.749127 9.512932 2.532809 18.997504 5.186003 28.528171 7.643566 5.376099 1.217519 6.923401-6.975227 1.689112-8.241973-8.503161-4.050234-17.00633-8.100476-25.50949-12.15072zm25.050523 15.008361c4.763628 1.845465-3.023311 4.157327-.883981 1.35146.9344.365361-1.82444-1.010838.884107-1.351536zm-49.583789.0258-3.217232 8.736993c2.468816.910481 4.937642 1.82097 7.406457 2.731451 1.072411-2.912181 2.144822-5.824372 3.217233-8.736553-2.468817-.910633-4.937641-1.821258-7.406458-2.731891zm57.098685 2.352805-1.466947 3.647482c11.453293 4.106003 22.906565 8.212004 34.359861 12.318006 1.73118-1.954149-1.38107-2.056877-2.63926-2.868311-10.081606-4.368066-20.186773-8.717377-30.253654-13.097174zm-28.785452 1.823308c-1.504776 1.990829.725392 2.202552 2.246567 2.774519 3.560662.484148 3.762935 4.978331 7.709842 3.678112 6.172472-.549079 9.920524 6.688562 15.424209 4.849129 8.844519 3.256755 17.689048 6.513518 26.533558 9.77028.99787-1.891265 2.85935-3.078317 4.3016-4.607224-10.08574-3.615851-20.171472-7.231706-30.257209-10.84756-2.68604-1.704918-6.596166.5147-9.817806-1.2642-5.380254-1.451015-10.760508-2.902037-16.140761-4.353052zm-2.287655 5.399952c-.814894 2.208923-1.62583 4.419784-2.443178 6.627497l3.657314-2.804411 4.235356-1.817248c-1.816495-.66861-3.632997-1.337228-5.449492-2.005838zm10.579963 5.007302c-8.995237-.31176-16.577474 8.903924-14.536828 17.672173 1.451252 8.830385 11.859783 14.470575 20.049533 10.859725 8.395933-3.0542 12.009984-14.302067 6.965419-21.675416-2.637937-4.199811-7.464078-6.899507-12.478124-6.856482zm57.959178 2.087836c-.95054 1.86386-.75212 4.58485-2.43414 5.8748-1.16286.891806-3.27592-1.328141-4.359.571992-1.32436 1.257625-2.64872 2.51526-3.97309 3.772885 1.60558.417889 3.36616 1.587569 4.87361 1.529509 2.98867-2.836988 5.97734-5.673975 8.966-8.510962-1.02447-1.079409-2.04891-2.158816-3.07338-3.238224zm-42.52231 2.492287h-.00044l2.414843 5.282223.667721 5.769527c12.378784 4.558115 24.757566 9.116245 37.136346 13.674355 1.07009-2.91131 2.14016-5.82262 3.21024-8.73394-14.47623-5.330726-28.952474-10.661439-43.42871-15.992161z" fill="url(#b)" opacity=".95"/><g stroke-width="3.14797" transform="matrix(.31766516 0 0 .31766516 175.94597 -10.375139)"><path d="m-233.65799 75.060863c-.007-.000026-.013.002-.0195.002-9.80064-.03336-19.58638 4.045083-25.45313 7.138671-2.16431 1.141119-6.14429 3.468932-11.11328 5.861329-4.96899 2.392403-10.80902 4.743423-15.71094 5.691413-8.62123 1.66677-15.49799 6.523314-19.20898 12.669924-1.8555 3.0733-2.93803 6.56573-2.6543 10.17969.28373 3.61395 2.12392 7.22905 5.19922 9.75586 6.30637 5.18129 9.10824 10.64358 9.55859 15.74023.45036 5.09665-1.37531 10.163-5.82226 14.86328-7.20693 7.61766-7.35029 18.06404-2.7168 25.40625s13.66029 12.14313 23.82813 10.91992c8.00037-.96231 13.23766-.83978 17.14648.23438 3.90883 1.07415 6.87005 3.04191 10.75391 6.92383 6.99276 6.98803 17.36719 8.73991 26.74414 6.8457 9.37694-1.89422 18.38381-7.64565 22.07226-17.20117 2.61913-6.78398 5.45807-12.72705 12.52149-15.23828 6.74006-2.39537 11.48635-7.61325 13.18945-13.65625 1.70311-6.043.35698-12.89082-4.0957-18.21875h-.002c-2.08066-2.48946-2.80364-4.13888-2.74415-6.83008.0595-2.6912 1.27236-6.80182 4.58008-12.83203 3.51844-6.41456 4.19717-13.86964.70117-19.83399-3.49599-5.964344-10.90416-9.345074-20.15234-8.828124-4.81145.26889-7.52737-.94024-10.75781-3.41602-3.23044-2.47577-6.65187-6.459841-11.1875-10.882815v-.002c-4.07471-3.972954-9.52225-5.272276-14.65625-5.292969zm-.041 9.97461c.00074.000003.001-.000003.002 0 3.52993.01457 6.06496.835125 7.73242 2.460937 4.12443 4.021996 7.60321 8.224186 12.08398 11.658206 4.48077 3.434024 10.28554 5.857464 17.38086 5.460944 6.78397-.37921 9.65521 1.63449 10.99024 3.9121 1.33502 2.27762 1.39799 5.91233-.83985 9.99219-3.69975 6.74491-5.69339 12.19703-5.80859 17.4082-.1152 5.21118 2.01854 9.80291 5.06445 13.44727 2.45771 2.94082 2.97448 6.18619 2.14844 9.11719-.82605 2.931-3.00087 5.56731-6.92774 6.96289h-.002c-11.08168 3.93982-15.66631 13.74565-18.48437 21.04492-2.16889 5.61884-8.00311 9.65428-14.74219 11.01563-6.73908 1.36134-13.75566-.16264-17.71875-4.12305-4.55978-4.5575-9.31695-7.88006-15.16211-9.48633s-12.39545-1.55412-20.98047-.52148c-6.41729.77201-11.63562-2.27253-14.20117-6.33789s-2.86293-8.58805 1.52734-13.22852c6.05409-6.39898 9.23221-14.4419 8.51172-22.5957s-5.26477-16.08349-13.16015-22.57032c-1.1956-.98235-1.50533-1.75347-1.58985-2.83007-.0845-1.0766.24727-2.58135 1.25-4.24219 2.00546-3.32169 6.62039-6.88207 12.56445-8.03125 6.38785-1.23536 12.77289-3.913744 18.14454-6.500004 5.37164-2.58626 9.84817-5.18547 11.4375-6.02344 4.80536-2.533909 14.04387-6.016323 20.77929-5.990233z" fill="#6c131e" stroke-width="3.14797"/><path d="m-233.67812 80.048213c-8.27141-.03281-17.78794 3.750204-23.12618 6.565106-3.75364 1.979084-16.91322 9.855197-28.20299 12.038547-14.56531 2.815964-22.98647 16.835434-14.44466 23.853774 14.20177 11.66813 14.6931 26.78536 4.19205 37.88463-11.59721 12.25815.30692 29.94184 16.89206 27.94662 16.58541-1.99496 23.57888.14366 32.02252 8.58308 10.95587 10.94846 34.78134 6.55029 40.63868-8.62409 2.7186-7.04163 6.43044-14.9151 15.503-18.14063 10.66694-3.79095 13.84697-15.70911 6.93658-23.97787-5.12657-6.13383-5.71765-12.4841 1.28984-25.25924 5.75628-10.49443 1.23217-22.179234-14.79999-21.283084-11.90678.665424-17.04579-7.2644-25.70586-15.709374-2.87126-2.799557-6.86277-3.860007-11.19532-3.877469z" fill="#c20a0a" stroke-width="31.4003"/><path d="m-239.05243 95.443479c-25.8613 0-46.97079 21.099831-46.97079 46.963031 0 25.86295 21.10837 46.97284 46.97079 46.97284 25.86241 0 46.97078-21.10989 46.97078-46.97284 0-25.86249-21.10938-46.963031-46.97078-46.963031z" fill="#6c131e" stroke-width="3.14797"/><path d="m-239.05234 105.15056c-20.60893 0-37.25677 16.64706-37.25677 37.25678 0 20.60945 16.64811 37.26471 37.25703 37.26471 20.6084 0 37.26498-16.655 37.26498-37.26445 0-20.60893-16.65632-37.25677-37.26498-37.25677z" fill="#c20a0a" stroke-width="31.4003"/><path d="m-920.52927 467.43942c-5.58909 1.05502-11.30953 2.76071-17.28515 5.22266l-28.51367 11.74805 29.24414 9.78906c3.26725 1.09376 6.49695 2.28987 9.67187 3.57226-17.47003 7.74917-32.36177 21.94399-43.49414 36.00977-7.71534 9.74835-14.67535 20.61841-20.2793 32.24023l-.96093 1.9961-.15235 2.21094c-.23924 3.48725-.37304 7.02705-.37305 10.61718 0 84.08701 68.22681 152.3418 152.31446 152.3418 11.53886 0 22.78934-1.28657 33.60351-3.71484l33.65625-7.5586-69.56836-31.29297-.40625-.14648c-27.95187-10.12052-47.95099-42.21489-52.66992-69.47266-2.35948-13.6289-.62176-25.44943 3.11328-31.5664 3.18078-5.20917 6.95916-7.81127 15.54493-7.10352l-.82227 2.23633 1.55664 4.03906c8.89965 23.09855 23.90307 44.20088 40.60352 60.44922 16.70041 16.24834 34.73237 28.04065 52.91601 30.49024l.57422.0781.58008.0195c.69051.0242 1.35402.005 2.00976-.0312 11.15653.43709 24.2631-3.74406 34.34375-14.89258l13.80274-15.25976 10.80859-9.32422c13.69459-19.03892 20.01888-46.78418 3.10742-72.88477l-3.02343-4.66797-5.53907-.52734c-19.53819-1.85745-32.26973-12.07115-36.52929-25.64453-4.10347-13.07622-15.35431-20.64424-27.18555-25.91797l-8.89648-3.9668-3.37696-6.12304c-8.03346-14.56562-15.58306-26.76765-26.81445-35.12305-6.37742-4.74395-14.09769-8.05702-22.95898-9.55273l-11.68358-.89832c-4.11065.0533-8.34623.44535-12.74609 1.04883l-27.91797 3.82812 12.48242 9.26758c-5.47103-1.64944-11.1903-2.71763-17.20708-2.7247z" fill="#6c131e" filter="url(#d)" stroke-width="3.14797" transform="matrix(.26458334 0 0 .26458334 -16.706824 -11.275074)"/><path d="m-245.15593 112.10707c-.91879.0114-1.92688.10189-3.00757.25011 3.62909 2.69424 6.72573 5.95642 8.89713 9.28367.2185 0 .436.002.65268.006 2.37806.0514 4.67142.38253 7.00525.94775-2.06596-3.74584-3.9406-6.6063-6.24613-8.32146-1.81876-1.35291-3.95721-2.12812-6.91327-2.16576-.12728-.002-.25673-.002-.38809 0zm-12.06541 3.02203c-.0961-.00026-.19213.001-.28888.003-1.84876.0408-3.86455.51597-6.1681 1.46503 7.39507 2.4756 14.08254 6.64319 17.62632 11.00243 2.419-.67526 3.87541-1.93744 4.79867-3.79306-4.5746-3.86812-8.22392-6.76283-11.83958-7.9778-1.33845-.44991-2.6897-.69851-4.12843-.6997zm-.0269 6.94842c-5.18893.88958-10.43468 5.31303-13.95883 9.76581-1.9101 2.41342-3.63409 5.10876-5.01055 7.96334-.059.85931-.0915 1.72633-.0915 2.60087 0 20.60945 16.64824 37.2644 37.25716 37.2644 2.827 0 5.57882-.31496 8.2243-.90899l-9.97871-4.48862c-17.59126-6.36927-22.7459-37.4463-6.17017-34.33795.76847-1.86443 1.3055-3.68921 1.45004-5.45807l2.45205.20051c-.22167 2.71055-1.16183 5.32933-2.3735 7.88995-.0964.26788-.19385.54264-.28784.7984 4.32306 11.22029 14.9756 21.15159 22.31078 22.13974.12045.004.25066.00018.38861-.0114 2.23984.13624 4.72027-.5561 6.87245-2.93626l1.0511-1.1622-1.37873-.74466c-.85652-.46267-1.88073-.93387-2.39107-1.43815-.2551-.25221-.36764-.45674-.40462-.68368-.0371-.22706-.0171-.55641.29352-1.12913l1.40456-2.58744-2.82773.81907c-.82981.24023-2.27806-.39906-3.05718-1.40973-.38964-.50546-.57999-1.04083-.57722-1.4273.003-.38673.0947-.67486.62476-1.05989l2.56057-1.85932-3.14399-.3576c-1.31289-.14966-2.15479-.87662-2.52336-1.6185-.36883-.74161-.30446-1.32719.18086-1.75183l1.60662-1.4056-2.02158-.68523c-.88417-.29959-1.35519-.99424-1.36322-1.3994-.004-.18073.0312-.35086.24236-.58911 1.43874-.3146 2.79841-.0595 3.69745.83871.81006.80901 1.09902 1.99118.91829 3.26853 1.12546-.29669 2.23582-.21235 3.17397.32866 1.22943.7091 1.92827 2.06541 2.06292 3.68092 2.00239-1.33369 4.23209-1.67482 5.95777-.67955 2.03595 1.17416 2.81185 3.88489 2.21227 6.81199 3.15811-4.39057 4.55249-9.96713.73898-15.85278-6.15063-.58472-10.75346-4.03769-12.28039-8.90333-.66158-2.10821-2.80147-3.77387-5.52835-4.98936l-.0103.0284c-3.91473-1.42464-7.31537-2.28395-10.87324-2.466l.0103.0207c-.30197-.0123-.60054-.0211-.89039-.0227-1.25538 3.01096-3.77268 5.25211-7.56026 6.06217l-.77721.16588-.47078-.64027c-1.87128-2.54444-5.42717-5.32437-9.741-7.64398zm20.56309 8.59017c3.67608-.01 5.9067 1.52945 5.54023 5.85132-4.71821.44623-6.83582-2.19635-8.30234-5.61206.98816-.15204 1.91374-.2365 2.76211-.23874zm6.37222 8.73539-.00053.00052c.48809.009.93996.1307 1.31827.37001-.19876.14506-.38114.29988-.54726.46612-.69053.68976-1.06472 1.59563-1.04748 2.46703.0241 1.22707.69376 2.2622 1.66915 2.96985-.41332 1.0666-.32296 2.29758.185 3.31969.50192 1.00936 1.38757 1.87859 2.54093 2.42156-.19021.44309-.31245.90363-.31574 1.36012-.008 1.10663.44474 2.11151 1.08882 2.94711.89405 1.15968 2.21964 2.09764 3.68918 2.35748-.024.28697-.0268.57036.0176.84336.13822.84823.59402 1.53476 1.10277 2.0376.44888.4436.94669.77558 1.42162 1.05213-.8352.63079-1.63437.92865-2.45101 1.02526-.85758-1.04476-1.27816-2.51202-1.23868-4.14031-1.5489.81308-3.18674.94205-4.4912.18965-1.93077-1.11361-2.55272-3.82196-1.73581-6.62492-1.49218.36462-2.9127.12108-3.84163-.80718-1.16823-1.16692-1.25556-3.11007-.40773-4.99557-.48387-.081-.91643-.28481-1.25367-.62166-1.15941-1.1581-.75991-3.4343.89194-5.08445 1.03239-1.03133 2.30977-1.57405 3.40548-1.55339z" fill="#c20a0a" filter="url(#e)" stroke-width="19.1567"/></g></g></svg>