<svg height="500" viewBox="0 0 132.29167 132.29167" width="500" xmlns="http://www.w3.org/2000/svg" xmlns:xlink="http://www.w3.org/1999/xlink"><linearGradient id="a" gradientUnits="userSpaceOnUse" x1="116.132103" x2="22.66864" y1="0" y2="132.292314"><stop offset="0" stop-color="#d3b879"/><stop offset=".25" stop-color="#ebd6ad"/><stop offset=".5" stop-color="#ebd6ad"/><stop offset=".75" stop-color="#ebd6ad"/><stop offset="1" stop-color="#d3b879"/></linearGradient><linearGradient id="b"><stop offset="0" stop-color="#2e2442"/><stop offset=".125" stop-color="#342a4b"/><stop offset=".25" stop-color="#322848"/><stop offset=".375" stop-color="#322947" stop-opacity=".95"/><stop offset=".5" stop-color="#322a46" stop-opacity=".98"/><stop offset=".75" stop-color="#2e2442" stop-opacity=".97"/><stop offset=".90573049" stop-color="#34284e"/><stop offset="1" stop-color="#2e2442"/></linearGradient><filter id="c" color-interpolation-filters="sRGB" height="1.006074" width="1.005927" x="-.002964" y="-.003037"><feGaussianBlur stdDeviation=".35225928"/></filter><filter id="d" color-interpolation-filters="sRGB" height="1.008763" width="1.008521" x="-.00426" y="-.004381"><feGaussianBlur stdDeviation=".12334782"/></filter><filter id="e" color-interpolation-filters="sRGB" height="1.033393" width="1.059261" x="-.02963" y="-.016696"><feGaussianBlur stdDeviation=".82357594"/></filter><linearGradient id="f" gradientUnits="userSpaceOnUse" spreadMethod="repeat" x1="-21.24253" x2="1.6347" xlink:href="#b" y1="110.1505" y2="126.517177"/><linearGradient id="g" gradientTransform="matrix(.71548258 -.11767671 .11767671 .71548258 -346.63984 54.340633)" gradientUnits="userSpaceOnUse" spreadMethod="repeat" x1="193.16023" x2="216.03746" xlink:href="#b" y1="90.853073" y2="107.21975"/><linearGradient id="h" gradientUnits="userSpaceOnUse" spreadMethod="repeat" x1="-17.85017" x2="5.02706" xlink:href="#b" y1="110.489736" y2="126.856413"/><path d="m250.4707 499.98252c51.835.039 104.53834.44093 157.50391-5.34765 23.52703-2.57129 63.66601-11.94336 63.66601-11.94336l20.95704-4.78907-8.40625-19.79687c-3.62583-17.49004-4.76016-37.13347-3.75586-52.85156 2.74125-40.11079 16.93348-78.89745 19.56445-119.01563.82783-12.6231.69137-24.46921.34447-42.18006-.34689-17.71086-3.70393-41.24364-10.31713-63.95285-2.60935-14.83079-5.05012-29.7543-6.34961-45.51563-2.71116-32.88338-4.95912-70.15255 6.76172-98.751949l9.07227-22.13086c-31.31324-3.171506-61.13792-7.4347299-87.3418-9.5429685l-13.60547 11.3652345-1.34961-12.5097658-15.11718-.9667968c-21.86813-1.39044747-38.84642-1.91868801-56.31446-2.02539065-5.82268-.03556755-16.5078-.02734375-22.63867-.02734375l-72.83689.32721653c-19.69041.32721654-47.16904 3.59837407-76.59084 5.94817407l-4.60938 8.8105474-.25781.496093-1.24609-7.4980466-16.01758.8046875c-16.98083.8557334-36.820718 3.3800201-54.957034 13.3808591-16.734322 9.227747-31.341428 23.054127-40.964844 40.189453-16.465591 29.318407-21.106486 61.290856-25.148437 87.197266-3.2490518 20.82441-5.7994558 41.62795-7.5839844 62.33594-1.94377399 12.57614-2.92389106 25.28234-2.93299587 38.00781l.00135527 27.97852c.01436867 46.72872-.62894005 93.96404 2.7929688 141.26953.9407191 13.00478 4.1699656 29.03511 14.3300782 43.82422 4.451018 6.4789 9.806394 11.40397 15.326172 15.69335 5.505744 4.27854 8.50915 8.11081 19.365234 9.82422 9.832331 1.66322 30.066099 3.74157 58.570317 5.875l12.77148.95899 10.22852-23.69336 15.71484 25.27344 9.36523.50195c25.46458 1.34785 54.43325 2.49136 81.95508 2.47266z" fill="#857347" stroke-width="3.77953" transform="scale(.26458334)"/><path d="m43.667127 6.1988049-6.649318 12.7232891-1.962733-11.8144838c-4.151997.209236-8.734935.8884646-12.483913 2.9557488-3.6649 2.020923-6.931432 5.134922-8.987607 8.796119-3.5936294 6.398768-4.9680452 14.21181-6.1007497 21.471745-1.7239508 11.049459-2.2092041 22.267477-2.7292176 33.438734-.5652131 12.142264-1.0750022 24.437952.6932615 36.463853.4873297 3.31431 1.1113893 6.8345 3.0041972 9.58967 1.4496055 2.11005 4.6865666 4.54405 6.0084106 4.7506 2.08291.35408 7.610648.94421 15.101134 1.50483l4.966963-11.50761 7.650707 12.30431c6.689358.35408 14.283448.65398 21.429996.64914 14.613556-.01 29.290534.20101 43.819142-1.38681 5.49586-.60065 16.3028-3.06871 16.3028-3.06871s-.84033-3.54005-1.04149-5.34358c-.4-3.58629-.56178-7.22034-.32107-10.82083.70788-10.588463 4.87617-20.80543 5.17179-31.413411.37415-13.42584-4.11707-26.631272-4.32122-40.060773-.14104-9.278493-1.4412-19.010796 2.14288-27.7560998-5.56781-.6078373-8.70335-1.1802678-14.75182-1.6700785l-8.93248 7.4651953-.88126-8.1733574c-7.610636-.4839091-12.854008-.5661144-19.284287-.5223869-5.84986.0397806-11.26574-.2361191-17.111594-.014796-6.768804.2562659-14.283499.9292252-20.732522 1.4396922z" fill="url(#a)" stroke-width="4.7625"/><g><text style="font-size:59.2598;font-family:Julian Daniel;text-anchor:middle;fill:#a51d2d;stroke:#000;stroke-width:2.64583" transform="matrix(.70710678 -.70710678 .70710678 .70710678 0 0)" x="349.10678" y="327.44864"><tspan style="font-weight:bold;font-size:59.2598;font-family:Action Man;fill:#a51d2d;stroke:#000;stroke-width:2.64583" x="349.10678" y="327.44864">TODO</tspan></text><path d="m64.083911 15.380786c-1.00773.334398-.761478 1.598923-1.012717 2.427853-.244836 1.440887-.489672 2.881774-.734508 4.322661-1.785652.450733-3.179028 1.817655-3.731713 3.565074-.948253 2.639845-1.176725 6.142217 1.078369 8.200039.954579.333103.279042 1.308534.27879 2.02391-1.547932.574299-3.110508 1.669559-3.642013 3.391325-.980828 2.534574-1.309375 5.819494.558449 8.033825 1.032951.512333 1.010756 1.29376.726958 2.261045-1.031751.874462-2.964913 1.39156-3.440546 3.071791-1.153517 2.501186-1.566453 5.730087.0021 8.142708 1.118854-1.306628 2.802766-2.687284 3.806339-3.738491-.87195.102652-.267256-.826086-.284003-1.320766-.127896-.90039.710542-.424295 1.241197-.386618 1.091788.41519 1.288352.140865 2.340649-.629221 1.158928-.811268 3.521759-1.243923 1.847439-2.899482-.707789-.832155-1.630184-1.369764-1.084227-2.544028.904714-.862324 2.825323-1.398259 3.312068-2.992632 1.286208-2.524374 1.694216-5.834791.160718-8.339146-.708036-.831777-1.629124-1.370735-1.083546-2.544523.904282-.862586 2.824888-1.39794 3.311473-2.992152 1.286762-2.524348 1.694128-5.834747.161408-8.339462-.707652-.832326-1.630281-1.369875-1.084214-2.544206.24427-1.570812.578363-3.133996.766018-4.709615-.227051-1.434938-1.89042-1.156924-2.942737-1.462164l-.170831-.02054-.380926.02278zm-1.512722 12.046108c.677191.116762 1.354364.233624 2.031526.350556-.108638.612411-.217276 1.224821-.325914 1.837232-.676844-.119933-1.353662-.24001-2.030458-.360214.108282-.609191.216564-1.218383.324846-1.827574zm-2.388959 13.87588c.677242.116708 1.354436.233693 2.031596.350873-.108658.612287-.217315 1.224575-.325973 1.836862-.676711-.120001-1.353406-.240089-2.030088-.360253.108155-.609161.21631-1.218321.324465-1.827482z" fill="url(#h)" opacity=".95"/><path d="m69.678953 51.087839c-7.658905.182215-13.690499 5.956347-18.358445 11.456988-7.802719 9.885499-13.382093 21.880571-14.616173 34.497539-.572936 6.331774.530885 14.082104 6.53769 17.584134 3.471947 1.18075 6.570154 1.88761 8.978063 4.94782 9.331014 7.39767 23.012023 7.30983 33.081226 1.42077 15.931426-8.80558 24.152486-29.707322 17.621006-46.855386-3.694348-10.385955-13.597696-18.446465-24.742561-18.998922-2.029594-2.557531-5.237125-4.081565-8.500806-4.052943zm-.358635 3.497978c4.819836-.327839 8.155611 4.278432 8.629546 8.653394 1.282967 10.0288-2.349141 19.990574-6.844456 28.792062-4.254286 7.696113-9.667043 15.512047-17.783317 19.476927-3.791197 1.9498-9.165311 1.15667-11.282908-2.8669-3.202271-6.02922-1.907661-13.266885-.371803-19.590595 3.301355-11.482727 9.224585-22.655021 18.490944-30.411992 2.639586-2.065709 5.726026-3.909573 9.161994-4.052896zm.353984 2.80758c-5.701343.500068-9.913587 5.085801-13.451012 9.160462-7.224413 9.162999-12.41502 20.335728-13.285858 32.06648-.07007 3.709601.04713 8.506471 3.63337 10.621571 4.064395 1.57325 8.053492-1.51898 11.025657-3.99496 8.623741-8.037115 14.237007-19.029707 16.905545-30.431588.948627-5.110236 1.85473-11.015714-1.155704-15.624342-.864507-1.126583-2.251573-1.807208-3.671998-1.797623zm10.612789 1.366325c10.42421 1.710116 18.68536 10.661832 20.683939 20.876624 4.03234 17.78576-8.00447 37.938844-26.110311 41.654424-7.810273 1.7067-16.396932-.42104-22.322322-5.83322 8.309953-2.72327 14.169363-9.91909 18.816152-16.977668 6.087647-9.916389 10.72905-21.333648 10.279445-33.144677-.216799-2.21625-.543849-4.483712-1.346903-6.575483z" fill="url(#g)" opacity=".95"/><path d="m66.020544 5.5657869c-3.025249.7674298-4.634778 4.1004125-3.920454 7.0423691.37437 3.231454 2.862173 6.86486 6.51613 6.240792 1.96806-1.423413 1.733623.91982 2.219673 2.23283-1.785999 2.106552-2.379844 5.544382-1.09412 8.288097.24078 3.160571 4.288607 2.971573 4.717419 5.473783-2.216368 2.153293-2.251394 5.900393-.916706 8.653859.390617 2.963328 4.352634 2.496865 4.54289 5.117784-3.113009 2.791385-1.968458 7.993232.565529 10.784951 1.914996.803706 4.353746 2.311967 1.84197 4.236724-1.562622 3.359042-.343852 7.946735 2.677763 10.083533 2.631942.191452 2.394874 2.930402.710754 4.233117-1.187429 3.61019.203229 8.661644 4.018137 10.05614 3.457575 1.035102 7.17962-2.148191 6.643487-5.747872.0438-3.360536-2.162694-6.615893-5.133096-7.588605-1.115263-2.408186 2.622198-3.978392 1.456128-6.784842.0066-3.371781-2.616866-5.99564-5.139446-7.206085-.541326-2.265119 2.818046-4.161759 1.486793-6.947904-.004-3.390203-3.062112-5.341286-5.113526-6.826783-.09543-2.240387 2.848969-4.504311 1.427532-7.333172-.10429-3.220609-3.186762-4.800238-5.013206-6.283068-.09468-2.240085 2.849473-4.504259 1.427563-7.333164-.10436-3.22036-3.186818-4.800201-5.013153-6.282714-.514683-1.817092-.878967-3.68465-1.492026-5.468733-.735811-2.413602-.681249-5.9196034-3.235175-7.6386382-1.254676-.6826128-2.738578-1.17204-4.18086-1.0023989zm2.241529 5.4530881c.452139 1.145019.736279 2.193201-.865849 2.154739-.876118.717321-1.640087-2.03782-.440507-1.810257.43544-.114873.870904-.229656 1.306356-.344482zm7.072184 14.639985c.452143 1.145023.736276 2.193202-.865855 2.154741-.876112.717313-1.640079-2.037824-.440501-1.810259.43544-.114873.870904-.229656 1.306356-.344482zm3.585597 13.615874c.451914 1.145087.735799 2.193272-.866217 2.154814-.875707.716833-1.640084-2.037396-.440513-1.810141.435515-.115124.871151-.229791 1.30673-.344673zm3.585597 13.615874c.469286 1.158174.71299 2.186375-.893528 2.148537-.857035.688231-1.609787-2.041041-.413158-1.803705.435562-.114944.871124-.229888 1.306686-.344832zm3.581989 13.603178c.469152 1.158212.713223 2.186739-.893453 2.148929-.856827.687758-1.609725-2.04153-.413206-1.804017.435585-.114851.871107-.229937 1.306659-.344912zm3.639129 13.818964c.451907 1.145077.735797 2.193284-.866221 2.1548-.876029.717276-1.640104-2.037292-.440512-1.810128.435516-.115124.871153-.22979 1.306733-.344672z" fill="url(#h)" opacity=".95"/><path d="m66.562864 5.5319622c-3.714984 2.6023898-2.349031 8.7634888-3.648391 13.1091998-1.362837 4.558009-3.068147 9.011703-4.348907 13.593452-1.131807 4.048891-2.16463 8.132722-2.943054 12.264133-.465155 2.468767-.369474 5.041939-1.028891 7.466058-1.332091 4.896969-4.11538 9.286816-5.848028 14.056795-4.541466 12.502654-14.517523 25.052509-11.89185 38.09272.995608 4.94461 5.929132 8.27826 9.747843 11.57339 3.782667 3.26403 7.786087 7.34494 12.754308 7.87334 13.442347 1.42969 30.4651-2.49339 38.217598-13.56766 8.684168-12.405142 6.110908-31.741058-.370278-45.42669-1.842976-3.891614-7.617212-4.63204-9.926773-8.266204-2.549477-4.011679-2.005585-9.320788-3.608365-13.795662-1.253619-3.500036-3.317775-6.665394-4.670243-10.128434-1.851885-4.741814-2.63179-9.878673-4.696708-14.531671-1.913279-4.3113-3.074892-9.7446148-7.064573-12.2606416-.190514-.1201445-.489214-.1813517-.673688-.0521252zm3.059245 12.8736328c3.867264 2.281385 1.213334 8.901404 2.03831 13.315004.818545 4.379198 1.72113 8.749764 2.886196 13.049765.582748 2.150793 3.347054 4.552027 2.049006 6.363264-1.545851 2.15701-5.40971.85729-7.960252.124433-1.81617-.521847-3.951879-1.37433-4.756665-3.084043-1.895161-4.026139 1.004513-8.842976 1.540865-13.260414.635496-5.233996-1.294778-11.565596 1.987231-15.691972.48986-.615887 1.537516-1.215882 2.215309-.816037zm.145727 36.163685c5.110094 1.158586 7.964146 8.061768 8.406162 13.28288 1.08811 12.852803-6.216516 26.1755-14.901861 35.71192-4.188 4.59838-10.596161 10.78929-16.475257 8.75934-5.128345-1.77073-6.567181-9.45484-6.595297-14.880209-.06269-12.095941 6.488883-24.141171 14.359682-33.32628 3.894466-4.544786 9.369571-10.871044 15.206571-9.547651zm-.09353 2.824117c-7.975324 1.793447-14.0964 9.285691-18.355021 16.263255-5.605522 9.184401-14.445943 22.66446-7.99279 31.274448 2.791285 3.72421 9.937649 2.82894 13.954252.47778 11.23516-6.576615 16.391619-21.763252 17.944852-34.688737.515798-4.292294-.07208-9.479166-3.06034-12.603288-.597647-.62482-1.647391-.913154-2.490953-.723458zm16.00212 2.960543c10.141824 6.383441 17.903774 20.66459 15.548414 32.414365-2.864183 14.288075-18.28752 26.556265-32.638958 29.083865-5.67093.99877-14.716663-.79231-16.047485-6.39462-2.826072-11.89681 18.478506-16.717312 24.330267-27.454056 2.669067-4.897173-1.067225-16.204399 4.509317-16.11279 2.884246.04738.275757 6.137044 2.057276 8.405813 2.392037 3.046265 7.368174 7.880451 10.309302 5.360265 3.477201-2.979535-3.006148-8.651976-4.394626-13.015539-1.296224-4.073638-6.22695-8.858794-3.673511-12.287303.000001-.000001.000003-.000001.000004 0zm-4.776452.382923.07202.873685z" fill="url(#f)" filter="url(#e)" opacity=".25"/><g stroke-width="3.14797" transform="matrix(.31766516 0 0 .31766516 108.16533 -6.848445)"><path d="m-233.65799 75.060863c-.007-.000026-.013.002-.0195.002-9.80064-.03336-19.58638 4.045083-25.45313 7.138671-2.16431 1.141119-6.14429 3.468932-11.11328 5.861329-4.96899 2.392403-10.80902 4.743423-15.71094 5.691413-8.62123 1.66677-15.49799 6.523314-19.20898 12.669924-1.8555 3.0733-2.93803 6.56573-2.6543 10.17969.28373 3.61395 2.12392 7.22905 5.19922 9.75586 6.30637 5.18129 9.10824 10.64358 9.55859 15.74023.45036 5.09665-1.37531 10.163-5.82226 14.86328-7.20693 7.61766-7.35029 18.06404-2.7168 25.40625s13.66029 12.14313 23.82813 10.91992c8.00037-.96231 13.23766-.83978 17.14648.23438 3.90883 1.07415 6.87005 3.04191 10.75391 6.92383 6.99276 6.98803 17.36719 8.73991 26.74414 6.8457 9.37694-1.89422 18.38381-7.64565 22.07226-17.20117 2.61913-6.78398 5.45807-12.72705 12.52149-15.23828 6.74006-2.39537 11.48635-7.61325 13.18945-13.65625 1.70311-6.043.35698-12.89082-4.0957-18.21875h-.002c-2.08066-2.48946-2.80364-4.13888-2.74415-6.83008.0595-2.6912 1.27236-6.80182 4.58008-12.83203 3.51844-6.41456 4.19717-13.86964.70117-19.83399-3.49599-5.964344-10.90416-9.345074-20.15234-8.828124-4.81145.26889-7.52737-.94024-10.75781-3.41602-3.23044-2.47577-6.65187-6.459841-11.1875-10.882815v-.002c-4.07471-3.972954-9.52225-5.272276-14.65625-5.292969zm-.041 9.97461c.00074.000003.001-.000003.002 0 3.52993.01457 6.06496.835125 7.73242 2.460937 4.12443 4.021996 7.60321 8.224186 12.08398 11.658206 4.48077 3.434024 10.28554 5.857464 17.38086 5.460944 6.78397-.37921 9.65521 1.63449 10.99024 3.9121 1.33502 2.27762 1.39799 5.91233-.83985 9.99219-3.69975 6.74491-5.69339 12.19703-5.80859 17.4082-.1152 5.21118 2.01854 9.80291 5.06445 13.44727 2.45771 2.94082 2.97448 6.18619 2.14844 9.11719-.82605 2.931-3.00087 5.56731-6.92774 6.96289h-.002c-11.08168 3.93982-15.66631 13.74565-18.48437 21.04492-2.16889 5.61884-8.00311 9.65428-14.74219 11.01563-6.73908 1.36134-13.75566-.16264-17.71875-4.12305-4.55978-4.5575-9.31695-7.88006-15.16211-9.48633s-12.39545-1.55412-20.98047-.52148c-6.41729.77201-11.63562-2.27253-14.20117-6.33789s-2.86293-8.58805 1.52734-13.22852c6.05409-6.39898 9.23221-14.4419 8.51172-22.5957s-5.26477-16.08349-13.16015-22.57032c-1.1956-.98235-1.50533-1.75347-1.58985-2.83007-.0845-1.0766.24727-2.58135 1.25-4.24219 2.00546-3.32169 6.62039-6.88207 12.56445-8.03125 6.38785-1.23536 12.77289-3.913744 18.14454-6.500004 5.37164-2.58626 9.84817-5.18547 11.4375-6.02344 4.80536-2.533909 14.04387-6.016323 20.77929-5.990233z" fill="#6c131e" stroke-width="3.14797"/><path d="m-233.67812 80.048213c-8.27141-.03281-17.78794 3.750204-23.12618 6.565106-3.75364 1.979084-16.91322 9.855197-28.20299 12.038547-14.56531 2.815964-22.98647 16.835434-14.44466 23.853774 14.20177 11.66813 14.6931 26.78536 4.19205 37.88463-11.59721 12.25815.30692 29.94184 16.89206 27.94662 16.58541-1.99496 23.57888.14366 32.02252 8.58308 10.95587 10.94846 34.78134 6.55029 40.63868-8.62409 2.7186-7.04163 6.43044-14.9151 15.503-18.14063 10.66694-3.79095 13.84697-15.70911 6.93658-23.97787-5.12657-6.13383-5.71765-12.4841 1.28984-25.25924 5.75628-10.49443 1.23217-22.179234-14.79999-21.283084-11.90678.665424-17.04579-7.2644-25.70586-15.709374-2.87126-2.799557-6.86277-3.860007-11.19532-3.877469z" fill="#c20a0a" stroke-width="31.4003"/><path d="m-239.05243 95.443479c-25.8613 0-46.97079 21.099831-46.97079 46.963031 0 25.86295 21.10837 46.97284 46.97079 46.97284 25.86241 0 46.97078-21.10989 46.97078-46.97284 0-25.86249-21.10938-46.963031-46.97078-46.963031z" fill="#6c131e" stroke-width="3.14797"/><path d="m-239.05234 105.15056c-20.60893 0-37.25677 16.64706-37.25677 37.25678 0 20.60945 16.64811 37.26471 37.25703 37.26471 20.6084 0 37.26498-16.655 37.26498-37.26445 0-20.60893-16.65632-37.25677-37.26498-37.25677z" fill="#c20a0a" stroke-width="31.4003"/><path d="m-920.52927 467.43942c-5.58909 1.05502-11.30953 2.76071-17.28515 5.22266l-28.51367 11.74805 29.24414 9.78906c3.26725 1.09376 6.49695 2.28987 9.67187 3.57226-17.47003 7.74917-32.36177 21.94399-43.49414 36.00977-7.71534 9.74835-14.67535 20.61841-20.2793 32.24023l-.96093 1.9961-.15235 2.21094c-.23924 3.48725-.37304 7.02705-.37305 10.61718 0 84.08701 68.22681 152.3418 152.31446 152.3418 11.53886 0 22.78934-1.28657 33.60351-3.71484l33.65625-7.5586-69.56836-31.29297-.40625-.14648c-27.95187-10.12052-47.95099-42.21489-52.66992-69.47266-2.35948-13.6289-.62176-25.44943 3.11328-31.5664 3.18078-5.20917 6.95916-7.81127 15.54493-7.10352l-.82227 2.23633 1.55664 4.03906c8.89965 23.09855 23.90307 44.20088 40.60352 60.44922 16.70041 16.24834 34.73237 28.04065 52.91601 30.49024l.57422.0781.58008.0195c.69051.0242 1.35402.005 2.00976-.0312 11.15653.43709 24.2631-3.74406 34.34375-14.89258l13.80274-15.25976 10.80859-9.32422c13.69459-19.03892 20.01888-46.78418 3.10742-72.88477l-3.02343-4.66797-5.53907-.52734c-19.53819-1.85745-32.26973-12.07115-36.52929-25.64453-4.10347-13.07622-15.35431-20.64424-27.18555-25.91797l-8.89648-3.9668-3.37696-6.12304c-8.03346-14.56562-15.58306-26.76765-26.81445-35.12305-6.37742-4.74395-14.09769-8.05702-22.95898-9.55273l-11.68358-.89832c-4.11065.0533-8.34623.44535-12.74609 1.04883l-27.91797 3.82812 12.48242 9.26758c-5.47103-1.64944-11.1903-2.71763-17.20708-2.7247z" fill="#6c131e" filter="url(#c)" stroke-width="3.14797" transform="matrix(.26458334 0 0 .26458334 -16.706824 -11.275074)"/><path d="m-245.15593 112.10707c-.91879.0114-1.92688.10189-3.00757.25011 3.62909 2.69424 6.72573 5.95642 8.89713 9.28367.2185 0 .436.002.65268.006 2.37806.0514 4.67142.38253 7.00525.94775-2.06596-3.74584-3.9406-6.6063-6.24613-8.32146-1.81876-1.35291-3.95721-2.12812-6.91327-2.16576-.12728-.002-.25673-.002-.38809 0zm-12.06541 3.02203c-.0961-.00026-.19213.001-.28888.003-1.84876.0408-3.86455.51597-6.1681 1.46503 7.39507 2.4756 14.08254 6.64319 17.62632 11.00243 2.419-.67526 3.87541-1.93744 4.79867-3.79306-4.5746-3.86812-8.22392-6.76283-11.83958-7.9778-1.33845-.44991-2.6897-.69851-4.12843-.6997zm-.0269 6.94842c-5.18893.88958-10.43468 5.31303-13.95883 9.76581-1.9101 2.41342-3.63409 5.10876-5.01055 7.96334-.059.85931-.0915 1.72633-.0915 2.60087 0 20.60945 16.64824 37.2644 37.25716 37.2644 2.827 0 5.57882-.31496 8.2243-.90899l-9.97871-4.48862c-17.59126-6.36927-22.7459-37.4463-6.17017-34.33795.76847-1.86443 1.3055-3.68921 1.45004-5.45807l2.45205.20051c-.22167 2.71055-1.16183 5.32933-2.3735 7.88995-.0964.26788-.19385.54264-.28784.7984 4.32306 11.22029 14.9756 21.15159 22.31078 22.13974.12045.004.25066.00018.38861-.0114 2.23984.13624 4.72027-.5561 6.87245-2.93626l1.0511-1.1622-1.37873-.74466c-.85652-.46267-1.88073-.93387-2.39107-1.43815-.2551-.25221-.36764-.45674-.40462-.68368-.0371-.22706-.0171-.55641.29352-1.12913l1.40456-2.58744-2.82773.81907c-.82981.24023-2.27806-.39906-3.05718-1.40973-.38964-.50546-.57999-1.04083-.57722-1.4273.003-.38673.0947-.67486.62476-1.05989l2.56057-1.85932-3.14399-.3576c-1.31289-.14966-2.15479-.87662-2.52336-1.6185-.36883-.74161-.30446-1.32719.18086-1.75183l1.60662-1.4056-2.02158-.68523c-.88417-.29959-1.35519-.99424-1.36322-1.3994-.004-.18073.0312-.35086.24236-.58911 1.43874-.3146 2.79841-.0595 3.69745.83871.81006.80901 1.09902 1.99118.91829 3.26853 1.12546-.29669 2.23582-.21235 3.17397.32866 1.22943.7091 1.92827 2.06541 2.06292 3.68092 2.00239-1.33369 4.23209-1.67482 5.95777-.67955 2.03595 1.17416 2.81185 3.88489 2.21227 6.81199 3.15811-4.39057 4.55249-9.96713.73898-15.85278-6.15063-.58472-10.75346-4.03769-12.28039-8.90333-.66158-2.10821-2.80147-3.77387-5.52835-4.98936l-.0103.0284c-3.91473-1.42464-7.31537-2.28395-10.87324-2.466l.0103.0207c-.30197-.0123-.60054-.0211-.89039-.0227-1.25538 3.01096-3.77268 5.25211-7.56026 6.06217l-.77721.16588-.47078-.64027c-1.87128-2.54444-5.42717-5.32437-9.741-7.64398zm20.56309 8.59017c3.67608-.01 5.9067 1.52945 5.54023 5.85132-4.71821.44623-6.83582-2.19635-8.30234-5.61206.98816-.15204 1.91374-.2365 2.76211-.23874zm6.37222 8.73539-.00053.00052c.48809.009.93996.1307 1.31827.37001-.19876.14506-.38114.29988-.54726.46612-.69053.68976-1.06472 1.59563-1.04748 2.46703.0241 1.22707.69376 2.2622 1.66915 2.96985-.41332 1.0666-.32296 2.29758.185 3.31969.50192 1.00936 1.38757 1.87859 2.54093 2.42156-.19021.44309-.31245.90363-.31574 1.36012-.008 1.10663.44474 2.11151 1.08882 2.94711.89405 1.15968 2.21964 2.09764 3.68918 2.35748-.024.28697-.0268.57036.0176.84336.13822.84823.59402 1.53476 1.10277 2.0376.44888.4436.94669.77558 1.42162 1.05213-.8352.63079-1.63437.92865-2.45101 1.02526-.85758-1.04476-1.27816-2.51202-1.23868-4.14031-1.5489.81308-3.18674.94205-4.4912.18965-1.93077-1.11361-2.55272-3.82196-1.73581-6.62492-1.49218.36462-2.9127.12108-3.84163-.80718-1.16823-1.16692-1.25556-3.11007-.40773-4.99557-.48387-.081-.91643-.28481-1.25367-.62166-1.15941-1.1581-.75991-3.4343.89194-5.08445 1.03239-1.03133 2.30977-1.57405 3.40548-1.55339z" fill="#c20a0a" filter="url(#d)" stroke-width="19.1567"/></g></g></svg>