<svg height="500" viewBox="0 0 132.29167 132.29167" width="500" xmlns="http://www.w3.org/2000/svg" xmlns:xlink="http://www.w3.org/1999/xlink"><linearGradient id="a" gradientUnits="userSpaceOnUse" x1="116.132103" x2="22.66864" y1="0" y2="132.292314"><stop offset="0" stop-color="#d3b879"/><stop offset=".25" stop-color="#ebd6ad"/><stop offset=".5" stop-color="#ebd6ad"/><stop offset=".75" stop-color="#ebd6ad"/><stop offset="1" stop-color="#d3b879"/></linearGradient><linearGradient id="b" gradientUnits="userSpaceOnUse" spreadMethod="repeat" x1="-17.85017" x2="5.02706" xlink:href="#c" y1="110.489736" y2="126.856413"/><linearGradient id="c"><stop offset="0" stop-color="#2e2442"/><stop offset=".125" stop-color="#342a4b"/><stop offset=".25" stop-color="#322848"/><stop offset=".375" stop-color="#322947" stop-opacity=".95"/><stop offset=".5" stop-color="#322a46" stop-opacity=".98"/><stop offset=".75" stop-color="#2e2442" stop-opacity=".97"/><stop offset=".90573049" stop-color="#34284e"/><stop offset="1" stop-color="#2e2442"/></linearGradient><filter id="d" color-interpolation-filters="sRGB" height="1.006074" width="1.005927" x="-.002964" y="-.003037"><feGaussianBlur stdDeviation=".35225928"/></filter><filter id="e" color-interpolation-filters="sRGB" height="1.008763" width="1.008521" x="-.00426" y="-.004381"><feGaussianBlur stdDeviation=".12334782"/></filter><filter id="f" color-interpolation-filters="sRGB" height="1.041627" width="1.035655" x="-.017827" y="-.020814"><feGaussianBlur stdDeviation=".82357594"/></filter><linearGradient id="g" gradientUnits="userSpaceOnUse" spreadMethod="repeat" x1="-21.24253" x2="1.6347" xlink:href="#c" y1="110.1505" y2="126.517177"/><path d="m250.4707 499.98252c51.835.039 104.53834.44093 157.50391-5.34765 23.52703-2.57129 63.66601-11.94336 63.66601-11.94336l20.95704-4.78907-8.40625-19.79687c-3.62583-17.49004-4.76016-37.13347-3.75586-52.85156 2.74125-40.11079 16.93348-78.89745 19.56445-119.01563.82783-12.6231.69137-24.46921.34447-42.18006-.34689-17.71086-3.70393-41.24364-10.31713-63.95285-2.60935-14.83079-5.05012-29.7543-6.34961-45.51563-2.71116-32.88338-4.95912-70.15255 6.76172-98.751949l9.07227-22.13086c-31.31324-3.171506-61.13792-7.4347299-87.3418-9.5429685l-13.60547 11.3652345-1.34961-12.5097658-15.11718-.9667968c-21.86813-1.39044747-38.84642-1.91868801-56.31446-2.02539065-5.82268-.03556755-16.5078-.02734375-22.63867-.02734375l-72.83689.32721653c-19.69041.32721654-47.16904 3.59837407-76.59084 5.94817407l-4.60938 8.8105474-.25781.496093-1.24609-7.4980466-16.01758.8046875c-16.98083.8557334-36.820718 3.3800201-54.957034 13.3808591-16.734322 9.227747-31.341428 23.054127-40.964844 40.189453-16.465591 29.318407-21.106486 61.290856-25.148437 87.197266-3.2490518 20.82441-5.7994558 41.62795-7.5839844 62.33594-1.94377399 12.57614-2.92389106 25.28234-2.93299587 38.00781l.00135527 27.97852c.01436867 46.72872-.62894005 93.96404 2.7929688 141.26953.9407191 13.00478 4.1699656 29.03511 14.3300782 43.82422 4.451018 6.4789 9.806394 11.40397 15.326172 15.69335 5.505744 4.27854 8.50915 8.11081 19.365234 9.82422 9.832331 1.66322 30.066099 3.74157 58.570317 5.875l12.77148.95899 10.22852-23.69336 15.71484 25.27344 9.36523.50195c25.46458 1.34785 54.43325 2.49136 81.95508 2.47266z" fill="#857347" stroke-width="3.77953" transform="scale(.26458334)"/><path d="m43.667127 6.1988049-6.649318 12.7232891-1.962733-11.8144838c-4.151997.209236-8.734935.8884646-12.483913 2.9557488-3.6649 2.020923-6.931432 5.134922-8.987607 8.796119-3.5936294 6.398768-4.9680452 14.21181-6.1007497 21.471745-1.7239508 11.049459-2.2092041 22.267477-2.7292176 33.438734-.5652131 12.142264-1.0750022 24.437952.6932615 36.463853.4873297 3.31431 1.1113893 6.8345 3.0041972 9.58967 1.4496055 2.11005 4.6865666 4.54405 6.0084106 4.7506 2.08291.35408 7.610648.94421 15.101134 1.50483l4.966963-11.50761 7.650707 12.30431c6.689358.35408 14.283448.65398 21.429996.64914 14.613556-.01 29.290534.20101 43.819142-1.38681 5.49586-.60065 16.3028-3.06871 16.3028-3.06871s-.84033-3.54005-1.04149-5.34358c-.4-3.58629-.56178-7.22034-.32107-10.82083.70788-10.588463 4.87617-20.80543 5.17179-31.413411.37415-13.42584-4.11707-26.631272-4.32122-40.060773-.14104-9.278493-1.4412-19.010796 2.14288-27.7560998-5.56781-.6078373-8.70335-1.1802678-14.75182-1.6700785l-8.93248 7.4651953-.88126-8.1733574c-7.610636-.4839091-12.854008-.5661144-19.284287-.5223869-5.84986.0397806-11.26574-.2361191-17.111594-.014796-6.768804.2562659-14.283499.9292252-20.732522 1.4396922z" fill="url(#a)" stroke-width="4.7625"/><g><path d="m33.54609 81.525347c-5.345891-1.302795-10.138629 3.427598-13.811845 4.908015-2.965795-.291823-7.029226-1.745114-8.907732 1.478671-1.0122212 3.751392-.8903522 7.757081-1.4116552 11.617928-.3926585 3.857579 3.7647012 4.612999 6.6949752 4.623059 4.88072-.72733 6.389379 6.62421 11.817922 6.94792 5.738145 1.75691 12.340909-.42701 16.008174-5.14913 2.218305 1.76834 5.354875 1.04611 8.018235 1.58927 10.406541.907 20.803024 2.12091 31.21596 2.83277 3.600992 2.74032 8.41361 8.48721 14.59813 7.46807 4.771166.70454 8.956466-4.33637 11.984636-5.16153 2.37544.70811 5.45661 1.33794 7.6706-.11953 2.23685-2.3585 1.42524-5.93416 2.01189-8.91238.28006-2.85671 1.23334-6.957507-2.42553-8.056573-1.45857-.802618-5.0018.606521-4.77973-1.665614-.0895-4.594247-1.81938-8.974164-2.64195-13.472629-2.65985-11.249861-5.11271-22.558758-7.90223-33.771632-1.67744-3.610709-5.759701-1.873396-8.660304-1.250859-2.751908.594881-6.794623 1.083181-6.66428 4.798076 1.080487 2.313928-.0051 3.446536-2.224244 4.163969-6.045183 3.163465-12.090365 6.32693-18.135547 9.490394-3.163136-3.958951-7.399896-7.042324-10.962088-10.678594-10.799653-10.193332-21.416525-20.58636-32.221001-30.76937-5.752844-2.888037-8.16798 5.516713-8.258635 9.809255-.494169 11.916412 9.156205 21.865443 19.931867 25.432922 2.466615.546798 4.422593 1.892275 6.084909 3.746343 3.600127 3.370959 7.200256 6.741916 10.800385 10.112875-5.220691 2.858917-10.683612 5.331911-15.74755 8.440568-.694453.515912-1.388908 1.031824-2.083362 1.547736zm-12.963045-55.804922c8.890867 8.523834 17.781734 17.047666 26.672602 25.571498-7.817952 5.307102-18.564161 1.132235-23.948881-5.759897-4.52966-5.308468-6.633175-13.575222-2.723721-19.811601zm77.492443 22.620165c3.402042 14.695134 6.804082 29.390268 10.206112 44.085401-2.14501-3.316915-7.16912-3.536065-9.436279-5.531891-1.84106-7.951956-3.682129-15.903912-5.523188-23.855868-16.163408 8.458737-32.326817 16.917475-48.490225 25.376212-.767363-3.520805-9.675042-5.270569-3.677102-7.043518 16.771933-8.777295 33.543866-17.554592 50.315799-26.331888-.167847-1.583011-1.262073-3.744134-.859284-4.971038 2.488057-.575804 4.976114-1.151607 7.464167-1.72741zm-47.898303 5.750672c4.127856 3.864185 8.258688 7.727244 12.387688 11.590996-2.486058 1.300637-4.972114 2.601274-7.458172 3.901911-4.311071-4.033429-8.622141-8.066859-12.933212-12.100288 2.896679-.425008 5.71234-1.553828 8.003696-3.392619zm40.433598 14.849924c1.457648 6.297877 2.915297 12.595757 4.372947 18.893635-2.922286 1.716699-4.041891-1.529721-6.182157-3.047984-3.403992-3.184502-6.807987-6.369004-10.211981-9.553506 4.007063-2.097382 8.014126-4.194764 12.021191-6.292145zm-15.750766 8.243704c4.641548 4.342519 9.283097 8.685039 13.924645 13.027558-1.783635 2.566794-4.23936 2.483146-6.981868 1.970638-1.899375.07067-3.541062-.430803-4.695159-2.014852-3.235291-3.026858-6.470581-6.053717-9.705872-9.080576 2.486086-1.300922 4.972169-2.601846 7.458254-3.902768zm-10.616223 5.556311c.793805 2.401438 3.389439 3.650516 5.00906 5.520538.557903.877958 4.201833 3.145972 2.402642 2.962209-6.669366-.630398-13.338733-1.260797-20.008099-1.891196 4.198799-2.197183 8.397598-4.394368 12.596397-6.591551zm-31.071096 2.739101c7.70915.377548 12.648776 9.79804 8.770071 16.393038-3.499195 7.25717-14.840087 7.83329-19.057595.96222-4.814065-6.479824-.05042-16.839356 8.023159-17.342793.75223-.08047 1.511747-.08365 2.264365-.01247zm65.116875 6.154947c7.709147.377544 12.648767 9.798041 8.770077 16.393031-3.4992 7.25717-14.8401 7.8333-19.057606.96222-4.814064-6.47981-.05042-16.83935 8.023152-17.342787.752235-.08047 1.511754-.08365 2.264377-.01246zm-83.963081-1.83944c2.123571.304807 5.544905-.346933 3.216949 2.781593-2.009688 2.270107 1.944349 8.628138-2.05271 7.526858-2.606264.54841-2.108784-1.470846-1.825465-3.31294.220409-2.331837.440817-4.663671.661226-6.995511zm32.449639 3.067189c12.255879 1.158445 24.511759 2.316889 36.767638 3.475334-2.341599 2.765596-.384707 8.592058-1.804323 10.027858-11.972915-1.13169-23.945832-2.26339-35.918748-3.39509 1.474914-3.125169 1.818969-6.761855.955433-10.108102zm65.116859 6.154945c1.4056.486854 4.69049-.580992 3.82033 1.788567-.27391 2.89776-.54781 5.79551-.82171 8.69328-2.76742-.0507-5.04022-.1305-2.91227-3.39615.53386-2.32433.50681-4.77533-.0863-7.085697zm-79.357235-6.799042c-7.462845-.717282-4.923795 11.808149 1.683283 8.202739 3.767855-1.866768 2.518537-7.970246-1.683283-8.202739zm65.116875 6.154946c-7.463455-.717791-4.924234 11.808473 1.683271 8.202753 3.767859-1.86677 2.518549-7.970262-1.683271-8.202753zm-65.491212-2.199218c1.396625 1.110347-1.514012.776036 0 0zm65.116441 6.154911c1.391604 1.14565-1.52696.8101 0 0z" fill="url(#b)"/><path d="m33.54609 81.525347c-5.985734 2.493847-14.165504-.131124-18.995624 4.195332-3.783671 3.389125-6.6333897 9.655781-4.8986403 14.429981 1.8130743 4.98976 8.5304613 6.72418 13.6072883 8.27684 5.335037 1.63163 11.145053 1.04065 16.718312.78842 3.97942-.1801 7.855245-1.54211 11.837561-1.63893 10.49011-.25503 21.134253.42178 31.355137 2.79686 6.309539 1.46618 11.662137 6.71423 18.134116 6.98523 5.30641.22219 11.77809-.48444 15.29501-4.46422 3.50409-3.96527 4.21662-10.65176 2.53949-15.670654-1.08327-3.241745-5.713-4.12732-7.39591-7.10225-5.594-9.888704-3.29841-22.704995-7.57037-33.232563-1.79853-4.432191-2.76373-11.366646-7.463544-12.255885-4.214214-.79736-6.69497 5.377648-10.244657 7.784952-3.089277 2.095066-6.338998 3.947958-9.592881 5.776942-3.564839 2.00377-6.8217 6.267828-10.869813 5.68821-12.012482-1.719974-17.464222-16.85334-26.222867-25.252398-5.642038-5.410404-9.148997-16.49527-16.960222-16.195566-4.11308.157812-8.151968 5.072247-8.25088 9.187165-.27495 11.438367 13.79494 18.321147 21.681719 26.61033 4.462868 4.690575 15.100183 6.562905 14.429238 13.00251-.466215 4.474643-7.835698 4.426466-11.67349 6.774048-1.846326 1.129399-3.461076 2.683259-5.458973 3.515646zm-12.963045-55.804922c11.204924-5.113994 32.986041 14.995878 26.672602 25.571498-4.634132 7.762618-20.309836-1.153633-25.811993-8.327174-3.502662-4.566662-6.096331-14.85471-.860609-17.244324zm77.492443 22.620165c12.796322 7.985918 23.281272 36.56469 10.206112 44.085401-4.13294 2.377229-8.04607-5.662274-10.423332-9.795196-3.342431-5.810895 1.555609-16.794529-4.536135-19.592563-16.57787-7.614476-31.777831 32.690712-48.490225 25.376212-2.485453-1.087806-3.208209-5.37273-2.120408-7.858186 7.355037-16.805124 34.575377-13.884051 48.759105-25.51722 2.105685-1.727034 2.82346-4.91186 5.131448-6.357456.42724-.267599 1.04576-.607895 1.473435-.340992zm-47.898303 5.750672c5.45369 1.108153 12.495795 6.503937 11.609613 11.998063-.400169 2.480959-4.189959 3.833228-6.680097 3.494844-5.849952-.794948-13.964629-6.287366-12.933212-12.100288.506243-2.853117 5.164043-3.969617 8.003696-3.392619zm40.433598 14.849924c5.874346 2.698161 9.793867 15.372038 4.372947 18.893635-5.393231 3.50361-15.553606-5.185468-15.406131-11.615123.08653-3.772678 6.10828-4.449693 9.342704-6.39368.545132-.327641 1.112515-1.150299 1.69048-.884832zm-15.750766 8.243704c6.298368.85557 16.578275 7.251773 13.924645 13.027558-1.844307 4.014244-9.159722.399593-13.173966-1.444713-3.404972-1.564382-8.713313-3.967028-8.208933-7.680077.377683-2.780355 4.677899-4.280451 7.458254-3.902768zm-10.616223 5.556311c3.394899.773045 7.951582 5.337314 6.24558 8.372523-3.091094 5.499477-17.626185 4.40942-18.841977-1.780972-.913279-4.650102 7.975738-7.643711 12.596397-6.591551zm-31.071096 2.739101c6.609115 1.149141 11.585038 13.823653 7.114605 18.825268-4.361236 4.87944-17.042774 1.39265-19.026308-4.843935-1.855661-5.834524 5.879691-15.030132 11.911703-13.981333zm65.116875 6.154947c6.609117 1.14914 11.585037 13.823651 7.114607 18.825261-4.36124 4.87945-17.04278 1.39265-19.026315-4.84393-1.855661-5.834525 5.879695-15.03013 11.911708-13.981331zm-83.963081-1.83944c3.006604-.358183 5.509842 6.915388 2.980958 8.580533-1.322178.870589-2.937986-1.72641-3.505277-3.204334-.645236-1.680987-1.263607-5.1632.524319-5.376199zm32.449639 3.067189c9.485359-7.847072 31.38771-7.597378 36.767638 3.475334 1.665526 3.427907-2.761028 7.947888-6.188935 9.613418-9.496623 4.61415-24.804015 5.15456-31.534136-2.98065-2.157305-2.6077-1.652267-7.950797.955433-10.108102zm65.116859 6.154945 1.75996 10.572927zm-79.357235-6.799042 2.844816 7.359696zm65.116875 6.154946 2.8448 7.359713z" fill="url(#g)" filter="url(#f)" opacity=".25"/><g stroke-width="3.14797" transform="matrix(.31766516 0 0 .31766516 146.22755 -17.58454)"><path d="m-233.65799 75.060863c-.007-.000026-.013.002-.0195.002-9.80064-.03336-19.58638 4.045083-25.45313 7.138671-2.16431 1.141119-6.14429 3.468932-11.11328 5.861329-4.96899 2.392403-10.80902 4.743423-15.71094 5.691413-8.62123 1.66677-15.49799 6.523314-19.20898 12.669924-1.8555 3.0733-2.93803 6.56573-2.6543 10.17969.28373 3.61395 2.12392 7.22905 5.19922 9.75586 6.30637 5.18129 9.10824 10.64358 9.55859 15.74023.45036 5.09665-1.37531 10.163-5.82226 14.86328-7.20693 7.61766-7.35029 18.06404-2.7168 25.40625s13.66029 12.14313 23.82813 10.91992c8.00037-.96231 13.23766-.83978 17.14648.23438 3.90883 1.07415 6.87005 3.04191 10.75391 6.92383 6.99276 6.98803 17.36719 8.73991 26.74414 6.8457 9.37694-1.89422 18.38381-7.64565 22.07226-17.20117 2.61913-6.78398 5.45807-12.72705 12.52149-15.23828 6.74006-2.39537 11.48635-7.61325 13.18945-13.65625 1.70311-6.043.35698-12.89082-4.0957-18.21875h-.002c-2.08066-2.48946-2.80364-4.13888-2.74415-6.83008.0595-2.6912 1.27236-6.80182 4.58008-12.83203 3.51844-6.41456 4.19717-13.86964.70117-19.83399-3.49599-5.964344-10.90416-9.345074-20.15234-8.828124-4.81145.26889-7.52737-.94024-10.75781-3.41602-3.23044-2.47577-6.65187-6.459841-11.1875-10.882815v-.002c-4.07471-3.972954-9.52225-5.272276-14.65625-5.292969zm-.041 9.97461c.00074.000003.001-.000003.002 0 3.52993.01457 6.06496.835125 7.73242 2.460937 4.12443 4.021996 7.60321 8.224186 12.08398 11.658206 4.48077 3.434024 10.28554 5.857464 17.38086 5.460944 6.78397-.37921 9.65521 1.63449 10.99024 3.9121 1.33502 2.27762 1.39799 5.91233-.83985 9.99219-3.69975 6.74491-5.69339 12.19703-5.80859 17.4082-.1152 5.21118 2.01854 9.80291 5.06445 13.44727 2.45771 2.94082 2.97448 6.18619 2.14844 9.11719-.82605 2.931-3.00087 5.56731-6.92774 6.96289h-.002c-11.08168 3.93982-15.66631 13.74565-18.48437 21.04492-2.16889 5.61884-8.00311 9.65428-14.74219 11.01563-6.73908 1.36134-13.75566-.16264-17.71875-4.12305-4.55978-4.5575-9.31695-7.88006-15.16211-9.48633s-12.39545-1.55412-20.98047-.52148c-6.41729.77201-11.63562-2.27253-14.20117-6.33789s-2.86293-8.58805 1.52734-13.22852c6.05409-6.39898 9.23221-14.4419 8.51172-22.5957s-5.26477-16.08349-13.16015-22.57032c-1.1956-.98235-1.50533-1.75347-1.58985-2.83007-.0845-1.0766.24727-2.58135 1.25-4.24219 2.00546-3.32169 6.62039-6.88207 12.56445-8.03125 6.38785-1.23536 12.77289-3.913744 18.14454-6.500004 5.37164-2.58626 9.84817-5.18547 11.4375-6.02344 4.80536-2.533909 14.04387-6.016323 20.77929-5.990233z" fill="#6c131e" stroke-width="3.14797"/><path d="m-233.67812 80.048213c-8.27141-.03281-17.78794 3.750204-23.12618 6.565106-3.75364 1.979084-16.91322 9.855197-28.20299 12.038547-14.56531 2.815964-22.98647 16.835434-14.44466 23.853774 14.20177 11.66813 14.6931 26.78536 4.19205 37.88463-11.59721 12.25815.30692 29.94184 16.89206 27.94662 16.58541-1.99496 23.57888.14366 32.02252 8.58308 10.95587 10.94846 34.78134 6.55029 40.63868-8.62409 2.7186-7.04163 6.43044-14.9151 15.503-18.14063 10.66694-3.79095 13.84697-15.70911 6.93658-23.97787-5.12657-6.13383-5.71765-12.4841 1.28984-25.25924 5.75628-10.49443 1.23217-22.179234-14.79999-21.283084-11.90678.665424-17.04579-7.2644-25.70586-15.709374-2.87126-2.799557-6.86277-3.860007-11.19532-3.877469z" fill="#c20a0a" stroke-width="31.4003"/><path d="m-239.05243 95.443479c-25.8613 0-46.97079 21.099831-46.97079 46.963031 0 25.86295 21.10837 46.97284 46.97079 46.97284 25.86241 0 46.97078-21.10989 46.97078-46.97284 0-25.86249-21.10938-46.963031-46.97078-46.963031z" fill="#6c131e" stroke-width="3.14797"/><path d="m-239.05234 105.15056c-20.60893 0-37.25677 16.64706-37.25677 37.25678 0 20.60945 16.64811 37.26471 37.25703 37.26471 20.6084 0 37.26498-16.655 37.26498-37.26445 0-20.60893-16.65632-37.25677-37.26498-37.25677z" fill="#c20a0a" stroke-width="31.4003"/><path d="m-920.52927 467.43942c-5.58909 1.05502-11.30953 2.76071-17.28515 5.22266l-28.51367 11.74805 29.24414 9.78906c3.26725 1.09376 6.49695 2.28987 9.67187 3.57226-17.47003 7.74917-32.36177 21.94399-43.49414 36.00977-7.71534 9.74835-14.67535 20.61841-20.2793 32.24023l-.96093 1.9961-.15235 2.21094c-.23924 3.48725-.37304 7.02705-.37305 10.61718 0 84.08701 68.22681 152.3418 152.31446 152.3418 11.53886 0 22.78934-1.28657 33.60351-3.71484l33.65625-7.5586-69.56836-31.29297-.40625-.14648c-27.95187-10.12052-47.95099-42.21489-52.66992-69.47266-2.35948-13.6289-.62176-25.44943 3.11328-31.5664 3.18078-5.20917 6.95916-7.81127 15.54493-7.10352l-.82227 2.23633 1.55664 4.03906c8.89965 23.09855 23.90307 44.20088 40.60352 60.44922 16.70041 16.24834 34.73237 28.04065 52.91601 30.49024l.57422.0781.58008.0195c.69051.0242 1.35402.005 2.00976-.0312 11.15653.43709 24.2631-3.74406 34.34375-14.89258l13.80274-15.25976 10.80859-9.32422c13.69459-19.03892 20.01888-46.78418 3.10742-72.88477l-3.02343-4.66797-5.53907-.52734c-19.53819-1.85745-32.26973-12.07115-36.52929-25.64453-4.10347-13.07622-15.35431-20.64424-27.18555-25.91797l-8.89648-3.9668-3.37696-6.12304c-8.03346-14.56562-15.58306-26.76765-26.81445-35.12305-6.37742-4.74395-14.09769-8.05702-22.95898-9.55273l-11.68358-.89832c-4.11065.0533-8.34623.44535-12.74609 1.04883l-27.91797 3.82812 12.48242 9.26758c-5.47103-1.64944-11.1903-2.71763-17.20708-2.7247z" fill="#6c131e" filter="url(#d)" stroke-width="3.14797" transform="matrix(.26458334 0 0 .26458334 -16.706824 -11.275074)"/><path d="m-245.15593 112.10707c-.91879.0114-1.92688.10189-3.00757.25011 3.62909 2.69424 6.72573 5.95642 8.89713 9.28367.2185 0 .436.002.65268.006 2.37806.0514 4.67142.38253 7.00525.94775-2.06596-3.74584-3.9406-6.6063-6.24613-8.32146-1.81876-1.35291-3.95721-2.12812-6.91327-2.16576-.12728-.002-.25673-.002-.38809 0zm-12.06541 3.02203c-.0961-.00026-.19213.001-.28888.003-1.84876.0408-3.86455.51597-6.1681 1.46503 7.39507 2.4756 14.08254 6.64319 17.62632 11.00243 2.419-.67526 3.87541-1.93744 4.79867-3.79306-4.5746-3.86812-8.22392-6.76283-11.83958-7.9778-1.33845-.44991-2.6897-.69851-4.12843-.6997zm-.0269 6.94842c-5.18893.88958-10.43468 5.31303-13.95883 9.76581-1.9101 2.41342-3.63409 5.10876-5.01055 7.96334-.059.85931-.0915 1.72633-.0915 2.60087 0 20.60945 16.64824 37.2644 37.25716 37.2644 2.827 0 5.57882-.31496 8.2243-.90899l-9.97871-4.48862c-17.59126-6.36927-22.7459-37.4463-6.17017-34.33795.76847-1.86443 1.3055-3.68921 1.45004-5.45807l2.45205.20051c-.22167 2.71055-1.16183 5.32933-2.3735 7.88995-.0964.26788-.19385.54264-.28784.7984 4.32306 11.22029 14.9756 21.15159 22.31078 22.13974.12045.004.25066.00018.38861-.0114 2.23984.13624 4.72027-.5561 6.87245-2.93626l1.0511-1.1622-1.37873-.74466c-.85652-.46267-1.88073-.93387-2.39107-1.43815-.2551-.25221-.36764-.45674-.40462-.68368-.0371-.22706-.0171-.55641.29352-1.12913l1.40456-2.58744-2.82773.81907c-.82981.24023-2.27806-.39906-3.05718-1.40973-.38964-.50546-.57999-1.04083-.57722-1.4273.003-.38673.0947-.67486.62476-1.05989l2.56057-1.85932-3.14399-.3576c-1.31289-.14966-2.15479-.87662-2.52336-1.6185-.36883-.74161-.30446-1.32719.18086-1.75183l1.60662-1.4056-2.02158-.68523c-.88417-.29959-1.35519-.99424-1.36322-1.3994-.004-.18073.0312-.35086.24236-.58911 1.43874-.3146 2.79841-.0595 3.69745.83871.81006.80901 1.09902 1.99118.91829 3.26853 1.12546-.29669 2.23582-.21235 3.17397.32866 1.22943.7091 1.92827 2.06541 2.06292 3.68092 2.00239-1.33369 4.23209-1.67482 5.95777-.67955 2.03595 1.17416 2.81185 3.88489 2.21227 6.81199 3.15811-4.39057 4.55249-9.96713.73898-15.85278-6.15063-.58472-10.75346-4.03769-12.28039-8.90333-.66158-2.10821-2.80147-3.77387-5.52835-4.98936l-.0103.0284c-3.91473-1.42464-7.31537-2.28395-10.87324-2.466l.0103.0207c-.30197-.0123-.60054-.0211-.89039-.0227-1.25538 3.01096-3.77268 5.25211-7.56026 6.06217l-.77721.16588-.47078-.64027c-1.87128-2.54444-5.42717-5.32437-9.741-7.64398zm20.56309 8.59017c3.67608-.01 5.9067 1.52945 5.54023 5.85132-4.71821.44623-6.83582-2.19635-8.30234-5.61206.98816-.15204 1.91374-.2365 2.76211-.23874zm6.37222 8.73539-.00053.00052c.48809.009.93996.1307 1.31827.37001-.19876.14506-.38114.29988-.54726.46612-.69053.68976-1.06472 1.59563-1.04748 2.46703.0241 1.22707.69376 2.2622 1.66915 2.96985-.41332 1.0666-.32296 2.29758.185 3.31969.50192 1.00936 1.38757 1.87859 2.54093 2.42156-.19021.44309-.31245.90363-.31574 1.36012-.008 1.10663.44474 2.11151 1.08882 2.94711.89405 1.15968 2.21964 2.09764 3.68918 2.35748-.024.28697-.0268.57036.0176.84336.13822.84823.59402 1.53476 1.10277 2.0376.44888.4436.94669.77558 1.42162 1.05213-.8352.63079-1.63437.92865-2.45101 1.02526-.85758-1.04476-1.27816-2.51202-1.23868-4.14031-1.5489.81308-3.18674.94205-4.4912.18965-1.93077-1.11361-2.55272-3.82196-1.73581-6.62492-1.49218.36462-2.9127.12108-3.84163-.80718-1.16823-1.16692-1.25556-3.11007-.40773-4.99557-.48387-.081-.91643-.28481-1.25367-.62166-1.15941-1.1581-.75991-3.4343.89194-5.08445 1.03239-1.03133 2.30977-1.57405 3.40548-1.55339z" fill="#c20a0a" filter="url(#e)" stroke-width="19.1567"/></g></g></svg>