<svg height="500" viewBox="0 0 132.29167 132.29167" width="500" xmlns="http://www.w3.org/2000/svg" xmlns:xlink="http://www.w3.org/1999/xlink"><linearGradient id="a" gradientUnits="userSpaceOnUse" x1="116.132103" x2="22.66864" y1="0" y2="132.292314"><stop offset="0" stop-color="#d3b879"/><stop offset=".25" stop-color="#ebd6ad"/><stop offset=".5" stop-color="#ebd6ad"/><stop offset=".75" stop-color="#ebd6ad"/><stop offset="1" stop-color="#d3b879"/></linearGradient><linearGradient id="b"><stop offset="0" stop-color="#2e2442"/><stop offset=".125" stop-color="#342a4b"/><stop offset=".25" stop-color="#322848"/><stop offset=".375" stop-color="#322947" stop-opacity=".95"/><stop offset=".5" stop-color="#322a46" stop-opacity=".98"/><stop offset=".75" stop-color="#2e2442" stop-opacity=".97"/><stop offset=".90573049" stop-color="#34284e"/><stop offset="1" stop-color="#2e2442"/></linearGradient><filter id="c" color-interpolation-filters="sRGB" height="1.006074" width="1.005927" x="-.002964" y="-.003037"><feGaussianBlur stdDeviation=".35225928"/></filter><filter id="d" color-interpolation-filters="sRGB" height="1.008763" width="1.008521" x="-.00426" y="-.004381"><feGaussianBlur stdDeviation=".12334782"/></filter><filter id="e" color-interpolation-filters="sRGB" height="1.037347" width="1.038299" x="-.01915" y="-.018673"><feGaussianBlur stdDeviation=".82357594"/></filter><linearGradient id="f" gradientUnits="userSpaceOnUse" spreadMethod="repeat" x1="-21.82231" x2="1.05492" xlink:href="#b" y1="109.085857" y2="125.452534"/><linearGradient id="g" gradientUnits="userSpaceOnUse" spreadMethod="repeat" x1="-25.21467" x2="-2.33744" xlink:href="#b" y1="108.746621" y2="125.113298"/><path d="m250.4707 499.98252c51.835.039 104.53834.44093 157.50391-5.34765 23.52703-2.57129 63.66601-11.94336 63.66601-11.94336l20.95704-4.78907-8.40625-19.79687c-3.62583-17.49004-4.76016-37.13347-3.75586-52.85156 2.74125-40.11079 16.93348-78.89745 19.56445-119.01563.82783-12.6231.69137-24.46921.34447-42.18006-.34689-17.71086-3.70393-41.24364-10.31713-63.95285-2.60935-14.83079-5.05012-29.7543-6.34961-45.51563-2.71116-32.88338-4.95912-70.15255 6.76172-98.751949l9.07227-22.13086c-31.31324-3.171506-61.13792-7.4347299-87.3418-9.5429685l-13.60547 11.3652345-1.34961-12.5097658-15.11718-.9667968c-21.86813-1.39044747-38.84642-1.91868801-56.31446-2.02539065-5.82268-.03556755-16.5078-.02734375-22.63867-.02734375l-72.83689.32721653c-19.69041.32721654-47.16904 3.59837407-76.59084 5.94817407l-4.60938 8.8105474-.25781.496093-1.24609-7.4980466-16.01758.8046875c-16.98083.8557334-36.820718 3.3800201-54.957034 13.3808591-16.734322 9.227747-31.341428 23.054127-40.964844 40.189453-16.465591 29.318407-21.106486 61.290856-25.148437 87.197266-3.2490518 20.82441-5.7994558 41.62795-7.5839844 62.33594-1.94377399 12.57614-2.92389106 25.28234-2.93299587 38.00781l.00135527 27.97852c.01436867 46.72872-.62894005 93.96404 2.7929688 141.26953.9407191 13.00478 4.1699656 29.03511 14.3300782 43.82422 4.451018 6.4789 9.806394 11.40397 15.326172 15.69335 5.505744 4.27854 8.50915 8.11081 19.365234 9.82422 9.832331 1.66322 30.066099 3.74157 58.570317 5.875l12.77148.95899 10.22852-23.69336 15.71484 25.27344 9.36523.50195c25.46458 1.34785 54.43325 2.49136 81.95508 2.47266z" fill="#857347" stroke-width="3.77953" transform="scale(.26458334)"/><path d="m43.667127 6.1988049-6.649318 12.7232891-1.962733-11.8144838c-4.151997.209236-8.734935.8884646-12.483913 2.9557488-3.6649 2.020923-6.931432 5.134922-8.987607 8.796119-3.5936294 6.398768-4.9680452 14.21181-6.1007497 21.471745-1.7239508 11.049459-2.2092041 22.267477-2.7292176 33.438734-.5652131 12.142264-1.0750022 24.437952.6932615 36.463853.4873297 3.31431 1.1113893 6.8345 3.0041972 9.58967 1.4496055 2.11005 4.6865666 4.54405 6.0084106 4.7506 2.08291.35408 7.610648.94421 15.101134 1.50483l4.966963-11.50761 7.650707 12.30431c6.689358.35408 14.283448.65398 21.429996.64914 14.613556-.01 29.290534.20101 43.819142-1.38681 5.49586-.60065 16.3028-3.06871 16.3028-3.06871s-.84033-3.54005-1.04149-5.34358c-.4-3.58629-.56178-7.22034-.32107-10.82083.70788-10.588463 4.87617-20.80543 5.17179-31.413411.37415-13.42584-4.11707-26.631272-4.32122-40.060773-.14104-9.278493-1.4412-19.010796 2.14288-27.7560998-5.56781-.6078373-8.70335-1.1802678-14.75182-1.6700785l-8.93248 7.4651953-.88126-8.1733574c-7.610636-.4839091-12.854008-.5661144-19.284287-.5223869-5.84986.0397806-11.26574-.2361191-17.111594-.014796-6.768804.2562659-14.283499.9292252-20.732522 1.4396922z" fill="url(#a)" stroke-width="4.7625"/><g><path d="m109.62041 14.097501c-1.88007.330458-3.69343 1.085197-6.37781 2.139935-15.363607 5.977236-30.727214 11.954472-46.090821 17.931708-5.591111-4.654238-15.039572-.893596-16.099276 6.262151-6.624057 2.577276-13.248115 5.154552-19.872172 7.731828-2.957418 2.461078-.815393 6.51342-4.719648 8.561364-2.205778 2.15818-4.952729 4.404894-4.701944 7.819888-.622548 7.096095-1.245095 14.192189-1.8676422 21.288284-1.454484 5.255646 6.1867842 3.295976 6.8129812 4.914166-.967107 1.38487-1.511303 3.55655-2.733275 4.46726-4.4257032-1.03928-5.6012692 3.71421-5.5219952 7.075445.221954 5.03561 5.5543672 4.02676 8.9547632 4.55327 29.261081 2.53403 58.521924 5.07068 87.783049 7.60413 4.62984-.24996 5.67329-7.79699 2.80524-10.5826-3.50299-1.31414-7.44442-.93273-11.146002-1.47129-3.151868-.2729-6.303741-.54581-9.455614-.81871-5.255493-10.926295-10.510987-21.852583-15.76648-32.778875 1.666987-2.810954 2.888889-8.287336-.876282-10.024099-1.733117-.733219-4.598334.508278-4.943667-2.076055-1.392457-2.895391-2.784915-5.790783-4.177373-8.686174-3.492849-1.842848.868187-4.253839 3.155376-4.695264 11.8227-4.599393 23.645401-9.198787 35.468102-13.798181-.779452 8.883351-1.558902 17.766702-2.338352 26.650053 4.358482 4.962468-3.43886 10.130467-6.223911 14.402222-2.616257 5.712066 4.378591 12.542524 10.255303 12.677138 4.89583-.336838 10.28324-4.043868 11.48908-8.83912-1.8793-4.841668-5.1142-9.27362-6.71998-14.342287 3.53304-1.699662 2.35847-5.885596 2.98211-9.022173.76296-8.696288 1.52593-17.392575 2.28889-26.088863 3.89312-1.332019 2.33566-5.535384 1.07826-8.220864-.45929-1.486609-1.894-2.587519-3.44091-2.634287zm-.16019 3.759977c.23045 1.445212 2.51375 3.795962.004 4.036884-2.0097.188213-.8102 2.782299-1.36102 4.225229-.89806 10.235022-1.79612 20.470045-2.69418 30.705067-.72351-.900245-1.14936-5.123704-2.16465-2.83663-1.2463 2.30591-1.90414 2.894985-1.35415-.113129.87907-10.020038 1.75813-20.040076 2.6372-30.060114-15.662609 6.093341-31.325219 12.186681-46.987828 18.280022.500358 5.349144-6.550335 8.858422-10.546393 5.306674-1.422687-1.744335-3.681121.675116-5.512497.940903-4.488642 1.746181-8.977284 3.492363-13.465926 5.238544 1.666909 2.394169 3.333819 4.788338 5.000728 7.182507-4.688775 8.621524-9.37755 17.243048-14.066325 25.864572-1.769746-.155374-3.539491-.310747-5.309237-.466121.682129-7.775236 1.364258-15.550473 2.046387-23.325709 2.68528-2.696993 5.370559-5.393986 8.055839-8.090979-.667453-1.669719-2.047231-3.65273.709768-3.816315 6.723193-2.615685 13.446386-5.231371 20.169579-7.847056-.906085-5.369292 6.030948-9.406782 10.262841-5.984637 1.391101 2.607599 3.758427.194261 5.789868-.260394 16.261346-6.326229 32.528502-12.654692 48.785996-18.979318zm-65.927765 31.413071c1.412455 3.869557 8.511129 1.625533 8.397974 4.721782-.196555 2.24169-.39311 4.483379-.589665 6.725069 1.461331-.05611 4.127338.720815 4.881845.17594-1.341683-2.789746-2.683367-5.579492-4.02505-8.369238 3.270531.442515 6.379454-5.358813 7.303838-.250512 1.533276 3.187708 3.066553 6.375415 4.599829 9.563122 1.78611.156752 3.572219.313503 5.358329.470255-.358529 1.59566.496793 4.638599-2.075022 3.595349-2.714545-.778077.143644 2.297379.386839 3.564572 5.719347 11.890353 11.438694 23.780707 17.158041 35.671062 6.968912.60375 13.937825 1.2075 20.906737 1.81126-.35679 1.59608.50194 4.63817-2.07106 3.5978-30.522138-2.64484-61.044411-5.28813-91.56664-7.93193.357016-1.59607-.501322-4.638205 2.071567-3.597735 2.205265.95463 2.848306-.99701 3.657363-2.6398 8.535025-15.702333 17.07005-31.404664 25.605075-47.106996zm-7.025411 5.044653c-.81786 1.670497-1.611601 3.779236-2.672188 1.039213.890729-.346404 1.781459-.692809 2.672188-1.039213zm11.563119.61495c-.951191 1.749936-1.902382 3.499872-2.853573 5.249808 2.412802.930516 2.754346-.608344 2.630231-2.702366.07445-.849147.148895-1.698295.223342-2.547442zm55.063827 6.336047c1.22434 4.800533 5.47106 9.789527 5.94001 13.914445-3.00029 4.347218-9.832182 6.110733-12.855982.767135-4.204569-4.259279 4.351482-7.861857 5.493852-12.391274.47946-.760057.95158-1.524706 1.42212-2.290306zm-59.87697 2.519743c-2.953204 5.598048-6.21411 11.103367-8.976929 16.758789-.215592 2.457174-.431183 4.914348-.646774 7.371522-1.793529-.162992-3.890204-.890639-4.310363 1.504473-1.886179 3.470189-3.772358 6.940379-5.658537 10.410569 6.770818.586525 13.541637 1.173045 20.312455 1.759575 1.095196-12.484509 2.190392-24.969018 3.285588-37.453528-1.335147-.117133-2.670293-.234267-4.00544-.3514zm7.754565.680062c-1.095196 12.483132-2.190391 24.966265-3.285587 37.449396 9.818867.85042 19.637733 1.70084 29.4566 2.55126-6.311932-13.122025-12.623863-26.244046-18.935795-39.36607-2.411739-.211529-4.823479-.423057-7.235218-.634586zm3.420463 4.077787c2.150744-.336296 2.115544 2.489339 3.124578 3.804506 4.45788 9.266934 8.915761 18.533868 13.373641 27.800803-6.375149-.552765-12.750299-1.105525-19.125448-1.658295.875743-9.982341 1.751486-19.964677 2.627229-29.947014zm-11.691793 4.07262c-.728121 8.300096-1.456241 16.600193-2.184362 24.900284-3.613216-.31298-7.226433-.62597-10.839649-.93896.903993-1.66294 1.807986-3.32589 2.711979-4.98884 4.369044.91163 5.311949-3.878213 5.285335-7.127753-.06814-2.175971.579057-4.136344 1.806929-5.921702 1.073256-1.974343 2.146512-3.948686 3.219768-5.923029z" fill="url(#f)"/><path d="m104.06416 12.624206c-5.535562.318566-16.624727.65377-15.483291 6.079732 1.433917 6.81631 16.229321-6.032534 20.879351-.84646 2.33312 2.602068-1.1487 6.897322-1.56063 10.367843-1.12787 9.502483 5.57077 23.443681-2.49081 28.599289-1.10879.709104-3.00669-.229317-3.7145-1.338937-5.700082-8.935918 11.30589-25.30305 2.8329-31.670936-13.434895-10.097015-31.316751 12.208491-46.987828 18.280022-4.494635 1.741381-9.043651 3.346934-13.491166 5.205367-5.239985 2.189573-14.144317 1.492894-15.532902 6.999573-.465881 1.847534 1.581428 4.324583 3.474723 4.538741 4.965806.561701 6.544985-9.557804 11.542448-9.567891 3.546973-.0072 6.444309 3.687024 8.219654 6.757727.837872 1.449214-.845155 4.9926.828373 4.953186 2.060643-.04853-.345174-4.382679.731738-6.140194 1.204756-1.966156 3.530649-4.479533 5.748487-3.848344 2.304029.655717 1.851499 4.425915 2.971911 6.54327.794378 1.501214 1.390323 3.212958 2.650485 4.351673 1.320232 1.192995 3.543866 3.546093 4.816243 2.302185 1.618435-1.582224-1.875633-4.119952-2.788977-6.190837-1.889572-4.284356-7.299977-8.547309-5.567102-12.897404 1.255375-3.151411 6.212919-2.727474 9.352918-4.011125 9.850634-4.027001 21.241115-17.961475 29.753735-11.575004 7.13318 5.351564-.19335 17.994392-2.338352 26.650053-1.35484 5.467168-8.195799 10.18677-6.554124 15.57476 1.794159 5.888441 9.633106 12.185669 15.437306 10.135299 4.26669-1.507234 3.72523-8.420222 4.15013-12.925309.43127-4.572566-1.6093-9.082904-1.68517-13.675135-.16763-10.146865 3.35588-20.194181 2.72335-30.322698-.23081-3.695898.19642-8.178564-2.36265-10.855151-1.32413-1.384942-3.64333-1.583382-5.55625-1.473295zm-34.564814 51.565846c-.02259.01133.0084.07772.03204.06873.0067-.0026-.0035-.01402-.0062-.02067-.007-.01681-.0096-.05621-.02584-.04806zm.03204.06873c-1.80843.08262-1.593965 3.321827-1.815393 5.118551-.182788 1.483193 1.75923 3.783969.42788 4.462777-3.920917 1.999135-5.852699-7.003664-9.89707-8.739519-2.224739-.954865-4.959617-1.460947-7.235218-.634586-.916129.332682-1.099221 2.150148-2.070158 2.06499-.970867-.08515-.834803-1.906599-1.678967-2.393652-1.160905-.669803-2.83211-.999192-4.00544-.3514-5.783786 3.193208-7.221971 11.283766-9.053711 17.631482-.602914 2.089341.373351 4.539503-.569992 6.498829-1.445189 3.001662-5.211812 4.247362-7.238318 6.891572-1.159336 1.51271-3.632995 3.34477-2.730582 5.02347 3.217919 5.986064 13.926265 4.084354 20.312455 1.759584.916325-.33358 1.098697-2.151824 2.070158-2.067064.970345.0847 1.046571 1.650774 1.678968 2.391594.628379.7361 1.181932 1.6728 2.085144 2.02055 2.423025.93288 5.211784-.61939 7.784538-.26975 5.01959.68215 9.500461 5.39608 14.49679 4.56044 2.080521-.34798 3.772227-2.11293 5.090128-3.75998 1.026356-1.2827.381327-4.16485 1.987476-4.509804 2.524711-.54223 3.330923 4.303034 5.759339 5.181084 5.92456 2.14215 16.376377 5.04742 18.885667-.73122.26608-.61275-.73052-1.18473-1.31051-1.51619-4.669752-2.66883-11.596819.36626-15.873969-2.894914-9.177231-6.997321-10.08886-20.759987-15.006837-31.200171-.70967-1.506533-.428798-4.612679-2.092378-4.536673zm34.283694 40.147938c-1.10741.73249.59468 3.74604 1.89963 3.50108.31656-.0594.20823-.64843.12144-.9586-.2917-1.0426-1.11809-3.13976-2.02107-2.54248zm1.89963 3.50108c-2.90494-2.70841-7.833972 1.33832-11.780162 1.78748-5.438438.61899-16.236116-4.22385-16.373161 1.24799-.232402 9.27925 20.419461 9.35482 27.625183 3.50366 1.69762-1.37849 2.12761-5.04788.52814-6.53913zm-28.153323 3.03547c.48588-1.97666-3.540394-2.06545-5.468917-2.71663-7.166075-2.41969-14.721827-4.04279-22.281328-4.29069-9.051617-.29684-17.921272 2.78929-26.958562 3.3786-2.536615.1654-7.542693-2.49827-7.625891.0424-.496586 15.16443 30.246422 2.53219 45.402914 3.23029 5.639198.25973 15.584259 5.83803 16.931784.35605zm-62.334698-3.58634c1.246215-1.4015-3.16757-2.87159-3.028239-4.74183.237868-3.192895 4.587596-4.542345 6.312276-7.239875 2.489-3.89297 9.269093-9.76741 5.660636-12.653487-1.697682-1.357822-3.131585 3.311063-5.22242 3.906221-1.708677.486376-4.167661.895108-5.309237-.466121-5.0153962-5.980418-1.245343-16.248696 2.046387-23.325709 1.605083-3.450828 5.326354-5.438734 8.055839-8.090979 2.107909-2.048259 3.938554-4.471262 6.424415-6.039425 4.372774-2.758491 9.6403-3.739871 14.454932-5.623946 4.334847-1.696325 8.828459-3.037869 12.994556-5.114417 6.991246-3.484715 23.732735-5.394273 19.980693-12.245764-.908141-1.658331-3.369226 1.721946-5.102015 2.478402-5.029309 2.195566-10.228417 3.979612-15.342733 5.969144-5.36635 2.087576-10.732948 4.174517-16.099276 6.262151-6.624177 2.576967-14.334497 3.275972-19.872172 7.731828-3.481436 2.801316-5.730868 7.027402-7.42177 11.16366-1.903984 4.657495-2.146659 9.841598-2.842204 14.824935-.616815 4.419265-2.3873162 9.040147-1.1756392 13.334587.7435642 2.63535 4.7099752 3.86691 4.8922082 6.59908.259581 3.89183-6.8389352 6.524675-5.6585692 10.242265.700823 2.20725 4.7134662 4.75989 6.2523322 3.02928zm62.369838-81.635332 10.984342-7.01766zm-53.425165 57.00014c7.413419 2.702978 9.263963-14.078731 8.843905-21.958351-.0387-.725956-.300993-1.987763-1.02526-1.924947-8.345511.723805-15.68869 21.01383-7.818645 23.883298zm23.898801-27.791586-2.853573 5.249808zm54.658167 6.304008c.1221-.05909.29764-.04999.40566.03204 4.03251 3.062024 8.6625 10.553401 5.2188 14.26528-3.01201 3.246575-11.255942.538858-12.783712-3.617868-1.47849-4.022608 3.30152-8.81259 7.159252-10.679452zm-47.647226 7.238835c3.250019 1.699628 3.58797 6.399781 5.260145 9.664009 3.712281 7.246688 15.216345 15.312591 10.589018 22.012096-3.636678 5.26523-13.70106 1.73641-19.125448-1.658295-1.353211-.84688-2.080331-2.55924-2.457732-4.11035-1.878008-7.718574-2.742929-17.049101 1.466061-23.786143.734628-1.175868 2.299385-1.62482 3.6189-2.050521.207123-.06682.456201-.171652.649056-.0708zm-12.827641 4.065385c.145202-.07696.331322.02478.486792.07803.726088.248678 1.646865.434924 2.019515 1.105876 3.240299 5.83411 1.287858 13.764377-1.117244 19.989478-.588578 1.52341-1.583301 3.16681-3.086633 3.80493-3.338442 1.41708-9.122471 2.25551-10.839649-.93896-.896184-1.66716 1.804707-3.32768 2.711979-4.98884 2.065971-3.782663 4.270239-7.492034 6.220292-11.335741 1.284248-2.531354 1.096936-6.385519 3.604948-7.714774zm4.943885 7.005257-.149862 4.303613z" fill="url(#g)" filter="url(#e)" opacity=".25"/><g stroke-width="3.14797" transform="matrix(.31766516 0 0 .31766516 175.76111 60.180469)"><path d="m-233.65799 75.060863c-.007-.000026-.013.002-.0195.002-9.80064-.03336-19.58638 4.045083-25.45313 7.138671-2.16431 1.141119-6.14429 3.468932-11.11328 5.861329-4.96899 2.392403-10.80902 4.743423-15.71094 5.691413-8.62123 1.66677-15.49799 6.523314-19.20898 12.669924-1.8555 3.0733-2.93803 6.56573-2.6543 10.17969.28373 3.61395 2.12392 7.22905 5.19922 9.75586 6.30637 5.18129 9.10824 10.64358 9.55859 15.74023.45036 5.09665-1.37531 10.163-5.82226 14.86328-7.20693 7.61766-7.35029 18.06404-2.7168 25.40625s13.66029 12.14313 23.82813 10.91992c8.00037-.96231 13.23766-.83978 17.14648.23438 3.90883 1.07415 6.87005 3.04191 10.75391 6.92383 6.99276 6.98803 17.36719 8.73991 26.74414 6.8457 9.37694-1.89422 18.38381-7.64565 22.07226-17.20117 2.61913-6.78398 5.45807-12.72705 12.52149-15.23828 6.74006-2.39537 11.48635-7.61325 13.18945-13.65625 1.70311-6.043.35698-12.89082-4.0957-18.21875h-.002c-2.08066-2.48946-2.80364-4.13888-2.74415-6.83008.0595-2.6912 1.27236-6.80182 4.58008-12.83203 3.51844-6.41456 4.19717-13.86964.70117-19.83399-3.49599-5.964344-10.90416-9.345074-20.15234-8.828124-4.81145.26889-7.52737-.94024-10.75781-3.41602-3.23044-2.47577-6.65187-6.459841-11.1875-10.882815v-.002c-4.07471-3.972954-9.52225-5.272276-14.65625-5.292969zm-.041 9.97461c.00074.000003.001-.000003.002 0 3.52993.01457 6.06496.835125 7.73242 2.460937 4.12443 4.021996 7.60321 8.224186 12.08398 11.658206 4.48077 3.434024 10.28554 5.857464 17.38086 5.460944 6.78397-.37921 9.65521 1.63449 10.99024 3.9121 1.33502 2.27762 1.39799 5.91233-.83985 9.99219-3.69975 6.74491-5.69339 12.19703-5.80859 17.4082-.1152 5.21118 2.01854 9.80291 5.06445 13.44727 2.45771 2.94082 2.97448 6.18619 2.14844 9.11719-.82605 2.931-3.00087 5.56731-6.92774 6.96289h-.002c-11.08168 3.93982-15.66631 13.74565-18.48437 21.04492-2.16889 5.61884-8.00311 9.65428-14.74219 11.01563-6.73908 1.36134-13.75566-.16264-17.71875-4.12305-4.55978-4.5575-9.31695-7.88006-15.16211-9.48633s-12.39545-1.55412-20.98047-.52148c-6.41729.77201-11.63562-2.27253-14.20117-6.33789s-2.86293-8.58805 1.52734-13.22852c6.05409-6.39898 9.23221-14.4419 8.51172-22.5957s-5.26477-16.08349-13.16015-22.57032c-1.1956-.98235-1.50533-1.75347-1.58985-2.83007-.0845-1.0766.24727-2.58135 1.25-4.24219 2.00546-3.32169 6.62039-6.88207 12.56445-8.03125 6.38785-1.23536 12.77289-3.913744 18.14454-6.500004 5.37164-2.58626 9.84817-5.18547 11.4375-6.02344 4.80536-2.533909 14.04387-6.016323 20.77929-5.990233z" fill="#6c131e" stroke-width="3.14797"/><path d="m-233.67812 80.048213c-8.27141-.03281-17.78794 3.750204-23.12618 6.565106-3.75364 1.979084-16.91322 9.855197-28.20299 12.038547-14.56531 2.815964-22.98647 16.835434-14.44466 23.853774 14.20177 11.66813 14.6931 26.78536 4.19205 37.88463-11.59721 12.25815.30692 29.94184 16.89206 27.94662 16.58541-1.99496 23.57888.14366 32.02252 8.58308 10.95587 10.94846 34.78134 6.55029 40.63868-8.62409 2.7186-7.04163 6.43044-14.9151 15.503-18.14063 10.66694-3.79095 13.84697-15.70911 6.93658-23.97787-5.12657-6.13383-5.71765-12.4841 1.28984-25.25924 5.75628-10.49443 1.23217-22.179234-14.79999-21.283084-11.90678.665424-17.04579-7.2644-25.70586-15.709374-2.87126-2.799557-6.86277-3.860007-11.19532-3.877469z" fill="#c20a0a" stroke-width="31.4003"/><path d="m-239.05243 95.443479c-25.8613 0-46.97079 21.099831-46.97079 46.963031 0 25.86295 21.10837 46.97284 46.97079 46.97284 25.86241 0 46.97078-21.10989 46.97078-46.97284 0-25.86249-21.10938-46.963031-46.97078-46.963031z" fill="#6c131e" stroke-width="3.14797"/><path d="m-239.05234 105.15056c-20.60893 0-37.25677 16.64706-37.25677 37.25678 0 20.60945 16.64811 37.26471 37.25703 37.26471 20.6084 0 37.26498-16.655 37.26498-37.26445 0-20.60893-16.65632-37.25677-37.26498-37.25677z" fill="#c20a0a" stroke-width="31.4003"/><path d="m-920.52927 467.43942c-5.58909 1.05502-11.30953 2.76071-17.28515 5.22266l-28.51367 11.74805 29.24414 9.78906c3.26725 1.09376 6.49695 2.28987 9.67187 3.57226-17.47003 7.74917-32.36177 21.94399-43.49414 36.00977-7.71534 9.74835-14.67535 20.61841-20.2793 32.24023l-.96093 1.9961-.15235 2.21094c-.23924 3.48725-.37304 7.02705-.37305 10.61718 0 84.08701 68.22681 152.3418 152.31446 152.3418 11.53886 0 22.78934-1.28657 33.60351-3.71484l33.65625-7.5586-69.56836-31.29297-.40625-.14648c-27.95187-10.12052-47.95099-42.21489-52.66992-69.47266-2.35948-13.6289-.62176-25.44943 3.11328-31.5664 3.18078-5.20917 6.95916-7.81127 15.54493-7.10352l-.82227 2.23633 1.55664 4.03906c8.89965 23.09855 23.90307 44.20088 40.60352 60.44922 16.70041 16.24834 34.73237 28.04065 52.91601 30.49024l.57422.0781.58008.0195c.69051.0242 1.35402.005 2.00976-.0312 11.15653.43709 24.2631-3.74406 34.34375-14.89258l13.80274-15.25976 10.80859-9.32422c13.69459-19.03892 20.01888-46.78418 3.10742-72.88477l-3.02343-4.66797-5.53907-.52734c-19.53819-1.85745-32.26973-12.07115-36.52929-25.64453-4.10347-13.07622-15.35431-20.64424-27.18555-25.91797l-8.89648-3.9668-3.37696-6.12304c-8.03346-14.56562-15.58306-26.76765-26.81445-35.12305-6.37742-4.74395-14.09769-8.05702-22.95898-9.55273l-11.68358-.89832c-4.11065.0533-8.34623.44535-12.74609 1.04883l-27.91797 3.82812 12.48242 9.26758c-5.47103-1.64944-11.1903-2.71763-17.20708-2.7247z" fill="#6c131e" filter="url(#c)" stroke-width="3.14797" transform="matrix(.26458334 0 0 .26458334 -16.706824 -11.275074)"/><path d="m-245.15593 112.10707c-.91879.0114-1.92688.10189-3.00757.25011 3.62909 2.69424 6.72573 5.95642 8.89713 9.28367.2185 0 .436.002.65268.006 2.37806.0514 4.67142.38253 7.00525.94775-2.06596-3.74584-3.9406-6.6063-6.24613-8.32146-1.81876-1.35291-3.95721-2.12812-6.91327-2.16576-.12728-.002-.25673-.002-.38809 0zm-12.06541 3.02203c-.0961-.00026-.19213.001-.28888.003-1.84876.0408-3.86455.51597-6.1681 1.46503 7.39507 2.4756 14.08254 6.64319 17.62632 11.00243 2.419-.67526 3.87541-1.93744 4.79867-3.79306-4.5746-3.86812-8.22392-6.76283-11.83958-7.9778-1.33845-.44991-2.6897-.69851-4.12843-.6997zm-.0269 6.94842c-5.18893.88958-10.43468 5.31303-13.95883 9.76581-1.9101 2.41342-3.63409 5.10876-5.01055 7.96334-.059.85931-.0915 1.72633-.0915 2.60087 0 20.60945 16.64824 37.2644 37.25716 37.2644 2.827 0 5.57882-.31496 8.2243-.90899l-9.97871-4.48862c-17.59126-6.36927-22.7459-37.4463-6.17017-34.33795.76847-1.86443 1.3055-3.68921 1.45004-5.45807l2.45205.20051c-.22167 2.71055-1.16183 5.32933-2.3735 7.88995-.0964.26788-.19385.54264-.28784.7984 4.32306 11.22029 14.9756 21.15159 22.31078 22.13974.12045.004.25066.00018.38861-.0114 2.23984.13624 4.72027-.5561 6.87245-2.93626l1.0511-1.1622-1.37873-.74466c-.85652-.46267-1.88073-.93387-2.39107-1.43815-.2551-.25221-.36764-.45674-.40462-.68368-.0371-.22706-.0171-.55641.29352-1.12913l1.40456-2.58744-2.82773.81907c-.82981.24023-2.27806-.39906-3.05718-1.40973-.38964-.50546-.57999-1.04083-.57722-1.4273.003-.38673.0947-.67486.62476-1.05989l2.56057-1.85932-3.14399-.3576c-1.31289-.14966-2.15479-.87662-2.52336-1.6185-.36883-.74161-.30446-1.32719.18086-1.75183l1.60662-1.4056-2.02158-.68523c-.88417-.29959-1.35519-.99424-1.36322-1.3994-.004-.18073.0312-.35086.24236-.58911 1.43874-.3146 2.79841-.0595 3.69745.83871.81006.80901 1.09902 1.99118.91829 3.26853 1.12546-.29669 2.23582-.21235 3.17397.32866 1.22943.7091 1.92827 2.06541 2.06292 3.68092 2.00239-1.33369 4.23209-1.67482 5.95777-.67955 2.03595 1.17416 2.81185 3.88489 2.21227 6.81199 3.15811-4.39057 4.55249-9.96713.73898-15.85278-6.15063-.58472-10.75346-4.03769-12.28039-8.90333-.66158-2.10821-2.80147-3.77387-5.52835-4.98936l-.0103.0284c-3.91473-1.42464-7.31537-2.28395-10.87324-2.466l.0103.0207c-.30197-.0123-.60054-.0211-.89039-.0227-1.25538 3.01096-3.77268 5.25211-7.56026 6.06217l-.77721.16588-.47078-.64027c-1.87128-2.54444-5.42717-5.32437-9.741-7.64398zm20.56309 8.59017c3.67608-.01 5.9067 1.52945 5.54023 5.85132-4.71821.44623-6.83582-2.19635-8.30234-5.61206.98816-.15204 1.91374-.2365 2.76211-.23874zm6.37222 8.73539-.00053.00052c.48809.009.93996.1307 1.31827.37001-.19876.14506-.38114.29988-.54726.46612-.69053.68976-1.06472 1.59563-1.04748 2.46703.0241 1.22707.69376 2.2622 1.66915 2.96985-.41332 1.0666-.32296 2.29758.185 3.31969.50192 1.00936 1.38757 1.87859 2.54093 2.42156-.19021.44309-.31245.90363-.31574 1.36012-.008 1.10663.44474 2.11151 1.08882 2.94711.89405 1.15968 2.21964 2.09764 3.68918 2.35748-.024.28697-.0268.57036.0176.84336.13822.84823.59402 1.53476 1.10277 2.0376.44888.4436.94669.77558 1.42162 1.05213-.8352.63079-1.63437.92865-2.45101 1.02526-.85758-1.04476-1.27816-2.51202-1.23868-4.14031-1.5489.81308-3.18674.94205-4.4912.18965-1.93077-1.11361-2.55272-3.82196-1.73581-6.62492-1.49218.36462-2.9127.12108-3.84163-.80718-1.16823-1.16692-1.25556-3.11007-.40773-4.99557-.48387-.081-.91643-.28481-1.25367-.62166-1.15941-1.1581-.75991-3.4343.89194-5.08445 1.03239-1.03133 2.30977-1.57405 3.40548-1.55339z" fill="#c20a0a" filter="url(#d)" stroke-width="19.1567"/></g></g></svg>