<svg height="500" viewBox="0 0 132.29167 132.29167" width="500" xmlns="http://www.w3.org/2000/svg" xmlns:xlink="http://www.w3.org/1999/xlink"><radialGradient id="a" cx="4601.1221" cy="4277.6772" gradientTransform="matrix(0 1 -1 0 5224.5762 -3824.5764)" gradientUnits="userSpaceOnUse" r="11.2507" xlink:href="#b"/><linearGradient id="b"><stop offset="0" stop-color="#fff"/><stop offset=".1375" stop-color="#fff" stop-opacity=".8625"/><stop offset="1" stop-color="#fff" stop-opacity="0"/></linearGradient><radialGradient id="c" cx="4694.3481" cy="4395.814" gradientTransform="matrix(0 1 -1 0 5224.5762 -3824.5764)" gradientUnits="userSpaceOnUse" r="11.2507" xlink:href="#b"/><radialGradient id="d" cx="4845.7568" cy="4885.4878" gradientTransform="matrix(0 1 -1 0 5224.5762 -3824.5764)" gradientUnits="userSpaceOnUse" r="11.2507" xlink:href="#b"/><radialGradient id="e" cx="4264.2671" cy="4804.9849" gradientTransform="matrix(0 1 -1 0 5224.5762 -3824.5764)" gradientUnits="userSpaceOnUse" r="11.2507" xlink:href="#b"/><radialGradient id="f" cx="4253.0161" cy="4349.7529" gradientTransform="matrix(0 1 -1 0 5224.5762 -3824.5764)" gradientUnits="userSpaceOnUse" r="11.2507" xlink:href="#b"/><radialGradient id="g" cx="4291.9346" cy="4509.8506" gradientTransform="matrix(0 1 -1 0 5224.5762 -3824.5764)" gradientUnits="userSpaceOnUse" r="11.2507" xlink:href="#b"/><radialGradient id="h" cx="4178.7915" cy="4193.6758" gradientTransform="matrix(0 1 -1 0 5224.5762 -3824.5764)" gradientUnits="userSpaceOnUse" r="11.2507" xlink:href="#b"/><radialGradient id="i" cx="4508.9131" cy="4184.4229" gradientTransform="matrix(0 1 -1 0 5224.5762 -3824.5764)" gradientUnits="userSpaceOnUse" r="11.2507" xlink:href="#b"/><radialGradient id="j" cx="4169.5386" cy="4599.0166" gradientTransform="matrix(0 1 -1 0 5224.5762 -3824.5764)" gradientUnits="userSpaceOnUse" r="11.2507" xlink:href="#b"/><radialGradient id="k" cx="4381.2778" cy="4473.0386" gradientTransform="matrix(0 1 -1 0 5224.5762 -3824.5764)" gradientUnits="userSpaceOnUse" r="5.6228" xlink:href="#b"/><radialGradient id="l" cx="4756.5977" cy="4610.2671" gradientTransform="matrix(0 1 -1 0 5224.5762 -3824.5764)" gradientUnits="userSpaceOnUse" r="5.6228" xlink:href="#b"/><radialGradient id="m" cx="4815.3223" cy="4406.499" gradientTransform="matrix(0 1 -1 0 5224.5762 -3824.5764)" gradientUnits="userSpaceOnUse" r="5.6228" xlink:href="#b"/><radialGradient id="n" cx="4664.439" cy="4695.5273" gradientTransform="matrix(0 1 -1 0 5224.5762 -3824.5764)" gradientUnits="userSpaceOnUse" r="11.2507" xlink:href="#b"/><radialGradient id="o" cx="4894.2646" cy="4681.8555" gradientTransform="matrix(0 1 -1 0 5224.5762 -3824.5764)" gradientUnits="userSpaceOnUse" r="11.2507" xlink:href="#b"/><radialGradient id="p" cx="4757.5957" cy="4804.9849" gradientTransform="matrix(0 1 -1 0 5224.5762 -3824.5764)" gradientUnits="userSpaceOnUse" r="11.2507" xlink:href="#b"/><radialGradient id="q" cx="4371.5723" cy="4725.9341" gradientTransform="matrix(0 1 -1 0 5224.5762 -3824.5764)" gradientUnits="userSpaceOnUse" r="11.2507" xlink:href="#b"/><radialGradient id="r" cx="4510.9111" cy="4743.7231" gradientTransform="matrix(0 1 -1 0 5224.5762 -3824.5764)" gradientUnits="userSpaceOnUse" r="11.2507" xlink:href="#b"/><radialGradient id="s" cx="4269.4331" cy="4686.5615" gradientTransform="matrix(0 1 -1 0 5224.5762 -3824.5764)" gradientUnits="userSpaceOnUse" r="11.2507" xlink:href="#b"/><radialGradient id="t" cx="4072.584" cy="4883.4902" gradientTransform="matrix(0 1 -1 0 5224.5762 -3824.5764)" gradientUnits="userSpaceOnUse" r="11.2507" xlink:href="#b"/><radialGradient id="u" cx="4484.8335" cy="4664.189" gradientTransform="matrix(0 1 -1 0 5224.5762 -3824.5764)" gradientUnits="userSpaceOnUse" r="7.1455" xlink:href="#b"/><radialGradient id="v" cx="4613.2183" cy="4640.4971" gradientTransform="matrix(0 1 -1 0 5224.5762 -3824.5764)" gradientUnits="userSpaceOnUse" r="7.1455" xlink:href="#b"/><radialGradient id="w" cx="4666.4365" cy="4863.9521" gradientTransform="matrix(0 1 -1 0 5224.5762 -3824.5764)" gradientUnits="userSpaceOnUse" r="7.1455" xlink:href="#b"/><radialGradient id="x" cx="4589.1577" cy="4997.6572" gradientTransform="matrix(0 1 -1 0 5224.5762 -3824.5764)" gradientUnits="userSpaceOnUse" r="7.1455" xlink:href="#b"/><radialGradient id="y" cx="4347.4258" cy="4820.2441" gradientTransform="matrix(0 1 -1 0 5224.5762 -3824.5764)" gradientUnits="userSpaceOnUse" r="7.1455" xlink:href="#b"/><radialGradient id="z" cx="4533.5781" cy="4593.1694" gradientTransform="matrix(0 1 -1 0 5224.5762 -3824.5764)" gradientUnits="userSpaceOnUse" r="7.1455" xlink:href="#b"/><radialGradient id="A" cx="4448.2217" cy="4220.0913" gradientTransform="matrix(0 1 -1 0 5224.5762 -3824.5764)" gradientUnits="userSpaceOnUse" r="11.2507" xlink:href="#b"/><radialGradient id="B" cx="4012.8047" cy="4351.751" gradientTransform="matrix(0 1 -1 0 5224.5762 -3824.5764)" gradientUnits="userSpaceOnUse" r="11.2507" xlink:href="#b"/><radialGradient id="C" cx="4683.0972" cy="5027.3037" gradientTransform="matrix(0 1 -1 0 5224.5762 -3824.5764)" gradientUnits="userSpaceOnUse" r="11.2507" xlink:href="#b"/><radialGradient id="D" cx="4367.481" cy="4195.6733" gradientTransform="matrix(0 1 -1 0 5224.5762 -3824.5764)" gradientUnits="userSpaceOnUse" r="11.2507" xlink:href="#b"/><radialGradient id="E" cx="4261.9028" cy="4242.5928" gradientTransform="matrix(0 1 -1 0 5224.5762 -3824.5764)" gradientUnits="userSpaceOnUse" r="11.2507" xlink:href="#b"/><radialGradient id="F" cx="16633.223" cy="4517.6021" gradientTransform="matrix(0 .2895 -1 0 5224.5762 -4086.6375)" gradientUnits="userSpaceOnUse" r="19.241899" xlink:href="#b"/><radialGradient id="G" cx="-15595.086" cy="5031.6465" gradientTransform="matrix(.2895 0 0 1 5221.3418 -4303.4033)" gradientUnits="userSpaceOnUse" r="19.241899" xlink:href="#b"/><radialGradient id="H" cx="16323.169" cy="4900.5503" gradientTransform="matrix(0 .2895 -1 0 5224.5762 -4086.6375)" gradientUnits="userSpaceOnUse" r="29.7325" xlink:href="#b"/><radialGradient id="I" cx="-16917.998" cy="4941.8945" gradientTransform="matrix(.2895 0 0 1 5221.3418 -4303.4033)" gradientUnits="userSpaceOnUse" r="29.7325" xlink:href="#b"/><radialGradient id="J" cx="15154.966" cy="4975.0698" gradientTransform="matrix(0 .2895 -1 0 5180.8579 -4078.1558)" gradientUnits="userSpaceOnUse" r="29.7325" xlink:href="#b"/><radialGradient id="K" cx="-17175.43" cy="4603.7305" gradientTransform="matrix(.2895 0 0 1 5177.6235 -4294.9216)" gradientUnits="userSpaceOnUse" r="29.7325" xlink:href="#b"/><radialGradient id="L" cx="16788.486" cy="4380.1377" gradientTransform="matrix(0 .2895 -1 0 5224.5762 -4086.6375)" gradientUnits="userSpaceOnUse" r="29.7325" xlink:href="#b"/><radialGradient id="M" cx="-15120.208" cy="5076.5913" gradientTransform="matrix(.2895 0 0 1 5221.3418 -4303.4033)" gradientUnits="userSpaceOnUse" r="29.7325" xlink:href="#b"/><radialGradient id="N" cx="15052.254" cy="4385.373" gradientTransform="matrix(0 .2895 -1 0 5224.5762 -4086.6375)" gradientUnits="userSpaceOnUse" r="29.7325" xlink:href="#b"/><radialGradient id="O" cx="-15138.295" cy="4573.998" gradientTransform="matrix(.2895 0 0 1 5221.3418 -4303.4033)" gradientUnits="userSpaceOnUse" r="29.7325" xlink:href="#b"/><radialGradient id="P" cx="16060.047" cy="4376.7666" gradientTransform="matrix(0 .2895 -1 0 5224.5762 -4086.6375)" gradientUnits="userSpaceOnUse" r="29.7325" xlink:href="#b"/><radialGradient id="Q" cx="-15108.562" cy="4865.7275" gradientTransform="matrix(.2895 0 0 1 5221.3418 -4303.4033)" gradientUnits="userSpaceOnUse" r="29.7325" xlink:href="#b"/><radialGradient id="R" cx="17890.787" cy="4106.2778" gradientTransform="matrix(0 .2895 -1 0 5177.1761 -4146.1376)" gradientUnits="userSpaceOnUse" r="29.7325" xlink:href="#b"/><radialGradient id="S" cx="-14174.147" cy="5395.6787" gradientTransform="matrix(.2895 0 0 1 5173.9417 -4362.9034)" gradientUnits="userSpaceOnUse" r="29.7325" xlink:href="#b"/><radialGradient id="T" cx="15420.522" cy="4902.7319" gradientTransform="matrix(0 .2895 -1 0 5230.1762 -4067.4375)" gradientUnits="userSpaceOnUse" r="19.241899" xlink:href="#b"/><radialGradient id="U" cx="-16925.533" cy="4680.6021" gradientTransform="matrix(.2895 0 0 1 5226.9418 -4284.2033)" gradientUnits="userSpaceOnUse" r="19.241899" xlink:href="#b"/><radialGradient id="V" cx="17559.291" cy="4676.2856" gradientTransform="matrix(0 .2895 -1 0 5224.5762 -4086.6375)" gradientUnits="userSpaceOnUse" r="19.241899" xlink:href="#b"/><radialGradient id="W" cx="-16143.265" cy="5299.7192" gradientTransform="matrix(.2895 0 0 1 5221.3418 -4303.4033)" gradientUnits="userSpaceOnUse" r="19.241899" xlink:href="#b"/><radialGradient id="X" cx="16866.557" cy="4774.4922" gradientTransform="matrix(0 .2895 -1 0 5224.5762 -4086.6375)" gradientUnits="userSpaceOnUse" r="19.241899" xlink:href="#b"/><radialGradient id="Y" cx="-16482.523" cy="5099.1909" gradientTransform="matrix(.2895 0 0 1 5221.3418 -4303.4033)" gradientUnits="userSpaceOnUse" r="19.241899" xlink:href="#b"/><radialGradient id="Z" cx="16071.692" cy="4574.7783" gradientTransform="matrix(0 .2895 -1 0 5224.5762 -4086.6375)" gradientUnits="userSpaceOnUse" r="19.241899" xlink:href="#b"/><radialGradient id="aa" cx="-15792.604" cy="4869.0986" gradientTransform="matrix(.2895 0 0 1 5221.3418 -4303.4033)" gradientUnits="userSpaceOnUse" r="19.241899" xlink:href="#b"/><radialGradient id="ab" cx="16699.693" cy="4871.0977" gradientTransform="matrix(0 .2895 -1 0 5224.5762 -4086.6375)" gradientUnits="userSpaceOnUse" r="19.241899" xlink:href="#b"/><radialGradient id="ac" cx="-16816.252" cy="5050.8887" gradientTransform="matrix(.2895 0 0 1 5221.3418 -4303.4033)" gradientUnits="userSpaceOnUse" r="19.241899" xlink:href="#b"/><radialGradient id="ad" cx="18061.07" cy="4512.0322" gradientTransform="matrix(0 .2895 -1 0 5224.5762 -4086.5375)" gradientUnits="userSpaceOnUse" r="19.241899" xlink:href="#b"/><radialGradient id="ae" cx="-15575.844" cy="5444.9717" gradientTransform="matrix(.2895 0 0 1 5221.3418 -4303.3033)" gradientUnits="userSpaceOnUse" r="19.241899" xlink:href="#b"/><radialGradient id="af" cx="17188.609" cy="4244.9609" gradientTransform="matrix(0 .2895 -1 0 5224.5762 -4086.6375)" gradientUnits="userSpaceOnUse" r="19.241899" xlink:href="#b"/><radialGradient id="ag" cx="-14653.234" cy="5192.417" gradientTransform="matrix(.2895 0 0 1 5221.3418 -4303.4033)" gradientUnits="userSpaceOnUse" r="19.241899" xlink:href="#b"/><radialGradient id="ah" cx="15143.32" cy="4682.5854" gradientTransform="matrix(0 .2895 -1 0 5224.5762 -4086.6375)" gradientUnits="userSpaceOnUse" r="19.241899" xlink:href="#b"/><radialGradient id="ai" cx="-16165.027" cy="4600.3594" gradientTransform="matrix(.2895 0 0 1 5221.3418 -4303.4033)" gradientUnits="userSpaceOnUse" r="19.241899" xlink:href="#b"/><radialGradient id="aj" cx="17652.088" cy="4368.1597" gradientTransform="matrix(0 .2895 -1 0 5224.5762 -4086.6375)" gradientUnits="userSpaceOnUse" r="19.241899" xlink:href="#b"/><radialGradient id="ak" cx="-15078.83" cy="5326.5815" gradientTransform="matrix(.2895 0 0 1 5221.3418 -4303.4033)" gradientUnits="userSpaceOnUse" r="19.241899" xlink:href="#b"/><radialGradient id="al" cx="14469.968" cy="4512.0322" gradientTransform="matrix(0 .2895 -1 0 5486.6138 -4162.1944)" gradientUnits="userSpaceOnUse" r="19.241899" xlink:href="#b"/><radialGradient id="am" cx="-15575.844" cy="4405.4414" gradientTransform="matrix(.2895 0 0 1 5483.3794 -4378.9602)" gradientUnits="userSpaceOnUse" r="19.241899" xlink:href="#b"/><radialGradient id="an" cx="16783.117" cy="4155.2524" gradientTransform="matrix(0 .2895 -1 0 5224.5762 -4086.6375)" gradientUnits="userSpaceOnUse" r="19.241899" xlink:href="#b"/><radialGradient id="ao" cx="-14343.332" cy="5075.0371" gradientTransform="matrix(.2895 0 0 1 5221.3418 -4303.4033)" gradientUnits="userSpaceOnUse" r="19.241899" xlink:href="#b"/><radialGradient id="ap" cx="15184.698" cy="4089.8687" gradientTransform="matrix(0 .2895 -1 0 4136.2755 -3426.2822)" gradientUnits="userSpaceOnUse" r="19.241899" xlink:href="#b"/><radialGradient id="aq" cx="-14117.461" cy="4612.3369" gradientTransform="matrix(.2895 0 0 1 4133.0411 -3643.048)" gradientUnits="userSpaceOnUse" r="19.241899" xlink:href="#b"/><radialGradient id="ar" cx="4333.5586" cy="5224.1846" gradientTransform="matrix(0 -1 1 0 -5135.66355 5025.32025)" gradientUnits="userSpaceOnUse" r="11.2507" xlink:href="#b"/><radialGradient id="as" cx="17436.146" cy="5226.5532" gradientTransform="matrix(0 -.2895 1 0 -5135.6636 5287.3813)" gradientUnits="userSpaceOnUse" r="19.241899" xlink:href="#b"/><radialGradient id="at" cx="-18044.189" cy="5264.0723" gradientTransform="matrix(-.2895 0 0 -1 -5132.4292 5504.147)" gradientUnits="userSpaceOnUse" r="19.241899" xlink:href="#b"/><radialGradient id="au" cx="4358.6768" cy="4918.6069" gradientTransform="matrix(0 1 -1 0 5224.5762 -3824.5764)" gradientUnits="userSpaceOnUse" r="11.2507" xlink:href="#b"/><linearGradient id="av" gradientTransform="matrix(3.7795274 0 0 3.7795274 -774.51887 341.50647)" gradientUnits="userSpaceOnUse" spreadMethod="reflect" x1="61.136814" x2="57.887569" xlink:href="#aw" y1="-26.282179" y2="-28.448343"/><linearGradient id="aw" gradientTransform="matrix(391.593 0 0 -391.593 60.7962 7618.49)" gradientUnits="userSpaceOnUse" spreadMethod="pad" x1="0" x2="1" y1="0" y2="0"><stop offset="0" stop-color="#e3e1db"/><stop offset=".51123601" stop-color="#c1c0be"/><stop offset="1" stop-color="#a2a19a"/></linearGradient><linearGradient id="ax" gradientTransform="matrix(.15774942 -.17457515 -.1745727 -.15775215 -250.12173 232.73922)" gradientUnits="userSpaceOnUse" x1="-757.88989" x2="-700.99548" y1="868.06555" y2="804.99066"><stop offset="0" stop-color="#e3e1db" stop-opacity="0"/><stop offset=".40000001" stop-color="#7f7e75" stop-opacity=".25"/><stop offset=".5" stop-color="#7f7e75" stop-opacity=".75"/><stop offset=".60000002" stop-color="#7f7e75" stop-opacity=".35"/><stop offset="1" stop-color="#7f7e75" stop-opacity=".25"/></linearGradient><filter id="ay" color-interpolation-filters="sRGB" height="1.073226" width="1.223965" x="-.111983" y="-.036613"><feGaussianBlur stdDeviation="1.600965"/></filter><linearGradient id="az"><stop offset="0" stop-color="#decd87"/><stop offset="1" stop-color="#cbba76"/></linearGradient><filter id="aA" color-interpolation-filters="sRGB" height="1.00887" width="1.049936" x="-.024968" y="-.004435"><feGaussianBlur stdDeviation=".11070944"/></filter><linearGradient id="aB" gradientTransform="matrix(3.7795274 0 0 3.7795274 -774.51887 341.50647)" gradientUnits="userSpaceOnUse" spreadMethod="reflect" x1="91.40976" x2="88.35791" xlink:href="#aw" y1="27.869064" y2="25.534967"/><linearGradient id="aC" gradientUnits="userSpaceOnUse" spreadMethod="reflect" x1="-489.28223" x2="-490.73151" xlink:href="#az" y1="426.53339" y2="428.48059"/><filter id="aD" color-interpolation-filters="sRGB" height="1.011315" width="1.043394" x="-.021697" y="-.005658"><feGaussianBlur stdDeviation=".16524148"/></filter><linearGradient id="aE" gradientUnits="userSpaceOnUse" spreadMethod="reflect" x1="-489.28223" x2="-491.7316" xlink:href="#az" y1="426.53339" y2="424.7103"/><clipPath id="aF"><path d="m-521.24447 480.02432v-56.761l-8.19767 15.75111.002 7.68753 4.46989-2.13049-4.4677 6.60284.004 12.79087 1.68876-.6841-1.68718 4.36788.006 4.43182z"/></clipPath><clipPath id="aG"><path d="m-506.23294 480.44485 12.20812-8.85232-.003-5.13333-4.95622-9.03841 4.95404 2.72578-.007-3.4965-3.56739-15.4257 2.13705 1.83099-1.76552-7.9392 3.19156 2.11052-.003-9.24916-12.18358-9.06802z"/></clipPath><linearGradient id="aH" gradientUnits="userSpaceOnUse" x1="-435.57428" x2="-445.24277" y1="331.33728" y2="331.29956"><stop offset="0" stop-color="#7f7e75" stop-opacity=".5"/><stop offset=".39691779" stop-color="#7f7e75" stop-opacity="0"/><stop offset=".5" stop-color="#7f7e75" stop-opacity="0"/><stop offset=".60308218" stop-color="#7f7e75" stop-opacity="0"/><stop offset="1" stop-color="#7f7e75" stop-opacity=".5"/></linearGradient><filter id="aI" color-interpolation-filters="sRGB" height="1.022532" width="1.025672" x="-.012836" y="-.011266"><feGaussianBlur stdDeviation=".099297558"/></filter><g transform="translate(-.888165 .581988)"><use xlink:href="#aJ"/><g stroke-width="2.23273" transform="matrix(-.33244282 .300133 -.300133 -.33244282 -12.632364 321.63997)"><g transform="translate(0 -3.00343)"><path d="m-534.18708 474.76109 12.95081 10.43362 5.30935.034v-70.09524h-5.30935l-4.23248 5.93096-8.73633 16.78516z" fill="#7e7a61" transform="translate(.000008)"/><g clip-path="url(#aF)"><path d="m-534.18708 474.76109 12.95081 10.43362 5.30935.034v-70.09524h-5.30935l-4.23248 5.93096-8.73633 16.78516z" fill="url(#aE)" filter="url(#aD)"/><path d="m23.364313 4.4802357-.040824.002067c-.545624.9469253-.596703 1.9555781-.629936 2.9114503-.024453.7057503-.040445 1.3886369-.234611 2.0283-.194276.63993-.561873 1.239439-1.30638 1.801957-.640608.490547-1.046389 1.018829-1.306897 1.563729l.251664.278536c.248398-.575863.668864-1.143092 1.395264-1.700671.693243-.54776 1.093138-1.141051 1.30638-1.8417484.212709-.7009206.228108-1.4149206.252698-2.1187338.031686-.913901.053534-1.8083732.53175-2.6820069zm-.497644.0279052-.393774.0222209c-.387029.8487743-.430528 1.7352987-.45992 2.5807211-.024453.7057503-.040446 1.388637-.234611 2.0283-.194276.6399301-.561873 1.2394391-1.306381 1.8019571-.523646.400983-.890359.827225-1.149283 1.267106l.242879.268718c.258285-.470886.649152-.93576 1.246435-1.39423.693244-.54776 1.093139-1.1410503 1.306381-1.8417485.212708-.7009206.228107-1.4149206.252697-2.1187338.030869-.8903285.052356-1.7621599.495577-2.6143108zm-.831473.0470256-.375688.0211873c-.26509.7471661-.301493 1.5151666-.327112 2.252059-.024453.7057503-.040445 1.388637-.234611 2.0283-.194276.6399301-.561873 1.2394392-1.30638 1.8019572-.413908.31695-.730338.649422-.972551.992188l.237195.261999c.251491-.374705.597622-.745865 1.075387-1.112594.693243-.547759 1.092621-1.1410494 1.305863-1.8417476.212709-.7009206.228625-1.4149206.253215-2.1187338.026898-.7757949.046904-1.5376626.344682-2.2846151zm-.7922.0444417-.364836.0206706c-.173644.6429561-.204444 1.295581-.226343 1.9254639-.024453.7057503-.040445 1.388637-.234611 2.0283-.194275.6399301-.562389 1.2394391-1.306897 1.8019573-.310487.237756-.565647.484338-.77618.737423l.232028.256832c.228392-.286525.517581-.570864.8847-.852662.693243-.5477595 1.092622-1.1410495 1.305864-1.8417477.212708-.7009206.228624-1.4149206.253214-2.1187338.022986-.6629673.042619-1.3154951.233061-1.9575033zm-.763778.0428915-.359151.0201538c-.107304.5368071-.130612 1.0764707-.148828 1.6004191-.024453.7057503-.040445 1.388637-.234611 2.0283-.194276.6399301-.56239 1.2394391-1.306897 1.8019574-.212992.163099-.399318.330593-.56379.501261l.226859.251665c.189704-.204946.413155-.408837.676962-.611333.693243-.5477595 1.093138-1.1410496 1.30638-1.8417478.212709-.7009206.228108-1.4149206.252698-2.1187338.019109-.5511642.036325-1.0951924.150378-1.6319417zm-.73949.0418579-.3545.019637c-.06133.4292558-.080014.8577809-.094568 1.2764079-.024453.7057503-.040445 1.388637-.234611 2.0283001-.194276.63993-.56239 1.2394396-1.306897 1.8019572-.120793.0924977-.232193.1865961-.33693.2816362l.222725.247014c.136585-.129425.286912-.258621.454236-.3870568.693243-.54776 1.093138-1.1410499 1.30638-1.8417481.212709-.7009206.228108-1.4149206.252698-2.1187338.015269-.4403775.028742-.8761935.091467-1.3074137zm-.718819.0403076-.355017.0201538c-.031456.3207039-.044915.6395214-.055811.9529134-.024452.7057503-.040961 1.388637-.235127 2.0283001-.194276.63993-.561873 1.2394396-1.306381 1.8019572-.03313.0253695-.064744.0509126-.096634.0764811l.218074.2418457c.069947-.0589795.142025-.1179615.218591-.1767334.693244-.54776 1.093139-1.1410499 1.306381-1.8417481.212708-.7009206.228107-1.4149205.252697-2.1187337.011472-.3308738.022305-.6587067.053227-.9844361zm-.704866.0397908-.357085.0201539c-.013799.2118668-.022739.4224058-.029972.6304524-.024453.7057503-.040445 1.388637-.234611 2.0283001-.180602.5948892-.511227 1.1547985-1.154968 1.6825846l.216007.2387452c.676068-.5415876 1.068632-1.1282985 1.278992-1.8195273.212709-.7009206.228108-1.4149205.252698-2.1187337.007694-.2219237.01578-.4423545.028939-.6619752zm5.547465.2682007c-.414213.8677684-.458741 1.7774629-.488859 2.6437664-.024453.7057503-.040962 1.3886369-.235128 2.0283-.194276.6399299-.561873 1.2394389-1.30638 1.8019569-.765347.586066-1.196028 1.225838-1.443323 1.883606l.263033.291455c.222589-.690564.654362-1.368764 1.520321-2.033467.693243-.54776 1.093138-1.14105 1.30638-1.8417483.212709-.7009206.228108-1.4149206.252698-2.1187338.028003-.8076882.048571-1.6002173.382922-2.3765992zm.544669.603064c-.28883.7695257-.326514 1.5630059-.35295 2.3233725-.024453.7057503-.040962 1.3886369-.235127 2.0283-.194276.6399298-.561873 1.2394388-1.306381 1.8019568-.899265.688614-1.33511 1.451463-1.55546 2.230355l.277502.307992c.183186-.816413.600647-1.615849 1.617989-2.396753.693244-.54776 1.093139-1.14105 1.30638-1.841748.212709-.7009204.228108-1.4149208.252698-2.118734.024017-.6927104.043326-1.3740045.258899-2.043803zm.568441.6289022c-.186325.6596068-.218327 1.3303913-.240812 1.9771404-.024453.7057503-.040445 1.3886371-.234611 2.0282997-.194276.639931-.56239 1.239439-1.306897 1.801958-1.041744.797716-1.463941 1.694962-1.646411 2.601391l.296106.327629c.135819-.952565.511162-1.882302 1.690336-2.787427.693243-.54776 1.093138-1.14105 1.30638-1.841748.212709-.7009203.228108-1.4149207.252698-2.1187339.019686-.5677876.037506-1.1280388.16123-1.6805176zm.590145.6526734c-.108466.5390395-.132086 1.0809846-.150378 1.6071371-.024453.7057503-.040446 1.3886371-.234611 2.0282996-.194276.639931-.56239 1.239439-1.306897 1.801958-1.194626.914785-1.57325 1.960657-1.711007 3.00085l.315226.349333c.088858-1.099953.384125-2.170649 1.736328-3.20859.693244-.547759 1.092622-1.14105 1.305864-1.841748.212709-.7009202.228624-1.4149206.253214-2.1187338.015067-.4345608.027761-.8647145.088367-1.2903606zm.615983.6816121c-.053805.4063695-.072002.811813-.085783 1.208195-.024453.7057503-.040445 1.3881206-.234611 2.0277836-.194276.63993-.561873 1.239955-1.30638 1.802474-1.355875 1.038263-1.663214 2.245536-1.756999 3.421496l.334347.370004c.055253-1.255428.230254-2.473626 1.762683-3.649907.693243-.547759 1.092622-1.14105 1.305863-1.841748.212709-.70092.228625-1.4149205.253215-2.1187337.010126-.2920606.020155-.5821719.043408-.8702312zm.63562.7033163c-.021109.2648335-.031807.5281995-.040824.7875488-.024453.7057503-.040445 1.3881205-.234611 2.0277835-.194276.63993-.561873 1.239955-1.30638 1.802474-1.527518 1.169698-1.722444 2.552637-1.782321 3.86488l.341582.378272c.000262-.007558.000769-.015182.001033-.022738.0488-1.40747.073212-2.768906 1.779736-4.078821.693244-.547759 1.093139-1.14105 1.306381-1.841748.212709-.70092.228108-1.4149204.252698-2.1187336.004978-.1435865.010776-.2862886.017053-.4289144zm.677995.7503418c-.004945.1101452-.010682.2207522-.014469.3296957-.024453.7057508-.040446 1.3881208-.234611 2.0277828-.194276.639931-.561873 1.239439-1.306381 1.801958-1.661411 1.272227-1.748246 2.798439-1.797306 4.209562-.001414.040811-.003257.080787-.004651.12144l.344165.381372c.007307-.16404.012383-.328195.018087-.491443.0488-1.407471.073212-2.768906 1.779736-4.078821.693244-.54776 1.092622-1.14105 1.305864-1.841748.208917-.688427.227763-1.389399.251664-2.0810102zm.661458.7322551c-.022728.6628624-.04689 1.3047854-.22996 1.9078944-.194276.63993-.561873 1.239438-1.30638 1.801957-1.661411 1.272227-1.748246 2.798439-1.797306 4.209562-.006682.192844-.012985.38411-.022221.573092l.334346.37052c.02485-.311379.034664-.622787.045476-.932243.048799-1.407471.073212-2.768906 1.779736-4.078821.693243-.54776 1.093138-1.14105 1.30638-1.841748.163531-.538867.209921-1.08565.234094-1.629358zm.663009.7338054c-.024544.503179-.071135.991405-.21239 1.456759-.194276.63993-.561873 1.239438-1.30638 1.801957-1.661412 1.272228-1.748247 2.79844-1.797307 4.209562-.011904.343589-.022224.681497-.051676 1.011825l.31936.353466c.061923-.451334.074742-.904786.090434-1.353922.0488-1.407471.072695-2.768906 1.77922-4.078821.693243-.547759 1.093138-1.14105 1.30638-1.841748.119389-.393414.175588-.791066.207222-1.188558zm.65164.721403c-.031021.348879-.083624.689152-.183452 1.018026-.194275.63993-.561872 1.239438-1.30638 1.801957-1.661411 1.272228-1.748246 2.79844-1.797306 4.209562-.016945.489056-.031369.966554-.102319 1.426787l.300756.333313c.123604-.581127.139404-1.16837.159681-1.748731.0488-1.407471.072695-2.768906 1.779219-4.078821.693243-.547759 1.093139-1.141566 1.30638-1.842265.077173-.2543.12766-.510275.162781-.766878zm.630452.697115c-.031474.204835-.07345.406329-.133325.603581-.194276.63993-.561873 1.239439-1.30638 1.801957-1.661411 1.272228-1.748247 2.79844-1.797306 4.209562-.021757.627914-.037947 1.237553-.177767 1.814877l.283186.313159c.212117-.700262.228132-1.41354.252698-2.116667.0488-1.40747.072696-2.768906 1.77922-4.078821.693243-.547759 1.093138-1.141566 1.30638-1.842265.037649-.124061.067094-.248361.093534-.373103zm.605648.670243c-.017501.072474-.036195.144577-.057877.216008-.194276.63993-.56239 1.239439-1.306897 1.801957-1.661412 1.272228-1.748247 2.79844-1.797307 4.209562-.024453.705751-.040445 1.388638-.234611 2.0283-.014409.047464-.031658.094056-.048059.141077l.267167.296106c.045386-.109254.086007-.220647.120923-.33538.212708-.70092.228108-1.41492.252698-2.118734.0488-1.40747.072695-2.768906 1.779219-4.078821.693244-.547759 1.093139-1.141566 1.306381-1.842265.000464-.00153.00057-.003119.001033-.00465zm.575159.636654c-.204506.588164-.568778 1.14221-1.259355 1.663981-1.661411 1.272228-1.748246 2.79844-1.797306 4.209562-.024453.705751-.040445 1.388638-.234611 2.0283-.048042.158247-.10698.313789-.179317.467155l.252181.279053c.11062-.2051.198629-.419195.267167-.644405.212707-.70092.228107-1.41492.252697-2.118734.0488-1.40747.073213-2.768906 1.779737-4.078821.580891-.458985.954803-.950614 1.186491-1.509985zm.550354.609265c-.220109.4678-.567122.913147-1.128613 1.337386-1.661412 1.272228-1.748247 2.79844-1.797307 4.209563-.024453.70575-.040962 1.388637-.235128 2.0283-.079178.260807-.187893.514572-.33848.762227l.240295.265617c.194796-.289254.337633-.595533.438216-.926042.212708-.70092.228108-1.41492.252698-2.118734.0488-1.40747.073212-2.768906 1.779736-4.078821.471538-.37258.806623-.76672 1.040247-1.20096zm.521932.577226c-.218999.361158-.527513.708531-.969967 1.04283-1.661411 1.272228-1.748246 2.79844-1.797306 4.209563-.024453.70575-.040445 1.388121-.234611 2.027783-.108116.356124-.270773.699681-.521415 1.031462l.230993.255798c.296973-.364044.498828-.754129.629936-1.184941.212708-.70092.228108-1.41492.252698-2.118734.0488-1.40747.073212-2.768906 1.779736-4.07882.367522-.290394.651752-.594067.870231-.919324zm.498677.551904c-.20007.265485-.456519.523094-.788065.773596-1.661412 1.272228-1.748247 2.79844-1.797307 4.209563-.024453.70575-.040445 1.388121-.234611 2.027783-.134983.444625-.354284.869987-.72502 1.276925l.223759.248047c.415458-.431141.680715-.896705.840776-1.422653.212707-.70092.228624-1.41492.253214-2.118733.0488-1.407471.072695-2.768907 1.77922-4.078821.268347-.212033.491916-.431124.678511-.660425zm.476974.527617c-.163387.179693-.35599.356027-.584461.52865-1.661411 1.272227-1.748246 2.798439-1.797306 4.209562-.024453.70575-.040445 1.388121-.234611 2.027783-.160012.527068-.438666 1.02675-.947746 1.5012l.218592.24288c.548992-.492287.881097-1.025414 1.068668-1.641761.212708-.70092.228625-1.41492.253215-2.118733.0488-1.407471.072695-2.768907 1.779219-4.078821.174063-.137534.329441-.278441.468189-.422713zm.45837.507462c-.109755.102446-.22979.203775-.362252.303858-1.661411 1.272227-1.748246 2.798439-1.797306 4.209562-.024453.70575-.040446 1.388121-.234611 2.027783-.183485.604385-.522088 1.172806-1.186491 1.708423l.208773.230994.011368.004651c.693244-.547761 1.092622-1.14105 1.305864-1.841748.212708-.700921.228624-1.414921.253214-2.118734.0488-1.407471.072696-2.768906 1.77922-4.078821.084761-.066973.165148-.134636.241329-.203089zm.44235.489376c-.040209.032463-.08138.064933-.124023.097152-1.661412 1.272227-1.748247 2.798439-1.797307 4.209562-.024453.70575-.040445 1.388121-.234611 2.027783-.194275.639931-.562167 1.239422-1.306897 1.802474l.340548.141594c.693243-.547761 1.093138-1.14105 1.30638-1.841748.212708-.700921.228108-1.414921.252698-2.118734.0488-1.407471.072695-2.768906 1.77922-4.078821zm.305925.584977c-1.418579 1.22915-1.500225 2.668336-1.546676 4.004407-.024453.70575-.040445 1.388121-.234611 2.027783-.194276.639931-.561651 1.239422-1.30638 1.802474l.340031.141594c.693243-.547761 1.093138-1.14105 1.30638-1.841748.212708-.700921.228108-1.414921.252698-2.118734.043517-1.255108.068317-2.47394 1.283125-3.651974zm.198954.764295c-.957002 1.114268-1.024028 2.35768-1.064535 3.522782-.024453.705751-.040962 1.388121-.235127 2.027783-.194276.639931-.561651 1.239422-1.306381 1.802474l.340031.141594c.693244-.547761 1.093139-1.141567 1.306381-1.842265.212707-.70092.228107-1.414404.252697-2.118217.037016-1.067606.060781-2.108969.814421-3.121257zm.236678.910538c-.536696.941977-.587594 1.944587-.620634 2.894914-.024453.705751-.040445 1.388121-.234611 2.027784-.194276.63993-.562168 1.239421-1.306897 1.802474l.340031.141593c.693243-.54776 1.093138-1.141567 1.30638-1.842265.212708-.70092.228108-1.414404.252698-2.118217.028309-.816488.049332-1.617438.394291-2.401921z" fill="url(#aB)" filter="url(#aI)" transform="matrix(-1.6572585 -1.4961911 1.4961911 -1.6572585 -502.16993 517.14358)"/></g><path d="m-510.99684 485.19471h7.55859l14.17773-10.22594-.004-5.81641.0137.008-.0254-12.10938-.42383-1.83594 1.98242 1.69922-2.30664-10.37304.74805.49414-.006-20.50196-21.70662-16.15645z" fill="#7e7a61" transform="translate(.000008)"/><g clip-path="url(#aG)"><path d="m-510.99684 485.19471h7.55859l14.17773-10.22594-.004-5.81641.0137.008-.0254-12.10938-.42383-1.83594 1.98242 1.69922-2.30664-10.37304.74805.49414-.006-20.50196-21.70662-16.15645z" fill="url(#aC)" filter="url(#aD)"/><path d="m-509.77519 474.37942c.45262.4092.94602.75299 1.48393 1.04747 1.43515.78423 2.98871 1.14401 4.51588 1.51837 2.45611.60139 4.85385 1.15632 6.78378 3.60006l.61852-.44577c-2.00012-2.59911-4.68699-3.31253-7.21491-3.93176-1.53146-.37495-3.01574-.72081-4.32545-1.43661-1.18546-.64795-2.23357-1.59287-3.08198-3.16173l-.00012 1.40511c.37072.53854.77608 1.00322 1.22035 1.40486zm.92884-1.35942c.45262.40921.94525.75385 1.48316 1.04833 1.43515.78423 2.98785 1.14324 4.51502 1.5176 2.59969.63654 5.13548 1.221 7.11876 4.04859l.61302-.44141c-2.02797-2.97309-4.87433-3.73005-7.54353-4.38388-1.53146-.37495-3.01574-.72081-4.32545-1.43661-1.31024-.71615-2.454-1.7933-3.34438-3.67687-.20852-.43385-.43097-.83042-.66485-1.19714l-.00058 1.4762c.06764.12954.13424.26316.20015.39987.55092 1.103 1.19431 1.96332 1.94868 2.64532zm.92721-1.35933c.45262.4092.94611.75462 1.48402 1.0491 1.43515.78423 2.98785 1.14324 4.51502 1.5176 2.73697.67016 5.40251 1.28229 7.42772 4.51561l.60589-.43696c-2.04081-3.36619-5.04068-4.16833-7.84536-4.85535-1.53146-.37495-3.0166-.72159-4.3263-1.43738-1.31024-.71616-2.45315-1.79253-3.34353-3.6761-.4687-.97516-1.0064-1.77017-1.59285-2.42823l-.00017 1.21232c.3984.54009.77643 1.16361 1.12851 1.89399.55093 1.10299 1.19268 1.9634 1.94705 2.6454zm.92807-1.35856c.45262.4092.94525.75384 1.48316 1.04833 1.43515.78423 2.98871 1.14401 4.51588 1.51837 2.8682.70229 5.65794 1.33843 7.71453 4.99683l.59808-.43002c-2.0396-3.77964-5.18962-4.6252-8.12521-5.34429-1.53147-.37494-3.01575-.72081-4.32545-1.4366-1.31024-.71616-2.45324-1.79416-3.34362-3.67773-.7063-1.46954-1.56807-2.53263-2.52024-3.32767l-.00093 1.03754c.74816.73621 1.44053 1.69254 2.0559 2.96906.55092 1.103 1.19353 1.96417 1.9479 2.64618zm.92722-1.35933c.45262.4092.9461.75461 1.48401 1.0491 1.43515.78423 2.98786 1.14323 4.51503 1.5176 2.99351.73297 5.90115 1.39708 7.97943 5.49714l.5925-.42729c-2.02502-4.21174-5.32165-5.09649-8.38369-5.84656-1.53146-.37495-3.0166-.72158-4.3263-1.43737-1.31024-.71616-2.45238-1.79339-3.34276-3.67696-.92933-1.93356-2.12775-3.16491-3.44773-4.00491l-.00084.92725c1.10778.8033 2.12052 1.96683 2.9833 3.75659.55092 1.103 1.19268 1.9634 1.94705 2.64541zm.92806-1.35856c.45263.4092.94525.75384 1.48316 1.04832 1.43515.78423 2.98872 1.14402 4.51588 1.51838 3.05418.74782 6.01918 1.42046 8.10495 5.74724l.46614-.67816c-2.02503-4.21174-5.32089-5.09735-8.38292-5.84742-1.53147-.37495-3.01652-.71995-4.32622-1.43574-1.31024-.71616-2.45238-1.79339-3.34276-3.67696-1.14316-2.37844-2.69275-3.69475-4.37623-4.52606l.00012.86593c1.47012.79657 2.81282 2.06131 3.91084 4.33906.55092 1.103 1.19268 1.9634 1.94704 2.64541zm.92807-1.35856c.45263.4092.94525.75384 1.48316 1.04832 1.43515.78423 2.98949 1.14316 4.51666 1.51752 3.05417.74782 6.0184 1.42131 8.10417 5.7481l.46613-.67816c-2.02502-4.21174-5.32088-5.09736-8.38291-5.84742-1.53147-.37494-3.01574-.72081-4.32545-1.4366-1.31024-.71616-2.454-1.79331-3.34438-3.67688-1.35048-2.80978-3.26787-4.13511-5.30371-4.93125l.00008.83325c1.8327.75542 3.513 2.0276 4.83835 4.77694.55092 1.10299 1.19354 1.96417 1.9479 2.64618zm.92799-1.36019c.45262.4092.9461.75461 1.48401 1.0491 1.43516.78422 2.98786 1.14324 4.51503 1.5176 3.01244.7376 5.93853 1.40528 8.01937 5.57515l-.00099-1.52269c-2.04048-3.34452-5.03262-4.1439-7.83013-4.82917-1.53147-.37495-3.0166-.72158-4.32631-1.43737-1.31023-.71616-2.45314-1.79254-3.34352-3.67611-1.55419-3.23362-3.8589-4.5044-6.2314-5.26047l.00036.82262c2.1905.71066 4.2197 1.90961 5.76576 5.11679.55092 1.10299 1.19345 1.96254 1.94782 2.64455zm.92807-1.35856c.45262.4092.94525.75384 1.48316 1.04832 1.43515.78423 2.98871 1.14401 4.51588 1.51837 2.587.63344 5.10986 1.21398 7.0888 4.00601l-.00079-.92717.01346.00749-.0009-.30549c-1.96378-2.29665-4.51053-2.96977-6.91318-3.55831-1.53146-.37495-3.01574-.72081-4.32545-1.43661-1.31023-.71615-2.45314-1.79253-3.34352-3.6761-1.75638-3.65429-4.47139-4.80386-7.15951-5.53412l.00036.82262c2.54102.68801 4.93241 1.73396 6.69464 5.38958.55092 1.103 1.19268 1.9634 1.94705 2.64541zm-8.64153-9.63126c2.88119.71059 5.64651 1.52915 7.62169 5.62652.88148 1.76479 1.99664 2.90921 3.43107 3.6945 1.43515.78423 2.98785 1.14324 4.51502 1.5176 2.20167.53909 4.35731 1.04053 6.17039 2.8986l-.0017-1.057c-1.80146-1.5592-3.94279-2.11917-5.98044-2.6183-1.53146-.37495-3.01574-.72081-4.32545-1.43661-1.31023-.71615-2.454-1.7933-3.34438-3.67687-1.9592-4.07628-5.1087-5.03433-8.08578-5.77192zm.00049-1.58975c.14817.03635.29651.07423.44433.11046 3.05417.74783 6.01917 1.42046 8.10494 5.74725.88148 1.76479 1.99664 2.90921 3.43107 3.6945 1.43515.78423 2.98785 1.14324 4.51502 1.5176 1.83561.44946 3.63913.87293 5.23884 2.0778l-.00231-.94098c-1.58407-1.04086-3.35206-1.49802-5.04828-1.91352-1.53146-.37495-3.0166-.72159-4.3263-1.43738-1.31024-.71616-2.45238-1.79339-3.34276-3.67696-2.02395-4.21101-5.32079-5.09572-8.38283-5.84578-.21276-.05209-.42155-.1052-.63216-.15724zm-.00053-1.59379c.45722.12094.91564.23303 1.37207.34492 3.05417.74782 6.01917 1.42046 8.10495 5.74724.88147 1.7648 1.99664 2.90922 3.43106 3.69451 1.43515.78423 2.98871 1.14401 4.51588 1.51837 1.48697.36409 2.95314.7105 4.30671 1.46942l-.00286-.87151c-1.32917-.67573-2.7454-1.04059-4.11568-1.37624-1.53147-.37495-3.01652-.71996-4.32622-1.43575-1.31024-.71616-2.45324-1.79416-3.34361-3.67773-2.02396-4.21101-5.31995-5.09495-8.38198-5.84501-.52751-.12915-1.04891-.25636-1.56007-.39495zm.00054-1.62079c.76096.23572 1.53354.41936 2.2996.60715 3.05417.74782 6.01917 1.42046 8.10495 5.74724.88147 1.7648 1.99663 2.90922 3.43106 3.69451 1.43515.78423 2.98863 1.14238 4.5158 1.51674 1.15159.28197 2.29032.55407 3.37424 1.01464l-.00179-.8348c-1.04858-.42067-2.12969-.69824-3.1842-.95654-1.53147-.37495-3.0166-.72159-4.32631-1.43738-1.31024-.71616-2.45315-1.79253-3.34353-3.6761-2.02395-4.21101-5.32079-5.09573-8.38283-5.84579-.85134-.20843-1.68623-.41123-2.48663-.6703zm.00064-1.68289c1.05516.40534 2.14684.66508 3.22695.92985 3.05417.74782 6.01925 1.42209 8.10503 5.74887.88147 1.7648 1.99741 2.90836 3.43183 3.69365 1.43515.78423 2.98786 1.14324 4.51503 1.5176.82654.20238 1.64532.40148 2.44316.66681l-.00215-.8258c-.75074-.24428-1.50894-.43607-2.25362-.61849-1.53146-.37495-3.01574-.72081-4.32545-1.4366-1.31024-.71616-2.45315-1.79253-3.34353-3.6761-2.02395-4.21101-5.32002-5.09658-8.38205-5.84665-1.18656-.2905-2.34475-.56558-3.41551-1.00681zm-.00002-1.75965c1.33279.65689 2.75498.98774 4.15504 1.33094 3.05417.74782 6.01917 1.42046 8.10494 5.74724.88148 1.7648 1.99664 2.90921 3.43106 3.69451 1.43516.78422 2.98872 1.14401 4.51589 1.51837.50784.12435 1.01208.24783 1.51137.38518l-.00198-.82254c-.44232-.12187-.88485-.23303-1.322-.34012-1.53146-.37495-3.01575-.72081-4.32545-1.4366-1.31024-.71616-2.454-1.79331-3.34438-3.67688-2.02396-4.21101-5.31917-5.0958-8.3812-5.84587-1.53147-.37494-3.01661-.72158-4.32631-1.43737-.00589-.00322-.01177-.00649-.01765-.00972zm.00001-1.88709c.18358.12081.37203.23424.56721.3411 1.43515.78422 2.98872 1.14401 4.51589 1.51837 3.05417.74782 6.01917 1.42046 8.10494 5.74724.88148 1.7648 1.99664 2.90921 3.43106 3.69451 1.43516.78422 2.98786 1.14324 4.51503 1.5176.16631.04072.3308.08244.49645.12332l-.20147-.87362c-.03534-.00868-.07145-.01777-.10673-.02641-1.53147-.37495-3.0166-.72158-4.3263-1.43737-1.31024-.71616-2.45315-1.79254-3.34353-3.67611-2.02396-4.21101-5.32003-5.09658-8.38206-5.84664-1.53147-.37495-3.01575-.72081-4.32545-1.4366-.32556-.17795-.64079-.37922-.9444-.60857zm.04402-2.11317c.45262.4092.94524.75384 1.48315 1.04833 1.43516.78423 2.98872 1.14401 4.51589 1.51837 3.05417.74783 6.01917 1.42046 8.10494 5.74724.88148 1.7648 1.99664 2.90922 3.43106 3.69451 1.43516.78423 2.98786 1.14324 4.51503 1.5176.27974.06849.55727.13804.83491.20815l-.19393-.86992c-.15084-.03774-.30284-.07822-.45273-.11494-1.53146-.37494-3.0166-.72158-4.3263-1.43737-1.31024-.71616-2.45238-1.79339-3.34276-3.67696-2.02395-4.21101-5.3208-5.09572-8.38283-5.84579-1.53147-.37494-3.01575-.72081-4.32545-1.4366-.68487-.37434-1.32351-.8498-1.90494-1.48508l.0002 1.0914c.01466.01347.02901.02773.04376.04106zm.92721-1.35933c.45262.4092.9461.75461 1.48401 1.0491 1.43515.78423 2.98786 1.14324 4.51503 1.5176 3.05417.74782 6.02003 1.42123 8.1058 5.74801.88148 1.7648 1.99578 2.90844 3.43021 3.69374 1.28903.70438 2.67331 1.06498 4.04841 1.40255l-.19324-.8724c-1.22823-.30759-2.41173-.64347-3.47734-1.22586-1.31024-.71616-2.45238-1.79339-3.34276-3.67696-2.02395-4.21101-5.3208-5.09572-8.38283-5.84579-1.53147-.37495-3.0166-.72158-4.32631-1.43737-1.07149-.58567-2.03013-1.41355-2.8318-2.72602l-.00006 1.31034c.30166.39567.62375.74922.97088 1.06306zm.92807-1.35856c.45262.4092.9461.75461 1.48401 1.0491 1.43515.78422 2.98786 1.14324 4.51503 1.5176 3.05417.74782 6.01917 1.42046 8.10495 5.74724.88147 1.76479 1.99663 2.90921 3.43106 3.69451.8811.48147 1.80699.80269 2.74373 1.06563l-.19741-.89016c-.75795-.22838-1.48642-.49969-2.16772-.87204-1.31024-.71615-2.45401-1.7933-3.34439-3.67688-2.02395-4.211-5.32079-5.09572-8.38283-5.84578-1.53146-.37495-3.01574-.72081-4.32545-1.4366-1.31023-.71616-2.45216-1.79344-3.34361-3.67774l-.41577.60861-.0006.16423c.54021 1.05782 1.1663 1.88986 1.899 2.55228zm20.32108 17.10097 1.05337.90282-.14521-.65184c-.30295-.09041-.6055-.17208-.90816-.25098zm-19.39301-18.45953c.45262.4092.94525.75384 1.48316 1.04832 1.43515.78423 2.98871 1.14402 4.51588 1.51838 3.05417.74782 6.01917 1.42046 8.10495 5.74724.88147 1.76479 1.99741 2.90836 3.43183 3.69365.46167.25228.93586.45692 1.41716.63589l-.20875-.93615c-.28332-.1195-.56183-.24887-.83144-.39622-1.31024-.71616-2.45315-1.79253-3.34353-3.67611-2.02395-4.21101-5.32002-5.09657-8.38205-5.84664-1.53147-.37495-3.01575-.72081-4.32545-1.4366-1.31024-.71616-2.4538-1.79335-3.34524-3.67765l-.46443.67971c.55093 1.10299 1.19354 1.96417 1.94791 2.64618zm.92721-1.35934c.45262.40921.94688.75376 1.48479 1.04825 1.43515.78422 2.98786 1.14324 4.51503 1.5176 3.05417.74782 6.01917 1.42046 8.10494 5.74724.88148 1.76479 1.99664 2.90921 3.43106 3.69451.01748.00955.03536.01809.05288.02752l-.23635-1.06054c-1.0763-.70973-2.02234-1.73023-2.78308-3.33957-2.02396-4.21101-5.31917-5.09581-8.3812-5.84587-1.53147-.37495-3.01661-.72158-4.32631-1.43737-1.31024-.71616-2.45294-1.79258-3.34438-3.67688l-.46443.67971c.55093 1.10299 1.19268 1.9634 1.94705 2.6454zm.92885-1.35941c.45262.4092.94524.75384 1.48315 1.04832 1.43515.78423 2.98872 1.14402 4.51589 1.51838 3.05417.74782 6.01917 1.42046 8.10494 5.74724.77577 1.55316 1.73279 2.62486 2.92888 3.39502l-.00074-.95821c-.94434-.69717-1.77911-1.66679-2.46363-3.11489-2.02396-4.21101-5.32003-5.09658-8.38206-5.84664-1.53147-.37495-3.01575-.72081-4.32545-1.4366-1.31024-.71616-2.4538-1.79336-3.34524-3.67765l-.46357.68048c.55093 1.10299 1.19346 1.96254 1.94783 2.64455zm.92806-1.35857c.45263.40921.94525.75385 1.48316 1.04833 1.43515.78423 2.98786 1.14324 4.51503 1.5176 3.05417.74783 6.02003 1.42124 8.1058 5.74802.56365 1.12848 1.22295 2.00235 2.00006 2.69171l-.0009-1.07339c-.56878-.59778-1.08338-1.34423-1.53388-2.29726-2.02396-4.21101-5.3208-5.09572-8.38283-5.84578-1.53147-.37495-3.01575-.72081-4.32545-1.43661-1.31024-.71615-2.4538-1.79335-3.34524-3.67765l-.46365.67886c.55092 1.10299 1.19354 1.96417 1.9479 2.64617zm.92722-1.35933c.45262.4092.9461.75462 1.48401 1.0491 1.43515.78423 2.98786 1.14324 4.51503 1.5176 3.05417.74783 6.01917 1.42046 8.10494 5.74724.32397.64862.68026 1.21344 1.0716 1.70737l-.00024-1.28419c-.21297-.33372-.41543-.6988-.60608-1.10211-2.02395-4.21101-5.31994-5.09495-8.38197-5.84501-1.53147-.37495-3.01661-.72159-4.32631-1.43738-1.31024-.71615-2.45294-1.79258-3.34438-3.67688l-.46365.67886c.55092 1.10299 1.19268 1.9634 1.94705 2.6454zm.92807-1.35856c.45262.4092.94525.75384 1.48315 1.04833 1.43516.78423 2.98872 1.14401 4.51589 1.51837 3.05417.74783 6.01917 1.42046 8.10494 5.74724.0467.0935.09503.18367.14306.27372l-.00108-1.57252c-2.04021-3.67884-5.15469-4.51436-8.05953-5.22592-1.53147-.37494-3.01575-.72081-4.32545-1.4366-1.31024-.71616-2.45302-1.79421-3.34447-3.67851l-.46442.67971c.55092 1.103 1.19354 1.96417 1.94791 2.64618zm.92721-1.35933c.45262.4092.94611.75461 1.48401 1.0491 1.43516.78423 2.98786 1.14324 4.51503 1.5176 2.68858.65831 5.30794 1.26046 7.3194 4.34631l-.00029-1.30133c-1.99041-2.51103-4.63737-3.21194-7.13009-3.82254-1.53146-.37495-3.0166-.72159-4.3263-1.43738-1.31024-.71616-2.45294-1.79258-3.34439-3.67688l-.46442.67971c.55092 1.103 1.19268 1.9634 1.94705 2.64541zm.92807-1.35856c.45262.4092.9461.75461 1.48401 1.0491 1.43515.78423 2.98863 1.14238 4.5158 1.51674 2.29157.5611 4.53311 1.07984 6.39061 3.13162l-.00019-1.0914c-1.8457-1.71185-4.0808-2.29785-6.20302-2.8177-1.53147-.37495-3.01575-.72081-4.32545-1.4366-1.31024-.71616-2.45294-1.79258-3.34439-3.67688l-.46442.67971c.55092 1.103 1.19268 1.9634 1.94705 2.64541zm.92884-1.35942c.45262.4092.94525.75384 1.48316 1.04833 1.43515.78422 2.98871 1.14401 4.51588 1.51837 1.9216.47051 3.80667.91197 5.46095 2.25189l-.00005-.96069c-1.64064-1.1505-3.49604-1.63328-5.2735-2.06868-1.53147-.37495-3.01575-.72081-4.32545-1.4366-1.31024-.71616-2.4538-1.79335-3.34524-3.67765l-.46443.67971c.55093 1.10299 1.19431 1.96331 1.94868 2.64532zm.92722-1.35933c.45262.4092.9461.75461 1.48401 1.0491 1.43515.78422 2.98786 1.14324 4.51503 1.5176 1.57071.38459 3.11797.75103 4.5341 1.60321l-.00111-.88548c-1.39455-.75388-2.89539-1.13941-4.34474-1.49444-1.53147-.37495-3.01661-.72158-4.32631-1.43737-1.31024-.71616-2.45294-1.79258-3.34438-3.67688l-.46365.67885c.55092 1.103 1.19268 1.9634 1.94705 2.64541zm.92807-1.35856c.45262.4092.94524.75384 1.48315 1.04832 1.43515.78423 2.98872 1.14402 4.51589 1.51838 1.23365.30206 2.45173.59634 3.60426 1.11971l.00088-.84638c-1.12044-.47582-2.28517-.77338-3.41775-1.05081-1.53147-.37495-3.01575-.72081-4.32545-1.4366-1.31024-.71616-2.4538-1.79336-3.34524-3.67765l-.46279.67962c.55092 1.103 1.19268 1.9634 1.94705 2.64541z" fill="url(#aB)" filter="url(#aA)" transform="translate(.000013)"/></g></g><g transform="translate(-.017374 -3.63513)"><path d="m-511.23047 137.02539a1.50015 1.50015 0 0 0 -1.47851 1.24219l-15.6504 89.64062a1.50015 1.50015 0 0 0 .24024 1.10352l8.39453 12.30273a1.50015 1.50015 0 0 0 1.25195.6543l7.25586-.0664 7.19532-.0664a1.50015 1.50015 0 0 0 1.21679-.64258l8.46485-12.14453a1.50015 1.50015 0 0 0 .24804-1.11524l-15.66015-89.66601a1.50015 1.50015 0 0 0 -1.47852-1.24219z" fill="url(#av)" filter="url(#ay)" stroke-width="1.66177"/><path d="m-504.03604 240.33686-7.19441.0655-7.2566.0663-8.39455-12.3032 15.65115-89.63941 15.66033 89.66499z" fill="#7f7e75"/><path d="m-521.21897 228.10876 9.96201-64.91946 10.02421 64.9373-5.29384 8.61053-4.75534.0435-4.75533.0435z" fill="url(#av)"/><path d="m-521.21897 228.10876 9.96201-64.91946 10.02421 64.9373-5.29384 8.61053-4.75534.0435-4.75533.0435z" fill="url(#ax)"/></g><g transform="matrix(.99999286 -.00377905 .00377905 .99999286 -71.935685 60.761699)"><path d="m-449.62124 170.8511-1.28036 251.93504 19.94418-.00001.99617-252.43974-4.37616-1.13199-10.9521.64753z" fill="#7f7e75"/><path d="m-444.61205 169.67434-.96907 248.32788 9.67377.0366.94782-246.71794.0202-2.24243-4.83638.29797z" fill="url(#aB)" filter="url(#aA)"/><path d="m-449.62124 170.8511-1.28036 251.93504 19.94418-.00001.99617-252.43974-4.37616-1.13199-10.9521.64753z" fill="url(#aH)" stroke-width="1.00013"/><path d="m-439.17786 168.86352c-1.8301.0984-3.66187.40973-5.43413.81083-1.75731.3977-5.01266 2.02288-5.01266 2.02288l-.0434 4.8268c6.60897-2.26906 11.83566-3.44938 19.66013-.50461l.0434-4.8268c-1.36225-.57893-3.19913-1.80927-4.97492-2.1144-1.39288-.23932-2.81501-.29126-4.23842-.2147zm-.0876 9.74005c-1.8301.0984-3.66187.40973-5.43413.81082-1.75731.39771-5.01263 2.0234-5.01263 2.0234l-.0434 4.8268c6.60896-2.26906 11.83567-3.44937 19.66014-.50461l.0434-4.82731c-1.36225-.57893-3.19911-1.80876-4.9749-2.11388-1.39287-.23933-2.81503-.29178-4.23844-.21522z" fill="#7f7e75"/></g></g><g id="aJ" opacity=".5" stroke-width="1.53757" transform="matrix(.06282992 0 0 .06190323 55.837323 57.900567)"><circle cx="946.90002" cy="776.5" fill="url(#a)" opacity=".5" r="11.3" stroke-width="2.17214"/><circle cx="828.79999" cy="869.79999" fill="url(#c)" opacity=".5" r="11.3" stroke-width="2.17214"/><circle cx="339.10001" cy="1021.2" fill="url(#d)" opacity=".5" r="11.3" stroke-width="2.17214"/><circle cx="419.60001" cy="439.70001" fill="url(#e)" opacity=".5" r="11.3" stroke-width="2.17214"/><circle cx="874.79999" cy="428.39999" fill="url(#f)" opacity=".5" r="11.3" stroke-width="2.17214"/><circle cx="714.70001" cy="467.39999" fill="url(#g)" opacity=".5" r="11.3" stroke-width="2.17214"/><circle cx="1030.9" cy="354.20001" fill="url(#h)" opacity=".5" r="11.3" stroke-width="2.17214"/><circle cx="1040.2" cy="684.29999" fill="url(#i)" opacity=".5" r="11.3" stroke-width="2.17214"/><circle cx="625.59998" cy="345" fill="url(#j)" opacity=".5" r="11.3" stroke-width="2.17214"/><circle cx="751.5" cy="556.70001" fill="url(#k)" opacity=".5" r="5.6" stroke-width="2.17214"/><circle cx="614.29999" cy="932" fill="url(#l)" opacity=".5" r="5.6" stroke-width="2.17214"/><circle cx="818.09998" cy="990.70001" fill="url(#m)" opacity=".5" r="5.6" stroke-width="2.17214"/><circle cx="529" cy="839.90002" fill="url(#n)" opacity=".5" r="11.3" stroke-width="2.17214"/><circle cx="542.70001" cy="1069.7" fill="url(#o)" opacity=".5" r="11.3" stroke-width="2.17214"/><circle cx="419.60001" cy="933" fill="url(#p)" opacity=".5" r="11.3" stroke-width="2.17214"/><circle cx="498.60001" cy="547" fill="url(#q)" opacity=".5" r="11.3" stroke-width="2.17214"/><circle cx="480.89999" cy="686.29999" fill="url(#r)" opacity=".5" r="11.3" stroke-width="2.17214"/><circle cx="538" cy="444.89999" fill="url(#s)" opacity=".5" r="11.3" stroke-width="2.17214"/><circle cx="341.10001" cy="248" fill="url(#t)" opacity=".5" r="11.3" stroke-width="2.17214"/><circle cx="560.40002" cy="660.29999" fill="url(#u)" opacity=".5" r="7.1" stroke-width="2.17214"/><circle cx="584.09998" cy="788.59998" fill="url(#v)" opacity=".5" r="7.1" stroke-width="2.17214"/><circle cx="360.60001" cy="841.90002" fill="url(#w)" opacity=".5" r="7.1" stroke-width="2.17214"/><circle cx="226.89999" cy="764.59998" fill="url(#x)" opacity=".5" r="7.1" stroke-width="2.17214"/><circle cx="404.29999" cy="522.79999" fill="url(#y)" opacity=".5" r="7.1" stroke-width="2.17214"/><circle cx="631.40002" cy="709" fill="url(#z)" opacity=".5" r="7.1" stroke-width="2.17214"/><circle cx="1004.5" cy="623.59998" fill="url(#A)" opacity=".5" r="11.3" stroke-width="2.17214"/><circle cx="872.79999" cy="188.2" fill="url(#B)" opacity=".5" r="11.3" stroke-width="2.17214"/><circle cx="197.3" cy="858.5" fill="url(#C)" opacity=".5" r="11.3" stroke-width="2.17214"/><circle cx="1028.9" cy="542.90002" fill="url(#D)" opacity=".5" r="11.3" stroke-width="2.17214"/><circle cx="982" cy="437.29999" fill="url(#E)" opacity=".5" r="11.3" stroke-width="2.17214"/><ellipse cx="707" cy="728.20001" fill="url(#F)" rx="19.200001" ry="5.6" stroke-width="1.53757"/><ellipse cx="707" cy="728.20001" fill="url(#G)" rx="5.6" ry="19.200001" stroke-width="1.53757"/><ellipse cx="324" cy="638.5" fill="url(#H)" rx="29.700001" ry="8.6" stroke-width="1.53757"/><ellipse cx="324" cy="638.5" fill="url(#I)" rx="8.6" ry="29.700001" stroke-width="1.53757"/><ellipse cx="205.78172" cy="308.78171" fill="url(#J)" rx="29.700001" ry="8.6" stroke-width="1.53757"/><ellipse cx="205.78172" cy="308.78171" fill="url(#K)" rx="8.6" ry="29.700001" stroke-width="1.53757"/><ellipse cx="844.40002" cy="773.20001" fill="url(#L)" rx="29.700001" ry="8.6" stroke-width="1.53757"/><ellipse cx="844.40002" cy="773.20001" fill="url(#M)" rx="8.6" ry="29.700001" stroke-width="1.53757"/><ellipse cx="839.20001" cy="270.60001" fill="url(#N)" rx="29.700001" ry="8.6" stroke-width="1.53757"/><ellipse cx="839.20001" cy="270.60001" fill="url(#O)" rx="8.6" ry="29.700001" stroke-width="1.53757"/><ellipse cx="847.79999" cy="562.29999" fill="url(#P)" rx="29.700001" ry="8.6" stroke-width="1.53757"/><ellipse cx="847.79999" cy="562.29999" fill="url(#Q)" rx="8.6" ry="29.700001" stroke-width="1.53757"/><ellipse cx="1070.9" cy="1032.7999" fill="url(#R)" rx="29.700001" ry="8.6" stroke-width="1.53757"/><ellipse cx="1070.9" cy="1032.7999" fill="url(#S)" rx="8.6" ry="29.700001" stroke-width="1.53757"/><ellipse cx="327.39999" cy="396.40002" fill="url(#T)" rx="19.200001" ry="5.6" stroke-width="1.53757"/><ellipse cx="327.39999" cy="396.40002" fill="url(#U)" rx="5.6" ry="19.200001" stroke-width="1.53757"/><ellipse cx="548.29999" cy="996.29999" fill="url(#V)" rx="19.200001" ry="5.6" stroke-width="1.53757"/><ellipse cx="548.29999" cy="996.29999" fill="url(#W)" rx="5.6" ry="19.200001" stroke-width="1.53757"/><ellipse cx="450.10001" cy="795.79999" fill="url(#X)" rx="19.200001" ry="5.6" stroke-width="1.53757"/><ellipse cx="450.10001" cy="795.79999" fill="url(#Y)" rx="5.6" ry="19.200001" stroke-width="1.53757"/><ellipse cx="649.79999" cy="565.70001" fill="url(#Z)" rx="19.200001" ry="5.6" stroke-width="1.53757"/><ellipse cx="649.79999" cy="565.70001" fill="url(#aa)" rx="5.6" ry="19.200001" stroke-width="1.53757"/><ellipse cx="353.5" cy="747.5" fill="url(#ab)" rx="19.200001" ry="5.6" stroke-width="1.53757"/><ellipse cx="353.5" cy="747.5" fill="url(#ac)" rx="5.6" ry="19.200001" stroke-width="1.53757"/><ellipse cx="712.5" cy="1141.7" fill="url(#ad)" rx="19.200001" ry="5.6" stroke-width="1.53757"/><ellipse cx="712.5" cy="1141.7" fill="url(#ae)" rx="5.6" ry="19.200001" stroke-width="1.53757"/><ellipse cx="979.59998" cy="889" fill="url(#af)" rx="19.200001" ry="5.6" stroke-width="1.53757"/><ellipse cx="979.59998" cy="889" fill="url(#ag)" rx="5.6" ry="19.200001" stroke-width="1.53757"/><ellipse cx="542" cy="297" fill="url(#ah)" rx="19.200001" ry="5.6" stroke-width="1.53757"/><ellipse cx="542" cy="297" fill="url(#ai)" rx="5.6" ry="19.200001" stroke-width="1.53757"/><ellipse cx="856.40002" cy="1023.2" fill="url(#aj)" rx="19.200001" ry="5.6" stroke-width="1.53757"/><ellipse cx="856.40002" cy="1023.2" fill="url(#ak)" rx="5.6" ry="19.200001" stroke-width="1.53757"/><ellipse cx="974.53766" cy="26.443089" fill="url(#al)" rx="19.200001" ry="5.6" stroke-width="1.53757"/><ellipse cx="974.53766" cy="26.443089" fill="url(#am)" rx="5.6" ry="19.200001" stroke-width="1.53757"/><ellipse cx="1069.3" cy="771.59998" fill="url(#an)" rx="19.200001" ry="5.6" stroke-width="1.53757"/><ellipse cx="1069.3" cy="771.59998" fill="url(#ao)" rx="5.6" ry="19.200001" stroke-width="1.53757"/><ellipse cx="46.399162" cy="969.25531" fill="url(#ap)" rx="19.200001" ry="5.6" stroke-width="1.53757"/><ellipse cx="46.399162" cy="969.25531" fill="url(#aq)" rx="5.6" ry="19.200001" stroke-width="1.53757"/><circle cx="88.5" cy="691.79999" fill="url(#ar)" opacity=".5" r="11.3" stroke-width="2.17214"/><ellipse cx="90.900002" cy="240.10001" fill="url(#as)" rx="19.200001" ry="5.6" stroke-width="1.53757"/><ellipse cx="90.900002" cy="240.10001" fill="url(#at)" rx="5.6" ry="19.200001" stroke-width="1.53757"/><circle cx="306" cy="534.09998" fill="url(#au)" opacity=".5" r="11.3" stroke-width="2.17214"/><circle cx="946.90002" cy="776.5" fill="#fff" r="2" stroke-width="2.17214"/><circle cx="828.79999" cy="869.79999" fill="#fff" r="2" stroke-width="2.17214"/><circle cx="339.10001" cy="1021.2" fill="#fff" r="2" stroke-width="2.17214"/><circle cx="419.60001" cy="439.70001" fill="#fff" r="2" stroke-width="2.17214"/><circle cx="874.79999" cy="428.39999" fill="#fff" r="2" stroke-width="2.17214"/><circle cx="714.70001" cy="467.39999" fill="#fff" r="2" stroke-width="2.17214"/><circle cx="1030.9" cy="354.20001" fill="#fff" r="2" stroke-width="2.17214"/><circle cx="1040.2" cy="684.29999" fill="#fff" r="2" stroke-width="2.17214"/><circle cx="625.59998" cy="345" fill="#fff" r="2" stroke-width="2.17214"/><circle cx="751.5" cy="556.70001" fill="#fff" r="1" stroke-width="2.17214"/><circle cx="614.29999" cy="932" fill="#fff" r="1" stroke-width="2.17214"/><circle cx="818.09998" cy="990.70001" fill="#fff" r="1" stroke-width="2.17214"/><circle cx="529" cy="839.90002" fill="#fff" r="2" stroke-width="2.17214"/><circle cx="542.70001" cy="1069.7" fill="#fff" r="2" stroke-width="2.17214"/><circle cx="419.60001" cy="933" fill="#fff" r="2" stroke-width="2.17214"/><circle cx="498.60001" cy="547" fill="#fff" r="2" stroke-width="2.17214"/><circle cx="480.89999" cy="686.29999" fill="#fff" r="2" stroke-width="2.17214"/><circle cx="538" cy="444.89999" fill="#fff" r="2" stroke-width="2.17214"/><circle cx="341.10001" cy="248" fill="#fff" r="2" stroke-width="2.17214"/><circle cx="560.40002" cy="660.29999" fill="#fff" r="1.3" stroke-width="2.17214"/><circle cx="584.09998" cy="788.59998" fill="#fff" r="1.3" stroke-width="2.17214"/><circle cx="360.60001" cy="841.90002" fill="#fff" r="1.3" stroke-width="2.17214"/><circle cx="226.89999" cy="764.59998" fill="#fff" r="1.3" stroke-width="2.17214"/><circle cx="404.29999" cy="522.79999" fill="#fff" r="1.3" stroke-width="2.17214"/><circle cx="631.40002" cy="709" fill="#fff" r="1.3" stroke-width="2.17214"/><circle cx="1004.5" cy="623.59998" fill="#fff" r="2" stroke-width="2.17214"/><circle cx="872.79999" cy="188.2" fill="#fff" r="2" stroke-width="2.17214"/><circle cx="197.3" cy="858.5" fill="#fff" r="2" stroke-width="2.17214"/><circle cx="1028.9" cy="542.90002" fill="#fff" r="2" stroke-width="2.17214"/><circle cx="982" cy="437.29999" fill="#fff" r="2" stroke-width="2.17214"/><circle cx="707" cy="728.20001" fill="#fff" r="2.2" stroke-width="2.17214"/><circle cx="324" cy="638.5" fill="#fff" r="3.4" stroke-width="2.17214"/><circle cx="205.78172" cy="308.78171" fill="#fff" r="3.4" stroke-width="2.17214"/><circle cx="844.40002" cy="773.20001" fill="#fff" r="3.4" stroke-width="2.17214"/><circle cx="839.20001" cy="270.60001" fill="#fff" r="3.4" stroke-width="2.17214"/><circle cx="847.79999" cy="562.29999" fill="#fff" r="3.4" stroke-width="2.17214"/><circle cx="1070.9" cy="1032.7999" fill="#fff" r="3.4" stroke-width="2.17214"/><circle cx="327.39999" cy="396.40002" fill="#fff" r="2.2" stroke-width="2.17214"/><circle cx="548.29999" cy="996.29999" fill="#fff" r="2.2" stroke-width="2.17214"/><circle cx="450.10001" cy="795.79999" fill="#fff" r="2.2" stroke-width="2.17214"/><circle cx="649.79999" cy="565.70001" fill="#fff" r="2.2" stroke-width="2.17214"/><circle cx="353.5" cy="747.5" fill="#fff" r="2.2" stroke-width="2.17214"/><circle cx="712.5" cy="1141.7" fill="#fff" r="2.2" stroke-width="2.17214"/><circle cx="979.59998" cy="889" fill="#fff" r="2.2" stroke-width="2.17214"/><circle cx="542" cy="297" fill="#fff" r="2.2" stroke-width="2.17214"/><circle cx="856.40002" cy="1023.2" fill="#fff" r="2.2" stroke-width="2.17214"/><circle cx="974.53766" cy="26.443089" fill="#fff" r="2.2" stroke-width="2.17214"/><circle cx="1069.3" cy="771.59998" fill="#fff" r="2.2" stroke-width="2.17214"/><circle cx="46.399162" cy="969.25531" fill="#fff" r="2.2" stroke-width="2.17214"/><circle cx="88.5" cy="691.79999" fill="#fff" r="2" stroke-width="2.17214"/><circle cx="90.900002" cy="240.10001" fill="#fff" r="2.2" stroke-width="2.17214"/><circle cx="306" cy="534.09998" fill="#fff" r="2" stroke-width="2.17214"/></g><path id="aK" d="m-392.96699 67.490098c-.20771-.21861.897-1.03194 4.45419-3.27934 11.00059-6.95003 21.25126-16.15134 30.48387-27.36313 3.12334-3.79288 5.66643-8.06111 5.66644-9.51032-.32522-2.56743-3.79693-2.26462-6.25019-1.50604-2.57478.8242-2.89544.64578-1.10723-.61606 1.90888-1.34702 4.57755-2.12967 7.27403-2.13333 2.03799-.003 2.67424.21775 3.30514 1.14544.42258.62136.51355 1.01592.39971 1.7334-.16935 1.0673-.32448 1.09644 2.32965-.43779 2.04179-1.11017 4.06094-2.48209 7.80761-2.12391 3.74664.35816 3.64995 1.5747 5.18295 3.63919 2.72961-1.33934 5.69976-3.44769 9.23748-3.73662 3.16468.14122 4.38148.81637 5.83789 2.31012 2.43686-1.11174 5.10716-2.00526 7.97197-2.39776 8.87325-1.2157 18.13211.38155 27.19953.31706 3.26559-.0232 8.31242.0603 9.78958-.25347 5.22904-.39074 6.68919.94179 6.18926 3.46656 4.04914-2.01431 7.61712-4.52132 10.58037-6.67322 8.49241-6.17861 11.56122-8.03754 15.37725-9.314831 2.06007-.51863 4.73414-.9224097 6.51581-.11329 3.29682 1.529591 1.54957 5.399531-3.12364 6.918451-2.62298 1.02887-6.03579.0275-5.66158-1.61277.27582-.95635 2.40719-2.50575 3.4469-2.50575.18411.96049-1.33691 1.42597.12506 2.42256 1.88776 1.07257 3.83324.23932 4.13498-.95828.37291-1.61752-1.42331-3.0131-3.87811-3.01308-3.65665-.00001-5.84594 1.17822-15.98887 8.60474l-3.64315 2.66748c1.38272.12037 2.96411.0744 4.22439.48266 1.97965.90509 2.67927 1.98474 3.34451 3.35427l2.14304-1.18778c5.26439-2.9178 9.45679-3.32823 12.07055-1.18169 2.15104 2.1327 1.80851 4.43068.41493 6.27953-1.75084 2.30424-5.21037 4.29226-8.44288 4.8517-3.85354.66692-6.33472-.8595-4.04209-2.48671 1.23004-.87303 2.54686-.89428 3.99973-.0646 2.05082 1.1443 4.21594-.003 5.06122-1.05854 1.35424-1.935 1.00565-4.47844-.94797-5.82144-3.3105-2.21927-6.97336-1.07159-10.46186 3.27801-2.54764 3.17648-4.66164 4.73109-7.87952 5.79454-3.06841 1.01405-6.5468.52071-6.54681-.92855.00001-.68523.77624-1.42876 1.77495-1.70019 2.3209-.59063 3.24598 1.07439 5.13376.92244 2.30603-.19979 3.69032-1.56547 3.88246-3.8302.1459-1.71993-.5094-2.8747-2.14954-3.78785-6.11861-2.53199-10.13517 3.09671-12.10996 5.4167-2.02141 2.38668-3.69486 3.79218-5.06313 4.25241-1.31451.44214-1.39359.043-.19505-.98428 2.0763-1.77969 4.49318-5.71864 4.49318-7.32287-.65967-2.23565-3.37367-2.68258-6.02019-1.80281-4.01753 5.93999-8.1152 12.92353-12.95783 17.74639-6.25755 6.1845-14.87615 12.54142-25.93632 19.13011-4.11214 2.44968-5.41595 3.08887-5.79604 2.84164-.41082-.26722.6387-1.01238 6.16645-4.37828 13.72663-8.35824 21.82089-14.91313 27.50385-22.27313 1.25806-1.62928 3.54633-5.1534 3.54635-5.46157-2.69004.87589-5.26712 2.60503-8.33424 2.63111-.94376-.002-1.92047-.11568-2.40828-.28162-1.85572-.81724-2.61453-1.79372-3.34786-3.04269-2.25485 1.31382-4.9121 2.6358-7.68137 3.178-2.33708.46282-6.77942-.39264-7.06786-2.06744.00001-.34539-.0623-.33529-1.51737.24609-3.51746 1.40542-8.14347 1.85036-15.79779 1.51949-6.58524-.28467-16.99096-.27205-20.99434.0255-3.78435.28122-3.23268-.0205-6.00779 3.28627-8.32389 9.91872-20.34966 20.21528-31.25667 26.76224-2.98335 1.79076-4.14677 2.30992-4.45342 1.98719zm54.39395-35.4347c1.96824-2.01872 1.67759-4.6269-.63975-5.7406-4.18728-2.01238-7.97309-.34219-12.45833 5.49617-.81683 1.06327-1.48514 1.9747-1.48513 2.02542 3.72901-.4297 13.33852.71023 14.58321-1.78099zm35.75811 1.42346c2.18111-.48341 3.48393-1.42185 5.21248-3.7548.87716-1.84352 3.15308-2.80311 4.47112-4.31516-4.53503-.36551-10.56996-1.3035-13.47722.38236-1.60531.93877-2.46853 1.77616-2.90138 2.81455-.71746 1.72098-.10256 3.19863 1.77937 4.27611 1.58999.91033 2.82491 1.0603 4.91563.59694zm21.66653-5.39752c.49124-.84394 1.09669-1.64349 1.79305-2.41989-3.33539.24688-9.48837-.52107-12.00928.39137-3.29545 1.21407-4.11576 4.75575-1.51873 6.55717.8746.60666 2.55388 1.13108 3.63819 1.13616 4.19778-.37372 6.87206-3.69363 8.09677-5.66481zm-33.44483 4.59738c1.07337-.32786 1.12446-.37801 1.12442-1.10331.8002-3.45451 3.6963-4.55568 6.34997-6.8859-3.85476-.19815-7.77836.87563-10.78815 1.83194-.43263 3.18356-1.74194 4.66144-5.16139 7.11126 2.89714-.10066 6.14315-.26685 8.47507-.95407zm-10.42275.49025c3.00713-.81725 3.68282-4.21853 2.40335-6.17026-.61275-.93472-2.69914-1.51113-4.07521-1.50558-2.36209.01-5.16765 2.57499-7.29379 4.15952-1.3649 1.01716-2.77092 2.20882-3.4343 3.37865 3.40941.083 9.46591.88556 12.39995.13767zm211.68199 34.28788c-.26159-.27532.53517-.89327 3.28481-2.5476 8.44695-5.08214 17.758531-12.78676 25.490908-21.09176 7.974159-8.56474 12.285463-14.80541 11.723307-16.9697-.716642-2.26847-6.653122-1.64459-6.742119-.50387-.000003.59491-1.776768 3.87432-2.854095 5.26787-1.915445 2.47759-5.113707 4.76868-5.922539 4.24259.0332-.83527.964714-1.1846 1.632897-1.9691-5.503542 1.83383-10.720144 1.62029-15.610429 1.32273-4.5032-.28418-7.35943-.17779-11.1983.4171-2.94502.5328-2.21075.0108-1.10878-1.08741 1.52575-1.51092 2.49272-3.17301 5.71496-9.82277 3.76094-7.76158 6.28069-11.73465 9.86591-15.5565207 2.84415-3.0318599 7.09077-6.3776499 9.736973-7.6714899 1.797546-.87890999 2.0705-.93333999 2.070495-.41291.000005.22529-.846447.9376-2.198311 1.85002-6.762028 4.56378-10.071701 8.6711306-15.270777 18.9513306-2.94294 5.81904-2.97132 5.47489.31129 3.77253 3.33553-1.72977 5.538876-2.44318 7.842727-2.53939 2.117081-.0884 3.736462.2951 5.097184 1.2071 1.174577.84089.882207.73496 2.205639.0779 1.445544-.71771 3.479269-1.23591 5.492452-1.39952 3.147557-.37086 4.153644 2.01057 4.957891 1.39914 2.162046-1.08442 6.25752-2.12226 8.576347-.82764 1.276225 1.12058 1.238095 2.11716.921003 3.33796 2.814778-2.51907 6.522715-3.79101 10.296581-3.34342 2.492365.29562 4.485023 2.04922 5.164255 3.6271l2.384751-1.35209c4.929197-2.79468 8.64505-3.26661 11.407523-1.44881 2.670906 2.12294 2.202873 4.74704.856479 6.53306-1.428369 1.8874-4.092215 3.6251-6.874679 4.48463-1.88408.52969-4.299247.98727-5.844839.0692-1.692768-2.10578 1.722777-3.37123 3.965128-2.23945 1.554636.79431 3.373166.52173 4.35771-.14592 2.853019-2.52326 1.964568-7.48632-3.205473-7.59836-2.908395 0-5.054208 1.39916-8.181908 5.33491-1.451798 1.82694-4.409102 3.84623-6.596423 4.50416-3.807562 1.14527-7.258615.56538-6.767551-1.13717.913975-1.48236 2.877309-1.83878 4.668849-.88819 1.740265.95246 4.049743.4053 5.21521-1.23564 1.37306-1.93314 1.042193-4.19084-.788647-5.38169-2.524457-1.642-5.19319-1.54631-7.9675.2856-1.914397 1.26417-3.369936 2.79182-5.81631 6.10456-8.82275 11.94747-22.130581 23.99814-35.580959 32.21966-3.36563 2.05725-4.3719 2.51885-4.71168 2.16126zm6.50482-34.22884c3.30871-.22808 7.04275.33713 9.952608-.49571 1.977431-.5841 3.27657-2.09171 3.276573-3.80237-.000008-1.82096-1.401401-3.02356-4.123067-3.5382-3.522724-.50764-6.298934.97903-8.290594 2.51734-2.3952 2.02718-3.58132 3.54769-5.34739 5.71856 1.51817-.15523 3.01592-.29512 4.53187-.39962zm21.027884-1.12144c4.046061-3.44067 2.682015-8.32885-4.029734-6.25381.287956 3.26533-3.294058 5.75015-5.356466 7.62162 3.128393.23981 6.923514-.17198 9.3862-1.36781zm-176.955644 14.43576c-.66666-.43361.17311-1.60601 2.69133-3.75741 1.55332-1.32707 2.15935-1.61321 2.15936-1.01958-.00002.35791-2.80168 4.18413-3.35493 4.58176-.43411.31212-1.16876.40793-1.49576.19523zm96.21857-10.39092c.17638-.76251 1.02014-2.08304-.24652-1.66778-1.30818.43066-3.32846.80137-5.39638.99019-1.6364.14943-2.86585.11615-7.01145-.18985-4.81594-.328-8.14566-.41653-12.75205.34192-2.5543.43226-2.74602.30503-1.27087-.8434.50932-.39652.92604-.77786.92604-.84742 0-.0696-.6846.0924-1.52134.35997-3.65569 1.16885-6.80287 1.37279-14.08907.91298-4.50319-.28418-7.35945-.1778-11.19833.41709-1.12355.17411-2.09558.26105-2.16006.19319 3.635-4.46058 5.13932-7.75309 6.76625-11.10338 3.76558-7.7711 6.367-11.95173 9.88034-15.5718907 3.51334-3.6201599 11.78892-8.23972989 11.79304-8.0690299.00001.2253-.84641.93761-2.19831 1.85002-6.762 4.5638-10.07167 8.6711406-15.27078 18.9513306-2.94291 5.81905-2.97132 5.47489.31132 3.77255 3.42248-1.77488 5.5341-2.44809 7.96569-2.53959 2.48299-.067 4.31214.51613 5.78827 1.86452 2.95419-1.3494 5.33344-1.81475 8.64283-2.15095l3.35362-2.66747c7.42877-5.90887 11.47751-8.48712 15.21431-9.688531 2.09791-.6744897 4.60461-.7666397 5.9999-.22054 1.80933.70814 2.53988 2.593931 1.57837 4.074271-1.00984 1.55475-3.51864 3.0282-5.87729 3.4518-2.15591.38718-4.07668-.37008-4.07668-1.60721.00001-.86424.49404-1.47275 1.83571-2.26119 1.56495-.9196 1.98948-.84385 1.18068.21069-.78312 1.02106.40659 2.08251 2.33415 2.08251 1.30495 0 1.9688-.44301 2.20609-1.47221.2485-1.07786-.47354-2.23762-1.74204-2.7981-.77516-.34251-1.17366-.39625-2.53415-.34178-2.12063.0849-3.93533.79562-6.7185 2.63131-1.73607 1.1449-7.35273 5.46305-10.75779 8.27036l-.83439.68794c1.55544 1.14004 1.46254 2.53174 1.28855 3.86453 2.11514-1.14373 4.47401-2.42899 7.05585-3.22849 2.37368-.56977 5.29971-.79167 7.18648.012 1.01246.43743 1.60536 1.01486 2.20094 1.67142 1.14731-.71054 2.57545-1.28905 3.87231-1.6946 3.32125-1.0259 7.02123-.97369 17.10634.24141 4.67603.56338 9.58888.65042 11.77395.2086 1.30653-.12989 4.92612-1.98917 5.55805-1.77017.3883.15609-.0625.61562-1.45712 1.48522-3.58107 2.233-7.95549 3.09026-13.82338 2.70901-3.85879-.25073-4.54062-.22204-6.89581.29008-3.71734.80834-6.84119 2.19112-8.50644 3.76542-2.08618 1.97221-2.45487 4.82802-.90151 6.98295 1.6214 2.24932 4.92871 3.94903 8.85559 4.55111 5.53295.64591 12.67957.0283 15.32233-3.18213.8033-1.02418.77811-1.83668-.0824-2.66041-1.22374-1.17137-.77208-2.45608 1.0362-2.94752 1.11938-.30423 2.35819-.033 2.88697.63209.56969.71657.49133 2.49377-.15055 3.41393-2.19922 3.15284-7.55577 6.02559-12.88977 6.91293-2.11958.3526-7.88001.98015-11.13831-.17913-4.39613-1.56411-8.90423-3.9822-8.41884-8.10053zm-35.90697-3.41911c1.97745-.58408 3.27657-2.09171 3.27657-3.80238.00002-1.82095-1.40137-3.02355-4.12303-3.53819-1.62973-.30816-4.05052.55843-5.6652 1.3355-3.55599 1.71141-5.35794 3.68622-7.97279 6.90041 4.14034-.9618 11.06106.0845 14.48445-.89534zm5.83713.66021c2.27581-.20379 3.82172-.58321 5.23711-1.28543 1.69997-1.32622 2.49199-2.8487 2.5211-4.72402-.00001-.89306-.10138-1.10148-.77337-1.58983-2.16943-.87763-3.82758-.52452-5.77192.004l-.11683 1.43798c-.14974 1.84331-1.18818 3.28634-3.56805 4.95828-.92184.64763-1.67609 1.22406-1.67609 1.28096-.00001.15961 1.8614.12288 4.14805-.0819zm11.46237-.16781c3.73263-.30925 9.37788.2642 11.59855-1.27128 3.65641-2.58013 1.32538-6.68545-3.80705-6.70485-3.80543-.0144-7.78226 2.56909-11.75859 7.63875l-.58012.73961c1.53137-.17224 3.1519-.304 4.54721-.40223zm18.85724-.30013c2.41708-.98791 3.64418-2.77651 5.72939-3.98991 1.94592-1.13235 4.34726-1.97098 6.28189-3.04345-3.88997-.49129-9.92602-1.30036-13.17753.13612-.61604.28091-.70946.45622-.80019 1.49931-.13732 1.58083-1.48956 3.3801-3.62269 4.82022-.85278.57561-1.44574 1.06936-1.31787 1.09708 2.28677-.0823 4.71166.091 6.907-.51937zm111.053175-11.59501c.000007-.41794 2.367361-1.66356 3.877693-2.04027 1.918751-.4786 4.52192-.50273 7.896282-.0732 2.453923.23537 5.938536.63409 7.772689-.14588 1.996962-.85958 2.246539-.43799.402112.67923-2.438841 1.47722-5.440207 1.80872-10.688351 1.18046-2.513741-.48059-9.25893.43119-9.260425.39966zm-242.093745-1.59434c-.00001-.35603 7.45757-4.18777 12.51224-6.44626 5.05467-2.258491 8.75198-2.835261 5.54555-.78769-.90035.55587-11.5484 5.20219-14.93189 6.51551-2.5973 1.00814-3.12591 1.12964-3.1259.71844zm239.447917.0181c0-.51829 15.41317-8.00838 17.584891-8.545441.667968-.16519 1.465114.133421 1.465116.548841-.000002.38246-2.017918 1.38359-7.985153 3.96159-9.357323 4.04258-11.064854 4.66527-11.064854 4.03501zm-22.63896-2.23332c-.147968-.2508 1.494841-3.43824 2.303301-4.46901.434212-.55358.636169-.65326 1.233188-.60843.551229.0414.732551.15845.795708.5138.09109.51264-.445446 1.27223-2.379518 3.36892-1.287474 1.39574-1.689103 1.64149-1.952691 1.19473zm42.2985 22.084618c5.042549-4.831326 6.632616-9.420817 7.536577-14.098676 1.351439-7.102875 2.628293-9.707705 6.297931-12.847909 1.8483-1.581648 4.95091-3.0219958 4.95091-2.298405-1.673753 1.522232-3.836359 3.03263-4.889712 4.756265-1.336278 2.215339-1.823032 3.904263-3.052101 10.590053-1.104954 6.010687-2.813686 9.062976-6.840724 12.219582-1.071483.839876-3.217704 1.936404-3.790103 1.936404-.117026 0-.212778-.115793-.212778-.257314z" fill="#81817e"/><use transform="matrix(.03636981 .04059219 -.04059219 .03636981 80.953861 81.175723)" xlink:href="#aK"/></g></svg>