<svg height="500" viewBox="0 0 132.29167 132.29167" width="500" xmlns="http://www.w3.org/2000/svg" xmlns:xlink="http://www.w3.org/1999/xlink"><filter id="a" color-interpolation-filters="sRGB" height="1.725002" width="1.159414" x="-.079707" y="-.362501"><feGaussianBlur stdDeviation=".51511064"/></filter><filter id="b" color-interpolation-filters="sRGB" height="1.093815" width="1.093815" x="-.046908" y="-.046908"><feGaussianBlur stdDeviation="1.545713"/></filter><filter id="c" color-interpolation-filters="sRGB" height="1.15" width="1.15" x="-.075" y="-.075"><feGaussianBlur stdDeviation=".83477509"/></filter><filter id="d" color-interpolation-filters="sRGB" height="1.096" width="1.096" x="-.048" y="-.048"><feGaussianBlur stdDeviation="1.0295051"/></filter><linearGradient id="e" gradientUnits="userSpaceOnUse" spreadMethod="reflect" x1="55.71876435217" x2="79.42157910271" y1="52.84235490385" y2="40.8794817065"><stop offset="0" stop-color="#e3e1db"/><stop offset=".51123601" stop-color="#c1c0be"/><stop offset="1" stop-color="#a2a19a"/></linearGradient><radialGradient id="f" cx="4601.1221" cy="4277.6772" gradientTransform="matrix(0 1 -1 0 5224.5762 -3824.5764)" gradientUnits="userSpaceOnUse" r="11.2507" xlink:href="#g"/><linearGradient id="g"><stop offset="0" stop-color="#fff"/><stop offset=".1375" stop-color="#fff" stop-opacity=".8625"/><stop offset="1" stop-color="#fff" stop-opacity="0"/></linearGradient><radialGradient id="h" cx="4694.3481" cy="4395.814" gradientTransform="matrix(0 1 -1 0 5224.5762 -3824.5764)" gradientUnits="userSpaceOnUse" r="11.2507" xlink:href="#g"/><radialGradient id="i" cx="4845.7568" cy="4885.4878" gradientTransform="matrix(0 1 -1 0 5224.5762 -3824.5764)" gradientUnits="userSpaceOnUse" r="11.2507" xlink:href="#g"/><radialGradient id="j" cx="4996.8203" cy="4201.0781" gradientTransform="matrix(0 1 -1 0 5224.5762 -3824.5764)" gradientUnits="userSpaceOnUse" r="11.2507" xlink:href="#g"/><radialGradient id="k" cx="4264.2671" cy="4804.9849" gradientTransform="matrix(0 1 -1 0 5224.5762 -3824.5764)" gradientUnits="userSpaceOnUse" r="11.2507" xlink:href="#g"/><radialGradient id="l" cx="4253.0161" cy="4349.7529" gradientTransform="matrix(0 1 -1 0 5224.5762 -3824.5764)" gradientUnits="userSpaceOnUse" r="11.2507" xlink:href="#g"/><radialGradient id="m" cx="4291.9346" cy="4509.8506" gradientTransform="matrix(0 1 -1 0 5224.5762 -3824.5764)" gradientUnits="userSpaceOnUse" r="11.2507" xlink:href="#g"/><radialGradient id="n" cx="4178.7915" cy="4193.6758" gradientTransform="matrix(0 1 -1 0 5224.5762 -3824.5764)" gradientUnits="userSpaceOnUse" r="11.2507" xlink:href="#g"/><radialGradient id="o" cx="4508.9131" cy="4184.4229" gradientTransform="matrix(0 1 -1 0 5224.5762 -3824.5764)" gradientUnits="userSpaceOnUse" r="11.2507" xlink:href="#g"/><radialGradient id="p" cx="4169.5386" cy="4599.0166" gradientTransform="matrix(0 1 -1 0 5224.5762 -3824.5764)" gradientUnits="userSpaceOnUse" r="11.2507" xlink:href="#g"/><radialGradient id="q" cx="4024.0554" cy="4671.3345" gradientTransform="matrix(0 1 -1 0 5224.5762 -3824.5764)" gradientUnits="userSpaceOnUse" r="11.2507" xlink:href="#g"/><radialGradient id="r" cx="4381.2778" cy="4473.0386" gradientTransform="matrix(0 1 -1 0 5224.5762 -3824.5764)" gradientUnits="userSpaceOnUse" r="5.6228" xlink:href="#g"/><radialGradient id="s" cx="4207.3452" cy="4447.1753" gradientTransform="matrix(0 1 -1 0 5224.5762 -3824.5764)" gradientUnits="userSpaceOnUse" r="5.6228" xlink:href="#g"/><radialGradient id="t" cx="4156.0269" cy="4803.9863" gradientTransform="matrix(0 1 -1 0 5224.5762 -3824.5764)" gradientUnits="userSpaceOnUse" r="5.6228" xlink:href="#g"/><radialGradient id="u" cx="4756.5977" cy="4610.2671" gradientTransform="matrix(0 1 -1 0 5224.5762 -3824.5764)" gradientUnits="userSpaceOnUse" r="5.6228" xlink:href="#g"/><radialGradient id="v" cx="4724.8408" cy="4498.3604" gradientTransform="matrix(0 1 -1 0 5224.5762 -3824.5764)" gradientUnits="userSpaceOnUse" r="5.6228" xlink:href="#g"/><radialGradient id="w" cx="4755.5991" cy="4916.6094" gradientTransform="matrix(0 1 -1 0 5224.5762 -3824.5764)" gradientUnits="userSpaceOnUse" r="5.6228" xlink:href="#g"/><radialGradient id="x" cx="4815.3223" cy="4406.499" gradientTransform="matrix(0 1 -1 0 5224.5762 -3824.5764)" gradientUnits="userSpaceOnUse" r="5.6228" xlink:href="#g"/><radialGradient id="y" cx="4840.1343" cy="4528.7949" gradientTransform="matrix(0 1 -1 0 5224.5762 -3824.5764)" gradientUnits="userSpaceOnUse" r="5.6228" xlink:href="#g"/><radialGradient id="z" cx="4994.8228" cy="4675.311" gradientTransform="matrix(0 1 -1 0 5224.5762 -3824.5764)" gradientUnits="userSpaceOnUse" r="5.6228" xlink:href="#g"/><radialGradient id="A" cx="4625.9868" cy="4580.4009" gradientTransform="matrix(0 1 -1 0 5224.5762 -3824.5764)" gradientUnits="userSpaceOnUse" r="5.6228" xlink:href="#g"/><radialGradient id="B" cx="4832.085" cy="4231.3418" gradientTransform="matrix(0 1 -1 0 5224.5762 -3824.5764)" gradientUnits="userSpaceOnUse" r="5.6228" xlink:href="#g"/><radialGradient id="C" cx="4920.2227" cy="4281.3076" gradientTransform="matrix(0 1 -1 0 5224.5762 -3824.5764)" gradientUnits="userSpaceOnUse" r="5.6228" xlink:href="#g"/><radialGradient id="D" cx="4483.835" cy="4313.1982" gradientTransform="matrix(0 1 -1 0 5224.5762 -3824.5764)" gradientUnits="userSpaceOnUse" r="5.6228" xlink:href="#g"/><radialGradient id="E" cx="4664.439" cy="4695.5273" gradientTransform="matrix(0 1 -1 0 5224.5762 -3824.5764)" gradientUnits="userSpaceOnUse" r="11.2507" xlink:href="#g"/><radialGradient id="F" cx="4894.2646" cy="4681.8555" gradientTransform="matrix(0 1 -1 0 5224.5762 -3824.5764)" gradientUnits="userSpaceOnUse" r="11.2507" xlink:href="#g"/><radialGradient id="G" cx="4985.5698" cy="4361.0039" gradientTransform="matrix(0 1 -1 0 5224.5762 -3824.5764)" gradientUnits="userSpaceOnUse" r="11.2507" xlink:href="#g"/><radialGradient id="H" cx="4713.5898" cy="4089.8687" gradientTransform="matrix(0 1 -1 0 5224.5762 -3824.5764)" gradientUnits="userSpaceOnUse" r="11.2507" xlink:href="#g"/><radialGradient id="I" cx="4757.5957" cy="4804.9849" gradientTransform="matrix(0 1 -1 0 5224.5762 -3824.5764)" gradientUnits="userSpaceOnUse" r="11.2507" xlink:href="#g"/><radialGradient id="J" cx="4433.3354" cy="5016.0532" gradientTransform="matrix(0 1 -1 0 5224.5762 -3824.5764)" gradientUnits="userSpaceOnUse" r="11.2507" xlink:href="#g"/><radialGradient id="K" cx="4371.5723" cy="4725.9341" gradientTransform="matrix(0 1 -1 0 5224.5762 -3824.5764)" gradientUnits="userSpaceOnUse" r="11.2507" xlink:href="#g"/><radialGradient id="L" cx="4510.9111" cy="4743.7231" gradientTransform="matrix(0 1 -1 0 5224.5762 -3824.5764)" gradientUnits="userSpaceOnUse" r="11.2507" xlink:href="#g"/><radialGradient id="M" cx="4269.4331" cy="4686.5615" gradientTransform="matrix(0 1 -1 0 5224.5762 -3824.5764)" gradientUnits="userSpaceOnUse" r="11.2507" xlink:href="#g"/><radialGradient id="N" cx="4484.8335" cy="4664.189" gradientTransform="matrix(0 1 -1 0 5224.5762 -3824.5764)" gradientUnits="userSpaceOnUse" r="7.1455" xlink:href="#g"/><radialGradient id="O" cx="4613.2183" cy="4640.4971" gradientTransform="matrix(0 1 -1 0 5224.5762 -3824.5764)" gradientUnits="userSpaceOnUse" r="7.1455" xlink:href="#g"/><radialGradient id="P" cx="4091.8" cy="4252.5869" gradientTransform="matrix(0 1 -1 0 5224.5762 -3824.5764)" gradientUnits="userSpaceOnUse" r="7.1455" xlink:href="#g"/><radialGradient id="Q" cx="4666.4365" cy="4863.9521" gradientTransform="matrix(0 1 -1 0 5224.5762 -3824.5764)" gradientUnits="userSpaceOnUse" r="7.1455" xlink:href="#g"/><radialGradient id="R" cx="4894.2646" cy="4840.1016" gradientTransform="matrix(0 1 -1 0 5224.5762 -3824.5764)" gradientUnits="userSpaceOnUse" r="7.1455" xlink:href="#g"/><radialGradient id="S" cx="4974.3188" cy="4809.6094" gradientTransform="matrix(0 1 -1 0 5224.5762 -3824.5764)" gradientUnits="userSpaceOnUse" r="7.1455" xlink:href="#g"/><radialGradient id="T" cx="4589.1577" cy="4997.6572" gradientTransform="matrix(0 1 -1 0 5224.5762 -3824.5764)" gradientUnits="userSpaceOnUse" r="7.1455" xlink:href="#g"/><radialGradient id="U" cx="4065.4385" cy="4519.7837" gradientTransform="matrix(0 1 -1 0 5224.5762 -3824.5764)" gradientUnits="userSpaceOnUse" r="7.1455" xlink:href="#g"/><radialGradient id="V" cx="4347.4258" cy="4820.2441" gradientTransform="matrix(0 1 -1 0 5224.5762 -3824.5764)" gradientUnits="userSpaceOnUse" r="7.1455" xlink:href="#g"/><radialGradient id="W" cx="4533.5781" cy="4593.1694" gradientTransform="matrix(0 1 -1 0 5224.5762 -3824.5764)" gradientUnits="userSpaceOnUse" r="7.1455" xlink:href="#g"/><radialGradient id="X" cx="4448.2217" cy="4220.0913" gradientTransform="matrix(0 1 -1 0 5224.5762 -3824.5764)" gradientUnits="userSpaceOnUse" r="11.2507" xlink:href="#g"/><radialGradient id="Y" cx="4908.2451" cy="4929.8579" gradientTransform="matrix(0 1 -1 0 5224.5762 -3824.5764)" gradientUnits="userSpaceOnUse" r="11.2507" xlink:href="#g"/><radialGradient id="Z" cx="4012.8047" cy="4351.751" gradientTransform="matrix(0 1 -1 0 5224.5762 -3824.5764)" gradientUnits="userSpaceOnUse" r="11.2507" xlink:href="#g"/><radialGradient id="aa" cx="4683.0972" cy="5027.3037" gradientTransform="matrix(0 1 -1 0 5224.5762 -3824.5764)" gradientUnits="userSpaceOnUse" r="11.2507" xlink:href="#g"/><radialGradient id="ab" cx="4367.481" cy="4195.6733" gradientTransform="matrix(0 1 -1 0 5224.5762 -3824.5764)" gradientUnits="userSpaceOnUse" r="11.2507" xlink:href="#g"/><radialGradient id="ac" cx="4526.4326" cy="4089.8687" gradientTransform="matrix(0 1 -1 0 5224.5762 -3824.5764)" gradientUnits="userSpaceOnUse" r="11.2507" xlink:href="#g"/><radialGradient id="ad" cx="4261.9028" cy="4242.5928" gradientTransform="matrix(0 1 -1 0 5224.5762 -3824.5764)" gradientUnits="userSpaceOnUse" r="11.2507" xlink:href="#g"/><radialGradient id="ae" cx="16633.223" cy="4517.6021" gradientTransform="matrix(0 .2895 -1 0 5224.5762 -4086.6375)" gradientUnits="userSpaceOnUse" r="19.241899" xlink:href="#g"/><radialGradient id="af" cx="-15595.086" cy="5031.6465" gradientTransform="matrix(.2895 0 0 1 5221.3418 -4303.4033)" gradientUnits="userSpaceOnUse" r="19.241899" xlink:href="#g"/><radialGradient id="ag" cx="16323.169" cy="4900.5503" gradientTransform="matrix(0 .2895 -1 0 5224.5762 -4086.6375)" gradientUnits="userSpaceOnUse" r="29.7325" xlink:href="#g"/><radialGradient id="ah" cx="-16917.998" cy="4941.8945" gradientTransform="matrix(.2895 0 0 1 5221.3418 -4303.4033)" gradientUnits="userSpaceOnUse" r="29.7325" xlink:href="#g"/><radialGradient id="ai" cx="17536.6" cy="5029.3018" gradientTransform="matrix(0 .2895 -1 0 5224.5762 -4086.6375)" gradientUnits="userSpaceOnUse" r="29.7325" xlink:href="#g"/><radialGradient id="aj" cx="-17362.775" cy="5293.1509" gradientTransform="matrix(.2895 0 0 1 5221.3418 -4303.4033)" gradientUnits="userSpaceOnUse" r="29.7325" xlink:href="#g"/><radialGradient id="ak" cx="15154.966" cy="4975.0698" gradientTransform="matrix(0 .2895 -1 0 5224.5762 -4086.6375)" gradientUnits="userSpaceOnUse" r="29.7325" xlink:href="#g"/><radialGradient id="al" cx="-17175.43" cy="4603.7305" gradientTransform="matrix(.2895 0 0 1 5221.3418 -4303.4033)" gradientUnits="userSpaceOnUse" r="29.7325" xlink:href="#g"/><radialGradient id="am" cx="16788.486" cy="4380.1377" gradientTransform="matrix(0 .2895 -1 0 5224.5762 -4086.6375)" gradientUnits="userSpaceOnUse" r="29.7325" xlink:href="#g"/><radialGradient id="an" cx="-15120.208" cy="5076.5913" gradientTransform="matrix(.2895 0 0 1 5221.3418 -4303.4033)" gradientUnits="userSpaceOnUse" r="29.7325" xlink:href="#g"/><radialGradient id="ao" cx="15052.254" cy="4385.373" gradientTransform="matrix(0 .2895 -1 0 5224.5762 -4086.6375)" gradientUnits="userSpaceOnUse" r="29.7325" xlink:href="#g"/><radialGradient id="ap" cx="-15138.295" cy="4573.998" gradientTransform="matrix(.2895 0 0 1 5221.3418 -4303.4033)" gradientUnits="userSpaceOnUse" r="29.7325" xlink:href="#g"/><radialGradient id="aq" cx="16060.047" cy="4376.7666" gradientTransform="matrix(0 .2895 -1 0 5224.5762 -4086.6375)" gradientUnits="userSpaceOnUse" r="29.7325" xlink:href="#g"/><radialGradient id="ar" cx="-15108.562" cy="4865.7275" gradientTransform="matrix(.2895 0 0 1 5221.3418 -4303.4033)" gradientUnits="userSpaceOnUse" r="29.7325" xlink:href="#g"/><radialGradient id="as" cx="15866.068" cy="4081.2617" gradientTransform="matrix(0 .2895 -1 0 5224.5762 -4086.6375)" gradientUnits="userSpaceOnUse" r="29.7325" xlink:href="#g"/><radialGradient id="at" cx="-14087.729" cy="4809.5757" gradientTransform="matrix(.2895 0 0 1 5221.3418 -4303.4033)" gradientUnits="userSpaceOnUse" r="29.7325" xlink:href="#g"/><radialGradient id="au" cx="17890.787" cy="4106.2778" gradientTransform="matrix(0 .2895 -1 0 5224.5762 -4086.6375)" gradientUnits="userSpaceOnUse" r="29.7325" xlink:href="#g"/><radialGradient id="av" cx="-14174.147" cy="5395.6787" gradientTransform="matrix(.2895 0 0 1 5221.3418 -4303.4033)" gradientUnits="userSpaceOnUse" r="29.7325" xlink:href="#g"/><radialGradient id="aw" cx="15420.522" cy="4902.7319" gradientTransform="matrix(0 .2895 -1 0 5224.5762 -4086.6375)" gradientUnits="userSpaceOnUse" r="19.241899" xlink:href="#g"/><radialGradient id="ax" cx="-16925.533" cy="4680.6021" gradientTransform="matrix(.2895 0 0 1 5221.3418 -4303.4033)" gradientUnits="userSpaceOnUse" r="19.241899" xlink:href="#g"/><radialGradient id="ay" cx="17559.291" cy="4676.2856" gradientTransform="matrix(0 .2895 -1 0 5224.5762 -4086.6375)" gradientUnits="userSpaceOnUse" r="19.241899" xlink:href="#g"/><radialGradient id="az" cx="-16143.265" cy="5299.7192" gradientTransform="matrix(.2895 0 0 1 5221.3418 -4303.4033)" gradientUnits="userSpaceOnUse" r="19.241899" xlink:href="#g"/><radialGradient id="aA" cx="16866.557" cy="4774.4922" gradientTransform="matrix(0 .2895 -1 0 5224.5762 -4086.6375)" gradientUnits="userSpaceOnUse" r="19.241899" xlink:href="#g"/><radialGradient id="aB" cx="-16482.523" cy="5099.1909" gradientTransform="matrix(.2895 0 0 1 5221.3418 -4303.4033)" gradientUnits="userSpaceOnUse" r="19.241899" xlink:href="#g"/><radialGradient id="aC" cx="16071.692" cy="4574.7783" gradientTransform="matrix(0 .2895 -1 0 5224.5762 -4086.6375)" gradientUnits="userSpaceOnUse" r="19.241899" xlink:href="#g"/><radialGradient id="aD" cx="-15792.604" cy="4869.0986" gradientTransform="matrix(.2895 0 0 1 5221.3418 -4303.4033)" gradientUnits="userSpaceOnUse" r="19.241899" xlink:href="#g"/><radialGradient id="aE" cx="16699.693" cy="4871.0977" gradientTransform="matrix(0 .2895 -1 0 5224.5762 -4086.6375)" gradientUnits="userSpaceOnUse" r="19.241899" xlink:href="#g"/><radialGradient id="aF" cx="-16816.252" cy="5050.8887" gradientTransform="matrix(.2895 0 0 1 5221.3418 -4303.4033)" gradientUnits="userSpaceOnUse" r="19.241899" xlink:href="#g"/><radialGradient id="aG" cx="18061.07" cy="4512.0322" gradientTransform="matrix(0 .2895 -1 0 5224.5762 -4086.6375)" gradientUnits="userSpaceOnUse" r="19.241899" xlink:href="#g"/><radialGradient id="aH" cx="-15575.844" cy="5444.9717" gradientTransform="matrix(.2895 0 0 1 5221.3418 -4303.4033)" gradientUnits="userSpaceOnUse" r="19.241899" xlink:href="#g"/><radialGradient id="aI" cx="17188.609" cy="4244.9609" gradientTransform="matrix(0 .2895 -1 0 5224.5762 -4086.6375)" gradientUnits="userSpaceOnUse" r="19.241899" xlink:href="#g"/><radialGradient id="aJ" cx="-14653.234" cy="5192.417" gradientTransform="matrix(.2895 0 0 1 5221.3418 -4303.4033)" gradientUnits="userSpaceOnUse" r="19.241899" xlink:href="#g"/><radialGradient id="aK" cx="15143.32" cy="4682.5854" gradientTransform="matrix(0 .2895 -1 0 5224.5762 -4086.6375)" gradientUnits="userSpaceOnUse" r="19.241899" xlink:href="#g"/><radialGradient id="aL" cx="-16165.027" cy="4600.3594" gradientTransform="matrix(.2895 0 0 1 5221.3418 -4303.4033)" gradientUnits="userSpaceOnUse" r="19.241899" xlink:href="#g"/><radialGradient id="aM" cx="17652.088" cy="4368.1597" gradientTransform="matrix(0 .2895 -1 0 5224.5762 -4086.6375)" gradientUnits="userSpaceOnUse" r="19.241899" xlink:href="#g"/><radialGradient id="aN" cx="-15078.83" cy="5326.5815" gradientTransform="matrix(.2895 0 0 1 5221.3418 -4303.4033)" gradientUnits="userSpaceOnUse" r="19.241899" xlink:href="#g"/><radialGradient id="aO" cx="16783.117" cy="4155.2524" gradientTransform="matrix(0 .2895 -1 0 5224.5762 -4086.6375)" gradientUnits="userSpaceOnUse" r="19.241899" xlink:href="#g"/><radialGradient id="aP" cx="-14343.332" cy="5075.0371" gradientTransform="matrix(.2895 0 0 1 5221.3418 -4303.4033)" gradientUnits="userSpaceOnUse" r="19.241899" xlink:href="#g"/><radialGradient id="aQ" cx="4358.6768" cy="4918.6069" gradientTransform="matrix(0 1 -1 0 5224.5762 -3824.5764)" gradientUnits="userSpaceOnUse" r="11.2507" xlink:href="#g"/><radialGradient id="aR" cx="5064.3071" cy="4349.7529" gradientTransform="matrix(0 1 -1 0 5224.5762 -3824.5764)" gradientUnits="userSpaceOnUse" r="11.2507" xlink:href="#g"/><radialGradient id="aS" cx="5103.2256" cy="4509.8506" gradientTransform="matrix(0 1 -1 0 5224.5762 -3824.5764)" gradientUnits="userSpaceOnUse" r="11.2507" xlink:href="#g"/><radialGradient id="aT" cx="5080.7241" cy="4686.5615" gradientTransform="matrix(0 1 -1 0 5224.5762 -3824.5764)" gradientUnits="userSpaceOnUse" r="11.2507" xlink:href="#g"/><radialGradient id="aU" cx="4664.439" cy="3976.0093" gradientTransform="matrix(0 1 -1 0 5224.5762 -3824.5764)" gradientUnits="userSpaceOnUse" r="11.2507" xlink:href="#g"/><radialGradient id="aV" cx="4371.5723" cy="4006.416" gradientTransform="matrix(0 1 -1 0 5224.5762 -3824.5764)" gradientUnits="userSpaceOnUse" r="11.2507" xlink:href="#g"/><radialGradient id="aW" cx="4510.9111" cy="4024.2048" gradientTransform="matrix(0 1 -1 0 5224.5762 -3824.5764)" gradientUnits="userSpaceOnUse" r="11.2507" xlink:href="#g"/><filter id="aX" color-interpolation-filters="sRGB" height="1.266093" width="1.266174" x="-.133087" y="-.133047"><feGaussianBlur stdDeviation="4.9557037"/></filter><g stroke-width="1.23488" transform="matrix(.80979436 0 0 .80979436 22.799617 22.492569)"><path d="m70.627181 93.978901c1.718116-.000005 3.059528.166838 3.613147.499255 1.1072.664857-1.344813 1.748829-5.476922 2.413884-4.132188.665074-8.394743.661796-9.501892-.0031-1.107251-.664839 1.351182-1.745984 5.482003-2.410832 2.06542-.332429 4.165569-.499251 5.883669-.499256z" filter="url(#a)" opacity=".5" transform="matrix(2.0798774 0 0 2.4325264 -54.521063 -129.08762)"/><use stroke-width="1.23488" xlink:href="#aY"/><g stroke-width="3.22763" transform="matrix(.38263122 0 0 .38256267 -122.00326 45.972137)"><path d="m525.34961 73.796875c-11.43256-.000133-22.89364 4.380245-31.60156 13.087891-17.41635 17.416354-17.50211 45.853634-.0762 63.279294 17.42607 17.42607 45.86149 17.3399 63.27734-.0762 17.41672-17.4162 17.41668-45.7867 0-63.203124-8.70787-8.707891-20.16723-13.087757-31.59961-13.087891z" fill="url(#e)" filter="url(#aX)" opacity=".5"/><path d="m525.34877 75.796112c-10.92261-.000127-21.86236 4.178162-30.18735 12.50289-16.65008 16.650088-16.73168 43.796088-.0764 60.451108 16.65549 16.65549 43.80148 16.57344 60.45111-.0764 16.65011-16.64961 16.65009-43.72484 0-60.374685-8.32501-8.325035-19.26483-12.502785-30.18736-12.502913z" fill="#7f7e75"/><path d="m496.85819 89.996601c-15.73245 15.732449-15.80734 41.323489-.0751 57.055459 15.73245 15.73245 41.32348 15.65707 57.05546-.0751 15.73244-15.73197 15.73244-41.24787 0-56.980084-7.86623-7.86623-18.17802-11.799583-28.49017-11.799703s-20.62394 3.933473-28.49017 11.799458z" fill="#7f7e75"/><circle cx="66.145836" cy="39.542774" fill="url(#e)" filter="url(#b)" r="39.542774" transform="matrix(.90725093 0 0 .90725093 465.31872 82.630196)"/><g fill="#e3e1db"><path d="m64.75637 40.032365a30.644657 19.640671 45 0 1 7.78099 35.557096 30.644657 19.640671 45 0 1 -35.55709-7.780994 30.644657 19.640671 45 0 1 -7.781-35.557095 30.644657 19.640671 45 0 1 35.5571 7.780993z" filter="url(#d)" opacity=".333" transform="matrix(.90725093 0 0 .90725093 465.31872 82.630196)"/><path d="m95.61188 9.4458012a15.608357 10.637955 45 0 1 3.5146 18.5589498 15.608357 10.637955 45 0 1 -18.55894-3.51461 15.608357 10.637955 45 0 1 -3.51461-18.5589424 15.608357 10.637955 45 0 1 18.55895 3.5146026z" filter="url(#c)" opacity=".333" stroke-width="3.55759" transform="matrix(.90725093 0 0 .90725093 462.9838 83.634367)"/></g></g><g id="aY" opacity=".5" stroke-width="1.99778" transform="matrix(.05971471 0 0 .05883395 36.442232 48.156535)"><circle cx="946.90002" cy="776.5" fill="url(#f)" opacity=".5" r="11.3" stroke-width="2.68278"/><circle cx="828.79999" cy="869.79999" fill="url(#h)" opacity=".5" r="11.3" stroke-width="2.68278"/><circle cx="339.10001" cy="1021.2" fill="url(#i)" opacity=".5" r="11.3" stroke-width="2.68278"/><circle cx="1023.5" cy="1172.2" fill="url(#j)" opacity=".5" r="11.3" stroke-width="2.68278"/><circle cx="419.60001" cy="439.70001" fill="url(#k)" opacity=".5" r="11.3" stroke-width="2.68278"/><circle cx="874.79999" cy="428.39999" fill="url(#l)" opacity=".5" r="11.3" stroke-width="2.68278"/><circle cx="714.70001" cy="467.39999" fill="url(#m)" opacity=".5" r="11.3" stroke-width="2.68278"/><circle cx="1030.9" cy="354.20001" fill="url(#n)" opacity=".5" r="11.3" stroke-width="2.68278"/><circle cx="1040.2" cy="684.29999" fill="url(#o)" opacity=".5" r="11.3" stroke-width="2.68278"/><circle cx="625.59998" cy="345" fill="url(#p)" opacity=".5" r="11.3" stroke-width="2.68278"/><circle cx="553.20001" cy="199.5" fill="url(#q)" opacity=".5" r="11.3" stroke-width="2.68278"/><circle cx="751.5" cy="556.70001" fill="url(#r)" opacity=".5" r="5.6" stroke-width="2.68278"/><circle cx="777.40002" cy="382.79999" fill="url(#s)" opacity=".5" r="5.6" stroke-width="2.68278"/><circle cx="420.60001" cy="331.5" fill="url(#t)" opacity=".5" r="5.6" stroke-width="2.68278"/><circle cx="614.29999" cy="932" fill="url(#u)" opacity=".5" r="5.6" stroke-width="2.68278"/><circle cx="726.20001" cy="900.29999" fill="url(#v)" opacity=".5" r="5.6" stroke-width="2.68278"/><circle cx="308" cy="931" fill="url(#w)" opacity=".5" r="5.6" stroke-width="2.68278"/><circle cx="818.09998" cy="990.70001" fill="url(#x)" opacity=".5" r="5.6" stroke-width="2.68278"/><circle cx="695.79999" cy="1015.6" fill="url(#y)" opacity=".5" r="5.6" stroke-width="2.68278"/><circle cx="549.29999" cy="1170.2" fill="url(#z)" opacity=".5" r="5.6" stroke-width="2.68278"/><circle cx="644.20001" cy="801.40002" fill="url(#A)" opacity=".5" r="5.6" stroke-width="2.68278"/><circle cx="993.20001" cy="1007.5" fill="url(#B)" opacity=".5" r="5.6" stroke-width="2.68278"/><circle cx="943.29999" cy="1095.6" fill="url(#C)" opacity=".5" r="5.6" stroke-width="2.68278"/><circle cx="911.40002" cy="659.29999" fill="url(#D)" opacity=".5" r="5.6" stroke-width="2.68278"/><circle cx="529" cy="839.90002" fill="url(#E)" opacity=".5" r="11.3" stroke-width="2.68278"/><circle cx="542.70001" cy="1069.7" fill="url(#F)" opacity=".5" r="11.3" stroke-width="2.68278"/><circle cx="863.59998" cy="1161" fill="url(#G)" opacity=".5" r="11.3" stroke-width="2.68278"/><circle cx="1134.7" cy="889" fill="url(#H)" opacity=".5" r="11.3" stroke-width="2.68278"/><circle cx="419.60001" cy="933" fill="url(#I)" opacity=".5" r="11.3" stroke-width="2.68278"/><circle cx="208.5" cy="608.79999" fill="url(#J)" opacity=".5" r="11.3" stroke-width="2.68278"/><circle cx="498.60001" cy="547" fill="url(#K)" opacity=".5" r="11.3" stroke-width="2.68278"/><circle cx="480.89999" cy="686.29999" fill="url(#L)" opacity=".5" r="11.3" stroke-width="2.68278"/><circle cx="538" cy="444.89999" fill="url(#M)" opacity=".5" r="11.3" stroke-width="2.68278"/><circle cx="560.40002" cy="660.29999" fill="url(#N)" opacity=".5" r="7.1" stroke-width="2.68278"/><circle cx="584.09998" cy="788.59998" fill="url(#O)" opacity=".5" r="7.1" stroke-width="2.68278"/><circle cx="972" cy="267.20001" fill="url(#P)" opacity=".5" r="7.1" stroke-width="2.68278"/><circle cx="360.60001" cy="841.90002" fill="url(#Q)" opacity=".5" r="7.1" stroke-width="2.68278"/><circle cx="384.5" cy="1069.7" fill="url(#R)" opacity=".5" r="7.1" stroke-width="2.68278"/><circle cx="415" cy="1149.7" fill="url(#S)" opacity=".5" r="7.1" stroke-width="2.68278"/><circle cx="226.89999" cy="764.59998" fill="url(#T)" opacity=".5" r="7.1" stroke-width="2.68278"/><circle cx="704.79999" cy="240.89999" fill="url(#U)" opacity=".5" r="7.1" stroke-width="2.68278"/><circle cx="404.29999" cy="522.79999" fill="url(#V)" opacity=".5" r="7.1" stroke-width="2.68278"/><circle cx="631.40002" cy="709" fill="url(#W)" opacity=".5" r="7.1" stroke-width="2.68278"/><circle cx="1004.5" cy="623.59998" fill="url(#X)" opacity=".5" r="11.3" stroke-width="2.68278"/><circle cx="294.70001" cy="1083.7" fill="url(#Y)" opacity=".5" r="11.3" stroke-width="2.68278"/><circle cx="872.79999" cy="188.2" fill="url(#Z)" opacity=".5" r="11.3" stroke-width="2.68278"/><circle cx="197.3" cy="858.5" fill="url(#aa)" opacity=".5" r="11.3" stroke-width="2.68278"/><circle cx="1028.9" cy="542.90002" fill="url(#ab)" opacity=".5" r="11.3" stroke-width="2.68278"/><circle cx="1134.7" cy="701.90002" fill="url(#ac)" opacity=".5" r="11.3" stroke-width="2.68278"/><circle cx="982" cy="437.29999" fill="url(#ad)" opacity=".5" r="11.3" stroke-width="2.68278"/><ellipse cx="707" cy="728.20001" fill="url(#ae)" rx="19.200001" ry="5.6" stroke-width="1.99778"/><ellipse cx="707" cy="728.20001" fill="url(#af)" rx="5.6" ry="19.200001" stroke-width="1.99778"/><ellipse cx="324" cy="638.5" fill="url(#ag)" rx="29.700001" ry="8.6" stroke-width="1.99778"/><ellipse cx="324" cy="638.5" fill="url(#ah)" rx="8.6" ry="29.700001" stroke-width="1.99778"/><ellipse cx="195.3" cy="989.70001" fill="url(#ai)" rx="29.700001" ry="8.6" stroke-width="1.99778"/><ellipse cx="195.3" cy="989.70001" fill="url(#aj)" rx="8.6" ry="29.700001" stroke-width="1.99778"/><ellipse cx="249.5" cy="300.29999" fill="url(#ak)" rx="29.700001" ry="8.6" stroke-width="1.99778"/><ellipse cx="249.5" cy="300.29999" fill="url(#al)" rx="8.6" ry="29.700001" stroke-width="1.99778"/><ellipse cx="844.40002" cy="773.20001" fill="url(#am)" rx="29.700001" ry="8.6" stroke-width="1.99778"/><ellipse cx="844.40002" cy="773.20001" fill="url(#an)" rx="8.6" ry="29.700001" stroke-width="1.99778"/><ellipse cx="839.20001" cy="270.60001" fill="url(#ao)" rx="29.700001" ry="8.6" stroke-width="1.99778"/><ellipse cx="839.20001" cy="270.60001" fill="url(#ap)" rx="8.6" ry="29.700001" stroke-width="1.99778"/><ellipse cx="847.79999" cy="562.29999" fill="url(#aq)" rx="29.700001" ry="8.6" stroke-width="1.99778"/><ellipse cx="847.79999" cy="562.29999" fill="url(#ar)" rx="8.6" ry="29.700001" stroke-width="1.99778"/><ellipse cx="1143.3" cy="506.20001" fill="url(#as)" rx="29.700001" ry="8.6" stroke-width="1.99778"/><ellipse cx="1143.3" cy="506.20001" fill="url(#at)" rx="8.6" ry="29.700001" stroke-width="1.99778"/><ellipse cx="1118.3" cy="1092.3" fill="url(#au)" rx="29.700001" ry="8.6" stroke-width="1.99778"/><ellipse cx="1118.3" cy="1092.3" fill="url(#av)" rx="8.6" ry="29.700001" stroke-width="1.99778"/><ellipse cx="321.79999" cy="377.20001" fill="url(#aw)" rx="19.200001" ry="5.6" stroke-width="1.99778"/><ellipse cx="321.79999" cy="377.20001" fill="url(#ax)" rx="5.6" ry="19.200001" stroke-width="1.99778"/><ellipse cx="548.29999" cy="996.29999" fill="url(#ay)" rx="19.200001" ry="5.6" stroke-width="1.99778"/><ellipse cx="548.29999" cy="996.29999" fill="url(#az)" rx="5.6" ry="19.200001" stroke-width="1.99778"/><ellipse cx="450.10001" cy="795.79999" fill="url(#aA)" rx="19.200001" ry="5.6" stroke-width="1.99778"/><ellipse cx="450.10001" cy="795.79999" fill="url(#aB)" rx="5.6" ry="19.200001" stroke-width="1.99778"/><ellipse cx="649.79999" cy="565.70001" fill="url(#aC)" rx="19.200001" ry="5.6" stroke-width="1.99778"/><ellipse cx="649.79999" cy="565.70001" fill="url(#aD)" rx="5.6" ry="19.200001" stroke-width="1.99778"/><ellipse cx="353.5" cy="747.5" fill="url(#aE)" rx="19.200001" ry="5.6" stroke-width="1.99778"/><ellipse cx="353.5" cy="747.5" fill="url(#aF)" rx="5.6" ry="19.200001" stroke-width="1.99778"/><ellipse cx="712.5" cy="1141.6" fill="url(#aG)" rx="19.200001" ry="5.6" stroke-width="1.99778"/><ellipse cx="712.5" cy="1141.6" fill="url(#aH)" rx="5.6" ry="19.200001" stroke-width="1.99778"/><ellipse cx="979.59998" cy="889" fill="url(#aI)" rx="19.200001" ry="5.6" stroke-width="1.99778"/><ellipse cx="979.59998" cy="889" fill="url(#aJ)" rx="5.6" ry="19.200001" stroke-width="1.99778"/><ellipse cx="542" cy="297" fill="url(#aK)" rx="19.200001" ry="5.6" stroke-width="1.99778"/><ellipse cx="542" cy="297" fill="url(#aL)" rx="5.6" ry="19.200001" stroke-width="1.99778"/><ellipse cx="856.40002" cy="1023.2" fill="url(#aM)" rx="19.200001" ry="5.6" stroke-width="1.99778"/><ellipse cx="856.40002" cy="1023.2" fill="url(#aN)" rx="5.6" ry="19.200001" stroke-width="1.99778"/><ellipse cx="1069.3" cy="771.59998" fill="url(#aO)" rx="19.200001" ry="5.6" stroke-width="1.99778"/><ellipse cx="1069.3" cy="771.59998" fill="url(#aP)" rx="5.6" ry="19.200001" stroke-width="1.99778"/><circle cx="306" cy="534.09998" fill="url(#aQ)" opacity=".5" r="11.3" stroke-width="2.68278"/><circle cx="874.79999" cy="1239.7" fill="url(#aR)" opacity=".5" r="11.3" stroke-width="2.68278"/><circle cx="714.70001" cy="1278.6" fill="url(#aS)" opacity=".5" r="11.3" stroke-width="2.68278"/><circle cx="538" cy="1256.1" fill="url(#aT)" opacity=".5" r="11.3" stroke-width="2.68278"/><circle cx="1248.6" cy="839.90002" fill="url(#aU)" opacity=".5" r="11.3" stroke-width="2.68278"/><circle cx="1218.2" cy="547" fill="url(#aV)" opacity=".5" r="11.3" stroke-width="2.68278"/><circle cx="1200.4" cy="686.29999" fill="url(#aW)" opacity=".5" r="11.3" stroke-width="2.68278"/><circle cx="946.90002" cy="776.5" fill="#fff" r="2" stroke-width="2.68278"/><circle cx="828.79999" cy="869.79999" fill="#fff" r="2" stroke-width="2.68278"/><circle cx="339.10001" cy="1021.2" fill="#fff" r="2" stroke-width="2.68278"/><circle cx="1023.5" cy="1172.2" fill="#fff" r="2" stroke-width="2.68278"/><circle cx="419.60001" cy="439.70001" fill="#fff" r="2" stroke-width="2.68278"/><circle cx="874.79999" cy="428.39999" fill="#fff" r="2" stroke-width="2.68278"/><circle cx="714.70001" cy="467.39999" fill="#fff" r="2" stroke-width="2.68278"/><circle cx="1030.9" cy="354.20001" fill="#fff" r="2" stroke-width="2.68278"/><circle cx="1040.2" cy="684.29999" fill="#fff" r="2" stroke-width="2.68278"/><circle cx="625.59998" cy="345" fill="#fff" r="2" stroke-width="2.68278"/><circle cx="553.20001" cy="199.5" fill="#fff" r="2" stroke-width="2.68278"/><circle cx="751.5" cy="556.70001" fill="#fff" r="1" stroke-width="2.68278"/><circle cx="777.40002" cy="382.79999" fill="#fff" r="1" stroke-width="2.68278"/><circle cx="420.60001" cy="331.5" fill="#fff" r="1" stroke-width="2.68278"/><circle cx="614.29999" cy="932" fill="#fff" r="1" stroke-width="2.68278"/><circle cx="726.20001" cy="900.29999" fill="#fff" r="1" stroke-width="2.68278"/><circle cx="308" cy="931" fill="#fff" r="1" stroke-width="2.68278"/><circle cx="818.09998" cy="990.70001" fill="#fff" r="1" stroke-width="2.68278"/><circle cx="695.79999" cy="1015.6" fill="#fff" r="1" stroke-width="2.68278"/><circle cx="549.29999" cy="1170.2" fill="#fff" r="1" stroke-width="2.68278"/><circle cx="644.20001" cy="801.40002" fill="#fff" r="1" stroke-width="2.68278"/><circle cx="993.20001" cy="1007.5" fill="#fff" r="1" stroke-width="2.68278"/><circle cx="943.29999" cy="1095.6" fill="#fff" r="1" stroke-width="2.68278"/><circle cx="911.40002" cy="659.29999" fill="#fff" r="1" stroke-width="2.68278"/><circle cx="529" cy="839.90002" fill="#fff" r="2" stroke-width="2.68278"/><circle cx="542.70001" cy="1069.7" fill="#fff" r="2" stroke-width="2.68278"/><circle cx="863.59998" cy="1161" fill="#fff" r="2" stroke-width="2.68278"/><circle cx="1134.7" cy="889" fill="#fff" r="2" stroke-width="2.68278"/><circle cx="419.60001" cy="933" fill="#fff" r="2" stroke-width="2.68278"/><circle cx="208.5" cy="608.79999" fill="#fff" r="2" stroke-width="2.68278"/><circle cx="498.60001" cy="547" fill="#fff" r="2" stroke-width="2.68278"/><circle cx="480.89999" cy="686.29999" fill="#fff" r="2" stroke-width="2.68278"/><circle cx="538" cy="444.89999" fill="#fff" r="2" stroke-width="2.68278"/><circle cx="560.40002" cy="660.29999" fill="#fff" r="1.3" stroke-width="2.68278"/><circle cx="584.09998" cy="788.59998" fill="#fff" r="1.3" stroke-width="2.68278"/><circle cx="972" cy="267.20001" fill="#fff" r="1.3" stroke-width="2.68278"/><circle cx="360.60001" cy="841.90002" fill="#fff" r="1.3" stroke-width="2.68278"/><circle cx="384.5" cy="1069.7" fill="#fff" r="1.3" stroke-width="2.68278"/><circle cx="415" cy="1149.7" fill="#fff" r="1.3" stroke-width="2.68278"/><circle cx="226.89999" cy="764.59998" fill="#fff" r="1.3" stroke-width="2.68278"/><circle cx="704.79999" cy="240.89999" fill="#fff" r="1.3" stroke-width="2.68278"/><circle cx="404.29999" cy="522.79999" fill="#fff" r="1.3" stroke-width="2.68278"/><circle cx="631.40002" cy="709" fill="#fff" r="1.3" stroke-width="2.68278"/><circle cx="1004.5" cy="623.59998" fill="#fff" r="2" stroke-width="2.68278"/><circle cx="294.70001" cy="1083.7" fill="#fff" r="2" stroke-width="2.68278"/><circle cx="872.79999" cy="188.2" fill="#fff" r="2" stroke-width="2.68278"/><circle cx="197.3" cy="858.5" fill="#fff" r="2" stroke-width="2.68278"/><circle cx="1028.9" cy="542.90002" fill="#fff" r="2" stroke-width="2.68278"/><circle cx="1134.7" cy="701.90002" fill="#fff" r="2" stroke-width="2.68278"/><circle cx="982" cy="437.29999" fill="#fff" r="2" stroke-width="2.68278"/><circle cx="707" cy="728.20001" fill="#fff" r="2.2" stroke-width="2.68278"/><circle cx="324" cy="638.5" fill="#fff" r="3.4" stroke-width="2.68278"/><circle cx="195.3" cy="989.70001" fill="#fff" r="3.4" stroke-width="2.68278"/><circle cx="249.5" cy="300.29999" fill="#fff" r="3.4" stroke-width="2.68278"/><circle cx="844.40002" cy="773.20001" fill="#fff" r="3.4" stroke-width="2.68278"/><circle cx="839.20001" cy="270.60001" fill="#fff" r="3.4" stroke-width="2.68278"/><circle cx="847.79999" cy="562.29999" fill="#fff" r="3.4" stroke-width="2.68278"/><circle cx="1143.3" cy="506.20001" fill="#fff" r="3.4" stroke-width="2.68278"/><circle cx="1118.3" cy="1092.3" fill="#fff" r="3.4" stroke-width="2.68278"/><circle cx="321.79999" cy="377.20001" fill="#fff" r="2.2" stroke-width="2.68278"/><circle cx="548.29999" cy="996.29999" fill="#fff" r="2.2" stroke-width="2.68278"/><circle cx="450.10001" cy="795.79999" fill="#fff" r="2.2" stroke-width="2.68278"/><circle cx="649.79999" cy="565.70001" fill="#fff" r="2.2" stroke-width="2.68278"/><circle cx="353.5" cy="747.5" fill="#fff" r="2.2" stroke-width="2.68278"/><circle cx="712.5" cy="1141.6" fill="#fff" r="2.2" stroke-width="2.68278"/><circle cx="979.59998" cy="889" fill="#fff" r="2.2" stroke-width="2.68278"/><circle cx="542" cy="297" fill="#fff" r="2.2" stroke-width="2.68278"/><circle cx="856.40002" cy="1023.2" fill="#fff" r="2.2" stroke-width="2.68278"/><circle cx="1069.3" cy="771.59998" fill="#fff" r="2.2" stroke-width="2.68278"/><circle cx="306" cy="534.09998" fill="#fff" r="2" stroke-width="2.68278"/><circle cx="874.79999" cy="1239.7" fill="#fff" r="2" stroke-width="2.68278"/><circle cx="538" cy="1256.1" fill="#fff" r="2" stroke-width="2.68278"/><circle cx="1248.6" cy="839.90002" fill="#fff" r="2" stroke-width="2.68278"/><circle cx="1218.2" cy="547" fill="#fff" r="2" stroke-width="2.68278"/><circle cx="1200.4" cy="686.29999" fill="#fff" r="2" stroke-width="2.68278"/></g></g></svg>