<svg height="500" viewBox="0 0 132.29167 132.29167" width="500" xmlns="http://www.w3.org/2000/svg" xmlns:xlink="http://www.w3.org/1999/xlink"><filter id="a" color-interpolation-filters="sRGB" height="1.725002" width="1.159414" x="-.079707" y="-.362501"><feGaussianBlur stdDeviation=".51511064"/></filter><filter id="b" color-interpolation-filters="sRGB" height="1.054" width="1.054" x="-.027" y="-.027"><feGaussianBlur stdDeviation=".88971242"/></filter><filter id="c" color-interpolation-filters="sRGB" height="1.084899" width="1.084899" x="-.04245" y="-.04245"><feGaussianBlur stdDeviation=".47247794"/></filter><radialGradient id="d" cx="-59.063297" cy="24.897783" gradientTransform="matrix(-.89325677 -.33627996 1.4203177 -.59252489 -47.507261 57.217993)" gradientUnits="userSpaceOnUse" r="36.765175" spreadMethod="reflect"><stop offset="0" stop-color="#66625c"/><stop offset="1" stop-color="#84817b"/></radialGradient><filter id="e" color-interpolation-filters="sRGB" height="1.078844" width="1.078844" x="-.039422" y="-.039422"><feGaussianBlur stdDeviation=".845527"/></filter><path d="m70.627181 93.978901c1.718116-.000005 3.059528.166838 3.613147.499255 1.1072.664857-1.344813 1.748829-5.476922 2.413884-4.132188.665074-8.394743.661796-9.501892-.0031-1.107251-.664839 1.351182-1.745984 5.482003-2.410832 2.06542-.332429 4.165569-.499251 5.883669-.499256z" filter="url(#a)" opacity=".5" transform="matrix(.85502767 0 0 1 38.252069 12.196006)"/><g stroke-width="6.35794" transform="matrix(.15729787 0 0 .15726969 10.510461 84.162238)"><path d="m525.34877 75.796112c-10.92261-.000127-21.86236 4.178162-30.18735 12.50289-16.65008 16.650088-16.73168 43.796088-.0764 60.451108 16.65549 16.65549 43.80148 16.57344 60.45111-.0764 16.65011-16.64961 16.65009-43.72484 0-60.374685-8.32501-8.325035-19.26483-12.502785-30.18736-12.502913z" fill="#41413f"/><path d="m496.85819 89.996601c-15.73245 15.732449-15.80734 41.323489-.0751 57.055459 15.73245 15.73245 41.32348 15.65707 57.05546-.0751 15.73244-15.73197 15.73244-41.24787 0-56.980084-7.86623-7.86623-18.17802-11.799583-28.49017-11.799703s-20.62394 3.933473-28.49017 11.799458z" fill="#41413f"/><circle cx="66.145836" cy="39.542774" fill="url(#d)" filter="url(#b)" r="39.542774" transform="matrix(.90725093 0 0 .90725093 465.31872 82.630196)"/><g fill="#888783"><path d="m64.75637 40.032365a30.644657 19.640671 45 0 1 7.78099 35.557096 30.644657 19.640671 45 0 1 -35.55709-7.780994 30.644657 19.640671 45 0 1 -7.781-35.557095 30.644657 19.640671 45 0 1 35.5571 7.780993z" filter="url(#e)" transform="matrix(.90725093 0 0 .90725093 465.31872 82.630196)"/><path d="m95.61188 9.4458012a15.608357 10.637955 45 0 1 3.5146 18.5589498 15.608357 10.637955 45 0 1 -18.55894-3.51461 15.608357 10.637955 45 0 1 -3.51461-18.5589424 15.608357 10.637955 45 0 1 18.55895 3.5146026z" filter="url(#c)" opacity=".5" stroke-width=".196775" transform="matrix(.90725093 0 0 .90725093 462.9838 83.634367)"/></g></g></svg>