<svg height="500" viewBox="0 0 132.29167 132.29167" width="500" xmlns="http://www.w3.org/2000/svg" xmlns:xlink="http://www.w3.org/1999/xlink"><linearGradient id="a" gradientUnits="userSpaceOnUse" x1="116.132103" x2="22.66864" y1="0" y2="132.292314"><stop offset="0" stop-color="#d3b879"/><stop offset=".25" stop-color="#ebd6ad"/><stop offset=".5" stop-color="#ebd6ad"/><stop offset=".75" stop-color="#ebd6ad"/><stop offset="1" stop-color="#d3b879"/></linearGradient><filter id="b" color-interpolation-filters="sRGB" height="1.006074" width="1.005927" x="-.002964" y="-.003037"><feGaussianBlur stdDeviation=".35225928"/></filter><filter id="c" color-interpolation-filters="sRGB" height="1.008763" width="1.008521" x="-.00426" y="-.004381"><feGaussianBlur stdDeviation=".12334782"/></filter><linearGradient id="d" gradientUnits="userSpaceOnUse" spreadMethod="repeat" x1="2.65696797391" x2="19.69444826359" y1="90.87895775952" y2="103.06779953778"><stop offset="0" stop-color="#2e2442"/><stop offset=".125" stop-color="#342a4b"/><stop offset=".25" stop-color="#322848"/><stop offset=".375" stop-color="#322947" stop-opacity=".95"/><stop offset=".5" stop-color="#322a46" stop-opacity=".98"/><stop offset=".75" stop-color="#2e2442" stop-opacity=".97"/><stop offset=".90573049" stop-color="#34284e"/><stop offset="1" stop-color="#2e2442"/></linearGradient><filter id="e" color-interpolation-filters="sRGB" height="1.037806" width="1.034359" x="-.017179" y="-.018903"><feGaussianBlur stdDeviation=".74671332"/></filter><path d="m250.4707 499.98252c51.835.039 104.53834.44093 157.50391-5.34765 23.52703-2.57129 63.66601-11.94336 63.66601-11.94336l20.95704-4.78907-8.40625-19.79687c-3.62583-17.49004-4.76016-37.13347-3.75586-52.85156 2.74125-40.11079 16.93348-78.89745 19.56445-119.01563.82783-12.6231.69137-24.46921.34447-42.18006-.34689-17.71086-3.70393-41.24364-10.31713-63.95285-2.60935-14.83079-5.05012-29.7543-6.34961-45.51563-2.71116-32.88338-4.95912-70.15255 6.76172-98.751949l9.07227-22.13086c-31.31324-3.171506-61.13792-7.4347299-87.3418-9.5429685l-13.60547 11.3652345-1.34961-12.5097658-15.11718-.9667968c-21.86813-1.39044747-38.84642-1.91868801-56.31446-2.02539065-5.82268-.03556755-16.5078-.02734375-22.63867-.02734375l-72.83689.32721653c-19.69041.32721654-47.16904 3.59837407-76.59084 5.94817407l-4.60938 8.8105474-.25781.496093-1.24609-7.4980466-16.01758.8046875c-16.98083.8557334-36.820718 3.3800201-54.957034 13.3808591-16.734322 9.227747-31.341428 23.054127-40.964844 40.189453-16.465591 29.318407-21.106486 61.290856-25.148437 87.197266-3.2490518 20.82441-5.7994558 41.62795-7.5839844 62.33594-1.94377399 12.57614-2.92389106 25.28234-2.93299587 38.00781l.00135527 27.97852c.01436867 46.72872-.62894005 93.96404 2.7929688 141.26953.9407191 13.00478 4.1699656 29.03511 14.3300782 43.82422 4.451018 6.4789 9.806394 11.40397 15.326172 15.69335 5.505744 4.27854 8.50915 8.11081 19.365234 9.82422 9.832331 1.66322 30.066099 3.74157 58.570317 5.875l12.77148.95899 10.22852-23.69336 15.71484 25.27344 9.36523.50195c25.46458 1.34785 54.43325 2.49136 81.95508 2.47266z" fill="#857347" stroke-width="3.77953" transform="scale(.26458334)"/><path d="m43.667127 6.1988049-6.649318 12.7232891-1.962733-11.8144838c-4.151997.209236-8.734935.8884646-12.483913 2.9557488-3.6649 2.020923-6.931432 5.134922-8.987607 8.796119-3.5936294 6.398768-4.9680452 14.21181-6.1007497 21.471745-1.7239508 11.049459-2.2092041 22.267477-2.7292176 33.438734-.5652131 12.142264-1.0750022 24.437952.6932615 36.463853.4873297 3.31431 1.1113893 6.8345 3.0041972 9.58967 1.4496055 2.11005 4.6865666 4.54405 6.0084106 4.7506 2.08291.35408 7.610648.94421 15.101134 1.50483l4.966963-11.50761 7.650707 12.30431c6.689358.35408 14.283448.65398 21.429996.64914 14.613556-.01 29.290534.20101 43.819142-1.38681 5.49586-.60065 16.3028-3.06871 16.3028-3.06871s-.84033-3.54005-1.04149-5.34358c-.4-3.58629-.56178-7.22034-.32107-10.82083.70788-10.588463 4.87617-20.80543 5.17179-31.413411.37415-13.42584-4.11707-26.631272-4.32122-40.060773-.14104-9.278493-1.4412-19.010796 2.14288-27.7560998-5.56781-.6078373-8.70335-1.1802678-14.75182-1.6700785l-8.93248 7.4651953-.88126-8.1733574c-7.610636-.4839091-12.854008-.5661144-19.284287-.5223869-5.84986.0397806-11.26574-.2361191-17.111594-.014796-6.768804.2562659-14.283499.9292252-20.732522 1.4396922z" fill="url(#a)" stroke-width="4.7625"/><g><path d="m73.755795 20.095783c-9.822977 5.109532-19.771161 9.972367-29.66291 14.946138 6.248855 1.562243 12.49771 3.124487 18.746565 4.68673-5.089953 1.121955-10.859057.08079-16.199799.461247-2.677717.03135-6.916079-.781417-4.007935 2.930201 3.382086 6.077886 5.668426 13.147992 4.019279 20.112687-.873553 4.822584-3.593659 9.055296-6.144112 13.05725 1.722086 1.099715 4.339913.139249 6.436413.448357h15.896154c1.102962 3.921544-6.51472 4.534535-6.896692 6.302853-3.549635-6.188184-11.655403-2.500649-15.11991.764365-5.636851-.88365-11.867626-6.850866-8.812466-12.818128 3.187907-4.073811 7.257306-9.513571 3.634072-14.654639-2.976125-5.11458-11.031698-7.297853-15.249366-2.438882-5.98747 5.052274-.340202 12.05133.811247 17.359989-1.076711 8.619112-1.666243 18.670747 4.730066 25.505442.221742 3.055105-6.207702 5.863997-8.624425 8.821437-2.826477 1.33443.961813 3.17773 1.779487 4.7925 1.267733 1.47894 2.535467 2.95789 3.803201 4.43684 3.102798-1.48344 6.660372-8.87855 9.26537-3.8911 1.88213 3.42404 3.939699 4.56661 6.334762 1.32018 1.423522-1.22021 2.847045-2.44041 4.270567-3.66062 1.780456 2.07718 3.560913 4.15436 5.341369 6.23154 2.423291-2.07718 4.846583-4.15436 7.269874-6.23154 1.780324 2.07718 3.560649 4.15436 5.340973 6.23154 2.423294-2.07718 4.846589-4.15436 7.269883-6.23154 1.780454 2.07718 3.560907 4.15436 5.341361 6.23154 2.625782-1.49522 5.528852-6.24328 7.98325-5.72797 1.585767 1.91317 3.171534 3.82633 4.757301 5.7395l13.294731-11.0241c5.879085-1.57122 8.900295-8.470137 11.933235-13.410878 2.78396-5.685252 4.32854-11.963268 4.57166-18.285635 3.11439.754192 5.56906-.268213 4.65594-3.668196 0-2.886339 0-5.772679 0-8.659019-2.10181-1.051159-4.20362-2.102318-6.30543-3.153477 1.21186-3.596456-1.61111-4.297781-4.42318-4.577471-3.18453-.651161-6.36907-1.302323-9.5536-1.953485-1.360507-3.591635-3.179138-8.460361-6.792876-9.909954-6.557174 0-13.114349 0-19.671523 0-.0091-6.694561.02169-13.389223-.02254-20.083702zm-6.890395 7.525796c4.057939-1.312052 3.441043 2.469676 3.367455 5.07904v7.479468c-2.93322.65291-4.314793-.344735-4.12156-3.145127-3.85235-1.274019-7.914692-2.043469-11.856743-3.10796 4.203616-2.101807 8.407232-4.203614 12.610848-6.305421zm-20.165123 16.105311h46.032996c7.106091 8.086483 6.965938 21.341706-.0058 29.465086-15.384615 0-30.76923 0-46.153845 0 5.33252-8.80842 5.614704-20.658065.126649-29.465086zm53.136214 9.900331c3.612479.738405 7.224969 1.47681 10.837449 2.215215-2.27234 4.29768 6.92483 4.9438 5.45891 6.406638-2.2794 0-4.55881 0-6.83822 0-1.30447 3.973078 2.06401 3.73875 4.79687 3.546801 3.48263-1.595122 4.15272 3.779313.34834 2.758626-3.22574 0-6.45149 0-9.67723 0-1.64204-4.97576-3.28408-9.95152-4.926119-14.92728zm-73.200134 1.301574c6.891645-.414575 9.014268 9.001547 3.399103 12.439094-3.924724 5.037691-3.033693 13.089267 2.725751 16.373638 4.095415 2.663409 9.179861 3.554896 10.247578 8.817994 3.536907 4.749866 10.029227 3.105011 13.525559-.05111 3.048097 3.254394 7.844574 4.622462 11.489315 1.322519 3.629416-1.819993 6.48202 4.487923 10.571037 1.054305 4.518492-3.933222 9.007777 3.774302 14.000681-.501199 6.432511-2.311001 1.033903-9.990848 5.209912-12.971425 4.815687-1.370841 3.997077-9.596568 9.630887-9.312486 1.47468.46303 5.002-1.04619 4.84134.988129-.52663 10.172597-5.09805 20.049684-12.441296 27.097646-5.414909.89647-9.204409 8.15015-13.682442 9.14072-5.083556-3.33881 5.760554-6.60496 4.804281-8.19664-4.252194.0827-8.877786.14876-11.681429 3.91058-2.250498 2.25658-7.314887 7.19156-7.281734 1.3845 2.213312-1.77155 7.646763-5.16807 1.761075-4.03718-3.407554-.63627-6.030892 1.39483-8.245375 3.64283-1.469159 1.25935-2.938318 2.51869-4.407477 3.77804-3.576229-2.16756-.866067-4.18175 1.333827-5.81444 4.119527-2.39322-2.431871-1.61025-4.334269-1.71538-4.44524.45173-8.325149 10.90141-11.614739 5.05361.750156-1.72921 3.025291-2.77351 4.40909-4.2563 3.988588-2.29203-3.744816-1.94778-5.382429-1.47487-3.28654 2.56635-6.370462 5.53784-9.633184 8.20777-3.57619-2.16752-.866136-4.18181 1.333691-5.81461l3.934179-3.37221c-5.183929-1.912153-9.092178.82673-12.515365 4.59823-2.416612 1.88267-6.112606 6.99829-7.373217 1.64671 3.098787-3.17368 8.858651-6.58168 10.4176-9.670278-5.725277-3.651935-7.95067-10.77038-7.557193-17.271258-.184016-5.982861.567493-12.658794 5.035505-17.087449 2.861752-6.057987-7.594108-3.892382-4.23136.849017-6.239727 3.226816-3.87558-10.248267 1.711098-8.758499zm73.668123 11.434353c3.22231 5.134879-2.039935 9.861511-5.360515 13.327901-3.651606 1.662406-7.96271-1.942781-11.540342 1.658159-2.596911 1.299398-4.99869-2.61502-8.464114-1.657388-3.83404-2.756287 1.820035-3.460079 4.200589-2.95343h15.16876c2.832369-2.879343 4.903404-6.488972 5.995622-10.375242zm-33.919002 10.375242c4.092862-2.02531 5.550062 3.9665 2.52563 5.402795-2.285767-1.127423-2.916388-2.959544-2.52563-5.402795zm-16.992387 6.305428c7.1488-.547983 4.244039 12.112077-1.944044 8.65628-4.347906-1.747206-2.712628-8.965576 1.944044-8.65628zm13.708052 0c7.148801-.547993 4.244051 12.112071-1.944035 8.65628-4.347918-1.747202-2.712635-8.965564 1.944035-8.65628zm12.610848 0c7.148803-.548002 4.244061 12.112076-1.944029 8.656281-4.34791-1.747202-2.712638-8.965559 1.944029-8.656281zm12.610856 0c7.148793-.54799 4.244045 12.112069-1.944036 8.65628-4.347916-1.747203-2.712634-8.965564 1.944036-8.65628z" fill="url(#d)"/><path d="m73.755795 20.095783c2.560428 10.771738-30.888004 3.942262-29.66291 14.946138.712712 6.401628 19.442521-1.716741 18.746565 4.68673-.583688 5.370496-11.088953-1.288659-16.199799.461247-1.565714.536086-3.407737 1.387927-4.007935 2.930201-2.479494 6.371323 4.846457 13.326125 4.019279 20.112687-.581982 4.77486-8.578807 8.908726-6.144112 13.05725 1.088568 1.854832 4.287043.373586 6.436413.448357 5.295515.184218 13.978971-4.939719 15.896154 0 1.12682 2.903309-4.022764 5.103076-6.896692 6.302853-4.656893 1.94411-10.595825 3.000181-15.11991.764365-4.648391-2.297248-7.886201-7.71647-8.812466-12.818128-.89907-4.951879 6.411372-10.457492 3.634072-14.654639-2.840698-4.292956-11.411533-5.869636-15.249366-2.438882-4.318897 3.860793.14633 11.605297.811247 17.359989.992476 8.589632 7.247073 17.233111 4.730066 25.505442-1.197055 3.934207-7.770039 4.798877-8.624425 8.821437-.354044 1.66688.914953 3.32402 1.779487 4.7925.988254 1.67863 1.907582 3.98844 3.803201 4.43684 3.259799.77109 5.93106-3.56979 9.26537-3.8911 2.147009-.20689 4.245714 1.85714 6.334762 1.32018 1.815892-.46675 2.401169-3.8044 4.270567-3.66062 2.727762.2098 2.613607 6.02174 5.341369 6.23154 3.182312.24476 4.087566-6.47636 7.269874-6.23154 2.727673.20984 2.6133 6.0217 5.340973 6.23154 3.18231.24482 4.087569-6.4763 7.269883-6.23154 2.72776.2098 2.625185 5.90431 5.341361 6.23154 3.251679.39174 4.73492-6.14658 7.98325-5.72797 2.464547.3176 2.283158 5.50824 4.757301 5.7395 5.73195.53577 9.153628-7.02491 13.294731-11.0241 4.304295-4.156799 9.137835-8.120157 11.933235-13.410878 2.93508-5.555098 1.1588-13.010575 4.57166-18.285635 1.07325-1.658868 3.79343-1.890618 4.65594-3.668196 1.26001-2.596791 1.51732-6.203678 0-8.659019-1.23538-1.999096-4.41092-1.763023-6.30543-3.153477-1.71053-1.255419-2.5633-3.556293-4.42318-4.577471-2.84921-1.564373-6.84511-.156446-9.5536-1.953485-3.337142-2.214139-3.249777-8.043038-6.792876-9.909954-5.801127-3.056707-15.032299 4.63402-19.671523 0-4.736433-4.73112-4.75366-15.347269-.02254-20.083702.000001-.000001.000004-.000001.000004 0zm-6.890395 7.525796c1.962609.523864 2.781276 3.134134 3.367455 5.07904.719451 2.387094 2.234569 6.373788 0 7.479468-1.548924.766419-2.568526-2.387071-4.12156-3.145127-3.671717-1.792212-11.434033.955886-11.856743-3.10796-.486235-4.674565 8.07004-7.517464 12.610848-6.305421zm-20.165123 16.105311c10.873374-10.826738 35.183983-10.851149 46.032996 0 6.944304 6.945671 6.939871 22.520782-.0058 29.465086-10.879636 10.877495-35.298684 10.90192-46.153845 0-6.93011-6.959961-6.833312-22.534976.126649-29.465086zm53.136214 9.900331c2.450159-2.755361 7.662419.340533 10.837449 2.215215 2.41594 1.426481 6.635 3.859396 5.45891 6.406638-.9555 2.069472-6.12479-2.16488-6.83822 0-.62241 1.888658 3.79182 1.830908 4.79687 3.546801.46844.799753.96129 2.063407.34834 2.758626-2.13329 2.419607-7.0632 1.890043-9.67723 0-4.24607-3.070072-8.407938-11.011745-4.926119-14.92728zm-73.200134 1.301574c.571593 4.26021 2.47847 8.240458 3.399103 12.439094 1.185062 5.404591.01213 11.551791 2.725751 16.373638 2.210146 3.927215 6.019636 7.258419 10.247578 8.817994 4.229948 1.560315 9.023927-.300813 13.525559-.05111 3.849143.21351 7.656304.910794 11.489315 1.322519 3.520907.3782 7.031668.941673 10.571037 1.054305 4.66752.148532 10.179258 2.182927 14.000681-.501199 3.812952-2.678176 2.609544-9.104991 5.209912-12.971425 2.492157-3.705534 5.343677-8.062826 9.630887-9.312486 1.58125-.46091 4.09612-.480687 4.84134.988129 4.49702 8.86353-5.99193 19.535168-12.441296 27.097646-3.559124 4.1734-9.691643 12.90346-13.682442 9.14072-2.304242-2.17256 6.800165-5.73778 4.804281-8.19664-2.587827-3.188117-7.708487 2.87296-11.681429 3.91058-2.390542.62434-5.740334 3.31545-7.281734 1.3845-.915951-1.14744 2.801671-3.00145 1.761075-4.03718-2.129647-2.11969-5.703323 2.04081-8.245375 3.64283-1.637069 1.03169-2.751589 4.77925-4.407477 3.77804-1.701626-1.02886 2.259508-4.05455 1.333827-5.81444-.72332-1.37516-2.780696-1.74144-4.334269-1.71538-4.221585.0708-9.268904 8.56414-11.614739 5.05361-1.134959-1.69846 4.914793-2.27712 4.40909-4.2563-.460526-1.80238-3.566626-1.87922-5.382429-1.47487-4.117693.91695-6.026433 10.39581-9.633184 8.20777-1.700144-1.0314.304814-4.11294 1.333691-5.81461.893671-1.47805 4.807891-1.88227 3.934179-3.37221-2.248219-3.833879-8.251342 3.34474-12.515365 4.59823-2.416057.71024-6.201461 3.87578-7.373217 1.64671-2.2046-4.19389 9.452805-5.03151 10.4176-9.670278 1.279614-6.152423-7.161929-10.999616-7.557193-17.271258-.373495-5.926229 9.044321-12.706914 5.035505-17.087449-.971195-1.06125-3.211558 1.863647-4.23136.849017-2.108766-2.09807-1.249764-9.045014 1.711098-8.758499.000001 0 0 .000001 0 .000002zm73.668123 11.434353c4.30511 2.096618-1.593985 10.371039-5.360515 13.327901-3.056865 2.39975-7.655302 1.756588-11.540342 1.658159-2.87403-.07282-7.865595 1.154573-8.464114-1.657388-.356338-1.674147 2.568659-2.437146 4.200589-2.95343 4.820759-1.525116 10.789416 2.527261 15.16876 0 3.459599-1.996488 2.404502-12.124141 5.995622-10.375242zm-33.919002 10.375242 2.52563 5.402795zm-16.992387 6.305428-1.944044 8.65628zm13.708052 0-1.944035 8.65628zm12.610848 0-1.944029 8.656281zm12.610856 0-1.944036 8.65628z" fill="url(#d)" filter="url(#e)" opacity=".25"/><g stroke-width="3.65946" transform="matrix(.27326426 0 0 .27326426 172.48638 -14.689585)"><path d="m-233.65799 75.060863c-.007-.000026-.013.002-.0195.002-9.80064-.03336-19.58638 4.045083-25.45313 7.138671-2.16431 1.141119-6.14429 3.468932-11.11328 5.861329-4.96899 2.392403-10.80902 4.743423-15.71094 5.691413-8.62123 1.66677-15.49799 6.523314-19.20898 12.669924-1.8555 3.0733-2.93803 6.56573-2.6543 10.17969.28373 3.61395 2.12392 7.22905 5.19922 9.75586 6.30637 5.18129 9.10824 10.64358 9.55859 15.74023.45036 5.09665-1.37531 10.163-5.82226 14.86328-7.20693 7.61766-7.35029 18.06404-2.7168 25.40625s13.66029 12.14313 23.82813 10.91992c8.00037-.96231 13.23766-.83978 17.14648.23438 3.90883 1.07415 6.87005 3.04191 10.75391 6.92383 6.99276 6.98803 17.36719 8.73991 26.74414 6.8457 9.37694-1.89422 18.38381-7.64565 22.07226-17.20117 2.61913-6.78398 5.45807-12.72705 12.52149-15.23828 6.74006-2.39537 11.48635-7.61325 13.18945-13.65625 1.70311-6.043.35698-12.89082-4.0957-18.21875h-.002c-2.08066-2.48946-2.80364-4.13888-2.74415-6.83008.0595-2.6912 1.27236-6.80182 4.58008-12.83203 3.51844-6.41456 4.19717-13.86964.70117-19.83399-3.49599-5.964344-10.90416-9.345074-20.15234-8.828124-4.81145.26889-7.52737-.94024-10.75781-3.41602-3.23044-2.47577-6.65187-6.459841-11.1875-10.882815v-.002c-4.07471-3.972954-9.52225-5.272276-14.65625-5.292969zm-.041 9.97461c.00074.000003.001-.000003.002 0 3.52993.01457 6.06496.835125 7.73242 2.460937 4.12443 4.021996 7.60321 8.224186 12.08398 11.658206 4.48077 3.434024 10.28554 5.857464 17.38086 5.460944 6.78397-.37921 9.65521 1.63449 10.99024 3.9121 1.33502 2.27762 1.39799 5.91233-.83985 9.99219-3.69975 6.74491-5.69339 12.19703-5.80859 17.4082-.1152 5.21118 2.01854 9.80291 5.06445 13.44727 2.45771 2.94082 2.97448 6.18619 2.14844 9.11719-.82605 2.931-3.00087 5.56731-6.92774 6.96289h-.002c-11.08168 3.93982-15.66631 13.74565-18.48437 21.04492-2.16889 5.61884-8.00311 9.65428-14.74219 11.01563-6.73908 1.36134-13.75566-.16264-17.71875-4.12305-4.55978-4.5575-9.31695-7.88006-15.16211-9.48633s-12.39545-1.55412-20.98047-.52148c-6.41729.77201-11.63562-2.27253-14.20117-6.33789s-2.86293-8.58805 1.52734-13.22852c6.05409-6.39898 9.23221-14.4419 8.51172-22.5957s-5.26477-16.08349-13.16015-22.57032c-1.1956-.98235-1.50533-1.75347-1.58985-2.83007-.0845-1.0766.24727-2.58135 1.25-4.24219 2.00546-3.32169 6.62039-6.88207 12.56445-8.03125 6.38785-1.23536 12.77289-3.913744 18.14454-6.500004 5.37164-2.58626 9.84817-5.18547 11.4375-6.02344 4.80536-2.533909 14.04387-6.016323 20.77929-5.990233z" fill="#6c131e"/><path d="m-233.67812 80.048213c-8.27141-.03281-17.78794 3.750204-23.12618 6.565106-3.75364 1.979084-16.91322 9.855197-28.20299 12.038547-14.56531 2.815964-22.98647 16.835434-14.44466 23.853774 14.20177 11.66813 14.6931 26.78536 4.19205 37.88463-11.59721 12.25815.30692 29.94184 16.89206 27.94662 16.58541-1.99496 23.57888.14366 32.02252 8.58308 10.95587 10.94846 34.78134 6.55029 40.63868-8.62409 2.7186-7.04163 6.43044-14.9151 15.503-18.14063 10.66694-3.79095 13.84697-15.70911 6.93658-23.97787-5.12657-6.13383-5.71765-12.4841 1.28984-25.25924 5.75628-10.49443 1.23217-22.179234-14.79999-21.283084-11.90678.665424-17.04579-7.2644-25.70586-15.709374-2.87126-2.799557-6.86277-3.860007-11.19532-3.877469z" fill="#c20a0a" stroke-width="9.97479"/><path d="m-239.05243 95.443479c-25.8613 0-46.97079 21.099831-46.97079 46.963031 0 25.86295 21.10837 46.97284 46.97079 46.97284 25.86241 0 46.97078-21.10989 46.97078-46.97284 0-25.86249-21.10938-46.963031-46.97078-46.963031z" fill="#6c131e" stroke-width="1"/><path d="m-239.05234 105.15056c-20.60893 0-37.25677 16.64706-37.25677 37.25678 0 20.60945 16.64811 37.26471 37.25703 37.26471 20.6084 0 37.26498-16.655 37.26498-37.26445 0-20.60893-16.65632-37.25677-37.26498-37.25677z" fill="#c20a0a" stroke-width="9.97479"/><path d="m-920.52927 467.43942c-5.58909 1.05502-11.30953 2.76071-17.28515 5.22266l-28.51367 11.74805 29.24414 9.78906c3.26725 1.09376 6.49695 2.28987 9.67187 3.57226-17.47003 7.74917-32.36177 21.94399-43.49414 36.00977-7.71534 9.74835-14.67535 20.61841-20.2793 32.24023l-.96093 1.9961-.15235 2.21094c-.23924 3.48725-.37304 7.02705-.37305 10.61718 0 84.08701 68.22681 152.3418 152.31446 152.3418 11.53886 0 22.78934-1.28657 33.60351-3.71484l33.65625-7.5586-69.56836-31.29297-.40625-.14648c-27.95187-10.12052-47.95099-42.21489-52.66992-69.47266-2.35948-13.6289-.62176-25.44943 3.11328-31.5664 3.18078-5.20917 6.95916-7.81127 15.54493-7.10352l-.82227 2.23633 1.55664 4.03906c8.89965 23.09855 23.90307 44.20088 40.60352 60.44922 16.70041 16.24834 34.73237 28.04065 52.91601 30.49024l.57422.0781.58008.0195c.69051.0242 1.35402.005 2.00976-.0312 11.15653.43709 24.2631-3.74406 34.34375-14.89258l13.80274-15.25976 10.80859-9.32422c13.69459-19.03892 20.01888-46.78418 3.10742-72.88477l-3.02343-4.66797-5.53907-.52734c-19.53819-1.85745-32.26973-12.07115-36.52929-25.64453-4.10347-13.07622-15.35431-20.64424-27.18555-25.91797l-8.89648-3.9668-3.37696-6.12304c-8.03346-14.56562-15.58306-26.76765-26.81445-35.12305-6.37742-4.74395-14.09769-8.05702-22.95898-9.55273l-11.68358-.89832c-4.11065.0533-8.34623.44535-12.74609 1.04883l-27.91797 3.82812 12.48242 9.26758c-5.47103-1.64944-11.1903-2.71763-17.20708-2.7247z" fill="#6c131e" filter="url(#b)" stroke-width=".999999" transform="matrix(.26458334 0 0 .26458334 -16.706824 -11.275074)"/><path d="m-245.15593 112.10707c-.91879.0114-1.92688.10189-3.00757.25011 3.62909 2.69424 6.72573 5.95642 8.89713 9.28367.2185 0 .436.002.65268.006 2.37806.0514 4.67142.38253 7.00525.94775-2.06596-3.74584-3.9406-6.6063-6.24613-8.32146-1.81876-1.35291-3.95721-2.12812-6.91327-2.16576-.12728-.002-.25673-.002-.38809 0zm-12.06541 3.02203c-.0961-.00026-.19213.001-.28888.003-1.84876.0408-3.86455.51597-6.1681 1.46503 7.39507 2.4756 14.08254 6.64319 17.62632 11.00243 2.419-.67526 3.87541-1.93744 4.79867-3.79306-4.5746-3.86812-8.22392-6.76283-11.83958-7.9778-1.33845-.44991-2.6897-.69851-4.12843-.6997zm-.0269 6.94842c-5.18893.88958-10.43468 5.31303-13.95883 9.76581-1.9101 2.41342-3.63409 5.10876-5.01055 7.96334-.059.85931-.0915 1.72633-.0915 2.60087 0 20.60945 16.64824 37.2644 37.25716 37.2644 2.827 0 5.57882-.31496 8.2243-.90899l-9.97871-4.48862c-17.59126-6.36927-22.7459-37.4463-6.17017-34.33795.76847-1.86443 1.3055-3.68921 1.45004-5.45807l2.45205.20051c-.22167 2.71055-1.16183 5.32933-2.3735 7.88995-.0964.26788-.19385.54264-.28784.7984 4.32306 11.22029 14.9756 21.15159 22.31078 22.13974.12045.004.25066.00018.38861-.0114 2.23984.13624 4.72027-.5561 6.87245-2.93626l1.0511-1.1622-1.37873-.74466c-.85652-.46267-1.88073-.93387-2.39107-1.43815-.2551-.25221-.36764-.45674-.40462-.68368-.0371-.22706-.0171-.55641.29352-1.12913l1.40456-2.58744-2.82773.81907c-.82981.24023-2.27806-.39906-3.05718-1.40973-.38964-.50546-.57999-1.04083-.57722-1.4273.003-.38673.0947-.67486.62476-1.05989l2.56057-1.85932-3.14399-.3576c-1.31289-.14966-2.15479-.87662-2.52336-1.6185-.36883-.74161-.30446-1.32719.18086-1.75183l1.60662-1.4056-2.02158-.68523c-.88417-.29959-1.35519-.99424-1.36322-1.3994-.004-.18073.0312-.35086.24236-.58911 1.43874-.3146 2.79841-.0595 3.69745.83871.81006.80901 1.09902 1.99118.91829 3.26853 1.12546-.29669 2.23582-.21235 3.17397.32866 1.22943.7091 1.92827 2.06541 2.06292 3.68092 2.00239-1.33369 4.23209-1.67482 5.95777-.67955 2.03595 1.17416 2.81185 3.88489 2.21227 6.81199 3.15811-4.39057 4.55249-9.96713.73898-15.85278-6.15063-.58472-10.75346-4.03769-12.28039-8.90333-.66158-2.10821-2.80147-3.77387-5.52835-4.98936l-.0103.0284c-3.91473-1.42464-7.31537-2.28395-10.87324-2.466l.0103.0207c-.30197-.0123-.60054-.0211-.89039-.0227-1.25538 3.01096-3.77268 5.25211-7.56026 6.06217l-.77721.16588-.47078-.64027c-1.87128-2.54444-5.42717-5.32437-9.741-7.64398zm20.56309 8.59017c3.67608-.01 5.9067 1.52945 5.54023 5.85132-4.71821.44623-6.83582-2.19635-8.30234-5.61206.98816-.15204 1.91374-.2365 2.76211-.23874zm6.37222 8.73539-.00053.00052c.48809.009.93996.1307 1.31827.37001-.19876.14506-.38114.29988-.54726.46612-.69053.68976-1.06472 1.59563-1.04748 2.46703.0241 1.22707.69376 2.2622 1.66915 2.96985-.41332 1.0666-.32296 2.29758.185 3.31969.50192 1.00936 1.38757 1.87859 2.54093 2.42156-.19021.44309-.31245.90363-.31574 1.36012-.008 1.10663.44474 2.11151 1.08882 2.94711.89405 1.15968 2.21964 2.09764 3.68918 2.35748-.024.28697-.0268.57036.0176.84336.13822.84823.59402 1.53476 1.10277 2.0376.44888.4436.94669.77558 1.42162 1.05213-.8352.63079-1.63437.92865-2.45101 1.02526-.85758-1.04476-1.27816-2.51202-1.23868-4.14031-1.5489.81308-3.18674.94205-4.4912.18965-1.93077-1.11361-2.55272-3.82196-1.73581-6.62492-1.49218.36462-2.9127.12108-3.84163-.80718-1.16823-1.16692-1.25556-3.11007-.40773-4.99557-.48387-.081-.91643-.28481-1.25367-.62166-1.15941-1.1581-.75991-3.4343.89194-5.08445 1.03239-1.03133 2.30977-1.57405 3.40548-1.55339z" fill="#c20a0a" filter="url(#c)" stroke-width="6.08542"/></g></g></svg>