<svg height="500" viewBox="0 0 132.29167 132.29167" width="500" xmlns="http://www.w3.org/2000/svg" xmlns:xlink="http://www.w3.org/1999/xlink"><linearGradient id="a" gradientUnits="userSpaceOnUse" x1="116.132103" x2="22.66864" y1="0" y2="132.292314"><stop offset="0" stop-color="#d3b879"/><stop offset=".25" stop-color="#ebd6ad"/><stop offset=".5" stop-color="#ebd6ad"/><stop offset=".75" stop-color="#ebd6ad"/><stop offset="1" stop-color="#d3b879"/></linearGradient><filter id="b" color-interpolation-filters="sRGB" height="1.006074" width="1.005927" x="-.002964" y="-.003037"><feGaussianBlur stdDeviation=".35225928"/></filter><filter id="c" color-interpolation-filters="sRGB" height="1.008763" width="1.008521" x="-.00426" y="-.004381"><feGaussianBlur stdDeviation=".12334782"/></filter><linearGradient id="d" gradientUnits="userSpaceOnUse" spreadMethod="repeat" x1="146.2298" x2="236.62149" y1="133.800104" y2="235.090124"><stop offset="0" stop-color="#2e2442"/><stop offset=".125" stop-color="#342a4b"/><stop offset=".25" stop-color="#322848"/><stop offset=".375" stop-color="#322947" stop-opacity=".95"/><stop offset=".5" stop-color="#322a46" stop-opacity=".98"/><stop offset=".75" stop-color="#2e2442" stop-opacity=".97"/><stop offset=".90573049" stop-color="#34284e"/><stop offset="1" stop-color="#2e2442"/></linearGradient><filter id="e" color-interpolation-filters="sRGB" height="1.055034" width="1.04256" x="-.02128" y="-.027517"><feGaussianBlur stdDeviation="1.0154299"/></filter><path d="m250.4707 499.98252c51.835.039 104.53834.44093 157.50391-5.34765 23.52703-2.57129 63.66601-11.94336 63.66601-11.94336l20.95704-4.78907-8.40625-19.79687c-3.62583-17.49004-4.76016-37.13347-3.75586-52.85156 2.74125-40.11079 16.93348-78.89745 19.56445-119.01563.82783-12.6231.69137-24.46921.34447-42.18006-.34689-17.71086-3.70393-41.24364-10.31713-63.95285-2.60935-14.83079-5.05012-29.7543-6.34961-45.51563-2.71116-32.88338-4.95912-70.15255 6.76172-98.751949l9.07227-22.13086c-31.31324-3.171506-61.13792-7.4347299-87.3418-9.5429685l-13.60547 11.3652345-1.34961-12.5097658-15.11718-.9667968c-21.86813-1.39044747-38.84642-1.91868801-56.31446-2.02539065-5.82268-.03556755-16.5078-.02734375-22.63867-.02734375l-72.83689.32721653c-19.69041.32721654-47.16904 3.59837407-76.59084 5.94817407l-4.60938 8.8105474-.25781.496093-1.24609-7.4980466-16.01758.8046875c-16.98083.8557334-36.820718 3.3800201-54.957034 13.3808591-16.734322 9.227747-31.341428 23.054127-40.964844 40.189453-16.465591 29.318407-21.106486 61.290856-25.148437 87.197266-3.2490518 20.82441-5.7994558 41.62795-7.5839844 62.33594-1.94377399 12.57614-2.92389106 25.28234-2.93299587 38.00781l.00135527 27.97852c.01436867 46.72872-.62894005 93.96404 2.7929688 141.26953.9407191 13.00478 4.1699656 29.03511 14.3300782 43.82422 4.451018 6.4789 9.806394 11.40397 15.326172 15.69335 5.505744 4.27854 8.50915 8.11081 19.365234 9.82422 9.832331 1.66322 30.066099 3.74157 58.570317 5.875l12.77148.95899 10.22852-23.69336 15.71484 25.27344 9.36523.50195c25.46458 1.34785 54.43325 2.49136 81.95508 2.47266z" fill="#857347" stroke-width="3.77953" transform="scale(.26458334)"/><path d="m43.667127 6.1988049-6.649318 12.7232891-1.962733-11.8144838c-4.151997.209236-8.734935.8884646-12.483913 2.9557488-3.6649 2.020923-6.931432 5.134922-8.987607 8.796119-3.5936294 6.398768-4.9680452 14.21181-6.1007497 21.471745-1.7239508 11.049459-2.2092041 22.267477-2.7292176 33.438734-.5652131 12.142264-1.0750022 24.437952.6932615 36.463853.4873297 3.31431 1.1113893 6.8345 3.0041972 9.58967 1.4496055 2.11005 4.6865666 4.54405 6.0084106 4.7506 2.08291.35408 7.610648.94421 15.101134 1.50483l4.966963-11.50761 7.650707 12.30431c6.689358.35408 14.283448.65398 21.429996.64914 14.613556-.01 29.290534.20101 43.819142-1.38681 5.49586-.60065 16.3028-3.06871 16.3028-3.06871s-.84033-3.54005-1.04149-5.34358c-.4-3.58629-.56178-7.22034-.32107-10.82083.70788-10.588463 4.87617-20.80543 5.17179-31.413411.37415-13.42584-4.11707-26.631272-4.32122-40.060773-.14104-9.278493-1.4412-19.010796 2.14288-27.7560998-5.56781-.6078373-8.70335-1.1802678-14.75182-1.6700785l-8.93248 7.4651953-.88126-8.1733574c-7.610636-.4839091-12.854008-.5661144-19.284287-.5223869-5.84986.0397806-11.26574-.2361191-17.111594-.014796-6.768804.2562659-14.283499.9292252-20.732522 1.4396922z" fill="url(#a)" stroke-width="4.7625"/><g><g stroke-width="3.14797" transform="matrix(.31766516 0 0 .31766516 104.96022 -12.575874)"><path d="m-233.65799 75.060863c-.007-.000026-.013.002-.0195.002-9.80064-.03336-19.58638 4.045083-25.45313 7.138671-2.16431 1.141119-6.14429 3.468932-11.11328 5.861329-4.96899 2.392403-10.80902 4.743423-15.71094 5.691413-8.62123 1.66677-15.49799 6.523314-19.20898 12.669924-1.8555 3.0733-2.93803 6.56573-2.6543 10.17969.28373 3.61395 2.12392 7.22905 5.19922 9.75586 6.30637 5.18129 9.10824 10.64358 9.55859 15.74023.45036 5.09665-1.37531 10.163-5.82226 14.86328-7.20693 7.61766-7.35029 18.06404-2.7168 25.40625s13.66029 12.14313 23.82813 10.91992c8.00037-.96231 13.23766-.83978 17.14648.23438 3.90883 1.07415 6.87005 3.04191 10.75391 6.92383 6.99276 6.98803 17.36719 8.73991 26.74414 6.8457 9.37694-1.89422 18.38381-7.64565 22.07226-17.20117 2.61913-6.78398 5.45807-12.72705 12.52149-15.23828 6.74006-2.39537 11.48635-7.61325 13.18945-13.65625 1.70311-6.043.35698-12.89082-4.0957-18.21875h-.002c-2.08066-2.48946-2.80364-4.13888-2.74415-6.83008.0595-2.6912 1.27236-6.80182 4.58008-12.83203 3.51844-6.41456 4.19717-13.86964.70117-19.83399-3.49599-5.964344-10.90416-9.345074-20.15234-8.828124-4.81145.26889-7.52737-.94024-10.75781-3.41602-3.23044-2.47577-6.65187-6.459841-11.1875-10.882815v-.002c-4.07471-3.972954-9.52225-5.272276-14.65625-5.292969zm-.041 9.97461c.00074.000003.001-.000003.002 0 3.52993.01457 6.06496.835125 7.73242 2.460937 4.12443 4.021996 7.60321 8.224186 12.08398 11.658206 4.48077 3.434024 10.28554 5.857464 17.38086 5.460944 6.78397-.37921 9.65521 1.63449 10.99024 3.9121 1.33502 2.27762 1.39799 5.91233-.83985 9.99219-3.69975 6.74491-5.69339 12.19703-5.80859 17.4082-.1152 5.21118 2.01854 9.80291 5.06445 13.44727 2.45771 2.94082 2.97448 6.18619 2.14844 9.11719-.82605 2.931-3.00087 5.56731-6.92774 6.96289h-.002c-11.08168 3.93982-15.66631 13.74565-18.48437 21.04492-2.16889 5.61884-8.00311 9.65428-14.74219 11.01563-6.73908 1.36134-13.75566-.16264-17.71875-4.12305-4.55978-4.5575-9.31695-7.88006-15.16211-9.48633s-12.39545-1.55412-20.98047-.52148c-6.41729.77201-11.63562-2.27253-14.20117-6.33789s-2.86293-8.58805 1.52734-13.22852c6.05409-6.39898 9.23221-14.4419 8.51172-22.5957s-5.26477-16.08349-13.16015-22.57032c-1.1956-.98235-1.50533-1.75347-1.58985-2.83007-.0845-1.0766.24727-2.58135 1.25-4.24219 2.00546-3.32169 6.62039-6.88207 12.56445-8.03125 6.38785-1.23536 12.77289-3.913744 18.14454-6.500004 5.37164-2.58626 9.84817-5.18547 11.4375-6.02344 4.80536-2.533909 14.04387-6.016323 20.77929-5.990233z" fill="#6c131e"/><path d="m-233.67812 80.048213c-8.27141-.03281-17.78794 3.750204-23.12618 6.565106-3.75364 1.979084-16.91322 9.855197-28.20299 12.038547-14.56531 2.815964-22.98647 16.835434-14.44466 23.853774 14.20177 11.66813 14.6931 26.78536 4.19205 37.88463-11.59721 12.25815.30692 29.94184 16.89206 27.94662 16.58541-1.99496 23.57888.14366 32.02252 8.58308 10.95587 10.94846 34.78134 6.55029 40.63868-8.62409 2.7186-7.04163 6.43044-14.9151 15.503-18.14063 10.66694-3.79095 13.84697-15.70911 6.93658-23.97787-5.12657-6.13383-5.71765-12.4841 1.28984-25.25924 5.75628-10.49443 1.23217-22.179234-14.79999-21.283084-11.90678.665424-17.04579-7.2644-25.70586-15.709374-2.87126-2.799557-6.86277-3.860007-11.19532-3.877469z" fill="#c20a0a" stroke-width="9.97479"/><path d="m-239.05243 95.443479c-25.8613 0-46.97079 21.099831-46.97079 46.963031 0 25.86295 21.10837 46.97284 46.97079 46.97284 25.86241 0 46.97078-21.10989 46.97078-46.97284 0-25.86249-21.10938-46.963031-46.97078-46.963031z" fill="#6c131e" stroke-width="1"/><path d="m-239.05234 105.15056c-20.60893 0-37.25677 16.64706-37.25677 37.25678 0 20.60945 16.64811 37.26471 37.25703 37.26471 20.6084 0 37.26498-16.655 37.26498-37.26445 0-20.60893-16.65632-37.25677-37.26498-37.25677z" fill="#c20a0a" stroke-width="9.97479"/><path d="m-920.52927 467.43942c-5.58909 1.05502-11.30953 2.76071-17.28515 5.22266l-28.51367 11.74805 29.24414 9.78906c3.26725 1.09376 6.49695 2.28987 9.67187 3.57226-17.47003 7.74917-32.36177 21.94399-43.49414 36.00977-7.71534 9.74835-14.67535 20.61841-20.2793 32.24023l-.96093 1.9961-.15235 2.21094c-.23924 3.48725-.37304 7.02705-.37305 10.61718 0 84.08701 68.22681 152.3418 152.31446 152.3418 11.53886 0 22.78934-1.28657 33.60351-3.71484l33.65625-7.5586-69.56836-31.29297-.40625-.14648c-27.95187-10.12052-47.95099-42.21489-52.66992-69.47266-2.35948-13.6289-.62176-25.44943 3.11328-31.5664 3.18078-5.20917 6.95916-7.81127 15.54493-7.10352l-.82227 2.23633 1.55664 4.03906c8.89965 23.09855 23.90307 44.20088 40.60352 60.44922 16.70041 16.24834 34.73237 28.04065 52.91601 30.49024l.57422.0781.58008.0195c.69051.0242 1.35402.005 2.00976-.0312 11.15653.43709 24.2631-3.74406 34.34375-14.89258l13.80274-15.25976 10.80859-9.32422c13.69459-19.03892 20.01888-46.78418 3.10742-72.88477l-3.02343-4.66797-5.53907-.52734c-19.53819-1.85745-32.26973-12.07115-36.52929-25.64453-4.10347-13.07622-15.35431-20.64424-27.18555-25.91797l-8.89648-3.9668-3.37696-6.12304c-8.03346-14.56562-15.58306-26.76765-26.81445-35.12305-6.37742-4.74395-14.09769-8.05702-22.95898-9.55273l-11.68358-.89832c-4.11065.0533-8.34623.44535-12.74609 1.04883l-27.91797 3.82812 12.48242 9.26758c-5.47103-1.64944-11.1903-2.71763-17.20708-2.7247z" fill="#6c131e" filter="url(#b)" stroke-width=".999999" transform="matrix(.26458334 0 0 .26458334 -16.706824 -11.275074)"/><path d="m-245.15593 112.10707c-.91879.0114-1.92688.10189-3.00757.25011 3.62909 2.69424 6.72573 5.95642 8.89713 9.28367.2185 0 .436.002.65268.006 2.37806.0514 4.67142.38253 7.00525.94775-2.06596-3.74584-3.9406-6.6063-6.24613-8.32146-1.81876-1.35291-3.95721-2.12812-6.91327-2.16576-.12728-.002-.25673-.002-.38809 0zm-12.06541 3.02203c-.0961-.00026-.19213.001-.28888.003-1.84876.0408-3.86455.51597-6.1681 1.46503 7.39507 2.4756 14.08254 6.64319 17.62632 11.00243 2.419-.67526 3.87541-1.93744 4.79867-3.79306-4.5746-3.86812-8.22392-6.76283-11.83958-7.9778-1.33845-.44991-2.6897-.69851-4.12843-.6997zm-.0269 6.94842c-5.18893.88958-10.43468 5.31303-13.95883 9.76581-1.9101 2.41342-3.63409 5.10876-5.01055 7.96334-.059.85931-.0915 1.72633-.0915 2.60087 0 20.60945 16.64824 37.2644 37.25716 37.2644 2.827 0 5.57882-.31496 8.2243-.90899l-9.97871-4.48862c-17.59126-6.36927-22.7459-37.4463-6.17017-34.33795.76847-1.86443 1.3055-3.68921 1.45004-5.45807l2.45205.20051c-.22167 2.71055-1.16183 5.32933-2.3735 7.88995-.0964.26788-.19385.54264-.28784.7984 4.32306 11.22029 14.9756 21.15159 22.31078 22.13974.12045.004.25066.00018.38861-.0114 2.23984.13624 4.72027-.5561 6.87245-2.93626l1.0511-1.1622-1.37873-.74466c-.85652-.46267-1.88073-.93387-2.39107-1.43815-.2551-.25221-.36764-.45674-.40462-.68368-.0371-.22706-.0171-.55641.29352-1.12913l1.40456-2.58744-2.82773.81907c-.82981.24023-2.27806-.39906-3.05718-1.40973-.38964-.50546-.57999-1.04083-.57722-1.4273.003-.38673.0947-.67486.62476-1.05989l2.56057-1.85932-3.14399-.3576c-1.31289-.14966-2.15479-.87662-2.52336-1.6185-.36883-.74161-.30446-1.32719.18086-1.75183l1.60662-1.4056-2.02158-.68523c-.88417-.29959-1.35519-.99424-1.36322-1.3994-.004-.18073.0312-.35086.24236-.58911 1.43874-.3146 2.79841-.0595 3.69745.83871.81006.80901 1.09902 1.99118.91829 3.26853 1.12546-.29669 2.23582-.21235 3.17397.32866 1.22943.7091 1.92827 2.06541 2.06292 3.68092 2.00239-1.33369 4.23209-1.67482 5.95777-.67955 2.03595 1.17416 2.81185 3.88489 2.21227 6.81199 3.15811-4.39057 4.55249-9.96713.73898-15.85278-6.15063-.58472-10.75346-4.03769-12.28039-8.90333-.66158-2.10821-2.80147-3.77387-5.52835-4.98936l-.0103.0284c-3.91473-1.42464-7.31537-2.28395-10.87324-2.466l.0103.0207c-.30197-.0123-.60054-.0211-.89039-.0227-1.25538 3.01096-3.77268 5.25211-7.56026 6.06217l-.77721.16588-.47078-.64027c-1.87128-2.54444-5.42717-5.32437-9.741-7.64398zm20.56309 8.59017c3.67608-.01 5.9067 1.52945 5.54023 5.85132-4.71821.44623-6.83582-2.19635-8.30234-5.61206.98816-.15204 1.91374-.2365 2.76211-.23874zm6.37222 8.73539-.00053.00052c.48809.009.93996.1307 1.31827.37001-.19876.14506-.38114.29988-.54726.46612-.69053.68976-1.06472 1.59563-1.04748 2.46703.0241 1.22707.69376 2.2622 1.66915 2.96985-.41332 1.0666-.32296 2.29758.185 3.31969.50192 1.00936 1.38757 1.87859 2.54093 2.42156-.19021.44309-.31245.90363-.31574 1.36012-.008 1.10663.44474 2.11151 1.08882 2.94711.89405 1.15968 2.21964 2.09764 3.68918 2.35748-.024.28697-.0268.57036.0176.84336.13822.84823.59402 1.53476 1.10277 2.0376.44888.4436.94669.77558 1.42162 1.05213-.8352.63079-1.63437.92865-2.45101 1.02526-.85758-1.04476-1.27816-2.51202-1.23868-4.14031-1.5489.81308-3.18674.94205-4.4912.18965-1.93077-1.11361-2.55272-3.82196-1.73581-6.62492-1.49218.36462-2.9127.12108-3.84163-.80718-1.16823-1.16692-1.25556-3.11007-.40773-4.99557-.48387-.081-.91643-.28481-1.25367-.62166-1.15941-1.1581-.75991-3.4343.89194-5.08445 1.03239-1.03133 2.30977-1.57405 3.40548-1.55339z" fill="#c20a0a" filter="url(#c)" stroke-width="6.08542"/></g><g fill="url(#d)"><path d="m62.283028 21.681488c-4.349538 1.88551-7.742123 7.192429-7.737227 11.933062.0049 4.790485 8.19768 7.264996 7.843482 12.042371-.233373 3.147711-4.423287 4.534206-6.281501 7.085596-2.784508 3.823224-4.881636 8.103784-7.217636 12.216402-2.820525 4.965643-3.064189 12.554308-8.205991 15.039232-8.892495 4.297555-22.730471-12.505018-29.197664-5.040377-6.0828279 7.020995 1.676784 20.318295 8.604735 26.506886 10.448856 9.33374 27.185569 7.80318 41.183344 8.40286 9.140284.39158 18.81035.334 27.262684-3.16688 11.519156-4.77113 23.166416-12.378353 29.325006-23.219315 3.86769-6.808295 9.38786-18.625325 3.09559-23.28572-8.5013-6.296526-18.79981 16.39831-28.874986 13.171973-4.399452-1.408821-4.977557-7.815687-6.922147-12.005976-2.172919-4.682302-3.19793-9.832309-5.251548-14.568149-1.674149-3.860747-3.684255-7.572308-5.743689-11.242032-2.524787-4.49894-3.834545-10.282453-8.095624-13.190754-1.059219-.722945-2.610209-1.189239-3.786828-.679179zm.269707 4.357114c3.759076.975647 7.887707 5.718086 6.814178 9.450387-.781552 2.717196-5.313772 4.425777-7.858185 3.192918-3.341893-1.619266-4.636448-7.316058-3.10505-10.699118.629845-1.39141 2.670712-2.327883 4.149057-1.944187zm8.466827 17.539707c1.90911.259679 3.342011 2.205702 4.272734 3.892678 1.113442 2.018163.400777 4.650593 1.21347 6.807504 2.154948 5.719297 7.006171 10.103487 9.493936 15.686066 1.064434 2.388605 4.094243 5.630045 2.274582 7.508153-1.253861 1.294135-3.424665-1.255455-5.220541-1.403041-4.421359-.363349-9.412215 3.544803-13.244206 1.309565-1.420585-.828641-2.763685-3.059209-1.994334-4.512759 2.03202-3.839137 10.909692 1.555422 12.818198-2.346588 2.993766-6.120862-2.670153-17.344828-9.438319-18.131917-6.265528-.728636-11.199821 8.131463-12.356144 14.332323-.705321 3.782332 5.59853 7.429046 3.879394 10.871151-1.895916 3.796058-8.097164 5.022446-12.154855 3.7816-2.226018-.680719-4.420947-3.122023-4.367293-5.449179.104861-4.548196 6.169977-6.696892 9.017187-10.245198 3.911381-4.874519 8.129605-9.620337 11.05653-15.142379.922532-1.740482.689954-4.086366 1.993572-5.563161.681402-.771922 1.735838-1.533594 2.756089-1.394818zm-2.773693 16.520545-5.145236 7.379816zm47.628211 8.06349c4.8031 3.821896-.24926 13.094728-3.96123 17.983277-2.22425 2.92927-6.20633 6.1928-9.74233 5.180559-4.748215-1.35926-8.816995-8.088444-7.419257-12.825475.898608-3.045445 5.633937-2.931571 8.482037-4.335333 4.18399-2.062191 8.99073-8.907428 12.64078-6.003028zm-99.718322 12.822375c13.21319-15.417546 40.655412-.728399 60.910819.688489 1.815815.127018 4.420612-.825013 5.415822.699084 1.133974 1.736605-.616916 4.234634-1.752301 5.970317-3.047186 4.658286-7.32737 9.694285-12.796816 10.728756-5.622992 1.063515-10.552946-5.433328-16.27555-5.463361-4.263655-.02238-7.938925 3.402488-12.168239 3.943003-4.808987.614598-10.096833 1.12774-14.518877-.859622-3.199177-1.437779-5.834443-4.322926-7.438789-7.441903-1.277491-2.483546-3.193482-6.144151-1.376069-8.264763zm75.224735.252693c3.904928-.788948 8.315006 6.43262 6.543613 10.000963-1.25977 2.537716-6.589537 2.70446-8.478874.593198-2.393896-2.675087-1.583464-9.883241 1.935261-10.594161z" filter="url(#e)" opacity=".25"/><path d="m62.283028 21.681488c-4.646542.281335-11.009419 4.507325-8.716707 9.797491 1.770022 3.781022 3.356762 7.661257 5.241581 11.380128 1.585495 2.142444 7.235774 3.547027 2.187243 5.314099-5.340082 3.106638-7.720691 9.19953-9.574745 14.761379-5.624936 3.99894-9.906497 10.10964-10.736245 17.063566-9.91484-.278115-19.716216-2.193718-29.197664-5.040377.11862 8.983289.97075 19.236596 7.795013 25.863736 8.548528 6.99284 19.964942 9.7262 30.829027 9.85076 10.859783-.34276 21.596098-2.26393 32.422062-3.09838 10.722521-.92888 21.403837-5.14032 28.644017-13.324505 3.99812-4.081304 6.91947-9.21337 7.59529-14.950486 1.41723-6.268644 1.72941-12.711702 2.18595-19.103294-9.14604 5.342337-18.77446 9.940269-28.874986 13.171973.401448-4.476494-4.037091-6.578112-5.830623-9.877045-1.940488-3.784766-3.880966-7.569533-5.821454-11.3543 1.583654-5.442828-3.33604-8.817794-6.408345-11.869074 1.759889-6.521515-3.486677-12.082085-6.982496-16.987532-1.121706-1.515191-3.004752-1.811682-4.756918-1.598139zm.269707 4.357114c2.173047-.198916 2.413045 2.679719 3.608215 3.992111 1.3032 2.714892 3.838125 5.066006 3.824409 8.206246-.95657 4.776912-8.020611 4.304303-8.670614-.384551-1.281718-2.877518-2.474857-5.805567-3.811475-8.651769.907346-1.824082 3.119813-2.836686 5.049465-3.162037zm8.466827 17.539707c1.032593 1.055772 1.225672 4.236157 2.903194 3.659797 1.90976-1.197904 1.543247 2.222906 2.339631 3.284115-2.686168.131858-.129823 2.385952.243379 3.75627 2.699372 5.264859 5.398755 10.529718 8.098128 15.794578 1.587972-1.629347 2.035297 1.776499 3.059067 2.63769-2.442549.657469-.02502 2.644539.386541 4.082845 1.374118 1.772577-3.952543 4.108567-3.903319.853542-1.324295-4.832629-6.260381 2.459691-9.740322.95302-3.490427.352227-9.629087-4.119086-9.92759-5.492282 4.691537-1.561547 8.218976 2.859581 12.92136.975356 3.908199-.59868 4.245539-2.782041 2.11696-5.464865-2.773834-5.410139-5.547676-10.820267-8.321509-16.230405-5.416791 1.818246-10.190355 5.732963-11.932674 11.299482-1.912107 4.125633 2.256374 8.10219 4.217426 9.790002-2.098018 3.325945 1.485356 8.58002-4.383625 7.397129-4.452228.06011-11.078946 1.345701-14.011638-.448377.621497-6.299484 4.91489-11.47958 10.1288-14.747539 1.692471-5.746563 4.038266-12.195422 9.96637-14.750137 3.028747-1.029223 5.249312-2.120317 2.700554-5.00566-1.251793-1.17709 2.911709-1.171259 3.139257-2.344561zm-2.773693 16.520545c7.1744.745554.957311 12.328589-4.296222 8.611773-3.060264-3.014944.517504-8.521599 4.296222-8.611773zm47.628211 8.06349c-.51839 6.12128-1.47086 12.322184-3.96123 17.983277-3.55512-2.237003-5.55616-.752935-6.9634 2.818983-1.83014 3.09073-3.09162 3.575584-3.84102-.101026-2.147609-3.433355-3.988929-7.090627-6.357167-10.362873-2.874711-1.770211 4.887677-2.203025 6.619137-3.60664 4.98304-1.90265 9.84729-4.127133 14.50368-6.731721zm-99.718322 12.822375c18.115083 4.878401 37.27915 4.269569 55.70098 1.594818 3.603674-.173848 11.324722-2.768266 12.139761-1.896627-4.560091 2.026866 2.332355 10.385526-3.130105 7.093519-1.310727 6.114826-7.251578 9.809126-12.933112 11.294936-4.929901-3.183669-10.640256-4.861705-16.261101-6.371677.261026 4.986727-5.022782 7.697062-9.349363 8.052942-3.231216-4.826655-8.833805-7.461062-14.585737-7.434657-2.035957-.23876-3.238692 8.135077-6.307772 3.298341-3.608672-4.32967-5.026764-10.104684-5.273551-15.631595zm75.224735.252693c1.738848.524747 2.139165 2.966211 3.274246 4.331313 1.2837 2.790179 4.195804 5.260627 3.54387 8.544667-3.275321.700135-7.76178-.39141-9.539258-3.281215-.839723-2.140552-2.018951-4.193706-2.637463-6.391203 1.025651-1.909098 3.279562-2.953851 5.358605-3.203562z" opacity=".95"/></g></g></svg>