<svg height="500" viewBox="0 0 132.29167 132.29167" width="500" xmlns="http://www.w3.org/2000/svg" xmlns:xlink="http://www.w3.org/1999/xlink"><linearGradient id="a" gradientUnits="userSpaceOnUse" x1="116.132103" x2="22.66864" y1="0" y2="132.292314"><stop offset="0" stop-color="#d3b879"/><stop offset=".25" stop-color="#ebd6ad"/><stop offset=".5" stop-color="#ebd6ad"/><stop offset=".75" stop-color="#ebd6ad"/><stop offset="1" stop-color="#d3b879"/></linearGradient><linearGradient id="b" gradientUnits="userSpaceOnUse" spreadMethod="repeat" x1="-17.85017" x2="5.02706" xlink:href="#c" y1="110.489736" y2="126.856413"/><linearGradient id="c"><stop offset="0" stop-color="#2e2442"/><stop offset=".125" stop-color="#342a4b"/><stop offset=".25" stop-color="#322848"/><stop offset=".375" stop-color="#322947" stop-opacity=".95"/><stop offset=".5" stop-color="#322a46" stop-opacity=".98"/><stop offset=".75" stop-color="#2e2442" stop-opacity=".97"/><stop offset=".90573049" stop-color="#34284e"/><stop offset="1" stop-color="#2e2442"/></linearGradient><filter id="d" color-interpolation-filters="sRGB" height="1.006074" width="1.005927" x="-.002964" y="-.003037"><feGaussianBlur stdDeviation=".35225928"/></filter><filter id="e" color-interpolation-filters="sRGB" height="1.008763" width="1.008521" x="-.00426" y="-.004381"><feGaussianBlur stdDeviation=".12334782"/></filter><filter id="f" color-interpolation-filters="sRGB" height="1.058651" width="1.03741" x="-.018705" y="-.029326"><feGaussianBlur stdDeviation=".82357594"/></filter><linearGradient id="g" gradientUnits="userSpaceOnUse" spreadMethod="repeat" x1="-150.01593" x2="-127.1387" xlink:href="#c" y1="89.458812" y2="105.825489"/><linearGradient id="h" gradientUnits="userSpaceOnUse" spreadMethod="repeat" x1="-43.87677" x2="-20.99954" xlink:href="#c" y1="112.043563" y2="128.41024"/><linearGradient id="i" gradientUnits="userSpaceOnUse" spreadMethod="repeat" x1="-150.01593" x2="-127.1387" xlink:href="#c" y1="86.271992" y2="102.638669"/><path d="m250.4707 499.98252c51.835.039 104.53834.44093 157.50391-5.34765 23.52703-2.57129 63.66601-11.94336 63.66601-11.94336l20.95704-4.78907-8.40625-19.79687c-3.62583-17.49004-4.76016-37.13347-3.75586-52.85156 2.74125-40.11079 16.93348-78.89745 19.56445-119.01563.82783-12.6231.69137-24.46921.34447-42.18006-.34689-17.71086-3.70393-41.24364-10.31713-63.95285-2.60935-14.83079-5.05012-29.7543-6.34961-45.51563-2.71116-32.88338-4.95912-70.15255 6.76172-98.751949l9.07227-22.13086c-31.31324-3.171506-61.13792-7.4347299-87.3418-9.5429685l-13.60547 11.3652345-1.34961-12.5097658-15.11718-.9667968c-21.86813-1.39044747-38.84642-1.91868801-56.31446-2.02539065-5.82268-.03556755-16.5078-.02734375-22.63867-.02734375l-72.83689.32721653c-19.69041.32721654-47.16904 3.59837407-76.59084 5.94817407l-4.60938 8.8105474-.25781.496093-1.24609-7.4980466-16.01758.8046875c-16.98083.8557334-36.820718 3.3800201-54.957034 13.3808591-16.734322 9.227747-31.341428 23.054127-40.964844 40.189453-16.465591 29.318407-21.106486 61.290856-25.148437 87.197266-3.2490518 20.82441-5.7994558 41.62795-7.5839844 62.33594-1.94377399 12.57614-2.92389106 25.28234-2.93299587 38.00781l.00135527 27.97852c.01436867 46.72872-.62894005 93.96404 2.7929688 141.26953.9407191 13.00478 4.1699656 29.03511 14.3300782 43.82422 4.451018 6.4789 9.806394 11.40397 15.326172 15.69335 5.505744 4.27854 8.50915 8.11081 19.365234 9.82422 9.832331 1.66322 30.066099 3.74157 58.570317 5.875l12.77148.95899 10.22852-23.69336 15.71484 25.27344 9.36523.50195c25.46458 1.34785 54.43325 2.49136 81.95508 2.47266z" fill="#857347" stroke-width="3.77953" transform="scale(.26458334)"/><path d="m43.667127 6.1988049-6.649318 12.7232891-1.962733-11.8144838c-4.151997.209236-8.734935.8884646-12.483913 2.9557488-3.6649 2.020923-6.931432 5.134922-8.987607 8.796119-3.5936294 6.398768-4.9680452 14.21181-6.1007497 21.471745-1.7239508 11.049459-2.2092041 22.267477-2.7292176 33.438734-.5652131 12.142264-1.0750022 24.437952.6932615 36.463853.4873297 3.31431 1.1113893 6.8345 3.0041972 9.58967 1.4496055 2.11005 4.6865666 4.54405 6.0084106 4.7506 2.08291.35408 7.610648.94421 15.101134 1.50483l4.966963-11.50761 7.650707 12.30431c6.689358.35408 14.283448.65398 21.429996.64914 14.613556-.01 29.290534.20101 43.819142-1.38681 5.49586-.60065 16.3028-3.06871 16.3028-3.06871s-.84033-3.54005-1.04149-5.34358c-.4-3.58629-.56178-7.22034-.32107-10.82083.70788-10.588463 4.87617-20.80543 5.17179-31.413411.37415-13.42584-4.11707-26.631272-4.32122-40.060773-.14104-9.278493-1.4412-19.010796 2.14288-27.7560998-5.56781-.6078373-8.70335-1.1802678-14.75182-1.6700785l-8.93248 7.4651953-.88126-8.1733574c-7.610636-.4839091-12.854008-.5661144-19.284287-.5223869-5.84986.0397806-11.26574-.2361191-17.111594-.014796-6.768804.2562659-14.283499.9292252-20.732522 1.4396922z" fill="url(#a)" stroke-width="4.7625"/><g><text style="font-size:59.2598;font-family:Julian Daniel;text-anchor:middle;fill:#a51d2d;stroke:#000;stroke-width:2.64583" transform="matrix(.70710678 -.70710678 .70710678 .70710678 0 0)" x="-95.051376" y="289.26807"><tspan style="font-weight:bold;font-size:59.2598;font-family:Action Man;fill:#a51d2d;stroke:#000;stroke-width:2.64583" x="-95.051376" y="289.26807">TODO</tspan></text><path d="m44.891049 48.283511c.620753-.292671 6.307088 4.215968 9.487609 6.282841 3.007516 1.954448 8.053966 4.395633 9.072879 5.78517.509456.694768 1.888128 9.93639 2.269736 14.968475.3552 4.683951.985081 12.838033.01255 14.092204-.972527 1.254176-8.001116.281776-12.001349.202228-2.654476-.05278-7.333874.316389-7.952243-.450707-1.236744-1.534108-.439117-13.859799-.58908-20.79144-.144853-6.695434-.920852-19.7961-.300102-20.088771zm22.330177 12.068011c.53466-.838239 2.163085 4.935274 3.288418 7.383096 1.87442 4.077256 3.684287 8.189818 5.768353 12.164003 1.801114 3.434612 5.755022 9.085135 5.812758 10.078528.05774.993395-3.999781.617622-5.999667.926418-1.999894.308806-4.702859 2.093087-5.999675.926428s-.956726-10.492822-1.435094-15.739241c-.478367-5.246411-1.969753-14.900994-1.435093-15.739232zm10.715414-4.022585c1.015215-.865082 17.606049 11.870588 26.69938 17.341607 3.95429 2.379094 12.55911 5.517055 12.10131 6.725055-.45781 1.207999-14.76993 2.089096-16.04444.85889-1.274514-1.230207-13.29541-11.41588-18.711151-18.236693-1.620252-2.04061-5.060314-5.823776-4.045099-6.688859zm-5.423472 2.214759c.73152-1.011628 13.137289 13.87296 20.07894 20.428947 2.857911 2.69912 9.824632 6.891822 8.869192 7.772842-.95544.881019-13.806969 1.25974-15.841403-.587452-2.034433-1.847192-8.905886-14.146609-11.818386-21.919863-.682827-1.822414-2.019862-4.682848-1.288343-5.694474zm-.361477-32.235846c1.607125.718282 2.413018 5.564568 3.638159 8.338678 2.908288 6.585265 10.657431 20.194465 8.813142 19.716575-1.844287-.477889-15.732689-2.037406-17.520479-2.30524s-.633974-8.595546-.933965-12.894522c-.288459-4.13377-1.766548-11.263663-.832685-12.40354.933861-1.139878 5.228704-1.170231 6.835828-.451951zm-9.581549.587452c.792373.684861.522353 6.376423.621777 9.572402.164943 5.302286.989591 14.828773-.04245 15.9145-1.032047 1.085728-3.35537.497746-5.030915.760533-3.386928.531201-9.381914 2.708363-10.1518 1.649812-.769885-1.058552 1.176014-4.513593 1.813122-6.756827 1.132276-3.986678 2.421832-7.927357 3.570634-11.909303.843944-2.925259 1.457556-8.124199 2.440298-8.801672s5.986967-1.114305 6.77934-.429445zm-26.996951-1.920002c.606678 1.200884 1.436059 6.130342 1.973761 9.230423.868489 5.00724 1.750012 10.036849 2.018991 15.111732.118565 2.236922 1.75431 5.589431-.180828 6.717752-1.196281.697518-2.521231-1.173759-3.669153-1.948273-3.175466-2.142528-5.801459-5.006899-8.797137-7.394336-2.175572-1.733845-6.660187-5.029506-6.660187-5.029506s3.397614-6.126046 5.711686-8.716921c2.771146-3.102627 8.996189-9.171758 9.602867-7.970871zm5.44608 64.602571c-1.818707 1.772495-9.547967-.442292-14.323782-.617619-4.967072-.182348-13.197486 1.462223-14.904402-.451738-1.706915-1.913955.181845-5.471164.375057-8.200784.321172-4.537294.53028-9.101056 1.302999-13.583585.798207-4.630365 2.440716-9.078969 3.429787-13.672343 1.336609-6.20739 1.96328-8.112088 3.300682-7.614358 1.337403.49773 6.119675 4.863445 9.211379 7.254333 3.36409 2.601533 8.130271 3.978565 10.160828 7.715133 2.318043 4.26559.838725 9.675414 1.079672 14.524185.242391 4.877778 2.186488 12.874282.36778 14.646776z" fill="url(#i)" filter="url(#f)" opacity=".15"/><g transform="translate(0 -3.18682)"><g fill="url(#b)"><path d="m41.68968 52.010816c.0043.331925.736995 13.376435.816886 20.072245.0808 6.770568-.347298 19.819664-.341533 20.310288.01154.981236 2.588516 3.560799 3.569747 3.573282.981221.0125 9.977232.12425 9.977232.12425s6.738643-.633272 9.977241.124232c1.783314.417119 3.225916 2.532566 4.954304 2.375429l11.998898-1.853287c2.546281-.393272 3.876074-3.247494 2.539166-5.449962 0 0-4.056415-6.710935-5.693586-9.867115-3.158024-6.088108-8.952615-19.328621-8.952615-19.328621-.96004-1.83286-4.835969-1.634166-7.185537-2.625209-7.699758-3.247745-16.179728-16.214558-22.595662-10.86014-.903602.754102.92767 2.740758.935459 3.404608zm3.201369-.540485c.620753-.292671 6.307088 4.215968 9.487609 6.282841 3.007516 1.954448 8.053966 4.395633 9.072879 5.78517.509456.694768 1.888128 9.93639 2.269736 14.968475.3552 4.683951.985081 12.838033.01255 14.092204-.972527 1.254176-8.001116.281776-12.001349.202228-2.654476-.05278-7.333874.316389-7.952243-.450707-1.236744-1.534108-.439117-13.859799-.58908-20.79144-.144853-6.695434-.920852-19.7961-.300102-20.088771zm22.330177 12.068011c.53466-.838239 2.163085 4.935274 3.288418 7.383096 1.87442 4.077256 3.684287 8.189818 5.768353 12.164003 1.801114 3.434612 5.755022 9.085135 5.812758 10.078528.05774.993395-3.999781.617622-5.999667.926418-1.999894.308806-4.702859 2.093087-5.999675.926428s-.956726-10.492822-1.435094-15.739241c-.478367-5.246411-1.969753-14.900994-1.435093-15.739232z" opacity=".9"/><path d="m24.815543 31.93677c-2.238093 2.257958-4.245682 4.798065-5.800084 7.57138-1.001335 1.786536-1.535056 3.799198-2.210436 5.732653-1.265711 3.623443-2.383057 7.298619-3.447877 10.986101-1.250063 4.328973-2.698163 8.627121-3.4506934 13.069679-1.2446237 7.347592-1.7001602 21.291834-1.7301396 22.289726-.02997.997894 1.950665 3.023355 3.504862 3.722906 4.532382 2.040053 9.936117.301447 14.904179.452184 4.968062.150719 10.313351 2.357069 14.904179.452165 1.668704-.692396 3.091831-.472948 3.709655-3.951523.617823-3.478573-1.621319-13.749228-2.006404-20.656356-.188147-3.374613-.0017-6.761789-.147628-10.138486-.178974-4.14039-.487464-8.276269-.892388-12.400687-.547702-5.578687-.839545-11.22066-2.078044-16.687639-.643872-2.842199-.370759-6.631421-2.764031-8.294223-.696775-.484107-1.746384-.201548-2.543788.08829-3.954147 1.43717-6.989583 4.775756-9.951362 7.763842zm10.757648-3.77465c.606678 1.200884 1.436059 6.130342 1.973761 9.230423.868489 5.00724 1.750012 10.036849 2.018991 15.111732.118565 2.236922 1.75431 5.589431-.180828 6.717752-1.196281.697518-2.521231-1.173759-3.669153-1.948273-3.175466-2.142528-5.801459-5.006899-8.797137-7.394336-2.175572-1.733845-6.660187-5.029506-6.660187-5.029506s3.397614-6.126046 5.711686-8.716921c2.771146-3.102627 8.996189-9.171758 9.602867-7.970871zm5.44608 64.602571c-1.818707 1.772495-9.547967-.442292-14.323782-.617619-4.967072-.182348-13.197486 1.462223-14.904402-.451738-1.706915-1.913955.181845-5.471164.375057-8.200784.321172-4.537294.53028-9.101056 1.302999-13.583585.798207-4.630365 2.440716-9.078969 3.429787-13.672343 1.336609-6.20739 1.96328-8.112088 3.300682-7.614358 1.337403.49773 6.119675 4.863445 9.211379 7.254333 3.36409 2.601533 8.130271 3.978565 10.160828 7.715133 2.318043 4.26559.838725 9.675414 1.079672 14.524185.242391 4.877778 2.186488 12.874282.36778 14.646776z" opacity=".9"/><path d="m63.709302 26.405786c-2.715512.169331-5.613063-.492435-8.147132.498079-1.305997.51049-2.493174 1.484742-3.259908 2.658774-1.654569 2.533504-1.586532 5.840455-2.425291 8.747821-1.149366 3.984015-2.439538 7.926733-3.572377 11.915479-.642677 2.262878-2.379811 4.529009-1.828991 6.81598.474028 1.968131 2.160019 3.840673 4.072019 4.505873 3.556936 1.237482 7.395566-1.48891 11.142246-1.870407 5.008991-.510029 10.059645-.551075 15.09453-.553151 4.480805-.0017 10.351444 3.733407 13.433803.481219.814846-.859735-.01863-2.393134-.317311-3.5394-1.812968-6.958348-5.897944-13.116373-8.802986-19.69407-1.221827-2.766492-1.785408-5.917913-3.628449-8.315728-.724926-.943138-1.658668-1.864385-2.79366-2.220524-2.857494-.896624-5.977434.383666-8.966493.570055zm8.442389 3.088884c1.607125.718282 2.413018 5.564568 3.638159 8.338678 2.908288 6.585265 10.657431 20.194465 8.813142 19.716575-1.844287-.477889-15.732689-2.037406-17.520479-2.30524s-.633974-8.595546-.933965-12.894522c-.288459-4.13377-1.766548-11.263663-.832685-12.40354.933861-1.139878 5.228704-1.170231 6.835828-.451951zm-9.581549.587452c.792373.684861.522353 6.376423.621777 9.572402.164943 5.302286.989591 14.828773-.04245 15.9145-1.032047 1.085728-3.35537.497746-5.030915.760533-3.386928.531201-9.381914 2.708363-10.1518 1.649812-.769885-1.058552 1.176014-4.513593 1.813122-6.756827 1.132276-3.986678 2.421832-7.927357 3.570634-11.909303.843944-2.925259 1.457556-8.124199 2.440298-8.801672s5.986967-1.114305 6.77934-.429445z" opacity=".9"/><path d="m78.715647 56.271736c-1.692874-.121308-3.659084 1.555895-4.623335 2.132987-.96425.577092-4.586882 1.808647-5.151982 3.883675-1.55113 5.695731 4.24382 11.029882 6.783473 16.358815 2.058734 4.319817 3.050836 9.69686 6.837001 12.623306 3.04782 2.355763 7.368551 2.773741 11.220672 2.76517 3.847773-.0087 9.218094.488791 11.195634-2.81194.59088-.986244-.0291-2.176922-.83717-3.345983s5.52607-.01733 8.22789-.519553c2.62704-.488351 7.13321.218536 7.64734-2.403596 1.12551-5.740323-8.76542-7.779437-13.51482-11.194303-5.91621-4.253804-12.425495-7.616331-18.579175-11.518703-3.088595-1.958642-5.557607-5.708473-9.205528-5.969875zm-.779007 3.244021c1.015215-.865082 17.606049 11.870588 26.69938 17.341607 3.95429 2.379094 12.55911 5.517055 12.10131 6.725055-.45781 1.207999-14.76993 2.089096-16.04444.85889-1.274514-1.230207-13.29541-11.41588-18.711151-18.236693-1.620252-2.04061-5.060314-5.823776-4.045099-6.688859zm-5.423472 2.214759c.73152-1.011628 13.137289 13.87296 20.07894 20.428947 2.857911 2.69912 9.824632 6.891822 8.869192 7.772842-.95544.881019-13.806969 1.25974-15.841403-.587452-2.034433-1.847192-8.905886-14.146609-11.818386-21.919863-.682827-1.822414-2.019862-4.682848-1.288343-5.694474z" opacity=".9"/><path d="m76.775273 38.800597c-8.059389.495646-19.283392.533669-27.342884 1.027538-.35057 1.180574-1.521354 3.865783 2.112193 4.001916 8.874465-.522156 17.749068-1.041887 26.623593-1.563053 1.639622 0 2.866539-1.249538 2.586661-2.389495-.327667-1.3346-3.859459-1.084717-3.979563-1.076937zm-14.346759-11.577161c.390517 8.177692.56003 19.197635.923958 27.375384-.09821 2.750504-.292151 5.502374-.331004 8.252022.765453 9.914859 1.58403 19.826147 2.316174 29.743243.106478 1.842044.413641 8.487235.52012 10.329295.333497.52164 1.176158.47635 1.75992.34695.887556-.19674 2.237057-.1351 2.202264-1.60878-1.28421-22.63818-2.880611-49.363191-4.166264-72.001294-.328228-.524436.09325-3.184031-1.03505-3.938958-.494146-.330626-1.309467-.139861-1.767557.239148-.342042.282994-.472021.728621-.422561 1.26299z" opacity=".9"/><path d="m25.121785 114.03927c4.854058 1.29792 10.049182 0 15.073767 0h30.147544c5.024586 0 10.311908 1.60349 15.073768 0 1.381652-.46525 2.713846-1.40693 3.4828-2.64554.779852-1.25616.608752-2.88417.837708-4.35581.366037.13034 10.691878-2.12254 15.903228-3.68962 5.20071-1.56386 15.26937-5.681847 15.26937-5.681847 1.54354-.492796 2.63681-3.433551 2.45-5.401875-.13372-1.40907-1.13556-2.943127-2.45-3.46811-5.23378-2.090385-11.11427 1.932541-16.58439 3.289041-5.309926 1.316783-15.725198 4.699108-15.725198 4.699108-1.698256-.433865-3.562794-.731979-5.238946-.235705-1.202601.356076-1.880672 1.763775-3.060854 2.188283-3.358496 1.208058-7.639613.549487-10.681319.747936-18.166684 1.185239-33.896845 1.581119-52.125996 1.357369-3.217042-.0386-4.878948 3.82775-2.637149 6.13539 0 0 3.326304 2.87256 5.137915 4.10799 1.629622 1.11133 3.222209 2.44386 5.127752 2.95339zm88.049845-17.824263c-7.47483 3.366165-23.393654 7.587743-23.393654 7.587743l.293952-3.57063s11.887232-4.484782 18.047632-5.9666c3.71073-.892562 10.03372-5.337497 11.31627-1.742887.81451 2.28285-4.05415 2.697108-6.2642 3.692374zm-28.915988 14.209083c-1.77555 1.00589-4.08138 0-6.122066 0 0 0-10.492975-.10096-15.73801 0-5.729988.11031-11.450428.55147-17.180415.66179-4.653741.0896-9.315944.25018-13.963818 0-2.052232-.11046-4.186801.008-6.129992-.66179-1.754762-.60434-3.190787-1.90024-4.729644-2.93771-.991819-.66869-3.184543-.95436-2.89843-2.11581.468536-1.90201 3.871051-.87208 5.812782-.86371 17.426282.0749 34.068885-.48678 51.759414-1.71928 2.515953-.1753 4.185298.23796 6.040774-.56668.948492-.41132 1.301871-1.88755 2.321843-2.05631 1.2207-.201986 2.721516.41581 3.42339 1.43478.806432 1.17075.573103 2.75789.138285 4.26261-.434817 1.50472-1.191566 3.68821-2.734113 4.56211z" opacity=".9"/></g><path d="m42.167766 92.444123c-.678233 3.769441-1.593953 5.302986-1.664015 8.038347-.03223 1.25826-.650576 3.44585.575147 3.73196 1.47958.34537 2.110629-2.29945 2.616948-3.73196.610842-1.728233.476649-2.545473.373316-5.486336-2.54908-3.38518-1.215298-2.83549-1.901396-2.552011z" fill="url(#h)" opacity=".9"/></g><g stroke-width="3.14797" transform="matrix(.31766516 0 0 .31766516 180.80674 -14.229123)"><path d="m-233.65799 75.060863c-.007-.000026-.013.002-.0195.002-9.80064-.03336-19.58638 4.045083-25.45313 7.138671-2.16431 1.141119-6.14429 3.468932-11.11328 5.861329-4.96899 2.392403-10.80902 4.743423-15.71094 5.691413-8.62123 1.66677-15.49799 6.523314-19.20898 12.669924-1.8555 3.0733-2.93803 6.56573-2.6543 10.17969.28373 3.61395 2.12392 7.22905 5.19922 9.75586 6.30637 5.18129 9.10824 10.64358 9.55859 15.74023.45036 5.09665-1.37531 10.163-5.82226 14.86328-7.20693 7.61766-7.35029 18.06404-2.7168 25.40625s13.66029 12.14313 23.82813 10.91992c8.00037-.96231 13.23766-.83978 17.14648.23438 3.90883 1.07415 6.87005 3.04191 10.75391 6.92383 6.99276 6.98803 17.36719 8.73991 26.74414 6.8457 9.37694-1.89422 18.38381-7.64565 22.07226-17.20117 2.61913-6.78398 5.45807-12.72705 12.52149-15.23828 6.74006-2.39537 11.48635-7.61325 13.18945-13.65625 1.70311-6.043.35698-12.89082-4.0957-18.21875h-.002c-2.08066-2.48946-2.80364-4.13888-2.74415-6.83008.0595-2.6912 1.27236-6.80182 4.58008-12.83203 3.51844-6.41456 4.19717-13.86964.70117-19.83399-3.49599-5.964344-10.90416-9.345074-20.15234-8.828124-4.81145.26889-7.52737-.94024-10.75781-3.41602-3.23044-2.47577-6.65187-6.459841-11.1875-10.882815v-.002c-4.07471-3.972954-9.52225-5.272276-14.65625-5.292969zm-.041 9.97461c.00074.000003.001-.000003.002 0 3.52993.01457 6.06496.835125 7.73242 2.460937 4.12443 4.021996 7.60321 8.224186 12.08398 11.658206 4.48077 3.434024 10.28554 5.857464 17.38086 5.460944 6.78397-.37921 9.65521 1.63449 10.99024 3.9121 1.33502 2.27762 1.39799 5.91233-.83985 9.99219-3.69975 6.74491-5.69339 12.19703-5.80859 17.4082-.1152 5.21118 2.01854 9.80291 5.06445 13.44727 2.45771 2.94082 2.97448 6.18619 2.14844 9.11719-.82605 2.931-3.00087 5.56731-6.92774 6.96289h-.002c-11.08168 3.93982-15.66631 13.74565-18.48437 21.04492-2.16889 5.61884-8.00311 9.65428-14.74219 11.01563-6.73908 1.36134-13.75566-.16264-17.71875-4.12305-4.55978-4.5575-9.31695-7.88006-15.16211-9.48633s-12.39545-1.55412-20.98047-.52148c-6.41729.77201-11.63562-2.27253-14.20117-6.33789s-2.86293-8.58805 1.52734-13.22852c6.05409-6.39898 9.23221-14.4419 8.51172-22.5957s-5.26477-16.08349-13.16015-22.57032c-1.1956-.98235-1.50533-1.75347-1.58985-2.83007-.0845-1.0766.24727-2.58135 1.25-4.24219 2.00546-3.32169 6.62039-6.88207 12.56445-8.03125 6.38785-1.23536 12.77289-3.913744 18.14454-6.500004 5.37164-2.58626 9.84817-5.18547 11.4375-6.02344 4.80536-2.533909 14.04387-6.016323 20.77929-5.990233z" fill="#6c131e" stroke-width="3.14797"/><path d="m-233.67812 80.048213c-8.27141-.03281-17.78794 3.750204-23.12618 6.565106-3.75364 1.979084-16.91322 9.855197-28.20299 12.038547-14.56531 2.815964-22.98647 16.835434-14.44466 23.853774 14.20177 11.66813 14.6931 26.78536 4.19205 37.88463-11.59721 12.25815.30692 29.94184 16.89206 27.94662 16.58541-1.99496 23.57888.14366 32.02252 8.58308 10.95587 10.94846 34.78134 6.55029 40.63868-8.62409 2.7186-7.04163 6.43044-14.9151 15.503-18.14063 10.66694-3.79095 13.84697-15.70911 6.93658-23.97787-5.12657-6.13383-5.71765-12.4841 1.28984-25.25924 5.75628-10.49443 1.23217-22.179234-14.79999-21.283084-11.90678.665424-17.04579-7.2644-25.70586-15.709374-2.87126-2.799557-6.86277-3.860007-11.19532-3.877469z" fill="#c20a0a" stroke-width="31.4003"/><path d="m-239.05243 95.443479c-25.8613 0-46.97079 21.099831-46.97079 46.963031 0 25.86295 21.10837 46.97284 46.97079 46.97284 25.86241 0 46.97078-21.10989 46.97078-46.97284 0-25.86249-21.10938-46.963031-46.97078-46.963031z" fill="#6c131e" stroke-width="3.14797"/><path d="m-239.05234 105.15056c-20.60893 0-37.25677 16.64706-37.25677 37.25678 0 20.60945 16.64811 37.26471 37.25703 37.26471 20.6084 0 37.26498-16.655 37.26498-37.26445 0-20.60893-16.65632-37.25677-37.26498-37.25677z" fill="#c20a0a" stroke-width="31.4003"/><path d="m-920.52927 467.43942c-5.58909 1.05502-11.30953 2.76071-17.28515 5.22266l-28.51367 11.74805 29.24414 9.78906c3.26725 1.09376 6.49695 2.28987 9.67187 3.57226-17.47003 7.74917-32.36177 21.94399-43.49414 36.00977-7.71534 9.74835-14.67535 20.61841-20.2793 32.24023l-.96093 1.9961-.15235 2.21094c-.23924 3.48725-.37304 7.02705-.37305 10.61718 0 84.08701 68.22681 152.3418 152.31446 152.3418 11.53886 0 22.78934-1.28657 33.60351-3.71484l33.65625-7.5586-69.56836-31.29297-.40625-.14648c-27.95187-10.12052-47.95099-42.21489-52.66992-69.47266-2.35948-13.6289-.62176-25.44943 3.11328-31.5664 3.18078-5.20917 6.95916-7.81127 15.54493-7.10352l-.82227 2.23633 1.55664 4.03906c8.89965 23.09855 23.90307 44.20088 40.60352 60.44922 16.70041 16.24834 34.73237 28.04065 52.91601 30.49024l.57422.0781.58008.0195c.69051.0242 1.35402.005 2.00976-.0312 11.15653.43709 24.2631-3.74406 34.34375-14.89258l13.80274-15.25976 10.80859-9.32422c13.69459-19.03892 20.01888-46.78418 3.10742-72.88477l-3.02343-4.66797-5.53907-.52734c-19.53819-1.85745-32.26973-12.07115-36.52929-25.64453-4.10347-13.07622-15.35431-20.64424-27.18555-25.91797l-8.89648-3.9668-3.37696-6.12304c-8.03346-14.56562-15.58306-26.76765-26.81445-35.12305-6.37742-4.74395-14.09769-8.05702-22.95898-9.55273l-11.68358-.89832c-4.11065.0533-8.34623.44535-12.74609 1.04883l-27.91797 3.82812 12.48242 9.26758c-5.47103-1.64944-11.1903-2.71763-17.20708-2.7247z" fill="#6c131e" filter="url(#d)" stroke-width="3.14797" transform="matrix(.26458334 0 0 .26458334 -16.706824 -11.275074)"/><path d="m-245.15593 112.10707c-.91879.0114-1.92688.10189-3.00757.25011 3.62909 2.69424 6.72573 5.95642 8.89713 9.28367.2185 0 .436.002.65268.006 2.37806.0514 4.67142.38253 7.00525.94775-2.06596-3.74584-3.9406-6.6063-6.24613-8.32146-1.81876-1.35291-3.95721-2.12812-6.91327-2.16576-.12728-.002-.25673-.002-.38809 0zm-12.06541 3.02203c-.0961-.00026-.19213.001-.28888.003-1.84876.0408-3.86455.51597-6.1681 1.46503 7.39507 2.4756 14.08254 6.64319 17.62632 11.00243 2.419-.67526 3.87541-1.93744 4.79867-3.79306-4.5746-3.86812-8.22392-6.76283-11.83958-7.9778-1.33845-.44991-2.6897-.69851-4.12843-.6997zm-.0269 6.94842c-5.18893.88958-10.43468 5.31303-13.95883 9.76581-1.9101 2.41342-3.63409 5.10876-5.01055 7.96334-.059.85931-.0915 1.72633-.0915 2.60087 0 20.60945 16.64824 37.2644 37.25716 37.2644 2.827 0 5.57882-.31496 8.2243-.90899l-9.97871-4.48862c-17.59126-6.36927-22.7459-37.4463-6.17017-34.33795.76847-1.86443 1.3055-3.68921 1.45004-5.45807l2.45205.20051c-.22167 2.71055-1.16183 5.32933-2.3735 7.88995-.0964.26788-.19385.54264-.28784.7984 4.32306 11.22029 14.9756 21.15159 22.31078 22.13974.12045.004.25066.00018.38861-.0114 2.23984.13624 4.72027-.5561 6.87245-2.93626l1.0511-1.1622-1.37873-.74466c-.85652-.46267-1.88073-.93387-2.39107-1.43815-.2551-.25221-.36764-.45674-.40462-.68368-.0371-.22706-.0171-.55641.29352-1.12913l1.40456-2.58744-2.82773.81907c-.82981.24023-2.27806-.39906-3.05718-1.40973-.38964-.50546-.57999-1.04083-.57722-1.4273.003-.38673.0947-.67486.62476-1.05989l2.56057-1.85932-3.14399-.3576c-1.31289-.14966-2.15479-.87662-2.52336-1.6185-.36883-.74161-.30446-1.32719.18086-1.75183l1.60662-1.4056-2.02158-.68523c-.88417-.29959-1.35519-.99424-1.36322-1.3994-.004-.18073.0312-.35086.24236-.58911 1.43874-.3146 2.79841-.0595 3.69745.83871.81006.80901 1.09902 1.99118.91829 3.26853 1.12546-.29669 2.23582-.21235 3.17397.32866 1.22943.7091 1.92827 2.06541 2.06292 3.68092 2.00239-1.33369 4.23209-1.67482 5.95777-.67955 2.03595 1.17416 2.81185 3.88489 2.21227 6.81199 3.15811-4.39057 4.55249-9.96713.73898-15.85278-6.15063-.58472-10.75346-4.03769-12.28039-8.90333-.66158-2.10821-2.80147-3.77387-5.52835-4.98936l-.0103.0284c-3.91473-1.42464-7.31537-2.28395-10.87324-2.466l.0103.0207c-.30197-.0123-.60054-.0211-.89039-.0227-1.25538 3.01096-3.77268 5.25211-7.56026 6.06217l-.77721.16588-.47078-.64027c-1.87128-2.54444-5.42717-5.32437-9.741-7.64398zm20.56309 8.59017c3.67608-.01 5.9067 1.52945 5.54023 5.85132-4.71821.44623-6.83582-2.19635-8.30234-5.61206.98816-.15204 1.91374-.2365 2.76211-.23874zm6.37222 8.73539-.00053.00052c.48809.009.93996.1307 1.31827.37001-.19876.14506-.38114.29988-.54726.46612-.69053.68976-1.06472 1.59563-1.04748 2.46703.0241 1.22707.69376 2.2622 1.66915 2.96985-.41332 1.0666-.32296 2.29758.185 3.31969.50192 1.00936 1.38757 1.87859 2.54093 2.42156-.19021.44309-.31245.90363-.31574 1.36012-.008 1.10663.44474 2.11151 1.08882 2.94711.89405 1.15968 2.21964 2.09764 3.68918 2.35748-.024.28697-.0268.57036.0176.84336.13822.84823.59402 1.53476 1.10277 2.0376.44888.4436.94669.77558 1.42162 1.05213-.8352.63079-1.63437.92865-2.45101 1.02526-.85758-1.04476-1.27816-2.51202-1.23868-4.14031-1.5489.81308-3.18674.94205-4.4912.18965-1.93077-1.11361-2.55272-3.82196-1.73581-6.62492-1.49218.36462-2.9127.12108-3.84163-.80718-1.16823-1.16692-1.25556-3.11007-.40773-4.99557-.48387-.081-.91643-.28481-1.25367-.62166-1.15941-1.1581-.75991-3.4343.89194-5.08445 1.03239-1.03133 2.30977-1.57405 3.40548-1.55339z" fill="#c20a0a" filter="url(#e)" stroke-width="19.1567"/></g><path d="m76.775273 38.800597c-6.848539-4.277485-23.485024-6.556826-24.178093 1.487987-.345226 4.00722 7.723274 2.567657 11.739183 2.790079 4.534013.251117 11.233939 2.256125 13.520489-1.667142.474347-.813886-.282592-2.11189-1.081579-2.610924zm-14.225937-10.146931c-4.57343 4.291044.33586 12.538125.494997 18.807415.195316 7.694573.2098 15.395376.564366 23.084256.464813 10.079624-7.998954 29.271055 2.04838 30.201623 4.40639.40811 2.878166-8.451453 3.315715-12.855017 1.945712-19.581976 10.457237-44.787495-3.207278-58.948025-.747455-.774587-2.43119-1.026773-3.21618-.290252zm16.166311 27.61807c-4.956547 1.794814-8.159765 8.148965-8.372885 13.416156-.281824 6.965188 4.351648 13.992787 9.602549 18.577687 4.389957 3.833155 10.729072 6.852071 16.472129 5.861067 3.465878-.598061 5.01668-5.127709 8.18049-6.664043 4.70052-2.282559 14.18458 1.676715 15.29663-3.429001 1.37117-6.29539-10.13681-7.964239-15.3941-11.688883-7.472803-5.294276-14.687137-11.144453-22.930888-15.133528-.901525-.436239-1.912238-1.280449-2.853925-.939455zm-.779007 3.244021c8.354822-2.613341 14.483379 9.855002 21.999784 14.342346 5.199906 3.104381 16.772706 2.688894 15.955476 8.689593-.51995 3.817855-7.48036 3.360499-11.26018 2.612594-5.783595-1.144389-10.082438-6.252548-14.408808-10.257809-4.759146-4.405916-11.472477-8.526381-12.470393-14.934636-.01505-.09664.07378-.181171.110677-.271756.02448-.06011.0115-.160956.07344-.180332zm-5.423472 2.214759c7.307501-1.46951 10.219041 10.866084 15.640581 15.98135 3.981776 3.756837 13.815191 5.501725 12.384691 10.785856-.995076 3.675726-7.634433 3.405366-11.223355 2.132268-5.161476-1.83093-7.77682-7.860053-10.600495-12.552601-2.94251-4.890034-6.371585-10.17942-6.384091-15.886489-.000214-.09781.07214-.181829.108218-.272744.02482-.06255.0085-.174374.07445-.18764zm-8.803866-35.32473c-5.38423 1.102949-10.387536 4.891245-13.56105 9.378476-2.893526 4.091339-3.975042 9.496116-3.942891 14.507156.02535 3.951631-.09006 9.296678 3.255842 11.399289 3.9085 2.456155 9.039613-2.077351 13.647756-2.349544 5.758317-.340131 11.901526 2.989378 17.281229.907865 2.96798-1.14837 6.142282-3.656942 6.71401-6.787563 1.606671-8.797672-3.93429-18.912907-10.90774-24.51214-3.312271-2.659541-8.325714-3.396002-12.487156-2.543539zm8.442389 3.088884c5.477696 1.488669 4.918013 10.239491 7.07038 15.491977 1.659627 4.050038 7.33107 8.999527 4.498332 12.336106-3.78234 4.455082-13.333937 1.103883-17.227753-3.254103-4.360538-4.880345-4.258683-13.664815-1.457547-19.579685 1.240387-2.619198 4.319965-5.754331 7.116588-4.994295zm-9.581549.587452c5.383852 4.510421 4.597912 14.86635 1.238125 21.034137-2.235376 4.103631-8.121479 9.170486-12.204549 6.897771-3.289273-1.830873-.894643-7.545131-.457838-11.284197.63559-5.440678.269874-12.263785 4.432926-15.823835 1.783401-1.525082 5.19258-2.330817 6.991336-.823876zm-37.448357 83.957148c5.30398 5.30879 15.009209-.0658 22.513076.0204 10.82477.12427 22.122424 3.90185 32.468553.71615 4.129927-1.27166 6.64073-5.69604 10.555089-7.52667 4.581483-2.14262 9.859527-2.30575 14.680877-3.83396 5.47211-1.73448 14.94897-.42332 16.12669-6.041623.80906-3.859621-4.6428-7.337097-8.47915-8.250172-8.28901-1.972836-16.099242 5.681198-24.386538 7.661202-5.39886 1.289898-10.90204 2.196659-16.427218 2.72952-16.357812 1.577583-34.138911-5.02083-49.282302 1.362313-3.046758 1.28425-7.417708 3.61349-7.119695 6.90639.338019 3.73495 7.583824 2.94848 9.350618 6.25643.000003.00001-.000005.00002 0 .00002zm88.049845-17.824263c-6.46845 5.036193-19.876193 14.992573-23.393654 7.587743-1.995908-4.201715 7.527037-5.563111 11.723914-7.569173 4.65735-2.226161 11.5263-8.914475 14.70736-4.849067 1.17213 1.497991-1.5368 3.661991-3.03762 4.830497zm-28.915988 14.209083c-4.109157 4.09294-11.59941-.0775-17.399173-.0688-13.666313.0205-28.144255 4.92715-40.997995.28496-2.931568-1.05875-8.205523-3.09148-7.151168-6.02463 2.117298-5.89019 12.51984-.0129 18.776601-.18678 14.320452-.39795 29.447007-6.792552 42.933234-1.95981 2.49363.89358 5.673437 2.68281 5.901511 5.32187.09601 1.11088-1.699278 1.57913-2.06301 2.63316-.000003.00001.000007.00002 0 .00003zm-59.440099-78.48732c-5.762155 8.107699-9.497479 17.634828-12.355125 27.162214-2.326816 7.7576-4.6740551 15.953653-3.7728853 24.002399.5139072 4.589932 1.3302303 10.240857 5.1254023 12.873013 4.814462 3.339088 11.821839 1.48463 17.573338.367128 4.917827-.955521 11.253526-1.612465 13.815312-5.917728 3.802621-6.390573-1.387071-14.8079-2.062255-22.213538-1.157129-12.691767 4.594602-28.162786-3.408475-38.080985-2.151899-2.666845-6.477859-3.840321-9.814482-3.0595-2.288264.535489-3.73942 2.951412-5.10083 4.866997zm10.757648-3.77465c4.45613 7.636813 9.252571 18.861263 4.286646 26.176835-1.185991 1.747147-4.143169 1.882789-6.188107 1.356173-5.613802-1.445675-12.75489-5.677116-13.076432-11.465152-.405848-7.305612 7.505355-15.647037 14.800516-16.21033.07561-.0058.139156.07697.177377.142474zm5.44608 64.602571c-5.857418 3.408526-13.948486 2.005919-20.329027-.277958-3.582456-1.282319-7.557445-3.570005-8.920443-7.122549-2.9462816-7.679244.842974-16.762846 4.03598-24.342825 1.637423-3.88713 3.310267-9.608023 7.486205-10.201722 6.535068-.9291 12.465079 6.313923 15.700803 12.06722 2.739034 4.870154 1.393037 11.092156 1.825706 16.662928.323857 4.169776 1.523384 8.460261.57561 12.53379-.05873.252406-.150849.550776-.374834.681116zm.670409-40.753875c2.855435 13.155452-8.033054 29.950542.475353 40.382533 3.494322 4.28432 10.746126 2.661678 16.206844 3.525529 5.899469.933259 12.299718 4.038545 17.829705 1.781568 3.61306-1.474613 7.058053-5.106313 7.507965-8.982686 1.170603-10.085742-6.667184-19.865038-13.662148-27.224588-4.664385-4.907498-11.158977-8.156622-17.668027-10.020029-3.57057-1.02218-9.040069-3.533612-11.132303-.465-.205809.301854.365117.645647.442611 1.002673zm3.201369-.540485c5.927992-3.309015 13.379326 5.249331 17.251702 10.825654 3.512446 5.058014 4.451841 11.976414 3.734745 18.092503-.553063 4.717057-1.738281 10.875191-6.030064 12.909177-4.550929 2.156802-11.535001.243879-14.64375-3.718246-4.708603-6.001151-.131081-15.255224-.193197-22.882864-.04133-5.075396-4.55129-12.752356-.119436-15.226224zm22.330177 12.068011c5.215464-1.369099 4.195248 9.943984 6.625426 14.757478 2.464185 4.880852 10.313139 9.312746 8.051633 14.290748-1.584015 3.486716-8.129178 4.558657-11.24873 2.337242-4.033355-2.872128-1.358138-9.810646-1.901177-14.732249-.611353-5.540739-6.91884-15.23786-1.527152-16.653219z" fill="url(#g)" filter="url(#f)" opacity=".25"/></g></svg>