<svg height="500" viewBox="0 0 500 500" width="500" xmlns="http://www.w3.org/2000/svg" xmlns:xlink="http://www.w3.org/1999/xlink"><linearGradient id="a" gradientUnits="userSpaceOnUse" x1="229.33672" x2="300.41016" xlink:href="#b" y1="223.03561" y2="223.02249"/><linearGradient id="b"><stop offset="0" stop-color="#cbcbcb"/><stop offset=".40905663" stop-color="#d1d0cc"/><stop offset=".5" stop-color="#9e9e9c"/><stop offset=".59469599" stop-color="#b8b7b5"/><stop offset="1" stop-color="#a9aaa5"/></linearGradient><linearGradient id="c" gradientUnits="userSpaceOnUse" x1="442.51248" x2="85" xlink:href="#b" y1="23.895344" y2="240.5"/><g transform="matrix(.70710678 -.70710678 .70710678 .70710678 -131.958244 240.859737)"><path d="m201.30078 84.51921c.19215 22.23608 12.51646 42.1351 30.65234 52.51985l.63477 75.53906-45.76953 58.95313 78.59766 282.86914 73.6875-284.19727-46.06055-57.20507-.62695-75.8308c18.12044-10.65192 30.2598-30.80955 30.09575-49.786442-.16404-18.976892-6.40514-33.515785-16.59771-44.537058-10.86723-11.750791-26.71261-18.949235-44.40158-18.949235-33.28172.28784-60.50021 27.346581-60.2117 60.624695zm60.2117-8.70478c5.14925.05058 9.2547 3.9156 9.32546 8.70478.0708 4.78918-4.21755 9.126077-9.32546 9.170243-5.10791.04417-8.50836-4.036508-8.53001-9.170243-.0216-5.133735 3.38077-8.755358 8.53001-8.70478z" fill="#81817e"/><path d="m261.51248 39.895343c-24.63183.212238-44.42504 19.990529-44.21148 44.623867.16874 19.60053 12.94368 36.51386 30.56793 42.34915l.76524 91.13221-44.24762 56.99333 60.49491 217.71851 56.71621-218.73977-44.50951-55.27549-.75323-91.97258c17.67093-6.05604 30.31882-22.49911 30.1478-42.20536-.0994-11.54519-4.5629-22.42978-12.31536-30.812551-7.75246-8.38277-19.56815-13.925592-32.65489-13.811316zm25.32534 44.623867c.11831 13.769416-11.55659 25.05118-25.32534 25.17022-13.76875.11906-24.41012-11.402127-24.52993-25.17022-.11906-13.768759 10.76118-24.585673 24.52993-24.704729 7.31377-.06426 14.24399 2.917021 18.71534 8.017464 4.06273 4.391607 6.5537 10.233594 6.61 16.687265z" fill="url(#a)" stroke-width="32"/><path d="m261.51248 145.00204c5.02192.0322 10.08026-.60899 14.95734-1.80683 5.51994-1.35572 11.45198-3.64706 15.95009-6.03025 6.81986-3.64368 13.43002-8.64222 18.51759-14.98518 7.87512-9.81837 12.2478-22.900963 11.52539-37.66057-1.5459-31.584653-27.04463-60.649445-60.95041-60.624679-33.12033.02419-60.50227 27.107858-60.2117 60.624679.19079 22.16185 12.4431 42.22091 30.58353 52.64804 5.43823 3.24269 10.55639 4.63361 16.12171 6.02744 4.40619 1.10353 8.96427 1.77826 13.50646 1.80735zm0-69.080165c7.00362.767686 9.13851 3.300399 9.30588 8.597335-.0156 4.611911-3.89089 9.123427-9.30588 9.170243-5.11724.04425-8.48133-3.570826-8.53006-9.170243-.0428-5.057547 3.7312-8.282053 8.53006-8.597335z" fill="#81817e"/><path d="m261.51248 39.895343c-24.08436.01759-44.42504 19.990529-44.21148 44.623867.16874 19.60053 12.94368 36.51386 30.56793 42.34915 4.97047 1.50029 9.01484 2.18469 13.64355 2.13385 4.6287-.0508 9.84174-.83695 14.82245-2.27764 17.67093-6.05604 31.26983-19.28102 30.1478-42.20536s-20.88589-44.641459-44.97025-44.623867zm25.32534 44.623867c.11831 13.769416-11.55659 25.05118-25.32534 25.17022-13.76875.11906-24.41012-11.402127-24.52993-25.17022-.11906-13.768759 10.76118-24.585673 24.52993-24.704729 14.76473 1.112164 25.01409 11.195577 25.32534 24.704729z" fill="url(#c)" stroke-width="32"/></g></svg>