<svg height="500" viewBox="0 0 132.29167 132.29167" width="500" xmlns="http://www.w3.org/2000/svg" xmlns:xlink="http://www.w3.org/1999/xlink"><linearGradient id="a"><stop offset="0" stop-color="#61646b"/><stop offset=".20644058" stop-color="#61646b"/><stop offset=".375" stop-color="#797d86"/><stop offset=".5539977" stop-color="#656a71"/><stop offset="1" stop-color="#61646b"/></linearGradient><linearGradient id="b" gradientUnits="userSpaceOnUse" x1="305.27148" x2="322.81882" y1="50.886719" y2="38.632568"><stop offset="0" stop-color="#63452c"/><stop offset=".22248861" stop-color="#745134"/><stop offset=".5" stop-color="#865e3c"/><stop offset=".77748454" stop-color="#745134"/><stop offset="1" stop-color="#63452c"/></linearGradient><linearGradient id="c" gradientUnits="userSpaceOnUse" spreadMethod="reflect" x1="258.882995" x2="272.236925" xlink:href="#a" y1="83.55868" y2="123.3123"/><linearGradient id="d" gradientUnits="userSpaceOnUse" spreadMethod="reflect" x1="328.380495" x2="290.046815" xlink:href="#a" y1="115.170633" y2="113.813692"/><linearGradient id="e" gradientUnits="userSpaceOnUse" spreadMethod="reflect" x1="270.644745" x2="307.347835" xlink:href="#a" y1="129.666689" y2="170.296483"/><radialGradient id="f" cx="287.33884" cy="113.24376" gradientTransform="matrix(-1.4900657 1.5634754 -1.5654575 -1.4919523 874.22593 -184.58388)" gradientUnits="userSpaceOnUse" r="30.017652" xlink:href="#a"/><linearGradient id="g" gradientTransform="matrix(.87069145 -.49182965 .49182965 .87069145 122.74204 303.882928)" gradientUnits="userSpaceOnUse" spreadMethod="reflect" x1="504.41846" x2="510.35504" xlink:href="#a" y1="90.3601" y2="95.109413"/><linearGradient id="h" gradientTransform="matrix(.93823061 -.34601057 .34601057 .93823061 94.215249 203.752926)" gradientUnits="userSpaceOnUse" spreadMethod="reflect" x1="504.41846" x2="510.35504" xlink:href="#a" y1="90.3601" y2="95.109413"/><linearGradient id="i" gradientTransform="matrix(.97710932 .2127378 -.2127378 .97710932 125.471489 -104.643836)" gradientUnits="userSpaceOnUse" spreadMethod="reflect" x1="504.41846" x2="510.35504" xlink:href="#a" y1="90.3601" y2="95.109413"/><linearGradient id="j" gradientTransform="matrix(.70617882 .70803353 -.70803353 .70617882 321.712441 -347.239778)" gradientUnits="userSpaceOnUse" spreadMethod="reflect" x1="504.41846" x2="510.35504" xlink:href="#a" y1="90.3601" y2="95.109413"/><linearGradient id="k" gradientTransform="matrix(.00430577 .99999073 -.99999073 .00430577 726.046382 -434.821888)" gradientUnits="userSpaceOnUse" spreadMethod="reflect" x1="504.41846" x2="510.35504" xlink:href="#a" y1="90.3601" y2="95.109413"/><linearGradient id="l" gradientTransform="matrix(.8006074 -.59918928 .59918928 .8006074 177.149993 310.616484)" gradientUnits="userSpaceOnUse" spreadMethod="reflect" x1="504.41846" x2="510.35504" xlink:href="#a" y1="90.3601" y2="95.109413"/><linearGradient id="m" gradientUnits="userSpaceOnUse" spreadMethod="reflect" x1="190.650645" x2="242.893005" xlink:href="#a" y1="38.503292" y2="65.302937"/><linearGradient id="n" gradientTransform="matrix(.61038667 -.7921036 .7921036 .61038667 235.205314 435.545225)" gradientUnits="userSpaceOnUse" spreadMethod="reflect" x1="531.55725" x2="517.64868" xlink:href="#a" y1="92.225906" y2="99.858696"/><linearGradient id="o" gradientTransform="matrix(.58549934 .81067288 -.81067288 .58549934 391.467645 -409.43323)" gradientUnits="userSpaceOnUse" spreadMethod="reflect" x1="531.55725" x2="517.64868" xlink:href="#a" y1="92.225906" y2="99.858696"/><linearGradient id="p" gradientTransform="matrix(.85624565 .51656885 -.51656885 .85624565 204.328074 -266.843546)" gradientUnits="userSpaceOnUse" spreadMethod="reflect" x1="531.55725" x2="517.64868" xlink:href="#a" y1="92.225906" y2="99.858696"/><linearGradient id="q" gradientTransform="matrix(.95951438 -.28165965 .28165965 .95951438 67.379818 163.58683)" gradientUnits="userSpaceOnUse" spreadMethod="reflect" x1="531.55725" x2="517.64868" xlink:href="#a" y1="92.225906" y2="99.858696"/><linearGradient id="r" gradientTransform="matrix(.91471111 -.40410838 .40410838 .91471111 86.765681 252.65962)" gradientUnits="userSpaceOnUse" spreadMethod="reflect" x1="531.55725" x2="517.64868" xlink:href="#a" y1="92.225906" y2="99.858696"/><linearGradient id="s" gradientTransform="matrix(.93968053 -.34205337 .34205337 .93968053 119.910697 180.349373)" gradientUnits="userSpaceOnUse" spreadMethod="reflect" x1="531.55725" x2="517.64868" xlink:href="#a" y1="92.225906" y2="99.858696"/><linearGradient id="t" gradientTransform="matrix(.97332707 -.22942192 .22942192 .97332707 83.133368 172.956163)" gradientUnits="userSpaceOnUse" spreadMethod="reflect" x1="531.55725" x2="517.64868" xlink:href="#a" y1="92.225906" y2="99.858696"/><g stroke-width="1.25758" transform="matrix(.79649037 0 0 .79386339 -178.90831 -4.430683)"><g fill-rule="evenodd" transform="translate(-343.42923 -58.979662)"><g><path d="m612.99414 128.25977c-1.40975-.004-2.808.32026-4.08398 1.04101-2.55219 1.44139-3.9974 4.12245-4.35352 6.99219s.29382 6.0175 1.93555 8.92383c1.64169 2.90634 4.00287 5.08729 6.64453 6.26367s5.68437 1.32461 8.23633-.11719c2.55195-1.44155 3.99749-4.12448 4.35351-6.99414.35602-2.86965-.29194-6.01763-1.93359-8.92383-1.64162-2.90621-4.00495-5.08725-6.64649-6.26367-1.32076-.58821-2.74259-.91833-4.15234-.92187zm4.57422 6.24414c.20207.17253.39085.32945.58594.52343-.18315-.19934-.39356-.34201-.58594-.52343zm1.35547 1.50976c.40211.49691.84694.92115 1.18164 1.51367.802 1.41977 1.15018 2.85224 1.30664 4.22266-.20776-1.32259-.58784-2.66753-1.30664-4.00586-.3452-.64272-.76951-1.17946-1.18164-1.73047zm-5.89649.46875c-.0963.0493.19499-.0754.94727.42969s1.69468 1.52004 2.40039 2.83398c.70572 1.31398 1.01974 2.64395 1.01758 3.51368-.002.86972-.23301.97119-.13672.92187.0948-.0486-.19621.0727-.94727-.43164-.75234-.50517-1.69469-1.51993-2.40039-2.83398-.70563-1.31394-1.01977-2.64209-1.01758-3.51172.002-.86784.23147-.97047.13672-.92188zm-4.22265.1836c-.007.0724-.0378.14067-.043.21289.002-.0197-.006-.0449-.004-.0645.007-.0583.0385-.0913.0469-.14843zm.0664 2.24609c.20771 1.32253.58989 2.66756 1.3086 4.00586.34424.641.7669 1.17676 1.17773 1.72656-.40111-.49604-.84572-.91853-1.17969-1.50976-.80215-1.42005-1.15027-2.85202-1.30664-4.22266zm12.65039 4.87109c-.002.0203.006.0462.004.0664-.007.0592-.0403.0923-.0488.15039.008-.0738.0396-.14318.0449-.2168zm-9.38671 1.85742c.17869.19428.38282.33449.57031.51172-.19701-.1686-.37996-.32271-.57031-.51172z" fill="#4a4c4f"/><path d="m609.95177 131.14292a10.552771 7.8181781 60.53909 0 0 -1.61742 13.0337 10.552771 7.8181781 60.53909 0 0 11.99782 5.34284 10.552771 7.8181781 60.53909 0 0 1.61698-13.03347 10.552771 7.8181781 60.53909 0 0 -11.99738-5.34307zm2.1104 3.45447a6.5093463 3.4797728 61.310488 0 1 6.17761 4.14774 6.5093463 3.4797728 61.310488 0 1 -.0182 7.32054 6.5093463 3.4797728 61.310488 0 1 -6.17786-4.14818 6.5093463 3.4797728 61.310488 0 1 .0185-7.3201z" fill="url(#g)" stroke-width="4.23333"/></g><g><path d="m604.16406 108.83594c-.70383.0586-1.40627.20936-2.09375.46289-2.7492 1.01432-4.60497 3.42999-5.41601 6.20508-.81121 2.77564-.67647 5.98736.47851 9.11914 1.15496 3.13179 3.13752 5.66371 5.55664 7.24804 2.41859 1.58398 5.399 2.21463 8.14844 1.20118 2.7499-1.01417 4.60688-3.42951 5.41797-6.20508.81108-2.77557.67447-5.98751-.48047-9.11914-1.1549-3.13165-3.13766-5.66175-5.55664-7.2461-1.81424-1.18826-3.9432-1.84179-6.05469-1.66601zm5.625 6.99219c.16909.19973.32725.38239.48633.60156-.14655-.22238-.32817-.39487-.48633-.60156zm-8.99414.71093c-.0211.0778-.0675.14661-.0859.22461.006-.0215.002-.0509.008-.0723.0181-.062.0589-.0919.0781-.15235zm4.18945.50782c-.10294.0332.20553-.0409.86719.57812.66166.61907 1.42794 1.77162 1.91406 3.18164.48614 1.41005.58481 2.77271.44336 3.63086s-.38615.92193-.2832.88867c.10295-.0332-.20548.041-.86719-.57812-.6617-.61916-1.42796-1.77152-1.91406-3.18164-.48605-1.41-.58482-2.77281-.44336-3.63086.14147-.85806.38615-.92194.2832-.88867zm5.89454.48046c.31803.55576.68988 1.0459.92578 1.68555.56474 1.5313.67698 3.00209.61133 4.38086.007-1.3395-.153-2.72896-.64844-4.16602-.23818-.69084-.56948-1.28962-.88867-1.90039zm-10.38672 1.25586c-.007 1.33827.15356 2.72653.64843 4.16211.23721.6881.56914 1.28389.88672 1.89258-.31628-.55365-.68704-1.04095-.92187-1.67773v-.002c-.56401-1.52931-.67812-2.99762-.61328-4.375zm11.70703 6.83399c-.005.0192-.002.0454-.008.0645-.0165.0563-.0529.0836-.0703.13867.019-.0704.0614-.13253.0781-.20312zm-9.56445.32617c.14557.22091.32538.39222.48242.59766-.16777-.19839-.32453-.38013-.48242-.59766z" fill="#4a4c4f"/><path d="m602.80365 111.28523a10.552771 7.8181781 69.756503 0 0 -3.6843 12.60633 10.552771 7.8181781 69.756503 0 0 10.98709 7.19567 10.552771 7.8181781 69.756503 0 0 3.68381-12.60616 10.552771 7.8181781 69.756503 0 0 -10.9866-7.19584zm1.5298 3.74792a6.5093463 3.4797728 70.527901 0 1 5.43346 5.08371 6.5093463 3.4797728 70.527901 0 1 -1.19059 7.2231 6.5093463 3.4797728 70.527901 0 1 -5.43363-5.08419 6.5093463 3.4797728 70.527901 0 1 1.19076-7.22262z" fill="url(#h)" stroke-width="4.23333"/></g><g><path d="m602.31641 88.617187c-2.11558.118193-4.13334 1.060211-5.76563 2.488282-2.17639 1.904094-3.7899 4.683749-4.5 7.945312-.71013 3.261559-.39873 6.463059.78906 9.099609 1.18754 2.63599 3.35953 4.7707 6.22266 5.39453 2.86387.6235 5.72804-.41622 7.9043-2.32031 2.17625-1.9041 3.78993-4.6839 4.5-7.94531.71009-3.26141.3986-6.461166-.78907-9.097659-1.18766-2.636493-3.36075-4.772937-6.22461-5.396485-.71598-.155946-1.43152-.207366-2.13671-.167969zm-2.8418 5.59375c-.0553.05047-.12623.08092-.17969.132813.0156-.01389.0273-.03904.043-.05273.045-.03936.0916-.04234.13672-.08008zm-1.44531 1.714844c-.72748 1.126327-1.34186 2.385564-1.69727 3.865235-.16981.706994-.20997 1.386994-.26953 2.070314.0311-.63637-.0193-1.2456.125-1.908205.3476-1.596565 1.04385-2.899515 1.8418-4.027344zm4.71484.958985c-.10466-.02733.19491.07539.41992.953125.22501.877732.25257 2.262649-.0957 3.712889-.34828 1.45027-.9994 2.65134-1.58008 3.29883s-.81953.57034-.71484.59766c.10466.0273-.19492-.0753-.41992-.95313-.22501-.87783-.25265-2.26259.0957-3.71289.34832-1.450172.99748-2.651425 1.57812-3.298828s.82148-.570345.7168-.597656zm4.70703 1.558593c.0349.258224.0697.496501.0859.765625-.004-.265473-.0639-.50709-.0859-.765625zm.004 2.011721c-.0305.64091.0204 1.2562-.125 1.92383-.34711 1.59429-1.04151 2.89445-1.83789 4.02148.72581-1.12532 1.33658-2.38384 1.6914-3.86133.1709-.71163.2123-1.39639.27149-2.08398zm-11.47656 2.66601c.004.2667.0656.50984.0879.76954-.0352-.2596-.0716-.49891-.0879-.76954zm8.24023 4.86914c-.0144.0128-.0247.0362-.0391.0488-.0425.0372-.0863.0404-.12891.0762.0517-.0473.11787-.0764.16797-.125z" fill="#4a4c4f"/><path d="m604.00363 90.854056a7.8181781 10.552771 12.282843 0 0 -9.88466 8.647958 7.8181781 10.552771 12.282843 0 0 5.39468 11.974606 7.8181781 10.552771 12.282843 0 0 9.88416-8.64807 7.8181781 10.552771 12.282843 0 0 -5.39418-11.974494zm-.72536 3.982593a3.4797728 6.5093463 13.054241 0 1 1.84774 7.207811 3.4797728 6.5093463 13.054241 0 1 -4.88761 5.44995 3.4797728 6.5093463 13.054241 0 1 -1.84763-7.2083 3.4797728 6.5093463 13.054241 0 1 4.8875-5.449461z" fill="url(#i)" stroke-width="4.23333"/></g><g><path d="m611.70312 72.449219c-2.8608.421935-5.72255 1.884972-8.08593 4.242187-2.36341 2.35719-3.83619 5.216482-4.26563 8.076172s.24051 5.831109 2.31055 7.90625c2.06979 2.075197 5.0397 2.752089 7.90039 2.330078s5.72266-1.887032 8.08594-4.24414c2.36329-2.357082 3.83611-5.214645 4.26562-8.074219s-.24079-5.83102-2.31054-7.90625c-2.06971-2.075475-5.03959-2.752013-7.9004-2.330078zm.61719 4.1875c.0576-.0085.0974.013.1543.0059-.0718.01218-.14576.0014-.2168.01563.0201-.0031.0425-.01854.0625-.02148zm-1.99219.667968c-1.2192.552815-2.41356 1.278652-3.51171 2.328125-.52509.50181-.92784 1.050259-1.34766 1.591797.37047-.517473.65715-1.056849 1.13672-1.535156 1.15491-1.151896 2.44316-1.868617 3.72265-2.384766zm3.45118 3.357422c-.0732-.07966.12411.167625-.16211 1.027344-.28623.859719-1.01358 2.039809-2.0918 3.070313-1.07824 1.030523-2.27446 1.688156-3.11328 1.917968s-.99899.03363-.92578.113282c.0732.07966-.12417-.1695.16211-1.029297.28628-.859798 1.01348-2.037844 2.09179-3.06836 1.07822-1.030419 2.27455-1.688209 3.11329-1.917968.83873-.22976.99899-.03363.92578-.113282zm-9.06641 1.583985c-.13847.222397-.2179.455372-.33789.68164.10927-.233179.20749-.449414.33789-.68164zm12.17969 2.27539c-.11036.235757-.20984.454671-.3418.689453.14028-.22505.22045-.460436.3418-.689453zm-1.08399 1.691407c-.37311.523015-.66399 1.067606-1.14843 1.550781h-.002c-1.15485 1.151843-2.44126 1.86861-3.7207 2.384765 1.21926-.552886 2.41354-1.2805 3.51172-2.330078.52957-.506136.93693-1.058974 1.35937-1.605468zm-6.80078 4.582031c-.02.0031-.0425.01854-.0625.02148-.0576.0085-.0974-.013-.15429-.0059.0718-.01218.14575-.0014.21679-.01563z" fill="#4a4c4f"/><path d="m618.10469 76.274174a7.8181781 10.552771 45.075142 0 0 -12.99313 1.916333 7.8181781 10.552771 45.075142 0 0 -1.95041 12.988058 7.8181781 10.552771 45.075142 0 0 12.99277-1.916701 7.8181781 10.552771 45.075142 0 0 1.95077-12.98769zm-2.76672 2.955071a3.4797728 6.5093463 45.84654 0 1 -2.35043 7.059895 3.4797728 6.5093463 45.84654 0 1 -7.06039 1.934339 3.4797728 6.5093463 45.84654 0 1 2.3508-7.060249 3.4797728 6.5093463 45.84654 0 1 7.06002-1.933985z" fill="url(#j)" stroke-width="4.23333"/></g><g><path d="m628.42383 64.835937c-3.33794.01436-6.39487 1.012657-8.71094 2.744141s-3.92887 4.315037-3.91602 7.246094c.0127 2.930926 1.64765 5.499595 3.97852 7.210937 2.33087 1.711343 5.39464 2.682358 8.73242 2.667969 3.33779-.01435 6.39489-1.010836 8.71094-2.742187s3.92861-4.315169 3.91602-7.246094c-.0124-2.931059-1.64762-5.501416-3.97852-7.212891s-5.39449-2.682358-8.73242-2.667969zm.0176 4.232422c1.6292-.007 3.04853.388433 4.32031.919922-1.25483-.463386-2.61536-.786627-4.13281-.8125-.72579-.01237-1.39725.09577-2.07618.185547.62725-.107461 1.2114-.290056 1.88868-.292969zm-3.14454.486328c-.25541.06088-.47575.171343-.7207.248047.24207-.08914.46423-.174499.7207-.248047zm9.29297 1.330079c.0174.01255.0453.01861.0625.03125.0496.0364.0634.08225.11133.11914-.063-.04431-.1098-.108321-.17383-.15039zm-6.0332 2.523437c1.4912.02542 2.80455.399809 3.5625.826172.75572.42511.73254.674053.73633.568359.004-.106663-.0291.209692-.83594.619141-.80801.410068-2.15327.736298-3.64453.710937-1.49129-.02536-2.80446-.399789-3.5625-.826171-.75582-.425133-.7345-.67406-.73828-.56836-.004.106663.031-.207723.83789-.617187.80811-.410084 2.15319-.738315 3.64453-.712891zm-6.37891 5.105469c.0581.04073.10117.09985.16016.138672-.0157-.01131-.0411-.01596-.0566-.02734-.0462-.03391-.0588-.07699-.10352-.111328zm1.98243 1.035156c1.25736.465737 2.62103.790528 4.14257.816406.72575.01234 1.39729-.09575 2.07618-.185547-.62722.107452-1.21143.290056-1.88868.292969-1.63387.007-3.05603-.389598-4.33007-.923828zm8.19726.189453c-.24264.0894-.46553.174316-.72265.248047.25601-.06104.47716-.171115.72265-.248047z" fill="#4a4c4f"/><path d="m639.01863 74.72557a7.8181781 10.552771 89.753297 0 0 -10.58641-7.773129 7.8181781 10.552771 89.753297 0 0 -10.51908 7.864005 7.8181781 10.552771 89.753297 0 0 10.58641 7.77262 7.8181781 10.552771 89.753297 0 0 10.51908-7.863496zm-4.04511.155909a6.5093463 3.4797728.52469467 0 1 -6.63529 3.367421 6.5093463 3.4797728.52469467 0 1 -6.38049-3.58888 6.5093463 3.4797728.52469467 0 1 6.6358-3.367414 6.5093463 3.4797728.52469467 0 1 6.37998 3.588873z" fill="url(#k)" stroke-width="4.23333"/></g><g><path d="m640.90234 73.708984c-1.11415.140887-2.16773.554033-3.15429 1.132813h-.19922l-.5625.423828c-2.34679 1.756091-3.43781 4.598516-3.42383 7.490234.014 2.891719 1.06046 5.93308 3.06055 8.605469 2.00006 2.672415 4.62211 4.532611 7.39257 5.361328 2.77047.828718 5.80584.58459 8.15235-1.171875 2.34653-1.756215 3.43594-4.600569 3.42187-7.492187-.0141-2.891619-1.05859-5.931246-3.05859-8.603516-1.99997-2.672288-4.62224-4.532555-7.39258-5.361328-1.38517-.414386-2.83771-.561624-4.23633-.384766zm5.34375 5.613282c.21862.143006.42215.273089.63672.4375-.20375-.171307-.42631-.284519-.63672-.4375zm1.52735 1.318359c.46333.442006.96061.805704 1.36914 1.351562.9777 1.306348 1.50367 2.683501 1.83398 4.023438-.37516-1.285989-.92387-2.572412-1.80859-3.808594-.42499-.593822-.9148-1.072296-1.39453-1.566406zm-5.78711 1.220703c-.0892.06121.18537-.1.99609.304688.81072.404687 1.87416 1.291051 2.74219 2.503906.86804 1.21288 1.3518 2.490658 1.46094 3.353515.10913.862858-.10873.994831-.0195.933594.0877-.06031-.18481.09739-.99415-.30664-.81079-.404755-1.87611-1.290948-2.74414-2.503907-.86794-1.212847-1.34989-2.490745-1.45898-3.353515s.10677-.992877.0176-.931641zm-4.16211.728516c.002.07014-.0195.139252-.0156.208984-.00024-.01952-.0116-.04306-.0117-.0625-.00027-.05621.0265-.09114.0273-.146484zm.35547 2.224609c.37568 1.281442.92512 2.5631 1.80664 3.794922.42238.590223.90827 1.06488 1.38476 1.556641-.45973-.439604-.95376-.799831-1.35937-1.341797-.97437-1.301889-1.50071-2.673942-1.83203-4.009766zm13.16601 3.203125c.00025.01952.0116.04306.0117.0625.00028.05621-.0265.09114-.0273.146484-.002-.07014.0195-.139249.0156-.208984zm-9.07031 3.042969c.20113.168904.4213.280584.62891.43164-.2159-.141357-.41696-.269406-.62891-.43164z" fill="#4a4c4f"/><path d="m638.25389 76.959417a10.552771 7.8181781 53.188144 0 0 .0635 13.133527 10.552771 7.8181781 53.188144 0 0 12.58282 3.763845 10.552771 7.8181781 53.188144 0 0 -.0639-13.133229 10.552771 7.8181781 53.188144 0 0 -12.5824-3.764143zm2.53504 3.156068a6.5093463 3.4797728 53.959542 0 1 6.65753 3.323238 6.5093463 3.4797728 53.959542 0 1 .91858 7.26271 6.5093463 3.4797728 53.959542 0 1 -6.65783-3.323652 6.5093463 3.4797728 53.959542 0 1 -.91828-7.262296z" fill="url(#l)" stroke-width="4.23333"/></g><g><path d="m632.0293 70.837891c-.86161.138383-1.91168.49934-2.68946 1.441406l-2.86132 3.464844h2.06835c.0768.60864.16124 1.219095.34766 1.71289 1.06503 2.821029 3.53105 4.309515 4.82031 5.347656 1.4879 1.19804 3.60809 2.847013 6.36524 3.203125.64709.08358 1.41665.135649 2.27734-.002.86069-.137601 1.91286-.498379 2.69141-1.441406.76318-.924444.93247-1.99874.91211-2.873047-.0204-.874306-.21949-1.638008-.4668-2.298828-1.01919-2.723292-3.34137-4.165204-4.65234-5.220703-1.47138-1.184647-3.664-2.955267-6.52735-3.333984-.65172-.0862-1.42355-.138384-2.28515 0zm.57422 4.136718c-.11086.134276-.14726.08231.0977.04297.24492-.03934.67184-.03357 1.0586.01758 1.22726.162323 3.09731 1.364009 4.42578 2.433594 1.48894 1.198781 2.98834 2.458551 3.34375 3.408203.11294.301799.19391.684224.19922.912109.005.227886-.0542.211905.0547.08008.11161-.135181.15206-.08227-.0937-.04297-.2458.0393-.6765.03303-1.06836-.01758-1.19603-.154479-2.93799-1.24632-4.25-2.302735-1.51035-1.216162-3.14585-2.56549-3.51562-3.544922-.11215-.297074-.19213-.677193-.19727-.904296-.005-.227104.0535-.213056-.0547-.08203z" fill="#4a4c4f"/><path d="m630.97142 73.627583c.66692-.807791 2.02726-.82801 3.06574-.690661 2.04531.27052 4.07685 1.756167 5.47677 2.883284 1.39996 1.127141 3.31072 2.478738 3.99802 4.315212.36025.96262.55865 2.289387-.0957 3.082005-.66695.807847-2.02699.824818-3.06594.690625-1.97659-.255296-3.90767-1.625544-5.30762-2.752772-1.39981-1.127153-3.44964-2.545644-4.16704-4.445876-.363-.96153-.55853-2.289246.0958-3.081817z" fill="url(#n)" stroke-width="4.23333"/></g><g><path d="m622.625 69.925781c-3.00751.217633-5.13577 2.157391-6.49805 3.097656-1.57213 1.085151-3.75633 2.645911-4.88281 5.1875-.26438.596503-.5333 1.321306-.64648 2.185547-.11319.864242-.067 1.975382.61523 2.990235.66884.994831 1.65023 1.46196 2.49414 1.691406.84392.229446 1.63204.257883 2.33594.208984 2.90077-.201521 4.94497-2.018473 6.33008-2.974609 1.55458-1.073127 3.87433-2.669683 5.05273-5.306641.2682-.600189.53965-1.326069.65234-2.191406.1127-.865337.0644-1.97444-.61718-2.988281-.66824-.993925-1.64946-1.463097-2.49414-1.69336-.84468-.230262-1.63342-.258285-2.3418-.207031zm.30664 4.222656c.31671-.02291.70271.0086.92188.06836.21916.05975.1905.111703.0957-.0293-.0972-.144515-.0363-.1659-.0684.08008-.032.245978-.15919.653579-.31836 1.009766-.50508 1.130242-2.19016 2.581888-3.59375 3.550781-1.57313 1.085932-3.20722 2.164103-4.21875 2.234375-.32146.02233-.71168-.0086-.93164-.06836-.21996-.0598-.18912-.11256-.0937.0293.0978.14547.038.168693.0703-.07813.0323-.246817.16021-.656351.32031-1.017578.48866-1.102523 2.02974-2.463058 3.41602-3.419922 1.5959-1.101509 3.35623-2.283816 4.40039-2.359375z" fill="#4a4c4f"/><path d="m625.70518 73.006379c.58444.869327.21645 2.179108-.21092 3.135485-.84174 1.883602-2.84437 3.407992-4.32346 4.429003-1.47912 1.021035-3.31887 2.467818-5.27502 2.603715-1.02536.07123-2.35369-.116395-2.92716-.96937-.58448-.869384-.21347-2.177947.21102-3.135677.80757-1.822058 2.67097-3.283009 4.15018-4.304017 1.47909-1.020889 3.42256-2.581938 5.4484-2.728534 1.02509-.07417 2.35352.116469 2.92696.969395z" fill="url(#o)" stroke-width="4.23333"/></g><g><path d="m607.00977 82.945312c-.86738.118983-1.60463.403895-2.23633.728516-2.68197 1.37824-3.88048 3.995808-4.76563 5.394531-1.02148 1.614236-2.41993 3.907796-2.46094 6.6875-.01.652387.0254 1.422198.25977 2.261719s.71301 1.845193 1.73828 2.511722c1.00506.65336 2.09263.69951 2.95899.58008.86635-.11944 1.60002-.40392 2.22851-.72461 2.59007-1.32161 3.76023-3.79258 4.66016-5.214848 1.01005-1.596294 2.52089-3.975452 2.57226-6.863281.0117-.657304-.0245-1.429189-.25976-2.269532-.23525-.840342-.71404-1.843905-1.73828-2.509765-1.00415-.652772-2.08966-.701014-2.95703-.582032zm.65039 4.13086c-.14599-.09491-.0981-.137303-.0312.101562s.11045.664634.10351 1.054688c-.022 1.23776-1.00407 3.232587-1.91601 4.673828-1.02209 1.615335-2.10463 3.248124-3.00782 3.708984-.28703.14646-.65701.269652-.88281.300782s-.21753-.02871-.0742.06445c.14696.09554.10014.140147.0332-.09961-.0669-.239756-.10934-.667416-.10352-1.0625.0178-1.205867.90397-3.062946 1.80469-4.486328 1.03694-1.638589 2.1919-3.41407 3.12304-3.892578.28243-.145136.64995-.267956.875-.298828.22506-.03087.21862.02815.0762-.06445z" fill="#4a4c4f"/><path d="m608.81401 85.301765c.87825.570952 1.05269 1.920214 1.03405 2.967572-.0367 2.062797-1.28224 4.249787-2.24324 5.768556-.96101 1.518803-2.08708 3.570587-3.83371 4.461821-.91553.467152-2.21121.814807-3.07296.254604-.87831-.570987-1.04948-1.920314-1.03404-2.967786.0294-1.992788 1.17166-4.066876 2.13276-5.585686.96105-1.518658 2.1378-3.716204 3.94436-4.644579.91413-.469757 2.21108-.814673 3.07278-.254502z" fill="url(#p)" stroke-width="4.23333"/></g><g><path d="m601.45117 101.52734c-.51078-.0927-1.07251-.0976-1.66406.0547-1.15986.29856-1.92899 1.06561-2.42774 1.78516-.49874.71954-.78671 1.4557-.9746 2.14062-.79773 2.90796.32172 5.56035.7539 7.15821.4988 1.844 1.24124 4.42445 3.26172 6.33398.4742.44816 1.06672.943 1.84375 1.33789s1.83916.72278 3.02344.41797c1.16093-.29882 1.93196-1.06801 2.42969-1.78711.49772-.7191.78403-1.4529.97265-2.13281.77732-2.80195-.25187-5.33627-.6914-6.96094-.49331-1.82346-1.22528-4.54293-3.31836-6.5332-.47641-.45301-1.06943-.95091-1.84766-1.34571-.38912-.1974-.85055-.37608-1.36133-.46875zm-.60742 4.1543c-.16863.0434-.16848-.0224.0527.0898.22122.11223.563.36985.84571.63868.89713.85306 1.705 2.92397 2.15039 4.57031.4992 1.84521.97028 3.74558.69922 4.72266-.0861.3105-.24723.66804-.37696.85546-.12972.18743-.16749.14027-.002.0977.16976-.0437.17113.021-.0508-.0918-.22191-.11278-.56635-.36923-.85352-.64062-.87647-.82835-1.64415-2.73727-2.08398-4.36328-.5063-1.87187-1.03477-3.92399-.75781-4.9336.084-.30622.24363-.66095.37304-.84765s.16846-.14001.004-.0977z" fill="#4a4c4f"/><path d="m600.31555 103.63104c1.01446-.2611 2.12657.52258 2.88569 1.24441 1.49511 1.42167 2.26445 3.818 2.7338 5.5529.46937 1.73494 1.21986 3.95183.69567 5.84134-.27476.99042-.89459 2.18016-1.88998 2.43637-1.01452.26112-2.12447-.52501-2.88583-1.24456-1.44848-1.36894-2.20444-3.61286-2.67375-5.34787-.46924-1.73486-1.29287-4.08764-.75553-6.04642.2719-.99115.89461-2.17997 1.88993-2.43617z" fill="url(#q)" stroke-width="4.23333"/></g><g><path d="m608.22266 121.63867c-.5185-.0254-1.07587.0416-1.64258.26953-1.11117.44692-1.77294 1.30957-2.17383 2.08789-.40089.77833-.59227 1.5445-.68945 2.24805-.41258 2.98702 1.04133 5.47197 1.67773 7 .73448 1.76343 1.80881 4.22506 4.06055 5.85547.52847.38265 1.18014.79745 2.00195 1.08789s1.91819.47584 3.05274.0195c1.11217-.44733 1.77389-1.31014 2.17382-2.08789.39994-.77775.5909-1.54157.68946-2.24023.40613-2.87926-.94462-5.25884-1.5918-6.8125-.72637-1.74375-1.80637-4.3439-4.14063-6.04493-.53129-.38716-1.18482-.80356-2.00781-1.09375-.41149-.14509-.89165-.26364-1.41015-.28906zm-.0625 4.19727c-.16157.065-.16949.001.0644.084.23394.0825.60658.29173.92187.52149 1.00049.72907 2.07074 2.67949 2.72657 4.2539.73503 1.76458 1.44826 3.58776 1.30664 4.5918-.045.31909-.15553.69377-.25977.89648-.10424.20272-.14882.15949.01.0957.16262-.0654.1722-.001-.0625-.084-.2347-.0829-.60965-.2917-.92969-.52344-.97679-.70726-1.98712-2.49974-2.63477-4.05468-.74553-1.79008-1.53582-3.75592-1.39257-4.79297.0435-.31456.15379-.68673.25781-.88867.10401-.20195.14981-.16301-.008-.0996z" fill="#4a4c4f"/><path d="m607.37031 123.87291c.97186-.39088 2.17648.24145 3.02307.85837 1.66737 1.21505 2.74195 3.49092 3.43305 5.15.69111 1.65912 1.72366 3.75952 1.44978 5.70117-.14357 1.01775-.60333 2.27802-1.55692 2.66157-.97193.3909-2.17472-.24413-3.02324-.85851-1.61427-1.16884-2.65577-3.29533-3.34683-4.95452-.69097-1.65906-1.81372-3.88468-1.53581-5.89672.14063-1.01811.60336-2.27784 1.5569-2.66136z" fill="url(#r)" stroke-width="4.23333"/></g><g><path d="m648.96094 84.482422c-.51564-.06002-1.07753-.02937-1.65821.160156-1.13856.371638-1.85656 1.187716-2.30859 1.9375-.45202.749784-.69389 1.501794-.83789 2.197266-.61135 2.952758.67421 5.528543 1.20703 7.095703.61495 1.808582 1.52049 4.335983 3.6582 6.113283.50172.41713 1.12523.87402 1.92579 1.21875.80055.34473 1.88239.60406 3.04492.22461 1.1396-.37197 1.85756-1.18823 2.30859-1.9375.45104-.74928.6909-1.500888.83594-2.191409.59771-2.845662-.59094-5.306933-1.13281-6.90039-.60817-1.788433-1.51126-4.457281-3.72657-6.310547-.50422-.421819-1.12794-.880053-1.92968-1.22461-.40088-.172278-.87108-.322787-1.38672-.382812zm-.34375 4.183594c-.16554.05403-.16931-.01005.0586.08789.2279.09794.58554.331711.88477.582031.94951.794335 1.88645 2.811067 2.43554 4.425782.61543 1.809765 1.20648 3.677596.99805 4.669922-.0662.315351-.20276.681667-.32031.876953-.11756.195285-.1586.150698.004.09766.16665-.05439.17199.01056-.0566-.08789-.22862-.09845-.58875-.333337-.89257-.585937-.92733-.77098-1.81517-2.625921-2.35743-4.220703-.62419-1.835923-1.28061-3.851794-1.06836-4.876953.0644-.31095.19913-.674599.31641-.869141s.15957-.152332-.002-.09961z" fill="#4a4c4f"/><path d="m647.9604 86.654629c.99582-.325029 2.15547.386412 2.95892 1.058552 1.58241 1.323802 2.50245 3.666416 3.08108 5.367991.57865 1.701613 1.46847 3.86634 1.0654 5.785336-.21128 1.005873-.75427 2.232592-1.73137 2.551522-.99588.32506-2.15354-.38896-2.95908-1.05869-1.53252-1.274142-2.42952-3.465502-3.00812-5.167186-.57851-1.701543-1.54996-3.997241-1.13816-5.986202.20838-1.006423.75429-2.232407 1.73133-2.551323z" fill="url(#s)" stroke-width="4.23333"/></g><g><path d="m618.11328 139.79883c-1.1743.23546-1.98459.96078-2.52148 1.65234s-.86523 1.41021-1.08985 2.08399c-.95361 2.86061.0219 5.57058.36719 7.18945.39847 1.86824 1.00163 4.48412 2.91602 6.5.44929.47311 1.01301.99926 1.76757 1.43555.75457.43628 1.79904.82047 2.99805.58007 1.17537-.23568 1.98369-.96313 2.51953-1.65429.53584-.69117.86282-1.40745 1.08789-2.07617.92752-2.75588.0367-5.34031-.31445-6.98633-.3941-1.84744-.9784-4.60466-2.96094-6.70508-.45124-.47808-1.01571-1.00515-1.77148-1.44141-.75578-.43626-1.80023-.81829-2.99805-.57812zm.83203 4.15039c-.17074.0342-.166-.0303.0488.0937.21483.12401.54277.39794.81055.68164.84973.90026 1.54261 3.01364 1.89843 4.68164.39881 1.86949.7668 3.7929.44336 4.75391-.10278.3054-.28221.65188-.42187.83203-.13966.18014-.17346.13126-.006.0977.17186-.0345.16862.0308-.0469-.0937-.21549-.1246-.54626-.40098-.81835-.6875-.83045-.87447-1.49434-2.81939-1.84571-4.46679-.40445-1.89647-.81936-3.97559-.48828-4.96875.10043-.30125.27671-.64674.41602-.82618.1393-.17943.17636-.13106.01-.0977z" fill="#4a4c4f"/><path d="m618.52954 141.87354c1.02708-.20593 2.09524.63668 2.81426 1.39846 1.41614 1.50034 2.05492 3.93473 2.42988 5.69245.37497 1.75776 1.00463 4.01195.37915 5.87039-.32786.97413-1.01105 2.12865-2.01882 2.33073-1.02715.20594-2.09301-.63899-2.8144-1.39862-1.37242-1.44518-2.00607-3.72666-2.38099-5.48448-.37485-1.75767-1.07019-4.15151-.42784-6.0784.32504-.97502 1.01105-2.12847 2.01876-2.33053z" fill="url(#t)" stroke-width="4.23333"/></g></g><g><g stroke-width="1.25758"><g transform="matrix(.77248481 -.63503324 .63503324 .77248481 56.349135 201.51866)"><path d="m196.15234 32.761719 9.13672 39.367187s1.81685.690917 2.77149.732422c4.29994.186946 9.1123.139901 12.72265-2.203125 3.74728-2.431889 5.87872-6.953478 7.4668-11.128906.33474-.88012.38281-2.798828.38281-2.798828z" fill="#4a4c4f"/><path d="m209.27906 68.257752c2.85062.754062 6.38216.03825 8.91947-1.600795 2.63919-1.704856 4.87313-4.412126 5.33232-7.772599l-19.82179-14.627225z" fill="url(#m)" stroke-width="9.525"/></g><g transform="matrix(.61525369 .78832918 -.78832918 .61525369 203.470433 -108.17651)"><path d="m196.15234 32.761719 9.13672 39.367187s1.81685.690917 2.77149.732422c4.29994.186946 9.1123.139901 12.72265-2.203125 3.74728-2.431889 5.87872-6.953478 7.4668-11.128906.33474-.88012.38281-2.798828.38281-2.798828z" fill="#4a4c4f"/><path d="m209.27906 68.257752c2.85062.754062 6.38216.03825 8.91947-1.600795 2.63919-1.704856 4.87313-4.412126 5.33232-7.772599l-19.82179-14.627225z" fill="url(#m)" stroke-width="9.525"/></g><g transform="matrix(-.96583606 .25915384 -.25915384 -.96583606 521.323861 135.902312)"><path d="m196.15234 32.761719 9.13672 39.367187s1.81685.690917 2.77149.732422c4.29994.186946 9.1123.139901 12.72265-2.203125 3.74728-2.431889 5.87872-6.953478 7.4668-11.128906.33474-.88012.38281-2.798828.38281-2.798828z" fill="#4a4c4f"/><path d="m209.27906 68.257752c2.85062.754062 6.38216.03825 8.91947-1.600795 2.63919-1.704856 4.87313-4.412126 5.33232-7.772599l-19.82179-14.627225z" fill="url(#m)" stroke-width="9.525"/></g><g transform="matrix(-.25409861 -.96717832 .96717832 -.25409861 261.619521 357.641023)"><path d="m196.15234 32.761719 9.13672 39.367187s1.81685.690917 2.77149.732422c4.29994.186946 9.1123.139901 12.72265-2.203125 3.74728-2.431889 5.87872-6.953478 7.4668-11.128906.33474-.88012.38281-2.798828.38281-2.798828z" fill="#4a4c4f"/><path d="m209.27906 68.257752c2.85062.754062 6.38216.03825 8.91947-1.600795 2.63919-1.704856 4.87313-4.412126 5.33232-7.772599l-19.82179-14.627225z" fill="url(#m)" stroke-width="9.525"/></g></g><path d="m281.68164 87.179687c-17.18485 0-31.24414 14.061243-31.24414 31.246093s14.05929 31.24414 31.24414 31.24414 31.24414-14.05929 31.24414-31.24414-14.05929-31.246093-31.24414-31.246093z" fill="#4a4c4f" fill-rule="evenodd"/><path d="m306.93637 118.42482a25.255152 25.255154 0 0 1 -25.25516 25.25515 25.255152 25.255154 0 0 1 -25.25515-25.25515 25.255152 25.255154 0 0 1 25.25515-25.255154 25.255152 25.255154 0 0 1 25.25516 25.255154z" fill="url(#f)" fill-rule="evenodd" stroke-width="11.9785"/><g stroke-width="1.25758"><path d="m282.41992 125.29102c-5.04288.1915-9.75931 3.32565-13.66015 6.52734-.73705.60494-1.7129 2.29101-1.7129 2.29101l1.21485 2.58594 16.56055 35.25391 11.10742-40.24024s-1.23207-1.45729-2.02344-1.96484c-3.45661-2.21693-7.38284-4.60895-11.48633-4.45312z" fill="#4a4c4f" stroke-width="1.25758"/><path d="m272.57306 134.67115 11.08498 23.5974 6.93076-25.1087c-2.16942-2.10739-5.153-3.19863-8.01806-3.10832-3.66931.11565-7.84821 1.74492-9.99768 4.61962z" fill="url(#e)" stroke-width="11.9785"/></g><g stroke-width="1.25758"><path d="m296.05469 101.78516s-1.19429 1.5026-1.50196 2.39257c-1.45984 4.2228-2.72249 9.06034-1.40625 13.33008 1.26797 4.11314 4.92979 7.2361 8.34961 9.84961.7595.58043 2.59766 1.21485 2.59766 1.21485l32.25391-24.33789z" fill="#4a4c4f" stroke-width="1.25758"/><path d="m298.58583 106.70972c-1.80393 2.87311-1.82424 6.38386-.89188 9.38467.8965 2.88538 3.14944 5.69962 5.82028 6.94885l19.66489-14.83783z" fill="url(#d)" stroke-width="11.9785"/></g><g stroke-width="1.25758"><path d="m251.32617 72.0625 2.91797 12.572266 6.21875 26.794924s1.81668.69262 2.77148.73437c4.3.18805 9.11239.13828 12.72266-2.20508 3.7471-2.43217 5.87872-6.95347 7.4668-11.128902.33474-.88012.38281-2.798828.38281-2.798828z" fill="#4a4c4f" stroke-width="1.25758"/><path d="m258.88299 83.55868 5.57 24.00062c2.85063.75406 6.38217.0383 8.91948-1.6008 2.63919-1.70485 4.87313-4.41212 5.33231-7.772595z" fill="url(#c)" stroke-width="11.9785"/></g></g><g><path d="m313.25977 25.042969-8.76368 6.105468-8.79687 6.13086 9.54545 13.601562 2.44905 3.452589 53.49769 76.055222 2.55078 3.625 5.35156 7.60742 2.80664-.32031c5.96506-.67782 10.87949-4.30074 13.45508-9.35937l1.30078-2.55469-5.47266-7.78125-2.51953-3.58008-53.40969-75.929954-2.43554-3.462865z" fill="#63452c" stroke-width="1.25758"/><path d="m367.63815 131.27429 3.72481 5.29538c4.72678-.53711 7.69329-2.75352 9.74778-6.78868l-3.8227-5.43455-2.51884-3.58087-53.42149-75.947584-2.43602-3.462338-6.81937-9.694862-4.87283 3.395794-4.87283 3.395795 6.8199 9.695128 2.43496 3.462602 53.48605 76.038335z" fill="url(#b)" stroke-width="11.9785"/><g fill="#63452c"><path d="m359.79126 128.39814 5.29631-.7497c4.24498-1.15914 7.10988-3.65707 9.68163-6.88287l2.83067-4.25309 2.56544 3.64609-2.87727 4.18787c-2.50878 2.90883-5.57927 5.47159-9.64989 6.92785l-5.22998.84356z"/><path d="m309.16656 48.147503 9.74513-6.791855 3.90714-2.723078 2.43554 3.462867-3.90666 2.722549-9.74619 6.792119-3.89644 2.739504-2.4336-3.46289z"/></g></g></g></svg>