<svg height="500" viewBox="0 0 500 500" width="500" xmlns="http://www.w3.org/2000/svg" xmlns:xlink="http://www.w3.org/1999/xlink"><linearGradient id="a" gradientUnits="userSpaceOnUse" x1="267.13177" x2="282.78021" y1="282.66632" y2="267.01788"><stop offset="0" stop-color="#402d1c"/><stop offset=".21489513" stop-color="#513924"/><stop offset=".36796623" stop-color="#5a3f28"/><stop offset=".52103734" stop-color="#63452c"/><stop offset=".65344936" stop-color="#5a3f28"/><stop offset=".78586137" stop-color="#513924"/><stop offset="1" stop-color="#402d1c"/></linearGradient><linearGradient id="b"><stop offset="0" stop-color="#93a0aa"/><stop offset=".25" stop-color="#9da9b2"/><stop offset=".375" stop-color="#7f8f9a"/><stop offset=".5" stop-color="#93a0aa"/><stop offset=".75" stop-color="#7c8c98"/><stop offset="1" stop-color="#93a0aa"/></linearGradient><linearGradient id="c" gradientTransform="matrix(.09976042 -.19316135 .19316135 .09976042 -198.43403 58.977466)" gradientUnits="userSpaceOnUse" spreadMethod="reflect" x1="398.30402" x2="-282.289" xlink:href="#b" y1="1694.259" y2="2331.8855"/><linearGradient id="d" gradientTransform="matrix(.11738552 -.22728798 .22728798 .11738552 -243.1803 23.610155)" gradientUnits="userSpaceOnUse" spreadMethod="reflect" x1="205.26485" x2="-205.32738" xlink:href="#b" y1="1820.9788" y2="2081.2256"/><linearGradient id="e" gradientUnits="userSpaceOnUse" spreadMethod="reflect" x1="466.07326295475" x2="127.04522415758" y1="24.92387292865" y2="441.46578768002"><stop offset="0" stop-color="#7e635d"/><stop offset=".09387415" stop-color="#979491"/><stop offset=".15581046" stop-color="#bbc5c7"/><stop offset=".32185635" stop-color="#dff5fd"/><stop offset=".46681547" stop-color="#dce7e9"/><stop offset=".55150062" stop-color="#dad9d6"/><stop offset=".668539" stop-color="#fff"/><stop offset=".82537693" stop-color="#b3aba5"/><stop offset=".95369864" stop-color="#857060"/><stop offset="1" stop-color="#7e635d"/></linearGradient><filter id="f" color-interpolation-filters="sRGB" height="1.051091" width="1.05726" x="-.02863" y="-.025546"><feGaussianBlur stdDeviation="4.389024"/></filter><clipPath id="g"><path d="m472.35742-2.2265625-39.45703 39.3652335c-19.73856 19.692292-39.92343 39.291377-60.22266 58.878907-27.09209-4.323666-60.79244 2.68-89.10154 12.340042-28.3091 9.66005-45.91353 18.6359-63.63964 35.16389-7.33934 6.84327-16.36473 25.26778-16.36473 25.26778s20.15245-3.50382 30.29754-4.76694c19.69877-2.45261 39.45641-5.01715 59.30251-5.45204 4.25841-.0933 8.96914.17261 12.76368.61133-66.71455 62.36543-135.18714 124.15573-204.03907 185.82813l-11.72461 10.5039 50.59961 58.375 10.34961-3.76758c23.49491-8.55254 51.82188-26.71226 82.72657-51.50586l.0117-.01.01-.01c33.15707-26.70015 68.70548-60.97903 101.74023-98.50976l.008-.008c58.60927-66.48871 109.11279-142.94602 124.17147-208.003252z"/></clipPath><g stroke-width="1.84596" transform="matrix(-2.0454802 -.08997433 -.08997433 2.0454802 733.08278 -150.41821)"><path d="m279.40625 263.65625-15.66602 15.66602 255.23829 254.44726h14.79101v-16.67773l-1.40039-1.39649zm.0117 13.45898 244.82617 243.9336v3.19531h-1.33008l-245.69334-244.93164z" fill="#402d1c" stroke-width="1.84596"/><path d="m529.00684 519.06896-249.5948-248.68292-8.93101 8.93154 250.46555 249.68913h8.06013z" fill="url(#a)" stroke-width="17.5828"/></g><path d="m500 0-39.45703 39.365234c-19.73856 19.692292-39.92343 39.291377-60.22266 58.878906-27.09209-4.323665-60.79244 2.68-89.10154 12.34004-28.3091 9.66005-45.91353 18.6359-63.63964 35.16389-7.33934 6.84327-16.36473 25.26778-16.36473 25.26778s20.15245-3.50382 30.29754-4.76694c19.69877-2.45261 39.45641-5.01715 59.30251-5.45204 4.25841-.0933 8.96914.17261 12.76368.61133-66.71455 62.36543-135.18714 124.15573-204.03907 185.82813l-11.7246 10.5039 50.5996 58.375 10.34961-3.76758c23.49491-8.55254 51.82188-26.71226 82.72657-51.50586l.0117-.01.01-.01c33.15707-26.70015 68.70548-60.97903 101.74023-98.50976l.008-.008c58.60927-66.48871 109.11279-142.94602 124.17147-208.003249z" fill="#4a4c4f"/><path d="m471.84426 50.691752c-21.75624 21.705244-43.9374 43.283009-66.28853 64.809778-48.44161-11.37103-110.14093 14.02258-145.06989 36.54368 41.89775-6.79883 83.96547-13.85261 102.32229 3.99431-72.57744 68.32817-147.44948 135.80649-222.59346 203.11484l33.07627 38.15839c20.31148-7.39372 48.10167-24.8157 78.18646-48.95153 32.29441-26.00549 67.30835-59.74465 99.77273-96.62827 57.53504-65.2687 106.74153-141.19456 120.59413-201.041198z" fill="url(#d)" stroke-width="32"/><path clip-path="url(#g)" d="m104.43414 393.1806c23.75833-7.79093 56.73353-18.22129 88.42119-42.00604l.012-.01.0103-.01c34.00031-25.61772 70.63497-58.73317 104.86207-95.17979l.008-.008c60.72186-64.5644 113.66314-139.35441 130.81061-203.892551l14.31179-53.8675338 29.48732-.4332477-12.56836 54.3007815c-15.05868 65.057231-65.5622 141.514541-124.17147 208.003251l-.008.008c-33.03475 37.53073-68.58316 71.80961-101.74023 98.50976l-.01.01-.0117.01c-30.90469 24.7936-59.23166 42.95332-82.72657 51.50586z" fill="url(#e)" filter="url(#f)" opacity=".75" transform="translate(27.64258 2.226563)"/><path d="m500 0-39.45703 39.365234c-19.73854 19.692273-39.92345 39.291398-60.22266 58.878906-27.09206-4.323661-60.79249 2.67982-89.10156 12.33984-28.30907 9.66004-45.91258 18.63609-63.63867 35.16406-7.33933 6.84327-16.36523 25.26758-16.36523 25.26758s20.15179-3.50446 30.29687-4.76758c19.69875-2.4526 39.45665-5.01628 59.30274-5.45117 4.2584-.0933 8.96913.17261 12.76367.61133-66.71449 62.36537-135.1872 124.15579-204.03907 185.82813l-11.72461 10.5039 50.59961 58.375 10.34961-3.76758c23.49489-8.55253 51.82191-26.71228 82.72657-51.50586l.0117-.01.01-.01c33.15704-26.70012 68.70552-60.97907 101.74024-98.50976l.008-.008c58.6088-66.48799 109.1128-142.94609 124.17146-208.003249zm-28.15625 50.691406c-13.85258 59.846574-63.05877 135.772374-120.59375 201.041014-32.46435 36.88358-67.47906 70.62344-99.77344 96.62891-30.08476 24.1358-57.87408 41.55745-78.18554 48.95117l-33.07617-38.15821c75.1439-67.30828 150.01638-134.78713 222.59375-203.11523-18.35681-17.8469-60.42456-10.79296-102.32227-3.99414 34.92893-22.52108 96.62875-47.91399 145.07031-36.54297 22.35111-21.526748 44.53089-43.105323 66.28711-64.810544z" fill="#4a4c4f"/><g transform="translate(27.64258 2.226563)"><path d="m110.55664 352.66406-11.798828 10.83594-23.121093 21.23633 38.154301 43.2207 35.65039-32.84961z" fill="#4a4c4f"/><path d="m109.5806 375.28462-11.566493 10.62316 16.954563 19.20668 11.89794-10.96311z" fill="url(#c)" stroke-width="32"/></g></svg>