<svg height="500" viewBox="0 0 132.29167 132.29167" width="500" xmlns="http://www.w3.org/2000/svg"><g stroke-width="1.09437" transform="matrix(.91376988 0 0 .91376988 4.40009214536 -130.78350756178)"><g><path d="m60.753906 163.75586c-5.521732.005-9.351887 3.2526-12.107422 5.54101-2.378273 1.97511-3.299098 4.24005-4.060547 5.6836-.761448 1.44354-1.238924 1.92029-1.269531 1.9375.188169-.1058-.440008.0728-2.160156-.084-1.720148-.15682-4.472267-.66005-7.572266.92579-4.734474 2.42195-6.484352 6.58003-8.029297 8.6875-1.669892 2.27791-4.481268 5.15588-5.6875 9.69531-.777438 2.92573-.380514 5.45709-.105468 7.40039.275046 1.94329.427229 3.35692.300781 4.16797-.258304 1.65678-2.920613 4.73148-3.529297 10.22851-.438753 3.96239.539214 7.23061 1.023438 9.7461.34273 1.78044-.189048 5.94594 3.123046 9.86718 2.170927 2.5702 4.570568 2.79823 5.986329 3.02735-.03628.0959-.01849.0659-.06445.17969-.60577 1.50001-2.077552 3.88904-1.519531 7.52539.280935 1.83071.689887 4.08579 1.666016 6.39648s2.69442 4.94817 5.798828 6.28125c6.212408 2.66771 12.642217 1.31419 18.128906-.91211s10.486544-5.41857 14.640625-7.66601c5.119721-2.76988 9.293409-6.72542 12.761719-10.8418 6.79627-8.06617 10.218797-17.44528 14.871094-24.89649 1.42438-2.28131 4.174622-4.91901 6.894531-8.0625 2.719906-3.14348 5.625476-7.17868 5.708976-12.51953.1115-7.1337-4.99256-11.74806-8.476554-14.91601-9.479916-8.61993-21.996109-17.40394-36.32227-17.39257zm.0078 9.52539c10.2363-.008 21.213162 7.00957 29.90625 14.91406 3.058721 2.78126 5.388028 6.01047 5.361328 7.71875-.02948 1.88522-1.152292 3.85285-3.388672 6.4375-2.23638 2.58466-5.368379 5.40114-7.771484 9.25-5.349452 8.56778-8.702117 17.4288-14.074219 23.80469-2.96255 3.51611-6.351327 6.62227-10.009766 8.60156-4.591472 2.48409-9.335768 5.44944-13.691406 7.2168s-7.864799 2.24205-10.789063.98633c-.0033-.001-.346917-.20356-.783203-1.23633-.436285-1.03277-.791373-2.62252-1.023437-4.13477.05631.36693.192137-.67284.935547-2.51367s2.127466-5.19125.25-8.76172c-.900001-1.71157-2.466898-2.81594-3.69336-3.35547-1.226461-.53952-2.220683-.71412-2.986328-.86718-.635034-.12696-.911529-.24593-1.11914-.31836-.129838-.36099-.358559-1.93836-.97461-5.13867-.571418-2.96853-1.086023-5.30812-.910143-6.89649.169989-1.53517 2.641051-4.47657 3.472656-9.81055.44269-2.83944-.02772-5.1794-.28125-6.9707-.253532-1.79129-.290516-2.9742-.11914-3.61914.417155-1.56989 2.096595-3.68757 4.164062-6.50781 2.259617-3.08235 3.691129-5.33114 4.685547-5.83985-.149647.0766.601847-.0812 2.371094.0801 1.769246.16131 4.614541.63036 7.691406-1.09961 2.906724-1.6343 4.152087-4.13562 5.027344-5.79492s1.506605-2.62298 1.720703-2.80078c2.423512-2.01268 4.818873-3.34267 6.029297-3.34375z" fill="#63452c" stroke-width="1.09437"/><path d="m93.871843 184.67243c-9.086509-8.26222-20.832741-16.16293-33.113984-16.15318-3.366081.003-6.479415 2.29117-9.068941 4.44172-2.592373 2.15291-3.100934 6.4564-6.038268 8.10791-2.888699 1.62417-6.947968-.57882-9.898322.93046-2.864449 1.46533-4.453851 4.66938-6.356134 7.26429-1.868682 2.54908-4.114872 5.047-4.926566 8.10166-.948815 3.57068.867319 7.42928.298181 11.07977-.544955 3.49538-3.112154 6.50244-3.501491 10.01855-.307317 2.77538.438981 5.57905.966809 8.32106.502334 2.60957.37073 5.66463 2.085531 7.69481 1.693812 2.00533 5.927381.9788 7.14906 3.30213 1.539436 2.92762-2.179504 6.51079-1.67779 9.78021.513 3.34296 1.52749 7.69116 4.635175 9.02565 9.136681 3.92344 19.880233-3.65983 28.625795-8.39137 4.389084-2.37459 8.170017-5.90467 11.38545-9.72092 6.084192-7.22104 9.471451-16.34208 14.47233-24.35158 3.827489-6.13018 11.769842-10.90835 11.882822-18.13442.0691-4.421-3.648295-8.34214-6.919657-11.31675z" fill="#b5835a" stroke-width="10.4238"/></g><g><path d="m30.792953 259.66788c2.113309 2.49138 5.028129 5.98385 9.999907 7.03109 5.883408 1.23929 10.52031-1.48895 13.697355-2.71094 3.070038-1.18083 9.078022-1.98977 12.500013-7.67137 2.061585-3.42289 1.78575-6.97625.410311-10.06088-1.345555-3.01761-3.740886-5.14271-7.047115-5.98827-1.508639-.38583-3.008823-.54139-4.486548-.53537-3.77641.0154-7.406063 1.08576-10.654131 2.06448-4.519051 1.3617-8.13077 2.94969-8.13077 2.94969l-7.292061 2.81533c-1.164735 3.8337-1.35977 9.09466 1.003039 12.10624z" fill="#63452c" stroke-width="1.09437"/><path d="m31.467718 237.78161s-2.179504 6.51079-1.67779 9.78021c.513 3.34296 2.447389 6.44647 4.635175 9.02565 1.973152 2.32615 4.364492 4.8235 7.34929 5.45221 3.68133.77544 7.495359-1.14624 11.006694-2.4968 3.61369-1.38993 8.132229-2.36686 10.129831-5.68352.974265-1.61759.909002-3.93861.13998-5.66326-.692396-1.5528-2.230168-2.89261-3.87733-3.31387-6.657686-1.7027-20.17818 4.22574-20.17818 4.22574" fill="#b5835a" stroke-width="10.4238"/></g><g><path d="m82.1875 172.45703-1.301796 4.58014 9.933901 2.8242 7.269348 11.74786-4.409266 2.50796c-3.378444 1.97041-7.354849 4.21813-9.292968 9.02343-.905422 2.24488-1.13268 4.59133-.785157 6.97852.347524 2.3872 1.317949 4.97427 3.652344 6.88477 3.246909 2.65731 7.226993 2.93494 10.484375 2.56836 3.257379-.36658 6.200599-1.34982 8.517579-2.10157 6.21971-2.01799 14.82843-5.00276 18.33008-13.24804 2.27369-5.35382.023-10.19994-1.76758-13.51758-2.40289-4.45208-6.29397-7.33375-9.95703-9.39258-5.76649-3.24104-11.62457-3.44029-15.853518-4.64258z" fill="#63452c" stroke-width="1.09437"/><path d="m102.22584 195.11339s-11.350173 4.66862-13.422952 9.8078c-1.06287 2.63525-.731273 6.59759 1.467689 8.39725 3.745512 3.06538 9.911293 1.11584 14.515023-.37784 5.92859-1.92354 12.98088-4.84334 15.41726-10.58026 1.24103-2.92223-.0673-6.59947-1.57517-9.39335-1.74808-3.23885-4.89224-5.69953-8.10067-7.50283-4.47727-2.51644-9.88044-2.80899-14.820658-4.21349-4.94022-1.4045-14.820658-4.2135-14.820658-4.2135z" fill="#b5835a" stroke-width="10.4238"/></g><g><path d="m61.267063 177.9323-3.403927 3.33158s2.989401 3.06279 6.978903 6.12469c3.989502 3.06189 8.69289 6.68103 14.861108 6.52363 3.294637-.0841 6.547768-1.10593 9.462989-2.92954 2.91522-1.82361 5.721254-4.66894 6.35155-8.80514.682145-4.47644-1.728683-8.14617-4.097941-10.5761s-5.056082-4.20724-6.950997-5.58364c-4.201066-3.05151-9.584342-5.94793-14.610361-5.82021-4.185967.0298-16.025426 5.37988-16.025426 5.37988" fill="#63452c" stroke-width="1.09437"/><path d="m61.266678 177.93201s11.158495 11.40191 18.31577 11.21927c4.534628-.11572 10.543313-3.20645 11.22666-7.69079.741106-4.86337-5.158296-8.69766-9.138604-11.58882-3.847674-2.79482-8.634724-5.15328-13.385381-4.9368-5.193656 1.94107-12.813984 4.26896-16.596205 8.0261-2.592373 2.15291-6.038268 8.10791-6.038268 8.10791" fill="#b5835a" stroke-width="10.4238"/></g><g><path d="m37.813403 178.90773c-4.191912.0522-7.660519 4.24312-10.091887 8.71324-1.510196 2.77653-5.394543 5.94653-5.183949 9.10016.126026 1.88723.528936 3.73491 1.849058 5.45155 7.322717 1.15495 10.544693 2.67583 16.662032 4.20233 1.935714.48302 4.598914 1.83813 7.724594 3.06441 3.12568 1.22629 7.12457 2.39783 11.433927 1.00769 2.286076-.73747 4.267661-2.02726 5.946924-3.85506 1.679264-1.82782 3.210832-4.45227 2.863391-7.7463-.526058-4.98748-4.320997-8.05491-7.506002-9.8826s-6.422327-3.0598-8.246008-4.16409c-2.404255-1.45584-4.869514-2.73056-7.376293-3.8747-2.086793-1.27735-4.618887-2.10939-8.075787-2.01663z" fill="#63452c" stroke-width="1.09437"/><path d="m29.396194 189.26363c1.902283-2.59491 3.491685-5.79896 6.356134-7.26429 5.27404 1.85959 10.329038 4.01797 15.045561 6.87395 4.867829 2.9476 12.885827 4.81315 13.482749 10.47247.300401 2.84805-2.8108 5.69067-5.536345 6.5699-5.411251 1.7456-11.02536-2.78511-16.542035-4.16172-5.908046-1.47427-9.527699-3.15854-17.73263-4.38865.811694-3.05466 3.057884-5.55258 4.926566-8.10166z" fill="#b5835a" stroke-width="10.4238"/></g><g><path d="m22.856137 213.6671c-2.739106 1.73256-3.207287 3.11784-3.393175 4.7966-.307317 2.77538.439038 5.57895.966866 8.32094.502332 2.60957.370347 5.66446 2.085144 7.69462 1.693808 2.00533 3.245014 2.48881 5.152768 3.1089l3.503966 1.13891c2.6072-.10669 5.961739-.20453 8.798982-.49248 1.538099-.15609 4.343893.21174 7.508069.24598 3.164176.0342 7.500729-.46134 10.431405-3.98064 2.023776-2.43024 2.509033-5.27651 2.357479-7.88272s-.93277-5.16142-2.791044-7.35149c-3.041112-3.5841-7.363297-4.53289-10.900627-4.83588-3.537332-.30299-6.814902-.11504-9.028907-.36949-2.839184-.32631-5.64846-.44138-8.390702-.4625z" fill="#63452c" stroke-width="1.09437"/><path d="m39.488956 233.4963c4.941953-.50155 11.582544 1.77357 14.761232-2.04355 1.944344-2.33486 1.56079-6.78947-.405025-9.10628-3.712246-4.37508-11.142048-2.89948-16.842295-3.55461-5.212346-.59906-10.563561-.43379-15.73655-.32825-.307317 2.77538.438981 5.57905.966809 8.32106.502334 2.60957.37073 5.66463 2.085531 7.69481 4.982965-.63211 10.12882-.47153 15.170298-.98318z" fill="#b5835a" stroke-width="10.4238"/></g></g></svg>