<svg height="500" viewBox="0 0 132.29167 132.29167" width="500" xmlns="http://www.w3.org/2000/svg"><g stroke-width="1.07686" transform="matrix(.92862713 0 0 .92862713 -174.65224899185 6.08156199372)"><g><path d="m278.73437 63.03125c-1.92845 1.066767-3.22248 3.180831-4.05664 5.220703-.80575 1.970407-1.46572 4.343157-.73775 6.343608.57029 1.567161 2.32131 2.410739 3.63672 3.43588 5.71144 4.451092 18.32369 11.667778 18.32369 11.667778s-1.4007-13.434785-2.89844-20.003753c-.36982-1.621997-.3906-3.51816-1.49609-4.761353-1.4096-1.585184-3.71267-2.264784-5.80664-2.604035-2.30332-.373169-4.92307-.428287-6.96485.701172z" fill="#4d3623" stroke-width="1.07686"/><path d="m281.04686 67.194292c-1.65298.918181-2.66929 5.005327-2.66929 5.005327l3.80319 3.485916 7.34483 4.510353-1.21561-7.452123-.96326-5.127989s-4.46001-1.443475-6.29986-.421484z" fill="#785436" stroke-width="10.2571"/></g><g><path d="m248.95117-.65820312s2.13177 17.62910112 4.49502 26.15308112c.46535 1.678475.6741 3.626183 1.89298 4.870433.8242.841355 2.10608 1.144911 3.2663 1.34758 1.05929.185037 2.17016.07394 3.22265-.146485 2.27032-.475481 4.80523-.910029 6.49415-2.5 1.59161-1.498365 2.14731-3.857402 2.7207-5.966797.25907-.953074.39313-1.963575.30469-2.947265-.0878-.976081-.32638-1.976503-.81912-2.823644-.81753-1.405549-2.19541-2.405744-3.40028-3.49763-5.74156-5.2031614-18.17709-14.48927312-18.17709-14.48927312z" fill="#4d3623" stroke-width="1.07686"/><path d="m263.12064 16.651965c-2.45008-2.148086-7.66028-6.072451-7.66028-6.072451s.85075 7.553953 1.69503 11.25167c.3976 1.741372.04 4.216284 1.58064 5.120129 1.85701 1.08946 4.75133.130132 6.31678-1.347962 1.40602-1.327555 2.04413-3.729398 1.53411-5.59465-.42422-1.551455-2.25687-2.2964-3.46628-3.356736z" fill="#785436" stroke-width="10.2571"/></g><g><path d="m327.4375-4.6191406s-10.3344 4.605101-15.43555 7.0488281c-3.8179 1.8289817-7.59583 3.7418392-11.35099 5.6964178-1.93853 1.0090139-4.53611 1.3091101-5.77016 3.1127537-1.01954 1.490127-.75211 3.571343-.66992 5.375.086 1.887858.10473 4.005898 1.20995 5.538836 1.33579 1.852742 3.71733 2.796074 5.8894 3.502551 1.58155.514407 3.46142 1.164647 4.96802.46034 2.01773-.94325 2.53026-3.666294 3.79391-5.500456 5.79295-8.408322 17.36534-25.2342706 17.36534-25.2342706z" fill="#4d3623" stroke-width="1.07686"/><path d="m313.98077 6.7623692s-5.90893 2.7433117-8.88842 4.0592378c-1.73972.768369-4.26481.611422-5.24759 2.239664-.91991 1.524071-.63861 3.901917.43371 5.322883 1.00866 1.336611 3.1097 2.280992 4.70294 1.765714 1.85765-.600791 2.15219-3.258149 3.23938-4.879822 1.90706-2.844606 5.75998-8.5076768 5.75998-8.5076768z" fill="#785436" stroke-width="10.2571"/></g><g><path d="m1098.6992 25.046875c-14.5911.408447-28.756 5.208957-42.8695 8.934046-10.5478 2.783943-21.5907 4.766877-31.1605 10.003708-31.10151 17.019563-57.84331 41.795892-81.97817 67.766641-12.54581 13.50014-24.85125 28.0967-32.01347 45.07768-2.14058 5.07512-1.73545 12.68861-2.97053 16.25503-.65764 1.89907-11.89084 27.29188-14.04936 32.25258-13.48454 31.7345-28.42664 66.61523-45.12447 92.24938-38.43046 58.28444-129.75144 152.70869-129.80273 152.76172-2.87463 2.8414-6.80371 6.60517-7.52344 10.98437-1.60653 9.77489 2.19751 20.62033 8.0625 28.60352 3.93702 5.35892 10.57414 8.32947 16.70508 10.90429 7.75697 3.2577 16.2663 6.15475 24.64844 5.43164 4.27895-.36913 8.16297-1.46667 11.92187-4.88671 33.91996-29.96662 67.1924-62.46439 104.54883-86.64063 39.47365-25.54806 77.69434-58.8503 113.04652-85.98917 1.21433-.72267 50.55123-29.45267 76.36963-42.69941 4.4997-2.30863 14.3492-5.9195 23.1656-11.1185 18.1281-10.69008 35.3342-22.45377 48.9964-37.94878 7.174-8.13641 12.465-17.96721 16.5482-28.02076 7.8692-19.37567 14.6459-48.59768 18.4098-66.99279 2.0808-14.73425 3.5253-30.44337 1.8096-45.53723-1.5027-13.220343-4.8397-26.003509-10.4961-38.511719-1.9203-4.246314-4.6532-10.454016-11.1758-16.099609-10.5633-9.142847-10.9911-8.695072-17.449-11.113334-11.8759-4.447105-24.9431-6.020807-37.6194-5.665963z" fill="#63452c" stroke-width="4.07002" transform="scale(.26458334)"/><path d="m196.93179 128.26539c1.52876.60986 3.15013.94906 4.20555.92472 1.82166-1.71503 17.65115-16.53646 28.33952-23.45373 10.08512-6.527265 18.46527-14.309719 28.1305-21.707734 0 0 14.04798-8.382142 21.3204-12.113421 1.71757-.88124 3.59784-1.441149 5.2607-2.421732 4.81562-2.839761 9.81532-5.742431 13.51042-9.93775 1.82529-2.072388 2.98775-4.681689 4.02692-7.240325 1.8652-4.592498 2.88677-9.499028 3.88041-14.35523.27815-1.359413.47433-2.738617.57944-4.122208.195-2.56692.41714-5.168617.0926-7.722394-.38435-3.024371-1.13749-6.049433-2.39369-8.827294-.43171-.954655-.9424-1.93555-1.7346-2.621227-2.02563-1.753243-4.64568-2.885653-7.26916-3.428206-1.18646-.245368-2.42932-.02095-3.63275.119254-3.1539.367432-6.27324 1.052066-9.33743 1.884435-3.63471.987349-7.41869 1.799851-10.68466 3.675857-6.68186 3.838121-12.09155 9.614352-17.5096 15.093685-2.68798 2.718378-5.64546 5.368784-7.39003 8.770438-1.03109 2.010473-.92172 4.436634-1.6611 6.571692-.36114 1.042845-.9072 2.01223-1.34753 3.024187-1.79793 4.131936-5.28505 12.442561-5.28505 12.442561-2.76331 6.40424-5.77321 12.811126-9.54881 18.537503-10.75346 16.308917-34.91548 41.125239-34.91548 41.125239l-.0185.0191-.0185.0185c-1.03319 1.01865-1.03452 1.47453-.91942 2.03544.0767.37518.35666.89112.8382 1.43669z" fill="#a16f45" stroke-width="10.2571"/><g fill="#63452c"><path d="m306.27825 26.115586-7.65361 8.268229 5.25992-17.095523 1.38313-6.221784c1.06745 1.231683 2.24012 2.248709 2.9531 4.203538.74614 1.777574 1.41863 3.5575 1.85137 5.345084z"/><path d="m193.45014 125.99344 25.7085-20.82618-22.22685 23.09813-2.20517 4.24849c-1.42261-.92861-2.8105-1.83456-4.41989-2.8851z"/><path d="m243.3177 50.378407-4.55744 28.740101-.72761-16.29754-1.58572-8.492334c1.04669-2.520364 2.30242-5.39292 3.71723-8.533496z"/></g></g><g><path d="m268.55859 60.28125c-2.51778.225077-5.2351 1.406725-6.77148 3.414062-4.20559 5.494764-2.88755 13.535566-4.17975 20.333334-.44382 2.33475-.91212 4.667693-1.22703 7.023295-.64399 4.817145-1.35159 14.517219-1.35159 14.517219s6.97357-7.05348 10.03181-10.94416c3.81017-4.847291 7.2259-10.019145 10.29711-15.365296 1.35593-2.360319 3.18397-4.649935 3.5701-7.344479.2494-1.740375-.15491-3.599112-.88089-5.200381-.84668-1.867501-2.17864-3.632183-3.88476-4.769532-1.62125-1.080769-3.6628-1.837553-5.60352-1.664062z" fill="#4d3623" stroke-width="1.07686"/><path d="m265.41888 66.776217c-2.78535 3.859538-1.62195 9.38011-2.41771 14.072763-.3466 2.043958-.67021 4.091824-1.02655 6.134107-.29506 1.691061-.92031 5.066928-.92031 5.066928s3.20799-4.89968 4.8101-7.350751c1.91709-2.932966 3.88693-5.832242 5.74678-8.801842.84404-1.347683 2.35582-2.503088 2.45533-4.090149.13574-2.164965-.99473-4.524625-2.62625-5.954184-.72542-.635621-1.81853-.909422-2.77786-.809759-1.21924.126665-2.52619.738897-3.24353 1.732887z" fill="#785436" stroke-width="10.2571"/></g><g><path d="m330.53516 35.886719s-13.3406 1.129121-20.01225 1.677429c-1.63868.134675-3.2783.257902-4.9167.39604-4.14351.349351-8.42238-.02691-12.42652 1.094503-1.35896.380594-2.75405.922195-3.79688 1.873047-.97485.888862-1.78037 2.08606-2.07031 3.373047-.53838 2.389743-.12331 5.032466.78711 7.306641.89966 2.247319 2.50416 4.282243 4.41957 5.76246 1.48283 1.145921 3.30933 2.069155 5.1797 2.185857 1.31939.08232 2.63611-.481935 3.81718-1.075787 1.55562-.782184 2.75786-2.126336 4.13592-3.190631 2.34954-1.814586 4.70185-3.625618 7.04566-5.447603 1.76791-1.374302 3.52912-2.757199 5.29296-4.136719 4.18266-3.271306 12.54456-9.818284 12.54456-9.818284z" fill="#4d3623" stroke-width="1.07686"/><path d="m294.32831 43.677037c-.97317.386869-2.06309.995323-2.44793 1.969293-.49814 1.260701.0438 2.77738.57045 4.02643.65868 1.562122 1.74415 3.018552 3.10753 4.026164.8277.611716 1.8718 1.234145 2.89031 1.086115.62108-.09027.99987-.758811 1.50102-1.136611.59109-.445601 1.18928-.881816 1.77611-1.33301 2.26413-1.740824 4.47618-3.548498 6.73118-5.30114 2.18844-1.700917 4.51043-3.4272 6.59787-5.060605 0 0-3.67565.305346-5.51288.464942-1.66002.144202-3.31859.30493-4.97895.445115-3.41019.287923-7.05447-.450955-10.23471.813307z" fill="#785436" stroke-width="10.2571"/></g><g><path d="m235.13477 21.791016c-1.61101-.840683-4.87652-2.43689-4.87652-2.43689s3.46642 8.705917 5.53277 12.90564c1.55664 3.163775 3.35456 6.20533 5.15909 9.234561 1.18364 1.986942 2.35022 3.992813 3.71512 5.859893.97831 1.338254 1.69162 3.111452 3.19414 3.811772 1.1613.54128 2.63134.410444 3.84375-.0039 2.88777-.986861 5.73546-2.944089 7.2461-5.595703 1.30381-2.288557 1.18719-5.217954.96537-7.842491-.0809-.956676-.22327-2.012321-.8267-2.759071-1.28419-1.58919-3.58831-1.955354-5.37153-2.952754-1.43796-.80429-2.8564-1.643217-4.29602-2.444548-4.73724-2.636891-9.47898-5.268272-14.28557-7.776526z" fill="#4d3623" stroke-width="1.07686"/><path d="m239.89638 29.846472s2.45523 4.175848 3.68284 6.263772c.9157 1.557428 1.83141 3.114856 2.74711 4.672284 1.17456 1.997682 3.52367 5.993044 3.52367 5.993044 2.66383-1.125008 4.02677-1.834408 5.01121-3.651779.78014-1.440217 1.0316-3.465348.25453-4.907227-.87548-1.62449-3.16512-1.899475-4.7756-2.800464-1.44023-.80574-2.91269-1.552472-4.36886-2.329035-2.02513-1.079983-6.0749-3.24086-6.0749-3.24086z" fill="#785436" stroke-width="10.2571"/></g><g><path d="m271.11041 11.6376c-.17508 1.898869-.56026 3.7843-.58187 5.6911-.0473 4.173435-.54936 8.602737.99089 12.481839.52177 1.31408 1.55235 2.423514 2.65629 3.3069 1.31784 1.054549 2.86779 2.056343 4.54684 2.228256 2.15659.220806 4.51257-.390747 6.29882-1.619141 1.49295-1.026694 2.42712-2.769175 3.14756-4.431693.4287-.989294.60669-2.092355.64346-3.169916.029-.850008-.0454-1.729954-.33594-2.529297-1.39594-3.840706-4.41873-6.876093-6.56584-10.3531-.86881-1.406946-1.56929-2.9246-2.55568-4.2517623-2.17751-2.9297723-7.36067-8.10842791-7.36067-8.10842791s-.5536 7.17326921-.88386 10.75524221z" fill="#4d3623" stroke-width="1.07686"/><path d="m275.89479 12.730575s-1.97691 10.776451.34819 15.327313c.65961 1.291038 2.04097 2.35883 3.46552 2.628107.7836.14812 1.70944-.11683 2.3024-.650082 1.3071-1.175475 2.13354-3.145839 1.96163-4.895321-.48268-4.91206-8.07774-12.409752-8.07774-12.409752z" fill="#785436" stroke-width="10.2571"/></g></g></svg>