<svg height="500" viewBox="0 0 132.29167 132.29167" width="500" xmlns="http://www.w3.org/2000/svg" xmlns:xlink="http://www.w3.org/1999/xlink"><filter id="a" color-interpolation-filters="sRGB" height="1.024482" width="1.024482" x="-.012241" y="-.012241"><feGaussianBlur stdDeviation=".32408807"/></filter><filter id="b" color-interpolation-filters="sRGB" height="1.02504" width="1.024406" x="-.012203" y="-.01252"><feGaussianBlur stdDeviation=".41314874"/></filter><filter id="c" color-interpolation-filters="sRGB" height="1.025039" width="1.024409" x="-.012204" y="-.012519"><feGaussianBlur stdDeviation=".41314874"/></filter><g stroke-width="1.04525" transform="matrix(.95670687 0 0 .95670687 -176.35264 26.995986)"><g><path d="m322.28906 85.988281-4.33008-4.433594c-4.3501-5.223248-5.66016-14.423209-8.37695-26.822265-1.13067-5.160913-2.60664-10.79039-4.91742-16.672079-3.6353-7.19265-6.12222-14.051576-10.87384-19.214963l-18.06739-18.06919c-9.85873-7.8429497-24.74198-13.29377-35.88744-15.782049-12.39842-2.71723-21.59932-4.035009-26.82422-8.386719l-4.43164-4.328125-9.86524 9.863281s5.0172 4.159951 7.5625 6.194568c1.75254 1.400909 3.4127 2.9379845 5.3074 4.1396649 6.09724 3.8670697 11.23482 5.8794658 19.33128 9.7712356 7.34701 3.5311603 14.22059 7.2894625 23.34375 14.5957035l23.44726 23.480469c7.30967 9.130688 11.07966 15.981592 14.61133 23.328125 3.89303 8.1007 5.95971 13.401764 9.91135 19.545681 1.18015 1.834869 2.70572 3.423232 4.0839 5.114417 2.04123 2.504816 6.19811 7.453183 6.19811 7.453183z" fill="#63452c" stroke-width="1.04525"/><path d="m312.75928 88.782789 2.79453-2.79506c-1.12771-1.199406-2.27593-2.535412-3.06642-3.799831-4.09639-6.616886-5.21392-15.736869-7.55846-26.437021-2.20212-10.051521-5.61578-21.442363-14.04778-33.080855l-18.98346-18.983717c-11.63902-8.429626-23.02934-11.836401-33.08086-14.039586-10.90037-2.388919-20.03634-3.499971-26.68507-7.788539-1.3272-.879328-2.51128-1.81057-3.55204-2.844272l-2.84427 2.844271 5.10973 4.340714c6.52992 4.849813 13.87078 7.78563 22.13399 11.757555 7.53797 3.62294 15.92791 8.128 25.47461 15.800388l22.35679 22.360916c7.66975 9.548829 12.17798 17.934003 15.80092 25.470396 3.97325 8.267436 6.91145 15.610421 11.76523 22.142461z" fill="#865e3c" stroke-width="9.95603"/></g><g><path d="m281.02485-3.1924606-26.76508 20.0362106-33.05536 36.993446-13.09122 14.640082-23.60538 26.417253 15.16602 15.166019 25.70006-22.967944 14.76995-13.202399 37.56319-33.565988 20.05384-26.780663-8.41211-8.4121093z" fill="#463222" stroke-width="1.04525"/><path d="m228.61407 77.810879 45.56548-40.720968 17.29564-23.097204-10.98814-10.9881461-22.99239 17.3668581-40.12644 44.896618-4.34026 4.853255-21.96836 24.589847 8.7974 8.797401 23.85351-21.315631z" fill="#694930" stroke-width="9.95603"/><path d="m751.0482-67.492617 54.09633 332.518007 3.54102 42.89649 36.83398 2.72851 335.62707 51.29842c-2.7455-3.29977-9.4642-11.44002-15.4352-19.33008l-301.65867-48.53084-38.82226-2.88086-3.68164-44.52539-50.44114-298.528279c-6.76606-4.507957-12.93063-9.802186-20.05949-15.645978z" fill="#665a3c" transform="matrix(.26458334 0 0 .26458334 -.000001 0)"/><g stroke-linecap="round" stroke-linejoin="round" stroke-width="1.27912" transform="matrix(0 -.81716524 -.81716524 0 288.99998 246.89962)"><path d="m39.958984 39.121094a2.1166649 2.1166649 0 0 0 0 2.99414l59.308594 59.306646a2.1166649 2.1166649 0 0 0 2.992192 0 2.1166649 2.1166649 0 0 0 0-2.992193l-59.306645-59.308593a2.1166649 2.1166649 0 0 0 -2.994141 0z" fill="#463222" filter="url(#a)" opacity=".33" transform="matrix(0 1.2791198 -1.2791198 0 341.78208 -47.417791)"/><g stroke-width="1.63615"><path d="m292.50162 6.5392633a2.707468 2.707468 0 0 0 -.0674-.2075551 2.707468 2.707468 0 0 1 -.69273 1.1924503l-75.86273 75.8607275a2.707468 2.707468 0 0 1 -3.82721 0 2.707468 2.707468 0 0 1 -.69141-1.192451 2.707468 2.707468 0 0 0 .69141 2.546186 2.707468 2.707468 0 0 0 3.82721 0l75.86271-75.8607273a2.707468 2.707468 0 0 0 .76015-2.3386304z" fill="#463222" filter="url(#b)"/><path d="m292.50162 3.831793a2.707468 2.707468 0 0 0 -.76015-1.4912239 2.707468 2.707468 0 0 0 -3.82986 0l-75.86006 75.8627099a2.707468 2.707468 0 0 0 -.69141 2.546186 2.707468 2.707468 0 0 1 .69141-1.192451l75.86006-75.8627097a2.707468 2.707468 0 0 1 3.82986 0 2.707468 2.707468 0 0 1 .69273 1.1931113 2.707468 2.707468 0 0 0 .0674-1.0556226z" fill="#865e3c" filter="url(#c)"/></g></g><g stroke-width="1.04525" transform="matrix(1.0452523 0 0 1.0452523 184.33299 -28.217615)"><path d="m37.357422 88.320312c-3.596717.000001-6.615235 3.018518-6.615235 6.615235 0 3.596716 3.018518 6.613283 6.615235 6.613283 3.596716 0 6.613281-3.016567 6.613281-6.613283 0-3.596717-3.016565-6.615234-6.613281-6.615235z" fill="#3d3846" stroke-linejoin="round"/><circle cx="37.35651" cy="94.935158" fill="#77767b" r="3.307291"/></g></g><g><path d="m285.42673-24.216193c-2.64924.64689-3.87066 1.300365-4.59527 1.87182-1.73842 1.369828-2.68777 3.528432-2.5208 5.741512l1.33017 16.47884229c.0906 1.23433061.39316 2.39979721.84622 3.12858041l-1.44453 1.0910974 11.34647 11.3475999 1.0862-1.45055c.88259.611333 1.81188.818057 2.37586.865028l18.40264 1.486049c1.10881.08894 3.28303-.860738 4.76253-2.99361 2.41635-3.8217051 3.37957-8.1878187 3.18193-12.42566574v-.014993-.0149863c-.1-1.45006159-.52041-4.29123216-2.67065-6.43474956l-17.42385-17.4237554c-2.14085-2.141972-4.97348-2.565868-6.43112-2.665987zm21.31217 26.7411036-8.57054-.6847128-5.4405-5.440495-.57824-8.3666728z" fill="#3d3846" stroke-width=".276556"/><path d="m283.77958-18.605066c-.49771.391689-.76764 1.005556-.71986 1.637109l1.3317 16.49511763c.0332.45190072.22673.87708094.54571 1.19889326l8.90489 8.89661491c.31838.3204319.74047.5170042 1.19063.5544882l16.4951 1.330668c.63421.05087 1.2518-.218935 1.64539-.718819 1.70183-2.7742726 2.47066-6.4205779 2.27375-9.5668584-.0807-1.17078095-.26767-2.3787482-1.28156-3.3894572l-17.42995-17.4299444c-1.01124-1.011767-2.2184-1.201143-3.38945-1.281575-2.36003.494102-7.28025.512499-9.56635 2.273763zm10.29395 1.728059 17.37104 17.37206645c.38251 2.15159545-.0504 5.16509895-.91004 7.11067735l-14.49369-1.1575521-7.92096-7.9209638-1.15805-14.5024739c2.46469-.355986 3.8001-1.098705 7.1117-.901754z" fill="#77767b" stroke-width="9.95603"/></g></g></svg>