<svg height="500" viewBox="0 0 132.29167 132.29167" width="500" xmlns="http://www.w3.org/2000/svg" xmlns:xlink="http://www.w3.org/1999/xlink"><linearGradient id="a" gradientTransform="matrix(.99870009 -.05097178 .05097178 .99870009 378.71029 -82.542223)" gradientUnits="userSpaceOnUse" x1="90.971497" x2="125.23392" y1="53.712746" y2="55.773113"><stop offset="0" stop-color="#c8beb7"/><stop offset=".4876008" stop-color="#917c6f"/><stop offset=".57025611" stop-color="#917c6f"/><stop offset="1" stop-color="#483e37"/></linearGradient><g><use transform="translate(13.08682 -23.643559)" xlink:href="#b"/><use transform="translate(17.12656 -10.400432)" xlink:href="#b"/><use transform="translate(.71554 -21.181319)" xlink:href="#b"/><use transform="translate(-14.7293 -15.224029)" xlink:href="#b"/><use transform="translate(22.77958 -.661754)" xlink:href="#b"/><g id="b" transform="matrix(.57415789 .33217814 -.33217814 .57415789 -214.03289 -89.181811)"><path d="m499.44856-19.178553s5.57608-7.894432 5.97236-12.493161c1.64238-19.059182-15.52948-55.248378-15.52948-55.248378s-17.0798 35.674261-15.94109 54.599812c.29715 4.938685 5.83822 13.64644 5.83822 13.64644z" fill="#554b45"/><path d="m489.77526-74.099276s-10.81951 26.75301-9.90649 40.679109c.29757 4.538883 4.93219 12.723349 4.93219 12.723349l9.67276-.595932s4.67333-7.390048 5.04942-11.586095c1.26044-14.062744-9.74788-41.220431-9.74788-41.220431z" fill="url(#a)"/><path d="m479.78857-18.67384-1.0759 197.8311 19.94418-.00001.79171-198.335803-4.97484-2.114197-9.67276.595932z" fill="#392010"/><path d="m484.80096-20.696818-.76602 194.596858 9.67198.50986.74656-193.460218.0202-2.242432-4.83638.297967z" fill="#593d26"/><path d="m490.23515-21.50764c-1.8301.09844-3.66187.409734-5.43413.810825-1.75731.397705-5.01266 2.022884-5.01266 2.022884l-.0434 4.826798c6.60897-2.269056 11.83566-3.449375 19.66013-.504607l.0434-4.826799c-1.36225-.578931-3.19913-1.809276-4.97492-2.114397-1.39288-.239326-2.81501-.291265-4.23842-.214704zm-.0876 9.740045c-1.8301.09844-3.66187.409734-5.43413.810828-1.75731.397705-5.01263 2.0233986-5.01263 2.0233986l-.0434 4.8267986c6.60896-2.2690558 11.83567-3.4493752 19.66014-.5046075l.0434-4.827314c-1.36225-.5789307-3.19911-1.8087607-4.9749-2.1138817-1.39287-.239326-2.81503-.29178-4.23844-.215222z" fill="#392010"/></g></g></svg>