<svg height="500" viewBox="0 0 500 500" width="500" xmlns="http://www.w3.org/2000/svg" xmlns:xlink="http://www.w3.org/1999/xlink"><linearGradient id="a" gradientTransform="matrix(5.2503699 -1.3688487 -1.3689521 5.2499414 2847.4757 -2425.0378)" gradientUnits="userSpaceOnUse" spreadMethod="reflect" x1="-462.71622" x2="-318.02322" y1="363.39459" y2="432.57919"><stop offset="0" stop-color="#5d777e"/><stop offset=".09387415" stop-color="#919597"/><stop offset=".15581046" stop-color="#bbc5c7"/><stop offset=".32185635" stop-color="#dff5fd"/><stop offset=".46681547" stop-color="#dce7e9"/><stop offset=".55150062" stop-color="#dad9d6"/><stop offset=".668539" stop-color="#fff"/><stop offset=".82537693" stop-color="#a5b1b3"/><stop offset=".95369864" stop-color="#607985"/><stop offset="1" stop-color="#5d777e"/></linearGradient><filter id="b" color-interpolation-filters="sRGB" height="1.094737" width="1.122986" x="-.061493" y="-.047368"><feGaussianBlur stdDeviation="3.604297"/></filter><path d="m344.96775 397.49847 51.4517 43.21808c5.763 5.99602 10.05248 7.93625 12.63615 10.27625 7.29855 6.61024 9.87308 9.87318 22.98711 22.98711 6.09529 6.09521 12.828 14.22037 20.78399 19.34811 4.84453 3.12236 10.19545 6.49708 15.95672 6.6597 7.28088.20553 15.40198-2.17128 20.60816-7.26531 5.2104-5.09816 7.75057-13.17204 7.71854-20.46164-.0255-5.80229-3.24308-11.29211-6.28657-16.23218-5.05432-8.20397-13.1354-15.20232-19.38132-21.44819-12.90516-12.90505-15.87437-15.85384-23.26354-23.26354-3.74824-3.75863-.86776-1.09038-10.90628-10.97269l-44.76158-50.38878z" fill="#63452c" stroke-linecap="round" stroke-linejoin="round"/><path d="m378.09695 364.54704 47.94811 47.20196c9.96967 9.81453 7.89022 7.94523 11.84362 11.90959 7.40238 7.42295 9.33897 9.33889 22.23811 22.23792 12.89914 12.89904 27.51694 26.12402 18.05933 35.39895-9.39994 9.21841-21.92783-5.73241-34.82699-18.63144-12.89914-12.89904-14.51082-15.24558-22.30376-22.30359-4.1837-3.78913-10.04233-7.55436-13.09759-10.73316l-46.90729-48.80394 8.52381-8.13871z" fill="#865e3c" stroke-linecap="round" stroke-linejoin="round" stroke-width="32"/><path d="m19.342963.07575153c-1.593245.13909369-3.207007.47678327-4.788657 1.07140627-6.3266012 2.3784927-9.1513971 6.841831-10.4708423 9.1049092-1.319445 2.263079-1.7686639 3.381105-1.5048895 2.907519-1.94186133 3.48645-3.11631461 9.633106-2.33298784 14.187954.78332684 4.55485 2.45693264 7.915583 4.54124974 11.47877 4.1686343 7.126376 10.6994949 15.471248 22.5263169 29.097679l.296479.34146 204.166078 211.058871c38.85374 40.16559 77.72087 80.61636 99.22866 127.88379 6.07695 13.35526 9.73442 18.59203 7.06031 26.7913-4.28915 13.15122-1.20967 30.5504 13.41314 38.09626 14.61402 7.54133 31.12528 1.33451 46.11587-11.46036.19963-.16512 12.29943-10.17186 19.03195-16.26126 6.12338-5.53841 12.69045-11.42564 19.00945-18.22617 7.50951-8.08174 18.14865-21.96996 18.14865-21.96996l-.31285.39053c6.89338-8.35813 11.58888-15.96459 14.21672-23.8572 2.62783-7.89261 3.04315-16.88177-.869-24.7139s-11.4952-12.62347-18.37151-14.41288c-6.87631-1.78939-13.53712-1.38768-19.95819.2147-11.13588 2.77896-15.69738-.72648-28.74217-6.94983-41.41895-19.75998-74.93747-58.4684-112.92192-93.98319l-203.147827-189.939491c-14.341377-13.642657-33.28547-31.525826-42.273904-40.643922-3.053197-3.0972422-5.773144-5.5625993-9.72453-7.6715964-2.963539-1.5817478-7.555862-2.95267011-12.335596-2.53538907z" fill="#60696c"/><path d="m17.212779 21.309488c-1.814171 3.257192-.348472 9.020755 22.750424 35.634457l203.850927 210.733705c38.83204 40.14316 79.30526 81.758 102.43638 132.593 5.47859 12.04024 12.68675 23.74915 7.73827 38.92203-4.9485 15.17286 7.82081 29.98016 32.75325 8.68388 0 0 12.56451-10.42301 18.64759-15.92501 6.1396-5.55309 12.33406-11.13396 17.97529-17.20506 6.17286-6.64324 17.18412-20.83631 17.18412-20.83631 24.04924-29.15943 8.71224-40.03011-8.0042-35.8585-16.71645 4.1716-27.72997-2.22634-40.01018-8.08493-45.73255-21.81788-80.13711-62.25952-117.14867-96.86468l-203.254819-190.039556c-14.294034-13.597621-33.122502-31.349376-42.657285-41.021704-9.534784-9.67233-10.446927-3.988513-12.261097-.731322z" fill="url(#a)" stroke-width="31.9999"/><path d="m373.75 411.75c.99092 9.01979-2.50715 17.99525-4.50194 26.84733-.60207 2.67174-4.36535 6.16551-2.24806 7.90267 6.21964 5.103 15.81064-5.30039 21.47724-11.01127 8.22053-8.28478 22.3517-24.40056 15.73104-31.28045l-138.95828-138.95828s70.35031 72.80261 96.09082 115.8754c5.6502 9.45475 11.20637 19.67607 12.40918 30.6246z" fill="#fff" filter="url(#b)" opacity=".5"/></svg>