<svg height="500" viewBox="0 0 500 500" width="500" xmlns="http://www.w3.org/2000/svg" xmlns:xlink="http://www.w3.org/1999/xlink"><linearGradient id="a"><stop offset="0" stop-color="#93a0aa"/><stop offset=".25" stop-color="#9da9b2"/><stop offset=".375" stop-color="#7f8f9a"/><stop offset=".5" stop-color="#93a0aa"/><stop offset=".75" stop-color="#7c8c98"/><stop offset="1" stop-color="#93a0aa"/></linearGradient><linearGradient id="b" gradientUnits="userSpaceOnUse" spreadMethod="reflect" x1="451.2711988821" x2="392.67155255363" y1="105.93217477088" y2="225.94071462803"><stop offset="0" stop-color="#7e635d"/><stop offset=".09387415" stop-color="#979491"/><stop offset=".15581046" stop-color="#bbc5c7"/><stop offset=".32185635" stop-color="#dff5fd"/><stop offset=".46681547" stop-color="#dce7e9"/><stop offset=".55150062" stop-color="#dad9d6"/><stop offset=".668539" stop-color="#fff"/><stop offset=".82537693" stop-color="#b3aba5"/><stop offset=".95369864" stop-color="#857060"/><stop offset="1" stop-color="#7e635d"/></linearGradient><linearGradient id="c" gradientTransform="matrix(.11738552 -.22728798 .22728798 .11738552 -270.82288 21.383593)" gradientUnits="userSpaceOnUse" spreadMethod="reflect" x1="1140.5364" x2="543.75946" xlink:href="#a" y1="2035.4813" y2="2301.3706"/><linearGradient id="d" gradientTransform="matrix(.11738552 -.22728798 .22728798 .11738552 -270.82288 21.383593)" gradientUnits="userSpaceOnUse" spreadMethod="reflect" x1="874.17151" x2="601.81787" xlink:href="#a" y1="1673.1475" y2="1973.9877"/><filter id="e" color-interpolation-filters="sRGB" height="1.022533" width="1.025672" x="-.012836" y="-.011266"><feGaussianBlur stdDeviation=".5662525"/></filter><clipPath id="f"><path d="m193.28323 3.3632819c-6.81674 1.6129024-13.48552 3.9844973-19.83398 6.9453131-8.05663 3.75748-22.92969 13.61914-22.92969 13.61914l92.13005 70.2539 14.81722 11.332035 69.94511 47.43372 8.45076 18.67184 13.84436 30.61514 11.54297 22.48243 46.4043 35.1582s6.72086-2.60243 9.78125-4.46875c19.73918-12.03756 40.53138-24.47446 54.50868-42.89111 14.19269-18.70045 20.49772-42.48314 27.05574-65.02491 1.02261-3.51501 1.87891-10.82031 1.87891-10.82031l-46.44336-35.09765-25.01563-5.021491-33.00169-4.983015-24.74636-3.714252-61.16588-53.533925-15.03151-9.966454c-31.06823-18.3544786-56.60977-22.9915753-84.59654-23.2515702-7.24314.1091476-11.84043.9002036-17.59471 2.2617191z"/></clipPath><linearGradient id="g" gradientUnits="userSpaceOnUse" spreadMethod="reflect" x1="155.79147" x2="161.92226" y1="261.31641" y2="287.51157"><stop offset="0" stop-color="#79613b"/><stop offset="1" stop-color="#826c45"/></linearGradient><g stroke-width="1.11469" transform="matrix(.89711238 0 0 .89711238 24.237539 28.069807)"><g><g stroke-linecap="round" stroke-linejoin="round"><path d="m230.09591 289.90578c23.06766-35.27825 57.77894-87.82906 83.15943-124.12231l-61.96471-47.32584c-27.11029 33.01728-65.91668 79.66611-93.1771 110.90102 0 0-8.20926 9.39169-12.27216 14.12357-10.7882 12.56454-21.54981 25.1534-32.14188 37.88372-4.02335 4.83555-7.99773 9.71214-11.93004 14.62201-6.64059 8.29144-13.297306 16.57397-19.695329 25.05399-4.431649 5.87376-8.73848 11.84297-12.942504 17.88174-13.376196 19.21392-26.746085 38.45954-39.063712 58.36866-3.309889 5.34982-6.355379 10.86146-9.349779 16.39404-5.721784 10.57181-13.854341 26.56837-16.4564073 32.08901-3.78291425 8.65953-1.0084525 17.51882 2.0507813 25.4668 2.7467673 7.13618 7.86534 13.58773 13.964844 18.19922 6.106136 4.61651 13.715721 7.79894 21.339843 8.48437 8.51409.76544 19.196912.0727 25.138672-5.07226 4.408083-3.92948 16.896511-15.73517 25.129883-23.82539 4.471343-4.3936 8.841598-8.88999 13.176348-13.4184 3.85585-4.02812 7.68319-8.08536 11.41261-12.23082 4.70356-5.22827 9.33728-10.5226 13.82309-15.93886 14.61267-17.64361 28.85766-35.60164 42.62425-53.91306 3.82339-5.08562 7.4524-10.31517 11.09551-15.53144 12.09668-17.32023 23.97799-34.79139 35.73414-52.34453 3.49449-5.21762 10.34422-15.74524 10.34422-15.74524z" fill="#63452c" stroke-width="1.11469"/><path d="m92.3895 445.7552c5.882-6.166 11.622-12.4 17.22-18.72l13.437-15.594c13.586-16.22 26.434-32.893 38.843-49.937l11.095-15.532c11.707-16.6 23.107-33.515 34.438-50.687l10.343-15.751c23.11-35.343 57.1618-86.8603 82.7638-123.4703l-18.25966-13.9459-18.34333-13.83496c-27.17 33.09-66.06281 79.86216-93.56681 111.37616l-12.25 14.096c-11.355 13.115-22.564 26.254-33.5 39.5l-11.938 14.624c-7.884 9.808-15.59 19.71-23.093 29.72l-12.657 17.31c-12.108 16.978-23.57 34.335-34.124 52.282l-9.313 16.406c-5.185 9.492-12.4275 24.0725-14.75 29s4.138532 18.74274 11.198568 24.08584c7.047711 5.33377 22.188432 7.78216 26.176432 4.22716s15.672-14.348 23.125-21.72z" fill="#865e3c" stroke-width="35.67"/><path d="m300.5293 156.06445c-25.60198 36.60997-59.6537 88.12774-82.76368 123.47071l-10.34374 15.75c-11.33099 17.17198-22.73052 34.08751-34.4375 50.6875l-11.09571 15.53125c-12.40899 17.04398-25.25581 33.71751-38.84179 49.9375l-13.4375 15.59375c-5.598 6.31999-11.338714 12.55471-17.220708 18.7207l-13.154297 13.43359c-7.452993 7.372-19.137004 18.16571-23.125 21.72071-3.987996 3.55499-19.128077 1.1072-26.175781-4.22657-7.060029-5.34309-13.521717-19.15844-11.199219-24.08593 2.322498-4.9275 9.565005-19.50801 14.75-29l9.3125-16.40625c10.553989-17.94699 22.017012-35.30327 34.125-52.28125l12.65625-17.31055c7.502992-10.00999 15.209755-19.91271 23.093755-29.7207l11.9375-14.62305c10.93598-13.24599 22.14501-26.38501 33.5-39.5l12.25-14.0957c27.50397-31.51397 66.39643-78.28699 93.5664-111.37696l-12.63476-9.82617c-27.11027 33.01725-65.91735 79.66747-93.17774 110.90235 0 0-8.20859 9.39117-12.27148 14.12304-10.78819 12.56453-21.55052 25.15251-32.14258 37.88281-4.02335 4.83555-7.99738 9.71319-11.92969 14.62305-6.640582 8.29143-13.297295 16.57272-19.695311 25.05274-4.431645 5.87375-8.73934 11.84404-12.94336 17.88281-13.376182 19.2139-26.744885 38.46004-39.0625 58.36914-3.309885 5.34981-6.355212 10.86-9.349609 16.39258-5.721778 10.5718-13.8549676 26.56921-16.4570312 32.08984-3.78291052 8.65952-1.0084495 17.51883 2.0507812 25.4668 2.7467646 7.13617 7.865346 13.58773 13.964844 18.19922 6.10613 4.6165 13.715729 7.79894 21.339844 8.48437 8.514081.76544 19.196917.0727 25.138671-5.07226 4.408079-3.92948 16.895543-15.73596 25.128907-23.82618 4.471338-4.39359 8.842984-8.88956 13.177734-13.41796 3.85585-4.02812 7.68269-8.08502 11.41211-12.23047 4.70355-5.22827 9.33646-10.5232 13.82227-15.93946 14.61265-17.64359 28.85842-35.6007 42.625-53.91211 3.82338-5.08561 7.45259-10.31498 11.0957-15.53125 12.09667-17.32021 23.97823-34.79258 35.73437-52.3457 3.49449-5.21761 10.34375-15.74414 10.34375-15.74414 23.06764-35.27821 57.77969-87.82983 83.16016-124.12305z" fill="#63452c" stroke-width="1.11469"/></g><g stroke-width="1.11469"><path d="m91.884766 469.02734c4.471338-4.39359 8.842984-8.88956 13.177734-13.41796 3.85585-4.02812 7.68269-8.08502 11.41211-12.23047 4.70355-5.22827 9.33646-10.5232 13.82227-15.93946 14.61265-17.64359 28.85842-35.6007 42.625-53.91211 3.82338-5.08561 7.45259-10.31498 11.0957-15.53125 12.09667-17.32021 23.97823-34.79258 35.73437-52.3457 3.49449-5.21761 10.34375-15.74414 10.34375-15.74414l-71.98242-60.54687s-8.20859 9.39117-12.27148 14.12304c-10.78819 12.56453-21.55052 25.15251-32.14258 37.88281-4.02335 4.83555-7.99738 9.71319-11.92969 14.62305-6.640582 8.29143-13.297295 16.57272-19.695311 25.05274-4.431645 5.87375-8.73934 11.84404-12.94336 17.88281-13.376182 19.2139-26.744885 38.46004-39.0625 58.36914-3.309885 5.34981-6.355212 10.86-9.349609 16.39258z" fill="url(#g)" stroke-linecap="round" stroke-linejoin="round" stroke-width="1.11469"/><g fill="#675232"><path d="m217.76562 279.53516-10.34374 15.75c-11.33098 17.17196-22.73053 34.08753-34.4375 50.6875l-11.09571 15.53125c-12.40898 17.04396-25.25582 33.71753-38.84179 49.9375l-13.4375 15.59375c-5.59799 6.31998-11.33872 12.55472-17.220708 18.7207l-13.154297 13.43359 12.650391 9.83789c4.471334-4.39359 8.842984-8.88956 13.177734-13.41796 3.85585-4.02812 7.68269-8.08502 11.41211-12.23047 4.70355-5.22826 9.33646-10.52321 13.82227-15.93946 14.61264-17.64357 28.85843-35.60072 42.625-53.91211 3.82338-5.0856 7.45259-10.31499 11.0957-15.53125 12.09666-17.32019 23.97824-34.7926 35.73437-52.3457 3.49449-5.2176 10.34375-15.74414 10.34375-15.74414zm-59.65234-50.17578s-8.20859 9.39117-12.27148 14.12304c-10.78818 12.56452-21.55053 25.15252-32.14258 37.88281-4.02335 4.83555-7.99738 9.71319-11.92969 14.62305-6.640575 8.29142-13.297301 16.57273-19.695311 25.05274-4.431641 5.87374-8.739344 11.84405-12.94336 17.88281-13.376169 19.21388-26.744897 38.46006-39.0625 58.36914-3.309882 5.3498-6.355215 10.86001-9.349609 16.39258l12.764504 9.91416.0011-.002 9.3125-16.40625c10.553978-17.94697 22.017024-35.30329 34.125-52.28125l12.65625-17.31055c7.502984-10.00998 15.209766-19.91272 23.093756-29.7207l11.9375-14.62305c10.93597-13.24598 22.14502-26.38502 33.5-39.5l12.25-14.0957z" stroke-linecap="round" stroke-linejoin="round" stroke-width="1.11469"/><path d="m91.90709 469.04473-71.152185-55.34589 9.313-16.4065 74.994185 58.31739s-20.608 20.807-13.155 13.435zm66.20644-239.68608 71.98238 60.54713c23.11-35.343-10.343 15.751-10.343 15.751l-73.88938-62.20213s39.754-45.61 12.25-14.096zm14.80851 144.16834-71.15259-77.53904 11.938-14.6235 70.30959 76.63054zm-56.06125 69.50706-47.443669-104.68161 12.657-17.3105 48.223669 106.39811z"/></g></g></g><g><g clip-path="url(#f)" stroke-width="1.11469"><path d="m193.28323 3.3632819c-6.81674 1.6129024-13.48552 3.9844973-19.83398 6.9453131-8.05663 3.75748-22.92969 13.61914-22.92969 13.61914l92.13005 70.2539 14.81722 11.332035 69.94511 47.43372 8.45076 18.67184 13.84436 30.61514 11.54297 22.48243 46.4043 35.1582s6.72086-2.60243 9.78125-4.46875c19.73918-12.03756 40.53138-24.47446 54.50868-42.89111 14.19269-18.70045 20.49772-42.48314 27.05574-65.02491 1.02261-3.51501 1.87891-10.82031 1.87891-10.82031l-46.44336-35.09765-25.01563-5.021491-33.00169-4.983015-24.74636-3.714252-61.16588-53.533925-15.03151-9.966454c-31.06823-18.3544786-56.60977-22.9915753-84.59654-23.2515702-7.24314.1091476-11.84043.9002036-17.59471 2.2617191z" fill="#4a4c4f" stroke-width="1.11469"/><path d="m454.43555 101.57227s-4.9163 11.28705-7.57605 16.83693c-3.55831 7.42483-7.27058 14.78016-11.20814 22.01101-5.6668 10.40637-10.70465 21.29009-17.85744 30.73692-7.18037 9.48325-16.30492 17.33472-24.837 25.62287-5.69212 5.52939-11.59919 10.83704-17.56742 16.0672-4.62807 4.05574-14.13947 11.8696-14.13947 11.8696l46.4043 35.1582s6.5999-2.81704 9.78125-4.46875c9.21695-4.78532 18.64618-9.41763 26.89367-15.72877 10.25388-7.84646 19.80704-16.87912 27.61501-27.16234 6.26032-8.24496 10.91649-17.67782 15.03052-27.1776 5.08662-11.7456 8.72331-24.11717 11.79386-36.54313.9841-3.98247 2.11027-12.12449 2.11027-12.12449z" fill="#60696c" stroke-width="1.11469"/><path d="m375.38867 212.84766c-4.62806 4.05573-14.13867 11.86914-14.13867 11.86914l46.4043 35.1582s6.5999-2.81704 9.78125-4.46875c9.21694-4.78532 18.64705-9.41738 26.89453-15.72852 10.25387-7.84645 19.80532-16.8789 27.61328-27.16211 6.26031-8.24495 10.91722-17.67796 15.03125-27.17773 5.08661-11.74559 8.72437-24.11702 11.79492-36.54297.9841-3.98246 2.10938-12.125 2.10938-12.125l-46.44336-35.09765s-4.91643 11.28801-7.57617 16.83789l34.40624 26c-7.30199 42.03095-27.07254 74.40502-71.3125 94.625z" fill="url(#b)" stroke-width="35.67"/><path d="m210.87891 1.1015625c-7.24314.1091475-11.84143.9002046-17.59571 2.2617187-6.81673 1.6129008-13.48553 3.9844997-19.83398 6.9453128-8.05662 3.757476-22.92969 13.61914-22.92969 13.61914l92.13086 70.253907 14.81641 11.332029 69.94531 47.4336 8.45117 18.67187 13.84375 30.61524 11.54297 22.48242 46.4043 35.1582s6.72086-2.60243 9.78125-4.46875c19.73916-12.03755 40.53052-24.47399 54.50781-42.89063 14.19268-18.70043 20.49863-42.48364 27.05664-65.02539 1.02261-3.515 1.87891-10.82031 1.87891-10.82031l-46.44336-35.09765-25.01563-5.021489-33.00195-4.982422-24.74609-3.714843-61.16602-53.533204-15.03125-9.966796c-31.0682-18.3544606-56.60896-22.9919589-84.5957-23.2519535zm-1.05079 17.9960935h.002c.73739-.01395 1.4917-.008 2.24804 0 22.32298.217 51.70878 8.458017 80.34376 25.375l7.1875 4.25 64.1875 56.158204 15.5332 2.31055 47.18554 7.125 20.34376 4.09375 34.40624 26c-7.30199 42.03095-27.07254 74.40502-71.3125 94.625l-34.56445-26.1875-9.46484-18.43555-19.65625-43.4707-6.5-14.3418-71.96875-45.845704-7.375-5.65625-77.78321-59.3125c3.029-1.798998 9.72366-3.711511 14.77344-4.902344 4.06867-.959467 10.19509-1.744902 12.41406-1.785156z" fill="#4a4c4f" stroke-width="1.11469"/><path d="m454.43555 101.57227s-4.9163 11.28705-7.57605 16.83693c-3.55831 7.42483-7.27058 14.78016-11.20814 22.01101-5.6668 10.40637-10.70465 21.29009-17.85744 30.73692-7.18037 9.48325-16.30492 17.33472-24.837 25.62287-5.69212 5.52939-11.59919 10.83704-17.56742 16.0672-4.62807 4.05574-14.13947 11.8696-14.13947 11.8696l46.4043 35.1582s6.5999-2.81704 9.78125-4.46875c9.21695-4.78532 18.64618-9.41763 26.89367-15.72877 10.25388-7.84646 19.80704-16.87912 27.61501-27.16234 6.26032-8.24496 10.91649-17.67782 15.03052-27.1776 5.08662-11.7456 8.72331-24.11717 11.79386-36.54313.9841-3.98247 2.11027-12.12449 2.11027-12.12449z" fill="#60696c" opacity=".5" stroke-width="1.11469"/><path d="m426.5165 114.3162-47.187-7.124-15.533-2.312-64.187-56.157999-7.188-4.25c-28.635-16.917-58.02-25.157-80.343-25.374-.757-.008-1.512-.014-2.25 0h.001c-2.218.04-8.34611.824363-12.4155 1.784-5.04979 1.190834-11.7435 3.104-14.7725 4.903l77.782 59.313 7.375 5.656 71.969 45.844999 6.5 14.342 19.656 43.47 9.466 18.436 34.564 26.187c44.24-20.22 64.01-52.594 71.312-94.625l-34.406-26z" fill="url(#d)" stroke-width="40.1287"/><path d="m446.8595 118.4092s-17.23149 37.21211-29.55531 53.39869c-11.84493 15.55758-41.91469 41.03931-41.91469 41.03931l34.564 26.187c44.24-20.22 64.01-52.594 71.312-94.625z" fill="url(#b)" filter="url(#e)" opacity=".75" stroke-width="35.67"/></g><path d="m223.32798 119.74999 96.20508 73.47852 16.32964-21.60928 12.39117-16.28511 17.87392-23.69249 17.94622-23.73313 12.34422-16.340736 16.30428-21.51301-96.20298-73.476629-21.04506 27.775005-11.33019 15.514948-30.48758 40.070073-10.86024 14.355794z" fill="#4a4c4f" stroke-width="1.11469"/><path d="m363.7965 104.8802c7.88601-10.491843 15.82257-20.94546 23.75-31.405999l-67.593-51.624c-6.78567 8.954055-13.57107 17.908304-20.344 26.872l-31.811 42.032c-6.43549 8.521979-12.87475 17.041109-19.313 25.560999l67.595 51.626c7.89539-10.44755 15.79115-20.8948 23.687-31.342z" fill="url(#c)" stroke-width="40.1287"/></g></g></svg>