<svg height="500" viewBox="0 0 132.29167 132.29167" width="500" xmlns="http://www.w3.org/2000/svg" xmlns:xlink="http://www.w3.org/1999/xlink"><linearGradient id="a"><stop offset="0" stop-color="#93a0aa"/><stop offset=".25" stop-color="#9da9b2"/><stop offset=".375" stop-color="#7f8f9a"/><stop offset=".5" stop-color="#93a0aa"/><stop offset=".75" stop-color="#7c8c98"/><stop offset="1" stop-color="#93a0aa"/></linearGradient><linearGradient id="b" gradientTransform="matrix(-1 0 0 1 134.15057 -7.112643)" gradientUnits="userSpaceOnUse" spreadMethod="reflect" x1="76.672356" x2="82.784607" y1="61.401722" y2="67.466743"><stop offset="0" stop-opacity="0"/><stop offset="1"/></linearGradient><linearGradient id="c" gradientTransform="matrix(.11738552 -.22728798 .22728798 .11738552 -268.73472 22.910014)" gradientUnits="userSpaceOnUse" spreadMethod="reflect" x1="-214.55379" x2="-236.77165" xlink:href="#a" y1="964.4989" y2="1034.178"/><linearGradient id="d" gradientTransform="matrix(.11738552 -.22728798 .22728798 .11738552 -268.73472 22.910014)" gradientUnits="userSpaceOnUse" spreadMethod="reflect" x1="793.33038" x2="698.35394" xlink:href="#a" y1="1349.9868" y2="1288.0494"/><linearGradient id="e" gradientTransform="matrix(.11738552 -.22728798 .22728798 .11738552 -268.73472 22.910014)" gradientUnits="userSpaceOnUse" spreadMethod="reflect" x1="692.49835" x2="587.44086" xlink:href="#a" y1="1193.0159" y2="1327.9131"/><g><g transform="matrix(-1 0 0 1 84.193261 48.476162)"><path d="m14.24884 3.4241823c.64588.00774 1.327815.1226992 2.040187.4066934l.505912.2010214 4.310849 4.3103312c35.539929 35.5408767 71.080123 71.0813437 106.620882 106.6214017l.3514.3514.19947.4532c.98978 2.24323.6735 4.65877-.2129 6.56859s-2.29479 3.46685-3.91398 4.62091l-.0217.0155-.0212.0139c-.98145.67077-2.16071 1.33804-3.59564 1.68724-1.43494.34919-3.19786.31076-4.81056-.48835l-.38913-.1912-.30644-.30696c-35.550017-35.532159-71.080548-71.082815-106.620872-106.622893l-4.2932801-4.292762-.2010199-.476457c-1.0650802-2.527352-.1883225-4.910003.7539594-6.6662596.9422897-1.7562582 1.968582-3.000833 3.0721618-3.8746992l.1622663-.129191.1793161-.1012857c.754589-.4262461 1.9159009-1.0657948 3.2835214-1.535307.683811-.234755 1.444945-.463392 2.273245-.5389851.207078-.018897.418261-.028418.633552-.025838z" fill="#2f2314"/><g><path d="m14.341151-5.7453032c-1.183749 1.1848131-1.858656 3.3828203-2.214005 4.6607735-.172478 1.48480895.395385 6.2963301 3.117292 7.4042536l5.553099.0003654c50.261823-.0001719 100.523243.01222 150.785063-.0003654 2.1308-.7188087 2.97411-2.8210832 3.34129-4.7736845.51529-3.0722649-.40426-6.7877255-3.34129-7.9264209-50.2617.0004841-100.523721.0006732-150.785428 0l-5.552734.0007308c-.329672.1417478-.630114.3609291-.903287.6343475z" fill="#4d3c21" transform="matrix(.70710678 .70710678 -.70710678 .70710678 0 0)"/><path d="m14.468368 6.0921348c1.259847 1.6193763 2.482694 3.2714629 3.653524 4.9702392 3.556116 4.113246 7.276442 8.081958 11.050488 11.995134-5.660663-5.412458-11.081341-11.060884-16.47393-16.7364466-.41173.1148154-.821921.2563983-1.21853.4216797 2.869779 2.985766 5.738092 5.9732609 8.573637 8.9932499 12.730447 12.642663 25.231863 25.622083 39.073068 37.056137-3.445607-1.644281 9.0376 9.460998 11.226188 12.113989 10.89783 10.71344 19.262978 23.690375 30.806387 33.812408 7.11404 8.733465 14.91143 16.845455 22.96966 24.705985.37358-.40536.71379-.84057 1.00614-1.29966-.38733-.39628-.78591-.78078-1.17564-1.17461-2.81638-2.6907-5.60255-5.40983-8.28115-8.22947-2.14571-1.98243-4.16311-4.07985-6.12107-6.23166-2.52182-2.66206-4.94375-5.41471-7.23005-8.293034-1.48378-1.729335-2.977191-3.450813-4.507735-5.140255-3.072436-3.055577-6.441488-5.962158-8.863542-9.388058-5.203308-6.197721-10.190377-12.596353-16.079123-18.183903 5.149045 4.645953 10.414152 9.231824 15.563909 13.933517-7.661563-7.661499-15.323118-15.323109-22.984644-22.984644-4.739973-4.222652-9.518584-8.39984-14.500408-12.342917-1.629988-1.533338-3.246966-3.080954-4.857584-4.634342 4.231903 3.358614 8.435775 6.75547 12.590446 10.209713-2.694914-2.694926-5.38987-5.389847-8.084778-8.084778-8.138577-6.78891-15.81973-14.129972-23.011516-21.922177 3.916182 4.077043 8.072417 7.913766 12.512415 11.423076-6.962302-6.962401-13.924839-13.924653-20.887098-20.887098l-3.926892-3.9258586c-.255787-.1019659-.533011-.1551215-.822172-.1762166zm74.487445 77.5756282c.7317.871537 1.453791 1.752046 2.197799 2.612244 2.349014 2.147373 4.541981 4.431568 6.665743 6.775814.99168.986239 1.960683 1.983826 2.844785 3.025655.53835.719722 1.1054 1.412677 1.66295 2.1146 2.3893 2.784714 4.76293 5.581654 7.23005 8.293034 4.67073 4.93048 9.61098 9.61944 14.40222 14.46113.39873.38094.79288.76623 1.19321 1.14567.23085-.36572.42914-.74514.59273-1.13378-4.45343-4.41235-8.93943-8.78452-13.63379-12.91911-.43302-.53847-.87368-1.06862-1.30793-1.60559-.33443-.24262-.66402-.49023-1.00614-.7245-.59421-.95474-.89993-1.45866-1.29088-2.09548-5.06514-6.170061-10.290722-12.183656-16.125633-17.697628-2.307368-2.929479 7.906473 8.148568 11.083563 10.499618 1.08091 1.718165 2.30693 3.280112 3.62097 4.74855-.11577-.38756 1.00684.94948 2.65255 2.72541 2.25061 2.12773 4.68761 4.06015 7.17785 5.94383.40456.16999.79738.29272 1.17048.34726 1.6083 1.33725 3.17829 2.71403 4.73201 4.10724.77149.59277 1.54054 1.18783 2.2965 1.79989-2.00661-2.00657-4.01318-4.01321-6.01979-6.01978-.29367-.20236-.58668-.4041-.88057-.60513-3.54364-1.97498-7.07824-3.89092-9.15809-7.25486-1.5548-1.66725-2.90024-3.559405-3.91398-5.820315-6.516554-4.587281-10.780793-12.430354-17.978746-15.752011.5008 1.062055 1.110954 2.06473 1.792139 3.028239zm20.100587 18.544087c2.64355 2.83476 5.89403 5.02203 9.15809 7.25486.21732.12111.42999.24959.64699.37155-1.64573-1.6457-3.29143-3.29146-4.93716-4.93717-1.4906-.69153-2.72428-1.74005-3.48248-3.48247-1.91893-1.918901-3.83783-3.837856-5.75675-5.756756 1.03978 1.182372 2.06559 2.376435 3.06182 3.595646.31798 1.10354.76646 2.07606 1.30949 2.95434zm13.76195 12.07988c-1.95668-1.50336-3.9405-2.97041-5.90249-4.4545-2.38961-1.00413-5.15906-3.76529-7.17785-5.94383-.92035-.87009-1.80499-1.77826-2.65255-2.72541.0606.2029.59358 1.10151 1.4211 2.44946.76891.93665 1.53432 1.87691 2.29702 2.81998 5.64634 4.09629 10.25304 9.32527 14.96497 14.4694.19071-.46407.33023-.93948.40308-1.42058-1.00611-1.08646-2.00099-2.1832-2.96209-3.31194 1.02334.90959 2.02151 1.8453 3.01635 2.78484.0297-.5945-.0498-1.1905-.25063-1.77457-1.0411-.97579-2.09385-1.9396-3.15691-2.89285zm-111.431965-107.5128154c-.373022.1586447-.721475.3288682-1.052132.497644 3.332147 3.4263914 6.646782 6.8696574 9.942029 10.3280524 22.512788 24.058046 46.397872 46.800046 68.62217 71.123309 4.055346 3.66032 7.817211 8.739095 12.115538 11.4546-20.582331-24.349563-43.946085-46.093722-66.019743-69.047469-7.963373-8.011827-15.752818-16.217206-23.607862-24.3561364zm-1.254703.6015136c-.2883949.151072-.560564.2984959-.7896163.4278809-.010722.00849-.0267.025655-.037724.034623 1.8675313 2.0553604 3.6613783 4.1843259 5.3423103 6.4259649 2.928397 2.981817 6.123541 7.157311 9.373588 8.903849-4.609454-5.267728-9.178455-10.598384-13.888558-15.7923178zm-1.5828496 1.2200806c-.5848968.6572474-1.2524277 1.5659462-1.7554484 2.5910562 3.600906 3.627794 7.306829 7.30141 9.508464 11.840621-3.321913-3.580111-6.627044-8.25948-9.5622075-11.732617-.3536599.744125-.6109538 1.532163-.6692098 2.299601 3.6371215 4.387647 7.4514893 8.617605 11.3569293 12.766146 15.049795 15.050603 30.101467 30.099088 45.150734 45.150217-1.638997-1.813783-3.308892-3.601207-5.065324-5.313371-3.527296-4.034486-11.523165-13.150507-3.297473-4.456575 5.472114 5.355137 10.563437 11.056562 15.493111 16.900261 2.72677 2.727003 5.453529 5.453974 8.18038 8.180896-2.385867-2.877983-4.746042-5.775257-7.057968-8.702828-4.436818-4.87793-8.816871-9.885063-13.360425-14.725717 7.506757 7.504463 14.772198 15.236491 21.345985 23.585124 3.801659 3.59015 7.280442 7.449898 10.642244 11.412741 3.840774 3.840436 7.680719 7.681636 11.521776 11.521776-4.765674-5.34864-9.193521-10.98589-13.979507-16.30133 2.368679 2.426951 4.672951 4.914183 6.659542 7.68842 2.541848 2.97253 5.037574 6.0333 7.663615 8.95656 2.16603 2.1655 4.33114 4.33188 6.49728 6.49728 2.62601 2.29457 5.46166 4.34288 8.6434 5.97121 1.35952 1.03356 2.69533 2.0939 4.02043 3.16621.59309-.21204 1.15912-.51056 1.69033-.84335-7.05906-6.42026-16.52516-9.87949-21.7811-18.25936-3.907373-4.52872-7.689669-9.160805-11.730549-13.554208 5.769938 6.20504 10.796579 13.108438 17.994249 17.911048 5.31133 4.50118 10.54665 9.09871 15.70137 13.78469.0785-.0512.16061-.0996.23719-.15193.29894-.21306.58917-.44783.86817-.69866-1.17076-1.09956-2.35452-2.18701-3.54862-3.26492.53659.4787 1.07347.96756 1.6092 1.42007-3.87342-5.20047-9.89272-10.08073-14.59032-15.15825-8.648637-7.090396-16.23661-15.275549-23.632152-23.632665-1.394969-1.019769-8.952587-9.793524-7.080188-6.267318 10.476789 12.915452 21.59347 25.359053 34.88366 35.477943 2.41529 2.15784 4.80811 4.49612 7.19026 6.69933-12.06284-10.73972-24.958045-20.727475-35.073831-33.529221-11.728808-14.553979-26.570239-26.011545-39.399146-39.511802-12.266451-12.098237-23.103539-25.537118-35.2748506-37.7170782zm-2.4840862 5.4968222c.017487.396923.091479.784218.2459799 1.150834l3.9263749 3.926892c1.667954 1.667942 3.335913 3.335851 5.00383 5.00383-3.101335-3.321885-6.1888116-6.656188-9.1761848-10.081556zm7.4429568.219625c3.29295 3.537018 6.446643 7.206347 9.387541 11.076843 3.828919 4.810329 8.052308 9.247754 12.416813 13.553695-3.75085-3.511182-7.549863-6.965468-11.44943-10.284127-2.894211-5.235744-6.438078-9.946393-10.354924-14.346411zm-1.329635.606164c.955746 1.018712 1.902972 2.046316 2.833419 3.090768.402764.628845.806994 1.265868 1.207678 1.900659-1.284424-1.714343-2.633229-3.377559-4.041097-4.991427zm9.034591 12.37754c.448173.581875.905747 1.155118 1.382862 1.71049-.246689-.230757-.500888-.454721-.746725-.686263-.206793-.345254-.42562-.681683-.636137-1.024227zm7.640878.705383-.260966.441317c5.236004 5.236015 10.471554 10.472081 15.707568 15.708085 4.491986 4.035836 8.62052 9.532985 13.339755 12.655042-8.674261-10.1067-18.39829-19.23352-28.18536-28.242721zm2.546614 3.539836c-2.546717.26792 3.586163 3.038402 2.648934 3.762561 10.72634 12.075168 22.103982 23.580724 34.438209 34.020663-2.258668-3.799956-6.893651-7.282747-10.220048-10.813293-9.401701-8.538492-17.717514-18.17012-26.867095-26.969931zm-3.568774 2.278414c.305425.21227.613033.422314.931726.621667 2.792155 2.539753 5.537997 5.127936 8.266679 7.733895-3.050455-2.805041-6.131282-5.575494-9.198405-8.355562zm4.318083 5.479252c.1502.0096 1.331078.985685 4.23385 3.586345 3.201078 3.120946 6.432654 6.220557 9.657292 9.328113-2.262237-1.974773-4.601314-3.859293-7.038847-5.625497-.068-.10238-.194306-.259699-.237195-.338481-2.287413-2.316645-6.945542-6.971648-6.6151-6.95048zm13.058118 9.175151c4.320565 4.122974 8.613916 8.274451 12.62817 12.696383 1.191169 1.211342 2.400223 2.406056 3.616317 3.594613-3.444672-3.276569-6.862727-6.578231-10.06812-10.073804-2.04247-2.084254-4.103067-4.156634-6.176367-6.217192zm3.096968 4.717542c4.32635 4.312616 8.621599 8.657077 12.919109 12.99869-4.262118-4.107291-8.531658-8.20978-12.511898-12.575461-.133686-.143178-.272972-.280618-.407211-.423229zm12.968718 1.354956c.964208.777035 1.934726 1.546603 2.913001 2.307352.787878.76139 1.590874 1.505865 2.389518 2.25516-1.756264-1.534426-3.524287-3.054755-5.302519-4.562512zm11.040153 22.751583c.965367.956312 1.926539 1.917103 2.896464 2.868559.355439.558023.727462 1.101319 1.10846 1.636592-1.294229-1.537849-2.636473-3.033112-4.004924-4.505151zm3.637505 1.873787c2.408625 2.594969 4.722119 5.275459 6.849711 8.123536-.29874-.279526-.588384-.567234-.891419-.842843-1.85317-2.545905-3.860377-4.954053-5.958292-7.280693zm3.525366 6.598048c.442434.504717.905732.991361 1.361674 1.484147-.289553-.274199-.567151-.55896-.86093-.829407-.163528-.221233-.335222-.43528-.500744-.65474zm32.216122 16.894578c.58503.72447 1.22751 1.3752 1.9389 1.9389-.6463-.6463-1.2926-1.29261-1.9389-1.9389zm-2.9254 15.03526c2.27624 2.27542 4.55111 4.55219 6.82749 6.82749.65783.51413 1.31624 1.02719 1.97662 1.5384.75798.2163 1.51666.19611 2.24999.0243-3.73384-2.74039-7.51522-5.42535-11.0541-8.39018zm7.24038 7.24038c.28378.28364.56734.56748.85111.85111.17965.089.36018.15843.54054.21859-.46452-.35576-.93086-.70957-1.39165-1.0697z" fill="#67563d" opacity=".5"/><path d="m14.658537 6.1107383c8.165693 10.0514307 17.143618 19.4244837 26.537399 28.3538257 3.097866 2.672052 6.237162 5.304699 9.383407 7.931816-11.211748-9.591002-21.782828-19.907-31.385682-31.148487-.889009-1.3075356-1.81719-2.5802464-2.761589-3.838526l-1.141532-1.1410156c-.199151-.0793887-.411702-.1283657-.632003-.1576131zm35.920806 36.2856417c1.706697 1.459981 3.430928 2.899772 5.16661 4.326351l-.05219-.05219c-1.706743-1.423469-3.409249-2.850342-5.11442-4.274161zm-38.373886-35.9316582c-.184934.063004-.365158.1364249-.54622.2087728 12.724732 13.3332684 26.099382 26.0312774 39.423951 38.7686944 8.433493 6.76315 16.484109 13.973328 24.550957 21.168734-.612882-.61288-1.225766-1.225767-1.838648-1.838648-3.26889-2.897532-6.510965-5.824435-9.653157-8.863025-15.842814-12.228058-29.450593-26.988255-43.907399-40.767021-2.632454-2.935787-5.319948-5.8175681-8.029484-8.6775072zm-1.433504.5953126c-.03704.017698-.07715.034425-.113689.052193 1.989077 2.0389092 3.971216 4.0845836 5.947441 6.1355436 23.925336 25.545844 49.275776 49.726244 72.902012 75.546811 3.389457 4.004649 6.97176 7.800607 10.735783 11.449948-8.433728-9.630771-16.873736-19.266437-25.870777-28.380698-21.570551-21.232735-42.38556-43.21998-63.60077-64.8037976zm-1.2143966.6294189c-.0358638.0199579-.0755666.0416165-.1100708.0609782 4.7279104 5.1665935 9.3209154 10.4654345 13.9774414 15.6750125-4.651755-5.205815-9.192099-10.536805-13.8673706-15.7359907zm-1.3466879 1.2950114c-.027746.034319-.05582.073232-.083716.1085206 15.2653375 15.2315667 28.4278085 32.4394187 44.4277805 46.9847297 10.492139 10.37758 21.899183 19.816342 31.027564 31.526759 11.420868 14.039756 25.921653 24.897516 39.215183 37.026166.0938-.0706.18819-.13944.28008-.21394-13.60459-12.76395-28.895076-23.7537-40.505537-38.54442-12.151308-15.003652-27.546976-26.780724-40.722063-40.81043-11.578272-11.68699-22.035291-24.423259-33.6392915-36.0773853zm-.1917195.2485637c-.0919769.1198058-.1832062.244094-.2749187.3731038 3.4409847 3.4702148 6.7392397 7.0805728 9.8050867 10.9197468 2.577597 6.264154 7.600846 10.395001 12.600781 14.550017 7.391432 6.744166 14.531725 13.753138 21.598683 20.836972-1.052798-1.0878-2.103864-2.177243-3.121257-3.297474-8.186432-8.439331-16.910109-16.412957-25.66045-24.19749-3.965661-7.224699-9.185736-13.43578-14.947925-19.1848756zm43.729632 46.6798396c1.271287 1.313553 2.561088 2.609961 3.867981 3.890718-1.287513-1.298869-2.576357-2.59601-3.867981-3.890718zm3.867981 3.890718c6.798891 6.85886 13.5593 13.756849 20.425627 20.537249 5.069205 7.88005 12.822711 13.376903 18.285706 20.944455 6.477275 7.5147 12.481075 15.77629 21.591445 20.32279 1.73778 1.31889 3.44429 2.67372 5.12941 4.05247.21162-.0961.4184-.1998.62166-.31213-7.34964-6.37201-16.79524-10.17487-22.133531-18.75286-6.014724-7.04122-11.842535-14.216477-18.635038-20.524326-7.304088-9.760447-16.586921-17.743241-25.285279-26.267648zm-48.3060969-49.547364c-.08468.136697-.165898.277194-.2459799.419612 4.8214038 4.899048 9.2605358 10.137433 12.6043988 16.20728 6.472954 7.815232-5.481807-5.178976-8.152474-8.676473-1.461685-2.361079-3.1342585-4.512433-4.9449179-6.5257-.155985.371613-.2819388.750153-.3710368 1.130164 7.8295487 9.244736 15.7330147 18.442782 24.7054697 26.654187 4.512321 4.350862 8.849081 8.867378 13.092224 13.471013.934927.935076 1.87007 1.869921 2.804997 2.804997-7.364155-8.148404-14.890042-16.148237-22.763469-23.824386 16.270494 12.951557 30.437177 28.266785 45.230832 42.844931 6.997643 9.139901 15.313817 17.104533 22.82083 25.788093.448688.62339.908377 1.23773 1.370976 1.85001 1.018356 1.01822 2.036217 2.03692 3.054594 3.05511-2.97734-3.58815-5.90138-7.224529-9.010303-10.688749-10.09471-10.233349-18.531433-21.967576-29.232842-31.637346-11.151639-10.966739-21.911497-22.37768-34.311085-31.959291-5.743904-6.128663-8.984289-14.205557-15.5153324-19.690271-.371603-.415952-.7576446-.815769-1.1368815-1.223181zm12.7754479.806669c.919816 1.143687 1.865577 2.266721 2.851506 3.358451 3.879614 4.687899 8.395985 8.665444 13.025561 12.518616-1.236087-1.236108-2.472214-2.472191-3.7083-3.708301-3.568885-3.173595-6.99571-6.497985-10.123414-10.123413-.681774-.681791-1.363579-1.363561-2.045353-2.045353zm8.524028 17.547766c9.5875 9.245481 19.150867 18.514482 28.246338 28.245822-6.936513-8.052272-14.503926-15.531349-22.319568-22.724711-1.977648-1.837819-3.955552-3.676232-5.92677-5.521111zm3.153812 3.312977c.322131.499524 7.572509 8.504747 7.896159 8.810832 9.037421 9.92957 18.684945 19.28008 28.909864 27.980721-12.437777-11.373638-24.660824-23.02147-35.751823-35.751307-.833863-.870976-1.128537-1.155521-1.0542-1.040246zm10.268108 17.537431c3.209271 3.820138 6.493648 7.573901 9.799919 11.308354.735903.736018 1.471712 1.472118 2.207617 2.208134-3.59976-4.142152-7.170156-8.311054-10.806576-12.420431 11.162507 9.568022 20.802844 20.607123 30.222962 31.836817.120661.120669.241591.241067.362252.361735-1.23397-1.535475-2.466463-3.072441-3.676261-4.627624-8.832612-10.03274-17.818303-20.112894-28.109913-28.666985zm16.843933 3.092318c-.182359.09715 4.295404 4.658358 7.480681 7.775753 12.794917 11.488908 21.881244 26.315411 34.731215 37.748084 7.36683 8.68886 15.07546 17.13574 23.26215 25.10596.16765-.19462.32397-.39803.47439-.60461-5.07581-4.79571-10.08284-9.66127-14.81357-14.80427-5.48941-7.49922-12.18049-13.898957-18.723923-20.487119-9.045151-10.895529-18.285343-21.636798-28.760003-31.224968 6.54026 5.766857 13.212315 11.398352 19.742465 17.183964-.715202-.715198-1.430403-1.430407-2.145605-2.145606-5.411276-4.746287-10.875813-9.433085-16.269809-14.176396-3.508374-3.247657-4.882469-4.421678-4.977991-4.370792zm17.624248 24.099821c-.09912-.05711.187776.298746 1.042314 1.253154 10.196239 13.024536 21.731099 24.869302 34.722424 35.116722 4.09418 3.80748 13.17284 12.43955 4.91443 4.30206-10.3483-11.07736-23.256448-19.492337-32.396469-31.756717-.172859-.66454-7.853173-8.667757-8.282699-8.915219zm13.029696 5.893697c-1.372369 1.839769 8.427547 9.322014 10.940422 12.755295 6.7629 8.967654 14.93938 16.623064 22.91901 24.527184.67879.60674 1.34319 1.2283 2.01745 1.83968.0437-.0794.0828-.16033.12351-.24081-3.77398-3.53528-7.54066-7.07482-11.24325-10.6717-8.38603-8.71678-15.643191-18.38935-24.474472-26.762708.235065-2.336039 8.304377 7.151212 13.220902 11.751737-4.292142-4.582874-8.690728-9.076501-13.503572-13.198678zm13.503572 13.198678c1.10816 1.18323 2.20996 2.37112 3.30781 3.562574-.31446-.5037-.62798-1.008272-.91003-1.546159-.62512-.403613-1.47404-1.152042-2.39778-2.016415zm3.30781 3.562574c3.92072 6.280337 10.23431 10.043177 16.25017 14.260107-.48456-.48454-.96911-.96911-1.45366-1.45365-2.40144-1.80616-4.90823-3.48317-7.54838-4.99195-2.43615-2.58285-4.8393-5.20029-7.24813-7.814507zm-.0357-2.025716c1.25619 1.665547 2.49661 3.344243 3.74809 5.022433-.44313-.64998-.79144-1.41481-1.03456-2.308904-.90452-.904501-1.80902-1.809028-2.71353-2.713529zm3.74809 5.022433c.0556.0815.11631.15693.17467.23513-.0585-.0783-.11628-.15683-.17467-.23513zm.17467.23513c.60506.80902 1.21941 1.61304 1.84485 2.4107.99704.42309 2.02089.80294 3.05976 1.1591-.20137-.20136-.40273-.40273-.6041-.60409-1.71389-.66521-3.23612-1.53955-4.30051-2.96571zm1.84485 2.4107c-.19342-.0821-.39457-.15156-.5855-.23771-.33153-.13529.0293.0504.70745.39636-.0413-.0525-.0808-.1061-.12195-.15865zm.12195.15865c.0688.0873.13449.17641.20361.26355 1.74769 1.06261 3.49484 2.13735 5.23017 3.23288-.45682-.45682-.91364-.91365-1.37046-1.37046-1.73949-.93952-3.20177-1.68641-4.06332-2.12597zm-5.23327-4.44986c1.13353 2.19984 2.64138 4.00804 4.35477 5.60844-1.62678-1.72186-3.11836-3.55509-4.35477-5.60844zm4.35477 5.60844c.22155.2345.44214.46985.6687.70022.15791.10617.35202.24108.52399.35812-.40744-.34303-.80463-.69587-1.19269-1.05834zm1.19269 1.05834c-.16804-.1148-.33668-.22877-.50694-.34107 3.97388 4.03704 8.66959 7.48515 12.65969 11.64374-2.81774-3.07275-5.64546-6.12007-8.81651-8.77569-1.14458-.81169-2.27578-1.63465-3.33572-2.52698zm3.33624 2.52698c1.20754.85633 2.4303 1.70112 3.65507 2.55178-2.25419-1.74664-4.54158-3.39317-6.35414-4.64365.93014.66287 1.82785 1.36227 2.69907 2.09187zm-2.69907-2.09187c-.20766-.14799-.422-.28832-.63303-.43253.20787.14148.40696.27656.63303.43253zm6.35414 4.64365c2.65793 2.05947 5.18331 4.19347 6.49263 5.77071.0772.0769.15231.15655.22944.23357-.012-.19358-.0371-.38672-.0734-.57929-1.99072-2.0792-4.29532-3.79047-6.64869-5.42499zm5.16144 6.22391c.45874.50025.91747 1.00015 1.37718 1.50016-.44767-.51152-.90746-1.0106-1.37718-1.50016zm-12.65965-11.64374c-.006-.006-.0114-.0113-.017-.0171-1.38039-.92801-2.24486-1.46224-2.02004-1.2423.69977.39634 1.3739.82193 2.03709 1.25935zm.20205 14.15676c.83045.8301 1.66035 1.66073 2.49081 2.49081 1.12806.8737 2.27869 1.71662 3.4339 2.55333.28209.0391.56315.0485.84232.032-2.26695-1.6791-4.52562-3.36772-6.76703-5.07618z" fill="#715424" opacity=".5"/></g><path d="m8.5219 8.5303194c.49027-.489479 1.03241-.926042 1.60496-1.293813l1.50892 2.726267-.63923-3.215217c1.39038-.677333 2.89454-.91731 4.26058-.461962l.20903.209021c-.18415 2.045229-1.30784 4.2571446-3.0152 5.9647656-1.70735 1.707621-3.91953 2.831042-5.96503 3.015192l-.20902-.209021c-.74798-2.244725.37439-4.8641 2.24526-6.7349686zm42.843717 51.8239386-42.570077-42.636889c.49662-.191558.98213-.41222 1.45521-.658283l1.88364.694875.20657-2.004298c.65881-.488685 1.2819-1.027642 1.86055-1.60655 1.5367-1.536435 2.794-3.380581 3.57452-5.4062306l42.56981 42.6374166 24.669486 24.669751 40.998774 40.99798c.89826 2.69479-.89958 5.92667-3.45122 7.75865l-16.14117-16.14117 14.05995 17.2421c-1.15093.40269-2.3442.48868-3.44752.12091l-41.034227-41.02206z" fill="url(#b)" opacity=".339286" stroke-width=".264583"/></g><path d="m119.58719 35.703939c.2746-1.949108.89815-5.836366.89815-5.836366l-18.05913-18.060876s-3.889166.622557-5.839157.897103c-2.994158.421558-5.975228 1.064494-8.997659 1.151673-2.890421.08337-5.817321-.04178-8.653847-.603567-2.450109-.485254-7.109375-2.36714-7.109375-2.36714s-.937366 4.905866-1.46875 7.345703c-1.232986 5.661224-2.296593 11.376637-3.988853 16.917933-1.491208 4.88295-3.43621 9.621011-5.413491 14.32816-.381853.909045-1.244141 2.683594-1.244141 2.683594l20.419922 20.419922s1.774549-.86229 2.683594-1.244141c4.707145-1.977271 9.445213-3.922234 14.328156-5.413438 5.541301-1.692262 11.256521-2.756777 16.917941-3.988905 2.44042-.531122 7.34765-1.466797 7.34765-1.466797s-1.88173-4.659978-2.36718-7.110375c-.56199-2.83675-.68797-5.763845-.60491-8.654535.0868-3.022511.72925-6.003758 1.15108-8.997948z" fill="#4a4c4f"/><path d="m131.22656 1.0644531s-6.78184 3.2690584-10.27343 4.6679688c-5.15568 2.0656301-10.355 4.098654-15.73243 5.4882811-2.82716.73059-8.633647 1.483097-8.633647 1.483097l23.000137 23.000139s.7543-5.806405 1.48508-8.633627c1.38988-5.377143 3.42106-10.576831 5.48632-15.732421 1.39872-3.4916691 4.66797-10.2734379 4.66797-10.2734379z" fill="#4a4c4f"/><path d="m99.929303 16.046049c-8.489945 3.040059-15.884334 3.370839-22.332487 1.221631l-2.559534-.852144-.52865 2.6448c-2.676787 13.383141-4.997437 22.034341-9.713102 32.198035l16.237769 16.237252c10.163428-4.715664 18.814623-7.035799 32.198031-9.712585l2.64532-.52865-.85266-2.559534c-2.14947-6.447889-1.81844-13.842545 1.22163-22.332487zm.535367 4.801775c-3.663681 3.091653-7.897247 5.278747-14.641999 5.278747h-1.470712l-.658357 1.315682c-4.965693 9.931391-10.01055 19.819027-14.682826 26.000481 4.616976-9.945678 7.11079-18.797571 9.630937-30.979505 6.668821 1.603373 13.973579 1.016138 21.822957-1.615405zm2.08928 4.307747-28.536761 29.57494c4.594216-6.443656 8.925815-15.1348 13.302548-23.896733 6.58776-.315593 11.343628-2.678581 15.234213-5.678207zm4.58318 4.580082c-3.00037 3.891224-5.36359 8.647368-5.67924 15.23628-8.761928 4.376733-17.453595 8.708327-23.897248 13.302548zm4.3062 2.091346c-2.63128 7.849386-3.21877 15.153624-1.61541 21.822441-12.18193 2.520153-21.034349 5.013962-30.979501 9.630937 6.181458-4.672008 16.069085-9.716614 26.000481-14.682309l1.3162-.658357v-1.471228c0-6.744564 2.18671-10.977872 5.27823-14.641484z" fill="url(#e)" stroke-width="8.46667"/><path d="m122.70498 9.5866943c-6.51404 2.9596287-12.05071 4.9233667-16.70579 5.7943747l10.91141 10.911417c.87101-4.655079 2.83475-10.19175 5.79438-16.7057917z" fill="url(#d)" stroke-width="8.46667"/><path d="m61.367348 48.578288s-2.161461 1.854474-2.99414 2.99414c-.928474 1.270778-1.878641 2.647981-2.165969 4.19536-.437496 2.356095-1.140738 5.219612.784866 7.146136s6.193454 6.192534 6.193454 6.192534 4.939295 4.938602 6.528874 6.528527 4.582911.912731 6.809974.448608c1.540527-.321048 2.924002-1.23775 4.19456-2.166177 1.139471-.832639 2.993754-2.993755 2.993754-2.993755l-2.679422-3.428038-16.237769-16.237252zm-19.341201 23.314527-9.355469 9.355469 18.709091 18.707661 9.355469-9.353519zm-30.308557 30.308885 18.711102 18.71136 9.355469-9.35546-18.711102-18.711375z" fill="#4a4c4f"/><path d="m61.324361 54.52282-1.338218 5.397009 12.721664 12.721664 5.396978-1.338259-2.02936-2.029355-12.721704-12.721704zm-19.298345 23.357508-3.36762 3.36762 12.721838 12.722358 3.36814-3.36762zm-20.953383 20.953691-3.36735 3.367621 12.723854 12.72412 3.36762-3.36762z" fill="url(#c)" stroke-width="8.46667"/></g></svg>