<svg height="500" viewBox="0 0 132.29167 132.29167" width="500" xmlns="http://www.w3.org/2000/svg" xmlns:xlink="http://www.w3.org/1999/xlink"><linearGradient id="a" gradientUnits="userSpaceOnUse" spreadMethod="reflect" x1="49.76631" x2="123.91756" y1="11.69916" y2="90.19584"><stop offset="0" stop-color="#7e635d"/><stop offset=".09387415" stop-color="#979491"/><stop offset=".15581046" stop-color="#bbc5c7"/><stop offset=".32185635" stop-color="#dff5fd"/><stop offset=".46681547" stop-color="#dce7e9"/><stop offset=".55150062" stop-color="#dad9d6"/><stop offset=".668539" stop-color="#fff"/><stop offset=".82537693" stop-color="#b3aba5"/><stop offset=".95369864" stop-color="#857060"/><stop offset="1" stop-color="#7e635d"/></linearGradient><g><path d="m114.93804 13.450743-34.132808 17.917969 2.960937 2.960938-18.728515 9.83789 4.199218 4.199219-5.341796 4.072266-10.15625-10.15625c16.807769-15.940872 34.901864-26.293342 47.715014-28.791023l10.67383-2.080078-9.27149-5.6835936c-7.032488-4.3104078-15.588834-6.21360535-24.560544-5.62304635-5.071027.3753988-8.803664 1.35813495-13.640625 2.55859365l1.400391 3.8398437c-6.320107 1.120825-12.669148 3.349254-18.767578 6.7187496l-4.13086 2.28125 3.650391 5.189453c-8.318466 5.208253-16.533792 11.637305-24.234375 19.337891l-4.064453 4.064453 5.08789 2.675781c10.731212 5.642267 20.25853 12.231432 28.789063 19.619141l-96.576522 96.89488v13.81446h4.232422 9.228515l96.742538-97.181997c7.791581 8.865432 14.499246 18.613687 20.0625 29.322267l2.664063 5.12695 4.085937-4.08594c7.736847-7.73663 14.193717-15.99165 19.416017-24.351558l4.52344 3.177734 2.28125-4.126953c3.3671-6.093521 5.59507-12.43794 6.71679-18.753906l3.86328 1.414063 1.13477-4.578125c2.91475-11.75588 1.64748-23.426908-3.625-32.666016l-5.59375-9.802734-2.23242 11.064453c-2.58258 12.802183-12.90934 30.761933-28.744143 47.457031l-10.15625-10.154297 4.078125-5.349609 4.341797 4.341797 9.830078-18.730469 2.828123 2.828125 18.01758-34.324219 4.94481-9.2683716z" fill="#60696c"/><path d="m-39.958358 172.86578h7.50808l98.714393-99.101343c9.333072 9.982914 17.15786 21.185983 23.567232 33.523233 8.694899-8.69466 15.816263-18.045109 21.178123-27.398657l4.33102 3.043238c4.06717-7.360445 6.37699-15.059026 6.92039-22.495681l4.39055 1.607344c2.68771-10.840162 1.45899-21.398632-3.19255-29.549645-3.0218 14.979493-14.84114 34.725065-32.808859 52.693022l-15.850553-15.85055 9.25711-12.144386 3.698081 3.698082 9.830277-18.729725 2.827734 2.82774 13.80411-26.298053c-.009-.008-.0138-.0209-.0226-.0298-.009-.008-.021-.0135-.0298-.0222l-26.298052 13.8041 2.961798 2.96133-18.72996 9.837653 3.556635 3.55688-12.137229 9.249735-15.849601-15.850315c18.081784-18.081783 37.961889-29.934693 52.975199-32.8612526-8.259609-5.06254-19.177402-6.4793798-30.398091-3.69808l1.592342 4.3681596c-7.438549.54293-15.139512 2.85203-22.502813 6.92039l3.512343 4.99348c-9.313058 5.35377-18.622799 12.44608-27.280309 21.103593 12.46013 6.5513 23.462461 14.303221 33.084617 23.180055l-98.609857 98.870203v7.79145z" fill="url(#a)" stroke-width="8.46667"/></g></svg>