<svg height="500" viewBox="0 0 132.29167 132.29167" width="500" xmlns="http://www.w3.org/2000/svg" xmlns:xlink="http://www.w3.org/1999/xlink"><linearGradient id="a" gradientUnits="userSpaceOnUse" x1="659.91797" x2="673.27411" y1="223.47379" y2="221.05873"><stop offset="0" stop-color="#63452c"/><stop offset="1" stop-color="#63452c" stop-opacity="0"/></linearGradient><g transform="matrix(.7944526 .60732616 -.60732616 .7944526 -342.394582 -479.677524)"><path d="m2388.6244 521.56001c-11.8927 1.1458-25.7678-1.52538-37.7638 4.73654-20.6488 10.77857-14.1681 43.18151-27.9403 68.59465-7.5078 13.85381-12.273 23.67196-16.9679 37.99184-7.2059 21.97881-12.0669 52.08311-9.0496 75.73908 5.4762 42.93398 2.1168 55.13016 25.6406 67.96092 24.9156 13.58993 76.6344 36.08355 104.8882 48.17282 24.5139 10.48898 39.8933 15.73778 45.0372 17.53906l76.8007 142.41211 90.8633-68.95312 88.4649-67.13868-10.8809-14.33593s-24.1146-31.77821-36.1719-47.66602c-10.7536-14.16998-27.9841-36.88026-32.2578-42.51172.2483-3.94802.5612-7.50602.707-16.79297.2075-13.20177.1826-28.50971-2.8925-41.83398-4.9158-21.30077-16.6228-35.42888-21.209-47.1543-4.5554-11.64661-18.5593-40.58576-32.5696-57.63445-17.0707-20.7728-37.5252-42.47782-61.202-52.54119-29.6595-10.93851-43.7829-6.17783-72.2687-6.93899-14.5457-.41955-66.1256-.13728-71.2279.35433z" fill="#63452c" stroke-width="3.77953" transform="scale(.26458334)"/><path d="m695.65672 238.49849 19.61159-14.88304s-6.38033-8.40732-9.57049-12.61098c-3.19017-4.20366-9.5705-12.61098-9.5705-12.61098s.80812-10.77282-.38831-15.9572c-.97379-4.21964-3.8299-7.77983-5.40736-11.81285-1.64029-4.19365-1.7309-9.07495-4.20334-12.83849-3.04478-4.63476-7.35183-8.85935-12.45539-11.02853-5.87411-2.49669-12.72422-1.02452-19.0882-1.51272-6.14821-.47165-12.31028-1.95984-18.44813-1.36846-2.72865.2629-5.50417.89451-7.93429 2.16303-5.23547 2.7329-10.78236 6.16767-13.59629 11.36003-4.37953 8.08129-5.47182 18.46018-3.25986 27.38177 1.72302 6.94951 6.78114 13.00331 12.20912 17.67252 9.55806 8.22195 33.98281 16.60668 33.98281 16.60668l18.50705 34.32225z" fill="#b5835a" stroke-width="9.525"/><path d="m678.48047 135.50195c-4.38909.16255-7.25828 2.93941-9.00586 6.20117-2.98606 5.57326-2.38603 11.55419-2.38672 16.08204-.00066 4.44561-.83553 10.58499 2.4707 16.23632 2.08027 3.55582 5.61588 5.56836 9.45899 5.56836 3.8364 0 7.38565-2.00484 9.46484-5.57812 3.30431-5.6787 2.40755-11.81942 2.4082-16.22656.00068-4.43373.82046-10.51842-2.37304-16.17383-2.04035-3.61329-5.50952-6.27706-10.03711-6.10938zm.35351 9.51758c-.29016.0108.89287.39736 1.38868 1.27539 1.03743 1.83721 1.14332 6.57319 1.14257 11.49024-.00074 4.9442-.10692 9.70464-1.11523 11.4375-.30868.53049-1.15289.84179-1.23242.84179-.0728 0-.92255-.31188-1.23828-.85156-1.02493-1.7519-1.16675-6.51362-1.16602-11.42773.00073-4.83255.15159-9.51931 1.25781-11.58399.45418-.84769 1.54468-1.20318.96289-1.18164zm-19.20312-11.64648c-4.51474.16948-7.46705 3.07238-9.25586 6.45703-3.06745 5.80393-2.46217 12.09936-2.46289 16.92187-.00072 4.74142-.84821 11.20184 2.54297 17.07813 2.12303 3.67882 5.76723 5.79297 9.73047 5.79297 3.95641 0 7.61469-2.10635 9.73632-5.80274 3.3886-5.90368 2.47977-12.36328 2.48047-17.0664.00071-4.72929.83122-11.13335-2.44531-17.01563-2.08792-3.74842-5.66364-6.5403-10.32617-6.36523zm.35742 9.51953c-.22129.008 1.07823.45677 1.64844 1.48047 1.15791 2.07877 1.24101 7.17286 1.24023 12.3789-.00078 5.23291-.0834 10.35492-1.21484 12.32617-.3811.66397-1.3287 1.01954-1.47656 1.01954-.14106 0-1.09225-.35659-1.48047-1.0293-1.1483-1.98978-1.27032-7.11094-1.26953-12.31445.00076-5.12308.13771-10.16114 1.35937-12.47266.51885-.98172 1.71767-1.40835 1.19336-1.38867zm-38.15625-8.40235c-4.42532.15542-7.50433 2.87577-9.39258 6.21875-3.22885 5.71634-2.59496 11.92958-2.5957 16.58985-.00073 4.5736-.88364 10.96623 2.68359 16.75 2.24118 3.63367 5.94694 5.56836 9.86133 5.56836 3.908 0 7.62889-1.92617 9.86914-5.57813 3.56541-5.81218 2.61451-12.20516 2.61524-16.73828.00073-4.56114.87044-10.89265-2.57813-16.68555-2.20181-3.69862-5.87667-6.28614-10.46289-6.125zm.33399 9.51954c.0153-.00054 1.39109.55082 1.94335 1.47851 1.14595 1.92495 1.24105 6.73987 1.24024 11.81055-.00082 5.09933-.0931 9.93757-1.21094 11.75976-.35282.57516-1.40556 1.03321-1.75 1.03321-.33806 0-1.39316-.46004-1.7539-1.04493-1.13539-1.84297-1.26644-6.67975-1.26563-11.74609.0008-4.9815.1482-9.75507 1.36328-11.90625.50271-.89001 1.72444-1.39498 1.4336-1.38476zm18.74609-11.90235c-4.24583.14912-7.13743 2.72949-8.92188 5.88867-3.0359 5.37477-2.42315 11.11186-2.42382 15.35352-.00067 4.15503-.85133 10.05904 2.51171 15.51172 2.12822 3.45055 5.62767 5.28125 9.35743 5.28125 3.72338 0 7.2356-1.82256 9.36328-5.29102 3.3621-5.48072 2.45052-11.38508 2.45117-15.5.00066-4.14297.83502-9.99139-2.41406-15.44922-2.08225-3.49775-5.53742-5.94902-9.92383-5.79492zm.33398 9.51953c-.18441.006.97355.42158 1.40625 1.14844.94648 1.58989 1.07301 5.92172 1.07227 10.57422-.00075 4.68112-.1285 9.03076-1.04297 10.52148-.24022.39161-1.08628.7461-1.24609.7461-.15344 0-1.00224-.35416-1.25-.75586-.9319-1.51093-1.0945-5.86087-1.09375-10.50977.00072-4.56289.16925-8.86029 1.1914-10.66992.39891-.70623 1.43325-1.07121.96289-1.05469z" fill="#63452c"/><path d="m684.36594 171.61708c2.15631-3.70578 1.76167-9.15645 1.76237-13.83213.00071-4.67539.35739-10.08583-1.75808-13.83214-1.26808-2.24566-3.59412-3.7703-5.71284-3.69183-1.90365.0705-3.88359 1.6371-4.98447 3.69183-2.04614 3.81897-1.82237 9.15194-1.82308 13.83214-.0007 4.67987-.34679 10.13051 1.81879 13.83213 1.198 2.04775 3.39068 3.21029 5.34865 3.21029s4.15472-1.1584 5.34866-3.21029zm-18.57388-.16771c2.26003-3.93747 1.84641-9.7289 1.84715-14.69692.00074-4.96767.37457-10.71638-1.84265-14.69691-1.32907-2.38606-3.76699-4.00603-5.98761-3.92265-1.99522.0749-4.07039 1.73946-5.22422 3.92265-2.14456 4.05773-1.91002 9.72411-1.91076 14.69691-.00075 4.97247-.36348 10.76388 1.90626 14.69692 1.25563 2.17577 3.55377 3.411 5.60592 3.411 2.05214 0 4.35454-1.23082 5.60591-3.411zm-37.59442.0986c2.34161-3.81719 1.91305-9.43169 1.91382-14.24792.00077-4.81591.3881-10.38898-1.90916-14.24791-1.37704-2.31316-3.90297-3.88364-6.20375-3.8028-2.06724.0726-4.21731 1.6863-5.41279 3.8028-2.22197 3.93376-1.97897 9.42702-1.97974 14.24791-.00077 4.82055-.3766 10.43502 1.97507 14.24792 1.30096 2.10928 3.68205 3.30678 5.80828 3.30678 2.12622 0 4.51173-1.19322 5.80827-3.30678zm18.54257-5.18723c2.13829-3.48573 1.74695-8.61273 1.74765-13.01075.0007-4.39774.35439-9.4869-1.74339-13.01076-1.25748-2.11231-3.56407-3.54641-5.66507-3.4726-1.88774.0663-3.85112 1.53989-4.9428 3.4726-2.02903 3.5922-1.80713 8.60848-1.80783 13.01076-.00071 4.40197-.3439 9.52894 1.80357 13.01075 1.18799 1.92613 3.36234 3.01964 5.30394 3.01964s4.11998-1.08961 5.30393-3.01964z" fill="#b5835a" stroke-width="9.52499"/><path d="m624.7207 156.26172c-6.03672 1.70215-12.24985 1.17315-17.4414 7.06055-4.25679 4.82736-3.67407 9.47957-3.91407 14.4707-.46004 9.56726-2.36673 19.65349 4.80664 28.33008 3.61694 4.37488 8.49876 5.25838 13.16407 6.94726 3.7754 1.36672 7.91472 1.42465 11.7832 2.5 7.15538 1.98904 13.80706 5.66609 21.05469 7.28711 1.87942.42035 3.82177.72427 5.7446.61634 5.96989-.33512 15.1763-2.60715 17.5093-3.89763 4.41568-2.44249 6.9559-6.57829 7.1875-10.36328.46321-7.56998-2.54841-8.89666-5.1748-12.60059-1.48439-2.0934-3.75615-3.50418-5.75293-5.11621-3.38086-2.72941-6.6685-5.68671-10.52148-7.69531-5.73238-2.98835-11.47727-5.67456-18.34961-6.27734 1.55293-1.41433 2.91499-3.00875 4.03711-4.73047 1.16277-1.7841 3.41624-4.70396 2.56054-9.08399-.78011-3.99303-3.41676-6.55467-6.65234-7.94921-1.85799-.80081-4.83384-1.54908-7.33717-1.6135-4.29151-.11043-8.57203.95046-12.70385 2.11549z" fill="url(#a)" stroke-width="1.00013"/><path d="m643.35807 182.11426c-3.85377-.17475-7.55417 3.7336-11.26162 2.66734-2.63586-.75807-5.7758-5.86019-5.7758-5.86019s7.95055-.46975 11.41237-2.21045c2.87694-1.4466 5.3725-3.8197 7.13075-6.51749 1.06991-1.64162 2.25215-3.64783 1.87644-5.57097-.37858-1.93778-2.05121-3.70755-3.86438-4.48903-5.27071-2.27171-11.57721-.35717-17.19995.79426-5.16868 1.05844-11.33582 1.58639-14.82528 5.54356-2.61081 2.96076-2.55894 7.5802-2.72719 11.52406-.3604 8.44814-1.66963 18.5765 3.7183 25.09349 5.14068 6.21793 15.23212 5.32348 22.84818 7.98522s22.84819 7.98521 22.84819 7.98521c34.82102-1.58512 18.52998-19.08753 18.52998-19.08753s-9.50066-8.91612-15.16766-11.98186c-5.42391-2.93423-11.38194-5.59627-17.54233-5.87562z" fill="#b5835a" stroke-width="9.525"/></g></svg>