<svg height="500" viewBox="0 0 132.29167 132.29167" width="500" xmlns="http://www.w3.org/2000/svg" xmlns:xlink="http://www.w3.org/1999/xlink"><linearGradient id="a" gradientUnits="userSpaceOnUse" x1="-437.62766" x2="-437.62766" xlink:href="#b" y1="41.709736" y2="89.678802"/><linearGradient id="b"><stop offset="0" stop-color="#a77858"/><stop offset="1" stop-color="#866046"/></linearGradient><linearGradient id="c" gradientUnits="userSpaceOnUse" x1="-437.6279" x2="-437.6279" xlink:href="#b" y1=".324696" y2="36.544106"/><linearGradient id="d" gradientUnits="userSpaceOnUse" x1="-156.675523" x2="-133.389568" y1="206.553177" y2="237.229118"><stop offset="0" stop-color="#d3b879"/><stop offset=".28553611" stop-color="#bda46a"/><stop offset=".70769507" stop-color="#9c8653"/><stop offset=".790259" stop-color="#b69a5a"/><stop offset="1" stop-color="#bda46a"/></linearGradient><linearGradient id="e" gradientUnits="userSpaceOnUse" x1="-148.38899" x2="-132.37186" y1="214.28601" y2="243.01697"><stop offset="0" stop-color="#d3b879"/><stop offset=".28553611" stop-color="#bda46a"/><stop offset=".5" stop-color="#a8915b"/><stop offset=".790259" stop-color="#bda46a"/><stop offset="1" stop-color="#d3b879"/></linearGradient><linearGradient id="f" gradientUnits="userSpaceOnUse" x1="-152.978719" x2="-129.952705" xlink:href="#g" y1="202.995708" y2="233.625488"/><linearGradient id="g"><stop offset="0" stop-color="#d3b879"/><stop offset=".25" stop-color="#ebd6ad"/><stop offset=".5" stop-color="#ebd6ad"/><stop offset=".75" stop-color="#ebd6ad"/><stop offset="1" stop-color="#d3b879"/></linearGradient><linearGradient id="h" gradientUnits="userSpaceOnUse" x1="-640.7420354069" x2="-553.71458227851" xlink:href="#g" y1="652.28728214805" y2="768.053377977"/><filter id="i" color-interpolation-filters="sRGB" height="1.01759" width="1.017229" x="-.008615" y="-.008795"><feGaussianBlur stdDeviation=".73819355"/></filter><filter id="j" color-interpolation-filters="sRGB" height="1.019207" width="1.018455" x="-.009228" y="-.009604"><feGaussianBlur stdDeviation=".79072692"/></filter><radialGradient id="k" cx="640.46796" cy="-122.62065" gradientTransform="matrix(-.06566872 -.13387689 .27618074 -.13547114 566.34919 220.05249)" gradientUnits="userSpaceOnUse" r="49.536839" spreadMethod="reflect"><stop offset="0" stop-color="#e6e0cd"/><stop offset=".5" stop-color="#d8d1b6"/><stop offset=".75" stop-color="#dcd5bc"/><stop offset="1" stop-color="#e6e0cd"/></radialGradient><linearGradient id="l" gradientUnits="userSpaceOnUse" x1="442.17319" x2="490.46613" y1="173.54076" y2="150.79097"><stop offset="0" stop-color="#998d66"/><stop offset=".90456963" stop-color="#998d66" stop-opacity="0"/><stop offset="1" stop-color="#998d66" stop-opacity="0"/></linearGradient><linearGradient id="m" gradientUnits="userSpaceOnUse" x1="416.45197" x2="442.17319" y1="196.68146" y2="173.54076"><stop offset="0" stop-color="#6b6048"/><stop offset="1" stop-color="#6b6048" stop-opacity="0"/></linearGradient><filter id="n" color-interpolation-filters="sRGB" height="1.176234" width="1.736873" x="-.368436" y="-.088117"><feGaussianBlur stdDeviation=".74885764"/></filter><linearGradient id="o" gradientTransform="matrix(.34440893 0 0 1.0675561 36.568764 -4.095293)" gradientUnits="userSpaceOnUse" x1="66.048439" x2="66.048439" y1="77.644974" y2="81.380188"><stop offset="0" stop-color="#533c2c" stop-opacity="0"/><stop offset="1" stop-color="#533c2c"/></linearGradient><linearGradient id="p" gradientTransform="matrix(.34440893 0 0 1.0675561 36.568764 -4.095293)" gradientUnits="userSpaceOnUse" x1="66.048439" x2="66.048439" y1="77.644974" y2="81.380188"><stop offset="0" stop-color="#866046" stop-opacity="0"/><stop offset="1" stop-color="#866046"/></linearGradient><linearGradient id="q" gradientTransform="matrix(.70852579 0 0 .84249585 115.34622 -236.16161)" gradientUnits="userSpaceOnUse" spreadMethod="reflect" x1="-75.162231" x2="-56.490837" y1="363.89615" y2="379.59848"><stop offset="0" stop-color="#9f571d"/><stop offset=".511236" stop-color="#fde791"/><stop offset="1" stop-color="#b7671e"/></linearGradient><g stroke-width="1.30905" transform="matrix(.76391586 0 0 .76391586 400.44649 22.622178)"><path d="m-392.54218-18.949863c-11.24071 1.764938-22.48932 2.758523-33.74419 3.103686l-22.66218-.148311c-11.51406-.475976-23.04251-1.534564-34.57774-3.04891l-5.18986-.679545.51005 48.144316.16381 2.992065c1.32061 24.287044.9587 48.550728-1.32395 72.806922l-.40824 4.31808 4.18527 1.14257c31.9341 8.71699 64.00333 8.42436 95.85979.0119l4.13825-1.09193-.31057-4.27157v-.002c-1.80128-24.670426-2.42118-49.28703-1.19797-73.910106l-.0559-2.374789-.17758-47.810416z" fill="#533c2c"/><path d="m-484.21884 104.30827c31.06261 8.47911 62.12099 8.20262 93.18308 0-1.81319-24.833261-2.44026-49.663871-1.2237-74.162043l.5285-44.395728c-11.48239 1.80287-22.9616 2.81667-34.4289 3.16672l-22.93607-.14883c-11.70623-.48207-23.40505-1.55826-35.09037-3.09232l1.31943 45.291066c1.32111 24.294534.95599 48.816114-1.35197 73.341135z" fill="url(#a)"/></g><g stroke-width="1.30905" transform="matrix(.76391586 0 0 .76391586 400.44649 22.622178)"><path d="m-446.55273 90.91966c5.92152.58167 11.93609.617105 17.85001-.0373 7.64066-.845482 15.18246-2.684973 22.51445-4.995072 6.90945-2.176969 13.49246-5.298548 20.08329-8.305318 1.63192-.744491 4.8125-2.407633 4.8125-2.407633l-6.04071-94.942236-5.20898.818038c-11.24072 1.764938-22.48932 2.758523-33.74419 3.103686l-22.66219-.148311c-11.51406-.475976-23.04251-1.534564-34.57774-3.04891l-5.18986-.679545-.29456 2.531112-4.9258 92.205923s2.78406 1.831112 4.26151 2.594659c6.51999 3.369537 13.21234 6.531153 20.2183 8.717592 7.43311 2.319743 15.1546 3.832097 22.90397 4.593317z" fill="#533c2c"/><path d="m-406.18827 80.240872c6.65296-2.239247 12.34156-4.917334 19.303-8.418949l-4.84569-86.071424c-11.48239 1.802871-22.9616 2.816671-34.4289 3.166721l-22.93607-.14883c-11.70623-.48207-23.40505-1.558261-35.09037-3.092321l-4.23333 86.278654c6.44353 3.983555 12.30316 6.963616 18.96293 9.202175 7.35053 2.470747 15.09805 3.785862 22.81523 4.547453 5.95068.587258 12.00148.710081 17.93875 0 7.66798-.917069 15.19529-3 22.51445-5.463479z" fill="url(#c)"/><g transform="matrix(1.3090447 0 0 1.3090447 -989.17191 -82.967505)"><path d="m421.33122 61.55208c-1.44426 0-2.64959 1.236665-2.64959 2.855791 0 .301131.0418.589014.119.858235l3.51266-3.512657c-.30493-.129946-.63647-.201369-.98207-.201369zm2.42414 1.691587-3.68177 3.68177c.37578.216575.80501.337995 1.25763.337995 1.44425 0 2.64958-1.23655 2.64958-2.855791 0-.418519-.081-.811349-.22544-1.163974zm1.93304 3.058311c-.71112 1.766928-2.38416 3.035042-4.35718 3.035042-.17603 0-.3494-.01072-.52024-.03042l26.71702 44.52869-21.83971-47.533312zm-8.88072.362533-21.67336 47.170779 24.98765-41.646396-3.31452-5.524383zm-16.32984 14.625245-6.35371 6.353819 1.14047 1.140473 3.17686-3.176852.73301-.733129 1.46649 1.466027-.73324.733244-3.17686 3.176852 1.14048 1.140472 1.8736-1.873485.73301-.733014 1.46649 1.466142-.73336.733243-1.87337 1.873602 1.14024 1.140474 2.75499-2.754877 2.26597-4.931913-5.02096-5.020848zm41.70676 0-5.02085 5.020847 2.26597 4.931914 2.75488 2.754761 1.14025-1.140474-1.87338-1.873486-.73324-.733243 1.46648-1.466027.73302.733129 1.87349 1.873601 1.14047-1.140473-3.17685-3.176852-.73324-.733128 1.46648-1.466142.7329.733013 3.17674 3.176967 1.14047-1.140473-6.35359-6.353704zm-31.33076 10.376002-3.57268 5.954884 1.58687-1.586986.73313-.733013 1.46626 1.466026-.73302.733244-3.17662 3.177197 1.14024 1.14013 1.87361-1.873489.73301-.733128 1.46649 1.466137-.73336.73325-1.8736 1.87337 1.14047 1.14047 3.17697-3.17673.73313-.73325 1.46626 1.46626-.73325.73324-3.17674 3.17697 1.14013 1.14024 1.8736-1.87337.73337-.73313 1.46614 1.46649-.73313.7329-1.8736 1.8736 1.14047 1.14047 3.17674-3.17696.73312-.73302 1.30337 1.30291 1.30337-1.30291.73312.7329 3.17674 3.17697 1.14047-1.14047-1.87348-1.87361-.73302-.73301 1.46614-1.46649.73325.73325 1.87348 1.87348 1.14025-1.14012-3.17662-3.17697-.73325-.73313 1.46626-1.46614.73313.73324 3.17697 3.17674 1.14047-1.14047-1.8736-1.87338-.73325-.73324 1.46649-1.466141.73301.733128 1.8736 1.873483 1.14025-1.14024-3.17674-3.177197-.73313-.733128 1.46626-1.466142.73301.732898 1.58699 1.586756-3.57279-5.954653-10.47738 10.477376-10.47738-10.477376zm10.47738 15.690722-.57024.57024-3.17685 3.17685 3.74709 3.74709 3.74709-3.74709-3.17697-3.17674-.57024-.57023z" fill="#774f37" opacity=".33"/><path d="m1596.4336 238.63867c-5.4586 0-10.0156 4.67344-10.0156 10.79297 0 1.13813.1594 2.22661.4511 3.24414l13.2754-13.27734c-1.1525-.49114-2.4047-.75977-3.7109-.75977zm9.1621 6.39258-13.916 13.91602c1.4203.81855 3.0432 1.27734 4.7539 1.27734 5.4586 0 10.0137-4.67496 10.0137-10.79492 0-1.58181-.3057-3.06568-.8516-4.39844zm7.3047 11.55859c-.1872.46516-.3956.91935-.6172 1.36524l77.8535 169.44336 5.3086 8.8457zm-33.5645 1.3711-.1738.37695 8.7012 14.50195-65.5938 109.32422-24.8476 54.08008 94.4414-157.4043zm96.8399 62.82422-5.543 5.54101 2.7715 2.76953 2.2285 2.23047 4.543-4.54101 2.7695 2.76953 12.0059 12.00781 4.3105-4.31055-5-5-3.3105 3.31055-12.0059-12.00781zm-166.793.6875-15.7793 15.77929 4.3106 4.31055 12.0058-12.00781 2.7715-2.77149.543.54102 1-1zm22.582 6.11328-7.9355 17.26758-1.5605 1.56054.6914.68946-2.7715 2.77148-7.0801 7.08203 4.3086 4.31055 10.4121-10.41406 8.5645-18.63868zm139.2852 7.97656-5.543 5.54102 2.7715 2.76953 2.2285 2.23047 4.543-4.54102 2.7695 2.76953 7.0821 7.08203 4.3086-4.31054-5-5-3.3086 3.31054-7.0821-7.08203zm-156.9434.68945-10.8515 10.85157 4.3105 4.31054 7.0821-7.08203 2.7695-2.76953.543.54102 1-1zm148.8301 10.90235 1.6992 3.69922 10.4121 10.4121 4.3106-4.31054-5-5-3.3106 3.31054zm-27.1035 5.29882-.25.25 9.752 16.25586-5.9981-5.99609-2.7695-2.77148-5.541 5.54297 2.7695 2.76953 2.2305 2.23047 4.541-4.54297 2.7695 2.77148 5.9981 5.99609zm-85.377 10.29493-7.3261 12.21093 5.998-5.99804 2.7715-2.76953.541.54101 1-1zm81.1856 12.22265-5.543 5.54102 2.7715 2.77148 2.2285 2.22852 4.543-4.54102 2.7695 2.77149 7.0821 7.08008 4.3105-4.3086-5-5-3.3105 3.3086-7.0821-7.08008zm-78.125.6875-10.8535 10.85352 4.3105 4.30859 7.0821-7.08008 2.7695-2.77148.543.54102 1-1zm14.0859 4.23633-2.7695 2.77149-3.1543 3.15429.6895.68946-2.7715 2.77148-7.0821 7.08203 4.3106 4.3086 12.0078-12.00586 2.7715-2.77149.541.54102 1-.99805zm49.2598.002-5.541 5.54102 2.7715 2.77148 2.2285 2.22852 4.541-4.54102 2.7715 2.77149 12.0078 12.00586 4.3105-4.31055-5-5-3.3105 3.31055-12.0078-12.00586zm-4.9258 14.7754-5.541 5.54296 2.7695 2.77149 2.2305 2.22851 4.541-4.54296 2.7715 2.77148 7.0801 7.08203 4.3105-4.30859-5-5-3.3105 3.30859-7.0801-7.08203zm-38.7168.6914-10.8515 10.85156 4.3086 4.31055 7.082-7.08008 2.7715-2.77148.541.54101 1-.99804zm14.086 4.23633-2.7696 2.77148-3.1543 3.1543.6895.69141-2.7715 2.76953-7.0801 7.08203 4.3086 4.31055 12.0078-12.00782 2.7696-2.77148.5429.54101.3828-.38281 2.1563 2.1543 2.2285 2.22851 4.543-4.54101 2.7715 2.77148 12.0058 12.00586 4.3106-4.31054-5-5-3.3106 3.31054-12.0058-12.00586-2.7715-2.77148-4.9258 4.92578zm18.0898 21.32031-13.1621 13.16211-9.1621-9.16211-1 1 14.1621 14.16211 14.1621-14.16211z" fill="#a77858" filter="url(#i)" transform="scale(.26458334)"/><path d="m1588.4336 226.63867c-5.4586 0-10.0156 4.67344-10.0156 10.79297 0 1.13813.1594 2.22661.4511 3.24414l13.2754-13.27734c-1.1525-.49114-2.4047-.75977-3.7109-.75977zm9.1621 6.39258-13.916 13.91602c1.4203.81855 3.0432 1.27734 4.7539 1.27734 5.4586 0 10.0137-4.67496 10.0137-10.79492 0-1.58181-.3057-3.06568-.8516-4.39844zm7.3047 11.55859c-2.6877 6.67816-9.0097 11.47071-16.4668 11.47071-.6653 0-1.3211-.0408-1.9668-.11524l100.9785 168.29883-1.3086-2.8457-95.6699-159.45313c.6457.0745 1.3015.11524 1.9668.11524 6.9377 0 12.8892-4.14994 15.8496-10.10547zm-33.5645 1.3711-81.914 178.2832 28.8476-48.08008 56.8926-123.82617zm-61.7187 55.27734-24.0137 24.01367 4.3106 4.31055 12.0058-12.00781 2.7715-2.77149.6914.68946 8.2344-8.23438 14.3476 14.34766.629-1.3711zm157.6308 0-18.9765 18.97461 8.5644 18.64063 2.3008 2.30078-6.8652-14.94141 18.9765-18.97461 19.0137 19.01367 1-1zm-158.0136 20.08594-1.7715 1.77148-12.0078 12.00782 4.3105 4.31054 7.0821-7.08203 2.7695-2.76953.6894.68945 1.1563-1.15625 2.7715-2.77148zm162.3984 4.00195-1 1 2.7715 2.76953 7.0059 7.00782 1-1zm-157.4726 10.77735-1.7715 1.77148-7.0801 7.08203 4.3086 4.30859 8.8516-8.85156zm152.5468 4-1 1 2.7715 2.76953 2.0801 2.08203 1-1zm-117.873.3496-13.5039 22.50586 5.998-5.99804 2.7715-2.76953 2.5566 2.55664 6.1778-10.29493 39.5996 39.59961 39.3496-39.34961-3.75-6.25-39.5996 39.59961zm-.1934 20.2793-1.7715 1.77149-12.0058 12.00781 4.3105 4.30859 7.0821-7.08008 2.7695-2.77148.6914.68945 1.1543-1.15429 2.7695-2.77149zm83.586 4.00196-1 1 2.7695 2.76953 7.0078 7.00976 1-1zm-78.6582 10.77539-1.7715 1.77148-7.0821 7.08203 4.3106 4.3086 8.8535-8.85157zm73.7304 4.00195-1 1 2.7715 2.77148 2.082 2.08008 1-1zm-58.9531.92578-1.7715 1.76953-12.0058 12.00781 4.3086 4.31055 7.08-7.08008 2.7735-2.77148.6875.68945 1.1562-1.15625 2.7715-2.76953zm44.1758 4-1 1 2.7715 2.77148 7.0058 7.00782 1-1zm-39.25 10.77734-1.7715 1.77149-7.082 7.08203 4.3105 4.31055 8.8535-8.85352zm34.3242 4-1 1 2.7695 2.77149 2.0821 2.08008 1-1zm-19.5469.92578-1.7715 1.77149-12.0058 12.00781 5 5 11.0058-11.00781 2.1543-2.1543 2.1563 2.1543 7.0078 7.00781 1-1-9.7793-9.7793-.3828.38477z" fill="#533c2c" filter="url(#j)" transform="scale(.26458334)"/></g></g><g transform="translate(-.06779)"><g><path d="m59.298708 76.970613v15.274922c-.0951 1.963066.670992 3.623844 1.769401 5.031734 1.124821 1.441742 2.775156 2.779081 5.076176 2.760041 2.263114-.0187 3.958752-1.28486 5.140771-2.777611 1.140831-1.440735 1.939808-3.275829 1.685686-5.36298v-14.926106h-2.645317v15.110074c.372561 2.368683-1.944574 5.29159-4.201811 5.31027-2.198576.0182-4.326385-2.960355-4.17804-5.104081v-15.316263z" fill="url(#o)"/><path d="m66.123358 97.391108c2.257239-.01868 4.574733-2.94178 4.202172-5.310466v-15.110006h-8.380188v15.316466c-.148346 2.143728 1.979438 5.122202 4.178016 5.104006z" fill="url(#p)"/></g><g stroke-linecap="round" stroke-linejoin="round"><path d="m59.318359 86.769531a1.3230472 1.3230472 0 0 0 -1.324218 1.324219v3.986328a1.3230472 1.3230472 0 0 0 1.324218 1.324219h13.634766a1.3230472 1.3230472 0 0 0 1.324219-1.324219v-3.986328a1.3230472 1.3230472 0 0 0 -1.324219-1.324219zm1.322266 2.646485h10.990234v1.341796h-10.990234z" fill="#84542e"/><path d="m59.317548 92.080642h13.636135v-3.987551h-13.635906z" fill="url(#q)" stroke-width="2.64583"/></g></g><g stroke-width="1.57837" transform="matrix(-.2786242 -.56901225 .56901225 -.2786242 -45.309184 98.084075)"><path d="m-94.659762 153.96879c-3.63638-.0385-7.663758 1.14904-9.368418 4.84777v.00053c-4.00939 8.70372-8.40499 15.04158-15.2921 21.76405-3.68771 3.24915-5.78056 4.78895-8.07704 6.28127l-4.40386 2.6572c-6.49081 3.62787-14.02358 6.71352-22.78517 9.97613-.42223.0946-.70374.32323-1.03042.58601-2.33577 1.88028-4.80312 4.64232-6.25028 7.71788-1.63023 3.46459-1.69392 7.94065-.10801 13.08912 1.22929 3.99144 3.3971 7.80383 6.03065 10.78901 2.4497 2.77656 4.60484 4.93131 7.49221 7.188 2.8874 2.25669 5.8071 3.52424 8.27842 3.96636 2.47131.44211 5.25541.1562 7.4109-1.57148 1.49013-.9834 3.1687-2.10625 4.16978-3.34295.84335-1.10012 1.29669-2.24044 1.7105-3.48351 3.14643-7.23114 6.55876-13.41725 10.4331-18.65301.72655-.98186 1.46934-1.9303 2.22967-2.84593l3.67213-4.03128c1.75429-1.75221 3.51965-3.30169 7.52978-6.19549 8.806151-5.59665 16.625224-8.44491 26.4573-10.21643 3.28194-.59177 5.0446-3.29407 5.97019-5.88285.92554-2.58878 1.22671-5.57367.98803-8.75243l-.97512-5.45807c-.88149-3.073-2.35098-6.15309-5.15525-9.45075-2.804259-3.29766-7.144199-5.98077-11.421-7.5167-2.229829-1.23693-4.738741-1.70539-7.505992-1.46245z" fill="#857347"/><path d="m-158.51531 209.37678c-1.06453 2.26234-1.30352 5.92997.0801 10.42159 1.05352 3.42081 3.02715 6.88893 5.26791 9.42888 2.24078 2.53977 4.79866 4.78428 7.67807 7.39696 4.26352 2.71644 8.17978 3.53308 10.40919 1.74615.78052-.62572 2.64848-1.5775 3.58727-2.75806.59587-.74932 1.19279-2.61267 1.19279-2.61267 3.84578-8.84661 8.13147-16.30205 13.25502-22.46426l3.84731-4.22351c1.89338-1.89341 3.89146-3.64232 8.09305-6.66936 9.215571-5.87309 17.659901-8.95309 27.88666-10.79573 2.73182-.49257 4.33342-5.229 3.92173-10.71252l-6.440939-.18294 5.599139-4.5315c-.76001-2.64953-2.01805-5.25183-3.876249-7.43727-2.84504-3.34483-6.67462-5.73012-10.39214-7.06521l-4.75682 2.84789.51523-3.92689c-.70999-.10045-1.39446-.15861-2.05002-.16536v-.00001c-2.86115-.0305-5.11352.84414-5.966041 2.69389-4.17338 9.05976-8.93109 15.91532-16.13802 22.93555-3.8403 3.38831-6.15495 5.09437-8.5969 6.68022l-4.56871 2.75694c-6.77911 3.79192-14.49065 6.93757-23.3262 10.22773-1.64119 1.32113-4.29004 4.43005-5.22142 6.40949z" fill="url(#d)"/><path d="m-145.48982 236.62411c1.04985-.21424 2.00277-.72983 2.40687-1.07556l8.11085-8.01653 21.74561-21.49272c-.12582-1.39176-.54817-2.68134-.97972-3.96775l-22.05374 21.92186-4.29466 4.26898c-.11305-1.20084-.39942-2.47219-.87029-3.79522-1.08374-3.04731-2.92143-5.61611-5.33627-7.16854l4.75803-2.98494 25.81448-16.19468c-1.78326-2.49205-2.18897-3.01607-2.06895-2.78901l-26.04122 16.3927-7.04845 4.41727-3.63013 2.28298 4.20819.83356c2.61179.52015 4.85348 2.80587 6.11494 6.35215.93882 2.63875.85271 4.76685.33786 6.02705-.17525.48436-.42676.79313-.76703 1.16432-.39674.39486-.91635.54317-1.60038.51942-1.73882-.0603-4.24343-1.55242-6.4842-4.09218l-2.77638 2.45049z" fill="#857347"/><path d="m-114.20621 202.07155-22.05374 21.92186-4.29466 4.26898c-.11305-1.20084-.39942-2.47219-.87029-3.79522-1.08374-3.04731-2.92143-5.61611-5.33627-7.16854l4.75803-2.98494 25.81448-16.19468" fill="url(#e)"/><path d="m-130.3 232.99979c3.84577-8.84662 8.1315-16.30221 13.25504-22.46442l3.84731-4.22351c1.58485-1.58486 3.05529-3.02865 6.01774-5.24535 1.51297-1.08015 3.11122-2.09358 4.59691-2.97263 8.260661-4.88024 16.077041-7.57344 25.36514-9.24695 2.7318-.49257 4.33351-5.22929 3.92181-10.71281l-6.441259-.18264 5.599189-4.53179c-.76-2.64953-2.0178-5.25158-3.876009-7.43702-2.84503-3.34483-6.67468-5.73045-10.3922-7.06553l-4.75693 2.84805.51521-3.92671c-.70997-.10045-1.3943-.1589-2.04986-.16565l-.00018.00018c-2.86115-.0305-5.11365.84415-5.966171 2.69391-3.81829 8.2889-8.08595 14.69189-14.31065 21.10482-1.1828 1.18615-2.20954 2.25386-3.473 3.34602-3.0118 2.58214-4.83008 3.78765-6.95097 5.165l-4.56895 2.75673c-6.77911 3.79193-14.49045 6.9375-23.32602 10.22773.10516.008.20887.017.31513.0285 2.0245.23999 3.92743 1.04407 5.7082 1.98618 1.47043.77794 2.7575 1.87652 4.00774 2.9739 1.14544 1.00539 2.16254 2.09613 3.17776 3.28748 1.90182 2.23129 3.64076 4.78206 5.11334 7.5111s2.6788 5.63636 3.5152 8.58074c.54599 1.92206.93625 3.82296 1.15648 5.66468z" fill="url(#f)"/><path d="m-149.12939 208.1855c1.76411.93317 3.35531 2.19313 4.83056 3.53719.85298.77713 1.57849 1.68706 2.29569 2.591 1.23508 1.55665 2.44038 3.1505 3.44619 4.86424.90018 1.53377 1.60927 3.17542 2.297 4.81548.48541 1.15757.9678 2.32488 1.28785 3.53861.50914 1.93078.67451 3.93625.99344 5.90739.42141 2.60452 1.21577 7.82123 1.21577 7.82123l2.46289-8.26086c-.22023-1.84172-.5957-3.8228-1.15648-5.66757-.89872-2.95648-2.05191-5.85622-3.5152-8.57785-1.43429-2.66767-3.20164-5.16183-5.11334-7.51109-.96197-1.18215-2.07935-2.2954-3.17776-3.28749l2.89725-5.97591-6.90499 3.00202c-1.84666-1.07154-3.76112-1.77506-5.7082-1.98619-.10626-.0115-.31513-.0285-.31513-.0285s-6.28104 1.17484-7.83287 3.43013c0 0 3.07892-.13128 4.61551-.0526 1.12387.0575 2.25863.12597 3.3542.38305 1.39001.32618 2.69943.75514 4.02762 1.45772z" fill="#857347"/><g transform="scale(.26458334)"><path d="m-380.46289 606.11133c-14.43133 31.32812-30.56147 55.52778-54.08789 79.76562-4.47043 4.48309-8.35167 8.51864-13.12695 12.64649-11.38319 9.75927-18.25553 14.31575-26.27149 19.52148l-17.26758 10.41992c-25.62183 14.33171-54.76766 26.21962-87.5664 38.70899l-25.04102 4.51562 12.28516 8.19532 12.67773 1.44921c5.80607.67646 9.70818 2.60275 15.70508 5.7754 3.72673 1.97166 7.82644 5.32768 12.45313 9.38867 3.64432 3.19876 8.94662 9.44171 13.99835 13.50643 5.56963 4.48143 11.94449 7.85905 17.8492 11.88874 4.5305 3.09184 8.53356 7.07075 13.48614 9.42806 5.90545 2.81085 18.86552 5.39161 18.86552 5.39161l8.66797-15.33984s12.53398-22.17732 25.36328-44.3125c6.41466-11.06759 12.91068-22.13722 17.87891-30.30274 2.48409-4.08276 4.60333-7.4619 6.01563-9.58203l4.51171-3.7793c2.73816-2.17167 6.28484-5.10067 10.45313-8.5996 8.33658-6.99788 19.101-16.23647 29.78516-25.47461 21.1872-18.31979 41.67359-36.31426 42.02539-36.62305l83.1289-65.24805-4.71094-9.10937-81.78167-6.13815-3.99609-4.97266c-2.27444.53025-11.05809 4.86491-11.04055 4.81353-10.59696-.21335-17.03768 17.07559-20.25981 24.06681z" fill="#857347"/><path d="m-354.58831 592.82669c-.0586.0137-1.00586.23438-1.00586.23438-10.8138-.11528-21.64659 6.05904-24.86872 13.05026-14.43133 31.32812-30.56147 55.52778-54.08789 79.76562-4.47043 4.48309-8.35167 8.51864-13.12695 12.64649-11.38319 9.75927-18.25553 14.31575-26.27149 19.52148l-17.26758 10.41992c-25.62183 14.33171-54.76766 26.21962-87.5664 38.70899 8.24715.96091 15.43945 3.99981 22.16992 7.56055 5.55753 2.94024 10.42312 7.09265 15.14844 11.24023 4.32922 3.7999 10.0711 10.18737 15.41632 14.94784 2.09108 1.86231 4.15884 3.78655 6.50425 5.31621 3.78089 2.46585 7.7512 4.82647 12.06975 6.1401 5.60493 1.70492 17.44913 2.10366 17.44913 2.10366s50.23844-88.88867 52.80273-88.88867c1.32121 0 24.25443-19.5721 46.17969-38.54687 2.03611-1.76213-6.19202-5.76234-4.19141-7.49805 2.00058-1.73567 14.23132-1.20588 16.16016-2.88281 15.68422-13.63601 28.39649-24.79688 28.39649-24.79688l64.22851-50.41406-65.63323-5.5112z" fill="url(#h)" stroke-width="44.1943"/></g></g><g stroke-width="2.22698" transform="matrix(-.02783341 -.44817618 .44817618 -.02783341 49.245909 65.378228)"><path d="m-582.38672 291.40039 397.40811 397.44734 103.257817-103.25782-397.453037-397.40436z" fill="#897753" stroke-width="3.77953" transform="scale(.26458334)"/><path d="m-126.78128 56.52587-20.57135 20.57136 2.62202 2.61937 7.29191-7.28927 3.3708 3.37344-7.28398 7.3025 5.59858 5.58271 7.27869-7.27605 3.38667 3.38667-7.28928 7.27604 5.59594 5.58271 13.28208-13.25562 3.38667 3.38666-13.28208 13.25563 5.60917 5.60916 7.27604-7.3025 3.38666 3.38667-7.27604 7.3025 5.58271 5.58271 7.27604-7.27604 3.386669 3.38666-7.276039 7.27605 5.582709 5.60916 13.28208-13.28208 3.38667 3.38667-13.28209 13.28208 5.60917 5.58271 7.27604-7.27604 3.38667 3.38666-7.27604 7.27605 5.5827 5.60916 7.3025-7.3025 3.38667 3.38667-7.3025 7.3025 5.58271 5.58271 13.28208-13.28209 3.38667 3.38667-13.28208 13.28208 5.60916 5.58271 7.27604-7.27604 3.38667 3.38667-7.27604 7.27604 5.58271 5.60917 7.3025-7.3025 3.38666 3.38666-7.3025 7.3025 2.61938 2.61938 20.58458-20.58459z" fill="#c9b793" stroke-width="9.525"/></g><g stroke-width="1.79774" transform="matrix(.55625441 0 0 .55625441 -198.31814 -37.702101)"><g transform="matrix(.86788051 -.496773 .496773 .86788051 -64.137786 225.854214)"><path d="m489.28906 146.2402c-12.65461.52655-24.1926 2.16582-34.58724 4.76031-10.53805 3.02707-20.30546 6.49247-28.88346 11.11469l-1.91797 3.20704-.39453-2.22852-6.12305 4.30273c-2.60895 1.83308-4.99896 3.79846-7.28711 5.81836l-.14843-.74609-6.35157 7.11133c-11.4997 12.87374-17.22369 28.51998-16.80273 44.54687-.0128 2.42914.64611 4.07826 2.13324 5.23592 2.09597 1.63161 5.24172 1.28658 7.89162 1.10423 1.9304-.13284 3.84876-.72916 5.58451-1.58429 5.99334-2.95265 10.86235-7.45284 16.08789-11.95508l15.89813-14.56095c5.33952-5.46329 16.61282-17.51246 28.36945-27.72617 0 0 7.16853-6.25893 11.03534-9.01866 4.45639-3.18052 11.12037-7.32379 13.96342-8.64866l24.43797-10.51525z" fill="#998d66" stroke-width="1.79774"/><path d="m395.92744 226.30042c1.41505-.1484 4.00109-1.48687 4.00109-1.48687 5.23346-3.18029 10.36109-7.10618 15.45326-11.4935l-8.01159.42201 14.34519-6.11029c12.40234-11.54562 24.72928-25.12853 37.91823-36.58658l-6.47436-1.37319 14.94896-5.56418c7.10486-5.41999 14.49917-10.0129 22.31602-13.18762h.00079c-25.17246.92498-45.58691 6.37116-61.19336 14.76691l-7.79727 13.03867-1.31419-7.43294c-2.78739 1.95845-5.37475 4.02749-7.756 6.1931l-3.88593 11.92213-1.33139-6.6556c-10.75531 12.0404-15.98347 26.42235-15.59401 41.25013 0 0 1.09571 1.52273 1.90122 1.93204.74299.37754 1.64447.4527 2.47334.36578z" fill="url(#k)" stroke-width="17.1235"/><path d="m391.55288 224.0026c6.25383-12.39136 15.13988-23.69437 24.8378-33.74551 9.22838-9.5645 19.94221-17.77782 31.24594-24.76841 4.94797-3.05998 10.34202-5.40607 15.80964-7.39379 8.74551-3.17937 26.97877-7.17469 26.97877-7.17469s-20.0225 7.01933-29.54004 11.65159c-6.50086 3.16402-12.82336 6.7739-18.71179 10.96897-7.70255 5.4875-15.15629 11.48433-21.55662 18.44692-9.53592 10.37365-18.63018 22.79701-24.68914 34.31274 0 0-1.56669 2.86701-2.29764 4.32754-2.21688 4.42961-4.2869 8.93215-6.32896 13.44503-3.02993 6.696-8.78684 20.22236-8.78684 20.22236l-6.71279 7.9274s6.52122-18.92342 10.34511-28.16526c2.06226-4.98423 4.46887-9.81945 6.78429-14.69123.85427-1.79744 2.62227-5.36366 2.62227-5.36366z" fill="url(#l)" stroke="url(#m)" stroke-width="2.37826"/></g><g><path d="m375.70703 243.27468h-5.61523l-1.76953 5.74876c-1.36267 8.40332-2.72167 16.80724-4.08204 25.21093l4.5625 8.07422h34.50196l4.57031-8.07226-4.07031-25.15039-2.22461-5.81126h-4.8086z" stroke-width="1.79774"/><path d="m372.84784 250.86478-3.63919 22.48086 2.37331 4.20053h28.94685l2.3782-4.20027-3.63917-22.48086-5.04814-7.59036-16.03788-.00013z" fill="#241f31" stroke-width="17.1234"/><path d="m370.0918 248.03738h31.48828v-8.04582-4.76224c0-2.24495-2.5173-4.76225-4.76225-4.76225h-4.76224-12.4398-4.762c-2.24482 0-4.76199 2.51717-4.76199 4.762v4.76199z" stroke-width="1.79774"/><path d="m374.85363 235.22923v8.04545h21.96412v-8.04545z" fill="#241f31" stroke-width="17.1234"/><path d="m377.32504 251.98985-4.87807 20.3963h4.27395z" fill="#3d3846" filter="url(#n)"/></g></g></svg>