<svg height="500" viewBox="0 0 132.29167 132.29167" width="500" xmlns="http://www.w3.org/2000/svg" xmlns:xlink="http://www.w3.org/1999/xlink"><linearGradient id="a" gradientUnits="userSpaceOnUse" x1="-437.62766" x2="-437.62766" xlink:href="#b" y1="41.709736" y2="89.678802"/><linearGradient id="b"><stop offset="0" stop-color="#a77858"/><stop offset="1" stop-color="#866046"/></linearGradient><linearGradient id="c" gradientUnits="userSpaceOnUse" x1="-437.6279" x2="-437.6279" xlink:href="#b" y1=".324696" y2="36.544106"/><filter id="d" color-interpolation-filters="sRGB" height="1.017203" width="1.024925" x="-.012463" y="-.008601"><feGaussianBlur stdDeviation=".73819355"/></filter><filter id="e" color-interpolation-filters="sRGB" height="1.015253" width="1.024389" x="-.012194" y="-.007627"><feGaussianBlur stdDeviation=".79072692"/></filter><linearGradient id="f" gradientTransform="matrix(.05881281 -.11387644 .11387644 .05881281 -410.4414 71.706654)" gradientUnits="userSpaceOnUse" spreadMethod="reflect" x1="929.46143" x2="740.35199" xlink:href="#g" y1="1611.5664" y2="2095.0156"/><linearGradient id="g"><stop offset="0" stop-color="#93a0aa"/><stop offset=".25" stop-color="#9da9b2"/><stop offset=".375" stop-color="#7f8f9a"/><stop offset=".5" stop-color="#93a0aa"/><stop offset=".75" stop-color="#7c8c98"/><stop offset="1" stop-color="#93a0aa"/></linearGradient><linearGradient id="h" gradientUnits="userSpaceOnUse" x1="-147.13735997815" x2="-147.13937909976" xlink:href="#i" y1="68.02589867249" y2="113.73482910982"/><linearGradient id="i"><stop offset="0" stop-color="#4a4c4f"/><stop offset="1"/></linearGradient><filter id="j" color-interpolation-filters="sRGB" height="1.057988" width="1.062157" x="-.031078" y="-.028994"><feGaussianBlur stdDeviation=".44225045"/></filter><filter id="k" color-interpolation-filters="sRGB" height="1.115962" width="1.124329" x="-.062165" y="-.057981"><feGaussianBlur stdDeviation=".88587785"/></filter><linearGradient id="l" gradientUnits="userSpaceOnUse" x1="-147.13716997815" x2="-147.13918909976" xlink:href="#i" y1="68.02567067249" y2="113.73460110982"/><linearGradient id="m" gradientTransform="matrix(.22228463 -.43039913 .43039913 .22228463 -1551.2745 271.01727)" gradientUnits="userSpaceOnUse" spreadMethod="reflect" x1="929.46143" x2="740.35199" xlink:href="#g" y1="1611.5664" y2="2095.0156"/><linearGradient id="n" gradientUnits="userSpaceOnUse" spreadMethod="reflect" x1="53.24139088614" x2="73.07074137087" y1="38.46449911094" y2="79.60300335803"><stop offset="0" stop-color="#918a6f"/><stop offset="1" stop-color="#6f6955"/></linearGradient><radialGradient id="o" cx="-88.819878" cy="223.93161" gradientTransform="matrix(-.91436945 .84577624 -1.98268 -2.1434776 265.67503 762.06596)" gradientUnits="userSpaceOnUse" r="17.100607"><stop offset="0" stop-color="#996f4d" stop-opacity="0"/><stop offset=".13499637" stop-color="#996f4d" stop-opacity="0"/><stop offset=".49481004" stop-color="#986e4c" stop-opacity=".498039"/><stop offset="1" stop-color="#986e4c"/></radialGradient><linearGradient id="p" gradientTransform="matrix(.34440893 0 0 1.0675561 36.568764 -4.095293)" gradientUnits="userSpaceOnUse" x1="66.048439" x2="66.048439" y1="77.644974" y2="81.380188"><stop offset="0" stop-color="#533c2c" stop-opacity="0"/><stop offset="1" stop-color="#533c2c"/></linearGradient><linearGradient id="q" gradientTransform="matrix(.34440893 0 0 1.0675561 36.568764 -4.095293)" gradientUnits="userSpaceOnUse" x1="66.048439" x2="66.048439" y1="77.644974" y2="81.380188"><stop offset="0" stop-color="#866046" stop-opacity="0"/><stop offset="1" stop-color="#866046"/></linearGradient><linearGradient id="r" gradientTransform="matrix(.70852579 0 0 .84249585 115.34622 -236.16161)" gradientUnits="userSpaceOnUse" spreadMethod="reflect" x1="-75.162231" x2="-56.490837" y1="363.89615" y2="379.59848"><stop offset="0" stop-color="#9f571d"/><stop offset=".511236" stop-color="#fde791"/><stop offset="1" stop-color="#b7671e"/></linearGradient><g><g stroke-width="1.30905" transform="matrix(.76391586 0 0 .76391586 400.44649 22.622178)"><path d="m-392.54218-18.949863c-11.24071 1.764938-22.48932 2.758523-33.74419 3.103686l-22.66218-.148311c-11.51406-.475976-23.04251-1.534564-34.57774-3.04891l-5.18986-.679545.51005 48.144316.16381 2.992065c1.32061 24.287044.9587 48.550728-1.32395 72.806922l-.40824 4.31808 4.18527 1.14257c31.9341 8.71699 64.00333 8.42436 95.85979.0119l4.13825-1.09193-.31057-4.27157v-.002c-1.80128-24.670426-2.42118-49.28703-1.19797-73.910106l-.0559-2.374789-.17758-47.810416z" fill="#533c2c"/><path d="m-484.21884 104.30827c31.06261 8.47911 62.12099 8.20262 93.18308 0-1.81319-24.833261-2.44026-49.663871-1.2237-74.162043l.5285-44.395728c-11.48239 1.80287-22.9616 2.81667-34.4289 3.16672l-22.93607-.14883c-11.70623-.48207-23.40505-1.55826-35.09037-3.09232l1.31943 45.291066c1.32111 24.294534.95599 48.816114-1.35197 73.341135z" fill="url(#a)"/></g><g stroke-width="1.30905" transform="matrix(.76391586 0 0 .76391586 400.44649 22.622178)"><path d="m-446.55273 90.91966c5.92152.58167 11.93609.617105 17.85001-.0373 7.64066-.845482 15.18246-2.684973 22.51445-4.995072 6.90945-2.176969 13.49246-5.298548 20.08329-8.305318 1.63192-.744491 4.8125-2.407633 4.8125-2.407633l-6.04071-94.942236-5.20898.818038c-11.24072 1.764938-22.48932 2.758523-33.74419 3.103686l-22.66219-.148311c-11.51406-.475976-23.04251-1.534564-34.57774-3.04891l-5.18986-.679545-.29456 2.531112-4.9258 92.205923s2.78406 1.831112 4.26151 2.594659c6.51999 3.369537 13.21234 6.531153 20.2183 8.717592 7.43311 2.319743 15.1546 3.832097 22.90397 4.593317z" fill="#533c2c"/><g><path d="m-406.18827 80.240872c6.65296-2.239247 12.34156-4.917334 19.303-8.418949l-4.84569-86.071424c-11.48239 1.802871-22.9616 2.816671-34.4289 3.166721l-22.93607-.14883c-11.70623-.48207-23.40505-1.558261-35.09037-3.092321l-4.23333 86.278654c6.44353 3.983555 12.30316 6.963616 18.96293 9.202175 7.35053 2.470747 15.09805 3.785862 22.81523 4.547453 5.95068.587258 12.00148.710081 17.93875 0 7.66798-.917069 15.19529-3 22.51445-5.463479z" fill="url(#c)"/><g transform="matrix(1.3090447 0 0 1.3090447 -831.03273 -157.86174)"><path d="m317.04853 121.92707c-2.87656 0-5.49544 1.46281-6.8523 3.74912l-.59686 1.00666-1.03094-.55345c-.96337-.52239-2.06251-.79944-3.16157-.79944-3.83992 0-6.96081 3.19798-6.96081 7.21972 0 3.59568 2.52389 6.5948 5.90248 7.13755l1.03094.16278v7.24555c7.85625-1.50612 15.73961-1.57397 23.60942 0v-9.45731l.65164-.35295c2.13027-1.12619 3.54138-3.54164 3.54138-6.26215 0-3.90776-2.80889-6.93601-6.16035-6.93601-.88197 0-1.76415.2183-2.5647.64027l-.84077.4346-.62425-.69091c-1.46541-1.59703-3.63665-2.54403-5.94331-2.54403zm.13591 26.43043c-3.47357 0-6.93355.32565-10.40712.94981-.12212.81411-.17673 1.65497-.17673 2.52336 0 3.93491 1.2485 7.49023 3.20239 10.00042 1.95387 2.5102 4.54561 3.97547 7.38146 3.97547s5.42758-1.46527 7.38146-3.97547c1.95389-2.51019 3.20187-6.06551 3.20187-10.00042 0-.86839-.0676-1.72319-.17622-2.53731-3.47356-.63773-6.93355-.94943-10.40711-.93586zm-6.41822 17.76119-12.10313 4.02973-3.79667 15.197.0532.83148c4.13265.34434 8.31493.37909 12.42663-.11266 5.85768-.70056 11.60774-2.29202 17.19895-4.1739.33794-.11375.66542-.23306.99735-.34985l-1.42472-9.99423 2.41536-.35295 1.35444 9.48263c3.12375-1.212 6.1048-2.58919 9.39581-4.21525l-1.57768-6.31227-12.10366-4.02973c-1.87246 1.3433-4.07031 2.1301-6.41769 2.1301-2.34737 0-4.54574-.7868-6.41822-2.1301zm9.40305 7.15047c.74941-.00008 1.35709.60762 1.35702 1.35702.00007.74941-.60761 1.35709-1.35702 1.35702-.7494.00007-1.35659-.60761-1.35651-1.35702-.00008-.7494.60711-1.3571 1.35651-1.35702zm.94981 6.24199c.74937 0 1.35702.60713 1.35702 1.35651 0 .74937-.60765 1.35702-1.35702 1.35702-.74938 0-1.3565-.60765-1.3565-1.35702 0-.74938.60712-1.35651 1.3565-1.35651z" fill="#774f37" opacity=".33"/><path d="m1256.4499 482.64507c1.7937 3.70439 2.8203 7.97229 2.8203 12.5625 0 10.28222-5.3334 19.4095-13.3848 23.66601l-2.4609 1.33398v35.74415c-28.4088-5.68178-56.8642-5.68989-85.2324-.72071v6.72071c29.6928-5.69242 59.4883-5.94886 89.2324 0v-35.74415l2.4609-1.33398c8.0514-4.25651 13.3848-13.38379 13.3848-23.66602 0-7.34231-2.6255-13.8607-6.8203-18.56249zm-121.6114 36.70898c3.7318 7.6079 10.8121 13.17088 19.3536 14.57812v-5.36523l-3.8985-.61523c-6.1301-.98475-11.512-4.11195-15.4551-8.59766zm103.8282 50.30859c.086 1.38179.1425 2.7787.1425 4.1875 0 14.87209-4.7187 28.30756-12.1035 37.79492s-17.1802 15.02539-27.8984 15.02539c-10.7181 0-20.5138-5.53803-27.8984-15.02539-.01-.008-.0126-.01729-.0196-.02539 1.228 2.1461 2.5689 4.16425 4.0176 6.02539 7.3847 9.48736 17.1804 15.02539 27.8984 15.02539 10.7182 0 20.5137-5.53803 27.8985-15.02539s12.1035-22.92283 12.1035-37.79492c0-3.28209-.2575-6.51286-.668-9.58984-1.1582-.21265-2.3151-.40418-3.4726-.59766zm-4.5254 77.36719-9.1289 1.33398 5.3867 37.77149c.9963-.35059 2.01-.6906 2.9941-1.04883l-4.3808-30.72266 6.0508-.88476zm35.9414 1.14453 4.6914 18.76172c.7278-.35958 1.4864-.73945 2.2226-1.10547l-4.1875-16.74805zm-59.9942 6.70313c-2.8313.00077-5.1272 2.29523-5.1269 5.12695-.0002 2.47836 1.7567 4.54734 4.0937 5.02539.4557-2.3656 2.5346-4.1526 5.0332-4.15234.3541-.00003.6994.03519 1.0332.10351.061-.3159.0938-.6429.0938-.97656.0003-2.83172-2.2934-5.12618-5.125-5.12695zm3.5899 23.58984c-2.8314.00107-5.127 2.29727-5.127 5.12891 0 2.47822 1.7569 4.54523 4.0938 5.02343.4558-2.36551 2.5346-4.15234 5.0332-4.15234.354 0 .6994.0352 1.0332.10351.061-.31587.0937-.64095.0937-.9746 0-2.83164-2.2936-5.12784-5.125-5.12891z" fill="#a77858" filter="url(#d)" transform="scale(.26458334)"/><path d="m1194.2956 454.82671c-10.872 0-20.7702 5.52872-25.8985 14.16992l-2.2578 3.80469-3.8965-2.0918c-3.6411-1.97438-7.7953-3.02149-11.9492-3.02149-14.5132 0-26.3086 12.08881-26.3086 27.28907 0 7.06604 2.5827 13.51849 6.8535 18.37695-1.8247-3.72003-2.8535-7.92603-2.8535-12.37695 0-15.20026 11.7954-27.28907 26.3086-27.28907 4.1539 0 8.3081 1.04711 11.9492 3.02149l3.8985 2.0918 2.2558-3.80469c5.1283-8.6412 15.0265-14.16992 25.8985-14.16992 8.7181 0 16.9223 3.57922 22.4609 9.61523l2.3594 2.61133 3.1797-1.64063c3.0257-1.59489 6.358-2.42187 9.6914-2.42187 6.3699 0 12.2196 2.89816 16.4629 7.6543-3.9776-8.2149-11.7327-13.6543-20.4629-13.6543-3.3334 0-6.6657.82698-9.6914 2.42187l-3.1797 1.64063-2.3594-2.61133c-5.5386-6.03601-13.7428-9.61523-22.4609-9.61523zm-44.1035 73.10546v22.01954c1.3331-.25556 2.6665-.48713 4-.72071v-20.66406l-3.8985-.61523c-.034-.005-.0669-.01394-.1015-.01954zm44.6152 26.78907c-13.1284 0-26.2056 1.23081-39.334 3.58984-.4616 3.07695-.666 6.25697-.666 9.53906 0 14.85945 4.71 28.28353 12.084 37.76953-5.0316-8.79383-8.084-19.81492-8.084-31.76953 0-3.28209.2044-6.46211.666-9.53906 13.1284-2.35903 26.2056-3.58984 39.334-3.58984 11.9696-.0468 23.8974.94197 35.8594 2.9414-.1148-1.83739-.2911-3.64611-.5254-5.40234-13.1284-2.41032-26.2055-3.59035-39.334-3.53906zm-24.2559 67.1289-45.7461 15.23242-14.3476 57.43555.5644 8.82227c1.2109.115 2.4234.21922 3.6368.32031l-.2012-3.14258 14.3476-57.43555 45.7461-15.23242c7.0771 5.07704 15.384 8.05274 24.2559 8.05274 8.872 0 17.1807-2.9757 24.2578-8.05274l43.0176 14.32422-1.2735-5.0918-45.7441-15.23242c-7.0771 5.07704-15.3858 8.05274-24.2578 8.05274-8.8719 0-17.1788-2.9757-24.2559-8.05274zm63.5899 25.17969-3.0781.44922 5.2168 36.52148c.9958-.37431 1.9933-.74788 2.9804-1.13086zm-23.0176 7.95117c-.4555 2.36575-2.5344 4.15258-5.0332 4.15234-.354.00004-.7014-.0352-1.0352-.10351-.061.3159-.0937.64095-.0937.97461-.0003 2.83241 2.2966 5.12917 5.1289 5.1289 2.8325.00027 5.1273-2.29649 5.127-5.1289.0002-2.47833-1.7568-4.54541-4.0938-5.02344zm3.5898 23.58984c-.4557 2.36562-2.5346 4.15235-5.0332 4.15235-.3541 0-.7012-.0352-1.0351-.10352-.061.31589-.0938.64292-.0938.97657 0 2.83226 2.2966 5.12695 5.1289 5.12695s5.125-2.29469 5.125-5.12695c0-2.47826-1.7549-4.5472-4.0918-5.0254z" fill="#533c2c" filter="url(#e)" transform="scale(.26458334)"/></g></g></g><g transform="translate(.018121 -.000458)"><g><path d="m59.298708 76.970613v15.274922c-.0951 1.963066.670992 3.623844 1.769401 5.031734 1.124821 1.441742 2.775156 2.779081 5.076176 2.760041 2.263114-.0187 3.958752-1.28486 5.140771-2.777611 1.140831-1.440735 1.939808-3.275829 1.685686-5.36298v-14.926106h-2.645317v15.110074c.372561 2.368683-1.944574 5.29159-4.201811 5.31027-2.198576.0182-4.326385-2.960355-4.17804-5.104081v-15.316263z" fill="url(#p)"/><path d="m66.123358 97.391108c2.257239-.01868 4.574733-2.94178 4.202172-5.310466v-15.110006h-8.380188v15.316466c-.148346 2.143728 1.979438 5.122202 4.178016 5.104006z" fill="url(#q)"/></g><g stroke-linecap="round" stroke-linejoin="round"><path d="m59.318359 86.769531a1.3230472 1.3230472 0 0 0 -1.324218 1.324219v3.986328a1.3230472 1.3230472 0 0 0 1.324218 1.324219h13.634766a1.3230472 1.3230472 0 0 0 1.324219-1.324219v-3.986328a1.3230472 1.3230472 0 0 0 -1.324219-1.324219zm1.322266 2.646485h10.990234v1.341796h-10.990234z" fill="#84542e"/><path d="m59.317548 92.080642h13.636135v-3.987551h-13.635906z" fill="url(#r)" stroke-width="2.64583"/></g></g><g transform="translate(178.09891 -.732294)"><g stroke-width="1.99592" transform="matrix(.50102273 0 0 .50102273 -273.69248 60.992988)"><g fill="#4a4c4f" stroke-width="1.99592"><path d="m299.05859 84.384538-4.66992 4.997554c-3.30273 3.11944-6.74336 5.640206-10.88086 7.963606l-4.97439 2.50196 3.35525 3.675132c3.17032 4.71333 6.23324 8.87465 9.54102 11.16666 3.93765 2.72785 8.05132 3.70824 11.38281 1.66993 3.5041-2.14398 4.42676-6.05771 4.04244-10.71516-.38433-4.65745-2.71799-11.099515-5.47923-16.644287z"/><path d="m240.08984 104.07571.35938 4.90221c.38674 6.05171 1.43726 11.93288 3.16601 15.67052 2.06575 4.46613 4.80522 7.41883 8.91797 7.5 3.95804.0782 6.93776-2.83464 8.99805-7.20508 1.77818-3.7725 2.84717-9.72572 3.20898-15.96843l.32422-4.89591c-4.12873.4642-8.7458 1.18289-12.47851 1.19051-4.44465.0565-8.05219-.5343-12.4961-1.19382z"/><path d="m205.83789 84.038923-2.86523 6.394671c-2.85042 5.718925-4.31898 10.818276-4.66016 14.955076-.40525 4.91103.51701 8.82654 3.93555 10.917s7.53134 1.11173 11.46879-1.61622c2.97262-2.05994 6.60931-5.43091 9.92382-10.35937l2.87891-4.535958-4.49609-2.248391c-4.08881-2.298584-8.28615-5.373685-11.53721-8.448075z"/></g><path d="m247.93856 122.64831c1.65946 3.58775 3.50837 4.71487 4.68841 4.73816 1.17925.0233 2.94746-.97446 4.59687-4.47331 1.35811-2.88131 2.42491-7.46291 2.76146-13.26972-2.42755.25532-4.89744.38781-7.3996.38781-2.49687 0-4.96094-.13156-7.38386-.38623.3597 5.62862 1.4011 10.11563 2.73672 13.00329z" fill="#7c8c98" stroke-width="19.011"/><path d="m285.84012 101.47347c2.96598 4.40954 5.85523 7.60701 8.3013 9.30193 3.14325 2.17752 5.15197 2.15318 6.18464 1.52136 1.03266-.63183 2.0865-2.57175 1.76106-6.51537-.2704-3.27554-1.80944-7.698847-4.4275-12.956118-3.58034 3.38164-7.37873 6.154495-11.8195 8.648198z" fill="#7c8c98" stroke-width="19.011"/><path d="m203.05887 105.78086c-.32544 3.94388.72814 5.88381 1.7608 6.51563 1.0332.63183 3.04192.65617 6.1849-1.52135 2.4474-1.69598 5.71735-4.69107 8.68466-9.10326-4.43918-2.49555-8.87648-5.729615-12.45496-9.113636-2.62388 5.264415-3.90499 9.943896-4.1754 13.222616z" fill="#7c8c98" stroke-width="19.011"/></g><path d="m-152.90225 60.818424c-3.37436.174782-9.52172 1.391993-14.33758 3.486011-2.68987 1.16952-5.01449 2.601054-6.80295 4.439727-1.80543 1.856129-3.0991 4.26965-3.0991 6.990833 0 1.350454.39802 2.596428.93942 3.76452-1.20422 2.915849-1.89645 6.05893-1.89645 9.334484 0 15.151461 13.95537 27.287151 30.95773 27.287151 17.00247 0 30.96163-12.13522 30.96163-27.287151 0-3.276914-.69572-6.419978-1.90036-9.334484.54128-1.168013.93942-2.413949.93942-3.76452 0-2.721178-1.29378-5.134665-3.0991-6.990833-1.79004-1.839978-4.11865-3.270561-6.80784-4.439727-5.38587-2.341808-12.38684-3.660793-20.09375-3.660793zm5.76107 4.597655c7.15196 0 13.60783 1.272481 18.19143 3.265455 2.2954.99796 4.09492 2.162223 5.28911 3.389732 1.17839 1.211585 1.74771 2.447812 1.74771 3.663729 0 .809465-.24819 1.607518-.77502 2.442485l-.69575 1.102838.5519 1.180143c1.21579 2.602719 1.87982 5.420654 1.87982 8.373538 0 12.197761-11.43615 22.514711-26.1892 22.514711-14.75291 0-26.18529-10.31648-26.18529-22.514711 0-2.95431.66124-5.772208 1.8759-8.373538l.55191-1.181122-.69576-1.101859c-.52666-.834354-.77502-1.632862-.77502-2.442485 0-1.215913.56944-2.45237 1.74771-3.663729 1.19525-1.228814 2.98975-2.392127 5.28422-3.389732 4.58297-1.992753 11.04433-3.265455 18.19633-3.265455z" fill="#4a4c4f"/><path d="m-147.14157 63.029895c-7.42945 0-14.16242 1.295796-19.14703 3.463189-2.49217 1.083564-4.55219 2.380819-6.04404 3.914564-1.49186 1.533745-2.42324 3.358863-2.42324 5.327412 0 1.317139.42022 2.570118 1.14335 3.715721-1.35452 2.90086-2.10032 6.070556-2.10032 9.383022 0 13.674857 12.69377 24.901027 28.57141 24.901027 15.87778 0 28.57552-11.22617 28.57552-24.901027 0-3.312731-.74937-6.481897-2.10442-9.382757.72299-1.145868 1.14335-2.398847 1.14335-3.715986 0-1.968549-.93139-3.793534-2.42324-5.327412-1.49212-1.533745-3.55598-2.831-6.04829-3.914564-4.98474-2.167393-11.7136-3.463321-19.14305-3.463321z" fill="url(#f)" stroke-width="9.52494"/><path d="m-148.17317 67.798027c-10.68054 0-19.35409 3.44768-19.35409 7.667932s8.67355 7.663425 19.35409 7.663822c5.3078 0 10.12829-.876634 13.62502-2.245604-2.8257.442757-5.97379.774826-9.36632.774826-11.40911 0-20.67137-2.870768-20.67137-6.350528 0-3.479759 9.26186-6.267809 20.67123-6.267809 2.70825 0 5.29269.09611 7.66383.385226-3.28967-1.02126-7.41779-1.627865-11.92265-1.627865z" fill="url(#f)" stroke="#4a4c4f" stroke-width="9.52494"/><path d="m-147.14118 62.988272c-7.43742.000207-14.16345 1.291951-19.16119 3.465081-2.50029 1.087118-4.55444 2.376317-6.06218 3.925983-1.48363 1.525389-2.4327 3.397876-2.4327 5.355659 0 1.957831.9468 3.833155 2.4327 5.360552 1.50772 1.549817 3.56194 2.839045 6.06218 3.925982 4.99774 2.172925 11.72337 3.465081 19.16119 3.465081 7.4374 0 14.16357-1.292088 19.16118-3.465081 2.50127-1.087608 4.55165-2.37848 6.05729-3.925982h.001c1.48379-1.525382 2.43563-3.397149 2.43563-5.360552 0-1.963356-.95406-3.832219-2.43563-5.355659h-.001c-1.50581-1.547848-3.55602-2.838438-6.05729-3.925983-4.9977-2.173113-11.72365-3.465288-19.16118-3.465081zm0 5.037627c6.83874-.000191 13.02591 1.253029 17.15219 3.047236 2.06065.895962 3.60601 1.945338 4.45539 2.818253.87326.897939 1.01085 1.409708 1.01085 1.843607 0 .434115-.13882.953032-1.00987 1.848499-.84946.873083-2.39563 1.922202-4.45637 2.818253-4.12611 1.794062-10.31345 3.047236-17.15219 3.047236-6.83913 0-13.02667-1.253106-17.15318-3.047236-2.06149-.896193-3.61193-1.94722-4.4593-2.818253-.86893-.893187-1.00596-1.408812-1.00596-1.848499 0-.439471.13476-.947882 1.00596-1.843607.84735-.870918 2.39732-1.921712 4.4593-2.818253 4.12625-1.794191 10.31432-3.047045 17.15318-3.047236z" fill="#7c8c98"/><path d="m-128.98478 68.763346c2.28113.991831 4.0796 2.16156 5.25715 3.371986 1.17742 1.210691 1.72331 2.401366 1.72331 3.599994 0 1.19876-.54589 2.393676-1.72331 3.604102-1.17755 1.210294-2.97602 2.380289-5.25702 3.372119-4.56186 1.98353-11.01857 3.255995-18.15665 3.255995-7.13848 0-13.59493-1.272598-18.15706-3.256127-2.28086-.991566-4.08345-2.16156-5.261-3.371987-1.17741-1.210293-1.71933-2.405342-1.71933-3.604102 0-1.198628.54192-2.389303 1.71933-3.599862 1.17755-1.210293 2.98-2.380022 5.26113-3.371853 4.562-1.983662 11.01858-3.256127 18.15673-3.256326 7.13814-.000199 13.59472 1.272399 18.15672 3.256061z" fill="url(#h)" stroke-width="10.0542"/><g stroke-width="2.88987" transform="matrix(.3179054 .13666353 -.13666355 .31790534 -89.966954 46.466559)"><path d="m-72.388522 216.31769c-1.752918-7.22696-5.95421-14.50727-11.961871-21.0724-6.007667-6.56512-12.87869-11.39878-17.445447-12.95594-4.56676-1.55715-6.73242-2.01365-8.92372-2.24499-2.09181-.94209-4.09522-3.00218-6.18153-6.09988-15.20078-29.29942-37.79851-48.58422-63.59198-63.95316l-.15606-.0915-.1602-.0801c-2.51788-1.25233-5.27224-2.17972-10.69378-2.14209-5.42154.0376-11.94218 4.71413-14.71294 11.0387-1.38539 3.16229-1.664 7.21209.30851 10.65 1.9725 3.43791 5.69964 5.67703 10.46293 6.77736 26.15109 6.04417 46.34172 21.41957 62.49799 46.14086 1.94305 3.90439 2.95021 7.07112 2.49752 9.61129-1.26842 4.74112-1.54103 9.50002-.88831 13.82035l.004.0295.006.0289c1.24324 7.58078 4.92245 15.56851 11.18536 22.39295 6.23091 6.81873 13.80028 11.16236 21.238496 13.04469l.0078.002.0098.004c7.41774 1.84687 15.725739 1.49511 23.139951-5.7689 4.612561-6.98848 4.745885-13.40662 3.357193-19.13191z" fill="#996f4d" stroke-width="1"/><path d="m-189.12285 112.40307c-11.17864.10848-21.02114 15.45696-5.24933 19.10028 27.47433 6.35 48.90558 22.78062 65.60079 48.44521 2.16959 4.31271 3.81 8.59896 2.98979 12.91167-1.16416 4.20687-1.40229 8.46666-.84666 12.14437 1.08479 6.61458 4.36562 13.81125 10.00125 19.94959 5.60917 6.13833 12.40896 10.00124 18.891245 11.64166 6.48229 1.61396 12.96458 1.13771 17.30375-2.83104 4.36562-3.99521 4.92125-10.10708 3.41312-16.32479-1.50812-6.21771-5.29166-12.91167-10.84791-18.97063-5.55625-6.08541-11.87979-10.45104-17.938745-12.51479-2.16959-.74083-4.36563-1.21708-6.45584-1.32292-3.59833-1.4552-6.24416-4.52437-8.62541-8.06979-14.71084-28.60146-36.56542-47.29692-62.0448-62.47871-2.01612-1.00277-4.27037-1.68011-6.19125-1.68011z" fill="#c29470" stroke-width="9.525"/><g stroke-width="1"><path d="m-121.60118 195.87648c6.50875 16.35125 19.39396 29.31583 33.760835 36.38021-2.2225.39687-5.00063.29104-8.01688-.4498-5.556245-1.40229-11.773955-4.84187-16.880415-10.39812-5.10645-5.58271-8.12271-12.27667-9.04875-17.96521-.26458-2.56646-.34396-5.31813.18521-7.56708z" fill="#996f4d" filter="url(#j)"/><path d="m-95.857225 231.80689c-5.556245-1.40229-11.773955-4.84187-16.880415-10.39812-5.10645-5.58271-8.12271-12.27667-9.04875-17.96521-.26458-2.56646-.34396-5.31813-.0106-7.45337 2.0267-.28315 4.80483-.17732 7.82108.56352 5.55624 1.40229 11.77395 4.84187 16.880415 10.39812 5.10645 5.58271 8.12271 12.27667 9.04875 17.96521.26458 2.56646.34396 5.31813.01059 7.45337-2.0267.28315-4.80483.17732-7.82108-.56352z" fill="url(#o)" filter="url(#k)"/></g></g><g><path d="m-119.52699 75.73506c0 1.923158-1.02303 3.759831-2.4907 5.268635-1.48837 1.529754-3.5256 2.81404-6.01526 3.896607-4.97468 2.16302-11.68648 3.45335-19.10813 3.45335-7.42206 0-14.13357-1.291431-19.10839-3.454387-2.4887-1.081917-4.52984-2.363616-6.02019-3.89557-1.46967-1.510705-2.48622-3.350755-2.48622-5.268635l-2.386-.000066c0 1.768654.6467 3.531175 2.05191 5.316841 1.40536 1.785863 3.55671 3.512012 6.27884 4.974968 5.44475 2.926497 13.15026 4.804088 21.66979 4.804088 8.51905 0 16.22511-1.877329 21.66953-4.803829 2.7223-1.463346 4.86856-3.189562 6.27392-4.975227 1.40521-1.785862 2.05739-3.548187 2.05739-5.31684z" fill="#4a4c4f"/><path d="m-660.65039 286.24219c0 7.39967 3.57736 14.48692 9.19336 20.25976 5.69847 5.85758 13.46238 10.73174 22.91211 14.83985 18.88909 8.21263 44.30848 13.0957 72.41992 13.0957 28.10986 0 53.53327-4.88282 72.42188-13.0957 9.45361-4.11065 17.20197-8.99102 22.89257-14.83985h.004c5.60802-5.76522 9.20508-12.83903 9.20508-20.25976h-9.51563c0 4.53074-2.06362 9.04625-6.51367 13.62109-4.45058 4.57434-11.24804 8.99744-19.86914 12.7461-17.24168 7.4968-41.64448 12.30664-68.62305 12.30664-26.98008 0-51.3823-4.80984-68.625-12.30664-8.62057-3.74766-15.43418-8.17126-19.88476-12.7461-4.45006-4.57434-6.49805-9.09035-6.49805-13.62109zm190.01367 0c0 .61528-.074 1.27549-.33984 2.03906.26583-.76311.34164-1.42432.34179-2.03906zm-.33984 2.03906c-.086.24708-.19398.50668-.32422.77734.13088-.27167.23785-.52941.32422-.77734zm-170.28906.0312c.0794.22703.17867.4646.29492.71094-.11589-.24585-.21581-.48434-.29492-.71094zm169.9414.79492c-.13322.27237-.2886.5553-.47461.85547.18555-.29939.34155-.58371.47461-.85547zm-.47461.85547c-.19149.30902-.41385.63384-.66992.97656.25614-.3428.47834-.66744.66992-.97656zm-.66992.97656c-.51215.68545-1.16134 1.44296-1.98437 2.28907.82303-.84611 1.47208-1.60345 1.98437-2.28907zm-168.43164-1.77148c.11872.23956.25498.48943.41406.75-.15945-.26123-.2952-.50991-.41406-.75zm.48633.86328c.17022.27157.36242.55634.58203.85352-.21948-.29705-.41193-.5821-.58203-.85352zm146.10351 15.0957c-.99238.39069-2.01567.7723-3.06054 1.14649 1.04616-.37462 2.067-.75534 3.06054-1.14649zm-123.54883.0312c.92368.36271 1.87278.71599 2.8418 1.06446-.96812-.34816-1.91894-.70208-2.8418-1.06446zm120.22266 1.21094c-1.04829.37242-2.11859.73711-3.2168 1.0918 1.09762-.35449 2.16904-.71961 3.2168-1.0918zm-116.84375.0449c.98076.34702 1.98163.68797 3.00586 1.01953-1.0251-.33182-2.02431-.67222-3.00586-1.01953zm113.625 1.04688c-1.09206.35269-2.21241.69527-3.35156 1.02929 1.13988-.3342 2.25883-.6764 3.35156-1.02929zm-110.45703.0254c1.0209.32892 2.06498.64828 3.12695.96094-1.06113-.31241-2.10682-.63229-3.12695-.96094zm106.74609 1.10937c-1.06949.31039-2.15903.6113-3.26757.9043 1.10861-.29299 2.19801-.59392 3.26757-.9043zm-103.00976.0293c1.00056.28948 2.01809.5714 3.05273.8457-1.03464-.27429-2.05217-.55623-3.05273-.8457zm28.10351 5.4668c1.48681.16859 2.99006.32148 4.50782.45898-1.51778-.13749-3.02099-.2904-4.50782-.45898zm4.50782.45898c1.51775.1375 3.0496.26014 4.5957.36524-1.54612-.10509-3.07793-.22775-4.5957-.36524zm4.5957.36524c1.43935.0978 2.89177.17938 4.35352.24804-1.46135-.0686-2.91455-.15024-4.35352-.24804zm37.59375-.82422c-1.48676.16858-2.99011.32148-4.50781.45898 1.51772-.13751 3.02103-.29039 4.50781-.45898zm-4.50781.45898c-1.5177.1375-3.04967.26014-4.59571.36524 1.54606-.10511 3.07799-.22773 4.59571-.36524zm-4.59571.36524c-1.43889.0978-2.89224.1794-4.35351.24804 1.46169-.0687 2.9142-.1502 4.35351-.24804zm-23.45507.27734c1.33309.0583 2.67567.10554 4.02539.13867-1.35027-.0331-2.69175-.0804-4.02539-.13867zm18.42187 0c-1.33689.0584-2.68352.1055-4.03711.13867 1.35361-.0332 2.7002-.0802 4.03711-.13867zm-13.68359.1543c1.36736.0289 2.74256.0446 4.125.0469-1.38244-.002-2.75763-.0179-4.125-.0469zm8.94726 0c-1.37051.029-2.74912.0446-4.13476.0469 1.38621-.002 2.76369-.0178 4.13476-.0469z" fill="#7c8c98" stroke-width="3.77953" transform="scale(.26458334)"/><path d="m-172.27861 75.734512v.000551c0 1.198758.54186 2.393619 1.71927 3.603914 1.17755 1.210426 2.98032 2.380837 5.26118 3.372403 4.56213 1.983531 11.01856 3.256132 18.15704 3.256132 7.13808 0 13.59465-1.272601 18.15651-3.256132 2.281-.991831 4.0795-2.162109 5.25705-3.372403 1.17741-1.210427 1.7234-2.405156 1.7234-3.603914 0-.000172 0-.000264 0-.000551h-2.51819c0 .434115-.13922.953516-1.01027 1.848982-.84946.873083-2.39533 1.921868-4.45606 2.817916-4.12611 1.794063-10.3137 3.04736-17.15244 3.04736-6.83913 0-13.02645-1.253228-17.15296-3.04736-2.06148-.896191-3.61179-1.946881-4.45916-2.817916-.86893-.893185-1.00614-1.409295-1.00614-1.848982z" fill="url(#l)" stroke-width="10.0542"/></g><path d="m-452.62305 308.8457c-5.25239 5.84983-12.59279 11.4543-21.60156 16.29688-20.57733 11.06079-49.70241 18.1543-81.90039 18.1543-32.1998-.00001-61.32181-7.09548-81.90039-18.15626-8.99969-4.83671-16.35042-10.43307-21.60547-16.27734-2.91523 8.53172-4.48047 17.55885-4.48047 26.88672 0 51.6845 47.97635 94.11328 107.98633 94.11328 60.01051 0 108.00195-42.42878 108.00195-94.11328 0-9.33507-1.57623-18.36789-4.5-26.9043z" fill="url(#m)" stroke-width="35.9998" transform="scale(.26458334)"/></g><g stroke-width="2.272" transform="matrix(-.37356745 -.23274732 -.23274724 .37356743 69.74407 18.189422)"><path d="m-72.388522 216.31769c-1.752918-7.22696-5.95421-14.50727-11.961871-21.0724-6.007667-6.56512-12.87869-11.39878-17.445447-12.95594-4.56676-1.55715-6.73242-2.01365-8.92372-2.24499-2.09181-.94209-4.09522-3.00218-6.18153-6.09988-15.20078-29.29942-37.79851-48.58422-63.59198-63.95316l-.15606-.0915-.1602-.0801c-2.51788-1.25233-5.27224-2.17972-10.69378-2.14209-5.42154.0376-11.94218 4.71413-14.71294 11.0387-1.38539 3.16229-1.664 7.21209.30851 10.65 1.9725 3.43791 5.69964 5.67703 10.46293 6.77736 26.15109 6.04417 46.34172 21.41957 62.49799 46.14086 1.94305 3.90439 2.95021 7.07112 2.49752 9.61129-1.26842 4.74112-1.54103 9.50002-.88831 13.82035l.004.0295.006.0289c1.24324 7.58078 4.92245 15.56851 11.18536 22.39295 6.23091 6.81873 13.80028 11.16236 21.238496 13.04469l.0078.002.0098.004c7.41774 1.84687 15.725739 1.49511 23.139951-5.7689 4.612561-6.98848 4.745885-13.40662 3.357193-19.13191z" fill="#996f4d" stroke-width="1"/><path d="m-189.12285 112.40307c-11.17864.10848-21.02114 15.45696-5.24933 19.10028 27.47433 6.35 48.90558 22.78062 65.60079 48.44521 2.16959 4.31271 3.81 8.59896 2.98979 12.91167-1.16416 4.20687-1.40229 8.46666-.84666 12.14437 1.08479 6.61458 4.36562 13.81125 10.00125 19.94959 5.60917 6.13833 12.40896 10.00124 18.891245 11.64166 6.48229 1.61396 12.96458 1.13771 17.30375-2.83104 4.36562-3.99521 4.92125-10.10708 3.41312-16.32479-1.50812-6.21771-5.29166-12.91167-10.84791-18.97063-5.55625-6.08541-11.87979-10.45104-17.938745-12.51479-2.16959-.74083-4.36563-1.21708-6.45584-1.32292-3.59833-1.4552-6.24416-4.52437-8.62541-8.06979-14.71084-28.60146-36.56542-47.29692-62.0448-62.47871-2.01612-1.00277-4.27037-1.68011-6.19125-1.68011z" fill="#c29470" stroke-width="9.525"/><g stroke-width="1"><path d="m-121.60118 195.87648c6.50875 16.35125 19.39396 29.31583 33.760835 36.38021-2.2225.39687-5.00063.29104-8.01688-.4498-5.556245-1.40229-11.773955-4.84187-16.880415-10.39812-5.10645-5.58271-8.12271-12.27667-9.04875-17.96521-.26458-2.56646-.34396-5.31813.18521-7.56708z" fill="#996f4d" filter="url(#j)"/><path d="m-95.857225 231.80689c-5.556245-1.40229-11.773955-4.84187-16.880415-10.39812-5.10645-5.58271-8.12271-12.27667-9.04875-17.96521-.26458-2.56646-.34396-5.31813-.0106-7.45337 2.0267-.28315 4.80483-.17732 7.82108.56352 5.55624 1.40229 11.77395 4.84187 16.880415 10.39812 5.10645 5.58271 8.12271 12.27667 9.04875 17.96521.26458 2.56646.34396 5.31813.01059 7.45337-2.0267.28315-4.80483.17732-7.82108-.56352z" fill="url(#o)" filter="url(#k)"/></g></g><g stroke-width="1.84855" transform="matrix(-.54096509 0 0 .54096509 144.96916 77.8861)"><path d="m63.576563 9.2000219c-3.188583.048144-5.852852 1.4123681-7.997937 3.2460621-2.966008-1.480572-6.492973-2.350118-10.199851-1.195182-2.780477.865918-5.187614 2.666393-6.965955 5.06566-1.011655-.40645-2.0017-.729631-3.00306-.865165-1.614183-.218481-3.311317.07692-4.549447.632531-2.319214 1.038432-3.580707 2.663541-4.962413 4.501657l-2.462955 3.276719 15.72131 12.15515c-.530186.543725-1.073973 1.073995-1.572088 1.64873l-.0035.0036-.0035.0041c-6.5276 7.567638-10.404131 17.481627-8.254458 26.434667 1.02291 4.263353 2.864545 8.340732 5.56789 11.872473.0017.0021.0026.0043.0044.0063 3.590688 5.213665 7.919514 9.076598 13.50001 10.890538 5.649402 1.836333 12.137952 1.627862 20.257235.05365l.178535-.03471.174923-.05004c7.996044-2.290687 13.586053-6.403115 16.659061-11.800789 3.073008-5.39767 3.569071-11.626188 2.930472-17.93359l-.0058-.05636-.0072-.05636c-1.681165-13.046511-9.862717-22.188825-20.205095-28.719568l5.730651-14.170414-2.443561-1.930505c-2.488841-1.966547-5.340299-3.0206457-8.08765-2.9791633zm.125334 8.3090171c.02059-.0003.04458.0044.06535.0045l-3.874987 9.582195c-1.90295 1.572468-4.523719 2.907955-7.131865 3.580588l-.0026.000461-.0026.00096c-2.540558.65866-5.09156.618794-6.501594.323254l-5.562528-4.300997 1.762793.907546 1.605442-4.447106c.845195-2.340924 2.131108-3.458748 3.790684-3.975524h.000462c1.040489-.324182 3.165874.06102 4.99307 1.180755.000698.00037.000873.000531.0017.000872l4.394809 2.756448 2.313717-2.892602c1.469001-1.836247 3.006105-2.704037 4.148198-2.721282zm2.712715 19.467357c7.70254 5.399886 12.704029 11.775919 13.915237 21.018702.530599 5.298765-.0051 9.634603-1.886774 12.939615-1.869119 3.283072-5.133054 5.993924-11.548311 7.86584-7.314692 1.400767-12.314558 1.349982-15.930956.174476-3.647632-1.18566-6.342758-3.457044-9.335586-7.852765l-.06535-.09558-.07032-.09243c-1.932717-2.523623-3.313943-5.533983-4.089134-8.765267v-.000462l-.000462-.000462c-.866265-3.607862.217314-8.758986 2.766369-13.580261-.335502 5.717723.799951 11.410544 2.6248 16.744723l1.341261 3.92052 11.131286-3.773998-1.339-3.937203c-.230863-.679015-.414205-1.330836-.61134-1.990468l6.738729-5.615686-2.6248-3.188354c-1.801111-2.188018-3.06475-4.841913-3.875441-8.200814.722802-.135521 1.443352-.296923 2.159532-.483755l.0061-.0018.0061-.0014c3.358385-.886481 7.258821-2.50027 10.688562-5.083242zm-11.574011 1.745207-.0052.0014c.000698-.000198.0017-.000692.0026-.000959.000873-.000231.0017-.00018.0035-.000462z" fill="#484537"/><path d="m63.63923 13.35453c-2.860505.04319-5.390812 1.856568-7.329785 4.280294l-1.292569-.810614c-2.529906-1.551187-5.687771-2.452118-8.402336-1.606349-2.91771.908548-5.244488 3.155672-6.463276 6.531347l-1.735739-.893569c-2.991571-1.540107-4.557788-1.564124-5.855984-.980581-1.03597.463509-2.115963 1.578546-3.340291 3.20729l15.216364 11.765171c2.382185.77559 5.872011.756983 9.362186-.147875 3.508626-.90486 6.999097-2.677624 9.547481-5.059801l5.742821-14.200619c-1.897427-1.499248-3.732571-2.110608-5.448872-2.084694zm2.476024 18.409231c-3.139308 3.176236-7.81169 5.318163-11.449585 6.278424-1.274187.332396-2.548008.572698-3.785266.701961-.683263 1.126458-1.256032 2.271106-1.699228 3.41603.886392 4.505823 2.54834 8.199266 5.041316 11.227767l-2.659061 2.215888c-1.532724-1.846648-2.899031-3.841084-3.933143-6.05706-.166198 4.284224.794114 8.716128 2.36376 13.332748l-3.268603 1.108171c-2.880772-8.420717-3.859772-17.044803.184388-25.170056-1.366517-.110797-2.658886-.369206-3.859204-.793932l-.05549-.01849c-.794053.757127-1.551141 1.551257-2.271343 2.382248-5.829864 6.758733-9.04134 15.752043-7.360895 22.750839.89932 3.748697 2.511383 7.293974 4.830771 10.322477 6.6094 9.707556 14.129872 12.404044 29.667658 9.391487 14.536032-4.164242 17.777295-13.693459 16.600001-25.321533-1.502893-11.664128-8.580006-19.611652-18.346111-25.76697z" fill="url(#n)"/></g></g></svg>