<svg height="500" viewBox="0 0 132.29167 132.29167" width="500" xmlns="http://www.w3.org/2000/svg" xmlns:xlink="http://www.w3.org/1999/xlink"><linearGradient id="a" gradientUnits="userSpaceOnUse" x1="-437.62766" x2="-437.62766" xlink:href="#b" y1="41.709736" y2="89.678802"/><linearGradient id="b"><stop offset="0" stop-color="#a77858"/><stop offset="1" stop-color="#866046"/></linearGradient><linearGradient id="c" gradientUnits="userSpaceOnUse" x1="-437.6279" x2="-437.6279" xlink:href="#b" y1=".324696" y2="36.544106"/><linearGradient id="d" gradientTransform="matrix(.70852579 0 0 .84249585 115.34622 -236.16161)" gradientUnits="userSpaceOnUse" spreadMethod="reflect" x1="-75.162231" x2="-56.490837" y1="363.89615" y2="379.59848"><stop offset="0" stop-color="#9f571d"/><stop offset=".511236" stop-color="#fde791"/><stop offset="1" stop-color="#b7671e"/></linearGradient><linearGradient id="e" gradientTransform="matrix(.34440893 0 0 1.0675561 36.568764 -4.095293)" gradientUnits="userSpaceOnUse" x1="66.048439" x2="66.048439" y1="77.644974" y2="81.380188"><stop offset="0" stop-color="#866046" stop-opacity="0"/><stop offset="1" stop-color="#866046"/></linearGradient><linearGradient id="f" gradientTransform="matrix(.34440893 0 0 1.0675561 36.568764 -4.095293)" gradientUnits="userSpaceOnUse" x1="66.048439" x2="66.048439" y1="77.644974" y2="81.380188"><stop offset="0" stop-color="#533c2c" stop-opacity="0"/><stop offset="1" stop-color="#533c2c"/></linearGradient><filter id="g" color-interpolation-filters="sRGB" height="1.614207" width="1.096278" x="-.048139" y="-.307103"><feGaussianBlur stdDeviation="2.0984039"/></filter><filter id="h" color-interpolation-filters="sRGB" height="1.023425" width="1.019372" x="-.009686" y="-.011713"><feGaussianBlur stdDeviation=".88661584"/></filter><filter id="i" color-interpolation-filters="sRGB" height="1.025881" width="1.022374" x="-.011187" y="-.01294"><feGaussianBlur stdDeviation=".27702716"/></filter><linearGradient id="j" gradientUnits="userSpaceOnUse" spreadMethod="reflect" x1="-168.85594" x2="-161.67001" y1="-33.677025" y2="-25.250298"><stop offset="0" stop-color="#74533a"/><stop offset="1" stop-color="#8a6447"/></linearGradient><path d="m78.280903 96.82998c-4.481226.0532-9.164762.253869-13.939836.289131-19.344785.374483-39.898972.187876-60.4952584-.24234-6.2234249-.382726-.7663408 1.024228-1.2070858 1.478449 2.048998 1.73921 5.4523878 3.49645 6.8767996 5.22636.9976016 1.48409-.4172744 3.04492 5.9880746 4.52233 3.525072.44734 9.263147.69072 8.051722 1.53799.08478.83217 2.195013 1.71031 2.303003 2.54207 3.252635.42357 8.243162.29847 12.231732.50493 15.50194.47434 31.092917.7142 45.34873.33273 7.471765-.15814 14.595392-.44758 21.965286-.63775.51006-.52263-2.48679-1.25842-3.32998-1.87323-.76767-.62851-4.645999-1.27196-3.75466-1.87409 5.76553-.11499 5.08189-1.16197 3.62339-1.94734-3.182382-1.61541-10.244923-3.13433-12.965009-4.76102-3.630927-1.69867-7.464247-3.395798-10.696908-5.09822z" filter="url(#g)" opacity=".5" transform="matrix(1 0 0 .7600425 4.1916 26.949353)"/><g stroke-width="1.30905" transform="matrix(.76391586 0 0 .76391586 404.63809 29.346849)"><path d="m-392.54218-18.949863c-11.24071 1.764938-22.48932 2.758523-33.74419 3.103686l-22.66218-.148311c-11.51406-.475976-23.04251-1.534564-34.57774-3.04891l-5.18986-.679545.51005 48.144316.16381 2.992065c1.32061 24.287044.9587 48.550728-1.32395 72.806922l-.40824 4.31808 4.18527 1.14257c31.9341 8.71699 64.00333 8.42436 95.85979.0119l4.13825-1.09193-.31057-4.27157v-.002c-1.80128-24.670426-2.42118-49.28703-1.19797-73.910106l-.0559-2.374789-.17758-47.810416z" fill="#533c2c"/><path d="m-484.21884 104.30827c31.06261 8.47911 62.12099 8.20262 93.18308 0-1.81319-24.833261-2.44026-49.663871-1.2237-74.162043l.5285-44.395728c-11.48239 1.80287-22.9616 2.81667-34.4289 3.16672l-22.93607-.14883c-11.70623-.48207-23.40505-1.55826-35.09037-3.09232l1.31943 45.291066c1.32111 24.294534.95599 48.816114-1.35197 73.341135z" fill="url(#a)"/></g><g stroke-width="1.30905" transform="matrix(.76391586 0 0 .76391586 404.63809 29.346849)"><path d="m-446.55273 90.91966c5.92152.58167 11.93609.617105 17.85001-.0373 7.64066-.845482 15.18246-2.684973 22.51445-4.995072 6.90945-2.176969 13.49246-5.298548 20.08329-8.305318 1.63192-.744491 4.8125-2.407633 4.8125-2.407633l-6.04071-94.942236-5.20898.818038c-11.24072 1.764938-22.48932 2.758523-33.74419 3.103686l-22.66219-.148311c-11.51406-.475976-23.04251-1.534564-34.57774-3.04891l-5.18986-.679545-.29456 2.531112-4.9258 92.205923s2.78406 1.831112 4.26151 2.594659c6.51999 3.369537 13.21234 6.531153 20.2183 8.717592 7.43311 2.319743 15.1546 3.832097 22.90397 4.593317z" fill="#533c2c"/><path d="m-406.18827 80.240872c6.65296-2.239247 12.34156-4.917334 19.303-8.418949l-4.84569-86.071424c-11.48239 1.802871-22.9616 2.816671-34.4289 3.166721l-22.93607-.14883c-11.70623-.48207-23.40505-1.558261-35.09037-3.092321l-4.23333 86.278654c6.44353 3.983555 12.30316 6.963616 18.96293 9.202175 7.35053 2.470747 15.09805 3.785862 22.81523 4.547453 5.95068.587258 12.00148.710081 17.93875 0 7.66798-.917069 15.19529-3 22.51445-5.463479z" fill="url(#c)"/><g stroke-width="1.30905" transform="matrix(1.3090447 0 0 1.3090447 -778.64684 -160.0977)"><path d="m278.73815 121.53864c5.70421.94108 12.56287 4.4325 16.63116 6.83441l1.22942 1.00021 1.18906 21.12066c-.67464.95043-4.0697 2.51608-5.56476 3.04214-.67059.236-1.44238.43371-2.30198.60427 2.66721-3.41436 3.33414-6.43317 2.69059-10.01038l-2.23805.40327c.84949 4.36921-1.73017 8.12897-4.31463 9.72953l-.90331.55209-.30409.48184c-1.19792 2.15568-3.5417 3.25341-6.49696 5.19899l-1.22837.80893 1.09218.98517c1.24239 1.12098 2.15554 2.07697 2.32041 3.35537l.20113 1.55924 3.04445-1.45856c1.41396 1.55596 2.5861 3.23333 3.49345 5.05661-1.38679.84696-4.61443 2.41757-6.20374 2.06509-4.06929-2.75577-7.51915-8.52769-8.98124-12.37501.81916-3.11418 2.75135-5.88221 5.08844-8.84947l.51798-.65758c-.61311-.95914-1.44389-1.89163-2.28466-2.43955-3.31747-2.63702-4.47698-4.82466-4.73003-6.74155-.0853-2.67265.7781-4.52802 1.7821-6.70088l-2.06434-.95384c-1.16317 2.64485-2.23766 5.6394-1.97223 7.95249.21224 1.60851.90937 3.26908 2.25599 4.97752-1.17998-.1746-2.0915-.32519-3.26996-.52063l-.0331 1.30669c-.0556 2.1951-.21073 3.10396-1.98955 6.26249l-.19632.34907 1.06842 6.45616c-.93893 1.32956-2.56841 1.4545-3.91566 1.36203-3.1766-3.39276-5.36828-7.22138-7.2138-11.25125 1.12388-.2312 2.01961-.76093 2.5837-1.50277.63497-.83496.80956-1.8699.63888-2.79671-.34136-1.85335-2.12649-3.49319-4.37881-3.16396l.0384-.005c-.54046.0604-1.09028.10473-1.64679.13771 5.33418-5.79601 4.89516-13.21093 9.43897-17.53795 4.79825-2.80037 11.28688-4.5951 16.92754-4.63666zm-37.85753 16.80486c3.28146 1.0347 6.68799 2.13382 10.1491 2.90927-.37157.76916-.74064 1.53952-1.10721 2.31107-3.66666-1.36506-6.5144-3.22852-9.04189-5.22021zm-2.52394 6.95519c5.16867.49069 10.76422 1.11113 15.91356.53693l.0193-.002.0192-.003c1.04821-.15325 1.67269.56055 1.81368 1.32577.0704.38267.004.72315-.21274 1.00854-.21326.28047-.61729.57104-1.46298.6898-6.64099.24282-11.72299-1.47523-16.09018-3.55611zm20.63323 5.52569c-.51393-.01-1.24201.76686-1.25578 1.24694-.0155.54704.54046 1.68671 1.52942 2.90295.295-1.02092 1.04481-4.10314-.27364-4.14989zm1.76365 8.17016 2.51182 2.47367s.25406-1.52804-.20479-2.02997c-.76269-.37509-1.51806-.48854-2.3069-.4437zm26.42638 5.12433c1.46714 1.39791 2.53544 2.98507 3.44102 4.69175-.4706.24686-.93805.51797-1.40057.79591-.89269-1.75354-2.00369-3.37797-3.30343-4.88264z" fill="#774f37" filter="url(#i)" opacity=".33"/><g transform="scale(.26458334)"><path d="m1124.9258 568.79688c-2.4091 3.39385-13.4212 8.82141-19.4024 11.09179-1.5485 2.84724-3.4466 5.72835-5.7597 8.68945 3.2489-.64463 6.1666-1.39318 8.7011-2.28515 5.6507-1.98826 14.9062-6.37917 17.456-9.97134zm-102.9336-61.7754c-4.3962 9.99629-8.4563 21.31426-7.4531 30.05664.7883 5.97432 3.3531 12.13919 8.2714 18.47852-2.3692-4.24441-3.7341-8.40594-4.2714-12.47852-1.0032-8.74238 3.0588-20.06035 7.455-30.05664l2.2344 1.03321c.5076-1.12754 1.0288-2.26422 1.5664-3.42774zm-107.57814 21.85157c9.55272 7.52764 20.31754 14.57118 34.17578 19.73047 1.38547-2.9161 2.77924-5.82732 4.1836-8.73438-2.06121-.46181-4.11414-.96365-6.16406-1.48047-.67302 1.40518-1.35093 2.80757-2.01954 4.21485-8.49577-3.16289-15.82614-7.03457-22.42968-11.29102-2.59665-.81466-5.18735-1.63264-7.7461-2.43945zm48.76953 13.68164c-1.59725 2.25198-3.35842 4.46438-5.33789 6.61523 2.10335-.12465 4.17998-.2932 6.22266-.52148l-.14453.0195c4.73184-.69167 8.9151.91984 11.92187 3.6875-1.85481-5.11711-6.60694-9.3459-12.66211-9.80078zm142.75001 2.1875-8.459 1.52539c3.2107 16.51355-6.5386 30.72408-16.3066 36.77344l-3.4141 2.08593-1.1504 1.82032c-4.5276 8.14745-13.3852 12.29701-24.5547 19.65039l-4.6426 3.05664 4.127 3.72461c.4798.43293.9385.85547 1.3906 1.27734l3.125-2.05859c11.1695-7.35338 20.0271-11.50294 24.5547-19.65039l1.1504-1.82032 3.4141-2.08593c9.768-6.04936 19.5173-20.25989 16.3066-36.77344l5.2344-.94336c-.1186-2.148-.371-4.33391-.7754-6.58203zm-75.9492 6.10937c2.6447 4.99277 7.2591 10.4662 14.9531 16.58203 1.4636.95381 2.9162 2.2238 4.2871 3.66211l.3477-.4414c-2.3173-3.6251-5.4571-7.14983-8.6348-9.22071-4.7263-3.75689-8.2912-7.27163-10.9531-10.58203zm-19.2774 3.07227-.125 4.93945c-.2101 8.29644-.7964 11.73022-7.5195 23.66797l-.7422 1.32031 4.0371 24.40039c-1.8329 2.5955-4.3631 3.96999-7.08201 4.65039-.002 1.78232-.25586 3.3711-.25586 3.3711l-2.91211-2.86914c-1.54615.12213-3.09125.0961-4.54883-.004-4.11017-4.38986-7.77488-8.97638-11.10937-13.7168 4.3464 6.89136 9.28773 13.499 15.10937 19.7168 5.09201.34949 11.25011-.12333 14.79881-5.14844l-4.0371-24.40039.7422-1.32031c6.7231-11.93775 7.3094-15.37153 7.5195-23.66797l.125-4.93945c4.4541.73867 7.8996 1.30884 12.3594 1.96875-1.5936-2.02175-2.9468-4.02789-4.0781-6.01367-4.419-.65461-7.8554-1.22108-12.2813-1.95508zm-105.832 1.23633c16.50591 7.86474 35.7127 14.35719 60.8125 13.43945 3.19631-.44886 4.72327-1.54543 5.5293-2.60547.81917-1.07864 1.07076-2.36619.80468-3.8125-.38324-2.08005-1.71663-4.05293-3.90625-4.78516-.027.95849-.31673 1.8317-.89843 2.59766-.80603 1.06004-2.33299 2.15661-5.5293 2.60547-16.54098.6048-30.51143-2.01729-42.84766-6.12109-4.71367-.42413-9.38595-.88366-13.96484-1.31836zm73.98438 14.88476c-.008-.00015-.0158.002-.0234.002-.23559.39182-.49394.77577-.77735 1.14843-1.03123 1.35619-2.36011 2.52074-3.93359 3.46485-.003.0322-.0108.0661-.0117.0976-.0572 2.0176 1.95538 6.1716 5.52539 10.64258-1.01977-1.95507-1.5552-3.59048-1.52539-4.64258.042-1.46425 1.8425-3.65687 3.55664-4.42969.19408-3.33945-.36313-6.19642-2.81054-6.2832zm7.77929 30.84375c-.36903.002-.7406.014-1.11328.0352l6.08203 5.98828c1.23188.056 2.44874.23755 3.66016.56641.0545-1.75574-.0966-3.86306-1.02344-4.87696-2.52228-1.24045-5.02227-1.72497-7.60547-1.71289zm72.98433 22.46289c.3266.86583.5598 1.76367.6817 2.70899l.7598 5.89257 2.9375-1.40624c-.6904-2.61492-2.2568-4.90231-4.379-7.19532zm25.5821 4.95117-.5742.27539c1.7989 2.08254 3.5014 4.22793 5.1035 6.4336-1.4076-2.29878-2.9185-4.5344-4.5293-6.70899zm-42.4239 4.79883c6.3606 10.16102 14.5462 20.16047 23.5469 26.25586 6.0069 1.33221 18.2059-4.60358 23.4473-7.80469-2.0309-4.08105-4.4218-7.96427-7.1367-11.67773 1.1201 1.85181 2.1728 3.74085 3.1367 5.67773-5.2414 3.20111-17.4404 9.1369-23.4473 7.80469-7.2126-4.88448-13.8974-12.28318-19.5469-20.25586zm53.2735.75391c.8185 1.36745 1.6054 2.75436 2.3555 4.16797-1.6225.8511-3.2325 1.78462-4.8301 2.73828 1.2595 2.04196 2.4462 4.1287 3.5371 6.27148 1.7481-1.05048 3.5143-2.07675 5.293-3.00976-1.8798-3.54261-3.9569-6.94153-6.3555-10.16797z" fill="#a77858"/><path d="m1049.498 453.35938c-21.319.15707-45.8434 6.94131-63.97847 17.52539-17.17345 16.35409-15.51315 44.37897-35.67383 66.28515 2.10335-.12465 4.17998-.2932 6.22266-.52148l-.14453.0195c1.12106-.16387 2.20838-.1924 3.25976-.11328 14.67056-20.68423 14.84866-44.92155 30.33594-59.66992 18.13507-10.58408 42.65947-17.36832 63.97847-17.52539 21.5593 3.55683 47.4813 16.75199 62.8575 25.83007l.2109.19336-.1387-2.47656-4.0722-3.7168c-15.3762-9.07808-41.2982-22.27324-62.8575-25.83007zm-25.2695 54.69531c-3.0751 6.83091-5.4447 13.22822-5.168 21.89843.5959 4.514 2.524 9.42667 6.9239 14.89844-1.6653-3.14371-2.5543-6.09919-2.9239-8.89844-.3223-10.10135 2.9398-17.11378 6.7344-25.32617zm-117.81444 8.81836c3.69644 2.91283 7.57799 5.75281 11.7461 8.43945 8.00626 2.51185 16.17346 4.98974 24.44922 7.07617.72157-1.50657 1.43743-3.01539 2.16406-4.51953-13.08136-2.93083-25.95701-7.08542-38.35938-10.99609zm-9.53906 26.28711c5.62838 2.68181 11.58169 5.19492 17.96484 7.31836 15.3965 1.38533 31.28134 2.37246 46.18164.71093l.0723-.008.0723-.0117c1.11245-.16264 2.09431-.0593 2.94921.22656.011-.39128-.0166-.79557-.0937-1.21484-.53287-2.89217-2.89373-5.59093-6.85546-5.01172l-.0723.0117-.0723.008c-19.46207 2.17021-40.61135-.17472-60.14648-2.02929zm209.0586 1.58203-3.2246.58203c.5945 10.76999-2.5408 20.49502-10.9453 31.2539 3.2489-.64463 6.1666-1.39318 8.7011-2.28515.312-.10977.7091-.27163 1.0586-.4043 5.2001-9.56118 6.2844-18.72866 4.4102-29.14648zm-134.08985 1.61328c.26901.74207.48896 1.49911.63086 2.26953.64509 3.5029-.0161 7.41456-2.41602 10.57031-2.13199 2.80381-5.51593 4.80586-9.76367 5.67969 4.58804 10.01843 9.75101 19.7046 16.1582 28.8125-4.61855-7.32225-8.56443-14.96515-12.1582-22.8125 2.19313-.45116 4.15052-1.20709 5.83008-2.21484.14168-1.81276 2.80372-4.62746 4.71094-4.61328 1.7594-2.9262 2.20758-6.33264 1.63867-9.42188-.57311-3.1116-2.22778-6.05799-4.63086-8.26953zm46.96675 3.20117c.06.1077.1164.21446.1778.32227.028.004.05.008.078.0117-.088-.11161-.1693-.22247-.2559-.33398zm26.4141 15.53906-1.6094 2.04297c-8.8331 11.21484-16.1363 21.67714-19.2324 33.44727 2.9355 7.72448 8.0039 17.49482 14.4043 26.52539-4.5111-7.2051-8.1111-14.49114-10.4043-20.52539 3.0961-11.77013 10.3993-22.23243 19.2324-33.44727l1.9571-2.48437c-1.25-1.95545-2.7422-3.87409-4.3477-5.5586zm-66.36522 4.94922c-.37492-.007-.77947.0984-1.18946.2832-.20108 3.45992-1.20803 7.43692-1.77539 9.4004-.091-.11189-.16878-.22052-.25781-.33204.98431 1.88783 2.42083 4.07484 4.25781 6.33399 1.11496-3.8586 3.94796-15.50886-1.03515-15.68555zm7.77929 30.84375c-.36903.002-.7406.014-1.11328.0352l6.58203 6.48047c1.06539-.0842 2.12969-.24213 3.16797-.50196.001-1.61946-.20564-3.39766-1.03125-4.30078-.99367-.48868-1.98315-.85337-2.97656-1.12304-.0475 1.52932-.24805 2.79492-.24805 2.79492l-3.41211-3.36133c-.32214-.0146-.64422-.025-.96875-.0234zm62.28513 7.76758-1.5176.99805 4.127 3.72461c1.5172 1.36894 2.8859 2.67177 4.0898 3.97265-1.172-3.10741-3.5922-5.79636-6.6992-8.69531zm32.4805 5.63477-4.7734 2.2871c1.6045 1.85754 3.1257 3.76927 4.5742 5.72461l4.1992-2.01171c2.4997 2.38175 4.6816 4.91612 6.6504 7.56445-2.9166-4.87235-6.3205-9.43888-10.6504-13.56445zm-12.834 6.15039-8.5683 4.10547c.1301.49291.2358.99495.3027 1.51367l.7598 5.89257 11.5058-5.51171c2.1792 2.39808 4.199 4.87662 6.0684 7.43359-2.865-4.73664-6.2263-9.20571-10.0684-13.43359zm17.1641 8.57031c1.2017 1.96249 2.3365 3.96619 3.3828 6.02148.1535-.0922.3091-.1797.4629-.27148-1.2096-1.96096-2.4873-3.87986-3.8457-5.75z" fill="#533c2c" filter="url(#h)"/></g></g></g><g transform="translate(4.1916 6.724671)"><g><path d="m59.298708 66.213014v26.032521c-.0951 1.963066.670992 3.623844 1.769401 5.031734 1.124821 1.441742 2.775156 2.779081 5.076176 2.760041 2.263114-.0187 3.958752-1.28486 5.140771-2.777611 1.140831-1.440735 1.939808-3.275829 1.685686-5.36298v-25.683705h-2.645317v25.867673c.372561 2.368683-1.944574 5.29159-4.201811 5.31027-2.198576.0182-4.326385-2.960355-4.17804-5.104081v-26.073862z" fill="url(#f)"/><path d="m66.123358 97.391108c2.257239-.01868 4.574733-2.94178 4.202172-5.310466v-25.867605h-8.380188v26.074065c-.148346 2.143728 1.979438 5.122202 4.178016 5.104006z" fill="url(#e)"/></g><g stroke-linecap="round" stroke-linejoin="round"><path d="m59.318359 86.769531a1.3230472 1.3230472 0 0 0 -1.324218 1.324219v3.986328a1.3230472 1.3230472 0 0 0 1.324218 1.324219h13.634766a1.3230472 1.3230472 0 0 0 1.324219-1.324219v-3.986328a1.3230472 1.3230472 0 0 0 -1.324219-1.324219zm1.322266 2.646485h10.990234v1.341796h-10.990234z" fill="#84542e"/><path d="m59.317548 92.080642h13.636135v-3.987551h-13.635906z" fill="url(#d)" stroke-width="2.64583"/></g></g><g stroke-width="1.13697" transform="matrix(.27004274 .73363256 .96284834 -.24883032 61.558691 205.504635)"><path d="m-642.04283-39.577032c-10.50812 3.72906-26.08093 13.630618-34.18688 27.492533-8.10592 13.8619141-8.97003 29.72455-5.73438 44.02539 6.47127 28.601676 27.15032 53.782384 47.64844 71.302739 11.36704 9.71603 25.32633 14.9033 34.99882 27.02691l6.35547 7.9668 9.74414-2.97657s57.33596-15.9672 86.12114-23.58439c46.33554-12.261393 139.3667-35.599981 139.3667-35.599981l-13.56836-17.228515c-8.58368-10.901049-19.9609-30.532661-30.44948-39.725691 16.20739-22.1849993 15.32312-54.768405 4.98176-74.862637-9.97003-19.372684-30.0055-33.507668-45.72248-33.477467z" fill="#2f1809" stroke-width=".905999" transform="scale(.26458334)"/><path d="m-155.46606 31.992512c-2.68442-3.364686-6.54021-4.919-9.7854-7.692839-9.85953-8.427234-19.97045-25.4459583-1.01881-32.1723745l45.69175-11.8044375c5.24461-.56485 9.83616 2.40173 12.07154 6.745293 2.23539 4.3435698 2.64759 11.6367679-1.5327 16.5785819-24.11998 6.4939581-22.53762 8.9519371-47.33229 14.4442541-1.00242.222185-2.84341-.309596-4.71472-1.729494-3.45661-2.678305-6.61309-7.4438727-5.84828-12.1814082.50689-1.753319 1.75595-3.29945684 3.62786-3.86770982 1.14982-.34904931 2.38757-.1351331 3.38382.6720405 2.20311 1.84369762 2.98424 4.95496582 2.70806 7.84592142-.39618 1.7796771-2.20076.8872059-2.42983 3.2892261.34777 3.660809 5.79739.897302 6.34195-2.3359712.8052-4.063392-.95145-8.78854552-4.17995-11.8114678-1.78199-1.4434795-4.58972-2.0765721-6.95363-1.367569-3.17134.9511745-5.33917 3.44542431-6.22209 6.4988235-1.52174 5.6627048 2.45133 12.3996275 7.22845 16.3459505 2.3975 1.819739 5.1302 3.038659 7.89655 2.425832 24.94828-5.52641 23.32679-7.949343 47.05882-14.3657064 2.81849 2.4007434 5.83626 7.6169244 8.11857 10.5153874 0 0-20.92141 5.019234-31.32427 7.726416-7.62548 1.984413-22.7854 6.241251-22.7854 6.241251z" fill="url(#j)" stroke-width="9.02472"/></g><g transform="matrix(.38233059 0 0 .40026557 150.19703 85.106065)"><use height="100%" transform="translate(-.000095 78.316688)" width="100%" xlink:href="#k"/><path d="m-92.875053 86.634595c-1.512633.904578-3.324401 1.21402-5.053542 1.555185-5.899575 1.164006-11.951895 1.640217-17.965205 1.640417-6.01771.000201-12.07479-.474335-17.97844-1.640417-1.7248-.34068-3.53182-.650754-5.04031-1.553773-1.9158-1.146844-4.43215-2.880527-4.76305-4.709905l-.00018-70.922196 6.02734 1.660157c5.70666 1.57042 13.33315 2.552734 21.75391 2.552734 8.39319 0 16.057726-.983871 21.753905-2.552734l6.027344-1.660157v70.925949c-.3175 1.825625-2.846757 3.559532-4.761772 4.70474z"/><path d="m-138.91255 86.636007c1.50971.692349 3.05831 1.116108 5.04031 1.553773 5.04031 1.11125 11.49614 1.640417 17.97844 1.640417 6.48229 0 12.93812-.529167 17.965205-1.640417 2.006453-.438912 3.542396-.859876 5.053542-1.555185v-69.379608c-6.244167 1.719792-14.261047 2.725208-23.018747 2.725208-8.78417 0-16.7693-1.005416-23.01875-2.725208z" stroke-width="9.525"/><path d="m-138.91255 17.254987v2.804583c15.4252 3.704167 30.69166 3.439584 46.037497 1.825625v-4.630208c-6.244167 1.719792-14.261047 2.725208-23.018747 2.725208-8.78417 0-16.7693-1.005416-23.01875-2.725208zm0 7.699375v6.455833c16.64229.767292 31.67062-.899583 46.037497-3.677708v-1.084792c-15.107707 1.5875-30.427087 1.852084-46.037497-1.693333zm46.037497 7.593542c-14.287497 2.725208-29.395207 4.365625-46.037497 3.65125v4.947708c16.93333.396875 32.59666-.661458 46.037497-4.206875zm0 9.339792c-13.758337 3.413125-29.395207 4.392083-46.037497 4.021667v.846666c16.27187 2.2225 31.96166 3.65125 46.037497 2.8575zm-46.037497 9.657292v2.354791c14.10229 4.497917 29.87145 4.709584 46.037497 4.471459v-3.995209c-14.313957.767292-29.950837-.608541-46.037497-2.831041zm0 7.328958v8.41375c13.94354.899584 27.19916-.926041 40.26958-4.101041-13.75833.105833-27.49021-.449792-40.26958-4.312709zm46.037497 7.77875c-14.737297 3.889375-29.924377 6.429376-46.037497 5.423959v4.233333c15.24.05292 30.37416-.264583 46.037497-3.757083zm0 10.768542c-15.848547 3.386667-31.035627 3.704167-46.034857 3.65125 0 0 .10848.238125.98161.740834 1.03452.582083 2.84427 1.217083 5.09058 1.719791 4.48204 1.005417 10.72621 1.534584 16.94392 1.534584 6.2177 0 12.46187-.529167 16.93333-1.534584 2.248958-.502708 4.074583-1.137708 5.106458-1.719791.899584-.529167.978959-.79375.978959-.740834z" fill="#241f31" stroke-width=".264583"/><g id="k" transform="scale(.26458334)"><path d="m-438.02344-22.484375c-29.2166-.000194-58.41541 4.607666-87.00036 10.650009-6.13593 1.297024-12.26889 2.9263629-18.00276 5.4669583-7.56583 3.35231-15.60574 6.74688676-21.30149 12.7500677-5.22622 5.508308-10.63838 12.539909-10.65632 20.132965-.0181 7.66156 5.32562 14.862158 10.65632 20.365199 5.67307 5.856479 13.87495 8.658563 21.30149 12.024359 5.79185 2.624935 11.80769 4.876355 18.00276 6.310526 28.45023 6.586281 57.79771 10.29993 87.00036 10.299916 29.2024-.000014 58.54996-3.712314 86.99963-10.299916 6.19331-1.434079 12.22386-3.649354 17.99724-6.310526 7.24267-3.338425 15.09943-6.331002 20.68398-12.02434 5.43851-5.544453 11.33812-12.598751 11.31915-20.365218-.0188-7.698886-5.9858-14.580599-11.31915-20.132948-5.61073-5.8411241-13.30062-9.4206686-20.68398-12.7500818-5.71543-2.5772828-11.86317-4.1691032-17.99724-5.4658752-28.58463-6.042924-57.78323-10.650901-86.99963-10.651095z" fill="#756022"/><path d="m-438.02344-4.484375c-29.24375-.0000157-58.84685 3.3902394-87.00036 11.3007812-8.97438 2.52161-18.22517 5.6038478-25.55042 11.3691408-2.75321 2.166895-6.41016 4.826424-6.41016 8.330078s3.65695 6.163183 6.41016 8.330078c7.32525 5.765293 16.57604 8.847531 25.55042 11.369141 28.15351 7.910542 57.75661 11.300797 87.00036 11.300781 29.24351-.000016 58.84352-3.400415 86.99963-11.300781 8.98981-2.522465 18.26292-5.594446 25.59998-11.369141 2.75163-2.165692 6.40039-4.828409 6.40039-8.330078s-3.64876-6.164386-6.40039-8.330078c-7.33706-5.774695-16.61017-8.8466755-25.59998-11.3691408-28.15611-7.9003659-57.75612-11.3007655-86.99963-11.3007812zm0 23c16.2207 0 48 3.581722 48 8s-31.7793 8-48 8-48-3.581722-48-8 31.7793-8 48-8z" fill="#ccac4e" stroke-width="36"/></g></g></svg>