<svg height="500" viewBox="0 0 500 500" width="500" xmlns="http://www.w3.org/2000/svg" xmlns:xlink="http://www.w3.org/1999/xlink"><linearGradient id="a" gradientTransform="matrix(3.3553977 0 0 3.3705998 -355.31445 1132.8688)" gradientUnits="userSpaceOnUse" x1="113.32804" x2="127.6171" xlink:href="#b" y1="-258.14441" y2="-312.31824"/><linearGradient id="b" gradientTransform="matrix(392.59 0 0 -392.59 9596.87 3878.54)" gradientUnits="userSpaceOnUse" spreadMethod="pad" x1="0" x2="1" y1="0" y2="0"><stop offset="0" stop-color="#523528"/><stop offset=".00561798" stop-color="#523528"/><stop offset=".275281" stop-color="#dff5fd"/><stop offset=".477528" stop-color="#dad9d6"/><stop offset=".668539" stop-color="#fff"/><stop offset="1" stop-color="#68574b"/></linearGradient><linearGradient id="c" gradientTransform="matrix(3.3553977 0 0 3.3705998 -1767.4762 206.74096)" gradientUnits="userSpaceOnUse" spreadMethod="reflect" x1="541.33594" x2="552.18359" xlink:href="#d" y1="56.610764" y2="56.610764"/><linearGradient id="d"><stop offset="0" stop-color="#784421"/><stop offset=".18778047" stop-color="#784421"/><stop offset=".5246017" stop-color="#643a1f"/><stop offset=".64302158" stop-color="#52311e"/><stop offset="1" stop-color="#52311e"/></linearGradient><linearGradient id="e" gradientTransform="matrix(3.3553977 0 0 3.3705998 -355.31445 1132.8688)" gradientUnits="userSpaceOnUse" x1="156.7205" x2="174.18352" xlink:href="#b" y1="-252.89313" y2="-320.78503"/><linearGradient id="f" gradientTransform="matrix(3.3553977 0 0 3.3705998 -1625.4311 229.03785)" gradientUnits="userSpaceOnUse" spreadMethod="reflect" x1="541.33594" x2="552.18359" xlink:href="#d" y1="56.610764" y2="56.610764"/><linearGradient id="g" gradientTransform="matrix(3.3553977 0 0 3.3705998 -355.31445 1132.8688)" gradientUnits="userSpaceOnUse" x1="177.88718" x2="191.16269" xlink:href="#b" y1="-260.46021" y2="-329.25775"/><linearGradient id="h" gradientTransform="matrix(3.3553977 0 0 3.3705998 -1554.4085 206.74096)" gradientUnits="userSpaceOnUse" spreadMethod="reflect" x1="541.33594" x2="552.18359" xlink:href="#d" y1="56.610764" y2="56.610764"/><linearGradient id="i" gradientTransform="matrix(3.3553977 0 0 3.3705998 -355.31445 1132.8688)" gradientUnits="userSpaceOnUse" x1="134.49602" x2="144.02051" xlink:href="#b" y1="-260.46082" y2="-324.22479"/><linearGradient id="j" gradientTransform="matrix(3.3553977 0 0 3.3705998 -1696.4537 222.74897)" gradientUnits="userSpaceOnUse" spreadMethod="reflect" x1="541.33594" x2="552.18359" xlink:href="#d" y1="56.610764" y2="56.610764"/><linearGradient id="k" gradientTransform="matrix(3.3064158 .57382245 -.5712344 3.3213959 -500.83553 1005.5686)" gradientUnits="userSpaceOnUse" x1="199.05383" x2="210.455" xlink:href="#b" y1="-268.92688" y2="-330.63269"/><linearGradient id="l" gradientTransform="matrix(3.3064158 .57382245 -.5712344 3.3213959 -1460.1342 -72.914793)" gradientUnits="userSpaceOnUse" spreadMethod="reflect" x1="541.33594" x2="552.18359" xlink:href="#d" y1="56.610764" y2="56.610764"/><linearGradient id="m" gradientTransform="matrix(0 3.3705998 -3.3553977 0 -617.29097 -325.00803)" gradientUnits="userSpaceOnUse" x1="220.2205" x2="232.92052" xlink:href="#b" y1="-261.51855" y2="-324.48938"/><linearGradient id="n" gradientTransform="matrix(0 3.3705998 -3.3553977 0 355.70847 -1386.8461)" gradientUnits="userSpaceOnUse" spreadMethod="reflect" x1="541.33594" x2="552.18359" xlink:href="#d" y1="56.610764" y2="56.610764"/><g transform="translate(10.240128)"><g><path d="m24.929687 59.708984v16 187.017576l23.990235 24.09961 23.988281-24.09961v-77.3789h20.419922v-28.53711-19.51368-9.02343-19.51563-28.537107h-20.419922v-20.511719z" fill="#6c6460"/><path d="m40.92897 75.708957v203.063883l7.99004 8.02624 7.99004-8.02624v-109.42444h20.41902v-16.05248h-20.41902v-12.48526h20.41902v-16.05248h-20.41902v-12.48526h20.41902v-16.052483h-20.41902v-20.51151z" fill="url(#a)" stroke-width="31.9999"/><path d="m12.5 227.53711v38.75 180.41211c0 10.56467 7.161163 19.68465 14.330078 23.85937s14.65576 5.51758 22.089844 5.51758 14.918975-1.34286 22.08789-5.51758c7.168916-4.17472 14.330079-13.2947 14.330079-23.85937v-219.16211l-36.419922 36.58398z" fill="#52311e"/><path d="m28.5 266.2876v180.41205c0 17.8361 40.83803 17.8361 40.83803 0v-180.41207l-20.41902 20.5115z" fill="url(#c)" stroke-width="31.9999"/></g><g><path d="m152.76953 51.683594v16 60.589846h14.20508v153.87695l47.98047-24.09766v-129.77929h14.20312v-76.589846z" fill="#6c6460"/><path d="m168.76962 67.682717v44.590243h14.20451v161.9517l15.98008-8.02624v-153.9255h14.20455v-44.590223z" fill="url(#e)" stroke-width="31.9999"/><path d="m227.38281 234.01562-23.18164 11.64258-49.65625 24.94141v176.09961c0 10.56466 7.16117 19.68465 14.33008 23.85937 7.16891 4.17473 14.65576 5.51758 22.08984 5.51758s14.92094-1.34285 22.08985-5.51758c7.16891-4.17472 14.32812-13.29471 14.32812-23.85937z" fill="#52311e"/><path d="m211.38318 259.95578-40.83798 20.5115v166.23237c0 17.8361 40.83798 17.8361 40.83798 0z" fill="url(#f)" stroke-width="31.9999"/></g><g><path d="m217.57812 23.126953v16 32.052734h16c1.38998 0 1.40633.02586 2.40625.04102.87222 3.552466 1.81247 9.688868 2.01172 19.167969v164.519524h47.98047v-165.099606l-.0176.742187c.84799-18.250055-.94525-39.804149-16.06054-55.574219l-.18164-.1875-.18555-.183593c-9.91439-9.691724-22.52282-11.319355-30.0293-11.47461l-.16601-.0039z" fill="#6c6460"/><path d="m233.57775 39.127107v16.05248c7.45737 0 11.09727-.12481 13.58306 2.34545 2.57457 2.4703 6.39204 11.03162 6.83591 32.59545v164.841173h15.98008v-165.153293c.71024-15.28555-2.66334-34.40584-11.62994-43.76086-5.94815-5.81456-13.13917-6.79554-19.17609-6.9204z" fill="url(#g)" stroke-width="31.9999"/><path d="m225.56836 238.96094v16 191.73828c0 10.56466 7.15921 19.68465 14.32812 23.85937 7.16892 4.17473 14.65577 5.51758 22.08985 5.51758s14.92093-1.34285 22.08984-5.51758c7.16891-4.17472 14.33008-13.29471 14.33008-23.85937v-207.73828z" fill="#52311e"/><path d="m241.56779 254.96167v191.73798c0 17.8361 40.83798 17.8361 40.83798 0v-191.738z" fill="url(#h)" stroke-width="31.9999"/></g><g><path d="m126.55273 33.496094-23.9149-28.5642788-6.686658 35.1052938v214.871091h47.980468v-182.619138z" fill="#6c6460"/><path d="m111.95156 40.036787v198.872403h15.98008v-163.200233z" fill="url(#i)" stroke-width="31.9999"/><path d="m83.523437 238.96094v16 191.73828c0 10.56466 7.159215 19.68465 14.328125 23.85937 7.168908 4.17473 14.655768 5.51758 22.089848 5.51758s14.92093-1.34285 22.08984-5.51758c7.16891-4.17472 14.33008-13.29471 14.33008-23.85937v-207.73828z" fill="#52311e"/><path d="m99.52261 254.96167v191.73798c0 17.8361 40.83796 17.8361 40.83796 0v-191.738z" fill="url(#j)" stroke-width="31.9999"/></g><g><path d="m383.91016 28.210937-15.39063 4.65625-76.21094 23.060547 25.56641 18.91211-16.42773 4.964843 24.99414 35.578123-19.00977 110.53516 47.27539 8.20508 21.81445-126.83399 46.78125-14.177732-25.76953-19.0625z" fill="#6c6460"/><path d="m373.15394 48.181167-45.71386 13.83207 25.5761 18.91895-25.75411 7.78433 16.06728 22.870743-20.13388 117.06683 15.74679 2.73284 21.26139-123.62257-7.09211-10.099993 35.0725-10.62887-25.5761-18.91895 15.11126-4.57233z" fill="url(#k)" stroke-width="31.9999"/><path d="m297.88672 208.07227-2.71485 15.79296-37.33203 217.06055c-1.79085 10.4128 3.71414 20.60704 10.06446 25.94141 6.35032 5.33436 13.49761 7.9378 20.82226 9.20898 7.32466 1.27118 14.93075 1.22808 22.70899-1.66211s16.39273-10.66728 18.18359-21.08008l40.03906-232.80468z" fill="#52311e"/><path d="m310.93951 226.57755-37.33136 217.06015c-3.02277 17.57572 37.21908 24.55962 40.24187 6.9839l37.33136-217.06017z" fill="url(#l)" stroke-width="31.9999"/></g></g><g transform="translate(12.487289 23.03902)"><path d="m239.32063 461.6179 133.19499.18726c2.74414 2.77599 5.73903 5.02603 8.75391 6.79883l.0176.0117.0176.01c8.86101 5.18124 19.00654 7.44922 29.36523 7.44922 7.64041 0 15.14324-1.26366 22.10156-3.97852 5.00794 2.44638 10.57137 3.97852 16.53321 3.97852 10.50024 0 23.61106-5.65638 31.07743-14.26975 5.47089-6.31134 6.99027-15.67368 7.11788-24.02517.14235-9.31659-.83314-20.15257-7.11788-27.0316-7.43195-8.13473-15.79776-11.26333-31.07743-11.26333-5.96251 0-11.52686 1.52973-16.53516 3.97657-6.9577-2.71426-14.46005-3.97656-23.45919-3.97691-8.99915-.00035-19.14467 2.26759-28.00569 7.44887l-.0176.01-.0176.01c-3.01488 1.7728-6.00976 4.02283-8.75391 6.79883l-133.19495-.18726z" fill="#6c6460"/><path d="m471.49998 437.7787c0-12.21776-10.03194-22.29515-22.19454-22.29515-6.01918 0-11.50567 2.49708-15.52732 6.421-.59481-.35671-1.20739-.80261-1.82885-1.15934-5.94812-3.47804-13.28122-5.26166-21.28013-5.26166-7.97228 0-15.34088 1.78362-21.28902 5.26166-3.6399 2.14032-7.01348 5.17248-9.05538 9.00725h-121.09349c.62146 2.6754.97656 5.35083.97656 8.02624 0 2.6754-.3551 5.35083-.97656 8.02624h121.09352c2.04189 3.83474 5.41547 6.8669 9.05537 9.00722 5.94814 3.47802 13.31674 5.26164 21.28902 5.26164 7.99893 0 15.33201-1.78362 21.28015-5.26164.62145-.35675 1.23402-.80263 1.82883-1.15936 4.02165 3.92397 9.50814 6.421 15.52732 6.421 12.16261 0 22.19454-10.07739 22.19454-22.2951z" fill="url(#m)" stroke-width="31.9999"/><path d="m65.783203 401.26758c-10.600002 0-18.337198 6.93449-23.845703 14.41211-4.501022 6.11-5.470782 14.51072-5.470703 22.09961.000078 7.58826.970178 15.98807 5.470703 22.09765 5.508558 7.47801 13.245701 14.41407 23.845703 14.41407h170.455077c11.95837 0 22.44067-3.70451 30.06445-11.20508 6.45735-6.353 8.88078-16.30607 9.9043-25.30664.69998-10.42936-1.54079-19.71-9.9043-25.30664-8.92689-5.88992-18.10609-11.20508-30.06445-11.20508z" fill="#52311e"/><path d="m260.20779 437.7787c0-10.25577-6.21449-20.51153-23.97012-20.51153h-170.45421c-17.75566 0-17.75566 41.02301 0 41.02301h170.45423c17.75565 0 23.97012-10.25577 23.97012-20.51148z" fill="url(#n)" stroke-width="31.9999"/></g></svg>