<svg height="500" viewBox="0 0 132.29167 132.29167" width="500" xmlns="http://www.w3.org/2000/svg" xmlns:xlink="http://www.w3.org/1999/xlink"><linearGradient id="a" gradientUnits="userSpaceOnUse" x1="-437.62766" x2="-437.62766" xlink:href="#b" y1="41.709736" y2="89.678802"/><linearGradient id="b"><stop offset="0" stop-color="#a77858"/><stop offset="1" stop-color="#866046"/></linearGradient><linearGradient id="c" gradientUnits="userSpaceOnUse" x1="-437.6279" x2="-437.6279" xlink:href="#b" y1=".324696" y2="36.544106"/><filter id="d" color-interpolation-filters="sRGB" height="1.020126" width="1.022451" x="-.011226" y="-.010063"><feGaussianBlur stdDeviation=".73819355"/></filter><filter id="e" color-interpolation-filters="sRGB" height="1.021086" width="1.023696" x="-.011848" y="-.010543"><feGaussianBlur stdDeviation=".79072692"/></filter><linearGradient id="f" gradientTransform="matrix(.11738552 -.22728798 .22728798 .11738552 197.19644 -178.51317)" gradientUnits="userSpaceOnUse" spreadMethod="reflect" x1="-569.57452" x2="-643.57678" xlink:href="#g" y1="704.43195" y2="941.93762"/><linearGradient id="g"><stop offset="0" stop-color="#93a0aa"/><stop offset=".25" stop-color="#9da9b2"/><stop offset=".375" stop-color="#7f8f9a"/><stop offset=".5" stop-color="#93a0aa"/><stop offset=".75" stop-color="#7c8c98"/><stop offset="1" stop-color="#93a0aa"/></linearGradient><linearGradient id="h" gradientUnits="userSpaceOnUse" x1="410.19458" x2="291.15082" xlink:href="#g" y1="10.85324" y2="28.492369"/><linearGradient id="i" gradientTransform="matrix(.11738552 -.22728798 .22728798 .11738552 197.19644 -178.51317)" gradientUnits="userSpaceOnUse" spreadMethod="reflect" x1="-629.69952" x2="-353.13489" xlink:href="#g" y1="919.58655" y2="938.63708"/><linearGradient id="j" gradientTransform="matrix(.34440893 0 0 1.0675561 36.568764 -4.095293)" gradientUnits="userSpaceOnUse" x1="66.048439" x2="66.048439" y1="77.644974" y2="81.380188"><stop offset="0" stop-color="#533c2c" stop-opacity="0"/><stop offset="1" stop-color="#533c2c"/></linearGradient><linearGradient id="k" gradientTransform="matrix(.34440893 0 0 1.0675561 36.568764 -4.095293)" gradientUnits="userSpaceOnUse" x1="66.048439" x2="66.048439" y1="77.644974" y2="81.380188"><stop offset="0" stop-color="#866046" stop-opacity="0"/><stop offset="1" stop-color="#866046"/></linearGradient><linearGradient id="l" gradientTransform="matrix(.70852579 0 0 .84249585 115.34622 -236.16161)" gradientUnits="userSpaceOnUse" spreadMethod="reflect" x1="-75.162231" x2="-56.490837" y1="363.89615" y2="379.59848"><stop offset="0" stop-color="#9f571d"/><stop offset=".511236" stop-color="#fde791"/><stop offset="1" stop-color="#b7671e"/></linearGradient><g stroke-width="1.30905" transform="matrix(.76391586 0 0 .76391586 400.44649 22.622178)"><path d="m-392.54218-18.949863c-11.24071 1.764938-22.48932 2.758523-33.74419 3.103686l-22.66218-.148311c-11.51406-.475976-23.04251-1.534564-34.57774-3.04891l-5.18986-.679545.51005 48.144316.16381 2.992065c1.32061 24.287044.9587 48.550728-1.32395 72.806922l-.40824 4.31808 4.18527 1.14257c31.9341 8.71699 64.00333 8.42436 95.85979.0119l4.13825-1.09193-.31057-4.27157v-.002c-1.80128-24.670426-2.42118-49.28703-1.19797-73.910106l-.0559-2.374789-.17758-47.810416z" fill="#533c2c"/><path d="m-484.21884 104.30827c31.06261 8.47911 62.12099 8.20262 93.18308 0-1.81319-24.833261-2.44026-49.663871-1.2237-74.162043l.5285-44.395728c-11.48239 1.80287-22.9616 2.81667-34.4289 3.16672l-22.93607-.14883c-11.70623-.48207-23.40505-1.55826-35.09037-3.09232l1.31943 45.291066c1.32111 24.294534.95599 48.816114-1.35197 73.341135z" fill="url(#a)"/></g><g stroke-width="1.30905" transform="matrix(.76391586 0 0 .76391586 400.44649 22.622178)"><path d="m-446.55273 90.91966c5.92152.58167 11.93609.617105 17.85001-.0373 7.64066-.845482 15.18246-2.684973 22.51445-4.995072 6.90945-2.176969 13.49246-5.298548 20.08329-8.305318 1.63192-.744491 4.8125-2.407633 4.8125-2.407633l-6.04071-94.942236-5.20898.818038c-11.24072 1.764938-22.48932 2.758523-33.74419 3.103686l-22.66219-.148311c-11.51406-.475976-23.04251-1.534564-34.57774-3.04891l-5.18986-.679545-.29456 2.531112-4.9258 92.205923s2.78406 1.831112 4.26151 2.594659c6.51999 3.369537 13.21234 6.531153 20.2183 8.717592 7.43311 2.319743 15.1546 3.832097 22.90397 4.593317z" fill="#533c2c"/><path d="m-406.18827 80.240872c6.65296-2.239247 12.34156-4.917334 19.303-8.418949l-4.84569-86.071424c-11.48239 1.802871-22.9616 2.816671-34.4289 3.166721l-22.93607-.14883c-11.70623-.48207-23.40505-1.558261-35.09037-3.092321l-4.23333 86.278654c6.44353 3.983555 12.30316 6.963616 18.96293 9.202175 7.35053 2.470747 15.09805 3.785862 22.81523 4.547453 5.95068.587258 12.00148.710081 17.93875 0 7.66798-.917069 15.19529-3 22.51445-5.463479z" fill="url(#c)"/><g transform="matrix(1.3090447 0 0 1.3090447 -762.86677 -173.10986)"><path d="m241.94897 135.89632c-1.01479 0-1.9635.53987-2.71029 1.53688-.74681.99684-1.24264 2.436-1.24264 4.04442 0 1.60844.49583 3.0476 1.24264 4.04443.74679.99703 1.6955 1.53689 2.71029 1.53689 1.01478 0 1.96349-.53986 2.71028-1.53689.74682-.99683 1.24264-2.43599 1.24264-4.04443 0-1.60842-.49582-3.04758-1.24264-4.04442-.74679-.99701-1.6955-1.53688-2.71028-1.53688zm22.27285 1.7771-1.89548 1.54348-2.30689-.93421-.78248 1.54967 8.70254 3.68498 1.70351-3.50425zm-.53354 6.02699-5.54394 11.78703 1.76027.80938 5.52782-11.85806-1.74404-.73835zm-27.51668 2.09188c-.59395.0775-1.13215.18367-1.62171.31316v12.92795h14.79816v-12.92795c-.48956-.12949-1.02776-.23563-1.62172-.31316v5.99169l-.50425.25258c-3.46095 1.73254-7.08528 1.73254-10.54622 0l-.50426-.25249zm-3.44615 1.01295a6.214417 6.221842 0 0 0 -.5076.30322c-1.31794.87972-1.99136 2.05352-2.35776 3.5209-.59822 2.3957-.20698 5.49577-.0422 8.40404h2.90753zm18.44703 0v12.22816h2.90753c.16481-2.90827.55605-6.00834-.0422-8.40404-.3664-1.46738-1.03992-2.64118-2.35777-3.5209a6.214417 6.221842 0 0 0 -.50759-.30322zm-13.17644.0858v3.73369c2.67227 1.19501 5.23358 1.19501 7.90585 0v-3.73369c-1.00313 1.20171-2.39607 1.99445-3.95292 1.99445s-2.9498-.79274-3.95293-1.99445zm-1.71811 13.90842-.00021.0002v2.06447h-9.01451c1.62131 3.93798 5.19558 6.63944 9.01491 7.53782v3.34574h5.93528c-1.22794 3.09855-3.3982 5.65052-5.92939 7.87391h-2.57803v1.89968h28.82034v-1.89968h-2.78124c-2.9118-2.22176-5.07031-4.7712-6.24301-7.87411h6.4521v-2.95869c2.00181-.70986 4.00361-1.983 6.00542-3.72619-2.00748-1.77771-3.97675-2.76528-6.00542-3.24092v-3.02223z" fill="#774f37" opacity=".33"/><path d="m927.09961 523.57031c1.43187 3.20982 2.29297 7.03099 2.29297 11.14844 0 6.07914-1.87269 11.51761-4.69531 15.28516-2.82252 3.7683-6.40876 5.80859-10.24415 5.80859-3.1442 0-6.12081-1.37306-8.64648-3.94336.68201 1.52852 1.49189 2.9195 2.40234 4.13477 2.82252 3.7683 6.40872 5.80859 10.24414 5.80859.70983 0 1.41015-.0712 2.09961-.20898 3.13407-1.16433 5.94517-3.18245 8.26172-5.76368 2.75604-3.76067 4.57813-9.12797 4.57813-15.12109 0-6.07907-1.87269-11.51953-4.69531-15.28711-.50813-.67837-1.04307-1.29677-1.59766-1.86133zm58.48437 7.38086-1.79101 3.54883 32.89253 13.92773 6.4375-13.24414-5.7168-2.46679-4.7207 9.71093zm15.94922 18.55469-19.21679 41.22266-1.04297-.48047-1.60938 3.42187 6.65235 3.0586 20.89259-44.81836zm-104.91601 7.51953c-1.4181.18504-2.7433.41912-4 .68555v15.96094l1.90625.95507c.69611.34848 1.39432.67299 2.09375.98438zm45.80078.32617v43.71875h-51.92969v6h55.92969v-48.86133c-1.24488-.32927-2.58049-.61409-4-.85742zm-58.82617 3.50196a23.48756 23.515623 0 0 0 -1.91797 1.14648c-.7499.50055-1.4382 1.02915-2.08203 1.58008v37.49023h-7.38282c.14108 2.01023.28218 4.01707.39454 6h10.98828zm49.80078.32617c-1.19587 1.4326-2.53778 2.70954-4 3.78906v4.32227c-8.75972 3.91725-17.20486 4.43039-25.88086 1.55273v4.44727c8.39977 3.75628 16.51039 4.37643 24.8125 1.88476 1.69754-.58195 3.38749-1.27311 5.06836-2.07031zm25.23437 3.625c.61982 1.4103 1.11772 2.91033 1.51563 4.5039 2.2611 9.05462.78306 20.76984.16015 31.76172h-6.99023v6h10.99023c.62291-10.99188 2.10095-22.7071-.16015-31.76172-1.02672-4.11187-2.69336-7.61267-5.51563-10.5039zm23.87696 48.9414v5.42188c1.33974.31411 2.67199.69103 4 1.12891v-6.55079zm-117.20313 12.66211c6.12393 10.95759 16.43855 18.81951 27.71875 22.50782v-4.87696c-10.58864-2.49065-20.67451-8.65181-27.71875-17.63086zm138.17772 6.47657c-6.99137 5.83696-13.9832 10.13602-20.97459 12.61523v11.18359h-24.38672c1.96667 5.20374 4.67224 9.9927 8.02929 14.44727-1.56797-2.69341-2.91685-5.5038-4.02929-8.44727h24.38672v-11.18164c7.56589-2.68293 15.13139-7.49555 22.69729-14.08398-1.9152-1.69596-3.82-3.20088-5.7227-4.5332zm-106.45897 23.79882v6h15.6543c1.02698-1.93987 1.96148-3.93634 2.77929-6zm95.20508 35.75977v1.17969h-104.92578v6h108.92578v-7.17969z" fill="#a77858" filter="url(#d)" transform="scale(.26458334)"/><path d="m910.45312 507.62305c-3.83542 0-7.42162 2.04036-10.24414 5.80859-2.82258 3.76758-4.69726 9.20804-4.69726 15.28711 0 6.07914 1.87468 11.51761 4.69726 15.28516.50868.67912 1.04242 1.30018 1.59766 1.86523-1.43234-3.21017-2.29492-7.03215-2.29492-11.15039 0-6.07907 1.87468-11.51953 4.69726-15.28711 2.82252-3.76823 6.40872-5.80859 10.24414-5.80859 3.14493 0 6.12043 1.37581 8.64649 3.94726-.68217-1.52921-1.49153-2.92293-2.40234-4.13867-2.82252-3.76823-6.40876-5.80859-10.24415-5.80859zm84.17969 6.71679-7.16406 5.83399-8.71875-3.53125-2.95703 5.85742 5.79101 2.45117 1.16602-2.30859 8.71875 3.53125 7.16406-5.83399 14.77339 6.37696 1.7168-3.53321zm-2.01562 22.7793-20.95313 44.55078 5.60938 2.57813 19.34375-41.12891.91601.38672 1.67578-3.5957zm-104 7.90625c-2.24485.29291-4.2786.69418-6.12891 1.18359v48.86133h4v-42.86133c.68145-.18024 1.39625-.34272 2.12891-.49804zm43.67187 0v22.64649l-1.90625.95507c-.32948.16494-.65999.32189-.99023.47852v.18555c-1.70015.76028-3.38798 1.38044-5.06836 1.88476-10.50543 3.60147-21.27951 3.07788-31.70703-1.56445v4.06055l1.90625.95507c13.08072 6.54819 26.77862 6.54819 39.85937 0l1.90625-.95507v-22.64649c.73453.0959 1.43856.20784 2.12891.32617v-5.14258c-1.85031-.48941-3.88402-.89056-6.12891-1.18359zm-56.69726 3.82813a23.48756 23.515623 0 0 0 -1.91797 1.14648c-4.98119 3.32493-7.52729 7.76259-8.91211 13.30859-2.26099 9.05462-.78099 20.76984-.1582 31.76172h3.60546c-.64096-9.13297-1.30037-18.34055.55274-25.76172 1.17634-4.71108 3.19726-8.6199 6.83008-11.72851zm69.7207 0v46.21679h4v-40.21679a23.48756 23.515623 0 0 1 1.91992 1.14648c1.28799.85979 2.41019 1.79629 3.39453 2.80469-1.53729-3.49789-3.84486-6.43514-7.39453-8.80469a23.48756 23.515623 0 0 0 -1.91992-1.14648zm-49.80078.32421v14.11329c1.34022.59933 2.67258 1.11246 4 1.55273v-9.66406c3.79136 4.54189 9.05725 7.53711 14.9414 7.53711 4.02819 0 7.76586-1.40507 10.93946-3.74805v-9.79102c-.1875.22462-.38157.44328-.57617.66016-.0401.0547-.0787.11198-.11914.16602-2.30015 3.07089-5.10863 4.99285-8.14454 5.59961-1.92608.71555-3.97095 1.11328-6.09961 1.11328-5.88415 0-11.15004-2.99717-14.9414-7.53907zm-6.49414 52.56836v7.80274h-34.07031c1.63289 3.96612 3.79449 7.59748 6.35351 10.85937-.87116-1.55877-1.66138-3.17827-2.35351-4.85937h34.07031v-7.80274h.002 85.48438v-6h-89.48438zm93.48633 12.55079v4.87109c5.73203 1.34393 11.33937 3.77083 16.97461 7.7168.57448-.47964 1.14818-.96652 1.72268-1.4668-6.2616-5.5449-12.42508-9.05301-18.69729-11.12109zm-93.48438 28.61914v7.76757h4v-6.64453c-1.34335-.31598-2.67789-.69075-4-1.12304zm19.6543 13.76757c-4.80101 9.06871-11.75191 16.8372-19.63281 23.75977h-9.74219v7.17969h4v-1.17969h9.74219c9.5667-8.40336 17.77107-18.04871 22.4121-29.75977zm53.47265 8.44727c4.67923 8.03782 11.32336 15.02289 19.56641 21.3125h6.51172v-6h-10.51172c-6.122-4.6712-11.35774-9.72791-15.56641-15.3125z" fill="#533c2c" filter="url(#e)" transform="scale(.26458334)"/></g></g><g transform="translate(.018121 -.000458)"><g><path d="m59.298708 76.970613v15.274922c-.0951 1.963066.670992 3.623844 1.769401 5.031734 1.124821 1.441742 2.775156 2.779081 5.076176 2.760041 2.263114-.0187 3.958752-1.28486 5.140771-2.777611 1.140831-1.440735 1.939808-3.275829 1.685686-5.36298v-14.926106h-2.645317v15.110074c.372561 2.368683-1.944574 5.29159-4.201811 5.31027-2.198576.0182-4.326385-2.960355-4.17804-5.104081v-15.316263z" fill="url(#j)"/><path d="m66.123358 97.391108c2.257239-.01868 4.574733-2.94178 4.202172-5.310466v-15.110006h-8.380188v15.316466c-.148346 2.143728 1.979438 5.122202 4.178016 5.104006z" fill="url(#k)"/></g><g stroke-linecap="round" stroke-linejoin="round"><path d="m59.318359 86.769531a1.3230472 1.3230472 0 0 0 -1.324218 1.324219v3.986328a1.3230472 1.3230472 0 0 0 1.324218 1.324219h13.634766a1.3230472 1.3230472 0 0 0 1.324219-1.324219v-3.986328a1.3230472 1.3230472 0 0 0 -1.324219-1.324219zm1.322266 2.646485h10.990234v1.341796h-10.990234z" fill="#84542e"/><path d="m59.317548 92.080642h13.636135v-3.987551h-13.635906z" fill="url(#l)" stroke-width="2.64583"/></g></g><g stroke-width="1.4486" transform="matrix(.68175925 .10839413 -.10839413 .68175925 -170.33079 31.463181)"><g><path d="m1083.4457 97.405735-6.9002 16.868385 9.9045 45.72511c4.7212 18.77322-.7573 20.52807 14.5214 29.65449l17.181 10.13811 37.108 21.99105 17.1576 10.54826 80.3068 47.96992c10.2782 7.3863 12.7269.0569 23.3233-6.93971l-27.4429-75.8685z" fill="#4a4c4f" transform="scale(.26458334)"/><path d="m290.44556 33.634382 2.61026 12.050616 2.97656 1.785938 17.85938 10.667997 15.93056 9.525-3.00228-11.986792z" fill="url(#f)"/><path d="m290.44556 33.634382 2.61026 12.050616 2.97656 1.785938 17.85938 10.667997 15.93056 9.525-3.00228-11.986792z" opacity=".25"/></g><g stroke-linecap="round" stroke-linejoin="round"><path d="m310.91359 60.98439c1.60521-1.448179 3.71942-2.7492 4.54375-4.789644.64198-1.589102.58918-3.516119.0454-5.141446-.55684-1.664333-1.85675-3.053808-3.2054-4.176848-1.79743-1.496746-3.93156-2.870802-6.24819-3.193604-2.4798-.345538-5.24717.01311-7.36802 1.459913l-6.74017 4.598004-52.83421 36.062611s-1.97584 2.466703-2.1155 3.955348c-.2694 2.871345.75355 6.031537 2.59018 8.255042 1.61941 1.96052 4.19053 3.323804 6.71638 3.617354 2.84738.33091 5.72282-.44817 8.30473-2.232763z" fill="#63452c" stroke-width="1.4486"/><path d="m309.6746 50.824042c-.99567-1.443606-2.78295-2.479273-4.52456-2.68448-1.51497-.178502-4.3707 1.356413-4.3707 1.356413-1.27429.912774-2.98535 2.035695-4.30141 2.933505l-54.59811 37.246518c-.80152 1.457437.26113 3.888086 1.39633 5.333169.81527 1.037816 2.17027 1.752968 3.48377 1.881182 1.7881.174542 3.048-.14287 5.14826-1.595432l54.34352-37.073275 4.1967-2.950021c.99981-2.072404.0806-3.20884-.7738-4.447579z" fill="#865e3c" stroke-width="13.7979"/></g><g><path d="m1336.9799 127.86222-144.3515-87.499762c-4.9013-4.029402-9.0473-3.447037-13.7134-3.050521-5.5794.474142-10.2982 2.83347-15.5473 6.362416l-80.0823 53.839145s-5.8563 3.901272-7.0822 6.981122c-1.2062 3.03057.3423 9.77944.3423 9.77944l148.4671 89.97037 16.9171 10.25167 16.3394-11.14692 72.8367-49.68992 15.8348-10.80266s-1.2341-6.97137-3.2122-9.77217c-1.6408-2.32338-6.7485-5.22221-6.7485-5.22221z" fill="#4a4c4f" transform="scale(.26458334)"/><path d="m312.29632 14.27631-21.1455 14.216063 37.29038 22.598062 20.97882-14.311313z" fill="url(#h)"/></g><g><path d="m1320.6426 139.0077-88.2392 60.19488 14.1691 56.53511 19.6143 11.72755 9.8613 5.89611 73.1182-48.28099c17.1894-9.13188 15.6893-11.36894 11.2362-28.98821l-13.4619-53.23555z" fill="#4a4c4f" transform="scale(.26458334)"/><path d="m352.18842 40.655679-21.12177 14.409483 3.42293 13.622711 21.24075-14.025563z" fill="url(#i)"/><path d="m352.18842 40.655679-21.12177 14.409483 3.42293 13.622711 21.24075-14.025563z" opacity=".15"/></g></g><g stroke-width="1.66368" transform="matrix(-.13761865 -.58511272 .58511272 -.13761865 109.02969 261.21533)"><g fill="#4a4c4f"><path d="m253.23972 55.005354-5.44864-.286914c-16.62317 6.269712-35.58669 15.765544-50.89264 28.387029l-1.73242 1.427734v32.333987l7.89257-6.88281c10.81351-9.43009 22.58175-18.320334 33.67774-25.353521-7.08326 11.029396-16.02783 22.725221-25.48633 33.490231l-6.94727 7.9043h31.50391l1.42773-1.7168c13.04019-15.68317 22.24692-33.963124 28.87305-50.94976l1.09237-4.765583z" stroke-width="1.66368"/><path d="m249.63069 71.807935 16.47673 1.550895c15.931 7.990505 31.48122 6.025419 42.47849-4.935002 6.42592-6.402945 9.75835-14.882867 8.99414-23.285156-.61399-6.746095-3.9733-13.424945-10.11914-18.646485l-9.5156-8.083984 1.71485 12.367188c.45043 3.24959.61559 6.654492.23828 9.916015-.58815 5.087354-2.39169 9.663083-6.09961 12.751953-4.90117 4.081577-9.76675 5.564659-14.44531 5.070313-2.3807-.251763-4.75073-1.025113-7.12696-2.34375l-4.31195-2.392645z" stroke-width="1.66368"/><path d="m267.91461 53.777277-2.38922-4.101491c-1.46469-2.513664-2.31983-5.028765-2.58594-7.552734-.49439-4.687828.99202-9.562275 5.08203-14.441406 3.09167-3.688207 7.69391-5.46036 12.81446-6.019532 3.27362-.357294 6.68726-.177861 9.94531.279297l12.51172 1.75586-8.23828-9.578125c-5.87746-6.8321091-13.66888-10.1746325-21.45313-10.0449273-7.7001.128303-15.05179 3.3262964-20.6875 8.9453123-11.1857 11.151292-12.35612 28.066884-3.89062 44.199219l4.09136 11.153331z" stroke-width="1.66368"/></g><path d="m256.27581 16.391955c-9.67669 9.646921-10.8354 23.750589-3.03609 38.613399 1.77831-1.850231 4.27386-3.006328 7.02468-3.006328.38815 0 .76867.02929 1.14539.07382-1.75856-3.017996-2.86298-6.188868-3.20683-9.450228-.64104-6.078379 1.40731-12.320588 6.16886-18.000822 4.10099-4.892278 10.03054-7.0485 15.94652-7.694534 3.7919-.413861 7.59023-.198358 11.1252.297657-5.06968-5.893118-11.31022-8.4970146-17.76257-8.3895022-6.45236.1075124-12.58075 2.7464132-17.40516 7.5565382zm48.10125 13.72934c.48982 3.533775.69056 7.329964.25241 11.117342-.68103 5.890736-2.88179 11.782902-7.78335 15.865317-5.69595 4.74345-11.92435 6.787991-17.99344 6.14672-3.07586-.325278-6.07124-1.326832-8.93683-2.917031.0686.463868.1043.938689.1043 1.42113 0 2.656285-1.08014 5.073968-2.82036 6.838474 14.63874 7.342346 28.49904 5.951696 38.025-3.542348 5.52688-5.507117 8.23769-12.6111 7.61285-19.481006-.50244-5.520452-3.15325-10.939463-8.46058-15.448598z" fill="url(#h)" stroke-width="15.8465"/><path d="m250.80608 59.365903c-17.00356 6.260306-35.49396 14.728984-50.87684 27.413903v19.615784c16.08916-14.0308 34.28381-27.222925 49.70145-34.587655-7.42354 15.350728-20.7264 33.433705-34.80387 49.455705h18.7452c12.56419-15.1107 21.59151-33.175575 28.09875-49.857422z" fill="url(#h)" stroke-width="15.8465"/><g stroke-width="1.66368"><path d="m260.26367 51.685547c-5.4795 0-10.06836 4.588947-10.06836 10.068359 0 5.479517 4.58889 10.06836 10.06836 10.06836 5.47966 0 10.06836-4.588889 10.06836-10.06836 0-5.479436-4.58921-10.068359-10.06836-10.068359z" fill="#4a4c4f" stroke-width="1.66368"/><path d="m260.2644 56.448872c-2.95679 0-5.30614 2.349341-5.30614 5.305425 0 2.956798 2.34935 5.306139 5.30591 5.306139 2.95608 0 5.30542-2.349579 5.30542-5.306139 0-2.956322-2.34934-5.305425-5.30542-5.305425z" fill="url(#h)" stroke-width="15.8465"/></g></g></svg>