<svg height="500" viewBox="0 0 132.29167 132.29167" width="500" xmlns="http://www.w3.org/2000/svg" xmlns:xlink="http://www.w3.org/1999/xlink"><linearGradient id="a" gradientUnits="userSpaceOnUse" x1="-437.62766" x2="-437.62766" xlink:href="#b" y1="41.709736" y2="89.678802"/><linearGradient id="b"><stop offset="0" stop-color="#a77858"/><stop offset="1" stop-color="#866046"/></linearGradient><linearGradient id="c" gradientUnits="userSpaceOnUse" x1="-437.6279" x2="-437.6279" xlink:href="#b" y1=".324696" y2="36.544106"/><linearGradient id="d" gradientTransform="matrix(.7085258 0 0 .84249583 31.89919 -237.75511)" gradientUnits="userSpaceOnUse" spreadMethod="reflect" x1="-35.224812" x2="26.872232" xlink:href="#e" y1="388.2981" y2="371.16705"/><linearGradient id="e"><stop offset="0" stop-color="#93a0aa"/><stop offset=".25" stop-color="#9da9b2"/><stop offset=".375" stop-color="#7f8f9a"/><stop offset=".5" stop-color="#93a0aa"/><stop offset=".75" stop-color="#7c8c98"/><stop offset="1" stop-color="#93a0aa"/></linearGradient><linearGradient id="f" gradientTransform="matrix(.7085258 0 0 .84249583 31.89919 -237.75511)" gradientUnits="userSpaceOnUse" spreadMethod="reflect" x1="26.799194" x2="116.60991" xlink:href="#e" y1="403.44403" y2="330.41534"/><linearGradient id="g" gradientTransform="matrix(.7085258 0 0 .84249583 31.89919 -237.75511)" gradientUnits="userSpaceOnUse" spreadMethod="reflect" x1="-14.457483" x2="111.63048" xlink:href="#e" y1="352.03946" y2="332.7601"/><linearGradient id="h" gradientTransform="translate(315.02938 289.98036)" gradientUnits="userSpaceOnUse" x1="113.32804" x2="127.6171" xlink:href="#i" y1="-258.14441" y2="-312.31824"/><linearGradient id="i" gradientTransform="matrix(392.59 0 0 -392.59 9596.87 3878.54)" gradientUnits="userSpaceOnUse" spreadMethod="pad" x1="0" x2="1" y1="0" y2="0"><stop offset="0" stop-color="#523528"/><stop offset=".00561798" stop-color="#523528"/><stop offset=".275281" stop-color="#dff5fd"/><stop offset=".477528" stop-color="#dad9d6"/><stop offset=".668539" stop-color="#fff"/><stop offset="1" stop-color="#68574b"/></linearGradient><linearGradient id="j" gradientUnits="userSpaceOnUse" spreadMethod="reflect" x1="435.50261" x2="446.35026" xlink:href="#k" y1="71.824637" y2="71.824637"/><linearGradient id="k"><stop offset="0" stop-color="#786e69"/><stop offset=".25" stop-color="#726864"/><stop offset=".56093097" stop-color="#6c6360"/><stop offset=".81093097" stop-color="#645c59"/><stop offset="1" stop-color="#645c59"/></linearGradient><linearGradient id="l" gradientTransform="translate(315.02938 289.98036)" gradientUnits="userSpaceOnUse" x1="177.88718" x2="191.16269" xlink:href="#i" y1="-260.46021" y2="-329.25775"/><linearGradient id="m" gradientUnits="userSpaceOnUse" spreadMethod="reflect" x1="499.002606" x2="509.850256" xlink:href="#k" y1="71.824637" y2="71.824637"/><linearGradient id="n" gradientTransform="translate(315.02938 289.98036)" gradientUnits="userSpaceOnUse" x1="134.49602" x2="144.02051" xlink:href="#i" y1="-260.46082" y2="-324.22479"/><linearGradient id="o" gradientUnits="userSpaceOnUse" spreadMethod="reflect" x1="456.669266" x2="467.516916" xlink:href="#k" y1="76.573942" y2="76.573942"/><linearGradient id="p" gradientTransform="translate(315.02938 289.98036)" gradientUnits="userSpaceOnUse" x1="199.05383" x2="210.455" xlink:href="#i" y1="-268.92688" y2="-330.63269"/><linearGradient id="q" gradientUnits="userSpaceOnUse" spreadMethod="reflect" x1="520.169271" x2="531.016921" xlink:href="#k" y1="79.966302" y2="79.966302"/><filter id="r" color-interpolation-filters="sRGB" height="1.391032" width="1.17313" x="-.086565" y="-.195516"><feGaussianBlur stdDeviation="2.5212014"/></filter><filter id="s" color-interpolation-filters="sRGB" height="1.016861" width="1.017622" x="-.008811" y="-.00843"><feGaussianBlur stdDeviation=".73819355"/></filter><filter id="t" color-interpolation-filters="sRGB" height="1.019617" width="1.019043" x="-.009521" y="-.009808"><feGaussianBlur stdDeviation=".79072692"/></filter><linearGradient id="u" gradientUnits="userSpaceOnUse" x1="-115.8937" x2="-88.113281" y1="31.058949" y2="31.058949"><stop offset="0" stop-color="#aaa380"/><stop offset=".82859254" stop-color="#a39c75"/><stop offset="1" stop-color="#999166"/></linearGradient><linearGradient id="v" gradientTransform="matrix(.34440893 0 0 1.0675561 36.568764 -4.095293)" gradientUnits="userSpaceOnUse" x1="66.048439" x2="66.048439" y1="77.644974" y2="81.380188"><stop offset="0" stop-color="#533c2c" stop-opacity="0"/><stop offset="1" stop-color="#533c2c"/></linearGradient><linearGradient id="w" gradientTransform="matrix(.34440893 0 0 1.0675561 36.568764 -4.095293)" gradientUnits="userSpaceOnUse" x1="66.048439" x2="66.048439" y1="77.644974" y2="81.380188"><stop offset="0" stop-color="#866046" stop-opacity="0"/><stop offset="1" stop-color="#866046"/></linearGradient><linearGradient id="x" gradientTransform="matrix(.70852579 0 0 .84249585 115.34622 -236.16161)" gradientUnits="userSpaceOnUse" spreadMethod="reflect" x1="-75.162231" x2="-56.490837" y1="363.89615" y2="379.59848"><stop offset="0" stop-color="#9f571d"/><stop offset=".511236" stop-color="#fde791"/><stop offset="1" stop-color="#b7671e"/></linearGradient><g><g stroke-width="1.30905" transform="matrix(.76391586 0 0 .76391586 400.44649 22.622178)"><path d="m-392.54218-18.949863c-11.24071 1.764938-22.48932 2.758523-33.74419 3.103686l-22.66218-.148311c-11.51406-.475976-23.04251-1.534564-34.57774-3.04891l-5.18986-.679545.51005 48.144316.16381 2.992065c1.32061 24.287044.9587 48.550728-1.32395 72.806922l-.40824 4.31808 4.18527 1.14257c31.9341 8.71699 64.00333 8.42436 95.85979.0119l4.13825-1.09193-.31057-4.27157v-.002c-1.80128-24.670426-2.42118-49.28703-1.19797-73.910106l-.0559-2.374789-.17758-47.810416z" fill="#533c2c"/><path d="m-484.21884 104.30827c31.06261 8.47911 62.12099 8.20262 93.18308 0-1.81319-24.833261-2.44026-49.663871-1.2237-74.162043l.5285-44.395728c-11.48239 1.80287-22.9616 2.81667-34.4289 3.16672l-22.93607-.14883c-11.70623-.48207-23.40505-1.55826-35.09037-3.09232l1.31943 45.291066c1.32111 24.294534.95599 48.816114-1.35197 73.341135z" fill="url(#a)"/></g><g stroke-width="1.30905" transform="matrix(.76391586 0 0 .76391586 400.44649 22.622178)"><path d="m-446.55273 90.91966c5.92152.58167 11.93609.617105 17.85001-.0373 7.64066-.845482 15.18246-2.684973 22.51445-4.995072 6.90945-2.176969 13.49246-5.298548 20.08329-8.305318 1.63192-.744491 4.8125-2.407633 4.8125-2.407633l-6.04071-94.942236-5.20898.818038c-11.24072 1.764938-22.48932 2.758523-33.74419 3.103686l-22.66219-.148311c-11.51406-.475976-23.04251-1.534564-34.57774-3.04891l-5.18986-.679545-.29456 2.531112-4.9258 92.205923s2.78406 1.831112 4.26151 2.594659c6.51999 3.369537 13.21234 6.531153 20.2183 8.717592 7.43311 2.319743 15.1546 3.832097 22.90397 4.593317z" fill="#533c2c"/><g><path d="m-406.18827 80.240872c6.65296-2.239247 12.34156-4.917334 19.303-8.418949l-4.84569-86.071424c-11.48239 1.802871-22.9616 2.816671-34.4289 3.166721l-22.93607-.14883c-11.70623-.48207-23.40505-1.558261-35.09037-3.092321l-4.23333 86.278654c6.44353 3.983555 12.30316 6.963616 18.96293 9.202175 7.35053 2.470747 15.09805 3.785862 22.81523 4.547453 5.95068.587258 12.00148.710081 17.93875 0 7.66798-.917069 15.19529-3 22.51445-5.463479z" fill="url(#c)"/><g transform="matrix(1.3090447 0 0 1.3090447 -921.77345 -93.969892)"><path d="m404.90779 60.899664c-2.75972.433309-5.51901.800289-8.27805 1.117244 2.50799 1.316224 4.22093 3.941597 4.22093 6.970118 0 4.346942-3.52503 7.872388-7.87187 7.872388-4.34716 0-7.86877-3.525446-7.86877-7.872388 0-2.498969 1.16731-4.721315 2.98277-6.162932-3.16294.23302-6.32485.398055-9.48573.494544l-8.65839-.05633c-.21224.836003-.38 1.688769-.49971 2.557983h-6.43733v6.151046h6.40839c.27206 2.156869.83298 4.222927 1.64228 6.161898l-5.51077 3.198771 2.94504 5.349544 5.63583-3.245796c1.28803 1.683175 2.79257 3.190242 4.47621 4.476212l-1.33428 2.30787-3.63234-2.654619-3.21996 4.411617c-1.22174-.358164-2.52973-.485343-3.86436-.343131l-2.23294-4.988326-5.6534 2.529561 2.22157 4.966622c-.9751.869984-1.7761 1.920266-2.358 3.088184l-5.20588-.572575-.61237 6.212028 4.89169.5364c.25191 1.51715.83481 2.9011 1.66037 4.09329l-2.75539 3.85403 5.04155 3.68194 2.66237-3.72845c1.1007.39755 2.27759.61261 3.48868.60461.36892-.002.74006-.0273 1.11311-.0713l1.87844 4.19354 5.6534-2.52956-1.90325-4.24729c1.13529-1.04666 2.01996-2.34465 2.58331-3.78943l4.83743.47594.61185-6.212024-5.08806-.554488c-.35153-1.349976-.9639-2.575771-1.77457-3.63182l1.05885-1.48518 4.12223 2.318721 3.10575-5.413623c1.88699.783993 3.8941 1.33445 5.98982 1.60662v6.351034h6.15104v-6.358268c2.15103-.284652 4.20814-.860299 6.13658-1.685169l3.1595 5.499406 1.33842-.733288.18138-.05168zm-37.2463 35.405075c.0861.000896.17254.004.25941.0093 2.77965.169578 4.8963 2.559167 4.72684 5.33869-.16443 2.69263-2.41344 4.76106-5.08134 4.73356-.0859-.0008-.17397-.006-.26097-.0109-2.77975-.16969-4.89268-2.55877-4.72322-5.33817.16428-2.692788 2.41165-4.760322 5.07928-4.732531z" fill="#774f37" opacity=".33"/><path d="m1499.0496 234.39656c-10.7257 1.23183-21.4507 2.25218-32.1719 3.04297-6.8881 5.44724-11.3418 13.83248-11.3418 23.29883 0 7.3982 2.7047 14.16163 7.1719 19.36719-2.0246-4.02012-3.1719-8.5588-3.1719-13.36719 0-12.08662 7.2032-22.48497 17.5527-27.14063h24.3711c4.0143 1.80507 7.548 4.48186 10.3809 7.77735-2.801-5.55175-7.2901-10.09361-12.791-12.97852zm-123.0371 37.6211v6h21.1855c-.3871-1.97768-.7097-3.97788-.9648-6zm38.0312 43.33007-20.7715 11.96289 3.4707 6.30469 21.3008-12.26758c3.5377 4.62303 7.5134 8.88939 11.8613 12.74414l1.0567-1.82617c-6.3633-4.86035-12.0499-10.55636-16.918-16.91797zm-33.0683 18.13086-1.0958.49024 5.5352 12.36328c.4236-.0451.8456-.07271 1.2676-.10352zm139.082 10c-7.2886 3.11762-15.0635 5.29329-23.1934 6.36914v24.03321h-19.248v6h23.248v-24.03321c7.9648-1.05401 15.5862-3.16872 22.7461-6.18554zm-69.0781.32422-11.7403 20.46094-15.5781-8.76367-4.0039 5.61328c3.064 3.99136 5.3784 8.6243 6.707 13.72656l1.9864.2168c-1.255-2.85775-2.8332-5.52019-4.6934-7.94336l4.0039-5.61328 15.5781 8.76367 11.7403-20.46094c5.9211 2.46005 12.1582 4.30092 18.6367 5.44727v-5.375c-7.9208-1.02868-15.5048-3.10914-22.6367-6.07227zm86.7636 17.49414-.6855.19531-4.6387 2.54102 3.5801 6.23047 2.1816-1.19531zm-148.1562 2.68945c-10.0823-.10504-18.5764 7.70926-19.1973 17.88672-.3428 5.62186 1.7866 10.81953 5.4492 14.53711-1.0993-2.61444-1.6336-5.51355-1.4492-8.53711.6409-10.50579 9.6712-18.49334 20.1777-17.85156 4.8884.29823 9.2328 2.41381 12.418 5.64844-2.7218-6.47434-8.9323-11.19175-16.418-11.64844-.3283-.02-.6551-.03186-.9804-.03516zm55.4668 18.45508-1.7696 17.97266-18.2851-1.79883c-2.1291 5.46059-5.4729 10.36639-9.7637 14.32227l7.1934 16.05273-20.2735 9.07227 2.9063 6.48828 21.3672-9.56055-7.1934-16.05273c4.2908-3.95588 7.6346-8.86168 9.7637-14.32227l18.2851 1.79883 2.3125-23.47852zm-107.4082 6.85352-.541 5.50195 15.9082 1.74414c-.6087-1.84205-1.0929-3.74706-1.42-5.71679zm38.9238 31.39062-10.0605 14.0918-13.6094-9.93945-1.4453 2.02343 19.0547 13.91602 10.0605-14.0918c4.1601 1.50255 8.6101 2.3154 13.1875 2.28516.9779-.006 1.9596-.06841 2.9453-.1543l-2.7402-6.11523c-1.4099.1663-2.8108.26122-4.2051.26953-4.5774.0302-9.0274-.78261-13.1875-2.28516z" fill="#a77858" filter="url(#s)" transform="scale(.26458334)"/><path d="m1392.9363 239.06844c-.2223 1.22535-.4226 2.45816-.5938 3.70117h-24.33v23.24805h4v-17.24805h24.33c.4528-3.2875 1.1054-6.5064 1.9082-9.66797zm114.9043 2.30664c2.0282 4.0199 3.1875 8.55318 3.1875 13.36328 0 16.42939-13.3249 29.7539-29.7539 29.7539-9.0316 0-17.1131-4.03215-22.5664-10.38671 4.8932 9.71587 14.9448 16.38671 26.5664 16.38671 16.429 0 29.7539-13.32451 29.7539-29.7539 0-7.40071-2.7137-14.15902-7.1875-19.36328zm-114.6426 30.64258c1.1734 5.99508 2.9421 11.7785 5.2422 17.28906l-20.8262 12.08984 11.1289 20.21875.5293-.30469-7.6582-13.91406 20.8262-12.08984c-3.0588-7.32839-5.1787-15.13712-6.207-23.28906zm-20.2226 49.46093-21.3672 9.56055 8.3984 18.77148c-3.6855 3.28813-6.7128 7.2577-8.9121 11.67188l-19.6777-2.16406-2.3125 23.47851 4.541.49805 1.7715-17.97656 19.6777 2.16406c2.1993-4.41418 5.2266-8.38375 8.9121-11.67188l-8.3984-18.77148 20.2714-9.07031zm35.2167 3.47656-12.1718 16.67383c-4.2298-1.24002-8.7341-1.73684-13.3379-1.40039l2.7324 6.10352c5.0442-.53749 9.9879-.05681 14.6055 1.29687l12.1718-16.67383 13.7266 10.03516 5.043-8.72461c-1.739-1.3283-3.4216-2.72417-5.0567-4.17383l-3.9863 6.89844zm111.8653 18.52344c-.1479.0633-.2989.12108-.4473.1836l8.3887 14.60156.4199-.23047zm-50.4414 5.77149v18.63086h4v-18.00586c-1.3448-.17465-2.6751-.39057-4-.625zm-45.2656 19.80664c.8122 1.84945 1.4916 3.77853 2.0136 5.7832l14.6895 1.60156.5429-5.50586zm-21.3653.61328c1.0981 2.61199 1.6315 5.50941 1.4473 8.5293-.6214 10.17685-9.1217 17.99456-19.2051 17.89062-.3246-.003-.6574-.02212-.9863-.04102-4.8836-.29812-9.2212-2.40969-12.4024-5.63867 2.7201 6.46902 8.9202 11.18192 16.4024 11.63867.3289.0189.6617.03802.9863.04102 10.0834.10394 18.5837-7.71377 19.2051-17.89062.3425-5.61715-1.7872-10.81229-5.4473-14.5293zm-53.9726 20.87109c1.1633 3.52033 2.8051 6.79584 4.8535 9.75391l-10.4121 14.5664 5.4453 3.97657 8.9668-12.54297c-3.1202-4.50591-5.3214-9.7366-6.2735-15.4707zm44.9492 32.16016c-.421.0497-.8402.07869-1.2598.11523l4.3594 9.73438 1.0937-.48828z" fill="#533c2c" filter="url(#t)" transform="scale(.26458334)"/></g></g></g><g transform="translate(.018121 -.000458)"><g><path d="m59.298708 76.970613v15.274922c-.0951 1.963066.670992 3.623844 1.769401 5.031734 1.124821 1.441742 2.775156 2.779081 5.076176 2.760041 2.263114-.0187 3.958752-1.28486 5.140771-2.777611 1.140831-1.440735 1.939808-3.275829 1.685686-5.36298v-14.926106h-2.645317v15.110074c.372561 2.368683-1.944574 5.29159-4.201811 5.31027-2.198576.0182-4.326385-2.960355-4.17804-5.104081v-15.316263z" fill="url(#v)"/><path d="m66.123358 97.391108c2.257239-.01868 4.574733-2.94178 4.202172-5.310466v-15.110006h-8.380188v15.316466c-.148346 2.143728 1.979438 5.122202 4.178016 5.104006z" fill="url(#w)"/></g><g stroke-linecap="round" stroke-linejoin="round"><path d="m59.318359 86.769531a1.3230472 1.3230472 0 0 0 -1.324218 1.324219v3.986328a1.3230472 1.3230472 0 0 0 1.324218 1.324219h13.634766a1.3230472 1.3230472 0 0 0 1.324219-1.324219v-3.986328a1.3230472 1.3230472 0 0 0 -1.324219-1.324219zm1.322266 2.646485h10.990234v1.341796h-10.990234z" fill="#84542e"/><path d="m59.317548 92.080642h13.636135v-3.987551h-13.635906z" fill="url(#x)" stroke-width="2.64583"/></g></g></g><g stroke-width="1.89622" transform="matrix(.52736495 0 0 .52736495 65.665843 70.539459)"><path d="m112.53713 37.455294c-1.7261-1.89935-4.4442-3.220205-5.55232-4.065401l-11.31146-5.953222c-3.12373-1.309876-6.3106-3.335523-9.75964-3.455758-3.92513-.136832-7.35986 1.511137-11.35372 3.149787l-7.41449 3.906134-38.07864 20.062353c-2.14936 1.210691-4.07405 2.390445-5.57104 4.15963-.86627 1.023783-1.19653 1.934822-1.84025 3.577781l-13.64063 22.184093c-.54084.940395-1.34104 3.357496-.86765 4.971789.55652 1.897824 2.09693 3.421469 4.01473 4.368725l29.17653 15.525675c1.45072.86658 1.941285.98919 2.988922 1.25275 1.746075.43925 3.576219.49526 5.376556.51783 1.264109.0159 2.545925-.009 3.783084-.26883 1.268796-.26677 2.443848-.64897 3.662358-1.31004l66.13343-35.920286c1.79668-1.492455 3.10269-2.743699 3.70417-4.62504.65399-2.045625.30998-4.268498-.3633-6.432168l-11.10353-18.48262c-.2975-1.124305-1.0691-2.157435-1.98311-3.163182z" fill="#5f646d" stroke-width="1.89622"/><path d="m44.99246 107.35965c1.353493.0323 2.886108-.173 3.92635-1.03953 1.182222-.98481 1.92386-3.24817 1.9683-4.17531.0424-8.804971.0407-18.137983 0-27.191795l-29.23142-16.116331-13.64087 22.184071c-.54082.940395-1.34078 3.357423-.86739 4.971715.55653 1.897825 2.09702 3.421315 4.01482 4.368571l29.17649 15.525959c1.45072.86659 3.027126 1.43388 4.65372 1.47265z" fill="#5f646d" stroke-width="1.89622"/><path d="m42.57564 101.68347c4.02815 2.41807 3.72614 2.05885 3.74406-2.309641v-20.567941l-23.92493-12.628902-9.74846 16.34368s-1.09659 1.48202-.89116 2.267825c.18919.723712 1.73791 1.419734 1.73791 1.419734z" fill="url(#d)"/><path d="m114.52032 40.618448-68.20062 38.187441v20.567941c-.008.72125-.33944 3.33552.41365 4.72607.83818 1.54765 2.433597 2.88721 4.15376 3.25975 1.764423.38212 4.04374-.62017 5.26225-1.28124l66.1338-35.919923c1.79667-1.492455 3.10262-2.743659 3.70409-4.625.65399-2.045624.31001-4.268949-.36327-6.432617z" fill="#5f646d" stroke-width="1.89622"/><path d="m121.25716 60.886951-8.31879-13.422705-61.99951 32.196799v19.712784c-.0141 1.981501-.64839 4.465311 2.94 2.518521l65.60404-35.591957s1.6682-1.325868 1.98965-2.282675c.33313-.991592-.21539-3.130767-.21539-3.130767z" fill="url(#f)"/><path d="m95.67335 27.436671c-3.12373-1.309876-6.3106-3.335523-9.75964-3.455758-3.92513-.136832-7.35986 1.511137-11.35372 3.149787l-7.41449 3.906134-38.07864 20.062353c-2.14936 1.210691-4.1796 2.306286-5.57104 4.15963-1.22458 1.631093-2.17381 3.690297-2.14722 5.729747.0222 1.70325.89084 3.377519 1.91739 4.736834 1.3715 1.816074 3.38706 2.872849 5.38607 4.195526l11.17807 5.834766c3.69525 1.905466 7.33313 3.98892 11.32511 3.902796 3.72291-.08032 7.01022-2.140144 10.39496-4.091858l6.71722-3.523108 39.12167-20.518901c2.15259-.937264 4.16751-2.231665 5.54928-4.060372 1.09191-1.445091 1.96227-3.285072 1.88888-5.094814-.0732-1.805705-.85587-3.457698-2.29012-4.914139-1.80081-1.828672-4.4442-3.220205-5.55232-4.065401z" fill="#5f646d" stroke-width="1.89622"/><path d="m108.43035 39.630748c-1.9766-1.528023-6.61069-3.532003-6.61069-3.532003l-9.98667-5.271518c-2.09305-1.104829-4.1908-1.700451-6.3983-1.708742-2.31005-.0087-4.55433.904253-6.70877 1.737775-1.86994.723451-5.32179 2.803398-5.32179 2.803398l-39.3209 20.713356s-4.38674 1.723869-6.06265 3.300454c-.87633.824389-1.873 1.856536-1.91602 3.058915-.0487 1.361152.23326 2.271251 1.91602 3.608993 5.6898 2.770753 18.29911 9.317612 18.29911 9.317612s3.02139 1.351787 4.61917 1.292609c1.99731-.07398 3.80982-1.232748 5.63886-2.038544 2.36223-1.040694 6.85791-3.5969 6.85791-3.5969l38.70747-20.301646s4.85235-1.850678 6.74979-3.540198c.92565-.82422 2.18663-1.835139 2.09595-3.071239-.092-1.254123-1.56361-2.003225-2.55849-2.772322z" fill="url(#g)"/><path d="m96.37258 38.955549 6.77201 3.447521-52.20573 27.500793-17.69401-9.44245 6.7056-3.547269 10.98868 5.871105 45.43425-23.829434z" fill="#9da9b2" filter="url(#r)"/></g><g stroke-width="2.56794"><g transform="matrix(-.13753505 -.3643218 .3643218 -.13753505 144.51617 263.65548)"><path d="m428.35742-28.423828v4.763672 55.496094l7.14453 7.144531 7.14453-7.144531v-22.9531255h6.08399v-8.46679688-5.82031252-2.6464843-5.8203128-8.466797h-6.08399v-6.085937z" fill="#5c5452"/><path d="m433.12072-23.661109v53.525209l2.38125 2.381251 2.38125-2.381251v-25.7439675h6.08542v-4.76250016h-6.08542v-3.70416674h6.08542v-4.7625001h-6.08542v-3.7041665h6.08542v-4.7625h-6.08542v-6.085417z" fill="url(#h)"/><path d="m424.6543 21.382812v11.498047 53.525391c0 3.148543 2.14118 5.858483 4.27539 7.095703 2.1342 1.237221 4.36069 1.634766 6.57226 1.634766 2.21158 0 4.43806-.397545 6.57227-1.634766 2.13421-1.23722 4.27539-3.94716 4.27539-7.095703v-65.023438l-10.84766 10.847657z" fill="#56504e"/><path d="m429.41655 32.880351v53.525209c0 5.291667 12.17084 5.291667 12.17084 0v-53.525218l-6.08542 6.085416z" fill="url(#j)"/></g><g transform="matrix(-.0209799 -.38885229 .38885229 -.0209799 26.490699 306.16933)"><path d="m458.63086-36.199219-9.10547-7.714781v9.669859 63.763672h14.28711v-54.203125z" fill="#5c5452"/><path d="m454.28739-34.244443v59.002085h4.7625v-48.418751z" fill="url(#n)"/><path d="m445.82031 24.757812v4.761719 56.886719c0 3.148541 2.14119 5.858482 4.27539 7.095703 2.13421 1.237221 4.3607 1.634766 6.57227 1.634766s4.43806-.397545 6.57226-1.634766c2.13421-1.237221 4.27539-3.947162 4.27539-7.095703v-61.648438z" fill="#56504e"/><path d="m450.58322 29.520142v56.885418c0 5.291667 12.17083 5.291667 12.17083 0v-56.885427z" fill="url(#o)"/></g><g transform="matrix(-.38373314 .06629583 .06629583 .38373314 316.95728 56.247574)"><path d="m525.48438-40.652344-4.27149 2.134766-21.24414 10.623047 8.46289 4.230469-4.56055 2.279296 9.1543 9.150391v33.287109h14.28711v-38.183593l13.05273-6.533203-8.5664-4.283204z" fill="#5c5452"/><path d="m523.34364-34.257673-12.72646 6.363229 8.46667 4.233334-7.17021 3.582458 5.87375 5.871104v30.498522h4.7625v-32.472313l-2.59292-2.592917 9.76313-4.886854-8.46667-4.233334 4.20688-2.103437z" fill="url(#p)"/><path d="m509.32031 16.291016v4.761718 65.353516c0 3.148543 2.14119 5.858483 4.27539 7.095703 2.13421 1.237221 4.3607 1.634766 6.57227 1.634766s4.43806-.397545 6.57226-1.634766c2.13421-1.23722 4.27539-3.94716 4.27539-7.095703v-70.115234z" fill="#56504e"/><path d="m514.08322 21.053475v65.352085c0 5.291667 12.17084 5.291667 12.17084 0v-65.352094z" fill="url(#q)"/></g><g transform="matrix(.27426132 .27645432 -.27645432 .27426132 -15.09679 -33.2297)"><path d="m485.77344-39.277344v4.763672 9.523438h4.76172c.41116 0 .41591.0092.71289.01367.2607 1.045511.54934 2.841865.60937 5.671874v48.824219h14.28906v-48.998047l-.006.222657c.25305-5.421343-.28583-11.826638-4.79296-16.507813l-.0527-.05664-.0566-.05469c-2.95576-2.876354-6.70287-3.354383-8.9375-3.400391l-.0488-.002z" fill="#5c5452"/><path d="m490.53531-34.514327v4.7625c2.2225 0 3.30729-.03704 4.04812.695854.76729.732896 1.905 3.272896 2.03729 9.670522v44.143084h4.7625v-44.235689c.21167-4.534958-.79375-10.207625-3.46604-12.983104-1.77271-1.725084-3.91583-2.016125-5.715-2.053167z" fill="url(#l)"/><path d="m488.1543 24.757812v4.761719 56.886719c0 3.148541 2.14118 5.858482 4.27539 7.095703 2.1342 1.237221 4.36069 1.634766 6.57226 1.634766s4.43806-.397545 6.57227-1.634766c2.1342-1.237221 4.27539-3.947162 4.27539-7.095703v-61.648438z" fill="#56504e"/><path d="m492.91656 29.520142v56.885418c0 5.291667 12.17083 5.291667 12.17083 0v-56.885427z" fill="url(#m)"/></g></g><g transform="matrix(.33870417 0 0 .33870417 76.851183 81.282665)"><g transform="matrix(.26458334 0 0 .26458334 -.000095 78.316688)"><path d="m-438.02344-22.484375c-29.2166-.000194-58.41541 4.607666-87.00036 10.650009-6.13593 1.297024-12.26889 2.9263629-18.00276 5.4669583-7.56583 3.35231-15.60574 6.74688676-21.30149 12.7500677-5.22622 5.508308-10.63838 12.539909-10.65632 20.132965-.0181 7.66156 5.32562 14.862158 10.65632 20.365199 5.67307 5.856479 13.87495 8.658563 21.30149 12.024359 5.79185 2.624935 11.80769 4.876355 18.00276 6.310526 28.45023 6.586281 57.79771 10.29993 87.00036 10.299916 29.2024-.000014 58.54996-3.712314 86.99963-10.299916 6.19331-1.434079 12.22386-3.649354 17.99724-6.310526 7.24267-3.338425 15.09943-6.331002 20.68398-12.02434 5.43851-5.544453 11.33812-12.598751 11.31915-20.365218-.0188-7.698886-5.9858-14.580599-11.31915-20.132948-5.61073-5.8411241-13.30062-9.4206686-20.68398-12.7500818-5.71543-2.5772828-11.86317-4.1691032-17.99724-5.4658752-28.58463-6.042924-57.78323-10.650901-86.99963-10.651095z" fill="#756022"/><path d="m-438.02344-4.484375c-29.24375-.0000157-58.84685 3.3902394-87.00036 11.3007812-8.97438 2.52161-18.22517 5.6038478-25.55042 11.3691408-2.75321 2.166895-6.41016 4.826424-6.41016 8.330078s3.65695 6.163183 6.41016 8.330078c7.32525 5.765293 16.57604 8.847531 25.55042 11.369141 28.15351 7.910542 57.75661 11.300797 87.00036 11.300781 29.24351-.000016 58.84352-3.400415 86.99963-11.300781 8.98981-2.522465 18.26292-5.594446 25.59998-11.369141 2.75163-2.165692 6.40039-4.828409 6.40039-8.330078s-3.64876-6.164386-6.40039-8.330078c-7.33706-5.774695-16.61017-8.8466755-25.59998-11.3691408-28.15611-7.9003659-57.75612-11.3007655-86.99963-11.3007812zm0 23c16.2207 0 48 3.581722 48 8s-31.7793 8-48 8-48-3.581722-48-8 31.7793-8 48-8z" fill="#ccac4e" stroke-width="36"/></g><path d="m-115.25144 27.18825c.66412.391566 10.81784 2.637113 11.84789 7.12979.89982 3.924661-7.5337 6.197769-6.6028 10.115175 1.52646 6.423657 11.620417 6.306382 17.131297 9.942814 7.411256 4.890422 21.959894 7.063945 21.355422 15.9227-.337765 4.950069-17.019089 3.590481-13.030883 7.193849 4.903974 4.430771 15.807219 7.981359 14.739936 8.238918" fill="none" stroke="#787250" stroke-linecap="round" stroke-width="4.7625"/><path d="m-92.875053 86.634595c-1.512633.904578-3.324401 1.21402-5.053542 1.555185-5.899575 1.164006-11.951895 1.640217-17.965205 1.640417-6.01771.000201-12.07479-.474335-17.97844-1.640417-1.7248-.34068-3.53182-.650754-5.04031-1.553773-1.9158-1.146844-4.43215-2.880527-4.76305-4.709905l-.00018-70.922196 6.02734 1.660157c5.70666 1.57042 13.33315 2.552734 21.75391 2.552734 8.39319 0 16.057726-.983871 21.753905-2.552734l6.027344-1.660157v70.925949c-.3175 1.825625-2.846757 3.559532-4.761772 4.70474z" fill="#787250"/><path d="m-138.91255 86.636007c1.50971.692349 3.05831 1.116108 5.04031 1.553773 5.04031 1.11125 11.49614 1.640417 17.97844 1.640417 6.48229 0 12.93812-.529167 17.965205-1.640417 2.006453-.438912 3.542396-.859876 5.053542-1.555185v-69.379608c-6.244167 1.719792-14.261047 2.725208-23.018747 2.725208-8.78417 0-16.7693-1.005416-23.01875-2.725208z" fill="#787250" stroke-width="9.525"/><path d="m-138.91255 17.254987v2.804583c15.4252 3.704167 30.69166 3.439584 46.037497 1.825625v-4.630208c-6.244167 1.719792-14.261047 2.725208-23.018747 2.725208-8.78417 0-16.7693-1.005416-23.01875-2.725208zm0 7.699375v6.455833c16.64229.767292 31.67062-.899583 46.037497-3.677708v-1.084792c-15.107707 1.5875-30.427087 1.852084-46.037497-1.693333zm46.037497 7.593542c-14.287497 2.725208-29.395207 4.365625-46.037497 3.65125v4.947708c16.93333.396875 32.59666-.661458 46.037497-4.206875zm0 9.339792c-13.758337 3.413125-29.395207 4.392083-46.037497 4.021667v.846666c16.27187 2.2225 31.96166 3.65125 46.037497 2.8575zm-46.037497 9.657292v2.354791c14.10229 4.497917 29.87145 4.709584 46.037497 4.471459v-3.995209c-14.313957.767292-29.950837-.608541-46.037497-2.831041zm0 7.328958v8.41375c13.94354.899584 27.19916-.926041 40.26958-4.101041-13.75833.105833-27.49021-.449792-40.26958-4.312709zm46.037497 7.77875c-14.737297 3.889375-29.924377 6.429376-46.037497 5.423959v4.233333c15.24.05292 30.37416-.264583 46.037497-3.757083zm0 10.768542c-15.848547 3.386667-31.035627 3.704167-46.034857 3.65125 0 0 .10848.238125.98161.740834 1.03452.582083 2.84427 1.217083 5.09058 1.719791 4.48204 1.005417 10.72621 1.534584 16.94392 1.534584 6.2177 0 12.46187-.529167 16.93333-1.534584 2.248958-.502708 4.074583-1.137708 5.106458-1.719791.899584-.529167.978959-.79375.978959-.740834z" fill="url(#u)" stroke-width=".264583"/><path d="m-64.895116 75.165218c-3.202493.03946-6.617086 1.606007-8.895525 3.405371-2.278438 1.799364-3.067452 2.552545-3.785356 3.345121l-10.199636 9.743332-10.199637 9.743338c-8.77856 7.77762-16.45114 16.61974-24.32532 25.28103 10.37653-5.27921 20.16226-11.44317 29.87046-17.82542l11.659882-7.66529 11.659883-7.665295c1.254718-.657127 2.480406-1.449949 4.334811-2.928628 1.854404-1.47868 3.788524-3.832013 4.893118-6.207318 1.103955-2.373935 1.480677-5.102606-.146246-7.171656-1.14445-1.46403-2.995533-2.071145-4.859134-2.054654h-.0036zm-5.665927 9.645499.000529-.0011.000529-.000529c.972661-.776994 1.996824-1.187892 2.641698-1.298628-.288728.605685-.954687 1.476261-1.892291 2.221036l-.0011.0011-.0011.000529c-.944655.752554-1.957094 1.212813-2.630584 1.339203.258454-.616816.932962-1.504604 1.882319-2.261611z" fill="#57555d" stroke-width=".264583"/><path d="m-64.869279 77.281884c-2.526395.03113-5.794729 1.436129-7.769908 3.025432-1.975178 1.589302-2.769309 2.347709-3.474888 3.139043l-10.199636 9.743333c-10.199636 9.743328-20.399269 19.486668-30.598909 29.229998 11.66143-7.66633 23.322867-15.33265 34.9843-22.998984l11.661434-7.666327c1.18716-.605614 2.36461-1.369517 3.466454-2.248958 4.672538-3.723557 6.955729-8.633308 5.106149-10.980209-.642849-.824223-1.745398-1.255982-3.175-1.243332zm-2.672189 3.995103c.0088-.000034.01759-.000034.02635 0 .712087-.0084 1.263104.202895 1.5875.608751.928952 1.175338-.220128 3.639402-2.566252 5.503021-2.33532 1.860421-4.984403 2.428165-5.92677 1.270209-.94513-1.165787.193165-3.632285 2.539897-5.503542 1.438797-1.149358 3.072792-1.856703 4.33927-1.878439z" fill="#77767b" stroke-width="4.23333"/><g transform="scale(.26458334)"><path d="m-438.02344-22.484375c-29.2166-.000194-58.41541 4.607666-87.00036 10.650009-6.13593 1.297024-12.26889 2.9263629-18.00276 5.4669583-7.56583 3.35231-15.60574 6.74688676-21.30149 12.7500677-5.22622 5.508308-10.63838 12.539909-10.65632 20.132965-.0181 7.66156 5.32562 14.862158 10.65632 20.365199 5.67307 5.856479 13.87495 8.658563 21.30149 12.024359 5.79185 2.624935 11.80769 4.876355 18.00276 6.310526 28.45023 6.586281 57.79771 10.29993 87.00036 10.299916 29.2024-.000014 58.54996-3.712314 86.99963-10.299916 6.19331-1.434079 12.22386-3.649354 17.99724-6.310526 7.24267-3.338425 15.09943-6.331002 20.68398-12.02434 5.43851-5.544453 11.33812-12.598751 11.31915-20.365218-.0188-7.698886-5.9858-14.580599-11.31915-20.132948-5.61073-5.8411241-13.30062-9.4206686-20.68398-12.7500818-5.71543-2.5772828-11.86317-4.1691032-17.99724-5.4658752-28.58463-6.042924-57.78323-10.650901-86.99963-10.651095z" fill="#756022"/><path d="m-438.02344-4.484375c-29.24375-.0000157-58.84685 3.3902394-87.00036 11.3007812-8.97438 2.52161-18.22517 5.6038478-25.55042 11.3691408-2.75321 2.166895-6.41016 4.826424-6.41016 8.330078s3.65695 6.163183 6.41016 8.330078c7.32525 5.765293 16.57604 8.847531 25.55042 11.369141 28.15351 7.910542 57.75661 11.300797 87.00036 11.300781 29.24351-.000016 58.84352-3.400415 86.99963-11.300781 8.98981-2.522465 18.26292-5.594446 25.59998-11.369141 2.75163-2.165692 6.40039-4.828409 6.40039-8.330078s-3.64876-6.164386-6.40039-8.330078c-7.33706-5.774695-16.61017-8.8466755-25.59998-11.3691408-28.15611-7.9003659-57.75612-11.3007655-86.99963-11.3007812zm0 23c16.2207 0 48 3.581722 48 8s-31.7793 8-48 8-48-3.581722-48-8 31.7793-8 48-8z" fill="#ccac4e" stroke-width="36"/></g><path d="m-67.918287 83.51046c-.640336.134274-1.669037.521634-2.641698 1.298628l-.000529.000529-.000529.0011c-.547147.436289-.992786.902778-1.334121 1.346418-.250917.326122 4.672215 6.023297 7.57258 8.884575 2.36377 2.331913 6.955078 5.78516 6.955078 5.78516 1.046762.79698 2.541479.59406 3.337891-.45313.795648-1.04643.592822-2.539652-.453125-3.335937 0 0-4.709234-3.625866-6.494141-5.386718-2.321502-2.290216-6.941406-8.140625-6.941406-8.140625z" fill="#787250" stroke-width=".264583"/></g></svg>