<svg height="500" viewBox="0 0 132.29167 132.29167" width="500" xmlns="http://www.w3.org/2000/svg" xmlns:xlink="http://www.w3.org/1999/xlink"><linearGradient id="a" gradientUnits="userSpaceOnUse" spreadMethod="reflect" x1="-502.87932066166" x2="-493.07618776882" xlink:href="#b" y1="204.13547760007" y2="210.36823559045"/><linearGradient id="b"><stop offset="0" stop-color="#ffe666"/><stop offset="1" stop-color="#ffea00"/></linearGradient><radialGradient id="c" cx="-72.92057" cy="103.55173" gradientTransform="matrix(.42376192 -.30261668 .50328981 .70477116 -7.721814 37.244421)" gradientUnits="userSpaceOnUse" r="29.023823" spreadMethod="reflect" xlink:href="#b"/><filter id="d" color-interpolation-filters="sRGB" height="1.094121" width="1.097956" x="-.048978" y="-.04706"><feGaussianBlur stdDeviation=".7688903"/></filter><filter id="e" color-interpolation-filters="sRGB" height="1.025032" width="1.02305" x="-.011525" y="-.012516"><feGaussianBlur stdDeviation=".40472121"/></filter><g><g transform="translate(186.53125 -18.248216)"><path d="m17.859381 81.483635h19.84375v19.84375h-19.84375z" fill="#c2a40a"/><path d="m-1.98437 81.483635h19.84375v19.84375h-19.84375z" fill="#eac60b"/><path d="m-21.828119 81.483635h19.84375v19.84375h-19.84375z" fill="#f9d206"/><path d="m17.859381 13.485715h19.84375v19.84375h-19.84375z" fill="#ffe666"/><path d="m-1.98437 13.485715h19.84375v19.84375h-19.84375z" fill="#fff780"/><path d="m-21.828119 13.485715h19.84375v19.84375h-19.84375z" fill="#ffffb3" opacity=".5"/><path d="m-11.906246 37.562801h39.6875v39.6875h-39.6875z" fill="url(#a)" fill-rule="evenodd" stroke="#c2a40a" stroke-width="9.525"/></g><g opacity=".95"><path d="m90.982069 109.1687h-49.674931l-24.841021-43.025908 24.82903-43.019819h49.686934l24.843469 43.019819z" fill="#c2a40a" opacity="1"/><path d="m80.638618 91.253181h-28.987957l-10.343523 17.915519h49.674931z" fill="#eac60b" opacity="1"/><path d="m90.982069 109.1687 24.843481-43.025908h-20.639185l-14.547747 25.110389z" fill="#f9d206" opacity="1"/><path d="m41.307138 109.1687-24.841021-43.025908h20.672599l14.511945 25.110389z" fill="#f9d206" opacity="1"/><path d="m95.186365 66.142792-14.547747-25.16044 10.343463-17.859379 24.843469 43.019819z" fill="#ffe666" opacity="1"/><path d="m16.466117 66.142792 24.82903-43.019819 10.355514 17.859379-14.511945 25.16044z" fill="#ffe666" opacity="1"/><path d="m80.638618 40.982352h-28.987957l-10.355514-17.859379h49.686934z" fill="#fff780" opacity="1"/><path d="m80.63862 91.253186h-28.987962l-14.511941-25.110394 14.511941-25.160441h28.987962l14.54774 25.160441z" fill="url(#c)" opacity="1"/><g fill="#ffffb3"><path d="m81.685205 27.289837h-23.03744c13.547898 1.098765 20.389749 2.930626 19.672339 5.8279zm8.818055 5.249879c4.04049 9.012642 10.85537 25.889619 6.78512 29.057496h9.99123zm-50.470201-.789579c1.85312 3.993118.425998 11.449901-2.165117 16.267703-3.040899 5.654109-9.048515 11.066984-14.527582 12.644899h8.42549l12.479954-21.615914zm67.587471 38.336236h-11.363479c4.667039 5.356167 4.404839 7.669488-.261353 20.134804zm-74.256823 0c4.998309 12.858092 7.723695 21.34864 6.485611 29.889504l5.399001-9.351344zm45.276253 28.99073c-2.411391 3.366907-6.97412 3.945457-19.673452 5.821047h23.034233z" filter="url(#e)" opacity=".5"/><path d="m77.337251 46.650706-22.672373.05873-3.730462 6.46135c5.700552-3.331014 11.366636-3.83518 16.228553-2.497127s8.982313 4.467066 11.403549 8.55618c2.3507 3.96999 3.393897 8.933299 1.960345 13.701698s-5.21067 9.401524-12.101056 12.9312h8.820696l11.364912-19.684605z" filter="url(#d)" opacity=".5"/></g></g><path d="m117.66038 65.084634-24.844823-43.019032c-.08054-.13942-.443566-.647449-.773491-.834597-.314059-.178157-.839207-.224336-1.059742-.224336l-49.687274.00017c-.1153 0-.736466.04925-1.04757.224638-.332759.187584-.728001.734421-.785639.834282l-24.830617 43.019033c-.0482.0835-.281589.693651-.281492 1.058871.000097.364458.207201.92785.281492 1.056512l24.84245 43.026125c.01744.0301.459214.59246.775828.77524.316046.18245 1.020369.28368 1.057381.28368h49.675429c.05644 0 .741335-.10116 1.05738-.28365.316627-.18278.751219-.73254.775877-.77524l24.844821-43.02613c.0919-.159134.27999-.700332.27907-1.06842-.0009-.361227-.22094-.946462-.27908-1.047146zm-72.691705-39.847028h42.342385l-7.893665 13.628249h-26.547969zm-3.671251 2.113012 7.907848 13.632981-13.289354 23.042272h-15.782595zm49.682526.0024 21.17829 36.672893h-15.751839l-13.322478-23.042252zm-38.105789 15.746013h26.543234l13.322478 23.042285-13.320104 22.995004h-26.545608l-13.291727-22.995004zm-32.743212 25.160028h15.787331l13.286992 22.992645-7.898389 13.682616zm76.275452 0h15.754199l-21.178288 36.677621-7.898389-13.682616zm-43.53224 25.110389h26.540872l7.898401 13.682612h-42.337673z" fill="#c2a40a"/></g></svg>