<svg height="500" viewBox="0 0 500 500" width="500" xmlns="http://www.w3.org/2000/svg" xmlns:xlink="http://www.w3.org/1999/xlink"><linearGradient id="a"><stop offset="0" stop-color="#f00"/><stop offset=".14285706" stop-color="#f00"/><stop offset=".28571412" stop-color="#ff7800"/><stop offset=".42857116" stop-color="#ffef00"/><stop offset=".57142824" stop-color="#0c0"/><stop offset=".71428525" stop-color="#0073ff"/><stop offset=".85714233" stop-color="#b600ff"/><stop offset="1" stop-color="#b600ff"/></linearGradient><linearGradient id="b" gradientUnits="userSpaceOnUse" x1="368.90114562448" x2="132.81994009264" xlink:href="#a" y1="62.39642415112" y2="109.58068242335"/><linearGradient id="c" gradientUnits="userSpaceOnUse" x1="87.8749829185" x2="463.9628440614" xlink:href="#a" y1="109.0205065759" y2="179.05177438213"/><linearGradient id="d" gradientUnits="userSpaceOnUse" x1="464.80858470771" x2="109.66016659242" xlink:href="#a" y1="195.86818876419" y2="301.18759808457"/><filter id="e" color-interpolation-filters="sRGB" height="1.233893" width="1.060394" x="-.030197" y="-.116946"><feGaussianBlur stdDeviation="3.9112179"/></filter><filter id="f" color-interpolation-filters="sRGB" height="1.033591" width="1.01867" x="-.009335" y="-.016795"><feGaussianBlur stdDeviation="1.8074427"/></filter><filter id="g" color-interpolation-filters="sRGB" height="1.152966" width="1.152966" x="-.076483" y="-.076483"><feGaussianBlur stdDeviation=".63237689"/></filter><linearGradient id="h" gradientUnits="userSpaceOnUse" x1="-31.749997804" x2="-71.437498804" xlink:href="#a" y1="37.56279060872" y2="77.25029160872"/><linearGradient id="i" gradientUnits="userSpaceOnUse" x1="-31.749994" x2="-71.437492" xlink:href="#a" y1="37.56279" y2="77.25029"/><linearGradient id="j" gradientTransform="matrix(0 .13229167 -.13229167 0 137.42573 -106.8864)" gradientUnits="userSpaceOnUse" x1="1391.8994" x2="1241.8994" xlink:href="#k" y1="1278.8086" y2="1428.8086"/><linearGradient id="k"><stop offset="0" stop-color="#600"/><stop offset=".14285706" stop-color="#600"/><stop offset=".28571412" stop-color="#663000"/><stop offset=".42857116" stop-color="#666000"/><stop offset=".57142824" stop-color="#004d00"/><stop offset=".71428525" stop-color="#002e66"/><stop offset=".85714233" stop-color="#490066"/><stop offset="1" stop-color="#490066"/></linearGradient><linearGradient id="l" gradientTransform="matrix(0 -.13229167 .13229167 0 -240.61323 221.6995)" gradientUnits="userSpaceOnUse" x1="1391.8994" x2="1241.8994" xlink:href="#m" y1="1278.8086" y2="1428.8086"/><linearGradient id="m"><stop offset="0" stop-color="#f99"/><stop offset=".14285706" stop-color="#f99"/><stop offset=".28571412" stop-color="#ffc999"/><stop offset=".42857116" stop-color="#fff999"/><stop offset=".57142824" stop-color="#7fff7f"/><stop offset=".71428525" stop-color="#99c7ff"/><stop offset=".85714233" stop-color="#e299ff"/><stop offset="1" stop-color="#e299ff"/></linearGradient><linearGradient id="n" gradientUnits="userSpaceOnUse" x1="-31.750003902" x2="-51.593754402" xlink:href="#a" y1="37.56278530436" y2="57.40653580436"/><linearGradient id="o" gradientUnits="userSpaceOnUse" x1="170.66602042124" x2="250.01758033732" xlink:href="#k" y1="44.98535871242" y2="455.01463216886"/><linearGradient id="p" gradientUnits="userSpaceOnUse" x1="464.80860470771" x2="109.66018659242" xlink:href="#m" y1="195.86854876419" y2="301.18795808457"/><linearGradient id="q" gradientUnits="userSpaceOnUse" x1="87.8750029185" x2="463.9628640614" xlink:href="#m" y1="109.0208665759" y2="179.05213438213"/><linearGradient id="r" gradientUnits="userSpaceOnUse" x1="368.90116562448" x2="132.81996009264" xlink:href="#m" y1="62.39678415112" y2="109.58104242335"/><clipPath id="s"><path d="m407.85115 79.80677-148.53472 45.53707-9.11263 2.79371-9.4362-2.83472-151.30051-45.45198-9.84207 13.44221-61.83203 83.27149-9.44532 13.58789 202.62501 222.07031 39.04488 42.7919 39.04496-42.7919 202.58985-222.03516-9.46875-13.61523-63.99414-84.05859zm-135.02489 58.12969 122.20425-37.46489 12.82064-20.6648-77.89999-34.82068-159.28515-.00002-81.19892 34.86478 13.03416 20.62162 124.70716 37.46399 22.80915.48731z"/></clipPath><filter id="t" color-interpolation-filters="sRGB" height="1.055886" width="1.015281" x="-.007641" y="-.027943"><feGaussianBlur stdDeviation="1.4794084"/></filter><g transform="matrix(3.7795275 0 0 3.7795275 -108.1319 -35.10153)"><g opacity=".5"><path d="m-41.671875 81.483635h19.84375v19.84375h-19.84375z"/><path d="m-61.515625 81.483635h19.84375v19.84375h-19.84375z" fill="#262626" opacity="1"/><path d="m-81.359375 81.483635h19.84375v19.84375h-19.84375z" fill="#4d4d4d" opacity="1"/><path d="m-41.671875 13.485714h19.84375v19.84375h-19.84375z" fill="#b2b2b2" opacity="1"/><path d="m-61.515625 13.485714h19.84375v19.84375h-19.84375z" fill="#d9d9d9" opacity="1"/><path d="m-81.359375 13.485714h19.84375v19.84375h-19.84375z" fill="#fff" filter="url(#g)" opacity=".5"/></g><path d="m-71.437501 37.562799h39.6875v39.6875h-39.6875z" fill="url(#h)" fill-rule="evenodd" stroke="url(#i)" stroke-width="9.525"/><path d="m-76.199219 82.013672h49.210938v-49.212891h-49.210938zm4.761719-44.451172h39.6875v39.6875h-39.6875z" style="opacity:.75;fill:#241f31;fill-rule:evenodd;stroke-width:1.21064;stroke-linecap:round;stroke-linejoin:round"/><path d="m-31.750001 57.406549v19.84375h-19.84375v-19.84375z" fill="url(#j)" fill-rule="evenodd"/><path d="m-71.437501 57.406549v-19.84375h19.84375v19.84375z" fill="url(#l)" fill-rule="evenodd"/><path id="u" d="m-51.593751 37.562799h19.84375v19.84375h-19.84375z" fill="url(#n)" fill-rule="evenodd"/><use stroke-width=".529167" transform="matrix(-1 0 0 -1 -103.187476 114.813058)" xlink:href="#u"/></g><g clip-path="url(#s)"><g opacity=".95"><path d="m94.58985 86.55895-76.92188 103.5918 232.34961 258.2793 232.3495-258.27868-76.92176-103.59242-73.31446-33.57421h-155.39162z" fill="url(#o)" opacity="1"/><path d="m250.01621 448.42942-92.6854-238.8231-139.66277-19.45495zm-92.6863-238.8231h.0009.0009l92.68585 4.01693 92.68585-4.01693h.0009.0009l-92.68765 238.8231zm92.689 238.8231 92.6854-238.8231 139.66277-19.45495z" fill="url(#d)" opacity="1"/><path d="m88.928585 199.91821-71.260531-9.76684 232.348156 258.27805zm161.087625 247.32111 232.35087-257.08795-69.83139 9.72747zm-92.6863-237.633 92.6863 238.8231.0009-234.80617-92.6854-4.01693" fill="url(#p)" filter="url(#f)" opacity=".75"/><path d="m157.33081 209.60632 92.68675-76.35409-155.4274-46.69279zm0 0 92.68675 4.01693 92.68675-4.01693-92.68675-76.35409zm-62.74065-123.04688-76.92212 103.59193 139.66277 19.45495zm248.11415 123.04688-92.68675-76.35409 155.4274-46.69279zm62.74065-123.04688 76.92212 103.59193-139.66277 19.45495z" fill="url(#c)" opacity="1"/><path d="m250.01756 133.25223-92.68675 76.35409 92.6863 4.01693zm-83.39451-25.05299-72.032892-21.639798 62.740652 123.046878zm176.08216 101.40708 62.74011-123.04737-77.71407 23.3465zm69.83048-9.72747 69.83139-9.72748-76.92176-103.59242zm-317.945532-113.319408-76.92212 103.591928 71.260547 9.76684z" fill="url(#q)" filter="url(#t)" opacity=".75"/><path d="m405.44496 86.55945-155.42742 46.69199-155.42751-46.69241 82.149-33.57433 155.39183.00004z" fill="url(#b)" opacity="1"/><path d="m281.82813 60.985354c18.84955.986529 38.37271.05666 56.31642 5.913444 12.05052 3.933259 32.88085 12.749309 32.88085 19.105468 0 3.105743-8.84311 6.922418-13.8711 9.320313-7.87662 3.756431-16.55431 5.589571-25.02279 7.695961-27.04456 6.72689-54.24535 15.68278-82.11393 15.72372-28.28741.0416-56.4186-8.38812-83.39453-15.71509 0 0-12.44464-2.92461-18.26172-5.485841-6.87348-3.026364-19.35156-7.63523-19.35156-11.539063 0-6.356159 22.8309-15.370171 35.84506-19.105468 27.3516-7.850398 58.60734-5.882194 85.16275-5.91211 0 0 21.22153-.555532 31.81055-.0013zm-105.08852-8.000114-82.149452 33.574202 155.427402 46.692788 155.4274-46.692785-73.31345-33.574205z" fill="url(#r)" filter="url(#e)" opacity="1"/></g><path d="m170.666 44.98535-81.19923 34.86524-9.84179 13.44141-61.83203 83.27148-9.44532 13.58789 202.62501 222.07031 39.04492 42.79297 39.04492-42.79297 202.58984-222.03515-9.46875-13.61524-63.99414-84.05859-10.33789-12.70703-77.90039-34.82032zm3.10546 16h152.49219l59.7793 25.50587-113.21666 34.71083-22.80873 6.87901-22.80915-6.85153-115.6409-34.73986zm-71.26953 39.48633 124.70703 37.46485-70.3125 54.09961zm292.5293 0-52.82031 90.60938-69.38477-53.14453zm15.10352 7.875 53.82812 70.70508-106.59375 19.79102zm-322.25977.67383 53.10156 89.82227-105.10352-19.79102zm167.83787 34.16255 70.5508 58.94878-76.24609 3.08203-76.2461-3.08203 70.64241-59.0267zm209.09572 52.68511-187.56445 205.57031 74.89258-185.77734zm-429.58203.002 112.66992 19.78906 74.89649 185.7793zm130.55664 23.08003h.002l84.23242 3.08203 84.23238-3.08203-84.23438 208.08008z" fill="url(#o)"/></g></svg>