<svg height="500" viewBox="0 0 500 500" width="500" xmlns="http://www.w3.org/2000/svg" xmlns:xlink="http://www.w3.org/1999/xlink"><filter id="a" color-interpolation-filters="sRGB" height="1.058473" width="1.015099" x="-.007549" y="-.029237"><feGaussianBlur stdDeviation=".97780448"/></filter><linearGradient id="b" gradientUnits="userSpaceOnUse" spreadMethod="reflect" x1="-77.390625" x2="-65.748962" xlink:href="#c" y1="-69.055473" y2="-56.62006"/><linearGradient id="c"><stop offset="0" stop-color="#d7f4f4"/><stop offset="1" stop-color="#e1f3f9"/></linearGradient><filter id="d" color-interpolation-filters="sRGB" height="1.185987" width="1.185987" x="-.092993" y="-.092993"><feGaussianBlur stdDeviation=".7688903"/></filter><linearGradient id="e" gradientUnits="userSpaceOnUse" spreadMethod="reflect" x1="197" x2="237" xlink:href="#c" y1="93.118073" y2="106"/><linearGradient id="f" gradientUnits="userSpaceOnUse" spreadMethod="reflect" x1="435" x2="482.36707" xlink:href="#c" y1="68" y2="86.559441"/><linearGradient id="g" gradientUnits="userSpaceOnUse" spreadMethod="reflect" x1="380" x2="391" xlink:href="#c" y1="368" y2="342"/><g opacity=".67"><path d="m407.85115 79.80677-148.53472 45.53707-9.11263 2.79371-9.4362-2.83472-151.30051-45.45198-9.84207 13.44221-61.83203 83.27149-9.44532 13.58789 202.62501 222.07031 39.04488 42.7919 39.04496-42.7919 202.58985-222.03516-9.46875-13.61523-63.99414-84.05859zm-135.02489 58.12969 122.20425-37.46489 12.82064-20.6648-77.89999-34.82068-159.28515-.00002-81.19892 34.86478 13.03416 20.62162 124.70716 37.46399 22.80915.48731z" fill="#738c8c" opacity="1"/><path d="m94.58985 86.55895-76.92188 103.5918 232.34961 258.2793 232.3495-258.27868-76.92176-103.59242-73.31446-33.57421h-155.39162z" fill="#616b6b" opacity="1"/><path d="m250.01621 448.42942-92.6854-238.8231-139.66277-19.45495zm-92.6863-238.8231h.0009.0009l92.68585 4.01693 92.68585-4.01693h.0009.0009l-92.68765 238.8231zm92.689 238.8231 92.6854-238.8231 139.66277-19.45495z" fill="url(#g)" opacity="1"/><path d="m157.33081 209.60632 92.68675-76.35409-155.4274-46.69279zm0 0 92.68675 4.01693 92.68675-4.01693-92.68675-76.35409zm-62.74065-123.04688-76.92212 103.59193 139.66277 19.45495zm248.11415 123.04688-92.68675-76.35409 155.4274-46.69279zm62.74065-123.04688 76.92212 103.59193-139.66277 19.45495z" fill="url(#f)" opacity="1"/><path d="m405.44496 86.55945-155.42742 46.69199-155.42751-46.69241 82.149-33.57433 155.39183.00004z" fill="url(#e)" opacity="1"/><g fill="#ebf9f9" transform="translate(.00002 .00036)"><path d="m88.928565 199.91785-71.260531-9.76684 232.348156 258.27805zm161.087625 247.32111 228.86967-251.36865-70.41297 9.89467zm-92.6863-237.633 92.6863 238.8231.0009-234.80617-92.6854-4.01693" opacity="1"/><path d="m250.01754 133.25187-92.68675 76.35409 92.6863 4.01693zm-83.39451-25.05299-72.032892-21.639798 62.740652 123.046878zm175.58826 82.88178 52.8192-90.60945-61.10212 18.73244zm68.45535-2.13263 53.29665-9.89512-53.82945-70.7067m-315.543702-21.787128-76.92212 103.591928 71.260547 9.76684z" opacity="1"/><path d="m281.82811 60.984994c18.84955.986529 38.37271.05666 56.31642 5.913444 12.05052 3.933259 32.88085 12.749309 32.88085 19.105468 0 3.105743-8.84311 6.922418-13.8711 9.320313-7.87662 3.756431-16.55431 5.589571-25.02279 7.695961-27.04456 6.72689-54.24535 15.68278-82.11393 15.72372-28.28741.0416-56.4186-8.38812-83.39453-15.71509 0 0-12.44464-2.92461-18.26172-5.485841-6.87348-3.026364-19.35156-7.63523-19.35156-11.539063 0-6.356159 22.8309-15.370171 35.84506-19.105468 27.3516-7.850398 58.60734-5.882194 85.16275-5.91211 0 0 21.22153-.555532 31.81055-.0013zm-105.08852-8.000114-82.149452 33.574202 155.427402 46.692788 155.4274-46.692785-73.31345-33.574205z" filter="url(#a)" opacity="1"/></g></g><path d="m170.666 44.98535-81.19923 34.86524-9.84179 13.44141-61.83203 83.27148-9.44532 13.58789 202.62501 222.07031 39.04492 42.79297 39.04492-42.79297 202.58984-222.03515-9.46875-13.61524-63.99414-84.05859-10.33789-12.70703-77.90039-34.82032zm3.10546 16h152.49219l59.7793 25.50587-113.21666 34.71083-22.80873 6.87901-22.80915-6.85153-115.6409-34.73986zm-71.26953 39.48633 124.70703 37.46485-70.3125 54.09961zm292.5293 0-52.82031 90.60938-69.38477-53.14453zm15.10352 7.875 53.82812 70.70508-106.59375 19.79102zm-322.25977.67383 53.10156 89.82227-105.10352-19.79102zm167.83787 34.16255 70.5508 58.94878-76.24609 3.08203-76.2461-3.08203 70.64241-59.0267zm209.09572 52.68511-187.56445 205.57031 74.89258-185.77734zm-429.58203.002 112.66992 19.78906 74.89649 185.7793zm130.55664 23.08003h.002l84.23242 3.08203 84.23238-3.08203-84.23438 208.08008z" fill="#738c8c"/><g transform="translate(-278.01275 391.95926)"><path d="m150.00000793061-75.0000030826h74.99999882813v74.99999882813h-74.99999882813z" fill="#738c8c"/><path d="m74.99999398438-75.0000030826h74.99999882813v74.99999882813h-74.99999882813z" fill="#b3cccc"/><path d="m-.00000484375-75.0000030826h74.99999882813v74.99999882813h-74.99999882813z" fill="#bfd9d9"/><path d="m-77.390622-69.055475h39.6875v39.6875h-39.6875z" fill="url(#b)" fill-rule="evenodd" stroke="#738c8c" stroke-width="9.52503" transform="matrix(3.7795275 0 0 3.7795275 329.99999 19.99706)"/><path d="m150.00000793061-332.00001544493h74.99999882813v74.99999882813h-74.99999882813z" fill="#ebf9f9"/><path d="m74.99999398438-332.00001544493h74.99999882813v74.99999882813h-74.99999882813z" fill="#f6f8f8"/><path d="m-87.3125-93.132561h19.84375v19.84375h-19.84375z" fill="#f9fbfb" filter="url(#d)" opacity=".5" transform="matrix(3.7795275 0 0 3.7795275 329.99999 19.99706)"/></g></svg>