<svg height="500" viewBox="0 0 500 500" width="500" xmlns="http://www.w3.org/2000/svg" xmlns:xlink="http://www.w3.org/1999/xlink"><linearGradient id="a"><stop offset="0" stop-color="#ffe666"/><stop offset="1" stop-color="#ffea00"/></linearGradient><radialGradient id="b" cx="46.840118" cy="298.90115" gradientTransform="matrix(.77411254 -.08365621 .05367233 .49663461 77.396948 1.727722)" gradientUnits="userSpaceOnUse" r="155.42746" spreadMethod="reflect" xlink:href="#a"/><linearGradient id="c" gradientUnits="userSpaceOnUse" spreadMethod="reflect" x1="-.00001413652" x2="-45.0761808348" xlink:href="#a" y1="114.13547779694" y2="135.36823817985"/><linearGradient id="d" gradientUnits="userSpaceOnUse" spreadMethod="reflect" x1="290.12067171527" x2="250.01690174645" xlink:href="#a" y1="252.13547276785" y2="267.36816800584"/><filter id="e" color-interpolation-filters="sRGB" height="1.091364" width="1.023592" x="-.011796" y="-.045682"><feGaussianBlur stdDeviation="1.5278195"/></filter><g opacity=".95"><path d="m407.85115 79.80677-148.53472 45.53707-9.11263 2.79371-9.4362-2.83472-151.30051-45.45198-9.84207 13.44221-61.83203 83.27149-9.44532 13.58789 202.62501 222.07031 39.04488 42.7919 39.04496-42.7919 202.58985-222.03516-9.46875-13.61523-63.99414-84.05859zm-135.02489 58.12969 122.20425-37.46489 12.82064-20.6648-77.89999-34.82068-159.28515-.00002-81.19892 34.86478 13.03416 20.62162 124.70716 37.46399 22.80915.48731z" fill="#c2a40a" opacity="1"/><path d="m94.58985 86.55895-76.92188 103.5918 232.34961 258.2793 232.3495-258.27868-76.92176-103.59242-73.31446-33.57421h-155.39162z" fill="#c2a40a" opacity="1"/><path d="m250.01621 448.42942-92.6854-238.8231-139.66277-19.45495zm-92.6863-238.8231h.0009.0009l92.68585 4.01693 92.68585-4.01693h.0009.0009l-92.68765 238.8231zm92.689 238.8231 92.6854-238.8231 139.66277-19.45495z" fill="url(#d)" opacity="1"/><path d="m157.33081 209.60632 92.68675-76.35409-155.4274-46.69279zm0 0 92.68675 4.01693 92.68675-4.01693-92.68675-76.35409zm-62.74065-123.04688-76.92212 103.59193 139.66277 19.45495zm248.11415 123.04688-92.68675-76.35409 155.4274-46.69279zm62.74065-123.04688 76.92212 103.59193-139.66277 19.45495z" fill="url(#c)" opacity="1"/><path d="m405.44496 86.55945-155.42742 46.69199-155.42751-46.69241 82.149-33.57433 155.39183.00004z" fill="url(#b)" opacity="1"/><g fill="#fff780"><path d="m88.928585 199.91821-71.260531-9.76684 232.348156 258.27805zm161.087625 247.32111 232.35087-257.08795-69.83139 9.72747zm-92.6863-237.633 92.6863 238.8231.0009-234.80617-92.6854-4.01693" opacity=".75"/><path d="m250.01756 133.25223-92.68675 76.35409 92.6863 4.01693zm-83.39451-25.05299-72.032892-21.639798 62.740652 123.046878-.43435-17.57018zm176.08216 101.40708 62.73975-123.04688-77.7137 23.3464 14.47966 81.17522zm69.83048-9.72747 69.83139-9.72748-76.92212-103.59193 4.68979 21.78724zm-317.945532-113.319408-76.92212 103.591928 71.260547 9.76684-1.053605-90.8977z" opacity=".75"/><path d="m281.82813 60.985354c18.84955.986529 38.37271.05666 56.31642 5.913444 12.05052 3.933259 32.88085 12.749309 32.88085 19.105468 0 3.105743-8.84311 6.922418-13.8711 9.320313-7.87662 3.756431-16.55431 5.589571-25.02279 7.695961-27.04456 6.72689-54.24535 15.68278-82.11393 15.72372-28.28741.0416-56.4186-8.38812-83.39453-15.71509 0 0-12.44464-2.92461-18.26172-5.485841-6.87348-3.026364-19.35156-7.63523-19.35156-11.539063 0-6.356159 22.8309-15.370171 35.84506-19.105468 27.3516-7.850398 58.60734-5.882194 85.16275-5.91211 0 0 21.22153-.555532 31.81055-.0013zm-105.08852-8.000114-82.149452 33.574202 155.427402 46.692788 155.4274-46.692785-73.31345-33.574205z" filter="url(#e)"/></g></g><path d="m170.666 44.98535-81.19923 34.86524-9.84179 13.44141-61.83203 83.27148-9.44532 13.58789 202.62501 222.07031 39.04492 42.79297 39.04492-42.79297 202.58984-222.03515-9.46875-13.61524-63.99414-84.05859-10.33789-12.70703-77.90039-34.82032zm3.10546 16h152.49219l59.7793 25.50587-113.21666 34.71083-22.80873 6.87901-22.80915-6.85153-115.6409-34.73986zm-71.26953 39.48633 124.70703 37.46485-70.3125 54.09961zm292.5293 0-52.82031 90.60938-69.38477-53.14453zm15.10352 7.875 53.82812 70.70508-106.59375 19.79102zm-322.25977.67383 53.10156 89.82227-105.10352-19.79102zm167.83787 34.16255 70.5508 58.94878-76.24609 3.08203-76.2461-3.08203 70.64241-59.0267 5.60363.0386zm209.09572 52.68511-187.56445 205.57031 74.89258-185.77734zm-429.58203.002 112.66992 19.78906 74.89649 185.7793zm130.55664 23.08003h.002l84.23242 3.08203 84.23238-3.08203-84.23438 208.08008z" fill="#c2a40a"/></svg>