<svg height="500" viewBox="0 0 500 500" width="500" xmlns="http://www.w3.org/2000/svg" xmlns:xlink="http://www.w3.org/1999/xlink"><linearGradient id="a" gradientUnits="userSpaceOnUse" spreadMethod="reflect" x1="-355.42652066166" x2="-345.62338776882" xlink:href="#b" y1="-54.67743639993" y2="-48.44467840955"/><linearGradient id="b"><stop offset="0" stop-color="#1a5ee5"/><stop offset="1" stop-color="#1d56c8"/></linearGradient><radialGradient id="c" cx="113.77595" cy="49.829666" gradientTransform="matrix(.89076954 .26759358 -.12444645 .41425694 16.420489 35.401673)" gradientUnits="userSpaceOnUse" r="155.42746" xlink:href="#b"/><linearGradient id="d" gradientUnits="userSpaceOnUse" spreadMethod="reflect" x1="284.97516266194" x2="334.24999973685" xlink:href="#b" y1="261.30060356172" y2="218.95020353629"/><linearGradient id="e" gradientUnits="userSpaceOnUse" spreadMethod="reflect" x1="265.88981384772" x2="292.37288639001" xlink:href="#b" y1="173.72880968852" y2="188.55934089554"/><filter id="f" color-interpolation-filters="sRGB" height="1.131565" width="1.033972" x="-.016986" y="-.065782"><feGaussianBlur stdDeviation="2.2000601"/></filter><g transform="matrix(3.7795275 0 0 3.7795275 -13.23696 7.746506)"><path d="m-41.671875 81.483635h19.84375v19.84375h-19.84375z" fill="#1242a1"/><path d="m-61.515625 81.483635h19.84375v19.84375h-19.84375z" fill="#144bb8"/><path d="m-81.359375 81.483635h19.84375v19.84375h-19.84375z" fill="#1152d5"/><path d="m-71.437501 37.562799h39.6875v39.6875h-39.6875z" fill="url(#a)" fill-rule="evenodd" stroke="#1242a1" stroke-width="9.525"/><path d="m-41.671875 13.485714h19.84375v19.84375h-19.84375z" fill="#256af4"/><path d="m-61.515625 13.485714h19.84375v19.84375h-19.84375z" fill="#3d7af5"/><path d="m-81.359375 13.485714h19.84375v19.84375h-19.84375z" fill="#d5dff4" opacity=".5"/></g><g opacity=".95"><path d="m407.85115 79.80677-148.53472 45.53707-9.11263 2.79371-9.4362-2.83472-151.30051-45.45198-9.84207 13.44221-61.83203 83.27149-9.44532 13.58789 202.62501 222.07031 39.04488 42.7919 39.04496-42.7919 202.58985-222.03516-9.46875-13.61523-63.99414-84.05859zm-135.02489 58.12969 122.20425-37.46489 12.82064-20.6648-77.89999-34.82068-159.28515-.00002-81.19892 34.86478 13.03416 20.62162 124.70716 37.46399 22.80915.48731z" fill="#1242a1" opacity="1"/><path d="m94.58985 86.55895-76.92188 103.5918 232.34961 258.2793 232.3495-258.27868-76.92176-103.59242-73.31446-33.57421h-155.39162z" fill="#1242a1" opacity="1"/><path d="m250.01621 448.42942-92.6854-238.8231-139.66277-19.45495zm-92.6863-238.8231h.0009.0009l92.68585 4.01693 92.68585-4.01693h.0009.0009l-92.68765 238.8231zm92.689 238.8231 92.6854-238.8231 139.66277-19.45495z" fill="url(#d)" opacity="1"/><path d="m157.33081 209.60632 92.68675-76.35409-155.4274-46.69279zm0 0 92.68675 4.01693 92.68675-4.01693-92.68675-76.35409zm-62.74065-123.04688-76.92212 103.59193 139.66277 19.45495zm248.11415 123.04688-92.68675-76.35409 155.4274-46.69279zm62.74065-123.04688 76.92212 103.59193-139.66277 19.45495z" fill="url(#e)" opacity="1"/><path d="m88.928585 199.91821-71.260531-9.76684 232.348156 258.27805zm161.087625 247.32111 228.86967-251.36865-70.41297 9.89467zm-92.6863-237.633 92.6863 238.8231.0009-234.80617-92.6854-4.01693" fill="#3d7af5" opacity=".75"/><path d="m250.01756 133.25223-92.68675 76.35409 92.6863 4.01693zm-83.39451-25.05299-72.032892-21.639798 62.740652 123.046878zm175.58826 82.88178 52.8192-90.60945-61.10212 18.73244zm68.45535-2.13263 53.29665-9.89512-53.82945-70.7067m-315.543702-21.787128-76.92212 103.591928 71.260547 9.76684z" fill="#3d7af5" opacity=".75"/><path d="m405.44496 86.55945-155.42742 46.69199-155.42751-46.69241 82.149-33.57433 155.39183.00004z" fill="url(#c)" opacity="1"/><path d="m281.82813 60.985354c18.84955.986529 38.37271.05666 56.31642 5.913444 12.05052 3.933259 32.88085 12.749309 32.88085 19.105468 0 3.105743-8.84311 6.922418-13.8711 9.320313-7.87662 3.756431-16.55431 5.589571-25.02279 7.695961-27.04456 6.72689-54.24535 15.68278-82.11393 15.72372-28.28741.0416-56.4186-8.38812-83.39453-15.71509 0 0-12.44464-2.92461-18.26172-5.485841-6.87348-3.026364-19.35156-7.63523-19.35156-11.539063 0-6.356159 22.8309-15.370171 35.84506-19.105468 27.3516-7.850398 58.60734-5.882194 85.16275-5.91211 0 0 21.22153-.555532 31.81055-.0013zm-105.08852-8.000114-82.149452 33.574202 155.427402 46.692788 155.4274-46.692785-73.31345-33.574205z" fill="#d5dff4" filter="url(#f)" opacity=".5"/></g><path d="m170.666 44.98535-81.19923 34.86524-9.84179 13.44141-61.83203 83.27148-9.44532 13.58789 202.62501 222.07031 39.04492 42.79297 39.04492-42.79297 202.58984-222.03515-9.46875-13.61524-63.99414-84.05859-10.33789-12.70703-77.90039-34.82032zm3.10546 16h152.49219l59.7793 25.50587-113.21666 34.71083-22.80873 6.87901-22.80915-6.85153-115.6409-34.73986zm-71.26953 39.48633 124.70703 37.46485-70.3125 54.09961zm292.5293 0-52.82031 90.60938-69.38477-53.14453zm15.10352 7.875 53.82812 70.70508-106.59375 19.79102zm-322.25977.67383 53.10156 89.82227-105.10352-19.79102zm167.83787 34.16255 70.5508 58.94878-76.24609 3.08203-76.2461-3.08203 70.64241-59.0267zm209.09572 52.68511-187.56445 205.57031 74.89258-185.77734zm-429.58203.002 112.66992 19.78906 74.89649 185.7793zm130.55664 23.08003h.002l84.23242 3.08203 84.23238-3.08203-84.23438 208.08008z" fill="#1242a1"/></svg>