<svg height="500" viewBox="0 0 132.29167 132.29167" width="500" xmlns="http://www.w3.org/2000/svg" xmlns:xlink="http://www.w3.org/1999/xlink"><linearGradient id="a" gradientUnits="userSpaceOnUse" spreadMethod="reflect" x1="-77.390621479" x2="-70.51145993067" y1="-69.05547041774" y2="-59.00130349774"><stop offset="0" stop-color="#0d0d0d"/><stop offset="1" stop-color="#252428"/></linearGradient><filter id="b" color-interpolation-filters="sRGB" height="1.041404" width="1.07761" x="-.038805" y="-.020702"><feGaussianBlur stdDeviation=".61851073"/></filter><g transform="matrix(.26458334 0 0 .26458334 -95.382294 85.460421)"><path d="m150.00000793061-75.0000030826h74.99999882813v74.99999882813h-74.99999882813z"/><path d="m74.99999398438-75.0000030826h74.99999882813v74.99999882813h-74.99999882813z"/><path d="m-.00000484375-75.0000030826h74.99999882813v74.99999882813h-74.99999882813z" fill="#111113"/><path d="m-77.390622-69.055475h39.6875v39.6875h-39.6875z" fill="url(#a)" fill-rule="evenodd" stroke="#000" stroke-width="9.525" transform="matrix(3.7795275 0 0 3.7795275 329.99999 19.99706)"/><path d="m150.00000793061-332.00001544493h74.99999882813v74.99999882813h-74.99999882813z" fill="#1e1c26"/><path d="m74.99999398438-332.00001544493h74.99999882813v74.99999882813h-74.99999882813z" fill="#23232f"/><path d="m-.00000484375-332.00001544493h74.99999882813v74.99999882813h-74.99999882813z" fill="#5b5775" opacity=".5"/></g><g><g opacity=".95"><path d="m67.861994 114.76885 31.645065-23.879816v-1.930563-43.899198-3.657697l-31.645065-23.878753h-3.432309l-31.645073 23.878753v3.658163 43.898732 1.930933l31.645073 23.879446z" stroke-width="1.00001"/><path d="m82.150207 84.087525-14.288434 10.781742v15.583673l26.679075-20.132329z" opacity="1"/><path d="m96.076044 45.059273-12.391399 6.233469v29.706062l12.391399 6.233469zm-58.324795 45.261338 26.679059 20.132529v-15.583677l-14.288418-10.781938z" fill="#111113" opacity="1"/><path d="m37.751249 41.970935 12.390641 6.233085 14.288418-10.781745v-15.583767z" fill="#23232f" opacity="1"/><path d="m67.861773 21.838412v15.583672l14.288236 10.781936 12.391408-6.233469zm-31.64572 23.220861v42.173l12.391399-6.233469v-29.706062z" fill="#1e1c26" opacity="1"/><path d="m52.038917 51.088592v30.113594l14.107128 10.645325 14.107135-10.645325v-30.113018l-14.107135-10.645421z" fill="url(#a)" opacity="1"/><path d="m76.613347 31.190917c-4.789757-.807196-5.669542 1.765204-7.119905 5.525853l.136779-10.598316zm-14.187201-4.319182-.05225 6.401163c-4.20392.226789-10.825697 2.767338-20.56839 8.440355l20.620829-14.841327zm4.523437 16.962256c-7.149461 6.492877-11.560609 31.626489-12.134044 38.200143l-.06669-28.990579 12.200765-9.209755zm-28.322354 5.697769 7.715644 3.996649c-8.822675 7.436301-5.869711 23.541092-7.983108 31.192671l.267646-35.18932zm11.226219 37.850554c-3.735335 3.124026-3.192214 4.674911.853488 10.440021l-8.434917-7.294505 7.581627-3.145516z" fill="#5b5775" filter="url(#b)" opacity=".5"/></g><path d="m64.429661 17.522962-31.645098 23.878646v3.658175 43.898614 1.931148l31.645098 23.879165h3.432348l31.645098-23.879682v-1.930631-43.899131-3.657658l-31.645098-23.878646zm.000516 4.315499v15.584062l-14.288533 10.781254-12.390459-6.232694zm3.431832 0 26.679509 20.132105-12.391492 6.233211-14.288017-10.781771zm-1.716174 18.605066 14.10715 10.645862v30.112892l-14.10715 10.645345-14.10715-10.645345v-30.113925zm-29.929957 4.615739 12.391492 6.233728v29.705682l-12.391492 6.233728zm59.859914 0v42.173138l-12.390975-6.233728v-29.705682zm-45.934148 39.02811 14.288533 10.782288v15.583546l-26.678992-20.132623zm32.008382 0 12.390976 6.233211-26.678993 20.132103v-15.583543z" stroke-width="1.00001"/></g></svg>