<svg height="500" viewBox="0 0 132.29167 132.29167" width="500" xmlns="http://www.w3.org/2000/svg" xmlns:xlink="http://www.w3.org/1999/xlink"><filter id="a" color-interpolation-filters="sRGB" height="1.073655" width="1.146419" x="-.07321" y="-.036827"><feGaussianBlur stdDeviation=".60915824"/></filter><filter id="b" color-interpolation-filters="sRGB" height="1.085413" width="1.110778" x="-.055389" y="-.042706"><feGaussianBlur stdDeviation="8.8971442"/></filter><linearGradient id="c"><stop offset="0" stop-color="#f00"/><stop offset=".14285706" stop-color="#f00"/><stop offset=".28571412" stop-color="#ff7800"/><stop offset=".42857116" stop-color="#ffef00"/><stop offset=".57142824" stop-color="#0c0"/><stop offset=".71428525" stop-color="#0073ff"/><stop offset=".85714233" stop-color="#b600ff"/><stop offset="1" stop-color="#b600ff"/></linearGradient><linearGradient id="d" gradientUnits="userSpaceOnUse" x1="-54.25569482941" x2="-54.25585357941" xlink:href="#c" y1="29.65614082617" y2="103.58398039725"/><linearGradient id="e" gradientUnits="userSpaceOnUse" x1="66.145837996" x2="66.145837996" xlink:href="#c" y1="14.72975107507" y2="117.56205054112"/><filter id="f" color-interpolation-filters="sRGB" height="1.076967" width="1.119846" x="-.059923" y="-.038483"><feGaussianBlur stdDeviation="1.2304795"/></filter><clipPath id="g"><path d="m66.145832 14.729751c-11.28014.000005-21.368057 6.108607-28.41859 15.468628-7.05053 9.360021-11.268727 22.031077-11.268727 35.947525-.000001 13.916445 4.218195 26.587503 11.268726 35.947526 7.050531 9.36002 17.138451 15.46862 28.418587 15.46862 11.280144.00001 21.369646-6.1086 28.420183-15.46862 7.050539-9.360021 11.267139-22.031075 11.267139-35.947525 0-13.916451-4.2166-26.587503-11.267137-35.947524s-17.140038-15.468633-28.420181-15.46863z"/></clipPath><g><path d="m141.59431 209.80045c-54.714705 0-103.677405 29.62287-137.949305 75.12109-34.2718 45.49823-54.8066 107.15012-54.8066 174.87891s20.5348 129.37872 54.8066 174.87695c34.2719 45.49823 83.2346 75.12305 137.949305 75.12305 54.7146 0 103.6773-29.62482 137.9492-75.12305 34.2718-45.49823 54.8066-107.14816 54.8066-174.87695s-20.5348-129.38068-54.8066-174.87891c-34.2719-45.49822-83.2346-75.12109-137.9492-75.12109z" fill-rule="evenodd" filter="url(#b)" opacity=".5" stroke-width="1.29355" transform="matrix(.188971 .07827435 -.07827435 .188971 75.379156 -28.542094)"/><g clip-path="url(#g)" fill-rule="evenodd" opacity=".95" transform="matrix(.92387873 .38268537 -.38268537 .92387873 30.269431 -20.087078)"><path d="m66.145831 14.729751c-11.280138.000004-21.368057 6.108607-28.418589 15.468628-7.050531 9.36002-11.268727 22.031078-11.268727 35.947525 0 13.916446 4.218196 26.587504 11.268727 35.947526 7.050532 9.36002 17.138451 15.46862 28.418589 15.46862 11.280142.00001 21.369645-6.1086 28.420181-15.46862 7.050538-9.360022 11.267138-22.031076 11.267138-35.947526 0-13.916452-4.2166-26.587504-11.267138-35.947525-7.050536-9.360021-17.140039-15.468631-28.420181-15.468628z" fill="url(#e)" opacity="1"/><path d="m101.95167 66.145921a35.805813 47.534435 0 0 1 -35.80582 47.534439 35.805813 47.534435 0 0 1 -35.805804-47.534439 35.805813 47.534435 0 0 1 35.805804-47.534436 35.805813 47.534435 0 0 1 35.80582 47.534436z" fill="url(#e)" opacity="1"/><g stroke-width="1.22678" transform="matrix(.81514383 0 0 .81514383 110.37216 10.695426)"><path d="m-82.729862 81.522314-15.451829-13.496851c0 6.485783.836679 12.836919 2.325499 18.720305zm56.948072 0 13.12633 5.223404c-1.48882 5.883386-3.4424 10.981438-6.83599 16.924552zm-6.85798 37.267496-6.97425-10.36681 20.12257-4.75273c-3.39256 5.94207-7.11113 10.49003-13.14832 15.11954zm6.85798-37.267496 15.45177-13.496851c0 6.485783-.83662 12.836869-2.32544 18.720255zm-28.47389-71.811078v19.944884l-14.64207-2.028097zm0 0 14.64195 17.916787 6.97425-10.367125c-6.0372-4.629512-12.91382-6.894036-21.6162-7.549662z" fill="#262626" opacity=".5"/><path d="m-54.25568 126.33973v-19.94503l-14.641952 2.0283zm-21.616202-7.54992 6.97425-10.36681-20.12176-4.75268c3.39256 5.94207 7.11032 10.48998 13.14751 15.11949zm21.616202-109.078574-14.64207 17.916787-6.97425-10.367125c6.0372-4.629512 12.91394-6.894036 21.61632-7.549662zm-28.4743 44.817269-13.126212-5.223369c1.48882-5.883386 3.44321-10.981523 6.8368-16.924633zm56.94848 0 13.12604-5.223369c-1.48882-5.883386-3.4424-10.981523-6.83599-16.924633zm-13.83223-26.900482 4.67952 18.905617 9.15271 7.994865 6.29005-22.148002z" fill="#4d4d4d" opacity=".5"/><path d="m-54.25568 126.33973-14.641952-17.91673-6.97425 10.36681c6.0372 4.62951 12.913822 6.8943 21.616202 7.54992zm-28.474182-44.817416-13.12633 5.223454c1.48882 5.883386 3.44321 10.981438 6.8368 16.924552zm13.83223 26.900686-4.67981-18.905875-9.15242-7.994811-6.28953 22.148516zm-13.83223-26.900686 3.83284-13.496851-3.832958-13.496958-15.451711 13.496958zm28.474182 44.817416 14.64166-17.91673 6.97425 10.36681c-6.0372 4.62951-12.91353 6.8943-21.61591 7.54992zm0 0v-19.94508l14.64166 2.02835zm14.64166-17.91673 4.67981-18.905875 9.15242-7.994811 6.29034 22.148466zm-36.25798-91.162102 6.97425 10.367125-20.121642 4.75248c3.39256-5.942078 7.110202-10.490094 13.147392-15.119605zm6.97425 10.367125-4.679692 18.905617-9.152538 7.994865-6.289412-22.148002zm0 0 14.64207 2.028097-19.321762 16.87752zm-13.83223 26.900482-15.451711 13.496958c0-6.485783.836679-12.836941 2.325499-18.720327zm50.0905-37.267607-6.97425 10.367125 20.12228 4.75248c-3.39256-5.942078-7.11084-10.490094-13.14803-15.119605zm-6.97425 10.367125-14.64195 2.028097 19.32147 16.87752zm13.83223 26.900482 15.45148 13.496958-15.45177 13.496851-3.83284-13.496851zm0 0 15.45148 13.496958c0-6.485783-.83662-12.836941-2.32544-18.720327z" fill="url(#e)" opacity="1"/><path d="m-68.897632 108.423 14.641952-2.0283-19.321762-16.877575zm-4.67981-18.905875-5.31958-21.491662-3.83284 13.496851zm33.963422 18.905875-14.64166-2.02835 19.32147-16.877525zm4.67981-18.905875 5.31958-21.491662 3.83284 13.496851zm-38.643232-42.983485-5.31958 21.491823-3.832958-13.496958zm19.321762-36.822404v19.944884l14.64195-2.028097zm19.32147 36.822404 5.31958 21.491823 3.83313-13.496958z" fill="#d9d9d9" opacity=".5"/><g fill="url(#d)"><path d="m-73.577442 89.517125-5.31958-21.491662 5.31958-21.491823 19.321762-16.87752 19.32147 16.87752 5.31958 21.491823-5.31958 21.491662-19.32147 16.877575z" opacity="1"/><path d="m-73.577442 89.517125-5.31958-21.491662 5.31958-21.491823 19.321762-16.87752 19.32147 16.87752 5.31958 21.491823-5.31958 21.491662-19.32147 16.877575z" filter="url(#f)" opacity="1"/></g></g><path d="m66.145977 42.256117-10.526212 9.416515-3.784734 14.473271 3.784872 14.475234 1.490517 1.333103c-1.062247-3.399842-1.62179-7.180707-1.631185-11.022021-.000064-13.194498 6.354433-23.890732 14.193093-23.890585.713957.0019 1.426814.09441 2.132498.276839z" fill="#fff" filter="url(#a)" opacity=".5"/></g><g transform="matrix(.92387872 .38268538 -.38268538 .92387872 30.269432 -20.087078)"><path d="m54.055943 17.156257c-6.329112 2.612304-11.922134 7.192231-16.328703 13.042227-7.050511 9.359993-11.268824 22.030856-11.268824 35.947261s4.218436 26.58775 11.268947 35.947735c7.050511 9.36 17.138447 15.46854 28.418552 15.46854 11.280107.00001 21.36953-6.10873 28.420045-15.46873 7.05051-9.359982 11.26767-22.030931 11.26767-35.94734s-4.21728-26.587659-11.267794-35.947653c-7.050515-9.359993-17.139598-15.468628-28.419705-15.468625-4.230039.000001-8.292721.859203-12.090188 2.426585zm2.083884 5.188904c1.973967-.815229 4.021829-1.390249 6.124822-1.71085l-7.919213 9.691445-3.45862-5.141333c1.679577-1.135647 3.435019-2.088448 5.253011-2.839262zm-8.008234 4.925807 3.255804 4.839397-9.807404 2.316118c.206155-.288322.414483-.573602.626038-.854456 1.800445-2.390203 3.787582-4.502552 5.925562-6.301059zm21.895707-6.636414c4.039662.615851 7.874214 2.181428 11.377299 4.550047l-3.458365 5.140949zm-5.607143 2.81479-.000445 9.437965-6.928379-.958293zm3.451198.000137 6.928838 8.479576-6.928806.958191zm-27.908978 14.905212 11.894341-2.810276-3.00572 12.141563-4.998974 4.366755zm-2.633032 3.363252 2.989668 10.527394-6.021551-2.396106c.813009-2.861004 1.832061-5.582204 3.031883-8.131288zm18.183025-6.579141 6.650081.919748-8.77396 7.664376zm28.648151-7.867787c2.137855 1.798472 4.124832 3.910932 5.925222 6.301062.211567.280868.420078.565912.626244.85425l-9.807463-2.315771zm-18.014919 9.889614 14.205036 12.407095 4.104326 16.578106-4.104573 16.578122-14.204424 12.407308-14.204558-12.407293-4.104326-16.578105 4.104374-16.5786zm3.983623-1.101925 6.650389-.920056 2.123376 8.584533zm-36.680591 17.167048 6.22427 2.477701-7.481992 6.5352c.196171-3.104147.623534-6.118761 1.257722-9.012901zm46.98597-17.681397 11.896189 2.810348-3.889701 13.698001-5.000398-4.366783zm-33.02901 17.985843-1.459824 5.897178-1.052346-3.703233zm-5.386021 4.704387 2.246064 7.911166-2.246098 7.910961-9.057472-7.910535zm52.943586-16.514531c1.199436 2.548569 2.21845 5.26928 3.03125 8.12961l-6.020117 2.395744zm-62.772044 28.333644 7.481788 6.534474-6.22449 2.477602c-.634132-2.893908-1.061108-5.908194-1.257298-9.012076zm52.694922-16.523399 2.51242 2.193991-1.052404 3.704718zm-38.940405 19.334211 1.459901 5.89708-2.512421-2.193991zm46.673511-17.160991 6.224013-2.477404c.634113 2.893914 1.061128 5.908189 1.257294 9.012076zm-2.346635 2.53146 9.056994 7.910733-9.057226 7.910916-2.246542-7.910968zm-55.97515 24.207723 6.021549-2.396337-2.989228 10.527182c-1.199748-2.548958-2.219345-5.270001-3.032321-8.130845zm9.554749-2.203633 4.998768 4.366899 3.005893 12.141088-11.894246-2.808356zm42.494054-7.376384 1.052461 3.704864-2.512647 2.194142zm-32.959212 15.706138 8.774126 7.66265-6.648642.92157zm46.713711-18.515588c-.196172 3.104123-.623069 6.118585-1.257247 9.012704l-6.224271-2.477701zm-58.5206 27.812129 9.806986 2.315964-3.256196 4.83907c-2.137772-1.79846-4.124732-3.91059-5.925024-6.300586-.211473-.280744-.419689-.56624-.625766-.854448zm46.861115-17.626324 3.889647 13.698042-11.896169 2.809914 3.005919-12.141085zm3.533012-.192604 6.020398 2.396024c-.812813 2.860312-1.832076 5.58091-3.031521 8.129461zm-13.069479 8.522411-2.125508 8.58424-6.648568-.921494zm-21.413332 11.793991 6.92869-.959825.000148 9.439395zm-3.146123 1.60466 7.919016 9.68984c-4.039543-.61599-7.87426-2.18139-11.377299-4.55005zm13.526489-2.564546 6.928494.959926-6.928346 8.47947zm13.032907.778376 9.807405-2.316118c-.206162.288333-.414475.573592-.626039.854456-1.80026 2.389952-3.787406 4.502422-5.925084 6.300862zm-2.958399 1.78644 3.458503 5.1397c-3.502989 2.36862-7.33782 3.934-11.377355 4.54991z" fill="url(#e)"/><path d="m54.055943 17.156257c-6.329112 2.612304-11.922134 7.192231-16.328703 13.042227-7.050511 9.359993-11.268824 22.030856-11.268824 35.947261s4.218436 26.58775 11.268947 35.947735c7.050511 9.36 17.138447 15.46854 28.418552 15.46854 11.280107.00001 21.36953-6.10873 28.420045-15.46873 7.05051-9.359982 11.26767-22.030931 11.26767-35.94734s-4.21728-26.587659-11.267794-35.947653c-7.050515-9.359993-17.139598-15.468628-28.419705-15.468625-4.230039.000001-8.292721.859203-12.090188 2.426585zm2.083884 5.188904c1.973967-.815229 4.021829-1.390249 6.124822-1.71085l-7.919213 9.691445-3.45862-5.141333c1.679577-1.135647 3.435019-2.088448 5.253011-2.839262zm-8.008234 4.925807 3.255804 4.839397-9.807404 2.316118c.206155-.288322.414483-.573602.626038-.854456 1.800445-2.390203 3.787582-4.502552 5.925562-6.301059zm21.895707-6.636414c4.039662.615851 7.874214 2.181428 11.377299 4.550047l-3.458365 5.140949zm-5.607143 2.81479-.000445 9.437965-6.928379-.958293zm3.451198.000137 6.928838 8.479576-6.928806.958191zm-27.908978 14.905212 11.894341-2.810276-3.00572 12.141563-4.998974 4.366755zm-2.633032 3.363252 2.989668 10.527394-6.021551-2.396106c.813009-2.861004 1.832061-5.582204 3.031883-8.131288zm18.183025-6.579141 6.650081.919748-8.77396 7.664376zm28.648151-7.867787c2.137855 1.798472 4.124832 3.910932 5.925222 6.301062.211567.280868.420078.565912.626244.85425l-9.807463-2.315771zm-18.014919 9.889614 14.205036 12.407095 4.104326 16.578106-4.104573 16.578122-14.204424 12.407308-14.204558-12.407293-4.104326-16.578105 4.104374-16.5786zm3.983623-1.101925 6.650389-.920056 2.123376 8.584533zm-36.680591 17.167048 6.22427 2.477701-7.481992 6.5352c.196171-3.104147.623534-6.118761 1.257722-9.012901zm46.98597-17.681397 11.896189 2.810348-3.889701 13.698001-5.000398-4.366783zm-33.02901 17.985843-1.459824 5.897178-1.052346-3.703233zm-5.386021 4.704387 2.246064 7.911166-2.246098 7.910961-9.057472-7.910535zm52.943586-16.514531c1.199436 2.548569 2.21845 5.26928 3.03125 8.12961l-6.020117 2.395744zm-62.772044 28.333644 7.481788 6.534474-6.22449 2.477602c-.634132-2.893908-1.061108-5.908194-1.257298-9.012076zm52.694922-16.523399 2.51242 2.193991-1.052404 3.704718zm-38.940405 19.334211 1.459901 5.89708-2.512421-2.193991zm46.673511-17.160991 6.224013-2.477404c.634113 2.893914 1.061128 5.908189 1.257294 9.012076zm-2.346635 2.53146 9.056994 7.910733-9.057226 7.910916-2.246542-7.910968zm-55.97515 24.207723 6.021549-2.396337-2.989228 10.527182c-1.199748-2.548958-2.219345-5.270001-3.032321-8.130845zm9.554749-2.203633 4.998768 4.366899 3.005893 12.141088-11.894246-2.808356zm42.494054-7.376384 1.052461 3.704864-2.512647 2.194142zm-32.959212 15.706138 8.774126 7.66265-6.648642.92157zm46.713711-18.515588c-.196172 3.104123-.623069 6.118585-1.257247 9.012704l-6.224271-2.477701zm-58.5206 27.812129 9.806986 2.315964-3.256196 4.83907c-2.137772-1.79846-4.124732-3.91059-5.925024-6.300586-.211473-.280744-.419689-.56624-.625766-.854448zm46.861115-17.626324 3.889647 13.698042-11.896169 2.809914 3.005919-12.141085zm3.533012-.192604 6.020398 2.396024c-.812813 2.860312-1.832076 5.58091-3.031521 8.129461zm-13.069479 8.522411-2.125508 8.58424-6.648568-.921494zm-21.413332 11.793991 6.92869-.959825.000148 9.439395zm-3.146123 1.60466 7.919016 9.68984c-4.039543-.61599-7.87426-2.18139-11.377299-4.55005zm13.526489-2.564546 6.928494.959926-6.928346 8.47947zm13.032907.778376 9.807405-2.316118c-.206162.288333-.414475.573592-.626039.854456-1.80026 2.389952-3.787406 4.502422-5.925084 6.300862zm-2.958399 1.78644 3.458503 5.1397c-3.502989 2.36862-7.33782 3.934-11.377355 4.54991z" opacity=".5"/></g></g></svg>