<svg height="500" viewBox="0 0 132.29167 132.29167" width="500" xmlns="http://www.w3.org/2000/svg" xmlns:xlink="http://www.w3.org/1999/xlink"><filter id="a" color-interpolation-filters="sRGB" height="1.073655" width="1.146419" x="-.07321" y="-.036827"><feGaussianBlur stdDeviation=".60915824"/></filter><filter id="b" color-interpolation-filters="sRGB" height="1.085413" width="1.110778" x="-.055389" y="-.042706"><feGaussianBlur stdDeviation="8.8971442"/></filter><linearGradient id="c" gradientUnits="userSpaceOnUse" spreadMethod="reflect" x1="-588.11955066166" x2="-578.31641776882" xlink:href="#d" y1="22.61268460007" y2="28.84544259045"/><linearGradient id="d"><stop offset="0" stop-color="#1b981b"/><stop offset="1" stop-color="#1ab21a"/></linearGradient><radialGradient id="e" cx="-116.98695" cy="108.58923" gradientTransform="matrix(-.09142486 -.38704103 .33223641 -.07847924 -68.905605 65.362409)" gradientUnits="userSpaceOnUse" r="43.925835" spreadMethod="reflect" xlink:href="#d"/><radialGradient id="f" cx="-23.851976" cy="44.48074" gradientTransform="matrix(.5854018 -.16624038 .29794804 1.0491995 -21.422766 51.484824)" gradientUnits="userSpaceOnUse" r="24.641195" spreadMethod="reflect" xlink:href="#d"/><g transform="translate(236.80209 3.976784)"><path d="m-41.671875 81.483635h19.84375v19.84375h-19.84375z" fill="#126d12"/><path d="m-61.515625 81.483635h19.84375v19.84375h-19.84375z" fill="#168316"/><path d="m-81.359375 81.483635h19.84375v19.84375h-19.84375z" fill="#1b981b"/><path d="m-71.437501 37.562799h39.6875v39.6875h-39.6875z" fill="url(#c)" fill-rule="evenodd" stroke="#126d12" stroke-width="9.525"/><path d="m-41.671875 13.485714h19.84375v19.84375h-19.84375z" fill="#26c026"/><path d="m-61.515625 13.485714h19.84375v19.84375h-19.84375z" fill="#3fd93f"/><path d="m-81.359375 13.485714h19.84375v19.84375h-19.84375z" fill="#95ea95" opacity=".5"/></g><g><path d="m141.59431 209.80045c-54.714705 0-103.677405 29.62287-137.949305 75.12109-34.2718 45.49823-54.8066 107.15012-54.8066 174.87891s20.5348 129.37872 54.8066 174.87695c34.2719 45.49823 83.2346 75.12305 137.949305 75.12305 54.7146 0 103.6773-29.62482 137.9492-75.12305 34.2718-45.49823 54.8066-107.14816 54.8066-174.87695s-20.5348-129.38068-54.8066-174.87891c-34.2719-45.49822-83.2346-75.12109-137.9492-75.12109z" fill-rule="evenodd" filter="url(#b)" opacity=".5" stroke-width="1.29355" transform="matrix(.188971 .07827435 -.07827435 .188971 75.379156 -28.542094)"/><g fill-rule="evenodd" opacity=".95" transform="matrix(.92387873 .38268537 -.38268537 .92387873 30.269431 -20.087078)"><path d="m66.145831 14.729751c-11.280138.000004-21.368057 6.108607-28.418589 15.468628-7.050531 9.36002-11.268727 22.031078-11.268727 35.947525 0 13.916446 4.218196 26.587504 11.268727 35.947526 7.050532 9.36002 17.138451 15.46862 28.418589 15.46862 11.280142.00001 21.369645-6.1086 28.420181-15.46862 7.050538-9.360022 11.267138-22.031076 11.267138-35.947526 0-13.916452-4.2166-26.587504-11.267138-35.947525-7.050536-9.360021-17.140039-15.468631-28.420181-15.468628z" fill="#126d12" opacity="1"/><path d="m101.95167 66.145921a35.805813 47.534435 0 0 1 -35.80582 47.534439 35.805813 47.534435 0 0 1 -35.805804-47.534439 35.805813 47.534435 0 0 1 35.805804-47.534436 35.805813 47.534435 0 0 1 35.80582 47.534436z" fill="#126d12" opacity="1"/><g stroke-width="1.22678" transform="matrix(.81514383 0 0 .81514383 110.37216 10.695426)"><path d="m-82.729862 81.522314-15.451829-13.496851c0 6.485783.836679 12.836919 2.325499 18.720305zm56.948072 0 13.12633 5.223404c-1.48882 5.883386-3.4424 10.981438-6.83599 16.924552zm-6.85798 37.267496-6.97425-10.36681 20.12257-4.75273c-3.39256 5.94207-7.11113 10.49003-13.14832 15.11954zm6.85798-37.267496 15.45177-13.496851c0 6.485783-.83662 12.836869-2.32544 18.720255zm-28.47389-71.811078v19.944884l-14.64207-2.028097zm0 0 14.64195 17.916787 6.97425-10.367125c-6.0372-4.629512-12.91382-6.894036-21.6162-7.549662z" fill="#168316" opacity="1"/><path d="m-54.25568 126.33973v-19.94503l-14.641952 2.0283zm-21.616202-7.54992 6.97425-10.36681-20.12176-4.75268c3.39256 5.94207 7.11032 10.48998 13.14751 15.11949zm21.616202-109.078574-14.64207 17.916787-6.97425-10.367125c6.0372-4.629512 12.91394-6.894036 21.61632-7.549662zm-28.4743 44.817269-13.126212-5.223369c1.48882-5.883386 3.44321-10.981523 6.8368-16.924633zm56.94848 0 13.12604-5.223369c-1.48882-5.883386-3.4424-10.981523-6.83599-16.924633zm-13.83223-26.900482 4.67952 18.905617 9.15271 7.994865 6.29005-22.148002z" fill="#1b981b" opacity="1"/><path d="m-54.25568 126.33973-14.641952-17.91673-6.97425 10.36681c6.0372 4.62951 12.913822 6.8943 21.616202 7.54992zm-28.474182-44.817416-13.12633 5.223454c1.48882 5.883386 3.44321 10.981438 6.8368 16.924552zm13.83223 26.900686-4.67981-18.905875-9.15242-7.994811-6.28953 22.148516zm-13.83223-26.900686 3.83284-13.496851-3.832958-13.496958-15.451711 13.496958zm28.474182 44.817416 14.64166-17.91673 6.97425 10.36681c-6.0372 4.62951-12.91353 6.8943-21.61591 7.54992zm0 0v-19.94508l14.64166 2.02835zm14.64166-17.91673 4.67981-18.905875 9.15242-7.994811 6.29034 22.148466zm-36.25798-91.162102 6.97425 10.367125-20.121642 4.75248c3.39256-5.942078 7.110202-10.490094 13.147392-15.119605zm6.97425 10.367125-4.679692 18.905617-9.152538 7.994865-6.289412-22.148002zm0 0 14.64207 2.028097-19.321762 16.87752zm-13.83223 26.900482-15.451711 13.496958c0-6.485783.836679-12.836941 2.325499-18.720327zm50.0905-37.267607-6.97425 10.367125 20.12228 4.75248c-3.39256-5.942078-7.11084-10.490094-13.14803-15.119605zm-6.97425 10.367125-14.64195 2.028097 19.32147 16.87752zm13.83223 26.900482 15.45148 13.496958-15.45177 13.496851-3.83284-13.496851zm0 0 15.45148 13.496958c0-6.485783-.83662-12.836941-2.32544-18.720327z" fill="url(#e)" opacity="1"/><path d="m-68.897632 108.423 14.641952-2.0283-19.321762-16.877575zm-4.67981-18.905875-5.31958-21.491662-3.83284 13.496851zm33.963422 18.905875-14.64166-2.02835 19.32147-16.877525zm4.67981-18.905875 5.31958-21.491662 3.83284 13.496851zm-38.643232-42.983485-5.31958 21.491823-3.832958-13.496958zm19.321762-36.822404v19.944884l14.64195-2.028097zm19.32147 36.822404 5.31958 21.491823 3.83313-13.496958z" fill="#3fd93f" opacity="1"/><path d="m-73.577442 89.517125-5.31958-21.491662 5.31958-21.491823 19.321762-16.87752 19.32147 16.87752 5.31958 21.491823-5.31958 21.491662-19.32147 16.877575z" fill="url(#f)" opacity="1"/></g><path d="m66.145977 42.256117-10.526212 9.416515-3.784734 14.473271 3.784872 14.475234 1.490517 1.333103c-1.062247-3.399842-1.62179-7.180707-1.631185-11.022021-.000064-13.194498 6.354433-23.890732 14.193093-23.890585.713957.0019 1.426814.09441 2.132498.276839z" fill="#95ea95" filter="url(#a)" opacity=".5"/></g><g fill="#126d12" transform="matrix(.92387872 .38268538 -.38268538 .92387872 30.269432 -20.087078)"><path d="m103.08682 64.846767-10.467914-9.143302 8.075024-3.214406-1.275262-3.206444-7.444553 2.962856 4.169655-14.683733-1.264117-2.150897-13.975256-3.300377 4.293835-6.38264-2.864148-1.924822-4.387767 6.522743-10.464727-12.806674h-2.671506l-10.464728 12.806674-4.387766-6.522743-2.864148 1.924822 4.293834 6.38264-13.975259 3.300377-1.262517 2.150897 4.169651 14.683733-7.446148-2.962856-1.275254 3.206444 8.075018 3.214406-10.467911 9.143302v2.598271l10.467911 9.143302-8.075018 3.214406 1.275254 3.206445 7.446148-2.962857-4.169651 14.683736 1.262517 2.150896 13.975259 3.300374-4.293834 6.38104 2.864148 1.92642 4.387766-6.52115 10.464728 12.80508h2.671506l10.464727-12.80508 4.387767 6.52115 2.864148-1.92642-4.293835-6.38104 13.975256-3.300374 1.264117-2.150896-4.169655-14.683736 7.444553 2.962857 1.275262-3.206445-8.075024-3.214406 10.467914-9.143302zm-38.666796-41.397206v9.437837l-6.928722-.958431zm3.451625 0 6.928722 8.479406-6.928722.958431zm-12.359299 11.689035 6.650108.920221-8.77394 7.664262zm21.266975 0 2.123831 8.584483-8.773941-7.664262zm-24.922386.40598-3.005843 12.141185-4.999125 4.367069-3.889445-13.698237zm28.577796 0 11.896005 2.810017-3.889446 13.698237-5.000716-4.367069zm-14.288898 1.615959 14.204518 12.407062 4.104376 16.578306-4.104376 16.578305-14.204518 12.40706-14.204518-12.40706-4.104377-16.578305 4.104377-16.578306zm-18.740348 16.369743-1.459935 5.897056-1.052363-3.703173zm37.480695 0 2.512299 2.193883-1.052363 3.704765zm-42.866694 4.70459 2.246422 7.911035-2.246422 7.911034-9.05733-7.911034zm48.252693 0 9.057332 7.911035-9.057332 7.911034-2.246421-7.911034zm-3.926063 14.628011 1.052363 3.704765-2.512299 2.193883zm-40.400566.0016 1.459935 5.897056-2.512298-2.193883zm-2.093583 7.374504 4.999125 4.367069 3.005843 12.141192-11.894413-2.808431zm44.589323 0 3.889446 13.69824-11.896005 2.810021 3.005843-12.141192zm-35.054368 8.329752 8.77394 7.66267-6.648516.921813zm25.517822 0-2.125423 8.584483-6.648517-.921813zm-14.484724 10.834119v9.439426l-6.928722-8.47941zm3.451625 0 6.928722.960016-6.928722 8.47941z"/><path d="m66.146045 14.729615c-11.280117.000004-21.368254 6.108672-28.418772 15.468675-7.050518 9.360002-11.268939 22.031125-11.268939 35.947544s4.218421 26.587542 11.268939 35.947536c7.050518 9.36001 17.138655 15.46868 28.418772 15.46868 11.280118.00001 21.369513-6.10867 28.420035-15.46868 7.05052-9.359994 11.26726-22.031113 11.26726-35.947536s-4.21674-26.587541-11.26726-35.947544c-7.050522-9.360003-17.139917-15.468678-28.420035-15.468675zm0 5.60751c9.268529-.000002 17.713951 4.969713 23.939755 13.234854 6.225808 8.26514 10.14002 19.798803 10.14002 32.573855s-3.914212 24.308717-10.14002 32.57386c-6.225804 8.265136-14.671226 13.235266-23.939755 13.235266-9.268528-.00001-17.714375-4.97014-23.940177-13.235266-6.225802-8.265143-10.140024-19.798812-10.140024-32.57386s3.914222-24.308716 10.140024-32.573855c6.225802-8.26514 14.671649-13.23485 23.940177-13.234854z" fill-rule="evenodd"/></g></g></svg>