<svg height="500" viewBox="0 0 132.29167 132.29167" width="500" xmlns="http://www.w3.org/2000/svg" xmlns:xlink="http://www.w3.org/1999/xlink"><filter id="a" color-interpolation-filters="sRGB" height="1.106261" width="1.137819" x="-.068909" y="-.053131"><feGaussianBlur stdDeviation="11.068896"/></filter><linearGradient id="b" gradientUnits="userSpaceOnUse" spreadMethod="reflect" x1="94.87965293259" x2="81.93765673116" xlink:href="#d" y1="35.41084125047" y2="41.61516912293"/><radialGradient id="c" cx="101.30498" cy="71.729332" gradientTransform="matrix(.11466414 -.49705712 .3877863 .08945688 58.565112 126.38099)" gradientUnits="userSpaceOnUse" r="24.641195" spreadMethod="reflect" xlink:href="#d"/><linearGradient id="d"><stop offset="0" stop-color="#0d0d0d"/><stop offset="1" stop-color="#252428"/></linearGradient><filter id="e" color-interpolation-filters="sRGB" height="1.041431" width="1.082361" x="-.04118" y="-.020715"><feGaussianBlur stdDeviation=".34265151"/></filter><g><path d="m141.59431 209.80045c-54.714705 0-103.677405 29.62287-137.949305 75.12109-34.2718 45.49823-54.8066 107.15012-54.8066 174.87891s20.5348 129.37872 54.8066 174.87695c34.2719 45.49823 83.2346 75.12305 137.949305 75.12305 54.7146 0 103.6773-29.62482 137.9492-75.12305 34.2718-45.49823 54.8066-107.14816 54.8066-174.87695s-20.5348-129.38068-54.8066-174.87891c-34.2719-45.49822-83.2346-75.12109-137.9492-75.12109z" fill-rule="evenodd" filter="url(#a)" opacity=".5" stroke-width="1.29355" transform="matrix(.188971 .07827435 -.07827435 .188971 75.379156 -28.542094)"/><g fill-rule="evenodd" opacity=".95" transform="matrix(.92387873 .38268537 -.38268537 .92387873 30.269431 -20.087078)"><path d="m66.145831 14.729751c-11.280138.000004-21.368057 6.108607-28.418589 15.468628-7.050531 9.36002-11.268727 22.031078-11.268727 35.947525 0 13.916446 4.218196 26.587504 11.268727 35.947526 7.050532 9.36002 17.138451 15.46862 28.418589 15.46862 11.280142.00001 21.369645-6.1086 28.420181-15.46862 7.050538-9.360022 11.267138-22.031076 11.267138-35.947526 0-13.916452-4.2166-26.587504-11.267138-35.947525-7.050536-9.360021-17.140039-15.468631-28.420181-15.468628z"/><path d="m101.95167 66.145921a35.805813 47.534435 0 0 1 -35.80582 47.534439 35.805813 47.534435 0 0 1 -35.805804-47.534439 35.805813 47.534435 0 0 1 35.805804-47.534436 35.805813 47.534435 0 0 1 35.80582 47.534436z" opacity="1"/><path d="m42.935423 77.147837-12.595463-11.001875c0 5.286846.682014 10.463936 1.895617 15.259742zm46.42087 0 10.699847 4.257826c-1.213603 4.795806-2.806051 8.951451-5.572315 13.795944zm-5.59024 30.378373-5.685017-8.450445 16.402789-3.874158c-2.765425 4.843643-5.796594 8.550883-10.717772 12.324603zm5.59024-30.378373 12.595417-11.001875c0 5.286846-.68197 10.463895-1.89557 15.259701zm-23.210316-58.536357v16.257949l-11.935393-1.653191zm0 0 11.935295 14.604758 5.685017-8.450697c-4.921186-3.773719-10.52662-5.619631-17.620312-6.154061z"/><path d="m66.145977 113.68048v-16.258071l-11.935297 1.653356zm-17.620313-6.15427 5.685016-8.450445-16.402128-3.874117c2.765424 4.843642 5.795933 8.550842 10.717112 12.324562zm17.620313-88.91473-11.935393 14.604758-5.685017-8.450697c4.921187-3.773719 10.526719-5.619631 17.62041-6.154061zm-23.21065 36.53252-10.69975-4.257797c1.213602-4.795805 2.806711-8.95152 5.572975-13.79601zm46.421202 0 10.699611-4.257797c-1.213603-4.795805-2.806051-8.95152-5.572315-13.79601zm-11.275257-21.927762 3.814482 15.410798 7.460775 6.516964 5.127296-18.053807z" fill="#111113"/><path d="m66.145977 113.68048-11.935297-14.604715-5.685016 8.450445c4.921186 3.77371 10.526622 5.61984 17.620313 6.15427zm-23.210554-36.532643-10.699846 4.257867c1.213602 4.795805 2.806711 8.951451 5.572975 13.795944zm11.275257 21.927928-3.814718-15.411007-7.460539-6.516921-5.126871 18.054226zm-11.275257-21.927928 3.124316-11.001875-3.124412-11.001962-12.595367 11.001962zm23.210554 36.532643 11.935059-14.604715 5.685017 8.450445c-4.921186 3.77371-10.526384 5.61984-17.620076 6.15427zm0 0v-16.258112l11.935059 1.653397zm11.935059-14.604715 3.814718-15.411007 7.460539-6.516921 5.127532 18.054186zm-29.555469-74.310224 5.685017 8.450697-16.402032 3.873955c2.765424-4.843648 5.795837-8.550935 10.717015-12.324652zm5.685017 8.450697-3.814622 15.410798-7.460635 6.516964-5.126775-18.053807zm0 0 11.935393 1.653191-15.750015 13.757607zm-11.275257 21.927762-12.595367 11.001962c0-5.286846.682014-10.463953 1.895617-15.259759zm40.830962-30.378459-5.685017 8.450697 16.402553 3.873955c-2.765425-4.843648-5.796358-8.550935-10.717536-12.324652zm-5.685017 8.450697-11.935295 1.653191 15.749777 13.757607zm11.275257 21.927762 12.595181 11.001962-12.595417 11.001875-3.124316-11.001875zm0 0 12.595181 11.001962c0-5.286846-.68197-10.463953-1.89557-15.259759z" fill="url(#b)"/><path d="m54.21068 99.075765 11.935297-1.653356-15.750015-13.757651zm-3.814718-15.411007-4.336223-17.518796-3.124316 11.001875zm27.685074 15.411007-11.935059-1.653397 15.749777-13.75761zm3.814718-15.411007 4.336223-17.518796 3.124316 11.001875zm-31.499792-35.037722-4.336223 17.518926-3.124412-11.001962zm15.750015-30.015556v16.257949l11.935295-1.653191zm15.749777 30.015556 4.336223 17.518926 3.124552-11.001962z" fill="#1e1c26"/><path d="m50.395962 83.664758-4.336223-17.518796 4.336223-17.518926 15.750015-13.757607 15.749777 13.757607 4.336223 17.518926-4.336223 17.518796-15.749777 13.757651z" fill="url(#c)"/><path d="m66.145977 42.256117-10.526212 9.416515-3.784734 14.473271 3.784872 14.475234 1.490517 1.333103c-1.062247-3.399842-1.62179-7.180707-1.631185-11.022021-.000064-13.194498 6.354433-23.890732 14.193093-23.890585.713957.0019 1.426814.09441 2.132498.276839z" fill="#5b5775" filter="url(#e)" opacity=".5"/></g><path d="m103.08682 64.846767-10.467914-9.143302 8.075024-3.214406-1.275262-3.206444-7.444553 2.962856 4.169655-14.683733-1.264117-2.150897-13.975256-3.300377 4.293835-6.38264-2.864148-1.924822-4.387767 6.522743-10.464727-12.806674h-2.671506l-10.464728 12.806674-4.387766-6.522743-2.864148 1.924822 4.293834 6.38264-13.975259 3.300377-1.262517 2.150897 4.169651 14.683733-7.446148-2.962856-1.275254 3.206444 8.075018 3.214406-10.467911 9.143302v2.598271l10.467911 9.143302-8.075018 3.214406 1.275254 3.206445 7.446148-2.962857-4.169651 14.683736 1.262517 2.150896 13.975259 3.300374-4.293834 6.38104 2.864148 1.92642 4.387766-6.52115 10.464728 12.80508h2.671506l10.464727-12.80508 4.387767 6.52115 2.864148-1.92642-4.293835-6.38104 13.975256-3.300374 1.264117-2.150896-4.169655-14.683736 7.444553 2.962857 1.275262-3.206445-8.075024-3.214406 10.467914-9.143302zm-38.666796-41.397206v9.437837l-6.928722-.958431zm3.451625 0 6.928722 8.479406-6.928722.958431zm-12.359299 11.689035 6.650108.920221-8.77394 7.664262zm21.266975 0 2.123831 8.584483-8.773941-7.664262zm-24.922386.40598-3.005843 12.141185-4.999125 4.367069-3.889445-13.698237zm28.577796 0 11.896005 2.810017-3.889446 13.698237-5.000716-4.367069zm-14.288898 1.615959 14.204518 12.407062 4.104376 16.578306-4.104376 16.578305-14.204518 12.40706-14.204518-12.40706-4.104377-16.578305 4.104377-16.578306zm-18.740348 16.369743-1.459935 5.897056-1.052363-3.703173zm37.480695 0 2.512299 2.193883-1.052363 3.704765zm-42.866694 4.70459 2.246422 7.911035-2.246422 7.911034-9.05733-7.911034zm48.252693 0 9.057332 7.911035-9.057332 7.911034-2.246421-7.911034zm-3.926063 14.628011 1.052363 3.704765-2.512299 2.193883zm-40.400566.0016 1.459935 5.897056-2.512298-2.193883zm-2.093583 7.374504 4.999125 4.367069 3.005843 12.141192-11.894413-2.808431zm44.589323 0 3.889446 13.69824-11.896005 2.810021 3.005843-12.141192zm-35.054368 8.329752 8.77394 7.66267-6.648516.921813zm25.517822 0-2.125423 8.584483-6.648517-.921813zm-14.484724 10.834119v9.439426l-6.928722-8.47941zm3.451625 0 6.928722.960016-6.928722 8.47941z" transform="matrix(.92387872 .38268538 -.38268538 .92387872 30.269432 -20.087078)"/><path d="m85.743547 18.834424c-10.421462-4.316732-22.079375-2.533646-32.175134 3.415731-10.09576 5.949377-18.842123 16.04163-24.167733 28.898714-5.32561 12.857083-6.277353 26.177992-3.345463 37.523622 2.931885 11.345639 9.914402 20.849899 20.335862 25.166629 10.421457 4.31675 22.080537 2.53413 32.176303-3.41525 10.095759-5.94937 18.840567-16.042261 24.166178-28.899348 5.32561-12.857087 6.27891-26.177348 3.34702-37.522987s-9.915571-20.850378-20.337033-25.167111zm-2.145912 5.180659c8.562998 3.546929 14.463706 11.370282 17.052645 21.388794 2.58894 10.018513 1.79144 22.17213-3.097388 33.974729-4.888826 11.802599-12.918848 20.960394-21.833689 26.213864-8.914834 5.25345-18.619376 6.61331-27.182373 3.06638-8.562992-3.54694-14.463934-11.370837-17.052877-21.389334-2.588937-10.018513-1.791437-22.17214 3.097387-33.974735s12.918856-20.960391 21.83369-26.213853c8.914834-5.253464 18.619608-6.612771 27.182605-3.065845z" fill-rule="evenodd"/></g></svg>