<svg height="500" viewBox="0 0 132.29167 132.29167" width="500" xmlns="http://www.w3.org/2000/svg" xmlns:xlink="http://www.w3.org/1999/xlink"><filter id="a" color-interpolation-filters="sRGB" height="1.180784" width="1.14246" x="-.07123" y="-.090392"><feGaussianBlur stdDeviation="1.1410629"/></filter><filter id="b" color-interpolation-filters="sRGB" height="1.124502" width="1.124502" x="-.062251" y="-.062251"><feGaussianBlur stdDeviation="2.0513209"/></filter><filter id="c" color-interpolation-filters="sRGB" height="1.156111" width="1.111671" x="-.055835" y="-.078056"><feGaussianBlur stdDeviation="2.2634347"/></filter><filter id="d" color-interpolation-filters="sRGB" height="1.136717" width="1.100977" x="-.050488" y="-.068359"><feGaussianBlur stdDeviation="2.3457468"/></filter><radialGradient id="e" cx="86.055344" cy="45.671474" gradientTransform="matrix(1.3920409 -1.2344845 -1.6193442 -.90033192 -5.63355 198.80507)" gradientUnits="userSpaceOnUse" r="40.30827"><stop offset="0" stop-color="#fff780" stop-opacity=".061033"/><stop offset=".12393165" stop-color="#fff780" stop-opacity="0"/><stop offset=".41729519" stop-color="#c2a40a" stop-opacity=".1"/><stop offset=".66706532" stop-color="#c2a40a" stop-opacity=".5"/><stop offset=".91683543" stop-color="#c2a40a" stop-opacity=".75"/><stop offset="1" stop-color="#c2a40a"/></radialGradient><linearGradient id="f" gradientUnits="userSpaceOnUse" spreadMethod="reflect" x1="-502.87932066166" x2="-493.07618776882" y1="204.13547760007" y2="210.36823559045"><stop offset="0" stop-color="#ffe666"/><stop offset="1" stop-color="#ffea00"/></linearGradient><filter id="g" color-interpolation-filters="sRGB" height="1.035312" width="1.026075" x="-.013038" y="-.017656"><feGaussianBlur stdDeviation=".60572463"/></filter><clipPath id="h"><path d="m71.932654 25.052667c-3.485661-.07385-6.989067.09481-10.462798.494451-13.894689 1.598508-27.421047 6.915268-37.425288 15.883175-10.005113 8.968547-14.6935869 20.267941-13.453096 31.094067 1.240491 10.826126 8.363804 20.768429 20.137422 27.231706 23.545901 12.926454 57.541154 9.093574 77.565886-8.856758 10.01225-8.97495 14.6729-20.296786 13.40329-31.133101-1.26962-10.836318-8.41183-20.783612-20.18506-27.246888-8.829347-4.846973-19.123375-7.245107-29.580356-7.466652z"/></clipPath><g><path d="m74.578489 27.698502c-3.48566-.07385-6.989066.09481-10.462798.494451-13.894688 1.598507-27.421047 6.915267-37.425288 15.883174-10.005113 8.968548-14.693587 20.26794-13.453096 31.094067 1.240491 10.826126 8.363804 20.768429 20.137421 27.231716 23.545902 12.92645 57.541156 9.09358 77.565902-8.856766 10.01226-8.97495 14.6729-20.296787 13.40329-31.133104-1.26962-10.836315-8.41183-20.78361-20.18506-27.246886-8.829362-4.846974-19.123389-7.245107-29.580371-7.466652z" filter="url(#d)" opacity=".5"/><g clip-path="url(#h)"><path d="m71.932653 25.052667c-3.485659-.07385-6.989065.09481-10.462797.494451-13.894688 1.598507-27.421047 6.915267-37.425288 15.883174-10.005113 8.968548-14.6935868 20.267941-13.453096 31.094067 1.240491 10.826126 8.363804 20.76843 20.137421 27.231706 23.545902 12.926455 57.541156 9.093575 77.565887-8.856756 10.01225-8.97495 14.6729-20.296787 13.40329-31.133103-1.26962-10.836316-8.41183-20.78361-20.18506-27.246886-8.829347-4.846975-19.123374-7.245108-29.580357-7.466653z" fill="#c2a40a"/><path d="m99.479096 36.235004c21.651074 11.886018 24.400034 35.009255 5.995024 51.507436-18.40524 16.49862-51.061894 20.18446-72.712382 8.298568-21.65103-11.885609-24.2949278-34.95982-5.895645-51.452874 9.199578-8.246599 21.948998-13.320561 35.085578-14.831852 13.136678-1.511304 26.701996.535975 37.527425 6.478722z" fill="#c2a40a"/><path d="m97.604159 37.916498c20.457791 11.230942 23.046851 33.029926 5.661871 48.613748-17.385231 15.584264-48.171085 19.060674-68.628294 7.829873-20.457733-11.230532-22.949385-32.975846-5.564157-48.559902 8.692616-7.792136 20.710579-12.57093 33.113053-13.997769 12.402473-1.426838 25.18864.498787 35.417527 6.114052z" fill="url(#f)" filter="url(#c)" opacity=".75"/><circle cx="66.145836" cy="39.542774" fill="url(#f)" filter="url(#b)" r="39.542774" transform="matrix(-1.0911562 .12552257 .08859391 .77318278 134.81754 27.275014)"/><path d="m71.929688 25.066406c-3.483715-.076556-6.986813.088602-10.460938.488282-13.895611 1.598616-27.422182 6.917434-37.425781 15.884765-10.004483 8.967985-14.689376 20.262828-13.449219 31.083985 1.240157 10.821156 8.359048 20.76125 20.132812 27.224609 23.546266 12.926653 57.546902 9.091743 77.570318-8.857422 10.01163-8.974393 14.66973-20.293616 13.40039-31.125s-8.41022-20.774924-20.1836-27.238281c-8.829333-4.846966-19.132873-7.23127-29.583982-7.460938z" fill="url(#e)" filter="url(#g)"/><path d="m93.570457 7.5826051c5.42721 5.0417369 11.021923 22.7138409 11.021923 22.7138409s-5.341319-8.729969-8.508454-12.320761c-3.631026-4.116735-7.624184-7.700885-11.870987-10.3930799-5.732329-3.6339208-18.067103-7.5826051-18.067103-7.5826051s19.639678.35059713 27.424621 7.5826051z" fill="#ffffb3" filter="url(#a)" opacity=".5" transform="matrix(-1.0911562 .12552257 .08859391 .77318278 143.67363 34.275349)"/><path d="m70.624632 25.036198c-3.053183-.01172-6.115485.161397-9.154998.511081-13.894674 1.598505-27.420876 6.91537-37.425106 15.883268-10.005103 8.968539-14.6934148 20.267595-13.452926 31.09371 1.24049 10.826115 8.363668 20.768661 20.137272 27.23193 23.545879 12.926443 57.541102 9.093493 77.565816-8.856823 10.01225-8.974941 14.67293-20.296679 13.40331-31.132985-1.26961-10.836304-8.41159-20.783647-20.18481-27.246916-8.829344-4.84697-19.123656-7.245183-29.580627-7.466728-.435708-.0092-.871762-.01486-1.307931-.01653zm-.02377 4.242636c10.291075.0482 20.420984 2.313398 28.878343 6.956165 21.651055 11.886005 24.399965 35.009286 5.994985 51.507451-18.405226 16.49859-51.061897 20.18459-72.712365 8.298719-21.651007-11.885596-24.2950291-34.960154-5.895764-51.453191 9.199568-8.246591 21.949148-13.320365 35.085715-14.831654 2.873645-.330598 5.767584-.490987 8.649084-.47749z" fill="#c2a40a"/></g></g></svg>