<svg height="500" viewBox="0 0 132.29167 132.29167" width="500" xmlns="http://www.w3.org/2000/svg" xmlns:xlink="http://www.w3.org/1999/xlink"><filter id="a" color-interpolation-filters="sRGB" height="1.086523" width="1.068181" x="-.034091" y="-.043261"><feGaussianBlur stdDeviation=".54610927"/></filter><filter id="b" color-interpolation-filters="sRGB" height="1.124502" width="1.124502" x="-.062251" y="-.062251"><feGaussianBlur stdDeviation="2.0513209"/></filter><filter id="c" color-interpolation-filters="sRGB" height="1.156111" width="1.111671" x="-.055835" y="-.078056"><feGaussianBlur stdDeviation="2.2634347"/></filter><radialGradient id="d" cx="86.055344" cy="45.671474" gradientTransform="matrix(1.3920409 -1.2344845 -1.6193442 -.90033192 -5.63355 198.80507)" gradientUnits="userSpaceOnUse" r="40.30827"><stop offset="0" stop-color="#616b6b" stop-opacity="0"/><stop offset=".12393165" stop-color="#616b6b" stop-opacity="0"/><stop offset=".41729519" stop-color="#616b6b" stop-opacity=".1"/><stop offset=".66706532" stop-color="#616b6b" stop-opacity=".5"/><stop offset=".91683543" stop-color="#616b6b" stop-opacity=".75"/><stop offset="1" stop-color="#616b6b"/></radialGradient><filter id="e" color-interpolation-filters="sRGB" height="1.088676" width="1.063444" x="-.031722" y="-.044338"><feGaussianBlur stdDeviation="1.3620835"/></filter><filter id="f" color-interpolation-filters="sRGB" height="1.143002" width="1.105619" x="-.05281" y="-.071501"><feGaussianBlur stdDeviation="2.4535832"/></filter><g><g filter="url(#f)" opacity=".33" transform="translate(2.645834 2.645834)"><path d="m70.624631 25.036199c-3.053182-.01173-6.115484.161394-9.154996.511079-13.894675 1.598506-27.420876 6.915371-37.425107 15.883269-10.005103 8.968539-14.6934157 20.267595-13.452926 31.09371 1.24049 10.826115 8.363667 20.768661 20.137272 27.23193 23.545879 12.926443 57.5411 9.093493 77.565806-8.856824 10.01224-8.974941 14.67293-20.296679 13.40332-31.132984-1.26962-10.836305-8.4116-20.783647-20.18481-27.246916-8.829342-4.84697-19.123655-7.245183-29.580628-7.466728-.435707-.0092-.871762-.01486-1.307931-.01654zm-.02377 4.242635c10.291075.0482 20.420984 2.313398 28.878342 6.956164 21.651047 11.886007 24.399977 35.009288 5.994977 51.507452-18.405216 16.4986-51.061887 20.1846-72.712354 8.298719-21.651009-11.885598-24.2950293-34.960154-5.895765-51.453192 9.199569-8.246591 21.949148-13.320364 35.085715-14.831653 2.873645-.330597 5.767583-.490986 8.649085-.47749z"/><path d="m99.479096 36.235004c21.651074 11.886018 24.400034 35.009255 5.995024 51.507436-18.40524 16.49862-51.061894 20.18446-72.712382 8.298568-21.65103-11.885609-24.2949278-34.95982-5.895645-51.452874 9.199578-8.246599 21.948998-13.320561 35.085578-14.831852 13.136678-1.511304 26.701996.535975 37.527425 6.478722z" opacity=".5"/></g><g opacity=".5"><path d="m93.570457 7.5826051c5.42721 5.0417369 11.021923 22.7138409 11.021923 22.7138409s-5.341319-8.729969-8.508454-12.320761c-3.631026-4.116735-7.624184-7.700885-11.870987-10.3930799-5.732329-3.6339208-18.067103-7.5826051-18.067103-7.5826051s19.639678.35059713 27.424621 7.5826051z" fill="#fff" filter="url(#a)" opacity=".75" stroke-width=".229825" transform="matrix(1.0911562 -.12552257 -.08859391 -.77318278 -2.376924 96.157744)"/><path d="m99.479096 36.235004c21.651074 11.886018 24.400034 35.009255 5.995024 51.507436-18.40524 16.49862-51.061894 20.18446-72.712382 8.298568-21.65103-11.885609-24.2949278-34.95982-5.895645-51.452874 9.199578-8.246599 21.948998-13.320561 35.085578-14.831852 13.136678-1.511304 26.701996.535975 37.527425 6.478722z" fill="#798686"/><path d="m97.604159 37.916498c20.457791 11.230942 23.046851 33.029926 5.661871 48.613748-17.385231 15.584264-48.171085 19.060674-68.628294 7.829873-20.457733-11.230532-22.949385-32.975846-5.564157-48.559902 8.692616-7.792136 20.710579-12.57093 33.113053-13.997769 12.402473-1.426838 25.18864.498787 35.417527 6.114052z" fill="#b6c9c9" filter="url(#c)"/><circle cx="66.145836" cy="39.542774" fill="#ecf9f9" filter="url(#b)" r="39.542774" transform="matrix(-1.0911562 .12552257 .08859391 .77318278 134.81754 27.275014)"/><path d="m61.951671 29.756283c13.136677-1.511305 26.701996.535974 37.527428 6.478721 21.651071 11.886018 24.400031 35.009255 5.995021 51.507437-18.405241 16.498619-51.061894 20.184459-72.712383 8.298569-21.651029-11.88561-24.2949266-34.959822-5.895644-51.452876 9.199578-8.246598 21.948998-13.320561 35.085578-14.831855z" fill="url(#d)" filter="url(#e)" opacity=".33"/><path d="m93.570457 7.5826051c5.42721 5.0417369 11.021923 22.7138409 11.021923 22.7138409s-5.341319-8.729969-8.508454-12.320761c-3.631026-4.116735-7.624184-7.700885-11.870987-10.3930799-5.732329-3.6339208-18.067103-7.5826051-18.067103-7.5826051s19.639678.35059713 27.424621 7.5826051z" fill="#fff" filter="url(#a)" opacity=".75" stroke-width=".229825" transform="matrix(-1.0911562 .12552257 .08859391 .77318278 134.6778 36.127432)"/></g><path d="m70.624632 25.036198c-3.053183-.01172-6.115485.161397-9.154998.511081-13.894674 1.598505-27.420876 6.91537-37.425106 15.883268-10.005103 8.968539-14.6934148 20.267595-13.452926 31.09371 1.24049 10.826115 8.363668 20.768661 20.137272 27.23193 23.545879 12.926443 57.541102 9.093493 77.565816-8.856823 10.01225-8.974941 14.67293-20.296679 13.40331-31.132985-1.26961-10.836304-8.41159-20.783647-20.18481-27.246916-8.829344-4.84697-19.123656-7.245183-29.580627-7.466728-.435708-.0092-.871762-.01486-1.307931-.01653zm-.02377 4.242636c10.291075.0482 20.420984 2.313398 28.878343 6.956165 21.651055 11.886005 24.399965 35.009286 5.994985 51.507451-18.405226 16.49859-51.061897 20.18459-72.712365 8.298719-21.651007-11.885596-24.2950291-34.960154-5.895764-51.453191 9.199568-8.246591 21.949148-13.320365 35.085715-14.831654 2.873645-.330598 5.767584-.490987 8.649084-.47749z" fill="#616b6b"/></g></svg>