<svg height="500" viewBox="0 0 500 500" width="500" xmlns="http://www.w3.org/2000/svg" xmlns:xlink="http://www.w3.org/1999/xlink"><filter id="a" color-interpolation-filters="sRGB" height="1.136836" width="1.165966" x="-.082983" y="-.068418"><feGaussianBlur stdDeviation="9.4489623"/></filter><linearGradient id="b" gradientUnits="userSpaceOnUse" spreadMethod="reflect" x1="-355.42652066166" x2="-345.62338776882" xlink:href="#c" y1="-54.67743639993" y2="-48.44467840955"/><linearGradient id="c"><stop offset="0" stop-color="#1a5ee5"/><stop offset="1" stop-color="#1d56c8"/></linearGradient><radialGradient id="d" cx="253.98387" cy="327.08539" gradientTransform="matrix(.28254984 -1.4799747 1.1021498 .21040973 -99.082692 669.33408)" gradientUnits="userSpaceOnUse" r="75.169098" spreadMethod="reflect" xlink:href="#c"/><filter id="e" color-interpolation-filters="sRGB" height="1.045674" width="1.066039" x="-.03302" y="-.022837"><feGaussianBlur stdDeviation="1.6130908"/></filter><g transform="matrix(3.7795275 0 0 3.7795275 948 -147.96963)"><path d="m-41.671875 81.483635h19.84375v19.84375h-19.84375z" fill="#1242a1"/><path d="m-61.515625 81.483635h19.84375v19.84375h-19.84375z" fill="#144bb8"/><path d="m-81.359375 81.483635h19.84375v19.84375h-19.84375z" fill="#1152d5"/><path d="m-71.437501 37.562799h39.6875v39.6875h-39.6875z" fill="url(#b)" fill-rule="evenodd" stroke="#1242a1" stroke-width="9.525"/><path d="m-41.671875 13.485714h19.84375v19.84375h-19.84375z" fill="#256af4"/><path d="m-61.515625 13.485714h19.84375v19.84375h-19.84375z" fill="#3d7af5"/><path d="m-81.359375 13.485714h19.84375v19.84375h-19.84375z" fill="#d5dff4" opacity=".5"/></g><path d="m396.5477 372.32102v-224.71679l-53.1856-53.36914-166.4332-.0542-53.6602 53.36914v224.71679l53.6602 53.31446 166.4332.0542z" filter="url(#a)" opacity=".5"/><g opacity=".95"><path d="m386.5477 362.32102v-224.71679l-53.1856-53.36914-166.4332-.0542-53.6602 53.36914v224.71679l53.6602 53.31446 166.4332.0542z" fill="#1242a1" opacity="1"/><path d="m121.2688 354.26884 53.6096 53.37007v-53.37007zm203.94779 53.37007 52.16689-53.37007h-52.16689z" fill="#144bb8" opacity="1"/><path d="m174.8784 92.20115-53.6096 53.25161h53.6096zm202.50508 53.25161-52.16689-53.25161v53.25161z" fill="#3d7af5" opacity="1"/><path d="m325.21659 354.26884h-150.33819v53.37007h150.33819zm52.16689-208.81608h-52.16689v208.81608h52.16689z" fill="#144bb8" opacity="1"/><path d="m325.21659 92.20115h-150.33819v53.25161h150.33819zm-150.33819 262.06769h-53.6096v-208.81608h53.6096z" fill="#256af4" opacity="1"/><path d="m333.1775 137.60423-166.5387-.0542.2901 224.66211 166.2486.0542z" fill="#1242a1" opacity="1"/><path d="m325.21659 145.45276v208.81608h-150.33819v-208.81608z" fill="url(#d)" opacity="1"/><path d="m307.7082 164.34635h-117.2462v169.52549c5.7946-145.44305 19.4118-151.25592 117.2462-169.52549z" fill="#d5dff4" filter="url(#e)" opacity=".5"/></g><path d="m167.1141 84.36603-53.6602 53.36914v224.7168l53.6602 53.31445 166.4316.0527 53.1856-53.31446v-224.71675l-53.1856-53.36914zm16 15.99805 134.4336.0547v37.36914l-134.4336-.0527zm-16.291 5.76367v31.60742h-31.6387zm166.539.0293 31.6407 31.63086h-31.6407zm-203.9082 47.57812h37.3692v192.71485h-37.3692zm53.6602 0h134.4316v192.71485h-134.4316zm150.248.0547h37.3692v192.71484h-37.3692zm-198.1777 208.60742h31.6387v31.64063zm47.9297 0 134.4336.0527v37.37109l-134.4336-.0547zm150.248.0527h31.6387l-31.6387 31.74023z" fill="#1242a1"/></svg>