<svg height="500" viewBox="0 0 500 500" width="500" xmlns="http://www.w3.org/2000/svg" xmlns:xlink="http://www.w3.org/1999/xlink"><filter id="a" color-interpolation-filters="sRGB" height="1.136836" width="1.165966" x="-.082983" y="-.068418"><feGaussianBlur stdDeviation="9.4489623"/></filter><linearGradient id="b" gradientUnits="userSpaceOnUse" spreadMethod="reflect" x1="-1209.21676" x2="-1172.16555" y1="906.39142" y2="929.9483"><stop offset="0" stop-color="#fff"/><stop offset="1" stop-color="#ecf5f9"/></linearGradient><filter id="c" color-interpolation-filters="sRGB" height="1.045674" width="1.066039" x="-.03302" y="-.022837"><feGaussianBlur stdDeviation="1.6130908"/></filter><g transform="matrix(3.7795275 0 0 3.7795275 595.99998 -125.96963)"><path d="m17.859381 81.483635h19.84375v19.84375h-19.84375z" fill="#9eb8c5"/><path d="m-1.98437 81.483635h19.84375v19.84375h-19.84375z" fill="#b0c4cf"/><path d="m-21.828119 81.483635h19.84375v19.84375h-19.84375z" fill="#bfced9"/><path d="m17.859381 13.485715h19.84375v19.84375h-19.84375z" fill="#dfe8ec"/><path d="m-1.98437 13.485715h19.84375v19.84375h-19.84375z" fill="#eff4f6"/><path d="m-21.828119 13.485715h19.84375v19.84375h-19.84375z" fill="#fff" opacity=".5"/><path d="m657 78h150v150h-150z" fill="url(#b)" fill-rule="evenodd" stroke="#9eb8c5" stroke-width="36" transform="matrix(.26458334 0 0 .26458334 -185.7375 16.925299)"/></g><path d="m396.5477 372.32102v-224.71679l-53.1856-53.36914-166.4332-.0542-53.6602 53.36914v224.71679l53.6602 53.31446 166.4332.0542z" filter="url(#a)" opacity=".5"/><g opacity=".95"><path d="m386.5477 362.32102v-224.71679l-53.1856-53.36914-166.4332-.0542-53.6602 53.36914v224.71679l53.6602 53.31446 166.4332.0542z" fill="#9eb8c5" opacity="1"/><path d="m121.2688 354.26884 53.6096 53.37007v-53.37007zm203.94779 53.37007 52.16689-53.37007h-52.16689z" fill="#dfe8ec" opacity="1"/><path d="m174.8784 92.20115-53.6096 53.25161h53.6096zm202.50508 53.25161-52.16689-53.25161v53.25161z" fill="#f3f3f3" opacity="1"/><path d="m325.21659 354.26884h-150.33819v53.37007h150.33819zm52.16689-208.81608h-52.16689v208.81608h52.16689z" fill="#bfced9" opacity="1"/><path d="m325.21659 92.20115h-150.33819v53.25161h150.33819zm-150.33819 262.06769h-53.6096v-208.81608h53.6096z" fill="#eff4f6" opacity="1"/><path d="m333.1775 137.60423-166.5387-.0542.2901 224.66211 166.2486.0542z" fill="#9eb8c5" opacity="1"/><path d="m325.21659 145.45276v208.81608h-150.33819v-208.81608z" fill="url(#b)" opacity="1"/><path d="m307.7082 164.34635h-117.2462v169.52549c5.7946-145.44305 19.4118-151.25592 117.2462-169.52549z" fill="#fff" filter="url(#c)"/></g><path d="m167.1141 84.36603-53.6602 53.36914v224.7168l53.6602 53.31445 166.4316.0527 53.1856-53.31446v-224.71675l-53.1856-53.36914zm16 15.99805 134.4336.0547v37.36914l-134.4336-.0527zm-16.291 5.76367v31.60742h-31.6387zm166.539.0293 31.6407 31.63086h-31.6407zm-203.9082 47.57812h37.3692v192.71485h-37.3692zm53.6602 0h134.4316v192.71485h-134.4316zm150.248.0547h37.3692v192.71484h-37.3692zm-198.1777 208.60742h31.6387v31.64063zm47.9297 0 134.4336.0527v37.37109l-134.4336-.0547zm150.248.0527h31.6387l-31.6387 31.74023z" fill="#9eb8c5"/></svg>