<svg height="500" viewBox="0 0 500 500" width="500" xmlns="http://www.w3.org/2000/svg" xmlns:xlink="http://www.w3.org/1999/xlink"><linearGradient id="a"><stop offset="0" stop-color="#ff7f00"/><stop offset="1" stop-color="#fa0"/></linearGradient><radialGradient id="b" cx="-237.85966" cy="412.49399" gradientTransform="matrix(.81901618 -.10093239 .05984373 .4856026 47.125739 296.6841)" gradientUnits="userSpaceOnUse" r="129.92563" spreadMethod="reflect" xlink:href="#a"/><radialGradient id="c" cx="-593.00037" cy="534.54016" gradientTransform="matrix(.45947855 -.05662435 .03357309 .27242929 131.52479 341.79734)" gradientUnits="userSpaceOnUse" r="231.5912" spreadMethod="reflect" xlink:href="#a"/><filter id="d" color-interpolation-filters="sRGB" height="1.095209" width="1.103778" x="-.051889" y="-.047605"><feGaussianBlur stdDeviation="6.0556939"/></filter><filter id="e" color-interpolation-filters="sRGB" height="1.095209" width="1.103801" x="-.0519" y="-.047605"><feGaussianBlur stdDeviation="6.0556939"/></filter><g stroke-width="1.11111" transform="matrix(.9 0 0 .9 25 25)"><g fill-rule="evenodd"><path d="m249.99999 0c-138.08758-.00001831-249.99998999 112.36629-249.99998999 250s111.91240999 250.00002 249.99998999 250c138.08759.00002 250-112.36629 250-250s-111.91241-250.00001831-250-250z" fill="#aa5a09"/><path d="m481.6066 250a231.60657 232 0 0 1 -231.60661 232 231.60657 232 0 0 1 -231.606601-232 231.60657 232 0 0 1 231.606601-232 231.60657 232 0 0 1 231.60661 232z" fill="#aa5a09"/><path d="m379.94136 249.99588-28.07968-85.49905-101.87764-67.14648-101.84496 67.14648-28.04898 85.49905 28.01829 85.50681 101.87565 67.14649 101.90865-67.14649z" fill="url(#b)"/><path d="m249.98404 18.00074v79.34961l77.20356-8.06934zm0 0c-20.09215.16558-40.03486 3.0901-59.19715 8.13315-19.1623 5.04305-37.54415 11.94249-54.39189 22.07342l36.38747 41.0737zm-218.881799 157.59962 68.747359 20.70312-32.609332-87.9834c-8.226597 9.8996-15.650556 21.17576-21.605415 32.44833-5.954846 11.27257-10.759992 22.97416-14.532612 34.83195zm-12.693537 74.39552c.270511 12.78921 1.132921 25.27396 3.097954 37.75296 1.965034 12.479 5.000976 24.95909 9.595636 36.5898l68.747622-20.64209zm117.986306 201.53416 36.38747-40.81055-105.572866-19.146c9.088608 12.29613 19.91223 23.82268 31.504496 33.91756 11.59225 10.09488 24.24149 19.14431 37.6809 26.03899zm113.58903 30.46923v-79.35009l-77.20156 8.07031zm113.5893-30.46923-36.38541-40.81055-77.20389 71.27978c20.09518-.16802 40.10274-2.5992 59.26582-7.64282 19.1631-5.04361 37.48181-12.69915 54.32348-22.82641zm-36.38541-40.81055 24.70476-75.2168-101.90865 67.14649zm141.67796-86.38085-68.74536-20.64209 32.63929 87.87694c8.2267-9.89981 15.68075-20.85675 21.63553-32.12972s10.69771-23.24718 14.47054-35.10513zm12.72522-74.34276c.0682-12.36906-.93438-25.11101-3.12512-37.92707-2.19073-12.81607-5.56974-25.64081-9.195-36.46845l-69.15051 20.70312zm-117.67874-201.78857-36.72477 41.0737 106.06359 19.03907c-9.33529-12.24007-19.96218-23.64967-31.60845-33.71848s-24.37651-18.82757-37.73037-26.39429zm-191.1299 41.0737-24.64339 75.21582 101.84496-67.14648z" fill="#d57311"/><path d="m18.408704 249.99588 81.441212 53.70067 20.240184-53.70067-20.2405-53.6924zm81.441212 53.70067-32.640302 87.87694c.191732.25756-.192795-.25676 0 0l105.572866 19.146-24.67409-75.2168zm227.338014 107.02294 105.57189-19.146c.19213-.25611-.19108.25691 0 0l-32.63929-87.87694-48.22784 31.80614zm154.40318-160.72361-81.47063-53.6924-20.17912 53.6924 20.17917 53.70067zm-48.33992-141.6758-106.06359-19.03907 24.67408 75.21582 48.2588 31.80665zm-333.40159 87.9834 48.28948-31.80665 24.64339-75.21582-105.542202 19.03907c-.192794.25741.191733-.25822 0 0z" fill="url(#c)"/><path d="m249.98404 18.00074 77.20356 71.28027 36.72477-41.0737c-15.45707-8.88357-32.53367-16.76434-51.43912-22.07342-18.90545-5.30907-31.54822-7.36604-62.48921-8.13315zm0 0-77.20157 71.28027 77.20157 8.06934zm-182.743772 90.31934 105.542202-19.03907-36.38747-41.0737c-13.60126 7.27793-26.29404 16.36604-37.953816 26.39429-11.659788 10.02825-22.544254 21.5391-31.200916 33.71848zm32.609332 87.9834-68.747359-20.70312c-4.59906 11.82001-7.681654 23.89777-9.686804 36.46845-2.005151 12.57068-2.96346 25.71146-3.006733 37.92707zm.000316 107.39307-68.747622 20.64209c3.799152 12.30533 8.737268 23.91472 14.758684 35.10513 6.021404 11.19041 13.41476 22.34707 21.348636 32.12972zm227.338014 107.02294-77.20389-8.07031v79.35009l-77.20156-71.27978-36.38747 40.81055c16.75951 10.07914 35.23167 17.74666 54.48941 22.82641 19.25774 5.07973 39.32067 7.57316 59.09962 7.64282zm0 0 36.38541 40.81055c13.60259-7.27644 26.46823-16.01001 38.12829-26.03899 11.66005-10.02899 22.40193-21.73767 31.05819-33.91756zm154.40318-160.72361-81.47058 53.70067 68.74536 20.64209c4.60242-11.82656 7.73191-24.01474 9.75221-36.5898 2.02029-12.57506 2.93138-25.54187 2.97301-37.75296zm-48.33992-141.6758-33.13071 87.9834 69.15051-20.70312c-5.29242-12.86146-9.86763-24.94096-15.64298-36.14545-5.77536-11.20449-12.75441-21.53106-20.37682-31.13483zm-183.26715 294.3291-101.87565-67.14649 24.67409 75.2168zm0-305.29883 101.87764 67.14648-24.67408-75.21582z" fill="#f4c024"/><path d="m99.849916 303.69655 48.258474 31.80614-28.01829-85.50681zm300.270564-107.39307-48.2588-31.80665 28.07968 85.49905zm-20.17912 53.6924-28.04867 85.50681 48.22784-31.80614zm-259.85126 0 28.04898-85.49905-48.28948 31.80665z" fill="#f6ce56"/></g><path d="m187.38773 350.53224c-19.94358-15.1448-36.75093-36.80411-44.56822-60.64064-8.28736-25.26984-8.28685-54.51223 0-79.78223 7.81573-23.83336 24.47843-45.60524 44.55957-60.63396 17.77293-13.30126 40.40799-22.68204 62.60708-22.70588 22.02427-.0237 44.36432 8.99589 62.16227 22.39361l87.97205 47.14034-150.13644-98.95313-101.84496 67.14648-28.04898 85.49905 28.01829 85.50681 101.87565 67.14649z" fill="#ffe599" filter="url(#e)" opacity=".5"/><path d="m99.849916 303.69655 150.134124 98.95263 101.90865-67.14649 28.04867-85.50681-28.07968-85.49905-101.87764-67.14648 62.16439 51.81279c20.30989 15.28864 37.13105 36.95446 45.03304 60.94623 8.31947 25.25928 8.24658 54.49938-.00099 79.78223-7.71389 23.64687-24.12604 45.31057-44.00059 60.26653-17.918 13.48362-40.769 23.04753-63.19357 23.07234-22.19556.0246-44.79666-9.17975-62.59859-22.69823-29.17928-15.6119-58.35854-31.22379-87.537814-46.83569z" fill="#aa5a09" fill-rule="evenodd" filter="url(#d)" opacity=".5"/></g><path d="m250 25c-124.27857-.000016-225 101.12991-225 225s100.72143 225.00002 225 225c124.27858.00002 225-101.12991 225-225s-100.72142-225.000016-225-225zm12.47871 16.613086a208.44591 208.8 0 0 1 82.64531 22.663477l-.0158.01758-26.2037 29.388867-56.36075-52.036523zm-25.57441.525586-55.80703 51.544336-25.94356-29.100586a208.44591 208.8 0 0 1 81.75059-22.44375zm21.37324 17.840039 42.44414 39.188672-42.44414 4.436717zm-16.55508.0018v43.623629l-42.44238-4.436716zm118.03008 12.522614a208.44591 208.8 0 0 1 47.25703 40.213475l-71.71347-12.779295zm-219.36269.154687 24.31582 27.279493-71.687115 12.774025a208.44591 208.8 0 0 1 47.371295-40.053518zm45.95097 41.449218 40.20293 4.20293-53.0543 34.96641zm127.32012 0 12.85136 39.16934-53.05605-34.96641zm-145.24454 1.63477-17.11054 52.1543-32.30508 21.29238-22.798827-60.57774zm163.1672 0 72.21445 12.86894-22.79707 60.57949-32.30684-21.29413zm-81.5836 6.64101 84.68613 55.81406 23.55469 71.80313-23.55645 71.80488-84.68437 55.81407-84.68438-55.81407-23.55644-71.80488 23.55644-71.80313zm170.79433 7.93829a208.44591 208.8 0 0 1 23.82188 45.01757l-.36386.10898-45.59239 13.6881zm-341.4164.45878 21.96211 58.35587-45.497462-13.66173a208.44591 208.8 0 0 1 23.535352-44.69414zm-29.211328 59.93614 45.701367 13.72148-53.583399 35.31094a208.44591 208.8 0 0 1 7.882032-49.03242zm399.643948.007a208.44591 208.8 0 0 1 8.38476 49.34531l-54.06328-35.63083zm-92.94258 2.09355 18.24258 12.02344-7.63945 20.29746zm-213.73594.002-10.60136 32.31739-7.63946-20.2957zm-32.37539 21.33788 13.48946 35.84179-13.49122 35.84531-54.3832-35.84355zm278.48848 0 54.3832 35.84355-54.3832 35.84355-13.48945-35.84355zm-346.96055 46.08984 53.583399 35.31621-45.701367 13.72148a208.44591 208.8 0 0 1 -7.882032-49.03769zm415.43086.002a208.44591 208.8 0 0 1 -7.88203 49.03594l-45.70137-13.72173zm-325.18476 14.61621 10.60136 32.31914-18.24082-12.02167zm234.93866 0 7.63946 20.29747-18.24082 12.02167zm-248.46855 35.94531 32.30508 21.29238 17.11054 52.15606-72.214447-12.86895zm261.99844 0 22.79883 60.57949-72.21445 12.86895 17.11054-52.15606zm-279.65918.0544-21.96211 58.35586a208.44591 208.8 0 0 1 -23.535352-44.69409zm297.31992 0 45.49746 13.66172a208.44591 208.8 0 0 1 -23.53535 44.69414zm-225.17051 35.85937 53.05605 34.96641-40.20468 4.20293zm153.0211 0-12.85137 39.16934-40.20469-4.20293zm80.46914 40.5668a208.44591 208.8 0 0 1 -47.36777 40.05l-24.31582-27.27768 71.55175-12.74942zm-313.94883.0105 71.67304 12.76172-24.30175 27.2584-.0158.0194a208.44591 208.8 0 0 1 -47.35549-40.03942zm148.6916 9.09317v43.62715l-42.44414-39.19044zm16.55508 0 42.44414 4.43671-42.44414 39.19044zm-77.18027 9.9246 55.82812 51.54433a208.44591 208.8 0 0 1 -81.77168-22.44718zm137.80546 0 25.94356 29.09707a208.44591 208.8 0 0 1 -81.75059 22.44551z" fill="#aa5a09"/></svg>