<svg height="500" viewBox="0 0 132.29167 132.29167" width="500" xmlns="http://www.w3.org/2000/svg" xmlns:xlink="http://www.w3.org/1999/xlink"><linearGradient id="a" gradientUnits="userSpaceOnUse" x1="245.9008" x2="210.03792" y1="132.94347" y2="105.39191"><stop offset="0" stop-color="#6e4226"/><stop offset="1" stop-color="#784421" stop-opacity="0"/></linearGradient><path d="m45.14108 237.85881c-1.97776.0389-4.092839.69453-5.585354 1.40705-3.431911 1.66344-6.904832 4.79505-9.689572 8.57568-2.785004 3.7809-4.885002 8.19997-5.782204 12.26344-.89191 4.04071-.572558 7.60915.980281 10.07533l23.595014 31.18406c-.08546-.44344-.164042-.88953-.23204-1.33932-1.215496-8.02032.254529-17.06245 4.592109-25.39127 4.337314-8.32882 10.762456-14.44625 17.79614-17.59744 2.450042-1.09749 4.988189-1.83039 7.533481-2.15688l-29.116073-15.98877c-1.334559-.68131-2.696105-1.01336-4.091782-1.03188zm36.553776 21.68261c-2.91809-.0365-5.947833.6387-8.945563 1.98172-5.995458 2.68553-11.740885 8.07324-15.626027 15.53316-3.885142 7.4602-5.132917 15.50194-4.096809 22.33825 1.036109 6.83656 4.266936 12.37562 9.367309 15.38605 2.962804 1.74889 6.271419 2.47438 9.699096 2.25001-1.375039-3.36603-2.459302-6.79053-2.603765-10.40289 2.726267-5.2832 5.503863-10.5664 9.444303-15.84986 6.071129-1.91109 12.468225-1.19936 19.853011-.89694.984779-4.3934 1.146969-8.7286.550333-12.66375-1.036108-6.83657-4.266935-12.37562-9.367308-15.38631-2.550055-1.50522-5.356226-2.2532-8.274315-2.28971zm18.912684 35.00596-17.858319 1.02208 4.860131 16.35972 17.531288-.98293c-.64426-5.63959-2.70721-10.99555-4.5331-16.39887zm-21.342882 4.02034c-2.096294 2.58313-3.843337 5.37581-4.706144 8.69871.468842 5.08529 1.093788 10.15286 3.753115 14.99447l4.865688-7.9719zm45.968182 15.86177c-6.50981 2.97895-11.56203 6.20078-16.62166 9.42155l18.77087 14.73465 17.95463-12.79737c-6.00975-4.0169-12.60899-7.83696-20.10384-11.35909zm-21.79029 1.62772-16.432744.77258-4.876535 7.86395c5.213085-.26326 10.142008.18389 15.800123-1.19115 2.743726-2.4818 3.922186-4.96359 5.509156-7.44538zm3.9407 12.85902c-1.32768 5.07682-1.39118 10.40685-1.51606 15.72419 4.5503 6.26533 10.68493 9.67872 16.38909 13.86734l2.29076-16.46555zm37.6645 2.44025-15.60327 11.24426-2.3495 14.9479c5.14191-3.06387 10.00654-6.46033 13.91841-10.99978 2.18704-5.06413 3.04138-10.12826 4.03436-15.19238z" fill="#f00" stroke-width=".264583"/><g stroke-width=".997796" transform="matrix(1.0022096 0 0 1.0022096 -181.34016 -75.144145)"><path d="m206.99024 146.86149c3.93292 4.08039 8.72771 9.01153 11.74529 12.18837l-3.58102-17.03133c-1.01688-8.29981 1.0105-16.23913 4.09681-22.33824 3.88862-7.46719 9.71684-13.02094 15.63932-15.6743 2.05204-.91921 4.14192-1.5164 6.19141-1.7793l13.43555-1.87337-42.46655-23.567535c-.47045-.505032-2.60928-1.036957-4.71905-1.064954l-.0781-.0021-.0781.002c-2.96295.05826-5.49685.894281-7.54297 1.871094l-.0137.0059-.0117.0059c-4.40825 2.136664-8.28597 5.745258-11.44726 10.037109-3.15794 4.287183-5.52181 9.179171-6.59961 14.061546-1.07069 4.85166-.89812 9.66975 1.65624 13.72659zm36.89257-49.459146c-3.69381-.04607-7.40629.809413-10.95312 2.398437-7.12827 3.192929-13.56262 9.346899-17.90235 17.679689-4.33981 8.33325-5.78594 17.30846-4.58203 25.25195 1.19879 7.90996 5.11184 14.91068 11.65625 18.77344 3.8029 2.2448 8.13497 3.18152 12.42969 2.90039l.16797-.01.16601-.0234s3.07349-.41702 6.70899-1.31641c3.6355-.89938 7.8203-1.93149 11.26562-4.89062 4.50558-3.86977 7.10776-9.72194 9.22852-14.82227s3.41406-9.49023 3.41406-9.49023l.0449-.15235.0352-.15429c1.10662-4.93697 1.30484-9.84576.61133-14.41993-1.19879-7.90996-5.11201-14.91043-11.65625-18.77343-3.2724-1.931582-6.94099-2.905128-10.63477-2.951176z" fill="#502d16"/><path d="m260.91446 132.50491c.98478-4.39341 1.14697-8.7286.55034-12.66375-1.03611-6.83657-4.26694-12.37562-9.36731-15.38632-2.55006-1.50521-5.35623-2.25319-8.27445-2.28957-2.91822-.0364-5.94796.63884-8.94569 1.98186-5.99546 2.68552-11.74089 8.07323-15.62603 15.53316-3.88514 7.46019-5.13292 15.50194-4.09681 22.33824 1.03611 6.83657 4.26694 12.37562 9.36731 15.38605 2.9628 1.7489 6.27142 2.47439 9.6991 2.25002 0 0 11.38625-1.55403 15.51649-5.10143 6.25076-5.36868 11.17705-22.04826 11.17705-22.04826z" fill="url(#a)"/><g stroke-width=".997796"><path d="m994.90234 707.34766c-.86889 5.11383.55776 7.05174 3.43164 10.99804 9.94582 13.69442 20.48392 21.99062 31.89762 31.71293 12.8664 10.95969 26.869 19.76306 41.0125 29.81442 9.3894 4.00123 9.6934 2.4923 19.1309-.72266 15.6065-8.97307 30.0216-19.33706 44.0098-30.38904 9.4247-7.44639 18.8603-14.92575 26.7793-24.11096 6.5555-27.10923 29.7473-70.37456 18.6333-95.48294-1.6173-3.23285-4.8804-5.38002-7.7232-7.61276-23.6485-13.8613-55.0312-38.12769-78.3301-44.26172-4.9025-1.207-10.2398-1.26424-15.1464-.0742-18.7963 8.86232-52.4312 24.39014-64.9981 36.79297-2.9641 3.02113-4.7986 7.03696-6.468 10.92618-3.5607 8.29555-5.7655 17.17443-7.39084 26.05437-3.39451 18.54614-4.36968 36.39746-4.83842 56.35537z" fill="#7f744d" transform="scale(.26458334)"/><path d="m307.1758 173.98046-15.60327 11.24427-2.3495 14.9479c5.14191-3.06387 10.00654-6.46033 13.91841-10.99978 2.18704-5.06413 3.04138-10.12826 4.03436-15.19239z" fill="#bbad77"/><path d="m269.51131 171.54021c-1.32768 5.07683-1.39118 10.40686-1.51607 15.7242 4.55031 6.26533 10.68494 9.67872 16.38909 13.86734l2.29076-16.46555z" fill="#d9ca8c"/><path d="m270.73924 166.47503 18.77086 14.73465 17.95463-12.79737c-6.00975-4.01691-12.60899-7.83696-20.10384-11.35896-6.50981 2.97907-11.56203 6.20091-16.62165 9.42168z" fill="#e5dbb3"/></g><g stroke-width=".997796"><path d="m912.38672 505.0293c-6.43502 3.67997-9.90932 11.09523-14.01172 17.26953-8.30401 12.49791-17.00075 25.29646-21.23633 39.6914-.58337 1.98264-.67746 4.12048-.50195 6.17969 1.86115 21.83598 8.27479 43.3049 16.33594 63.6836 2.733 6.90907 4.41275 15.62672 10.73046 19.5371 6.33176 3.91907 14.88009 1.1625 22.32167.89199 20.49416-.74499 41.53969-.85942 61.13341-6.91347 2.81926-.87109 5.57951-2.22534 7.82422-4.14062 10.08768-8.60724 16.34738-20.90225 23.91018-31.79493 3.7979-5.47005 9.2609-10.34262 10.7636-16.83007 1.0769-4.64928-.7558-9.53206-1.625-14.22461-3.818-20.6115-8.8182-41.0961-15.7151-60.89115-2.072-5.94694-2.4815-13.69489-7.6683-17.26647-5.33166-3.67132-12.91938-1.05006-19.39277-1.03274-18.65397.0499-37.31328 1.33531-55.86621 3.27494-5.70047.59596-12.02667-.27947-17.0021 2.56581z" fill="#7f744d" transform="scale(.26458334)"/><path d="m265.5706 158.6812-16.43274.77258-4.87654 7.86395c5.21309-.26326 10.14201.18388 15.80013-1.19116 2.74373-2.48179 3.92218-4.96358 5.50915-7.44537z" fill="#bbad77"/><path d="m241.39271 141.19171c-2.09629 2.58313-3.84334 5.3758-4.70614 8.69871.46884 5.08529 1.09379 10.15285 3.75311 14.99446l4.86569-7.97189z" fill="#d9ca8c"/><path d="m262.73559 137.17137-17.85832 1.02208 4.86014 16.35972 17.53129-.98293c-.64426-5.63959-2.70722-10.99555-4.53311-16.39887z" fill="#e5dbb3"/></g><path d="m207.26913 80.482798c-1.97776.03889-4.09284.694531-5.58535 1.407054-3.43191 1.663436-6.90483 4.795044-9.68957 8.575676-2.78501 3.780896-4.885 8.199966-5.78221 12.263432-.89191 4.04072-.57255 7.60916.98029 10.07534l23.59501 31.18406c-.0855-.44345-.16404-.88953-.23204-1.33933-1.2155-8.02031.25453-17.06244 4.59211-25.39126 4.33731-8.32882 10.76245-14.44625 17.79614-17.597442 2.45004-1.097492 4.98819-1.830388 7.53348-2.156884l-29.11607-15.988771c-1.33456-.681302-2.69611-1.013354-4.09179-1.031875z" fill="#7e4b2a"/></g></svg>