<svg height="500" viewBox="0 0 500 500" width="500" xmlns="http://www.w3.org/2000/svg" xmlns:xlink="http://www.w3.org/1999/xlink"><radialGradient id="a" cx="115.69827" cy="67.621429" gradientTransform="matrix(-6.9551972 -6.3275617 4.6472824 -5.1082714 420.74009 1245.499)" gradientUnits="userSpaceOnUse" r="42.695023"><stop offset="0" stop-color="#f3f3f1"/><stop offset=".03125" stop-color="#eef3f4"/><stop offset=".0625" stop-color="#ebf5f7"/><stop offset=".09375" stop-color="#eef3f4"/><stop offset=".15625" stop-color="#e4ebee"/><stop offset=".1875" stop-color="#dce8ef"/><stop offset=".21875" stop-color="#e4ebee"/><stop offset=".28125" stop-color="#e1e4ef"/><stop offset=".3125" stop-color="#dbe0f0"/><stop offset=".34375" stop-color="#e1e4ef"/><stop offset=".40625" stop-color="#d8e3eb"/><stop offset=".4375" stop-color="#dbe7f1"/><stop offset=".46875" stop-color="#d8e3eb"/><stop offset=".53125" stop-color="#f4eaea"/><stop offset=".5625" stop-color="#f8e8e8"/><stop offset=".59375" stop-color="#f4eaea"/><stop offset=".65625" stop-color="#eee4e7"/><stop offset=".71426684" stop-color="#eedde2"/><stop offset=".76595175" stop-color="#eee4e7"/><stop offset=".8775022" stop-color="#f3f3f1"/><stop offset=".9375" stop-color="#f3f1f1"/><stop offset="1" stop-color="#f3f3f1"/></radialGradient><filter id="b" color-interpolation-filters="sRGB" height="1.004679" width="1.008362" x="-.004181" y="-.002339"><feGaussianBlur stdDeviation=".45255868"/></filter><g transform="translate(183.05789)"><path d="m188.38086.0078125c-2.06843-.03742726-4.13186.06198858-6.18164.32617188-11.78964 1.51948792-22.10558 8.73762752-32.46875 14.73632762-5.38105-1.263307-11.06347-2.067876-17.00586-2.132812-8.98038-.09813-21.74594-1.602458-34.041016 10.728516-4.965916 4.98033-13.064761 7.160001-24.427735 2.552734l-8.070312-3.271484-7.572266 4.296875c-24.117472 13.681032-31.388379 40.07367-28.447265 60.414062l4.160156 13.349607 4.158203 13.34766c3.523722 13.5085 13.059833 23.42782 24.474609 29.0293 17.893078 6.66706 35.35867 4.59589 53.373046-.66993.5756 5.04393 1.20285 9.1636.74609 11.6836-.69402 3.82914-3.93239 10.00935-8.33789 18.15234-4.40548 8.143-10.182443 18.9067-9.630855 32.9707.371646 9.47599 3.275945 18.20197 8.152345 25.72657l-.6582-.10938 11.40625 29.36133c1.68787 4.3446 2.71331 8.82568 3.05078 13.44336v.002c1.54009 21.04393-10.38496 45.71513-41.421878 63.71289l-.117188.0684-.273437.16211c-18.182509 9.82793-31.894225 23.83501-34.449219 41.40039l-6.216797 4.13672c-5.789997 3.85229-10.882714 8.02871-15.201172 12.70703l-.0039.002-.002.002c-8.035809 8.71255-13.326172 19.74869-13.326172 31.01562 0 11.26711 5.274828 22.31261 13.328125 31.04297 8.233117 8.92802 19.257155 16.20362 32.658203 22.34961 26.77584 12.28061 62.432255 19.4549 101.894575 19.4549 39.46043 0 75.13395-7.17194 101.91406-19.45312l.006-.002c13.41398-6.14872 24.42065-13.44396 32.63281-22.34961 8.03443-8.71107 13.35352-19.72411 13.35352-31.04101 0-11.3145-5.33395-22.31617-13.34961-31.00782-4.31184-4.67811-9.37491-8.82019-15.09766-12.64453l-6.21484-4.15234c-2.61377-18.13467-17.14176-32.22422-36.11133-42.09375l-.006-.004c-.012-.008-.0225-.0161-.0352-.0234l.25196.13671-.33399-.18945c-29.70009-17.2782-40.88106-41.84526-39.10742-63.1289v-.002c.39723-4.75568 1.46-9.36357 3.16016-13.76758l8.09765-26.84179-.01.002c5.76976-8.0226 9.15073-17.50058 9.66015-27.72852.68822-13.81743-4.69339-24.54929-8.85156-32.73242-4.15815-8.18312-7.27115-14.4333-7.94531-18.39062-.86342-5.06828 3.78231-16.49687 1.05078-33.32617.72138-1.86743 1.73665-4.59263 2.52734-6.94727 2.34037-6.96943 5.37391-14.646168 4.37891-25.761719-.55738-6.226703-2.28187-11.660265-4.51367-16.490234 10.27479-1.427087 22.97379-1.563372 35.26172.380859l47.67187 7.542969-31.0957-36.919922s-1.54677-1.546464-3.80859-3.683594l9.40653-1.505769-35.99219-25.494141c-3.0302-2.146425-6.38271-4.8434182-10.07422-6.2578121-8.36302-3.2042804-17.41182-5.95304962-26.375-6.1152344z" fill="#b2b1a1"/><path d="m182.1983.33461077c-12.59047 1.62270183-23.49891 9.76224223-34.58055 15.95500523-11.9004 6.650317-34.05358 22.648858-34.05358 22.648858l39.70181 9.814635c5.76722 1.425753 10.85614 3.225238 15.82679 5.677624.41671.205771.8715.436852 1.36268.69256l8.64517 4.500736 8.49216-4.781555c8.00477-4.506125 18.63643-8.230028 29.67882-9.997392l43.55051-6.970403-35.99229-25.494416c-3.0302-2.146428-6.38258-4.8436231-10.07409-6.2580184-10.29296-3.9437336-21.62524-7.1966128-32.55743-5.78763383z" fill="#b2b1a1"/><path d="m206.95312 22.353115c2.371 1.272168 4.86772 2.870553 7.47435 4.716951-13.069 2.091728-25.52379 6.378114-35.66241 12.085447-.56757-.295478-1.13451-.585455-1.70353-.866436-6.24624-3.082338-12.65033-5.322875-19.47649-7.010414 10.43071-6.937323 19.16726-11.834332 27.47467-13.17237 6.55327-1.055213 13.15609-.177578 20.88513 3.721913.33292.167708.66901.342679 1.00794.524736z" fill="#eae9e3" stroke-width=".805869"/><path d="m234.9348 26.128888c-5.25803-2.904232-11.16767-4.926181-17.1408-5.561116-6.56079-.697402-13.14503-.438655-19.72539.289307-9.55776 1.057341-19.10733 3.104567-28.56497 4.649615-4.64619.759025-13.7769 3.108978-13.7769 3.108978l-.25761 14.122793c-.18908 10.361451 4.78821 22.099025 13.03421 29.815439l8.61392 8.061856 10.82901-4.685806c10.07969-4.361 30.92576-6.616797 50.70125-3.487861l47.67336 7.543067-31.09677-36.920369s-12.57784-12.676533-20.28931-16.935903z" fill="#b2b1a1"/><path d="m226.67223 42.11672c.24998.129175.49821.261742.74655.398255 4.74687 2.605981 9.34064 6.566462 14.04079 12.146907-22.55526-3.568759-45.56043-1.785303-60.65904 4.747144-5.37017-5.025277-7.44591-10.273804-7.33516-16.342803 17.11204-3.862725 30.50388-6.447856 41.53797-4.714861 4.08479.641078 7.93044 1.82261 11.66905 3.765048z" fill="#eae9e3" stroke-width=".805869"/><path d="m66.552734 364.81641-27.970703 18.60937c-5.789997 3.85229-10.882714 8.02871-15.201172 12.70703l-.0039.002-.002.002c-8.035809 8.71255-13.326172 19.74869-13.326172 31.01562 0 11.26711 5.274828 22.31261 13.328125 31.04297 8.233117 8.92802 19.257155 16.20362 32.658203 22.34961 26.77584 12.2807 62.432255 19.45499 101.894575 19.45499 39.46043 0 75.13395-7.17194 101.91406-19.45312l.006-.002c13.41398-6.14872 24.42065-13.44396 32.63281-22.34961 8.03443-8.71107 13.35352-19.72411 13.35352-31.04101 0-11.3145-5.33395-22.31617-13.34961-31.00782-4.31184-4.67811-9.37491-8.82019-15.09766-12.64453l-19.11719-12.77539-9.9121-.30468c3.50235 4.84832 5.27734 9.85952 5.27734 14.80468 0 11.10877-8.85123 22.78658-26.125 32.05078-17.27462 9.26507-42.06943 15.36524-69.52734 15.36524-27.4579 0-52.25358-6.09931-69.527349-15.36524-17.274629-9.26334-26.126953-20.94006-26.126953-32.04882 0-6.80275 3.309838-13.7608 9.820313-20.24024z" fill="#b2b1a1"/><path d="m48.553335 398.41193c-4.814825 3.20347-8.830623 6.55333-11.946655 9.92903-5.941039 6.44137-8.55854 12.60718-8.55854 18.81175 0 6.20542 2.617501 12.39792 8.55854 18.83844 5.939317 6.44138 15.153955 12.78975 26.93271 18.19173 23.557511 10.80481 57.18896 17.81712 94.38934 17.81712 37.20123 0 70.85765-7.01231 94.41602-17.81712 11.78047-5.39939 20.96756-11.74949 26.90688-18.19087 5.94104-6.44138 8.58437-12.63302 8.58437-18.83758 0-6.2037-2.64333-12.36865-8.58437-18.80917-3.09709-3.36019-7.09308-6.68852-11.86486-9.87735-4.85443 13.43389-16.86222 24.72007-32.28826 32.99312-20.26238 10.86766-47.31047 17.30473-77.11555 17.30473-29.8042 0-56.87898-6.43621-77.14137-17.30387-15.446702-8.28424-27.455349-19.58851-32.288255-33.04565z" fill="#eae9e3" stroke-width=".805869"/><path d="m106.60352 231.13867 11.40625 29.36133c1.68787 4.3446 2.71331 8.82568 3.05078 13.44336v.002c1.54009 21.04393-10.38496 45.71513-41.421878 63.71289l-.117188.0684-.273437.16211c-20.191751 10.91395-34.917969 26.96717-34.917969 47.33985 0 20.67012 15.049161 36.88168 35.619141 47.9121 20.696481 11.10134 47.912341 17.50196 78.035161 17.50196 30.12431 0 57.33891-6.40369 78.03515-17.50391v.002c20.56843-11.03116 35.61719-27.24299 35.61719-47.91406 0-21.00019-15.5978-37.05705-36.57422-47.9707l-.006-.004c-.012-.008-.0225-.0161-.0352-.0234l.25196.13671-.33399-.18945c-29.70009-17.2782-40.88106-41.84526-39.10742-63.1289v-.002c.39723-4.75568 1.46-9.36357 3.16016-13.76758l8.09765-26.84179-38.72265 4.9707c-3.45977.85001-6.98232 1.33972-10.4375 1.33984-4.61414.00016-9.34946-.83775-13.88477-2.32812z" fill="#b2b1a1"/><path d="m182.1983 253.79439c-7.70441 1.32616-15.83761 2.04435-24.26957 2.04435-8.02041 0-15.77045-.65275-23.13992-1.85663 2.31614 5.96172 3.75404 12.21623 4.22416 18.649 2.11467 28.89492-14.67178 59.91257-50.343845 80.59817l-.133459.0801-.133458.0818c-17.273786 9.17381-26.07169 20.71575-26.07169 31.83661 0 11.10878 8.851287 22.78594 26.125934 32.04929 17.273788 9.26594 42.069448 15.36631 69.527368 15.36631 27.45794 0 52.25274-6.10123 69.52738-15.36631 17.27379-9.26421 26.12594-20.94137 26.12594-32.05015 0-11.30428-9.27577-22.95473-27.25559-32.21207l-.18942-.10763-.16015-.081c-34.73701-20.14567-50.5462-51.3898-48.13793-80.27611.539-6.45602 1.98897-12.75617 4.30511-18.75577z" fill="#eae9e3" stroke-width=".805869"/><path d="m112.72531 229.70819c-9.00147 6.42774-16.119142 15.55191-16.119142 27.53125 0 14.01998 9.567592 24.38008 20.750002 30.75976h.002c11.38169 6.49255 25.37887 9.85742 40.91992 9.85742 15.54104 0 29.53774-3.36377 40.91992-9.85742l.002-.002c11.18074-6.38029 20.74805-16.73979 20.74805-30.75977s-9.58403-24.37223-20.74805-30.74219z" fill="#b2b1a1"/><path d="m123.66086 243.76092c-6.09137 4.14581-9.05469 8.93794-9.05469 13.47852 0 5.14923 3.80642 10.63879 11.66992 15.125 7.86352 4.48564 19.30195 7.49218 32.00196 7.49218 12.69999 0 24.1365-3.00598 32-7.49218 7.86351-4.48732 11.66992-9.97772 11.66992-15.12696 0-4.53808-2.96032-9.32646-9.04492-13.4707-9.03865 8.73437-21.20751 14.16797-34.625 14.16797-13.41799 0-25.58219-5.43754-34.61719-14.17383z" fill="#eae9e3" stroke-width=".805869"/><path d="m116.33203 142.71484c.5756 5.04393 1.20285 9.1636.74609 11.6836-.69402 3.82914-3.93239 10.00935-8.33789 18.15234-4.40548 8.143-10.182443 18.9067-9.630855 32.9707.55254 14.08832 6.681005 26.53375 16.609375 35.8086 11.64478 10.87828 26.72451 16.41655 42.21094 16.41601 15.4866-.00053 30.5653-5.54189 42.20898-16.41992 9.99361-9.33645 15.91316-21.79575 16.60156-35.61719.68822-13.81743-4.69339-24.54929-8.85156-32.73242-4.15815-8.18312-7.27115-14.4333-7.94531-18.39062-.86342-5.06828 3.78231-16.49687 1.05078-33.32617l-18.79584-2.08985-15.67682-12.79297-32.23046 27.68164z" fill="#b2b1a1"/><path d="m117.09507 204.81641c.3368 8.5875 4.63168 17.49263 10.9118 23.35937 7.8145 7.30012 19.22858 11.57068 29.92242 11.57031 10.69371-.00037 22.10711-4.27195 29.92126-11.57226 6.27992-5.86697 10.48428-14.77591 10.9118-23.35938.82954-16.65497-13.7636-30.76628-16.56405-47.20507-2.1518-12.63118 3.21012-26.03494 0-38.43946-4.58747-17.72688-26.64702-48.03668-26.64702-48.03668s-17.22879 30.95446-20.76247 48.03668c-2.59561 12.5475 2.28514 25.83172 0 38.43946-2.997 16.53526-18.35231 30.41527-17.69374 47.20703z" fill="#eae9e3" stroke-width=".805869"/><path d="m200.99505 121.26026c.72138-1.86743 1.73632-4.59382 2.52702-6.94846 2.34037-6.96944 5.3735-14.64475 4.3785-25.760312-1.24237-13.878981-9.19127-25.350704-15.0947-32.990111-2.66464-3.448212-3.10235-9.879913-5.61273-14.366806-3.43255-6.135133-12.72595-16.818167-12.72595-16.818167-11.34995-5.703804-25.60555-11.263035-41.74214-11.439369-8.98039-.09813-21.74569-1.602224-34.040779 10.728762-4.965921 4.980335-13.065612 7.15988-24.428597 2.552608l-8.069308-3.271823-7.572475 4.297527c-24.117496 13.681046-31.388527 40.073995-28.44741 60.414407 0 0 2.772918 8.898963 4.159378 13.348444 1.386459 4.44948 4.159378 13.34844 4.159378 13.34844 3.523726 13.50851 13.058102 23.4282 24.47289 29.02968 18.327895 6.82908 34.893689 4.88051 53.373903-.67024 5.8253-1.7497 12.64862-5.04184 17.95899-8.65625 11.31485-7.70127 21.70814-18.51714 32.23144-27.682 6.77132-13.6619 14.46559-39.668211 16.13682 14.88367z" fill="#b2b1a1"/><path d="m166.52246 106.37659c3.8395-9.475678 3.19541-20.869712.29272-31.206903-.38133 12.724833-.81354 18.119131-8.15396 24.772402-26.39907 23.302391-67.496587 34.697861-87.885207 27.346001-.318722-.15158-.650938-.33984-.993612-.55644-6.002033-2.67488-11.509274-7.8267-13.881333-16.92018l-1.158277-4.44059s6.208165 5.21761 9.755697 7.12157c2.478806 1.33037 5.444739 4.27688 7.914742 2.93023 1.782593-.97187 1.349394-4.03897 1.316833-5.94689l-3.947662-15.913518 14.030592 12.814318c1.830563 1.74616 7.288511 6.35413 10.400783 4.26695 2.721671-1.82523-.288575-8.35612 0-9.83111l-4.489916-14.354638 12.23777 7.441871c3.61249 1.386551 8.20926 6.608207 11.60254 4.269657 2.69168-1.855028.79768-8.046901.11121-9.806327l-5.90512-10.045754 12.31795 4.462224s6.46086 2.359671 8.90031.657089c1.70791-1.192012 2.29982-4.008011 1.71726-6.007627-1.32943-4.563207-6.14781-7.993523-10.66894-9.459697-5.3263-1.727286-13.16749.529283-16.71717 1.647062-3.19789 1.00625-5.547247 3.686798-6.804849 7.249515-2.522123-2.292641-5.519632-3.575884-8.687841-3.43904-4.152116.179616-7.800587 2.758816-10.3346 6.77353-3.397835-6.172388-8.728206-10.074349-14.556211-9.822382-6.875729.297145-12.555529 6.290072-14.9557 14.704879-2.266725-15.676389 1.649676-32.048305 19.512591-42.181339 16.766349 6.798137 33.3906 4.051351 43.93521-6.523871 4.56879-4.582128 13.83708-5.520697 21.10013-5.441329 11.7236.128111 24.00897 4.575442 33.85857 9.525258-.81018 9.519419 2.69859 18.74573 11.44131 25.971813 0 0 1.32018.868768 1.79468 1.482798 4.99992 6.47021 9.62065 14.0963 10.34969 22.2407.90043 10.059118-7.31337 31.103438-7.31337 31.103438" fill="#eae9e3" stroke-width=".805869"/><path d="m180.30149 17.882812c-1.6613.005-3.30311.14831-4.94141.41211-4.3469.700147-8.81836 2.393048-13.58203 4.826172 1.0074.480117 2.02228.959865 2.98828 1.445312 0 0 .18097.212978.20117.236328 7.76507-1.373184 15.57832-2.890532 23.40039-3.755859 1.6034-.17738 3.20705-.324833 4.81055-.439453-4.5798-1.909664-8.78898-2.737347-12.87695-2.72461zm-57.47266 13.242188c-7.26307-.0794-16.53279.859301-21.10156 5.441406-10.544575 10.57518-27.167348 13.3235-43.933597 6.525391-17.862849 10.13299-21.780366 26.503355-19.513672 42.179687 2.400191-8.414773 8.081252-14.407938 14.957031-14.705078 5.827982-.251967 11.156799 3.651857 14.554687 9.824219 2.533994-4.014698 6.18385-6.59382 10.335938-6.773437 3.168191-.13684 6.165409 1.144866 8.6875 3.4375 1.257597-3.562701 3.606799-6.2418 6.804687-7.248047 3.549691-1.117767 11.390526-3.375722 16.716796-1.648438 4.5211 1.466167 9.34052 4.89775 10.66992 9.460938.5826 1.999614-.011 4.815795-1.71875 6.007812-2.43947 1.702574-8.90039-.658203-8.90039-.658203l-12.316404-4.462891 5.904294 10.046875c.6864 1.759417 2.58035 7.951617-.11132 9.806641-3.3933 2.338545-7.989179-2.882987-11.601567-4.269531l-12.238282-7.44336 4.490235 14.355466c-.2886 1.47498 2.721691 8.00485 0 9.83008-3.112291 2.08718-8.57185-2.51949-10.402344-4.26562l-14.029297-12.814457 3.947266 15.914067c.033 1.90789.46619 4.97344-1.316407 5.94531-2.469991 1.34665-5.437224-1.59932-7.916015-2.92969-3.547491-1.90396-9.753906-7.12109-9.753906-7.12109l1.158203 4.43945c2.372091 9.09344 7.878777 14.247 13.880859 16.92188.3427.21657.675441.40506.994141.55664 20.388537 7.35183 61.485754-4.04536 87.884764-27.34766 7.34037-6.653242 7.7729-12.046704 8.1543-24.771485 2.9027 10.33715 3.54653 21.731383-.29297 31.207035-10.52077 9.16265-20.91294 19.97491-32.22461 27.67578.6139 7.88976 1.88713 15.84964.49023 23.55664-2.99697 16.53517-18.35195 30.41535-17.69335 47.20703.33677 8.58745 4.63203 17.49268 10.9121 23.35937 1.95194 1.82345 4.12916 3.45675 6.4629 4.88282.004.003.009.005.0137.008.94545.57726 1.93129 1.09787 2.92383 1.60547.9707.48632 1.95696.94758 2.96289 1.36523 5.49558 2.28172 11.45506 3.51974 17.20898 3.51953 10.69367-.00037 22.10774-4.27199 29.92188-11.57226.43789-.40913.84065-.86517 1.25781-1.30274l.55078-.0195c5.4533-5.82446 9.0602-13.95837 9.45312-21.84765.8296-16.6549-13.76405-30.76638-16.56445-47.20508-2.0322-11.9288 2.62752-24.54487.44922-36.35938l.0117.01s8.2129-21.04444 7.3125-31.103517c-.729-8.144376-5.34974-15.770055-10.34961-22.240234-.4745-.61403-1.79492-1.482422-1.79492-1.482422-8.74268-7.226509-12.25162-16.453726-11.44142-25.973106-9.84957-4.949795-22.13385-9.397281-33.85742-9.525391zm74.16601 6.871094c-5.98767.0745-12.63989 1.025487-20.07226 2.464844.1835.303437.41071.638528.57031.923828 2.5104 4.486875 2.94871 10.917033 5.61328 14.365234 0 .003.01.0068.01.0098 14.01394-3.230721 31.45584-3.628145 48.64648-.908204-4.70007-5.580412-9.29424-9.54052-14.04101-12.146484-.2484-.13652-.49805-.26927-.74805-.398437-3.7386-1.942434-7.58327-3.124548-11.66797-3.765625-2.0689-.32493-4.22114-.497703-6.46484-.539063-.6076-.0112-1.22245-.01346-1.84375-.0059zm-86.01464 207.756296c-6.09136 4.1458-6.42286 6.94727-6.42286 11.48784 0 5.14923 3.80643 10.6388 11.66993 15.125 7.86351 4.48564 19.30195 7.49219 32.00195 7.49219 12.69998 0 24.13651-3.00599 32-7.49219 7.8635-4.48731 11.66992-9.97771 11.66992-15.12695 0-4.53807-.66922-7.61808-6.75381-11.76231-9.03864 8.73436-23.49863 12.45958-36.91611 12.45958-13.41798 0-28.21403-3.44688-37.24902-12.18316zm59.04589 49.66167c-6.80195 1.6177-14.10971 2.44336-21.79687 2.44336-7.4368 0-14.51463-.77987-21.12695-2.29492-5.70653 21.57728-21.73394 42.5472-48.132816 57.85547l-.134766.0801-.132812.082c-17.273749 9.17378-26.072266 20.71707-26.072266 31.83789 0 11.10873 8.852407 22.78552 26.126953 32.04883 17.273749 9.2659 42.069607 15.36523 69.527347 15.36523 27.45791 0 52.2528-6.10019 69.52734-15.36523 17.27374-9.26417 26.125-20.94207 26.125-32.05078 0-11.30424-9.27414-22.95363-27.25391-32.21094l-.18945-.10742-.16015-.082c-25.74373-14.93-41.06523-35.95765-46.30665-57.60156zm-132.826167 104.34766c-4.070088 2.84997-7.549278 5.79719-10.292969 8.76953-5.940982 6.44133-8.558594 12.60599-8.558594 18.81055 0 6.20539 2.617612 12.39738 8.558594 18.83789 5.939282 6.44135 15.152976 12.79139 26.93164 18.19336 23.557431 10.80477 57.190346 17.8164 94.390626 17.8164 37.20098 0 70.85768-7.01163 94.41602-17.8164 11.78037-5.39938 20.96693-11.75007 26.90625-18.19141 5.941-6.44135 8.58398-12.63337 8.58398-18.83789 0-6.20367-2.64298-12.3681-8.58398-18.80859-2.7229-2.9542-6.17819-5.87719-10.20704-8.70899-5.143 13.90862-17.50892 25.18219-33.02539 33.50391v-.002c-20.69614 11.10019-47.91094 17.50391-78.03515 17.50391-30.12261 0-57.338822-6.40065-78.035159-17.50195-15.542255-8.33433-27.920446-19.62993-33.048828-33.56836z" fill="url(#a)" filter="url(#b)" opacity=".75" transform="translate(10.048828)"/><path d="m152.32236 54.713325c-9.53535-4.995892-17.41008-4.014968-22.30155 7.707949 11.65187 7.539366 20.72519 3.539122 29.15251-3.35118-2.36112-1.731187-4.65025-3.203245-6.8508-4.35625z" fill="#b2b1a1"/></g><g transform="translate(-288.89397 -92.302685)"><path d="m399.99219 200.09766c-27.97765 0-50.5293 23.59432-50.5293 51.56054 0 7.86868 1.78646 15.39003 4.97656 22.13672v1.1836c-9.00146 6.42773-16.11914 15.55192-16.11914 27.53125 0 14.01996 9.5676 24.38009 20.75 30.75976h.002c2.58158 1.47264 5.30438 2.77578 8.14257 3.92383l1.33594 3.52734c.85919 2.26854 1.37426 4.58511 1.54492 6.98047v.002c.78868 11.05427-5.17248 24.81969-23.02929 35.44141l-.1211.0723-.1582.0977c-11.65204 6.51082-21.41772 16.06162-24.27344 28.51758l-1.71679 1.17188c-4.01629 2.74103-7.62332 5.75723-10.77344 9.25781l-.004.002-.002.004c-5.81117 6.4628-10.01748 15.26354-10.01748 24.21653 0 8.95102 4.18888 17.74933 10.01562 24.23046 6.00644 6.68205 13.64758 11.76404 22.72657 16.03516 18.12826 8.52894 41.44571 13.25 67.25 13.25 25.80291 0 49.12929-4.71835 67.26172-13.24805l.004-.002c9.09086-4.27447 16.72136-9.37299 22.70703-16.03125 5.80989-6.46163 10.03506-15.23264 10.03506-24.23432 0-9.00181-4.2409-17.77159-10.03516-24.21485-3.1491-3.5037-6.7345-6.49059-10.69726-9.20703l-1.7168-1.17773c-2.9306-12.87531-13.25354-22.47867-25.36328-29.00196-.0135-.008-.0236-.0173-.0371-.0254l.11914.0664-.15625-.0918c-16.89909-10.086-22.49407-23.69908-21.57617-35.00195v-.002c.20545-2.52209.75201-4.94924 1.62305-7.26367l1.38867-3.6914c2.557-1.06993 5.01878-2.26596 7.36328-3.60352l.002-.002c11.18073-6.38029 20.74805-16.7398 20.74805-30.75977 0-12.17763-7.23298-21.58423-16.44922-28.02148 3.40127-6.92348 5.32422-14.68557 5.32422-22.82813 0-27.97744-22.56728-51.56054-50.54492-51.56054z"/><path d="m348.94531 393.79492-28.14844 19.20899c-4.01629 2.74104-7.6233 5.75723-10.77343 9.25781l-.004.002-.002.004c-5.81127 6.46308-10.01744 15.26366-10.01744 24.21665 0 8.95103 4.18887 17.74933 10.01562 24.23047 6.00644 6.68205 13.64757 11.76404 22.72657 16.03516 18.12828 8.52895 41.44569 13.25 67.25 13.25 25.80294 0 49.12928-4.71834 67.26172-13.24805l.004-.002c9.09087-4.27447 16.72135-9.37298 22.70703-16.03125 5.80999-6.46169 10.03506-15.23264 10.03506-24.23433 0-9.00181-4.2409-17.77157-10.03516-24.21484-3.14911-3.5037-6.73449-6.49059-10.69726-9.20703l-19.35742-13.26953z"/><path d="m347.49023 382.91218c-14.2196 7.74641-25.84765 19.96566-25.84765 36.42187 0 16.51412 11.58789 28.69955 25.81445 36.52539 14.35533 7.89891 32.5018 12.17969 52.57031 12.17969 20.0689 0 38.21191-4.28238 52.56641-12.17969 14.22598-7.82624 25.81641-20.00978 25.81641-36.52539 0-16.84506-12.09232-28.94793-26.4541-36.58399-16.74188-10.00399-22.33684-23.61705-21.41894-34.92093.20545-2.5231.75201-4.95024 1.62305-7.26467l11.50194-38.05665-86.73928 3.57889 11.62795 34.634c.77208 2.29965 1.37426 4.58511 1.54492 6.98147.78868 11.05528-5.17246 24.82068-23.02929 35.44241"/><path d="m354.43945 274.97852c-9.00147 6.42774-16.11914 15.55191-16.11914 27.53125 0 14.01998 9.56759 24.38008 20.75 30.75976h.002c11.38169 6.49255 25.37887 9.85742 40.91992 9.85742 15.54104 0 29.53774-3.36377 40.91992-9.85742l.002-.002c11.18074-6.38029 20.74805-16.73979 20.74805-30.75977s-9.58403-24.37223-20.74805-30.74219z"/><path d="m399.99219 200.09766c-27.97768 0-50.5293 23.59429-50.5293 51.56054 0 27.96661 22.56276 51.54688 50.5293 51.54688 27.96653 0 50.54492-23.56976 50.54492-51.54688 0-27.97747-22.56725-51.56054-50.54492-51.56054z"/><g fill="#393c45" stroke-width="36"><path d="m324.57422 433.08984c-.40293.40325-.80752.808-1.17188 1.21289-3.75047 4.17114-5.40234 8.16385-5.40234 12.18165 0 4.01833 1.65187 8.02668 5.40234 12.19726 3.7494 4.17114 9.56622 8.28318 17.00196 11.78125 14.87147 6.99669 36.10389 11.53711 59.58789 11.53711 23.48452 0 44.7315-4.54042 59.60351-11.53711 7.43683-3.49639 13.23498-7.60816 16.98438-11.7793 3.75048-4.17113 5.41992-8.18143 5.41992-12.19921 0-4.01723-1.66944-8.00912-5.41992-12.17969-.35024-.38979-.73879-.77795-1.125-1.16602-4.32155 9.68323-12.94351 17.26454-22.86133 22.72071-14.35449 7.8973-32.49753 12.17968-52.56641 12.17968-20.06849 0-38.21499-4.28078-52.57031-12.17968-9.93488-5.46505-18.56924-13.06294-22.88281-22.76954z"/><path d="m412.5957 346.36914c.11247-1.38182.31173-2.74518.54883-4.10156-4.2373.56473-8.62668.85937-13.15234.85937-4.27797 0-8.43343-.26454-12.45508-.76953.2278 1.34251.41606 2.69433.51367 4.06446 1.33495 18.711-9.26206 38.79637-31.78125 52.1914l-.084.0527-.084.0527c-10.90467 5.94053-16.45898 13.41389-16.45898 20.61523 0 7.19354 5.58699 14.75541 16.49219 20.75391 10.90464 6.00019 26.55883 9.95117 43.89257 9.95117 17.33375 0 32.98543-3.95154 43.89063-9.95117 10.90466-5.99906 16.49219-13.56038 16.49219-20.75391 0-7.32012-5.85471-14.86476-17.31543-20.91992-22.03926-13.10594-32.01933-33.3395-30.49903-52.04492z"/><path d="m365.375 289.03125c-6.09137 4.14581-9.05469 8.93794-9.05469 13.47852 0 5.14923 3.80642 10.63879 11.66992 15.125 7.86352 4.48564 19.30195 7.49218 32.00196 7.49218 12.69999 0 24.1365-3.00598 32-7.49218 7.86351-4.48732 11.66992-9.97772 11.66992-15.12696 0-4.53808-2.96032-9.32646-9.04492-13.4707-9.03865 8.73437-21.20751 14.16797-34.625 14.16797-13.41799 0-25.58219-5.43754-34.61719-14.17383z"/><path d="m399.99158 218.09683c-18.01429 0-32.52813 14.95699-32.52813 33.56205 0 18.60507 14.51438 33.54533 32.52867 33.54533s32.54497-14.94026 32.54497-33.54533c0-18.60506-14.53123-33.56205-32.54551-33.56205z"/><path d="m412.5957 346.36914c.11247-1.38182.31173-2.74518.54883-4.10156-4.2373.56473-8.62668.85937-13.15234.85937-4.27797 0-8.43343-.26454-12.45508-.76953.2278 1.34251.41606 2.69433.51367 4.06446 1.33495 18.711-9.26206 38.79637-31.78125 52.1914l-.084.0527-.084.0527c-10.90467 5.94053-16.45898 13.41389-16.45898 20.61523 0 7.19354 5.58699 14.75541 16.49219 20.75391 10.90464 6.00019 26.55883 9.95117 43.89257 9.95117 17.33375 0 32.98543-3.95154 43.89063-9.95117 10.90466-5.99906 16.49219-13.56038 16.49219-20.75391 0-7.32012-5.85471-14.86476-17.31543-20.91992-22.03926-13.10594-32.01933-33.3395-30.49903-52.04492z"/></g></g></svg>