<svg height="500" viewBox="0 0 132.29167 132.29167" width="500" xmlns="http://www.w3.org/2000/svg" xmlns:xlink="http://www.w3.org/1999/xlink"><linearGradient id="a" gradientTransform="matrix(.31103553 0 0 .31103553 -20.191373 59.807722)" gradientUnits="userSpaceOnUse" spreadMethod="reflect" x1="1454.8268" x2="1488.8981" xlink:href="#b" y1="39.519238" y2="150.06116"/><linearGradient id="b" gradientTransform="matrix(391.593 0 0 -391.593 60.7962 7618.49)" gradientUnits="userSpaceOnUse" spreadMethod="pad" x1="0" x2="1" y1="0" y2="0"><stop offset="0" stop-color="#9f571d"/><stop offset=".511236" stop-color="#fde791"/><stop offset="1" stop-color="#b7671e"/></linearGradient><linearGradient id="c" gradientUnits="userSpaceOnUse" spreadMethod="reflect" x1="455.95776" x2="458.42206" y1="52.037079" y2="75.931732"><stop offset="0" stop-color="#e01f2f"/><stop offset=".25" stop-color="#e01f2f" stop-opacity=".81761"/><stop offset=".5" stop-color="#e01f2f" stop-opacity=".710692"/><stop offset=".75" stop-color="#e01f2f" stop-opacity=".641509"/><stop offset="1" stop-color="#e01f2f" stop-opacity=".949686"/></linearGradient><radialGradient id="d" cx="441.02713" cy="82.878212" gradientTransform="matrix(.44131638 .78272963 -.68776855 .39069663 311.96067 -297.2394)" gradientUnits="userSpaceOnUse" r="25.749695" spreadMethod="reflect" xlink:href="#b"/><g><g id="e" stroke-width="1.08518" transform="matrix(.92323748 0 0 .91977982 -222.14531 2.474577)"><path d="m456.04687 45.792969c-3.36263-.100912-6.66762 1.778464-8.15039 4.982422l-18.47656 39.90039v.002c-1.9724 4.268966-.086 9.466089 4.17774 11.460939h.004l19.42383 9.06446-.008.008 6.69531 3.11133.008.004c4.26695 1.98304 9.48132.0685 11.45899-4.20117v-.002l18.47851-39.898444.002-.0039c1.96946-4.264576.084-9.464773-4.18555-11.457031l-.004-.002-26.10742-12.183594c-1.0681-.498316-2.19553-.751519-3.31641-.785156z" fill="#981a25" stroke-linecap="round"/><path d="m461.89829 109.63862-26.10964-12.181716c-1.72757-.808266-2.48123-2.872164-1.67728-4.612188l18.47509-39.898075c.80395-1.737175 2.86295-2.491591 4.59208-1.684879l26.10963 12.185081c1.73067.806453 2.48123 2.870611 1.67909 4.607528l-18.47767 39.898079c-.80472 1.73821-2.86244 2.49003-4.59156 1.68643z" fill="url(#d)" stroke-width="10.3363"/><path d="m461.89829 109.63862-26.10964-12.181716c-1.72757-.808266-2.48123-2.872164-1.67728-4.612188l18.47509-39.898075c.80395-1.737175 2.86295-2.491591 4.59208-1.684879l26.10963 12.185081c1.73067.806453 2.48123 2.870611 1.67909 4.607528l-18.47767 39.898079c-.80472 1.73821-2.86244 2.49003-4.59156 1.68643z" fill="url(#c)" stroke-linecap="round" stroke-width="10.3363"/><g opacity=".9"><g id="f"><path d="m458.48826 98.078109c2.15131-1.197366 3.95702-3.500177 3.50781-6.726563l-.0664-.478515-.41797-.248047c-1.88913-1.117209-2.72942-2.792991-2.51367-4.412109.1806-1.355382-.55135-2.593773-1.6709-3.774415-.50035-.477781-1.05385-.757351-1.53809-1.167993 1.03758-.605205 1.02475-1.866356.81055-2.795922-.47824-2.048354-1.86952-3.737033-3.51101-4.553755-1.23247-.55473-2.48158-.822917-3.83286-1.191873.52857.877065 1.21727 1.811631 1.50563 2.72799-.70132-1.186929-1.75114-2.094131-2.85938-2.607422-1.88946-.727964-3.51475-.648928-5.56799-.749876 1.17327.942839 2.23782 2.229395 3.12305 3.269532-1.98072-.212892-4.04446.167123-4.8318.980044l-8.21715 13.912028c-.385 6.758285.28759 7.416272 3.71434 9.521546l12.20766 4.943801c-1.48963-3.77895-5.07979-7.394107-6.11133-10.486326-.76049-2.627707-.40224-5.690284.5625-7.519531.53593-1.052837 2.10129-2.436671 3.14767-1.507431.14462.288423.0935.607078.0633.925395-.19395 2.816473.3945 5.746279 1.40234 8.173828.86597 2.085718 1.96385 3.805998 3.45504 4.68652 1.89181.813569 3.20062.727923 4.72848.08886.99835-.258788 1.95715-.616417 2.91018-1.009766z" fill="#815737" opacity="1" stroke-width="1.08518"/><path d="m453.12109 79.328588c3.00016 2.573856 3.13744.130893 1.78885-2.468441-.94693-1.424944-2.03228-2.039828-3.47354-2.494071.87513 1.621814 1.45624 3.360456 1.68469 4.962512zm-8.13808-6.092659c2.30209 2.19467 4.05198 4.889705 4.6091 7.109911 1.00861.170986 1.76311-.04127 2.42307-.564451-1.02191-2.218187-1.86996-3.917256-2.99474-4.991987-1.14456-1.066194-2.66158-1.478422-4.03743-1.553473zm1.42913 30.130561s-1.89785-3.373342-2.91754-4.921295c-.82876-1.258123-1.81696-2.461428-2.24045-3.924725-1.67488-5.787182 1.41993-13.000876 5.87383-9.791849.60441-.553268 1.47446-1.758363 1.47446-1.758363s-.78255 2.411425-1.60704 3.237208c-.18083 2.62594.37806 5.432332 1.32784 7.720024.81608 1.965558 1.9207 3.548193 2.98073 4.177307 1.71691.733587 2.44114.659581 3.88563.05539-.30441-.496495-.81302-.942476-1.01505-1.457857-.11319-.317927.0822-.545443.27096-.686844l.96337-.70909-1.18396-.188882c-.34747-.05547-.77165-.542401-.88514-1.049778-.0934-.456175.0753-.832975.44529-.907467l1.26476-.240661-1.09826-.677276c-.45859-.282886-.64431-.696495-.65258-1.033674-.009-.337112.11635-.541476.36849-.613658l.83464-.239135-.62805-.602938c-.29039-.344574-.37809-.699535-.0709-.926767.58492.133755 1.04241.463748 1.21948.950528.1596.438471.0627.923841-.2237 1.362896.46624.08601.86134.309517 1.11432.67151.33152.474436.35597 1.095247.12761 1.713551.96825-.143762 1.84929.117399 2.31464.78333.54903.785624.36867 1.918418-.3563 2.892358 1.92071-1.069021 3.39506-2.880616 3.00116-5.709753-2.16845-1.282394-3.27212-3.352773-2.99805-5.409544.11875-.891185-.38407-1.875723-1.38638-2.933652-1.2225-1.165222-2.39732-2.157603-3.71412-2.802087-1.54251.999892-2.68872 1.189132-4.14785.847185-.44597-1.846933-1.42539-3.575351-2.34178-4.822535-2.01363-.557743-4.23178-.183173-5.81937 1.457111l-9.38093 18.506939zm7.14441-17.149524c-1.81742-.65422-2.14395-1.994612-2.09711-3.506964.74732.24144 1.50763.510353 2.06524 1.07615.55773.565651.64993 1.356408.0319 2.430814z" fill="url(#a)" opacity="1" stroke-width="10.3363"/></g><use transform="matrix(-1 0 0 -1 919.07822 160.902676)" xlink:href="#f"/></g><path d="m456.04674 45.793064c-3.36263-.100912-6.66747 1.778396-8.15024 4.982351l-18.47671 39.900386v.0022c-1.9724 4.268962-.0859 9.466019 4.17783 11.460869h.004l19.42377 9.06408-.008.008 6.6955 3.11088.008.004c4.26695 1.98304 9.48114.0688 11.45881-4.20084v-.002l18.47895-39.898134.002-.0039c1.96945-4.264571.0839-9.464679-4.18567-11.456935l-.004-.0022-26.10752-12.183388c-1.06809-.498315-2.19552-.751808-3.3164-.785445zm-.20206 5.147531c.44875.01557.90155.119691 1.33384.321369l26.10975 12.185074c1.73067.806452 2.48133 2.870692 1.67919 4.607607l-18.47783 39.897575c-.80471 1.73821-2.86235 2.49023-4.59147 1.68663l-26.10975-12.181703c-1.72757-.808265-2.4809-2.872641-1.67696-4.612664l18.47503-39.897576c.60297-1.30288 1.91194-2.053034 3.2582-2.006312z" fill="#981a25" stroke-linecap="round"/></g><g><use id="g" stroke-width="1.18856" transform="matrix(1.197529 .13875408 -.45717003 .53814111 -115.43555 45.316909)" xlink:href="#e"/><use transform="translate(-.000003 -5.239341)" xlink:href="#g"/><use transform="translate(-.000003 -10.478682)" xlink:href="#g"/><use transform="translate(0 -15.718023)" xlink:href="#g"/></g><g><use transform="matrix(.29002619 -.95701871 .95701871 .29002619 -99.921058 238.663631)" xlink:href="#e"/><use transform="matrix(.42399848 -.9056629 .9056629 .42399848 -116.661756 207.152519)" xlink:href="#e"/><use transform="matrix(-.73910264 .67359282 -.67359282 -.73910264 238.012591 -48.393082)" xlink:href="#e"/><use transform="matrix(.82675232 -.56256608 .56256608 .82675232 -145.553738 98.099375)" xlink:href="#e"/><use transform="matrix(.90682562 -.42150598 .42150598 .90682562 -138.38984 64.634068)" xlink:href="#e"/></g></g></svg>