<svg height="500" viewBox="0 0 132.29167 132.29167" width="500" xmlns="http://www.w3.org/2000/svg" xmlns:xlink="http://www.w3.org/1999/xlink"><filter id="a" color-interpolation-filters="sRGB" height="1.234609" width="1.294996" x="-.147498" y="-.117305"><feGaussianBlur stdDeviation="2.1582047"/></filter><g stroke-width="1.18365" transform="matrix(.8448433 0 0 .8448433 -147.45522 -.933427)"><use fill="#ffbf00" fill-opacity=".501961" xlink:href="#b"/><path d="m255.6242 48.275606c-1.12727.01132-2.2798.477674-2.97761 1.386409-.74282.932953-.90363 2.17311-.89182 3.329784-.0291 3.656645.74509 7.269512 1.8366 10.743176.88038 2.806206 1.92655 5.55619 2.91546 8.325229 1.34742-5.282994 2.80012-10.56545 3.4503-15.991174.14981-1.313323.27257-2.632808.29067-3.955068-.002-.937353-.40902-1.855595-1.09563-2.492616-.92936-.89571-2.245-1.365237-3.52797-1.34574zm-20.65456 7.127733c-.75254.01696-1.49875.340436-1.98231.925523-.51142.606666-.63801 1.443162-.61775 2.21343-.008.434411.28691.783164.46015 1.15996 1.87136 3.497961 4.51354 6.564019 7.6339 9.006657 3.14709 2.480385 6.74 4.343205 10.46728 5.786353.31179.124691.62358.249381.93538.374071-1.21243-2.705592-2.35923-5.441842-3.67415-8.099883-1.34731-2.687249-2.89753-5.331902-5.06095-7.449997-1.83499-1.804538-4.14658-3.133479-6.64846-3.751268-.49572-.11176-1.00383-.185807-1.51309-.164846z" fill="#f6f5f4"/><path d="m250.72114 81.445676c-3.00478 1.871381-5.8293 4.179746-7.74616 7.195499-.21942.349177.0315.805539.0227 1.202628.11946.283701-.0829 1.13233.39096.794368 2.62564-1.118334 5.08836-2.651162 7.1423-4.642568.51324-.490535 1.00468-1.003786 1.47435-1.536156-.33523-1.132076-.4674-2.309144-.54879-3.482993-.24512.156403-.49024.312834-.73537.469222z" fill="#800c00"/><path d="m1089.8799 267.89453c-26.7884 8.3303-54.8063 12.94376-80.9326 23.26563-2.0817-.9549-4.4186-1.47184-6.8711-1.53125-.423-.01-.8481-.006-1.2774.01-2.44616.0936-4.97644.63016-7.45505 1.59766-1.19501-1.2789-2.5245-2.42542-3.96484-3.41992-2.43538-1.6776-5.17027-2.94161-8.2168-3.81641 7.04519-27.6687 15.57861-56.08664 16.64062-85.40234.30388-8.24094-2.99717-16.20596-9.04101-21.81641-5.57998-5.1543-12.75516-7.98288-20.10547-8.45898-.91801-.0589-1.84553-.0806-2.77344-.0625-6.49527.1287-13.11581 2.20641-18.44922 6.79101-6.09479 5.238-9.93665 13.65428-10.10937 23.76758-.17462 10.1997.94294 19.7693 2.82031 28.9043-8.5869-12.4398-19.74172-23.20637-35.48633-29.16797-5.6736-2.1474-11.03691-3.06265-15.8789-2.96094-8.073.1692-14.70299 3.167-18.92578 8-6.75723 7.7337-8.05005 17.59253-3.95508 25.74023 15.30092 30.44431 41.94153 51.59655 76.15234 65.06055-16.7238 10.1997-31.34742 22.68319-40.48242 41.36719l-23.26172 31.09766-32.73242-9.98438-4.72656 15.49805 43.61328 13.29883 21.21094-28.34961 2.73632 29.875-33.68164 8.39648 3.91797 15.71875 47.16406-11.75781-3.86523-42.1875c14.91122-5.9706 26.88711-14.09071 36.51172-23.62891 1.53271 1.6002 3.24687 3.0181 5.15039 4.1836l3.32226 32.95507-23.32226 3.88282 2.66015 15.98046 38.30079-6.37695-4.41016-43.76562c1.09308-.30516 2.16092-.69844 3.19141-1.17383l18.51954 29.3125-14.20509 18.88086 12.94729 9.73828 20.9238-27.81836-18.752-29.68164 30.1543 13.01758-4.3144 22.67383 15.916 3.02734 6.7383-35.42969-40.3965-17.4375c.9061-.65995 1.7519-1.39967 2.5254-2.21094 4.7835-5.076 6.8511-11.63975 5.7246-18.56738 24.5069-10.30417 47.3837-24.37134 70.751-37.03442zm-123.66896-83.4375c.46586-.008.93352.003 1.39844.0332 3.76739.2439 7.61407 1.83971 10.16015 4.19141 2.54699 2.3526 3.99569 5.12258 3.84375 9.33008-.792 21.8736-6.51391 44.54559-12.46289 67.55859-7.9344-22.0365-16.03301-42.82891-15.62891-66.47461.11071-6.4692 2.06336-9.68886 4.47266-11.75976 2.10781-1.8117 5.00201-2.81949 8.2168-2.87891zm-77.00391 26.93359c2.38141.0711 5.51182.72416 9.71485 2.31446 15.52497 5.8779 25.27835 17.46866 33.69335 32.59765 5.56831 10.01161 10.35335 21.44039 15.50586 32.98829-31.41811-12.2715-54.45866-30.79043-67.74804-57.23243-.26189-.522-.39569-5.43154 1.67968-7.80664 1.0368-1.1871 2.45288-2.38309 5.00977-2.7539.7104-.0982 1.42786-.1335 2.14453-.10743zm59.47461 98.1211c.23327 3.09507.75971 6.16066 1.57227 9.15625-7.64818 8.5626-17.10955 15.89464-29.60157 21.58984l-.30468-.31836-.34961-3.80664c7.00289-10.9458 16.80541-19.18439 28.68359-26.62109z" transform="scale(.26458334)"/><path id="b" d="m252.8292 20.554742c-11.78076 0-22.57432 6.950962-30.56055 18.597656-7.986 11.646456-13.01563 27.918961-13.01563 45.933594 0 12.513941.61538 24.153518 6.5879 34.052728 3.08553 5.11413 8.614 8.58235 13.97607 11.21351 7.1312 3.49927 15.22532 5.57635 23.1688 5.5764 7.94387.00005 16.05791-2.03758 23.17001-5.57637 5.27505-2.62472 10.64797-6.1518 13.66363-11.21354 5.91733-9.93216 6.58594-21.538787 6.58594-34.052728 0-18.014633-5.02744-34.287138-13.01367-45.933594-7.98624-11.646694-18.78198-18.597656-30.5625-18.597656z" fill="#ffbf00" fill-opacity=".501961" stroke-linecap="round" stroke-linejoin="round" stroke-width="5.63714"/><path d="m248.84896 27.944267c1.73117.03167 3.20731.661273 3.42733 2.280285-14.49538 5.70738-27.14696 27.470101-35.11701 41.874283.77534-10.734199 11.74266-40.233602 30.02043-44.02098.43632-.07503.87739-.119189 1.31992-.132159.1174-.0031.23384-.0036.34933-.0014z" fill="#fffbca" filter="url(#a)" opacity=".75"/><path d="m252.8292 17.736382c-12.88944 0-24.5245 7.63009-32.88477 19.822266-8.36633 12.201116-13.50977 28.988105-13.50976 47.527344 0 12.606331.55906 24.845168 6.99218 35.507808 3.56366 5.90661 9.59484 9.56392 15.14844 12.28906 7.49241 3.67652 15.97536 5.86519 24.41016 5.86524 8.42585.00005 16.93454-2.14561 24.42578-5.87305 5.49326-2.7333 11.35565-6.4612 14.83008-12.29297 6.36371-10.68141 6.98242-22.881767 6.98242-35.496088 0-18.53901-5.1411-35.326016-13.50782-47.527344-8.36041-12.192372-19.9975-19.822266-32.88671-19.822266zm0 5.636719c10.6718 0 20.62623 6.272054 28.23828 17.373047 7.60572 11.091561 12.51953 26.849624 12.51953 44.339844 0 12.413531-.71852 23.426488-6.18945 32.609368-2.55689 4.2917-7.44123 7.61668-12.49805 10.13282-6.73295 3.35013-14.4522 5.28129-21.91406 5.28125-7.45215-.00005-15.15776-1.9651-21.92774-5.28711-5.17053-2.53718-10.19534-5.81898-12.80273-10.14063-5.51191-9.13576-6.1836-20.174177-6.1836-32.595698 0-17.489992 4.91584-33.248071 12.52149-44.339844 7.61217-11.101189 17.56426-17.373047 28.23633-17.373047z" fill="#976532" stroke-width="1.18365"/></g></svg>