<svg height="500" viewBox="0 0 500 500" width="500" xmlns="http://www.w3.org/2000/svg" xmlns:xlink="http://www.w3.org/1999/xlink"><pattern id="a" patternTransform="matrix(.10305595 -.16911976 .16911976 .10305595 243.0059 -277.15887)" xlink:href="#g"/><filter id="b" color-interpolation-filters="sRGB" height="1.486" width="1.486" x="-.243" y="-.243"><feGaussianBlur stdDeviation="2.7046713"/></filter><radialGradient id="c" cx="154.66905" cy="82.585289" gradientTransform="matrix(-1.2466927 1.2592688 -1.2592659 -1.2466955 342.45993 -177.96551)" gradientUnits="userSpaceOnUse" r="40.30827"><stop offset=".12393165" stop-color="#448872" stop-opacity="0"/><stop offset=".41729519" stop-color="#448872" stop-opacity=".1"/><stop offset=".66706532" stop-color="#448872" stop-opacity=".5"/><stop offset=".91683543" stop-color="#448872" stop-opacity=".75"/><stop offset="1" stop-color="#448872"/></radialGradient><filter id="d" color-interpolation-filters="sRGB" height="1.15" width="1.15" x="-.075" y="-.075"><feGaussianBlur stdDeviation="2.4714234"/></filter><filter id="e" color-interpolation-filters="sRGB" height="1.037503" width="1.037497" x="-.018748" y="-.018752"><feGaussianBlur stdDeviation=".6671696"/></filter><radialGradient id="f" cx="596.21106" cy="-299.9166" gradientTransform="matrix(-.20865894 .06193204 -.31791756 -1.0711148 107.05902 -216.00691)" gradientUnits="userSpaceOnUse" r="45.47419" spreadMethod="reflect"><stop offset="0" stop-color="#80ffd4"/><stop offset=".3125" stop-color="#80fcd9"/><stop offset=".375" stop-color="#e7fdf8"/><stop offset=".4375" stop-color="#81fcdb"/><stop offset="1" stop-color="#85f9e5"/></radialGradient><pattern id="g" height="500" patternTransform="translate(754.00001 -111.00002)" patternUnits="userSpaceOnUse" width="500"><use transform="translate(500 500)" xlink:href="#j"/></pattern><filter id="h" color-interpolation-filters="sRGB" height="1.024002" width="1.023998" x="-.011999" y="-.012001"><feGaussianBlur stdDeviation=".42698854"/></filter><clipPath id="i"><ellipse cx="66.152519" cy="-66.146759" rx="43.604259" ry="43.593754" transform="rotate(90)"/></clipPath><g clip-path="url(#i)" stroke-width=".884192" transform="matrix(0 -4.2745567 4.2745567 0 -32.742491 532.73129)"><ellipse cx="66.152519" cy="-66.146759" fill="#448872" rx="43.604259" ry="43.593754" transform="rotate(90)"/><ellipse cx="66.152519" cy="-66.146759" fill="#66cdaa" rx="40.308334" ry="40.30827" transform="rotate(90)"/><circle cx="66.145836" cy="39.542774" fill="url(#f)" filter="url(#d)" r="39.542774" transform="matrix(.90725093 0 0 .90725093 6.135896 30.277237)"/><ellipse cx="66.152512" cy="-66.146759" fill="url(#a)" filter="url(#h)" opacity=".5" rx="42.702682" ry="42.695026" transform="rotate(90)"/><ellipse cx="66.152519" cy="-66.146759" fill="url(#c)" filter="url(#e)" opacity=".75" rx="42.702686" ry="42.695023" transform="rotate(90)"/><path d="m95.61188 9.4458012a15.608357 10.637955 45 0 1 3.5146 18.5589498 15.608357 10.637955 45 0 1 -18.55894-3.51461 15.608357 10.637955 45 0 1 -3.51461-18.5589424 15.608357 10.637955 45 0 1 18.55895 3.5146026z" fill="#e5fff6" filter="url(#b)" opacity=".5" transform="matrix(.90725093 0 0 .90725093 6.135896 30.277237)"/><path d="m109.73882 66.13403c0-11.164738-4.24884-22.329695-12.746662-30.827392-8.497763-8.497765-19.67365-12.76755-30.826022-12.76768-11.152477-.000129-22.330571 4.270206-30.828307 12.76768-16.995636 16.995637-17.076893 44.725747-.07402 61.728349 17.003075 17.003073 44.733181 16.921403 61.728349-.074021 8.497832-8.497582 12.746662-19.662197 12.746662-30.826936zm-3.28388 0c0 10.311988-3.9328 20.62382-11.799008 28.489797-15.73196 15.732193-41.323466 15.807833-57.055898.075391-15.732206-15.731954-15.657041-41.323007.075392-57.055441 7.86622-7.865977 18.178113-11.799589 28.490253-11.799469 10.312139.00012 20.624032 3.933247 28.490253 11.799469 7.866208 7.866097 11.799008 18.178266 11.799008 28.490253z" fill="#448872"/></g><g id="j" stroke-width=".884192" transform="translate(-500 -500)"><path d="m350.40251 162.35008c17.14507-3.50378 27.73779-21.03739 43.99848-25.15396 7.53021-21.76084 34.54806-11.82499 40.14906 5.82968 10.12026 7.37764 18.55039-17.20868 28.08156 0 13.08657 6.83968 22.97115 6.35509 37.36839 7.48952 0 0-22.53342-10.88346-27.19847-7.02609-8.85795-9.82882-24.64199-19.46534-33.99797-5.37573-3.91093-13.06684-21.36774-19.50102-29.64905-21.25565-5.53352-9.91023-14.17329-17.166572-14.23666-29.334047-13.52688-5.427548-30.57771 4.556954-41.4829-1.074117-15.69495 1.945879-29.38388-20.144573-46.14586-7.959904-9.61982-7.511331-18.22793-16.039114-21.88704-25.503811-16.03216 3.119302-25.95935-10.839889-33.45919-22.529666-9.98527-5.171622-17.71187-9.859581-16.21326-22.6904977-2.20868-6.4637664-7.68101-12.6249367-1.58949-2.0719704.69703 12.1102771 1.71062 22.3619341 15.30943 25.3588871 5.39618 6.601438 17.8862 26.638634 17.57943 24.327932-13.26708.48261-22.74215-10.146736-36.13369-6.564476-10.84195-9.097066-19.08777-24.26664-32.02797-33.503717-5.28441-5.030324-28.77643-16.4494379-12.37793-4.179733 9.30403 5.3252 38.29414 24.175289 15.66982 25.393159-14.79779 2.374684-30.9838-6.517806-46.13909 1.190149-6.36135-4.520812-15.79025-6.099177-4.25844-.189956 10.60762 5.514221 22.459-7.374479 32.92545 3.233111 15.94967.626598 35.35295-5.391755 45.31568 11.191612 16.11916-5.047051 27.24548 11.795283 43.73376 7.947037 13.24496-5.424974 6.18664 11.217578 19.19262 12.416734 6.71317 12.69734 19.42688 14.4418 30.99932 8.567084 6.43617 7.838725 30.10828 9.27439 12.09878 16.967255-15.17198 4.842005-20.85043 33.578345-39.14716 20.711405-18.72173 4.11516-27.4054-17.72463-45.06283-15.29485-17.90578-7.207919-32.53674-13.71087-52.35587-16.466869-7.35722-2.91835-31.95047-17.87364-11.81725-4.436127 15.73555 11.950032 36.18468 10.681982 50.21432 21.037276 8.6728 2.19958-15.31067 4.60327-18.4213 11.43923-10.86889 1.1795-21.04072 2.31421-31.15473-.34447-7.05627 12.52306-20.39451 10.94247-23.73232-3.7204-9.39788-6.89129-30.75462-4.55415-28.75755-23.160008-12.50973-11.615854-34.43712-15.976186-51.474958-11.727793-20.225059 10.985865-23.348326-17.68614-37.141539-25.770965 12.63123 9.810336 16.439134 38.379059 37.396798 28.650132 15.483939-4.732758 31.678359 1.796628 45.783259 7.836034 6.32 9.574413 2.90552 16.33352-8.3439 11.33864-9.50742-21.469118-28.055616 9.34375-39.240093-3.991882-15.840362 3.432308-32.249517 4.478703-47.727162 11.277352-9.655589 6.01414 16.280502-1.5503 19.867301-4.01727 14.376274-2.331052 27.305-1.982254 39.680047.73713 7.850747-10.165096 20.419987-8.864413 26.443407 1.60422 15.17434 2.95063 37.7189 1.80973 44.52537 18.1229-14.0894 3.67677-25.36203-4.81698-38.31522 2.13069-8.64374-2.72711-34.494235 9.61652-12.77626 2.87238 14.76774-2.49996 28.74804-3.13977 43.1234-.31698 12.01846.87363 24.96957 4.90318 32.7123-6.87737 15.32507 6.40388 32.18535 2.04565 46.14022-7.19142 17.72563-8.57481 30.7379 3.66881 45.04428 11.11394 6.79902.83831 22.41785.49501 8.99503 6.34984-17.40308 8.146-33.02972 16.04801-51.63273 18.2539-7.06187 5.65248 12.05724-2.89764 16.43031.0281 14.72826-6.58787 33.06627-6.93153 47.3614-17.53888 19.24426-2.7188 26.3044-25.16928 44.14557-32.362463 7.34887-6.62565 14.00389 1.893833 23.68327-4.852416 8.61885 2.021324 25.69445-7.485715 20.62362 8.819739 4.31041 8.60498 19.8467 16.54488 3.48572 24.2774-3.80186 12.00945-10.01719 8.74429-17.67932 3.42915-14.4217 2.29573-21.74004 15.39041-36.45373 5.89846-8.57858 2.53013-25.58012 11.10306-26.38519 17.62496 13.87946-13.3451 29.71139-15.906 47.18772-11.04165 4.8369-10.43226 30.64383-6.79666 12.36137 1.76621-7.28067 8.01032-13.61571 15.24993-23.21037 18.29882z" fill="#e5fff6"/><path d="m0 185.49219v6.50976c1.4052777.86024 2.8445102 1.90409 4.3554688 3.38086 10.5999892-3.01785 11.7053232-20.75473 22.6953122-24.9414-.668899-13.9799 12.390601-16.00359 19.371094-25.34375 3.856696-7.63439-.288435-36.00397 11.751953-28.70704 6.486694 8.07544 37.132176 15.18867 25.054688 24.10743-.0488 10.79533 14.028562 16.24727 7.667968 28.79492-11.187588 7.25769 3.967936 25.6788-13.185546 29.09765-11.779989 10.94735-15.118348 30.9741-9.689454 43.47461-1.325898-14.86759-.20436-30.29232 11.611328-40.95898 18.413182-.38723 6.682384-20.86604 15.484376-29.48047-.0734-19.06544 12.571692-1.38655 23.521482.55078 2.8213 5.78689-3.67772 22.05052 2.13867 32.19336 5.5076 13.27764-5.78093 25.03651-6.54882 37.2207-7.7806 12.72299-18.623475 24.93191-23.82227 37.34961-9.237891 9.24302-25.624507 11.33066-26.003906 25.76563-15.603185 2.25246-20.485819 20.82173-29.84961 31.27344 9.761391-9.06405 15.882213-26.36732 31.279297-26.94922 5.121495-12.15258 17.354667-16.42515 28.160157-25.32813 11.002392 1.91833-3.745125 8.78946-3.203126 14.63672-8.665491 8.6608 1.712859 20.57562-8.519531 28.91211-5.837594 9.74-13.342777 23.23609-5.958984 35.7207 1.327199 12.04557-1.933721 24.33995-.669922 36.56446 2.511697-9.21078 3.635522-24.97015 3.294922-36.68164-7.435793-10.10753-2.336099-18.68337 2.404297-27.60547 10.288789-8.69104 13.306637-21.27151 15.990234-33.35938 12.228592-6.14407 4.459002-19.86152 4.375002-31.5957 5.57219-6.56512 13.43615-29.96542 21.46484-20.13672 14.50409 3.41236 8.13304 19.79328 16.89063 26.29297 18.00208 11.90458-21.01779 28.26825-5.1875 43.69531-2.7568 13.64586-17.39955 24.05384-23.08594 37.6875-12.194488 10.17973-.0172 7.23417 5.7207-.49804 5.7715-13.12765 22.7896-24.53008 20.7793-38.80079-11.78739-15.04807 15.99256-24.38804 10.79297-40.0664-11.62249-4.76553-7.51241-18.56277-16.625-25.6211-16.67619-6.39784-12.92429-22.54198-5.52539-34.69921 2.2731-14.5683-11.26904-31.99576 2.15625-44.26368-3.9842-12.05725-29.256631-12.36872-36.107424-27.00586 9.247294-1.11193 5.930437-17.845-7.03125-22.96289-16.886683-7.45411-29.055728-21.36525-44.257813-31.164059-24.017676-6.077854 7.408537-22.469648 6.398438-36.302734-10.02909-18.764187 9.455542-37.074467 4.873047-56.248047h-3.171876c-.972104 5.0156848-2.154396 18.279715-4.658203 21.435547-14.255285 11.452038-2.796216 27.482456-6.945312 40.824219-6.651293 9.17659-24.116167 26.744557-6.208985 33.86914 19.638181 3.229887 17.964585 19.325274 11.587891 33.675784 6.442394 19.55071-19.655469 18.75956-20.042969 35.03906-10.140289 3.09457-12.915295 27.97279-23.521484 20.64844zm500 0c-14.68169-7.46042-27.43132 9.39887-40.69141 11.30664-18.12938-10.27656-29.38804 8.2169-43.23632 17.04297 12.20998-1.91252 22.43256-23.15285 37.90625-15.70899 8.42759 11.19503 29.42224-14.01738 20.90625 2.60352-.8617 14.66721-3.61879 32.25202 9.77929 42.28906 1.6081 19.64074-21.21814 25.72708-28.11523 41.73633-4.0249 5.31377-6.4166 35.57742-1.5 15.75976.7476-17.43053 14.98731-28.0818 26.9707-38.46875 13.32539-14.23006.43537-24.74529-2.89062-39.07226-3.59665-14.30894 5.25913-40.53531 20.87109-30.97852z" fill="#e5fff6" opacity=".92"/><path d="m0 206.40625v14.82422c3.0835247 3.18483 4.7574559 7.55152 4.7011719 13.77344-1.2423373 1.43278-2.8876061 2.72867-4.7011719 3.96875v8c4.438727-1.82801 8.8896956-3.65081 13.330078-5.45899 15.246265-2.67241 15.861298 20.46067 30.564453 21.28125 7.606983 1.25929 26.488365 7.17685 9.826172 10.13867-13.748416 4.44786-31.252335-7.4225-44.3261718 4.76953-6.960103 2.49336-12.7408925 17.19284-2.1582031 6.33985 13.5104369-15.74561 33.0079559-1.57362 47.8691409-5.94727 20.476359-9.55396 36.9955 14.61767 56.556641 18.93555 16.98384 7.71452 33.70943 16.1947 48.9043 27.08789-17.34105-1.76235-34.90724-.23603-52.05664-4.04687-15.828679.84035-31.929559 3.69729-47.574223-.75-15.093475-.71064-27.895074-6.11855-42.730469-4.34766-5.824935-4.80047-12.0405167-4.7229-18.205078-4.33399v4.32618c1.1242828-.27839 2.1923461-.67539 3.1523438-1.25391 5.8136722 3.69689 22.6048902 7.15418 25.6640622 7.19336-9.208675 5.76606-18.407938 15.43091-28.816406 18.21094v3.16406c6.9698636-1.25136 14.391725-5.55983 19.298828-9.3125 10.33622-9.66867 24.921635-12.50398 38.238281-8.04687 6.406194 1.91868 20.984776 1.72555 7.66211 7.25195-19.454081-.0167-30.662155 16.53383-42.945313 29.10937-.250629.98475-7.449804 4.36746-3.423828 4.77539 13.534267-7.60955 19.570976-26.58484 35.97461-28.66992 15.504124.0634 27.004663-12.38891 43.273437-9.17187 17.837895-1.38565 35.667515 3.74044 53.636715 3.89843 5.59311 1.65766 53.19201 15.70792 55.46321 13.18252-2.64637-2.42927-24.68295-12.65663-29.86164-17.09853-14.19704-17.07318-34.33274-27.58352-54.21289-36.63281-2.80426-14.05572-9.29786-26.6678-2.86914-41.28516-1.61193-11.74233-15.05664-21.20168-10.03321-33.35352-14.434014 10.66479 11.83509 26.1459 4.04492 39.63868-6.579 9.42914 6.29261 27.98104.6211 31.29882-19.486673-8.28797-38.660072-17.40467-56.488284-28.7832-13.463946-.28598-24.060173-7.43187-30.310547-19.24414-9.22107-7.5523-23.8597405-2.37553-22.1953121-20.02539-1.1754116-4.8595-3.3012287-9.24504-5.8730469-13.40625zm500 0c-8.88652-14.37841-23.38464-25.93819-24.90234-43.89844-3.92907 6.8687 6.69006 24.58081 13.21679 32.67578 4.94136 6.36198 20.36681 27.31194 3.47266 17.40821-19.39148.77801-25.07209-20.82926-42.0957-23.49414-9.88369-3.1743-11.00712 4.52581-.14063 3.27148 15.78056 1.3185 18.69863 21.9357 35.89453 22.01758 6.31625 1.37787 11.24809 3.42852 14.55469 6.84375zm0 32.56641c-10.26453 7.01865-28.34196 11.39896-40.14844 17.8457-16.1958 11.6553-32.32244-3.20403-48.1875-7.20313-13.20199-7.26399-29.36762-10.80439-39.60351-22.26171-10.12223-14.10596-29.5433-14.54653-44.93946-18.41602-11.52645 1.40503 12.60405 2.45677 14.78711 5.52344 20.11214.7582 27.83768 21.29392 45.23242 26.60351 12.81508 9.47324 27.72458 14.80191 42.4004 20.89649-19.26612 5.61513-39.11557-1.91662-57.59375 8.05078-15.77734 3.44327-31.97141 3.94067-46.98633-2.37891-12.5943 3.7415-25.34416 9.57728-39.0918 5.88477-17.92505-.18444 15.26216 4.17934 19.6582 2.37695 15.25508-10.11198 29.86344.3845 45.57032 1.05859 6.15214-.12621 23.81482-2.90564 8.86328 2.91407-5.31005 6.38342-25.5286 14.41616-23.38477 20.11133 11.67608-10.52904 28.50788-13.07395 38.13477-23.97657 12.33596-8.33114 27.464-4.10073 41.20898-3.7832 14.9411-2.48709 29.56223-4.37694 43.89063-8.78516 13.43525-5.3853 26.80665-10.94949 40.18945-16.46093zm0 71.66796c-7.75768.48943-15.43047 1.48481-22.11719-5.98242.25376 5.93671 13.22092 12.51144 22.11719 10.3086zm0 28.47657c-4.30715 1.15041-8.81417 1.15016-13.625-.85157 3.437 4.22325 8.407 4.95246 13.625 4.01563z" fill="#e5fff6" opacity=".94"/><path d="m204.50977 0c-2.70542 13.08405-11.8711 27.30078-11.8711 27.30078l-1.9082 7.91406c-.81489-.243146 25.47286 7.232841 52.10547-5.95117 9.85403-5.48704 28.62754-31.9886 28.5039-8.38476 1.55901 17.06665 20.96642-6.16342 21.67383 12.45898 2.05403 11.48343 13.3218 6.88093 21.11328 5.66797 24.92911-4.33388 49.85792-8.66811 74.78711-13.00195 7.55489-6.48226 8.35554-15.99002 8.22461-26.00391h-10.99805c.00005 5.27683-.52464 10.5706-1.86132 15.87695-27.07531 4.84624-54.15134 9.69229-81.22657 14.53907-4.02907-9.88527-9.82639-25.38468-22.37304-14.3086-.27194-5.24343-1.65705-11.8067-4.19336-16.10742h-13.65821c-.5252.58479-1.04663 1.15131-1.5957 1.86719-17.29525 13.33925-33.31977 31.09196-57.10547 30.3457-15.18036 4.15407 9.18812-11.5976 7.22461-20.38086 2.15879-3.52848 3.00322-7.64401 3.40039-11.83203zm0 500h10.24218c1.25529-13.23631-2.06407-27.22933 16.63086-25.97266 17.1675-2.88666 29.8583-22.86017 19.76172-38.65039-10.84268-13.2257 14.04741-21.91056 2.82227-36.07812 14.04845-6.17932 42.59598-6.29562 47.10742-19.08008-8.28693 2.84681-25.2958 12.68089-17.33594-3.8125 5.50687-13.25124-5.62176-28.03601 9.55078-38.69531 10.11269-16.11325-2.37459-36.18445 16.25782-48.0625-17.13541 4.75171-14.84914 23.66959-14.76758 37.63281-6.21808 14.85424-22.20544 25.52974-15.93555 43.4668-2.37263 12.7023-3.0049 23.03072-19.1875 22.16406-20.46482-.1847.71558 22.07616-16.26563 29.36328.71327 15.34661 12.09123 40.2482-12.63281 43.71289-2.85683-5.73693.88538-27.43594-9.36914-36.7832-4.33042-12.17247 1.20687-25.55912-4.85547-37.24414 15.66867-6.60975 33.86648-19.97975 22.17969-39.01758-6.657-14.32495-3.37748-29.44433 3.00391-42.98047 1.80816-15.57904 8.17631-30.23205 16.83789-43.13672 4.57436-3.80141 19.85009-14.27723 4.89062-5.57617-14.17942 9.39159-21.74244 28.04654-23.86719 44.67773-8.42878 16.40079-11.57149 34.62622-4.43554 52.55274 6.69879 11.05895-8.51558 28.29069-14.10156 11.72265-14.71469-9.14375 7.63141-25.69527-10.38086-35.26562-5.91916-4.42492-11.12999-14.32636-14.04297-17.99414 1.74793 16.81657 27.28759 27.38826 13.40429 45.43945 3.35776 11.16861 17.16299 19.2682.6504 25.19727-2.32129 12.74117 4.94146 26.52493 2.37695 40.41601 10.28063 15.20238 16.12676 42.39567-6.94922 47.05664.40675 7.58235.15852 16.49179-1.58984 24.94727zm58.31835 0h13.65821c-2.95616-5.01262-7.4921-6.86559-13.65821 0zm123.3125 0h10.99805c-.1205-9.21641-1.02789-18.8591 1.78516-26.99609-.81371-15.22773 21.49058-6.43379 22.39258-22.67383 11.4507-10.13943 9.42778-30.16233 27.91797-32.24219 5.70621-2.73555 25.11145-5.58982 22.34374-10.99805-13.41149 8.81861-35.45737 6.4784-42.60546 23.16797-4.83792 14.77101-15.38782 29.95932-31.33985 31.42774-4.2026 6.90989-5.178 16.67398-7.48242 3.4082-7.5172-24.44081-19.18497-53.67059-2.56445-77.01367 4.01811-16.00905 35.54524-7.23841 26.18164-25.29492-.95754-20.06344 20.5533-31.06773 37.76367-33.28125 17.61366-3.57272 42.78456-8.21737 48.46875-27.06836-7.78771 10.49184-20.41241 19.29297-34.38672 21.21484-20.0106 4.03902-44.99779 6.72996-54.75781 27.71289-2.85696 11.0698-1.26951 18.59142-14.69727 19.70508-9.0674 2.18609-18.05414 23.46932-15.67382 3.6875-1.67597-19.27567-17.17707-42.06413 6.45703-54.39453 24.48066-25.53423 12.96995-66.04909 35.06054-93.00781 5.23661-8.91136-12.09975 14.22577-12.2832 19.0371-10.39509 24.29125-7.52379 54.79277-29.19141 73.54297-19.00612 10.83574-14.76801 30.77827-8.74609 48.22461 3.09708 25.46326-4.84136 51.51728 2.96875 76.58789 4.38887 18.05428 11.39048 36.54645 11.39062 55.25391z" fill="#e5fff6" opacity=".95"/><path d="m0 0c2.8477134 1.13088 6.1795387 2.31019 9.5566406 3.46289h6.5332034c-5.335696-1.54148-10.6779177-2.9543-16.089844-3.46289zm9.5566406 3.46289c13.3228514 4.54748 29.8348044 8.53817 43.8886714 6.14844-.581912-2.31131-.688581-4.33079-.484374-6.14844h-3.171876c-.000357 1.56353.204358 3.22592.72461 5.02539-11.841333 2.1819-23.117361-1.75897-34.423828-5.02539zm250.0273394-3.46289h-7.54687c-2.91101 8.81449-22.15721 9.16955-30.96484 10.29883-14.66078-9.05169-30.23395 3.04144-45.16797-1.98242-3.56655-2.50403-13.80914-4.75898-16.51563-4.85352h-.2207c-1.28739.026.0931.79527 7.04101 2.71094 13.88366 13.6737 30.08291-2.40226 43.99219 3.98047 16.1378 3.23301-5.20506 13.80764-5.11719 24.4707-5.94044 5.30513-27.34235 5.90097-25.92773 12.26367 7.65889-1.98053 15.05489-4.83028 22.36133-7.83398 12.53095-4.66207 13.5425-31.90204 32.74414-23.49219 10.02472.70042 24.59655-5.09935 25.32226-15.5625zm-124.32617 0h-13.60156c-1.64726.97945-3.36081 5.38011-5.26172 6.19531-2.7646 14.76689-10.16978 30.70261-28.507811 22.80274-17.168367-4.09013-24.733413 13.22727-25.388672 27.09961-15.332643 12.37745-22.747928 35.91263-45.697266 36.52734-5.309371-.11324-19.6547011 6.82234-5.927734 3.11719 19.721461-1.09345 33.922651-13.74562 44.095703-29.36133 16.52466-8.96403 14.898777-41.59624 41.144531-31.30859 20.798619 5.26563 18.241259-20.27415 29.050779-28.23047-5.41662 15.3412 6.6543 33.13578 1.54297 47.25976 10.71341-15.42031-10.41938-45.11281 8.55078-54.10156zm-85.468748 500h3.171876c1.219444-10.8543 15.043752-13.55834 25.21289-15.49805 11.666713-16.53954 35.656332.19424 45.052732-19.1875 17.46016-5.8757 14.799-29.83802 30.70899-36.04297 11.43909.23694 38.01685 3.73676 18.74609 16.63477-10.05581 5.9625-9.25972 14.80748-20.30469 14.85352-9.21945 8.54712 11.87608 27.86665-9.01562 24.64648-8.50268 4.05454-14.02171 10.02526-21.70508 14.59375h13.60156c.11049-.0523.18366-.1207.29688-.17188 1.99117-14.23584 32.75199-5.21419 22.02343-25.01953-8.30084-14.60692 13.14297-5.06897 12.07422-18.86523 11.03476-7.17954 15.57127-26.18448 30.44922-12.60352 14.49901 4.90599 38.77906 22.89059 48.4336 1.89649 3.06701-17.59189 19.66136 7.42492 27.42773 12.65234 12.55856 7.38191 14.50506 19.5908-1.56641 22.52735-11.15767-4.05966-18.56079 4.84535-22.94336 12.20312 1.12482 3.11752 1.20383 5.504.58399 7.38086h7.54687c.14095-2.03215-.1872-4.33995-1.23046-7.02539 10.16349 1.99365 5.13618-12.96922 18.11132-6.18945 11.95889-2.06395 15.17719-18.63743 27.52344-10.8086 6.50291-13.13808 22.44867-21.44102 35.29297-17.55468 5.43833-9.19257 21.27723-5.91982 21.08398-18.88477 7.14511-12.67138 25.51817-6.94325 30.02539-24.30273 4.94098-12.77777 18.30756-22.47275 24.39649-32.33594-18.71717 1.36277-25.62366 27.37299-37.02734 40.33203-12.63447 4.29197-23.98034 4.40048-37.84961 4.63867-6.16705-16.80724-23.45669-16.56886-36.01758-8.48633-6.28412-8.9876-18.52752-16.48116-29.07227-22.25195-8.75427-.4203-28.54792 3.3639-8.66992 2.13086 14.20626-4.28646 20.75484 11.29202 31.87695 16.1914 5.10718 18.75886 29.28704-13.15907 34.33985 10.08204 2.78053 15.32829 25.50001 1.67025 26.89258 8.07226-5.64706 9.04415-11.75411 13.44239-21.40821 18.69727-10.55514-2.77035-27.02295 3.75679-34.85547 14.55664-11.78366 7.72447-21.90048-14.68836-31.71484-21.25781-8.31959-6.28664-25.22701-26.53981-27.14063-3.89063-9.20665 20.66928-31.30942-2.46754-46.11523-4.80664-15.55664-5.78089-32.05209-16.22002-49.13477-11.89258-10.11443 3.53642-18.71646-11.55262-25.35156 2.67774-12.60349 9.74265-25.568889-2.99211-37.16406-2.56446-5.714743-4.17944-26.853604-20.97221-12.666016-5.9082 14.112599 8.9579 29.422836 16.04388 46.132816 13.24609 7.68718-7.44874 16.06534-9.35304 23.62109-3.27929-5.98966 16.53633-15.91148 28.33964-28.59961 39.71093-11.62508 7.21648-28.844278-1.58214-38.505858 12.47852-11.622591 1.1067-26.565544 6.31301-26.56836 18.625z" fill="#e5fff6" opacity=".96"/><path d="m497.98438 387.73633c-.15255-.90133-2.1781.34266-3.86915 1.06445-11.67488 22.73127-27.51803 44.48654-31.24023 70.20313-13.49249-5.02306-16.90071 18.58668-25.19141 6.82421-8.91639 8.09584-22.99973 14.57677-26.92382 1.22071-17.18259 6.29638-40.87422-7.36596-53.6875 10.39844-4.6588 7.93725-3.142 15.29542-.12891 22.55273h6.21484c-4.07306-12.90847-2.15601-26.90111 15.75977-25.80273 13.67959 2.28103 29.75595-3.10015 35.93164 9.01953 5.47741-1.2343 8.99446 7.65933 9.1582 16.7832h6.94922c-1.66496-12.59644-7.91488-26.33996 7.37695-23.65625 8.4028 13.56695 13.48953-18.91484 27.44532-10.86328 7.60669-19.13423 13.47705-41.327 26.33984-59.30078 1.50325-3.20828 7.88086-6.53381 5.86524-18.44336zm-67.02735-387.73633h-6.94922c.13535 7.5415461-1.97789 15.239496-7.53125 17.509766-7.12309 11.550818 7.4479 19.85137.0625 33.023437 19.91818 12.658257 2.1513 33.731345 1.6211 47.900391 5.83039-16.145054 20.20006-35.439897 2.08007-48.933594 6.4241-13.778896-7.13728-27.388843 9.1543-36.490234 2.21447-3.4997981 2.20165-8.1742348 1.5625-13.009766zm-67.79883 0h-6.21484c4.01491 9.6702889 10.76024 19.15488 9.80273 29.539062-8.80579 12.504568-29.26795 10.191027-40.18554 23.371094-16.83259-2.240498-42.38755 5.574486-45.06055-16.570312-4.8611-5.006865-15.67383-7.050782-15.67383-7.050782s1.70882 2.373474 7.69531 5.556641c11.78479 4.657245 3.16395 19.164745 17.54883 20.652344-10.26859 11.338019-21.91348-3.316699-33.29297 3.140625-12.77658-16.122754-33.84093-.25055-44.23242 10.949219-4.73129 4.358435-6.65625 9.02539-6.65625 9.02539s2.59822-.915999 6.97461-6.277343c12.03239-13.904257 32.29227-22.298795 46.41016-7.88086 12.00539-6.403193 23.39372 9.50796 34.72461-3.335937 10.21199-3.795337 25.66912-2.488155 7.55664 2.74414-20.66788 3.393637-25.89781 32.087283-46.77149 31.152344-12.54478 5.474265 10.26843 33.842895-14.46875 24.644535-19.44858-.55937-36.44383-13.64545-51.79101 2.67773-12.48909 4.88295-31.32716-5.05497-39.99024-2.07227 19.61607 7.11473 43.73497 7.12617 59.50196-3.17773 17.32538 10.4356 49.89329-2.61782 52.21289 23.01953 1.4147 10.61591 20.66699 29.91402 11.9082 36.26758-13.11219.3731-24.53126 18.79887-41.56055 18.04492-14.19308 4.88006-27.48898 18.86606-42.91797 11.60547-20.02868 15.95791-37.37687 34.887-48.57226 58.1582-3.4167 8.74296-10.65926 18.21449-17.00195 27.38282-6.3426 9.16832-11.60352 25.57031-11.60352 25.57031s15.64474-22.21767 22.61133-34.01172c6.96659-11.79404 13.64319-23.81197 20.86719-35.35352.88008 20.23578-2.98724 38.57145-1.55274 59.08594-.178 4.28965.0332 6.01367.0332 6.01367s3.21848-24.82714 3.20118-29.26757c6.60009-18.13879-3.55745-41.67843 14.70312-56.24024 10.69749-13.95548 21.68731-15.48876 37.1543-15.72266 14.90378-10.60415 33.16416-12.47947 49.49804-19.53515 7.6796-7.54241 18.12254-16.02133 17.55274 1.56641-4.5324 8.72576-10.83723 24.13643-9.11133 33.65624-5.80999 15.55717-16.63246 21.61397-29.96875 30.87305-5.69119 4.43872-9.94531 21.29297-9.94531 21.29297s1.82092-2.38071 4.54492-8.99219c4.7747-20.31351 32.47775-15.61224 34.37305-35.37109 11.33809-9.99738-3.49767 25.40673-4.41406 34.19141-5.0181 6.27349 1.83398 17.19726 1.83398 17.19726s.79077-3.10263.35547-7.57031c3.41489-21.19954 15.06209-41.70166 8.15429-63.4668 2.2155-12.84508 16.18396-18.26246 7.25586-33.10351 10.93549-15.4393-9.57124-32.56453-12.64843-48.62696-2.5216-12.92349-15.78067-34.732187 5.47461-34.525388 13.05408-16.894713 28.85642-31.011932 50.1914-36.779296 11.31479-1.092929 30.09728-26.447118 35.29297-14.34375-4.89019 15.439894 7.97833 24.774172-1.66406 39.460937 1.2063 17.642647-3.27391 33.824827-14.8418 47.773437-.6775 21.24339-18.90927 29.68548-30.38086 45.29883-1.1461 2.13044-1.31054 3.54687-1.31054 3.54687s17.33858-17.13658 20.67578-19.45898c15.23658-10.51203 10.50629-32.68035 24.08007-45.79102 2.6239-15.71371 13.63644 14.0079 8.14844 20.48438-2.3327 18.77708 27.31411 25.59935 6.51563 40.32422-4.5136 5.18698-14.42383 26.38281-14.42383 26.38281s1.70244-1.59854 5.86914-8.55469c4.1875-12.32488 20.99451-25.5902 21.44531-35.14843-22.56037-7.10421-8.70307-32.33304-17.47656-47.48829-11.10889-16.35062 5.8392-36.184666 3.1582-49.404293-15.30628-15.409285 17.09413-33.238593 3.80664-51.171875-3.10227-3.818759-5.7106-9.0020983-7.40039-14.357422z" fill="#e5fff6" opacity=".98"/><path d="m8.3674622 395.3029c12.4176978 20.80019-17.300117 40.21885-3.038267 62.15035 18.1038858 10.4947-5.3291952 42.54675-5.3291952 42.54675s31.084198-33.95839 31.707386-54.3739c-.129127-17.01485 36.131983-11.67203 26.420036-36.2241 8.463057-16.79298 43.764958-3.74112 50.200228-29.38666 16.72713.99272 35.6689 7.74723 53.16585 7.64106 14.55926 5.31346 28.99056 9.73709 41.62386 2.10906 13.57212 6.59335 30.4466 9.3634 38.01043-8.38221-8.15846 7.7657-16.51341 16.85562-26.03238 5.6245-9.43762.10058-16.4167-10.3744-25.47205 1.74134-7.73113.39471-35.19298-7.69542-14.40625-11.33935 18.0308 2.70886 27.71024-13.17223 29.01929-26.88162 16.92944 7.5262 42.84553-11.58141 49.90184 11.87402 16.23154-2.46795 20.52543 28.97885 37.06192 14.93504-13.77902 10.48825-27.2653-21.69431-24.96623-18.18156 26.24214 9.68451 25.97707-27.36544 50.73218-25.12503 8.47689 2.63227 41.29852 12.77557 16.38482 1.08572-16.80246-9.97602-41.07824-1.54353-45.97135 17.79771-9.05006 2.78086-40.81811 7.48298-32.5588-6.03401 13.01619-12.72654 12.91868-34.92322 31.73339-44.5588 10.06485-16.37525-12.34514-50.48709 20.28945-50.51599 16.32753-5.20949 30.85068 12.71391 40.13556 18.61599 22.57252-5.51306-8.02198 3.44137-7.01823-10.27599-1.25823-5.10686 13.92269-29.05169 17.85308-10.98222 12.63213-4.29707 19.29217 18.35985 34.07088 17.88143 9.6296 9.55858 38.35516-12.96637 13.78413-1.90666-18.79891 7.75257-31.28125-16.12034-44.38015-21.79527-4.79568-6.13526-16.31648-7.78366-19.86632 5.19247-4.1812 13.0708-36.01525-2.9548-18.895-7.11977 9.23513-14.5668 37.46834-18.85055 27.74867-43.52709-5.01586-22.12328 30.1307-11.62759 35.72627-31.57679 14.7244-20.37475 30.60537 11.04417 47.6096 2.0021 17.76832-1.15703 17.69154-20.48789 37.37127-17.77289 7.36978-4.14816 27.79692-12.58322 25.29949-8.2183-16.90582 3.97359-35.68051 3.27203-48.38251 14.89988-10.93165 13.61029-32.79352 8.1045-45.36396-2.35258-21.64052 1.24377-32.09374 26.69427-55.10725 26.60996-8.35378 14.72089 6.23987 42.9356-21.28125 45.73151-9.66866 18.70937-35.19316 15.54217-44.39389 35.12801-1.25994 17.60683 9.77767 39.38812-13.7651 48.62895-9.19831 17.73645-13.82292 37.91086-39.14592 33.68414-14.63648 3.68648-27.77102-2.82861-12.85078-15.90052 8.2453-12.64308 37.72587-3.93883 27.04502-25.33217 8.03544-14.34049 7.4585-24.23221-4.73399-35.89589 1.61661-15.94253-2.41535-25.65395 9.78711-33.24607 6.53863-20.05517 37.46825-10.32311 38.1674-36.99116 2.93554-12.19564-9.31918 25.3564-18.67346 17.32032-19.55177 10.42772 3.21247-43.11412-9.45513-11.94653.83645 15.79979-14.34482 28.54174-26.50813 35.07076-9.73906-12.23649-9.76295-31.61575-15.67318-46.93164.34069-7.9469.28887-26.44643-1.04389-7.40507-4.08017 18.92867 12.49816 34.28352 7.28655 52.82292 23.47255 7.74639.32721 33.90817 20.6145 46.05149-.0126 8.17723-4.66618 26.03549-5.32421 32.93829-23.43825-.41008-30.20972 24.1444-43.22717 36.34211 1.0974 25.59906-35.9127 20.4045-53.29014 28.11174-10.91468-4.86424-37.75074-3.59514-23.59216-19.62271-1.60269-10.83115 2.93599-26.55983 10.26887-28.76189-19.61579-3.82052-9.73601 19.84409-14.17941 28.16097-6.85157 20.35167-26.632859 37.9146-50.048751 35.71835-19.17444 4.42922-4.447983 35.61841-30.162397 34.68562-14.101563 3.62361-3.622124 39.01781-17.847966 31.19314-17.9629048-19.77469 5.795381-40.20401 2.351413-61.35046-7.677786-11.85745-20.8920688-26.04582-2.920453-35.85297 6.804514-15.87572 22.598922-32.69311 3.454922-45.65793 9.849068-9.26056 24.632905-21.82076 22.486049-36.2397.751866 23.15763-41.9846548 31.10041-16.034075 51.55708-3.993164 18.91107-27.0112568 31.74368-24.46830781 50.60815 1.92730401 4.24166 5.22068301 7.61344 8.09623801 11.20457z" fill="#e5fff6" opacity=".9"/></g></svg>