<svg height="500" viewBox="0 0 132.29167 132.29167" width="500" xmlns="http://www.w3.org/2000/svg" xmlns:xlink="http://www.w3.org/1999/xlink"><linearGradient id="a" gradientTransform="matrix(391.593 0 0 -391.593 60.7962 7618.49)" gradientUnits="userSpaceOnUse" spreadMethod="pad" x1="0" x2="1" y1="0" y2="0"><stop offset="0" stop-color="#9f571d"/><stop offset=".511236" stop-color="#fde791"/><stop offset="1" stop-color="#b7671e"/></linearGradient><linearGradient id="b" gradientTransform="matrix(.70852579 0 0 .84249585 -296.98272 -202.73262)" gradientUnits="userSpaceOnUse" spreadMethod="reflect" x1="870.93982" x2="874.14966" xlink:href="#a" y1="289.18567" y2="349.8924"/><linearGradient id="c" gradientTransform="matrix(.70852579 0 0 .84249585 -296.98272 -202.73262)" gradientUnits="userSpaceOnUse" spreadMethod="reflect" x1="53.801334" x2="73.037247" xlink:href="#a" y1="313.25952" y2="286.28458"/><linearGradient id="d" gradientUnits="userSpaceOnUse" x1="-234.47314" x2="-166.7468" y1="70.700401" y2="112.71378"><stop offset="0" stop-color="#e6e0cd"/><stop offset=".5" stop-color="#d8d1b6"/><stop offset=".75" stop-color="#dcd5bc"/><stop offset="1" stop-color="#e6e0cd"/></linearGradient><g stroke-width=".97756" transform="matrix(.65944054 -.78203058 .78203058 .65944054 119.97595 -121.89447)"><g stroke-width=".97756"><path d="m-234.47315 70.700401c.41805 6.328593 2.83451 12.443778 5.39541 18.246157 2.28287 5.172424 5.0817 10.234425 8.7753 14.514932 6.07916 7.04513 13.19837 13.61588 21.51755 17.78496 8.49304 4.25621 18.20044 6.36899 27.6934 6.73034 8.748.33299 17.73097-1.14347 25.91779-4.24419 7.54671-2.85827 14.73975-7.0384 20.48867-12.89636l2.65356-3.86539-30.3276-31.592573-3.16799 2.110121c-6.89949 4.269777-14.29604 6.377186-21.95319 7.142718-6.5958.659424-13.40432-.384537-19.75411-2.287161-5.77794-1.731291-11.17376-4.749142-16.15785-8.146334-3.05842-2.084641-5.79209-4.658651-8.27755-7.401311-3.80698-4.200933-10.0374-13.73023-10.0374-13.73023s-3.15818 11.697283-2.76599 17.634321z" fill="#adaa85" stroke-width=".977687"/><path d="m-216.66975 100.38114c5.60714 6.61406 12.27084 12.71983 20.02125 16.60789 7.88907 3.95762 16.91537 5.89742 25.73526 6.22882 8.12.30511 16.45557-1.0678 24.05661-3.94037 6.91013-2.61147 13.64559-6.553 18.77282-11.77746l2.52044-2.47446-24.80818-25.768597-2.64924 2.280813c-7.57105 4.685374-15.63794 7.073146-24.02774 7.836164-8.05657.732713-16.36261-.726437-24.05235-3.239029-5.77223-1.886054-11.09882-5.122506-16.00702-8.698177-2.95738-2.154479-5.4313-4.915316-7.94544-7.573698-1.37097-1.449631-3.8821-4.556125-3.8821-4.556125-1.11114 4.712683.0793 8.534194.93684 12.687129.52125 2.524183 1.45533 4.964187 2.53171 7.306111 2.43042 5.287965 5.03376 10.641787 8.79714 15.080989z" fill="url(#d)" stroke-width="9.3112"/></g><path d="m-131.09562 102.83883-3.64479 3.03733c-4.07246 3.28004-9.43769 5.84466-14.48594 6.71379 3.02313-2.32515 6.44525-5.38479 9.27735-8.43385-8.70003 5.89227-19.5363 9.45145-26.79779 8.55768 8.35078-2.14312 18.6346-8.59102 23.92018-15.255078l-6.44922-6.713538c-4.94426 2.402417-11.23315 3.67374-16.67748 3.175 4.17063-1.733021 9.15618-4.301596 13.03073-6.970183l3.88869-2.797634z" fill="#d8d1b6"/><g stroke-width=".97756"><g><path d="m-232.64258 46.435547-2.76367 4.308594c-1.20991 1.885509-2.60353 4.543375-3.52539 7.529296-.46093 1.492961-.81741 3.055566-.80469 4.820313.0127 1.764747.46577 4.012448 2.21094 5.767578l.0898.08984.0937.08398c2.16454 1.952134 4.90617 1.845725 6.42969 1.572266 1.52352-.27346 2.59635-.671696 2.95899-.75.30604-.06609 1.36867-.140763 2.79882-.503906 1.43016-.363144 3.88926-1.360113 5.04297-3.94336l.23438-.523437.0996-.564453c.79746-4.514097-1.57565-7.067251-3.44336-9.38086-1.86771-2.313608-3.90522-4.177095-5.39453-5.345703z" fill="#84542e"/><path d="m-234.22351 65.578834c1.31071 1.18209 3.56281.100613 5.28807-.271923 1.60063-.345626 3.90432-.297199 4.57306-1.794562.56636-3.205901-4.80743-8.435279-7.12588-10.25448-1.93847 3.020888-5.13369 9.908833-2.73525 12.320965z" fill="url(#c)" stroke-width="9.31129"/></g><g stroke="none" transform="translate(-462.32385 12.105825)"><path d="m319.64459 40.062672-9.01393 13.589868c-2.72933 4.559442-7.19036 7.265625-4.70406 12.256236.71134 1.421175 1.40277 2.855704 2.21073 4.224258 3.23789 5.484477 6.10248 11.368911 10.54246 15.935101 4.14874 4.266682 9.55979 7.112757 14.60796 10.26436 1.40475.87699 2.90594 1.589199 4.35107 2.397916 4.47723 3.208229 7.63445-1.263726 12.32019-4.009575l14.27562-8.365382c-5.21459-3.002862-10.91737-6.422216-14.98875-9.099704-4.34967-2.870091-9.86017-6.98708-12.22269-9.428829-2.48973-2.573256-5.82443-7.669607-8.66958-12.307311-3.12748-5.023776-5.89113-10.257372-8.70902-15.456938z" fill="#84542e"/><path d="m309.96478 63.272451s6.8062 13.989449 12.13286 19.480023c5.07328 5.229394 18.19474 12.112552 18.19474 12.112552l7.25951-4.253972 7.25951-4.253972s-14.89327-8.719757-20.82014-14.845433c-6.18135-6.388688-14.75826-22.212903-14.75826-22.212903l-4.63411 6.986853z" fill="url(#b)"/></g></g></g><g id="e" stroke-width="12.6236" transform="matrix(.07921601 0 0 .07921601 79.454928 36.959977)"><path d="m716.94336 276.20898 6.96875 15.83985 177.23242 176.92187 17.31836 1.5 241.32811-64.40039 10.1797-14.29101 62.4402-231.91266-.034-19.84924-176.404-176.128718-15.0606-9.279307-246.15624 65.691406-12.46094 12.121094z" fill="#841525" stroke-width="47.7117" transform="scale(.26458334)"/><path d="m292.26367 77.613281-160.63086 42.867189 42.25391 37.00391 99.63672-26.80469zm12.4043 5.701172-19.74219 55.837887 66.6543 66.78711 69.51172-6.38281zm-183.68945 45.888667-43.001958 160.42579 57.427738-22.87696 27.10156-101.1582zm150.79492 15.99219-96.70508 26.03321-25.9668 96.95507 70.69532 70.89844 96.72851-26.03125 25.9668-96.95703zm151.47656 67.81055-67.51562 6.19922-26.14649 97.54883 51.86133 52.22461zm-282.37109 66.19726-59.539066 23.71485 117.582036 117.37891 12.58398-70.31055-70.625-70.78321zm178.98632 47.02344-94.88671 25.53321-12.76758 71.37695 161.15234-43.00391z" fill="#c01c28" stroke-width="330.361" transform="matrix(.36396883 0 0 .36396883 166.89113 -34.757655)"/><path d="m274.27344 92.083984-84.4375 21.285156c50.54411-9.18997 77.98586-8.09951 78.18945 3.17969zm37.11914 10.630856c23.53759 28.97436 58.77642 79.67234 47 95.20704l42.77734-5.49805zm-186.25586 46.61524c21.31677 25.55192 10.52096 97.94747-26.419923 120.15039l28.373043-11.49609 21.92188-86.48243zm142.39062 10.74609-82.73632 22.3086-7.17969 27.1914c70.28343-70.87661 182.48264 23.98983 95.59375 102.40625l32.48437-8.70117 21.92188-82.73242zm143.16016 63.01563-43.54883 3.38281c22.26238 15.0113 27.17745 30.98745 22.28516 81.05469zm-269.73828 70.65039c30.78267 42.08354 47.58093 72.14551 51.38281 104.54101l5.4082-44.61523zm192.45508 63.3789c-5.52473 14.64495-21.56056 22.62107-66.10742 41.84571l83.75781-23.78516z" fill="#e33d44" stroke-width="330.361" transform="matrix(.36396883 0 0 .36396883 166.89113 -34.757655)"/></g><use transform="matrix(.98480775 .17364818 -.17364818 .98480775 25.926279 -20.37197)" xlink:href="#e"/><use transform="matrix(.9961947 .08715574 -.08715574 .9961947 -12.880781 -10.690162)" xlink:href="#e"/></svg>