<svg height="500" viewBox="0 0 132.29167 132.29167" width="500" xmlns="http://www.w3.org/2000/svg" xmlns:xlink="http://www.w3.org/1999/xlink"><filter id="a" color-interpolation-filters="sRGB" height="1.054448" width="1.05356" x="-.02678" y="-.027224"><feGaussianBlur stdDeviation="3.481051"/></filter><g stroke-width="1.37562" transform="matrix(.72693955 0 0 .72693955 -121.31976 25.266714)"><path d="m716.94336 276.20898 6.96875 15.83985 177.23242 176.92187 17.31836 1.5 241.32811-64.40039 10.1797-14.29101 62.4402-231.91266-.034-19.84924-176.404-176.128718-15.0606-9.279307-246.15624 65.691406-12.46094 12.121094z" stroke-width="5.19924" transform="scale(.26458334)"/><g stroke-width="36.0001" transform="matrix(.36396883 0 0 .36396883 166.89113 -34.757655)"><path d="m292.26367 77.613281-160.63086 42.867189 42.25391 37.00391 99.63672-26.80469zm12.4043 5.701172-19.74219 55.837887 66.6543 66.78711 69.51172-6.38281zm-183.68945 45.888667-43.001958 160.42579 57.427738-22.87696 27.10156-101.1582zm150.79492 15.99219-96.70508 26.03321-25.9668 96.95507 70.69532 70.89844 96.72851-26.03125 25.9668-96.95703zm151.47656 67.81055-67.51562 6.19922-26.14649 97.54883 51.86133 52.22461zm-282.37109 66.19726-59.539066 23.71485 117.582036 117.37891 12.58398-70.31055-70.625-70.78321zm178.98632 47.02344-94.88671 25.53321-12.76758 71.37695 161.15234-43.00391z" fill="#201d30"/><path d="m274.27344 92.083984-84.4375 21.285156c50.54411-9.18997 77.98586-8.09951 78.18945 3.17969zm37.11914 10.630856c23.53759 28.97436 58.77642 79.67234 47 95.20704l42.77734-5.49805zm-186.25586 46.61524c21.31677 25.55192 10.52096 97.94747-26.419923 120.15039l28.373043-11.49609 21.92188-86.48243zm142.39062 10.74609-82.73632 22.3086-7.17969 27.1914c70.28343-70.87661 182.48264 23.98983 95.59375 102.40625l32.48437-8.70117 21.92188-82.73242zm143.16016 63.01563-43.54883 3.38281c22.26238 15.0113 27.17745 30.98745 22.28516 81.05469zm-269.73828 70.65039c30.78267 42.08354 47.58093 72.14551 51.38281 104.54101l5.4082-44.61523zm192.45508 63.3789c-5.52473 14.64495-21.56056 22.62107-66.10742 41.84571l83.75781-23.78516z" fill="#59527a" filter="url(#a)"/></g></g></svg>