<svg height="500" viewBox="0 0 132.29167 132.29167" width="500" xmlns="http://www.w3.org/2000/svg" xmlns:xlink="http://www.w3.org/1999/xlink"><filter id="a" color-interpolation-filters="sRGB" height="1.105806" width="1.083377" x="-.041688" y="-.052903"><feGaussianBlur stdDeviation=".66782007"/></filter><filter id="b" color-interpolation-filters="sRGB" height="1.1248" width="1.1248" x="-.0624" y="-.0624"><feGaussianBlur stdDeviation="2.0562243"/></filter><radialGradient id="c" cx="86.055344" cy="45.671474" gradientTransform="matrix(1.3920409 -1.2344845 -1.6193442 -.90033192 -5.63355 198.80507)" gradientUnits="userSpaceOnUse" r="40.308271"><stop offset="0" stop-opacity="0"/><stop offset=".12393165" stop-opacity="0"/><stop offset=".41729519" stop-opacity=".1"/><stop offset=".66706532" stop-opacity=".5"/><stop offset=".91683543" stop-opacity=".75"/><stop offset="1"/></radialGradient><linearGradient id="d" gradientTransform="matrix(1.319378 0 0 1.3997461 -546.21521 -13.724754)" gradientUnits="userSpaceOnUse" spreadMethod="repeat" x1="160.71698" x2="260.9852" xlink:href="#e" y1="14.152691" y2="108.66388"/><linearGradient id="e"><stop offset="0" stop-color="#ff3d00"/><stop offset=".0932363" stop-color="#c00"/><stop offset=".2234161" stop-color="#b90202" stop-opacity=".910798"/><stop offset=".39124575" stop-color="#e31111" stop-opacity=".835681"/><stop offset=".52858514" stop-color="#ff3d00"/><stop offset=".6972549" stop-color="#f10d0d"/><stop offset=".91994596" stop-color="#922b2b" stop-opacity=".755869"/><stop offset="1" stop-color="#ff3d00"/></linearGradient><linearGradient id="f" gradientUnits="userSpaceOnUse" spreadMethod="repeat" x1="-58.828991" x2="-27.70916" xlink:href="#e" y1="64.169174" y2="38.338478"/><filter id="g" color-interpolation-filters="sRGB" height="1.848492" width="1.89348" x="-.44674" y="-.424246"><feGaussianBlur stdDeviation="3.9403075"/></filter><filter id="h" color-interpolation-filters="sRGB" height="1.948977" width="1.991109" x="-.495555" y="-.474489"><feGaussianBlur stdDeviation="3.9403075"/></filter><filter id="i" color-interpolation-filters="sRGB" height="1.847988" width="1.891173" x="-.445586" y="-.423994"><feGaussianBlur stdDeviation="3.9403075"/></filter><filter id="j" color-interpolation-filters="sRGB" height="2.272466" width="2.040851" x="-.520425" y="-.636233"><feGaussianBlur stdDeviation="1.4698905"/></filter><filter id="k" color-interpolation-filters="sRGB" height="1.889649" width="1.850899" x="-.425449" y="-.444824"><feGaussianBlur stdDeviation="1.4698905"/></filter><filter id="l" color-interpolation-filters="sRGB" height="1.583555" width="1.663746" x="-.331873" y="-.291777"><feGaussianBlur stdDeviation="1.4698905"/></filter><filter id="m" color-interpolation-filters="sRGB" height="1.985291" width="1.917113" x="-.458556" y="-.492646"><feGaussianBlur stdDeviation="1.4698905"/></filter><filter id="n" color-interpolation-filters="sRGB" height="1.759046" width="1.714955" x="-.357477" y="-.379523"><feGaussianBlur stdDeviation="1.4698905"/></filter><filter id="o" color-interpolation-filters="sRGB" height="1.701499" width="1.804815" x="-.402408" y="-.350749"><feGaussianBlur stdDeviation="1.4698905"/></filter><filter id="p" color-interpolation-filters="sRGB" height="1.714346" width="1.692941" x="-.346471" y="-.357173"><feGaussianBlur stdDeviation="1.4698905"/></filter><filter id="q" color-interpolation-filters="sRGB" height="2.1451" width="2.04441" x="-.522205" y="-.57255"><feGaussianBlur stdDeviation="1.4698905"/></filter><filter id="r" color-interpolation-filters="sRGB" height="1.649075" width="1.680009" x="-.340004" y="-.324538"><feGaussianBlur stdDeviation="1.4698905"/></filter><filter id="s" color-interpolation-filters="sRGB" height="1.587679" width="1.554615" x="-.277307" y="-.293839"><feGaussianBlur stdDeviation="1.4698905"/></filter><filter id="t" color-interpolation-filters="sRGB" height="1.677505" width="1.665937" x="-.332968" y="-.338752"><feGaussianBlur stdDeviation="1.4698905"/></filter><filter id="u" color-interpolation-filters="sRGB" height="2.197684" width="2.192527" x="-.596264" y="-.598842"><feGaussianBlur stdDeviation="1.4698905"/></filter><linearGradient id="v" gradientTransform="matrix(1.3050408 .16973606 -.20579215 1.2115169 -419.82632 -16.016865)" gradientUnits="userSpaceOnUse" spreadMethod="repeat" x1="160.71698" x2="260.9852" xlink:href="#e" y1="14.152691" y2="108.66388"/><filter id="w" color-interpolation-filters="sRGB" height="1.120417" width="1.034804" x="-.017402" y="-.060208"><feGaussianBlur stdDeviation=".74531976"/></filter><g><g fill-rule="evenodd"><path d="m-228.53364 125.147916h13.229167v13.229167h-13.229167z" fill="#a5aee5"/><path d="m-241.7628 125.147916h13.229167v13.229167h-13.229167z" fill="#8cf8ed"/><path d="m-254.79378 125.147916h13.229167v13.229167h-13.229167z" fill="#bee9c3"/><path d="m-268.02293 125.147916h13.229167v13.229167h-13.229167z" fill="#c1f14b"/><path d="m-281.25209 125.147916h13.229167v13.229167h-13.229167z" fill="#fed062"/><path d="m-294.48125 125.147916h13.229167v13.229167h-13.229167z" fill="#ffb866"/><path d="m-307.7104 125.147916h13.229167v13.229167h-13.229167z" fill="#ffb299"/></g><path d="m-334.16876 6.085417h132.29167v132.29167h-132.29167z" fill="url(#d)" fill-rule="evenodd"/><g><g fill="#313a34" stroke-width=".901312" transform="matrix(1.1086408 0 0 1.1103475 -9.820944 -7.262349)"><path d="m73.742187 29.103516c-3.144084-.06651-6.304175.08539-9.4375.445312-12.533084 1.439646-24.733933 6.228021-33.757812 14.304688-9.024666 8.077244-13.253695 18.253691-12.134766 28.003906 1.11893 9.750214 7.544197 18.704441 18.164063 24.52539 21.238531 11.641808 51.902434 8.189848 69.964848-7.976562 9.03111-8.08301 13.23504-18.279671 12.08984-28.039063-1.1452-9.759391-7.58751-18.718113-18.20703-24.539062-7.96412-4.365277-17.249388-6.525081-26.681643-6.724609zm-.175781 7.640625c8.363796.190947 16.506694 2.112449 23.189453 5.77539 8.909841 4.883814 13.470301 11.692288 14.296871 18.736328.82658 7.044041-2.03127 14.689294-9.60156 21.464844-15.140806 13.55149-43.387884 16.738191-61.207029 6.970703-8.909461-4.883444-13.443253-11.67323-14.25-18.703125s2.071007-14.670568 9.642578-21.447265c7.572242-6.777405 18.371685-11.127611 29.537109-12.410157 2.791347-.320635 5.604646-.450368 8.392578-.386718z"/><path d="m98.589227 39.174541c19.529383 10.704773 22.008963 31.529998 5.407543 46.388573-16.601625 14.858966-46.058103 18.178506-65.586961 7.473847-19.529346-10.704404-21.914156-31.485476-5.317903-46.339433 8.298069-7.427043 19.798115-11.99675 31.647381-13.357847 11.849354-1.361109 24.085345.482709 33.84994 5.83486z"/></g><path d="m97.604159 37.916498c20.457791 11.230942 23.046851 33.029926 5.661871 48.613748-17.385231 15.584264-48.171085 19.060674-68.628294 7.829873-20.457733-11.230532-22.949385-32.975846-5.564157-48.559902 8.692616-7.792136 20.710579-12.57093 33.113053-13.997769 12.402473-1.426838 25.18864.498787 35.417527 6.114052z" fill="#415848"/><circle cx="66.145836" cy="39.542774" fill="#4c6752" filter="url(#b)" r="39.542774" transform="matrix(-1.0911562 .12552257 .08859391 .77318278 134.81754 27.275014)"/><path d="m27.750245 49.033184c-1.765175.01723-3.529054.06399-5.294768.103353-4.301993 5.138997-6.809679 10.707147-7.574731 16.257923 5.958843.451612 11.745948.84091 17.533297 1.866036 11.261074 1.9947 21.964145 6.707477 33.287891 8.308537 9.897038 1.399339 20.001057.316488 29.966648 1.088822 5.835858.452279 11.432008 1.249111 17.437178 2.073775 2.98439-4.865276 4.49174-9.983311 4.56665-15.015104-1.42383-.05973-2.58512-.08946-3.8592-.291972-5.17259-.822171-10.03672-3.390412-15.263151-3.731038-5.369048-.349921-10.710554 2.471063-16.044499 1.765266-5.238418-.693156-9.645479-4.459752-14.763957-5.772257-5.015714-1.286154-10.325913-.992406-15.404228-2.003495-5.097778-1.014964-9.93096-3.188464-15.054378-4.064869-2.561182-.438112-5.176619-.487412-7.77317-.584977-.586114-.02202-1.173083-.0057-1.759582 0zm4.674133 8.919352s11.867635 1.732715 17.528714 3.615254c3.1741 1.055518 5.928634 3.154382 9.084824 4.262303 4.051693 1.42227 12.523609 3.018419 12.523609 3.018419s-3.45941.138088-5.156424-.138642c-4.716084-.769047-9.170354-2.695631-13.709985-4.18715-3.055731-1.003976-6.044247-2.205714-9.101823-3.204056-3.696333-1.206906-11.168915-3.366128-11.168915-3.366128z" fill="url(#v)" filter="url(#w)" opacity=".75"/><path d="m61.951671 29.756283c13.136677-1.511305 26.701996.535974 37.527428 6.478721 21.651071 11.886018 24.400031 35.009255 5.995021 51.507437-18.405241 16.498619-51.061894 20.184459-72.712383 8.298569-21.651029-11.88561-24.2949266-34.959822-5.895644-51.452876 9.199578-8.246598 21.948998-13.320561 35.085578-14.831855z" fill="url(#c)" opacity=".33"/><path d="m93.570457 7.5826051c5.42721 5.0417369 11.021923 22.7138409 11.021923 22.7138409s-5.341319-8.729969-8.508454-12.320761c-3.631026-4.116735-7.624184-7.700885-11.870987-10.3930799-5.732329-3.6339208-18.067103-7.5826051-18.067103-7.5826051s19.639678.35059713 27.424621 7.5826051z" fill="#fff" filter="url(#a)" opacity=".5" stroke-width=".229825" transform="matrix(-1.0911562 .12552257 .08859391 .77318278 134.81754 27.275014)"/></g><g fill="url(#f)" opacity=".9" transform="translate(2.167039 -1.456266)"><path d="m-139.86965-3.0771184-10.36001 3.66205157.91413-9.28987787.86649-13.0008283 8.15651 7.589292 11.2312 8.6550614z" filter="url(#g)" opacity=".5" transform="matrix(.2515722 0 0 .2515722 127.46125 60.406898)"/><path d="m-139.86237-5.7834461-9.02205 8.673446.78834-9.1662897-2.25712-10.7640902 8.83162 3.479468 10.25152 3.12575z" filter="url(#h)" opacity=".5" transform="matrix(.2515722 0 0 .2515722 115.26878 83.540466)"/><path d="m-139.78851-2.9543271-10.33118 3.38856365.67369-9.17910895.94046-13.1248226 8.25468 7.60554 11.3543 8.9636604z" filter="url(#i)" opacity=".5" transform="matrix(.2515722 0 0 .2515722 74.43936 66.732599)"/><path d="m-48.303316 27.216647-1.519927-2.377558-2.386078-2.304702 3.074215.251483 3.70435-1.11395-1.388254 2.64972z" filter="url(#j)" opacity=".5" transform="matrix(.67438479 0 0 .67438479 62.238714 57.75468)"/><path d="m-62.049461 30.181898 2.609058-3.921014 1.742942-4.009614 1.101389 4.344525 2.838402 2.726397-3.711536-.397374z" filter="url(#k)" opacity=".5" transform="matrix(.67438479 0 0 .67438479 68.149914 29.530263)"/><path d="m-67.639566 33.20701-4.664615-3.06567-5.965171-1.666206 5.858153-2.655714 4.489875-4.702924-.414034 6.001125z" filter="url(#l)" opacity=".5" transform="matrix(.67438479 0 0 .67438479 144.3556 48.198168)"/><path d="m-93.419907 26.365763-3.424433-1.172966-4.26871-.44105 2.806006-2.522007 2.989142-3.024779.7709 3.764809z" filter="url(#m)" opacity=".5" transform="matrix(.67438479 0 0 .67438479 156.28911 73.059376)"/><path d="m-62.797581 59.250327-3.747685-3.869953-3.29496-2.607571 4.554538-1.554104 5.313883-1.263562-2.37614 4.197137z" filter="url(#n)" opacity=".5" transform="matrix(.67438479 0 0 .67438479 129.35415 38.147363)"/><path d="m-32.394168 38.711693.472116-5.854465-.929566-4.203252 4.077466 2.740533 4.689108 1.524012-4.080621 2.719747z" filter="url(#o)" opacity=".5" transform="matrix(.67438479 0 0 .67438479 97.069904 22.569855)"/><path d="m-39.309885 41.548085-3.949868-3.474533-4.876775-1.996622 5.281015-1.453614 4.900907-2.952056-1.354113 5.479831z" filter="url(#p)" opacity=".5" transform="matrix(.67438479 0 0 .67438479 117.99614 20.177419)"/><path d="m-59.225973 39.15776-3.234755-.621874-3.52071.006 3.074796-3.35862 1.424903-2.186997 1.415358 2.858015z" filter="url(#q)" opacity=".5" transform="matrix(.67438479 0 0 .67438479 143.14839 56.682112)"/><path d="m-91.916671 43.82608-4.89118-2.515647-5.484379-2.660873 5.852547-2.75687 4.057564-2.936648-.518695 6.112483z" filter="url(#r)" opacity=".5" transform="matrix(.67438479 0 0 .67438479 171.33585 53.264601)"/><path d="m-88.265392 72.279389-5.399314-.300168-7.322084 2.108468 3.106775-4.679448.947952-7.326216 5.224347 5.66715z" filter="url(#s)" opacity=".5" transform="matrix(.67438479 0 0 .67438479 134.74417 .681728)"/><path d="m-78.098576 64.772227 4.836886 1.955736 5.757926 1.046472-4.012304 3.440005-3.663752 3.971696-.154137-5.540876z" filter="url(#t)" opacity=".5" transform="matrix(.67438479 0 0 .67438479 115.02578 2.854071)"/><path d="m-45.411477 58.834161-3.189333-1.224739-2.727072-.94547 2.978804-2.04424 2.099255-1.676485.428339 3.334691z" filter="url(#u)" opacity=".5" transform="matrix(.67438479 0 0 .67438479 105.31073 52.650937)"/><path d="m-139.86237-5.7834461-9.02205 8.673446.78834-9.1662897-2.25712-10.7640902 8.83162 3.479468 10.25152 3.12575z" filter="url(#h)" opacity=".5" transform="matrix(0 .2515722 -.2515722 0 63.80673 90.347522)"/><path d="m-48.303316 27.216647-1.519927-2.377558-2.386078-2.304702 3.074215.251483 3.70435-1.11395-1.388254 2.64972z" filter="url(#j)" opacity=".5" transform="matrix(0 .67438479 -.67438479 0 65.835542 84.550455)"/><path d="m-62.049461 30.181898 2.609058-3.921014 1.742942-4.009614 1.101389 4.344525 2.838402 2.726397-3.711536-.397374z" filter="url(#k)" opacity=".5" transform="matrix(0 .67438479 -.67438479 0 83.639752 74.836159)"/><path d="m-93.419907 26.365763-3.424433-1.172966-4.26871-.44105 2.806006-2.522007 2.989142-3.024779.7709 3.764809z" filter="url(#m)" opacity=".5" transform="matrix(0 .67438479 -.67438479 0 76.30092 149.30698)"/><path d="m-32.394168 38.711693.472116-5.854465-.929566-4.203252 4.077466 2.740533 4.689108 1.524012-4.080621 2.719747z" filter="url(#o)" opacity=".5" transform="matrix(0 .67438479 -.67438479 0 105.37441 106.42649)"/><path d="m-39.309885 41.548085-3.949868-3.474533-4.876775-1.996622 5.281015-1.453614 4.900907-2.952056-1.354113 5.479831z" filter="url(#p)" opacity=".5" transform="matrix(0 .67438479 -.67438479 0 85.337849 80.394174)"/><path d="m-59.225973 39.15776-3.234755-.621874-3.52071.006 3.074796-3.35862 1.424903-2.186997 1.415358 2.858015z" filter="url(#q)" opacity=".5" transform="matrix(0 .67438479 -.67438479 0 95.756839 125.8979)"/><path d="m-91.916671 43.82608-4.89118-2.515647-5.484379-2.660873 5.852547-2.75687 4.057564-2.936648-.518695 6.112483z" filter="url(#r)" opacity=".5" transform="matrix(0 .67438479 -.67438479 0 107.81764 125.6399)"/><path d="m-88.265392 72.279389-5.399314-.300168-7.322084 2.108468 3.106775-4.679448.947952-7.326216 5.224347 5.66715z" filter="url(#s)" opacity=".5" transform="matrix(0 .67438479 -.67438479 0 132.63631 151.67847)"/><path d="m-78.098576 64.772227 4.836886 1.955736 5.757926 1.046472-4.012304 3.440005-3.663752 3.971696-.154137-5.540876z" filter="url(#t)" opacity=".5" transform="matrix(0 .67438479 -.67438479 0 109.77893 109.09594)"/><path d="m-45.411477 58.834161-3.189333-1.224739-2.727072-.94547 2.978804-2.04424 2.099255-1.676485.428339 3.334691z" filter="url(#u)" opacity=".5" transform="matrix(0 .67438479 -.67438479 0 104.65395 115.69807)"/><path d="m-139.86237-5.7834461-9.02205 8.673446.78834-9.1662897-2.25712-10.7640902 8.83162 3.479468 10.25152 3.12575z" filter="url(#h)" opacity=".5" transform="matrix(.2515722 0 0 .2515722 113.58445 94.026542)"/><path d="m-48.303316 27.216647-1.519927-2.377558-2.386078-2.304702 3.074215.251483 3.70435-1.11395-1.388254 2.64972z" filter="url(#j)" opacity=".5" transform="matrix(.67438479 0 0 .67438479 117.40236 65.46797)"/><path d="m-62.049461 30.181898 2.609058-3.921014 1.742942-4.009614 1.101389 4.344525 2.838402 2.726397-3.711536-.397374z" filter="url(#k)" opacity=".5" transform="matrix(.67438479 0 0 .67438479 123.93371 20.297163)"/><path d="m-67.639566 33.20701-4.664615-3.06567-5.965171-1.666206 5.858153-2.655714 4.489875-4.702924-.414034 6.001125z" filter="url(#l)" opacity=".5" transform="matrix(.67438479 0 0 .67438479 114.44117 61.480425)"/><path d="m-93.419907 26.365763-3.424433-1.172966-4.26871-.44105 2.806006-2.522007 2.989142-3.024779.7709 3.764809z" filter="url(#m)" opacity=".5" transform="matrix(.67438479 0 0 .67438479 151.72511 36.307393)"/><path d="m-62.797581 59.250327-3.747685-3.869953-3.29496-2.607571 4.554538-1.554104 5.313883-1.263562-2.37614 4.197137z" filter="url(#n)" opacity=".5" transform="matrix(.67438479 0 0 .67438479 112.69566 21.692608)"/><path d="m-32.394168 38.711693.472116-5.854465-.929566-4.203252 4.077466 2.740533 4.689108 1.524012-4.080621 2.719747z" filter="url(#o)" opacity=".5" transform="matrix(.67438479 0 0 .67438479 107.55727 7.960361)"/><path d="m-91.916671 43.82608-4.89118-2.515647-5.484379-2.660873 5.852547-2.75687 4.057564-2.936648-.518695 6.112483z" filter="url(#r)" opacity=".5" transform="matrix(.67438479 0 0 .67438479 157.13811 53.546148)"/><path d="m-88.265392 72.279389-5.399314-.300168-7.322084 2.108468 3.106775-4.679448.947952-7.326216 5.224347 5.66715z" filter="url(#s)" opacity=".5" transform="matrix(.67438479 0 0 .67438479 119.73425 52.81824)"/><path d="m-78.098576 64.772227 4.836886 1.955736 5.757926 1.046472-4.012304 3.440005-3.663752 3.971696-.154137-5.540876z" filter="url(#t)" opacity=".5" transform="matrix(.67438479 0 0 .67438479 116.11764 42.319214)"/><path d="m-45.411477 58.834161-3.189333-1.224739-2.727072-.94547 2.978804-2.04424 2.099255-1.676485.428339 3.334691z" filter="url(#u)" opacity=".5" transform="matrix(.67438479 0 0 .67438479 140.35557 33.310481)"/><path d="m-139.86965-3.0771184-10.36001 3.66205157.91413-9.28987787.86649-13.0008283 8.15651 7.589292 11.2312 8.6550614z" filter="url(#g)" opacity=".5" transform="matrix(.2515722 0 0 .2515722 86.687245 78.595511)"/><path d="m-139.86237-5.7834461-9.02205 8.673446.78834-9.1662897-2.25712-10.7640902 8.83162 3.479468 10.25152 3.12575z" filter="url(#h)" opacity=".5" transform="matrix(.2515722 0 0 .2515722 86.481567 47.703152)"/><path d="m-139.78851-2.9543271-10.33118 3.38856365.67369-9.17910895.94046-13.1248226 8.25468 7.60554 11.3543 8.9636604z" filter="url(#i)" opacity=".5" transform="matrix(.2515722 0 0 .2515722 129.83924 41.766484)"/><path d="m-48.303316 27.216647-1.519927-2.377558-2.386078-2.304702 3.074215.251483 3.70435-1.11395-1.388254 2.64972z" filter="url(#j)" opacity=".5" transform="matrix(.67438479 0 0 .67438479 55.328577 30.170112)"/><path d="m-62.049461 30.181898 2.609058-3.921014 1.742942-4.009614 1.101389 4.344525 2.838402 2.726397-3.711536-.397374z" filter="url(#k)" opacity=".5" transform="matrix(.67438479 0 0 .67438479 91.493535 46.946909)"/><path d="m-67.639566 33.20701-4.664615-3.06567-5.965171-1.666206 5.858153-2.655714 4.489875-4.702924-.414034 6.001125z" filter="url(#l)" opacity=".5" transform="matrix(.67438479 0 0 .67438479 90.911731 22.017338)"/><path d="m-93.419907 26.365763-3.424433-1.172966-4.26871-.44105 2.806006-2.522007 2.989142-3.024779.7709 3.764809z" filter="url(#m)" opacity=".5" transform="matrix(.67438479 0 0 .67438479 142.33039 55.866021)"/><path d="m-32.394168 38.711693.472116-5.854465-.929566-4.203252 4.077466 2.740533 4.689108 1.524012-4.080621 2.719747z" filter="url(#o)" opacity=".5" transform="matrix(.67438479 0 0 .67438479 73.625228 32.801636)"/><path d="m-39.309885 41.548085-3.949868-3.474533-4.876775-1.996622 5.281015-1.453614 4.900907-2.952056-1.354113 5.479831z" filter="url(#p)" opacity=".5" transform="matrix(.67438479 0 0 .67438479 95.636633 72.268829)"/><path d="m-91.916671 43.82608-4.89118-2.515647-5.484379-2.660873 5.852547-2.75687 4.057564-2.936648-.518695 6.112483z" filter="url(#r)" opacity=".5" transform="matrix(.67438479 0 0 .67438479 160.31995 47.380749)"/><path d="m-88.265392 72.279389-5.399314-.300168-7.322084 2.108468 3.106775-4.679448.947952-7.326216 5.224347 5.66715z" filter="url(#s)" opacity=".5" transform="matrix(.67438479 0 0 .67438479 119.82533 24.692534)"/><path d="m-78.098576 64.772227 4.836886 1.955736 5.757926 1.046472-4.012304 3.440005-3.663752 3.971696-.154137-5.540876z" filter="url(#t)" opacity=".5" transform="matrix(.67438479 0 0 .67438479 72.693709 15.449834)"/><path d="m-45.411477 58.834161-3.189333-1.224739-2.727072-.94547 2.978804-2.04424 2.099255-1.676485.428339 3.334691z" filter="url(#u)" opacity=".5" transform="matrix(.67438479 0 0 .67438479 142.87371 11.384827)"/><path d="m-139.86965-3.0771184-10.36001 3.66205157.91413-9.28987787.86649-13.0008283 8.15651 7.589292 11.2312 8.6550614z" filter="url(#g)" opacity=".5" transform="matrix(-.24491861 .05747561 -.05747561 -.24491861 -4.056859 97.748517)"/><path d="m-139.86237-5.7834461-9.02205 8.673446.78834-9.1662897-2.25712-10.7640902 8.83162 3.479468 10.25152 3.12575z" filter="url(#h)" opacity=".5" transform="matrix(-.24491861 .05747561 -.05747561 -.24491861 4.900452 52.690866)"/><path d="m-139.78851-2.9543271-10.33118 3.38856365.67369-9.17910895.94046-13.1248226 8.25468 7.60554 11.3543 8.9636604z" filter="url(#i)" opacity=".5" transform="matrix(-.24491861 .05747561 -.05747561 -.24491861 22.586945 46.04545)"/><path d="m-48.303316 27.216647-1.519927-2.377558-2.386078-2.304702 3.074215.251483 3.70435-1.11395-1.388254 2.64972z" filter="url(#j)" opacity=".5" transform="matrix(-.65654865 .15407376 -.15407376 -.65654865 67.622447 113.15454)"/><path d="m-62.049461 30.181898 2.609058-3.921014 1.742942-4.009614 1.101389 4.344525 2.838402 2.726397-3.711536-.397374z" filter="url(#k)" opacity=".5" transform="matrix(-.65654865 .15407376 -.15407376 -.65654865 54.996677 95.722264)"/><path d="m-67.639566 33.20701-4.664615-3.06567-5.965171-1.666206 5.858153-2.655714 4.489875-4.702924-.414034 6.001125z" filter="url(#l)" opacity=".5" transform="matrix(-.65654865 .15407376 -.15407376 -.65654865 -19.489898 116.37478)"/><path d="m-62.797581 59.250327-3.747685-3.869953-3.29496-2.607571 4.554538-1.554104 5.313883-1.263562-2.37614 4.197137z" filter="url(#n)" opacity=".5" transform="matrix(-.65654865 .15407376 -.15407376 -.65654865 58.409854 143.22373)"/><path d="m-32.394168 38.711693.472116-5.854465-.929566-4.203252 4.077466 2.740533 4.689108 1.524012-4.080621 2.719747z" filter="url(#o)" opacity=".5" transform="matrix(-.65654865 .15407376 -.15407376 -.65654865 87.671608 66.153266)"/><path d="m-39.309885 41.548085-3.949868-3.474533-4.876775-1.996622 5.281015-1.453614 4.900907-2.952056-1.354113 5.479831z" filter="url(#p)" opacity=".5" transform="matrix(-.65654865 .15407376 -.15407376 -.65654865 19.767656 106.49835)"/><path d="m-59.225973 39.15776-3.234755-.621874-3.52071.006 3.074796-3.35862 1.424903-2.186997 1.415358 2.858015z" filter="url(#q)" opacity=".5" transform="matrix(-.65654865 .15407376 -.15407376 -.65654865 68.610037 82.975317)"/><path d="m-78.098576 64.772227 4.836886 1.955736 5.757926 1.046472-4.012304 3.440005-3.663752 3.971696-.154137-5.540876z" filter="url(#t)" opacity=".5" transform="matrix(-.65654865 .15407376 -.15407376 -.65654865 -5.590532 114.40644)"/><path d="m-45.411477 58.834161-3.189333-1.224739-2.727072-.94547 2.978804-2.04424 2.099255-1.676485.428339 3.334691z" filter="url(#u)" opacity=".5" transform="matrix(-.65654865 .15407376 -.15407376 -.65654865 76.897296 89.861694)"/><path d="m-139.86237-5.7834461-9.02205 8.673446.78834-9.1662897-2.25712-10.7640902 8.83162 3.479468 10.25152 3.12575z" filter="url(#h)" opacity=".5" transform="matrix(-.05747561 -.24491861 .24491861 -.05747561 43.139074 2.167482)"/><path d="m-139.78851-2.9543271-10.33118 3.38856365.67369-9.17910895.94046-13.1248226 8.25468 7.60554 11.3543 8.9636604z" filter="url(#i)" opacity=".5" transform="matrix(-.05747561 -.24491861 .24491861 -.05747561 26.996714 9.298036)"/><path d="m-48.303316 27.216647-1.519927-2.377558-2.386078-2.304702 3.074215.251483 3.70435-1.11395-1.388254 2.64972z" filter="url(#j)" opacity=".5" transform="matrix(-.15407376 -.65654865 .65654865 -.15407376 74.391724 58.003648)"/><path d="m-62.049461 30.181898 2.609058-3.921014 1.742942-4.009614 1.101389 4.344525 2.838402 2.726397-3.711536-.397374z" filter="url(#k)" opacity=".5" transform="matrix(-.15407376 -.65654865 .65654865 -.15407376 -7.383134 37.276148)"/><path d="m-67.639566 33.20701-4.664615-3.06567-5.965171-1.666206 5.858153-2.655714 4.489875-4.702924-.414034 6.001125z" filter="url(#l)" opacity=".5" transform="matrix(-.15407376 -.65654865 .65654865 -.15407376 9.770972 10.295716)"/><path d="m-62.797581 59.250327-3.747685-3.869953-3.29496-2.607571 4.554538-1.554104 5.313883-1.263562-2.37614 4.197137z" filter="url(#n)" opacity=".5" transform="matrix(-.15407376 -.65654865 .65654865 -.15407376 31.084906 42.501076)"/><path d="m-32.394168 38.711693.472116-5.854465-.929566-4.203252 4.077466 2.740533 4.689108 1.524012-4.080621 2.719747z" filter="url(#o)" opacity=".5" transform="matrix(-.15407376 -.65654865 .65654865 -.15407376 3.221984 66.791529)"/><path d="m-39.309885 41.548085-3.949868-3.474533-4.876775-1.996622 5.281015-1.453614 4.900907-2.952056-1.354113 5.479831z" filter="url(#p)" opacity=".5" transform="matrix(-.15407376 -.65654865 .65654865 -.15407376 26.591299 58.132992)"/><path d="m-59.225973 39.15776-3.234755-.621874-3.52071.006 3.074796-3.35862 1.424903-2.186997 1.415358 2.858015z" filter="url(#q)" opacity=".5" transform="matrix(-.15407376 -.65654865 .65654865 -.15407376 72.462879 8.271643)"/><path d="m-88.265392 72.279389-5.399314-.300168-7.322084 2.108468 3.106775-4.679448.947952-7.326216 5.224347 5.66715z" filter="url(#s)" opacity=".5" transform="matrix(-.15407376 -.65654865 .65654865 -.15407376 16.070622 1.536633)"/><path d="m-78.098576 64.772227 4.836886 1.955736 5.757926 1.046472-4.012304 3.440005-3.663752 3.971696-.154137-5.540876z" filter="url(#t)" opacity=".5" transform="matrix(-.15407376 -.65654865 .65654865 -.15407376 4.694851 33.794558)"/><path d="m-45.411477 58.834161-3.189333-1.224739-2.727072-.94547 2.978804-2.04424 2.099255-1.676485.428339 3.334691z" filter="url(#u)" opacity=".5" transform="matrix(-.15407376 -.65654865 .65654865 -.15407376 17.081249 21.931133)"/><path d="m-139.86965-3.0771184-10.36001 3.66205157.91413-9.28987787.86649-13.0008283 8.15651 7.589292 11.2312 8.6550614z" filter="url(#g)" opacity=".5" transform="matrix(-.24491861 .05747561 -.05747561 -.24491861 42.032907 38.282391)"/><path d="m-139.86237-5.7834461-9.02205 8.673446.78834-9.1662897-2.25712-10.7640902 8.83162 3.479468 10.25152 3.12575z" filter="url(#h)" opacity=".5" transform="matrix(-.24491861 .05747561 -.05747561 -.24491861 30.292385 72.280029)"/><path d="m-139.78851-2.9543271-10.33118 3.38856365.67369-9.17910895.94046-13.1248226 8.25468 7.60554 11.3543 8.9636604z" filter="url(#i)" opacity=".5" transform="matrix(-.24491861 .05747561 -.05747561 -.24491861 13.314153 100.00751)"/><path d="m-62.049461 30.181898 2.609058-3.921014 1.742942-4.009614 1.101389 4.344525 2.838402 2.726397-3.711536-.397374z" filter="url(#k)" opacity=".5" transform="matrix(-.65654865 .15407376 -.15407376 -.65654865 10.623187 112.64561)"/><path d="m-93.419907 26.365763-3.424433-1.172966-4.26871-.44105 2.806006-2.522007 2.989142-3.024779.7709 3.764809z" filter="url(#m)" opacity=".5" transform="matrix(-.65654865 .15407376 -.15407376 -.65654865 -37.11926 102.92637)"/><path d="m-62.797581 59.250327-3.747685-3.869953-3.29496-2.607571 4.554538-1.554104 5.313883-1.263562-2.37614 4.197137z" filter="url(#n)" opacity=".5" transform="matrix(-.65654865 .15407376 -.15407376 -.65654865 20.746515 96.147047)"/><path d="m-32.394168 38.711693.472116-5.854465-.929566-4.203252 4.077466 2.740533 4.689108 1.524012-4.080621 2.719747z" filter="url(#o)" opacity=".5" transform="matrix(-.65654865 .15407376 -.15407376 -.65654865 25.323328 121.94957)"/><path d="m-59.225973 39.15776-3.234755-.621874-3.52071.006 3.074796-3.35862 1.424903-2.186997 1.415358 2.858015z" filter="url(#q)" opacity=".5" transform="matrix(-.65654865 .15407376 -.15407376 -.65654865 34.925426 73.5975)"/><path d="m-91.916671 43.82608-4.89118-2.515647-5.484379-2.660873 5.852547-2.75687 4.057564-2.936648-.518695 6.112483z" filter="url(#r)" opacity=".5" transform="matrix(-.65654865 .15407376 -.15407376 -.65654865 -37.400273 117.87441)"/><path d="m-88.265392 72.279389-5.399314-.300168-7.322084 2.108468 3.106775-4.679448.947952-7.326216 5.224347 5.66715z" filter="url(#s)" opacity=".5" transform="matrix(-.65654865 .15407376 -.15407376 -.65654865 55.383798 114.14668)"/><path d="m-45.411477 58.834161-3.189333-1.224739-2.727072-.94547 2.978804-2.04424 2.099255-1.676485.428339 3.334691z" filter="url(#u)" opacity=".5" transform="matrix(-.65654865 .15407376 -.15407376 -.65654865 23.384318 88.64245)"/><path d="m-88.265392 72.279389-5.399314-.300168-7.322084 2.108468 3.106775-4.679448.947952-7.326216 5.224347 5.66715z" filter="url(#s)" opacity=".5" transform="matrix(-.65654865 .15407376 -.15407376 -.65654865 48.679612 118.24625)"/><path d="m-139.86965-3.0771184-10.36001 3.66205157.91413-9.28987787.86649-13.0008283 8.15651 7.589292 11.2312 8.6550614z" filter="url(#g)" opacity=".5" transform="matrix(-.24491861 .05747561 -.05747561 -.24491861 28.584159 110.59299)"/><path d="m-139.86237-5.7834461-9.02205 8.673446.78834-9.1662897-2.25712-10.7640902 8.83162 3.479468 10.25152 3.12575z" filter="url(#h)" opacity=".5" transform="matrix(-.24491861 .05747561 -.05747561 -.24491861 67.688262 68.583124)"/><path d="m-139.78851-2.9543271-10.33118 3.38856365.67369-9.17910895.94046-13.1248226 8.25468 7.60554 11.3543 8.9636604z" filter="url(#i)" opacity=".5" transform="matrix(-.24491861 .05747561 -.05747561 -.24491861 73.066283 91.478049)"/><path d="m-48.303316 27.216647-1.519927-2.377558-2.386078-2.304702 3.074215.251483 3.70435-1.11395-1.388254 2.64972z" filter="url(#j)" opacity=".5" transform="matrix(-.65654865 .15407376 -.15407376 -.65654865 68.947612 120.05391)"/><path d="m-62.049461 30.181898 2.609058-3.921014 1.742942-4.009614 1.101389 4.344525 2.838402 2.726397-3.711536-.397374z" filter="url(#k)" opacity=".5" transform="matrix(-.65654865 .15407376 -.15407376 -.65654865 16.568705 111.65719)"/><path d="m-67.639566 33.20701-4.664615-3.06567-5.965171-1.666206 5.858153-2.655714 4.489875-4.702924-.414034 6.001125z" filter="url(#l)" opacity=".5" transform="matrix(-.65654865 .15407376 -.15407376 -.65654865 14.530412 118.1764)"/><path d="m-93.419907 26.365763-3.424433-1.172966-4.26871-.44105 2.806006-2.522007 2.989142-3.024779.7709 3.764809z" filter="url(#m)" opacity=".5" transform="matrix(-.65654865 .15407376 -.15407376 -.65654865 28.136503 129.16201)"/><path d="m-62.797581 59.250327-3.747685-3.869953-3.29496-2.607571 4.554538-1.554104 5.313883-1.263562-2.37614 4.197137z" filter="url(#n)" opacity=".5" transform="matrix(-.65654865 .15407376 -.15407376 -.65654865 58.685022 138.66458)"/><path d="m-32.394168 38.711693.472116-5.854465-.929566-4.203252 4.077466 2.740533 4.689108 1.524012-4.080621 2.719747z" filter="url(#o)" opacity=".5" transform="matrix(-.65654865 .15407376 -.15407376 -.65654865 70.391022 121.63431)"/><path d="m-39.309885 41.548085-3.949868-3.474533-4.876775-1.996622 5.281015-1.453614 4.900907-2.952056-1.354113 5.479831z" filter="url(#p)" opacity=".5" transform="matrix(-.65654865 .15407376 -.15407376 -.65654865 13.939121 105.65826)"/><path d="m-59.225973 39.15776-3.234755-.621874-3.52071.006 3.074796-3.35862 1.424903-2.186997 1.415358 2.858015z" filter="url(#q)" opacity=".5" transform="matrix(-.65654865 .15407376 -.15407376 -.65654865 65.445443 126.32609)"/><path d="m-91.916671 43.82608-4.89118-2.515647-5.484379-2.660873 5.852547-2.75687 4.057564-2.936648-.518695 6.112483z" filter="url(#r)" opacity=".5" transform="matrix(-.65654865 .15407376 -.15407376 -.65654865 39.761579 92.212037)"/><path d="m-78.098576 64.772227 4.836886 1.955736 5.757926 1.046472-4.012304 3.440005-3.663752 3.971696-.154137-5.540876z" filter="url(#t)" opacity=".5" transform="matrix(-.65654865 .15407376 -.15407376 -.65654865 33.954712 121.98521)"/><path d="m-45.411477 58.834161-3.189333-1.224739-2.727072-.94547 2.978804-2.04424 2.099255-1.676485.428339 3.334691z" filter="url(#u)" opacity=".5" transform="matrix(-.65654865 .15407376 -.15407376 -.65654865 79.646482 118.11885)"/></g><path d="m73.742187 29.103516c-3.144084-.06651-6.304175.08539-9.4375.445312-12.533084 1.439646-24.733933 6.228021-33.757812 14.304688-9.024666 8.077244-13.253695 18.253691-12.134766 28.003906 1.11893 9.750214 7.544197 18.704441 18.164063 24.52539 21.238531 11.641808 51.902434 8.189848 69.964848-7.976562 9.03111-8.08301 13.23504-18.279671 12.08984-28.039063-1.1452-9.759391-7.58751-18.718113-18.20703-24.539062-7.96412-4.365277-17.249388-6.525081-26.681643-6.724609zm-.175781 7.640625c8.363796.190947 16.506694 2.112449 23.189453 5.77539 8.909841 4.883814 13.470301 11.692288 14.296871 18.736328.82658 7.044041-2.03127 14.689294-9.60156 21.464844-15.140806 13.55149-43.387884 16.738191-61.207029 6.970703-8.909461-4.883444-13.443253-11.67323-14.25-18.703125s2.071007-14.670568 9.642578-21.447265c7.572242-6.777405 18.371685-11.127611 29.537109-12.410157 2.791347-.320635 5.604646-.450368 8.392578-.386718z" fill="#313a34" transform="matrix(1.1086408 0 0 1.1103475 -9.820944 -7.262349)"/></g></svg>