<svg height="500" viewBox="0 0 132.29167 132.29167" width="500" xmlns="http://www.w3.org/2000/svg" xmlns:xlink="http://www.w3.org/1999/xlink"><radialGradient id="a" cx="86.055344" cy="45.671474" gradientTransform="matrix(1.3920409 -1.2344845 -1.6193442 -.90033192 -5.63355 198.80507)" gradientUnits="userSpaceOnUse" r="40.308271"><stop offset="0" stop-color="#80241b" stop-opacity="0"/><stop offset=".12393165" stop-color="#80231b" stop-opacity="0"/><stop offset=".41729519" stop-color="#80241b" stop-opacity=".1"/><stop offset=".66706532" stop-color="#80241b" stop-opacity=".5"/><stop offset=".91683543" stop-color="#7e241b" stop-opacity=".75"/><stop offset="1" stop-color="#80241b"/></radialGradient><filter id="b" color-interpolation-filters="sRGB" height="1.136717" width="1.100977" x="-.050488" y="-.068359"><feGaussianBlur stdDeviation="2.3457468"/></filter><filter id="c" color-interpolation-filters="sRGB" height="1.343312" width="1.270535" x="-.135267" y="-.171656"><feGaussianBlur stdDeviation="2.1668994"/></filter><radialGradient id="d" cx="558.03278" cy="143.89354" gradientTransform="matrix(-.01507419 -.52171267 .92682361 -.02678069 177.31263 269.04045)" gradientUnits="userSpaceOnUse" r="46.005024" spreadMethod="reflect"><stop offset="0" stop-color="#f50"/><stop offset=".25699303" stop-color="#ff4d03"/><stop offset=".375" stop-color="#ffb094"/><stop offset=".43240094" stop-color="#f53d00"/><stop offset=".70687646" stop-color="#fa3a07"/><stop offset="1" stop-color="#f50"/></radialGradient><linearGradient id="e" gradientUnits="userSpaceOnUse" spreadMethod="reflect" x1="350.68433" x2="331.92279" y1="109.4707" y2="102.783"><stop offset="0" stop-color="#be1f01"/><stop offset="1" stop-color="#c73205"/></linearGradient><filter id="f" color-interpolation-filters="sRGB" height="1.115102" width="1.082336" x="-.041168" y="-.057551"><feGaussianBlur stdDeviation="1.6688495"/></filter><filter id="g" color-interpolation-filters="sRGB" height="1.117979" width="1.117979" x="-.05899" y="-.05899"><feGaussianBlur stdDeviation="1.943847"/></filter><g><path d="m74.578489 27.698502c-3.48566-.07385-6.989066.09481-10.462798.494451-13.894688 1.598507-27.421047 6.915267-37.425288 15.883174-10.005113 8.968548-14.693587 20.26794-13.453096 31.094067 1.240491 10.826126 8.363804 20.768429 20.137421 27.231716 23.545902 12.92645 57.541156 9.09358 77.565902-8.856766 10.01226-8.97495 14.6729-20.296787 13.40329-31.133104-1.26962-10.836315-8.41183-20.78361-20.18506-27.246886-8.829362-4.846974-19.123389-7.245107-29.580371-7.466652z" filter="url(#b)" opacity=".5"/><g><g opacity=".95"><path d="m71.932653 25.052667c-3.485659-.07385-6.989065.09481-10.462797.494451-13.894688 1.598507-27.421047 6.915267-37.425288 15.883174-10.005113 8.968548-14.6935868 20.267941-13.453096 31.094067 1.240491 10.826126 8.363804 20.76843 20.137421 27.231706 23.545902 12.926455 57.541156 9.093575 77.565887-8.856756 10.01225-8.97495 14.6729-20.296787 13.40329-31.133103-1.26962-10.836316-8.41183-20.78361-20.18506-27.246886-8.829347-4.846975-19.123374-7.245108-29.580357-7.466653z" fill="#80241b"/><path d="m99.479096 36.235004c21.651074 11.886018 24.400034 35.009255 5.995024 51.507436-18.40524 16.49862-51.061894 20.18446-72.712382 8.298568-21.65103-11.885609-24.2949278-34.95982-5.895645-51.452874 9.199578-8.246599 21.948998-13.320561 35.085578-14.831852 13.136678-1.511304 26.701996.535975 37.527425 6.478722z" fill="#80241b"/><path d="m97.604159 37.916498c20.457791 11.230942 23.046851 33.029926 5.661871 48.613748-17.385231 15.584264-48.171085 19.060674-68.628294 7.829873-20.457733-11.230532-22.949385-32.975846-5.564157-48.559902 8.692616-7.792136 20.710579-12.57093 33.113053-13.997769 12.402473-1.426838 25.18864.498787 35.417527 6.114052z" fill="#ae1c01" filter="url(#f)" opacity="1"/><circle cx="66.145836" cy="39.542774" fill="#c93801" filter="url(#g)" opacity="1" r="39.542774" transform="matrix(-1.0911562 .12552257 .08859391 .77318278 134.81754 27.275014)"/><g transform="matrix(-.9961947 .08715574 -.08715574 -.9961947 376.394925 86.427485)"><path d="m300.1263 81.543421c8.3425.767723 16.93681.0027 24.87546-2.275493l.27258-.204396-.24792-.000529-4.94785.742579-.00009-.247965c1.89398-.216421 5.56122-2.206299 7.32831-1.032825.0944-.03131.18944-.06119.28359-.09294.70938-.572781 1.69945-.859505 2.76736-1.012714 2.08732-.821989 4.1081-1.758482 6.04471-2.808719l-.0955-.000053.53107-.235731c.00079-.000529.001-.0011.002-.0013.46902-.260237.93096-.529577 1.38944-.80335-.28797-.0548-.57601-.110082-.87628-.146695-2.83039-.345091-6.14267.09735-8.71607.939424l-.24703-.164785.00009.164968c-.62344-.157097-1.60328-.52374-1.73192.247385-3.17433-.746882-6.58447.599747-9.65217 1.061389-1.29933.195443-2.85557-.381735-3.9545.422797l-.24745.000137-4.70074-.238-12.36938.238006-4.94813.247679-.2474-.000265-2.96886-.60937-7.6695-.379984-2.96866-.742148-.24693.000182c-.007.0052-.0159.0064-.0228.01148 6.93109 3.85312 15.02182 6.153566 23.36432 6.921292zm28.36402-7.34545-.00005-.08248-.12398.000048zm-.12403-.08244-.37101-.247735.00013.247449zm-4.82401 4.947933-.24754-.247827zm-36.2852-3.545962-.16445-.08286zm-10.63114-.971084c.66006-.24284 1.37593-.175974 2.13761-.206187 2.2988-.09129 6.52568-.685784 8.41133.764947l7.64732.431988 14.12358-.194505 29.19331-3.453945-.00018-.246936-3.71087.246991c-.15314-.886915-2.42398.143957-2.969.495012l-.4948-.74203-1.12773.355749-.43853.138525-.90778-.000053.00009.247965.59456-.149254-2.82106.891302-.0001-.247968 1.23698-.246594-.00009-.247965-1.73155-.000019-.00014-.247451 9.40141-1.236874-.00018-.246936-9.64848.989608-.00014-.247449.7424-.0011-.49462-.495097-.00018-.246935 4.30281-.247595.39786.000053-.0584-.01963 1.78879-.10287.99102-.6193 5.93756-.742103-.00014-.247449-12.86483 1.483725.00019-.494339 6.18488-.98969-.00018-.246936 1.73168.247468-1.2371-.74213.00026.4949-.2474-.000264-.24708-.247267-.00026.246891-1.97914-.247332.00027.4949-8.65906 1.236461-.24754-.12333-.00014-.122952-.24637-.000264.24646.123756.00014.122952-1.97951.000074.00026-.246891.98924-.000082.00027-.247404-1.4841-.000158c-.028.213939-.11424.369517-.22691.494736l-1.50483-.000529.0001.247965 1.47612-.211148c-.43916.435954-1.33426.350073-1.9715.210862l.00027.4949-2.22696.000212c-.13409-.968804-1.40618-.742069-2.2263-.742564l.00013.247452.98952.494818-2.96857.247092-1.23753-.494212.00014.247451.4949-.000264.00014.247451-3.46388-.494985-2.96876.000156.00027.494387-.49471-.494064c-2.04794.637537-6.50328 1.466741-8.41169.247081-4.8638.549217-10.27753-.722614-15.23336-.704554-1.53731.0057-4.41414-.847113-5.54795.457163l-.98976.000037.0001-.742307c2.35645-.0016 7.01666-1.904994 8.90627-.741741l1.48414-.000264.24741.000264c.95569-.42156 2.06897-.591431 2.96875-.000156l.99007.494348.2469.000264 1.97885-.24757.74239.989343c1.84706-.835948 4.66399.03774 6.67952-.0028 5.30392-.106376 10.55277-.497816 15.83344-.729131 1.87897-.08213 6.5723.672703 7.9169-.752049l.24745-.000137 1.97909.247845-.00014-.247449-.74179-.000055-.00014-.247452 1.23656-.247668-.00011.742304.98962-.247486-.00013-.247451-.7418-.000056-.00013-.247451c1.08211.139779 2.92249.946697 3.21639-.494634l1.23645.494636.00011-.742304.24778-.247031 3.46347-.247367-.24731-.74268-13.35917 1.732526.00015-.74282c5.33484.990324 10.52681-1.532674 15.83345-1.731333l-.2479-1.731968.74264-1.23706-.49514.495131-.98914-.742225-.24796.000093-.74189.742251.0001-.742307-.98968.98928c-.6692-1.031142-1.72497-.667248-2.72148-.24692-.0896-.788945.12713-1.537909-.74173-1.732116l-.00014-.247451 1.23693-.495076.00027-.246374-33.39844 2.181881-11.87537-1.578449-16.32839 1.085776-4.80907-.659876c2.49278 4.16088 6.19994 8.022916 11.11926 11.311782 1.02804.687335 2.09047 1.333685 3.17994 1.943875zm44.69074-4.884237-.49555-.247219.00013.247451zm-8.165 6.184876-.24764-.246798zm16.9055-2.06135-.16497-.08291zm-3.29847-2.391545-.24755-.247825zm.74216-.247349.98925-.000082-.98934-.247883zm1.73146-.247946-.24764-.246796zm10.88558.742796-.24755-.247827zm-.90732-.08249-.16497-.0829zm-3.05071-.907026 2.22631-.247706-2.22654-.247708zm3.21606-.247743-.24759-.247311zm.24709-1.48428-.00026-.494901-.49434-.000193zm-4.45312-.494901-.24759-.247311zm5.19529.247552-.24707-.247266zm-10.80332-1.072258-.1645-.08235zm1.15523.08291-.74253-.495514.00009.247965zm6.18472.494409.98976-.000037-.98994-.246899zm-71.24996-6.679679-.24759-.247314zm73.80611 6.349817-.1645-.08235zm-73.80639-6.844718 1.979-.000119-1.97862-.247287zm2.7213-.000018-.24707-.247267zm63.33381 5.442947 3.95785-.247687-3.95799.000238zm6.43198.247333-.24759-.247312zm-2.22668-.495157 2.7213-.000019c-.31394-.359217-.8374-.538191-1.36077-.538191-.52336 0-1.04658.178993-1.36053.53821zm5.19549-.246788-.24754-.247827zm-75.70436-6.679816-1.48334-.494967.00014.247449zm-1.73061-.247894-.00018-.246935-.98938-.24737-.00026.247407zm76.52756 6.597251-.16454-.08183zm-6.01989-.65895 5.44303-.247954-.00027-.494901-1.23655.247669-.49532-.742075-.2475.741929zm-66.30175-5.938118-.24764-.246796zm30.75956 2.63924-.16502-.08239zm6.84431.08213-.24759-.247311zm34.38822 2.7212 2.22678-.247147-2.22692-.000265zm2.96857-.247091-.24707-.247267zm-4.94765-.74203-.24754-.247827zm11.62779.49493-.24754-.247827zm-18.55523-1.731788-.24702-.247782zm6.76253.41216-.16501-.08239zm-3.05147-.412216.74269-.247303zm-2.72144-.247433-.24702-.247782zm17.4832-.660011-.0826-.164922zm1.3196-.08219-.24759-.247311zm-82.63089-18.060004-.24703-.247782zm-3.46337-.494937.98924-.000082-.98942-.246854zm-.65991-.08212-.16497-.08291zm-4.28811-.412509-.00014-.247452-.45162-.150521c-.007.02742-.0149.05471-.0217.08214zm6.51456.412252-.16446-.08286zm1.15458-.164581.98976-.000037-.98985-.247928zm6.92702.494509-.24754-.247828zm-5.68995-.742133 5.68992-.247623-5.69006.000172zm6.18472.494406-.24708-.247266zm.98957-.246973-.24703-.247782zm-1.23641-.495149.98962-.247489zm4.20502.247544-.24707-.247269zm.4952-1.236922-.24754-.247827zm11.21482-.577641-.1645-.08235zm-7.25615-.90665-.24759-.247311zm1.23669-.00022 1.7314-.24743-1.73168-.24747zm6.67957.494647-.24712-.246753zm-3.62805-.824222-.16501-.08239zm26.38856.577151.49462-.495175-.49476.247726zm7.42187.494747-.24754-.247827zm-6.18494-.989822.98975-.000037-.98989-.247412zm2.96884.247812-.98947-.495335-.00053.24792zm.4949-.000265 1.4842-.742148-1.23734-.247275-.74166.247394zm1.73193-.247385 2.47334.000074-2.47348-.247523zm2.7213-.000019.49444-.742111zm-27.70869-3.216309.74231.0001-.74198-.246991zm3.21667.000264.24662-.49457zm28.2029 1.978782-.24763-.246798zm1.81418-.57685-.16501-.08239zm-20.61628-1.896546.49462-.495176-.49485-.000238zm-.41242-.08277-.16501-.08239zm23.42054 1.814041-.24759-.247311zm-66.59319-5.885804 5.48567-1.535883-1.97923.494975c-.70709-.207526-1.62858-.302258-2.49943-.229563-.34968.419552-.68408.843557-1.00701 1.270471zm46.55368 3.906924.74203-.494799zm24.73963 1.73181.49457-.494663-.4942.247256zm-22.01795-1.979232-.49518-.494625zm-14.84417-1.731843-.24759-.247312zm38.26406 3.298391-.0826-.16492zm14.18398 1.154827-.24707-.247267zm-80.4039-7.17449-.74225-.741892zm52.44808 4.452702.49496-.742066-.74208.495316zm.98995-.494376-.24759-.247312zm17.31793 1.483997.74179.000056-.74197-.246991zm2.06139-.08213-.16502-.08239zm3.3807.08205-.24712-.246753zm-72.7345-9.153218.2475-.741929zm32.6564 2.226278-.24712-.246753zm7.91674.494985-.24708-.247266zm-5.69047-.742177-.24708-.247267zm8.08174.577376-.0826-.16492zm-43.21152-3.793487.74179.000058-.74193-.247507zm30.42958 2.473941-.24707-.247266zm5.93722.495059-.24703-.247782zm-34.63539-3.216431.7423.000101-.74249-.247036zm2.7213-.000018-.24707-.247267zm.24745-.000138.4951-.494615-.49491.000265zm31.66692 2.721219-.24763-.246798zm-28.45076-2.720997 1.23702-.24711-1.23664-.000264zm-2.22658-.247195-.24759-.247311zm.24744-.000137 1.73193-.247386-1.73155-.000018zm31.91382 2.721549-.24703-.247782zm1.48503-.247719.74179.000058-.74193-.247507zm18.55502-.495173 1.48388-1.236533-2.22697.000212zm-39.58374-4.205443.74217-.247349zm-1.23735-.247275-.24754-.247827zm.98976-.000037-.00026-.494384-.49434-.000196zm-6.59694-1.071515-.16497-.08291zm11.54485-.412856-.98966-.742267.00014.247449zm3.46327.246973-.24711-.24675zm-8.16361-1.236591-.00026-.4949-.4949.000264zm.5773-.08229-.16497-.08291zm-1.56719-.165123.00019-.49434-.49485-.000241zm-.74193-.247508-1.23697-.494678-.00053.24792zm6.18467.494922-.24707-.247266zm-8.16385-.741738.49438-.000265.00024-.494855-.49485-.000238zm7.00941.412493-.16496-.0829zm-13.93666-1.402413.24731-.247589-.1691-.112835c-.0817.03663-.16317.07387-.24468.110869zm3.46327.246972-2.22634-.74205.00009.247968zm20.78187 1.237192-.24759-.247314zm-8.65884-.989428-.24759-.247311zm5.68977.495197-.24755-.247827zm-8.41129-2.722152-.24763-.246796zm42.19309 3.5996c.60759.07236 1.27199.09444 1.96205.08088-.96517-.566094-1.95434-1.100844-2.96479-1.604473-.1079.05066-.29134.100518-.37008.150736l-.13353-.400735c-.14661-.07108-.29486-.139584-.44232-.209363l-.90843.363006.00014.247449c.73897 0 1.91854.08036 1.23672.989537.46187.187954 1.01265.310602 1.62024.382965zm-44.91471-4.093966-.24708-.247269zm11.62755.989785-.24703-.247783zm26.55393 2.143683-.16501-.08239zm-34.57104-3.762219c.3079.01352.69051-.09297 1.09043-.113133l-1.23724-.989582.24791.741699-.74301-.247081c.10082.461023.33401.594571.64191.608097zm35.47846 3.102406 1.73155.000019-1.73135-.494358zm-30.24663-2.910792c.4934.05313.91173-.134874 1.05352-.80006l-1.23693.495075.0001-.742305-.49485-.000238-.24755.742442c.30661.154562.62967.273209.92571.305086zm31.97837 2.416471 1.33679-.243051c-.0777-.03514-.15575-.06968-.23363-.104476l-1.1033.100078zm-36.11963-3.464039-.24763-.246798zm26.47094 2.226684.98975-.000037-.98938-.247367zm-11.88518-1.217227c.47533.04494 1.03759-.04118 1.50146-.02633 2.30473.07372 4.64365.0265 6.91994.04777.94999.0087 1.4457.389488 2.22673-.288131.76816.489104 1.74801.601335 2.47437.000164-1.10759-.432937-3.00217-1.350415-3.95861-.247771l-.24745.000137-.4948-.742029.00009.98924-4.45313-.494901-1.73187-.494405.24787.742214c-.64744-.351303-2.55456-.967303-2.72131.000016l-.74295-.247594c.1159.540681.50432.716684.97966.761624zm13.1225-.26653.98942.246853-1.23711-.74213zm-15.33881-.49539.49458-.49466-.4942.247256zm18.55468.741987.7423.000103-.31855-.106201c-.14078-.0447-.28249-.08728-.42376-.130966zm-3.711-.741736-.24755-.247827z" fill="url(#d)" opacity="1"/><path d="m299.05016 81.042581-.24759-.247314zm-7.58717-1.072039-.16449-.08235zm24.98728.24706-.16501-.08239zm-17.15305-1.649058-.24708-.247266zm3.95851-.000193-1.97919-.246817zm16.82284 1.23734c.57959 0 1.64828.103076 2.65098.06853.68781-.170053 1.37146-.351086 2.05038-.543216.0939-.08157.19101-.160936.24645-.267378l.24796-.000092-.27258.204396c.80386-.230691 1.60114-.476367 2.39059-.738066-.48188-.231881-1.02638-.33637-1.61365-.333626-1.88767.0088-4.15072.98557-5.70022 1.36149zm-27.21332-3.216027-.24759-.247311zm17.06996 1.484091-.24707-.247267zm-19.29542-1.732222.2474.000264c1.2632-.730313 3.72332-.247816 5.19558-.247816 3.51598 0 7.13367.291742 10.63729-.04199 1.8478-.175898 4.51471-.835637 6.18538.04212l.24745-.000138c1.26098-.576434 2.6168-.149275 3.96485-.363273 3.13723-.497511 6.38337-1.698823 9.64182-1.120912 0-.893591 1.09191-.365392 1.73192-.247388l-.00009-.164965.24703.164782c3.12069-.783934 6.31108-1.079389 9.54417-.763743.62232-.37065 1.2349-.753087 1.8367-1.148604l.00001-.314357.49616-.01468c.63947-.43179 1.26745-.876782 1.88122-1.337162 1.60474-1.203688 3.06299-2.467309 4.38234-3.777396-.85155-.0099-1.7032-.0041-2.55422-.06577l-.00013-.247452 3.29139-.43879c2.18424-2.29244 3.94674-4.720307 5.28412-7.230589l-2.14344.000256-.00014-.247451 2.33791-.130046c.0223-.04335.0448-.08666.0669-.130055-5.32918-1.239378-11.43848.0123-17.00065.0123l.24713-.494525c-1.47844.06828-3.22537.0054-3.95815 1.484334l5.93718-.494697c-.77707 1.435888-1.67097.675645-2.96881.741947l.49532.742074-2.96908-.494228.00014.247449.98976-.000037-.00027.24689-1.48376-.247046.00004.989756c-.65462.01238-.94384-.05626-.98961-.742784l-.98971-.741754 1.73155.000019.0001-.742307-1.73192.247388-1.48447.247248.2473.742682-1.23673-.989536-.24792-.000529-.24704.742489-1.23668-.990052 3.95824-.495091-.24778-.49425 1.97965.247378-.24772-.494763 4.94812-.247679-.00018-.246936-.74193-.247507-.00014-.247449 4.45276-.247965c1.07568.207815 2.10939.532006 2.96909-.247044l1.23682.24723-.24717.495038 6.67973-.989452 2.72092.247388-.00013-.247449-.74231-.000103-.00013-.247449 1.2372-.000175-.00014-.247451-2.22672-.494644 2.58019.178014c.079-.221205.15402-.442928.22676-.664895l-11.47529.02106-9.8863.713581-.00014-.247449 13.3602-.742167-.24769-.495279 8.54798-.22167c.91844-3.214394 1.19128-6.493322.82455-9.733053-.67637-.01206-1.31703.111935-1.70323.553879l-2.72144-.247433.00026-.246891 4.40949-.192095c-.0111-.09342-.0199-.186979-.032-.280326l-.00053.000529c-4.68598.06027-9.34287.401254-14.02743.459176-5.98674.07397-11.42914-.405191-17.31642 1.249884l-.00026.247407 1.23758-.247582-.00027.247407-1.59932.457145 16.19569-1.43664 6.92702-.317839 2.2267-.186978.74207.494956.00014.247449-8.90659.247358.00018.246936 3.95851-.000193.00014.247449-9.40066.742066.00014.247449c2.17931.472279 6.25721.112535 8.41104-.494578l-1.23689.494562-.00026.247404 6.43311-.494882c-.50246.684051-.91364 1.185336-.49529 1.979229l-2.969.495009.49518.494625-3.46399.247322.00014.247452 6.4326-.49493c-1.02941 1.866604-4.83337 1.195793-6.67943 1.241066-3.89402.09525-8.27883-.01908-12.12287.461885-2.58479.323345-5.04849 1.491422-7.66915 1.513441l-.00027.247406c2.96306-.000248 5.63144-1.21616 8.55443-1.25599 5.65868-.07768 12.4531.704268 17.91758-.9706-1.06974 1.265674-2.91279 1.117854-4.45332 1.155705-3.5103.08684-7.11016.854099-10.62318.491416-1.08978-.112318-4.72983-.894294-4.96263.579443-.81962-.140769-2.33011-.580697-2.47409.494734-1.78175-.445313-4.12194.584538-5.93732.881663-2.94228.48143-5.93173.278167-8.90642.850146-1.2919.248385-3.71077.09118-4.45371 1.237115l.74311-.495223.24694-.000183 5.44269.24793.0001-.742307 8.16542-.189259 2.47282-.800386 1.23665.000265.24745-.000138-.0002.49434.49486.000241-.24721-.494718.24693-.000183 1.23748.494724-.24786-.742212.74254.495517.24745-.000138.98948-.494937 1.23717-.989931 4.20595.989939.24694-.000183.98975-.000037.24745-.000138 1.73174-.494321c-.1477-.886669.40936-.895763.24731-.247589l4.45299.247452.00014.247451-13.11195 1.236975.00013.247449.74179.000055.00014.247452-1.97951.000074-5.44234 1.23621-14.59661 1.237287.24765-.494477-.24746.000138c-2.00687 1.505151-4.00788-.173416-6.68.494551-9.33301 2.333194-18.49345-2.798199-27.7082-.494448-2.60063.650158-4.72884.494358-7.17435.494358-1.09671 0-2.96291.224782-2.7212-.742289l-1.979.000119-.00013-.247451 1.97919-.494459.24693-.000182c.51829.863658 2.60217.348011 2.72117-.247468l.98965.742268-.49415-.494533-.00009-.247968 1.23716.000265-.2475.741929.24745-.000138.24699-.741974.49517.494626 1.73123-.494369.00053-.24792-9.89611-.06953-2.09577-.550625c.65282 2.1438 1.59661 4.247314 2.83239 6.278134 1.61306.345541 3.20477.608037 4.70641.505132 4.69087-.321122 9.38733-1.152017 14.10146-1.115647 4.60478.03562 9.04663 1.171072 13.60812 1.588429 3.88139.355258 8.44974-.110954 12.36874-.206942 7.19576-.176146 14.30899-1.975352 21.52305-1.975352l.00019.246935-1.23693.495075.00013.247452.74198.246991.00026 1.48517c1.08607-.343384 1.86028-.621729 2.72097.246875l.98972-.989793-.00014.74282.74245-.74272.24745-.000137-.00015.74282 1.48438-.495213-.74213 1.237105.24739 1.731922-15.83294 1.731378-.00014.742821c3.35073-.423543 6.67737-.594233 10.03799-1.06602 1.11576-.156601 2.73822-.871847 3.56849.07618l-3.46348.247367-.24778.247028.0008.742395-1.23748-.494726c-.30949 1.37206-2.18078.564197-3.21589.494681l.00014.247449.74231.0001-.00027.247407-.98957.246973.00006-.741792-1.23707.247624.00014.247452.7423.0001.00019.246936-1.97914-.247333-.24745.000138c-2.04473 1.191953-5.60867.689173-7.91687.745826-5.24776.1284-10.57133.50474-15.83344.729131-1.87254.07966-5.11031-1.001551-6.67954.009l-.74239-.98934-1.97886.247568-.24741-.000265-.98956-.494305c-.69543-.777563-2.16496-.542629-2.96875.000156l-.24792-.000529c-.49999-.564801-.91216-.431252-1.48414.000265-1.6912-1.306743-6.66759.735554-8.90627.74174l-.0001.742308.98975-.000038c1.45469-1.107347 3.73893-.409564 5.44249-.419705 3.82153-.02276 7.56674.37411 11.38009.420867 1.39878.0173 2.55501.57304 3.95874.246229 1.18131 1.355233 6.87714.402558 8.41173-.247597.23528.424037.51439.582316.49435.000193 1.01357.353529 2.06427.719519 2.96875-.000153l3.46337.494937-.00014-.247451-.4949.000264.00026-.247406 1.23702.494167 2.96801-.246623-.98948-.495332-.00013-.247451c1.04673 0 2.4465-.136142 2.22681.742608l2.22697-.000211-.00027-.494901c.85822.252593 2.09662.307904 2.2265-.742048l1.48461.000204.00014.247449-.98975.000037.00018.246936 1.979-.000119-.00009-.123468.24754.12333 8.65905-1.236461-.00026-.494901 1.97965.247378.00014.247451-6.18488.98969-.00019.49434 12.86483-1.483726.00014.247449-5.93756.742104-.74194.618265-6.6801.371083.00019.246936-.24769.494993.00009.247965 9.64848-.989605.00019.246935-9.4009 1.236919-.00026.247404 1.73206.000067-.00053.247919-1.23698.246595.00009.247965c1.01556-.259766 4.52307-.361551 4.70046-1.484234l.4948.74203 2.96848-.495057 3.71138-.246943.00019.246935-29.44076 3.45408-13.85372.127857-7.66922-.365432c-1.33618-1.552903-6.72414-.945258-8.66249-.78173-.66501.05611-1.38896-.06395-1.96758.178007.0738.04152.14803.08254.22209.123695.005-.0056.0124-.0089.0173-.01455l.24694-.000182 2.96865.742151 7.13241.423772zm33.52993-30.467034-.13279.01172.00026.02648zm-.13279.01172.00018-.221485.49486.000238-.00014-.247449-3.46347.247367-.00026.247404 1.48461.000204.00012.105314zm-1.48421.131593-2.60931.231836 2.60937-.09022zm-2.60931.231836-4.56516.157205-.00027.247407zm-10.25485 31.328914.7418.000056-.74198-.246992zm6.18454.24747.98943-.494421-.98957.246972zm11.75045.628603c1.07425-.360895 2.13387-.750912 3.17687-1.16934-1.32263.143994-2.55632.458399-3.17687 1.16934zm.37186-4.339392-.00013-.247449.37101.247735zm8.41159.495223.0955.000053c.14506-.07867.29151-.155834.43562-.235783zm-21.27595-3.463785-.24754-.247827zm-20.28691-1.979258 6.68014-.247102-6.67981.000212zm19.21435 1.318959-.0822-.163846zm9.48398-.08169-.24755-.247825zm-29.68793-2.721335.7423.000101-.74188-.248021zm4.20596-.000264-.24759-.247312zm22.76076 1.979379-.00013-.247451.49555.247218zm-10.39104-1.236943 6.68019-.247615c-.62592-.332746-1.30463-.462177-2.00688-.481635-1.54494-.04281-3.20471.447144-4.67289.48133zm22.10062 1.401847-.16497-.0829zm-14.67882-1.89634-.24755-.247827zm-32.90379-4.948476.98976-.000034-.98989-.247414zm1.73207.000067-.24759-.247314zm41.89208 2.391579-.1645-.08235zm.41232-.165198.98958-.246973-.24703-.247779-.74222.247861zm1.81437-.329914-.1645-.08235zm2.14448.08283-.24759-.247314zm-12.61773-1.7321-.24707-.247269zm-55.66384-6.431878-.24755-.247828zm-1.2371-1.732399-4.06328-.954636-.0695-.01749c.0417.162608.0856.324917.13064.487112 1.43918.158292 2.86114.273058 4.00217.485018zm.24745-.000141 1.23721-.000174-1.23688-.246716zm1.48443-.246732 1.2372-.000174-1.23734-.247277zm3.46361.000082-.24755-.247827zm-.90728-.08301-.16501-.08239zm29.02756 2.229379c1.91639.224811 4.45722-1.18314 6.02045-.41479l.24745-.000138.24745-.000137 2.22645-.000257.24732-.247589-.24726-.494202 1.97881-.247055-12.3695.494255c.44074.578967 1.01004.834975 1.64883.909913zm-7.0913-.662427-.24758-.247314zm-4.8661-.577202-.1645-.08235zm-1.81361-.164893-.00026-.494901-.49486-.000238zm-8.65916-1.483813-.24755-.247827zm-12.35831-1.115967c.61944.100145 1.31843-.13557 1.96768-.368893l3.21579.247626-.00005-.165483.2475.165343.49514-.495131 4.9477.000241-.00018-.246935-3.71064-.247865.74217-.247351-.00014-.247449-6.18458-.246957-.00014-.247448.98976-.000037-.00009-.247965-1.48466.000264-.00014-.247451 6.18515-.49479-.00014-.247449-5.68991.247624-.00014-.247452 8.90645-.494808.00026-.247403-8.65918.247734.00026-.495371c4.16492 0 8.54702.01341 12.61668-.989293l-5.54758.334256-11.27518-.167362-1.20195-.47398c-.0364 1.591963.0808 3.182543.35231 4.760161l.84968.000156.24745-.000137.98938.247369c.28658.375269.62954.556101 1.00121.616188zm10.62691-4.079722 4.45295-.742304-4.45309.494853zm58.88006 10.143157-.24759-.247314zm-66.21988-6.020178-.16501-.08239zm67.4569 5.773068-.24754-.247827zm-66.055-6.185236-.00014-.247452.37106.247221zm3.54618.165004-.16497-.08291zm27.95559 2.226371-.1645-.08235zm38.7584 3.298585.74282.000145-.74245-.247552zm-61.35358-5.937319-.24759-.247312zm61.60108 5.19539-.24707-.247269zm-67.0441-5.937705 1.73154.000021-1.73168-.24747zm-5.1951-.741892.74179.000056-.74193-.247508zm88.32013 7.52107c.0473-.09438.0938-.188841.13996-.283435l-.63458-.0633-.00027.247407.49537.000264zm-11.87459-1.08921-.24759-.247312zm-71.74518-7.173789 1.73196-.247901-1.73206-.000064zm9.64846.74194-.24755-.247828zm-7.66909-.989463.74188-.0011-.74197-.246991zm25.97659 2.22649.49463-.495178-.49439.000264zm5.93727.494543-.24703-.247782zm-3.46356-.741873-.24754-.247827zm18.05973 1.484054 1.48465-.000265-1.48442-.494543.0001.247965zm1.73206.000063 2.96843-.494541c-.16843-.0687-.35478-.121173-.55129-.155609-.19651-.03444-.40324-.05111-.61096-.04878-.6924.0078-1.39937.226253-1.80618.698934zm-44.77871-3.958609-.24764-.246798zm22.76006 1.732397-.49413-1.484805 2.48977-.258895c-1.51938.0538-3.02336.06358-4.46942.01151l.00013.247451zm1.99564-1.7437c3.16602-.112111 6.40688-.434099 9.38485-.917223.19116-.03101.40556-.07645.62179-.122489zm10.00664-1.039712 6.55259-.680513c-.22962-.09367-.48356-.156448-.75597-.193749-.27242-.0373-.56294-.0493-.86629-.04155-1.58169.0404-3.49586.610407-4.93033.915815zm-6.3119 3.277624.98976-.000037-.9899-.247411zm7.66928.495123-.24707-.247266zm-5.85483-.577072-.16496-.08291zm2.72117-.24747-.16497-.08291zm-45.20754-3.996187c3.37939.268345 7.6794-.310246 10.73706-.808776 4.75445-.775338 10.05553-1.148673 14.84363-.509154 2.04275.272873 3.79335 1.334286 5.93753 1.428295 6.47435.283517 12.88582-1.215742 19.29732-1.722408l-.00018-.246933-1.97933.247007c2.62215-1.996731 6.43111-.58847 9.40085-1.236403l.00018.246935-2.22682.247661.00014.247451 15.33859-1.731571-.00009-.247964-.74184.000529-.00009-.247965 1.73178.495435-.00009-.247965-.49439.000265-.00014-.247452c.97177 0 1.89329.09438 1.73149.741812l10.39079-.989507-.00018-.246936-7.66934.246669.00026-.246891 9.4007-.742579.00027-.246891-2.7213.000018-.00014-.247448 3.95837-.247645-.00014-.247449-1.2371-.742133-1.48428-.247091 1.48409.000158.00027-.247406-.74202-.495472-.24745.000137-.74259.495271.0001-.742307-18.55467 1.534756-6.67967 1.433496-.00019-.246935 1.48448-.247248.00052-.24792c-1.31713.0037-3.37833-.158099-4.20587.989571l-5.44275-.247415.24731.742683c-1.50194.06457-3.40865.977352-4.7003.000138l-.24741-.000265.24735.742169-1.48466.000265-.00009-.247965.98971.000529-.00009-.247967-4.70016.247589-.00053.24792 3.46366-.000529.00009.247965c-3.80866.000529-7.59024.756441-11.38035.661196-2.6835-.06754-5.05312-1.091343-7.66934-1.502516-1.43662-.225872-5.40537-.0036-6.18442-1.138134l-6.43236.000071-.00013-.247449 8.65853-.495231c0-1.186013 3.23658-.08802 3.71133.494848l1.73193-.247388-.00027.247406-.4949.000265.00014.247451c1.4099-.14819 2.65271-.03357 3.71058.989656l.98962-.247486.00026.494384 3.71106-.000055.00027-.246891-.49542.000233.00053-.24792c.61824.189997 1.83452.860949 1.979-.000119l.49466.494578 5.93741-.289775 10.39082-1.891069 6.43238-.08929 8.65912-1.646258 8.65906-1.236462 4.20535-.289837.24745-.000138 1.73169.247467-.00014-.247449-5.93771-.43026-4.94724 1.12702-10.88587 1.282334.00026-.247406c3.8475-.918578 7.48487-1.04348 11.38012-1.530104 1.29288-.161552 2.42721-.896956 3.7107-1.110705 3.07315-.512112 7.55094-.34126 10.63819.167137l.24769-.494993-.00019-.246936-.9897-.000529-.00014-.247449.74231-.741174-3.21626.742085-.00009-.247965.49486.000238.00026-.247407c-2.65802-.0475-5.81405-.324659-8.41171.07538-1.84879.28475-3.5634 1.383586-5.44287 1.562452-4.68469.446053-9.72634.488042-14.34917 2.073352l.00018.246935 3.95846.000265-.00026.247404-4.45272.247449-.24734-.742167.74165-.247393.00026-.247407c-6.151.815414-12.01928 2.147602-18.30734 1.731727-.75554.591772-1.80515.211077-2.72126.289997-3.54691.305286-6.70261-.745546-10.14339-1.618854-1.30106-.330274-4.23166-.779327-5.19527.339143l-7.17439.494872.24773.494763-.24797.000092-13.11234.915324-2.38485-.946293c-.086.260546-.16745.521655-.24488.783137 1.16843.308637 2.29802.484185 3.12502.484532 6.82021.0027 13.47977-1.705266 20.28662-1.236946l.00014.247449c-3.92593.048-7.75067 1.210167-11.62786 1.237134-.94085.0064-3.77623-.41088-3.95856.741981l-8.09661-.49049c-.39514 1.554446-.63968 3.12174-.73509 4.690441.81836.492821 1.99293.550826 2.894.706051.43888.07561.90299.131146 1.38576.169482zm14.69529 1.1093 9.154-.246981-9.15418.000045zm17.56529 1.484889-3.81836-.694584.35418.08441zm-3.81836-.694584-4.34548-1.037424-.00027.246891zm-6.81995-.295283-.24759-.247311zm19.62686 1.649693-.16497-.08291zm35.29517 3.051096-.24703-.247783zm-33.89323-3.46378-.24707-.247269zm-12.43427-1.249704c2.68421.253775 5.43438-.102153 8.10447-.376153-3.62652.260602-7.28753.301263-10.76144-.353253l.00018.246936c.87469.245774 1.76205.397878 2.65679.48247zm8.10447-.376153c1.39414-.100182 2.7682-.233923 4.13953-.373409-1.16096.0965-2.33116.194675-3.52081.309788-.20429.01976-.41338.04255-.61872.06362zm4.13953-.373409c3.3651-.279717 6.65051-.550473 10.08646-1.216882-.18547-.0665-.38322-.114094-.59055-.145558-.20733-.03146-.42446-.04656-.64937-.04851-1.94922-.01693-4.47715.968653-6.18211 1.141923-.87325.08873-1.77276.178332-2.66443.269031zm-28.7553-.722484 8.41187-.07121 5.19501.813991c-1.00154-.796624-2.19465-1.149745-3.48302-1.266465-.42945-.03891-.86972-.05165-1.31671-.04569-2.97991.03971-6.26998.905521-8.80733.32244zm30.67698 2.47432-.24707-.247269zm15.83381-.247193.7424-.0011-.74249-.247036zm-.41246-.08225-.16446-.08286zm1.64967.08208 3.71076-.927585.98991.680043-.00026.247404 6.43236-.000071-.2474-.741654-1.03926-.347181-.19733-.394904 6.18431-.247943-.24735-.74217-2.7214.742323-.74207-.494956.24772.494763-.24745.000137c-.81566-.266938-3.27886-.824267-3.71106.000056l-.24744.000138c-.3278-.564804-.92545-.594657-1.23717-.000265-1.69268-.495782-5.7875.269335-6.92676 1.731939zm4.20563-.494716-.24758-.247314zm-11.87476-1.484503 1.4841.000156-1.48424-.247607zm5.68977.495197-.24754-.247827zm-3.95822-.495178 5.9377-.494652-5.93784.2472zm5.60724.329761-.0821-.164362zm13.68964 1.154633-.24759-.247314zm-12.61745-1.237199.74217-.247351zm-.41199-.0817-.16497-.0829zm10.30837.824056-.24758-.247312zm-8.16432-.742297.74179.000056-.74193-.247505zm14.84371.990008-.24754-.247828zm.74235-.000529 3.4631.000037-3.46323-.247489zm-13.6072-1.237163 1.23754-.247065-1.23716-.000265zm-2.72092-.247388 8.90613-.989193c-.35246-.147894-.73186-.251124-1.13101-.318378-.39915-.06725-.818-.09824-1.24863-.100423-2.20101-.01117-4.71438.72452-6.52668 1.161058zm2.30893.165693-.16497-.08291zm-68.96325-6.1414.10437-.208738-.046-.01389c-.0205.07413-.0386.148431-.0584.222618zm65.16938 5.481119 2.72202-.494314-2.72215.246865zm-6.4323-.741718-.24754-.247827zm12.86527.989656 3.46314-.000529-3.46323-.247489zm-.41241-.08277-.16497-.0829zm-35.21283-3.381589-.00018-.246936-1.73168-.24747.00013.247452zm.24741.000265.98975-.000038-.98994-.246898zm19.79174 1.484632-.24755-.247827zm.74178.000056 2.47442-.000265-2.47451-.247615zm11.38015.989409.98976-.000037-.9899-.247412zm8.41164.49471-.24708-.247266zm3.95813.247214-.24708-.247269zm-10.88525-.989673-.24707-.247269zm12.86471.990124.98967-.248002zm-45.68551-4.041056-.16501-.08239zm4.61749.329798-.24759-.247314zm1.48461.000201.4949-.000264-.49462-.495094zm32.40895 2.226419 1.23665.000264-1.23679-.247745zm2.7213-.000019-.24758-.247311zm-52.69562-4.700529-.24759-.247314zm25.23466 1.978983.49458-.494663-.49425.247772zm-.41246-.08225-.16446-.08286zm1.40203-.164719.98976-.000037-.98938-.247369zm1.73193-.247385-.24755-.247828zm1.97928-.495491 1.73136-.246914-1.73155-.000021zm-21.77124-2.225834-.24703-.247782zm23.99746 1.979158-.24703-.247782zm-24.41006-2.308863-.16446-.08286zm7.0919.329449-.24656-.247222zm23.75089 1.731936 1.23656-.247669-1.23669.00022zm-14.59685-1.97943-.24759-.247314zm16.41056 1.402019-.16501-.08239zm2.14477-.412538-.24759-.247312zm21.77059 1.237064-.24759-.247311zm-54.67476-4.947634-.24759-.247311zm25.48142 1.731865-.24703-.247783zm-19.29665-1.97925-.24702-.24778zm-.6594-.08207-.16496-.08291zm51.62316 4.288195 3.84312.174384c-.0428-.17263-.0846-.345062-.13112-.517242l-3.71209.09489zm-57.39616-5.195811-.24758-.247314zm1.48462.000201-.00004-.989756-.74244-.24755-.49431.98956zm5.69033.494728-.24759-.247314zm-2.47455-.247102 1.97961-.742379-.00004-.989756-1.73178.494837c-.61824-.392123-.84025-.374324-1.23707.247624l-1.23692-.495194.24711 1.237022zm50.22201 4.205555-.24759-.247312zm-48.40747-4.288534-.16506-.08188zm3.62858.08299-.24755-.247827zm-39.08885-3.464443c1.33544-1.093491 4.07734-1.221912 5.69011-.741963l.24755-.742445c2.03112.7365 4.15788.35878 6.18529-.247338l-.00024.494856 1.97913.24733.00024-.494856.74169.742363.24797-.000093 2.72098-.494403 3.21596.494562c.61083.926994 4.82237 1.828062 5.69024 1.237033l.24745-.00014.49493.98948 1.48396-.247292-.24717.495038.24745-.000138c1.76838-.158583 5.95813-1.205725 7.42198-.24756l5.44266-.741825.49466.49458 2.96889.247293.24737-.989378c3.73815.813192 8.48086-.0571 12.11262-.914082 1.42105-.33522 3.1256-.250413 3.72084-1.807523.90349.778555 1.81716 1.748118 2.96878.9896.67391.649663 1.69884.491577 2.22678-.247144.69543.381481 1.3656.908126 1.97914.247329l.24745-.000137.49438.989949.98972-.989793 4.70057.494765-.24773-.494762.74249.247036 1.4841.000156.00024-.494856.74211.494443.24751-.741929.24762 1.237068.24689.000264.49528-.247681.24728-1.237346 1.23692.495197c1.24403-.957098 2.68492-1.081135 4.17-.947063-.98863-1.22284-2.09227-2.409139-3.3106-3.551465l-.85965.08404-11.38011 1.198113-.74225-.741892-.00014-.247451 6.18539-.989645-.00018-.246936-1.23693-.495197-.00013-.247449 5.15513-.76387c-.22896-.177044-.45888-.353317-.69408-.527587l-9.65624.301598-.00019-.246935.74231.000103-.49476-.742546c2.06106-.490833 3.89084.106032 5.93754.106032.79497 0 1.59763-.08134 2.40221-.183036-.22674-.157718-.45345-.31564-.68556-.470821-5.38431-3.599727-11.65336-6.133507-18.2995-7.619399l-.00004.000529-10.63078.0031c-.74936-.788694-2.2223-.04496-3.21584-.01574-2.49177.07323-4.67472.111559-7.16501-.311984-1.09398-.186041-2.27578-.399134-2.97864.575609l-3.82248-.546589c-.45888.09068-.91675.184822-1.37262.285046l-.00019.014c-.009-.0021-.0218-.0052-.0305-.0073-7.17025 1.580044-13.94727 4.341545-19.71069 8.267475l7.12355-.560012 7.91742.463402-.00026.247407-.4949.000264.00014.247449 1.7314-.24743.00014.247449-.74179-.000056-.00026.247407c5.82543 1.101407 11.45633 1.663094 17.37281 1.663094 1.13752 0 5.11075.07891 5.63523-.92106l.24745-.00014c.27065.472032.74676.656442.7423.000103l.49471.494064 5.82313-.685196-1.86504.932923-2.47372.24733.0001.247965 1.2372-.000175.00018.246936-4.94761.247724-.24788.989335-2.47358.494779.00014.247452 3.95767-.494623-.00013-.247452-1.23646-.494635.98962-.247486c.50024.913632 3.70255.104759 4.7003-.000138l.0001.247965-1.23698.246597.00009.247965 1.97913.24733 2.72103-.494917.0001-.742307 3.21667.000265-.2475.741928 4.94794-.494614c-1.93414 1.880703-2.61161.403196-4.70087.741881l1.2373.24779c-.94382 1.047724-1.87697.98929-3.21612.989536l-.00026.246888 4.20604.247637-2.22668.495112.00018.246936c.70459.0084 2.9406.505531 1.41664 1.476809-.8028.511612-1.73954-.199387-2.40628.502224-3.70327-.815909-8.80875.442241-12.61741.742826l-.00014-.247449 1.23707-.247626-.00014-.247449-2.96913.24756-.00009-.247965 10.63843-1.483985 3.46315-.741751-5.19484.494281-.00013-.247449 1.48409.000157-.00013-.247449-3.21621.000264-.00013-.247451 1.97961-.742379-.98958.246973-3.71125-.691441-12.12222.69174.00014.247451 3.71068.247351.00014.247449-2.96876.000156.0002.09858-.24765-.09844-4.70043-.247314.00022 1.236692-2.96889-.247296c-.41068-1.405456-2.4892-1.385575-3.71084-1.644843-3.92098-.83199-7.65954-1.220978-11.62752-1.571289l.24755-.742445 6.18505.247518-.00014-.247452-1.7322-.247515-.00018-.246935 8.90606 1.484146.00026-.247407-1.73196-.742368.00027-.247407 4.94778.989481-2.96861.247608-.00027.247404 3.46351.742389-.24717-.495231 3.46375.247533-.00027.247404-1.97899.000119.00014.247452 3.46309.000037-.00014-.247452-.98952-.494818 5.93765.247139-.00014-.247449-7.91664-.24702-.00014-.247451c1.33743 0 4.27807.555484 5.19591-.494708l-2.47371.24733-.24792-.000529c-1.1504-.859205-3.53317-.528066-4.94802-.725982-3.72578-.521264-7.39308-1.529369-11.13222-2.062258-1.3201-.188024-3.98541-.803154-4.94827.314584l1.48395-.247293.00014.247452-2.72127.989772-1.23716-.000265.24769-.494993-2.72112 1.237224-.00014-.247452.4949-.000265-.00018-.246935-3.46361-.000082.24772.494763-.7423-.000104-.29024-.435713c-.10819.09042-.2139.181838-.32059.27282l-.13176.658164-.24689-.000264-.0684-.273651c-1.69022 1.482738-3.18364 3.0372-4.48476 4.645621l2.82091-.166119 1.97924-.494975-5.48568 1.535883c-.1252.165505-.24767.331851-.36885.498398zm40.0786 3.464406-.24754-.247827zm42.05718 3.463214-.24707-.247269zm-35.37774-3.216019.7423.000101-.24768-.495276zm-7.66891-.742529-.98956-.494303-.49541-.990039-.49438.000265-.49482.989518zm6.67953.49516-.24754-.247825zm-5.19543-.495001 1.4842-.742149-1.73187-.494405zm42.79957 3.711279-.00013-.247452-.29718-.148939zm-.29731-.396391-.0878-.116621-.10946.01791zm-.0878-.116621 2.85897-.476625-3.2162.000264zm-40.68288-3.198249 1.48466-.000264-.4948-.74203-.19855.09934.19823-.593731-.49438.000265-.00006.741791-.49528.247682zm5.19581.247597-.24754-.247827zm-2.4745-.247615c1.08681-.325324 2.24967-.202732 2.47405-1.48449 1.72781 1.334947 3.73533.941173 5.82112.695508.66723-.07843 1.71916.333234 1.84854-.447792l.74217-.247348 3.71086.494286 4.94785.24769-.9896-1.484058c-1.16505 2.133417-2.65814-.01619-3.96694-.0991-.43627-.02764-.85248.174532-1.22883.841263l-.24689-.000264c-.57743-.891119-1.72446-.782863-2.7222-.719032-2.55016.162539-7.14657-.144126-9.4006.966682l.24769-.494993-.24745.000137-.24723 1.23683zm-8.41126-.742114-.24754-.247827zm14.34899 1.237218-.24754-.247827zm31.41896 2.721311-.24703-.247782zm-38.34607-3.463782-.24708-.247269zm44.03626 3.711059 1.50343.0698c-.12024-.354512-.25089-.707495-.38715-1.059418l-3.09531-.000024.00014.247452 2.72182.000026-.00027.247407-.74268.247303zm-7.17418-.98974 3.21616.00022-3.2163-.247672zm-18.80207-2.473913-.24758-.247311zm-.74244-.247549-.24707-.247269zm1.73159-.000529.98976-.000037-.98943-.246854zm2.72192-.742278 3.71074-.49444.00026-.247404-3.46426-.247579zm5.19516.000103-.24764-.246798zm-12.61763-1.484135-.24656-.247222zm11.38066.989454 1.23664.000265-1.23678-.247746zm-23.00836-2.226691.24765-.494477zm11.21561.907579-.16497-.08291zm26.63646 2.30912-.24754-.247828zm-19.54447-1.731706-.24707-.247269zm-2.96899-.495261-.24702-.247782zm-.24669-.494673-.00026-.4949-.49486-.000238zm6.18467.494922-.24703-.247782zm-30.42985-2.968842-.61898-.247642.61888-.000265zm-5.60766-1.072113-.1645-.08235zm2.63887.08251-.24754-.247827zm42.7993 3.216378-.24703-.247782zm-56.15886-4.947989c0-.699386-.2826-.690562-.98966-.742267l.00014.247449zm14.34904 1.236705.7423.000101-.74193-.247507zm1.23716.000265-.24754-.247827zm-14.59654-1.485046-.24763-.246795zm36.20282 2.8867-.16501-.08239zm-4.28816-.411996.49411-.495221-.4942.247256zm-12.86499-1.485027 2.22692.000265-2.22706-.247754zm-.41246-.08225-.16501-.08239zm-31.66668-3.216071-.16497-.08291zm42.96496 3.546266.98924-.000082-.98933-.247883zm-2.22705-.247753.98975-.000037-.98989-.247415zm-39.33588-3.463232.74179.000056-.74193-.247505zm1.7315.000529-.24703-.247782zm35.87298 2.96885-.24755-.247824zm-19.29702-1.731843-.24759-.247312zm22.76029 1.978818.7424-.0011-.74258-.246007zm2.30898.16518-.16445-.08286zm-40.9025-3.628824-.24759-.247311zm41.31483 3.463626.74239-.0011-.74258-.246007zm-4.45313-.494901-.24759-.247313zm-27.21356-2.721091-.24707-.247266zm-1.23683-.247232-.74206-.494956.00014.247452zm-7.17508-.742378 1.73244-.247341-1.73206-.000063zm3.46426.247578-1.23743-.495239.00009.247965zm28.20304 2.226233-.24712-.246753zm-27.70883-2.473489-.24755-.247827zm37.60466 3.21632 2.47389-.000264-2.47399-.247571zm19.7916.246912-.24707-.247266zm-21.0287-1.979313-.00019-.246936.51113-.511887.761-.08904 1.20224.601097.00018.246935zm21.44089 1.566666-.0826-.16492zm1.07215-.08205-.24707-.247269zm3.21602-.247229-.24703-.247782zm-5.44237-.494821 4.82462-.37157c-.30341-.256731-.61303-.510837-.92877-.76236l-2.65878.886306-1.23721.000175zm-16.9423-1.834483 3.33506-.392436.00009.247965zm21.14822 1.834668-.24755-.247827zm-9.89605-1.979522 3.7745-.179695c-.47638-.397515-1.24819-.611933-1.98575-.598577-.74303.01344-1.45128.257812-1.78875.778272zm3.7745-.179695c.0675.05634.12924.116438.18397.180017l1.23707-.247626z" fill="url(#e)"/></g><path d="m61.951671 29.756283c13.136677-1.511305 26.701996.535974 37.527428 6.478721 21.651071 11.886018 24.400031 35.009255 5.995021 51.507437-18.405241 16.498619-51.061894 20.184459-72.712383 8.298569-21.651029-11.88561-24.2949266-34.959822-5.895644-51.452876 9.199578-8.246598 21.948998-13.320561 35.085578-14.831855z" fill="url(#a)" opacity="1"/><path d="m93.570457 7.5826051c5.42721 5.0417369 11.021923 22.7138409 11.021923 22.7138409s-5.341319-8.729969-8.508454-12.320761c-3.631026-4.116735-7.624184-7.700885-11.870987-10.3930799-5.732329-3.6339208-18.067103-7.5826051-18.067103-7.5826051s19.639678.35059713 27.424621 7.5826051z" fill="#e8e3e3" filter="url(#c)" opacity="1" transform="matrix(-1.0911562 .12552257 .08859391 .77318278 136.1991 31.048156)"/></g><path d="m70.624632 25.036198c-3.053183-.01172-6.115485.161397-9.154998.511081-13.894674 1.598505-27.420876 6.91537-37.425106 15.883268-10.005103 8.968539-14.6934148 20.267595-13.452926 31.09371 1.24049 10.826115 8.363668 20.768661 20.137272 27.23193 23.545879 12.926443 57.541102 9.093493 77.565816-8.856823 10.01225-8.974941 14.67293-20.296679 13.40331-31.132985-1.26961-10.836304-8.41159-20.783647-20.18481-27.246916-8.829344-4.84697-19.123656-7.245183-29.580627-7.466728-.435708-.0092-.871762-.01486-1.307931-.01653zm-.02377 4.242636c10.291075.0482 20.420984 2.313398 28.878343 6.956165 21.651055 11.886005 24.399965 35.009286 5.994985 51.507451-18.405226 16.49859-51.061897 20.18459-72.712365 8.298719-21.651007-11.885596-24.2950291-34.960154-5.895764-51.453191 9.199568-8.246591 21.949148-13.320365 35.085715-14.831654 2.873645-.330598 5.767584-.490987 8.649084-.47749z" fill="#80241b"/></g></g></svg>