<svg height="500" viewBox="0 0 132.29167 132.29167" width="500" xmlns="http://www.w3.org/2000/svg" xmlns:xlink="http://www.w3.org/1999/xlink"><linearGradient id="a" gradientUnits="userSpaceOnUse" spreadMethod="reflect" x1="47.388027" x2="58.291412" y1="30.976147" y2="28.409039"><stop offset="0" stop-color="#f2efde"/><stop offset="1" stop-color="#f3f0e0"/></linearGradient><g transform="translate(.000172 -2.464276)"><path d="m84.923722 30.90889v58.459754 4.616552m-7.50714 2.050398v-63.03757m-22.521416.06396v62.975078m-7.507237-2.046398.000098-63.365452m22.521416 3.481351.0001 62.864126m-7.507238.0067v-62.775818" fill="none" stroke="#9d9993" stroke-width="4.23333"/><path d="m32.728236 24.696168s1.215057 2.871164 1.492415 4.392496c.34929 1.915884.401552 3.903089.193787 5.839437-.245289 2.286061-.611876 4.655327-1.686202 6.687965-1.807039 3.418941-3.914156 4.944817-7.697205 8.68009-12.975585 12.81119-13.869997 29.889591-5.76554 43.178244 3.91992 6.427667 8.511001 10.87595 14.228589 14.2012 6.183956 3.59647 13.06759 6.22615 20.172413 7.67447.0544.63368.311466 1.44242.643888 2.09186.365592.71424.928206 1.52444 1.452108 1.91978l7.360275 5.55418c.734513.55432 1.975971.8537 3.023071.8537s2.288619-.29962 3.023071-.8537l7.360275-5.55418c.523902-.39534 1.08693-1.20548 1.452624-1.91978.332224-.64893.588652-1.45685.643372-2.09031 7.107419-1.44791 13.993708-4.07795 20.179647-7.67602 5.717616-3.32567 10.308716-7.77333 14.228586-14.2012 8.08279-13.253645 7.21378-30.286881-5.75934-43.178244-3.81926-3.775299-5.66723-5.280443-7.341149-8.68009-.880966-1.789198-1.014915-3.869017-1.265039-5.847706-.287013-2.270502-.596471-4.596777-.264067-6.86108.195041-1.328599 1.305347-3.811137 1.305347-3.811137l-20.148642 1.227832c.0593 2.861674.233641 7.844513.86093 10.31565 1.624193 6.319956 5.991657 13.330918 12.773897 23.135539 3.809446 5.507598 5.225499 10.213829 5.095814 14.119552-.122491 3.693129-2.277791 7.364079-4.765601 10.15597-2.24282 2.516956-5.579369 3.826188-8.602059 5.319055-2.113107 1.043636-4.314722 1.971136-6.607866 2.515092-2.740691.650119-5.593188.716619-8.406205.861446-2.499036.128662-5.008771.148544-7.507036.0057-2.514875-.143809-5.048287-.319557-7.507035-.867131-2.576103-.573709-5.121487-1.387201-7.507553-2.515092-3.129102-1.479123-6.513029-2.9147-8.797912-5.514392-2.412691-2.745109-4.453323-6.081185-4.58215-9.960633-.129554-3.906255 1.285829-8.611459 5.095813-14.119035 6.904267-9.981537 11.231138-16.739318 12.76718-23.028052.714993-2.971791.652554-7.356111.746208-10.470163z" fill="#68423a"/><path d="m83.975922 31.220414c.322832 5.844146 4.497782 14.28785 12.701088 26.146806 4.1752 6.036398 6.01186 11.631213 5.84461 16.668233-.16707 5.037222-2.711981 9.317674-5.832724 12.828675-3.045456 3.426299-7.552701 5.312921-11.765174 7.121067-2.383723 1.02318-4.962403 1.547064-7.50714 2.050398-2.473759.489295-4.990263.77783-7.507039.935094-2.497543.156063-5.00961.161352-7.507238.0067-2.517109-.155903-5.033181-.450717-7.507139-.940283-2.544378-.503501-5.12348-1.024109-7.507237-2.046398-4.21728-1.80865-7.845928-3.232156-11.777994-7.126574-3.450241-3.417322-5.664935-7.792166-5.832202-12.829191-.167064-5.037222 1.669317-10.631324 5.845121-16.667717 8.337681-12.05383 12.400604-20.304181 12.632031-26.146814l-9.977152-2.811371c1.740638 3.488776.659997 8.006171-.649312 11.678649-1.829729 5.132203-4.515187 8.171195-9.622152 13.213664-11.780662 11.631406-12.383917 26.069668-5.126303 37.969776 3.628405 5.949656 7.54981 9.724432 12.742888 12.744632 9.122893 5.3057 19.976363 8.38611 30.529924 8.38586 10.551732-.00025 21.403207-3.08059 30.524232-8.38586 5.19303-3.02054 9.11388-6.795603 12.74238-12.745665 7.23985-11.871463 6.65481-26.270531-5.04414-37.887611l-.0817-.08165h-.007c-5.106553-5.042495-7.817168-8.071354-9.615102-13.213176-1.286155-3.67821-2.35961-8.248684-.510565-11.678619z" fill="#944838" stroke-width="8.46667"/><path d="m42.018625 28.363644c1.102997 2.531433.134367 5.153886-1.645378 7.928199-1.530287 2.385464-3.610567 4.860987-5.559867 7.365442-.07194.129453-.13915.261887-.212907.390157-1.328451 2.177364-3.01071 4.06375-4.768185 5.888013-3.602423 4.750255-6.558907 9.561324-8.439278 14.743286-2.506498 6.907493-2.79826 13.695063-.978752 20.909835.61558 2.710478 1.518404 5.319306 2.617928 7.907528.337671.505018.682942 1.004363 1.041797 1.492932.01414.01971.02923.03872.04341.0584-1.139315-2.477734-2.130755-4.97685-2.904733-7.586101-3.101157-11.230888-1.97914-21.232993 4.813143-31.637863 3.222937-5.191594 6.899479-9.176609 10.838615-14.008964 3.640587-4.466126 6.634494-8.701891 6.037875-12.719637-.02265-.161308-.0701-.337867-.133842-.519865-.24996-.07041-.499864-.140947-.749825-.211357zm2.186947.6165c.364319 1.540706.05925 3.211371-1.310515 5.107182-2.488786 4.531145-7.993677 10.394513-12.027173 15.490528-4.396286 5.554364-7.87724 11.019415-9.587529 16.98346-2.475647 8.960171-1.453363 17.271952 2.516643 26.743587.468328.961052 1.480595 2.909515 2.117183 4.021461.161717.188402.326268.37428.49196.559139-.02669-.07934-.05765-.168996-.103353-.287838.113515.130936.184881.286301.246497.447518.09826.108274.195988.216986.295589.324011-4.483009-9.793619-6.609174-18.472407-4.691187-28.169858.657899-4.967655 3.042685-9.747208 6.586162-14.465784 3.784636-5.039715 7.879323-8.844298 12.270569-13.475663 2.578873-2.810197 5.640381-5.697597 7.994861-8.461499.135266-.71748.228387-1.441866.284737-2.169894-.09373.158323-.181157.312073-.278019.471289-1.289859 2.120178-2.860614 4.280388-5.120101 6.202206-7.799562 9.206801-15.527981 14.303997-20.174997 24.763347-1.266559 2.481657-1.478947 3.564378-.359668-.235128 2.081048-5.397805 5.682857-10.308702 9.979753-15.345317 4.030266-4.724075 8.958188-9.795415 11.018966-14.027051.577284-.830877 1.474202-2.453511 1.616439-3.978052-.588927-.165985-1.177875-.331712-1.766817-.497644zm3.151229.887801c.08242.73106-.0108 1.429659-.729672 1.930632-1.029189 2.732577-4.098877 5.859502-5.477185 8.3783.703718-.36128-.379615.217521-.149345.322461 3.292985-3.359615 6.65438-6.69645 8.346261-9.851079.0028-.0722.0081-.144315.01033-.216524-.666763-.188122-1.333597-.375788-2.000394-.56379zm1.152901 5.951058c-.208446.160825-.477222.38152-.834058.690914-8.47947 8.275102-16.785731 15.162836-21.989356 24.897706-3.654366 6.686003-4.140564 13.380987-3.710885 20.454566.83819 6.981174 3.316943 12.327711 6.168099 17.830436.31462.304261.634509.602585.960149.895035-2.579995-4.983879-5.070512-10.049296-6.304008-15.090034-1.922459-11.282722-.249239-21.363062 8.373132-31.633212.852209-1.072179 1.930453-2.344971 2.674772-3.08715.774099-.77188.707941-.533463-.568957 1.281575-.69857.928729-1.608021 2.16629-2.400371 3.411678-.738009 1.159989-1.150438 1.984087-.734839 1.624707-1.134968 1.514719-.730974 1.13637-.551904.96635.32079-.30457.551657-.523818-.208773.63872 2.976817-4.373495 6.691478-8.817095 11.182264-12.829191 1.907927-2.043476 4.287572-4.174794 6.643522-6.29729.212384-.522716.411578-1.05064.601514-1.581816-.110252.104992-.22101.206325-.330729.315743-.83228.951229-2.023302 1.993535-2.547132 2.369365-.556339.399149-.380832.08321 1.249536-1.53324.497354-.626591 1.421215-1.672299 2.076876-2.483569.08765-.278996.17069-.559765.251148-.841293zm8.128186 2.908867s-.182901.160248-.268201.257348c.08981-.08591.179201-.171648.268201-.257348zm29.396656.225309c.0045-.0093-.338341.587349-.693498 1.201994.0084.01925.01639.03864.02481.05788.01799-.03449.03694-.06706.05478-.101802.344835-.671765.607896-1.145677.613916-1.158069zm.210323.0186c-.007-.05136-.2538.400577-.801501 1.419035.04785.108198.09759.215625.146244.323495.123799-.279947.239331-.557037.334346-.820622.185666-.515051.327041-.876939.320911-.921908zm.218075.230994c-.231248.533997-.500197 1.094323-.799952 1.672766.01342.02947.02683.05892.04031.08837.2939-.604599.549489-1.193567.759644-1.761133zm-44.707867.431498c.00006-.00003-.163874.06925-.163814.06925.0461-.0323.163814-.06925.163814-.06925zm44.546119.223759c-.0035-.0044-.0093-.0031-.01757.0036-.158846.399316-.339221.803402-.53175 1.210262.01686.03663.03318.07348.05013.11007.338176-.741363.531907-1.283195.499194-1.32395zm-44.79675.0155c.04581.0017.06135.03299-.09095.08837-.03095-.06222.04514-.09008.09095-.08837zm45.153835.16227c-.08427.0086-.286692.290441-.445968.573092-.101042.24706-.213392.498746-.327629.750858.07205.154091.14569.307521.219108.460954.571929-1.364638.659432-1.795574.554489-1.784904zm.201021.734839c-.0083.000624-.102987.201049-.219625.490409.134055-.2843.226665-.490936.219625-.490409zm-.219625.490409c-.09012.191123-.234293.475943-.410311.823206.01132.02336.02225.04693.03359.07028.122845-.276394.239909-.550335.346232-.822172.01306-.03339.01805-.04045.03049-.07131zm.605648-.02325c-.195771.510895-.406379 1.057727-.627352 1.623674.01563.03123.03136.06233.04703.09353.216614-.598997.411902-1.176214.580327-1.717208zm.113688.730705c-.138774.01646-.357411.418025-.567407 1.236617.09998.197293.197836.395968.299206.592212.494409-1.215184.449383-1.850297.268201-1.828829zm-41.792282 1.19941c-3.075708 2.584913-5.925792 5.350017-8.377267 8.104415-6.074894 7.511402-11.154555 14.059529-12.312944 22.298381-.471418 3.154986-.19538 6.355993.564307 9.573059-.195536-1.196212-.327032-2.409282-.380339-3.646289-.491549-8.250717 2.646709-15.726711 8.863542-23.177914 2.707898-3.773936 6.389508-7.368775 9.752894-10.414352-.276968.376988.167286-.0215.710034-.511596.404942-.736127.802726-1.475811 1.179773-2.225704zm-20.125904 39.975851c1.197121 7.323505 4.887004 14.003568 8.901266 21.350636.237768.14611.475682.2919.716752.43253-3.685203-7.112506-7.895202-14.487511-9.618018-21.783166zm62.11559-39.57588c-.01671-.01734-.141634.261683-.283187.586528.02382.04565.04847.09031.07235.135909.105876-.262895.180235-.49637.201021-.605648.01333-.0701.01709-.109248.0098-.116789zm.05426.600997c-.0053-.02062-.08827.159021-.16123.317294.01694.03219.0342.06396.05116.09612.06832-.227486.115259-.393122.110071-.413412zm-38.921656 1.364775s-.109414.02686-.160714.05736c-.00006 0 .160784-.05738.160714-.05736zm-1.366842.714168s-.108246.02791-.158646.05891c-.00005 0 .158706-.05893.158646-.05891zm-.399459.02067s-.109497.02948-.160196.06098c-.00006 0 .160246-.06101.160196-.06098zm-.642854.0739s-.109181.02926-.159681.06046c-.00005.0001.159731-.06048.159681-.06046zm-3.381189.366903c-.03767-.004-.109703.02264-.103353.09095.14432-.05244.14102-.08698.103353-.09095zm3.86488.04703s-.10783.02823-.15813.05943c-.00005 0 .15818-.05945.15813-.05943zm.555005.0072s-.109414.02865-.160714.05995c-.00006 0 .160764-.05997.160714-.05995zm-1.11156.417574s-.108364.02938-.159164.06098c-.00005.0001.159214-.061.159164-.06098zm-4.140316.390157c.00003-.00001-.156093.06563-.156063.06563.0486-.0325.156063-.06563.156063-.06563zm4.365108.08165s-.106063.02823-.156062.05943c-.00005 0 .156112-.05945.156062-.05943zm-3.685046.6134c-.07596.06784-.124711.107056-.216524.191719-.80933.74631-1.922616 1.887289-2.177645 2.247408-1.764369 1.976128-1.800262 2.039638-1.790072 2.244308-2.181798 2.505767-.184653.349173.244946-.102836 1.772039-1.864438 1.027115-1.037911-.163814.306958-6.228124 6.890873-10.819832 13.355394-11.803931 20.880896-1.678188 7.622073.913596 14.930188 4.685502 22.737114 1.45587 2.871881 3.252591 5.913255 4.994011 8.959145.10963.0574.217935.11733.328145.17363.03817.0206.07702.04.115239.0605-3.9133-6.942754-7.801501-13.18387-9.498129-20.804929-1.888378-8.011022-.443877-15.364214 4.397148-22.853386 1.316551-2.299196 3.397161-4.149592 5.722131-5.95881.788407-1.159934 1.581028-2.319121 2.347661-3.493327-.01522.01126-.04289.02739-.04289.02739.02886-.0324.05546-.05938.08423-.09147.171091-.262564.341901-.525083.50953-.789616-.529687.545706-1.044752 1.081589-1.231967 1.270723-.609239.615489-1.424561 1.349072.390157-.842326.02005-.06078.751987-.807604 1.615923-1.691369.08984-.150372.184199-.298267.272334-.449585.187043-.306333.371509-.616045.557589-.923975-.14992.143704-.365624.354716-.47904.462504-.14108.134068-1.747974 1.609324.699698-.827856.146821-.244254.294123-.487387.439767-.732772zm-.460954.232027c.00004-.00001-.152992.06459-.152962.06459.0481-.0324.152962-.06459.152962-.06459zm1.565796.207739s-.105313.03011-.154513.06201c-.00004 0 .154543-.06202.154513-.06201zm-.848527.731738s-.104896.03148-.153996.06408c-.00004 0 .154036-.0641.153996-.06408zm-1.446423.09509c.03451.0049.03464.04033-.103353.09147-.000065-.07081.06884-.09638.103353-.09147zm-.908472.782381c.00003-.00001-.149892.06718-.149862.06718.0472-.0333.149862-.06718.149862-.06718zm-.410828 1.343071c.03221.0062.03055.04315-.101286.0925.003-.07408.06908-.09868.101286-.0925zm-2.379183.196887c-.073.0205-.145731.04141-.218591.06201.0699-.0314.218591-.06201.218591-.06201zm-.2682.257349c-.03313-.0039-.0981.02346-.0956.09353.130005-.05438.128728-.08961.0956-.09353zm-.271818.241329c-.06108.02385-.164851.126203-.265617.347265.350231-.20885.367415-.38701.265617-.347265zm-13.19196.08682s-.09192.04858-.127124.08578c.00002 0 .127104-.08577.127124-.08578zm12.750643.441317c-.02948.007-.07847.05524-.123507.173633.167594-.08243.172635-.185263.123507-.173633zm-13.070004.102319s-.09087.04858-.125574.08578c.00002 0 .125554-.08577.125574-.08578zm16.403651.301791s-.09744.03118-.143144.06408c-.00002 0 .143164-.06409.143144-.06408zm-3.857129.262516c.00001-.00001-.137987.06925-.137977.06925.043-.0341.137977-.06925.137977-.06925zm-.265617.308508c.00001-.00001-.137986.07131-.137976.07131.043-.0346.137976-.07131.137976-.07131zm-10.870655.887284c-.808114.905886-1.577804 1.843649-2.280481 2.83652-.662557 1.285234-1.282042 2.511091-1.867586 3.781681-.960429 2.690508-1.943673 5.458862-2.583822 8.562269-.2682 1.335108-.513601 2.935716-.659391 4.891174-.11473 1.538868-.22267 2.167972-.0863-.517798-.0204-.667209-.109026-.359443-.173116-.176733-.0333.095-.117686.257414.05374-1.134815.213029-3.359176 1.359333-6.251575 2.201932-9.515181-.812039 2.228807-1.624671 4.452409-.470772 1.071252.389197-1.284103.954577-2.538575 1.575615-3.774963-1.179253 2.110085-2.110742 4.36021-2.764173 6.686413-.82963 3.577031-1.129469 7.110587-.921907 10.695989.218339 2.117352.669268 4.19532 1.318265 6.21254.02511-.0169.0769.01554.02894.09354.09635.296433.198653.591004.303341.8847.03671.02261.07419.102022.08733.248564.445392 1.2193.962162 2.413253 1.539958 3.578076-1.875488-5.962434-2.64786-11.806653-1.63711-18.27072.947273-5.643737 3.23085-10.864095 6.335531-16.152503zm11.304737.610299c.00001 0-.134886.0677-.134876.0677.0423-.0339.134876-.0677.134876-.0677zm-.06253.164848c.00001-.00001-.133335.0677-.133325.0677.0418-.034.133325-.0677.133325-.0677zm-7.211963 3.502629c-.0395.0261-.079.05193-.118339.07803.0352-.0366.118339-.07803.118339-.07803zm-8.098214 1.497583c-.03034.0023-.07866.03799-.05426.100252.09694-.07133.0846-.10252.05426-.100252zm12.84056 1.549776c-3.428695 4.250583-5.499564 8.68351-5.561934 13.434839-.59606 4.740605.623903 9.500757 2.773991 14.343828 2.280438 6.547791 5.648846 11.936724 9.060946 17.766874.136058.0631.273277.12387.409794.18603-.188328-.28874-.380157-.57847-.580327-.87023-4.009405-6.46109-7.351596-12.989458-9.637653-19.644803-2.594238-5.843169-2.269721-11.356107-.946713-17.011882.655333-2.530454 2.067076-4.785685 3.856613-6.977352.200421-.414642.407683-.824873.625284-1.227315zm-13.370243.473356c-.0322.0286-.06453.05718-.09663.08578.0261-.0379.09663-.08578.09663-.08578zm-.589112.58136c-.07259.0019-.183198.09074-.113688.260966.220845-.17771.186277-.262836.113688-.260966zm-.234611 1.759582c-.0396.056-.07903.111939-.118339.167949.0331-.0654.118339-.167949.118339-.167949zm12.069031 2.186947c-.192417.258764-.40343.588736-.607198.957048-.541509.978769-.963062 2.086925-1.103291 2.864424-.87584 2.705378-.582687 5.390526-1.105876 8.071343.0726 3.496893 1.137586 6.947116 2.530595 10.428821 1.039759 2.552579 2.152867 5.128844 3.560506 7.610905-1.381179-3.191175-2.538462-6.727521-4.00544-10.17354-.69599-2.734412-1.718098-5.203773-1.555978-7.383529.0557-.457219.246353 1.257126.509013 2.473751.4705 2.179316.291811.969039.127641-.536918.0049-.528151-.04082-.994952-.0987-1.420585-.03142-.115708-.04008-.189761-.03204-.227376-.136544-.904304-.308796-1.588677-.13901-2.131653-.25513-.458237-.192544-1.475812-.07286-2.385901.11744-.893249.279688-1.639257.0098-1.485698-.0939.47264-.260887.711742-.03721-.690397.14149-.887069.446298-1.906883.572058-1.395263.27099-.7822.23473-.326228.23151-.166399-.007.324.0092.0286.443901-1.427303.01834-.120482.09291-.398573.181384-.711067.158167-.764896.357819-1.52265.591178-2.270663zm-1.780769 12.664344c.01113.07371.0216.150645.03204.227376.0106.03905.01808.07305.03514.122473.112804-.255406-.04185-.468364-.06718-.349849zm1.533756-12.05973c-.0316.0234-.06317.04678-.09457.07028.0266-.0358.09457-.07028.09457-.07028zm-.868681 1.942518c.05027-.01966.09512.112015-.05529.233577-.007-.15534.02513-.221781.05529-.233577zm-12.69845 1.505334s-.05513.0477-.07183.0863c.0239-.0289.04783-.0574.07183-.0863zm7.841382.155029s-.05768.04053-.07648.07803c.0253-.026.05098-.05203.07648-.07803zm4.955254.0052c-.03453.0017-.07199.06939-.0093.198438.07544-.135765.04383-.200117.0093-.198438zm-.619601.122473c.02645.006.04143.04562-.03462.101286-.02975-.07974.0082-.107305.03462-.101286zm.344682.646472s-.09743.02745-.136426.05994c.04541-.0201.09083-.04005.136426-.05994zm-12.674679 1.295012s-.05111.0476-.06511.0863c.0001 0 .06507-.08624.06511-.0863zm.12454.982369-.06356.08785c.0133-.0391.06356-.08785.06356-.08785zm11.397754.398425c-.03942-.03039-.09612.133814.01292.305408.02797-.199012.01073-.287173-.01292-.305408zm-.03514.502295c-.02625-.0053-.0588.02346-.0186.102319.0648-.05783.04485-.09706.0186-.102319zm.665076.0078s-.05195.03543-.06615.07183c.022-.024.04405-.04783.06615-.07183zm-.426847.173633c-.0218.0246-.04393.0492-.06563.0739.0138-.037.06563-.0739.06563-.0739zm-.253215.210323s-.05141.03731-.06511.07441c.0217-.0248.04331-.04971.06511-.07441zm.189653.187586c.04485-.04815.07929.272241-.001 1.297595-.131355-.56463-.05663-1.235691.001-1.297595zm-.21239.06563s-.05078.03616-.06408.07286c.0214-.0244.04258-.04846.06408-.07286zm-.04134.19637c-.02604-.0051-.05709.02407-.01499.103353.06205-.05886.04102-.09825.01499-.103353zm-11.400338.178801c-.00006.00008-.05881.08723-.05891.08733.0112-.0392.05891-.08733.05891-.08733zm11.309905.150378c-.03834-.0094-.05573.04167.02119.223759.164225-.02442.04272-.208062-.02119-.223759zm-11.610662.054684c.02501-.02032.03665.29648-.02739 1.205611-.05879-.596249-.0048-1.179484.02739-1.205611zm.286804.297657c-.00006.00008-.05778.0857-.05788.08578.0107-.03882.05788-.08578.05788-.08578zm13.282394.08578c-.418928 4.285028 1.038345 8.583888 2.06809 12.893787 2.733109 6.600218 6.846199 13.106726 10.581267 19.403466.315675.12375.632678.24355.95033.36226-3.166007-5.17612-6.990305-10.535735-9.550322-15.904979-2.616507-5.313319-3.699952-10.380276-3.960482-15.713253.0038-.175739.01234-.350346.02377-.523999-.04047-.172169-.07794-.344581-.112653-.517282zm-13.411068.07131c.01434.06038.02107.538988-.0067 1.74718-.06181-.786147-.01718-1.847818.0067-1.74718zm.121439.345198c.239 1.525101.289389 3.287368.471289 4.874638-.337339-2.122085-.634669-3.251147-.471289-4.874632zm-.278536.517798c-.00006.000089-.05571.08569-.05581.08578.01-.03884.05581-.08578.05581-.08578zm11.512476.136426c-.02579-.0051-.05452.02402-.0083.102836.05692-.05846.03406-.09775.0083-.102836zm.479557.220142c-.019.02487-.03784.05001-.05684.07493.01-.03726.05684-.07493.05684-.07493zm.262517.335897c.02589.0059.0496.04594-.0062.102836-.04775-.0803-.01969-.108689.0062-.102836zm-.29869.202571c.02789-.01408.0934.09599.02687.189653-.04655-.127886-.04361-.181204-.02687-.189653zm.314193.1757c.01635.02621.04358.401951.06821 1.421102-.09282-.537545-.09546-1.464782-.06821-1.421102zm-12.221477.04754c.05298-.04563.191147.153137.0708.390674-.103646-.248163-.102588-.363296-.0708-.390674zm12.130526.116272c-.0181.02488-.03626.04949-.05426.07441.009-.03729.05426-.07441.05426-.07441zm-.03101.283187c.02776-.0126.09463.10067.02946.190686-.04895-.130043-.04611-.183124-.02946-.190686zm-12.016838.104387c.02586-.000953.05058.03268-.0026.103869-.05028-.06738-.02328-.102917.0026-.103869zm12.674162.734838s-.04313.03653-.05013.07338c.0167-.02441.03333-.04901.05013-.07338zm-12.428182.147795c-.00006.000114-.05013.08671-.05013.08682.007-.03928.05013-.08682.05013-.08682zm11.5502.110071c-.0166.02521-.03311.0502-.04961.07545.007-.03755.04961-.07545.04961-.07545zm-.235128.0031c.04671-.0053.178312.313865.07648.466122-.102097-.343137-.104505-.462953-.07648-.466122zm3.334164.6165c.733423 6.785365 3.516751 13.263513 8.27288 20.118671 1.9104 2.97272 4.092754 6.08017 6.053894 9.14311.101946.0339.203806.0679.305924.10128-2.517917-3.94141-5.421104-7.98197-7.686352-11.680935-3.715773-5.801755-6.070332-11.350976-6.59701-17.014458-.06856-.123027-.133257-.247976-.198954-.372587.04138.339583.05663.452388.130741 1.075386-.02392-.104138-.08597-.599245-.146761-1.106909-.04582-.08733-.08997-.175454-.134358-.26355zm-2.299085.105937c-.01853.0015-.0373.0089-.05684.02222.28816 2.443053.699689 4.735351 1.702738 7.199044-.317209-1.359935-.567606-2.35554-.931726-4.440039-.265959-1.522569-.436218-2.803167-.714168-2.781226zm3.422013 1.821594c1.251582 9.238153 9.436743 18.91739 15.052312 27.92078.282226.0844.565671.16449.849044.24494-5.44935-8.97083-14.105384-18.592268-15.726172-27.90217-.05987-.0869-.116754-.175714-.175184-.26355zm-15.417664.12299c-.00008.000162-.04434.08614-.04444.0863.004-.03927.04444-.0863.04444-.0863zm.06098.253731c.04356.0067.08756.0744.0708.251148-.214631-.104291-.143405-.262354-.0708-.251148zm11.450464.03721c-.0133.02561-.02659.05136-.03979.077.002-.03789.03979-.077.03979-.077zm-11.40809.357084c.04444-.04482.183937.242638.09302.514697-.112159-.341374-.11968-.487806-.09302-.514697zm11.493873.564306c-.0128.02568-.02544.05129-.03824.077.001-.03794.03824-.077.03824-.077zm.05994.256315c-.0126.0257-.02471.05178-.03721.07752.0008-.03796.03721-.07752.03721-.07752zm5.115451.216008c2.13214 10.004859 9.504684 17.281516 15.669844 26.665556.106653.0282.213081.0572.319878.0847-1.478437-2.29389-3.209016-4.62275-5.050338-6.94945-5.135827-6.837748-9.245799-13.193479-10.720269-19.536217-.075114-.086546-.145441-.176885-.219108-.264583zm-5.084962.107487c.03279-.02281.145335.108665.08217.240812-.09261-.157841-.101837-.227127-.08217-.240812zm1.173055.687296c-.0118.02498-.02344.04992-.03514.07493-.00038-.03732.03514-.07493.03514-.07493zm.01395.200505c.02414-.01326.116335.09919.0739.191203-.07847-.130031-.08838-.183246-.0739-.191203zm.180351.481108c-.0111.02545-.02249.051-.03359.07648-.001-.03778.03359-.07648.03359-.07648zm5.186247.106453c2.060062 7.99357 8.064705 15.177797 13.917497 23.337077.44127.66666.860217 1.33255 1.266589 1.99729.08244.0203.165012.0399.24753.06-2.392807-3.83674-5.473111-7.79715-8.32714-11.6396-3.315329-4.700137-5.720371-9.162657-6.903972-13.555763-.06816-.06502-.133169-.133123-.200504-.198954zm-5.192965 1.273307c-.01.02538-.01966.05056-.02946.07596-.003-.03762.02946-.07596.02946-.07596zm5.154724.239262c-.08708-.03187-.03608.279419.414962 1.028878-.10272-.621984-.327882-.997009-.414962-1.028878zm1.892908.125574c1.805964 5.25775 5.354176 10.46801 9.478491 15.944244 2.416612 2.78405 4.544813 5.56484 6.221843 8.28993.147559.0304.295616.0585.443384.0879-1.313247-2.13347-2.92218-4.29919-4.786271-6.47402-4.973289-5.983241-8.729327-11.596204-10.947136-17.535878-.06365-.04834-.128007-.09573-.191203-.144694.02656.0829.05581.184828.08113.260449.310683.927769.321388 1.146747-.17725-.333313-.04074-.03188-.08245-.06243-.12299-.09457zm-6.404767.572064c-.02765-.0052-.04497.02419.03049.10387.03515-.05904-.0028-.09871-.03049-.10387zm7.685836.372587c2.03516 6.028132 6.232538 11.841373 11.41429 18.064533 1.663533 1.7839 2.984025 3.61949 4.094324 5.44049.114024.0214.228479.0403.342615.061-1.948901-3.0911-4.745101-6.30143-7.313766-9.49089-3.688538-4.75302-6.470492-9.271944-8.456848-14.019302-.02692-.01855-.05376-.03716-.08061-.05581zm-2.674256.03204c-.10012.01922-.163116.269011.144178.494026.03404-.384495-.06631-.508973-.144178-.494026zm3.58066.569474c2.691456 7.377948 8.504412 13.925759 14.227039 21.231779.462519.59154.880023 1.20511 1.265556 1.82935.05241.009.104664.019.157097.0279-1.734372-2.74171-3.926957-5.53703-6.298324-8.30905-3.536747-4.585472-6.35976-8.584803-8.402588-12.80749-.292218-.629739-.555062-1.25416-.796334-1.875854-.05103-.03185-.101609-.06442-.152446-.09664zm.293006.185518c.09183.230983.148903.38705.276985.695048.333159.811398.708425 1.626684 1.187525 2.452564-.30625-.783601-.843525-2.020636-1.270207-3.025655-.06538-.03945-.129211-.0819-.194303-.121957zm1.893424 1.04128c1.699374 4.016633 4.411609 8.012133 7.518921 12.134141 2.474642 3.28275 5.223544 6.66477 7.377328 9.95443.124624.0181.249411.0344.374137.0517-.604121-.94702-1.257618-1.90003-1.948201-2.85926-.893843-1.20282-1.783022-2.38422-2.654102-3.53983-3.134742-4.06821-6.495815-8.212436-8.791711-12.356871-.517701-1.0615-.985439-2.108914-1.4087-3.151229-.156373-.07721-.311738-.155316-.467672-.233061zm10.668083 15.741161c.914607 1.18696 1.810225 2.36768 2.654102 3.53983.08628.11611.169945.22498.256315.34158.603821.842 1.180095 1.68316 1.72651 2.52233.299906.0415.599752.0823.900203.11937-2.720454-4.063-6.381179-8.27967-9.129159-12.30622-2.256824-3.15047-4.091344-6.167621-5.399153-9.137946-.285889-.136137-.570018-.275372-.854212-.414445 2.138445 5.059662 5.806122 9.976811 9.845394 15.335501zm-12.812138-15.096239s-.0287.03298-.0217.06821c.0073-.02284.0147-.04541.0217-.06821zm2.665987.187586c.02976-.01632.164815.114388.12144.224276-.119216-.15157-.139293-.214484-.12144-.224276zm1.727543.253731c.372499.805632.615407 1.263301.392225.850594-.26297-.445713-.04138.174818.734322 1.643311.785789 1.487512 1.573007 2.748094 2.150256 3.676778 3.233 5.079959 7.65196 10.150739 10.878406 15.031129.05299.006.106158.0114.159164.0176-2.197314-3.23607-4.968864-6.551-7.240386-9.81439-2.885098-3.867187-5.187117-7.53281-6.904488-11.326444-.05654-.02612-.11303-.05227-.169499-.07855zm-12.158948.300757c.02218-.01395.137025.09775.110588.19172-.103729-.129644-.123896-.183348-.110588-.19172zm10.712008.04341c.02219-.01001.131524.09807.102836.17725-.09811-.122634-.116149-.171243-.102836-.17725zm2.52181.142627c1.14867 2.583491 2.675845 5.19382 4.499984 7.897188 2.729611 4.04529 6.430859 8.60205 9.236646 12.89069.110261.012.220409.0258.330729.0372-3.77178-5.88482-9.42803-12.01717-12.613184-18.080553-.490021-.904375-.928426-1.799033-1.324467-2.687691-.04324-.01893-.08652-.03779-.129708-.05684zm.485759.21239c.261949.578077.542818 1.159926.847493 1.747697 3.054851 6.274741 8.904569 12.719251 12.830742 18.875331.07716.008.154327.0152.23151.0227-4.331676-6.60466-9.842251-13.439698-13.197127-20.349107-.238177-.097263-.476029-.195225-.712618-.296623zm-13.448792.0832c-.00004.00017-.02015.07838-.02015.07855-.008-.03819.02015-.07855.02015-.07855zm.06563.289905c.05003-.03349.189074.06402.267684.393258-.278735-.19528-.317715-.359768-.267684-.393258zm9.184453.02739s-.02764.0329-.01964.0677c.0065-.02258.01264-.04516.01964-.0677zm5.593457.170015c.366865.698167.761773 1.398653 1.191141 2.103748 3.219464 6.04159 8.007321 12.17328 11.949659 18.02732 1.463501.12755 2.930823.20444 4.399215.22272-.441242-.43941-.921162-.86293-1.450041-1.26142-.736709.17152-.548879 1.27007-1.228349.87489-1.515268-.0219-3.558212-3.8509-5.08186-5.83737-3.14977-4.68289-6.625816-9.052476-8.911084-13.810528-.290428-.1039-.580875-.20794-.868681-.31936zm-14.509193.370003c.0354-.02347.171046.09436.300241.424264-.270815-.236013-.335646-.40079-.300241-.424264zm15.74581.08217c2.088116 4.105713 5.041906 8.067535 8.209835 12.213725 1.832578 2.18622 3.477719 4.651 3.365169 3.86592 1.023119 1.01044.920727-.0132 1.901176.99425 1.144886.51443 2.312609 1.62203 3.270602 2.82877.578587.003 1.157365-.003 1.735811-.0176-.624555-1.056-1.382098-2.08673-2.306319-3.05356-.944039-1.13395-1.851051-2.09594-3.15588-3.51038-.261825-.32457-.511482-.64232-.766878-.96325-.05517-.052-.08942-.0968-.103353-.12971-2.962025-3.72982-5.486957-7.243383-7.400065-10.98331-.253947-.05204-.50826-.102827-.761194-.15813 1.117326 2.378083 2.536953 4.611111 3.645255 6.17275 1.056879 1.54559 2.463194 4.16144 1.315166 2.30064-1.557139-1.57327-.30625.23151-1.755449-1.62213.907869 1.33426.749194 1.13677.377755.68833-.24946-.30118-.681905-.81757.302824.62736.0554.2354 1.164443 1.88856 1.954402 3.05717.80467 1.19038 1.138664 1.68382-.275435-.28938.18224 1.40937-3.649759-3.43606-5.206917-5.49941-1.615126-2.202462-2.986066-4.335028-4.082955-6.430618-.08818-.02951-.175625-.06118-.26355-.09147zm12.150163 12.228195c.03428.0432.06895.0865.103353.12971.0563.0531.129542.10977.22996.1602-.259964-.36222-.371814-.38095-.333313-.28991zm-15.153599-11.598784c.023-.03545.259904.238105.282154.472839-.232699-.31927-.295953-.451569-.282154-.472839zm1.120346.0072s-.02919.02875-.02119.06098c.007-.02043.01419-.04059.02119-.06098zm-13.102043.482657s-.02654.03972-.01654.07752c.0001-.00029.01647-.07722.01654-.07752zm20.076294.195854c1.733134 3.486813 4.182553 6.852793 7.031612 10.354413 2.657323 2.87864 5.208068 5.46138 6.832142 8.20466.07479-.002.149488-.007.224275-.01-.04469-.0763-.08505-.14937-.131258-.22686-1.066199-1.78812-2.216502-3.36789-2.339392-3.62975.936785 1.29723 1.802741 2.57977 2.552299 3.85299.09754-.004.194968-.009.292489-.0134-1.113442-1.92768-2.512498-3.87543-4.092774-5.81514-2.840267-2.93172-5.147967-5.94551-6.976835-9.065596-.66534-1.135089-1.244481-2.244899-1.776636-3.353801-.540565-.09212-1.079213-.190952-1.615922-.297656zm2.04742.368453c2.004854 3.97215 4.090221 7.51954 7.859986 11.5099 1.859715 2.22788 3.487819 4.45867 4.751648 6.64507.149693-.007.299425-.0114.449068-.0196-1.221004-2.28554-2.792658-4.59775-4.431771-6.93497-2.63875-3.76261-5.184813-7.256348-7.169071-10.979702-.128302-.0177-.256327-.03677-.384473-.05529.237713.504297.475886 1.008228.708484 1.506368.505969.726106 1.251144 2.001225 1.588533 2.625679.31875.589945.473223 1.003485-.334346-.189652-.961073-1.36292-1.750547-2.687276-2.437061-4.010091-.200734-.03064-.400701-.06503-.600997-.09767zm2.642216.371554c2.20785 3.849814 5.161917 7.574576 7.682219 11.395176 1.441389 2.04511 2.72294 4.17791 3.709334 6.30349.06768-.005.135429-.009.203089-.014-.02844-.062-.05576-.12404-.08475-.18604-.05182-.1117-.106047-.22395-.159163-.3359-1.7104-3.53728-4.288895-7.07175-6.836792-10.66188-1.24668-1.73706-2.473932-3.487696-3.567224-5.262212-.254435-.404198-.508626-.808528-.750342-1.214913-.06552-.0075-.130887-.01604-.196371-.02377zm.946713 1.238684c1.115377 1.771904 2.333517 3.523862 3.567224 5.262212 2.190704 3.05242 4.431403 6.06431 6.066296 9.09506.268408.52628.52404 1.04743.770496 1.56683.05413.11195.106805.22393.159163.33589.02868.0618.05959.12428.08785.18604.06338-.005.126805-.009.19017-.0139-.315036-.70789-.662314-1.41494-1.037146-2.11977-1.461219-2.74766-3.380017-5.55539-5.506124-8.2982-1.709463-2.41546-3.382336-4.798032-4.760433-7.196469-.08598-.0095-.171942-.0186-.257866-.02842.118938.207346.236229.414328.360185.622184.117259.196627.239415.392575.360185.588595zm-.393775-1.175122c3.480751 6.015774 8.826346 11.710124 11.331092 17.598934.03551-.003.07094-.007.106453-.01-.431281-.98295-.919775-1.96458-1.461409-2.93987-1.665169-2.99841-3.830664-6.05018-6.196521-9.06043-1.328848-1.88051-2.555654-3.729937-3.595647-5.570211-.0613-.0065-.12269-.01193-.183968-.0186zm1.185974.117822c3.26293 5.378162 8.011942 10.441352 10.327536 15.770622.271913.50929.509948 1.06044.723986 1.62832.06197-.006.124081-.0103.186036-.0165-.502293-1.22762-1.099624-2.45368-1.764234-3.67161-1.722588-3.15672-3.940748-6.35991-6.344316-9.520867-.997801-1.375747-1.9746-2.767136-2.819466-4.164604-.103149-.0087-.206443-.01613-.309542-.02532zm.448035.03669c3.19576 5.099122 7.416162 9.887702 9.752377 14.908142.458263.8275.824112 1.63518 1.135848 2.42776.04484-.005.08953-.0108.134358-.0155-.584775-1.44337-1.29572-2.88455-2.097546-4.31498-1.877178-3.34884-4.263951-6.73623-6.779948-10.113599-.733246-.972901-1.382863-1.930904-1.951302-2.87631-.0646-.0051-.129207-.01022-.193787-.0155zm.318844.02584c3.13959 4.953182 7.179599 9.590352 9.461438 14.468892.586492.93473 1.029881 1.87683 1.384928 2.80964.06309-.007.126068-.0147.189136-.0217-.793787-2.02217-1.832877-4.05237-3.060278-6.00015-1.831079-3.46174-4.660923-6.81029-6.934461-10.329606-.191706-.296752-.375641-.593846-.556038-.890902-.161651-.01107-.323168-.02382-.484725-.03617zm.620634.04444c.361537.5764.757061 1.156998 1.20096 1.74408 1.658028 2.663922 4.100338 5.239912 5.520077 7.838282-.36791-1.14949-1.84004-3.1826-3.271119-5.13508-1.394918-1.903154-2.591134-3.581551-2.370915-3.55328 2.602348 3.93052 5.217582 7.05628 7.21093 10.93164 1.011362 1.76051 1.876871 3.55229 2.554366 5.33766l.07958-.009c-.599064-1.55648-1.329484-3.11946-2.162142-4.68447-1.822338-3.42518-4.086014-6.83776-6.723621-10.253646-.511762-.727398-.982188-1.453613-1.403532-2.177129-.211601-.01181-.423102-.02474-.634586-.03876zm1.666565.08682c1.771244 3.126922 4.932903 6.228972 6.447151 9.414412 1.589421 2.54966 2.919094 5.04081 3.911906 7.50755.03583-.005.07167-.01.107487-.015-.570803-1.34512-1.262002-2.73415-2.038635-4.27364-2.010698-3.57938-4.232157-7.44304-7.288444-10.994166-.33032-.538181-.644714-1.083768-.933793-1.630908-.06856-.0024-.137115-.0056-.205672-.0083zm.366902.01447c.06802.154871.206482.428581.479041.921391.525459.296605.192701.993649.921391 1.201994-.19373-.393655-.85022-1.45706-1.175639-1.947685-.03869-.05834-.08149-.115597-.12299-.171566-.03394-.0011-.06787-.003-.101803-.0041zm.5302.01395c1.218301 1.977304 3.428713 3.865014 4.184758 5.945382 2.093894 3.69817 4.678909 7.33122 6.478675 10.76471.108361-.0178.216768-.0348.325044-.0532-.103248-.15957-.207004-.31857-.307991-.48525-1.751739-3.15345-3.721588-6.24769-5.937106-9.61905-.568415-2.06472-3.017162-4.578382-4.081921-6.539137-.220452-.0029-.440961-.0081-.661459-.01344zm-29.433346 1.255737s-.06752.03632-.07751.07235c-.0009.00079.07837-.07314.07751-.07235zm21.888587 1.438672c.05863.01242.227847.201381.449585.649573-.417223-.38983-.524964-.66551-.449585-.649539zm9.077999.001c-.19156.166255 3.288068 4.538913 4.004407 6.269383 1.684625 2.7319 3.174284 5.3037 4.255554 7.88272.157585-.0232.314902-.0483.472323-.0729-.745467-1.54095-1.579549-3.1872-2.785877-5.06067-1.959938-2.93287-3.341399-6.03842-5.946407-9.018573zm-6.680729 1.068669c.03551-.02579.259469.208669.234094.394284-.208751-.269667-.255398-.378808-.234094-.394284zm-3.100069.459404s-.0255.0302-.0155.0605c.0051-.0202.0105-.0403.0155-.0605zm3.424597.0186c-.008.0192-.01514.0387-.02274.0579-.007-.0285.02274-.0579.02274-.0579zm.361218.41186c.03731.004.283503.36279.820105 1.29811.10026.17586.345715.55501.345715.55501-.0129.004.0041.0398.0041.0398h-.000517c-.714393-.92423-1.231618-1.90017-1.169438-1.89291zm.400493.22893c.06366-.018.253436.17067.378271.6196-.37946-.37698-.441928-.60161-.378271-.6196zm-3.57911.32608c-.02717-.004-.03893.019.04651.0837.02325-.047-.01934-.0793-.04651-.0837zm2.076359.41186c.05373.0379.426563.52536 1.104325 1.45676.13793.19137.45682.60048.45682.60048.13746.19659.455269.61546.455269.61546h-.000516c-.52333-.50691-1.357978-1.64141-1.765267-2.25464-.2004-.30173-.282866-.44082-.250631-.41806zm1.600936.95549s-.02554.0312-.01654.0605c.0054-.0203.01054-.0403.01654-.0605zm.237195.20361c-.006.02-.01104.0399-.01654.0599-.009-.029.01654-.0599.01654-.0599zm-2.927987.0408s-.021.032-.0093.0625c.003-.0208.0063-.0417.0093-.0625zm-.502812.5917c.01812-.018.216506.20336.383956.53692-.303034-.36426-.39805-.52292-.383956-.53692zm2.104265.28732c.02553.003.06706.0335.04806.0832-.08313-.0613-.07359-.0861-.04806-.0832zm9.144144.15245s-.03662.033-.03462.0599c.0114-.0201.02312-.0399.03462-.0599zm.232028.49971c-.02333.0199.180961.4182.763261 1.41283 1.47396 2.30994 2.689323 4.79116 3.591512 7.23677.08727-.011.174252-.0247.261482-.0362-.8716-2.15191-2.026984-4.31524-3.30109-6.5691-.605606-1.05975-1.276282-2.07755-1.315165-2.04432zm-7.600053.27595c-.004.0211-.0069.0418-.01034.063-.0105-.0301.01034-.063.01034-.063zm.128157.21807c.02891-.0298.285149.2004.682129.7798-.512629-.46031-.711041-.75002-.682129-.7798zm.981852.98134c.01995-.016.200677.19345.340548.50488-.274417-.3435-.356063-.49241-.340548-.50488zm-5.012614.0439s-.01522.0356-.000516.0682c0-.0002.000506-.0681.000516-.0682zm6.045109 1.02371c.05671-.0227.264198.17296.593246.7736-.489639-.35445-.666153-.74446-.593246-.7736zm.68523.82993c.02058-.0218.148246.0692.132808.18087-.119129-.11396-.145154-.16779-.132808-.18087zm.419096.39791c.0462-.0117.365892.31424.571024.74775-.477408-.52541-.606955-.73869-.571024-.74775zm29.449366-80.811501c-.08386.0232-.167808.04605-.251665.06925.211622.772332.493137 1.571527.831991 2.391585.04107-.109671.08478-.21806.129708-.326078-.28489-.726664-.525128-1.439564-.710034-2.134754zm-1.275375.351917c-.103882.02872-.207726.05759-.311609.0863.351065 1.546115.938292 3.126784 1.688786 4.734079.0099-.309208.03641-.617649.07338-.925525-.632339-1.284055-1.038723-2.702418-1.450558-3.894853zm-1.409733.38964c-.100944.02789-.201879.05583-.302824.08372.647417 2.328551 1.819976 4.756216 3.323828 7.233667-.03154-.176093-.06086-.352552-.08682-.529167-1.250051-2.122028-2.174566-4.736208-2.934188-6.788216zm-.633553.175183c-.08713.02407-.174356.04777-.261483.07183.727092 2.842761 2.342881 5.881784 4.357357 8.988599-.04658-.170448-.08759-.34212-.130741-.513663-1.806902-2.907111-3.251715-5.788297-3.965133-8.546766zm-1.901693.525033c-.119037.03286-.238046.06584-.357084.0987 1.238182 4.279778 4.048089 8.821631 7.974707 13.4028.153081.184167.299844.366869.450619.550354-.152906-.286938-.299966-.577038-.43925-.871265-3.66061-4.515169-6.442917-8.984053-7.628992-13.180591zm-1.513086.418062c-.131768.03636-.263556.07268-.395324.109037 1.49774 4.620601 5.151823 9.595043 9.344649 14.496274 3.536755 4.585472 6.359759 8.5848 8.402589 12.807487 2.60091 5.60505 3.17625 10.859042 1.85519 16.341638 1.25395-3.980254.99523-8.086211-.2372-12.288655-2.27641-8.247821-8.641518-15.326922-14.89625-23.312273-1.441059-1.843046-2.487429-3.885606-3.270085-5.87406-.310873-.789817-.564063-1.549905-.803569-2.279448zm-1.753898.484208c-.07287.02011-.145716.04035-.218591.06046.985327 2.711775 2.723732 5.498847 4.7656 8.334892.898689 1.209325 1.793489 2.397317 2.669088 3.558956 3.130082 4.06141 6.483782 8.19844 8.775695 12.335681 1.7588 3.606263 3.01012 7.061538 3.49901 10.639144-.0329-1.127139-.34588-2.776106-.89297-4.533573-.49994-1.606017-1.04823-2.865885-.78496-2.456698.38916.924428.90977 2.424941 1.30121 4.127397.33239 1.445615.48763 2.751149.5085 2.02675-.6767-6.240437-4.52159-12.248736-9.273859-18.552874-3.908059-5.184245-8.506681-10.616857-10.348723-15.540135zm7.216097 11.95431c-.91988-1.193582-1.820513-2.380332-2.669088-3.558956-.086793-.116794-.170977-.226348-.257865-.343649-1.922488-2.680798-3.629177-5.359376-4.634342-7.956103-.271842.07501-.543613.150304-.815455.225309 2.24681 5.518155 8.03242 11.651455 11.952759 17.395838 6.276426 8.761729 9.310516 16.492448 6.723106 25.050668-.0148.06694-.0253.121813-.0398.188102.001-.000471.001-.0011.003-.0015.0227.06659.002.08413-.0202.08578-.24253 1.121422-.39534 2.007789.37827-.189653.69939-1.986593.75647-3.031016 1.02837-4.299996 1.0992-9.538111-4.730177-17.417544-11.648395-26.595793zm10.241755 31.085442c.006-.02937.0111-.05457.0176-.08423-.0961.03894-.0534.08684-.0176.08423zm-18.825727-42.661997c-.04375.01207-.08751.0241-.131258.03617 1.978834 4.734926 6.593603 9.812862 10.043831 14.769641 3.27425 4.388808 5.8006 8.517435 7.569564 12.868982.002-.0034.003-.0069.005-.01033.00042.0049-.004.0083-.005.01292.23549.579394.45855 1.162348.66714 1.750798.67888 2.459349.8325 2.860962-.11989.117822.65897 1.940239.80047 3.241853.85421 4.177523.0422.735564.0904 2.564716-.13384 4.549076.12995.472604.38927-.645153.42375-2.18953.0399-1.787537-.19526-3.064426-.31833-4.101559-.0816-.964827-.55431-2.65474-1.26711-4.395597-.6563-1.602886-1.32705-2.84165-.99425-2.226221.26297.445714.0414-.174818-.73432-1.643311-.785793-1.487512-1.573004-2.747577-2.150259-3.676261-4.35587-6.844311-10.87305-13.67368-13.709758-20.040121zm17.482657 27.677381c-.00033-.000801-.00019-.0018-.00052-.0026-.009.01676-.0175.0334-.0264.05013 0 0 .021-.02155.0269-.04754zm-18.040246-27.523385c-.05068.01398-.101247.02839-.151929.04237 3.092909 7.272897 11.12265 15.084056 15.167034 22.783107 3.208801 5.922103 4.449561 11.45743 3.106791 17.259412-.12706.548988-.28253 1.093663-.45217 1.636592.006.08012.0139.160084.0191.240296.43058-1.294278.76436-2.600727.9958-3.925342.7897-6.929876-1.97146-13.333168-6.71535-20.363616-3.778661-5.599999-9.424612-12.182447-11.969276-17.672819zm-.252698.06976c-.08891.02453-.17774.04937-.26665.0739.459183.810091.89191 1.591646 1.044381 2.13372 5.24734 8.612789 13.266694 17.659268 16.421223 26.780795.50167 1.645485.95369 3.750583.94258 6.095236-.009 1.949899-.36297 3.575245-.56069 4.108793.10916.537582.19318 1.07943.25941 1.623157 1.57016-5.693355.6929-11.208807-2.452045-17.275949-3.837044-7.881396-12.083992-16.030733-15.388209-23.539649zm5.085478.364836c-.02589.02496-.05185.04997-.07751.07493 0 0 .06465-.04045.07751-.07493zm-.0088.224275c1.149637 4.461334 5.609567 9.373986 9.525517 14.236341 3.893549 5.017198 6.777719 9.772961 8.781389 14.812533-1.2875-4.19378-3.64568-8.27191-6.66885-12.442652-.723722-.864265-1.405883-1.760252-2.027273-2.693892-.942981-1.20897-1.933051-2.428935-2.96261-3.66541-3.152643-3.38075-5.095176-6.949345-6.648173-10.24692zm-5.581055 1.011825c.118043 1.068862.315366 2.121139.577226 3.15743 1.505063.170599 3.495621 3.882444 4.988326 5.828585 3.179282 4.726751 6.693246 9.133806 8.97723 13.943852 2.370714 4.277351 3.302399 8.284968 2.931089 12.317078.23538.750307.43857 1.508934.59687 2.27583.2853-1.209552.1461-2.217301.2806-3.49436-.0289-4.354157-1.511722-8.607163-4.196649-13.01626-3.562257-6.684875-9.048834-13.481079-13.180591-19.888193-.220511-.27874-.631583-.756342-.974101-1.123962zm1.485181 6.082316c1.002091 2.741843 2.354341 5.377039 3.730005 7.926132 1.679328 3.089555 3.583742 6.040806 5.522144 8.970512-1.163558-2.887398-2.938177-5.709343-4.262789-7.575766-1.056872-1.545584-2.462675-4.160913-1.314649-2.300118 1.55714 1.573273.30625-.232027 1.755449 1.621607-.907865-1.334253-.749711-1.136769-.378272-.68833.249462.301175.681905.818098-.302824-.626835-.05539-.235401-1.164445-1.888569-1.954402-3.057178-.804671-1.190375-1.138663-1.683827.275435.289388-.182244-1.409382 3.650269 3.436056 5.207434 5.499406 4.472848 6.099386 7.091886 11.666949 7.104993 17.379301.07437.19027.144358.381869.214466.573609.0537-2.072193-.240082-4.202736-.929151-6.43475-1.803076-5.97573-5.824061-11.412214-10.25414-17.210316-1.832579-2.186217-3.477209-4.650472-3.364652-3.865397-.572628-.565534-.794272-.49728-1.049032-.501262zm4.332552 4.182174-.000516.06873s.01519-.0361.000516-.06873zm-.406693 1.990059c.69265.832576.297688.592995 0 0zm-.109539 1.066605c-.0029.02085-.0058.0412-.0088.06201 0 0 .02048-.03149.0088-.06201zm.930692 1.591634c-.04646.09387.170881.129435 0 0zm.66921 1.008724c-.0051.02023-.0103.04027-.0155.06046 0 0 .0251-.03018.0155-.06046zm12.174968 1.742529c3.07958 4.557211 5.33111 9.063289 6.58152 13.85807-.19329-.832576-.68116-2.652431-1.03353-3.704684-.35237-1.052254-.36085-1.332562.37517.920874.43292 1.323345.82715 3.065283.9958 4.969206.15539 1.754373.0585 3.222713.13436 3.290755.54095-6.313018-2.1789-12.326287-6.28799-18.539437-.25748-.262156-.5117-.527241-.76533-.794784zm-2.246375 3.897437c.620525.851388.03559.375575 0 0zm-.817004.405143c-.007.02043-.01409.04059-.02119.06098 0 0 .02869-.02875.02119-.06098zm7.433139.152963c4.03152 7.388323 5.2821 14.338224 2.35852 21.578011-4.08466 10.839825-14.667639 19.090951-26.585466 28.624086-3.797842 3.16779-7.569134 6.10892-9.857797 8.94519.145493-.0156.290759-.0334.436149-.0501 5.099802-5.96496 15.870101-13.469355 22.969658-19.988443 9.940676-9.127909 15.169046-17.50855 14.693166-27.332182-.31346-3.997674-1.69934-7.739535-3.69642-11.425143-.10478-.118206-.21177-.23433-.31781-.351399zm-2.48718 1.099157c-.007.02258-.0126.04516-.0196.0677 0 0 .0276-.0329.0196-.0677zm.0202.147278c.38706.990368 1.20654 2.838174 1.60869 3.823023.40215.984848.61006 1.108064-.42065-1.370459-.33316-.811398-.70894-1.626684-1.18804-2.452564zm-1.33377.498678c.26163.327024-.0459.126683 0 0zm.262.55087c.31791.404187-.0694.17582 0 0zm2.80913.343132c-.007.02284-.0152.04593-.0222.06873 0 0 .0292-.0335.0222-.06873zm3.05305.151929c3.05052 6.430036 3.97919 12.691247 1.14618 19.258773-1.01286 2.790157-2.71225 5.546782-4.84105 8.263062-5.383538 7.244745-13.757675 13.794145-22.711796 21.824498-.05518.0462-.108361.0937-.163298.14005-1.574721 1.47983-3.057009 2.93861-4.371309 4.37079-.403543.49157-1.058366 1.20113-1.736328 1.97146.10505-.0186.209745-.0397.314709-.0589 2.278322-2.69334 5.387335-5.54024 8.656836-8.41396 5.676792-4.989589 11.094607-9.453183 16.259476-14.740699 7.59253-8.550306 11.50786-16.206332 10.07794-25.3106-.41913-2.277057-1.11407-4.408594-2.00505-6.452837-.20492-.286626-.41335-.570659-.62631-.851627zm-26.570014 49.486383c7.322824-6.881584 16.835894-14.25874 22.875094-21.964548 3.5389-4.762373 5.78825-9.824528 6.0508-15.807821-.0338-.571037-.0625-1.137394-.0997-1.699638-.33691 11.868005-8.3171 21.372076-21.918048 32.18615-5.792102 4.816067-12.450597 9.704807-16.13545 14.085957.179708-.0212.359451-.0416.538986-.0646.726065-.95034 1.558074-1.90633 2.562634-2.71404 6.942112-6.41318 17.061614-13.722633 24.571108-21.122222-7.924076 8.388273-19.805896 16.507612-25.618589 23.618712.26445-.0414.528764-.0834.792716-.12868.09547-.11455.187037-.22733.285771-.34313 1.710793-2.00645 3.794736-4.10626 6.094718-6.04614zm26.974074-47.622931c-.0778.878846.5463.400027 0 0zm.22841.567924c.20544 1.243968.90208 1.498918 0 0zm1.69085 1.029911c.8297 2.123378 1.38876 4.238886 1.55288 6.335531-.0148 1.229158.0343 2.199053.078 2.469617.0197-.30069.0394-.585585.0589-.879533-.002-.271448-.007-.599085-.0171-1.003556-.0382-1.900851-.41007-3.824296-1.02061-5.760373-.2092-.391755-.42701-.778914-.65216-1.161686zm1.68982 7.925615c.006.870103-.0247 1.091306-.0589.879533-.0406.620891-.0822 1.228921-.12713 1.670699-.10819 1.063445.0855 1.224982.28526-1.502234.0662-.822634.1533-1.661192.015-2.508374-.0396.36785-.077.900198-.1142 1.460376zm-6.84041-7.913729c.72007 2.142399.96666 4.21668 1.09967 6.350517.25944-1.909363-.24343-4.259094-1.09967-6.350517zm1.14101.302824c-.0117.02149-.0233.04316-.0351.0646 0 0 .0361-.03039.0351-.0646zm.0997.323494c-.012.02142-.0241.0427-.0362.06408 0 0 .0366-.02991.0362-.06408zm1.46503 3.355351c.0929 1.158477.16942 3.282989.12454 4.425053-.0449 1.142065.14976 1.323319.19688-1.438155.0159-.974819-.0663-1.966723-.32142-2.986898zm4.44985.05374c.27851 1.608755.41438 3.222916.39326 4.851383-.078.569729-.22279 1.681769-.31057 2.303736-.003.01808-.1511 1.36263.26251-.621151-.17959.983903-.55524 2.569226-.76946 3.338814-.21422.769587-.0519.742935.52142-1.531689.69849-2.658969.24254-3.968021.63407-4.476213-.0718-.951384-.18623-1.895652-.33797-2.835486-.009-.02396-.0163-.04841-.0253-.07235-.11674-.321766-.23995-.640535-.36794-.957047zm-9.81439.276468c.12134.766715.11248 1.580207.0724 2.009697-.0359.384818-.0268.254713-.0532-1.09244.0187-.289267-.0788-.662396-.0191-.917257zm7.5706.03411c-.0149.02267-.0299.04559-.045.06821 0 0 .041-.03269.045-.06821zm.0357.563273c-.0152.02262-.0302.04513-.0455.0677 0 0 .0415-.03219.0455-.0677zm-5.54281.01964c.15513 3.051488.39906 2.75039.13642.222725.01.0051-.002-.02377-.002-.02377-.0342-.05304-.13436-.198954-.13436-.198954zm5.54694.168465c-.0977.104179.11501.164209 0 0zm-5.71282.0026c-.0188.01896-.0374.03794-.0563.05684 0 0 .0483-.02469.0563-.05684zm.0103.155029c.15717 5.718825-2.00258 10.968485-6.090072 16.34474-.208083.361285-.427313.716278-.656291 1.065568 1.218913-1.521685 2.327253-3.096324 3.343983-4.679818 2.43574-4.259243 3.78219-8.346811 3.40238-12.73049zm7.62744.131258c-.0153.02351-.031.04733-.0465.0708 0 0 .0415-.03455.0465-.0708zm.6258.06098c.0756.329188.57005 4.79231 0 0zm-6.26731 1.499133c-.0199.01928-.0399.03865-.06.05788 0 0 .0496-.02531.06-.05788zm-.0248.256832c-.12175.08905.10068.16794 0 0zm-3.94963.420129c.0899.167248-.13633.07181 0 0zm3.96927.113688c-.0209.01947-.0419.03898-.0631.05839 0 0 .0513-.02559.0631-.05839zm-1.7322.09043c-.0221.01833-.0439.0365-.0661.05478 0 0 .053-.02302.0661-.05478zm-2.23811.08061c-.0145.03055-.0698.05116-.0698.05116.0234-.017.0465-.0341.0698-.05116zm3.95636.224793c-.0214.01936-.043.03858-.0646.05788 0 0 .0522-.02515.0646-.05788zm-1.87379.113688c-.14825 1.050812-.39143 2.196355-.46664 2.627747-.0752.43139.1406.156698.49558-1.667599.0434-.26585.0868-.836641.0868-.836641-.0297-.02758-.11575-.123507-.11575-.123507zm1.81022.102836c-.35332 3.268795-1.19463 6.608526-3.1197 9.940479 1.75635-1.969635 2.19914-4.811641 2.83238-7.216097.1157-.921219.37998-1.781261.28732-2.724382zm-4.08502.914673c-.0174.07825-.0431.176522-.0656.267684.0147.08467.002.118092-.0264.108521-.13311.518613-.34017 1.211222-.63768 2.059822-.32229.919251-.63638 1.697488-.339 1.382862.76696-2.079772.6303-1.642752.33486-.674378-.19563.641244-.556 1.502509-.84026 2.021582-.016.210157-.0345.420585-.0584.630969.0402-.09022.0801-.175141.1204-.2682.96641-2.23352 1.20747-3.615571 1.51154-4.748548.0125-.247225.00052-.780314.00052-.780314zm-.092.376205c.01-.03901.0172-.07158.0264-.108521-.01-.05592-.0288-.129461-.0724-.24443-.19513.03397-.0323.326461.046.352951zm6.12521-.291456c-.0218.01994-.0437.04006-.0656.05995 0 0 .0524-.0267.0656-.05995zm-6.1805.340548c-.0259.01595-.052.03164-.078.04754 0 0 .06-.01791.078-.04754zm-.047.224276c-.0262.01625-.0522.03239-.0785.04858 0 0 .06-.01864.0785-.04858zm6.08439.07855c-.13524.08643.0839.16993 0 0zm3.54087.05478c-.14981.984281-.51561 2.764208-.7705 3.718119-.25488.953912-.14825 1.103568.44804-1.197859.13702-.817381.47538-1.81611.32246-2.52026zm-3.83646.06201c-.0227.02001-.0454.03998-.0682.05994 0 0 .0537-.02654.0682-.05994zm.29766.102319c-.023.02007-.0456.03992-.0687.05994 0 0 .0539-.02651.0687-.05994zm-.0444.204639c-.20959.0517.0957.246018 0 0zm-.0858.33538c-.0234.02001-.0468.03999-.0703.05994 0 0 .0548-.02653.0703-.05994zm-6.12262.03101c.0682.170394-.15554.06616 0 0zm6.03271.38964c-.14045.08775.0754.167632 0 0zm6.31434.05271c-.60329 4.659029-3.84297 8.635402-6.87297 13.210047-4.88538 6.032001-10.778581 11.993841-17.394288 17.654218-3.351873 3.06132-6.500105 6.09512-8.90695 8.99428.141429-.0379.282047-.0789.42323-.11782.194535-.2005.395875-.39836.608748-.59221 5.379068-6.64719 15.181075-13.88871 21.60592-21.437968 4.80799-5.537339 8.55182-10.339167 10.37301-15.88947.10012-.396285.17436-.79255.23771-1.189074-.022-.211054-.0477-.4215-.0744-.632003zm-10.46913.590662c-.67741 2.230824-.66936 3.101844.0429.386023.0236-.06507.0491-.236162.0491-.236162-.0234-.03616-.0915-.149861-.0915-.149861zm4.04265.134875c-.0448.01217-.0899.02415-.13488.03617 0 0 .0974-.01054.13488-.03617zm-.15141.116272c-.28342.999016-.8503 2.878042-1.22422 3.896403-.37393 1.018362-.26632 1.195495.58446-1.234033.16681-.839424.77392-1.892884.63976-2.66237zm-5.06585.0098c-.0216.0301-.0853.04857-.0853.04857.0284-.01619.0569-.03233.0853-.04857zm4.91392.105936c-.0253.01912-.0506.0383-.076.05736 0 0 .0579-.02474.076-.05736zm4.76663.0646c-.29044.440401-.83568 2.371966-1.32085 3.666443s-.66147 1.975086.14676-.06666c.46595-1.202171.90071-2.383304 1.17409-3.59978zm-.74517.134875c-.0238.02194-.0478.04374-.0718.06563 0 0 .0555-.03065.0718-.06563zm-4.28294.539502c-1.01636 2.708875-.32125 1.592579 0 0zm-1.49139.232027c-.34194 1.229524-.89865 2.687294-1.73374 4.365626-.76272 1.532874-1.57455 2.85134-1.5596 3.112988 1.52216-2.534115 2.89989-4.929748 3.29334-7.478614zm5.57124.03204c-.32171.882426-.86943 2.358583-1.23197 3.200838-.32804.887268-.3338.75952-.0723.173633.0212-.04742.0496-.12071.0723-.173633.12106-.327429.27944-.771511.49403-1.412834-1.40581 2.927793-2.5374 6.143569-5.03328 9.216492-.74018 1.338837-1.15185 1.698554-1.66347 2.230872-.007.06549-.0473.08328-.0749.07855-.26131.276385-.54588.597909-.92966 1.145667-7.071746 7.740751-17.120711 15.444231-23.696749 22.325241-.61428.67957-1.221739 1.33697-1.800924 1.98334.162911-.034.326172-.0661.488859-.10128 2.761665-3.23978 6.625963-6.68263 10.527523-10.15235 6.932204-6.164924 13.332271-11.867235 18.159101-18.422127.51977-1.045991 1.58049-2.877697 2.06809-3.798218 1.78989-3.379117-.74368 1.543281-.84904 1.72341 1.44465-1.828163 2.10643-4.483624 3.11144-6.491077.1752-.502504.32101-1.011043.43098-1.526522zm-7.50962 13.313916c.0256-.02707.0499-.05252.0749-.07855.00045-.0044.002-.007.003-.01189-.12296.04328-.11243.08445-.0775.09043zm-.89607-11.806515c-.031.01626-.062.03238-.093.04858 0 0 .0675-.01834.093-.04858zm-1.13688.106971c-.0313.01573-.0627.03136-.0941.04703 0 0 .068-.01725.0941-.04703zm9.7839.145727c-.15653.128577.0318.346665 0 0zm-9.88571.07906c-.0315.01566-.0629.03091-.0946.04651 0 0 .0682-.01678.0946-.04651zm-.0698.150895c-.0316.01525-.0634.0308-.0951.04599 0 0 .0686-.01665.0951-.04599zm-.0708.150379c-.0319.01557-.0636.031-.0956.04651 0 0 .0687-.01684.0956-.04651zm9.87744.07493c-.0275.02168-.0552.04297-.0827.0646 0 0 .0615-.02989.0827-.0646zm-9.98492.149344c-.0322.01551-.0644.03106-.0966.04651 0 0 .0693-.01689.0966-.04651zm9.90431.03617c-.15779.09732.0539.166568 0 0zm-.11524.195337c-.42357.843976-1.23761 2.714879-1.79007 3.799251-.55246 1.084371-.58723 1.406062.51573-.859379.41008-.971816 1.16729-2.05273 1.27434-2.939872zm-9.18756.807703c-.63437 1.073232-1.42317 2.363576-2.797247 4.185791-1.181853 1.567305-2.349558 2.90884-2.145088 2.863908 2.118081-2.269818 3.817065-4.603716 4.942335-7.049699zm3.64319.594795c-.86622 1.124986-.23754 1.146426 0 0zm.15917.19017c-.26542.147092-.0264.426307 0 0zm8.52557.0186c-.08.155973-.16834.344779-.23306.486792-.36282.796117-.95577 2.03481-.98443 1.908411-.27161 1.001522-.87422 2.190381-1.32705 2.938839-.79481 1.313679-.14791.120129.34726-.814421-.19704.168905.2566-.755411.4961-1.352372.33082-.824597.17912-.560791-.70694.848527.12779-.663099-.57335.533074-1.14773 1.43247-.56466.88417-.85248 1.43909.22841-.574125.28072-.828083-.35014.207017-.83819.947746-.49356.749093-.76534 1.238966.24081-.632519-.62763.927902-1.21232 1.722614-1.54513 2.137854-.46561.580945.0742-.1245.88987-1.384412-1.72378 1.645233-3.05521 3.651174-5.04103 5.584672-3.02245 3.277215-6.462741 6.531707-9.562734 9.132776-5.024825 4.339456-9.730108 8.666396-13.040031 12.727906 1.353226-.38762 2.693888-.81857 4.018876-1.29398 1.070282-1.40908 2.340493-2.84985 3.877283-4.32584 2.179713-3.10362 7.067602-6.499495 9.727056-9.454713 3.75678-3.56404 7.02644-6.203296 9.42062-9.401493 1.37346-1.507558 2.79661-3.461636 3.89382-5.020882.12506.12587.48036-.242194.87075-.833025.0197-.105037.0398-.209989.0584-.315226-.0107.0062-.0243.01447-.0243.01447.008-.0063.0169-.01282.0253-.01912.0697-.395235.13047-.79195.18449-1.189591-.38864 1.297832-.87953 2.713699.0873-.700733.003-.0093.004-.01355.007-.02274.0306-.274717.0544-.549865.0775-.825273zm-8.70954.375688c-.18062.07881.0316.171066 0 0zm-.11576.294555c-.0328.01809-.0653.03623-.0982.05426 0 0 .0697-.0224.0982-.05426zm-.0796.157097c-.0528.0094-.10575.0187-.15865.02791 0 0 .11015-.0047.15865-.02791zm-.11989.174149c-.18531.07673.0288.171542 0 0zm-.14159.19017c-.60966 1.112953-1.43593 2.52821-2.82154 4.431771-1.1146 1.53125-2.27794 2.916936-1.52032 2.176611 1.79464-2.169467 3.32996-4.329105 4.34186-6.608382zm-2.09393.03927c-.45236.596187-1.81051 2.91533-2.96417 4.553727-1.153656 1.638397-1.820854 2.616673-.22117.566891 1.1404-1.773742 2.59469-3.326429 3.18534-5.120618zm6.62233.07906c-.17717.09426.038.166049 0 0zm-.10697.300757c-.0322.02063-.0642.04092-.0966.06149 0 0 .069-.0277.0966-.06149zm-.17208.222208c-1.88302 3.319622-3.8782 6.294956-5.53661 7.86567-5.039797 5.890648-10.92571 10.920119-17.065632 16.43568-3.108968 2.79283-6.090569 5.55228-8.363314 8.1902.147624-.0333.294933-.068.44235-.10232.4027-.48441.840538-.95689 1.330668-1.40301 4.434583-4.76597 10.779651-9.95024 16.289445-15.215606 2.59199-2.416823 4.874303-4.859311 7.407823-7.747848 2.59883-2.295066 3.53402-5.095947 3.68815-4.498433 1.08043-1.673543 1.20652-2.020887.40307-.888835.42704-.905594 1.15623-1.702463 1.40405-2.635498zm-5.4069.990637c-1.78744 3.007457-4.23213 5.721376-6.773756 8.690943 2.829116-2.891314 5.237776-5.73168 6.773756-8.690943zm9.59579.341582c-.0162.32747-.19097.142127 0 0zm-1.76061.954463c.0262.161358-.18646.103427 0 0zm-10.23814.102836c-3.11249 3.99933-.78114 1.663227 0 0zm10.61279.136392c-.0334.02226-.0672.04445-.10077.06666 0 0 .0715-.03194.10077-.06666zm-.33951.0098c-.0299.03451-.10181.06615-.10181.06615.034-.02193.0679-.04417.10181-.06615zm1.41748 1.344104c-1.9246 2.664611-4.50145 5.17497-7.09621 7.890474-3.92074 3.814661-8.77521 7.472833-12.627138 11.192602-1.820753 2.08449-4.847246 4.70942-6.659025 7.01249.899995-.33646 1.791136-.69555 2.674255-1.07332.2445-.23648.681218-.62638 1.362191-1.17512-.51247.50328-.896966.85811-1.16272 1.09089.17103-.0739.341781-.14832.512114-.22376 2.123321-2.09668 4.733764-4.17987 6.261116-5.1568.283412-.0876 3.919987-2.19102 1.872754-.13229 1.522043-1.45695 1.124903-.93723.679545-.36277-.397795.51311-.85621 1.09776.744658-.52193.58412-.73871 2.17425-2.35909 3.11454-3.358964 1.08134-1.14986 1.41464-1.557956.29146-.58291.30959-.328573 2.59036-2.681721 3.05459-3.150712.60924-.615484 1.42456-1.349077-.39015.842326-.0254.07697-1.0956 1.154297-2.27945 2.370915-1.0638 1.093244-2.21855 2.307595-2.64067 3.037535.0382-.0262.0652-.0489.1049-.0754-.0526.0547-.0871.0855-.13694.13642-.0297.0551-.0654.11429-.0853.16278.63619-.69225 2.32426-2.320463 3.07062-3.029785.14145-.134425 1.76345-1.624535-.7121.839742-1.28382 1.418763-1.09094 1.339733-.21136.52865.80933-.746308 1.92262-1.88677 2.17765-2.246891 1.76437-1.976126 1.80026-2.04016 1.79007-2.244824 2.1818-2.505767.18465-.348653-.24495.103352-1.77204 1.864445-1.02711 1.037913.16382-.306958.85548-.946512 1.67633-1.884668 2.46496-2.818949.58813-.971361 1.13577-1.96705 1.64176-2.982247-1.94515 1.902372-4.3572 3.582873-6.75979 5.423442-2.35553 2.324952-5.174678 4.264892-7.63985 6.361888-3.096122 2.19776 1.047492-1.525936 2.06344-2.420527 3.74649-3.315531 7.11403-6.350547 10.42521-9.690881 1.52901-1.597624 2.87966-3.217483 4.01629-4.867404.0572-.189143.10613-.380775.15968-.571024zm-12.32018 17.759636c.0111-.0206.0196-.0395.032-.061-1.851405 1.26899-1.970691 2.04358-.032.061zm5.38107-17.614425c-.49968.959867-1.42216 1.837258 0 0zm.0568.897619c-.45741.8793-1.1573 1.399766 0 0zm-1.40456.844393c-.0397.01827-.0796.03657-.11937.05478 0 0 .0818-.02314.11937-.05478zm3.24424.02791c-.0945.34723-.22312.116271 0 0zm-9.446969.485242c.000043-.00002-.127167.04549-.127124.04547 0 0 .08568-.01615.127124-.04547zm-.522965.389124c-1.025949 1.276285-2.678164 2.904037-3.988388 4.071586-1.141146 1.016885-1.267942 1.146673 1.300179-1.361157.775106-.754458 1.588422-1.627712 2.0252-2.14974.384263-.459264.29306-.371982-1.167887 1.083655-8.373442 9.091076-23.006105 17.210793-28.197246 25.026893-.0422.18775-.141807.38411-.264584.58342.21347-.009.426898-.0168.640271-.0284.584617-.87071 1.256465-1.77693 2.009697-2.66754-.000713.00008-.0062.001-.0062.001.000019-.00001.006-.002.0067-.002.497526-.58822 1.027066-1.16912 1.593185-1.72548 7.296693-6.92038 18.908105-14.405972 25.914181-22.430661.04632-.119701.134397-.400013.134876-.401526zm-27.642172 24.557737c-.000241.00029-.000275.00075-.000516.001.0099-.001.08016-.009.116788-.031-.000337.00009-.10389.0267-.116272.03zm28.539344-23.417687c-.232608.06492-.01923.172101 0 0zm-5.299418.268201c-4.416897 3.369567-8.526428 7.984166-13.325285 11.613761-6.17306 4.891505-12.843527 9.631555-15.079183 14.285425.0961.00007.192257.00041.288354 0 1.515727-2.32026 3.611044-4.90074 7.058484-7.7587 7.371604-6.215287 14.53376-11.159143 21.05763-18.140486zm3.532084 1.646927c-.02612.0087-.09969.0665-.225309.179834-.04785.03459-4.679938 4.137111-4.387329 4.003891.100313-.07166.226706-.168824.31626-.229961-.191437.150746-.28138.21408-.31626.229961-2.352805 1.680783-7.535323 6.123242-10.979175 8.572594-5.192256 3.9421-10.298224 7.86495-13.101526 11.41068.303319-.0169.606442-.0397.909505-.0615 4.351334-5.91896 15.548777-12.90611 22.799642-19.454103-.0135.214334 1.705833-1.263563 3.089218-2.60966 1.235717-1.202407 2.008173-2.079474 1.894974-2.041736zm-.724503.581877c.000055-.00001-.136998.04498-.136943.04496 0 0 .0909-.01587.136943-.04496zm-.228927.222209c.000057-.00002-.138032.04446-.137976.04444 0 0 .09168-.01541.137976-.04444zm-7.630542.713655c-.267934.136591-.539532.266212-.810803.396875-5.742967 5.317248-11.575885 9.594993-18.126026 15.063153-1.360976 1.28154-2.881213 2.61639-4.04058 4.11551-.873112 1.12898-1.402375 2.20034-1.500167 3.14761.09099.002.181859.005.272851.006 2.274484-6.22298 12.824736-12.38061 20.130038-19.093921 1.436083-1.196522 2.797531-2.409201 4.074687-3.635437zm-2.736267 1.277442c-.119205.05184-.237642.105347-.357084.156579-7.478686 6.550199-16.895106 12.451677-21.141346 18.391117-.507991.65763-.963081 1.69165-1.168921 2.43189-.180451.64893-.271514.74167.470256-.94774 2.953101-5.8535 12.667778-11.66574 19.857186-17.955487.809269-.697144 1.583153-1.388063 2.339909-2.076359zm-.886768.380338c-.876965.369784-1.757478.730615-2.630847 1.08934-.45619.151596-.915403.293565-1.377177.428397-4.558534 3.947715-9.825057 7.679201-13.437423 11.330051-2.174062 2.28948-4.3157 4.82016-5.391919 7.46776.543751.83115 1.008998-.26108 1.793689-1.64796.825229-1.45852 1.970867-3.1669 2.953825-3.85403 4.979164-4.60357 12.080769-9.540506 18.089852-14.813558zm8.760189.01912c-.04841.02866-.14211.04393-.14211.04393-.000071.000022.142181-.04395.14211-.04393zm-13.745931 1.7663c-.218101.05803-.435723.117362-.65474.172083-1.215452 1.081083-2.470197 2.17854-3.77083 3.302124-6.147015 4.848711-12.4184 9.635131-13.935584 14.777381 1.090752-2.34856 2.909806-5.4224 6.109705-8.02483 3.602613-3.33292 8.134843-6.658805 12.251449-10.226758zm25.065655.696082c-.85845 1.068467-2.53092 2.859554-4.07727 4.408516-2.981684 2.9867-.42032.351791.0899-.171566 1.02092-1.092051-.39263.175909-1.46555 1.120346-1.081686.95215-1.81152 1.62912.57103-.586528 2.06388-1.504851 3.18144-3.202257 4.88187-4.770768zm.39378.335896v.000517c-1.2398 1.391747-2.40471 2.494121-2.80397 2.827735-.55596.464561.14798-.23927 1.73737-1.853117.32415-.289426.95188-.902271.95188-.902271.0404-.01285.11472-.07286.11472-.07286zm-.50643.193787c-.54581.849004-.46575.196643 0 0zm-44.974522.414962c-.276872.75833-.563233 1.544869-.818555 2.261361-.549431 1.541827-.732138 2.01618.347782-.954464.163864-.451771.316893-.865303.478524-1.30638-.0026-.000222-.0052-.000295-.0078-.000517zm.01602.001c-.08424.228237-.145469.403428-.226859.625285.08003-.21759.154428-.414452.232544-.624768-.0019-.000162-.0038-.000354-.0057-.000517zm-.226859.625285c-.140858.382986-.291626.802801-.43925 1.210779.144275-.398822.281649-.781186.43925-1.210779zm-.43925 1.210779c-.188443.520917-.415246 1.130646-.574125 1.581299-.01814.05392.248054-.678103.315743-.866097.08805-.245486.172888-.478929.258382-.715202zm-.258382.715202c-.0738.20575-.140798.386832-.216524.599447-.410318 1.156458.05129-.16026.683162-1.863453.1536-.414027.318906-.846113.484208-1.284676-.0055-.00047-.01102-.0011-.01654-.0015-.05165.138901-.09924.261427-.146761.38964-.453973 1.224853-.618693 1.691623-.787549 2.160592zm1.069185-2.53938c-.08115.190525-.15972.381342-.239262.572058.08399-.200375.163589-.379842.24598-.571541-.0022-.000187-.0045-.00033-.0067-.000517zm-.239262.572058c-.0077.01849-.01498.03415-.02274.05271-.0076.01826-.01359.03398-.02119.05219.01453-.03498.02934-.06992.04393-.104903zm-.04393.104903c-.155874.375184-.307898.748901-.456303 1.121379.14033-.352685.293038-.729959.456303-1.121379zm-.456303 1.121379c-.01706.04289-.03503.08664-.05168.128674.01694-.04274.03462-.08587.05168-.128674zm-.05168.128674c-.119519.301455-.234682.599117-.348299.89607.100961-.264233.215638-.560999.348299-.89607zm.824756-1.92443c-.505927 1.158982-.996188 2.353467-1.457792 3.590995.463111-1.237926.967173-2.430942 1.492932-3.587895-.01172-.000963-.02342-.0021-.03514-.0031zm-1.457792 3.590995c-.02392.06393-.04918.126505-.07286.190686-.03256.08406.09365-.268198.301274-.815454-.155092.407796-.304619.809845-.446485 1.203544.0016-.0036.01328-.03209.0155-.03721.07155-.18881.236204-.609972.712618-1.770951.327502-.79573.6749-1.578753 1.031462-2.354379-.01-.000813-.01998-.0018-.02997-.0026-.459519 1.007794-.977082 2.235734-1.45004 3.468522-.17202.448378-.218291.551641-.259933.648022.06465-.178855.132449-.353289.198438-.5302zm-.202572.541569c-.0018.0048-.01648.04068-.01809.04496-.0065.01805-.01368.03677-.02015.05478.0023-.006.01085-.0269.01344-.0336.008-.02236.01674-.04382.02481-.06615zm-.02481.06615c-.01148.0319-.0237.0626-.03514.0946.000833.0127.126939-.280844.344165-.837657.05459-.139917.111559-.275628.166915-.414445-.251629.603019-.418445 1.008106-.47594 1.157532zm.47594-1.157532c.117443-.281446.203313-.491092.372071-.889352.308184-.728122.630536-1.439009.959114-2.141471-.01-.000807-.01998-.0018-.02997-.0026-.433775.937455-.876622 1.968673-1.301213 3.033407zm-.51108 1.252102c-.000013-.00021-.0021.005-.0021.004-.0066.0185-.01409.0379-.02067.0563.0073-.0205.01541-.04.02274-.0605zm-.0021.004c.0076-.0213.01609-.0437.02377-.0651-.01533.0403-.02292.0599-.02377.0651zm1.872754-4.284988c-.741521 1.573333-1.445739 3.203941-2.079976 4.937658.606351-1.652023 1.320753-3.304215 2.095996-4.936108-.0053-.000428-.01067-.0011-.01602-.0016zm.17415.01447c-.266445.534698-.539597 1.094732-.822172 1.707389-.859925 1.86442-1.397058 3.314449-1.332219 3.164639.638325-1.634991 1.391358-3.264032 2.212785-4.867378-.01947-.0015-.03893-.0031-.05839-.0046zm.205155.01654c-.210071.3918-.420164.782646-.632002 1.201994-.872786 1.727735-1.501853 3.254074-1.71049 3.787344.02063-.0474.06811-.15233.09147-.20567.649831-1.591175 1.417664-3.199167 2.265495-4.782634-.0048-.000356-.0096-.000677-.01447-.001zm-2.251025 4.783668c-.06218.15226-.128154.30494-.188102.45682.0034-.0129.05407-.14235.09663-.25115-.442793 1.01788-.272137.69959.0801-.16691.03741-.092.0777-.18216.115755-.27388-.03038.0689-.07769.17416-.104386.23512zm.104386-.23512c.127807-.29.240049-.546841.43925-.989075.526186-1.174649 1.12237-2.368793 1.765267-3.554822-.01017-.000744-.02032-.0018-.03049-.0026-.138709.262876-.278501.521939-.414962.791166-.577508 1.097223-1.200283 2.408552-1.759066 3.755311zm11.040154-4.540797c-.05005.0037-.100304.0063-.150379.0098-2.5514 2.554518-4.925603 5.207007-6.710185 7.867197-.870118 1.12444-1.934232 2.51446-2.808614 4.21783-.689668 1.34353-1.05228 1.8954.315226-.45217 1.952334-3.29164 5.531607-7.706009 9.353952-11.642676zm-8.781377.0016c-.763787 1.378406-1.479825 2.809652-2.11925 4.308247-1.006738 2.35057-.660226 1.55417.01912.006.825111-1.880692 1.604378-3.307318 2.149223-4.31032l-.04909-.0036zm.08888.0067c-.842157 1.47916-1.608948 3.005659-2.276347 4.565077.682874-1.583928 1.460963-3.106195 2.305802-4.563527-.0098-.000689-.01965-.000856-.02945-.0016zm-2.276347 4.565077c-.03247.0753-.06461.15076-.09663.22635.0318-.0756.06435-.15092.09663-.22635zm-.09663.22635c-.08085.19211-.161544.38418-.239262.57722.07824-.19324.158136-.38577.239262-.57722zm-.239262.57722c-.130486.32228-.258279.64637-.380339.97358.121081-.32589.250075-.65004.380339-.97358zm2.795178-5.357795c-1.091556 1.814335-2.06162 3.736621-2.865975 5.751045.81895-2.017122 1.817813-3.933444 2.922303-5.747428-.01877-.0013-.03755-.0023-.05633-.0036zm-2.865975 5.751045c-.124393.3064-.245702.61473-.361735.92553.114527-.31178.239008-.61816.361735-.92553zm2.962093-5.744844c-.503647.817393-.987757 1.659155-1.44694 2.532662-.535151.973043-1.140964 2.326112-1.563212 3.404942-.356931.91195-.449929 1.00018.571025-1.28726.74005-1.627081 1.584523-3.172267 2.508374-4.64621-.02308-.0015-.04617-.0026-.06925-.0041zm7.937501.0047c-.30841.02022-.61693.03937-.926042.05478-2.556045 2.754435-4.934294 5.646744-6.639388 8.358644-.741986.88573-1.649813 2.53573-2.13062 3.86953-.424378 1.17726-.619064 1.55338.656808-.82269 1.923586-3.31995 5.349007-7.729587 9.039242-11.460261zm-7.790739.0041c-1.3661 2.127844-2.566132 4.401764-3.510897 6.987144.725048-1.68733 2.03133-4.484663 3.595129-6.981976-.02808-.0018-.05616-.0034-.08423-.0052zm.678511.04134c-1.065341 1.385926-2.048925 2.887697-2.991549 4.772294-.439666.70901-.918209 1.95204-1.141015 2.67632-.322713 1.04904-.06213.39506.557588-1.00665 1.024346-2.17854 2.387404-4.339205 3.935161-6.424911-.120077-.0056-.240132-.01074-.360185-.01705zm.521415.02325c-1.854474 2.46911-3.281888 5.258734-4.099491 7.905444-.682125 1.4837-.641413 2.25826-.4408 2.23449.200613-.0238.569082-.831.835091-2.58021.95641-2.74391 2.370181-5.236768 4.035413-7.546288-.110074-.0042-.22015-.0086-.330213-.01344zm5.250843.0036c-.06719.0029-.134322.0056-.201538.0083-3.838257 4.302774-7.278052 9.069074-8.694044 12.893244 1.608129-3.71348 4.957186-8.63359 8.895582-12.901512zm-.37052.0155c-.10912.004-.217928.01003-.327112.01344-1.394972 1.579891-2.703982 3.21947-3.839042 4.916984-.853362 1.28356-1.833808 2.51713-2.920752 4.44211-.909053 1.60994-1.390566 2.96237-1.258322 2.85461 1.493946-3.75558 4.548779-7.88399 7.82588-11.643197.169414-.194339.34673-.389305.519348-.583943zm-4.19716.0088c-2.273726 3.333122-4.124515 7.675844-5.110283 10.842204.712189-1.85856 1.573916-4.12369 2.710946-6.48642.702977-1.460758 1.533268-3.000692 2.467033-4.3532-.02257-.000716-.04513-.0018-.0677-.0026zm3.448885.01344c-.221968.0054-.443941.01157-.666109.01447-1.538076 1.842029-2.96885 3.724193-4.154269 5.523154-.580963.91138-1.703374 2.59324-2.549198 4.59042-1.109269 2.61924-.520117 1.97569-.156063 1.32964 1.472097-3.59945 4.387156-7.768977 7.525639-11.457684zm-1.299662.01705c-.06511.000167-.130213.000559-.195337.000517-1.734555 2.230182-3.280469 4.570547-4.465878 6.808857-.846624 1.44062-1.484462 2.68828-1.961637 3.90829-.01022.0261-.01392.0312-.02377.0558.160352-.33909.39483-.81694.834574-1.65158 1.338008-2.8127 3.425184-6.084091 5.812049-9.121894zm-6.646623 10.773474c-.307317.64987-.222344.55518 0 0zm46.496956-10.474688c-.006.148153-.26367.09873 0 0zm-.36225 1.368392c-.0472.03332-.14987.06718-.14987.06718-.00003.000012.1499-.06719.14987-.06718zm-3.66283.576192c-1.23993 1.376223-2.540115 2.217341 0 0zm2.70785.181901c.00013.141603-.27598.102264 0 0zm-1.08676.283187c-.14358.311538-.2972.1229 0 0zm.40721.778764c-.0481.03244-.15296.0646-.15296.0646-.00004.000014.15299-.06462.15296-.0646zm-2.13889.305407c-.27928.646602-.63133.275762 0 0zm-1.52032.04806c-.1555.310322-.30294.116351 0 0zm1.47381.205152c-.71339.97151-1.27087.92937 0 0zm-.45785.21756c-.17168.37527-.42948.16747 0 0zm1.58336.262c-.0488.0323-.15554.0646-.15554.0646-.00004.00001.15558-.0646.15554-.0646zm-3.561021.28215c-.156167.3101-.309557.11549 0 0zm.799951.13281c-.006.14354-.28668.0946 0 0zm-.28525.262c-.289182.63775-.638842.27369 0 0zm1.55546.15037c-.45052.10229.11491.17239 0 0zm-2.66754.01c-.2997.64882-.642905.26637 0 0zm-3.922758.54209c-.05202.0296-.160197.0527-.160197.0527-.000076.00002.160273-.0527.160197-.0527zm4.615739.2005c-.291974.0951.0033.14172 0 0zm-1.627808.13695c-.0512.0306-.160714.0574-.160714.0574-.000062.00003.160776-.0575.160714-.0574zm1.455208.0594c-.05111.0314-.161747.061-.161747.061-.000058.00002.161805-.061.161747-.061zm.744139.18501c-.05.0314-.15968.0615-.15968.0615-.00005.00002.15974-.0615.15968-.0615zm.30541.0589c.00003 0-.1318.0439-.13177.0439 0 0 .091-.0185.13177-.0439zm-.53795.15709c-.05048.0317-.160716.0625-.160716.0625-.000057.00003.160776-.0625.160716-.0625zm-40.462649.0434c-.430079.52538-.717643 1.37104-.764812 1.61902-.07112.37388.137276-.13248.764812-1.61902zm40.719999.0718c-.0786.0279-.24598.0506-.24598.0506.0819-.0169.16411-.0335.24598-.0506zm-1.791625.11937c-.293532.0919.0013.14083 0 0zm.565857.13281c-.05079.0314-.161747.0615-.161747.0615-.000063.00003.16181-.0615.161747-.0615zm-2.292367.0661c-.05157.0303-.162264.0568-.162264.0568-.00007.00003.162335-.0568.162264-.0568zm-2.119767 2.76262c.000094-.0001-.165976.0569-.165882.0568 0 0 .114162-.0268.165882-.0568zm-14.583606 1.30173c-1.725922 1.7322-4.287478 3.61174-6.066297 5.38313-.125424.1249-.23612.24683-.35295.37001.358648-.0469.717008-.0958 1.07487-.14986 1.581117-1.78484 3.556122-3.63744 5.344377-5.60328zm9.913607 1.86397c-.08981.0859-.179201.17165-.268201.25735 0 0 .182891-.16025.268201-.25735z" fill="#68423a" opacity=".67"/><path d="m63.122779 93.709995-7.360341 5.554275c-.523903.39534-1.094583 1.20147-1.452133 1.91978-.356868.71693-.654936 1.65766-.655014 2.31152v11.6346c.000013.654.29809 1.5947.654984 2.31167.357539.71827.92826 1.52429 1.452163 1.91963l7.360341 5.55427c.734514.55432 1.976071.85404 3.023263.85403 1.047118-.00001 2.28858-.29996 3.023034-.85403l7.36034-5.55428c.523903-.39534 1.094623-1.20136 1.452164-1.91963.356894-.71697.654971-1.65767.654981-2.31167v-11.63459c-.00001-.65368-.297932-1.5943-.6547-2.31111-.357596-.71847-.928285-1.524657-1.452445-1.92019l-7.36034-5.554275c-.734569-.554164-1.976004-.853928-3.02315-.853928-1.047144 0-2.288578.299764-3.023147.853928z" fill="#68423a"/><g opacity=".9" stroke-width="1.26709" transform="matrix(.21773134 0 0 .21773134 22.482288 97.770344)"><path d="m202.71315 114.62208 38.15154-28.789751 1.94538-3.914129v-57.809214l-1.9436-3.915923-38.15332-28.7897497h-4.34902l-38.15155 28.7897497-1.94538 6.101805v55.623332l3.6857 5.227811 36.41123 27.476069z" fill="#069" opacity="1" stroke-width=".335249"/><path d="m164.56034 22.381097 15.69997 7.897835 18.10461-13.661364v-19.7459249zm38.15253-25.5095754v19.7458044l18.10438 13.661606 15.70094-7.898322zm-20.04887 37.0624024v38.15642l17.8749 13.488509 17.87491-13.488509v-38.15569l-17.87491-13.488631zm-20.04888-7.639647v53.436687l15.70093-7.898322v-37.640043zm75.84757 0-15.70093 7.898322v37.640043l15.70093 7.898322zm-73.90235 57.349867 33.80458 25.509576v-19.745803l-18.10461-13.661609zm56.25716-7.897836-18.10463 13.661361v19.745801l33.8046-25.509326z" fill="#00b2ff" opacity=".9" stroke-width=".33525"/><path d="m213.80184 8.7219211c-6.06902-1.0227849-7.18378 2.2366589-9.02151 7.0017129l.17331-13.4289446zm-17.97636-5.4727622-.0662 8.1108041c-5.32672.287361-13.71706 3.506447-26.06186 10.69463l26.1283-18.8051916zm5.73157 21.4925851c-9.05896 8.227013-14.64825 40.073382-15.37484 48.402747l-.0845-36.733467 15.45938-11.669523zm-35.88677 7.219545 9.77636 5.064086c-11.17906 9.42241-7.43741 29.828514-10.11526 39.523699l.33913-44.587785zm14.22455 47.95979c-4.73298 3.9584-4.0448 5.923499 1.08144 13.228372l-10.68774-9.242743 9.60655-3.985629z" fill="#6cf" opacity="1"/></g><path d="m87.804462 18.342033c-1.45201.66632-2.690135 1.776216-4.189409 2.328024-5.57159 2.050623-11.525525 3.506201-17.4625 3.505729-5.939273-.000472-11.888342-1.476505-17.468702-3.509863-1.53339-.558733-2.807473-1.679127-4.295345-2.349728-2.356715-1.062199-4.709622-2.637626-7.294645-2.632397-4.467904.009-9.286952 1.656742-12.589413 4.600752-.37414.0931-.746982.201077-1.07642.394808-.788019.463406-1.62853 1.026536-2.076876 1.791106l-3.625102 6.179468c-.365709.624095-.577488 1.556451-.587044 2.370398-.0099.839287.169733 1.79313.54777 2.457731l3.547071 6.22701c.403424.708763 1.163292 1.337507 1.921329 1.762683.679067.380882 1.576198.640422 2.244825.645439l7.193359.05633c.972649.0075 1.921827-.444161 2.732133-.971.574806-.373723 1.154555-1.045706 1.415935-1.491899l3.596938-6.151045c1.036674.136629 4.801082 1.259238 7.191034 1.92753 1.451569.405896 2.865246.959634 4.341337 1.264523 4.698231.970426 9.484419 1.788434 14.281816 1.779219 4.799903-.0092 9.582644-.859288 14.282333-1.83503 1.464299-.304016 2.870224-.841763 4.309814-1.246952 2.459307-.6922 6.537584-1.847862 7.392832-2.022874l3.57756 6.283079c.403425.708763 1.162915 1.337518 1.920813 1.762683.679041.380928 1.576198.640422 2.244825.645439l7.19336.05684c.97265.0075 1.92178-.444235 2.73213-.971.57494-.373735 1.15507-1.045706 1.41645-1.491899l3.5233-6.007902c.30153-.51385.57182-1.383952.60513-2.117184.0416-.916211-.0713-1.927462-.51315-2.703194l-3.50986-6.166032c-.24816-.434994-.81831-1.097-1.36529-1.490348-.6541-.47038-1.4151-.847605-2.20916-.98056-3.37088-2.934202-8.232642-4.578825-12.743932-4.55657-2.559777.01263-4.87871 1.58905-7.205246 2.656686z" fill="#c9c4ad"/><path d="m99.70935 28.409039c-1.490289.171461-3.094827 1.826563-3.03234 3.325381.127907 3.067972 3.68197 6.326713 6.75202 6.26654 2.94785-.05778 5.81513-3.349263 6.24251-6.26654.47359-3.232667-2.12907-6.539899-4.63486-8.636426-2.62885-2.199486-6.35478-3.390216-9.776395-3.187385-3.790203.22468-6.725859 3.611169-10.336563 4.78545-6.065503 1.972636-12.39273 3.71318-18.770944 3.71298-6.376189-.0002-12.694719-1.760927-18.76475-3.71298-3.667237-1.179342-6.672519-4.58027-10.519255-4.78545-3.369087-.179703-7.046608.989869-9.606649 3.18742-2.453111 2.105762-4.914423 5.442452-4.413684 8.636391.456668 2.912837 3.294285 6.233147 6.242513 6.26654 3.017076.03417 6.3963-3.252319 6.531901-6.26654.06604-1.468046-1.436561-3.140333-2.894394-3.325381 0 0 3.716723-.25172 5.549273 0 2.849339.391386 8.308716 2.326472 8.308716 2.326472 2.769572.775491 5.496911 1.721771 8.308717 2.326472 2.474472.532154 4.982114.96509 7.507139 1.139588 2.496625.172535 5.012488.10406 7.507138-.09501 2.521499-.201213 5.031651-.588537 7.507139-1.108538 2.831822-.594853 5.581433-1.529661 8.37215-2.294492 0 0 5.504368-1.908631 8.372151-2.294492 1.832972-.246627 5.548467 0 5.548467 0z" fill="url(#a)" stroke-width="8.46667"/><g stroke-width="1.37562"><g opacity=".9" transform="matrix(.11425996 .03145268 -.03145268 .11425996 1.288644 16.576774)"><path d="m716.94336 276.20898 6.96875 15.83985 177.23242 176.92187 17.31836 1.5 241.32811-64.40039 10.1797-14.29101 62.4402-231.91266-.034-19.84924-176.404-176.128718-15.0606-9.279307-246.15624 65.691406-12.46094 12.121094z" fill="#069" opacity="1" stroke-width="1.37563" transform="scale(.26458334)"/><g transform="matrix(.36396883 0 0 .36396883 166.89113 -34.757655)"><path d="m292.26367 77.613281-160.63086 42.867189 42.25391 37.00391 99.63672-26.80469zm12.4043 5.701172-19.74219 55.837887 66.6543 66.78711 69.51172-6.38281zm-183.68945 45.888667-43.001958 160.42579 57.427738-22.87696 27.10156-101.1582zm150.79492 15.99219-96.70508 26.03321-25.9668 96.95507 70.69532 70.89844 96.72851-26.03125 25.9668-96.95703zm151.47656 67.81055-67.51562 6.19922-26.14649 97.54883 51.86133 52.22461zm-282.37109 66.19726-59.539066 23.71485 117.582036 117.37891 12.58398-70.31055-70.625-70.78321zm178.98632 47.02344-94.88671 25.53321-12.76758 71.37695 161.15234-43.00391z" fill="#00b2ff" opacity=".9" stroke-width="1"/><path d="m274.27344 92.083984-84.4375 21.285156c50.54411-9.18997 77.98586-8.09951 78.18945 3.17969zm37.11914 10.630856c23.53759 28.97436 58.77642 79.67234 47 95.20704l42.77734-5.49805zm-186.25586 46.61524c21.31677 25.55192 10.52096 97.94747-26.419923 120.15039l28.373043-11.49609 21.92188-86.48243zm142.39062 10.74609-82.73632 22.3086-7.17969 27.1914c70.28343-70.87661 182.48264 23.98983 95.59375 102.40625l32.48437-8.70117 21.92188-82.73242zm143.16016 63.01563-43.54883 3.38281c22.26238 15.0113 27.17745 30.98745 22.28516 81.05469zm-269.73828 70.65039c30.78267 42.08354 47.58093 72.14551 51.38281 104.54101l5.4082-44.61523zm192.45508 63.3789c-5.52473 14.64495-21.56056 22.62107-66.10742 41.84571l83.75781-23.78516z" fill="#6cf" opacity="1" stroke-width="36"/></g></g><g opacity=".9" transform="matrix(.11425996 .03145268 -.03145268 .11425996 75.769668 16.576774)"><path d="m716.94336 276.20898 6.96875 15.83985 177.23242 176.92187 17.31836 1.5 241.32811-64.40039 10.1797-14.29101 62.4402-231.91266-.034-19.84924-176.404-176.128718-15.0606-9.279307-246.15624 65.691406-12.46094 12.121094z" fill="#069" opacity="1" stroke-width="1.37563" transform="scale(.26458334)"/><g transform="matrix(.36396883 0 0 .36396883 166.89113 -34.757655)"><path d="m292.26367 77.613281-160.63086 42.867189 42.25391 37.00391 99.63672-26.80469zm12.4043 5.701172-19.74219 55.837887 66.6543 66.78711 69.51172-6.38281zm-183.68945 45.888667-43.001958 160.42579 57.427738-22.87696 27.10156-101.1582zm150.79492 15.99219-96.70508 26.03321-25.9668 96.95507 70.69532 70.89844 96.72851-26.03125 25.9668-96.95703zm151.47656 67.81055-67.51562 6.19922-26.14649 97.54883 51.86133 52.22461zm-282.37109 66.19726-59.539066 23.71485 117.582036 117.37891 12.58398-70.31055-70.625-70.78321zm178.98632 47.02344-94.88671 25.53321-12.76758 71.37695 161.15234-43.00391z" fill="#00b2ff" opacity=".9" stroke-width="1"/><path d="m274.27344 92.083984-84.4375 21.285156c50.54411-9.18997 77.98586-8.09951 78.18945 3.17969zm37.11914 10.630856c23.53759 28.97436 58.77642 79.67234 47 95.20704l42.77734-5.49805zm-186.25586 46.61524c21.31677 25.55192 10.52096 97.94747-26.419923 120.15039l28.373043-11.49609 21.92188-86.48243zm142.39062 10.74609-82.73632 22.3086-7.17969 27.1914c70.28343-70.87661 182.48264 23.98983 95.59375 102.40625l32.48437-8.70117 21.92188-82.73242zm143.16016 63.01563-43.54883 3.38281c22.26238 15.0113 27.17745 30.98745 22.28516 81.05469zm-269.73828 70.65039c30.78267 42.08354 47.58093 72.14551 51.38281 104.54101l5.4082-44.61523zm192.45508 63.3789c-5.52473 14.64495-21.56056 22.62107-66.10742 41.84571l83.75781-23.78516z" fill="#6cf" opacity="1" stroke-width="36"/></g></g></g></g></svg>