<svg height="500" viewBox="0 0 500 500" width="500" xmlns="http://www.w3.org/2000/svg" xmlns:xlink="http://www.w3.org/1999/xlink"><radialGradient id="a" cx="115.69827" cy="67.621429" gradientTransform="matrix(-1.8402293 -1.6741674 1.2295935 -1.3515635 215.81983 330.76435)" gradientUnits="userSpaceOnUse" r="42.695023" xlink:href="#b"/><linearGradient id="b"><stop offset="0" stop-color="#45453b"/><stop offset=".03125" stop-color="#3d4243"/><stop offset=".0625" stop-color="#36464a"/><stop offset=".09375" stop-color="#3d4243"/><stop offset=".15625" stop-color="#333738"/><stop offset=".1875" stop-color="#2e3438"/><stop offset=".21875" stop-color="#333738"/><stop offset=".28125" stop-color="#30323b"/><stop offset=".3125" stop-color="#2e3038"/><stop offset=".34375" stop-color="#30323b"/><stop offset=".40625" stop-color="#292f33"/><stop offset=".4375" stop-color="#2c3135"/><stop offset=".46875" stop-color="#292f32"/><stop offset=".53125" stop-color="#433737"/><stop offset=".5625" stop-color="#433737"/><stop offset=".59375" stop-color="#433737"/><stop offset=".65625" stop-color="#383335"/><stop offset=".71426684" stop-color="#382e31"/><stop offset=".76595175" stop-color="#383335"/><stop offset=".8775022" stop-color="#45453b"/><stop offset=".9375" stop-color="#453b3b"/><stop offset="1" stop-color="#45453b"/></linearGradient><radialGradient id="c" cx="86.055344" cy="45.671474" gradientTransform="matrix(-1.258447 -1.2442382 1.2442408 -1.258444 137.52514 210.21979)" gradientUnits="userSpaceOnUse" r="40.30827"><stop offset="0" stop-opacity="0"/><stop offset=".12393165" stop-opacity="0"/><stop offset=".41729519" stop-opacity=".1"/><stop offset=".66706532" stop-opacity=".5"/><stop offset=".91683543" stop-opacity=".75"/><stop offset="1"/></radialGradient><filter id="d" color-interpolation-filters="sRGB" height="1.216" width="1.216" x="-.108" y="-.108"><feGaussianBlur stdDeviation="2.3163864"/></filter><filter id="e" color-interpolation-filters="sRGB" height="1.6" width="1.6" x="-.3" y="-.3"><feGaussianBlur stdDeviation="3.3391003"/></filter><linearGradient id="f" gradientTransform="matrix(3.55578 0 0 3.562357 413.36535 93.356109)" gradientUnits="userSpaceOnUse" spreadMethod="reflect" x1="-81.997307" x2="29.840145" y1="48.709511" y2="97.267273"><stop offset="0" stop-color="#fff"/><stop offset=".51123601" stop-color="#c8d0d5"/><stop offset="1" stop-color="#b9c0c1"/></linearGradient><linearGradient id="g" gradientUnits="userSpaceOnUse" x1="197.00114" x2="166.58119" xlink:href="#b" y1="33.181519" y2="340.51852"/><linearGradient id="h" gradientUnits="userSpaceOnUse" spreadMethod="reflect" x1="197.00114" x2="166.58119" xlink:href="#b" y1="33.181519" y2="340.51852"/><g stroke-width="1.08067" transform="matrix(.92535064 0 0 .92535064 19.307789 14.038315)"><g stroke-width="1.08067"><g><path d="m137.09375 120.38281a16.0016 16.0016 0 0 0 -11.74219 8.91406s-1.60908 3.38673-3.88086 7.45118-5.77509 8.94565-6.12695 9.29687c-.3545.35386-5.24768 3.8524-9.32031 6.11914-4.07264 2.26674-7.466799 3.8711-7.466799 3.8711a16.0016 16.0016 0 0 0 -8.414063 19.33984c1.139798 3.56731 2.918334 7.42486 5.859375 11.82812a16.0016 16.0016 0 0 0 0 .002c3.747864 5.60973 8.479527 11.14432 13.701177 16.35547 2.10655 2.10232 4.27085 4.11381 6.45117 6.00781a16.0016 16.0016 0 0 0 14.89453 3.30273c13.70089-3.92031 25.58929-6.28666 31.01367-7.27343a16.0016 16.0016 0 0 0 12.875-12.86719c.98146-5.37449 3.35269-17.24814 7.28711-30.94336a16.0016 16.0016 0 0 0 -3.32031-14.93359c-1.8979-2.17612-3.91297-4.33713-6.01953-6.43946-5.22164-5.21113-10.76658-9.93148-16.38477-13.66992a16.0016 16.0016 0 0 0 -.002-.002c-4.41043-2.93401-8.27537-4.7044-11.83399-5.83789a16.0016 16.0016 0 0 0 -7.57031-.52149zm8.51562 38.41211c1.18494 1.03191 2.36572 2.10351 3.53907 3.23438-1.37401 5.34841-2.6149 10.14668-3.5 14.26562-4.14771.88742-8.97368 2.12698-14.35938 3.50586-1.12074-1.15751-2.1807-2.32256-3.20508-3.49219 3.25402-2.01499 6.57163-4.32755 9.86524-7.61523 3.31051-3.30455 5.6341-6.63355 7.66015-9.89844z" fill="#271d30"/><path d="m105.38437 170.50553c.5848 1.83029 1.84908 4.70792 3.92174 7.81106 2.93077 4.38672 7.12423 9.35388 11.69921 13.91966 1.83675 1.83306 3.73755 3.59903 5.64113 5.25263 14.40958-4.1231 26.75922-6.57948 32.55153-7.63319 1.04867-5.74255 3.5096-18.07889 7.64856-32.48609-1.65653-1.89937-3.42645-3.79675-5.2632-5.62981-4.57498-4.56577-9.55215-8.7508-13.94771-11.67568-3.10939-2.0685-5.99321-3.32984-7.82678-3.91387 0 0-7.27157 15.33913-13.1624 21.21936-5.89611 5.8855-21.26208 13.13593-21.26208 13.13593z" fill="url(#g)"/></g><g><path d="m116.5957 94.710937a16.0016 16.0016 0 0 0 -16.51757 8.964843s-1.637486 3.421-3.945318 7.52539c-2.307831 4.10439-5.847627 9.0339-6.25 9.43555-.40502.40429-5.346335 3.93752-9.458984 6.24023-4.112649 2.30272-7.539062 3.93555-7.539062 3.93555a16.0016 16.0016 0 0 0 -8.990235 16.53906c1.090147 8.27633 4.946885 15.42936 10.800781 21.27149 5.853901 5.84214 13.012198 9.68082 21.28125 10.76562a16.0016 16.0016 0 0 0 8.953128-1.41406s4.31372-2.04873 9.42773-4.91211 10.88658-5.98057 16.43164-11.51563c5.54242-5.53242 8.6668-11.29565 11.53711-16.40039 2.87031-5.10473 4.92383-9.41015 4.92383-9.41015a16.0016 16.0016 0 0 0 1.42773-8.98828c-1.09015-8.27633-4.94687-15.42936-10.80078-21.27149-5.8539-5.842147-13.01222-9.6808-21.28125-10.765623z" fill="#271d30"/><path d="m79.75735 145.26195c.548998 4.16796 2.777607 8.58128 6.23947 12.03618 3.461863 3.45491 7.884072 5.67903 12.060422 6.22692 0 0 15.478288-7.36253 21.428378-13.30188 5.9448-5.93408 13.3287-21.38531 13.3287-21.38531-.549-4.16796-2.77761-8.58128-6.23948-12.03618-3.46186-3.45491-7.88407-5.67903-12.06042-6.22693 0 0-7.38389 15.45123-13.32869 21.38531-5.950093 5.93936-21.42838 13.30189-21.42838 13.30189z" fill="url(#g)"/></g><g><path d="m91.134766 69.300781a16.0016 16.0016 0 0 0 -16.517579 8.964844s-1.63748 3.421001-3.945312 7.525391-5.847627 9.033899-6.25 9.435546c-.405014.404285-5.346337 3.939474-9.458984 6.242188-4.112648 2.30271-7.539063 3.93555-7.539063 3.93555a16.0016 16.0016 0 0 0 -8.990234 16.53711c1.09014 8.27635 4.946902 15.42937 10.800781 21.27148 5.853887 5.84211 13.01217 9.68277 21.28125 10.76758a16.0016 16.0016 0 0 0 8.953125-1.41602s4.313728-2.04872 9.427734-4.91211c5.114007-2.86338 10.886576-5.98056 16.431646-11.51562 5.54242-5.53243 8.66679-11.2937 11.5371-16.39844 2.87031-5.10473 4.92383-9.41016 4.92383-9.41015a16.0016 16.0016 0 0 0 1.42774-8.98829c-1.09014-8.276354-4.94688-15.43131-10.80078-21.273434-5.85389-5.842124-13.012176-9.680819-21.281254-10.765625z" fill="#271d30"/><path d="m54.296629 119.85241c.548993 4.16796 2.777607 8.58128 6.239464 12.03618 3.461863 3.4549 7.884073 5.67903 12.060429 6.22692 0 0 15.478287-7.36253 21.428374-13.30188 5.944801-5.93408 13.328694-21.38531 13.328694-21.38531-.54899-4.167963-2.7776-8.581283-6.23947-12.036187-3.461862-3.454904-7.884071-5.679032-12.060427-6.226921 0 0-7.383892 15.451228-13.328692 21.385308-5.950087 5.93936-21.428372 13.30189-21.428372 13.30189z" fill="url(#g)"/></g></g><g stroke-width="4.05483" transform="matrix(1.0072993 0 0 1.0072993 -30.97802 -.039263)"><g fill="#271d30" stroke-width="4.05483"><path d="m66.166016 9.9609375c-14.351597-.000167-28.820769 5.5496215-39.722657 16.4511715-21.8045914 21.804595-21.9144651 57.679635-.074218 79.519531 21.840351 21.84036 57.713433 21.7283 79.517579-.0762 21.80479-21.804154 21.80465-57.639014 0-79.443361-10.902019-10.901989-25.369601-16.4509745-39.720704-16.4511415z" stroke-width="4.05483"/><path d="m37.675368 37.643642c-15.732448 15.73245-15.807342 41.323485-.07512 57.055455 15.732448 15.732453 41.323484 15.657083 57.05546-.07513 15.732432-15.731969 15.732432-41.247871 0-56.98008-7.866229-7.86623-18.178025-11.799583-28.490174-11.799703-10.31215-.00012-20.623937 3.933473-28.490165 11.799458z" stroke-width="34.3309"/></g><path d="m66.165947 23.443153c-10.92261-.000127-21.862361 4.178162-30.18735 12.50289-16.650085 16.65009-16.731686 43.79609-.07642 60.451107 16.655494 16.6555 43.801478 16.57344 60.45111-.07642 16.650103-16.649615 16.650083-43.724837 0-60.374686-8.324996-8.325015-19.26481-12.502765-30.18734-12.502893z" fill="url(#a)"/><path d="m66.165947 23.443153c-10.92261-.000127-21.862361 4.178162-30.18735 12.50289-16.650085 16.65009-16.731686 43.79609-.07642 60.451107 16.655494 16.6555 43.801478 16.57344 60.45111-.07642 16.650103-16.649615 16.650083-43.724837 0-60.374686-8.324996-8.325015-19.26481-12.502765-30.18734-12.502893z" fill="url(#c)" opacity=".33"/><g fill="#fff"><path d="m64.75637 40.032365a30.644657 19.640671 45 0 1 7.78099 35.557096 30.644657 19.640671 45 0 1 -35.55709-7.780994 30.644657 19.640671 45 0 1 -7.781-35.557095 30.644657 19.640671 45 0 1 35.5571 7.780993z" filter="url(#d)" opacity=".125" stroke-width="1.54164" transform="matrix(.90725093 0 0 .90725093 6.135896 30.277237)"/><path d="m95.61188 9.4458012a15.608357 10.637955 45 0 1 3.5146 18.5589498 15.608357 10.637955 45 0 1 -18.55894-3.51461 15.608357 10.637955 45 0 1 -3.51461-18.5589424 15.608357 10.637955 45 0 1 18.55895 3.5146026z" filter="url(#e)" opacity=".1" stroke-width=".949666" transform="matrix(.90725093 0 0 .90725093 6.135896 30.277237)"/></g></g><path d="m212.06641 181.31836c-7.48045-.81069-14.5152 3.69975-16.90039 10.83594l-7.26172 21.73828-4.58008 4.57226-21.79297 7.25c-11.29582 3.7592-14.6775 18.09728-6.25195 26.50782l21.93554 21.89062c28.18486 26.99237 39.6729 64.68105 22.54102 102.08789-2.1999 4.80417-1.88635 10.38462.83789 14.91211 46.99806 78.10176 166.89391 135.246 288.28906 96.37109 21.88069-7.35798 25.20842-14.2374 30.58753-20.88476 0 0-22.83886-6.78452-30.0055-9.39063-91.95499-33.3957-118.6681-68.78641-142.27343-110.48437-19.57366-34.57615-36.54915-75.34603-80.90039-116.01563-.12141-.15856-.24579-.31484-.37305-.46875l-44.25391-44.32031c-2.58041-2.5841-5.96708-4.20782-9.59765-4.60156zm3.3789 48.9043c.39101.53625.81501 1.04766 1.26953 1.53125 62.67562 44.42092 77.37067 86.11856 102.62891 130.73632 20.55108 36.30275 48.63983 72.74934 110.80664 104.10938-85.21335 7.2668-163.34512-35.14637-197.82031-85.59961 11.81541-32.05446 8.28804-65.00499-5.73438-93.125.91171-5.1203-.72216-10.36426-4.38086-14.06055l-25.97461-25.92187.76563-.25586c2.35474-.783 4.49511-2.10293 6.25195-3.85547l9.92774-9.9082c.91381-1.10976 1.6739-2.33761 2.25976-3.65039z" fill="#8fa2a3"/><path d="m188.22121 262.49322c32.27278 30.86634 46.1416 76.56903 26.08123 120.37013 42.41778 70.49022 155.71611 125.88549 269.70091 89.38364-189.26615-68.73664-126.6842-160.45245-258.03641-253.54744m28.62888 22.8458-44.25401-44.32129-8.45853 25.32379-9.9273 9.90733-25.37479 8.44153 44.33229 44.24317" fill="url(#f)"/><g stroke-width="1.08067"><path d="m225.51172 77.009766c-4.13523.08294-8.3001.678989-12.45703 1.878906a16.0016 16.0016 0 0 0 -.1836.05469c-7.74647 2.336626-13.80217 6.737286-18.56445 11.333985-4.76051 4.59415-8.37972 9.50691-11.3418 13.943353a16.0016 16.0016 0 0 0 -.12695.19336c-7.47862 11.56211-13.06408 24.97592-17.46484 37.95117-5.76038 16.98122-9.82591 32.83919-12.4043 41.23438-8.41507 2.57605-24.30753 6.63097-41.32812 12.38086-12.996943 4.39125-26.432657 9.96228-38.013677 17.42383a16.0016 16.0016 0 0 0 -.193359.12695c-4.446001 2.95578-9.36674 6.56661-13.970703 11.31836-4.603972 4.75174-9.01872 10.79689-11.365235 18.54492a16.0016 16.0016 0 0 0 -.05469.18359c-4.819118 16.6281.04815 33.37618 8.884765 47.81836 8.842237 14.45105 21.487706 26.33994 38.128907 30.21289 15.936392 3.70947 30.636972-2.20556 43.193362-10.82421a16.0016 16.0016 0 0 0 .002-.002c12.61245-8.65814 22.43594-19.40917 26.93946-32.89258 2.20557-6.6041 2.17506-14.12258.0254-20.08007-1.39449-3.86462-3.37014-6.72714-5.39453-9.21289l35.45117-13.4336a16.0016 16.0016 0 0 0 9.28515-9.27344l13.47657-35.42578c2.5022 2.03949 5.38326 4.03197 9.2832 5.4336 5.95421 2.13993 13.45877 2.17269 20.0625-.0234a16.0016 16.0016 0 0 0 .002 0c13.48253-4.48603 24.26391-14.28812 32.94336-26.88086a16.0016 16.0016 0 0 0 0-.002c8.63972-12.53662 14.58113-27.22772 10.85536-43.16987-3.88874-16.6419-15.8074-29.252841-30.2793-38.07227-10.84759-6.610713-22.98495-10.989052-35.39062-10.740234zm-33.95313 89.199214c.21504.72425.43617 1.41468.65821 2.12696l-4.21485 11.08398c1.14401-4.24558 2.29256-8.6545 3.55664-13.21094zm-13.09179 38.27539-1.25782 3.30469-3.30859 1.25391a16.0016 16.0016 0 0 0 4.56641-4.5586zm-30.19922 14.27149-10.62696 4.02734c-.68346-.21231-1.34077-.42879-2.03515-.63476 4.36752-1.20538 8.5805-2.30036 12.66211-3.39258z" fill="#271d30"/><path d="m70.953513 235.98275c-3.399007 3.5081-6.165474 7.50295-7.542344 12.04928-2.92241 10.08361.155148 23.55702 7.165203 35.01395 7.010449 11.45732 17.769591 20.57339 28.10744 22.97935 8.958198 2.08517 20.512198-1.56864 30.511898-8.43239 9.9997-6.86455 18.17378-16.84692 20.8205-24.77113 2.51504-7.53075-.53467-12.46417-4.74365-16.66469-3.99017-3.98215-8.57469-6.19119-9.05526-6.41749-9.31624-3.08806-17.77676-5.37293-24.07471-5.13591-6.36597.2398-10.41383 2.0681-14.096881 9.12401-1.89802 4.81551-3.839798 13.1685.767797 16.79015 7.385204 3.97421 17.059484 2.06929 22.987454-3.64111l7.16083 7.14644c-4.14533 4.13699-10.0737 7.03209-16.55146 8.26008-6.47816 1.2276-13.781016.69361-19.641757-3.65778-15.180952-18.01695-.508816-42.74639 18.990917-44.12089 8.45376-.31841 17.25322 2.22294 26.3419 5.21253l51.50346-19.51572 19.55503-51.39992c-2.99562-9.07042-5.54209-17.85219-5.22303-26.28895 1.37726-19.46053 26.15651-34.10318 44.20975-18.95274 4.36015 5.84896 4.89522 13.13713 3.66515 19.60227-1.23047 6.46474-4.1314 12.38119-8.27672 16.51818l-7.16083-7.14643c5.7223-5.91566 7.63106-15.57049 3.64805-22.94164-3.62816-4.59753-11.99837-2.66006-16.82357-.76586-7.07013 3.67565-8.9021 7.71537-9.14199 14.06815-.2379 6.28569 2.05118 14.7296 5.14585 24.02671.22676.48039 2.44025 5.05491 6.43042 9.03706 4.20898 4.20051 9.15234 7.2441 16.69865 4.73451 7.93977-2.64179 17.94225-10.79945 24.82062-20.77905 6.87758-9.97959 10.53875-21.51036 8.44938-30.45055-2.41081-10.31707-11.54524-21.05458-23.02564-28.05094-11.4804-6.996357-24.98055-10.067342-35.08447-7.150801-4.55548 1.374102-8.55878 4.134609-12.07356 7.527181-3.51517 3.39217-6.54221 7.41521-9.14636 11.31558-6.32739 9.78228-11.61526 22.22025-15.74627 34.40015-6.96868 20.54322-10.51726 39.33993-15.09024 48.57589-9.25498 4.56419-28.08914 8.10525-48.67374 15.05913-12.20444 4.12349-24.667468 9.40073-34.469045 15.7158-3.908617 2.59852-7.939771 5.61948-11.338772 9.12759z" fill="url(#h)"/></g></g></svg>