<svg height="500" viewBox="0 0 500 500" width="500" xmlns="http://www.w3.org/2000/svg" xmlns:xlink="http://www.w3.org/1999/xlink"><filter id="a" color-interpolation-filters="sRGB" height="1.083549" width="1.097372" x="-.048686" y="-.041775"><feGaussianBlur stdDeviation="4.5534132"/></filter><filter id="b" color-interpolation-filters="sRGB" height="1.114015" width="1.099533" x="-.049767" y="-.057007"><feGaussianBlur stdDeviation="4.5534132"/></filter><filter id="c" color-interpolation-filters="sRGB" height="1.19283" width="1.365221" x="-.182611" y="-.096415"><feGaussianBlur stdDeviation="4.5534132"/></filter><filter id="d" color-interpolation-filters="sRGB" height="1.2654" width="1.268542" x="-.134271" y="-.1327"><feGaussianBlur stdDeviation="4.5534132"/></filter><linearGradient id="e" gradientUnits="userSpaceOnUse" x1="-87.182619" x2="-67.682619" y1="268.925001" y2="314.544141"><stop offset="0" stop-color="#453d5c"/><stop offset="1" stop-color="#110d17"/></linearGradient><linearGradient id="f" gradientTransform="matrix(.99796504 0 0 -.99796504 -112.87236 1070.9898)" gradientUnits="userSpaceOnUse" spreadMethod="reflect" x1="-87.5" x2="-68" y1="258.38086" y2="304"><stop offset="0" stop-color="#1a1624"/><stop offset=".5" stop-color="#1e202f"/><stop offset="1" stop-color="#191523"/></linearGradient><radialGradient id="g" cx="108" cy="65.125923" gradientTransform="matrix(-1.5539203 -.2433569 -.20578408 1.3140066 227.8881 494.83244)" gradientUnits="userSpaceOnUse" r="146.42709" spreadMethod="reflect"><stop offset="0" stop-color="#251537"/><stop offset=".5" stop-color="#191d4b"/><stop offset="1" stop-color="#28214f"/></radialGradient><path d="m135.19701 475.27799c-13.49598-3.07003-27.66811-3.20288-40.858092-7.39702-16.06583-5.1086-34.11137-9.26895-45.830404-21.38805-8.681726-8.97811-11.350299-22.43232-14.69658-34.46486-2.46274-8.85566-2.037429-18.29277-3.832025-27.30761-3.923149-19.70715-14.349694-38.2747-15.123439-58.35366-.382639-9.92858 3.419188-19.57591 5.235402-29.34445 1.651993-8.88543 2.95423-17.85257 5.149644-26.61955 4.153852-16.58757 10.032604-32.69507 15.142979-49.01334 5.371616-17.15249 7.344075-35.81857 16.312443-51.3952 17.80804-30.92985 47.841112-52.9763 71.995762-79.250512 24.55548-26.710277 42.36284-62.182043 74.13983-79.692937 9.35674-5.1560857 20.96601-4.1311757 31.49827-5.9215247 9.63612-1.63806 19.21547-4.45621296 28.98971-4.40900896 27.81134.134426 54.67108 10.74618666 82.36135 13.34189366 13.4132 1.257336 27.13978-1.303941 40.402 1.06433 16.55756 2.95667 35.56626 4.650916 47.78342 16.211043 14.90122 14.099848 18.20266 37.145157 22.961 57.100355 4.05733 17.015351 1.90446 34.985051 4.49863 52.284021 5.41727 36.12457 28.38259 70.99864 23.04481 107.13505-4.43963 30.05597-29.16157 53.31162-44.11123 79.76119-14.7144 26.03333-23.64693 56.61553-44.86555 77.68726-23.31482 23.15346-56.77142 33.12627-85.70247 48.70375-29.07853 15.65692-55.43019 41.62136-88.28625 44.96481-29.64907 3.01712-57.14941-17.08551-86.20921-23.69598z" fill="url(#f)"/><path d="m60.036378 435.39729c-13.107026-13.61964-9.73017-36.53053-14.595253-54.79577-4.865084-18.26526-13.932359-35.90532-14.59525-54.79577-.30652-8.73874 3.305612-17.17298 4.9584-25.75947 1.652825-8.58649 2.836195-17.27679 4.958399-25.75947 4.079056-16.30458 9.93789-32.11153 14.906834-48.16728 4.96895-16.05577 6.54679-33.58692 14.90687-48.16728 17.17244-29.94957 46.613442-50.93783 69.920172-76.40675 23.30672-25.468895 39.52108-60.043294 69.92018-76.406726 7.85558-4.228577 17.62074-2.805978 26.4311-4.208917 8.81036-1.40294 17.50976-4.231771 26.4311-4.208918 26.95921.06886 53.20352 8.752154 79.80528 13.128231 26.60176 4.376076 60.19108-5.367356 79.80528 13.128231 25.17413 23.738391 15.21897 67.508359 22.82845 101.262549s27.91861 67.03772 22.82845 101.26255c-4.186 28.14552-28.13031 49.47179-42.19547 74.20768s-21.94417 54.21823-42.19547 74.20766c-22.26696 21.97909-54.79377 30.21971-82.19065 45.32958-27.39689 15.10987-51.06808 42.12295-82.19065 45.32957-27.70949 2.85494-53.24592-16.39324-79.86891-24.58987-26.62296-8.19658-60.552912-4.51846-79.868862-24.58983z" fill="url(#g)" stroke-width="32"/><g fill="url(#e)"><path d="m154.26526 808.87192c-4.56812 23.97735 2.32558 39.91665 7.63727 55.73022 5.3117 15.81358 11.71087 29.43845 22.23798 40.8002 18.16645 19.60677 44.85414 29.08416 67.28144 43.62589 22.427 14.54154 40.93683 39.10757 67.28145 43.62393 2.97099 10.61014-.91728 21.99714 0 32.93814.93027 11.0959 5.5621 32.9381 5.5621 32.9381 10.07038 17.1374 15.65919 9.6974 24.5183 11.18 9.39759 1.5728 20.01057.7398 28.45278-2.7449 0 0-7.82717-33.7787-13.21551-50.233-12.02661-36.72557-30.6256-71.08523-42.53662-107.84841-3.87917-11.97301-5.90751-26.22012-9.3765-36.57444-2.51 10.62466-5.01381 21.25028-7.529 31.87346-3.21173 13.56508 0 28.95154-9.65637 40.69022-24.92733-21.02308-47.60133-31.5268-68.32458-50.96503-27.14119-25.45819-72.33274-85.03438-72.33274-85.03438z" filter="url(#a)" opacity=".5" transform="matrix(.99796503 0 0 -.99796503 -113.51002 1081.4672)"/><path d="m406.92168 896.68373c14.88173 10.77587 34.96901 11.292 52.45351 16.938s52.45351 16.938 52.45351 16.938-35.79167-.28133-53.68751-.422-37.44203 7.08566-53.68751-.422c-25.59866-11.83012-36.88533-42.66667-55.328-64s-45.48824-37.57232-55.328-64c-3.50561-9.41539 0-20.09367 0-30.1405s0-30.1405 0-30.1405 37.708 51.74967 56.562 77.6245 30.63099 58.84784 56.562 77.6245z" filter="url(#b)" opacity=".5" transform="matrix(.99796503 0 0 -.99796503 -113.51002 1081.4672)"/><path d="m248.14068 687.93373c-3.92909 11.60488-1.08333 24.48-1.625 36.72s-1.625 36.72-1.625 36.72-9.06233-29.64667-13.5935-44.47-20.17735-30.43734-13.5935-44.47c4.47096-9.5293 19.41667-8.13517 29.125-12.20275s29.125-12.20275 29.125-12.20275-9.271 13.30183-13.9065 19.95275-11.30668 12.27398-13.9065 19.95275z" filter="url(#c)" opacity=".5" transform="matrix(.99796503 0 0 -.99796503 -113.51002 1081.4672)"/><path d="m144.32868 757.24773s17.53636-14.51558 27.52677-19.8029c8.26333-4.37329 26.34823-9.61484 26.34823-9.61484s12.68961 15.81917 15.345 25.32597c2.55538 9.14875-1.04674 19.0557 0 28.49677 1.07404 9.68735 6.405 28.53 6.405 28.53s-14.50109-13.01878-21.75-19.53c-5.24079-4.70745-8.6884-14.5524-15.72-14.125-14.28133.86805-28.218 32.344-28.218 32.344-9.68202-12.87023-23.72518-26.63693-9.937-51.624z" filter="url(#d)" opacity=".5" transform="matrix(.99796503 0 0 -.99796503 -113.51002 1081.4672)"/></g><path d="m134.87714 475.31723c-13.49605-3.072-27.66892-3.20408-40.859374-7.39843-16.06553-5.10857-34.111014-9.26805-45.830077-21.38672-8.681976-8.97802-11.350924-22.43224-14.69727-34.46484-2.462898-8.85596-2.037406-18.29344-3.832027-27.3086-3.92303-19.7071-14.349689-38.27462-15.123052-58.35352-.3824-9.9284 3.420266-19.57536 5.236333-29.34374 1.651991-8.88586 2.952978-17.85368 5.148431-26.6211 4.153621-16.58726 10.03401-32.69387 15.144539-49.01172 5.372036-17.1528 7.344064-35.81943 16.312497-51.39648 17.807568-30.92956 47.83989-52.97608 71.99414-79.250005 24.5556-26.710484 42.36348-62.182153 74.14062-79.693345 9.35668-5.1560865 20.96582-4.1316754 31.49806-5.9219248 9.63627-1.63796 19.21585-4.4556145 28.99023-4.40821116 27.81133.13482508 54.67107 10.74608696 82.36133 13.34179496 13.41331 1.257435 27.14001-1.303742 40.40234 1.064529 16.55748 2.956671 35.56608 4.650916 47.78321 16.210944 14.90106 14.099649 18.20274 37.144657 22.96093 57.099577 4.05733 17.015711 1.90392 34.985811 4.49804 52.285151 5.41706 36.12452 28.38264 70.99845 23.04493 107.13477-4.4396 30.05615-29.16166 53.31196-44.11133 79.76172-14.71433 26.03338-23.63879 56.62364-44.86523 77.68749-23.31365 23.13507-56.78226 33.05152-85.70288 48.61929-29.10842 15.66889-55.4606 41.70373-88.34802 45.05504-29.62905 3.01928-57.1067-17.09157-86.14637-23.70167zm84.68503 7.941c30.87009-3.23934 54.81173-29.148 82.08255-43.97225 27.48825-14.94243 59.92276-23.3511 82.18945-45.33007 20.25105-19.98939 28.1302-49.47135 42.19531-74.20704 14.0651-24.73568 38.00924-46.06173 42.19531-74.20703 5.09034-34.22515-15.21867-67.50913-22.82812-101.26367-7.6093-33.75393 2.34566-77.52335-22.82813-101.261745-19.61399-18.495585-53.20312-8.752652-79.80469-13.128928-26.60155-4.376277-52.84563-13.05957-79.80468-13.128829-8.92151-.02295-17.62109 2.805978-26.43164 4.208917-8.81055 1.40304-18.57592-.01996-26.43164 4.209018-30.39928 16.363832-46.61312 50.938929-69.91993 76.408217-23.30647 25.46889-52.747597 46.45682-69.919911 76.40625-8.359823 14.57998-9.937297 32.11074-14.906254 48.16601-4.969198 16.05605-10.829308 31.86299-14.908201 48.16797-2.122053 8.48272-3.304372 17.17323-4.957032 25.75976-1.65268 8.58665-5.265593 17.02089-4.958988 25.75976.662779 18.89023 9.730858 36.52986 14.595708 54.79493 4.86497 18.26553 1.486768 41.17688 14.593751 54.79687 19.315713 20.07174 53.181507 16.60604 79.869137 24.58985 26.59666 7.9566 52.3683 26.12922 79.978 23.23201z" fill="url(#f)"/></svg>