<svg height="500" viewBox="0 0 132.29167 132.29167" width="500" xmlns="http://www.w3.org/2000/svg" xmlns:xlink="http://www.w3.org/1999/xlink"><linearGradient id="a" gradientTransform="matrix(391.593 0 0 -391.593 60.7962 7618.49)" gradientUnits="userSpaceOnUse" spreadMethod="pad" x1="0" x2="1" y1="0" y2="0"><stop offset="0" stop-color="#9f571d"/><stop offset=".511236" stop-color="#fde791"/><stop offset="1" stop-color="#b7671e"/></linearGradient><linearGradient id="b" gradientTransform="matrix(391.593 0 0 -391.593 60.7962 7618.49)" gradientUnits="userSpaceOnUse" spreadMethod="pad" x1="0" x2="1" y1="0" y2="0"><stop offset="0" stop-color="#9f571d" stop-opacity="0"/><stop offset=".25561801" stop-color="#ce9f57"/><stop offset=".511236" stop-color="#fde791"/><stop offset=".75561798" stop-color="#daa757"/><stop offset="1" stop-color="#b7671e" stop-opacity="0"/></linearGradient><linearGradient id="c" gradientTransform="matrix(1.0783645 0 0 1.0803591 6.938501 -4.941583)" gradientUnits="userSpaceOnUse" x1="-65.964897" x2="-108.65797" xlink:href="#a" y1="31.088467" y2="44.930946"/><linearGradient id="d" gradientTransform="translate(.000042)" gradientUnits="userSpaceOnUse" x1="-70.856133" x2="-76.249809" xlink:href="#b" y1="47.023178" y2="46.9921"/><linearGradient id="e" gradientTransform="matrix(1.0783664 0 0 1.0803589 6.938671 -4.941573)" gradientUnits="userSpaceOnUse" x1="-65.964897" x2="-108.65797" xlink:href="#a" y1="31.088467" y2="44.930946"/><linearGradient id="f" gradientTransform="matrix(1.0000018 0 0 .9999998 .0002 .000007)" gradientUnits="userSpaceOnUse" x1="-70.856133" x2="-76.249809" xlink:href="#b" y1="47.023178" y2="46.9921"/><g fill="#c061cb" stroke-width="1.23138" transform="matrix(-.87243241 0 0 .87243241 -226.8274 -53.732331)"><g transform="matrix(.86645392 0 0 1 -230.47082 94.4271)"><path d="m-88.876707 26.831956c-6.063035 0-11.521793 1.215459-15.670383 3.30264-4.14822 2.076526-7.22232 5.040309-7.22232 9.195303 0 4.151978 3.07828 7.143896 7.23058 9.220625.00079.000606.00052.0015.002.0021 4.12857 2.074978 9.556939 3.28024 15.582541 3.29127 5.356813.179221 10.830999-.499523 15.732399-3.283519 1.374138-.780513 2.895577-1.809013 4.277264-3.173447 1.381686-1.364439 2.897421-3.126294 2.978634-5.941757l.0015-.05633v-.05891c0-4.158517-3.078563-7.124208-7.232129-9.200988-4.153568-2.076781-9.59763-3.296957-15.679693-3.296957z" fill="#86522c"/><path d="m-74.136034 43.792657c2.440061-1.388523 5.592234-3.864623 5.66071-6.242854 0-1.966613-1.734737-4.253373-5.432456-6.105649-3.697718-1.852277-9.038864-3.109994-14.996301-3.109994-5.934607 0-11.298579 1.257717-14.973469 3.109994-3.69772 1.852276-5.43245 4.139036-5.43245 6.105649 0 1.98948 1.73473 4.276239 5.43245 6.128517 3.67489 1.852275 9.038862 3.109991 14.973469 3.109991 5.332649.185253 10.400799-.510468 14.768047-2.995654z" fill="url(#e)"/><path d="m-76.336896 50.03097-.02296-5.147397c2.470697-1.296913 2.606587-1.051079 5.504309-3.426717l-.000606 5.56632c-1.975601 1.388146-3.43898 2.209659-5.480834 3.007794z" fill="url(#f)"/></g><g transform="matrix(.86645392 0 0 1 -241.39227 88.10193)"><path d="m-88.876707 26.831956c-6.063035 0-11.521793 1.215459-15.670383 3.30264-4.14822 2.076526-7.22232 5.040309-7.22232 9.195303 0 4.151978 3.07828 7.143896 7.23058 9.220625.00079.000606.00052.0015.002.0021 4.12857 2.074978 9.556939 3.28024 15.582541 3.29127 5.356813.179221 10.830999-.499523 15.732399-3.283519 1.374138-.780513 2.895577-1.809013 4.277264-3.173447 1.381686-1.364439 2.897421-3.126294 2.978634-5.941757l.0015-.05633v-.05891c0-4.158517-3.078563-7.124208-7.232129-9.200988-4.153568-2.076781-9.59763-3.296957-15.679693-3.296957z" fill="#86522c"/><path d="m-74.136034 43.792657c2.440061-1.388523 5.592234-3.864623 5.66071-6.242854 0-1.966613-1.734737-4.253373-5.432456-6.105649-3.697718-1.852277-9.038864-3.109994-14.996301-3.109994-5.934607 0-11.298579 1.257717-14.973469 3.109994-3.69772 1.852276-5.43245 4.139036-5.43245 6.105649 0 1.98948 1.73473 4.276239 5.43245 6.128517 3.67489 1.852275 9.038862 3.109991 14.973469 3.109991 5.332649.185253 10.400799-.510468 14.768047-2.995654z" fill="url(#e)"/><path d="m-76.336896 50.03097-.02296-5.147397c2.470697-1.296913 2.606587-1.051079 5.504309-3.426717l-.000606 5.56632c-1.975601 1.388146-3.43898 2.209659-5.480834 3.007794z" fill="url(#f)"/></g><g transform="matrix(.86645392 0 0 1 -233.09712 82.138568)"><path d="m-88.876707 26.831956c-6.063035 0-11.521793 1.215459-15.670383 3.30264-4.14822 2.076526-7.22232 5.040309-7.22232 9.195303 0 4.151978 3.07828 7.143896 7.23058 9.220625.00079.000606.00052.0015.002.0021 4.12857 2.074978 9.556939 3.28024 15.582541 3.29127 5.356813.179221 10.830999-.499523 15.732399-3.283519 1.374138-.780513 2.895577-1.809013 4.277264-3.173447 1.381686-1.364439 2.897421-3.126294 2.978634-5.941757l.0015-.05633v-.05891c0-4.158517-3.078563-7.124208-7.232129-9.200988-4.153568-2.076781-9.59763-3.296957-15.679693-3.296957z" fill="#86522c"/><path d="m-74.136034 43.792657c2.440061-1.388523 5.592234-3.864623 5.66071-6.242854 0-1.966613-1.734737-4.253373-5.432456-6.105649-3.697718-1.852277-9.038864-3.109994-14.996301-3.109994-5.934607 0-11.298579 1.257717-14.973469 3.109994-3.69772 1.852276-5.43245 4.139036-5.43245 6.105649 0 1.98948 1.73473 4.276239 5.43245 6.128517 3.67489 1.852275 9.038862 3.109991 14.973469 3.109991 5.332649.185253 10.400799-.510468 14.768047-2.995654z" fill="url(#e)"/><path d="m-76.336896 50.03097-.02296-5.147397c2.470697-1.296913 2.606587-1.051079 5.504309-3.426717l-.000606 5.56632c-1.975601 1.388146-3.43898 2.209659-5.480834 3.007794z" fill="url(#f)"/></g><g transform="matrix(.86645392 0 0 1 -238.82945 74.292738)"><path d="m-88.876707 26.831956c-6.063035 0-11.521793 1.215459-15.670383 3.30264-4.14822 2.076526-7.22232 5.040309-7.22232 9.195303 0 4.151978 3.07828 7.143896 7.23058 9.220625.00079.000606.00052.0015.002.0021 4.12857 2.074978 9.556939 3.28024 15.582541 3.29127 5.356813.179221 10.830999-.499523 15.732399-3.283519 1.374138-.780513 2.895577-1.809013 4.277264-3.173447 1.381686-1.364439 2.897421-3.126294 2.978634-5.941757l.0015-.05633v-.05891c0-4.158517-3.078563-7.124208-7.232129-9.200988-4.153568-2.076781-9.59763-3.296957-15.679693-3.296957z" fill="#86522c"/><path d="m-74.136034 43.792657c2.440061-1.388523 5.592234-3.864623 5.66071-6.242854 0-1.966613-1.734737-4.253373-5.432456-6.105649-3.697718-1.852277-9.038864-3.109994-14.996301-3.109994-5.934607 0-11.298579 1.257717-14.973469 3.109994-3.69772 1.852276-5.43245 4.139036-5.43245 6.105649 0 1.98948 1.73473 4.276239 5.43245 6.128517 3.67489 1.852275 9.038862 3.109991 14.973469 3.109991 5.332649.185253 10.400799-.510468 14.768047-2.995654z" fill="url(#e)"/><path d="m-76.336896 50.03097-.02296-5.147397c2.470697-1.296913 2.606587-1.051079 5.504309-3.426717l-.000606 5.56632c-1.975601 1.388146-3.43898 2.209659-5.480834 3.007794z" fill="url(#f)"/></g><g transform="matrix(.86645392 0 0 1 -234.75862 65.472601)"><path d="m-88.876707 26.831956c-6.063035 0-11.521793 1.215459-15.670383 3.30264-4.14822 2.076526-7.22232 5.040309-7.22232 9.195303 0 4.151978 3.07828 7.143896 7.23058 9.220625.00079.000606.00052.0015.002.0021 4.12857 2.074978 9.556939 3.28024 15.582541 3.29127 5.356813.179221 10.830999-.499523 15.732399-3.283519 1.374138-.780513 2.895577-1.809013 4.277264-3.173447 1.381686-1.364439 2.897421-3.126294 2.978634-5.941757l.0015-.05633v-.05891c0-4.158517-3.078563-7.124208-7.232129-9.200988-4.153568-2.076781-9.59763-3.296957-15.679693-3.296957z" fill="#86522c"/><path d="m-74.136034 43.792657c2.440061-1.388523 5.592234-3.864623 5.66071-6.242854 0-1.966613-1.734737-4.253373-5.432456-6.105649-3.697718-1.852277-9.038864-3.109994-14.996301-3.109994-5.934607 0-11.298579 1.257717-14.973469 3.109994-3.69772 1.852276-5.43245 4.139036-5.43245 6.105649 0 1.98948 1.73473 4.276239 5.43245 6.128517 3.67489 1.852275 9.038862 3.109991 14.973469 3.109991 5.332649.185253 10.400799-.510468 14.768047-2.995654z" fill="url(#e)"/><path d="m-76.336896 50.03097-.02296-5.147397c2.470697-1.296913 2.606587-1.051079 5.504309-3.426717l-.000606 5.56632c-1.975601 1.388146-3.43898 2.209659-5.480834 3.007794z" fill="url(#f)"/></g></g><g stroke-width="1.14622" transform="matrix(.87243242 0 0 .87243242 162.49286 -4.397489)"><g fill="#613583" stroke-width="1.14622"><g transform="translate(2.566774 54.652088)"><path d="m-88.876707 26.831953c-6.063023 0-11.521773 1.215459-15.670363 3.30264-4.14821 2.076527-7.2223 5.04031-7.2223 9.195305 0 4.151979 3.07827 7.143898 7.23057 9.220627.00079.000606.00052.0015.002.0021 4.12856 2.074979 9.556921 3.280241 15.582512 3.291271 5.356804.179221 10.830979-.499523 15.73237-3.28352 1.374136-.780513 2.895573-1.809014 4.277257-3.173447 1.381684-1.36444 2.897417-3.126295 2.978629-5.941759l.0015-.05633v-.05891c0-4.158518-3.078557-7.124209-7.232116-9.20099-4.153561-2.076781-9.597613-3.296957-15.679665-3.296957z" fill="#86522c"/><path d="m-74.136059 43.792657c2.440056-1.388523 5.592224-3.864623 5.660699-6.242855 0-1.966614-1.734734-4.253374-5.432446-6.105651-3.697711-1.852277-9.038848-3.109994-14.996274-3.109994-5.934596 0-11.29856 1.257717-14.97345 3.109994-3.69771 1.852277-5.43244 4.139037-5.43244 6.105651 0 1.989481 1.73473 4.27624 5.43244 6.128519 3.67489 1.852275 9.038854 3.109991 14.97345 3.109991 5.332639.185253 10.400781-.510469 14.768021-2.995655z" fill="url(#c)"/><path d="m-76.336917 50.030972-.02296-5.147398c2.470693-1.296914 2.606583-1.05108 5.5043-3.426719l-.000607 5.566322c-1.975597 1.388146-3.438973 2.209659-5.480823 3.007795z" fill="url(#d)"/></g><g transform="translate(2.871569 44.605302)"><path d="m-88.876707 26.831953c-6.063023 0-11.521773 1.215459-15.670363 3.30264-4.14821 2.076527-7.2223 5.04031-7.2223 9.195305 0 4.151979 3.07827 7.143898 7.23057 9.220627.00079.000606.00052.0015.002.0021 4.12856 2.074979 9.556921 3.280241 15.582512 3.291271 5.356804.179221 10.830979-.499523 15.73237-3.28352 1.374136-.780513 2.895573-1.809014 4.277257-3.173447 1.381684-1.36444 2.897417-3.126295 2.978629-5.941759l.0015-.05633v-.05891c0-4.158518-3.078557-7.124209-7.232116-9.20099-4.153561-2.076781-9.597613-3.296957-15.679665-3.296957z" fill="#86522c"/><path d="m-74.136059 43.792657c2.440056-1.388523 5.592224-3.864623 5.660699-6.242855 0-1.966614-1.734734-4.253374-5.432446-6.105651-3.697711-1.852277-9.038848-3.109994-14.996274-3.109994-5.934596 0-11.29856 1.257717-14.97345 3.109994-3.69771 1.852277-5.43244 4.139037-5.43244 6.105651 0 1.989481 1.73473 4.27624 5.43244 6.128519 3.67489 1.852275 9.038854 3.109991 14.97345 3.109991 5.332639.185253 10.400781-.510469 14.768021-2.995655z" fill="url(#c)"/><path d="m-76.336917 50.030972-.02296-5.147398c2.470693-1.296914 2.606583-1.05108 5.5043-3.426719l-.000607 5.566322c-1.975597 1.388146-3.438973 2.209659-5.480823 3.007795z" fill="url(#d)"/></g><g transform="translate(.592746 35.849824)"><path d="m-88.876707 26.831953c-6.063023 0-11.521773 1.215459-15.670363 3.30264-4.14821 2.076527-7.2223 5.04031-7.2223 9.195305 0 4.151979 3.07827 7.143898 7.23057 9.220627.00079.000606.00052.0015.002.0021 4.12856 2.074979 9.556921 3.280241 15.582512 3.291271 5.356804.179221 10.830979-.499523 15.73237-3.28352 1.374136-.780513 2.895573-1.809014 4.277257-3.173447 1.381684-1.36444 2.897417-3.126295 2.978629-5.941759l.0015-.05633v-.05891c0-4.158518-3.078557-7.124209-7.232116-9.20099-4.153561-2.076781-9.597613-3.296957-15.679665-3.296957z" fill="#86522c"/><path d="m-74.136059 43.792657c2.440056-1.388523 5.592224-3.864623 5.660699-6.242855 0-1.966614-1.734734-4.253374-5.432446-6.105651-3.697711-1.852277-9.038848-3.109994-14.996274-3.109994-5.934596 0-11.29856 1.257717-14.97345 3.109994-3.69771 1.852277-5.43244 4.139037-5.43244 6.105651 0 1.989481 1.73473 4.27624 5.43244 6.128519 3.67489 1.852275 9.038854 3.109991 14.97345 3.109991 5.332639.185253 10.400781-.510469 14.768021-2.995655z" fill="url(#c)"/><path d="m-76.336917 50.030972-.02296-5.147398c2.470693-1.296914 2.606583-1.05108 5.5043-3.426719l-.000607 5.566322c-1.975597 1.388146-3.438973 2.209659-5.480823 3.007795z" fill="url(#d)"/></g></g><g fill="#c061cb" stroke-width="1.23138" transform="matrix(.86645392 0 0 1 -5.879313 27.813974)"><path d="m-88.876707 26.831956c-6.063035 0-11.521793 1.215459-15.670383 3.30264-4.14822 2.076526-7.22232 5.040309-7.22232 9.195303 0 4.151978 3.07828 7.143896 7.23058 9.220625.00079.000606.00052.0015.002.0021 4.12857 2.074978 9.556939 3.28024 15.582541 3.29127 5.356813.179221 10.830999-.499523 15.732399-3.283519 1.374138-.780513 2.895577-1.809013 4.277264-3.173447 1.381686-1.364439 2.897421-3.126294 2.978634-5.941757l.0015-.05633v-.05891c0-4.158517-3.078563-7.124208-7.232129-9.200988-4.153568-2.076781-9.59763-3.296957-15.679693-3.296957z" fill="#86522c"/><path d="m-74.136034 43.792657c2.440061-1.388523 5.592234-3.864623 5.66071-6.242854 0-1.966613-1.734737-4.253373-5.432456-6.105649-3.697718-1.852277-9.038864-3.109994-14.996301-3.109994-5.934607 0-11.298579 1.257717-14.973469 3.109994-3.69772 1.852276-5.43245 4.139036-5.43245 6.105649 0 1.98948 1.73473 4.276239 5.43245 6.128517 3.67489 1.852275 9.038862 3.109991 14.973469 3.109991 5.332649.185253 10.400799-.510468 14.768047-2.995654z" fill="url(#e)"/><path d="m-76.336896 50.03097-.02296-5.147397c2.470697-1.296913 2.606587-1.051079 5.504309-3.426717l-.000606 5.56632c-1.975601 1.388146-3.43898 2.209659-5.480834 3.007794z" fill="url(#f)"/></g><g fill="#613583" stroke-width="1.14622" transform="translate(5.989958 27.813974)"><path d="m-88.876707 26.831953c-6.063023 0-11.521773 1.215459-15.670363 3.30264-4.14821 2.076527-7.2223 5.04031-7.2223 9.195305 0 4.151979 3.07827 7.143898 7.23057 9.220627.00079.000606.00052.0015.002.0021 4.12856 2.074979 9.556921 3.280241 15.582512 3.291271 5.356804.179221 10.830979-.499523 15.73237-3.28352 1.374136-.780513 2.895573-1.809014 4.277257-3.173447 1.381684-1.36444 2.897417-3.126295 2.978629-5.941759l.0015-.05633v-.05891c0-4.158518-3.078557-7.124209-7.232116-9.20099-4.153561-2.076781-9.597613-3.296957-15.679665-3.296957z" fill="#86522c"/><path d="m-74.136059 43.792657c2.440056-1.388523 5.592224-3.864623 5.660699-6.242855 0-1.966614-1.734734-4.253374-5.432446-6.105651-3.697711-1.852277-9.038848-3.109994-14.996274-3.109994-5.934596 0-11.29856 1.257717-14.97345 3.109994-3.69771 1.852277-5.43244 4.139037-5.43244 6.105651 0 1.989481 1.73473 4.27624 5.43244 6.128519 3.67489 1.852275 9.038854 3.109991 14.97345 3.109991 5.332639.185253 10.400781-.510469 14.768021-2.995655z" fill="url(#c)"/><path d="m-76.336917 50.030972-.02296-5.147398c2.470693-1.296914 2.606583-1.05108 5.5043-3.426719l-.000607 5.566322c-1.975597 1.388146-3.438973 2.209659-5.480823 3.007795z" fill="url(#d)"/></g><g fill="#c061cb" stroke-width="1.23138" transform="matrix(.86645392 0 0 1 -7.253511 18.098992)"><path d="m-88.876707 26.831956c-6.063035 0-11.521793 1.215459-15.670383 3.30264-4.14822 2.076526-7.22232 5.040309-7.22232 9.195303 0 4.151978 3.07828 7.143896 7.23058 9.220625.00079.000606.00052.0015.002.0021 4.12857 2.074978 9.556939 3.28024 15.582541 3.29127 5.356813.179221 10.830999-.499523 15.732399-3.283519 1.374138-.780513 2.895577-1.809013 4.277264-3.173447 1.381686-1.364439 2.897421-3.126294 2.978634-5.941757l.0015-.05633v-.05891c0-4.158517-3.078563-7.124208-7.232129-9.200988-4.153568-2.076781-9.59763-3.296957-15.679693-3.296957z" fill="#86522c"/><path d="m-74.136034 43.792657c2.440061-1.388523 5.592234-3.864623 5.66071-6.242854 0-1.966613-1.734737-4.253373-5.432456-6.105649-3.697718-1.852277-9.038864-3.109994-14.996301-3.109994-5.934607 0-11.298579 1.257717-14.973469 3.109994-3.69772 1.852276-5.43245 4.139036-5.43245 6.105649 0 1.98948 1.73473 4.276239 5.43245 6.128517 3.67489 1.852275 9.038862 3.109991 14.973469 3.109991 5.332649.185253 10.400799-.510468 14.768047-2.995654z" fill="url(#e)"/><path d="m-76.336896 50.03097-.02296-5.147397c2.470697-1.296913 2.606587-1.051079 5.504309-3.426717l-.000606 5.56632c-1.975601 1.388146-3.43898 2.209659-5.480834 3.007794z" fill="url(#f)"/></g><g fill="#613583" stroke-width="1.14622" transform="translate(2.991508 9.103639)"><path d="m-88.876707 26.831953c-6.063023 0-11.521773 1.215459-15.670363 3.30264-4.14821 2.076527-7.2223 5.04031-7.2223 9.195305 0 4.151979 3.07827 7.143898 7.23057 9.220627.00079.000606.00052.0015.002.0021 4.12856 2.074979 9.556921 3.280241 15.582512 3.291271 5.356804.179221 10.830979-.499523 15.73237-3.28352 1.374136-.780513 2.895573-1.809014 4.277257-3.173447 1.381684-1.36444 2.897417-3.126295 2.978629-5.941759l.0015-.05633v-.05891c0-4.158518-3.078557-7.124209-7.232116-9.20099-4.153561-2.076781-9.597613-3.296957-15.679665-3.296957z" fill="#86522c"/><path d="m-74.136059 43.792657c2.440056-1.388523 5.592224-3.864623 5.660699-6.242855 0-1.966614-1.734734-4.253374-5.432446-6.105651-3.697711-1.852277-9.038848-3.109994-14.996274-3.109994-5.934596 0-11.29856 1.257717-14.97345 3.109994-3.69771 1.852277-5.43244 4.139037-5.43244 6.105651 0 1.989481 1.73473 4.27624 5.43244 6.128519 3.67489 1.852275 9.038854 3.109991 14.97345 3.109991 5.332639.185253 10.400781-.510469 14.768021-2.995655z" fill="url(#c)"/><path d="m-76.336917 50.030972-.02296-5.147398c2.470693-1.296914 2.606583-1.05108 5.5043-3.426719l-.000607 5.566322c-1.975597 1.388146-3.438973 2.209659-5.480823 3.007795z" fill="url(#d)"/></g><g fill="#613583" stroke-width="1.14622"><path d="m-88.876707 26.831953c-6.063023 0-11.521773 1.215459-15.670363 3.30264-4.14821 2.076527-7.2223 5.04031-7.2223 9.195305 0 4.151979 3.07827 7.143898 7.23057 9.220627.00079.000606.00052.0015.002.0021 4.12856 2.074979 9.556921 3.280241 15.582512 3.291271 5.356804.179221 10.830979-.499523 15.73237-3.28352 1.374136-.780513 2.895573-1.809014 4.277257-3.173447 1.381684-1.36444 2.897417-3.126295 2.978629-5.941759l.0015-.05633v-.05891c0-4.158518-3.078557-7.124209-7.232116-9.20099-4.153561-2.076781-9.597613-3.296957-15.679665-3.296957z" fill="#86522c"/><path d="m-74.136059 43.792657c2.440056-1.388523 5.592224-3.864623 5.660699-6.242855 0-1.966614-1.734734-4.253374-5.432446-6.105651-3.697711-1.852277-9.038848-3.109994-14.996274-3.109994-5.934596 0-11.29856 1.257717-14.97345 3.109994-3.69771 1.852277-5.43244 4.139037-5.43244 6.105651 0 1.989481 1.73473 4.27624 5.43244 6.128519 3.67489 1.852275 9.038854 3.109991 14.97345 3.109991 5.332639.185253 10.400781-.510469 14.768021-2.995655z" fill="url(#c)"/><path d="m-76.336917 50.030972-.02296-5.147398c2.470693-1.296914 2.606583-1.05108 5.5043-3.426719l-.000607 5.566322c-1.975597 1.388146-3.438973 2.209659-5.480823 3.007795z" fill="url(#d)"/></g></g><g fill="#c061cb" stroke-width="1.23138" transform="matrix(0 -.75592249 -.59923181 0 134.73937 .975552)"><path d="m-88.876707 26.831956c-6.063035 0-11.521793 1.215459-15.670383 3.30264-4.14822 2.076526-7.22232 5.040309-7.22232 9.195303 0 4.151978 3.07828 7.143896 7.23058 9.220625.00079.000606.00052.0015.002.0021 4.12857 2.074978 9.556939 3.28024 15.582541 3.29127 5.356813.179221 10.830999-.499523 15.732399-3.283519 1.374138-.780513 2.895577-1.809013 4.277264-3.173447 1.381686-1.364439 2.897421-3.126294 2.978634-5.941757l.0015-.05633v-.05891c0-4.158517-3.078563-7.124208-7.232129-9.200988-4.153568-2.076781-9.59763-3.296957-15.679693-3.296957z" fill="#86522c"/><path d="m-74.136034 43.792657c2.440061-1.388523 5.592234-3.864623 5.66071-6.242854 0-1.966613-1.734737-4.253373-5.432456-6.105649-3.697718-1.852277-9.038864-3.109994-14.996301-3.109994-5.934607 0-11.298579 1.257717-14.973469 3.109994-3.69772 1.852276-5.43245 4.139036-5.43245 6.105649 0 1.98948 1.73473 4.276239 5.43245 6.128517 3.67489 1.852275 9.038862 3.109991 14.973469 3.109991 5.332649.185253 10.400799-.510468 14.768047-2.995654z" fill="url(#e)"/><path d="m-76.336896 50.03097-.02296-5.147397c2.470697-1.296913 2.606587-1.051079 5.504309-3.426717l-.000606 5.56632c-1.975601 1.388146-3.43898 2.209659-5.480834 3.007794z" fill="url(#f)"/></g><g fill="#613583" stroke-width="1.14622" transform="matrix(.81760576 0 0 .81816733 122.23337 53.385532)"><path d="m-88.876707 26.831953c-6.063023 0-11.521773 1.215459-15.670363 3.30264-4.14821 2.076527-7.2223 5.04031-7.2223 9.195305 0 4.151979 3.07827 7.143898 7.23057 9.220627.00079.000606.00052.0015.002.0021 4.12856 2.074979 9.556921 3.280241 15.582512 3.291271 5.356804.179221 10.830979-.499523 15.73237-3.28352 1.374136-.780513 2.895573-1.809014 4.277257-3.173447 1.381684-1.36444 2.897417-3.126295 2.978629-5.941759l.0015-.05633v-.05891c0-4.158518-3.078557-7.124209-7.232116-9.20099-4.153561-2.076781-9.597613-3.296957-15.679665-3.296957z" fill="#86522c"/><path d="m-74.136059 43.792657c2.440056-1.388523 5.592224-3.864623 5.660699-6.242855 0-1.966614-1.734734-4.253374-5.432446-6.105651-3.697711-1.852277-9.038848-3.109994-14.996274-3.109994-5.934596 0-11.29856 1.257717-14.97345 3.109994-3.69771 1.852277-5.43244 4.139037-5.43244 6.105651 0 1.989481 1.73473 4.27624 5.43244 6.128519 3.67489 1.852275 9.038854 3.109991 14.97345 3.109991 5.332639.185253 10.400781-.510469 14.768021-2.995655z" fill="url(#c)"/><path d="m-76.336917 50.030972-.02296-5.147398c2.470693-1.296914 2.606583-1.05108 5.5043-3.426719l-.000607 5.566322c-1.975597 1.388146-3.438973 2.209659-5.480823 3.007795z" fill="url(#d)"/></g><g fill="#613583" stroke-width="1.14622" transform="matrix(.76277909 0 0 .84317918 110.196 61.159723)"><path d="m-88.876707 26.831953c-6.063023 0-11.521773 1.215459-15.670363 3.30264-4.14821 2.076527-7.2223 5.04031-7.2223 9.195305 0 4.151979 3.07827 7.143898 7.23057 9.220627.00079.000606.00052.0015.002.0021 4.12856 2.074979 9.556921 3.280241 15.582512 3.291271 5.356804.179221 10.830979-.499523 15.73237-3.28352 1.374136-.780513 2.895573-1.809014 4.277257-3.173447 1.381684-1.36444 2.897417-3.126295 2.978629-5.941759l.0015-.05633v-.05891c0-4.158518-3.078557-7.124209-7.232116-9.20099-4.153561-2.076781-9.597613-3.296957-15.679665-3.296957z" fill="#86522c"/><path d="m-74.136059 43.792657c2.440056-1.388523 5.592224-3.864623 5.660699-6.242855 0-1.966614-1.734734-4.253374-5.432446-6.105651-3.697711-1.852277-9.038848-3.109994-14.996274-3.109994-5.934596 0-11.29856 1.257717-14.97345 3.109994-3.69771 1.852277-5.43244 4.139037-5.43244 6.105651 0 1.989481 1.73473 4.27624 5.43244 6.128519 3.67489 1.852275 9.038854 3.109991 14.97345 3.109991 5.332639.185253 10.400781-.510469 14.768021-2.995655z" fill="url(#c)"/><path d="m-76.336917 50.030972-.02296-5.147398c2.470693-1.296914 2.606583-1.05108 5.5043-3.426719l-.000607 5.566322c-1.975597 1.388146-3.438973 2.209659-5.480823 3.007795z" fill="url(#d)"/></g><g fill="#c061cb" stroke-width="1.23138" transform="matrix(.58161408 0 0 .73694804 124.01478 75.054089)"><path d="m-88.876707 26.831956c-6.063035 0-11.521793 1.215459-15.670383 3.30264-4.14822 2.076526-7.22232 5.040309-7.22232 9.195303 0 4.151978 3.07828 7.143896 7.23058 9.220625.00079.000606.00052.0015.002.0021 4.12857 2.074978 9.556939 3.28024 15.582541 3.29127 5.356813.179221 10.830999-.499523 15.732399-3.283519 1.374138-.780513 2.895577-1.809013 4.277264-3.173447 1.381686-1.364439 2.897421-3.126294 2.978634-5.941757l.0015-.05633v-.05891c0-4.158517-3.078563-7.124208-7.232129-9.200988-4.153568-2.076781-9.59763-3.296957-15.679693-3.296957z" fill="#86522c"/><path d="m-74.136034 43.792657c2.440061-1.388523 5.592234-3.864623 5.66071-6.242854 0-1.966613-1.734737-4.253373-5.432456-6.105649-3.697718-1.852277-9.038864-3.109994-14.996301-3.109994-5.934607 0-11.298579 1.257717-14.973469 3.109994-3.69772 1.852276-5.43245 4.139036-5.43245 6.105649 0 1.98948 1.73473 4.276239 5.43245 6.128517 3.67489 1.852275 9.038862 3.109991 14.973469 3.109991 5.332649.185253 10.400799-.510468 14.768047-2.995654z" fill="url(#e)"/><path d="m-76.336896 50.03097-.02296-5.147397c2.470697-1.296913 2.606587-1.051079 5.504309-3.426717l-.000606 5.56632c-1.975601 1.388146-3.43898 2.209659-5.480834 3.007794z" fill="url(#f)"/></g><g fill="#613583" stroke-width="1.14622" transform="matrix(.73199274 -.2047701 0 .87243242 94.934492 34.373086)"><path d="m-88.876707 26.831953c-6.063023 0-11.521773 1.215459-15.670363 3.30264-4.14821 2.076527-7.2223 5.04031-7.2223 9.195305 0 4.151979 3.07827 7.143898 7.23057 9.220627.00079.000606.00052.0015.002.0021 4.12856 2.074979 9.556921 3.280241 15.582512 3.291271 5.356804.179221 10.830979-.499523 15.73237-3.28352 1.374136-.780513 2.895573-1.809014 4.277257-3.173447 1.381684-1.36444 2.897417-3.126295 2.978629-5.941759l.0015-.05633v-.05891c0-4.158518-3.078557-7.124209-7.232116-9.20099-4.153561-2.076781-9.597613-3.296957-15.679665-3.296957z" fill="#86522c"/><path d="m-74.136059 43.792657c2.440056-1.388523 5.592224-3.864623 5.660699-6.242855 0-1.966614-1.734734-4.253374-5.432446-6.105651-3.697711-1.852277-9.038848-3.109994-14.996274-3.109994-5.934596 0-11.29856 1.257717-14.97345 3.109994-3.69771 1.852277-5.43244 4.139037-5.43244 6.105651 0 1.989481 1.73473 4.27624 5.43244 6.128519 3.67489 1.852275 9.038854 3.109991 14.97345 3.109991 5.332639.185253 10.400781-.510469 14.768021-2.995655z" fill="url(#c)"/><path d="m-76.336917 50.030972-.02296-5.147398c2.470693-1.296914 2.606583-1.05108 5.5043-3.426719l-.000607 5.566322c-1.975597 1.388146-3.438973 2.209659-5.480823 3.007795z" fill="url(#d)"/></g></svg>