<svg height="500" viewBox="0 0 132.29167 132.29167" width="500" xmlns="http://www.w3.org/2000/svg" xmlns:xlink="http://www.w3.org/1999/xlink"><linearGradient id="a" gradientTransform="matrix(1.0783645 0 0 1.0803591 6.938499 -4.941585)" gradientUnits="userSpaceOnUse" x1="-65.964897" x2="-108.65797" xlink:href="#e" y1="31.088467" y2="44.930946"/><linearGradient id="b" gradientTransform="translate(.000041)" gradientUnits="userSpaceOnUse" x1="-70.856133" x2="-76.249809" xlink:href="#f" y1="47.023178" y2="46.9921"/><linearGradient id="c" gradientTransform="matrix(1.0783664 0 0 1.0803588 6.938667 -4.941572)" gradientUnits="userSpaceOnUse" x1="-65.964897" x2="-108.65797" xlink:href="#e" y1="31.088467" y2="44.930946"/><linearGradient id="d" gradientTransform="matrix(1.0000018 0 0 .99999974 .000196 .000007)" gradientUnits="userSpaceOnUse" x1="-70.856133" x2="-76.249809" xlink:href="#f" y1="47.023178" y2="46.9921"/><linearGradient id="e" gradientTransform="matrix(391.593 0 0 -391.593 60.7962 7618.49)" gradientUnits="userSpaceOnUse" spreadMethod="pad" x1="0" x2="1" y1="0" y2="0"><stop offset="0" stop-color="#a06122"/><stop offset=".511236" stop-color="#efbd76"/><stop offset="1" stop-color="#b57720"/></linearGradient><linearGradient id="f" gradientTransform="matrix(391.593 0 0 -391.593 60.7962 7618.49)" gradientUnits="userSpaceOnUse" spreadMethod="pad" x1="0" x2="1" y1="0" y2="0"><stop offset="0" stop-color="#a06122" stop-opacity="0"/><stop offset=".25561801" stop-color="#c78f4c"/><stop offset=".511236" stop-color="#efbd76"/><stop offset=".75561798" stop-color="#d29a4b"/><stop offset="1" stop-color="#b57720" stop-opacity="0"/></linearGradient><g fill="#613583" stroke-width="1.23138" transform="matrix(-.87243241 0 0 .87243241 -231.14518 -52.944108)"><g transform="matrix(.86645392 0 0 1 -230.47082 94.4271)"><path d="m-88.876713 26.831954c-6.063036 0-11.521797 1.215458-15.670387 3.30264-4.14822 2.076526-7.22232 5.040309-7.22232 9.195304 0 4.151977 3.07828 7.143892 7.23059 9.220624.00078.000607.00051.0015.002.0021 4.12857 2.074979 9.556942 3.28024 15.582542 3.29127 5.356815.179221 10.831001-.499523 15.732404-3.283518 1.374135-.780513 2.895578-1.809014 4.277261-3.17345 1.381687-1.364437 2.897422-3.126291 2.978635-5.941757l.0015-.05633v-.05891c0-4.158516-3.078562-7.124204-7.232128-9.200984-4.153569-2.07678-9.597628-3.296957-15.679693-3.296957z" fill="#86522c"/><path d="m-74.136041 43.792655c2.440062-1.388522 5.592234-3.864622 5.66071-6.242853 0-1.966614-1.734737-4.253373-5.432455-6.105651-3.697719-1.852275-9.038865-3.109993-14.996303-3.109993-5.934606 0-11.298581 1.257718-14.973471 3.109993-3.69772 1.852278-5.43245 4.139037-5.43245 6.105651 0 1.98948 1.73473 4.276239 5.43245 6.128514 3.67489 1.852278 9.038865 3.109993 14.973471 3.109993 5.33265.185253 10.400801-.510468 14.768048-2.995654z" fill="url(#c)"/><path d="m-76.336902 50.030969-.02296-5.147397c2.470698-1.296913 2.606587-1.051082 5.504309-3.426721l-.000606 5.566324c-1.975601 1.388146-3.43898 2.209655-5.480833 3.007794z" fill="url(#d)"/></g><g transform="matrix(.86645392 0 0 1 -241.39227 88.10193)"><path d="m-88.876713 26.831954c-6.063036 0-11.521797 1.215458-15.670387 3.30264-4.14822 2.076526-7.22232 5.040309-7.22232 9.195304 0 4.151977 3.07828 7.143892 7.23059 9.220624.00078.000607.00051.0015.002.0021 4.12857 2.074979 9.556942 3.28024 15.582542 3.29127 5.356815.179221 10.831001-.499523 15.732404-3.283518 1.374135-.780513 2.895578-1.809014 4.277261-3.17345 1.381687-1.364437 2.897422-3.126291 2.978635-5.941757l.0015-.05633v-.05891c0-4.158516-3.078562-7.124204-7.232128-9.200984-4.153569-2.07678-9.597628-3.296957-15.679693-3.296957z" fill="#86522c"/><path d="m-74.136041 43.792655c2.440062-1.388522 5.592234-3.864622 5.66071-6.242853 0-1.966614-1.734737-4.253373-5.432455-6.105651-3.697719-1.852275-9.038865-3.109993-14.996303-3.109993-5.934606 0-11.298581 1.257718-14.973471 3.109993-3.69772 1.852278-5.43245 4.139037-5.43245 6.105651 0 1.98948 1.73473 4.276239 5.43245 6.128514 3.67489 1.852278 9.038865 3.109993 14.973471 3.109993 5.33265.185253 10.400801-.510468 14.768048-2.995654z" fill="url(#c)"/><path d="m-76.336902 50.030969-.02296-5.147397c2.470698-1.296913 2.606587-1.051082 5.504309-3.426721l-.000606 5.566324c-1.975601 1.388146-3.43898 2.209655-5.480833 3.007794z" fill="url(#d)"/></g><g transform="matrix(.86645392 0 0 1 -233.09712 82.138568)"><path d="m-88.876713 26.831954c-6.063036 0-11.521797 1.215458-15.670387 3.30264-4.14822 2.076526-7.22232 5.040309-7.22232 9.195304 0 4.151977 3.07828 7.143892 7.23059 9.220624.00078.000607.00051.0015.002.0021 4.12857 2.074979 9.556942 3.28024 15.582542 3.29127 5.356815.179221 10.831001-.499523 15.732404-3.283518 1.374135-.780513 2.895578-1.809014 4.277261-3.17345 1.381687-1.364437 2.897422-3.126291 2.978635-5.941757l.0015-.05633v-.05891c0-4.158516-3.078562-7.124204-7.232128-9.200984-4.153569-2.07678-9.597628-3.296957-15.679693-3.296957z" fill="#86522c"/><path d="m-74.136041 43.792655c2.440062-1.388522 5.592234-3.864622 5.66071-6.242853 0-1.966614-1.734737-4.253373-5.432455-6.105651-3.697719-1.852275-9.038865-3.109993-14.996303-3.109993-5.934606 0-11.298581 1.257718-14.973471 3.109993-3.69772 1.852278-5.43245 4.139037-5.43245 6.105651 0 1.98948 1.73473 4.276239 5.43245 6.128514 3.67489 1.852278 9.038865 3.109993 14.973471 3.109993 5.33265.185253 10.400801-.510468 14.768048-2.995654z" fill="url(#c)"/><path d="m-76.336902 50.030969-.02296-5.147397c2.470698-1.296913 2.606587-1.051082 5.504309-3.426721l-.000606 5.566324c-1.975601 1.388146-3.43898 2.209655-5.480833 3.007794z" fill="url(#d)"/></g><g transform="matrix(.86645392 0 0 1 -238.82945 74.292738)"><path d="m-88.876713 26.831954c-6.063036 0-11.521797 1.215458-15.670387 3.30264-4.14822 2.076526-7.22232 5.040309-7.22232 9.195304 0 4.151977 3.07828 7.143892 7.23059 9.220624.00078.000607.00051.0015.002.0021 4.12857 2.074979 9.556942 3.28024 15.582542 3.29127 5.356815.179221 10.831001-.499523 15.732404-3.283518 1.374135-.780513 2.895578-1.809014 4.277261-3.17345 1.381687-1.364437 2.897422-3.126291 2.978635-5.941757l.0015-.05633v-.05891c0-4.158516-3.078562-7.124204-7.232128-9.200984-4.153569-2.07678-9.597628-3.296957-15.679693-3.296957z" fill="#86522c"/><path d="m-74.136041 43.792655c2.440062-1.388522 5.592234-3.864622 5.66071-6.242853 0-1.966614-1.734737-4.253373-5.432455-6.105651-3.697719-1.852275-9.038865-3.109993-14.996303-3.109993-5.934606 0-11.298581 1.257718-14.973471 3.109993-3.69772 1.852278-5.43245 4.139037-5.43245 6.105651 0 1.98948 1.73473 4.276239 5.43245 6.128514 3.67489 1.852278 9.038865 3.109993 14.973471 3.109993 5.33265.185253 10.400801-.510468 14.768048-2.995654z" fill="url(#c)"/><path d="m-76.336902 50.030969-.02296-5.147397c2.470698-1.296913 2.606587-1.051082 5.504309-3.426721l-.000606 5.566324c-1.975601 1.388146-3.43898 2.209655-5.480833 3.007794z" fill="url(#d)"/></g><g transform="matrix(.86645392 0 0 1 -234.75862 65.472601)"><path d="m-88.876713 26.831954c-6.063036 0-11.521797 1.215458-15.670387 3.30264-4.14822 2.076526-7.22232 5.040309-7.22232 9.195304 0 4.151977 3.07828 7.143892 7.23059 9.220624.00078.000607.00051.0015.002.0021 4.12857 2.074979 9.556942 3.28024 15.582542 3.29127 5.356815.179221 10.831001-.499523 15.732404-3.283518 1.374135-.780513 2.895578-1.809014 4.277261-3.17345 1.381687-1.364437 2.897422-3.126291 2.978635-5.941757l.0015-.05633v-.05891c0-4.158516-3.078562-7.124204-7.232128-9.200984-4.153569-2.07678-9.597628-3.296957-15.679693-3.296957z" fill="#86522c"/><path d="m-74.136041 43.792655c2.440062-1.388522 5.592234-3.864622 5.66071-6.242853 0-1.966614-1.734737-4.253373-5.432455-6.105651-3.697719-1.852275-9.038865-3.109993-14.996303-3.109993-5.934606 0-11.298581 1.257718-14.973471 3.109993-3.69772 1.852278-5.43245 4.139037-5.43245 6.105651 0 1.98948 1.73473 4.276239 5.43245 6.128514 3.67489 1.852278 9.038865 3.109993 14.973471 3.109993 5.33265.185253 10.400801-.510468 14.768048-2.995654z" fill="url(#c)"/><path d="m-76.336902 50.030969-.02296-5.147397c2.470698-1.296913 2.606587-1.051082 5.504309-3.426721l-.000606 5.566324c-1.975601 1.388146-3.43898 2.209655-5.480833 3.007794z" fill="url(#d)"/></g></g><g stroke-width="1.14622" transform="matrix(.87243242 0 0 .87243242 162.73273 -5.528272)"><g fill="#a51d2d" stroke-width="1.14622"><g transform="translate(2.566774 54.652088)"><path d="m-88.876707 26.83195c-6.063025 0-11.521773 1.215458-15.670363 3.302641-4.14821 2.076526-7.2223 5.04031-7.2223 9.195306 0 4.151979 3.07827 7.143894 7.23057 9.220627.00079.000606.00052.0015.002.0021 4.12856 2.074979 9.556919 3.280241 15.582509 3.291271 5.356805.179221 10.830981-.499524 15.732375-3.28352 1.374132-.780513 2.895573-1.809014 4.277253-3.173451 1.381684-1.364436 2.897417-3.126292 2.97863-5.941758l.0015-.05633v-.05891c0-4.158517-3.078557-7.124206-7.232115-9.200987-4.153562-2.07678-9.597611-3.296957-15.679664-3.296957z" fill="#86522c"/><path d="m-74.136061 43.792656c2.440057-1.388523 5.592224-3.864624 5.6607-6.242856 0-1.966614-1.734734-4.253374-5.432446-6.105652-3.697712-1.852275-9.038849-3.109994-14.996275-3.109994-5.934596 0-11.298558 1.257719-14.973448 3.109994-3.69771 1.852278-5.43244 4.139038-5.43244 6.105652 0 1.989482 1.73473 4.276241 5.43244 6.128516 3.67489 1.852279 9.038852 3.109995 14.973448 3.109995 5.33264.185253 10.400781-.510469 14.768021-2.995655z" fill="url(#a)"/><path d="m-76.336919 50.030971-.02296-5.147399c2.470693-1.296913 2.606582-1.051082 5.504299-3.426721l-.000606 5.566325c-1.975598 1.388146-3.438974 2.209656-5.480824 3.007795z" fill="url(#b)"/></g><g transform="translate(2.871569 44.605302)"><path d="m-88.876707 26.83195c-6.063025 0-11.521773 1.215458-15.670363 3.302641-4.14821 2.076526-7.2223 5.04031-7.2223 9.195306 0 4.151979 3.07827 7.143894 7.23057 9.220627.00079.000606.00052.0015.002.0021 4.12856 2.074979 9.556919 3.280241 15.582509 3.291271 5.356805.179221 10.830981-.499524 15.732375-3.28352 1.374132-.780513 2.895573-1.809014 4.277253-3.173451 1.381684-1.364436 2.897417-3.126292 2.97863-5.941758l.0015-.05633v-.05891c0-4.158517-3.078557-7.124206-7.232115-9.200987-4.153562-2.07678-9.597611-3.296957-15.679664-3.296957z" fill="#86522c"/><path d="m-74.136061 43.792656c2.440057-1.388523 5.592224-3.864624 5.6607-6.242856 0-1.966614-1.734734-4.253374-5.432446-6.105652-3.697712-1.852275-9.038849-3.109994-14.996275-3.109994-5.934596 0-11.298558 1.257719-14.973448 3.109994-3.69771 1.852278-5.43244 4.139038-5.43244 6.105652 0 1.989482 1.73473 4.276241 5.43244 6.128516 3.67489 1.852279 9.038852 3.109995 14.973448 3.109995 5.33264.185253 10.400781-.510469 14.768021-2.995655z" fill="url(#a)"/><path d="m-76.336919 50.030971-.02296-5.147399c2.470693-1.296913 2.606582-1.051082 5.504299-3.426721l-.000606 5.566325c-1.975598 1.388146-3.438974 2.209656-5.480824 3.007795z" fill="url(#b)"/></g><g transform="translate(.592746 35.849824)"><path d="m-88.876707 26.83195c-6.063025 0-11.521773 1.215458-15.670363 3.302641-4.14821 2.076526-7.2223 5.04031-7.2223 9.195306 0 4.151979 3.07827 7.143894 7.23057 9.220627.00079.000606.00052.0015.002.0021 4.12856 2.074979 9.556919 3.280241 15.582509 3.291271 5.356805.179221 10.830981-.499524 15.732375-3.28352 1.374132-.780513 2.895573-1.809014 4.277253-3.173451 1.381684-1.364436 2.897417-3.126292 2.97863-5.941758l.0015-.05633v-.05891c0-4.158517-3.078557-7.124206-7.232115-9.200987-4.153562-2.07678-9.597611-3.296957-15.679664-3.296957z" fill="#86522c"/><path d="m-74.136061 43.792656c2.440057-1.388523 5.592224-3.864624 5.6607-6.242856 0-1.966614-1.734734-4.253374-5.432446-6.105652-3.697712-1.852275-9.038849-3.109994-14.996275-3.109994-5.934596 0-11.298558 1.257719-14.973448 3.109994-3.69771 1.852278-5.43244 4.139038-5.43244 6.105652 0 1.989482 1.73473 4.276241 5.43244 6.128516 3.67489 1.852279 9.038852 3.109995 14.973448 3.109995 5.33264.185253 10.400781-.510469 14.768021-2.995655z" fill="url(#a)"/><path d="m-76.336919 50.030971-.02296-5.147399c2.470693-1.296913 2.606582-1.051082 5.504299-3.426721l-.000606 5.566325c-1.975598 1.388146-3.438974 2.209656-5.480824 3.007795z" fill="url(#b)"/></g></g><g fill="#613583" stroke-width="1.23138" transform="matrix(.86645392 0 0 1 -5.879313 27.813974)"><path d="m-88.876713 26.831954c-6.063036 0-11.521797 1.215458-15.670387 3.30264-4.14822 2.076526-7.22232 5.040309-7.22232 9.195304 0 4.151977 3.07828 7.143892 7.23059 9.220624.00078.000607.00051.0015.002.0021 4.12857 2.074979 9.556942 3.28024 15.582542 3.29127 5.356815.179221 10.831001-.499523 15.732404-3.283518 1.374135-.780513 2.895578-1.809014 4.277261-3.17345 1.381687-1.364437 2.897422-3.126291 2.978635-5.941757l.0015-.05633v-.05891c0-4.158516-3.078562-7.124204-7.232128-9.200984-4.153569-2.07678-9.597628-3.296957-15.679693-3.296957z" fill="#86522c"/><path d="m-74.136041 43.792655c2.440062-1.388522 5.592234-3.864622 5.66071-6.242853 0-1.966614-1.734737-4.253373-5.432455-6.105651-3.697719-1.852275-9.038865-3.109993-14.996303-3.109993-5.934606 0-11.298581 1.257718-14.973471 3.109993-3.69772 1.852278-5.43245 4.139037-5.43245 6.105651 0 1.98948 1.73473 4.276239 5.43245 6.128514 3.67489 1.852278 9.038865 3.109993 14.973471 3.109993 5.33265.185253 10.400801-.510468 14.768048-2.995654z" fill="url(#c)"/><path d="m-76.336902 50.030969-.02296-5.147397c2.470698-1.296913 2.606587-1.051082 5.504309-3.426721l-.000606 5.566324c-1.975601 1.388146-3.43898 2.209655-5.480833 3.007794z" fill="url(#d)"/></g><g fill="#a51d2d" stroke-width="1.14622" transform="translate(5.989958 27.813974)"><path d="m-88.876707 26.83195c-6.063025 0-11.521773 1.215458-15.670363 3.302641-4.14821 2.076526-7.2223 5.04031-7.2223 9.195306 0 4.151979 3.07827 7.143894 7.23057 9.220627.00079.000606.00052.0015.002.0021 4.12856 2.074979 9.556919 3.280241 15.582509 3.291271 5.356805.179221 10.830981-.499524 15.732375-3.28352 1.374132-.780513 2.895573-1.809014 4.277253-3.173451 1.381684-1.364436 2.897417-3.126292 2.97863-5.941758l.0015-.05633v-.05891c0-4.158517-3.078557-7.124206-7.232115-9.200987-4.153562-2.07678-9.597611-3.296957-15.679664-3.296957z" fill="#86522c"/><path d="m-74.136061 43.792656c2.440057-1.388523 5.592224-3.864624 5.6607-6.242856 0-1.966614-1.734734-4.253374-5.432446-6.105652-3.697712-1.852275-9.038849-3.109994-14.996275-3.109994-5.934596 0-11.298558 1.257719-14.973448 3.109994-3.69771 1.852278-5.43244 4.139038-5.43244 6.105652 0 1.989482 1.73473 4.276241 5.43244 6.128516 3.67489 1.852279 9.038852 3.109995 14.973448 3.109995 5.33264.185253 10.400781-.510469 14.768021-2.995655z" fill="url(#a)"/><path d="m-76.336919 50.030971-.02296-5.147399c2.470693-1.296913 2.606582-1.051082 5.504299-3.426721l-.000606 5.566325c-1.975598 1.388146-3.438974 2.209656-5.480824 3.007795z" fill="url(#b)"/></g><g fill="#613583" stroke-width="1.23138" transform="matrix(.86645392 0 0 1 -7.253511 18.098992)"><path d="m-88.876713 26.831954c-6.063036 0-11.521797 1.215458-15.670387 3.30264-4.14822 2.076526-7.22232 5.040309-7.22232 9.195304 0 4.151977 3.07828 7.143892 7.23059 9.220624.00078.000607.00051.0015.002.0021 4.12857 2.074979 9.556942 3.28024 15.582542 3.29127 5.356815.179221 10.831001-.499523 15.732404-3.283518 1.374135-.780513 2.895578-1.809014 4.277261-3.17345 1.381687-1.364437 2.897422-3.126291 2.978635-5.941757l.0015-.05633v-.05891c0-4.158516-3.078562-7.124204-7.232128-9.200984-4.153569-2.07678-9.597628-3.296957-15.679693-3.296957z" fill="#86522c"/><path d="m-74.136041 43.792655c2.440062-1.388522 5.592234-3.864622 5.66071-6.242853 0-1.966614-1.734737-4.253373-5.432455-6.105651-3.697719-1.852275-9.038865-3.109993-14.996303-3.109993-5.934606 0-11.298581 1.257718-14.973471 3.109993-3.69772 1.852278-5.43245 4.139037-5.43245 6.105651 0 1.98948 1.73473 4.276239 5.43245 6.128514 3.67489 1.852278 9.038865 3.109993 14.973471 3.109993 5.33265.185253 10.400801-.510468 14.768048-2.995654z" fill="url(#c)"/><path d="m-76.336902 50.030969-.02296-5.147397c2.470698-1.296913 2.606587-1.051082 5.504309-3.426721l-.000606 5.566324c-1.975601 1.388146-3.43898 2.209655-5.480833 3.007794z" fill="url(#d)"/></g><g fill="#a51d2d" stroke-width="1.14622" transform="translate(2.991508 9.103639)"><path d="m-88.876707 26.83195c-6.063025 0-11.521773 1.215458-15.670363 3.302641-4.14821 2.076526-7.2223 5.04031-7.2223 9.195306 0 4.151979 3.07827 7.143894 7.23057 9.220627.00079.000606.00052.0015.002.0021 4.12856 2.074979 9.556919 3.280241 15.582509 3.291271 5.356805.179221 10.830981-.499524 15.732375-3.28352 1.374132-.780513 2.895573-1.809014 4.277253-3.173451 1.381684-1.364436 2.897417-3.126292 2.97863-5.941758l.0015-.05633v-.05891c0-4.158517-3.078557-7.124206-7.232115-9.200987-4.153562-2.07678-9.597611-3.296957-15.679664-3.296957z" fill="#86522c"/><path d="m-74.136061 43.792656c2.440057-1.388523 5.592224-3.864624 5.6607-6.242856 0-1.966614-1.734734-4.253374-5.432446-6.105652-3.697712-1.852275-9.038849-3.109994-14.996275-3.109994-5.934596 0-11.298558 1.257719-14.973448 3.109994-3.69771 1.852278-5.43244 4.139038-5.43244 6.105652 0 1.989482 1.73473 4.276241 5.43244 6.128516 3.67489 1.852279 9.038852 3.109995 14.973448 3.109995 5.33264.185253 10.400781-.510469 14.768021-2.995655z" fill="url(#a)"/><path d="m-76.336919 50.030971-.02296-5.147399c2.470693-1.296913 2.606582-1.051082 5.504299-3.426721l-.000606 5.566325c-1.975598 1.388146-3.438974 2.209656-5.480824 3.007795z" fill="url(#b)"/></g><g fill="#a51d2d" stroke-width="1.14622"><path d="m-88.876707 26.83195c-6.063025 0-11.521773 1.215458-15.670363 3.302641-4.14821 2.076526-7.2223 5.04031-7.2223 9.195306 0 4.151979 3.07827 7.143894 7.23057 9.220627.00079.000606.00052.0015.002.0021 4.12856 2.074979 9.556919 3.280241 15.582509 3.291271 5.356805.179221 10.830981-.499524 15.732375-3.28352 1.374132-.780513 2.895573-1.809014 4.277253-3.173451 1.381684-1.364436 2.897417-3.126292 2.97863-5.941758l.0015-.05633v-.05891c0-4.158517-3.078557-7.124206-7.232115-9.200987-4.153562-2.07678-9.597611-3.296957-15.679664-3.296957z" fill="#86522c"/><path d="m-74.136061 43.792656c2.440057-1.388523 5.592224-3.864624 5.6607-6.242856 0-1.966614-1.734734-4.253374-5.432446-6.105652-3.697712-1.852275-9.038849-3.109994-14.996275-3.109994-5.934596 0-11.298558 1.257719-14.973448 3.109994-3.69771 1.852278-5.43244 4.139038-5.43244 6.105652 0 1.989482 1.73473 4.276241 5.43244 6.128516 3.67489 1.852279 9.038852 3.109995 14.973448 3.109995 5.33264.185253 10.400781-.510469 14.768021-2.995655z" fill="url(#a)"/><path d="m-76.336919 50.030971-.02296-5.147399c2.470693-1.296913 2.606582-1.051082 5.504299-3.426721l-.000606 5.566325c-1.975598 1.388146-3.438974 2.209656-5.480824 3.007795z" fill="url(#b)"/></g></g><g fill="#613583" stroke-width="1.23138" transform="matrix(0 -.75592249 -.59923181 0 134.97924 -.155232)"><path d="m-88.876713 26.831954c-6.063036 0-11.521797 1.215458-15.670387 3.30264-4.14822 2.076526-7.22232 5.040309-7.22232 9.195304 0 4.151977 3.07828 7.143892 7.23059 9.220624.00078.000607.00051.0015.002.0021 4.12857 2.074979 9.556942 3.28024 15.582542 3.29127 5.356815.179221 10.831001-.499523 15.732404-3.283518 1.374135-.780513 2.895578-1.809014 4.277261-3.17345 1.381687-1.364437 2.897422-3.126291 2.978635-5.941757l.0015-.05633v-.05891c0-4.158516-3.078562-7.124204-7.232128-9.200984-4.153569-2.07678-9.597628-3.296957-15.679693-3.296957z" fill="#86522c"/><path d="m-74.136041 43.792655c2.440062-1.388522 5.592234-3.864622 5.66071-6.242853 0-1.966614-1.734737-4.253373-5.432455-6.105651-3.697719-1.852275-9.038865-3.109993-14.996303-3.109993-5.934606 0-11.298581 1.257718-14.973471 3.109993-3.69772 1.852278-5.43245 4.139037-5.43245 6.105651 0 1.98948 1.73473 4.276239 5.43245 6.128514 3.67489 1.852278 9.038865 3.109993 14.973471 3.109993 5.33265.185253 10.400801-.510468 14.768048-2.995654z" fill="url(#c)"/><path d="m-76.336902 50.030969-.02296-5.147397c2.470698-1.296913 2.606587-1.051082 5.504309-3.426721l-.000606 5.566324c-1.975601 1.388146-3.43898 2.209655-5.480833 3.007794z" fill="url(#d)"/></g><g fill="#a51d2d" stroke-width="1.14622" transform="matrix(.81760576 0 0 .81816733 121.99349 55.715682)"><path d="m-88.876707 26.83195c-6.063025 0-11.521773 1.215458-15.670363 3.302641-4.14821 2.076526-7.2223 5.04031-7.2223 9.195306 0 4.151979 3.07827 7.143894 7.23057 9.220627.00079.000606.00052.0015.002.0021 4.12856 2.074979 9.556919 3.280241 15.582509 3.291271 5.356805.179221 10.830981-.499524 15.732375-3.28352 1.374132-.780513 2.895573-1.809014 4.277253-3.173451 1.381684-1.364436 2.897417-3.126292 2.97863-5.941758l.0015-.05633v-.05891c0-4.158517-3.078557-7.124206-7.232115-9.200987-4.153562-2.07678-9.597611-3.296957-15.679664-3.296957z" fill="#86522c"/><path d="m-74.136061 43.792656c2.440057-1.388523 5.592224-3.864624 5.6607-6.242856 0-1.966614-1.734734-4.253374-5.432446-6.105652-3.697712-1.852275-9.038849-3.109994-14.996275-3.109994-5.934596 0-11.298558 1.257719-14.973448 3.109994-3.69771 1.852278-5.43244 4.139038-5.43244 6.105652 0 1.989482 1.73473 4.276241 5.43244 6.128516 3.67489 1.852279 9.038852 3.109995 14.973448 3.109995 5.33264.185253 10.400781-.510469 14.768021-2.995655z" fill="url(#a)"/><path d="m-76.336919 50.030971-.02296-5.147399c2.470693-1.296913 2.606582-1.051082 5.504299-3.426721l-.000606 5.566325c-1.975598 1.388146-3.438974 2.209656-5.480824 3.007795z" fill="url(#b)"/></g><g fill="#a51d2d" stroke-width="1.14622" transform="matrix(.76277909 0 0 .84317918 109.95612 63.489873)"><path d="m-88.876707 26.83195c-6.063025 0-11.521773 1.215458-15.670363 3.302641-4.14821 2.076526-7.2223 5.04031-7.2223 9.195306 0 4.151979 3.07827 7.143894 7.23057 9.220627.00079.000606.00052.0015.002.0021 4.12856 2.074979 9.556919 3.280241 15.582509 3.291271 5.356805.179221 10.830981-.499524 15.732375-3.28352 1.374132-.780513 2.895573-1.809014 4.277253-3.173451 1.381684-1.364436 2.897417-3.126292 2.97863-5.941758l.0015-.05633v-.05891c0-4.158517-3.078557-7.124206-7.232115-9.200987-4.153562-2.07678-9.597611-3.296957-15.679664-3.296957z" fill="#86522c"/><path d="m-74.136061 43.792656c2.440057-1.388523 5.592224-3.864624 5.6607-6.242856 0-1.966614-1.734734-4.253374-5.432446-6.105652-3.697712-1.852275-9.038849-3.109994-14.996275-3.109994-5.934596 0-11.298558 1.257719-14.973448 3.109994-3.69771 1.852278-5.43244 4.139038-5.43244 6.105652 0 1.989482 1.73473 4.276241 5.43244 6.128516 3.67489 1.852279 9.038852 3.109995 14.973448 3.109995 5.33264.185253 10.400781-.510469 14.768021-2.995655z" fill="url(#a)"/><path d="m-76.336919 50.030971-.02296-5.147399c2.470693-1.296913 2.606582-1.051082 5.504299-3.426721l-.000606 5.566325c-1.975598 1.388146-3.438974 2.209656-5.480824 3.007795z" fill="url(#b)"/></g><g fill="#613583" stroke-width="1.23138" transform="matrix(.58161408 0 0 .73694804 130.49143 76.184859)"><path d="m-88.876713 26.831954c-6.063036 0-11.521797 1.215458-15.670387 3.30264-4.14822 2.076526-7.22232 5.040309-7.22232 9.195304 0 4.151977 3.07828 7.143892 7.23059 9.220624.00078.000607.00051.0015.002.0021 4.12857 2.074979 9.556942 3.28024 15.582542 3.29127 5.356815.179221 10.831001-.499523 15.732404-3.283518 1.374135-.780513 2.895578-1.809014 4.277261-3.17345 1.381687-1.364437 2.897422-3.126291 2.978635-5.941757l.0015-.05633v-.05891c0-4.158516-3.078562-7.124204-7.232128-9.200984-4.153569-2.07678-9.597628-3.296957-15.679693-3.296957z" fill="#86522c"/><path d="m-74.136041 43.792655c2.440062-1.388522 5.592234-3.864622 5.66071-6.242853 0-1.966614-1.734737-4.253373-5.432455-6.105651-3.697719-1.852275-9.038865-3.109993-14.996303-3.109993-5.934606 0-11.298581 1.257718-14.973471 3.109993-3.69772 1.852278-5.43245 4.139037-5.43245 6.105651 0 1.98948 1.73473 4.276239 5.43245 6.128514 3.67489 1.852278 9.038865 3.109993 14.973471 3.109993 5.33265.185253 10.400801-.510468 14.768048-2.995654z" fill="url(#c)"/><path d="m-76.336902 50.030969-.02296-5.147397c2.470698-1.296913 2.606587-1.051082 5.504309-3.426721l-.000606 5.566324c-1.975601 1.388146-3.43898 2.209655-5.480833 3.007794z" fill="url(#d)"/></g><g fill="#a51d2d" stroke-width="1.21184" transform="matrix(.7848496 -.2437957 0 .86760303 99.526613 33.30435)"><path d="m-88.876707 26.83195c-6.063025 0-11.521773 1.215458-15.670363 3.302641-4.14821 2.076526-7.2223 5.04031-7.2223 9.195306 0 4.151979 3.07827 7.143894 7.23057 9.220627.00079.000606.00052.0015.002.0021 4.12856 2.074979 9.556919 3.280241 15.582509 3.291271 5.356805.179221 10.830981-.499524 15.732375-3.28352 1.374132-.780513 2.895573-1.809014 4.277253-3.173451 1.381684-1.364436 2.897417-3.126292 2.97863-5.941758l.0015-.05633v-.05891c0-4.158517-3.078557-7.124206-7.232115-9.200987-4.153562-2.07678-9.597611-3.296957-15.679664-3.296957z" fill="#86522c"/><path d="m-74.136061 43.792656c2.440057-1.388523 5.592224-3.864624 5.6607-6.242856 0-1.966614-1.734734-4.253374-5.432446-6.105652-3.697712-1.852275-9.038849-3.109994-14.996275-3.109994-5.934596 0-11.298558 1.257719-14.973448 3.109994-3.69771 1.852278-5.43244 4.139038-5.43244 6.105652 0 1.989482 1.73473 4.276241 5.43244 6.128516 3.67489 1.852279 9.038852 3.109995 14.973448 3.109995 5.33264.185253 10.400781-.510469 14.768021-2.995655z" fill="url(#a)"/><path d="m-76.336919 50.030971-.02296-5.147399c2.470693-1.296913 2.606582-1.051082 5.504299-3.426721l-.000606 5.566325c-1.975598 1.388146-3.438974 2.209656-5.480824 3.007795z" fill="url(#b)"/></g></svg>