<svg height="500" viewBox="0 0 132.29167 132.29167" width="500" xmlns="http://www.w3.org/2000/svg" xmlns:xlink="http://www.w3.org/1999/xlink"><linearGradient id="a"><stop offset="0" stop-color="#d38d5f"/><stop offset=".19470549" stop-color="#e6bfa5"/><stop offset=".5" stop-color="#f2ddcf"/><stop offset=".75126839" stop-color="#e0b191"/><stop offset="1" stop-color="#c87137"/></linearGradient><linearGradient id="b" gradientUnits="userSpaceOnUse" x1="-64.396088" x2="-65.308708" xlink:href="#a" y1="14.977713" y2="36.690048"/><linearGradient id="c" gradientUnits="userSpaceOnUse" x1="-58.107906" x2="-59.073204" xlink:href="#a" y1="1.61722" y2="14.977713"/><linearGradient id="d" gradientUnits="userSpaceOnUse" x1="-53.731628" x2="-54.642712" xlink:href="#a" y1="-9.762998" y2="1.61722"/><linearGradient id="e" gradientUnits="userSpaceOnUse" x1="-49.154961" x2="-49.709511" xlink:href="#a" y1="-19.379692" y2="-9.558259"/><linearGradient id="f" gradientUnits="userSpaceOnUse" x1="-41.934963" x2="-43.420258" xlink:href="#a" y1="-32.612579" y2="-18.602507"/><filter id="g" color-interpolation-filters="sRGB" height="1.079319" width="1.03957" x="-.019785" y="-.03966"><feGaussianBlur stdDeviation=".21668702"/></filter><filter id="h" color-interpolation-filters="sRGB" height="1.065847" width="1.035837" x="-.017919" y="-.032923"><feGaussianBlur stdDeviation=".14335479"/></filter><filter id="i" color-interpolation-filters="sRGB" height="1.049115" width="1.05604" x="-.02802" y="-.024557"><feGaussianBlur stdDeviation=".14335479"/></filter><filter id="j" color-interpolation-filters="sRGB" height="1.043179" width="1.020697" x="-.010348" y="-.021589"><feGaussianBlur stdDeviation=".14335479"/></filter><filter id="k" color-interpolation-filters="sRGB" height="1.031692" width="1.014481" x="-.00724" y="-.015846"><feGaussianBlur stdDeviation=".14335479"/></filter><filter id="l" color-interpolation-filters="sRGB" height="1.007095" width="1.010962" x="-.005481" y="-.003548"><feGaussianBlur stdDeviation=".54181336"/></filter><linearGradient id="m" gradientUnits="userSpaceOnUse" x1="-277.08594" x2="-277.08594" y1="138.67188" y2="509.98978"><stop offset="0" stop-color="#d38d5f"/><stop offset=".07277776" stop-color="#e6bfa5"/><stop offset=".14924899" stop-color="#f2ddcf"/><stop offset=".28118888" stop-color="#e0b191"/><stop offset=".61861503" stop-color="#d6966c"/><stop offset=".79532349" stop-color="#d49164"/><stop offset="1" stop-color="#c87137"/></linearGradient><filter id="n" color-interpolation-filters="sRGB" height="1.049593" width="1.131342" x="-.065671" y="-.024797"><feGaussianBlur stdDeviation="6.5186317"/></filter><radialGradient id="o" cx="-175.24915" cy="324.86658" gradientTransform="matrix(-6.596352 -1.5863345 1.1703696 -4.866658 -1714.7464 1521.1864)" gradientUnits="userSpaceOnUse" r="58.883323"><stop offset="0"/><stop offset=".15024394" stop-opacity=".517647"/><stop offset=".26433951" stop-opacity=".258824"/><stop offset=".67345834" stop-opacity="0"/><stop offset="1" stop-opacity="0"/></radialGradient><g stroke-width="1.04975" transform="matrix(.74803491 .58983636 -.58983636 .74803491 139.08275 55.169642)"><path d="m-58.117491 126.10074c4.923616-15.2745 15.188881-24.35816 23.369643-33.320718 4.090385-4.48128 7.800048-8.992272 9.335858-14.740457 1.130087-4.229656.739255-8.901653-1.267017-13.724027 1.046932-.611581 2.018716-1.312168 2.805278-2.207251 2.11026-2.401434 2.881535-5.068233 3.690152-7.878713 1.359231-4.723169 1.118585-9.344456-.66512-13.176364-1.065119-2.288176-2.647036-4.189524-4.488862-5.810834.317164-.707782.604571-1.432022.822425-2.18927l.000095-.000723c1.695852-5.893819-.418264-11.746158-4.497734-16.126867.459328-.841959.866346-1.718355 1.139788-2.667675l.000094-.000724.000095-.000725c1.131774-3.934145.06132-7.8803467-2.186475-11.0503226.502519-.8414207.94395-1.7287825 1.227218-2.7133367 1.067461-3.7101274-.125253-7.3790318-2.398604-10.2135471.07898-.2008566.173693-.3914056.24144-.5992836 1.077849-3.307879.206772-6.773432-1.709141-9.422967.156642-.971467.205107-1.927408.124487-2.774585-.203345-2.136857-.855234-3.990177-1.577193-5.683489-1.443919-3.386624-3.556004-6.609152-3.630798-6.742422l-2.839433-5.059167-4.409207 3.771141c-1.250382 1.069432-3.534774 3.300066-5.774953 6.411043-1.120089 1.55549-2.18919 3.263416-2.89156 5.308941-.258837.753813-.434313 1.630079-.530573 2.543725-2.054461 1.480953-3.738833 3.491174-4.586977 6.09466-.412966 1.267159-.510409 2.587551-.41949 3.88095-2.151068 1.643448-3.88186 3.8117892-4.68061 6.5869081l-.000095.0007235-.000411.0003158c-.479658 1.6676261-.49504 3.3862902-.173558 5.01878265-.15872.11802502-.312257.23530495-.45919.35146395l-.0017.0012616-.0017.0012596c-2.40364 1.9033623-4.375289 4.433612-5.265192 7.5267017-.472777 1.6427334-.56615 3.3339751-.357217 4.9663321-4.923233 2.74831-8.848521 6.75746-10.373622 12.057878-.994536 3.456946-.680078 6.994898.567654 10.174783-4.399317 2.550117-8.072327 5.881366-10.200935 10.304551-2.867239 5.95805-2.0008 13.540438 2.893701 20.576357 5.932077 8.527345 5.642148 18.00108 6.018678 29.991417.376626 11.990253 1.710776 26.192863 12.470555 40.912383l9.676848 13.2383-1.079664-16.3625z" fill="#854f2e"/><path d="m-158.35547-124.03516-.46484.39844c-2.77222 2.37103-11.74326 11.07868-19 21.15625-3.62837 5.038784-6.8233 10.412837-8.57813 15.523439-1.68343 4.902684-2.03795 9.601718-.0723 13.470703-9.22336 3.928059-16.47748 10.61929-19.17969 18.914062-1.07179 3.287392-.51191 7.706461.27344 11.345704.69444 3.218067 1.48704 5.500394 1.68554 6.060546-10.54484 4.864171-18.41787 12.410193-21.05664 21.578125-1.15966 4.031789.0565 9.46432 1.50586 13.9375004 1.30273 4.0207679 2.66962 6.9021506 2.96485 7.5175781-4.17833 1.911531-8.12264 4.2208715-13.77149 8.5898435-5.91046 4.571312-10.84805 11.212906-13.00586 18.712891-1.2217 4.243982-.3898 10.103578.70703 14.947266.99795 4.406999 2.12217 7.601723 2.33789 8.207031-21.86605 8.560525-38.40998 23.142396-43.60156 41.185547-2.16927 7.540224.40293 17.843614 3.45508 26.308594 2.73975 7.59856 5.76218 13.43918 6.38086 14.61133-21.85257 9.36583-39.27171 22.56042-47.29492 39.23242-8.08433 16.79897-6.53579 37.08612 9.5332 60.18555 26.01443 37.39573 24.47324 78.22139 25.87305 122.79687 1.39981 44.57546 5.76788 92.8714 43.76758 144.85547l1.01953 1.38672-.11133-1.71875c-2.7847-42.19616-.25427-97.71439 7.07812-148.6875 7.33228-50.97217 19.49969-97.42415 35.81836-121.37109 7.0191-10.30071 14.72609-16.40969 23.08399-17.0879 8.35789-.6782 17.53588 4.04701 27.56054 15.81446l.002.002.0137.0176c3.86519 4.53914 7.83873 10.11968 11.92383 16.82812 9.65876 15.86163 10.81963 28.38628 6.58398 40.64453-4.23565 12.25826-13.94805 24.27119-26.13867 38.83008-24.3672 29.10101-58.55278 68.3878-78.16797 140.66797-.011.034-.0262.064-.0371.0977h.008c-.002.008-.006.0139-.008.0215l.95313.28907c.002-.008.005-.0159.008-.0234 20.17099-62.5536 62.21208-99.65158 92.05078-132.3418 14.92117-16.34711 26.80911-31.60035 31.30664-48.43359 4.45917-16.68965 1.57592-34.90092-12.70312-57.02735 10.96371-3.22246 17.97982-7.6289 22.78711-13.15234 4.901175-5.63133 7.499299-12.38452 9.763668-20.13086v-.002c4.245931-14.75413-1.187145-28.6852-9.048828-39.66407-7.64117-10.6709-17.53136-18.55053-23.32422-21.90625 2.25375-2.58024 5.63024-5.47581 8.73828-8.5039 3.28301-3.19856 6.27653-6.53305 7.26367-9.96485 5.83819-20.286576-4.11275-40.118061-23.9375-53.796871 5.43163-4.957418 9.3865-10.783315 11.24805-17.246093 3.90569-13.576562-2.2622-26.872478-14.85937-36.388672 5.49858-4.3157741 9.5077-9.623809 11.23632-15.6328128 3.38326-11.7590632-2.75667-23.2356592-14.63476-30.8554692 3.0505-3.090719 5.3721-6.659348 6.6543-10.59375 3.25486-9.98907-.99254-19.740605-9.90821-25.96875 2.83896-3.460503 3.61385-8.057427 3.13867-13.050781-.49455-5.197001-2.32401-10.857622-4.63476-16.277343-4.6215-10.839438-11.20049-20.769388-12.88867-23.777348z" fill="#c87137" filter="url(#n)" transform="scale(.26458334)"/><path d="m-53.731628-9.7629972c-2.81935 1.2737592-4.913407 3.2675198-5.606326 5.6749393-.581689 2.0223558 1.230046 5.705278 1.230046 5.705278l21.641763 1.7325672c1.507765-1.1469704 2.595554-2.56787378 3.057592-4.17400323.889995-3.09332327-.750577-6.11132587-3.950714-8.10537667z" fill="url(#d)" filter="url(#g)"/><path d="m-49.154961-19.379692c-2.476404 1.019637-4.418894 2.794195-5.131452 4.981483-.536107 1.644348.554785 4.6352118.554785 4.6352118l16.372361.8334046c.851818-.8312304 1.493973-1.7990034 1.841798-2.8663004.857346-2.631164-.283569-5.188563-2.68804-6.806613z" fill="url(#e)" filter="url(#h)"/><path d="m-38.205509-18.602506c3.187301-3.565651-2.814873-12.380501-3.729455-14.010075-1.437427 1.229407-9.504357 9.225742-7.219997 13.232889z" fill="url(#f)" filter="url(#i)"/><path d="m-35.506728 17.553425c1.486577-1.322213 2.558567-2.883115 3.057157-4.614082 1.030809-3.5831949-.621799-7.088083-4.016574-9.5895557l-21.641763-1.7325672c-1.143171.5132174-2.193834 1.1181868-3.736728 2.3115018-1.542894 1.1933149-2.832887 2.9303717-3.394692 4.8830653-.619051 2.1504848.843237 6.1659258.843237 6.1659258z" fill="url(#c)" filter="url(#j)"/><path d="m-33.401673 36.69005c1.211205-1.45265 3.814499-3.233375 4.309501-4.954246 1.54054-5.353081-1.110833-10.582355-6.414556-14.182379l-28.889363-2.575712c-5.817966 2.248159-10.206779 6.105598-11.574281 10.858307-1.114294 3.873209 2.658138 10.85403 2.658138 10.85403z" fill="url(#b)" filter="url(#k)"/><path d="m-277.08594 138.67188c-44.03701 18.69855-70.04015 52.89136-38.04101 98.89062 52.23423 75.08669-6.21026 163.88103 69.63672 267.64062-5.57585-84.48952 10.13837-222.17702 42.98437-270.375 14.12634-20.73076 31.27822-24.98037 51.4375-1.3164l24.64063-.39258c22.54625-6.44008 28.330883-17.68972 32.845699-33.13476 8.382939-29.12976-21.426209-55.05516-32.660159-61.3125zm150.65821 94.44726-24.64063.39453c3.8911 4.56731 7.88924 10.1756 11.99024 16.91016 38.84302 63.78805-58.54249 76.12949-97.70899 220.65429 40.42533-125.41129 168.555186-148.73352 110.35938-237.95898z" fill="url(#m)" filter="url(#l)" transform="matrix(.26458334 0 0 .26458334 -.127114 -.040793)"/><path d="m-245.49023 505.20312c-5.57585-84.48952 10.13837-222.17702 42.98437-270.375 14.12634-20.73076 31.27822-24.98037 51.4375-1.31543 3.8911 4.56829 7.88924 10.17658 11.99024 16.91114 38.84302 63.78805-58.54249 76.12949-97.70899 220.65429z" fill="url(#o)" opacity=".5" transform="matrix(.26458334 0 0 .26458334 -.127114 -.040793)"/></g></svg>