<svg height="500" viewBox="0 0 132.29167 132.29167" width="500" xmlns="http://www.w3.org/2000/svg" xmlns:xlink="http://www.w3.org/1999/xlink"><linearGradient id="a" gradientTransform="matrix(.94080015 0 0 .9425403 149.72976 45.040156)" gradientUnits="userSpaceOnUse" spreadMethod="pad" x1="-65.964897" x2="-108.65797" y1="31.088467" y2="44.930946"><stop offset="0" stop-color="#a06122"/><stop offset=".511236" stop-color="#efbd76"/><stop offset="1" stop-color="#b57720"/></linearGradient><linearGradient id="b" gradientUnits="userSpaceOnUse" spreadMethod="pad" x1="81.85923241497" x2="77.15361460959" y1="90.37589597863" y2="90.34878252388"><stop offset="0" stop-color="#a06122" stop-opacity="0"/><stop offset=".25561801" stop-color="#c78f4c"/><stop offset=".511236" stop-color="#efbd76"/><stop offset=".75561798" stop-color="#d29a4b"/><stop offset="1" stop-color="#b57720" stop-opacity="0"/></linearGradient><path d="m66.137465 72.760418c-5.28958 0-10.051967 1.060406-13.671331 2.88133-3.619034 1.81163-6.300968 4.39733-6.300968 8.022283 0 3.622321 2.685581 6.232566 6.308182 8.044373.000692.000462.000461.0014.0014.0018 3.601888 1.810279 8.337768 2.861788 13.594687 2.871411 4.67345.156358 9.449302-.435799 13.725433-2.864648 1.19884-.680945 2.526193-1.578243 3.731618-2.76862 1.205425-1.19038 2.527799-2.727479 2.598652-5.183783l.0014-.04914v-.05139c0-3.628025-2.685832-6.21539-6.309532-8.027241-3.623699-1.811851-8.373268-2.876372-13.679447-2.876372z" fill="#86522c"/><path d="m78.99768 87.557486c2.128787-1.211391 4.878838-3.371622 4.938579-5.446469 0-1.715737-1.513437-3.710781-4.739441-5.326768-3.226004-1.615986-7.885786-2.713259-13.083237-2.713259-5.177534 0-9.857228 1.097273-13.063321 2.713259-3.226002 1.615987-4.739437 3.611031-4.739437 5.326768 0 1.735688 1.513435 3.730731 4.739437 5.346717 3.206093 1.615987 7.885787 2.71326 13.063321 2.71326 4.652368.161621 9.073977-.44535 12.884099-2.613508z" fill="url(#a)"/><path d="m77.077582 92.999995-.02003-4.490757c2.155512-1.131469 2.274066-.916997 4.802128-2.989582l-.000447 4.856242c-1.723574 1.211062-3.000271 1.927775-4.781647 2.624097z" fill="url(#b)"/></svg>