<svg height="500" viewBox="0 0 132.29167 132.29167" width="500" xmlns="http://www.w3.org/2000/svg" xmlns:xlink="http://www.w3.org/1999/xlink"><filter id="a" color-interpolation-filters="sRGB" height="1.105806" width="1.083377" x="-.041688" y="-.052903"><feGaussianBlur stdDeviation=".66782007"/></filter><filter id="b" color-interpolation-filters="sRGB" height="1.124502" width="1.124502" x="-.062251" y="-.062251"><feGaussianBlur stdDeviation="2.0513209"/></filter><radialGradient id="c" cx="86.055344" cy="45.671474" gradientTransform="matrix(1.3920409 -1.2344845 -1.6193442 -.90033192 -5.63355 198.80507)" gradientUnits="userSpaceOnUse" r="40.308271"><stop offset="0" stop-color="#8f3e24" stop-opacity="0"/><stop offset=".12393165" stop-color="#8f3e24" stop-opacity="0"/><stop offset=".41729519" stop-color="#8f3e24" stop-opacity=".1"/><stop offset=".66706532" stop-color="#8f3e24" stop-opacity=".5"/><stop offset=".91683543" stop-color="#8f3e24" stop-opacity=".75"/><stop offset="1" stop-color="#8f3e24"/></radialGradient><linearGradient id="d" gradientUnits="userSpaceOnUse" x1="89.906609" x2="26.674879" y1="-1.117067" y2="60.080967"><stop offset="0" stop-color="#d2642d"/><stop offset="1" stop-color="#d94326"/></linearGradient><filter id="e" color-interpolation-filters="sRGB" height="1.156111" width="1.111671" x="-.055835" y="-.078056"><feGaussianBlur stdDeviation="2.2634347"/></filter><filter id="f" color-interpolation-filters="sRGB" height="1.136717" width="1.100977" x="-.050488" y="-.068359"><feGaussianBlur stdDeviation="2.3457468"/></filter><g><path d="m74.578489 27.698502c-3.48566-.07385-6.989066.09481-10.462798.494451-13.894688 1.598507-27.421047 6.915267-37.425288 15.883174-10.005113 8.968548-14.693587 20.26794-13.453096 31.094067 1.240491 10.826126 8.363804 20.768429 20.137421 27.231716 23.545902 12.92645 57.541156 9.09358 77.565902-8.856766 10.01226-8.97495 14.6729-20.296787 13.40329-31.133104-1.26962-10.836315-8.41183-20.78361-20.18506-27.246886-8.829362-4.846974-19.123389-7.245107-29.580371-7.466652z" filter="url(#f)" opacity=".5"/><g><g fill="#8f3e24" stroke-width=".901312" transform="matrix(1.1086408 0 0 1.1103475 -9.820944 -7.262349)"><path d="m73.742187 29.103516c-3.144084-.06651-6.304175.08539-9.4375.445312-12.533084 1.439646-24.733933 6.228021-33.757812 14.304688-9.024666 8.077244-13.253695 18.253691-12.134766 28.003906 1.11893 9.750214 7.544197 18.704441 18.164063 24.52539 21.238531 11.641808 51.902434 8.189848 69.964848-7.976562 9.03111-8.08301 13.23504-18.279671 12.08984-28.039063-1.1452-9.759391-7.58751-18.718113-18.20703-24.539062-7.96412-4.365277-17.249388-6.525081-26.681643-6.724609z"/><path d="m98.589227 39.174541c19.529383 10.704773 22.008963 31.529998 5.407543 46.388573-16.601625 14.858966-46.058103 18.178506-65.586961 7.473847-19.529346-10.704404-21.914156-31.485476-5.317903-46.339433 8.298069-7.427043 19.798115-11.99675 31.647381-13.357847 11.849354-1.361109 24.085345.482709 33.84994 5.83486z"/></g><path d="m97.604159 37.916498c20.457791 11.230942 23.046851 33.029926 5.661871 48.613748-17.385231 15.584264-48.171085 19.060674-68.628294 7.829873-20.457733-11.230532-22.949385-32.975846-5.564157-48.559902 8.692616-7.792136 20.710579-12.57093 33.113053-13.997769 12.402473-1.426838 25.18864.498787 35.417527 6.114052z" fill="#d94326" filter="url(#e)"/><circle cx="66.145836" cy="39.542774" fill="url(#d)" filter="url(#b)" r="39.542774" transform="matrix(-1.0911562 .12552257 .08859391 .77318278 134.81754 27.275014)"/><path d="m61.951671 29.756283c13.136677-1.511305 26.701996.535974 37.527428 6.478721 21.651071 11.886018 24.400031 35.009255 5.995021 51.507437-18.405241 16.498619-51.061894 20.184459-72.712383 8.298569-21.651029-11.88561-24.2949266-34.959822-5.895644-51.452876 9.199578-8.246598 21.948998-13.320561 35.085578-14.831855z" fill="url(#c)" opacity=".75"/><path d="m93.570457 7.5826051c5.42721 5.0417369 11.021923 22.7138409 11.021923 22.7138409s-5.341319-8.729969-8.508454-12.320761c-3.631026-4.116735-7.624184-7.700885-11.870987-10.3930799-5.732329-3.6339208-18.067103-7.5826051-18.067103-7.5826051s19.639678.35059713 27.424621 7.5826051z" fill="#fff" filter="url(#a)" opacity=".5" stroke-width=".229825" transform="matrix(-1.0911562 .12552257 .08859391 .77318278 134.6778 36.127432)"/><path d="m70.624632 25.036198c-3.053183-.01172-6.115485.161397-9.154998.511081-13.894674 1.598505-27.420876 6.91537-37.425106 15.883268-10.005103 8.968539-14.6934148 20.267595-13.452926 31.09371 1.24049 10.826115 8.363668 20.768661 20.137272 27.23193 23.545879 12.926443 57.541102 9.093493 77.565816-8.856823 10.01225-8.974941 14.67293-20.296679 13.40331-31.132985-1.26961-10.836304-8.41159-20.783647-20.18481-27.246916-8.829344-4.84697-19.123656-7.245183-29.580627-7.466728-.435708-.0092-.871762-.01486-1.307931-.01653zm-.02377 4.242636c10.291075.0482 20.420984 2.313398 28.878343 6.956165 21.651055 11.886005 24.399965 35.009286 5.994985 51.507451-18.405226 16.49859-51.061897 20.18459-72.712365 8.298719-21.651007-11.885596-24.2950291-34.960154-5.895764-51.453191 9.199568-8.246591 21.949148-13.320365 35.085715-14.831654 2.873645-.330598 5.767584-.490987 8.649084-.47749z" fill="#8f3e24"/></g></g></svg>