<svg height="500" viewBox="0 0 500 500" width="500" xmlns="http://www.w3.org/2000/svg" xmlns:xlink="http://www.w3.org/1999/xlink"><filter id="a" color-interpolation-filters="sRGB" height="1.105966" width="1.128524" x="-.064262" y="-.052983"><feGaussianBlur stdDeviation="7.3172764"/></filter><filter id="b" color-interpolation-filters="sRGB" height="1.045674" width="1.066039" x="-.03302" y="-.022837"><feGaussianBlur stdDeviation="1.6130908"/></filter><path d="m396.6395 372.41284v-224.71679l-53.1856-53.36914-166.4332-.0542-53.6602 53.36914v224.71679l53.6602 53.31446 166.4332.0542z" filter="url(#a)" opacity=".5" transform="matrix(.99472209 .10260589 -.10260589 .99472209 28.049787 -25.305273)"/><g opacity=".9" transform="matrix(.99472209 .10260589 -.10260589 .99472209 -906.123581 -624.268207)"><path d="m1377.3395 862.36281v-224.71679l-53.1856-53.36914-166.4332-.0542-53.6602 53.36914v224.71679l53.6602 53.31446 166.4332.0542z" fill="#2c8636"/><path d="m1104.0605 637.5918v224.71679h69.3692v-224.71679z" fill="#2c8636"/><path d="m1307.9684 637.64602v224.71679h69.3711v-224.71679h-16z" fill="#2c8636"/><path d="m1157.7207 846.25391v69.36914l166.4332.0542v-69.36914h-16z" fill="#2c8636"/><path d="m1157.7207 584.22266v69.36914l166.4332.0542v-69.36914z" fill="#2c8636"/><g stroke-width="32"><path d="m1361.3391 653.6463h-37.3698v192.71605h37.3698z" fill="#40bf4b"/><path d="m1308.1544 862.30813-134.4332-.0542v37.37007l134.4332.0542z" fill="#40bf4b"/><path d="m1308.1544 600.27593-134.4332-.0542v37.37009l134.4332.0542z" fill="#40bf4b"/><path d="m1323.9693 894.04834 31.6396-31.74021h-31.6396z" fill="#72e37d"/><path d="m1355.6095 637.64602-31.6402-31.63173v31.63173z" fill="#72e37d"/><path d="m1125.791 862.25391 31.6396 31.64056v-31.64056z" fill="#40bf4b"/><path d="m1157.4306 605.98533-31.6396 31.60647h31.6396z" fill="#40bf4b"/><path d="m1157.4306 846.30813h-37.3698v-192.71605h37.3698z" fill="#40bf4b"/></g><path d="m1323.9693 637.64602-166.5387-.0542.2901 224.66211 166.2486.0542z" fill="#2c8636"/><path d="m1308.1539 653.59208v192.71605h-134.4327v-192.71605z" fill="#40bf4b" stroke-width="32"/><path d="m1298.5 664.38814h-117.2462v169.52549c5.7946-145.44305 19.4118-151.25592 117.2462-169.52549z" fill="#72e37d" filter="url(#b)"/></g><path d="m185.54281 75.660758-58.85297 47.581612-23.05727 223.53076 47.90661 58.53892 165.54778 17.12928 58.37527-47.57592 23.05726-223.53071-47.4289-58.544619zm14.27406 17.555308 133.71846 13.848094-3.83429 37.1719-133.71867-13.8461zm-16.7964 4.061697-3.24311 31.440597-31.47171-3.24631zm165.65701 17.117027 28.22819 34.71044-31.4737-3.24652zm-207.71378 26.40483 37.17197 3.8343-19.77368 191.69771-37.17197-3.8343zm53.37698 5.50585 133.72209 13.79347-19.77368 191.69772-133.72208-13.79347zm149.4494 15.47074 37.17196 3.8343-19.77367 191.69771-37.17197-3.8343zm-218.53609 187.17221 31.47171 3.24632-3.24651 31.47363zm47.67673 4.91787 133.71867 13.8461-3.8345 37.17385-133.71846-13.84809zm149.4496 15.46875 31.47171 3.24632-34.72845 28.32639z" fill="#2c8636"/></svg>