<svg height="500" viewBox="0 0 132.29167 132.29167" width="500" xmlns="http://www.w3.org/2000/svg" xmlns:xlink="http://www.w3.org/1999/xlink"><filter id="a" color-interpolation-filters="sRGB" height="1.105806" width="1.083377" x="-.041688" y="-.052903"><feGaussianBlur stdDeviation=".66782007"/></filter><filter id="b" color-interpolation-filters="sRGB" height="1.1248" width="1.1248" x="-.0624" y="-.0624"><feGaussianBlur stdDeviation="2.0562243"/></filter><radialGradient id="c" cx="86.055344" cy="45.671474" gradientTransform="matrix(1.3920409 -1.2344845 -1.6193442 -.90033192 -5.63355 198.80507)" gradientUnits="userSpaceOnUse" r="40.308271"><stop offset="0" stop-color="#8b421b" stop-opacity="0"/><stop offset=".12393165" stop-color="#8b421b" stop-opacity="0"/><stop offset=".41729519" stop-color="#8b421b" stop-opacity=".1"/><stop offset=".66706532" stop-color="#8b421b" stop-opacity=".5"/><stop offset=".91683543" stop-color="#8b421b" stop-opacity=".75"/><stop offset="1" stop-color="#8b421b"/></radialGradient><linearGradient id="d"><stop offset="0" stop-color="#ffb299"/><stop offset=".0932363" stop-color="#ffb866"/><stop offset=".2234161" stop-color="#fed062"/><stop offset=".39124575" stop-color="#c1f14b"/><stop offset=".52858514" stop-color="#bee9c3"/><stop offset=".6972549" stop-color="#8cf8ed"/><stop offset=".91994596" stop-color="#a5aee5"/><stop offset="1" stop-color="#ffb299"/></linearGradient><filter id="e" color-interpolation-filters="sRGB" height="1.136717" width="1.100977" x="-.050488" y="-.068359"><feGaussianBlur stdDeviation="2.3457468"/></filter><radialGradient id="f" cx="246.22972" cy="84.553551" gradientTransform="matrix(.00000076 2.0000015 -2.0000003 .00000102 70.946491 -457.27035)" gradientUnits="userSpaceOnUse" r="19.84375" spreadMethod="reflect" xlink:href="#g"/><linearGradient id="g" gradientTransform="matrix(237.217 0 0 -237.217 781.597 942.031)" gradientUnits="userSpaceOnUse" spreadMethod="pad" x1="0" x2="1" y1="0" y2="0"><stop offset="0" stop-color="#f03c1f"/><stop offset=".733333" stop-color="#fbc408"/><stop offset=".9818182" stop-color="#f9e105"/><stop offset="1" stop-color="#f9e105"/></linearGradient><radialGradient id="h" cx="231.41312" cy="-15.988109" gradientTransform="matrix(.00000076 2.0000015 -2.0000003 .00000102 70.946491 -457.27035)" gradientUnits="userSpaceOnUse" r="19.84375" spreadMethod="reflect" xlink:href="#g"/><filter id="i" color-interpolation-filters="sRGB" height="1.147896" width="1.105794" x="-.052897" y="-.073948"><feGaussianBlur stdDeviation="2.1443277"/></filter><clipPath id="j"><path d="m99.479097 36.235003c21.651073 11.886018 24.400033 35.009255 5.995023 51.507437-18.405241 16.49861-51.061895 20.18446-72.712382 8.298569-21.65103-11.88561-24.2949277-34.95982-5.895644-51.452874 9.199579-8.2466 21.948998-13.320562 35.085576-14.831852 13.13668-1.511305 26.701997.535975 37.527427 6.47872z"/></clipPath><filter id="k" color-interpolation-filters="sRGB" height="1.185811" width="1.162795" x="-.084338" y="-.086263"><feGaussianBlur stdDeviation=".11092103"/></filter><filter id="l" color-interpolation-filters="sRGB" height="1.10473" width="1.088614" x="-.044307" y="-.052365"><feGaussianBlur stdDeviation="1.7747365"/></filter><linearGradient id="m" gradientUnits="userSpaceOnUse" spreadMethod="repeat" x1="-58.828991" x2="-27.70916" xlink:href="#d" y1="64.169174" y2="38.338478"/><linearGradient id="n"><stop offset="0" stop-color="#ff3f00"/><stop offset=".0932363" stop-color="#ff8900"/><stop offset=".2234161" stop-color="#fdb302"/><stop offset=".39124575" stop-color="#aeed12"/><stop offset=".59146547" stop-color="#40bf4f"/><stop offset=".6972549" stop-color="#0ff0d9"/><stop offset=".88951999" stop-color="#394cc6"/><stop offset="1" stop-color="#ff3f00"/></linearGradient><filter id="o" color-interpolation-filters="sRGB" height="1.05891" width="1.049845" x="-.024923" y="-.029455"><feGaussianBlur stdDeviation=".99828928"/></filter><linearGradient id="p" gradientUnits="userSpaceOnUse" spreadMethod="repeat" x1="-58.828991" x2="-27.70916" xlink:href="#n" y1="64.169174" y2="38.338478"/><linearGradient id="q" gradientUnits="userSpaceOnUse" x1="165.629175" x2="178.858345" xlink:href="#d" y1="108.556967" y2="121.786127"/><linearGradient id="r" gradientUnits="userSpaceOnUse" x1="165.629175" x2="178.858345" xlink:href="#n" y1="95.327803" y2="108.556967"/><g><path d="m165.62918 108.55697h13.229167v13.229167h-13.229167z" fill="url(#q)" opacity=".75"/><path d="m165.62918 95.327805h13.229167v13.229167h-13.229167z" fill="url(#r)" opacity=".75"/><path d="m74.578489 27.698502c-3.48566-.07385-6.989066.09481-10.462798.494451-13.894688 1.598507-27.421047 6.915267-37.425288 15.883174-10.005113 8.968548-14.693587 20.26794-13.453096 31.094067 1.240491 10.826126 8.363804 20.768429 20.137421 27.231716 23.545902 12.92645 57.541156 9.09358 77.565902-8.856766 10.01226-8.97495 14.6729-20.296787 13.40329-31.133104-1.26962-10.836315-8.41183-20.78361-20.18506-27.246886-8.829362-4.846974-19.123389-7.245107-29.580371-7.466652z" filter="url(#e)" opacity=".5"/><g opacity=".95"><path d="m71.932653 25.052667c-3.485659-.07385-6.989065.09481-10.462797.494451-13.894688 1.598507-27.421047 6.915267-37.425288 15.883174-10.005113 8.968548-14.6935868 20.267941-13.453096 31.094067 1.240491 10.826126 8.363804 20.76843 20.137421 27.231706 23.545902 12.926455 57.541156 9.093575 77.565887-8.856756 10.01225-8.97495 14.6729-20.296787 13.40329-31.133103-1.26962-10.836316-8.41183-20.78361-20.18506-27.246886-8.829347-4.846975-19.123374-7.245108-29.580357-7.466653zm-.194877 8.483749c9.272445.212017 18.299994 2.345552 25.708773 6.41269 9.877811 5.42273 14.933721 12.982502 15.850091 20.803835.91638 7.821333-2.25195 16.31022-10.64468 23.833435-16.785713 15.046863-48.101576 18.585204-67.856607 7.739903-9.877392-5.42232-14.903739-12.961342-15.798131-20.766968-.894393-7.805626 2.296002-16.289429 10.690155-23.813917 8.394896-7.525275 20.3676-12.355515 32.746044-13.779587 3.094601-.356016 6.213539-.500065 9.304355-.429391z" fill="#8b421b"/><path d="m99.479096 36.235004c21.651074 11.886018 24.400034 35.009255 5.995024 51.507436-18.40524 16.49862-51.061894 20.18446-72.712382 8.298568-21.65103-11.885609-24.2949278-34.95982-5.895645-51.452874 9.199578-8.246599 21.948998-13.320561 35.085578-14.831852 13.136678-1.511304 26.701996.535975 37.527425 6.478722z" fill="#8b421b"/><path d="m97.604159 37.916498c20.457791 11.230942 23.046851 33.029926 5.661871 48.613748-17.385231 15.584264-48.171085 19.060674-68.628294 7.829873-20.457733-11.230532-22.949385-32.975846-5.564157-48.559902 8.692616-7.792136 20.710579-12.57093 33.113053-13.997769 12.402473-1.426838 25.18864.498787 35.417527 6.114052z" fill="url(#h)" filter="url(#i)"/><circle cx="66.145836" cy="39.542774" fill="url(#f)" filter="url(#b)" r="39.542774" transform="matrix(-1.0911562 .12552257 .08859391 .77318278 134.81754 27.275014)"/><g clip-path="url(#j)" filter="url(#k)"><g fill="url(#p)" filter="url(#l)" opacity=".75" transform="translate(2.167039 -1.456266)"><path d="m-141.71367-3.5604661-4.34454 10.0644076-1.77403-12.4763923-5.16468-8.4958262 8.3239-2.327147 4.45767-7.034404 1.66089 9.446389 8.71976 11.4699671z" opacity="1" transform="matrix(.2515722 0 0 .2515722 127.46125 60.406898)"/><path d="m-139.86237-5.7834461-9.02205 8.673446.78834-9.1662897-2.25712-10.7640902 8.83162 3.479468 10.25152 3.12575z" opacity="1" transform="matrix(.2515722 0 0 .2515722 115.26878 83.540466)"/><path d="m-141.71367-3.5604661-4.34454 10.0644076-1.77403-12.4763923-5.16468-8.4958262 8.3239-2.327147 4.45767-7.034404 1.66089 9.446389 8.71976 11.4699671z" opacity="1" transform="matrix(.2515722 0 0 .2515722 74.43936 66.732599)"/><path d="m-48.303316 27.216647-1.519927-2.377558-2.386078-2.304702 3.074215.251483 3.70435-1.11395-1.388254 2.64972z" opacity="1" transform="matrix(.67438479 0 0 .67438479 62.238714 57.75468)"/><path d="m-59.93249 29.271929-3.59989-3.460988 5.095492-.05232 2.192042-2.711393-.455328 2.697053 3.599967 1.611093-2.591325 1.149028-2.320134 3.990759z" opacity="1" transform="matrix(.67438479 0 0 .67438479 68.149914 29.530263)"/><path d="m-67.639566 33.20701-4.664615-3.06567-5.965171-1.666206 5.858153-2.655714 4.489875-4.702924-.414034 6.001125z" opacity="1" transform="matrix(.67438479 0 0 .67438479 144.3556 48.198168)"/><path d="m-95.221239 25.648477-2.090362 2.494936-1.699341-2.792472-1.136508-1.470499 1.124266-2.241112 2.427722-2.090096 2.257977 2.815395 2.377198-.196123z" opacity="1" transform="matrix(.67438479 0 0 .67438479 156.28911 73.059376)"/><path d="m-62.797581 59.250327-3.747685-3.869953-3.29496-2.607571 4.554538-1.554104 5.313883-1.263562-2.37614 4.197137z" opacity="1" transform="matrix(.67438479 0 0 .67438479 129.35415 38.147363)"/><path d="m-30.391117 35.662354-5.864197-1.707183 2.274242-2.971757 3.201313-2.706214 3.675843 1.599332 3.317854 1.911707-2.11285 1.691667-.977705 5.393257z" opacity="1" transform="matrix(.67438479 0 0 .67438479 97.069904 22.569855)"/><path d="m-39.309885 41.548085-3.949868-3.474533-4.876775-1.996622 5.281015-1.453614 4.900907-2.952056-1.354113 5.479831z" opacity="1" transform="matrix(.67438479 0 0 .67438479 117.99614 20.177419)"/><path d="m-59.885603 38.810889-1.679821 1.223516-1.502866-1.428395-3.547582-1.042299 2.24738-2.087986.863058-3.902504 2.319629 4.107383 3.968254.02333z" opacity="1" transform="matrix(.67438479 0 0 .67438479 143.14839 56.682112)"/><path d="m-91.916671 43.82608-4.89118-2.515647-5.484379-2.660873 5.852547-2.75687 4.057564-2.936648-.518695 6.112483z" opacity="1" transform="matrix(.67438479 0 0 .67438479 171.33585 53.264601)"/><path d="m-91.082269 69.256553.139087 6.396172-4.634602-.194067-5.745526-1.34609 1.724417-5.006552 1.614138-6.688271 6.435848 2.92503 3.882409.936123z" opacity="1" transform="matrix(.67438479 0 0 .67438479 134.74417 .681728)"/><path d="m-78.098576 64.772227 4.836886 1.955736 5.757926 1.046472-4.012304 3.440005-3.663752 3.971696-.154137-5.540876z" opacity="1" transform="matrix(.67438479 0 0 .67438479 115.02578 2.854071)"/><path d="m-47.168241 58.487163-.479785 2.337188-.951454-3.884746-2.184295-.918974 2.881461-1.419797.580487-1.268494.951423 1.81057 3.211005 1.777909z" opacity="1" transform="matrix(.67438479 0 0 .67438479 105.31073 52.650937)"/><path d="m-139.86237-5.7834461-9.02205 8.673446.78834-9.1662897-2.25712-10.7640902 8.83162 3.479468 10.25152 3.12575z" opacity="1" transform="matrix(0 .2515722 -.2515722 0 63.80673 90.347522)"/><path d="m-47.510508 25.895725-2.747393.135039-.612141-.929699-1.448541-3.515828 3.847926-.376201 2.282542-.520071-1.100601 3.616801 1.450372 1.663417z" opacity="1" transform="matrix(0 .67438479 -.67438479 0 65.835542 84.550455)"/><path d="m-62.049461 30.181898 2.609058-3.921014 1.742942-4.009614 1.101389 4.344525 2.838402 2.726397-3.711536-.397374z" opacity="1" transform="matrix(0 .67438479 -.67438479 0 83.639752 74.836159)"/><path d="m-95.221239 25.648477-2.090362 2.494936-1.699341-2.792472-1.136508-1.470499 1.124266-2.241112 2.427722-2.090096 2.257977 2.815395 2.377198-.196123z" opacity="1" transform="matrix(0 .67438479 -.67438479 0 76.30092 149.30698)"/><path d="m-32.394168 38.711693.472116-5.854465-.929566-4.203252 4.077466 2.740533 4.689108 1.524012-4.080621 2.719747z" opacity="1" transform="matrix(0 .67438479 -.67438479 0 105.37441 106.42649)"/><path d="m-39.655586 38.495725-4.766035 2.481988-1.521309-2.063691-1.318081-6.10833 4.973188 1.197384 1.75308-2.641607 1.320059 5.347733 1.474539 1.965991z" opacity="1" transform="matrix(0 .67438479 -.67438479 0 85.337849 80.394174)"/><path d="m-59.225973 39.15776-3.234755-.621874-3.52071.006 3.074796-3.35862 1.424903-2.186997 1.415358 2.858015z" opacity="1" transform="matrix(0 .67438479 -.67438479 0 95.756839 125.8979)"/><path d="m-92.411002 42.063276-3.61003 3.27449-.725315-5.146298-5.173443-2.432618 4.534622-3.28626 3.266076-3.304555 2.488616 6.609881 3.750792 3.53619z" opacity="1" transform="matrix(0 .67438479 -.67438479 0 107.81764 125.6399)"/><path d="m-88.265392 72.279389-5.399314-.300168-7.322084 2.108468 3.106775-4.679448.947952-7.326216 5.224347 5.66715z" opacity="1" transform="matrix(0 .67438479 -.67438479 0 132.63631 151.67847)"/><path d="m-77.092691 65.820699 2.318012-1.021284 4.038751 2.736399 1.931382 3.024625-1.03005 1.758855-2.269556 2.145944-4.08716-3.535251-2.093038-1.69447z" opacity="1" transform="matrix(0 .67438479 -.67438479 0 109.77893 109.09594)"/><path d="m-45.411477 58.834161-3.189333-1.224739-2.727072-.94547 2.978804-2.04424 2.099255-1.676485.428339 3.334691z" opacity="1" transform="matrix(0 .67438479 -.67438479 0 104.65395 115.69807)"/><path d="m-134.83091-6.9702982-8.95276 10.3530421-2.16044-6.6701486-7.90556-4.9798172 5.84896-2.1442291 4.53943-11.297645 6.57377 7.614752 8.25424 2.2142z" opacity="1" transform="matrix(.2515722 0 0 .2515722 113.58445 94.026542)"/><path d="m-48.303316 27.216647-1.519927-2.377558-2.386078-2.304702 3.074215.251483 3.70435-1.11395-1.388254 2.64972z" opacity="1" transform="matrix(.67438479 0 0 .67438479 117.40236 65.46797)"/><path d="m-59.93249 29.271929-3.59989-3.460988 5.095492-.05232 2.192042-2.711393-.455328 2.697053 3.599967 1.611093-2.591325 1.149028-2.320134 3.990759z" opacity="1" transform="matrix(.67438479 0 0 .67438479 123.93371 20.297163)"/><path d="m-67.639566 33.20701-4.664615-3.06567-5.965171-1.666206 5.858153-2.655714 4.489875-4.702924-.414034 6.001125z" opacity="1" transform="matrix(.67438479 0 0 .67438479 114.44117 61.480425)"/><path d="m-95.221239 25.648477-2.090362 2.494936-1.699341-2.792472-1.136508-1.470499 1.124266-2.241112 2.427722-2.090096 2.257977 2.815395 2.377198-.196123z" opacity="1" transform="matrix(.67438479 0 0 .67438479 151.72511 36.307393)"/><path d="m-62.797581 59.250327-3.747685-3.869953-3.29496-2.607571 4.554538-1.554104 5.313883-1.263562-2.37614 4.197137z" opacity="1" transform="matrix(.67438479 0 0 .67438479 112.69566 21.692608)"/><path d="m-30.391117 35.662354-5.864197-1.707183 2.274242-2.971757 3.201313-2.706214 3.675843 1.599332 3.317854 1.911707-2.11285 1.691667-.977705 5.393257z" opacity="1" transform="matrix(.67438479 0 0 .67438479 107.55727 7.960361)"/><path d="m-91.916671 43.82608-4.89118-2.515647-5.484379-2.660873 5.852547-2.75687 4.057564-2.936648-.518695 6.112483z" opacity="1" transform="matrix(.67438479 0 0 .67438479 157.13811 53.546148)"/><path d="m-91.082269 69.256553.139087 6.396172-4.634602-.194067-5.745526-1.34609 1.724417-5.006552 1.614138-6.688271 6.435848 2.92503 3.882409.936123z" opacity="1" transform="matrix(.67438479 0 0 .67438479 119.73425 52.81824)"/><path d="m-78.098576 64.772227 4.836886 1.955736 5.757926 1.046472-4.012304 3.440005-3.663752 3.971696-.154137-5.540876z" opacity="1" transform="matrix(.67438479 0 0 .67438479 116.11764 42.319214)"/><path d="m-47.168241 58.487163-.479785 2.337188-.951454-3.884746-2.184295-.918974 2.881461-1.419797.580487-1.268494.951423 1.81057 3.211005 1.777909z" opacity="1" transform="matrix(.67438479 0 0 .67438479 140.35557 33.310481)"/><path d="m-139.86965-3.0771184-10.36001 3.66205157.91413-9.28987787.86649-13.0008283 8.15651 7.589292 11.2312 8.6550614z" opacity="1" transform="matrix(.2515722 0 0 .2515722 86.687245 78.595511)"/><path d="m-134.83091-6.9702982-8.95276 10.3530421-2.16044-6.6701486-7.90556-4.9798172 5.84896-2.1442291 4.53943-11.297645 6.57377 7.614752 8.25424 2.2142z" opacity="1" transform="matrix(.2515722 0 0 .2515722 86.481567 47.703152)"/><path d="m-139.78851-2.9543271-10.33118 3.38856365.67369-9.17910895.94046-13.1248226 8.25468 7.60554 11.3543 8.9636604z" opacity="1" transform="matrix(.2515722 0 0 .2515722 129.83924 41.766484)"/><path d="m-47.510508 25.895725-2.747393.135039-.612141-.929699-1.448541-3.515828 3.847926-.376201 2.282542-.520071-1.100601 3.616801 1.450372 1.663417z" opacity="1" transform="matrix(.67438479 0 0 .67438479 55.328577 30.170112)"/><path d="m-62.049461 30.181898 2.609058-3.921014 1.742942-4.009614 1.101389 4.344525 2.838402 2.726397-3.711536-.397374z" opacity="1" transform="matrix(.67438479 0 0 .67438479 91.493535 46.946909)"/><path d="m-68.413257 32.093131-3.314272 1.081947-1.388002-2.041988-5.876933-3.140291 5.95975-1.949557 3.25873-5.743856 1.261773 5.520593 2.685914 4.323595z" opacity="1" transform="matrix(.67438479 0 0 .67438479 90.911731 22.017338)"/><path d="m-93.419907 26.365763-3.424433-1.172966-4.26871-.44105 2.806006-2.522007 2.989142-3.024779.7709 3.764809z" opacity="1" transform="matrix(.67438479 0 0 .67438479 142.33039 55.866021)"/><path d="m-30.391117 35.662354-5.864197-1.707183 2.274242-2.971757 3.201313-2.706214 3.675843 1.599332 3.317854 1.911707-2.11285 1.691667-.977705 5.393257z" opacity="1" transform="matrix(.67438479 0 0 .67438479 73.625228 32.801636)"/><path d="m-39.309885 41.548085-3.949868-3.474533-4.876775-1.996622 5.281015-1.453614 4.900907-2.952056-1.354113 5.479831z" opacity="1" transform="matrix(.67438479 0 0 .67438479 95.636633 72.268829)"/><path d="m-92.411002 42.063276-3.61003 3.27449-.725315-5.146298-5.173443-2.432618 4.534622-3.28626 3.266076-3.304555 2.488616 6.609881 3.750792 3.53619z" opacity="1" transform="matrix(.67438479 0 0 .67438479 160.31995 47.380749)"/><path d="m-88.265392 72.279389-5.399314-.300168-7.322084 2.108468 3.106775-4.679448.947952-7.326216 5.224347 5.66715z" opacity="1" transform="matrix(.67438479 0 0 .67438479 134.73601 26.950353)"/><path d="m-77.092691 65.820699 2.318012-1.021284 4.038751 2.736399 1.931382 3.024625-1.03005 1.758855-2.269556 2.145944-4.08716-3.535251-2.093038-1.69447z" opacity="1" transform="matrix(.67438479 0 0 .67438479 72.693709 15.449834)"/><path d="m-45.411477 58.834161-3.189333-1.224739-2.727072-.94547 2.978804-2.04424 2.099255-1.676485.428339 3.334691z" opacity="1" transform="matrix(.67438479 0 0 .67438479 142.87371 11.384827)"/><path d="m-141.71367-3.5604661-4.34454 10.0644076-1.77403-12.4763923-5.16468-8.4958262 8.3239-2.327147 4.45767-7.034404 1.66089 9.446389 8.71976 11.4699671z" opacity="1" transform="matrix(-.24491861 .05747561 -.05747561 -.24491861 -4.056859 97.748517)"/><path d="m-139.86237-5.7834461-9.02205 8.673446.78834-9.1662897-2.25712-10.7640902 8.83162 3.479468 10.25152 3.12575z" opacity="1" transform="matrix(-.24491861 .05747561 -.05747561 -.24491861 4.900452 52.690866)"/><path d="m-141.71367-3.5604661-4.34454 10.0644076-1.77403-12.4763923-5.16468-8.4958262 8.3239-2.327147 4.45767-7.034404 1.66089 9.446389 8.71976 11.4699671z" opacity="1" transform="matrix(-.24491861 .05747561 -.05747561 -.24491861 22.586945 46.04545)"/><path d="m-48.303316 27.216647-1.519927-2.377558-2.386078-2.304702 3.074215.251483 3.70435-1.11395-1.388254 2.64972z" opacity="1" transform="matrix(-.65654865 .15407376 -.15407376 -.65654865 67.622447 113.15454)"/><path d="m-59.93249 29.271929-3.59989-3.460988 5.095492-.05232 2.192042-2.711393-.455328 2.697053 3.599967 1.611093-2.591325 1.149028-2.320134 3.990759z" opacity="1" transform="matrix(-.65654865 .15407376 -.15407376 -.65654865 54.996677 95.722264)"/><path d="m-67.639566 33.20701-4.664615-3.06567-5.965171-1.666206 5.858153-2.655714 4.489875-4.702924-.414034 6.001125z" opacity="1" transform="matrix(-.65654865 .15407376 -.15407376 -.65654865 -19.489898 116.37478)"/><path d="m-64.77845 58.335409-3.536074 1.363031.60609-5.856085-2.444626-2.81233 4.795335-1.684483 3.864949-1.597516-.934966 6.09057 2.444578 2.474591z" opacity="1" transform="matrix(-.65654865 .15407376 -.15407376 -.65654865 58.409854 143.22373)"/><path d="m-32.394168 38.711693.472116-5.854465-.929566-4.203252 4.077466 2.740533 4.689108 1.524012-4.080621 2.719747z" opacity="1" transform="matrix(-.65654865 .15407376 -.15407376 -.65654865 87.671608 66.153266)"/><path d="m-39.655586 38.495725-4.766035 2.481988-1.521309-2.063691-1.318081-6.10833 4.973188 1.197384 1.75308-2.641607 1.320059 5.347733 1.474539 1.965991z" opacity="1" transform="matrix(-.65654865 .15407376 -.15407376 -.65654865 19.767656 106.49835)"/><path d="m-59.225973 39.15776-3.234755-.621874-3.52071.006 3.074796-3.35862 1.424903-2.186997 1.415358 2.858015z" opacity="1" transform="matrix(-.65654865 .15407376 -.15407376 -.65654865 68.610037 82.975317)"/><path d="m-77.092691 65.820699 2.318012-1.021284 4.038751 2.736399 1.931382 3.024625-1.03005 1.758855-2.269556 2.145944-4.08716-3.535251-2.093038-1.69447z" opacity="1" transform="matrix(-.65654865 .15407376 -.15407376 -.65654865 -5.590532 114.40644)"/><path d="m-45.411477 58.834161-3.189333-1.224739-2.727072-.94547 2.978804-2.04424 2.099255-1.676485.428339 3.334691z" opacity="1" transform="matrix(-.65654865 .15407376 -.15407376 -.65654865 76.897296 89.861694)"/><path d="m-134.83091-6.9702982-8.95276 10.3530421-2.16044-6.6701486-7.90556-4.9798172 5.84896-2.1442291 4.53943-11.297645 6.57377 7.614752 8.25424 2.2142z" opacity="1" transform="matrix(-.05747561 -.24491861 .24491861 -.05747561 43.139074 2.167482)"/><path d="m-139.78851-2.9543271-10.33118 3.38856365.67369-9.17910895.94046-13.1248226 8.25468 7.60554 11.3543 8.9636604z" opacity="1" transform="matrix(-.05747561 -.24491861 .24491861 -.05747561 26.996714 9.298036)"/><path d="m-47.510508 25.895725-2.747393.135039-.612141-.929699-1.448541-3.515828 3.847926-.376201 2.282542-.520071-1.100601 3.616801 1.450372 1.663417z" opacity="1" transform="matrix(-.15407376 -.65654865 .65654865 -.15407376 74.391724 58.003648)"/><path d="m-62.049461 30.181898 2.609058-3.921014 1.742942-4.009614 1.101389 4.344525 2.838402 2.726397-3.711536-.397374z" opacity="1" transform="matrix(-.15407376 -.65654865 .65654865 -.15407376 -7.383134 37.276148)"/><path d="m-68.413257 32.093131-3.314272 1.081947-1.388002-2.041988-5.876933-3.140291 5.95975-1.949557 3.25873-5.743856 1.261773 5.520593 2.685914 4.323595z" opacity="1" transform="matrix(-.15407376 -.65654865 .65654865 -.15407376 9.770972 10.295716)"/><path d="m-62.797581 59.250327-3.747685-3.869953-3.29496-2.607571 4.554538-1.554104 5.313883-1.263562-2.37614 4.197137z" opacity="1" transform="matrix(-.15407376 -.65654865 .65654865 -.15407376 31.084906 42.501076)"/><path d="m-30.391117 35.662354-5.864197-1.707183 2.274242-2.971757 3.201313-2.706214 3.675843 1.599332 3.317854 1.911707-2.11285 1.691667-.977705 5.393257z" opacity="1" transform="matrix(-.15407376 -.65654865 .65654865 -.15407376 3.221984 66.791529)"/><path d="m-39.309885 41.548085-3.949868-3.474533-4.876775-1.996622 5.281015-1.453614 4.900907-2.952056-1.354113 5.479831z" opacity="1" transform="matrix(-.15407376 -.65654865 .65654865 -.15407376 26.591299 58.132992)"/><path d="m-59.885603 38.810889-1.679821 1.223516-1.502866-1.428395-3.547582-1.042299 2.24738-2.087986.863058-3.902504 2.319629 4.107383 3.968254.02333z" opacity="1" transform="matrix(-.15407376 -.65654865 .65654865 -.15407376 72.462879 8.271643)"/><path d="m-88.265392 72.279389-5.399314-.300168-7.322084 2.108468 3.106775-4.679448.947952-7.326216 5.224347 5.66715z" opacity="1" transform="matrix(-.15407376 -.65654865 .65654865 -.15407376 16.070622 1.536633)"/><path d="m-77.092691 65.820699 2.318012-1.021284 4.038751 2.736399 1.931382 3.024625-1.03005 1.758855-2.269556 2.145944-4.08716-3.535251-2.093038-1.69447z" opacity="1" transform="matrix(-.15407376 -.65654865 .65654865 -.15407376 4.694851 33.794558)"/><path d="m-45.411477 58.834161-3.189333-1.224739-2.727072-.94547 2.978804-2.04424 2.099255-1.676485.428339 3.334691z" opacity="1" transform="matrix(-.15407376 -.65654865 .65654865 -.15407376 17.081249 21.931133)"/><path d="m-141.71367-3.5604661-4.34454 10.0644076-1.77403-12.4763923-5.16468-8.4958262 8.3239-2.327147 4.45767-7.034404 1.66089 9.446389 8.71976 11.4699671z" opacity="1" transform="matrix(-.24491861 .05747561 -.05747561 -.24491861 42.032907 38.282391)"/><path d="m-139.86237-5.7834461-9.02205 8.673446.78834-9.1662897-2.25712-10.7640902 8.83162 3.479468 10.25152 3.12575z" opacity="1" transform="matrix(-.24491861 .05747561 -.05747561 -.24491861 30.292385 72.280029)"/><path d="m-141.71367-3.5604661-4.34454 10.0644076-1.77403-12.4763923-5.16468-8.4958262 8.3239-2.327147 4.45767-7.034404 1.66089 9.446389 8.71976 11.4699671z" opacity="1" transform="matrix(-.24491861 .05747561 -.05747561 -.24491861 13.314153 100.00751)"/><path d="m-62.049461 30.181898 2.609058-3.921014 1.742942-4.009614 1.101389 4.344525 2.838402 2.726397-3.711536-.397374z" opacity="1" transform="matrix(-.65654865 .15407376 -.15407376 -.65654865 10.623187 112.64561)"/><path d="m-68.413257 32.093131-3.314272 1.081947-1.388002-2.041988-5.876933-3.140291 5.95975-1.949557 3.25873-5.743856 1.261773 5.520593 2.685914 4.323595z" opacity="1" transform="matrix(-.65654865 .15407376 -.15407376 -.65654865 48.933833 112.83231)"/><path d="m-93.419907 26.365763-3.424433-1.172966-4.26871-.44105 2.806006-2.522007 2.989142-3.024779.7709 3.764809z" opacity="1" transform="matrix(-.65654865 .15407376 -.15407376 -.65654865 -37.11926 102.92637)"/><path d="m-64.77845 58.335409-3.536074 1.363031.60609-5.856085-2.444626-2.81233 4.795335-1.684483 3.864949-1.597516-.934966 6.09057 2.444578 2.474591z" opacity="1" transform="matrix(-.65654865 .15407376 -.15407376 -.65654865 20.746515 96.147047)"/><path d="m-32.394168 38.711693.472116-5.854465-.929566-4.203252 4.077466 2.740533 4.689108 1.524012-4.080621 2.719747z" opacity="1" transform="matrix(-.65654865 .15407376 -.15407376 -.65654865 25.323328 121.94957)"/><path d="m-59.885603 38.810889-1.679821 1.223516-1.502866-1.428395-3.547582-1.042299 2.24738-2.087986.863058-3.902504 2.319629 4.107383 3.968254.02333z" opacity="1" transform="matrix(-.65654865 .15407376 -.15407376 -.65654865 34.925426 73.5975)"/><path d="m-91.916671 43.82608-4.89118-2.515647-5.484379-2.660873 5.852547-2.75687 4.057564-2.936648-.518695 6.112483z" opacity="1" transform="matrix(-.65654865 .15407376 -.15407376 -.65654865 -37.400273 117.87441)"/><path d="m-91.082269 69.256553.139087 6.396172-4.634602-.194067-5.745526-1.34609 1.724417-5.006552 1.614138-6.688271 6.435848 2.92503 3.882409.936123z" opacity="1" transform="matrix(-.65654865 .15407376 -.15407376 -.65654865 55.383798 114.14668)"/><path d="m-78.098576 64.772227 4.836886 1.955736 5.757926 1.046472-4.012304 3.440005-3.663752 3.971696-.154137-5.540876z" opacity="1" transform="matrix(-.65654865 .15407376 -.15407376 -.65654865 59.928627 136.441)"/><path d="m-47.168241 58.487163-.479785 2.337188-.951454-3.884746-2.184295-.918974 2.881461-1.419797.580487-1.268494.951423 1.81057 3.211005 1.777909z" opacity="1" transform="matrix(-.65654865 .15407376 -.15407376 -.65654865 23.384318 88.64245)"/><path d="m-88.265392 72.279389-5.399314-.300168-7.322084 2.108468 3.106775-4.679448.947952-7.326216 5.224347 5.66715z" opacity="1" transform="matrix(-.65654865 .15407376 -.15407376 -.65654865 9.631458 108.06965)"/><path d="m-141.71367-3.5604661-4.34454 10.0644076-1.77403-12.4763923-5.16468-8.4958262 8.3239-2.327147 4.45767-7.034404 1.66089 9.446389 8.71976 11.4699671z" opacity="1" transform="matrix(-.24491861 .05747561 -.05747561 -.24491861 28.584159 110.59299)"/><path d="m-139.86237-5.7834461-9.02205 8.673446.78834-9.1662897-2.25712-10.7640902 8.83162 3.479468 10.25152 3.12575z" opacity="1" transform="matrix(-.24491861 .05747561 -.05747561 -.24491861 67.688262 68.583124)"/><path d="m-141.71367-3.5604661-4.34454 10.0644076-1.77403-12.4763923-5.16468-8.4958262 8.3239-2.327147 4.45767-7.034404 1.66089 9.446389 8.71976 11.4699671z" opacity="1" transform="matrix(-.24491861 .05747561 -.05747561 -.24491861 73.066283 91.478049)"/><path d="m-48.303316 27.216647-1.519927-2.377558-2.386078-2.304702 3.074215.251483 3.70435-1.11395-1.388254 2.64972z" opacity="1" transform="matrix(-.65654865 .15407376 -.15407376 -.65654865 68.947612 120.05391)"/><path d="m-59.93249 29.271929-3.59989-3.460988 5.095492-.05232 2.192042-2.711393-.455328 2.697053 3.599967 1.611093-2.591325 1.149028-2.320134 3.990759z" opacity="1" transform="matrix(-.65654865 .15407376 -.15407376 -.65654865 16.568705 111.65719)"/><path d="m-67.639566 33.20701-4.664615-3.06567-5.965171-1.666206 5.858153-2.655714 4.489875-4.702924-.414034 6.001125z" opacity="1" transform="matrix(-.65654865 .15407376 -.15407376 -.65654865 14.530412 118.1764)"/><path d="m-95.221239 25.648477-2.090362 2.494936-1.699341-2.792472-1.136508-1.470499 1.124266-2.241112 2.427722-2.090096 2.257977 2.815395 2.377198-.196123z" opacity="1" transform="matrix(-.65654865 .15407376 -.15407376 -.65654865 28.136503 129.16201)"/><path d="m-62.797581 59.250327-3.747685-3.869953-3.29496-2.607571 4.554538-1.554104 5.313883-1.263562-2.37614 4.197137z" opacity="1" transform="matrix(-.65654865 .15407376 -.15407376 -.65654865 58.685022 138.66458)"/><path d="m-30.391117 35.662354-5.864197-1.707183 2.274242-2.971757 3.201313-2.706214 3.675843 1.599332 3.317854 1.911707-2.11285 1.691667-.977705 5.393257z" opacity="1" transform="matrix(-.65654865 .15407376 -.15407376 -.65654865 70.391022 121.63431)"/><path d="m-39.309885 41.548085-3.949868-3.474533-4.876775-1.996622 5.281015-1.453614 4.900907-2.952056-1.354113 5.479831z" opacity="1" transform="matrix(-.65654865 .15407376 -.15407376 -.65654865 13.939121 105.65826)"/><path d="m-59.885603 38.810889-1.679821 1.223516-1.502866-1.428395-3.547582-1.042299 2.24738-2.087986.863058-3.902504 2.319629 4.107383 3.968254.02333z" opacity="1" transform="matrix(-.65654865 .15407376 -.15407376 -.65654865 65.445443 126.32609)"/><path d="m-91.916671 43.82608-4.89118-2.515647-5.484379-2.660873 5.852547-2.75687 4.057564-2.936648-.518695 6.112483z" opacity="1" transform="matrix(-.65654865 .15407376 -.15407376 -.65654865 39.761579 92.212037)"/><path d="m-77.092691 65.820699 2.318012-1.021284 4.038751 2.736399 1.931382 3.024625-1.03005 1.758855-2.269556 2.145944-4.08716-3.535251-2.093038-1.69447z" opacity="1" transform="matrix(-.65654865 .15407376 -.15407376 -.65654865 33.954712 121.98521)"/><path d="m-45.411477 58.834161-3.189333-1.224739-2.727072-.94547 2.978804-2.04424 2.099255-1.676485.428339 3.334691z" opacity="1" transform="matrix(-.65654865 .15407376 -.15407376 -.65654865 79.646482 118.11885)"/></g><g fill="url(#m)" filter="url(#o)" opacity=".5" transform="matrix(-1 0 0 -1 130.531512 133.944204)"><path d="m-141.71367-3.5604661-4.34454 10.0644076-1.77403-12.4763923-5.16468-8.4958262 8.3239-2.327147 4.45767-7.034404 1.66089 9.446389 8.71976 11.4699671z" opacity="1" transform="matrix(.2515722 0 0 .2515722 127.46125 60.406898)"/><path d="m-139.86237-5.7834461-9.02205 8.673446.78834-9.1662897-2.25712-10.7640902 8.83162 3.479468 10.25152 3.12575z" opacity="1" transform="matrix(.2515722 0 0 .2515722 115.26878 83.540466)"/><path d="m-141.71367-3.5604661-4.34454 10.0644076-1.77403-12.4763923-5.16468-8.4958262 8.3239-2.327147 4.45767-7.034404 1.66089 9.446389 8.71976 11.4699671z" opacity="1" transform="matrix(.2515722 0 0 .2515722 74.43936 66.732599)"/><path d="m-48.303316 27.216647-1.519927-2.377558-2.386078-2.304702 3.074215.251483 3.70435-1.11395-1.388254 2.64972z" opacity="1" transform="matrix(.67438479 0 0 .67438479 62.238714 57.75468)"/><path d="m-59.93249 29.271929-3.59989-3.460988 5.095492-.05232 2.192042-2.711393-.455328 2.697053 3.599967 1.611093-2.591325 1.149028-2.320134 3.990759z" opacity="1" transform="matrix(.67438479 0 0 .67438479 68.149914 29.530263)"/><path d="m-67.639566 33.20701-4.664615-3.06567-5.965171-1.666206 5.858153-2.655714 4.489875-4.702924-.414034 6.001125z" opacity="1" transform="matrix(.67438479 0 0 .67438479 144.3556 48.198168)"/><path d="m-95.221239 25.648477-2.090362 2.494936-1.699341-2.792472-1.136508-1.470499 1.124266-2.241112 2.427722-2.090096 2.257977 2.815395 2.377198-.196123z" opacity="1" transform="matrix(.67438479 0 0 .67438479 156.28911 73.059376)"/><path d="m-62.797581 59.250327-3.747685-3.869953-3.29496-2.607571 4.554538-1.554104 5.313883-1.263562-2.37614 4.197137z" opacity="1" transform="matrix(.67438479 0 0 .67438479 129.35415 38.147363)"/><path d="m-30.391117 35.662354-5.864197-1.707183 2.274242-2.971757 3.201313-2.706214 3.675843 1.599332 3.317854 1.911707-2.11285 1.691667-.977705 5.393257z" opacity="1" transform="matrix(.67438479 0 0 .67438479 97.069904 22.569855)"/><path d="m-39.309885 41.548085-3.949868-3.474533-4.876775-1.996622 5.281015-1.453614 4.900907-2.952056-1.354113 5.479831z" opacity="1" transform="matrix(.67438479 0 0 .67438479 117.99614 20.177419)"/><path d="m-59.885603 38.810889-1.679821 1.223516-1.502866-1.428395-3.547582-1.042299 2.24738-2.087986.863058-3.902504 2.319629 4.107383 3.968254.02333z" opacity="1" transform="matrix(.67438479 0 0 .67438479 143.14839 56.682112)"/><path d="m-91.916671 43.82608-4.89118-2.515647-5.484379-2.660873 5.852547-2.75687 4.057564-2.936648-.518695 6.112483z" opacity="1" transform="matrix(.67438479 0 0 .67438479 171.33585 53.264601)"/><path d="m-91.082269 69.256553.139087 6.396172-4.634602-.194067-5.745526-1.34609 1.724417-5.006552 1.614138-6.688271 6.435848 2.92503 3.882409.936123z" opacity="1" transform="matrix(.67438479 0 0 .67438479 134.74417 .681728)"/><path d="m-78.098576 64.772227 4.836886 1.955736 5.757926 1.046472-4.012304 3.440005-3.663752 3.971696-.154137-5.540876z" opacity="1" transform="matrix(.67438479 0 0 .67438479 115.02578 2.854071)"/><path d="m-47.168241 58.487163-.479785 2.337188-.951454-3.884746-2.184295-.918974 2.881461-1.419797.580487-1.268494.951423 1.81057 3.211005 1.777909z" opacity="1" transform="matrix(.67438479 0 0 .67438479 105.31073 52.650937)"/><path d="m-139.86237-5.7834461-9.02205 8.673446.78834-9.1662897-2.25712-10.7640902 8.83162 3.479468 10.25152 3.12575z" opacity="1" transform="matrix(0 .2515722 -.2515722 0 63.80673 90.347522)"/><path d="m-47.510508 25.895725-2.747393.135039-.612141-.929699-1.448541-3.515828 3.847926-.376201 2.282542-.520071-1.100601 3.616801 1.450372 1.663417z" opacity="1" transform="matrix(0 .67438479 -.67438479 0 65.835542 84.550455)"/><path d="m-62.049461 30.181898 2.609058-3.921014 1.742942-4.009614 1.101389 4.344525 2.838402 2.726397-3.711536-.397374z" opacity="1" transform="matrix(0 .67438479 -.67438479 0 83.639752 74.836159)"/><path d="m-95.221239 25.648477-2.090362 2.494936-1.699341-2.792472-1.136508-1.470499 1.124266-2.241112 2.427722-2.090096 2.257977 2.815395 2.377198-.196123z" opacity="1" transform="matrix(0 .67438479 -.67438479 0 76.30092 149.30698)"/><path d="m-32.394168 38.711693.472116-5.854465-.929566-4.203252 4.077466 2.740533 4.689108 1.524012-4.080621 2.719747z" opacity="1" transform="matrix(0 .67438479 -.67438479 0 105.37441 106.42649)"/><path d="m-39.655586 38.495725-4.766035 2.481988-1.521309-2.063691-1.318081-6.10833 4.973188 1.197384 1.75308-2.641607 1.320059 5.347733 1.474539 1.965991z" opacity="1" transform="matrix(0 .67438479 -.67438479 0 85.337849 80.394174)"/><path d="m-59.225973 39.15776-3.234755-.621874-3.52071.006 3.074796-3.35862 1.424903-2.186997 1.415358 2.858015z" opacity="1" transform="matrix(0 .67438479 -.67438479 0 95.756839 125.8979)"/><path d="m-92.411002 42.063276-3.61003 3.27449-.725315-5.146298-5.173443-2.432618 4.534622-3.28626 3.266076-3.304555 2.488616 6.609881 3.750792 3.53619z" opacity="1" transform="matrix(0 .67438479 -.67438479 0 107.81764 125.6399)"/><path d="m-88.265392 72.279389-5.399314-.300168-7.322084 2.108468 3.106775-4.679448.947952-7.326216 5.224347 5.66715z" opacity="1" transform="matrix(0 .67438479 -.67438479 0 132.63631 151.67847)"/><path d="m-77.092691 65.820699 2.318012-1.021284 4.038751 2.736399 1.931382 3.024625-1.03005 1.758855-2.269556 2.145944-4.08716-3.535251-2.093038-1.69447z" opacity="1" transform="matrix(0 .67438479 -.67438479 0 109.77893 109.09594)"/><path d="m-45.411477 58.834161-3.189333-1.224739-2.727072-.94547 2.978804-2.04424 2.099255-1.676485.428339 3.334691z" opacity="1" transform="matrix(0 .67438479 -.67438479 0 104.65395 115.69807)"/><path d="m-134.83091-6.9702982-8.95276 10.3530421-2.16044-6.6701486-7.90556-4.9798172 5.84896-2.1442291 4.53943-11.297645 6.57377 7.614752 8.25424 2.2142z" opacity="1" transform="matrix(.2515722 0 0 .2515722 113.58445 94.026542)"/><path d="m-48.303316 27.216647-1.519927-2.377558-2.386078-2.304702 3.074215.251483 3.70435-1.11395-1.388254 2.64972z" opacity="1" transform="matrix(.67438479 0 0 .67438479 117.40236 65.46797)"/><path d="m-59.93249 29.271929-3.59989-3.460988 5.095492-.05232 2.192042-2.711393-.455328 2.697053 3.599967 1.611093-2.591325 1.149028-2.320134 3.990759z" opacity="1" transform="matrix(.67438479 0 0 .67438479 123.93371 20.297163)"/><path d="m-67.639566 33.20701-4.664615-3.06567-5.965171-1.666206 5.858153-2.655714 4.489875-4.702924-.414034 6.001125z" opacity="1" transform="matrix(.67438479 0 0 .67438479 114.44117 61.480425)"/><path d="m-95.221239 25.648477-2.090362 2.494936-1.699341-2.792472-1.136508-1.470499 1.124266-2.241112 2.427722-2.090096 2.257977 2.815395 2.377198-.196123z" opacity="1" transform="matrix(.67438479 0 0 .67438479 151.72511 36.307393)"/><path d="m-62.797581 59.250327-3.747685-3.869953-3.29496-2.607571 4.554538-1.554104 5.313883-1.263562-2.37614 4.197137z" opacity="1" transform="matrix(.67438479 0 0 .67438479 112.69566 21.692608)"/><path d="m-30.391117 35.662354-5.864197-1.707183 2.274242-2.971757 3.201313-2.706214 3.675843 1.599332 3.317854 1.911707-2.11285 1.691667-.977705 5.393257z" opacity="1" transform="matrix(.67438479 0 0 .67438479 107.55727 7.960361)"/><path d="m-91.916671 43.82608-4.89118-2.515647-5.484379-2.660873 5.852547-2.75687 4.057564-2.936648-.518695 6.112483z" opacity="1" transform="matrix(.67438479 0 0 .67438479 157.13811 53.546148)"/><path d="m-91.082269 69.256553.139087 6.396172-4.634602-.194067-5.745526-1.34609 1.724417-5.006552 1.614138-6.688271 6.435848 2.92503 3.882409.936123z" opacity="1" transform="matrix(.67438479 0 0 .67438479 119.73425 52.81824)"/><path d="m-78.098576 64.772227 4.836886 1.955736 5.757926 1.046472-4.012304 3.440005-3.663752 3.971696-.154137-5.540876z" opacity="1" transform="matrix(.67438479 0 0 .67438479 116.11764 42.319214)"/><path d="m-47.168241 58.487163-.479785 2.337188-.951454-3.884746-2.184295-.918974 2.881461-1.419797.580487-1.268494.951423 1.81057 3.211005 1.777909z" opacity="1" transform="matrix(.67438479 0 0 .67438479 140.35557 33.310481)"/><path d="m-139.86965-3.0771184-10.36001 3.66205157.91413-9.28987787.86649-13.0008283 8.15651 7.589292 11.2312 8.6550614z" opacity="1" transform="matrix(.2515722 0 0 .2515722 86.687245 78.595511)"/><path d="m-134.83091-6.9702982-8.95276 10.3530421-2.16044-6.6701486-7.90556-4.9798172 5.84896-2.1442291 4.53943-11.297645 6.57377 7.614752 8.25424 2.2142z" opacity="1" transform="matrix(.2515722 0 0 .2515722 86.481567 47.703152)"/><path d="m-139.78851-2.9543271-10.33118 3.38856365.67369-9.17910895.94046-13.1248226 8.25468 7.60554 11.3543 8.9636604z" opacity="1" transform="matrix(.2515722 0 0 .2515722 129.83924 41.766484)"/><path d="m-47.510508 25.895725-2.747393.135039-.612141-.929699-1.448541-3.515828 3.847926-.376201 2.282542-.520071-1.100601 3.616801 1.450372 1.663417z" opacity="1" transform="matrix(.67438479 0 0 .67438479 55.328577 30.170112)"/><path d="m-62.049461 30.181898 2.609058-3.921014 1.742942-4.009614 1.101389 4.344525 2.838402 2.726397-3.711536-.397374z" opacity="1" transform="matrix(.67438479 0 0 .67438479 91.493535 46.946909)"/><path d="m-68.413257 32.093131-3.314272 1.081947-1.388002-2.041988-5.876933-3.140291 5.95975-1.949557 3.25873-5.743856 1.261773 5.520593 2.685914 4.323595z" opacity="1" transform="matrix(.67438479 0 0 .67438479 90.911731 22.017338)"/><path d="m-93.419907 26.365763-3.424433-1.172966-4.26871-.44105 2.806006-2.522007 2.989142-3.024779.7709 3.764809z" opacity="1" transform="matrix(.67438479 0 0 .67438479 142.33039 55.866021)"/><path d="m-30.391117 35.662354-5.864197-1.707183 2.274242-2.971757 3.201313-2.706214 3.675843 1.599332 3.317854 1.911707-2.11285 1.691667-.977705 5.393257z" opacity="1" transform="matrix(.67438479 0 0 .67438479 73.625228 32.801636)"/><path d="m-39.309885 41.548085-3.949868-3.474533-4.876775-1.996622 5.281015-1.453614 4.900907-2.952056-1.354113 5.479831z" opacity="1" transform="matrix(.67438479 0 0 .67438479 95.636633 72.268829)"/><path d="m-92.411002 42.063276-3.61003 3.27449-.725315-5.146298-5.173443-2.432618 4.534622-3.28626 3.266076-3.304555 2.488616 6.609881 3.750792 3.53619z" opacity="1" transform="matrix(.67438479 0 0 .67438479 160.31995 47.380749)"/><path d="m-88.265392 72.279389-5.399314-.300168-7.322084 2.108468 3.106775-4.679448.947952-7.326216 5.224347 5.66715z" opacity="1" transform="matrix(.67438479 0 0 .67438479 134.73601 26.950353)"/><path d="m-77.092691 65.820699 2.318012-1.021284 4.038751 2.736399 1.931382 3.024625-1.03005 1.758855-2.269556 2.145944-4.08716-3.535251-2.093038-1.69447z" opacity="1" transform="matrix(.67438479 0 0 .67438479 72.693709 15.449834)"/><path d="m-45.411477 58.834161-3.189333-1.224739-2.727072-.94547 2.978804-2.04424 2.099255-1.676485.428339 3.334691z" opacity="1" transform="matrix(.67438479 0 0 .67438479 142.87371 11.384827)"/><path d="m-141.71367-3.5604661-4.34454 10.0644076-1.77403-12.4763923-5.16468-8.4958262 8.3239-2.327147 4.45767-7.034404 1.66089 9.446389 8.71976 11.4699671z" opacity="1" transform="matrix(-.24491861 .05747561 -.05747561 -.24491861 -4.056859 97.748517)"/><path d="m-139.86237-5.7834461-9.02205 8.673446.78834-9.1662897-2.25712-10.7640902 8.83162 3.479468 10.25152 3.12575z" opacity="1" transform="matrix(-.24491861 .05747561 -.05747561 -.24491861 4.900452 52.690866)"/><path d="m-141.71367-3.5604661-4.34454 10.0644076-1.77403-12.4763923-5.16468-8.4958262 8.3239-2.327147 4.45767-7.034404 1.66089 9.446389 8.71976 11.4699671z" opacity="1" transform="matrix(-.24491861 .05747561 -.05747561 -.24491861 22.586945 46.04545)"/><path d="m-48.303316 27.216647-1.519927-2.377558-2.386078-2.304702 3.074215.251483 3.70435-1.11395-1.388254 2.64972z" opacity="1" transform="matrix(-.65654865 .15407376 -.15407376 -.65654865 67.622447 113.15454)"/><path d="m-59.93249 29.271929-3.59989-3.460988 5.095492-.05232 2.192042-2.711393-.455328 2.697053 3.599967 1.611093-2.591325 1.149028-2.320134 3.990759z" opacity="1" transform="matrix(-.65654865 .15407376 -.15407376 -.65654865 54.996677 95.722264)"/><path d="m-67.639566 33.20701-4.664615-3.06567-5.965171-1.666206 5.858153-2.655714 4.489875-4.702924-.414034 6.001125z" opacity="1" transform="matrix(-.65654865 .15407376 -.15407376 -.65654865 -19.489898 116.37478)"/><path d="m-64.77845 58.335409-3.536074 1.363031.60609-5.856085-2.444626-2.81233 4.795335-1.684483 3.864949-1.597516-.934966 6.09057 2.444578 2.474591z" opacity="1" transform="matrix(-.65654865 .15407376 -.15407376 -.65654865 58.409854 143.22373)"/><path d="m-32.394168 38.711693.472116-5.854465-.929566-4.203252 4.077466 2.740533 4.689108 1.524012-4.080621 2.719747z" opacity="1" transform="matrix(-.65654865 .15407376 -.15407376 -.65654865 87.671608 66.153266)"/><path d="m-39.655586 38.495725-4.766035 2.481988-1.521309-2.063691-1.318081-6.10833 4.973188 1.197384 1.75308-2.641607 1.320059 5.347733 1.474539 1.965991z" opacity="1" transform="matrix(-.65654865 .15407376 -.15407376 -.65654865 19.767656 106.49835)"/><path d="m-59.225973 39.15776-3.234755-.621874-3.52071.006 3.074796-3.35862 1.424903-2.186997 1.415358 2.858015z" opacity="1" transform="matrix(-.65654865 .15407376 -.15407376 -.65654865 68.610037 82.975317)"/><path d="m-77.092691 65.820699 2.318012-1.021284 4.038751 2.736399 1.931382 3.024625-1.03005 1.758855-2.269556 2.145944-4.08716-3.535251-2.093038-1.69447z" opacity="1" transform="matrix(-.65654865 .15407376 -.15407376 -.65654865 -5.590532 114.40644)"/><path d="m-45.411477 58.834161-3.189333-1.224739-2.727072-.94547 2.978804-2.04424 2.099255-1.676485.428339 3.334691z" opacity="1" transform="matrix(-.65654865 .15407376 -.15407376 -.65654865 76.897296 89.861694)"/><path d="m-134.83091-6.9702982-8.95276 10.3530421-2.16044-6.6701486-7.90556-4.9798172 5.84896-2.1442291 4.53943-11.297645 6.57377 7.614752 8.25424 2.2142z" opacity="1" transform="matrix(-.05747561 -.24491861 .24491861 -.05747561 43.139074 2.167482)"/><path d="m-139.78851-2.9543271-10.33118 3.38856365.67369-9.17910895.94046-13.1248226 8.25468 7.60554 11.3543 8.9636604z" opacity="1" transform="matrix(-.05747561 -.24491861 .24491861 -.05747561 26.996714 9.298036)"/><path d="m-47.510508 25.895725-2.747393.135039-.612141-.929699-1.448541-3.515828 3.847926-.376201 2.282542-.520071-1.100601 3.616801 1.450372 1.663417z" opacity="1" transform="matrix(-.15407376 -.65654865 .65654865 -.15407376 74.391724 58.003648)"/><path d="m-62.049461 30.181898 2.609058-3.921014 1.742942-4.009614 1.101389 4.344525 2.838402 2.726397-3.711536-.397374z" opacity="1" transform="matrix(-.15407376 -.65654865 .65654865 -.15407376 -7.383134 37.276148)"/><path d="m-68.413257 32.093131-3.314272 1.081947-1.388002-2.041988-5.876933-3.140291 5.95975-1.949557 3.25873-5.743856 1.261773 5.520593 2.685914 4.323595z" opacity="1" transform="matrix(-.15407376 -.65654865 .65654865 -.15407376 9.770972 10.295716)"/><path d="m-62.797581 59.250327-3.747685-3.869953-3.29496-2.607571 4.554538-1.554104 5.313883-1.263562-2.37614 4.197137z" opacity="1" transform="matrix(-.15407376 -.65654865 .65654865 -.15407376 31.084906 42.501076)"/><path d="m-30.391117 35.662354-5.864197-1.707183 2.274242-2.971757 3.201313-2.706214 3.675843 1.599332 3.317854 1.911707-2.11285 1.691667-.977705 5.393257z" opacity="1" transform="matrix(-.15407376 -.65654865 .65654865 -.15407376 3.221984 66.791529)"/><path d="m-39.309885 41.548085-3.949868-3.474533-4.876775-1.996622 5.281015-1.453614 4.900907-2.952056-1.354113 5.479831z" opacity="1" transform="matrix(-.15407376 -.65654865 .65654865 -.15407376 26.591299 58.132992)"/><path d="m-59.885603 38.810889-1.679821 1.223516-1.502866-1.428395-3.547582-1.042299 2.24738-2.087986.863058-3.902504 2.319629 4.107383 3.968254.02333z" opacity="1" transform="matrix(-.15407376 -.65654865 .65654865 -.15407376 72.462879 8.271643)"/><path d="m-88.265392 72.279389-5.399314-.300168-7.322084 2.108468 3.106775-4.679448.947952-7.326216 5.224347 5.66715z" opacity="1" transform="matrix(-.15407376 -.65654865 .65654865 -.15407376 16.070622 1.536633)"/><path d="m-77.092691 65.820699 2.318012-1.021284 4.038751 2.736399 1.931382 3.024625-1.03005 1.758855-2.269556 2.145944-4.08716-3.535251-2.093038-1.69447z" opacity="1" transform="matrix(-.15407376 -.65654865 .65654865 -.15407376 4.694851 33.794558)"/><path d="m-45.411477 58.834161-3.189333-1.224739-2.727072-.94547 2.978804-2.04424 2.099255-1.676485.428339 3.334691z" opacity="1" transform="matrix(-.15407376 -.65654865 .65654865 -.15407376 17.081249 21.931133)"/><path d="m-141.71367-3.5604661-4.34454 10.0644076-1.77403-12.4763923-5.16468-8.4958262 8.3239-2.327147 4.45767-7.034404 1.66089 9.446389 8.71976 11.4699671z" opacity="1" transform="matrix(-.24491861 .05747561 -.05747561 -.24491861 42.032907 38.282391)"/><path d="m-139.86237-5.7834461-9.02205 8.673446.78834-9.1662897-2.25712-10.7640902 8.83162 3.479468 10.25152 3.12575z" opacity="1" transform="matrix(-.24491861 .05747561 -.05747561 -.24491861 30.292385 72.280029)"/><path d="m-141.71367-3.5604661-4.34454 10.0644076-1.77403-12.4763923-5.16468-8.4958262 8.3239-2.327147 4.45767-7.034404 1.66089 9.446389 8.71976 11.4699671z" opacity="1" transform="matrix(-.24491861 .05747561 -.05747561 -.24491861 13.314153 100.00751)"/><path d="m-62.049461 30.181898 2.609058-3.921014 1.742942-4.009614 1.101389 4.344525 2.838402 2.726397-3.711536-.397374z" opacity="1" transform="matrix(-.65654865 .15407376 -.15407376 -.65654865 10.623187 112.64561)"/><path d="m-68.413257 32.093131-3.314272 1.081947-1.388002-2.041988-5.876933-3.140291 5.95975-1.949557 3.25873-5.743856 1.261773 5.520593 2.685914 4.323595z" opacity="1" transform="matrix(-.65654865 .15407376 -.15407376 -.65654865 48.933833 112.83231)"/><path d="m-93.419907 26.365763-3.424433-1.172966-4.26871-.44105 2.806006-2.522007 2.989142-3.024779.7709 3.764809z" opacity="1" transform="matrix(-.65654865 .15407376 -.15407376 -.65654865 -37.11926 102.92637)"/><path d="m-64.77845 58.335409-3.536074 1.363031.60609-5.856085-2.444626-2.81233 4.795335-1.684483 3.864949-1.597516-.934966 6.09057 2.444578 2.474591z" opacity="1" transform="matrix(-.65654865 .15407376 -.15407376 -.65654865 20.746515 96.147047)"/><path d="m-32.394168 38.711693.472116-5.854465-.929566-4.203252 4.077466 2.740533 4.689108 1.524012-4.080621 2.719747z" opacity="1" transform="matrix(-.65654865 .15407376 -.15407376 -.65654865 25.323328 121.94957)"/><path d="m-59.885603 38.810889-1.679821 1.223516-1.502866-1.428395-3.547582-1.042299 2.24738-2.087986.863058-3.902504 2.319629 4.107383 3.968254.02333z" opacity="1" transform="matrix(-.65654865 .15407376 -.15407376 -.65654865 34.925426 73.5975)"/><path d="m-91.916671 43.82608-4.89118-2.515647-5.484379-2.660873 5.852547-2.75687 4.057564-2.936648-.518695 6.112483z" opacity="1" transform="matrix(-.65654865 .15407376 -.15407376 -.65654865 -37.400273 117.87441)"/><path d="m-91.082269 69.256553.139087 6.396172-4.634602-.194067-5.745526-1.34609 1.724417-5.006552 1.614138-6.688271 6.435848 2.92503 3.882409.936123z" opacity="1" transform="matrix(-.65654865 .15407376 -.15407376 -.65654865 55.383798 114.14668)"/><path d="m-78.098576 64.772227 4.836886 1.955736 5.757926 1.046472-4.012304 3.440005-3.663752 3.971696-.154137-5.540876z" opacity="1" transform="matrix(-.65654865 .15407376 -.15407376 -.65654865 59.928627 136.441)"/><path d="m-47.168241 58.487163-.479785 2.337188-.951454-3.884746-2.184295-.918974 2.881461-1.419797.580487-1.268494.951423 1.81057 3.211005 1.777909z" opacity="1" transform="matrix(-.65654865 .15407376 -.15407376 -.65654865 23.384318 88.64245)"/><path d="m-88.265392 72.279389-5.399314-.300168-7.322084 2.108468 3.106775-4.679448.947952-7.326216 5.224347 5.66715z" opacity="1" transform="matrix(-.65654865 .15407376 -.15407376 -.65654865 9.631458 108.06965)"/><path d="m-141.71367-3.5604661-4.34454 10.0644076-1.77403-12.4763923-5.16468-8.4958262 8.3239-2.327147 4.45767-7.034404 1.66089 9.446389 8.71976 11.4699671z" opacity="1" transform="matrix(-.24491861 .05747561 -.05747561 -.24491861 28.584159 110.59299)"/><path d="m-139.86237-5.7834461-9.02205 8.673446.78834-9.1662897-2.25712-10.7640902 8.83162 3.479468 10.25152 3.12575z" opacity="1" transform="matrix(-.24491861 .05747561 -.05747561 -.24491861 67.688262 68.583124)"/><path d="m-141.71367-3.5604661-4.34454 10.0644076-1.77403-12.4763923-5.16468-8.4958262 8.3239-2.327147 4.45767-7.034404 1.66089 9.446389 8.71976 11.4699671z" opacity="1" transform="matrix(-.24491861 .05747561 -.05747561 -.24491861 73.066283 91.478049)"/><path d="m-48.303316 27.216647-1.519927-2.377558-2.386078-2.304702 3.074215.251483 3.70435-1.11395-1.388254 2.64972z" opacity="1" transform="matrix(-.65654865 .15407376 -.15407376 -.65654865 68.947612 120.05391)"/><path d="m-59.93249 29.271929-3.59989-3.460988 5.095492-.05232 2.192042-2.711393-.455328 2.697053 3.599967 1.611093-2.591325 1.149028-2.320134 3.990759z" opacity="1" transform="matrix(-.65654865 .15407376 -.15407376 -.65654865 16.568705 111.65719)"/><path d="m-67.639566 33.20701-4.664615-3.06567-5.965171-1.666206 5.858153-2.655714 4.489875-4.702924-.414034 6.001125z" opacity="1" transform="matrix(-.65654865 .15407376 -.15407376 -.65654865 14.530412 118.1764)"/><path d="m-95.221239 25.648477-2.090362 2.494936-1.699341-2.792472-1.136508-1.470499 1.124266-2.241112 2.427722-2.090096 2.257977 2.815395 2.377198-.196123z" opacity="1" transform="matrix(-.65654865 .15407376 -.15407376 -.65654865 28.136503 129.16201)"/><path d="m-62.797581 59.250327-3.747685-3.869953-3.29496-2.607571 4.554538-1.554104 5.313883-1.263562-2.37614 4.197137z" opacity="1" transform="matrix(-.65654865 .15407376 -.15407376 -.65654865 58.685022 138.66458)"/><path d="m-30.391117 35.662354-5.864197-1.707183 2.274242-2.971757 3.201313-2.706214 3.675843 1.599332 3.317854 1.911707-2.11285 1.691667-.977705 5.393257z" opacity="1" transform="matrix(-.65654865 .15407376 -.15407376 -.65654865 70.391022 121.63431)"/><path d="m-39.309885 41.548085-3.949868-3.474533-4.876775-1.996622 5.281015-1.453614 4.900907-2.952056-1.354113 5.479831z" opacity="1" transform="matrix(-.65654865 .15407376 -.15407376 -.65654865 13.939121 105.65826)"/><path d="m-59.885603 38.810889-1.679821 1.223516-1.502866-1.428395-3.547582-1.042299 2.24738-2.087986.863058-3.902504 2.319629 4.107383 3.968254.02333z" opacity="1" transform="matrix(-.65654865 .15407376 -.15407376 -.65654865 65.445443 126.32609)"/><path d="m-91.916671 43.82608-4.89118-2.515647-5.484379-2.660873 5.852547-2.75687 4.057564-2.936648-.518695 6.112483z" opacity="1" transform="matrix(-.65654865 .15407376 -.15407376 -.65654865 39.761579 92.212037)"/><path d="m-77.092691 65.820699 2.318012-1.021284 4.038751 2.736399 1.931382 3.024625-1.03005 1.758855-2.269556 2.145944-4.08716-3.535251-2.093038-1.69447z" opacity="1" transform="matrix(-.65654865 .15407376 -.15407376 -.65654865 33.954712 121.98521)"/><path d="m-45.411477 58.834161-3.189333-1.224739-2.727072-.94547 2.978804-2.04424 2.099255-1.676485.428339 3.334691z" opacity="1" transform="matrix(-.65654865 .15407376 -.15407376 -.65654865 79.646482 118.11885)"/></g></g><circle cx="66.145836" cy="39.542774" fill="url(#f)" filter="url(#b)" opacity=".1" r="39.542774" transform="matrix(-1.0911562 .12552257 .08859391 .77318278 134.81754 27.275014)"/><path d="m61.951671 29.756283c13.136677-1.511305 26.701996.535974 37.527428 6.478721 21.651071 11.886018 24.400031 35.009255 5.995021 51.507437-18.405241 16.498619-51.061894 20.184459-72.712383 8.298569-21.651029-11.88561-24.2949266-34.959822-5.895644-51.452876 9.199578-8.246598 21.948998-13.320561 35.085578-14.831855z" fill="url(#c)" opacity=".33"/><path d="m93.570457 7.5826051c5.42721 5.0417369 11.021923 22.7138409 11.021923 22.7138409s-5.341319-8.729969-8.508454-12.320761c-3.631026-4.116735-7.624184-7.700885-11.870987-10.3930799-5.732329-3.6339208-18.067103-7.5826051-18.067103-7.5826051s19.639678.35059713 27.424621 7.5826051z" fill="#fff" filter="url(#a)" opacity=".5" stroke-width=".229825" transform="matrix(-1.0911562 .12552257 .08859391 .77318278 135.16432 29.926475)"/><path d="m72.562344 29.088684c-2.753987-.01056-5.5162.145357-8.257857.460289-12.533071 1.439644-24.733779 6.228113-33.757648 14.304772-9.024657 8.077236-13.25354 18.25338-12.134612 28.003585 1.118928 9.750204 7.544073 18.704649 18.163928 24.525592 21.23851 11.641798 51.902385 8.189768 69.964785-7.976623 9.0311-8.083002 13.23506-18.279573 12.08986-28.038956-1.1452-9.759381-7.5873-18.718146-18.20681-24.539089-7.964115-4.365273-17.24964-6.525149-26.681885-6.724677-.393011-.0083-.786334-.01338-1.179761-.01489zm-.02144 3.820998c9.282605.04341 18.419838 2.08349 26.048421 6.264854 19.529365 10.704762 22.008905 31.530027 5.407505 46.388587-16.601609 14.858947-46.058103 18.178627-65.586942 7.473983-19.529326-10.704393-21.914248-31.485777-5.318011-46.339719 8.29806-7.427036 19.79825-11.996573 31.647504-13.357668 2.592044-.297743 5.202392-.442192 7.801521-.430037z" fill="#8b421b" opacity="1" transform="matrix(1.1086408 0 0 1.1103475 -9.820944 -7.262349)"/></g></g></svg>