<svg height="500" viewBox="0 0 132.29167 132.29167" width="500" xmlns="http://www.w3.org/2000/svg" xmlns:xlink="http://www.w3.org/1999/xlink"><radialGradient id="a" cx="72.900528" cy="267.15747" gradientTransform="matrix(.30231094 .35699489 -.38115818 .32277281 161.84934 -6.49945)" gradientUnits="userSpaceOnUse" r="8.00731"><stop offset="0" stop-color="#fcfcfc"/><stop offset="1" stop-color="#6c6748"/></radialGradient><linearGradient id="b" gradientTransform="matrix(391.593 0 0 -391.593 60.7962 7618.49)" gradientUnits="userSpaceOnUse" spreadMethod="pad" x1="0" x2="1" y1="0" y2="0"><stop offset="0" stop-color="#9f571d"/><stop offset=".511236" stop-color="#fde791"/><stop offset="1" stop-color="#b7671e"/></linearGradient><linearGradient id="c" gradientTransform="matrix(3.7795274 0 0 3.7795274 -341.5064 91.506337)" gradientUnits="userSpaceOnUse" spreadMethod="reflect" x1="207.36" x2="163.41757" xlink:href="#b" y1="26.413618" y2="38.832645"/><radialGradient id="d" cx="448.55057" cy="106.91209" gradientTransform="matrix(.48354718 .64246793 -.99000892 .74511973 266.99357 -61.436666)" gradientUnits="userSpaceOnUse" r="194.6757" spreadMethod="reflect" xlink:href="#b"/><linearGradient id="e" gradientUnits="userSpaceOnUse" spreadMethod="reflect" x1="186.04499508808" x2="239.04500545609" y1="359.63499963079" y2="296.0647434084"><stop offset="0" stop-color="#e3e1db"/><stop offset=".51123601" stop-color="#c1c0be"/><stop offset="1" stop-color="#a2a19a"/></linearGradient><g stroke-width="1.42024" transform="matrix(.70410839 0 0 .70410839 39.797626 26.643232)"><g stroke-width="1.42024" transform="matrix(.26458334 0 0 .26458334 -30.35726 -14.366256)"><g><path d="m114.91992 184.6543 1.66487 22.99692.59 163.86 6.605 17.46731c112.39796 12.53841 224.66801 25.07681 337.06597 37.61522l-.73047-202.00195z" fill="#4d2d19"/><path d="m132.99302 204.86514.6 167.11 309.18 34.49-.6-165.83z" fill="#784421"/></g><g><path d="m114.91992 184.6543-80.54492 68.44336 1.148443 204.64843 88.256347-68.76756 11.39539-16.64399-.71622-185.41966z" fill="#4d2d19"/><path d="m117.17479 371.51122-.59-163.86-64.179994 53.79.58 162z" fill="#784421"/></g></g><g stroke-width="1.42024" transform="matrix(.26458334 0 0 .26458334 -30.35726 -14.366256)"><path d="m110.80189 22.215842c-4.12 3.329999-16.427828 20.309311-24.637828 42.569311l39.200938 109.139847 11.42992 18.88945 302.66016 33.73047 11.10937-16.40039c7.32654-30.31834 10.13397-64.54091 7.91407-92.95508l.006-.0332-.008-.002c-1.09295-13.96106-3.39516-26.525268-6.98242-36.519537-3.39-9.44-7.87891-15.760625-11.87891-16.890625l-322.04963-44.476487c-2.3925.09301-4.46867 1.088241-6.76367 2.948241z" fill="#784421"/><g stroke-width="1.42024"><path d="m143.2355 38.33267v-.002c-6.34513-18.225582-20.48341-29.9598664-30.98727-36.751398-10.29558 2.0313869-19.85922 11.686303-26.647314 22.809301-9.119413 15.984184-13.817109 29.796813-18.681843 40.751606l44.447187 123.058851 23.16272 16.84381 2.26594-12.22839c16.00904-47.76685 21.02298-111.278919 6.44258-154.47978z" fill="#4d2d19"/><path d="m86.165 64.785c8.21-22.26 19.36056-39.377399 23.48056-42.707399 3.06-2.48 5.73-3.42 7.92-2.81 4 1.13 9.86733 10.831208 13.25733 20.271208 10.89 30.34 5.47211 89.156191-5.45789 134.386191z" fill="#784421"/></g><path d="m99.063604 8.3315852c-6.405049 5.2357348-14.795624 15.3067558-22.875 34.6347658l-9.269531 22.173828 328.335057 44.117541 16.11087-8.25272c4.67018-11.992222 10.35331-23.338005 14.83021-28.704582 4.86527-6.538711 9.99206-8.935314 13.41979-8.555418l-.04145-18.074358-320.00408-44.2902283c-7.62228-1.14849332-14.73338 2.1249428-20.505866 6.9511715z" fill="#4d2d19"/><path d="m395.25413 109.25772 44.20095 117.2872 20.66021-1.95312c13.06014-22.55239 18.20012-55.18845 17.82808-86.30956-.28549-23.88172-3.81685-46.871336-7.83331-58.164309-6.01788-17.821758-15.34237-34.309711-32.84828-34.58082-10.5824 1.043483-17.05283 8.03019-22.44704 15.444193-5.58293 7.112807-8.16385 8.995575-17.27974 31.393696z" fill="#4d2d19"/><g fill="#a1592b"><path d="m414.825 60.925-297.25944-41.657399c-2.5-.28-6.05 1.27-7.92 2.81-3.67 3-9.61 10.51-16.850003 27.83l304.739443 42.467399c5.16-13.25 11.02-23.89 17.31-31.43z"/><path d="m411.365 101.005c8.21-22.26 16.21-31.12 20.33-34.45 3.06-2.48 5.73-3.42 7.92-2.81 4 1.13 8.49 7.45 11.88 16.89 10.89 30.34 10 84.28-.93 129.51z"/></g></g><g stroke-width="1.42024" transform="matrix(.26458334 0 0 .26458334 -30.35726 -14.366256)"><path d="m225.77148 172.55469-22.91406 2.50195-11.64258 10.15039-4.45507-4.74023h-42.63282l-9.67578 17.58203-2.02929-2.5625-19.64258 21.55273-8.42969 12.81055-12.175782 4.86328-3.886719 5.75-19.120361-2.62685-11.4262 19.13322-4.875548 17.55574 309.18 35.77 16-3.89 64.17139-53.78278-11.43435-13.30494-30.81915-16.92666-3.56055-1.43945-29.32422-21.74219-31.30468 3.69922-30.88477-28.5-40.80859 16.05762-11.61914 5.83106-9.58985-7.97461z" fill="#8d5d34"/><path d="m271.78719 206.73733-21.78 10.93-19-15.8-11.42-10.53-9.16 1-20.45 17.83-11-11.7h-24.21l-17.61 32-5.7-7.2-4.42 4.85-10.76 16.35-12.29 4.91-6.143997 9.085-19.514286-4.87619-25.463907 20.93886 115.16118 13.32336 89 10.29668 105.01882 12.14996 16-3.89 64.17139-53.78278-26.47087-.85789-24.03833-13.297-4.18-1.69-25.43049-18.85374-32.43951 3.83374-28.68872-26.47393z" fill="url(#d)"/></g><g stroke-width="1.42024" transform="matrix(.26458334 0 0 .26458334 -30.35726 -14.366256)"><path d="m295.94727 104.61328-15.06836 49.40039s-4.4073 14.37172-7.58203 30.96094c-1.58738 8.29461-2.92281 17.18507-3.17188 25.91211s-.65233 17.43349 6.00977 27.38867l.01.0137.008.0117c7.9678 11.86363 19.05449 17.19818 31.17578 22.08008 12.12131 4.8819 25.2159 8.13476 38.09766 8.13476 6.82222 0 13.80334-.70623 21.10352-4.58007 9.22156-4.88769 13.08617-11.24564 17.27929-17.82617 4.19455-6.58279 7.78774-13.75574 10.90625-20.57422 6.23703-13.63696 10.53711-26.09571 10.53711-26.09571l15.56836-44.91992-41.41406 23.3457-14.63672 8.25-9.28125-53.91015-33.42969 38.81445z" fill="#8d5d34"/><path d="m388.245 193.545-36.88 20.79-7.14-41.47-28 32.51-18.13-46.11s-16.65 54.58-7 69c7.69 11.45 35.42 22.25 54.33 22.25 5 0 9.43-.76 12.67-2.48 13.8-7.31 30.15-54.49 30.15-54.49z" fill="url(#c)"/></g><g stroke-width="1.42024" transform="matrix(.26458334 0 0 .26458334 -30.35726 -14.366256)"><path d="m460.11529 224.5918-29.27763 14.67944-64.50785 53.39883-4.28481 17.62493.6 165.83 11.13528 19.35298 87.06545-68.88423z" fill="#4d2d19"/><path d="m34.792969 254.31445.730474 203.43164 338.256837 37.73189 4.84472-27.07298-.58-162-11.71519-13.73493z" fill="#4d2d19"/><path d="m442.815 416.475-.59-163.86-64.18 53.79.58 162z" fill="#a1592b"/><path d="m52.865 274.525.6 167.11 309.18 34.49-.6-165.83z" fill="#a1592b"/><g stroke-width="1.42024"><path d="m168.02618 268.98783v106.84961l15.92188 1.84961 73.07812 8.49414v-106.65039l-58.1543-7.13086z" fill="#4d2d19"/><path d="m186.045 359.635v-70.72l10.76 1.19 42.24 5.18v70.51z" fill="url(#e)"/><path d="m212.54583 306.521a8.4846045 7.5855919 56.164751 0 0 -7.87576 7.32388 8.4846045 7.5855919 56.164751 0 0 2.52304 6.26779l-2.52304 26.42344 15.74985 1.69686-2.52304-26.96541v-.002a8.4846045 7.5855919 56.164751 0 0 2.52304-5.72415 8.4846045 7.5855919 56.164751 0 0 -7.87409-9.02074z" fill="#463d3a"/></g></g><path id="f" d="m83.394341 108.46922c1.976438-.66781 1.897147-3.49012-.113686-4.04575l-.883669-.0661c-2.446867.36962-2.379972 3.91962.07907 4.19664z" fill="url(#a)" stroke-width=".37577"/><g stroke-width="1.42024"><g stroke-width="1.42024" transform="matrix(.26458334 0 0 .26458334 -30.35726 -14.366256)"><use height="100%" transform="matrix(3.7795275 0 0 3.7795275 -237.34861 -133.08771)" width="100%" xlink:href="#f"/><use height="100%" transform="matrix(3.7795275 0 0 3.7795275 -225.52587 -143.9311)" width="100%" xlink:href="#f"/><use height="100%" transform="matrix(3.7795275 0 0 3.7795275 -239.4862 -117.2774)" width="100%" xlink:href="#f"/><use height="100%" transform="matrix(3.7795275 0 0 3.7795275 -239.18714 -101.41599)" width="100%" xlink:href="#f"/><use height="100%" transform="matrix(3.7795275 0 0 3.7795275 -234.08409 -86.483801)" width="100%" xlink:href="#f"/><use height="100%" transform="matrix(3.7795275 0 0 3.7795275 -225.83056 -72.976921)" width="100%" xlink:href="#f"/><use height="100%" transform="matrix(3.7795275 0 0 3.7795275 -215.16755 -61.408201)" width="100%" xlink:href="#f"/><use height="100%" transform="matrix(3.7795275 0 0 3.7795275 -202.17571 -52.939001)" width="100%" xlink:href="#f"/><use height="100%" transform="matrix(3.7795275 0 0 3.7795275 -186.45059 -50.688591)" width="100%" xlink:href="#f"/><use height="100%" transform="matrix(3.7795275 0 0 3.7795275 -172.79138 -59.705771)" width="100%" xlink:href="#f"/><use height="100%" transform="matrix(3.7795275 0 0 3.7795275 -163.95913 -71.508221)" width="100%" xlink:href="#f"/><use height="100%" transform="matrix(3.7795275 0 0 3.7795275 -157.29634 -85.579981)" width="100%" xlink:href="#f"/><use height="100%" transform="matrix(3.7795275 0 0 3.7795275 -154.25532 -101.19131)" width="100%" xlink:href="#f"/><use height="100%" transform="matrix(3.7795275 0 0 3.7795275 -151.7609 -116.22677)" width="100%" xlink:href="#f"/><use height="100%" transform="matrix(3.7795275 0 0 3.7795275 -142.14181 -129.35771)" width="100%" xlink:href="#f"/><use height="100%" transform="matrix(3.7795275 0 0 3.7795275 -131.18723 -139.77906)" width="100%" xlink:href="#f"/></g><g stroke-width="22.0964" transform="matrix(.06183245187 -.01754838684 .01754838684 .06183245187 -16.47937089824 84.77691430018)"><path d="m716.94336 276.20898 6.96875 15.83985 177.23242 176.92187 17.31836 1.5 241.32811-64.40039 10.1797-14.29101 62.4402-231.91266-.034-19.84924-176.404-176.128718-15.0606-9.279307-246.15624 65.691406-12.46094 12.121094z" fill="#841525" stroke-width="83.5143" transform="scale(.26458334)"/><g stroke-width="578.262" transform="matrix(.36396883 0 0 .36396883 166.89113 -34.757655)"><path d="m292.26367 77.613281-160.63086 42.867189 42.25391 37.00391 99.63672-26.80469zm12.4043 5.701172-19.74219 55.837887 66.6543 66.78711 69.51172-6.38281zm-183.68945 45.888667-43.001958 160.42579 57.427738-22.87696 27.10156-101.1582zm150.79492 15.99219-96.70508 26.03321-25.9668 96.95507 70.69532 70.89844 96.72851-26.03125 25.9668-96.95703zm151.47656 67.81055-67.51562 6.19922-26.14649 97.54883 51.86133 52.22461zm-282.37109 66.19726-59.539066 23.71485 117.582036 117.37891 12.58398-70.31055-70.625-70.78321zm178.98632 47.02344-94.88671 25.53321-12.76758 71.37695 161.15234-43.00391z" fill="#c01c28"/><path d="m274.27344 92.083984-84.4375 21.285156c50.54411-9.18997 77.98586-8.09951 78.18945 3.17969zm37.11914 10.630856c23.53759 28.97436 58.77642 79.67234 47 95.20704l42.77734-5.49805zm-186.25586 46.61524c21.31677 25.55192 10.52096 97.94747-26.419923 120.15039l28.373043-11.49609 21.92188-86.48243zm142.39062 10.74609-82.73632 22.3086-7.17969 27.1914c70.28343-70.87661 182.48264 23.98983 95.59375 102.40625l32.48437-8.70117 21.92188-82.73242zm143.16016 63.01563-43.54883 3.38281c22.26238 15.0113 27.17745 30.98745 22.28516 81.05469zm-269.73828 70.65039c30.78267 42.08354 47.58093 72.14551 51.38281 104.54101l5.4082-44.61523zm192.45508 63.3789c-5.52473 14.64495-21.56056 22.62107-66.10742 41.84571l83.75781-23.78516z" fill="#e33d44"/></g></g></g></g></svg>