<?xml version="1.0" encoding="UTF-8" standalone="no"?>
<svg
   height="500"
   viewBox="0 0 132.29167 132.29167"
   width="500"
   version="1.1"
   id="svg14480"
   sodipodi:docname="Gold Music Box.svg"
   inkscape:version="1.2.1 (9c6d41e410, 2022-07-14)"
   xmlns:inkscape="http://www.inkscape.org/namespaces/inkscape"
   xmlns:sodipodi="http://sodipodi.sourceforge.net/DTD/sodipodi-0.dtd"
   xmlns:xlink="http://www.w3.org/1999/xlink"
   xmlns="http://www.w3.org/2000/svg"
   xmlns:svg="http://www.w3.org/2000/svg">
  <defs
     id="defs14484" />
  <sodipodi:namedview
     id="namedview14482"
     pagecolor="#ffffff"
     bordercolor="#000000"
     borderopacity="0.25"
     inkscape:showpageshadow="2"
     inkscape:pageopacity="0.0"
     inkscape:pagecheckerboard="0"
     inkscape:deskcolor="#d1d1d1"
     showgrid="false"
     inkscape:zoom="0.472"
     inkscape:cx="176.90678"
     inkscape:cy="250"
     inkscape:current-layer="svg14480" />
  <linearGradient
     id="a"
     gradientTransform="matrix(391.593 0 0 -391.593 60.7962 7618.49)"
     gradientUnits="userSpaceOnUse"
     spreadMethod="pad"
     x1="0"
     x2="1"
     y1="0"
     y2="0">
    <stop
       offset="0"
       stop-color="#9f571d"
       id="stop14406" />
    <stop
       offset=".511236"
       stop-color="#fde791"
       id="stop14408" />
    <stop
       offset="1"
       stop-color="#b7671e"
       id="stop14410" />
  </linearGradient>
  <linearGradient
     id="b"
     gradientTransform="matrix(3.7795274 0 0 3.7795274 -341.5064 91.506337)"
     gradientUnits="userSpaceOnUse"
     spreadMethod="reflect"
     x1="94.624855"
     x2="111.41892"
     xlink:href="#a"
     y1=".986893"
     y2="-4.499283" />
  <linearGradient
     id="c"
     gradientTransform="matrix(3.7795274 0 0 3.7795274 -341.5064 91.506337)"
     gradientUnits="userSpaceOnUse"
     spreadMethod="reflect"
     x1="114.91914"
     x2="103.48647"
     xlink:href="#a"
     y1="-5.435835"
     y2="-15.512359" />
  <linearGradient
     id="d"
     gradientTransform="matrix(3.7795274 0 0 3.7795274 -341.5064 91.506337)"
     gradientUnits="userSpaceOnUse"
     spreadMethod="reflect"
     x1="120.34584"
     x2="111.41892"
     xlink:href="#a"
     y1="-5.435835"
     y2="3.068382" />
  <filter
     id="e"
     color-interpolation-filters="sRGB"
     height="1.0131669"
     width="1.0039351"
     x="-0.0019675689"
     y="-0.0065834649">
    <feGaussianBlur
       stdDeviation=".057169061"
       id="feGaussianBlur14416" />
  </filter>
  <filter
     id="f"
     color-interpolation-filters="sRGB"
     height="1.0133881"
     width="1.0039396"
     x="-0.0019698065"
     y="-0.0066940707">
    <feGaussianBlur
       stdDeviation=".057169061"
       id="feGaussianBlur14419" />
  </filter>
  <filter
     id="g"
     color-interpolation-filters="sRGB"
     height="1.0130803"
     width="1.0053623"
     x="-0.0026811467"
     y="-0.0065401371">
    <feGaussianBlur
       stdDeviation=".057169061"
       id="feGaussianBlur14422" />
  </filter>
  <filter
     id="h"
     color-interpolation-filters="sRGB"
     height="1.0088601"
     width="1.0046853"
     x="-0.0023426606"
     y="-0.0044300669">
    <feGaussianBlur
       stdDeviation=".050094737"
       id="feGaussianBlur14425" />
  </filter>
  <filter
     id="i"
     color-interpolation-filters="sRGB"
     height="1.0090085"
     width="1.0047018"
     x="-0.0023508751"
     y="-0.004504275">
    <feGaussianBlur
       stdDeviation=".050094737"
       id="feGaussianBlur14428" />
  </filter>
  <filter
     id="j"
     color-interpolation-filters="sRGB"
     height="1.0114617"
     width="1.0046988"
     x="-0.0023493776"
     y="-0.0057308336">
    <feGaussianBlur
       stdDeviation=".050094737"
       id="feGaussianBlur14431" />
  </filter>
  <filter
     id="k"
     color-interpolation-filters="sRGB"
     height="1.3413965"
     width="1.1321762"
     x="-0.066625314"
     y="-0.18733761">
    <feGaussianBlur
       stdDeviation=".057169061"
       id="feGaussianBlur14434" />
  </filter>
  <linearGradient
     id="l"
     gradientTransform="matrix(3.7795274 0 0 3.7795274 -333.65752 92.015091)"
     gradientUnits="userSpaceOnUse"
     spreadMethod="reflect"
     x1="94.624855"
     x2="111.41892"
     xlink:href="#a"
     y1=".986893"
     y2="-4.499283" />
  <g
     transform="translate(-.673996 -8.502702)"
     id="g14476">
    <g
       id="g14452">
      <path
         d="m15.407242 49.665728.723583 45.5706 12.460207 4.227748 3.695056 1.253734 30.903828 10.48567 3.694368 1.2535 9.219654 3.12823 3.500536.8349v-45.458662l-2.711886-.543367-10.008039-3.286668-3.694688-1.253568-5.745708-1.949047-19.982261-6.779982-5.175013-1.750476-3.632073-1.237859z"
         fill="#84542e"
         stroke-width=".264583"
         id="path14438" />
      <path
         d="m32.286088 96.362737 30.90296 10.726393 3.695138 1.28254 9.219752 3.19997v-37.417689l-9.219851-3.129733-3.695039-1.254338-5.744895-1.950361-19.982261-6.782072-5.175804-1.756824-3.695731-1.253946-8.218009-2.789809-.0069 36.987615 8.22493 2.855506z"
         fill="url(#b)"
         stroke-width=".264583"
         id="path14440" />
      <path
         d="m40.483826 62.623745 12.590996 4.237093v-12.688568l-12.590896-4.273493z"
         fill="#84542e"
         transform="translate(.673996 8.502702)"
         id="path14442" />
      <g
         stroke-width=".264583"
         transform="matrix(.99939083 .0348995 -.0348995 .99939083 2.379271 -.594215)"
         id="g14450">
        <path
           d="m32.198688 68.37295c-.377118.002-.737394.08359-1.029395.292489-.829143.59318-.990556 1.657791-1.000456 2.889746.0197-2.463909 1.49473-3.04123 3.462838-2.371948.45428.154685.934797.375429 1.429887.65474 0 0-.847177-.975516-1.429887-1.183907-.434655-.155443-.948122-.283726-1.432987-.28112zm1.41335 2.002462c-.823929 2.756091-1.656768 5.537521-2.483569 8.273397-.02976.154908-.02358.322907.0093.497644.872946-2.888758 1.753518-5.829303 2.622063-8.735384-.051-.01409-.09825-.0233-.147795-.03566zm-8.169527 1.537891c-.776124.0071-1.493215.212744-1.968872.750858-.737697.83456 0 3.341399 0 3.341399-.78852-3.209846 1.1044-4.066932 3.798217-3.283521l.0036-.528133h-.000517c-.589624-.171721-1.228777-.286146-1.832428-.280603zm-1.968872 4.092257s.245847-.738804.740523-1.45986c-.3565.410121-.566396.928993-.740523 1.45986zm17.845939-1.141533c-1.427517-.04198-2.350072.739269-2.248442 2.599842.09676-1.600352 1.112122-2.204974 2.569353-2.048454.518169.05551 1.09458.209703 1.704289.447518l.06149-.506429c-.632839-.251916-1.229984-.412856-1.765783-.470256-.109623-.01177-.216481-.01915-.320911-.02222zm17.981849.771013c-1.459616-.02075-2.398283.743615-2.2903 2.50889.105317-1.510628 1.145959-2.098155 2.639116-1.96112.434688.03989.908231.141676 1.407666.299206l.0186-.523482c-.506399-.160957-.9861-.264491-1.426269-.304891-.119187-.01094-.235639-.01699-.348816-.0186zm-17.069243 1.080554c-.321856 3.033353-.644115 6.090119-.974101 9.10022-.0012.08933.01044.181296.02739.273885.339281-3.101616.671205-6.250364 1.002522-9.369971-.01939-.0021-.03667-.0022-.05581-.0041zm17.81545.727087c-.06812 3.137446-.137861 6.304592-.213423 9.421648.0016.02559.0073.05176.01033.07751.0757-3.147273.146557-6.339953.214974-9.499162-.0041-.000094-.0078.000084-.01189 0zm-27.520801.390674-.165881.523999c.562889-.0068 1.236034.18326 1.906343.534851 1.455646.761695 2.52121 2.084602 2.497522 3.043742.02829-1.01613-1.03884-2.809624-2.497522-3.572908-.605964-.317841-1.213423-.501961-1.740462-.529684zm4.237984 4.102592c-.0016.06342-.0078.125551-.01912.185519.011-.05826.01731-.120399.01912-.185519zm17.395321-.88315c-.959316.0026-1.675729.307322-2.129069.975134-.766149 1.128612-.487054 2.498859.249081 4.085022-1.472269-3.172328-.05223-4.814072 2.582788-4.484997l2.296501 10.360091c.391249-.312374.956473-.489247 1.603002-.490409 1.479709-.0083 2.973906.887666 3.322795 2.004529.03982.127253.06091.251156.06821.37207.04302-.301626.0223-.61198-.06821-.901237-.348889-1.116862-1.843086-2.012829-3.322795-2.004529-.646529.0012-1.211753.178036-1.603002.490409l-2.296501-10.360091c-.247033-.03085-.481419-.04659-.7028-.04599zm16.565398.620117c-.568746-.0048-1.117518.120077-1.535307.449585-.639277.504199-.659391 2.351795-.659391 2.351795.20613-2.249358 1.601362-2.758146 3.40496-2.118217.550999.195257 1.141724.498909 1.748214.892968 0 0-.741357-1.034535-1.303797-1.247986-.497473-.188795-1.085933-.32334-1.654679-.328145zm-42.654762.211357c-.316112-.0028-.619847.03348-.862996.118339l-.0041.5302c.48758-.171656 1.125833-.175827 1.807642-.0026 1.561809.391491 2.921388 1.58889 3.020488 2.673739-.05009-.542789-.42782-1.560587-.961699-2.125969-.531719-.563095-1.306552-.892707-2.058789-1.076937-.292614-.07166-.62272-.113947-.940511-.116788zm3.960999 3.319694c.0062.06731.0073.132725.0036.195854.0041-.06063.0033-.125173-.0031-.194304-.000044-.000482-.000472-.0011-.000516-.0016zm.0036.195854c-.0024.04078-.01017.07885-.01654.117822.0075-.0376.01375-.07638.01654-.117822zm40.077675-1.774569c-1.066783 2.598868-2.139903 5.218854-3.209623 7.794873-.05123.177954-.05375.377815-.01499.590662.0046-.02074.0092-.0413.01499-.06149 1.133699-2.730088 2.271614-5.510743 3.401343-8.262029-.06603-.02357-.12793-.04146-.19172-.06201zm-29.425078 1.064534c-.12249.0036-.239166.01672-.3514.03617l-.06511.539502c.524549-.107203 1.180503-.03372 1.865002.21394 1.433124.514401 2.611151 1.647281 2.799313 2.634465.01779-.07708.02789-.158752.02894-.244946.01367-1.044111-1.255423-2.354139-2.828252-2.918685-.513374-.185742-1.010613-.273453-1.44849-.26045zm18.884119.871265c-.300201-.0084-.578243.02545-.822689.100769l-.01912.534334c.49773-.158872 1.140298-.139821 1.819527.05013 1.572889.437927 2.906256 1.668557 2.976046 2.737301.0079.120695-.0025.23348-.02584.339514.0011-.0027.0025-.005.0036-.0078.588389-1.435926-1.380936-3.160304-2.953825-3.59823-.339614-.09498-.669893-.147456-.977718-.156063zm8.876461 5.200199-.217041.503329c.57874.04629 1.252633.287697 1.914612.691947 1.228811.746538 2.131101 1.871072 2.293917 2.762106.205881-.926726-.804555-2.386442-2.293917-3.291272-.58078-.354664-1.170758-.583847-1.697571-.66611zm-9.148279 4.475696c-.281329.14591-.620327.243589-1.00614.274919.395373-.0011.731629-.10413 1.00614-.274919z"
           fill="#84542e"
           filter="url(#h)"
           opacity=".75"
           id="path14444" />
        <path
           d="m35.061562 69.837977-2.70061 8.519377c.051-.000614.103853.0021.156579.0047zm-2.610177.392224c-1.125289.03487-1.747401.656603-2.282548 1.324984.69553-.868695 1.541095-1.153463 3.444235-.65319.0488-.163248.09803-.327881.146761-.490926-.502335-.138791-.933351-.19249-1.308448-.180868zm-5.181079 3.1719-.06666 9.130709c.0012-.000408.0025-.000627.0036-.001l.03204-4.37441zm-.974617.316776c-1.898729.0148-2.441511 1.126523-2.82205 2.286683.190269-.580081.47778-.784031.841809-1.043348.571545-.407141 1.030876-.706251 1.980241-.713651.01001 1.672304.02067 3.353772.02997 5.032768s.01772 3.355317.02222 5.017781c.10305 1.082259 1.450396 2.279494 3.024105 2.671155 1.467438.371556 2.612465-.562901 2.663403-1.570446-.05565.946932-1.199217 1.412012-2.663403 1.04128-1.573709-.391662-2.921055-1.588897-3.024105-2.671155-.009-3.324929-.03219-6.706458-.05219-10.051067zm5.739701 11.680942c.0033-.06479.0029-.130274-.0031-.195337-.0054-.05923-.01567-.116857-.02842-.173633.01213.05785.02267.115761.02791.173116.0062.06731.0073.132725.0036.195854zm-8.561751-9.394259c-.07123-.289947-.119458-.55976-.148312-.811837.02346.231425.07108.497439.148312.811837zm19.871139.386539-1.07332 8.873361c.02109-.0043.04361-.0066.06511-.01034l1.069702-8.840287c-.02082-.0083-.04075-.01465-.06149-.02274zm17.731734.0956-.346232 9.708451c.0058-.0019.01224-.0028.01809-.0047zm-19.140951.205672c-1.690763-.06305-2.316956.880422-2.80603 1.873271-.02979-.201781-.0485-.392526-.05839-.573609-.0197.325881-.0022.692227.05839 1.102775.516516-1.048556 1.187739-2.040093 3.102653-1.851049.01854-.174694.03728-.350519.05581-.525033-.122457-.01343-.239715-.02215-.352433-.02636zm18.123959.749308c-1.916098-.0436-2.491807 1.042283-2.910417 2.174028 0 0 .519252-.755282.894003-.998389.58962-.382496 1.054993-.665501 2.004528-.646472.0038-.176201.0081-.353178.01189-.529167zm-28.931051 1.735295c-.01076.05604-.01685.11594-.01912.178284.0021-.06093.008-.120513.01912-.178284zm-.02015.190686c-.02782 1.018897 1.039317 2.806034 2.492871 3.567224 1.476686.776336 2.818968.21894 3.10627-.671793-.290119.839831-1.631862.917764-3.10627.142626-1.450524-.759603-2.516078-2.077152-2.492871-3.038057zm5.656502 2.569352c-.0017.06321-.0078.12523-.01912.185002.01177-.06199.01776-.123393.01912-.185002zm17.469219 1.003557c-1.568569.492171-1.857351 1.673982-1.936833 2.906799.04059-.485376.132806-.755754.3514-1.091406.371356-.570223.745003-1.022524 1.585433-1.286227.822329 3.520277 1.655576 7.078762 2.463415 10.581267.35177 1.113062 1.835597 2.011735 3.325895 2.000395 1.480659-.0041 2.467174-1.185924 2.120285-2.294434-.0012-.0039-.0029-.0075-.0041-.01137.148191.994249-.746246 1.772827-2.11615 1.776636-1.490298.01134-2.974125-.887333-3.325895-2.000395-.807839-3.502504-1.641086-7.06099-2.463415-10.581266zm19.449976.307474-3.452503 8.015532c.06676.0053.134991.01379.204122.02429zm-2.984831.141594c-.990587.02891-1.615119.534423-2.168343 1.083655 0 0 .937292-.378549 1.433504-.433049.7254-.07967 1.262581-.166228 2.148189.113688.06389-.155643.128397-.312199.192237-.467672-.629278-.224616-1.15532-.309761-1.605587-.296622zm-19.010727.487309c-.01393.585522.16951 1.325312.591696 2.235005-.399576-.860974-.584668-1.608311-.591696-2.235005zm-10.402982 2.740918c-.0093.08465-.01812.170709-.02739.255281-.01366 1.044128 1.251573 2.354319 2.828251 2.919202 1.573779.568695 2.865678.182203 2.878378-.866097.0012-.09274-.0106-.187987-.02894-.284221-.198532.86038-1.405061 1.143087-2.849439.621151-1.441785-.516553-2.619701-1.65569-2.800862-2.645316zm18.559074.853694c-.0036.149328-.0067.301002-.01033.450102.06805 1.07265 1.400943 2.299718 2.970361 2.737301 1.574619.442177 2.610587-.41678 2.714563-1.435055.000854-.0084.000838-.01649.0015-.02481-.09792.923492-1.251714 1.341919-2.716113.930693-1.531239-.426937-2.834183-1.604907-2.960026-2.658236zm5.661153 1.366325c.0049.0294.0093.05865.0124.08785-.0031-.02961-.0074-.05888-.0124-.08785zm.01964.210323c.000454.0287.000908.05742-.000516.08527.0012-.02876.001-.05707.000516-.08527zm3.363103 3.490743c-.205141.926716.801708 2.384378 2.294433 3.290239 1.522169.92874 2.977127.934305 3.242696.0078.05118-.177805.05334-.377426.01447-.590145-.0045.02041-.0087.0411-.01447.06098-.265569.926553-1.720527.920969-3.242696-.0078-1.231762-.747496-2.132231-1.870426-2.294433-2.761072z"
           fill="#fde791"
           filter="url(#i)"
           opacity=".75"
           id="path14446" />
        <path
           d="m195.69789 82.118385c.44017-.11239.91986-.17572 1.42626-.19054l-.34638 9.82882c.49773-.33164 1.14055-.53588 1.81978-.5817 1.57289-.10804 2.90595.66014 2.97574 1.70466.0704 1.04846-1.14676 1.9872-2.72138 2.09159-1.56942.10718-2.9023-.65697-2.97035-1.706.0798-3.31958.15397-6.69493.22564-10.02923-1.9161.6215-2.49179 1.90727-2.9104 3.18432-.57525-2.40293.59411-3.815 2.50109-4.30192zm-16.24408 5.340997-1.13471 9.77386c.52455-.28928 1.18054-.44369 1.86504-.43363 1.57283.0186 2.84204.88836 2.82837 1.937217-.0127 1.05271-1.30461 1.887471-2.87839 1.865051-1.57668-.0176-2.84204-.888351-2.82838-1.937221.34899-3.304597.68941-6.660187 1.02977-9.983077-1.95932.46518-2.63675 1.70306-3.15843 2.94318-.35825-2.30234.75713-3.6022 2.5111-4.02263.5358-.12858 1.13279-.175 1.76563-.14275zm11.45684 1.765513 2.29655 9.562978c.39125-.448181.95633-.821011 1.60286-1.046591 1.47971-.52192 2.97394-.1449 3.32283.85086.34689.988101-.58135 2.218708-2.06201 2.736778-1.4903.52864-2.97394.1449-3.32571-.84606-.80784-3.222098-1.64138-6.490915-2.46371-9.725755-1.68086 1.11085-1.89521 2.5035-1.95371 3.84935-1.47227-2.66129-.0523-4.795951 2.58272-5.38152zm-21.23164-5.074813c.45428-.003.93512.0507 1.43021.15816l-2.70066 9.45686c.56289-.20216 1.23597-.24577 1.90628-.12685 1.55269.27352 2.6618 1.33983 2.47827 2.37046-.18393 1.0346-1.59113 1.65298-3.14462 1.3755-1.54912-.27352-2.65903-1.33586-2.47272-2.37046.87604-3.20289 1.76-6.46128 2.63168-9.68042-2.00934.1423-2.87744 1.25182-3.59097 2.39067.0197-2.47075 1.49442-3.56005 3.46253-3.57392zm-6.35622 5.74618-.0714 9.834617c.48758-.3409 1.12576-.56685 1.80757-.63027 1.56181-.15063 2.92146.57478 3.02056 1.625231.099 1.04253-1.09802 2.0137-2.65982 2.16037-1.57371.15459-2.92147-.57478-3.02452-1.62127-.009-3.321808-.0317-6.695148-.0517-10.032818-1.89873.67387-2.4418 1.97406-2.82234 3.26631-.78883-2.9373 1.10595-4.45154 3.80146-4.60217zm44.66074-5.869457c.551.004 1.14163.10266 1.74812.2862l-3.45262 9.21387c.57874-.1546 1.25261-.14667 1.91459.0278 1.52217.3964 2.54487 1.54595 2.27929 2.56073-.26557 1.018737-1.72036 1.518197-3.24253 1.117837-1.52613-.396397-2.54487-1.545947-2.27929-2.560727 1.1337-3.12361 2.27136-6.29876 3.40109-9.44219-2.01369-.0198-2.96901 1.01874-3.7737 2.09694.20613-2.32091 1.60145-3.31428 3.40505-3.3004z"
           fill="#84542e"
           filter="url(#j)"
           opacity=".33"
           transform="matrix(1 .34711091 0 1 -136.04755 -73.864198)"
           id="path14448" />
      </g>
    </g>
    <g
       stroke-width=".264583"
       id="g14460">
      <path
         d="m118.23242 54.683087-4.88843 2.060053-33.739516 14.218308-3.500536 3.192503v41.431259l3.500536.83491 38.625996-16.27754z"
         fill="#84542e"
         id="path14454" />
      <path
         d="m79.604474 74.501173v37.333447l34.393636-14.50124.0002-37.326256z"
         fill="url(#d)"
         id="path14456" />
      <path
         d="m79.604474 74.501173v37.333447l34.393636-14.50124.0002-37.326256z"
         fill="#84542e"
         opacity=".5"
         id="path14458" />
    </g>
    <g
       stroke-width=".264583"
       id="g14474">
      <path
         d="m55.246383 32.876953-35.248015 14.853227-4.591054 1.935518 4.965034 5.57117 55.73159 18.917083 3.500536.347222 34.393826-14.494045 4.23412-5.324041-.26692-1.339244-3.36784-1.142671-56.953129-19.324219z"
         fill="#84542e"
         id="path14462" />
      <path
         d="m113.23688 56.209208-56.29165-19.099139h-2.793743l-33.786053 14.237919 55.738504 18.912075 3.500536.701385 33.739516-14.218308"
         fill="url(#c)"
         id="path14464" />
      <g
         filter="url(#k)"
         id="g14472">
        <path
           d="m59.863666 42.159046c-.126117.001011-.252036.004051-.377238.008785-.758791.028693-1.512144.212814-2.232422.453202-.938443.3132-1.927169.804707-2.680456 1.274858 3.509241-1.405596 6.442873-1.548034 8.323523-.915707.433808.14607.812787.33305 1.12913.555522-.316343-.222472-.977144-.784725-1.555977-.993738-.824906-.297866-1.723741-.389996-2.60656-.382922zm-13.605888 1.212329c-2.233629-.026023-4.771801.694452-7.211446 2.013831 3.314613-1.747097 7.060853-1.951056 9.721887-1.189075h.000517l-.292489-.517281c-.690446-.197709-1.435783-.298356-2.218469-.307475zm13.998112.113171c-5.017417 1.45323-10.081953 2.919329-15.074015 4.360458-1.102084.357072-1.668393 1.150092-1.593185 1.831929.029299-.484191.585342-.976225 1.593185-1.302762 5.353348-1.545427 10.792722-3.12007 16.164905-4.676201-.355932-.096957-.720374-.165334-1.09089-.213424zm-15.472957 1.105359c-4.313443 1.758051-8.656868 3.528978-12.952698 5.272547-.942089.48509-1.279567 1.279579-.818555 1.686719-.218873-.379276.044163-.803398.818555-1.157552 4.684454-1.901303 9.428773-3.836608 14.125236-5.750554-.399233-.033795-.789361-.048801-1.172538-.05116zm19.400366 2.259811c-.795723-.019049-1.602008.085453-2.370398.259416-1.525589.345392-4.276741 1.931148-4.276741 1.931148 2.913924-1.432305 5.804854-1.812401 8.057389-1.48208.68831.100821 1.318349.26869 1.871204.492993 0 0-1.180751-.853664-1.871204-1.02216-.459225-.112068-.932815-.167888-1.41025-.179317zm-14.918469.884184-1.152901.327628c.817878.067584 1.515949.261748 1.981791.54777.328002.200543.512206.429692.567407.66611.083979-.457799-.095013-.906451-.567407-1.195276-.225727-.138595-.506899-.254754-.82889-.346232zm14.247192.539502c-4.633815 1.652152-9.29721 3.316173-13.908712 4.953702-.851269.338845-1.232408.949633-1.13223 1.509469.049334-.347812.425438-.698966 1.13223-.980302 4.998657-1.775007 10.061293-3.581946 15.077633-5.370215-.392618-.05812-.78229-.093465-1.168921-.112654zm-27.442253 1.013374-1.262972.506429c.942673-.036203 1.865521.042335 2.599842.227894.836822.208997 1.322037.524873 1.43092.86713-.0846-.483963-.568074-1.121483-1.43092-1.396297-.398751-.100761-.853995-.16876-1.33687-.205156zm52.517209.276469c-.776159.008174-1.556708.121502-2.302185.299724-1.562918.373647-4.356323 2.06499-4.356323 2.06499 2.850839-1.560384 5.951221-1.98696 8.442379-1.644861.575008.078964 1.118197.198747 1.617989.355017 0 0-1.020552-.740028-1.617989-.884184-.579523-.139833-1.180191-.197043-1.783871-.190686zm-44.550253.876949c.040443.03106.08267.061235.128674.089401.001461.0009.003186.001685.004651.002583-.048658-.029849-.090881-.060947-.133325-.091984zm5.21932.270268c-.041685.015111-.082687.030465-.126091.044959.042731-.014497.085024-.029151.126091-.044959zm38.746473.278536c-4.395687 1.731263-8.830508 3.476979-13.205913 5.195032-.735701.322599-1.041786.854-.938961 1.353406.063907-.285929.370752-.575085.938961-.824239 4.765277-1.871142 9.6042-3.775854 14.382585-5.658053-.399552-.039831-.791088-.059786-1.176672-.066146zm-49.173744.215491c-.009507.02725-.018387.054408-.032556.081649.013125-.025487.024163-.052682.032556-.081649zm-.038757.093534c-.010453.019159-.025985.038244-.038758.057361.014507-.017709.027428-.036998.038758-.057361zm32.782496 1.019059c-.42419.005769-.818939.038984-1.147734.112655-1.736211.389024-3.482057 1.592684-4.665865 2.592607 2.367616-1.999847 6.726417-2.75757 10.045382-2.235006 0 0-2.393629-.495252-4.231783-.470256zm-17.737419.512114-1.251604.438733c.904705.005323 1.743545.130207 2.376599.358634.643643.230097.997101.535269 1.064535.855762.084193-.543936-.268438-1.100331-1.064535-1.384928-.326504-.117814-.708305-.207598-1.124995-.268201zm19.20968.628902c-.362556.010104-.710833.029823-1.048515.055811-3.449761 1.925202-6.921935 3.863935-10.362158 5.774841-1.067367.680757-.723096 1.854897 1.432987 2.037602.00687.000598.014297.000457.021188.001033-1.784307-.242017-2.43497-.883925-1.454175-1.509468 3.7882-2.104194 7.618173-4.24363 11.410673-6.359819zm24.128761 1.00459c-.387351-.002968-.775879.026218-1.152385.072864-1.616281.200246-4.611605 1.613338-4.611605 1.613338 3.47384-1.259316 6.19684-1.372916 7.882723-.778247.515378.181534.934302.430064 1.248502.732255 0 0-.889387-1.036683-1.496549-1.294495-.582013-.247133-1.225103-.340769-1.870686-.345715zm-42.115777 1.120862c-.052167.023308-.102306.047313-.158647.069763.055079-.021923.107556-.045637.158647-.069763zm23.984066.06873-1.266589.490409c.939188-.02761 1.835981.064638 2.542997.259416.82795.227155 1.280855.562083 1.346688.917773.085081-.575741-.372055-1.179541-1.346688-1.44694-.378319-.104223-.812099-.177762-1.276408-.220658zm-29.678809.059944c.05311.023347.107557.046041.165365.066663.003493.001258.007347.002365.010852.003617-.062721-.022403-.118991-.046517-.176217-.07028zm47.556272.201538c-5.175028 1.342427-10.387772 2.696136-15.534453 4.025078-1.265622.370748-1.957894 1.315808-1.8495 2.069641-.033114-.581204.644297-1.187426 1.8495-1.540475.957921-.247348 1.929392-.500475 2.891296-.749308-.005808-.000774-.011229-.001824-.017053-.002584l.192236-.042891c4.488528-1.161241 9.000322-2.330635 13.4891-3.494877-.326155-.115847-.668142-.201494-1.021126-.264584zm-16.0445 2.357479c-.048755.024158-.095536.048877-.148828.072347.052194-.022981.100983-.047308.148828-.072347zm-14.506608.076998c-.247042.000006-.497783.006324-.749308.01912l-1.153418.632003c1.003146-.128851 2.064077-.15789 2.994132-.076481 1.223026.104811 2.032355.379702 2.300635.72347.415174-.571627-.493059-1.097731-2.300635-1.252637-.34877-.030529-.715751-.045484-1.091406-.045475zm8.650635.252181c.05421.018199.109549.035775.167432.051676-.05886-.016287-.112375-.034325-.167432-.051676zm10.314099 1.371493-1.073836.273368c.765674.09992 1.391467.323661 1.770951.638721.331258.271878.443983.581756.366386.888834.200323-.512176.076455-1.054541-.366386-1.418001-.180204-.149611-.417171-.277974-.697115-.382922zm.584978 2.461348c-.263574.214016-.624091.409025-1.074353.566374.00217-.000634.00455-.000915.006717-.00155.449887-.131789.803547-.331002 1.067636-.564824zm-6.111255.131258c.033376.035383.068451.069937.108003.10232.001947.001612.00424.003044.006201.00465-.04254-.034928-.078803-.070892-.114204-.10697zm.122473.113688c.034796.028064.072407.054967.111621.081132-.038211-.026697-.077036-.052766-.111621-.081132z"
           fill="#84542e"
           filter="url(#e)"
           opacity=".75"
           id="path14466" />
        <path
           d="m58.882848 43.398764c-1.413392.000098-2.882014.235428-4.309298.497127 1.129245-.207054 2.279511.005088 3.417362.060978.722582.035495 1.466313.018959 2.188497.079065.388625-.112559.779388-.225579 1.167371-.337964-.787905-.214629-1.615897-.299265-2.463932-.299206zm5.143355.136942-15.914274 4.525822c.423541.034999.813879.105053 1.157552.203089 4.970959-1.392852 10.08917-2.531999 14.756722-4.728911zm-15.257984.660425-13.961422 5.597074c.430783-.016544.856606-.007891 1.262972.022738l5.717998-2.29185 6.980452-2.798795.000517-.529167c-.000187-.000015-.00033.000015-.000517 0zm-4.318083.393258c-2.117972.033022-4.002741.500486-5.778458.999939 0 0 2.227092-.47003 3.431315-.5271.87421-.041429 1.786731-.025514 2.746085.029972.368187-.150063.738741-.301306 1.106393-.451135-.515152-.043608-1.016572-.059297-1.505335-.051676zm23.014617 3.461804-14.881263 5.216736c.438094.002578.86038.033537 1.251604.090434l13.629659-4.778003c-.124786-.050628.132438-.484427 0-.529167zm-4.643644.204122c-1.836155.005503-3.600965.380712-5.284949.784965 0 0 2.314726-.118507 3.473173-.139527.81675-.014824 1.620106-.084277 2.43706-.07493.410884-.146499.824226-.293491 1.23455-.439767-.627484-.092887-1.247783-.132575-1.859834-.130741zm-12.144996 1.244885c-.052708.474015-.608333.952008-1.588017 1.270207-1.635581.531427-3.839524.426754-4.916496-.237195-.324597-.198733-.510107-.425193-.56689-.659391-.081578.455548.097759.901335.56689 1.188558 1.076971.663949 3.280915.768622 4.916496.237195 1.078342-.350243 1.641425-1.124118 1.588017-1.799374zm41.312725 1.137915-14.213603 5.504574c.45015-.013233.889963.001894 1.304313.041858 1.572753-.589606 4.209903-1.589617 5.802747-2.264978 2.402222-1.018536 7.106543-3.281454 7.106543-3.281454zm-53.152829.243913c.116272.350534-.163298.729421-.869198 1.050582-1.379245.628-3.883045.793742-5.567102.369486-1.117024-.277277-1.607029-.739645-1.425236-1.203027-.313007.430332.218341 1.388051 1.425236 1.732194 1.684057.424256 4.187857.258514 5.567102-.369486.831537-.360063 1.09926-1.100972.869198-1.579749zm48.863685.103353c-2.090105.008669-3.983705.460246-5.771224.942578 0 0 2.293192-.174957 3.44165-.230477.868344-.041981 1.702947-.140366 2.574004-.15658.411124-.161922.824748-.324134 1.235066-.485758-.504358-.050279-.997164-.071764-1.479496-.069763zm-11.895398 1.801957-11.338843 6.212024c.346401-.044494.699697-.076351 1.052132-.096635zm-2.759522.67076c-3.15881.08803-5.32916.814139-7.28586 1.564246.97835-.375054 2.125945-.348064 3.192053-.501262 1.033787-.148552 1.947432-.353473 3.017904-.46302.358029-.199806.718472-.40052 1.075903-.599964zm-18.076933.171566c.007717.002777.014071.005986.021704.008785-.006401-.002345-.011627-.005442-.018087-.007752-.001176-.000424-.00244-.000613-.003617-.001033zm1.061434 1.058333c-.057492.342905-.435268.688618-1.131714.965833-1.499251.59748-3.900279.653977-5.356779.129191-.638231-.227672-.991566-.52862-1.064535-.84491-.07879.54039.271256 1.091096 1.064535 1.374077 1.456499.524786 3.857529.468288 5.356779-.129192.8437-.335826 1.223259-.939108 1.131714-1.494999zm39.213628 1.087272c-1.236155-.002171-2.548511.17427-3.833358.373621 0 0 2.281963.062071 3.418396.161231.659223.057518 1.354308.068664 2.013831.152962.366026-.09495.733038-.189912 1.098641-.284737-.82083-.291549-1.736056-.401388-2.69751-.403077zm5.297867.327629-16.281693 4.142383c.411744.053732.78119.14429 1.09554.264583 1.719085-.41704 5.089526-1.245929 7.045565-1.806608 2.738451-.784948 8.140588-2.600358 8.140588-2.600358zm-18.883085 1.434538c-.071525.280789-.380049.563556-.93431.807186-1.414666.622085-3.89138.762647-5.527828.310058-.812461-.223202-1.265706-.550271-1.342553-.89917-.074449.570376.380067 1.163919 1.342553 1.428337 1.636448.452589 4.113162.312026 5.527828-.310059.723319-.31794 1.027909-.841186.93431-1.336352zm-11.897465 2.638082c-.075566.104042-.194363.209605-.360185.314709-1.067943.677537-3.684664 1.078578-5.816699.892969-1.474096-.124913-2.342035-.492549-2.402954-.930176-.058002.630178.824753 1.325608 2.402954 1.459343 2.132035.185608 4.748756-.215433 5.816699-.892969.460446-.291849.560579-.587096.360185-.843876zm16.272392.711067c.01158.009551.019962.019814.031006.029456-.009561-.008372-.016399-.018183-.026355-.026355-.00147-.00122-.003173-.001899-.004651-.003101zm.38654.738457c-.028495.557057-.699688 1.126564-1.851567 1.463993-1.690369.495803-3.771441.30799-4.645194-.415995-.201305-.164812-.321434-.343715-.368453-.5271-.077009.399989.036291.784319.368453 1.056266.873753.723986 2.954825.911799 4.645194.415996 1.22301-.358265 1.90423-1.25314 1.851567-1.99316z"
           fill="#fde791"
           filter="url(#f)"
           opacity=".75"
           id="path14468" />
        <path
           d="m199.22346 55.579431c.44017-.11239.91986-.17572 1.42626-.19054l-.34638 9.82882c.49773-.33164 1.14055-.53588 1.81978-.5817 1.57289-.10804 2.90595.66014 2.97574 1.70466.0704 1.04846-1.14676 1.9872-2.72138 2.09159-1.56942.10718-2.9023-.65697-2.97035-1.706.0798-3.31958.15397-6.69493.22564-10.02923-1.9161.6215-2.49179 1.90727-2.9104 3.18432-.57525-2.40293.59411-3.815 2.50109-4.30192zm-16.24408 5.340997-1.13471 9.77386c.52455-.28928 1.18054-.44369 1.86504-.43363 1.57283.0186 2.84204.88836 2.82837 1.937217-.0127 1.05271-1.30461 1.887471-2.87839 1.865051-1.57668-.0176-2.84204-.888351-2.82838-1.937221.34899-3.304597.68941-6.660187 1.02977-9.983077-1.95932.46518-2.63675 1.70306-3.15843 2.94318-.35825-2.30234.75713-3.6022 2.5111-4.02263.5358-.12858 1.13279-.175 1.76563-.14275zm11.45684 1.765513 2.29655 9.562978c.39125-.448181.95633-.821011 1.60286-1.046591 1.47971-.52192 2.97394-.1449 3.32283.85086.34689.988101-.58135 2.218708-2.06201 2.736778-1.4903.52864-2.97394.1449-3.32571-.84606-.80784-3.222098-1.64138-6.490915-2.46371-9.725755-1.68086 1.11085-1.89521 2.5035-1.95371 3.84935-1.47227-2.66129-.0523-4.795951 2.58272-5.38152zm-21.23164-5.074813c.45428-.003.93512.0507 1.43021.15816l-2.70066 9.45686c.56289-.20216 1.23597-.24577 1.90628-.12685 1.55269.27352 2.6618 1.33983 2.47827 2.37046-.18393 1.0346-1.59113 1.65298-3.14462 1.3755-1.54912-.27352-2.65903-1.33586-2.47272-2.37046.87604-3.20289 1.76-6.46128 2.63168-9.68042-2.00934.1423-2.87744 1.25182-3.59097 2.39067.0197-2.47075 1.49442-3.56005 3.46253-3.57392zm-6.35622 5.74618-.00024.03258-.004.533505-.0673 9.268527c.48758-.3409 1.12576-.56685 1.80757-.63027 1.56181-.15063 2.92146.57478 3.02056 1.625231.099 1.04253-1.09802 2.0137-2.65982 2.16037-1.57371.15459-2.92147-.57478-3.02452-1.62127-.009-3.321808-.0317-6.695148-.0517-10.032818-1.89873.67387-2.4418 1.97406-2.82234 3.26631-.78883-2.9373 1.10595-4.45154 3.80146-4.60217zm44.66074-5.869457c.551.004 1.14163.10266 1.74812.2862l-3.45262 9.21387c.57874-.1546 1.25261-.14667 1.91459.0278 1.52217.3964 2.54487 1.54595 2.27929 2.56073-.26557 1.018737-1.72036 1.518197-3.24253 1.117837-1.52613-.396397-2.54487-1.545947-2.27929-2.560727 1.1337-3.12361 2.27136-6.29876 3.40109-9.44219-2.01369-.0198-2.96901 1.01874-3.7737 2.09694.20613-2.32091 1.60145-3.31428 3.40505-3.3004z"
           fill="#84542e"
           filter="url(#g)"
           opacity=".25"
           transform="matrix(.94560583 .32531466 -1.4127758 .57148898 -19.494566 -46.290071)"
           id="path14470" />
      </g>
    </g>
  </g>
  <g
     id="path14478">
    <path
       style="color:#000000;fill:#84542e;-inkscape-stroke:none"
       d="m 110.64453,65.152344 c -2.4371,-4.31e-4 -4.62702,1.311509 -6.11133,3.24414 -3.4e-4,4.42e-4 3.4e-4,0.0015 0,0.002 -8.7e-4,0.0011 -0.003,8.1e-4 -0.004,0.002 -0.41863,0.543208 -0.77231,1.125933 -1.07813,1.730468 l -0.008,0.01563 -0.11914,0.246094 -0.006,0.01172 c -0.27823,0.591047 -0.36571,1.288317 -0.54688,1.9375 l -6.347652,-0.002 c -0.957661,-0.0028 -2.080096,0.532403 -2.601562,1.11914 -0.196469,0.220651 -0.298268,0.38862 -0.347657,0.466797 l -0.06445,0.101563 -0.230469,0.476562 -0.04883,0.306641 c 0.04805,-0.300232 -0.172413,0.07891 -0.177734,0.988281 v 0.0059 0.0059 c 0,0.833141 0.242566,1.640725 0.875,2.345703 0.54127,0.610161 1.647116,1.115183 2.587891,1.117187 h 0.002 l 6.287111,-0.002 c 0.40189,1.46261 0.9612,2.837457 1.82617,3.955078 3.4e-4,4.41e-4 -3.4e-4,0.0015 0,0.002 1.48566,1.931857 3.67725,3.241134 6.11523,3.238281 2.43748,0.0052 4.6268,-1.307077 6.10938,-3.238281 1.50968,-1.958528 2.38395,-4.560993 2.38867,-7.414063 v -0.002 c 0.002,-2.851126 -0.86794,-5.45905 -2.38476,-7.419922 -1.0265,-1.332159 -2.4525,-2.168986 -3.99805,-2.683594 v -0.55664 z m -4.79687,5.849609 c -0.002,0.0048 -0.002,0.01079 -0.004,0.01563 -0.002,0.0046 -0.008,0.0071 -0.01,0.01172 z m 4.79297,1.080078 h 0.002 c 0.57273,3e-6 1.16895,0.615441 1.16992,1.574219 v 0.0039 0.0039 c 0.002,0.370925 -0.1104,0.729672 -0.29687,1.025391 l -0.71875,1.140625 0.72851,1.134766 c 0.1646,0.255934 0.27846,0.615506 0.2832,1.009765 -0.008,0.952187 -0.59812,1.572019 -1.16406,1.572266 -0.56685,2.43e-4 -1.16217,-0.618101 -1.16406,-1.578125 0.001,-0.310488 0.0671,-0.582909 0.17773,-0.822266 0.0345,-0.06895 0.0755,-0.147097 0.11328,-0.207031 l 0.72071,-1.140625 -0.73047,-1.132812 c -0.16469,-0.256074 -0.28092,-0.618313 -0.28516,-1.013672 0.002,-0.301782 0.0707,-0.580662 0.17774,-0.800782 l 0.006,-0.01367 0.008,-0.01172 c 0.24657,-0.526061 0.57605,-0.744664 0.97266,-0.744141 z"
       id="path14630" />
    <path
       style="color:#000000;fill:url(#l);stroke-width:4.23333;-inkscape-stroke:none"
       d="m 110.64435,67.269315 c -1.69918,-3e-4 -3.26194,0.890247 -4.43539,2.420008 -0.3242,0.420176 -0.61258,0.890555 -0.86868,1.396814 l -0.10646,0.219108 c -0.44231,0.939599 -0.74821,2.008171 -0.88676,3.152779 l -7.928634,-10e-4 c -0.51709,-0.0015 -0.80078,0.160917 -1.01597,0.406176 -0.0508,0.05525 -0.095,0.123397 -0.13849,0.192237 l -0.0429,0.08888 c -0.0341,0.213054 -0.14898,0.427892 -0.15038,0.667143 0,0.35986 0.12311,0.70946 0.33641,0.943095 0.20938,0.241719 0.49658,0.400942 1.01287,0.402042 l 7.921404,-0.001 c 0.22161,1.867472 0.8984,3.531496 1.86345,4.778003 1.1751,1.53084 2.74134,2.422074 4.44211,2.418974 1.69682,0.0052 3.25872,-0.884857 4.43177,-2.413806 1.18901,-1.541192 1.94524,-3.712863 1.94924,-6.127792 0.002,-2.409268 -0.75061,-4.583113 -1.94149,-6.122624 -1.17628,-1.528414 -2.74292,-2.418669 -4.4421,-2.418974 z m -0.001,2.696477 c 1.86925,8e-6 3.28307,1.717467 3.28507,3.68763 0.004,0.793655 -0.22999,1.542972 -0.6227,2.165759 0.39282,0.610787 0.61822,1.359767 0.62322,2.151807 -0.006,1.966232 -1.41438,3.690948 -3.28404,3.691764 -1.86966,8e-4 -3.27997,-1.724189 -3.28197,-3.694348 10e-4,-0.61921 0.13534,-1.204068 0.37879,-1.725476 0.0707,-0.145539 0.1534,-0.294851 0.2403,-0.432532 -0.39282,-0.610787 -0.61822,-1.360282 -0.62322,-2.152323 0.001,-0.619213 0.13937,-1.212072 0.39171,-1.731161 0.5388,-1.149535 1.60415,-1.96282 2.89284,-1.96112 z"
       id="path14628" />
  </g>
</svg>
