<svg height="500" viewBox="0 0 500 500" width="500" xmlns="http://www.w3.org/2000/svg" xmlns:xlink="http://www.w3.org/1999/xlink"><linearGradient id="a" gradientTransform="matrix(391.593 0 0 -391.593 60.7962 7618.49)" gradientUnits="userSpaceOnUse" spreadMethod="pad" x1="0" x2="1" y1="0" y2="0"><stop offset="0" stop-color="#9f571d"/><stop offset=".511236" stop-color="#fde791"/><stop offset="1" stop-color="#b7671e"/></linearGradient><linearGradient id="b" gradientTransform="matrix(2.6778927 0 0 3.1842362 975.31744 -1051.7299)" gradientUnits="userSpaceOnUse" spreadMethod="reflect" x1="-346.2157" x2="-196.09076" xlink:href="#a" y1="361.38376" y2="367.97873"/><linearGradient id="c" gradientTransform="matrix(2.6778927 0 0 3.1842362 975.31744 -1051.7299)" gradientUnits="userSpaceOnUse" spreadMethod="reflect" x1="-356.15289" x2="-185.56718" xlink:href="#a" y1="384.93729" y2="405.03629"/><path d="m32.990248 186.4095c-8.245042 16.47403-11.194643 35.66059-11.381247 54.08176-.200538 19.79663 2.117953 40.68813 11.051169 58.35574 14.598894 28.87287 37.904259 55.20668 66.098219 71.07712 44.621441 25.11749 99.233801 31.07436 150.438891 31.07718 51.18446.003 105.76973-5.95583 150.38169-31.0481 28.19321-15.85743 51.21527-42.31807 66.12417-71.02417 9.4135-18.12507 13.04622-39.52593 12.67379-59.94635-.343-18.80678-5.21476-37.94845-13.6777-54.747-5.06034-10.04453-12.64786-19.03987-21.43945-26.05469-25.90448-20.66921-57.23339-34.7126-88.87928-44.5511-33.80261-10.50901-69.7849-14.504435-105.18322-14.628593-33.67505-.118114-67.82884 3.787673-100.15783 13.214173-30.42537 8.87144-60.812583 21.16681-86.172249 40.1745-12.076486 9.05162-23.122271 20.52332-29.876953 34.01953zm216.207032 6.70899c55.44103.00023 109.44495 13.76075 161.13867 41.20312-11.92426 10.0596-36.35341 18.99145-55.85351 24.95508-16.20514 4.95595-33.23857 6.85327-50.07572 8.7712-18.31104 2.08582-36.77998 2.95336-55.20944 2.95341-18.42898.00005-36.89743-.86755-55.20803-2.95301-16.83691-1.91761-33.87056-3.81288-50.07517-8.76965-19.49826-5.96425-43.926911-14.89765-55.845707-24.96093 51.691457-27.43965 105.691357-41.19945 161.128907-41.19922z" fill="#84542e"/><path d="m249.19817 117.0013c-68.66 0-137.1 18.922-182.866998 55.275.234 14.35 1.818 35.624 9.332 48.23 110.633998-60.336 236.435998-60.336 347.069998 0 7.513-12.606 9.098-33.88 9.332-48.23-45.767-36.353-114.207-55.275-182.867-55.275z" fill="url(#b)" stroke-width="36"/><path d="m249.19817 117.0013c-68.66 0-137.1 18.922-182.866998 55.275.234 14.35 1.818 35.624 9.332 48.23 110.633998-60.336 236.435998-60.336 347.069998 0 7.513-12.606 9.098-33.88 9.332-48.23-45.767-36.353-114.207-55.275-182.867-55.275z" fill="#84542e" opacity=".25"/><path d="m431.77217 238.1203c-18.21448 20.58201-46.59588 30.49822-72.858 38.603-35.16385 10.85196-72.91571 12.27785-109.716 12.278-36.79992.00015-74.54378-1.45021-109.715-12.277-26.17256-8.05672-54.284833-18.04479-72.647998-38.36-10.577135-11.70151-16.234-28.786-17.77-43.857-13.73 27.256-11.623071 68.14962.672 98.648 10.48506 26.00858 33.406406 47.40677 57.933248 61.0015 42.10945 23.34041 93.38134 28.84447 141.52675 28.8445 48.14574.00003 99.4179-5.50414 141.52775-28.8445 24.52711-13.59472 47.59946-35.16522 58.04425-61.2935 12.34894-30.89162 15.72-72.275.2395-99.805-1.79327 15.62858-6.57858 33.01875-17.2365 45.062z" fill="url(#c)" stroke-width="36"/></svg>