<svg height="500" viewBox="0 0 500 500" width="500" xmlns="http://www.w3.org/2000/svg" xmlns:xlink="http://www.w3.org/1999/xlink"><linearGradient id="a" gradientTransform="matrix(391.593 0 0 -391.593 60.7962 7618.49)" gradientUnits="userSpaceOnUse" spreadMethod="pad" x1="0" x2="1" y1="0" y2="0"><stop offset="0" stop-color="#9f571d"/><stop offset=".511236" stop-color="#fde791"/><stop offset="1" stop-color="#b7671e"/></linearGradient><linearGradient id="b" gradientTransform="translate(-47.050705 92.934063)" gradientUnits="userSpaceOnUse" x1="436.81439" x2="445.32999" xlink:href="#a" y1="103.62647" y2="118.13898"/><linearGradient id="c" gradientTransform="translate(-47.050705 92.934063)" gradientUnits="userSpaceOnUse" x1="421.38184" x2="429.49817" xlink:href="#a" y1="82.362961" y2="96.550133"/><linearGradient id="d" gradientUnits="userSpaceOnUse" x1="422.53976" x2="459.67905" xlink:href="#a" y1="164.77164" y2="143.29224"/><radialGradient id="e" cx="231.41312" cy="-15.988109" gradientTransform="matrix(.00000076 2.0000015 -2.0000003 .00000102 70.946491 -457.27035)" gradientUnits="userSpaceOnUse" r="19.84375" spreadMethod="reflect" xlink:href="#f"/><linearGradient id="f" gradientTransform="matrix(237.217 0 0 -237.217 781.597 942.031)" gradientUnits="userSpaceOnUse" spreadMethod="pad" x1="0" x2="1" y1="0" y2="0"><stop offset="0" stop-color="#f03c1f"/><stop offset=".733333" stop-color="#fbc408"/><stop offset=".9818182" stop-color="#f9e105"/><stop offset="1" stop-color="#f9e105"/></linearGradient><filter id="g" color-interpolation-filters="sRGB" height="1.147896" width="1.105794" x="-.052897" y="-.073948"><feGaussianBlur stdDeviation="2.1443277"/></filter><radialGradient id="h" cx="246.22972" cy="84.553551" gradientTransform="matrix(.00000076 2.0000015 -2.0000003 .00000102 70.946491 -457.27035)" gradientUnits="userSpaceOnUse" r="19.84375" spreadMethod="reflect" xlink:href="#f"/><filter id="i" color-interpolation-filters="sRGB" height="1.1248" width="1.1248" x="-.0624" y="-.0624"><feGaussianBlur stdDeviation="2.0562243"/></filter><radialGradient id="j" cx="86.055344" cy="45.671474" gradientTransform="matrix(1.3920409 -1.2344845 -1.6193442 -.90033192 -5.63355 198.80507)" gradientUnits="userSpaceOnUse" r="40.30827"><stop offset="0" stop-color="#8b421b" stop-opacity="0"/><stop offset=".12393165" stop-color="#8b421b" stop-opacity="0"/><stop offset=".41729519" stop-color="#8b421b" stop-opacity=".1"/><stop offset=".66706532" stop-color="#8b421b" stop-opacity=".5"/><stop offset=".91683543" stop-color="#8b421b" stop-opacity=".75"/><stop offset="1" stop-color="#8b421b"/></radialGradient><filter id="k" color-interpolation-filters="sRGB" height="1.105806" width="1.083377" x="-.041688" y="-.052903"><feGaussianBlur stdDeviation=".66782007"/></filter><filter id="l" color-interpolation-filters="sRGB" height="1.059407" width="1.049495" x="-.024747" y="-.029704"><feGaussianBlur stdDeviation=".99127182"/></filter><linearGradient id="m" gradientUnits="userSpaceOnUse" spreadMethod="repeat" x1="-58.828991" x2="-27.70916" y1="64.169174" y2="38.338478"><stop offset="0" stop-color="#ffb299"/><stop offset=".0932363" stop-color="#ffb866"/><stop offset=".2234161" stop-color="#fed062"/><stop offset=".39124575" stop-color="#c1f14b"/><stop offset=".52858514" stop-color="#bee9c3"/><stop offset=".6972549" stop-color="#8cf8ed"/><stop offset=".91994596" stop-color="#a5aee5"/><stop offset="1" stop-color="#ffb299"/></linearGradient><g id="n" stroke-width="1.41321" transform="matrix(2.3230319 1.3251828 -1.3251828 2.3230319 -428.77743 -437.39724)"><g stroke-width="1.41321" transform="matrix(.50895822 -.86079123 -.86079123 -.50895822 48.450284 84.932889)"><use stroke-width="1.41321" transform="translate(-207.5094 118.37456)" xlink:href="#o"/><use stroke-width="1.41321" transform="translate(-155.04215 88.444411)" xlink:href="#o"/><use stroke-width="1.41321" transform="translate(-103.39354 58.981256)" xlink:href="#o"/><use transform="translate(-51.696769 29.490628)" xlink:href="#o"/><g id="o" stroke-width="1.41321" transform="translate(-46.154386 -329.45068)"><path d="m370.7322 174.95879c-5.33456 3.08256-10.26266 7.41151-13.43742 12.69174-1.70569 2.83692-2.49444 6.26694-2.63705 9.57409-.10443 2.42214.70974 4.80628 1.32035 7.15254.32859 1.26261.62145 2.56694 1.25624 3.70674.91157 1.63676 2.24772 3.01497 3.576 4.33617 1.74662 1.73731 3.53018 3.55632 5.7268 4.67156 2.97035 1.50805 6.33894 2.58191 9.6697 2.52387 6.1622-.10738 12.38311-2.20094 17.71674-5.28908 5.37975-3.11484 10.47959-7.42203 13.52373-12.84211 1.5181-2.70301 1.81906-5.99443 1.95853-9.09144.16359-3.63282.077-7.47486-1.32964-10.82828-.84611-2.01708-2.51926-3.60875-4.08604-5.13508-1.77247-1.72669-3.68837-3.41583-5.92781-4.46847-2.81064-1.32112-5.93994-2.26522-9.35939-2.29572-6.45345.18185-12.64994 2.21887-17.97074 5.29347zm13.02919 13.76577 2.22208 3.89021 2.10013 3.67781-6.79492 3.92379-2.19885-3.81062-2.15852-3.73827z" fill="#84542e"/><path d="m361.68001 206.37527s4.31072 4.98926 7.14258 6.53799c2.2106 1.20896 4.78611 1.98305 7.30535 1.94085 5.36646-.0899 10.76644-1.96969 15.41462-4.65323 4.64798-2.68342 9.13819-6.32616 11.73692-11.02201 1.14285-2.06511 1.28585-4.58888 1.36586-6.94778.11044-3.25609-1.23123-9.69604-1.23123-9.69604l-13.34826 7.62497 4.50566 7.88717-15.02693 8.67576-4.58059-7.93626z" fill="url(#b)" stroke-width="9.525"/><path d="m403.41411 182.53505s-4.58333-4.84833-7.50165-6.32546c-2.25943-1.14363-4.85413-1.85232-7.38549-1.78064-5.36488.15191-10.76594 1.97003-15.41396 4.65349-4.64808 2.6835-8.97135 6.42261-11.73745 11.02201-1.27743 2.12407-1.92725 4.69569-1.95527 7.17414-.0353 3.12409 2.25957 9.09643 2.25957 9.09643l13.28413-7.58833-4.538-7.86247 15.09711-8.71632 4.54275 7.95212z" fill="url(#c)" stroke-width="9.525"/></g><use stroke-width="1.41321" transform="translate(-206.69075 117.90756)" xlink:href="#p"/><use stroke-width="1.41321" transform="translate(-155.04214 88.444408)" xlink:href="#p"/><use stroke-width="1.41321" transform="translate(-103.39354 58.981257)" xlink:href="#p"/><use transform="translate(-51.696769 29.490628)" xlink:href="#p"/><g id="p" stroke-width="1.41321" transform="translate(-81.543202 -307.22679)"><path d="m418.72443 163.18619c-.2602 1.08307-.0978 2.39769.42578 3.31445l4.32221 7.56803c.62537 1.09476 1.97926 1.86589 3.24414 2.17188 1.06524.25767 2.10514.28408 3.26607-.37818l36.44351-20.78931c1.07002-.65469 1.66747-1.57083 1.98784-2.61893.38039-1.2445.68667-2.30951-.2184-3.89791l-4.31467-7.57234c-.60397-1.06026-1.57161-1.72615-2.63634-2.05342-1.23563-.37979-3.02376-.22943-3.86977.25318l-36.46288 20.80035c-.90371.51552-1.88553 1.94528-2.18749 3.2022z" fill="#84542e"/><path d="m458.86417 143.76351-35.54476 20.55721c-.8616.42028-.78458.44231-.33867 1.22282l3.43877 6.01914c.43615.90831.46245.8178 1.27938.34601l35.6674-20.59853c.35176-.39318.59418-.83192 0-1.61924l-3.26088-5.65881c-.40944-.87006-.47232-.7133-1.24124-.2686z" fill="url(#d)" stroke-width="9.525"/></g></g></g><g stroke-width="5.38987" transform="matrix(.10233217 .15476051 -.15476051 .10233217 172.77594 47.757431)"><use transform="translate(436.57633 556.32045)" xlink:href="#n"/><use transform="translate(-361.06657 556.32045)" xlink:href="#n"/><use transform="translate(-1158.7095 556.32045)" xlink:href="#n"/></g><g stroke-width="5.38987" transform="matrix(-.09817589 .15742993 .15742993 .09817589 321.22784 45.462982)"><use transform="translate(436.57633 556.32045)" xlink:href="#n"/><use transform="translate(-361.06657 556.32045)" xlink:href="#n"/><use transform="translate(-1158.7095 556.32045)" xlink:href="#n"/></g><g stroke-width="2.67278" transform="matrix(-.15935492 1.42246 -1.3874525 -.16337568 351.97052 233.82894)"><g stroke-width="2.67278"><g fill="#84542e" stroke-width="2.40901" transform="matrix(1.1086408 0 0 1.1103475 -9.820944 -7.262349)"><path d="m73.742187 29.103516c-3.144084-.06651-6.304175.08539-9.4375.445312-12.533084 1.439646-24.733933 6.228021-33.757812 14.304688-9.024666 8.077244-13.253695 18.253691-12.134766 28.003906 1.11893 9.750214 7.544197 18.704441 18.164063 24.52539 21.238531 11.641808 51.902434 8.189848 69.964848-7.976562 9.03111-8.08301 13.23504-18.279671 12.08984-28.039063-1.1452-9.759391-7.58751-18.718113-18.20703-24.539062-7.96412-4.365277-17.249388-6.525081-26.681643-6.724609zm-.175781 7.640625c8.363796.190947 16.506694 2.112449 23.189453 5.77539 8.909841 4.883814 13.470301 11.692288 14.296871 18.736328.82658 7.044041-2.03127 14.689294-9.60156 21.464844-15.140806 13.55149-43.387884 16.738191-61.207029 6.970703-8.909461-4.883444-13.443253-11.67323-14.25-18.703125s2.071007-14.670568 9.642578-21.447265c7.572242-6.777405 18.371685-11.127611 29.537109-12.410157 2.791347-.320635 5.604646-.450368 8.392578-.386718z"/><path d="m98.589227 39.174541c19.529383 10.704773 22.008963 31.529998 5.407543 46.388573-16.601625 14.858966-46.058103 18.178506-65.586961 7.473847-19.529346-10.704404-21.914156-31.485476-5.317903-46.339433 8.298069-7.427043 19.798115-11.99675 31.647381-13.357847 11.849354-1.361109 24.085345.482709 33.84994 5.83486z"/></g><path d="m97.604159 37.916498c20.457791 11.230942 23.046851 33.029926 5.661871 48.613748-17.385231 15.584264-48.171085 19.060674-68.628294 7.829873-20.457733-11.230532-22.949385-32.975846-5.564157-48.559902 8.692616-7.792136 20.710579-12.57093 33.113053-13.997769 12.402473-1.426838 25.18864.498787 35.417527 6.114052z" fill="url(#e)" filter="url(#g)"/><circle cx="66.145836" cy="39.542774" fill="url(#h)" filter="url(#i)" r="39.542774" transform="matrix(-1.0911562 .12552257 .08859391 .77318278 134.81754 27.275014)"/><path d="m61.951671 29.756283c13.136677-1.511305 26.701996.535974 37.527428 6.478721 21.651071 11.886018 24.400031 35.009255 5.995021 51.507437-18.405241 16.498619-51.061894 20.184459-72.712383 8.298569-21.651029-11.88561-24.2949266-34.959822-5.895644-51.452876 9.199578-8.246598 21.948998-13.320561 35.085578-14.831855z" fill="url(#j)" opacity=".33"/><path d="m93.570457 7.5826051c5.42721 5.0417369 11.021923 22.7138409 11.021923 22.7138409s-5.341319-8.729969-8.508454-12.320761c-3.631026-4.116735-7.624184-7.700885-11.870987-10.3930799-5.732329-3.6339208-18.067103-7.5826051-18.067103-7.5826051s19.639678.35059713 27.424621 7.5826051z" fill="#fff" filter="url(#k)" opacity=".5" stroke-width=".614271" transform="matrix(-1.0911562 .12552257 .08859391 .77318278 135.16432 29.926475)"/></g><g fill="url(#m)" filter="url(#l)" stroke-width="2.67278" transform="translate(2.167039 -1.456266)"><path d="m-139.86965-3.0771184-10.36001 3.66205157.91413-9.28987787.86649-13.0008283 8.15651 7.589292 11.2312 8.6550614z" opacity=".5" transform="matrix(.2515722 0 0 .2515722 127.46125 60.406898)"/><path d="m-139.86237-5.7834461-9.02205 8.673446.78834-9.1662897-2.25712-10.7640902 8.83162 3.479468 10.25152 3.12575z" opacity=".5" transform="matrix(.2515722 0 0 .2515722 115.26878 83.540466)"/><path d="m-139.78851-2.9543271-10.33118 3.38856365.67369-9.17910895.94046-13.1248226 8.25468 7.60554 11.3543 8.9636604z" opacity=".5" transform="matrix(.2515722 0 0 .2515722 74.43936 66.732599)"/><path d="m-48.303316 27.216647-1.519927-2.377558-2.386078-2.304702 3.074215.251483 3.70435-1.11395-1.388254 2.64972z" opacity=".5" transform="matrix(.67438479 0 0 .67438479 62.238714 57.75468)"/><path d="m-62.049461 30.181898 2.609058-3.921014 1.742942-4.009614 1.101389 4.344525 2.838402 2.726397-3.711536-.397374z" opacity=".5" transform="matrix(.67438479 0 0 .67438479 68.149914 29.530263)"/><path d="m-67.639566 33.20701-4.664615-3.06567-5.965171-1.666206 5.858153-2.655714 4.489875-4.702924-.414034 6.001125z" opacity=".5" transform="matrix(.67438479 0 0 .67438479 144.3556 48.198168)"/><path d="m-93.419907 26.365763-3.424433-1.172966-4.26871-.44105 2.806006-2.522007 2.989142-3.024779.7709 3.764809z" opacity=".5" transform="matrix(.67438479 0 0 .67438479 156.28911 73.059376)"/><path d="m-62.797581 59.250327-3.747685-3.869953-3.29496-2.607571 4.554538-1.554104 5.313883-1.263562-2.37614 4.197137z" opacity=".5" transform="matrix(.67438479 0 0 .67438479 129.35415 38.147363)"/><path d="m-32.394168 38.711693.472116-5.854465-.929566-4.203252 4.077466 2.740533 4.689108 1.524012-4.080621 2.719747z" opacity=".5" transform="matrix(.67438479 0 0 .67438479 97.069904 22.569855)"/><path d="m-39.309885 41.548085-3.949868-3.474533-4.876775-1.996622 5.281015-1.453614 4.900907-2.952056-1.354113 5.479831z" opacity=".5" transform="matrix(.67438479 0 0 .67438479 117.99614 20.177419)"/><path d="m-59.225973 39.15776-3.234755-.621874-3.52071.006 3.074796-3.35862 1.424903-2.186997 1.415358 2.858015z" opacity=".5" transform="matrix(.67438479 0 0 .67438479 143.14839 56.682112)"/><path d="m-91.916671 43.82608-4.89118-2.515647-5.484379-2.660873 5.852547-2.75687 4.057564-2.936648-.518695 6.112483z" opacity=".5" transform="matrix(.67438479 0 0 .67438479 171.33585 53.264601)"/><path d="m-88.265392 72.279389-5.399314-.300168-7.322084 2.108468 3.106775-4.679448.947952-7.326216 5.224347 5.66715z" opacity=".5" transform="matrix(.67438479 0 0 .67438479 134.74417 .681728)"/><path d="m-78.098576 64.772227 4.836886 1.955736 5.757926 1.046472-4.012304 3.440005-3.663752 3.971696-.154137-5.540876z" opacity=".5" transform="matrix(.67438479 0 0 .67438479 115.02578 2.854071)"/><path d="m-45.411477 58.834161-3.189333-1.224739-2.727072-.94547 2.978804-2.04424 2.099255-1.676485.428339 3.334691z" opacity=".5" transform="matrix(.67438479 0 0 .67438479 105.31073 52.650937)"/><path d="m-139.86237-5.7834461-9.02205 8.673446.78834-9.1662897-2.25712-10.7640902 8.83162 3.479468 10.25152 3.12575z" opacity=".5" transform="matrix(0 .2515722 -.2515722 0 63.80673 90.347522)"/><path d="m-48.303316 27.216647-1.519927-2.377558-2.386078-2.304702 3.074215.251483 3.70435-1.11395-1.388254 2.64972z" opacity=".5" transform="matrix(0 .67438479 -.67438479 0 65.835542 84.550455)"/><path d="m-62.049461 30.181898 2.609058-3.921014 1.742942-4.009614 1.101389 4.344525 2.838402 2.726397-3.711536-.397374z" opacity=".5" transform="matrix(0 .67438479 -.67438479 0 83.639752 74.836159)"/><path d="m-93.419907 26.365763-3.424433-1.172966-4.26871-.44105 2.806006-2.522007 2.989142-3.024779.7709 3.764809z" opacity=".5" transform="matrix(0 .67438479 -.67438479 0 76.30092 149.30698)"/><path d="m-32.394168 38.711693.472116-5.854465-.929566-4.203252 4.077466 2.740533 4.689108 1.524012-4.080621 2.719747z" opacity=".5" transform="matrix(0 .67438479 -.67438479 0 105.37441 106.42649)"/><path d="m-39.309885 41.548085-3.949868-3.474533-4.876775-1.996622 5.281015-1.453614 4.900907-2.952056-1.354113 5.479831z" opacity=".5" transform="matrix(0 .67438479 -.67438479 0 85.337849 80.394174)"/><path d="m-59.225973 39.15776-3.234755-.621874-3.52071.006 3.074796-3.35862 1.424903-2.186997 1.415358 2.858015z" opacity=".5" transform="matrix(0 .67438479 -.67438479 0 95.756839 125.8979)"/><path d="m-91.916671 43.82608-4.89118-2.515647-5.484379-2.660873 5.852547-2.75687 4.057564-2.936648-.518695 6.112483z" opacity=".5" transform="matrix(0 .67438479 -.67438479 0 107.81764 125.6399)"/><path d="m-88.265392 72.279389-5.399314-.300168-7.322084 2.108468 3.106775-4.679448.947952-7.326216 5.224347 5.66715z" opacity=".5" transform="matrix(0 .67438479 -.67438479 0 132.63631 151.67847)"/><path d="m-78.098576 64.772227 4.836886 1.955736 5.757926 1.046472-4.012304 3.440005-3.663752 3.971696-.154137-5.540876z" opacity=".5" transform="matrix(0 .67438479 -.67438479 0 109.77893 109.09594)"/><path d="m-45.411477 58.834161-3.189333-1.224739-2.727072-.94547 2.978804-2.04424 2.099255-1.676485.428339 3.334691z" opacity=".5" transform="matrix(0 .67438479 -.67438479 0 104.65395 115.69807)"/><path d="m-139.86237-5.7834461-9.02205 8.673446.78834-9.1662897-2.25712-10.7640902 8.83162 3.479468 10.25152 3.12575z" opacity=".5" transform="matrix(.2515722 0 0 .2515722 113.58445 94.026542)"/><path d="m-48.303316 27.216647-1.519927-2.377558-2.386078-2.304702 3.074215.251483 3.70435-1.11395-1.388254 2.64972z" opacity=".5" transform="matrix(.67438479 0 0 .67438479 117.40236 65.46797)"/><path d="m-62.049461 30.181898 2.609058-3.921014 1.742942-4.009614 1.101389 4.344525 2.838402 2.726397-3.711536-.397374z" opacity=".5" transform="matrix(.67438479 0 0 .67438479 123.93371 20.297163)"/><path d="m-67.639566 33.20701-4.664615-3.06567-5.965171-1.666206 5.858153-2.655714 4.489875-4.702924-.414034 6.001125z" opacity=".5" transform="matrix(.67438479 0 0 .67438479 114.44117 61.480425)"/><path d="m-93.419907 26.365763-3.424433-1.172966-4.26871-.44105 2.806006-2.522007 2.989142-3.024779.7709 3.764809z" opacity=".5" transform="matrix(.67438479 0 0 .67438479 151.72511 36.307393)"/><path d="m-62.797581 59.250327-3.747685-3.869953-3.29496-2.607571 4.554538-1.554104 5.313883-1.263562-2.37614 4.197137z" opacity=".5" transform="matrix(.67438479 0 0 .67438479 112.69566 21.692608)"/><path d="m-32.394168 38.711693.472116-5.854465-.929566-4.203252 4.077466 2.740533 4.689108 1.524012-4.080621 2.719747z" opacity=".5" transform="matrix(.67438479 0 0 .67438479 107.55727 7.960361)"/><path d="m-91.916671 43.82608-4.89118-2.515647-5.484379-2.660873 5.852547-2.75687 4.057564-2.936648-.518695 6.112483z" opacity=".5" transform="matrix(.67438479 0 0 .67438479 157.13811 53.546148)"/><path d="m-88.265392 72.279389-5.399314-.300168-7.322084 2.108468 3.106775-4.679448.947952-7.326216 5.224347 5.66715z" opacity=".5" transform="matrix(.67438479 0 0 .67438479 119.73425 52.81824)"/><path d="m-78.098576 64.772227 4.836886 1.955736 5.757926 1.046472-4.012304 3.440005-3.663752 3.971696-.154137-5.540876z" opacity=".5" transform="matrix(.67438479 0 0 .67438479 116.11764 42.319214)"/><path d="m-45.411477 58.834161-3.189333-1.224739-2.727072-.94547 2.978804-2.04424 2.099255-1.676485.428339 3.334691z" opacity=".5" transform="matrix(.67438479 0 0 .67438479 140.35557 33.310481)"/><path d="m-139.86965-3.0771184-10.36001 3.66205157.91413-9.28987787.86649-13.0008283 8.15651 7.589292 11.2312 8.6550614z" opacity=".5" transform="matrix(.2515722 0 0 .2515722 86.687245 78.595511)"/><path d="m-139.86237-5.7834461-9.02205 8.673446.78834-9.1662897-2.25712-10.7640902 8.83162 3.479468 10.25152 3.12575z" opacity=".5" transform="matrix(.2515722 0 0 .2515722 86.481567 47.703152)"/><path d="m-139.78851-2.9543271-10.33118 3.38856365.67369-9.17910895.94046-13.1248226 8.25468 7.60554 11.3543 8.9636604z" opacity=".5" transform="matrix(.2515722 0 0 .2515722 129.83924 41.766484)"/><path d="m-48.303316 27.216647-1.519927-2.377558-2.386078-2.304702 3.074215.251483 3.70435-1.11395-1.388254 2.64972z" opacity=".5" transform="matrix(.67438479 0 0 .67438479 55.328577 30.170112)"/><path d="m-62.049461 30.181898 2.609058-3.921014 1.742942-4.009614 1.101389 4.344525 2.838402 2.726397-3.711536-.397374z" opacity=".5" transform="matrix(.67438479 0 0 .67438479 91.493535 46.946909)"/><path d="m-67.639566 33.20701-4.664615-3.06567-5.965171-1.666206 5.858153-2.655714 4.489875-4.702924-.414034 6.001125z" opacity=".5" transform="matrix(.67438479 0 0 .67438479 90.911731 22.017338)"/><path d="m-93.419907 26.365763-3.424433-1.172966-4.26871-.44105 2.806006-2.522007 2.989142-3.024779.7709 3.764809z" opacity=".5" transform="matrix(.67438479 0 0 .67438479 142.33039 55.866021)"/><path d="m-32.394168 38.711693.472116-5.854465-.929566-4.203252 4.077466 2.740533 4.689108 1.524012-4.080621 2.719747z" opacity=".5" transform="matrix(.67438479 0 0 .67438479 73.625228 32.801636)"/><path d="m-39.309885 41.548085-3.949868-3.474533-4.876775-1.996622 5.281015-1.453614 4.900907-2.952056-1.354113 5.479831z" opacity=".5" transform="matrix(.67438479 0 0 .67438479 95.636633 72.268829)"/><path d="m-91.916671 43.82608-4.89118-2.515647-5.484379-2.660873 5.852547-2.75687 4.057564-2.936648-.518695 6.112483z" opacity=".5" transform="matrix(.67438479 0 0 .67438479 160.31995 47.380749)"/><path d="m-88.265392 72.279389-5.399314-.300168-7.322084 2.108468 3.106775-4.679448.947952-7.326216 5.224347 5.66715z" opacity=".5" transform="matrix(.67438479 0 0 .67438479 134.73601 26.950353)"/><path d="m-78.098576 64.772227 4.836886 1.955736 5.757926 1.046472-4.012304 3.440005-3.663752 3.971696-.154137-5.540876z" opacity=".5" transform="matrix(.67438479 0 0 .67438479 72.693709 15.449834)"/><path d="m-45.411477 58.834161-3.189333-1.224739-2.727072-.94547 2.978804-2.04424 2.099255-1.676485.428339 3.334691z" opacity=".5" transform="matrix(.67438479 0 0 .67438479 142.87371 11.384827)"/><path d="m-139.86965-3.0771184-10.36001 3.66205157.91413-9.28987787.86649-13.0008283 8.15651 7.589292 11.2312 8.6550614z" opacity=".5" transform="matrix(-.24491861 .05747561 -.05747561 -.24491861 -4.056859 97.748517)"/><path d="m-139.86237-5.7834461-9.02205 8.673446.78834-9.1662897-2.25712-10.7640902 8.83162 3.479468 10.25152 3.12575z" opacity=".5" transform="matrix(-.24491861 .05747561 -.05747561 -.24491861 4.900452 52.690866)"/><path d="m-139.78851-2.9543271-10.33118 3.38856365.67369-9.17910895.94046-13.1248226 8.25468 7.60554 11.3543 8.9636604z" opacity=".5" transform="matrix(-.24491861 .05747561 -.05747561 -.24491861 22.586945 46.04545)"/><path d="m-48.303316 27.216647-1.519927-2.377558-2.386078-2.304702 3.074215.251483 3.70435-1.11395-1.388254 2.64972z" opacity=".5" transform="matrix(-.65654865 .15407376 -.15407376 -.65654865 67.622447 113.15454)"/><path d="m-62.049461 30.181898 2.609058-3.921014 1.742942-4.009614 1.101389 4.344525 2.838402 2.726397-3.711536-.397374z" opacity=".5" transform="matrix(-.65654865 .15407376 -.15407376 -.65654865 54.996677 95.722264)"/><path d="m-67.639566 33.20701-4.664615-3.06567-5.965171-1.666206 5.858153-2.655714 4.489875-4.702924-.414034 6.001125z" opacity=".5" transform="matrix(-.65654865 .15407376 -.15407376 -.65654865 -19.489898 116.37478)"/><path d="m-62.797581 59.250327-3.747685-3.869953-3.29496-2.607571 4.554538-1.554104 5.313883-1.263562-2.37614 4.197137z" opacity=".5" transform="matrix(-.65654865 .15407376 -.15407376 -.65654865 58.409854 143.22373)"/><path d="m-32.394168 38.711693.472116-5.854465-.929566-4.203252 4.077466 2.740533 4.689108 1.524012-4.080621 2.719747z" opacity=".5" transform="matrix(-.65654865 .15407376 -.15407376 -.65654865 87.671608 66.153266)"/><path d="m-39.309885 41.548085-3.949868-3.474533-4.876775-1.996622 5.281015-1.453614 4.900907-2.952056-1.354113 5.479831z" opacity=".5" transform="matrix(-.65654865 .15407376 -.15407376 -.65654865 19.767656 106.49835)"/><path d="m-59.225973 39.15776-3.234755-.621874-3.52071.006 3.074796-3.35862 1.424903-2.186997 1.415358 2.858015z" opacity=".5" transform="matrix(-.65654865 .15407376 -.15407376 -.65654865 68.610037 82.975317)"/><path d="m-78.098576 64.772227 4.836886 1.955736 5.757926 1.046472-4.012304 3.440005-3.663752 3.971696-.154137-5.540876z" opacity=".5" transform="matrix(-.65654865 .15407376 -.15407376 -.65654865 -5.590532 114.40644)"/><path d="m-45.411477 58.834161-3.189333-1.224739-2.727072-.94547 2.978804-2.04424 2.099255-1.676485.428339 3.334691z" opacity=".5" transform="matrix(-.65654865 .15407376 -.15407376 -.65654865 76.897296 89.861694)"/><path d="m-139.86237-5.7834461-9.02205 8.673446.78834-9.1662897-2.25712-10.7640902 8.83162 3.479468 10.25152 3.12575z" opacity=".5" transform="matrix(-.05747561 -.24491861 .24491861 -.05747561 43.139074 2.167482)"/><path d="m-139.78851-2.9543271-10.33118 3.38856365.67369-9.17910895.94046-13.1248226 8.25468 7.60554 11.3543 8.9636604z" opacity=".5" transform="matrix(-.05747561 -.24491861 .24491861 -.05747561 26.996714 9.298036)"/><path d="m-48.303316 27.216647-1.519927-2.377558-2.386078-2.304702 3.074215.251483 3.70435-1.11395-1.388254 2.64972z" opacity=".5" transform="matrix(-.15407376 -.65654865 .65654865 -.15407376 74.391724 58.003648)"/><path d="m-62.049461 30.181898 2.609058-3.921014 1.742942-4.009614 1.101389 4.344525 2.838402 2.726397-3.711536-.397374z" opacity=".5" transform="matrix(-.15407376 -.65654865 .65654865 -.15407376 -7.383134 37.276148)"/><path d="m-67.639566 33.20701-4.664615-3.06567-5.965171-1.666206 5.858153-2.655714 4.489875-4.702924-.414034 6.001125z" opacity=".5" transform="matrix(-.15407376 -.65654865 .65654865 -.15407376 9.770972 10.295716)"/><path d="m-62.797581 59.250327-3.747685-3.869953-3.29496-2.607571 4.554538-1.554104 5.313883-1.263562-2.37614 4.197137z" opacity=".5" transform="matrix(-.15407376 -.65654865 .65654865 -.15407376 31.084906 42.501076)"/><path d="m-32.394168 38.711693.472116-5.854465-.929566-4.203252 4.077466 2.740533 4.689108 1.524012-4.080621 2.719747z" opacity=".5" transform="matrix(-.15407376 -.65654865 .65654865 -.15407376 3.221984 66.791529)"/><path d="m-39.309885 41.548085-3.949868-3.474533-4.876775-1.996622 5.281015-1.453614 4.900907-2.952056-1.354113 5.479831z" opacity=".5" transform="matrix(-.15407376 -.65654865 .65654865 -.15407376 26.591299 58.132992)"/><path d="m-59.225973 39.15776-3.234755-.621874-3.52071.006 3.074796-3.35862 1.424903-2.186997 1.415358 2.858015z" opacity=".5" transform="matrix(-.15407376 -.65654865 .65654865 -.15407376 72.462879 8.271643)"/><path d="m-88.265392 72.279389-5.399314-.300168-7.322084 2.108468 3.106775-4.679448.947952-7.326216 5.224347 5.66715z" opacity=".5" transform="matrix(-.15407376 -.65654865 .65654865 -.15407376 16.070622 1.536633)"/><path d="m-78.098576 64.772227 4.836886 1.955736 5.757926 1.046472-4.012304 3.440005-3.663752 3.971696-.154137-5.540876z" opacity=".5" transform="matrix(-.15407376 -.65654865 .65654865 -.15407376 4.694851 33.794558)"/><path d="m-45.411477 58.834161-3.189333-1.224739-2.727072-.94547 2.978804-2.04424 2.099255-1.676485.428339 3.334691z" opacity=".5" transform="matrix(-.15407376 -.65654865 .65654865 -.15407376 17.081249 21.931133)"/><path d="m-139.86965-3.0771184-10.36001 3.66205157.91413-9.28987787.86649-13.0008283 8.15651 7.589292 11.2312 8.6550614z" opacity=".5" transform="matrix(-.24491861 .05747561 -.05747561 -.24491861 42.032907 38.282391)"/><path d="m-139.86237-5.7834461-9.02205 8.673446.78834-9.1662897-2.25712-10.7640902 8.83162 3.479468 10.25152 3.12575z" opacity=".5" transform="matrix(-.24491861 .05747561 -.05747561 -.24491861 30.292385 72.280029)"/><path d="m-139.78851-2.9543271-10.33118 3.38856365.67369-9.17910895.94046-13.1248226 8.25468 7.60554 11.3543 8.9636604z" opacity=".5" transform="matrix(-.24491861 .05747561 -.05747561 -.24491861 13.314153 100.00751)"/><path d="m-62.049461 30.181898 2.609058-3.921014 1.742942-4.009614 1.101389 4.344525 2.838402 2.726397-3.711536-.397374z" opacity=".5" transform="matrix(-.65654865 .15407376 -.15407376 -.65654865 10.623187 112.64561)"/><path d="m-67.639566 33.20701-4.664615-3.06567-5.965171-1.666206 5.858153-2.655714 4.489875-4.702924-.414034 6.001125z" opacity=".5" transform="matrix(-.65654865 .15407376 -.15407376 -.65654865 48.933833 112.83231)"/><path d="m-93.419907 26.365763-3.424433-1.172966-4.26871-.44105 2.806006-2.522007 2.989142-3.024779.7709 3.764809z" opacity=".5" transform="matrix(-.65654865 .15407376 -.15407376 -.65654865 -37.11926 102.92637)"/><path d="m-62.797581 59.250327-3.747685-3.869953-3.29496-2.607571 4.554538-1.554104 5.313883-1.263562-2.37614 4.197137z" opacity=".5" transform="matrix(-.65654865 .15407376 -.15407376 -.65654865 20.746515 96.147047)"/><path d="m-32.394168 38.711693.472116-5.854465-.929566-4.203252 4.077466 2.740533 4.689108 1.524012-4.080621 2.719747z" opacity=".5" transform="matrix(-.65654865 .15407376 -.15407376 -.65654865 25.323328 121.94957)"/><path d="m-59.225973 39.15776-3.234755-.621874-3.52071.006 3.074796-3.35862 1.424903-2.186997 1.415358 2.858015z" opacity=".5" transform="matrix(-.65654865 .15407376 -.15407376 -.65654865 34.925426 73.5975)"/><path d="m-91.916671 43.82608-4.89118-2.515647-5.484379-2.660873 5.852547-2.75687 4.057564-2.936648-.518695 6.112483z" opacity=".5" transform="matrix(-.65654865 .15407376 -.15407376 -.65654865 -37.400273 117.87441)"/><path d="m-88.265392 72.279389-5.399314-.300168-7.322084 2.108468 3.106775-4.679448.947952-7.326216 5.224347 5.66715z" opacity=".5" transform="matrix(-.65654865 .15407376 -.15407376 -.65654865 55.383798 114.14668)"/><path d="m-78.098576 64.772227 4.836886 1.955736 5.757926 1.046472-4.012304 3.440005-3.663752 3.971696-.154137-5.540876z" opacity=".5" transform="matrix(-.65654865 .15407376 -.15407376 -.65654865 59.928627 136.441)"/><path d="m-45.411477 58.834161-3.189333-1.224739-2.727072-.94547 2.978804-2.04424 2.099255-1.676485.428339 3.334691z" opacity=".5" transform="matrix(-.65654865 .15407376 -.15407376 -.65654865 23.384318 88.64245)"/><path d="m-88.265392 72.279389-5.399314-.300168-7.322084 2.108468 3.106775-4.679448.947952-7.326216 5.224347 5.66715z" opacity=".5" transform="matrix(-.65654865 .15407376 -.15407376 -.65654865 9.631458 108.06965)"/><path d="m-139.86965-3.0771184-10.36001 3.66205157.91413-9.28987787.86649-13.0008283 8.15651 7.589292 11.2312 8.6550614z" opacity=".5" transform="matrix(-.24491861 .05747561 -.05747561 -.24491861 28.584159 110.59299)"/><path d="m-139.86237-5.7834461-9.02205 8.673446.78834-9.1662897-2.25712-10.7640902 8.83162 3.479468 10.25152 3.12575z" opacity=".5" transform="matrix(-.24491861 .05747561 -.05747561 -.24491861 67.688262 68.583124)"/><path d="m-139.78851-2.9543271-10.33118 3.38856365.67369-9.17910895.94046-13.1248226 8.25468 7.60554 11.3543 8.9636604z" opacity=".5" transform="matrix(-.24491861 .05747561 -.05747561 -.24491861 73.066283 91.478049)"/><path d="m-48.303316 27.216647-1.519927-2.377558-2.386078-2.304702 3.074215.251483 3.70435-1.11395-1.388254 2.64972z" opacity=".5" transform="matrix(-.65654865 .15407376 -.15407376 -.65654865 68.947612 120.05391)"/><path d="m-62.049461 30.181898 2.609058-3.921014 1.742942-4.009614 1.101389 4.344525 2.838402 2.726397-3.711536-.397374z" opacity=".5" transform="matrix(-.65654865 .15407376 -.15407376 -.65654865 16.568705 111.65719)"/><path d="m-67.639566 33.20701-4.664615-3.06567-5.965171-1.666206 5.858153-2.655714 4.489875-4.702924-.414034 6.001125z" opacity=".5" transform="matrix(-.65654865 .15407376 -.15407376 -.65654865 14.530412 118.1764)"/><path d="m-93.419907 26.365763-3.424433-1.172966-4.26871-.44105 2.806006-2.522007 2.989142-3.024779.7709 3.764809z" opacity=".5" transform="matrix(-.65654865 .15407376 -.15407376 -.65654865 28.136503 129.16201)"/><path d="m-62.797581 59.250327-3.747685-3.869953-3.29496-2.607571 4.554538-1.554104 5.313883-1.263562-2.37614 4.197137z" opacity=".5" transform="matrix(-.65654865 .15407376 -.15407376 -.65654865 58.685022 138.66458)"/><path d="m-32.394168 38.711693.472116-5.854465-.929566-4.203252 4.077466 2.740533 4.689108 1.524012-4.080621 2.719747z" opacity=".5" transform="matrix(-.65654865 .15407376 -.15407376 -.65654865 70.391022 121.63431)"/><path d="m-39.309885 41.548085-3.949868-3.474533-4.876775-1.996622 5.281015-1.453614 4.900907-2.952056-1.354113 5.479831z" opacity=".5" transform="matrix(-.65654865 .15407376 -.15407376 -.65654865 13.939121 105.65826)"/><path d="m-59.225973 39.15776-3.234755-.621874-3.52071.006 3.074796-3.35862 1.424903-2.186997 1.415358 2.858015z" opacity=".5" transform="matrix(-.65654865 .15407376 -.15407376 -.65654865 65.445443 126.32609)"/><path d="m-91.916671 43.82608-4.89118-2.515647-5.484379-2.660873 5.852547-2.75687 4.057564-2.936648-.518695 6.112483z" opacity=".5" transform="matrix(-.65654865 .15407376 -.15407376 -.65654865 39.761579 92.212037)"/><path d="m-78.098576 64.772227 4.836886 1.955736 5.757926 1.046472-4.012304 3.440005-3.663752 3.971696-.154137-5.540876z" opacity=".5" transform="matrix(-.65654865 .15407376 -.15407376 -.65654865 33.954712 121.98521)"/><path d="m-45.411477 58.834161-3.189333-1.224739-2.727072-.94547 2.978804-2.04424 2.099255-1.676485.428339 3.334691z" opacity=".5" transform="matrix(-.65654865 .15407376 -.15407376 -.65654865 79.646482 118.11885)"/></g><path d="m72.562344 29.088684c-2.753987-.01056-5.5162.145357-8.257857.460289-12.533071 1.439644-24.733779 6.228113-33.757648 14.304772-9.024657 8.077236-13.25354 18.25338-12.134612 28.003585 1.118928 9.750204 7.544073 18.704649 18.163928 24.525592 21.23851 11.641798 51.902385 8.189768 69.964785-7.976623 9.0311-8.083002 13.23506-18.279573 12.08986-28.038956-1.1452-9.759381-7.5873-18.718146-18.20681-24.539089-7.964115-4.365273-17.24964-6.525149-26.681885-6.724677-.393011-.0083-.786334-.01338-1.179761-.01489zm-.02144 3.820998c9.282605.04341 18.419838 2.08349 26.048421 6.264854 19.529365 10.704762 22.008905 31.530027 5.407505 46.388587-16.601609 14.858947-46.058103 18.178627-65.586942 7.473983-19.529326-10.704393-21.914248-31.485777-5.318011-46.339719 8.29806-7.427036 19.79825-11.996573 31.647504-13.357668 2.592044-.297743 5.202392-.442192 7.801521-.430037z" fill="#84542e" transform="matrix(1.1086408 0 0 1.1103475 -9.820944 -7.262349)"/></g></svg>