<svg height="500" viewBox="0 0 132.29167 132.29167" width="500" xmlns="http://www.w3.org/2000/svg" xmlns:xlink="http://www.w3.org/1999/xlink"><filter id="a" color-interpolation-filters="sRGB" height="1.105806" width="1.083377" x="-.041688" y="-.052903"><feGaussianBlur stdDeviation=".66782007"/></filter><filter id="b" color-interpolation-filters="sRGB" height="1.1248" width="1.1248" x="-.0624" y="-.0624"><feGaussianBlur stdDeviation="2.0562243"/></filter><radialGradient id="c" cx="86.055344" cy="45.671474" gradientTransform="matrix(1.3920409 -1.2344845 -1.6193442 -.90033192 -5.63355 198.80507)" gradientUnits="userSpaceOnUse" r="40.308271"><stop offset="0" stop-opacity="0"/><stop offset=".12393165" stop-opacity="0"/><stop offset=".41729519" stop-opacity=".1"/><stop offset=".66706532" stop-opacity=".5"/><stop offset=".91683543" stop-opacity=".75"/><stop offset="1"/></radialGradient><filter id="d" color-interpolation-filters="sRGB" height="1.136717" width="1.100977" x="-.050488" y="-.068359"><feGaussianBlur stdDeviation="2.3457468"/></filter><linearGradient id="e" gradientUnits="userSpaceOnUse" x1="120.10764" x2="105.13187" y1="-42.455982" y2="-23.82313"><stop offset="0" stop-color="#0f0a0a"/><stop offset="1" stop-color="#1c1817"/></linearGradient><g><path d="m74.578489 27.698502c-3.48566-.07385-6.989066.09481-10.462798.494451-13.894688 1.598507-27.421047 6.915267-37.425288 15.883174-10.005113 8.968548-14.693587 20.26794-13.453096 31.094067 1.240491 10.826126 8.363804 20.768429 20.137421 27.231716 23.545902 12.92645 57.541156 9.09358 77.565902-8.856766 10.01226-8.97495 14.6729-20.296787 13.40329-31.133104-1.26962-10.836315-8.41183-20.78361-20.18506-27.246886-8.829362-4.846974-19.123389-7.245107-29.580371-7.466652z" filter="url(#d)" opacity=".5"/><g><g stroke-width=".901312" transform="matrix(1.1086408 0 0 1.1103475 -9.820944 -7.262349)"><path d="m73.742187 29.103516c-3.144084-.06651-6.304175.08539-9.4375.445312-12.533084 1.439646-24.733933 6.228021-33.757812 14.304688-9.024666 8.077244-13.253695 18.253691-12.134766 28.003906 1.11893 9.750214 7.544197 18.704441 18.164063 24.52539 21.238531 11.641808 51.902434 8.189848 69.964848-7.976562 9.03111-8.08301 13.23504-18.279671 12.08984-28.039063-1.1452-9.759391-7.58751-18.718113-18.20703-24.539062-7.96412-4.365277-17.249388-6.525081-26.681643-6.724609zm-.175781 7.640625c8.363796.190947 16.506694 2.112449 23.189453 5.77539 8.909841 4.883814 13.470301 11.692288 14.296871 18.736328.82658 7.044041-2.03127 14.689294-9.60156 21.464844-15.140806 13.55149-43.387884 16.738191-61.207029 6.970703-8.909461-4.883444-13.443253-11.67323-14.25-18.703125s2.071007-14.670568 9.642578-21.447265c7.572242-6.777405 18.371685-11.127611 29.537109-12.410157 2.791347-.320635 5.604646-.450368 8.392578-.386718z"/><path d="m98.589227 39.174541c19.529383 10.704773 22.008963 31.529998 5.407543 46.388573-16.601625 14.858966-46.058103 18.178506-65.586961 7.473847-19.529346-10.704404-21.914156-31.485476-5.317903-46.339433 8.298069-7.427043 19.798115-11.99675 31.647381-13.357847 11.849354-1.361109 24.085345.482709 33.84994 5.83486z"/></g><path d="m97.604159 37.916498c20.457791 11.230942 23.046851 33.029926 5.661871 48.613748-17.385231 15.584264-48.171085 19.060674-68.628294 7.829873-20.457733-11.230532-22.949385-32.975846-5.564157-48.559902 8.692616-7.792136 20.710579-12.57093 33.113053-13.997769 12.402473-1.426838 25.18864.498787 35.417527 6.114052z" fill="#0f0a0a"/><circle cx="66.145836" cy="39.542774" fill="url(#e)" filter="url(#b)" r="39.542774" transform="matrix(-1.0911562 .12552257 .08859391 .77318278 134.81754 27.275014)"/><path d="m61.951671 29.756283c13.136677-1.511305 26.701996.535974 37.527428 6.478721 21.651071 11.886018 24.400031 35.009255 5.995021 51.507437-18.405241 16.498619-51.061894 20.184459-72.712383 8.298569-21.651029-11.88561-24.2949266-34.959822-5.895644-51.452876 9.199578-8.246598 21.948998-13.320561 35.085578-14.831855z" fill="url(#c)" opacity=".33"/><path d="m93.570457 7.5826051c5.42721 5.0417369 11.021923 22.7138409 11.021923 22.7138409s-5.341319-8.729969-8.508454-12.320761c-3.631026-4.116735-7.624184-7.700885-11.870987-10.3930799-5.732329-3.6339208-18.067103-7.5826051-18.067103-7.5826051s19.639678.35059713 27.424621 7.5826051z" fill="#fff" filter="url(#a)" opacity=".92236" stroke-width=".229825" transform="matrix(-1.0911562 .12552257 .08859391 .77318278 134.81754 27.275014)"/></g><path d="m72.562344 29.088684c-2.753987-.01056-5.5162.145357-8.257857.460289-12.533071 1.439644-24.733779 6.228113-33.757648 14.304772-9.024657 8.077236-13.25354 18.25338-12.134612 28.003585 1.118928 9.750204 7.544073 18.704649 18.163928 24.525592 21.23851 11.641798 51.902385 8.189768 69.964785-7.976623 9.0311-8.083002 13.23506-18.279573 12.08986-28.038956-1.1452-9.759381-7.5873-18.718146-18.20681-24.539089-7.964115-4.365273-17.24964-6.525149-26.681885-6.724677-.393011-.0083-.786334-.01338-1.179761-.01489zm-.02144 3.820998c9.282605.04341 18.419838 2.08349 26.048421 6.264854 19.529365 10.704762 22.008905 31.530027 5.407505 46.388587-16.601609 14.858947-46.058103 18.178627-65.586942 7.473983-19.529326-10.704393-21.914248-31.485777-5.318011-46.339719 8.29806-7.427036 19.79825-11.996573 31.647504-13.357668 2.592044-.297743 5.202392-.442192 7.801521-.430037z" transform="matrix(1.1086408 0 0 1.1103475 -9.820944 -7.262349)"/></g></svg>