<svg height="500" viewBox="0 0 132.29167 132.29167" width="500" xmlns="http://www.w3.org/2000/svg" xmlns:xlink="http://www.w3.org/1999/xlink"><linearGradient id="a"><stop offset="0" stop-color="#fff"/><stop offset=".34999999" stop-color="#f7dd5f"/><stop offset=".5" stop-color="#ffbf00"/><stop offset=".75" stop-color="#bd8d1e"/><stop offset="1" stop-color="#775a3c"/></linearGradient><filter id="b" color-interpolation-filters="sRGB" height="1.212777" width="1.167671" x="-.083836" y="-.106388"><feGaussianBlur stdDeviation="1.342996"/></filter><radialGradient id="c" cx="86.055344" cy="45.671474" gradientTransform="matrix(1.3920409 -1.2344845 -1.6193442 -.90033192 -5.63355 198.80507)" gradientUnits="userSpaceOnUse" r="40.308271"><stop offset="0" stop-color="#531904" stop-opacity="0"/><stop offset=".12393165" stop-color="#531904" stop-opacity="0"/><stop offset=".41729519" stop-color="#531904" stop-opacity=".1"/><stop offset=".66706532" stop-color="#531904" stop-opacity=".5"/><stop offset=".91683543" stop-color="#531904" stop-opacity=".75"/><stop offset="1" stop-color="#531904"/></radialGradient><filter id="d" color-interpolation-filters="sRGB" height="1.136717" width="1.100977" x="-.050488" y="-.068359"><feGaussianBlur stdDeviation="2.3457468"/></filter><linearGradient id="e" gradientUnits="userSpaceOnUse" spreadMethod="reflect" x1="94.761612" x2="79.148788" y1="-29.101767" y2="-11.273325"><stop offset="0" stop-color="#ffbf00"/><stop offset="1" stop-color="#f7dd5f"/></linearGradient><filter id="f" color-interpolation-filters="sRGB" height="1.152349" width="1.152349" x="-.076175" y="-.076175"><feGaussianBlur stdDeviation="2.510133"/></filter><filter id="g" color-interpolation-filters="sRGB" height="1.179847" width="1.12865" x="-.064325" y="-.089923"><feGaussianBlur stdDeviation="2.6075773"/></filter><radialGradient id="h" cx="55.193054" cy="47.66674" gradientTransform="matrix(-.00000014 1.2793689 -1.7307147 .00000923 137.69061 -22.94597)" gradientUnits="userSpaceOnUse" r="66.145836" xlink:href="#i"/><linearGradient id="i"><stop offset="0" stop-color="#f7dd5f"/><stop offset=".38270059" stop-color="#ffbf00"/><stop offset="1" stop-color="#775a3c"/></linearGradient><filter id="j" color-interpolation-filters="sRGB" height="1.55161" width="1.657837" x="-.328919" y="-.275805"><feGaussianBlur stdDeviation="3.2950459"/></filter><filter id="k" color-interpolation-filters="sRGB" height="1.525245" width="1.699824" x="-.349912" y="-.262622"><feGaussianBlur stdDeviation="2.15422"/></filter><filter id="l" color-interpolation-filters="sRGB" height="1.160919" width="1.140449" x="-.070224" y="-.08046"><feGaussianBlur stdDeviation="2.8468369"/></filter><filter id="m" color-interpolation-filters="sRGB" height="1.179552" width="1.128761" x="-.06438" y="-.089776"><feGaussianBlur stdDeviation="2.4105002"/></filter><radialGradient id="n" cx="55.193054" cy="47.66674" gradientTransform="matrix(-.00000014 1.2793689 -1.7307147 .00000923 137.69061 -22.94597)" gradientUnits="userSpaceOnUse" r="66.145836" xlink:href="#a"/><radialGradient id="o" cx="55.193054" cy="47.66674" gradientTransform="matrix(-.00000014 1.2793689 -1.7307147 .00000923 5.398933 -155.23764)" gradientUnits="userSpaceOnUse" r="66.145836" xlink:href="#a"/><linearGradient id="p" gradientUnits="userSpaceOnUse" x1="-52.256481" x2="-53.152893" xlink:href="#i" y1="32.082691" y2="34.331646"/><linearGradient id="q" gradientUnits="userSpaceOnUse" x1="-.543266" x2="-1.43968" xlink:href="#i" y1="108.15586" y2="110.40482"/><linearGradient id="r" gradientUnits="userSpaceOnUse" x1="-12.374414" x2="-13.270828" xlink:href="#i" y1="101.70242" y2="103.95137"/><linearGradient id="s" gradientUnits="userSpaceOnUse" x1="-2.546407" x2="-3.442821" xlink:href="#i" y1="105.40871" y2="107.65766"/><linearGradient id="t" gradientUnits="userSpaceOnUse" x1="-21.948917" x2="-22.845331" xlink:href="#i" y1="113.53407" y2="115.78302"/><linearGradient id="u" gradientUnits="userSpaceOnUse" spreadMethod="reflect" x1="-15.520298" x2="-16.416712" xlink:href="#i" y1="87.622086" y2="89.87104"/><linearGradient id="v" gradientUnits="userSpaceOnUse" x1="-4.475112" x2="-5.371527" xlink:href="#i" y1="96.151375" y2="98.40033"/><linearGradient id="w" gradientUnits="userSpaceOnUse" spreadMethod="reflect" x1="-7.022059" x2="-7.918473" xlink:href="#i" y1="83.066307" y2="85.315254"/><linearGradient id="x" gradientUnits="userSpaceOnUse" spreadMethod="reflect" x1="23.933672" x2="23.037258" xlink:href="#i" y1="95.55764" y2="97.806595"/><linearGradient id="y" gradientUnits="userSpaceOnUse" spreadMethod="reflect" x1="-11.644345" x2="-12.54076" xlink:href="#i" y1="83.84243" y2="86.091377"/><linearGradient id="z" gradientUnits="userSpaceOnUse" spreadMethod="reflect" x1="-11.009119" x2="-14.43048" xlink:href="#i" y1="11.112118" y2="19.695744"/><linearGradient id="A" gradientUnits="userSpaceOnUse" spreadMethod="reflect" x1="6.974928" x2="6.078515" xlink:href="#i" y1="94.966629" y2="97.215584"/><linearGradient id="B" gradientUnits="userSpaceOnUse" spreadMethod="reflect" x1="2.127307" x2="1.230892" xlink:href="#i" y1="99.647491" y2="101.89645"/><linearGradient id="C" gradientUnits="userSpaceOnUse" spreadMethod="reflect" x1="1.33248" x2=".436065" xlink:href="#i" y1="73.99559" y2="76.244545"/><linearGradient id="D" gradientUnits="userSpaceOnUse" spreadMethod="reflect" x1="1.907777" x2="1.011363" xlink:href="#i" y1="109.51925" y2="111.7682"/><linearGradient id="E" gradientUnits="userSpaceOnUse" spreadMethod="reflect" x1="-10.094402" x2="-10.990817" xlink:href="#i" y1="95.920189" y2="98.169136"/><linearGradient id="F" gradientUnits="userSpaceOnUse" spreadMethod="reflect" x1="22.67672" x2="21.780306" xlink:href="#i" y1="106.28204" y2="108.53099"/><linearGradient id="G" gradientUnits="userSpaceOnUse" spreadMethod="reflect" x1="17.327578" x2="16.431164" xlink:href="#i" y1="95.220596" y2="97.469551"/><linearGradient id="H" gradientUnits="userSpaceOnUse" spreadMethod="reflect" x1="-10.81911" x2="-11.715524" xlink:href="#i" y1="102.73478" y2="104.98373"/><linearGradient id="I" gradientUnits="userSpaceOnUse" spreadMethod="reflect" x1="6.998231" x2="6.101816" xlink:href="#i" y1="118.37698" y2="120.62594"/><filter id="J" color-interpolation-filters="sRGB" height="1.185676" width="1.215539" x="-.107769" y="-.092838"><feGaussianBlur stdDeviation=".20539112"/></filter><filter id="K" color-interpolation-filters="sRGB" height="1.293364" width="1.31487" x="-.157435" y="-.146682"><feGaussianBlur stdDeviation=".20539112"/></filter><filter id="L" color-interpolation-filters="sRGB" height="1.349344" width="1.316914" x="-.158457" y="-.174672"><feGaussianBlur stdDeviation=".20539112"/></filter><filter id="M" color-interpolation-filters="sRGB" height="1.28584" width="1.358674" x="-.179337" y="-.14292"><feGaussianBlur stdDeviation=".20539112"/></filter><filter id="N" color-interpolation-filters="sRGB" height="1.313195" width="1.302724" x="-.151362" y="-.156598"><feGaussianBlur stdDeviation=".20539112"/></filter><filter id="O" color-interpolation-filters="sRGB" height="1.339559" width="1.371609" x="-.185805" y="-.16978"><feGaussianBlur stdDeviation=".20539112"/></filter><filter id="P" color-interpolation-filters="sRGB" height="1.368414" width="1.366607" x="-.183303" y="-.184207"><feGaussianBlur stdDeviation=".20539112"/></filter><filter id="Q" color-interpolation-filters="sRGB" height="1.254253" width="1.307501" x="-.153751" y="-.127127"><feGaussianBlur stdDeviation=".20539112"/></filter><filter id="R" color-interpolation-filters="sRGB" height="1.191425" width="1.181692" x="-.090846" y="-.095713"><feGaussianBlur stdDeviation=".20539112"/></filter><filter id="S" color-interpolation-filters="sRGB" height="1.349472" width="1.351851" x="-.175925" y="-.174736"><feGaussianBlur stdDeviation=".20539112"/></filter><filter id="T" color-interpolation-filters="sRGB" height="1.340675" width="1.328798" x="-.164399" y="-.170338"><feGaussianBlur stdDeviation=".78392025"/></filter><filter id="U" color-interpolation-filters="sRGB" height="1.427901" width="1.421341" x="-.210671" y="-.21395"><feGaussianBlur stdDeviation=".20539112"/></filter><filter id="V" color-interpolation-filters="sRGB" height="1.182541" width="1.188835" x="-.094417" y="-.09127"><feGaussianBlur stdDeviation=".20539112"/></filter><filter id="W" color-interpolation-filters="sRGB" height="1.234607" width="1.228383" x="-.114191" y="-.117304"><feGaussianBlur stdDeviation=".20539112"/></filter><filter id="X" color-interpolation-filters="sRGB" height="1.323989" width="1.319324" x="-.159662" y="-.161994"><feGaussianBlur stdDeviation=".20539112"/></filter><filter id="Y" color-interpolation-filters="sRGB" height="1.298891" width="1.317794" x="-.158897" y="-.149446"><feGaussianBlur stdDeviation=".20539112"/></filter><filter id="Z" color-interpolation-filters="sRGB" height="1.327939" width="1.302702" x="-.151351" y="-.16397"><feGaussianBlur stdDeviation=".20539112"/></filter><filter id="aa" color-interpolation-filters="sRGB" height="1.301282" width="1.280921" x="-.14046" y="-.150641"><feGaussianBlur stdDeviation=".20539112"/></filter><filter id="ab" color-interpolation-filters="sRGB" height="1.365201" width="1.354018" x="-.177009" y="-.182601"><feGaussianBlur stdDeviation=".20539112"/></filter><filter id="ac" color-interpolation-filters="sRGB" height="1.263841" width="1.264724" x="-.132362" y="-.13192"><feGaussianBlur stdDeviation=".20539112"/></filter><filter id="ad" color-interpolation-filters="sRGB" height="1.185676" width="1.215539" x="-.107769" y="-.092838"><feGaussianBlur stdDeviation=".20539111"/></filter><filter id="ae" color-interpolation-filters="sRGB" height="1.293364" width="1.31487" x="-.157435" y="-.146682"><feGaussianBlur stdDeviation=".20539111"/></filter><filter id="af" color-interpolation-filters="sRGB" height="1.349344" width="1.316914" x="-.158457" y="-.174672"><feGaussianBlur stdDeviation=".20539111"/></filter><filter id="ag" color-interpolation-filters="sRGB" height="1.28584" width="1.358674" x="-.179337" y="-.14292"><feGaussianBlur stdDeviation=".20539111"/></filter><filter id="ah" color-interpolation-filters="sRGB" height="1.313195" width="1.302724" x="-.151362" y="-.156598"><feGaussianBlur stdDeviation=".20539111"/></filter><filter id="ai" color-interpolation-filters="sRGB" height="1.339559" width="1.371609" x="-.185805" y="-.16978"><feGaussianBlur stdDeviation=".20539111"/></filter><filter id="aj" color-interpolation-filters="sRGB" height="1.368414" width="1.366607" x="-.183303" y="-.184207"><feGaussianBlur stdDeviation=".20539111"/></filter><filter id="ak" color-interpolation-filters="sRGB" height="1.254253" width="1.307501" x="-.153751" y="-.127127"><feGaussianBlur stdDeviation=".20539111"/></filter><filter id="al" color-interpolation-filters="sRGB" height="1.191425" width="1.181692" x="-.090846" y="-.095713"><feGaussianBlur stdDeviation=".20539111"/></filter><filter id="am" color-interpolation-filters="sRGB" height="1.349472" width="1.351851" x="-.175925" y="-.174736"><feGaussianBlur stdDeviation=".20539111"/></filter><filter id="an" color-interpolation-filters="sRGB" height="1.427901" width="1.421341" x="-.21067" y="-.21395"><feGaussianBlur stdDeviation=".20539111"/></filter><filter id="ao" color-interpolation-filters="sRGB" height="1.182541" width="1.188835" x="-.094417" y="-.09127"><feGaussianBlur stdDeviation=".20539111"/></filter><filter id="ap" color-interpolation-filters="sRGB" height="1.234607" width="1.228383" x="-.114191" y="-.117304"><feGaussianBlur stdDeviation=".20539111"/></filter><filter id="aq" color-interpolation-filters="sRGB" height="1.323988" width="1.319324" x="-.159662" y="-.161994"><feGaussianBlur stdDeviation=".20539111"/></filter><filter id="ar" color-interpolation-filters="sRGB" height="1.298891" width="1.317794" x="-.158897" y="-.149446"><feGaussianBlur stdDeviation=".20539111"/></filter><filter id="as" color-interpolation-filters="sRGB" height="1.327939" width="1.302702" x="-.151351" y="-.16397"><feGaussianBlur stdDeviation=".20539111"/></filter><filter id="at" color-interpolation-filters="sRGB" height="1.301282" width="1.280921" x="-.14046" y="-.150641"><feGaussianBlur stdDeviation=".20539111"/></filter><filter id="au" color-interpolation-filters="sRGB" height="1.365201" width="1.354018" x="-.177009" y="-.182601"><feGaussianBlur stdDeviation=".20539111"/></filter><filter id="av" color-interpolation-filters="sRGB" height="1.263841" width="1.264724" x="-.132362" y="-.13192"><feGaussianBlur stdDeviation=".20539111"/></filter><filter id="aw" color-interpolation-filters="sRGB" height="1.188698" width="1.219046" x="-.109523" y="-.094349"><feGaussianBlur stdDeviation=".20873321"/></filter><filter id="ax" color-interpolation-filters="sRGB" height="1.298137" width="1.319994" x="-.159997" y="-.149069"><feGaussianBlur stdDeviation=".20873321"/></filter><filter id="ay" color-interpolation-filters="sRGB" height="1.355029" width="1.322071" x="-.161035" y="-.177514"><feGaussianBlur stdDeviation=".20873321"/></filter><filter id="az" color-interpolation-filters="sRGB" height="1.290491" width="1.36451" x="-.182255" y="-.145246"><feGaussianBlur stdDeviation=".20873321"/></filter><filter id="aA" color-interpolation-filters="sRGB" height="1.318292" width="1.30765" x="-.153825" y="-.159146"><feGaussianBlur stdDeviation=".20873321"/></filter><filter id="aB" color-interpolation-filters="sRGB" height="1.345084" width="1.377656" x="-.188828" y="-.172542"><feGaussianBlur stdDeviation=".20873321"/></filter><filter id="aC" color-interpolation-filters="sRGB" height="1.374409" width="1.372572" x="-.186286" y="-.187204"><feGaussianBlur stdDeviation=".20873321"/></filter><filter id="aD" color-interpolation-filters="sRGB" height="1.258391" width="1.312505" x="-.156253" y="-.129195"><feGaussianBlur stdDeviation=".20873321"/></filter><filter id="aE" color-interpolation-filters="sRGB" height="1.19454" width="1.184648" x="-.092324" y="-.09727"><feGaussianBlur stdDeviation=".20873321"/></filter><filter id="aF" color-interpolation-filters="sRGB" height="1.355159" width="1.357576" x="-.178788" y="-.17758"><feGaussianBlur stdDeviation=".20873321"/></filter><filter id="aG" color-interpolation-filters="sRGB" height="1.346219" width="1.334148" x="-.167074" y="-.173109"><feGaussianBlur stdDeviation=".7966761"/></filter><filter id="aH" color-interpolation-filters="sRGB" height="1.434864" width="1.428197" x="-.214099" y="-.217432"><feGaussianBlur stdDeviation=".20873321"/></filter><filter id="aI" color-interpolation-filters="sRGB" height="1.185511" width="1.191907" x="-.095954" y="-.092756"><feGaussianBlur stdDeviation=".20873321"/></filter><filter id="aJ" color-interpolation-filters="sRGB" height="1.238425" width="1.232099" x="-.116049" y="-.119212"><feGaussianBlur stdDeviation=".20873321"/></filter><filter id="aK" color-interpolation-filters="sRGB" height="1.32926" width="1.32452" x="-.16226" y="-.16463"><feGaussianBlur stdDeviation=".20873321"/></filter><filter id="aL" color-interpolation-filters="sRGB" height="1.303755" width="1.322965" x="-.161483" y="-.151877"><feGaussianBlur stdDeviation=".20873321"/></filter><filter id="aM" color-interpolation-filters="sRGB" height="1.333275" width="1.307628" x="-.153814" y="-.166638"><feGaussianBlur stdDeviation=".20873321"/></filter><filter id="aN" color-interpolation-filters="sRGB" height="1.306184" width="1.285492" x="-.142746" y="-.153092"><feGaussianBlur stdDeviation=".20873321"/></filter><filter id="aO" color-interpolation-filters="sRGB" height="1.371144" width="1.359778" x="-.179889" y="-.185572"><feGaussianBlur stdDeviation=".20873321"/></filter><filter id="aP" color-interpolation-filters="sRGB" height="1.268134" width="1.269032" x="-.134516" y="-.134067"><feGaussianBlur stdDeviation=".20873321"/></filter><g><path d="m74.578489 27.698502c-3.48566-.07385-6.989066.09481-10.462798.494451-13.894688 1.598507-27.421047 6.915267-37.425288 15.883174-10.005113 8.968548-14.693587 20.26794-13.453096 31.094067 1.240491 10.826126 8.363804 20.768429 20.137421 27.231716 23.545902 12.92645 57.541156 9.09358 77.565902-8.856766 10.01226-8.97495 14.6729-20.296787 13.40329-31.133104-1.26962-10.836315-8.41183-20.78361-20.18506-27.246886-8.829362-4.846974-19.123389-7.245107-29.580371-7.466652z" filter="url(#d)" opacity=".5"/><g opacity=".9"><path d="m71.932653 25.052667c-3.485659-.07385-6.989065.09481-10.462797.494451-13.894688 1.598507-27.421047 6.915267-37.425288 15.883174-10.005113 8.968548-14.6935868 20.267941-13.453096 31.094067 1.240491 10.826126 8.363804 20.76843 20.137421 27.231706 23.545902 12.926455 57.541156 9.093575 77.565887-8.856756 10.01225-8.97495 14.6729-20.296787 13.40329-31.133103-1.26962-10.836316-8.41183-20.78361-20.18506-27.246886-8.829347-4.846975-19.123374-7.245108-29.580357-7.466653zm-.194877 8.483749c9.272445.212017 18.299994 2.345552 25.708773 6.41269 9.877811 5.42273 14.933721 12.982502 15.850091 20.803835.91638 7.821333-2.25195 16.31022-10.64468 23.833435-16.785713 15.046863-48.101576 18.585204-67.856607 7.739903-9.877392-5.42232-14.903739-12.961342-15.798131-20.766968-.894393-7.805626 2.296002-16.289429 10.690155-23.813917 8.394896-7.525275 20.3676-12.355515 32.746044-13.779587 3.094601-.356016 6.213539-.500065 9.304355-.429391z" fill="#531904" opacity="1"/><path d="m99.479096 36.235004c21.651074 11.886018 24.400034 35.009255 5.995024 51.507436-18.40524 16.49862-51.061894 20.18446-72.712382 8.298568-21.65103-11.885609-24.2949278-34.95982-5.895645-51.452874 9.199578-8.246599 21.948998-13.320561 35.085578-14.831852 13.136678-1.511304 26.701996.535975 37.527425 6.478722z" fill="#531904" opacity="1"/><path d="m97.604159 37.916499c20.457791 11.230942 23.046851 33.029926 5.661871 48.613748-17.385231 15.584263-48.171085 19.060673-68.628294 7.829873-20.457733-11.230532-22.949385-32.975846-5.564157-48.559902 8.692616-7.792136 20.710579-12.57093 33.113053-13.997769 12.402473-1.426838 25.18864.498787 35.417527 6.114052z" fill="url(#e)" filter="url(#g)" opacity="1"/><circle cx="66.145836" cy="39.542774" fill="url(#e)" filter="url(#f)" opacity="1" r="39.542774" transform="matrix(-1.0911562 .12552257 .08859391 .77318278 134.81754 27.275014)"/><g><g fill="#ffab02"><path d="m-20.231329 39.041708-1.997392-1.947298-2.554792-1.202189 2.684283-1.032655 1.88973-1.127515-.389004 2.444813z" filter="url(#aw)" opacity=".75" transform="matrix(-.99936245 .25764533 -.24967406 -1.0312688 5.921346 107.74397)"/><path d="m16.823517 118.00503-1.333664-.75117-1.797396-.89634 1.51736-.42268 1.340143-1.29041.124576 1.80291z" filter="url(#ax)" opacity=".75" transform="matrix(-.99936245 .25764533 -.24967406 -1.0312688 142.15559 188.2897)"/><path d="m20.782907 111.48405-1.631179-.28738-1.479691-.27386 1.195897-1.04598.906912-1.21486.361811 1.41997z" filter="url(#ay)" opacity=".75" transform="matrix(-.99936245 .25764533 -.24967406 -1.0312688 68.97584 186.84623)"/><path d="m23.989359 118.14068-.08273-1.662.0022-1.78705 1.358665.85446 1.387812.92906-1.701024.45333z" filter="url(#az)" opacity=".75" transform="matrix(-.99936245 .25764533 -.24967406 -1.0312688 137.28213 159.952)"/><path d="m11.414428 120.49309-.62915-1.63748-.686685-1.51033 1.672837.73112 1.583847-.17101-1.191957 1.25115z" filter="url(#aA)" opacity=".75" transform="matrix(-.99936245 .25764533 -.24967406 -1.0312688 132.70203 194.6344)"/><path d="m8.7183052 106.58974-1.256348-1.05473-.9814106-.70327 1.4775924-.53899 1.1754013-.60641-.3460913 1.44017z" filter="url(#aB)" opacity=".75" transform="matrix(-.99936245 .25764533 -.24967406 -1.0312688 96.82213 199.36418)"/><path d="m28.83917 111.42288-1.18306-.85318-1.254498-.61553 1.344336-.49523 1.344858-.71207-.285099 1.36605z" filter="url(#aC)" opacity=".75" transform="matrix(-.99936245 .25764533 -.24967406 -1.0312688 125.3735 182.90041)"/><path d="m7.6073418 100.19515-1.4189813.78492-1.7871096.84292.3228429-2.030442.026924-1.8471 1.3539332 1.306563z" filter="url(#aD)" opacity=".75" transform="matrix(-.99936245 .25764533 -.24967406 -1.0312688 140.37323 166.59959)"/><path d="m23.933672 118.20862 1.528898-2.48627 1.282231-2.66393.866027 2.98733 1.748951 1.78387-2.67732-.22719z" filter="url(#aE)" opacity=".75" transform="matrix(-.99936245 .25764533 -.24967406 -1.0312688 150.61395 152.17125)"/><path d="m20.236257 110.1689-.898265-.92195-1.007068-.0846.914366-.83198.259541-.98254.605197.92195 1.022871-.0408-.914366.83198z" filter="url(#aF)" opacity=".75" transform="matrix(-.99936245 .25764533 -.24967406 -1.0312688 147.39411 154.92528)"/><path d="m7.3996822 114.73165-6.47971602 1.45649-2.26421828.85367-1.6952836-6.16566-1.0049525-2.46683 5.8273061-.68426 2.9154068-1.72842.5933619 6.08279z" filter="url(#aG)" opacity=".75" transform="matrix(-.26183808 .06750439 -.06541588 -.2701977 84.34275 98.073943)"/><path d="m22.030716 121.45951-1.281312-.0511-.978692.32934.0026-1.1876-.08249-.9778.995396-.0856.97838-.0529.316209 1.0247z" filter="url(#aH)" opacity=".75" transform="matrix(-.99936245 .25764533 -.24967406 -1.0312688 83.8332 197.25074)"/><path d="m29.168755 120.63375-1.086802-1.65256-1.300279-1.42181 1.534399-1.3197 1.132107-1.00679 1.365996 1.09961 1.18835 1.66869-1.42247 1.07282z" filter="url(#aI)" opacity=".75" transform="matrix(-.99936245 .25764533 -.24967406 -1.0312688 151.58398 170.06361)"/><path d="m16.773746 104.96945-1.661909-.2348-2.037356-.20401.238039-1.86935.379476-1.89408 2.007947.31747 1.691318.12134-.02792 1.95654z" filter="url(#aJ)" opacity=".75" transform="matrix(-.99936245 .25764533 -.24967406 -1.0312688 71.39986 189.33443)"/><path d="m7.5065661 120.39791-.9430088.9245-.59214.80892-.9086199-.78654-.6436189-.99442.6431705-.59145.9081474-.67053.5926124.64815z" filter="url(#aK)" opacity=".75" transform="matrix(-.99936245 .25764533 -.24967406 -1.0312688 137.64394 190.61348)"/><path d="m4.4262263 108.65563-1.3856748.0956-1.3852707.31707-.2894792-1.64729-.028787-1.17452 1.4274944-.15956 1.3852707-.31708.2894855 1.69065z" filter="url(#aL)" opacity=".75" transform="matrix(-.99936245 .25764533 -.24967406 -1.0312688 97.54722 179.86548)"/><path d="m36.911913 115.11267-1.342907.63646-.969175.38207-.491891-.99343-.452948-.99431 1.007124-.59116.96951-.42738.712489 1.12194z" filter="url(#aM)" opacity=".75" transform="matrix(-.99936245 .25764533 -.24967406 -1.0312688 105.97001 184.30963)"/><path d="m33.571811 121.91068.155874-1.35682.438295-1.46924 1.446612.0855 1.46867.39465-.549353 1.35682-.04522 1.43525-1.424996-.26343z" filter="url(#aN)" opacity=".75" transform="matrix(-.99936245 .25764533 -.24967406 -1.0312688 119.24734 206.62036)"/><path d="m23.962696 125.11243.0043-1.26759.08472-.98731 1.409169-.0574 1.286662-.0521-.02366 1.46122-.08434 1.05819-1.428931.18014z" filter="url(#aO)" opacity=".75" transform="matrix(-.99936245 .25764533 -.24967406 -1.0312688 154.66751 199.33768)"/><path d="m14.743576 124.03241-1.367941-.72611-.862905-.6998.742774-1.13979.80698-1.17094.989824.72611 1.184589.92648-.835806 1.21048z" filter="url(#aP)" opacity=".75" transform="matrix(-.99936245 .25764533 -.24967406 -1.0312688 98.69297 189.48185)"/><path d="m-20.231329 39.041708-1.997392-1.947298-2.554792-1.202189 2.684283-1.032655 1.88973-1.127515-.389004 2.444813z" filter="url(#aw)" opacity=".75" transform="matrix(.00098005 1.0629654 -1.0300784 .00101134 116.48251 107.78559)"/><path d="m16.823517 118.00503-1.333664-.75117-1.797396-.89634 1.51736-.42268 1.340143-1.29041.124576 1.80291z" filter="url(#ax)" opacity=".75" transform="matrix(.00098005 1.0629654 -1.0300784 .00101134 181.92759 65.623086)"/><path d="m20.782907 111.48405-1.631179-.28738-1.479691-.27386 1.195897-1.04598.906912-1.21486.361811 1.41997z" filter="url(#ay)" opacity=".75" transform="matrix(.00098005 1.0629654 -1.0300784 .00101134 187.69057 34.540006)"/><path d="m23.989359 118.14068-.08273-1.662.0022-1.78705 1.358665.85446 1.387812.92906-1.701024.45333z" filter="url(#az)" opacity=".75" transform="matrix(.00098005 1.0629654 -1.0300784 .00101134 189.33367 36.217595)"/><path d="m11.414428 120.49309-.62915-1.63748-.686685-1.51033 1.672837.73112 1.583847-.17101-1.191957 1.25115z" filter="url(#aA)" opacity=".75" transform="matrix(.00098005 1.0629654 -1.0300784 .00101134 202.40369 46.372297)"/><path d="m11.414428 120.49309-.62915-1.63748-.686685-1.51033 1.672837.73112 1.583847-.17101-1.191957 1.25115z" filter="url(#aA)" opacity=".75" transform="matrix(.00098005 1.0629654 -1.0300784 .00101134 162.53314 32.930984)"/><path d="m11.414428 120.49309-.62915-1.63748-.686685-1.51033 1.672837.73112 1.583847-.17101-1.191957 1.25115z" filter="url(#aA)" opacity=".75" transform="matrix(.00098005 1.0629654 -1.0300784 .00101134 165.6402 74.947274)"/><path d="m29.168755 120.63375-1.086802-1.65256-1.300279-1.42181 1.534399-1.3197 1.132107-1.00679 1.365996 1.09961 1.18835 1.66869-1.42247 1.07282z" filter="url(#aI)" opacity=".75" transform="matrix(-.99936245 .25764533 -.24967406 -1.0312688 84.9767 167.1837)"/><path d="m8.7183052 106.58974-1.256348-1.05473-.9814106-.70327 1.4775924-.53899 1.1754013-.60641-.3460913 1.44017z" filter="url(#aB)" opacity=".75" transform="matrix(.00098005 1.0629654 -1.0300784 .00101134 215.95631 46.057914)"/><path d="m28.83917 111.42288-1.18306-.85318-1.254498-.61553 1.344336-.49523 1.344858-.71207-.285099 1.36605z" filter="url(#aC)" opacity=".75" transform="matrix(.00098005 1.0629654 -1.0300784 .00101134 189.0239 8.136048)"/><path d="m7.6073418 100.19515-1.4189813.78492-1.7871096.84292.3228429-2.030442.026924-1.8471 1.3539332 1.306563z" filter="url(#aD)" opacity=".75" transform="matrix(.00098005 1.0629654 -1.0300784 .00101134 159.4619 70.513947)"/><path d="m23.933672 118.20862 1.528898-2.48627 1.282231-2.66393.866027 2.98733 1.748951 1.78387-2.67732-.22719z" filter="url(#aE)" opacity=".75" transform="matrix(.00098005 1.0629654 -1.0300784 .00101134 213.70587 36.435683)"/><path d="m20.236257 110.1689-.898265-.92195-1.007068-.0846.914366-.83198.259541-.98254.605197.92195 1.022871-.0408-.914366.83198z" filter="url(#aF)" opacity=".75" transform="matrix(.00098005 1.0629654 -1.0300784 .00101134 204.29722 60.287854)"/><path d="m7.3996822 114.73165-6.47971602 1.45649-2.26421828.85367-1.6952836-6.16566-1.0049525-2.46683 5.8273061-.68426 2.9154068-1.72842.5933619 6.08279z" filter="url(#aG)" opacity=".75" transform="matrix(.00025678 .27850237 -.26988581 .00026497 115.79077 82.393732)"/><path d="m22.030716 121.45951-1.281312-.0511-.978692.32934.0026-1.1876-.08249-.9778.995396-.0856.97838-.0529.316209 1.0247z" filter="url(#aH)" opacity=".75" transform="matrix(.00098005 1.0629654 -1.0300784 .00101134 207.878 50.78711)"/><path d="m29.168755 120.63375-1.086802-1.65256-1.300279-1.42181 1.534399-1.3197 1.132107-1.00679 1.365996 1.09961 1.18835 1.66869-1.42247 1.07282z" filter="url(#aI)" opacity=".75" transform="matrix(.00098005 1.0629654 -1.0300784 .00101134 151.32188 35.81077)"/><path d="m16.773746 104.96945-1.661909-.2348-2.037356-.20401.238039-1.86935.379476-1.89408 2.007947.31747 1.691318.12134-.02792 1.95654z" filter="url(#aJ)" opacity=".75" transform="matrix(.00098005 1.0629654 -1.0300784 .00101134 165.31008 20.245438)"/><path d="m7.5065661 120.39791-.9430088.9245-.59214.80892-.9086199-.78654-.6436189-.99442.6431705-.59145.9081474-.67053.5926124.64815z" filter="url(#aK)" opacity=".75" transform="matrix(.00098005 1.0629654 -1.0300784 .00101134 178.27201 52.218149)"/><path d="m4.4262263 108.65563-1.3856748.0956-1.3852707.31707-.2894792-1.64729-.028787-1.17452 1.4274944-.15956 1.3852707-.31708.2894855 1.69065z" filter="url(#aL)" opacity=".75" transform="matrix(.00098005 1.0629654 -1.0300784 .00101134 196.89201 61.483858)"/><path d="m36.911913 115.11267-1.342907.63646-.969175.38207-.491891-.99343-.452948-.99431 1.007124-.59116.96951-.42738.712489 1.12194z" filter="url(#aM)" opacity=".75" transform="matrix(.00098005 1.0629654 -1.0300784 .00101134 159.73467 23.514488)"/><path d="m33.571811 121.91068.155874-1.35682.438295-1.46924 1.446612.0855 1.46867.39465-.549353 1.35682-.04522 1.43525-1.424996-.26343z" filter="url(#aN)" opacity=".75" transform="matrix(.00098005 1.0629654 -1.0300784 .00101134 204.57372 41.307756)"/><path d="m23.962696 125.11243.0043-1.26759.08472-.98731 1.409169-.0574 1.286662-.0521-.02366 1.46122-.08434 1.05819-1.428931.18014z" filter="url(#aO)" opacity=".75" transform="matrix(.00098005 1.0629654 -1.0300784 .00101134 198.57891 60.076237)"/><path d="m14.743576 124.03241-1.367941-.72611-.862905-.6998.742774-1.13979.80698-1.17094.989824.72611 1.184589.92648-.835806 1.21048z" filter="url(#aP)" opacity=".75" transform="matrix(.00098005 1.0629654 -1.0300784 .00101134 188.71521 33.309694)"/></g><use stroke-width="4.7342" transform="matrix(.21122919 0 0 .21122919 51.241734 66.628572)" xlink:href="#aQ"/><use stroke-width="4.7342" transform="matrix(.21122919 0 0 .21122919 53.388293 64.461625)" xlink:href="#aQ"/><use stroke-width="4.7342" transform="matrix(.21122919 0 0 .21122919 49.095175 62.294678)" xlink:href="#aQ"/><use stroke-width="3.57622" transform="matrix(.27962498 0 0 .27962498 -2.312137 53.469534)" xlink:href="#aQ"/><use stroke-width="5.48432" transform="matrix(.18233793 0 0 .18233793 46.417214 81.2108)" xlink:href="#aQ"/><use stroke-width="5.48432" transform="matrix(.18233793 0 0 .18233793 5.059628 56.228121)" xlink:href="#aQ"/><use stroke-width="5.48432" transform="matrix(.18233793 0 0 .18233793 -9.09558 77.659371)" xlink:href="#aQ"/><use stroke-width="5.48432" transform="matrix(.18233793 0 0 .18233793 77.555464 73.690621)" xlink:href="#aQ"/><use stroke-width="5.48432" transform="matrix(.18233793 0 0 .18233793 76.761714 60.196871)" xlink:href="#aQ"/><use stroke-width="5.48432" transform="matrix(.18233793 0 0 .18233793 52.287755 32.812495)" xlink:href="#aQ"/><use stroke-width="5.48432" transform="matrix(.18233793 0 0 .18233793 55.595046 36.252079)" xlink:href="#aQ"/><path d="m-20.231329 39.041708-1.997392-1.947298-2.554792-1.202189 2.684283-1.032655 1.88973-1.127515-.389004 2.444813z" fill="url(#p)" filter="url(#J)" opacity=".75" transform="matrix(.99936245 -.25764533 .24967406 1.0312688 116.93965 34.221736)"/><path d="m16.823517 118.00503-1.333664-.75117-1.797396-.89634 1.51736-.42268 1.340143-1.29041.124576 1.80291z" fill="url(#q)" filter="url(#K)" opacity=".75" transform="matrix(.99936245 -.25764533 .24967406 1.0312688 7.256593 -54.067921)"/><path d="m20.782907 111.48405-1.631179-.28738-1.479691-.27386 1.195897-1.04598.906912-1.21486.361811 1.41997z" fill="url(#r)" filter="url(#L)" opacity=".75" transform="matrix(.99936245 -.25764533 .24967406 1.0312688 63.712173 -43.50846)"/><path d="m23.989359 118.14068-.08273-1.662.0022-1.78705 1.358665.85446 1.387812.92906-1.701024.45333z" fill="url(#s)" filter="url(#M)" opacity=".75" transform="matrix(.99936245 -.25764533 .24967406 1.0312688 -25.105745 -31.858983)"/><path d="m11.414428 120.49309-.62915-1.63748-.686685-1.51033 1.672837.73112 1.583847-.17101-1.191957 1.25115z" fill="url(#t)" filter="url(#N)" opacity=".75" transform="matrix(.99936245 -.25764533 .24967406 1.0312688 -10.299903 -66.567902)"/><path d="m8.7183052 106.58974-1.256348-1.05473-.9814106-.70327 1.4775924-.53899 1.1754013-.60641-.3460913 1.44017z" fill="url(#u)" filter="url(#O)" opacity=".75" transform="matrix(.99936245 -.25764533 .24967406 1.0312688 52.788428 -53.287217)"/><path d="m28.83917 111.42288-1.18306-.85318-1.254498-.61553 1.344336-.49523 1.344858-.71207-.285099 1.36605z" fill="url(#v)" filter="url(#P)" opacity=".75" transform="matrix(.99936245 -.25764533 .24967406 1.0312688 -6.698222 -60.311632)"/><path d="m7.6073418 100.19515-1.4189813.78492-1.7871096.84292.3228429-2.030442.026924-1.8471 1.3539332 1.306563z" fill="url(#w)" filter="url(#Q)" opacity=".75" transform="matrix(.99936245 -.25764533 .24967406 1.0312688 4.502534 -40.990837)"/><path d="m23.933672 118.20862 1.528898-2.48627 1.282231-2.66393.866027 2.98733 1.748951 1.78387-2.67732-.22719z" fill="url(#x)" filter="url(#R)" opacity=".75" transform="matrix(.99936245 -.25764533 .24967406 1.0312688 12.892204 -33.574624)"/><path d="m20.236257 110.1689-.898265-.92195-1.007068-.0846.914366-.83198.259541-.98254.605197.92195 1.022871-.0408-.914366.83198z" fill="url(#y)" filter="url(#S)" opacity=".75" transform="matrix(.99936245 -.25764533 .24967406 1.0312688 -25.084584 -30.478363)"/><path d="m7.3996822 114.73165-6.47971602 1.45649-2.26421828.85367-1.6952836-6.16566-1.0049525-2.46683 5.8273061-.68426 2.9154068-1.72842.5933619 6.08279z" fill="url(#z)" filter="url(#T)" opacity=".75" transform="matrix(.26183808 -.06750439 .06541588 .2701977 29.124005 25.213998)"/><path d="m22.030716 121.45951-1.281312-.0511-.978692.32934.0026-1.1876-.08249-.9778.995396-.0856.97838-.0529.316209 1.0247z" fill="url(#A)" filter="url(#U)" opacity=".75" transform="matrix(.99936245 -.25764533 .24967406 1.0312688 50.624013 -55.978926)"/><path d="m29.168755 120.63375-1.086802-1.65256-1.300279-1.42181 1.534399-1.3197 1.132107-1.00679 1.365996 1.09961 1.18835 1.66869-1.42247 1.07282z" fill="url(#B)" filter="url(#V)" opacity=".75" transform="matrix(.99936245 -.25764533 .24967406 1.0312688 -3.390945 -40.151875)"/><path d="m16.773746 104.96945-1.661909-.2348-2.037356-.20401.238039-1.86935.379476-1.89408 2.007947.31747 1.691318.12134-.02792 1.95654z" fill="url(#C)" filter="url(#W)" opacity=".75" transform="matrix(.99936245 -.25764533 .24967406 1.0312688 65.929829 -50.380387)"/><path d="m7.5065661 120.39791-.9430088.9245-.59214.80892-.9086199-.78654-.6436189-.99442.6431705-.59145.9081474-.67053.5926124.64815z" fill="url(#D)" filter="url(#X)" opacity=".75" transform="matrix(.99936245 -.25764533 .24967406 1.0312688 39.491567 -49.811108)"/><path d="m4.4262263 108.65563-1.3856748.0956-1.3852707.31707-.2894792-1.64729-.028787-1.17452 1.4274944-.15956 1.3852707-.31708.2894855 1.69065z" fill="url(#E)" filter="url(#Y)" opacity=".75" transform="matrix(.99936245 -.25764533 .24967406 1.0312688 6.993411 -61.110659)"/><path d="m36.911913 115.11267-1.342907.63646-.969175.38207-.491891-.99343-.452948-.99431 1.007124-.59116.96951-.42738.712489 1.12194z" fill="url(#F)" filter="url(#Z)" opacity=".75" transform="matrix(.99936245 -.25764533 .24967406 1.0312688 12.749082 -70.391375)"/><path d="m33.571811 121.91068.155874-1.35682.438295-1.46924 1.446612.0855 1.46867.39465-.549353 1.35682-.04522 1.43525-1.424996-.26343z" fill="url(#G)" filter="url(#aa)" opacity=".75" transform="matrix(.99936245 -.25764533 .24967406 1.0312688 20.652216 -73.764655)"/><path d="m23.962696 125.11243.0043-1.26759.08472-.98731 1.409169-.0574 1.286662-.0521-.02366 1.46122-.08434 1.05819-1.428931.18014z" fill="url(#H)" filter="url(#ab)" opacity=".75" transform="matrix(.99936245 -.25764533 .24967406 1.0312688 -10.032803 -64.35766)"/><path d="m14.743576 124.03241-1.367941-.72611-.862905-.6998.742774-1.13979.80698-1.17094.989824.72611 1.184589.92648-.835806 1.21048z" fill="url(#I)" filter="url(#ac)" opacity=".75" transform="matrix(.99936245 -.25764533 .24967406 1.0312688 15.275535 -69.896098)"/><path d="m-20.231329 39.041708-1.997392-1.947298-2.554792-1.202189 2.684283-1.032655 1.88973-1.127515-.389004 2.444813z" fill="url(#p)" filter="url(#ad)" opacity=".75" transform="matrix(-.00098005 -1.0629654 1.0300784 -.00101134 21.835003 20.462715)"/><path d="m16.823517 118.00503-1.333664-.75117-1.797396-.89634 1.51736-.42268 1.340143-1.29041.124576 1.80291z" fill="url(#q)" filter="url(#ae)" opacity=".75" transform="matrix(-.00098005 -1.0629654 1.0300784 -.00101134 -53.375905 53.834727)"/><path d="m20.782907 111.48405-1.631179-.28738-1.479691-.27386 1.195897-1.04598.906912-1.21486.361811 1.41997z" fill="url(#r)" filter="url(#af)" opacity=".75" transform="matrix(-.00098005 -1.0629654 1.0300784 -.00101134 -64.756367 89.877106)"/><path d="m23.989359 118.14068-.08273-1.662.0022-1.78705 1.358665.85446 1.387812.92906-1.701024.45333z" fill="url(#s)" filter="url(#ag)" opacity=".75" transform="matrix(-.00098005 -1.0629654 1.0300784 -.00101134 -87.483883 83.253347)"/><path d="m11.414428 120.49309-.62915-1.63748-.686685-1.51033 1.672837.73112 1.583847-.17101-1.191957 1.25115z" fill="url(#t)" filter="url(#ah)" opacity=".75" transform="matrix(-.00098005 -1.0629654 1.0300784 -.00101134 -102.12451 76.866901)"/><path d="m11.414428 120.49309-.62915-1.63748-.686685-1.51033 1.672837.73112 1.583847-.17101-1.191957 1.25115z" fill="url(#t)" filter="url(#ah)" opacity=".75" transform="matrix(-.00098005 -1.0629654 1.0300784 -.00101134 -53.63691 105.94153)"/><path d="m11.414428 120.49309-.62915-1.63748-.686685-1.51033 1.672837.73112 1.583847-.17101-1.191957 1.25115z" fill="url(#t)" filter="url(#ah)" opacity=".75" transform="matrix(-.00098005 -1.0629654 1.0300784 -.00101134 -25.760698 61.22734)"/><path d="m29.168755 120.63375-1.086802-1.65256-1.300279-1.42181 1.534399-1.3197 1.132107-1.00679 1.365996 1.09961 1.18835 1.66869-1.42247 1.07282z" fill="url(#B)" filter="url(#V)" opacity=".75" transform="matrix(.99936245 -.25764533 .24967406 1.0312688 36.261003 -31.911349)"/><path d="m8.7183052 106.58974-1.256348-1.05473-.9814106-.70327 1.4775924-.53899 1.1754013-.60641-.3460913 1.44017z" fill="url(#u)" filter="url(#ai)" opacity=".75" transform="matrix(-.00098005 -1.0629654 1.0300784 -.00101134 -70.238483 83.226496)"/><path d="m28.83917 111.42288-1.18306-.85318-1.254498-.61553 1.344336-.49523 1.344858-.71207-.285099 1.36605z" fill="url(#v)" filter="url(#aj)" opacity=".75" transform="matrix(-.00098005 -1.0629654 1.0300784 -.00101134 -81.39137 121.45935)"/><path d="m7.6073418 100.19515-1.4189813.78492-1.7871096.84292.3228429-2.030442.026924-1.8471 1.3539332 1.306563z" fill="url(#w)" filter="url(#ak)" opacity=".75" transform="matrix(-.00098005 -1.0629654 1.0300784 -.00101134 -38.815983 56.494126)"/><path d="m23.933672 118.20862 1.528898-2.48627 1.282231-2.66393.866027 2.98733 1.748951 1.78387-2.67732-.22719z" fill="url(#x)" filter="url(#al)" opacity=".75" transform="matrix(-.00098005 -1.0629654 1.0300784 -.00101134 -77.245003 94.192385)"/><path d="m20.236257 110.1689-.898265-.92195-1.007068-.0846.914366-.83198.259541-.98254.605197.92195 1.022871-.0408-.914366.83198z" fill="url(#y)" filter="url(#am)" opacity=".75" transform="matrix(-.00098005 -1.0629654 1.0300784 -.00101134 -64.393418 71.500422)"/><path d="m7.3996822 114.73165-6.47971602 1.45649-2.26421828.85367-1.6952836-6.16566-1.0049525-2.46683 5.8273061-.68426 2.9154068-1.72842.5933619 6.08279z" fill="url(#z)" filter="url(#T)" opacity=".75" transform="matrix(-.00025678 -.27850237 .26988581 -.00026497 56.766394 70.962759)"/><path d="m22.030716 121.45951-1.281312-.0511-.978692.32934.0026-1.1876-.08249-.9778.995396-.0856.97838-.0529.316209 1.0247z" fill="url(#A)" filter="url(#an)" opacity=".75" transform="matrix(-.00098005 -1.0629654 1.0300784 -.00101134 -64.326726 83.861456)"/><path d="m29.168755 120.63375-1.086802-1.65256-1.300279-1.42181 1.534399-1.3197 1.132107-1.00679 1.365996 1.09961 1.18835 1.66869-1.42247 1.07282z" fill="url(#B)" filter="url(#ao)" opacity=".75" transform="matrix(-.00098005 -1.0629654 1.0300784 -.00101134 -21.945208 75.498786)"/><path d="m16.773746 104.96945-1.661909-.2348-2.037356-.20401.238039-1.86935.379476-1.89408 2.007947.31747 1.691318.12134-.02792 1.95654z" fill="url(#C)" filter="url(#ap)" opacity=".75" transform="matrix(-.00098005 -1.0629654 1.0300784 -.00101134 -54.274685 107.91114)"/><path d="m7.5065661 120.39791-.9430088.9245-.59214.80892-.9086199-.78654-.6436189-.99442.6431705-.59145.9081474-.67053.5926124.64815z" fill="url(#D)" filter="url(#aq)" opacity=".75" transform="matrix(-.00098005 -1.0629654 1.0300784 -.00101134 -65.700738 73.568076)"/><path d="m4.4262263 108.65563-1.3856748.0956-1.3852707.31707-.2894792-1.64729-.028787-1.17452 1.4274944-.15956 1.3852707-.31708.2894855 1.69065z" fill="url(#E)" filter="url(#ar)" opacity=".75" transform="matrix(-.00098005 -1.0629654 1.0300784 -.00101134 -83.470078 62.83848)"/><path d="m36.911913 115.11267-1.342907.63646-.969175.38207-.491891-.99343-.452948-.99431 1.007124-.59116.96951-.42738.712489 1.12194z" fill="url(#F)" filter="url(#as)" opacity=".75" transform="matrix(-.00098005 -1.0629654 1.0300784 -.00101134 -41.078497 99.856417)"/><path d="m33.571811 121.91068.155874-1.35682.438295-1.46924 1.446612.0855 1.46867.39465-.549353 1.35682-.04522 1.43525-1.424996-.26343z" fill="url(#G)" filter="url(#at)" opacity=".75" transform="matrix(-.00098005 -1.0629654 1.0300784 -.00101134 -78.942564 84.856509)"/><path d="m23.962696 125.11243.0043-1.26759.08472-.98731 1.409169-.0574 1.286662-.0521-.02366 1.46122-.08434 1.05819-1.428931.18014z" fill="url(#H)" filter="url(#au)" opacity=".75" transform="matrix(-.00098005 -1.0629654 1.0300784 -.00101134 -58.228227 80.020933)"/><path d="m14.743576 124.03241-1.367941-.72611-.862905-.6998.742774-1.13979.80698-1.17094.989824.72611 1.184589.92648-.835806 1.21048z" fill="url(#I)" filter="url(#av)" opacity=".75" transform="matrix(-.00098005 -1.0629654 1.0300784 -.00101134 -76.901733 97.178684)"/><g opacity=".75"><use stroke-width="4.5243" transform="matrix(.21109452 -.05442221 .05273845 .21783407 30.414636 68.016298)" xlink:href="#aQ"/><use stroke-width="4.5243" transform="matrix(.21109452 -.05442221 .05273845 .21783407 4.572811 62.147662)" xlink:href="#aQ"/><use stroke-width="4.5243" transform="matrix(.21109452 -.05442221 .05273845 .21783407 46.210188 87.20996)" xlink:href="#aQ"/><use stroke-width="3.41766" transform="matrix(.2794467 -.07204408 .06981511 .28836851 24.695341 59.457621)" xlink:href="#aQ"/><g stroke-width="5.24116"><use transform="matrix(.18222168 -.04697852 .04552506 .18803941 57.262509 68.960877)" xlink:href="#aQ"/><use transform="matrix(.18222168 -.04697852 .04552506 .18803941 48.709418 99.257659)" xlink:href="#aQ"/><use transform="matrix(.18222168 -.04697852 .04552506 .18803941 -1.604104 83.347297)" xlink:href="#aQ"/><use transform="matrix(.18222168 -.04697852 .04552506 .18803941 20.049787 58.927138)" xlink:href="#aQ"/><use transform="matrix(.18222168 -.04697852 .04552506 .18803941 24.59668 91.328053)" xlink:href="#aQ"/><use transform="matrix(.18222168 -.04697852 .04552506 .18803941 44.799431 86.779858)" xlink:href="#aQ"/><use transform="matrix(.18222168 -.04697852 .04552506 .18803941 34.768259 76.564211)" xlink:href="#aQ"/></g></g></g><g><circle cx="66.145836" cy="39.542774" fill="url(#e)" filter="url(#f)" opacity=".33" r="39.542774" transform="matrix(-1.0911562 .12552257 .08859391 .77318279 134.81754 27.275013)"/><path d="m61.951671 29.756283c13.136677-1.511305 26.701996.535974 37.527428 6.478721 21.651071 11.886018 24.400031 35.009255 5.995021 51.507437-18.405241 16.498619-51.061894 20.184459-72.712383 8.298569-21.651029-11.88561-24.2949266-34.959822-5.895644-51.452876 9.199578-8.246598 21.948998-13.320561 35.085578-14.831855z" fill="url(#c)" opacity=".33"/><path d="m93.570457 7.5826051c5.42721 5.0417369 11.021923 22.7138409 11.021923 22.7138409s-5.341319-8.729969-8.508454-12.320761c-3.631026-4.116735-7.624184-7.700885-11.870987-10.3930799-5.732329-3.6339208-18.067103-7.5826051-18.067103-7.5826051s19.639678.35059713 27.424621 7.5826051z" fill="#fcf5cf" filter="url(#b)" opacity=".5" stroke-width=".229825" transform="matrix(-1.0911562 .12552257 .08859391 .77318278 136.66962 28.157789)"/><path d="m72.562344 29.088684c-2.753987-.01056-5.5162.145357-8.257857.460289-12.533071 1.439644-24.733779 6.228113-33.757648 14.304772-9.024657 8.077236-13.25354 18.25338-12.134612 28.003585 1.118928 9.750204 7.544073 18.704649 18.163928 24.525592 21.23851 11.641798 51.902385 8.189768 69.964785-7.976623 9.0311-8.083002 13.23506-18.279573 12.08986-28.038956-1.1452-9.759381-7.5873-18.718146-18.20681-24.539089-7.964115-4.365273-17.24964-6.525149-26.681885-6.724677-.393011-.0083-.786334-.01338-1.179761-.01489zm-.02144 3.820998c9.282605.04341 18.419838 2.08349 26.048421 6.264854 19.529365 10.704762 22.008905 31.530027 5.407505 46.388587-16.601609 14.858947-46.058103 18.178627-65.586942 7.473983-19.529326-10.704393-21.914248-31.485777-5.318011-46.339719 8.29806-7.427036 19.79825-11.996573 31.647504-13.357668 2.592044-.297743 5.202392-.442192 7.801521-.430037z" fill="#531904" opacity="1" transform="matrix(1.1086408 0 0 1.1103475 -9.820944 -7.262349)"/></g></g></g><g stroke-width="3.93454" transform="matrix(.15363368 0 0 .15397472 185.36486 14.950631)"><circle cx="66.145836" cy="66.145836" fill="#f7dd5f" opacity=".5" r="66.145836"/><path d="m13.132809 80.90016c-5.2220396 15.90961 10.216134 35.22805 34.482038 43.1699 24.26591 7.94185 48.17954 1.48683 53.360123-14.4435 5.18059-15.93033-10.231673-35.228045-34.502763-43.1958-24.271082-7.967755-48.158802-1.466109-53.339398 14.4694z" fill="#775a3c" filter="url(#m)" opacity=".15" stroke-width="2.03834"/><path d="m22.416436 101.9541s29.783241 8.60497 64.436231-14.90457c33.015943-22.431979 16.857663-57.033171 24.716623-43.915905 7.85896 13.117265 20.53587 54.194205-21.193803 76.154745-38.05148 19.96601-67.959051-17.33427-67.959051-17.33427z" fill="#ffe980" filter="url(#l)" opacity=".5" stroke-width="2.03834"/><circle cx="66.145836" cy="66.145836" fill="url(#h)" opacity=".5" r="66.145836"/><g fill="#fff" stroke-width="1.38152"><path d="m106.4923 30.840075c3.62643 7.444513 2.02044 15.635034-3.56943 18.360026-5.589853 2.724994-13.008463-1.134549-16.608983-8.563522-3.60051-7.428972-1.99971-15.660939 3.56943-18.37039 5.56914-2.709449 13.018833 1.170816 16.608983 8.573886z" filter="url(#j)" opacity=".5"/><path d="m113.74514 68.124815c.0415 5.429263-3.23788 9.843125-7.32536 9.843125-4.08749 0-7.434163-4.377598-7.449703-9.801681-.0157-5.424082 3.258593-9.84313 7.346103-9.884575 4.08748-.04145 7.42896 4.377602 7.42896 9.843131z" filter="url(#k)" opacity=".5"/></g></g><g id="aQ" stroke-width="3.93454" transform="matrix(.15363368 0 0 .15397472 170.3163 -2.300738)"><circle cx="-66.145836" cy="-66.145836" fill="url(#o)" opacity=".5" r="66.145836" transform="scale(-1)"/><path d="m13.132809 80.90016c-5.2220396 15.90961 10.216134 35.22805 34.482038 43.1699 24.26591 7.94185 48.17954 1.48683 53.360123-14.4435 5.18059-15.93033-10.231673-35.228045-34.502763-43.1958-24.271082-7.967755-48.158802-1.466109-53.339398 14.4694z" fill="#775a3c" filter="url(#m)" opacity=".15" stroke-width="2.03834"/><path d="m22.416436 101.9541s29.783241 8.60497 64.436231-14.90457c33.015943-22.431979 16.857663-57.033171 24.716623-43.915905 7.85896 13.117265 20.53587 54.194205-21.193803 76.154745-38.05148 19.96601-67.959051-17.33427-67.959051-17.33427z" fill="#ffe980" filter="url(#l)" opacity=".5" stroke-width="2.03834"/><circle cx="66.145836" cy="66.145836" fill="url(#n)" opacity=".5" r="66.145836"/><path d="m106.4923 30.840075c3.62643 7.444513 2.02044 15.635034-3.56943 18.360026-5.589853 2.724994-13.008463-1.134549-16.608983-8.563522-3.60051-7.428972-1.99971-15.660939 3.56943-18.37039 5.56914-2.709449 13.018833 1.170816 16.608983 8.573886z" fill="#fff" filter="url(#j)" opacity=".5" stroke-width="1.38152"/><path d="m113.74514 68.124815c.0415 5.429263-3.23788 9.843125-7.32536 9.843125-4.08749 0-7.434163-4.377598-7.449703-9.801681-.0157-5.424082 3.258593-9.84313 7.346103-9.884575 4.08748-.04145 7.42896 4.377602 7.42896 9.843131z" fill="#fff" filter="url(#k)" opacity=".5" stroke-width="1.38152"/></g></svg>