<svg height="500" viewBox="0 0 500 500" width="500" xmlns="http://www.w3.org/2000/svg" xmlns:xlink="http://www.w3.org/1999/xlink"><linearGradient id="a" gradientUnits="userSpaceOnUse" spreadMethod="reflect" x1="198.06673654227" x2="347.27881215269" y1="391.5332110875" y2="271.36616102642"><stop offset="0" stop-color="#e3e1db"/><stop offset=".51123601" stop-color="#c1c0be"/><stop offset="1" stop-color="#a2a19a"/></linearGradient><linearGradient id="b" gradientTransform="matrix(2.6778927 0 0 3.1842362 -475.64199 -806.15514)" gradientUnits="userSpaceOnUse" spreadMethod="reflect" x1="211.54555" x2="202.14148" y1="267.21448" y2="350.26288"><stop offset="0" stop-color="#9f571d"/><stop offset=".511236" stop-color="#fde791"/><stop offset="1" stop-color="#b7671e"/></linearGradient><linearGradient id="c" gradientUnits="userSpaceOnUse" x1="180.7793" x2="240.11171" y1="99.007858" y2="249.99977"><stop offset="0" stop-color="#da0b61"/><stop offset="1" stop-color="#b11b58"/></linearGradient><filter id="d" color-interpolation-filters="sRGB" height="1.147165" width="1.16395" x="-.081975" y="-.073582"><feGaussianBlur stdDeviation="9.3602442"/></filter><filter id="e" color-interpolation-filters="sRGB" height="1.147165" width="1.163914" x="-.081957" y="-.073582"><feGaussianBlur stdDeviation="9.3602442"/></filter><g stroke-width="1.08067" transform="matrix(-.92339926 .06006345 .06006345 .92339926 463.37786 -.438056)"><path d="m137.09375 120.38281a16.0016 16.0016 0 0 0 -11.74219 8.91406s-1.60908 3.38673-3.88086 7.45118-5.77509 8.94565-6.12695 9.29687c-.3545.35386-5.24768 3.8524-9.32031 6.11914-4.07264 2.26674-7.466799 3.8711-7.466799 3.8711a16.0016 16.0016 0 0 0 -8.414063 19.33984c1.139798 3.56731 2.918334 7.42486 5.859375 11.82812a16.0016 16.0016 0 0 0 0 .002c3.747864 5.60973 8.479527 11.14432 13.701177 16.35547 2.10655 2.10232 4.27085 4.11381 6.45117 6.00781a16.0016 16.0016 0 0 0 14.89453 3.30273c13.70089-3.92031 25.58929-6.28666 31.01367-7.27343a16.0016 16.0016 0 0 0 12.875-12.86719c.98146-5.37449 3.35269-17.24814 7.28711-30.94336a16.0016 16.0016 0 0 0 -3.32031-14.93359c-1.8979-2.17612-3.91297-4.33713-6.01953-6.43946-5.22164-5.21113-10.76658-9.93148-16.38477-13.66992a16.0016 16.0016 0 0 0 -.002-.002c-4.41043-2.93401-8.27537-4.7044-11.83399-5.83789a16.0016 16.0016 0 0 0 -7.57031-.52149zm8.51562 38.41211c1.18494 1.03191 2.36572 2.10351 3.53907 3.23438-1.37401 5.34841-2.6149 10.14668-3.5 14.26562-4.14771.88742-8.97368 2.12698-14.35938 3.50586-1.12074-1.15751-2.1807-2.32256-3.20508-3.49219 3.25402-2.01499 6.57163-4.32755 9.86524-7.61523 3.31051-3.30455 5.6341-6.63355 7.66015-9.89844z" fill="#84542e"/><path d="m105.38437 170.50553c.5848 1.83029 1.84908 4.70792 3.92174 7.81106 2.93077 4.38672 7.12423 9.35388 11.69921 13.91966 1.83675 1.83306 3.73755 3.59903 5.64113 5.25263 14.40958-4.1231 26.75922-6.57948 32.55153-7.63319 1.04867-5.74255 3.5096-18.07889 7.64856-32.48609-1.65653-1.89937-3.42645-3.79675-5.2632-5.62981-4.57498-4.56577-9.55215-8.7508-13.94771-11.67568-3.10939-2.0685-5.99321-3.32984-7.82678-3.91387 0 0-7.27157 15.33913-13.1624 21.21936-5.89611 5.8855-21.26208 13.13593-21.26208 13.13593z" fill="url(#b)"/><path d="m116.5957 94.710937a16.0016 16.0016 0 0 0 -16.51757 8.964843s-1.637486 3.421-3.945318 7.52539c-2.307831 4.10439-5.847627 9.0339-6.25 9.43555-.40502.40429-5.346335 3.93752-9.458984 6.24023-4.112649 2.30272-7.539062 3.93555-7.539062 3.93555a16.0016 16.0016 0 0 0 -8.990235 16.53906c1.090147 8.27633 4.946885 15.42936 10.800781 21.27149 5.853901 5.84214 13.012198 9.68082 21.28125 10.76562a16.0016 16.0016 0 0 0 8.953128-1.41406s4.31372-2.04873 9.42773-4.91211 10.88658-5.98057 16.43164-11.51563c5.54242-5.53242 8.6668-11.29565 11.53711-16.40039 2.87031-5.10473 4.92383-9.41015 4.92383-9.41015a16.0016 16.0016 0 0 0 1.42773-8.98828c-1.09015-8.27633-4.94687-15.42936-10.80078-21.27149-5.8539-5.842147-13.01222-9.6808-21.28125-10.765623z" fill="#84542e"/><path d="m79.75735 145.26195c.548998 4.16796 2.777607 8.58128 6.23947 12.03618 3.461863 3.45491 7.884072 5.67903 12.060422 6.22692 0 0 15.478288-7.36253 21.428378-13.30188 5.9448-5.93408 13.3287-21.38531 13.3287-21.38531-.549-4.16796-2.77761-8.58128-6.23948-12.03618-3.46186-3.45491-7.88407-5.67903-12.06042-6.22693 0 0-7.38389 15.45123-13.32869 21.38531-5.950093 5.93936-21.42838 13.30189-21.42838 13.30189z" fill="url(#b)"/><path d="m91.134766 69.300781a16.0016 16.0016 0 0 0 -16.517579 8.964844s-1.63748 3.421001-3.945312 7.525391-5.847627 9.033899-6.25 9.435546c-.405014.404285-5.346337 3.939474-9.458984 6.242188-4.112648 2.30271-7.539063 3.93555-7.539063 3.93555a16.0016 16.0016 0 0 0 -8.990234 16.53711c1.09014 8.27635 4.946902 15.42937 10.800781 21.27148 5.853887 5.84211 13.01217 9.68277 21.28125 10.76758a16.0016 16.0016 0 0 0 8.953125-1.41602s4.313728-2.04872 9.427734-4.91211c5.114007-2.86338 10.886576-5.98056 16.431646-11.51562 5.54242-5.53243 8.66679-11.2937 11.5371-16.39844 2.87031-5.10473 4.92383-9.41016 4.92383-9.41015a16.0016 16.0016 0 0 0 1.42774-8.98829c-1.09014-8.276354-4.94688-15.43131-10.80078-21.273434-5.85389-5.842124-13.012176-9.680819-21.281254-10.765625z" fill="#84542e"/><path d="m54.296629 119.85241c.548993 4.16796 2.777607 8.58128 6.239464 12.03618 3.461863 3.4549 7.884073 5.67903 12.060429 6.22692 0 0 15.478287-7.36253 21.428374-13.30188 5.944801-5.93408 13.328694-21.38531 13.328694-21.38531-.54899-4.167963-2.7776-8.581283-6.23947-12.036187-3.461862-3.454904-7.884071-5.679032-12.060427-6.226921 0 0-7.383892 15.451228-13.328692 21.385308-5.950087 5.93936-21.428372 13.30189-21.428372 13.30189z" fill="url(#b)"/><g stroke-width="4.05483" transform="matrix(1.0072993 0 0 1.0072993 -30.97802 -.039263)"><path d="m66.166016 9.9609375c-14.351597-.000167-28.820769 5.5496215-39.722657 16.4511715-21.8045914 21.804595-21.9144651 57.679635-.074218 79.519531 21.840351 21.84036 57.713433 21.7283 79.517579-.0762 21.80479-21.804154 21.80465-57.639014 0-79.443361-10.902019-10.901989-25.369601-16.4509745-39.720704-16.4511415z" fill="#84542e" stroke-width="1.07284"/><path d="m37.675368 37.643642c-15.732448 15.73245-15.807342 41.323485-.07512 57.055455 15.732448 15.732453 41.323484 15.657083 57.05546-.07513 15.732432-15.731969 15.732432-41.247871 0-56.98008-7.866229-7.86623-18.178025-11.799583-28.490174-11.799703-10.31215-.00012-20.623937 3.933473-28.490165 11.799458z" fill="url(#b)"/></g><path d="m212.06641 181.31836c-7.48045-.81069-14.5152 3.69975-16.90039 10.83594l-7.26172 21.73828-4.58008 4.57226-21.79297 7.25c-11.29582 3.7592-14.6775 18.09728-6.25195 26.50782l21.93554 21.89062c28.18486 26.99237 39.6729 64.68105 22.54102 102.08789-2.1999 4.80417-1.88635 10.38462.83789 14.91211 46.99806 78.10176 166.89391 135.246 288.28906 96.37109 21.88069-7.35798 25.20842-14.2374 30.58753-20.88476 0 0-22.83886-6.78452-30.0055-9.39063-91.95499-33.3957-118.6681-68.78641-142.27343-110.48437-19.57366-34.57615-36.54915-75.34603-80.90039-116.01563-.12141-.15856-.24579-.31484-.37305-.46875l-44.25391-44.32031c-2.58041-2.5841-5.96708-4.20782-9.59765-4.60156zm3.3789 48.9043c.39101.53625.81501 1.04766 1.26953 1.53125 62.67562 44.42092 77.37067 86.11856 102.62891 130.73632 20.55108 36.30275 48.63983 72.74934 110.80664 104.10938-85.21335 7.2668-163.34512-35.14637-197.82031-85.59961 11.81541-32.05446 8.28804-65.00499-5.73438-93.125.91171-5.1203-.72216-10.36426-4.38086-14.06055l-25.97461-25.92187.76563-.25586c2.35474-.783 4.49511-2.10293 6.25195-3.85547l9.92774-9.9082c.91381-1.10976 1.6739-2.33761 2.25976-3.65039z" fill="#7f7e75"/><path d="m188.22121 262.49322c32.27278 30.86634 46.1416 76.56903 26.08123 120.37013 42.41778 70.49022 155.71611 125.88549 269.70091 89.38364-189.26615-68.73664-126.6842-160.45245-258.03641-253.54744m28.62888 22.8458-44.25401-44.32129-8.45853 25.32379-9.9273 9.90733-25.37479 8.44153 44.33229 44.24317" fill="url(#a)"/><g stroke-width="1.08067"><path d="m225.51172 77.009766c-4.13523.08294-8.3001.678989-12.45703 1.878906a16.0016 16.0016 0 0 0 -.1836.05469c-7.74647 2.336626-13.80217 6.737286-18.56445 11.333985-4.76051 4.59415-8.37972 9.50691-11.3418 13.943353a16.0016 16.0016 0 0 0 -.12695.19336c-7.47862 11.56211-13.06408 24.97592-17.46484 37.95117-5.76038 16.98122-9.82591 32.83919-12.4043 41.23438-8.41507 2.57605-24.30753 6.63097-41.32812 12.38086-12.996943 4.39125-26.432657 9.96228-38.013677 17.42383a16.0016 16.0016 0 0 0 -.193359.12695c-4.446001 2.95578-9.36674 6.56661-13.970703 11.31836-4.603972 4.75174-9.01872 10.79689-11.365235 18.54492a16.0016 16.0016 0 0 0 -.05469.18359c-4.819118 16.6281.04815 33.37618 8.884765 47.81836 8.842237 14.45105 21.487706 26.33994 38.128907 30.21289 15.936392 3.70947 30.636972-2.20556 43.193362-10.82421a16.0016 16.0016 0 0 0 .002-.002c12.61245-8.65814 22.43594-19.40917 26.93946-32.89258 2.20557-6.6041 2.17506-14.12258.0254-20.08007-1.39449-3.86462-3.37014-6.72714-5.39453-9.21289l35.45117-13.4336a16.0016 16.0016 0 0 0 9.28515-9.27344l13.47657-35.42578c2.5022 2.03949 5.38326 4.03197 9.2832 5.4336 5.95421 2.13993 13.45877 2.17269 20.0625-.0234a16.0016 16.0016 0 0 0 .002 0c13.48253-4.48603 24.26391-14.28812 32.94336-26.88086a16.0016 16.0016 0 0 0 0-.002c8.63972-12.53662 14.58113-27.22772 10.85536-43.16987-3.88874-16.6419-15.8074-29.252841-30.2793-38.07227-10.84759-6.610713-22.98495-10.989052-35.39062-10.740234zm-33.95313 89.199214c.21504.72425.43617 1.41468.65821 2.12696l-4.21485 11.08398c1.14401-4.24558 2.29256-8.6545 3.55664-13.21094zm-13.09179 38.27539-1.25782 3.30469-3.30859 1.25391a16.0016 16.0016 0 0 0 4.56641-4.5586zm-30.19922 14.27149-10.62696 4.02734c-.68346-.21231-1.34077-.42879-2.03515-.63476 4.36752-1.20538 8.5805-2.30036 12.66211-3.39258z" fill="#84542e"/><path d="m70.953513 235.98275c-3.399007 3.5081-6.165474 7.50295-7.542344 12.04928-2.92241 10.08361.155148 23.55702 7.165203 35.01395 7.010449 11.45732 17.769591 20.57339 28.10744 22.97935 8.958198 2.08517 20.512198-1.56864 30.511898-8.43239 9.9997-6.86455 18.17378-16.84692 20.8205-24.77113 2.51504-7.53075-.53467-12.46417-4.74365-16.66469-3.99017-3.98215-8.57469-6.19119-9.05526-6.41749-9.31624-3.08806-17.77676-5.37293-24.07471-5.13591-6.36597.2398-10.41383 2.0681-14.096881 9.12401-1.89802 4.81551-3.839798 13.1685.767797 16.79015 7.385204 3.97421 17.059484 2.06929 22.987454-3.64111l7.16083 7.14644c-4.14533 4.13699-10.0737 7.03209-16.55146 8.26008-6.47816 1.2276-13.781016.69361-19.641757-3.65778-15.180952-18.01695-.508816-42.74639 18.990917-44.12089 8.45376-.31841 17.25322 2.22294 26.3419 5.21253l51.50346-19.51572 19.55503-51.39992c-2.99562-9.07042-5.54209-17.85219-5.22303-26.28895 1.37726-19.46053 26.15651-34.10318 44.20975-18.95274 4.36015 5.84896 4.89522 13.13713 3.66515 19.60227-1.23047 6.46474-4.1314 12.38119-8.27672 16.51818l-7.16083-7.14643c5.7223-5.91566 7.63106-15.57049 3.64805-22.94164-3.62816-4.59753-11.99837-2.66006-16.82357-.76586-7.07013 3.67565-8.9021 7.71537-9.14199 14.06815-.2379 6.28569 2.05118 14.7296 5.14585 24.02671.22676.48039 2.44025 5.05491 6.43042 9.03706 4.20898 4.20051 9.15234 7.2441 16.69865 4.73451 7.93977-2.64179 17.94225-10.79945 24.82062-20.77905 6.87758-9.97959 10.53875-21.51036 8.44938-30.45055-2.41081-10.31707-11.54524-21.05458-23.02564-28.05094-11.4804-6.996357-24.98055-10.067342-35.08447-7.150801-4.55548 1.374102-8.55878 4.134609-12.07356 7.527181-3.51517 3.39217-6.54221 7.41521-9.14636 11.31558-6.32739 9.78228-11.61526 22.22025-15.74627 34.40015-6.96868 20.54322-10.51726 39.33993-15.09024 48.57589-9.25498 4.56419-28.08914 8.10525-48.67374 15.05913-12.20444 4.12349-24.667468 9.40073-34.469045 15.7158-3.908617 2.59852-7.939771 5.61948-11.338772 9.12759z" fill="url(#b)"/></g></g><g stroke-width="8.56781" transform="matrix(.11809474 0 0 .11535312 404.93988 34.31993)"><g fill-rule="evenodd"><path d="m250 0c-135.13489-.00001831-244.6542969 112.36629-244.6542969 250s109.5194069 250.00002 244.6542969 250c135.13489.00002 244.6543-112.36629 244.6543-250s-109.51941-250.00001831-244.6543-250z" fill="#7d2b4d"/><path d="m476.65421 250a226.65418 232 0 0 1 -226.65421 232 226.65418 232 0 0 1 -226.65421-232 226.65418 232 0 0 1 226.65421-232 226.65418 232 0 0 1 226.65421 232z" fill="#7d2b4d"/><path d="m377.16286 249.99588-27.47926-85.49905-99.69921-67.14648-99.66723 67.14648-27.44922 85.49905 27.41918 85.50681 99.69727 67.14649 99.72956-67.14649z" fill="url(#c)"/><path d="m103.06055 303.69655 146.92384 98.95263 99.72956-67.14649 27.44891-85.50681-27.47926-85.49905-99.69921-67.14648 60.83514 51.81279c19.87561 15.28864 36.33708 36.95446 44.07011 60.94623 8.14157 25.25928 8.07024 54.49938-.00097 79.78223-7.54895 23.64687-23.61016 45.31057-43.05974 60.26653-17.53486 13.48362-39.89724 23.04753-61.84231 23.07234-21.72096.0246-43.83878-9.17975-61.26006-22.69823-28.55534-15.6119-57.11067-31.22379-85.66601-46.83569z" fill="#732646" filter="url(#e)" opacity=".5"/></g><path d="m188.72656 350.53224c-19.51713-15.1448-35.96509-36.80411-43.61523-60.64064-8.11015-25.26984-8.10965-54.51223 0-79.78223 7.64861-23.83336 23.95502-45.60524 43.60677-60.63396 17.39289-13.30126 39.54395-22.68204 61.26836-22.70588 21.55333-.0237 43.41569 8.99589 60.83307 22.39361l86.09096 47.14034-146.9261-98.95313-99.66723 67.14648-27.44922 85.49905 27.41918 85.50681 99.69727 67.14649z" fill="#f63c88" filter="url(#d)" opacity=".5"/><path d="m249.98439 18.00074v79.34961l75.55273-8.06934zm0 0c-19.66253.16558-39.17881 3.0901-57.93135 8.13315-18.75256 5.04305-36.74135 11.94249-53.22884 22.07342l35.6094 41.0737zm-214.201498 157.59962 67.277348 20.70312-31.912053-87.9834c-8.05069 9.8996-15.315904 21.17576-21.143431 32.44833-5.827515 11.27257-10.529914 22.97416-14.221864 34.83195zm-12.422114 74.39552c.264726 12.78921 1.108696 25.27396 3.031711 37.75296 1.923016 12.479 4.894041 24.95909 9.390454 36.5898l67.277607-20.64209zm115.463432 201.53416 35.6094-40.81055-103.315422-19.146c8.894269 12.29613 19.486451 23.82268 30.830842 33.91756 11.34438 10.09488 23.72314 19.14431 36.87518 26.03899zm111.16018 30.46923v-79.35009l-75.55078 8.07031zm111.16044-30.46923-35.60739-40.81055-75.55305 71.27978c19.66549-.16802 39.24523-2.5992 57.99855-7.64282 18.75334-5.04361 36.68034-12.69915 53.16189-22.82641zm-35.60739-40.81055 24.17651-75.2168-99.72956 67.14649zm138.64849-86.38085-67.27539-20.64209 31.94137 87.87694c8.05079-9.89981 15.34545-20.85675 21.1729-32.12972s10.46897-23.24718 14.16112-35.10513zm12.45312-74.34276c.0667-12.36906-.9144-25.11101-3.05829-37.92707-2.14389-12.81607-5.45065-25.64081-8.99839-36.46845l-67.67188 20.70312zm-115.16244-201.78857-35.93949 41.0737 103.79566 19.03907c-9.13568-12.24007-19.53534-23.64967-30.93258-33.71848s-23.85527-18.82757-36.92359-26.39429zm-187.04301 41.0737-24.11644 75.21582 99.66723-67.14648z" fill="#b11b58" fill-rule="evenodd"/><path d="m23.360778 249.99588 79.699772 53.70067 19.80739-53.70067-19.8077-53.6924zm79.699772 53.70067-31.942362 87.87694c.187633.25756-.188672-.25676 0 0l103.315422 19.146-24.14649-75.2168zm222.47689 107.02294 103.31447-19.146c.18802-.25611-.18699.25691 0 0l-31.94137-87.87694-47.19659 31.80614zm151.10161-160.72361-79.72856-53.6924-19.74763 53.6924 19.74768 53.70067zm-47.30627-141.6758-103.79566-19.03907 24.14648 75.21582 47.22689 31.80665zm-326.27254 87.9834 47.25692-31.80665 24.11644-75.21582-103.285413 19.03907c-.188672.25741.187633-.25822 0 0z" fill="#da0b61" fill-rule="evenodd"/><path d="m249.98439 18.00074 75.55273 71.28027 35.93949-41.0737c-15.12655-8.88357-31.83801-16.76434-50.33921-22.07342-18.50119-5.30907-30.87363-7.36604-61.15301-8.13315zm0 0-75.55079 71.28027 75.55079 8.06934zm-178.836203 90.31934 103.285413-19.03907-35.6094-41.0737c-13.31043 7.27793-25.7318 16.36604-37.14226 26.39429-11.410469 10.02825-22.062195 21.5391-30.533753 33.71848zm31.912053 87.9834-67.277348-20.70312c-4.50072 11.82001-7.517399 23.89777-9.479674 36.46845s-2.900093 25.71146-2.94244 37.92707zm.00031 107.39307-67.277607 20.64209c3.717916 12.30533 8.550441 23.91472 14.443103 35.10513 5.892649 11.19041 13.127915 22.34707 20.892142 32.12972zm222.47689 107.02294-75.55305-8.07031v79.35009l-75.55078-71.27978-35.6094 40.81055c16.40114 10.07914 34.47832 17.74666 53.32427 22.82641 18.84596 5.07973 38.47989 7.57316 57.83591 7.64282zm0 0 35.60739 40.81055c13.31173-7.27644 25.90227-16.01001 37.313-26.03899 11.41073-10.02899 21.92292-21.73767 30.39408-33.91756zm151.10161-160.72361-79.72851 53.70067 67.27539 20.64209c4.50401-11.82656 7.56658-24.01474 9.54368-36.5898s2.8687-25.54187 2.90944-37.75296zm-47.30627-141.6758-32.42229 87.9834 67.67188-20.70312c-5.17925-12.86146-9.65663-24.94096-15.30849-36.14545s-12.48168-21.53106-19.9411-31.13483zm-179.34839 294.3291-99.69727-67.14649 24.14649 75.2168zm0-305.29883 99.69921 67.14648-24.14648-75.21582z" fill="#f63c88" fill-rule="evenodd"/><path d="m103.06055 303.69655 47.22657 31.80614-27.41918-85.50681zm293.84994-107.39307-47.22689-31.80665 27.47926 85.49905zm-19.74763 53.6924-27.44891 85.50681 47.19659-31.80614zm-254.29492 0 27.44922-85.49905-47.25692 31.80665z" fill="#f63c88" fill-rule="evenodd"/><path d="m476.42305 238.9927-58.82735-39.6177 49.72774-15.25651 8.5789-2.63216-5.28125-17.20703-9.40008 2.884-49.57453 15.20975 26.17774-71.07617-6.83203-11.964849-88.2461-16.068359 26.60344-30.494111 4.8868-5.597686-13.5625-11.833984-7.25708 8.321386-28.49292 32.655176-61.28342-57.818718-13.64041-7.04261-13.57549 6.963389-61.34639 57.897939-28.44888-32.608032-7.30112-8.36853-13.56445 11.833984 4.8898 5.595781 26.60239 30.496016-88.246094 16.068359-6.833985 11.964849 26.177735 71.07617-50.371094-15.45508-8.603516-2.63867-5.279297 17.20703 8.603516 2.64062 49.701172 15.24805-58.802343 39.598-16.3694712 11.027 16.5206602 11.12596 58.651154 39.49904-49.727697 15.25664-8.576991 2.63203 5.279297 17.20703 8.958006-2.74793 50.016604-15.34582-23.933971 64.98404 1.172251 12.07455 13.633078 7.85273 78.029036 14.19806-26.42547 30.28715-5.06477 5.80464 13.5625 11.83399 7.43043-8.51587 28.32152-32.45874 61.33318 57.86556 13.5887 6.99381 13.57572-6.9634 61.34615-57.89597 28.3146 32.45184 7.43736 8.52277 13.5625-11.83399-4.88729-5.59737-26.60295-30.49442 77.80357-14.16692 20.97494-3.81924-5.8967-16.01037-23.98142-65.11285 50.3711 15.45508 8.60351 2.63867 5.2793-17.20703-8.60352-2.64062-49.70117-15.24805 58.77592-39.58307 16.39589-11.04193zm-217.42305-200.127466 46.15234 43.542969-46.15234 4.929688zm-18 .002v48.470704l-46.15039-4.929688zm-60.2207 60.140625 43.71484 4.669921-57.6875 38.85157zm138.44336 0 13.97265 43.521491-57.68945-38.85157zm-157.9336 1.816411-18.60351 57.94922-35.12696 23.6582-24.791012-67.30859zm177.42188 0 78.52148 14.29883-24.78906 67.31054-35.12891-23.66015zm-88.71094 7.37886 92.08398 62.01562 25.61133 79.78125-25.61328 79.7832-92.08203 62.01563-92.08203-62.01563-25.61328-79.7832 25.61328-79.78125zm116.20312 78.25976 19.83594 13.35938-8.30664 22.55273zm-232.40625.002-11.52734 35.90821-8.30664-22.55078zm-35.20312 23.70894 14.66797 39.82422-14.669923 39.82812-59.134766-39.82617zm302.81445 0 59.13477 39.82617-59.13477 39.82617-14.66797-39.82617zm-279.13867 67.45312 11.52734 35.91016-19.83398-13.35742zm255.46094 0 8.30664 22.55274-19.83399 13.35742zm-270.17188 39.93946 35.12696 23.6582 18.60351 57.95117-78.521482-14.29883zm284.88282 0 24.79101 67.31054-78.52148 14.29883 18.60351-57.95117zm-225.63477 39.90429 57.68945 38.85157-43.71679 4.66992zm166.38672 0-13.97266 43.52149-43.71679-4.66992zm-92.19336 55.18946v48.47461l-46.15234-43.54493zm18 0 46.15234 4.92968-46.15234 43.54493z" fill="#7d2b4d"/></g><g stroke-width="6.10322"><g transform="matrix(.09147883 0 0 .08935511 236.337 120.78742)"><g fill-rule="evenodd"><path d="m250 0c-135.13489-.00001831-244.6542969 112.36629-244.6542969 250s109.5194069 250.00002 244.6542969 250c135.13489.00002 244.6543-112.36629 244.6543-250s-109.51941-250.00001831-244.6543-250z" fill="#7d2b4d"/><path d="m476.65421 250a226.65418 232 0 0 1 -226.65421 232 226.65418 232 0 0 1 -226.65421-232 226.65418 232 0 0 1 226.65421-232 226.65418 232 0 0 1 226.65421 232z" fill="#7d2b4d"/><path d="m377.16286 249.99588-27.47926-85.49905-99.69921-67.14648-99.66723 67.14648-27.44922 85.49905 27.41918 85.50681 99.69727 67.14649 99.72956-67.14649z" fill="url(#c)"/><path d="m103.06055 303.69655 146.92384 98.95263 99.72956-67.14649 27.44891-85.50681-27.47926-85.49905-99.69921-67.14648 60.83514 51.81279c19.87561 15.28864 36.33708 36.95446 44.07011 60.94623 8.14157 25.25928 8.07024 54.49938-.00097 79.78223-7.54895 23.64687-23.61016 45.31057-43.05974 60.26653-17.53486 13.48362-39.89724 23.04753-61.84231 23.07234-21.72096.0246-43.83878-9.17975-61.26006-22.69823-28.55534-15.6119-57.11067-31.22379-85.66601-46.83569z" fill="#732646" filter="url(#e)" opacity=".5"/></g><path d="m188.72656 350.53224c-19.51713-15.1448-35.96509-36.80411-43.61523-60.64064-8.11015-25.26984-8.10965-54.51223 0-79.78223 7.64861-23.83336 23.95502-45.60524 43.60677-60.63396 17.39289-13.30126 39.54395-22.68204 61.26836-22.70588 21.55333-.0237 43.41569 8.99589 60.83307 22.39361l86.09096 47.14034-146.9261-98.95313-99.66723 67.14648-27.44922 85.49905 27.41918 85.50681 99.69727 67.14649z" fill="#f63c88" filter="url(#d)" opacity=".5"/><path d="m249.98439 18.00074v79.34961l75.55273-8.06934zm0 0c-19.66253.16558-39.17881 3.0901-57.93135 8.13315-18.75256 5.04305-36.74135 11.94249-53.22884 22.07342l35.6094 41.0737zm-214.201498 157.59962 67.277348 20.70312-31.912053-87.9834c-8.05069 9.8996-15.315904 21.17576-21.143431 32.44833-5.827515 11.27257-10.529914 22.97416-14.221864 34.83195zm-12.422114 74.39552c.264726 12.78921 1.108696 25.27396 3.031711 37.75296 1.923016 12.479 4.894041 24.95909 9.390454 36.5898l67.277607-20.64209zm115.463432 201.53416 35.6094-40.81055-103.315422-19.146c8.894269 12.29613 19.486451 23.82268 30.830842 33.91756 11.34438 10.09488 23.72314 19.14431 36.87518 26.03899zm111.16018 30.46923v-79.35009l-75.55078 8.07031zm111.16044-30.46923-35.60739-40.81055-75.55305 71.27978c19.66549-.16802 39.24523-2.5992 57.99855-7.64282 18.75334-5.04361 36.68034-12.69915 53.16189-22.82641zm-35.60739-40.81055 24.17651-75.2168-99.72956 67.14649zm138.64849-86.38085-67.27539-20.64209 31.94137 87.87694c8.05079-9.89981 15.34545-20.85675 21.1729-32.12972s10.46897-23.24718 14.16112-35.10513zm12.45312-74.34276c.0667-12.36906-.9144-25.11101-3.05829-37.92707-2.14389-12.81607-5.45065-25.64081-8.99839-36.46845l-67.67188 20.70312zm-115.16244-201.78857-35.93949 41.0737 103.79566 19.03907c-9.13568-12.24007-19.53534-23.64967-30.93258-33.71848s-23.85527-18.82757-36.92359-26.39429zm-187.04301 41.0737-24.11644 75.21582 99.66723-67.14648z" fill="#b11b58" fill-rule="evenodd"/><path d="m23.360778 249.99588 79.699772 53.70067 19.80739-53.70067-19.8077-53.6924zm79.699772 53.70067-31.942362 87.87694c.187633.25756-.188672-.25676 0 0l103.315422 19.146-24.14649-75.2168zm222.47689 107.02294 103.31447-19.146c.18802-.25611-.18699.25691 0 0l-31.94137-87.87694-47.19659 31.80614zm151.10161-160.72361-79.72856-53.6924-19.74763 53.6924 19.74768 53.70067zm-47.30627-141.6758-103.79566-19.03907 24.14648 75.21582 47.22689 31.80665zm-326.27254 87.9834 47.25692-31.80665 24.11644-75.21582-103.285413 19.03907c-.188672.25741.187633-.25822 0 0z" fill="#da0b61" fill-rule="evenodd"/><path d="m249.98439 18.00074 75.55273 71.28027 35.93949-41.0737c-15.12655-8.88357-31.83801-16.76434-50.33921-22.07342-18.50119-5.30907-30.87363-7.36604-61.15301-8.13315zm0 0-75.55079 71.28027 75.55079 8.06934zm-178.836203 90.31934 103.285413-19.03907-35.6094-41.0737c-13.31043 7.27793-25.7318 16.36604-37.14226 26.39429-11.410469 10.02825-22.062195 21.5391-30.533753 33.71848zm31.912053 87.9834-67.277348-20.70312c-4.50072 11.82001-7.517399 23.89777-9.479674 36.46845s-2.900093 25.71146-2.94244 37.92707zm.00031 107.39307-67.277607 20.64209c3.717916 12.30533 8.550441 23.91472 14.443103 35.10513 5.892649 11.19041 13.127915 22.34707 20.892142 32.12972zm222.47689 107.02294-75.55305-8.07031v79.35009l-75.55078-71.27978-35.6094 40.81055c16.40114 10.07914 34.47832 17.74666 53.32427 22.82641 18.84596 5.07973 38.47989 7.57316 57.83591 7.64282zm0 0 35.60739 40.81055c13.31173-7.27644 25.90227-16.01001 37.313-26.03899 11.41073-10.02899 21.92292-21.73767 30.39408-33.91756zm151.10161-160.72361-79.72851 53.70067 67.27539 20.64209c4.50401-11.82656 7.56658-24.01474 9.54368-36.5898s2.8687-25.54187 2.90944-37.75296zm-47.30627-141.6758-32.42229 87.9834 67.67188-20.70312c-5.17925-12.86146-9.65663-24.94096-15.30849-36.14545s-12.48168-21.53106-19.9411-31.13483zm-179.34839 294.3291-99.69727-67.14649 24.14649 75.2168zm0-305.29883 99.69921 67.14648-24.14648-75.21582z" fill="#f63c88" fill-rule="evenodd"/><path d="m103.06055 303.69655 47.22657 31.80614-27.41918-85.50681zm293.84994-107.39307-47.22689-31.80665 27.47926 85.49905zm-19.74763 53.6924-27.44891 85.50681 47.19659-31.80614zm-254.29492 0 27.44922-85.49905-47.25692 31.80665z" fill="#f63c88" fill-rule="evenodd"/><path d="m476.42305 238.9927-58.82735-39.6177 49.72774-15.25651 8.5789-2.63216-5.28125-17.20703-9.40008 2.884-49.57453 15.20975 26.17774-71.07617-6.83203-11.964849-88.2461-16.068359 26.60344-30.494111 4.8868-5.597686-13.5625-11.833984-7.25708 8.321386-28.49292 32.655176-61.28342-57.818718-13.64041-7.04261-13.57549 6.963389-61.34639 57.897939-28.44888-32.608032-7.30112-8.36853-13.56445 11.833984 4.8898 5.595781 26.60239 30.496016-88.246094 16.068359-6.833985 11.964849 26.177735 71.07617-50.371094-15.45508-8.603516-2.63867-5.279297 17.20703 8.603516 2.64062 49.701172 15.24805-58.802343 39.598-16.3694712 11.027 16.5206602 11.12596 58.651154 39.49904-49.727697 15.25664-8.576991 2.63203 5.279297 17.20703 8.958006-2.74793 50.016604-15.34582-23.933971 64.98404 1.172251 12.07455 13.633078 7.85273 78.029036 14.19806-26.42547 30.28715-5.06477 5.80464 13.5625 11.83399 7.43043-8.51587 28.32152-32.45874 61.33318 57.86556 13.5887 6.99381 13.57572-6.9634 61.34615-57.89597 28.3146 32.45184 7.43736 8.52277 13.5625-11.83399-4.88729-5.59737-26.60295-30.49442 77.80357-14.16692 20.97494-3.81924-5.8967-16.01037-23.98142-65.11285 50.3711 15.45508 8.60351 2.63867 5.2793-17.20703-8.60352-2.64062-49.70117-15.24805 58.77592-39.58307 16.39589-11.04193zm-217.42305-200.127466 46.15234 43.542969-46.15234 4.929688zm-18 .002v48.470704l-46.15039-4.929688zm-60.2207 60.140625 43.71484 4.669921-57.6875 38.85157zm138.44336 0 13.97265 43.521491-57.68945-38.85157zm-157.9336 1.816411-18.60351 57.94922-35.12696 23.6582-24.791012-67.30859zm177.42188 0 78.52148 14.29883-24.78906 67.31054-35.12891-23.66015zm-88.71094 7.37886 92.08398 62.01562 25.61133 79.78125-25.61328 79.7832-92.08203 62.01563-92.08203-62.01563-25.61328-79.7832 25.61328-79.78125zm116.20312 78.25976 19.83594 13.35938-8.30664 22.55273zm-232.40625.002-11.52734 35.90821-8.30664-22.55078zm-35.20312 23.70894 14.66797 39.82422-14.669923 39.82812-59.134766-39.82617zm302.81445 0 59.13477 39.82617-59.13477 39.82617-14.66797-39.82617zm-279.13867 67.45312 11.52734 35.91016-19.83398-13.35742zm255.46094 0 8.30664 22.55274-19.83399 13.35742zm-270.17188 39.93946 35.12696 23.6582 18.60351 57.95117-78.521482-14.29883zm284.88282 0 24.79101 67.31054-78.52148 14.29883 18.60351-57.95117zm-225.63477 39.90429 57.68945 38.85157-43.71679 4.66992zm166.38672 0-13.97266 43.52149-43.71679-4.66992zm-92.19336 55.18946v48.47461l-46.15234-43.54493zm18 0 46.15234 4.92968-46.15234 43.54493z" fill="#7d2b4d"/></g><g transform="matrix(.09147883 0 0 .08935511 355.71113 224.3083)"><g fill-rule="evenodd"><path d="m250 0c-135.13489-.00001831-244.6542969 112.36629-244.6542969 250s109.5194069 250.00002 244.6542969 250c135.13489.00002 244.6543-112.36629 244.6543-250s-109.51941-250.00001831-244.6543-250z" fill="#7d2b4d"/><path d="m476.65421 250a226.65418 232 0 0 1 -226.65421 232 226.65418 232 0 0 1 -226.65421-232 226.65418 232 0 0 1 226.65421-232 226.65418 232 0 0 1 226.65421 232z" fill="#7d2b4d"/><path d="m377.16286 249.99588-27.47926-85.49905-99.69921-67.14648-99.66723 67.14648-27.44922 85.49905 27.41918 85.50681 99.69727 67.14649 99.72956-67.14649z" fill="url(#c)"/><path d="m103.06055 303.69655 146.92384 98.95263 99.72956-67.14649 27.44891-85.50681-27.47926-85.49905-99.69921-67.14648 60.83514 51.81279c19.87561 15.28864 36.33708 36.95446 44.07011 60.94623 8.14157 25.25928 8.07024 54.49938-.00097 79.78223-7.54895 23.64687-23.61016 45.31057-43.05974 60.26653-17.53486 13.48362-39.89724 23.04753-61.84231 23.07234-21.72096.0246-43.83878-9.17975-61.26006-22.69823-28.55534-15.6119-57.11067-31.22379-85.66601-46.83569z" fill="#732646" filter="url(#e)" opacity=".5"/></g><path d="m188.72656 350.53224c-19.51713-15.1448-35.96509-36.80411-43.61523-60.64064-8.11015-25.26984-8.10965-54.51223 0-79.78223 7.64861-23.83336 23.95502-45.60524 43.60677-60.63396 17.39289-13.30126 39.54395-22.68204 61.26836-22.70588 21.55333-.0237 43.41569 8.99589 60.83307 22.39361l86.09096 47.14034-146.9261-98.95313-99.66723 67.14648-27.44922 85.49905 27.41918 85.50681 99.69727 67.14649z" fill="#f63c88" filter="url(#d)" opacity=".5"/><path d="m249.98439 18.00074v79.34961l75.55273-8.06934zm0 0c-19.66253.16558-39.17881 3.0901-57.93135 8.13315-18.75256 5.04305-36.74135 11.94249-53.22884 22.07342l35.6094 41.0737zm-214.201498 157.59962 67.277348 20.70312-31.912053-87.9834c-8.05069 9.8996-15.315904 21.17576-21.143431 32.44833-5.827515 11.27257-10.529914 22.97416-14.221864 34.83195zm-12.422114 74.39552c.264726 12.78921 1.108696 25.27396 3.031711 37.75296 1.923016 12.479 4.894041 24.95909 9.390454 36.5898l67.277607-20.64209zm115.463432 201.53416 35.6094-40.81055-103.315422-19.146c8.894269 12.29613 19.486451 23.82268 30.830842 33.91756 11.34438 10.09488 23.72314 19.14431 36.87518 26.03899zm111.16018 30.46923v-79.35009l-75.55078 8.07031zm111.16044-30.46923-35.60739-40.81055-75.55305 71.27978c19.66549-.16802 39.24523-2.5992 57.99855-7.64282 18.75334-5.04361 36.68034-12.69915 53.16189-22.82641zm-35.60739-40.81055 24.17651-75.2168-99.72956 67.14649zm138.64849-86.38085-67.27539-20.64209 31.94137 87.87694c8.05079-9.89981 15.34545-20.85675 21.1729-32.12972s10.46897-23.24718 14.16112-35.10513zm12.45312-74.34276c.0667-12.36906-.9144-25.11101-3.05829-37.92707-2.14389-12.81607-5.45065-25.64081-8.99839-36.46845l-67.67188 20.70312zm-115.16244-201.78857-35.93949 41.0737 103.79566 19.03907c-9.13568-12.24007-19.53534-23.64967-30.93258-33.71848s-23.85527-18.82757-36.92359-26.39429zm-187.04301 41.0737-24.11644 75.21582 99.66723-67.14648z" fill="#b11b58" fill-rule="evenodd"/><path d="m23.360778 249.99588 79.699772 53.70067 19.80739-53.70067-19.8077-53.6924zm79.699772 53.70067-31.942362 87.87694c.187633.25756-.188672-.25676 0 0l103.315422 19.146-24.14649-75.2168zm222.47689 107.02294 103.31447-19.146c.18802-.25611-.18699.25691 0 0l-31.94137-87.87694-47.19659 31.80614zm151.10161-160.72361-79.72856-53.6924-19.74763 53.6924 19.74768 53.70067zm-47.30627-141.6758-103.79566-19.03907 24.14648 75.21582 47.22689 31.80665zm-326.27254 87.9834 47.25692-31.80665 24.11644-75.21582-103.285413 19.03907c-.188672.25741.187633-.25822 0 0z" fill="#da0b61" fill-rule="evenodd"/><path d="m249.98439 18.00074 75.55273 71.28027 35.93949-41.0737c-15.12655-8.88357-31.83801-16.76434-50.33921-22.07342-18.50119-5.30907-30.87363-7.36604-61.15301-8.13315zm0 0-75.55079 71.28027 75.55079 8.06934zm-178.836203 90.31934 103.285413-19.03907-35.6094-41.0737c-13.31043 7.27793-25.7318 16.36604-37.14226 26.39429-11.410469 10.02825-22.062195 21.5391-30.533753 33.71848zm31.912053 87.9834-67.277348-20.70312c-4.50072 11.82001-7.517399 23.89777-9.479674 36.46845s-2.900093 25.71146-2.94244 37.92707zm.00031 107.39307-67.277607 20.64209c3.717916 12.30533 8.550441 23.91472 14.443103 35.10513 5.892649 11.19041 13.127915 22.34707 20.892142 32.12972zm222.47689 107.02294-75.55305-8.07031v79.35009l-75.55078-71.27978-35.6094 40.81055c16.40114 10.07914 34.47832 17.74666 53.32427 22.82641 18.84596 5.07973 38.47989 7.57316 57.83591 7.64282zm0 0 35.60739 40.81055c13.31173-7.27644 25.90227-16.01001 37.313-26.03899 11.41073-10.02899 21.92292-21.73767 30.39408-33.91756zm151.10161-160.72361-79.72851 53.70067 67.27539 20.64209c4.50401-11.82656 7.56658-24.01474 9.54368-36.5898s2.8687-25.54187 2.90944-37.75296zm-47.30627-141.6758-32.42229 87.9834 67.67188-20.70312c-5.17925-12.86146-9.65663-24.94096-15.30849-36.14545s-12.48168-21.53106-19.9411-31.13483zm-179.34839 294.3291-99.69727-67.14649 24.14649 75.2168zm0-305.29883 99.69921 67.14648-24.14648-75.21582z" fill="#f63c88" fill-rule="evenodd"/><path d="m103.06055 303.69655 47.22657 31.80614-27.41918-85.50681zm293.84994-107.39307-47.22689-31.80665 27.47926 85.49905zm-19.74763 53.6924-27.44891 85.50681 47.19659-31.80614zm-254.29492 0 27.44922-85.49905-47.25692 31.80665z" fill="#f63c88" fill-rule="evenodd"/><path d="m476.42305 238.9927-58.82735-39.6177 49.72774-15.25651 8.5789-2.63216-5.28125-17.20703-9.40008 2.884-49.57453 15.20975 26.17774-71.07617-6.83203-11.964849-88.2461-16.068359 26.60344-30.494111 4.8868-5.597686-13.5625-11.833984-7.25708 8.321386-28.49292 32.655176-61.28342-57.818718-13.64041-7.04261-13.57549 6.963389-61.34639 57.897939-28.44888-32.608032-7.30112-8.36853-13.56445 11.833984 4.8898 5.595781 26.60239 30.496016-88.246094 16.068359-6.833985 11.964849 26.177735 71.07617-50.371094-15.45508-8.603516-2.63867-5.279297 17.20703 8.603516 2.64062 49.701172 15.24805-58.802343 39.598-16.3694712 11.027 16.5206602 11.12596 58.651154 39.49904-49.727697 15.25664-8.576991 2.63203 5.279297 17.20703 8.958006-2.74793 50.016604-15.34582-23.933971 64.98404 1.172251 12.07455 13.633078 7.85273 78.029036 14.19806-26.42547 30.28715-5.06477 5.80464 13.5625 11.83399 7.43043-8.51587 28.32152-32.45874 61.33318 57.86556 13.5887 6.99381 13.57572-6.9634 61.34615-57.89597 28.3146 32.45184 7.43736 8.52277 13.5625-11.83399-4.88729-5.59737-26.60295-30.49442 77.80357-14.16692 20.97494-3.81924-5.8967-16.01037-23.98142-65.11285 50.3711 15.45508 8.60351 2.63867 5.2793-17.20703-8.60352-2.64062-49.70117-15.24805 58.77592-39.58307 16.39589-11.04193zm-217.42305-200.127466 46.15234 43.542969-46.15234 4.929688zm-18 .002v48.470704l-46.15039-4.929688zm-60.2207 60.140625 43.71484 4.669921-57.6875 38.85157zm138.44336 0 13.97265 43.521491-57.68945-38.85157zm-157.9336 1.816411-18.60351 57.94922-35.12696 23.6582-24.791012-67.30859zm177.42188 0 78.52148 14.29883-24.78906 67.31054-35.12891-23.66015zm-88.71094 7.37886 92.08398 62.01562 25.61133 79.78125-25.61328 79.7832-92.08203 62.01563-92.08203-62.01563-25.61328-79.7832 25.61328-79.78125zm116.20312 78.25976 19.83594 13.35938-8.30664 22.55273zm-232.40625.002-11.52734 35.90821-8.30664-22.55078zm-35.20312 23.70894 14.66797 39.82422-14.669923 39.82812-59.134766-39.82617zm302.81445 0 59.13477 39.82617-59.13477 39.82617-14.66797-39.82617zm-279.13867 67.45312 11.52734 35.91016-19.83398-13.35742zm255.46094 0 8.30664 22.55274-19.83399 13.35742zm-270.17188 39.93946 35.12696 23.6582 18.60351 57.95117-78.521482-14.29883zm284.88282 0 24.79101 67.31054-78.52148 14.29883 18.60351-57.95117zm-225.63477 39.90429 57.68945 38.85157-43.71679 4.66992zm166.38672 0-13.97266 43.52149-43.71679-4.66992zm-92.19336 55.18946v48.47461l-46.15234-43.54493zm18 0 46.15234 4.92968-46.15234 43.54493z" fill="#7d2b4d"/></g></g></svg>