<svg height="500" viewBox="0 0 132.29167 132.29167" width="500" xmlns="http://www.w3.org/2000/svg" xmlns:xlink="http://www.w3.org/1999/xlink"><filter id="a" color-interpolation-filters="sRGB" height="1.115702" width="1.091175" x="-.045587" y="-.057851"><feGaussianBlur stdDeviation=".73028023"/></filter><filter id="b" color-interpolation-filters="sRGB" height="1.124502" width="1.124502" x="-.062251" y="-.062251"><feGaussianBlur stdDeviation="2.0513209"/></filter><radialGradient id="c" cx="86.055344" cy="45.671474" gradientTransform="matrix(1.3920409 -1.2344845 -1.6193442 -.90033192 -5.63355 198.80507)" gradientUnits="userSpaceOnUse" r="40.308271"><stop offset="0" stop-opacity="0"/><stop offset=".12393165" stop-opacity="0"/><stop offset=".41729519" stop-opacity=".1"/><stop offset=".66706532" stop-opacity=".5"/><stop offset=".91683543" stop-opacity=".75"/><stop offset="1"/></radialGradient><filter id="d" color-interpolation-filters="sRGB" height="1.136717" width="1.100977" x="-.050488" y="-.068359"><feGaussianBlur stdDeviation="2.3457468"/></filter><filter id="e" color-interpolation-filters="sRGB" height="1.139274" width="1.099626" x="-.049813" y="-.069637"><feGaussianBlur stdDeviation="2.0193079"/></filter><linearGradient id="f" gradientTransform="matrix(1.3727903 0 0 1.3959957 53.584242 -21.897709)" gradientUnits="userSpaceOnUse" spreadMethod="reflect" x1="-216.04869" x2="-203.11752" y1="5.359551" y2="14.842405"><stop offset="0" stop-color="#3a1e48"/><stop offset="1" stop-color="#24182a"/></linearGradient><g><path d="m74.578489 27.698502c-3.48566-.07385-6.989066.09481-10.462798.494451-13.894688 1.598507-27.421047 6.915267-37.425288 15.883174-10.005113 8.968548-14.693587 20.26794-13.453096 31.094067 1.240491 10.826126 8.363804 20.768429 20.137421 27.231716 23.545902 12.92645 57.541156 9.09358 77.565902-8.856766 10.01226-8.97495 14.6729-20.296787 13.40329-31.133104-1.26962-10.836315-8.41183-20.78361-20.18506-27.246886-8.829362-4.846974-19.123389-7.245107-29.580371-7.466652z" filter="url(#d)" opacity=".5"/><g><path d="m71.932653 25.052667c-3.485659-.07385-6.989065.09481-10.462797.494451-13.894688 1.598507-27.421047 6.915267-37.425288 15.883174-10.005113 8.968548-14.6935868 20.267941-13.453096 31.094067 1.240491 10.826126 8.363804 20.76843 20.137421 27.231706 23.545902 12.926455 57.541156 9.093575 77.565887-8.856756 10.01225-8.97495 14.6729-20.296787 13.40329-31.133103-1.26962-10.836316-8.41183-20.78361-20.18506-27.246886-8.829347-4.846975-19.123374-7.245108-29.580357-7.466653zm-.194877 8.483749c9.272445.212017 18.299994 2.345552 25.708773 6.41269 9.877811 5.42273 14.933721 12.982502 15.850091 20.803835.91638 7.821333-2.25195 16.31022-10.64468 23.833435-16.785713 15.046863-48.101576 18.585204-67.856607 7.739903-9.877392-5.42232-14.903739-12.961342-15.798131-20.766968-.894393-7.805626 2.296002-16.289429 10.690155-23.813917 8.394896-7.525275 20.3676-12.355515 32.746044-13.779587 3.094601-.356016 6.213539-.500065 9.304355-.429391z" fill="#0e0911"/><path d="m99.479096 36.235004c21.651074 11.886018 24.400034 35.009255 5.995024 51.507436-18.40524 16.49862-51.061894 20.18446-72.712382 8.298568-21.65103-11.885609-24.2949278-34.95982-5.895645-51.452874 9.199578-8.246599 21.948998-13.320561 35.085578-14.831852 13.136678-1.511304 26.701996.535975 37.527425 6.478722z" fill="#0e0911"/><path d="m97.604159 37.916499c20.457791 11.230942 23.046851 33.029926 5.661871 48.613748-17.385231 15.584263-48.171085 19.060673-68.628294 7.829873-20.457733-11.230532-22.949385-32.975846-5.564157-48.559902 8.692616-7.792136 20.710579-12.57093 33.113053-13.997769 12.402473-1.426838 25.18864.498787 35.417527 6.114052z" fill="#2b1a32" filter="url(#e)"/><circle cx="66.145836" cy="39.542774" fill="url(#f)" filter="url(#b)" r="39.542774" transform="matrix(-1.0911562 .12552257 .08859391 .77318278 134.81754 27.275014)"/><path d="m61.951671 29.756283c13.136677-1.511305 26.701996.535974 37.527428 6.478721 21.651071 11.886018 24.400031 35.009255 5.995021 51.507437-18.405241 16.498619-51.061894 20.184459-72.712383 8.298569-21.651029-11.88561-24.2949266-34.959822-5.895644-51.452876 9.199578-8.246598 21.948998-13.320561 35.085578-14.831855z" fill="url(#c)" opacity=".33"/><path d="m93.570457 7.5826051c5.42721 5.0417369 11.021923 22.7138409 11.021923 22.7138409s-5.341319-8.729969-8.508454-12.320761c-3.631026-4.116735-7.624184-7.700885-11.870987-10.3930799-5.732329-3.6339208-18.067103-7.5826051-18.067103-7.5826051s19.639678.35059713 27.424621 7.5826051z" fill="#4e4554" filter="url(#a)" stroke-width=".229825" transform="matrix(-1.0911562 .12552257 .08859391 .77318278 134.81754 27.275014)"/><path d="m72.562344 29.088684c-2.753987-.01056-5.5162.145357-8.257857.460289-12.533071 1.439644-24.733779 6.228113-33.757648 14.304772-9.024657 8.077236-13.25354 18.25338-12.134612 28.003585 1.118928 9.750204 7.544073 18.704649 18.163928 24.525592 21.23851 11.641798 51.902385 8.189768 69.964785-7.976623 9.0311-8.083002 13.23506-18.279573 12.08986-28.038956-1.1452-9.759381-7.5873-18.718146-18.20681-24.539089-7.964115-4.365273-17.24964-6.525149-26.681885-6.724677-.393011-.0083-.786334-.01338-1.179761-.01489zm-.02144 3.820998c9.282605.04341 18.419838 2.08349 26.048421 6.264854 19.529365 10.704762 22.008905 31.530027 5.407505 46.388587-16.601609 14.858947-46.058103 18.178627-65.586942 7.473983-19.529326-10.704393-21.914248-31.485777-5.318011-46.339719 8.29806-7.427036 19.79825-11.996573 31.647504-13.357668 2.592044-.297743 5.202392-.442192 7.801521-.430037z" fill="#0e0911" transform="matrix(1.1086408 0 0 1.1103475 -9.820944 -7.262349)"/></g></g></svg>