<svg height="500" viewBox="0 0 500 500" width="500" xmlns="http://www.w3.org/2000/svg" xmlns:xlink="http://www.w3.org/1999/xlink"><linearGradient id="a" gradientTransform="matrix(2.6778927 0 0 3.1842362 1327.5476 -694.32444)" gradientUnits="userSpaceOnUse" spreadMethod="reflect" x1="-75.162231" x2="-56.490837" xlink:href="#b" y1="363.89615" y2="379.59848"/><linearGradient id="b" gradientTransform="matrix(391.593 0 0 -391.593 60.7962 7618.49)" gradientUnits="userSpaceOnUse" spreadMethod="pad" x1="0" x2="1" y1="0" y2="0"><stop offset="0" stop-color="#9f571d"/><stop offset=".511236" stop-color="#fde791"/><stop offset="1" stop-color="#b7671e"/></linearGradient><linearGradient id="c" gradientTransform="matrix(2.4353105 0 0 2.8987437 1229.9003 -599.23412)" gradientUnits="userSpaceOnUse" spreadMethod="reflect" x1="-488.62292" x2="-339.88467" xlink:href="#b" y1="238.67651" y2="351.78668"/><path d="m78.058594 246.85742c5.954102 24.20119 9.510781 48.47422 18.702032 71.24024 12.882644 31.90931 26.900814 64.98031 50.460314 90.0625 26.56035 28.27701 55.95893 51.46691 97.77711 63.12695l4.8164 1.3418 4.82032-1.33399c42.42757-11.74472 74.01408-34.28739 101.49804-63.13476 23.7019-24.8777 37.43439-58.1402 50.14844-90.0625 9.0685-22.7691 13.10996-45.55539 18.18945-71.24024 9.87406-54.86008 12.93498-114.94256 13.22657-175.695311.0538-7.726533.0703-15.453027.0703-23.179689l-22.11719 5.552736c-35.20715 8.114882-71.07208 13.952443-107.06836 17.285154l1.50977-22.83789c-41.87965-.03335-83.76545 1.87799-125.61328 0 .7264 8.072221 1.44951 14.765832 2.17773 22.83789-34.4483-2.928859-68.51423-8.352617-101.751943-17.28515l-22.671875-5.552738v23.578125c.447967 59.976653 4.867634 120.709753 15.826172 175.296873zm98.906246-82.58398c7.33365.17511 12.2356 3.16445 18.60547 6.41211l2.65039 29.46093c-6.23018 5.18246-14.19041 9.58564-21.25586 9.67383-13.53398 0-24.12695-10.32686-24.12695-22.78515 0-12.4619 10.57886-22.76172 24.12695-22.76172zm142.26368 0c13.54809 0 24.125 10.29895 24.125 22.76172 0 12.45916-10.59217 22.78515-24.125 22.78515-8.24583-.29742-13.17918-3.74318-19.66407-8.02148l2.19336-31.84961c5.48952-2.94368 11.9711-5.62828 17.47071-5.67578z" fill="#84542e"/><path d="m204.30729 66.90188 18.31331 203.57175h54.17465l14.0155-203.573388-86.50263.0017zm215.38575 4.172734c-37.78229 8.708423-76.34049 14.954824-115.09676 18.255816l-4.22005 61.26947c5.69657-2.77417 12.10684-4.32594 18.85186-4.32594 23.01379 0 42.1251 18.15339 42.1251 40.76056 0 22.60469-19.11131 40.78514-42.12428 40.78514-8.72164 0-16.8818-2.61934-23.65956-7.09193l-3.58081 52.02604c40.77052-3.81634 80.49423-13.44075 114.76609-29.08542 9.58104-53.23208 12.65359-112.39592 12.94251-172.592916zm-339.461143.385076c.441976 59.14172 4.832257 117.76155 15.474845 170.77486 32.046448 15.82902 70.838728 25.94584 111.721388 30.16036l-4.75859-53.10179c-7.14853 5.34189-16.09116 8.52654-25.70493 8.52654-23.01379 0-42.12674-18.18045-42.12674-40.78514 0-22.60717 19.11295-40.76056 42.12674-40.76056 7.02085 0 13.67504 1.6935 19.54101 4.68398l-5.47311-60.859819c-37.44018-2.839721-74.54641-8.896044-110.800613-18.639251zm19.592575 189.56651c4.300258 18.2214 9.387878 35.68249 15.423288 52.12846 3.13719 8.55029 6.50275 16.81465 10.12858 24.78405l19.77018-55.04766 1.96925-5.5041c-16.59043-4.36199-32.45405-9.8317-47.291299-16.36157zm303.320708.89632c-16.12226 6.69374-33.13993 12.21998-50.72069 16.53854l3.91393 8.75676 22.71259 50.82167c3.70767-8.30287 7.12234-16.92444 10.2309-25.859 5.52468-15.87491 10.08356-32.7002 13.86327-50.25879zm-244.64611 18.255.97153 2.50954 29.38804 75.14526 29.03119-59.5268 4.34855-8.90997c-21.80654-1.45182-43.23987-4.52587-63.73848-9.21722zm186.45768.0246c-18.21345 4.0949-36.96873 6.93298-55.88525 8.55357l4.44922 9.70224 24.65645 53.69087 23.99268-64.46969 2.78772-7.47618zm-61.36082 9.01239c-18.44508 1.34776-37.02275 1.53209-55.3737.56531l3.63237 9.01238 23.07026 57.2221 24.63108-57.37613 4.0408-9.42204zm-130.92846 18.05179-17.82796 49.67054c2.96532 5.45823 6.05832 10.74522 9.31094 15.84787 12.59628 3.71555 25.17618 6.79206 37.752 9.24425l-.94534-2.38173-28.28883-72.38093zm197.32779 3.27724-23.88873 64.23864-2.61092 6.96411c12.46041-2.55787 24.92246-5.78021 37.39597-9.7301 3.31481-5.17638 6.44137-10.54449 9.41242-16.07891l-20.30955-45.3962zm-125.89077 9.93411-29.15806 59.73244-1.86775 3.8401c19.56148 3.22643 39.10985 4.89536 58.64841 4.94288l-4.11691-10.21677-23.50651-58.29865zm62.7154 0-25.09353 58.45104-4.29697 10.03653c19.40432-.26628 38.80374-2.17363 58.2138-5.70812l-3.65693-7.96367-25.16802-54.81661zm59.49142 71.6378c-62.7162 16.30423-125.57237 15.73481-188.19692.25645 23.55561 29.52948 53.5657 50.938 91.71794 61.57588 41.37702-11.45391 72.66965-32.82556 96.47817-61.83315z" fill="url(#c)" stroke-width="36"/><g fill-rule="evenodd"><path d="m958.27112 464.40677h50v50h-50z" fill="#84542e"/><path d="m1008.2711 464.40677h50v50h-50z" fill="#b7671e"/><path d="m1058.2711 464.40674h50.000061v50.000061h-50.000061z" fill="#fde791"/><path d="m1126.2712 464.40677h50v50h-50z" fill="url(#a)" stroke="#84542e" stroke-width="36"/></g></svg>