<svg height="500" viewBox="0 0 132.29167 132.29167" width="500" xmlns="http://www.w3.org/2000/svg" xmlns:xlink="http://www.w3.org/1999/xlink"><radialGradient id="a" cx="805.63409" cy="40.54388" fy="40.543865" gradientTransform="matrix(.99138476 3.3960234 -1.4108854 .41187371 -73.281805 -2614.3692)" gradientUnits="userSpaceOnUse" r="88.677734" spreadMethod="reflect"><stop offset="0" stop-color="#7ce018"/><stop offset=".25" stop-color="#74d616"/><stop offset=".5" stop-color="#78d818"/><stop offset=".75" stop-color="#7cde1c"/><stop offset=".875" stop-color="#82dd22"/><stop offset="1" stop-color="#75d417"/></radialGradient><filter id="b" color-interpolation-filters="sRGB" height="1.087257" width="1.10669" x="-.053345" y="-.043628"><feGaussianBlur stdDeviation="2.059246"/></filter><g><path d="m89.45795 108.16591c3.481742-2.76585 6.515858-5.1637 8.964828-9.878476l-.640788-1.402499c3.15364-3.240713 6.40604-6.669321 8.66409-10.649747 2.62968-4.635527 4.51848-9.308861 5.46877-15.024068l-1.23816-.742074c1.42559-3.515319 2.79604-7.049428 3.41581-10.761617.97613-5.846622 1.50541-11.202587.41806-17.777727l-1.72858-.04082c.12379-3.226514-.4006-6.40318-1.21694-9.484176-.75841-2.862371-1.83719-5.369911-3.38067-8.215003l-.57412.117306c-.17784-.756806-.31056-1.529694-.55863-2.267562-.63605-1.891863-1.38158-3.764902-2.37091-5.498373-1.33037-2.331024-4.744471-6.505552-4.744471-6.505552s-1.995123 2.652197-3.299023 3.644741c-1.554724 1.183474-3.549455 1.64852-5.236373 2.634464-.568176.332079-1.092349.732405-1.63866 1.101225l-.261483-.33383c-2.225477.524813-4.435252 1.137887-6.516288 2.066112-2.835424 1.264713-5.504648 2.993804-8.026494 4.725205l-1.213362-1.214913c-4.547793 1.938931-8.393759 4.695068-12.25765 7.537008-1.960801 1.442194-3.748122 3.165329-5.504062 4.798674l-1.023194-.699182c-3.507051 1.634365-6.483029 3.959728-9.177071 6.591785-2.065955 2.018421-3.651538 4.550598-5.217394 6.917985l-.781348-.341581c-2.076418 1.01559-3.933909 2.421092-5.324488 4.204487-1.705902 2.187791-2.531885 4.962397-3.409868 7.592206l-.892452-.22841c-1.659858 1.708148-3.067855 3.676443-3.839044 5.88926-1.073705 3.080843-.76606 6.595673-.908986 9.745445l-1.976624.38654s-.671769 1.567149-.753959 2.402437c-.588301 5.978858.0631 12.211803 1.941549 17.918315.000434.0013.0014.0024.0021.0036.000737.0013.0014.0027.0021.0041 1.276764 2.55596 2.367376 5.207375 3.752738 7.706145.619193 1.11683 1.355086 2.16485 2.032629 3.24728s1.285156 2.21191 2.032629 3.24728c1.779366 2.46471 3.458556 5.10452 5.814247 7.02589 2.615585 2.13335 5.757112 3.63113 8.939506 4.75578 3.238258 1.14439 6.682944 1.90892 10.117212 1.95079.538607.007 1.593701-.26717 1.593701-.26717.781034-.83703 1.427926-1.87442 1.83038-2.82618 3.10718.0552 6.34911.11059 9.396326-.64492 4.078074-1.01109 7.965331-2.04615 11.521777-5.11132l.0106-1.95286c2.725141-1.26088 5.463353-2.49612 7.79204-4.346z" filter="url(#b)" opacity=".5"/><g opacity=".9" transform="translate(.772779 .848486)"><path d="m86.039336 104.67158c3.481742-2.76585 6.515858-5.163705 8.964828-9.878467l-.640788-1.402499c3.153642-3.240713 6.406024-6.669321 8.664074-10.649747 2.62968-4.635527 4.51848-9.308861 5.46877-15.024068l-1.23816-.742074c1.42559-3.515319 2.79604-7.049428 3.41581-10.761617.97613-5.846622 1.50541-11.202587.41806-17.777727l-1.72858-.04082c.12379-3.226514-.4006-6.40318-1.21694-9.484176-.75841-2.862371-1.83719-5.369911-3.38067-8.215003l-.57412.117306c-.17784-.756806-.31056-1.529694-.55863-2.267562-.63605-1.891863-1.38158-3.764902-2.37091-5.498373-1.33037-2.331024-4.744455-6.50555-4.744455-6.50555s-1.995123 2.6521951-3.299023 3.644739c-1.554724 1.183474-3.549455 1.64852-5.236373 2.634464-.568176.332079-1.092349.732405-1.63866 1.101225l-.261483-.33383c-2.225477.524813-4.435252 1.137887-6.516288 2.066112-2.835424 1.264713-5.504648 2.993804-8.026494 4.725205l-1.213362-1.214913c-4.547793 1.938931-8.393759 4.695068-12.25765 7.537008-1.960801 1.442194-3.748122 3.165329-5.504062 4.798674l-1.023194-.699182c-3.507051 1.634365-6.483029 3.959728-9.177071 6.591785-2.065955 2.018421-3.651538 4.550598-5.217394 6.917985l-.781348-.341581c-2.076418 1.01559-3.933909 2.421092-5.324488 4.204487-1.705902 2.187791-2.531885 4.962397-3.409868 7.592206l-.892452-.22841c-1.659858 1.708148-3.067855 3.676443-3.839044 5.88926-1.073705 3.080843-.76606 6.595673-.908986 9.745445l-1.976624.38654s-.671769 1.567149-.753959 2.402437c-.588301 5.978858.0631 12.211803 1.941549 17.918315.000434.0013.0014.0024.0021.0036.000737.0013.0014.0027.0021.0041 1.276764 2.55596 2.367376 5.207368 3.752738 7.706134.619193 1.116832 1.355086 2.164852 2.032629 3.247282s1.285156 2.21191 2.032629 3.24728c1.779366 2.46471 3.458556 5.10452 5.814247 7.02589 2.615585 2.13335 5.757112 3.63113 8.939506 4.75578 3.238258 1.14439 6.682944 1.90892 10.117212 1.95079.538607.007 1.593701-.26717 1.593701-.26717.781034-.83703 1.427926-1.87442 1.83038-2.82618 3.10718.0552 6.34911.11059 9.396326-.64492 4.078074-1.01109 7.965331-2.04615 11.521777-5.11132l.0106-1.95286c2.725141-1.26088 5.463353-2.49612 7.79204-4.346z" fill="#568a23"/><path d="m96.535553 13.536534c-2.11903.584059-4.31558 1.659601-6.34983 2.898797-1.01724.619852-1.99396 1.281992-2.90298 1.952036-.9227.665289-1.83631 1.317864-2.62086 1.958638.15041-.733621.21047-1.434509-.20383-1.964112-1.95371.505898-4.22932 1.525562-6.670959 2.999853-.616386.366904-1.217485.771486-1.873557 1.186942-.661559.413106-1.332719.853994-2.011677 1.321695-1.357421.935494-2.743124 1.978732-4.139335 3.128558.124116-1.079306.266303-2.163151-.350798-2.780426-2.656628 1.215466-5.74081 3.260203-8.60501 5.690319-1.457989 1.203892-2.986865 2.447261-4.37806 3.752001-1.369187 1.318223-2.809806 2.581706-4.097147 3.840803-.240726-.690163-.477854-1.379241-1.103223-1.807022-5.396291 2.759297-9.630376 9.111057-13.203261 14.770891-.308917-.777999-.695487-1.477272-1.451092-1.807003-1.45038.79253-2.596571 2.753661-3.692509 5.094552-.535141 1.183852-1.000371 2.545363-1.454827 3.922186-.473213 1.347465-.898383 2.770465-1.272932 4.197001-.642342-.796806-1.296191-1.445811-1.973699-1.618758-1.817783 2.032071-1.926998 8.365263-2.229406 16.012412-.853707-.603642-1.691365-1.244698-2.652826-1.056429-.310051.98642-.02188 3.943348.393726 7.137525.216837 1.612506.449699 3.210801.697426 4.629491.250489 1.421929.518131 2.662357.803889 3.469751 1.122661 3.151431 2.807022 6.679185 4.840275 10.013075 0 0 14.753823-10.351521 21.354191-16.447362 6.416102-5.925661 12.278782-12.486726 17.584958-19.423895 6.308859-8.248052 11.935717-17.058317 16.815608-26.22449 4.240665-7.965479 10.747745-24.847029 10.747745-24.847029z" fill="#69b91a" stroke-width="8.46667"/><path d="m78.285373 104.34572c1.785628-.91184 3.59398-1.82701 5.18928-3.04148 2.522487-1.920314 5.71023-4.496048 6.81982-6.6291-.35988-.786294-1.20945-.952005-2.14449-1.005086 7.08823-6.67883 14.353417-15.719254 15.697047-23.803497-.65007-.389766-1.48184-.174421-2.3052.02159 1.01966-2.261076 2.0059-4.68944 2.83501-7.098744.82825-2.406821 1.67736-4.828005 2.13157-7.332496.76783-4.233751 1.55646-9.380996.979-12.871266-.90003-.02125-1.76702 1.020009-2.63267 2.025894.20822-2.229091.55705-6.007974.22807-8.986237-.38318-3.468982-1.55718-8.339074-2.5437-10.156553-.69448.141388-1.18129.755475-1.62892 1.458375-.18964-2.32183-.55334-4.787713-1.299781-7.061823-.731439-2.228397-1.701865-4.49559-3.074966-6.328617-2.919851 8.400863-6.53839 16.864823-10.747635 24.846883-4.820354 9.140916-10.248761 18.021424-16.528366 26.22866-5.345826 6.986818-11.432448 13.426139-17.8722 19.419725-6.588916 6.132415-13.066118 11.742552-21.129137 16.814952 2.133243 3.44207 4.289133 6.54822 7.267705 8.99507 2.241985 1.84176 4.978664 3.05594 7.703865 4.05186 2.552631.93285 6.553769 1.989 7.962818 1.75178.870141-1.0877.534088-2.17083.272862-3.24104 4.484032.24961 8.368842.31237 12.444004-.47777 2.81971-.54673 6.515282-1.53858 8.109933-2.91137.0072-.83275-.599307-1.52716-1.385381-2.18562 1.863312-.73292 3.818799-1.54823 5.651462-2.48409z" fill="url(#a)" stroke-width="8.46667"/><path d="m29.023547 106.08757c2.255413-1.34861 4.496326-2.90442 7.792769-5.24571 2.82916 2.70331 6.171722 5.85646 10.113078 6.951 7.080405 1.96627 22.00486-1.33093 22.00486-1.33093s-12.208342-.68392-17.721358-3.03416c-3.42034-1.45811-5.336925-2.86673-8.971029-6.629025 1.468952-1.169063 2.754007-2.2049 3.849894-3.134692 4.574814 2.689935 13.070403 5.862668 20.054074 6.109684 7.082329.250503 20.724317-4.743618 20.724317-4.743618s-16.479915 1.155714-24.398511-.71391c-4.026581-.950698-8.337987-3.520378-11.258745-5.224487 2.262417-2.07465 4.907907-4.678833 9.907923-10.072254 2.794548 1.509692 12.439465 3.7818 18.637295 2.76621 6.956699-1.13994 18.834297-9.619012 18.834297-9.619012s-11.806935 4.287175-17.987033 4.581141c-5.19934.247315-11.78363-.799348-15.430066-2.40037 3.84085-4.596903 6.019607-7.377454 10.662398-13.986227 4.145404-.21194 11.568414-.984471 16.630521-3.532407 4.577505-2.304019 11.524409-10.175779 11.524409-10.175779s-9.254327 4.448791-14.157961 5.892506c-3.273958.96391-6.540583 1.505319-10.076465 1.815535 2.185728-3.456943 4.32652-6.999236 6.943246-12.008053 2.30515-.651522 6.424886-2.246194 8.802109-4.536086 2.34972-2.2634 4.805951-8.526447 4.805951-8.526447s-3.817605 2.54855-5.756007 3.776925c-1.580079 1.001304-3.026059 2.079655-4.7873 2.928326 3.407726-7.122778 5.87656-13.295578 8.75192-21.719089-.666836-1.37425-1.333672-4.3862046-2.000508-7.735438l-1.964112 6.253872c-2.02802 5.42411-4.297211 11.850888-10.195243 23.078178-.282494-2.086266-1.04414-3.652701-1.183858-5.533886-.19059-2.566152.482029-7.704596.482029-7.704596s-4.048825 6.280989-4.1598 9.814838c-.104033 3.312779-.05326 7.36205 1.380061 9.846998-.936831 1.626617-3.887588 6.375494-7.943184 12.178068-1.330628-3.261827-2.210093-6.520141-2.795666-9.898261-.878927-5.070451-1.049064-15.402511-1.049064-15.402511s-3.69457 7.724602-4.132851 11.901093c-.411346 3.919816.558286 7.898479 1.475596 11.731585.589228 2.462171 1.610436 5.265162 2.566251 7.148401-3.665442 4.821943-7.36045 9.100724-9.738424 11.708847-2.484167-6.32709-3.691372-10.764465-5.025932-16.287171-1.248445-5.166346-2.774559-15.701898-2.774559-15.701898s-2.268493 12.795704-1.678444 19.189435c.560038 6.068535 2.926115 12.298408 4.899453 17.614261-4.848534 4.884801-8.32373 7.95144-10.342005 9.640755-2.21718-6.754403-2.491319-10.877601-3.081804-16.412705-.592267-5.551807-2.562823-16.738946-2.562823-16.738946s-2.993091 12.60675-2.554333 18.887311c.432599 6.192388 1.044503 12.459115 3.020945 18.375777-1.311976 1.014618-2.614872 1.947851-3.569808 2.609144-1.805458-3.81838-2.821286-9.4772-3.343518-14.366055-.487822-4.566733-1.872709-14.090879-1.872709-14.090879s-3.915895 9.902745-3.68743 15.04512c.25835 5.815052 1.077242 11.98267 3.338606 17.14024-1.952858 1.19675-3.535213 2.153103-5.06671 3.02479z" fill="#568a23" stroke-linecap="square"/></g></g></svg>