<svg height="500" viewBox="0 0 132.29167 132.29167" width="500" xmlns="http://www.w3.org/2000/svg" xmlns:xlink="http://www.w3.org/1999/xlink"><radialGradient id="a" cx="86.055344" cy="45.671474" gradientTransform="matrix(1.3920409 -1.2344845 -1.6193442 -.90033192 -5.63355 198.80507)" gradientUnits="userSpaceOnUse" r="40.308271"><stop offset="0" stop-color="#8f3d43" stop-opacity="0"/><stop offset=".12393165" stop-color="#8f3d43" stop-opacity="0"/><stop offset=".41729519" stop-color="#8f3d43" stop-opacity=".1"/><stop offset=".66706532" stop-color="#8f3d43" stop-opacity=".5"/><stop offset=".91683543" stop-color="#8f3d43" stop-opacity=".75"/><stop offset="1" stop-color="#8f3d43"/></radialGradient><filter id="b" color-interpolation-filters="sRGB" height="1.136717" width="1.100977" x="-.050488" y="-.068359"><feGaussianBlur stdDeviation="2.3457468"/></filter><filter id="c" color-interpolation-filters="sRGB" height="1.058112" width="1.019068" x="-.009534" y="-.029056"><feGaussianBlur stdDeviation=".31377531"/></filter><filter id="d" color-interpolation-filters="sRGB" height="1.007721" width="1.004808" x="-.002404" y="-.003861"><feGaussianBlur stdDeviation=".097023036"/></filter><filter id="e" color-interpolation-filters="sRGB" height="1.043627" width="1.041991" x="-.020995" y="-.021813"><feGaussianBlur stdDeviation=".3626221"/></filter><filter id="f" color-interpolation-filters="sRGB" height="1.015207" width="1.004775" x="-.002388" y="-.007603"><feGaussianBlur stdDeviation=".3626221"/></filter><filter id="g" color-interpolation-filters="sRGB" height="1.020819" width="1.005877" x="-.002938" y="-.01041"><feGaussianBlur stdDeviation=".3626221"/></filter><filter id="h" color-interpolation-filters="sRGB" height="1.343312" width="1.270535" x="-.135267" y="-.171656"><feGaussianBlur stdDeviation="2.1668994"/></filter><filter id="i" color-interpolation-filters="sRGB" height="1.010566" width="1.007383" x="-.002565" y="-.006947"><feGaussianBlur stdDeviation=".104298"/></filter><filter id="j" color-interpolation-filters="sRGB" height="1.097504" width="1.097504" x="-.048752" y="-.048752"><feGaussianBlur stdDeviation="1.6064851"/></filter><g><path d="m74.578489 27.698502c-3.48566-.07385-6.989066.09481-10.462798.494451-13.894688 1.598507-27.421047 6.915267-37.425288 15.883174-10.005113 8.968548-14.693587 20.26794-13.453096 31.094067 1.240491 10.826126 8.363804 20.768429 20.137421 27.231716 23.545902 12.92645 57.541156 9.09358 77.565902-8.856766 10.01226-8.97495 14.6729-20.296787 13.40329-31.133104-1.26962-10.836315-8.41183-20.78361-20.18506-27.246886-8.829362-4.846974-19.123389-7.245107-29.580371-7.466652z" filter="url(#b)" opacity=".5"/><g><g fill="#8f3d43" stroke-width=".901312" transform="matrix(1.1086408 0 0 1.1103475 -9.820944 -7.262349)"><path d="m73.742187 29.103516c-3.144084-.06651-6.304175.08539-9.4375.445312-12.533084 1.439646-24.733933 6.228021-33.757812 14.304688-9.024666 8.077244-13.253695 18.253691-12.134766 28.003906 1.11893 9.750214 7.544197 18.704441 18.164063 24.52539 21.238531 11.641808 51.902434 8.189848 69.964848-7.976562 9.03111-8.08301 13.23504-18.279671 12.08984-28.039063-1.1452-9.759391-7.58751-18.718113-18.20703-24.539062-7.96412-4.365277-17.249388-6.525081-26.681643-6.724609z"/><path d="m98.589227 39.174541c19.529383 10.704773 22.008963 31.529998 5.407543 46.388573-16.601625 14.858966-46.058103 18.178506-65.586961 7.473847-19.529346-10.704404-21.914156-31.485476-5.317903-46.339433 8.298069-7.427043 19.798115-11.99675 31.647381-13.357847 11.849354-1.361109 24.085345.482709 33.84994 5.83486z"/></g><path d="m97.604159 37.916498c20.457791 11.230942 23.046851 33.029926 5.661871 48.613748-17.385231 15.584264-48.171085 19.060674-68.628294 7.829873-20.457733-11.230532-22.949385-32.975846-5.564157-48.559902 8.692616-7.792136 20.710579-12.57093 33.113053-13.997769 12.402473-1.426838 25.18864.498787 35.417527 6.114052z" fill="#d65c72"/><circle cx="66.145836" cy="39.542774" fill="#ec7d8f" filter="url(#j)" r="39.542774" transform="matrix(-1.0911562 .12552257 .08859391 .77318278 134.81754 27.275014)"/><g filter="url(#i)" opacity=".95" transform="matrix(-.9961947 .08715574 -.08715574 -.9961947 376.586818 86.18498)"><g fill="#b72f43" opacity=".75" transform="matrix(.26458334 0 0 .26458334 197.78634 -18.315078)"><path d="m527.87568 346.72713c-10.69753-1.30428-23.21634.36794-32.94262 3.55058l-.93365-.62281.00035.6235c-2.35631-.59375-6.05964-1.9795-6.54586.935-11.99748-2.82287-24.88615 2.26676-36.48063 4.01155-4.91084.73868-10.79269-1.44278-14.94615 1.59797l-.93525.00052-17.76655-.89953-46.75044.89955-18.70158.93612-.93507-.001-11.22088-2.30313-28.98709-1.43616-11.2201-2.80497-.9333.00069c-.0258.0196-.0602.0241-.0861.0434 52.39254 29.12597 122.31484 34.78014 182.32359 17.55893l1.03023-.77253-.93702-.002-18.70053 2.8066-.00036-.93719c7.15836-.81797 21.01878-8.33878 27.69757-3.90359.35668-.11833.71597-.23127 1.07181-.35128 2.68113-2.16484 6.42312-3.24851 10.45933-3.82758 7.8891-3.10673 15.52668-6.64622 22.84614-10.61563l-.36073-.00019 2.00716-.89096c.003-.002.005-.004.008-.005 1.77267-.98358 3.51855-2.00156 5.25141-3.03629-1.08839-.20711-2.17703-.41606-3.31193-.55444zm-33.87627 2.92777-.00018-.31174-.46859.00017zm-.46877-.31157-1.40225-.93632.00052.93524z"/><path d="m577.21904 299.78657.93576.93472zm-4.36379.62204.31209.62332zm-77.91968-3.42724-126.23032 8.24648-44.88327-5.96579-61.71359 4.10372-18.17602-2.49402c9.42152 15.72618 23.43281 30.32282 42.02553 42.75319 3.8855 2.59781 7.90101 5.0407 12.01869 7.34694 2.4947-.91783 5.20036-.66511 8.07913-.7793 8.68839-.34502 24.664-2.59194 31.79087 2.89114l28.90323 1.63272 53.38049-.73515 110.33691-13.05427-.00069-.9333-14.02535.9335c-.57879-3.35212-9.16149.54409-11.22139 1.87091l-1.87011-2.80452-4.26231 1.34457-1.65741.52355-3.431-.0002.00035.93719 2.24717-.56411-10.6623 3.3687-.00035-.93719 4.67519-.93202-.00035-.93719-6.54443-.00007-.00052-.93525 35.53288-4.6748-.00069-.9333-36.4667 3.74025-.00053-.93524 2.80574-.002-1.86942-1.87122-.00069-.9333 16.26259-.93579 1.50375.0002-.22094-.0742 6.76079-.3888 3.7456-2.34066 22.44117-2.80479-.00052-.93525-48.62299 5.60779.00073-1.86838 23.3759-3.74056-.00052-.93524-7.48019-.9348.001 1.87049-32.72715 4.67324-.93559-.46613.00035.46665-7.48162.00028.001-.93313 3.73887-.00031.001-.93508-5.60918-.00059c-.10577.80859-.43177 1.3966-.85764 1.86987l-5.68753-.002.00036.93719 5.57906-.79804c-1.65982 1.6477-5.04288 1.32312-7.45133.79697l.001 1.87049-8.41686.0008c-.50679-3.66163-5.3147-2.80467-8.41437-2.80654l.00052.93524 3.73991 1.87019-11.21979.93388-4.67727-1.86788.00052.93524 1.87049-.001.00052.93525-13.09184-1.87081-11.22048.00059.001 1.86854-1.86976-1.86733c-7.74025 2.4096-24.57932 5.5436-31.79221.93385-18.38289 2.07578-38.84418-2.73114-57.5749-2.66288-5.81034.0215-16.68338-3.20168-20.96866 1.72787l-3.74081.00014.00038-2.80557c8.90626-.006 26.51966-7.19999 33.66149-2.80344l5.60935-.001.93508.001c3.61206-1.5933 7.81974-2.23533 11.22048-.00059l3.74202 1.8684.93508.001 7.47915-.9357 2.80587 3.73925c6.98103-3.15949 17.62767.14264 25.24544-.0107 20.04633-.40205 39.88446-1.8815 59.8429-2.75577 7.10163-.31043 24.8402 2.54251 29.92214-2.84238l.93525-.00052 7.48002.93674-.00052-.93524-2.80362-.00022-.00052-.93524 4.67359-.93608-.00039 2.80557 3.74029-.93539-.00052-.93524-2.80362-.00021-.00052-.93525c4.08988.5283 11.04563 3.57807 12.15646-1.86948l4.67321 1.86949.00038-2.80557.9365-.93365 13.09028-.93493-.93469-2.80699-50.49136 6.54814-.001-2.80768c20.16321 3.74296 39.78633-5.79278 59.84295-6.54362l-.93695-6.54602 2.80685-4.67551-1.87139 1.87137-3.73848-2.80526-.93719.00035-2.804 2.80535.00038-2.80556-3.7405 3.739c-2.52928-3.89723-6.51959-2.52187-10.28593-.93323-.33849-2.98185.48049-5.81258-2.80338-6.54659l-.00052-.93524 4.67501-1.87115zm-27.11759 35.99814-.00035-.46665-.93118-.001zm-.93153-.46773-1.87296-.93438.00053.93525zm42.07342-4.67507 6.54495.93531-4.67567-2.8049.001 1.87049-.93507-.001-.93382-.93456zm11.22199-24.30976-2.80699.93469zm-14.0264-.93698.93365.93649zm22.12884 3.11825.62367.3114zm-25.86913-2.18287.93365.9365zm70.12805 6.54517.9356.93667zm-43.94756-1.8706.9356.93667zm18.70155 2.80664.93382.93455zm-17.76738-.9349-.93545 2.80414-13.08994 1.87212 20.57208-.93715-.001-1.87049-4.67358.93607zm15.89758 1.86924-8.41669-.001.00052.93524zm-139.32318-10.28547.93577.93473zm-25.55616.31289.62367.3114zm157.08681 14.96084.62189.30928zm3.11588.62159.9356.93667zm-13.55872-.16477c-1.97806 0-3.95561.67651-5.14217 2.03418l10.28524-.00007c-1.18657-1.35767-3.16499-2.03411-5.14307-2.03411zm-6.07741 2.0347-14.95935.0009.00052.93524zm8.41527.93622.93577.93472zm-263.67976-21.5064.93382.93455zm-9.34999-.00046-.001.93508 7.4795.001zm-.93615 1.87084.93577.93473zm279.26628 24.62281.62173.31124zm-35.22106-2.18349.00035.93719 2.80608.93563zm26.18105 2.80814.00069.9333 3.74081-.00014zm12.15677 1.86938.93382.93455zm-40.51937-3.42931.62173.31123zm38.64711 3.42824-1.86838-.00074 1.86942 1.87123zm-17.76544-.93473.93577.93472zm15.89682 7.48037.93577.93472zm-11.22031-.001.00087 1.87244 8.4144-.93622zm14.02476 4.67568.9356.93667zm-3.11714.31154.6235.31334zm-38.02555-3.11506.93594.93277zm-5.60849.9327.00035.93719 3.73887-.00031zm-3.74029.93539.9356.93667zm12.77878 9.66223.6235.31334zm-64.20726 7.17149.93594.93278zm-97.55495-.62595.62155.31318zm136.82686 12.77856.9356.93667z"/><path d="m563.19294 204.41212.93399.93261zm-12.46713.31109.62367.3114zm-7.1681-.31147.00069.93329 2.80362.00022zm-66.38867-5.61024.93577.93472zm-.93507-.001-2.8047 1.87206.934.93261zm102.85526 12.15718.93382.93455zm-52.98702-4.05347.3121.62332zm-3.11731.31348-1.86785.93452-.001.93507zm-86.95823-7.48042 1.87153 1.86945zm-5.61061.93448-2.80452 1.87011zm-12.15504.93441-1.87032-.0009.00087 1.87243zm84.15462 7.48021.93577.93473zm-88.20648-6.2329.62367.3114zm79.47856 7.48087.62367.3114zm-7.169 1.55885.93594.93277zm-104.72562-8.41533-.93208 1.86924zm-13.08833.9351-.001.93313 2.80557.00039zm106.59326 10.28443-1.86876 2.80483zm-17.76686.00035-2.8031.93503 1.87011 2.80452 5.60956-2.80497zm5.61234 1.86931.00052.93524 9.34805.00029zm-12.15556-.00084-.002.93702 3.74133.93511zm-7.48162.00028.00052.93524 3.74081-.00014zm-2.80504.93486-1.86997.93629.00052.93524zm25.24615 2.80477.93559.93667zm-127.47555-3.426.62367.31141zm-10.91069-.31345.001 1.87049 6.5439-.93517zm24.31268 2.80741.93399.93261zm-29.92151-1.87081.93577.93473zm27.73889 4.0502.62172.31124zm-42.7006 1.55777.93559.93667zm-1.86983 4.67709.93382.93456zm-11.21889-.93643-3.74029.93539zm-4.67748.93574-21.50572.00065.00052.93525zm4.67658.93458.93365.9365zm-3.74029.93539.93382.93455zm-1.87175.93417.9356.93667zm-25.24562-1.86953.00035.93719 3.74081-.00014zm-30.69283-1.50304c-.0259.10365-.0565.20676-.0821.31044l1.78949 1.19371-.00052-.93525zm25.70783 2.7491.62156.31317zm-5.29989-.3088.00069.9333 3.73886-.00031zm-3.11697.3096.6235.31334zm15.27391 1.55784.93365.93649zm-.93623 59.84535.93594.93277zm-18.7005-.93616-.001.93508 3.7415.93316-.00069-.9333zm4.67463.93442.00052.93524 5.60581.9355z"/><path d="m475.29738 124.93149.9356.93667zm-14.96004-.9324.00031 3.73887-16.83071-1.8705-6.54564-1.86862.93681 2.80522c-2.447-1.32776-9.65502-3.65595-10.28524.00007l-2.80803-.9358c.87614 4.08706 5.87105 2.66684 9.37746 2.77904 8.71083.27864 17.55079.10015 26.1541.18056 3.59056.0327 5.46407 1.47208 8.416-1.089 2.9033 1.84858 6.60666 2.27277 9.35194.00063-4.18617-1.63631-11.34677-5.10395-14.96164-.93647l-.93525.00052zm17.767 3.74047 3.73955.93299-4.67567-2.80491zm12.15444.036.00003.89599 2.80557.00038-1.20398-.40138c-.5321-.16896-1.06768-.32988-1.60162-.49499zm-68.2586-3.77796-1.86785.93451-.001.93507zm-33.66076.93506-1.87032-.0009-.93562 2.80608c3.0903 1.55778 6.62313 2.15179 7.48057-1.87076l-4.67501 1.87115zm85.08987 7.47969-.001.93507 3.74081-.00013zm-100.98498-8.41351.93594.93277zm141.62046 12.71172-4.16993.37824.00052.93524 5.05242-.91862c-.29353-.13283-.58864-.26336-.88301-.39486zm-145.36127-12.71156.93698 2.80327-2.8082-.93385c.76206 3.48491 3.52443 2.02314 6.54741 1.87073zm149.30044 14.52274-3.43342 1.37199.00052.93525c2.79296 0 7.2512.30371 4.67425 3.73997 3.49124 1.42075 8.32312 1.85563 13.53935 1.75311-3.6479-2.13957-7.38647-4.16067-11.20552-6.06415-.4078.19149-1.10113.37991-1.39873.56971l-.50468-1.51459c-.55411-.26863-1.11441-.52756-1.67177-.79129zm-14.653-.49774-.00074 1.86837 6.54443.00008zm-4.05402 4.05075.62367.31141zm-100.67129-8.72721.93365.9365zm-43.94683-3.73898.93382.93456zm10.28434 1.87026.93593.93278zm31.79102 10.28451.9356.93667zm-21.50481-1.86966.93576.93472zm32.72634 3.73956.93577.93473zm-86.02442-6.54586.00035.93719 8.41419 1.8674zm-4.37938.50892c-.30896.13845-.61673.27919-.9248.41904l.62917.94319.93472-.93577zm27.75556 3.23213-1.87032-.0009.00088 1.87244 1.86854-.001zm.93577.93473-.002.93702 4.67675.93264zm23.06356 2.18249.6235.31334zm-15.58354-1.24575-1.87032-.0009 1.86959 1.86927zm19.63645 1.86893.93382.93455zm-15.89689-.93594-1.87049.001 1.87153 1.86945zm1.55944 1.24612.6235.31335zm12.46622 1.55924.00053.93524 3.7399 1.87018zm15.89599 2.80626.93399.93261zm-56.41313 1.24622.6235.31334zm25.55561 2.49462-1.86837-.00073 1.86958 1.86927zm156.15316 14.02434-8.41687.0008 2.80852 4.67271zm-160.82835-13.09233.93559.93667zm8.41721.93639-2.80504.93487zm76.67307 17.76573.00052.93525 2.80362.00021zm-119.68549-9.34967-6.54442-.00007-.001.93507zm113.13964 10.28467.93365.9365zm-107.52993-9.34883-4.67394-.001-.001.93507zm-14.02657-.93504.93577.93473zm-.93313-.001-1.87049.001-.00073 1.86837zm116.87885 11.22155.93593.93278zm-120.61914-10.28617.93382.93456zm-9.35211.001.0007.9333 2.80556.00038zm129.97246 12.15339.93365.9365zm-22.44006-1.86914.93382.93455zm-114.07613-9.35102.00052.93525 2.80362.00021zm163.00756 14.64951.3121.62332zm-31.1669-2.49344.93382.93455zm21.50728 2.80508.93382.93455zm-29.92168-1.86887.93399.93261zm-121.55632-10.28581-.93546 2.80414zm-16.83141 14.02587 2.80535 2.804zm-.93508-.001-7.48057 1.87076c-2.67244-.78435-6.15526-1.14239-9.44666-.86764-1.32163 1.58572-2.58547 3.18825-3.80603 4.80179zm108.46462 12.15582.93577.93472z"/></g><g fill="#ebaeb8" opacity=".75" transform="matrix(.26458334 0 0 .26458334 197.78634 -18.315078)"><path d="m597.50457 233.48391c-17.71082.22779-35.31163 1.51655-53.01706 1.73547-22.62705.27958-43.19672-1.53144-65.44788 4.72397l-.001.93508 4.67747-.93574-.001.93508-6.04468 1.72779 61.21203-5.42982 26.18088-1.20127 8.41589-.7067 2.80466 1.8707.00052.93525-33.6627.93489.00069.9333 14.96112.001-.001.93507-35.53004 2.80465.00052.93525c8.23676 1.78499 23.64929.42533 31.78975-1.86927l-4.67484 1.86921-.001.93507 24.31414-1.87042c-1.89907 2.58539-3.45314 4.48-1.87199 7.48054l-11.22139 1.87091 1.87154 1.86945-13.09223.93476.00052.93524 24.31219-1.87059c-3.89071 7.05488-18.26785 4.51953-25.24512 4.69064-14.71753.35999-31.29003-.0721-45.81869 1.7457-9.7693 1.2221-19.08091 5.63688-28.98579 5.7201l-.001.93508c11.19898-.00094 21.28417-4.59651 32.33168-4.74705 21.38718-.2936 47.06683 2.6618 67.72-3.66842-4.04312 4.78366-11.00896 4.22497-16.83147 4.36803-13.26728.3282-26.87302 3.22809-40.15059 1.85732-4.11885-.42451-17.87652-3.38002-18.75639 2.19001-3.09779-.53204-8.8067-2.19475-9.3509 1.86987-6.73415-1.68307-15.57895 2.20928-22.44027 3.33227-11.12044 1.81958-22.41912 1.05133-33.66204 3.21315-4.88279.93878-14.02497.3446-16.8329 4.67571l2.80858-1.87171.9333-.00069 20.57083.93705.00038-2.80556 30.86142-.71532 9.34609-3.02507 4.67394.001.93525-.00052-.00074 1.86837 1.87032.0009-.93434-1.8698.9333-.00069 4.6771 1.86983-.93681-2.80521 2.80644 1.87282.93524-.00053 3.73977-1.87063 4.67591-3.74147 15.89651 3.74151.9333-.00069 3.74081-.00014.93524-.00052 6.54517-1.8683c-.55822-3.35119 1.54717-3.38557.93472-.93577l16.83019.93525.00052.93525-49.55699 4.67517.00052.93525 2.80362.00021.00052.93524-7.48161.00028-20.56948 4.6723-55.16828 4.67636.93597-1.8689-.93524.00053c-7.58504 5.68877-15.14789-.65544-25.24726 1.86916-35.27441 8.81838-69.89647-10.57587-104.72392-1.86877-9.82915 2.45729-17.87276 1.86843-27.11563 1.86843-4.14504 0-11.1984.84958-10.28486-2.80549l-7.47967.00045-.00053-.93525 7.48041-1.86882.9333-.00069c1.95891 3.26422 9.83497 1.31532 10.28472-.93532l3.74042 2.80543-1.86764-1.86911-.00035-.93719 4.67589.001-.93546 2.80414.93524-.00052.93352-2.80431 1.87153 1.86944 6.54321-1.86847.002-.93702-37.40263-.26281-7.92103-2.08109c2.46736 8.10256 6.03444 16.05283 10.7051 23.72838 6.09663 1.30598 12.11254 2.29809 17.78801 1.90916 17.7293-1.21369 35.47968-4.35408 53.29688-4.21662 17.4039.13464 34.19196 4.42609 51.43224 6.0035 14.66985 1.34272 31.93602-.41934 46.74801-.78213 27.19657-.66575 54.08119-7.4659 81.34696-7.4659l.00069.9333-4.67501 1.87115.00052.93524 2.80431.93352.001 5.61324c4.10482-1.29784 7.03097-2.34985 10.28398.93306l3.74067-3.74095-.00055 2.80751 2.80611-2.80712.93525-.00053-.00055 2.80751 5.61025-1.87167-2.8049 4.67568.935 6.54585-59.84101 6.54379-.00055 2.80751c12.66419-1.60079 25.23729-2.24593 37.93888-4.02906 4.21703-.59188 10.34917-3.29517 13.48717.28791l-13.09028.93493-.9365.93365.002 2.80574-4.67709-1.86983c-1.16973 5.18574-8.24231 2.13239-12.15452 1.86965l.00052.93525 2.80557.00038-.001.93507-3.74011.93344.00021-2.80362-4.67554.93591.00052.93524 2.80557.00039.00069.93329-7.48019-.93479-.93525.00052c-7.72811 4.50502-21.19811 2.60474-29.92204 2.81886-19.83407.48529-39.95459 1.90769-59.8429 2.75578-7.07732.30108-19.31458-3.78541-25.24554.0342l-2.80587-3.73925-7.47915.9357-.93508-.001-3.74007-1.86823c-2.6284-2.93882-8.18254-2.05088-11.22049.00059l-.93702-.002c-1.88972-2.13469-3.44754-1.63029-5.60935.001-6.39194-4.93887-25.20031 2.78006-33.66149 2.80344l-.00038 2.80557 3.74081-.00014c5.49804-4.18525 14.13136-1.54796 20.57004-1.58629 14.44358-.086 28.59866 1.41396 43.01136 1.59068 5.28673.0654 9.65674 2.16581 14.96216.93062 4.46482 5.12215 25.99234 1.52149 31.79238-.93579.88923 1.60266 1.94412 2.20088 1.86838.00073 3.83086 1.33617 7.80197 2.71944 11.22048-.00059l13.0899 1.87064.001-.93508-1.87049.001.001-.93507 4.67532 1.86771 11.21767-.93211-3.73973-1.87213-.00052-.93524c3.95616 0 9.24663-.51456 8.41631 2.80671l8.41686-.0008-.001-1.87049c3.24366.95468 7.92424 1.16373 8.41513-2.80459l5.61113.00076.00052.93525-3.74081.00014.00069.9333 7.47968-.00045-.00035-.46665.93559.46613 32.72715-4.67324-.001-1.87049 7.48214.93497-.001.93507-23.3759 3.74056-.00073 1.86838 48.62299-5.60779.00052.93525-22.44117 2.80479-2.80418 2.33676-25.24761 1.40252.00069.9333-.93615 1.87084.00036.93719 36.4667-3.74025.00069.9333-35.53094 4.67497-.001.93508 6.54637.00024-.002.93702-4.67519.93202.00035.93719c3.83834-.98179 17.09507-1.36649 17.7655-5.6097l1.87011 2.80452 11.21944-1.87108 14.0273-.93333.00069.9333-111.27216 13.05479-52.3605.48324-28.98602-1.38116c-5.05016-5.86925-25.41408-3.57264-32.74013-2.95458-2.51342.21206-5.24963-.24171-7.43654.67278.27891.15691.55949.31196.8394.46752.0189-.0211.047-.0337.0656-.055l.9333-.00069 11.2201 2.80497 26.95713 1.60166 13.25084 2.13763.93507.001c4.77431-2.76024 14.0724-.93664 19.63683-.93664 13.28878 0 26.96189 1.10265 40.20393-.15871 6.98382-.66481 17.06348-3.15831 23.37781.15921l.93525-.00052c4.7659-2.17865 9.89025-.56419 14.98528-1.373 11.85725-1.88036 24.1261-6.42075 36.4415-4.23652 0-3.37735 4.1269-1.38101 6.54586-.935l-.00035-.6235.93365.62281c11.79477-2.96291 23.85291-4.07959 36.07244-2.8866 2.35209-1.40088 4.66736-2.8463 6.94188-4.34118l.00004-1.18811 1.87525-.0555c2.4169-1.63196 4.79037-3.31382 7.11011-5.05384 6.06517-4.54938 11.57665-9.32526 16.56319-14.27677-3.21848-.0376-6.43728-.0155-9.65374-.24857l-.00052-.93525 12.43992-1.65843c8.25538-8.66435 14.9168-17.84051 19.97148-27.3282l-8.10122.00096-.00052-.93524 8.83622-.49151c.0843-.16385.16946-.32753.25279-.49156-20.1418-4.68426-43.23204.0465-64.25442.0465l.93403-1.86906c-5.58779.25808-12.19035.0204-14.95994 5.61008l22.43976-1.86972c-2.93697 5.42698-6.31548 2.55362-11.2207 2.80421l1.87205 2.80469-11.22169-1.86796.00052.93525 3.74081-.00014-.001.93313-5.60793-.93373.00014 3.74081c-2.47412.0468-3.56727-.21264-3.74026-2.80737l-3.7406-2.80348 6.54443.00008.00038-2.80557-6.54585.935-5.61061.93448.93469 2.80699-4.67425-3.73998-.93702-.002-.93368 2.80626-4.67408-3.74193 14.96025-1.87122-.93645-1.86802 7.48214.93497-.93629-1.86997 18.70158-.93611-.00069-.9333-2.80414-.93546-.00052-.93524 16.82931-.93719c4.06556.78544 7.97248 2.01073 11.22174-.93372l4.67463.93442-.9342 1.87101 25.24622-3.73966 10.28381.93501.001-.93508-2.80557-.00038-.00052-.93524 4.67606-.00067-.00053-.93524-8.41596-1.86952 9.75191.67281c.29838-.83605.58213-1.67406.85705-2.51299l-43.3712.0796-37.36553 2.697-.00052-.93525 50.49522-2.80504-.93612-1.87191 32.30729-.83781c3.47129-12.1489 4.50249-24.54168 3.11644-36.78634-2.55637-.0456-4.97775.42305-6.43742 2.09339l-10.28576-.93517.001-.93313 16.66575-.72603c-.0419-.35308-.0751-.70669-.12101-1.0595zm-119.83499 9.12165-.50187.0443.001.10008zm-.50187.0443.0007-.83711 1.87032.0009-.00052-.93524-13.09029.93493-.001.93507 5.61113.00077.00047.39804zm-5.60961.49736-9.86195.87623 9.86217-.34097zm-9.86195.87623-17.25416.59416-.001.93508zm123.93722 44.54165-.001.93507 1.87227.001-.001.37435c.17887-.35672.35455-.71373.52897-1.07125zm-120.61988 43.01228 1.87296.93438-1.87243.00087zm60.91442 18.74561-2.00716.89096.36073.00019c.54828-.29734 1.10178-.58898 1.64643-.89115zm-33.79952-1.916 1.40225.93632-1.40173-.001zm10.6021 12.91654c-4.99891.54423-9.66164 1.73253-12.00705 4.41956 4.06015-1.36402 8.06503-2.8381 12.00705-4.41956zm-18.97972 3.4429c-7.1345.0333-15.68774 3.72499-21.54414 5.14579l.00036.93719c2.19058 0 6.2297.38958 10.01945.259 2.59958-.64272 5.18345-1.32693 7.74945-2.0531.35493-.3083.72193-.60826.93146-1.01056l.93719-.00035-1.03023.77253c3.03823-.87191 6.05154-1.80045 9.03532-2.78955-1.82129-.8764-3.87926-1.27132-6.09886-1.26095z"/><path d="m496.80335 302.59129.93577.93472zm-150.5396-10.28649.00035.93719 2.80379-.002zm115.94391 14.96094.93382.93455zm47.68708 6.54634.93577.93473zm-11.22031-.001-2.80522.93681-.001.93312 3.74012-.93343zm3.42923.31178.62173.31123zm-8.41582 1.87129.62173.31123zm-158.64632-9.66253.93577.93472zm-5.61113-.00077.00053.93525 3.74081-.00014zm132.77799 15.89653.93382.93455zm-9.35232 2.80494.9356.93667zm-9.45238.0494c-5.83914-.16179-12.1123 1.68999-17.66131 1.8192l-.002.93703 25.24795-.93587c-2.36566-1.25763-4.93089-1.74682-7.58505-1.82036zm65.2435 7.7412.6235.31334zm-130.59387-8.72576.93577.93473zm-14.95918-.001-.002.93702 2.80556.00039zm111.26915 10.28572.93559.93667zm-82.28274-4.67358-25.24653.0008-.001.93313zm47.06289 5.29971.31049.61926zm3.42868 2.17821.93559.93667zm7.47977 24.31278-3.74012.93344.00053.93524zm-27.1149.00006.00069.9333 2.80362.00021zm-.00091 1.87032.93382.93456zm-64.51834-5.60933.93577.93472zm32.72648 7.48037 7.48037.93285zm-8.41475-.00097.93382.93455zm65.14059 6.85581.62368.3114zm-94.43815-.9336.62173.31123zm28.36186 3.4283.93577.93473z"/><path d="m499.61008 192.25589.93382.93456zm-4.67553.93591c-4.40334 8.06332-10.0465-.0612-14.99316-.37457-1.64888-.10446-3.22196.65965-4.6444 3.17958l-.93313-.001c-2.18239-3.36801-6.51762-2.95885-10.28863-2.7176-9.6384.61432-27.01065-.54473-35.5298 3.65361l.93615-1.87085-.93525.00053-.93441 4.67463-2.80647 1.86993c4.10763-1.22957 8.50268-.76622 9.35076-5.61067 6.53032 5.04548 14.11777 3.5572 22.0011 2.6287 2.52179-.29641 6.49757 1.25947 6.98659-1.69244l2.80504-.93487 14.02532 1.86817 18.7005.93615zm79.47856 7.48087-12.15594 2.80473-.00035-.93719 1.87032.0009.001-.93507c-10.04608-.17953-21.97436-1.22707-31.79229.28489-6.98755 1.07623-13.46798 5.2293-20.57148 5.90533-17.70592 1.68588-36.76094 1.84456-54.2331 7.83629l.00069.9333 14.96112.001-.001.93508-16.82915.93524-.93486-2.80505 2.8031-.93503.001-.93508c-23.2479 3.08188-45.4272 8.11692-69.19312 6.54511-2.8556 2.23662-6.8226.79777-10.28505 1.09605-13.40567 1.15384-25.33269-2.8178-38.33723-6.11849-4.91738-1.24828-15.99368-2.94551-19.63566 1.28179l-27.11581 1.87039.93629 1.86996-.93719.00036-49.55846 3.45948-9.0136-3.57654c-.32502.98474-.63289 1.97161-.92555 2.95989 4.41615 1.1665 8.68546 1.82999 11.81112 1.8313 25.7772.0103 50.94713-6.4451 76.67383-4.67507l.00052.93525c-14.83816.1814-29.29384 4.57385-43.9478 4.67577-3.55596.0243-14.27237-1.55294-14.9615 2.80434l-30.60094-1.8536c-1.49342 5.87508-2.41769 11.7987-2.7783 17.72766 3.09301 1.86263 7.53235 2.08185 10.93795 2.66853 13.2701 2.28618 32.61109-.26284 45.81854-2.41623 17.9696-2.93041 38.00514-4.34144 56.1019-1.92436 7.72064 1.03134 14.33709 5.04297 22.44108 5.39828 24.46999 1.07156 48.70226-4.59492 72.93475-6.50988l-.00069-.9333-7.48092.93358c9.91049-7.54671 24.30653-2.22415 35.53076-4.67303l.00069.9333-8.41634.93604.00052.93525 57.97264-6.54452-.00035-.93719-2.80379.002-.00035-.93719 6.5453 1.87251-.00035-.93719-1.86855.001-.00052-.93524c3.67284 0 7.15574.35669 6.54422 2.80369l39.27227-3.73987-.00069-.9333-28.98648.93229.001-.93313 35.53021-2.8066.001-.93312-10.28524.00006-.00052-.93524 14.96077-.93597-.00052-.93525-4.67567-2.8049-5.60988-.9339 5.60919.0006.001-.93508-2.80449-1.87265-.93524.00053-2.80664 1.87188.00038-2.80556-70.12789 5.80065-25.246 5.41793-.0007-.9333 5.61061-.93448.002-.93702c-4.97816.014-12.76852-.59754-15.89623 3.74012l-20.571-.93511.93469 2.80698c-5.67662.24405-12.88306 3.69394-17.76491.00052l-.93507-.001.93486 2.80504-5.6113.001-.00035-.93719 3.74064.002-.00035-.93719-17.76439.93576-.002.93702 13.09098-.002.00035.93719c-14.39495.002-28.68751 2.859-43.01234 2.49902-10.14238-.25527-19.09839-4.12477-28.98645-5.67881-5.42978-.85369-20.42976-.0135-23.3742-4.30161l-24.31128.00027-.00052-.93524 32.72516-1.87174c0-4.48258 12.23274-.33267 14.02709 1.87029l6.54585-.935-.001.93507-1.87049.001.00052.93525c5.32879-.56009 10.02599-.1269 14.02424 3.74043l3.74029-.93538.001 1.86854 14.02605-.00021.001-.93312-1.87243.00087.002-.93702c2.33667.71811 6.93344 3.25544 7.4795.001l1.86959 1.86928 22.44061-1.09521 39.27238-7.14736 24.31138-.33748 32.72737-6.22208 32.72715-4.67324 15.89424-1.09546.93525-.00052 6.54495.93532-.00053-.93524-22.44171-1.62618-18.69826 4.2596-41.14343 4.84661.001-.93507c14.54173-3.4718 28.28923-3.94386 43.01145-5.78308 4.88651-.61059 9.17372-3.39006 14.02471-4.19793 11.61507-1.93554 28.53895-1.2898 40.20732.6317l.93615-1.87084-.00069-.9333-3.74064-.002-.00053-.93524zm-86.02449-.001.93577.93472zm103.33272 10.28541-11.69881-.00008.00052.93524 10.28719.0001-.001.93508-2.80699.93469.00052.93525 5.68223.26382c-.45443-1.33989-.94824-2.674-1.46323-4.0041zm-19.17848.00036-12.15608-.93608.00052.93525zm6.54495.93532-12.15573.001 1.35018 1.80031zm-10.80555 1.80142-.41372.0677.74571.37306zm.33199.44077 1.1237 1.49817-.00052-.93525zm-171.86013-18.13942-1.86855.001-1.87018 3.73991 9.35121 1.869-3.74008-1.86824zm10.28559.93712.93607 4.67359 5.60957-2.80497zm11.22169 1.86796-3.74188 1.8724.00069.9333 5.6113-.001zm-28.98643-1.86939-6.54534 1.87025c-2.33665-1.48204-3.17572-1.41478-4.67553.9359l-4.67498-1.8716.93396 4.67536 7.48002.93674 7.48201-2.80584zm175.78748 15.89505.93365.9365zm-118.75076-10.28544.9356.93667zm-54.23241-4.6761.93559.93667zm41.14303 3.74071.9356.93667zm-.001.93508-1.86945 1.87153 2.80557.00038zm-6.54443-.00007.9356.93667zm-59.84371-4.67492-1.86824 3.74007 4.67446.93636-.00014-3.74081zm197.29602 17.76699.93382.93456zm-158.95803-13.09142.9356.93667zm-3.74081.00014.9356.93667zm169.24289 15.89692.93576.93472zm24.31498 2.4449-14.02996.35865.00035.93719 14.52518.65909c-.16188-.65246-.31964-1.30417-.49557-1.95493zm-206.96042-18.02827.62384.30946zm2.18259.62228.93576.93473zm-27.11789-1.87059.93576.93472zm24.31354 3.73876.93365.9365zm-2.18207.31296.6235.31335zm75.11426 7.16767.93365.93649zm-96.30983-6.54386.93577.93472zm206.64477 18.70058.93576.93472zm-82.28257-4.67552.93577.93473zm-70.13038-3.73978.93577.93473zm62.33628 5.9223.62367.3114zm-1.5577 1.55767-4.67411.00083.00052.93524zm-95.37263-6.54421.93187.93438zm-26.4937-.62395.62155.31317zm91.94638 8.10308.93365.9365zm-90.69904-7.48028.93365.9365zm89.76237 8.41588-6.54442-.00007.00069.93329zm-14.96008 1.86927.9356.93667zm-5.60883.9366-.001.93507 3.74081-.00014zm-1.87226-.001-1.86803.93646-.001.93313zm-4.04975 1.24553.62155.31318zm-94.1304-7.79029.93577.93473zm199.16457 17.76579.93577.93472zm-9.34999-.00046.00052.93525 4.67394.001zm-122.48894-9.35182-.001 1.87226 1.87049-.001zm-6.54796.93678.93576.93472zm159.89396 14.0242-3.74045.93733zm-177.0342-14.64788.62367.3114zm142.83795 12.51042c-1.5086-.25418-3.09166-.37128-4.71925-.37955-8.31879-.0422-17.81809 2.73834-24.66774 4.38825l.00069.9333 33.66097-3.73868c-1.33212-.55897-2.76607-.94913-4.27467-1.20332zm-19.10099-1.6025.93382.93456zm41.1411 3.74055.93382.93455zm-14.95987-.93435.93382.93455zm-30.8587-1.87046.00052.93525 3.74081-.00014zm-43.01142-3.74144.00036.93719 9.3521-.001zm-3.73886.00031.9356.93666zm93.50319 8.41573-10.28562 2.80564-2.80466-1.87071.93628 1.86997-.93524.00052c-3.08283-1.0089-12.39254-3.11534-14.02605.00021l-.93524.00052c-1.23893-2.13469-3.49773-2.24724-4.67589-.001-6.39754-1.87382-21.87403 1.01795-26.1799 6.54591l14.02494-3.50583 3.7414 2.57024-.001.93508 24.31129-.00028-.93504-2.8031-3.92792-1.31217-.7458-1.49256 23.37374-.93711zm-174.85172-14.96032.00052.93525 6.54512.93337-.00069-.9333zm7.48002.93674.00069.9333 3.74081-.00014zm119.68653 11.22016-10.28844.93303.00052.93524zm27.11469 2.80356-13.08938-.93539.00035.93719zm-15.27127-.62437.6235.31334zm-47.37801-4.05093.9356.93667zm-220.84217-17.81742c-.0773.28016-.14593.561-.22065.84139l.39448-.78893zm266.66231 23.42796-4.67589-.001-.001.93508zm59.84034 5.60982-13.08938-.93539.00052.93525zm-66.69829-5.29814.6235.31334zm49.8681 4.36289.9356.93667zm-64.5164-5.60916-22.44222.9343.00052.93525zm9.34926 1.86883.00053.93524 2.80361.00021zm29.92204 2.80605.93576.93473zm-33.66285-2.80591-2.80504.93486zm-41.50228-3.35454c-.78361-.11892-1.60424-.17597-2.45429-.18335-7.36713-.064-16.92151 3.66104-23.36546 4.31592-3.30046.33535-6.70018.67401-10.0703 1.01681 12.71851-1.0572 25.13578-2.08053 38.12208-4.59924-.70101-.25132-1.44841-.43122-2.23203-.55014zm-35.89005 5.14938c-4.38786.36473-8.81067.73578-13.30698 1.17085-.77213.0747-1.56238.16083-2.33845.24047 5.26916-.37864 10.46248-.88413 15.64543-1.41132zm-15.64543 1.41132c-13.70656.98495-27.54343 1.13863-40.67318-1.33514l.00069.9333c13.22364 3.71566 27.21686 1.78262 40.67249.40184zm88.05208-2.89341.6235.31335zm48.93286 4.36341.93577.93473zm-51.11492-4.05045.31032.62121zm-27.42735-1.56045.00052.93525 5.60918.00059zm20.56957 1.87019.93559.93667zm-24.36345-1.66687c-1.02961-.14098-2.12764-.18634-3.27416-.15705-5.97802.1527-13.21268 2.30705-18.63431 3.46135l24.76568-2.57202c-.86784-.35403-1.8276-.5913-2.85721-.73228zm-21.90847 3.3043-37.82039 3.92962c11.96609-.42373 24.21497-1.64069 35.47032-3.46667.7225-.11721 1.53283-.28895 2.35007-.46295zm-37.82039 3.92962c-5.74254.20335-11.42686.24028-16.89229.0435l.00052.93525 9.34923 5.61158-1.86761-5.61186zm107.46849-1.826.93576.93473zm-19.63597 1.86799.00036.93719 2.80573-.002zm-2.18011.31314.62155.31317zm106.90466 9.97445.00069.9333 3.74081-.00014zm5.30024 1.24598.62156.31318zm-247.54982-20.99316c-1.62314-.14705-3.28715-.19519-4.97655-.17267-11.26267.15008-23.69757 3.42243-33.28757 1.21866l.00069.9333 31.79288-.26915 19.63471 3.0765c-3.78534-3.01086-8.29475-4.34549-13.16416-4.78664zm76.74726 10.39649.93382.93456zm-75.73672-5.61052-.001.93313 16.42514 2.98784zm16.42389 3.92097 1.33862.31905 13.09297 2.30616zm-17.35913-3.92045-34.59847.00017.00069.9333zm70.12805 6.54518.93382.93455zm-108.46643-8.41519-20.96723 1.26333-42.61485-.63255-4.54279-1.79142c-.13759 6.01687.30553 12.02851 1.33156 17.99116l3.21139.0006.93525-.00053 3.73938.93494c2.88834 3.78225 7.29478 2.34563 11.221.93466l12.15414.93591-.00018-.62544.93542.62492 1.8714-1.87137 18.69998.00091-.00069-.9333-14.02445-.93681 2.80504-.93486-.00052-.93525-23.37479-.93338-.00052-.93524 3.74081-.00014-.00035-.93719-5.6113.001-.00052-.93524 23.37694-1.87008-.00052-.93524-21.5052.9359-.00052-.93525 33.66218-1.87013.001-.93508-32.72763.93632.001-1.87227c15.74142 0 32.30365.0507 47.68507-3.73906zm-14.95851 4.67501 16.83005-2.80556-16.83057 1.87032zm251.52548 16.82968.93365.9365zm-207.58143-17.76498.93576.93472zm74.49253 6.85643.6235.31335zm14.96091 2.80484.6235.31335zm54.32978 5.64727c-.74272-.13016-1.52403-.19317-2.30912-.18438-2.61697.0293-5.28897.85513-6.82653 2.64164l11.21927-1.86913c-.63659-.25964-1.34089-.45798-2.08362-.58813zm-42.79633-3.1521.93382.93455zm-21.81817-1.55986.6235.31335zm-6.2348-.31216.00052.93524 3.74081-.00014zm55.16818 5.61082.00035.93719-.001.93313 5.6113-.001zm-163.63283-14.02389.93594.93278zm94.43912 9.34852.9356.93667zm-6.54442-.00007-1.86855.001-.0009 1.87032zm19.63696 2.80417.93365.9365zm-119.686-10.28491.00035.93719 2.80379-.002zm-.93473.93577-6.54637-.00025.00035.93719zm28.98502 2.80446.93559.93667zm234.69609 24.31129.93577.93473zm-287.99277-24.30992.00052.93525 2.80362.00021zm19.63501 2.80401.00053.93524 6.54442.00008zm252.46174 22.44241.93382.93455zm-232.82494-19.63629.93577.93473zm232.82473 22.4399-.001.93508 2.80751.00055zm-111.27073-9.34869-46.75087 1.86805c6.66309 8.75291 21.10855-2.00067 28.98627 1.87133l.93524-.00052.93507.001 8.41492-.00097.93473-.93577-.93452-1.86785zm-35.84085-2.49455.62173.31123zm-118.44061-9.66229 1.40242.93438-1.4019.00087zm12.77992 1.24554.6235.31335zm235.9417 22.13031.9356.93667zm-254.64328-21.1942.62367.3114zm249.96775 22.1301.93577.93473zm-215.99476-18.70103.9356.93667zm238.43569 22.44261.93594.93278zm-204.77358-17.76832-1.87032-.0009 1.87136 1.87139zm24.31143 3.74054.93576.93472zm-18.07753-1.55806.62172.31124zm-61.40194-4.05249.9356.93666zm-3.11714.31154.62367.3114zm-9.03859-.31044.00052.93525 4.67606-.00066zm-22.16523-1.80588c.15781.61458.3234 1.22803.49376 1.84105 5.43942.59827 10.81377 1.03203 15.12631 1.83314l-15.35726-3.60807zm16.55657 2.74054-.001.93313 4.67588.001zm25.24577 5.61033.93576.93472zm120.62069 13.0919.934.93261zm-62.95942-5.29845.62189.30928zm-80.10349-6.85914.93559.93667zm82.2827 8.41632.93577.93473zm-46.75104 1.87.93577.93472zm-33.66023 1.87031.93382.93455z"/><path d="m472.46616 123.05063-40.17932.0118c-2.83224-2.9809-8.39922-.16989-12.15434-.0595-9.41773.27677-17.66824.42164-27.08036-1.17915-4.13474-.70315-8.60139-1.50854-11.25784 2.17553l-14.44719-2.06585c-1.73434.34271-3.46488.69854-5.18786 1.07734l-.0007.0529c-.0325-.008-.0826-.0197-.11521-.0277-27.1002 5.97182-52.71406 16.40897-74.49709 31.24715l26.92365-2.11658 29.92411 1.75144-.001.93508-1.87048.001.00052.93524 6.5439-.93517.00052.93525-2.80361-.00022-.001.93508c22.0174 4.16281 43.29951 6.28571 65.66101 6.28571 4.29932 0 19.31623.29826 21.29851-3.48117l.93508.001c1.02293 1.78406 2.82239 2.48104 2.80556.00038l1.86976 1.86733 22.00868-2.58971-7.04898 3.52601-9.34947.93479.00035.93719 4.67605-.00066-.001.93313-18.69964.93628-.93688 3.73921-9.34895 1.87004.00052.93525 14.95814-1.86945-.00052-.93524-4.67321-1.86949 3.74029-.93539c1.89065 3.45311 13.99388.39595 17.76491-.00051l.00035.93719-4.67519.93201.00035.93719 7.48019.9348 10.2842-1.87056.00038-2.80556 12.1575.001-.93545 2.80414 18.70089-1.86942c-7.31015 7.10818-9.87065 1.5239-17.76707 2.80397l4.6764.93653c-3.56718 3.9599-7.09405 3.73904-12.15542 3.73997l-.001.93313 15.89689.93594-8.41582 1.87129.00069.9333c2.663.0318 11.11407 1.91067 5.35421 5.58164-3.03419 1.93366-6.57463-.75359-9.09457 1.89817-13.99663-3.08375-33.29292 1.67146-47.68788 2.80754l-.00052-.93524 4.67553-.93591.001-.93507-11.22191.93566-.00035-.93719 40.20824-5.60876 13.08907-2.80348-19.63402 1.86816-.00052-.93524 5.60919.00059-.00052-.93525-12.15573.001-.00052-.93524 7.482-2.80584-3.74012.93343-14.02678-2.61331-45.81627 2.61445.00052.93524 14.02462.93487.00052.93525-11.22048.00059.00073.37257-.93598-.37205-17.76543-.93473-.001 4.67394-11.22101-.93466c-1.55217-5.31197-9.40798-5.23682-14.02522-6.21674-14.81944-3.14453-28.9494-4.61471-43.94651-5.93872l.93563-2.80609 23.37656.93549-.00052-.93524-6.54689-.93549.001-.93313 33.66068 5.60936.001-.93507-6.54599-2.80581.001-.93507 18.7003 3.73977-11.21996.93583-.001.93508 13.09042 2.80588-.93417-1.87175 13.09132.93556-.001.93508-7.47967.00045.00052.93524 13.08885.00015-.00052-.93525-3.7399-1.87018 22.44148.93407-.00052-.93524-29.92116-.93362-.00052-.93525c5.05484 0 16.16909 2.09947 19.63808-1.86976l-9.34947.93479-.93702-.002c-4.34795-3.24739-13.35367-1.99584-18.70116-2.74387-14.08171-1.97013-27.94233-5.78028-42.07454-7.79435-4.98936-.71064-15.06296-3.03555-18.70213 1.18898l5.60866-.93465.00052.93524-10.2851 3.74088-4.67588-.001.93615-1.87084-10.28458 4.67613-.00052-.93525 1.87049-.001-.00069-.9333-13.09081-.00032.93629 1.86997-2.80556-.00038-1.09698-1.6468c-.40889.34175-.80842.68727-1.21167 1.03114l-.49799 2.48754-.93313-.001-.2585-1.03428c-6.38827 5.60406-12.03266 11.47918-16.95027 17.55825l10.6617-.62785 7.48057-1.87076-20.73326 5.80491c-.47319.62553-.93609 1.25424-1.39409 1.88371l4.36147.72664c5.04734-4.13289 15.4104-4.61825 21.50593-2.80427l.93563-2.80609c7.67668 2.78362 15.71481 1.35602 23.37746-.93483l-.0009 1.87032 7.48019.9348.00091-1.87032 2.80323 2.80578.93719-.00036 10.28403-1.86861 12.15482 1.86921c2.30862 3.50361 18.22627 6.90922 21.50639 4.6754l.93524-.00052 1.87063 3.73977 5.60866-.93465-.9342 1.87101.93525-.00052c6.68366-.59937 22.51894-4.55708 28.05157-.93566l20.57069-2.80375 1.86958 1.86927 11.22101.93466.93493-3.73939c14.12845 3.07349 32.05362-.21582 45.78-3.45479 5.37088-1.26697 11.81329-.94644 14.06299-6.83158 3.41477 2.94257 6.86801 6.60706 11.22062 3.74022 2.54704 2.45542 6.4208 1.85793 8.41618-.9341 2.62839 1.44183 5.16129 3.4323 7.48019.9348l.93525-.00052 1.86851 3.74154 3.74067-3.74095 17.76595 1.86997-.93628-1.86996 2.80625.93368 5.60918.00059.00091-1.87032 2.80483 1.86876.93546-2.80414.9359 4.67553.93313.001 1.87192-.93611.93458-4.67658 4.67498 1.87161c4.70186-3.61738 10.14775-4.08618 15.76062-3.57945-3.73652-4.62177-7.90778-9.1054-12.5125-13.42286l-3.24904.31764-43.01146 4.5283-2.80535-2.804-.00053-.93524 23.37785-3.74039-.00069-.9333-4.67498-1.87161-.00052-.93524 19.48397-2.88707c-.86537-.66915-1.73436-1.33537-2.6233-1.99403l-36.49604 1.1399-.00069-.9333 2.80556.00038-1.86994-2.80646c7.78984-1.85512 14.7055.40075 22.44109.40075 3.00461 0 6.03828-.30744 9.07922-.6918-.85699-.5961-1.71384-1.19296-2.59109-1.77947-20.35016-13.60529-44.04418-23.18175-69.16346-28.79773zm50.73528 30.73217c-2.8083.0508-5.48516.97441-6.76061 2.9415l14.26582-.67916c-1.80048-1.50242-4.71757-2.31282-7.50521-2.26234zm7.50521 2.26234c.25519.21295.48848.44008.6953.68038l4.67554-.93591zm21.96466 3.8744-10.04895 3.34982-4.67605.00066.00052.93524 18.23476-1.40436c-1.14674-.97032-2.31694-1.93072-3.51028-2.88136zm-66.15342-4.13097.00036.93719-12.60533.54603zm66.38971 7.48072.9356.93667zm4.67515 1.86966.93365.9365zm-91.50268-6.94477 4.54389 2.27186.00069.9333-9.35193-.00063-.0007-.9333 1.93183-1.93469zm79.34748 7.88113.93382.93455zm-3.43049.62134.31209.62332zm-2.1796 1.24838.93382.93455zm-73.86945-.93585.00035.93719 9.35016-.001zm-143.06309-12.15565.93559.93667zm104.72791 9.35268.93399.93261zm-110.3371-9.35327.00036.93719 4.67657.93458zm-1.86854.001-6.54637-.00024-.001.93507zm17.76595 1.86997.00053.93525 2.80414.93546zm6.54548 1.87057.93382.93455zm102.85244 10.28456.93577.93473zm17.76579 1.87192.00069.9333 2.80573-.002zm-157.0856-13.09229.93577.93472zm146.80036 13.09236.00069.9333 2.80573-.002zm-86.95824-7.48042.93577.93472zm72.93379 6.54361.93559.93667zm22.13043 2.18123.62155.31318zm-157.71138-13.40192.93365.9365zm-5.6113.001.00052.93525 2.80362.00021zm148.67102 13.08938.00052.93524 3.74081-.00014zm8.41738.93444.00035.93719 3.73887-.00031zm-163.01041-12.77936.6235.31335zm121.86699 11.84422.00052.93524 8.4167.001zm50.49161 4.67624-1.86785.93451.00035.93719zm-52.67367-4.36328.62367.3114zm66.3897 7.48073.62368.3114zm-143.68675-12.46705.00052.93524 3.7399 1.87018c0-2.64336-1.06809-2.61-3.74042-2.80542zm6.54495.93531.93593.93278zm55.16835 5.60888.93559.93667zm-3.73887.00031-.001.93508 2.80556.00038zm157.08629 14.02559.93365.9365zm-161.76307-12.15655.93559.93666zm-9.6598.31358.62173.31123zm21.81566 3.42612.00035.93719-2.33943-.93598zm91.63465 8.41695-1.87032-.00091 1.87136 1.8714zm22.44253 2.80456.93365.93649zm-22.44275-.00094.93366.9365zm-56.10307-4.67312-.93598 1.8689zm141.19134 13.08983.9356.93667zm-100.36113-8.10406.6235.31334zm45.19399 4.36372.00053.93525 4.67393.001zm-.93329.00069-13.09327-.93573-.93299 3.73956 14.02483-1.86875zm-43.01159-3.7395.93188.93439zm47.68462 5.61094.93594.93277zm-28.98561 2.80472-.001.93313 3.74081-.00014zm-7.4795-.001.93382.93456zm-67.32429-2.80415-1.86854.001-.00022 2.80361.9333-.00069zm1.87205 2.8047.93382.93455z"/></g><g fill="#cc354e" opacity=".75" transform="matrix(.26458334 0 0 .26458334 197.78634 -18.315078)"><path d="m575.03745 303.83645.62156.31318zm-9.97623 9.03991-3.74029.93539.00052.93524zm-4.67276 5.61019.00052.93524 6.09563-.002c.0178-.0188.0361-.0373.0539-.0561zm2.80518 2.80595-.001.93507.55489-.00047c.21266-.2122.42921-.42325.6399-.6361zm-6.54637-.00025.93382.93456zm-18.69985 20.56957-.001.93508.38036-.00006c.27065-.17885.54209-.35658.81159-.53677zm-3.74029.93539.9356.93666z" filter="url(#e)"/><path d="m574.59112 181.5843c-1.85389.44231-3.67122 1.24868-4.85372 2.25547l-.9333.00069-1.87153-1.86944-17.76641 7.48002c.2936 3.5064.1365 6.20514 3.74109 7.48148l.00031 3.73886 21.50541-3.73952-.93532 6.54495.00053.93525 2.80361.00021.0007.9333-1.86945 1.87153c-12.44539 0-26.08128-1.93592-38.35089-.76338-6.82672.65265-12.80304 4.5426-19.62228 5.27473-10.38736 1.11643-22.35209-1.38343-31.79133 3.90421l.00069.9333c4.95852-.82658 11.59423-2.43174 16.82953-3.7408 5.86738-1.46708 12.83455 1.46815 18.70193.001 4.92673-1.23145 8.78037-3.23757 13.08997-4.6738 3.0632-1.02106 7.72672.29367 10.28593.93323 9.98997 2.49749 21.96082.23352 31.79183 1.87172 5.33248.88885 10.67087-.0522 16.00549-.9328-3.925-9.84797-9.51577-19.40267-16.76279-28.44029zm-33.69521 5.63157c-1.96261.18152-3.97381 1.10824-6.69104 2.23589l-.93486-2.80504-.9333.00069-.00021 2.80362-6.54742-1.87073-2.80362-.00021-.93524.00052-2.80505.93486-2.80469 1.87205-9.35065-4.6765c-7.87024 4.60787-13.74798.10246-21.50413-.93637l-.00038 2.80557-13.09223.93476.00035.93719 3.7406 2.80348 1.87122-1.86942.93313.001 7.47908 5.60874 2.80716-.93664.00087 1.87244 4.67411-.00084.93494-3.73938 1.86854-.001 1.87241 3.74188 10.28509-3.74088c1.0538 1.87569 1.74983 1.8759 2.80362.00021l14.02584 2.80342.00035.93719c-8.45182 2.5003-24.57564-.27576-30.85631 5.60938l-.93507-.001-12.15483-1.86921c-3.53165 3.07067-6.81507 2.38272-11.22099 2.40422-7.61029.0365-21.0655 5.11322-27.11707-.53537l-.93525.00052-16.83005 2.80556-2.80483-1.86875.00052.93524 1.86907.93403-8.41371 1.86952.93351-2.80431-22.96524-.61718-23.7871 4.9672-15.89364-3.4158c-2.45261-4.49006-6.56904-4.17898-11.21713-4.74374-10.34247-1.25576-20.53654-3.86468-30.86219-.86694l-.93309-2.80293 2.80469-1.87205.93487 2.80504c8.08623-3.01363 16.02449-2.13003 24.47164-.89203 5.10346.74803 9.7718 3.15776 13.86448-.97699l.93524-.00052 1.86904 4.67678c3.73829.11688 6.39211.67752 8.41741-2.80831-9.06615-2.31142-20.62208-7.74429-29.92199-5.60772l-13.08952-4.6762-5.61241 4.67512-.93292-2.80488 3.73886-.00031-.93503-2.80309c-6.38913.43199-11.95077 1.3231-17.76578-1.87192l-.93525.00052-2.80504.93486-3.73925 2.80588-.93507-.001c-1.71018-1.91122-8.83292-3.1001-9.34999-.00045l-4.6762-3.74015-1.87035 3.74185c-2.94445-2.04026-6.21595-2.08031-8.41423.93427-4.02816-1.63259-6.81859-1.86999-10.28666.93514-1.24828-1.84297-1.93638-.87631-2.80504.93487l-2.80626-.93369.93646 1.86803-.93524.00052-3.39971.00057c-6.30911 9.15839-11.03711 18.69916-14.19114 28.42014 1.62591 1.00394 3.20048 1.90073 4.50007 2.27979 10.41074 3.037 22.29861-1.27992 32.72711-1.71472 4.25258-.17764 7.36604-3.98052 10.28524-.00007l14.02483-1.86875.93525-.00052 13.09116-.98975 25.24174-4.06943 26.18604 5.05933-.00052-.93524-8.41579-1.87147-.0007-.9333 14.02567 2.80536-3.7396 1.86868-.001.93508c5.02211.93224 10.17729 2.06437 14.02872-1.86841l-4.67536.93396-.00069-.9333 6.5455-1.8722 3.73901 3.7405.001-4.67588 4.67498 1.87161-2.80699.93469.00052.93524 22.4404 1.55156 23.37699-4.35805c0-4.89213 4.9122-.71048 7.48076-1.24533 2.42082-.50492 3.80992-3.18778 6.23448-3.74039 11.19524-2.55359 25.9754-.41813 37.71297-1.55887 4.06555-.39552 6.89874-4.87948 10.28545-2.80369l.9333-.00069 25.24743-1.87112 14.0256-7.47988c10.25646 2.44139 11.92941-.66701 14.96175-9.35072-2.52414-1.85372-4.43928-2.41595-6.40188-2.23443zm-61.85745 13.45685.93593.93278zm105.66048 11.22037-14.96255.93385.002 2.80574-3.74081.00014.0007.9333 4.67498 1.8716-3.74029.93539.00069.93329 8.41454 2.8046.00052.93524-3.74081.00014.00052.93525 1.86959 1.86928-11.21996.93583-.001.93507 9.35246.93587-.001.93313-31.78957 2.8084-.001.93313 57.44615-2.49884c-.4105-2.77089-.93951-5.53291-1.59887-8.28023-5.77978.12382-11.5952-.25068-16.57598-1.37571l.001-.93507 15.76322-.83048c-.23391-.84835-.47263-1.69692-.73044-2.54209l-5.68435.56728zm8.39296 2.80466-2.78205-.00028.93292 2.80487 2.08834-2.08765c-.0798-.23911-.15747-.47812-.23921-.71694zm-3.71802 1.86861.93576.93473zm-25.55811.31272.62156.31318zm-203.52731-15.27326.93576.93473zm121.55646 14.02663.93382.93455zm86.02369 8.41424.93559.93667zm-3.74081.00014.00052.93525 2.80362.00021zm-95.37601-5.6093.93577.93472zm-35.84032-1.55931.62155.31317zm25.5556 2.49462.93577.93473zm-2.18189.31102.62367.3114zm97.55804 9.03909-.001.93508 2.80557.00038zm-116.88065-7.48091.93559.93667zm-2.80647 1.86994-36.4658 1.86993.00052.93524c11.29155 2.68824 25.19898-.71256 36.46528-2.80517zm84.77864 8.7288.62189.30929zm-4.36431-.31321.93382.93456zm57.97374 5.61121-.001.93313 2.80556.00038zm22.12866 2.17912.6235.31335zm-4.3627-.30915-.001.93508 2.80557.00038zm-2.18173.30908.62156.31317zm-5.29972-.31074-.93615 1.87084 2.80557.00038zm-55.16766-4.67558.00052.93524 2.80362.00021zm42.07526 5.61228.93577.93473zm-176.72204-14.96122.00052.93524 3.74081-.00014zm-74.80289-4.67597c-7.25217.91634-14.38754-.79446-21.50506.19481-18.78217 2.60971-38.74143 6.79877-57.97334 4.35645-1.85493-.23556-3.61502-.78797-5.3432-1.44973-.22003.75043-.43109 1.50201-.63247 2.25424l4.14193 2.00338 32.68883-1.94941 48.62383-4.47449zm74.80411 6.54451-25.24796.93587.00052.93525zm-28.98734.00094.93576.93472zm-68.2575 3.73902.9356.93667zm-62.02338 3.11789.62155.31317zm345.02843 31.79179.62367.3114zm-4.67342.93413.62155.31318zm-25.87187 7.17085 9.35315 1.86917-.00052-.93525zm10.28593.93323.00052.93524 9.35194.00063zm33.97275 3.72313-.31133.0179-.00019.83127c.10468-.2831.20954-.56567.31152-.84913zm-47.99775-1.85243-19.63471.93485.00052.93525zm12.15677 1.86938.93559.93667zm-1.87244.00087.93577.93472zm-31.79006-1.8696.93594.93278zm67.8916 6.04562-16.4648 2.2611-6.54354 1.04304-33.66375-.9356.00052.93525 1.87227.001-.001.93507-13.09028.93493-.001.93313c3.46712 0 6.28821-.83381 5.61217 1.87126l2.80362.00021-.93417-1.87175.93507.001 32.72513 1.87102c4.3093-3.15544 16.71079-3.64452 24.13525-2.11154.93707-1.94498 1.80987-3.90239 2.61519-5.86862zm-70.69647-5.1127.9356.93667zm-2.18206.31296.6235.31335zm-2.80362-.00021.62155.31318zm-7.17147.62343.00052.93525 2.80751.00055zm-5.60866.93465.00035.93719 3.73886-.0003zm-1.87049.001.93576.93472zm10.28645 1.86847.93365.9365zm-15.89654.001.93577.93473zm18.7003 3.73977.93576.93473zm73.10019 6.54641-2.97232.00071.0007.9333 1.82298 1.21429c.392-.71443.77484-1.43036 1.14864-2.1483zm-6.71312.00085.00069.9333 2.80556.00038zm-83.52884-7.17058.6235.31334zm-14.64829-1.24627.93365.9365zm93.50388 9.34904.93365.9365zm-57.03638-4.67243-.001.93313 3.73886-.00031zm-.93702-.002-2.80379.002.93257 1.86769.93719-.00035zm6.54547 1.87056.93577.93473zm-11.82725-.59362c-.98053-.12988-2.10009-.19473-3.30595-.19708-7.23515-.0142-17.62838 2.17456-20.39773 5.46567l5.6097.93584 10.28458-4.67612.93486 2.80504 2.80595-2.80518 6.54585-.935c-.65523-.26719-1.49673-.46329-2.47726-.59317zm39.56791 4.64594.62367.3114zm-41.76566-2.18162.93594.93278zm-9.35232 2.80494.93576.93472zm-11.21802.936.93399.93261zm-67.32374-5.61166-.001.93508 2.80556.00038z" filter="url(#f)"/><path d="m441.1765 118.15061c-10.2333-.94177-20.56709-1.27001-30.88488-.98853-11.17937.30499-22.3379 1.33463-33.32975 3.06774l10.44355.74508 21.506 2.68537 22.83603-2.38794 33.36243.25636c-7.87823-1.50424-15.87288-2.63627-23.93338-3.37808zm57.49862 13.32768.93577.93472zm-53.29727 5.61056 3.73991 1.87018zm-7.4795-.002-.002.93702 5.60936-.001zm-7.48162.00028.00052.93524 6.54443.00008zm-6.54443-.00007.00035.93719 5.60935-.001zm-93.81-4.61748c-.20958.0786-.4209.15386-.63014.23307l.00042.64507 10.28576.93518-.00052-.93524zm24.61574 2.74961.93399.93261zm-14.02445-.93681.00035.93719 2.80379-.002zm5.2983 1.24581.62155.31318zm199.31865 18.82818-9.19358.4975.00053.93524 1.86958 1.86928-5.61113-.00076.00052.93524 17.29281-1.03584c-1.42483-1.07946-2.87166-2.14945-4.35873-3.20066zm6.07801 4.86073.31209.62333zm-5.61977.008c-2.36763.005-4.37739.67743-5.91056 3.10801l9.34805.00029.00021-2.80362c-1.21117-.17182-2.3615-.30713-3.4377-.30468zm-67.62528-2.50111.93382.93455zm-.93525.00052c-10.27329 0-29.46962 7.1857-38.33754 2.8041l-.9333.00069-12.1423 2.29029-37.69472.63311-71.71883-10.09968-29.12731 2.16101c-2.10525 1.44102-4.17861 2.91903-6.20965 4.4425-.64152.4812-1.26434.96965-1.89385 1.45571l11.05074-.88398.00052.93525-12.52938 1.08987c-.9676.7643-1.92041 1.53476-2.85873 2.31042l5.09981 1.27354 6.54638.00025c3.13705-1.01078 7.95738-.10814 8.41461-3.73984l14.02535-.9335-6.54547-1.87056.001-.93508 40.20675 1.87074 11.22105 3.55597 27.11478 3.92306-.00052-.93525-18.69977-2.80453 36.46805 1.86911.00052.93525-1.87139 1.87136 8.41475.00097.00069.9333-10.28472.93532-.001.93507 14.95987.93435.00052.93524-18.69999-.00091.00035.93719 19.6345-.37218-.00014-1.49986 10.28455-.93337-1.86816-2.80435.93614-1.87084 2.80341 2.80383.93719-.00035c0-4.42649 15.0499-2.80483 18.69842-2.80483l-.00052-.93525-10.28523.00007.001-.93313 44.882-6.54678zm-66.38822 16.45816.0009.37063c3.00244-.0247 7.2927-.10713 11.54227-.5861zm11.54317-.21547 18.37963-.34866.93493-3.73938-5.61113-.00077-.93524.00052c-2.70222 2.37791-7.70607 3.51774-12.76819 4.08829zm88.19559-11.25648.6235.31335zm-146.49038-12.46726.93577.93472zm116.88044 10.28453.9356.93667zm-2.80379.002.93382.93455zm-16.83304.93489.0007.9333 8.41474.00098zm104.24883 10.95178-45.34081 3.07366.00069.9333c15.62264 0 30.96014-2.69348 46.5182-2.7942-.391-.405-.77984-.81038-1.17808-1.21276zm-109.85697-9.08188.93382.93455zm-4.67731.93379.9356.93667zm-102.85529-8.41442.93576.93473zm-1.86838-.00073.93577.93472zm127.78793 11.53094.6235.31335zm-29.60833-2.17867.00069.9333 3.73886-.00031zm10.2845 1.86831.93577.93472zm56.41535 6.23557.31227.62137zm-62.02418-5.29898.93382.93456zm-5.61061.93448.93382.93456zm8.41596 1.86952.93577.93473zm-2.80556-.00038-7.4811.93553.00069.93329 7.47968-.00044zm-131.84209-11.22099.93539 3.74029 9.34947-.93479zm11.22136 1.87184 1.86868 3.7396.93525-.00052.93562-2.80609zm66.07531 5.92005.62367.3114zm31.79236 2.80696.62172.31123zm-36.15489-3.11805.00052.93524 2.80362.00021zm-57.03798-4.67649.93365.9365zm48.62112 4.67729.00052.93524 7.48162-.00028zm40.20796 3.73928.00052.93525 2.80362.00021zm-70.12965-5.60815.001 1.86855 1.87049-.001zm-11.21888-.93643.002 2.80379 7.47846-1.86899zm14.02566 2.80536c2.79017 4.14503 7.4977 4.70202 12.15514 5.60807l1.87122-1.86941zm34.59666 3.74047.93577.93472zm-7.48144-.002.00035.93719 2.80573-.002zm-1.86855.001.93382.93456zm-2.18189.31102.62367.3114zm12.46692 2.49253-1.87049.001-.00091 1.87032zm-4.67606.00067.93577.93472zm159.89185 14.02597.93577.93472zm-173.91647-14.96084.93577.93472zm-98.19831-6.5836c-.006.005-.0111.0111-.0171.0162l.0354.0207zm32.74555 5.64889-.001.93313 2.80556.00038zm-6.54637-.00024.00069.9333 5.60918.00059zm-4.98538 4.05162.6235.31334zm-9.97578-.31008-14.02445-.93682.00035.9372zm263.68292 23.37512.93576.93472zm-260.87666-22.44144-.001.93507 3.7408-.00013zm176.72256 15.89647-.001.93508 9.35193.00062zm-.93507-.001-8.01769 2.00415 8.01804-1.06696zm-8.01769 2.00415-3.2018.42765-.001.37435zm-3.2018.42765-.001-2.43122-1.87049.001-.93351 2.80431zm-174.23099-17.08031.6235.31335zm159.26922 15.58507-4.67588-.001-4.67411.00083 10.2868 2.80567zm6.54495.93531.00069.9333 3.74081-.00014zm-165.81334-11.84627.62155.31318zm26.49332 3.42952.93365.9365zm105.65801 10.28495.9356.93667zm-9.35016.001 1.87257 3.73994 6.54339-1.87042zm-11.22032-.001-1.86802.93646-.001.93507zm10.28559.93713-6.54585.935zm-19.63575-.93564.93382.93456zm23.37635 3.73911-.93403 1.86907 1.86837.00073zm10.90943 1.24658.6235.31335z" filter="url(#g)"/></g><path d="m305.82154 14.110644c-.0212-.0065-.0451-.0072-.0714-.0021-.14012.02747-.35317.233023-.64167.7588.77434.640027 1.03049-.659647.71307-.756703zm-28.84533 12.040457c-.32862-.0037-.65949.309804-.85417 1.213297 2.80436 1.661436 1.84004-1.202314.85417-1.213297zm47.05726 5.248345c-.1867-.000705-.40577.03626-.69754.122607-.80139-.09991-1.52228-.144784-2.16271-.147195-4.483-.01688-5.03257 2.05285-1.79271 1.979841 1.64595-.128521 3.58184.468982 5.47233.680037-3.59659 1.182904-12.53935-.163505-10.73442 2.385454 3.83558-.0173 11.68499-.05343 13.59131-1.694061 1.63238.906818 1.09638-.273612-.41124-.730571.85216-.17214 1.65916-.548964 2.38449-1.255263-.45275.406013-4.40828-.333915-3.74712-.601724-1.07276-.392654-1.3423-.73701-1.90239-.739125zm18.72533 1.975434c-.26174-.04848-.67701-.04196-1.28041.03738-.17163-.03825-.36924-.05003-.58687-.03941-3.26441.159364-11.0389 5.383489-3.38793 2.668702 1.39365.688201 7.08736-2.327315 5.25521-2.666664zm-5.51739-.461441c-.0212-.0065-.0451-.0077-.0714-.0026-.14022.02724-.35346.232801-.64265.758195.774.641441 1.03146-.657992.71401-.755583zm15.58081 2.063441c-4.1944.797442-.95976 1.608154 1.17229 1.660852-.21283-.498037-.44131-.99296-.68661-1.484526-.1709-.06045-.29034-.111554-.48568-.176326zm-21.02328-1.815955c-.0212-.0065-.0451-.0077-.0714-.0026-.14022.02724-.35399.232754-.64317.758149.77401.641444 1.03199-.657943.71453-.755537zm18.10201 1.854502c-.11599-.0127-.30039.186352-.45359.814678.64993-.184779.6469-.793495.45359-.814678zm.45251.371582c-.0211-.0065-.0446-.0077-.0708-.0026-.14015.02735-.35404.233382-.64322.758664.77339.64028 1.0313-.658809.71406-.756097zm-42.63108-3.194398c-.24924-.0034-.57354.03777-.99215.13418-1.71655.597134-4.55709.47377-5.73055.931397.0246-.39617-.24424-.67181-.83996.410496.10749.08909.19677.114802.28418.137429.01.372143.44141.907352 1.51543 1.705397 1.46368-.461645 3.72101.130597 6.71769-.05966-1.1348-1.012152.79003-3.23576-.95464-3.259236zm21.44774 2.34226c-.0139.03161-.0374.123579-.0287.180083.0469-.18293.0426-.21169.0287-.180083zm-21.41036-1.779272c.15036.01241.22434.147631.0912.504932-1.68299.52407-.54234-.542143-.0912-.504932zm-9.46693-.463057c-.13667.03795-.33926.215047-.60639.634276.83123.390302 1.01641-.748123.60639-.634276zm-7.923-.27507c-.70269-.02077-1.58354.07002-2.73455.287796 2.49963 1.669673 2.31787 1.433119 6.70254 2.479273-1.35867-1.6401-1.85993-2.704759-3.96799-2.767069zm3.59543.532949c-.0325-.0194-.0745-.02424-.1257-.01-.13662.03808-.33933.214704-.60635.633761.72701.34016.95982-.488003.73205-.623801zm43.02931 4.073745c-.0212-.0065-.0446-.0077-.0708-.0026-.14025.02712-.35429.232646-.64415.757544.77307.641697 1.03228-.657153.71499-.754977zm-9.89714-.247552c-.0212-.0065-.0446-.0077-.0708-.0026-.14013.02747-.35321.233534-.64171.759314.77433.640027 1.02996-.659694.71255-.756748zm-24.6962-2.032509c.11511.03658.36828.233817.41438.481331-.50656-.393829-.5295-.517907-.41438-.481331zm-37.15154-2.667796c-.0212-.0065-.0446-.0077-.0709-.0026-.14025.02712-.35428.232646-.64415.757545.77307.641696 1.03229-.657152.715-.754978zm56.65296 5.443068c-.0212-.0065-.0451-.0077-.0714-.0026-.14022.02724-.35346.232802-.64265.758194.77401.641451 1.03147-.657986.71401-.755583zm-58.59175-4.266045c-.17705.26333-.34934.528015-.51659.793604 1.27803.179719.99451-.221525.51659-.793604zm12.10233 1.059336c-.37867-.02588-.88785-.0028-1.55163.0899-.37673.151235-1.47809-.400755-1.06978.52941 1.54852 2.139911 5.2721-.438146 2.62141-.619311zm36.07781 3.698999c-.20122.06659-.72125.230093-.95658.290839 1.04021-.327104 1.1578-.357426.95658-.290839zm-21.23637-.607782c-.0325-.01948-.0744-.02466-.12565-.01047-.13672.03784-.3397.214407-.60734.633156.72687.341673.96067-.486335.73299-.622681zm65.72076 7.355316c-.20698.0025-.44363.02171-.74508.07902-.34041 1.560081.27435 1.700921.83782 1.386746-.0165-.489169-.0472-.9778-.0927-1.465769zm-6.8335-.454682c-.44077-.02474-.87797.110018-1.14191.52362.59923 1.608061 4.48886.472615 2.59068.37242.0305-.371145-.71414-.854823-1.44877-.89604zm-57.42146-4.805856c-.0212-.0065-.0451-.0077-.0714-.0026-.14023.02724-.35341.232286-.6426.757679.77401.641449 1.03142-.657473.71396-.755067zm60.61891 5.677996c-.0192-.005-.0412-.005-.066.0015-.13247.03449-.34666.244294-.65521.765396.6716.568929 1.00913-.692246.72122-.766883zm-77.81614-6.573042-.00012 1.276086c.29781 2.62874 4.34795.176422.00012-1.276086zm4.70448.681333c-.28606-.01985-.61549-.03043-.99337-.02985l-.00016.476187.00013.134884c-.23508 2.094014 5.28435-.283471.9934-.581224zm21.40376 2.068151c-.0315-.01847-.0723-.02281-.12228-.0076-.13336.04059-.33281.219861-.59701.639765.70408.320411.93951-.502909.71929-.632179zm-23.01271-1.607698c-.0211-.0065-.0446-.0077-.0708-.0026-.14015.02735-.35352.233427-.6427.758709.77339.64028 1.03078-.658856.71354-.756142zm71.99978 7.388514c-.25361-.03341-.54444-.05808-.87608-.07198l-.00016.476188.00026.257836c.13124 2.310448 4.68013-.160865.87598-.662046zm-77.22314-6.14715c-.24576-.0263-.52482-.04481-.84088-.05334l-.00021.476703.00003.201273c.6628 1.965141 4.52735-.230094.84106-.624639zm-2.9528-.03995c-.25147-.03176-.53626-.05579-.85707-.0698l.00031.476747-.00025.257791c.93986 2.080263 4.62906-.18839.85701-.664742zm-1.57929.156993c-.13667.03795-.33977.215002-.6069.634231.83123.390294 1.01692-.748079.6069-.634231zm-2.78835.286201c-.42782-.02236-1.05419.0391-1.93198.221584-1.7999 4.209649 4.92669-.06507 1.93198-.221584zm-4.73098-.283703c-.11606-.0132-.30099.184635-.45499.812998.65066-.182273.64844-.790991.45499-.812998zm89.55803 7.916235c-.11599-.0131-.30097.185259-.45555.813468.65053-.182733.64888-.791629.45555-.813468zm-78.24132-6.776754c-.17447-.02463-.10445.23396.25467.142628-.11066-.09452-.19651-.134421-.25467-.142628zm-12.10131-.768752c-.0212-.0065-.0451-.0077-.0714-.0026-.0114.0022-.0265.01368-.0389.01838-.0851.303448-.16387.607442-.23748.911914.47992.03521.60782-.847937.34779-.927681zm14.84309 1.732268c-.0212-.0065-.0446-.0077-.0708-.0026-.14022.02724-.35398.232756-.64316.758149.774.641448 1.03146-.657988.714-.755582zm-13.56402-1.114075c-.11599-.0127-.3009.186307-.4541.814633.64992-.184771.64741-.793448.4541-.814633zm94.93107 8.883266-7.02682-.000062c-2.48981 3.832181.3612 2.679606 3.71051 2.294796.71563.772052 1.63436.913339 2.63497.767424.29159-1.015347.51829-2.037071.68134-3.062158zm-95.22017-7.274534c-.0212-.0065-.0451-.0077-.0714-.0026-.14024.02712-.35377.232694-.64364.75759.77307.641696 1.03229-.657152.715-.754978zm13.35853 1.731551c-.0212-.0065-.0446-.0077-.0709-.0026-.14016.02735-.35351.233427-.64269.758709.7734.64028 1.03078-.658856.71354-.756142zm-6.92713.247798c-.0212-.0065-.0445-.0077-.0708-.0026-.14022.02724-.35399.232755-.64317.758149.774.641448 1.03147-.657989.71401-.755583zm-2.83706.368569c-.0933.0041-.34674.178794-.84552.634105-1.35086 2.536412 1.24974-.651806.84552-.634105zm-3.3042-.244987c-.11599-.0131-.30143.184699-.45602.812909.65053-.182732.64935-.791071.45602-.812909zm90.9438 15.532724c-.0549.06356-.10456.11403-.16446.189994.008.01243.0157.01976.0237.03164.0474-.07375.0942-.147711.14078-.221635zm-25.66832-2.062054c-.0192-.005-.0412-.005-.066.0015-.13245.0346-.34644.244865-.65428.766514.67256.568863 1.00835-.693493.72029-.768002zm21.23396 4.145367c-.0226-.01246-.0425-.01212-.0604.0025-.0408.0334-.0692.143562-.0832.357914-2.1223.596242-2.90676 1.381485-3.76463 2.895115-3.05925-.68037-4.01293 1.102465-1.04051 1.422127-.11838.05083-.26671.257143-.37523.784703.55955-.200763.62447-.624308.51397-.763746.1662.01431.36092.01374.55031.01858-.10681.12052-.23197.302236-.37616.564158.62289.515688.89799-.212739.82088-.571937.29636-.0038.5486.01252.89515-.01558.46077.04364 1.03613.07988 1.59284.114975.84338-.788174 1.63362-1.594768 2.37053-2.41794-.29289-.17554-.24703-.36034.43213-.492344.0199-.02302.0397-.04594.0595-.06898-.69053.156369-1.27056-1.683468-1.53517-1.829547zm-.54676 2.229426c1.17387.174211-1.80341 1.262897-.78093-.0092.36089-.02199.61324-.0157.78093.0092zm.29498 1.170144c.0156.01821-.0207.05815-.16036.131217-.26739-.02888-.12792-.102185.009-.131498.0683-.01466.13587-.01793.15145.000281zm-.95919.486694c.15855.05015.22418.212478.0137.560917-1.24486-.07552-.6415-.540677-.19649-.576391.0668-.0054.12995-.0012.1828.01547zm-2.39568.06689c.11818.0023.25683.0732.26855.274564-.48408-.07355-.49153-.207602-.37441-.256333.0293-.01218.0665-.019.10586-.01823zm-4.50321-.295939c-.12269-.000042-.30506.20674-.43033.815676.6729-.241433.63481-.815607.43033-.815676zm4.18826 2.105236c-.0212-.0065-.0446-.0077-.0708-.0026-.14025.02712-.35429.232649-.64416.757545.77307.641704 1.03229-.657151.715-.754978zm-8.41258.494442c-.0212-.0065-.0451-.0072-.0714-.0021-.14014.02747-.35316.233023-.64166.758799.77434.640033 1.03048-.659644.71307-.756702zm3.21664 2.722084c-.0212-.0065-.0451-.0077-.0714-.0026-.14023.02724-.35346.232801-.64265.758194.77401.641442 1.03146-.657989.71401-.755582zm-3.21892.493894c-.0204-.0059-.0435-.0068-.0688-.0019-.14022.02724-.35346.232802-.64265.758194.26036.215771.45706.202381.5983.09851-.0373.05815-.0628.08005-.10327.148662.86525.73186 1.1604-1.530765.29975-.431822.0835-.244741.0598-.530447-.0833-.571675zm-5.19235.495538c-.0212-.0065-.0451-.0077-.0714-.0026-.14022.02724-.35346.232801-.64265.758194.774.641449 1.03146-.657989.71401-.755582zm-3.2164.494634c-.0212-.0065-.0451-.0077-.0714-.0026-.14022.02724-.35346.232801-.64265.758195.77401.641449 1.03147-.657989.71401-.755583z" fill="#fad0d7" filter="url(#d)"/><path d="m302.19188 15.225846c-.0303-.01225-.0719-.01544-.12503-.0058-.14178.02585-.36698.142332-.68634.415636.68791.213346 1.02327-.324127.81137-.409884zm40.83119 14.571073c-.1167.07397-.36052-.0037-.54153-.0064-.18101-.0026-.29924.0694-.16383.443712.38499 6.612664-5.75054 3.105218-8.29682 6.730985 5.00313-1.159194 12.95504-1.02206 9.00218-7.168301zm5.62276 3.869952-.2433.24327c-5.30489 3.86859 5.04925.507304.2433-.24327zm-3.51409.731071c-.0317-.0077-.0649-.01022-.0991-.0061-.18233.02209-.39543.226843-.588.761939 1.31605.704122 1.16216-.639694.68706-.755866zm-20.18589-1.064702c-1.10664-.06328-2.26891.05152-3.41681.194387.0315-.353247-.17462-.577845-.6236.07202-1.1642.151797-2.30259.30678-3.33522.305274-.0202-.248832-.17462-.38458-.48319-.02101-.0919-.0051-.1876-.004-.27748-.01235.0777-.382245-.10344-.71827-.56303-.08661-.27352-.05165-.537-.120406-.78463-.215968.27122-.396176.1697-1.048525-.46349-.228333-.0779-.04391-.16256-.07627-.23689-.126548-.3356 1.399352-2.16896-1.025886-2.52642-.146335-.23374-.08062-.6306-.10877-1.27235-.04284-.0456.325691-.10541.489562-.16673.636948-.14987.03168-.2975.06769-.4484.0972-.3579-.413968-.76552-1.515464-1.05775-1.659649l-.00051-.000045c-.16488-.08038-.29257.1585-.35087 1.028047-.11662.379344-.12413.657611-.0845.888986-5.7034.849301-11.99112.409893-17.75509.364406 1.51277 3.806559 10.08638 2.127729 11.83665 1.422033 4.91941-.116983 4.47182.920458 8.85532.362343 4.30186-1.014605 12.5652 1.113379 16.2386-1.956811-.92589-.570333-1.97694-.81187-3.08359-.875147zm14.10751 1.945956c.0628-.0044.13893.04061.0404.148782-.15268-.09052-.10323-.144372-.0404-.148782zm-57.25386-3.602764c-.0316-.0078-.0649-.01014-.0991-.0061-.18228.02172-.39574.226459-.59001.761244 1.31266.707018 1.16343-.637973.68907-.75517zm45.7942 4.453106c-.0212-.0065-.0446-.0077-.0709-.0026-.14025.02712-.35428.232646-.64415.757544.77307.641697 1.03228-.657151.715-.754978zm-43.01865-3.039484c-.18914-.02104-.37024-.02962-.53643-.02307-.44317.01746-.7777.143706-.85662.434975-2.71452 1.941437 8.25747.525569 3.84137.816946.57345-.331416-1.12433-1.081594-2.44832-1.228851zm34.24921 4.494014c-.38004-.03075-.88106-.01091-1.52546.0813l-.47078-.156866.00011.734024c1.3959 2.25362 4.65639-.443179 1.99613-.658455zm-45.37793-3.430048c-.0202-.0043-.0433-.0035-.0693.0033-.13874.03612-.36086.242493-.67767.749424.71401.530395 1.05063-.687669.74695-.752701zm13.35989 1.484751c-.0202-.0044-.0432-.0035-.0693.0033-.13885.03589-.36115.241794-.67861.748304.71393.531762 1.05168-.686012.74789-.75158zm33.72781 3.137028c-.0641.0016-.177.03304-.35437.1075-1.13532 1.351228.80273-.118049.35437-.1075zm-11.74301.07494c-.0212-.0065-.0451-.0077-.0714-.0026-.14022.02724-.35347.232801-.64265.758195.774.641443 1.03147-.657989.71401-.755583zm-8.59092.759996c-.17726-.02669-.37928-.04413-.60764-.05109-.24359-.0074-.51747-.003-.82418.0166l.00022.448209-.00018.197624c1.23729 2.190793 4.09064-.21094 1.43178-.611344zm-28.54527-.265257c-.0317-.0077-.0644-.0097-.0986-.0055-.18234.02209-.39593.226798-.5885.761893 1.31606.704123 1.1622-.640208.6871-.75638z" fill="#fff" filter="url(#c)"/></g><path d="m61.951671 29.756283c13.136677-1.511305 26.701996.535974 37.527428 6.478721 21.651071 11.886018 24.400031 35.009255 5.995021 51.507437-18.405241 16.498619-51.061894 20.184459-72.712383 8.298569-21.651029-11.88561-24.2949266-34.959822-5.895644-51.452876 9.199578-8.246598 21.948998-13.320561 35.085578-14.831855z" fill="url(#a)" opacity=".75"/><path d="m93.570457 7.5826051c5.42721 5.0417369 11.021923 22.7138409 11.021923 22.7138409s-5.341319-8.729969-8.508454-12.320761c-3.631026-4.116735-7.624184-7.700885-11.870987-10.3930799-5.732329-3.6339208-18.067103-7.5826051-18.067103-7.5826051s19.639678.35059713 27.424621 7.5826051z" fill="#fff" filter="url(#h)" transform="matrix(-1.0911562 .12552257 .08859391 .77318278 137.85818 31.885725)"/><path d="m70.624632 25.036198c-3.053183-.01172-6.115485.161397-9.154998.511081-13.894674 1.598505-27.420876 6.91537-37.425106 15.883268-10.005103 8.968539-14.6934148 20.267595-13.452926 31.09371 1.24049 10.826115 8.363668 20.768661 20.137272 27.23193 23.545879 12.926443 57.541102 9.093493 77.565816-8.856823 10.01225-8.974941 14.67293-20.296679 13.40331-31.132985-1.26961-10.836304-8.41159-20.783647-20.18481-27.246916-8.829344-4.84697-19.123656-7.245183-29.580627-7.466728-.435708-.0092-.871762-.01486-1.307931-.01653zm-.02377 4.242636c10.291075.0482 20.420984 2.313398 28.878343 6.956165 21.651055 11.886005 24.399965 35.009286 5.994985 51.507451-18.405226 16.49859-51.061897 20.18459-72.712365 8.298719-21.651007-11.885596-24.2950291-34.960154-5.895764-51.453191 9.199568-8.246591 21.949148-13.320365 35.085715-14.831654 2.873645-.330598 5.767584-.490987 8.649084-.47749z" fill="#8f3d43"/></g></g></svg>