<svg height="500" viewBox="0 0 132.29167 132.29167" width="500" xmlns="http://www.w3.org/2000/svg" xmlns:xlink="http://www.w3.org/1999/xlink"><linearGradient id="a"><stop offset="0" stop-color="#241e38"/><stop offset="1" stop-color="#2a1f47"/></linearGradient><radialGradient id="b" cx="-178.15617" cy="-56.392914" fx="-178.15619" fy="-56.392921" gradientTransform="matrix(.06417506 .21533928 -.37990017 .11321722 88.617596 67.297017)" gradientUnits="userSpaceOnUse" r="44.557804" spreadMethod="reflect" xlink:href="#a"/><radialGradient id="c" cx="-61.635559" cy="60.788631" gradientTransform="matrix(.11864254 .39810506 -.70233413 .20930835 148.61462 34.362207)" gradientUnits="userSpaceOnUse" r="24.101799" spreadMethod="reflect" xlink:href="#a"/><linearGradient id="d" gradientTransform="matrix(391.593 0 0 -391.593 60.7962 7618.49)" gradientUnits="userSpaceOnUse" spreadMethod="reflect" x1="51.882694" x2="74.191711" y1="33.13414" y2="22.906776"><stop offset="0" stop-color="#9f571d"/><stop offset=".511236" stop-color="#fde791"/><stop offset="1" stop-color="#b7671e"/></linearGradient><filter id="e" color-interpolation-filters="sRGB" height="1.059648" width="1.070772" x="-.035386" y="-.029823"><feGaussianBlur stdDeviation=".48712075"/></filter><g><path d="m73.795469 127.71497c3.699869-.20362 7.378711-.71248 11.049272-1.21989 5.525261-.76379 16.506769-2.74474 16.506769-2.74474l-10.136524-41.373103c.349934-.03659 7.699553-1.550853 11.517374-2.467021 1.39194-.334025 2.87056-.462152 4.15-1.1041 3.65091-1.831813 6.84228-4.074105 9.60458-7.610133l-29.686156-34.772856-2.958611 1.392389-18.009753 8.475488-20.288849-9.606255-29.738836 34.834311c2.788198 3.030372 6.371593 5.011966 9.94162 6.882932 1.264356.662619 2.641069 1.097039 4.008063 1.508105 3.626214 1.090425 7.091365 1.982629 11.075199 2.527015l-9.952669 41.313228s10.980302 1.98098 16.50497 2.74474c3.670561.50744 7.349403 1.01627 11.049272 1.21989 5.113692.28143 10.250587.28143 15.364279 0z" stroke-width=".999997"/><path d="m52.870994 51.939284-16.538349 67.529406 22.098545 3.96464 15.364279.00047 22.098545-3.96463-16.590671-67.723265s-3.989741.462991-5.815942 1.2325c-2.821173 1.188763-7.637855 5.100262-7.637855 5.100262s-4.622193-3.871321-7.360614-5.02125c-1.760457-.739258-5.617938-1.118133-5.617938-1.118133z" fill="#17141f" stroke-width="9.52503"/><path d="m85.666073 41.689218c-3.962529 1.860685-8.308524 3.634012-12.232584 5.574528l-7.606301 3.761445-7.392168-3.682432c-3.847844-1.916814-7.877303-3.546305-11.762634-5.385949l-24.945951 29.219573s2.77189 2.575517 4.459853 3.359761c4.869785 2.262551 15.705843 3.582159 15.705843 3.582159l6.883643-28.118999 4.09522 1.93998-16.538349 67.529406s7.313354 2.07757 11.049273 2.74474c3.647763.65143 11.049272 1.2199 11.049272 1.2199l3.709183-67.109112 3.709173 1.754449 4.222006-1.991832 3.723917 67.346965s7.401509-.56846 11.049272-1.21989c3.735919-.66717 11.049273-2.74474 11.049273-2.74474l-16.590671-67.723265 4.103069-1.932606 6.95024 28.364706s11.878488-1.211674 17.051418-3.902079c1.36797-.711473 3.43397-3.099305 3.43397-3.099305z" fill="url(#b)" stroke-width="9.52503"/><path d="m35.398265 36.435418 23.036755 10.907341 7.392168 3.682432 7.606301-3.761445 22.985835-10.817793-10.414384-14.915508s-5.748392-11.042691-10.414384-14.915509c-2.720216-2.2578018-6.129961-4.3786141-9.665081-4.3659212-3.57925.0128557-7.006787 2.1959368-9.753748 4.4905866-4.635552 3.8722626-10.386731 14.8479076-10.386731 14.8479076z" stroke-width=".999997"/><path d="m60.267226 43.472924-8.384533-7.589135c5.87488-12.231432 6.614339-18.26785 14.330695-18.181777 7.584886.08461 8.240361 6.17084 13.684362 18.181777l-8.287487 7.506836-5.714868 5.17655z" fill="#17141f" stroke-width="9.52503"/><path d="m59.308178 9.600588-17.504769 25.131012 18.463817 8.741324-8.384533-7.589135c5.87488-12.231432 6.614339-18.26785 14.330695-18.181777 7.584886.08461 8.240361 6.17084 13.684362 18.181777l-8.287487 7.506836 18.396743-8.659263-17.549251-25.1907145c-2.305806-2.2434877-4.062353-2.9994081-6.428508-3.0105833-2.46305-.011633-4.302988 1.033022-6.721069 3.0705238z" fill="url(#c)" stroke-width="9.52503"/><path d="m90.356652 78.178005s11.878488-1.211674 17.051418-3.902079c1.36797-.711473 3.43397-3.099305 3.43397-3.099305m-89.115605-.000238s2.77189 2.575517 4.459853 3.359761c4.869785 2.262551 15.705843 3.582159 15.705843 3.582159m18.375095-34.645379-8.384533-7.589135c5.87488-12.231432 6.614339-18.26785 14.330695-18.181777 7.584886.08461 8.240361 6.17084 13.684362 18.181777l-8.287487 7.506836-5.714868 5.17655zm-23.934581 75.995766s7.313354 2.07757 11.049273 2.74474c3.647763.65143 11.049272 1.2199 11.049272 1.2199l3.709183-67.109112 3.709173 1.754449 4.222006-1.991832 3.723917 67.346965s7.40151-.56846 11.049273-1.21989c3.735919-.66717 11.049273-2.74474 11.049273-2.74474" style="fill:none;stroke-width:3.96875;stroke-linecap:round;stroke-linejoin:round;stroke:url(#d);filter:url(#e)"/><path d="m65.925693 2.2489584c-3.579242.0128557-7.006971 2.1960369-9.753926 4.4906821-4.635544 3.8722545-10.386964 14.8476725-10.386964 14.8476725l-10.386446 14.84819 7.376294 3.492293-26.969931 31.591355c2.788194 3.030366 6.371492 5.011822 9.941513 6.882784 1.264352.662617 2.641032 1.096852 4.008024 1.507918 3.626206 1.090423 7.091467 1.98311 11.075293 2.527494l-9.952364 41.313243s10.980278 1.98079 16.504936 2.74453c3.670553.50744 7.349077 1.01647 11.048938 1.22009 5.113682.28141 10.250757.28141 15.364437 0 3.699863-.20362 7.378902-.71268 11.049455-1.22009 5.525251-.76377 16.506488-2.74453 16.506488-2.74453l-10.136334-41.373187c.349934-.03659 7.699317-1.550867 11.517124-2.467033 1.39194-.334025 2.8707-.462378 4.15014-1.104326 3.65089-1.831809 6.84228-4.073851 9.60458-7.609871l-26.915154-31.527792 6.847644-3.222543-10.414352-14.915369s-5.748369-11.042559-10.414351-14.9153687c-2.720212-2.2577974-6.12993-4.3788348-9.665044-4.3661419zm.103353 4.2808757c2.366153.0111752 4.122745.7671836 6.428549 3.0106691l17.549316 25.1907108-18.39681 8.65942 8.287867-7.507035c-5.443996-12.010925-6.099558-18.097227-13.684437-18.181837-7.716348-.086073-8.456034 5.950417-14.330908 18.181837l8.384501 7.589201-18.463473-8.741069 17.504358-25.1312832c2.418079-2.0374997 4.25799-3.0822466 6.721037-3.0706137zm19.637045 35.1596119 25.175729 29.48709s-2.06593 2.38808-3.4339 3.099552c-5.17293 2.690403-17.051159 3.902088-17.051159 3.902088l-6.95048-28.364678-4.103109 1.932182 16.590719 67.72352s-7.313023 2.07736-11.048939 2.74453c-3.647759.65143-11.049455 1.22008-11.049455 1.22008l-3.723803-67.346793-4.221965 1.99161-3.709334-1.754415-3.709335 67.109088s-7.401179-.56866-11.048938-1.22008c-3.735915-.66717-11.049455-2.74454-11.049455-2.74454l16.538526-67.529213-4.095358-1.939934-6.883817 28.118698s-10.835722-1.319662-15.705502-3.58221c-1.687961-.784243-4.460193-3.359485-4.460193-3.359485l24.946282-29.219923c3.885327 1.839642 7.914749 3.469423 11.762589 5.386235l7.391797 3.682463 7.606255-3.761528c3.924056-1.940514 8.27032-3.713654 12.232845-5.574337z" stroke-width=".999997"/></g></svg>