<svg height="500" viewBox="0 0 132.29167 132.29167" width="500" xmlns="http://www.w3.org/2000/svg" xmlns:xlink="http://www.w3.org/1999/xlink"><linearGradient id="a"><stop offset="0" stop-color="#e0184a"/><stop offset=".25" stop-color="#e93083"/><stop offset=".5" stop-color="#e6194c"/><stop offset=".75" stop-color="#e82b80"/><stop offset=".875" stop-color="#e23661"/><stop offset="1" stop-color="#e61975"/></linearGradient><filter id="b" color-interpolation-filters="sRGB" height="1.106261" width="1.137819" x="-.068909" y="-.053131"><feGaussianBlur stdDeviation="11.068896"/></filter><radialGradient id="c" cx="805.63409" cy="40.54388" fy="40.543865" gradientTransform="matrix(.99138476 3.3960234 -1.4108854 .41187371 -73.281805 -2614.3692)" gradientUnits="userSpaceOnUse" r="88.677734" spreadMethod="reflect" xlink:href="#a"/><linearGradient id="d" gradientUnits="userSpaceOnUse" x1="156.74495" x2="177.65588" xlink:href="#a" y1="290.1936" y2="330.53644"/><filter id="e" color-interpolation-filters="sRGB" height="1.115086" width="1.228779" x="-.114389" y="-.057543"><feGaussianBlur stdDeviation="4.6533998"/></filter><g fill-rule="evenodd" stroke-width="1.29355"><path d="m141.59431 209.80045c-54.714705 0-103.677405 29.62287-137.949305 75.12109-34.2718 45.49823-54.8066 107.15012-54.8066 174.87891s20.5348 129.37872 54.8066 174.87695c34.2719 45.49823 83.2346 75.12305 137.949305 75.12305 54.7146 0 103.6773-29.62482 137.9492-75.12305 34.2718-45.49823 54.8066-107.14816 54.8066-174.87695s-20.5348-129.38068-54.8066-174.87891c-34.2719-45.49822-83.2346-75.12109-137.9492-75.12109z" filter="url(#b)" opacity=".5" transform="matrix(.188971 .07827435 -.07827435 .188971 75.379156 -28.542094)"/><g transform="matrix(.18897099 .07827435 -.07827435 .188971 -41.565951 -54.407282)"><g stroke-width="1.29355"><path d="m712.06542 92.99824c-54.71471 0-103.67741 29.62287-137.94931 75.12109-34.2718 45.49823-54.8066 107.15012-54.8066 174.87891s20.5348 129.37872 54.8066 174.87695c34.2719 45.49823 83.2346 75.12305 137.94931 75.12305 54.7146 0 103.6773-29.62482 137.9492-75.12305 34.2718-45.49823 54.8066-107.14816 54.8066-174.87695s-20.5348-129.38068-54.8066-174.87891c-34.2719-45.49822-83.2346-75.12109-137.9492-75.12109z" fill="#a91e40"/><path d="m721.06732 136.23554 32.13867 39.32813-32.13867 4.45312zm-101.47266 146.83206-6.1582 24.8809-4.4375-15.625zm184.94336 0 10.59571 9.2559-4.4375 15.625zm-191.10351 94.9688 6.16015 24.8808-10.59765-9.2539zm197.26172 0 4.4375 15.625-10.59571 9.2558zm-159.89649 76.0332 40.48242 35.3613-30.67773 4.248zm122.53125 0-9.80273 39.6093-30.67774-4.248z" fill="#fa9eb5"/><path d="m805.10443 146.69257a174.75568 232 0 0 1 38.48633 43.64258l-58.54493-13.82422zm-186.03516.0606 20.01758 29.75781-58.53516 13.82227a174.75568 232 0 0 1 38.51758-43.58008zm41.53516 45.55273 30.67773 4.24805-40.48242 35.36133zm102.92383 0 9.80468 39.60938-40.48242-35.36133zm-121.99024 2.11914-14.39453 58.1543-23.58203 20.59766-18.57227-65.39844zm-97.07423 82.94726 37.30275 14.8438-43.78126 38.2422a174.75568 232 0 0 1 6.47851-53.086zm335.19337 0a174.75568 232 0 0 1 6.91211 53.4492l-44.20312-38.6094zm-285.65039 28.0469 10.66992 37.5742-10.66992 37.5762-43.01563-37.5742zm236.11719 0 43.01758 37.5742-43.01758 37.5762-10.66992-37.5742zm-244.99023 106.3847-17.41797 61.3379a174.75568 232 0 0 1 -18.35744-47.1035l.5293-.2109zm18.42578 1.0039 23.58203 20.5997 14.39648 58.1543-56.55078-13.3536zm217.01172 0 18.57226 65.3985-56.54883 13.3535 14.39453-58.1543zm-99.50586 93.1602 32.14062 4.4531-32.14062 39.3301zm-66.55079 12.8184 44.95118 55.0058a174.75568 232 0 0 1 -65.81641-23.9883zm115.10157 0 20.86523 31.0175a174.75568 232 0 0 1 -65.81641 23.9883z" fill="url(#d)"/><path d="m699.46576 112.19453-44.94922 55.0039-20.86524-31.01562a174.75568 232 0 0 1 65.81446-23.98828zm83.1289 82.23051 56.54883 13.35352-18.57226 65.39844-23.58204-20.59766zm73.91992 18.07032a174.75568 232 0 0 1 18.62696 47.30664l-.89844.35742-35.24609 14.02538zm-288.79687.34765 17.41797 61.34179-35.24611-14.02538-.53125-.21094a174.75568 232 0 0 1 18.35939-47.10547zm12.83203 282.80859 58.53516 13.8223-20.01758 29.7578a174.75568 232 0 0 1 -38.51758-43.5801zm122.51563 10.3164v43.7832l-32.14063-39.3301z" fill="#ce1d6d"/><path d="m724.20208 111.62812a174.75568 232 0 0 1 66.48243 24.25195l-.0879.13086-20.98047 31.1875zm-21.13671 24.60742v43.78125l-32.13868-4.45312zm-165.08009 219.29886 43.78126 38.2442-37.30275 14.8418a174.75568 232 0 0 1 -6.47851-53.086zm348.16017 0a174.75568 232 0 0 1 -6.47657 53.084l-37.30273-14.8438zm-47.14844 56.2695 35.24609 14.0254.53125.211a174.75568 232 0 0 1 -18.35937 47.1054zm4.58593 83.8477a174.75568 232 0 0 1 -38.51953 43.5801l-20.01758-29.7578z" fill="#b8143d"/><path d="m712.06732 202.29809 68.8125 60.10938 18.39258 74.31053-.28907.082 1.75977 6.1992-1.75977 6.1973.28907.082-18.39258 74.3125-68.8125 60.1074-68.81445-60.1074-18.39258-74.3125.28906-.082-1.76172-6.2031 1.75977-6.1934-.28711-.082 18.39258-74.31053z" fill="url(#c)"/></g><path d="m712.06732 226.19843-51.46289 46.03711-18.50391 70.75976 18.50391 70.76953 7.28711 6.51758a69.389648 116.80077 0 0 1 -7.97461-53.88672 69.389648 116.80077 0 0 1 69.39062-116.80078 69.389648 116.80077 0 0 1 10.42578 1.35352z" fill="#fa9eb5" filter="url(#e)" stroke-width="46.5677"/></g></g></svg>