<svg height="500" viewBox="0 0 132.29167 132.29167" width="500" xmlns="http://www.w3.org/2000/svg" xmlns:xlink="http://www.w3.org/1999/xlink"><filter id="a" color-interpolation-filters="sRGB" height="1.106261" width="1.137819" x="-.068909" y="-.053131"><feGaussianBlur stdDeviation="11.068896"/></filter><filter id="b" color-interpolation-filters="sRGB" height="1.137535" width="1.16495" x="-.082475" y="-.068767"><feGaussianBlur stdDeviation="4.6533999"/></filter><g fill-rule="evenodd" stroke-width="1.29355"><path d="m141.59431 209.80045c-54.714705 0-103.677405 29.62287-137.949305 75.12109-34.2718 45.49823-54.8066 107.15012-54.8066 174.87891s20.5348 129.37872 54.8066 174.87695c34.2719 45.49823 83.2346 75.12305 137.949305 75.12305 54.7146 0 103.6773-29.62482 137.9492-75.12305 34.2718-45.49823 54.8066-107.14816 54.8066-174.87695s-20.5348-129.38068-54.8066-174.87891c-34.2719-45.49822-83.2346-75.12109-137.9492-75.12109z" filter="url(#a)" opacity=".5" transform="matrix(.188971 .07827435 -.07827435 .188971 75.379156 -28.542094)"/><g transform="matrix(.20454073 0 0 .20454074 -79.500589 -4.01122)"><g stroke-width="1.29355"><path d="m807.73627 112.02838c-50.5498-20.938417-107.12161-12.307668-156.19614 16.61192-49.07443 28.91963-91.63927 78.02022-117.55795 140.59347-25.91869 62.57324-30.53942 127.38867-16.28782 182.53881 14.25169 55.15017 48.1504 101.25715 98.7002 122.19556 50.5497 20.93837 107.12226 12.30582 156.19679-16.61377 49.07443-28.91964 91.63852-78.01842 117.5572-140.59166 25.91869-62.57324 30.54017-127.39049 16.28857-182.54062-14.25169-55.15017-48.15115-101.25534-98.70085-122.19371z" fill="#772"/><path d="m799.50675 155.41931 14.64203 48.63339-31.39639-8.18479zm-149.93871 96.82323-15.21095 20.63031 1.87972-16.13377zm170.86538 70.77476 6.24708 12.60614-10.07914 12.73746zm-212.89961 14.60758-3.83023 25.34425-6.24964-12.60503zm182.24607 75.48879-1.87971 16.13378-13.3312 4.49644zm-176.82174 9.05578 23.86869 48.16154-29.96816-7.81522zm113.20411 46.89068-24.21436 32.84288-26.7169-15.6645z" fill="#efef8f"/><path d="m873.14518 197.23996a174.75568 232 22.5 0 1 18.85544 55.04856l-48.79816-35.17609zm-171.89727-71.13659 7.10602 35.15303-59.36899-9.63033a174.75568 232 22.5 0 1 52.26297-25.5227zm20.94121 57.98005 26.71687 15.66455-50.93307 17.17766zm95.08922 39.38725-6.09951 40.34638-23.86868-48.16156zm-113.51524-44.72582-35.5535 48.21902-29.66934 10.00531 7.86836-67.52758zm-121.42744 39.48458 28.78277 27.98903-55.08326 18.57682a174.75568 232 22.5 0 1 26.30049-46.56585zm309.67829 128.27295a174.75568 232 22.5 0 1 -14.06816 52.02577l-26.06318-52.58624zm-274.63963-83.40172-4.5213 38.79724-24.23751 30.63268-25.36224-51.1754zm218.14384 90.35814 25.36404 51.17615-54.12285 18.25377 4.5213-38.79724zm-267.05312 4.53295-39.5651 50.00326a174.75568 232 22.5 0 1 1.06566-50.54305l.56972.008zm16.63902 7.97872 13.9038 28.05609-8.95408 59.23686-47.1359-33.97816zm200.49269 83.04679-7.86839 67.52763-57.35447-9.30327 35.5535-48.21902zm-127.58229 47.98956 27.98993 16.41381-44.74504 24.03659zm-66.3903-13.62523 20.47966 68.0208a174.75568 232 22.5 0 1 -51.62651-47.34915zm106.33998 44.04746 7.40708 36.64121a174.75568 232 22.5 0 1 -69.98636-3.02455z" fill="#dfdf20"/><path d="m788.7496 124.94175-62.57674 33.61566-7.40781-36.63948a174.75568 232 22.5 0 1 69.98455 3.02382zm45.33284 107.78314 47.13414 33.97735-42.18544 53.31298-13.90458-28.05421zm61.37789 44.98273a174.75568 232 22.5 0 1 -.8944 50.83387l-.96683-.0136-37.93042-.53033zm-266.94656-110.19659-7.38238 63.33799-27.19588-26.44586-.41009-.39819a174.75568 232 22.5 0 1 34.98835-36.49394zm-96.37091 266.19167 48.78987 35.17058-29.88165 19.83222a174.75568 232 22.5 0 1 -18.90822-55.0028zm109.24177 56.41581-16.75511 40.45041-14.64309-48.63596z" fill="#c0c01b"/><path d="m811.81974 133.88464a174.75568 232 22.5 0 1 52.14094 47.8476l-.13129.0873-31.31837 20.78461zm-28.94463 14.64562-16.75436 40.4486-27.98813-16.41308zm-236.43615 139.43232 25.81319 52.08739-40.14296-.56311a174.75568 232 22.5 0 1 14.32977-51.52428zm321.65805 133.23512a174.75568 232 22.5 0 1 -26.29794 46.56475l-28.78275-27.98902zm-65.09288 33.94332 27.19585 26.44587.41007.39824a174.75568 232 22.5 0 1 -34.98831 36.49389zm-27.85028 79.22013a174.75568 232 22.5 0 1 -52.26479 25.52198l-7.10601-35.15302z" fill="#95952d"/><path d="m765.91079 213.009 40.57159 81.86723-11.44488 75.69251-.29844-.0349-.74652 6.40075-3.99742 5.05212.23569.18638-45.43069 61.61726-86.57657 29.19859-40.57415-81.86614 11.44563-75.69434.29844.0349.7462-6.40509 3.99593-5.04852-.23387-.18563 45.42993-61.61545z" fill="#e8e817"/></g><path d="m756.76452 235.09003-65.16315 22.83875-44.17397 58.29235-9.98694 72.46366 4.23824 8.81012a69.389648 116.80077 22.5 0 1 13.25398-52.83659 69.389648 116.80077 22.5 0 1 108.80629-81.35521 69.389648 116.80077 22.5 0 1 9.1142 5.24026z" fill="#f5f5bc" filter="url(#b)" stroke-width="46.5677"/></g></g></svg>