<svg height="500" viewBox="0 0 132.29167 132.29167" width="500" xmlns="http://www.w3.org/2000/svg" xmlns:xlink="http://www.w3.org/1999/xlink"><linearGradient id="a"><stop offset="0" stop-color="#d3b879"/><stop offset=".25" stop-color="#ebd6ad"/><stop offset=".5" stop-color="#ebd6ad"/><stop offset=".75" stop-color="#ebd6ad"/><stop offset="1" stop-color="#d3b879"/></linearGradient><linearGradient id="b" gradientUnits="userSpaceOnUse" x1="116.132103" x2="22.66864" xlink:href="#a" y1="0" y2="132.292314"/><linearGradient id="c" gradientUnits="userSpaceOnUse" spreadMethod="repeat" x1="-17.85017" x2="5.02706" xlink:href="#d" y1="110.489736" y2="126.856413"/><linearGradient id="d"><stop offset="0" stop-color="#2e2442"/><stop offset=".125" stop-color="#342a4b"/><stop offset=".25" stop-color="#322848"/><stop offset=".375" stop-color="#322947" stop-opacity=".95"/><stop offset=".5" stop-color="#322a46" stop-opacity=".98"/><stop offset=".75" stop-color="#2e2442" stop-opacity=".97"/><stop offset=".90573049" stop-color="#34284e"/><stop offset="1" stop-color="#2e2442"/></linearGradient><filter id="e" color-interpolation-filters="sRGB" height="1.006074" width="1.005927" x="-.002964" y="-.003037"><feGaussianBlur stdDeviation=".35225928"/></filter><filter id="f" color-interpolation-filters="sRGB" height="1.008763" width="1.008521" x="-.00426" y="-.004381"><feGaussianBlur stdDeviation=".12334782"/></filter><linearGradient id="g" gradientUnits="userSpaceOnUse" spreadMethod="repeat" x1="146.2298" x2="236.62149" xlink:href="#d" y1="133.800104" y2="235.090124"/><filter id="h" color-interpolation-filters="sRGB" height="1.010473" width="1.011113" x="-.005556" y="-.005237"><feGaussianBlur stdDeviation=".8355581"/></filter><filter id="i" color-interpolation-filters="sRGB" height="1.001358" width="1.001469" x="-.000734" y="-.000679"><feGaussianBlur stdDeviation=".10828833"/></filter><filter id="j" color-interpolation-filters="sRGB" height="1.035978" width="1.03917" x="-.019585" y="-.017989"><feGaussianBlur stdDeviation=".8355581"/></filter><filter id="k" color-interpolation-filters="sRGB" height="1.00466" width="1.005078" x="-.002539" y="-.00233"><feGaussianBlur stdDeviation=".10828833"/></filter><path d="m250.4707 499.98252c51.835.039 104.53834.44093 157.50391-5.34765 23.52703-2.57129 63.66601-11.94336 63.66601-11.94336l20.95704-4.78907-8.40625-19.79687c-3.62583-17.49004-4.76016-37.13347-3.75586-52.85156 2.74125-40.11079 16.93348-78.89745 19.56445-119.01563.82783-12.6231.69137-24.46921.34447-42.18006-.34689-17.71086-3.70393-41.24364-10.31713-63.95285-2.60935-14.83079-5.05012-29.7543-6.34961-45.51563-2.71116-32.88338-4.95912-70.15255 6.76172-98.751949l9.07227-22.13086c-31.31324-3.171506-61.13792-7.4347299-87.3418-9.5429685l-13.60547 11.3652345-1.34961-12.5097658-15.11718-.9667968c-21.86813-1.39044747-38.84642-1.91868801-56.31446-2.02539065-5.82268-.03556755-16.5078-.02734375-22.63867-.02734375l-72.83689.32721653c-19.69041.32721654-47.16904 3.59837407-76.59084 5.94817407l-4.60938 8.8105474-.25781.496093-1.24609-7.4980466-16.01758.8046875c-16.98083.8557334-36.820718 3.3800201-54.957034 13.3808591-16.734322 9.227747-31.341428 23.054127-40.964844 40.189453-16.465591 29.318407-21.106486 61.290856-25.148437 87.197266-3.2490518 20.82441-5.7994558 41.62795-7.5839844 62.33594-1.94377399 12.57614-2.92389106 25.28234-2.93299587 38.00781l.00135527 27.97852c.01436867 46.72872-.62894005 93.96404 2.7929688 141.26953.9407191 13.00478 4.1699656 29.03511 14.3300782 43.82422 4.451018 6.4789 9.806394 11.40397 15.326172 15.69335 5.505744 4.27854 8.50915 8.11081 19.365234 9.82422 9.832331 1.66322 30.066099 3.74157 58.570317 5.875l12.77148.95899 10.22852-23.69336 15.71484 25.27344 9.36523.50195c25.46458 1.34785 54.43325 2.49136 81.95508 2.47266z" fill="#857347" stroke-width="3.77953" transform="scale(.26458334)"/><path d="m43.667127 6.1988049-6.649318 12.7232891-1.962733-11.8144838c-4.151997.209236-8.734935.8884646-12.483913 2.9557488-3.6649 2.020923-6.931432 5.134922-8.987607 8.796119-3.5936294 6.398768-4.9680452 14.21181-6.1007497 21.471745-1.7239508 11.049459-2.2092041 22.267477-2.7292176 33.438734-.5652131 12.142264-1.0750022 24.437952.6932615 36.463853.4873297 3.31431 1.1113893 6.8345 3.0041972 9.58967 1.4496055 2.11005 4.6865666 4.54405 6.0084106 4.7506 2.08291.35408 7.610648.94421 15.101134 1.50483l4.966963-11.50761 7.650707 12.30431c6.689358.35408 14.283448.65398 21.429996.64914 14.613556-.01 29.290534.20101 43.819142-1.38681 5.49586-.60065 16.3028-3.06871 16.3028-3.06871s-.84033-3.54005-1.04149-5.34358c-.4-3.58629-.56178-7.22034-.32107-10.82083.70788-10.588463 4.87617-20.80543 5.17179-31.413411.37415-13.42584-4.11707-26.631272-4.32122-40.060773-.14104-9.278493-1.4412-19.010796 2.14288-27.7560998-5.56781-.6078373-8.70335-1.1802678-14.75182-1.6700785l-8.93248 7.4651953-.88126-8.1733574c-7.610636-.4839091-12.854008-.5661144-19.284287-.5223869-5.84986.0397806-11.26574-.2361191-17.111594-.014796-6.768804.2562659-14.283499.9292252-20.732522 1.4396922z" fill="url(#b)" stroke-width="4.7625"/><g><path d="m99.286834 11.328798c-3.49716-.03324-4.50063 5.798843-7.763644 7.057404-1.698788.655231-3.800546-.752549-5.462307-.0084-2.373552 1.062895-4.48773 3.323405-5.186628 5.828407-1.15675 4.146046 1.550243 8.468099 2.350403 12.697462.83472 4.412035 4.892713 9.391509 2.556359 13.226123-2.337255 3.836092-8.731619 5.389885-12.93083 3.794584-5.153201-1.957726-5.693842-9.446469-8.773767-14.018365-2.705545-4.016159-3.967965-10.108477-8.516834-11.76899-1.033253-.377177-2.306027.159981-3.201812.798295-1.29478.922628-1.156584 3.334453-2.60152 3.997669-10.76 4.938772-31.06797-15.813274-35.202948-4.719536-2.24927 6.034569 15.400756 4.197197 16.15773 10.592682.987984 8.347228-20.278395 10.514551-17.278426 18.366463 1.117886 2.925877 6.789572-.980111 9.361746.807161 1.560073 1.084015 1.89518 3.330618 2.43925 5.150756.903299 3.021904.84185 6.251835 1.307662 9.371269.325322 2.178607-1.125033 6.112685 1.038574 6.526165 2.469445.471928 1.347679-6.744853 3.848521-6.48666 4.381516.452358.252638 10.715319 4.27855 12.502591 1.799088.798691 3.459675-2.410215 5.426418-2.329296 1.907056.07846 3.153983 2.810368 5.058412 2.683213 2.921094-.195035 4.221259-5.298886 7.142794-5.110573 6.533646.421138 13.045526 6.974414 14.3745 13.38532.511099 2.465519-2.000986 4.62137-3.026315 6.921088-.762562 1.71036-1.91665 3.2868-2.324509 5.11449-.414587 1.85785-.535181 3.86396-.07155 5.71018.553818 2.20535 2.620266 3.8008 3.297915 5.9713.527349 1.68909-1.095766 4.59084.533321 5.28164 2.41044 1.02212 3.627501-4.22495 6.166122-4.86555 2.956718-.7461 5.961167 1.58746 9.01056 1.58094 4.24816-.009 8.298618-2.08212 12.543223-2.25612 3.626131-.14865 9.368636 4.36254 10.837376 1.04385 2.44734-5.52992-10.998325-6.65969-13.430349-12.19637-1.821887-4.14766-1.72895-9.436094.07807-13.59025 3.43671-7.900647 14.425939-10.311856 18.807239-17.730439 2.34339-3.967917 3.26125-8.783361 3.44808-13.38781.19384-4.777096-3.30878-9.432492-2.44026-14.13397.45627-2.469884 3.78393-3.966294 3.85017-6.477094.0826-3.130377-4.00219-5.207232-4.36778-8.317284-.65201-5.54666 7.38821-11.694271 4.13757-16.235625-2.21141-3.089485-7.89019.644558-11.36278-.896988-1.72156-.764233-2.22482-3.86183-4.108306-3.879732zm1.441566 6.483413c2.79784.242555 3.77338 4.207971 6.0166 5.897564 1.28091.964779 4.43729.788696 4.18517 2.372349-.79969 5.02316-9.92325 2.288722-14.955284 3.030558-4.276497.630453-11.343551 5.229754-12.912352 1.201757-.873472-2.242696 3.7905-2.969403 5.748038-4.369648 1.345665-.962566 2.751056-1.838835 4.119221-2.769143 2.60897-1.774017 4.655423-5.635931 7.798607-5.363437zm-72.880581 14.149987c4.15639-7.429067 15.84068 8.853757 24.296099 7.8676 2.371575-.276597 3.812801-4.315713 6.123834-3.715712 7.759631 2.014591 7.074651 14.497478 11.895706 20.902779 1.803818 2.39657 4.203961 4.279862 6.283789 6.441256 1.472767 1.530526 2.605096 3.465313 4.386721 4.621759 1.75712 1.14054 3.89202 1.589433 5.924733 2.095772 1.4166.352869 2.956929.155515 4.331618.646943 1.757465.628264 2.962772 2.584688 4.807065 2.871011 3.499486.543289 8.321476-5.33311 10.343586-2.425767 3.12561 4.493934-5.2535 9.768495-9.078229 13.684656-3.225732 3.302842-7.93219 4.831454-11.357414 7.926927-1.294066 1.169485-1.827133 3.239446-3.412426 3.966871-3.07941 1.413014-7.080688 1.403671-10.164368 0-5.845687-2.660919-8.616923-9.535516-12.654064-14.530918-3.0029-3.715672-3.81736-11.336925-8.592897-11.470603-3.811535-.106693-3.711556 9.866232-7.359715 8.757124-3.602932-1.095358 2.173203-9.607606-1.22482-11.230681-2.674222-1.27735-5.127153 6.605943-7.480708 4.80487-3.299264-2.524782 6.965992-9.239103 3.76093-11.882442-2.735832-2.256347-6.898473 7.648092-9.346343 5.082199-3.279239-3.437346 9.789377-8.086282 7.389864-12.186415-1.570175-2.683015-8.234757 3.22319-9.320934.310418-1.202871-3.225707 9.391819-3.338124 8.027124-6.498771-1.700967-3.939457-11.623275 5.866453-12.756497 1.727803-1.660679-6.064979 16.414444-1.130308 17.37625-7.344546.818033-5.28532-14.810218-5.754711-12.198904-10.422133zm71.361813.264502c2.183038 4.479198 13.452818 4.518497 11.774268 9.210121-1.50738 4.213208-11.352843-4.281941-13.420566-.313586-2.738723 5.256131 8.747366 8.676822 10.524996 14.330808 1.20856 3.84398 2.94781 9.690169-.29286 12.084922-1.88642 1.394003-4.45666-1.54422-6.77474-1.902423-1.130881-.17475-2.287016-.08822-3.431054-.112803-1.993312-.04284-4.09662.590857-5.98101-.06045-2.15157-.743653-3.482874-2.957448-5.41415-4.162623-1.730398-1.079821-4.985337-.740188-5.48202-2.71847-1.309971-5.217601 6.266774-8.745787 9.357076-13.149128 3.075403-4.38211 4.029865-14.802272 9.14006-13.206371.000001 0 0 .000002 0 .000003zm1.810098 10.490803 3.58659 7.308284zm-27.959086 57.685987c.881912 1.8048 2.751011 3.55415 4.754228 3.70309 2.111084.15696 3.43954-3.43771 5.532266-3.11863 4.033028.61492 6.279302 5.42075 8.386052 8.91432.621117 1.02998 1.790244 2.38218 1.170698 3.41311-1.25238 2.08397-4.884514 1.88065-7.203006 1.14854-1.861083-.58767-2.333428-3.51849-4.204009-4.07519-.98976-.29456-2.06015.2675-3.041457.5891-1.136418.37243-2.076985 1.26825-3.242781 1.53484-2.003879.45824-4.76724 1.55232-6.166643.0466-.971491-1.0453.05553-2.86985.345178-4.26718.258952-1.24923.708951-2.46016 1.233251-3.62323.672895-1.49271.853669-4.68548 2.436223-4.26538.000003 0-.000001.00001 0 .00001z" fill="url(#g)" filter="url(#j)" opacity=".25"/><use height="100%" stroke-width="3.14797" transform="matrix(.31766516 0 0 .31766516 49.791257 94.706813)" width="100%" xlink:href="#l"/><path d="m99.286834 11.328798c-1.313446 2.96048-1.995974 6.363637-4.633103 8.51982-2.594798-1.212146-5.189596-2.424293-7.784394-3.636439-1.017646 2.879389-2.467948 5.770662-2.05306 8.920437-1.575118.463485-5.068232-2.270988-5.322578-.207347-.756551 4.30936-.395839 9.426997 3.730959 11.978402 5.355772.886725 1.715839 7.2599 2.984628 11.030419-.05932 4.291466-4.131894 6.53626-7.913681 6.372418-4.183201.74241-8.753168-.847379-10.520021-4.976566-3.652321-6.596567-3.967977-15.50988-10.75669-20.000232-1.603887-1.310851-3.207775-2.621701-4.811662-3.932551-.0043 3.135124.54959 6.310283.14261 9.416528-8.925426-7.441374-21.154354-6.545168-32.084488-6.598236-1.904016-.000673-3.808032-.0013-5.712048-.002 5.646866 3.462697 11.302054 6.911963 16.948608 10.375004-8.571332 2.133331-12.765542 10.378983-17.137024 17.244971-2.225475 2.557562-.163412 1.745956 1.892637.939075 2.422418-.808936 4.835148-1.647965 7.263732-2.437749-1.415582 3.152864-.347486 6.591919-.250287 9.886626 3.947905-3.495165 1.809767 2.187338 2.727256 4.868066.527204 3.312835 1.054409 6.625669 1.581614 9.938503 1.28284-2.16222 2.565681-4.32444 3.848521-6.48666.236317 4.679947 2.34677 8.9456 3.723791 13.35403 1.47592-2.272689 2.982711-4.525767 4.439693-6.810485.949387 3.426886 3.262367 6.205836 5.007711 9.244255 2.167896-3.882627 4.104455-7.897901 6.426528-11.69062 3.829082 6.639892 9.123309 12.553982 15.892628 16.280652 2.647104 1.660739.626132 6.378662 2.372419 7.672261-1.130022 1.06289-4.30779-.17098-6.239177-.17798-.475649 3.6302-.951297 7.2604-1.426946 10.8906 1.636966.42193 4.493848-.27741 3.762479 2.32136.161273 3.08016.322547 6.16031.48382 9.24046 2.137571-1.68671 4.275143-3.37342 6.412714-5.06013-.416556 2.892 2.10147 1.6616 3.920077 1.41371 2.093313-.81145 3.315151-.20149 4.473003.30486 3.293227-.73402 6.586453-1.46805 9.87968-2.20207.902287-1.26316 5.294213.56389 7.658683.56435 2.370844.35389 4.741694.70779 7.112544 1.06168-3.48177-4.12725-6.963531-8.25449-10.445296-12.38174-2.852495-.44568-7.546048-.60965-7.483977-4.39735-.494105-1.89928-.896437-3.784192.543316-5.380755 1.095687-3.130775 3.404715-4.865538 6.536126-5.885797 6.725941-3.619351 12.452551-9.262321 15.651961-16.245277 1.13202.104372 1.0706-3.223292 1.98682-4.395003.85779-4.056106 2.4634-8.853843.606-13.086796-2.35873-3.463187-.89932-7.65835-1.83612-11.492612 1.42553-.494611 6.00636-.341114 4.62618-2.867786-.79764-3.798016-2.21545-7.951591-5.89303-9.850373 5.65726-3.09056 6.06701-10.051102 5.81544-15.787034.52182-2.610837-2.65017.2261-3.94518.294789-3.06244 1.221828-5.79611 3.66743-6.843-.862993-1.57683-1.951176-3.57777-3.522132-5.360416-5.280676zm1.441566 6.483413c3.04193 1.440684 1.85625 6.694558 2.09258 7.190356 3.36914.240391 10.80259-6.95133 8.36521.02608-1.07795 5.991982-6.88449 5.925382-11.224342 3.813763-5.859847-1.574123-9.233374 6.040534-13.849356 5.433949-3.538634-1.497556-4.730473-7.317703.40766-5.24958 6.130138 1.248893-1.115398-7.029653 3.279137-7.313625 1.798547.840237 3.597093 1.680473 5.39564 2.52071 2.505028-1.400103 4.41425-3.807978 5.533471-6.421653zm-72.880581 14.149987c8.492808.123171 18.54323.727979 24.296099 7.8676 2.928249 6.784108 3.601712-6.148316 4.738349-5.71507 5.470647 6.753332 4.66109 17.613599 12.688932 22.502043 2.991121 2.442034 8.893394-.325612 6.684664 5.062998.298716 2.668482.757717 8.502576 2.355724 8.924579 2.142611-3.009034 8.504834-8.75702 7.83839-1.508844.7817 2.647464 1.86841 7.675911 3.920304 2.664577 1.844381-2.442306 4.428468-5.729782 4.537375-.648461 1.116922 3.739663 3.153758 6.932985 4.801845 1.879328 1.797349-2.521212 4.222709-7.411959 5.975879-2.355348 3.58724 3.242209-3.11555 8.654843-5.47176 11.690482-3.633015 4.02257-9.311837 5.651072-13.358311 8.62142-1.068648 1.966264-2.137295 3.932527-3.205943 5.898791-3.806944 0-7.613889 0-11.420833 0 .343947-7.089912-7.4924-8.55699-11.24971-13.038064-3.899033-3.860299-6.502234-8.737904-9.324368-13.381529-3.706809 1.944188-5.476083 8.671948-7.607736 9.860033-2.529882-3.419527-.700927-10.770888-1.023275-12.222253-3.429211 1.204947-5.418874 9.662384-7.196935 8.239221-3.098548-5.248415 2.528977-12.591597 3.597094-15.119427-3.956684.273018-8.364097 5.720089-9.880288 6.284157-1.493373-5.889592 2.891482-10.814822 7.923782-13.101352-3.904764-1.311672-9.116372 3.442068-10.960957 2.823721-.132488-5.317477 10.249863-7.66377 9.793792-9.047658-4.494228-1.030496-11.734997 2.478731-13.97455 2.129727 3.568282-5.844639 10.783633-10.403842 17.721341-7.888538-1.725358-5.488845-7.844608-7.492121-12.198904-10.422133zm71.361813.264502c4.154218.495759 5.256568 3.617951 9.156758 4.23904 2.49905 1.704097 4.5776 7.920158-.21734 4.264838-3.63933-1.215735-11.191044-4.101296-10.782441 2.418255-.445538 5.739713 4.585551 11.200811 10.247451 11.592454 2.68668 3.551819 2.85798 11.302476.50675 13.358182-1.8017-2.855268-2.45796-8.11031-5.83063-3.554443-2.16224 1.191286-5.079603 7.446284-4.738772 1.676252.206352-3.773394.456611-6.821136-3.090816-3.129435-2.318848 1.293617-5.950508 6.6446-5.004685.966551 2.176125-5.891312-5.849859-1.834776-8.624225-.521923-2.481036-.796325-.587437-7.19429 3.248719-6.482945 5.62786-2.523446 6.566711-9.350061 5.720664-14.788444-.926757-5.063693 4.77329-9.685236 9.408567-10.038382zm-.353482 1.480986c-5.989861 3.680193 5.81929 3.749569 0 0zm2.16358 9.009817c5.01555-1.790866 8.67051 7.042016 5.37956 8.1488-3.28078-1.075357-6.2926-4.521703-5.37956-8.1488zm-27.959086 57.685987c1.889112.022 4.354237-.646462 3.979787 2.08896-.84564 2.28885 3.719393 2.18392 3.135732.61525-.976073-2.33201-.256716-3.253361 2.229996-2.70421 1.818967.0983 1.040146 3.33139 1.749236 4.76899.823013 4.12129 6.698686 3.72725 9.358703 5.57919 1.913637 2.02861 3.734228 4.0213-.61021 2.56371-2.55335.67722-9.060554-4.53641-7.067657.18738 1.010826 1.45623-3.613878 2.3699-3.429723.86688-.521842-2.28378-1.043685-4.56756-1.565527-6.85134-2.445506-.36639-3.36408.48858-2.386655 2.86014-.250041 1.41833 1.784176 4.46256-.153618 4.67958-2.423034 1.10831-3.10564-.22698-3.088073-2.54535.199102-3.10703-2.106775.23922-3.354636.85983-1.456011 1.18495-3.289346 3.20314-2.736147-.0489-.580343-2.18391 2.062873-3.12524 3.149876-4.66644.951877-1.72935-8.551385 1.86135-6.135347-2.9628.309437-2.87063 9.246671 1.32035 7.235998-3.55311-.103912-.57926-.207823-1.15853-.311735-1.73779z" fill="url(#g)" filter="url(#k)" opacity=".95"/></g><g display="none"><path d="m-60.667208 102.24515c-4.43932 0-7.09034 3.13098-.65172 3.13077 4.43942-.0002 7.090641-3.13098.65182-3.13077zm13.973541 1.78267c-4.4109 0-7.61262 1.01126-8.478711 2.80804-8.54127-.25557-15.62833 2.73035-13.79137 4.77616.23942.26652.0307.56942-.53671.59743-14.2053.69792-16.84312 7.09218-3.16604 9.07286.57882.0841.69434.50441.41863.77633-3.32185 3.27575 3.92459 5.67373 14.68588 5.67373 10.992531 0 16.942491-1.89226 15.047161-4.95812-.41833-.67655-.2058-1.15622.7156-1.25231 14.541841-1.51238 10.851661-9.71793-1.67094-10.50734-2.55165-.1605-1.94645-1.37264-1.01596-1.49194 10.439369-1.33696 4.08611-5.49484-2.20744-5.49484zm9.57123 20.7812c-3.64274.067-5.45465 2.49675.1468 2.88492 4.119549.28543 6.578771-2.45125.60377-2.86569-.25741-.0177-.50787-.0236-.75067-.019zm-35.202211 4.12118c-6.98943.0002-10.13738 5.04482 0 5.04441 6.98943-.0002 10.13738-5.04482 0-5.04441z" display="inline" fill="url(#c)"/><g id="l" display="inline" transform="translate(162.49041 -116.77479)"><path d="m-233.65799 75.060863c-.007-.000026-.013.002-.0195.002-9.80064-.03336-19.58638 4.045083-25.45313 7.138671-2.16431 1.141119-6.14429 3.468932-11.11328 5.861329-4.96899 2.392403-10.80902 4.743423-15.71094 5.691413-8.62123 1.66677-15.49799 6.523314-19.20898 12.669924-1.8555 3.0733-2.93803 6.56573-2.6543 10.17969.28373 3.61395 2.12392 7.22905 5.19922 9.75586 6.30637 5.18129 9.10824 10.64358 9.55859 15.74023.45036 5.09665-1.37531 10.163-5.82226 14.86328-7.20693 7.61766-7.35029 18.06404-2.7168 25.40625s13.66029 12.14313 23.82813 10.91992c8.00037-.96231 13.23766-.83978 17.14648.23438 3.90883 1.07415 6.87005 3.04191 10.75391 6.92383 6.99276 6.98803 17.36719 8.73991 26.74414 6.8457 9.37694-1.89422 18.38381-7.64565 22.07226-17.20117 2.61913-6.78398 5.45807-12.72705 12.52149-15.23828 6.74006-2.39537 11.48635-7.61325 13.18945-13.65625 1.70311-6.043.35698-12.89082-4.0957-18.21875h-.002c-2.08066-2.48946-2.80364-4.13888-2.74415-6.83008.0595-2.6912 1.27236-6.80182 4.58008-12.83203 3.51844-6.41456 4.19717-13.86964.70117-19.83399-3.49599-5.964344-10.90416-9.345074-20.15234-8.828124-4.81145.26889-7.52737-.94024-10.75781-3.41602-3.23044-2.47577-6.65187-6.459841-11.1875-10.882815v-.002c-4.07471-3.972954-9.52225-5.272276-14.65625-5.292969zm-.041 9.97461c.00074.000003.001-.000003.002 0 3.52993.01457 6.06496.835125 7.73242 2.460937 4.12443 4.021996 7.60321 8.224186 12.08398 11.658206 4.48077 3.434024 10.28554 5.857464 17.38086 5.460944 6.78397-.37921 9.65521 1.63449 10.99024 3.9121 1.33502 2.27762 1.39799 5.91233-.83985 9.99219-3.69975 6.74491-5.69339 12.19703-5.80859 17.4082-.1152 5.21118 2.01854 9.80291 5.06445 13.44727 2.45771 2.94082 2.97448 6.18619 2.14844 9.11719-.82605 2.931-3.00087 5.56731-6.92774 6.96289h-.002c-11.08168 3.93982-15.66631 13.74565-18.48437 21.04492-2.16889 5.61884-8.00311 9.65428-14.74219 11.01563-6.73908 1.36134-13.75566-.16264-17.71875-4.12305-4.55978-4.5575-9.31695-7.88006-15.16211-9.48633s-12.39545-1.55412-20.98047-.52148c-6.41729.77201-11.63562-2.27253-14.20117-6.33789s-2.86293-8.58805 1.52734-13.22852c6.05409-6.39898 9.23221-14.4419 8.51172-22.5957s-5.26477-16.08349-13.16015-22.57032c-1.1956-.98235-1.50533-1.75347-1.58985-2.83007-.0845-1.0766.24727-2.58135 1.25-4.24219 2.00546-3.32169 6.62039-6.88207 12.56445-8.03125 6.38785-1.23536 12.77289-3.913744 18.14454-6.500004 5.37164-2.58626 9.84817-5.18547 11.4375-6.02344 4.80536-2.533909 14.04387-6.016323 20.77929-5.990233z" fill="#6c131e"/><path d="m-233.67812 80.048213c-8.27141-.03281-17.78794 3.750204-23.12618 6.565106-3.75364 1.979084-16.91322 9.855197-28.20299 12.038547-14.56531 2.815964-22.98647 16.835434-14.44466 23.853774 14.20177 11.66813 14.6931 26.78536 4.19205 37.88463-11.59721 12.25815.30692 29.94184 16.89206 27.94662 16.58541-1.99496 23.57888.14366 32.02252 8.58308 10.95587 10.94846 34.78134 6.55029 40.63868-8.62409 2.7186-7.04163 6.43044-14.9151 15.503-18.14063 10.66694-3.79095 13.84697-15.70911 6.93658-23.97787-5.12657-6.13383-5.71765-12.4841 1.28984-25.25924 5.75628-10.49443 1.23217-22.179234-14.79999-21.283084-11.90678.665424-17.04579-7.2644-25.70586-15.709374-2.87126-2.799557-6.86277-3.860007-11.19532-3.877469z" fill="#c20a0a" stroke-width="9.97479"/><path d="m-239.05243 95.443479c-25.8613 0-46.97079 21.099831-46.97079 46.963031 0 25.86295 21.10837 46.97284 46.97079 46.97284 25.86241 0 46.97078-21.10989 46.97078-46.97284 0-25.86249-21.10938-46.963031-46.97078-46.963031z" fill="#6c131e"/><path d="m-239.05234 105.15056c-20.60893 0-37.25677 16.64706-37.25677 37.25678 0 20.60945 16.64811 37.26471 37.25703 37.26471 20.6084 0 37.26498-16.655 37.26498-37.26445 0-20.60893-16.65632-37.25677-37.26498-37.25677z" fill="#c20a0a" stroke-width="9.97479"/><path d="m-920.52927 467.43942c-5.58909 1.05502-11.30953 2.76071-17.28515 5.22266l-28.51367 11.74805 29.24414 9.78906c3.26725 1.09376 6.49695 2.28987 9.67187 3.57226-17.47003 7.74917-32.36177 21.94399-43.49414 36.00977-7.71534 9.74835-14.67535 20.61841-20.2793 32.24023l-.96093 1.9961-.15235 2.21094c-.23924 3.48725-.37304 7.02705-.37305 10.61718 0 84.08701 68.22681 152.3418 152.31446 152.3418 11.53886 0 22.78934-1.28657 33.60351-3.71484l33.65625-7.5586-69.56836-31.29297-.40625-.14648c-27.95187-10.12052-47.95099-42.21489-52.66992-69.47266-2.35948-13.6289-.62176-25.44943 3.11328-31.5664 3.18078-5.20917 6.95916-7.81127 15.54493-7.10352l-.82227 2.23633 1.55664 4.03906c8.89965 23.09855 23.90307 44.20088 40.60352 60.44922 16.70041 16.24834 34.73237 28.04065 52.91601 30.49024l.57422.0781.58008.0195c.69051.0242 1.35402.005 2.00976-.0312 11.15653.43709 24.2631-3.74406 34.34375-14.89258l13.80274-15.25976 10.80859-9.32422c13.69459-19.03892 20.01888-46.78418 3.10742-72.88477l-3.02343-4.66797-5.53907-.52734c-19.53819-1.85745-32.26973-12.07115-36.52929-25.64453-4.10347-13.07622-15.35431-20.64424-27.18555-25.91797l-8.89648-3.9668-3.37696-6.12304c-8.03346-14.56562-15.58306-26.76765-26.81445-35.12305-6.37742-4.74395-14.09769-8.05702-22.95898-9.55273l-11.68358-.89832c-4.11065.0533-8.34623.44535-12.74609 1.04883l-27.91797 3.82812 12.48242 9.26758c-5.47103-1.64944-11.1903-2.71763-17.20708-2.7247z" fill="#6c131e" filter="url(#e)" stroke-width=".999999" transform="matrix(.26458334 0 0 .26458334 -16.706824 -11.275074)"/><path d="m-245.15593 112.10707c-.91879.0114-1.92688.10189-3.00757.25011 3.62909 2.69424 6.72573 5.95642 8.89713 9.28367.2185 0 .436.002.65268.006 2.37806.0514 4.67142.38253 7.00525.94775-2.06596-3.74584-3.9406-6.6063-6.24613-8.32146-1.81876-1.35291-3.95721-2.12812-6.91327-2.16576-.12728-.002-.25673-.002-.38809 0zm-12.06541 3.02203c-.0961-.00026-.19213.001-.28888.003-1.84876.0408-3.86455.51597-6.1681 1.46503 7.39507 2.4756 14.08254 6.64319 17.62632 11.00243 2.419-.67526 3.87541-1.93744 4.79867-3.79306-4.5746-3.86812-8.22392-6.76283-11.83958-7.9778-1.33845-.44991-2.6897-.69851-4.12843-.6997zm-.0269 6.94842c-5.18893.88958-10.43468 5.31303-13.95883 9.76581-1.9101 2.41342-3.63409 5.10876-5.01055 7.96334-.059.85931-.0915 1.72633-.0915 2.60087 0 20.60945 16.64824 37.2644 37.25716 37.2644 2.827 0 5.57882-.31496 8.2243-.90899l-9.97871-4.48862c-17.59126-6.36927-22.7459-37.4463-6.17017-34.33795.76847-1.86443 1.3055-3.68921 1.45004-5.45807l2.45205.20051c-.22167 2.71055-1.16183 5.32933-2.3735 7.88995-.0964.26788-.19385.54264-.28784.7984 4.32306 11.22029 14.9756 21.15159 22.31078 22.13974.12045.004.25066.00018.38861-.0114 2.23984.13624 4.72027-.5561 6.87245-2.93626l1.0511-1.1622-1.37873-.74466c-.85652-.46267-1.88073-.93387-2.39107-1.43815-.2551-.25221-.36764-.45674-.40462-.68368-.0371-.22706-.0171-.55641.29352-1.12913l1.40456-2.58744-2.82773.81907c-.82981.24023-2.27806-.39906-3.05718-1.40973-.38964-.50546-.57999-1.04083-.57722-1.4273.003-.38673.0947-.67486.62476-1.05989l2.56057-1.85932-3.14399-.3576c-1.31289-.14966-2.15479-.87662-2.52336-1.6185-.36883-.74161-.30446-1.32719.18086-1.75183l1.60662-1.4056-2.02158-.68523c-.88417-.29959-1.35519-.99424-1.36322-1.3994-.004-.18073.0312-.35086.24236-.58911 1.43874-.3146 2.79841-.0595 3.69745.83871.81006.80901 1.09902 1.99118.91829 3.26853 1.12546-.29669 2.23582-.21235 3.17397.32866 1.22943.7091 1.92827 2.06541 2.06292 3.68092 2.00239-1.33369 4.23209-1.67482 5.95777-.67955 2.03595 1.17416 2.81185 3.88489 2.21227 6.81199 3.15811-4.39057 4.55249-9.96713.73898-15.85278-6.15063-.58472-10.75346-4.03769-12.28039-8.90333-.66158-2.10821-2.80147-3.77387-5.52835-4.98936l-.0103.0284c-3.91473-1.42464-7.31537-2.28395-10.87324-2.466l.0103.0207c-.30197-.0123-.60054-.0211-.89039-.0227-1.25538 3.01096-3.77268 5.25211-7.56026 6.06217l-.77721.16588-.47078-.64027c-1.87128-2.54444-5.42717-5.32437-9.741-7.64398zm20.56309 8.59017c3.67608-.01 5.9067 1.52945 5.54023 5.85132-4.71821.44623-6.83582-2.19635-8.30234-5.61206.98816-.15204 1.91374-.2365 2.76211-.23874zm6.37222 8.73539-.00053.00052c.48809.009.93996.1307 1.31827.37001-.19876.14506-.38114.29988-.54726.46612-.69053.68976-1.06472 1.59563-1.04748 2.46703.0241 1.22707.69376 2.2622 1.66915 2.96985-.41332 1.0666-.32296 2.29758.185 3.31969.50192 1.00936 1.38757 1.87859 2.54093 2.42156-.19021.44309-.31245.90363-.31574 1.36012-.008 1.10663.44474 2.11151 1.08882 2.94711.89405 1.15968 2.21964 2.09764 3.68918 2.35748-.024.28697-.0268.57036.0176.84336.13822.84823.59402 1.53476 1.10277 2.0376.44888.4436.94669.77558 1.42162 1.05213-.8352.63079-1.63437.92865-2.45101 1.02526-.85758-1.04476-1.27816-2.51202-1.23868-4.14031-1.5489.81308-3.18674.94205-4.4912.18965-1.93077-1.11361-2.55272-3.82196-1.73581-6.62492-1.49218.36462-2.9127.12108-3.84163-.80718-1.16823-1.16692-1.25556-3.11007-.40773-4.99557-.48387-.081-.91643-.28481-1.25367-.62166-1.15941-1.1581-.75991-3.4343.89194-5.08445 1.03239-1.03133 2.30977-1.57405 3.40548-1.55339z" fill="#c20a0a" filter="url(#f)" stroke-width="6.08542"/></g><path d="m382.60547 57.701172c-46.76988.545626-84.42289 34.435087-112.89156 68.255218-9.9307 17.57068-26.33529 28.48209-44.49075 36.2941-45.33647 23.86607-92.44923 47.21803-128.433793 84.5737-13.71125 10.00648-11.54221 25.81323-9.625695 40.55112 2.251862 18.2242-1.499794 36.90727-12.187841 52.01962-6.799093 21.07951 28.052469 18.83588 42.255699 21.86523 15.62779 11.93369 10.12785 59.69296 10.12785 59.69296s24.92577 18.24032 37.10153 19.59837c12.80688-6.64685 35.58066-7.65055 41.79422-16.96432-2.68123-21.35099-28.89141-31.98573-22.49438-53.36353-3.5953-13.42328 6.96392-25.41808 17.72204-12.52481 14.13743 16.47962 32.26708 28.47542 49.20026 41.8742 20.38799 17.73851 68.94266-9.85892 68.94266-9.85892s-13.74692-13.26216-19.24957-20.06281c-25.08774-16.37767-48.46565-36.0567-67.06452-59.49163 13.59131-6.24748 34.86639-7.92784 48.87045-18.79239 11.63592-6.37911 6.29456 22.76466 7.40954 32.12151.91511 14.08939-7.31386 33.7921 10.89364 39.18964 17.45575 12.72291 35.18795 29.79672 56.73956 14.74688 11.09741-5.49833 41.03731-5.84017 21.89379-21.51954-10.48305-11.24666-43.0436-34.54603-11.62558-40.38109 24.56528-4.34506 25.39258-33.83426 31.22222-53.09314-.41712-16.30257-2.77204-32.0267 13.88005-41.16581 10.06091-18.43226 12.91462-40.74096 14.57742-61.70148 1.29433-24.91126-.13754-49.94289.81758-74.805742-3.98488-19.82052-27.76151-27.009808-45.38482-27.057336zm.75976 17.621094c11.70966-6.968918 40.85191 20.440444 15.70295 15.316616-40.26794-5.733254-76.53545 24.995018-93.11592 59.381478-3.94626 15.99439-38.13971-7.16727-20.15557-15.20232 25.87945-27.71924 57.11251-58.672745 97.56854-59.495774zm26.43672 53.775214c.26581 28.58979.23558 58.98322-14.28936 84.58552-20.34742 19.17892-24.76853-19.27559-33.42383-30.568-13.22635-10.5617-9.59093-29.01562-13.26192-40.98144-23.14934-2.62603-11.98437 32.89404-3.40842 44.09597 9.01819 17.4117 2.64006 38.8526-12.80325 50.39734-10.43076 14.55799 3.87433 36.56397 1.65702 54.41731 4.04964 16.20157-4.86544 38.90987 1.66 50.72235 9.82668 2.71232 30.20345 17.86091 9.81402 21.09408-18.16502 2.56228-43.60016-12.897-38.95491-34.44916 2.8596-24.12173.68635-49.76141-11.90263-71.05207-22.71912 26.66981-59.24775 35.9573-93.02929 36.28124-1.50113 26.10228-29.96636 39.71491-34.97602 61.60767 1.41218 17.69927-12.09317 41.34229 9.58672 48.59254 16.95935 17.27653-18.43573 20.57704-25.49333 6.62754-13.53986-10.22455-5.05861-33.19052-8.6747-49.00842-.47345-28.21317-3.64643-56.20597-7.71343-84.08832-2.31156-20.57787.77406-45.18473 20.74734-56.39699 38.87986-21.90612 78.20415-43.17248 117.85349-63.73245 11.53563 4.91384 27.27735 22.33495 36.05437 19.04576 11.9139-29.73773 31.61932-62.8956 65.37964-70.04514 16.11608-4.0561 42.82837-.30337 35.17849 22.85467zm-51.12226 100.30096c25.95594 5.50746 27.07674 36.60638 17.28016 55.95395-4.91144 22.07968-39.37392 17.81539-25.06198-4.17561 14.15481-6.489 9.38316-30.6099-5.8292-34.05297-1.23746-7.79166 11.98519-9.59509 13.61102-17.72537zm-237.48633 18.37695c-4.61248 31.56936 5.54281 62.65824 6.29102 94.11523-14.94373 8.67739-42.143425-2.63616-24.30469-20.47592 9.83857-20.86468-9.017943-48.24473 8.65783-64.79592 3.04263-3.02785 6.27184-5.85884 9.35584-8.84339zm89.07617 64.79102c22.43916 25.84223 46.73012 50.63462 75.69336 69.19531-16.85404 11.34235-30.88667 1.14114-43.77838-10.89218-14.65852-11.6909-28.48785-24.38562-41.84857-37.5297 4.16005-6.47896 7.29833-13.55622 9.93359-20.77343z" display="inline" fill="url(#g)" filter="url(#i)" opacity=".95" transform="matrix(.26458334 0 0 .26458334 123.59458 2.259852)"/><path d="m382.60547 57.701172c-43.97362.136284-76.9506 42.918578-112.89156 68.255218-15.64275 11.02738-29.06331 24.96746-44.49075 36.2941-41.31917 30.33605-99.03674 42.58128-128.433793 84.5737-7.96733 11.38099-6.436845 27.02942-9.625695 40.55112-4.087895 17.33393-19.637514 35.84314-12.187841 52.01962 6.633897 14.40507 32.903669 9.05686 42.255699 21.86523 11.90114 16.29958-1.70416 43.34312 10.12785 59.69296 8.19984 11.3308 23.13257 18.89656 37.10153 19.59837 15.01637.75444 36.0343-3.07606 41.79422-16.96432 7.39507-17.83093-27.79782-34.80274-22.49438-53.36353 1.98738-6.95537 10.49562-12.84985 17.72204-12.52481 21.51404.96769 28.51239 35.89067 49.20026 41.8742 22.30064 6.44999 61.37573 12.08789 68.94266-9.85892 3.02095-8.76183-12.5693-13.63865-19.24957-20.06281-21.53928-20.71349-72.3928-30.08757-67.06452-59.49163 3.11197-17.17335 33.45871-26.98302 48.87045-18.79239 9.70316 5.15678 4.70251 21.47183 7.40954 32.12151 3.3402 13.14064 1.2259 29.68343 10.89364 39.18964 13.93388 13.70106 37.8611 19.79422 56.73956 14.74688 9.88577-2.64306 19.29424-11.62224 21.89379-21.51954 3.55831-13.54758-13.38081-26.48441-11.62558-40.38109 2.57275-20.3692 22.69329-34.41747 31.22222-53.09314 6.01562-13.17232 9.8976-27.24324 13.88005-41.16581 5.81195-20.31848 12.01674-40.72382 14.57742-61.70148 3.02152-24.753 13.01576-53.05614.81758-74.805742-8.61554-15.361688-27.77215-27.111922-45.38482-27.057336zm.75976 17.621094c7.26558.822173 16.45203 8.043139 15.70295 15.316616-3.77136 36.619248-56.33135 60.826458-93.11592 59.381478-8.40883-.33032-20.57041-6.79724-20.15557-15.20232 1.87781-38.046217 59.71758-63.77899 97.56854-59.495774zm26.43672 53.775214c11.49367 26.18302 12.75014 75.28388-14.28936 84.58552-14.2769 4.91128-25.25759-17.86906-33.42383-30.568-7.76595-12.07646.99633-42.67054-13.26192-40.98144-14.64013 1.73434-1.01656 29.54879-3.40842 44.09597-2.8121 17.1031-10.91477 33.16779-12.80325 50.39734-1.97725 18.03947 1.08405 36.27885 1.65702 54.41731.5341 16.90807-2.26391 34.26723 1.66 50.72235 1.79885 7.54359 16.02934 16.45603 9.81402 21.09408-13.89236 10.36689-30.54822-19.29009-38.95491-34.44916-11.64635-21.00088 8.97907-59.19336-11.90263-71.05207-28.94302-16.43672-67.85603 14.50577-93.02929 36.28124-17.85978 15.44913-31.1956 38.29768-34.97602 61.60767-2.64302 16.2968 18.36813 34.61191 9.58672 48.59254-4.67015 7.43521-18.10423 11.37032-25.49333 6.62754-13.96154-8.96137-6.46926-32.56559-8.6747-49.00842-3.7418-27.8973-11.37677-56.18061-7.71343-84.08832 2.607-19.86036 7.63318-41.25601 20.74734-56.39699 29.23949-33.75852 73.19324-63.5149 117.85349-63.73245 13.59174-.0662 22.65138 21.30402 36.05437 19.04576 31.49494-5.30656 33.67756-66.16322 65.37964-70.04514 13.8799-1.69959 29.55777 10.05046 35.17849 22.85467zm-51.12226 100.30096c19.21326 3.44972 30.12491 41.25489 17.28016 55.95395-5.57281 6.37732-19.0601 1.79967-25.06198-4.17561-8.16118-8.125-8.5963-22.87426-5.8292-34.05297 1.78996-7.2312 6.27882-19.04186 13.61102-17.72537zm-237.48633 18.37695c29.27515 11.46948 34.34172 79.91164 6.29102 94.11523-9.45088 4.78549-20.48452-10.59531-24.30469-20.47592-7.858084-20.32438-1.27274-45.39969 8.65783-64.79592 1.95566-3.81977 5.36025-10.40879 9.35584-8.84339zm89.07617 64.79102c33.55619-6.52612 91.84845 39.06855 75.69336 69.19531-7.1065 13.25253-30.49212-3.84895-43.77838-10.89218-16.555-8.77603-38.18384-19.15427-41.84857-37.5297-1.5012-7.5272 2.39931-19.30814 9.93359-20.77343z" display="inline" fill="url(#g)" filter="url(#h)" opacity=".25" transform="matrix(.26458334 0 0 .26458334 132.1849 -52.205823)"/><path d="m363.39104 22.682195c-1.45521 3.640667-4.65667 6.979709-7.03792 8.167688l-7.91104-3.69623c-1.45521 3.947584-.87313 6.447896.92604 8.720667-2.48708 1.288521-5.42396 1.367896-8.65187.600605-.39688 4.169833 2.88395 7.776104 6.93208 7.776104 1.5875-2.069042 4.02167-4.41325 7.19667-6.019271 3.88937-1.963208 9.12812-2.447396 14.18166.73025 6.37646-.41275 8.30792-7.268104 8.30792-11.686646-5.37104 2.140479-6.85271 4.024312-12.25021 4.691062 2.77813-2.704041.71438-7.027333-1.69333-9.284229zm-92.69413 17.996959c7.08819 4.339167 13.95413 7.328958 15.51517 13.255625-9.29482-2.989792-17.49425 2.037292-23.06902 10.847917 7.29456-2.460625 11.90889-4.153958 19.73527-3.413125-7.09348 3.095625-14.37482 6.641042-13.88534 12.461875 5.04032-2.910416 6.21771-4.683125 13.93825-4.656666-7.46389 4.471458-11.55964 7.434791-9.94304 17.594792 2.52677-4.259792 8.75242-8.360834 13.30325-9.101667-6.56166 7.9375-7.74435 12.85875-4.97416 20.875625 2.35479-3.598333 4.7625-9.816042 9.55145-12.488333-2.43416 5.291666-1.4552 13.123333.84667 16.827503 2.48708-4.603753 4.33917-9.472087 9.26042-13.282087 5.3975 8.757709 9.44562 17.806457 22.67479 25.029587 2.06375 2.2225 3.28083 4.86833 3.4925 8.5725h14.52563l4.6302-8.51959c13.7848-5.29166 21.53709-13.52021 25.5323-23.151038-2.19605-1.190625-3.54542-3.280834-4.47146-5.265209-3.51896 3.4925-5.50334 6.82625-7.85813 10.953751-2.30187-3.307292-4.10104-7.302501-4.52437-10.927292-3.09563 2.566458-4.94771 5.185833-7.24959 8.387292-1.7727-3.810001-3.22791-8.255001-3.28083-11.879792-5.02708 1.719791-6.45583 3.889375-9.78958 7.725833-1.66688-5.635625-3.36021-12.488334-1.74625-16.562917-20.08188 1.005417-17.72709-24.447501-26.035-31.236709.15875 3.825875-2.16959 10.625667-3.46605 11.128375-5.29166-12.313708-23.54791-13.173604-32.71308-13.17625zm90.76267.336021c-1.64042 0-3.12208.497416-4.60375 1.230312-2.98979 1.740959-5.45042 4.175125-7.19667 7.112-.47625 3.942292.15875 7.858126.0265 11.773959-.15875 5.423958-4.445 11.1125-9.23396 12.012084-.55562.07937-1.08479.185208-1.61396.264583-2.8575 2.116667-2.16958 5.185833-1.50812 7.911042 4.04812-2.69875 7.77875-3.280834 12.25021-4.021667-.55563 2.725208-.74084 5.741459-.3175 8.228542 3.36021-3.386667 6.35-5.3975 10.16-8.149167-.18521 3.545417-.3175 7.593542.47625 10.662709 2.96333-3.96875 5.52979-6.164792 9.28687-8.863542 1.16417 2.407708 2.64584 6.82625 4.18042 8.069792.68792-2.248959 1.16417-4.577292 1.53458-6.932084.50271-3.677708-1.03187-7.14375-2.75166-10.662708-3.41313-.105834-6.77334-2.010834-9.28688-4.709584-3.22792-3.413125-5.10646-8.757708-2.69875-13.890625l.60854-1.322917c2.88396.07937 6.0325.185208 8.49313.926042 3.30729.449791 6.45583 3.175 7.75229 2.69875-.84667-3.466042-3.30729-9.154584-9.15458-8.228542.29104-2.656417-4.5773-4.045479-6.40292-4.108979zm-.44979 1.883833c1.08479 0 1.95791.849313 1.95791 1.907646s-.87312 1.905-1.95791 1.905-1.98438-.846667-1.98438-1.905.89959-1.920875 1.98438-1.907646zm2.75166 11.459105c-.71437 2.778125.39688 5.423958 2.3548 7.514166 1.74625 1.852084 4.10104 2.936875 5.95312 3.201459-.0529-4.392084-.50271-7.117292-1.45521-8.440209-1.77271-2.010833-4.55083-2.143125-6.85271-2.275416zm-35.56 73.368957.87313 4.86834c-2.72521.635-5.60917.97895-9.49854.47625l-.58209 4.445c3.46605.47625 6.40292.3175 9.0223-.10584l-4.92125 4.89479.23812 4.55084 7.27604-5.74146.9525 5.82083 4.445-.76729-1.50812-9.18104 3.59833-.21167 2.24896 9.8425 4.39208-.97896-.97896-4.25979c4.7625 2.27542 9.63084 2.75167 13.70542 3.36021l-3.99521-4.73604c-5.37104-.82021-6.11187-1.03188-10.84791-4.57729l-1.45521-7.69938h-4.55084l.84667 4.57729-3.81.21167-.87312-4.78896z" fill="#813d9c" stroke="#613583" stroke-width="9.525"/></g></svg>