<svg height="500" viewBox="0 0 132.29167 132.29167" width="500" xmlns="http://www.w3.org/2000/svg" xmlns:xlink="http://www.w3.org/1999/xlink"><linearGradient id="a" gradientUnits="userSpaceOnUse" x1="116.132103" x2="22.66864" y1="0" y2="132.292314"><stop offset="0" stop-color="#d3b879"/><stop offset=".25" stop-color="#ebd6ad"/><stop offset=".5" stop-color="#ebd6ad"/><stop offset=".75" stop-color="#ebd6ad"/><stop offset="1" stop-color="#d3b879"/></linearGradient><filter id="b" color-interpolation-filters="sRGB" height="1.006074" width="1.005927" x="-.002964" y="-.003037"><feGaussianBlur stdDeviation=".35225928"/></filter><filter id="c" color-interpolation-filters="sRGB" height="1.008763" width="1.008521" x="-.00426" y="-.004381"><feGaussianBlur stdDeviation=".12334782"/></filter><linearGradient id="d" gradientUnits="userSpaceOnUse" spreadMethod="repeat" x1="146.2298" x2="236.62149" y1="133.800104" y2="235.090124"><stop offset="0" stop-color="#2e2442"/><stop offset=".125" stop-color="#342a4b"/><stop offset=".25" stop-color="#322848"/><stop offset=".375" stop-color="#322947" stop-opacity=".95"/><stop offset=".5" stop-color="#322a46" stop-opacity=".98"/><stop offset=".75" stop-color="#2e2442" stop-opacity=".97"/><stop offset=".90573049" stop-color="#34284e"/><stop offset="1" stop-color="#2e2442"/></linearGradient><filter id="e" color-interpolation-filters="sRGB" height="1.035978" width="1.03917" x="-.019585" y="-.017989"><feGaussianBlur stdDeviation=".8355581"/></filter><filter id="f" color-interpolation-filters="sRGB" height="1.00466" width="1.005078" x="-.002539" y="-.00233"><feGaussianBlur stdDeviation=".10828833"/></filter><path d="m250.4707 499.98252c51.835.039 104.53834.44093 157.50391-5.34765 23.52703-2.57129 63.66601-11.94336 63.66601-11.94336l20.95704-4.78907-8.40625-19.79687c-3.62583-17.49004-4.76016-37.13347-3.75586-52.85156 2.74125-40.11079 16.93348-78.89745 19.56445-119.01563.82783-12.6231.69137-24.46921.34447-42.18006-.34689-17.71086-3.70393-41.24364-10.31713-63.95285-2.60935-14.83079-5.05012-29.7543-6.34961-45.51563-2.71116-32.88338-4.95912-70.15255 6.76172-98.751949l9.07227-22.13086c-31.31324-3.171506-61.13792-7.4347299-87.3418-9.5429685l-13.60547 11.3652345-1.34961-12.5097658-15.11718-.9667968c-21.86813-1.39044747-38.84642-1.91868801-56.31446-2.02539065-5.82268-.03556755-16.5078-.02734375-22.63867-.02734375l-72.83689.32721653c-19.69041.32721654-47.16904 3.59837407-76.59084 5.94817407l-4.60938 8.8105474-.25781.496093-1.24609-7.4980466-16.01758.8046875c-16.98083.8557334-36.820718 3.3800201-54.957034 13.3808591-16.734322 9.227747-31.341428 23.054127-40.964844 40.189453-16.465591 29.318407-21.106486 61.290856-25.148437 87.197266-3.2490518 20.82441-5.7994558 41.62795-7.5839844 62.33594-1.94377399 12.57614-2.92389106 25.28234-2.93299587 38.00781l.00135527 27.97852c.01436867 46.72872-.62894005 93.96404 2.7929688 141.26953.9407191 13.00478 4.1699656 29.03511 14.3300782 43.82422 4.451018 6.4789 9.806394 11.40397 15.326172 15.69335 5.505744 4.27854 8.50915 8.11081 19.365234 9.82422 9.832331 1.66322 30.066099 3.74157 58.570317 5.875l12.77148.95899 10.22852-23.69336 15.71484 25.27344 9.36523.50195c25.46458 1.34785 54.43325 2.49136 81.95508 2.47266z" fill="#857347" stroke-width="3.77953" transform="scale(.26458334)"/><path d="m43.667127 6.1988049-6.649318 12.7232891-1.962733-11.8144838c-4.151997.209236-8.734935.8884646-12.483913 2.9557488-3.6649 2.020923-6.931432 5.134922-8.987607 8.796119-3.5936294 6.398768-4.9680452 14.21181-6.1007497 21.471745-1.7239508 11.049459-2.2092041 22.267477-2.7292176 33.438734-.5652131 12.142264-1.0750022 24.437952.6932615 36.463853.4873297 3.31431 1.1113893 6.8345 3.0041972 9.58967 1.4496055 2.11005 4.6865666 4.54405 6.0084106 4.7506 2.08291.35408 7.610648.94421 15.101134 1.50483l4.966963-11.50761 7.650707 12.30431c6.689358.35408 14.283448.65398 21.429996.64914 14.613556-.01 29.290534.20101 43.819142-1.38681 5.49586-.60065 16.3028-3.06871 16.3028-3.06871s-.84033-3.54005-1.04149-5.34358c-.4-3.58629-.56178-7.22034-.32107-10.82083.70788-10.588463 4.87617-20.80543 5.17179-31.413411.37415-13.42584-4.11707-26.631272-4.32122-40.060773-.14104-9.278493-1.4412-19.010796 2.14288-27.7560998-5.56781-.6078373-8.70335-1.1802678-14.75182-1.6700785l-8.93248 7.4651953-.88126-8.1733574c-7.610636-.4839091-12.854008-.5661144-19.284287-.5223869-5.84986.0397806-11.26574-.2361191-17.111594-.014796-6.768804.2562659-14.283499.9292252-20.732522 1.4396922z" fill="url(#a)" stroke-width="4.7625"/><g><path d="m99.286834 11.328798c-3.49716-.03324-4.50063 5.798843-7.763644 7.057404-1.698788.655231-3.800546-.752549-5.462307-.0084-2.373552 1.062895-4.48773 3.323405-5.186628 5.828407-1.15675 4.146046 1.550243 8.468099 2.350403 12.697462.83472 4.412035 4.892713 9.391509 2.556359 13.226123-2.337255 3.836092-8.731619 5.389885-12.93083 3.794584-5.153201-1.957726-5.693842-9.446469-8.773767-14.018365-2.705545-4.016159-3.967965-10.108477-8.516834-11.76899-1.033253-.377177-2.306027.159981-3.201812.798295-1.29478.922628-1.156584 3.334453-2.60152 3.997669-10.76 4.938772-31.06797-15.813274-35.202948-4.719536-2.24927 6.034569 15.400756 4.197197 16.15773 10.592682.987984 8.347228-20.278395 10.514551-17.278426 18.366463 1.117886 2.925877 6.789572-.980111 9.361746.807161 1.560073 1.084015 1.89518 3.330618 2.43925 5.150756.903299 3.021904.84185 6.251835 1.307662 9.371269.325322 2.178607-1.125033 6.112685 1.038574 6.526165 2.469445.471928 1.347679-6.744853 3.848521-6.48666 4.381516.452358.252638 10.715319 4.27855 12.502591 1.799088.798691 3.459675-2.410215 5.426418-2.329296 1.907056.07846 3.153983 2.810368 5.058412 2.683213 2.921094-.195035 4.221259-5.298886 7.142794-5.110573 6.533646.421138 13.045526 6.974414 14.3745 13.38532.511099 2.465519-2.000986 4.62137-3.026315 6.921088-.762562 1.71036-1.91665 3.2868-2.324509 5.11449-.414587 1.85785-.535181 3.86396-.07155 5.71018.553818 2.20535 2.620266 3.8008 3.297915 5.9713.527349 1.68909-1.095766 4.59084.533321 5.28164 2.41044 1.02212 3.627501-4.22495 6.166122-4.86555 2.956718-.7461 5.961167 1.58746 9.01056 1.58094 4.24816-.009 8.298618-2.08212 12.543223-2.25612 3.626131-.14865 9.368636 4.36254 10.837376 1.04385 2.44734-5.52992-10.998325-6.65969-13.430349-12.19637-1.821887-4.14766-1.72895-9.436094.07807-13.59025 3.43671-7.900647 14.425939-10.311856 18.807239-17.730439 2.34339-3.967917 3.26125-8.783361 3.44808-13.38781.19384-4.777096-3.30878-9.432492-2.44026-14.13397.45627-2.469884 3.78393-3.966294 3.85017-6.477094.0826-3.130377-4.00219-5.207232-4.36778-8.317284-.65201-5.54666 7.38821-11.694271 4.13757-16.235625-2.21141-3.089485-7.89019.644558-11.36278-.896988-1.72156-.764233-2.22482-3.86183-4.108306-3.879732zm1.441566 6.483413c2.79784.242555 3.77338 4.207971 6.0166 5.897564 1.28091.964779 4.43729.788696 4.18517 2.372349-.79969 5.02316-9.92325 2.288722-14.955284 3.030558-4.276497.630453-11.343551 5.229754-12.912352 1.201757-.873472-2.242696 3.7905-2.969403 5.748038-4.369648 1.345665-.962566 2.751056-1.838835 4.119221-2.769143 2.60897-1.774017 4.655423-5.635931 7.798607-5.363437zm-72.880581 14.149987c4.15639-7.429067 15.84068 8.853757 24.296099 7.8676 2.371575-.276597 3.812801-4.315713 6.123834-3.715712 7.759631 2.014591 7.074651 14.497478 11.895706 20.902779 1.803818 2.39657 4.203961 4.279862 6.283789 6.441256 1.472767 1.530526 2.605096 3.465313 4.386721 4.621759 1.75712 1.14054 3.89202 1.589433 5.924733 2.095772 1.4166.352869 2.956929.155515 4.331618.646943 1.757465.628264 2.962772 2.584688 4.807065 2.871011 3.499486.543289 8.321476-5.33311 10.343586-2.425767 3.12561 4.493934-5.2535 9.768495-9.078229 13.684656-3.225732 3.302842-7.93219 4.831454-11.357414 7.926927-1.294066 1.169485-1.827133 3.239446-3.412426 3.966871-3.07941 1.413014-7.080688 1.403671-10.164368 0-5.845687-2.660919-8.616923-9.535516-12.654064-14.530918-3.0029-3.715672-3.81736-11.336925-8.592897-11.470603-3.811535-.106693-3.711556 9.866232-7.359715 8.757124-3.602932-1.095358 2.173203-9.607606-1.22482-11.230681-2.674222-1.27735-5.127153 6.605943-7.480708 4.80487-3.299264-2.524782 6.965992-9.239103 3.76093-11.882442-2.735832-2.256347-6.898473 7.648092-9.346343 5.082199-3.279239-3.437346 9.789377-8.086282 7.389864-12.186415-1.570175-2.683015-8.234757 3.22319-9.320934.310418-1.202871-3.225707 9.391819-3.338124 8.027124-6.498771-1.700967-3.939457-11.623275 5.866453-12.756497 1.727803-1.660679-6.064979 16.414444-1.130308 17.37625-7.344546.818033-5.28532-14.810218-5.754711-12.198904-10.422133zm71.361813.264502c2.183038 4.479198 13.452818 4.518497 11.774268 9.210121-1.50738 4.213208-11.352843-4.281941-13.420566-.313586-2.738723 5.256131 8.747366 8.676822 10.524996 14.330808 1.20856 3.84398 2.94781 9.690169-.29286 12.084922-1.88642 1.394003-4.45666-1.54422-6.77474-1.902423-1.130881-.17475-2.287016-.08822-3.431054-.112803-1.993312-.04284-4.09662.590857-5.98101-.06045-2.15157-.743653-3.482874-2.957448-5.41415-4.162623-1.730398-1.079821-4.985337-.740188-5.48202-2.71847-1.309971-5.217601 6.266774-8.745787 9.357076-13.149128 3.075403-4.38211 4.029865-14.802272 9.14006-13.206371.000001 0 0 .000002 0 .000003zm1.810098 10.490803 3.58659 7.308284zm-27.959086 57.685987c.881912 1.8048 2.751011 3.55415 4.754228 3.70309 2.111084.15696 3.43954-3.43771 5.532266-3.11863 4.033028.61492 6.279302 5.42075 8.386052 8.91432.621117 1.02998 1.790244 2.38218 1.170698 3.41311-1.25238 2.08397-4.884514 1.88065-7.203006 1.14854-1.861083-.58767-2.333428-3.51849-4.204009-4.07519-.98976-.29456-2.06015.2675-3.041457.5891-1.136418.37243-2.076985 1.26825-3.242781 1.53484-2.003879.45824-4.76724 1.55232-6.166643.0466-.971491-1.0453.05553-2.86985.345178-4.26718.258952-1.24923.708951-2.46016 1.233251-3.62323.672895-1.49271.853669-4.68548 2.436223-4.26538.000003 0-.000001.00001 0 .00001z" fill="url(#d)" filter="url(#e)" opacity=".25"/><g stroke-width="3.14797" transform="matrix(.31766516 0 0 .31766516 101.4088 57.611531)"><path d="m-233.65799 75.060863c-.007-.000026-.013.002-.0195.002-9.80064-.03336-19.58638 4.045083-25.45313 7.138671-2.16431 1.141119-6.14429 3.468932-11.11328 5.861329-4.96899 2.392403-10.80902 4.743423-15.71094 5.691413-8.62123 1.66677-15.49799 6.523314-19.20898 12.669924-1.8555 3.0733-2.93803 6.56573-2.6543 10.17969.28373 3.61395 2.12392 7.22905 5.19922 9.75586 6.30637 5.18129 9.10824 10.64358 9.55859 15.74023.45036 5.09665-1.37531 10.163-5.82226 14.86328-7.20693 7.61766-7.35029 18.06404-2.7168 25.40625s13.66029 12.14313 23.82813 10.91992c8.00037-.96231 13.23766-.83978 17.14648.23438 3.90883 1.07415 6.87005 3.04191 10.75391 6.92383 6.99276 6.98803 17.36719 8.73991 26.74414 6.8457 9.37694-1.89422 18.38381-7.64565 22.07226-17.20117 2.61913-6.78398 5.45807-12.72705 12.52149-15.23828 6.74006-2.39537 11.48635-7.61325 13.18945-13.65625 1.70311-6.043.35698-12.89082-4.0957-18.21875h-.002c-2.08066-2.48946-2.80364-4.13888-2.74415-6.83008.0595-2.6912 1.27236-6.80182 4.58008-12.83203 3.51844-6.41456 4.19717-13.86964.70117-19.83399-3.49599-5.964344-10.90416-9.345074-20.15234-8.828124-4.81145.26889-7.52737-.94024-10.75781-3.41602-3.23044-2.47577-6.65187-6.459841-11.1875-10.882815v-.002c-4.07471-3.972954-9.52225-5.272276-14.65625-5.292969zm-.041 9.97461c.00074.000003.001-.000003.002 0 3.52993.01457 6.06496.835125 7.73242 2.460937 4.12443 4.021996 7.60321 8.224186 12.08398 11.658206 4.48077 3.434024 10.28554 5.857464 17.38086 5.460944 6.78397-.37921 9.65521 1.63449 10.99024 3.9121 1.33502 2.27762 1.39799 5.91233-.83985 9.99219-3.69975 6.74491-5.69339 12.19703-5.80859 17.4082-.1152 5.21118 2.01854 9.80291 5.06445 13.44727 2.45771 2.94082 2.97448 6.18619 2.14844 9.11719-.82605 2.931-3.00087 5.56731-6.92774 6.96289h-.002c-11.08168 3.93982-15.66631 13.74565-18.48437 21.04492-2.16889 5.61884-8.00311 9.65428-14.74219 11.01563-6.73908 1.36134-13.75566-.16264-17.71875-4.12305-4.55978-4.5575-9.31695-7.88006-15.16211-9.48633s-12.39545-1.55412-20.98047-.52148c-6.41729.77201-11.63562-2.27253-14.20117-6.33789s-2.86293-8.58805 1.52734-13.22852c6.05409-6.39898 9.23221-14.4419 8.51172-22.5957s-5.26477-16.08349-13.16015-22.57032c-1.1956-.98235-1.50533-1.75347-1.58985-2.83007-.0845-1.0766.24727-2.58135 1.25-4.24219 2.00546-3.32169 6.62039-6.88207 12.56445-8.03125 6.38785-1.23536 12.77289-3.913744 18.14454-6.500004 5.37164-2.58626 9.84817-5.18547 11.4375-6.02344 4.80536-2.533909 14.04387-6.016323 20.77929-5.990233z" fill="#6c131e"/><path d="m-233.67812 80.048213c-8.27141-.03281-17.78794 3.750204-23.12618 6.565106-3.75364 1.979084-16.91322 9.855197-28.20299 12.038547-14.56531 2.815964-22.98647 16.835434-14.44466 23.853774 14.20177 11.66813 14.6931 26.78536 4.19205 37.88463-11.59721 12.25815.30692 29.94184 16.89206 27.94662 16.58541-1.99496 23.57888.14366 32.02252 8.58308 10.95587 10.94846 34.78134 6.55029 40.63868-8.62409 2.7186-7.04163 6.43044-14.9151 15.503-18.14063 10.66694-3.79095 13.84697-15.70911 6.93658-23.97787-5.12657-6.13383-5.71765-12.4841 1.28984-25.25924 5.75628-10.49443 1.23217-22.179234-14.79999-21.283084-11.90678.665424-17.04579-7.2644-25.70586-15.709374-2.87126-2.799557-6.86277-3.860007-11.19532-3.877469z" fill="#c20a0a" stroke-width="9.97479"/><path d="m-239.05243 95.443479c-25.8613 0-46.97079 21.099831-46.97079 46.963031 0 25.86295 21.10837 46.97284 46.97079 46.97284 25.86241 0 46.97078-21.10989 46.97078-46.97284 0-25.86249-21.10938-46.963031-46.97078-46.963031z" fill="#6c131e" stroke-width="1"/><path d="m-239.05234 105.15056c-20.60893 0-37.25677 16.64706-37.25677 37.25678 0 20.60945 16.64811 37.26471 37.25703 37.26471 20.6084 0 37.26498-16.655 37.26498-37.26445 0-20.60893-16.65632-37.25677-37.26498-37.25677z" fill="#c20a0a" stroke-width="9.97479"/><path d="m-920.52927 467.43942c-5.58909 1.05502-11.30953 2.76071-17.28515 5.22266l-28.51367 11.74805 29.24414 9.78906c3.26725 1.09376 6.49695 2.28987 9.67187 3.57226-17.47003 7.74917-32.36177 21.94399-43.49414 36.00977-7.71534 9.74835-14.67535 20.61841-20.2793 32.24023l-.96093 1.9961-.15235 2.21094c-.23924 3.48725-.37304 7.02705-.37305 10.61718 0 84.08701 68.22681 152.3418 152.31446 152.3418 11.53886 0 22.78934-1.28657 33.60351-3.71484l33.65625-7.5586-69.56836-31.29297-.40625-.14648c-27.95187-10.12052-47.95099-42.21489-52.66992-69.47266-2.35948-13.6289-.62176-25.44943 3.11328-31.5664 3.18078-5.20917 6.95916-7.81127 15.54493-7.10352l-.82227 2.23633 1.55664 4.03906c8.89965 23.09855 23.90307 44.20088 40.60352 60.44922 16.70041 16.24834 34.73237 28.04065 52.91601 30.49024l.57422.0781.58008.0195c.69051.0242 1.35402.005 2.00976-.0312 11.15653.43709 24.2631-3.74406 34.34375-14.89258l13.80274-15.25976 10.80859-9.32422c13.69459-19.03892 20.01888-46.78418 3.10742-72.88477l-3.02343-4.66797-5.53907-.52734c-19.53819-1.85745-32.26973-12.07115-36.52929-25.64453-4.10347-13.07622-15.35431-20.64424-27.18555-25.91797l-8.89648-3.9668-3.37696-6.12304c-8.03346-14.56562-15.58306-26.76765-26.81445-35.12305-6.37742-4.74395-14.09769-8.05702-22.95898-9.55273l-11.68358-.89832c-4.11065.0533-8.34623.44535-12.74609 1.04883l-27.91797 3.82812 12.48242 9.26758c-5.47103-1.64944-11.1903-2.71763-17.20708-2.7247z" fill="#6c131e" filter="url(#b)" stroke-width=".999999" transform="matrix(.26458334 0 0 .26458334 -16.706824 -11.275074)"/><path d="m-245.15593 112.10707c-.91879.0114-1.92688.10189-3.00757.25011 3.62909 2.69424 6.72573 5.95642 8.89713 9.28367.2185 0 .436.002.65268.006 2.37806.0514 4.67142.38253 7.00525.94775-2.06596-3.74584-3.9406-6.6063-6.24613-8.32146-1.81876-1.35291-3.95721-2.12812-6.91327-2.16576-.12728-.002-.25673-.002-.38809 0zm-12.06541 3.02203c-.0961-.00026-.19213.001-.28888.003-1.84876.0408-3.86455.51597-6.1681 1.46503 7.39507 2.4756 14.08254 6.64319 17.62632 11.00243 2.419-.67526 3.87541-1.93744 4.79867-3.79306-4.5746-3.86812-8.22392-6.76283-11.83958-7.9778-1.33845-.44991-2.6897-.69851-4.12843-.6997zm-.0269 6.94842c-5.18893.88958-10.43468 5.31303-13.95883 9.76581-1.9101 2.41342-3.63409 5.10876-5.01055 7.96334-.059.85931-.0915 1.72633-.0915 2.60087 0 20.60945 16.64824 37.2644 37.25716 37.2644 2.827 0 5.57882-.31496 8.2243-.90899l-9.97871-4.48862c-17.59126-6.36927-22.7459-37.4463-6.17017-34.33795.76847-1.86443 1.3055-3.68921 1.45004-5.45807l2.45205.20051c-.22167 2.71055-1.16183 5.32933-2.3735 7.88995-.0964.26788-.19385.54264-.28784.7984 4.32306 11.22029 14.9756 21.15159 22.31078 22.13974.12045.004.25066.00018.38861-.0114 2.23984.13624 4.72027-.5561 6.87245-2.93626l1.0511-1.1622-1.37873-.74466c-.85652-.46267-1.88073-.93387-2.39107-1.43815-.2551-.25221-.36764-.45674-.40462-.68368-.0371-.22706-.0171-.55641.29352-1.12913l1.40456-2.58744-2.82773.81907c-.82981.24023-2.27806-.39906-3.05718-1.40973-.38964-.50546-.57999-1.04083-.57722-1.4273.003-.38673.0947-.67486.62476-1.05989l2.56057-1.85932-3.14399-.3576c-1.31289-.14966-2.15479-.87662-2.52336-1.6185-.36883-.74161-.30446-1.32719.18086-1.75183l1.60662-1.4056-2.02158-.68523c-.88417-.29959-1.35519-.99424-1.36322-1.3994-.004-.18073.0312-.35086.24236-.58911 1.43874-.3146 2.79841-.0595 3.69745.83871.81006.80901 1.09902 1.99118.91829 3.26853 1.12546-.29669 2.23582-.21235 3.17397.32866 1.22943.7091 1.92827 2.06541 2.06292 3.68092 2.00239-1.33369 4.23209-1.67482 5.95777-.67955 2.03595 1.17416 2.81185 3.88489 2.21227 6.81199 3.15811-4.39057 4.55249-9.96713.73898-15.85278-6.15063-.58472-10.75346-4.03769-12.28039-8.90333-.66158-2.10821-2.80147-3.77387-5.52835-4.98936l-.0103.0284c-3.91473-1.42464-7.31537-2.28395-10.87324-2.466l.0103.0207c-.30197-.0123-.60054-.0211-.89039-.0227-1.25538 3.01096-3.77268 5.25211-7.56026 6.06217l-.77721.16588-.47078-.64027c-1.87128-2.54444-5.42717-5.32437-9.741-7.64398zm20.56309 8.59017c3.67608-.01 5.9067 1.52945 5.54023 5.85132-4.71821.44623-6.83582-2.19635-8.30234-5.61206.98816-.15204 1.91374-.2365 2.76211-.23874zm6.37222 8.73539-.00053.00052c.48809.009.93996.1307 1.31827.37001-.19876.14506-.38114.29988-.54726.46612-.69053.68976-1.06472 1.59563-1.04748 2.46703.0241 1.22707.69376 2.2622 1.66915 2.96985-.41332 1.0666-.32296 2.29758.185 3.31969.50192 1.00936 1.38757 1.87859 2.54093 2.42156-.19021.44309-.31245.90363-.31574 1.36012-.008 1.10663.44474 2.11151 1.08882 2.94711.89405 1.15968 2.21964 2.09764 3.68918 2.35748-.024.28697-.0268.57036.0176.84336.13822.84823.59402 1.53476 1.10277 2.0376.44888.4436.94669.77558 1.42162 1.05213-.8352.63079-1.63437.92865-2.45101 1.02526-.85758-1.04476-1.27816-2.51202-1.23868-4.14031-1.5489.81308-3.18674.94205-4.4912.18965-1.93077-1.11361-2.55272-3.82196-1.73581-6.62492-1.49218.36462-2.9127.12108-3.84163-.80718-1.16823-1.16692-1.25556-3.11007-.40773-4.99557-.48387-.081-.91643-.28481-1.25367-.62166-1.15941-1.1581-.75991-3.4343.89194-5.08445 1.03239-1.03133 2.30977-1.57405 3.40548-1.55339z" fill="#c20a0a" filter="url(#c)" stroke-width="6.08542"/></g><path d="m99.286834 11.328798c-1.313446 2.96048-1.995974 6.363637-4.633103 8.51982-2.594798-1.212146-5.189596-2.424293-7.784394-3.636439-1.017646 2.879389-2.467948 5.770662-2.05306 8.920437-1.575118.463485-5.068232-2.270988-5.322578-.207347-.756551 4.30936-.395839 9.426997 3.730959 11.978402 5.355772.886725 1.715839 7.2599 2.984628 11.030419-.05932 4.291466-4.131894 6.53626-7.913681 6.372418-4.183201.74241-8.753168-.847379-10.520021-4.976566-3.652321-6.596567-3.967977-15.50988-10.75669-20.000232-1.603887-1.310851-3.207775-2.621701-4.811662-3.932551-.0043 3.135124.54959 6.310283.14261 9.416528-8.925426-7.441374-21.154354-6.545168-32.084488-6.598236-1.904016-.000673-3.808032-.0013-5.712048-.002 5.646866 3.462697 11.302054 6.911963 16.948608 10.375004-8.571332 2.133331-12.765542 10.378983-17.137024 17.244971-2.225475 2.557562-.163412 1.745956 1.892637.939075 2.422418-.808936 4.835148-1.647965 7.263732-2.437749-1.415582 3.152864-.347486 6.591919-.250287 9.886626 3.947905-3.495165 1.809767 2.187338 2.727256 4.868066.527204 3.312835 1.054409 6.625669 1.581614 9.938503 1.28284-2.16222 2.565681-4.32444 3.848521-6.48666.236317 4.679947 2.34677 8.9456 3.723791 13.35403 1.47592-2.272689 2.982711-4.525767 4.439693-6.810485.949387 3.426886 3.262367 6.205836 5.007711 9.244255 2.167896-3.882627 4.104455-7.897901 6.426528-11.69062 3.829082 6.639892 9.123309 12.553982 15.892628 16.280652 2.647104 1.660739.626132 6.378662 2.372419 7.672261-1.130022 1.06289-4.30779-.17098-6.239177-.17798-.475649 3.6302-.951297 7.2604-1.426946 10.8906 1.636966.42193 4.493848-.27741 3.762479 2.32136.161273 3.08016.322547 6.16031.48382 9.24046 2.137571-1.68671 4.275143-3.37342 6.412714-5.06013-.416556 2.892 2.10147 1.6616 3.920077 1.41371 2.093313-.81145 3.315151-.20149 4.473003.30486 3.293227-.73402 6.586453-1.46805 9.87968-2.20207.902287-1.26316 5.294213.56389 7.658683.56435 2.370844.35389 4.741694.70779 7.112544 1.06168-3.48177-4.12725-6.963531-8.25449-10.445296-12.38174-2.852495-.44568-7.546048-.60965-7.483977-4.39735-.494105-1.89928-.896437-3.784192.543316-5.380755 1.095687-3.130775 3.404715-4.865538 6.536126-5.885797 6.725941-3.619351 12.452551-9.262321 15.651961-16.245277 1.13202.104372 1.0706-3.223292 1.98682-4.395003.85779-4.056106 2.4634-8.853843.606-13.086796-2.35873-3.463187-.89932-7.65835-1.83612-11.492612 1.42553-.494611 6.00636-.341114 4.62618-2.867786-.79764-3.798016-2.21545-7.951591-5.89303-9.850373 5.65726-3.09056 6.06701-10.051102 5.81544-15.787034.52182-2.610837-2.65017.2261-3.94518.294789-3.06244 1.221828-5.79611 3.66743-6.843-.862993-1.57683-1.951176-3.57777-3.522132-5.360416-5.280676zm1.441566 6.483413c3.04193 1.440684 1.85625 6.694558 2.09258 7.190356 3.36914.240391 10.80259-6.95133 8.36521.02608-1.07795 5.991982-6.88449 5.925382-11.224342 3.813763-5.859847-1.574123-9.233374 6.040534-13.849356 5.433949-3.538634-1.497556-4.730473-7.317703.40766-5.24958 6.130138 1.248893-1.115398-7.029653 3.279137-7.313625 1.798547.840237 3.597093 1.680473 5.39564 2.52071 2.505028-1.400103 4.41425-3.807978 5.533471-6.421653zm-72.880581 14.149987c8.492808.123171 18.54323.727979 24.296099 7.8676 2.928249 6.784108 3.601712-6.148316 4.738349-5.71507 5.470647 6.753332 4.66109 17.613599 12.688932 22.502043 2.991121 2.442034 8.893394-.325612 6.684664 5.062998.298716 2.668482.757717 8.502576 2.355724 8.924579 2.142611-3.009034 8.504834-8.75702 7.83839-1.508844.7817 2.647464 1.86841 7.675911 3.920304 2.664577 1.844381-2.442306 4.428468-5.729782 4.537375-.648461 1.116922 3.739663 3.153758 6.932985 4.801845 1.879328 1.797349-2.521212 4.222709-7.411959 5.975879-2.355348 3.58724 3.242209-3.11555 8.654843-5.47176 11.690482-3.633015 4.02257-9.311837 5.651072-13.358311 8.62142-1.068648 1.966264-2.137295 3.932527-3.205943 5.898791-3.806944 0-7.613889 0-11.420833 0 .343947-7.089912-7.4924-8.55699-11.24971-13.038064-3.899033-3.860299-6.502234-8.737904-9.324368-13.381529-3.706809 1.944188-5.476083 8.671948-7.607736 9.860033-2.529882-3.419527-.700927-10.770888-1.023275-12.222253-3.429211 1.204947-5.418874 9.662384-7.196935 8.239221-3.098548-5.248415 2.528977-12.591597 3.597094-15.119427-3.956684.273018-8.364097 5.720089-9.880288 6.284157-1.493373-5.889592 2.891482-10.814822 7.923782-13.101352-3.904764-1.311672-9.116372 3.442068-10.960957 2.823721-.132488-5.317477 10.249863-7.66377 9.793792-9.047658-4.494228-1.030496-11.734997 2.478731-13.97455 2.129727 3.568282-5.844639 10.783633-10.403842 17.721341-7.888538-1.725358-5.488845-7.844608-7.492121-12.198904-10.422133zm71.361813.264502c4.154218.495759 5.256568 3.617951 9.156758 4.23904 2.49905 1.704097 4.5776 7.920158-.21734 4.264838-3.63933-1.215735-11.191044-4.101296-10.782441 2.418255-.445538 5.739713 4.585551 11.200811 10.247451 11.592454 2.68668 3.551819 2.85798 11.302476.50675 13.358182-1.8017-2.855268-2.45796-8.11031-5.83063-3.554443-2.16224 1.191286-5.079603 7.446284-4.738772 1.676252.206352-3.773394.456611-6.821136-3.090816-3.129435-2.318848 1.293617-5.950508 6.6446-5.004685.966551 2.176125-5.891312-5.849859-1.834776-8.624225-.521923-2.481036-.796325-.587437-7.19429 3.248719-6.482945 5.62786-2.523446 6.566711-9.350061 5.720664-14.788444-.926757-5.063693 4.77329-9.685236 9.408567-10.038382zm-.353482 1.480986c-5.989861 3.680193 5.81929 3.749569 0 0zm2.16358 9.009817c5.01555-1.790866 8.67051 7.042016 5.37956 8.1488-3.28078-1.075357-6.2926-4.521703-5.37956-8.1488zm-27.959086 57.685987c1.889112.022 4.354237-.646462 3.979787 2.08896-.84564 2.28885 3.719393 2.18392 3.135732.61525-.976073-2.33201-.256716-3.253361 2.229996-2.70421 1.818967.0983 1.040146 3.33139 1.749236 4.76899.823013 4.12129 6.698686 3.72725 9.358703 5.57919 1.913637 2.02861 3.734228 4.0213-.61021 2.56371-2.55335.67722-9.060554-4.53641-7.067657.18738 1.010826 1.45623-3.613878 2.3699-3.429723.86688-.521842-2.28378-1.043685-4.56756-1.565527-6.85134-2.445506-.36639-3.36408.48858-2.386655 2.86014-.250041 1.41833 1.784176 4.46256-.153618 4.67958-2.423034 1.10831-3.10564-.22698-3.088073-2.54535.199102-3.10703-2.106775.23922-3.354636.85983-1.456011 1.18495-3.289346 3.20314-2.736147-.0489-.580343-2.18391 2.062873-3.12524 3.149876-4.66644.951877-1.72935-8.551385 1.86135-6.135347-2.9628.309437-2.87063 9.246671 1.32035 7.235998-3.55311-.103912-.57926-.207823-1.15853-.311735-1.73779z" fill="url(#d)" filter="url(#f)" opacity=".95"/></g></svg>