<svg height="500" viewBox="0 0 132.29167 132.29167" width="500" xmlns="http://www.w3.org/2000/svg" xmlns:xlink="http://www.w3.org/1999/xlink"><linearGradient id="a"><stop offset="0" stop-color="#f3ad6f"/><stop offset=".5" stop-color="#a56747"/><stop offset="1" stop-color="#452a21"/></linearGradient><filter id="b" color-interpolation-filters="sRGB" height="2.062587" width="1.418019" x="-.20901" y="-.531293"><feGaussianBlur stdDeviation="1.7252461"/></filter><filter id="c" color-interpolation-filters="sRGB" height="1.551037" width="1.658512" x="-.329256" y="-.275519"><feGaussianBlur stdDeviation="1.5063651"/></filter><filter id="d" color-interpolation-filters="sRGB" height="1.718852" width="1.514873" x="-.257436" y="-.359426"><feGaussianBlur stdDeviation="1.564748"/></filter><radialGradient id="e" cx="12.251734" cy="121.72163" gradientTransform="matrix(-.16938129 -.09135955 .12244991 -.22702303 52.525218 136.00727)" gradientUnits="userSpaceOnUse" r="7.801825" xlink:href="#a"/><radialGradient id="f" cx="-627.052" cy="903.42834" gradientTransform="matrix(-1.2789222 1.5825333 -1.1156615 -.96013677 416.6998 1861.0555)" gradientUnits="userSpaceOnUse" r="7.801825" spreadMethod="reflect"><stop offset="0" stop-color="#98673e"/><stop offset=".30753425" stop-color="#a36233"/><stop offset=".5" stop-color="#9b6142"/><stop offset=".81301367" stop-color="#8b5740"/><stop offset="1" stop-color="#895734"/></radialGradient><radialGradient id="g" cx="12.251734" cy="121.72163" gradientTransform="matrix(-.16938129 -.09135955 .12244991 -.22702303 31.020516 116.79229)" gradientUnits="userSpaceOnUse" r="7.801825" xlink:href="#a"/><filter id="h" color-interpolation-filters="sRGB" height="1.010874" width="1.004635" x="-.002318" y="-.005437"><feGaussianBlur stdDeviation=".015068302"/></filter><g><path d="m44.718872 86.301131c-.927985-.12029-1.974295.7419-2.290902 1.62246-.230129.64004-.0072 1.55625.532952 1.96964.822717.62969 2.084-.15676 3.108107 0 1.635305.25032 4.735805 1.48463 4.735805 1.48463s3.522181 1.30164 4.735804 1.48462 2.400955-.0108 2.400955-.0108-.850984-.86735-1.947652-1.41999-4.731198-1.48216-4.731198-1.48216-3.356855-.56434-4.731198-1.48217c-.782982-.5229-.878951-2.04521-1.812673-2.16623z" fill="url(#g)" stroke-width=".999998"/><use transform="translate(2.303196 -18.65371)" xlink:href="#i"/><g stroke-width="1.17444" transform="matrix(.85172933 0 0 .85121669 -116.02886 11.981245)"><path d="m213.88477 5.9257812c-4.93571.071125-8.55475 2.7347443-11.93946 5.3457028-8.50009 6.554964-18.25603 14.097921-26.54492 22.59961-6.54598 6.714026-13.61109 13.905524-18.48047 22.982422-1.10711 2.063741-1.72758 4.2377-2.02344 6.361328-.13992 1.004371-.73343 3.083936.44141 5.841797 1.84257 4.325375 5.28939 6.418975 7.49609 8.015625 2.33777 1.691481 4.12291 2.060561 4.59571 2.335937 1.23937.721857 3.30347 3.607704 7.87109 5.126953 5.12727 1.705391 9.23183.505896 11.4707.712891 3.48407.32212 7.34333 1.205734 11.69727 1.625 3.51999.338959 7.03049.508289 10.51172.568359 4.46598.07706 8.3913-.418216 11.76758-.238281 2.20118.11731 5.40391 1.26433 9.73437 1.195312 5.55755-.08858 10.5415-1.423362 15.04492-2.347656 4.21921-.865962 9.53601-1.235945 14.86328-3.857422 2.95223-1.452745 4.46375-3.363623 5.48243-4.18164.66171-.531369 2.53641-1.376764 4.36328-3.732422 1.15793-1.493107 3.19842-3.823847 3.1914-7.689453-.009-4.641459-2.68257-7.074205-3.36914-8.246094-5.04017-8.602989-10.7953-16.979474-17.60156-24.527344-7.97932-8.848748-17.94928-17.05463-26.24219-23.285156-4.02506-3.0240602-8.18314-4.6652216-12.33007-4.6054688z" fill="#673f32"/><path d="m265.76909 60.857562c-4.9167-8.392231-10.49106-16.488964-17.00466-23.712289-7.61786-8.447899-17.39411-16.523164-25.53508-22.639537-3.48642-2.619375-6.33413-3.650192-9.27231-3.607856-2.93819.04234-5.7912 1.854727-8.97519 4.310854-8.4918 6.54857-18.07221 13.979457-26.02131 22.132628-6.5398 6.70769-13.23173 13.607282-17.66034 21.862554-.77592 1.446372-1.2536 3.070701-1.48008 4.696355-.14761 1.059558-.32797 2.223864.0913 3.208073 1.08768 2.553289 3.58903 4.309852 5.8375 5.936721 1.26017.911791 2.83951 1.284079 4.18359 2.066925 2.41442 1.406252 4.2861 3.822972 6.93738 4.704821 3.28033 1.091078 6.91763.161427 10.35997.479689 3.92605.362984 7.79111 1.250585 11.71575 1.628511 3.36278.323821 6.74247.487549 10.12031.545835 3.98266.06872 7.96992-.443493 11.94753-.23151 3.1504.167898 6.23528 1.238369 9.38975 1.188094 4.76696-.07598 9.45492-1.288165 14.12514-2.246692 4.60257-.944644 9.45157-1.373545 13.66731-3.44805 1.73783-.855161 3.05336-2.383983 4.56355-3.596696 1.19176-.957007 2.61229-1.695682 3.54897-2.903488 1.04331-1.345303 2.15151-2.931048 2.14842-4.633494-.004-2.113101-1.61933-3.918204-2.6875-5.741448z" fill="url(#f)" stroke-width="1.174433"/></g><path d="m57.716726 42.363499c.05028 1.65543 1.735631 3.08284 2.81926 4.38578-1.52285 1.06914-2.213418-1.40962-2.97032-2.34303-1.570247.50717 1.461738 2.60267.0055 4.08429-.367393 1.2727 2.432506 3.54477-.08924 1.57295-1.510622-.8698-3.401961-.87089-4.95114-.0927-1.379324-.6131-2.953038-2.167-2.974931-3.45358 1.796391-1.99309 2.36311.16576 1.875311 1.92573 1.01187 1.13517 3.15409.8113 4.109244-.12372 1.646123.10849 1.757668-2.95765.369635-2.05457-1.005254.60492-2.136568 3.57972-2.999192 1.50344.765503-.86414 2.602021-1.52453 2.851313-2.78894-1.206501-1.06424-3.010007-.22499-3.81396-1.15041-1.215774-2.47591.574731.5741 1.750902-.18718 1.145684.00039 3.402428 1.69794 2.856808-.71824-.241714-.99445-3.453324-.87477-.372981-1.16306 1.55392-.85147-2.022513-1.46959-.44928-2.55759-1.600839-1.965171 2.852183-1.624228 1.063113-1.001641-2.290232-.133574.314083 1.887971.710429 2.750531.351321.43014.217508.90566.209499 1.4119z" fill="#644335" filter="url(#c)" opacity=".5"/><path d="m40.228271 69.413052c1.486241 1.27286.951972-1.13505 1.27651-2.29652.562393-.77839.580707-3.17839 1.013492-.87963-.343905 1.1447-1.481941 2.84979-.479132 3.79267 1.263164-1.23416 2.358018-.10881 3.492769-1.3209 1.688865-.1207.655067-1.72821 2.291651-.6422.664408.7548-2.1145.0769-1.81633 2.04397-2.131246.64768.03133 1.00223 1.466809 1.13415-.0264-.1795-.298146-2.38526 1.088543-1.68669-1.72411 1.07783.501473 2.54463 1.897138 1.92036 2.053139-.39037 4.014682 1.00643 5.99402.22415-1.44548 1.7207-3.759504-.37149-5.615617.1164-2.096877.048-4.193755.096-6.290633.14397-.594927 2.63794-1.869899-.37445-2.923634.0834-1.223648-.94667-2.701082-1.48341-4.386516-1.13664-1.951067.32454 1.445819-1.97777 2.414079-1.46255.192284-.0113.384567-.0226.576851-.0339z" fill="#644335" filter="url(#b)"/><path d="m88.119023 64.427436c1.13862-.49082 4.276539-1.22858 1.57381-2.09319-1.673135-.65299-2.567904-2.31089-3.82277-3.50389.38311-1.0982 2.031129 1.7212 2.864077 2.27869 1.662754 1.75528 4.079898 2.1425 6.373598 2.44351.79196-.79223 2.38367.85392 3.9599.46038 2.549702.61569 1.148042.74432-.66595.25277-1.13191-.30307-4.06393-.76148-2.43826 1.08096-1.22808 1.32265-.27418 2.28438-.0392 3.68042-1.06575-1.94992-2.28857.0442-2.06485-1.7306-1.960893-.0226-.85781-2.00116-1.639319-2.85387 2.950879.86327.559479-1.12236-1.02762-.75-.881928.60438-4.375231 1.87913-3.810902 1.25087.245828-.17202.491655-.34403.737482-.51605z" fill="#644335" filter="url(#d)"/><path id="i" d="m66.223574 105.51611c-.927985-.12029-1.974295.7419-2.290902 1.62246-.230129.64004-.0072 1.55625.532952 1.96964.822717.62969 2.084-.15676 3.108107 0 1.635305.25032 4.735805 1.48463 4.735805 1.48463s3.522181 1.30164 4.735804 1.48462 2.400955-.0108 2.400955-.0108-.850984-.86735-1.947652-1.41999-4.731198-1.48216-4.731198-1.48216-3.356855-.56434-4.731198-1.48217c-.782982-.5229-.878951-2.04521-1.812673-2.16623z" fill="url(#e)" stroke-width=".999998"/><use stroke-width="1.09683" transform="matrix(.82871497 0 0 1.0030267 -34.714348 -17.060414)" xlink:href="#i"/><use transform="matrix(.93930895 -.34307245 .34307245 .93930895 -62.035591 20.995098)" xlink:href="#i"/><use transform="matrix(-.97423345 -.22554197 .22554197 -.97423345 88.893166 221.876485)" xlink:href="#i"/><use stroke-width="1.06368" transform="matrix(-.94006086 .01167665 -.01167665 -.94006086 178.19449 193.6573)" xlink:href="#i"/><use filter="url(#h)" opacity=".75" stroke-width="1.32807" transform="matrix(.60090542 -.51146635 .51513511 .50505873 -61.20415 36.462943)" xlink:href="#i"/><use stroke-width="1.15225" transform="matrix(.86662929 -.04636785 .04636785 .86662929 24.982323 7.194743)" xlink:href="#i"/><use stroke-width="1.14216" transform="matrix(.6844191 -.55334676 .58615069 .64611558 -87.005379 80.527445)" xlink:href="#i"/><use stroke-width="1.14216" transform="matrix(.6844191 -.55334676 .58615069 .64611558 -53.187732 58.922289)" xlink:href="#i"/><g stroke-width="1.06368"><use transform="matrix(-.75664719 .55797473 -.55797473 -.75664719 208.52016 142.90409)" xlink:href="#i"/><use transform="matrix(-.9303991 .13493806 -.13493806 -.9303991 195.8948 210.87463)" xlink:href="#i"/><use transform="matrix(-.9303991 .13493806 -.13493806 -.9303991 144.08474 182.87055)" xlink:href="#i"/></g><use transform="matrix(-.99938656 .0350216 -.0350216 -.99938656 164.447398 191.903843)" xlink:href="#i"/></g></svg>