<svg height="500" viewBox="0 0 132.29167 132.29167" width="500" xmlns="http://www.w3.org/2000/svg" xmlns:xlink="http://www.w3.org/1999/xlink"><linearGradient id="a"><stop offset="0" stop-color="#d3b879"/><stop offset=".25" stop-color="#ebd6ad"/><stop offset=".5" stop-color="#ebd6ad"/><stop offset=".75" stop-color="#ebd6ad"/><stop offset="1" stop-color="#d3b879"/></linearGradient><linearGradient id="b" gradientUnits="userSpaceOnUse" x1="116.132103" x2="22.66864" xlink:href="#a" y1="0" y2="132.292314"/><linearGradient id="c" gradientUnits="userSpaceOnUse" spreadMethod="repeat" x1="-17.85017" x2="5.02706" xlink:href="#d" y1="110.489736" y2="126.856413"/><linearGradient id="d"><stop offset="0" stop-color="#2e2442"/><stop offset=".125" stop-color="#342a4b"/><stop offset=".25" stop-color="#322848"/><stop offset=".375" stop-color="#322947" stop-opacity=".95"/><stop offset=".5" stop-color="#322a46" stop-opacity=".98"/><stop offset=".75" stop-color="#2e2442" stop-opacity=".97"/><stop offset=".90573049" stop-color="#34284e"/><stop offset="1" stop-color="#2e2442"/></linearGradient><filter id="e" color-interpolation-filters="sRGB" height="1.006074" width="1.005927" x="-.002964" y="-.003037"><feGaussianBlur stdDeviation=".35225928"/></filter><filter id="f" color-interpolation-filters="sRGB" height="1.008763" width="1.008521" x="-.00426" y="-.004381"><feGaussianBlur stdDeviation=".12334782"/></filter><linearGradient id="g" gradientTransform="matrix(.81345948 -.06373731 .06373731 .81345948 -169.1249 38.273592)" gradientUnits="userSpaceOnUse" spreadMethod="repeat" x1="193.16023" x2="216.03746" xlink:href="#d" y1="90.853073" y2="107.21975"/><filter id="h" color-interpolation-filters="sRGB" height="1.042112" width="1.031437" x="-.015719" y="-.021056"><feGaussianBlur stdDeviation=".69675863"/></filter><path d="m250.4707 499.98252c51.835.039 104.53834.44093 157.50391-5.34765 23.52703-2.57129 63.66601-11.94336 63.66601-11.94336l20.95704-4.78907-8.40625-19.79687c-3.62583-17.49004-4.76016-37.13347-3.75586-52.85156 2.74125-40.11079 16.93348-78.89745 19.56445-119.01563.82783-12.6231.69137-24.46921.34447-42.18006-.34689-17.71086-3.70393-41.24364-10.31713-63.95285-2.60935-14.83079-5.05012-29.7543-6.34961-45.51563-2.71116-32.88338-4.95912-70.15255 6.76172-98.751949l9.07227-22.13086c-31.31324-3.171506-61.13792-7.4347299-87.3418-9.5429685l-13.60547 11.3652345-1.34961-12.5097658-15.11718-.9667968c-21.86813-1.39044747-38.84642-1.91868801-56.31446-2.02539065-5.82268-.03556755-16.5078-.02734375-22.63867-.02734375l-72.83689.32721653c-19.69041.32721654-47.16904 3.59837407-76.59084 5.94817407l-4.60938 8.8105474-.25781.496093-1.24609-7.4980466-16.01758.8046875c-16.98083.8557334-36.820718 3.3800201-54.957034 13.3808591-16.734322 9.227747-31.341428 23.054127-40.964844 40.189453-16.465591 29.318407-21.106486 61.290856-25.148437 87.197266-3.2490518 20.82441-5.7994558 41.62795-7.5839844 62.33594-1.94377399 12.57614-2.92389106 25.28234-2.93299587 38.00781l.00135527 27.97852c.01436867 46.72872-.62894005 93.96404 2.7929688 141.26953.9407191 13.00478 4.1699656 29.03511 14.3300782 43.82422 4.451018 6.4789 9.806394 11.40397 15.326172 15.69335 5.505744 4.27854 8.50915 8.11081 19.365234 9.82422 9.832331 1.66322 30.066099 3.74157 58.570317 5.875l12.77148.95899 10.22852-23.69336 15.71484 25.27344 9.36523.50195c25.46458 1.34785 54.43325 2.49136 81.95508 2.47266z" fill="#857347" stroke-width="3.77953" transform="scale(.26458334)"/><path d="m43.667127 6.1988049-6.649318 12.7232891-1.962733-11.8144838c-4.151997.209236-8.734935.8884646-12.483913 2.9557488-3.6649 2.020923-6.931432 5.134922-8.987607 8.796119-3.5936294 6.398768-4.9680452 14.21181-6.1007497 21.471745-1.7239508 11.049459-2.2092041 22.267477-2.7292176 33.438734-.5652131 12.142264-1.0750022 24.437952.6932615 36.463853.4873297 3.31431 1.1113893 6.8345 3.0041972 9.58967 1.4496055 2.11005 4.6865666 4.54405 6.0084106 4.7506 2.08291.35408 7.610648.94421 15.101134 1.50483l4.966963-11.50761 7.650707 12.30431c6.689358.35408 14.283448.65398 21.429996.64914 14.613556-.01 29.290534.20101 43.819142-1.38681 5.49586-.60065 16.3028-3.06871 16.3028-3.06871s-.84033-3.54005-1.04149-5.34358c-.4-3.58629-.56178-7.22034-.32107-10.82083.70788-10.588463 4.87617-20.80543 5.17179-31.413411.37415-13.42584-4.11707-26.631272-4.32122-40.060773-.14104-9.278493-1.4412-19.010796 2.14288-27.7560998-5.56781-.6078373-8.70335-1.1802678-14.75182-1.6700785l-8.93248 7.4651953-.88126-8.1733574c-7.610636-.4839091-12.854008-.5661144-19.284287-.5223869-5.84986.0397806-11.26574-.2361191-17.111594-.014796-6.768804.2562659-14.283499.9292252-20.732522 1.4396922z" fill="url(#b)" stroke-width="4.7625"/><g><path d="m108.6041 25.532616c-5.2863-.356578-10.943585 4.397918-15.001634 4.115174-4.89697-3.905075-9.847788 2.744842-9.868767 7.238032-13.136801 3.977877-27.005437 4.602738-40.655083 5.264694-6.990879.657524-14.097244.38394-20.993499 1.782376-7.189867 1.507947-9.933219 9.61248-9.673798 16.156502-.03314 5.278017 1.885719 10.299756 2.388089 15.517593-5.5070324 3.240782-2.571315 13.911512 4.342897 11.078879 3.446668.904638 1.1936 7.494969 2.421626 10.607279.334357 3.389565-.683445 8.206465 4.278883 6.203925 3.395487-.80906 9.719952.33277 11.255481-1.71515-.844611-3.933845-4.461572-9.432818-2.642697-12.617955 4.169013 1.701489 4.740202 7.41189 7.302101 10.870545 2.48784 4.57134 9.909851.25365 14.476739 1.08127 4.145276.12006-1.94776-4.630345-2.537601-6.723355-2.226288-3.352246-5.204295-7.024178-.999371-9.814017 1.383316-3.976448 6.19607-7.028304 10.087654-4.590893 1.906461 5.721243 1.688798 12.283101 1.967044 18.38293-.438987 4.201565 6.310917.68015 9.151028 1.36094 6.721901-.52669 13.443802-1.05338 20.165704-1.58006-3.710206-5.242392-6.88253-11.315248-6.257213-17.941968.503119-4.203023-.03445-9.180127 4.077727-11.555767 3.001222-3.221838 4.734061-7.484795 8.14978-10.334677 5.36944-.655694 13.05374.72093 16.59668-3.786831 1.02253-3.213833 6.59719-7.598736 1.20692-9.131203-4.07439-2.600053-7.98913-5.471272-11.54655-8.749605 3.61355-3.084528 7.72402-6.353303 10.35492-10.065836-2.58743-.651939-5.39019-.631086-8.04706-1.052822zm.30359 3.874521c-3.36705 2.583328-11.194835 7.240307-4.29953 10.95728 2.60282 3.51324 9.69765 5.639877 10.38463 9.091732-1.05764 2.689677-2.74781 4.670417-6.00499 4.358031-5.116 1.880691-13.108546-2.300382-14.486062 4.728308-4.278212 7.948959-12.239882 12.65035-18.438817 18.881656-3.394873 5.382092-4.191403 12.595737-1.209695 18.334911-3.13962.12566-7.623286 1.83954-6.326955-2.980887-.329206-6.240911-1.460734-12.400844-2.625528-18.529588-8.911445 2.432263-18.430105 2.388118-27.387598.210073-1.921365 5.820847-7.418113 10.19262-8.919271 15.774067 1.052594 3.802285 4.432746 10.67317-2.615842 9.277515-2.639786-.27553-1.005838-6.413223-2.408127-8.995843-1.91905-6.401295 6.232054-7.73315 7.807741-12.930046 1.701286-4.41241-8.70834-2.432765-3.889554-7.14511 2.701284-1.59767 5.156188-6.949211-.03088-6.126061-3.296324 1.846457-7.799706 1.607025-6.114658-3.293171 1.233692-1.94829.375789-9.170561-1.840114-4.426556-1.127031 5.331737.480604 10.828148.623409 16.213444.647552 3.293064-.634313 11.674636-5.104131 9.668387.2702-4.192468 4.220547-6.993454 2.019243-11.61972-1.453164-6.584397-3.387023-14.162703.649857-20.242174 2.745444-3.649481 8.584979-4.526938 12.625163-2.954066 1.636809 4.800286 5.390509 12.033208 11.808866 9.024431 3.785167-4.449766 10.196272-2.668907 12.288754 2.505231 3.490348 3.655313 9.113572-.698033 10.810487-4.430742 3.547216-4.575498-1.341126-6.798101-4.555744-8.671675 3.204871-2.876498 9.964138-1.537857 14.434684-3.343257 3.840311-1.382362 11.882628-1.662732 12.933244-4.068756-3.483321-3.812955 3.280109-8.817445 4.890176-3.205584 4.273232-3.423555 9.604572-5.301464 14.981242-6.06183zm-7.55431 12.409483c-5.378983 3.270428 5.69952 3.974969.35005.166861l-.24195-.115334zm-17.42445 3.823436c-4.914531.295057-12.137283 6.099393-5.773264 10.097206 2.351973 6.633827-9.978121 1.726708-7.422434 7.942412 3.033911 6.030122 11.62204 3.519889 14.851163-1.029372 3.984309-3.240855 4.086826-10.22918-2.221658-9.799558-.293526-3.084552 8.840998-5.839063 1.676995-7.247127l-.55648.0026zm-67.65095 14.714225.000675.180112zm68.179163 14.466683c-1.107061 6.708119-.713047 14.023415 2.899916 19.958381-2.468958.19345-4.937916.3869-7.406874.58035-.85297-4.932266-1.705941-9.864533-2.558911-14.796799 2.35529-1.913977 4.710579-3.827955 7.065869-5.741932zm-44.003339 3.75318c2.400616 2.311925 10.178189-.658277 9.699279 3.042389-2.768723 4.540781-9.189874 6.878612-13.945259 4.055766 1.643966-2.215613 3.218551-4.52224 4.24598-7.098155zm-6.833997 10.498839-.03166.225028zm12.930617.284026c-.05914 3.024593 7.674534 8.785206 1.085652 8.534606-3.385132 1.1192-6.205178-4.986358-5.525738-7.633189 1.448638-.515989 3.03211-.06729 4.440086-.901417z" fill="url(#g)"/><path d="m108.6041 25.532616c-5.173.356556-10.333178 1.858498-15.001634 4.115174-3.672904 1.775438-6.081474 5.721846-9.868767 7.238032-12.686027 5.078662-27.068004 3.808889-40.655083 5.264694-6.983039.748207-15.035752-1.936213-20.993499 1.782376-5.324957 3.323626-8.467346 9.996459-9.673798 16.156502-1.005863 5.135852 1.026786 10.464317 2.388089 15.517593 1.031769 3.830019 3.174411 7.288334 4.342897 11.078879 1.068378 3.465797.962292 7.287109 2.421626 10.607279 1.01084 2.29979 1.972849 5.207415 4.278883 6.203925 3.483774 1.50545 9.092083 1.40299 11.255481-1.71515 2.44962-3.530675-6.602425-10.948574-2.642697-12.617955 4.022286-1.695755 3.529063 8.67542 7.302101 10.870545 4.182649 2.43343 11.578273 4.95619 14.476739 1.08127 1.43481-1.918185-1.98872-4.391655-2.537601-6.723355-.75346-3.20077-2.636418-6.962227-.999371-9.814017 1.839242-3.204021 6.878938-6.421932 10.087654-4.590893 5.352461 3.054357-2.30026 13.9368 1.967044 18.38293 2.135438 2.224925 6.068995 1.25388 9.151028 1.36094 6.73844.23407 16.478991 4.065255 20.165704-1.58006 3.463305-5.303213-6.268849-11.608058-6.257213-17.941968.0075-4.084702 2.106923-7.977949 4.077727-11.555767 2.116731-3.842736 4.441367-7.990575 8.14978-10.334677 4.79652-3.031888 12.77494.407586 16.59668-3.786831 2.0678-2.269442 2.38968-6.297962 1.20692-9.131203-1.86033-4.456343-11.25026-3.929643-11.54655-8.749605-.29535-4.804631 11.87177-5.497371 10.35492-10.065836-.85244-2.567395-5.34825-1.238841-8.04706-1.052822zm.30359 3.874521c2.78898 2.759678-5.22789 7.145146-4.29953 10.95728 1.08859 4.470085 10.59463 4.495801 10.38463 9.091732-.11289 2.470664-3.80177 3.234307-6.00499 4.358031-4.52484 2.30784-10.172782 2.045787-14.486062 4.728308-7.470277 4.645925-14.854041 10.848037-18.438817 18.881656-2.495866 5.593331 4.067768 15.22636-1.209695 18.334911-2.008764 1.18321-4.94288-1.10487-6.326955-2.980887-3.703533-5.019889 2.100483-14.457701-2.625528-18.529588-6.916386-5.959093-19.519521-4.420322-27.387598.210073-5.20579 3.063628-6.596449 10.198176-8.919271 15.774067-1.235589 2.966007.597167 9.298815-2.615842 9.277515-3.104127-.0206-2.84388-5.92238-2.408127-8.995843.706768-4.984991 7.695135-7.896461 7.807741-12.930046.06065-2.71105-3.214002-4.518877-3.889554-7.14511-.50872-1.977665 1.020596-4.375532-.03088-6.126061-1.192035-1.984537-4.5616-1.576387-6.114658-3.293171-1.071988-1.184999-.279384-4.769341-1.840114-4.426556-5.282565 1.160217 1.82296 10.939671.623409 16.213444-.808278 3.553559-1.655145 10.845498-5.104131 9.668387-3.720569-1.2698 1.618649-7.708895 2.019243-11.61972.687906-6.715728-3.629182-15.020676.649857-20.242174 2.739534-3.342917 8.399275-3.860715 12.625163-2.954066 4.843891 1.039239 7.299197 6.973533 11.808866 9.024431 3.805459 1.730639 8.126678 2.897341 12.288754 2.505231 3.877245-.365276 9.478588-.771165 10.810487-4.430742 1.1167-3.068289-5.916114-5.703374-4.555744-8.671675 2.057703-4.489868 9.669709-2.044002 14.434684-3.343257 4.360205-1.188888 8.849183-2.133481 12.933244-4.068756 1.761321-.83462 3.163502-2.30146 4.890176-3.205584 4.772391-2.498929 11.151962-9.850886 14.981242-6.06183zm-7.55431 12.409483c-.0556.116684.29443.283544.35005.166861.0384-.08065-.1613-.07689-.24195-.115334-.036-.01718-.0909-.08756-.1081-.05153zm-17.42445 3.823436c-3.292695 2.046883-3.471965 6.977014-5.773264 10.097206-2.150856 2.916215-8.979673 4.670486-7.422434 7.942412 2.132527 4.480669 11.890402 2.952835 14.851163-1.029372 1.998444-2.687896-2.229123-6.450153-2.221658-9.799558.0055-2.479536 3.224585-5.309837 1.676995-7.247127-.115776-.144929-.371085-.0035-.55648.0026-.185018.0061-.397106-.06389-.554322.03384zm-67.65095 14.714225.000675.180112zm68.179163 14.466683c6.262699 2.443901 7.096459 14.706422 2.899916 19.958381-1.545944 1.93474-5.451471 2.10008-7.406874.58035-3.952201-3.071631-4.315555-10.109688-2.558911-14.796799 1.065086-2.841882 4.2386-6.845221 7.065869-5.741932zm-44.003339 3.75318c3.166548-1.205952 9.734729-.34584 9.699279 3.042389-.05065 4.840758-10.98721 7.887925-13.945259 4.055766-1.684666-2.182488 1.669451-6.116907 4.24598-7.098155zm-6.833997 10.498839-.03166.225028zm12.930617.284026c2.330719 1.670923 3.752514 7.480056 1.085652 8.534606-2.921032 1.15506-6.667333-4.706868-5.525738-7.633189.548869-1.406951 3.212696-1.781349 4.440086-.901417z" fill="url(#g)" filter="url(#h)" opacity=".25"/><use height="100%" stroke-width="3.14797" transform="matrix(.31766516 0 0 .31766516 150.08791 78.085568)" width="100%" xlink:href="#i"/></g><g display="none"><path d="m-60.667208 102.24515c-4.43932 0-7.09034 3.13098-.65172 3.13077 4.43942-.0002 7.090641-3.13098.65182-3.13077zm13.973541 1.78267c-4.4109 0-7.61262 1.01126-8.478711 2.80804-8.54127-.25557-15.62833 2.73035-13.79137 4.77616.23942.26652.0307.56942-.53671.59743-14.2053.69792-16.84312 7.09218-3.16604 9.07286.57882.0841.69434.50441.41863.77633-3.32185 3.27575 3.92459 5.67373 14.68588 5.67373 10.992531 0 16.942491-1.89226 15.047161-4.95812-.41833-.67655-.2058-1.15622.7156-1.25231 14.541841-1.51238 10.851661-9.71793-1.67094-10.50734-2.55165-.1605-1.94645-1.37264-1.01596-1.49194 10.439369-1.33696 4.08611-5.49484-2.20744-5.49484zm9.57123 20.7812c-3.64274.067-5.45465 2.49675.1468 2.88492 4.119549.28543 6.578771-2.45125.60377-2.86569-.25741-.0177-.50787-.0236-.75067-.019zm-35.202211 4.12118c-6.98943.0002-10.13738 5.04482 0 5.04441 6.98943-.0002 10.13738-5.04482 0-5.04441z" display="inline" fill="url(#c)"/><g id="i" display="inline" transform="translate(92.947018 -74.03105)"><path d="m-233.65799 75.060863c-.007-.000026-.013.002-.0195.002-9.80064-.03336-19.58638 4.045083-25.45313 7.138671-2.16431 1.141119-6.14429 3.468932-11.11328 5.861329-4.96899 2.392403-10.80902 4.743423-15.71094 5.691413-8.62123 1.66677-15.49799 6.523314-19.20898 12.669924-1.8555 3.0733-2.93803 6.56573-2.6543 10.17969.28373 3.61395 2.12392 7.22905 5.19922 9.75586 6.30637 5.18129 9.10824 10.64358 9.55859 15.74023.45036 5.09665-1.37531 10.163-5.82226 14.86328-7.20693 7.61766-7.35029 18.06404-2.7168 25.40625s13.66029 12.14313 23.82813 10.91992c8.00037-.96231 13.23766-.83978 17.14648.23438 3.90883 1.07415 6.87005 3.04191 10.75391 6.92383 6.99276 6.98803 17.36719 8.73991 26.74414 6.8457 9.37694-1.89422 18.38381-7.64565 22.07226-17.20117 2.61913-6.78398 5.45807-12.72705 12.52149-15.23828 6.74006-2.39537 11.48635-7.61325 13.18945-13.65625 1.70311-6.043.35698-12.89082-4.0957-18.21875h-.002c-2.08066-2.48946-2.80364-4.13888-2.74415-6.83008.0595-2.6912 1.27236-6.80182 4.58008-12.83203 3.51844-6.41456 4.19717-13.86964.70117-19.83399-3.49599-5.964344-10.90416-9.345074-20.15234-8.828124-4.81145.26889-7.52737-.94024-10.75781-3.41602-3.23044-2.47577-6.65187-6.459841-11.1875-10.882815v-.002c-4.07471-3.972954-9.52225-5.272276-14.65625-5.292969zm-.041 9.97461c.00074.000003.001-.000003.002 0 3.52993.01457 6.06496.835125 7.73242 2.460937 4.12443 4.021996 7.60321 8.224186 12.08398 11.658206 4.48077 3.434024 10.28554 5.857464 17.38086 5.460944 6.78397-.37921 9.65521 1.63449 10.99024 3.9121 1.33502 2.27762 1.39799 5.91233-.83985 9.99219-3.69975 6.74491-5.69339 12.19703-5.80859 17.4082-.1152 5.21118 2.01854 9.80291 5.06445 13.44727 2.45771 2.94082 2.97448 6.18619 2.14844 9.11719-.82605 2.931-3.00087 5.56731-6.92774 6.96289h-.002c-11.08168 3.93982-15.66631 13.74565-18.48437 21.04492-2.16889 5.61884-8.00311 9.65428-14.74219 11.01563-6.73908 1.36134-13.75566-.16264-17.71875-4.12305-4.55978-4.5575-9.31695-7.88006-15.16211-9.48633s-12.39545-1.55412-20.98047-.52148c-6.41729.77201-11.63562-2.27253-14.20117-6.33789s-2.86293-8.58805 1.52734-13.22852c6.05409-6.39898 9.23221-14.4419 8.51172-22.5957s-5.26477-16.08349-13.16015-22.57032c-1.1956-.98235-1.50533-1.75347-1.58985-2.83007-.0845-1.0766.24727-2.58135 1.25-4.24219 2.00546-3.32169 6.62039-6.88207 12.56445-8.03125 6.38785-1.23536 12.77289-3.913744 18.14454-6.500004 5.37164-2.58626 9.84817-5.18547 11.4375-6.02344 4.80536-2.533909 14.04387-6.016323 20.77929-5.990233z" fill="#6c131e"/><path d="m-233.67812 80.048213c-8.27141-.03281-17.78794 3.750204-23.12618 6.565106-3.75364 1.979084-16.91322 9.855197-28.20299 12.038547-14.56531 2.815964-22.98647 16.835434-14.44466 23.853774 14.20177 11.66813 14.6931 26.78536 4.19205 37.88463-11.59721 12.25815.30692 29.94184 16.89206 27.94662 16.58541-1.99496 23.57888.14366 32.02252 8.58308 10.95587 10.94846 34.78134 6.55029 40.63868-8.62409 2.7186-7.04163 6.43044-14.9151 15.503-18.14063 10.66694-3.79095 13.84697-15.70911 6.93658-23.97787-5.12657-6.13383-5.71765-12.4841 1.28984-25.25924 5.75628-10.49443 1.23217-22.179234-14.79999-21.283084-11.90678.665424-17.04579-7.2644-25.70586-15.709374-2.87126-2.799557-6.86277-3.860007-11.19532-3.877469z" fill="#c20a0a" stroke-width="9.97479"/><path d="m-239.05243 95.443479c-25.8613 0-46.97079 21.099831-46.97079 46.963031 0 25.86295 21.10837 46.97284 46.97079 46.97284 25.86241 0 46.97078-21.10989 46.97078-46.97284 0-25.86249-21.10938-46.963031-46.97078-46.963031z" fill="#6c131e"/><path d="m-239.05234 105.15056c-20.60893 0-37.25677 16.64706-37.25677 37.25678 0 20.60945 16.64811 37.26471 37.25703 37.26471 20.6084 0 37.26498-16.655 37.26498-37.26445 0-20.60893-16.65632-37.25677-37.26498-37.25677z" fill="#c20a0a" stroke-width="9.97479"/><path d="m-920.52927 467.43942c-5.58909 1.05502-11.30953 2.76071-17.28515 5.22266l-28.51367 11.74805 29.24414 9.78906c3.26725 1.09376 6.49695 2.28987 9.67187 3.57226-17.47003 7.74917-32.36177 21.94399-43.49414 36.00977-7.71534 9.74835-14.67535 20.61841-20.2793 32.24023l-.96093 1.9961-.15235 2.21094c-.23924 3.48725-.37304 7.02705-.37305 10.61718 0 84.08701 68.22681 152.3418 152.31446 152.3418 11.53886 0 22.78934-1.28657 33.60351-3.71484l33.65625-7.5586-69.56836-31.29297-.40625-.14648c-27.95187-10.12052-47.95099-42.21489-52.66992-69.47266-2.35948-13.6289-.62176-25.44943 3.11328-31.5664 3.18078-5.20917 6.95916-7.81127 15.54493-7.10352l-.82227 2.23633 1.55664 4.03906c8.89965 23.09855 23.90307 44.20088 40.60352 60.44922 16.70041 16.24834 34.73237 28.04065 52.91601 30.49024l.57422.0781.58008.0195c.69051.0242 1.35402.005 2.00976-.0312 11.15653.43709 24.2631-3.74406 34.34375-14.89258l13.80274-15.25976 10.80859-9.32422c13.69459-19.03892 20.01888-46.78418 3.10742-72.88477l-3.02343-4.66797-5.53907-.52734c-19.53819-1.85745-32.26973-12.07115-36.52929-25.64453-4.10347-13.07622-15.35431-20.64424-27.18555-25.91797l-8.89648-3.9668-3.37696-6.12304c-8.03346-14.56562-15.58306-26.76765-26.81445-35.12305-6.37742-4.74395-14.09769-8.05702-22.95898-9.55273l-11.68358-.89832c-4.11065.0533-8.34623.44535-12.74609 1.04883l-27.91797 3.82812 12.48242 9.26758c-5.47103-1.64944-11.1903-2.71763-17.20708-2.7247z" fill="#6c131e" filter="url(#e)" stroke-width=".999999" transform="matrix(.26458334 0 0 .26458334 -16.706824 -11.275074)"/><path d="m-245.15593 112.10707c-.91879.0114-1.92688.10189-3.00757.25011 3.62909 2.69424 6.72573 5.95642 8.89713 9.28367.2185 0 .436.002.65268.006 2.37806.0514 4.67142.38253 7.00525.94775-2.06596-3.74584-3.9406-6.6063-6.24613-8.32146-1.81876-1.35291-3.95721-2.12812-6.91327-2.16576-.12728-.002-.25673-.002-.38809 0zm-12.06541 3.02203c-.0961-.00026-.19213.001-.28888.003-1.84876.0408-3.86455.51597-6.1681 1.46503 7.39507 2.4756 14.08254 6.64319 17.62632 11.00243 2.419-.67526 3.87541-1.93744 4.79867-3.79306-4.5746-3.86812-8.22392-6.76283-11.83958-7.9778-1.33845-.44991-2.6897-.69851-4.12843-.6997zm-.0269 6.94842c-5.18893.88958-10.43468 5.31303-13.95883 9.76581-1.9101 2.41342-3.63409 5.10876-5.01055 7.96334-.059.85931-.0915 1.72633-.0915 2.60087 0 20.60945 16.64824 37.2644 37.25716 37.2644 2.827 0 5.57882-.31496 8.2243-.90899l-9.97871-4.48862c-17.59126-6.36927-22.7459-37.4463-6.17017-34.33795.76847-1.86443 1.3055-3.68921 1.45004-5.45807l2.45205.20051c-.22167 2.71055-1.16183 5.32933-2.3735 7.88995-.0964.26788-.19385.54264-.28784.7984 4.32306 11.22029 14.9756 21.15159 22.31078 22.13974.12045.004.25066.00018.38861-.0114 2.23984.13624 4.72027-.5561 6.87245-2.93626l1.0511-1.1622-1.37873-.74466c-.85652-.46267-1.88073-.93387-2.39107-1.43815-.2551-.25221-.36764-.45674-.40462-.68368-.0371-.22706-.0171-.55641.29352-1.12913l1.40456-2.58744-2.82773.81907c-.82981.24023-2.27806-.39906-3.05718-1.40973-.38964-.50546-.57999-1.04083-.57722-1.4273.003-.38673.0947-.67486.62476-1.05989l2.56057-1.85932-3.14399-.3576c-1.31289-.14966-2.15479-.87662-2.52336-1.6185-.36883-.74161-.30446-1.32719.18086-1.75183l1.60662-1.4056-2.02158-.68523c-.88417-.29959-1.35519-.99424-1.36322-1.3994-.004-.18073.0312-.35086.24236-.58911 1.43874-.3146 2.79841-.0595 3.69745.83871.81006.80901 1.09902 1.99118.91829 3.26853 1.12546-.29669 2.23582-.21235 3.17397.32866 1.22943.7091 1.92827 2.06541 2.06292 3.68092 2.00239-1.33369 4.23209-1.67482 5.95777-.67955 2.03595 1.17416 2.81185 3.88489 2.21227 6.81199 3.15811-4.39057 4.55249-9.96713.73898-15.85278-6.15063-.58472-10.75346-4.03769-12.28039-8.90333-.66158-2.10821-2.80147-3.77387-5.52835-4.98936l-.0103.0284c-3.91473-1.42464-7.31537-2.28395-10.87324-2.466l.0103.0207c-.30197-.0123-.60054-.0211-.89039-.0227-1.25538 3.01096-3.77268 5.25211-7.56026 6.06217l-.77721.16588-.47078-.64027c-1.87128-2.54444-5.42717-5.32437-9.741-7.64398zm20.56309 8.59017c3.67608-.01 5.9067 1.52945 5.54023 5.85132-4.71821.44623-6.83582-2.19635-8.30234-5.61206.98816-.15204 1.91374-.2365 2.76211-.23874zm6.37222 8.73539-.00053.00052c.48809.009.93996.1307 1.31827.37001-.19876.14506-.38114.29988-.54726.46612-.69053.68976-1.06472 1.59563-1.04748 2.46703.0241 1.22707.69376 2.2622 1.66915 2.96985-.41332 1.0666-.32296 2.29758.185 3.31969.50192 1.00936 1.38757 1.87859 2.54093 2.42156-.19021.44309-.31245.90363-.31574 1.36012-.008 1.10663.44474 2.11151 1.08882 2.94711.89405 1.15968 2.21964 2.09764 3.68918 2.35748-.024.28697-.0268.57036.0176.84336.13822.84823.59402 1.53476 1.10277 2.0376.44888.4436.94669.77558 1.42162 1.05213-.8352.63079-1.63437.92865-2.45101 1.02526-.85758-1.04476-1.27816-2.51202-1.23868-4.14031-1.5489.81308-3.18674.94205-4.4912.18965-1.93077-1.11361-2.55272-3.82196-1.73581-6.62492-1.49218.36462-2.9127.12108-3.84163-.80718-1.16823-1.16692-1.25556-3.11007-.40773-4.99557-.48387-.081-.91643-.28481-1.25367-.62166-1.15941-1.1581-.75991-3.4343.89194-5.08445 1.03239-1.03133 2.30977-1.57405 3.40548-1.55339z" fill="#c20a0a" filter="url(#f)" stroke-width="6.08542"/></g><path d="m468.958 108.958c-27.507 2.08-48.997 7.94-71.375 22.572-5.333-2.214-12.62-17.738-16-16-11.82 6.08-14.892 19.555-4.916 32.817l-59.084 9.916c-24.776 3.341-49.567 4.838-74.187 5.334 1.326 3.832 2.96 7.636 4.812 10.05 5.219 6.802 20.323 6.21 21.07 14.75 1.935 22.098-24.876 47.415-47.056 47.057-15.401-.248-17.017-28.762-31.604-33.713-19.097-6.482-41.62 18.77-59.699 9.832-15.267-7.547-24.992-39.8-27.836-50.41-10.213-.127-20.327-.142-30.316.035-12.564.366-22.902 5.645-29.408 14.239-8.676 11.458-11.652 26.658-13.254 42.925-1.78 18.057 6.147 53.007 5.517 70.282-.504 13.85-7.493 11.87-11.912 18.888-13.52 21.47 8.894 20.83 17.014 5.56 12.482-23.473 4.253-63.11 7.195-92.974 1.855-35.76 10.597-23.937 15.664-24.588-4.2 13.065-6.21 30.962-7 51.334 6.895-2.342 36.498-11.6 42.73-.174 6.872 12.598-27.802 22.016-23.878 35.819 2.464 8.666 22.95 2.378 24.582 11.238 3.322 18.035-32.13 38.713-42.236 44.209.812 23.329 1.564 45.567 1.238 65.086h29.891c-4.234-16.543-12.038-49.944-4.06-55.084 21.425-18.091 29.836-37.484 42.732-56.428 8.755 2.556 16.92 4.787 24.782 6.672 3.553.972 7.244 1.771 10.984 2.44 24.859 4.967 61.553 5.678 90.783-.172 3.76 34.12 7.263 68.452 4.602 102.572h28.957c-12.375-26.902-4.263-65.044 13.892-86.27l44.934-33.462c24.881-16.384 42.93-37.996 55.982-63.38 30.402 3.413 57.086 3.29 77.192-.786l12.84-19.55c-24.257-17.857-43.3-36.585-62.948-58.13 10.063-14.533 25.027-22.765 39.375-32.506zm-39.375 54.572a8 8 0 1 1 0 16 8 8 0 0 1 0-16zm-63.383 19.951c5.029 9.822-26.17 10.808-24.933 21.772.998 8.847 22.204 3.839 23.53 12.643 3.818 25.373-28.44 53.805-54.08 54.78-14.262.544-34.902-14.06-32.308-28.093 2.605-14.092 34.551-1.657 40.383-14.748 4.724-10.603-18.352-22.01-12.992-32.307 6.264-12.032 30.364-22.553 41.934-22.646s15.606 3.347 18.466 8.6zm-26.585 126.346-34.707 23.96 6.464 69.255h34.414c-11.783-22.454-15.58-55.506-6.171-93.215zm-204.561 1.41c-6.047 12.184-14.147 21.97-22.174 31.242 5.97 3.235 11.648 5.414 17.154 6.614 11.218 2.443 21.636.333 29.948-4.408 10.056-5.737 17.521-14.452 24.115-23.368-14.615-.869-32.96-2.962-49.043-10.08zm24.252 52c-8.737 2.585-17.452 3.7-25.566 2.96 5.167 12.624 10.45 24.152 15.824 36.845h28.306c-10.393-18.48-16.148-29.285-18.564-39.805z" fill="#3d3846" stroke="#000" transform="matrix(.26458334 0 0 .26458334 134.95696 -118.94843)"/><path d="m868.62505 96.324267-13.63282-.169922c-10.34313-.128617-20.63719-.143968-30.85937.03711l-.10156.002-.10352.002c-17.31231.504318-33.33084 8.285265-43.23437 21.367185-12.10417 15.98623-15.10855 34.68346-16.81641 52.02539-1.25673 12.75228.68854 26.18805 2.38672 39.48047 1.69825 13.2931 3.25533 26.46222 3.05664 31.91016v.002c-.008.1638.0215.12825.0215.26367-1.65229 1.01177-5.35784 3.62096-9.17773 9.6875-4.55305 7.23053-7.98981 14.12903-6.82617 23.8125 1.16375 9.68411 11.8921 19.15799 20.2207 20.19727 6.95494.86787 12.84742-.26215 17.9375-2.76172.80281 23.0845 1.52256 44.89349 1.21094 63.55273l-.30469 18.30078h71.38086l-5.75-22.46484c-2.05417-8.02594-4.91315-20.09607-6.20703-29.74609-.56406-4.20691-.71955-7.72276-.66406-9.88282.76142-.68185 1.50434-1.36467 2.23632-2.04883l2.5918 1.4043c2.76287 1.49713 5.55107 2.6922 8.3418 3.8711l4.43554 10.83984c5.34116 13.04941 10.658 24.64889 15.90626 37.04492l4.65039 10.98242h71.00585l-15.08795-26.82441c-10.3152-18.34168-15.08693-27.94677-16.70899-35.00976l-.84961-3.69531c9.65182-7.11641 16.79903-15.69323 22.56836-23.49414l6.90821-9.33789c10.82555.10548 21.8616-.44969 32.70117-1.6504 2.77912 27.53306 4.64548 54.50359 2.60937 80.61133l-1.51172 19.40039h55.69922 20.8086 59.7754l-13.834-26.36523c-9.1452-17.42723-13.18-46.28398-4.6445-80.49219l4.9453-19.82031c21.239-15.20018 37.9029-34.1263 50.5527-55.5 26.6359 2.27587 50.6403 1.98401 70.6875-2.08008l7.3516-1.49023 26.3242-40.08204-13.7402-10.11523c-18.4523-13.58381-33.7017-27.73092-48.9258-43.630859 6.7472-5.655027 15.0696-11.015944 24.793-17.617187l28.4038-25.409856-38.5152-7.482722-16.957 1.327133c-11.4237 1.327134-31.421 6.375304-50.6992 16.354507-1.0194-1.328931-2.1759-2.737367-3.7949-4.361328-1.383-1.387109-2.9836-3.051265-6.5333-4.798828-3.5496-1.747563-11.1833-3.267308-17.621.04297v.002c-10.1559 5.224006-18.1522 15.159477-20.1367 26.660156-.4548 2.635468-.572 5.285911-.4492 7.923828l-37.752 6.335938c-23.8514 3.2081-47.9002 4.673123-71.9785 5.158203zm-86.9356 75.019483c-.0113.11165-.008.22425-.0195.33594-.0113.18644-.0339.30761-.043.49609zm69.69141 138.89453c.0695.0781.0225.4652-.22656 1.03516.008-.11244-.0115-.36344-.004-.46289.0378-.47337.16508-.64572.23047-.57227z" fill="#1a5fb4" transform="scale(.26458334)"/><path d="m322.96138 16.390611c-7.27789.550333-12.96379 2.100791-18.88463 5.972175-1.41102-.585788-3.33904-4.69318-4.23334-4.233334-3.12737 1.608667-3.94017 5.173927-1.30069 8.682832l-15.63264 2.623608c-6.55532.883973-13.1146 1.280054-19.62864 1.411288.35083 1.013883.78316 2.020358 1.27317 2.659062 1.38086 1.799696 5.37713 1.643063 5.57477 3.902605.51197 5.846762-6.58177 12.545219-12.45023 12.450498-4.07485-.06562-4.50242-7.609946-8.36189-8.919898-5.05275-1.71503-11.01196 4.966229-15.79536 2.601383-4.0394-1.99681-6.61247-10.530417-7.36495-13.337646-2.70219-.0336-5.37818-.03757-8.0211.0093-3.32423.09684-6.05949 1.493573-7.78087 3.767402-2.29553 3.031596-3.08293 7.053263-3.50679 11.35724-.47096 4.777582 1.6264 14.024769 1.45971 18.595447-.13335 3.664479-1.98253 3.140604-3.15172 4.99745-3.57717 5.680604 2.35321 5.511271 4.50162 1.471083 3.30253-6.210565 1.12527-16.697855 1.90368-24.599371.4908-9.461501 2.80379-6.333332 4.14443-6.505576-1.11125 3.456782-1.64306 8.19203-1.85208 13.582122 1.8243-.619655 9.65676-3.069167 11.30565-.04604 1.81821 3.333221-7.35595 5.825067-6.31773 9.477111.65194 2.292879 6.07219.629179 6.50399 2.973387.87895 4.771761-8.50106 10.242815-11.17494 11.696965.21484 6.172465.41381 12.056269.32755 17.220672h7.90866c-1.12024-4.377003-3.18505-13.214351-1.0742-14.574309 5.66869-4.786577 7.8941-9.917642 11.30617-14.929909 2.31643.676275 4.47675 1.266561 6.55691 1.7653.94006.257175 1.91664.468577 2.90618.645584 6.57728 1.314185 16.2859 1.502304 24.01967-.04551.99483 9.027584 1.92167 18.111259 1.21761 27.138843h7.66154c-3.27422-7.117821-1.12792-17.209559 3.67559-22.825605l11.88879-8.853488c6.5831-4.334933 11.35856-10.053109 14.81191-16.769292 8.04386.903023 15.104.870479 20.42371-.207963l3.39725-5.172604c-6.418-4.724665-11.45646-9.679781-16.65499-15.380229 2.6625-3.84519 6.62173-6.02324 10.41797-8.600546zm-10.41797 14.438842a2.1166667 2.1166667 0 1 1 0 4.233333 2.1166667 2.1166667 0 0 1 0-4.233333zm-16.77008 5.278702c1.33059 2.598737-6.92415 2.859617-6.59686 5.760508.26406 2.340769 5.87481 1.015736 6.22565 3.345127 1.01018 6.713274-7.52475 14.235907-14.30867 14.493876-3.77349.143933-9.23449-3.720042-8.54816-7.43294.68924-3.728508 9.14162-.438415 10.68467-3.902075 1.24989-2.805377-4.85563-5.823479-3.43746-8.547894 1.65735-3.183467 8.0338-5.967148 11.09503-5.991754 3.06123-.02461 4.12909.88556 4.8858 2.275416zm-7.03395 33.429046-9.18289 6.339417 1.71026 18.32372h9.10537c-3.11758-5.940955-4.1222-14.685963-1.63274-24.663137zm-54.12343.373063c-1.59994 3.223683-3.74306 5.812896-5.86687 8.266113 1.57956.855927 3.08186 1.432454 4.53866 1.749954 2.9681.646377 5.72453.08811 7.92374-1.166283 2.66065-1.517915 4.63577-3.823759 6.38043-6.182784-3.86689-.229923-8.72067-.783696-12.97596-2.667zm6.41667 13.758334c-2.31166.683948-4.6175.978958-6.76433.783166 1.3671 3.3401 2.76489 6.390217 4.18676 9.748574h7.4893c-2.74982-4.889501-4.27249-7.748324-4.91173-10.53174z" fill="#1c71d8"/><path d="m466.40708 13.066971-4.48654.350883c-3.02252.351138-8.31348 1.687054-13.41417 4.327384-.26971-.351613-.5757-.724261-1.00407-1.153934-.36591-.367006-.78938-.807314-1.7286-1.26969-.93916-.462376-2.95891-.864476-4.66222.01137v.000529c-2.68708 1.382185-4.8028 4.010945-5.32786 7.053833-.12033.697301-.15134 1.398564-.11885 2.096513l-9.98853 1.676384c-6.31068.848809-12.67362 1.23643-19.04432 1.364774l-33.36231-.599976-3.60701-.04496c-2.73662-.03403-5.46026-.03809-8.16488.0098l-.0269.00053-.0274.000529c-4.58055.133434-8.81879 2.192144-11.43909 5.653402-3.20257 4.22969-3.99748 9.176665-4.44935 13.765051-.33251 3.374041.18218 6.928922.63149 10.445875.44933 3.517133.86131 7.001462.80874 8.442896v.00053c-.002.04334.006.03393.006.06976-.43716.267698-1.41759.958046-2.42827 2.563151-1.20466 1.913078-2.11397 3.738306-1.80609 6.300391.30791 2.562254 3.14645 5.068885 5.35006 5.343861 1.84016.229624 3.39921-.06936 4.74596-.730705.21241 6.107774.40284 11.87807.32039 16.814994l-.0806 4.842084h18.88619l-1.52136-5.943825c-.5435-2.12353-1.29994-5.317085-1.64228-7.87032-.14924-1.113078-.19038-2.043314-.17569-2.614829.20145-.180407.39802-.361069.59169-.542087l.68575.371555c.731.396115 1.46872.712311 2.2071 1.024228l1.17357 2.868041c1.41318 3.452657 2.81993 6.521686 4.20853 9.801469l1.23041 2.905768h18.78697l-3.99201-7.097283c-2.72923-4.852903-3.99175-7.39425-4.42092-9.262999l-.22479-.977717c2.55371-1.882884 4.44474-4.152168 5.97121-6.216159l1.8278-2.47065c2.86426.02791 5.78422-.11898 8.65219-.436668.7353 7.284789 1.22911 14.420742.69039 21.328415l-.39997 5.133021h14.73708 5.50561 15.81557l-3.66024-6.975802c-2.41967-4.610954-3.48721-12.24597-1.22886-21.296892l1.30845-5.244124c5.61948-4.021714 10.02847-9.02925 13.3754-14.684375 7.04741.602157 13.39858.524936 18.70273-.550355l1.94511-.39429 6.96495-10.60504-3.63543-2.676321c-4.88217-3.59405-8.91691-7.33714-12.94495-11.543999 1.7852-1.496226 3.98716-2.914635 6.55981-4.661214l7.51528-6.723104zm0 4.763017c-3.79625 2.577306-7.75547 4.755319-10.41797 8.600509 5.19853 5.700448 10.23681 10.655274 16.6548 15.379939l-3.39722 5.172813c-5.31969 1.078442-12.3797 1.111279-20.42356.208256-3.45334 6.716181-8.22891 12.434068-14.81201 16.769001l-11.88868 8.853723c-4.80351 5.616046-6.94997 15.70766-3.67575 22.825481h-7.66154c.70406-9.027584-.22267-18.111328-1.21748-27.138911-7.73378 1.547812-17.44246 1.359659-24.01974.04547-.98954-.177007-1.96622-.388263-2.90628-.645438-2.08016-.49874-4.24027-1.088993-6.55671-1.765269-3.41207 5.01227-5.63759 10.143263-11.30628 14.92984-2.11085 1.359959-.0459 10.197302 1.07435 14.574304h-7.90856c.0863-5.164402-.11279-11.048188-.32763-17.220653 2.67388-1.45415 12.05398-6.925202 11.17503-11.696962-.4318-2.344209-5.85206-.680583-6.504-2.973462-1.03822-3.652044 8.13566-6.14372 6.31745-9.476941-1.64889-3.023127-9.48147-.573662-11.30577.04599.20902-5.390091.74083-10.125334 1.85208-13.582118-1.34064.172246-3.65365-2.955954-4.14445 6.505549-.77841 7.901514 1.39929 18.388449-1.90324 24.599014-2.14841 4.040187-8.07922 4.209894-4.50205-1.47071 1.16919-1.856846 3.01839-1.333151 3.15174-4.997628.16669-4.57068-1.9303-13.817666-1.45934-18.595248.42386-4.303977 1.21123-8.325853 3.50676-11.357449 1.72138-2.273826 4.45669-3.670371 7.78092-3.767211 2.64292-.04687 5.31851-.0429 8.0207-.0093.75248 2.807229 3.32553 11.340875 7.36493 13.337686 4.7834 2.364846 10.74267-4.316421 15.79542-2.601392 3.85947 1.309952 4.28743 8.85425 8.36228 8.919869 5.86846.09472 12.96184-6.60364 12.44987-12.450403-.19761-2.259541-4.19399-2.102908-5.57484-3.902604-.49001-.638704-.92196-1.645385-1.27279-2.659269 6.51405-.131233 13.07294-.527309 19.62825-1.411282l15.63264-2.623614c-2.63948-3.508905-1.82668-7.074007 1.3007-8.682674.89431-.459846 2.82231 3.647546 4.23333 4.233333 5.92085-3.871384 11.60674-5.421912 18.88464-5.972245zm-10.41797 14.438911a2.1166667 2.1166667 0 0 0 0 4.233333 2.1166667 2.1166667 0 1 0 0-4.233333zm-21.65551 3.003436c-3.06123.02461-9.43759 2.808415-11.09494 5.991882-1.41816 2.724414 4.68689 5.742421 3.43699 8.547798-1.54305 3.463661-9.99537.17358-10.68461 3.902089-.68633 3.712898 4.77483 7.576553 8.54831 7.432622 6.78392-.257971 15.31888-7.780417 14.3087-14.49369-.35084-2.329392-5.96141-1.004247-6.22546-3.345016-.32729-2.900892 7.92707-3.161636 6.59648-5.760371-.7567-1.389856-1.82425-2.299925-4.88547-2.275314zm-84.06569 11.501623c-.003.02954-.002.05933-.005.08888-.003.04933-.009.08139-.0114.131258zm81.91748 24.202658c-2.48946 9.977173-1.48511 18.722139 1.63248 24.663094h-9.1054l-1.70997-18.323947zm-54.12331.373105c4.2553 1.883302 9.10907 2.437096 12.97596 2.667019-1.74466 2.359025-3.71984 4.664654-6.38049 6.182569-2.19921 1.254392-4.95597 1.812713-7.92407 1.166336-1.4568-.3175-2.95918-.893837-4.53874-1.749764 2.12381-2.453216 4.2674-5.042479 5.86734-8.26616zm-9.35498 12.173416c.0184.02066.006.123084-.0599.273886.002-.02975-.003-.09616-.001-.122473.01-.125246.0437-.170847.061-.151413zm15.77165 1.584918c.63924 2.783414 2.1615 5.642155 4.91132 10.531655h-7.48894c-1.42187-3.358357-2.81973-6.408658-4.18683-9.748759 2.14683.195792 4.45279-.09895 6.76445-.782896z" fill="#3584e4"/></g></svg>