<svg height="500" viewBox="0 0 132.29167 132.29167" width="500" xmlns="http://www.w3.org/2000/svg" xmlns:xlink="http://www.w3.org/1999/xlink"><linearGradient id="a" gradientTransform="matrix(.7085258 0 0 .84249583 -140.28288 -243.31346)" gradientUnits="userSpaceOnUse" spreadMethod="reflect" x1="0" x2="132.29167" xlink:href="#b" y1="66.145836" y2="66.145836"/><linearGradient id="b" gradientTransform="matrix(391.593 0 0 -391.593 60.7962 7618.49)" gradientUnits="userSpaceOnUse" spreadMethod="pad" x1="0" x2="1" y1="0" y2="0"><stop offset="0" stop-color="#9f571d"/><stop offset=".511236" stop-color="#fde791"/><stop offset="1" stop-color="#b7671e"/></linearGradient><linearGradient id="c" gradientTransform="matrix(.7085258 0 0 .84249583 -140.28288 -243.31346)" gradientUnits="userSpaceOnUse" spreadMethod="reflect" x1="26.799194" x2="46.455154" xlink:href="#b" y1="403.44403" y2="338.54095"/><linearGradient id="d" gradientTransform="matrix(.7085258 0 0 .84249583 -140.28288 -243.31346)" gradientUnits="userSpaceOnUse" spreadMethod="reflect" x1="-14.457483" x2="111.63048" xlink:href="#b" y1="352.03946" y2="332.7601"/><filter id="e" color-interpolation-filters="sRGB" height="1.425833" width="1.188539" x="-.094269" y="-.212917"><feGaussianBlur stdDeviation="2.7455882"/></filter><g transform="translate(172.18207 5.558359)"><path d="m-119.29449 101.7626c1.11832-.32104 2.04338-.5813 3.26189-1.24237l66.13343-35.920285c1.79668-1.492456 3.10269-2.7437 3.70417-4.625041.65399-2.045624.30998-4.268497-.3633-6.432167l-11.10353-18.48262c-.2975-1.124305-1.0691-2.157436-1.98311-3.163182-1.7261-1.89935-4.4442-3.220205-5.55232-4.065401l-11.31146-5.953223c-3.12373-1.309876-6.3106-3.335522-9.75964-3.455758-3.92513-.136832-7.35986 1.511137-11.35372 3.149787l-7.41449 3.906134-38.07864 20.062354c-2.14936 1.210691-4.07405 2.390445-5.57104 4.15963-.86627 1.023783-1.19653 1.934822-1.84025 3.577781l-13.64063 22.184093c-.54084.940395-1.34104 3.357496-.86765 4.971788.55652 1.897825 2.09693 3.42147 4.01473 4.368726l29.17653 15.525674c1.45072.86658 2.00185.94215 3.05518 1.26824 1.63043.50473 3.30428 1.04216 5.01101 1.0522 1.52318.009 3.01876-.46606 4.48284-.88636z" fill="#86522c"/><path d="m-127.18961 101.8013c1.35349.0323 2.88611-.173 3.92635-1.03954 1.18222-.984803 1.92386-3.248173 1.9683-4.175307.0424-8.804973.0407-18.137985 0-27.191797l-29.23142-16.116331-13.64087 22.184071c-.54082.940395-1.34078 3.357423-.86739 4.971715.55653 1.897825 2.09702 3.421315 4.01482 4.368571l29.17649 15.525958c1.45072.86659 3.02712 1.43389 4.65372 1.47266z" fill="#86522c"/><path d="m-129.60643 96.125114c4.02815 2.418064 3.72614 2.058844 3.74406-2.309644v-20.567941l-23.92493-12.628902-9.74846 16.343679s-1.09659 1.48202-.89116 2.267825c.18919.723712 1.73791 1.419734 1.73791 1.419734z" fill="url(#a)"/><path d="m-57.66175 35.060089-68.20062 38.18744v20.567941c-.008.72125-.33944 3.335524.41365 4.726068.83818 1.547652 2.4336 2.887222 4.15376 3.259762 1.76442.38212 4.04374-.62018 5.26225-1.28125l66.1338-35.919923c1.79667-1.492455 3.10262-2.743659 3.70409-4.625.65399-2.045624.31001-4.268949-.36327-6.432617z" fill="#86522c"/><path d="m-50.92491 55.328592-8.31879-13.422705-61.99951 32.196799v19.712784c-.0141 1.981501-.64839 4.465308 2.94 2.518519l65.60404-35.591955s1.6682-1.325868 1.98965-2.282676c.33313-.991591-.21539-3.130766-.21539-3.130766z" fill="url(#c)"/><path d="m-76.50872 21.878311c-3.12373-1.309876-6.3106-3.335522-9.75964-3.455758-3.92513-.136832-7.35986 1.511137-11.35372 3.149787l-7.41449 3.906134-38.07864 20.062354c-2.14936 1.210691-4.1796 2.306285-5.57104 4.15963-1.22458 1.631092-2.17381 3.690297-2.14722 5.729747.0222 1.70325.89084 3.377518 1.91739 4.736834 1.3715 1.816074 3.38706 2.872848 5.38607 4.195526l11.17807 5.834766c3.69525 1.905465 7.33313 3.98892 11.32511 3.902796 3.72291-.08032 7.01022-2.140144 10.39496-4.091858l6.71722-3.523108 39.12167-20.518901c2.15259-.937265 4.16751-2.231665 5.54928-4.060373 1.09191-1.445091 1.96227-3.285071 1.88888-5.094813-.0732-1.805705-.85587-3.457699-2.29012-4.914139-1.80081-1.828673-4.4442-3.220205-5.55232-4.065401z" fill="#86522c"/><path d="m-63.75172 34.072389c-1.9766-1.528023-6.61069-3.532003-6.61069-3.532003l-9.98667-5.271518c-2.09305-1.104829-4.1908-1.700451-6.3983-1.708742-2.31005-.0087-4.55433.904253-6.70877 1.737775-1.86994.723451-5.32179 2.803398-5.32179 2.803398l-39.3209 20.713356s-4.38674 1.723869-6.06265 3.300454c-.87633.824389-1.873 1.856536-1.91602 3.058915-.0487 1.361152.23326 2.271251 1.91602 3.608993 5.6898 2.770753 18.29911 9.317612 18.29911 9.317612s3.02139 1.351787 4.61917 1.292609c1.99731-.07398 3.80982-1.232748 5.63886-2.038544 2.36223-1.040694 6.85791-3.5969 6.85791-3.5969l38.70747-20.301646s4.85235-1.850678 6.74979-3.540198c.92565-.82422 2.18663-1.835139 2.09595-3.071239-.092-1.254123-1.56361-2.003225-2.55849-2.772322z" fill="url(#d)"/><path d="m-75.80949 33.39719 6.77201 3.447521-52.20573 27.500792-17.69401-9.44245 6.7056-3.547269 10.98868 5.871105 45.43425-23.829434z" fill="#fde791" filter="url(#e)"/></g></svg>