<svg height="500" viewBox="0 0 132.29167 132.29167" width="500" xmlns="http://www.w3.org/2000/svg" xmlns:xlink="http://www.w3.org/1999/xlink"><linearGradient id="a"><stop offset="0" stop-color="#93a0aa"/><stop offset=".25" stop-color="#9da9b2"/><stop offset=".375" stop-color="#7f8f9a"/><stop offset=".5" stop-color="#93a0aa"/><stop offset=".75" stop-color="#7c8c98"/><stop offset="1" stop-color="#93a0aa"/></linearGradient><linearGradient id="b" gradientTransform="matrix(.7085258 0 0 .84249583 31.89919 -237.75511)" gradientUnits="userSpaceOnUse" spreadMethod="reflect" x1="-35.224812" x2="26.872232" xlink:href="#a" y1="388.2981" y2="371.16705"/><linearGradient id="c" gradientTransform="matrix(.7085258 0 0 .84249583 31.89919 -237.75511)" gradientUnits="userSpaceOnUse" spreadMethod="reflect" x1="26.799194" x2="116.60991" xlink:href="#a" y1="403.44403" y2="330.41534"/><linearGradient id="d" gradientTransform="matrix(.7085258 0 0 .84249583 31.89919 -237.75511)" gradientUnits="userSpaceOnUse" spreadMethod="reflect" x1="-14.457483" x2="111.63048" xlink:href="#a" y1="352.03946" y2="332.7601"/><filter id="e" color-interpolation-filters="sRGB" height="1.244395" width="1.108207" x="-.054103" y="-.122197"><feGaussianBlur stdDeviation="1.5757508"/></filter><g><path d="m112.53713 37.455294c-1.7261-1.89935-4.4442-3.220205-5.55232-4.065401l-11.31146-5.953222c-3.12373-1.309876-6.3106-3.335523-9.75964-3.455758-3.92513-.136832-7.35986 1.511137-11.35372 3.149787l-7.41449 3.906134-38.07864 20.062353c-2.14936 1.210691-4.07405 2.390445-5.57104 4.15963-.86627 1.023783-1.19653 1.934822-1.84025 3.577781l-13.64063 22.184093c-.54084.940395-1.34104 3.357496-.86765 4.971789.55652 1.897824 2.09693 3.421469 4.01473 4.368725l29.17653 15.525675c1.45072.86658 3.02737 1.434 4.65397 1.47276h5.89473c1.76443.38213 4.04371-.61998 5.26222-1.28105l66.13343-35.920286c1.79668-1.492455 3.10269-2.743699 3.70417-4.62504.65399-2.045625.30998-4.268498-.3633-6.432168l-11.10353-18.48262c-.2975-1.124305-1.0691-2.157435-1.98311-3.163182z" fill="#4a4c4f"/><path d="m44.99246 107.35965c1.35349.0323 2.88611-.173 3.92635-1.03953 1.18222-.9848 1.92386-3.24817 1.9683-4.17531.0424-8.804971.0407-18.137983 0-27.191795l-29.23142-16.116331-13.64087 22.184071c-.54082.940395-1.34078 3.357423-.86739 4.971715.55653 1.897825 2.09702 3.421315 4.01482 4.368571l29.17649 15.525959c1.45072.86659 3.02712 1.43388 4.65372 1.47265z" fill="#4a4c4f"/><path d="m42.57564 101.68347c4.02815 2.41807 3.72614 2.05885 3.74406-2.309641v-20.567941l-23.92493-12.628902-9.74846 16.34368s-1.09659 1.48202-.89116 2.267825c.18919.723712 1.73791 1.419734 1.73791 1.419734z" fill="url(#b)"/><path d="m114.52032 40.618448-68.20062 38.187441v20.567941c-.008.72125-.33944 3.33552.41365 4.72607.83818 1.54765 2.4336 2.88722 4.15376 3.25975 1.76442.38212 4.04374-.62017 5.26225-1.28124l66.1338-35.919923c1.79667-1.492455 3.10262-2.743659 3.70409-4.625.65399-2.045624.31001-4.268949-.36327-6.432617z" fill="#4a4c4f"/><path d="m121.25716 60.886951-8.31879-13.422705-61.99951 32.196799v19.712784c-.0141 1.981501-.64839 4.465311 2.94 2.518521l65.60404-35.591957s1.6682-1.325868 1.98965-2.282675c.33313-.991592-.21539-3.130767-.21539-3.130767z" fill="url(#c)"/><path d="m95.67335 27.436671c-3.12373-1.309876-6.3106-3.335523-9.75964-3.455758-3.92513-.136832-7.35986 1.511137-11.35372 3.149787l-7.41449 3.906134-38.07864 20.062353c-2.14936 1.210691-4.1796 2.306286-5.57104 4.15963-1.22458 1.631093-2.17381 3.690297-2.14722 5.729747.0222 1.70325.89084 3.377519 1.91739 4.736834 1.3715 1.816074 3.38706 2.872849 5.38607 4.195526l11.17807 5.834766c3.69525 1.905466 7.33313 3.98892 11.32511 3.902796 3.72291-.08032 7.01022-2.140144 10.39496-4.091858l6.71722-3.523108 39.12167-20.518901c2.15259-.937264 4.16751-2.231665 5.54928-4.060372 1.09191-1.445091 1.96227-3.285072 1.88888-5.094814-.0732-1.805705-.85587-3.457698-2.29012-4.914139-1.80081-1.828672-4.4442-3.220205-5.55232-4.065401z" fill="#4a4c4f"/><path d="m108.43035 39.630748c-1.9766-1.528023-6.61069-3.532003-6.61069-3.532003l-9.98667-5.271518c-2.09305-1.104829-4.1908-1.700451-6.3983-1.708742-2.31005-.0087-4.55433.904253-6.70877 1.737775-1.86994.723451-5.32179 2.803398-5.32179 2.803398l-39.3209 20.713356s-4.38674 1.723869-6.06265 3.300454c-.87633.824389-1.873 1.856536-1.91602 3.058915-.0487 1.361152.23326 2.271251 1.91602 3.608993 5.6898 2.770753 18.29911 9.317612 18.29911 9.317612s3.02139 1.351787 4.61917 1.292609c1.99731-.07398 3.80982-1.232748 5.63886-2.038544 2.36223-1.040694 6.85791-3.5969 6.85791-3.5969l38.70747-20.301646s4.85235-1.850678 6.74979-3.540198c.92565-.82422 2.18663-1.835139 2.09595-3.071239-.092-1.254123-1.56361-2.003225-2.55849-2.772322z" fill="url(#d)"/><path d="m96.37258 38.955549 6.77201 3.447521-52.20573 27.500793-17.69401-9.44245 6.7056-3.547269 10.98868 5.871105 45.43425-23.829434z" fill="#9da9b2" filter="url(#e)"/></g></svg>