<svg height="500" viewBox="0 0 132.29167 132.29167" width="500" xmlns="http://www.w3.org/2000/svg" xmlns:xlink="http://www.w3.org/1999/xlink"><linearGradient id="a" gradientUnits="userSpaceOnUse" x1="116.132103" x2="22.66864" y1="0" y2="132.292314"><stop offset="0" stop-color="#d3b879"/><stop offset=".25" stop-color="#ebd6ad"/><stop offset=".5" stop-color="#ebd6ad"/><stop offset=".75" stop-color="#ebd6ad"/><stop offset="1" stop-color="#d3b879"/></linearGradient><filter id="b" color-interpolation-filters="sRGB" height="1.006074" width="1.005927" x="-.002964" y="-.003037"><feGaussianBlur stdDeviation=".35225928"/></filter><filter id="c" color-interpolation-filters="sRGB" height="1.008763" width="1.008521" x="-.00426" y="-.004381"><feGaussianBlur stdDeviation=".12334782"/></filter><linearGradient id="d" gradientTransform="matrix(-.83229951 0 0 .83229951 305.90967 25.353584)" gradientUnits="userSpaceOnUse" spreadMethod="repeat" x1="193.16023" x2="216.03746" y1="90.853073" y2="107.21975"><stop offset="0" stop-color="#2e2442"/><stop offset=".125" stop-color="#342a4b"/><stop offset=".25" stop-color="#322848"/><stop offset=".375" stop-color="#322947" stop-opacity=".95"/><stop offset=".5" stop-color="#322a46" stop-opacity=".98"/><stop offset=".75" stop-color="#2e2442" stop-opacity=".97"/><stop offset=".90573049" stop-color="#34284e"/><stop offset="1" stop-color="#2e2442"/></linearGradient><filter id="e" color-interpolation-filters="sRGB" height="1.040305" width="1.032526" x="-.016263" y="-.020152"><feGaussianBlur stdDeviation=".79680151"/></filter><path d="m250.4707 499.98252c51.835.039 104.53834.44093 157.50391-5.34765 23.52703-2.57129 63.66601-11.94336 63.66601-11.94336l20.95704-4.78907-8.40625-19.79687c-3.62583-17.49004-4.76016-37.13347-3.75586-52.85156 2.74125-40.11079 16.93348-78.89745 19.56445-119.01563.82783-12.6231.69137-24.46921.34447-42.18006-.34689-17.71086-3.70393-41.24364-10.31713-63.95285-2.60935-14.83079-5.05012-29.7543-6.34961-45.51563-2.71116-32.88338-4.95912-70.15255 6.76172-98.751949l9.07227-22.13086c-31.31324-3.171506-61.13792-7.4347299-87.3418-9.5429685l-13.60547 11.3652345-1.34961-12.5097658-15.11718-.9667968c-21.86813-1.39044747-38.84642-1.91868801-56.31446-2.02539065-5.82268-.03556755-16.5078-.02734375-22.63867-.02734375l-72.83689.32721653c-19.69041.32721654-47.16904 3.59837407-76.59084 5.94817407l-4.60938 8.8105474-.25781.496093-1.24609-7.4980466-16.01758.8046875c-16.98083.8557334-36.820718 3.3800201-54.957034 13.3808591-16.734322 9.227747-31.341428 23.054127-40.964844 40.189453-16.465591 29.318407-21.106486 61.290856-25.148437 87.197266-3.2490518 20.82441-5.7994558 41.62795-7.5839844 62.33594-1.94377399 12.57614-2.92389106 25.28234-2.93299587 38.00781l.00135527 27.97852c.01436867 46.72872-.62894005 93.96404 2.7929688 141.26953.9407191 13.00478 4.1699656 29.03511 14.3300782 43.82422 4.451018 6.4789 9.806394 11.40397 15.326172 15.69335 5.505744 4.27854 8.50915 8.11081 19.365234 9.82422 9.832331 1.66322 30.066099 3.74157 58.570317 5.875l12.77148.95899 10.22852-23.69336 15.71484 25.27344 9.36523.50195c25.46458 1.34785 54.43325 2.49136 81.95508 2.47266z" fill="#857347" stroke-width="3.77953" transform="scale(.26458334)"/><path d="m43.667127 6.1988049-6.649318 12.7232891-1.962733-11.8144838c-4.151997.209236-8.734935.8884646-12.483913 2.9557488-3.6649 2.020923-6.931432 5.134922-8.987607 8.796119-3.5936294 6.398768-4.9680452 14.21181-6.1007497 21.471745-1.7239508 11.049459-2.2092041 22.267477-2.7292176 33.438734-.5652131 12.142264-1.0750022 24.437952.6932615 36.463853.4873297 3.31431 1.1113893 6.8345 3.0041972 9.58967 1.4496055 2.11005 4.6865666 4.54405 6.0084106 4.7506 2.08291.35408 7.610648.94421 15.101134 1.50483l4.966963-11.50761 7.650707 12.30431c6.689358.35408 14.283448.65398 21.429996.64914 14.613556-.01 29.290534.20101 43.819142-1.38681 5.49586-.60065 16.3028-3.06871 16.3028-3.06871s-.84033-3.54005-1.04149-5.34358c-.4-3.58629-.56178-7.22034-.32107-10.82083.70788-10.588463 4.87617-20.80543 5.17179-31.413411.37415-13.42584-4.11707-26.631272-4.32122-40.060773-.14104-9.278493-1.4412-19.010796 2.14288-27.7560998-5.56781-.6078373-8.70335-1.1802678-14.75182-1.6700785l-8.93248 7.4651953-.88126-8.1733574c-7.610636-.4839091-12.854008-.5661144-19.284287-.5223869-5.84986.0397806-11.26574-.2361191-17.111594-.014796-6.768804.2562659-14.283499.9292252-20.732522 1.4396922z" fill="url(#a)" stroke-width="4.7625"/><g><path d="m120.99435 84.498078c-4.4205 6.010407-12.44616 6.337838-19.11376 7.825718-1.18834 4.458487-11.390947 5.322357-7.702135 10.697104 4.653938 2.04369 10.016985-7.310249 13.321475-.19156 2.54198 3.34967 6.87545 8.21058 6.71121 11.72413-6.8267 3.27837-12.98884 9.02763-20.923453 9.17834-5.413517-.96582-8.513856-6.18151-11.957658-9.96662-3.515145-4.70135-6.282635-9.94648-8.296738-15.456087.678637-6.54546 6.875222-12.150923 8.257832-17.353627-3.695578-3.695224-10.775126-2.986566-10.027005 3.462722-3.448778 4.456528-.491334 9.628262-.22453 14.770592-1.19189 5.32644-10.23719 8.13656-14.091893 4.41106-5.454576-6.113512-9.741323-13.101804-13.037868-20.582292-3.604197-3.085612-10.87935-1.221882-15.751454-3.501674-6.69195-1.598917-12.79112-4.869337-18.1693026-9.093062-1.8466958-1.314199-3.6933917-2.628399-5.5400876-3.942598 8.2666612.661265 16.5282042 1.384193 24.7911102 2.090299-8.104464-4.030397-13.844657-11.138192-20.2156703-17.327978 11.4983293 3.240657 22.7720943 7.291896 34.4396033 9.918598 5.034835-8.650907 5.966472-20.311453 15.114485-26.07172 13.880851-9.697969 32.85904-10.532513 47.976359-3.221459 5.25448 2.259293 10.26961 5.032806 15.17108 7.970349-3.4464 4.785422-8.63301-2.3058-12.83599-2.75373-11.479653-5.416906-24.910094-8.518118-37.269894-4.232272-4.515137 1.618004-9.320675 3.218726-13.084335 6.202787-7.369121 8.463084-7.504594 20.889155-15.086805 29.226961 3.366586.207625 9.105597-.194826 9.680729 5.309051 2.463511 6.191926-8.767057 7.593221-3.044442 13.244285 3.194111 4.517004 5.3166 9.967439 9.584815 13.610595 5.982427 3.45099 8.856443-3.846236 6.209619-8.547308-2.078481-5.778448 4.052925-10.30152 3.177569-16.299684-1.445339-3.818442 8.50475 1.23923 3.802307-3.65722-4.014409-6.106713-1.387212-13.735954 1.383025-19.7707 7.432353 1.921975-1.991416 8.985437.684711 13.966435.770304 6.202945 6.500566 9.450632 10.577274 13.361975 2.093993 5.84021-6.947925 10.180383-7.615322 16.38113-1.308158 5.299242 3.679843 10.249022 6.145094 14.785112 3.322965 3.52014 6.633902 10.33684 12.323924 8.56718 4.724011.0577 9.225461-4.35074 4.310241-8.05972-1.445941-5.00831-5.510211-2.57579-8.574883-1.97695 1.478255-4.67436-6.079465-7.74938-5.209134-10.338967 6.059892-2.903744 10.648953-7.739771 15.358707-12.080393 5.04759-3.681318 8.11752-10.279728 6.81062-16.506599 6.8765-2.47596 4.24042 7.776519 2.63329 11.19806-.96711 2.592498-5.73396 7.454566-.0914 4.903122 2.7532-.803257 6.93258-5.297432 9.39866-1.873385zm-98.210117-25.016493c4.738947 3.145488 11.335075 9.164098 16.344493 8.12496 3.027171-5.737826-7.057234-3.846417-10.111539-6.17238-2.081571-.638286-4.156606-1.297582-6.232954-1.95258zm-4.39952 12.122874c8.96674 4.318387 19.008548 6.995217 29.014206 5.992226 5.62746-4.602537-4.837674-5.995636-8.058759-4.528501-7.014805.09444-13.980423-.871863-20.955447-1.463725zm35.965216 9.63172c3.620829 2.034719-.420415 10.626045-1.878971 3.639527-.728304-1.475132.173614-3.461249 1.878971-3.639527zm3.07439 14.241134c4.56596-2.146154 5.657839 6.996847 1.777856 1.750967-.592619-.583656-1.185237-1.167311-1.777856-1.750967zm46.062701 8.932377c-4.489723 1.46221 2.75943 5.90339 3.03839 8.59076 5.48985 1.54289-.32877-6.22836-2.19113-7.74744z" fill="url(#d)"/><path d="m120.99435 84.498078c1.3293 6.755034-13.70758 3.562997-19.11376 7.825718-3.450282 2.720517-9.733328 6.800963-7.702135 10.697104 2.052981 3.93793 9.463695-2.39147 13.321475-.19156 3.9117 2.23066 8.12239 7.44793 6.71121 11.72413-2.38675 7.23236-13.38273 10.24656-20.923453 9.17834-5.137574-.72779-8.677591-5.94598-11.957658-9.96662-3.696335-4.53089-8.15495-9.61043-8.296738-15.456087-.155336-6.404191 12.527859-12.578204 8.257832-17.353627-2.35697-2.635938-7.953101.598739-10.027005 3.462722-2.88802 3.988245 2.721324 10.824873-.22453 14.770592-2.944626 3.94407-9.47061 6.10525-14.091893 4.41106-7.625154-2.79543-6.392569-15.913522-13.037868-20.582292-4.401057-3.092039-10.683183-1.700942-15.751454-3.501674-6.381724-2.267395-12.364815-5.603734-18.1693026-9.093062-1.9425998-1.167781-6.3200819-1.81445-5.5400876-3.942598 2.8538589-7.786512 21.5893592 9.740336 24.7911102 2.090299 3.426538-8.187129-24.4279703-9.516015-20.2156703-17.327978 5.6699353-10.515235 23.3564573 14.377542 34.4396033 9.918598 9.319411-3.749362 6.583459-20.767879 15.114485-26.07172 13.611905-8.462685 32.294838-6.536707 47.976359-3.221459 5.58891 1.181558 17.11661 2.599415 15.17108 7.970349-1.49037 4.114403-8.51741-2.047045-12.83599-2.75373-12.339029-2.01914-24.936164-6.283536-37.269894-4.232272-4.761312.79187-9.614083 2.848014-13.084335 6.202787-7.882559 7.620253-18.2883 18.741093-15.086805 29.226961 1.074683 3.519912 8.17462 1.951022 9.680729 5.309051 1.853786 4.133212-3.916867 8.799193-3.044442 13.244285 1.068686 5.445061 4.036022 13.569695 9.584815 13.610595 3.521518.026 4.804543-5.318141 6.209619-8.547308 2.208593-5.075822.530077-11.438343 3.177569-16.299684.841074-1.544386 3.057498-2.064175 3.802307-3.65722 2.798006-5.984552-5.222954-19.839581 1.383025-19.7707 4.660816.0486-.954169 9.602991.684711 13.966435 1.997351 5.317857 9.91294 7.720373 10.577274 13.361975.704212 5.980257-7.491114 10.360834-7.615322 16.38113-.110089 5.335962 2.794921 10.630482 6.145094 14.785112 3.140493 3.8946 7.459678 9.73754 12.323924 8.56718 2.962092-.71269 5.570751-5.28609 4.310241-8.05972-1.213612-2.67044-6.267252-.16616-8.574883-1.97695-3.035932-2.38228-6.046769-6.57194-5.209134-10.338967 1.413798-6.358165 11.428189-6.88654 15.358707-12.080393 3.5918-4.746264.8776-16.983334 6.81062-16.506599 3.82218.307123 2.22698 7.385144 2.63329 11.19806.17321 1.625455-1.3455 3.854624-.0914 4.903122 2.45081 2.049019 6.21959-1.559637 9.39866-1.873385.00001-.000001.00002-.000007.00002 0zm-98.210117-25.016493c-2.27063 5.64462 13.402554 13.450604 16.344493 8.12496 1.909422-3.456531-6.515308-4.54124-10.111539-6.17238-1.98279-.899333-5.420416-3.97249-6.232954-1.95258zm-4.39952 12.122874c-1.345781 9.78338 25.555549 15.242272 29.014206 5.992226 1.079158-2.886168-5.106849-3.644886-8.058759-4.528501-6.708084-2.007976-20.001229-8.400571-20.955447-1.463725zm35.965216 9.63172-1.878971 3.639527zm3.07439 14.241134 1.777856 1.750967zm46.062701 8.932377c-2.56725 1.6233.14371 9.51094 3.03839 8.59076 2.55766-.81305-.83051-5.43414-2.19113-7.74744-.20202-.34347-.51047-1.05628-.84726-.84332z" fill="url(#d)" filter="url(#e)" opacity=".25"/><g stroke-width="3.14797" transform="matrix(.31766516 0 0 .31766516 111.74495 -12.91511)"><path d="m-233.65799 75.060863c-.007-.000026-.013.002-.0195.002-9.80064-.03336-19.58638 4.045083-25.45313 7.138671-2.16431 1.141119-6.14429 3.468932-11.11328 5.861329-4.96899 2.392403-10.80902 4.743423-15.71094 5.691413-8.62123 1.66677-15.49799 6.523314-19.20898 12.669924-1.8555 3.0733-2.93803 6.56573-2.6543 10.17969.28373 3.61395 2.12392 7.22905 5.19922 9.75586 6.30637 5.18129 9.10824 10.64358 9.55859 15.74023.45036 5.09665-1.37531 10.163-5.82226 14.86328-7.20693 7.61766-7.35029 18.06404-2.7168 25.40625s13.66029 12.14313 23.82813 10.91992c8.00037-.96231 13.23766-.83978 17.14648.23438 3.90883 1.07415 6.87005 3.04191 10.75391 6.92383 6.99276 6.98803 17.36719 8.73991 26.74414 6.8457 9.37694-1.89422 18.38381-7.64565 22.07226-17.20117 2.61913-6.78398 5.45807-12.72705 12.52149-15.23828 6.74006-2.39537 11.48635-7.61325 13.18945-13.65625 1.70311-6.043.35698-12.89082-4.0957-18.21875h-.002c-2.08066-2.48946-2.80364-4.13888-2.74415-6.83008.0595-2.6912 1.27236-6.80182 4.58008-12.83203 3.51844-6.41456 4.19717-13.86964.70117-19.83399-3.49599-5.964344-10.90416-9.345074-20.15234-8.828124-4.81145.26889-7.52737-.94024-10.75781-3.41602-3.23044-2.47577-6.65187-6.459841-11.1875-10.882815v-.002c-4.07471-3.972954-9.52225-5.272276-14.65625-5.292969zm-.041 9.97461c.00074.000003.001-.000003.002 0 3.52993.01457 6.06496.835125 7.73242 2.460937 4.12443 4.021996 7.60321 8.224186 12.08398 11.658206 4.48077 3.434024 10.28554 5.857464 17.38086 5.460944 6.78397-.37921 9.65521 1.63449 10.99024 3.9121 1.33502 2.27762 1.39799 5.91233-.83985 9.99219-3.69975 6.74491-5.69339 12.19703-5.80859 17.4082-.1152 5.21118 2.01854 9.80291 5.06445 13.44727 2.45771 2.94082 2.97448 6.18619 2.14844 9.11719-.82605 2.931-3.00087 5.56731-6.92774 6.96289h-.002c-11.08168 3.93982-15.66631 13.74565-18.48437 21.04492-2.16889 5.61884-8.00311 9.65428-14.74219 11.01563-6.73908 1.36134-13.75566-.16264-17.71875-4.12305-4.55978-4.5575-9.31695-7.88006-15.16211-9.48633s-12.39545-1.55412-20.98047-.52148c-6.41729.77201-11.63562-2.27253-14.20117-6.33789s-2.86293-8.58805 1.52734-13.22852c6.05409-6.39898 9.23221-14.4419 8.51172-22.5957s-5.26477-16.08349-13.16015-22.57032c-1.1956-.98235-1.50533-1.75347-1.58985-2.83007-.0845-1.0766.24727-2.58135 1.25-4.24219 2.00546-3.32169 6.62039-6.88207 12.56445-8.03125 6.38785-1.23536 12.77289-3.913744 18.14454-6.500004 5.37164-2.58626 9.84817-5.18547 11.4375-6.02344 4.80536-2.533909 14.04387-6.016323 20.77929-5.990233z" fill="#6c131e" stroke-width="3.14797"/><path d="m-233.67812 80.048213c-8.27141-.03281-17.78794 3.750204-23.12618 6.565106-3.75364 1.979084-16.91322 9.855197-28.20299 12.038547-14.56531 2.815964-22.98647 16.835434-14.44466 23.853774 14.20177 11.66813 14.6931 26.78536 4.19205 37.88463-11.59721 12.25815.30692 29.94184 16.89206 27.94662 16.58541-1.99496 23.57888.14366 32.02252 8.58308 10.95587 10.94846 34.78134 6.55029 40.63868-8.62409 2.7186-7.04163 6.43044-14.9151 15.503-18.14063 10.66694-3.79095 13.84697-15.70911 6.93658-23.97787-5.12657-6.13383-5.71765-12.4841 1.28984-25.25924 5.75628-10.49443 1.23217-22.179234-14.79999-21.283084-11.90678.665424-17.04579-7.2644-25.70586-15.709374-2.87126-2.799557-6.86277-3.860007-11.19532-3.877469z" fill="#c20a0a" stroke-width="31.4003"/><path d="m-239.05243 95.443479c-25.8613 0-46.97079 21.099831-46.97079 46.963031 0 25.86295 21.10837 46.97284 46.97079 46.97284 25.86241 0 46.97078-21.10989 46.97078-46.97284 0-25.86249-21.10938-46.963031-46.97078-46.963031z" fill="#6c131e" stroke-width="3.14797"/><path d="m-239.05234 105.15056c-20.60893 0-37.25677 16.64706-37.25677 37.25678 0 20.60945 16.64811 37.26471 37.25703 37.26471 20.6084 0 37.26498-16.655 37.26498-37.26445 0-20.60893-16.65632-37.25677-37.26498-37.25677z" fill="#c20a0a" stroke-width="31.4003"/><path d="m-920.52927 467.43942c-5.58909 1.05502-11.30953 2.76071-17.28515 5.22266l-28.51367 11.74805 29.24414 9.78906c3.26725 1.09376 6.49695 2.28987 9.67187 3.57226-17.47003 7.74917-32.36177 21.94399-43.49414 36.00977-7.71534 9.74835-14.67535 20.61841-20.2793 32.24023l-.96093 1.9961-.15235 2.21094c-.23924 3.48725-.37304 7.02705-.37305 10.61718 0 84.08701 68.22681 152.3418 152.31446 152.3418 11.53886 0 22.78934-1.28657 33.60351-3.71484l33.65625-7.5586-69.56836-31.29297-.40625-.14648c-27.95187-10.12052-47.95099-42.21489-52.66992-69.47266-2.35948-13.6289-.62176-25.44943 3.11328-31.5664 3.18078-5.20917 6.95916-7.81127 15.54493-7.10352l-.82227 2.23633 1.55664 4.03906c8.89965 23.09855 23.90307 44.20088 40.60352 60.44922 16.70041 16.24834 34.73237 28.04065 52.91601 30.49024l.57422.0781.58008.0195c.69051.0242 1.35402.005 2.00976-.0312 11.15653.43709 24.2631-3.74406 34.34375-14.89258l13.80274-15.25976 10.80859-9.32422c13.69459-19.03892 20.01888-46.78418 3.10742-72.88477l-3.02343-4.66797-5.53907-.52734c-19.53819-1.85745-32.26973-12.07115-36.52929-25.64453-4.10347-13.07622-15.35431-20.64424-27.18555-25.91797l-8.89648-3.9668-3.37696-6.12304c-8.03346-14.56562-15.58306-26.76765-26.81445-35.12305-6.37742-4.74395-14.09769-8.05702-22.95898-9.55273l-11.68358-.89832c-4.11065.0533-8.34623.44535-12.74609 1.04883l-27.91797 3.82812 12.48242 9.26758c-5.47103-1.64944-11.1903-2.71763-17.20708-2.7247z" fill="#6c131e" filter="url(#b)" stroke-width="3.14797" transform="matrix(.26458334 0 0 .26458334 -16.706824 -11.275074)"/><path d="m-245.15593 112.10707c-.91879.0114-1.92688.10189-3.00757.25011 3.62909 2.69424 6.72573 5.95642 8.89713 9.28367.2185 0 .436.002.65268.006 2.37806.0514 4.67142.38253 7.00525.94775-2.06596-3.74584-3.9406-6.6063-6.24613-8.32146-1.81876-1.35291-3.95721-2.12812-6.91327-2.16576-.12728-.002-.25673-.002-.38809 0zm-12.06541 3.02203c-.0961-.00026-.19213.001-.28888.003-1.84876.0408-3.86455.51597-6.1681 1.46503 7.39507 2.4756 14.08254 6.64319 17.62632 11.00243 2.419-.67526 3.87541-1.93744 4.79867-3.79306-4.5746-3.86812-8.22392-6.76283-11.83958-7.9778-1.33845-.44991-2.6897-.69851-4.12843-.6997zm-.0269 6.94842c-5.18893.88958-10.43468 5.31303-13.95883 9.76581-1.9101 2.41342-3.63409 5.10876-5.01055 7.96334-.059.85931-.0915 1.72633-.0915 2.60087 0 20.60945 16.64824 37.2644 37.25716 37.2644 2.827 0 5.57882-.31496 8.2243-.90899l-9.97871-4.48862c-17.59126-6.36927-22.7459-37.4463-6.17017-34.33795.76847-1.86443 1.3055-3.68921 1.45004-5.45807l2.45205.20051c-.22167 2.71055-1.16183 5.32933-2.3735 7.88995-.0964.26788-.19385.54264-.28784.7984 4.32306 11.22029 14.9756 21.15159 22.31078 22.13974.12045.004.25066.00018.38861-.0114 2.23984.13624 4.72027-.5561 6.87245-2.93626l1.0511-1.1622-1.37873-.74466c-.85652-.46267-1.88073-.93387-2.39107-1.43815-.2551-.25221-.36764-.45674-.40462-.68368-.0371-.22706-.0171-.55641.29352-1.12913l1.40456-2.58744-2.82773.81907c-.82981.24023-2.27806-.39906-3.05718-1.40973-.38964-.50546-.57999-1.04083-.57722-1.4273.003-.38673.0947-.67486.62476-1.05989l2.56057-1.85932-3.14399-.3576c-1.31289-.14966-2.15479-.87662-2.52336-1.6185-.36883-.74161-.30446-1.32719.18086-1.75183l1.60662-1.4056-2.02158-.68523c-.88417-.29959-1.35519-.99424-1.36322-1.3994-.004-.18073.0312-.35086.24236-.58911 1.43874-.3146 2.79841-.0595 3.69745.83871.81006.80901 1.09902 1.99118.91829 3.26853 1.12546-.29669 2.23582-.21235 3.17397.32866 1.22943.7091 1.92827 2.06541 2.06292 3.68092 2.00239-1.33369 4.23209-1.67482 5.95777-.67955 2.03595 1.17416 2.81185 3.88489 2.21227 6.81199 3.15811-4.39057 4.55249-9.96713.73898-15.85278-6.15063-.58472-10.75346-4.03769-12.28039-8.90333-.66158-2.10821-2.80147-3.77387-5.52835-4.98936l-.0103.0284c-3.91473-1.42464-7.31537-2.28395-10.87324-2.466l.0103.0207c-.30197-.0123-.60054-.0211-.89039-.0227-1.25538 3.01096-3.77268 5.25211-7.56026 6.06217l-.77721.16588-.47078-.64027c-1.87128-2.54444-5.42717-5.32437-9.741-7.64398zm20.56309 8.59017c3.67608-.01 5.9067 1.52945 5.54023 5.85132-4.71821.44623-6.83582-2.19635-8.30234-5.61206.98816-.15204 1.91374-.2365 2.76211-.23874zm6.37222 8.73539-.00053.00052c.48809.009.93996.1307 1.31827.37001-.19876.14506-.38114.29988-.54726.46612-.69053.68976-1.06472 1.59563-1.04748 2.46703.0241 1.22707.69376 2.2622 1.66915 2.96985-.41332 1.0666-.32296 2.29758.185 3.31969.50192 1.00936 1.38757 1.87859 2.54093 2.42156-.19021.44309-.31245.90363-.31574 1.36012-.008 1.10663.44474 2.11151 1.08882 2.94711.89405 1.15968 2.21964 2.09764 3.68918 2.35748-.024.28697-.0268.57036.0176.84336.13822.84823.59402 1.53476 1.10277 2.0376.44888.4436.94669.77558 1.42162 1.05213-.8352.63079-1.63437.92865-2.45101 1.02526-.85758-1.04476-1.27816-2.51202-1.23868-4.14031-1.5489.81308-3.18674.94205-4.4912.18965-1.93077-1.11361-2.55272-3.82196-1.73581-6.62492-1.49218.36462-2.9127.12108-3.84163-.80718-1.16823-1.16692-1.25556-3.11007-.40773-4.99557-.48387-.081-.91643-.28481-1.25367-.62166-1.15941-1.1581-.75991-3.4343.89194-5.08445 1.03239-1.03133 2.30977-1.57405 3.40548-1.55339z" fill="#c20a0a" filter="url(#c)" stroke-width="19.1567"/></g></g></svg>