<svg height="500" viewBox="0 0 132.29167 132.29167" width="500" xmlns="http://www.w3.org/2000/svg" xmlns:xlink="http://www.w3.org/1999/xlink"><linearGradient id="a"><stop offset="0" stop-color="#f4f3f1"/><stop offset="1" stop-color="#f0eeeb"/></linearGradient><linearGradient id="b" gradientUnits="userSpaceOnUse" spreadMethod="reflect" x1="215.36659" x2="218.18294" xlink:href="#a" y1="18.332003" y2="25.658901"/><linearGradient id="c" gradientUnits="userSpaceOnUse" spreadMethod="reflect" x1="253.78891" x2="265.24301" xlink:href="#a" y1="104.704908" y2="111.301496"/><linearGradient id="d" gradientUnits="userSpaceOnUse" spreadMethod="reflect" x1="244.429074" x2="255.883174" xlink:href="#a" y1="105.103439" y2="111.700027"/><linearGradient id="e" gradientUnits="userSpaceOnUse" spreadMethod="reflect" x1="264.941055" x2="276.395155" xlink:href="#a" y1="104.904174" y2="111.500762"/><linearGradient id="f" gradientUnits="userSpaceOnUse" spreadMethod="reflect" x1="256.975237" x2="268.429337" xlink:href="#a" y1="105.302704" y2="111.899292"/><linearGradient id="g" gradientUnits="userSpaceOnUse" x1="264.82472" x2="275.09081" xlink:href="#a" y1="68.189938" y2="68.189938"/><linearGradient id="h" gradientUnits="userSpaceOnUse" x1="253.23878" x2="263.72018" xlink:href="#a" y1="86.27442" y2="86.27442"/><linearGradient id="i" gradientUnits="userSpaceOnUse" x1="229.51279" x2="244.85313" xlink:href="#a" y1="88.384512" y2="88.384512"/><linearGradient id="j" gradientUnits="userSpaceOnUse" x1="220.94199" x2="230.89224" xlink:href="#a" y1="88.301794" y2="88.301794"/><linearGradient id="k" gradientUnits="userSpaceOnUse" x1="199.142355" x2="209.268345" xlink:href="#a" y1="88.138926" y2="88.138926"/><linearGradient id="l" gradientUnits="userSpaceOnUse" x1="176.69958" x2="187.32608" xlink:href="#a" y1="85.891943" y2="85.891943"/><linearGradient id="m" gradientUnits="userSpaceOnUse" x1="169.356975" x2="176.921495" xlink:href="#a" y1="84.29679" y2="84.29679"/><linearGradient id="n" gradientUnits="userSpaceOnUse" x1="156.87682" x2="166.06075" xlink:href="#a" y1="75.512419" y2="75.512419"/><linearGradient id="o" gradientUnits="userSpaceOnUse" x1="151.4608" x2="161.4597" xlink:href="#a" y1="65.71821" y2="65.71821"/><filter id="p" color-interpolation-filters="sRGB" height="1.003033" width="1.001738" x="-.000869" y="-.001516"><feGaussianBlur stdDeviation=".004385356"/></filter><filter id="q" color-interpolation-filters="sRGB" height="1.003089" width="1.00177" x="-.000885" y="-.001544"><feGaussianBlur stdDeviation=".004385356"/></filter><filter id="r" color-interpolation-filters="sRGB" height="1.003032" width="1.001736" x="-.000868" y="-.001516"><feGaussianBlur stdDeviation=".004385356"/></filter><filter id="s" color-interpolation-filters="sRGB" height="1.002918" width="1.002125" x="-.001062" y="-.001459"><feGaussianBlur stdDeviation=".004385356"/></filter><filter id="t" color-interpolation-filters="sRGB" height="1.00306" width="1.002095" x="-.001048" y="-.00153"><feGaussianBlur stdDeviation=".004385356"/></filter><filter id="u" color-interpolation-filters="sRGB" height="1.002544" width="1.00181" x="-.000905" y="-.001272"><feGaussianBlur stdDeviation=".004385356"/></filter><filter id="v" color-interpolation-filters="sRGB" height="1.002499" width="1.001528" x="-.000764" y="-.00125"><feGaussianBlur stdDeviation=".004385356"/></filter><filter id="w" color-interpolation-filters="sRGB" height="1.003476" width="1.001991" x="-.000995" y="-.001738"><feGaussianBlur stdDeviation=".004385356"/></filter><filter id="x" color-interpolation-filters="sRGB" height="1.002644" width="1.001516" x="-.000758" y="-.001322"><feGaussianBlur stdDeviation=".004385356"/></filter><filter id="y" color-interpolation-filters="sRGB" height="1.003476" width="1.001991" x="-.000996" y="-.001738"><feGaussianBlur stdDeviation=".004385356"/></filter><filter id="z" color-interpolation-filters="sRGB" height="1.002876" width="1.002143" x="-.001071" y="-.001438"><feGaussianBlur stdDeviation=".004385356"/></filter><filter id="A" color-interpolation-filters="sRGB" height="1.002706" width="1.001718" x="-.000859" y="-.001353"><feGaussianBlur stdDeviation=".004385356"/></filter><filter id="B" color-interpolation-filters="sRGB" height="1.002617" width="1.001792" x="-.000896" y="-.001309"><feGaussianBlur stdDeviation=".004385356"/></filter><filter id="C" color-interpolation-filters="sRGB" height="1.003294" width="1.002001" x="-.001" y="-.001647"><feGaussianBlur stdDeviation=".004385356"/></filter><filter id="D" color-interpolation-filters="sRGB" height="1.003477" width="1.001993" x="-.000996" y="-.001739"><feGaussianBlur stdDeviation=".004385356"/></filter><filter id="E" color-interpolation-filters="sRGB" height="1.003477" width="1.001993" x="-.000996" y="-.001738"><feGaussianBlur stdDeviation=".004385356"/></filter><filter id="F" color-interpolation-filters="sRGB" height="1.003301" width="1.00205" x="-.001025" y="-.001651"><feGaussianBlur stdDeviation=".004385356"/></filter><filter id="G" color-interpolation-filters="sRGB" height="1.002925" width="1.002008" x="-.001004" y="-.001463"><feGaussianBlur stdDeviation=".004385356"/></filter><filter id="H" color-interpolation-filters="sRGB" height="1.002152" width="1.001372" x="-.000686" y="-.001076"><feGaussianBlur stdDeviation=".004385356"/></filter><filter id="I" color-interpolation-filters="sRGB" height="1.003277" width="1.002115" x="-.001058" y="-.001638"><feGaussianBlur stdDeviation=".004385356"/></filter><filter id="J" color-interpolation-filters="sRGB" height="1.003842" width="1.002079" x="-.001039" y="-.001921"><feGaussianBlur stdDeviation=".004385356"/></filter><filter id="K" color-interpolation-filters="sRGB" height="1.003381" width="1.001981" x="-.00099" y="-.00169"><feGaussianBlur stdDeviation=".004385356"/></filter><filter id="L" color-interpolation-filters="sRGB" height="1.003517" width="1.002783" x="-.001391" y="-.001759"><feGaussianBlur stdDeviation=".004385356"/></filter><filter id="M" color-interpolation-filters="sRGB" height="1.003018" width="1.002292" x="-.001146" y="-.001509"><feGaussianBlur stdDeviation=".004385356"/></filter><filter id="N" color-interpolation-filters="sRGB" height="1.003" width="1.002105" x="-.001053" y="-.0015"><feGaussianBlur stdDeviation=".004385356"/></filter><g stroke="none" stroke-width="1.17444" transform="matrix(.85172933 0 0 .85121669 -116.02886 11.981245)"><path d="m266.80281 71.105832c2.83258.769921 8.43856-.05317 8.2849-2.9845-.16744-3.194278-6.55043-3.89317-9.31862-2.290498-.89973.520906-1.07614 1.979875-.86243 2.997313.20307.966787.94285 2.018571 1.89615 2.277685z" fill="url(#g)" filter="url(#F)"/><path d="m151.46087 65.938255c.0221 2.953126 5.55913 3.873796 8.35925 2.935288.90232-.302429 1.44715-1.435772 1.57961-2.378163.18373-1.307114-.0114-3.193991-1.19674-3.774723-2.78848-1.366145-8.76537.112535-8.74212 3.217598z" fill="url(#o)" filter="url(#N)"/><path d="m187.48601 104.5669c-2.4134 0-6.69053 1.77881-5.978 4.08463 1.17663 3.80768 10.77937 3.80768 11.956 0 .71253-2.30582-3.5646-4.08463-5.978-4.08463z" fill="url(#c)" filter="url(#p)"/><path d="m243.86666 108.48782c1.15523 3.73924 10.58562 3.73923 11.74089 0 .69953-2.26416-3.50055-4.01015-5.87031-4.01017-2.36984-.00003-6.57011 1.74593-5.87058 4.01017z" fill="url(#d)" filter="url(#q)"/><g fill="url(#c)"><path d="m164.45932 104.50128c1.17622 3.81076 10.78706 3.81039 11.96446 0 .71251-2.30588-3.56481-4.08376-5.97826-4.08451-2.41564-.00074-6.69864 1.77632-5.9862 4.08451z" filter="url(#r)"/><path d="m231.09252 106.35363c2.57381 1.33974 7.73605-.17961 8.15261-3.05118.28337-1.95339-2.78449-3.21815-4.72745-3.565862-1.63246-.292144-3.95061-.01242-4.76448 1.432532-.87596 1.55518-.24393 4.36038 1.33932 5.18451z" filter="url(#s)"/><path d="m229.7532 101.16912c-2.56434-1.341556-8.32977.12154-8.14388 3.00963.20831 3.23644 7.22155 4.49928 9.4832 2.17488 1.24473-1.27927.24223-4.35711-1.33932-5.18451z" filter="url(#t)"/><path d="m207.32923 100.30102c-.61324-2.025064-3.77735-2.649771-5.87798-2.396202-2.30181.277854-5.80239 1.770733-5.63113 4.082922.21272 2.87186 4.87325 4.69187 7.66498 3.98542 2.21422-.56031 4.5061-3.48616 3.84413-5.67214z" filter="url(#u)"/><path d="m203.4851 105.97316c2.31262 3.87488 12.75006 3.09023 13.46861-1.36472.55968-3.46996-6.24384-5.269238-9.62448-4.30742-2.19683.62501-5.01466 3.71087-3.84413 5.67214z" filter="url(#v)"/><path d="m244.54473 97.828748c1.02656 3.323272 9.40808 3.323272 10.43464 0 .62157-2.012192-3.11131-3.563275-5.21732-3.563275s-5.83889 1.551083-5.21732 3.563275z" filter="url(#w)"/></g><path d="m260.2957 92.778981c-2.76812-.000724-7.67227 2.04391-6.85429 4.688418 1.34945 4.362771 12.34969 4.361941 13.70012-.00053.81785-2.642007-4.08013-4.687165-6.84583-4.687888z" fill="url(#d)" filter="url(#x)"/><path d="m213.92741 90.776016c-2.10598.000074-5.83849 1.551808-5.21679 3.563938 1.02676 3.323118 9.40773 3.323154 10.43437 0 .62169-2.012359-3.11138-3.564012-5.21758-3.563938z" fill="url(#c)" filter="url(#y)"/><path d="m189.62728 97.489818c2.25196.485708 5.8015-1.278715 5.91185-3.579812.0953-1.987104-2.82159-3.250857-4.78591-3.565676-1.70213-.272799-4.35711.0045-4.90498 1.63898-.70752 2.110754 1.6029 5.037153 3.77904 5.506508z" fill="url(#c)" filter="url(#z)"/><path d="m185.84824 91.98331c-2.93112-.771296-8.66474 1.003571-8.16875 3.993618.65693 3.960282 9.85758 4.940192 11.94779 1.51289 1.15912-1.900606-1.62615-4.939997-3.77904-5.506508z" fill="url(#c)" filter="url(#A)"/><path d="m165.51686 95.596458c2.68994.308101 6.95384-1.280725 7.07761-3.985417.10777-2.35502-3.46289-3.971815-5.81991-4.018489-2.33259-.04619-5.7072 1.421706-5.91251 3.745704-.18505 2.094738 2.56557 4.018904 4.65481 4.258202z" fill="url(#c)" filter="url(#B)"/><path d="m172.0142 91.537521c-2.22521-.204609-6.22937 1.378838-5.68855 3.547004.8364 3.353187 8.98233 3.887834 10.34336.711198.82818-1.93295-2.56075-4.065652-4.65481-4.258202z" fill="url(#e)" filter="url(#C)"/><path d="m152.67976 84.230062c1.02573 3.320575 9.39919 3.320186 10.42617 0 .62164-2.009729-3.10518-3.562478-5.20885-3.563274-2.10601-.000797-5.83889 1.551082-5.21732 3.563274z" fill="url(#f)" filter="url(#D)"/><path d="m267.05945 80.573418c1.02588 3.320622 9.39931 3.320234 10.42644 0 .62176-2.009862-3.10515-3.563142-5.20899-3.563937-2.10617-.000796-5.83914 1.551615-5.21745 3.563937z" fill="url(#c)" filter="url(#E)"/><path d="m253.32573 86.724716c.71675 1.984791 3.39091 3.262271 5.49756 3.139255 2.02437-.118211 4.96134-1.584251 4.89581-3.611007-.0707-2.18695-3.35131-3.283282-5.52345-3.547004-1.34863-.163738-2.88196.371353-3.85672 1.317634-.68998.669823-1.33982 1.796657-1.0132 2.701122z" fill="url(#h)" filter="url(#G)"/><path d="m230.02599 90.304793c1.49736 2.248525 4.89206 3.265454 7.56846 2.898251 2.98072-.408956 6.94419-2.385481 7.24821-5.37872.17037-1.677341-1.7695-3.247589-3.37274-3.76923-3.67308-1.195097-8.85674-.532517-11.32907 2.435206-.81421.97736-.81994 2.755703-.11486 3.814493z" fill="url(#i)" filter="url(#H)"/><path d="m222.6626 85.413537c-.92829.305525-1.79708 1.403871-1.71525 2.377715.13645 1.623845 1.92866 2.938167 3.48165 3.431844 1.80176.572759 4.16396.314912 5.59699-.918303.6095-.524511 1.10828-1.580361.74102-2.295705-1.29557-2.523487-5.40996-3.482364-8.10441-2.595551z" fill="url(#j)" filter="url(#I)"/><path d="m199.14476 87.89461c-.0999 1.879484 2.92478 2.849858 4.80318 2.968393 1.9438.122662 5.19755-.478566 5.31713-2.422558.11862-1.928412-3.01071-2.932045-4.94021-3.031492-1.91266-.09858-5.07849.573154-5.1801 2.485657z" fill="url(#k)" filter="url(#J)"/><path d="m176.86989 84.790083c-.41377.786553-.0154 1.936854.57147 2.604274 1.04641 1.190028 2.89128 1.550559 4.47502 1.604513 1.52076.05181 3.27433-.212079 4.39196-1.244698.64875-.599404 1.25943-1.668325.92152-2.4844-.76053-1.836749-3.43238-2.444735-5.41987-2.488682-1.77722-.0393-4.11249.435739-4.9401 2.008993z" fill="url(#l)" filter="url(#K)"/><path d="m169.73336 81.87865c-.37534.279377-.43491.908033-.33073 1.364191.3054 1.337244 1.37983 2.574071 2.60954 3.181778 1.39295.688378 3.81385 1.462928 4.65857.158852.89817-1.386585-.80143-3.539929-2.17936-4.451326-1.3247-.876194-3.48395-1.201817-4.75802-.253495z" fill="url(#m)" filter="url(#L)"/><path d="m159.91142 72.081616c-1.4385.305564-3.37115 1.83023-2.9845 3.249083.80825 2.965949 6.75043 4.95892 8.822 2.687638 1.00393-1.100715-.64737-3.07302-1.68938-4.137756-1.05415-1.077141-2.67388-2.112123-4.14812-1.798965z" fill="url(#n)" filter="url(#M)"/><path d="m213.88477 10.900391c-4.93571.07112-8.55475 2.734744-11.93946 5.345703v-.002c-8.50009 6.554963-18.25603 14.097921-26.54492 22.599609-6.54598 6.714026-13.61109 13.905524-18.48047 22.982422-1.10711 2.063741-1.72758 4.2377-2.02344 6.361328-.13992 1.004372-.73343 3.083936.44141 5.841797 1.84257 4.325375 5.28939 6.420928 7.49609 8.017578 2.33777 1.691481 4.12291 2.058609 4.59571 2.333984 1.23937.721857 3.30347 3.607704 7.87109 5.126953 5.12727 1.705392 9.23183.505896 11.4707.712891 3.48407.32212 7.34333 1.207688 11.69727 1.626953 3.51999.338959 7.03049.50829 10.51172.56836 4.46598.07706 8.3913-.418217 11.76758-.238282 2.20118.11731 5.40391 1.262377 9.73437 1.19336 5.55755-.08858 10.5415-1.423363 15.04492-2.347657 4.21921-.865961 9.53601-1.235944 14.86328-3.857421 2.95223-1.452746 4.46375-3.361671 5.48243-4.179688.66171-.531369 2.53641-1.378716 4.36328-3.734375 1.15793-1.493107 3.19842-3.823847 3.1914-7.689453-.009-4.641459-2.68257-7.072252-3.36914-8.244141-5.04017-8.602988-10.7953-16.981427-17.60156-24.529297-7.97932-8.848748-17.94928-17.05463-26.24219-23.285156-4.02506-3.02406-8.18314-4.663268-12.33007-4.603515zm.14453 9.941406c1.72941-.02492 3.26512.396643 6.21289 2.611328 7.98901 6.002208 17.57369 13.947108 24.83008 21.994141 6.22093 6.898766 11.61303 14.715028 16.40625 22.896484 1.44977 2.474595 2.00664 3.653542 2.00585 3.238281-.00083-.460717-.17678.378676-1.10546 1.576172-.0465.05995-1.01062.691576-2.73243 2.074219-2.0017 1.607407-3.12305 2.754144-3.64648 3.011719-3.10419 1.527529-7.48478 2.015738-12.4707 3.039062-4.83701.992759-9.22871 2.083106-13.20508 2.146484-1.97847.03153-4.94726-.963155-9.04688-1.18164-4.57893-.24403-8.62566.28499-12.125.224609-3.27445-.0565-6.5249-.214755-9.73047-.523437-3.49533-.336586-7.36634-1.227012-11.73437-1.63086-4.6458-.429528-7.81466.230669-9.24805-.246093-.73493-.244447-2.41444-2.192559-6.0039-4.283204-2.21536-1.290314-3.58892-1.666728-3.77149-1.798828-2.11379-1.529425-3.49048-2.801808-3.96875-3.611328-.00082-.154189-.0147-.36401.0488-.820312.1571-1.127677.49278-2.20225.9375-3.03125 3.98783-7.43363 10.30428-14.040847 16.83789-20.742188 7.60929-7.804637 17.01456-15.123852 25.49805-21.666015h.002c2.98327-2.301291 5.0691-3.263789 6.00977-3.277344z" fill="#9a9996"/><path d="m265.76909 65.830834c-4.9167-8.392231-10.49106-16.488964-17.00466-23.712289-7.61786-8.447899-17.39411-16.523164-25.53508-22.639537-3.48642-2.619375-6.33413-3.650192-9.27231-3.607856-2.93819.04234-5.7912 1.854727-8.97519 4.310854-8.4918 6.54857-18.07221 13.979457-26.02131 22.132628-6.5398 6.70769-13.23173 13.607282-17.66034 21.862554-.77592 1.446372-1.2536 3.070701-1.48008 4.696355-.14761 1.059558-.32797 2.223864.0913 3.208073 1.08768 2.553289 3.58903 4.309852 5.8375 5.936721 1.26017.911791 2.83951 1.284079 4.18359 2.066925 2.41442 1.406252 4.2861 3.822972 6.93738 4.704821 3.28033 1.091078 6.91763.161427 10.35997.479689 3.92605.362984 7.79111 1.250585 11.71575 1.628511 3.36278.323821 6.74247.487549 10.12031.545835 3.98266.06872 7.96992-.443493 11.94753-.23151 3.1504.167898 6.23528 1.238369 9.38975 1.188094 4.76696-.07598 9.45492-1.288165 14.12514-2.246692 4.60257-.944644 9.45157-1.373545 13.66731-3.44805 1.73783-.855161 3.05336-2.383983 4.56355-3.596696 1.19176-.957007 2.61229-1.695682 3.54897-2.903488 1.04331-1.345303 2.15151-2.931048 2.14842-4.633494-.004-2.113101-1.61933-3.918204-2.6875-5.741448z" fill="url(#b)"/></g></svg>