<svg height="500" viewBox="0 0 500 500" width="500" xmlns="http://www.w3.org/2000/svg" xmlns:xlink="http://www.w3.org/1999/xlink"><linearGradient id="a"><stop offset="0" stop-color="#c81d9f"/><stop offset="1" stop-color="#d926ae"/></linearGradient><linearGradient id="b"><stop offset="0" stop-color="#943875" stop-opacity="0"/><stop offset=".5" stop-color="#943875" stop-opacity="0"/><stop offset="1" stop-color="#943875"/></linearGradient><linearGradient id="c" gradientTransform="matrix(.67387081 -.19873995 .19873995 .67387081 -605.36849 312.18257)" gradientUnits="userSpaceOnUse" spreadMethod="reflect" x1="1378.1571" x2="1357.8352" xlink:href="#b" y1="210.6843" y2="103.36467"/><linearGradient id="d" gradientTransform="matrix(.67387081 -.19873995 .19873995 .67387081 -605.36849 312.18257)" gradientUnits="userSpaceOnUse" x1="1259.7974" x2="1240.9617" xlink:href="#b" y1="424.87021" y2="327.24295"/><linearGradient id="e" gradientUnits="userSpaceOnUse" spreadMethod="reflect" x1="55" x2="97" xlink:href="#a" y1="114" y2="158"/><filter id="f" color-interpolation-filters="sRGB" height="1.137752" width="1.073671" x="-.036835" y="-.068876"><feGaussianBlur stdDeviation="4.0726315"/></filter><linearGradient id="g" gradientUnits="userSpaceOnUse" spreadMethod="reflect" x1="500" x2="405.8783" xlink:href="#a" y1="225.5" y2="244.10873"/><path d="m83.698658 391.62361 1.956931 12.71519c28.827701-2.46866 53.331191-5.3733 75.638061.18199 4.30248 1.07151 14.06513 5.74532 21.67557 10.12403 7.61051 4.37868 13.51366 8.32367 13.51366 8.32367l6.19819 4.14491 6.6272-3.41806c97.24759-50.14938 176.59003-91.37955 273.83717-141.52972l16.85457-8.69187c-9.13429-7.81079-19.58736-16.55599-27.64631-22.37474-7.43285-5.34123-16.05718-11.38243-25.79586-14.4125-13.55609-4.2178-27.37311-4.92252-41.1203-5.23176z" fill="#943875" stroke-width="3.77953"/><path d="m83.698658 391.62361c28.552702-2.44512 55.330912-5.67996 80.650822.62568 14.25422 3.54993 39.16315 20.20703 39.16315 20.20703 97.24772-50.14945 176.58886-91.38104 273.83658-141.53048 0 0-21.48353-18.09954-34.548-22.1644-10.54814-3.28193-25.37437-4.7327-36.92292-4.65271-11.54856.08-19.81951 1.69074-31.22183 2.67562z" fill="url(#g)" stroke-width="35.9997"/><path d="m83.698658 391.62361c28.552702-2.44512 55.330912-5.67996 80.650822.62568 14.25422 3.54993 39.16315 20.20703 39.16315 20.20703 97.24772-50.14945 176.58886-91.38104 273.83658-141.53048 0 0-21.48353-18.09954-34.548-22.1644-10.54814-3.28193-25.37437-4.7327-36.92292-4.65271-11.54856.08-19.81951 1.69074-31.22183 2.67562z" fill="url(#d)" stroke-width="35.9997"/><path d="m22.409895 264.90661-9.799352 7.81032c-7.2357625 8.06024-10.78887 19.95867-11.81535036 29.31205-1.71328943 16.63063 1.97603216 35.52314 11.04947236 53.78638 9.073446 18.26324 21.901291 32.61541 32.626647 39.13147 10.725348 6.51606 18.149335 9.36751 25.562478 10.32683 7.413135.95932 14.850816.81961 21.563131-2.57883l306.487689-153.45829c5.90507-3.59356 5.27988-3.46645 7.79368-5.12781 10.33668-6.83146 14.0027-20.80764 14.90632-33.77117 1.12897-16.19685-2.8651-34.29166-11.62109-51.91593-8.75599-17.62428-20.76511-31.72558-34.29672-40.64731-13.5316-8.92172-33.36954-11.60235-47.84666-4.40978z" fill="#943875" stroke-width="3.77953"/><path d="m28.412241 276.10167-.01459-.0296.000772.00013c-3.851309 1.91338-7.132856 5.03941-9.800085 9.70051-2.667709 4.66135-4.517335 10.7037-5.223582 17.55213-1.410642 13.6959 1.694809 30.5583 9.79552 46.86359 8.100702 16.30529 19.662886 28.96624 31.430127 36.11519 5.884492 3.57442 11.817588 5.75021 17.14367 6.43976 5.326243.68981 9.804405-.0265 11.722305-.99761l27.580772-13.67641s278.43889-138.50096 281.51588-140.20283c18.83975-9.01821 21.01838-42.12992 5.27501-73.81855-15.74337-31.68865-43.44708-49.95437-61.87797-40.79764z" fill="url(#e)" stroke-width="35.9997"/><path d="m28.412241 276.10167-.01459-.0296.000772.00013c-3.851309 1.91338-7.132856 5.03941-9.800085 9.70051-2.667709 4.66135-4.517335 10.7037-5.223582 17.55213-1.410642 13.6959 1.694809 30.5583 9.79552 46.86359 8.100702 16.30529 19.662886 28.96624 31.430127 36.11519 5.884492 3.57442 11.817588 5.75021 17.14367 6.43976 5.326243.68981 9.804405-.0265 11.722305-.99761l27.580772-13.67641s278.43889-138.50096 281.51588-140.20283c18.83975-9.01821 21.01838-42.12992 5.27501-73.81855-15.74337-31.68865-43.44708-49.95437-61.87797-40.79764z" fill="url(#c)" stroke-width="35.9997"/><path d="m22.409895 264.90661c-14.4771544 7.19246-21.177201 22.85039-22.24134446 39.0235-1.06414146 16.1731 2.92043716 34.26111 11.67643346 51.88539 8.756002 17.62427 20.763245 31.72497 34.294863 40.64669s30.057791 13.04205 44.534943 5.84959c14.47715-7.19246 21.17659-22.85162 22.24073-39.02473 1.06415-16.1731-2.91983-34.25988-11.67583-51.88416-8.755986-17.62427-20.763845-31.7262-34.295456-40.64792-13.531625-8.92171-30.057185-13.04082-44.534339-5.84836z" fill="#943875" fill-rule="evenodd" stroke-width="3.77953"/><path d="m89.914312 317.02903a64.068301 37.263674 63.58114 0 0 -61.877965-40.79763 64.068301 37.263674 63.58114 0 0 -4.866145 73.95708 64.068301 37.263674 63.58114 0 0 61.87796 40.79762 64.068301 37.263674 63.58114 0 0 4.86615-73.95707z" fill="#bf40a0" fill-rule="evenodd" stroke-width="35.9997"/><path d="m89.914312 317.02903c6.553095 17.39789 4.587845 35.36437-.991252 44.61012-1.882123 3.1215-3.978344 4.86689-6.20081 5.92209-2.22242 1.05525-4.984064 1.56709-8.523687 1.1384-7.07781-.85689-16.333441-5.89279-24.441415-15.9141-6.174327-7.63157-10.814879-17.39539-12.89026-26.56885-2.073523-9.17439-1.183097-17.90448 1.665266-22.29155 1.004142-1.54664 1.884149-2.16759 2.780334-2.55845.897592-.39157 2.213629-.65798 4.1573-.37818 3.734999.53867 9.033266 3.38689 13.72434 9.10975-.02123-.003-.03891-.006-.05912-.007 1.580212 1.58549 3.058837 3.62241 4.246153 6.01226 3.442763 6.92968 3.152567 14.08304-.643454 15.96896-3.614752 1.79586-9.094238-1.83916-12.583008-8.17138.373134 2.54377 1.192521 5.22871 2.501213 7.86287 4.378051 8.81225 12.443428 13.7165 18.013821 10.94905 1.44272-.71676 2.575076-1.87955 3.387258-3.35879.0078-.011.01318-.0229.02065-.0336 3.433058-5.12045 3.224181-10.60864 1.994675-16.41027-1.269425-5.9877-4.109364-12.16248-8.036544-17.2035-5.36494-6.88765-11.51397-10.9099-18.279311-11.88551-3.382458-.48735-7.115072-.13251-10.682079 1.42209-3.567003 1.55457-6.567179 4.21835-8.51543 7.21731-5.05298 7.78225-5.030368 17.20632-2.791017 27.11184 2.23948 9.90582 7.10508 20.13201 13.760265 28.35881 8.664093 10.7069 18.47192 16.75555 28.57038 17.97807 5.049364.61098 10.398166-.0892 15.298195-2.41671 4.900166-2.32728 8.933929-6.12573 11.663046-10.65054 1.292296-2.14193 2.408144-4.46665 3.334239-6.94082l1.60007-11.29206c.26677-9.67928-3.044666-21.97351-12.079775-27.57983z" fill="#943875" stroke-width="3.77953"/><path d="m361.76758 149.53125a10.001 10.001 0 0 0 -7.57617.43945l-245.60157 122.03516a10.001 10.001 0 0 0 -4.92578 5.77148 10.001 10.001 0 0 0 13.82617 12.13868l245.60157-122.03516a10.001 10.001 0 0 0 -1.32422-18.34961z" fill="#f5e0eb" filter="url(#f)" opacity=".33" stroke-linecap="round" stroke-linejoin="round"/></svg>