<svg height="500" viewBox="0 0 132.29167 132.29167" width="500" xmlns="http://www.w3.org/2000/svg" xmlns:xlink="http://www.w3.org/1999/xlink"><linearGradient id="a" gradientTransform="matrix(-3.2081389 0 0 3.2081389 -720.06589 -464.31363)" gradientUnits="userSpaceOnUse" x1="-249.87244" x2="-230.9847" y1="161.64737" y2="171.94391"><stop offset="0" stop-color="#deaa87"/><stop offset="1" stop-color="#d38d5f"/></linearGradient><filter id="b" color-interpolation-filters="sRGB" height="1.188066" width="1.088111" x="-.044055" y="-.094033"><feGaussianBlur stdDeviation="2.5917"/></filter><radialGradient id="c" cx="1391.7535" cy="368.50858" gradientTransform="matrix(-.26756203 .00356453 -.00356554 -.26755637 440.22647 168.37325)" gradientUnits="userSpaceOnUse" r="155.70674" spreadMethod="pad"><stop offset="0" stop-color="#f9e105"/><stop offset=".09343466" stop-color="#f9e105"/><stop offset=".266667" stop-color="#fbc408"/><stop offset="1" stop-color="#f03c1f"/></radialGradient><g transform="translate(-.251321 7.681089)"><g fill="#7f8899"><path d="m28.773161 19.813845 14.982637 23.150576c-5.853397 4.232445-10.865301 9.578411-13.635113 15.734145-4.982929 10.966763-4.81602 22.908112-.862853 33.311398 3.898785 9.071846 11.306728 16.392736 19.446654 20.435686 10.169451 4.55606 20.866183 5.17289 30.708637 1.86374 10.698559-4.12649 18.397925-11.08097 23.192237-20.644402 4.15427-9.103517 4.79981-18.432418 2.66438-27.469931-3.27051-11.904078-11.133128-20.478193-21.420411-26.092409-6.455171-3.305811-13.733829-4.362608-20.28863-3.940886l-2.456049-27.4539293s-10.153971 5.2760183-15.544803 7.1303623c-5.437525 1.870413-16.786686 3.97565-16.786686 3.97565zm28.712953-5.526396 2.358516 26.361531c7.689338-1.14366 15.784119-.213391 22.221387 3.108683 10.038311 5.661571 16.198844 13.070624 19.184203 23.483393 2.07094 8.605042 1.10116 17.563971-2.513997 24.935511-4.852003 8.968223-11.824801 15.267423-20.829705 18.436253-8.910988 2.73405-19.94346 2.56484-27.473651-1.70959-7.254165-4.24684-14.444144-10.327709-17.497551-18.158504-3.673775-9.421764-2.3401-21.597367.708208-30.327348 3.2215-7.161226 9.458251-12.869118 15.793271-16.222861l-14.371234-22.205161s8.034444-.965588 11.831232-2.273595c3.750347-1.292005 10.589321-5.428312 10.589321-5.428312z"/><path d="m43.755789 42.96442c-5.853387 4.232445-10.865292 9.578411-13.635104 15.734145-4.982929 10.966763-4.816019 22.908117-.862853 33.311398 3.898785 9.071847 11.306728 16.392737 19.446654 20.435687 10.169442 4.55606 20.866184 5.17289 30.708628 1.86374 10.698559-4.12649 18.397926-11.08097 23.192236-20.644401 4.15427-9.103513 4.79982-18.432414 2.66438-27.469933-3.2705-11.904078-11.133118-20.478193-21.4204-26.092409-6.455181-3.30581-13.733829-4.362608-20.288631-3.940886l-2.456058-27.4539285s-10.153971 5.2760185-15.544803 7.1303625c-5.437525 1.870413-16.786686 3.975649-16.786686 3.975649z" opacity=".25"/></g><g><path d="m31.551674 68.463038-3.021892 2.792578c-.311515 1.890534-.684604 3.848918-.358811 5.737033 1.684347 9.760733 4.631745 20.367588 11.686469 27.320271 6.798691 6.70034 16.944943 10.89359 26.490457 10.87734 9.714007-.0165 20.026756-4.31667 26.920038-11.16102 6.957175-6.907785 9.863295-17.41504 11.457685-27.088606.30902-1.874807-.0964-3.812332-.41804-5.685018l-2.86317-3.165908z" fill="url(#c)"/><path d="m101.4444 68.08971c0 3.671399-23.054765 6.647657-34.912254 6.647657s-34.912258-2.976258-34.912258-6.647657c0-3.6714 23.054769-6.64766 34.912258-6.64766s34.912254 2.97626 34.912254 6.64766z" fill="#ff7800" fill-rule="evenodd"/></g><g><g stroke-width=".937849" transform="matrix(.25357545 .12372121 -.12369442 .25352051 37.215991 -8.180955)"><path d="m40.03911 99.465809c-3.855136-2.092382-9.081489-4.864504-14.03158-7.742585-5.474948-3.183243-16.570558-12.454718-19.140552-15.120868-3.8724233-4.329287-6.04535863-10.483299-6.18712033-16.290063 3.21743983-13.820085 16.57478133-30.483544 25.56501633-37.283772 10.594809-7.830329 24.067643-13.4974104 40.255017-16.7721184 5.755308-1.529062 11.989942 1.547093 16.50559 5.1244254 1.580751 1.747358 9.012506 10.376027 10.360348 13.330652 2.514389 5.511833 4.592727 12.013981 6.120167 15.36368.683214 1.918563 10.649404 16.205058 18.413264 30.505835 13.27307 22.503591 12.99425 24.60018-4.8029 42.397945-15.987787 21.8603-31.223642 10.38714-48.547053 1.26441-16.06678-8.46496-22.985671-13.74212-24.510197-14.777541z" fill="#c36e36"/><path d="m102.84466 66.661043c5.05249 8.528909 12.95051 20.023072 7.38696 28.807342-5.09799 6.044095-6.43309 7.795705-14.370697 13.742665-3.82936 3.42199-19.969409-2.591-29.124477-6.47595-17.733116-7.525048-37.334534-23.594331-48.217933-31.856533 14.881674-6.628078 27.680024-12.112384 38.881174-21.899902 8.204727-7.169255 19.715634-26.07174 19.715634-26.07174s19.155813 32.657619 25.729339 43.754118z" fill="url(#a)"/><path d="m68.602894 16.656548c-12.624283 1.66512-23.006765 4.621931-32.21328 11.312044-10.876312 7.903506-21.186905 20.572397-24.464143 32.067769 18.711407-2.892779 26.908217-9.837804 37.763845-18.768067 7.990291-6.573125 15.665144-14.074485 18.91401-24.611313l.000432.000433" fill="#deaa87" stroke-width=".937845"/></g><path d="m43.755789 42.96442c-5.853387 4.232445-10.865292 9.578411-13.635104 15.734145-4.982929 10.966763-4.816019 22.908117-.862853 33.311398 3.898785 9.071847 11.306728 16.392737 19.446654 20.435687 10.169442 4.55606 20.866184 5.17289 30.708628 1.86374 10.698559-4.12649 18.397926-11.08097 23.192236-20.644401 4.15427-9.103513 4.79982-18.432414 2.66438-27.469933-3.2705-11.904078-11.133118-20.478193-21.4204-26.092409-6.455181-3.30581-13.733829-4.362608-20.288631-3.940886l-2.456058-27.4539285s-10.153971 5.2760185-15.544803 7.1303625c-5.437525 1.870413-16.786686 3.975649-16.786686 3.975649z" fill="#7f8899" opacity=".125"/><path d="m1525.1702 305.18145c0-18.266 31.606-33.073 70.594-33.073s70.594 14.807 70.594 33.073c0 18.27-31.606 33.075-70.594 33.075s-70.594-14.805-70.594-33.075z" fill="#fff" filter="url(#b)" opacity=".5" transform="matrix(.21947654 0 0 .219429 -271.91029 -17.31499)"/><path d="m28.773161 19.813845 14.982637 23.150576c-5.853397 4.232445-10.865301 9.578411-13.635113 15.734145-4.982929 10.966763-4.81602 22.908112-.862853 33.311398 3.898785 9.071846 11.306728 16.392736 19.446654 20.435686 10.169451 4.55606 20.866183 5.17289 30.708637 1.86374 10.698559-4.12649 18.397925-11.08097 23.192237-20.644402 4.15427-9.103517 4.79981-18.432418 2.66438-27.469931-3.27051-11.904078-11.133128-20.478193-21.420411-26.092409-6.455171-3.305811-13.733829-4.362608-20.28863-3.940886l-2.456049-27.4539293s-10.153971 5.2760183-15.544803 7.1303623c-5.437525 1.870413-16.786686 3.97565-16.786686 3.97565zm28.712953-5.526396 2.358516 26.361531c7.689338-1.14366 15.784119-.213391 22.221387 3.108683 10.038311 5.661571 16.198844 13.070624 19.184203 23.483393 2.07094 8.605042 1.10116 17.563971-2.513997 24.935511-4.852003 8.968223-11.824801 15.267423-20.829705 18.436253-8.910988 2.73405-19.94346 2.56484-27.473651-1.70959-7.254165-4.24684-14.444144-10.327709-17.497551-18.158504-3.673775-9.421764-2.3401-21.597367.708208-30.327348 3.2215-7.161226 9.458251-12.869118 15.793271-16.222861l-14.371234-22.205161s8.034444-.965588 11.831232-2.273595c3.750347-1.292005 10.589321-5.428312 10.589321-5.428312z" fill="#7f8899"/></g></g></svg>