<svg height="500" viewBox="0 0 132.29167 132.29167" width="500" xmlns="http://www.w3.org/2000/svg" xmlns:xlink="http://www.w3.org/1999/xlink"><linearGradient id="a"><stop offset="0" stop-color="#f00"/><stop offset=".14285706" stop-color="#f00"/><stop offset=".28571412" stop-color="#ff7800"/><stop offset=".42857116" stop-color="#ffef00"/><stop offset=".57142824" stop-color="#0c0"/><stop offset=".71428525" stop-color="#0073ff"/><stop offset=".85714233" stop-color="#b600ff"/><stop offset="1" stop-color="#b600ff"/></linearGradient><linearGradient id="b" gradientUnits="userSpaceOnUse" spreadMethod="reflect" x1="225.8423" x2="300.38358" xlink:href="#a" y1="147.86281" y2="89.954369"/><filter id="c" color-interpolation-filters="sRGB" height="1.151135" width="1.099502" x="-.049751" y="-.075567"><feGaussianBlur stdDeviation="3.438265"/></filter><filter id="d" color-interpolation-filters="sRGB" height="1.115211" width="1.066272" x="-.033136" y="-.057605"><feGaussianBlur stdDeviation="1.8302532"/></filter><linearGradient id="e" gradientTransform="matrix(1 0 0 .49871076 -.000015 -140.3607)" gradientUnits="userSpaceOnUse" spreadMethod="reflect" x1="225.8423" x2="300.38358" xlink:href="#a" y1="147.86281" y2="89.954369"/><radialGradient id="f" cx="55.193054" cy="47.66674" gradientTransform="matrix(-.00000014 1.2793689 -1.7307147 .00000923 137.69061 -22.94597)" gradientUnits="userSpaceOnUse" r="66.145836"><stop offset="0" stop-color="#f5ecf9"/><stop offset=".38270059" stop-color="#e1c6ec"/><stop offset="1" stop-color="#9b40bf"/></radialGradient><filter id="g" color-interpolation-filters="sRGB" height="1.17955" width="1.12876" x="-.06438" y="-.089775"><feGaussianBlur stdDeviation="2.4104798"/></filter><radialGradient id="h" cx="55.193054" cy="47.66674" gradientTransform="matrix(-.00000014 1.2793689 -1.7307147 .00000923 137.69061 -22.94597)" gradientUnits="userSpaceOnUse" r="66.145836"><stop offset="0" stop-color="#f9ecec"/><stop offset=".38270059" stop-color="#ecc6c6"/><stop offset="1" stop-color="#bf4040"/></radialGradient><radialGradient id="i" cx="55.193054" cy="47.66674" gradientTransform="matrix(-.00000014 1.2793689 -1.7307147 .00000923 137.69061 -22.94597)" gradientUnits="userSpaceOnUse" r="66.145836"><stop offset="0" stop-color="#eeecf9"/><stop offset=".38270059" stop-color="#ccc6ec"/><stop offset="1" stop-color="#5540bf"/></radialGradient><radialGradient id="j" cx="55.193054" cy="47.66674" gradientTransform="matrix(-.00000014 1.2793689 -1.7307147 .00000923 137.69061 -22.94597)" gradientUnits="userSpaceOnUse" r="66.145836"><stop offset="0" stop-color="#ffffe6"/><stop offset=".38270059" stop-color="#ffffb3"/><stop offset="1" stop-color="#e5e21a"/></radialGradient><radialGradient id="k" cx="55.193054" cy="47.66674" gradientTransform="matrix(-.00000014 1.2793689 -1.7307147 .00000923 137.69061 -22.94597)" gradientUnits="userSpaceOnUse" r="66.145836"><stop offset="0" stop-color="#fff8e6"/><stop offset=".38270059" stop-color="#fbe3b7"/><stop offset="1" stop-color="#fa0"/></radialGradient><radialGradient id="l" cx="55.193054" cy="47.66674" gradientTransform="matrix(-.00000014 1.2793689 -1.7307147 .00000923 137.69061 -22.94597)" gradientUnits="userSpaceOnUse" r="66.145836"><stop offset="0" stop-color="#ecf9ec"/><stop offset=".38270059" stop-color="#c6ecc6"/><stop offset="1" stop-color="#40bf40"/></radialGradient><radialGradient id="m" cx="55.193054" cy="47.66674" gradientTransform="matrix(-.00000014 1.2793689 -1.7307147 .00000923 137.69061 -22.94597)" gradientUnits="userSpaceOnUse" r="66.145836"><stop offset="0" stop-color="#ecf0f9"/><stop offset=".38270059" stop-color="#c6d3ec"/><stop offset="1" stop-color="#406abf"/></radialGradient><filter id="n" color-interpolation-filters="sRGB" height="1.463822" width="1.140672" x="-.070336" y="-.231911"><feGaussianBlur stdDeviation="1.3786704"/></filter><filter id="o" color-interpolation-filters="sRGB" height="1.209913" width="1.222466" x="-.111233" y="-.104956"><feGaussianBlur stdDeviation="2.7536103"/></filter><g><g opacity=".5" stroke-width="3.93454" transform="matrix(.12345057 0 0 .12373738 64.430771 3.349313)"><circle cx="66.145836" cy="66.145836" fill="#f5f5f5" r="66.145836"/><path d="m13.132809 80.90016c-5.2220396 15.90961 10.216134 35.22805 34.482038 43.1699 24.26591 7.94185 48.17954 1.48683 53.360123-14.4435 5.18059-15.93033-10.231673-35.228045-34.502763-43.1958-24.271082-7.967755-48.158802-1.466109-53.339398 14.4694z" fill="#b5b5b5" opacity=".33" stroke-width="2.03834"/><circle cx="66.145836" cy="66.145836" fill="url(#f)" opacity="1" r="66.145836"/><g stroke-width="2.03834"><path d="m22.416436 101.9541s29.783241 8.60497 64.436231-14.90457c33.015943-22.431979 16.857663-57.033171 24.716623-43.915905 7.85896 13.117265 20.53587 54.194205-21.193803 76.154745-38.05148 19.96601-67.959051-17.33427-67.959051-17.33427z" fill="#e1c5ec" fill-opacity=".65"/><path d="m106.4923 30.840075c3.62643 7.444513 2.02044 15.635034-3.56943 18.360026-5.589853 2.724994-13.008463-1.134549-16.608983-8.563522-3.60051-7.428972-1.99971-15.660939 3.56943-18.37039 5.56914-2.709449 13.018833 1.170816 16.608983 8.573886z" fill="#f5ecf9" fill-opacity=".5"/><path d="m113.74514 68.124815c.0415 5.429263-3.23788 9.843125-7.32536 9.843125-4.08749 0-7.434163-4.377598-7.449703-9.801681-.0157-5.424082 3.258593-9.84313 7.346103-9.884575 4.08748-.04145 7.42896 4.377602 7.42896 9.843131z" fill="#f5ecf9" fill-opacity=".5"/></g></g><g opacity=".5" stroke-width="3.17318" transform="matrix(.15363368 0 0 .15286467 91.417954 5.587845)"><circle cx="66.145836" cy="66.145836" fill="#f5f5f5" r="66.145836"/><path d="m13.132809 80.90016c-5.2220396 15.90961 10.216134 35.22805 34.482038 43.1699 24.26591 7.94185 48.17954 1.48683 53.360123-14.4435 5.18059-15.93033-10.231673-35.228045-34.502763-43.1958-24.271082-7.967755-48.158802-1.466109-53.339398 14.4694z" fill="#e0a3a3" filter="url(#g)" stroke-width="1.64391"/><circle cx="66.145836" cy="66.145836" fill="url(#h)" opacity="1" r="66.145836"/><g stroke-width="1.64391"><path d="m22.416436 101.9541s29.783241 8.60497 64.436231-14.90457c33.015943-22.431979 16.857663-57.033171 24.716623-43.915905 7.85896 13.117265 20.53587 54.194205-21.193803 76.154745-38.05148 19.96601-67.959051-17.33427-67.959051-17.33427z" fill="#ecc5c5" fill-opacity=".65"/><path d="m106.4923 30.840075c3.62643 7.444513 2.02044 15.635034-3.56943 18.360026-5.589853 2.724994-13.008463-1.134549-16.608983-8.563522-3.60051-7.428972-1.99971-15.660939 3.56943-18.37039 5.56914-2.709449 13.018833 1.170816 16.608983 8.573886z" fill="#f9ecec" fill-opacity=".5"/><path d="m113.74514 68.124815c.0415 5.429263-3.23788 9.843125-7.32536 9.843125-4.08749 0-7.434163-4.377598-7.449703-9.801681-.0157-5.424082 3.258593-9.84313 7.346103-9.884575 4.08748-.04145 7.42896 4.377602 7.42896 9.843131z" fill="#f9ecec" fill-opacity=".5"/></g></g><g opacity=".5" stroke-width="6.8525" transform="matrix(.07088233 0 0 .07104701 106.02013 94.773424)"><circle cx="66.145836" cy="66.145836" fill="#f5f5f5" r="66.145836"/><path d="m13.132809 80.90016c-5.2220396 15.90961 10.216134 35.22805 34.482038 43.1699 24.26591 7.94185 48.17954 1.48683 53.360123-14.4435 5.18059-15.93033-10.231673-35.228045-34.502763-43.1958-24.271082-7.967755-48.158802-1.466109-53.339398 14.4694z" fill="#b5b5b5" opacity=".33" stroke-width="3.55003"/><circle cx="66.145836" cy="66.145836" fill="url(#i)" opacity="1" r="66.145836"/><g stroke-width="3.55003"><path d="m22.416436 101.9541s29.783241 8.60497 64.436231-14.90457c33.015943-22.431979 16.857663-57.033171 24.716623-43.915905 7.85896 13.117265 20.53587 54.194205-21.193803 76.154745-38.05148 19.96601-67.959051-17.33427-67.959051-17.33427z" fill="#cbc5ec" fill-opacity=".65"/><path d="m106.4923 30.840075c3.62643 7.444513 2.02044 15.635034-3.56943 18.360026-5.589853 2.724994-13.008463-1.134549-16.608983-8.563522-3.60051-7.428972-1.99971-15.660939 3.56943-18.37039 5.56914-2.709449 13.018833 1.170816 16.608983 8.573886z" fill="#eeecf9" fill-opacity=".5"/><path d="m113.74514 68.124815c.0415 5.429263-3.23788 9.843125-7.32536 9.843125-4.08749 0-7.434163-4.377598-7.449703-9.801681-.0157-5.424082 3.258593-9.84313 7.346103-9.884575 4.08748-.04145 7.42896 4.377602 7.42896 9.843131z" fill="#eeecf9" fill-opacity=".5"/></g></g><g opacity=".5" stroke-width="3.93454" transform="matrix(.12345058 0 0 .12373738 112.70519 66.800532)"><circle cx="66.145836" cy="66.145836" fill="#f5f5f5" r="66.145836"/><path d="m13.132809 80.90016c-5.2220396 15.90961 10.216134 35.22805 34.482038 43.1699 24.26591 7.94185 48.17954 1.48683 53.360123-14.4435 5.18059-15.93033-10.231673-35.228045-34.502763-43.1958-24.271082-7.967755-48.158802-1.466109-53.339398 14.4694z" fill="#c7c7a3" opacity=".33" stroke-width="2.03834"/><circle cx="66.145836" cy="66.145836" fill="url(#j)" opacity="1" r="66.145836"/><g stroke-width="2.03834"><path d="m22.416436 101.9541s29.783241 8.60497 64.436231-14.90457c33.015943-22.431979 16.857663-57.033171 24.716623-43.915905 7.85896 13.117265 20.53587 54.194205-21.193803 76.154745-38.05148 19.96601-67.959051-17.33427-67.959051-17.33427z" fill="#ffffb2" fill-opacity=".65"/><path d="m106.4923 30.840075c3.62643 7.444513 2.02044 15.635034-3.56943 18.360026-5.589853 2.724994-13.008463-1.134549-16.608983-8.563522-3.60051-7.428972-1.99971-15.660939 3.56943-18.37039 5.56914-2.709449 13.018833 1.170816 16.608983 8.573886z" fill="#f9f9ec" fill-opacity=".5"/><path d="m113.74514 68.124815c.0415 5.429263-3.23788 9.843125-7.32536 9.843125-4.08749 0-7.434163-4.377598-7.449703-9.801681-.0157-5.424082 3.258593-9.84313 7.346103-9.884575 4.08748-.04145 7.42896 4.377602 7.42896 9.843131z" fill="#ffffe6" fill-opacity=".5"/></g></g><g opacity=".5" stroke-width="3.16172" transform="matrix(.1536337 0 0 .15397472 84.699644 66.800532)"><circle cx="66.145836" cy="66.145836" fill="#f5f5f5" r="66.145836"/><path d="m13.132809 80.90016c-5.2220396 15.90961 10.216134 35.22805 34.482038 43.1699 24.26591 7.94185 48.17954 1.48683 53.360123-14.4435 5.18059-15.93033-10.231673-35.228045-34.502763-43.1958-24.271082-7.967755-48.158802-1.466109-53.339398 14.4694z" fill="#c7bba3" opacity=".33" stroke-width="1.63797"/><circle cx="66.145836" cy="66.145836" fill="url(#k)" opacity="1" r="66.145836"/><g stroke-width="1.63797"><path d="m22.416436 101.9541s29.783241 8.60497 64.436231-14.90457c33.015943-22.431979 16.857663-57.033171 24.716623-43.915905 7.85896 13.117265 20.53587 54.194205-21.193803 76.154745-38.05148 19.96601-67.959051-17.33427-67.959051-17.33427z" fill="#ffe5b2" fill-opacity=".65"/><path d="m106.4923 30.840075c3.62643 7.444513 2.02044 15.635034-3.56943 18.360026-5.589853 2.724994-13.008463-1.134549-16.608983-8.563522-3.60051-7.428972-1.99971-15.660939 3.56943-18.37039 5.56914-2.709449 13.018833 1.170816 16.608983 8.573886z" fill="#fff7e6" fill-opacity=".5"/><path d="m113.74514 68.124815c.0415 5.429263-3.23788 9.843125-7.32536 9.843125-4.08749 0-7.434163-4.377598-7.449703-9.801681-.0157-5.424082 3.258593-9.84313 7.346103-9.884575 4.08748-.04145 7.42896 4.377602 7.42896 9.843131z" fill="#fff7e6" fill-opacity=".5"/></g></g><g opacity=".5" stroke-width="3.93454" transform="matrix(.12345057 0 0 .12373738 115.96019 -.000001)"><circle cx="66.145836" cy="66.145836" fill="#f5f5f5" r="66.145836"/><path d="m13.132809 80.90016c-5.2220396 15.90961 10.216134 35.22805 34.482038 43.1699 24.26591 7.94185 48.17954 1.48683 53.360123-14.4435 5.18059-15.93033-10.231673-35.228045-34.502763-43.1958-24.271082-7.967755-48.158802-1.466109-53.339398 14.4694z" fill="#b5b5b5" opacity=".33" stroke-width="2.03834"/><circle cx="66.145836" cy="66.145836" fill="url(#l)" opacity="1" r="66.145836"/><g stroke-width="2.03834"><path d="m22.416436 101.9541s29.783241 8.60497 64.436231-14.90457c33.015943-22.431979 16.857663-57.033171 24.716623-43.915905 7.85896 13.117265 20.53587 54.194205-21.193803 76.154745-38.05148 19.96601-67.959051-17.33427-67.959051-17.33427z" fill="#c5ecc5" fill-opacity=".65"/><path d="m106.4923 30.840075c3.62643 7.444513 2.02044 15.635034-3.56943 18.360026-5.589853 2.724994-13.008463-1.134549-16.608983-8.563522-3.60051-7.428972-1.99971-15.660939 3.56943-18.37039 5.56914-2.709449 13.018833 1.170816 16.608983 8.573886z" fill="#ecf9ec" fill-opacity=".5"/><path d="m113.74514 68.124815c.0415 5.429263-3.23788 9.843125-7.32536 9.843125-4.08749 0-7.434163-4.377598-7.449703-9.801681-.0157-5.424082 3.258593-9.84313 7.346103-9.884575 4.08748-.04145 7.42896 4.377602 7.42896 9.843131z" fill="#ecf9ec" fill-opacity=".5"/></g></g><g opacity=".5" stroke-width="3.16172" transform="matrix(.1536337 0 0 .15397472 100.54647 30.478697)"><circle cx="66.145836" cy="66.145836" fill="#f5f5f5" r="66.145836"/><path d="m13.132809 80.90016c-5.2220396 15.90961 10.216134 35.22805 34.482038 43.1699 24.26591 7.94185 48.17954 1.48683 53.360123-14.4435 5.18059-15.93033-10.231673-35.228045-34.502763-43.1958-24.271082-7.967755-48.158802-1.466109-53.339398 14.4694z" fill="#b5b5b5" opacity=".33" stroke-width="1.63797"/><circle cx="66.145836" cy="66.145836" fill="url(#m)" opacity="1" r="66.145836"/><g stroke-width="1.63797"><path d="m22.416436 101.9541s29.783241 8.60497 64.436231-14.90457c33.015943-22.431979 16.857663-57.033171 24.716623-43.915905 7.85896 13.117265 20.53587 54.194205-21.193803 76.154745-38.05148 19.96601-67.959051-17.33427-67.959051-17.33427z" fill="#c5d2ec" fill-opacity=".65"/><path d="m106.4923 30.840075c3.62643 7.444513 2.02044 15.635034-3.56943 18.360026-5.589853 2.724994-13.008463-1.134549-16.608983-8.563522-3.60051-7.428972-1.99971-15.660939 3.56943-18.37039 5.56914-2.709449 13.018833 1.170816 16.608983 8.573886z" fill="#ecf0f9" fill-opacity=".5"/><path d="m113.74514 68.124815c.0415 5.429263-3.23788 9.843125-7.32536 9.843125-4.08749 0-7.434163-4.377598-7.449703-9.801681-.0157-5.424082 3.258593-9.84313 7.346103-9.884575 4.08748-.04145 7.42896 4.377602 7.42896 9.843131z" fill="#ecf0f9" fill-opacity=".5"/></g></g><path d="m84.39942 24.932667c9.49871 5.446571 15.66868 12.493026 13.78159 15.739208l-46.99951 73.405835-.002.004c-2.34996 3.57245-5.91977 5.48631-9.57977 5.95915-3.65955.47328-7.42336-.38644-10.64345-2.14775-3.21986-1.76066-5.93825-4.45068-7.30722-7.84765-1.36106-3.37626-1.23899-7.45925.99066-11.374698l39.14464-77.722237c.64859-1.115645 2.1646-1.637176 4.26156-1.619898 4.00242.03307 10.12066 2.029846 16.354 5.60404z" fill="#cde5d7" opacity=".33"/><g opacity=".9" stroke-width="1.20159" transform="matrix(.83131252 0 0 .83315844 -169.3514 -7.140775)"><path d="m255.89493 83.04734-22.97608 44.39257c-2.68208 4.69952-2.82893 9.60014-1.19168 13.6525 1.64676 4.07722 4.91675 7.30593 8.78998 9.41916 3.8735 2.11402 8.40105 3.1459 12.80319 2.57784 4.40267-.56753 8.69686-2.86464 11.52366-7.15248l.003-.005 41.05617-62.88459z" fill="url(#b)" opacity="1"/><path d="m264.03222 83.04734-24.69628 47.71438c-.0451.0875-.092.17414-.14063.25976-1.66621 2.91952-1.59062 5.32616-.76758 7.36329.89849 2.22455 2.89334 4.3333 5.55079 5.7832h.002c2.6633 1.45353 5.73769 2.09927 8.41406 1.75391h.002c2.54131-.32759 4.7856-1.49275 6.41407-3.9629l.006-.008.0156-.0254 38.44029-58.87824z" fill="url(#b)" filter="url(#o)" stroke-width="11.445"/><g fill-rule="evenodd"><path d="m280.89846-72.441323c-7.20544 0-13.71616-.656293-18.76374-1.835932-1.05051-.245511-2.03541-.506796-2.96514-.804461l-6.34928-12.281518c.862-.984472 1.78233-1.599674 2.73639-2.126828 1.90812-1.054307 4.05425-1.73673 6.57803-2.326548 5.04758-1.179639 11.5583-1.837793 18.76374-1.837793 7.20545 0 13.71803.658154 18.76561 1.837793 3.13175 4.147743 6.28831 8.098689 9.31442 13.084118-.862.984472-1.78233 1.601535-2.73639 2.128689-1.90812 1.054307-4.05424 1.736729-6.57803 2.326548-5.04758 1.179639-11.56016 1.835932-18.76561 1.835932z" fill="url(#e)" transform="scale(1 -1)"/><path d="m280.83568 72.441943c-7.18033.0038-13.66812.659119-18.70095 1.835313-1.05052.24551-2.03541.506798-2.96515.80446l-6.34927 12.281519c.86199.984475 1.78233 1.599675 2.73639 2.126829 1.90812 1.054309 4.05424 1.736728 6.57803 2.326548 5.04758 1.179639 11.55829 1.837793 18.76374 1.837793.20599 0 .40933-.0025.61416-.0037a25.004122 10.606446 0 0 1 -.61354.0032 25.004122 10.606446 0 0 1 -25.00423-10.606231 25.004122 10.606446 0 0 1 24.94082-10.605612zm.67695 21.20874c6.96037-.03645 13.24816-.688154 18.15144-1.834071.78107-1.034452 1.56365-2.056673 2.34539-3.085732a25.004122 10.606446 0 0 1 -20.49683 4.919803zm-.54951-21.20874a25.004122 10.606446 0 0 1 24.9402 10.605611 25.004122 10.606446 0 0 1 -.0211.414946c1.0428-1.491354 2.07716-3.050997 3.09631-4.730006-.862-.984473-1.78234-1.601537-2.73639-2.128691-1.90813-1.054309-4.05425-1.736728-6.57804-2.326547-5.03239-1.176093-11.52135-1.831376-18.70095-1.835313z" opacity=".25" stroke-width="1.20159"/><path d="m280.89844-90.181641c-6.99393 0-13.29071.651904-17.97266 1.746094-2.37092.554094-4.19126 1.156569-5.68945 1.984375-.011.0061-.0145.01347-.0254.01953l4.34375 8.402344c.45569.123344.86959.25389 1.37109.371094 4.68112 1.093997 10.9781 1.744141 17.97266 1.744141 6.99457 0 13.29368-.650189 17.97461-1.744141 2.24235-.524047 3.93028-1.116679 5.38086-1.876953-2.10795-3.172778-4.27954-6.127389-6.52539-9.082032-4.55948-.958184-10.32915-1.564453-16.83008-1.564453z" fill="url(#e)" filter="url(#n)" stroke-width="11.445" transform="scale(1 -1)"/></g></g><path d="m84.39942 24.932667c9.49871 5.446571 15.66868 12.493026 13.78159 15.739208l-46.99951 73.405835-.002.004c-2.34996 3.57245-5.91977 5.48631-9.57977 5.95915-3.65955.47328-7.42336-.38644-10.64345-2.14775-3.21986-1.76066-5.93825-4.45068-7.30722-7.84765-1.36106-3.37626-1.23899-7.45925.99066-11.374698l39.14464-77.722237c.64859-1.115645 2.1646-1.637176 4.26156-1.619898 4.00242.03307 10.12066 2.029846 16.354 5.60404z" fill="#cde5d7" opacity=".1"/><g fill="#798682"><path d="m96.470672 39.67252-47.277762 73.09669c-1.955536 2.97285-4.849866 4.51402-7.897204 4.90771-3.09163.39985-6.378313-.333-9.199947-1.87637h-.0016c-2.819734-1.54186-5.116589-3.86103-6.239375-6.64713-1.093052-2.71141-1.044734-5.97289.850593-9.301229l.02946-.0522 38.759705-77.853245-3.420983-1.996654-39.54777 77.627813c-2.516375 4.478255-2.701033 9.345795-1.082619 13.360425 1.615157 4.00785 4.753182 7.06808 8.373131 9.04751 3.618082 1.979 7.859658 2.96628 12.086615 2.42001 4.272624-.552 8.517466-2.83993 11.261831-7.01198l.02738-.0424.01138-.016 46.68827-73.664666z"/><path d="m68.061583 17.344848c-.0058-.000047-.01047.0033-.01621.0032-2.426302-.01716-4.785551.561774-5.971809 2.601993-.864806 1.487649-.704412 3.23969-.115278 4.774388.589126 1.534699 1.609006 3.036516 2.958301 4.57749 2.69859 3.081949 6.757598 6.293195 11.665975 9.107789 4.908152 2.814227 9.737928 4.698149 13.770243 5.477366 2.016157.389608 3.833988.516449 5.45873.257108 1.624751-.259343 3.215426-.985767 4.080257-2.47344.864778-1.487626.704388-3.239708.115278-4.774388-.58911-1.534681-1.61066-3.036557-2.95993-4.57749-2.69854-3.081816-6.755969-6.293268-11.664354-9.107739-6.442115-3.693912-12.678405-5.827925-17.321178-5.866282zm-.0325 3.967267c3.362335.02778 9.362865 1.887832 15.387404 5.342303 4.590316 2.632093 8.366711 5.666597 10.656063 8.281139 1.144667 1.307271 1.905169 2.516615 2.239024 3.386333.333855.869719.237863 1.215169.159113 1.350628-.07872.135412-.349234.404272-1.28269.55327-.933448.148997-2.370596.09699-4.08512-.234326-3.429048-.66264-7.964057-2.393143-12.554116-5.024987-4.590333-2.632217-8.366645-5.668122-10.656063-8.282767-1.144709-1.307321-1.906773-2.514951-2.240645-3.384706-.33388-.869754-.236226-1.21682-.157501-1.352255.108262-.186196.77273-.649148 2.534531-.634632z"/><path d="m65.605404 14.033109v.00044c-4.376545.0013-7.256968 1.276618-8.39422 3.233405-1.300314 2.236188-.686448 5.985569 2.429336 10.488546 3.115552 4.502731 8.524769 9.391317 15.374693 13.318958 6.849932 3.926902 13.818011 6.134773 19.302021 6.563252 5.484527.428478 9.060606-.917997 10.360926-3.154183 1.2998-2.236188.68644-5.985385-2.42935-10.488116-3.116031-4.502977-8.525382-9.3915-15.375547-13.319388-6.849932-3.927643-13.817528-6.135634-19.302038-6.564114-.685176-.05356-1.340782-.07879-1.965821-.07879zm2.440102 5.295723c4.002545.03307 10.120407 2.029799 16.353721 5.603993 9.498735 5.44657 15.668833 12.49289 13.781757 15.739061-1.887071 3.246173-11.117068 1.462231-20.615279-3.983846-9.498735-5.446818-15.668836-12.49332-13.781757-15.739493.648657-1.115624 2.164472-1.636993 4.261558-1.619715z"/></g><g opacity=".5" transform="translate(0 -1.097139)"><path d="m1095.8281 343.06068c-2.3238-6.05371-3.023-13.21.5449-19.34766 4.9057-8.43716 14.4972-10.6755 23.9454-10.59766 18.0351.14901 41.905 8.09506 66.6211 21.9258-24.6587-14.47951-50.2555-22.16948-69.1856-23.6484-9.183-.63585-25.808-.1695-30.6916 7.47547-2.0937 3.60353-1.9588 14.42377 14.5147 35.96101.5364.0742-3.425-5.71486-5.7489-11.76856zm146.0821 64.27135c-3.5681 6.13787-10.0842 9.05793-16.4883 10.08008s-13.4174.51632-21.1524-.97852c-15.4699-2.98966-33.8219-10.20403-52.7925-20.41002 24.5335 14.71526 49.8647 22.63625 68.7649 24.11297 18.9722 1.4822 28.5948-3.87048 30.6894-7.47266 2.0935-3.60163 1.9605-14.42209-8.6395-27.32608 2.4832 8.69827 3.1863 15.8566-.3816 21.99423z" fill="#cde5d7" filter="url(#c)" opacity=".66" transform="matrix(.26458334 0 0 .26458334 -228.35295 -64.803352)"/><path d="m213.81836 78.734375c-.18043 8.102206 3.43484 18.523079 11.59375 30.314455 11.77531 17.01819 32.2199 35.49521 58.10937 50.33984 25.88951 14.84184 52.22616 23.18719 72.95313 24.80664 20.72892 1.61945 34.24556-3.47015 39.16016-11.92187 1.68871-2.90529 2.5227-6.48683 2.41211-10.62696-.0797 3.59274-.90287 6.72966-2.41211 9.32618-4.9146 8.45172-18.43124 13.54132-39.16016 11.92187-20.72697-1.61945-47.06362-9.96481-72.95313-24.80664-25.88947-14.84463-46.33406-33.31969-58.10937-50.33789-7.72813-11.168801-11.38259-21.111479-11.59375-29.015625z" filter="url(#d)" opacity=".5" transform="scale(.26458334)"/><path d="m257.17969 75.900391c-7.926-.0653-13.65581 1.904562-16.10742 6.121093-.96436 1.658896-1.36664 3.583172-1.26172 5.716797.0867-1.620184.49715-3.100803 1.26172-4.416015 2.45161-4.216532 8.18142-6.186397 16.10742-6.121094 15.12773.124989 38.24961 7.670923 61.80859 21.179687 31.0471 17.802391 52.68121 40.125281 53.35156 53.771481.72432-13.49333-21.29776-36.69263-53.35156-55.072262-23.55898-13.508764-46.68086-21.054698-61.80859-21.179687z" filter="url(#d)" opacity=".5" transform="scale(.26458334)"/></g><g opacity=".5" stroke-width="3.93454" transform="matrix(.12345057 0 0 .12373738 64.430771 3.349313)"><circle cx="66.145836" cy="66.145836" fill="#f5f5f5" r="66.145836"/><path d="m13.132809 80.90016c-5.2220396 15.90961 10.216134 35.22805 34.482038 43.1699 24.26591 7.94185 48.17954 1.48683 53.360123-14.4435 5.18059-15.93033-10.231673-35.228045-34.502763-43.1958-24.271082-7.967755-48.158802-1.466109-53.339398 14.4694z" fill="#b5b5b5" opacity=".33" stroke-width="2.03834"/><circle cx="66.145836" cy="66.145836" fill="url(#f)" opacity="1" r="66.145836"/><g stroke-width="2.03834"><path d="m22.416436 101.9541s29.783241 8.60497 64.436231-14.90457c33.015943-22.431979 16.857663-57.033171 24.716623-43.915905 7.85896 13.117265 20.53587 54.194205-21.193803 76.154745-38.05148 19.96601-67.959051-17.33427-67.959051-17.33427z" fill="#e1c5ec" fill-opacity=".65"/><path d="m106.4923 30.840075c3.62643 7.444513 2.02044 15.635034-3.56943 18.360026-5.589853 2.724994-13.008463-1.134549-16.608983-8.563522-3.60051-7.428972-1.99971-15.660939 3.56943-18.37039 5.56914-2.709449 13.018833 1.170816 16.608983 8.573886z" fill="#f5ecf9" fill-opacity=".5"/><path d="m113.74514 68.124815c.0415 5.429263-3.23788 9.843125-7.32536 9.843125-4.08749 0-7.434163-4.377598-7.449703-9.801681-.0157-5.424082 3.258593-9.84313 7.346103-9.884575 4.08748-.04145 7.42896 4.377602 7.42896 9.843131z" fill="#f5ecf9" fill-opacity=".5"/></g></g><g opacity=".5" stroke-width="3.17318" transform="matrix(.15363368 0 0 .15286467 91.417954 5.587845)"><circle cx="66.145836" cy="66.145836" fill="#f5f5f5" r="66.145836"/><path d="m13.132809 80.90016c-5.2220396 15.90961 10.216134 35.22805 34.482038 43.1699 24.26591 7.94185 48.17954 1.48683 53.360123-14.4435 5.18059-15.93033-10.231673-35.228045-34.502763-43.1958-24.271082-7.967755-48.158802-1.466109-53.339398 14.4694z" fill="#e0a3a3" filter="url(#g)" stroke-width="1.64391"/><circle cx="66.145836" cy="66.145836" fill="url(#h)" opacity="1" r="66.145836"/><g stroke-width="1.64391"><path d="m22.416436 101.9541s29.783241 8.60497 64.436231-14.90457c33.015943-22.431979 16.857663-57.033171 24.716623-43.915905 7.85896 13.117265 20.53587 54.194205-21.193803 76.154745-38.05148 19.96601-67.959051-17.33427-67.959051-17.33427z" fill="#ecc5c5" fill-opacity=".65"/><path d="m106.4923 30.840075c3.62643 7.444513 2.02044 15.635034-3.56943 18.360026-5.589853 2.724994-13.008463-1.134549-16.608983-8.563522-3.60051-7.428972-1.99971-15.660939 3.56943-18.37039 5.56914-2.709449 13.018833 1.170816 16.608983 8.573886z" fill="#f9ecec" fill-opacity=".5"/><path d="m113.74514 68.124815c.0415 5.429263-3.23788 9.843125-7.32536 9.843125-4.08749 0-7.434163-4.377598-7.449703-9.801681-.0157-5.424082 3.258593-9.84313 7.346103-9.884575 4.08748-.04145 7.42896 4.377602 7.42896 9.843131z" fill="#f9ecec" fill-opacity=".5"/></g></g><g opacity=".5" stroke-width="6.8525" transform="matrix(.07088233 0 0 .07104701 106.02013 94.773424)"><circle cx="66.145836" cy="66.145836" fill="#f5f5f5" r="66.145836"/><path d="m13.132809 80.90016c-5.2220396 15.90961 10.216134 35.22805 34.482038 43.1699 24.26591 7.94185 48.17954 1.48683 53.360123-14.4435 5.18059-15.93033-10.231673-35.228045-34.502763-43.1958-24.271082-7.967755-48.158802-1.466109-53.339398 14.4694z" fill="#b5b5b5" opacity=".33" stroke-width="3.55003"/><circle cx="66.145836" cy="66.145836" fill="url(#i)" opacity="1" r="66.145836"/><g stroke-width="3.55003"><path d="m22.416436 101.9541s29.783241 8.60497 64.436231-14.90457c33.015943-22.431979 16.857663-57.033171 24.716623-43.915905 7.85896 13.117265 20.53587 54.194205-21.193803 76.154745-38.05148 19.96601-67.959051-17.33427-67.959051-17.33427z" fill="#cbc5ec" fill-opacity=".65"/><path d="m106.4923 30.840075c3.62643 7.444513 2.02044 15.635034-3.56943 18.360026-5.589853 2.724994-13.008463-1.134549-16.608983-8.563522-3.60051-7.428972-1.99971-15.660939 3.56943-18.37039 5.56914-2.709449 13.018833 1.170816 16.608983 8.573886z" fill="#eeecf9" fill-opacity=".5"/><path d="m113.74514 68.124815c.0415 5.429263-3.23788 9.843125-7.32536 9.843125-4.08749 0-7.434163-4.377598-7.449703-9.801681-.0157-5.424082 3.258593-9.84313 7.346103-9.884575 4.08748-.04145 7.42896 4.377602 7.42896 9.843131z" fill="#eeecf9" fill-opacity=".5"/></g></g><g opacity=".5" stroke-width="3.93454" transform="matrix(.12345058 0 0 .12373738 112.70519 66.800532)"><circle cx="66.145836" cy="66.145836" fill="#f5f5f5" r="66.145836"/><path d="m13.132809 80.90016c-5.2220396 15.90961 10.216134 35.22805 34.482038 43.1699 24.26591 7.94185 48.17954 1.48683 53.360123-14.4435 5.18059-15.93033-10.231673-35.228045-34.502763-43.1958-24.271082-7.967755-48.158802-1.466109-53.339398 14.4694z" fill="#c7c7a3" opacity=".33" stroke-width="2.03834"/><circle cx="66.145836" cy="66.145836" fill="url(#j)" opacity="1" r="66.145836"/><g stroke-width="2.03834"><path d="m22.416436 101.9541s29.783241 8.60497 64.436231-14.90457c33.015943-22.431979 16.857663-57.033171 24.716623-43.915905 7.85896 13.117265 20.53587 54.194205-21.193803 76.154745-38.05148 19.96601-67.959051-17.33427-67.959051-17.33427z" fill="#ffffb2" fill-opacity=".65"/><path d="m106.4923 30.840075c3.62643 7.444513 2.02044 15.635034-3.56943 18.360026-5.589853 2.724994-13.008463-1.134549-16.608983-8.563522-3.60051-7.428972-1.99971-15.660939 3.56943-18.37039 5.56914-2.709449 13.018833 1.170816 16.608983 8.573886z" fill="#f9f9ec" fill-opacity=".5"/><path d="m113.74514 68.124815c.0415 5.429263-3.23788 9.843125-7.32536 9.843125-4.08749 0-7.434163-4.377598-7.449703-9.801681-.0157-5.424082 3.258593-9.84313 7.346103-9.884575 4.08748-.04145 7.42896 4.377602 7.42896 9.843131z" fill="#ffffe6" fill-opacity=".5"/></g></g><g opacity=".5" stroke-width="3.16172" transform="matrix(.1536337 0 0 .15397472 84.699644 66.800532)"><circle cx="66.145836" cy="66.145836" fill="#f5f5f5" r="66.145836"/><path d="m13.132809 80.90016c-5.2220396 15.90961 10.216134 35.22805 34.482038 43.1699 24.26591 7.94185 48.17954 1.48683 53.360123-14.4435 5.18059-15.93033-10.231673-35.228045-34.502763-43.1958-24.271082-7.967755-48.158802-1.466109-53.339398 14.4694z" fill="#c7bba3" opacity=".33" stroke-width="1.63797"/><circle cx="66.145836" cy="66.145836" fill="url(#k)" opacity="1" r="66.145836"/><g stroke-width="1.63797"><path d="m22.416436 101.9541s29.783241 8.60497 64.436231-14.90457c33.015943-22.431979 16.857663-57.033171 24.716623-43.915905 7.85896 13.117265 20.53587 54.194205-21.193803 76.154745-38.05148 19.96601-67.959051-17.33427-67.959051-17.33427z" fill="#ffe5b2" fill-opacity=".65"/><path d="m106.4923 30.840075c3.62643 7.444513 2.02044 15.635034-3.56943 18.360026-5.589853 2.724994-13.008463-1.134549-16.608983-8.563522-3.60051-7.428972-1.99971-15.660939 3.56943-18.37039 5.56914-2.709449 13.018833 1.170816 16.608983 8.573886z" fill="#fff7e6" fill-opacity=".5"/><path d="m113.74514 68.124815c.0415 5.429263-3.23788 9.843125-7.32536 9.843125-4.08749 0-7.434163-4.377598-7.449703-9.801681-.0157-5.424082 3.258593-9.84313 7.346103-9.884575 4.08748-.04145 7.42896 4.377602 7.42896 9.843131z" fill="#fff7e6" fill-opacity=".5"/></g></g><g opacity=".5" stroke-width="3.93454" transform="matrix(.12345057 0 0 .12373738 115.96019 -.000001)"><circle cx="66.145836" cy="66.145836" fill="#f5f5f5" r="66.145836"/><path d="m13.132809 80.90016c-5.2220396 15.90961 10.216134 35.22805 34.482038 43.1699 24.26591 7.94185 48.17954 1.48683 53.360123-14.4435 5.18059-15.93033-10.231673-35.228045-34.502763-43.1958-24.271082-7.967755-48.158802-1.466109-53.339398 14.4694z" fill="#b5b5b5" opacity=".33" stroke-width="2.03834"/><circle cx="66.145836" cy="66.145836" fill="url(#l)" opacity="1" r="66.145836"/><g stroke-width="2.03834"><path d="m22.416436 101.9541s29.783241 8.60497 64.436231-14.90457c33.015943-22.431979 16.857663-57.033171 24.716623-43.915905 7.85896 13.117265 20.53587 54.194205-21.193803 76.154745-38.05148 19.96601-67.959051-17.33427-67.959051-17.33427z" fill="#c5ecc5" fill-opacity=".65"/><path d="m106.4923 30.840075c3.62643 7.444513 2.02044 15.635034-3.56943 18.360026-5.589853 2.724994-13.008463-1.134549-16.608983-8.563522-3.60051-7.428972-1.99971-15.660939 3.56943-18.37039 5.56914-2.709449 13.018833 1.170816 16.608983 8.573886z" fill="#ecf9ec" fill-opacity=".5"/><path d="m113.74514 68.124815c.0415 5.429263-3.23788 9.843125-7.32536 9.843125-4.08749 0-7.434163-4.377598-7.449703-9.801681-.0157-5.424082 3.258593-9.84313 7.346103-9.884575 4.08748-.04145 7.42896 4.377602 7.42896 9.843131z" fill="#ecf9ec" fill-opacity=".5"/></g></g><g opacity=".5" stroke-width="3.16172" transform="matrix(.1536337 0 0 .15397472 100.54647 30.478697)"><circle cx="66.145836" cy="66.145836" fill="#f5f5f5" r="66.145836"/><path d="m13.132809 80.90016c-5.2220396 15.90961 10.216134 35.22805 34.482038 43.1699 24.26591 7.94185 48.17954 1.48683 53.360123-14.4435 5.18059-15.93033-10.231673-35.228045-34.502763-43.1958-24.271082-7.967755-48.158802-1.466109-53.339398 14.4694z" fill="#b5b5b5" opacity=".33" stroke-width="1.63797"/><circle cx="66.145836" cy="66.145836" fill="url(#m)" opacity="1" r="66.145836"/><g stroke-width="1.63797"><path d="m22.416436 101.9541s29.783241 8.60497 64.436231-14.90457c33.015943-22.431979 16.857663-57.033171 24.716623-43.915905 7.85896 13.117265 20.53587 54.194205-21.193803 76.154745-38.05148 19.96601-67.959051-17.33427-67.959051-17.33427z" fill="#c5d2ec" fill-opacity=".65"/><path d="m106.4923 30.840075c3.62643 7.444513 2.02044 15.635034-3.56943 18.360026-5.589853 2.724994-13.008463-1.134549-16.608983-8.563522-3.60051-7.428972-1.99971-15.660939 3.56943-18.37039 5.56914-2.709449 13.018833 1.170816 16.608983 8.573886z" fill="#ecf0f9" fill-opacity=".5"/><path d="m113.74514 68.124815c.0415 5.429263-3.23788 9.843125-7.32536 9.843125-4.08749 0-7.434163-4.377598-7.449703-9.801681-.0157-5.424082 3.258593-9.84313 7.346103-9.884575 4.08748-.04145 7.42896 4.377602 7.42896 9.843131z" fill="#ecf0f9" fill-opacity=".5"/></g></g></g></svg>