<svg height="500" viewBox="0 0 132.29167 132.29167" width="500" xmlns="http://www.w3.org/2000/svg" xmlns:xlink="http://www.w3.org/1999/xlink"><linearGradient id="a"><stop offset="0" stop-color="#f00"/><stop offset=".14285706" stop-color="#f00"/><stop offset=".28571412" stop-color="#ff7800"/><stop offset=".42857116" stop-color="#ffef00"/><stop offset=".57142824" stop-color="#0c0"/><stop offset=".71428525" stop-color="#0073ff"/><stop offset=".85714233" stop-color="#b600ff"/><stop offset="1" stop-color="#b600ff"/></linearGradient><linearGradient id="b" gradientUnits="userSpaceOnUse" spreadMethod="reflect" x1="225.8423" x2="300.38358" xlink:href="#a" y1="147.86281" y2="89.954369"/><filter id="c" color-interpolation-filters="sRGB" height="1.151135" width="1.099502" x="-.049751" y="-.075567"><feGaussianBlur stdDeviation="3.438265"/></filter><filter id="d" color-interpolation-filters="sRGB" height="1.115211" width="1.066272" x="-.033136" y="-.057605"><feGaussianBlur stdDeviation="1.8302532"/></filter><linearGradient id="e" gradientTransform="matrix(1 0 0 .49871076 -.000015 -140.3607)" gradientUnits="userSpaceOnUse" spreadMethod="reflect" x1="225.8423" x2="300.38358" xlink:href="#a" y1="147.86281" y2="89.954369"/><radialGradient id="f" cx="494.25363" cy="332.55859" gradientTransform="matrix(-.33462355 .12958228 -.13250235 -.34220148 276.54747 68.068365)" gradientUnits="userSpaceOnUse" r="43.257179"><stop offset="0" stop-color="#deaa87"/><stop offset="1" stop-color="#d38d5f"/></radialGradient><filter id="g" color-interpolation-filters="sRGB" height="1.463822" width="1.140672" x="-.070336" y="-.231911"><feGaussianBlur stdDeviation="1.3786704"/></filter><filter id="h" color-interpolation-filters="sRGB" height="1.209913" width="1.222466" x="-.111233" y="-.104956"><feGaussianBlur stdDeviation="2.7536103"/></filter><g><path d="m84.39942 24.932667c9.49871 5.446571 15.66868 12.493026 13.78159 15.739208l-46.99951 73.405835-.002.004c-2.34996 3.57245-5.91977 5.48631-9.57977 5.95915-3.65955.47328-7.42336-.38644-10.64345-2.14775-3.21986-1.76066-5.93825-4.45068-7.30722-7.84765-1.36106-3.37626-1.23899-7.45925.99066-11.374698l39.14464-77.722237c.64859-1.115645 2.1646-1.637176 4.26156-1.619898 4.00242.03307 10.12066 2.029846 16.354 5.60404z" fill="#cde5d7" opacity=".33"/><g stroke-width=".808651" transform="matrix(1.0714692 .61741411 -.61741411 1.0714692 22.11935 -33.531099)"><path d="m52.400186 20.363774 5.99503 14.618867c.53304 1.249855 1.21833 2.212549 2.50618 2.645833 4.40649 1.48235 9.03129 1.397315 13.36042.02791 1.40183-.443561 1.93709-1.509697 2.44718-2.888713l5.34514-14.453839s1.27488-2.846559 1.19108-4.34645c-.10908-1.952252-.83162-4.024781-2.1709-5.449393-1.56588-1.6656611-3.99536-2.3314561-6.20272-2.9264381-2.53252-.68263-5.21692-.675475-7.83983-.673859-2.64533.0016-5.36111-.0327-7.90598.689361-2.11531.600184-4.41048 1.339962-5.89318 2.9636461-1.34326 1.470991-2.12571 3.569258-2.19027 5.56024-.048 1.480987 1.35785 4.232839 1.35785 4.232839z" fill="#c36e36"/><path d="m56.808976 13.715668c-.85684.974441-1.1465 2.449269-1.0648 3.744272.10003 1.585465 1.24628 2.922606 1.86942 4.38391 1.60205 3.756954 4.80615 11.270872 4.80615 11.270872 3.47978 1.170599 6.87158 1.118722 10.40569.000794 0 0 2.78521-7.531087 4.1778-11.296637.53735-1.452978 1.5533-2.810896 1.61203-4.358939.0492-1.297136-.1986-2.782319-1.07016-3.744272-.90373-.997453-2.44365-1.180606-3.75449-1.486141-2.2014-.513115-4.49854-.549246-6.75896-.549265-2.26041-.000018-4.56506.0048-6.75896.549151-1.2194.302548-2.63409.542753-3.46372 1.486255z" fill="url(#f)"/></g><g stroke-width="1.20159" transform="matrix(.83131252 0 0 .83315844 -169.3514 -7.140775)"><path d="m255.89493 83.04734-22.97608 44.39257c-2.68208 4.69952-2.82893 9.60014-1.19168 13.6525 1.64676 4.07722 4.91675 7.30593 8.78998 9.41916 3.8735 2.11402 8.40105 3.1459 12.80319 2.57784 4.40267-.56753 8.69686-2.86464 11.52366-7.15248l.003-.005 41.05617-62.88459z" fill="url(#b)"/><path d="m264.03222 83.04734-24.69628 47.71438c-.0451.0875-.092.17414-.14063.25976-1.66621 2.91952-1.59062 5.32616-.76758 7.36329.89849 2.22455 2.89334 4.3333 5.55079 5.7832h.002c2.6633 1.45353 5.73769 2.09927 8.41406 1.75391h.002c2.54131-.32759 4.7856-1.49275 6.41407-3.9629l.006-.008.0156-.0254 38.44029-58.87824z" fill="url(#b)" filter="url(#h)" stroke-width="11.445"/><g fill-rule="evenodd"><path d="m280.89846-72.441323c-7.20544 0-13.71616-.656293-18.76374-1.835932-1.05051-.245511-2.03541-.506796-2.96514-.804461l-6.34928-12.281518c.862-.984472 1.78233-1.599674 2.73639-2.126828 1.90812-1.054307 4.05425-1.73673 6.57803-2.326548 5.04758-1.179639 11.5583-1.837793 18.76374-1.837793 7.20545 0 13.71803.658154 18.76561 1.837793 3.13175 4.147743 6.28831 8.098689 9.31442 13.084118-.862.984472-1.78233 1.601535-2.73639 2.128689-1.90812 1.054307-4.05424 1.736729-6.57803 2.326548-5.04758 1.179639-11.56016 1.835932-18.76561 1.835932z" fill="url(#e)" transform="scale(1 -1)"/><path d="m242.30859 201.12695c-22.56039.012-42.94482 2.07553-58.75781 5.7793-3.3007.7731-6.39519 1.59588-9.3164 2.5332l-19.94922 38.67383c2.70837 3.10006 5.60003 5.03729 8.59765 6.69727 5.99526 3.31996 12.7383 5.46886 20.66797 7.32617 15.85934 3.71462 36.31578 5.78711 58.95508 5.78711.64721 0 1.28609-.008 1.92969-.0117a78.562164 33.399117 0 0 1 -1.92774.01 78.562164 33.399117 0 0 1 -78.5625-33.39844 78.562164 33.399117 0 0 1 78.36328-33.39649zm2.12696 66.78516c21.86925-.11478 41.6253-2.16696 57.03125-5.77539 2.45407-3.25743 4.91293-6.47635 7.36914-9.7168a78.562164 33.399117 0 0 1 -64.40039 15.49219zm-1.72657-66.78516a78.562164 33.399117 0 0 1 78.36133 33.39649 78.562164 33.399117 0 0 1 -.0664 1.30664c3.27647-4.69619 6.52639-9.60742 9.72851-14.89453-2.70837-3.10005-5.60003-5.04315-8.59765-6.70313-5.99526-3.31996-12.7383-5.46886-20.66797-7.32617-15.81161-3.70345-36.19973-5.7669-58.75782-5.7793z" opacity=".25" stroke-width="3.77955" transform="matrix(.31827181 0 0 .31756666 203.71569 8.570729)"/><path d="m280.89844-90.181641c-6.99393 0-13.29071.651904-17.97266 1.746094-2.37092.554094-4.19126 1.156569-5.68945 1.984375-.011.0061-.0145.01347-.0254.01953l4.34375 8.402344c.45569.123344.86959.25389 1.37109.371094 4.68112 1.093997 10.9781 1.744141 17.97266 1.744141 6.99457 0 13.29368-.650189 17.97461-1.744141 2.24235-.524047 3.93028-1.116679 5.38086-1.876953-2.10795-3.172778-4.27954-6.127389-6.52539-9.082032-4.55948-.958184-10.32915-1.564453-16.83008-1.564453z" fill="url(#e)" filter="url(#g)" stroke-width="11.445" transform="scale(1 -1)"/></g></g><g><path d="m84.39942 24.932667c9.49871 5.446571 15.66868 12.493026 13.78159 15.739208l-46.99951 73.405835-.002.004c-2.34996 3.57245-5.91977 5.48631-9.57977 5.95915-3.65955.47328-7.42336-.38644-10.64345-2.14775-3.21986-1.76066-5.93825-4.45068-7.30722-7.84765-1.36106-3.37626-1.23899-7.45925.99066-11.374698l39.14464-77.722237c.64859-1.115645 2.1646-1.637176 4.26156-1.619898 4.00242.03307 10.12066 2.029846 16.354 5.60404z" fill="#cde5d7" opacity=".1"/><g fill="#798682"><path d="m96.470672 39.67252-47.277762 73.09669c-1.955536 2.97285-4.849866 4.51402-7.897204 4.90771-3.09163.39985-6.378313-.333-9.199947-1.87637h-.0016c-2.819734-1.54186-5.116589-3.86103-6.239375-6.64713-1.093052-2.71141-1.044734-5.97289.850593-9.301229l.02946-.0522 38.759705-77.853245-3.420983-1.996654-39.54777 77.627813c-2.516375 4.478255-2.701033 9.345795-1.082619 13.360425 1.615157 4.00785 4.753182 7.06808 8.373131 9.04751 3.618082 1.979 7.859658 2.96628 12.086615 2.42001 4.272624-.552 8.517466-2.83993 11.261831-7.01198l.02738-.0424.01138-.016 46.68827-73.664666z"/><path d="m68.061583 17.344848c-.0058-.000047-.01047.0033-.01621.0032-2.426302-.01716-4.785551.561774-5.971809 2.601993-.864806 1.487649-.704412 3.23969-.115278 4.774388.589126 1.534699 1.609006 3.036516 2.958301 4.57749 2.69859 3.081949 6.757598 6.293195 11.665975 9.107789 4.908152 2.814227 9.737928 4.698149 13.770243 5.477366 2.016157.389608 3.833988.516449 5.45873.257108 1.624751-.259343 3.215426-.985767 4.080257-2.47344.864778-1.487626.704388-3.239708.115278-4.774388-.58911-1.534681-1.61066-3.036557-2.95993-4.57749-2.69854-3.081816-6.755969-6.293268-11.664354-9.107739-6.442115-3.693912-12.678405-5.827925-17.321178-5.866282zm-.0325 3.967267c3.362335.02778 9.362865 1.887832 15.387404 5.342303 4.590316 2.632093 8.366711 5.666597 10.656063 8.281139 1.144667 1.307271 1.905169 2.516615 2.239024 3.386333.333855.869719.237863 1.215169.159113 1.350628-.07872.135412-.349234.404272-1.28269.55327-.933448.148997-2.370596.09699-4.08512-.234326-3.429048-.66264-7.964057-2.393143-12.554116-5.024987-4.590333-2.632217-8.366645-5.668122-10.656063-8.282767-1.144709-1.307321-1.906773-2.514951-2.240645-3.384706-.33388-.869754-.236226-1.21682-.157501-1.352255.108262-.186196.77273-.649148 2.534531-.634632z"/><path d="m65.605404 14.033109v.00044c-4.376545.0013-7.256968 1.276618-8.39422 3.233405-1.300314 2.236188-.686448 5.985569 2.429336 10.488546 3.115552 4.502731 8.524769 9.391317 15.374693 13.318958 6.849932 3.926902 13.818011 6.134773 19.302021 6.563252 5.484527.428478 9.060606-.917997 10.360926-3.154183 1.2998-2.236188.68644-5.985385-2.42935-10.488116-3.116031-4.502977-8.525382-9.3915-15.375547-13.319388-6.849932-3.927643-13.817528-6.135634-19.302038-6.564114-.685176-.05356-1.340782-.07879-1.965821-.07879zm2.440102 5.295723c4.002545.03307 10.120407 2.029799 16.353721 5.603993 9.498735 5.44657 15.668833 12.49289 13.781757 15.739061-1.887071 3.246173-11.117068 1.462231-20.615279-3.983846-9.498735-5.446818-15.668836-12.49332-13.781757-15.739493.648657-1.115624 2.164472-1.636993 4.261558-1.619715z"/></g><g opacity=".5" transform="translate(0 -1.097139)"><path d="m1095.8281 343.06068c-2.3238-6.05371-3.023-13.21.5449-19.34766 4.9057-8.43716 14.4972-10.6755 23.9454-10.59766 18.0351.14901 41.905 8.09506 66.6211 21.9258-24.6587-14.47951-50.2555-22.16948-69.1856-23.6484-9.183-.63585-25.808-.1695-30.6916 7.47547-2.0937 3.60353-1.9588 14.42377 14.5147 35.96101.5364.0742-3.425-5.71486-5.7489-11.76856zm146.0821 64.27135c-3.5681 6.13787-10.0842 9.05793-16.4883 10.08008s-13.4174.51632-21.1524-.97852c-15.4699-2.98966-33.8219-10.20403-52.7925-20.41002 24.5335 14.71526 49.8647 22.63625 68.7649 24.11297 18.9722 1.4822 28.5948-3.87048 30.6894-7.47266 2.0935-3.60163 1.9605-14.42209-8.6395-27.32608 2.4832 8.69827 3.1863 15.8566-.3816 21.99423z" fill="#cde5d7" filter="url(#c)" opacity=".66" transform="matrix(.26458334 0 0 .26458334 -228.35295 -64.803352)"/><path d="m213.81836 78.734375c-.18043 8.102206 3.43484 18.523079 11.59375 30.314455 11.77531 17.01819 32.2199 35.49521 58.10937 50.33984 25.88951 14.84184 52.22616 23.18719 72.95313 24.80664 20.72892 1.61945 34.24556-3.47015 39.16016-11.92187 1.68871-2.90529 2.5227-6.48683 2.41211-10.62696-.0797 3.59274-.90287 6.72966-2.41211 9.32618-4.9146 8.45172-18.43124 13.54132-39.16016 11.92187-20.72697-1.61945-47.06362-9.96481-72.95313-24.80664-25.88947-14.84463-46.33406-33.31969-58.10937-50.33789-7.72813-11.168801-11.38259-21.111479-11.59375-29.015625z" filter="url(#d)" opacity=".5" transform="scale(.26458334)"/></g><g stroke-width=".808651" transform="matrix(1.0714692 .61741411 -.61741411 1.0714692 22.11935 -33.531099)"><path d="m54.830414 9.2846366c-.591745.3574776-1.134196.7787314-1.597539 1.2861324-1.343259 1.470989-2.126049 3.569048-2.190608 5.560028-.048 1.480986 1.357852 4.23295 1.357852 4.23295l.405429.988997c.332085.502198.563351.827455.639921.889565.58508.474598 1.606661 1.013105 2.936517 1.46692 2.65971.907631 6.531375 1.510005 10.810319 1.500981 4.278602-.0092 8.154861-.627689 10.824961-1.547844 1.335047-.46008 2.363034-1.003634 2.956899-1.484896.04277-.03466.231963-.138679.493375-.277063l.586606-1.586683s1.274647-2.846451 1.190847-4.346341c-.10908-1.95225-.831344-4.024652-2.170623-5.449263-1.565878-1.665659-3.995302-2.3317064-6.20266-2.9266878-2.532518-.6826293-5.217235-.6753049-7.840142-.6736889-2.645328.0016-5.360997-.032531-7.905864.689529-1.454275.4126261-2.993451.8909136-4.29529 1.6773643z" fill="#c36e36"/><path d="m57.528847 13.128044c-.268346.159926-.512648.351705-.720055.58758-.856839.97444-1.14623 2.449473-1.06453 3.744475.10003 1.585463 1.246117 2.922601 1.869257 4.383903.355842.834482.606104 1.421798 1.067355 2.503476 2.395873.540088 5.341092.869418 8.511431.862732 3.351709-.0072 6.453563-.38947 8.92502-.996585.380601-1.029134.590641-1.596498.885869-2.394792.537349-1.452977 1.553157-2.810861 1.611887-4.358903.0492-1.297134-.198466-2.782378-1.070025-3.74433-.903729-.997452-2.443609-1.180562-3.754447-1.486097-2.201398-.513114-4.498521-.549136-6.758938-.549155-2.260408-.000018-4.565012.0047-6.75891.549014-.914549.226911-1.938873.418903-2.743914.898682z" fill="url(#f)"/></g></g></g></svg>