<svg height="500" viewBox="0 0 500 500" width="500" xmlns="http://www.w3.org/2000/svg" xmlns:xlink="http://www.w3.org/1999/xlink"><linearGradient id="a" gradientUnits="userSpaceOnUse" spreadMethod="reflect" x1="-99.886253" x2="-89.162262" xlink:href="#b" y1="71.239738" y2="93.250267"/><linearGradient id="b"><stop offset="0" stop-color="#deaa87"/><stop offset="1" stop-color="#d38d5f"/></linearGradient><radialGradient id="c" cx="911.12549" cy="479.49054" gradientTransform="matrix(1.491782 1.1568886 -.86432274 1.1128171 -1001.0214 -1512.1455)" gradientUnits="userSpaceOnUse" r="43.257179" xlink:href="#b"/><filter id="d" color-interpolation-filters="sRGB" height="1.037537" width="1.037537" x="-.018769" y="-.018769"><feGaussianBlur stdDeviation=".88971242"/></filter><filter id="e" color-interpolation-filters="sRGB" height="1.04569" width="1.035215" x="-.017607" y="-.022845"><feGaussianBlur stdDeviation=".42510076"/></filter><filter id="f" color-interpolation-filters="sRGB" height="1.034862" width="1.035336" x="-.017668" y="-.017431"><feGaussianBlur stdDeviation=".42510076"/></filter><linearGradient id="g" gradientTransform="matrix(.93817695 0 0 .48491441 757.20165 6.261018)" gradientUnits="userSpaceOnUse" x1="41.336952" x2="93.05101" xlink:href="#h" y1="65.204704" y2="74.612602"/><linearGradient id="h"><stop offset="0" stop-color="#e9f4fc"/><stop offset="1" stop-color="#b6d7e7"/></linearGradient><linearGradient id="i" gradientTransform="matrix(.93198789 0 0 .93198786 -1083.9284 -78.855317)" gradientUnits="userSpaceOnUse" spreadMethod="reflect" x1="87.688141" x2="22.92226" xlink:href="#h" y1="85.248062" y2="92.853149"/><filter id="j" color-interpolation-filters="sRGB" height="1.012304" width="1.003967" x="-.001984" y="-.006152"><feGaussianBlur stdDeviation=".21367309"/></filter><g transform="translate(413.77558 38.352051)"><g><g fill="#6f8a91"><path d="m-94.41304 36.254666a8.5 8.5 0 0 0 -5.47461 3.515625l-37.48632 53.964841c-2.34228-.86002-4.80498-1.77108-7.91407-2.73242-8.03845-2.48552-17.37984-5.19602-26.59765-3.91211-21.84823 3.04318-44.50966 11.06499-60.7461 33.960938a8.50085 8.50085 0 0 0 -.0469.0684l-116.61719 167.8789a8.50085 8.50085 0 0 0 -.33203 9.18164l61.25586 103.34766a8.50085 8.50085 0 0 0 5.80273 4.03125l118.22852 21.33203a8.50085 8.50085 0 0 0 8.49023-3.51562l116.61719-167.87696a8.50085 8.50085 0 0 0 .0469-.0684c15.789012-23.20675 15.396976-47.24291 10.623043-68.77929-2.014132-9.08625-7.812377-16.89516-12.947263-23.56055-1.98624-2.57825-3.70067-4.56799-5.32422-6.46289l37.486327-53.96484a8.5 8.5 0 0 0 -2.130859-11.830078 8.5 8.5 0 0 0 -11.830079 2.13281l-41.269529 59.410158a8.50085 8.50085 0 0 0 .80664 10.6914s4.23594 4.48315 8.79297 10.39844c4.55703 5.9153 9.12796 13.74186 9.82031 16.86524 4.29451 19.37359 4.70029 36.7456-8.07813 55.53125-.001.002-.003.004-.004.006l-113.45508 163.32422-109.03125-19.67382-56.49219-95.30665 113.45508-163.32617.006-.008c13.14388-18.52972 29.56349-24.21177 49.2168-26.94922 3.16861-.44134 12.09663 1.10864 19.23047 3.31445 7.13383 2.20582 12.8164 4.61133 12.8164 4.61133a8.50085 8.50085 0 0 0 10.30078-2.97461l41.26954-59.410151a8.5 8.5 0 0 0 -2.13282-11.832031 8.5 8.5 0 0 0 -6.35547-1.382812z"/><path d="m-340.80561 285.48318a8.5 8.5 0 0 0 -9.875 6.85547 8.5 8.5 0 0 0 6.85546 9.87304l114.40625 20.64454 59.2754 100.0039a8.5 8.5 0 0 0 11.64648 2.97852 8.5 8.5 0 0 0 2.97656-11.64649l-61.25586-103.3457a8.50085 8.50085 0 0 0 -5.80273-4.03125z"/><path d="m-109.1396 139.16873a8.5 8.5 0 0 0 -5.47461 3.51757l-173.41797 249.64649a8.5 8.5 0 0 0 2.13282 11.83008 8.5 8.5 0 0 0 11.83007-2.13086l173.41797-249.64844a8.5 8.5 0 0 0 -2.13086-11.83008 8.5 8.5 0 0 0 -6.35742-1.38476z"/><path d="m-126.15161 98.2568c-2.14269-.642346-4.17877-1.104257-6.09714-1.346873-3.83677-.48524-7.35724.03435-8.90843 2.270521l13.96386 9.697812c.0689-.0993.23387-.31675 1.6762-.13435 1.44236.18241 4.00657.89044 7.30996 2.24711 6.60679 2.71333 16.02723 7.90061 25.768081 14.6655 9.740765 6.765 17.892127 13.7805 22.743357 19.02459 2.425625 2.62205 3.984538 4.77763 4.659797 6.06588.675279 1.28825.531334 1.52077.462815 1.62021l13.961635 9.69626c1.551161-2.23618.807328-5.71746-.988923-9.14427-1.79626-3.42682-4.581423-6.98812-8.023534-10.70898-6.884224-7.44171-16.563063-15.61457-27.970068-23.53658-11.407273-7.92161-22.44673-14.13882-31.82218-17.98921-2.34387-.9626-4.59305-1.784799-6.73573-2.427167z"/></g><path d="m-46.21424 250.64867c14.285843-20.99739 13.887165-41.70207 9.352707-62.15812-2.706487-12.20964-20.737097-31.26622-20.737097-31.26622l41.26957-59.410198c6.486644-9.33794-5.397331-28.815915-26.54356-43.505236-21.14623-14.689312-43.54714-19.027488-50.03378-9.689551l-41.26956 59.410195s-24.15138-10.245318-36.53782-8.520058c-20.75226 2.89052-40.29399 9.743498-54.98466 30.459668l-116.61733 167.87817 118.2277 21.3329 61.2565 103.34661z" fill="#a0d4df" opacity=".15"/><path d="m-79.56147 31.198025c-2.53924-.07232-5.02179.107636-7.45118.599609-4.85878.983948-9.76961 3.502254-12.875 7.972657l13.9629 9.699218c.13793-.198561.45858-.639868 2.28515-1.009765s4.89382-.385008 8.63672.339844c7.4858 1.449703 17.54116 5.724239 27.28125 12.490234 9.74009 6.765998 17.255248 14.69604 21.226563 21.20508 1.985657 3.25451 3.041135 6.1338 3.332031 7.97461.290896 1.8408-.0086 2.29753-.146485 2.49609l13.960938 9.697268c3.105385-4.470408 3.752315-9.951008 2.978516-14.847658-.7738-4.89664-2.795502-9.55545-5.613282-14.173828-5.63556-9.236753-14.632947-18.389192-26.039061-26.3125-11.40612-7.923302-23.1252-13.163478-33.74805-15.220703-2.65571-.514306-5.25178-.837832-7.79101-.910156z" fill="#6f8a91"/></g><g><path d="m-16.329058 97.814132c6.486642-9.33794-5.397333-28.815915-26.543562-43.505236-21.14623-14.689312-43.54714-19.027488-50.03378-9.689549l-20.63478 29.705096c-6.48664 9.33794 5.39734 28.815907 26.543537 43.505217 21.14619 14.68931 43.5471 19.02749 50.03374 9.68955z" fill="url(#a)" stroke="#c36e36" stroke-linecap="round" stroke-linejoin="round" stroke-width="17"/><path d="m-66.36284 88.124582c-21.14622-14.689324-33.0302-34.167295-26.54356-43.505235 6.48664-9.337939 28.88755-4.999763 50.03378 9.689549 21.146229 14.689321 33.030204 34.167296 26.543562 43.505236-6.486642 9.337928-28.887542 4.999758-50.033782-9.68955z" fill="url(#c)"/></g><g><path d="m-342.31577 293.84732 118.2277 21.3329 61.2565 103.34661-118.2277-21.3329z" fill="#a0d4df" opacity=".15"/><path d="m-162.83157 418.52683-118.2277-21.3329-61.2565-103.34661 49.88942-74.28369 13.30283-2.66594 132.36924-26.52941 9.36926-1.87773 9.21037 4.75594 85.433402 44.11524 8.83174 4.56044z" fill="url(#i)" opacity=".75"/><path d="m-42.741248 237.36173-85.433402-44.11524-9.21037-4.75594-9.36926 1.87773-132.36924 26.52941-13.30283 2.66594 8.33038 4.34779 82.88468 43.25129 8.98158 4.68688 9.60159-1.81501 134.787622-25.47905 13.93099-2.63336z" fill="url(#g)" opacity=".5"/><path d="m-153.76284 264.57837c-10.89226 1.96712-23.26709 2.38512-34.81695 1.18216-10.09663-1.05161-22.60346-3.60705-29.56998-7.2833l-50.97656-26.90039c-5.21554-2.75225-6.82039-4.91997-7.46912-8.68203-.19761-1.14601.55085-2.33087 1.25808-3.25402 1.65601-2.16159 3.48132-3.36413 6.58995-4.82762l100.27539-20.09766c8.67655-.99577 17.93666-1.11919 26.85428-.33409 8.07565.71097 17.18384 2.28871 23.89181 4.54698l58.970702 30.45118c6.00582 3.52422 7.59394 7.40738 5.25226 10.93177-.38254.57575-.852065 1.25125-1.45221 1.68798-4.933258 3.58999-8.74773 5.34332-16.87427 7.09118zm81.936992-15.48864 37.51007-7.09101-24.43489-12.61646-58.979732-30.45536-20.06195-10.35982-30.67968 6.14843-100.26925 20.09697-24.09208 4.82881 100.19726 52.28516 38.86719-7.34766z" fill="#b6d7e7" filter="url(#j)" opacity=".75"/></g><g><path d="m-66.36284 88.124582c-21.14622-14.689324-33.0302-34.167295-26.54356-43.505237l-41.26956 59.410195s-24.15138-10.245318-36.53782-8.520058c-20.75226 2.89052-40.29399 9.743498-54.98466 30.459668l-116.61733 167.87817 61.2565 103.34661 118.2277 21.3329 116.61733-167.87816c14.285843-20.99739 13.887165-41.70207 9.352707-62.15812-2.706487-12.20964-20.737097-31.26622-20.737097-31.26622l41.26957-59.410198c-6.48664 9.337928-28.88754 4.999758-50.03378-9.68955z" fill="#a0d4df" opacity=".15"/><g fill="#6f8a91"><path d="m-203.6543 123.95313c-3.10538 4.4704-3.75036 9.95101-2.97656 14.84765.7738 4.89665 2.79355 9.55545 5.61133 14.17383 5.63556 9.23675 14.63491 18.39115 26.04101 26.31445 11.4061 7.92331 23.1252 13.16153 33.74805 15.21875 5.31143 1.02862 10.38146 1.2945 15.24024.31055s9.76961-3.50225 12.875-7.97266l-13.96094-9.69726c-.13793.19856-.46054.63987-2.28711 1.00976-1.82657.3699-4.89382.38501-8.63672-.33984-7.4858-1.4497-17.53922-5.7262-27.2793-12.49219s-17.2572-14.69604-21.22851-21.20508c-1.98566-3.25451-3.04114-6.1338-3.33203-7.97461-.2909-1.8408.0105-2.29557.14843-2.49414z" transform="translate(62.49712 -24.772678)"/><path d="m-171.63672 163.94141a8.5 8.5 0 0 0 -5.47461 3.51757l-173.41797 249.64649a8.5 8.5 0 0 0 2.13282 11.83008 8.5 8.5 0 0 0 11.83007-2.13086l173.41797-249.64844a8.5 8.5 0 0 0 -2.13086-11.83008 8.5 8.5 0 0 0 -6.35742-1.38476z" transform="translate(62.49712 -24.772678)"/><path d="m-162.38477 64.542969c-3.10538 4.470402-3.75036 9.951011-2.97656 14.847656s2.79355 9.555452 5.61133 14.173828c5.63556 9.236757 14.63491 18.391147 26.04102 26.314457 11.40611 7.9233 23.12519 13.16152 33.748043 15.21875 5.311424 1.02861 10.381455 1.29449 15.240234.31054 4.858779-.98394 9.769614-3.50225 12.875-7.97265l-13.960938-9.69727c-.137931.19856-.460538.63792-2.287109 1.00781-1.826571.3699-4.893817.38696-8.636719-.33789-7.485801-1.4497-17.539201-5.72619-27.279301-12.49218-9.74009-6.766005-17.2572-14.696049-21.22851-21.205083-1.98566-3.254516-3.04114-6.133804-3.33203-7.974609-.2909-1.840805.0105-2.295578.14844-2.494141z" transform="translate(62.49712 -24.772678)"/><path d="m-94.41304 36.254666a8.5 8.5 0 0 0 -5.47461 3.515625l-37.48632 53.964841c-2.34228-.86002-4.80498-1.77108-7.91407-2.73242-8.03845-2.48552-17.37984-5.19602-26.59765-3.91211-21.84823 3.04318-44.50966 11.06499-60.7461 33.960938a8.50085 8.50085 0 0 0 -.0469.0684l-116.61719 167.8789a8.50085 8.50085 0 0 0 -.33203 9.18164l61.25586 103.34766a8.50085 8.50085 0 0 0 5.80273 4.03125l118.22852 21.33203a8.50085 8.50085 0 0 0 8.49023-3.51562l116.61719-167.87696a8.50085 8.50085 0 0 0 .0469-.0684c15.789012-23.20675 15.396976-47.24291 10.623043-68.77929-2.014132-9.08625-7.812377-16.89516-12.947263-23.56055-1.98624-2.57825-3.70067-4.56799-5.32422-6.46289l37.486327-53.96484a8.5 8.5 0 0 0 -2.130859-11.830078 8.5 8.5 0 0 0 -11.830079 2.13281l-41.269529 59.410158a8.50085 8.50085 0 0 0 .80664 10.6914s4.23594 4.48315 8.79297 10.39844c4.55703 5.9153 9.12796 13.74186 9.82031 16.86524 4.29451 19.37359 4.70029 36.7456-8.07813 55.53125-.001.002-.003.004-.004.006l-113.45508 163.32422-109.03125-19.67382-56.49219-95.30665 113.45508-163.32617.006-.008c13.14388-18.52972 29.56349-24.21177 49.2168-26.94922 3.16861-.44134 12.09663 1.10864 19.23047 3.31445 7.13383 2.20582 12.8164 4.61133 12.8164 4.61133a8.50085 8.50085 0 0 0 10.30078-2.97461l41.26954-59.410151a8.5 8.5 0 0 0 -2.13282-11.832031 8.5 8.5 0 0 0 -6.35547-1.382812z"/></g></g></g><g stroke-width="4.73118" transform="matrix(.84766265 .60020385 -.35506426 .50145417 182.03194 -123.36817)"><g opacity=".9"><path d="m268.67578 50.855469c-39.78397 0-72.28906 32.503145-72.28906 72.287111 0 39.78397 32.50509 72.28906 72.28906 72.28906 39.78396 0 72.28711-32.50509 72.28711-72.28906 0-39.783966-32.50315-72.287111-72.28711-72.287111z" fill="#6f8a91"/><path d="m268.67494 61.494764c-34.02542 0-61.64792 27.622501-61.64792 61.647916 0 34.02542 27.6225 61.64792 61.64792 61.64792 34.02541 0 61.64791-27.6225 61.64791-61.64792 0-34.025415-27.6225-61.647916-61.64791-61.647916z" fill="#559baa" stroke-width="21.2803"/><path d="m268.67494 66.257264c31.4325 0 56.88541 25.452917 56.88541 56.885416 0 31.4325-25.45291 56.88542-56.88541 56.88542-31.43251 0-56.88542-25.45292-56.88542-56.88542 0-31.432499 25.45291-56.885416 56.88542-56.885416z" fill="#a0d4df" filter="url(#d)" opacity="1"/><g fill="#ecf6f9"><path d="m318.4166 127.77289c-8.62541 19.20875-29.39521 40.58709-57.94375 41.275 2.14313 2.40771 13.17625 4.78896 20.24063 2.38125 24.71208-8.41375 34.15771-31.56479 37.70312-43.65625z" filter="url(#e)" opacity=".9"/><path d="m261.74285 74.454056c-8.22854 2.320396-16.95979 6.646333-24.07708 12.943417 2.01083 1.137708 3.99521 2.407708 5.92666 3.81 6.64105-6.217709 15.24-11.20775 26.00855-13.562542-2.93688-1.775354-5.82084-2.878667-7.85813-3.190875zm13.04396 7.104062c-11.69458 1.658938-20.66396 6.447896-27.43729 12.665605 2.72521 2.407708 5.23875 5.132917 7.43479 8.149167 5.60917-4.7625 13.89063-8.440209 26.19375-10.451042-.82021-4.074584-3.25437-7.593542-6.19125-10.36373zm-40.69292 9.331855c-5.50333 5.926667-9.54616 13.308537-10.86114 22.066247.55827 3.25438 1.55045 6.00605 2.83368 8.36084 1.7833-7.11729 5.22288-15.13417 10.72621-22.489587 1.05834-1.42875 2.19604-2.804583 3.41313-4.153958-1.98438-1.455209-4.04813-2.69875-6.11188-3.783542zm9.86896 6.746875c-1.21708 1.296458-2.32833 2.645832-3.36021 4.048122-6.11187 8.17563-9.49854 17.43605-10.74208 24.73855 3.88937 3.88937 8.73125 5.82083 12.83229 6.56166.66146-9.97479 2.16958-19.63208 8.67833-27.22562-2.14312-3.01625-4.65666-5.74146-7.40833-8.122712z" filter="url(#f)" opacity=".9"/></g></g><path d="m212.93863 77.218894c-10.33089 12.50616-16.55182 28.517416-16.55182 45.922876 0 39.78393 32.50552 72.29029 72.28945 72.29029 39.78392 0 72.28602-32.50509 72.28602-72.28902 0-39.783928-32.50182-72.286932-72.28574-72.286932-22.37846 0-42.45533 10.283438-55.73791 26.362786zm8.17392 6.719212c11.31081-13.70322 28.42277-22.442645 47.56205-22.442645 34.02537 0 61.6486 27.620006 61.6486 61.645389 0 34.02538-27.62333 61.6485-61.64871 61.6485s-61.64706-27.62184-61.64706-61.64722c0-14.88611 5.28782-28.545964 14.08512-39.204024z" fill="#6f8a91"/></g></svg>