<svg height="500" viewBox="0 0 500 500" width="500" xmlns="http://www.w3.org/2000/svg" xmlns:xlink="http://www.w3.org/1999/xlink"><linearGradient id="a"><stop offset="0" stop-color="#d9eef2"/><stop offset="1" stop-color="#f1fbfd"/></linearGradient><linearGradient id="b" gradientUnits="userSpaceOnUse" spreadMethod="reflect" x1="124.30043696717" x2="78.28655528" y1="193.04424057583" y2="173.3586623"><stop offset="0" stop-color="#677a7e"/><stop offset="1" stop-color="#617e84"/></linearGradient><linearGradient id="c" gradientUnits="userSpaceOnUse" spreadMethod="reflect" x1="201.88249554" x2="250.00063113191" xlink:href="#a" y1="234.6848922" y2="262.75336040656"/><linearGradient id="d" gradientUnits="userSpaceOnUse" spreadMethod="reflect" x1="1010.5332" x2="1273.3652" xlink:href="#j" y1="288.29507" y2="312.49414"/><linearGradient id="e" gradientUnits="userSpaceOnUse" spreadMethod="reflect" x1="288.49591" x2="308" xlink:href="#j" y1="331" y2="410"/><filter id="f" color-interpolation-filters="sRGB" height="1.329149" width="1.097133" x="-.048566" y="-.164574"><feGaussianBlur stdDeviation="1.9684115"/></filter><linearGradient id="g" gradientUnits="userSpaceOnUse" spreadMethod="reflect" x1="201.88249352" x2="250.00063013192" xlink:href="#a" y1="234.6848936" y2="262.75336240156"/><filter id="h" color-interpolation-filters="sRGB" height="1.060305" width="1.235237" x="-.117619" y="-.030153"><feGaussianBlur stdDeviation="1.8437818"/></filter><radialGradient id="i" cx="494.25363" cy="332.55859" gradientTransform="matrix(-.26311448 .00021486 -.00015788 -.19682646 197.19156 83.662975)" gradientUnits="userSpaceOnUse" r="43.257179"><stop offset="0" stop-color="#deaa87"/><stop offset="1" stop-color="#d38d5f"/></radialGradient><linearGradient id="j"><stop offset="0" stop-color="#df2020"/><stop offset="1" stop-color="#c32222"/></linearGradient><path d="m250 38.477812c-12.99663 0-24.65811 2.572512-33.23743 6.882615-8.50095 4.220449-13.55884 8.452992-13.55884 16.356119v24.077179 37.884795l-9.8789 8.8654c-24.30766 9.37346-44.97905 20.12309-60.79921 36.06233-16.17357 16.29532-26.82259 37.91559-31.0335 66.79731l-.07.47727-1.34151 42.73856.002.17874c.75877 71.56538 5.61219 122.77501 27.49911 157.71972 21.88688 34.9447 60.96576 50.50936 122.41842 50.50936s100.53339-15.56466 122.42028-50.50936c21.88689-34.94471 26.74032-86.15434 27.49914-157.71972l.002-.17874-1.3415-42.73856-.07-.47727c-8.38467-57.50762-48.60026-89.63946-92.09089-103.09183l-9.62093-8.63321v-37.884795-24.077179c0-7.903127-5.05788-12.13567-13.55885-16.356119-8.5793-4.310103-20.24263-6.882616-33.23926-6.882615zm0 16.982647c10.58433 0 20.42885 2.467157 25.62324 5.078579l.0203.0092.0203.01106c3.03594 1.505664 3.9137 2.934497 4.15167 3.257956v21.976505 45.463971l18.02012 16.16816 1.83535.5436c39.83487 11.7897 74.32729 38.11837 81.96856 89.52377l1.29359 41.26806c-.75727 70.72473-6.51968 119.38741-24.90639 148.74374-18.3997 29.37702-49.28006 42.53954-108.02669 42.53954s-89.62513-13.16252-108.02482-42.53954c-18.38676-29.35637-24.151-78.01905-24.90828-148.74378l1.29544-41.2828c3.83996-25.90758 12.69101-43.27995 26.21659-56.90735 13.59321-13.69553 32.41423-23.69502 56.3619-32.80806l1.47604-.56203 17.76949-15.94335v-45.463965-21.976461c.23796-.323459 1.1139-1.752292 4.14984-3.257956l.0221-.01106.0203-.0092c5.1944-2.611388 15.03708-5.078545 25.62141-5.078545z" fill="url(#b)"/><path d="m288.30597 61.716537c0-1.726569-1.88697-5.30236-8.86872-8.764933-6.88741-3.462573-17.64309-5.981666-29.4366-5.981666-11.7935 0-22.54918 2.519093-29.43659 5.981666-6.98175 3.462573-8.86871 7.038364-8.86871 8.764933v24.077628 41.673535l-13.77482 12.35959c-48.96663 18.63374-80.00714 41.79619-88.02677 96.8011l-1.32087 42.07923c1.50957 142.3712 21.22835 199.82916 141.42776 199.82916 120.19942 0 139.91816-57.45796 141.42773-199.82916l-1.32088-42.07923c-8.01958-55.00491-45.9475-84.34716-88.02672-96.8011l-13.77481-12.35959v-41.673535z" fill="url(#c)" opacity=".25"/><g><path d="m381.2419 239.88807c-8.38914-7.8631-18.21115-10.79108-31.03098-15.06436l-.009-.002-.009-.002c-25.75475-8.55176-66.48074-13.75971-100.1914-13.75971-33.71055 0-74.43664 5.20795-100.1913 13.75971l-.009.002-.009.002c-12.81982 4.27328-22.64125 7.20146-31.03031 15.06436-5.15815 4.8346-10.47726 11.68007-10.47726 18.44025.37739 35.59281-.57485 63.49936 3.92709 94.80665 3.3914 23.58426 7.17759 50.73124 17.28546 69.35911 20.21577 37.25574 60.40549 56.0427 120.50519 56.0427 60.09972 0 100.61683-19.45928 120.83268-56.71497 10.10798-18.62784 13.65745-45.5643 16.99406-69.02292 4.43814-31.20282 3.51371-58.87768 3.89111-94.4705 0-6.76025-5.31859-13.60575-10.47659-18.44032z" fill="url(#e)"/><path d="m156.12435 401.92616c-6.60435-19.34135-7.27735-64.57881-6.33386-117.31937 5.61196 2.60009 9.41647 4.00367 13.35978 5.49914-.47175 48.96664 4.48455 90.59192 9.76803 106.15935 5.56654 16.41656 14.15221 35.09747 14.15221 35.09747s-24.05885-9.52915-30.94616-29.43659z" fill="#fff" filter="url(#h)" opacity=".25"/><g stroke-width="1.05991" transform="matrix(.94348046 0 0 .94348046 -827.40609 -25.088143)"><path d="m1141.9492 250.29492c-35.73 0-78.8958 5.51994-106.1933 14.58399l-.01.002-.01.002c-13.5878 4.52927-23.9976 7.63287-32.8892 15.9668-5.46715 5.12421-11.1049 12.37976-11.1049 19.54492 0 7.16517 4.63782 14.46328 9.8771 19.54688 9.0114 8.74364 20.5292 11.43752 34.117 15.96679h.01l.01.002c27.2975 9.06404 70.4633 14.58398 106.1933 14.58398 35.7301 0 78.8958-5.51994 106.1934-14.58398l.01-.002h.01c13.5878-4.52927 25.105-7.22336 34.1164-15.96679 5.2394-5.08362 9.8777-12.38171 9.8777-19.54688 0-7.16516-5.6372-14.42074-11.1042-19.54492-8.8917-8.33415-19.3021-11.43753-32.8899-15.9668l-.01-.002-.01-.002c-27.2976-9.06405-70.4633-14.58399-106.1934-14.58399z" fill="url(#d)"/><path d="m1035.7559 264.87891-.01.002-.01.002c-13.5878 4.52927-23.9971 7.63288-32.8886 15.9668-5.46719 5.1242-11.10551 12.37977-11.10551 19.54492 0 7.16516 4.63768 14.46328 9.87691 19.54688 9.0114 8.74363 20.5294 11.43753 34.1172 15.96679h.01l.01.002c24.9281 8.2773 70.1902 13.71247 103.8373 14.57393-21.3973-.73724-48.293-3.33096-71.2542-10.31153-20.4398-6.21404-41.5771-13.78489-57.8058-27.67842-3.7155-3.18086-8.3008-8.99961-8.3008-12.09961s4.5854-8.91865 8.3008-12.09961c16.2223-13.88889 37.3374-21.50368 57.783-27.67152 23.7284-7.15817 52.2428-9.58791 73.633-10.32862-33.6357.86515-81.2769 6.31054-106.1933 14.58399zm179.8263-4.25551c20.4456 6.16782 41.5607 13.78263 57.783 27.67152 3.7154 3.18096 8.3008 8.99961 8.3008 12.09961s-4.5853 8.91875-8.3008 12.09961c-16.2287 13.89353-37.3391 21.55334-57.8058 27.67843-24.4819 7.32673-54.5691 9.58241-75.9664 10.31965 33.6472-.86146 83.6213-6.30476 108.5496-14.58206l.01-.002h.01c13.5878-4.52926 25.1058-7.22337 34.1172-15.96679 5.2394-5.08362 9.8769-12.38172 9.8769-19.54688 0-7.16515-5.6365-14.42075-11.1035-19.54492-8.8917-8.33414-19.3028-11.43753-32.8906-15.9668l-.01-.002-.01-.002c-24.9166-8.27345-72.5577-13.7187-106.1934-14.58385 0 .74071 49.9046 3.17034 73.633 10.32848z" fill="#a11212"/></g></g><g><g stroke-width="1.65366" transform="matrix(2.2855381 0 0 2.2855381 96.537194 8.948062)"><path d="m52.400186 20.363774 1.907076 10.813062 2.997515 7.309434c.53304 1.249855 1.21833 2.212549 2.50618 2.645833 4.40649 1.48235 10.744741 1.460067 15.073871.09066 1.40183-.443561 1.93709-1.509697 2.44718-2.888713l2.651369-7.157216 2.028358-10.723597s1.319323-2.93745 1.233481-4.485857c-.108234-1.952299-.83162-4.024781-2.1709-5.449393-1.56588-1.6656611-3.99536-2.3314561-6.20272-2.9264381-2.53252-.68263-5.21692-.675475-7.83983-.673859-2.64533.0016-5.36111-.0327-7.90598.689361-2.11531.600184-4.41048 1.339962-5.89318 2.9636461-1.34326 1.470991-2.12571 3.569258-2.19027 5.56024-.048 1.480987 1.35785 4.232839 1.35785 4.232839z" fill="#c36e36"/><path d="m56.808976 13.715668c-.85684.974441-1.1465 2.449269-1.0648 3.744272.10003 1.585465 1.707018 4.882503 2.333495 7.387929.640141 2.560074.65864 5.265231 1.44933 7.782881.437058 1.391645 1.802306 3.987601 1.802306 3.987601 3.47978 1.170599 8.585031 1.181474 12.119141.06355 0 0 1.176327-2.688166 1.566679-4.097303.698838-2.522741.761898-5.186642 1.369343-7.732936.597217-2.503419 2.172066-5.843675 2.230796-7.391718.0492-1.297136-.1986-2.782319-1.07016-3.744272-.90373-.997453-2.44365-1.180606-3.75449-1.486141-2.2014-.513115-4.49854-.549246-6.75896-.549265-2.26041-.000018-4.56506.0048-6.75896.549151-1.2194.302548-2.63409.542753-3.46372 1.486255z" fill="url(#i)"/></g><path d="m288.30597 61.716537c0 1.736005-1.88697 5.311795-8.86872 8.774373-6.88741 3.453138-17.64309 5.495228-29.4366 5.495228-11.7935 0-22.54918-2.04209-29.43659-5.495228-6.98175-3.462578-8.86871-7.038368-8.86871-8.774373v24.077626 41.673537l-13.77482 12.35959c-48.96663 18.63374-80.00714 41.79619-88.02677 96.8011l-1.32087 42.07923c1.50957 142.3712 21.22835 199.82916 141.42776 199.82916 120.19942 0 139.91816-57.45796 141.42773-199.82916l-1.32088-42.07923c-8.01958-55.00491-45.9475-84.34716-88.02672-96.8011l-13.77481-12.35959v-41.673537z" fill="url(#c)" opacity=".15"/><path d="m197.92053 139.82729 13.77482-12.35959c13.20872 8.11393 26.01996 11.72589 39.96914 12.83723 14.63197 1.16574 43.52889-6.65743 43.52889-6.65743s-27.77918 20.86594-44.22565 22.28382c-18.41098 1.58725-36.11171-4.73509-53.0472-16.10403z" fill="url(#g)" filter="url(#f)" opacity=".5"/><path d="m127.18215 436.7695c21.98384 35.09936 61.29046 50.7305 122.81833 50.7305 61.52784 0 100.83456-15.63114 122.81832-50.7305 21.98375-35.09936 26.8138-86.38015 27.57283-158.06062l-1.38022-43.12184c-8.4416-57.8995-48.78237-90.18319-92.35408-103.69256l-9.39066-8.42683v-37.672884l-.47194-24.429545-8.86414-13.431367s-3.82883 9.293655-7.60929 12.273431c-8.38816 6.611584-19.74272 10.108271-30.42314 10.054896-10.57151-.05283-21.77721-3.623436-30.01194-10.252839-3.73362-3.005761-7.44673-12.301071-7.44673-12.301071l-9.23234 13.654916-.47477 24.431579v37.672884l-9.66511 8.67191c-24.29906 9.37703-45.00609 20.14416-60.87666 36.1342-16.24523 16.36754-26.94004 38.10306-31.20299 67.31328l-1.379255 43.12184c.759975 71.68047 5.590015 122.96126 27.573785 158.06062zm93.47636-356.565591c8.13233 3.256413 18.17879 4.745312 29.34186 4.745312 11.16308 0 21.20955-1.488899 29.34188-4.745312v51.263051c6.73154 5.65168 13.46299 11.30334 20.19453 16.95501 39.70865 11.75233 74.00973 37.91338 81.63135 89.11468l1.2936 41.2312c-.75762 70.69732-6.54558 119.28558-24.83457 148.48576-18.30278 29.22236-48.95532 42.32026-107.62679 42.32026-58.67146 0-89.32392-13.0979-107.62678-42.32026-18.28899-29.20019-24.07696-77.78844-24.83457-148.48576l1.29549-41.24779c3.83081-25.81427 12.62934-43.06775 26.07837-56.61803 13.52158-13.62332 32.27816-23.59579 56.19605-32.6975 7.17177-4.32137 13.25958-11.09373 19.54958-16.73757z" fill="url(#b)"/></g></svg>