<svg height="500" viewBox="0 0 132.29167 132.29167" width="500" xmlns="http://www.w3.org/2000/svg" xmlns:xlink="http://www.w3.org/1999/xlink"><linearGradient id="a" gradientUnits="userSpaceOnUse" spreadMethod="reflect" x1="101.99616650324" x2="59.03060227481" y1="73.46998677555" y2="94.36554151247"><stop offset="0" stop-color="#9f571d"/><stop offset=".511236" stop-color="#fde791"/><stop offset="1" stop-color="#b7671e"/></linearGradient><radialGradient id="b" cx="494.25363" cy="332.55859" gradientTransform="matrix(-.33462355 .12958228 -.13250235 -.34220148 276.54747 68.068365)" gradientUnits="userSpaceOnUse" r="43.257179"><stop offset="0" stop-color="#deaa87"/><stop offset="1" stop-color="#d38d5f"/></radialGradient><filter id="c" color-interpolation-filters="sRGB" height="1.162312" width="1.068155" x="-.034078" y="-.081156"><feGaussianBlur stdDeviation=".73142431"/></filter><filter id="d" color-interpolation-filters="sRGB" height="1.105651" width="1.087965" x="-.043982" y="-.052825"><feGaussianBlur stdDeviation="1.2116677"/></filter><g fill="#7f8899" stroke-width=".999999" transform="matrix(.26458334 0 0 .26458334 238.175365 -58.892264)"><path d="m-235.24023 17.787109-4.4961.01367-10.32812.01172-10.25.01172a1.3187171 1.3187171 0 0 0 -.002 0l-4.57812.01367a1.3187171 1.3187171 0 0 0 -1.20899 1.835937l5.44141 12.757813c1.65375 5.135477 2.06393 10.427569-1.25 15.101562-3.48982 4.921834-9.15246 9.324735-13.92578 14.390625-4.7628 5.055919-8.58594 10.663585-8.58594 17.88086 0 18.958286 15.34484 34.455084 34.29883 34.455084 18.95523 0 34.45508-15.500785 34.45508-34.455084 0-7.212491-3.66674-12.945157-8.3418-18.058594-4.68223-5.121997-10.33021-9.53528-14.13476-14.167969-2.59571-3.160761-2.63509-7.605501-1.64063-12.367187l5.78715-15.648436a1.3187171 1.3187171 0 0 0 -1.24023-1.775391z" opacity=".15" transform="matrix(3.7795275 0 0 3.7795275 294.8676 240.39681)"/><path d="m-725.97342 306.87834c7.06269 19.35528 18.39628 39.14532 24.6858 57.69843 6.28769 18.55311 7.7574 34.42433-2.67682 49.14136-11.66169 16.44835-32.895 33.27693-51.67831 53.21616-18.78327 19.9392-35.42509 43.92253-35.42509 75.08537 0 77.57118 62.96579 141.17466 140.58039 141.17466 77.61382 0 141.17462-63.56171 141.17462-141.17466 0-30.98978-15.884-55.38912-34.3936-75.63691-18.5088-20.24784-39.9356-37.14373-53.0491-53.11302-7.8256-9.52717-6.8905-29.09983-.7502-50.25127 6.1395-21.15143 16.4228-42.65493 22.0858-55.70025 9.8623-21.36952-26.6499-6.56781-31.7903-5.49716-14.31791 2.6163-28.99079 3.23165-43.54579 3.22353-14.339-.008-28.78061-.70156-42.89613-3.22353-16.10868-5.85393-37.97087-10.94081-32.32127 5.05729zm131.76049 5.72906-22.04111 59.6015c-3.94518 18.72276-4.09179 37.44042 7.18632 51.17367 14.91309 18.15923 36.30319 34.82498 53.60319 53.74979 17.3008 18.92307 30.22 39.30474 30.22 64.88647 0 68.92373-56.3174 125.24455-125.24462 125.24455-68.9246 0-124.6478-56.27565-124.6478-125.24455 0-25.52976 13.42972-45.41525 31.08953-64.1619 17.66309-18.74573 39.24759-35.42002 53.07719-54.92446 13.7111-19.33826 11.8936-41.42994 5.36201-61.63685l-20.68263-48.49945s12.98922 4.35882 19.70423 5.59399c11.95717 2.19943 24.17699 3.18298 36.33479 3.17634 12.36438-.007 24.80439-.94841 36.94888-3.27072 6.52162-1.24711 19.09002-5.68838 19.09002-5.68838z"/></g><g fill-rule="evenodd" transform="translate(-1.097605 3.504608)"><g fill="url(#a)"><path d="m67.24344 59.100357c-7.964873-.000158-13.767043.919725-20.339845 3.161048-2.020909.689125-3.92008 1.788793-5.606376 3.098519-1.218059.946062-2.444377 2.009323-3.170866 3.36982-2.600796 3.641996-3.941878 7.603571-3.941878 12.282455 0 18.247991 14.743619 33.137511 32.9799 33.137511 18.236943 0 33.137515-14.901468 33.137515-33.137511 0-4.632895-1.60124-8.621181-4.079857-12.282455-.726569-1.36064-1.952796-2.423759-3.170866-3.36982-1.686288-1.309727-3.585499-2.409392-5.606376-3.098519-6.572803-2.241321-12.236448-3.161212-20.201351-3.161048z"/><path d="m67.24344 59.100357c-7.964873-.000158-13.767043.919725-20.339845 3.161048-2.020909.689125-3.92008 1.788793-5.606376 3.098519-1.218059.946062-2.444377 2.009323-3.170866 3.36982-2.600796 3.641996-3.941878 7.603571-3.941878 12.282455 0 18.247991 14.743619 33.137511 32.9799 33.137511 18.236943 0 33.137515-14.901468 33.137515-33.137511 0-4.632895-1.60124-8.621181-4.079857-12.282455-.726569-1.36064-1.952796-2.423759-3.170866-3.36982-1.686288-1.309727-3.585499-2.409392-5.606376-3.098519-6.572803-2.241321-12.236448-3.161212-20.201351-3.161048z" filter="url(#d)"/><path d="m67.24344 102.36051c-8.396621-.0102-14.318733-.80501-20.339845-4.414198-2.428608-1.455758-5.501661-3.654463-5.485453-6.48591.01609-2.793756 3.080264-4.916188 5.485453-6.337597 6.042204-3.570787 11.847942-4.385745 20.339845-4.392497 8.491902.007 14.159117.821718 20.201351 4.392497 2.405187 1.421406 5.469472 3.543838 5.485453 6.337597.01611 2.831436-3.056846 5.030152-5.485453 6.48591-6.021144 3.609178-11.804731 4.403998-20.201351 4.414198z" transform="matrix(1 0 0 -1 0 161.46087)"/><path d="m67.24344 102.36051c-8.396621-.0102-14.318733-.80501-20.339845-4.414198-2.428608-1.455758-5.501661-3.654463-5.485453-6.48591.01609-2.793756 3.080264-4.916188 5.485453-6.337597 6.042204-3.570787 11.847942-4.385745 20.339845-4.392497 8.491902.007 14.159117.821718 20.201351 4.392497 2.405187 1.421406 5.469472 3.543838 5.485453 6.337597.01611 2.831436-3.056846 5.030152-5.485453 6.48591-6.021144 3.609178-11.804731 4.403998-20.201351 4.414198z" filter="url(#c)" transform="matrix(1 0 0 -1 0 161.46087)"/></g><path d="m58.676004 59.554077c-4.076597.476573-7.78433 1.347219-11.772926 2.707328-2.020908.689125-3.919561 1.788795-5.605859 3.098519-1.218059.946064-2.444377 2.009321-3.170866 3.36982-.2047.38345-.382172.845494-.291972 1.270724.39902 1.880588 2.020409 3.341223 3.462838 4.612121 1.613618 1.421749 3.570902 2.497875 5.605859 3.193604 6.560104 2.242848 12.389479 2.924509 20.340362 2.924369-8.491895-.0068-14.297647-.821713-20.339845-4.392497-2.405186-1.421407-5.469363-3.543844-5.485453-6.337597-.01621-2.831445 3.056848-5.030153 5.485453-6.48591 3.754565-2.250569 7.470847-3.406426 11.772409-3.960481zm8.567436 21.176485c7.950902.00013 13.641247-.681521 20.201351-2.924369 2.034958-.695729 3.992768-1.771855 5.606376-3.193604 1.442409-1.270908 3.063848-2.731543 3.462838-4.612121.0902-.42523-.08723-.887264-.291972-1.270724-.726459-1.360499-1.952797-2.423756-3.170866-3.36982-1.686288-1.309724-3.585498-2.409394-5.606376-3.098519-3.979336-1.356952-7.627726-2.226923-11.653036-2.704228 4.250259.555337 7.905853 1.711255 11.653036 3.957381 2.428604 1.455757 5.501563 3.654476 5.485453 6.48591-.01598 2.793756-3.080268 4.916193-5.485453 6.337597-6.042228 3.570776-11.709458 4.385497-20.201351 4.392497z" fill="#84542e" opacity=".5"/></g><g><g transform="translate(-1.097605 3.504608)"><path d="m52.400186 20.363774 5.99503 14.618867c.53304 1.249855 1.21833 2.212549 2.50618 2.645833 4.40649 1.48235 9.03129 1.397315 13.36042.02791 1.40183-.443561 1.93709-1.509697 2.44718-2.888713l5.34514-14.453839s1.27488-2.846559 1.19108-4.34645c-.10908-1.952252-.83162-4.024781-2.1709-5.449393-1.56588-1.6656611-3.99536-2.3314561-6.20272-2.9264381-2.53252-.68263-5.21692-.675475-7.83983-.673859-2.64533.0016-5.36111-.0327-7.90598.689361-2.11531.600184-4.41048 1.339962-5.89318 2.9636461-1.34326 1.470991-2.12571 3.569258-2.19027 5.56024-.048 1.480987 1.35785 4.232839 1.35785 4.232839z" fill="#c36e36"/><path d="m56.808976 13.715668c-.85684.974441-1.1465 2.449269-1.0648 3.744272.10003 1.585465 1.24628 2.922606 1.86942 4.38391 1.60205 3.756954 4.80615 11.270872 4.80615 11.270872 3.47978 1.170599 6.87158 1.118722 10.40569.000794 0 0 2.78521-7.531087 4.1778-11.296637.53735-1.452978 1.5533-2.810896 1.61203-4.358939.0492-1.297136-.1986-2.782319-1.07016-3.744272-.90373-.997453-2.44365-1.180606-3.75449-1.486141-2.2014-.513115-4.49854-.549246-6.75896-.549265-2.26041-.000018-4.56506.0048-6.75896.549151-1.2194.302548-2.63409.542753-3.46372 1.486255z" fill="url(#b)"/></g><g fill="#7f8899" stroke-width=".999999" transform="matrix(.26458334 0 0 .26458334 238.175365 -58.892264)"><path d="m-235.24023 17.787109-4.4961.01367-10.32812.01172-10.25.01172a1.3187171 1.3187171 0 0 0 -.002 0l-4.57812.01367a1.3187171 1.3187171 0 0 0 -1.20899 1.835937l5.44141 12.757813c1.65375 5.135477 2.06393 10.427569-1.25 15.101562-3.48982 4.921834-9.15246 9.324735-13.92578 14.390625-4.7628 5.055919-8.58594 10.663585-8.58594 17.88086 0 18.958286 15.34484 34.455084 34.29883 34.455084 18.95523 0 34.45508-15.500785 34.45508-34.455084 0-7.212491-3.66674-12.945157-8.3418-18.058594-4.68223-5.121997-10.33021-9.53528-14.13476-14.167969-2.59571-3.160761-2.63509-7.605501-1.64063-12.367187l5.78715-15.648436a1.3187171 1.3187171 0 0 0 -1.24023-1.775391z" opacity=".15" transform="matrix(3.7795275 0 0 3.7795275 294.8676 240.39681)"/><path d="m-725.97342 306.87834c7.06269 19.35528 18.39628 39.14532 24.6858 57.69843 6.28769 18.55311 7.7574 34.42433-2.67682 49.14136-11.66169 16.44835-32.895 33.27693-51.67831 53.21616-18.78327 19.9392-35.42509 43.92253-35.42509 75.08537 0 77.57118 62.96579 141.17466 140.58039 141.17466 77.61382 0 141.17462-63.56171 141.17462-141.17466 0-30.98978-15.884-55.38912-34.3936-75.63691-18.5088-20.24784-39.9356-37.14373-53.0491-53.11302-7.8256-9.52717-6.8905-29.09983-.7502-50.25127 6.1395-21.15143 16.4228-42.65493 22.0858-55.70025 9.8623-21.36952-26.6499-6.56781-31.7903-5.49716-14.31791 2.6163-28.99079 3.23165-43.54579 3.22353-14.339-.008-28.78061-.70156-42.89613-3.22353-16.10868-5.85393-37.97087-10.94081-32.32127 5.05729zm131.76049 5.72906-22.04111 59.6015c-3.94518 18.72276-4.09179 37.44042 7.18632 51.17367 14.91309 18.15923 36.30319 34.82498 53.60319 53.74979 17.3008 18.92307 30.22 39.30474 30.22 64.88647 0 68.92373-56.3174 125.24455-125.24462 125.24455-68.9246 0-124.6478-56.27565-124.6478-125.24455 0-25.52976 13.42972-45.41525 31.08953-64.1619 17.66309-18.74573 39.24759-35.42002 53.07719-54.92446 13.7111-19.33826 11.8936-41.42994 5.36201-61.63685l-20.68263-48.49945s12.98922 4.35882 19.70423 5.59399c11.95717 2.19943 24.17699 3.18298 36.33479 3.17634 12.36438-.007 24.80439-.94841 36.94888-3.27072 6.52162-1.24711 19.09002-5.68838 19.09002-5.68838z"/></g></g></svg>