<svg height="500" viewBox="0 0 132.29167 132.29167" width="500" xmlns="http://www.w3.org/2000/svg" xmlns:xlink="http://www.w3.org/1999/xlink"><radialGradient id="a" cx="494.25363" cy="332.55859" gradientTransform="matrix(-.33462355 .12958228 -.13250235 -.34220148 276.54747 68.068365)" gradientUnits="userSpaceOnUse" r="43.257179"><stop offset="0" stop-color="#deaa87"/><stop offset="1" stop-color="#d38d5f"/></radialGradient><filter id="b" color-interpolation-filters="sRGB" height="1.259106" width="1.356221" x="-.178111" y="-.129553"><feGaussianBlur stdDeviation="20.909819"/></filter><filter id="c" color-interpolation-filters="sRGB" height="1.100134" width="1.149699" x="-.07485" y="-.050067"><feGaussianBlur stdDeviation="8.7871433"/></filter><linearGradient id="d"><stop offset="0" stop-color="#0d0d0d"/><stop offset="1" stop-color="#262626"/></linearGradient><linearGradient id="e" gradientUnits="userSpaceOnUse" x1="41.336951" x2="93.051014" xlink:href="#d" y1="65.204707" y2="74.612603"/><linearGradient id="f" gradientUnits="userSpaceOnUse" spreadMethod="reflect" x1="87.68814" x2="22.92226" xlink:href="#d" y1="85.248065" y2="92.85315"/><g stroke-width=".999999"><g fill="#fff" transform="matrix(.26458334 0 0 .26458334 239.27297 -62.396866)"><path d="m-725.97344 306.87834c7.0627 19.35528 18.3963 39.14532 24.6858 57.69843 6.2877 18.55311 7.7574 34.42433-2.6768 49.14136-11.6617 16.44835-32.895 33.27693-51.6783 53.21616-18.7833 19.9392-35.4251 43.92252-35.4251 75.08537 0 77.57116 62.9658 141.17464 140.5804 141.17464 77.6138 0 141.1746-63.56171 141.1746-141.17464 0-30.98979-15.884-55.38912-34.3936-75.63691-18.5088-20.24784-39.9356-37.14373-53.0491-53.11302-7.8256-9.52717-6.8905-29.09983-.7502-50.25127 6.1395-21.15143 16.4228-42.65493 22.0858-55.70025 9.8623-21.36952-26.6499-6.56781-31.7903-5.49716-14.3179 2.6163-28.9908 3.23165-43.5458 3.22353-14.339-.008-28.7806-.70156-42.8961-3.22353-16.1087-5.85393-37.9709-10.94081-32.3213 5.05729zm131.7605 5.72906-22.0411 59.6015c-3.9452 18.72276-4.0918 37.44042 7.1863 51.17367 14.9131 18.15923 36.3032 34.82498 53.6032 53.74979 17.3008 18.92306 30.22 39.30473 30.22 64.88646 0 68.92372-56.3174 125.24454-125.2446 125.24454-68.9246 0-124.6478-56.27565-124.6478-125.24454 0-25.52976 13.4297-45.41525 31.0895-64.16188 17.6631-18.74574 39.2476-35.42003 53.0772-54.92447 13.7111-19.33826 11.8936-41.42994 5.362-61.63685l-20.6826-48.49945s12.9892 4.35882 19.7042 5.59399c11.9572 2.19943 24.177 3.18298 36.3348 3.17634 12.3644-.007 24.8044-.94841 36.9489-3.27072 6.5216-1.24711 19.09-5.68838 19.09-5.68838z" filter="url(#b)"/><path d="m306.42189 39.753907c-5.91829-6.29541-15.10059-8.811797-23.44336-11.060547-9.57173-2.58002-19.7175-2.552985-29.63086-2.546875l-.00001-.000001c-9.99809.006-20.26245-.123581-29.88086 2.605469-7.99487 2.26841-16.66954 5.064412-22.27344 11.201172-5.07689 5.55965-8.03333 13.488702-8.27634 21.035157-10.34042-1.7627-18.20059-.27396-14.55174 10.058594 7.0627 19.35528 18.39605 39.146104 24.68555 57.699214 6.2877 18.55311 7.75842 34.4236-2.67578 49.14063-11.6617 16.44835-32.89639 33.27757-51.67969 53.2168-18.7833 19.9392-35.42383 43.92308-35.42383 75.08593 0 77.57116 62.96548 141.17383 140.58008 141.17383 77.6138 0 141.17383-63.5609 141.17383-141.17383 0-30.98979-15.88298-55.38893-34.39258-75.63672-18.5088-20.24784-39.93533-37.14399-53.04883-53.11328-7.8256-9.52717-6.8903-29.10051-.75-50.25195 6.1395-21.15143 16.42099-42.653898 22.08399-55.699218 5.68193-12.311553-4.05292-12.528825-14.29006-10.754883-.41327-7.762379-3.14424-15.595132-8.20607-20.979492zm-18.33791 96.625003c-3.9452 18.72276-4.0906 37.44057 7.1875 51.17382 14.9131 18.15923 36.30352 34.82324 53.60352 53.74805 17.3008 18.92306 30.21875 39.30499 30.21875 64.88672 0 68.92372-56.31694 125.24609-125.24414 125.24609-68.9246 0-124.64844-56.2772-124.64844-125.24609 0-25.52976 13.43005-45.41548 31.08985-64.16211 17.6631-18.74574 39.24852-35.41939 53.07812-54.92383 12.25383-17.28292 12.07094-36.75647 7.28808-55.00488 2.06444 4.84594 4.65304 8.48446 9.5205 10.12207 16.65445 5.60258 34.13403 5.28117 50.4961.10547z" filter="url(#c)" transform="translate(-904.33876 235.83067)"/></g><g fill="#7f8899" transform="matrix(.26458334 0 0 .26458334 239.27297 -62.396872)"><path d="m-235.24023 17.787109-4.4961.01367-10.32812.01172-10.25.01172a1.3187171 1.3187171 0 0 0 -.002 0l-4.57812.01367a1.3187171 1.3187171 0 0 0 -1.20899 1.835937l5.44141 12.757813c1.65375 5.135477 2.06393 10.427569-1.25 15.101562-3.48982 4.921834-9.15246 9.324735-13.92578 14.390625-4.7628 5.055919-8.58594 10.663585-8.58594 17.88086 0 18.958286 15.34484 34.455082 34.29883 34.455082 18.95523 0 34.45508-15.500783 34.45508-34.455082 0-7.212491-3.66674-12.945157-8.3418-18.058594-4.68223-5.121997-10.33021-9.53528-14.13476-14.167969-2.59571-3.160761-2.63509-7.605501-1.64063-12.367187l5.78715-15.648436a1.3187171 1.3187171 0 0 0 -1.24023-1.775391z" opacity=".15" transform="matrix(3.7795275 0 0 3.7795275 294.8676 240.39681)"/><path d="m-725.97342 306.87834c7.06269 19.35528 18.39628 39.14532 24.6858 57.69843 6.28769 18.55311 7.7574 34.42433-2.67682 49.14136-11.66169 16.44835-32.895 33.27693-51.67831 53.21616-18.78327 19.9392-35.42509 43.92253-35.42509 75.08537 0 77.57118 62.96579 141.17466 140.58039 141.17466 77.61382 0 141.17462-63.56171 141.17462-141.17466 0-30.98978-15.884-55.38912-34.3936-75.63691-18.5088-20.24784-39.9356-37.14373-53.0491-53.11302-7.8256-9.52717-6.8905-29.09983-.7502-50.25127 6.1395-21.15143 16.4228-42.65493 22.0858-55.70025 9.8623-21.36952-26.6499-6.56781-31.7903-5.49716-14.31791 2.6163-28.99079 3.23165-43.54579 3.22353-14.339-.008-28.78061-.70156-42.89613-3.22353-16.10868-5.85393-37.97087-10.94081-32.32127 5.05729zm131.76049 5.72906-22.04111 59.6015c-3.94518 18.72276-4.09179 37.44042 7.18632 51.17367 14.91309 18.15923 36.30319 34.82498 53.60319 53.74979 17.3008 18.92307 30.22 39.30474 30.22 64.88647 0 68.92373-56.3174 125.24455-125.24462 125.24455-68.9246 0-124.6478-56.27565-124.6478-125.24455 0-25.52976 13.42972-45.41525 31.08953-64.1619 17.66309-18.74573 39.24759-35.42002 53.07719-54.92446 13.7111-19.33826 11.8936-41.42994 5.36201-61.63685l-20.68263-48.49945s12.98922 4.35882 19.70423 5.59399c11.95717 2.19943 24.17699 3.18298 36.33479 3.17634 12.36438-.007 24.80439-.94841 36.94888-3.27072 6.52162-1.24711 19.09002-5.68838 19.09002-5.68838z"/></g></g><path d="m100.30202 81.012275c0 18.23606-14.900644 33.137615-33.137604 33.137615-18.2363 0-32.97976-14.889605-32.97976-33.137615 0-4.67889 1.34094-8.6406 3.94174-12.2826.72649-1.3605 1.95278-2.423563 3.17084-3.369625 1.6863-1.309728 3.58519-2.409622 5.6061-3.098748 6.57281-2.241325 12.37523-3.161202 20.34011-3.161043 7.96491-.000164 13.62866.919713 20.20147 3.161035 2.02088.689129 3.9198 1.789023 5.60609 3.09875 1.21807.946063 2.44436 2.009121 3.17093 3.369761 2.47862 3.66128 4.080084 7.64957 4.080084 12.28247z" fill="url(#f)"/><g fill-rule="evenodd"><path d="m46.903336 77.806035c-2.03496-.69573-3.99248-1.77167-5.6061-3.19342-1.44243-1.2709-3.06392-2.73139-3.46294-4.61198-.0902-.42523.0874-.88751.2921-1.27096.72649-1.3605 1.95278-2.423563 3.17084-3.369628 1.6863-1.309725 3.58519-2.409621 5.6061-3.098747 6.57281-2.241325 12.37523-3.1612 20.34011-3.161044 7.96491-.000161 13.62866.919713 20.20147 3.161038 2.02088.689126 3.9198 1.789023 5.60609 3.098748 1.21807.946065 2.44436 2.009123 3.17082 3.369623.20474.38346.3823.84574.2921 1.27097-.39899 1.88058-2.02051 3.34106-3.46292 4.61197-1.61361 1.42175-3.57113 2.49769-5.60609 3.19342-6.56011 2.24285-12.25056 2.92454-20.20147 2.92441-7.95089.00014-13.78-.68155-20.34011-2.9244z"/><path d="m87.444916 76.337925c2.40519-1.42141 5.46915-3.54353 5.48513-6.33729.0161-2.83144-3.05652-5.030301-5.48513-6.48606-6.02115-3.609186-11.80484-4.404111-20.20147-4.414319-8.39663.01021-14.31899.805138-20.34011 4.414325-2.42861 1.455758-5.50137 3.654614-5.48516 6.486064.0161 2.79376 3.07997 4.91588 5.48516 6.33729 6.04221 3.57079 11.8482 4.38575 20.34011 4.3925 8.49191-.007 14.15923-.82173 20.20147-4.39251z" fill="url(#e)"/></g><path d="m52.400186 20.363774 5.99503 14.618867c.53304 1.249855 1.21833 2.212549 2.50618 2.645833 4.40649 1.48235 9.03129 1.397315 13.36042.02791 1.40183-.443561 1.93709-1.509697 2.44718-2.888713l5.34514-14.453839s1.27488-2.846559 1.19108-4.34645c-.10908-1.952252-.83162-4.024781-2.1709-5.449393-1.56588-1.6656611-3.99536-2.3314561-6.20272-2.9264381-2.53252-.68263-5.21692-.675475-7.83983-.673859-2.64533.0016-5.36111-.0327-7.90598.689361-2.11531.600184-4.41048 1.339962-5.89318 2.9636461-1.34326 1.470991-2.12571 3.569258-2.19027 5.56024-.048 1.480987 1.35785 4.232839 1.35785 4.232839z" fill="#c36e36"/><path d="m56.808976 13.715668c-.85684.974441-1.1465 2.449269-1.0648 3.744272.10003 1.585465 1.24628 2.922606 1.86942 4.38391 1.60205 3.756954 4.80615 11.270872 4.80615 11.270872 3.47978 1.170599 6.87158 1.118722 10.40569.000794 0 0 2.78521-7.531087 4.1778-11.296637.53735-1.452978 1.5533-2.810896 1.61203-4.358939.0492-1.297136-.1986-2.782319-1.07016-3.744272-.90373-.997453-2.44365-1.180606-3.75449-1.486141-2.2014-.513115-4.49854-.549246-6.75896-.549265-2.26041-.000018-4.56506.0048-6.75896.549151-1.2194.302548-2.63409.542753-3.46372 1.486255z" fill="url(#a)"/><g fill="#7f8899" stroke-width=".999999" transform="matrix(.26458334 0 0 .26458334 239.27297 -62.396872)"><path d="m-235.24023 17.787109-4.4961.01367-10.32812.01172-10.25.01172a1.3187171 1.3187171 0 0 0 -.002 0l-4.57812.01367a1.3187171 1.3187171 0 0 0 -1.20899 1.835937l5.44141 12.757813c1.65375 5.135477 2.06393 10.427569-1.25 15.101562-3.48982 4.921834-9.15246 9.324735-13.92578 14.390625-4.7628 5.055919-8.58594 10.663585-8.58594 17.88086 0 18.958286 15.34484 34.455082 34.29883 34.455082 18.95523 0 34.45508-15.500783 34.45508-34.455082 0-7.212491-3.66674-12.945157-8.3418-18.058594-4.68223-5.121997-10.33021-9.53528-14.13476-14.167969-2.59571-3.160761-2.63509-7.605501-1.64063-12.367187l5.78715-15.648436a1.3187171 1.3187171 0 0 0 -1.24023-1.775391z" opacity=".15" transform="matrix(3.7795275 0 0 3.7795275 294.8676 240.39681)"/><path d="m-725.97342 306.87834c7.06269 19.35528 18.39628 39.14532 24.6858 57.69843 6.28769 18.55311 7.7574 34.42433-2.67682 49.14136-11.66169 16.44835-32.895 33.27693-51.67831 53.21616-18.78327 19.9392-35.42509 43.92253-35.42509 75.08537 0 77.57118 62.96579 141.17466 140.58039 141.17466 77.61382 0 141.17462-63.56171 141.17462-141.17466 0-30.98978-15.884-55.38912-34.3936-75.63691-18.5088-20.24784-39.9356-37.14373-53.0491-53.11302-7.8256-9.52717-6.8905-29.09983-.7502-50.25127 6.1395-21.15143 16.4228-42.65493 22.0858-55.70025 9.8623-21.36952-26.6499-6.56781-31.7903-5.49716-14.31791 2.6163-28.99079 3.23165-43.54579 3.22353-14.339-.008-28.78061-.70156-42.89613-3.22353-16.10868-5.85393-37.97087-10.94081-32.32127 5.05729zm131.76049 5.72906-22.04111 59.6015c-3.94518 18.72276-4.09179 37.44042 7.18632 51.17367 14.91309 18.15923 36.30319 34.82498 53.60319 53.74979 17.3008 18.92307 30.22 39.30474 30.22 64.88647 0 68.92373-56.3174 125.24455-125.24462 125.24455-68.9246 0-124.6478-56.27565-124.6478-125.24455 0-25.52976 13.42972-45.41525 31.08953-64.1619 17.66309-18.74573 39.24759-35.42002 53.07719-54.92446 13.7111-19.33826 11.8936-41.42994 5.36201-61.63685l-20.68263-48.49945s12.98922 4.35882 19.70423 5.59399c11.95717 2.19943 24.17699 3.18298 36.33479 3.17634 12.36438-.007 24.80439-.94841 36.94888-3.27072 6.52162-1.24711 19.09002-5.68838 19.09002-5.68838z"/></g></svg>