<svg height="500" viewBox="0 0 132.29167 132.29167" width="500" xmlns="http://www.w3.org/2000/svg" xmlns:xlink="http://www.w3.org/1999/xlink"><linearGradient id="a" gradientTransform="matrix(.78201849 0 0 .79405139 -91.377266 42.007777)" gradientUnits="userSpaceOnUse" spreadMethod="pad" x1="145.69267" x2="254.15807" y1="-29.859856" y2="75.499939"><stop offset="0" stop-color="#9f571d"/><stop offset=".511236" stop-color="#fde791"/><stop offset="1" stop-color="#b7671e"/></linearGradient><path d="m84.923722 30.90889v58.459754 4.616552m-7.50714 2.050398v-63.03757m-22.521416.06396v62.975078m-7.507237-2.046398.000098-63.365452m22.521416 3.481351.0001 62.864126m-7.507238.0067v-62.775818" fill="none" stroke="#6b4a2e" stroke-width="4.23333"/><path d="m99.907124 41.557871c3.776466 1.500951 7.792096-.409178 10.652066-2.697509 1.90018-1.520379 3.28329-4.07825 3.30109-6.511748.0339-4.636706-2.62711-9.434262-6.10763-12.497945-3.25395-2.864245-7.982306-4.339318-12.314414-4.181408-4.276658.155888-7.73452 3.740939-11.823995 5.00201-5.672741 1.749303-11.524617 3.504422-17.46095 3.503663-5.939273-.000759-11.798468-1.742543-17.468701-3.509864-4.01451-1.251259-7.388175-4.805975-11.589474-4.982125-4.420421-.185337-9.287239 1.258919-12.58993 4.202845-3.434015 3.060984-5.889176 7.904183-5.839953 12.504146.0256 2.392594 1.315116 4.933289 3.176033 6.437334 2.82446 2.282808 6.352587 4.234389 10.564213 2.66392-1.466702 2.785869-3.538819 5.01093-7.373193 8.796879-12.975585 12.81119-13.872064 29.898893-5.767607 43.187546 3.91992 6.427674 8.43556 10.834635 14.230656 14.199135 9.762331 5.66779 21.370121 8.95941 32.658473 8.95914 11.286358-.00027 22.892162-3.2915 32.652271-8.95914 5.794701-3.36495 10.308721-7.772811 14.228591-14.200685 8.08279-13.253645 7.21391-30.287687-5.77183-43.190637-3.83558-3.791177-5.91944-6.006587-7.355716-8.725557zm-49.089331-5.382636c1.034208.315112 2.706207.723352 4.07727 1.005623 2.484385.51148 4.977796 1.05272 7.507036 1.244369 2.495575.189099 5.013848.114678 7.507552-.09767 2.524325-.214955 5.017315-.718791 7.507036-1.187524 1.374813-.258832 2.992702-.597057 4.100008-.896586 1.484863 6.329888 5.084189 13.999392 11.67784 23.531381 3.809441 5.507598 5.2255 10.215379 5.095813 14.121102-.122489 3.693131-2.020682 7.06779-4.7656 10.155969-1.889691 2.126004-5.54912 3.886338-8.601026 5.316989-2.389332 1.120055-4.931104 1.940304-7.507035 2.513025-2.458805.54668-4.992374.718406-7.507036.863513-2.498362.144166-5.009115.148553-7.507552.0057-2.514875-.143809-5.047668-.322348-7.507036-.86713-2.574623-.570312-5.122415-1.370126-7.507035-2.495972-3.132789-1.479078-5.883275-2.64369-8.798947-5.531445-2.810318-2.783506-4.451255-6.083253-4.580082-9.9627-.129554-3.906255 1.285829-8.61046 5.095813-14.119035 6.613709-9.562505 10.23902-17.258775 11.712981-23.599594z" fill="#6b4a2e"/><path d="m38.277733 28.409039c1.740638 3.488776.659997 8.006171-.649312 11.678649-1.829729 5.132203-4.515187 8.171195-9.622152 13.213664-11.780662 11.631406-12.383917 26.069668-5.126303 37.969776 3.628405 5.949656 7.54981 9.724432 12.742888 12.744632 9.122893 5.3057 19.976363 8.38611 30.529924 8.38586 10.551732-.00025 21.403207-3.08059 30.524232-8.38586 5.19303-3.02054 9.11388-6.795603 12.74238-12.745665 7.23985-11.871463 6.65481-26.270531-5.04414-37.887611l-.0817-.08165h-.007c-5.106553-5.042495-7.817168-8.071354-9.615102-13.213176-1.286155-3.67821-2.35961-8.248684-.510565-11.678619 1.022162-1.896086 3.437976-3.743746 5.548467-3.31272 2.68229.547805 5.39001 2.690476 4.83616 6.638101-.99131-3.521667-2.8926-3.548991-4.83616-3.325381-1.490289.171461-3.094827 1.826563-3.03234 3.325381.127906 3.067971 3.68197 6.326713 6.75202 6.26654 2.94785-.05778 5.81513-3.349263 6.24251-6.26654.47359-3.232667-2.12907-6.539899-4.63486-8.636426-2.62885-2.199486-6.354781-3.390215-9.776395-3.187385-3.790203.22468-6.725859 3.611169-10.336563 4.78545-6.065503 1.972636-12.39273 3.71318-18.770944 3.71298-6.376189-.0002-12.694719-1.760927-18.76475-3.71298-3.667237-1.179342-6.672519-4.58027-10.519255-4.78545-3.369087-.179703-7.046608.989869-9.606649 3.18742-2.453111 2.105762-4.914423 5.442452-4.413684 8.636391.456668 2.912837 3.076663 6.26654 6.242513 6.26654s6.3963-3.252319 6.531901-6.26654c.06604-1.468046-1.436561-3.140333-2.894394-3.325381-1.941641-.24646-3.844654-.196083-4.839241 3.325381-.556144-3.947422 2.042996-6.502337 4.839241-7.038361 2.185826-.41901 4.555656 1.721465 5.549273 3.71298zm9.110295 2.216147c2.51924 1.032058 4.946873 1.831224 7.507138 2.436797 2.463086.582588 4.982114.96509 7.507139 1.139588 2.496625.172535 5.012488.10406 7.507138-.09501 2.521499-.201213 5.032676-.58368 7.507139-1.108538 2.540939-.538958 5.27866-1.340335 7.50714-2.089137.322832 5.844146 3.549982 14.599378 11.753288 26.458334 4.1752 6.036398 6.01186 11.631213 5.84461 16.668233-.16707 5.037222-2.711981 9.317674-5.832724 12.828675-3.045456 3.426299-7.552701 5.312921-11.765174 7.121067-2.383723 1.02318-4.962403 1.547064-7.50714 2.050398-2.473759.489295-4.990263.77783-7.507039.935094-2.497543.156063-5.00961.161352-7.507238.0067-2.517109-.155903-5.033181-.450717-7.507139-.940283-2.544378-.503501-5.12348-1.024109-7.507237-2.046398-4.21728-1.80865-7.845928-3.232156-11.777994-7.126574-3.450241-3.417322-5.664935-7.792166-5.832202-12.829191-.167064-5.037222 1.669317-10.631324 5.845121-16.667717 8.337681-12.05383 11.533747-20.899405 11.765174-26.742038z" fill="url(#a)" stroke-width="8.46667"/></svg>