<svg height="500" viewBox="0 0 132.29167 132.29167" width="500" xmlns="http://www.w3.org/2000/svg" xmlns:xlink="http://www.w3.org/1999/xlink"><linearGradient id="a"><stop offset="0" stop-color="#668000"/><stop offset="1" stop-color="#4b5e00"/></linearGradient><linearGradient id="b"><stop offset="0" stop-color="#c8ab37"/><stop offset=".13288522" stop-color="#c8ab37"/><stop offset=".74767739" stop-color="#a0892c" stop-opacity="0"/><stop offset="1" stop-color="#c8ab37" stop-opacity="0"/></linearGradient><linearGradient id="c" gradientUnits="userSpaceOnUse" spreadMethod="reflect" x1="-254.38861" x2="-247.54297" xlink:href="#b" y1="37.164211" y2="37.164211"/><radialGradient id="d" cx="-257.87524" cy="158.57376" gradientTransform="matrix(.06491985 -.06531603 .13560576 .13478287 -262.63795 100.52452)" gradientUnits="userSpaceOnUse" r="61.118755" spreadMethod="reflect" xlink:href="#a"/><linearGradient id="e" gradientTransform="matrix(1 0 0 .34299515 114.30188 24.417066)" gradientUnits="userSpaceOnUse" spreadMethod="reflect" x1="-254.38861" x2="-247.54297" xlink:href="#b" y1="37.164211" y2="37.164211"/><linearGradient id="f" gradientTransform="matrix(1 0 0 .38164249 101.6 22.980769)" gradientUnits="userSpaceOnUse" spreadMethod="reflect" x1="-254.38861" x2="-247.54297" xlink:href="#b" y1="37.164211" y2="37.164211"/><linearGradient id="g" gradientTransform="matrix(1 0 0 .42028984 88.9 21.54447)" gradientUnits="userSpaceOnUse" spreadMethod="reflect" x1="-254.38861" x2="-247.54297" xlink:href="#b" y1="37.164211" y2="37.164211"/><linearGradient id="h" gradientTransform="matrix(1 0 0 .49758452 76.200325 18.671874)" gradientUnits="userSpaceOnUse" spreadMethod="reflect" x1="-254.38861" x2="-247.54297" xlink:href="#b" y1="37.164211" y2="37.164211"/><linearGradient id="i" gradientTransform="matrix(1 0 0 .57487917 63.50188 15.79928)" gradientUnits="userSpaceOnUse" spreadMethod="reflect" x1="-254.38861" x2="-247.54297" xlink:href="#b" y1="37.164211" y2="37.164211"/><linearGradient id="j" gradientTransform="matrix(1 0 0 .6521738 50.8 12.926686)" gradientUnits="userSpaceOnUse" spreadMethod="reflect" x1="-254.38861" x2="-247.54297" xlink:href="#b" y1="37.164211" y2="37.164211"/><linearGradient id="k" gradientTransform="matrix(1 0 0 .72946859 38.1 10.054086)" gradientUnits="userSpaceOnUse" spreadMethod="reflect" x1="-254.38861" x2="-247.54297" xlink:href="#b" y1="37.164211" y2="37.164211"/><linearGradient id="l" gradientTransform="matrix(1 0 0 .80676329 25.4 7.18149)" gradientUnits="userSpaceOnUse" spreadMethod="reflect" x1="-254.38861" x2="-247.54297" xlink:href="#b" y1="37.164211" y2="37.164211"/><linearGradient id="m" gradientTransform="matrix(1 0 0 .92270529 12.7 2.872597)" gradientUnits="userSpaceOnUse" spreadMethod="reflect" x1="-254.38861" x2="-247.54297" xlink:href="#b" y1="37.164211" y2="37.164211"/><linearGradient id="n" gradientUnits="userSpaceOnUse" spreadMethod="reflect" x1="-257.86682" x2="-253.90784" xlink:href="#a" y1="51.57336" y2="55.949627"/><filter id="o" color-interpolation-filters="sRGB" height="1.000785" width="1.003717" x="-.001858" y="-.000393"><feGaussianBlur stdDeviation=".0061477926"/></filter><filter id="p" color-interpolation-filters="sRGB" height="1.000706" width="1.003717" x="-.001858" y="-.000353"><feGaussianBlur stdDeviation=".0061477926"/></filter><filter id="q" color-interpolation-filters="sRGB" height="1.000641" width="1.003717" x="-.001858" y="-.00032"><feGaussianBlur stdDeviation=".0061477926"/></filter><filter id="r" color-interpolation-filters="sRGB" height="1.000541" width="1.003717" x="-.001858" y="-.000271"><feGaussianBlur stdDeviation=".0061477926"/></filter><filter id="s" color-interpolation-filters="sRGB" height="1.000469" width="1.003717" x="-.001858" y="-.000234"><feGaussianBlur stdDeviation=".0061477926"/></filter><filter id="t" color-interpolation-filters="sRGB" height="1.000413" width="1.003717" x="-.001858" y="-.000207"><feGaussianBlur stdDeviation=".0061477926"/></filter><filter id="u" color-interpolation-filters="sRGB" height="1.000369" width="1.003717" x="-.001858" y="-.000185"><feGaussianBlur stdDeviation=".0061477926"/></filter><filter id="v" color-interpolation-filters="sRGB" height="1.000334" width="1.003717" x="-.001858" y="-.000167"><feGaussianBlur stdDeviation=".0061477926"/></filter><filter id="w" color-interpolation-filters="sRGB" height="1.000292" width="1.003717" x="-.001858" y="-.000146"><feGaussianBlur stdDeviation=".0061477926"/></filter><filter id="x" color-interpolation-filters="sRGB" height="1.000269" width="1.003717" x="-.001858" y="-.000135"><feGaussianBlur stdDeviation=".0061477926"/></filter><g stroke-width="1.30192" transform="matrix(.7636894 .10587592 -.10670797 .75773456 226.21649 27.120066)"><g fill="#786721"><path d="m-260.27153 34.770051.00022 114.325369 12.72815.00015-.00013-8.46615 12.70038-.00006-.0003-12.6999 12.70038-.00006-.00013-8.46615 12.70028-.00073-.00013-8.46615 12.69971.00003-.00023-8.46682 12.70237-.00034-.00013-8.466154 12.69829-.000448-.00013-8.466155 12.69971.000036-.00016-4.233747 12.70038-.000057-.00016-4.233746 12.7018.000426.00005-42.35952z"/><path d="m-260.27148 34.769732v114.325978h12.72851v-114.325978z"/><path d="m-145.9696 34.769732v42.359793h12.72851v-42.359793z"/><path d="m-158.67148 34.769732v46.593125h12.72851v-46.593125z"/><path d="m-171.37148 34.769732v50.82646h12.72851v-50.82646z"/><path d="m-184.07115 34.769732v59.293126h12.72851v-59.293126z"/><path d="m-196.7696 34.769732v67.759798h12.72851v-67.759798z"/><path d="m-209.47148 34.769732v76.226458h12.72851v-76.226458z"/><path d="m-222.17148 34.769732v84.693128h12.72851v-84.693128z"/><path d="m-234.87148 34.769732v93.159798h12.72851v-93.159798z"/><path d="m-247.57148 34.769733v105.859797h12.72851v-105.859797z"/></g><path d="m-143.57565 37.16421v37.570835h7.93938v-37.570835z" fill="url(#e)" filter="url(#o)"/><path d="m-156.27753 37.16421v41.804168h7.93938v-41.804168z" fill="url(#f)" filter="url(#p)"/><path d="m-168.97753 37.16421v46.037502h7.93938v-46.037502z" fill="url(#g)" filter="url(#q)"/><path d="m-181.6772 37.16421v54.504169h7.93938v-54.504169z" fill="url(#h)" filter="url(#r)"/><path d="m-194.37565 37.16421v62.97084h7.93938v-62.97084z" fill="url(#i)" filter="url(#s)"/><path d="m-207.07753 37.16421v71.4375h7.93938v-71.4375z" fill="url(#j)" filter="url(#t)"/><path d="m-219.77753 37.16421v79.90417h7.93938v-79.90417z" fill="url(#k)" filter="url(#u)"/><path d="m-232.47753 37.16421v88.37084h7.93938v-88.37084z" fill="url(#l)" filter="url(#v)"/><path d="m-245.17753 37.16421v101.07084h7.93938v-101.07084z" fill="url(#m)" filter="url(#w)"/><path d="m-257.87753 37.16421v109.53751h7.93938v-109.53751z" fill="url(#c)" filter="url(#x)"/><path d="m-260.26953 49.585938v12.726562h127.02539v-12.726562z" fill="#4b5e00"/><path d="m-257.87566 51.980878v7.9375h122.23751v-7.9375z" fill="url(#n)"/><path d="m-503.59961 235.04688-9.4043.37695c-30.30512 1.19523-31.41843 1.85041-49.28906 5.16015l-.11133.0215-.10351.0215c-31.44677 6.59839-54.51857 17.46637-79.22266 26.40625l-.39062.14063-48.64649 22.89844-48.45508 26.74414-48.36523 30.03711-48.33008 33.04101-48.33008 36.18555-48.33593 39.95117-.16211.14844c-14.0106 12.76498-28.57514 25.51623-41.90912 39.66737-3.40569 3.62399-5.90902 6.45971-9.0401 10.0338l-.008 57.6304 9.05507-9.04811c6.34489-11.32822 25.11901-32.55165 36.27705-43.95338l47.56054-42.68946 47.6211-37.78711 47.67187-34.3789 47.64258-31.1875 47.5918-27.9336 47.48828-24.39648 47.29492-20.21289 47.17773-14.90235 17.40625-3.78125c14.40787-2.67048 20.35466-2.78121 29.03321-3.51953l8.2832-.70117z" fill="#4b5e00" transform="scale(.26458334)"/><path d="m-135.63815 64.680878c-7.99201.315203-7.92688.444198-12.7 1.328207-8.03135 1.685197-13.97229 4.482516-20.6375 6.894513l-12.7 5.977469-12.7 7.009871-12.7 7.887494-12.7 8.683628-12.7 9.5078-12.7 10.49655c-4.37452 3.98561-8.8538 7.89068-12.70001 12.28249v7.98407c1.93404-3.45306 5.0046-6.38892 7.93751-9.38742l12.7-11.39826 12.7-10.07718 12.7-9.15961 12.7-8.314533 12.7-7.4549 12.7-6.523567 12.7-5.426604 12.7-4.012933 4.7625-1.034521c3.94466-.732656 5.71049-.776273 7.9375-.965732z" fill="url(#d)"/></g></svg>