<svg height="500" viewBox="0 0 132.29167 132.29167" width="500" xmlns="http://www.w3.org/2000/svg" xmlns:xlink="http://www.w3.org/1999/xlink"><linearGradient id="a" gradientUnits="userSpaceOnUse" spreadMethod="repeat" x1="195.11603" x2="195.68231" y1="103.11888" y2="103.68388"><stop offset="0" stop-color="#e0d8cf" stop-opacity="0"/><stop offset=".25" stop-color="#e0d8cf" stop-opacity="0"/><stop offset=".375" stop-color="#e0d8cf"/><stop offset=".5" stop-color="#e0d8cf"/><stop offset=".625" stop-color="#e0d8cf"/><stop offset=".75" stop-color="#e0d8cf"/><stop offset="1" stop-color="#e0d8cf" stop-opacity="0"/></linearGradient><g stroke-width="1.07932" transform="matrix(.92650884 0 0 .92650884 -159.95016 9.410396)"><g id="b" stroke-width="1.38947"><g fill="#453c39" stroke="#2a2423" stroke-width="4.7625" transform="matrix(.77678098 0 0 .77678098 20.54279954041 -2.85327989116)"><path d="m330.55857 16.824221c.14476 1.435061 1.24286 2.303091 2.19383 3.249398 1.38722 1.380409 2.77443 2.760818 4.16164 4.141227l6.81446-6.816407c-1.82613-1.825454-3.65244-3.650724-5.47822-5.476515-.70719-.851798-1.40212-1.342535-2.50722-1.308644-1.1716.03812-1.6914.451588-2.33248 1.317262-.99177 1.550519-2.83786 3.524163-2.85201 4.893679z" fill="#2a2423" stroke="none"/><path d="m333.08851 17.057299 3.81941 3.794836 3.45281-3.452815-4.19453-4.19454s-.24621-.216401-.3957-.211572c-.13365.0043-.34081.211572-.34081.211572l-2.34939 3.172458s-.14587.233625-.14128.363559c.004.116603.14949.316502.14949.316502z" fill="#5b4b48" stroke="none"/></g><g fill="#453c39" stroke="#2a2423" stroke-width="4.7625" transform="matrix(.77678098 0 0 .77678098 24.58580394395 -6.89452255544)"><path d="m330.55857 16.824221c.14476 1.435061 1.24286 2.303091 2.19383 3.249398 1.38722 1.380409 2.77443 2.760818 4.16164 4.141227l6.81446-6.816407c-1.82613-1.825454-3.65244-3.650724-5.47822-5.476515-.70719-.851798-1.40212-1.342535-2.50722-1.308644-1.1716.03812-1.6914.451588-2.33248 1.317262-.99177 1.550519-2.83786 3.524163-2.85201 4.893679z" fill="#2a2423" stroke="none"/><path d="m333.08851 17.057299 3.81941 3.794836 3.45281-3.452815-4.19453-4.19454s-.24621-.216401-.3957-.211572c-.13365.0043-.34081.211572-.34081.211572l-2.34939 3.172458s-.14587.233625-.14128.363559c.004.116603.14949.316502.14949.316502z" fill="#5b4b48" stroke="none"/></g><g fill="#453c39" stroke="#2a2423" stroke-width="4.7625" transform="matrix(.77678098 0 0 .77678098 16.46044030529 1.22907934395)"><path d="m330.55857 16.824221c.14476 1.435061 1.24286 2.303091 2.19383 3.249398 1.38722 1.380409 2.77443 2.760818 4.16164 4.141227l6.81446-6.816407c-1.82613-1.825454-3.65244-3.650724-5.47822-5.476515-.70719-.851798-1.40212-1.342535-2.50722-1.308644-1.1716.03812-1.6914.451588-2.33248 1.317262-.99177 1.550519-2.83786 3.524163-2.85201 4.893679z" fill="#2a2423" stroke="none"/><path d="m333.08851 17.057299 3.81941 3.794836 3.45281-3.452815-4.19453-4.19454s-.24621-.216401-.3957-.211572c-.13365.0043-.34081.211572-.34081.211572l-2.34939 3.172458s-.14587.233625-.14128.363559c.004.116603.14949.316502.14949.316502z" fill="#5b4b48" stroke="none"/></g></g><g stroke-width="1.07932"><path d="m911.61914 99.263672c-23.26397 5.815988-46.10082 23.762918-67.6543 55.482418l-8.5039-1.65234-25.07032 44.63086 15.80469 4.16211c-4.3341 5.34044-10.14801 11.55421-16.14453 16.625-7.05192 4.79324-17.2159 16.06232-23.08984 5.88281l-8.74805-15.51562-40.62891 22.36523 1.41016 11.50195c-19.7424 9.14803-35.25115 18.91391-46.06445 30.95313-11.67519 12.9988-17.6758 29.25757-17.22071 45.25781.91019 32.00049 11.73959 47.92157 37.50834 82.41721l11.01315 14.88357 14.86774 10.99732c34.56733 25.8003 50.53245 36.65302 82.55023 37.56128 16.0089.45414 32.28024-5.54969 45.28125-17.23047 12.04686-10.82355 21.81561-26.34609 30.96679-46.10742l11.56055 1.37304 21.87109-40.09765-14.71874-8.91016c-8.66179-6.2977.77733-17.86596 5.41799-23.42968 5.11257-6.0564 11.3893-11.94884 16.75782-16.30078l4.45117 15.37695 44.23242-24.16015-1.68359-8.66602c31.72171-21.55658 49.67791-44.41338 55.51951-67.67773 3.7386-24.92767-1.4893-48.59458-13.2813-67.86133l-48.52728-48.53711c-24.12989-11.2406-43.66112-19.250991-67.87698-13.324228z" fill="#542818" stroke-width="4.07932" transform="scale(.26458334)"/><path d="m233.8087 103.1718c.52917-1.16417 1.50813-2.01084 4.18042-1.69334l2.06375-3.783538c-1.00542-.60854-1.85208-1.32291-2.54-2.11666-5.23875-5.926672 8.78417-17.780006 11.77396-18.706047 1.03187-.291042 2.91042 2.275416 3.20146 3.280833l3.43958-1.878542-.37042-1.905c19.3675-11.721042 17.30375-23.203959 12.67355-30.771042l-12.03855-12.038542c-7.59354-4.630209-19.05-6.720417-30.77104 12.647083l-1.905-.370416-1.93146 3.439583c1.00542.264583 3.57188 2.169584 3.28084 3.201459-.92604 2.989791-12.75292 17.012708-18.67959 11.773958-.76729-.687916-1.53458-1.508125-2.11666-2.54l-3.79677 2.090209c.32543 2.645833-.51594 3.65125-1.68805 4.180416-21.9538 9.683751-16.97302 20.796251-3.56261 38.748236 17.99034 13.4276 29.10284 18.40177 38.78659-3.55865z" fill="#8a4228" stroke-width="10.2805"/></g><path d="m218.45361 76.122116 3.59833 3.571877 3.59834 3.571876" fill="none" stroke="#542818" stroke-linecap="square" stroke-width="5.14026"/><use height="100%" stroke-width="1.38947" transform="matrix(-.00153275 -.99999883 -.99999883 .00153275 302.21263 301.74516)" width="100%" xlink:href="#b"/><g stroke-width="1.07932"><path d="m209.26953 80.351562-1.61523 2.38086c-4.33745 6.40038-9.11247 13.391967-14.25391 18.734378l-4.69497 4.73013 1.26924 5.57256 5.57841 1.2751 4.73209-4.68131c5.37645-5.11922 12.40068-9.916555 18.77734-14.255858l2.38086-1.621094z" fill="#2a2423" stroke-width="1.07932"/><path d="m209.62579 84.068881c-4.33917 6.402917-9.16252 13.493751-14.50976 19.049999l-.0975 3.60676 3.62442-.0878c5.58536-5.31813 12.70265-10.159998 19.07911-14.499168z" fill="#453c39" stroke-width="5.14026"/></g><g stroke-width="1.07932"><path d="m290.27716 5.3135583-61.81232 57.3192537 10.70703 10.626954 57.28463-61.784353 1.61967-1.7468974c7.57065.8993354 7.01511-2.6306652 9.20896-9.19531218 0 0-.20041-3.55650962-1.35805-4.70932232-1.16033-1.1554904-4.72591-1.3414589-4.72591-1.3414589-7.05706 2.0892345-9.07462 1.8046406-9.1777 9.2109375z" fill="#2a2423" stroke-width="1.07932"/><path d="m300.56309-2.7938283c-4.39112 1.3176059-6.07672.9345465-6.11192 5.3842711l4.70958 4.712229c5.1418.2499377 3.71638-1.0922042 5.3975-6.12246 0 0 .5561-2.8038913-.31365-3.6709518-.87202-.8693288-3.68151-.3030883-3.68151-.3030883zm-8.59896 9.7895831-60.06043 55.6947922 7.19667 7.143751 55.66834-60.0418972z" fill="#453c39" stroke-width="5.14026"/></g><path d="m294.76871 9.7924008-2.80458-2.796646s-91.50086 90.5668772-96.8481 96.1231252l-.0975 3.60676 3.62442-.0878z" fill="url(#a)"/><g fill="#2a2423" fill-rule="evenodd" stroke-width="2.3237"><path d="m239.40569 76.090291c1.34711 1.167195 1.49295 3.20543.32576 4.552536l-3.9626 4.573396-3.96261 4.573397c-2.23676 2.581538-1.749 2.786104-1.53582 5.257771.059.823884-.19634 1.670275-.77997 2.34386-1.16726 1.34718-3.20564 1.492953-4.55273.325594-1.3471-1.167195-1.49295-3.205435-.32575-4.55254l3.9626-4.573397 3.96261-4.573396c1.80244-2.080271 1.75977-3.382945 1.53599-5.25773-.059-.82385.19639-1.670183.77999-2.343736 1.16719-1.347105 3.20543-1.492947 4.55253-.325755z"/><path d="m225.47144 62.106896c-1.16716-1.347134-3.20539-1.493035-4.55253-.325874l-4.57349 3.962488-4.5735 3.962488c-2.5816 2.2367-2.78615 1.748934-5.25781 1.535683-.82388-.059-1.67028.196305-2.34388.779914-1.34721 1.167225-1.49304 3.205605-.32571 4.55272 1.16716 1.347135 3.2054 1.493033 4.55253.325872l4.5735-3.962489 4.5735-3.962488c2.08031-1.802391 3.38298-1.75969 5.25776-1.535865.82385.05897 1.67019-.196343 2.34376-.779924 1.34713-1.167161 1.49303-3.205393.32587-4.552525z"/></g></g></svg>