<svg height="500" viewBox="0 0 132.29167 132.29167" width="500" xmlns="http://www.w3.org/2000/svg" xmlns:xlink="http://www.w3.org/1999/xlink"><linearGradient id="a" gradientTransform="matrix(-3.2081389 0 0 3.2081389 -720.06589 -464.31363)" gradientUnits="userSpaceOnUse" x1="-249.87244" x2="-230.9847" y1="161.64737" y2="171.94391"><stop offset="0" stop-color="#deaa87"/><stop offset="1" stop-color="#d38d5f"/></linearGradient><filter id="b" color-interpolation-filters="sRGB" height="1.188066" width="1.088111" x="-.044055" y="-.094033"><feGaussianBlur stdDeviation="2.5917"/></filter><linearGradient id="c" gradientTransform="matrix(237.217 0 0 -237.217 781.597 942.031)" gradientUnits="userSpaceOnUse" spreadMethod="pad" x1="0" x2="1" y1="0" y2="0"><stop offset="0" stop-color="#f9e105"/><stop offset=".09343466" stop-color="#f9e105"/><stop offset=".266667" stop-color="#fbc408"/><stop offset="1" stop-color="#f03c1f"/></linearGradient><filter id="d" color-interpolation-filters="sRGB" height="1.050943" width="1.045378" x="-.022689" y="-.025472"><feGaussianBlur stdDeviation=".40257084"/></filter><radialGradient id="e" cx="1391.7535" cy="368.50858" gradientTransform="matrix(-1.0850549 .01445538 -.01445946 -1.085032 2907.2105 791.44265)" gradientUnits="userSpaceOnUse" r="155.70674" xlink:href="#c"/><radialGradient id="f" cx="1856.6165" cy="652.64423" gradientTransform="matrix(-.24021752 -.55300549 .16905398 -.07344236 649.81096 1095.2618)" gradientUnits="userSpaceOnUse" r="151.41148"><stop offset="0" stop-color="#f03c1f"/><stop offset=".38204807" stop-color="#f48e12"/><stop offset=".51013505" stop-color="#fbc408"/><stop offset=".61491197" stop-color="#f9e105"/><stop offset="1" stop-color="#f9e105" stop-opacity="0"/></radialGradient><radialGradient id="g" cx="1856.6165" cy="652.64423" gradientTransform="matrix(-.24021752 -.55300549 .16905398 -.07344236 649.81096 1095.2618)" gradientUnits="userSpaceOnUse" r="151.41148"><stop offset="0" stop-color="#f9e105"/><stop offset=".38508803" stop-color="#f9e105"/><stop offset=".48986495" stop-color="#fbc408"/><stop offset=".61795193" stop-color="#f48e12"/><stop offset="1" stop-color="#f03c1f" stop-opacity="0"/></radialGradient><radialGradient id="h" cx="1856.6165" cy="652.64423" gradientTransform="matrix(-.24021752 -.55300549 .16905398 -.07344236 649.81096 1095.2618)" gradientUnits="userSpaceOnUse" r="151.41148"><stop offset="0" stop-color="#f03c1f"/><stop offset=".61491197" stop-color="#f03c1f"/><stop offset="1" stop-color="#f03c1f" stop-opacity="0"/></radialGradient><filter id="i" color-interpolation-filters="sRGB" height="1.074489" width="1.071104" x="-.035552" y="-.037245"><feGaussianBlur stdDeviation="1.1554952"/></filter><linearGradient id="j" gradientUnits="userSpaceOnUse" spreadMethod="pad" x1="275.690988" x2="340.712048" y1="27.678922" y2="-9.27673"><stop offset="0" stop-color="#f03c1f"/><stop offset=".733333" stop-color="#fbc408"/><stop offset=".9818182" stop-color="#f9e105"/><stop offset="1" stop-color="#f9e105"/></linearGradient><filter id="k" color-interpolation-filters="sRGB" height="1.045405" width="1.045797" x="-.022898" y="-.022702"><feGaussianBlur stdDeviation=".59561551"/></filter><linearGradient id="l" gradientTransform="translate(-5.058312 2.726352)" gradientUnits="userSpaceOnUse" x1="288.52774" x2="312.91837" xlink:href="#c" y1="32.331642" y2="22.068602"/><clipPath id="m"><path d="m315.59903-10.889838c-6.85784-3.316489-14.32838-5.294583-21.42886-4.785954-12.67409.861247-23.67627 6.9912254-31.35619 15.86674263-6.4711 8.15882987-9.56094 18.69942637-9.24148 28.27942937.85855 11.720935 5.6379 21.960363 13.63448 29.442253 9.18369 7.867727 19.49213 11.536006 30.76906 11.201817 10.52974-.69827 19.51317-4.766786 26.83467-11.271355 9.41473-8.992686 13.44051-20.582466 13.50533-32.942262-.16084-7.647059-2.82154-14.9332955-6.49266-20.8077179l24.25786-16.0171381s-9.97837-6.786956-14.39708-10.863926c-4.45699-4.11228-12.08978-13.595388-12.08978-13.595388z"/></clipPath><g transform="translate(-.251321 7.681089)"><g fill="#7f8899"><path d="m28.773161 19.813845 14.982637 23.150576c-5.853397 4.232445-10.865301 9.578411-13.635113 15.734145-4.982929 10.966763-4.81602 22.908112-.862853 33.311398 3.898785 9.071846 11.306728 16.392736 19.446654 20.435686 10.169451 4.55606 20.866183 5.17289 30.708637 1.86374 10.698559-4.12649 18.397925-11.08097 23.192237-20.644402 4.15427-9.103517 4.79981-18.432418 2.66438-27.469931-3.27051-11.904078-11.133128-20.478193-21.420411-26.092409-6.455171-3.305811-13.733829-4.362608-20.28863-3.940886l-2.456049-27.4539293s-10.153971 5.2760183-15.544803 7.1303623c-5.437525 1.870413-16.786686 3.97565-16.786686 3.97565zm28.712953-5.526396 2.358516 26.361531c7.689338-1.14366 15.784119-.213391 22.221387 3.108683 10.038311 5.661571 16.198844 13.070624 19.184203 23.483393 2.07094 8.605042 1.10116 17.563971-2.513997 24.935511-4.852003 8.968223-11.824801 15.267423-20.829705 18.436253-8.910988 2.73405-19.94346 2.56484-27.473651-1.70959-7.254165-4.24684-14.444144-10.327709-17.497551-18.158504-3.673775-9.421764-2.3401-21.597367.708208-30.327348 3.2215-7.161226 9.458251-12.869118 15.793271-16.222861l-14.371234-22.205161s8.034444-.965588 11.831232-2.273595c3.750347-1.292005 10.589321-5.428312 10.589321-5.428312z"/><path d="m43.755789 42.96442c-5.853387 4.232445-10.865292 9.578411-13.635104 15.734145-4.982929 10.966763-4.816019 22.908117-.862853 33.311398 3.898785 9.071847 11.306728 16.392737 19.446654 20.435687 10.169442 4.55606 20.866184 5.17289 30.708628 1.86374 10.698559-4.12649 18.397926-11.08097 23.192236-20.644401 4.15427-9.103513 4.79982-18.432414 2.66438-27.469933-3.2705-11.904078-11.133118-20.478193-21.4204-26.092409-6.455181-3.30581-13.733829-4.362608-20.288631-3.940886l-2.456058-27.4539285s-10.153971 5.2760185-15.544803 7.1303625c-5.437525 1.870413-16.786686 3.975649-16.786686 3.975649z" opacity=".25"/></g><g><g clip-path="url(#m)" stroke-width="1.05462" transform="matrix(.44987814 -.83472115 .8346772 .44985444 -89.13581 311.30045)"><path d="m324.97461-17.697266s-8.48199 5.199321-12.96484 7.333985c-4.81676 2.2936668-11.9229 5.302099-14.89844 5.847656l8.57422-8.585938s-8.3504-.364005-12.35157.628907c-4.24381 1.053126-8.68633 2.5621024-11.89257 5.535156-2.94676 2.7324465-4.82636 6.64206328-5.89649 10.515625-1.24925 4.5219072-1.18371 11.484467-.39453 14.068359.78919 2.583893-.004 8.302503 1.16211 11.332079 1.16829 3.035932 2.55025 6.511214 4.81055 9.353515 3.31644 4.170417 8.42506 7.828552 12.89062 10.847656 4.46556 3.019105 14.40039 4.982375 14.40039 4.982375 2.57222 1.342116 6.59337 3.062604 9.96878 2.484422 5.02195-.860224 9.47553-4.523234 12.75586-8.421875 1.42975-1.699241 2.66602-6.105468 2.66602-6.105468l-1.65235-.136719c5.63376-4.360354 9.02358-10.535665 12.79297-16.333985 2.95667-4.548146 7.63672-14.371093 7.63672-14.371093-4.89305 2.735465-10.09649 5.736547-14.89648 8.353515.95518-2.546882 2.15623-5.20207 2.35547-7.96289.24948-3.4569229-1.81792-6.8407358-1.48716-10.2908292.42099-4.3912264 4.34691-12.4997388 4.34691-12.4997388s-7.28808-2.329749-10.88306-1.606532c-2.50199.503335-4.5579 2.368224-6.55277 3.9600888-3.0507 2.4343936-4.64568 7.1887698-8.129 8.42724532.28256-1.05702812.82274-2.59918302 1.33398-3.86132812 1.86391-4.6016249 6.30466-13.494188 6.30466-13.494188z" fill="#e01b24" filter="url(#i)" stroke-width="1.05462" transform="matrix(.99643093 -.08441653 .08440764 .99643093 -2.232173 23.868242)"/><path d="m314.3555-6.21892c-21.22382 12.006792-28.4578 6.196542-20.77773-1.496483-14.50579.740833-16.6034 23.329106-14.64337 29.740754 0 0 2.88773 9.534608 5.91581 13.342396 5.14039 6.464021 19.80645 14.885207 19.80645 14.885207 7.51152 3.913188 19.55378 1.933046 22.11759-3.935677-3.91001-.322792-7.17682-1.236662-8.73125-3.050646 11.64749-2.206625 17.66464-10.383044 22.69596-19.852217-8.90005 5.013854-11.1543 4.70535-14.81667 4.316148 9.39642-3.80074 12.40261-28.824503 10.25301-38.414326-1.39661 7.986448-33.07042 28.548542-21.8198 4.464844z" fill="url(#j)" filter="url(#k)" stroke-width="10.0453" transform="matrix(.99643093 -.08441653 .08440764 .99643093 -2.232173 23.868242)"/><path d="m283.5482 27.085508c-.5662-8.259763.1069-12.81774 5.15938-18.909771 3.64173 5.454121 4.89347 8.916987 13.77474 1.844145-2.48523 14.160501 14.4489 4.960144 23.48178 2.894013-4.03437 3.716867-9.3009 8.657961-10.28569 14.675909-.32808 2.007394 1.64254 4.742656 3.73725 6.780212-2.49846.591609-10.97334 2.357438-10.20313 6.937376.77046 4.579937 3.21204 3.144573.92604 4.042833-3.28163.731838-5.59753 1.476375-10.47565-.578644 0 0-11.60495-4.513473-14.81271-9.403834-1.5328-2.336799-1.30201-8.282239-1.30201-8.282239z" fill="url(#l)" filter="url(#d)" transform="matrix(.99643093 -.08441653 .08440764 .99643093 -2.232173 23.868242)"/></g><path d="m1391.7526 357.7994c-48.086 0-141.5803 12.06975-141.5803 26.95851 0 .50721.1301 1.01066.3416 1.51096l-.6182.004-12.2554 11.32492c-1.2633 7.66676-2.7756 15.60902-1.4544 23.26597 6.8306 39.58305 18.784 82.59763 47.3932 110.79308 27.571 27.17214 68.7172 44.17732 107.4275 44.11144 39.3936-.067 81.2144-17.50583 109.1689-45.26195 28.2137-28.0134 39.9991-70.62467 46.4649-109.85424 1.2532-7.60297-.3909-15.45992-1.6954-23.0543l-11.6099-12.84007c0-14.88876-93.4964-26.95851-141.5825-26.95851z" fill="url(#e)" transform="matrix(.24658846838 0 0 .24658846139 -276.65812147461 -26.78737848057)"/><g stroke-width="1.05462" transform="matrix(.44987814 -.83472115 .8346772 .44985444 -89.135815 311.30045)"><path d="m308.56883 64.163327c2.57222 1.342114 7.56058-3.253436 10.9994-5.605939 4.20529-2.876841 8.29005-6.434153 11.57036-10.332786 1.42975-1.699239 2.66626-6.105666 2.66626-6.105666l-1.65234-.136642c2.44737-1.894184 4.47077-4.130813 6.28629-6.530316.36675-1.859941.63402-3.754254.80689-5.675222.0944-1.484638.0875-2.962639.00034-4.426982.013.233251.0256.466378.035.700218-4.76264 8.317626-10.68881 15.218141-21.23783 17.21666 1.55443 1.81398 4.8209 2.727717 8.73089 3.050507-2.56379 5.868711-14.60593 7.848792-22.11745 3.93561l-11.19907-8.350222c3.42595 8.390028 4.16553 18.397037 15.11126 22.26078zm-29.63419-42.13796c-1.96003-6.411636.13741-28.999669 14.64318-29.7405006-7.68005 7.69300963-.44611 13.5031109 20.77767 1.4963429-11.2506 24.0836497 20.42327 3.5217151 21.81988-4.4647163.94223 4.2034876.89313 11.37193329-.24979 18.4189868l3.20736-1.7481162c-.39059-1.5318341-.72718-3.0643584-.57899-4.6102676.42099-4.3912176 4.34686-12.499747 4.34686-12.499747s-7.28812-2.329504-10.8831-1.606289c-2.50197.503335-4.55782 2.367779-6.55269 3.9596401-3.0507 2.4343888-4.64546 7.1891794-8.12878 8.42765253.28256-1.05702593.82274-2.59918123 1.33398-3.86132373.73552-1.8158444 1.86933-4.29216 2.97615-6.6342539l-2.01572 3.033255c-2.03979-1.208779-4.14983-2.292849-6.30319-3.216243-.46315.23791-.91111.46321-1.31776.656852-4.81674 2.2936624-11.92273 5.3021995-14.89827 5.8477555l8.57396-8.5859945s-8.35016-.364135-12.35131.628775c-4.24381 1.053124-8.68628 2.5624284-11.89252 5.535476-2.94674 2.7324411-4.82659 6.64221162-5.89672 10.5157655zm56.70099-11.219037c-.0634-.143241-.13062-.282915-.1953-.424984-1.64082 8.052065-4.75795 15.424081-9.51772 17.349348 3.43689.36524 5.63452.65808 13.24731-3.450704-.15021-1.707807-.41174-3.393662-.77118-5.043139-.23534.129053-.47943.266792-.71294.394101.16218-.432428.33388-.8725.50412-1.311159-.63351-2.623416-1.50677-5.147471-2.55429-7.513463zm-.20144-.437764c-.14302-.313859-.28765-.6260425-.4366-.9339713.14815.3087006.29352.6202133.4366.9339713zm3.7437 13.989961c.0107.126231.0184.253078.0276.37958-.01-.126509-.0168-.253309-.0276-.37958z" fill="url(#h)" filter="url(#d)" transform="matrix(.99643093 -.08441653 .08440764 .99643093 -2.232173 23.868242)"/><path d="m336.17537-10.683507c-1.39661 7.9864314-33.07048 28.548366-21.81988 4.4647163-21.22378 12.006768-28.45772 6.19666674-20.77767-1.4963429-14.50577.7408316-16.60321 23.3288646-14.64318 29.7405006 0 0 2.88765 9.534506 5.91571 13.342288-1.5328-2.336797-1.30227-8.281988-1.30227-8.281988-.5662-8.259755.10696-12.818071 5.15943-18.9100963 3.64173 5.4541153 4.89373 8.9172263 13.775 1.8443913-2.48523 14.160487 14.44875 4.960109 23.48163 2.89398-4.03437 3.716864-9.30097 8.657786-10.28576 14.675728-.32808 2.007392 1.64257 4.742718 3.73728 6.780272-2.49846.591608-10.97339 2.357815-10.20318 6.937748.77046 4.579933 3.21191 3.144164.92591 4.042423-3.28163.731838-5.59712 1.47659-10.47523-.578427 0 0-7.97953-3.105986-12.53354-6.955543 6.24086 5.955166 17.52702 12.436626 17.52702 12.436626 7.51152 3.913182 19.55366 1.933101 22.11745-3.93561-3.90999-.32279-7.17646-1.236527-8.73089-3.050507 10.54902-1.998519 16.47519-8.899034 21.23783-17.21666-.0237-.592397-.0579-1.183225-.10911-1.770871-7.61442 4.10992-9.81212 3.816845-13.24931 3.451573 4.75977-1.925267 7.8769-9.297283 9.51772-17.349348-.29162-.6399093-.59243-1.2713874-.90785-1.8861648l1.39332-.7592015c1.14299-7.04720024 1.19182-14.2159085.24957-18.4194867z" fill="url(#g)" filter="url(#d)" transform="matrix(.99643093 -.08441653 .08440764 .99643093 -2.232173 23.868242)"/><path d="m283.5482 27.085508c-.5662-8.259763.1069-12.81774 5.15938-18.909771 3.64173 5.454121 4.89347 8.916987 13.77474 1.844145-2.48523 14.160501 14.4489 4.960144 23.48178 2.894013-4.03437 3.716867-9.3009 8.657961-10.28569 14.675909-.32808 2.007394 1.64254 4.742656 3.73725 6.780212-2.49846.591609-10.97334 2.357438-10.20313 6.937376.77046 4.579937 3.21204 3.144573.92604 4.042833-3.28163.731838-5.59753 1.476375-10.47565-.578644 0 0-11.60495-4.513473-14.81271-9.403834-1.5328-2.336799-1.30201-8.282239-1.30201-8.282239z" fill="url(#f)" filter="url(#d)" transform="matrix(.99643093 -.08441653 .08440764 .99643093 -2.232173 23.868242)"/></g></g><g><g stroke-width=".937849" transform="matrix(.25357545 .12372121 -.12369442 .25352051 37.215991 -8.180955)"><path d="m40.03911 99.465809c-3.855136-2.092382-9.081489-4.864504-14.03158-7.742585-5.474948-3.183243-16.570558-12.454718-19.140552-15.120868-3.8724233-4.329287-6.04535863-10.483299-6.18712033-16.290063 3.21743983-13.820085 16.57478133-30.483544 25.56501633-37.283772 10.594809-7.830329 24.067643-13.4974104 40.255017-16.7721184 5.755308-1.529062 11.989942 1.547093 16.50559 5.1244254 1.580751 1.747358 9.012506 10.376027 10.360348 13.330652 2.514389 5.511833 4.592727 12.013981 6.120167 15.36368.683214 1.918563 10.649404 16.205058 18.413264 30.505835 13.27307 22.503591 12.99425 24.60018-4.8029 42.397945-15.987787 21.8603-31.223642 10.38714-48.547053 1.26441-16.06678-8.46496-22.985671-13.74212-24.510197-14.777541z" fill="#c36e36"/><path d="m102.84466 66.661043c5.05249 8.528909 12.95051 20.023072 7.38696 28.807342-5.09799 6.044095-6.43309 7.795705-14.370697 13.742665-3.82936 3.42199-19.969409-2.591-29.124477-6.47595-17.733116-7.525048-37.334534-23.594331-48.217933-31.856533 14.881674-6.628078 27.680024-12.112384 38.881174-21.899902 8.204727-7.169255 19.715634-26.07174 19.715634-26.07174s19.155813 32.657619 25.729339 43.754118z" fill="url(#a)"/><path d="m68.602894 16.656548c-12.624283 1.66512-23.006765 4.621931-32.21328 11.312044-10.876312 7.903506-21.186905 20.572397-24.464143 32.067769 18.711407-2.892779 26.908217-9.837804 37.763845-18.768067 7.990291-6.573125 15.665144-14.074485 18.91401-24.611313l.000432.000433" fill="#deaa87" stroke-width=".937845"/></g><path d="m43.755789 42.96442c-5.853387 4.232445-10.865292 9.578411-13.635104 15.734145-4.982929 10.966763-4.816019 22.908117-.862853 33.311398 3.898785 9.071847 11.306728 16.392737 19.446654 20.435687 10.169442 4.55606 20.866184 5.17289 30.708628 1.86374 10.698559-4.12649 18.397926-11.08097 23.192236-20.644401 4.15427-9.103513 4.79982-18.432414 2.66438-27.469933-3.2705-11.904078-11.133118-20.478193-21.4204-26.092409-6.455181-3.30581-13.733829-4.362608-20.288631-3.940886l-2.456058-27.4539285s-10.153971 5.2760185-15.544803 7.1303625c-5.437525 1.870413-16.786686 3.975649-16.786686 3.975649z" fill="#7f8899" opacity=".125"/><path d="m1525.1702 305.18145c0-18.266 31.606-33.073 70.594-33.073s70.594 14.807 70.594 33.073c0 18.27-31.606 33.075-70.594 33.075s-70.594-14.805-70.594-33.075z" fill="#fff" filter="url(#b)" opacity=".5" transform="matrix(.21947654 0 0 .219429 -271.91029 -17.31499)"/><path d="m28.773161 19.813845 14.982637 23.150576c-5.853397 4.232445-10.865301 9.578411-13.635113 15.734145-4.982929 10.966763-4.81602 22.908112-.862853 33.311398 3.898785 9.071846 11.306728 16.392736 19.446654 20.435686 10.169451 4.55606 20.866183 5.17289 30.708637 1.86374 10.698559-4.12649 18.397925-11.08097 23.192237-20.644402 4.15427-9.103517 4.79981-18.432418 2.66438-27.469931-3.27051-11.904078-11.133128-20.478193-21.420411-26.092409-6.455171-3.305811-13.733829-4.362608-20.28863-3.940886l-2.456049-27.4539293s-10.153971 5.2760183-15.544803 7.1303623c-5.437525 1.870413-16.786686 3.97565-16.786686 3.97565zm28.712953-5.526396 2.358516 26.361531c7.689338-1.14366 15.784119-.213391 22.221387 3.108683 10.038311 5.661571 16.198844 13.070624 19.184203 23.483393 2.07094 8.605042 1.10116 17.563971-2.513997 24.935511-4.852003 8.968223-11.824801 15.267423-20.829705 18.436253-8.910988 2.73405-19.94346 2.56484-27.473651-1.70959-7.254165-4.24684-14.444144-10.327709-17.497551-18.158504-3.673775-9.421764-2.3401-21.597367.708208-30.327348 3.2215-7.161226 9.458251-12.869118 15.793271-16.222861l-14.371234-22.205161s8.034444-.965588 11.831232-2.273595c3.750347-1.292005 10.589321-5.428312 10.589321-5.428312z" fill="#7f8899"/></g></g></svg>