<svg height="500" viewBox="0 0 500 500" width="500" xmlns="http://www.w3.org/2000/svg" xmlns:xlink="http://www.w3.org/1999/xlink"><linearGradient id="a"><stop offset="0" stop-color="#655842"/><stop offset="1" stop-color="#705e3d"/></linearGradient><filter id="b" color-interpolation-filters="sRGB" height="1.005659" width="1.006808" x="-.003404" y="-.002829"><feGaussianBlur stdDeviation=".26645917"/></filter><filter id="c" color-interpolation-filters="sRGB" height="1.006573" width="1.006797" x="-.003398" y="-.003286"><feGaussianBlur stdDeviation=".26645917"/></filter><radialGradient id="d" cx="55.193054" cy="47.66674" gradientTransform="matrix(-.00000014 1.2793689 -1.7307147 .00000923 137.69061 -22.94597)" gradientUnits="userSpaceOnUse" r="66.145836"><stop offset="0" stop-color="#f6f3ee"/><stop offset=".38270059" stop-color="#e5e1d9"/><stop offset="1" stop-color="#c9c5bd"/></radialGradient><linearGradient id="e" gradientUnits="userSpaceOnUse" spreadMethod="reflect" x1="188.68857" x2="214.6069" xlink:href="#a" y1="561.3606" y2="583.45837"/><linearGradient id="f" gradientUnits="userSpaceOnUse" spreadMethod="reflect" x1="188.68857" x2="300.16681" xlink:href="#a" y1="561.3606" y2="565.76691"/><filter id="g" color-interpolation-filters="sRGB" height="1.178381" width="1.0395" x="-.01975" y="-.089191"><feGaussianBlur stdDeviation="2.1279985"/></filter><path d="m191.77344 71.011719a9.0009 9.0009 0 0 0 -8.98633 8.490234c-.27278 4.822443-.54236 14.325221-.84961 22.917967-.15299 4.27851-.31425 8.29552-.47656 11.22461-.41484.16365-.52204.30176-1.0625.42188-3.04731.67725-7.16859 1.20593-11.66407 3.18554-9.99098 4.39959-22.72768 8.41342-32.85156 18.44727-10.70748 10.61229-24.17968 24.91388-24.17968 44.64258v226.26562c-.00001 17.02074 7.65925 29.8684 17.2871 38.62305 9.62786 8.75464 20.92987 14.29485 29.99414 19.73633 27.61965 16.58067 60.86533 19.69489 90.92188 20.00976a9.0009 9.0009 0 0 0 .18945 0c30.05661-.31487 63.30096-3.42941 90.91992-20.00976 9.06425-5.4415 20.36629-10.98169 29.99415-19.73633 9.62785-8.75464 17.2871-21.6023 17.2871-38.62305v-226.26562c0-19.7287-13.4722-34.03029-24.17968-44.64258-10.12388-10.03385-22.86058-14.04768-32.85157-18.44727-4.49547-1.97961-8.61675-2.50829-11.66406-3.18554-.54046-.12012-.64766-.25823-1.0625-.42188-.16231-2.92909-.32357-6.9461-.47656-11.22461-.30725-8.592746-.57683-18.095524-.84961-22.917967a9.0009 9.0009 0 0 0 -8.98633-8.490234h-58.22656zm8.67187 18h49.55469 49.55469c.16826 4.616883.326 8.6385.51953 14.050781.15525 4.3417.31715 8.44318.49414 11.62695.0885 1.59189.17801 2.93973.28906 4.09375.0555.57702.10892 1.08712.21289 1.7168.052.31484.10883.64999.25 1.18164.14118.53165.005 1.08824 1.44727 3.10547a9.0009 9.0009 0 0 0 .002.004c4.4339 6.1949 9.2174 6.02305 12.92774 6.84765 3.71033.82461 7.15651 1.57689 8.3125 2.08594 11.00565 4.8464 21.2645 8.64359 27.43554 14.75976 10.07274 9.9832 18.85156 20.80257 18.85156 31.85743v226.26562c0 12.0852-4.31249 18.86338-11.39843 25.30664-7.08594 6.44327-17.24015 11.67212-27.14649 17.61914-22.87784 13.73414-52.91356 17.13071-81.75195 17.43946-28.83786-.30888-58.87414-3.70541-81.75195-17.43946-9.90634-5.94699-20.06055-11.17587-27.14649-17.61914-7.08593-6.44326-11.39844-13.22144-11.39844-25.30664v-226.26571c0-11.05486 8.77883-21.87423 18.85157-31.85743 6.17104-6.11617 16.42989-9.91336 27.43554-14.75976 1.15599-.50905 4.60217-1.26133 8.3125-2.08594 3.71034-.8246 8.49384-.65275 12.92774-6.84765a9.0009 9.0009 0 0 0 .002-.004c1.44208-2.01723 1.30609-2.57382 1.44727-3.10547.14117-.53165.19801-.8668.25-1.18164.10397-.62968.15736-1.13978.21289-1.7168.11105-1.15402.20056-2.50186.28906-4.09375.17699-3.18377.33889-7.28525.49414-11.62695.19353-5.412281.35127-9.433898.51953-14.050781z" fill="#7f8899" stroke-width=".999999"/><path d="m191.77247 80.010957c-.50539 8.934756-1.11504 38.497743-1.86133 39.541683-2.4156 3.375-11.89736 3.44689-17.54883 5.93555-10.49833 4.623-21.99593 8.528-30.1434 16.60302-10.39012 10.29775-21.51562 22.85821-21.51562 38.25v226.26562c0 29.10597 23.9423 39.2546 42.91293 50.64308 25.26135 15.16494 56.92296 18.4177 86.38475 18.72634 29.46179-.30864 61.12204-3.56167 86.38281-18.72634 18.9706-11.38853 42.91293-21.53711 42.91293-50.64308v-226.26562c0-15.39179-11.1255-27.95225-21.51562-38.25-8.14747-8.07502-19.64507-11.98002-30.1434-16.60302-5.65147-2.48866-15.13323-2.56055-17.54883-5.93555-.74629-1.04394-1.35594-30.606927-1.86133-39.541683h-58.22656z" fill="#7a99d3" opacity=".15" stroke-width="3.77952"/><g stroke-width="1.2915" transform="matrix(1 0 0 .59953129 0 87.897564)"><path d="m250 475.41715c-29.46176.12739-61.12149 1.46822-86.38281 7.72739-18.97061 4.70049-42.91407 8.89182-42.91407 20.90501v27.54882c0 48.54783 23.94346 65.47467 42.91407 84.47029 25.26132 25.29463 56.92105 30.72053 86.38281 31.23533 29.46176-.5148 61.12207-5.94115 86.38281-31.23533 18.97058-18.99571 42.91407-35.92246 42.91407-84.47029v-27.54882c0-12.01319-23.94349-16.20451-42.91407-20.90501-25.26074-6.25906-56.92105-7.6-86.38281-7.72739z" fill="url(#e)"/><g opacity=".75" stroke-width="25.9206" transform="matrix(.14581232 0 0 .24321053 203.76627 571.58213)"><circle cx="66.145836" cy="66.145836" fill="url(#d)" opacity="1" r="66.145836"/><g stroke-width="2.01105"><path d="m13.132809 80.90016c-5.2220396 15.90961 10.216134 35.22805 34.482038 43.1699 24.26591 7.94185 48.17954 1.48683 53.360123-14.4435 5.18059-15.93033-10.231673-35.228045-34.502763-43.1958-24.271082-7.967755-48.158802-1.466109-53.339398 14.4694z" fill="#c1b9aa" opacity=".32"/><path d="m22.416436 101.9541s29.783241 8.60497 64.436231-14.90457c33.015943-22.431979 16.857663-57.033171 24.716623-43.915905 7.85896 13.117265 20.53587 54.194205-21.193803 76.154745-38.05148 19.96601-67.959051-17.33427-67.959051-17.33427z" fill="#ece8e3" fill-opacity=".62" opacity="1"/><path d="m13.132809 80.90016c-5.2220396 15.90961 10.216134 35.22805 34.482038 43.1699 24.26591 7.94185 48.17954 1.48683 53.360123-14.4435 5.18059-15.93033-10.231673-35.228045-34.502763-43.1958-24.271082-7.967755-48.158802-1.466109-53.339398 14.4694z" fill="#c1b9aa" opacity=".32"/><path d="m106.4923 30.840075c3.62643 7.444513 2.02044 15.635034-3.56943 18.360026-5.589853 2.724994-13.008463-1.134549-16.608983-8.563522-3.60051-7.428972-1.99971-15.660939 3.56943-18.37039 5.56914-2.709449 13.018833 1.170816 16.608983 8.573886z" fill="#f6f5f5" fill-opacity=".5" opacity="1"/><path d="m113.74514 68.124815c.0415 5.429263-3.23788 9.843125-7.32536 9.843125-4.08749 0-7.434163-4.377598-7.449703-9.801681-.0157-5.424082 3.258593-9.84313 7.346103-9.884575 4.08748-.04145 7.42896 4.377602 7.42896 9.843131z" fill="#f6f5f5" fill-opacity=".5" opacity="1"/></g></g><g opacity=".75" stroke-width="25.9206" transform="matrix(.14581232 0 0 .24321053 221.57904 588.3081)"><circle cx="66.145836" cy="66.145836" fill="url(#d)" opacity="1" r="66.145836"/><g stroke-width="2.01105"><path d="m13.132809 80.90016c-5.2220396 15.90961 10.216134 35.22805 34.482038 43.1699 24.26591 7.94185 48.17954 1.48683 53.360123-14.4435 5.18059-15.93033-10.231673-35.228045-34.502763-43.1958-24.271082-7.967755-48.158802-1.466109-53.339398 14.4694z" fill="#c1b9aa" opacity=".32"/><path d="m22.416436 101.9541s29.783241 8.60497 64.436231-14.90457c33.015943-22.431979 16.857663-57.033171 24.716623-43.915905 7.85896 13.117265 20.53587 54.194205-21.193803 76.154745-38.05148 19.96601-67.959051-17.33427-67.959051-17.33427z" fill="#ece8e3" fill-opacity=".62" opacity="1"/><path d="m13.132809 80.90016c-5.2220396 15.90961 10.216134 35.22805 34.482038 43.1699 24.26591 7.94185 48.17954 1.48683 53.360123-14.4435 5.18059-15.93033-10.231673-35.228045-34.502763-43.1958-24.271082-7.967755-48.158802-1.466109-53.339398 14.4694z" fill="#c1b9aa" opacity=".32"/><path d="m106.4923 30.840075c3.62643 7.444513 2.02044 15.635034-3.56943 18.360026-5.589853 2.724994-13.008463-1.134549-16.608983-8.563522-3.60051-7.428972-1.99971-15.660939 3.56943-18.37039 5.56914-2.709449 13.018833 1.170816 16.608983 8.573886z" fill="#f6f5f5" fill-opacity=".5" opacity="1"/><path d="m113.74514 68.124815c.0415 5.429263-3.23788 9.843125-7.32536 9.843125-4.08749 0-7.434163-4.377598-7.449703-9.801681-.0157-5.424082 3.258593-9.84313 7.346103-9.884575 4.08748-.04145 7.42896 4.377602 7.42896 9.843131z" fill="#f6f5f5" fill-opacity=".5" opacity="1"/></g></g><g opacity=".75" stroke-width="13.6034" transform="matrix(.27783832 0 0 .4634259 256.59721 559.17544)"><circle cx="66.145836" cy="66.145836" fill="url(#d)" opacity="1" r="66.145836"/><g stroke-width="1.05542"><path d="m13.132809 80.90016c-5.2220396 15.90961 10.216134 35.22805 34.482038 43.1699 24.26591 7.94185 48.17954 1.48683 53.360123-14.4435 5.18059-15.93033-10.231673-35.228045-34.502763-43.1958-24.271082-7.967755-48.158802-1.466109-53.339398 14.4694z" fill="#c1b9aa" opacity=".32"/><path d="m22.416436 101.9541s29.783241 8.60497 64.436231-14.90457c33.015943-22.431979 16.857663-57.033171 24.716623-43.915905 7.85896 13.117265 20.53587 54.194205-21.193803 76.154745-38.05148 19.96601-67.959051-17.33427-67.959051-17.33427z" fill="#ece8e3" fill-opacity=".62" opacity="1"/><path d="m13.132809 80.90016c-5.2220396 15.90961 10.216134 35.22805 34.482038 43.1699 24.26591 7.94185 48.17954 1.48683 53.360123-14.4435 5.18059-15.93033-10.231673-35.228045-34.502763-43.1958-24.271082-7.967755-48.158802-1.466109-53.339398 14.4694z" fill="#c1b9aa" opacity=".32"/><path d="m106.4923 30.840075c3.62643 7.444513 2.02044 15.635034-3.56943 18.360026-5.589853 2.724994-13.008463-1.134549-16.608983-8.563522-3.60051-7.428972-1.99971-15.660939 3.56943-18.37039 5.56914-2.709449 13.018833 1.170816 16.608983 8.573886z" fill="#f6f5f5" fill-opacity=".5" opacity="1"/><path d="m113.74514 68.124815c.0415 5.429263-3.23788 9.843125-7.32536 9.843125-4.08749 0-7.434163-4.377598-7.449703-9.801681-.0157-5.424082 3.258593-9.84313 7.346103-9.884575 4.08748-.04145 7.42896 4.377602 7.42896 9.843131z" fill="#f6f5f5" fill-opacity=".5" opacity="1"/></g></g><g opacity=".75" stroke-width="25.9206" transform="matrix(.14581232 0 0 .24321053 318.56969 545.12182)"><circle cx="66.145836" cy="66.145836" fill="url(#d)" opacity="1" r="66.145836"/><g stroke-width="2.01105"><path d="m13.132809 80.90016c-5.2220396 15.90961 10.216134 35.22805 34.482038 43.1699 24.26591 7.94185 48.17954 1.48683 53.360123-14.4435 5.18059-15.93033-10.231673-35.228045-34.502763-43.1958-24.271082-7.967755-48.158802-1.466109-53.339398 14.4694z" fill="#c1b9aa" opacity=".32"/><path d="m22.416436 101.9541s29.783241 8.60497 64.436231-14.90457c33.015943-22.431979 16.857663-57.033171 24.716623-43.915905 7.85896 13.117265 20.53587 54.194205-21.193803 76.154745-38.05148 19.96601-67.959051-17.33427-67.959051-17.33427z" fill="#ece8e3" fill-opacity=".62" opacity="1"/><path d="m13.132809 80.90016c-5.2220396 15.90961 10.216134 35.22805 34.482038 43.1699 24.26591 7.94185 48.17954 1.48683 53.360123-14.4435 5.18059-15.93033-10.231673-35.228045-34.502763-43.1958-24.271082-7.967755-48.158802-1.466109-53.339398 14.4694z" fill="#c1b9aa" opacity=".32"/><path d="m106.4923 30.840075c3.62643 7.444513 2.02044 15.635034-3.56943 18.360026-5.589853 2.724994-13.008463-1.134549-16.608983-8.563522-3.60051-7.428972-1.99971-15.660939 3.56943-18.37039 5.56914-2.709449 13.018833 1.170816 16.608983 8.573886z" fill="#f6f5f5" fill-opacity=".5" opacity="1"/><path d="m113.74514 68.124815c.0415 5.429263-3.23788 9.843125-7.32536 9.843125-4.08749 0-7.434163-4.377598-7.449703-9.801681-.0157-5.424082 3.258593-9.84313 7.346103-9.884575 4.08748-.04145 7.42896 4.377602 7.42896 9.843131z" fill="#f6f5f5" fill-opacity=".5" opacity="1"/></g></g><path d="m250 475.41715c-29.46176.12739-61.12149 1.46822-86.38281 7.72739-18.97061 4.70049-42.91407 8.89182-42.91407 20.90501v27.54882c0 48.54783 23.94346 65.47467 42.91407 84.47029 25.26132 25.29463 56.92105 30.72053 86.38281 31.23533 29.46176-.5148 61.12207-5.94115 86.38281-31.23533 18.97058-18.99571 42.91407-35.92246 42.91407-84.47029v-27.54882c0-12.01319-23.94349-16.20451-42.91407-20.90501-25.26074-6.25906-56.92105-7.6-86.38281-7.72739z" fill="url(#e)" opacity=".5" transform="translate(-.000002)"/><path d="m336.38378 524.95098c-25.26077 6.25907-56.92102 7.60173-86.38281 7.72912-29.46179-.12739-61.1234-1.46994-86.38475-7.72912-18.97063-4.70049-42.91293-8.88923-42.91293-20.90243s23.9423-16.20194 42.91293-20.90243c25.26135-6.25918 56.92296-7.60173 86.38475-7.72912 29.46179.12739 61.12204 1.47005 86.38281 7.72912 18.9706 4.7005 42.91293 8.88923 42.91293 20.90243s-23.94233 16.20193-42.91293 20.90243z" fill="url(#f)"/><path d="m250 475.41715c-29.46176.12739-61.12149 1.46822-86.38281 7.72739-18.97061 4.70049-42.91407 8.89182-42.91407 20.90501 0 12.01318 23.94346 16.20125 42.91407 20.90174 25.26132 6.25917 56.92105 7.6 86.38281 7.72739.0334-.00014.0681-.003.10156-.003-25.8725-.13002-53.66373-1.4721-75.84375-7.72413-16.67568-4.70049-37.72265-8.88856-37.72265-20.90174 0-12.01319 21.04697-16.20452 37.72265-20.90501 22.18002-6.25202 49.97125-7.59411 75.84375-7.72413-.0334-.00015-.0681-.003-.10156-.003zm1.58203.0261c25.50469.16848 52.7306 1.55291 74.54297 7.70133 16.67564 4.7005 37.7207 8.89182 37.7207 20.90501 0 12.01318-21.04506 16.20124-37.7207 20.90174-21.81237 6.14843-49.03828 7.53285-74.54297 7.70133 29.0147-.16848 59.98655-1.5529 84.80078-7.70133 18.97058-4.7005 42.91407-8.88856 42.91407-20.90174 0-12.01319-23.94349-16.20451-42.91407-20.90501-24.81423-6.14842-55.78608-7.53285-84.80078-7.70133z" fill="#4a4336" filter="url(#g)"/><g opacity=".75" stroke-width="6.67735" transform="matrix(7.521946 0 0 12.546378 -284.40625 -346.32292)"><g transform="matrix(.06960548 0 0 .06960548 58.922481 59.587163)"><circle cx="66.145836" cy="66.145836" fill="url(#d)" opacity="1" r="66.145836"/><g stroke-width=".518059"><path d="m13.132809 80.90016c-5.2220396 15.90961 10.216134 35.22805 34.482038 43.1699 24.26591 7.94185 48.17954 1.48683 53.360123-14.4435 5.18059-15.93033-10.231673-35.228045-34.502763-43.1958-24.271082-7.967755-48.158802-1.466109-53.339398 14.4694z" fill="#cac4b8" fill-opacity=".37"/><path d="m22.416436 101.9541s29.783241 8.60497 64.436231-14.90457c33.015943-22.431979 16.857663-57.033171 24.716623-43.915905 7.85896 13.117265 20.53587 54.194205-21.193803 76.154745-38.05148 19.96601-67.959051-17.33427-67.959051-17.33427z" fill="#ece8e3" fill-opacity=".62"/><path d="m13.132809 80.90016c-5.2220396 15.90961 10.216134 35.22805 34.482038 43.1699 24.26591 7.94185 48.17954 1.48683 53.360123-14.4435 5.18059-15.93033-10.231673-35.228045-34.502763-43.1958-24.271082-7.967755-48.158802-1.466109-53.339398 14.4694z" fill="#c1b9aa" opacity=".32"/><path d="m106.4923 30.840075c3.62643 7.444513 2.02044 15.635034-3.56943 18.360026-5.589853 2.724994-13.008463-1.134549-16.608983-8.563522-3.60051-7.428972-1.99971-15.660939 3.56943-18.37039 5.56914-2.709449 13.018833 1.170816 16.608983 8.573886z" fill="#f6f5f5" fill-opacity=".5"/><path d="m113.74514 68.124815c.0415 5.429263-3.23788 9.843125-7.32536 9.843125-4.08749 0-7.434163-4.377598-7.449703-9.801681-.0157-5.424082 3.258593-9.84313 7.346103-9.884575 4.08748-.04145 7.42896 4.377602 7.42896 9.843131z" fill="#f6f5f5" fill-opacity=".5"/></g></g><g transform="matrix(.06960548 0 0 .06960548 71.317986 60.03919)"><circle cx="66.145836" cy="66.145836" fill="url(#d)" opacity="1" r="66.145836"/><g stroke-width=".518059"><path d="m13.132809 80.90016c-5.2220396 15.90961 10.216134 35.22805 34.482038 43.1699 24.26591 7.94185 48.17954 1.48683 53.360123-14.4435 5.18059-15.93033-10.231673-35.228045-34.502763-43.1958-24.271082-7.967755-48.158802-1.466109-53.339398 14.4694z" fill="#cac4b8" fill-opacity=".37"/><path d="m22.416436 101.9541s29.783241 8.60497 64.436231-14.90457c33.015943-22.431979 16.857663-57.033171 24.716623-43.915905 7.85896 13.117265 20.53587 54.194205-21.193803 76.154745-38.05148 19.96601-67.959051-17.33427-67.959051-17.33427z" fill="#ece8e3" fill-opacity=".62"/><path d="m13.132809 80.90016c-5.2220396 15.90961 10.216134 35.22805 34.482038 43.1699 24.26591 7.94185 48.17954 1.48683 53.360123-14.4435 5.18059-15.93033-10.231673-35.228045-34.502763-43.1958-24.271082-7.967755-48.158802-1.466109-53.339398 14.4694z" fill="#c1b9aa" opacity=".32"/><path d="m106.4923 30.840075c3.62643 7.444513 2.02044 15.635034-3.56943 18.360026-5.589853 2.724994-13.008463-1.134549-16.608983-8.563522-3.60051-7.428972-1.99971-15.660939 3.56943-18.37039 5.56914-2.709449 13.018833 1.170816 16.608983 8.573886z" fill="#f6f5f5" fill-opacity=".5"/><path d="m113.74514 68.124815c.0415 5.429263-3.23788 9.843125-7.32536 9.843125-4.08749 0-7.434163-4.377598-7.449703-9.801681-.0157-5.424082 3.258593-9.84313 7.346103-9.884575 4.08748-.04145 7.42896 4.377602 7.42896 9.843131z" fill="#f6f5f5" fill-opacity=".5"/></g></g><g transform="matrix(.06960548 0 0 .06960548 62.159219 60.954213)"><circle cx="66.145836" cy="66.145836" fill="url(#d)" opacity="1" r="66.145836"/><g stroke-width=".518059"><path d="m13.132809 80.90016c-5.2220396 15.90961 10.216134 35.22805 34.482038 43.1699 24.26591 7.94185 48.17954 1.48683 53.360123-14.4435 5.18059-15.93033-10.231673-35.228045-34.502763-43.1958-24.271082-7.967755-48.158802-1.466109-53.339398 14.4694z" fill="#cac4b8" fill-opacity=".37"/><path d="m22.416436 101.9541s29.783241 8.60497 64.436231-14.90457c33.015943-22.431979 16.857663-57.033171 24.716623-43.915905 7.85896 13.117265 20.53587 54.194205-21.193803 76.154745-38.05148 19.96601-67.959051-17.33427-67.959051-17.33427z" fill="#ece8e3" fill-opacity=".62"/><path d="m13.132809 80.90016c-5.2220396 15.90961 10.216134 35.22805 34.482038 43.1699 24.26591 7.94185 48.17954 1.48683 53.360123-14.4435 5.18059-15.93033-10.231673-35.228045-34.502763-43.1958-24.271082-7.967755-48.158802-1.466109-53.339398 14.4694z" fill="#c1b9aa" opacity=".32"/><path d="m106.4923 30.840075c3.62643 7.444513 2.02044 15.635034-3.56943 18.360026-5.589853 2.724994-13.008463-1.134549-16.608983-8.563522-3.60051-7.428972-1.99971-15.660939 3.56943-18.37039 5.56914-2.709449 13.018833 1.170816 16.608983 8.573886z" fill="#f6f5f5" fill-opacity=".5"/><path d="m113.74514 68.124815c.0415 5.429263-3.23788 9.843125-7.32536 9.843125-4.08749 0-7.434163-4.377598-7.449703-9.801681-.0157-5.424082 3.258593-9.84313 7.346103-9.884575 4.08748-.04145 7.42896 4.377602 7.42896 9.843131z" fill="#f6f5f5" fill-opacity=".5"/></g></g><g transform="matrix(.0284044 0 0 .0284044 54.069121 65.088707)"><circle cx="66.145836" cy="66.145836" fill="url(#d)" opacity="1" r="66.145836"/><g stroke-width=".518059"><path d="m13.132809 80.90016c-5.2220396 15.90961 10.216134 35.22805 34.482038 43.1699 24.26591 7.94185 48.17954 1.48683 53.360123-14.4435 5.18059-15.93033-10.231673-35.228045-34.502763-43.1958-24.271082-7.967755-48.158802-1.466109-53.339398 14.4694z" fill="#cac4b8" fill-opacity=".37"/><path d="m22.416436 101.9541s29.783241 8.60497 64.436231-14.90457c33.015943-22.431979 16.857663-57.033171 24.716623-43.915905 7.85896 13.117265 20.53587 54.194205-21.193803 76.154745-38.05148 19.96601-67.959051-17.33427-67.959051-17.33427z" fill="#ece8e3" fill-opacity=".62"/><path d="m13.132809 80.90016c-5.2220396 15.90961 10.216134 35.22805 34.482038 43.1699 24.26591 7.94185 48.17954 1.48683 53.360123-14.4435 5.18059-15.93033-10.231673-35.228045-34.502763-43.1958-24.271082-7.967755-48.158802-1.466109-53.339398 14.4694z" fill="#c1b9aa" opacity=".32"/><path d="m106.4923 30.840075c3.62643 7.444513 2.02044 15.635034-3.56943 18.360026-5.589853 2.724994-13.008463-1.134549-16.608983-8.563522-3.60051-7.428972-1.99971-15.660939 3.56943-18.37039 5.56914-2.709449 13.018833 1.170816 16.608983 8.573886z" fill="#f6f5f5" fill-opacity=".5"/><path d="m113.74514 68.124815c.0415 5.429263-3.23788 9.843125-7.32536 9.843125-4.08749 0-7.434163-4.377598-7.449703-9.801681-.0157-5.424082 3.258593-9.84313 7.346103-9.884575 4.08748-.04145 7.42896 4.377602 7.42896 9.843131z" fill="#f6f5f5" fill-opacity=".5"/></g></g><g transform="matrix(.01930289 0 0 .01930289 63.925365 67.72108)"><circle cx="66.145836" cy="66.145836" fill="url(#d)" opacity="1" r="66.145836"/><g stroke-width=".518059"><path d="m13.132809 80.90016c-5.2220396 15.90961 10.216134 35.22805 34.482038 43.1699 24.26591 7.94185 48.17954 1.48683 53.360123-14.4435 5.18059-15.93033-10.231673-35.228045-34.502763-43.1958-24.271082-7.967755-48.158802-1.466109-53.339398 14.4694z" fill="#cac4b8" fill-opacity=".37"/><path d="m22.416436 101.9541s29.783241 8.60497 64.436231-14.90457c33.015943-22.431979 16.857663-57.033171 24.716623-43.915905 7.85896 13.117265 20.53587 54.194205-21.193803 76.154745-38.05148 19.96601-67.959051-17.33427-67.959051-17.33427z" fill="#ece8e3" fill-opacity=".62"/><path d="m13.132809 80.90016c-5.2220396 15.90961 10.216134 35.22805 34.482038 43.1699 24.26591 7.94185 48.17954 1.48683 53.360123-14.4435 5.18059-15.93033-10.231673-35.228045-34.502763-43.1958-24.271082-7.967755-48.158802-1.466109-53.339398 14.4694z" fill="#c1b9aa" opacity=".32"/><path d="m106.4923 30.840075c3.62643 7.444513 2.02044 15.635034-3.56943 18.360026-5.589853 2.724994-13.008463-1.134549-16.608983-8.563522-3.60051-7.428972-1.99971-15.660939 3.56943-18.37039 5.56914-2.709449 13.018833 1.170816 16.608983 8.573886z" fill="#f6f5f5" fill-opacity=".5"/><path d="m113.74514 68.124815c.0415 5.429263-3.23788 9.843125-7.32536 9.843125-4.08749 0-7.434163-4.377598-7.449703-9.801681-.0157-5.424082 3.258593-9.84313 7.346103-9.884575 4.08748-.04145 7.42896 4.377602 7.42896 9.843131z" fill="#f6f5f5" fill-opacity=".5"/></g></g><g transform="matrix(.01930289 0 0 .01930289 57.706875 65.035398)"><circle cx="66.145836" cy="66.145836" fill="url(#d)" opacity="1" r="66.145836"/><g stroke-width=".518059"><path d="m13.132809 80.90016c-5.2220396 15.90961 10.216134 35.22805 34.482038 43.1699 24.26591 7.94185 48.17954 1.48683 53.360123-14.4435 5.18059-15.93033-10.231673-35.228045-34.502763-43.1958-24.271082-7.967755-48.158802-1.466109-53.339398 14.4694z" fill="#cac4b8" fill-opacity=".37"/><path d="m22.416436 101.9541s29.783241 8.60497 64.436231-14.90457c33.015943-22.431979 16.857663-57.033171 24.716623-43.915905 7.85896 13.117265 20.53587 54.194205-21.193803 76.154745-38.05148 19.96601-67.959051-17.33427-67.959051-17.33427z" fill="#ece8e3" fill-opacity=".62"/><path d="m13.132809 80.90016c-5.2220396 15.90961 10.216134 35.22805 34.482038 43.1699 24.26591 7.94185 48.17954 1.48683 53.360123-14.4435 5.18059-15.93033-10.231673-35.228045-34.502763-43.1958-24.271082-7.967755-48.158802-1.466109-53.339398 14.4694z" fill="#c1b9aa" opacity=".32"/><path d="m106.4923 30.840075c3.62643 7.444513 2.02044 15.635034-3.56943 18.360026-5.589853 2.724994-13.008463-1.134549-16.608983-8.563522-3.60051-7.428972-1.99971-15.660939 3.56943-18.37039 5.56914-2.709449 13.018833 1.170816 16.608983 8.573886z" fill="#f6f5f5" fill-opacity=".5"/><path d="m113.74514 68.124815c.0415 5.429263-3.23788 9.843125-7.32536 9.843125-4.08749 0-7.434163-4.377598-7.449703-9.801681-.0157-5.424082 3.258593-9.84313 7.346103-9.884575 4.08748-.04145 7.42896 4.377602 7.42896 9.843131z" fill="#f6f5f5" fill-opacity=".5"/></g></g><g transform="matrix(.01930289 0 0 .01930289 83.530423 65.235144)"><circle cx="66.145836" cy="66.145836" fill="url(#d)" opacity="1" r="66.145836"/><g stroke-width=".518059"><path d="m13.132809 80.90016c-5.2220396 15.90961 10.216134 35.22805 34.482038 43.1699 24.26591 7.94185 48.17954 1.48683 53.360123-14.4435 5.18059-15.93033-10.231673-35.228045-34.502763-43.1958-24.271082-7.967755-48.158802-1.466109-53.339398 14.4694z" fill="#cac4b8" fill-opacity=".37"/><path d="m22.416436 101.9541s29.783241 8.60497 64.436231-14.90457c33.015943-22.431979 16.857663-57.033171 24.716623-43.915905 7.85896 13.117265 20.53587 54.194205-21.193803 76.154745-38.05148 19.96601-67.959051-17.33427-67.959051-17.33427z" fill="#ece8e3" fill-opacity=".62"/><path d="m13.132809 80.90016c-5.2220396 15.90961 10.216134 35.22805 34.482038 43.1699 24.26591 7.94185 48.17954 1.48683 53.360123-14.4435 5.18059-15.93033-10.231673-35.228045-34.502763-43.1958-24.271082-7.967755-48.158802-1.466109-53.339398 14.4694z" fill="#c1b9aa" opacity=".32"/><path d="m106.4923 30.840075c3.62643 7.444513 2.02044 15.635034-3.56943 18.360026-5.589853 2.724994-13.008463-1.134549-16.608983-8.563522-3.60051-7.428972-1.99971-15.660939 3.56943-18.37039 5.56914-2.709449 13.018833 1.170816 16.608983 8.573886z" fill="#f6f5f5" fill-opacity=".5"/><path d="m113.74514 68.124815c.0415 5.429263-3.23788 9.843125-7.32536 9.843125-4.08749 0-7.434163-4.377598-7.449703-9.801681-.0157-5.424082 3.258593-9.84313 7.346103-9.884575 4.08748-.04145 7.42896 4.377602 7.42896 9.843131z" fill="#f6f5f5" fill-opacity=".5"/></g></g><g transform="matrix(.01930289 0 0 .01930289 77.608615 67.065509)"><circle cx="66.145836" cy="66.145836" fill="url(#d)" opacity="1" r="66.145836"/><g stroke-width=".518059"><path d="m13.132809 80.90016c-5.2220396 15.90961 10.216134 35.22805 34.482038 43.1699 24.26591 7.94185 48.17954 1.48683 53.360123-14.4435 5.18059-15.93033-10.231673-35.228045-34.502763-43.1958-24.271082-7.967755-48.158802-1.466109-53.339398 14.4694z" fill="#cac4b8" fill-opacity=".37"/><path d="m22.416436 101.9541s29.783241 8.60497 64.436231-14.90457c33.015943-22.431979 16.857663-57.033171 24.716623-43.915905 7.85896 13.117265 20.53587 54.194205-21.193803 76.154745-38.05148 19.96601-67.959051-17.33427-67.959051-17.33427z" fill="#ece8e3" fill-opacity=".62"/><path d="m13.132809 80.90016c-5.2220396 15.90961 10.216134 35.22805 34.482038 43.1699 24.26591 7.94185 48.17954 1.48683 53.360123-14.4435 5.18059-15.93033-10.231673-35.228045-34.502763-43.1958-24.271082-7.967755-48.158802-1.466109-53.339398 14.4694z" fill="#c1b9aa" opacity=".32"/><path d="m106.4923 30.840075c3.62643 7.444513 2.02044 15.635034-3.56943 18.360026-5.589853 2.724994-13.008463-1.134549-16.608983-8.563522-3.60051-7.428972-1.99971-15.660939 3.56943-18.37039 5.56914-2.709449 13.018833 1.170816 16.608983 8.573886z" fill="#f6f5f5" fill-opacity=".5"/><path d="m113.74514 68.124815c.0415 5.429263-3.23788 9.843125-7.32536 9.843125-4.08749 0-7.434163-4.377598-7.449703-9.801681-.0157-5.424082 3.258593-9.84313 7.346103-9.884575 4.08748-.04145 7.42896 4.377602 7.42896 9.843131z" fill="#f6f5f5" fill-opacity=".5"/></g></g><g transform="matrix(.02923976 0 0 .02923976 79.77857 64.338924)"><circle cx="66.145836" cy="66.145836" fill="url(#d)" opacity="1" r="66.145836"/><g stroke-width=".518059"><path d="m13.132809 80.90016c-5.2220396 15.90961 10.216134 35.22805 34.482038 43.1699 24.26591 7.94185 48.17954 1.48683 53.360123-14.4435 5.18059-15.93033-10.231673-35.228045-34.502763-43.1958-24.271082-7.967755-48.158802-1.466109-53.339398 14.4694z" fill="#cac4b8" fill-opacity=".37"/><path d="m22.416436 101.9541s29.783241 8.60497 64.436231-14.90457c33.015943-22.431979 16.857663-57.033171 24.716623-43.915905 7.85896 13.117265 20.53587 54.194205-21.193803 76.154745-38.05148 19.96601-67.959051-17.33427-67.959051-17.33427z" fill="#ece8e3" fill-opacity=".62"/><path d="m13.132809 80.90016c-5.2220396 15.90961 10.216134 35.22805 34.482038 43.1699 24.26591 7.94185 48.17954 1.48683 53.360123-14.4435 5.18059-15.93033-10.231673-35.228045-34.502763-43.1958-24.271082-7.967755-48.158802-1.466109-53.339398 14.4694z" fill="#c1b9aa" opacity=".32"/><path d="m106.4923 30.840075c3.62643 7.444513 2.02044 15.635034-3.56943 18.360026-5.589853 2.724994-13.008463-1.134549-16.608983-8.563522-3.60051-7.428972-1.99971-15.660939 3.56943-18.37039 5.56914-2.709449 13.018833 1.170816 16.608983 8.573886z" fill="#f6f5f5" fill-opacity=".5"/><path d="m113.74514 68.124815c.0415 5.429263-3.23788 9.843125-7.32536 9.843125-4.08749 0-7.434163-4.377598-7.449703-9.801681-.0157-5.424082 3.258593-9.84313 7.346103-9.884575 4.08748-.04145 7.42896 4.377602 7.42896 9.843131z" fill="#f6f5f5" fill-opacity=".5"/></g></g><g transform="matrix(.04804979 0 0 .04804979 68.009981 64.043889)"><circle cx="66.145836" cy="66.145836" fill="url(#d)" opacity="1" r="66.145836"/><g stroke-width=".518059"><path d="m13.132809 80.90016c-5.2220396 15.90961 10.216134 35.22805 34.482038 43.1699 24.26591 7.94185 48.17954 1.48683 53.360123-14.4435 5.18059-15.93033-10.231673-35.228045-34.502763-43.1958-24.271082-7.967755-48.158802-1.466109-53.339398 14.4694z" fill="#cac4b8" fill-opacity=".37"/><path d="m22.416436 101.9541s29.783241 8.60497 64.436231-14.90457c33.015943-22.431979 16.857663-57.033171 24.716623-43.915905 7.85896 13.117265 20.53587 54.194205-21.193803 76.154745-38.05148 19.96601-67.959051-17.33427-67.959051-17.33427z" fill="#ece8e3" fill-opacity=".62"/><path d="m13.132809 80.90016c-5.2220396 15.90961 10.216134 35.22805 34.482038 43.1699 24.26591 7.94185 48.17954 1.48683 53.360123-14.4435 5.18059-15.93033-10.231673-35.228045-34.502763-43.1958-24.271082-7.967755-48.158802-1.466109-53.339398 14.4694z" fill="#c1b9aa" opacity=".32"/><path d="m106.4923 30.840075c3.62643 7.444513 2.02044 15.635034-3.56943 18.360026-5.589853 2.724994-13.008463-1.134549-16.608983-8.563522-3.60051-7.428972-1.99971-15.660939 3.56943-18.37039 5.56914-2.709449 13.018833 1.170816 16.608983 8.573886z" fill="#f6f5f5" fill-opacity=".5"/><path d="m113.74514 68.124815c.0415 5.429263-3.23788 9.843125-7.32536 9.843125-4.08749 0-7.434163-4.377598-7.449703-9.801681-.0157-5.424082 3.258593-9.84313 7.346103-9.884575 4.08748-.04145 7.42896 4.377602 7.42896 9.843131z" fill="#f6f5f5" fill-opacity=".5"/></g></g><g transform="matrix(.03605603 0 0 .03605603 59.067269 65.204054)"><circle cx="66.145836" cy="66.145836" fill="url(#d)" opacity="1" r="66.145836"/><g stroke-width=".518059"><path d="m13.132809 80.90016c-5.2220396 15.90961 10.216134 35.22805 34.482038 43.1699 24.26591 7.94185 48.17954 1.48683 53.360123-14.4435 5.18059-15.93033-10.231673-35.228045-34.502763-43.1958-24.271082-7.967755-48.158802-1.466109-53.339398 14.4694z" fill="#cac4b8" fill-opacity=".37"/><path d="m22.416436 101.9541s29.783241 8.60497 64.436231-14.90457c33.015943-22.431979 16.857663-57.033171 24.716623-43.915905 7.85896 13.117265 20.53587 54.194205-21.193803 76.154745-38.05148 19.96601-67.959051-17.33427-67.959051-17.33427z" fill="#ece8e3" fill-opacity=".62"/><path d="m13.132809 80.90016c-5.2220396 15.90961 10.216134 35.22805 34.482038 43.1699 24.26591 7.94185 48.17954 1.48683 53.360123-14.4435 5.18059-15.93033-10.231673-35.228045-34.502763-43.1958-24.271082-7.967755-48.158802-1.466109-53.339398 14.4694z" fill="#c1b9aa" opacity=".32"/><path d="m106.4923 30.840075c3.62643 7.444513 2.02044 15.635034-3.56943 18.360026-5.589853 2.724994-13.008463-1.134549-16.608983-8.563522-3.60051-7.428972-1.99971-15.660939 3.56943-18.37039 5.56914-2.709449 13.018833 1.170816 16.608983 8.573886z" fill="#f6f5f5" fill-opacity=".5"/><path d="m113.74514 68.124815c.0415 5.429263-3.23788 9.843125-7.32536 9.843125-4.08749 0-7.434163-4.377598-7.449703-9.801681-.0157-5.424082 3.258593-9.84313 7.346103-9.884575 4.08748-.04145 7.42896 4.377602 7.42896 9.843131z" fill="#f6f5f5" fill-opacity=".5"/></g></g></g><g opacity=".75" stroke-width="18.1513" transform="matrix(.2082246 0 0 .34731232359 186.16538 147.55316668291)"><circle cx="66.145836" cy="66.145836" fill="url(#d)" opacity="1" r="66.145836"/><g stroke-width="1.40826"><path d="m13.132809 80.90016c-5.2220396 15.90961 10.216134 35.22805 34.482038 43.1699 24.26591 7.94185 48.17954 1.48683 53.360123-14.4435 5.18059-15.93033-10.231673-35.228045-34.502763-43.1958-24.271082-7.967755-48.158802-1.466109-53.339398 14.4694z" fill="#c1b9aa" opacity=".32"/><path d="m22.416436 101.9541s29.783241 8.60497 64.436231-14.90457c33.015943-22.431979 16.857663-57.033171 24.716623-43.915905 7.85896 13.117265 20.53587 54.194205-21.193803 76.154745-38.05148 19.96601-67.959051-17.33427-67.959051-17.33427z" fill="#ece8e3" fill-opacity=".62" opacity="1"/><path d="m13.132809 80.90016c-5.2220396 15.90961 10.216134 35.22805 34.482038 43.1699 24.26591 7.94185 48.17954 1.48683 53.360123-14.4435 5.18059-15.93033-10.231673-35.228045-34.502763-43.1958-24.271082-7.967755-48.158802-1.466109-53.339398 14.4694z" fill="#c1b9aa" opacity=".32"/><path d="m106.4923 30.840075c3.62643 7.444513 2.02044 15.635034-3.56943 18.360026-5.589853 2.724994-13.008463-1.134549-16.608983-8.563522-3.60051-7.428972-1.99971-15.660939 3.56943-18.37039 5.56914-2.709449 13.018833 1.170816 16.608983 8.573886z" fill="#f6f5f5" fill-opacity=".5" opacity="1"/><path d="m113.74514 68.124815c.0415 5.429263-3.23788 9.843125-7.32536 9.843125-4.08749 0-7.434163-4.377598-7.449703-9.801681-.0157-5.424082 3.258593-9.84313 7.346103-9.884575 4.08748-.04145 7.42896 4.377602 7.42896 9.843131z" fill="#f6f5f5" fill-opacity=".5" opacity="1"/></g></g><g opacity=".75" stroke-width="17.1621" transform="matrix(.22022698 0 0 .36733192976 161.83218 199.2636133614)"><circle cx="66.145836" cy="66.145836" fill="url(#d)" opacity="1" r="66.145836"/><g stroke-width="1.33151"><path d="m13.132809 80.90016c-5.2220396 15.90961 10.216134 35.22805 34.482038 43.1699 24.26591 7.94185 48.17954 1.48683 53.360123-14.4435 5.18059-15.93033-10.231673-35.228045-34.502763-43.1958-24.271082-7.967755-48.158802-1.466109-53.339398 14.4694z" fill="#c1b9aa" opacity=".32"/><path d="m22.416436 101.9541s29.783241 8.60497 64.436231-14.90457c33.015943-22.431979 16.857663-57.033171 24.716623-43.915905 7.85896 13.117265 20.53587 54.194205-21.193803 76.154745-38.05148 19.96601-67.959051-17.33427-67.959051-17.33427z" fill="#ece8e3" fill-opacity=".62" opacity="1"/><path d="m13.132809 80.90016c-5.2220396 15.90961 10.216134 35.22805 34.482038 43.1699 24.26591 7.94185 48.17954 1.48683 53.360123-14.4435 5.18059-15.93033-10.231673-35.228045-34.502763-43.1958-24.271082-7.967755-48.158802-1.466109-53.339398 14.4694z" fill="#c1b9aa" opacity=".32"/><path d="m106.4923 30.840075c3.62643 7.444513 2.02044 15.635034-3.56943 18.360026-5.589853 2.724994-13.008463-1.134549-16.608983-8.563522-3.60051-7.428972-1.99971-15.660939 3.56943-18.37039 5.56914-2.709449 13.018833 1.170816 16.608983 8.573886z" fill="#f6f5f5" fill-opacity=".5" opacity="1"/><path d="m113.74514 68.124815c.0415 5.429263-3.23788 9.843125-7.32536 9.843125-4.08749 0-7.434163-4.377598-7.449703-9.801681-.0157-5.424082 3.258593-9.84313 7.346103-9.884575 4.08748-.04145 7.42896 4.377602 7.42896 9.843131z" fill="#f6f5f5" fill-opacity=".5" opacity="1"/></g></g><g opacity=".75" stroke-width="18.1513" transform="matrix(.2082246 0 0 .34731232359 317.82875 235.96593555444)"><circle cx="66.145836" cy="66.145836" fill="url(#d)" opacity="1" r="66.145836"/><g stroke-width="1.40826"><path d="m13.132809 80.90016c-5.2220396 15.90961 10.216134 35.22805 34.482038 43.1699 24.26591 7.94185 48.17954 1.48683 53.360123-14.4435 5.18059-15.93033-10.231673-35.228045-34.502763-43.1958-24.271082-7.967755-48.158802-1.466109-53.339398 14.4694z" fill="#c1b9aa" opacity=".32"/><path d="m22.416436 101.9541s29.783241 8.60497 64.436231-14.90457c33.015943-22.431979 16.857663-57.033171 24.716623-43.915905 7.85896 13.117265 20.53587 54.194205-21.193803 76.154745-38.05148 19.96601-67.959051-17.33427-67.959051-17.33427z" fill="#ece8e3" fill-opacity=".62" opacity="1"/><path d="m13.132809 80.90016c-5.2220396 15.90961 10.216134 35.22805 34.482038 43.1699 24.26591 7.94185 48.17954 1.48683 53.360123-14.4435 5.18059-15.93033-10.231673-35.228045-34.502763-43.1958-24.271082-7.967755-48.158802-1.466109-53.339398 14.4694z" fill="#c1b9aa" opacity=".32"/><path d="m106.4923 30.840075c3.62643 7.444513 2.02044 15.635034-3.56943 18.360026-5.589853 2.724994-13.008463-1.134549-16.608983-8.563522-3.60051-7.428972-1.99971-15.660939 3.56943-18.37039 5.56914-2.709449 13.018833 1.170816 16.608983 8.573886z" fill="#f6f5f5" fill-opacity=".5" opacity="1"/><path d="m113.74514 68.124815c.0415 5.429263-3.23788 9.843125-7.32536 9.843125-4.08749 0-7.434163-4.377598-7.449703-9.801681-.0157-5.424082 3.258593-9.84313 7.346103-9.884575 4.08748-.04145 7.42896 4.377602 7.42896 9.843131z" fill="#f6f5f5" fill-opacity=".5" opacity="1"/></g></g><g opacity=".75" stroke-width="18.1513" transform="matrix(.2082246 0 0 .34731232359 327.70418 328.5056951359)"><circle cx="66.145836" cy="66.145836" fill="url(#d)" opacity="1" r="66.145836"/><g stroke-width="1.40826"><path d="m13.132809 80.90016c-5.2220396 15.90961 10.216134 35.22805 34.482038 43.1699 24.26591 7.94185 48.17954 1.48683 53.360123-14.4435 5.18059-15.93033-10.231673-35.228045-34.502763-43.1958-24.271082-7.967755-48.158802-1.466109-53.339398 14.4694z" fill="#c1b9aa" opacity=".32"/><path d="m22.416436 101.9541s29.783241 8.60497 64.436231-14.90457c33.015943-22.431979 16.857663-57.033171 24.716623-43.915905 7.85896 13.117265 20.53587 54.194205-21.193803 76.154745-38.05148 19.96601-67.959051-17.33427-67.959051-17.33427z" fill="#ece8e3" fill-opacity=".62" opacity="1"/><path d="m13.132809 80.90016c-5.2220396 15.90961 10.216134 35.22805 34.482038 43.1699 24.26591 7.94185 48.17954 1.48683 53.360123-14.4435 5.18059-15.93033-10.231673-35.228045-34.502763-43.1958-24.271082-7.967755-48.158802-1.466109-53.339398 14.4694z" fill="#c1b9aa" opacity=".32"/><path d="m106.4923 30.840075c3.62643 7.444513 2.02044 15.635034-3.56943 18.360026-5.589853 2.724994-13.008463-1.134549-16.608983-8.563522-3.60051-7.428972-1.99971-15.660939 3.56943-18.37039 5.56914-2.709449 13.018833 1.170816 16.608983 8.573886z" fill="#f6f5f5" fill-opacity=".5" opacity="1"/><path d="m113.74514 68.124815c.0415 5.429263-3.23788 9.843125-7.32536 9.843125-4.08749 0-7.434163-4.377598-7.449703-9.801681-.0157-5.424082 3.258593-9.84313 7.346103-9.884575 4.08748-.04145 7.42896 4.377602 7.42896 9.843131z" fill="#f6f5f5" fill-opacity=".5" opacity="1"/></g></g><g opacity=".75" stroke-width="25.9206" transform="matrix(.14581232 0 0 .24321053165 320.29309 374.77672582572)"><circle cx="66.145836" cy="66.145836" fill="url(#d)" opacity="1" r="66.145836"/><g stroke-width="2.01105"><path d="m13.132809 80.90016c-5.2220396 15.90961 10.216134 35.22805 34.482038 43.1699 24.26591 7.94185 48.17954 1.48683 53.360123-14.4435 5.18059-15.93033-10.231673-35.228045-34.502763-43.1958-24.271082-7.967755-48.158802-1.466109-53.339398 14.4694z" fill="#c1b9aa" opacity=".32"/><path d="m22.416436 101.9541s29.783241 8.60497 64.436231-14.90457c33.015943-22.431979 16.857663-57.033171 24.716623-43.915905 7.85896 13.117265 20.53587 54.194205-21.193803 76.154745-38.05148 19.96601-67.959051-17.33427-67.959051-17.33427z" fill="#ece8e3" fill-opacity=".62" opacity="1"/><path d="m13.132809 80.90016c-5.2220396 15.90961 10.216134 35.22805 34.482038 43.1699 24.26591 7.94185 48.17954 1.48683 53.360123-14.4435 5.18059-15.93033-10.231673-35.228045-34.502763-43.1958-24.271082-7.967755-48.158802-1.466109-53.339398 14.4694z" fill="#c1b9aa" opacity=".32"/><path d="m106.4923 30.840075c3.62643 7.444513 2.02044 15.635034-3.56943 18.360026-5.589853 2.724994-13.008463-1.134549-16.608983-8.563522-3.60051-7.428972-1.99971-15.660939 3.56943-18.37039 5.56914-2.709449 13.018833 1.170816 16.608983 8.573886z" fill="#f6f5f5" fill-opacity=".5" opacity="1"/><path d="m113.74514 68.124815c.0415 5.429263-3.23788 9.843125-7.32536 9.843125-4.08749 0-7.434163-4.377598-7.449703-9.801681-.0157-5.424082 3.258593-9.84313 7.346103-9.884575 4.08748-.04145 7.42896 4.377602 7.42896 9.843131z" fill="#f6f5f5" fill-opacity=".5" opacity="1"/></g></g><g opacity=".75" stroke-width="35.1897" transform="matrix(.10740476 0 0 .17914788532 352.79162 309.43699849398)"><circle cx="66.145836" cy="66.145836" fill="url(#d)" opacity="1" r="66.145836"/><g stroke-width="2.73019"><path d="m13.132809 80.90016c-5.2220396 15.90961 10.216134 35.22805 34.482038 43.1699 24.26591 7.94185 48.17954 1.48683 53.360123-14.4435 5.18059-15.93033-10.231673-35.228045-34.502763-43.1958-24.271082-7.967755-48.158802-1.466109-53.339398 14.4694z" fill="#c1b9aa" opacity=".32"/><path d="m22.416436 101.9541s29.783241 8.60497 64.436231-14.90457c33.015943-22.431979 16.857663-57.033171 24.716623-43.915905 7.85896 13.117265 20.53587 54.194205-21.193803 76.154745-38.05148 19.96601-67.959051-17.33427-67.959051-17.33427z" fill="#ece8e3" fill-opacity=".62" opacity="1"/><path d="m13.132809 80.90016c-5.2220396 15.90961 10.216134 35.22805 34.482038 43.1699 24.26591 7.94185 48.17954 1.48683 53.360123-14.4435 5.18059-15.93033-10.231673-35.228045-34.502763-43.1958-24.271082-7.967755-48.158802-1.466109-53.339398 14.4694z" fill="#c1b9aa" opacity=".32"/><path d="m106.4923 30.840075c3.62643 7.444513 2.02044 15.635034-3.56943 18.360026-5.589853 2.724994-13.008463-1.134549-16.608983-8.563522-3.60051-7.428972-1.99971-15.660939 3.56943-18.37039 5.56914-2.709449 13.018833 1.170816 16.608983 8.573886z" fill="#f6f5f5" fill-opacity=".5" opacity="1"/><path d="m113.74514 68.124815c.0415 5.429263-3.23788 9.843125-7.32536 9.843125-4.08749 0-7.434163-4.377598-7.449703-9.801681-.0157-5.424082 3.258593-9.84313 7.346103-9.884575 4.08748-.04145 7.42896 4.377602 7.42896 9.843131z" fill="#f6f5f5" fill-opacity=".5" opacity="1"/></g></g><g opacity=".75" stroke-width="17.162" transform="matrix(.22022698 0 0 .36733192976 164.01651 265.7900510956)"><circle cx="66.145836" cy="66.145836" fill="url(#d)" opacity="1" r="66.145836"/><g stroke-width="1.33151"><path d="m13.132809 80.90016c-5.2220396 15.90961 10.216134 35.22805 34.482038 43.1699 24.26591 7.94185 48.17954 1.48683 53.360123-14.4435 5.18059-15.93033-10.231673-35.228045-34.502763-43.1958-24.271082-7.967755-48.158802-1.466109-53.339398 14.4694z" fill="#c1b9aa" opacity=".32"/><path d="m22.416436 101.9541s29.783241 8.60497 64.436231-14.90457c33.015943-22.431979 16.857663-57.033171 24.716623-43.915905 7.85896 13.117265 20.53587 54.194205-21.193803 76.154745-38.05148 19.96601-67.959051-17.33427-67.959051-17.33427z" fill="#ece8e3" fill-opacity=".62" opacity="1"/><path d="m13.132809 80.90016c-5.2220396 15.90961 10.216134 35.22805 34.482038 43.1699 24.26591 7.94185 48.17954 1.48683 53.360123-14.4435 5.18059-15.93033-10.231673-35.228045-34.502763-43.1958-24.271082-7.967755-48.158802-1.466109-53.339398 14.4694z" fill="#c1b9aa" opacity=".32"/><path d="m106.4923 30.840075c3.62643 7.444513 2.02044 15.635034-3.56943 18.360026-5.589853 2.724994-13.008463-1.134549-16.608983-8.563522-3.60051-7.428972-1.99971-15.660939 3.56943-18.37039 5.56914-2.709449 13.018833 1.170816 16.608983 8.573886z" fill="#f6f5f5" fill-opacity=".5" opacity="1"/><path d="m113.74514 68.124815c.0415 5.429263-3.23788 9.843125-7.32536 9.843125-4.08749 0-7.434163-4.377598-7.449703-9.801681-.0157-5.424082 3.258593-9.84313 7.346103-9.884575 4.08748-.04145 7.42896 4.377602 7.42896 9.843131z" fill="#f6f5f5" fill-opacity=".5" opacity="1"/></g></g><g opacity=".75" stroke-width="15.9454" transform="matrix(.23703027 0 0 .39535930834 264.36543 110.36559874474)"><circle cx="66.145836" cy="66.145836" fill="url(#d)" opacity="1" r="66.145836"/><g stroke-width="1.23712"><path d="m13.132809 80.90016c-5.2220396 15.90961 10.216134 35.22805 34.482038 43.1699 24.26591 7.94185 48.17954 1.48683 53.360123-14.4435 5.18059-15.93033-10.231673-35.228045-34.502763-43.1958-24.271082-7.967755-48.158802-1.466109-53.339398 14.4694z" fill="#c1b9aa" opacity=".32"/><path d="m22.416436 101.9541s29.783241 8.60497 64.436231-14.90457c33.015943-22.431979 16.857663-57.033171 24.716623-43.915905 7.85896 13.117265 20.53587 54.194205-21.193803 76.154745-38.05148 19.96601-67.959051-17.33427-67.959051-17.33427z" fill="#ece8e3" fill-opacity=".62" opacity="1"/><path d="m13.132809 80.90016c-5.2220396 15.90961 10.216134 35.22805 34.482038 43.1699 24.26591 7.94185 48.17954 1.48683 53.360123-14.4435 5.18059-15.93033-10.231673-35.228045-34.502763-43.1958-24.271082-7.967755-48.158802-1.466109-53.339398 14.4694z" fill="#c1b9aa" opacity=".32"/><path d="m106.4923 30.840075c3.62643 7.444513 2.02044 15.635034-3.56943 18.360026-5.589853 2.724994-13.008463-1.134549-16.608983-8.563522-3.60051-7.428972-1.99971-15.660939 3.56943-18.37039 5.56914-2.709449 13.018833 1.170816 16.608983 8.573886z" fill="#f6f5f5" fill-opacity=".5" opacity="1"/><path d="m113.74514 68.124815c.0415 5.429263-3.23788 9.843125-7.32536 9.843125-4.08749 0-7.434163-4.377598-7.449703-9.801681-.0157-5.424082 3.258593-9.84313 7.346103-9.884575 4.08748-.04145 7.42896 4.377602 7.42896 9.843131z" fill="#f6f5f5" fill-opacity=".5" opacity="1"/></g></g><g opacity=".75" stroke-width="20.5164" transform="matrix(.18421988 0 0 .30727317798 332.28384 142.05767355293)"><circle cx="66.145836" cy="66.145836" fill="url(#d)" opacity="1" r="66.145836"/><g stroke-width="1.59177"><path d="m13.132809 80.90016c-5.2220396 15.90961 10.216134 35.22805 34.482038 43.1699 24.26591 7.94185 48.17954 1.48683 53.360123-14.4435 5.18059-15.93033-10.231673-35.228045-34.502763-43.1958-24.271082-7.967755-48.158802-1.466109-53.339398 14.4694z" fill="#c1b9aa" opacity=".32"/><path d="m22.416436 101.9541s29.783241 8.60497 64.436231-14.90457c33.015943-22.431979 16.857663-57.033171 24.716623-43.915905 7.85896 13.117265 20.53587 54.194205-21.193803 76.154745-38.05148 19.96601-67.959051-17.33427-67.959051-17.33427z" fill="#ece8e3" fill-opacity=".62" opacity="1"/><path d="m13.132809 80.90016c-5.2220396 15.90961 10.216134 35.22805 34.482038 43.1699 24.26591 7.94185 48.17954 1.48683 53.360123-14.4435 5.18059-15.93033-10.231673-35.228045-34.502763-43.1958-24.271082-7.967755-48.158802-1.466109-53.339398 14.4694z" fill="#c1b9aa" opacity=".32"/><path d="m106.4923 30.840075c3.62643 7.444513 2.02044 15.635034-3.56943 18.360026-5.589853 2.724994-13.008463-1.134549-16.608983-8.563522-3.60051-7.428972-1.99971-15.660939 3.56943-18.37039 5.56914-2.709449 13.018833 1.170816 16.608983 8.573886z" fill="#f6f5f5" fill-opacity=".5" opacity="1"/><path d="m113.74514 68.124815c.0415 5.429263-3.23788 9.843125-7.32536 9.843125-4.08749 0-7.434163-4.377598-7.449703-9.801681-.0157-5.424082 3.258593-9.84313 7.346103-9.884575 4.08748-.04145 7.42896 4.377602 7.42896 9.843131z" fill="#f6f5f5" fill-opacity=".5" opacity="1"/></g></g><g opacity=".75" stroke-width="12.3255" transform="matrix(.30664399 0 0 .51147288401 141.54896 289.75830865308)"><circle cx="66.145836" cy="66.145836" fill="url(#d)" opacity="1" r="66.145836"/><g stroke-width=".956272"><path d="m13.132809 80.90016c-5.2220396 15.90961 10.216134 35.22805 34.482038 43.1699 24.26591 7.94185 48.17954 1.48683 53.360123-14.4435 5.18059-15.93033-10.231673-35.228045-34.502763-43.1958-24.271082-7.967755-48.158802-1.466109-53.339398 14.4694z" fill="#c1b9aa" opacity=".32"/><path d="m22.416436 101.9541s29.783241 8.60497 64.436231-14.90457c33.015943-22.431979 16.857663-57.033171 24.716623-43.915905 7.85896 13.117265 20.53587 54.194205-21.193803 76.154745-38.05148 19.96601-67.959051-17.33427-67.959051-17.33427z" fill="#ece8e3" fill-opacity=".62" opacity="1"/><path d="m13.132809 80.90016c-5.2220396 15.90961 10.216134 35.22805 34.482038 43.1699 24.26591 7.94185 48.17954 1.48683 53.360123-14.4435 5.18059-15.93033-10.231673-35.228045-34.502763-43.1958-24.271082-7.967755-48.158802-1.466109-53.339398 14.4694z" fill="#c1b9aa" opacity=".32"/><path d="m106.4923 30.840075c3.62643 7.444513 2.02044 15.635034-3.56943 18.360026-5.589853 2.724994-13.008463-1.134549-16.608983-8.563522-3.60051-7.428972-1.99971-15.660939 3.56943-18.37039 5.56914-2.709449 13.018833 1.170816 16.608983 8.573886z" fill="#f6f5f5" fill-opacity=".5" opacity="1"/><path d="m113.74514 68.124815c.0415 5.429263-3.23788 9.843125-7.32536 9.843125-4.08749 0-7.434163-4.377598-7.449703-9.801681-.0157-5.424082 3.258593-9.84313 7.346103-9.884575 4.08748-.04145 7.42896 4.377602 7.42896 9.843131z" fill="#f6f5f5" fill-opacity=".5" opacity="1"/></g></g><g opacity=".75" stroke-width="25.9206" transform="matrix(.14581232 0 0 .24321053165 278.89222 271.54039331604)"><circle cx="66.145836" cy="66.145836" fill="url(#d)" opacity="1" r="66.145836"/><g stroke-width="2.01105"><path d="m13.132809 80.90016c-5.2220396 15.90961 10.216134 35.22805 34.482038 43.1699 24.26591 7.94185 48.17954 1.48683 53.360123-14.4435 5.18059-15.93033-10.231673-35.228045-34.502763-43.1958-24.271082-7.967755-48.158802-1.466109-53.339398 14.4694z" fill="#c1b9aa" opacity=".32"/><path d="m22.416436 101.9541s29.783241 8.60497 64.436231-14.90457c33.015943-22.431979 16.857663-57.033171 24.716623-43.915905 7.85896 13.117265 20.53587 54.194205-21.193803 76.154745-38.05148 19.96601-67.959051-17.33427-67.959051-17.33427z" fill="#ece8e3" fill-opacity=".62" opacity="1"/><path d="m13.132809 80.90016c-5.2220396 15.90961 10.216134 35.22805 34.482038 43.1699 24.26591 7.94185 48.17954 1.48683 53.360123-14.4435 5.18059-15.93033-10.231673-35.228045-34.502763-43.1958-24.271082-7.967755-48.158802-1.466109-53.339398 14.4694z" fill="#c1b9aa" opacity=".32"/><path d="m106.4923 30.840075c3.62643 7.444513 2.02044 15.635034-3.56943 18.360026-5.589853 2.724994-13.008463-1.134549-16.608983-8.563522-3.60051-7.428972-1.99971-15.660939 3.56943-18.37039 5.56914-2.709449 13.018833 1.170816 16.608983 8.573886z" fill="#f6f5f5" fill-opacity=".5" opacity="1"/><path d="m113.74514 68.124815c.0415 5.429263-3.23788 9.843125-7.32536 9.843125-4.08749 0-7.434163-4.377598-7.449703-9.801681-.0157-5.424082 3.258593-9.84313 7.346103-9.884575 4.08748-.04145 7.42896 4.377602 7.42896 9.843131z" fill="#f6f5f5" fill-opacity=".5" opacity="1"/></g></g></g><g><path d="m191.77247 80.010957c-.50539 8.934756-1.11504 38.497743-1.86133 39.541683-2.4156 3.375-11.89736 3.44689-17.54883 5.93555-10.49833 4.623-21.99593 8.528-30.1434 16.60302-10.39012 10.29775-21.51562 22.85821-21.51562 38.25v226.26562c0 29.10597 23.9423 39.2546 42.91293 50.64308 25.26135 15.16494 56.92296 18.4177 86.38475 18.72634 29.46179-.30864 61.12204-3.56167 86.38281-18.72634 18.9706-11.38853 42.91293-21.53711 42.91293-50.64308v-226.26562c0-15.39179-11.1255-27.95225-21.51562-38.25-8.14747-8.07502-19.64507-11.98002-30.1434-16.60302-5.65147-2.48866-15.13323-2.56055-17.54883-5.93555-.74629-1.04394-1.35594-30.606927-1.86133-39.541683h-58.22656z" fill="#7a99d3" opacity=".15" stroke-width="3.77952"/><path d="m191.77344 71.011719a9.0009 9.0009 0 0 0 -8.98633 8.490234c-.27278 4.822443-.54236 14.325221-.84961 22.917967-.15299 4.27851-.31425 8.29552-.47656 11.22461-.41484.16365-.52204.30176-1.0625.42188-3.04731.67725-7.16859 1.20593-11.66407 3.18554-9.99098 4.39959-22.72768 8.41342-32.85156 18.44727-10.70748 10.61229-24.17968 24.91388-24.17968 44.64258v226.26562c-.00001 17.02074 7.65925 29.8684 17.2871 38.62305 9.62786 8.75464 20.92987 14.29485 29.99414 19.73633 27.61965 16.58067 60.86533 19.69489 90.92188 20.00976a9.0009 9.0009 0 0 0 .18945 0c30.05661-.31487 63.30096-3.42941 90.91992-20.00976 9.06425-5.4415 20.36629-10.98169 29.99415-19.73633 9.62785-8.75464 17.2871-21.6023 17.2871-38.62305v-226.26562c0-19.7287-13.4722-34.03029-24.17968-44.64258-10.12388-10.03385-22.86058-14.04768-32.85157-18.44727-4.49547-1.97961-8.61675-2.50829-11.66406-3.18554-.54046-.12012-.64766-.25823-1.0625-.42188-.16231-2.92909-.32357-6.9461-.47656-11.22461-.30725-8.592746-.57683-18.095524-.84961-22.917967a9.0009 9.0009 0 0 0 -8.98633-8.490234h-58.22656zm8.67187 18h49.55469 49.55469c.16826 4.616883.326 8.6385.51953 14.050781.15525 4.3417.31715 8.44318.49414 11.62695.0885 1.59189.17801 2.93973.28906 4.09375.0555.57702.10892 1.08712.21289 1.7168.052.31484.10883.64999.25 1.18164.14118.53165.005 1.08824 1.44727 3.10547a9.0009 9.0009 0 0 0 .002.004c4.4339 6.1949 9.2174 6.02305 12.92774 6.84765 3.71033.82461 7.15651 1.57689 8.3125 2.08594 11.00565 4.8464 21.2645 8.64359 27.43554 14.75976 10.07274 9.9832 18.85156 20.80257 18.85156 31.85743v226.26562c0 12.0852-4.31249 18.86338-11.39843 25.30664-7.08594 6.44327-17.24015 11.67212-27.14649 17.61914-22.87784 13.73414-52.91356 17.13071-81.75195 17.43946-28.83786-.30888-58.87414-3.70541-81.75195-17.43946-9.90634-5.94699-20.06055-11.17587-27.14649-17.61914-7.08593-6.44326-11.39844-13.22144-11.39844-25.30664v-226.26571c0-11.05486 8.77883-21.87423 18.85157-31.85743 6.17104-6.11617 16.42989-9.91336 27.43554-14.75976 1.15599-.50905 4.60217-1.26133 8.3125-2.08594 3.71034-.8246 8.49384-.65275 12.92774-6.84765a9.0009 9.0009 0 0 0 .002-.004c1.44208-2.01723 1.30609-2.57382 1.44727-3.10547.14117-.53165.19801-.8668.25-1.18164.10397-.62968.15736-1.13978.21289-1.7168.11105-1.15402.20056-2.50186.28906-4.09375.17699-3.18377.33889-7.28525.49414-11.62695.19353-5.412281.35127-9.433898.51953-14.050781z" fill="#7f8899" stroke-width=".999999"/><g stroke-width="1.34529" transform="matrix(.74319925 0 0 .74347225 63.805622 40.309939)"><path d="m251.57665 181.20048c-24.13558 0-39.55532 10.16545-50.00092 25.53202-9.71474 14.29358-14.52843 33.4341-15.15975 52.19747 19.77949 10.1098 31.25338 21.83282 34.64228 35.53222.57994 2.34432.92757 4.69598 1.0374 7.03716 7.11912 4.05657 18.34663 6.66837 29.87709 6.66679 10.22041-.002 20.60741-2.00537 28.51905-5.4322.1201-2.62721.48687-5.2639 1.16086-7.90138 3.54454-13.89296 15.03508-26.23358 35.08638-36.00204-.66213-17.74646-5.36708-36.81578-15.01228-51.30925-10.42981-15.6763-25.87467-26.32079-50.15011-26.32079zm-23.60468 59.16091c7.23527 0 13.11066 5.85059 13.11066 13.08666 0 7.23528-5.8746 13.11066-13.11066 13.11066-7.2353 0-13.08667-5.87459-13.08668-13.11066 0-7.23528 5.85059-13.08666 13.08668-13.08666zm43.80224 0c7.23607 0 13.11068 5.85059 13.11068 13.08666 0 7.23528-5.8754 13.11066-13.11068 13.11066-7.23606 0-13.08837-5.87459-13.08837-13.11066 0-7.23528 5.85231-13.08666 13.08837-13.08666zm-22.78849 26.54542c4.95766 10.46703 8.88718 20.94037 10.83868 31.40661-7.22817-2.38778-14.45262-2.707-21.68078 0 2.63893-10.46882 5.81092-20.94095 10.8421-31.40661zm-29.26151 50.14839c-1.68772 5.07268-4.17617 10.09635-7.26008 15.03628 9.42633 6.3132 24.95396 10.12285 40.19965 9.95218 14.98889-.16909 29.13843-4.40254 36.51988-9.80471-2.80499-4.55434-5.06652-9.32295-6.59305-14.22181-9.43977 3.48925-20.08851 5.03704-30.61786 5.03783-11.4151.002-22.73293-1.75515-32.24854-5.99977zm-55.82751 13.48104c-7.03221 8.90326-10.03031 17.77254-7.92539 28.69224 54.46015 4.37736 129.7362 25.22021 179.1134 47.99986 7.23767-8.82267 9.89066-17.91208 7.87738-29.06089-53.54755-5.42588-129.68898-22.70556-179.06539-47.63121zm171.13829 0c-16.42694 8.29327-35.81378 15.72856-56.34707 22.17291 16.03819 3.50347 31.80688 6.35266 46.39833 8.44494 6.14885-.81068 12.13393-1.46338 17.87584-1.92561 2.10177-10.9197-.89487-19.78977-7.9271-28.69224zm-160.99064 45.45695c-6.24524.85651-12.29319 1.58783-18.07304 2.17253-2.01485 11.14884.63959 20.24074 7.87566 29.06262 16.88917-7.79074 36.80141-15.36673 57.8783-22.12318-16.49014-3.88116-32.7015-7.00704-47.68092-9.11197z" fill="#7f8899" opacity=".25"/><path d="m306.81641 216.64062c6.20159 12.89631 9.39055 27.94883 9.92187 42.18946-20.05128 9.76845-31.5414 22.10901-35.08594 36.00195-.67399 2.63748-1.04005 5.27514-1.16015 7.90235-7.91163 3.42682-18.29913 5.42964-28.51953 5.43164-10.67479.001-21.04573-2.25364-28.18164-5.80469.14317 1.04707.25568 2.09418.30468 3.13867 7.11912 4.05657 18.34651 6.6676 29.87696 6.66602 10.2204-.002 20.6079-2.00482 28.51953-5.43164.1201-2.62721.48616-5.26487 1.16015-7.90235 3.54454-13.89294 15.03466-26.2335 35.08594-36.00195-.58686-15.72912-4.35831-32.48904-11.92187-46.18946zm-78.84375 23.72071c-7.23609 0-13.08789 5.85066-13.08789 13.08594 0 2.93531.99749 5.61869 2.625 7.80468-.36864-1.21151-.625-2.47277-.625-3.80468 0-7.23528 5.8518-13.08594 13.08789-13.08594 4.30678 0 8.09753 2.10044 10.48828 5.30469-1.63381-5.37462-6.57764-9.30469-12.48828-9.30469zm43.80078 0c-7.23606 0-13.08789 5.85066-13.08789 13.08594 0 2.93531.99726 5.61869 2.625 7.80468-.36869-1.21151-.625-2.47277-.625-3.80468 0-7.23528 5.85183-13.08594 13.08789-13.08594 4.30726 0 8.09963 2.10044 10.49023 5.30469-1.63364-5.37462-6.57893-9.30469-12.49023-9.30469zm-83.18555 19.76367c-.0522.93521-.14045 1.8707-.17187 2.80469 14.94862 7.64062 25.14529 16.20543 30.70117 25.8457-4.65671-10.78196-14.83511-20.25726-30.5293-28.65039zm60.39844 6.78125c-5.03118 10.46565-8.20287 20.93744-10.8418 31.40625 1.11444-.41737 2.22751-.73862 3.3418-1.01562 2.36776-8.71946 5.22548-17.44003 9.39258-26.15626-.6287-1.41139-1.22418-2.82318-1.89258-4.23437zm35.60351 55.11133c-.16286.0602-.33252.10892-.49609.16797.91475 2.28149 1.9704 4.53101 3.16992 6.73437-1.04039-2.26599-1.94646-4.56812-2.67383-6.90234zm4.38672 10.35351c-7.43191 5.33693-21.4499 9.50421-36.3125 9.67188-13.6264.15254-27.44371-2.89053-36.96289-8.04297-.40943.69767-.80279 1.39734-1.23633 2.0918 9.42632 6.31319 24.95355 10.12184 40.19922 9.95117 14.98888-.16909 29.13809-4.40252 36.51953-9.80469-.78359-1.27228-1.51243-2.56329-2.20703-3.86719zm52.23047 8.33203c2.39159 5.71564 3.06533 11.72207 1.75586 18.5254-5.7419.46223-11.72811 1.1151-17.87695 1.92578-11.96071-1.71506-24.72677-3.96493-37.76953-6.64063-2.21546.72819-4.38367 1.49065-6.62891 2.19531 16.03817 3.50347 31.807 6.35304 46.39844 8.44532 6.14884-.81068 12.13505-1.46355 17.87695-1.92578 1.61828-8.40775.18581-15.59748-3.75586-22.5254zm-183.76758 18.66797c.10733 1.2598.27764 2.54174.53125 3.85743 54.4601 4.37735 129.73613 25.22037 179.11328 48 7.23767-8.82267 9.89219-17.91175 7.87891-29.06055-.48707-.0494-1.00727-.11666-1.49805-.16797.81294 9.43806-1.99128 17.43967-8.38086 25.22852-48.94319-22.57943-123.30397-43.23278-177.64453-47.85743zm57.94336 27.85743c-18.69897 6.2124-36.36676 13.00303-51.53515 20-1.6219-1.97734-2.97812-3.97346-4.13868-5.99805 1.4185 3.42948 3.46064 6.73311 6.13868 9.99805 16.88915-7.79074 36.80008-15.36661 57.87695-22.12305-2.79623-.65813-5.56625-1.26356-8.3418-1.87695z" fill="#c6d3ec" filter="url(#c)" opacity=".9"/><path d="m247.57617 179.20117c-24.13555 0-39.55441 10.1647-50 25.53125-9.71473 14.29357-14.52884 33.43392-15.16015 52.19727 19.77947 10.10979 31.25368 21.83381 34.64257 35.5332.57994 2.34432.92728 4.69593 1.03711 7.03711 1.20648.68747 2.56825 1.31527 3.99219 1.91406-.11422-2.31284-.45644-4.63547-1.0293-6.95117-3.38889-13.69939-14.8631-25.42341-34.64257-35.5332.63131-18.76335 5.44542-37.9037 15.16015-52.19727 10.44559-15.36655 25.86445-25.53125 50-25.53125 10.1926 0 18.81235 1.89477 26.17383 5.23242-8.18172-4.58898-18.08121-7.23242-30.17383-7.23242zm-15.79687 61.78711c3.20107 2.3846 5.30273 6.15969 5.30273 10.45899 0 7.23527-5.87332 13.11132-13.10937 13.11132-1.32427 0-2.5771-.25517-3.78125-.62109 2.17877 1.6254 4.85289 2.62109 7.78125 2.62109 7.23605 0 13.10937-5.87605 13.10937-13.11132 0-5.90264-3.93466-10.82378-9.30273-12.45899zm43.80078 0c3.20119 2.38458 5.30469 6.15956 5.30469 10.45899 0 7.23527-5.87606 13.11132-13.11133 13.11132-1.32476 0-2.57667-.25498-3.78125-.62109 2.17907 1.6254 4.85258 2.62109 7.78125 2.62109 7.23527 0 13.11133-5.87605 13.11133-13.11132 0-5.9033-3.93545-10.82434-9.30469-12.45899zm-26.59375 25.91797c-.54912 1.14226-1.06767 2.28533-1.57422 3.42773 3.78347 8.65961 6.79786 17.32104 8.41211 25.97852-5.59489-1.84824-11.18737-2.43592-16.78125-1.36133-.29627 1.12048-.61601 2.24092-.89844 3.36133 7.22815-2.707 14.45153-2.38778 21.67969 0-1.9515-10.46623-5.88024-20.93923-10.83789-31.40625zm-33.26172 48.14844c-1.68772 5.07267-4.17586 10.09718-7.25977 15.03711 1.95775 1.31118 4.22934 2.48443 6.65625 3.5664-.91028-.51134-1.83448-1.01603-2.65625-1.5664 3.08391-4.93993 5.57205-9.96444 7.25977-15.03711 9.5156 4.24461 20.83296 6.002 32.24805 6 9.44988-.00071 18.98797-1.25912 27.66992-4.03711-.37423-.99523-.73896-1.99304-1.05274-3-9.43976 3.48924-20.08784 5.03632-30.61718 5.03711-11.41509.002-22.73245-1.75539-32.24805-6zm-55.82813 13.48242c-7.0322 8.90325-10.03069 17.77172-7.92578 28.69141 1.23028.0989 2.52441.24971 3.77539.36523-1.50557-10.16859 1.47725-18.60799 8.15039-27.05664 48.23859 24.35127 121.96622 41.37271 175.27149 47.20508-.0753-.52728-.10817-1.0376-.20508-1.57422-53.5475-5.42588-129.69005-22.70524-179.06641-47.63086zm171.13868 0c-16.42693 8.29326-35.81439 15.72753-56.34766 22.17187 2.06169.45037 4.10149.85859 6.15234 1.28711 18.96467-6.0415 36.89065-12.91698 52.32618-20.54882-.66883-.97159-1.36491-1.9405-2.13086-2.91016zm-160.99024 45.45703c-6.24523.85651-12.29437 1.58718-18.07422 2.17188-2.01484 11.14882.64089 20.24062 7.87696 29.0625.60032-.27692 1.26907-.54787 1.87695-.82422-5.59718-7.95441-7.55481-16.27326-5.75391-26.23828 5.77985-.5847 11.82899-1.31537 18.07422-2.17188 13.16258 1.84963 27.29457 4.52354 41.71289 7.76953.66358-.2151 1.30083-.44472 1.9668-.6582-16.49012-3.88116-32.70028-7.0064-47.67969-9.11133z" fill="#7f8899" filter="url(#b)" opacity=".9"/></g><g stroke-linecap="round" stroke-linejoin="round"><path d="m250.61719 6.0253906c-41.58726-.021074-70.32617 3.953125-70.32617 3.953125a18.0018 18.0018 0 0 0 -15.52344 17.8300784v46.376953a18.0018 18.0018 0 0 0 8.79297 15.464844s2.33738 1.395414 5.29492 2.947265c2.95753 1.551851 6.04146 3.350421 11.375 4.791016 21.28577 5.749308 41.98309 5.124998 60.37695 5.124998 18.14916 0 39.10158 1.11202 60.74414-5.228514 5.48748-1.607645 8.25323-3.486158 10.99219-5.089844 2.73896-1.603685 4.89453-3.046875 4.89453-3.046875a18.0018 18.0018 0 0 0 7.99414-14.96289v-46.376953a18.0018 18.0018 0 0 0 -15.43945-17.8183596s-27.60874-3.9437761-69.17578-3.9648438zm-.0195 36.0000004c21.76996.01103 37.52743 1.016699 48.63476 1.998046v19.13086c-13.74967 3.571857-30.38444 3.359375-48.625 3.359375-18.37843 0-35.40157.01613-49.83984-3.652344v-18.794922c11.42727-1.009168 27.52821-2.052317 49.83008-2.041015z" fill="#5e5c64"/><path d="m306.29101 80.010957c3.96532-1.161704 10.94141-5.826271 10.94141-5.826271v-46.376953s-26.17001-3.762407-66.625-3.782911c-40.45499-.0205-67.83984 3.782911-67.83984 3.782911v46.376953s7.81825 4.654573 12.15625 5.826271c17.97754 4.855756 37.06182 4.502119 55.68359 4.502119s37.81295.733373 55.68359-4.502119z" fill="#77767b" stroke-width="36"/></g></g></svg>