<svg height="500" viewBox="0 0 500 500" width="500" xmlns="http://www.w3.org/2000/svg" xmlns:xlink="http://www.w3.org/1999/xlink"><linearGradient id="a"><stop offset="0" stop-color="#89b040"/><stop offset="1" stop-color="#becc70"/></linearGradient><filter id="b" color-interpolation-filters="sRGB" height="1.008279" width="1.004705" x="-.002353" y="-.004139"><feGaussianBlur stdDeviation=".22575317"/></filter><linearGradient id="c" gradientUnits="userSpaceOnUse" spreadMethod="reflect" x1="99.564461" x2="175.82288" xlink:href="#a" y1="281.82159" y2="308.63068"/><linearGradient id="d" gradientUnits="userSpaceOnUse" spreadMethod="reflect" x1="162" x2="173.8076" xlink:href="#a" y1="257.26105" y2="198.35986"/><filter id="e" color-interpolation-filters="sRGB" height="1.006509" width="1.006729" x="-.003365" y="-.003254"><feGaussianBlur stdDeviation=".26386831"/></filter><filter id="f" color-interpolation-filters="sRGB" height="1.005792" width="1.006795" x="-.003398" y="-.002896"><feGaussianBlur stdDeviation=".26645917"/></filter><filter id="g" color-interpolation-filters="sRGB" height="1.043651" width="1.070782" x="-.035391" y="-.021825"><feGaussianBlur stdDeviation="1.8931878"/></filter><path d="m250.0004 119.26127s-46.6665-.57372-68.8536 5.58594c-9.7433 2.70497-27.1718 8.21805-27.1718 13.48437 0 0-12.9291 22.62103-20.8457 32.91602-4.685 6.09251-10.6108 11.12997-15.6582 16.92578-5.0059 5.7481-10.5505 11.16351-14.4922 17.6875-2.1849 3.61619-3.606493 7.664-4.943393 11.67187-1.3452 4.03256-2.2415 8.20793-3.0723 12.37696-1.716 8.61164-3.2046 17.29656-3.9375 26.04687-.7315 8.73363-.8624 17.5346-.4492 26.28906.585 12.39488 1.5214 24.86506 4.1407 36.99414 2.5894 11.99067 5.2157 24.3884 11.363193 35.00391 9.3912 16.21664 21.0245 33.65337 37.7383 41.66992l106.1817 9.82813 106.1816-9.82813c16.7138-8.01655 28.3472-25.45328 37.73828-41.66992 6.1475-10.61551 8.77392-23.01324 11.36328-35.00391 2.61925-12.12908 3.55559-24.59926 4.14062-36.99414.4132-8.75446.28031-17.55543-.45117-26.28906-.73288-8.75031-2.21954-17.43523-3.93554-26.04687-.83075-4.16903-1.72906-8.34441-3.07422-12.37696-1.33693-4.00787-2.75655-8.05567-4.94141-11.67187-3.94172-6.52398-9.48828-11.93939-14.49414-17.6875-5.0474-5.7958-10.9713-10.83328-15.6562-16.92578-7.9166-10.29501-20.8458-32.91602-20.8458-32.91602 0-5.26632-17.4304-10.7794-27.1738-13.48437-22.1871-6.15966-68.8515-5.58594-68.8515-5.58594z" fill="#7a99d3" opacity=".2" stroke-width="3.77952"/><g fill-rule="evenodd"><path d="m250.00195 110.26301s-17.68711-.1234-26.5.49023c-14.99398 1.04402-30.10203 2.10496-44.76172 5.42188-6.29759 1.42488-12.43608 3.60584-18.35937 6.17578-3.0659 1.33019-6.42293 2.43553-8.82813 4.75586-2.33131 2.24907-4.84647 3.9005-5.97265 7.20703-9.84189 7.28933-12.06501 21.67614-19.58594 31.44922-4.57589 5.94614-10.3868 10.8368-15.30859 16.5-5.3395 6.1439-11.200113 11.97791-15.412108 18.94336-2.529198 4.18265-4.215693 8.84613-5.775391 13.47851-1.476399 4.38492-2.454929 8.92965-3.361328 13.4668-1.786598 8.94339-3.320579 17.96626-4.080078 27.05469-.7625 9.12383-.905403 18.31759-.470703 27.46289.612699 12.89004 1.581187 25.86312 4.333984 38.4707 2.815497 12.89489 5.693053 26.22982 12.373047 37.61328 10.376687 17.68309 24.141077 34.58252 41.634757 45.27539.9038.55241 1.99951.74896 3.0625.84766 0 0 71.19106 9.82815 107.01172 9.82812 35.82007-.00003 107.00977-9.82812 107.00977-9.82812 1.063-.0987 2.1587-.29525 3.0625-.84766 17.49368-10.69287 31.25806-27.59231 41.63476-45.27539 6.67999-11.38346 9.55754-24.71838 12.37305-37.61328 2.75277-12.60758 3.71932-25.58066 4.33203-38.4707.43471-9.14531.29176-18.33906-.4707-27.46289-.7595-9.08843-2.2915-18.1113-4.07813-27.05469-.90638-4.53716-1.88686-9.08188-3.36328-13.4668-1.55974-4.63237-3.24615-9.29586-5.77539-13.47851-4.21197-6.96544-10.07062-12.79947-15.41015-18.94336-4.92175-5.66321-10.73466-10.55386-15.31055-16.5-7.52103-9.77307-9.74405-24.15989-19.58594-31.44922-1.12617-3.30653-3.64134-4.95796-5.97265-7.20703-2.4052-2.32033-5.76223-3.42567-8.82813-4.75586-5.92319-2.56994-12.05993-4.7509-18.35742-6.17578-14.65979-3.31692-29.76969-4.37785-44.76367-5.42188-8.81219-.61359-26.4961-.49023-26.4961-.49023zm0 17.99804s17.1595-.10354 25.71289.47657c13.63819.92495 27.38499 1.82467 40.73047 4.7832 4.9875 1.10568 9.88214 2.95375 14.54883 4.8125l10.05274 9.67578c3.28539 5.70993 11.67656 19.70865 18.68945 28.72656 4.82969 6.21052 10.82911 11.42164 16.0039 17.34766 4.6732 5.35163 9.90933 10.3473 13.57813 16.43164 1.83947 3.05063 2.99487 6.48177 4.10937 9.86523 1.21256 3.68113 2.02817 7.48763 2.78321 11.28907 1.64455 8.27992 3.08866 16.627 3.79492 25.03906.70046 8.34296.82146 16.75014.42969 25.11328-.55744 11.89974-1.46534 23.86856-3.94922 35.51953-2.36354 11.0865-4.7827 22.52026-10.35352 32.39258-8.13469 14.41591-19.62359 30.55093-32.67578 37.39453 0 0-68.81971 9.65231-103.45508 9.65234-34.63606.00003-103.45898-9.65234-103.45898-9.65234-13.05219-6.8436-24.53914-22.97863-32.67383-37.39453-5.57079-9.87233-7.98992-21.30608-10.35352-32.39258-2.48389-11.65096-3.39367-23.61978-3.951163-35.51953-.391799-8.36314-.270812-16.77032.429688-25.11328.706295-8.41206 2.150315-16.75915 3.794915-25.03906.7551-3.80144 1.57256-7.60794 2.78516-11.28907 1.1145-3.38345 2.26792-6.81461 4.10742-9.86523 3.6687-6.08435 8.90493-11.08001 13.57813-16.43164 5.17479-5.92602 11.19441-11.12151 16.0039-17.34766 7.11799-9.2146 15.57398-23.69241 18.85938-29.40234l9.88281-9c4.66669-1.85875 9.56319-3.70682 14.55078-4.8125 13.34539-2.95853 27.09043-3.85826 40.72852-4.7832 8.55409-.58015 25.71679-.47657 25.71679-.47657z" fill="#7f8899" stroke-width=".999999"/><path d="m221.69727 238.63801c-28.33373.1152-56.69907.91462-84.58789 5.45507-14.63595 2.38282-41.608063 7.1309-46.062501 11.86329h-.02148c-.000654.008-.0013.0156-.002.0234-.39613.42789-.675781.85546-.675782 1.28125 0 .37456.206685.75061.515625 1.12696-.563166 7.93478-.662021 15.91417-.287109 23.85742.584999 12.39487 1.521327 24.86507 4.140625 36.99414 2.589397 11.99066 5.21579 24.38841 11.363282 35.00391 9.39119 16.21662 21.0245 33.65337 37.73828 41.66992l106.18168 9.82815 106.18164-9.82812c16.71378-8.01655 28.34721-25.4533 37.73828-41.66992 6.1475-10.6155 8.77393-23.01325 11.36328-35.00391 2.61925-12.12907 3.5556-24.59927 4.14063-36.99414.37482-7.94131.27401-15.9187-.28906-23.85156.312-.37827.52148-.75635.52148-1.13282 0-.4277-.28207-.8573-.68164-1.28711-.00049-.006-.001-.0117-.002-.0176h-.0156c-4.45444-4.73239-31.42655-9.48047-46.0625-11.86329-37.1851-6.05393-75.21788-5.45507-112.89258-5.45507-9.41867 0-18.86011-.0384-28.30468 0z" fill="url(#c)" stroke-width="32"/><path d="m409.65604 257.26105c.00001 5.14261-30.77856 10.56636-46.76159 13.16848-37.18515 6.05395-75.21778 5.45457-112.89251 5.45457s-75.70736.59938-112.89251-5.45457c-15.98303-2.60212-46.761594-8.02587-46.761587-13.16848s30.778577-10.56635 46.761617-13.16848c37.18514-6.05394 75.21775-5.45456 112.89248-5.45456s75.70734-.59938 112.89248 5.45456c15.98304 2.60213 46.76161 8.02587 46.76162 13.16848z" fill="url(#d)" stroke-width="32"/><path d="m221.69727 238.63801c-28.33373.1152-56.69907.91462-84.58789 5.45507-15.98303 2.60213-46.761713 8.02537-46.76172 13.16797-.000007 5.14261 30.7787 10.56585 46.76172 13.16797 28.90814 4.70641 58.32522 5.38316 87.6914 5.45508-25.22801-.1152-50.48452-.91462-75.3164-5.45508-14.23109-2.60212-41.63673-8.02536-41.63672-13.16797.00001-5.1426 27.40562-10.56584 41.63672-13.16797 24.83187-4.54045 50.08839-5.33987 75.3164-5.45507-1.03546.003-2.06795-.004-3.10351 0zm53.50585 0c25.22801.1152 50.48454.91462 75.31641 5.45507 14.23111 2.60213 41.63671 8.02537 41.63672 13.16797.00001 5.14261-27.40563 10.56585-41.63672 13.16797-24.83188 4.54046-50.08839 5.33988-75.31641 5.45508 29.36619-.0719 58.78327-.74867 87.69141-5.45508 15.98302-2.60212 46.76173-8.02536 46.76172-13.16797-.00001-5.1426-30.77869-10.56584-46.76172-13.16797-28.90813-4.70639-58.32523-5.38316-87.69141-5.45507z" fill="#729235" stroke-width="32"/></g><path d="m133.22485 392.68684c-5.79443 3.25532-8.4378 11.81589-7.6453 18.41473.679 5.65468 5.4624 10.476 10.1012 13.78022 3.3633 2.39565 7.7529 3.03997 11.8359 3.65625.001.0002 0-.00031 0 0 .001.00034 0 .002 0 .002 10.2018 3.00239 21.1048 2.74269 31.7148 3.46387 23.5415 1.60016 47.166 1.90713 70.7619 1.90723 23.5913.0001 47.2113-.30791 70.7485-1.90625 10.5947-.71945 21.2904-1.20981 31.6695-3.45508 4.3201-.93455 9.2133-1.29572 12.5977-4.13867 4.5531-3.82469 8.116-9.7935 8.4093-15.73262.2846-5.76151-1.57281-13.18825-6.6143-15.99168-13.6006-7.5629-30.61265 5.73828-46.0622 7.60509-23.48168 2.83736-47.09543 5.47737-70.7479 5.44921-22.27055-.0265-44.48215-2.70281-66.602-5.28941-16.80697-1.96533-35.41434-16.05301-50.1671-7.76489z" fill="#7f8899" stroke-width=".999999"/><path d="m153.9743 138.33308s-12.9283 22.6204-20.8449 32.9154c-4.685 6.09252-10.6103 11.12894-15.6577 16.92475-5.0059 5.74811-10.5512 11.16364-14.4929 17.68764-2.1849 3.61619-3.605193 7.66386-4.942093 11.67174-1.3452 4.03256-2.2427 8.20806-3.0735 12.37709-1.716 8.61165-3.2033 17.29682-3.9362 26.04714-.7315 8.73364-.8637 17.53433-.4505 26.2888.585 12.39489 1.5214 24.86596 4.1407 36.99506 2.5894 11.99068 5.2157 24.38746 11.363193 35.00298 9.3912 16.21665 21.0245 33.65336 37.7383 41.66992l106.1816 9.82813 106.1816-9.82813c16.7138-8.01656 28.3472-25.45327 37.73832-41.66992 6.14751-10.61552 8.77382-23.0123 11.36318-35.00298 2.61925-12.1291 3.5557-24.60017 4.14073-36.99506.4132-8.75447.281-17.55516-.45048-26.2888-.73288-8.75032-2.22023-17.43549-3.93624-26.04714-.83075-4.16903-1.7283-8.34454-3.07346-12.37709-1.33693-4.00788-2.7573-8.05554-4.94216-11.67174-3.94172-6.52399-9.48702-11.93952-14.49289-17.68764-5.0474-5.7958-10.9726-10.83224-15.6576-16.92475-7.9166-10.29502-20.845-32.9154-20.845-32.9154l-15.0312-.00057c-4.6667 1.85876-9.5632 3.70682-14.5507 4.8125-13.3455 2.95853-27.0904 3.85825-40.7286 4.78321-8.5534.58011-25.7148.47656-25.7148.47656s-17.1627.10359-25.7168-.47656c-13.6381-.92495-27.3831-1.82468-40.7285-4.78321-4.9876-1.10568-9.8841-2.95374-14.5508-4.8125z" fill="#7a99d3" opacity=".2"/><path d="m153.4148 169.5476c-4.63695 14.75646-7.6185 30.0864-9.2944 45.4632-2.8498 26.14797-8.7951 53.71075-1.2195 78.899 6.9993 23.27198 41.1511 60.18105 41.1511 60.18105s-10.2292-42.71288-9.1982-64.3595c.9833-20.64695 4.9016-42.00467 14.5679-60.27559 12.6005-23.81719 54.2725-59.90638 54.2725-59.90638l23.89175-12.33105c-32.38942.97525-64.93916 1.61517-103.97392-11.30917 0 0-7.62471 15.45174-10.19723 23.63844z" fill="#c6d3ec" filter="url(#g)" opacity=".33"/><g stroke-width="1.36439" transform="matrix(.73269207 0 0 .73316855 67.952742 80.03262)"><path d="m251.57665 181.20048c-24.13558 0-39.55532 10.16545-50.00092 25.53202-9.71474 14.29358-14.52843 33.4341-15.15975 52.19747 19.77949 10.1098 31.25338 21.83282 34.64228 35.53222.57994 2.34432.92757 4.69598 1.0374 7.03716 7.11912 4.05657 18.34663 6.66837 29.87709 6.66679 10.22041-.002 20.60741-2.00537 28.51905-5.4322.1201-2.62721.48687-5.2639 1.16086-7.90138 3.54454-13.89296 15.03508-26.23358 35.08638-36.00204-.66213-17.74646-5.36708-36.81578-15.01228-51.30925-10.42981-15.6763-25.87467-26.32079-50.15011-26.32079zm-23.60468 59.16091c7.23527 0 13.11066 5.85059 13.11066 13.08666 0 7.23528-5.8746 13.11066-13.11066 13.11066-7.2353 0-13.08667-5.87459-13.08668-13.11066 0-7.23528 5.85059-13.08666 13.08668-13.08666zm43.80224 0c7.23607 0 13.11068 5.85059 13.11068 13.08666 0 7.23528-5.8754 13.11066-13.11068 13.11066-7.23606 0-13.08837-5.87459-13.08837-13.11066 0-7.23528 5.85231-13.08666 13.08837-13.08666zm-22.78849 26.54542c4.95766 10.46703 8.88718 20.94037 10.83868 31.40661-7.22817-2.38778-14.45262-2.707-21.68078 0 2.63893-10.46882 5.81092-20.94095 10.8421-31.40661zm-29.26151 50.14839c-1.68772 5.07268-4.17617 10.09635-7.26008 15.03628 9.42633 6.3132 24.95396 10.12285 40.19965 9.95218 14.98889-.16909 29.13843-4.40254 36.51988-9.80471-2.80499-4.55434-5.06652-9.32295-6.59305-14.22181-9.43977 3.48925-20.08851 5.03704-30.61786 5.03783-11.4151.002-22.73293-1.75515-32.24854-5.99977zm-55.82751 13.48104c-7.03221 8.90326-10.03031 17.77254-7.92539 28.69224 54.46015 4.37736 129.7362 25.22021 179.1134 47.99986 7.23767-8.82267 9.89066-17.91208 7.87738-29.06089-53.54755-5.42588-129.68898-22.70556-179.06539-47.63121zm171.13829 0c-16.42694 8.29327-35.81378 15.72856-56.34707 22.17291 16.03819 3.50347 31.80688 6.35266 46.39833 8.44494 6.14885-.81068 12.13393-1.46338 17.87584-1.92561 2.10177-10.9197-.89487-19.78977-7.9271-28.69224zm-160.99064 45.45695c-6.24524.85651-12.29319 1.58783-18.07304 2.17253-2.01485 11.14884.63959 20.24074 7.87566 29.06262 16.88917-7.79074 36.80141-15.36673 57.8783-22.12318-16.49014-3.88116-32.7015-7.00704-47.68092-9.11197z" fill="#7f8899" opacity=".25"/><path d="m307.52441 218.08247c5.74853 12.56731 8.70385 27.04086 9.21527 40.74779-20.05128 9.76845-31.54119 22.11035-35.08573 36.0033-.67399 2.63748-1.04214 5.27407-1.16224 7.90128-7.91163 3.42682-18.29974 5.42979-28.52014 5.43179-10.40508.001-20.53321-2.13692-27.64847-5.53302.24569 1.44203.43368 2.88267.50115 4.32092 7.11911 4.05657 18.34653 6.66945 29.87698 6.66787 10.2204-.002 20.60851-2.00497 28.52014-5.43179.1201-2.62721.48825-5.2638 1.16224-7.90128 3.54454-13.89295 15.03445-26.23485 35.08573-36.0033-.58719-15.73774-4.37305-32.499-11.94493-46.20356zm-79.55199 22.27862c-7.23608 0-13.08584 5.85272-13.08584 13.08799.00001 3.18966 1.17961 6.0748 3.07087 8.34882-.21064-.93384-.34121-1.89566-.34121-2.89305 0-7.23527 5.84976-13.08799 13.08584-13.08799 4.05554 0 7.63849 1.87847 10.0443 4.76847-1.31142-5.85121-6.52538-10.22424-12.77396-10.22424zm43.80251 0c-7.23605 0-13.0885 5.85272-13.0885 13.08799 0 3.18757 1.18156 6.07011 3.07086 8.3435-.20994-.93231-.34121-1.89212-.34121-2.88773 0-7.23527 5.85246-13.08799 13.08851-13.08799 4.05598 0 7.63862 1.87847 10.04429 4.76847-1.31126-5.85121-6.52468-10.22424-12.77395-10.22424zm-82.3936 20.20074c-.0816 1.27479-.19175 2.54982-.23458 3.82277 14.64357 7.4847 24.70707 15.86175 30.33547 25.26225-4.40588-10.95595-14.44965-20.57307-30.10089-29.08502zm59.60467 6.34553c-5.03117 10.46565-8.2024 20.93651-10.84133 31.40532 1.51035-.56564 3.0189-.96858 4.529-1.2787 2.26995-8.11524 5.02829-16.23103 8.89805-24.34318-.83735-1.92799-1.6727-3.85579-2.58572-5.78344zm36.33327 56.56633c-.1933.0715-.40281.11399-.59712.18382.87254 2.018 1.85244 4.00817 2.94558 5.96192-.89643-2.02304-1.70149-4.06951-2.34846-6.14574zm3.65465 8.90026c-7.43286 5.33568-21.44909 9.50251-36.30927 9.67015-13.05587.14615-26.28892-2.64404-35.74948-7.40845-.55648.97311-1.11838 1.94474-1.72203 2.9117 9.42632 6.31319 24.95549 10.12319 40.20117 9.95252 14.98887-.16909 29.13841-4.40384 36.51986-9.80601-1.0725-1.74136-2.03736-3.52059-2.94025-5.31991zm52.44998 8.94289c2.18891 5.53376 2.80119 11.35005 1.5381 17.9124-5.7419.46223-11.72723 1.11536-17.87607 1.92604-11.00209-1.5776-22.67568-3.58898-34.62723-5.98323-3.0052 1.00471-5.97978 2.03054-9.04199 2.99161 16.03817 3.50347 31.80744 6.35511 46.39888 8.44739 6.14884-.81068 12.13417-1.46381 17.87607-1.92604 1.68397-8.74901.0474-16.17979-4.26776-23.36817zm-183.30304 18.12019c.0736 1.70497.23261 3.44006.58112 5.24798 54.46009 4.37736 129.73544 25.21944 179.11259 47.99907 7.23766-8.82266 9.89037-17.91224 7.87709-29.06104-.70381-.0713-1.45302-.16702-2.16453-.24242.43104 8.8377-2.36916 16.44467-8.44222 23.84769-48.74213-22.48667-122.68345-43.05452-176.96405-47.79128zm54.95572 28.56555c-17.83875 6.0037-34.68736 12.51749-49.22983 19.22573-1.41065-1.71979-2.5929-3.45713-3.65466-5.21069 1.42319 3.66781 3.53412 7.19164 6.38432 10.66646 16.88915-7.79073 36.80044-15.36767 57.87731-22.12411-3.81335-.89752-7.60538-1.74394-11.37714-2.55739z" fill="#c6d3ec" filter="url(#e)" opacity=".9"/><path d="m248.84739 175.7443c-24.13556 0-39.55463 10.16475-50.00022 25.5313-9.71473 14.29357-14.52842 33.43411-15.15974 52.19746 1.04318.5332 1.96722 1.09077 2.96424 1.633 1.12055-17.51569 5.8695-35.05083 14.92516-48.37468 10.44559-15.36656 25.86466-25.53131 50.00022-25.53131 24.27541 0 39.7197 10.64621 50.1495 26.3225 1.09172 1.64049 2.10176 3.35494 3.0682 5.10413-1.69412-3.70366-3.60239-7.26085-5.79786-10.5599-10.4298-15.67629-25.87409-26.3225-50.1495-26.3225zm-10.83067 69.38526c.20708.92394.33587 1.87696.33587 2.86375 0 7.23527-5.87377 13.1093-13.10983 13.1093-4.04598 0-7.61571-1.87564-10.01497-4.76048 1.31755 5.84116 6.50663 10.21625 12.74463 10.21625 7.23606 0 13.10983-5.87403 13.10983-13.1093 0-3.18008-1.17927-6.05362-3.06553-8.31952zm43.8025 0c.20706.92394.33588 1.87696.33588 2.86375 0 7.23527-5.87456 13.1093-13.10983 13.1093-4.04849 0-7.61805-1.87839-10.01764-4.76581 1.3159 5.84368 6.50685 10.22158 12.7473 10.22158 7.23527 0 13.10983-5.87403 13.10983-13.1093 0-3.18008-1.17937-6.05362-3.06554-8.31952zm-32.83322 21.7778c-.0525.10921-.0918.21845-.14394.32767 3.7094 8.5409 6.66085 17.08315 8.25295 25.62188-5.71781-1.88885-11.43417-2.45272-17.151-1.2787-.62804 2.24528-1.23341 4.4894-1.79934 6.73447 7.22815-2.707 14.45184-2.38778 21.68 0-1.9515-10.46623-5.88101-20.9383-10.83867-31.40532zm-32.23344 17.28371c.635 1.57904 1.17104 3.18173 1.57542 4.81643.57994 2.34432.92712 4.69431 1.03695 7.03549.69483.39592 1.45895.76754 2.22851 1.13485-.15424-.9053-.31214-1.81044-.5358-2.71457-.87995-3.55716-2.33105-6.97519-4.30508-10.2722zm.24258 27.4094c-1.68772 5.07267-4.17742 10.09541-7.26132 15.03533 1.35395.9068 2.8649 1.74496 4.45169 2.54408 2.28644-3.99827 4.18193-8.04391 5.53929-12.12364 9.5156 4.24461 20.83168 6.00121 32.24677 5.99921 10.31373-.00077 20.72651-1.51364 30.02092-4.85371-.80401-1.85955-1.53929-3.73577-2.13254-5.63959-9.43976 3.48925-20.0887 5.03674-30.61804 5.03753-11.41509.002-22.73117-1.7546-32.24677-5.99921zm67.94293 12.56319c.40998.92521.84848 1.84238 1.30619 2.75452.0644-.0462.14721-.0895.21059-.13586-.53192-.86365-1.02525-1.74017-1.51678-2.61866zm-123.77034.9164c-7.0322 8.90325-10.02999 17.77372-7.92507 28.69341.70039.0563 1.44136.14608 2.14854.20779-.37087-8.5929 2.63828-16.01625 8.50619-23.44543 48.72737 24.59801 123.47868 41.72767 176.90008 47.38902-.0827-1.69477-.24117-3.41941-.56513-5.21335-53.54749-5.42588-129.68825-22.70582-179.06461-47.63144zm171.13687 0c-16.42692 8.29326-35.81394 15.72772-56.34721 22.17206 3.94523.86182 7.87255 1.68305 11.77165 2.46415 17.14579-5.73224 33.32811-12.12399 47.30522-19.18044 1.3979 1.76968 2.58937 3.54176 3.65998 5.32524-1.45341-3.67437-3.58354-7.22862-6.38964-10.78101zm-160.98861 45.45765c-6.24523.85651-12.29349 1.58642-18.07333 2.17112-1.62206 8.97541-.16486 16.61152 4.21977 23.85302-2.18999-5.64402-2.71134-11.63979-1.49011-18.39724 5.77984-.5847 11.8281-1.31462 18.07333-2.17112 11.5154 1.61816 23.76281 3.84914 36.30127 6.55331 2.8786-.9688 5.71893-1.95959 8.64748-2.89837-16.49012-3.88116-32.699-7.00579-47.67841-9.11072z" fill="#7f8899" filter="url(#f)" opacity=".9"/></g><path d="m165.65234 129.91144c-3.22869.00048-14.03399.19205-19.49218 3.95508-10.35619 7.13985-12.49453 21.92777-20.16602 31.89649-4.57589 5.94614-10.3868 10.8368-15.30859 16.5-5.3395 6.1439-11.200113 11.97791-15.412108 18.94336-2.529198 4.18265-4.215693 8.84613-5.775391 13.47851-1.476399 4.38492-2.454929 8.92965-3.361328 13.4668-1.786598 8.94339-3.320579 17.96626-4.080078 27.05469-.7625 9.12383-.905403 18.31759-.470703 27.46289.612699 12.89004 1.581187 25.86312 4.333984 38.4707 2.815497 12.89489 5.693053 26.22982 12.373047 37.61328 10.376687 17.68309 24.141077 34.58252 41.634757 45.27539.9038.55241 1.99951.74896 3.0625.84766 0 0 71.19106 9.82815 107.01172 9.82812 35.82007-.00003 107.00977-9.82812 107.00977-9.82812 1.063-.0987 2.1587-.29525 3.0625-.84766 17.49368-10.69287 31.25806-27.59231 41.63476-45.27539 6.67999-11.38346 9.55754-24.71838 12.37305-37.61328 2.75277-12.60758 3.71932-25.58066 4.33203-38.4707.43471-9.14531.29176-18.33906-.4707-27.46289-.7595-9.08843-2.2915-18.1113-4.07813-27.05469-.90638-4.53716-1.88686-9.08188-3.36328-13.4668-1.55974-4.63237-3.24615-9.29586-5.77539-13.47851-4.21197-6.96544-10.07062-12.79947-15.41015-18.94336-4.92175-5.66321-10.73466-10.55386-15.31055-16.5-7.67159-9.96871-9.80983-24.75664-20.16602-31.89649-5.45819-3.76303-16.26349-3.9546-19.49218-3.95508l-3.35352 8.42188c-4.66669 1.85876-9.56133 3.70682-14.54883 4.8125-13.34548 2.95853-27.09228 3.85824-40.73047 4.7832-8.55339.58011-25.71289.47656-25.71289.47656s-17.1627.10359-25.71679-.47656c-13.63809-.92495-27.38313-1.82467-40.72852-4.7832-4.98759-1.10568-9.88409-2.95374-14.55078-4.8125zm-9.58984 22.54883c1.42065.66249 2.89871 1.2396 4.31836 1.85547 5.92319 2.56958 12.06198 4.74915 18.35937 6.17383 14.65979 3.31655 29.76774 4.37948 44.76172 5.42383 8.81289.61382 26.5.49023 26.5.49023s17.68391.12355 26.4961-.49023c14.99398-1.04436 30.10378-2.10728 44.76367-5.42383 6.29739-1.42468 12.43423-3.60425 18.35742-6.17383 1.3688-.59381 2.79024-1.15472 4.16406-1.78711 4.01625 6.76404 10.14789 16.74206 15.95313 24.20703 4.82969 6.21052 10.82911 11.42164 16.0039 17.34766 4.6732 5.35163 9.90933 10.3473 13.57813 16.43164 1.83947 3.05063 2.99487 6.48177 4.10937 9.86523 1.21256 3.68113 2.02817 7.48763 2.78321 11.28907 1.64455 8.27992 3.08866 16.627 3.79492 25.03906.70046 8.34296.82146 16.75014.42969 25.11328-.55744 11.89974-1.46534 23.86856-3.94922 35.51953-2.36354 11.0865-4.7827 22.52026-10.35352 32.39258-8.13469 14.41591-19.62359 30.55093-32.67578 37.39453 0 0-68.81971 9.65231-103.45508 9.65234-34.63606.00003-103.45898-9.65234-103.45898-9.65234-13.05219-6.8436-24.53914-22.97863-32.67383-37.39453-5.57079-9.87233-7.98992-21.30608-10.35352-32.39258-2.48389-11.65096-3.39367-23.61978-3.951163-35.51953-.391799-8.36314-.270812-16.77032.429688-25.11328.706295-8.41206 2.150315-16.75915 3.794915-25.03906.7551-3.80144 1.57256-7.60794 2.78516-11.28907 1.1145-3.38345 2.26792-6.81461 4.10742-9.86523 3.6687-6.08435 8.90493-11.08001 13.57813-16.43164 5.17479-5.92602 11.19441-11.12151 16.0039-17.34766 5.75507-7.45023 11.73449-17.35994 15.79883-24.27539z" fill="#7f8899" fill-rule="evenodd" stroke-width=".999999"/><path d="m360.07422 404.02863s-23.74739 3.98331-35.73047 5.00195c-24.70305 2.09993-49.54966 2.26953-74.3418 2.26953s-49.63874-.16969-74.3418-2.26953c-11.98372-1.01865-23.80782-3.39071-35.73242-5.00195-2.24769 1.68079-5.76795 2.49337-5.63668 5.00195.31915 6.09889 9.20092 8.46473 14.8984 10.66406 7.95483 3.0707 16.90586 2.32896 25.4102 2.94922 25.07885 1.82912 50.25684 2.26759 75.4023 2.26758 25.14483-.00001 50.32218-.43861 75.4004-2.26758 8.50497-.62027 17.45667.12167 25.4121-2.94922 5.69749-2.1993 14.57977-4.56515 14.8984-10.66406.13108-2.50907-5.63863-5.00195-5.63863-5.00195z" fill="#9facc6"/><path d="m128.7061 146.71728c-3.77509 5.94735-4.4795 13.7026-4.0791 20.73552.1977 3.47148 1.3517 6.97188 3.1622 9.94044 1.5679 2.57083 4.0294 4.51875 6.4001 6.3755 3.8876 3.0449 8.1133 5.77048 12.6652 7.68487 8.5493 3.59554 17.7896 5.47531 26.9531 6.90625 25.1013 3.91971 76.1924 4.49218 76.1924 4.49218s51.0911-.57247 76.1924-4.49218c9.1636-1.43094 18.4038-3.31071 26.9531-6.90625 4.552-1.91439 8.7776-4.63997 12.6653-7.68487 2.3706-1.85675 4.8321-3.80467 6.4-6.3755 1.8105-2.96856 2.9646-6.46896 3.1622-9.94044.4005-7.03292-.30623-14.7867-4.079-20.73552-3.86949-6.10131-17.45416-12.85076-17.45416-12.85076l-22.84379 4.46679c-4.6667 1.85876-9.5632 3.70682-14.5507 4.8125-13.3455 2.95853-27.0904 3.85825-40.7286 4.78321-8.5534.58011-25.7148.47656-25.7148.47656s-17.1627.10359-25.7168-.47656c-13.6381-.92495-27.3831-1.82468-40.7285-4.78321-4.9876-1.10568-9.8841-2.95374-14.5508-4.8125l-23.42577-4.01952s-13.13295 6.5098-16.87398 12.40349z" fill="#7f8899" fill-rule="evenodd"/><path d="m205.45975 147.42902c-13.75802-.0651-27.98891-.92617-38.3125-.093-5.15347.41591-10.56717.43092-15.31057 2.48828-2.8819 1.24996-6.1283 2.91321-7.4609 5.75781-2.0798 4.4396-2.4069 10.78443.5469 14.69726 6.6775 8.84529 20.7245 8.2367 31.61519 10.29102 24.13998 4.55353 73.46485 4.28711 73.46485 4.28711s49.32487.26642 73.46484-4.28711c10.89069-2.05432 24.93774-1.44573 31.61524-10.29102 2.95389-3.91283 2.62667-10.25766.54687-14.69726-1.3326-2.8446-4.57904-4.50785-7.46094-5.75781-4.74329-2.05736-10.15695-2.07237-15.31054-2.48828-27.52958-2.22171-82.85547 1.0696-82.85547 1.0696s-21.61294-.86809-44.54297-.97657z" fill="#9facc6" fill-rule="evenodd"/><path d="m151.55465 149.55989c2.4052 2.32032 5.7603 3.42581 8.8262 4.75585 5.9232 2.56958 12.062 4.74915 18.3594 6.17383 14.6598 3.31655 29.7696 4.37948 44.7636 5.42383 8.8129.61382 26.4981.49024 26.4981.49024s17.6839.12354 26.4961-.49024c14.994-1.04436 30.1038-2.10728 44.7637-5.42383 6.2974-1.42468 12.4361-3.60425 18.3593-6.17383 3.0659-1.33004 6.421-2.43553 8.8262-4.75585 3.1217-3.01157 6.5801-4.94542 6.5801-11.22657s-3.4584-8.21499-6.5801-11.22656c-2.4052-2.32032-5.7603-3.42567-8.8262-4.75586-5.9232-2.56994-12.0618-4.75089-18.3593-6.17578-14.6598-3.31692-29.7697-4.37785-44.7637-5.42188-8.8122-.61359-26.4961-.49023-26.4961-.49023s-17.6852-.1234-26.4981.49023c-14.994 1.04402-30.1039 2.10496-44.7636 5.42188-6.2976 1.42489-12.4361 3.60584-18.3594 6.17578-3.0659 1.33019-6.421 2.43554-8.8262 4.75586-3.1217 3.01157-6.58 4.94541-6.5801 11.22656 0 6.28115 3.4584 8.215 6.5801 11.22657zm164.8907-6.41407c-13.3455 2.95853-27.0904 3.85825-40.7286 4.78321-8.5534.58011-25.7148.47656-25.7148.47656s-17.1627.10359-25.7168-.47656c-13.6381-.92495-27.3831-1.82468-40.7285-4.78321-4.9876-1.10568-9.8841-2.95374-14.5508-4.8125 4.6667-1.85875 9.5632-3.70682 14.5508-4.8125 13.3454-2.95853 27.0904-3.85825 40.7285-4.7832 8.5541-.58015 25.7168-.47656 25.7168-.47656s17.1614-.10355 25.7148.47656c13.6382.92496 27.3831 1.82467 40.7286 4.7832 4.9875 1.10568 9.884 2.95375 14.5507 4.8125-4.6667 1.85876-9.5632 3.70682-14.5507 4.8125z" fill="#7f8899" fill-rule="evenodd"/><g fill-rule="evenodd" transform="translate(.000004 22.553433)"><path d="m240.16797 60.371094c-5.62517.04125-12.55499.17362-17.77539.537109-15.00024 1.044454-30.93209 2.10026-47.1836 5.777344-7.54235 1.706527-14.60335 4.242616-21.19726 7.103515-2.12494.921938-7.63774 2.198512-13.56641 7.917969-.66769.644135-3.07241 2.266389-6.07226 6.199219-2.99986 3.93283-5.39834 10.465979-5.39844 16.54297 0 6.0771 2.39853 12.61011 5.39844 16.54297 2.9999 3.93285 5.40463 5.55513 6.07226 6.19922 5.92844 5.71922 11.44266 6.9958 13.56836 7.91796 6.59551 2.86124 13.65512 5.39573 21.19531 7.10157 16.24999 3.6763 32.18219 4.73443 47.1836 5.77929 10.32459.71911 27.1185.53356 27.49804.5293 0 0 17.27798.19792 27.71875-.5293 15.0014-1.04487 30.93353-2.10299 47.1836-5.77929 7.54023-1.70585 14.59986-4.24035 21.19531-7.10157 2.1257-.92216 7.63992-2.19874 13.56836-7.91796.66764-.64409 3.07236-2.26637 6.07227-6.19922 2.9999-3.93286 5.39843-10.46587 5.39843-16.54297 0-6.077102-2.39853-12.610114-5.39843-16.54297-2.99991-3.932856-5.40464-5.555143-6.07227-6.199219-5.92867-5.719457-11.44147-6.996031-13.56641-7.917969-6.59394-2.86096-13.65506-5.396995-21.19726-7.103515-16.25159-3.677077-32.18337-4.732881-47.1836-5.777344-10.32321-.718801-27.11649-.533552-27.49609-.529297 0 0-4.32014-.04906-9.94531-.0078z" fill="#68423a"/><path d="m151.55465 115.67579c2.4052 2.32032 5.7603 3.42581 8.8262 4.75585 5.9232 2.56958 12.062 4.74915 18.3594 6.17383 14.6598 3.31655 29.7696 4.37948 44.7636 5.42383 8.8129.61382 26.4981.49024 26.4981.49024s17.6839.12354 26.4961-.49024c14.994-1.04436 30.1038-2.10728 44.7637-5.42383 6.2974-1.42468 12.4361-3.60425 18.3593-6.17383 3.0659-1.33004 6.421-2.43553 8.8262-4.75585 3.1217-3.01157 6.5801-4.94542 6.5801-11.22657s-3.4584-8.21499-6.5801-11.22656c-2.4052-2.320324-5.7603-3.425674-8.8262-4.755864-5.9232-2.56994-12.0618-4.75089-18.3593-6.17578-14.6598-3.31692-29.7697-4.37785-44.7637-5.42188-8.8122-.61359-26.4961-.49023-26.4961-.49023s-17.6852-.1234-26.4981.49023c-14.994 1.04402-30.1039 2.10496-44.7636 5.42188-6.2976 1.42489-12.4361 3.60584-18.3594 6.17578-3.0659 1.33019-6.421 2.43554-8.8262 4.755864-3.1217 3.01157-6.58 4.94541-6.5801 11.22656 0 6.28115 3.4584 8.215 6.5801 11.22657z" fill="#b06f48"/><path d="m286.68164 14.658796.16992.173829zm-40.9375 2.925782.16602.175781zm-55.10937.667968.16992.173829zm56.03125.84375.16601.175782zm-51.10938.970704.16602.177734zm4.75195 1.640625.16602.177734zm47.66797 3.158203.16602.173828zm-11.57812.07031.13867.330078zm-11.07227.595703.16992.173828zm-9.13476.03906.16601.173828zm47.38086.470703.16601.173828zm-44.4961.332031.16992.173828zm84.35547.207031.16797.175782zm-21.42969.648438.16993.175781zm11.9043 1.373047c2.70775.01438 8.84016.282615 0 0zm19.43359.21289.16993.173829zm.0801.634766.16797.175781zm4.01758 1.242188.16992.177734zm-2.30078.359375.16992.175781zm-3.91797.328125.16797.177734zm2.18164.251953.16797.175781zm5.1875.443359.16992.173828zm-5.27539.01563.16602.175781zm4.13672.634766.16797.173828zm12.16211 1.08789.16797.175782zm-2.47071.183594.16993.175781zm.70704.550781.16601.175782zm43.35937 8.591797.16992.173828zm-27.71484 2.734375.16992.175781zm-189.7793 1.521485.16992.177734zm40.94336 3.320312.16797.175781zm23.5 2.242188.17187.173828zm-.45508.259765.16992.175781zm17.24024 1.052735.16992.173828zm12.67968.52539.16797.175781zm-6.10156.07617.16992.175781zm8.33594.960938.16601.177734zm80.85937.429687.16993.177734zm-59.47265.164063.16992.175781zm-15.63477.07031.16992.175781zm17.81641.181641.16992.175781zm36.05078 1.347656.16992.175781zm-35.55273.271484.16796.173828zm64.41406 2.589844.16797.175781zm-64.45313 4.898438.16602.175781zm-41.15429 6.761718c-2.40451.05797-4.80882.119871-7.21094.238282 15.71051 2.138676 31.43482 4.236761 47.19336 6.287109 15.15419 3.309899 30.71045 4.043009 46.1875 6.5625 3.28767.36418 5.90717 1.254064 8.40625 1.783203-2.90585.46804 7.05755 1.195838 5.91211 2.847656 5.52881-.962349-4.03136 2.79206 4.69922 2.71875 4.29346.801619 12.74379 1.414547 10.96875.179688 1.96574.160197 3.83053.260425 5.74023.392578-.53333-.556434-1.08442-1.094725-1.6543-1.617188-.93749-.184694-1.86056-.382924-2.71093-.644531-5.40543-1.279689-13.29879-5.012041-20.98829-5.8125-15.8649-3.682017-32.91467-3.176652-49.04687-6.427734-15.78325-2.334289-31.63096-4.448902-47.49609-6.507813zm-23.5879 1.416016c-1.13308.0957-2.26581.17282-3.39843.277344 15.5344 2.251453 31.06476 4.516415 46.54101 6.988281 15.60141 3.090487 33.41067 3.031733 46.30469 10.818359 6.53858 2.448268 14.07994 3.567694 20.95117 4.914063 6.37109 1.866648-5.7673.472851-8.27148.138672-9.7215-1.287089-18.86304-3.835768-28.10938-6.134766-16.70215-5.863994-35.2871-5.450195-52.95312-8.210937-15.0887.633369-29.3559-3.464515-43.93946-6.009766-.62335.10833-1.24897.20321-1.87109.318359 15.16596 2.37879 29.84173 6.878453 45.52344 6.373047 14.81391 2.130769 30.30634 1.882701 44.6543 5.710938 10.24404 3.781796 21.43505 5.785885 32.32226 8.320312 10.36263 2.362518 19.47558 1.857945 29.95313 2.271485 8.36847.460519 16.22045-1.739407 20.8457-1.810547.003-.000714.003-.0012.006-.002-.15597-.348492-.32839-.688217-.51367-1.023438-1.3751-.0072-3.05753.03008-2.54688.04883-9.79494-1.285259-17.99879.177222-27.98633-2.134765-3.44878-1.046469-1.68041-1.137129-4.97461-2.941407-1.27682-1.136739 5.41471-.799933-.29296-1.257812 11.9419-.32842-19.17741-1.63143-10.20313-.550781-7.93658-.65028-12.25166-1.515017-7.0293-1.591797 4.72995.771719 15.57329 1.811456 14.37696.273437-6.37001.56964-12.24066-1.644473-2.70118-.240234 4.0574-.746709-9.12209-1.204206-12.16601-1.384766 4.07239.706629-8.55868-.40323 2.29883.761719-5.08553.443019-26.48951-3.71299-37.35352-5.015625-18.66429-2.510001-37.13262-6.30919-56.0625-8.394531-1.12989-.181767-2.27232-.334713-3.4043-.511719zm84.4043 1.269531c5.1244 1.030125-7.02413-.505847-.62109.869141-4.30914.533444 14.34472 1.274758 18.35156 2.892578 8.70648 1.212369 17.35565 2.65166 25.97852 4.185547-6.84431-2.733857-13.95922-4.78466-21.22266-6.039063-2.76032-.512717-5.53207-.944893-8.30859-1.339843-4.25529-.09404-11.10702-.500497-14.17774-.56836zm47.80664.363281.16602.175782zm-51.98242.246094.16992.175781zm-147.20898.660156.16992.175782zm116.89257.837891.16797.175781zm-88.85351 3.175781c-.93728.300623-1.87209.607513-2.80078.933594 12.88779 1.838438 25.72497 3.874911 38.57422 5.925781 15.86671 3.317947 32.38977 3.849266 48.19531 7.201172 13.53096 5.626169 29.23563 7.599049 44.3418 9.324219 17.54237.94487 35.06459 2.49902 52.70312 2.08985 1.59133-.11237 4.54026.0129 7.71289.17773.0158-.1565.041-.31177.0527-.46875-19.17619-.32764-38.279-.46616-57.48243-2.07226-14.14825-.8096-28.27931-3.28404-41.47851-7.287117-12.4771-6.378014-28.6779-3.707855-42.31055-7.869141-15.95198-2.260679-31.65798-5.278284-47.50781-7.955078zm27.5039.363282.14063.328125zm.73633.396484c8.63436 2.831197 18.78739 4.610425 28.90039 5.015625 4.66554-.716939 19.42228 1.969959 6.57422.875-9.15191-.14709 8.7557 2.133548 8.38282 1.199219 2.28765.239059 5.89226.195448 9.65234.679687 2.99289.10219-4.42314-1.380418 3.16211-.474609 1.31909-.345268 4.41067 1.299523 3.23047 1.322265 3.76222.650666 15.54496.94423 2.875.626954-4.24561.458339 7.87893 2.354319 9.46875 2.15625 12.95804 1.776128-9.74704-1.122084-.96875 1.365234.36041.720619 12.05736 2.274558 1.28906 1.068359 2.21187 1.531219 9.11154 1.392883 2.20508 1.189453 5.22703 1.293469 8.21484 1.124732 2.11523 1.013672 8.99312 2.836601 19.82182 4.388421 30.14649 5.205081 7.28662 1.7206 21.91489 2.36958 31.94531 2.21875 6.93271-.3111 14.3796.0287 21.5918.19727.0563-1.74807-.14791-3.49904-.63672-5.167976-1.51894.08124-2.92352.120588-3.94336-.002-12.92463 1.036866-26.06743 1.394156-39.00977.623046-9.4879-1.148928-17.97834-1.92085-27.22656-4.330077-4.85999-1.847918-12.42273-1.910535-17.26172-4.544922-1.2676-.617489-6.53397-3.175641-11.53711-3.050781-6.53782-1.005589-12.806-.06566-19.0625-2.507813-12.0963-1.541778-23.59506-1.753203-35.80273-3.662109-1.67019-.899562-4.05375-.795874-6.08985-1.015625zm59.90235 8.617187c-.22664-.0392-.67065-.06558-.83008-.107421.38898.08162.65338.110826.83008.107421zm-52.04883-7.095703c.5228-.01311.48183.514975-.68945.244141.2787-.173766.51518-.239771.68945-.244141zm-2.67578.01367.16797.173828zm4.0332.08008c.56571.0034.72762.738016-.6582.310547.2358-.231481.46963-.311672.6582-.310547zm93.99023.767578.16993.175782zm.79493.0918.16797.173828zm1.78711.208985c-.0655-.01582-.17582-.0073-.34571.05273.32312.259931.54224-.0053.34571-.05273zm.57031.130859c.95522.542649 1.50449-.183983 0 0zm2.03711.0098.13867.328125zm-.63477.07617c-.0213-.01545-.0625-.0064-.1289.05859.0851.265298.19284-.01224.1289-.05859zm-79.66406.470703c.25273.07368-.12829.406619-.48828.04687.2493-.06888.40404-.07143.48828-.04687zm-67.81445.166015c-.37595.158738-.74802.325579-1.12305.486328 17.73105 2.04309 35.35111 4.618358 53.05078 6.677735 12.20734 2.384407 24.91641 2.879862 36.87305 6.042969-9.5946-3.069817 16.89755 3.407434 1.11133-.496094-6.44744-1.562799-9.47587-1.106083-10.7168-2.394531-17.33506-1.631279-34.17003-5.314718-51.59375-6.822266-9.15726-1.236025-18.37795-2.428477-27.60156-3.494141zm159.36328.896485.16601.177734zm-82.19727.251953c1.9471-.16495.67478.563859 0 0zm84.56836.01367c-.0219-.01537-.0634-.0043-.13086.0625.089.267817.19658-.01639.13086-.0625zm-102.65625.02344c-.0212-.01585-.06-.0066-.12695.05859.0833.269467.19063-.01104.12695-.05859zm.57617.230469c3.54001 1.091159 19.8259 4.349451 16.26758 1.876953-6.60028-.18368-9.9181-1.747673-16.26758-1.876953zm24.30469.140625c-.0213-.01545-.0625-.0044-.1289.06055.0851.265297.19285-.01419.1289-.06055zm54.93945.257812.16602.177735zm-.42773.107422.16797.175782zm-50.88086.212891c-.0566-.02977-.20774-.01221-.50976.101562-.00054.490545.67948-.01226.50976-.101562zm78.79688.195312.16992.177735zm-78.1211.03516c-.0219-.01537-.0634-.0043-.13086.0625.0891.267892.19665-.01638.13086-.0625zm63.70703.02148.16993.175781zm-63.30078.03516.16602.175782zm.5918.06836.16992.175781zm-7.11914.117187c.19774.04745-.0166.317982-.34571.05469.16872-.06192.27979-.0705.34571-.05469zm74.65039.02344.16601.175781zm-162.80274.09375c-.36629.203047-.7202.425155-1.07421.648437 27.52474 3.188181 55.23679 5.353673 82.59179 9.423828 10.5888 2.299528 5.15461.514553-1.70703-.628906-26.36613-4.257926-53.1498-6.521765-79.81055-9.443359zm86.67579.18164c.19611.04863-.0272.317424-.34766.05273.1706-.0606.28228-.06894.34766-.05273zm73.41601.02734c.0639.04637-.0419.325859-.12695.06055.0664-.06496.10564-.076.12695-.06055zm13.60156.01563.16993.177734zm-8.11328.002.16797.175781zm-81.09765.08984c3.70478.0497 4.63572.893999 0 0zm4.10351.388672c.0638.0464-.0422.323951-.12695.05859.0664-.06493.10567-.07406.12695-.05859zm89.46289.01367c.0636.04762-.0458.330134-.1289.06055.067-.0651.10769-.07642.1289-.06055zm-23.57814.247968c.065.04794-.0433.329793-.12891.05859.068-.06544.10725-.07457.12891-.05859zm-68.81836.0078c-.14529-.03381-.39222-.0432-.76758.0039.71914.40938 1.20345.09753.76758-.0039zm19.66992.251953c.0642.04581-.0409.328705-.12695.0625.0664-.06646.10554-.07777.12695-.0625zm62.65234.207031c-.0294-.02614-.0888-.0025-.18945.125.1011.480495.27768-.04658.18945-.125zm-83.38476.06641.16797.173828zm11.54687.08398.16797.173828zm74.90039.06641.11719.15625zm-61.39257.05664c.25201.07384-.12834.413533-.48633.05078.24913-.07027.40232-.07539.48633-.05078zm62.13671.01367.13672.330078zm-10.75.01367c.19698.04858-.0279.316306-.34961.05273.17143-.06006.28396-.06893.34961-.05273zm5.66993.02734c3.04103 1.349089 6.49721.35123 0 0zm12.70703.373047.16992.173828zm-75.67383.01172.14062.330078zm67.13281.0957.16797.173828zm-19.48437.0059c7.38615.552029 11.89467 1.672908 2.54101.537109l-2.35156-.427734zm29.01758 0 .16796.175781zm1.42187.0098c.19663.04877-.0261.317799-.34766.05273.17093-.06055.28212-.06899.34766-.05273zm-10.36133.05273.16992.173828zm-65.8789.474609c-.0808.000149-.19735.03833-.34571.146484.50867.193245.58812-.146931.34571-.146484zm60.10351.0957c.82307.129041.49294.413563-.79492.136719.0558.153647-.8708.554778-1.31641.167969.61164-.171396.93641-.213338 1.125-.208985-.16845-.04143-.2474-.03129-.44726-.09375.63398-.06892 1.11206-.05236 1.43359-.002zm-.98633.0957c.0722.01775.12499.02674.19141.04102-.0112-.03073-.0888-.03865-.19141-.04102zm-12.81445-.0625c1.95108-.16506.67073.56458 0 0zm-36.1543.148438c.1966.04758-.0149.321435-.34375.05664.16685-.06252.27822-.0725.34375-.05664zm49.59766.232422c.25261.07344-.12897.40768-.48828.04883.24947-.06881.40407-.07331.48828-.04883zm-169.86133.05664c-.13223.127758-.27542.24366-.4043.375-.11354.09786-.22079.209164-.33398.308594 11.05513 1.579536 22.05344 3.221363 33.35156 3.607422 25.82128 1.741298 51.55921 4.43749 76.66406 9.484374 30.71852 4.2139 61.73275 6.96862 92.88282 8.39062 1.13337-.00051 3.34558.17088 5.91015.40234.10233-.13826.19722-.28071.29493-.42187-21.75347-1.67261-43.69524-1.79885-65.27735-4.74023-21.91252-1.50525-43.25473-5.80001-64.74414-9.248047-22.74198-2.930227-45.80508-4.081558-68.5957-6.572265-2.89649-.376457-6.33204-1.012147-9.74805-1.585938zm177.00586.01172.16992.173828zm-21.95508.134766c5.70462.0766 23.93322 1.685837 9.43555.605468 5.49985 1.189399 10.84298 1.909561 1.31836.607422-3.46157-1.053909-7.35515-.293621-10.75391-1.21289zm19.44727.189453c-.0219-.01537-.0634-.0043-.13086.0625.0889.267817.19657-.01638.13086-.0625zm.40625.05664.16992.175782zm10.32812.09766.16797.177734zm-11.60742.224609.16797.173828zm-.54297.136719c.52023.04265-.61608.646629-1.15625.203125.62476-.17057.98284-.217342 1.15625-.203125zm-1.73633.05859c.0653.04666-.0432.327397-.13086.06055.0674-.0653.1091-.0761.13086-.06055zm15.06055.107422c3.795-.404059 4.49246 1.378279 0 0zm-9.61719.05273c-.0213-.01545-.0625-.0044-.1289.06055.0851.265289.19284-.01419.1289-.06055zm-178.42578.443359c-.24455.228979-.49679.443929-.73437.681641 14.51866 2.43084 29.07013 4.752337 43.98633 5.228515 22.61499 1.705716 44.79877 5.415926 66.9121 9.267576 31.49119 4.58344 63.42746 6.6099 95.08204 10.4668.14053-.13504.29096-.25937.42773-.39844-39.9395-4.70137-80.44894-6.68354-119.68359-14.48437-23.00636-4.038309-46.60718-5.189302-69.86133-7.910159-5.10961-.688872-10.73262-1.921852-16.12891-2.851563zm165.66797.503906c4.1475.10535 4.18612.824889 0 0zm22.51953.0332.16992.173829zm-14.44531.205079c1.80615.02541 3.21051.581938 1.63281.324218-.18835.175167-.93383.41837-1.3164.09375.50383-.138551.70657-.149474.92382-.169922-.36844-.0686-.61877-.103084-1.24023-.248046zm1.24023.248046c.1165.02169.29886.06086.39258.07617.0945-.08792-.0734-.106213-.39258-.07617zm13.80274-.24414c9.0798 1.887588 8.78471.0228 0 0zm-18.50195.06836c.19676.04796-.0206.314259-.34571.05273.16916-.06003.28012-.06872.34571-.05273zm19.19531.330078c-.0212-.01585-.06-.0066-.12696.05859.0833.269467.19064-.01104.12696-.05859zm14.19726.08594.16602.173828zm-13.22461.191406.16993.173828zm-3.86132.02148.16992.175782zm4.25976.02344.16406.173828zm-66.77734.09375c.0654.04665-.0411.327434-.12891.06055.0674-.06533.10712-.0761.12891-.06055zm67.33789.126953.16992.175781zm-1.47852.296875.16992.175781zm-104.36132.451172c5.84777.19554 6.67922 1.117969 0 0zm-.12696 1.701172.16797.177734zm104.95703 0c5.89419.337779 5.27727.979349 0 0zm-102.42187.449219c4.08443 1.551198 19.7268 3.768996 5.99414 1.085937-1.93836-.39443-4.03217-.996618-5.99414-1.085937zm109.09765.0078c2.17383-.18345 2.60969.611519 0 0zm-200.90625.07422c-.20455.368798-.38827.74818-.55468 1.136719 10.9302 1.937527 21.67983 4.604787 33.08398 4.273437 17.41685-.0314 34.51257 3.0353 51.77539 3.94531-6.02097-.53728-17.17979-2.25031-5.04883-.79296 6.44344.92313 29.0463 4.0651 11.84571 1.24414-22.98202-3.01335-46.19229-5.01417-69.44336-5.92383-6.64235-.17957-14.69397-2.775871-21.65821-3.882816zm105.63086.888672c4.78094 2.142234 20.30767 3.986564 5.81446 1.308593l-2.88868-.666015zm31.38282.345703c.1969.0477-.0243.310828-.34766.05078.17043-.05967.28202-.06668.34766-.05078zm-24.49414.763672c-.0656-.01594-.17795-.0074-.34766.05273.32459.261217.54455-.0049.34766-.05273zm-39.4668.175781c-.1211.0309-.24841.100342-.375.220703 1.78754 1.203545 1.22271-.436991.375-.220703zm40.22656.06445.16992.175781zm-12.29687.03516c-.20804.01377-.38591.05498-.52539.13086 4.25545.883568 17.9837 3.439308 6.08398.818358-1.19298.18573-4.10237-1.045634-5.55859-.949218zm-25.02344.0957c-.40396-.052-1.03724-.02734-1.92578.16211 2.27865.840208 3.13766-.0061 1.92578-.16211zm38.26367.181641c5.35562 1.627327 18.32585 2.779257 6.08398 1.121097-1.49837-.18312-4.75431-1.433647-6.08398-1.121097zm-8.15625.259766.16992.177741zm1.95508.382821c6.25933 1.83731 14.82698 2.68836 4.72461 1.6582 8.62976 2.02818 22.35039 2.32882 28.56836 4.07226 9.29382.66457 19.98156 2.10696 29.80078 2.7461 14.64481.75004 29.33328 1.18837 43.94922 2.12109.10158-.22719.20977-.45124.29687-.68555-5.24086-.16351-10.66337-.20162-15.36133-.85937-22.75696-.4293-45.51326-1.86857-67.84375-5.23438-10.50673-.74186-11.5709-1.09592-5.23437-.85742-6.44272-.54989-12.64315-1.68258-18.90039-2.96093zm-105.52344.1582.14063.32812zm.53711.375c15.6234 5.42617 33.02195 2.68519 49.46094 5.00586 4.39396-.23463 24.26985 3.03209 21.47851 1.43945-16.77021-2.02769-34.57141-4.38915-51.41601-3.56836-6.60935-.38157-13.21149-2.33583-19.52344-2.87695zm83.89648.4668.16993.17773zm34.66407.0879c-.0219-.0154-.0634-.004-.13086.0625.0891.26788.19665-.0164.13086-.0625zm.60351.0781.16992.17774zm-33.9082.14842.16992.17383zm34.47461.0742c9.56115 1.77831 16.24181 2.13243 22.04101 3.29297 23.34651 3.03858 47.1487 3.20058 70.76758 4.53515.0721-.24154.15749-.47743.21289-.72656.00031-.001-.0003-.003 0-.004-6.44345-.24594-13.20822-.23628-19.11718-.77929-12.27013-.56136-26.19439-.84562-36.94727-1.96875-8.55684-.3351-16.13209-1.3179-23.99219-3.01563-4.24257.11938-2.77696-.23827-5.85547-.83203-5.64723-.87619 2.55348 1.01356-5.56445-.47852zm-124.27344.006c-.0611.37905-.0976.76127-.13476 1.14453 12.41203 2.01953 24.8224 4.16878 37.625 3.82422 11.56873.76605 21.45903 1.57113 31.87109 2.43359 13.61923 1.44685 27.09912 3.60411 40.75586 4.85156-10.31754-1.63426-21.68688-2.70634-32.33008-4.09375-18.7369-2.82044-37.74778-4.20035-56.7793-4.4707-6.64155-.17406-14.29397-2.66429-21.00781-3.68945zm93.73633.52929c29.01686 6.84775 60.12018 8.87466 90.26953 12.30274 9.15723.70554 18.25512 1.74493 27.3418 2.84961.27128-.23807.53197-.49265.79883-.74024-8.17769-.9497-16.73162-1.6565-24.41993-2.5625-12.67223-1.09865-25.35306-2.25723-37.8789-4.1289 21.31143 2.2758 42.86872 2.80406 64.21289 4.71289.24903-.28491.51892-.55365.75-.85157-6.38447-.46526-13.10339-.6531-18.84961-1.2207-32.44754-1.92891-65.22393-4.14365-96.83789-9.89453l-2.61719-.1543zm42.85938 1.13672c2.7439-.0717 3.13077.72752 0 0zm-2.05274 1.16797c2.99998-.044 3.83036.74711 0 0zm8.21094 1.1543c.0643.0458-.0407.32875-.12696.0625.0664-.0665.10552-.0778.12696-.0625zm-54.84961 1.48828c5.71483 1.23406 20.98689 3.206 7.32422.82226-2.40765-.41836-4.85133-.76092-7.32422-.82226zm-87.90235.13086c.0361.22085.0739.44125.11915.66015 20.84219 2.525 41.98765 3.78869 62.78515 5.68946 8.77602 1.50824 18.30832 2.5476 26.95508 3.26562-6.89404-.91161-29.09298-3.79325-11.19727-1.66992 5.42449.92589 16.33367 1.63304 4.76954.24805-27.56547-4.22721-55.77098-4.52814-83.43165-8.19336zm79.01563.7168.16602.17578zm.79297.0898.16601.17773zm-79.63672.14648c.25063 1.10543.61611 2.18164 1.11523 3.19922 16.97476 1.73577 34.18854 2.12646 51.125 4.28516 20.92583 1.66392 41.93585 5.24152 62.66407 6.7207-8.47209-2.01322-21.61739-3.35918-31.98047-5.07031-22.0669-3.2643-44.35104-5.23242-66.67383-7.0918-4.59583.24552-10.81512-1.28856-16.25-2.04297zm100.88672.11914.16601.17774zm1.74609.35157c-.0212-.0159-.062-.007-.1289.0586.0833.26947.19258-.011.1289-.0586zm.4043.0547.16992.17579zm-37.56641.19141.16797.17773zm38.92578.12109.16993.17579zm-38.56054.0781c7.66125 1.61141 17.33961 1.66199 4.49218.33594l-1.54296-.15821zm41.53906.26562.13672.32813zm-4.48633.10743.16992.17382zm5.16016.5957.16797.17383zm1.88086.43164c3.32858.97822 10.52539.7555 0 0zm-31.65039.34766c2.06756.13863 21.24715 3.00943 12.33593 1.13086-4.07793-.3955-8.53314-1.4123-12.33593-1.13086zm43.26758.43945c-.0841-.0247-.23865-.0202-.48829.0469.35828.35789.74067.0272.48829-.0469zm.63867.0898c-.0218-.0156-.0615-.005-.12891.0605.0878.26692.19428-.0139.12891-.0605zm.60351.0781.16992.17578zm.39844.0469.13867.32813zm-.84961.32813c-.35736-.063-.90417-.081-1.65039.008 2.0875.76463 2.72248.18119 1.65039-.008zm-120.83789.23044c.12659.22438.24269.45438.38281.67187 12.44307 1.06051 25.06395 1.08787 37.41797 2.90039 7.52126.77376 14.95984 1.64049 22.39649 2.51172-.0661-.0296-.14909-.0421-.19336-.0918.88671-.21855 1.25593-.2566 1.57421-.28125-4.50503-.57054-11.69856-1.40536-13.91406-1.62695-15.80485-1.99584-31.79198-2.7416-47.66406-4.08398zm61.57812 5.71093c.19802.0251.28149.0387.4668.0625.0925-.0864-.12718-.0888-.4668-.0625zm.4668.0625c-.14215.13288-.62936.32755-1.12695.39258 5.98734.70128 11.97105 1.40715 18.01367 2.05078 8.98059 1.34556-9.97367-1.08491 1.13672.60743 6.48845-.066 9.6428 2.02954 20.56445 2.58007-12.13993-2.60313-25.28291-3.96118-37.85156-5.33398 4.12088.36841 2.38274.10397-.73633-.29688zm-1.12695.39258c-.23955-.028-.48117-.054-.7207-.082.19324.0865.43909.11884.7207.082zm33.15234-5.54101.16602.17578zm32.85547.0449c7.45272.69887 15.15029 1.92324 22.53711 1.97461-7.41077-.72922-15.4512-1.71508-22.53711-1.97461zm-30.87305.18359.16993.17578zm1.55665.31446c7.94115 1.33593 16.99922 2.01989 25.36914 3.10546-6.86804-2.12302-17.49603-1.87474-25.36914-3.10546zm46.94335.58984c-.0213-.0155-.0606-.004-.12695.0605.0851.26529.19089-.0142.12695-.0605zm-78.49609.01c.19579.0488-.0243.31795-.3457.0527.16952-.0607.28044-.069.3457-.0527zm1.53125.14844c.25276.0736-.12834.40824-.48828.0488.24938-.0688.40403-.0734.48828-.0488zm45.05078.0254c-1.04444-.0603-2.05426-.0684-3.00586.0117 5.81429.94509 29.23822 2.76492 12.67969.9668-3.09814-.14653-6.5405-.79757-9.67383-.97852zm37.75781.23828c-1.66455-.0333-1.38736.21189 3.59766.98829 9.07668.57699 4.41.48007 15.30859 1.76562 11.51951 1.46802 23.07386 2.94363 34.56836 4.61328.48939-.25398.96869-.52325 1.4375-.8125-14.18852-1.9724-29.48183-3.7942-43.22461-5.25976-.74676-.41304-8.91324-1.23941-11.6875-1.29493zm-148.81054.0547c.1317.15509.25256.31951.38867.4707 20.59404 1.41578 41.13078 3.23597 61.46094 6.25 31.56398 3.86905 63.1371 8.17098 95.27929 8.34961 6.28725.21125 12.50682.7917 18.70704 1.48243.37695-.0816.75448-.1596 1.13085-.24414-26.97999-2.5457-54.48628-1.70211-81.23828-5.85938-31.88828-3.58541-63.59032-8.42497-95.72851-10.44922zm200.38281.041c-1.31413-.0242-2.63197-.0143-3.95313.0371 3.8068.0388 8.37853.89769 12.9375 1.74804.35068-.33881.67599-.69463 1.00782-1.05273-3.32026-.35961-6.64441-.67086-9.99219-.73242zm-50.88672.39843.16992.17774zm-148.91406.23047c.41785.45305.84626.8974 1.29297 1.32422 4.10111-.20402 8.15842-.19191 11.03906.73438 20.59824 1.3752 40.47153 6.06739 61.08789 7.45117 7.01698.81117 27.49658 3.13561 27.35352 3.59375-5.72189-.52365-11.6022-.62538-17.83985-1.45899-14.0532-1.55133-28.40752-.927-42.16601-4.125-11.84678-1.34463-26.00039-4.48381-36.74414-3.73046.27254.24167.54372.48855.8125.73242 1.51546 1.18472 3.19915 2.06957 4.93164 2.86523 8.35154-1.49358 18.30461 1.65981 27.13672 2.35156 20.83331 2.62725 41.7739 2.77082 62.68554 5.44922 14.82688 1.06388 29.57808 2.72717 44.41602 3.52735 2.04728.1878 6.40158.22183 11.27734.27929 6.33471-.70263 12.64503-1.58718 18.87891-2.88867-21.54072-1.78255-43.12127-1.28698-64.74414-3.5957-28.48025-2.98323-56.63682-6.95134-84.99414-10.4668-7.55186-.37876-16.3263-1.5866-24.42383-2.04297zm124.03125 1.16602c-.83029-.0257-1.63613.009-2.39844.14062 5.74958 1.41006 25.97509 1.17535 10.00977.68555-2.40992-.13348-5.12047-.74903-7.61133-.82617zm5.12109.0723c7.37812 1.17564 8.17326-.2888 0 0zm-41.6875.49805c7.46377 1.48195 9.49058.0921 0 0zm51.72657.0332.16992.17774zm2.0625.12891-.93165.31445c5.80311.23102 20.77207 2.46372 7.28125.93946-16.08473-1.14904 15.83556 1.9711 22.12305 2.24609 9.13621 1.22498 18.30274 2.29287 27.48438 3.26563.7209-.30842 1.44038-.61898 2.1582-.9336-19.31169-2.32849-38.72652-4.15304-58.11523-5.83203zm-53.28126.36328.16993.17578zm6.86524.16797.16992.17578zm-25.95313 2.00195.16993.17579zm43.75.36329.16993.17578zm-53.63867 1.46289.16797.17382zm27.74219.625c6.93788.50355 7.23474 1.07221.11523.0898zm20.75977.27734c-.0212-.0158-.062-.007-.12891.0586.0833.26946.19258-.011.12891-.0586zm6.08007.0859.16993.17383zm.59375.0684.16993.17382zm-18.59961.65625c.0639.0464-.042.32383-.12695.0586.0663-.0649.10567-.074.12695-.0586zm47.44922.17382.16993.17383zm3.03711.0391c10.41251 2.82821 22.77389 1.37287 33.87305 2.95312 2.85021.2896 5.69156.63747 8.5332.98242.42338-.15245.84777-.30197 1.26953-.45898-1.35992-.15947-2.78797-.29158-4.09375-.47266-13.10141-1.64313-26.38719-2.01794-39.58203-3.0039zm-46.31054.27734c.18905.0462.5896.0931.82031.14063.0478.00097.0783.002.0976.0176 4.75842.96399 16.84489 2.09794 4.07227.25977 6.13983.48944 14.89902 2.31951 18.48437 1.97656-5.80499-.25038 1.91504-.88203-5.72656-.8164-.52228-.0726-1.05907-.12097-1.58398-.19141-.11425.16686-.83556.42549-1.2461.0898.43562-.1185.60353-.12306.80664-.14257-5.20371-.69011-10.50495-1.27303-15.7246-1.33399zm15.7246 1.33399c.1458.0193.29384.0332.43946.0527.0519-.0758-.14087-.0814-.43946-.0527zm-14.80664-1.17579c-.028-.006-.0701-.0119-.0976-.0176-.12441-.003-.30371.0255-.67969.1875.25811.49504.93739-.0384.77734-.16993zm.2461.12891.16601.17773zm.5918.0703.16992.17578zm2.40234.11328c.0639.0464-.042.32386-.12695.0586.0663-.0649.10566-.074.12695-.0586zm-76.55664 1.47852.16992.17773zm-8.34961.0273c-.67849.0215-1.10212.10282-1.56836.17383 3.14301 1.26581 6.34087 2.39067 9.58984 3.34961 5.19859-1.87774 12.99543-.99278 19.82422-1.16211 32.24863 1.23586 64.2144 5.49673 96.41602 7.3457.85749-.0684 1.71476-.13847 2.57226-.21093-3.96311-.13139-7.92259-.34356-11.86914-.73828-35.30934-3.12902-70.99394-6.31049-106.12695-8.56446-3.9361-.13455-6.85065-.25646-8.83789-.19336zm111.98437.31055c-.92974-.0412-1.83145-.0317-2.68359.0703.91485.1531 2.76204.3117 4.32422.49414-.0232-.007-.0467-.021-.0703-.0957.18845-.18152.16638.0512.0996.0977 5.00084.58297 10.99562 1.11217 6.90429.0215-2.74076.113-5.78499-.46435-8.57422-.58789zm1.66993.56641c-.0105-.001-.0188-.00073-.0293-.002.0113.003.0196.009.0293.002zm7.70117.11328.16601.17383zm2.3789.27344c12.76208.97987 25.74017 1.55737 38.61133 2.73242.59772-.16677 1.18351-.36995 1.77735-.54883-5.7116-.65597-11.43959-1.19875-17.22657-1.32422-7.66302-.66853-15.7373-.95749-23.16211-.85937zm-113.64648 13.73828.16992.17578zm13.03516 4.93945.16992.17383z" fill="#68423a" filter="url(#b)" opacity=".75"/></g></svg>