<svg height="500" viewBox="0 0 132.29167 132.29167" width="500" xmlns="http://www.w3.org/2000/svg" xmlns:xlink="http://www.w3.org/1999/xlink"><radialGradient id="a" cx="494.25363" cy="332.55859" gradientTransform="matrix(-.33462355 .12958228 -.13250235 -.34220148 276.54747 68.068365)" gradientUnits="userSpaceOnUse" r="43.257179"><stop offset="0" stop-color="#6d655f"/><stop offset="1" stop-color="#463d39"/></radialGradient><linearGradient id="b" gradientTransform="matrix(-.83131252 0 0 .83315844 365.42815 -7.849845)" gradientUnits="userSpaceOnUse" spreadMethod="reflect" x1="230.66402" x2="275.06866" xlink:href="#h" y1="118.14552" y2="141.28189"/><linearGradient id="c" gradientTransform="matrix(-.83131252 0 0 .83315844 365.42815 -7.849845)" gradientUnits="userSpaceOnUse" spreadMethod="reflect" x1="227.02235" x2="264.26935" xlink:href="#h" y1="62.273582" y2="120.75629"/><filter id="d" color-interpolation-filters="sRGB" height="1.051346" width="1.029535" x="-.014768" y="-.025673"><feGaussianBlur stdDeviation=".81568897"/></filter><filter id="e" color-interpolation-filters="sRGB" height="1.074037" width="1.042499" x="-.021249" y="-.037018"><feGaussianBlur stdDeviation="1.6312779"/></filter><filter id="f" color-interpolation-filters="sRGB" height="1.120908" width="1.079602" x="-.039801" y="-.060454"><feGaussianBlur stdDeviation="2.750612"/></filter><filter id="g" color-interpolation-filters="sRGB" height="1.010937" width="1.004131" x="-.002066" y="-.005468"><feGaussianBlur stdDeviation=".048332952"/></filter><linearGradient id="h"><stop offset="0" stop-color="#a09d92"/><stop offset="1" stop-color="#887e77"/></linearGradient><filter id="i" color-interpolation-filters="sRGB" height="1.193397" width="1.082956" x="-.041478" y="-.096698"><feGaussianBlur stdDeviation="2.2513313"/></filter><radialGradient id="j" cx="55.193054" cy="47.66674" gradientTransform="matrix(-.00000014 1.2793689 -1.7307147 .00000923 137.69061 -22.94597)" gradientUnits="userSpaceOnUse" r="66.145836"><stop offset="0" stop-color="#f5f5f5"/><stop offset=".38270059" stop-color="#e2e1dc"/><stop offset="1" stop-color="#c6c4c0"/></radialGradient><filter id="k" color-interpolation-filters="sRGB" height="1.024" width="1.024" x="-.012" y="-.012"><feGaussianBlur stdDeviation=".66145877"/></filter><linearGradient id="l" gradientUnits="userSpaceOnUse" x1="65.653389" x2="65.653389" y1="-1.030284" y2="123.3419"><stop offset="0" stop-color="#c6c4c0" stop-opacity="0"/><stop offset=".75" stop-color="#c6c4c0" stop-opacity=".5"/><stop offset="1" stop-color="#c6c4c0"/></linearGradient><filter id="m" color-interpolation-filters="sRGB" height="1.098429" width="1.03718" x="-.01859" y="-.049215"><feGaussianBlur stdDeviation=".43499657"/></filter><filter id="n" color-interpolation-filters="sRGB" height="1.09843" width="1.03718" x="-.01859" y="-.049215"><feGaussianBlur stdDeviation=".43499657"/></filter><linearGradient id="o" gradientUnits="userSpaceOnUse" x1="308.97852" x2="252.82031" y1="78.732422" y2="87.363281"><stop offset="0" stop-color="#79706c"/><stop offset=".08127096" stop-color="#79706c" stop-opacity=".5"/><stop offset=".5" stop-color="#79706c" stop-opacity="0"/><stop offset=".91872793" stop-color="#79706c" stop-opacity=".498039"/><stop offset="1" stop-color="#79706c"/></linearGradient><g><use height="100%" opacity=".5" stroke-width="1.20159" transform="matrix(-1 0 0 1 -51.92345 22.145176)" width="100%" xlink:href="#q"/><use height="100%" transform="matrix(-1 0 0 1 5.091376 5.162227)" width="100%" xlink:href="#p"/><g opacity=".95" stroke-width="1.20159" transform="matrix(-.83131252 0 0 .83315844 298.35545 -7.406325)"><path d="m280.89851 72.441243c7.20544 0 13.71803.656292 18.7656 1.835932 2.52379.589819 4.66991 1.27224 6.57803 2.326548.95406.527153 1.87439 1.144217 2.73639 2.128689-1.82791 3.011421-3.70387 5.643293-5.59275 8.171139l-38.53887 59.028319-.003.005c-2.8268 4.28783-7.12101 6.58516-11.52368 7.15269-4.40214.56806-8.92949-.46373-12.80298-2.57775-3.87323-2.11323-7.14302-5.34186-8.78977-9.41908-1.63725-4.05235-1.49043-8.95337 1.19165-13.65288l20.44896-39.50976c-.18467-.175794-.36782-.361533-.54765-.566906l6.34928-12.280898c.92974-.297664 1.91463-.559571 2.96515-.805081 5.04757-1.179639 11.55829-1.835932 18.76374-1.835932z" fill="url(#b)" opacity="1"/><g fill-rule="evenodd" stroke-width="1.20159"><path d="m308.97852 78.732422c-.862-.984473-1.78227-1.601752-2.73633-2.128906-1.90812-1.054309-4.05434-1.736352-6.57813-2.326172-5.04758-1.179641-11.56017-1.835938-18.76562-1.835938s-13.71609.656298-18.76367 1.835938c-1.05052.24551-2.03562.506999-2.96536.804663l-6.3491 12.281274c.862.984474 1.78227 1.599799 2.73633 2.126953 1.90812 1.054309 4.05434 1.736352 6.57813 2.326172 5.04758 1.179641 11.55822 1.837891 18.76367 1.837891s13.71804-.65825 18.76562-1.837891c3.13175-4.147747 6.28834-8.098548 9.31446-13.083984z" fill="#79706c" filter="url(#g)" opacity="1"/><path d="m308.97852 78.732422c-.862-.984473-1.78227-1.601752-2.73633-2.128906-1.90812-1.054309-4.05434-1.736352-6.57813-2.326172-5.04758-1.179641-11.56017-1.835938-18.76562-1.835938s-13.71609.656298-18.76367 1.835938c-1.05052.24551-2.03562.506999-2.96536.804663l-6.3491 12.281274c.862.984474 1.78227 1.599799 2.73633 2.126953 1.90812 1.054309 4.05434 1.736352 6.57813 2.326172 5.04758 1.179641 11.55822 1.837891 18.76367 1.837891s13.71804-.65825 18.76562-1.837891c3.13175-4.147747 6.28834-8.098548 9.31446-13.083984z" fill="url(#c)" filter="url(#n)" opacity="1"/><path d="m259.16958 75.081716-6.34928 12.281518c.862.984473 1.78233 1.599675 2.73639 2.126828 1.90812 1.054308 4.05425 1.736729 6.57803 2.326548 5.04758 1.17964 11.5583 1.837793 18.76374 1.837793-13.80932-.000268-25.00351-4.749103-25.00298-10.60685.63849-2.049038 2.07669-5.168599 3.2741-7.965837zm21.73088-2.640393c13.80875.000268 25.0027 4.748725 25.00298 10.60623-.00065.13836-.008.276702-.0211.414945 1.04281-1.491352 2.07717-3.050997 3.09631-4.730006-.862-.984472-1.78233-1.601536-2.73639-2.128689-1.90812-1.054308-4.05424-1.736729-6.57803-2.326548-5.04714-1.179538-11.55904-1.835932-18.76374-1.835932z" fill="url(#o)" filter="url(#m)" opacity="1"/></g></g><g><use height="100%" opacity=".12" stroke-width="1.20159" transform="matrix(-1 0 0 1 -51.92345 22.145176)" width="100%" xlink:href="#q"/><use stroke-width=".761911" transform="matrix(1.1974737 0 0 1.4385431 90.713058 -85.275817)" xlink:href="#r"/><use stroke-width=".913247" transform="matrix(.78055832 0 0 1.5360854 61.750482 -83.039986)" xlink:href="#r"/><g fill="#788187"><path d="m32.533374 39.40697 47.277766 73.09669c1.95553 2.97285 4.84986 4.51402 7.8972 4.90771 3.09163.39985 6.37831-.333 9.19995-1.87637h.002c2.81973-1.54186 5.11659-3.86103 6.23937-6.64713 1.09305-2.71141 1.04474-5.97289-.85059-9.301229l-.0295-.0522-38.760066-77.853245 3.420983-1.996654 39.547773 77.627813c2.51637 4.478255 2.70103 9.345795 1.08262 13.360425-1.61516 4.00785-4.75319 7.06808-8.37313 9.04751-3.61809 1.979-7.85966 2.96628-12.08662 2.42001-4.27262-.552-8.51747-2.83993-11.26183-7.01198l-.0274-.0424-.0114-.016-46.688271-73.664666z"/><path d="m60.942463 17.079298c.0058-.000047.01047.0033.01621.0032 2.426302-.01716 4.785551.561774 5.971809 2.601993.864806 1.487649.704412 3.23969.115278 4.774388-.589126 1.534699-1.609006 3.036516-2.958301 4.57749-2.69859 3.081949-6.757598 6.293195-11.665975 9.107789-4.908152 2.814227-9.737928 4.698149-13.770243 5.477366-2.016157.389608-3.833988.516449-5.45873.257108-1.624751-.259343-3.215426-.985767-4.080257-2.47344-.864778-1.487626-.704388-3.239708-.115278-4.774388.58911-1.534681 1.61066-3.036557 2.95993-4.57749 2.69854-3.081816 6.755969-6.293268 11.664354-9.107739 6.442115-3.693912 12.678405-5.827925 17.321178-5.866282zm.0325 3.967267c-3.362335.02778-9.362865 1.887832-15.387404 5.342303-4.590316 2.632093-8.366711 5.666597-10.656063 8.281139-1.144667 1.307271-1.905169 2.516615-2.239024 3.386333-.333855.869719-.237863 1.215169-.159113 1.350628.07872.135412.349234.404272 1.28269.55327.933448.148997 2.370596.09699 4.08512-.234326 3.429048-.66264 7.964057-2.393143 12.554116-5.024987 4.590333-2.632217 8.366645-5.668122 10.656063-8.282767 1.144709-1.307321 1.906773-2.514951 2.240645-3.384706.33388-.869754.236226-1.21682.157501-1.352255-.108262-.186196-.77273-.649148-2.534531-.634632z"/><path d="m63.398642 13.767559v.00044c4.376545.0013 7.256968 1.276618 8.394218 3.233405 1.30032 2.236188.68645 5.985569-2.429334 10.488546-3.115552 4.502731-8.524769 9.391317-15.374693 13.318958-6.849932 3.926902-13.818011 6.134773-19.302021 6.563252-5.484527.428478-9.060606-.917997-10.360926-3.154183-1.2998-2.236188-.68644-5.985385 2.42935-10.488116 3.116031-4.502977 8.525382-9.3915 15.375547-13.319388 6.849932-3.927643 13.817528-6.135634 19.302038-6.564114.685176-.05356 1.340782-.07879 1.965821-.07879zm-2.440102 5.295723c-4.002545.03307-10.120407 2.029799-16.353721 5.603993-9.498735 5.44657-15.668833 12.49289-13.781757 15.739061 1.887071 3.246173 11.117068 1.462231 20.615279-3.983846 9.498735-5.446818 15.668836-12.49332 13.781757-15.739493-.648657-1.115624-2.164472-1.636993-4.261558-1.619715z"/></g><g opacity=".5" transform="matrix(-1 0 0 1 129.00405 -1.362689)"><path d="m1095.8281 343.06068c-2.3238-6.05371-3.023-13.21.5449-19.34766 4.9057-8.43716 14.4972-10.6755 23.9454-10.59766 18.0351.14901 41.905 8.09506 66.6211 21.9258-24.6587-14.47951-50.2555-22.16948-69.1856-23.6484-9.183-.63585-25.808-.1695-30.6916 7.47547-2.0937 3.60353-1.9588 14.42377 14.5147 35.96101.5364.0742-3.425-5.71486-5.7489-11.76856zm146.0821 64.27135c-3.5681 6.13787-10.0842 9.05793-16.4883 10.08008s-13.4174.51632-21.1524-.97852c-15.4699-2.98966-33.8219-10.20403-52.7925-20.41002 24.5335 14.71526 49.8647 22.63625 68.7649 24.11297 18.9722 1.4822 28.5948-3.87048 30.6894-7.47266 2.0935-3.60163 1.9605-14.42209-8.6395-27.32608 2.4832 8.69827 3.1863 15.8566-.3816 21.99423z" fill="#cddde5" filter="url(#f)" opacity=".66" transform="matrix(.26458334 0 0 .26458334 -228.35295 -64.803352)"/><path d="m213.81836 78.734375c-.18043 8.102206 3.43484 18.523079 11.59375 30.314455 11.77531 17.01819 32.2199 35.49521 58.10937 50.33984 25.88951 14.84184 52.22616 23.18719 72.95313 24.80664 20.72892 1.61945 34.24556-3.47015 39.16016-11.92187 1.68871-2.90529 2.5227-6.48683 2.41211-10.62696-.0797 3.59274-.90287 6.72966-2.41211 9.32618-4.9146 8.45172-18.43124 13.54132-39.16016 11.92187-20.72697-1.61945-47.06362-9.96481-72.95313-24.80664-25.88947-14.84463-46.33406-33.31969-58.10937-50.33789-7.72813-11.168801-11.38259-21.111479-11.59375-29.015625z" filter="url(#e)" opacity=".5" transform="scale(.26458334)"/><path d="m257.17969 75.900391c-7.926-.0653-13.65581 1.904562-16.10742 6.121093-.96436 1.658896-1.36664 3.583172-1.26172 5.716797.0867-1.620184.49715-3.100803 1.26172-4.416015 2.45161-4.216532 8.18142-6.186397 16.10742-6.121094 15.12773.124989 38.24961 7.670923 61.80859 21.179687 31.0471 17.802391 52.68121 40.125281 53.35156 53.771481.72432-13.49333-21.29776-36.69263-53.35156-55.072262-23.55898-13.508764-46.68086-21.054698-61.80859-21.179687z" filter="url(#d)" opacity=".5" transform="scale(.26458334)"/></g><g stroke-width=".808651" transform="matrix(-1.0714692 .61741411 .61741411 1.0714692 106.8847 -33.796649)"><path d="m54.830414 9.2846366c-.591745.3574776-1.134196.7787314-1.597539 1.2861324-1.343259 1.470989-2.126049 3.569048-2.190608 5.560028-.048 1.480986 1.357852 4.23295 1.357852 4.23295l.405429.988997c.332085.502198.563351.827455.639921.889565.58508.474598 1.606661 1.013105 2.936517 1.46692 2.65971.907631 6.531375 1.510005 10.810319 1.500981 4.278602-.0092 8.154861-.627689 10.824961-1.547844 1.335047-.46008 2.363034-1.003634 2.956899-1.484896.04277-.03466.231963-.138679.493375-.277063l.586606-1.586683s1.274647-2.846451 1.190847-4.346341c-.10908-1.95225-.831344-4.024652-2.170623-5.449263-1.565878-1.665659-3.995302-2.3317064-6.20266-2.9266878-2.532518-.6826293-5.217235-.6753049-7.840142-.6736889-2.645328.0016-5.360997-.032531-7.905864.689529-1.454275.4126261-2.993451.8909136-4.29529 1.6773643z" fill="#392f2d"/><path d="m57.528847 13.128044c-.268346.159926-.512648.351705-.720055.58758-.856839.97444-1.14623 2.449473-1.06453 3.744475.10003 1.585463 1.246117 2.922601 1.869257 4.383903.355842.834482.606104 1.421798 1.067355 2.503476 2.395873.540088 5.341092.869418 8.511431.862732 3.351709-.0072 6.453563-.38947 8.92502-.996585.380601-1.029134.590641-1.596498.885869-2.394792.537349-1.452977 1.553157-2.810861 1.611887-4.358903.0492-1.297134-.198466-2.782378-1.070025-3.74433-.903729-.997452-2.443609-1.180562-3.754447-1.486097-2.201398-.513114-4.498521-.549136-6.758938-.549155-2.260408-.000018-4.565012.0047-6.75891.549014-.914549.226911-1.938873.418903-2.743914.898682z" fill="url(#a)"/></g><use stroke-width=".708406" transform="matrix(1.2908629 0 0 1.5436724 79.533421 -65.789031)" xlink:href="#r"/><use stroke-width="1.16208" transform="matrix(.74184271 0 0 .99819534 95.138395 -26.919427)" xlink:href="#r"/><use stroke-width=".822377" transform="matrix(1.0463426 0 0 1.4131397 117.53068 -25.025571)" xlink:href="#r"/><use stroke-width="1.25197" transform="matrix(.71030698 0 0 .89818806 106.77847 10.764324)" xlink:href="#r"/><use stroke-width="1.46832" transform="matrix(.60307044 0 0 .76911614 101.30923 12.875498)" xlink:href="#r"/><use stroke-width="1.46832" transform="matrix(.60307044 0 0 .76911614 106.82483 16.24124)" xlink:href="#r"/></g></g><g><g id="p" stroke-width=".808651" transform="matrix(1.0714692 .61741411 -.61741411 1.0714692 -101.79332 -38.958876)"><path d="m52.400186 20.363774 5.99503 14.618867c.53304 1.249855 1.21833 2.212549 2.50618 2.645833 4.40649 1.48235 9.03129 1.397315 13.36042.02791 1.40183-.443561 1.93709-1.509697 2.44718-2.888713l5.34514-14.453839s1.27488-2.846559 1.19108-4.34645c-.10908-1.952252-.83162-4.024781-2.1709-5.449393-1.56588-1.6656611-3.99536-2.3314561-6.20272-2.9264381-2.53252-.68263-5.21692-.675475-7.83983-.673859-2.64533.0016-5.36111-.0327-7.90598.689361-2.11531.600184-4.41048 1.339962-5.89318 2.9636461-1.34326 1.470991-2.12571 3.569258-2.19027 5.56024-.048 1.480987 1.35785 4.232839 1.35785 4.232839z" fill="#392f2d"/><path d="m56.808976 13.715668c-.85684.974441-1.1465 2.449269-1.0648 3.744272.10003 1.585465 1.24628 2.922606 1.86942 4.38391 1.60205 3.756954 4.80615 11.270872 4.80615 11.270872 3.47978 1.170599 6.87158 1.118722 10.40569.000794 0 0 2.78521-7.531087 4.1778-11.296637.53735-1.452978 1.5533-2.810896 1.61203-4.358939.0492-1.297136-.1986-2.782319-1.07016-3.744272-.90373-.997453-2.44365-1.180606-3.75449-1.486141-2.2014-.513115-4.49854-.549246-6.75896-.549265-2.26041-.000018-4.56506.0048-6.75896.549151-1.2194.302548-2.63409.542753-3.46372 1.486255z" fill="url(#a)"/></g><path id="q" d="m-96.52808 2.5219404c9.49871 5.446571 15.66868 12.4930256 13.78159 15.7392076l-46.99951 73.405837-.002.004c-2.34996 3.57245-5.91977 5.48631-9.57977 5.95915-3.65955.47328-7.42336-.38644-10.64345-2.14775-3.21986-1.76066-5.93825-4.45068-7.30722-7.84765-1.36106-3.37626-1.23899-7.45925.99066-11.374699l39.14464-77.7222374c.64859-1.115645 2.1646-1.637176 4.26156-1.619898 4.00242.03307 10.12066 2.0298458 16.354 5.6040398z" fill="#cddde5"/><path d="m-116.3097 7.1548264c-1.36991-1.564502-2.41803-3.096196-3.03289-4.697904-.61484-1.60171103-.79984-3.495146.14417-5.1190688 1.29796-2.232332 3.83572-2.824559 6.33555-2.803964 4.77179.03943 11.08737 2.141818 17.62683 5.80120077-6.52428-3.83103677-13.29676-5.86567477-18.30535-6.25697277-2.42967-.168235-6.82837-.04485-8.12049 1.977092v.0016c-.55396.95264-.51826 3.81549577 2.32855 7.9297508 2.8403 4.104907 8.02116 8.8351516 14.69395 12.4834726-4.84603-2.957015-8.93117-6.186964-11.67032-9.3151936z" fill="#cde5d7" opacity=".5"/><path d="m-80.6917 19.462051c-.94406 1.623978-2.66812 2.396577-4.36253 2.667021-1.69442.270444-3.55002.13661-5.59658-.2589-4.09307-.791014-8.94871-2.699816-13.96801-5.400152 6.49115 3.893414 13.19337 5.989175 18.19405 6.379891 5.01972.392165 7.56571-1.024065 8.1199-1.977141.55391-.952932.51872-3.815846-2.28587-7.230027.65702 2.301417.84305 4.195392-.10096 5.819308z" fill="#cde5d7" opacity=".5"/><path d="m-86.42477 22.849911c5.01972.392165 7.56571-1.024065 8.1199-1.977141.55391-.952932.51872-3.815846-2.32801-7.929749-2.84081-4.1052456-7.98365-8.9025146-14.60316-12.60793063 4.88689 2.89616603 8.9222 6.18728703 11.65612 9.30947103 1.36993 1.5644626 2.41649 3.0962096 3.03136 4.6979046.61484 1.601694.80087 3.495669-.14314 5.119585-.94406 1.623978-2.66812 2.396577-4.36253 2.667021-1.69442.270444-3.55002.13661-5.59658-.2589-4.09307-.791014-8.94871-2.699816-13.96801-5.400152 6.49115 3.893414 13.19337 5.989175 18.19405 6.379891z" fill="#cddde5" opacity=".5"/><path d="m-119.34259 2.4569224c-.61484-1.60171103-.79984-3.495146.14417-5.1190688 1.29796-2.232332 3.83572-2.824559 6.33555-2.803964 4.77179.03943 11.08737 2.141818 17.62683 5.80120077-6.52428-3.83103677-13.29676-5.86567477-18.30535-6.25697277-2.42967-.168235-6.82837-.04485-8.12049 1.977885-.55396.953434-.51826 3.81628977 3.84035 9.5146838.14192.01963-.9062-1.512056-1.52106-3.113764z" fill="#cddde5" opacity=".5"/><g stroke-width="1.75834" transform="matrix(.34360881 0 0 .34471106 -82.158128 52.500312)"><path d="m1.0123007 76.415051a66.145836 66.145836 0 0 0 65.1330143 55.876769 66.145836 66.145836 0 0 0 65.133015-55.876769c-.81798 1.626817-11.63118 22.926864-21.78276 30.591429-11.937549 9.013-27.637421 16.33781-43.350255 16.33781-15.712833 0-31.40934-7.32481-43.346889-16.33781-10.151718-7.664675-20.9684324-28.965167-21.7861253-30.591429z" filter="url(#i)" opacity=".5"/><g opacity=".5" stroke-width="1.75834"><circle cx="66.145836" cy="66.145836" fill="#f5f5f5" r="66.145836"/><circle cx="66.145836" cy="66.145836" fill="url(#j)" opacity="1" r="66.145836"/><g fill="#f5f5f5" fill-opacity=".5" stroke-width=".91093"><path d="m106.4923 30.840075c3.62643 7.444513 2.02044 15.635034-3.56943 18.360026-5.589853 2.724994-13.008463-1.134549-16.608983-8.563522-3.60051-7.428972-1.99971-15.660939 3.56943-18.37039 5.56914-2.709449 13.018833 1.170816 16.608983 8.573886z"/><path d="m113.74514 68.124815c.0415 5.429263-3.23788 9.843125-7.32536 9.843125-4.08749 0-7.434163-4.377598-7.449703-9.801681-.0157-5.424082 3.258593-9.84313 7.346103-9.884575 4.08748-.04145 7.42896 4.377602 7.42896 9.843131z"/></g></g></g><g id="r" stroke-width="12.6397" transform="matrix(.04782372 0 0 .04792988 -24.769478 81.232382)"><path d="m1.0123007 76.415051a66.145836 66.145836 0 0 0 65.1330143 55.876769 66.145836 66.145836 0 0 0 65.133015-55.876769c-.81798 1.626817-11.63118 22.926864-21.78276 30.591429-11.937549 9.013-27.637421 16.33781-43.350255 16.33781-15.712833 0-31.40934-7.32481-43.346889-16.33781-10.151718-7.664675-20.9684324-28.965167-21.7861253-30.591429z" filter="url(#i)" opacity=".5"/><g opacity=".75"><circle cx="66.145836" cy="66.145836" fill="url(#l)" r="66.145836"/><circle cx="66.145836" cy="66.145836" fill="url(#j)" filter="url(#k)" opacity=".5" r="66.145836"/><path d="m106.4923 30.840075c3.62643 7.444513 2.02044 15.635034-3.56943 18.360026-5.589853 2.724994-13.008463-1.134549-16.608983-8.563522-3.60051-7.428972-1.99971-15.660939 3.56943-18.37039 5.56914-2.709449 13.018833 1.170816 16.608983 8.573886z" fill="#f5f5f5" fill-opacity=".5" stroke-width="6.54817"/><path d="m113.74514 68.124815c.0415 5.429263-3.23788 9.843125-7.32536 9.843125-4.08749 0-7.434163-4.377598-7.449703-9.801681-.0157-5.424082 3.258593-9.84313 7.346103-9.884575 4.08748-.04145 7.42896 4.377602 7.42896 9.843131z" fill="#f5f5f5" fill-opacity=".5" stroke-width="6.54817"/></g></g></g></svg>