<svg height="500" viewBox="0 0 132.29167 132.29167" width="500" xmlns="http://www.w3.org/2000/svg" xmlns:xlink="http://www.w3.org/1999/xlink"><radialGradient id="a" cx="494.25363" cy="332.55859" gradientTransform="matrix(-.33462355 .12958228 -.13250235 -.34220148 276.54747 68.068365)" gradientUnits="userSpaceOnUse" r="43.257179"><stop offset="0" stop-color="#deaa87"/><stop offset="1" stop-color="#d38d5f"/></radialGradient><linearGradient id="b"><stop offset="0" stop-color="#fff"/><stop offset="1" stop-color="#ecf5f9"/></linearGradient><linearGradient id="c" gradientUnits="userSpaceOnUse" x1="40.2393460002" x2="91.95340863657" xlink:href="#b" y1="68.70931535996" y2="78.11721101368"/><filter id="d" color-interpolation-filters="sRGB" height="1.083552" width="1.068821" x="-.034411" y="-.041776"><feGaussianBlur stdDeviation=".94619822"/></filter><linearGradient id="e" gradientUnits="userSpaceOnUse" spreadMethod="reflect" x1="86.59053476772" x2="21.82465534416" xlink:href="#b" y1="88.75267349732" y2="96.35775806811"/><filter id="f" color-interpolation-filters="sRGB" height="1.284048" width="1.242028" x="-.121014" y="-.142024"><feGaussianBlur stdDeviation="3.9237674"/></filter><g><g fill="#7f8899" stroke-width=".999999" transform="matrix(.26458334 0 0 .26458334 238.17537 -58.892264)"><path d="m-235.24023 17.787109-4.4961.01367-10.32812.01172-10.25.01172a1.3187171 1.3187171 0 0 0 -.002 0l-4.57812.01367a1.3187171 1.3187171 0 0 0 -1.20899 1.835937l5.44141 12.757813c1.65375 5.135477 2.06393 10.427569-1.25 15.101562-3.48982 4.921834-9.15246 9.324735-13.92578 14.390625-4.7628 5.055919-8.58594 10.663585-8.58594 17.88086 0 18.958286 15.34484 34.455082 34.29883 34.455082 18.95523 0 34.45508-15.500783 34.45508-34.455082 0-7.212491-3.66674-12.945157-8.3418-18.058594-4.68223-5.121997-10.33021-9.53528-14.13476-14.167969-2.59571-3.160761-2.63509-7.605501-1.64063-12.367187l5.78715-15.648436a1.3187171 1.3187171 0 0 0 -1.24023-1.775391z" opacity=".15" transform="matrix(3.7795275 0 0 3.7795275 294.8676 240.39681)"/><path d="m-725.97342 306.87834c7.06269 19.35528 18.39628 39.14532 24.6858 57.69843 6.28769 18.55311 7.7574 34.42433-2.67682 49.14136-11.66169 16.44835-32.895 33.27693-51.67831 53.21616-18.78327 19.9392-35.42509 43.92253-35.42509 75.08537 0 77.57118 62.96579 141.17466 140.58039 141.17466 77.61382 0 141.17462-63.56171 141.17462-141.17466 0-30.98978-15.884-55.38912-34.3936-75.63691-18.5088-20.24784-39.9356-37.14373-53.0491-53.11302-7.8256-9.52717-6.8905-29.09983-.7502-50.25127 6.1395-21.15143 16.4228-42.65493 22.0858-55.70025 9.8623-21.36952-26.6499-6.56781-31.7903-5.49716-14.31791 2.6163-28.99079 3.23165-43.54579 3.22353-14.339-.008-28.78061-.70156-42.89613-3.22353-16.10868-5.85393-37.97087-10.94081-32.32127 5.05729zm131.76049 5.72906-22.04111 59.6015c-3.94518 18.72276-4.09179 37.44042 7.18632 51.17367 14.91309 18.15923 36.30319 34.82498 53.60319 53.74979 17.3008 18.92307 30.22 39.30474 30.22 64.88647 0 68.92373-56.3174 125.24455-125.24462 125.24455-68.9246 0-124.6478-56.27565-124.6478-125.24455 0-25.52976 13.42972-45.41525 31.08953-64.1619 17.66309-18.74573 39.24759-35.42002 53.07719-54.92446 13.7111-19.33826 11.8936-41.42994 5.36201-61.63685l-20.68263-48.49945s12.98922 4.35882 19.70423 5.59399c11.95717 2.19943 24.17699 3.18298 36.33479 3.17634 12.36438-.007 24.80439-.94841 36.94888-3.27072 6.52162-1.24711 19.09002-5.68838 19.09002-5.68838z"/></g><g><path d="m39.425781 62.367188c-6.441414 4.6905-11.901442 12.665295-12.073436 20.631663-.282184 13.070065 7.234505 27.757669 18.328948 34.672839 10.977208 6.8421 27.212217 6.94688 38.787161 1.17331 10.396489-5.18575 17.427776-17.16116 20.114616-28.464249 1.42573-5.99779.10905-12.821739-2.73508-18.291392-2.423449-4.660625-6.767204-8.42174-11.420498-10.859238-6.355708-3.32926-13.942134-3.59991-21.074681-4.378219-1.556405-.169836-3.139126-.219045-4.696561-.05893-8.567807.88082-18.267855.50419-25.230469 5.574217z" fill="#fe9" filter="url(#f)" opacity=".75"/><path d="m99.204415 84.516883c0 18.236057-14.900644 33.137617-33.137604 33.137617-18.2363 0-32.97976-14.88961-32.97976-33.137617 0-4.67889 1.34094-8.6406 3.94174-12.2826.72649-1.3605 1.95278-2.423563 3.17084-3.369625 1.6863-1.309728 3.58519-2.409622 5.6061-3.098748 6.57281-2.241325 12.37523-3.161202 20.34011-3.161043 7.96491-.000164 13.62866.919713 20.20147 3.161035 2.02088.689129 3.9198 1.789023 5.60609 3.09875 1.21807.946063 2.44436 2.009121 3.17093 3.369761 2.47862 3.66128 4.080084 7.64957 4.080084 12.28247z" fill="url(#e)"/><path d="m86.347311 79.842533c2.40519-1.42141 5.46915-3.54353 5.48513-6.33729.0161-2.83144-3.05652-5.030301-5.48513-6.48606-6.02115-3.609186-11.80484-4.404111-20.20147-4.414319-8.39663.01021-14.31899.805138-20.34011 4.414325-2.42861 1.455758-5.50137 3.654614-5.48516 6.486064.0161 2.79376 3.07997 4.91588 5.48516 6.33729 6.04221 3.57079 11.8482 4.38575 20.34011 4.3925 8.49191-.007 14.15923-.82173 20.20147-4.39251z" fill="url(#c)" fill-rule="evenodd"/><path d="m74.233716 63.006921.893486.718302c.47523.545039.89793 1.115035 1.269173 1.748214a.66152613.66152613 0 0 0 .984436.181384l1.796789-1.439189a.66152613.66152613 0 0 0 .0078-.0078l.40411-.33538c-.558362-.119855-1.118546-.232571-1.682585-.334347l-.814937.653707c-.201622-.29922-.401144-.600387-.6134-.889351-.737494-.112205-1.483393-.211606-2.244824-.295589zm-18.249016.261482c-.774647.113134-1.539601.241421-2.297534.386023-.137907.205415-.271646.413498-.40566.621668l-.738456-.390157c-.639881.136773-1.277933.282023-1.915646.442867l.603064.357601a.66152613.66152613 0 0 0 .02739.0155l1.929598 1.021643a.66152613.66152613 0 0 0 .879016-.246497c.290732-.490082.601176-.951027.935344-1.388546zm29.401307 2.179196-7.19646 2.980696a.66152613.66152613 0 0 0 -.394808.748275c.170048.809392.267684 1.738997.267684 2.601392 0 .165974.0044.266548 0 .387056a.66152613.66152613 0 0 0 .746208.679545l11.482503-1.505851a.66152613.66152613 0 0 0 .576193-.675928c-.0256-.854445-.128759-1.778906-.242363-2.656168l.115755-.01912c-.449117-.302975-.91031-.589705-1.382344-.856795a.66152613.66152613 0 0 0 -.0987.428398c.126373.77995.185115 1.691029.230477 2.549198l-10.140469 1.330151c-.01677-.665569-.09554-1.328612-.203088-1.975074l7.453292-3.0856a.66152613.66152613 0 0 0 .367936-.382922c-.205801-.07962-.412137-.157828-.620634-.228927-.322969-.110132-.642222-.214528-.961182-.318326zm-39.411549.262516c-.05659.01914-.112282.03648-.168982.05581-.453872.15477-.900466.333169-1.341003.5271a.66152613.66152613 0 0 0 .349849.363802l6.365504 2.670122c-.116756.695805-.195885 1.406127-.20929 2.111499l-9.552389-1.242302c.02605-.604159.0525-1.270407.109037-1.755965a.66152613.66152613 0 0 0 -.113688-.453202c-.415026.279946-.820808.572172-1.213879.877465-.234349.182019-.467842.370275-.699182.56224l.652156-.179834c-.03596.527972-.08456 1.065558-.09612 1.507918a.66152613.66152613 0 0 0 .576192.673861l10.88099 1.415934a.66152613.66152613 0 0 0 .748275-.679545c-.0044-.120924 0-.220975 0-.387056 0-.923163.07974-1.893754.265617-2.730583a.66152613.66152613 0 0 0 -.390674-.753959zm6.312793 9.449036-10.925948 1.444873a.66152613.66152613 0 0 0 -.554488.820622c.496323 1.937303 1.227156 3.784271 2.160075 5.509741a.66152613.66152613 0 0 0 .827856.29869l10.089824-4.066419a.66152613.66152613 0 0 0 .31471-.964799c-.495263-.791441-.886365-1.678055-1.19941-2.599841a.66152613.66152613 0 0 0 -.712619-.442867zm25.818063.138493a.66152613.66152613 0 0 0 -.74569.654223l.03669-.218591c-.291328.828167-.774939 1.675913-1.27124 2.468583a.66152613.66152613 0 0 0 .314192.964799l10.595736 4.24987a.66152613.66152613 0 0 0 .824239-.294556c.952371-1.726002 1.703231-3.575618 2.216919-5.518009a.66152613.66152613 0 0 0 -.554488-.823722zm-26.125021 1.2361c.214533.570963.480615 1.122372.769979 1.663981l-8.834086 3.561023c-.638451-1.255752-1.147614-2.580621-1.548743-3.95118zm26.410275.132808 10.11928 1.314649c-.414764 1.375713-.937564 2.704602-1.591635 3.963066l-9.316744-3.734656c.288896-.491287.558141-.998977.789099-1.543059zm-39.443071.257866-4.363558.605648-.181384-.442867c-.214394.564338-.404619 1.13783-.566891 1.722892a.66152613.66152613 0 0 0 .422197.100769l4.355289-.603581c.454693 1.675936 1.08124 3.279796 1.840198 4.812626l-7.343738 2.568319c.01758.505999.04578 1.00936.08578 1.509469l.252181-.226343 8.07961-2.824117a.66152613.66152613 0 0 0 .36742-.935344c-.964403-1.815905-1.713734-3.757857-2.214849-5.791377a.66152613.66152613 0 0 0 -.732255-.496094zm52.964727.165881a.66152613.66152613 0 0 0 -.705383.496094c-.517254 2.038935-1.284132 3.983913-2.267562 5.801196a.66152613.66152613 0 0 0 .320394.921908l9.371004 4.032829.283708.543119c.0782-.588437.14194-1.181163.18861-1.778703l-8.737963-3.762044c.78795-1.55416 1.437095-3.184686 1.910477-4.889107l5.876644.578259a.66152613.66152613 0 0 0 .256315-.03256c-.162386-.553528-.346574-1.098448-.553454-1.634522l-.09922.298173zm-17.586524 3.479374a.66152613.66152613 0 0 0 -.339514.167432c-.607616.564571-1.237845 1.062574-1.93735 1.4981a.66152613.66152613 0 0 0 -.167948.97255l6.85953 8.626864a.66152613.66152613 0 0 0 .879016.142627c1.565029-1.024017 3.006533-2.213812 4.298446-3.542936a.66152613.66152613 0 0 0 -.07803-.990121l-8.742102-6.553088v.332279a.66152613.66152613 0 0 0 -.396358-.607198.66152613.66152613 0 0 0 -.375688-.04651zm-18.699117.0026a.66152613.66152613 0 0 0 -.280603.123507l-8.523511 6.476607a.66152613.66152613 0 0 0 -.08217.980819c1.306742 1.386867 2.773161 2.626118 4.37131 3.693315a.66152613.66152613 0 0 0 .88625-.13901l6.584095-8.294584a.66152613.66152613 0 0 0 -.181384-.980819c-.821312-.486146-1.498397-1.027736-2.201416-1.69137a.66152613.66152613 0 0 0 -.572575-.168465zm.119372 1.47898c.433176.383739.900189.733194 1.384929 1.062984l-5.74797 7.239868c-1.115073-.786095-2.147774-1.668335-3.107304-2.624646zm18.693433.0021 7.9375 5.947441c-.937382.90456-1.938004 1.742677-3.017386 2.48822l-6.02754-7.579899c.382979-.27046.756641-.551787 1.107426-.855762zm-4.851383 1.382861a.66152613.66152613 0 0 0 -.187586.189653l-.02532-.154513c-.854032.289414-1.747635.618175-2.542998.722953a.66152613.66152613 0 0 0 -.56844.745691l1.441255 10.494451a.66152613.66152613 0 0 0 .730705.566373c1.924159-.218232 3.783775-.644554 5.552633-1.257804a.66152613.66152613 0 0 0 .394808-.881083l-4.183725-10.019593a.66152613.66152613 0 0 0 -.06253-.04082.66152613.66152613 0 0 0 -.548803-.365353zm-8.698178.149345a.66152613.66152613 0 0 0 -.483691.393775l-4.107243 9.796818a.66152613.66152613 0 0 0 .388607.879016c1.744327.625158 3.577304 1.068812 5.476668 1.308447a.66152613.66152613 0 0 0 .738456-.566373l1.439189-10.457293a.66152613.66152613 0 0 0 -.588078-.747758c-.831569-.08676-1.706224-.331937-2.542997-.590144v.000516a.66152613.66152613 0 0 0 -.320911-.01705zm8.313188 1.305864 3.658175 8.757605c-1.272548.400358-2.586672.704108-3.942912.894519l-1.266073-9.218608c.545318-.12503 1.064246-.265684 1.55081-.433565zm-7.792806.109554c.492144.143352 1.006575.257442 1.538924.353466l-1.257804 9.144662c-1.331857-.204791-2.623807-.518271-3.873149-.926042zm-16.164905 3.487125a.66152613.66152613 0 0 0 -.288355.10232l-10.121863 6.583577c.145433.429603.300702.854856.463021 1.276408l9.967351-6.482808c1.167098 1.204669 2.453057 2.29257 3.82664 3.273185l-9.135877 11.504726c.328243.42707.666756.84551 1.014925 1.25574l-.0279-.36949 9.578227-12.064381a.66152613.66152613 0 0 0 -.146245-.959115c-1.674094-1.131926-3.209047-2.445567-4.57233-3.912422a.66152613.66152613 0 0 0 -.557589-.20774zm40.210983.267167a.66152613.66152613 0 0 0 -.573608.198438c-1.352625 1.416626-2.867013 2.686365-4.51342 3.779614a.66152613.66152613 0 0 0 -.150378.960665l10.202995 12.837984-.157097.57102c.416412-.44572.821155-.90243 1.212846-1.37046l-9.82524-12.358987c1.337177-.93869 2.590963-1.980822 3.736206-3.130558l10.914063 7.802108c.210354-.466947.410956-.939501.599963-1.417485l-.158646.107487-10.997779-7.863086a.66152613.66152613 0 0 0 -.289905-.116789zm-29.564604 6.802169a.66152613.66152613 0 0 0 -.504879.398426l-6.857463 16.361276-.375687.0191c.469305.30602.946062.60086 1.431437.88315a.66152613.66152613 0 0 0 .0047-.006l6.801135-16.230539c1.543693.521457 3.148353.907505 4.800741 1.158069l-2.569402 18.66427c.503224.11682 1.011116.22186 1.522905.31523l-.188102-.30541 2.625163-19.082043a.66152613.66152613 0 0 0 -.572575-.745691c-2.008361-.255358-3.945224-.730496-5.786727-1.398881a.66152613.66152613 0 0 0 -.331246-.03101zm18.900139.08888a.66152613.66152613 0 0 0 -.328663.02842c-1.86406.656408-3.824495 1.114862-5.855456 1.349272a.66152613.66152613 0 0 0 -.580327.748274l2.652552 19.273246-.250114.31987c.535171-.0711 1.066739-.15463 1.593701-.25114l-2.603459-18.92809c1.674311-.234454 3.29995-.608575 4.865337-1.120862l7.034196 16.848582c.533935-.27884 1.05906-.57241 1.575614-.87901l-.51418-.0145-7.08794-16.976745a.66152613.66152613 0 0 0 -.501261-.397392z" fill="#fff9b3" filter="url(#d)" stroke-linecap="round" stroke-linejoin="round"/><path d="m66.145837 62.604878c-4.286775-.000086-7.945294.269554-11.436511.865064l-.200505.167431c-.365919.47465-.69924.975151-1.011307 1.501201l-1.929598-1.02061-.01809-.01085c-1.897976.443656-3.787195.991424-5.744353 1.658813-.248133.08461-.494169.176226-.738456.272852l.0026.0083 6.811987 2.856157c-.200393.902169-.281636 1.913884-.281636 2.874243 0 .15023-.0054.261978 0 .410828l-10.881003-1.415969c.0185-.7076.07-1.71673.150378-2.407605-.226544.162956-.450188.329199-.669726.499711-1.218059.946061-2.444377 2.009322-3.170866 3.369821-1.308155 1.831859-2.296554 3.745106-2.956926 5.789311l.09509.232543 4.871021-.676444c.514323 2.087118 1.282705 4.079105 2.272212 5.942273l-8.170044 2.85564c.182295 3.295584.844868 6.465314 1.920297 9.4387l10.256738-6.670394c1.397795 1.503989 2.971175 2.850263 4.686536 4.010092l-9.626803 12.124844c2.41087 3.00751 5.332228 5.58588 8.635132 7.59747l6.985104-16.667204c1.886978.68489 3.872061 1.170891 5.929354 1.432471l-2.655136 19.303733c2.192696.46217 4.465223.70745 6.795452.70745 1.804814 0 3.576332-.14823 5.304585-.42891l-2.688213-19.544032c2.080344-.24011 4.089971-.709696 6.000151-1.382345l7.223332 17.301277c3.463977-1.89844 6.555593-4.39778 9.13381-7.35563l-10.304281-12.962c1.68737-1.120449 3.238029-2.421051 4.624524-3.873149l11.213269 8.016565c1.282566-3.010153 2.131098-6.245462 2.46703-9.626803l-9.51983-4.097941c1.008942-1.864428 1.796072-3.860327 2.32699-5.953125l6.36447.625802c-.713045-2.169371-1.775645-4.201384-3.088184-6.140194-.726569-1.360639-1.952797-2.423759-3.170866-3.369821-.650339-.505112-1.333346-.977531-2.041736-1.408699.162018 1.000495.262931 2.18895.294039 3.227193l-11.482503 1.505851c.0054-.148599 0-.261234 0-.411344 0-.910999-.100679-1.877925-.28112-2.736784l7.904944-3.274736c-2.604748-.888216-5.067607-1.565816-7.586617-2.063956l-1.793689 1.437638c-.401315-.684469-.857233-1.301646-1.367876-1.883606l-.121956-.09819c-2.852105-.37926-5.874739-.553004-9.331214-.552933zm-13.772803 13.210564c.325337.957979.734649 1.891068 1.264523 2.737817l-10.089307 4.066419c-.907706-1.678839-1.617953-3.474739-2.100647-5.358847zm25.647531.137459 11.415324 1.48208c-.499547 1.888918-1.228658 3.688033-2.155424 5.367631l-10.594702-4.249353c.505498-.807359 1.01505-1.691389 1.334802-2.600358zm-22.275127 5.269446c.727148.686409 1.448735 1.264777 2.318722 1.779736l-6.585128 8.295101c-1.556701-1.039519-2.985287-2.247881-4.257621-3.59823zm18.691366 0v.000517l9.007203 6.750492c-1.258054 1.294289-2.662021 2.453077-4.186308 3.450436l-6.858496-8.627381c.740114-.46081 1.404695-.985995 2.037601-1.574064zm-4.848799 2.87476h.000516l4.183208 10.02006c-1.72311.59739-3.534963 1.013562-5.410523 1.226282l-1.442806-10.493417c.903617-.119039 1.83143-.468886 2.669605-.752925zm-8.572087.136942c.846924.26134 1.760219.521054 2.670121.615983l-1.438672 10.45621c-1.851207-.23356-3.638364-.665838-5.337659-1.274858z" fill="#fe9" stroke-linecap="round" stroke-linejoin="round" stroke-width="1.32292"/><g fill-rule="evenodd"><path d="m57.581502 63.05808c-4.077972.476484-7.786291 1.347348-11.776026 2.707845-2.020908.689126-3.919561 1.788796-5.605859 3.098519-1.218059.946064-2.444377 2.009322-3.170866 3.369821-.2047.383449-.382172.845494-.291972 1.270723.39902 1.880588 2.020409 3.341223 3.462838 4.612122 1.613618 1.421748 3.570901 2.497874 5.605859 3.193603 6.560104 2.242848 12.389479 2.92451 20.340361 2.92437-8.491901-.0067-14.298157-.821711-20.340361-4.392497-2.405187-1.421409-5.468836-3.543324-5.484936-6.337081-.01621-2.831447 3.056329-5.030669 5.484936-6.486426 3.755481-2.251115 7.473061-3.407064 11.776026-3.960999zm8.564335 21.177003c7.950902.00013 13.641248-.681522 20.201352-2.92437 2.034958-.695729 3.992768-1.771855 5.606376-3.193603 1.442409-1.270909 3.063848-2.731544 3.462838-4.612122.0902-.425229-.08723-.887264-.291972-1.270723-.726459-1.360499-1.952797-2.423757-3.170866-3.369821-1.686288-1.309723-3.585498-2.409393-5.606376-3.098519-3.979336-1.356951-7.627726-2.226922-11.653036-2.704227 4.250292.55537 7.905849 1.71125 11.653036 3.957381 2.428607 1.455758 5.501553 3.654472 5.485453 6.485909-.01598 2.793757-3.080266 4.916189-5.485453 6.337598-6.042234 3.570776-11.70945 4.385497-20.201352 4.392497z" fill="#9eb8c5" opacity=".45"/><path d="m86.347311 79.842533c2.40519-1.42141 5.46915-3.54353 5.48513-6.33729.0161-2.83144-3.05652-5.030301-5.48513-6.48606-6.02115-3.609186-11.80484-4.404111-20.20147-4.414319-8.39663.01021-14.31899.805138-20.34011 4.414325-2.42861 1.455758-5.50137 3.654614-5.48516 6.486064.0161 2.79376 3.07997 4.91588 5.48516 6.33729 6.04221 3.57079 11.8482 4.38575 20.34011 4.3925 8.49191-.007 14.15923-.82173 20.20147-4.39251z" fill="url(#c)" opacity=".25"/></g></g><g><g transform="translate(-1.097605 3.504608)"><path d="m52.400186 20.363774 5.99503 14.618867c.53304 1.249855 1.21833 2.212549 2.50618 2.645833 4.40649 1.48235 9.03129 1.397315 13.36042.02791 1.40183-.443561 1.93709-1.509697 2.44718-2.888713l5.34514-14.453839s1.27488-2.846559 1.19108-4.34645c-.10908-1.952252-.83162-4.024781-2.1709-5.449393-1.56588-1.6656611-3.99536-2.3314561-6.20272-2.9264381-2.53252-.68263-5.21692-.675475-7.83983-.673859-2.64533.0016-5.36111-.0327-7.90598.689361-2.11531.600184-4.41048 1.339962-5.89318 2.9636461-1.34326 1.470991-2.12571 3.569258-2.19027 5.56024-.048 1.480987 1.35785 4.232839 1.35785 4.232839z" fill="#c36e36"/><path d="m56.808976 13.715668c-.85684.974441-1.1465 2.449269-1.0648 3.744272.10003 1.585465 1.24628 2.922606 1.86942 4.38391 1.60205 3.756954 4.80615 11.270872 4.80615 11.270872 3.47978 1.170599 6.87158 1.118722 10.40569.000794 0 0 2.78521-7.531087 4.1778-11.296637.53735-1.452978 1.5533-2.810896 1.61203-4.358939.0492-1.297136-.1986-2.782319-1.07016-3.744272-.90373-.997453-2.44365-1.180606-3.75449-1.486141-2.2014-.513115-4.49854-.549246-6.75896-.549265-2.26041-.000018-4.56506.0048-6.75896.549151-1.2194.302548-2.63409.542753-3.46372 1.486255z" fill="url(#a)"/></g><g fill="#7f8899" stroke-width=".999999" transform="matrix(.26458334 0 0 .26458334 238.17537 -58.892264)"><path d="m-235.24023 17.787109-4.4961.01367-10.32812.01172-10.25.01172a1.3187171 1.3187171 0 0 0 -.002 0l-4.57812.01367a1.3187171 1.3187171 0 0 0 -1.20899 1.835937l5.44141 12.757813c1.65375 5.135477 2.06393 10.427569-1.25 15.101562-3.48982 4.921834-9.15246 9.324735-13.92578 14.390625-4.7628 5.055919-8.58594 10.663585-8.58594 17.88086 0 18.958286 15.34484 34.455082 34.29883 34.455082 18.95523 0 34.45508-15.500783 34.45508-34.455082 0-7.212491-3.66674-12.945157-8.3418-18.058594-4.68223-5.121997-10.33021-9.53528-14.13476-14.167969-2.59571-3.160761-2.63509-7.605501-1.64063-12.367187l5.78715-15.648436a1.3187171 1.3187171 0 0 0 -1.24023-1.775391z" opacity=".15" transform="matrix(3.7795275 0 0 3.7795275 294.8676 240.39681)"/><path d="m-725.97342 306.87834c7.06269 19.35528 18.39628 39.14532 24.6858 57.69843 6.28769 18.55311 7.7574 34.42433-2.67682 49.14136-11.66169 16.44835-32.895 33.27693-51.67831 53.21616-18.78327 19.9392-35.42509 43.92253-35.42509 75.08537 0 77.57118 62.96579 141.17466 140.58039 141.17466 77.61382 0 141.17462-63.56171 141.17462-141.17466 0-30.98978-15.884-55.38912-34.3936-75.63691-18.5088-20.24784-39.9356-37.14373-53.0491-53.11302-7.8256-9.52717-6.8905-29.09983-.7502-50.25127 6.1395-21.15143 16.4228-42.65493 22.0858-55.70025 9.8623-21.36952-26.6499-6.56781-31.7903-5.49716-14.31791 2.6163-28.99079 3.23165-43.54579 3.22353-14.339-.008-28.78061-.70156-42.89613-3.22353-16.10868-5.85393-37.97087-10.94081-32.32127 5.05729zm131.76049 5.72906-22.04111 59.6015c-3.94518 18.72276-4.09179 37.44042 7.18632 51.17367 14.91309 18.15923 36.30319 34.82498 53.60319 53.74979 17.3008 18.92307 30.22 39.30474 30.22 64.88647 0 68.92373-56.3174 125.24455-125.24462 125.24455-68.9246 0-124.6478-56.27565-124.6478-125.24455 0-25.52976 13.42972-45.41525 31.08953-64.1619 17.66309-18.74573 39.24759-35.42002 53.07719-54.92446 13.7111-19.33826 11.8936-41.42994 5.36201-61.63685l-20.68263-48.49945s12.98922 4.35882 19.70423 5.59399c11.95717 2.19943 24.17699 3.18298 36.33479 3.17634 12.36438-.007 24.80439-.94841 36.94888-3.27072 6.52162-1.24711 19.09002-5.68838 19.09002-5.68838z"/></g></g></g></svg>