<svg height="500" viewBox="0 0 132.29167 132.29167" width="500" xmlns="http://www.w3.org/2000/svg" xmlns:xlink="http://www.w3.org/1999/xlink"><radialGradient id="a" cx="494.25363" cy="332.55859" gradientTransform="matrix(-.33462355 .12958228 -.13250235 -.34220148 276.54747 68.068365)" gradientUnits="userSpaceOnUse" r="43.257179"><stop offset="0" stop-color="#deaa87"/><stop offset="1" stop-color="#d38d5f"/></radialGradient><filter id="b" color-interpolation-filters="sRGB" height="1.039002" width="1.0386" x="-.0193" y="-.019501"><feGaussianBlur stdDeviation="1.2931137"/></filter><radialGradient id="c" cx="331.64621" cy="98.222939" gradientTransform="matrix(0 1.9793186 -1.8818536 .00000004 252.01531 -586.51818)" gradientUnits="userSpaceOnUse" r="19.84375" spreadMethod="pad"><stop offset="0" stop-color="#f9e105"/><stop offset=".09343466" stop-color="#f9e105"/><stop offset=".266667" stop-color="#fbc408"/><stop offset="1" stop-color="#f03c1f"/></radialGradient><filter id="d" color-interpolation-filters="sRGB" height="1.046706" width="1.017202" x="-.008601" y="-.023353"><feGaussianBlur stdDeviation=".21047021"/></filter><radialGradient id="e" cx="348.81479" cy="136.01701" gradientTransform="matrix(-.18649466 -1.408067 2.8025877 -.3711953 -219.93048 610.36413)" gradientUnits="userSpaceOnUse" r="19.84375" spreadMethod="pad"><stop offset="0" stop-color="#f03c1f"/><stop offset=".733333" stop-color="#fbc408"/><stop offset=".9818182" stop-color="#f9e105"/><stop offset="1" stop-color="#f9e105"/></radialGradient><filter id="f" color-interpolation-filters="sRGB" height="1.112552" width="1.114395" x="-.057197" y="-.056276"><feGaussianBlur stdDeviation="4.0747033"/></filter><g><g fill="#7f8899" stroke-width=".999999" transform="matrix(.26458334 0 0 .26458334 238.17537 -58.892264)"><path d="m-235.24023 17.787109-4.4961.01367-10.32812.01172-10.25.01172a1.3187171 1.3187171 0 0 0 -.002 0l-4.57812.01367a1.3187171 1.3187171 0 0 0 -1.20899 1.835937l5.44141 12.757813c1.65375 5.135477 2.06393 10.427569-1.25 15.101562-3.48982 4.921834-9.15246 9.324735-13.92578 14.390625-4.7628 5.055919-8.58594 10.663585-8.58594 17.88086 0 18.958286 15.34484 34.455082 34.29883 34.455082 18.95523 0 34.45508-15.500783 34.45508-34.455082 0-7.212491-3.66674-12.945157-8.3418-18.058594-4.68223-5.121997-10.33021-9.53528-14.13476-14.167969-2.59571-3.160761-2.63509-7.605501-1.64063-12.367187l5.78715-15.648436a1.3187171 1.3187171 0 0 0 -1.24023-1.775391z" opacity=".15" transform="matrix(3.7795275 0 0 3.7795275 294.8676 240.39681)"/><path d="m-725.97342 306.87834c7.06269 19.35528 18.39628 39.14532 24.6858 57.69843 6.28769 18.55311 7.7574 34.42433-2.67682 49.14136-11.66169 16.44835-32.895 33.27693-51.67831 53.21616-18.78327 19.9392-35.42509 43.92253-35.42509 75.08537 0 77.57118 62.96579 141.17466 140.58039 141.17466 77.61382 0 141.17462-63.56171 141.17462-141.17466 0-30.98978-15.884-55.38912-34.3936-75.63691-18.5088-20.24784-39.9356-37.14373-53.0491-53.11302-7.8256-9.52717-6.8905-29.09983-.7502-50.25127 6.1395-21.15143 16.4228-42.65493 22.0858-55.70025 9.8623-21.36952-26.6499-6.56781-31.7903-5.49716-14.31791 2.6163-28.99079 3.23165-43.54579 3.22353-14.339-.008-28.78061-.70156-42.89613-3.22353-16.10868-5.85393-37.97087-10.94081-32.32127 5.05729zm131.76049 5.72906-22.04111 59.6015c-3.94518 18.72276-4.09179 37.44042 7.18632 51.17367 14.91309 18.15923 36.30319 34.82498 53.60319 53.74979 17.3008 18.92307 30.22 39.30474 30.22 64.88647 0 68.92373-56.3174 125.24455-125.24462 125.24455-68.9246 0-124.6478-56.27565-124.6478-125.24455 0-25.52976 13.42972-45.41525 31.08953-64.1619 17.66309-18.74573 39.24759-35.42002 53.07719-54.92446 13.7111-19.33826 11.8936-41.42994 5.36201-61.63685l-20.68263-48.49945s12.98922 4.35882 19.70423 5.59399c11.95717 2.19943 24.17699 3.18298 36.33479 3.17634 12.36438-.007 24.80439-.94841 36.94888-3.27072 6.52162-1.24711 19.09002-5.68838 19.09002-5.68838z"/></g><g><g transform="translate(-1.097605 3.50461)"><path d="m100.30202 81.012275c0 18.23606-14.900644 33.137615-33.137604 33.137615-18.2363 0-32.97976-14.889605-32.97976-33.137615 0-4.67889 1.34094-8.6406 3.94174-12.2826.72649-1.3605 1.95278-2.423563 3.17084-3.369625 1.6863-1.309728 3.58519-2.409622 5.6061-3.098748 6.57281-2.241325 12.37523-3.161202 20.34011-3.161043 7.96491-.000164 13.62866.919713 20.20147 3.161035 2.02088.689129 3.9198 1.789023 5.60609 3.09875 1.21807.946063 2.44436 2.009121 3.17093 3.369761 2.47862 3.66128 4.080084 7.64957 4.080084 12.28247z" fill="url(#c)"/><g fill-rule="evenodd"><path d="m46.903336 77.806035c-2.03496-.69573-3.99248-1.77167-5.6061-3.19342-1.44243-1.2709-3.06392-2.73139-3.46294-4.61198-.0902-.42523.0874-.88751.2921-1.27096.72649-1.3605 1.95278-2.423563 3.17084-3.369628 1.6863-1.309725 3.58519-2.409621 5.6061-3.098747 6.57281-2.241325 12.37523-3.1612 20.34011-3.161044 7.96491-.000161 13.62866.919713 20.20147 3.161038 2.02088.689126 3.9198 1.789023 5.60609 3.098748 1.21807.946065 2.44436 2.009123 3.17082 3.369623.20474.38346.3823.84574.2921 1.27097-.39899 1.88058-2.02051 3.34106-3.46292 4.61197-1.61361 1.42175-3.57113 2.49769-5.60609 3.19342-6.56011 2.24285-12.25056 2.92454-20.20147 2.92441-7.95089.00014-13.78-.68155-20.34011-2.9244z" fill="#b21a1a" filter="url(#d)" opacity=".67"/><path d="m87.444916 76.337925c2.40519-1.42141 5.46915-3.54353 5.48513-6.33729.0161-2.83144-3.05652-5.030301-5.48513-6.48606-6.02115-3.609186-11.80484-4.404111-20.20147-4.414319-8.39663.01021-14.31899.805138-20.34011 4.414325-2.42861 1.455758-5.50137 3.654614-5.48516 6.486064.0161 2.79376 3.07997 4.91588 5.48516 6.33729 6.04221 3.57079 11.8482 4.38575 20.34011 4.3925 8.49191-.007 14.15923-.82173 20.20147-4.39251z" fill="url(#e)"/></g></g><path d="m-655.66602 473.16211c.96846 1.36688 1.56576 3.20029 1.94727 4.6582 1.44177 6.0217 1.40848 12.28228 1.06598 18.429-.63067 9.41673-2.26328 18.80231-5.23333 27.77159-1.55162 4.43272-3.34177 8.91303-6.36196 12.57008-1.38888 1.62379-3.36529 3.30254-5.65811 2.89314-2.56618-.56578-4.3683-2.71316-5.89266-4.70678-1.57453-2.13011-2.9216-4.63259-4.02734-6.90234-2.30386-4.75462-3.9841-9.77187-5.83594-14.71094-1.79045 6.31932-3.52114 12.66048-5.66797 18.8711-.54303 1.56932-1.17037 3.33986-1.78473 4.97349-3.12133 8.19934-6.72071 16.31765-11.84557 23.48241-2.40147 3.2421-5.12061 6.46945-8.78354 8.31675-1.79144.91784-4.16816 1.18012-5.801-.21211-2.31547-1.98249-3.16902-5.09651-3.69881-7.98515-.64944-3.74028-.43791-7.55024-.54924-11.32735-2.78638 3.22956-5.85003 6.29945-7.84921 10.11343-3.71514 6.68459-4.66297 14.6129-3.67184 22.12131 1.282 9.87249 5.28467 19.18561 10.25594 27.73419 5.26963 8.93499 11.67697 17.22637 19.14745 24.43177 3.06546 2.86279 6.26136 5.69395 10.01267 7.62634 3.90945 1.86229 8.37984 3.20019 12.71072 2.15368 2.67119-.63975 5.14773-1.88927 7.81548-2.54952.73785-.22082 1.4757-.44163 2.21356-.66245-7.807-6.76607-15.56973-13.80334-21.37044-22.43053-4.72167-6.91769-7.84698-14.92342-8.94011-23.23353 4.51962.88584 9.10243 2.12416 13.74609 1.64453 3.3084-.31922 6.4042-2.12969 8.31053-4.85107 2.7771-3.88803 3.90242-8.64817 4.81057-13.26221.15729-.88321.31605-1.76652.44531-2.6543 2.84009 3.23012 6.48022 6.19648 10.89258 6.72071 3.88932.48464 7.68013-1.30892 10.5594-3.8054 4.47877-3.86582 7.69033-8.93378 10.66233-13.98838 4.34326-7.52451 7.96526-15.43124 11.99897-23.12029-.14487 9.69125.35006 19.59895 3.64649 28.80469 1.36195 3.65648 3.10225 7.23363 5.56722 10.27826 2.68399 2.88 6.63273 4.0812 10.39007 4.79902 2.01258.37777 4.05446.59109 6.09935.68835-3.26669 5.45569-6.36476 11.17869-7.65464 17.46361-.74921 3.72483-.57116 7.9453 1.83432 11.06568 1.60075 2.06045 3.93774 3.38015 6.23159 4.53249 1.29697.6094 2.67555 1.07007 4.10045 1.25267-2.66852 4.28905-5.42535 8.67879-9.4548 11.83515-3.56844 2.91956-7.82321 4.79335-12.06558 6.50265-1.43787.60289-2.87574 1.20579-4.31361 1.80868 4.6679.66171 9.32319 1.40759 13.9866 2.09633 4.75566.66172 9.65894.23922 14.19781-1.34652 8.90693-3.03103 16.67858-8.84917 22.87469-15.85179 5.15161-5.91413 9.40293-12.84107 11.20262-20.54059 1.04526-4.54071 1.01297-9.43868-.81804-13.78065-.24425-.66947-.4885-1.33894-.73274-2.00842-4.83069 4.06306-9.80735 8.19583-15.75565 10.50961-.84771.32203-1.71582.59219-2.59982.79508 5.44463-8.89707 8.8483-19.03508 9.78452-29.4284 1.23668-13.08815-1.11747-26.21558-4.56971-38.80455-1.24777-4.54793-2.66501-9.0467-4.01169-13.56588-2.25617 7.863-4.28034 15.71268-7.39339 23.30008-1.9326 4.69543-4.35948 9.32661-8.08317 12.86008.70293-6.93346-1.03932-13.85373-3.41077-20.31994-4.06841-10.75961-10.10403-20.66196-16.80577-29.96781-6.96528-9.53618-14.72649-18.53663-23.51886-26.43783-3.16699-2.82612-6.49479-5.48828-10.08882-7.75489-1.44075 0-2.88151 0-4.32226 0 .68685 1.03516 1.3737 2.07031 2.06054 3.10547z" fill="#f9e105" filter="url(#f)" transform="matrix(.26458334 0 0 .26458334 238.17537 -58.892264)"/></g><g><g transform="translate(-1.097605 3.504608)"><path d="m52.400186 20.363774 5.99503 14.618867c.53304 1.249855 1.21833 2.212549 2.50618 2.645833 4.40649 1.48235 9.03129 1.397315 13.36042.02791 1.40183-.443561 1.93709-1.509697 2.44718-2.888713l5.34514-14.453839s1.27488-2.846559 1.19108-4.34645c-.10908-1.952252-.83162-4.024781-2.1709-5.449393-1.56588-1.6656611-3.99536-2.3314561-6.20272-2.9264381-2.53252-.68263-5.21692-.675475-7.83983-.673859-2.64533.0016-5.36111-.0327-7.90598.689361-2.11531.600184-4.41048 1.339962-5.89318 2.9636461-1.34326 1.470991-2.12571 3.569258-2.19027 5.56024-.048 1.480987 1.35785 4.232839 1.35785 4.232839z" fill="#c36e36"/><path d="m56.808976 13.715668c-.85684.974441-1.1465 2.449269-1.0648 3.744272.10003 1.585465 1.24628 2.922606 1.86942 4.38391 1.60205 3.756954 4.80615 11.270872 4.80615 11.270872 3.47978 1.170599 6.87158 1.118722 10.40569.000794 0 0 2.78521-7.531087 4.1778-11.296637.53735-1.452978 1.5533-2.810896 1.61203-4.358939.0492-1.297136-.1986-2.782319-1.07016-3.744272-.90373-.997453-2.44365-1.180606-3.75449-1.486141-2.2014-.513115-4.49854-.549246-6.75896-.549265-2.26041-.000018-4.56506.0048-6.75896.549151-1.2194.302548-2.63409.542753-3.46372 1.486255z" fill="url(#a)"/></g><g transform="matrix(.26458334 0 0 .26458334 238.17537 -58.892264)"><g stroke-width=".999999"><path d="m-235.24023 17.787109-4.4961.01367-10.32812.01172-10.25.01172a1.3187171 1.3187171 0 0 0 -.002 0l-4.57812.01367a1.3187171 1.3187171 0 0 0 -1.20899 1.835937l5.44141 12.757813c1.65375 5.135477 2.06393 10.427569-1.25 15.101562-3.48982 4.921834-9.15246 9.324735-13.92578 14.390625-4.7628 5.055919-8.58594 10.663585-8.58594 17.88086 0 18.958286 15.34484 34.455082 34.29883 34.455082 18.95523 0 34.45508-15.500783 34.45508-34.455082 0-7.212491-3.66674-12.945157-8.3418-18.058594-4.68223-5.121997-10.33021-9.53528-14.13476-14.167969-2.59571-3.160761-2.63509-7.605501-1.64063-12.367187l5.78715-15.648436a1.3187171 1.3187171 0 0 0 -1.24023-1.775391z" fill="#7f8899" opacity=".15" transform="matrix(3.7795275 0 0 3.7795275 294.8676 240.39681)"/><path d="m-725.97342 306.87834c7.06269 19.35528 18.39628 39.14532 24.6858 57.69843 6.28769 18.55311 7.7574 34.42433-2.67682 49.14136-11.66169 16.44835-32.895 33.27693-51.67831 53.21616-18.78327 19.9392-35.42509 43.92253-35.42509 75.08537 0 77.57118 62.96579 141.17466 140.58039 141.17466 77.61382 0 141.17462-63.56171 141.17462-141.17466 0-30.98978-15.884-55.38912-34.3936-75.63691-18.5088-20.24784-39.9356-37.14373-53.0491-53.11302-7.8256-9.52717-6.8905-29.09983-.7502-50.25127 6.1395-21.15143 16.4228-42.65493 22.0858-55.70025 9.8623-21.36952-26.6499-6.56781-31.7903-5.49716-14.31791 2.6163-28.99079 3.23165-43.54579 3.22353-14.339-.008-28.78061-.70156-42.89613-3.22353-16.10868-5.85393-37.97087-10.94081-32.32127 5.05729zm131.76049 5.72906-22.04111 59.6015c-3.94518 18.72276-4.09179 37.44042 7.18632 51.17367 14.91309 18.15923 36.30319 34.82498 53.60319 53.74979 17.3008 18.92307 30.22 39.30474 30.22 64.88647 0 68.92373-56.3174 125.24455-125.24462 125.24455-68.9246 0-124.6478-56.27565-124.6478-125.24455 0-25.52976 13.42972-45.41525 31.08953-64.1619 17.66309-18.74573 39.24759-35.42002 53.07719-54.92446 13.7111-19.33826 11.8936-41.42994 5.36201-61.63685l-20.68263-48.49945s12.98922 4.35882 19.70423 5.59399c11.95717 2.19943 24.17699 3.18298 36.33479 3.17634 12.36438-.007 24.80439-.94841 36.94888-3.27072 6.52162-1.24711 19.09002-5.68838 19.09002-5.68838z" fill="#7f8899"/><path d="m-639.01848 484.6904c20.6251 20.728 44.01568 56.48828 35.98633 75.42969 1.17964-.95237 2.27176-1.861 3.33203-2.78907 3.1252-20.4119-19.85907-53.84316-39.31836-72.64062zm-44.39453 36.92773c-.1703.61399-.34586 1.1851-.51758 1.78711 3.41121 8.46583 6.74357 13.66471 9.89844 16.18945-3.01795-3.40517-6.16715-9.12872-9.38086-17.97656zm101.36524 5.88281c-.25502.91273-.48548 1.60009-.73438 2.45704 7.0844 24.69274 9.72079 48.88814-6.39648 72.53906 1.08595.0843 2.23254-.0304 3.40429-.23242 15.38645-24.36588 11.52007-49.29879 3.72657-74.76368zm-47.74024 5.72461c-11.54569 18.39666-24.25268 59.57262-42.53906 43.24219 18.18873 20.02723 30.94532-17.09804 42.33789-37.48828.0539-1.97796.12573-3.90709.20117-5.75391zm-93.93359 23.28907c-.64582.71536-1.22134 1.45393-1.78125 2.19726.58922 5.83266 2.41988 9.8488 5.08789 11.69531-2.0727-2.86597-3.30034-7.58816-3.30664-13.89257zm46.21289 13.97461c-3.27274 28.87578-11.81123 24.86194-28.26953 21.58398 1.64467 17.68143 10.10459 30.01698 22.93164 42.17188-11.66905-11.52477-19.37674-23.45553-20.93164-40.17188 16.34499 3.25539 24.87299 7.19954 28.19531-21.0293-.63562-.78212-1.27686-1.62953-1.92578-2.55468zm57.50976 9.67382c.0565.0801.10289.16643.16016.2461 2.61116 3.6295 9.2697 5.1495 15.83789 5.4414.43786-.70947.88552-1.4317 1.20117-1.94336-6.31118.0889-13.3237-.90249-17.19922-3.74414zm54.14258 14.06055c-.38837.32914-.77437.62603-1.16211.94336 2.88059 15.38727-14.35072 38.09415-33.74804 44.20313-5.92001 1.85001-10.27398 1.44194-14.76758.74218-.88807.42321-1.73736.85114-2.73633 1.25782 6.43177.89931 11.55583 2.48378 19.50391 0 20.67724-6.51208 38.89347-31.88484 32.91015-47.14649zm-42.76953 20.77149c.51742.70877 1.11577 1.37574 1.91016 1.9414 3.2635 2.32384 5.56705 3.01379 7.17968 3.19727 2.00208-4.41538.0706 1.33304-9.08984-5.13867zm-96.32031 16.80078c4.39884 4.52475 8.53554 7.93477 11.62109 9.57617 9.91283 4.7541 12.93147 1.40514 18.13281 0-.74887-.6526-1.42686-1.3009-2.15234-1.95117-5.10507 1.42904-8.16884 4.65674-17.98047-.0488-2.61048-1.38868-5.98676-4.06524-9.62109-7.57617z" fill="#fff" filter="url(#b)" opacity=".5"/></g><path d="m-653.99934 472.05739c11.92838 16.98117-8.18707 111.50554-31.41316 47.56048-16.68096 60.138-40.28031 62.715-40.30814 34.89671-24.90733 27.58939 15.24496 76.79773 30.3953 84.85713 9.91284 4.75411 12.93195 1.40514 18.1333 0-15.97408-13.92028-26.71068-27.13369-28.58638-47.29889 16.45832 3.27796 24.99604 7.29131 28.26878-21.5845 21.1281 30.12187 35.11517-17.17632 47.7219-37.2636-.57294 14.02603-1.16293 32.51033 7.94808 45.18385 3.03897 4.22416 11.56034 5.60415 19.04089 5.49875-3.45085 5.59371-15.60117 24.13368-5.91653 31.02981 9.68463 6.89613 11.50468-.13358 8.99447 5.62711-4.61412 7.26348-7.99818 13.69729-20.54925 18.80677 6.43178.89932 11.55478 2.48379 19.50286 0 20.67726-6.51208 38.89405-31.8866 32.91073-47.14826-7.65831 6.49017-15.22757 10.74807-21.32221 10.27497 17.08726-25.07431 13.16332-50.75495 5.13174-76.99775-7.03527 25.17971-11.64939 28.69735-18.98523 34.6198 10.12435-23.88356-29.72182-74.59955-50.96611-88.06273z" fill="#7f8899" opacity=".9" stroke-width=".999998"/></g></g></g></svg>