<svg height="500" viewBox="0 0 132.29167 132.29167" width="500" xmlns="http://www.w3.org/2000/svg" xmlns:xlink="http://www.w3.org/1999/xlink"><linearGradient id="a"><stop offset="0" stop-color="#fff"/><stop offset="1" stop-color="#f9f5ec"/></linearGradient><linearGradient id="b" gradientUnits="userSpaceOnUse" spreadMethod="reflect" x1="87.68813976772" x2="22.92226034416" xlink:href="#a" y1="85.24806549732" y2="92.85315006811"/><linearGradient id="c" gradientUnits="userSpaceOnUse" x1="41.3369510002" x2="93.05101363657" xlink:href="#a" y1="65.20470735996" y2="74.61260301368"/><filter id="d" color-interpolation-filters="sRGB" height="1.181135" width="2.186667" x="-.593333" y="-.090568"><feGaussianBlur stdDeviation="1.0596563"/></filter><filter id="e" color-interpolation-filters="sRGB" height="1.808142" width="1.184187" x="-.092094" y="-.404071"><feGaussianBlur stdDeviation=".7465664"/></filter><radialGradient id="f" cx="348.49722" cy="49.902065" gradientTransform="matrix(1.7656189 .00000188 -.00000129 1.6034383 -392.8511 11.624126)" gradientUnits="userSpaceOnUse" r="27.908255"><stop offset="0" stop-color="#ebc9c6"/><stop offset=".86158693" stop-color="#ebc9c6"/><stop offset="1" stop-color="#f6efee"/></radialGradient><filter id="g" color-interpolation-filters="sRGB" height="1.534855" width="1.445323" x="-.222661" y="-.267428"><feGaussianBlur stdDeviation="6.6782188"/></filter><filter id="h" color-interpolation-filters="sRGB" height="1.157588" width="1.213536" x="-.106768" y="-.078794"><feGaussianBlur stdDeviation=".845527"/></filter><g><g><g fill="#7f8899" stroke-width=".999999" transform="matrix(.26458334 0 0 .26458334 239.27297 -62.396872)"><path d="m-235.24023 17.787109-4.4961.01367-10.32812.01172-10.25.01172a1.3187171 1.3187171 0 0 0 -.002 0l-4.57812.01367a1.3187171 1.3187171 0 0 0 -1.20899 1.835937l5.44141 12.757813c1.65375 5.135477 2.06393 10.427569-1.25 15.101562-3.48982 4.921834-9.15246 9.324735-13.92578 14.390625-4.7628 5.055919-8.58594 10.663585-8.58594 17.88086 0 18.958286 15.34484 34.455082 34.29883 34.455082 18.95523 0 34.45508-15.500783 34.45508-34.455082 0-7.212491-3.66674-12.945157-8.3418-18.058594-4.68223-5.121997-10.33021-9.53528-14.13476-14.167969-2.59571-3.160761-2.63509-7.605501-1.64063-12.367187l5.78715-15.648436a1.3187171 1.3187171 0 0 0 -1.24023-1.775391z" opacity=".15" transform="matrix(3.7795275 0 0 3.7795275 294.8676 240.39681)"/><path d="m-725.97342 306.87834c7.06269 19.35528 18.39628 39.14532 24.6858 57.69843 6.28769 18.55311 7.7574 34.42433-2.67682 49.14136-11.66169 16.44835-32.895 33.27693-51.67831 53.21616-18.78327 19.9392-35.42509 43.92253-35.42509 75.08537 0 77.57118 62.96579 141.17466 140.58039 141.17466 77.61382 0 141.17462-63.56171 141.17462-141.17466 0-30.98978-15.884-55.38912-34.3936-75.63691-18.5088-20.24784-39.9356-37.14373-53.0491-53.11302-7.8256-9.52717-6.8905-29.09983-.7502-50.25127 6.1395-21.15143 16.4228-42.65493 22.0858-55.70025 9.8623-21.36952-26.6499-6.56781-31.7903-5.49716-14.31791 2.6163-28.99079 3.23165-43.54579 3.22353-14.339-.008-28.78061-.70156-42.89613-3.22353-16.10868-5.85393-37.97087-10.94081-32.32127 5.05729zm131.76049 5.72906-22.04111 59.6015c-3.94518 18.72276-4.09179 37.44042 7.18632 51.17367 14.91309 18.15923 36.30319 34.82498 53.60319 53.74979 17.3008 18.92307 30.22 39.30474 30.22 64.88647 0 68.92373-56.3174 125.24455-125.24462 125.24455-68.9246 0-124.6478-56.27565-124.6478-125.24455 0-25.52976 13.42972-45.41525 31.08953-64.1619 17.66309-18.74573 39.24759-35.42002 53.07719-54.92446 13.7111-19.33826 11.8936-41.42994 5.36201-61.63685l-20.68263-48.49945s12.98922 4.35882 19.70423 5.59399c11.95717 2.19943 24.17699 3.18298 36.33479 3.17634 12.36438-.007 24.80439-.94841 36.94888-3.27072 6.52162-1.24711 19.09002-5.68838 19.09002-5.68838z"/></g><path d="m103.23458 80.186768c0 19.853732-16.222448 36.077172-36.077165 36.077172-19.853999 0-35.905316-16.21043-35.905316-36.077172 0-5.093943 1.459892-9.407087 4.291403-13.37216.790935-1.481187 2.126006-2.638552 3.452117-3.668537 1.835888-1.42591 3.903224-2.623373 6.103404-3.37363 7.155868-2.440148 13.473007-3.441625 22.144432-3.441452 8.671458-.000178 14.837626 1.001299 21.993494 3.441443 2.200148.75026 4.267516 1.947723 6.103393 3.373633 1.326122 1.029986 2.661193 2.187345 3.452216 3.668684 2.698492 3.986064 4.442022 8.328145 4.442022 13.372019z" fill="#f9f5ec" filter="url(#g)" opacity=".5"/></g><g><path d="m62.18432 104.03086c-1.163352.00889-2.18072.83194-3.362069.93173-3.012808.61583-6.030127-.38338-9.052161-.5023-2.535823-.09978-5.530147-.27861-7.99021-.30024 6.272258 6.93799 15.31966 11.30784 25.385014 11.30784 9.165734 0 17.523622-3.62443 23.711732-9.51105-.425939.02144-5.51588.27341-8.176245.19534-3.762739-.1104-7.456113-.87251-11.221021-.93534-1.605984-.0268-3.181981.72136-4.807459.23926-1.382048-.17929-2.528234-.72913-3.655074-1.28261-.287858-.1036-.564042-.14468-.832507-.14263z" fill="#836e48" opacity=".95"/><path d="m60.890342 110.25565c-.610653.00095-1.092531.0341-1.413867.0994l-6.347934 1.97091-.08682.0268c-.152165.0619-.235974.1142-.04289.22704.193085.11285.607166.2577 1.180807.41127 1.162949.30779 2.986159.65549 4.926314.95164 1.940153.29616 4.022151.54448 5.669939.66574.819288.059 1.537322.0871 2.040702.0805.503378-.007.661707-.0475.826304-.10745l.06201-.0305 4.594035-2.23866c.185724-.17505-.227282-.41717-1.159102-.6869-.941351-.27275-2.374334-.56011-3.935162-.79836-1.560827-.23826-3.249372-.42738-4.671031-.51533-.615262-.0381-1.16836-.0569-1.643311-.0561z" filter="url(#e)" opacity=".5" stroke-width=".054764" transform="matrix(1.8107224 0 -1.164673 .82074359 79.515645 17.671571)"/><g stroke-width="1.96984" transform="matrix(.4728553 .29784238 -.24578152 .39020335 -21.941313 -4.412655)"><path d="m248.62036 71.091714-1.60753-14.500002c-.73818-2.788443-3.59568-5.243512-8.07243-6.99135-4.52438-1.769269-10.50132-2.709862-16.47825-2.709862-5.97694 0-11.95388.940593-16.47826 2.709862-4.47675 1.747838-7.33425 4.202907-8.07243 6.99135l-1.51074 14.490688s17.34395-2.18011 26.06143-2.179908c8.74989.000202 26.15821 2.189222 26.15821 2.189222z" fill="url(#f)" stroke-width=".131508"/><path d="m205.07902 56.177375h4.28625v28.080407h-4.28625z" fill="#f6efee" filter="url(#d)" stroke-width=".200785" transform="matrix(1 0 0 .42898694 0 32.078015)"/></g><g opacity=".5"><path d="m100.30202 81.012275c0 18.23606-14.900644 33.137615-33.137604 33.137615-18.2363 0-32.97976-14.889605-32.97976-33.137615 0-4.67889 1.34094-8.6406 3.94174-12.2826.72649-1.3605 1.95278-2.423563 3.17084-3.369625 1.6863-1.309728 3.58519-2.409622 5.6061-3.098748 6.57281-2.241325 12.37523-3.161202 20.34011-3.161043 7.96491-.000164 13.62866.919713 20.20147 3.161035 2.02088.689129 3.9198 1.789023 5.60609 3.09875 1.21807.946063 2.44436 2.009121 3.17093 3.369761 2.47862 3.66128 4.080084 7.64957 4.080084 12.28247z" fill="url(#b)"/><g fill-rule="evenodd"><path d="m46.903336 77.806035c-2.03496-.69573-3.99248-1.77167-5.6061-3.19342-1.44243-1.2709-3.06392-2.73139-3.46294-4.61198-.0902-.42523.0874-.88751.2921-1.27096.72649-1.3605 1.95278-2.423563 3.17084-3.369628 1.6863-1.309725 3.58519-2.409621 5.6061-3.098747 6.57281-2.241325 12.37523-3.1612 20.34011-3.161044 7.96491-.000161 13.62866.919713 20.20147 3.161038 2.02088.689126 3.9198 1.789023 5.60609 3.098748 1.21807.946065 2.44436 2.009123 3.17082 3.369623.20474.38346.3823.84574.2921 1.27097-.39899 1.88058-2.02051 3.34106-3.46292 4.61197-1.61361 1.42175-3.57113 2.49769-5.60609 3.19342-6.56011 2.24285-12.25056 2.92454-20.20147 2.92441-7.95089.00014-13.78-.68155-20.34011-2.9244z" fill="url(#c)" opacity="1"/><path d="m58.679107 59.553472c-4.077972.476484-7.786291 1.347348-11.776026 2.707845-2.020908.689126-3.919561 1.788796-5.605859 3.098519-1.218059.946064-2.444377 2.009322-3.170866 3.369821-.2047.383449-.382172.845494-.291972 1.270723.39902 1.880588 2.020409 3.341223 3.462838 4.612122 1.613618 1.421748 3.570901 2.497874 5.605859 3.193603 6.560104 2.242848 12.389479 2.92451 20.340361 2.92437-8.491901-.0067-14.298157-.821711-20.340361-4.392497-2.405187-1.421409-5.468836-3.543324-5.484936-6.337081-.01621-2.831447 3.056329-5.030669 5.484936-6.486426 3.755481-2.251115 7.473061-3.407064 11.776026-3.960999zm8.564335 21.177003c7.950902.00013 13.641248-.681522 20.201352-2.92437 2.034958-.695729 3.992768-1.771855 5.606376-3.193603 1.442409-1.270909 3.063848-2.731544 3.462838-4.612122.0902-.425229-.08723-.887264-.291972-1.270723-.726459-1.360499-1.952797-2.423757-3.170866-3.369821-1.686288-1.309723-3.585498-2.409393-5.606376-3.098519-3.979336-1.356951-7.627726-2.226922-11.653036-2.704227 4.250292.55537 7.905849 1.71125 11.653036 3.957381 2.428607 1.455758 5.501553 3.654472 5.485453 6.485909-.01598 2.793757-3.080266 4.916189-5.485453 6.337598-6.042234 3.570776-11.70945 4.385497-20.201352 4.392497z" fill="#bbb5a8"/></g></g></g><g><g stroke-width="1.24134" transform="matrix(-.80558653 0 0 -.80558653 -55.814766 91.388443)"><path d="m-160.08984 67.748047-14.48935 19.522428-.002.955078 1.44879 20.421867 28.95242 4.79594 15.10157-6.66406-1.78572-18.815761-3.77874-9.151039z" fill="#585652"/><path d="m-171.14101 88.227152 1.44979 17.385868 24.99545 4.29957 11.70569-5.16678-1.34055-16.580657-3.39645-7.964475-20.97136-8.097445z" fill="#84817b"/><path d="m-151.46884 80.033192 10.37961 6.043613 3.54806 13.403262-7.09612 6.307143-11.91022-.67548 10.20286-7.472374.65696-10.379599-5.78115-7.2263z" fill="#585652" filter="url(#h)"/></g><g fill="#7f8899" stroke-width=".999999" transform="matrix(.26458334 0 0 .26458334 239.27297 -62.396872)"><path d="m-235.24023 17.787109-4.4961.01367-10.32812.01172-10.25.01172a1.3187171 1.3187171 0 0 0 -.002 0l-4.57812.01367a1.3187171 1.3187171 0 0 0 -1.20899 1.835937l5.44141 12.757813c1.65375 5.135477 2.06393 10.427569-1.25 15.101562-3.48982 4.921834-9.15246 9.324735-13.92578 14.390625-4.7628 5.055919-8.58594 10.663585-8.58594 17.88086 0 18.958286 15.34484 34.455082 34.29883 34.455082 18.95523 0 34.45508-15.500783 34.45508-34.455082 0-7.212491-3.66674-12.945157-8.3418-18.058594-4.68223-5.121997-10.33021-9.53528-14.13476-14.167969-2.59571-3.160761-2.63509-7.605501-1.64063-12.367187l5.78715-15.648436a1.3187171 1.3187171 0 0 0 -1.24023-1.775391z" opacity=".15" transform="matrix(3.7795275 0 0 3.7795275 294.8676 240.39681)"/><path d="m-725.97342 306.87834c7.06269 19.35528 18.39628 39.14532 24.6858 57.69843 6.28769 18.55311 7.7574 34.42433-2.67682 49.14136-11.66169 16.44835-32.895 33.27693-51.67831 53.21616-18.78327 19.9392-35.42509 43.92253-35.42509 75.08537 0 77.57118 62.96579 141.17466 140.58039 141.17466 77.61382 0 141.17462-63.56171 141.17462-141.17466 0-30.98978-15.884-55.38912-34.3936-75.63691-18.5088-20.24784-39.9356-37.14373-53.0491-53.11302-7.8256-9.52717-6.8905-29.09983-.7502-50.25127 6.1395-21.15143 16.4228-42.65493 22.0858-55.70025 9.8623-21.36952-26.6499-6.56781-31.7903-5.49716-14.31791 2.6163-28.99079 3.23165-43.54579 3.22353-14.339-.008-28.78061-.70156-42.89613-3.22353-16.10868-5.85393-37.97087-10.94081-32.32127 5.05729zm131.76049 5.72906-22.04111 59.6015c-3.94518 18.72276-4.09179 37.44042 7.18632 51.17367 14.91309 18.15923 36.30319 34.82498 53.60319 53.74979 17.3008 18.92307 30.22 39.30474 30.22 64.88647 0 68.92373-56.3174 125.24455-125.24462 125.24455-68.9246 0-124.6478-56.27565-124.6478-125.24455 0-25.52976 13.42972-45.41525 31.08953-64.1619 17.66309-18.74573 39.24759-35.42002 53.07719-54.92446 13.7111-19.33826 11.8936-41.42994 5.36201-61.63685l-20.68263-48.49945s12.98922 4.35882 19.70423 5.59399c11.95717 2.19943 24.17699 3.18298 36.33479 3.17634 12.36438-.007 24.80439-.94841 36.94888-3.27072 6.52162-1.24711 19.09002-5.68838 19.09002-5.68838z"/></g></g></g></svg>