<svg height="500" viewBox="0 0 132.29167 132.29167" width="500" xmlns="http://www.w3.org/2000/svg" xmlns:xlink="http://www.w3.org/1999/xlink"><radialGradient id="a" cx="494.25363" cy="332.55859" gradientTransform="matrix(-.33462355 .12958228 -.13250235 -.34220148 276.54747 68.068365)" gradientUnits="userSpaceOnUse" r="43.257179"><stop offset="0" stop-color="#a3795c"/><stop offset="1" stop-color="#63452c"/></radialGradient><linearGradient id="b"><stop offset="0" stop-color="#86522d"/><stop offset="1" stop-color="#4e2c18"/></linearGradient><linearGradient id="c" gradientUnits="userSpaceOnUse" spreadMethod="reflect" x1="77.48991491114" x2="67.2434461738" xlink:href="#b" y1="64.01786851756" y2="80.73043129283"/><linearGradient id="d" gradientUnits="userSpaceOnUse" spreadMethod="reflect" x1="87.68813976772" x2="22.92226034416" xlink:href="#b" y1="85.24806549732" y2="92.85315006811"/><filter id="e" color-interpolation-filters="sRGB" height="1.097767" width="1.197294" x="-.098647" y="-.048883"><feGaussianBlur stdDeviation="1.0596563"/></filter><linearGradient id="f" gradientUnits="userSpaceOnUse" x1="-21.035661" x2="-37.078252" y1="-9.6378" y2="5.338583"><stop offset="0" stop-color="#ccb399"/><stop offset=".86158693" stop-color="#cfc1af"/><stop offset="1" stop-color="#e7e6e4"/></linearGradient><linearGradient id="g" gradientTransform="matrix(.07216906 -.07990057 .07990057 .07216906 -48.875801 73.934651)" gradientUnits="userSpaceOnUse" spreadMethod="reflect" x1="448.97391" x2="372.1445" y1="798.85883" y2="829.89642"><stop offset="0" stop-color="#523528"/><stop offset=".00561798" stop-color="#523528"/><stop offset=".275281" stop-color="#dff5fd"/><stop offset=".477528" stop-color="#dad9d6"/><stop offset=".668539" stop-color="#fff"/><stop offset="1" stop-color="#68574b"/></linearGradient><filter id="h" color-interpolation-filters="sRGB" height="1.534855" width="1.445323" x="-.222661" y="-.267428"><feGaussianBlur stdDeviation="6.6782188"/></filter><g><g fill="#7f8899" stroke-width=".999999" transform="matrix(.26458334 0 0 .26458334 238.175366 -58.892263)"><path d="m-235.24023 17.787109-4.4961.01367-10.32812.01172-10.25.01172a1.3187171 1.3187171 0 0 0 -.002 0l-4.57812.01367a1.3187171 1.3187171 0 0 0 -1.20899 1.835937l5.44141 12.757813c1.65375 5.135477 2.06393 10.427569-1.25 15.101562-3.48982 4.921834-9.15246 9.324735-13.92578 14.390625-4.7628 5.055919-8.58594 10.663585-8.58594 17.88086 0 18.958286 15.34484 34.455082 34.29883 34.455082 18.95523 0 34.45508-15.500783 34.45508-34.455082 0-7.212491-3.66674-12.945157-8.3418-18.058594-4.68223-5.121997-10.33021-9.53528-14.13476-14.167969-2.59571-3.160761-2.63509-7.605501-1.64063-12.367187l5.78715-15.648436a1.3187171 1.3187171 0 0 0 -1.24023-1.775391z" opacity=".15" transform="matrix(3.7795275 0 0 3.7795275 294.8676 240.39681)"/><path d="m-725.97342 306.87834c7.06269 19.35528 18.39628 39.14532 24.6858 57.69843 6.28769 18.55311 7.7574 34.42433-2.67682 49.14136-11.66169 16.44835-32.895 33.27693-51.67831 53.21616-18.78327 19.9392-35.42509 43.92253-35.42509 75.08537 0 77.57118 62.96579 141.17466 140.58039 141.17466 77.61382 0 141.17462-63.56171 141.17462-141.17466 0-30.98978-15.884-55.38912-34.3936-75.63691-18.5088-20.24784-39.9356-37.14373-53.0491-53.11302-7.8256-9.52717-6.8905-29.09983-.7502-50.25127 6.1395-21.15143 16.4228-42.65493 22.0858-55.70025 9.8623-21.36952-26.6499-6.56781-31.7903-5.49716-14.31791 2.6163-28.99079 3.23165-43.54579 3.22353-14.339-.008-28.78061-.70156-42.89613-3.22353-16.10868-5.85393-37.97087-10.94081-32.32127 5.05729zm131.76049 5.72906-22.04111 59.6015c-3.94518 18.72276-4.09179 37.44042 7.18632 51.17367 14.91309 18.15923 36.30319 34.82498 53.60319 53.74979 17.3008 18.92307 30.22 39.30474 30.22 64.88647 0 68.92373-56.3174 125.24455-125.24462 125.24455-68.9246 0-124.6478-56.27565-124.6478-125.24455 0-25.52976 13.42972-45.41525 31.08953-64.1619 17.66309-18.74573 39.24759-35.42002 53.07719-54.92446 13.7111-19.33826 11.8936-41.42994 5.36201-61.63685l-20.68263-48.49945s12.98922 4.35882 19.70423 5.59399c11.95717 2.19943 24.17699 3.18298 36.33479 3.17634 12.36438-.007 24.80439-.94841 36.94888-3.27072 6.52162-1.24711 19.09002-5.68838 19.09002-5.68838z"/></g><g transform="translate(-1.097604 3.504609)"><path d="m104.33218 76.682158c0 19.853732-16.222444 36.077172-36.077161 36.077172-19.853999 0-35.905316-16.21043-35.905316-36.077172 0-5.093943 1.459892-9.407087 4.291403-13.37216.790935-1.481187 2.126006-2.638552 3.452117-3.668537 1.835888-1.42591 3.903224-2.623373 6.103404-3.37363 7.155868-2.440148 13.473007-3.441625 22.144432-3.441452 8.671458-.000178 14.837626 1.001299 21.993494 3.441443 2.200148.75026 4.267516 1.947723 6.103393 3.373633 1.326122 1.029986 2.661193 2.187345 3.452216 3.668684 2.698488 3.986064 4.442018 8.328145 4.442018 13.372019z" fill="#86522d" filter="url(#h)" opacity=".5"/><use xlink:href="#i"/><g fill-rule="evenodd" stroke-width="1.79472" transform="matrix(-.46778177 -.30272258 .30272258 -.46778177 67.630923 91.673407)"><path d="m-31.882471-16.19436c2.969166-4.824895 5.621434-3.92139 8.136191-2.588755 2.809425 1.488788 2.710619 9.1453157 2.710619 9.1453157-2.710619 4.2722872-4.740596 4.8578162-6.641175 7.6486061-4.440582 6.5205034-10.944215 20.9844172-10.944215 20.9844172s1.640709-17.8798871 3.743467-26.5750479c.714596-2.9549411 2.995113-8.6145361 2.995113-8.6145361z" fill="url(#f)"/><path d="m-23.691951-28.392052c2.58395-2.072113 10.85145-4.638152 10.85145-4.638152s-9.055172 12.574795-12.459416 19.030894c-5.723716 10.8549477-7.628669 17.7091652-13.321134 32.994534 0 0 .788062-17.789269 3.743467-26.5750479 2.380207-7.0758391 3.655781-14.7739141 11.185633-20.8122281z" fill="#f6efee" filter="url(#e)" opacity=".5" transform="matrix(.18945348 .04509201 -.06390252 .35022455 -26.294048 -5.067468)"/></g><path d="m61.318369 92.412737c.907207 4.484928 3.595553 7.725613 6.004579 7.238264 1.29393-.265727 2.303488-1.58831 2.755559-3.609951-.535772 1.392765-1.392766 2.271918-2.419877 2.482445-2.409024.487352-5.097371-2.753335-6.004579-7.238263-.382204-1.89028-.398221-3.792898-.04529-5.379922-.666607 1.740302-.772815 4.120297-.290395 6.507427z" fill="#423824" opacity=".698171" stroke-width="9.52503"/><path d="m50.616505 100.24556c1.18974 1.49482 3.159256 3.99705 1.878672 5.41482-1.280583 1.41778-3.969664-.2878-5.577442-1.3198-1.30696-.83891-2.863434-3.67532-2.863434-3.67532s.581615-1.210847 1.025711-1.702517 1.589715-1.19309 1.589715-1.19309 2.979641 1.26077 3.946778 2.475907z" fill="url(#g)" fill-rule="evenodd"/><path id="i" d="m100.30202 81.012275c0 18.23606-14.900644 33.137615-33.137604 33.137615-18.2363 0-32.97976-14.889605-32.97976-33.137615 0-4.67889 1.34094-8.6406 3.94174-12.2826.72649-1.3605 1.95278-2.423563 3.17084-3.369625 1.6863-1.309728 3.58519-2.409622 5.6061-3.098748 6.57281-2.241325 12.37523-3.161202 20.34011-3.161043 7.96491-.000164 13.62866.919713 20.20147 3.161035 2.02088.689129 3.9198 1.789023 5.60609 3.09875 1.21807.946063 2.44436 2.009121 3.17093 3.369761 2.47862 3.66128 4.080084 7.64957 4.080084 12.28247z" fill="url(#d)" opacity=".67"/><g fill-rule="evenodd"><path d="m46.903336 77.806035c-2.03496-.69573-3.99248-1.77167-5.6061-3.19342-1.44243-1.2709-3.06392-2.73139-3.46294-4.61198-.0902-.42523.0874-.88751.2921-1.27096.72649-1.3605 1.95278-2.423563 3.17084-3.369628 1.6863-1.309725 3.58519-2.409621 5.6061-3.098747 6.57281-2.241325 12.37523-3.1612 20.34011-3.161044 7.96491-.000161 13.62866.919713 20.20147 3.161038 2.02088.689126 3.9198 1.789023 5.60609 3.098748 1.21807.946065 2.44436 2.009123 3.17082 3.369623.20474.38346.3823.84574.2921 1.27097-.39899 1.88058-2.02051 3.34106-3.46292 4.61197-1.61361 1.42175-3.57113 2.49769-5.60609 3.19342-6.56011 2.24285-12.25056 2.92454-20.20147 2.92441-7.95089.00014-13.78-.68155-20.34011-2.9244z" fill="url(#c)" opacity=".5"/><path d="m58.676003 59.554076c-4.076596.476574-7.784329 1.347219-11.772925 2.707329-2.020908.689125-3.919562 1.788795-5.60586 3.098519-1.218059.946064-2.444377 2.009321-3.170866 3.36982-.2047.383449-.382172.845494-.291972 1.270723.39902 1.880588 2.02041 3.341223 3.462838 4.612122 1.613619 1.421749 3.570902 2.497874 5.60586 3.193604 6.560103 2.242847 12.389479 2.924509 20.340361 2.924369-8.491902-.0068-14.298157-.82171-20.340361-4.392497-2.405188-1.421408-5.468837-3.54384-5.484937-6.337598-.01621-2.831447 3.056329-5.030152 5.484937-6.485909 3.754569-2.250568 7.471288-3.406389 11.772925-3.960482zm8.567436 21.176486c7.950902.00013 13.641248-.681522 20.201351-2.924369 2.034958-.69573 3.992768-1.771855 5.606376-3.193604 1.442409-1.270909 3.063849-2.731544 3.462838-4.612122.0902-.425229-.08723-.887264-.291972-1.270723-.726459-1.360499-1.952797-2.423756-3.170866-3.36982-1.686288-1.309724-3.585498-2.409394-5.606376-3.098519-3.979336-1.356952-7.627726-2.226923-11.653036-2.704228 4.250292.55537 7.905849 1.71125 11.653036 3.957381 2.428608 1.455758 5.501554 3.654472 5.485454 6.485909-.01598 2.793758-3.080266 4.91619-5.485454 6.337598-6.042234 3.570777-11.70945 4.385497-20.201351 4.392497z" fill="#5e3b22" opacity=".75"/></g></g><g><g transform="translate(-1.097604 3.504609)"><path d="m52.400186 20.363774 5.99503 14.618867c.53304 1.249855 1.21833 2.212549 2.50618 2.645833 4.40649 1.48235 9.03129 1.397315 13.36042.02791 1.40183-.443561 1.93709-1.509697 2.44718-2.888713l5.34514-14.453839s1.27488-2.846559 1.19108-4.34645c-.10908-1.952252-.83162-4.024781-2.1709-5.449393-1.56588-1.6656611-3.99536-2.3314561-6.20272-2.9264381-2.53252-.68263-5.21692-.675475-7.83983-.673859-2.64533.0016-5.36111-.0327-7.90598.689361-2.11531.600184-4.41048 1.339962-5.89318 2.9636461-1.34326 1.470991-2.12571 3.569258-2.19027 5.56024-.048 1.480987 1.35785 4.232839 1.35785 4.232839z" fill="#63452c"/><path d="m56.808976 13.715668c-.85684.974441-1.1465 2.449269-1.0648 3.744272.10003 1.585465 1.24628 2.922606 1.86942 4.38391 1.60205 3.756954 4.80615 11.270872 4.80615 11.270872 3.47978 1.170599 6.87158 1.118722 10.40569.000794 0 0 2.78521-7.531087 4.1778-11.296637.53735-1.452978 1.5533-2.810896 1.61203-4.358939.0492-1.297136-.1986-2.782319-1.07016-3.744272-.90373-.997453-2.44365-1.180606-3.75449-1.486141-2.2014-.513115-4.49854-.549246-6.75896-.549265-2.26041-.000018-4.56506.0048-6.75896.549151-1.2194.302548-2.63409.542753-3.46372 1.486255z" fill="url(#a)"/></g><g fill="#7f8899" stroke-width=".999999" transform="matrix(.26458334 0 0 .26458334 238.175366 -58.892263)"><path d="m-235.24023 17.787109-4.4961.01367-10.32812.01172-10.25.01172a1.3187171 1.3187171 0 0 0 -.002 0l-4.57812.01367a1.3187171 1.3187171 0 0 0 -1.20899 1.835937l5.44141 12.757813c1.65375 5.135477 2.06393 10.427569-1.25 15.101562-3.48982 4.921834-9.15246 9.324735-13.92578 14.390625-4.7628 5.055919-8.58594 10.663585-8.58594 17.88086 0 18.958286 15.34484 34.455082 34.29883 34.455082 18.95523 0 34.45508-15.500783 34.45508-34.455082 0-7.212491-3.66674-12.945157-8.3418-18.058594-4.68223-5.121997-10.33021-9.53528-14.13476-14.167969-2.59571-3.160761-2.63509-7.605501-1.64063-12.367187l5.78715-15.648436a1.3187171 1.3187171 0 0 0 -1.24023-1.775391z" opacity=".15" transform="matrix(3.7795275 0 0 3.7795275 294.8676 240.39681)"/><path d="m-725.97342 306.87834c7.06269 19.35528 18.39628 39.14532 24.6858 57.69843 6.28769 18.55311 7.7574 34.42433-2.67682 49.14136-11.66169 16.44835-32.895 33.27693-51.67831 53.21616-18.78327 19.9392-35.42509 43.92253-35.42509 75.08537 0 77.57118 62.96579 141.17466 140.58039 141.17466 77.61382 0 141.17462-63.56171 141.17462-141.17466 0-30.98978-15.884-55.38912-34.3936-75.63691-18.5088-20.24784-39.9356-37.14373-53.0491-53.11302-7.8256-9.52717-6.8905-29.09983-.7502-50.25127 6.1395-21.15143 16.4228-42.65493 22.0858-55.70025 9.8623-21.36952-26.6499-6.56781-31.7903-5.49716-14.31791 2.6163-28.99079 3.23165-43.54579 3.22353-14.339-.008-28.78061-.70156-42.89613-3.22353-16.10868-5.85393-37.97087-10.94081-32.32127 5.05729zm131.76049 5.72906-22.04111 59.6015c-3.94518 18.72276-4.09179 37.44042 7.18632 51.17367 14.91309 18.15923 36.30319 34.82498 53.60319 53.74979 17.3008 18.92307 30.22 39.30474 30.22 64.88647 0 68.92373-56.3174 125.24455-125.24462 125.24455-68.9246 0-124.6478-56.27565-124.6478-125.24455 0-25.52976 13.42972-45.41525 31.08953-64.1619 17.66309-18.74573 39.24759-35.42002 53.07719-54.92446 13.7111-19.33826 11.8936-41.42994 5.36201-61.63685l-20.68263-48.49945s12.98922 4.35882 19.70423 5.59399c11.95717 2.19943 24.17699 3.18298 36.33479 3.17634 12.36438-.007 24.80439-.94841 36.94888-3.27072 6.52162-1.24711 19.09002-5.68838 19.09002-5.68838z"/></g></g></g></svg>