<svg height="500" viewBox="0 0 132.29167 132.29167" width="500" xmlns="http://www.w3.org/2000/svg" xmlns:xlink="http://www.w3.org/1999/xlink"><radialGradient id="a" cx="494.25363" cy="332.55859" gradientTransform="matrix(-.33462355 .12958228 -.13250235 -.34220148 276.54747 68.068365)" gradientUnits="userSpaceOnUse" r="43.257179"><stop offset="0" stop-color="#deaa87"/><stop offset="1" stop-color="#d38d5f"/></radialGradient><linearGradient id="b"><stop offset="0" stop-color="#fff"/><stop offset="1" stop-color="#ecf5f9"/></linearGradient><linearGradient id="c" gradientUnits="userSpaceOnUse" spreadMethod="reflect" x1="86.59053476772" x2="21.82465534416" xlink:href="#b" y1="88.75267349732" y2="96.35775806811"/><linearGradient id="d" gradientUnits="userSpaceOnUse" x1="40.2393460002" x2="91.95340863657" xlink:href="#b" y1="68.70931535996" y2="78.11721101368"/><filter id="e" color-interpolation-filters="sRGB" height="1.136303" width="1.111863" x="-.055932" y="-.068152"><feGaussianBlur stdDeviation="5.7568359"/></filter><filter id="f" color-interpolation-filters="sRGB" height="1.284048" width="1.242028" x="-.121014" y="-.142024"><feGaussianBlur stdDeviation="3.9237674"/></filter><filter id="g" color-interpolation-filters="sRGB" height="1.005871" width="1.006135" x="-.003067" y="-.002936"><feGaussianBlur stdDeviation=".31125854"/></filter><g><g fill="#7f8899" stroke-width=".999999" transform="matrix(.26458334 0 0 .26458334 238.17537 -58.892264)"><path d="m-235.24023 17.787109-4.4961.01367-10.32812.01172-10.25.01172a1.3187171 1.3187171 0 0 0 -.002 0l-4.57812.01367a1.3187171 1.3187171 0 0 0 -1.20899 1.835937l5.44141 12.757813c1.65375 5.135477 2.06393 10.427569-1.25 15.101562-3.48982 4.921834-9.15246 9.324735-13.92578 14.390625-4.7628 5.055919-8.58594 10.663585-8.58594 17.88086 0 18.958286 15.34484 34.455082 34.29883 34.455082 18.95523 0 34.45508-15.500783 34.45508-34.455082 0-7.212491-3.66674-12.945157-8.3418-18.058594-4.68223-5.121997-10.33021-9.53528-14.13476-14.167969-2.59571-3.160761-2.63509-7.605501-1.64063-12.367187l5.78715-15.648436a1.3187171 1.3187171 0 0 0 -1.24023-1.775391z" opacity=".15" transform="matrix(3.7795275 0 0 3.7795275 294.8676 240.39681)"/><path d="m-725.97342 306.87834c7.06269 19.35528 18.39628 39.14532 24.6858 57.69843 6.28769 18.55311 7.7574 34.42433-2.67682 49.14136-11.66169 16.44835-32.895 33.27693-51.67831 53.21616-18.78327 19.9392-35.42509 43.92253-35.42509 75.08537 0 77.57118 62.96579 141.17466 140.58039 141.17466 77.61382 0 141.17462-63.56171 141.17462-141.17466 0-30.98978-15.884-55.38912-34.3936-75.63691-18.5088-20.24784-39.9356-37.14373-53.0491-53.11302-7.8256-9.52717-6.8905-29.09983-.7502-50.25127 6.1395-21.15143 16.4228-42.65493 22.0858-55.70025 9.8623-21.36952-26.6499-6.56781-31.7903-5.49716-14.31791 2.6163-28.99079 3.23165-43.54579 3.22353-14.339-.008-28.78061-.70156-42.89613-3.22353-16.10868-5.85393-37.97087-10.94081-32.32127 5.05729zm131.76049 5.72906-22.04111 59.6015c-3.94518 18.72276-4.09179 37.44042 7.18632 51.17367 14.91309 18.15923 36.30319 34.82498 53.60319 53.74979 17.3008 18.92307 30.22 39.30474 30.22 64.88647 0 68.92373-56.3174 125.24455-125.24462 125.24455-68.9246 0-124.6478-56.27565-124.6478-125.24455 0-25.52976 13.42972-45.41525 31.08953-64.1619 17.66309-18.74573 39.24759-35.42002 53.07719-54.92446 13.7111-19.33826 11.8936-41.42994 5.36201-61.63685l-20.68263-48.49945s12.98922 4.35882 19.70423 5.59399c11.95717 2.19943 24.17699 3.18298 36.33479 3.17634 12.36438-.007 24.80439-.94841 36.94888-3.27072 6.52162-1.24711 19.09002-5.68838 19.09002-5.68838z"/></g><g><g><path d="m39.425781 62.367188c-6.441414 4.6905-11.901442 12.665295-12.073436 20.631663-.282184 13.070065 7.234505 27.757669 18.328948 34.672839 10.977208 6.8421 27.212217 6.94688 38.787161 1.17331 10.396489-5.18575 17.427776-17.16116 20.114616-28.464249 1.42573-5.99779.10905-12.821739-2.73508-18.291392-2.423449-4.660625-6.767204-8.42174-11.420498-10.859238-6.355708-3.32926-13.942134-3.59991-21.074681-4.378219-1.556405-.169836-3.139126-.219045-4.696561-.05893-8.567807.88082-18.267855.50419-25.230469 5.574217z" fill="#fff" filter="url(#f)" opacity=".75"/><path d="m99.204415 84.516883c0 18.236057-14.900644 33.137617-33.137604 33.137617-18.2363 0-32.97976-14.88961-32.97976-33.137617 0-4.67889 1.34094-8.6406 3.94174-12.2826.72649-1.3605 1.95278-2.423563 3.17084-3.369625 1.6863-1.309728 3.58519-2.409622 5.6061-3.098748 6.57281-2.241325 12.37523-3.161202 20.34011-3.161043 7.96491-.000164 13.62866.919713 20.20147 3.161035 2.02088.689129 3.9198 1.789023 5.60609 3.09875 1.21807.946063 2.44436 2.009121 3.17093 3.369761 2.47862 3.66128 4.080084 7.64957 4.080084 12.28247z" fill="url(#c)"/><g fill-rule="evenodd"><path d="m45.805731 81.310643c-2.03496-.69573-3.99248-1.77167-5.6061-3.19342-1.44243-1.2709-3.06392-2.73139-3.46294-4.61198-.0902-.42523.0874-.88751.2921-1.27096.72649-1.3605 1.95278-2.423563 3.17084-3.369628 1.6863-1.309725 3.58519-2.409621 5.6061-3.098747 6.57281-2.241325 12.37523-3.1612 20.34011-3.161044 7.96491-.000161 13.62866.919713 20.20147 3.161038 2.02088.689126 3.9198 1.789023 5.60609 3.098748 1.21807.946065 2.44436 2.009123 3.17082 3.369623.20474.38346.3823.84574.2921 1.27097-.39899 1.88058-2.02051 3.34106-3.46292 4.61197-1.61361 1.42175-3.57113 2.49769-5.60609 3.19342-6.56011 2.24285-12.25056 2.92454-20.20147 2.92441-7.95089.00014-13.78-.68155-20.34011-2.9244z" fill="#9eb8c5"/><path d="m86.347311 79.842533c2.40519-1.42141 5.46915-3.54353 5.48513-6.33729.0161-2.83144-3.05652-5.030301-5.48513-6.48606-6.02115-3.609186-11.80484-4.404111-20.20147-4.414319-8.39663.01021-14.31899.805138-20.34011 4.414325-2.42861 1.455758-5.50137 3.654614-5.48516 6.486064.0161 2.79376 3.07997 4.91588 5.48516 6.33729 6.04221 3.57079 11.8482 4.38575 20.34011 4.3925 8.49191-.007 14.15923-.82173 20.20147-4.39251z" fill="url(#d)"/></g></g><g><path d="m229.01367 224.35352c-5.57121.47163-10.92709 1.12314-16.16601 1.96484l-11.89063 27.92969c-14.29629 8.821-25.87376 21.42149-33.25195 36.39648l-15.12891-6.52539 12.14844-18.51953-15.25391-12.86133c-2.10752 2.11431-3.98193 4.42587-5.37109 7.02734-1.12772 1.57919-2.18559 3.1758-3.1875 4.78907l4.97656 3.99023-14.28515 21.7793 30.95312 13.34961c-2.40342 7.91388-3.75391 16.26831-3.75391 24.92969 0 .9165.047 1.81985.0762 2.72851l-9.93555 2.69922-18.33789-9.03711c.94942 6.31464 2.367 12.47835 4.2207 18.45117l11.93555 5.66797 13.82812-3.75781c1.12497 5.65598 2.79977 11.10753 4.98047 16.32226l-20.32226 5.95313c2.38757 4.24789 5.01647 8.34257 7.86523 12.26562l18.98438-5.56054c7.7876 12.41144 18.5898 22.79341 31.46679 30.1582l1.84766 12.60156-7.8418.84961c7.48159 3.81573 15.39976 6.89126 23.65821 9.13867l-2.29297-15.63476c9.46134 3.28249 19.60119 5.16601 30.20117 5.16601 7.35947 0 14.50276-.91042 21.35742-2.53515l25.67383 9.95508c6.84463-2.47402 13.4159-5.52673 19.6543-9.10352l-24.56836-8.49805c5.62362-2.89798 10.87321-6.37882 15.71679-10.32421l17.13282 13.63476c3.96504-2.70262 7.77079-5.6249 11.39453-8.75195l-.37891-.30274-17.94922-14.41211c7.83569-8.76422 13.85985-19.04618 17.66406-30.3457l5.08008 7.23242 21.47656-30.52929 11.84376 11.3457c1.92567-6.04616 3.40576-12.28509 4.39453-18.68359l-17.03907-15.23438-20.35742 28.97461-1.24804-1.77539c.28831-2.85177.49023-5.72964.49023-8.6582 0-15.26068-4.09349-29.59152-11.13086-42.11329l10.43555-13.10351-7.3711-20.64844h14.64649l-3.6211-11.93555c-3.80902-2.19841-7.80028-4.07489-11.93359-5.48437-1.54022-.52521-3.06729-1.0304-4.58398-1.51758l1.96289 4.97266h-32.44143l-5.99609 11.19336c-12.1541-5.93385-25.81185-9.375-40.30274-9.375-2.63241 0-5.2251.15727-7.79883.37304l-14.17773-12.23828zm-6.79687 3.23046-1.07813 2.54493 18.49219 15.96875 1.06445-.10157c2.77837-.26585 5.59495-.40429 8.44336-.40429 14.55851 0 28.25413 3.56032 40.24805 9.82422l2.19336 1.14453 6.84961-12.78711h36.79687l-1.84765-4.6836c1.28101.52731 2.56413 1.13955 3.84961 1.78125l2.08398 6.86719h-14.99805l8.82032 24.71094-10.76954 13.52148.87305 1.48047c7.14844 12.13905 11.23633 26.17818 11.23633 41.15235 0 3.07667-.17855 6.11377-.51563 9.10937l-.10546.94141 6.37695 9.08203 21.21875-30.19922 12.92383 11.55469c-.47723 2.49778-1.11681 4.93843-1.7461 7.38281l-11.97851-11.47461-20.73242 29.46875-6.87305-9.78516-1.39649 5.13868c-3.60904 13.28166-10.52388 25.27056-19.8457 35.08203l-1.87109 1.9707 19.58398 15.72461c-.8295.65512-1.7159 1.34345-3.23633 2.48242l-19.35546-15.4043-1.56836 1.33789c-6.44076 5.49729-13.73795 10.0676-21.66993 13.49415l-5.91015 2.55273 28.47265 9.84766c-2.03799.97159-3.40447 1.70008-6.65625 3.08789l-28.67773-11.11914-.76758.18945c-6.72074 1.65922-13.75773 2.54687-21.00781 2.54687-11.45035 0-22.36569-2.20689-32.34375-6.19335l-3.42774-1.36915v3.875l2.16211 14.74219c-1.49111-.49573-3.00188-.95073-4.46679-1.50195l-2.89453-19.74414-1.08399-.59961c-13.19574-7.29668-24.20438-17.91824-31.8125-30.67383l-.99023-1.66211-21.60352 6.32617-2.23828-3.49414 21.90234-6.41797-1.20312-2.62695c-2.93877-6.42059-5.06128-13.26612-6.24414-20.41797l-.45117-2.73047-17.20703 4.67774-11.19141-5.31836-1.3418-5.89844 13.72656 6.76367 15.61133-4.24023-.11133-2.01953c-.0818-1.48786-.125-2.98487-.125-4.48828 0-8.92089 1.45305-17.50609 4.13672-25.56055l.72657-2.17774-29.61719-12.77539 13.51562-20.60351-6.01367-4.81836c.8364-1.20694 1.70292-2.42779 2.60156-3.6582l8.95899 7.55468-12.97852 19.78907 24.99414 10.78125 1.01953-2.22266c6.9989-15.282 18.61779-28.1506 33.13086-36.90625l.69336-.41797 12.52344-29.41992c1.47139-.20296 3.13023-.39144 4.72266-.58399zm-2.74414 6.47852-1.33789 3.1582-7.17188 16.91211 5.58984-2.2539c4.11467-1.65854 8.38943-3.01418 12.79688-4.03516l4.79492-1.11133zm1.92382 8.26953 2.20508 1.9043c-1.15917.33363-2.3158.66767-3.45508 1.04492zm29.51563 4.4043-2.8125 2.8125c-11.53418.15072-22.5188 2.60927-32.42773 7l-.0176.008-.0195.01c-.002.00087-.006.003-.008.004-2.21545.97798-4.377 2.05191-6.48047 3.21289l-.8457.46485-.043.12695c-2.50758 1.43371-4.91486 3.00962-7.24023 4.6875l-.14258-.0527-1.08789.8125c-10.68102 7.976-19.26464 18.48297-24.80859 30.625l-1.02735 2.24804.16406.0762c-.54324 1.29145-1.0471 2.602-1.52148 3.92774l-.17383-.0645-.79492 2.5c-2.3564 7.41403-3.625 15.29928-3.625 23.46875 0 .74921.0123 1.49005.0332 2.22265l.0899 3.10742.19531-.0488c.0895 1.30021.1942 2.59526.34766 3.87695l-.15821.0273.36524 2.42383c1.14528 7.60035 3.39983 14.84881 6.59375 21.58008l.94726 1.99805.15235-.0508c.88454 1.7289 1.77414 3.45546 2.78125 5.10938l.084.27148.16602.27149c5.90468 9.54847 13.82002 17.76485 23.17382 24.11328l4.8125 3.26562-.0957-.58398c1.47972.86948 2.91813 1.79781 4.45703 2.57617l.0137.15235 1.28711.61914c1.44276.69321 2.90665 1.34088 4.38868 1.94922.60833.24999 1.21953.49178 1.83007.72656l.0586.0215.002.002c.69257.26573 1.3863.51797 2.07617.76171 8.61757 3.04095 17.91059 4.70313 27.58789 4.70313 44.71864 0 81.1836-35.4568 81.1836-79.10352 0-42.93237-35.30392-77.86201-79.01953-78.99414zm50.10547 1.00195-.70703 1.32031-5.1543 9.61914 1.89844 1.25782c8.12176 5.37905 15.2407 12.08803 21.02929 19.79492l1.94141 2.58398 8.41797-10.57812-8.56836-23.99805zm2.99219 5h12.34179l6.44727 18.06055-2.74805 3.45312c-5.27569-6.52178-11.45294-12.29649-18.38281-17.14257zm-54.85547 1.75586h.0351c42.08051 0 76.1836 33.23984 76.1836 74.10156 0 40.86332-34.1031 74.10352-76.1836 74.10352-9.1051 0-17.8305-1.56202-25.92383-4.41797-.65771-.23238-1.30399-.4684-1.9414-.71289l-.006-.002-.0566-.0215-.004-.002c-.57949-.22284-1.15185-.44983-1.7207-.68359h-.002c-1.20425-.49429-2.38214-1.02809-3.54883-1.57618l-.57227-.27734c-3.43421-1.65896-6.72132-3.5599-9.83789-5.68359l-.57588-.39247c-8.44392-5.84951-15.61233-13.30964-20.99805-21.94922l-.041-.13281-.16602-.26954c-1.38039-2.24154-2.64273-4.55925-3.77734-6.94335l-.2207-.46094c-2.85109-6.11867-4.88901-12.66966-5.94141-19.54492l-.0254-.16602c-.43628-2.87894-.70539-5.80783-.78906-8.78125l-.0215-.74023c-.009-.44629-.0195-.89414-.0195-1.33789 0-7.55437 1.17647-14.82433 3.32617-21.67969l.084-.26367c.88584-2.77781 1.94237-5.48472 3.14843-8.11914l.2461-.53907c5.11733-10.96932 12.89948-20.50169 22.56445-27.82617l.44922-.33594c2.77088-2.07274 5.69009-3.96828 8.74023-5.66015l.29883-.16602c1.88411-1.02941 3.81035-1.99567 5.78906-2.86914l.0586-.0254.0195-.01c9.58368-4.24257 20.21949-6.60995 31.42969-6.61524zm.0371 3.96875c-20.95155 0-39.8212 8.69984-52.97266 22.61719l-1.20703 1.27539 8.8125 17.46094 32.80859-27.67774 14.64063 12.42578-16.48047-6.85937-23.48633 23.24804 19.48047 6.51758 4.16797 24.85742 31.05859 23.69532-34.53515-16.28711-40.09375 4.42578 36.67773 28.63477-30.66016 4.82617 4.08594 3.52343c12.69603 10.94785 29.40755 17.58594 47.70313 17.58594 6.82778 0 13.43498-.92531 19.69531-2.65234l-.14258-4.85547-17.95703-3.83203 21.92969 1.38281-12.31446-15.33398 23.98633 16.38086 1.36133-.78125c9.81028-5.63772 18.12396-13.4749 24.22852-22.83594l.68554-1.05078.0527.0566 1.67578-2.98828c5.5928-9.97668 8.77344-21.44507 8.77344-33.62696 0-5.02427-.54505-9.92465-1.57227-14.64843l-.50586-2.32032-2.34375.38477-48.20898 7.92383 37.54882 40.30273-52.36914-41.2539 48.42188-9.35352-22.93164-26.32227 40.21875 27.82422-2.9961-7.63672c-10.35633-26.38769-36.55781-45.0332-67.23632-45.0332zm0 5c25.25829 0 47.12215 13.53521 58.5332 33.49609l-42.11133-29.13281-3.30664 3.69922 30.35547 34.84375-50.62695 9.7793 62.40039 49.15625c-5.23931 7.44874-12.00104 13.78042-19.90039 18.5625l-35.20508-24.04297-3.35938 3.6289 15.75586 19.6211-44.44336-2.80078-.67773 4.93945 38.16601 8.14258c-1.85381.14948-3.68486.37695-5.58007.37695-15.04224 0-28.87785-4.80286-40.03321-12.89844l31.06055-4.89062-36.06836-28.16016 26.47266-2.92187 54.60937 25.7539 2.58203-4.25-48.2539-36.81445-4.33985-25.86914-14.62109-4.89258 15.3457-15.18945 28.21094 11.74414 2.57813-4.21484-30.09376-25.54102-31.20312 26.32617-4.33789-8.5957c12.16107-12.21546 29.15585-19.85547 48.0918-19.85547zm-56.23438 20.92969-3.37305 4.8457c-7.80418 11.21185-12.36718 24.76868-12.36718 39.35742 0 2.73682.16591 5.43405.47656 8.08399l.30078 2.57422 46.88086-7.20899-2.33398-21.48633-25.71485-6.38281zm-2.51562 13.18554 2.08789 10.6836 25.41797 6.30859 1.43945 13.25977-36.88086 5.67187c-.12612-1.62842-.28906-3.24805-.28906-4.90625 0-11.28006 3.06074-21.78072 8.22461-31.01758zm124.64648 19.77344c.65535 3.65969 1.07813 7.39796 1.07813 11.24414 0 10.07066-2.44322 19.52634-6.61719 28.02539l-30.99219-33.26562zm-137.21289 23.50586 2.19727 7.37891c3.00366 10.08236 8.26343 19.21655 15.20312 26.85547l1.12695 1.24023 18.86328-6.85156zm10.0625 14 17.03711 13.04102-7.03711 2.55664c-4.05032-4.68793-7.42874-9.92356-10-15.59766z" fill="#fff" filter="url(#e)" transform="matrix(.26458334 0 0 .26458334 -1.097605 3.504608)"/><path d="m58.748356 62.934057c-.237773.02303-.476532.04521-.711585.0708-.0895.01022-.180928.02013-.268717.03049-.251291.02853-.500234.05941-.748791.09095-.242438.0312-.479173.063-.711068.09508-.107469.01504-.214382.03088-.321428.04651l-3.377571 7.934399c-3.951622 2.383989-7.117176 5.888244-9.025806 10.055718l-5.296318-2.284616 3.323828-5.067907-3.367753-2.83962c-.50543.688728-1.016016 1.377453-1.466577 2.061889l1.608687 1.289327-3.677811 5.606893 8.001579 3.451469c-.731991 2.196908-1.128614 4.539957-1.128614 6.972185 0 .410486.01183.818536.03411 1.223698l-3.372404.916223-4.652946-2.292884.000516.0021.733289 3.222542.000517.0031 3.472139 1.649512 4.081922-1.109493c.322667 1.950919.901809 3.818694 1.703255 5.569686l-5.908683 1.731162.0036.006 1.330668 2.07688c.000572.00082.000979.002.0015.003l5.699911-1.66915c2.074006 3.47722 5.072246 6.36886 8.665104 8.35556l.632003 4.31033-1.70894.185c.001.00048.0021.001.0031.002.708531.32797 1.430637.63125 2.165243.90899.0079.003.01586.006.02377.009.735078.27726 1.482697.52891 2.241723.75396.0028.00082.0055.002.0083.003l-.721403-4.91857v-.00051c2.716341 1.08524 5.688493 1.68568 8.80308 1.68568 1.972221 0 3.887692-.24137 5.716964-.69298l7.65483 2.96778c.874532-.36924 1.61186-.69223 2.198832-.9648.01881-.009.0306-.0151.04909-.0238.420711-.20399.835761-.41819 1.246436-.63924l-7.463111-2.58124c2.159625-.93294 4.146343-2.17706 5.900415-3.67419l5.098397 4.05815h.000517c.0066-.005.01302-.01.01964-.0145.512803-.37795.927441-.6889 1.242818-.93121.0047-.004.0097-.007.01447-.0108.208506-.16406.415137-.3303.6196-.4992.01224-.0101.02394-.0209.03617-.031l-5.275648-4.23592c2.539247-2.67263 4.424947-5.941052 5.409489-9.564272l1.549777 2.206067 5.583638-7.936983 3.447852 3.302641c.166098-.565394.317971-1.136557.454753-1.713591.05978-.252203.115609-.506306.169498-.760677.009-.04281.01904-.08529.02791-.128158.05875-.283021.114156-.567014.165364-.852661.000399-.0022.000635-.0045.001-.0067l-4.266407-3.814237-5.500439 7.827946-1.002006-1.427303c.09184-.81617.14056-1.644459.14056-2.484086 0-4.082438-1.11577-7.914538-3.064413-11.223605l2.795178-3.509863-2.141988-6.000668h3.921725l-.895036-2.951424c-.01905-.0098-.03776-.02025-.05684-.02997-.07561-.03913-.150907-.07366-.226343-.111105-.173111-.0853-.34641-.17048-.521932-.250114-.05916-.02669-.118177-.05068-.17725-.07648-.161741-.07126-.324199-.140527-.487826-.206706-.118589-.04751-.236721-.09233-.355017-.136942-.125547-.04749-.251209-.09468-.377754-.13901-.10916-.03874-.218146-.07634-.327112-.113171-.06477-.02188-.128672-.04246-.19327-.06408l.673344 1.706356h-9.159648l-1.690336 3.155363c-3.265422-1.706571-6.995506-2.675409-10.955339-2.675409-.77513 0-1.541437.03777-2.297018.11007l-4.314465-3.725354zm-1.522388 3.593579 2.209168 1.907894c-1.199964.277971-2.363947.647161-3.484025 1.098641zm21.716505 3.185852h4.127396l1.986443 5.564002-1.465544 1.841748c-1.577236-2.099919-3.515684-3.926644-5.727299-5.391402zm-14.108183.464055-.000517.000516c11.482813 0 20.818368 9.087921 20.818368 20.267498 0 11.179983-9.335555 20.268013-20.818368 20.268013-2.484758 0-4.868442-.42653-7.079155-1.20664-.178536-.0631-.356079-.12773-.532267-.19534l-.01602-.006c-.157432-.0605-.314008-.12255-.469739-.18655-.381309-.15651-.757224-.32278-1.126546-.50023l-.000517-.006c-.938021-.45313-1.836065-.97256-2.687691-1.55288l.0021.0129c-2.39889-1.62813-4.427735-3.73469-5.940206-6.18051l-.0155-.0501c-.377509-.61342-.72298-1.247594-1.033528-1.900138l-.0093.0031c-.817917-1.723564-1.394577-3.578754-1.687791-5.524583l.0031-.000517c-.119354-.78759-.19309-1.589598-.216007-2.403988l-.0021.000517c-.0054-.189132-.0088-.378568-.0088-.568957 0-2.093058.324873-4.110949.928109-6.008936l.0057.0021c.242783-.761319.531738-1.502413.861446-2.222603l-.0088-.0041c1.419554-3.109018 3.619254-5.802235 6.358268-7.847584l.0098.0036c.756753-.56609 1.554325-1.083751 2.387968-1.546159l.0021-.0062c.539513-.297778 1.094233-.572903 1.662431-.823723.0042-.0021.0086-.0042.01292-.0062 2.622764-1.162168 5.535039-1.810225 8.600509-1.810225zm0 2.373498c-5.36048 0-10.177723 2.224021-13.535092 5.776909l1.745113 3.45767 8.468217-7.144267 7.535458 6.395475-7.870838-3.276286-5.137154 5.084962 4.511353 1.509468 1.125512 6.710702 12.975436 9.899136-14.617713-6.893635-8.806181.972034 9.623703 7.513241-8.207252 1.29243c3.24204 2.79562 7.50856 4.49223 12.189438 4.49223 1.746774 0 3.435571-.23667 5.035351-.678l-13.519072-2.88458 13.253972.8351-5.106665-6.359308 9.679513 6.610448c2.506011-1.44014 4.628892-3.44158 6.186186-5.82962l-15.877585-12.507762 13.103594-2.531111-8.786544-10.085173 13.204879 9.13536c-2.640243-6.727273-9.324476-11.495423-17.173629-11.495423zm-15.228012 7.858952c-1.99126 2.860736-3.153813 6.313348-3.153813 10.035564 0 .69748.04213 1.38535.12144 2.061889l11.100615-1.706872-.499195-4.596619-6.764445-1.678967zm33.208827 6.300391-11.537281 1.896525 9.701217 10.412285c1.426452-2.544562 2.237073-5.465519 2.237073-8.573637 0-1.281487-.139069-2.530616-.401009-3.735173zm-35.634519 8.743136c.765622 2.569946 2.106263 4.89916 3.8778 6.84919l3.438033-1.24901z" fill="#99b1bf" stroke-width="1.32292"/></g><g fill-rule="evenodd" opacity=".5"><path d="m57.581502 63.05808c-4.077972.476484-7.786291 1.347348-11.776026 2.707845-2.020908.689126-3.919561 1.788796-5.605859 3.098519-1.218059.946064-2.444377 2.009322-3.170866 3.369821-.2047.383449-.382172.845494-.291972 1.270723.39902 1.880588 2.020409 3.341223 3.462838 4.612122 1.613618 1.421748 3.570901 2.497874 5.605859 3.193603 6.560104 2.242848 12.389479 2.92451 20.340361 2.92437-8.491901-.0067-14.298157-.821711-20.340361-4.392497-2.405187-1.421409-5.468836-3.543324-5.484936-6.337081-.01621-2.831447 3.056329-5.030669 5.484936-6.486426 3.755481-2.251115 7.473061-3.407064 11.776026-3.960999zm8.564335 21.177003c7.950902.00013 13.641248-.681522 20.201352-2.92437 2.034958-.695729 3.992768-1.771855 5.606376-3.193603 1.442409-1.270909 3.063848-2.731544 3.462838-4.612122.0902-.425229-.08723-.887264-.291972-1.270723-.726459-1.360499-1.952797-2.423757-3.170866-3.369821-1.686288-1.309723-3.585498-2.409393-5.606376-3.098519-3.979336-1.356951-7.627726-2.226922-11.653036-2.704227 4.250292.55537 7.905849 1.71125 11.653036 3.957381 2.428607 1.455758 5.501553 3.654472 5.485453 6.485909-.01598 2.793757-3.080266 4.916189-5.485453 6.337598-6.042234 3.570776-11.70945 4.385497-20.201352 4.392497z" fill="#9eb8c5" opacity=".5"/><path d="m86.347311 79.842533c2.40519-1.42141 5.46915-3.54353 5.48513-6.33729.0161-2.83144-3.05652-5.030301-5.48513-6.48606-6.02115-3.609186-11.80484-4.404111-20.20147-4.414319-8.39663.01021-14.31899.805138-20.34011 4.414325-2.42861 1.455758-5.50137 3.654614-5.48516 6.486064.0161 2.79376 3.07997 4.91588 5.48516 6.33729 6.04221 3.57079 11.8482 4.38575 20.34011 4.3925 8.49191-.007 14.15923-.82173 20.20147-4.39251z" fill="url(#d)" opacity=".5"/></g></g><g><g transform="translate(-1.097605 3.504608)"><path d="m52.400186 20.363774 5.99503 14.618867c.53304 1.249855 1.21833 2.212549 2.50618 2.645833 4.40649 1.48235 9.03129 1.397315 13.36042.02791 1.40183-.443561 1.93709-1.509697 2.44718-2.888713l5.34514-14.453839s1.27488-2.846559 1.19108-4.34645c-.10908-1.952252-.83162-4.024781-2.1709-5.449393-1.56588-1.6656611-3.99536-2.3314561-6.20272-2.9264381-2.53252-.68263-5.21692-.675475-7.83983-.673859-2.64533.0016-5.36111-.0327-7.90598.689361-2.11531.600184-4.41048 1.339962-5.89318 2.9636461-1.34326 1.470991-2.12571 3.569258-2.19027 5.56024-.048 1.480987 1.35785 4.232839 1.35785 4.232839z" fill="#c36e36"/><path d="m56.808976 13.715668c-.85684.974441-1.1465 2.449269-1.0648 3.744272.10003 1.585465 1.24628 2.922606 1.86942 4.38391 1.60205 3.756954 4.80615 11.270872 4.80615 11.270872 3.47978 1.170599 6.87158 1.118722 10.40569.000794 0 0 2.78521-7.531087 4.1778-11.296637.53735-1.452978 1.5533-2.810896 1.61203-4.358939.0492-1.297136-.1986-2.782319-1.07016-3.744272-.90373-.997453-2.44365-1.180606-3.75449-1.486141-2.2014-.513115-4.49854-.549246-6.75896-.549265-2.26041-.000018-4.56506.0048-6.75896.549151-1.2194.302548-2.63409.542753-3.46372 1.486255z" fill="url(#a)"/></g><g transform="matrix(.26458334 0 0 .26458334 238.17537 -58.892264)"><path d="m-693.45402 409.6904-.43555.61719 21.65625 36.24023-7.95508 18.71094 2.08399 1.80078 7.87109-18.51172zm135.14453 45.35156c-.31318-.12244-1.17978.73683-2.32617 2.0918-1.62218 6.10636-5.90466 16.98792-4.40625 17.77148l3.38671 11.16406h-14.82226l8.0957 22.67969-10.56445 13.26563c7.36495 12.50671 11.58203 26.99023 11.58203 42.41992 0 3.17339-.18414 6.30394-.53125 9.38867l3.78711 5.39453.29883-.42383-2.08594-2.9707c.34711-3.08474.53125-6.21527.53125-9.38867 0-15.42969-4.21708-29.91322-11.58203-42.41992l10.56445-13.26563-8.0957-22.67969h14.82226l-3.38671-11.16406c-2.0443-1.06903 6.74829-21.07514 4.73242-21.86328zm-125.59375 18.98633-4.81836 11.36328c1.09885-.44292 2.23868-.80465 3.35937-1.20508l3.45899-8.1582 6.10937 5.27734c.08132-.01908.15883-.04755.24024-.0664zm82.07812 12.04101-4.07812 7.61329c.76157.50439 1.46871 1.07666 2.21289 1.60351l3.86523-7.2168h14.31446l-.71485-2zm-53.32226 1.75391c-11.58603 0-22.59305 2.44935-32.50586 6.8418-.01629.00756-.03296.0155-.04883.02343-2.14752.94798-4.24409 1.98783-6.2832 3.11329l-.00782.02343c-3.15077 1.74769-6.16522 3.7042-9.02539 5.84375l-.03711-.01367c-10.35218 7.73045-18.666 17.90954-24.03125 29.66016l.03321.01562c-1.24614 2.72198-2.33825 5.52297-3.25586 8.40039l-.02149-.00781c-2.27994 7.1735-3.50781 14.80017-3.50781 22.71094 0 .71958.01279 1.43556.0332 2.15039l.00782-.00195c.08662 3.078.3653 6.10922.8164 9.08593l-.01172.00196c1.10821 7.35431 3.28771 14.36605 6.37891 20.88086l.03516-.01172c1.17373 2.46631 2.47941 4.86301 3.90625 7.18164l.05859.18945c3.26995 5.28784 7.19698 10.13804 11.64062 14.48828-3.63004-3.82188-6.86656-8.00236-9.64062-12.48828l-.05859-.18945c-1.42684-2.31862-2.73253-4.71534-3.90625-7.18164l-.03516.01172c-3.0912-6.51481-5.2707-13.52655-6.37891-20.88086l.01172-.00196c-.4511-2.97671-.72978-6.00793-.8164-9.08593l-.00782.00195c-.0204-.71483-.0332-1.43081-.0332-2.15039 0-7.91077 1.22787-15.53745 3.50781-22.71094l.02149.00781c.91761-2.87742 2.00972-5.67841 3.25586-8.40039l-.03321-.01562c5.36525-11.75062 13.67907-21.92971 24.03125-29.66016l.03711.01367c2.86017-2.13954 5.87462-4.09606 9.02539-5.84375l.00782-.02343c2.0391-1.12546 4.13568-2.16531 6.2832-3.11329.0159-.008.03253-.01593.04883-.02343 9.91281-4.39245 20.91983-6.8418 32.50586-6.8418l-.00196.00195c21.47017 0 40.9459 8.41445 55.1543 22.02539-14.3516-14.77918-34.65443-24.02539-57.1543-24.02539zm-103.8711 12.89258c-.05688.08571-.11743.17214-.17383.25781l3.91016 3.13281.16992-.25976zm15.96485 1.39844-12.42969 18.95312 2.58203 1.11328 11.98047-18.26758zm150.45898 2.48242c2.99131 2.96704 5.81162 6.09943 8.33789 9.46289l.2168-.27149c-2.62412-3.26105-5.48147-6.3343-8.55469-9.1914zm-75.10742.09765-31.31055 26.41602 1.30469 2.58594 32.00586-27.00196 25.78125 21.88086.69922.29102zm27.55469 1.01954 33.20898 38.11718-49.52539 9.56641 2.43359 1.91601 49.0918-9.48242-33.20898-38.11718 49.9082 34.52734c-3.67893-9.37382-9.44-17.73549-16.72852-24.56445 6.33314 6.44261 11.39725 14.07646 14.72852 22.56445zm-126.28321 20.4375-.58203.88671 27.94922 12.05664c.10651-.3336.1824-.67986.29297-1.01171zm55.72852 2.3457c-.42613.6122-.84027 1.23305-1.24609 1.85937l2.2871 11.69336 1.69141.41992zm25.32031 8.21094-1.0039.99414 15.2871 5.11523-.23632-1.41016zm1.45508 13.23242 1.71875 15.82812-40.17773 6.17774c.06345.76098.1343 1.51972.22265 2.27343l41.95508-6.45117-1.88672-17.37304zm98.73828 2.36914-1.57031.25781c.69918 3.85185 1.08594 7.80953 1.08594 11.85938 0 11.70972-3.04697 22.71495-8.40625 32.31054l1.95117 2.09375c5.39131-9.61724 8.45508-20.65708 8.45508-32.40429 0-4.84342-.52562-9.56454-1.51563-14.11719zm57.95703 11.91797c-.79194 4.38407-1.81815 8.68855-3.05664 12.90429l-13.03125-12.48242-20.80664 29.57422 1.70313 2.42383 21.10351-29.99805 13.03125 12.48242c1.25555-4.27384 2.29757-8.63722 3.09375-13.08398zm-137.9414 4 .09179.54297 45.41407 34.64648 1.62695.76758zm-103.5586 8.65039.26758 1.17773 13.12305 6.23438 13.91015-3.78125c-.15787-.80526-.34794-1.59905-.48242-2.41211l-15.42773 4.19336zm64.65235 6.87109-.49219.05469 33.90625 26.4707.4668-.07422zm133.79882 2.56055c-3.7211 13.69406-10.84816 26.04717-20.44531 36.14844l2.20899 1.77343c9.34963-9.91076 16.32584-21.96919 20.0625-35.32226zm-86.13867 11.41015 19.30078 24.03516-50.09375-3.15625 12.46289 2.66016 39.63086 2.49609-19.30078-24.03516 36.58399 24.98438c9.47154-5.44304 17.49502-13.00751 23.38086-22.0332l-2.19141-1.72657c-5.86866 8.90249-13.81577 16.37296-23.18945 21.75977zm-38.21679 6.95118-12.37891 4.49804c.58762.70142 1.18521 1.39468 1.80078 2.07227l12.99414-4.7207zm-36.58008 2.59179-20.9375 6.13086 1.39453 2.17774 20.94336-6.13282c-.4642-.72706-.9582-1.43441-1.40039-2.17578zm32.44531 9.75196-.44727.07031c12.25338 10.56615 28.37881 16.97851 46.07032 16.97851 6.60198 0 12.98483-.89448 19.03125-2.5625l-5.46875-1.16601c-5.00503 1.1129-10.20637 1.72851-15.5625 1.72851-16.55742 0-31.69942-5.66709-43.62305-15.04882zm-18.50781 7.85547c5.56269 5.77732 11.93962 10.8009 18.94922 14.90234l-.13672-.92969c-6.91105-3.82151-13.22992-8.53844-18.8125-13.97265zm119.91601 3.8789c-6.62956 5.65844-14.13842 10.36069-22.30078 13.88672l3.63477 1.25781c7.5287-3.43524 14.48357-7.86771 20.66601-13.14453l19.27149 15.33789c4.00658-2.95176 6.42716-4.81389 7.30664-5.61719l-2.25-1.80664c-.9514.84589-3.18745 2.57329-7.05664 5.42383zm-91.11133 14.82617v.00196l2.72657 18.58984c-4.31119-1.27701-8.48751-2.85375-12.58985-4.57227l-2.19922.23829c5.39883 2.49977 11.00611 4.62102 16.78907 6.33398l-2.72657-18.58984v-.00196c10.26649 4.10173 21.49982 6.3711 33.27149 6.3711 7.45406 0 14.69364-.91228 21.60742-2.61914l28.93164 11.21679c15.46189 4.41646 12.70202-3.61408 13.2168-6.14843l-2.05274-.71094c-.03163 3.16736.41781 8.73883-13.16406 4.85937l-28.93164-11.21679c-6.91378 1.70687-14.15336 2.61914-21.60742 2.61914-11.77167 0-23.00499-2.26937-33.27149-6.3711z" fill="#e3e5e8" filter="url(#g)" opacity=".5" stroke-width=".999999"/><g fill="#7f8899"><path d="m-235.24023 17.787109-4.4961.01367-10.32812.01172-10.25.01172a1.3187171 1.3187171 0 0 0 -.002 0l-4.57812.01367a1.3187171 1.3187171 0 0 0 -1.20899 1.835937l5.44141 12.757813c1.65375 5.135477 2.06393 10.427569-1.25 15.101562-3.48982 4.921834-9.15246 9.324735-13.92578 14.390625-4.7628 5.055919-8.58594 10.663585-8.58594 17.88086 0 18.958286 15.34484 34.455082 34.29883 34.455082 18.95523 0 34.45508-15.500783 34.45508-34.455082 0-7.212491-3.66674-12.945157-8.3418-18.058594-4.68223-5.121997-10.33021-9.53528-14.13476-14.167969-2.59571-3.160761-2.63509-7.605501-1.64063-12.367187l5.78715-15.648436a1.3187171 1.3187171 0 0 0 -1.24023-1.775391z" opacity=".15" stroke-width=".999999" transform="matrix(3.7795275 0 0 3.7795275 294.8676 240.39681)"/><path d="m87.155305 110.03608-5.276062-4.23643c2.539249-2.67263 4.424945-5.941052 5.409489-9.564275l1.549778 2.206067 5.583637-7.936984 3.447852 3.30264c.332198-1.130789.607899-2.285264.818555-3.461803l-4.266407-3.814239-5.500438 7.827947-1.002007-1.427303c.09184-.81617.14056-1.644457.14056-2.484085 0-4.082442-1.115766-7.914537-3.064412-11.223607l2.795177-3.509862-2.141987-6.000668h3.921723l-.896181-2.953536c-.540888-.282847 1.785529-5.576085 1.252165-5.784615-.3722-.14552-3.605723 4.778439-3.975508 4.656754l.674484 1.709449h-9.159648l-1.690335 3.155363c-3.26549-1.705419-6.995568-2.674255-10.955404-2.674255-.775131 0-1.541436.03777-2.297017.11007l-4.314466-3.725355 2.104702-4.950566-6.143654-10.280738-1.550811 2.191187 4.93004 8.430593-4.939934 11.604446c-3.951627 2.383991-7.117173 5.888239-9.025806 10.055717l-5.296318-2.284613 3.323828-5.067909-3.367902-2.839831c-.505431.688729-1.015699 1.377839-1.46626 2.062276l1.608518 1.289151-3.677812 5.606894 8.00158 3.451468c-.731991 2.19691-1.128615 4.539957-1.128615 6.972187 0 .410488.01183.818536.03411 1.223698l-3.372403.916223-4.652947-2.292885.734322 3.227711 3.47214 1.64951 4.081921-1.109493c.322667 1.950921.901808 3.818694 1.703255 5.569688l-5.908683 1.731163 1.335836 2.08515 5.699911-1.66915c2.074008 3.47724 5.072243 6.36887 8.665105 8.35557l.632002 4.31033-1.708941.185c1.42844.6614 2.912033 1.22265 4.442108 1.67587l-.721405-4.91857v-.00053c2.716345 1.08525 5.688491 1.68569 8.803082 1.68569 1.972223 0 3.88769-.24137 5.716963-.69298l7.654918 2.96783c4.09096 1.16852 3.360437-.95641 3.49664-1.62696l-7.465478-2.58213c2.159627-.93293 4.146341-2.17706 5.900415-3.67419l5.099005 4.058c1.060077-.78099 1.700326-1.27354 1.933022-1.48608zm-29.929337-43.50844 2.209168 1.907892c-1.199965.277972-2.363946.647163-3.484025 1.098643zm21.716504 3.185851h4.127397l1.986441 5.564002-1.465543 1.841749c-1.577237-2.099921-3.51568-3.926644-5.727298-5.391404zm-14.108182.464055-.000529.00053c11.482824 0 20.818369 9.087908 20.818369 20.267496 0 11.179998-9.335545 20.268018-20.818369 20.268018-2.484761 0-4.868439-.42654-7.079155-1.20665-.178536-.0631-.356076-.12773-.532265-.19533l-.01601-.006c-.157433-.0605-.314008-.12255-.469739-.18655-.381309-.15651-.757227-.32277-1.126548-.50023l-.000529-.006c-.938022-.45312-1.836063-.97255-2.687691-1.55287l.0021.0129c-2.398893-1.62813-4.427733-3.73468-5.940206-6.1805l-.0155-.0501c-.377518-.61347-.722963-1.247491-1.033513-1.900036l-.0093.0031c-.81788-1.72371-1.39454-3.578897-1.687754-5.524728l.0031-.000529c-.119353-.78759-.193088-1.589598-.216006-2.403988l-.0021.000529c-.0054-.189132-.0088-.378569-.0088-.568958 0-2.09306.324872-4.110947.928108-6.008936l.0057.0021c.242784-.76132.531738-1.502413.861446-2.222603l-.0088-.0041c1.419556-3.109021 3.619252-5.802233 6.358269-7.847584l.0098.0036c.756753-.56609 1.554324-1.08375 2.387967-1.546159l.0021-.0062c.539515-.297777 1.094232-.572902 1.66243-.823722.0042-.0021.0086-.0042.01291-.0062 2.622767-1.162169 5.535036-1.810223 8.600509-1.810223zm0 2.373498c-5.360485 0-10.177719 2.224019-13.535092 5.77691l1.745113 3.457668 8.468217-7.144266 7.535458 6.395476-7.870838-3.276287-5.137156 5.084961 4.511355 1.509469 1.125511 6.710701 12.975437 9.899144-14.617714-6.893641-8.80618.972034 9.623701 7.513237-8.207251 1.29243c3.242043 2.79563 7.508558 4.49223 12.189439 4.49223 1.746777 0 3.43557-.23667 5.035352-.678l-13.519074-2.88457 13.253972.83509-5.106665-6.359306 9.679514 6.610446c2.506014-1.44014 4.628891-3.44157 6.186186-5.82962l-15.877585-12.507757 13.103593-2.531113-8.786543-10.085174 13.204878 9.135362c-2.640245-6.72728-9.324467-11.495424-17.173628-11.495424zm-15.228012 7.858953c-1.991262 2.860739-3.153812 6.313343-3.153812 10.035562 0 .697481.04213 1.38535.121438 2.06189l11.100615-1.706872-.499194-4.59662-6.764447-1.678966zm33.208826 6.300391-11.537281 1.896523 9.701218 10.412286c1.426453-2.544564 2.237073-5.465517 2.237073-8.573638 0-1.281488-.13907-2.530613-.40101-3.735171zm-35.634518 8.743136c.765622 2.569948 2.10626 4.899166 3.877799 6.849196l3.438033-1.24902z" opacity=".9" stroke-width=".264583" transform="matrix(3.7795275 0 0 3.7795275 -900.19035 222.58493)"/><path d="m-725.97342 306.87834c7.06269 19.35528 18.39628 39.14532 24.6858 57.69843 6.28769 18.55311 7.7574 34.42433-2.67682 49.14136-11.66169 16.44835-32.895 33.27693-51.67831 53.21616-18.78327 19.9392-35.42509 43.92253-35.42509 75.08537 0 77.57118 62.96579 141.17466 140.58039 141.17466 77.61382 0 141.17462-63.56171 141.17462-141.17466 0-30.98978-15.884-55.38912-34.3936-75.63691-18.5088-20.24784-39.9356-37.14373-53.0491-53.11302-7.8256-9.52717-6.8905-29.09983-.7502-50.25127 6.1395-21.15143 16.4228-42.65493 22.0858-55.70025 9.8623-21.36952-26.6499-6.56781-31.7903-5.49716-14.31791 2.6163-28.99079 3.23165-43.54579 3.22353-14.339-.008-28.78061-.70156-42.89613-3.22353-16.10868-5.85393-37.97087-10.94081-32.32127 5.05729zm131.76049 5.72906-22.04111 59.6015c-3.94518 18.72276-4.09179 37.44042 7.18632 51.17367 14.91309 18.15923 36.30319 34.82498 53.60319 53.74979 17.3008 18.92307 30.22 39.30474 30.22 64.88647 0 68.92373-56.3174 125.24455-125.24462 125.24455-68.9246 0-124.6478-56.27565-124.6478-125.24455 0-25.52976 13.42972-45.41525 31.08953-64.1619 17.66309-18.74573 39.24759-35.42002 53.07719-54.92446 13.7111-19.33826 11.8936-41.42994 5.36201-61.63685l-20.68263-48.49945s12.98922 4.35882 19.70423 5.59399c11.95717 2.19943 24.17699 3.18298 36.33479 3.17634 12.36438-.007 24.80439-.94841 36.94888-3.27072 6.52162-1.24711 19.09002-5.68838 19.09002-5.68838z" stroke-width=".999999"/></g></g></g></g></svg>