<svg height="500" viewBox="0 0 132.29167 132.29167" width="500" xmlns="http://www.w3.org/2000/svg" xmlns:xlink="http://www.w3.org/1999/xlink"><radialGradient id="a" cx="494.25363" cy="332.55859" gradientTransform="matrix(-.33462355 .12958228 -.13250235 -.34220148 276.54747 68.068365)" gradientUnits="userSpaceOnUse" r="43.257179"><stop offset="0" stop-color="#deaa87"/><stop offset="1" stop-color="#d38d5f"/></radialGradient><linearGradient id="b"><stop offset="0" stop-color="#9f20df"/><stop offset="1" stop-color="#8d22c3"/></linearGradient><linearGradient id="c" gradientUnits="userSpaceOnUse" spreadMethod="reflect" x1="86.59053476772" x2="75.54925238535" xlink:href="#b" y1="88.75267349732" y2="96.00122090496"/><linearGradient id="d" gradientUnits="userSpaceOnUse" x1="40.2393460002" x2="91.95340863657" xlink:href="#b" y1="68.70931535996" y2="78.11721101368"/><filter id="e" color-interpolation-filters="sRGB" height="1.284048" width="1.242028" x="-.121014" y="-.142024"><feGaussianBlur stdDeviation="3.9237674"/></filter><radialGradient id="f" cx="32.866184" cy="-11.942684" gradientTransform="matrix(.11155408 .28794229 -.48758565 .18889962 23.399908 3.425037)" gradientUnits="userSpaceOnUse" r="61.280689" spreadMethod="reflect"><stop offset="0" stop-color="#ffe5f6"/><stop offset="1" stop-color="#ffc2eb"/></radialGradient><filter id="g" color-interpolation-filters="sRGB" height="1.131618" width="1.075668" x="-.037834" y="-.065809"><feGaussianBlur stdDeviation="1.7597166"/></filter><filter id="h" color-interpolation-filters="sRGB" height="1.127424" width="1.073258" x="-.036629" y="-.063712"><feGaussianBlur stdDeviation="1.7036515"/></filter><filter id="i" color-interpolation-filters="sRGB" height="1.135304" width="1.077788" x="-.038894" y="-.067652"><feGaussianBlur stdDeviation="1.8090088"/></filter><g><g fill="#7f8899" stroke-width=".999999" transform="matrix(.26458334 0 0 .26458334 238.17537 -58.892264)"><path d="m-235.24023 17.787109-4.4961.01367-10.32812.01172-10.25.01172a1.3187171 1.3187171 0 0 0 -.002 0l-4.57812.01367a1.3187171 1.3187171 0 0 0 -1.20899 1.835937l5.44141 12.757813c1.65375 5.135477 2.06393 10.427569-1.25 15.101562-3.48982 4.921834-9.15246 9.324735-13.92578 14.390625-4.7628 5.055919-8.58594 10.663585-8.58594 17.88086 0 18.958286 15.34484 34.455082 34.29883 34.455082 18.95523 0 34.45508-15.500783 34.45508-34.455082 0-7.212491-3.66674-12.945157-8.3418-18.058594-4.68223-5.121997-10.33021-9.53528-14.13476-14.167969-2.59571-3.160761-2.63509-7.605501-1.64063-12.367187l5.78715-15.648436a1.3187171 1.3187171 0 0 0 -1.24023-1.775391z" opacity=".15" transform="matrix(3.7795275 0 0 3.7795275 294.8676 240.39681)"/><path d="m-725.97342 306.87834c7.06269 19.35528 18.39628 39.14532 24.6858 57.69843 6.28769 18.55311 7.7574 34.42433-2.67682 49.14136-11.66169 16.44835-32.895 33.27693-51.67831 53.21616-18.78327 19.9392-35.42509 43.92253-35.42509 75.08537 0 77.57118 62.96579 141.17466 140.58039 141.17466 77.61382 0 141.17462-63.56171 141.17462-141.17466 0-30.98978-15.884-55.38912-34.3936-75.63691-18.5088-20.24784-39.9356-37.14373-53.0491-53.11302-7.8256-9.52717-6.8905-29.09983-.7502-50.25127 6.1395-21.15143 16.4228-42.65493 22.0858-55.70025 9.8623-21.36952-26.6499-6.56781-31.7903-5.49716-14.31791 2.6163-28.99079 3.23165-43.54579 3.22353-14.339-.008-28.78061-.70156-42.89613-3.22353-16.10868-5.85393-37.97087-10.94081-32.32127 5.05729zm131.76049 5.72906-22.04111 59.6015c-3.94518 18.72276-4.09179 37.44042 7.18632 51.17367 14.91309 18.15923 36.30319 34.82498 53.60319 53.74979 17.3008 18.92307 30.22 39.30474 30.22 64.88647 0 68.92373-56.3174 125.24455-125.24462 125.24455-68.9246 0-124.6478-56.27565-124.6478-125.24455 0-25.52976 13.42972-45.41525 31.08953-64.1619 17.66309-18.74573 39.24759-35.42002 53.07719-54.92446 13.7111-19.33826 11.8936-41.42994 5.36201-61.63685l-20.68263-48.49945s12.98922 4.35882 19.70423 5.59399c11.95717 2.19943 24.17699 3.18298 36.33479 3.17634 12.36438-.007 24.80439-.94841 36.94888-3.27072 6.52162-1.24711 19.09002-5.68838 19.09002-5.68838z"/></g><g><path d="m39.425781 62.367188c-6.441414 4.6905-11.901442 12.665295-12.073436 20.631663-.282184 13.070065 7.234505 27.757669 18.328948 34.672839 10.977208 6.8421 27.212217 6.94688 38.787161 1.17331 10.396489-5.18575 17.427776-17.16116 20.114616-28.464249 1.42573-5.99779.10905-12.821739-2.73508-18.291392-2.423449-4.660625-6.767204-8.42174-11.420498-10.859238-6.355708-3.32926-13.942134-3.59991-21.074681-4.378219-1.556405-.169836-3.139126-.219045-4.696561-.05893-8.567807.88082-18.267855.50419-25.230469 5.574217z" fill="#ffc2eb" filter="url(#e)" opacity=".75"/><g><use xlink:href="#j"/><use xlink:href="#j"/><g fill="url(#f)" stroke-width="1.52659" transform="matrix(.83347596 0 0 .5148249 -91.0435 53.04824)"><path d="m99.478534 51.816309s2.953256 1.248787 4.525486 1.527349c.87287.154652 1.78757.216698 2.66171.06879 2.78529-.471282 6.32755-.725565 7.89438-2.989977 2.72621-3.939978 2.51828-10.324766-.31428-14.194727-1.24271-1.697831-3.9366-1.797761-6.04918-2.22549-.93348-.188999-2.85829-.136525-2.85829-.136525.41152-1.734942 1.53983-3.602785.96573-5.314156-1.36517-4.06949-5.59235-7.000242-9.542347-8.963127-5.455386-2.710966-11.982863-3.21315-18.123329-3.176126-5.193123.03131-10.439382 1.089341-15.291062 2.870729-1.125891.413393-3.10729 1.777606-3.10729 1.777606s.365605-2.099584.01299-3.062422c-1.453379-3.968512-4.638757-7.453246-8.266638-9.8039119-3.657168-2.3696436-8.247395-3.9117893-12.651882-3.7142266-5.746527.2577597-11.699249 2.5917498-15.966613 6.3025405-3.313015 2.880913-5.223148 7.202852-6.306611 11.370141-.00008.000307 0 .000633 0 .00095 0 .000316-.000023.000634 0 .00095.139769 1.941849.142372 3.955392.836612 5.783792.441473 1.162696 2.057585 3.142175 2.057585 3.142175s-2.616697-.386491-3.885856-.133598c-2.950726.587961-6.1809853 1.553722-8.1623957 3.73724-2.1952211 2.419138-2.5289952 6.004791-3.0421101 9.1775-.0000423.000262-.0000757.00054 0 .000794.7250183 2.437705 2.0762303 4.930943 4.182269 6.455304 3.1378918 2.271221 7.4143248 2.846737 11.3326338 3.094832 2.1775.137873 4.48098-.06438 6.477794-.910961.687943-.291664 1.746376-1.372737 1.746376-1.372737s.000238 1.373227.447284 1.82835c5.381666 5.478908 14.734766 5.774566 22.542501 6.421437 3.659769.303212 7.772421.551686 10.945813-1.227666 1.203997-.675093 2.467365-3.246258 2.467365-3.246258s-.60335 3.321574.261018 4.621033c3.60952 5.426419 11.093112 8.421284 17.759627 9.040814 4.64059.431258 9.743819-1.100566 13.38607-3.900489 2.69129-2.068887 4.966746-5.334058 5.104346-8.645393.0642-1.545316-2.039706-4.204536-2.039706-4.204536z" filter="url(#g)" opacity=".5" stroke-width=".984125" transform="matrix(-.32371074 0 0 -.52037561 207.76107 90.457707)"/><g stroke-width=".637623"><path d="m99.478534 51.816309s2.953256 1.248787 4.525486 1.527349c.87287.154652 1.78757.216698 2.66171.06879 2.78529-.471282 6.32755-.725565 7.89438-2.989977 2.72621-3.939978 2.51828-10.324766-.31428-14.194727-1.24271-1.697831-3.9366-1.797761-6.04918-2.22549-.93348-.188999-2.85829-.136525-2.85829-.136525.41152-1.734942 1.53983-3.602785.96573-5.314156-1.36517-4.06949-5.59235-7.000242-9.542347-8.963127-5.455386-2.710966-11.982863-3.21315-18.123329-3.176126-5.193123.03131-10.439382 1.089341-15.291062 2.870729-1.125891.413393-3.10729 1.777606-3.10729 1.777606s.365605-2.099584.01299-3.062422c-1.453379-3.968512-4.638757-7.453246-8.266638-9.8039119-3.657168-2.3696436-8.247395-3.9117893-12.651882-3.7142266-5.746527.2577597-11.699249 2.5917498-15.966613 6.3025405-3.313015 2.880913-5.223148 7.202852-6.306611 11.370141-.00008.000307 0 .000633 0 .00095 0 .000316-.000023.000634 0 .00095.139769 1.941849.142372 3.955392.836612 5.783792.441473 1.162696 2.057585 3.142175 2.057585 3.142175s-2.616697-.386491-3.885856-.133598c-2.950726.587961-6.1809853 1.553722-8.1623957 3.73724-2.1952211 2.419138-2.5289952 6.004791-3.0421101 9.1775-.0000423.000262-.0000757.00054 0 .000794.7250183 2.437705 2.0762303 4.930943 4.182269 6.455304 3.1378918 2.271221 7.4143248 2.846737 11.3326338 3.094832 2.1775.137873 4.48098-.06438 6.477794-.910961.687943-.291664 1.746376-1.372737 1.746376-1.372737s.000238 1.373227.447284 1.82835c5.381666 5.478908 14.734766 5.774566 22.542501 6.421437 3.659769.303212 7.772421.551686 10.945813-1.227666 1.203997-.675093 2.467365-3.246258 2.467365-3.246258s-.60335 3.321574.261018 4.621033c3.60952 5.426419 11.093112 8.421284 17.759627 9.040814 4.64059.431258 9.743819-1.100566 13.38607-3.900489 2.69129-2.068887 4.966746-5.334058 5.104346-8.645393.0642-1.545316-2.039706-4.204536-2.039706-4.204536z" filter="url(#h)" opacity=".75" transform="matrix(0 -.54568176 .73537235 0 161.24023 104.54871)"/><path d="m99.478534 51.816309s2.953256 1.248787 4.525486 1.527349c.87287.154652 1.78757.216698 2.66171.06879 2.78529-.471282 6.32755-.725565 7.89438-2.989977 2.72621-3.939978 2.51828-10.324766-.31428-14.194727-1.24271-1.697831-3.9366-1.797761-6.04918-2.22549-.93348-.188999-2.85829-.136525-2.85829-.136525.41152-1.734942 1.53983-3.602785.96573-5.314156-1.36517-4.06949-5.59235-7.000242-9.542347-8.963127-5.455386-2.710966-11.982863-3.21315-18.123329-3.176126-5.193123.03131-10.439382 1.089341-15.291062 2.870729-1.125891.413393-3.10729 1.777606-3.10729 1.777606s.365605-2.099584.01299-3.062422c-1.453379-3.968512-4.638757-7.453246-8.266638-9.8039119-3.657168-2.3696436-8.247395-3.9117893-12.651882-3.7142266-5.746527.2577597-11.699249 2.5917498-15.966613 6.3025405-3.313015 2.880913-5.223148 7.202852-6.306611 11.370141-.00008.000307 0 .000633 0 .00095 0 .000316-.000023.000634 0 .00095.139769 1.941849.142372 3.955392.836612 5.783792.441473 1.162696 2.057585 3.142175 2.057585 3.142175s-2.616697-.386491-3.885856-.133598c-2.950726.587961-6.1809853 1.553722-8.1623957 3.73724-2.1952211 2.419138-2.5289952 6.004791-3.0421101 9.1775-.0000423.000262-.0000757.00054 0 .000794.7250183 2.437705 2.0762303 4.930943 4.182269 6.455304 3.1378918 2.271221 7.4143248 2.846737 11.3326338 3.094832 2.1775.137873 4.48098-.06438 6.477794-.910961.687943-.291664 1.746376-1.372737 1.746376-1.372737s.000238 1.373227.447284 1.82835c5.381666 5.478908 14.734766 5.774566 22.542501 6.421437 3.659769.303212 7.772421.551686 10.945813-1.227666 1.203997-.675093 2.467365-3.246258 2.467365-3.246258s-.60335 3.321574.261018 4.621033c3.60952 5.426419 11.093112 8.421284 17.759627 9.040814 4.64059.431258 9.743819-1.100566 13.38607-3.900489 2.69129-2.068887 4.966746-5.334058 5.104346-8.645393.0642-1.545316-2.039706-4.204536-2.039706-4.204536z" filter="url(#i)" opacity=".75" transform="matrix(.54568176 0 0 .73537235 155.00755 44.558967)"/></g></g><path id="j" d="m99.204415 84.516883c0 18.236057-14.900644 33.137617-33.137604 33.137617-18.2363 0-32.97976-14.88961-32.97976-33.137617 0-4.67889 1.34094-8.6406 3.94174-12.2826.72649-1.3605 1.95278-2.423563 3.17084-3.369625 1.6863-1.309728 3.58519-2.409622 5.6061-3.098748 6.57281-2.241325 12.37523-3.161202 20.34011-3.161043 7.96491-.000164 13.62866.919713 20.20147 3.161035 2.02088.689129 3.9198 1.789023 5.60609 3.09875 1.21807.946063 2.44436 2.009121 3.17093 3.369761 2.47862 3.66128 4.080084 7.64957 4.080084 12.28247z" fill="url(#c)" opacity=".25"/><g fill-rule="evenodd" opacity=".33"><path d="m45.805731 81.310643c-2.03496-.69573-3.99248-1.77167-5.6061-3.19342-1.44243-1.2709-3.06392-2.73139-3.46294-4.61198-.0902-.42523.0874-.88751.2921-1.27096.72649-1.3605 1.95278-2.423563 3.17084-3.369628 1.6863-1.309725 3.58519-2.409621 5.6061-3.098747 6.57281-2.241325 12.37523-3.1612 20.34011-3.161044 7.96491-.000161 13.62866.919713 20.20147 3.161038 2.02088.689126 3.9198 1.789023 5.60609 3.098748 1.21807.946065 2.44436 2.009123 3.17082 3.369623.20474.38346.3823.84574.2921 1.27097-.39899 1.88058-2.02051 3.34106-3.46292 4.61197-1.61361 1.42175-3.57113 2.49769-5.60609 3.19342-6.56011 2.24285-12.25056 2.92454-20.20147 2.92441-7.95089.00014-13.78-.68155-20.34011-2.9244z" fill="#7112a1"/><path d="m86.347311 79.842533c2.40519-1.42141 5.46915-3.54353 5.48513-6.33729.0161-2.83144-3.05652-5.030301-5.48513-6.48606-6.02115-3.609186-11.80484-4.404111-20.20147-4.414319-8.39663.01021-14.31899.805138-20.34011 4.414325-2.42861 1.455758-5.50137 3.654614-5.48516 6.486064.0161 2.79376 3.07997 4.91588 5.48516 6.33729 6.04221 3.57079 11.8482 4.38575 20.34011 4.3925 8.49191-.007 14.15923-.82173 20.20147-4.39251z" fill="url(#d)"/></g></g></g><g><g transform="translate(-1.097605 3.504608)"><path d="m52.400186 20.363774 5.99503 14.618867c.53304 1.249855 1.21833 2.212549 2.50618 2.645833 4.40649 1.48235 9.03129 1.397315 13.36042.02791 1.40183-.443561 1.93709-1.509697 2.44718-2.888713l5.34514-14.453839s1.27488-2.846559 1.19108-4.34645c-.10908-1.952252-.83162-4.024781-2.1709-5.449393-1.56588-1.6656611-3.99536-2.3314561-6.20272-2.9264381-2.53252-.68263-5.21692-.675475-7.83983-.673859-2.64533.0016-5.36111-.0327-7.90598.689361-2.11531.600184-4.41048 1.339962-5.89318 2.9636461-1.34326 1.470991-2.12571 3.569258-2.19027 5.56024-.048 1.480987 1.35785 4.232839 1.35785 4.232839z" fill="#c36e36"/><path d="m56.808976 13.715668c-.85684.974441-1.1465 2.449269-1.0648 3.744272.10003 1.585465 1.24628 2.922606 1.86942 4.38391 1.60205 3.756954 4.80615 11.270872 4.80615 11.270872 3.47978 1.170599 6.87158 1.118722 10.40569.000794 0 0 2.78521-7.531087 4.1778-11.296637.53735-1.452978 1.5533-2.810896 1.61203-4.358939.0492-1.297136-.1986-2.782319-1.07016-3.744272-.90373-.997453-2.44365-1.180606-3.75449-1.486141-2.2014-.513115-4.49854-.549246-6.75896-.549265-2.26041-.000018-4.56506.0048-6.75896.549151-1.2194.302548-2.63409.542753-3.46372 1.486255z" fill="url(#a)"/></g><g fill="#7f8899" stroke-width=".999999" transform="matrix(.26458334 0 0 .26458334 238.17537 -58.892264)"><path d="m-235.24023 17.787109-4.4961.01367-10.32812.01172-10.25.01172a1.3187171 1.3187171 0 0 0 -.002 0l-4.57812.01367a1.3187171 1.3187171 0 0 0 -1.20899 1.835937l5.44141 12.757813c1.65375 5.135477 2.06393 10.427569-1.25 15.101562-3.48982 4.921834-9.15246 9.324735-13.92578 14.390625-4.7628 5.055919-8.58594 10.663585-8.58594 17.88086 0 18.958286 15.34484 34.455082 34.29883 34.455082 18.95523 0 34.45508-15.500783 34.45508-34.455082 0-7.212491-3.66674-12.945157-8.3418-18.058594-4.68223-5.121997-10.33021-9.53528-14.13476-14.167969-2.59571-3.160761-2.63509-7.605501-1.64063-12.367187l5.78715-15.648436a1.3187171 1.3187171 0 0 0 -1.24023-1.775391z" opacity=".15" transform="matrix(3.7795275 0 0 3.7795275 294.8676 240.39681)"/><path d="m-725.97342 306.87834c7.06269 19.35528 18.39628 39.14532 24.6858 57.69843 6.28769 18.55311 7.7574 34.42433-2.67682 49.14136-11.66169 16.44835-32.895 33.27693-51.67831 53.21616-18.78327 19.9392-35.42509 43.92253-35.42509 75.08537 0 77.57118 62.96579 141.17466 140.58039 141.17466 77.61382 0 141.17462-63.56171 141.17462-141.17466 0-30.98978-15.884-55.38912-34.3936-75.63691-18.5088-20.24784-39.9356-37.14373-53.0491-53.11302-7.8256-9.52717-6.8905-29.09983-.7502-50.25127 6.1395-21.15143 16.4228-42.65493 22.0858-55.70025 9.8623-21.36952-26.6499-6.56781-31.7903-5.49716-14.31791 2.6163-28.99079 3.23165-43.54579 3.22353-14.339-.008-28.78061-.70156-42.89613-3.22353-16.10868-5.85393-37.97087-10.94081-32.32127 5.05729zm131.76049 5.72906-22.04111 59.6015c-3.94518 18.72276-4.09179 37.44042 7.18632 51.17367 14.91309 18.15923 36.30319 34.82498 53.60319 53.74979 17.3008 18.92307 30.22 39.30474 30.22 64.88647 0 68.92373-56.3174 125.24455-125.24462 125.24455-68.9246 0-124.6478-56.27565-124.6478-125.24455 0-25.52976 13.42972-45.41525 31.08953-64.1619 17.66309-18.74573 39.24759-35.42002 53.07719-54.92446 13.7111-19.33826 11.8936-41.42994 5.36201-61.63685l-20.68263-48.49945s12.98922 4.35882 19.70423 5.59399c11.95717 2.19943 24.17699 3.18298 36.33479 3.17634 12.36438-.007 24.80439-.94841 36.94888-3.27072 6.52162-1.24711 19.09002-5.68838 19.09002-5.68838z"/></g></g></g></svg>