<svg height="500" viewBox="0 0 132.29167 132.29167" width="500" xmlns="http://www.w3.org/2000/svg" xmlns:xlink="http://www.w3.org/1999/xlink"><radialGradient id="a" cx="494.25363" cy="332.55859" gradientTransform="matrix(-.33462355 .12958228 -.13250235 -.34220148 276.54747 68.068365)" gradientUnits="userSpaceOnUse" r="43.257179"><stop offset="0" stop-color="#deaa87"/><stop offset="1" stop-color="#d38d5f"/></radialGradient><linearGradient id="b"><stop offset="0" stop-color="#1b981b"/><stop offset="1" stop-color="#1ab21a"/></linearGradient><linearGradient id="c" gradientUnits="userSpaceOnUse" spreadMethod="reflect" x1="76.09024594065" x2="59.83152561432" xlink:href="#b" y1="96.53423303923" y2="77.98351269889"/><linearGradient id="d" gradientUnits="userSpaceOnUse" x1="40.2393460002" x2="91.95340863657" xlink:href="#b" y1="68.70931535996" y2="78.11721101368"/><linearGradient id="e" gradientUnits="userSpaceOnUse" x1="40.2393460002" x2="91.95340863657" y1="68.70931535996" y2="78.11721101368"><stop offset="0" stop-color="#fff"/><stop offset="1" stop-color="#ecf5f9"/></linearGradient><filter id="f" color-interpolation-filters="sRGB" height="1.121967" width="1.118916" x="-.059458" y="-.060983"><feGaussianBlur stdDeviation="4.6688072"/></filter><filter id="g" color-interpolation-filters="sRGB" height="1.284048" width="1.242028" x="-.121014" y="-.142024"><feGaussianBlur stdDeviation="3.9237674"/></filter><g><g fill="#7f8899" stroke-width=".999999" transform="matrix(.26458334 0 0 .26458334 238.17537 -58.892264)"><path d="m-235.24023 17.787109-4.4961.01367-10.32812.01172-10.25.01172a1.3187171 1.3187171 0 0 0 -.002 0l-4.57812.01367a1.3187171 1.3187171 0 0 0 -1.20899 1.835937l5.44141 12.757813c1.65375 5.135477 2.06393 10.427569-1.25 15.101562-3.48982 4.921834-9.15246 9.324735-13.92578 14.390625-4.7628 5.055919-8.58594 10.663585-8.58594 17.88086 0 18.958286 15.34484 34.455082 34.29883 34.455082 18.95523 0 34.45508-15.500783 34.45508-34.455082 0-7.212491-3.66674-12.945157-8.3418-18.058594-4.68223-5.121997-10.33021-9.53528-14.13476-14.167969-2.59571-3.160761-2.63509-7.605501-1.64063-12.367187l5.78715-15.648436a1.3187171 1.3187171 0 0 0 -1.24023-1.775391z" opacity=".15" transform="matrix(3.7795275 0 0 3.7795275 294.8676 240.39681)"/><path d="m-725.97342 306.87834c7.06269 19.35528 18.39628 39.14532 24.6858 57.69843 6.28769 18.55311 7.7574 34.42433-2.67682 49.14136-11.66169 16.44835-32.895 33.27693-51.67831 53.21616-18.78327 19.9392-35.42509 43.92253-35.42509 75.08537 0 77.57118 62.96579 141.17466 140.58039 141.17466 77.61382 0 141.17462-63.56171 141.17462-141.17466 0-30.98978-15.884-55.38912-34.3936-75.63691-18.5088-20.24784-39.9356-37.14373-53.0491-53.11302-7.8256-9.52717-6.8905-29.09983-.7502-50.25127 6.1395-21.15143 16.4228-42.65493 22.0858-55.70025 9.8623-21.36952-26.6499-6.56781-31.7903-5.49716-14.31791 2.6163-28.99079 3.23165-43.54579 3.22353-14.339-.008-28.78061-.70156-42.89613-3.22353-16.10868-5.85393-37.97087-10.94081-32.32127 5.05729zm131.76049 5.72906-22.04111 59.6015c-3.94518 18.72276-4.09179 37.44042 7.18632 51.17367 14.91309 18.15923 36.30319 34.82498 53.60319 53.74979 17.3008 18.92307 30.22 39.30474 30.22 64.88647 0 68.92373-56.3174 125.24455-125.24462 125.24455-68.9246 0-124.6478-56.27565-124.6478-125.24455 0-25.52976 13.42972-45.41525 31.08953-64.1619 17.66309-18.74573 39.24759-35.42002 53.07719-54.92446 13.7111-19.33826 11.8936-41.42994 5.36201-61.63685l-20.68263-48.49945s12.98922 4.35882 19.70423 5.59399c11.95717 2.19943 24.17699 3.18298 36.33479 3.17634 12.36438-.007 24.80439-.94841 36.94888-3.27072 6.52162-1.24711 19.09002-5.68838 19.09002-5.68838z"/></g><g><g><path d="m39.425781 62.367188c-6.441414 4.6905-11.901442 12.665295-12.073436 20.631663-.282184 13.070065 7.234505 27.757669 18.328948 34.672839 10.977208 6.8421 27.212217 6.94688 38.787161 1.17331 10.396489-5.18575 17.427776-17.16116 20.114616-28.464249 1.42573-5.99779.10905-12.821739-2.73508-18.291392-2.423449-4.660625-6.767204-8.42174-11.420498-10.859238-6.355708-3.32926-13.942134-3.59991-21.074681-4.378219-1.556405-.169836-3.139126-.219045-4.696561-.05893-8.567807.88082-18.267855.50419-25.230469 5.574217z" fill="#1b981b" filter="url(#g)" opacity=".75"/><path d="m99.204415 84.516883c0 18.236057-14.900644 33.137617-33.137604 33.137617-18.2363 0-32.97976-14.88961-32.97976-33.137617 0-4.67889 1.34094-8.6406 3.94174-12.2826.72649-1.3605 1.95278-2.423563 3.17084-3.369625 1.6863-1.309728 3.58519-2.409622 5.6061-3.098748 6.57281-2.241325 12.37523-3.161202 20.34011-3.161043 7.96491-.000164 13.62866.919713 20.20147 3.161035 2.02088.689129 3.9198 1.789023 5.60609 3.09875 1.21807.946063 2.44436 2.009121 3.17093 3.369761 2.47862 3.66128 4.080084 7.64957 4.080084 12.28247z" fill="url(#c)"/><g fill-rule="evenodd"><path d="m45.805731 81.310643c-2.03496-.69573-3.99248-1.77167-5.6061-3.19342-1.44243-1.2709-3.06392-2.73139-3.46294-4.61198-.0902-.42523.0874-.88751.2921-1.27096.72649-1.3605 1.95278-2.423563 3.17084-3.369628 1.6863-1.309725 3.58519-2.409621 5.6061-3.098747 6.57281-2.241325 12.37523-3.1612 20.34011-3.161044 7.96491-.000161 13.62866.919713 20.20147 3.161038 2.02088.689126 3.9198 1.789023 5.60609 3.098748 1.21807.946065 2.44436 2.009123 3.17082 3.369623.20474.38346.3823.84574.2921 1.27097-.39899 1.88058-2.02051 3.34106-3.46292 4.61197-1.61361 1.42175-3.57113 2.49769-5.60609 3.19342-6.56011 2.24285-12.25056 2.92454-20.20147 2.92441-7.95089.00014-13.78-.68155-20.34011-2.9244z" fill="#168316"/><path d="m86.347311 79.842533c2.40519-1.42141 5.46915-3.54353 5.48513-6.33729.0161-2.83144-3.05652-5.030301-5.48513-6.48606-6.02115-3.609186-11.80484-4.404111-20.20147-4.414319-8.39663.01021-14.31899.805138-20.34011 4.414325-2.42861 1.455758-5.50137 3.654614-5.48516 6.486064.0161 2.79376 3.07997 4.91588 5.48516 6.33729 6.04221 3.57079 11.8482 4.38575 20.34011 4.3925 8.49191-.007 14.15923-.82173 20.20147-4.39251z" fill="url(#d)"/></g></g><path d="m301.0625 235.60547c-7.11761 0-14.19482 2.69138-19.19531 7.9375-5.50058-3.98983-12.79815-5.04821-19.22071-3.01758-7.19631 2.27527-13.26367 8.70108-13.26367 18.29883 0 2.79295.49377 5.33966 1.39063 7.58984l.62695 1.57422h48.49609l15.65625 63.14063h-28.05273l-4.62891 38.76953 2.74805.0684c7.44413.18081 14.98532-2.03979 20.76367-6.80664 5.27065-4.34804 8.81625-10.97424 9.42578-19.28711 4.99196-.14143 9.86394-1.90107 13.5625-5.375 3.05723 1.74834 6.75807 2.09073 10.06836.99414 4.02488-1.33332 7.48633-5.15055 7.48633-10.48438 0-4.34935-2.29073-7.77741-5.33203-9.52343-2.33322-1.33951-5.03372-1.81518-7.6543-1.50391-1.68322-4.79186-5.0448-8.27579-9.16211-10.31445 1.32001-2.59764 2.08594-5.65357 2.08594-9.08594 0-8.28982-4.60528-14.07602-10.47461-16.98438.006-.15029.043-.2847.043-.4375 0-.23796-.0527-.44501-.0664-.67578 6.03845-4.06594 10.42383-10.88748 10.42383-20.12304 0-8.07026-3.25984-14.44035-8.13672-18.59376-4.87686-4.15339-11.25084-6.15974-17.58984-6.16015zm0 5c5.27467.00034 10.51469 1.70243 14.34766 4.9668 3.83296 3.26435 6.3789 8.02143 6.3789 14.78711 0 8.34914-3.84151 13.69874-9.28125 16.81835l-1.56445.89649.35742 1.76758c.0825.40826.13086.84215.13086 1.3164 0 .48366-.0467.92107-.12891 1.32422l-.42773 2.0957 2.00195.7461c5.13956 1.91853 8.98633 6.02331 8.98633 13.25586 0 3.68304-1.039 6.49386-2.68555 8.67969l-2.1289 2.82421 3.37305 1.06446c4.66041 1.46942 8.35777 4.74158 9.46289 10.20117l.55273 2.7207 2.64844-.83203c1.95477-.61443 4.3284-.38885 6.01953.58203 1.69112.97089 2.82031 2.44577 2.82031 5.1875 0 3.3618-1.68314 4.95137-4.05859 5.73828s-5.36533.28668-7.09571-1.24609l-1.93945-1.71875-1.64844 2c-3.09438 3.75541-8.33653 5.5713-13.43945 5.17773l-2.69141-.20898v2.76367c0 8.15605-3.1444 13.9059-7.85156 17.78906-4.01955 3.31595-9.27748 5.11695-14.68555 5.50391l3.42188-28.67773h30.00586l-18.13672-73.14063h-48.83984c-.33948-1.262-.58399-2.61031-.58399-4.16406 0-7.59903 4.24421-11.78369 9.77149-13.53125 5.52726-1.74757 12.23303-.56047 16.27929 3.27734l2.01368 1.91016 1.68945-2.20313c3.86953-5.04278 10.34713-7.67187 16.92578-7.67187zm-104.99414 3.74609c-8.31438-.057-16.91256 4.88859-19.21875 15.21289-1.36643 6.11869.0335 11.55786 3.06055 15.53321 3.02701 3.97533 7.54303 6.52516 12.35742 7.54492 4.81438 1.01976 9.99458.52573 14.42383-1.85547 4.42924-2.3812 8.01031-6.74061 9.37695-12.85938.0228-.1021.0257-.19544.0469-.29687 1.97766.0943 3.97008-.10209 5.80665-1.01563 2.69233-1.33918 4.91566-3.97077 5.71484-7.54882.68574-3.07003.13969-5.96406-1.2461-8.18164-1.38577-2.21759-3.51269-3.75326-5.84374-4.60157-3.8961-1.41784-8.57894-.81556-11.86915 2.10938-3.6706-2.57506-8.10944-4.01166-12.60742-4.04102zm-.0332 5h.002c4.10345.0264 8.28125 1.54463 11.21289 4.16016l2.14648 1.91601 1.59766-2.39453c1.6657-2.49768 5.00335-3.08639 7.84375-2.05273 1.4202.51683 2.604 1.42091 3.3125 2.55469s1.04045 2.50277.60742 4.4414c-.50475 2.25984-1.61699 3.4431-3.0625 4.16211-1.4455.71901-3.32306.85862-5.04297.4043l-2.84179-.75-.28516 2.92578c-.068.69567-.17461 1.3979-.33594 2.11914-1.08296 4.84868-3.63109 7.80622-6.86523 9.54492-3.23415 1.7387-7.25102 2.16779-11.02149 1.36914-3.77045-.79864-7.22709-2.80953-9.41406-5.68164-2.18696-2.8721-3.24294-6.56746-2.16015-11.41601 1.82749-8.18132 7.84416-11.34761 14.30664-11.30274zm21.92578 20.63086-.47071 1.89844-14.19921 57.25586h27.27929l7.98047 66.84766h39.01172l7.98242-66.84766h27.2793l-14.66992-59.1543zm120.60351 4.22461c-2.60771 0-5.25033.81529-7.32812 2.58594s-3.47071 4.56581-3.47071 7.86914c0 3.3037 1.39434 6.09882 3.47266 7.86914s4.72056 2.58594 7.32813 2.58594c2.60756 0 5.2498-.81562 7.32812-2.58594s3.47266-4.56544 3.47266-7.86914c0-3.30374-1.39596-6.09874-3.47461-7.86914s-4.72018-2.58594-7.32813-2.58594zm-116.69336.77539h72.37305l12.18945 49.1543h-25.32617l-7.98242 66.84766h-30.13672l-7.98047-66.84766h-25.32617zm116.69336 4.22461c1.54285 0 3.05093.51105 4.08594 1.39258s1.7168 2.0638 1.7168 4.0625c0 1.99928-.68038 3.18133-1.71485 4.0625s-2.54313 1.39258-4.08593 1.39258c-1.54282 0-3.05147-.51141-4.08594-1.39258s-1.71484-2.06322-1.71485-4.0625c0-1.99949.68082-3.18132 1.71485-4.0625s2.54132-1.39258 4.08398-1.39258zm-117.10156 11.3125-.80078 3.60547-5.26367 23.65234 40.74023-3.55468zm73.10742 0-3.04883 2.08399-31.62695 21.61914 40.74024 3.55468zm41.21289 5.17188v.002l2.5 2.49805h-4.99804l2.49804-2.49805c-1.95968 0-3.95401.60865-5.54687 1.96484-1.59287 1.35619-2.66406 3.52963-2.66406 6.00586 0 2.47613 1.0713 4.64949 2.66406 6.00586s3.58691 1.96485 5.54687 1.96485c1.95998 0 3.95412-.60848 5.54688-1.96485s2.66406-3.52973 2.66406-6.00586c0-2.47624-1.07143-4.65111-2.66406-6.00781s-3.58662-1.96484-5.54688-1.96484zm-111.04492 3.125 17.0332 11.64062-20.01171 1.74609zm66.55664 0 2.97852 13.38671-20.01172-1.74609zm-114.67187 1.62304c-3.55183 0-7.13821 1.11536-9.92578 3.48828-2.78759 2.37293-4.65625 6.0734-4.65625 10.58399 0 6.11468 3.48703 10.6183 7.90039 12.64453 3.34744 1.53686 7.1852 1.83822 10.73047.91992 1.7042 10.87075 10.17731 17.46524 19.37695 18.96485 10.13579 1.6522 21.51665-2.35673 26.3789-12.31446l1.75586-3.59765h-27.62109l7.52344-30.33594-3.14649-.0469c-5.8973-.0856-11.79111 1.79615-16.41992 5.52735-2.80274-3.8339-7.37625-5.83399-11.89648-5.83399zm159.16015.25391h.006c.89258.002 1.75121.30303 2.29883.76953.54902.46769.90625 1.02969.90625 2.20117 0 1.17138-.35741 1.73184-.90625 2.19922s-1.40919.77149-2.30469.77149c-.89549 0-1.75584-.30411-2.30468-.77149s-.90625-1.02784-.90625-2.19922c0-1.17149.35748-1.73199.90625-2.19922.54876-.46722 1.40906-.77148 2.30468-.77148zm-159.16015 4.74609c3.89993 0 7.55143 1.85952 8.95703 5.50977l1.44531 3.7539 2.72656-2.95703c3.00035-3.25487 7.32207-5.15717 11.89258-5.74414l-7.47265 30.12696h25.26562c-4.46625 5.00888-11.76493 7.08812-18.58398 5.97656-8.28681-1.35081-15.33663-6.87562-15.56055-17.53906l-.0859-4.02149-3.56836 1.85742c-2.83254 1.47392-6.68684 1.55166-9.61133.20899-2.92448-1.34267-4.98632-3.75332-4.98632-8.09961 0-3.20539 1.15292-5.29119 2.89648-6.77539 1.74356-1.48421 4.19791-2.29688 6.68555-2.29688zm81.39648 8.79102-1.97265 2.53711-13.82422 17.77539 9.74804 7.19336 6.04688-7.77735 6.04687 7.77735 9.74805-7.19141zm-.002 8.14648 8.69922 11.1875-1.69922 1.25391-7.00196-9.00781-7.00195 9.00781-1.69726-1.25195zm-84.3711 9.17969c-1.95981 0-3.95403.60862-5.54687 1.96484-1.59284 1.35624-2.66406 3.52974-2.66406 6.00586 0 2.47633 1.07154 4.65107 2.66406 6.00782 1.59252 1.35673 3.58693 1.96484 5.54687 1.96484 1.95996 0 3.95436-.60811 5.54688-1.96484 1.59252-1.35675 2.66211-3.53149 2.66211-6.00782 0-2.47562-1.06979-4.64944-2.66211-6.00586-1.59232-1.3564-3.58709-1.96484-5.54688-1.96484zm0 5c.89509 0 1.75624.30429 2.30469.77148.54846.46721.9043 1.02792.9043 2.19922 0 1.17213-.35754 1.7337-.90625 2.20118-.54872.46747-1.40772.77148-2.30274.77148-.89501 0-1.75597-.30401-2.30468-.77148-.54872-.46748-.90625-1.02905-.90625-2.20118 0-1.17155.35755-1.73202.90625-2.19922.54869-.46718 1.40883-.77148 2.30468-.77148zm56.4629 7.08789-2.3125.0977c-3.43213.14482-6.85611 1.33809-9.4961 3.71289-2.63998 2.3748-4.38281 5.9838-4.38281 10.3457 0 2.54872.72855 4.72885 1.75 6.66797-2.84442 3.19181-4.71289 7.50257-4.71289 12.76953 0 8.74962 5.11995 14.63186 11.46484 17.38281-.37699 1.14535-.61328 2.37628-.61328 3.70703 0 3.29277 1.28351 6.1019 3.25977 7.98438 1.97624 1.88248 4.54154 2.87383 7.13086 3.0957 5.17862.44376 10.98217-2.41158 12.32617-8.38086l.68554-3.04882h-8.61328zm-4.3711 5.55274 6.41992 53.78125h5.50977c-1.3537 1.08786-3.14892 1.61168-5.04492 1.44921-1.59319-.13652-3.07966-.75547-4.10938-1.73632-1.02971-.98086-1.70703-2.28776-1.70703-4.36329 0-1.54672.3936-2.65549 1-3.53515l2.00586-2.9082-3.41211-.92383c-5.85004-1.58247-10.44531-5.81657-10.44531-13.72266 0-4.81218 1.73743-8.15088 4.37109-10.50781l1.72461-1.54492-1.4082-1.83985c-1.05085-1.37114-1.72461-3.13439-1.72461-5.54492 0-3.10004 1.08304-5.14852 2.72656-6.62695 1.10556-.99451 2.55749-1.58576 4.09375-1.97656zm56.6211 24.97851-.3711 3.10547-2.46875 20.69727h-21.69531l1.55078 3.51171c2.54055 5.746 7.72864 9.27201 13.32031 10.55469 4.54552 1.04271 9.39756.61027 13.69727-1.20703 1.0307 2.50826 2.72187 4.54269 4.77734 5.93164 2.86229 1.93414 6.32425 2.74696 9.70703 2.54688 3.3828-.20008 6.74138-1.42427 9.32227-3.79883s4.27344-5.94571 4.27344-10.24805c0-5.67159-2.99402-9.98821-6.95704-12.16797-2.98582-1.64228-6.45594-2.21797-9.79687-1.76562-.74459-8.20555-6.03104-13.85005-12.41211-16.11328zm61.06835 3.34961c-2.03209.0243-4.01836.80227-5.46875 2.3457-1.45037 1.54345-2.17627 4.0121-1.5039 6.45703.56619 2.05846 1.96889 3.66048 3.61719 4.44922 1.64828.78875 3.45224.86092 5.08984.4336.23329-.0609.4574-.15623.68555-.23828 1.55782-1.68851 3.07447-3.41571 4.53906-5.1875.17415-.99513.14691-2.06149-.14453-3.1211-.91975-3.3444-4.03348-5.17228-6.81446-5.13867zm-56.89453 3.86328c3.7285 2.24594 6.33594 5.99645 6.33594 11.89258 0 .3505-.0101.69042-.0312 1.02539l-.24023 3.77148 3.56445-1.25585c2.85924-1.00736 6.36095-.76131 8.94531.66015s4.36524 3.7557 4.36524 7.78711c0 3.05799-1.05423 5.09261-2.65821 6.56836s-3.86829 2.34638-6.23437 2.48633c-2.36608.13994-4.77967-.46088-6.60938-1.69727-1.8297-1.23639-3.12905-3.01816-3.53515-5.69336l-.57227-3.76562-3.22656 2.02148c-3.62939 2.27339-8.48932 2.97442-12.82227 1.98047-2.90972-.66747-5.47636-2.10446-7.4414-4.1914h17.58398zm56.95313 1.13672c.9726-.0118 1.57512.15228 1.93555 1.46289.22139.80493.0857 1.14504-.16407 1.50781-.24971.36278-.75528.71932-1.35937.87696-.6041.15763-1.23925.0968-1.66602-.10743-.42677-.20421-.73563-.4568-.95703-1.26171-.26276-.95546-.0652-1.29043.32813-1.70899.39332-.41856 1.17103-.76102 1.88281-.76953zm-161.79883 2.95508c-3.05535 0-6.14444.95749-8.55859 3.01367-2.41416 2.05618-4.03321 5.28052-4.03321 9.15625 0 .11908.0204.228.0234.3457 7.92997 7.39608 16.81867 13.76832 26.46094 18.90821 2.29575-1.68138 3.97851-4.47603 3.97851-7.94336 0-4.20511-2.45694-7.26106-5.52148-8.78711.15233-.80588.24219-1.64591.24219-2.52344 0-3.87586-1.61902-7.1001-4.03321-9.15625-2.41417-2.05615-5.50328-3.01367-8.55859-3.01367zm0 5c1.99104 0 3.94628.65338 5.31641 1.82031 1.37011 1.16693 2.27539 2.77798 2.27539 5.34961 0 1.21679-.22149 2.21085-.58203 3.05273l-1.22266 2.85547 3.05078.58399c2.32316.44548 4.0332 1.69978 4.0332 4.81836 0 1.79278-.6859 2.77321-1.61328 3.52929-2.96313-1.7185-5.84818-3.55165-8.64453-5.5039l.42188-2.16602h-3.03321c-.15516.00004-.34298-.0273-.51172-.0391-2.35526-1.75683-4.64117-3.59766-6.85937-5.51367-.10565-.50984-.22266-1.00816-.22266-1.61719 0-2.57142.90525-4.18262 2.27539-5.34961 1.37016-1.16698 3.32545-1.82031 5.31641-1.82031zm154.29492.58398c-2.23341.0266-4.46797.86969-6.0664 2.49219-3.04322-1.0234-6.39684-.59739-9.09766 1.00781-3.36114 1.99766-5.68153 6.25418-4.375 11.00391.78107 2.83977 2.59713 4.91877 4.74609 6.10937 7.73634-4.96439 14.89556-10.75752 21.35352-17.24804-1.55444-2.27331-4.13504-3.39228-6.55664-3.36524zm-127.85937.69727c-1.95889 0-3.95374.60732-5.54688 1.96289s-2.66406 3.52945-2.66406 6.00586c0 2.47608 1.07152 4.64937 2.66406 6.00586 1.59255 1.35649 3.58509 1.96484 5.54492 1.96484 1.95985 0 3.95433-.60835 5.54688-1.96484 1.59254-1.35649 2.66406-3.52978 2.66406-6.00586 0-2.4762-1.07127-4.6501-2.66406-6.00586s-3.58626-1.96289-5.54492-1.96289zm127.91797 4.30273c.33387-.004.59583.10709.88086.17969-4.24088 3.91782-8.72653 7.56569-13.48243 10.86133-.94689-.53739-1.74773-1.30508-2.17578-2.86133v-.002c-.76468-2.77992.29092-4.30008 2.10938-5.38086s4.39947-1.17174 6.03711-.13086l2.33593 1.48437 1.24024-2.47265c.45514-.9073 1.76552-1.66241 3.05469-1.67774zm-127.91797.69727c.89587 0 1.75663.30303 2.30468.76953.54806.4665.9043 1.02697.9043 2.19922 0 1.17161-.35756 1.73381-.90625 2.20117s-1.40956.76953-2.30469.76953-1.75404-.30217-2.30273-.76953-.90625-1.02956-.90625-2.20117c0-1.17129.3556-1.73234.9043-2.19922.54869-.46688 1.41101-.76953 2.30664-.76953z" fill="#d9f2d9" filter="url(#f)" transform="matrix(.26458334 0 0 .26458334 -1.097605 3.504608)"/><g fill-rule="evenodd" opacity=".5"><path d="m45.805731 81.310643c-2.03496-.69573-3.99248-1.77167-5.6061-3.19342-1.44243-1.2709-3.06392-2.73139-3.46294-4.61198-.0902-.42523.0874-.88751.2921-1.27096.72649-1.3605 1.95278-2.423563 3.17084-3.369628 1.6863-1.309725 3.58519-2.409621 5.6061-3.098747 6.57281-2.241325 12.37523-3.1612 20.34011-3.161044 7.96491-.000161 13.62866.919713 20.20147 3.161038 2.02088.689126 3.9198 1.789023 5.60609 3.098748 1.21807.946065 2.44436 2.009123 3.17082 3.369623.20474.38346.3823.84574.2921 1.27097-.39899 1.88058-2.02051 3.34106-3.46292 4.61197-1.61361 1.42175-3.57113 2.49769-5.60609 3.19342-6.56011 2.24285-12.25056 2.92454-20.20147 2.92441-7.95089.00014-13.78-.68155-20.34011-2.9244z" fill="#9eb8c5" opacity=".5"/><path d="m86.347311 79.842533c2.40519-1.42141 5.46915-3.54353 5.48513-6.33729.0161-2.83144-3.05652-5.030301-5.48513-6.48606-6.02115-3.609186-11.80484-4.404111-20.20147-4.414319-8.39663.01021-14.31899.805138-20.34011 4.414325-2.42861 1.455758-5.50137 3.654614-5.48516 6.486064.0161 2.79376 3.07997 4.91588 5.48516 6.33729 6.04221 3.57079 11.8482 4.38575 20.34011 4.3925 8.49191-.007 14.15923-.82173 20.20147-4.39251z" fill="url(#e)" opacity=".5"/></g></g><g><g transform="translate(-1.097605 3.504608)"><path d="m52.400186 20.363774 5.99503 14.618867c.53304 1.249855 1.21833 2.212549 2.50618 2.645833 4.40649 1.48235 9.03129 1.397315 13.36042.02791 1.40183-.443561 1.93709-1.509697 2.44718-2.888713l5.34514-14.453839s1.27488-2.846559 1.19108-4.34645c-.10908-1.952252-.83162-4.024781-2.1709-5.449393-1.56588-1.6656611-3.99536-2.3314561-6.20272-2.9264381-2.53252-.68263-5.21692-.675475-7.83983-.673859-2.64533.0016-5.36111-.0327-7.90598.689361-2.11531.600184-4.41048 1.339962-5.89318 2.9636461-1.34326 1.470991-2.12571 3.569258-2.19027 5.56024-.048 1.480987 1.35785 4.232839 1.35785 4.232839z" fill="#c36e36"/><path d="m56.808976 13.715668c-.85684.974441-1.1465 2.449269-1.0648 3.744272.10003 1.585465 1.24628 2.922606 1.86942 4.38391 1.60205 3.756954 4.80615 11.270872 4.80615 11.270872 3.47978 1.170599 6.87158 1.118722 10.40569.000794 0 0 2.78521-7.531087 4.1778-11.296637.53735-1.452978 1.5533-2.810896 1.61203-4.358939.0492-1.297136-.1986-2.782319-1.07016-3.744272-.90373-.997453-2.44365-1.180606-3.75449-1.486141-2.2014-.513115-4.49854-.549246-6.75896-.549265-2.26041-.000018-4.56506.0048-6.75896.549151-1.2194.302548-2.63409.542753-3.46372 1.486255z" fill="url(#a)"/></g><g transform="matrix(.26458334 0 0 .26458334 238.17537 -58.892264)"><path d="m-585.27824 481.52634c3.19347 3.60608 5.22851 8.48106 5.22851 14.66406 0 9.15441-4.42314 15.48004-10.53711 18.98633.1143.56538.17969 1.16889.17969 1.8125 0 .64773-.06377 1.25543-.17969 1.82421.73523.27445 1.45059.59503 2.14063.96094.02133-.25627.03906-.51504.03906-.78515 0-.64361-.06541-1.24711-.17969-1.8125 6.11397-3.50629 10.53711-9.83191 10.53711-18.98633 0-7.40068-2.89049-12.9552-7.22851-16.66406zm-95.08399 6.1289c1.23933 1.73196 1.82622 3.9864 1.22071 6.69727-1.30393 5.83788-6.67171 7.63127-11.1836 6.43945-.07688.78693-.1993 1.59265-.38476 2.42188-3.33975 14.95281-20.3534 16.32363-29.29883 8.73828 8.10659 9.72696 27.68978 9.42026 31.29883-6.73828.18546-.82923.30787-1.63495.38476-2.42188 4.51189 1.19183 9.87967-.60157 11.1836-6.43945.87575-3.9207-.69812-6.92158-3.22071-8.69727zm30.47461 13.66406c.17789.69539.39106 1.36405.64453 2h47.25196l-.4961-2zm42.24414 8.99414 12.9336 52.1543h-26.30274l-7.98242 66.84766h-32.8125l.23828 2h34.57422l7.98242-66.84766h26.30274l-13.42969-54.1543zm48.83985 5.66602c.81542 1.1975 1.33203 2.68734 1.33203 4.51367 0 7.61608-8.54055 9.73223-13.36719 6.41016 3.84096 5.89573 15.36719 4.42964 15.36719-4.41016 0-3.04946-1.37554-5.21757-3.33203-6.51367zm-24.96289 7.57227c2.30933 2.70585 3.79101 6.30236 3.79101 10.85937 0 4.16896-1.21546 7.56307-3.18945 10.18359.90926.2867 1.78025.66679 2.6289 1.0879 1.59752-2.48117 2.56055-5.56871 2.56055-9.27149 0-5.77611-2.33402-10.05688-5.79101-12.85937zm-97.47071 6.94726-4.52148 20.32227 2.49414-.2168 4.02734-18.10547 23.03321 15.74414.82031-.07226zm69.83008 0-25.85351 17.67188 4.36914.38086 22.13476-15.13086zm47.875 6.27344c.42021.75676.6875 1.65144.6875 2.72266 0 5.01265-5.39309 6.57922-8.76758 4.70312 2.41833 4.43335 10.76758 3.53613 10.76758-2.70312 0-2.29871-1.13417-3.87223-2.6875-4.72266zm-133.9043 4.30469c-.84074-.01221-1.68222.02096-2.51953.09179l-7.01562 28.29102h2.49609zm-20.50586 2.17382c.60645.78204 1.13717 1.64296 1.51758 2.63086.18169-.1971.38893-.36419.57813-.55273-.60416-.79878-1.31247-1.48945-2.09571-2.07813zm142.55274 6.42383c1.60772 1.89465 2.82054 4.21268 3.38672 7.00977.44377-.13949.90969-.20218 1.37109-.2793-.9923-2.78996-2.67044-5.02901-4.75781-6.73047zm-70.92969 4.45899-12.25 15.75195 2.25977 1.66602 11.76758-15.13086zm-89.28906 5.20117c3.20213 4.25599 9.32168 5.54208 14.29297 3.86133-.12011-.88599-.21046-1.79292-.23047-2.7461-4.36041 2.26896-10.1774 1.88658-14.0625-1.11523zm174.23242.54883c.90391 1.30565 1.46289 2.94907 1.46289 4.95508 0 8.69562-10.28884 10.81325-15.3125 6.36328-3.7074 4.49937-9.74854 6.52832-15.56055 6.08007v.0625c0 16.68516-12.58576 25.31218-25.6289 25.91602l-.24414 2.03711c13.80392.33525 27.87304-8.31184 27.87304-25.95313v-.0625c5.81201.44825 11.85315-1.5807 15.56055-6.08007 5.02366 4.44997 15.3125 2.33235 15.3125-6.36328 0-3.22818-1.42314-5.54011-3.46289-6.95508zm-133.98047 2.58398-.49609 2h24.54101l-.23828-2zm51.03321 5.24805-.22266.28711 4.74805 6.10547.2832-.20899zm-36.98829 3.74414c-7.06195 10.82777-24.01909 12.17071-33.51562 4.00391 9.38671 10.87534 30.05503 9.54314 36.66992-4.00391zm-44.35742 1.17969c.41882.75581.68555 1.64943.68555 2.71875 0 5.01284-5.38961 6.58166-8.76367 4.70703 2.42023 4.43078 10.76367 3.53231 10.76367-2.70703 0-2.2971-1.13392-3.86845-2.68555-4.71875zm51.23242 11.43164c-.58404.02464-1.16342.09644-1.73828.19336l6.21289 52.04492h1.76172zm61.66211 34.16406c2.31784 2.70788 3.80469 6.30995 3.80469 10.87695 0 .4023-.01254.79555-.03711 1.1836.64405-.22691 1.3127-.38542 1.98828-.51172-.33037-5.11724-2.56105-8.96595-5.75586-11.54883zm55.9336.04102c.13111.2707.24589.56052.33398.88085 1.17634 4.27682-3.52559 6.66125-6.63867 5.21094 2.20741 4.58307 10.1269 2.19983 8.63867-3.21094-.40005-1.45469-1.27515-2.39004-2.33398-2.88085zm-128.45313 7.48437c1.64293 1.99453 3.74742 3.4992 6.08594 4.52148.18085-.38113.38602-.74084.61719-1.07617-2.46244-.6661-4.76515-1.82095-6.70313-3.44531zm-29.01953 2.00586c1.0809 1.48815 1.75391 3.38345 1.75391 5.71484 0 1.5267-.28387 2.87113-.78321 4.03711.8414.16135 1.6515.45107 2.39454.85547.24736-.88042.38867-1.84018.38867-2.89258 0-3.55245-1.5343-6.12009-3.75391-7.71484zm150.69922 4.2793c-.00189.00189-.00378.00397-.00586.00586-.60319.58227-1.21355 1.15619-1.82812 1.72656-.07903.07332-.15711.14776-.23633.2207-.58315.53843-1.17244 1.07015-1.76563 1.59766-.11478.10205-.22859.20497-.34375.30664-.56395.49788-1.13421.99058-1.70703 1.47851-.15929.13561-.31853.27133-.47851.40625-.53395.4503-1.07183.89446-1.61329 1.33594-.24374.19858-.48912.39489-.73437.5918-.46251.37141-.92671.74037-1.39453 1.10547-.30976.24147-.62152.48026-.9336.71875-.44659.34174-.89442.68353-1.3457 1.01953-.41264.30686-.8296.60817-1.24609.91015-.32876.23845-.65517.47938-.98633.71485-.53732.38162-1.08151.75549-1.625 1.1289-.26575.18263-.52771.37012-.79492.55079-.00794.00378-.0155.01184-.02344.01562-.63688-.19849-1.23193-.50807-1.79688-.87891.95053 1.46865 2.2969 2.41141 3.79688 2.87891.008-.004.01554-.01182.02344-.01562.26721-.18066.52917-.36817.79492-.55079.5435-.37341 1.08768-.74728 1.625-1.1289.33116-.23546.65757-.4764.98633-.71485.41649-.30197.83345-.60329 1.24609-.91015.45128-.336.89911-.67778 1.3457-1.01953.31208-.23848.62384-.47727.9336-.71875.46782-.3651.93202-.73406 1.39453-1.10547.24525-.19692.49062-.39322.73437-.5918.54145-.44149 1.07934-.88565 1.61329-1.33594.15998-.13493.31921-.27064.47851-.40625.57282-.48794 1.14308-.98063 1.70703-1.47851.11516-.10167.22896-.20459.34375-.30664.59318-.52751 1.18249-1.05923 1.76563-1.59766.0792-.073.1573-.14737.23633-.2207.61457-.57036 1.22493-1.14429 1.82812-1.72656.004-.004.00802-.00842.01172-.01172-.50608-.9041-1.20554-1.56-2.00586-1.99414zm-127.57813.79687c.41885.75562.68555 1.64901.68555 2.71875 0 5.01292-5.39171 6.57932-8.76562 4.70313 2.41791 4.43358 10.76562 3.53646 10.76562-2.70313 0-2.29806-1.13387-3.86933-2.68555-4.71875zm96.56641 1.19336c1.39073 1.81137 2.25977 4.15816 2.25977 7.06445 0 11.38037-13.1085 14.33131-20.00782 8.92774 5.91123 7.97587 22.00782 5.67289 22.00782-6.92774 0-4.12594-1.72972-7.14515-4.25977-9.06445zm-135.79687 4.04102c.03123.12366.05831.25059.09375.37109.006.004.01147.01183.01757.01563.44551.39019.89841.77251 1.34961 1.15625.25958.2211.51792.44324.7793.6621.45993.38461.92311.76459 1.38867 1.14258.23513.19124.4705.38277.70703.57227.56688.45351 1.1381.90191 1.71289 1.3457.0852.0658.17044.1315.25586.19727.64087.49224 1.28523.9806 1.93555 1.46093.0197.0151.03909.03007.05859.04297h.00196c.30499.04015.61113.06765.91797.08594-.51386-.35629-1.03105-.70811-1.53907-1.07226-.00604-.00756-.01153-.0099-.01757-.01368.02384-.30704.05603-.60798.11132-.89257-.49371.00037-.98416-.04317-1.47265-.10743h-.00196c-.01946-.01285-.03894-.02785-.05859-.04297-.65032-.48033-1.29468-.96869-1.93555-1.46093-.08541-.06577-.17063-.1315-.25586-.19727-.57479-.44379-1.14601-.8922-1.71289-1.3457-.23653-.18951-.4719-.38102-.70703-.57227-.46556-.37799-.92874-.75797-1.38867-1.14258-.08074-.0676-.15995-.13697-.24023-.20507zm67.40234.23242c-2.53303 4.80752-9.40045 5.7247-13.60156 2.75 3.8977 5.75801 14.65748 4.84349 16.36718-2.75zm-45.41602 2.36523c.7168 1.10049 1.15625 2.46622 1.15625 4.11719 0 3.28184-1.70728 5.4608-3.98242 6.57031-.99215-.55857-1.97561-1.13083-2.95117-1.71484h-.00195c-.94066-.56315-1.87233-1.13972-2.79688-1.72656-.04985-.03175-.10057-.06352-.15039-.09375-.84165-.53594-1.67424-1.085-2.50195-1.64063-.12284-.08239-.24856-.16099-.3711-.24414-.22044-.14913-.43485-.30652-.65429-.45703-.02509.18488-.05539.36641-.07031.55859.006.004.01147.00658.01757.01368.89335.64036 1.79597 1.26839 2.70703 1.88476.12254.0832.24827.16174.3711.24414.82772.55562 1.66029 1.1047 2.50195 1.64063.0498.0302.10054.06205.15039.09375.92455.58684 1.85622 1.16341 2.79688 1.72656h.00195c.97555.58401 1.95902 1.15626 2.95117 1.71484 2.27514-1.10952 3.98242-3.28848 3.98242-6.57031 0-2.87448-1.30466-4.91027-3.15625-6.11719zm69.86914 1.07227c5.33431 6.54622 15.58736 7.90487 22.97071 4.08203-.34705-.82918-.63048-1.70909-.7793-2.68945-6.63602 4.1567-16.20377 3.67712-22.19141-1.39258z" fill="#e3e5e8" opacity=".5" stroke-width=".999999"/><g fill="#7f8899"><path d="m-235.24023 17.787109-4.4961.01367-10.32812.01172-10.25.01172a1.3187171 1.3187171 0 0 0 -.002 0l-4.57812.01367a1.3187171 1.3187171 0 0 0 -1.20899 1.835937l5.44141 12.757813c1.65375 5.135477 2.06393 10.427569-1.25 15.101562-3.48982 4.921834-9.15246 9.324735-13.92578 14.390625-4.7628 5.055919-8.58594 10.663585-8.58594 17.88086 0 18.958286 15.34484 34.455082 34.29883 34.455082 18.95523 0 34.45508-15.500783 34.45508-34.455082 0-7.212491-3.66674-12.945157-8.3418-18.058594-4.68223-5.121997-10.33021-9.53528-14.13476-14.167969-2.59571-3.160761-2.63509-7.605501-1.64063-12.367187l5.78715-15.648436a1.3187171 1.3187171 0 0 0 -1.24023-1.775391z" opacity=".15" stroke-width=".999999" transform="matrix(3.7795275 0 0 3.7795275 294.8676 240.39681)"/><path d="m78.558517 66.503348c-1.9161 0-3.831688.76256-5.002796 2.288749-2.552835-2.421319-8.00933-1.356898-8.00933 3.193087 0 .66167.115986 1.249052.32091 1.7632h12.899989l4.470528 18.028874h-7.680668l-1.068669 8.952942c3.652293.0887 7.374744-2.19917 7.374744-6.866764v-.01654c1.537761.118599 3.136143-.418228 4.117061-1.608688 1.329178 1.17739 4.051433.617102 4.051433-1.683618 0-1.876187-1.809716-2.594101-3.198772-2.157491-.341134-1.685299-1.534272-2.751351-2.953308-3.198771.522287-.693348.843876-1.591371.843876-2.69441 0-2.165488-1.236888-3.540561-2.80758-4.12688.03067-.15049.04754-.311277.04754-.482658 0-.170288-.0173-.329966-.04754-.479557 1.617655-.927707 2.787943-2.601358 2.787943-5.023466 0-3.925346-3.072573-5.887815-6.145361-5.888013zm-27.783835 2.314071c-1.954935-.01357-3.888511 1.059548-4.435388 3.507796-1.296042 5.803502 7.789502 7.728037 9.085751 1.924431.04907-.2194.08146-.43258.101802-.640788 1.193772.315337 2.613995-.159163 2.958993-1.703772.592012-2.650417-3.03988-3.720937-4.308265-1.819011-.909975-.811857-2.160733-1.260655-3.402893-1.268656zm6.313827 6.781498-3.553272 14.328325h6.959266l2.111499 17.686778h9.147762l2.112016-17.686778h6.959265l-3.553271-14.328325zm31.3924 1.117762c-1.098123 0-2.195732.701741-2.195732 2.104781 0 2.806157 4.392497 2.806157 4.392497 0 0-1.402939-1.098533-2.104781-2.196765-2.104781zm-30.549557 4.752164 6.840409 4.675684-8.036719.701249zm18.475875 0 1.196309 5.376933-8.036719-.701249zm11.337809.932243v.000517c-.75547 0-1.511019.482329-1.511019 1.447457 0 1.930138 3.022038 1.930138 3.022038 0 0-.965128-.755557-1.447974-1.511019-1.447974zm-42.111125 1.256254c-1.597942 0-3.196705 1.020312-3.196705 3.061829 0 2.767806 2.93674 3.658983 4.829163 2.674255.13113 6.244685 8.677657 7.03905 10.950753 2.383834h-7.094657l1.993676-8.038786c-1.67681-.02434-3.365687.575488-4.494816 1.800407-.483039-1.254417-1.734785-1.881539-2.987414-1.881539zm21.536153 4.064869 3.240113 4.167704-1.514637 1.117244-1.726509-2.220536-1.725993 2.220536-1.51412-1.117244zm-22.323702 4.168221c-.755567 0-1.511019.48234-1.511019 1.447457 0 1.930639 3.021521 1.930639 3.021521 0 0-.964919-.75515-1.447457-1.510502-1.447457zm14.355196 3.223576c-1.543765.06514-3.038574 1.08442-3.038574 3.058728 0 .7675.225768 1.390843.592729 1.869656-.828963.74186-1.37666 1.83234-1.37666 3.27318 0 2.36688 1.476286 3.78903 3.252514 4.26951-.237855.34504-.381372.78162-.381372 1.31052 0 2.84071 4.149396 3.03035 4.703589.56895h-2.039152zm14.967046 8.291484-.722954 6.05906h-5.31182c1.157591 2.61814 4.702419 3.22046 6.958748 1.80713.536708 3.53555 6.352584 3.35533 6.352584-.5395 0-2.56726-2.526475-3.51981-4.402832-2.85874.0065-.10267.0098-.20672.0098-.31316 0-2.20043-1.276769-3.5849-2.883545-4.15479zm15.606799.64751c-.725984.009-1.462331.59271-1.214912 1.49241.416768 1.5152 2.789223.89613 2.372465-.61908-.169357-.61582-.660985-.87933-1.157553-.87333zm-42.801522 2.10478c-1.335172 0-2.670122.85269-2.670122 2.5585 0 .28644.03966.54727.109554.78496.0016.001.0031.003.0047.004.117873.10324.237705.20439.357084.30592.06868.0585.137032.11728.206189.17519.121691.10176.244241.20229.36742.3023.06221.0506.124485.10127.187068.15141.149986.11999.301122.23863.453203.35605.02255.0174.0451.0348.0677.0522.169564.13024.340049.25945.512113.38654.0052.004.01035.008.0155.0114.000112.00008.000405-.00009.000517 0 .129247.017.259012.0285.38964.0284-.01463.0753-.02315.15492-.02946.23616.0016.001.0031.002.0047.004.236366.16943.47518.33559.716235.49867.03242.022.06569.0428.09819.0646.219.14701.439287.29228.661975.43408.01318.008.0266.0164.03979.0248.244619.15527.491124.30782.740007.45682.000127.00007.00039-.00008.000517 0 .258116.15452.518323.30593.78083.45372.601964-.29356 1.053683-.87008 1.053683-1.7384 0-1.11937-.746919-1.76007-1.604037-1.92443.132115-.3085.207223-.66421.207223-1.06815 0-1.7059-1.334941-2.5585-2.670121-2.5585zm40.831617 1.47743c-.567507.007-1.138941.30499-1.391647.80873-1.362515-.866-3.696137.1999-3.148128 2.19212.206121.7494.699513 1.18213 1.272274 1.36064.0021-.001.0041-.003.0062-.004.0707-.0478.140009-.0974.210323-.14572.1438-.0988.287781-.19772.429948-.29869.08762-.0623.173981-.12605.260966-.18914.110197-.0799.220517-.15962.329696-.24081.119401-.0889.237888-.17933.35605-.26975.08257-.0631.165056-.12628.247014-.19017.123777-.0966.246597-.19422.368969-.29249.06489-.0521.129814-.10404.194304-.15658.14326-.11681.285573-.23433.426847-.35347.04233-.0357.08446-.0716.126607-.10748.151558-.1291.30244-.25946.451652-.39119.03047-.0269.06058-.0541.09095-.0811.156947-.13957.312864-.28025.467155-.42271.02096-.0193.04162-.039.06253-.0584.162607-.15091.324099-.30276.483692-.45682.0011-.001.002-.002.0031-.003-.272512-.48684-.755996-.7052-1.247985-.6997zm-33.837212.18448c-.755258 0-1.511019.48182-1.511019 1.44694 0 1.93024 3.021521 1.93024 3.021521 0 0-.96531-.755237-1.44694-1.510502-1.44694z" opacity=".9" stroke-width=".264583" transform="matrix(3.7795275 0 0 3.7795275 -900.19035 222.58493)"/><path d="m-725.97342 306.87834c7.06269 19.35528 18.39628 39.14532 24.6858 57.69843 6.28769 18.55311 7.7574 34.42433-2.67682 49.14136-11.66169 16.44835-32.895 33.27693-51.67831 53.21616-18.78327 19.9392-35.42509 43.92253-35.42509 75.08537 0 77.57118 62.96579 141.17466 140.58039 141.17466 77.61382 0 141.17462-63.56171 141.17462-141.17466 0-30.98978-15.884-55.38912-34.3936-75.63691-18.5088-20.24784-39.9356-37.14373-53.0491-53.11302-7.8256-9.52717-6.8905-29.09983-.7502-50.25127 6.1395-21.15143 16.4228-42.65493 22.0858-55.70025 9.8623-21.36952-26.6499-6.56781-31.7903-5.49716-14.31791 2.6163-28.99079 3.23165-43.54579 3.22353-14.339-.008-28.78061-.70156-42.89613-3.22353-16.10868-5.85393-37.97087-10.94081-32.32127 5.05729zm131.76049 5.72906-22.04111 59.6015c-3.94518 18.72276-4.09179 37.44042 7.18632 51.17367 14.91309 18.15923 36.30319 34.82498 53.60319 53.74979 17.3008 18.92307 30.22 39.30474 30.22 64.88647 0 68.92373-56.3174 125.24455-125.24462 125.24455-68.9246 0-124.6478-56.27565-124.6478-125.24455 0-25.52976 13.42972-45.41525 31.08953-64.1619 17.66309-18.74573 39.24759-35.42002 53.07719-54.92446 13.7111-19.33826 11.8936-41.42994 5.36201-61.63685l-20.68263-48.49945s12.98922 4.35882 19.70423 5.59399c11.95717 2.19943 24.17699 3.18298 36.33479 3.17634 12.36438-.007 24.80439-.94841 36.94888-3.27072 6.52162-1.24711 19.09002-5.68838 19.09002-5.68838z" stroke-width=".999999"/></g></g></g></g></svg>