<svg height="500" viewBox="0 0 132.29167 132.29167" width="500" xmlns="http://www.w3.org/2000/svg" xmlns:xlink="http://www.w3.org/1999/xlink"><radialGradient id="a" cx="494.25363" cy="332.55859" gradientTransform="matrix(-.33462355 .12958228 -.13250235 -.34220148 276.54747 68.068365)" gradientUnits="userSpaceOnUse" r="43.257179"><stop offset="0" stop-color="#deaa87"/><stop offset="1" stop-color="#d38d5f"/></radialGradient><linearGradient id="b"><stop offset="0" stop-color="#b2261a"/><stop offset="1" stop-color="#c32222"/></linearGradient><linearGradient id="c" gradientUnits="userSpaceOnUse" x1="40.2393460002" x2="91.95340863657" xlink:href="#b" y1="68.70931535996" y2="78.11721101368"/><linearGradient id="d" gradientUnits="userSpaceOnUse" spreadMethod="reflect" x1="65.8887" x2="77.935415" xlink:href="#b" y1="108.536518" y2="99.627609"/><filter id="e" color-interpolation-filters="sRGB" height="1.03572" width="1.027967" x="-.013984" y="-.01786"><feGaussianBlur stdDeviation=".43597416"/></filter><filter id="f" color-interpolation-filters="sRGB" height="1.321476" width="1.251707" x="-.125854" y="-.160738"><feGaussianBlur stdDeviation="3.9237674"/></filter><filter id="g" color-interpolation-filters="sRGB" height="1.142878" width="1.11187" x="-.055935" y="-.071439"><feGaussianBlur stdDeviation="1.7438966"/></filter><filter id="h" color-interpolation-filters="sRGB" height="1.121115" width="1.121115" x="-.060558" y="-.060558"><feGaussianBlur stdDeviation="2.8707026"/></filter><filter id="i" color-interpolation-filters="sRGB" height="1.04569" width="1.035215" x="-.017607" y="-.022845"><feGaussianBlur stdDeviation=".42510076"/></filter><filter id="j" color-interpolation-filters="sRGB" height="1.034862" width="1.035336" x="-.017668" y="-.017431"><feGaussianBlur stdDeviation=".42510076"/></filter><filter id="k" color-interpolation-filters="sRGB" height="1.112717" width="1.112717" x="-.056358" y="-.056358"><feGaussianBlur stdDeviation="2.8953115"/></filter><g><g fill="#7f8899" stroke-width=".999999" transform="matrix(.26458334 0 0 .26458334 238.17537 -58.892264)"><path d="m-235.24023 17.787109-4.4961.01367-10.32812.01172-10.25.01172a1.3187171 1.3187171 0 0 0 -.002 0l-4.57812.01367a1.3187171 1.3187171 0 0 0 -1.20899 1.835937l5.44141 12.757813c1.65375 5.135477 2.06393 10.427569-1.25 15.101562-3.48982 4.921834-9.15246 9.324735-13.92578 14.390625-4.7628 5.055919-8.58594 10.663585-8.58594 17.88086 0 18.958286 15.34484 34.455082 34.29883 34.455082 18.95523 0 34.45508-15.500783 34.45508-34.455082 0-7.212491-3.66674-12.945157-8.3418-18.058594-4.68223-5.121997-10.33021-9.53528-14.13476-14.167969-2.59571-3.160761-2.63509-7.605501-1.64063-12.367187l5.78715-15.648436a1.3187171 1.3187171 0 0 0 -1.24023-1.775391z" opacity=".15" transform="matrix(3.7795275 0 0 3.7795275 294.8676 240.39681)"/><path d="m-725.97342 306.87834c7.06269 19.35528 18.39628 39.14532 24.6858 57.69843 6.28769 18.55311 7.7574 34.42433-2.67682 49.14136-11.66169 16.44835-32.895 33.27693-51.67831 53.21616-18.78327 19.9392-35.42509 43.92253-35.42509 75.08537 0 77.57118 62.96579 141.17466 140.58039 141.17466 77.61382 0 141.17462-63.56171 141.17462-141.17466 0-30.98978-15.884-55.38912-34.3936-75.63691-18.5088-20.24784-39.9356-37.14373-53.0491-53.11302-7.8256-9.52717-6.8905-29.09983-.7502-50.25127 6.1395-21.15143 16.4228-42.65493 22.0858-55.70025 9.8623-21.36952-26.6499-6.56781-31.7903-5.49716-14.31791 2.6163-28.99079 3.23165-43.54579 3.22353-14.339-.008-28.78061-.70156-42.89613-3.22353-16.10868-5.85393-37.97087-10.94081-32.32127 5.05729zm131.76049 5.72906-22.04111 59.6015c-3.94518 18.72276-4.09179 37.44042 7.18632 51.17367 14.91309 18.15923 36.30319 34.82498 53.60319 53.74979 17.3008 18.92307 30.22 39.30474 30.22 64.88647 0 68.92373-56.3174 125.24455-125.24462 125.24455-68.9246 0-124.6478-56.27565-124.6478-125.24455 0-25.52976 13.42972-45.41525 31.08953-64.1619 17.66309-18.74573 39.24759-35.42002 53.07719-54.92446 13.7111-19.33826 11.8936-41.42994 5.36201-61.63685l-20.68263-48.49945s12.98922 4.35882 19.70423 5.59399c11.95717 2.19943 24.17699 3.18298 36.33479 3.17634 12.36438-.007 24.80439-.94841 36.94888-3.27072 6.52162-1.24711 19.09002-5.68838 19.09002-5.68838z"/></g><path d="m28.922284 82.998851c-.914547 12.224987 6.398163 26.184239 16.759009 32.737069 10.932016 6.91408 27.231161 6.9847 38.787161 1.17331 9.629297-4.84247 16.029366-16.03422 18.487716-26.528479 1.4061-6.002421.85755-13.281483-2.73508-18.291392-2.139249-2.983171-6.332713-3.812621-9.793598-5.036535-6.76436-2.39216-13.942133-3.599911-21.074681-4.378219-1.556405-.169835-3.138727-.215108-4.696561-.05893-8.472137.849361-17.849345.715763-24.969869 5.384453-5.14628 3.374244-10.305013 8.862033-10.764097 14.998723z" fill="#df3020" filter="url(#f)"/><path d="m28.922284 82.998851c-.914547 12.224987 6.398163 26.184239 16.759009 32.737069 10.932016 6.91408 27.231161 6.9847 38.787161 1.17331 9.629297-4.84247 16.029366-16.03422 18.487716-26.528479 1.4061-6.002421.85755-13.281483-2.73508-18.291392-2.139249-2.983171-6.332713-3.812621-9.793598-5.036535-6.76436-2.39216-13.942133-3.599911-21.074681-4.378219-1.556405-.169835-3.138727-.215108-4.696561-.05893-8.472137.849361-17.849345.715763-24.969869 5.384453-5.14628 3.374244-10.305013 8.862033-10.764097 14.998723z" fill="#b2261a" filter="url(#g)" opacity=".75"/><path d="m28.922284 82.998851c-.914547 12.224987 6.398163 26.184239 16.759009 32.737069 10.932016 6.91408 27.231161 6.9847 38.787161 1.17331 9.629297-4.84247 16.029366-16.03422 18.487716-26.528479 1.4061-6.002421.85755-13.281483-2.73508-18.291392-2.139249-2.983171-6.332713-3.812621-9.793598-5.036535-6.76436-2.39216-13.942133-3.599911-21.074681-4.378219-1.556405-.169835-3.138727-.215108-4.696561-.05893-8.472137.849361-17.849345.715763-24.969869 5.384453-5.14628 3.374244-10.305013 8.862033-10.764097 14.998723z" fill="#df3020" filter="url(#e)" opacity=".05"/><g opacity=".9"><path d="m99.204415 84.516883c0 18.236057-14.900644 33.137617-33.137604 33.137617-18.2363 0-32.97976-14.88961-32.97976-33.137617 0-4.67889 1.34094-8.6406 3.94174-12.2826.72649-1.3605 1.95278-2.423563 3.17084-3.369625 1.6863-1.309728 3.58519-2.409622 5.6061-3.098748 6.57281-2.241325 12.37523-3.161202 20.34011-3.161043 7.96491-.000164 13.62866.919713 20.20147 3.161035 2.02088.689129 3.9198 1.789023 5.60609 3.09875 1.21807.946063 2.44436 2.009121 3.17093 3.369761 2.47862 3.66128 4.080084 7.64957 4.080084 12.28247z" fill="url(#d)" opacity="1"/><g fill-rule="evenodd" opacity="1"><path d="m45.805731 81.310643c-2.03496-.69573-3.99248-1.77167-5.6061-3.19342-1.44243-1.2709-3.06392-2.73139-3.46294-4.61198-.0902-.42523.0874-.88751.2921-1.27096.72649-1.3605 1.95278-2.423563 3.17084-3.369628 1.6863-1.309725 3.58519-2.409621 5.6061-3.098747 6.57281-2.241325 12.37523-3.1612 20.34011-3.161044 7.96491-.000161 13.62866.919713 20.20147 3.161038 2.02088.689126 3.9198 1.789023 5.60609 3.098748 1.21807.946065 2.44436 2.009123 3.17082 3.369623.20474.38346.3823.84574.2921 1.27097-.39899 1.88058-2.02051 3.34106-3.46292 4.61197-1.61361 1.42175-3.57113 2.49769-5.60609 3.19342-6.56011 2.24285-12.25056 2.92454-20.20147 2.92441-7.95089.00014-13.78-.68155-20.34011-2.9244z" fill="#a12a12"/><path d="m86.347311 79.842533c2.40519-1.42141 5.46915-3.54353 5.48513-6.33729.0161-2.83144-3.05652-5.030301-5.48513-6.48606-6.02115-3.609186-11.80484-4.404111-20.20147-4.414319-8.39663.01021-14.31899.805138-20.34011 4.414325-2.42861 1.455758-5.50137 3.654614-5.48516 6.486064.0161 2.79376 3.07997 4.91588 5.48516 6.33729 6.04221 3.57079 11.8482 4.38575 20.34011 4.3925 8.49191-.007 14.15923-.82173 20.20147-4.39251z" fill="url(#c)"/></g></g><g><g transform="translate(-1.097605 3.504608)"><path d="m52.400186 20.363774 5.99503 14.618867c.53304 1.249855 1.21833 2.212549 2.50618 2.645833 4.40649 1.48235 9.03129 1.397315 13.36042.02791 1.40183-.443561 1.93709-1.509697 2.44718-2.888713l5.34514-14.453839s1.27488-2.846559 1.19108-4.34645c-.10908-1.952252-.83162-4.024781-2.1709-5.449393-1.56588-1.6656611-3.99536-2.3314561-6.20272-2.9264381-2.53252-.68263-5.21692-.675475-7.83983-.673859-2.64533.0016-5.36111-.0327-7.90598.689361-2.11531.600184-4.41048 1.339962-5.89318 2.9636461-1.34326 1.470991-2.12571 3.569258-2.19027 5.56024-.048 1.480987 1.35785 4.232839 1.35785 4.232839z" fill="#c36e36"/><path d="m56.808976 13.715668c-.85684.974441-1.1465 2.449269-1.0648 3.744272.10003 1.585465 1.24628 2.922606 1.86942 4.38391 1.60205 3.756954 4.80615 11.270872 4.80615 11.270872 3.47978 1.170599 6.87158 1.118722 10.40569.000794 0 0 2.78521-7.531087 4.1778-11.296637.53735-1.452978 1.5533-2.810896 1.61203-4.358939.0492-1.297136-.1986-2.782319-1.07016-3.744272-.90373-.997453-2.44365-1.180606-3.75449-1.486141-2.2014-.513115-4.49854-.549246-6.75896-.549265-2.26041-.000018-4.56506.0048-6.75896.549151-1.2194.302548-2.63409.542753-3.46372 1.486255z" fill="url(#a)"/></g><g fill="#7f8899" stroke-width=".999999" transform="matrix(.26458334 0 0 .26458334 238.17537 -58.892264)"><path d="m-235.24023 17.787109-4.4961.01367-10.32812.01172-10.25.01172a1.3187171 1.3187171 0 0 0 -.002 0l-4.57812.01367a1.3187171 1.3187171 0 0 0 -1.20899 1.835937l5.44141 12.757813c1.65375 5.135477 2.06393 10.427569-1.25 15.101562-3.48982 4.921834-9.15246 9.324735-13.92578 14.390625-4.7628 5.055919-8.58594 10.663585-8.58594 17.88086 0 18.958286 15.34484 34.455082 34.29883 34.455082 18.95523 0 34.45508-15.500783 34.45508-34.455082 0-7.212491-3.66674-12.945157-8.3418-18.058594-4.68223-5.121997-10.33021-9.53528-14.13476-14.167969-2.59571-3.160761-2.63509-7.605501-1.64063-12.367187l5.78715-15.648436a1.3187171 1.3187171 0 0 0 -1.24023-1.775391z" opacity=".15" transform="matrix(3.7795275 0 0 3.7795275 294.8676 240.39681)"/><path d="m-725.97342 306.87834c7.06269 19.35528 18.39628 39.14532 24.6858 57.69843 6.28769 18.55311 7.7574 34.42433-2.67682 49.14136-11.66169 16.44835-32.895 33.27693-51.67831 53.21616-18.78327 19.9392-35.42509 43.92253-35.42509 75.08537 0 77.57118 62.96579 141.17466 140.58039 141.17466 77.61382 0 141.17462-63.56171 141.17462-141.17466 0-30.98978-15.884-55.38912-34.3936-75.63691-18.5088-20.24784-39.9356-37.14373-53.0491-53.11302-7.8256-9.52717-6.8905-29.09983-.7502-50.25127 6.1395-21.15143 16.4228-42.65493 22.0858-55.70025 9.8623-21.36952-26.6499-6.56781-31.7903-5.49716-14.31791 2.6163-28.99079 3.23165-43.54579 3.22353-14.339-.008-28.78061-.70156-42.89613-3.22353-16.10868-5.85393-37.97087-10.94081-32.32127 5.05729zm131.76049 5.72906-22.04111 59.6015c-3.94518 18.72276-4.09179 37.44042 7.18632 51.17367 14.91309 18.15923 36.30319 34.82498 53.60319 53.74979 17.3008 18.92307 30.22 39.30474 30.22 64.88647 0 68.92373-56.3174 125.24455-125.24462 125.24455-68.9246 0-124.6478-56.27565-124.6478-125.24455 0-25.52976 13.42972-45.41525 31.08953-64.1619 17.66309-18.74573 39.24759-35.42002 53.07719-54.92446 13.7111-19.33826 11.8936-41.42994 5.36201-61.63685l-20.68263-48.49945s12.98922 4.35882 19.70423 5.59399c11.95717 2.19943 24.17699 3.18298 36.33479 3.17634 12.36438-.007 24.80439-.94841 36.94888-3.27072 6.52162-1.24711 19.09002-5.68838 19.09002-5.68838z"/></g><g stroke-width="5.22006" transform="matrix(.28024352 .00342407 -.00256497 .13092208 -8.86525 2.338566)"><path d="m268.67578 49.755859c-40.37903 0-73.38867 33.007692-73.38867 73.386721 0 40.37903 33.00964 73.38672 73.38867 73.38672 40.37902 0 73.38672-33.00769 73.38672-73.38672 0-40.379029-33.0077-73.386721-73.38672-73.386721z" fill="#567f90"/><g opacity=".9" stroke-width="5.22006"><path d="m268.67494 61.494764c-34.02542 0-61.64792 27.622501-61.64792 61.647916 0 34.02542 27.6225 61.64792 61.64792 61.64792 34.02541 0 61.64791-27.6225 61.64791-61.64792 0-34.025415-27.6225-61.647916-61.64791-61.647916z" fill="#559baa" filter="url(#k)" stroke-width="23.4793"/><path d="m268.67494 66.257264c31.4325 0 56.88541 25.452917 56.88541 56.885416 0 31.4325-25.45291 56.88542-56.88541 56.88542-31.43251 0-56.88542-25.45292-56.88542-56.88542 0-31.432499 25.45291-56.885416 56.88542-56.885416z" fill="#a0d4df" filter="url(#h)" opacity="1"/><g fill="#ecf6f9"><path d="m318.4166 127.77289c-8.62541 19.20875-29.39521 40.58709-57.94375 41.275 2.14313 2.40771 13.17625 4.78896 20.24063 2.38125 24.71208-8.41375 34.15771-31.56479 37.70312-43.65625z" filter="url(#i)" opacity=".9"/><path d="m261.74285 74.454056c-8.22854 2.320396-16.95979 6.646333-24.07708 12.943417 2.01083 1.137708 3.99521 2.407708 5.92666 3.81 6.64105-6.217709 15.24-11.20775 26.00855-13.562542-2.93688-1.775354-5.82084-2.878667-7.85813-3.190875zm13.04396 7.104062c-11.69458 1.658938-20.66396 6.447896-27.43729 12.665605 2.72521 2.407708 5.23875 5.132917 7.43479 8.149167 5.60917-4.7625 13.89063-8.440209 26.19375-10.451042-.82021-4.074584-3.25437-7.593542-6.19125-10.36373zm-40.69292 9.331855c-5.50333 5.926667-9.54616 13.308537-10.86114 22.066247.55827 3.25438 1.55045 6.00605 2.83368 8.36084 1.7833-7.11729 5.22288-15.13417 10.72621-22.489587 1.05834-1.42875 2.19604-2.804583 3.41313-4.153958-1.98438-1.455209-4.04813-2.69875-6.11188-3.783542zm9.86896 6.746875c-1.21708 1.296458-2.32833 2.645832-3.36021 4.048122-6.11187 8.17563-9.49854 17.43605-10.74208 24.73855 3.88937 3.88937 8.73125 5.82083 12.83229 6.56166.66146-9.97479 2.16958-19.63208 8.67833-27.22562-2.14312-3.01625-4.65666-5.74146-7.40833-8.122712z" filter="url(#j)" opacity=".9"/></g></g></g></g></g></svg>