<svg height="500" viewBox="0 0 132.29167 132.29167" width="500" xmlns="http://www.w3.org/2000/svg" xmlns:xlink="http://www.w3.org/1999/xlink"><radialGradient id="a" cx="494.25363" cy="332.55859" gradientTransform="matrix(-.33462355 .12958228 -.13250235 -.34220148 276.54747 68.068365)" gradientUnits="userSpaceOnUse" r="43.257179"><stop offset="0" stop-color="#deaa87"/><stop offset="1" stop-color="#d38d5f"/></radialGradient><linearGradient id="b"><stop offset="0" stop-color="#ffde66"/><stop offset="1" stop-color="#ffd400"/></linearGradient><linearGradient id="c"><stop offset="0" stop-color="#fff"/><stop offset="1" stop-color="#ecf5f9"/></linearGradient><linearGradient id="d" gradientUnits="userSpaceOnUse" x1="40.2393460002" x2="91.95340863657" xlink:href="#b" y1="68.70931535996" y2="78.11721101368"/><linearGradient id="e" gradientUnits="userSpaceOnUse" spreadMethod="reflect" x1="86.59053476772" x2="21.82465534416" xlink:href="#b" y1="88.75267349732" y2="96.35775806811"/><linearGradient id="f" gradientUnits="userSpaceOnUse" x1="40.2393460002" x2="91.95340863657" xlink:href="#c" y1="68.70931535996" y2="78.11721101368"/><filter id="g" color-interpolation-filters="sRGB" height="1.118369" width="1.121676" x="-.060838" y="-.059185"><feGaussianBlur stdDeviation="4.7079077"/></filter><filter id="h" color-interpolation-filters="sRGB" height="1.284048" width="1.242028" x="-.121014" y="-.142024"><feGaussianBlur stdDeviation="3.9237674"/></filter><g><g fill="#7f8899" stroke-width=".999999" transform="matrix(.26458334 0 0 .26458334 238.17537 -58.892264)"><path d="m-235.24023 17.787109-4.4961.01367-10.32812.01172-10.25.01172a1.3187171 1.3187171 0 0 0 -.002 0l-4.57812.01367a1.3187171 1.3187171 0 0 0 -1.20899 1.835937l5.44141 12.757813c1.65375 5.135477 2.06393 10.427569-1.25 15.101562-3.48982 4.921834-9.15246 9.324735-13.92578 14.390625-4.7628 5.055919-8.58594 10.663585-8.58594 17.88086 0 18.958286 15.34484 34.455082 34.29883 34.455082 18.95523 0 34.45508-15.500783 34.45508-34.455082 0-7.212491-3.66674-12.945157-8.3418-18.058594-4.68223-5.121997-10.33021-9.53528-14.13476-14.167969-2.59571-3.160761-2.63509-7.605501-1.64063-12.367187l5.78715-15.648436a1.3187171 1.3187171 0 0 0 -1.24023-1.775391z" opacity=".15" transform="matrix(3.7795275 0 0 3.7795275 294.8676 240.39681)"/><path d="m-725.97342 306.87834c7.06269 19.35528 18.39628 39.14532 24.6858 57.69843 6.28769 18.55311 7.7574 34.42433-2.67682 49.14136-11.66169 16.44835-32.895 33.27693-51.67831 53.21616-18.78327 19.9392-35.42509 43.92253-35.42509 75.08537 0 77.57118 62.96579 141.17466 140.58039 141.17466 77.61382 0 141.17462-63.56171 141.17462-141.17466 0-30.98978-15.884-55.38912-34.3936-75.63691-18.5088-20.24784-39.9356-37.14373-53.0491-53.11302-7.8256-9.52717-6.8905-29.09983-.7502-50.25127 6.1395-21.15143 16.4228-42.65493 22.0858-55.70025 9.8623-21.36952-26.6499-6.56781-31.7903-5.49716-14.31791 2.6163-28.99079 3.23165-43.54579 3.22353-14.339-.008-28.78061-.70156-42.89613-3.22353-16.10868-5.85393-37.97087-10.94081-32.32127 5.05729zm131.76049 5.72906-22.04111 59.6015c-3.94518 18.72276-4.09179 37.44042 7.18632 51.17367 14.91309 18.15923 36.30319 34.82498 53.60319 53.74979 17.3008 18.92307 30.22 39.30474 30.22 64.88647 0 68.92373-56.3174 125.24455-125.24462 125.24455-68.9246 0-124.6478-56.27565-124.6478-125.24455 0-25.52976 13.42972-45.41525 31.08953-64.1619 17.66309-18.74573 39.24759-35.42002 53.07719-54.92446 13.7111-19.33826 11.8936-41.42994 5.36201-61.63685l-20.68263-48.49945s12.98922 4.35882 19.70423 5.59399c11.95717 2.19943 24.17699 3.18298 36.33479 3.17634 12.36438-.007 24.80439-.94841 36.94888-3.27072 6.52162-1.24711 19.09002-5.68838 19.09002-5.68838z"/></g><g><g><path d="m39.425781 62.367188c-6.441414 4.6905-11.901442 12.665295-12.073436 20.631663-.282184 13.070065 7.234505 27.757669 18.328948 34.672839 10.977208 6.8421 27.212217 6.94688 38.787161 1.17331 10.396489-5.18575 17.427776-17.16116 20.114616-28.464249 1.42573-5.99779.10905-12.821739-2.73508-18.291392-2.423449-4.660625-6.767204-8.42174-11.420498-10.859238-6.355708-3.32926-13.942134-3.59991-21.074681-4.378219-1.556405-.169836-3.139126-.219045-4.696561-.05893-8.567807.88082-18.267855.50419-25.230469 5.574217z" fill="#ffde66" filter="url(#h)" opacity=".75"/><path d="m99.204415 84.516883c0 18.236057-14.900644 33.137617-33.137604 33.137617-18.2363 0-32.97976-14.88961-32.97976-33.137617 0-4.67889 1.34094-8.6406 3.94174-12.2826.72649-1.3605 1.95278-2.423563 3.17084-3.369625 1.6863-1.309728 3.58519-2.409622 5.6061-3.098748 6.57281-2.241325 12.37523-3.161202 20.34011-3.161043 7.96491-.000164 13.62866.919713 20.20147 3.161035 2.02088.689129 3.9198 1.789023 5.60609 3.09875 1.21807.946063 2.44436 2.009121 3.17093 3.369761 2.47862 3.66128 4.080084 7.64957 4.080084 12.28247z" fill="url(#e)"/><g fill-rule="evenodd"><path d="m45.805731 81.310643c-2.03496-.69573-3.99248-1.77167-5.6061-3.19342-1.44243-1.2709-3.06392-2.73139-3.46294-4.61198-.0902-.42523.0874-.88751.2921-1.27096.72649-1.3605 1.95278-2.423563 3.17084-3.369628 1.6863-1.309725 3.58519-2.409621 5.6061-3.098747 6.57281-2.241325 12.37523-3.1612 20.34011-3.161044 7.96491-.000161 13.62866.919713 20.20147 3.161038 2.02088.689126 3.9198 1.789023 5.60609 3.098748 1.21807.946065 2.44436 2.009123 3.17082 3.369623.20474.38346.3823.84574.2921 1.27097-.39899 1.88058-2.02051 3.34106-3.46292 4.61197-1.61361 1.42175-3.57113 2.49769-5.60609 3.19342-6.56011 2.24285-12.25056 2.92454-20.20147 2.92441-7.95089.00014-13.78-.68155-20.34011-2.9244z" fill="#ceb017"/><path d="m86.347311 79.842533c2.40519-1.42141 5.46915-3.54353 5.48513-6.33729.0161-2.83144-3.05652-5.030301-5.48513-6.48606-6.02115-3.609186-11.80484-4.404111-20.20147-4.414319-8.39663.01021-14.31899.805138-20.34011 4.414325-2.42861 1.455758-5.50137 3.654614-5.48516 6.486064.0161 2.79376 3.07997 4.91588 5.48516 6.33729 6.04221 3.57079 11.8482 4.38575 20.34011 4.3925 8.49191-.007 14.15923-.82173 20.20147-4.39251z" fill="url(#d)"/></g></g><path d="m257.06836 231.94141c-19.63975-.17793-37.16024 8.63784-50.88477 22.01953-13.68107 13.33931-23.6778 31.2249-28.60742 49.69726a2.50025 2.50025 0 0 0 -.01.0156c-.006.0164-.008.0343-.0137.0508-.01.0362-.0256.0713-.0351.10742a2.50025 2.50025 0 0 0 -.01.0762c-1.03263 3.08114-1.76332 6.29301-2.39062 9.53711-2.22601-19.03868.42457-41.99375 11.11523-61.76367a2.50025 2.50025 0 0 0 -3.66992-3.21094c-34.14535 24.86415-39.62258 88.87457-1.86133 128.98633-6.12047-1.45576-12.36603-3.91667-18.70073-7.74807a2.50025 2.50025 0 0 0 -3.23242 3.71485c24.09863 29.66356 49.48619 37.56925 72.01562 37.83594-4.34597.8148-8.91465 1.32134-13.89258 1.2207a2.50025 2.50025 0 0 0 -.98828 4.81836c18.61085 7.52101 34.76366 6.80435 47.97266 1.40039 9.19067-3.76002 16.84624-9.78765 23.19727-16.66016-1.39473 3.65312-3.18083 7.34452-5.42969 11.06446a2.50025 2.50025 0 0 0 3.71484 3.23242c13.9059-11.3028 22.9327-22.89886 28.76953-34.35547-3.371 11.22412-8.71919 23.08983-16.93359 35.23047a2.50025 2.50025 0 0 0 3.33008 3.55859c52.94002-30.91166 55.98254-116.1626-8.60156-154.4043 9.16338 1.79918 18.3861 5.77266 27.37109 13.08789a2.50025 2.50025 0 0 0 3.74219-3.18945c-10.88471-18.84528-25.45805-28.26551-40.42188-31.49805-6.69334-1.4459-13.41599-1.54156-19.96875-.91796 5.51632-1.44766 11.42828-2.36262 18.05274-2.22852a2.50025 2.50025 0 0 0 .94726-4.83398c-8.41967-3.2373-16.65679-4.76932-24.57031-4.8418a2.50025 2.50025 0 0 0 -.006-.002zm-.0508 5a2.50025 2.50025 0 0 0 .002.002c3.11322.0281 6.29823.35677 9.52539.89453-10.66248 1.90543-19.85531 6.03944-27.45508 11.79492a2.50025 2.50025 0 0 0 2.41602 4.32227c12.05372-4.68861 26.36561-7.25904 40.05078-4.30274 10.54966 2.27898 20.78186 7.81577 29.63672 18.36719-10.36687-5.64534-21.00927-7.99901-31.30664-7.90625a2.50025 2.50025 0 0 0 -1.07031 4.74805c.65941.32106 1.30911.64893 1.95312.98828a2.50025 2.50025 0 0 0 .0879.0449c65.99422 31.56102 68.79191 108.72037 26.9961 143.56836 13.58746-24.21894 17.17395-47.24196 15.46679-65.58398-.007-.0806-.004-.16955-.0117-.25a2.50025 2.50025 0 0 0 -4.98828.22656c-.0865 18.88999-5.68674 39.48993-26.65234 60.12891 1.59066-4.13506 2.73349-8.24518 3.4375-12.30469a2.50025 2.50025 0 0 0 -4.51758-1.85157c-6.98254 10.08483-16.55559 19.31244-28.60547 24.24219-9.14784 3.74251-19.7551 5.06589-32.02539 2.38672 7.57245-1.21952 14.46074-3.48756 20.50977-6.76953a2.50025 2.50025 0 0 0 -1.5586-4.66992c-23.24032 3.45985-50.52419 2.43204-77.84179-25.38672 5.63526 2.1727 11.22948 3.58146 16.70703 4.14062a2.50025 2.50025 0 0 0 1.92383-4.34765c-37.43462-33.58089-37.13932-89.98966-13.19733-118.31058-9.38609 24.63406-8.74553 51.45843-2.67188 70.58008a2.50025 2.50025 0 0 0 4.88086-.86914c-.0474-1.06255-.0762-2.12503-.0762-3.18555 0-7.82402 1.28994-15.33917 3.66797-22.35937l-.0332.0527c.0304-.11296.0657-.24228.10351-.38281l-.0215.16406c4.68482-17.67428 14.33254-34.90513 27.32422-47.57226 12.99073-12.66623 29.22526-20.76256 47.34375-20.59961zm-7.84766 23.21484a2.50025 2.50025 0 0 0 -1.46289 4.54687c5.96459 4.18498 10.49386 10.26642 12.40235 17.54297 3.59989 13.72843-3.67475 29.33525-17.98829 33.01563-10.87074 2.7946-23.21949-3.02086-26.08007-14.44922-2.15164-8.5965 2.42895-18.34886 11.4746-20.55859 5.44258-1.3299 11.54889.86477 14.49805 5.44921a2.50025 2.50025 0 0 0 .26367.3418c.91895.99659 1.47461 2.29493 1.47461 3.75586 0 3.09537-2.45403 5.54883-5.54687 5.54883-3.09356 0-5.54883-2.45485-5.54883-5.54883 0-1.33966.46428-2.54184 1.24414-3.5a2.50025 2.50025 0 0 0 -1.61719-4.05664c-1.38627-.18048-2.81992-.1206-4.22656.22266a2.50025 2.50025 0 0 0 -.002.002c-7.72514 1.88767-11.67345 10.33126-9.80664 17.78906 2.52969 10.1069 13.5792 15.29778 23.30664 12.79688 12.9902-3.34 19.65178-17.64563 16.35156-30.23047-2.81311-10.72775-11.92881-18.76277-22.61719-21.17969a2.50025 2.50025 0 0 0 -1.07226-.008c-12.4379 2.65195-23.60251 8.72269-32.45703 17.18555a2.50025 2.50025 0 0 0 -.7168 1.27929c-4.21761 19.56326-1.18171 34.37618 6.85156 42.80274 8.24489 8.64793 22.00537 10.85941 39.53516 4.2207 18.0621-6.84306 33.00161-4.65687 41.99219 4.77344 7.04399 7.38834 10.36415 18.90246 9.13281 33.63867a2.50025 2.50025 0 0 0 4.51758 1.67578c4.5992-6.35277 8.12191-13.54051 10.29296-21.30078a2.50025 2.50025 0 0 0 .0859-.50391c.39972-5.84801.50383-13.01435-2.62305-19.60742-1.4702-3.09997-3.76309-5.971-6.89257-8.45703 2.83288 1.17346 5.23072 2.82942 7.2832 4.8125a2.50025 2.50025 0 0 0 4.2207-2.07422c-1.95273-17.57465-10.63483-33.10608-23.41601-43.94726a2.50025 2.50025 0 0 0 -4.10938 2.11328c.51948 6.24486-.30478 13.81203-3.73437 19.9707-1.80482 3.24099-4.34588 6.09479-7.81836 8.33008 3.11789-3.99886 5.17936-8.43688 6.20117-13.00195 1.88504-8.4217.75995-17.10031-1.49609-24.18946a2.50025 2.50025 0 0 0 -1.2168-1.45312c-9.17629-4.83962-19.61288-7.62275-30.67969-7.74805zm7.12305 5.51172c7.22605.90866 14.03802 3.06956 20.27148 6.22461 1.8309 6.22392 2.66558 13.6536 1.11914 20.5625-1.62857 7.27593-5.68921 13.94873-14.15625 18.61133a2.50025 2.50025 0 0 0 1.55274 4.66601c11.83389-1.66332 19.37141-7.72778 23.4668-15.08203 2.97588-5.34391 4.19871-11.26781 4.43945-16.79492 8.18413 8.34027 14.04117 18.966 16.5332 30.84765-4.16589-2.50571-9.17399-4.15595-15.15625-4.24609-1.76822-.0264-3.61172.0761-5.53516.3125a2.50025 2.50025 0 0 0 -.26367 4.91602c10.4385 2.43584 15.25214 6.99925 17.7461 12.25781 2.45416 5.17465 2.51518 11.31615 2.15234 16.84766-1.18191 4.16114-2.88569 8.07398-4.85937 11.83007-.54533-11.534-3.99209-21.27821-10.56446-28.17187-10.64494-11.16559-28.10502-13.30216-47.3789-6-16.41787 6.21761-27.49158 3.98813-34.14844-2.99414-6.32319-6.63277-9.45429-19.37315-5.7207-37.5 7.96471-7.43172 17.86111-12.79383 28.87695-15.25781 8.72855 2.16035 16.15529 8.82739 18.40234 17.39648 2.64331 10.07982-2.75671 21.54473-12.76172 24.11719-7.21364 1.85462-15.43101-2.06445-17.20898-9.16797-1.11444-4.45212 1.06763-9.26239 4.875-11.05859-.10905.60694-.31836 1.18094-.31836 1.8164 0 5.79651 4.7528 10.54883 10.54883 10.54883 5.79522 0 10.54687-4.75227 10.54687-10.54883 0-2.67771-1.04387-5.12036-2.6914-6.97656-4.25217-6.41101-12.33977-9.23218-19.73243-7.42578-11.92893 2.91408-17.9156 15.5341-15.13867 26.6289 3.57997 14.30232 18.79515 21.51846 32.17774 18.07813 17.1958-4.42148 25.8342-22.89807 21.57812-39.12891-1.5497-5.90858-4.64467-11.06141-8.65234-15.30859zm-61.71485 22.99414.0176.12695a2.50025 2.50025 0 0 0 -.70508-.0312 2.50025 2.50025 0 0 0 -.82031 1.26172l-.25781-.625-.002.004a2.50025 2.50025 0 0 0 -.71094 1.54883l-.01-.008c.00009-.003.00001-.0215 0-.0215l.36719-1.00977.002-.004.0508-.14063c-.0762.11232-.12567.24266-.20118.35547-.00016.00024-.006.01-.006.01v.002c-.00002.00006-.002.004-.002.004-4.0332 6.02862-7.14921 12.72765-9.08008 19.92382a2.50025 2.50025 0 0 0 -.082.50196c-.34317 5.82016-.26157 12.80259 2.95703 19.17578 1.42019 2.81212 3.59953 5.38783 6.40821 7.67773-2.65537-1.15374-5.02451-2.62536-6.98047-4.49804a2.50025 2.50025 0 0 0 -4.21485 2.07617c1.78574 16.5286 9.52344 31.26317 21.02735 42.0039a2.50025 2.50025 0 0 0 4.20508-1.84375c-.0387-6.0674 1.25026-12.8236 4.79492-18.25 1.65813-2.53835 3.84782-4.78212 6.63086-6.63281-2.60395 3.39866-4.39013 7.13394-5.46485 10.9707-2.17107 7.75086-1.61903 15.85847.11914 22.81836a2.50025 2.50025 0 0 0 1.14258 1.54102c9.19183 5.49832 19.8123 8.87202 31.16797 9.44336a2.50025 2.50025 0 0 0 1.57422-4.5332c-4.97897-3.54153-8.94701-8.43036-11.19531-14.28711-5.16717-13.4628.44213-30.03878 14.48437-35.35938 2.66873-1.01103 5.50009-1.4913 8.3125-1.45898 8.43698.0962 16.52273 4.7155 19.64649 13.13281 3.13529 8.44907-.40663 18.82109-9.29883 22.06836-6.24906 2.28181-13.8569-.13231-16.77539-6.2832a2.50025 2.50025 0 0 0 -.0801-.1543c-.45566-.8086-.71484-1.72684-.71484-2.71875 0-3.09508 2.45447-5.54883 5.54882-5.54883 3.09335 0 5.54883 2.45405 5.54883 5.54883 0 1.36603-.48497 2.59376-1.29492 3.56055a2.50025 2.50025 0 0 0 1.64844 4.09179c1.76757.19102 3.59859-.003 5.33789-.63867 7.6153-2.7807 10.67205-11.7811 7.94531-19.12891-3.69131-9.94541-15.45071-13.96449-25.01758-10.33984a2.50025 2.50025 0 0 0 -.002 0c-12.76366 4.83708-17.90887 20.05354-13.16406 32.41406 3.69257 9.62204 12.53164 16.51487 22.58007 18.47266l-.17382-.25195a2.50025 2.50025 0 0 0 1.09961.33593c12.55756-2.35758 23.88436-8.18421 32.93945-16.45117a2.50025 2.50025 0 0 0 .75976-1.32031c4.19063-19.5207 1.15429-34.30597-6.86718-42.7207a2.50025 2.50025 0 0 0 -.002 0c-8.24496-8.648-22.00563-10.85673-39.53515-4.21485-18.06206 6.84151-33.00153 4.65346-41.99219-4.77734-6.95535-7.29543-10.27849-18.6182-9.17578-33.09375a2.50025 2.50025 0 0 0 -.002-.004c.00011-.003.002-.0144.002-.0195l-.004.008a2.50025 2.50025 0 0 0 -.0254-.10937 2.50025 2.50025 0 0 0 .0352-.084 2.50025 2.50025 0 0 0 0-.0293 2.50025 2.50025 0 0 0 -.14649-.35547 2.50025 2.50025 0 0 0 -.48242-1.16211 2.50025 2.50025 0 0 0 -.47461-.39258 2.50025 2.50025 0 0 0 -1.04687-.43359 2.50025 2.50025 0 0 0 -.34375-.14258zm2.49024 2.70117c-.0001.003 0 .0235 0 .0234.00076-.0101.001-.0192.002-.0293l-.002.002c-.00004.00099.00003.003 0 .004zm-4.98633 9.30664c.68453 11.13781 4.14379 20.54564 10.54492 27.25977 10.64369 11.16476 28.1014 13.30372 47.37305 6.00586.002-.00076.004-.00096.006-.002a2.50025 2.50025 0 0 0 .004 0c16.41796-6.22072 27.48768-3.99394 34.14453 2.98829 6.30892 6.61823 9.43864 19.32139 5.74218 37.38671-8.12248 7.23177-18.12845 12.36141-29.21875 14.57032-8.28581-1.71992-15.59638-7.50409-18.57421-15.26368-3.81605-9.94106.38615-22.19978 10.26953-25.94531 7.14049-2.70536 15.94339.35627 18.55859 7.40235 1.72467 4.6475-.17531 10.17498-4.28125 12.23242.11411-.61997.33203-1.20532.33203-1.85547 0-5.79715-4.75333-10.54883-10.54883-10.54883-5.79603 0-10.54882 4.75197-10.54882 10.54883 0 1.84941.49527 3.59435 1.33203 5.10351 4.14835 8.61037 14.4472 11.85395 22.95312 8.74805 11.68048-4.26549 16.30274-17.63844 12.27149-28.50195-3.8971-10.50115-14.02181-16.27759-24.27539-16.39453-3.41934-.0393-6.86936.54315-10.14258 1.7832-16.82447 6.37476-23.47525 25.94952-17.38086 41.82812 1.6241 4.2307 4.08214 7.94996 7.0293 11.1875-7.33027-1.26331-14.19015-3.83191-20.4043-7.4082-1.37166-6.06288-1.71452-12.90977.0488-19.20508 1.86366-6.65336 5.91092-12.69713 13.75586-17.01757a2.50025 2.50025 0 0 0 -1.55469-4.66602c-10.84437 1.52445-18.1013 6.72824-22.36914 13.26172-3.03338 4.64368-4.56055 9.87136-5.20313 14.94531-7.16752-8.02465-12.45121-17.75639-14.71679-28.70508 5.37682 3.18227 12.23024 4.8446 20.60156 3.81641a2.50025 2.50025 0 0 0 .26367-4.91406c-10.14924-2.36833-14.97636-6.76146-17.53516-11.82813-2.51901-4.98791-2.7276-10.92017-2.42382-16.36523.99171-3.63616 2.34855-7.1088 3.94726-10.44727zm-13.91601 2.03906a2.50025 2.50025 0 0 0 -.56836.91407c.01-.0364.0332-.12113.0332-.1211-.00007.00016.53528-.79309.53516-.79297zm-.67188 1.29883a2.50025 2.50025 0 0 0 -.0391.29688c-.00071-.0461-.002-.14266-.002-.14258 0 .00004.0261-.099.041-.1543zm4.91211.1875c.0134.13616.0273.27739.0273.27735l-.0215.16406c-.002-.14961-.004-.32554-.006-.44141zm-4.94336.57422c.008.0846.0166.16799.0176.17774-.008-.0423-.0156-.0842-.0156-.084.00001.00005-.002-.0721-.002-.0937z" fill="#ffc" filter="url(#g)" stroke-linecap="round" stroke-linejoin="round" transform="matrix(.26458334 0 0 .26458334 -1.097605 3.504608)"/><path d="m68.499699 65.004732c-9.990631-.09051-17.862973 8.948789-20.402373 18.529102 0 .000169.000265.000726 0 .001-.651898 1.924479-1.005623 3.985411-1.005623 6.128308 0 .292331.0078.583268.02067.872299-1.809737-5.697586-1.760985-14.20011 2.069642-21.283973-9.032771 6.577532-10.280314 24.435634 1.056783 34.605642-2.347506-.23964-4.776391-1.01391-7.2285-2.49701 8.095731 9.96523 16.544419 10.45607 23.433712 9.43044-2.385647 1.29436-5.228396 2.04959-8.581905 1.98179 9.578324 3.8708 16.254564-.78758 20.056141-6.27817-.34708 2.00137-1.093521 4.05427-2.34456 6.12366 7.759983-6.30735 9.77322-12.828908 9.799919-18.660883.51803 5.405944-.748622 12.452853-5.703528 19.776063 14.166876-8.27204 14.557786-31.84849-4.584733-41.003191-.177041-.09329-.355555-.183503-.535885-.271302 3.583404-.03228 7.306016 1.067129 10.837582 3.942396-5.60225-9.699123-14.684005-9.39925-21.238498-6.849712 2.751167-2.083529 6.250851-3.397342 10.622608-3.308842-2.158929-.830089-4.258553-1.218933-6.271969-1.237134zm-2.090829 7.465177c2.822068.03195 5.478543.740706 7.816061 1.973523 1.136649 3.571668 1.109298 8.770744-3.691248 11.414291 5.913097-.831119 7.084197-5.815076 6.792868-9.317261 3.256837 2.762496 5.468413 6.717552 5.966044 11.196216-1.179098-1.139228-2.78523-1.92572-4.928898-1.95802-.43571-.0065-.893247.01842-1.374077.07751 5.806955 1.355066 5.981364 5.43451 5.774325 8.463566-.552968 1.976538-1.450067 3.80718-2.622062 5.426025.336454-4.026555-.568682-7.284081-2.597258-9.411828-2.597619-2.724669-6.883806-3.296535-11.823051-1.425236-4.490996 1.700787-7.776347 1.113285-9.747726-.954464-1.911896-2.005497-2.732361-5.684716-1.644861-10.729061 2.256208-2.156408 5.100222-3.702449 8.268747-4.378028 2.597407.58734 4.815004 2.552333 5.490104 5.126819.78628 2.998348-.809367 6.407573-3.851445 7.189742-2.241167.576201-4.79001-.628967-5.359879-2.905765-.411181-1.642648.471949-3.503388 2.109948-3.903638.288859-.07049.586863-.08369.876433-.04599-.298331.366537-.477491.834076-.477491 1.343587 0 1.176138.953567 2.129586 2.129586 2.129586 1.175818 0 2.129069-.953258 2.129069-2.129586 0-.55704-.215378-1.062761-.56534-1.442289-.947768-1.4733-2.841002-2.143362-4.549076-1.725993-2.774768.677841-4.172725 3.637516-3.520716 6.242513.852032 3.403957 4.498507 5.127926 7.707024 4.303097 4.168427-1.071808 6.273585-5.580757 5.234305-9.544121-.547197-2.086306-1.845167-3.825066-3.541386-5.015195zm-14.436845 7.542176h.000517c-.000264.000264-.000252.000727-.000517.001-.303328 3.960989.603507 7.168137 2.60811 9.270752 2.597607 2.724778 6.883796 3.29715 11.823051 1.42627h.000517c4.490975-1.701618 7.775822-1.114835 9.747209.952913 1.909017 2.002609 2.729483 5.674758 1.648995 10.70787-2.307319 2.1065-5.191992 3.59034-8.39122 4.19097l.0036-.0212c-2.442107-.47581-4.596107-2.16365-5.483387-4.4757-1.132529-2.950319.104053-6.585052 3.10007-7.720459 2.210247-.837409 4.930723.09931 5.765023 2.347143.602849 1.624512-.0863 3.617576-1.70894 4.210076-.359031.13124-.743593.1724-1.114661.1323.309769-.36975.497128-.84661.497128-1.366847 0-1.176329-.953665-2.129586-2.129586-2.129586-1.176127 0-2.129586.953257-2.129586 2.129586 0 .379327.100547.735347.274402 1.043867.930956 1.96204 3.306711 2.71411 5.262728 1.99988 2.721597-.99388 3.801651-4.135139 2.853572-6.690036-.9288-2.502757-3.337889-3.878023-5.810498-3.906222-.824409-.0095-1.65564.131116-2.441711.428915-4.083413 1.5472-5.705056 6.329637-4.215247 10.211263.644079 1.6778 1.779649 3.07435 3.196188 4.08193-2.894717-.14565-5.598241-1.00523-7.940085-2.40606-.876553-3.50983-.527114-8.152394 3.920692-10.60194-5.418755.761739-6.854355 5.009475-6.832659 8.40982-2.931398-2.736924-4.901698-6.488959-5.356779-10.701153 1.417679 1.357327 3.447871 2.205456 6.278687 1.857767-5.646184-1.317539-5.968726-5.212835-5.791895-8.211902.501446-1.868848 1.309062-3.6113 2.366264-5.170227.000027-.000265-.000023-.000727 0-.001z" fill="#ceb017" stroke-linecap="round" stroke-linejoin="round" stroke-width="1.32292"/><g fill-rule="evenodd" opacity=".5"><path d="m45.805731 81.310643c-2.03496-.69573-3.99248-1.77167-5.6061-3.19342-1.44243-1.2709-3.06392-2.73139-3.46294-4.61198-.0902-.42523.0874-.88751.2921-1.27096.72649-1.3605 1.95278-2.423563 3.17084-3.369628 1.6863-1.309725 3.58519-2.409621 5.6061-3.098747 6.57281-2.241325 12.37523-3.1612 20.34011-3.161044 7.96491-.000161 13.62866.919713 20.20147 3.161038 2.02088.689126 3.9198 1.789023 5.60609 3.098748 1.21807.946065 2.44436 2.009123 3.17082 3.369623.20474.38346.3823.84574.2921 1.27097-.39899 1.88058-2.02051 3.34106-3.46292 4.61197-1.61361 1.42175-3.57113 2.49769-5.60609 3.19342-6.56011 2.24285-12.25056 2.92454-20.20147 2.92441-7.95089.00014-13.78-.68155-20.34011-2.9244z" fill="#9eb8c5" opacity=".5"/><path d="m86.347311 79.842533c2.40519-1.42141 5.46915-3.54353 5.48513-6.33729.0161-2.83144-3.05652-5.030301-5.48513-6.48606-6.02115-3.609186-11.80484-4.404111-20.20147-4.414319-8.39663.01021-14.31899.805138-20.34011 4.414325-2.42861 1.455758-5.50137 3.654614-5.48516 6.486064.0161 2.79376 3.07997 4.91588 5.48516 6.33729 6.04221 3.57079 11.8482 4.38575 20.34011 4.3925 8.49191-.007 14.15923-.82173 20.20147-4.39251z" fill="url(#f)" opacity=".5"/></g></g><g><g transform="translate(-1.097605 3.504608)"><path d="m52.400186 20.363774 5.99503 14.618867c.53304 1.249855 1.21833 2.212549 2.50618 2.645833 4.40649 1.48235 9.03129 1.397315 13.36042.02791 1.40183-.443561 1.93709-1.509697 2.44718-2.888713l5.34514-14.453839s1.27488-2.846559 1.19108-4.34645c-.10908-1.952252-.83162-4.024781-2.1709-5.449393-1.56588-1.6656611-3.99536-2.3314561-6.20272-2.9264381-2.53252-.68263-5.21692-.675475-7.83983-.673859-2.64533.0016-5.36111-.0327-7.90598.689361-2.11531.600184-4.41048 1.339962-5.89318 2.9636461-1.34326 1.470991-2.12571 3.569258-2.19027 5.56024-.048 1.480987 1.35785 4.232839 1.35785 4.232839z" fill="#c36e36"/><path d="m56.808976 13.715668c-.85684.974441-1.1465 2.449269-1.0648 3.744272.10003 1.585465 1.24628 2.922606 1.86942 4.38391 1.60205 3.756954 4.80615 11.270872 4.80615 11.270872 3.47978 1.170599 6.87158 1.118722 10.40569.000794 0 0 2.78521-7.531087 4.1778-11.296637.53735-1.452978 1.5533-2.810896 1.61203-4.358939.0492-1.297136-.1986-2.782319-1.07016-3.744272-.90373-.997453-2.44365-1.180606-3.75449-1.486141-2.2014-.513115-4.49854-.549246-6.75896-.549265-2.26041-.000018-4.56506.0048-6.75896.549151-1.2194.302548-2.63409.542753-3.46372 1.486255z" fill="url(#a)"/></g><g transform="matrix(.26458334 0 0 .26458334 238.17537 -58.892264)"><g stroke-width=".999999"><path d="m-621.29387 473.02243c-14.79374.42795-26.8437 5.16205-36.44531 12.43359 3.27451-1.2737 6.72344-2.38402 10.2793-3.29297 8.89334-4.7217 19.45007-7.46429 31.86914-7.21289-1.91418-.73598-3.81493-1.37185-5.70313-1.92773zm-91.01172 13.30078c-1.74953 1.27398-3.41722 2.66603-5.00976 4.1543-11.42869 25.41708-11.1362 54.38021-4.8125 74.28906-.04864-1.0924-.07813-2.192-.07813-3.29688 0-.73586.06793-1.45495.08985-2.18554-4.63217-21.06851-3.0735-49.13487 9.81054-72.96094zm93.87696 10.12109c.68156.33184 1.35626.6728 2.02539 1.02539.66185.31653 1.27236.67054 1.92187.9961 12.94107.27867 26.30435 4.53146 39.01367 14.8789-3.81125-6.59839-8.05101-11.96675-12.58203-16.2871 3.78061 3.94799 7.33736 8.66963 10.58203 14.2871-13.34763-10.86714-27.41737-15.02239-40.96093-14.90039zm-30.76758.04297c.89691.62931 1.7555 1.30723 2.58984 2.01563 9.7806.1978 19.0258 2.53937 27.28125 6.59179-.11159-.38165-.21149-.77582-.33008-1.14843-8.8347-4.65946-18.87494-7.33823-29.54101-7.45899zm-14.4043 1.42578c-11.97551 2.55337-22.72456 8.39668-31.25195 16.54688-4.11023 19.06522-1.00926 32.97096 6.2168 40.55078.45261.47474.92489.92661 1.41406 1.35938-6.80465-7.70882-9.62812-21.36896-5.63086-39.91016 8.52739-8.15019 19.27643-13.99351 31.25195-16.54688 4.67314 1.05672 9.012 3.30293 12.56055 6.40625-3.85248-4.12822-8.94994-7.13755-14.56055-8.40625zm19.81445 3.29297c3.71956 3.95155 6.54028 8.76764 7.97461 14.23633 3.92799 14.97963-4.02853 32.02134-19.7832 36.07227-7.94249 2.04181-16.57767-.07069-22.50781-5.3711 5.85738 6.76423 15.62454 9.65476 24.50781 7.3711 15.75467-4.05093 23.71118-21.09264 19.7832-36.07227-1.68378-6.41976-5.24814-11.96805-9.97461-16.23633zm35.85352 10.66602c.96059 11.54765-2.29353 27.3509-17.97656 33.2832-1.66439 1.42662-3.55025 2.74933-5.69727 3.93164 22.3487-3.14123 26.77491-21.97824 25.67383-35.21484.94646.8028 1.86117 1.64114 2.75977 2.49609-1.51532-1.57239-3.09338-3.08264-4.75977-4.49609zm-47.4043 4.86719c.39003.46311.78126.92527 1.11328 1.4414 1.32269 1.43444 2.13672 3.34583 2.13672 5.45117 0 4.44596-3.60284 8.04883-8.04687 8.04883-1.72025 0-3.30706-.54931-4.61524-1.46875 1.45327 2.09483 3.8729 3.46875 6.61524 3.46875 4.44403 0 8.04687-3.60287 8.04687-8.04883 0-2.10534-.81403-4.01673-2.13672-5.45117-.85309-1.32613-1.91255-2.47415-3.11328-3.4414zm68.54297 1.58203c39.04054 39.52584 33.13093 102.14371-6.61914 130.42773-1.15841 1.89198-2.37417 3.78983-3.66211 5.69336 45.52163-26.58008 53.398-94.96276 10.28125-136.12109zm-81.24219.16601c-.55485.02797-1.10842.10703-1.65429.24024-6.19086 1.51275-9.52868 8.54548-7.97461 14.7539.7704 3.07797 2.50811 5.62609 4.79687 7.54493-1.2947-1.5806-2.27022-3.44079-2.79687-5.54493-1.55407-6.20842 1.78375-13.24114 7.97461-14.7539.02266-.00553.04567-.00833.06836-.01367.30663-.78548.72061-1.51694 1.24414-2.16016-.54722-.07124-1.10335-.09437-1.65821-.06641zm-35.7246 6.50586c-.00009.00103.0001.00291 0 .00391.001-.00103.00095-.00291.00195-.00391zm0 .00391c-3.99572 5.892-7.04814 12.47766-8.94336 19.54101-.46647 7.91122.0106 17.46169 7.58203 24.20899-5.66765-6.55191-6.0039-15.05419-5.58203-22.20899 1.52592-5.68697 3.81394-11.05679 6.72851-16.01171-.00023-1.79681.07009-3.63898.21485-5.5293zm100.125 23.80859c-1.15186.036-2.33941.12411-3.57032.27539 6.23113 1.45405 10.74268 3.73983 13.9961 6.52735-2.42605-2.69564-5.80126-5.03611-10.42578-6.80274zm-88.77735 12.65821c.17158.18916.3337.38759.50977.57226 9.81772 10.29836 26.01751 12.46167 44.68554 5.39063h.00196c15.86333-6.01057 27.74362-4.46462 35.3125 2.14257-.15919-.17791-.30922-.36956-.47266-.54101-7.4509-7.8151-19.8661-10.03287-36.83984-3.60156h-.00196c-17.75967 6.72697-33.27326 5.07874-43.19531-3.96289zm85.60547 2.90234c7.44152 8.04692 10.76939 20.20637 9.51563 35.21094.79916-1.10387 1.52391-2.26345 2.2539-3.41797.12051-12.72968-3.33542-23.09016-10.07031-30.1543-.54597-.57267-1.11445-1.11651-1.69922-1.63867zm-107.73633 4.1875c1.65723 15.33914 8.66712 29.02783 19.08399 39.26172-9.32101-9.98746-15.53377-22.91303-17.08399-37.26172 5.35815 5.13005 13.03133 8.33558 23.73047 7.02148-2.08404-.48631-3.97027-1.06859-5.6875-1.72851-8.79925.24188-15.32282-2.77376-20.04297-7.29297zm137.02539 9.14453c-.09405 20.54406-6.72968 43.3517-31.375 65.6582-1.06985 2.28327-2.27519 4.57372-3.66406 6.8711 20.16854-16.39309 30.06448-33.16882 34.3125-49.2168 1.24636-8.37002 1.40611-16.22106.72656-23.3125zm-62.84961.32031c-2.18795-.01957-4.39595.35328-6.48437 1.14453-11.32352 4.2913-15.99722 18.02889-11.7168 29.17969 1.43726 3.74517 3.79041 7.01909 6.69531 9.72266-1.98738-2.27306-3.60021-4.86907-4.69531-7.72266-4.28042-11.1508.39328-24.88839 11.7168-29.17969 5.89793-2.23458 12.75383-1.12156 17.38672 2.71289-3.09552-3.75187-7.94259-5.81304-12.90235-5.85742zm17.76953.41016c1.82056 2.00222 3.34262 4.3358 4.35743 7.07031 3.58328 9.6563-.49882 21.52876-10.78516 25.28516-5.4289 1.98234-11.69573.95101-16.04492-2.66016 4.23222 5.20737 11.71446 6.97169 18.04492 4.66016 10.28634-3.7564 14.36844-15.62886 10.78516-25.28516-1.3703-3.69241-3.60063-6.7259-6.35743-9.07031zm-43.875.78516c-2.85675.40158-5.41019 1.0657-7.70703 1.93554-11.35971 9.74372-12.00054 24.56599-9.11132 36.13477.58079.34741 1.183.66257 1.77539.99219-2.99956-13.13578-1.34992-30.03443 15.04296-39.0625zm31.15235 15.45507c.91713 1.30708 1.46484 2.89311 1.46484 4.61133 0 1.96625-.70812 3.76854-1.8789 5.16602 1.11218.12019 2.24488-.01415 3.34765-.29688.34108-.8916.53125-1.8581.53125-2.86914 0-2.7411-1.3725-5.15795-3.46484-6.61133zm-78.02344 17.56446c.92605.96719 1.87435 1.92263 2.85352 2.85937.05966.00627.12005.01735.17968.02344-1.04696-.93918-2.04277-1.90998-3.0332-2.88281zm-15.74219 2.92773c25.31825 26.94254 51.18773 31.07341 73.58399 29.1543 2.23334-.88962 4.38746-1.88081 6.43945-2.99414-23.62327 3.51686-52.09522 2.21891-80.02344-26.16016zm72.25977 8.32031c.92237 1.00809 1.90493 1.95674 2.9375 2.84766.20366.01215.40326.03856.60742.04883-1.24446-.88518-2.4252-1.85756-3.54492-2.89649zm51.13086 1.60157c-13.62941 19.68486-37.04194 36.51705-70.3125 25.71093-1.1488.02936-2.30801.04148-3.49024.01758 33.34784 13.47656 57.37935-.40574 72.19336-18.89844.6721-2.29143 1.21741-4.56988 1.60938-6.83007z" fill="#e3e5e8" opacity=".5"/><path d="m-235.24023 17.787109-4.4961.01367-10.32812.01172-10.25.01172a1.3187171 1.3187171 0 0 0 -.002 0l-4.57812.01367a1.3187171 1.3187171 0 0 0 -1.20899 1.835937l5.44141 12.757813c1.65375 5.135477 2.06393 10.427569-1.25 15.101562-3.48982 4.921834-9.15246 9.324735-13.92578 14.390625-4.7628 5.055919-8.58594 10.663585-8.58594 17.88086 0 18.958286 15.34484 34.455082 34.29883 34.455082 18.95523 0 34.45508-15.500783 34.45508-34.455082 0-7.212491-3.66674-12.945157-8.3418-18.058594-4.68223-5.121997-10.33021-9.53528-14.13476-14.167969-2.59571-3.160761-2.63509-7.605501-1.64063-12.367187l5.78715-15.648436a1.3187171 1.3187171 0 0 0 -1.24023-1.775391z" fill="#7f8899" opacity=".15" transform="matrix(3.7795275 0 0 3.7795275 294.8676 240.39681)"/><path d="m-725.97342 306.87834c7.06269 19.35528 18.39628 39.14532 24.6858 57.69843 6.28769 18.55311 7.7574 34.42433-2.67682 49.14136-11.66169 16.44835-32.895 33.27693-51.67831 53.21616-18.78327 19.9392-35.42509 43.92253-35.42509 75.08537 0 77.57118 62.96579 141.17466 140.58039 141.17466 77.61382 0 141.17462-63.56171 141.17462-141.17466 0-30.98978-15.884-55.38912-34.3936-75.63691-18.5088-20.24784-39.9356-37.14373-53.0491-53.11302-7.8256-9.52717-6.8905-29.09983-.7502-50.25127 6.1395-21.15143 16.4228-42.65493 22.0858-55.70025 9.8623-21.36952-26.6499-6.56781-31.7903-5.49716-14.31791 2.6163-28.99079 3.23165-43.54579 3.22353-14.339-.008-28.78061-.70156-42.89613-3.22353-16.10868-5.85393-37.97087-10.94081-32.32127 5.05729zm131.76049 5.72906-22.04111 59.6015c-3.94518 18.72276-4.09179 37.44042 7.18632 51.17367 14.91309 18.15923 36.30319 34.82498 53.60319 53.74979 17.3008 18.92307 30.22 39.30474 30.22 64.88647 0 68.92373-56.3174 125.24455-125.24462 125.24455-68.9246 0-124.6478-56.27565-124.6478-125.24455 0-25.52976 13.42972-45.41525 31.08953-64.1619 17.66309-18.74573 39.24759-35.42002 53.07719-54.92446 13.7111-19.33826 11.8936-41.42994 5.36201-61.63685l-20.68263-48.49945s12.98922 4.35882 19.70423 5.59399c11.95717 2.19943 24.17699 3.18298 36.33479 3.17634 12.36438-.007 24.80439-.94841 36.94888-3.27072 6.52162-1.24711 19.09002-5.68838 19.09002-5.68838z" fill="#7f8899"/></g><path d="m68.499699 65.004732c-9.990631-.09051-17.862973 8.948789-20.402373 18.529102 0 .000169.000265.000726 0 .001-.651898 1.924479-1.005623 3.985411-1.005623 6.128308 0 .292331.0078.583268.02067.872299-1.809737-5.697586-1.760985-14.20011 2.069642-21.283973-9.032771 6.577532-10.280314 24.435634 1.056783 34.605642-2.347506-.23964-4.776391-1.01391-7.2285-2.49701 8.095731 9.96523 16.544419 10.45607 23.433712 9.43044-2.385647 1.29436-5.228396 2.04959-8.581905 1.98179 9.578324 3.8708 16.254564-.78758 20.056141-6.27817-.34708 2.00137-1.093521 4.05427-2.34456 6.12366 7.759983-6.30735 9.77322-12.828908 9.799919-18.660883.51803 5.405944-.748622 12.452853-5.703528 19.776063 14.166876-8.27204 14.557786-31.84849-4.584733-41.003191-.177041-.09329-.355555-.183503-.535885-.271302 3.583404-.03228 7.306016 1.067129 10.837582 3.942396-5.60225-9.699123-14.684005-9.39925-21.238498-6.849712 2.751167-2.083529 6.250851-3.397342 10.622608-3.308842-2.158929-.830089-4.258553-1.218933-6.271969-1.237134zm-2.090829 7.465177c2.822068.03195 5.478543.740706 7.816061 1.973523 1.136649 3.571668 1.109298 8.770744-3.691248 11.414291 5.913097-.831119 7.084197-5.815076 6.792868-9.317261 3.256837 2.762496 5.468413 6.717552 5.966044 11.196216-1.179098-1.139228-2.78523-1.92572-4.928898-1.95802-.43571-.0065-.893247.01842-1.374077.07751 5.806955 1.355066 5.981364 5.43451 5.774325 8.463566-.552968 1.976538-1.450067 3.80718-2.622062 5.426025.336454-4.026555-.568682-7.284081-2.597258-9.411828-2.597619-2.724669-6.883806-3.296535-11.823051-1.425236-4.490996 1.700787-7.776347 1.113285-9.747726-.954464-1.911896-2.005497-2.732361-5.684716-1.644861-10.729061 2.256208-2.156408 5.100222-3.702449 8.268747-4.378028 2.597407.58734 4.815004 2.552333 5.490104 5.126819.78628 2.998348-.809367 6.407573-3.851445 7.189742-2.241167.576201-4.79001-.628967-5.359879-2.905765-.411181-1.642648.471949-3.503388 2.109948-3.903638.288859-.07049.586863-.08369.876433-.04599-.298331.366537-.477491.834076-.477491 1.343587 0 1.176138.953567 2.129586 2.129586 2.129586 1.175818 0 2.129069-.953258 2.129069-2.129586 0-.55704-.215378-1.062761-.56534-1.442289-.947768-1.4733-2.841002-2.143362-4.549076-1.725993-2.774768.677841-4.172725 3.637516-3.520716 6.242513.852032 3.403957 4.498507 5.127926 7.707024 4.303097 4.168427-1.071808 6.273585-5.580757 5.234305-9.544121-.547197-2.086306-1.845167-3.825066-3.541386-5.015195zm-14.436845 7.542176h.000517c-.000264.000264-.000252.000727-.000517.001-.303328 3.960989.603507 7.168137 2.60811 9.270752 2.597607 2.724778 6.883796 3.29715 11.823051 1.42627h.000517c4.490975-1.701618 7.775822-1.114835 9.747209.952913 1.909017 2.002609 2.729483 5.674758 1.648995 10.70787-2.307319 2.1065-5.191992 3.59034-8.39122 4.19097l.0036-.0212c-2.442107-.47581-4.596107-2.16365-5.483387-4.4757-1.132529-2.950319.104053-6.585052 3.10007-7.720459 2.210247-.837409 4.930723.09931 5.765023 2.347143.602849 1.624512-.0863 3.617576-1.70894 4.210076-.359031.13124-.743593.1724-1.114661.1323.309769-.36975.497128-.84661.497128-1.366847 0-1.176329-.953665-2.129586-2.129586-2.129586-1.176127 0-2.129586.953257-2.129586 2.129586 0 .379327.100547.735347.274402 1.043867.930956 1.96204 3.306711 2.71411 5.262728 1.99988 2.721597-.99388 3.801651-4.135139 2.853572-6.690036-.9288-2.502757-3.337889-3.878023-5.810498-3.906222-.824409-.0095-1.65564.131116-2.441711.428915-4.083413 1.5472-5.705056 6.329637-4.215247 10.211263.644079 1.6778 1.779649 3.07435 3.196188 4.08193-2.894717-.14565-5.598241-1.00523-7.940085-2.40606-.876553-3.50983-.527114-8.152394 3.920692-10.60194-5.418755.761739-6.854355 5.009475-6.832659 8.40982-2.931398-2.736924-4.901698-6.488959-5.356779-10.701153 1.417679 1.357327 3.447871 2.205456 6.278687 1.857767-5.646184-1.317539-5.968726-5.212835-5.791895-8.211902.501446-1.868848 1.309062-3.6113 2.366264-5.170227.000027-.000265-.000023-.000727 0-.001z" fill="#7f8899" opacity=".9" stroke-width=".264583" transform="matrix(3.7795275 0 0 3.7795275 -900.19035 222.58493)"/></g></g></g></svg>