<svg height="500" viewBox="0 0 132.29167 132.29167" width="500" xmlns="http://www.w3.org/2000/svg" xmlns:xlink="http://www.w3.org/1999/xlink"><radialGradient id="a" cx="494.25363" cy="332.55859" gradientTransform="matrix(-.33462355 .12958228 -.13250235 -.34220148 276.54747 68.068365)" gradientUnits="userSpaceOnUse" r="43.257179"><stop offset="0" stop-color="#deaa87"/><stop offset="1" stop-color="#d38d5f"/></radialGradient><linearGradient id="b"><stop offset="0" stop-color="#9f20df"/><stop offset="1" stop-color="#8d22c3"/></linearGradient><linearGradient id="c" gradientUnits="userSpaceOnUse" spreadMethod="reflect" x1="86.59053476772" x2="75.54925238535" xlink:href="#b" y1="88.75267349732" y2="96.00122090496"/><linearGradient id="d" gradientUnits="userSpaceOnUse" x1="40.2393460002" x2="91.95340863657" xlink:href="#b" y1="68.70931535996" y2="78.11721101368"/><linearGradient id="e" gradientUnits="userSpaceOnUse" x1="40.2393460002" x2="91.95340863657" y1="68.70931535996" y2="78.11721101368"><stop offset="0" stop-color="#fff"/><stop offset="1" stop-color="#ecf5f9"/></linearGradient><filter id="f" color-interpolation-filters="sRGB" height="1.284048" width="1.242028" x="-.121014" y="-.142024"><feGaussianBlur stdDeviation="3.9237674"/></filter><filter id="g" color-interpolation-filters="sRGB" height="1.03575" width="1.039431" x="-.019715" y="-.017875"><feGaussianBlur stdDeviation="2.1029663"/></filter><filter id="h" color-interpolation-filters="sRGB" height="1.04126" width="1.034368" x="-.017184" y="-.02063"><feGaussianBlur stdDeviation="1.7737198"/></filter><g><g fill="#7f8899"><path d="m80.95219 22.499836-4.4961.01367-10.32812.01172-10.25.01172a1.3187171 1.3187171 0 0 0 -.002 0l-4.57812.01367a1.3187171 1.3187171 0 0 0 -1.20899 1.835937l5.44141 12.757813c1.65375 5.135477 2.06393 10.427569-1.25 15.101562-3.48982 4.921834-9.15246 9.324735-13.92578 14.390625-4.7628 5.055919-8.58594 10.663585-8.58594 17.88086 0 18.958287 15.34484 34.455087 34.29883 34.455087 18.95523 0 34.45508-15.50079 34.45508-34.455087 0-7.212491-3.66674-12.945157-8.3418-18.058594-4.68223-5.121997-10.33021-9.53528-14.13476-14.167969-2.59571-3.160761-2.63509-7.605501-1.64063-12.367187l5.78715-15.648436a1.3187171 1.3187171 0 0 0 -1.24023-1.775391z" opacity=".15" stroke-width=".999999"/><path d="m46.094898 22.302632c1.86867 5.121085 4.867349 10.3572 6.531451 15.266043 1.663618 4.908844 2.052479 9.108105-.708242 13.001986-3.085489 4.351959-8.703469 8.804521-13.67322 14.080109-4.96974 5.27558-9.372888 11.62117-9.372888 19.866338 0 20.524042 16.659699 37.352462 37.195229 37.352462 20.535324 0 37.352452-16.81737 37.352452-37.352462 0-8.19938-4.202641-14.655038-9.099973-20.012266-4.89712-5.357241-10.566295-9.827612-14.035908-14.052821-2.070524-2.52073-1.823112-7.69933-.198491-13.295648 1.62441-5.596316 4.3452-11.285784 5.843535-14.737359 2.6094-5.654019-7.05112-1.737733-8.411184-1.454457-3.78828.69223-7.67048.855041-11.52149.852893-3.793861-.0021-7.61487-.185621-11.349602-.852893-4.262088-1.548852-10.046459-2.894756-8.551669 1.338075zm34.86163 1.515814-5.83171 15.769564c-1.043829 4.95373-1.08262 9.906111 1.90138 13.5397 3.945756 4.80463 9.60522 9.21411 14.182511 14.221299 4.577504 5.006729 7.995709 10.39938 7.995709 17.167879 0 18.236072-14.900646 33.137622-33.13764 33.137622-18.236301 0-32.979731-14.8896-32.979731-33.137622 0-6.754749 3.55328-12.016118 8.225771-16.976169 4.67336-4.959808 10.384259-9.371548 14.043341-14.532097 3.627728-5.116582 3.146848-10.961672 1.418698-16.308084l-5.472279-12.832147s3.436731 1.153272 5.213411 1.480077c3.163668.581932 6.396829.842163 9.61358.840407 3.271409-.0019 6.562828-.250934 9.776058-.865378 1.725512-.329965 5.050901-1.505051 5.050901-1.505051z" stroke-width=".264583"/></g><g><g><path d="m39.425781 62.367188c-6.441414 4.6905-11.901442 12.665295-12.073436 20.631663-.282184 13.070065 7.234505 27.757669 18.328948 34.672839 10.977208 6.8421 27.212217 6.94688 38.787161 1.17331 10.396489-5.18575 17.427776-17.16116 20.114616-28.464249 1.42573-5.99779.10905-12.821739-2.73508-18.291392-2.423449-4.660625-6.767204-8.42174-11.420498-10.859238-6.355708-3.32926-13.942134-3.59991-21.074681-4.378219-1.556405-.169836-3.139126-.219045-4.696561-.05893-8.567807.88082-18.267855.50419-25.230469 5.574217z" fill="#9f20df" filter="url(#f)" opacity=".75"/><path d="m99.204415 84.516883c0 18.236057-14.900644 33.137617-33.137604 33.137617-18.2363 0-32.97976-14.88961-32.97976-33.137617 0-4.67889 1.34094-8.6406 3.94174-12.2826.72649-1.3605 1.95278-2.423563 3.17084-3.369625 1.6863-1.309728 3.58519-2.409622 5.6061-3.098748 6.57281-2.241325 12.37523-3.161202 20.34011-3.161043 7.96491-.000164 13.62866.919713 20.20147 3.161035 2.02088.689129 3.9198 1.789023 5.60609 3.09875 1.21807.946063 2.44436 2.009121 3.17093 3.369761 2.47862 3.66128 4.080084 7.64957 4.080084 12.28247z" fill="url(#c)"/><g fill-rule="evenodd"><path d="m45.805731 81.310643c-2.03496-.69573-3.99248-1.77167-5.6061-3.19342-1.44243-1.2709-3.06392-2.73139-3.46294-4.61198-.0902-.42523.0874-.88751.2921-1.27096.72649-1.3605 1.95278-2.423563 3.17084-3.369628 1.6863-1.309725 3.58519-2.409621 5.6061-3.098747 6.57281-2.241325 12.37523-3.1612 20.34011-3.161044 7.96491-.000161 13.62866.919713 20.20147 3.161038 2.02088.689126 3.9198 1.789023 5.60609 3.098748 1.21807.946065 2.44436 2.009123 3.17082 3.369623.20474.38346.3823.84574.2921 1.27097-.39899 1.88058-2.02051 3.34106-3.46292 4.61197-1.61361 1.42175-3.57113 2.49769-5.60609 3.19342-6.56011 2.24285-12.25056 2.92454-20.20147 2.92441-7.95089.00014-13.78-.68155-20.34011-2.9244z" fill="#7112a1"/><path d="m86.347311 79.842533c2.40519-1.42141 5.46915-3.54353 5.48513-6.33729.0161-2.83144-3.05652-5.030301-5.48513-6.48606-6.02115-3.609186-11.80484-4.404111-20.20147-4.414319-8.39663.01021-14.31899.805138-20.34011 4.414325-2.42861 1.455758-5.50137 3.654614-5.48516 6.486064.0161 2.79376 3.07997 4.91588 5.48516 6.33729 6.04221 3.57079 11.8482 4.38575 20.34011 4.3925 8.49191-.007 14.15923-.82173 20.20147-4.39251z" fill="url(#d)"/></g></g><path d="m221.76953 225.08594c-1.68232.19664-3.34796.41167-5 .64453v14.2793c-.00063 2.04481 2.32004 3.22568 3.97266 2.02148 10.03143-7.30536 21.47197-11.48242 33.69336-11.48242 12.21134 0 23.63786 4.17235 33.66406 11.46679 1.65236 1.20156 3.97017.0216 3.9707-2.02148v-14.15039c-1.65149-.24172-3.31784-.46548-5-.66992v10.31445c-9.8354-6.20849-20.86185-9.93945-32.63476-9.93945-11.78224 0-22.82283 3.73498-32.66602 9.95312zm-8.63086 1.18359c-1.67724.26697-3.34278.55653-5 .86328v19.26563c-3.07899 3.12581-5.98618 6.50769-8.64844 10.17968-11.79184 16.26279-19.42876 37.53583-21.25976 61.09571-6.66402 2.65327-13.52028 4.48658-19.48047 4.98437h-28.4707c.22 1.67711.47419 3.34415.75976 5h27.87305c.0684.00014.13686-.003.20508-.008 7.0631-.58361 14.89397-2.68356 22.4082-5.82812.8749-.3663 1.4672-1.19613 1.5293-2.14258 1.53041-23.36828 9.03447-44.37949 20.48242-60.16797 2.7265-3.76062 5.69232-7.22349 8.85937-10.35742.47483-.46956.74208-1.10956.74219-1.77735zm82.55078.13477v20.93164c.00012.66779.26737 1.30778.74219 1.77734 3.18245 3.14502 6.16336 6.62166 8.90234 10.39844 11.44481 15.78429 18.93634 36.79016 20.4668 60.1543.0618.94435.65143 1.7729 1.52344 2.14062 7.49458 3.1569 15.32939 5.25969 22.39844 5.84375.0682.005.13663.008.20507.008h27.3086c.28867-1.6557.54514-3.32312.76758-5h-27.91407c-5.9658-.49823-12.82154-2.33506-19.46484-4.99609-1.8302-23.55478-9.45432-44.82384-21.24414-61.08399-2.67559-3.68934-5.59643-7.085-8.69141-10.22265v-19.05859c-1.65728-.31761-3.32393-.61591-5-.89258zm-41.2539 7.53906c-13.50703 0-26.20085 5.50239-36.83985 15.06836-.52725.47429-.82827 1.15018-.82812 1.85937v38.50586c.0486.0529.0994.10378.15234.15235.0601 7.57812 4.55319 15.13906 11.33789 20.9082 6.8304 5.80799 16.11144 9.84961 26.16211 9.84961 9.60168.006 18.51439-3.63143 25.27735-8.9668 6.76341-5.33572 11.48679-12.38691 12.35546-19.65234.0118-.0985.0176-.19766.0176-.29688v-40.51171c.00015-.70919-.30086-1.38509-.82812-1.85938-10.63137-9.55765-23.30583-15.05664-36.80664-15.05664zm0 5c11.82296 0 22.94227 4.7093 32.63476 13.14062v39.0586c-.67676 5.44663-4.54633 11.57815-10.4707 16.25195-5.9486 4.69293-13.84951 7.89785-22.17773 7.89258h-.002c-8.69907 0-16.92899-3.56236-22.92187-8.6582-5.99289-5.09586-9.59961-11.6764-9.59961-17.25196-.042-.0452-.0856-.0889-.13086-.13086v-37.15039c9.69943-8.43831 20.83911-13.15234 32.66797-13.15234zm-.0293 3.42187c-15.90347 0-29.17773 15.89392-29.17773 35.99219 0 20.09825 13.27243 36.00781 29.17773 36.00781 15.90531 0 29.17773-15.90956 29.17773-36.00781 0-20.09827-13.27427-35.99219-29.17773-35.99219zm0 5c12.5034 0 24.17773 13.08188 24.17773 30.99219 0 17.91028-11.67616 31.00781-24.17773 31.00781-12.50156 0-24.17773-13.09753-24.17773-31.00781 0-17.91031 11.67432-30.99219 24.17773-30.99219zm43.7832 10.23047c-1.38065.00014-2.49986 1.11935-2.5 2.5l.002 29.28125c.0462.0501.0944.0983.14453.14453.0873 11.126 10.06763 20.75761 22.16797 27.68555 1.77022 1.01344 3.9437-.40517 3.72851-2.43359-2.1928-20.7502-9.20972-39.29797-19.40039-53.35156h.002c-.71474-.98703-1.4421-1.94239-2.18164-2.87696-.47418-.59952-1.19655-.9492-1.96093-.94922zm-87.55273.041c-.77872.25056-1.38562.86621-1.625 1.64844l-.33789-.69727c-.72364.91639-1.4427 1.85482-2.15039 2.83008v.002c-10.19983 14.06701-17.22631 32.63626-19.41211 53.41016-.21132 2.02167 1.94999 3.43718 3.71875 2.43554 11.39957-6.4651 20.90156-15.21689 22.28711-25.50585.0146-.11072.0218-.2223.0215-.33399v-31.28906c-.0173-.0178-.0349-.0354-.0527-.0527-.0291-1.33826-1.10705-2.41622-2.44532-2.44531zm90.05273 10.60937c7.38202 11.42254 12.71266 25.6188 15.14063 41.49024-8.83095-6.11057-15.00977-13.53184-15.00977-20.35938l-.1289-2.5zm-92.55078.041v22.89258c-.8951 6.31084-6.91318 13.07056-15.13867 18.68554 2.41596-15.90372 7.74944-30.13048 15.13867-41.57812zm84.35938 45.07617c-9.70857-.003-19.24428 4.03242-28.61328 12.22852-.51571.45133-.82356 1.09455-.85157 1.77929l-.14453 3.52344c-.0308.75757.28389 1.48818.85547 1.98633 9.63697 8.40134 19.3595 12.46931 29.16797 12.42187 10.38927-.0517 21.16519-4.71767 32.31641-14.02734 1.20298-1.0035 1.19735-2.85344-.0117-3.84961-11.42419-9.41452-22.32352-14.05624-32.71875-14.06055l.082.20118c-.44089.007-.87214.13014-1.25.35742zm-78.68946.002c-10.43147-.003-20.65246 4.64895-30.71289 14.12891-1.05121.9907-1.04686 2.66351.01 3.64844 10.28562 9.58545 20.64049 14.21135 31.10351 14.16015 9.9142-.048 20.19177-4.31751 30.79102-12.78711.62564-.49957.97419-1.26857.9375-2.06835l-.11523-2.5c-.0334-.72541-.38056-1.40046-.95118-1.84961-10.81437-8.51372-21.16778-12.72812-31.06054-12.73243zm76.89453.85938c-.0147.0614-.0271.12325-.0371.18555l-.1211-.10938zm3.51954 3.31055.0391.0918-.082-.0723c.0144-.006.0287-.0129.043-.0195zm-1.73047.82812.002.002c8.1703.003 17.12689 3.55223 26.91406 11.00196-9.5378 7.33986-18.36067 10.89496-26.51953 10.93554-8.1416.0394-16.29913-3.21804-24.95117-10.5l.0449-1.0625c8.42608-7.13918 16.42908-10.37825 24.50977-10.37695zm-78.68555.002h.002c8.20345.004 17.16878 3.47457 27.00977 10.99415-9.59269 7.40971-18.44222 10.90368-26.63281 10.94335-8.28944.0406-16.62316-3.43557-25.4375-10.99804 8.60723-7.45592 16.80869-10.94161 25.05859-10.93946zm1.25391.39063c-5.72318 0-10.47071 4.60056-10.47071 10.27539 0 5.67453 4.75179 10.26367 10.47071 10.26367 5.71887 0 10.48632-4.58305 10.48633-10.26367 0-5.68103-4.76304-10.27539-10.48633-10.27539zm78.70312 0c-5.72379 0-10.46875 4.60166-10.46875 10.27539 0 5.67379 4.74988 10.26367 10.46875 10.26367 5.71857 0 10.46875-4.58971 10.46875-10.26367 0-5.67455-4.74607-10.27539-10.46875-10.27539zm-78.70312 5c3.08426 0 5.48632 2.37872 5.48633 5.27539 0 2.89534-2.39855 5.26367-5.48633 5.26367-3.08786 0-5.47071-2.36224-5.47071-5.26367 0-2.90203 2.38712-5.27539 5.47071-5.27539zm78.70312 0c3.08311 0 5.46875 2.37224 5.46875 5.27539 0 2.902-2.38153 5.26367-5.46875 5.26367-3.08779 0-5.46875-2.3615-5.46875-5.26367 0-2.90314 2.38401-5.27539 5.46875-5.27539zm-162.09375 7.29687c.33767 1.67959.71515 3.34517 1.11914 5h25.24414c6.16098.41665 13.35729 2.30248 20.33203 5.0918 2.05302 22.91186 9.60514 43.58446 21.125 59.4707 2.66201 3.67166 5.56826 7.05407 8.64649 10.17969v11.93555c1.64831.6541 3.31806 1.26695 5 1.85156v-14.76562c-.00011-.66779-.26736-1.30779-.74219-1.77735-3.16593-3.13322-6.13069-6.59649-8.85742-10.35742-11.18784-15.42835-18.60885-35.84886-20.36914-58.58203-.0724-.93351-.66035-1.74833-1.52344-2.11133-7.83151-3.28958-16.0137-5.44147-23.31445-5.92969-.0553-.004-.11063-.006-.16602-.006zm218.99219 0c-.056.00012-.11206.002-.16797.006-7.30539.49059-15.48108 2.64543-23.28711 5.94727-.86021.36439-1.44552 1.17796-1.51758 2.10937-1.75939 22.72681-9.17253 43.14148-20.35742 58.56641-2.73993 3.77802-5.71703 7.25643-8.89844 10.40039-.47482.46956-.74207 1.10956-.74218 1.77735v14.34374c1.68353-.60079 3.35009-1.23607 5-1.90624v-11.45899c3.09493-3.1385 6.01299-6.53484 8.6875-10.22266 11.51795-15.88426 19.062-36.55263 21.11328-59.45898 6.94796-2.79687 14.13712-4.68482 20.30273-5.10352h24.67383c.40817-1.65463.78766-3.32069 1.12891-5zm-96.24219 7.41016-.002.002c-10.05079.006-19.32967 4.04944-26.16016 9.85938-6.78594 5.77205-11.28125 13.33674-11.33984 20.91601-.0515.0474-.10106.0969-.14844.14844v36.93164c-.00015.70919.30087 1.38509.82813 1.85938 10.63863 9.56705 23.32859 15.07226 36.83593 15.07226 13.4998 0 26.17838-5.49783 36.81055-15.05664.52725-.47429.82828-1.15018.82813-1.85937v-38.94141c.00003-.0992-.006-.19835-.0176-.29687-.86923-7.2654-5.59398-14.31621-12.35742-19.6543-6.76346-5.3381-15.67516-8.98047-25.27735-8.98047zm-64.7793 2.80664c-1.35375.0734-2.53475 1.26883-2.35351 2.79688 2.38834 20.08622 9.31629 38.02562 19.23633 51.70703.70897.9782 1.43035 1.91844 2.15429 2.83398 1.47049 1.8584 4.46032.81902 4.46094-1.55078v-29.7168c.00021-.11103-.007-.22195-.0215-.33203-1.37542-10.2396-10.79141-18.95145-22.10938-25.4082-.44564-.25394-.91593-.35456-1.36719-.33008zm129.06446.0859c-.30204.0467-.59581.14964-.86524.30469-12.01778 6.92121-21.91685 16.50935-22.0039 27.58398-.0501.0462-.0983.0944-.14453.14453v27.70899c.002 2.3688 2.99106 3.40643 4.46093 1.54882.73648-.93225 1.46595-1.88507 2.18164-2.87304h-.002c9.91114-13.6676 16.8442-31.58625 19.23828-51.65039.15223-1.27849-.69135-2.46355-1.94922-2.73828-.30367-.0664-.61397-.076-.91601-.0293zm-64.28125 2.10742c8.32705.001 16.22742 3.20951 22.17578 7.9043 5.92506 4.67639 9.79548 10.80913 10.47266 16.25586v37.48828c-9.69289 8.43181-20.8166 13.14062-32.63868 13.14062-11.82851 0-22.96449-4.7163-32.66406-13.15625v-35.58008c.0438-.0408.0862-.0831.12695-.12695 0-5.5752 3.60608-12.15782 9.59961-17.25586 5.99354-5.09803 14.2259-8.6627 22.92579-8.66797zm-61.16992 5.60547c8.0973 5.58189 14.00048 12.26622 14.88476 18.51562v21.33985c-7.12429-11.03151-12.34341-24.64333-14.88476-39.85547zm122.33398.13086c-2.55382 15.17812-7.7774 28.76071-14.89648 39.76758v-19.44922c.0445-.0414.0875-.0844.1289-.12891 0-6.76255 6.06765-14.10976 14.76758-20.18945zm-96.16211 65.48633c-1.34986-.08-2.65478.96641-2.6543 2.5v8.60547c1.65114.5169 3.32009.99249 5 1.4414v-5.53906c8.24178 5.20679 17.33082 8.63736 26.98438 9.62695 1.69023.0684 3.38668.11328 5.09375.11328 2.36025 0 4.70428-.0728 7.0332-.20312 9.35694-1.09072 18.17384-4.46533 26.18946-9.52539v5.22461c1.68056-.46488 3.34811-.96335 5-1.4961v-8.23437c-.00052-2.04306-2.31834-3.22306-3.97071-2.02149-10.02616 7.29489-21.45537 11.46875-33.66601 11.46875-12.22138 0-23.66039-4.17706-33.69141-11.48242-.41316-.30105-.86841-.45183-1.31836-.47851z" fill="#9f20df" filter="url(#h)" stroke-linecap="round" stroke-linejoin="round" transform="matrix(.26458334 0 0 .26458334 -1.097605 3.504608)"/><g fill-rule="evenodd" opacity=".5"><path d="m45.805731 81.310643c-2.03496-.69573-3.99248-1.77167-5.6061-3.19342-1.44243-1.2709-3.06392-2.73139-3.46294-4.61198-.0902-.42523.0874-.88751.2921-1.27096.72649-1.3605 1.95278-2.423563 3.17084-3.369628 1.6863-1.309725 3.58519-2.409621 5.6061-3.098747 6.57281-2.241325 12.37523-3.1612 20.34011-3.161044 7.96491-.000161 13.62866.919713 20.20147 3.161038 2.02088.689126 3.9198 1.789023 5.60609 3.098748 1.21807.946065 2.44436 2.009123 3.17082 3.369623.20474.38346.3823.84574.2921 1.27097-.39899 1.88058-2.02051 3.34106-3.46292 4.61197-1.61361 1.42175-3.57113 2.49769-5.60609 3.19342-6.56011 2.24285-12.25056 2.92454-20.20147 2.92441-7.95089.00014-13.78-.68155-20.34011-2.9244z" fill="#9eb8c5" opacity=".5"/><path d="m86.347311 79.842533c2.40519-1.42141 5.46915-3.54353 5.48513-6.33729.0161-2.83144-3.05652-5.030301-5.48513-6.48606-6.02115-3.609186-11.80484-4.404111-20.20147-4.414319-8.39663.01021-14.31899.805138-20.34011 4.414325-2.42861 1.455758-5.50137 3.654614-5.48516 6.486064.0161 2.79376 3.07997 4.91588 5.48516 6.33729 6.04221 3.57079 11.8482 4.38575 20.34011 4.3925 8.49191-.007 14.15923-.82173 20.20147-4.39251z" fill="url(#e)" opacity=".5"/></g></g><g><g transform="translate(-1.097605 3.504608)"><path d="m52.400186 20.363774 5.99503 14.618867c.53304 1.249855 1.21833 2.212549 2.50618 2.645833 4.40649 1.48235 9.03129 1.397315 13.36042.02791 1.40183-.443561 1.93709-1.509697 2.44718-2.888713l5.34514-14.453839s1.27488-2.846559 1.19108-4.34645c-.10908-1.952252-.83162-4.024781-2.1709-5.449393-1.56588-1.6656611-3.99536-2.3314561-6.20272-2.9264381-2.53252-.68263-5.21692-.675475-7.83983-.673859-2.64533.0016-5.36111-.0327-7.90598.689361-2.11531.600184-4.41048 1.339962-5.89318 2.9636461-1.34326 1.470991-2.12571 3.569258-2.19027 5.56024-.048 1.480987 1.35785 4.232839 1.35785 4.232839z" fill="#c36e36"/><path d="m56.808976 13.715668c-.85684.974441-1.1465 2.449269-1.0648 3.744272.10003 1.585465 1.24628 2.922606 1.86942 4.38391 1.60205 3.756954 4.80615 11.270872 4.80615 11.270872 3.47978 1.170599 6.87158 1.118722 10.40569.000794 0 0 2.78521-7.531087 4.1778-11.296637.53735-1.452978 1.5533-2.810896 1.61203-4.358939.0492-1.297136-.1986-2.782319-1.07016-3.744272-.90373-.997453-2.44365-1.180606-3.75449-1.486141-2.2014-.513115-4.49854-.549246-6.75896-.549265-2.26041-.000018-4.56506.0048-6.75896.549151-1.2194.302548-2.63409.542753-3.46372 1.486255z" fill="url(#a)"/></g><path d="m80.95219 22.499836-4.4961.01367-10.32812.01172-10.25.01172a1.3187171 1.3187171 0 0 0 -.002 0l-4.57812.01367a1.3187171 1.3187171 0 0 0 -1.20899 1.835937l5.44141 12.757813c1.65375 5.135477 2.06393 10.427569-1.25 15.101562-3.48982 4.921834-9.15246 9.324735-13.92578 14.390625-4.7628 5.055919-8.58594 10.663585-8.58594 17.88086 0 18.958287 15.34484 34.455087 34.29883 34.455087 18.95523 0 34.45508-15.50079 34.45508-34.455087 0-7.212491-3.66674-12.945157-8.3418-18.058594-4.68223-5.121997-10.33021-9.53528-14.13476-14.167969-2.59571-3.160761-2.63509-7.605501-1.64063-12.367187l5.78715-15.648436a1.3187171 1.3187171 0 0 0 -1.24023-1.775391z" fill="#7f8899" opacity=".15" stroke-width=".999999"/><path d="m56.91746 43.026664c-.772017.09939-1.531558.214779-2.283582.344165v25.585599c-.864401.855361-1.672431 1.799289-2.414323 2.822567-3.111767 4.291606-5.131418 9.966603-5.543847 16.264124-1.933179.809-3.949972 1.346033-5.727816 1.492932h-8.833407c.113621.748972.253723 1.489198.416512 2.221054h8.218974c1.833979.122642 3.94167.67257 5.956226 1.51877.474418 6.126863 2.472243 11.642975 5.513358 15.836765.741892 1.02328 1.549651 1.96733 2.413807 2.82256v5.04483c.749034.27859 1.510999.53017 2.284615.75448v-3.84955c2.751068 2.00353 5.918979 3.16466 9.303825 3.16466 3.382045 0 6.546975-1.16047 9.29659-3.16105v3.75861c.7722-.23117 1.532702-.49007 2.280481-.77515v-4.92546c.868544-.85832 1.679357-1.80625 2.424658-2.83393 3.040385-4.19296 5.036086-9.707556 5.510259-15.832631 2.006993-.848928 4.112764-1.399664 5.947957-1.522904h8.052658c.164534-.731934.306285-1.472057.421165-2.221054h-8.668126c-1.779307-.14701-3.796604-.684819-5.723682-1.496549-.412432-6.296212-2.428667-11.96985-5.539714-16.260507-.745291-1.027678-1.557158-1.9751-2.425692-2.833419v-23.760715c-.751453-.133958-1.509374-.253442-2.280481-.356567v22.174765c-2.749613-2.000449-5.913898-3.16053-9.296073-3.16053-3.384846 0-6.553147 1.161114-9.304342 3.164664zm9.304342 23.036918c3.393399 0 6.58294 1.375117 9.296073 3.814237v10.718726c-.402669 3.367799-4.55605 6.992238-9.300207 6.989238-4.960874 0-9.266102-4.023067-9.266102-7.516854h-.03462v-10.188009c2.71496-2.441137 5.909874-3.817338 9.304859-3.817338zm-.0078 2.228288c-3.757997 0-7.058484 3.83325-7.058484 8.861474 0 5.028216 3.300489 8.865609 7.058484 8.865609 3.757999 0 7.058484-3.837393 7.058484-8.865609 0-5.028224-3.300488-8.861474-7.058484-8.861474zm11.584306 4.029728h.000517c.190352.240551.377021.486053.560173.738973 2.618322 3.610837 4.441566 8.413424 5.010547 13.797608-3.115791-1.783921-5.536613-4.249343-5.536613-6.78925zm-23.164994.01085h.000516v8.278565c-.316888 2.353199-2.643363 4.603475-5.567102 6.261633.567153-5.390227 2.392881-10.198188 5.013648-13.812594.180592-.24887.365513-.490254.552938-.727604zm21.659143 14.74432-.000517.000517c2.553656.0011 5.290767 1.141582 8.236707 3.569291-2.873341 2.398827-5.576576 3.545222-8.129736 3.557922-2.41272.01167-4.814724-.974952-7.27966-3.12384l.03824-.932243c2.394049-2.094339 4.747016-3.072478 7.134966-3.071647zm-20.819918.000517c2.429917.0011 5.025558 1.035635 7.809342 3.227193l.03049.661458c-2.726553 2.178718-5.301344 3.226764-7.736996 3.238562-2.573909.01259-5.136664-1.109816-7.775236-3.568774 2.579266-2.430447 5.106541-3.559267 7.6724-3.558439zm.331246 1.426269c-1.165063 0-2.108915.92259-2.108915 2.057239 0 1.13453.943852 2.054138 2.108915 2.054138 1.165049 0 2.113049-.919608 2.113049-2.054138 0-1.13476-.947881-2.057239-2.113049-2.057239zm20.823535 0c-1.165297 0-2.108398.92259-2.108398 2.057239 0 1.13453.94335 2.054138 2.108398 2.054138 1.164933 0 2.108399-.919608 2.108399-2.054138 0-1.13476-.943466-2.057239-2.108399-2.057239zm-10.4097 5.214152c4.744168 0 8.897805 3.625566 9.300724 6.993374v10.30325c-2.713262 2.43935-5.903964 3.81424-9.297107 3.81424-3.394982 0-6.588862-1.37688-9.303825-3.81837v-9.7715h.03359c0-3.493661 4.305495-7.517476 9.266618-7.520477zm-17.105417.743108c2.902625 1.655909 5.207054 3.893888 5.521627 6.235796v7.86257c-.187671-.23734-.372992-.47861-.553454-.7276-2.549018-3.51553-4.348545-8.159631-4.968173-13.370766zm34.215484.01447c-.621091 5.205196-2.421879 9.844206-4.968689 13.356296-.183034.25266-.369951.49765-.560173.73845v-7.33133h.03411c0-2.527903 2.400302-4.981277 5.494755-6.763416z" fill="#7f8899" opacity=".9" stroke-width=".264583"/><path d="m-683.06926 387.20602c-.67172.0865-1.33305.18651-2 .2793v88.35547c.65444-.4766 1.33326-.90245 2-1.35352zm76.91992 7.82227v88.13867c3.28265 3.24404 6.35113 6.82485 9.16797 10.70898 11.75828 16.21664 19.37871 37.66035 20.9375 61.45704.62638.26384 1.26391.4744 1.89453.72265-1.74449-23.28403-9.2855-44.25507-20.83203-60.17969-2.81684-3.88413-5.88533-7.46494-9.16797-10.70898v-89.80469c-.66334-.11825-1.33366-.22179-2-.33398zm-43.7539 77.24609c-12.83143 0-24.90672 5.2014-35.16797 14.42774v38.50586h.13086c0 6.08488 3.48231 12.57725 9.04297 17.82812-4.39178-4.84901-7.04297-10.50032-7.04297-15.82812h-.13086v-38.50586c10.26126-9.22634 22.33654-14.42774 35.16797-14.42774 12.00102 0 23.32693 4.55162 33.13476 12.68946v-.27344c-10.25435-9.21871-22.30933-14.41602-35.13476-14.41602zm17.38281 16.64453c5.59852 6.05864 9.26562 14.99044 9.26562 25.26953 0 19.00427-12.47428 33.50782-26.67773 33.50782-5.80688 0-11.30818-2.45424-15.80273-6.61914 4.80091 5.39533 11.10911 8.61914 17.80273 8.61914 14.20345 0 26.67773-14.50355 26.67773-33.50782 0-11.46567-4.54416-21.28155-11.26562-27.26953zm26.37109 7.00782.13086 29.28125c0 6.02674 3.61057 11.94061 9.20899 17.17773-4.43871-4.72218-7.20899-9.90572-7.20899-15.17773l-.1289-28.64258c-.65535-.90017-1.32034-1.77977-2-2.63867zm-87.55273.041c-.70838.89707-1.40729 1.80939-2.08984 2.75-9.90526 13.66073-16.80566 31.83259-18.94922 52.20508.82946-.47042 1.6162-.9778 2.41797-1.47266 2.52873-18.96218 9.19278-35.85337 18.53125-48.73242.03-.0414.0617-.0798.0918-.12109v-4.62891zm81.86133 55.72656c-9.02532-.003-17.91843 3.69378-26.9668 11.60938l-.14453 3.52344c.67346.5871 1.34259 1.10114 2.01367 1.64257l.13086-3.16601c9.04836-7.9156 17.94149-11.61252 26.9668-11.60938l-.002.002c8.99621.004 18.59633 3.75234 28.875 11.6914.0858-.0711.16994-.12944.25586-.20117-11.13425-9.17558-21.47925-13.48608-31.13086-13.49023zm-78.68946.002c-9.69772-.003-19.24965 4.26328-28.99804 13.44922.7168.66801 1.42861 1.25304 2.14258 1.86914 9.69879-9.09309 19.20519-13.32148 28.85546-13.31836 8.60629.004 17.76295 3.43721 27.53907 10.68554l-.0234-.48828c-10.52138-8.28304-20.3317-12.19311-29.51563-12.19726zm86.57227 8.83593c.85261 1.23814 1.35156 2.72829 1.35156 4.33008 0 4.28799-3.56586 7.76367-7.96875 7.76367-1.73669 0-3.33195-.55473-4.64062-1.47265 1.42713 2.09198 3.86735 3.47265 6.64062 3.47265 4.4029 0 7.96875-3.47569 7.96875-7.76367 0-2.61015-1.32522-4.9193-3.35156-6.33008zm-78.68555.008c.85256 1.23671 1.35157 2.72356 1.35157 4.32226 0 4.28799-3.583 7.76367-7.98633 7.76367-1.73672 0-3.33159-.55473-4.64063-1.47265 1.42771 2.09194 3.86735 3.47265 6.64063 3.47265 4.40332 0 7.98633-3.47569 7.98633-7.76367 0-2.6056-1.32618-4.91081-3.35157-6.32226zm160.61524 2.44922c-.36695 2.14436-.73919 4.28723-1.21289 6.39453h-30.43555c-6.93616.46579-14.89499 2.54731-22.48047 5.75586-1.79215 23.14986-9.33496 43.99245-20.82617 59.83984-2.81688 3.88414-5.88138 7.4669-9.16406 10.71094v18.61523c-2.17046.82746-4.39373 1.54191-6.61914 2.25v2.67969c2.91854-.87371 5.79289-1.85222 8.61914-2.92969v-18.61544c3.28268-3.24404 6.34718-6.82679 9.16406-10.71094 11.49121-15.84738 19.03402-36.68998 20.82617-59.83984 7.58547-3.20855 15.54432-5.29007 22.48047-5.75586h30.43555c.62186-2.76636 1.1576-5.56369 1.59179-8.39453zm-253.6211 6.39453c.13738.66638.26275 1.33726.41016 2h31.06445c6.36892.4259 13.60831 2.2275 20.64844 4.99609-.0367-.42256-.10388-.83173-.13672-1.25586-7.61406-3.19823-15.58015-5.2767-22.51172-5.74023zm125.73047 7.41015v.002c-18.75068.0113-35.02344 15.21945-35.02344 28.42382h-.12695v36.93165c.65281.58705 1.33281 1.10988 2 1.66406v-36.59571h.12695c0-13.20437 16.27275-28.41248 35.02344-28.42382v-.002c10.06061 0 19.41732 4.31439 25.96289 10.34961-6.55279-7.05796-16.82364-12.34961-27.96289-12.34961zm-64.65039 2.8086c2.3419 19.69561 9.14327 37.24812 18.77735 50.53515.68206.94107 1.38249 1.85297 2.09179 2.75v-.6289c-.0301-.0413-.0618-.0797-.0918-.1211-9.63408-13.28702-16.43545-30.83954-18.77735-50.53515 4.44942 2.53834 8.51444 5.44245 11.86914 8.58398-3.67185-3.91312-8.49047-7.51552-13.86914-10.58398zm129.31836.0547c-11.69556 6.73564-20.76758 16.00824-20.76758 25.5625h-.1289v27.70899c.67918-.85977 1.34495-1.73759 2-2.63672v-23.07227h.1289c0-8.85231 7.79339-17.46027 18.24024-24.03515.17471-1.17643.38504-2.33472.52734-3.52735zm-99.81641 73.35938v14.54883c-2.24669-.65143-4.44226-1.41872-6.63476-2.19141v1.33985c2.831 1.05293 5.71087 2.00377 8.63476 2.85156v-14.54883c10.39773 7.57238 22.37096 11.96094 35.16407 11.96094 11.97038 0 23.22079-3.8465 33.13672-10.54492v-3.40235c-10.39224 7.56124-22.3542 11.94727-35.13672 11.94727-12.79311 0-24.76634-4.38855-35.16407-11.96094z" fill="#fff" filter="url(#g)" opacity=".5" stroke-width=".999999" transform="matrix(.26458334 0 0 .26458334 238.17537 -58.892264)"/><path d="m46.094898 22.302632c1.86867 5.121085 4.867349 10.3572 6.531451 15.266043 1.663618 4.908844 2.052479 9.108105-.708242 13.001986-3.085489 4.351959-8.703469 8.804521-13.67322 14.080109-4.96974 5.27558-9.372888 11.62117-9.372888 19.866338 0 20.524042 16.659699 37.352462 37.195229 37.352462 20.535324 0 37.352452-16.81737 37.352452-37.352462 0-8.19938-4.202641-14.655038-9.099973-20.012266-4.89712-5.357241-10.566295-9.827612-14.035908-14.052821-2.070524-2.52073-1.823112-7.69933-.198491-13.295648 1.62441-5.596316 4.3452-11.285784 5.843535-14.737359 2.6094-5.654019-7.05112-1.737733-8.411184-1.454457-3.78828.69223-7.67048.855041-11.52149.852893-3.793861-.0021-7.61487-.185621-11.349602-.852893-4.262088-1.548852-10.046459-2.894756-8.551669 1.338075zm34.86163 1.515814-5.83171 15.769564c-1.043829 4.95373-1.08262 9.906111 1.90138 13.5397 3.945756 4.80463 9.60522 9.21411 14.182511 14.221299 4.577504 5.006729 7.995709 10.39938 7.995709 17.167879 0 18.236072-14.900646 33.137622-33.13764 33.137622-18.236301 0-32.979731-14.8896-32.979731-33.137622 0-6.754749 3.55328-12.016118 8.225771-16.976169 4.67336-4.959808 10.384259-9.371548 14.043341-14.532097 3.627728-5.116582 3.146848-10.961672 1.418698-16.308084l-5.472279-12.832147s3.436731 1.153272 5.213411 1.480077c3.163668.581932 6.396829.842163 9.61358.840407 3.271409-.0019 6.562828-.250934 9.776058-.865378 1.725512-.329965 5.050901-1.505051 5.050901-1.505051z" fill="#7f8899" stroke-width=".264583"/></g></g></svg>