<svg height="500" viewBox="0 0 132.29167 132.29167" width="500" xmlns="http://www.w3.org/2000/svg" xmlns:xlink="http://www.w3.org/1999/xlink"><radialGradient id="a" cx="494.25363" cy="332.55859" gradientTransform="matrix(-.33462355 .12958228 -.13250235 -.34220148 276.54747 68.068365)" gradientUnits="userSpaceOnUse" r="43.257179"><stop offset="0" stop-color="#deaa87"/><stop offset="1" stop-color="#d38d5f"/></radialGradient><linearGradient id="b"><stop offset="0" stop-color="#9f20df"/><stop offset="1" stop-color="#8d22c3"/></linearGradient><linearGradient id="c"><stop offset="0" stop-color="#fff"/><stop offset="1" stop-color="#ecf5f9"/></linearGradient><linearGradient id="d" gradientUnits="userSpaceOnUse" spreadMethod="reflect" x1="86.59053476772" x2="75.54925238535" xlink:href="#b" y1="88.75267349732" y2="96.00122090496"/><linearGradient id="e" gradientUnits="userSpaceOnUse" x1="40.2393460002" x2="91.95340863657" xlink:href="#b" y1="68.70931535996" y2="78.11721101368"/><linearGradient id="f" gradientUnits="userSpaceOnUse" x1="40.2393460002" x2="91.95340863657" xlink:href="#c" y1="68.70931535996" y2="78.11721101368"/><filter id="g" color-interpolation-filters="sRGB" height="1.133303" width="1.117168" x="-.058584" y="-.066652"><feGaussianBlur stdDeviation="4.9275978"/></filter><filter id="h" color-interpolation-filters="sRGB" height="1.284048" width="1.242028" x="-.121014" y="-.142024"><feGaussianBlur stdDeviation="3.9237674"/></filter><g><g fill="#7f8899" stroke-width=".999999" transform="matrix(.26458334 0 0 .26458334 238.17537 -58.892264)"><path d="m-235.24023 17.787109-4.4961.01367-10.32812.01172-10.25.01172a1.3187171 1.3187171 0 0 0 -.002 0l-4.57812.01367a1.3187171 1.3187171 0 0 0 -1.20899 1.835937l5.44141 12.757813c1.65375 5.135477 2.06393 10.427569-1.25 15.101562-3.48982 4.921834-9.15246 9.324735-13.92578 14.390625-4.7628 5.055919-8.58594 10.663585-8.58594 17.88086 0 18.958286 15.34484 34.455082 34.29883 34.455082 18.95523 0 34.45508-15.500783 34.45508-34.455082 0-7.212491-3.66674-12.945157-8.3418-18.058594-4.68223-5.121997-10.33021-9.53528-14.13476-14.167969-2.59571-3.160761-2.63509-7.605501-1.64063-12.367187l5.78715-15.648436a1.3187171 1.3187171 0 0 0 -1.24023-1.775391z" opacity=".15" transform="matrix(3.7795275 0 0 3.7795275 294.8676 240.39681)"/><path d="m-725.97342 306.87834c7.06269 19.35528 18.39628 39.14532 24.6858 57.69843 6.28769 18.55311 7.7574 34.42433-2.67682 49.14136-11.66169 16.44835-32.895 33.27693-51.67831 53.21616-18.78327 19.9392-35.42509 43.92253-35.42509 75.08537 0 77.57118 62.96579 141.17466 140.58039 141.17466 77.61382 0 141.17462-63.56171 141.17462-141.17466 0-30.98978-15.884-55.38912-34.3936-75.63691-18.5088-20.24784-39.9356-37.14373-53.0491-53.11302-7.8256-9.52717-6.8905-29.09983-.7502-50.25127 6.1395-21.15143 16.4228-42.65493 22.0858-55.70025 9.8623-21.36952-26.6499-6.56781-31.7903-5.49716-14.31791 2.6163-28.99079 3.23165-43.54579 3.22353-14.339-.008-28.78061-.70156-42.89613-3.22353-16.10868-5.85393-37.97087-10.94081-32.32127 5.05729zm131.76049 5.72906-22.04111 59.6015c-3.94518 18.72276-4.09179 37.44042 7.18632 51.17367 14.91309 18.15923 36.30319 34.82498 53.60319 53.74979 17.3008 18.92307 30.22 39.30474 30.22 64.88647 0 68.92373-56.3174 125.24455-125.24462 125.24455-68.9246 0-124.6478-56.27565-124.6478-125.24455 0-25.52976 13.42972-45.41525 31.08953-64.1619 17.66309-18.74573 39.24759-35.42002 53.07719-54.92446 13.7111-19.33826 11.8936-41.42994 5.36201-61.63685l-20.68263-48.49945s12.98922 4.35882 19.70423 5.59399c11.95717 2.19943 24.17699 3.18298 36.33479 3.17634 12.36438-.007 24.80439-.94841 36.94888-3.27072 6.52162-1.24711 19.09002-5.68838 19.09002-5.68838z"/></g><g><g><path d="m39.425781 62.367188c-6.441414 4.6905-11.901442 12.665295-12.073436 20.631663-.282184 13.070065 7.234505 27.757669 18.328948 34.672839 10.977208 6.8421 27.212217 6.94688 38.787161 1.17331 10.396489-5.18575 17.427776-17.16116 20.114616-28.464249 1.42573-5.99779.10905-12.821739-2.73508-18.291392-2.423449-4.660625-6.767204-8.42174-11.420498-10.859238-6.355708-3.32926-13.942134-3.59991-21.074681-4.378219-1.556405-.169836-3.139126-.219045-4.696561-.05893-8.567807.88082-18.267855.50419-25.230469 5.574217z" fill="#9f20df" filter="url(#h)" opacity=".75"/><path d="m99.204415 84.516883c0 18.236057-14.900644 33.137617-33.137604 33.137617-18.2363 0-32.97976-14.88961-32.97976-33.137617 0-4.67889 1.34094-8.6406 3.94174-12.2826.72649-1.3605 1.95278-2.423563 3.17084-3.369625 1.6863-1.309728 3.58519-2.409622 5.6061-3.098748 6.57281-2.241325 12.37523-3.161202 20.34011-3.161043 7.96491-.000164 13.62866.919713 20.20147 3.161035 2.02088.689129 3.9198 1.789023 5.60609 3.09875 1.21807.946063 2.44436 2.009121 3.17093 3.369761 2.47862 3.66128 4.080084 7.64957 4.080084 12.28247z" fill="url(#d)"/><g fill-rule="evenodd"><path d="m45.805731 81.310643c-2.03496-.69573-3.99248-1.77167-5.6061-3.19342-1.44243-1.2709-3.06392-2.73139-3.46294-4.61198-.0902-.42523.0874-.88751.2921-1.27096.72649-1.3605 1.95278-2.423563 3.17084-3.369628 1.6863-1.309725 3.58519-2.409621 5.6061-3.098747 6.57281-2.241325 12.37523-3.1612 20.34011-3.161044 7.96491-.000161 13.62866.919713 20.20147 3.161038 2.02088.689126 3.9198 1.789023 5.60609 3.098748 1.21807.946065 2.44436 2.009123 3.17082 3.369623.20474.38346.3823.84574.2921 1.27097-.39899 1.88058-2.02051 3.34106-3.46292 4.61197-1.61361 1.42175-3.57113 2.49769-5.60609 3.19342-6.56011 2.24285-12.25056 2.92454-20.20147 2.92441-7.95089.00014-13.78-.68155-20.34011-2.9244z" fill="#7112a1"/><path d="m86.347311 79.842533c2.40519-1.42141 5.46915-3.54353 5.48513-6.33729.0161-2.83144-3.05652-5.030301-5.48513-6.48606-6.02115-3.609186-11.80484-4.404111-20.20147-4.414319-8.39663.01021-14.31899.805138-20.34011 4.414325-2.42861 1.455758-5.50137 3.654614-5.48516 6.486064.0161 2.79376 3.07997 4.91588 5.48516 6.33729 6.04221 3.57079 11.8482 4.38575 20.34011 4.3925 8.49191-.007 14.15923-.82173 20.20147-4.39251z" fill="url(#e)"/></g></g><g stroke-linecap="round" stroke-linejoin="round"><path d="m254.14844 223.37109c-3.25242-.00006-6.39316.0498-9.46875.13282l6.63672 2.125c14.59275 10.04334 27.62133 22.7731 38.25 37.27148a2.50025 2.50025 0 0 0 4.33593-2.41016c-5.83761-14.52502-13.13005-26.78015-22.125-36.65039-2.36871-.13148-4.77801-.24017-7.25-.31445l1.88672 1.84766c5.22703 5.41459 9.84243 11.79357 14.00586 18.93359-7.25527-7.72537-15.17507-14.77049-23.6875-20.91602-.86233-.006-1.7072-.0195-2.58398-.0195zm-12.27539.22071c-5.56506.20086-10.8715.55065-16.00196 1.05468l4.76758 1.59375 42.06055 45.11719a2.50025 2.50025 0 0 0 4.25781-2.29101c-4.56619-18.95383-18.21024-35.0496-35.08398-45.47461zm35.04101.58398 5.98047 2.70117c4.40481 5.17315 8.89107 11.65834 13.20117 19.2461a2.50025 2.50025 0 0 0 3.22071 1.03711l-2.02149.92968 7.02149 11.83594-63.0918 35.48047-8.20117-13.82227a2.50025 2.50025 0 0 0 -.0801-.23828c-14.87468-21.222-25.92903-29.1564-40.95508-40.86718-2.98818-2.32898-6.65641-4.56127-10.16992-6.66211-1.50628.48293-3.0212.9817-4.54688 1.50195-.60631.20675-1.20435.44008-1.80468.66602l1.97851 1.02734c4.01596 2.39185 8.36912 4.99627 11.46875 7.41211 15.0421 11.72329 25.31328 19.01399 39.76758 39.57617a2.50025 2.50025 0 0 0 .0117.084l9.47656 15.97461a2.50025 2.50025 0 0 0 3.375.9043l67.45117-37.93164a2.50025 2.50025 0 0 0 .92579-3.45508l-9.47657-15.97461a2.50025 2.50025 0 0 0 -.043-.0137c-3.9916-7.01939-8.14914-13.14103-12.33789-18.29297-3.626-.45817-7.33323-.82962-11.15039-1.11914zm-57.60937 1.20899c-2.33424.30011-4.6383.63938-6.92188 1.01171l2.10352 1.53907c8.22073 6.27417 16.06 13.83966 23.2832 22.38672-9.95178-8.53286-20.31168-16.34142-31.62695-22.8086-2.03474.39807-4.06356.81665-6.08399 1.27735a2.50025 2.50025 0 0 0 .66407 1.32031c2.70348 2.48025 5.42932 5.17906 8.16211 8.00976-3.85136-3.03075-7.76386-5.92195-11.76172-8.62695-3.2068.78126-6.41523 1.64246-9.64453 2.58984l5.50586.625c13.10817 8.61701 25.39419 19.40298 37.58398 31.27344a2.50025 2.50025 0 0 0 3.75976-3.27148c-4.87602-6.6383-9.82821-12.78711-14.79687-18.4336 11.41755 8.26973 22.16593 17.72711 32.73828 28.02344a2.50025 2.50025 0 0 0 3.89063-3.07422c-10.17168-17.02042-23.06942-30.99008-36.85547-41.84179zm19.50976 2.29296c12.51369 7.64684 23.06512 18.54942 29.14453 31.26368zm63.76953 43.01758a2.50025 2.50025 0 0 0 -1.87109.23438l-47.82031 26.89453a2.50025 2.50025 0 0 0 -.92578 3.45508l36.18359 61.02148a2.50025 2.50025 0 0 0 3.37695.9043l47.82227-26.89844a2.50025 2.50025 0 0 0 .92383-3.45508l-36.18555-61.01758a2.50025 2.50025 0 0 0 -1.50391-1.13867zm-1.55078 5.79102 33.63477 56.71484-43.46289 24.44727-33.63281-56.71875zm32.71875 8.17187a2.50025 2.50025 0 0 0 -1.87109.23438l-10.25195 5.75586a2.50025 2.50025 0 0 0 -.92579 3.45312l8.44532 14.26172a2.50025 2.50025 0 0 0 3.37695.9043l10.25195-5.77149a2.50025 2.50025 0 0 0 .92383-3.45312l-8.44531-14.24609a2.50025 2.50025 0 0 0 -1.50391-1.13868zm-1.55273 5.78907 5.89648 9.94726-5.89258 3.31641-5.89453-9.95508zm-70.99414 34.55078a2.50025 2.50025 0 0 0 -1.22461.32031l-72.45313 40.74023a2.50025 2.50025 0 0 0 -.92578 3.45508l8.45899 14.27149a2.50025 2.50025 0 0 0 3.37695.90429l72.44336-40.75195a2.50025 2.50025 0 0 0 .92383-3.45312l-8.44727-14.25977a2.50025 2.50025 0 0 0 -2.15039-1.22656zm-.90235 5.87695 5.89844 9.95508-68.08594 38.30273-5.9082-9.96875zm92.26563 2.03711a2.50025 2.50025 0 0 0 -1.87109.23437l-67.45313 37.92774a2.50025 2.50025 0 0 0 -.92578 3.45508l9.49023 16.0039a2.50025 2.50025 0 0 0 3.375.9043l67.44922-37.93164a2.50025 2.50025 0 0 0 .92578-3.45508l-9.48632-16a2.50025 2.50025 0 0 0 -1.50391-1.13867zm-1.55078 5.79101 6.93554 11.69727-63.08984 35.48047-6.93945-11.70117zm-170.48242 27.73243a2.50025 2.50025 0 0 0 -1.8711.23437l-15.34765 8.63086a2.50025 2.50025 0 0 0 -.92579 3.45508l12.34376 20.82422a2.50025 2.50025 0 0 0 3.375.9043l15.3496-8.63086a2.50025 2.50025 0 0 0 .92579-3.45508l-12.34571-20.82422a2.50025 2.50025 0 0 0 -1.5039-1.13867zm-1.55078 5.79101 9.79492 16.52149-10.99024 6.17968-9.79297-16.52148z" fill="#fff" filter="url(#g)" transform="matrix(.26458334 0 0 .26458334 -1.097605 3.504608)"/><path d="m65.706588 62.607979c-1.401242.0061-2.738946.04106-4.023527.108003 4.735364 2.650125 8.621108 7.013653 9.854696 12.134144l-11.23239-12.048878c-1.480843.106711-2.899594.260246-4.283976.461471l.02997.02222c3.763475 2.872007 7.296829 6.641202 10.058818 11.262879-4.260916-4.149674-8.610841-7.892545-13.648263-10.644829-.000529.000114-.001.000403-.0016.000517 2.622983 2.406778 5.304811 5.428503 7.908044 8.972579-3.277383-3.191528-6.593741-6.108524-10.161137-8.436695-1.32752.345873-2.661093.745265-4.024044 1.201478 1.064306.633864 2.234167 1.330154 3.109371 2.01228 3.985918 3.106489 6.808758 5.117303 10.701156 10.670667l-.01395.0072 2.507341 4.226616 17.846456-10.03608-2.50734-4.226616-.0067.0031c-1.182204-2.081217-2.4169-3.873007-3.642155-5.296835-1.376646-.150481-2.804425-.254432-4.303097-.318327 2.523999 2.616966 4.555991 5.95907 6.175851 9.989572-2.871424-3.916867-6.391393-7.35612-10.343524-10.064466zm13.083439 13.15682-12.652458 7.115845 9.573576 16.145268 12.652975-7.116879zm8.246525 3.694348-2.712496 1.522904 2.234489 3.773414 2.712496-1.527039zm-19.023645 10.695988-19.16989 10.779185 2.238107 3.776 19.167306-10.782288-2.235006-3.772897zm24.002153 2.071192-17.846973 10.035043 2.510958 4.23437 17.845939-10.03608zm-45.517119 8.869743-4.060735 2.28358 3.265951 5.50974 4.061251-2.28358z" fill="#7112a1" stroke-width="1.32292"/></g><g fill-rule="evenodd" opacity=".5"><path d="m45.805731 81.310643c-2.03496-.69573-3.99248-1.77167-5.6061-3.19342-1.44243-1.2709-3.06392-2.73139-3.46294-4.61198-.0902-.42523.0874-.88751.2921-1.27096.72649-1.3605 1.95278-2.423563 3.17084-3.369628 1.6863-1.309725 3.58519-2.409621 5.6061-3.098747 6.57281-2.241325 12.37523-3.1612 20.34011-3.161044 7.96491-.000161 13.62866.919713 20.20147 3.161038 2.02088.689126 3.9198 1.789023 5.60609 3.098748 1.21807.946065 2.44436 2.009123 3.17082 3.369623.20474.38346.3823.84574.2921 1.27097-.39899 1.88058-2.02051 3.34106-3.46292 4.61197-1.61361 1.42175-3.57113 2.49769-5.60609 3.19342-6.56011 2.24285-12.25056 2.92454-20.20147 2.92441-7.95089.00014-13.78-.68155-20.34011-2.9244z" fill="#9eb8c5" opacity=".5"/><path d="m86.347311 79.842533c2.40519-1.42141 5.46915-3.54353 5.48513-6.33729.0161-2.83144-3.05652-5.030301-5.48513-6.48606-6.02115-3.609186-11.80484-4.404111-20.20147-4.414319-8.39663.01021-14.31899.805138-20.34011 4.414325-2.42861 1.455758-5.50137 3.654614-5.48516 6.486064.0161 2.79376 3.07997 4.91588 5.48516 6.33729 6.04221 3.57079 11.8482 4.38575 20.34011 4.3925 8.49191-.007 14.15923-.82173 20.20147-4.39251z" fill="url(#f)" opacity=".5"/></g></g><g><g transform="translate(-1.097605 3.504608)"><path d="m52.400186 20.363774 5.99503 14.618867c.53304 1.249855 1.21833 2.212549 2.50618 2.645833 4.40649 1.48235 9.03129 1.397315 13.36042.02791 1.40183-.443561 1.93709-1.509697 2.44718-2.888713l5.34514-14.453839s1.27488-2.846559 1.19108-4.34645c-.10908-1.952252-.83162-4.024781-2.1709-5.449393-1.56588-1.6656611-3.99536-2.3314561-6.20272-2.9264381-2.53252-.68263-5.21692-.675475-7.83983-.673859-2.64533.0016-5.36111-.0327-7.90598.689361-2.11531.600184-4.41048 1.339962-5.89318 2.9636461-1.34326 1.470991-2.12571 3.569258-2.19027 5.56024-.048 1.480987 1.35785 4.232839 1.35785 4.232839z" fill="#c36e36"/><path d="m56.808976 13.715668c-.85684.974441-1.1465 2.449269-1.0648 3.744272.10003 1.585465 1.24628 2.922606 1.86942 4.38391 1.60205 3.756954 4.80615 11.270872 4.80615 11.270872 3.47978 1.170599 6.87158 1.118722 10.40569.000794 0 0 2.78521-7.531087 4.1778-11.296637.53735-1.452978 1.5533-2.810896 1.61203-4.358939.0492-1.297136-.1986-2.782319-1.07016-3.744272-.90373-.997453-2.44365-1.180606-3.75449-1.486141-2.2014-.513115-4.49854-.549246-6.75896-.549265-2.26041-.000018-4.56506.0048-6.75896.549151-1.2194.302548-2.63409.542753-3.46372 1.486255z" fill="url(#a)"/></g><g transform="matrix(.26458334 0 0 .26458334 238.17537 -58.892264)"><path d="m-645.74504 450.08884 9.94922 9.74023c-.11396-.11937-.22144-.24861-.33594-.36719l-9.53515-9.33789zm-38.47852.11328 19.10547 11.38476c6.32093 3.53084 12.23834 7.87226 17.46094 12.85938-5.69294-5.82783-12.3136-10.86692-19.46094-14.85938l-14.17382-8.44531zm-20.30664.25586 18.1875 13.31445c4.7807 3.64827 9.4604 7.68776 13.9668 12.0957-5.1159-5.19388-10.47345-9.90359-15.9668-14.0957l-14.83984-10.86328zm34.02735 11.37695 40.6914 43.64844c-.01677-.06961-.03961-.1375-.05664-.20703l-40.4375-43.375zm52.05469.57812c4.17333 5.09162 8.35637 11.22536 12.3789 18.30664l.02539-.01171 9.47656 15.97461-66.84179 37.58789 1.39062 2.34375 67.45117-37.93164-9.47656-15.97461-.02539.01171c-4.47309-7.87447-9.14542-14.65289-13.78125-20.0371zm-120.64844 2.23633 15.44531 8.02149c4.02552 2.39746 8.4528 5.03086 11.76367 7.61132 7.88216 6.14309 14.56209 11.16607 21.2461 17.55274-7.36307-7.35037-14.58001-12.79868-23.2461-19.55274-3.31088-2.58047-7.73815-5.21386-11.76367-7.61132l-11.07617-5.75196zm39.17187 1.44922c1.84921 1.69652 3.707 3.50136 5.56836 5.35742-1.76409-1.80952-3.52376-3.5271-5.27929-5.19531-.09694-.05322-.19199-.10909-.28907-.16211zm70.65625 11.94727c5.9646 5.96342 11.50878 12.38259 16.51172 19.20703-.20128-.50083-.41839-.97551-.62305-1.47071-4.87059-6.29166-10.18765-12.22964-15.88867-17.73632zm28.86719 32.89453-.61133.34375 34.79688 58.67383-47.21094 26.55468 1.38867 2.34375 47.82227-26.89843zm31.16797 13.96289-.61133.34375 7.05664 11.90234-9.64062 5.42774 1.38867 2.34375 10.25195-5.77149zm-71.90039 40.42578-.60938.34375 7.0586 11.91602-71.83203 40.4082 1.38867 2.34375 72.44336-40.75195-8.44727-14.25977zm90.7168 7.82812-.61133.34375 8.09765 13.65625-66.83789 37.5879 1.38867 2.34375 67.44922-37.93165zm-172.03321 33.52344-.61133.34375 10.95704 18.48047-14.73829 8.28711 1.38868 2.34375 15.34961-8.63086z" fill="#e3e5e8" opacity=".5" stroke-width=".999999"/><g fill="#7f8899"><path d="m-235.24023 17.787109-4.4961.01367-10.32812.01172-10.25.01172a1.3187171 1.3187171 0 0 0 -.002 0l-4.57812.01367a1.3187171 1.3187171 0 0 0 -1.20899 1.835937l5.44141 12.757813c1.65375 5.135477 2.06393 10.427569-1.25 15.101562-3.48982 4.921834-9.15246 9.324735-13.92578 14.390625-4.7628 5.055919-8.58594 10.663585-8.58594 17.88086 0 18.958286 15.34484 34.455082 34.29883 34.455082 18.95523 0 34.45508-15.500783 34.45508-34.455082 0-7.212491-3.66674-12.945157-8.3418-18.058594-4.68223-5.121997-10.33021-9.53528-14.13476-14.167969-2.59571-3.160761-2.63509-7.605501-1.64063-12.367187l5.78715-15.648436a1.3187171 1.3187171 0 0 0 -1.24023-1.775391z" opacity=".15" stroke-width=".999999" transform="matrix(3.7795275 0 0 3.7795275 294.8676 240.39681)"/><path d="m60.368412 72.876081c-3.278341-3.19246-6.595655-6.110293-10.164239-8.438801l-8.11081-.920125 4.086995 2.122154c1.065086.63433 2.236229 1.331084 3.112233 2.013834 3.985922 3.106491 6.808753 5.117298 10.701155 10.670667l-.01394.0072 2.50734 4.226616 17.846455-10.03608-2.50734-4.226616-.0067.0031c-1.183509-2.083456-2.419749-3.876725-3.646312-5.3013l-7.380216-3.33229 3.072458 3.009003c2.528107 2.61833 4.56288 5.963796 6.184635 9.999017-2.8722-3.917921-6.393272-7.35798-10.346655-10.066652l-9.091193-2.911131 5.054762 3.012051c4.742685 2.649238 8.635725 7.017073 9.870715 12.143391l-11.243241-12.060375-9.055066-3.027577 4.812149 3.522768c3.763479 2.87201 7.296592 6.641198 10.058583 11.262879-4.262064-4.150791-8.613508-7.89459-13.652656-10.647082 2.623836 2.407179 5.306769 5.430067 7.910888 8.975349zm18.421615 2.888713-12.652457 7.115845 9.573575 16.145267 12.652976-7.116879zm8.246526 3.694348-2.712495 1.522902 2.234488 3.773414 2.712495-1.527038zm-19.023646 10.695988-19.169891 10.77919 2.238108 3.776 19.167306-10.782295-2.235007-3.772895zm24.002154 2.07119-17.846974 10.03505 2.510957 4.23437 17.84594-10.036086zm-45.517121 8.86974-4.060732 2.28359 3.26595 5.50974 4.061251-2.28358z" opacity=".9" stroke-width=".264583" transform="matrix(3.7795275 0 0 3.7795275 -900.19035 222.58493)"/><path d="m-725.97342 306.87834c7.06269 19.35528 18.39628 39.14532 24.6858 57.69843 6.28769 18.55311 7.7574 34.42433-2.67682 49.14136-11.66169 16.44835-32.895 33.27693-51.67831 53.21616-18.78327 19.9392-35.42509 43.92253-35.42509 75.08537 0 77.57118 62.96579 141.17466 140.58039 141.17466 77.61382 0 141.17462-63.56171 141.17462-141.17466 0-30.98978-15.884-55.38912-34.3936-75.63691-18.5088-20.24784-39.9356-37.14373-53.0491-53.11302-7.8256-9.52717-6.8905-29.09983-.7502-50.25127 6.1395-21.15143 16.4228-42.65493 22.0858-55.70025 9.8623-21.36952-26.6499-6.56781-31.7903-5.49716-14.31791 2.6163-28.99079 3.23165-43.54579 3.22353-14.339-.008-28.78061-.70156-42.89613-3.22353-16.10868-5.85393-37.97087-10.94081-32.32127 5.05729zm131.76049 5.72906-22.04111 59.6015c-3.94518 18.72276-4.09179 37.44042 7.18632 51.17367 14.91309 18.15923 36.30319 34.82498 53.60319 53.74979 17.3008 18.92307 30.22 39.30474 30.22 64.88647 0 68.92373-56.3174 125.24455-125.24462 125.24455-68.9246 0-124.6478-56.27565-124.6478-125.24455 0-25.52976 13.42972-45.41525 31.08953-64.1619 17.66309-18.74573 39.24759-35.42002 53.07719-54.92446 13.7111-19.33826 11.8936-41.42994 5.36201-61.63685l-20.68263-48.49945s12.98922 4.35882 19.70423 5.59399c11.95717 2.19943 24.17699 3.18298 36.33479 3.17634 12.36438-.007 24.80439-.94841 36.94888-3.27072 6.52162-1.24711 19.09002-5.68838 19.09002-5.68838z" stroke-width=".999999"/></g></g></g></g></svg>