<svg height="500" viewBox="0 0 132.29167 132.29167" width="500" xmlns="http://www.w3.org/2000/svg" xmlns:xlink="http://www.w3.org/1999/xlink"><radialGradient id="a" cx="494.25363" cy="332.55859" gradientTransform="matrix(-.33462355 .12958228 -.13250235 -.34220148 276.54747 68.068365)" gradientUnits="userSpaceOnUse" r="43.257179"><stop offset="0" stop-color="#6d655f"/><stop offset="1" stop-color="#463d39"/></radialGradient><linearGradient id="b" gradientTransform="matrix(391.584 0 0 -391.584 4037.17 7594.37)" gradientUnits="userSpaceOnUse" spreadMethod="pad" x1="0" x2="1" y1="0" y2="0"><stop offset="0" stop-color="#752c69"/><stop offset="1" stop-color="#42206b"/></linearGradient><linearGradient id="c" gradientTransform="matrix(.69108051 0 0 .69415299 -5.429546 -13.94649)" gradientUnits="userSpaceOnUse" spreadMethod="reflect" x1="230.66402" x2="275.06866" xlink:href="#b" y1="118.14552" y2="141.28189"/><linearGradient id="d" gradientTransform="matrix(-.83131252 0 0 .83315844 365.42815 -7.849845)" gradientUnits="userSpaceOnUse" spreadMethod="reflect" x1="227.02235" x2="264.26935" xlink:href="#b" y1="62.273582" y2="120.75629"/><filter id="e" color-interpolation-filters="sRGB" height="1.051346" width="1.029535" x="-.014768" y="-.025673"><feGaussianBlur stdDeviation=".81568897"/></filter><filter id="f" color-interpolation-filters="sRGB" height="1.074037" width="1.042499" x="-.021249" y="-.037018"><feGaussianBlur stdDeviation="1.6312779"/></filter><filter id="g" color-interpolation-filters="sRGB" height="1.120908" width="1.079602" x="-.039801" y="-.060454"><feGaussianBlur stdDeviation="2.750612"/></filter><filter id="h" color-interpolation-filters="sRGB" height="1.0057" width="1.006628" x="-.003314" y="-.00285"><feGaussianBlur stdDeviation=".038028524"/></filter><filter id="i" color-interpolation-filters="sRGB" height="1.00558" width="1.006761" x="-.00338" y="-.00279"><feGaussianBlur stdDeviation=".039360479"/></filter><filter id="j" color-interpolation-filters="sRGB" height="1.098429" width="1.03718" x="-.01859" y="-.049215"><feGaussianBlur stdDeviation=".43499657"/></filter><filter id="k" color-interpolation-filters="sRGB" height="1.010937" width="1.004131" x="-.002066" y="-.005468"><feGaussianBlur stdDeviation=".048332746"/></filter><g><path d="m44.60463 24.667117c-9.49871 5.446571-15.66868 12.493026-13.78159 15.739208l46.99951 73.405835.002.004c2.34996 3.57245 5.91977 5.48631 9.57977 5.95915 3.65955.47328 7.42336-.38644 10.64345-2.14775 3.21986-1.76066 5.93825-4.45068 7.30722-7.84765 1.36106-3.37626 1.23899-7.45925-.99066-11.374698l-39.14464-77.722237c-.64859-1.115645-2.1646-1.637176-4.26156-1.619898-4.00242.03307-10.12066 2.029846-16.354 5.60404z" fill="#cddde5" opacity=".5"/><g stroke-width=".808651" transform="matrix(-1.0714692 .61741411 .61741411 1.0714692 106.8847 -33.796649)"><path d="m52.400186 20.363774 5.99503 14.618867c.53304 1.249855 1.21833 2.212549 2.50618 2.645833 4.40649 1.48235 9.03129 1.397315 13.36042.02791 1.40183-.443561 1.93709-1.509697 2.44718-2.888713l5.34514-14.453839s1.27488-2.846559 1.19108-4.34645c-.10908-1.952252-.83162-4.024781-2.1709-5.449393-1.56588-1.6656611-3.99536-2.3314561-6.20272-2.9264381-2.53252-.68263-5.21692-.675475-7.83983-.673859-2.64533.0016-5.36111-.0327-7.90598.689361-2.11531.600184-4.41048 1.339962-5.89318 2.9636461-1.34326 1.470991-2.12571 3.569258-2.19027 5.56024-.048 1.480987 1.35785 4.232839 1.35785 4.232839z" fill="#392f2d"/><path d="m56.808976 13.715668c-.85684.974441-1.1465 2.449269-1.0648 3.744272.10003 1.585465 1.24628 2.922606 1.86942 4.38391 1.60205 3.756954 4.80615 11.270872 4.80615 11.270872 3.47978 1.170599 6.87158 1.118722 10.40569.000794 0 0 2.78521-7.531087 4.1778-11.296637.53735-1.452978 1.5533-2.810896 1.61203-4.358939.0492-1.297136-.1986-2.782319-1.07016-3.744272-.90373-.997453-2.44365-1.180606-3.75449-1.486141-2.2014-.513115-4.49854-.549246-6.75896-.549265-2.26041-.000018-4.56506.0048-6.75896.549151-1.2194.302548-2.63409.542753-3.46372 1.486255z" fill="url(#a)"/></g><g opacity=".95"><path d="m64.841002 52.948708c-5.989973 0-11.40397.546795-15.600078 1.529622-2.098059.491413-3.882155 1.059977-5.468399 1.938383-.793122.439202-1.558204.953314-2.274795 1.773535 1.519564 2.508991 3.079073 4.701757 4.649323 6.807854l32.037845 49.179938.0025.004c2.349954 3.57244 5.919785 5.48648 9.579779 5.95932 3.659554.47329 7.423197-.38636 10.643278-2.14767 3.219865-1.76066 5.938085-4.45062 7.307045-7.84759 1.36107-3.37625 1.23902-7.45957-.99063-11.375009l-16.999485-32.91772c.153518-.146464.305773-.301214.455268-.472322l-5.278236-10.231934c-.772905-.248001-1.591656-.466211-2.464966-.67076-4.196108-.982826-9.608552-1.529622-15.598532-1.529622z" fill="url(#c)"/><g fill-rule="evenodd" stroke-width="1.20159" transform="matrix(-.83131252 0 0 .83315844 298.35545 -7.406325)"><path d="m308.97852 78.732422c-.862-.984473-1.78227-1.601752-2.73633-2.128906-1.90812-1.054309-4.05434-1.736352-6.57813-2.326172-5.04758-1.179641-11.56017-1.835938-18.76562-1.835938s-13.71609.656298-18.76367 1.835938c-1.05052.24551-2.03562.506999-2.96536.804663l-6.3491 12.281274c.862.984474 1.78227 1.599799 2.73633 2.126953 1.90812 1.054309 4.05434 1.736352 6.57813 2.326172 5.04758 1.179641 11.55822 1.837891 18.76367 1.837891s13.71804-.65825 18.76562-1.837891c3.13175-4.147747 6.28834-8.098548 9.31446-13.083984z" filter="url(#k)" opacity="1"/><path d="m308.97852 78.732422c-.862-.984473-1.78227-1.601752-2.73633-2.128906-1.90812-1.054309-4.05434-1.736352-6.57813-2.326172-5.04758-1.179641-11.56017-1.835938-18.76562-1.835938s-13.71609.656298-18.76367 1.835938c-1.05052.24551-2.03562.506999-2.96536.804663l-6.3491 12.281274c.862.984474 1.78227 1.599799 2.73633 2.126953 1.90812 1.054309 4.05434 1.736352 6.57813 2.326172 5.04758 1.179641 11.55822 1.837891 18.76367 1.837891s13.71804-.65825 18.76562-1.837891c3.13175-4.147747 6.28834-8.098548 9.31446-13.083984z" fill="url(#d)" opacity="1"/><path d="m280.89846 72.441323c-7.20544 0-13.71616.656293-18.76374 1.835932-1.05051.24551-2.03541.506797-2.96514.804461l-6.34928 12.281518c.862.984473 1.78233 1.599675 2.73639 2.126828 1.90812 1.054308 4.05425 1.736729 6.57803 2.326548 5.04758 1.17964 11.5583 1.837793 18.76374 1.837793a25.004122 10.606446 0 0 1 -25.00298-10.60685 25.004122 10.606446 0 0 1 25.00298-10.60623zm.002 0a25.004122 10.606446 0 0 1 25.00298 10.60623 25.004122 10.606446 0 0 1 -.0211.414945c1.04281-1.491352 2.07717-3.050997 3.09631-4.730006-.862-.984472-1.78233-1.601536-2.73639-2.128689-1.90812-1.054308-4.05424-1.736729-6.57803-2.326548-5.04714-1.179538-11.55904-1.835818-18.76374-1.835932zm21.10789 16.291417a25.004122 10.606446 0 0 1 -20.45083 4.917942c6.94254-.03902 13.21392-.690613 18.10668-1.834072.78061-1.033854 1.56285-2.055415 2.34415-3.08387z" filter="url(#j)" opacity=".75"/></g></g><g><path d="m44.60463 24.667117c-9.49871 5.446571-15.66868 12.493026-13.78159 15.739208l46.99951 73.405835.002.004c2.34996 3.57245 5.91977 5.48631 9.57977 5.95915 3.65955.47328 7.42336-.38644 10.64345-2.14775 3.21986-1.76066 5.93825-4.45068 7.30722-7.84765 1.36106-3.37626 1.23899-7.45925-.99066-11.374698l-39.14464-77.722237c-.64859-1.115645-2.1646-1.637176-4.26156-1.619898-4.00242.03307-10.12066 2.029846-16.354 5.60404z" fill="#cddde5" opacity=".12"/><g transform="matrix(.99692938 -.07830585 .07830585 .99692938 -2.485204 10.497523)"><path d="m65.291107 48.613055c-1.02356.01776-2.116558.246053-3.289722.733805h-.000517c-3.110421 1.29318-4.552818 3.429563-5.075659 5.969662-.486132 2.36265-.08117 5.087589.842843 7.539591 3.090827.243108 5.197812 1.138872 6.368603 2.722832.200356.271058.370964.555786.510563.851627 1.134857.141343 2.72208-.123531 4.208012-.741557 1.317098-.547832 2.548269-1.362726 3.38429-2.228287-.125289-.345022-.219424-.70453-.273885-1.080555-.287593-1.980415.532373-4.186698 2.593123-6.520015-1.036219-2.251641-2.664835-4.456837-4.684468-5.807915-1.365081-.913421-2.877249-1.468796-4.583183-1.439188zm3.195154 7.135482c.71274.0037 1.388177.425581 1.678967 1.124996.387679.932464-.05511 2.004424-.987537 2.392102-.932568.387721-2.001278-.05599-2.389001-.988571-.387677-.932464.05288-1.999729.985469-2.387451.233141-.09693.474522-.142304.712102-.141076zm-5.645134 2.347143c.712698.0037 1.387657.42554 1.678451 1.124996.387678.932464-.05448 2.00438-.98702 2.392102-.932465.387679-2.001282-.05605-2.389002-.98857-.387679-.932467.05288-2.000248.98547-2.387968.233117-.09692.474535-.141789.712101-.14056zm3.417879 2.436027c1.199869 1.08339 2.267553 2.222075 3.079916 3.466455-1.059497.07956-2.007127.425514-2.793628 1.161687-.220823-1.490506-.373879-3.009883-.286288-4.628142zm-1.083617 8.030691c.05426.744187.0028 1.524947-.129951 2.326833 1.553119.308551 3.758161-.03254 5.713841-.871431 1.922672-.824923 3.519505-2.1285 4.181352-3.220227-.605528-.436658-1.152517-.930141-1.611746-1.479698-1.029611.955486-2.319048 1.725547-3.676004 2.28983-1.471063.611843-3.023749.991764-4.477531.95459zm-6.472696 4.72859c-.429239 1.524222-.340353 2.827912.516019 4.122422 7.253243-2.35393 18.071418-3.70102 25.655606-3.41095.460042-1.524855.314947-2.838484-.5419-4.16744-7.191803 2.169898-17.930607 4.022754-25.629682 3.456072zm22.055966-9.169918c-1.672697 1.949001-3.772784 3.946109-6.073771 5.876853 2.254689-.407837 4.439393-.885469 6.432012-1.397655.749011-.433944 1.485367-.838861 2.200608-1.206095-.314228-1.519918-1.17571-2.502388-2.559008-3.272918zm-18.31232 14.48468c-.758979.44502-1.499391.86344-2.212958 1.24849.337711 1.54479 1.166949 2.57411 2.572203 3.32333 1.759193-1.90901 3.919448-3.95215 6.273764-5.95224-2.333171.38338-4.589719.84907-6.633009 1.38042z" fill="#cddde5" opacity=".33"/><path d="m64.76194 48.083888c-1.023559.01776-2.116559.246054-3.289722.733805h-.000516c-3.110418 1.293179-4.552819 3.429565-5.07566 5.969662-.486131 2.362648-.08117 5.087592.842843 7.539592.119531.0094.234809.02172.3514.03307-.795816-2.319358-1.118679-4.83894-.665076-7.043497.52284-2.540097 1.965241-4.676483 5.075659-5.969662h.000517c1.173163-.487752 2.266163-.716045 3.289722-.733805 1.705932-.02961 3.218103.525768 4.583183 1.439188.479919.321053.936883.691451 1.369942 1.098124-.583981-.618227-1.218653-1.172085-1.899109-1.62729-1.36508-.91342-2.877251-1.468797-4.583183-1.439189zm4.714958 7.961788c.0608.09304.114936.192313.159163.29869.387679.932463-.05511 2.004424-.987536 2.392102-.579238.240822-1.210642.160481-1.699121-.15813.472254.721576 1.403093 1.030376 2.228287.687297.932426-.387678 1.375216-1.459639.987537-2.392102-.146579-.352556-.39077-.634352-.68833-.827857zm-5.64565 2.347144c.06078.09304.114935.192306.159163.298689.387678.932464-.05448 2.004381-.98702 2.392103-.579173.240795-1.210621.160475-1.699121-.15813.47227.721537 1.403184 1.030339 2.228288.687296.932539-.387721 1.374697-1.459639.98702-2.392102-.146581-.352576-.390895-.634357-.68833-.827856zm3.133142 2.800346c.69821.724147 1.324577 1.478084 1.845365 2.27583-.880945.06615-1.684335.31753-2.382283.823205.03634.290483.07518.579822.117822.867648.7865-.736173 1.734132-1.082127 2.793628-1.161687-.648958-.994075-1.462475-1.920129-2.374532-2.804996zm13.26534 2.39882c-1.672695 1.948999-3.773063 3.945902-6.074048 5.876644.495935-.08971.987498-.183485 1.475362-.27957 1.929287-1.676345 3.687666-3.389824 5.127853-5.067908.403544.224812.761305.468444 1.075386.737423-.417501-.491702-.952364-.90326-1.604553-1.266589zm-16.860987 1.160136c.08336.09649.163193.195442.238746.297656.200355.271058.370964.555787.510563.851627.08157.01016.166141.01779.252181.02377-.07306-.117503-.150096-.233292-.233578-.346232-.222066-.300433-.47816-.575664-.767912-.826823zm9.43095.03669c-1.02961.955485-2.31879 1.7255-3.675745 2.289783-1.471062.611842-3.023983.991637-4.477763.954463.05426.744187.003 1.525105-.129708 2.32699.188682.03748.386936.06513.593246.08372.08271-.645743.109786-1.275914.06563-1.881539 1.45378.03717 3.006701-.342621 4.477763-.954464 1.34731-.560272 2.627574-1.323553 3.653523-2.269629-.178539-.176561-.348178-.359324-.506945-.54932zm.752408.783415c.249133.272652.520352.530053.809253.773079.01637-.02557.03475-.05164.05013-.077-.302162-.217895-.590002-.44998-.85938-.696081zm10.251055 3.733622c-7.191796 2.169896-17.930377 4.022801-25.629444 3.45612-.429239 1.524224-.340641 2.827714.51573 4.122229.06361-.02065.12963-.04049.193787-.06098-.534063-1.104799-.544535-2.238867-.180351-3.532085 7.629489.561561 18.241724-1.253288 25.431524-3.397725-.09573-.195997-.204916-.391624-.331246-.587561zm-15.252817 7.390247c-2.333168.383376-4.589899.848932-6.633187 1.380277-.758978.445015-1.499218.863455-2.212784 1.248503.242585 1.109662.740206 1.952467 1.521354 2.617411-.482603-.570745-.809761-1.253767-.992188-2.088244.713567-.385048 1.453807-.803489 2.212785-1.248503 1.621838-.42175 3.379009-.801021 5.201233-1.131714.297483-.259674.598368-.519113.902787-.77773z" fill="#788287" filter="url(#i)"/><path d="m71.773399 51.679534c1.149307 1.216706 2.098265 2.687609 2.785359 4.180624-2.060748 2.333314-2.880716 4.539602-2.593123 6.520015.05446.376025.148596.735533.273885 1.080555-.83602.86556-2.067193 1.680456-3.38429 2.228287-1.379124.573603-2.844845.842567-3.955831.765328.102286.164503.195553.332822.276986.505396 1.134856.141343 2.722082-.123532 4.208012-.741557 1.317097-.547831 2.54827-1.362728 3.38429-2.228288-.125289-.345021-.219424-.704529-.273885-1.080554-.287593-1.980413.532375-4.186701 2.593123-6.520016-.789984-1.716587-1.925158-3.40507-3.314526-4.70979zm-3.287138 4.069003c-.23758-.0012-.478961.04415-.712102.141076-.932588.387722-1.373146 1.454988-.985469 2.387451.1469.353335.391912.636091.68988.830441-.06145-.09389-.116073-.1939-.160713-.301274-.387677-.932463.05288-1.999729.985469-2.387451.233141-.09693.474522-.142305.712101-.141077.353468.0018.697885.106761.990638.29714-.338959-.518696-.915469-.823169-1.519804-.826306zm-5.645134 2.347143c-.237566-.0012-.478984.04364-.712101.14056-.932589.38772-1.373148 1.455502-.98547 2.387968.146899.353312.3919.636094.689881.83044-.06145-.09388-.116073-.193906-.160714-.301273-.387679-.932466.05288-2.000249.985469-2.387968.233117-.09692.474536-.141789.712102-.14056.353446.0018.697491.106766.99012.297139-.338856-.518712-.914987-.823169-1.519287-.826306zm3.417879 2.436027c-.08759 1.618258.06547 3.137637.286288 4.628142.132544-.124063.269883-.23599.411344-.338481-.15186-1.213782-.239141-2.454732-.168465-3.760494.24135.217921.475732.438653.705383.661458-.390906-.405427-.803892-.801774-1.23455-1.190625zm-8.139555 2.357479c.05707.166323.115939.332024.177767.496094 2.504581.196997 4.3628.822993 5.600692 1.896008-1.158495-1.340967-3.074798-2.128766-5.778459-2.392102zm24.243999 2.498556c.467874.551027.78791 1.203477.953947 2.006596-.71524.367233-1.451372.772184-2.200382 1.206128-1.554326.399526-3.226676.777011-4.956804 1.117761-.31147.270635-.626353.540358-.946195.808736 2.254686-.407837 4.439548-.885145 6.432165-1.397331.749011-.433943 1.485143-.838894 2.200383-1.206128-.222523-1.07634-.720744-1.88287-1.483114-2.535762zm-8.505424.459403c-.0073.0068-.01488.01338-.02222.02015.07967.07879.160654.156442.243913.232544-.07576-.08296-.150091-.167013-.221692-.252698zm1.032495 1.027328c-.688575 1.075619-2.252997 2.337713-4.131014 3.143477-1.71809.736977-3.628713 1.089347-5.120618.954981-.01892.14774-.03936.296146-.06408.445451 1.553118.30855 3.758186-.03237 5.713864-.871265 1.92267-.824922 3.519294-2.12875 4.18114-3.220475-.200132-.14432-.393005-.295462-.579293-.452169zm9.970968 3.489709c-.06499.01961-.132352.03884-.197921.0584.553558 1.133363.603054 2.279593.21084 3.579626-7.517664-.287525-18.210925 1.034454-25.462012 3.350183.0954.19735.205591.393952.33538.590145 7.253236-2.353927 18.071618-3.701231 25.655799-3.411161.460041-1.524854.31476-2.838233-.542086-4.167188zm-15.252816 7.390247c-.481242.07908-.958431.16263-1.431954.248564-2.003185 1.748586-3.839526 3.512196-5.371249 5.174361-.395824-.211038-.744272-.445157-1.050582-.7059.410796.485823.933596.890564 1.579749 1.235067 1.759191-1.909005 3.919722-3.952003 6.274036-5.952092z" fill="#cddde5" filter="url(#h)"/></g><g fill="#788187"><path d="m32.533374 39.40697 47.277766 73.09669c1.95553 2.97285 4.84986 4.51402 7.8972 4.90771 3.09163.39985 6.37831-.333 9.19995-1.87637h.002c2.81973-1.54186 5.11659-3.86103 6.23937-6.64713 1.09305-2.71141 1.04474-5.97289-.85059-9.301229l-.0295-.0522-38.760066-77.853245 3.420983-1.996654 39.547773 77.627813c2.51637 4.478255 2.70103 9.345795 1.08262 13.360425-1.61516 4.00785-4.75319 7.06808-8.37313 9.04751-3.61809 1.979-7.85966 2.96628-12.08662 2.42001-4.27262-.552-8.51747-2.83993-11.26183-7.01198l-.0274-.0424-.0114-.016-46.688271-73.664666z"/><path d="m60.942463 17.079298c.0058-.000047.01047.0033.01621.0032 2.426302-.01716 4.785551.561774 5.971809 2.601993.864806 1.487649.704412 3.23969.115278 4.774388-.589126 1.534699-1.609006 3.036516-2.958301 4.57749-2.69859 3.081949-6.757598 6.293195-11.665975 9.107789-4.908152 2.814227-9.737928 4.698149-13.770243 5.477366-2.016157.389608-3.833988.516449-5.45873.257108-1.624751-.259343-3.215426-.985767-4.080257-2.47344-.864778-1.487626-.704388-3.239708-.115278-4.774388.58911-1.534681 1.61066-3.036557 2.95993-4.57749 2.69854-3.081816 6.755969-6.293268 11.664354-9.107739 6.442115-3.693912 12.678405-5.827925 17.321178-5.866282zm.0325 3.967267c-3.362335.02778-9.362865 1.887832-15.387404 5.342303-4.590316 2.632093-8.366711 5.666597-10.656063 8.281139-1.144667 1.307271-1.905169 2.516615-2.239024 3.386333-.333855.869719-.237863 1.215169-.159113 1.350628.07872.135412.349234.404272 1.28269.55327.933448.148997 2.370596.09699 4.08512-.234326 3.429048-.66264 7.964057-2.393143 12.554116-5.024987 4.590333-2.632217 8.366645-5.668122 10.656063-8.282767 1.144709-1.307321 1.906773-2.514951 2.240645-3.384706.33388-.869754.236226-1.21682.157501-1.352255-.108262-.186196-.77273-.649148-2.534531-.634632z"/><path d="m63.398642 13.767559v.00044c4.376545.0013 7.256968 1.276618 8.394218 3.233405 1.30032 2.236188.68645 5.985569-2.429334 10.488546-3.115552 4.502731-8.524769 9.391317-15.374693 13.318958-6.849932 3.926902-13.818011 6.134773-19.302021 6.563252-5.484527.428478-9.060606-.917997-10.360926-3.154183-1.2998-2.236188-.68644-5.985385 2.42935-10.488116 3.116031-4.502977 8.525382-9.3915 15.375547-13.319388 6.849932-3.927643 13.817528-6.135634 19.302038-6.564114.685176-.05356 1.340782-.07879 1.965821-.07879zm-2.440102 5.295723c-4.002545.03307-10.120407 2.029799-16.353721 5.603993-9.498735 5.44657-15.668833 12.49289-13.781757 15.739061 1.887071 3.246173 11.117068 1.462231 20.615279-3.983846 9.498735-5.446818 15.668836-12.49332 13.781757-15.739493-.648657-1.115624-2.164472-1.636993-4.261558-1.619715z"/></g><g opacity=".5" transform="matrix(-1 0 0 1 129.00405 -1.362689)"><path d="m1095.8281 343.06068c-2.3238-6.05371-3.023-13.21.5449-19.34766 4.9057-8.43716 14.4972-10.6755 23.9454-10.59766 18.0351.14901 41.905 8.09506 66.6211 21.9258-24.6587-14.47951-50.2555-22.16948-69.1856-23.6484-9.183-.63585-25.808-.1695-30.6916 7.47547-2.0937 3.60353-1.9588 14.42377 14.5147 35.96101.5364.0742-3.425-5.71486-5.7489-11.76856zm146.0821 64.27135c-3.5681 6.13787-10.0842 9.05793-16.4883 10.08008s-13.4174.51632-21.1524-.97852c-15.4699-2.98966-33.8219-10.20403-52.7925-20.41002 24.5335 14.71526 49.8647 22.63625 68.7649 24.11297 18.9722 1.4822 28.5948-3.87048 30.6894-7.47266 2.0935-3.60163 1.9605-14.42209-8.6395-27.32608 2.4832 8.69827 3.1863 15.8566-.3816 21.99423z" fill="#cddde5" filter="url(#g)" opacity=".66" transform="matrix(.26458334 0 0 .26458334 -228.35295 -64.803352)"/><path d="m213.81836 78.734375c-.18043 8.102206 3.43484 18.523079 11.59375 30.314455 11.77531 17.01819 32.2199 35.49521 58.10937 50.33984 25.88951 14.84184 52.22616 23.18719 72.95313 24.80664 20.72892 1.61945 34.24556-3.47015 39.16016-11.92187 1.68871-2.90529 2.5227-6.48683 2.41211-10.62696-.0797 3.59274-.90287 6.72966-2.41211 9.32618-4.9146 8.45172-18.43124 13.54132-39.16016 11.92187-20.72697-1.61945-47.06362-9.96481-72.95313-24.80664-25.88947-14.84463-46.33406-33.31969-58.10937-50.33789-7.72813-11.168801-11.38259-21.111479-11.59375-29.015625z" filter="url(#f)" opacity=".5" transform="scale(.26458334)"/><path d="m257.17969 75.900391c-7.926-.0653-13.65581 1.904562-16.10742 6.121093-.96436 1.658896-1.36664 3.583172-1.26172 5.716797.0867-1.620184.49715-3.100803 1.26172-4.416015 2.45161-4.216532 8.18142-6.186397 16.10742-6.121094 15.12773.124989 38.24961 7.670923 61.80859 21.179687 31.0471 17.802391 52.68121 40.125281 53.35156 53.771481.72432-13.49333-21.29776-36.69263-53.35156-55.072262-23.55898-13.508764-46.68086-21.054698-61.80859-21.179687z" filter="url(#e)" opacity=".5" transform="scale(.26458334)"/></g><g stroke-width=".808651" transform="matrix(-1.0714692 .61741411 .61741411 1.0714692 106.8847 -33.796649)"><path d="m54.830414 9.2846366c-.591745.3574776-1.134196.7787314-1.597539 1.2861324-1.343259 1.470989-2.126049 3.569048-2.190608 5.560028-.048 1.480986 1.357852 4.23295 1.357852 4.23295l.405429.988997c.332085.502198.563351.827455.639921.889565.58508.474598 1.606661 1.013105 2.936517 1.46692 2.65971.907631 6.531375 1.510005 10.810319 1.500981 4.278602-.0092 8.154861-.627689 10.824961-1.547844 1.335047-.46008 2.363034-1.003634 2.956899-1.484896.04277-.03466.231963-.138679.493375-.277063l.586606-1.586683s1.274647-2.846451 1.190847-4.346341c-.10908-1.95225-.831344-4.024652-2.170623-5.449263-1.565878-1.665659-3.995302-2.3317064-6.20266-2.9266878-2.532518-.6826293-5.217235-.6753049-7.840142-.6736889-2.645328.0016-5.360997-.032531-7.905864.689529-1.454275.4126261-2.993451.8909136-4.29529 1.6773643z" fill="#392f2d"/><path d="m57.528847 13.128044c-.268346.159926-.512648.351705-.720055.58758-.856839.97444-1.14623 2.449473-1.06453 3.744475.10003 1.585463 1.246117 2.922601 1.869257 4.383903.355842.834482.606104 1.421798 1.067355 2.503476 2.395873.540088 5.341092.869418 8.511431.862732 3.351709-.0072 6.453563-.38947 8.92502-.996585.380601-1.029134.590641-1.596498.885869-2.394792.537349-1.452977 1.553157-2.810861 1.611887-4.358903.0492-1.297134-.198466-2.782378-1.070025-3.74433-.903729-.997452-2.443609-1.180562-3.754447-1.486097-2.201398-.513114-4.498521-.549136-6.758938-.549155-2.260408-.000018-4.565012.0047-6.75891.549014-.914549.226911-1.938873.418903-2.743914.898682z" fill="url(#a)"/></g></g></g></svg>