<svg height="500" viewBox="0 0 500 500" width="500" xmlns="http://www.w3.org/2000/svg" xmlns:xlink="http://www.w3.org/1999/xlink"><filter id="a" color-interpolation-filters="sRGB" height="1.043651" width="1.070782" x="-.035391" y="-.021825"><feGaussianBlur stdDeviation="1.8931878"/></filter><filter id="b" color-interpolation-filters="sRGB" height="1.069673" width="1.044083" x="-.022042" y="-.034837"><feGaussianBlur stdDeviation="2.8899654"/></filter><linearGradient id="c" gradientUnits="userSpaceOnUse" spreadMethod="reflect" x1="178.00003381819" x2="275.71676671382" y1="60.35445857313" y2="125.37555819903"><stop offset="0" stop-color="#a06122"/><stop offset=".511236" stop-color="#efbd76"/><stop offset="1" stop-color="#b57720"/></linearGradient><linearGradient id="d" gradientUnits="userSpaceOnUse" spreadMethod="reflect" x1="57" x2="110.68555" xlink:href="#e" y1="150" y2="182.26302"/><linearGradient id="e"><stop offset="0" stop-color="#fff"/><stop offset="1" stop-color="#f9f8ec"/></linearGradient><linearGradient id="f" gradientUnits="userSpaceOnUse" spreadMethod="reflect" x1="124.627" x2="323.46756" xlink:href="#e" y1="167.4528" y2="180.57039"/><path d="m250.0004 119.26127s-46.6665-.57372-68.8536 5.58594c-9.7433 2.70497-27.1718 8.21805-27.1718 13.48437 0 0-12.9291 22.62103-20.8457 32.91602-4.685 6.09251-10.6108 11.12997-15.6582 16.92578-5.0059 5.7481-10.5505 11.16351-14.4922 17.6875-2.1849 3.61619-3.606493 7.664-4.943393 11.67187-1.3452 4.03256-2.2415 8.20793-3.0723 12.37696-1.716 8.61164-3.2046 17.29656-3.9375 26.04687-.7315 8.73363-.8624 17.5346-.4492 26.28906.585 12.39488 1.5214 24.86506 4.1407 36.99414 2.5894 11.99067 5.2157 24.3884 11.363193 35.00391 9.3912 16.21664 21.0245 33.65337 37.7383 41.66992l106.1817 9.82813 106.1816-9.82813c16.7138-8.01655 28.3472-25.45328 37.73828-41.66992 6.1475-10.61551 8.77392-23.01324 11.36328-35.00391 2.61925-12.12908 3.55559-24.59926 4.14062-36.99414.4132-8.75446.28031-17.55543-.45117-26.28906-.73288-8.75031-2.21954-17.43523-3.93554-26.04687-.83075-4.16903-1.72906-8.34441-3.07422-12.37696-1.33693-4.00787-2.75655-8.05567-4.94141-11.67187-3.94172-6.52398-9.48828-11.93939-14.49414-17.6875-5.0474-5.7958-10.9713-10.83328-15.6562-16.92578-7.9166-10.29501-20.8458-32.91602-20.8458-32.91602 0-5.26632-17.4304-10.7794-27.1738-13.48437-22.1871-6.15966-68.8515-5.58594-68.8515-5.58594z" fill="#efbd76" opacity=".1" stroke-width="3.77952"/><g fill-rule="evenodd"><path d="m250.00195 110.26301s-17.68711-.1234-26.5.49023c-14.99398 1.04402-30.10203 2.10496-44.76172 5.42188-6.29759 1.42488-12.43608 3.60584-18.35937 6.17578-3.0659 1.33019-6.42293 2.43553-8.82813 4.75586-2.33131 2.24907-4.84647 3.9005-5.97265 7.20703-9.84189 7.28933-12.06501 21.67614-19.58594 31.44922-4.57589 5.94614-10.3868 10.8368-15.30859 16.5-5.3395 6.1439-11.200113 11.97791-15.412108 18.94336-2.529198 4.18265-4.215693 8.84613-5.775391 13.47851-1.476399 4.38492-2.454929 8.92965-3.361328 13.4668-1.786598 8.94339-3.320579 17.96626-4.080078 27.05469-.7625 9.12383-.905403 18.31759-.470703 27.46289.612699 12.89004 1.581187 25.86312 4.333984 38.4707 2.815497 12.89489 5.693053 26.22982 12.373047 37.61328 10.376687 17.68309 24.141077 34.58252 41.634757 45.27539.9038.55241 1.99951.74896 3.0625.84766 0 0 71.19106 9.82815 107.01172 9.82812 35.82007-.00003 107.00977-9.82812 107.00977-9.82812 1.063-.0987 2.1587-.29525 3.0625-.84766 17.49368-10.69287 31.25806-27.59231 41.63476-45.27539 6.67999-11.38346 9.55754-24.71838 12.37305-37.61328 2.75277-12.60758 3.71932-25.58066 4.33203-38.4707.43471-9.14531.29176-18.33906-.4707-27.46289-.7595-9.08843-2.2915-18.1113-4.07813-27.05469-.90638-4.53716-1.88686-9.08188-3.36328-13.4668-1.55974-4.63237-3.24615-9.29586-5.77539-13.47851-4.21197-6.96544-10.07062-12.79947-15.41015-18.94336-4.92175-5.66321-10.73466-10.55386-15.31055-16.5-7.52103-9.77307-9.74405-24.15989-19.58594-31.44922-1.12617-3.30653-3.64134-4.95796-5.97265-7.20703-2.4052-2.32033-5.76223-3.42567-8.82813-4.75586-5.92319-2.56994-12.05993-4.7509-18.35742-6.17578-14.65979-3.31692-29.76969-4.37785-44.76367-5.42188-8.81219-.61359-26.4961-.49023-26.4961-.49023zm0 17.99804s17.1595-.10354 25.71289.47657c13.63819.92495 27.38499 1.82467 40.73047 4.7832 4.9875 1.10568 9.88214 2.95375 14.54883 4.8125l10.05274 9.67578c3.28539 5.70993 11.67656 19.70865 18.68945 28.72656 4.82969 6.21052 10.82911 11.42164 16.0039 17.34766 4.6732 5.35163 9.90933 10.3473 13.57813 16.43164 1.83947 3.05063 2.99487 6.48177 4.10937 9.86523 1.21256 3.68113 2.02817 7.48763 2.78321 11.28907 1.64455 8.27992 3.08866 16.627 3.79492 25.03906.70046 8.34296.82146 16.75014.42969 25.11328-.55744 11.89974-1.46534 23.86856-3.94922 35.51953-2.36354 11.0865-4.7827 22.52026-10.35352 32.39258-8.13469 14.41591-19.62359 30.55093-32.67578 37.39453 0 0-68.81971 9.65231-103.45508 9.65234-34.63606.00003-103.45898-9.65234-103.45898-9.65234-13.05219-6.8436-24.53914-22.97863-32.67383-37.39453-5.57079-9.87233-7.98992-21.30608-10.35352-32.39258-2.48389-11.65096-3.39367-23.61978-3.951163-35.51953-.391799-8.36314-.270812-16.77032.429688-25.11328.706295-8.41206 2.150315-16.75915 3.794915-25.03906.7551-3.80144 1.57256-7.60794 2.78516-11.28907 1.1145-3.38345 2.26792-6.81461 4.10742-9.86523 3.6687-6.08435 8.90493-11.08001 13.57813-16.43164 5.17479-5.92602 11.19441-11.12151 16.0039-17.34766 7.11799-9.2146 15.57398-23.69241 18.85938-29.40234l9.88281-9c4.66669-1.85875 9.56319-3.70682 14.55078-4.8125 13.34539-2.95853 27.09043-3.85826 40.72852-4.7832 8.55409-.58015 25.71679-.47657 25.71679-.47657z" fill="#937e6c" stroke-width=".999999"/><path d="m221.69727 238.63801c-28.33373.1152-56.69907.91462-84.58789 5.45507-14.63595 2.38282-41.608063 7.1309-46.062501 11.86329h-.02148c-.000654.008-.0013.0156-.002.0234-.39613.42789-.675781.85546-.675782 1.28125 0 .37456.206685.75061.515625 1.12696-.563166 7.93478-.662021 15.91417-.287109 23.85742.584999 12.39487 1.521327 24.86507 4.140625 36.99414 2.589397 11.99066 5.21579 24.38841 11.363282 35.00391 9.39119 16.21662 21.0245 33.65337 37.73828 41.66992l106.18168 9.82815 106.18164-9.82812c16.71378-8.01655 28.34721-25.4533 37.73828-41.66992 6.1475-10.6155 8.77393-23.01325 11.36328-35.00391 2.61925-12.12907 3.5556-24.59927 4.14063-36.99414.37482-7.94131.27401-15.9187-.28906-23.85156.312-.37827.52148-.75635.52148-1.13282 0-.4277-.28207-.8573-.68164-1.28711-.00049-.006-.001-.0117-.002-.0176h-.0156c-4.45444-4.73239-31.42655-9.48047-46.0625-11.86329-37.1851-6.05393-75.21788-5.45507-112.89258-5.45507-9.41867 0-18.86011-.0384-28.30468 0z" fill="url(#d)"/><path d="m409.65604 257.26105c.00001 5.14261-30.77856 10.56636-46.76159 13.16848-37.18515 6.05395-75.21778 5.45457-112.89251 5.45457s-75.70736.59938-112.89251-5.45457c-15.98303-2.60212-46.761594-8.02587-46.761587-13.16848s30.778577-10.56635 46.761617-13.16848c37.18514-6.05394 75.21775-5.45456 112.89248-5.45456s75.70734-.59938 112.89248 5.45456c15.98304 2.60213 46.76161 8.02587 46.76162 13.16848z" fill="url(#f)"/><path d="m221.69727 238.63801c-28.33373.1152-56.69907.91462-84.58789 5.45507-15.98303 2.60213-46.761713 8.02537-46.76172 13.16797-.000007 5.14261 30.7787 10.56585 46.76172 13.16797 28.90814 4.70641 58.32522 5.38316 87.6914 5.45508-25.22801-.1152-50.48452-.91462-75.3164-5.45508-14.23109-2.60212-41.63673-8.02536-41.63672-13.16797.00001-5.1426 27.40562-10.56584 41.63672-13.16797 24.83187-4.54045 50.08839-5.33987 75.3164-5.45507-1.03546.003-2.06795-.004-3.10351 0zm53.50585 0c25.22801.1152 50.48454.91462 75.31641 5.45507 14.23111 2.60213 41.63671 8.02537 41.63672 13.16797.00001 5.14261-27.40563 10.56585-41.63672 13.16797-24.83188 4.54046-50.08839 5.33988-75.31641 5.45508 29.36619-.0719 58.78327-.74867 87.69141-5.45508 15.98302-2.60212 46.76173-8.02536 46.76172-13.16797-.00001-5.1426-30.77869-10.56584-46.76172-13.16797-28.90813-4.70639-58.32523-5.38316-87.69141-5.45507z" fill="#deddd6" stroke-width="32"/></g><path d="m356.182 395.91361c49.1879-51.02449 63.59813-112.58195 41.72178-188.49589l-7.90378 20.08228s-7.91645-9.05872-11.5-6.5c-10.76112 7.68363 7.2295 25.77731 7.25 39 .0136 8.81009-2.31762 17.53233-4.75 26-1.21336 4.22398-.48726 12.49893-4.875 12.25-12.84651-.72883-3.94059-25.96652-10.125-37.25-2.94886-5.38019-12.5-19.74999-12.375-13.625s2.375 30.125 2.375 32.625-10.27721-6.43499-14.875-4.125c-5.46913 2.74778-5.92444 11.04463-6.625 17.125-.92468 8.02561 4.5 23.5 3.375 24s-10.3039-3.94435-12.375-8.5c-5.83295-12.83031 6.5-27.00002 4.875-42-1.625-14.99999-9.23011 19.78995-17.375 18-4.8263-1.06065-.75-18-4.875-14s-.40543 21.21938-8.125 26c-4.69978 2.91051-16-10.24999-16.375-2.625s15.2654 23.19562 14.375 36.125c-.60894 8.8424-4.46067 21.25733-13.125 23.125-7.81294 1.68415-19.375-14.125-19.375-14.125s-1.59551 30.66474-7.5 44.5c-5.45425 13.68786-16.40031 10.01526-29.27734 9.15234-8.87772.43452-18.9627-5.07204-18.83789-14.96679-1.1523-8.82538-.34247-17.55098 1.43359-26.20508.19015-9.90428-12.09769-13.03381-20.06836-11.96289-8.50639-.0865-10.56566 10.517-18.29492 12.27539-5.90343 4.00966-15.54781 1.05651-13.64649-7.31055 2.79319-9.91547-6.41924-13.40643-14.18554-15.12304-6.09604-3.09723 6.50704-15.72915-4.32032-13.03711-5.78251 2.80359-9.33896 9.11774-10.8125 15.24023-1.33235 5.69085-.3945 12.69507-4.54492 17.21875-8.85742 3.48003-7.70468-10.71266-11.16211-15.46875-3.13444-7.41652-.85687-15.808 4.02149-21.87891 3.48722-3.36841 5.75272-15.74141-1.75-12.71679-6.69027 7.43833-13.65656-.3312-15.60352-6.83399-11.213279 5.39499-7.725526 20.62811-5.292858 31.69336 7.125278 25.8608 26.882348 66.44744 48.160008 72.3372 51.70029 6.92351 117.79511 19.9261 212.36368.00024z" fill="#0e0d0c" filter="url(#b)" opacity=".05"/><path d="m133.22485 392.68684c-5.79443 3.25532-8.4378 11.81589-7.6453 18.41473.679 5.65468 5.4624 10.476 10.1012 13.78022 3.3633 2.39565 7.7529 3.03997 11.8359 3.65625.001.0002 0-.00031 0 0 .001.00034 0 .002 0 .002 10.2018 3.00239 21.1048 2.74269 31.7148 3.46387 23.5415 1.60016 47.166 1.90713 70.7619 1.90723 23.5913.0001 47.2113-.30791 70.7485-1.90625 10.5947-.71945 21.2904-1.20981 31.6695-3.45508 4.3201-.93455 9.2133-1.29572 12.5977-4.13867 4.5531-3.82469 8.116-9.7935 8.4093-15.73262.2846-5.76151-1.57281-13.18825-6.6143-15.99168-13.6006-7.5629-30.61265 5.73828-46.0622 7.60509-23.48168 2.83736-47.09543 5.47737-70.7479 5.44921-22.27055-.0265-44.48215-2.70281-66.602-5.28941-16.80697-1.96533-35.41434-16.05301-50.1671-7.76489z" fill="#937e6c" stroke-width=".999999"/><path d="m153.9743 138.33308s-12.9283 22.6204-20.8449 32.9154c-4.685 6.09252-10.6103 11.12894-15.6577 16.92475-5.0059 5.74811-10.5512 11.16364-14.4929 17.68764-2.1849 3.61619-3.605193 7.66386-4.942093 11.67174-1.3452 4.03256-2.2427 8.20806-3.0735 12.37709-1.716 8.61165-3.2033 17.29682-3.9362 26.04714-.7315 8.73364-.8637 17.53433-.4505 26.2888.585 12.39489 1.5214 24.86596 4.1407 36.99506 2.5894 11.99068 5.2157 24.38746 11.363193 35.00298 9.3912 16.21665 21.0245 33.65336 37.7383 41.66992l106.1816 9.82813 106.1816-9.82813c16.7138-8.01656 28.3472-25.45327 37.73832-41.66992 6.14751-10.61552 8.77382-23.0123 11.36318-35.00298 2.61925-12.1291 3.5557-24.60017 4.14073-36.99506.4132-8.75447.281-17.55516-.45048-26.2888-.73288-8.75032-2.22023-17.43549-3.93624-26.04714-.83075-4.16903-1.7283-8.34454-3.07346-12.37709-1.33693-4.00788-2.7573-8.05554-4.94216-11.67174-3.94172-6.52399-9.48702-11.93952-14.49289-17.68764-5.0474-5.7958-10.9726-10.83224-15.6576-16.92475-7.9166-10.29502-20.845-32.9154-20.845-32.9154l-15.0312-.00057c-4.6667 1.85876-9.5632 3.70682-14.5507 4.8125-13.3455 2.95853-27.0904 3.85825-40.7286 4.78321-8.5534.58011-25.7148.47656-25.7148.47656s-17.1627.10359-25.7168-.47656c-13.6381-.92495-27.3831-1.82468-40.7285-4.78321-4.9876-1.10568-9.8841-2.95374-14.5508-4.8125z" fill="#efbd76" opacity=".1"/><path d="m153.4148 169.5476c-4.63695 14.75646-7.6185 30.0864-9.2944 45.4632-2.8498 26.14797-8.7951 53.71075-1.2195 78.899 6.9993 23.27198 41.1511 60.18105 41.1511 60.18105s-10.2292-42.71288-9.1982-64.3595c.9833-20.64695 4.9016-42.00467 14.5679-60.27559 12.6005-23.81719 54.2725-59.90638 54.2725-59.90638l23.89175-12.33105c-32.38942.97525-64.93916 1.61517-103.97392-11.30917 0 0-7.62471 15.45174-10.19723 23.63844z" fill="#fff" filter="url(#a)" opacity=".25"/><path d="m165.65234 129.91144c-3.22869.00048-14.03399.19205-19.49218 3.95508-10.35619 7.13985-12.49453 21.92777-20.16602 31.89649-4.57589 5.94614-10.3868 10.8368-15.30859 16.5-5.3395 6.1439-11.200113 11.97791-15.412108 18.94336-2.529198 4.18265-4.215693 8.84613-5.775391 13.47851-1.476399 4.38492-2.454929 8.92965-3.361328 13.4668-1.786598 8.94339-3.320579 17.96626-4.080078 27.05469-.7625 9.12383-.905403 18.31759-.470703 27.46289.612699 12.89004 1.581187 25.86312 4.333984 38.4707 2.815497 12.89489 5.693053 26.22982 12.373047 37.61328 10.376687 17.68309 24.141077 34.58252 41.634757 45.27539.9038.55241 1.99951.74896 3.0625.84766 0 0 71.19106 9.82815 107.01172 9.82812 35.82007-.00003 107.00977-9.82812 107.00977-9.82812 1.063-.0987 2.1587-.29525 3.0625-.84766 17.49368-10.69287 31.25806-27.59231 41.63476-45.27539 6.67999-11.38346 9.55754-24.71838 12.37305-37.61328 2.75277-12.60758 3.71932-25.58066 4.33203-38.4707.43471-9.14531.29176-18.33906-.4707-27.46289-.7595-9.08843-2.2915-18.1113-4.07813-27.05469-.90638-4.53716-1.88686-9.08188-3.36328-13.4668-1.55974-4.63237-3.24615-9.29586-5.77539-13.47851-4.21197-6.96544-10.07062-12.79947-15.41015-18.94336-4.92175-5.66321-10.73466-10.55386-15.31055-16.5-7.67159-9.96871-9.80983-24.75664-20.16602-31.89649-5.45819-3.76303-16.26349-3.9546-19.49218-3.95508l-3.35352 8.42188c-4.66669 1.85876-9.56133 3.70682-14.54883 4.8125-13.34548 2.95853-27.09228 3.85824-40.73047 4.7832-8.55339.58011-25.71289.47656-25.71289.47656s-17.1627.10359-25.71679-.47656c-13.63809-.92495-27.38313-1.82467-40.72852-4.7832-4.98759-1.10568-9.88409-2.95374-14.55078-4.8125zm-9.58984 22.54883c1.42065.66249 2.89871 1.2396 4.31836 1.85547 5.92319 2.56958 12.06198 4.74915 18.35937 6.17383 14.65979 3.31655 29.76774 4.37948 44.76172 5.42383 8.81289.61382 26.5.49023 26.5.49023s17.68391.12355 26.4961-.49023c14.99398-1.04436 30.10378-2.10728 44.76367-5.42383 6.29739-1.42468 12.43423-3.60425 18.35742-6.17383 1.3688-.59381 2.79024-1.15472 4.16406-1.78711 4.01625 6.76404 10.14789 16.74206 15.95313 24.20703 4.82969 6.21052 10.82911 11.42164 16.0039 17.34766 4.6732 5.35163 9.90933 10.3473 13.57813 16.43164 1.83947 3.05063 2.99487 6.48177 4.10937 9.86523 1.21256 3.68113 2.02817 7.48763 2.78321 11.28907 1.64455 8.27992 3.08866 16.627 3.79492 25.03906.70046 8.34296.82146 16.75014.42969 25.11328-.55744 11.89974-1.46534 23.86856-3.94922 35.51953-2.36354 11.0865-4.7827 22.52026-10.35352 32.39258-8.13469 14.41591-19.62359 30.55093-32.67578 37.39453 0 0-68.81971 9.65231-103.45508 9.65234-34.63606.00003-103.45898-9.65234-103.45898-9.65234-13.05219-6.8436-24.53914-22.97863-32.67383-37.39453-5.57079-9.87233-7.98992-21.30608-10.35352-32.39258-2.48389-11.65096-3.39367-23.61978-3.951163-35.51953-.391799-8.36314-.270812-16.77032.429688-25.11328.706295-8.41206 2.150315-16.75915 3.794915-25.03906.7551-3.80144 1.57256-7.60794 2.78516-11.28907 1.1145-3.38345 2.26792-6.81461 4.10742-9.86523 3.6687-6.08435 8.90493-11.08001 13.57813-16.43164 5.17479-5.92602 11.19441-11.12151 16.0039-17.34766 5.75507-7.45023 11.73449-17.35994 15.79883-24.27539z" fill="#937e6c" fill-rule="evenodd" stroke-width=".999999"/><path d="m360.07422 404.02863s-23.74739 3.98331-35.73047 5.00195c-24.70305 2.09993-49.54966 2.26953-74.3418 2.26953s-49.63874-.16969-74.3418-2.26953c-11.98372-1.01865-23.80782-3.39071-35.73242-5.00195-2.24769 1.68079-5.76795 2.49337-5.63668 5.00195.31915 6.09889 9.20092 8.46473 14.8984 10.66406 7.95483 3.0707 16.90586 2.32896 25.4102 2.94922 25.07885 1.82912 50.25684 2.26759 75.4023 2.26758 25.14483-.00001 50.32218-.43861 75.4004-2.26758 8.50497-.62027 17.45667.12167 25.4121-2.94922 5.69749-2.1993 14.57977-4.56515 14.8984-10.66406.13108-2.50907-5.63863-5.00195-5.63863-5.00195z" fill="#ccb799"/><path d="m128.7061 146.71728c-3.77509 5.94735-4.4795 13.7026-4.0791 20.73552.1977 3.47148 1.3517 6.97188 3.1622 9.94044 1.5679 2.57083 4.0294 4.51875 6.4001 6.3755 3.8876 3.0449 8.1133 5.77048 12.6652 7.68487 8.5493 3.59554 17.7896 5.47531 26.9531 6.90625 25.1013 3.91971 76.1924 4.49218 76.1924 4.49218s51.0911-.57247 76.1924-4.49218c9.1636-1.43094 18.4038-3.31071 26.9531-6.90625 4.552-1.91439 8.7776-4.63997 12.6653-7.68487 2.3706-1.85675 4.8321-3.80467 6.4-6.3755 1.8105-2.96856 2.9646-6.46896 3.1622-9.94044.4005-7.03292-.30623-14.7867-4.079-20.73552-3.86949-6.10131-17.45416-12.85076-17.45416-12.85076l-22.84379 4.46679c-4.6667 1.85876-9.5632 3.70682-14.5507 4.8125-13.3455 2.95853-27.0904 3.85825-40.7286 4.78321-8.5534.58011-25.7148.47656-25.7148.47656s-17.1627.10359-25.7168-.47656c-13.6381-.92495-27.3831-1.82468-40.7285-4.78321-4.9876-1.10568-9.8841-2.95374-14.5508-4.8125l-23.42577-4.01952s-13.13295 6.5098-16.87398 12.40349z" fill="#937e6c" fill-rule="evenodd"/><path d="m205.45975 147.42902c-13.75802-.0651-27.98891-.92617-38.3125-.093-5.15347.41591-10.56717.43092-15.31057 2.48828-2.8819 1.24996-6.1283 2.91321-7.4609 5.75781-2.0798 4.4396-2.4069 10.78443.5469 14.69726 6.6775 8.84529 20.7245 8.2367 31.61519 10.29102 24.13998 4.55353 73.46485 4.28711 73.46485 4.28711s49.32487.26642 73.46484-4.28711c10.89069-2.05432 24.93774-1.44573 31.61524-10.29102 2.95389-3.91283 2.62667-10.25766.54687-14.69726-1.3326-2.8446-4.57904-4.50785-7.46094-5.75781-4.74329-2.05736-10.15695-2.07237-15.31054-2.48828-27.52958-2.22171-82.85547 1.0696-82.85547 1.0696s-21.61294-.86809-44.54297-.97657z" fill="#ccb799" fill-rule="evenodd"/><path d="m151.55465 149.55989c2.4052 2.32032 5.7603 3.42581 8.8262 4.75585 5.9232 2.56958 12.062 4.74915 18.3594 6.17383 14.6598 3.31655 29.7696 4.37948 44.7636 5.42383 8.8129.61382 26.4981.49024 26.4981.49024s17.6839.12354 26.4961-.49024c14.994-1.04436 30.1038-2.10728 44.7637-5.42383 6.2974-1.42468 12.4361-3.60425 18.3593-6.17383 3.0659-1.33004 6.421-2.43553 8.8262-4.75585 3.1217-3.01157 6.5801-4.94542 6.5801-11.22657s-3.4584-8.21499-6.5801-11.22656c-2.4052-2.32032-5.7603-3.42567-8.8262-4.75586-5.9232-2.56994-12.0618-4.75089-18.3593-6.17578-14.6598-3.31692-29.7697-4.37785-44.7637-5.42188-8.8122-.61359-26.4961-.49023-26.4961-.49023s-17.6852-.1234-26.4981.49023c-14.994 1.04402-30.1039 2.10496-44.7636 5.42188-6.2976 1.42489-12.4361 3.60584-18.3594 6.17578-3.0659 1.33019-6.421 2.43554-8.8262 4.75586-3.1217 3.01157-6.58 4.94541-6.5801 11.22656 0 6.28115 3.4584 8.215 6.5801 11.22657zm164.8907-6.41407c-13.3455 2.95853-27.0904 3.85825-40.7286 4.78321-8.5534.58011-25.7148.47656-25.7148.47656s-17.1627.10359-25.7168-.47656c-13.6381-.92495-27.3831-1.82468-40.7285-4.78321-4.9876-1.10568-9.8841-2.95374-14.5508-4.8125 4.6667-1.85875 9.5632-3.70682 14.5508-4.8125 13.3454-2.95853 27.0904-3.85825 40.7285-4.7832 8.5541-.58015 25.7168-.47656 25.7168-.47656s17.1614-.10355 25.7148.47656c13.6382.92496 27.3831 1.82467 40.7286 4.7832 4.9875 1.10568 9.884 2.95375 14.5507 4.8125-4.6667 1.85876-9.5632 3.70682-14.5507 4.8125z" fill="#937e6c" fill-rule="evenodd"/><g fill-rule="evenodd" transform="translate(.000004 22.553433)"><path d="m240.16797 60.371094c-5.62517.04125-12.55499.17362-17.77539.537109-15.00024 1.044454-30.93209 2.10026-47.1836 5.777344-7.54235 1.706527-14.60335 4.242616-21.19726 7.103515-2.12494.921938-7.63774 2.198512-13.56641 7.917969-.66769.644135-3.07241 2.266389-6.07226 6.199219-2.99986 3.93283-5.39834 10.465979-5.39844 16.54297 0 6.0771 2.39853 12.61011 5.39844 16.54297 2.9999 3.93285 5.40463 5.55513 6.07226 6.19922 5.92844 5.71922 11.44266 6.9958 13.56836 7.91796 6.59551 2.86124 13.65512 5.39573 21.19531 7.10157 16.24999 3.6763 32.18219 4.73443 47.1836 5.77929 10.32459.71911 27.1185.53356 27.49804.5293 0 0 17.27798.19792 27.71875-.5293 15.0014-1.04487 30.93353-2.10299 47.1836-5.77929 7.54023-1.70585 14.59986-4.24035 21.19531-7.10157 2.1257-.92216 7.63992-2.19874 13.56836-7.91796.66764-.64409 3.07236-2.26637 6.07227-6.19922 2.9999-3.93286 5.39843-10.46587 5.39843-16.54297 0-6.077102-2.39853-12.610114-5.39843-16.54297-2.99991-3.932856-5.40464-5.555143-6.07227-6.199219-5.92867-5.719457-11.44147-6.996031-13.56641-7.917969-6.59394-2.86096-13.65506-5.396995-21.19726-7.103515-16.25159-3.677077-32.18337-4.732881-47.1836-5.777344-10.32321-.718801-27.11649-.533552-27.49609-.529297 0 0-4.32014-.04906-9.94531-.0078z" fill="#86522c"/><path d="m151.55465 115.67579c2.4052 2.32032 5.7603 3.42581 8.8262 4.75585 5.9232 2.56958 12.062 4.74915 18.3594 6.17383 14.6598 3.31655 29.7696 4.37948 44.7636 5.42383 8.8129.61382 26.4981.49024 26.4981.49024s17.6839.12354 26.4961-.49024c14.994-1.04436 30.1038-2.10728 44.7637-5.42383 6.2974-1.42468 12.4361-3.60425 18.3593-6.17383 3.0659-1.33004 6.421-2.43553 8.8262-4.75585 3.1217-3.01157 6.5801-4.94542 6.5801-11.22657s-3.4584-8.21499-6.5801-11.22656c-2.4052-2.320324-5.7603-3.425674-8.8262-4.755864-5.9232-2.56994-12.0618-4.75089-18.3593-6.17578-14.6598-3.31692-29.7697-4.37785-44.7637-5.42188-8.8122-.61359-26.4961-.49023-26.4961-.49023s-17.6852-.1234-26.4981.49023c-14.994 1.04402-30.1039 2.10496-44.7636 5.42188-6.2976 1.42489-12.4361 3.60584-18.3594 6.17578-3.0659 1.33019-6.421 2.43554-8.8262 4.755864-3.1217 3.01157-6.58 4.94541-6.5801 11.22656 0 6.28115 3.4584 8.215 6.5801 11.22657z" fill="url(#c)"/></g></svg>