<svg height="500" viewBox="0 0 132.29167 132.29167" width="500" xmlns="http://www.w3.org/2000/svg" xmlns:xlink="http://www.w3.org/1999/xlink"><linearGradient id="a" gradientTransform="matrix(392.59 0 0 -392.59 9596.87 3878.54)" gradientUnits="userSpaceOnUse" spreadMethod="pad" x1="0" x2="1" y1="0" y2="0"><stop offset="0" stop-color="#523528"/><stop offset=".00561798" stop-color="#523528"/><stop offset=".275281" stop-color="#dff5fd"/><stop offset=".477528" stop-color="#dad9d6"/><stop offset=".668539" stop-color="#fff"/><stop offset="1" stop-color="#68574b"/></linearGradient><linearGradient id="b" gradientTransform="translate(647.52336 -304.60449)" gradientUnits="userSpaceOnUse" spreadMethod="reflect" x1="-502.10876" x2="-378.54834" xlink:href="#a" y1="406.48276" y2="400.7948"/><linearGradient id="c" gradientTransform="translate(647.52336 -304.60449)" gradientUnits="userSpaceOnUse" spreadMethod="reflect" x1="-513.6709" x2="-382.74466" xlink:href="#a" y1="314.14755" y2="401.86713"/><linearGradient id="d" gradientTransform="matrix(.94080015 0 0 .9425403 149.72976 45.040156)" gradientUnits="userSpaceOnUse" spreadMethod="pad" x1="-69.762428" x2="-107.21129" y1="37.225498" y2="39.515919"><stop offset="0" stop-color="#a06122"/><stop offset=".511236" stop-color="#efbd76"/><stop offset="1" stop-color="#b57720"/></linearGradient><linearGradient id="e" gradientUnits="userSpaceOnUse" spreadMethod="pad" x1="81.85923241497" x2="77.15361460959" y1="90.37589597863" y2="90.34878252388"><stop offset="0" stop-color="#a06122" stop-opacity="0"/><stop offset=".25561801" stop-color="#c78f4c"/><stop offset=".511236" stop-color="#efbd76"/><stop offset=".75561798" stop-color="#d29a4b"/><stop offset="1" stop-color="#b57720" stop-opacity="0"/></linearGradient><g stroke-width="1.42285" transform="matrix(.70281542 0 0 .70281542 -79.008883 15.999527)"><path d="m206.5332 19.064453c-15.33983.000297-31.0404 2.255001-45.64258 7.5625-4.98946 1.813535-10.43681 4.309473-14.6875 8.792969-2.40656 2.538379-5.55078 6.147996-5.55078 11.425781s3.14422 8.887403 5.55078 11.425781c4.25069 4.483495 9.69804 6.979435 14.6875 8.792969 14.60218 5.307498 30.30275 7.562203 45.64258 7.5625 15.34326.000297 31.04863-2.254053 45.6543-7.5625 4.98825-1.812984 10.43888-4.306947 14.68945-8.794922 2.40819-2.542683 5.53711-6.155132 5.53711-11.423828s-3.12892-8.883098-5.53711-11.425781c-4.25057-4.487975-9.7012-6.979984-14.68945-8.792969-14.60567-5.308447-30.31104-7.562797-45.6543-7.5625z" fill="#594840" stroke-width="1.42285"/><path d="m206.53332 23.826175c-14.87114.000288-30.03956 2.195949-44.01609 7.276042-4.67838 1.700465-9.43393 3.981141-12.85875 7.593542-2.10716 2.222574-4.24391 5.086494-4.24391 8.149167s2.13675 5.926593 4.24391 8.149167c3.42482 3.6124 8.18037 5.893076 12.85875 7.593541 13.97653 5.080092 29.14495 7.275754 44.01609 7.276042 14.87462.000288 30.04677-2.195031 44.02667-7.276042 4.67841-1.700374 9.43578-3.979391 12.85875-7.593541 2.10491-2.222469 4.23333-5.088121 4.23333-8.149167s-2.12842-5.926698-4.23333-8.149167c-3.42297-3.61415-8.18034-5.893167-12.85875-7.593542-13.9799-5.081011-29.15205-7.27633-44.02667-7.276042z" fill="url(#c)" stroke-width="13.5527"/><path d="m140.65234 45.185547v12.294922 44.398441c0 4.90681 2.45365 9.42816 6.23243 12.88086 3.99949 3.65702 9.78773 6.59969 15.28125 8.43554 14.34008 4.79222 29.57072 6.46471 44.36718 6.46485 14.79794.00013 30.03112-1.67085 44.37305-6.46485 5.49261-1.83598 11.27942-4.77838 15.27734-8.4375 3.77014-3.45062 6.23047-7.96728 6.23047-12.8789v-55.707035l-8.08984 7.902344c-3.81302 3.724789-8.58199 6.547874-13.69727 8.474609-13.79259 5.195154-29.07098 7.314102-44.09375 7.314453-15.02775.000352-30.31293-2.115908-44.10742-7.314453-5.16311-1.945752-10.52199-5.016731-13.49219-8.275391z" fill="#594840" stroke-width="1.42285"/><path d="m145.41461 57.481176v44.397084c0 3.4925 1.55575 6.50875 4.68312 9.36625 3.12473 2.8575 8.68427 5.79925 13.57842 7.4348 13.69103 4.57532 28.42191 6.21757 42.85721 6.2177 14.43704.00013 29.17015-1.64083 42.8625-6.2177 4.89256-1.63541 10.45104-4.5773 13.57312-7.4348 3.12209-2.8575 4.68313-5.87375 4.68313-9.36625v-44.397084c-4.3676 4.266535-9.71173 7.402843-15.34583 9.525-14.47485 5.452136-30.3053 7.619638-45.77292 7.62-15.47197.000362-31.30815-2.163871-45.78615-7.62-5.63024-2.121792-11.53416-5.35766-15.3326-9.525z" fill="url(#b)" stroke-width="13.5527"/><path d="m81.119624 48.350382s-9.11551-.25611-13.67456-.307336c-5.800341-.06517-17.402121 0-17.402121 0l-.818417-3.844707s8.90533-.402248 13.361264-.482713c2.332481-.04212 4.66669-.06716 6.998584 0 4.472312.12881 13.40025.772539 13.40025.772539z" fill="#594840" stroke="#594840" stroke-width="1" transform="matrix(1.4228487 0 0 1.4228487 112.41769 -22.764906)"/></g><g stroke-width="1.28602" transform="matrix(.77759447 0 0 .77759447 53.919325 50.548588)"><path d="m66.137465 72.760418c-5.28958 0-10.051967 1.060406-13.671331 2.88133-3.619034 1.81163-6.300968 4.39733-6.300968 8.022283 0 3.622321 2.685581 6.232566 6.308182 8.044373.000692.000462.000461.0014.0014.0018 3.601888 1.810279 8.337768 2.861788 13.594687 2.871411 4.67345.156358 9.449302-.435799 13.725433-2.864648 1.19884-.680945 2.526193-1.578243 3.731618-2.76862 1.205425-1.19038 2.527799-2.727479 2.598652-5.183783l.0014-.04914v-.05139c0-3.628025-2.685832-6.21539-6.309532-8.027241-3.623699-1.811851-8.373268-2.876372-13.679447-2.876372z" fill="#86522c"/><path d="m78.99768 87.557486c2.128787-1.211391 4.878838-3.371622 4.938579-5.446469 0-1.715737-1.513437-3.710781-4.739441-5.326768-3.226004-1.615986-7.885786-2.713259-13.083237-2.713259-5.177534 0-9.857228 1.097273-13.063321 2.713259-3.226002 1.615987-4.739437 3.611031-4.739437 5.326768 0 1.735688 1.513435 3.730731 4.739437 5.346717 3.206093 1.615987 7.885787 2.71326 13.063321 2.71326 4.652368.161621 9.073977-.44535 12.884099-2.613508z" fill="url(#d)"/><path d="m77.077582 92.999995-.02003-4.490757c2.155512-1.131469 2.274066-.916997 4.802128-2.989582l-.000447 4.856242c-1.723574 1.211062-3.000271 1.927775-4.781647 2.624097z" fill="url(#e)"/></g></svg>