<svg height="500" viewBox="0 0 132.29167 132.29167" width="500" xmlns="http://www.w3.org/2000/svg" xmlns:xlink="http://www.w3.org/1999/xlink"><linearGradient id="a"><stop offset="0" stop-color="#73380d"/><stop offset="1" stop-color="#301603"/></linearGradient><linearGradient id="b" gradientUnits="userSpaceOnUse" x1="297.97296" x2="297.84518" xlink:href="#a" y1="27.787069" y2="46.141342"/><linearGradient id="c" gradientUnits="userSpaceOnUse" x1="297.96146" x2="297.96185" xlink:href="#a" y1="80.181786" y2="99.545654"/><linearGradient id="d" gradientUnits="userSpaceOnUse" x1="297.97296" x2="297.89697" xlink:href="#a" y1="42.086765" y2="61.67062"/><linearGradient id="e" gradientUnits="userSpaceOnUse" x1="270.44525" x2="270.44464" xlink:href="#a" y1="81.818726" y2="126.11254"/><linearGradient id="f" gradientUnits="userSpaceOnUse" x1="241.07666" x2="252.76181" xlink:href="#a" y1="112.81567" y2="113.05572"/><linearGradient id="g" gradientTransform="matrix(.20910463 0 0 .20910463 -31.923509 33.090332)" gradientUnits="userSpaceOnUse" x1="1399.8105" x2="1492.2168" xlink:href="#h" y1="277.79492" y2="277.79492"/><linearGradient id="h" gradientTransform="matrix(391.593 0 0 -391.593 60.7962 7618.49)" gradientUnits="userSpaceOnUse" spreadMethod="pad" x1="0" x2="1" y1="0" y2="0"><stop offset="0" stop-color="#9f571d"/><stop offset=".511236" stop-color="#fde791"/><stop offset="1" stop-color="#b7671e"/></linearGradient><linearGradient id="i" gradientTransform="matrix(.20910463 0 0 .20910463 -31.923509 33.090332)" gradientUnits="userSpaceOnUse" x1="1566.2216" x2="1588.9965" xlink:href="#h" y1="277.79492" y2="317.80896"/><linearGradient id="j" gradientUnits="userSpaceOnUse" x1="297.96185" x2="297.90176" xlink:href="#a" y1="100.59118" y2="126.4727"/><g transform="matrix(.7710464 0 0 .7710464 -163.59663 25.220323)"><path d="m277.4466-10.401891c-1.63793 5.782395-3.27597 11.564757-4.91211 17.347656 3.75523-.132137 7.5104-.265869 11.26562-.398437.33433-2.425913.67073-4.851542 1.00586-7.277344h26.3125c.33193 2.408217.66471 4.816318.99609 7.224609 3.75322.126822 7.50647.252685 11.25977.376953-1.66797-5.886252-3.33681-11.772257-5.00586-17.658203-13.60417 0-27.20833 0-40.8125 0-.0365.128255-.0729.256511-.10937.384766z" fill="#301603" stroke-width=".264583"/><path id="k" d="m249.67316 51.494592c-3.74751 3.30986-7.49575 6.61888-11.24414 9.92774-.00031 17.50195.001 35.0039.002 52.505848 1.80834 1.74832 3.66894 3.93696 6.35641 4.1527 2.10354.19856 4.21858.20287 6.32914.26918-.8052-7.44796-1.2512-14.88833-1.19195-22.381188-.13344-8.35192.37573-16.71674.79105-25.0404.16758-2.97532.37824-5.94779.59035-8.92021.36576-1.67968.36861-3.51227.061-5.22863-.38054-1.96409-.63894-3.95092-.97315-5.92371-.24023.21289-.48047.42578-.7207.63867z" fill="#301603" stroke-width=".264583"/><path id="l" d="m248.53459 56.032569-7.45846 6.580992v5.884397l7.75715-7.75715c.0542-.615691.10774-1.231752.1633-1.847432-.16351-.953831-.31832-1.907519-.46199-2.860807zm-.30127 12.043709-7.15719 7.157186.00053 37.582206c1.48061 1.45785 2.29572 2.18298 3.13418 2.46238.64929.21643 2.0407.30411 3.98063.3483-.40852-4.03489-.68449-8.07226-.84801-12.11192l-.11007-13.229172c.19023-7.287779.45802-14.788798.99994-22.20898z" fill="url(#f)" stroke-width=".264583"/><path d="m296.03644 3.705531c-15.59112.09037-31.17093.853011-46.71289 2.066406-2.69144 16.871486-3.28956 34.177414-.64844 51.093745.39082 5.69909-.60812 11.48496-.80976 17.21414-1.06894 16.80442-.97722 33.752128 1.44257 50.442118 27.23508 2.1085 54.61491 2.61708 81.89164.98576 5.13793-.28577 10.27459-.63154 15.4111-.95842 2.98341-20.42427 2.40682-41.182028.65795-61.691398-.56468-6.07849.9898-12.08208 1.19244-18.15132.89809-12.985681.11509-26.054192-1.85039-38.909234-16.81413-1.482005-33.69481-2.165423-50.57422-2.091797z" fill="#301603"/><path d="m342.39277 120.05915c2.49899-19.58181 1.71408-39.078348-.0274-58.630528l.0625-4.81721c2.24949-15.300852 2.19374-30.757676-.005-46.384767-2.93618-.251719-5.55191-.427808-8.59448-.643416-11.63478-.765443-23.74122-1.137746-35.86654-1.122932v-.000018.000529c-12.10654.01482-24.19689.413893-35.81951 1.153935-2.85112.188767-6.0357.411253-8.65476.620683-2.27435 15.496115-2.48467 30.944624-.0135 46.379086l.1039 4.82239c-1.72564 19.72813-2.55786 39.309748-.0496 58.624328 8.50998.67825 16.78342.97091 25.64858 1.38647 12.58094.39952 25.10287.38256 37.57083-.0196 8.4179-.37479 17.75555-.78235 25.64494-1.36892z" fill="url(#j)"/><path d="m274.41385 107.28309c1.5723.37334 3.14012.72323 4.70415 1.04367 6.30776 1.29232 12.55397 2.10552 18.78439 2.04525 6.35333-.0615 12.61463-.76162 18.78765-1.99309 1.6243-.32404 3.2425-.68487 4.85465-1.08053l-.0354-37.716018-4.76238-1.07079c-6.57257-1.65509-14.24065-2.00195-18.78515-2.01796-5.86161.0567-11.97625.50072-18.78569 2.00844l-4.76262 1.07173z" fill="#73380d" stroke="#301603" stroke-linecap="round" stroke-linejoin="round" stroke-width="5.29167"/><path id="m" d="m263.30011 105.72311v19.73796c2.64848.14287 11.64587.54564 14.28906.65147l-.0549-20.7891c-1.28588.73713-5.76874 3.39204-7.20278 3.3632-1.37372-.0275-5.83176-2.2735-7.03138-2.96353z" fill="#301603" stroke-width=".264583"/><path d="m297.96176 66.493622c-7.58781.0832-16.2043 1.20702-23.54831 3.08017l-.00006 19.30557c1.46033.44961 3.28087.98861 4.76295 1.49703 4.91854 1.68727 12.33624 3.50925 18.78538 3.49831 7.77863-.011 11.7808-1.47958 18.78546-3.34213l4.76235-1.65312-.00024-19.29708c-8.04198-2.01161-15.24469-3.1788-23.54753-3.08875z" fill="url(#c)" stroke="#301603" stroke-linecap="round" stroke-linejoin="round" stroke-width="5.29167"/><path id="n" d="m277.58917 49.903882c-2.6498-.15028-11.64693-1.31889-14.28906-1.51997v59.231518c.33208 1.07037 1.50662 2.25815 2.90521 3.13492 1.38846.87043 2.99773 1.43434 4.22273 1.27256 1.55922-.0656 2.81331-.45713 3.81819-1.02393 1.76068-.99311 2.75633-2.52429 3.28781-3.78309z" fill="#301603" stroke-width=".264583"/><path id="o" d="m274.41338 110.90174v15.2108c-2.64847-.10663-5.2943-.2323-7.93749-.37359v-14.82451c1.28587.73713 2.64848 1.13586 4.08252 1.10702 1.37372-.0275 2.65536-.42969 3.85497-1.11972z" fill="url(#e)" stroke-width=".264583"/><path id="p" d="m266.47657 48.932412c2.64954.20108 5.29537.37681 7.9375.5271l-.00053 55.196218c-1.62375 1.9087-2.96957 2.58492-3.9517 2.6045-.98795.0198-2.30068-.56121-3.9858-2.59003z" fill="url(#e)" stroke-width=".264583"/><path d="m279.55698-8.139625-3.48827 12.311549 5.41602-.193382 1.016-7.355931h30.92292l1.00606 7.304403 5.4085.181018-3.47134-12.247921h-36.81016z" fill="#73380d" stroke-width=".264583"/><path id="q" d="m295.58067 91.078697h4.76234v8.46696h-4.76234z" fill="url(#i)" stroke="#000" stroke-width="2.09105"/><use fill="#301603" height="100%" transform="matrix(-1 0 0 1 595.92385 .000264)" width="100%" xlink:href="#k"/><use height="100%" transform="matrix(-1 0 0 1 595.92385 .000264)" width="100%" xlink:href="#l"/><use height="100%" transform="matrix(-1 0 0 1 595.92385 .000264)" width="100%" xlink:href="#m"/><use height="100%" transform="matrix(-1 0 0 1 595.92385 .000264)" width="100%" xlink:href="#n"/><use height="100%" transform="matrix(-1 0 0 1 595.92385 .000264)" width="100%" xlink:href="#o"/><use height="100%" transform="matrix(-1 0 0 1 595.92385 .000264)" width="100%" xlink:href="#p"/><path d="m297.97073 8.460802c-16.21183.1985037-29.52506.5805964-44.48315 1.774624-2.27436 15.496117-2.48447 30.945117-.0132 46.379589 29.16767 3.198288 58.81029 3.229139 88.95374-.0031 2.24948-15.300857 2.19302-30.757668-.005-46.384756-14.78512-1.21369-31.35767-1.766394-44.45239-1.766357z" fill="url(#d)" stroke="#301603" stroke-linecap="round" stroke-linejoin="round" stroke-width="5.29167"/><path d="m287.11401 39.36473c-6.34789-.891646-10.41189-2.692136-13.06063-5.340615-3.92377-3.922712-3.87271-9.090819-3.87271-13.324153v-2.009246l1.98015-.338137c8.58414-1.465792 17.18601-2.212446 25.79158-2.218796l.00053-.000529c8.60584-.0066 17.21564.726545 25.81644 2.219854l1.9738.342635v2.003425c0 4.115329.44529 9.288199-3.35757 13.295314-2.62254 2.763308-6.78787 4.587081-13.57576 5.446448z" fill="url(#b)" stroke="#301603" stroke-linecap="round" stroke-linejoin="round" stroke-width="5.29167"/><path d="m295.464 37.674383h4.76234v8.46696h-4.76234z" fill="#808000"/><path id="r" d="m261.82887 84.121255v14.114562h17.23154v-14.114562h-17.23112zm3.90806 3.907235h9.41623v6.299684h-9.41665v-6.299277z" fill="url(#g)" stroke="#000" stroke-width="2.09105"/><use height="100%" transform="translate(55.01737)" width="100%" xlink:href="#r"/><use height="100%" transform="translate(.011122 -53.225412)" width="100%" xlink:href="#q"/></g></svg>