<svg height="500" viewBox="0 0 132.29167 132.29167" width="500" xmlns="http://www.w3.org/2000/svg" xmlns:xlink="http://www.w3.org/1999/xlink"><linearGradient id="a"><stop offset="0" stop-color="#a77858"/><stop offset="1" stop-color="#866046"/></linearGradient><radialGradient id="b" cx="-101.15455" cy="50.113056" gradientTransform="matrix(-.75297139 1.8000606 -1.6716253 -.69924648 -106.81713 278.29411)" gradientUnits="userSpaceOnUse" r="36.791481" xlink:href="#a"/><linearGradient id="c" gradientUnits="userSpaceOnUse" x1="-95.35122620479" x2="-62.27929909375" xlink:href="#a" y1="40.93218312094" y2="-.689455267"/><linearGradient id="d" gradientUnits="userSpaceOnUse" x1="-95.35122620479" x2="-53.40038896749" xlink:href="#a" y1="39.59909645368" y2="26.65429758345"/><linearGradient id="e" gradientUnits="userSpaceOnUse" x1="-86.68359992985" x2="-93.99495469087" xlink:href="#a" y1="43.69531265769" y2="-4.22265707174"/><filter id="f" color-interpolation-filters="sRGB" height="1.054" width="1.054" x="-.027" y="-.027"><feGaussianBlur stdDeviation=".88971242"/></filter><filter id="g" color-interpolation-filters="sRGB" height="1.187777" width="1.187777" x="-.093889" y="-.093889"><feGaussianBlur stdDeviation="2.013724"/></filter><filter id="h" color-interpolation-filters="sRGB" height="1.084899" width="1.084899" x="-.04245" y="-.04245"><feGaussianBlur stdDeviation=".47247794"/></filter><linearGradient id="i" gradientUnits="userSpaceOnUse" spreadMethod="pad" x1="8.42401504055" x2="124.08405195899" y1="2.12229719333" y2="65.24906271726"><stop offset="0" stop-color="#523528"/><stop offset=".09152186" stop-color="#523528"/><stop offset=".275281" stop-color="#dff5fd"/><stop offset=".477528" stop-color="#dad9d6"/><stop offset=".668539" stop-color="#fff"/><stop offset="1" stop-color="#68574b"/></linearGradient><filter id="j" color-interpolation-filters="sRGB" height="1.298147" width="1.232654" x="-.116327" y="-.149073"><feGaussianBlur stdDeviation=".61339426"/></filter><g><g stroke-width="1.15172" transform="matrix(.86826542 0 0 .86826542 178.12207 17.10324)"><g><g><path d="m-67.101562 9.5039063c-1.673553-.1537718-3.56757.00934-5.583985.9492187-12.229559 5.700381-18.037614 19.070326-22.515625 28.421875l-1.255859 2.625 1.761719 2.314453c.000407.000536 1.479853 1.282862 1.480468 1.283203.000616.000342 1.464021.523289 1.464844.523438s.767104.08391 1.048828.07227c.281725-.01164.503771-.04505.689453-.08008.74273-.140125.989327-.293679 1.199219-.394531.419783-.201704.535371-.294558.658203-.376953.245664-.164791.364208-.261684.507813-.373047.287208-.222725.591398-.470338.96289-.773438.742985-.606198 1.721707-1.410004 2.810547-2.267578 2.177681-1.715147 4.971007-3.667283 6.216797-4.253906 3.885975-1.829841 10.565767-1.214356 17.648438-4.644531.602298-.291697 1.665325-.708167 2.914062-1.488281 1.248737-.780115 2.904573-2.114007 3.693359-4.386719 1.7319-4.990073-.509838-9.16106-2.714843-12.048828-2.074043-2.716272-4.768444-3.581496-6.72461-4.148438-1.134901-.328921-2.588166-.799353-4.261718-.9531247z" fill="#533c2c"/><path d="m-90.9052 40.932179c.10429.13716 7.05224-6.104647 11.21954-8.066961 5.488-2.584208 12.14181-1.977975 17.60124-4.622006 1.57135-.761014 3.61235-1.500501 4.18481-3.149918.85858-2.473802-.41098-5.51557-2.00013-7.596788-.99674-1.305381-2.68866-2.008076-4.26616-2.465272-2.0852-.604341-4.54002-1.178974-6.50777-.261777-9.99208 4.657459-15.74656 16.79664-20.23153 26.162722z" fill="url(#d)"/><path d="m-87.964844-4.0136719c-.846552-.1318596-1.78844-.1442931-2.833984.029297-4.693961.77933-7.585997 4.03125944-9.220702 7.4765625-3.40002 7.1658884-2.87851 15.0039134-.76758 22.5136714.004.07099.008.115196.0137.214844.021.373216.0501.927662.084 1.591797.0678 1.32827.15401 3.106515.24023 4.886719.17244 3.560407.33985 7.125.33984 7.125l9.248052 1.365234s1.185965-3.349846 2.423828-6.673828c.478165-1.283995.920366-2.413745 1.337891-3.470703l.601562.03125 1.003906-3.705078c.272986-1.007411.834704-1.794692 1.955079-3.06836 1.120374-1.273667 2.838285-2.918546 4.0625-5.589843 1.154689-2.519582 3.993575-6.538895 2.847656-12.0390628-.906207-4.349586-3.992401-6.53601536-6.023438-8.0214843-1.08704-.795042-2.772843-2.2704369-5.3125-2.6660157zm-12.773436 30.2304689c.0227.07955.0336.160762.0566.240234-.0112-.04011-.0308-.09497-.0352-.115234-.0178-.08301-.0128-.07606-.0215-.125z" fill="#533c2c"/><path d="m-95.716 5.533468c-2.83084 5.966289-2.43173 12.724448-.34433 19.808428.0371-.0019.70911 14.257198.70911 14.257198s4.78252-13.497054 5.26116-13.472814c1.12347-4.145994 4.71334-5.972171 6.28327-9.397836 1.30877-2.855792 3.1555-6.007129 2.51477-9.082496-.45055-2.162538-2.38875-3.845011-4.17173-5.149055-1.3161-.962572-2.94659-2.050016-4.55511-1.782956-2.45383.407405-4.63086 2.572242-5.69714 4.819531z" fill="url(#e)"/><path d="m-73.371094-4.2226562c-3.439688.013721-7.44455 1.6432198-9.277343 4.80273432-4.064245 7.00507588-9.343361 14.81622188-12.023438 24.24414088l.146484-.429688-7.140629 18.283203 12.767583 3.828125 9.273437-13.896484c6.083122-5.575781 13.010666-10.087623 19.953125-14.888672 1.748389-1.209214 3.249591-2.585991 4.097656-4.615234.848066-2.029243.588194-4.2199129.195313-5.5820315-1.074782-3.7262613-3.62338-6.1185206-6.900391-8.21289062-3.237028-2.06832548-7.001933-3.41080548-10.925781-3.53124998l-.08203-.00195z" fill="#533c2c"/><path d="m-78.52861 2.969814c-4.16957 7.186613-9.15162 14.679216-11.56145 23.156466l-5.26116 13.472815 4.44602 1.333084 7.70053-11.540967c6.55653-6.082189 13.85053-10.765631 20.82402-15.588139 2.70415-1.870234 2.92251-3.23469 2.42483-4.960144s-2.34982-3.896916-4.88752-5.518785c-2.53793-1.621631-5.68404-2.697956-8.50784-2.784634-2.56711.01024-4.1866.722233-5.17743 2.430304z" fill="url(#c)"/></g><g><path d="m-98.61065 30.433962-3.16454-3.654225c-3.31715-1.263146-8.99654-2.735688-13.58577-2.421605-3.76388.257597-7.33081 1.930244-10.76795 3.485618-1.44742.654984-4.0957 2.4375-4.0957 2.4375 2.38503 3.999577 4.77072 7.998768 7.15625 11.998047l3.95508-2.591797c4.11172-2.447243 8.53639-1.836762 12.80948-.0278l5.23354-.66967z" fill="#7d634f" stroke-width="1.15172"/><path d="m-100.90808 32.808068c.0833-.191929-2.42489-1.79699-3.81857-2.324338-2.80793-1.062479-5.67452-1.62568-8.86646-1.583053-3.19195.04263-6.71192 1.018935-10.09924 3.034901l2.27718 3.817144c5.15708-3.069432 10.15032-3.365421 15.53338-1.086565l4.81153 4.323874z" fill="#c6a48e" stroke-width="10.9701"/><path d="m-114.45313 7.9628906c-2.61564 3.8554244-5.23279 7.7098204-7.8496 11.5644534 0 0 2.66102 1.738693 3.94531 2.673828 2.95914 2.154652 6.03293 4.20487 8.65429 6.759765.95259.928438 1.82369 1.957675 2.53641 3.080822.5323.838831 1.2752 2.693822 1.2752 2.693822l4.5673-.501206c.81065-.880029 2.318357-3.632575 2.71357-3.800413l2.791713-.567184s.187708-3.076677-.241393-4.524882c-.640851-2.162855-1.909036-4.152393-3.379123-5.86338-3.078897-3.583426-7.270147-6.043989-11.074217-8.845703-1.27729-.9407269-3.93946-2.6699224-3.93946-2.6699224z" fill="#7d634f" stroke-width="1.15172"/><path d="m-100.19751 26.27368c-.73164-1.30831-1.68913-2.497062-2.74082-3.565208-3.05954-3.107427-6.72489-5.747623-10.24676-8.133636l-2.50031 3.683794c3.52901 2.390775 5.52586 4.454305 8.15401 6.836067 1.2698 1.150758 2.6885 2.194259 3.67351 3.596544 1.16774 1.662433 2.53366 5.543134 2.53366 5.543134.34858-1.230345.58671-2.453445 2.71357-3.800413 0 0-.862428-2.864869-1.58686-4.160282z" fill="#c6a48e" stroke-width="10.9701"/><path d="m-84.715881 45.735032s3.134951-1.189016 4.329614-2.305311c1.018292-.951494 1.299794-.854222 2.210466-3.548828.730533-2.161648.373129-3.946096-.277344-5.482422-1.108522-2.618144-2.905389-3.853449-3.917969-4.671875-1.721702-1.391582-3.641009-2.461795-5.646484-3.224609-2.018556-.767789-4.236287-1.305307-6.128975-1.367441-1.892687-.06214-4.107984-.231818-6.632727 1.058813-2.16679 1.10766-3.4142 2.750812-4.27343 4.267578-.90385 1.595532-.63042 2.790374-.82906 4.20522-.23224 1.654225-.51431 3.85107-.42201 4.993544z" fill="#7d634f" stroke-width="1.15172"/><path d="m-88.00112 42.797611s2.73606-1.78817 3.938-2.885126c.51123-.466573 1.1531-.900449 1.3747-1.556146.22472-.664947.12269-1.453917-.15097-2.100263-.49265-1.163557-1.54312-2.032268-2.52582-2.826543-1.29664-1.048022-2.78722-1.883777-4.34552-2.476501-1.6118-.613073-3.33733-1.016517-5.06086-1.073087-1.29225-.04241-2.68782-.03449-3.83906.554017-.98055.501254-1.75463 1.41593-2.29743 2.374106-.40025.706553-.57378 1.543049-.63062 2.353104-.09 1.282649-.0461 3.795459.46844 3.828859 0 0 4.94979.06586 7.28746.774945 2.08256.631699 5.78168 3.032635 5.78168 3.032635z" fill="#c6a48e" stroke-width="10.9701"/></g></g><g><path d="m-101.32422 34.234375c-6.19385.318597-12.56407 2.111766-17.78906 5.453125-8.73134 5.583652-15.77899 14.063748-20.74219 23.162109-4.81023 8.817944-9.00633 19.061392-7.99219 29.054688.74121 7.303844 4.13485 15.198013 9.98829 19.628903 7.68933 5.8206 18.73563 5.51735 28.3789 5.62891 10.669682.12343 22.430681.0647 31.535158-5.5 5.530235-3.3801 9.707663-9.35875 11.708984-15.523438 2.434459-7.498882 1.091151-15.913517-.435547-23.648438-1.563808-7.922935-4.374095-15.815314-8.791016-22.576172-3.401352-5.206356-7.713104-10.25845-13.201171-13.183593-3.795783-2.023155-8.364544-2.71705-12.660158-2.496094z" fill="#533c2c"/><path d="m-116.5486 43.70062c-8.06991 5.159068-14.52483 13.041595-19.13192 21.438871-4.38475 7.992033-8.27916 17.244103-7.42617 26.319955.56691 6.032022 3.26566 12.626364 8.10849 16.266914 6.92243 5.20387 16.89712 4.60075 25.55709 4.67308 9.805215.0819 20.643445.2882 29.02125-4.80703 4.586147-2.78921 8.018015-7.780386 9.64406-12.895894 2.148322-6.758583.831902-14.315145-.56555-21.267904-1.47428-7.335-4.049977-14.646714-8.11887-20.925235-2.950393-4.552616-6.657859-9.018825-11.44498-11.571198-3.044004-1.622986-6.720319-2.126-10.16506-1.942148-5.38542.28743-10.93444 1.805693-15.47834 4.710589z" fill="url(#b)"/></g></g><path d="m111.30339 100.59901c-.86964-1.63485-2.32326-2.766162-3.96631-3.268356l-.00001.000001c-1.64307-.502197-3.48079-.376743-5.11579.49256-3.270013 1.738698-4.530127 5.817755-2.79028 9.088445 0 0 1.2892-6.0639 3.71399-7.351564 2.42122-1.285753 8.1584 1.038914 8.1584 1.038914z" fill="#533c2c" filter="url(#j)" opacity=".5"/></g><g stroke-width="6.35794"><g transform="matrix(.15729787 0 0 .15726969 -133.00706 28.574563)"><path d="m525.34877 75.796112c-10.92261-.000127-21.86236 4.178162-30.18735 12.50289-16.65008 16.650088-16.73168 43.796088-.0764 60.451108 16.65549 16.65549 43.80148 16.57344 60.45111-.0764 16.65011-16.64961 16.65009-43.72484 0-60.374685-8.32501-8.325035-19.26483-12.502785-30.18736-12.502913z" fill="#68574b"/><path d="m496.85819 89.996601c-15.73245 15.732449-15.80734 41.323489-.0751 57.055459 15.73245 15.73245 41.32348 15.65707 57.05546-.0751 15.73244-15.73197 15.73244-41.24787 0-56.980084-7.86623-7.86623-18.17802-11.799583-28.49017-11.799703s-20.62394 3.933473-28.49017 11.799458z" fill="#68574b"/><circle cx="66.145836" cy="39.542774" fill="url(#i)" filter="url(#f)" r="39.542774" transform="matrix(.90725093 0 0 .90725093 465.31872 82.630196)"/><g fill="#fff"><path d="m64.75637 40.032365a30.644657 19.640671 45 0 1 7.78099 35.557096 30.644657 19.640671 45 0 1 -35.55709-7.780994 30.644657 19.640671 45 0 1 -7.781-35.557095 30.644657 19.640671 45 0 1 35.5571 7.780993z" filter="url(#g)" opacity=".5" stroke-width=".319435" transform="matrix(.90725093 0 0 .90725093 465.31872 82.630196)"/><path d="m95.61188 9.4458012a15.608357 10.637955 45 0 1 3.5146 18.5589498 15.608357 10.637955 45 0 1 -18.55894-3.51461 15.608357 10.637955 45 0 1 -3.51461-18.5589424 15.608357 10.637955 45 0 1 18.55895 3.5146026z" filter="url(#h)" opacity=".5" stroke-width=".196775" transform="matrix(.90725093 0 0 .90725093 462.9838 83.634367)"/></g></g><g transform="matrix(.15729787 0 0 .15726969 -55.647017 80.254961)"><path d="m525.34877 75.796112c-10.92261-.000127-21.86236 4.178162-30.18735 12.50289-16.65008 16.650088-16.73168 43.796088-.0764 60.451108 16.65549 16.65549 43.80148 16.57344 60.45111-.0764 16.65011-16.64961 16.65009-43.72484 0-60.374685-8.32501-8.325035-19.26483-12.502785-30.18736-12.502913z" fill="#68574b"/><path d="m496.85819 89.996601c-15.73245 15.732449-15.80734 41.323489-.0751 57.055459 15.73245 15.73245 41.32348 15.65707 57.05546-.0751 15.73244-15.73197 15.73244-41.24787 0-56.980084-7.86623-7.86623-18.17802-11.799583-28.49017-11.799703s-20.62394 3.933473-28.49017 11.799458z" fill="#68574b"/><circle cx="66.145836" cy="39.542774" fill="url(#i)" filter="url(#f)" r="39.542774" transform="matrix(.90725093 0 0 .90725093 465.31872 82.630196)"/><g fill="#fff"><path d="m64.75637 40.032365a30.644657 19.640671 45 0 1 7.78099 35.557096 30.644657 19.640671 45 0 1 -35.55709-7.780994 30.644657 19.640671 45 0 1 -7.781-35.557095 30.644657 19.640671 45 0 1 35.5571 7.780993z" filter="url(#g)" opacity=".5" stroke-width=".319435" transform="matrix(.90725093 0 0 .90725093 465.31872 82.630196)"/><path d="m95.61188 9.4458012a15.608357 10.637955 45 0 1 3.5146 18.5589498 15.608357 10.637955 45 0 1 -18.55894-3.51461 15.608357 10.637955 45 0 1 -3.51461-18.5589424 15.608357 10.637955 45 0 1 18.55895 3.5146026z" filter="url(#h)" opacity=".5" stroke-width=".196775" transform="matrix(.90725093 0 0 .90725093 462.9838 83.634367)"/></g></g><g transform="matrix(.15729787 0 0 .15726969 -63.922745 86.970799)"><path d="m525.34877 75.796112c-10.92261-.000127-21.86236 4.178162-30.18735 12.50289-16.65008 16.650088-16.73168 43.796088-.0764 60.451108 16.65549 16.65549 43.80148 16.57344 60.45111-.0764 16.65011-16.64961 16.65009-43.72484 0-60.374685-8.32501-8.325035-19.26483-12.502785-30.18736-12.502913z" fill="#68574b"/><path d="m496.85819 89.996601c-15.73245 15.732449-15.80734 41.323489-.0751 57.055459 15.73245 15.73245 41.32348 15.65707 57.05546-.0751 15.73244-15.73197 15.73244-41.24787 0-56.980084-7.86623-7.86623-18.17802-11.799583-28.49017-11.799703s-20.62394 3.933473-28.49017 11.799458z" fill="#68574b"/><circle cx="66.145836" cy="39.542774" fill="url(#i)" filter="url(#f)" r="39.542774" transform="matrix(.90725093 0 0 .90725093 465.31872 82.630196)"/><g fill="#fff"><path d="m64.75637 40.032365a30.644657 19.640671 45 0 1 7.78099 35.557096 30.644657 19.640671 45 0 1 -35.55709-7.780994 30.644657 19.640671 45 0 1 -7.781-35.557095 30.644657 19.640671 45 0 1 35.5571 7.780993z" filter="url(#g)" opacity=".5" stroke-width=".319435" transform="matrix(.90725093 0 0 .90725093 465.31872 82.630196)"/><path d="m95.61188 9.4458012a15.608357 10.637955 45 0 1 3.5146 18.5589498 15.608357 10.637955 45 0 1 -18.55894-3.51461 15.608357 10.637955 45 0 1 -3.51461-18.5589424 15.608357 10.637955 45 0 1 18.55895 3.5146026z" filter="url(#h)" opacity=".5" stroke-width=".196775" transform="matrix(.90725093 0 0 .90725093 462.9838 83.634367)"/></g></g><g transform="matrix(.15729787 0 0 .15726969 -48.715359 82.948074)"><path d="m525.34877 75.796112c-10.92261-.000127-21.86236 4.178162-30.18735 12.50289-16.65008 16.650088-16.73168 43.796088-.0764 60.451108 16.65549 16.65549 43.80148 16.57344 60.45111-.0764 16.65011-16.64961 16.65009-43.72484 0-60.374685-8.32501-8.325035-19.26483-12.502785-30.18736-12.502913z" fill="#68574b"/><path d="m496.85819 89.996601c-15.73245 15.732449-15.80734 41.323489-.0751 57.055459 15.73245 15.73245 41.32348 15.65707 57.05546-.0751 15.73244-15.73197 15.73244-41.24787 0-56.980084-7.86623-7.86623-18.17802-11.799583-28.49017-11.799703s-20.62394 3.933473-28.49017 11.799458z" fill="#68574b"/><circle cx="66.145836" cy="39.542774" fill="url(#i)" filter="url(#f)" r="39.542774" transform="matrix(.90725093 0 0 .90725093 465.31872 82.630196)"/><g fill="#fff"><path d="m64.75637 40.032365a30.644657 19.640671 45 0 1 7.78099 35.557096 30.644657 19.640671 45 0 1 -35.55709-7.780994 30.644657 19.640671 45 0 1 -7.781-35.557095 30.644657 19.640671 45 0 1 35.5571 7.780993z" filter="url(#g)" opacity=".5" stroke-width=".319435" transform="matrix(.90725093 0 0 .90725093 465.31872 82.630196)"/><path d="m95.61188 9.4458012a15.608357 10.637955 45 0 1 3.5146 18.5589498 15.608357 10.637955 45 0 1 -18.55894-3.51461 15.608357 10.637955 45 0 1 -3.51461-18.5589424 15.608357 10.637955 45 0 1 18.55895 3.5146026z" filter="url(#h)" opacity=".5" stroke-width=".196775" transform="matrix(.90725093 0 0 .90725093 462.9838 83.634367)"/></g></g><g transform="matrix(.15729787 0 0 .15726969 -53.668042 89.663912)"><path d="m525.34877 75.796112c-10.92261-.000127-21.86236 4.178162-30.18735 12.50289-16.65008 16.650088-16.73168 43.796088-.0764 60.451108 16.65549 16.65549 43.80148 16.57344 60.45111-.0764 16.65011-16.64961 16.65009-43.72484 0-60.374685-8.32501-8.325035-19.26483-12.502785-30.18736-12.502913z" fill="#68574b"/><path d="m496.85819 89.996601c-15.73245 15.732449-15.80734 41.323489-.0751 57.055459 15.73245 15.73245 41.32348 15.65707 57.05546-.0751 15.73244-15.73197 15.73244-41.24787 0-56.980084-7.86623-7.86623-18.17802-11.799583-28.49017-11.799703s-20.62394 3.933473-28.49017 11.799458z" fill="#68574b"/><circle cx="66.145836" cy="39.542774" fill="url(#i)" filter="url(#f)" r="39.542774" transform="matrix(.90725093 0 0 .90725093 465.31872 82.630196)"/><g fill="#fff"><path d="m64.75637 40.032365a30.644657 19.640671 45 0 1 7.78099 35.557096 30.644657 19.640671 45 0 1 -35.55709-7.780994 30.644657 19.640671 45 0 1 -7.781-35.557095 30.644657 19.640671 45 0 1 35.5571 7.780993z" filter="url(#g)" opacity=".5" stroke-width=".319435" transform="matrix(.90725093 0 0 .90725093 465.31872 82.630196)"/><path d="m95.61188 9.4458012a15.608357 10.637955 45 0 1 3.5146 18.5589498 15.608357 10.637955 45 0 1 -18.55894-3.51461 15.608357 10.637955 45 0 1 -3.51461-18.5589424 15.608357 10.637955 45 0 1 18.55895 3.5146026z" filter="url(#h)" opacity=".5" stroke-width=".196775" transform="matrix(.90725093 0 0 .90725093 462.9838 83.634367)"/></g></g><g transform="matrix(.15729787 0 0 .15726969 -36.936684 89.663912)"><path d="m525.34877 75.796112c-10.92261-.000127-21.86236 4.178162-30.18735 12.50289-16.65008 16.650088-16.73168 43.796088-.0764 60.451108 16.65549 16.65549 43.80148 16.57344 60.45111-.0764 16.65011-16.64961 16.65009-43.72484 0-60.374685-8.32501-8.325035-19.26483-12.502785-30.18736-12.502913z" fill="#68574b"/><path d="m496.85819 89.996601c-15.73245 15.732449-15.80734 41.323489-.0751 57.055459 15.73245 15.73245 41.32348 15.65707 57.05546-.0751 15.73244-15.73197 15.73244-41.24787 0-56.980084-7.86623-7.86623-18.17802-11.799583-28.49017-11.799703s-20.62394 3.933473-28.49017 11.799458z" fill="#68574b"/><circle cx="66.145836" cy="39.542774" fill="url(#i)" filter="url(#f)" r="39.542774" transform="matrix(.90725093 0 0 .90725093 465.31872 82.630196)"/><g fill="#fff"><path d="m64.75637 40.032365a30.644657 19.640671 45 0 1 7.78099 35.557096 30.644657 19.640671 45 0 1 -35.55709-7.780994 30.644657 19.640671 45 0 1 -7.781-35.557095 30.644657 19.640671 45 0 1 35.5571 7.780993z" filter="url(#g)" opacity=".5" stroke-width=".319435" transform="matrix(.90725093 0 0 .90725093 465.31872 82.630196)"/><path d="m95.61188 9.4458012a15.608357 10.637955 45 0 1 3.5146 18.5589498 15.608357 10.637955 45 0 1 -18.55894-3.51461 15.608357 10.637955 45 0 1 -3.51461-18.5589424 15.608357 10.637955 45 0 1 18.55895 3.5146026z" filter="url(#h)" opacity=".5" stroke-width=".196775" transform="matrix(.90725093 0 0 .90725093 462.9838 83.634367)"/></g></g><g transform="matrix(.15729787 0 0 .15726969 39.14011 100.21855)"><path d="m525.34877 75.796112c-10.92261-.000127-21.86236 4.178162-30.18735 12.50289-16.65008 16.650088-16.73168 43.796088-.0764 60.451108 16.65549 16.65549 43.80148 16.57344 60.45111-.0764 16.65011-16.64961 16.65009-43.72484 0-60.374685-8.32501-8.325035-19.26483-12.502785-30.18736-12.502913z" fill="#68574b"/><path d="m496.85819 89.996601c-15.73245 15.732449-15.80734 41.323489-.0751 57.055459 15.73245 15.73245 41.32348 15.65707 57.05546-.0751 15.73244-15.73197 15.73244-41.24787 0-56.980084-7.86623-7.86623-18.17802-11.799583-28.49017-11.799703s-20.62394 3.933473-28.49017 11.799458z" fill="#68574b"/><circle cx="66.145836" cy="39.542774" fill="url(#i)" filter="url(#f)" r="39.542774" transform="matrix(.90725093 0 0 .90725093 465.31872 82.630196)"/><g fill="#fff"><path d="m64.75637 40.032365a30.644657 19.640671 45 0 1 7.78099 35.557096 30.644657 19.640671 45 0 1 -35.55709-7.780994 30.644657 19.640671 45 0 1 -7.781-35.557095 30.644657 19.640671 45 0 1 35.5571 7.780993z" filter="url(#g)" opacity=".5" stroke-width=".319435" transform="matrix(.90725093 0 0 .90725093 465.31872 82.630196)"/><path d="m95.61188 9.4458012a15.608357 10.637955 45 0 1 3.5146 18.5589498 15.608357 10.637955 45 0 1 -18.55894-3.51461 15.608357 10.637955 45 0 1 -3.51461-18.5589424 15.608357 10.637955 45 0 1 18.55895 3.5146026z" filter="url(#h)" opacity=".5" stroke-width=".196775" transform="matrix(.90725093 0 0 .90725093 462.9838 83.634367)"/></g></g><g transform="matrix(.15729787 0 0 .15726969 31.42964 105.1874)"><path d="m525.34877 75.796112c-10.92261-.000127-21.86236 4.178162-30.18735 12.50289-16.65008 16.650088-16.73168 43.796088-.0764 60.451108 16.65549 16.65549 43.80148 16.57344 60.45111-.0764 16.65011-16.64961 16.65009-43.72484 0-60.374685-8.32501-8.325035-19.26483-12.502785-30.18736-12.502913z" fill="#68574b"/><path d="m496.85819 89.996601c-15.73245 15.732449-15.80734 41.323489-.0751 57.055459 15.73245 15.73245 41.32348 15.65707 57.05546-.0751 15.73244-15.73197 15.73244-41.24787 0-56.980084-7.86623-7.86623-18.17802-11.799583-28.49017-11.799703s-20.62394 3.933473-28.49017 11.799458z" fill="#68574b"/><circle cx="66.145836" cy="39.542774" fill="url(#i)" filter="url(#f)" r="39.542774" transform="matrix(.90725093 0 0 .90725093 465.31872 82.630196)"/><g fill="#fff"><path d="m64.75637 40.032365a30.644657 19.640671 45 0 1 7.78099 35.557096 30.644657 19.640671 45 0 1 -35.55709-7.780994 30.644657 19.640671 45 0 1 -7.781-35.557095 30.644657 19.640671 45 0 1 35.5571 7.780993z" filter="url(#g)" opacity=".5" stroke-width=".319435" transform="matrix(.90725093 0 0 .90725093 465.31872 82.630196)"/><path d="m95.61188 9.4458012a15.608357 10.637955 45 0 1 3.5146 18.5589498 15.608357 10.637955 45 0 1 -18.55894-3.51461 15.608357 10.637955 45 0 1 -3.51461-18.5589424 15.608357 10.637955 45 0 1 18.55895 3.5146026z" filter="url(#h)" opacity=".5" stroke-width=".196775" transform="matrix(.90725093 0 0 .90725093 462.9838 83.634367)"/></g></g><g transform="matrix(.15729787 0 0 .15726969 -41.999521 105.1874)"><path d="m525.34877 75.796112c-10.92261-.000127-21.86236 4.178162-30.18735 12.50289-16.65008 16.650088-16.73168 43.796088-.0764 60.451108 16.65549 16.65549 43.80148 16.57344 60.45111-.0764 16.65011-16.64961 16.65009-43.72484 0-60.374685-8.32501-8.325035-19.26483-12.502785-30.18736-12.502913z" fill="#68574b"/><path d="m496.85819 89.996601c-15.73245 15.732449-15.80734 41.323489-.0751 57.055459 15.73245 15.73245 41.32348 15.65707 57.05546-.0751 15.73244-15.73197 15.73244-41.24787 0-56.980084-7.86623-7.86623-18.17802-11.799583-28.49017-11.799703s-20.62394 3.933473-28.49017 11.799458z" fill="#68574b"/><circle cx="66.145836" cy="39.542774" fill="url(#i)" filter="url(#f)" r="39.542774" transform="matrix(.90725093 0 0 .90725093 465.31872 82.630196)"/><g fill="#fff"><path d="m64.75637 40.032365a30.644657 19.640671 45 0 1 7.78099 35.557096 30.644657 19.640671 45 0 1 -35.55709-7.780994 30.644657 19.640671 45 0 1 -7.781-35.557095 30.644657 19.640671 45 0 1 35.5571 7.780993z" filter="url(#g)" opacity=".5" stroke-width=".319435" transform="matrix(.90725093 0 0 .90725093 465.31872 82.630196)"/><path d="m95.61188 9.4458012a15.608357 10.637955 45 0 1 3.5146 18.5589498 15.608357 10.637955 45 0 1 -18.55894-3.51461 15.608357 10.637955 45 0 1 -3.51461-18.5589424 15.608357 10.637955 45 0 1 18.55895 3.5146026z" filter="url(#h)" opacity=".5" stroke-width=".196775" transform="matrix(.90725093 0 0 .90725093 462.9838 83.634367)"/></g></g><g transform="matrix(.15729787 0 0 .15726969 -7.95228 100.21855)"><path d="m525.34877 75.796112c-10.92261-.000127-21.86236 4.178162-30.18735 12.50289-16.65008 16.650088-16.73168 43.796088-.0764 60.451108 16.65549 16.65549 43.80148 16.57344 60.45111-.0764 16.65011-16.64961 16.65009-43.72484 0-60.374685-8.32501-8.325035-19.26483-12.502785-30.18736-12.502913z" fill="#68574b"/><path d="m496.85819 89.996601c-15.73245 15.732449-15.80734 41.323489-.0751 57.055459 15.73245 15.73245 41.32348 15.65707 57.05546-.0751 15.73244-15.73197 15.73244-41.24787 0-56.980084-7.86623-7.86623-18.17802-11.799583-28.49017-11.799703s-20.62394 3.933473-28.49017 11.799458z" fill="#68574b"/><circle cx="66.145836" cy="39.542774" fill="url(#i)" filter="url(#f)" r="39.542774" transform="matrix(.90725093 0 0 .90725093 465.31872 82.630196)"/><g fill="#fff"><path d="m64.75637 40.032365a30.644657 19.640671 45 0 1 7.78099 35.557096 30.644657 19.640671 45 0 1 -35.55709-7.780994 30.644657 19.640671 45 0 1 -7.781-35.557095 30.644657 19.640671 45 0 1 35.5571 7.780993z" filter="url(#g)" opacity=".5" stroke-width=".319435" transform="matrix(.90725093 0 0 .90725093 465.31872 82.630196)"/><path d="m95.61188 9.4458012a15.608357 10.637955 45 0 1 3.5146 18.5589498 15.608357 10.637955 45 0 1 -18.55894-3.51461 15.608357 10.637955 45 0 1 -3.51461-18.5589424 15.608357 10.637955 45 0 1 18.55895 3.5146026z" filter="url(#h)" opacity=".5" stroke-width=".196775" transform="matrix(.90725093 0 0 .90725093 462.9838 83.634367)"/></g></g><g transform="matrix(.15729787 0 0 .15726969 -73.637727 93.686637)"><path d="m525.34877 75.796112c-10.92261-.000127-21.86236 4.178162-30.18735 12.50289-16.65008 16.650088-16.73168 43.796088-.0764 60.451108 16.65549 16.65549 43.80148 16.57344 60.45111-.0764 16.65011-16.64961 16.65009-43.72484 0-60.374685-8.32501-8.325035-19.26483-12.502785-30.18736-12.502913z" fill="#68574b"/><path d="m496.85819 89.996601c-15.73245 15.732449-15.80734 41.323489-.0751 57.055459 15.73245 15.73245 41.32348 15.65707 57.05546-.0751 15.73244-15.73197 15.73244-41.24787 0-56.980084-7.86623-7.86623-18.17802-11.799583-28.49017-11.799703s-20.62394 3.933473-28.49017 11.799458z" fill="#68574b"/><circle cx="66.145836" cy="39.542774" fill="url(#i)" filter="url(#f)" r="39.542774" transform="matrix(.90725093 0 0 .90725093 465.31872 82.630196)"/><g fill="#fff"><path d="m64.75637 40.032365a30.644657 19.640671 45 0 1 7.78099 35.557096 30.644657 19.640671 45 0 1 -35.55709-7.780994 30.644657 19.640671 45 0 1 -7.781-35.557095 30.644657 19.640671 45 0 1 35.5571 7.780993z" filter="url(#g)" opacity=".5" stroke-width=".319435" transform="matrix(.90725093 0 0 .90725093 465.31872 82.630196)"/><path d="m95.61188 9.4458012a15.608357 10.637955 45 0 1 3.5146 18.5589498 15.608357 10.637955 45 0 1 -18.55894-3.51461 15.608357 10.637955 45 0 1 -3.51461-18.5589424 15.608357 10.637955 45 0 1 18.55895 3.5146026z" filter="url(#h)" opacity=".5" stroke-width=".196775" transform="matrix(.90725093 0 0 .90725093 462.9838 83.634367)"/></g></g><g transform="matrix(.15729787 0 0 .15726969 -57.129277 96.463381)"><path d="m525.34877 75.796112c-10.92261-.000127-21.86236 4.178162-30.18735 12.50289-16.65008 16.650088-16.73168 43.796088-.0764 60.451108 16.65549 16.65549 43.80148 16.57344 60.45111-.0764 16.65011-16.64961 16.65009-43.72484 0-60.374685-8.32501-8.325035-19.26483-12.502785-30.18736-12.502913z" fill="#68574b"/><path d="m496.85819 89.996601c-15.73245 15.732449-15.80734 41.323489-.0751 57.055459 15.73245 15.73245 41.32348 15.65707 57.05546-.0751 15.73244-15.73197 15.73244-41.24787 0-56.980084-7.86623-7.86623-18.17802-11.799583-28.49017-11.799703s-20.62394 3.933473-28.49017 11.799458z" fill="#68574b"/><circle cx="66.145836" cy="39.542774" fill="url(#i)" filter="url(#f)" r="39.542774" transform="matrix(.90725093 0 0 .90725093 465.31872 82.630196)"/><g fill="#fff"><path d="m64.75637 40.032365a30.644657 19.640671 45 0 1 7.78099 35.557096 30.644657 19.640671 45 0 1 -35.55709-7.780994 30.644657 19.640671 45 0 1 -7.781-35.557095 30.644657 19.640671 45 0 1 35.5571 7.780993z" filter="url(#g)" opacity=".5" stroke-width=".319435" transform="matrix(.90725093 0 0 .90725093 465.31872 82.630196)"/><path d="m95.61188 9.4458012a15.608357 10.637955 45 0 1 3.5146 18.5589498 15.608357 10.637955 45 0 1 -18.55894-3.51461 15.608357 10.637955 45 0 1 -3.51461-18.5589424 15.608357 10.637955 45 0 1 18.55895 3.5146026z" filter="url(#h)" opacity=".5" stroke-width=".196775" transform="matrix(.90725093 0 0 .90725093 462.9838 83.634367)"/></g></g><g transform="matrix(.15729787 0 0 .15726969 11.73868 96.082917)"><path d="m525.34877 75.796112c-10.92261-.000127-21.86236 4.178162-30.18735 12.50289-16.65008 16.650088-16.73168 43.796088-.0764 60.451108 16.65549 16.65549 43.80148 16.57344 60.45111-.0764 16.65011-16.64961 16.65009-43.72484 0-60.374685-8.32501-8.325035-19.26483-12.502785-30.18736-12.502913z" fill="#68574b"/><path d="m496.85819 89.996601c-15.73245 15.732449-15.80734 41.323489-.0751 57.055459 15.73245 15.73245 41.32348 15.65707 57.05546-.0751 15.73244-15.73197 15.73244-41.24787 0-56.980084-7.86623-7.86623-18.17802-11.799583-28.49017-11.799703s-20.62394 3.933473-28.49017 11.799458z" fill="#68574b"/><circle cx="66.145836" cy="39.542774" fill="url(#i)" filter="url(#f)" r="39.542774" transform="matrix(.90725093 0 0 .90725093 465.31872 82.630196)"/><g fill="#fff"><path d="m64.75637 40.032365a30.644657 19.640671 45 0 1 7.78099 35.557096 30.644657 19.640671 45 0 1 -35.55709-7.780994 30.644657 19.640671 45 0 1 -7.781-35.557095 30.644657 19.640671 45 0 1 35.5571 7.780993z" filter="url(#g)" opacity=".5" stroke-width=".319435" transform="matrix(.90725093 0 0 .90725093 465.31872 82.630196)"/><path d="m95.61188 9.4458012a15.608357 10.637955 45 0 1 3.5146 18.5589498 15.608357 10.637955 45 0 1 -18.55894-3.51461 15.608357 10.637955 45 0 1 -3.51461-18.5589424 15.608357 10.637955 45 0 1 18.55895 3.5146026z" filter="url(#h)" opacity=".5" stroke-width=".196775" transform="matrix(.90725093 0 0 .90725093 462.9838 83.634367)"/></g></g></g><path d="m81.760487 69.334998c-.86964-1.634853-2.323261-2.766165-3.966318-3.268359l-.000011.000001c-1.643065-.502197-3.480786-.376743-5.115781.49256-3.270018 1.738698-4.530132 5.817756-2.790285 9.08845 0 0 1.2892-6.063909 3.713995-7.351569 2.421212-1.285753 8.1584 1.038917 8.1584 1.038917z" fill="#533c2c" filter="url(#j)" opacity=".5"/><path d="m92.899619 67.524647c-.86964-1.634853-2.323261-2.766165-3.966318-3.268359l-.000011.000001c-1.643065-.502197-3.480786-.376743-5.115781.49256-3.270018 1.738698-4.530132 5.817756-2.790285 9.08845 0 0 1.2892-6.063909 3.713995-7.351569 2.421212-1.285753 8.1584 1.038917 8.1584 1.038917z" fill="#533c2c" filter="url(#j)" opacity=".5"/><path d="m89.185624 74.876216c-.86964-1.634853-2.323261-2.766165-3.966318-3.268359l-.000011.000001c-1.643065-.502197-3.480786-.376743-5.115781.49256-3.270018 1.738698-4.530132 5.817756-2.790285 9.08845 0 0 1.2892-6.063909 3.713995-7.351569 2.421212-1.285753 8.1584 1.038917 8.1584 1.038917z" fill="#533c2c" filter="url(#j)" opacity=".5"/><path d="m65.346457 90.800399c-.86964-1.634853-2.323261-2.766165-3.966318-3.268359l-.000011.000001c-1.643065-.502197-3.480786-.376743-5.115781.49256-3.270018 1.738698-4.530132 5.817756-2.790285 9.08845 0 0 1.2892-6.063909 3.713995-7.351569 2.421212-1.285753 8.1584 1.038917 8.1584 1.038917z" fill="#533c2c" filter="url(#j)" opacity=".5"/></svg>