<svg height="500" viewBox="0 0 132.29167 132.29167" width="500" xmlns="http://www.w3.org/2000/svg" xmlns:xlink="http://www.w3.org/1999/xlink"><linearGradient id="a"><stop offset="0" stop-color="#c6af9f"/><stop offset=".2534456" stop-color="#c29170"/><stop offset=".73256886" stop-color="#b0754d"/><stop offset="1" stop-color="#a05a2c"/></linearGradient><radialGradient id="b" cx="24.582294" cy="-180.4882" gradientTransform="matrix(-1.2487598 .03034464 -.03034451 -1.2487599 49.802867 -399.75493)" gradientUnits="userSpaceOnUse" r="61.87229" xlink:href="#a"/><linearGradient id="c" gradientUnits="userSpaceOnUse" x1="39.767021" x2="2.05146" xlink:href="#a" y1="-98.05941" y2="-185.42589"/><linearGradient id="d" gradientUnits="userSpaceOnUse" x1="-46.588375" x2="113.69932" xlink:href="#a" y1="-139.55798" y2="-154.36064"/><linearGradient id="e" gradientUnits="userSpaceOnUse" x1="105.99908" x2="44.045601" xlink:href="#a" y1="-92.841858" y2="-129.70197"/><g stroke-width="1.17438" transform="matrix(.8515329 0 0 .8514984 40.320085 189.91323)"><path d="m109.07422-755.01172c-112.7921812 0-204.447267 92.64716-204.447267 206.25 0 113.60285 91.6550858 206.25 204.447267 206.25 112.79218 0 204.4414-92.64715 204.4414-206.25 0-113.60284-91.64922-206.25-204.4414-206.25zm157.31995 250.48929-15.18455 52.38187 16.04825 5.64714 4.01575 1.40995c.23962.0903.46926.25815.71603.35415-6.15458 1.87491-12.86721 4.93863-18.8386 13.87056l-.23622.35414-.22148.3617c-4.35115 7.22555-5.93454 15.06713-4.53249 23.69586l.406 2.50247 1.07777 2.28098c12.26411 26.03735 36.50767 40.25903 60.67914 47.67964 23.99055 7.36506 49.09244 8.95412 69.38237 9.50049 6.79915.39999 14.47435-.67684 20.92029-6.41488 6.48628-5.77395 8.60485-15.58333 7.15302-22.35235-2.90366-13.53804-13.81523-21.82099-27.7116-22.20473l2.24409.20674c-13.97015-2.15482-34.41078-3.65317-51.5108-7.23424-6.76245-1.41619-11.74205-3.27938-16.14422-5.07137 3.838-1.88485 8.108-3.81736 12.89617-7.56642 5.50866-4.3132 12.35316-12.81736 12.31298-23.54087v-.008c-.0601-15.64483-8.53939-27.90055-17.75342-36.70277-9.21404-8.80222-19.90322-15.05064-29.91882-19.36271l-.36888-.16252z" fill="#604939" stroke-width="4.43859" transform="scale(.26458334)"/><path d="m60.55149-181.80189c-5.15738-4.17357-9.17459-6.79216-15.13249-8.58055l24.4993 19.65891c-2.75273-4.1969-6.15001-8.2371-9.36681-11.07836zm-50.28922-8.12482c-2.43469-1.04352-3.76475-.28469-4.14496 2.01877 16.15017 28.2231 28.20326 58.00857 38.22859 88.52746 2.94481 1.30467 2.74082-.47572 3.4589-1.2065-7.37553-31.09436-21.43919-61.05419-37.54253-89.33973zm-8.21081 4.50082c-4.03516-1.11945-3.3073 1.53565-4.07062 3.04589 20.20782 29.58941 27.46243 57.37172 37.98173 85.1871 2.20478 1.73725 3.18453.62574 3.80445-.86651-9.93405-30.21542-21.83792-59.59528-37.71556-87.36648zm-7.64461 6.26163c-2.47068-.68685-3.09245.84482-3.02683 3.19696 14.62696 25.94875 26.42208 51.25958 35.07978 79.60837 2.67441 1.58247 3.81132 1.01282 4.68127-.12251-10.3677-27.58069-17.5088-54.32901-36.73422-82.68282zm-6.19284 7.26017c-2.62075 3.98312-4.63556 8.33329-5.97852 12.90823l10.58545-4.50877c-1.5116-2.81294-3.0473-5.61286-4.60693-8.39946zm36.36831-1.71847c2.28282 4.4069 4.49844 8.85296 6.62966 13.33739 5.32606 3.49064 11.80571 8.3767 16.51 11.75808 1.79498-.3522 3.02504-.62131 4.87869-1.01749-9.63867-9.52964-18.49024-16.79182-28.01835-24.07798zm37.74043 10.84236 3.44883 3.20861c1.78864 1.69439 3.55202 3.41525 5.28955 5.16202 1.63172-.5079 3.25778-1.03383 4.87786-1.57771-.30146-1.34545-.66047-2.67735-1.07606-3.99204-3.00392-2.73037-5.46246-4.86114-8.54578-7.53639-8.91777-7.53444-16.11786-13.24848-24.7589-19.59425-3.05964-2.21694-6.15587-4.38294-9.28741-6.49711-5.5618-2.69901-6.00128-.94456-7.42341.0206 4.60269 3.55997 9.19321 7.13158 13.72579 10.73574 8.27837 6.6435 16.93026 13.83816 23.74953 20.07049zm-26.48903-16.16128c-5.75998-4.58522-11.63426-9.13077-17.52335-13.67895-1.19671.26152-2.383.56866-3.55627.92075 1.47532 2.59794 2.93291 5.21202 4.37171 7.84013 6.23277 4.82439 10.99018 8.40568 16.87539 12.97755 8.79481 6.67061 14.86993 13.18559 22.41365 20.00911 2.49626-.61728 4.98127-1.2792 7.45383-1.98543-2.24897-2.21901-4.24585-4.06111-6.62118-6.27645-8.44015-7.60283-15.26197-13.27577-23.41378-19.80671zm3.361 36.65406c.5551 1.35255 1.0975 2.70933 1.63354 4.06796 12.27407-1.57972 24.40615-4.11489 36.28574-7.58242 1.34409-1.99152 1.64148-3.85313-.3556-5.44037-13.07684 4.19103-24.67052 7.08484-37.56368 8.95483zm-44.13197-16.99578-14.13192 6.01927c-1.54808 1.00304-1.92432 2.62731-.56886 5.17022l17.06907-6.62172c-.78121-1.52684-1.57065-3.04945-2.36829-4.56777zm40.07353 7.52105c.73092 1.64146 1.44937 3.28845 2.1553 4.94082 1.29778-.17727 2.59238-.36248 3.88038-.56435-1.94734-1.41817-4.00553-2.92047-6.03568-4.37647zm-35.54942 1.31868-10.68255 4.1439c4.39657.49642 8.80835.84736 13.22811 1.05225-.8345-1.73461-1.68381-3.46604-2.54529-5.19615zm-19.2278 7.81764c-.47651 1.41367-1.54014 2.67706.45852 4.51697 8.45452 1.04319 16.95808 1.64074 25.47541 1.79017-.61455-1.36318-1.23695-2.72281-1.86716-4.07882-7.83432-.26194-15.8504-.98636-24.0665-2.22832zm96.54831 1.8415c-11.2511 3.20273-22.71914 5.58738-34.31434 7.13529.49347 1.31225.97767 2.62797 1.45257 3.94705 10.51401-1.2917 21.22301-3.33798 32.18311-6.32989 1.73302-1.28588 2.74161-2.72283.67866-4.75271zm-95.09548 7.59275c-.73025.95197-2.08042 1.71794 1.07209 3.57928 8.93525.91784 17.94325 1.5113 27.06106 1.65656-.50353-1.19244-1.01339-2.3822-1.52956-3.56923-8.89148-.0765-17.77235-.63282-26.60386-1.66661zm68.61016 7.42871c-1.58592.23464-3.17421.45302-4.76461.6551.54107 1.58486 1.06759 3.17342 1.57877 4.76621l17.33707 7.55756c2.12884-.66702 5.34565-.51647 4.59661-5.92879zm-65.51268 1.1377c1.27148 2.69055 2.78869 5.25795 4.53231 7.66948l-.11906-7.27551c-1.47373-.1225-2.94508-.25321-4.41325-.39397zm9.18236.75618.20717 12.63994c.75459 4.28123 2.93317 4.25292 5.09588 4.46961l.0228-16.78728c-1.77985-.0918-3.55468-.20109-5.32606-.32227zm10.0883.52758-.027 19.77496c1.0332 2.54344 2.53021 3.98912 5.16202 2.63446l-.39157-22.27871c-1.58148-.0305-3.16269-.0741-4.74345-.13071zm9.58956 4.83024.33999 19.37649c2.3011.72457 4.65333 1.27548 7.03686 1.64809-2.22621-7.0877-4.68651-14.09973-7.37685-21.02458zm35.31552 4.17062c1.11507 3.77431 2.13878 7.57501 3.07023 11.39878 3.14844-1.74556 6.0927-3.8363 8.77835-6.23358zm30.98932-2.73394c-.62415 3.68512-7.28054 2.94799-9.13606 5.72347-.51065.84799-.74878 1.9939-.57733 3.04906 5.01201 10.64075 19.91519 12.13115 30.35988 12.40525 4.12406.25427 2.67653-3.89096-.29368-3.97298-6.53548-1.00806-22.51446-1.64518-23.88421-7.71102-.65219-3.97324 8.63256-4.43838 8.61748-8.46481-.018-4.68474-5.33605-8.58552-9.73485-10.47935l-1.80363-.68289c.46784-1.16339.89008-2.34459 1.26577-3.54092-5.00478 1.30448-10.0519 2.4408-15.13283 3.40704l13.69357 5.12179c2.7708 1.04431 6.89695 3.07234 6.62589 5.14536z" fill="url(#b)" stroke-width=".31072"/><path d="m67.59375-130.56641-.390625.0879c-2.57016.58102-5.14929 1.11898-7.738281 1.61133l-5.453125 1.03711 5.199218 1.94336 13.69336 5.12109h-.0039c1.312981.49487 2.964243 1.24186 4.138671 2.0254.587215.39176 1.049032.79823 1.283204 1.0957.218293.2773.197436.34542.197265.34375-.08226.4352-.244308.66444-.734375.99023-.506218.33654-1.335051.65705-2.285156.95703-1.900211.59998-4.413385.98453-5.853516 3.13868l-.01953.0312-.01953.0312c-.719621 1.19501-1.01583 2.6439-.779297 4.09961l.03516.21484.0918.19726c2.747036 5.8321 8.193341 9.103256 14.091797 10.914068 5.883709 1.806284 12.320371 2.241247 17.589845 2.380859 1.27904.07689 2.40332-.158005 3.22851-.892578.82789-.73697 1.08731-1.917639.88868-2.84375-.39727-1.852223-2.08316-3.279089-4.28321-3.339849l.19336.0176c-3.407529-.52559-8.963552-.93312-13.796873-1.94531-2.41666-.5061-4.639129-1.17018-6.21875-1.98828-1.54353-.79941-2.331247-1.65715-2.554687-2.52539-.05655-.37736-.0061-.50955.53125-.96875.554803-.4741 1.568237-1.01493 2.681641-1.57031 1.113403-.55539 2.325252-1.13204 3.378906-1.95704 1.053654-.82499 2.035303-2.08761 2.029297-3.6914-.01125-2.92857-1.642004-5.43343-3.705078-7.4043s-4.624327-3.4859-6.970704-4.49609l-.01758-.01-.01953-.008c-2.69098-1.07396-5.42433-1.73556-8.023437-2.48633zm-.121094 3.20508c2.545568.72639 5.050313 1.35462 7.353516 2.27149 2.048597.8839 4.34112 2.26067 6.037109 3.88086 1.700148 1.62416 2.737393 3.41375 2.744141 5.16992.0015.40942-.173325.7136-.835938 1.23242-.662612.51881-1.727189 1.06219-2.851562 1.62305-1.124373.56085-2.310314 1.13187-3.3125 1.98828s-1.856927 2.28767-1.597656 3.86718l.0078.0449.0098.0449c.484104 2.14382 2.185496 3.62128 4.191406 4.66015 2.00591 1.03888 4.445485 1.73212 7.011719 2.26954 5.132467 1.074836 10.831042 1.492139 13.958981 1.974606l.0977.01367.0977.0039c.6874.01898 1.1216.533455 1.24609.777344-.0563.02678-.16968.13155-.81445.0918l-.0273-.002h-.0273c-5.167892-.135621-11.385437-.584949-16.802736-2.248047-5.313818-1.631334-9.727816-4.377874-12.033203-9.019534-.05378-.61153.07009-1.32957.335938-1.79101.438394-.61512 2.147337-1.24297 4.173828-1.88282 1.023949-.3233 2.092979-.6836 3.068359-1.33203.975381-.64843 1.868176-1.71383 2.101563-3.09179l.0059-.0293.0039-.0293c.137685-1.05298-.30173-1.9949-.851562-2.69336-.549833-.69845-1.243211-1.25486-2-1.75976-1.513579-1.00981-3.309762-1.79821-4.767578-2.34766h-.002l-8.664063-3.24023c.713405-.15288 1.430651-.28769 2.142578-.44727z" fill="#604939"/><path d="m59.75497-127.34164 13.69357 5.12179c2.7708 1.04431 6.89695 3.07234 6.62589 5.14536-.62415 3.68512-7.28054 2.94799-9.13606 5.72347-.51065.84799-.74878 1.9939-.57733 3.04906 5.01201 10.64075 19.91519 12.13115 30.35988 12.40525 4.12406.25427 2.67653-3.89096-.29368-3.97298-6.53548-1.00806-22.51446-1.64518-23.88421-7.71102-.65219-3.97324 8.63256-4.43838 8.61748-8.46481-.018-4.68474-5.33605-8.58552-9.73485-10.47935-2.55608-1.02012-5.23826-1.67501-7.87906-2.43782-2.58754.58494-5.18514 1.12537-7.79163 1.62105z" fill="url(#e)" stroke-width="3.1072"/><g stroke-linecap="round"><path d="m77.898437-157.48047-2.847656.91211c-12.868868 4.12438-24.095829 6.92143-36.642578 8.74219-.03494.005-11.700977 1.57761-16.900391 1.85937-5.172616.28032-16.9238276-.0215-16.9238276-.0215-7.6082626-.25551-15.3964984-.95986-23.3886714-2.16797l-.416016-.0625h-4.4375l-1.283203 3.80664c.003-.009-.717906.98115-.960938 3.30274-.19663 1.87832.775333 4.10916 2.074219 5.84765-.393746.71019-.764988 1.65671-.861328 3.16211-.124927 1.9521.828232 3.89094 1.767578 4.96289s1.87964 1.70026 2.962891 2.33984l1.052734.62305 1.21875.125c9.0715582.93184 18.24123596 1.53736 27.5429688 1.68555.1656722.006 11.1708032.39935 17.4257812.0801 6.299822-.3216 17.325065-1.85024 17.447266-1.86719.000245-.00003.02523-.004.02539-.004.000277-.00004.04492-.006.04492-.006l4.839844-.6582v-.11133c9.201603-1.32558 18.524351-3.10329 28.0625-5.70703l1.015625-.27734.84375-.62696c1.250171-.92761 3.025567-2.18017 3.826172-5.11718.606082-2.22341-.273839-4.49769-1.457032-6.34961.950007-1.46083 1.871113-3.25857 1.851563-5.71094-.02089-2.62034-1.604767-5.3619-3.542969-6.90234zm-98.582031 24.82227.816407.0996c.435067.0537.873277.0756 1.308593.12695l-.21289 3.65039z" fill="#604939"/><path d="m40.82826-138.21946c12.27407-1.57972 24.40615-4.11489 36.28574-7.58242 1.34409-1.99152 1.64148-3.85313-.3556-5.44037-13.07684 4.19103-24.67052 7.08484-37.56368 8.95483 0 0-11.5635 1.58901-17.38444 1.90446-5.78633.31357-17.38445-.0145-17.38445-.0145-7.83432-.26194-15.8504-.98636-24.0665-2.22832h-.00027c-.47651 1.41367-1.54014 2.67706.45852 4.51697 8.45452 1.04319 16.95808 1.64074 25.47541 1.79017 0 0 11.5204.32447 17.26764.009 5.78228-.31727 17.26763-1.90989 17.26763-1.90989zm3.21734 8.51747c10.51401-1.2917 21.22301-3.33798 32.18311-6.32989 1.73302-1.28588 2.74161-2.72283.67866-4.75271v.00026c-11.2511 3.20273-22.71914 5.58738-34.31434 7.13529 0 0-11.36378 1.66685-17.08878 2.02154-5.68546.35223-17.08877.10253-17.08877.10253-8.89148-.0765-17.77235-.63282-26.60386-1.66661h.00027c-.73025.95197-2.08042 1.71794 1.07209 3.57928 8.93525.91784 17.94325 1.5113 27.06106 1.65656 0 0 11.37417.37613 17.05028.0864 5.70873-.29142 17.05028-1.83263 17.05028-1.83263z" fill="url(#d)" stroke-width="11.1859"/><path d="m8.9765625-195.9707c-1.2926614-.0935-2.6856457.0992-4.0878906.81054-1.8186982.92267-2.773716 2.41718-3.4296875 3.9375-.88824753-.10102-1.81996927-.10493-2.8671875.13086-1.8933423.42632-3.8255071 2.00621-4.6269531 3.37305-.8720047 1.48718-1.2187516 2.45167-1.2890625 2.89844-.3124698.0258-.5968498-.01-.9277344.0586-1.5897224.32901-3.2694359 1.39005-4.2343749 2.64063-1.929878 2.50115-1.772096 4.6084-1.72461 6.31054l.03906 1.38282.679687 1.20703c14.4945673 25.71388 26.088673 50.61507 34.603516 78.496091l.632813 2.074218 1.867187 1.105469c1.889261 1.117891 3.959977 2.002693 6.527344 1.697266 1.787297-.212626 3.124463-1.127936 4.173828-2.058594 1.840682.935456 4.040809 1.587271 6.283203.660156 1.548906-.640392 2.494735-1.525214 3.140625-2.412109.666078.190561 1.38289.323385 2.220703.333984 1.567331.01983 3.596512-.731222 4.734375-1.77539.894286-.820647 1.090804-1.345971 1.304688-1.771485l1.96289-2-.71289-3.005856c-7.557811-31.86284-21.87231-62.27197-38.123047-90.81641l-.929688-1.63281-1.728515-.74024c-1.003739-.4302-2.19562-.81078-3.4882815-.90429zm-15.9882812 11.06836-.03125.0625c-.00583.00027-.011737.002-.017578.002.020397-.0361.026851-.021.048828-.0645z" fill="#604939"/><path d="m10.26227-189.92671c-2.43469-1.04352-3.76475-.2847-4.14496 2.01877 16.15017 28.2231 28.20326 58.00857 38.22859 88.52746 2.94481 1.30467 2.74082-.47572 3.4589-1.2065-7.37553-31.09436-21.43919-61.05419-37.54253-89.33973zm-8.21081 4.50082c-4.03516-1.11945-3.3073 1.53564-4.07062 3.04589 20.20782 29.58941 27.46243 57.37172 37.98173 85.1871 2.20478 1.73725 3.18453.62574 3.80445-.86651-9.93405-30.21542-21.83792-59.59528-37.71556-87.36648zm-7.64461 6.26163c-2.47068-.68686-3.09245.84482-3.02683 3.19696 14.62696 25.94875 26.42208 51.25958 35.07978 79.60837 2.67441 1.58247 3.81132 1.01282 4.68127-.12251-10.3677-27.58069-17.5088-54.32901-36.73422-82.68282z" fill="url(#c)" stroke-width="11.1859"/></g></g></svg>