<svg height="500" viewBox="0 0 132.29167 132.29167" width="500" xmlns="http://www.w3.org/2000/svg" xmlns:xlink="http://www.w3.org/1999/xlink"><linearGradient id="a"><stop offset="0" stop-color="#656468"/><stop offset=".14681613" stop-color="#7c7b84"/><stop offset=".84980243" stop-color="#7c7b84"/><stop offset="1" stop-color="#656468"/></linearGradient><linearGradient id="b" gradientUnits="userSpaceOnUse" x1="593.26715" x2="683.98907" xlink:href="#a" y1="138.30376" y2="138.31772"/><linearGradient id="c" gradientUnits="userSpaceOnUse" x1="593.99371" x2="684.65057" xlink:href="#a" y1="193.8165" y2="193.9144"/><g stroke-width="1.22812" transform="matrix(.81425842 0 0 .81425842 -454.0939 -68.608462)"><path d="m608.39844 105.87305c-3.96018.7922-7.13914 1.69931-9.625 2.875-1.90961.88531-3.25947 1.67893-4.22263 3.14641-.51638.78676-.86707 1.83314-.64696 2.74812.45694 1.89945 2.1468 3.60604 3.79079 4.46993 1.71374.88751 3.7195 1.63026 5.33917 2.11238 2.78675.77783 5.1724 1.29052 7.77086 1.73948 1.49962.25835 2.4656.85871 14.57745 1.64892 12.11186.79022 14.24586.42987 15.74935.41166 3.82372-.046 7.49172-.18483 10.97488-.41202s6.78148-.54271 9.86583-.94199c1.63054-.21108 3.30761-.46141 4.76752-.71424 2.64329-.44077 5.44188-1.0344 7.8249-1.73183 1.95132-.56921 3.58865-1.23709 5.24049-2.11468 2.323-.97274 2.91521-3.06265 3.71603-5.15029 0 0-.13406-1.40033-.45978-2.00296-1.09919-1.4644-2.91951-2.58331-4.23711-3.20889-2.48552-1.17552-5.66444-2.08301-9.625-2.875-7.89394-1.57857-18.57879-2.52539-30.40027-2.52539-11.82147 0-22.50634.94683-30.40052 2.52539z" fill="#4f3421"/><path d="m2599.7022 500.39606c-3.9048-18.37724-13.3794-57.20618-16.3154-69.68149 0 0-15.0194 2.13877-22.4447 3.6661-20.5641 4.22993-40.3758 11.97896-61.1211 15.20508-25.3009 3.93457-51.054 4.47332-76.6543 4.96875-19.3825.3751-38.7987-.17724-58.1387-1.51367-17.6847-1.22205-35.457-2.50528-52.8477-5.94141-15.0501-2.97367-29.2869-9.27138-44.2539-12.63867-7.7437-1.74219-23.4908-3.89715-23.4908-3.89715-3.0964 13.16148-10.423 53.20374-14.7579 70.54773-1.1837 4.73612-4.5555 17.52119-6.3415 26.39033-2.5966 12.894-6.3493 38.94436-6.3493 38.94436s-4.0792 38.36542-3.6232 57.59695c.6632 27.97374 5.4039 58.9213 9.2348 83.43529 2.5945 16.60249 6.1859 34.15804 6.1859 34.15804l9.5579 36.77913c2.5525 17.73359 2.7781 27.03153 8.759 43.58358 4.9461 9.1501 14.4016 13.93203 23.1708 18.48347 13.2689 6.88693 28.3373 9.92483 43.0505 12.5738 33.2376 5.98413 67.2812 7.4686 101.0527 7.29843 33.2651-.16762 67.0445-.71867 99.4598-8.1917 21.9953-5.07081 46.2086-7.85555 63.11-24.54973 9.251-10.96283 12.9668-32.21293 17.3905-48.29244 2.5977-10.38405 5.7387-21.68988 9.3668-35.30767 2.7503-10.32299 5.7275-21.49272 9.2651-37.36701 4.7678-31.00127 3.15-55.57066 2.3858-83.35729-.5251-19.09217-2.695-39.56422-4.785-57.09801 0 0-3.622-21.9316-5.4331-32.8974z" fill="#4f3421" transform="scale(.26458334)"/><g stroke-width="1.22812"><g stroke-width="2.7572" transform="matrix(0 -.11785085 .11785085 0 573.21542 246.79228)"><path d="m1176.755 556.4905c0-98.10043-8.0369-186.96508-20.6475-250.02896-6.3087-31.5367-13.911-56.71013-21.2905-72.31331-3.6885-7.80384-7.3888-13.11963-9.663-15.4502l-.035-.0236-.035.0354c-2.2743 2.3304-5.9801 7.64047-9.6689 15.4443-7.3794 15.60302-14.9782 40.77688-21.2846 72.31332-12.6105 63.06142-20.6474 151.92624-20.6474 250.02896 0 98.10297 8.0369 186.97089 20.6474 250.03486 6.3086 31.53644 13.9052 56.71005 21.2846 72.31331 3.6888 7.80384 7.3946 13.11416 9.6689 15.4443l.035.0295.035-.0354c2.2742-2.3304 5.9745-7.64046 9.663-15.4443 7.3795-15.60326 14.9841-40.77687 21.2905-72.31331 12.6106-63.06168 20.6475-151.93214 20.6475-250.03486z" fill="#a7663f" stroke-width="6.19009"/><path d="m1176.755 556.4905c0-98.10043-8.0369-186.96508-20.6475-250.02896-6.3087-31.5367-13.911-56.71013-21.2905-72.31331-3.6885-7.80384-7.3888-13.11963-9.663-15.4502l-.035-.0236-.035.0354c-2.2743 2.3304-5.9801 7.64047-9.6689 15.4443-7.3794 15.60302-14.9782 40.77688-21.2846 72.31332-10.3423 51.71877-17.6012 120.81081-19.8805 198.10354 3.5625 15.75378 7.4697 31.47118 12.1525 46.32701 18.2833 58.25716 8.2356 146.59992-2.2771 192.33995 2.8657 23.10653 6.2234 44.38105 10.0051 63.29332 6.3086 31.53644 13.9052 56.71005 21.2846 72.31331 3.6888 7.80384 7.3946 13.11416 9.6689 15.4443l.035.0295.035-.0354c2.2742-2.3304 5.9745-7.64046 9.663-15.4443 7.3795-15.60326 14.9841-40.77687 21.2905-72.31331 12.6106-63.06168 20.6475-151.93214 20.6475-250.03486z" fill="#98583a" stroke-width="6.19009"/><path d="m2887.4047 854.80951c-5.8218-96.89157-10.6795-188.31348-13.7394-273.51987-2.4903-69.95901-3.9681-137.77543-4.6782-206.55721-1.2836-4.52182-2.5789-8.88157-3.8935-12.88402.6397 73.28163 2.226 145.1854 4.8728 219.54152 3.2435 90.38234 8.5556 188.14161 14.9016 291.89021.8854-5.9929 1.725-12.17801 2.5367-18.47063zm-17.3026 92.08178c-2.3429-126.1937-4.9781-238.40302-7.7812-337.88096 3.6599-5.71634 2.2303-18.58255.6431-23.52041-.473-1.50374-.9439-2.71844-1.4041-3.69294-1.0431-36.41575-2.0766-76.68394-3.0971-111.40191-1.3103-44.58869-2.2166-89.76576-3.4275-133.3826-1.3215-2.5288-2.6136-4.79628-3.8109-6.63079 1.2784 45.83791 2.2234 93.28369 3.6399 140.10778.9934 33.79594 1.988 73.04373 2.9968 108.42867-3.9031 2.38353-5.774 22.26028-1.4984 28.27522.6544.89228 1.4896 2.41299 2.3715 3.2741 2.8556 102.20473 5.5356 217.40743 7.8991 348.31088 1.1687-3.77247 2.3297-7.70789 3.4688-11.88704zm-42.0382 13.60373c-11.0917-215.99308-11.2417-389.57239-8.2059-565.03844-1.2912 5.54647-2.557 11.26765-3.7638 17.30258-.076.37983-.1485.78635-.2241 1.16805-2.6499 165.17957-2.2782 329.38317 7.6395 530.94063 1.4899 5.57979 3.013 10.75041 4.5543 15.62718zm-24.9068-458.40315c-1.5138 14.8732-2.8244 30.37352-3.9171 46.4155-.6079 67.66691-1.1937 135.57293-1.2329 208.50987.9633 17.4826 2.1836 34.39965 3.6398 50.65117-.2254-108.32831.5481-208.18428 1.5102-305.57654z" fill="#764832" stroke-width="2.7572" transform="translate(-1721.9645 -106.29172)"/></g><g stroke-width="2.87625" transform="matrix(.11698956 0 0 -.10909328 549.05996 223.18894)"><g stroke-width="6.01362"><path d="m1117.9915 953.98512c-14.4231-8.39207-31.5006-14.92039-45.1289-19.27785-23.8264-7.18944-44.2993-11.86736-66.5524-15.9831 11.9186-41.11835 21.7291-82.28633 29.2975-124.21949 9.5777-53.06518 17.5267-106.71674 20.3003-160.68491 5.9958-116.66839.8557-233.97362-8.0286-350.42999-4.3381-56.86477-13.7427-113.16532-22.0653-169.51768-4.344-29.413969-9.4079-58.624697-14.5418-87.970746 28.0936 6.657415 47.6588 11.170408 68.8879 23.369222 11.1031 6.38013 27.8224 20.168387 29.4461 25.40216 7.3729 23.71931 17.4894 60.311124 25.2922 90.755684 8.741 34.10628 24.0976 102.91507 24.0976 102.91507s9.6562 32.58643 12.0697 49.41504c10.2023 71.13987 11.0532 143.70478 9.8708 215.66982-.7026 42.75511-5.3532 85.36528-10.0729 127.82652-1.6206 14.58053-6.2577 43.53927-6.2577 43.53927l-11.2614 73.17301s-5.4135 28.42599-8.2247 42.61521c-8.8206 44.51837-20.7485 104.33079-27.1284 133.40276z" fill="#a7663f"/><path d="m1117.9915 953.98512c-14.4231-8.39207-31.5006-14.92039-45.1289-19.27785-16.0963-4.85692-30.6599-8.51694-45.2775-11.68143 7.5464-14.83541 15.335-30.4587 17.8162-34.62366 28.3-47.39996 14.4007-74.90084 32.5007-122.60079 11.5-30.19997 30.498-144.79877 8.498-214.8987-14.5-45.99996-23.4999-100.60102-27.7999-137.20098-.1-.9-.1972-1.70012-.2972-2.60012-15.9-133.59987 31.6956-135.20295 31.9956-178.80291.2713-41.24064 9.7364-96.72332 22.3683-147.410274 6.9685 23.281914 15.4301 54.001924 22.2317 80.540014 8.741 34.10628 24.0976 102.91507 24.0976 102.91507s9.6562 32.58643 12.0697 49.41504c10.2023 71.13987 11.0532 143.70478 9.8708 215.66982-.7026 42.75511-5.3532 85.36528-10.0729 127.82652-1.6206 14.58053-6.2577 43.53927-6.2577 43.53927l-11.2614 73.17301s-5.4135 28.42599-8.2247 42.61521c-8.8206 44.51837-20.7485 104.33079-27.1284 133.40276z" fill="#98583a"/><path d="m1044.1236 244.15854c-4.8844-43.58479-11.905-86.92178-18.3095-130.28644-4.344-29.413969-9.4079-58.624697-14.5418-87.970746 28.0936 6.657415 47.6588 11.170408 68.8879 23.369222 5.7446 3.300974 12.9616 8.582114 18.8443 13.637888-14.5014 60.083176-34.769 124.743926-54.8809 181.250076z" fill="#a86748"/><path d="m1068.7027 849.2984c-1.1-.2-2.8042-6.59798-3.3042-9.29798-.3-1.3.1033-7.90334.9033-8.60334 1.9-1.7 1.6959 5.70287 2.4959 8.90286.4 1.4 1.205 9.09846-.095 8.99846z" fill="#6e422b"/></g><path d="m2833.5497 1056.7718c-1.2568-.6548-2.5254-1.2966-3.8033-1.9246-21.1986-339.76629-15.9886-570.71192-9.6807-841.65527.2473-14.4388.618-29.30066.939-43.95988 1.2578 1.08184 2.4734 2.1539 3.5775 3.19279-.308 13.62252-.6397 27.46084-.9152 40.86906-6.3202 271.37189-11.557 502.62343 9.8827 843.4779zm-9.9362-4.8115c-2.4193-1.0911-4.8318-2.1285-7.2501-3.1227-.3067-6.1886 1.0204-13.5102 3.1734-13.6506.9711-.063 2.0784 1.3464 3.2269 5.0026.718 2.4533 1.2883 7.4463.8498 11.7707zm-19.6941-7.8641c-1.7607-.6253-3.4333-1.181-5.1226-1.7462-.4348-3.8086-.055-8.4727 1.2836-9.1323-.8994-54.70649-1.4625-106.74018-1.7888-156.84204 0 .0155-.01.0483-.012.0637-10.1 32.09997-18.7946-20.19908-9.8946-32.69907 1.4-1.925 3.4095-5.92232 5.4316-5.81841.2889.0148.5801.11227.8676.31227 1.5422 1.06354 2.6299 2.82063 3.53 4.81787-.5884-133.29658.3802-253.73762 1.551-370.75936.3215-36.58872.6096-73.27566.9093-109.91246-9.5811.33989-17.5353-36.44515.4278-52.35929.3338-50.2989.3949-102.13974.3031-154.84101.2407.13657.478.24383.7191.38237.9426.54163 1.9664 1.20313 2.9773 1.84175.087 51.39556.063 102.0732-.2615 151.183 7.7196 9.06961 7.0135 33.23304 4.0232 42.60246-1.3868 4.40586-2.9203 7.35683-4.4927 9.11955-.3189 37.33524-.6112 74.70571-1.0043 111.98363-1.7318 172.99032-3.3263 351.12316.5527 571.80354zm7.2441-11.9045c-.6999.5-1.4016-1.0015-1.9016-1.7015-2.0672-2.9094-1.0235-12.9084.9686-13.0389.6098-.04 1.3059.8449 2.0325 3.1418.7999 2.5 1.5005 9.6986-1.0995 11.5986zm-55.178-1.4466c-1.2657-.2886-2.5333-.5617-3.7974-.8412-2.6644-23.5132-5.1087-46.79462-6.9945-69.45767.9544-4.07955 1.8929-8.16015 2.8049-12.24861 2.0935 26.89508 4.7928 54.45118 7.987 82.54748zm-24.8405-5.1684c-.965-.1819-1.899-.3812-2.8703-.5608.8267-2.8521 1.6183-5.7059 2.4246-8.5587.1461 3.0363.2935 6.0681.4457 9.1195zm134.9945-93.96759c-2.256-118.93552-4.7482-226.06572-7.4046-321.1404-.8819-.86111-1.7167-2.38337-2.3711-3.27564-4.2756-6.01495-2.4056-25.89279 1.4975-28.27632-1.0088-35.38493-2.0017-74.63163-2.9951-108.42758-2.3137-76.48369-4.0764-152.68417-5.9546-228.85523 1.3963 5.16815 2.7255 10.15317 4.0648 15.23747 1.7811 70.73014 3.3935 142.14313 5.4911 213.52217 1.0205 34.71796 2.053 74.98795 3.0961 111.4037.4602.97451.9295 2.19251 1.4025 3.69625 1.5872 4.93785 3.0122 17.79945-.6477 23.5158 2.5624 90.93826 4.9769 193.12812 7.1847 305.32937-1.0728 5.55164-1.5918 8.36163-2.4187 12.53538-.288 1.45377-.6505 3.25024-.9449 4.73503zm16.3959-94.29899c-5.3254-90.39927-9.6842-175.54227-12.5688-255.9207-3.2924-92.49309-4.4798-182.80399-4.6888-275.0966 1.2336 5.22646 2.407 10.32414 3.6191 15.54337.3513 86.84979 1.6541 172.035 4.7661 259.45763 2.7146 75.59249 6.6221 154.58165 11.5051 238.91158zm19.9141-181.33293c-4.9392-82.73603-8.8256-162.80262-11.3031-242.00878.7732 3.64234 1.4624 7.14303 1.8839 10.08184.9102 6.34676 1.7234 12.70593 2.49 19.07392 1.9286 54.41033 4.5818 109.54759 7.7255 165.48367-.064 10.37765-.1745 20.75336-.3447 31.11223-.089 5.42099-.2436 10.8407-.4516 16.25712zm-140.3133-337.63332c-.8157-6.13877-1.665-12.27242-2.5316-18.40477 3.049-51.32723 5.5071-104.16191 6.9946-159.21916 1.2136.36129 2.4627.70115 3.6548 1.07701-1.6727 61.29503-4.6058 119.67826-8.1178 176.54692zm-18.9394-127.55249c-.9913-6.11555-2.0016-12.23029-3.0308-18.34105.48-12.92178 1.1619-25.07495 1.5808-38.19883 1.2369.29598 2.4792.59357 3.6845.88583-.6052 19.09524-1.5311 36.94102-2.2345 55.65405z" fill="#764832" stroke-width="2.87625" transform="translate(-1721.9645 -106.29172)"/></g><g stroke-width="2.87785" transform="matrix(.11683616 0 0 .10911587 472.98844 116.14842)"><g stroke-width="6.01694"><path d="m1067.7762 27.192688c-6.4121 29.183535-16.9272 89.678882-27.2831 134.044152-3.2796 14.04936-11.0263 41.80995-11.0263 41.80995l-12.4961 72.95397s-13.5212 114.29186-12.2164 171.66164c2.0174 88.70754 30.9308 264.13159 30.9308 264.13159l18.7738 77.35669s3.8385 32.0612 6.6706 47.92661c4.1713 23.36872 14.9103 68.33909 15.1797 69.50061 1.7934 5.29812 10.635 15.58102 29.3539 25.14203 17.1813 8.76801 41.249 16.84496 69.6804 23.53005-4.828-30.46987-9.5869-60.92324-13.6267-91.50785-7.4315-56.26151-15.7817-112.50269-19.5176-169.18312-7.6126-115.49261-11.4041-231.65367-5.8375-347.28 2.573-53.4478 9.7479-106.61664 18.0955-159.38371 6.6717-42.17411 15.1886-83.5027 25.5218-125.378875-38.5771-8.04181-78.697-15.400807-112.2028-35.323737z" fill="#a7663f"/><path d="m1122.4078 49.422941c-17.4604 58.512199-31.771 131.501689-32.109 182.875529-.3 43.59995-47.8958 45.20425-31.9958 178.80412.1.89999.1975 1.69958.2975 2.59958 4.3 36.59996 13.3008 91.1981 27.8008 137.19806 21.9999 70.09993 2.9967 184.69884-8.5033 214.89881-11.8199 31.14963-10.1378 53.7402-15.3285 78.82851 4.7757 24.33067 13.4966 60.90247 13.7397 61.95035 1.7934 5.29812 10.635 15.58102 29.3539 25.14203 17.1813 8.76801 41.249 16.84496 69.6804 23.53005-4.828-30.46987-9.5869-60.92324-13.6267-91.50785-7.4315-56.26151-15.7817-112.50269-19.5176-169.18312-7.6126-115.49261-11.4041-231.65367-5.8375-347.28 2.573-53.4478 9.7479-106.61664 18.0955-159.38371 6.6717-42.17411 15.1886-83.5027 25.5218-125.378875-19.1447-3.990914-38.6634-7.820004-57.5712-13.093484z" fill="#98583a"/><path d="m1067.7762 27.192688c-6.4121 29.183535-16.9272 89.678882-27.2831 134.044152-3.2796 14.04936-11.0263 41.80995-11.0263 41.80995l-12.4961 72.95397s-2.6928 23.10897-5.5518 53.31055c30.2186-71.95984 69.8655-187.3463 91.8759-285.883975-12.3709-4.346093-24.3209-9.57636-35.5186-16.234647z" fill="#a86748"/><path d="m1066.7824 831.15178c-.1437.0104-.3038.0891-.482.24849-.8.69999-1.1985 7.30156-.8985 8.60156.5 2.69999 2.1966 9.09605 3.2966 9.29605 1.3.1.5012-7.59659.1012-8.99659-.725-2.9-.6275-9.24979-2.0173-9.14951z" fill="#6e422b"/></g><path d="m2801.4334 139.79222c.1686 58.32632.04 114.93073-.3273 170.22805l-.4343 52.36119c-.2997 36.63681-.589 73.3201-.9105 109.90882-1.6549 165.40362-3.0482 336.38089.125 543.70142.9067 1.4535 2.0897 3.0596 3.7072 4.8232-3.3516-209.64379-1.895-381.82797-.2262-548.52462.3931-37.27792.6868-74.64432 1.0057-111.97956l.4641-51.72405c.359-54.25731.459-109.85931.2975-167.02954-1.2388-.57829-2.476-1.15995-3.7012-1.76491zm20.0175 8.56333c-.4999 21.75013-1.0218 43.54093-1.3864 64.83664-6.2042 266.48932-11.2398 494.71409 8.7591 825.39931 1.2268.613 2.5033 1.2164 3.7964 1.8222-20.2228-331.69337-15.1713-560.22804-8.9555-827.11956.429-20.87623.9335-42.28901 1.4281-63.63243-1.217-.42852-2.4333-.85952-3.6417-1.30616zm25.248 7.96441c2.2337 108.60692 4.9879 209.17787 8.1641 314.17355.432 14.69448.8699 31.15296 1.3032 47.14291.3963-19.93626 1.0568-39.85985 1.9756-59.77128-2.9395-100.0462-5.5828-196.71113-7.7238-300.57671-1.2393-.32464-2.4844-.63253-3.7191-.96847zm19.2856 4.79138c-.9567 73.30104-1.4098 143.99157-.72 212.08897 1.087-9.11868 2.2776-18.22309 3.5168-27.3211-.4042-59.13083.077-120.58286.8985-183.91408-1.2341-.27609-2.4629-.57122-3.6953-.85379zm22.4037 4.84873c-.1722 21.4564-.1533 42.40024-.1131 63.21191 1.1338-5.51018 2.3013-11.0187 3.4989-16.52774.017-15.19362.025-30.39622.1548-45.9387-1.1801-.2441-2.3592-.50014-3.5406-.74547zm-122.634 86.85664c-1.0991 5.02184-2.1961 9.99736-3.2966 14.71185-.3162 1.35449-.8078 3.23193-1.1961 4.80413-2.8184 51.10979-6.1391 100.88304-9.497 149.96023-5.8923 86.65982-11.4401 171.5752-13.7516 259.00888 1.0274 8.25529 2.0823 16.24119 3.1419 24.25003 1.7999-96.01429 7.8771-188.48322 14.3109-283.0614 3.774-55.15751 7.2887-111.74084 10.2885-169.67372zm-32.8111 187.39931c-3.429 36.95619-6.9182 83.22769-6.2243 113.7381.1826 8.02889.6439 16.95078 1.2258 26.20608 1.4325-47.11396 3.0081-94.00442 4.9985-139.94418zm122.7768 142.65845c-2.0782 6.21646-2.4744 17.60104.2142 22.9821-.104-7.66008-.1723-15.32243-.2142-22.9821zm7.4798 202.34054c1.9059 80.30883 3.6815 167.63053 5.1769 268.57259 1.2155.3701 2.4789.7312 3.7191 1.0959-1.1218-75.84302-2.4231-143.17504-3.8083-206.58402-1.6455-15.78899-3.0791-31.60053-4.1237-47.44875-.3433-5.20842-.6368-10.42467-.964-15.63572zm-85.4672 54.89069c-2.0221-.10391-4.0328 3.88583-5.4328 5.81083-2.714 3.81181-3.4084 11.19947-3.3084 18.89158l5.7065 23.5173c2.2004 1.17141 4.7778-1.05963 7.4976-9.70384 2.6-8.39999 5.1-32.20367-3.6-38.20366-.2875-.2-.574-.29737-.8629-.31221zm32.4958 177.345c-1.3392.088-1.8245 4.2289-1.6483 8.0855 1.1553.9912 2.4086 1.9942 3.7726 3.0201.5305-2.8929.4498-6.28-.089-7.9644-.7266-2.2969-1.4252-3.1811-2.035-3.1412zm86.6572 41.3831c.067.9522.1052 1.6902.1726 2.6442.085.02.1648.044.2499.064-.143-.9026-.2796-1.8053-.4225-2.7079z" fill="#764832" stroke-width="2.87785" transform="translate(-1721.9645 -106.29172)"/></g><g stroke-width="2.60192" transform="matrix(.1464527 0 0 -.10649051 463.23936 225.50925)"><g stroke-width="5.44007"><path d="m1040.2908 956.24344c-8.3955-43.09487-15.2793-85.69293-20.6406-129.14888-6.6637-54.01011-12.3328-108.45279-14.2795-163.16944-4.2334-118.99095-.7369-238.50819 5.7156-357.31059 3.1554-58.09939 10.0221-115.71749 16.1119-173.37365 3.3098-31.33853 7.1712-62.499532 11.0988-93.770362 21.3514-4.576553 45.8861-8.214809 68.943-10.687327 25.0283-2.683993 49.6926-4.04197 75.2425-4.491681v88.69111c.0002 56.8173 0 113.63153 0 170.44884.0006 119.83572 0 239.675 0 359.51072v165.87882 134.7243c-26.0531.39065-50.0502 1.58892-75.0193 3.87147-22.4437 2.05173-46.3503 5.12832-67.1724 8.82667z" fill="#a7663f"/><path d="m1040.2908 956.24344c-2.7801-14.27042-5.3796-28.48656-7.828-42.69708 5.0918-10.0551 11.1339-22.12324 12.936-25.14819 28.2999-47.39995 14.399-74.90073 32.499-122.60068 11.5-30.19997 30.5022-144.79566 8.5022-214.89559-14.5-45.99995-23.4994-100.59868-27.7994-137.19865-.1-.9-.199-1.70491-.299-2.60491-15.9-133.59987 31.7006-135.19897 32.0006-178.79892.3826-58.16789 18.5289-144.671899 39.0928-205.52704 17.5482-1.364149 35.0972-2.164218 53.0875-2.48087v88.69111c.0002 56.8173 0 113.63153 0 170.44884.0006 119.83572 0 239.675 0 359.51072v165.87882 134.7243c-26.0531.39065-50.0502 1.58892-75.0193 3.87147-22.4437 2.05173-46.3503 5.12832-67.1724 8.82667z" fill="#98583a"/><path d="m1009.7333 333.16637c.4457-8.85276.8726-17.70652 1.353-26.55184 3.1554-58.09939 10.0221-115.71749 16.1119-173.37365 3.3098-31.33853 7.1712-62.499532 11.0988-93.770362 21.166-4.536822 45.4536-8.144444 68.3354-10.615513-21.5629 103.319025-65.0297 229.279995-96.8991 304.311365z" fill="#a86748"/><path d="m1068.6978 849.29835c-1.1-.2-2.7992-6.59673-3.2992-9.29673-.3-1.3.1019-7.9047.9019-8.6047 1.9-1.7 1.7018 5.70502 2.5018 8.90501.4 1.4 1.1955 9.09642-.1045 8.99642z" fill="#6e422b"/></g><path d="m2800.3988 1056.8814c-.034-3.0492-.072-6.1179-.1282-9.349-.3371-.4025-.6486-.977-.9067-1.3383-1.9792-2.7856-1.1092-12.0726.7168-12.9724-1.2041-73.23691-1.6829-140.65187-1.9084-205.98402-.049.17056-.084.49974-.1329.65939-10.1 32.09997-18.8025-20.20179-9.9026-32.70178 1.4-1.925 3.4134-5.9209 5.4355-5.81699.2889.0148.5765.11337.864.31337 1.6182 1.11599 2.7454 2.98443 3.6601 5.11843-.1765-114.10517.6391-219.86341 1.6662-322.51965.3215-36.58871.6118-73.27227.9115-109.90908-9.5811.33989-17.5312-36.44527.432-52.35941.3695-55.68646.5076-112.65999.3323-171.42813 1.235-.17653 2.4664-.35173 3.7028-.52229.1798 58.45324.063 115.12478-.3038 170.51412 7.7195 9.06961 7.0158 33.23626 4.0255 42.60568-1.3867 4.40586-2.9184 7.35775-4.4908 9.12047-.3189 37.33524-.6133 74.70073-1.0064 111.97864-1.7652 176.32341-3.4547 357.48006.7216 584.14045-1.2312.1483-2.4594.2972-3.6885.4505zm17.2322-1.9782c-2.6331-5.474-1.1023-19.5202 1.9036-19.7164.9711-.063 2.0795 1.3513 3.228 5.0075.8531 2.9148 1.6186 9.4885.5317 14.1344-1.8839.1856-3.7674.3755-5.6633.5745zm12.0482-1.2143c-21.1115-339.11076-15.9134-569.87417-9.613-840.49922.4344-25.3658 1.0422-51.23749 1.6473-77.22688 1.2321-.14366 2.4721-.30015 3.6981-.43742-.6103 26.16316-1.2227 52.25491-1.747 77.76876-6.2986 270.44428-11.4906 501.15313 9.6937 840.09446-1.2304.1072-2.4443.1878-3.6791.3003zm38.6467-2.6963c-2.6264-176.14266-6.0622-314.11956-9.594-440.52421-.8819-.86111-1.7145-2.38508-2.3689-3.27736-4.2756-6.01494-2.403-25.88533 1.5001-28.26886-1.0088-35.38494-2.0068-74.63114-3.0002-108.42709-3.4083-112.66917-6.4969-218.88384-8.7822-337.01315 1.2284-.10392 2.4604-.20885 3.6885-.30684 2.2858 118.25174 5.3829 224.44593 8.6968 337.21554 1.0205 34.71796 2.0521 74.99491 3.0952 111.41065.4602.97451.9321 2.18493 1.4051 3.68867 1.5872 4.93785 3.0143 17.80622-.6456 23.52256 3.5714 126.74445 7.0644 265.11866 9.7032 441.82339-1.2277.056-2.4737.096-3.698.1567zm27.9892-.9662c-12.5918-179.55152-21.3437-329.0951-26.3514-468.63642-5.3124-149.23794-6.4179-288.73215-3.8832-449.3574 1.2306-.073 2.4707-.12175 3.7028-.18933-2.5388 160.70383-1.4313 300.15091 3.8831 449.4488 5.007 139.42338 13.8406 289.12188 26.3468 468.64945-1.2434.023-2.463.058-3.6981.085zm-85.1498-17.8362c-.7.5-1.4036-.9974-1.9036-1.6974-2.0672-2.9094-1.0237-12.9137.9684-13.0442.6098-.04 1.3052.8434 2.0318 3.1403.8 2.5 1.5034 9.7013-1.0966 11.6013zm-55.7886-6.8942c-3.7712-21.5173-7.1601-43.01139-10.1684-64.64626-7.5465-90.59393-9.2863-175.00284-7.7189-256.60684-.021-4.18592 0-8.14526.2801-12.16933 2.1098-91.17974 7.8654-179.44328 13.9946-269.58571 6.0782-88.83556 12.1073-179.71543 14.8444-277.77259 1.2346-.2475 2.4753-.48984 3.7265-.7312-2.7265 98.3654-8.7745 189.64577-14.8681 278.70618-5.5878 82.14057-10.9259 162.67703-13.4487 245.30583 1.1562-3.25643 2.46-6.23313 4.0825-8.51983 3.4125-4.9 8.2063-14.54255 13.1022-14.26501.6994.0396 1.3982.28288 2.0982.77038 21.2 14.49998 15.3013 72.29523 8.8013 92.59521-12.5097 39.66498-23.9872 26.24947-29.4941-.38518-.6856 90.1989 3.3421 184.66503 14.7684 287.30435zm149.0703-336.7716c-11.8563-191.03972-18.6742-358.40584-15.9979-557.51028 1.192-.0402 2.3987-.0556 3.5936-.0914-2.467 178.43147 2.6802 331.19745 12.4043 498.335 0 19.75537.0001 39.51131 0 59.26668zm-178.9347-17.14412c-.2331-86.22044 2.8708-172.53275 7.5385-258.47403.7553-13.90737 1.734-27.78664 2.853-41.64597-4.4718 98.04985-8.6283 196.29306-10.3915 300.12z" fill="#764832" stroke-width="2.60192" transform="translate(-1721.9645 -106.29172)"/></g><g stroke-width="2.56771" transform="matrix(.15038415 0 0 .10648904 490.28454 121.03264)"><g stroke-width="5.36853"><path d="m1141.9819 24.82577c-40.5801 7.410333-87.7955 11.931198-138.5854 12.711371v134.660879 166.16184 359.71155 170.39243 88.34631c24.9465-.45075 49.0256-1.81993 73.4604-4.51785 22.5012-2.48458 46.4555-6.13943 67.284-10.73971 4.0993-30.2874 8.1271-60.34537 11.6131-90.65747 6.6259-57.61451 14.1159-115.16394 17.6693-173.31729 7.3071-119.58476 11.8564-240.06694 7.4339-359.93352-2.0418-55.33391-8.1506-110.36793-15.6398-164.75817-5.9562-43.25643-13.7313-85.773619-23.2355-128.06037z" fill="#a7663f"/><path d="m1141.9819 24.82577c-4.1344.754988-8.3844 1.460301-12.6533 2.15447-20.5363 60.846182-38.6456 147.21573-39.0278 205.32095-.3 43.59996-47.9008 45.20153-32.0008 178.8014.1.9.2005 1.69842.3005 2.59842 4.3 36.59996 13.2984 91.20059 27.7984 137.20054 22 70.09993 3.0028 184.69858-8.4972 214.89855-18.0999 47.69995-4.2001 75.20243-32.5001 122.60238-5.0677 8.5065-28.7546 57.44511-36.3418 68.25099 22.9282-.54768 45.2256-1.86898 67.7971-4.36117 22.5012-2.48458 46.4555-6.13943 67.284-10.73971 4.0993-30.2874 8.1271-60.34537 11.6131-90.65747 6.6259-57.61451 14.1159-115.16394 17.6693-173.31729 7.3071-119.58476 11.8564-240.06694 7.4339-359.93352-2.0418-55.33391-8.1506-110.36793-15.6398-164.75817-5.9562-43.25643-13.7313-85.773619-23.2355-128.06037z" fill="#98583a"/><path d="m1106.3243 30.329461c-31.7118 4.121171-66.3702 6.646126-102.9278 7.20768v134.660879 166.16184 9.29033c32.011-71.91391 79.7606-207.14954 102.9278-317.320729z" fill="#a86748"/></g><path d="m2849.7768 133.53311c-1.2191.19539-2.4551.37764-3.6846.56799 2.2841 117.87049 5.3724 223.92634 8.7746 336.39106.9934 33.79594 1.9869 73.04364 2.9957 108.42858-3.9031 2.38352-5.7735 22.2543-1.4979 28.26925.6544.89228 1.4851 2.41629 2.367 3.2774 3.4041 121.83336 6.6841 256.09103 9.2739 423.10521 1.0936-8.1306 2.1864-16.2605 3.25-24.3782-2.5469-155.33557-5.6728-284.36182-8.9364-400.18291 3.6599-5.71634 2.2344-18.5785.6472-23.51636-.473-1.50374-.9452-2.72073-1.4054-3.69524-1.0431-36.41574-2.0769-76.6877-3.0974-111.40566-3.3104-112.65108-6.4016-218.75972-8.6867-336.86112zm-24.4005 3.44715c-1.2282.15491-2.457.30695-3.6939.45701-.5928 25.4836-1.192 50.87127-1.618 75.75246-6.3057 270.84649-11.5146 501.74062 9.6575 841.30737 1.2219-.1867 2.4485-.3492 3.6661-.5419-21.2269-339.26113-16.0244-570.06138-9.7223-840.66102.5145-25.03616 1.1121-50.64771 1.7106-76.31392zm-20.2398 2.2981c-1.2367.12459-2.4541.25883-3.6984.37866.1693 58.37564.034 115.02555-.3329 170.36632-17.9632 15.91415-10.011 52.70003-.4299 52.36014-.2997 36.63681-.5893 73.32188-.9108 109.9106-1.7024 170.14305-3.2282 345.45486.3144 560.92592-1.826.8998-2.6911 10.187-.712 12.9726.2581.3613.5691.9358.9062 1.3383.065 3.7523.1045 7.3173.1433 10.8573 1.2186-.1372 2.4634-.3001 3.6892-.444-4.2137-227.40126-2.509-408.91745-.7397-585.65012.3931-37.27792.6889-74.65148 1.0078-111.98672 1.5724-1.76272 3.1068-4.70821 4.4936-9.11406 2.9903-9.36942 3.6883-33.53666-4.0313-42.60627.3639-54.997.4739-111.30064.3005-169.30867zm60.8533 1.14905c-2.3597 157.01165-1.2415 294.39924 3.9759 440.9677 3.3857 94.34523 9.0515 196.92092 15.8247 306.13055.7974-7.02768 1.6101-14.05272 2.367-21.08769-6.1538-101.23706-11.3174-196.70987-14.4933-285.14732-5.0303-141.31554-6.1846-274.32263-4.1561-424.34564-1.1434-5.51068-2.316-11.01714-3.5182-16.5176zm-95.6002 1.64523c-1.2382.0761-2.4636.16356-3.7077.23504-2.7052 98.91386-8.7943 190.47499-14.9186 279.98311-13.8583 203.81589-26.8756 397.21792 3.9943 639.71431 1.2248-.064 2.4569-.1135 3.68-.1829-30.8394-242.40669-17.8259-435.66441-3.9712-639.32902 6.1293-89.5816 12.2215-181.39253 14.9232-280.42054zm-25.2188 1.25351c-1.235.0434-2.4863.0721-3.7261.11099-2.3888 71.86658-5.6601 140.85695-8.7792 209.75394-2.7603 60.7843-5.1396 121.66538-7.3045 183.33883v140.43225c1.801-112.2125 6.4662-217.68115 11.3034-323.47076 3.1212-68.94086 6.1587-138.20722 8.5064-210.16525zm143.0328 123.49028c1.025 129.93193 6.1299 252.25466 13.8784 383.09734.4844-13.24589.9004-26.49471 1.2529-39.7467-5.9911-106.30808-10.048-208.08221-11.3404-314.06944-1.204-9.77968-2.4751-19.53949-3.7909-29.2812zm-116.6397 477.30642c-4.8959-.27754-9.6846 9.37174-13.0971 14.27173-21.5 30.29997-.6017 157.09507 23.9983 79.09515 6.4999-20.29998 12.3976-78.0965-8.8024-92.59649-.6999-.4875-1.3994-.73074-2.0988-.77039zm-46.2029 114.99645v115.63626 12.01933c1.1754 25.12261 2.3973 50.34001 3.8834 76.21601 1.2411-.027 2.4705-.066 3.7077-.098-4.1006-71.79212-6.4705-139.30831-7.5911-203.7737zm63.1371 1.26004c-2.0221-.10391-4.0321 3.88554-5.4321 5.81054-8.8999 12.49999-.202 64.8022 9.898 32.70224 2.6-8.39999 5.1033-32.19941-3.5967-38.1994-.2875-.2-.5803-.29854-.8692-.31338zm21.7284 157.06736c-1.9921.1305-3.0288 10.1349-.9616 13.0443.5.7 1.2001 2.1975 1.9001 1.6975 2.6-1.9 1.9003-9.095 1.1003-11.595-.7266-2.2969-1.429-3.1867-2.0388-3.1468zm9.3108 17.745c-3.1722.207-4.8639 16.1301-1.5718 20.8004.038.052.091.1388.1295.1959 1.6315-.2222 3.255-.4783 4.8865-.7116 1.5643-4.6229.7101-12.1154-.2173-15.2837-1.1485-3.6562-2.2558-5.0644-3.2269-5.001z" fill="#764832" stroke-width="2.56771" transform="translate(-1721.9645 -106.29172)"/></g></g><path d="m617.63186 112.07916a8.4666669 2.1166667 0 0 1 8.46666 2.11666 8.4666669 2.1166667 0 0 1 -8.46666 2.11667 8.4666669 2.1166667 0 0 1 -8.46667-2.11667 8.4666669 2.1166667 0 0 1 8.46667-2.11666z" fill="#4f3421"/><g stroke-width="1.22812"><g><path d="m589.93557 132.58571s-1.2053 4.63581-1.67786 6.98244c-.68701 3.41154-1.67992 10.30403-1.67992 10.30403s3.06947.90063 4.62518 1.26881c4.79796 1.1355 9.65346 2.01839 14.50529 2.89563 1.56903.28369 3.1394.56929 4.72176.76544 8.61243 1.06759 17.26985 1.83431 25.93895 2.23494.88784.041 1.77754.0132 2.66632.0171.69872.003 1.39801.033 2.09618.005 8.91893-.3574 17.8326-1.07898 26.6872-2.20636 1.5849-.20179 3.1559-.50525 4.72335-.81465 4.50566-.88937 8.98554-1.9106 13.44877-2.99297 1.58158-.38355 4.7221-1.24029 4.7221-1.24029s-.95833-5.80274-1.4375-8.7041c-.47917-2.90137-1.4375-8.70411-1.4375-8.70411s-3.2318.87418-4.85886 1.26682c-4.2527 1.02625-8.51906 2.00402-12.81218 2.84533-1.55962.30563-3.12372.59921-4.70032.79957-8.07565 1.02627-16.20193 1.70794-24.33506 2.0566-.72674.0311-1.45482.002-2.18223.003-.86009.001-1.72086.0383-2.58027.004-7.96929-.31838-15.93233-.96699-23.84769-1.94575-1.57563-.19483-3.13937-.48103-4.69847-.78066-4.4616-.85745-8.89294-1.86962-13.31568-2.9091-1.5297-.35953-4.57156-1.15072-4.57156-1.15072z" fill="#4a4851" stroke-width="1.22812"/><path d="m593.26717 138.30375-1.45997 7.96078c34.01007 8.18515 63.4709 7.92374 93.49952.0362l-1.31763-7.98301c-29.30948 7.61947-60.33426 7.88062-90.72192-.014z" fill="url(#b)" stroke-width="11.6978"/></g><g fill="#4a4851"><path d="m588.06253 187.18696s.97843 6.0477 1.63669 9.03765c.72517 3.29387 2.54492 9.79297 2.54492 9.79297 1.54862.45307 3.10215 1.02349 4.6744 1.46385 3.88613 1.08843 7.80825 2.05409 11.75226 2.90936 1.64229.35614 3.29177.69079 4.95591.92445 7.54073 1.0588 15.13726 1.76812 22.742 2.15744 1.58556.0812 3.17621.0953 4.76276.0368 7.6575-.28253 15.31181-.89297 22.91186-1.87087 1.67109-.21502 3.32781-.53667 4.97787-.87736 4.01865-.82973 8.02417-1.74266 11.97826-2.83953 1.82665-.50672 3.39778-1.08773 5.41852-1.72636 0 0 1.67754-6.2213 2.47829-9.34187.8439-3.28879 2.45139-9.88664 2.45139-9.88664s-3.54851 1.05993-5.33359 1.55168c-4.78542 1.31828-9.56669 2.66865-14.41133 3.74915-1.62229.36182-3.25485.69081-4.90193.91413-8.47655 1.1493-17.02141 1.85764-25.56934 2.18281-1.58642.0603-3.17721.0416-4.7625-.0434-8.39557-.4502-16.7793-1.27522-25.10181-2.46856-1.63772-.23483-3.25978-.57304-4.87707-.92181-4.45761-.96129-8.89439-2.02847-13.29466-3.22513-1.69094-.45984-5.0329-1.51869-5.0329-1.51869z" fill="#4a4851" stroke-width="1.22812"/><path d="m593.99398 193.81677 2.1934 8.4402c27.55635 8.56986 59.72969 8.57991 86.27454.19394l2.18863-8.53651c-28.05218 8.29918-60.32765 8.29204-90.65683-.0979z" fill="url(#c)" stroke-width="11.6978"/></g></g></g></svg>