<svg height="500" viewBox="0 0 132.29167 132.29167" width="500" xmlns="http://www.w3.org/2000/svg" xmlns:xlink="http://www.w3.org/1999/xlink"><linearGradient id="a" gradientUnits="userSpaceOnUse" spreadMethod="reflect" x1="52.921962" x2="54.153724" y1="9.419827" y2="9.239608"><stop offset="0" stop-color="#ccc299"/><stop offset=".5" stop-color="#bfb482"/><stop offset="1" stop-color="#ccc299"/></linearGradient><path d="m58.92928 39.875158c-.174495-.000062-.348896.0027-.522776.008-2.892803.08761-6.068927.745581-8.872714 2.730689-3.560681 2.520999-6.325355 6.255045-7.851437 10.490589-1.161513 3.223703-.848919 6.278363-.615977 8.660336.198862 2.033473.525954 4.519287 1.87808 6.941274 1.434101 2.568824 3.497921 4.676474 5.947123 6.094543 2.843783 1.646531 6.321295 3.108118 10.154396 3.149443l13.428504 24.927838h.0012c3.905823 7.2474 9.778481 11.91942 16.077634 13.52884 6.226139 1.59093 12.526237.2914 17.611107-3.04958 10.24718-6.73288 15.47386-22.302955 7.96265-36.244627l-.002-.0017-3.32854-6.184754c-4.2405-8.311493-9.91814-14.220577-16.666187-17.747414l-7.209226-3.767917 2.150237 8.281444c2.455592 9.454691 3.349351 18.913101 3.096326 28.44526l-.248661 9.383707 6.34498-6.471755c1.498731-1.528829 2.566231-3.032368 3.482441-4.324711 1.43293 2.958725 1.47642 5.406965.82586 7.57066-.67568 2.247275-2.2296 4.181628-3.942944 5.358583-3.012791 1.45093-5.23068 1.791745-6.889295 1.351079-1.706063-.453272-3.369024-1.711268-5.264575-4.944447l-13.12932-24.379391c1.795869-2.893158 2.809294-6.200228 3.084186-9.494481.321105-3.84806-.571455-7.673736-2.324887-10.915211-1.786638-3.302862-4.499362-5.779431-7.447705-7.428421-2.434502-1.361599-5.111044-1.96694-7.72848-1.967876zm-.858763 14.761593c.04887-.0026.09122-.0021.125701.0025 1.559326.206942 3.386184 1.311037 4.003646 2.286765.305405.482605.536272 2.014197.276857 3.092796-.255899 1.063978-1.18755 2.404473-2.017487 2.933773-.531949.339255-1.80985.558597-2.920108.344063-.236326-.04566-.99187-.46228-1.906276-1.260867-.576601-.503571-.869884-.940354-.890874-.991072-.370592-.895439-.459743-1.891801-.377495-2.264525.282464-1.28005 1.270101-2.833105 2.337026-3.649174.374434-.286396 1.026959-.47587 1.36901-.494276z" fill="#433c3c"/><path d="m50.852119 57.890761c.511578-2.318322 1.943732-4.523742 3.753277-5.907826 1.134786-.867973 2.651096-1.365196 4.034774-1.181564 2.486257.329957 5.141395 1.732391 6.547383 3.954161 1.097176 1.733777 1.272372 4.199345.784497 6.227838-.511693 2.127523-1.904668 4.168506-3.66662 5.292208-1.564513.997783-3.615597 1.172025-5.407367.825806-1.324263-.255884-2.502719-1.156772-3.545764-2.067707-.764406-.667587-1.509472-1.455562-1.909242-2.421502-.600755-1.451568-.931932-3.176127-.590938-4.721414zm24.748345 43.053019c3.462559 6.42492 8.527078 10.35631 13.790689 11.70115 5.263006 1.34483 10.574137.24919 14.886797-2.58441 8.62531-5.66722 13.30488-18.800854 6.72262-31.016305l-3.32992-6.186029c-3.94845-7.770802-9.04705-13.028123-15.121863-16.203096 2.561933 9.864136 3.488621 19.728272 3.226771 29.592837 2.398346-2.446504 3.878072-6.076517 6.735452-7.948711l2.10541 3.901098c4.40168 8.168913.72037 15.62158-4.23548 18.877976-7.158488 3.55265-12.544402 2.58183-16.966933-4.967946l-14.391574-26.719699c2.265153-2.626822 3.525294-6.099884 3.813018-9.547901.24539-2.940699-.470416-6.077715-1.852171-8.632092-1.364786-2.523007-3.58253-4.589519-5.995221-5.93892-1.960164-1.096307-4.269068-1.589936-6.479314-1.523002-2.416952.0732-4.968866.6633-6.986169 2.091571-2.879141 2.038458-5.2301 5.20773-6.472964 8.657217-.770534 2.138569-.616973 4.584327-.39401 6.864252.180282 1.843495.497394 3.768242 1.385442 5.358953 1.080983 1.936305 2.713894 3.604634 4.56647 4.677262 3.154626 1.826505 6.810835 3.258972 10.478888 2.604814z" fill="#867a7a"/><path d="m51.644533.00067528c.128406.69941901.153911 1.27950362.19336 1.98760592.338179 3.8600409-.70162 7.5541336-3.507815 11.2988278-3.670195 4.898617-10.470057 9.629243-20.474609 12.794922-9.264486 2.931316-15.741599 8.186188-19.2363284 14.466797-3.4971402 6.285041-3.9101446 13.461128-1.5839844 19.634766 4.1383258 10.98127 16.8124568 18.913817 33.1269528 14.589843l.05859-.01563.05859-.01953c1.48191-.48589 3.2032-1.190997 4.724609-1.828125 2.781354-1.164763 5.831274-2.220893 8.748047-3.957031 1.471468-.875855 3.216187-1.884413 4.628906-3.564453.512148-.609059 1.264581-1.397057 1.916016-2.408203.651435-1.011147 1.264799-2.390951 1.007812-3.990235-.170703-1.062322-.70464-1.863653-1.363281-2.488281-.65864-.624628-1.480288-1.115615-2.55664-1.21875-1.718709-.164687-3.009963.762866-3.845704 1.492188-.83574.729321-1.473679 1.408054-1.84375 1.65625-1.460463.97949-2.659614 1.985878-3.814453 2.646484-2.274634 1.301166-4.73876 2.364034-7.27539 3.363281-1.620295.638279-2.010668 1.0246-3.91211 1.310547l-.04687.0078-.04492.0078c-11.37313 2.216422-18.955904-2.943527-21.193358-8.88083-1.376025-3.651178-1.206667-7.812361 1.011719-11.798828 2.214424-3.979344 6.563173-7.857556 14.091797-10.240235 11.293975-3.573402 19.763823-9.06621 24.943359-15.978515 4.305445-5.746001 6.168582-12.1325699 5.199219-18.869141z" fill="#96895a"/><path d="m50.023641 14.556482c-4.024547 5.371571-11.213795 10.279063-21.530427 13.543492-8.844711 2.798498-14.824794 7.726628-18.024528 13.477082-3.2002434 5.750454-3.559211 12.267142-1.4521179 17.859375 3.7633189 9.986169 15.1469539 17.387326 30.6023529 13.291047 1.361946-.446556 3.060277-1.138357 4.567421-1.769511 2.858992-1.197276 5.808307-2.231942 8.483861-3.8245 1.465099-.872064 2.979136-1.783682 4.091158-3.106126 1.12798-1.341422 2.735196-2.941859 2.452519-4.70102-.151602-.943452-1.117699-1.849427-2.03169-1.937005-1.685017-.161459-2.884593 1.845041-4.307553 2.799377-1.326463.88962-2.559744 1.936636-3.942529 2.727635-2.414514 1.381182-4.975381 2.480125-7.551781 3.495039-1.429436.563094-2.202363 1.107616-4.373041 1.434052-12.168841 2.371461-20.929418-3.177646-23.580039-10.211329-1.588443-4.214813-1.364279-9.071769 1.142399-13.576301 2.50668-4.504531 7.36264-8.715375 15.30308-11.228387 10.988108-3.476626 19.051672-8.77623 23.887578-15.229947 4.003476-5.342996 5.686611-11.4351923 4.799601-17.599455h-4.799348c.992619 5.0706074-.230257 9.8770616-3.736916 14.556482z" fill="url(#a)" stroke-width="4.23333"/></svg>