<svg height="500" viewBox="0 0 132.29167 132.29167" width="500" xmlns="http://www.w3.org/2000/svg" xmlns:xlink="http://www.w3.org/1999/xlink"><linearGradient id="a" gradientUnits="userSpaceOnUse" spreadMethod="reflect" x1="210.04442714897" x2="166.44255181853" y1="95.60745798605" y2="116.79856890528"><stop offset="0" stop-color="#e3e1db"/><stop offset=".51123601" stop-color="#c1c0be"/><stop offset="1" stop-color="#a2a19a"/></linearGradient><filter id="b" color-interpolation-filters="sRGB" height="1.07924" width="1.15805" x="-.079025" y="-.03962"><feGaussianBlur stdDeviation="1.0056922"/></filter><path d="m86.579176 15.632762c6.847071 2.07698 10.675853 9.200736 8.478853 15.779005-.358472 1.073578-.896842 2.044612-1.511602 2.956621 1.31035 1.78474 2.334102 3.786255 3.051671 5.961123 2.177592 6.601601 2.224914 15.083925 1.635985 26.700712-.474058 9.357228 1.264923 13.904017 2.756857 17.941545 1.46052 3.953246 2.7495 8.290788.68892 14.461862-.82925 2.47673-3.394736 4.3301-6.121451 5.20807-1.262569.40676-2.717462.69099-4.235425.87977-.05518.20133-.114831.40213-.181493.60184-1.949567 5.84041-8.381021 9.60868-14.570086 7.73057-4.792162-1.45419-7.649756-5.75123-7.791545-10.3281-3.668443-.79926-7.307931-1.73855-10.911088-2.71147-4.857754-1.311678-9.574718-3.115082-14.150493-5.150777-4.537523-2.018675-9.123396-4.09625-13.123551-6.973338-2.178241-1.56669-5.800673-5.514805-5.800673-5.514805-1.688643-2.215308-2.664615-5.139966-1.835847-7.622743 2.060191-6.168842 5.73711-8.998524 9.367311-11.447269 3.630198-2.448739 7.808525-5.197309 13.734334-14.046889 5.9258-8.849577 11.100434-15.744483 15.017118-18.581677 3.916682-2.837195 6.129869-3.995411 8.467328-4.721961.07162-.975721.21952-1.954176.542558-2.921912 2.197926-6.581456 9.645237-10.277142 16.492319-8.200177z" fill="#7f7e75" fill-rule="evenodd"/><g stroke-width="1.02332" transform="matrix(-.95006854 -.28830192 -.3046604 .91268565 290.22747 27.896713)"><path d="m176.77734 125.84375c-6.51433 0-11.45898 5.68875-11.45898 12.08789 0 6.39915 4.94464 12.08985 11.45898 12.08984 6.51435.00001 11.46095-5.69069 11.46094-12.08984 0-6.39914-4.9466-12.08789-11.46094-12.08789z" fill="#7f7e75" fill-rule="evenodd"/><path d="m183.47591 137.93217c0 4.04606-2.99865 7.32603-6.69768 7.32603s-6.69768-3.27997-6.69768-7.32603c0-4.04605 2.99866-7.32602 6.69768-7.32602s6.69768 3.27997 6.69768 7.32602z" fill="#a2a19a" fill-rule="evenodd"/><path d="m750.41932 186.25785c-27.23782-.003-49.65973 22.41561-49.65565 49.65821.00038 4.44591.77552 8.71102 1.89649 12.84184-6.88536 5.21583-12.99644 11.57441-18.21094 18.9336-15.82621 22.3387-26.22536 54.17959-38.10547 98.5332-9.57048 35.72612-21.33607 50.83875-31.59375 64.31836-10.04258 13.19852-19.92809 28.03804-19.92578 53.59384.008 10.25926 7.04108 20.15577 15.83203 26.56846 9.33528 6.81222 22.98069 12.45337 35.4668 15.92187 34.0619 9.462 69.95928 11.5633 105.29297 12.69141 19.12911.61074 38.34265-.78723 57.32617-3.22068 18.82482-2.41311 37.89566-4.99396 55.81445-11.24805 9.75748-3.4056 27.60365-14.11728 27.60365-14.11728 8.77103-6.4032 15.82226-16.28696 15.82226-26.5684-.004-25.54696-9.8745-40.38143-20.03505-53.73148-10.16054-13.35004-21.93769-28.45423-32.67245-68.4922-10.73475-40.03796-21.11408-71.86751-31.84108-87.00511-10.727-15.13759-17.32551-22.01877-24.89295-27.41791.91782-3.75064 1.56445-7.59897 1.56445-11.60647-.004-27.25563-22.44832-49.65017-49.68615-49.65321z" fill="#7f7e75" transform="scale(.26458334)"/><path d="m190.17289 62.418943c0 2.015331.72292 3.8735 1.92598 5.32474-2.85486 1.025525-5.03852 2.900257-7.11894 5.836338-3.45467 4.876271-6.26726 12.972839-9.36791 24.548889-2.71383 10.1309-6.44107 15.08429-9.16946 18.66966-2.72785 3.5851-4.30001 5.37753-4.29948 11.2944.00053.92604.52241 1.9355 2.23294 3.18327 1.71 1.24804 4.4657 2.48247 7.91269 3.48919 6.89372 2.01402 16.52112 3.16462 26.52448 3.16674 5.12869.001 10.15136-.30408 14.75828-.86765v.0331c3.20939-.27596 8.81927-1.03168 13.58521-2.72025 1.53326-.54372 2.9845-1.17004 4.26641-1.99316.69109-.36407 1.30889-.72662 1.81901-1.09915 1.70868-1.24725 2.23242-2.25487 2.23242-3.18275-.001-5.91688-1.57031-7.70902-4.29948-11.29544-2.72945-3.5859-6.46099-8.53773-9.17773-18.668627-3.10409-11.577374-5.91166-19.672092-9.36791-24.548892-2.1762-3.071019-4.47052-4.983626-7.5246-5.97793 1.14035-1.431396 1.82781-3.238235 1.82728-5.192448-.00053-4.597662-3.78581-8.375438-8.38347-8.375975-4.59767-.00053-8.37678 3.778575-8.37572 8.375975zm8.37572-3.431844c1.92564 0 3.43958 1.506723 3.43958 3.431831 0 1.92405-1.51394 3.431847-3.43958 3.431315-1.92564-.000529-3.4313-1.507252-3.43183-3.431831 0-1.924315 1.50646-3.431844 3.43183-3.431315z" fill="url(#a)"/><path d="m200.98787 70.422626c9.15881 2.695575 13.11275 17.114838 15.37864 26.871084 3.9661 17.0815 12.07876 21.95513 14.03085 29.4349-.0865.16748-.26511.34025-.55403.63711-.70512.72496-2.33257 1.64465-4.34076 2.35638-1.94892.69056-4.23333 1.22079-6.39974 1.62031-.45773-10.06052-8.93366-14.16844-8.79739-28.43477.15954-16.680129-4.54819-27.345218-10.45105-32.22096.38841-.06165.76359-.150813 1.13295-.264584z" fill="#e9e8e2" filter="url(#b)" stroke-width=".270753"/></g></svg>