<svg height="500" viewBox="0 0 132.29167 132.29167" width="500" xmlns="http://www.w3.org/2000/svg" xmlns:xlink="http://www.w3.org/1999/xlink"><linearGradient id="a" gradientUnits="userSpaceOnUse" x1="178.93747" x2="214.16895" y1="35.913317" y2="35.913317"><stop offset="0" stop-color="#c6c4ba"/><stop offset=".23882161" stop-color="#f4f3f0"/><stop offset=".3125" stop-color="#f5f4ef"/><stop offset=".5" stop-color="#f5f4ef"/><stop offset=".66440576" stop-color="#f4f3f0"/><stop offset=".9360348" stop-color="#c6c4ba"/><stop offset="1" stop-color="#c7c4b9"/></linearGradient><filter id="b" color-interpolation-filters="sRGB" height="1.036969" width="1.020547" x="-.010273" y="-.018485"><feGaussianBlur stdDeviation=".25314425"/></filter><filter id="c" color-interpolation-filters="sRGB" height="1.028848" width="1.025663" x="-.012832" y="-.014424"><feGaussianBlur stdDeviation=".25314425"/></filter><g><path d="m67.542263 84.266849c.590131.170789 1.194324.315185 1.770392.512357 2.20852.755921 4.126734 1.593914 6.218311 2.550285 3.539497 1.61843 6.906306 3.409768 10.267363 5.23512 5.230002 2.757428 10.106004 5.878793 15.033121 8.940929 3.37705 2.11041 6.63609 4.32455 9.80476 6.61665 1.34451.83566 2.31946 2.02421 3.77581 2.761.38098.19275.78712.35427 1.18069.53141 0 0 11.08725-5.45502 11.08725-5.45502-1.68108-1.01546-3.42732-1.96406-4.98197-3.10157-3.3007-2.28822-6.83053-4.362072-10.37236-6.421291-4.99241-3.073855-9.77988-6.383321-15.304057-8.900194-5.840444-2.921712-11.641838-5.887032-17.323506-8.989625 0 0-11.155804 5.719949-11.155804 5.719949z" fill="#f4f3f0" fill-rule="evenodd" filter="url(#b)" opacity=".9"/><path d="m79.287074 114.0109c.300316-.42654.568562-.8674.90093-1.27962 1.274239-1.58038 2.614602-2.92829 4.131011-4.39222 2.566159-2.47734 5.33143-4.7995 8.139712-7.11264 4.263075-3.610693 8.946533-6.901971 13.560683-10.240278 3.17751-2.286493 6.47251-4.46891 9.85557-6.571819 1.25918-.910947 2.9224-1.492132 4.06953-2.501799.30009-.264122.56341-.55169.8451-.827535 0 0-5.51333-9.194091-5.51333-9.194091-1.53655 1.142987-2.99591 2.34475-4.67241 3.374743-3.39603 2.204079-6.54729 4.612006-9.68133 7.031073-4.638144 3.386484-9.551737 6.58465-13.545151 10.452336-4.557781 4.053592-9.166392 8.07148-13.935445 11.9794 0 0 5.84513 9.28245 5.84513 9.28245z" fill="#f4f3f0" fill-rule="evenodd" filter="url(#c)" opacity=".9"/><g transform="matrix(.90474562 -.4259523 .4259523 .90474562 -170.02357 69.119613)"><path d="m196.91992 31.787109c-3.22029-.01784-6.39122.866639-9.5293 1.589844-1.76185.406038-3.88166.302992-5.20117 1.539063-2.20404 2.064668-3.13201 3.641866-3.13201 8.501558l-.11994 14.215238-.35981 64.156648s1.43728 3.12438 2.6645 4.26718c1.41627 1.31885 3.33671 1.9914 5.13086 2.7168 3.27469 1.32399 6.64746 2.94327 10.17968 2.94336 3.53285.00009 6.90633-1.61921 10.18164-2.94336 1.79417-.72535 3.77305-1.33784 5.13086-2.7168 1.30913-1.32953 2.54262-4.98681 2.54262-4.98681l-.23988-36.790533v-17.050781-25.610012c.18381-2.7497-.65831-5.847197-3.19922-6.68491-1.63854-.53689-3.26757-1.11748-4.94336-1.523438-2.99633-.725857-6.02252-1.605964-9.10547-1.623047z" fill="#c2c0b9"/><path d="m184.18032 56.312539-.47975 65.664281s8.25863 4.97701 12.85293 4.97701 12.85294-4.97701 12.85294-4.97701l-.59969-37.09788.59942-17.649438v-27.79648s-8.2333-2.859405-12.51382-2.883572c-4.50117-.02541-13.19229 2.88344-13.19229 2.88344z" fill="url(#a)" stroke-width="9.525"/><path d="m186.39536 123.46835c-.30398-.15919 2.74695-40.831033 2.74695-40.831033l2.12847 43.061433s.36178 2.20522-.41433 2.64723c-1.39845.79644-3.58572-.45566-4.4834-1.79139-.57384-.85387.0223-3.08624.0223-3.08624z" fill="#c2c0b9"/></g></g></svg>