<svg height="500" viewBox="0 0 132.29167 132.29167" width="500" xmlns="http://www.w3.org/2000/svg" xmlns:xlink="http://www.w3.org/1999/xlink"><radialGradient id="a" cx="1021.4557" cy="-746.63519" gradientTransform="matrix(-.00000003 .92064234 -1.6724478 -.00007139 -1007.3215 -904.45235)" gradientUnits="userSpaceOnUse" r="35.075211" spreadMethod="reflect"><stop offset="0" stop-color="#cab488"/><stop offset="1" stop-color="#9a865f"/></radialGradient><radialGradient id="b" cx="1024.5385" cy="510.37863" gradientTransform="matrix(-.01930204 .01852386 -.04163052 -.04158798 88.786048 13.722199)" gradientUnits="userSpaceOnUse" r="203.0674" spreadMethod="reflect"><stop offset="0" stop-color="#9f8a60"/><stop offset="1" stop-color="#97845e"/></radialGradient><path d="m6.6145855 68.953541c1.355296 1.330652 2.858434 2.321282 4.4355105 3.824419v7.49608h-4.4355105zm11.1129705 10.365623c1.355295 1.330652 2.858432 2.855201 4.435508 4.358338v7.49608h-4.435508zm13.180627 12.627832c1.567522 1.488683 3.000054 2.728173 4.435509 4.070713v8.380641h-4.435509zm16.509947 14.624724c1.546072 1.25902 3.059485 2.5308 4.435513 3.58433v6.63713h-4.435513zm78.25895-37.619996c-1.35529 1.330653-2.85843 2.321282-4.43551 3.824419v7.49608h4.43551zm-11.11296 10.365624c-1.3553 1.330653-2.85843 2.855201-4.43551 4.358339v7.496079h4.43551zm-13.18064 12.627831c-1.567515 1.48868-3.000045 2.72818-4.435505 4.07071v8.380651h4.435505zm-16.509939 14.624721c-1.546074 1.25903-3.059481 2.53081-4.435509 3.58433v6.63713h4.435509zm-20.945456 11.56662v6.90979h4.435509v-6.90979c-.517481.22178-1.034954.53-1.527792.70249l-.689964.29329-.689977-.29329c-.480536-.20425-1.010306-.48071-1.527776-.70249z" fill="#887553" stroke-linecap="square" stroke-width="1.00013"/><path d="m50.005608 9.2058878c-2.670534.09136-10.426393 2.8942802-17.035958 7.5783452-4.300884 2.681628-8.585199 7.042117-10.273449 11.465789-2.158 4.111476-5.328497 11.417573-6.853064 15.208966-3.828164 9.109786-6.1586575 16.105765-9.2285515 25.494553 8.4293865 8.475673 16.8629355 16.61557 25.3002285 24.454088 5.429743 4.93552 10.81344 9.888501 16.671134 14.661881 5.363345 4.24581 10.504196 8.66882 17.535241 11.58638 6.030908-2.31184 11.811086-6.91825 17.584522-11.58638 5.68994-4.82782 11.378714-9.656181 16.668269-14.661881 9.36801-8.589747 17.06544-16.396169 25.3031-24.455905-2.81729-8.511213-5.75658-17.019186-9.14302-25.33343-2.07587-5.096603-4.31977-10.120402-6.80659-15.027533-2.12509-5.06705-6.46704-9.048661-10.265215-11.806528-3.4976-2.667322-12.944265-7.3717002-17.258022-7.5601382 0 0-3.536801 2.6607942-5.182019 3.8562812-3.571054 2.778645-7.883019 5.42652-10.901025 5.47536-3.597804.06557-9.127258-3.931067-10.897126-5.47536-3.180034-2.253844-5.027831-3.8742552-5.218455-3.8744882z" fill="#887553"/><path d="m93.843075 17.659013c-3.497691-1.577883-6.786101-3.898335-10.620538-4.578432-3.720901 2.789439-6.677907 4.99734-9.24064 6.534983-2.735234 1.648529-5.224047 2.636662-7.836065 2.636662-2.636663 0-5.10084-.988133-7.86071-2.636662-2.562741-1.535175-5.544391-3.743076-9.265281-6.530056-3.64458.89305-7.362782 2.714599-10.694508 4.723815-4.977633 2.981648-9.881327 7.109135-11.505222 10.443167-2.750015 5.497563-5.02691 10.49983-7.000719 15.206396l-6.276247 16.5346c-.926526 2.685939-1.813627 5.322611-2.695802 7.959273 4.551321 4.534073 15.021599 14.957524 26.319831 25.25776 5.914012 5.39653 11.951231 10.645221 17.224554 14.785031 4.879061 3.81946 9.166718 6.57934 11.754104 7.66358 2.587375-1.08424 6.875034-3.84412 11.754094-7.66358 5.273334-4.13981 11.310553-9.388501 17.224569-14.785031 11.285885-10.300236 21.758625-20.723687 26.317345-25.25776-.8871-2.636662-1.77421-5.297968-2.71059-7.959273l-6.259-16.5346c-1.99597-4.706566-4.23838-9.708833-7.01057-15.208864-1.78656-3.580446-6.665615-7.663572-11.618605-10.591009z" fill="url(#a)"/><path d="m10.356439 57.770937 55.789395 46.700923 55.698346-46.780848-2.99134-8.178387-3.40406-8.276088-49.302946 36.917985-49.512884-36.917985-3.232072 8.256604z" fill="#4e6480"/><path d="m21.57143 50.309286 4.871665 12.148368 15.159587 2.858443zm89.12662 0-20.009069 14.982168 15.154649-2.8338zm-56.749872 24.222806 4.681932 12.862977 4.829773-5.716875zm24.346022.04927-9.487063 7.096814 4.829773 5.716885z" fill="#62a0ea" stroke-width=".215826"/><path d="m16.93138 50.678917c-.625898 1.626353-1.229621 3.252707-1.801305 4.829773l5.670056 4.805131zm98.42396 0-3.86876 9.634904 5.6676-4.805131c-.56677-1.577066-1.18281-3.20342-1.79884-4.829773zm-86.048876 16.805648 25.035987 21.191879-6.406849-17.668115zm73.678726 0-18.678415 3.523764-6.456126 17.742036zm-36.839358 17.914511-6.5547 7.712863 6.5547 5.54438 6.505413-5.51974z" fill="#99c1f1"/><g stroke-linejoin="round"><path d="m101.14792 48.070087c1.94921.837204 4.21707.100964 5.30284-1.721525 1.6256-2.728627 2.18937-4.837531 2.55997-5.465615.37061-.628084.13029-.726263 2.58676-1.268844 2.26768-.502196 3.70614-2.739045 3.22227-5.010705l-.57756-2.711624c.33523-.114173.26386-.0828.65561-.218535 3.91337-1.355725 3.74805-6.94588-.2386-8.067973-1.68977-.475227-3.62572-1.660768-5.83356-3.231202.13142-1.018091-.11189-2.049232-.6846-2.901169.72989-2.095336-.28347-4.398513-2.32138-5.27607-1.33959-.560216-1.10815-.30287-1.28891-.323343-.18076-.02047-.32331-.03213-.47944-.04237-.31227-.02048-.66198-.03494-1.07261-.04683-.82124-.02379-1.86134-.03413-2.96806-.01561-1.106725.01851-2.271025.06423-3.369455.165017-.39174.03594-.84059.206971-1.20864.249754-3.100743-1.600026-6.368539-3.1717152-10.277857-4.5401842v.000003c-1.308412-.45772-2.758067-.245271-3.880118.568637-1.004285.728619-1.223101.842009-1.679155 1.226475-.811252-.439414-1.743933-.601518-2.655875-.461601-1.510814-.612122-3.238931-.301547-4.442067.798324-1.621972 1.7920862-2.412189 2.8237842-3.969317 3.8578192-2.916958.358745-5.924563.176884-9.225318-.9009-.556732-.05646-1.119135-.0019-1.654625.160556-.335321-.533449-.785589-.985242-1.317903-1.322362-1.461272-.664436-5.839678-3.3726782-6.301848-3.6660442-1.265095-.803142-2.860714-.876943-4.194543-.194006-2.980028 1.526415-5.580489 3.0836262-8.052363 4.6449942l-6.721079.996789c-2.206339.809192-3.329992 3.2618-2.502008 5.461156-.129554.09909-.275047.200093-.403621.298813-3.459415.79793-6.250155 2.208133-8.382396 3.492107-1.516208 1.014552-2.211052 2.886944-1.723754 4.644994-1.418086 1.50309-2.61443 3.127023-3.757471 4.914817-1.850968 2.895449.340769 6.672701 3.773081 6.502545l2.497548-.124877c-.01988.182791-.06913.435041-.08474.595397-.289307 2.965479 2.496411 5.292509 5.363039 4.479977l.46606-.131567c.427157 1.025337.900275 2.340737 1.585496 4.127643.906106 2.362594 3.67008 3.406253 5.911606 2.232184l5.325298-2.73158 25.340061-8.876917 23.821372 1.47048z" fill="#7e6d4c"/><path d="m47.763036 11.474987c-3.172848 1.625181-5.980992 3.277736-8.575031 4.947571l-7.507742 1.112572c1.46212.376499 3.048249.695797 3.648539 1.506253-1.800822 1.276311-3.506981 2.569494-5.162052 3.845806-3.408668.531789-5.84617 1.914303-8.212964 3.339519l3.275448.574302c-3.556609 2.21653-5.239541 4.301473-7.374803 7.641165l5.996536-.297736c.885406.531799 1.835185 1.063388 1.691532 1.744081-.658138 1.425233-.735583 2.425109-.855658 3.658875l3.449791-.978793c2.167412 1.91447 2.70088 4.913929 3.704197 7.53036 2.437525-1.276306 4.924607-2.531428 6.425285-4.23318l-2.165387 4.062914c3.097595-1.488524 4.928565-2.936599 6.852667-4.630912.09756 1.077076.20527 1.853232.323392 4.02643 6.154888 1.357515 7.634578-7.264646 13.900357-7.087581 3.243792 1.06242 5.931999 4.484942 7.623226 6.196622l-.331683-6.196622c4.463661-.67875 8.123082 1.12168 12.531298 2.538197l3.900611-3.076014 4.522591 1.22518c.139532.08598.294119.172131.476586.258998l-.336725 6.497512 2.083495-5.58448c.185975-.163588.337802-.306534.484403-.433319l2.787346.7779 5.938564 5.169183-.85752-3.722388c2.52975.489245 4.437615 1.276163 6.817245 2.297213 2.57261-4.31819 1.60799-7.317438 7.86795-8.700134l-1.32904-6.232659c1.13622-.808337 2.80809-1.106298 4.15872-1.574267-3.49446-.982777-6.62445-3.194797-10.86922-6.61958l2.18699-1.210765c-1.75794-.474359-4.09505.12373-5.638605-.867537l4.995485-2.880526c-.30012-.125509-7.546435-.291096-9.325795.442776-3.280065-1.759187-6.881855-3.429086-11.105194-4.90748-1.99375 1.446483-2.465155 2.235693-4.544664 3.235469l-1.200695-2.257125c-.664593 1.865542-1.90778 3.471662-3.579976 4.041745.343013-1.348634 1.200226-4.041745 1.200226-4.041745-1.586411 1.752795-2.765252 3.550332-5.616544 5.160622-3.816029.619007-7.825199.350901-12.027108-1.021133-.364447 1.510294.08578 2.854912.45037 4.220568-2.7441-1.29758-2.958815-3.552476-3.859226-5.552052-2.208112-1.004021-6.424744-3.696679-6.817218-3.945805z" fill="url(#b)" stroke-width="7.40833"/><path d="m95.464785 39.483885-3.132827-3.098535 3.132827 6.253376-4.907175-2.569275-1.153305-1.00537c-.887174.147562-1.137548.4864-1.757763 1.031945l-2.083495 5.58448.336725-6.497512c-1.645955-.783519-1.28881-1.505744-3.548694-2.628282l-5.351094 4.220118c-4.408216-1.416517-8.067637-3.216947-12.531298-2.538197l.331683 6.196622c-1.691227-1.71168-4.379434-5.134202-7.623226-6.196622-6.265779-.177065-7.745469 8.445096-13.900357 7.087581-.194083-3.570861-.360513-3.361319-.499126-6.93218-2.827929.590223-2.828022 1.71165-4.241975 2.567473 1.275339-2.685515 2.991437-9.722625 2.991437-9.722625s-3.807596 2.096952-5.102107 3.748517c-.943467 1.2037-1.257603 3.221793-1.733412 4.223723l-.951215 8.399311 5.303138-2.076569v.01215l.1702 3.139074 3.131441.691418c2.51285.554233 5.108515.0054 6.916614-1.002666 1.808076-1.008336 2.988988-2.259824 3.983425-3.275558 1.60071-1.63502 2.363637-2.259077 3.190773-2.484144 1.387738.786397 3.459568 2.82798 5.316612 4.707488l7.87485 7.969079-.678087-12.664405c1.871035.435114 3.954877 1.202674 6.728914 2.094067l2.188822.703129 3.611277-2.848548s-.219828 1.931795-.149566 2.895863c.205412 2.818102 1.660488 8.318411 1.660488 8.318411s4.885673-4.061548 6.554834-6.682004c.4588-.72029.891999-2.392256.891999-2.392256l14.627678 7.659183-6.893615-13.757161 1.18367-.784655-5.6043-7.420893z" fill="#7e6d4c" stroke-width="7.40833"/></g></svg>