<svg height="500" viewBox="0 0 132.29167 132.29167" width="500" xmlns="http://www.w3.org/2000/svg" xmlns:xlink="http://www.w3.org/1999/xlink"><linearGradient id="a" gradientTransform="matrix(.73952079 .27277079 .27277079 -.73952079 -157.05622 150.98817)" gradientUnits="userSpaceOnUse" x1="256.66367" x2="256.66367" xlink:href="#b" y1="160.81853" y2="193.34697"/><linearGradient id="b"><stop offset="0" stop-color="#928c87"/><stop offset="1" stop-color="#78706d"/></linearGradient><linearGradient id="c" gradientTransform="matrix(.78123928 -.10469044 -.10469044 -.78123928 -75.224641 238.74303)" gradientUnits="userSpaceOnUse" x1="256.53638" x2="264.65991" xlink:href="#b" y1="193.31882" y2="218.50359"/><g stroke-width="1.17295"><g transform="matrix(.84993481 .0667122 -.0667122 .84993481 10.320055 -4.578628)"><path d="m51.535151 39.363281c7.307347-.248391 14.614596-.499629 21.921875-.75l.554688-3.173828s.732069-4.080368.761719-8.384765c.01482-2.152199-.08161-4.363182-.814454-6.572266-.366421-1.104542-.904818-2.269516-1.974609-3.316406-1.069791-1.046891-2.815792-1.795771-3.632503-1.780698l-13.926086.270932z" fill="#665100"/><path d="m56.448626 35.224924s3.247645-15.63691-1.994863-15.600872l13.156909-.255473c5.195554-.096 2.491444 15.388948 2.491444 15.388948z" fill="#806600"/><path d="m76.85292 28.95045c9.120974.83306 18.492801 1.77365 26.97443 5.230254 4.78927 1.95182 10.67361 4.827116 12.95691 8.534571 1.2763 1.721627 2.2537 3.505814 2.99965 5.299367 0 0 1.26536 2.893164 1.57634 4.429073.39292 1.94069.3643 5.063254.34202 5.930349l.47069 18.858638-2.60479 9.244495-4.72776-8.021477-5.32569-16.879384-3.84671 10.063112-4.10875-9.136767-5.905448-15.780647-3.99213 22.062408-10.027064-24.223765c-.341408-.02996-.690206-.05628-1.036596-.08383l-5.544502 16.267676-6.283189-11.419923-6.873847 16.056753-7.53146-21.131332-7.477686 15.546073-5.555229-15.53504c-.373348.01068-.746561.02107-1.1143.03487l-10.429445 25.295442-3.767971-23.829291-6.727441 15.482425-5.252654 8.890444c-1.356598-5.361478-1.984414-10.742987-2.342196-16.232131l-6.3623765 22.349445-4.75902194 8.231979-2.58101156-9.690719 1.60551846-21.544689.002498-.01862.002728-.01809c.5863571-4.199347 2.15693884-8.478442 4.88079934-12.054326 2.8396786-3.72794 8.8038122-6.587594 13.9279562-8.312239 10.397947-3.499664 21.75863-2.993154 32.709779-3.654394 8.560767-.51691 17.187141-1.02078 25.727949-.24071z" fill="#6b6161"/><path d="m69.302548 32.660608c11.218341.761867 22.826669 1.115723 33.347152 5.084484 4.08098 1.539515 9.48081 4.479308 11.01524 7.062947 2.67924 3.550474 3.88495 7.337966 4.20357 10.880737l.0116-.01269.005.197536c.0701.858788.0884 1.7022.063 2.523901l.47239 18.92874-5.21687-16.534535-1.32388-11.614021c-1.50645-.972667-3.20869-1.887947-5.11063-2.734387l-1.69064 14.752331-6.547196-17.626514c-1.857794-.501174-3.836468-.952908-5.937049-1.350211l-2.371392 13.274276-5.997014-14.48805c-1.994929-.210306-4.071458-.381073-6.238214-.504389l-3.414131 10.016662-4.458507-9.922226-3.063208.645634-5.05754 11.813086-4.720764-11.526025-5.996073.47969-3.880211 8.067027-3.451153-9.650872c-2.17649.01655-4.265229.08502-6.273797.197741l-6.219298 15.083585-2.193848-14.282993c-2.124307.294536-4.128678.649541-6.013664 1.060578l-7.403584 17.283729-.965769-14.81741-5.238984 2.482184-7.9122331 27.79289c.8069586-6.993219.7279058-14.769107 1.5991588-21.492915.5046772-3.614356 1.8944112-7.338733 4.149048-10.298628 2.2546343-2.959889 7.5670413-5.521985 11.9432863-6.96906 10.096329-3.338512 21.09459-2.847166 31.707414-3.517601 6.048286-.382083 12.132375-.695859 18.17879-.285231z" fill="url(#c)"/><path d="m46.257892 81.309479-6.637367 13.325955-4.645819-17.436784c-.292086-.0075-.579974-.01769-.868493-.02772l-10.014941 22.714488-3.567076-24.342163c-.394111-.08673-.809738-.161704-1.192524-.254476l-4.640322 10.803238-5.4368403 9.388034-1.7586215-10.630211-.9634768-15.080013c-2.4466312-1.940164-5.4817573-3.541965-7.736863-5.707828.33751835-4.543192.55472258-7.428331.81094614-10.849862.21990763-2.879856 1.05443445-5.048564 1.98835656-7.102138.5777222.457488 3.0173789 4.360879 4.810049 6.302798 1.6630369 1.801492 3.4106733 3.587677 5.4722779 4.914653 2.42948 1.563762 4.706817 2.506452 7.942266 3.471308 6.030694 1.798211 16.03206 1.969283 24.091846 2.34706 4.215506.197588 8.44027-.0182 12.660328-.04355 10.874283-.06532 21.755435.128842 32.622237-.279699 3.959848-.148871 8.421008.05407 11.861595-.790933 4.05155-.99449 7.19772-2.39327 9.46089-3.963554l9.26765-10.053445c1.69987 3.786354 2.52134 8.187238 1.99752 13.529284-.66795 1.059757-2.41783 5.683607-3.58454 6.826078-1.38136 1.187598-2.74201 2.434646-4.31714 3.327887l-1.69476 14.960251-2.73801 10.577181-4.50954-9.688984-4.10404-11.013805c-.34528.06661-.71987.115419-1.074002.176802l-3.848581 24.897139-9.816558-23.913336c-.277541-.0041-.551071-.0053-.831739-.01183l-4.441461 16.182311-9.048971-17.430874-4.988965 22.804081-7.833984-19.150391-5.160157 15.701172" fill="#6b6161"/><path d="m3.2223411 54.556266c.3407786.269854 2.2234987 2.317517 3.4235286 3.381978 1.0214547.906061 2.9439766 2.382027 3.2058035 2.549827 2.4145798 1.547461 5.3906338 2.862809 8.8949808 3.907853 6.554913 1.954526 16.863957 2.072254 25.341267 2.500037 10.959328.553031 21.94982.354633 32.919714.08237 8.323015-.20657 18.405715.303849 24.942805-1.30145 4.66508-1.144873 8.44263-2.80164 11.25316-4.885151l4.47935-6.591342.35207 7.681606s-1.77872 3.215159-3.0731 4.482664c-1.3088 1.28162-4.40032 2.901044-4.59677 3.011532l-1.9102 16.858852-5.24837-14.084539c-2.01769.532137-4.264819.966242-6.738283 1.276874l-2.206815 14.276312-5.646407-13.75439c-1.962048.02725-4.026601-.01486-6.185733-.128468l-2.688423 9.795265-4.964484-9.467587c-2.416307-.05152-3.68388.278886-5.623663.528712l-3.184877 12.084571-4.695946-12.786884c-2.498126.04948-2.751225-.05547-4.826264-.293857l-3.19256 11.023529-5.029329-11.443639-2.653867.881765-4.890594 9.886076-2.809879-10.545768c-2.153852.0058-4.208235-.05622-6.16009-.180436l-5.793814 13.140599-2.058297-14.04605c-2.461819-.427238-4.691914-.966831-6.683561-1.596085l-5.931458 13.809696-1.081692-16.931765c-1.7886866-1.171671-3.5691216-2.369787-5.2571173-3.620156-.7769614-.573007-2.1576827-1.821179-2.2822082-1.944923" fill="url(#a)"/><path d="m67.537104 15.400394c-.01298.00024-.02413.0075-.03711.0078l.000006-.0078s-7.914994.220394-13.074219.255859c-2.905659.01997-5.659608 1.305642-7.488281 3.236328s-2.885827 4.313359-3.601562 6.857422c-1.431472 5.088126-1.536853 11.087558-1.216797 17.027344.640112 11.879571 3.242187 21.090785 3.242187 21.090785l.69336 3.119141 20.740234.202875-1.017578-5.052481s-2.369976-8.806309-2.853516-19.829067c-.24177-5.51138.05296-10.972241 1.085938-14.519532.516488-1.773645 1.206973-3.007339 1.796875-3.628906.588858-.620468.927318-.806115 1.873047-.824218 1.056104.05854 2.101478.310245 3.078637 1.789809 3.996337-4.931811-.372769-7.075141-3.221221-9.725356z" fill="#665100"/><path d="m61.896484 63.087273s-9.738585-43.433162 5.714187-43.718694c0 0-7.9144.219435-13.156908.255473-15.365332.105624-5.217605 43.596607-5.217605 43.596607z" fill="#a80"/></g><g transform="matrix(.84836863 -.08432301 .08432301 .84836863 20.772405 35.445628)"><path d="m51.535151 39.363281c7.307347-.248391 14.614596-.499629 21.921875-.75l.554688-3.173828s.732069-4.080368.761719-8.384765c.01482-2.152199-.08161-4.363182-.814454-6.572266-.366421-1.104542-.904818-2.269516-1.974609-3.316406-1.069791-1.046891-2.815792-1.795771-3.632503-1.780698l-13.926086.270932z" fill="#665100"/><path d="m56.448626 35.224924s3.247645-15.63691-1.994863-15.600872l13.156909-.255473c5.195554-.096 2.491444 15.388948 2.491444 15.388948z" fill="#806600"/><path d="m76.85292 28.95045c9.120974.83306 18.492801 1.77365 26.97443 5.230254 4.78927 1.95182 10.67361 4.827116 12.95691 8.534571 1.2763 1.721627 2.2537 3.505814 2.99965 5.299367 0 0 1.26536 2.893164 1.57634 4.429073.39292 1.94069.3643 5.063254.34202 5.930349l.47069 18.858638-2.60479 9.244495-4.72776-8.021477-5.32569-16.879384-3.84671 10.063112-4.10875-9.136767-5.905448-15.780647-3.99213 22.062408-10.027064-24.223765c-.341408-.02996-.690206-.05628-1.036596-.08383l-5.544502 16.267676-6.283189-11.419923-6.873847 16.056753-7.53146-21.131332-7.477686 15.546073-5.555229-15.53504c-.373348.01068-.746561.02107-1.1143.03487l-10.429445 25.295442-3.767971-23.829291-6.727441 15.482425-5.252654 8.890444c-1.356598-5.361478-1.984414-10.742987-2.342196-16.232131l-6.3623765 22.349445-4.75902194 8.231979-2.58101156-9.690719 1.60551846-21.544689.002498-.01862.002728-.01809c.5863571-4.199347 2.15693884-8.478442 4.88079934-12.054326 2.8396786-3.72794 8.8038122-6.587594 13.9279562-8.312239 10.397947-3.499664 21.75863-2.993154 32.709779-3.654394 8.560767-.51691 17.187141-1.02078 25.727949-.24071z" fill="#6b6161"/><path d="m69.302548 32.660608c11.218341.761867 22.826669 1.115723 33.347152 5.084484 4.08098 1.539515 9.48081 4.479308 11.01524 7.062947 2.67924 3.550474 3.88495 7.337966 4.20357 10.880737l.0116-.01269.005.197536c.0701.858788.0884 1.7022.063 2.523901l.47239 18.92874-5.21687-16.534535-1.32388-11.614021c-1.50645-.972667-3.20869-1.887947-5.11063-2.734387l-1.69064 14.752331-6.547196-17.626514c-1.857794-.501174-3.836468-.952908-5.937049-1.350211l-2.371392 13.274276-5.997014-14.48805c-1.994929-.210306-4.071458-.381073-6.238214-.504389l-3.414131 10.016662-4.458507-9.922226-3.063208.645634-5.05754 11.813086-4.720764-11.526025-5.996073.47969-3.880211 8.067027-3.451153-9.650872c-2.17649.01655-4.265229.08502-6.273797.197741l-6.219298 15.083585-2.193848-14.282993c-2.124307.294536-4.128678.649541-6.013664 1.060578l-7.403584 17.283729-.965769-14.81741-5.238984 2.482184-7.9122331 27.79289c.8069586-6.993219.7279058-14.769107 1.5991588-21.492915.5046772-3.614356 1.8944112-7.338733 4.149048-10.298628 2.2546343-2.959889 7.5670413-5.521985 11.9432863-6.96906 10.096329-3.338512 21.09459-2.847166 31.707414-3.517601 6.048286-.382083 12.132375-.695859 18.17879-.285231z" fill="url(#c)"/><path d="m46.257892 81.309479-6.637367 13.325955-4.645819-17.436784c-.292086-.0075-.579974-.01769-.868493-.02772l-10.014941 22.714488-3.567076-24.342163c-.394111-.08673-.809738-.161704-1.192524-.254476l-4.640322 10.803238-5.4368403 9.388034-1.7586215-10.630211-.9634768-15.080013c-2.4466312-1.940164-5.4817573-3.541965-7.736863-5.707828.33751835-4.543192.55472258-7.428331.81094614-10.849862.21990763-2.879856 1.05443445-5.048564 1.98835656-7.102138.5777222.457488 3.0173789 4.360879 4.810049 6.302798 1.6630369 1.801492 3.4106733 3.587677 5.4722779 4.914653 2.42948 1.563762 4.706817 2.506452 7.942266 3.471308 6.030694 1.798211 16.03206 1.969283 24.091846 2.34706 4.215506.197588 8.44027-.0182 12.660328-.04355 10.874283-.06532 21.755435.128842 32.622237-.279699 3.959848-.148871 8.421008.05407 11.861595-.790933 4.05155-.99449 7.19772-2.39327 9.46089-3.963554l9.26765-10.053445c1.69987 3.786354 2.52134 8.187238 1.99752 13.529284-.66795 1.059757-2.41783 5.683607-3.58454 6.826078-1.38136 1.187598-2.74201 2.434646-4.31714 3.327887l-1.69476 14.960251-2.73801 10.577181-4.50954-9.688984-4.10404-11.013805c-.34528.06661-.71987.115419-1.074002.176802l-3.848581 24.897139-9.816558-23.913336c-.277541-.0041-.551071-.0053-.831739-.01183l-4.441461 16.182311-9.048971-17.430874-4.988965 22.804081-7.833984-19.150391-5.160157 15.701172" fill="#6b6161"/><path d="m3.2223411 54.556266c.3407786.269854 2.2234987 2.317517 3.4235286 3.381978 1.0214547.906061 2.9439766 2.382027 3.2058035 2.549827 2.4145798 1.547461 5.3906338 2.862809 8.8949808 3.907853 6.554913 1.954526 16.863957 2.072254 25.341267 2.500037 10.959328.553031 21.94982.354633 32.919714.08237 8.323015-.20657 18.405715.303849 24.942805-1.30145 4.66508-1.144873 8.44263-2.80164 11.25316-4.885151l4.47935-6.591342.35207 7.681606s-1.77872 3.215159-3.0731 4.482664c-1.3088 1.28162-4.40032 2.901044-4.59677 3.011532l-1.9102 16.858852-5.24837-14.084539c-2.01769.532137-4.264819.966242-6.738283 1.276874l-2.206815 14.276312-5.646407-13.75439c-1.962048.02725-4.026601-.01486-6.185733-.128468l-2.688423 9.795265-4.964484-9.467587c-2.416307-.05152-3.68388.278886-5.623663.528712l-3.184877 12.084571-4.695946-12.786884c-2.498126.04948-2.751225-.05547-4.826264-.293857l-3.19256 11.023529-5.029329-11.443639-2.653867.881765-4.890594 9.886076-2.809879-10.545768c-2.153852.0058-4.208235-.05622-6.16009-.180436l-5.793814 13.140599-2.058297-14.04605c-2.461819-.427238-4.691914-.966831-6.683561-1.596085l-5.931458 13.809696-1.081692-16.931765c-1.7886866-1.171671-3.5691216-2.369787-5.2571173-3.620156-.7769614-.573007-2.1576827-1.821179-2.2822082-1.944923" fill="url(#a)"/><path d="m67.537104 15.400394c-.01298.00024-.02413.0075-.03711.0078l.000006-.0078s-7.914994.220394-13.074219.255859c-2.905659.01997-5.659608 1.305642-7.488281 3.236328s-2.885827 4.313359-3.601562 6.857422c-1.431472 5.088126-1.536853 11.087558-1.216797 17.027344.640112 11.879571 3.242187 21.090785 3.242187 21.090785l.69336 3.119141 20.740234.202875-1.017578-5.052481s-2.369976-8.806309-2.853516-19.829067c-.24177-5.51138.05296-10.972241 1.085938-14.519532.516488-1.773645 1.206973-3.007339 1.796875-3.628906.588858-.620468.927318-.806115 1.873047-.824218 1.056104.05854 2.101478.310245 3.078637 1.789809 3.996337-4.931811-.372769-7.075141-3.221221-9.725356z" fill="#665100"/><path d="m61.896484 63.087273s-9.738585-43.433162 5.714187-43.718694c0 0-7.9144.219435-13.156908.255473-15.365332.105624-5.217605 43.596607-5.217605 43.596607z" fill="#a80"/></g></g></svg>