<svg height="500" viewBox="0 0 132.29167 132.29167" width="500" xmlns="http://www.w3.org/2000/svg" xmlns:xlink="http://www.w3.org/1999/xlink"><linearGradient id="a"><stop offset="0" stop-color="#93a0aa"/><stop offset=".25" stop-color="#9da9b2"/><stop offset=".375" stop-color="#7f8f9a"/><stop offset=".5" stop-color="#93a0aa"/><stop offset=".75" stop-color="#7c8c98"/><stop offset="1" stop-color="#93a0aa"/></linearGradient><radialGradient id="b" cx="193.57275" cy="-356.13779" gradientTransform="matrix(-.04614943 -.09785064 .07542973 -.03557503 -577.34856 -231.19884)" gradientUnits="userSpaceOnUse" r="26.209" spreadMethod="reflect"><stop offset="0" stop-color="#a99a50"/><stop offset="1" stop-color="#b4a564"/></radialGradient><linearGradient id="c" gradientUnits="userSpaceOnUse" x1="499.3486" x2="451.7363" xlink:href="#a" y1="123.68678" y2="176.26947"/><linearGradient id="d" gradientUnits="userSpaceOnUse" x1="442.0437" x2="420.14142" xlink:href="#a" y1="127.50605" y2="166.39258"/><linearGradient id="e" gradientUnits="userSpaceOnUse" x1="499.3486" x2="437.10385" xlink:href="#a" y1="123.68678" y2="148.68372"/><g stroke-width="1.03429" transform="matrix(.44366181 -.85904117 .85904117 .44366181 -254.14926 384.23126)"><g stroke-width="1.03429"><path d="m457.19336 154.20718-1.49024 3.66001c-12.48515 1.60135-23.65373 4.83869-35.56171 8.52539 15.0515 5.19668 30.61856 8.5761 46.05618 12.39453l8.54116-18.11328-6.90675-9.20428z" fill="#57676f"/><path d="m467.50243 159.24986-7.18393-.0625-1.24125 2.88919-23.03187 4.34611 27.16326 6.80331 5.79207-11.99859z" fill="url(#d)"/></g><g stroke-width="1.03429"><path d="m462.45898 117.45117c-14.40696 3.28276-28.30098 7.14058-42.31757 11.73047 10.52009 4.03911 21.49871 6.248 32.45625 8.69727l3.50781 6.65868 11.9078 3.30384 6.75821-7.84077z" fill="#57676f"/><path d="m460.07227 122.9635-24.61963 6.20326 20.29786 4.53587 3.20413 5.90267 9.5597.10185.51047-.61299z" fill="url(#e)"/></g><path d="m312.22656 80.720703-13.59765 5.291016 5.98047 15.365231.57617.64258c12.65461 14.14118 33.55793 19.43762 52.49804 12.06641 15.7308-6.12218 32.61447 1.07808 38.3086 15.70898 8.16519 20.98036 32.35077 32.5247 53.85934 29.09565l4.88806.0995v-19.25463l-4.72006-.0128c-7.03452 1.02066-11.33554 1.98929-16.7888.74354-9.47481-2.16443-17.89527-8.75978-22.01586-19.38021-8.39067-21.626195-35.699-32.570685-59.82617-23.175814-14.84137 5.776034-30.72536-.375651-37.21875-13.316406z" fill="#786721"/><path d="m449.97745 144.52665c-17.41031 5.56082-35.90588-2.91268-43.20192-21.71754-7.29604-18.80489-31.85459-28.952039-53.6595-20.46143-16.99961 6.61599-35.5815-.43034-43.20189-15.617108l-5.11946 1.992405 3.93917 10.121618c11.30752 12.635835 30.10639 17.464775 47.22325 10.803145 18.0157-7.01142 37.81146 1.30395 44.47308 18.4208 7.13307 18.32834 30.2691 29.17149 49.46266 26.11152z" fill="url(#b)"/><g stroke-width="1.03429"><path d="m467.50243 159.24986 6.68113 8.57235-22.44726 8.44726 58.32617 10.1543-5.85938-9.125-10.96289-16.85742 21.84766-11.96094-21.19727-10.04102 14.81125-19.5097h-56.96554l22.83987 13.99998-5.89869 6.84364-18.65795-.0507-.084 9.58984-.084 9.57812z" fill="#57676f"/><path d="m499.3486 123.68678-32.5479.0836 15.39162 7.61394-14.17905 16.45711-3.75139-3.21325-9.52229-.10153-.042 4.82671-.042 4.8267 9.41004.02 3.76637-2.73051 13.98292 18.56924-12.05099 4.53517 30.43183 5.29755-16.91181-26.00372 4.13955-2.6956 3.37885 5.17452 13.80793-7.56018-13.57586-6.43068-4.68882 5.83216-3.86461-3.10199 5.51511-6.82967 11.35246-14.56957z" fill="url(#c)"/></g></g></svg>