<svg height="500" viewBox="0 0 132.29167 132.29167" width="500" xmlns="http://www.w3.org/2000/svg" xmlns:xlink="http://www.w3.org/1999/xlink"><linearGradient id="a" gradientUnits="userSpaceOnUse" spreadMethod="reflect" x1="-14.191975" x2="59.410336" y1="47.011307" y2="44.842594"><stop offset="0" stop-color="#a0892c"/><stop offset="1" stop-color="#d3bc5f"/></linearGradient><linearGradient id="b" gradientUnits="userSpaceOnUse" x1="60.76688" x2="60.76688" y1="8.090158" y2="32.309631"><stop offset="0" stop-color="#a0892c"/><stop offset="1" stop-color="#786721"/></linearGradient><g stroke-width="1.01573" transform="matrix(.98436173 0 0 .98465633 7.726612 25.299179)"><ellipse cx="60.76688" cy="17.026361" fill="url(#b)" rx="32.335789" ry="15.283269"/><g fill="#786721" stroke-width="1.01573" transform="matrix(.25534747 0 0 .25527108 -4.489582 -18.975176)"><path d="m258.66992 58.056641c-5.46124-.02514-10.95205.05465-16.55078.242187l-.16602.0059-18.96289 1.054687-.14843.01172c-32.7227 2.468394-62.10252 8.319529-85.58789 16.558594l-.30079.105468-.29296.117188c-4.23405 1.689582-6.89637 2.201091-18.3125 7.652344l-.125.05859-.1211.06055c-8.48954 4.246036-15.73889 8.777325-21.646482 13.88086l-.06055.05273-.05859.05273c-6.317703 5.576101-10.84735 12.081771-12.552581 14.628781l-12.736482 26.27747c-3.778085 8.12694-4.297596 16.56075-2.804687 24.27343l-7.726563 13.97071c-1.813875 3.27987-3.13686 6.62093-4.230469 9.96875 0 0-4.050225 2.709-5.890878 3.73839-7.164294 4.00669-12.915762 17.36708-12.915762 17.36708-5.319138 10.3345-5.153887 20.61477-2.546875 29.58984l-7.058594 11.51758c-4.610355 7.52358-7.267578 15.96699-7.267578 24.42187v1.17383l.183593 1.16016c3.497102 22.2023 17.337626 36.59943 31.347657 46.5039l.5625.39844 23.21875 13.39844.554687.26172c13.75005 6.50269 28.356624 11.4543 41.615234 15.33593-6.16726-1.12031-12.37512-1.88089-18.580078-1.92578-26.31186-.19046-52.256875 8.36762-71.136718 24.41211l-.947266.80469-16.816406 19.91602-.6269532 1.05273c-8.6678806 14.51559-12.7872488 32.89606-7.8769532 51.43356l.00391.0117.00195.0117c2.5973695 9.74306 7.5331632 18.94497 14.3652344 27.23633l.761719.92383 21.894531 19.29101.703125.49024c11.595178 8.06862 27.783662 4.75217 35.507813-6.75l.04102-.0625.04102-.0625c7.595731-11.55686 4.184263-27.68164-7.277344-35.25977l-.158203-.10351-.158203-.10157c-1.475168-.92299-3.139865-1.60324-4.810547-2.24804l-9.232422-10.91407c-1.941976-3.05159-2.903604-6.34897-3.019531-9.01953l6.609375-13.48632c17.174714-14.78405 33.194446-19.78644 51.744137-15.81055l16.68555 5.37695c17.20864 7.02846 35.87757 18.82173 55.80469 31.07227l.0566.0352 18.95898 11.41992.15039.0859c24.1872 13.82541 51.64457 26.10418 82.68946 23.91211l.72851-.0508 19.65039-3.33203.57618-.14453c24.61356-6.21069 50.30077-16.99291 74.98828-31.18164l.17187-.0996 16.30078-9.95313.16992-.10937c13.51349-8.75936 26.43371-18.41627 38.44336-29.00977l.16602-.14648 14.78516-13.83399.21484-.21679c22.03218-22.3645 39.91769-48.08708 47.17578-76.59571 3.2086-9.81135 2.88512-18.45605 3.13281-24.98828l.02933-.75972-.0469-.75977s-.35036-12.27014-2.93359-22.2832l-.18945-.73047-.26172-.71094c-1.35131-3.66522-3.34574-8.1858-6.61719-12.85351-3.27145-4.66772-7.95296-10.0339-16.07617-12.58985l-.15039-.0469-.15039-.0449c-4.55108-1.32808-8.63365-2.09974-12.46289-2.58008-1.47042-3.77419-3.36826-7.46193-5.79492-10.9375l-5.58985-8.00781c2.18586-4.61166 3.6862-9.72213 3.73047-15.5254v-.0586-.0566c0-6.48074-1.99225-12.90205-5.16406-18.49219l-12.3125-21.69726-.39258.61718c-1.91776-6.28624-5.4552-12.2184-10.21289-17.41015l-4.95703-5.40821c2.41354-5.45319 3.85752-12.59457 1.78515-19.80078l-.67968-2.36132-1.39649-2.02149c-3.80332-5.50305-10.38653-15.953568-25.20701-24.265644l-.10351-.05859-.10352-.05664c-21.68168-11.713934-45.76399-17.597792-66.08594-21.16602l-.21093-.03711-18.95118-2.769531-.29687-.03125c-18.00354-1.904028-34.11024-2.940052-50.49805-3.015624zm-6.77539 43.224609c18.56225-.0624 37.98133.61707 53.89453 2.16797l18.61914 2.40234c14.72924 2.39424 26.29494 5.65192 33.43555 8.65821-3.45445 1.77467-7.87748 3.80977-13.72852 5.48828l-17.40234 4.1289c-17.51786 3.41471-38.84896 5.73878-61.43164 6.64453l-20.33203.40625c-11.74149-.001-23.41457-.40593-34.58399-1.10937-.57838-.0399-1.1376-.1458-1.71484-.18945l-5.83789-5.55469c-6.24283-5.9401-14.43514-9.87791-22.68164-10.15039-8.24299-.27238-15.48875 2.67451-21.5 6.42383l-.0254.0137-.0234.0156c-.36461.22933-.65478.50018-1.01172.73438-4.36547-1.08374-8.73493-2.14681-13.07031-3.37695-.43407-.17797-.69619-.33678-1.0957-.51368 2.70567-1.44818 5.3093-2.62808 7.93164-3.22265l.14062-.0312.13867-.0352c24.72624-6.10513 44.39199-10.21401 74.22266-12.02148l18.36719-.81055c2.53989-.0362 5.10558-.0597 7.68945-.0684zm140.39453 20.70508c.0651.0971.14904.21146.21485.31055-.0836.13404-.3678.42271-.47266.57617.0174-.0252.18572-.71088.25781-.88672zm44.89258 44.82422-.002.0625c.00031-.008-.002-.0155-.002-.0234.00048-.0131.003-.0259.004-.0391zm-16.92187 29.80078-.15821.13086c.0209-.0171.0358-.0375.0566-.0547.0316-.0266.07-.0495.10157-.0762zm-253.88282 46.74805c.15375.0324.31873.0556.47266.0879.0342.006.0634.0156.0977.0215zm267.88867 11.32812.0449 3.76953c-8.21024 3.60668-17.07254 7.4662-22.52539 9.9707l-.37891.17383-.36914.19336c-13.10524 6.92384-28.83668 12.21702-44.97266 16.16406l-18.09765 3.70118c-6.95402 1.22964-14.28692 2.2402-21.78907 3.13281 9.45376-1.51616 18.63633-3.26121 27.4336-5.26563l.22461-.0508 24.9082-6.48242.23242-.25976c17.05967-5.26507 34.33467-12.16328 51.39453-22.29883l.0918-.0547.0898-.0566c1.4351-.88051 2.42391-1.75074 3.71289-2.63672zm42.60743 10.49609.22461.95508c-.0293-.14523-.0825-.21853-.11328-.35937-.0516-.19857-.0576-.39722-.11133-.59571zm2.26367 18.6875.0176 1.07422c.002-.10987-.0154-.22399-.0137-.33398-.011-.24263.009-.49847-.004-.74024zm-389.726564 25.57618c10.646584 4.67021 21.666174 8.58913 33.197264 12.43554-10.95084-3.36936-22.51403-7.38515-32.902342-12.26562zm40.339844 14.68359 3.15234.875-1.44531-.33789c-.53618-.14836-1.16315-.38341-1.70703-.53711zm294.94727 12.95898c-1.99278 2.62634-4.02188 5.1742-6.19727 7.5625l-14.68945 14.49414c-10.47263 9.49419-22.31171 18.51122-34.75 26.55079l-15.44336 9.42968c-19.03264 10.78193-38.60837 19.25216-56.06641 24.22657l-17.88476 3.63476c-17.32358 1.03022-37.14535-7.46515-60.2461-21.14844l-15.48047-9.4707-.11718-.0723c-16.94418-10.58236-35.20947-22.41724-55.58985-31.1543l-.5-.21289-14.70117-5.07617 13.39648 3.14453.17969.0371c19.04795 3.98295 39.65922 6.85895 61.37305 8.5625l.14258.0117 21.25195 1.26367.17969.006c24.20928.85345 50.07376.1152 72.45117-1.91993l.13476-.0117 19.24415-2.10352.14648-.0176c28.98852-3.74503 55.39703-9.84178 78.04883-17.57617l.26953-.0918 18.0332-6.9375.24805-.10547c2.28134-.97345 4.39178-2.01172 6.56641-3.02539z"/><path d="m258.60156 73.056641c-5.26827-.02425-10.56648.05303-15.98047.234375l-18.65039 1.037109c-31.60318 2.383945-59.88877 8.085887-81.75195 15.755859-5.10109 2.035574-6.43151 2.014443-17.4082 7.25586-7.66767 3.834976-13.98971 7.877806-18.54883 11.816406-7.045969 6.21888-9.531251 11.62673-9.531251 16.39453 3.004893 14.92531 17.199381 22.18244 29.011721 27.67578 5.86846 2.45186 11.79181 4.52407 17.75 6.34766-2.08683 4.06367-3.92376 8.38184-5.52344 12.92969-.52787 1.55313-1.05075 3.1156-1.56445 4.6914-5.83336-1.89242-11.66665-4.04162-17.5-6.55664-13.47019-6.63346-26.215215-13.88949-34.255862-25.49805-10.745092 23.1135 13.84233 37.9355 29.281252 45.60547 6.17958 2.87038 11.81018 5.23783 17.04492 7.24414-1.08809 5.951-1.83547 12.44668-2.06641 19.76954-6.34457-2.38476-12.29446-4.95406-17.88086-7.63086-14.402755-7.56628-27.561872-14.71827-37.384762-25.8086-17.024249 30.78344 14.072747 47.47064 35.521482 56.69531 6.17248 2.59176 12.34511 4.94904 18.51758 7.05079-.0614 6.59445-.0228 13.00888.0547 19.12109-6.28427-1.7548-12.54928-3.73429-18.78125-6.06445-12.848535-4.97511-24.10042-10.67523-33.457043-17.20508-8.195742-5.9008-11.126329-9.34422-15.085938-13.26758-4.196477-4.87145-7.481916-10.0534-9.595703-15.65039-5.388072 10.46844-1.087813 23.01 4.445313 30.47266 4.606853 5.91934 9.575698 10.57127 14.777343 14.4082 13.781061 9.53562 25.447448 15.85599 39.228518 21.55664 7.74249 3.00165 15.48406 5.56915 23.22656 7.91406 2.5305 2.34893 5.58475 2.90519 8.5332 2.5 8.47839 2.40819 16.95716 4.63055 25.43555 6.89649 5.28444 1.14011 10.77769 2.27989 16.37305 3.3164l19.78906 3.10938c22.48489 2.79847 42.27653 4.35314 63.10352 4.66406l19.48046-.10351c23.52106-.51825 45.59188-2.79825 65.48633-6.32227l18.75391-3.83594c16.99318-4.14595 33.8821-9.744 48.5957-17.51758 8.12082-3.72991 24.59302-11.1399 33.63086-14.89062 5.26483-2.1849 10.39836.34707 10.71875 1.93555 1.34703 4.9751 1.86534 10.2608 1.76172 15.54687.5749 11.05338-.68568 21.83113-6.04492 31.99414-10.00104 12.19533-17.35871 25.92114-28.66797 38.28125l-15.43945 15.23438c-11.19063 10.1575-23.72737 19.69422-36.88672 28.19336l-15.95703 9.74414c-20.10169 11.40128-40.82511 20.41694-59.89063 25.80664l-19.89453 4.04297c-22.79572 1.65836-45.48811-8.91533-69.63086-23.21875l-15.75-9.63672c-17.09678-10.67574-34.8136-22.07757-53.67187-30.16211l-20.41407-7.04883c-7.30499-1.91749-14.90121-2.85512-22.509762-2.91016-22.825682-.16523-45.764114 7.62679-61.314454 20.8418l-15.224609 18.0332c-6.931966 11.60858-10.017156 25.70453-6.255859 39.9043 1.989446 7.46266 5.810481 14.71978 11.447265 21.56055l20.351563 17.93164c4.766402 3.31675 11.284573 1.96701 14.486328-2.80078 3.201755-4.87145 1.844024-11.29669-3.015625-14.50977-1.915296-1.19838-3.706975-1.73424-5.335938-1.76367l-12.972656-15.33789c-4.382967-6.52983-6.590777-14.30324-5.658203-21.5586l9.398438-19.17382c20.588694-18.55299 43.136339-26.32915 67.486332-20.93946l18.33984 5.91016c19.16914 7.7736 38.44148 20.10743 58.33594 32.33789l18.7539 11.29687c23.21019 13.26695 47.76713 23.83833 74.18946 21.97266l18.34179-3.10937c23.00297-5.80429 47.55893-16.0647 71.1836-29.64258l15.95898-9.74414c12.95213-8.39549 25.28181-17.61802 36.67969-27.67188l14.40234-13.47461c21.03424-21.3515 37.40378-45.50158 43.56836-70.57226 2.26163-6.81055 2.16846-13.95745 2.4375-21.05274 0 0-.83042-13.06014-2.48828-19.48632-2.02054-5.4804-6.47501-14.23305-13.12109-16.32422-9.48934-2.76913-15.77011-2.91947-20.2168-2.14454-.0655-5.522-1.97628-11.22397-6.13867-17.18554-.93254 1.0365-1.86424 1.96753-2.90039 2.90039-5.52228 4.51312-10.50334 9.13457-17.40821 13.37109-15.82663 9.40287-31.9239 15.85609-48.20117 20.87696-2.23903.59896-3.78406 1.04945-3.91992 1.20117l-20.30859 5.28515c-18.65106 4.24956-38.95929 7.46455-60.61524 9.22657l-22.69336 1.3457c-20.82699.82919-43.62024.31265-62.47851-1.24219l-20.10352-2.07422c-4.66278-.62188-9.32571-1.34673-13.78125-2.07226-6.29075-1.36566-12.58526-2.68569-18.875-4.0625-.32308-5.77478-.69566-11.8954-.94922-18.35742 6.29755 1.43563 12.59504 2.56169 18.89258 3.34765 10.98338 1.86567 22.6932 3.42057 34.81641 4.45703l20.10156 1.34766c26.31872 1.14016 53.67149-.00035 78.02148-2.79883l18.54883-2.48828c25.38616-4.04229 47.97415-10.05311 66.41797-17.41211l23.31445-11.29687c12.01959-7.15174 27.45697-20.21314 27.56055-33.79102 0-3.62768-1.035-7.25487-3.21094-11.08984-6.52789 10.26113-15.33636 17.41277-24.86914 23.00976l-16.78515 8.5c-22.48488 9.12105-48.90717 14.924-69.94141 17.82617l-21.75977 2.28321c-26.4223 1.762-49.11506 1.96689-73.25781.30859l-22.06836-2.17578c-12.95215-1.45109-25.28336-3.52417-37.0957-6.01172-6.39893-1.09089-12.47072-2.40896-18.26172-3.89648l.23242-5.1211c.65249-4.71708 1.57717-9.44577 2.72657-14.14062 5.97113 1.63352 11.68041 3.02472 17.47851 4.5 5.28449 1.14011 10.77567 2.17837 16.47461 3.21484l18.65039 2.69531c21.65594 2.48756 40.20515 3.62709 60.09961 3.52344l18.75391-.51758c25.17892-1.24377 48.49226-4.45668 68.38672-9.32812l28.18554-8.70703c12.01957-4.7678 21.75915-10.15887 28.39063-15.75586 8.08212-6.6335 11.39822-12.95537 11.60547-18.86328.20716-5.28607-2.17606-10.88269-7.875-17.10157-9.84365 9.22471-22.79651 16.47868-33.15821 20.93555l-17.51172 6.53125c-20.20531 6.63349-44.24378 11.50449-70.5625 14.0957l-23.52148 1.76368c-16.88958.72553-34.81476.51684-50.46094-.41602l-23.41797-2.07227c-6.1134-.72554-12.0197-1.55533-17.82226-2.59179-5.57186-1.1078-11.14494-2.26906-16.7168-3.53907 2.4635-6.14052 5.26136-12.07551 8.3125-17.67773 5.8002 1.27666 11.6112 2.48424 17.41992 3.70117 15.95701 2.3839 33.25954 3.93699 51.4961 4.35156l18.85937-.10351c27.66573-.51824 53.57001-3.62646 75.84766-8.60156l18.7539-4.76953c16.37148-5.18242 34.29808-11.71059 47.04297-22.69727 5.59532-5.70065 11.08608-12.54112 8.91016-20.10742-4.42759-6.40625-7.7615-12.7339-20.20508-19.712892-19.37638-10.468448-42.06883-16.16945-61.54883-19.589844l-18.44336-2.695313c-17.64079-1.865664-33.18345-2.858755-48.98828-2.93164zm-6.75781 13.224609c19.00246-.06388 38.85673.615653 55.53906 2.248047l19.27344 2.488281c17.92574 2.902123 32.11999 6.839757 41.23828 11.503902 13.77305 9.56323 10.77021 12.67178 9.63672 16.5-3.52298 5.70064-13.78157 10.98844-29.42773 15.44532l-18.3379 4.35156c-18.54743 3.62767-40.61977 6.0105-63.93359 6.94336l-20.82617.41601c-12.12321 0-24.14307-.41509-35.64453-1.14062-8.03064-.55317-15.93209-1.44904-23.72852-2.62695 2.24464-2.61738 4.5315-5.0359 6.83985-7.21875-4.24829-4.04228-8.52483-5.88288-12.83789-6.02539-4.31306-.14252-8.6627 1.41153-13.06641 4.1582-2.09086 1.3151-4.06091 2.76488-5.93945 4.31445-7.10636-1.62932-14.13539-3.46031-21.10547-5.45312-10.77618-4.24961-16.47646-9.22401-16.58008-14.30274 0-3.54478 2.64977-7.1411 7.87695-10.49023 5.22789-3.3496 10.71828-6.30398 17.19922-7.773439 25.04475-6.183774 46.10845-10.571837 76.98633-12.4375l18.75781-.828125c2.66814-.03888 5.36544-.06314 8.08008-.07227zm-211.181641 170.79883c-3.429763 5.59699-5.05664 11.09064-5.05664 16.58398 2.80802 17.82748 12.434202 27.57245 25.189453 36.58985l22.089844 12.74609c14.464909 6.84077 30.838004 12.33689 44.722654 16.17188l22.07031 5.18164c18.34023 3.83497 38.3387 6.63265 59.47657 8.29101l20.92968 1.24414c23.52106.82919 48.90656.10232 70.5625-1.86719l18.9629-2.07226c28.08019-3.62768 53.57069-9.53554 75.12304-16.89453l17.51172-6.73633c14.81726-6.32254 26.93843-13.47485 35.95313-20.9375-.51808-7.25535 1.45019-14.92528.10351-21.45508-11.5015 9.53563-25.69565 17.31033-37.30078 22.07813l-19.6875 6.94336c-21.44872 6.52984-46.31524 11.19408-73.46289 13.68164l-20.20508 1.34765c-24.45362.8292-45.0763.62124-66.93945-1.03711l-21.13867-2.07226c-21.03353-2.48747-41.02926-6.11743-59.57618-10.67774l-19.3789-5.38867c-16.37145-5.38968-30.980902-10.67473-44.927736-17.61914l-16.69336-9.32812c-11.118112-7.56632-20.836648-14.92689-28.328125-24.77344z"/></g><path d="m59.515625-.82617188c-.700216.065578-1.48497-.0598856-2.133791.12283843-.647777.37097926-.379726 1.11424627-.389255 1.72404805.0748.7262502.06573 1.5361608.333904 2.1940987.518324.6498132 1.414836.2481351 2.131253.3471834 4.837798-.018049 9.709051.1183655 14.497342.5688627.639509-.3476261.563112-.9561125.492468-1.5808265-.07843-.7114641.118979-1.4764892.05034-2.1455409-.273914-.67511706-.999419-.51585009-1.588536-.60858053-4.449489-.44864508-8.920789-.68559293-13.393721-.62208335zm-8.361328.43945313c-6.607829.61212447-13.204681 1.75530515-19.492188 3.92187495-.446342.6152054-.08888 1.1536301.293188 1.6897042.385317.4994909.575778 1.2389666 1.103037 1.5680887.635193.3394152 1.258048-.234594 1.889851-.300912 5.88469-1.6179378 11.991095-2.309131 18.049862-2.7029746.512292-.3786211.500751-.9048887.353515-1.4707031-.08595-.773856-.134417-1.5514372-.140624-2.33007815-.384912-.62326579-1.026724-.48713515-1.648955-.40888561-.135895.0112952-.271791.0225904-.407686.0338856zm27.101562 1.43164065c-.136552 1.1170679-.120162 2.3281468.235444 3.3805809.519363.6288881 1.514803.4298867 2.19701.6625015 2.953697.5602536 5.910171 1.3118831 8.638035 2.5728441.923595-.076436 1.808051-.5320106 2.742011-.6686609.813416-.1731797 1.637459-.291283 2.464844-.3730469.27887-.6940196.159029-1.1945051-.616582-1.3766785-4.720792-2.3730876-9.882099-3.7093307-15.061152-4.63504022-.19987.14583333-.39974.29166666-.59961.43750002zm-51.826171 4.7421875c-2.457657 1.3635823-5.104942 2.9307128-6.358833 5.5654586-.507056 1.0198-.435158 2.204304.0637 3.211249 1.294355 3.056697 4.39983 4.717701 7.265831 6.035792.713163-.03009.899586-.659279 1.175873-1.19945.822475-1.535756 1.79811-2.992935 2.949127-4.302503-.01712-.601418-.300017-.964219-.878075-1.08904-1.252305-.611042-2.79917-1.280812-3.217628-2.735178-.07753-1.106613.976994-1.8469289 1.779296-2.4160161.335591-.6570395-.163748-1.1670674-.487519-1.7080089-.358791-.4927233-.579909-1.147567-.993009-1.5571048-.538885-.2961536-.812967-.074602-1.298763.1948012zm69.310546 4.5175786c-1.382248.100878-2.827589.208287-4.11428.720358-1.168183 1.523015-3.049679 2.334495-4.762996 2.987383-.859126.372132-1.862137.525231-2.661709.936211-.537076.52342-.05742 1.164984.01748 1.77362.403144 1.790815.555664 3.544804.621112 5.369537.464177.561731 1.030535.43428 1.619201.156368 4.042153-1.348645 8.190036-2.885348 11.412893-5.766389 1.39655-1.41071 2.850375-3.345328 2.264785-5.450526-.564141-.702267-1.592307-.521353-2.398442-.6875-.665038-.05674-1.331363-.05065-1.998047-.03906zm-54.78125 3.189453c-2.49732.219447-4.536977 1.945972-6.234375 3.654297-2.077686 2.255591-3.58308 5.029421-4.49414 7.943359.251479 3.725851.349584 7.717817 2.416879 10.96961.363643.478232.747272 1.156603 1.267876 1.368036.635834-.0624.942837-.401691.889464-1.044677 1.025796-6.073802 3.523863-12.003812 7.173828-17.015625.888468-1.202926 1.92231-2.414934 3.035156-3.46875.161857-.653425-.261301-1.058867-.77416-1.375986-.939913-.697978-2.102067-1.108447-3.280528-1.030264zm36.859375 2.794921c-4.778495.803422-9.613858 1.229984-14.453125 1.435547-.739991.370081-.864483 1.30675-1.263672 1.970703-.854362 1.79112-1.168961 3.764049-1.414062 5.714844.325784.675921.972967.61265 1.61727.556003 6.168601-.181251 12.334291-.844495 18.363199-2.17905.683189-.55128.285735-1.460086.359105-2.213122-.06085-1.78092-.235429-3.581659-.827855-5.273206-.61143-.605552-1.420521-.107713-2.150063-.05393-.07693.01407-.153865.02814-.230797.04221zm-29.179687 1.371094c-2.237587 1.858015-4.240594 4.011943-5.832031 6.451172.118833.743883.648601.945075 1.339733.933163 4.048506.564717 8.13066.876941 12.216907.97504.753061-.354376.577555-1.232375.746048-1.916392.267924-1.906981.700139-3.79903 1.439499-5.581655-.242549-.699068-.810162-.788416-1.47262-.699866-2.724904.01129-5.461604-.174197-8.172926-.250624-.0882.02972-.176407.05944-.26461.08916zm-31.984375.214844c-1.102309 2.186813-.893828 4.934517.579694 6.899845 1.768553 2.473599 4.473842 4.04595 7.13515 5.39703.716912-.130315.883238-.686463.928826-1.335992.284846-1.385376.644943-2.754502 1.063361-4.105414-.146916-.8477-1.10081-.927286-1.713338-1.340663-2.684314-1.400967-5.358409-3.08512-7.110881-5.618322-.29427.03451-.588541.06901-.882812.103516zm83.837893 1.279297c-2.366034 2.049608-5.025567 3.583675-7.863284 4.832031-.554272.668753.04555 1.435347.09461 2.177721.393082 1.915322.427031 4.045359-.116093 6.023451.428254.577876.933781.674994 1.522986.251501 3.184818-1.381092 6.455081-3.055991 8.586411-5.889562 1.27109-1.657215 1.49486-4.047706.38523-5.847929-.41915-.688135-.87909-1.472732-1.51046-1.934211-.5072-.108292-.76958-.0127-1.0994.386998zm-13.251956 6.787109c-5.49332 1.694171-11.19282 2.689283-16.949218 3.267578-1.352936.809172-2.059405 2.420231-2.338049 3.926872-.226564 1.263969-.162254 2.557737-.01742 3.827035.389416.59731 1.03108.44328 1.637108.395396 5.558864-.346665 11.137608-1.000292 16.534745-2.380161 1.141702-1.043554 2.09657-2.360783 2.716819-3.790626.690681-1.65234.51872-3.510456.03711-5.193359-.555137-.506033-.996886-.273609-1.621094-.05273zm-73.380859 1.902344c-1.348515 2.332553-1.835769 5.340597-.521807 7.798268 1.727085 3.263218 5.110338 5.15381 8.323638 6.692108.525166.194358 1.080965.609051 1.601159.62823.748923-.1977.676756-.864714.664604-1.497425.06067-2.255409.210506-4.5078.442172-6.75204-.309243-.825957-1.321794-.939366-1.983971-1.412244-2.785882-1.511851-5.575558-3.171748-7.695717-5.572131-.276693.03841-.553385.07682-.830078.115234zm92.054685.576172c-1.51346 2.212083-3.57543 3.896972-5.88281 5.253906-.469563.686748.12014 1.436541.11322 2.178859.17926 1.238804.11079 2.513259-.210876 3.723485.466146.473513.946476.671747 1.446866.128692 2.5921-1.727959 5.19646-3.869526 6.29727-6.882598.57495-1.594587.27567-3.391132-.57812-4.828125-.52042-.012-.97992-.203809-1.18555.425781zm-65.464841.269531c-.73318 1.891045-1.261928 3.858308-1.611328 5.855469.217438.683002.87643.705353 1.478277.813206 1.04181.22063 2.090628.405289 3.136957.60281.622623-.258245.684164-.811123.679504-1.411587.187846-1.691696.760611-3.355352 1.771668-4.734898-.131629-.741865-.663488-.936925-1.355559-.913097-1.199202-.151162-2.362039-.329028-3.535066-.536122-.188151.108073-.376302.216146-.564453.324219zm10.662109.994141c-1.830048 1.638384-3.598651 3.899649-3.3125 6.503906.455232.750435 1.408891.476809 2.145207.649732 4.551911.48607 9.129745.743396 13.708309.717456.557092-.34207.55405-.890433.46289-1.472657-.08268-1.932464.0043-3.920068.707032-5.74414-.266831-.693835-.83485-.767063-1.497395-.64552-3.94615.136097-7.898583.08424-11.840496-.14159-.124349.04427-.248698.08854-.373047.132813zm-43.3203124 6.519531c-1.0118813 2.606429-.1770176 5.584767 1.4101563 7.775391.7174206.05751 1.1232841-.258919 1.1900521-.982337.298496-1.014215.755581-2.00843 1.007544-3.016555-.08329-.733995-.826594-1.164202-1.150721-1.805796-.5180164-.769133-.9591166-1.591665-1.2890626-2.458984-.5439996.034037-1.0515855-.246615-1.1679688.488281zm86.9589844.023437c-5.409716 2.023926-10.976204 3.278306-16.671875 4.09961-1.202972.774806-1.548241 2.390939-1.499132 3.746762.03024 1.025968.263914 2.030732.438585 3.038394.448311.561087 1.071242.344737 1.672126.226544 5.440021-.928768 10.834497-2.254241 15.974358-4.285138.587392-.583694.674575-1.495114 1.041665-2.223087.554384-1.464319 1.104294-3.040553.811851-4.626522-.52998-.544994-1.121022-.282908-1.71382.0024zm-66.847656.810547c-.409165 5.231849-.331861 10.488013-.220703 15.728516.317366 1.594746 1.471812 3.282333 3.253906 3.300781 1.468719-.000019 2.992729-.698935 3.863281-1.892578.238294-.948353-.02874-1.971498-.0055-2.946859-.167016-2.961846-.355356-5.924973-.342202-8.892985-.325649-.739941-1.247039-.852503-1.825725-1.351441-1.594647-1.007963-2.954926-2.422287-3.758259-4.140746-.321615.0651-.64323.130208-.964844.195312zm10.371094 2.341797c-.126417 2.509652-.07457 5.024697.05273 7.533203.422022.763742 1.384241.538371 2.108346.748993 2.403238.37657 4.820724.654021 7.243216.872101.596291-.381668.583842-.934809.369141-1.544922-.33563-1.949236-.264241-4.048682.669922-5.832031-.171714-.716326-.730028-.859335-1.393401-.846544-2.809771-.335397-5.649728-.834909-8.440584-1.409315-.203125.159505-.40625.31901-.609374.478515zm69.650392-.07422c-.8356.498569-.39744 1.500757-.377 2.232263.21912 2.310099.27244 4.63427.20708 6.953283.55976.276274 1.09215.455696 1.36718-.253906 1.55726-1.992335 2.07542-4.787801 1.06557-7.143052-.28103-.738875-.68018-1.426773-1.12611-2.077651-.46385-.02076-.87187-.230248-1.13672.289063zm-37.837892 1.746093c-5.383231.293956-10.784421.302179-16.164063-.07031-1.152298.447477-1.831809 1.702813-2.126953 2.855469-.343775 1.583446.02145 3.220673.583984 4.708984.626149.607767 1.575208.265712 2.363847.395526 6.039496.166515 12.08919-.108088 18.093185-.776386.588822-.429242.402799-1.059475.28658-1.6716-.251692-1.639816-.431841-3.339808-.02681-4.970978-.307434-.661169-.887418-.681007-1.527511-.559405-.494085.02957-.98817.05913-1.482254.0887zm-55.78125 2.078125c-.456943 1.367801-.888806 2.733962-1.390626 4.060547.08189.847937 1.020973 1.053033 1.586131 1.534452 2.747137 1.81237 5.665812 3.362485 8.710745 4.612033.708043-.242767.809184-.803355.695496-1.476444-.05885-1.41683.0294-2.880526-.121217-4.26812-.400148-.712051-1.370391-.701863-2.025817-1.105861-2.334397-.99493-4.597994-2.172094-6.685181-3.620279-.256511.08789-.513021.175782-.769531.263672zm88.076172.347656c-3.892563 2.223527-8.097759 3.852579-12.390626 5.119141-.64571.573862-.406678 1.546251-.648405 2.310715-.372864 2.218621-.810205 4.583113.02145 6.755691.530073.508105 1.163336.18008 1.774172.03378 3.91082-1.018348 7.765183-2.33665 11.352779-4.213464.6748-.879772.83337-2.06495 1.10205-3.126179.45356-2.278154.48783-4.617865.36475-6.930462-.62584-.49399-.95849-.413335-1.57617.05078zm13.67578 2.492188c-1.97723.168251-3.59887 2.329374-2.87443 4.261289.26753 1.130311.35833 2.295925.33927 3.455508.42496.386319.85517.543619 1.34571.199219 1.367-.529415 2.93779-.606225 4.30469-.03516.60543-.246753.80913-.706584.66836-1.326733-.11417-1.641073-.24235-3.346021-.9003-4.868784-.51828-1.077544-1.66569-1.836268-2.8833-1.685342zm-110.6074212.427736c-1.0782506 1.773153-1.7553016 3.986003-1.0442734 6.021624.7828929 3.280544 3.1084733 5.939403 5.8109436 7.843489.339825.581235 1.236033.224383 1.315005-.273604-.182228-2.372678.476077-4.847739 1.998403-6.700884.09652-.725168-.487628-1.024977-1.01659-1.359275-2.307046-1.61523-4.5157968-3.352541-6.2197382-5.59385-.28125.02083-.5625.04167-.84375.0625zm77.5996092 3.931641c-4.493752.93221-9.045928 1.573927-13.61914 1.953125-1.054436.625335-1.598095 1.886655-1.93297 3.029004-.415552 1.633407-.212667 3.374556.356798 4.945605.580356.615553 1.45895.218031 2.199111.29075 5.057714-.179158 10.104382-.6938 15.089951-1.56614.566898-.439389.3565-1.061483.259163-1.663914-.269373-2.265383-.228431-4.562842.0592-6.824367-.397206-.620131-.971619-.572157-1.594095-.342976-.272672.05964-.545343.119275-.818015.178913zm-44.484375 1.453125c.09211 1.770201.05218 3.70494-.976562 5.226562.09493.736391.629629.942732 1.301021.984326 1.066837.231002 2.139655.43238 3.210697.642628.51591-.321519.722411-.75517.507813-1.341797-.168786-1.616155-.141487-3.302532.464844-4.832031-.196292-.732738-.840724-.792247-1.495291-.836532-.809636-.110255-1.615178-.247708-2.422678-.372453-.196615.176432-.393229.352865-.589844.529297zm8.761719.714844c-1.527543 1.749219-1.135507 4.259985-.625262 6.32495.219812.861901 1.295637.636333 1.97793.790673 4.870585.575375 9.767652.943026 14.672722 1.015236.543477-.38183.548374-.915025.363282-1.501953-.270874-1.946418-.18524-3.967933.453125-5.837891-.273662-.685131-.84639-.745111-1.501469-.632949-4.968809.15341-9.947003.04409-14.902828-.349472-.145833.0638-.291667.127604-.4375.191406zm61.785158 1.052734c-2.69641 2.105429-5.7045 3.797512-8.85547 5.121094-.628546.688443-.552166 1.747007-.566733 2.629016.04604 1.072485.328173 2.113221.590173 3.148328.55957.502498 1.13409.199695 1.70861-.102346 2.93933-1.32696 5.77997-2.921299 8.28553-4.964061.37504-.719808.0644-1.584159.23025-2.368142.074-1.196249.21354-2.41093-.0174-3.598655-.55152-.263492-.95052-.418622-1.375.134766zm-92.078127 1.441406c-1.912225 1.697094-1.973758 4.540571-1.378002 6.848946.262325.716492.249606 1.668204.900718 2.145474 3.667613 1.70608 7.503812 3.025532 11.397206 4.111049.588077-.338511.710885-.813957.476962-1.422353-.414413-2.202336-.32252-4.615089.876554-6.571788-.06914-.751312-.696714-.916955-1.326887-1.079876-3.530001-1.179991-7.031424-2.473187-10.370379-4.127155-.192057.0319-.384115.0638-.576172.0957zm99.923827 2.16211c-.86444.219276-1.475 1.000086-2.17333 1.52597-4.05371 3.600832-6.36005 8.649419-9.99854 12.610748-.24076.810773.40805 1.529498.66535 2.268779.54339 1.153496 1.13677 2.281882 1.69402 3.428487.67444.300913 1.12707-.05444 1.51755-.59367 4.71606-4.95699 8.84662-10.772791 10.54495-17.490314-.14332-.840243-.99669-1.400493-1.74414-1.697266-.16474-.04413-.33548-.0627-.50586-.05273zm-22.699218 3.574218c-5.767096 1.651554-11.682845 2.604243-17.638671 3.169922-.893447.562605-.910908 1.818583-.921875 2.777344.06342 1.331156.511142 2.601003.941406 3.84961.610459.602689 1.449717.137774 2.191365.114731 5.980584-.862813 11.909399-2.167877 17.63676-4.108872.510131-.530606.181464-1.163856.03202-1.775174-.318993-1.259024-.571966-2.547495-.557411-3.851779-.44985-.574048-1.019016-.460943-1.614476-.196412zm-60.822265.154297c-1.678958 1.600841-1.759667 4.192911-1.009485 6.258251.331423.784448.496218 1.761939 1.204797 2.288624 5.027524 1.044621 10.126581 1.721277 15.244141 2.125.543096-.406671.560073-.91082.303702-1.491162-.442095-1.808975-.47391-4.073166.321298-5.924853-.188598-.699257-.760408-.812077-1.404237-.814683-4.77074-.595253-9.487453-1.447341-14.169982-2.589614-.163411.04948-.326823.09896-.490234.148437zm20.634765 3.228516c-1.710805 1.448057-1.743559 4.004629-.966207 5.949458.324848.656815.467688 1.741884 1.343866 1.817762 5.959849.19045 11.931704.03745 17.872341-.480111.546602-.462422.396468-1.027791.17211-1.617335-.431003-1.61135-.708798-3.302542-.472891-4.968602-.334077-.66888-.98102-.598747-1.622975-.540395-5.314228.166089-10.638732.108035-15.941478-.297496-.128255.04557-.25651.09115-.384766.136719zm-33.910156 9.576172c-5.473221.142635-11.0123713 1.896047-15.2499998 5.431641-.3945144.824698.042793 1.772723.1831559 2.625409.3433326 1.29526.8769058 2.536245 1.5375473 3.700762.6811015.334031 1.1503658-.111371 1.6145433-.57549 3.6092113-3.090546 8.2845953-5.217861 13.1134903-4.904506.959163.04963 1.911816.188742 2.850091.392106.534149-.210244.693903-.635491.746939-1.162904.361659-1.453193 1.091122-2.807938 2.07728-3.932799-.0723-.654067-.429521-1.0067-1.090065-1.01854-1.896059-.421547-3.84219-.592433-5.782982-.555679zm81.087894 1.291015c-.80762.337454-1.340152 1.14287-2.059067 1.64082-2.44172 2.073656-4.982008 3.925112-7.663592 5.669727-.347539.62221.09006 1.117013.413637 1.63032.732946 1.197213 1.520248 2.335501 2.170347 3.58843.636673.370979 1.138302-.05014 1.648178-.422879 2.973133-1.973822 5.817707-4.142874 8.500257-6.497042.33711-.730476-.29369-1.307196-.49836-1.973872-.60904-1.19644-1.0144-2.583919-2.02507-3.512457-.14263-.0946-.31671-.135843-.48633-.123047zm-69.710941 1.353516c-1.627639 1.159661-3.16629 2.905829-3.052734 5.033203.369276.785794 1.377927.793793 2.051363 1.22443 4.53411 2.087898 8.808119 4.853162 13.087309 7.466977.72914-.09273.929737-.634009.99321-1.29166.334303-1.360464.765428-2.813502 1.403274-4.11459-.02773-.832554-.903179-1.019461-1.465863-1.444578-4.039433-2.527175-8.111639-5.047212-12.497027-6.938235-.173177.02148-.346355.04297-.519532.06445zm-30.95312462 8.095703c-2.09707678 3.75568-2.38304118 8.523903-.434601 12.399891.56286862 1.183232 1.29749892 2.277572 2.12210102 3.293468.6088844.0315 1.0659513-.145274 1.1855468-.791015.6511699-1.333054 1.5891725-2.587468 2.9257813-3.291016.295119-.539194.066016-.987337-.2635594-1.434095-.7785978-1.377003-1.0903184-2.993934-.9598315-4.55446-.3905942-.844404-1.130605-1.517489-1.571531-2.357148-.7203111-1.182294-1.3083789-2.443906-1.7617187-3.751953-.5834249-.056502-1.06452345-.240612-1.24218752.486328zm84.98242162 1.382813c-4.242345 2.244661-8.637385 4.169895-13.269531 5.488281-.679581.613661-.641283 1.659627-.773825 2.512092-.09872 1.206804.03587 2.421066.281638 3.603142.48682.549286 1.095944.307328 1.69657.120356 6.037802-1.66717 11.803492-4.230315 17.233117-7.337153.328382-.540101.07528-1.024004-.239976-1.491937-.730832-1.284934-1.565949-2.505721-2.328383-3.771734-.607458-.368397-1.118069.05093-1.64338.350686-.318744.175422-.637487.350845-.95623.526267zm-36.441406.849609c-1.040411 1.790976-1.414165 4.007294-.891932 6.007746.539198.678525 1.482809.912401 2.199892 1.386732 5.259016 2.829378 11.156258 5.009769 17.219384 4.568413.604336-.4323.415276-1.054626.295155-1.677253-.191773-1.347887-.232759-2.720612-.08031-4.0747-.325663-.599252-.884175-.588402-1.481889-.518614-2.555385.03636-5.037745-.529111-7.388611-1.368144-3.215184-1.154393-6.224098-2.80198-9.16075-4.531211-.23698.06901-.473959.138021-.710938.207031zm-39.953125 12.355469c-2.2825443.282767-3.3748395 3.364508-2.1796875 5.199218 1.2303399 1.73434 4.1685565 1.40027 5.1172755-.4574 1.045451-1.70136.007-4.141363-1.915103-4.627239-.3289944-.106155-.6781867-.142903-1.022485-.114579z" fill="url(#a)"/></g></svg>