<svg height="500" viewBox="0 0 132.29167 132.29167" width="500" xmlns="http://www.w3.org/2000/svg" xmlns:xlink="http://www.w3.org/1999/xlink"><linearGradient id="a" gradientUnits="userSpaceOnUse" spreadMethod="pad" x1="298.9492199833" x2="390.85741990933" y1="140.16992316413" y2="125.23827939533"><stop offset="0" stop-color="#69222b"/><stop offset=".511236" stop-color="#fbc070"/><stop offset="1" stop-color="#681f2d"/></linearGradient><filter id="b" color-interpolation-filters="sRGB" height="1.099754" width="1.092519" x="-.046259" y="-.049877"><feGaussianBlur stdDeviation=".51795517"/></filter><filter id="c" color-interpolation-filters="sRGB" height="1.089852" width="1.106088" x="-.053044" y="-.044926"><feGaussianBlur stdDeviation="1.1012092"/></filter><filter id="d" color-interpolation-filters="sRGB" height="1.082061" width="1.101638" x="-.050819" y="-.04103"><feGaussianBlur stdDeviation="1.1012092"/></filter><filter id="e" color-interpolation-filters="sRGB" height="1.039933" width="1.047154" x="-.023577" y="-.019967"><feGaussianBlur stdDeviation=".48941167"/></filter><filter id="f" color-interpolation-filters="sRGB" height="1.03647" width="1.045171" x="-.022586" y="-.018235"><feGaussianBlur stdDeviation=".48941167"/></filter><g stroke-width="1.12421" transform="matrix(.888521 .04190726 -.04190726 .888521 -228.61644 -12.40472)"><g stroke-width="1.31363" transform="matrix(.85580028 0 0 .85580028 48.343334 10.321134)"><use opacity=".75" transform="matrix(1.313643 0 0 1.313643 434.55476 -18.26492)" xlink:href="#g"/><path d="m357.07539 98.530786c-3.51206.02045-6.99959-.817419-10.51073-.73445-1.49773.03539-2.91963 1.085893-4.46371.524716-1.29855-.17454-2.40019-.845085-3.48417-1.521842-1.46437-.657563-2.51162.994749-3.85848 1.2198-2.76851.940455-5.6414-.238593-8.46398-.261862-3.27261-.02698-7.38353-.219224-9.81715.141781-1.3468 6.870161-1.59355 15.333551-.62293 23.646991l2.90511 17.8793 53.48753-8.6909-2.90522-17.87995c-1.14933-5.52326-2.52573-10.2842-4.52166-14.955441 0 0-5.15454.616778-7.74461.631857z" fill="#836e48" opacity=".95" transform="translate(.000001)"/><use opacity=".2" transform="matrix(1.313643 0 0 1.313643 434.55476 -18.26492)" xlink:href="#g"/><path d="m90.48818 21.727061c3.424439 1.264269 10.89547-1.102367 10.89547-1.102367.29401 2.904266-.42383 5.546724-2.25717 7.380057-4.154382 4.154374-12.4635 2.58083-18.55894-3.51461-3.180902-3.180902-4.70076-6.60528-5.677013-10.446199-.709583-2.791747 0-8.6415411 0-8.6415411s8.53734 13.7180611 15.597653 16.3246601z" fill="#f0f3f4" filter="url(#b)" opacity=".5" stroke-width=".307664" transform="matrix(.90725093 0 0 .90725093 246.82047 37.505189)"/><path d="m1345.702 38.564788-113.4941 19.070915-110.2434 17.280051 8.7337 48.422626c9.5867 44.47933 27.011 84.76184 49.1949 112.83732 16.2044 20.51041 35.2122 35.61749 55.427 42.24183-17.0922 12.6316-30.3723 32.8791-39.2605 57.45136-6.1939 17.12439-10.9984 38.3009-12.3 58.0312-2.57 38.95567 6.3278 93.7049 9.0211 116.77312l2.1834 17.88042 110.7616-17.99845 110.7617-17.99588c-1.2774-5.87159-2.5532-11.74456-3.8306-17.61616-4.9363-22.69031-13.4695-77.4628-28.0483-113.66091-7.3684-18.29498-18.3064-36.94352-29.5981-51.23464-16.2236-20.53558-34.9178-35.5996-55.1909-42.229 16.9819-12.69113 30.1705-32.96795 39.027-57.45649 12.0227-33.23932 16.2716-78.15246 11.6047-122.725561zm-9.0005 11.214714 4.7492 40.781945c2.1634 21.308523.9722 41.574623-1.0828 62.213313-1.8306 18.38593-4.0478 38.12136-9.9806 54.52388-13.0288 36.02539-35.0427 60.52754-63.0497 65.07921-28.0088 4.55196-56.6393-11.72421-80.3811-41.77487-10.5684-13.37514-20.594-31.00186-28.1561-47.91205-8.6175-19.27023-14.6368-38.67036-19.3018-60.31469l-6.7427-39.465737zm-58.5571 223.306488c24.8168.53747 49.0365 16.24701 69.8103 42.54202 10.7558 13.61278 21.4839 31.38126 28.5641 48.87162 14.3556 35.46323 22.7196 89.34672 27.3248 111.47749l1.9191 9.2032-101.4763 16.49238-101.4738 16.48981c-.3642-3.11761-.729-6.23439-1.093-9.35201-2.6233-22.46859-11.4923-76.28603-8.9826-114.48193 1.2379-18.83995 5.8861-39.10418 11.7818-55.40392 13.0302-36.02339 35.0387-60.54697 63.0548-65.09974z" fill="#374548" stroke-width="4.96496" transform="matrix(.26458334 0 0 .26458334 .000001 0)"/></g><path d="m1172.3747 261.62384c3.2642-6.21663 3.2833-14.91604 2.3499-20.97345-1.8935-11.6749-8.7258-21.33213-17.8945-27.56445l-17.8184-109.96875-56.5469 9.19922 17.9239 110.44726c-6.4214 8.72926-9.6534 19.81595-7.8028 31.22461 1.8878 7.04152 3.7143 14.79677 8.9966 19.16754 0 0 12.8775 15.31957 14.4331 24.73919 1.5611 9.4529-5.7329 28.16525-5.7329 28.16525-3.4804 6.28198-3.5447 15.30775-2.6011 21.45351 1.8548 11.44165 8.4695 20.93948 17.3555 27.18369l16.0725 111.48156 58.5799-9.51832-18.0782-110.76989c6.6823-8.7957 10.094-20.07821 8.209-31.71689-1.9018-7.29406-3.8622-14.78592-9.0771-19.51571 0 0-12.8316-15.47578-14.3226-24.9482-1.4881-9.45371 5.9541-28.08617 5.9541-28.08617z" fill="#674232" stroke-width="4.24901" transform="scale(.26458334)"/><path d="m298.20569 88.814013c-.17621.738188-.2196 1.519238-.0908 2.315104.37756 2.328334 2.06798 4.10845 4.19206 4.721225l4.37409 27.186188 4.87839-.79272-4.37356-27.137211c1.87933-1.241425 2.96333-3.503084 2.57968-5.871105-.12805-.787135-.40798-1.51077-.80221-2.149475 0 0-3.79321-3.021071-5.9372-2.678638-2.14978.343359-4.82045 4.406632-4.82045 4.406632z" fill="#8f583d" stroke-width="11.4815"/><path d="m305.72224 66.663852c.14817-.696648.17039-1.429544.0495-2.174875-.38523-2.375165-2.13969-4.185709-4.32435-4.762501l-4.30797-26.764043-4.87839.792556 4.32435 26.831686c-1.80895 1.256771-2.84003 3.476625-2.4638 5.795963.12092.746125.38259 1.436687.74401 2.05052 0 0 3.84687 2.981132 6.00287 2.629433 2.15499-.351535 4.85378-4.398739 4.85378-4.398739z" fill="#8f583d" stroke-width="11.4815"/><path d="m299.20189 66.159302c-1.56985.446479-3.05107 1.267902-4.3363 2.273856-1.34706 1.054344-2.57891 2.286681-3.40521 3.839321-1.13684 2.136137-1.623 4.90713-1.2221 7.362292.40359 2.47163 1.70209 4.908461 3.52403 6.635342 2.61034 2.47415 6.6047 3.740659 10.08339 3.177158 3.47646-.563141 6.8663-3.012589 8.55928-6.193951 1.17576-2.209429 1.64513-4.941112 1.25127-7.417378-.391-2.458246-1.73341-4.899399-3.46544-6.614633-1.24473-1.232664-2.83889-2.035176-4.44353-2.681817-.9005-.362887-1.87234-.570858-2.84041-.644529-1.23456-.09395-2.51408-.07437-3.70498.264339z" fill="#674232" stroke-width="1.12421"/><path d="m300.86846 71.062591c-3.71078.60325-6.19125 4.04151-5.58933 7.755467.60193 3.71422 4.03622 6.192308 7.74701 5.589323 3.71078-.602721 6.19125-4.041246 5.58932-7.754938-.52652-3.250142-3.22316-5.551488-6.37487-5.672667z" fill="#8f583d" stroke-width="11.4815"/><path d="m1361.9511 284.86685c-3.0194 6.54504-3.3028 15.12367-2.332 21.40073 1.8798 11.59698 8.6326 21.21562 17.7227 27.46094l18.1152 111.12299 57.4331-9.33199-19.0542-111.22655c6.4836-8.73323 9.7757-19.84702 7.9141-31.33213-1.3769-6.94625-4.2766-14.90154-8.9687-19.43644 0 0-12.9078-15.3262-14.4207-24.75539-1.5156-9.4465 5.9634-28.07561 5.9634-28.07561 3.1246-6.42957 3.3035-15.06594 2.3403-21.29263-1.8643-11.50406-8.5384-21.03987-17.4942-27.27734l-17.3848-107.1543-17.9865-.00038-39.0136 6.347656 17.8066 109.873044c-6.592 8.77508-9.9409 19.98622-8.0684 31.54102l.01.008v.008c.8521 5.63464 7.344 13.8721 10.1014 17.47635 0 0 12.0758 16.85673 13.3188 26.73519 1.188 9.44123-6.0025 27.90884-6.0025 27.90884z" fill="#674232" stroke-width="4.24901" transform="scale(.26458334)"/><path d="m364.83968 77.975357c-.16033.714375-.1905 1.473729-.0661 2.240227.38285 2.361935 2.11561 4.167187 4.28307 4.754562l4.38203 27.218464 4.87839-.79375-4.3905-27.251801c1.82457-1.253067 2.87444-3.481917 2.49661-5.812102-.0622-.383117-.15987-.751351-.28929-1.102222-.12941-.35087-.29054-.684377-.47959-.998041 0 0-3.81941-3.00047-5.96957-2.654826-2.15384.346235-4.84505 4.399489-4.84505 4.399489z" fill="#8f583d" stroke-width="11.4815"/><path d="m359.01885 22.909345 4.29948 26.713525c-1.85473 1.246982-2.91941 3.494617-2.53841 5.845705.12541.770731.39687 1.478227.77787 2.108729 0 0 3.8193 3.000303 5.969 2.653774 2.15165-.346844 4.83714-4.399003 4.83714-4.399003.16405-.719666.19156-1.484312.0661-2.256896-.37915-2.33971-2.08624-4.124854-4.22487-4.729427l-4.30792-26.728962z" fill="#8f583d" stroke-width="11.4815"/><path d="m366.70703 55.191407c-1.86738.302435-3.61452 1.27991-5.14924 2.385897-1.23963.893328-2.34664 2.046614-3.14399 3.335819-1.41267 2.284085-1.90991 5.241787-1.51732 7.891565.36244 2.446274 1.62356 4.838277 3.45309 6.566335 1.24026 1.171472 2.82114 2.140591 4.47226 2.686631 1.80688.597552 3.802.852817 5.68208.557581 1.87394-.294272 3.69807-1.133451 5.22058-2.264927 1.39455-1.036387 2.54984-2.434758 3.36557-3.980309 1.16185-2.201344 1.61818-4.909055 1.22439-7.367092-.39351-2.45626-1.69599-4.941618-3.46205-6.61111-1.27275-1.203152-2.85114-2.025241-4.48847-2.559722-1.804-.588891-3.78362-.944059-5.6569-.640668z" fill="#674232" stroke-width="1.12421"/><path d="m367.52679 60.231078c-3.71052.60325-6.19125 4.04151-5.58906 7.755731.60219 3.713692 4.03675 6.192044 7.747 5.589059 3.71105-.60325 6.19178-4.041511 5.58986-7.755732-.52705-3.249612-3.22316-5.550958-6.37488-5.671608z" fill="#8f583d" stroke-width="11.4815"/><path d="m298.94922 140.16992 91.9082-14.93164-2.50781-15.47265-91.88867 14.93164z" fill="#673632" stroke-width="1.12421"/><path d="m301.91859 128.63487.97552 6.06875 82.50052-13.40274-.98411-6.06967z" fill="url(#a)" stroke-width="10.7081"/><path d="m371.36523 5.0253906-91.88476 14.9277344.7539 4.695312 1.73047 10.779297 91.90821-14.93164z" fill="#673632" stroke-width="1.12421"/><path d="m284.93578 23.892405.97472 6.068748 82.50053-13.402733-.98385-6.069013z" fill="url(#a)" stroke-width="10.7081"/></g><g id="g" stroke-width="1.31363" transform="matrix(.76124183 0 0 .76124183 -330.80127 13.904021)"><path d="m326.84517 73.664757c-4.52231 3.342113-8.03632 8.699206-10.38799 15.200622-1.6388 4.530834-2.90952 10.133666-3.2539 15.353981-.67998 10.30703 1.67368 24.79283 2.38628 30.8963l.57825 4.73064 29.30572-4.76172 29.3057-4.76173c-.33798-1.55352-.67593-3.10705-1.01391-4.66058-1.30606-6.00349-3.56393-20.49549-7.42127-30.072916-1.94955-4.840552-4.84293-9.77492-7.83053-13.556115-4.29252-5.433377-9.2388-9.418931-14.60272-11.172963 0 0-5.85814-.28598-8.73046.185934-2.87374.472149-8.33517 2.618547-8.33517 2.618547z" fill="#6f8a91" stroke-width="1.31363"/><path d="m296.85293 19.821391 2.31124 12.812096c2.53648 11.7685 7.14627 22.42638 13.01576 29.85469 4.28741 5.426718 9.31674 9.423887 14.66524 11.17658 0 0 5.85441.253801 8.72525-.217877 2.87226-.471911 8.34038-2.586604 8.34038-2.586604 4.49313-3.357864 7.98219-8.722905 10.32547-15.202173 3.181-8.794578 4.3054-20.677317 3.07062-32.470629l-1.25653-12.983822z" fill="#6f8a91" stroke-width="1.31363"/><path d="m335.76039 74.799827c-6.25211 1.016-11.55013 6.629665-14.8254 15.684501-1.47704 4.083579-2.69512 9.281016-2.97839 14.064902-.68251 11.5264 2.45163 28.7151 3.12684 34.49836l24.39141-3.96353 24.39141-3.96353c-1.18626-5.70072-3.58934-23.00249-7.85408-33.729939-1.76834-4.448057-4.54353-8.998059-7.23487-12.404305-5.22155-6.609292-11.08154-10.231438-16.65234-10.352088z" fill="#6f8a91" filter="url(#f)" stroke-width="6.25622"/><path d="m302.09456 18.970638s3.1957 17.575274 6.29534 25.90267c1.91656 5.148973 4.88249 11.316389 7.527 14.663236 5.96715 7.552796 12.76509 11.194521 19.01666 10.178521 6.25158-1.016 11.54986-6.621728 14.82461-15.676563 1.45177-4.013729 1.84278-10.811102 2.08578-16.275107.39584-8.900754-1.03082-26.708772-1.03082-26.708772z" fill="#6f8a91" filter="url(#e)" stroke-width="6.25622"/><path d="m335.76039 74.799827c-6.25211 1.016-11.55013 6.629665-14.8254 15.684501-1.47704 4.083579-2.69512 9.281016-2.97839 14.064902-.68251 11.5264 2.45163 28.7151 3.12684 34.49836l24.39141-3.96353 24.39141-3.96353c-1.18626-5.70072-3.58935-23.00249-7.85408-33.729939-1.76834-4.448057-4.54353-8.998059-7.23487-12.404305-5.22155-6.609292-11.08154-10.231438-16.65234-10.352088z" fill="#b7c4c8" filter="url(#d)" stroke-width=".280094"/><path d="m302.08871 18.971588s3.20057 17.574525 6.30119 25.90172c1.91713 5.148761 4.88249 11.316389 7.527 14.663236 5.96715 7.552796 12.76509 11.194521 19.01666 10.178521 6.25158-1.016 11.54986-6.621728 14.82461-15.676563 1.45177-4.013729 1.84278-10.811102 2.08578-16.275107.39584-8.900754-1.03082-26.708772-1.03082-26.708772z" fill="#b7c4c8" filter="url(#c)" stroke-width=".280094"/></g></svg>