<svg height="500" viewBox="0 0 132.29167 132.29167" width="500" xmlns="http://www.w3.org/2000/svg" xmlns:xlink="http://www.w3.org/1999/xlink"><linearGradient id="a" gradientUnits="userSpaceOnUse" x1="256.66367" x2="256.66367" xlink:href="#b" y1="160.81853" y2="193.34697"/><linearGradient id="b"><stop offset="0" stop-color="#928c87"/><stop offset="1" stop-color="#78706d"/></linearGradient><linearGradient id="c" gradientUnits="userSpaceOnUse" x1="165.77032" x2="154.59238" xlink:href="#b" y1="184.90193" y2="209.50607"/><linearGradient id="d" gradientUnits="userSpaceOnUse" x1="256.53638" x2="264.65991" xlink:href="#b" y1="193.31882" y2="218.50359"/><g stroke-width=".977367" transform="matrix(1.0231578 0 0 1.0231578 -1.531797 .640012)"><g stroke-width="1.05722" transform="matrix(.92445872 0 0 .92445872 -128.58899 -109.03054)"><path d="m997.8028 740.36921 50.4473 41.87695c5.6673-19.0773 6.7686-40.51574.877-65.57031-3.8494-4.61113-15.1105-25.47162-21.3829-30.1582-7.3213-4.76433-14.582-9.8244-22.6367-13.06641l-17.58204-70.01953-19.74866-48.52451-15.26111 48.91904-12.49023 54.95703c-1.68336-.0967-3.49469-.0901-5.2168-.15625l-34.14655-115.87311-31.42383 119.90039c-1.31641.19615-2.6156.37606-3.94531.58593l-31.41406-74.07812-31.9043 88.60351-10.68748-97.89453-49.83399 70.73438c-1.3265-.45082-2.63849-.88282-3.95312-1.31641l-7.36328-118.80468-56.43945 103.58984c-1.91691-.26381-3.91111-.61617-5.78711-.83399l-2.94922-56.30078-8.88088-51.25586-25.55078 44.9043-29.35742 66.24219c-14.22615 4.66847-30.53831 6.83821-44.27735 12.83984-6.02033 20.99866-9.83064 34.33855-14.35547 50.15625-3.78938 13.32061-3.63371 24.46181-2.83984 35.25 3.35815-1.09947 20.8106-14.61155 32.09766-20.37305 10.47086-5.34487 21.29691-10.48051 32.77343-13.02929 13.52441-3.00359 25.33378-3.46561 41.49024-2.4375 30.11433 1.91735 68.10551 10.98532 112.27734 29.41797 12.82996 5.67197 25.65905 11.34591 38.48828 17.01953 13.3132-2.91122 21.14301-3.41565 50.68101-9.99399 12.65357-2.81804 32.38738-7.26337 46.8673-8.42182 19.32144-1.54578 39.0514-1.52508 55.941.29964 19.88845 2.14604 35.73148 6.79008 47.48732 12.81155z" fill="#6b6161" transform="scale(.26458334)"/><g fill="url(#a)"><path d="m243.74936 178.94316-5.18054-17.57971-4.78234 18.24672c-2.47174.29634-5.06069.69718-7.75652 1.20386l-5.03106-11.86392-4.34498 12.10257-5.3244 11.25505 9.03597-1.97611c12.49468-2.79664 23.09283-3.4835 31.58331-2.56646 6.05896.65352 11.08816 2.10027 14.9733 4.24657l6.74317 7.53341-.85167-9.71846s-2.77839-3.74314-4.61957-5.11884c-1.86169-1.39102-6.02197-2.90641-6.28761-3.01224l-5.24274-20.87707-4.22619 18.59479c-2.62679-.32914-5.52556-.49635-8.68813-.47016z"/><path d="m148.44082 185.14993c.5241-.17159 3.66408-1.78232 5.5598-2.52248 1.61362-.63002 4.54998-1.54279 4.9353-1.62757 3.55344-.78184 7.67329-1.04089 12.30329-.74626 8.66035.55139 19.18494 3.10833 31.26105 8.14996l8.82926 3.90415-3.88366-11.87922-1.48088-13.91444-7.97454 11.31888c-2.56117-.9525-5.0337-1.78065-7.41151-2.48973l-1.12712-18.18481-8.61669 15.8152c-3.11785-.57229-6.00921-.90911-8.65611-1.03452l-.9972-19.04166-8.72118 19.6788c-2.64346.60933-5.28871 1.25376-7.84687 2.00097-1.17638.34093-3.36783 1.22043-3.57038 1.31305"/></g></g><path d="m66.961113 57.02355c-4.42389.00025-8.1793 3.75563-8.1793 8.17929l-5.72009 37.68975h18.9803l3.10019-37.65721c0-4.45796-3.75555-8.2121-8.1811-8.21183z" fill="#008000"/><path d="m66.960937 56.771484c-4.556091.000259-8.43164 3.875788-8.43164 8.431641l.05273-.697266-5.771484 38.035161v.35156c0 5.29826 4.443595 9.74219 9.742187 9.74219 5.299032 0 9.742188-4.44285 9.742188-9.74219l-.01758.38086 3.117187-37.878909v-.191406c0-4.557745-3.875722-8.431921-8.433594-8.431641zm-3.048828 34.666016-.927734 11.26367v.19141c0 .37285-.05898.43164-.431641.43164-.333977 0-.372874-.1097-.386718-.38477z" fill="#565b5d"/><path d="m70.740033 65.20343c0-2.11331-1.66472-3.77804-3.77828-3.77791-2.1138.00012-3.77731 1.66386-3.77731 3.77791l-5.71916 37.68936c0 2.8361 2.25029 5.08663 5.08687 5.08663 2.83585 0 5.08712-2.25102 5.08712-5.08712z" fill="#7a8385" stroke-width="9.30942"/><path d="m63.876953 68.765625-.103516.002c-2.671679.05135-5.051204.411593-7.15039 1.150391h-.002c-1.413463.498046-2.521428 1.029207-3.658156 2.081984-.426976.395431-.914493.900576-1.333985 1.707031s-.605469 1.911858-.605469 2.486328c0 2.795111 1.020339 3.341973 1.90625 4.261719.885912.919746 1.993776 1.700809 3.388672 2.382813 2.719646 1.329966 6.063163 2.154245 9.824219 2.412109 3.765844.258177 7.103419-.09676 9.902344-1.082031l.236328-.08203.224609-.107421c-.04827.02306.801422-.275049 1.837891-.869141.518235-.297046 1.14363-.683503 1.830078-1.451172.686448-.767668 1.450306-2.127999 1.470703-3.703125v-.03125-.0293c0-2.791285-1.020135-3.343621-1.90625-4.263672-.886115-.92005-1.993873-1.70086-3.388672-2.382812-2.720043-1.330283-6.063012-2.152717-9.824218-2.410156l-.101563-.0078z" fill="#565b5d"/><path d="m63.862983 73.42197c-2.26337.0435-4.25512.37976-5.69421.88624-.95953.33812-1.66136.75275-2.04374 1.10689-.38238.35413-.44737.56145-.44737.77767 0 .43172.71767 1.50142 2.68569 2.46364 1.96801.9624 4.87954 1.72867 8.0981 1.94934 3.21875.22067 6.11917-.15197 8.0382-.8275.77126-.36849 2.47805-.89035 2.49092-1.88422 0-.43242-.71767-1.50195-2.68568-2.46416-1.96783-.9624-4.87936-1.72832-8.0981-1.94863z" fill="#7a8385" stroke-width="9.30942"/><g stroke-width="1.05722" transform="matrix(.92445872 0 0 .92445872 -128.58899 -109.03054)"><path d="m644.43164 696.35742-8.87793-48.7117c-14.99954 21.86878-26.75371 45.03698-37.47168 69.13748l8.46289-111.10156-7.74984-44.93034-27.69156 39.31315-28.52735 99.58789-.0195.0879-.0176.0859c-4.33032 19.86471-4.3652 41.72135 1.95508 62.32813 6.589 21.48302 22.17841 41.31508 48.86524 60.50586 31.51539 22.66197 78.53652 44.92754 142.77734 66.13867l42.48242 16.63867 77.09372-10.08396c35.83772-5.01293 88.99399-19.45226 125.51367-37.19922 29.10796-14.14273 47.65226-29.73859 56.14256-48.8125 4.9692-8.99489 8.478-18.09674 10.8809-27.09571 0 0 4.1711-14.55567 4.6709-22.05316.6314-9.4734-1.4933-24.29522-2.1514-28.40191l-9.7734-89.92579-18.2668-42.27573-17.3602 41.13316-14.56053 83.61132-24.69041-45.3753-13.70802 46.03937-18.01563 78.75878-33.02342-102.30955-32.22656 121.50976c-1.60346.35981-3.24437.70706-4.87305 1.05859l-36.71093-73.78124-26.6875 89.72656-14.53711 15.60547-12.32422-24.5586-7.84375-82.3457-50.76953 60.66992c-1.66186-.66758-3.32361-1.33359-4.95508-2.00586l-4.94531-131.10351-56.49219 100.94921z" fill="#6b6161" transform="scale(.26458334)"/><path d="m159.77297 213.79538c7.72397 5.55413 19.85697 11.36491 36.64346 16.89629l10.34363 4.05105-6.62914-13.55833-1.07686-11.30565-8.34495 9.97215c-2.58339-.97525-5.03953-1.97379-7.38082-2.98979l-.78053-20.68433-8.88206 16.03772c-2.39923-1.28323-4.62915-2.58578-6.69237-3.90261l-1.22423-23.82308-7.65492 17.213-5.14614-5.25462 2.78423-36.55534c-2.10976 8.67824-5.61775 17.89909-7.5327 26.28488-.98612 4.5237-.96707 9.56693.4171 14.07993 1.38417 4.51299 4.61446 8.83443 11.1563 13.53873z" fill="url(#c)"/><path d="m267.21446 206.83871c-1.73037 1.47691-3.7166 2.91465-5.96555 4.29948l-4.61169-18.26525-5.26256 23.26746c-2.25161.94324-4.66355 1.84468-7.23795 2.69822l-5.21864-16.29198-5.09958 19.22833c-2.47306.6006-5.05539 1.16523-7.75917 1.6854l-5.9809-12.02003-3.93436 13.22785-9.38399 10.07454 9.52793-1.2401c18.63089-2.60615 32.32573-6.39763 41.24668-10.73283 7.248-3.5216 11.16674-7.23 12.66084-10.73732 2.77072-4.91596 3.64861-9.88166 3.45229-14.39016l.0167.014-.027-.24923c-.0566-1.09168-.17569-2.1553-.34608-3.18426l-2.59556-23.8813-3.77375 21.6702z" fill="url(#d)"/></g><path d="m62.551873 93.40245c-5.16514 0-9.49015 4.32545-9.49015 9.49014 0 5.16499 4.32483 9.49015 9.49015 9.49015 5.16569 0 9.49015-4.32415 9.49015-9.49015 0-5.16549-4.32434-9.49014-9.49015-9.49014z" fill="#008000"/><path d="m62.552734 93.150391c-5.298378 0-9.742187 4.444297-9.742187 9.742189 0 5.29826 4.443595 9.74219 9.742187 9.74219 5.299032 0 9.742188-4.44285 9.742188-9.74219 0-5.298803-4.443075-9.742189-9.742188-9.742189zm0 9.308589c.373802 0 .431641.0602.431641.4336 0 .37285-.05898.43164-.431641.43164-.374562 0-.433593-.0577-.433593-.43164 0-.37673.05808-.4336.433593-.4336z" fill="#565b5d"/><path d="m57.465283 102.89279c0 2.8361 2.25029 5.08663 5.08687 5.08663 2.83585 0 5.08712-2.25102 5.08712-5.08712 0-2.83609-2.25078-5.08711-5.08724-5.08711-2.83695 0-5.08675 2.25029-5.08675 5.0876z" fill="#7a8385" stroke-width="9.30942"/></g></svg>