<svg height="500" viewBox="0 0 132.29167 132.29167" width="500" xmlns="http://www.w3.org/2000/svg" xmlns:xlink="http://www.w3.org/1999/xlink"><linearGradient id="a" gradientUnits="userSpaceOnUse" spreadMethod="repeat" x1="132.16029618215" x2="162.3381627251" y1="89.56621770314" y2="111.1558679474"><stop offset="0" stop-color="#2e2442"/><stop offset=".125" stop-color="#342a4b"/><stop offset=".25" stop-color="#322848"/><stop offset=".375" stop-color="#322947" stop-opacity=".95"/><stop offset=".5" stop-color="#322a46" stop-opacity=".98"/><stop offset=".75" stop-color="#2e2442" stop-opacity=".97"/><stop offset=".90573049" stop-color="#34284e"/><stop offset="1" stop-color="#2e2442"/></linearGradient><filter id="b" color-interpolation-filters="sRGB" height="1.029829" width="1.014352" x="-.007176" y="-.014914"><feGaussianBlur stdDeviation=".19431528"/></filter><filter id="c" color-interpolation-filters="sRGB" height="1.230707" width="1.086599" x="-.043299" y="-.115354"><feGaussianBlur stdDeviation=".15047775"/></filter><filter id="d" color-interpolation-filters="sRGB" height="1.248466" width="1.093328" x="-.046664" y="-.124233"><feGaussianBlur stdDeviation=".15047775"/></filter><filter id="e" color-interpolation-filters="sRGB" height="1.143187" width="1.055768" x="-.027884" y="-.071593"><feGaussianBlur stdDeviation=".15047775"/></filter><linearGradient id="f" gradientTransform="matrix(391.584 0 0 -391.584 4037.17 7594.37)" gradientUnits="userSpaceOnUse" spreadMethod="pad" x1="0" x2="1" y1="0" y2="0"><stop offset="0" stop-color="#68222b"/><stop offset=".511236" stop-color="#fbc070"/><stop offset="1" stop-color="#681f2d"/></linearGradient><linearGradient id="g" gradientTransform="matrix(.60976739 .22072777 -.22072283 .60978103 226.5719 -158.55188)" gradientUnits="userSpaceOnUse" spreadMethod="reflect" x1="-169.24855" x2="-135.24898" xlink:href="#f" y1="439.84262" y2="498.32175"/><linearGradient id="h" gradientTransform="matrix(.60976739 .22072777 -.22072283 .60978103 226.5719 -158.55188)" gradientUnits="userSpaceOnUse" spreadMethod="reflect" x1="-222.28368" x2="-135.24898" xlink:href="#f" y1="498.30807" y2="498.32175"/><g><g fill="url(#a)"><path d="m94.112189 81.042151c-5.818519 0-10.04198 1.333976-11.184458 3.704149-11.266976-.337128-20.615675 3.601666-18.1925 6.300353.315824.35156.0405.75112-.707986.78807-18.73853.92065-22.218137 9.355447-4.176395 11.968207.763535.11094.91592.66538.552224 1.02408-4.381926 4.32111 5.177015 7.48434 19.372468 7.48434 14.500497 0 22.349218-2.49612 19.849047-6.54037-.55183-.89245-.27148-1.52519.943961-1.65195 19.18247-1.99501 14.31467-12.819137-2.204171-13.860457-3.36594-.21172-2.56761-1.810684-1.34018-1.968055 13.770811-1.763614 5.390081-7.248367-2.91188-7.248367z" filter="url(#b)" opacity=".95" transform="matrix(.71761943 0 0 .71761943 47.911267 42.11177)"/><path d="m60.50714 108.04594c-6.989429.0002-10.137382 5.04482 0 5.04441 6.989432-.0002 10.137383-5.04482 0-5.04441z" filter="url(#e)" opacity=".9" transform="matrix(.94662786 0 0 .94662786 33.907254 21.563182)"/><path d="m95.709352 103.92476c-3.642748.067-5.454657 2.49675.146798 2.88492 4.119548.28543 6.57877-2.45125.603772-2.86569-.257415-.0177-.507878-.0236-.750671-.019z" filter="url(#d)" opacity=".9" transform="matrix(.94662786 0 0 .94662786 33.907254 21.563182)"/><path d="m72.164574 81.360883c-4.439316 0-7.090331 3.130982-.651713 3.130778 4.439417-.000204 7.090636-3.130982.651815-3.130778z" filter="url(#c)" opacity=".9" transform="matrix(.94662786 0 0 .94662786 33.907254 21.563182)"/></g><path d="m77.317121 71.529358s-5.278806-5.353534-6.452271-8.794943c-.750759-2.201741 3.328459-3.187939-.169538-6.976603-1.916976-2.064828-6.94813-7.272324-8.808593-9.039062-2.163412-2.054424-4.170158-3.874368-6.544922-6.011719-10.146734-9.132405-23.787882-20.752239-37.923828-32.8691404-2.179393-1.8682843-4.639508-3.4647518-7.382813-3.7109375-2.1687421-.1946241-4.7260855.3078057-6.2656247 1.8476563-1.5389675 1.5392788-2.0404743 4.0957546-1.8457032 6.2636716.2464632 2.74328 1.8427424 5.203234 3.7109375 7.382813 12.1160084 14.135719 21.7000404 25.410198 32.8554684 37.910156 2.027894 2.272313 4.087241 4.510726 6.171875 6.71875 1.625339 1.721543 6.510976 6.515574 8.457032 8.335937 4.51662 3.854668 5.069466-.331756 7.389131.513866 3.418993 1.246377 8.823286 6.429336 8.823286 6.429336z" fill="#0d1306" stroke-width="8.46669"/><path d="m6.7632488 8.9669621c-.6615012.661612-.759704 1.8046919-.6406107 2.7326629.2479088 1.931699 1.0146645 3.169924 2.7267136 5.167331 12.1220043 14.142714 21.6835383 25.391382 32.7989003 37.846445 1.998551 2.239433 4.032225 4.447827 6.092779 6.630346 1.667167 1.765847 3.29897 3.570607 5.072505 5.229592 2.456182 2.297541 5.095954 4.391551 7.694736 6.526464 1.655455 1.359965 3.287024 2.755339 5.029865 4.001349 1.221287.873135 3.793421 2.427987 3.793421 2.427987s3.19982-2.263155 4.572787-3.647591c1.298164-1.309008 3.412776-4.35219 3.412776-4.35219s-1.564954-2.519601-2.431312-3.721824c-1.261535-1.7506-2.653992-3.403546-4.020959-5.073119-2.067263-2.524895-4.100884-5.083903-6.321126-7.475387-1.770842-1.907423-3.68465-3.677708-5.571976-5.469955-2.121109-2.014253-4.09506-3.805374-6.462723-5.936333-10.071262-9.064478-23.703382-20.677895-37.845598-32.80017-1.997186-1.7120878-3.235525-2.4790095-5.1672189-2.7267706-.9281175-.1190413-2.0713603-.020547-2.7329593.6411627z" fill="#273a13" stroke-width="8.46669"/><path d="m61.117024 79.009311c1.96342 1.540617 4.311501 3.32058 5.950349 4.544229l8.875801 13.511339 2.725409-.482141c1.800726-.318943 6.679411 1.108244 10.851535 4.964552l2.988966 2.76211 3.601329-3.60146-.202024-2.592709 2.592578.201896 3.605983-3.604559-2.76366-2.988966c-3.857468-4.17341-5.285775-9.049942-4.967138-10.848433l.481626-2.723865-13.537123-8.835253c-1.51586-1.995518-2.925863-3.891006-4.425237-5.80838-1.280666-1.637694-2.605735-3.240183-3.903639-4.864249-.767449-.960307-2.296467-2.88561-2.296467-2.88561s-1.623923 2.501559-2.50982 3.699967c-1.543587 2.088105-3.031136 4.249001-4.880805 6.071518-1.856803 1.829547-3.995101 3.367086-6.166721 4.808969-1.278696.849012-4.018825 2.247671-4.018825 2.247671s2.097716 1.671364 3.143723 2.510607c1.621007 1.300583 3.219146 2.629837 4.85416 3.912767z" fill="#663833" stroke-width="1.00001"/><path d="m67.516195 78.603014 1.815363.926125 8.598034 12.884576c3.990503-.706791 9.611965 1.540712 14.463358 6.024868l1.316701-1.316545-10.883791-10.883948c-1.006267.500135-2.259401.334061-3.097956-.50433-1.050316-1.05061-1.050316-2.754387 0-3.804815 1.050587-1.050428 2.754329-1.050428 3.804728 0 .840654.84067 1.006634 2.098849.501585 3.106507l10.880874 10.881119 1.319618-1.319649c-4.484147-4.851416-6.734611-10.470176-6.027651-14.46049l-12.889937-8.607074-.954839-1.775276-1.476383-1.946822c-.303687.532601-.709231 1.090191-1.188293 1.704324-.824421 1.056721-1.869354 2.217409-2.972471 3.323012-1.10302 1.105786-2.262131 2.154299-3.322937 2.984027-.673212.52649-1.282039.969078-1.864061 1.282529z" fill="url(#g)" stroke-width="2.64583"/><path d="m74.721965 65.423516-.985565 1.728063c-.249417.437377-.619302.953042-1.082213 1.546471-.776307.99505-1.849815 2.183269-2.865881 3.201311-1.018481 1.020458-2.202928 2.096819-3.201239 2.877666-.65173.50969-1.213373.910285-1.676772 1.159853l-1.795388.966544 1.615259 1.246257c.233049.179531 1.218989 1.032279 2.082422 1.574295.405125.254318.812926.433558 1.155429.590178s.663075.3426.571128.273854l.65167.487666.729288-.361722c.472434-.234831 1.107548-.571182 1.685559-.994369 1.218772-.892322 2.254303-1.921375 3.23492-2.904026.962119-.964116 2.030783-1.982593 2.912743-3.264284.392558-.57047.57376-1.086171.745401-1.427849l.367568-.730766-.489116-.656079c.04754.06357-.139108-.249972-.303139-.58432-.164031-.334347-.35183-.728437-.598953-1.11299-.530879-.82611-1.35533-1.797434-1.54058-2.038529z" fill="#663833"/><path d="m73.697606 69.511584c-.824421 1.056721-1.922619 2.271122-2.972471 3.323012-1.051659 1.053699-2.262131 2.154299-3.322937 2.984027-.673212.52649-1.282039.969078-1.864061 1.282529.335147.258184 1.276893 1.061708 1.978058 1.501862.575349.361173 1.491934.684312 1.815363.926125.434096-.215776 1.026593-.536566 1.492159-.877426 1.114258-.815803 2.105132-1.792648 3.080628-2.770165.973696-.97572 1.977286-1.945126 2.758699-3.080698.270186-.39264.439766-.844864.654077-1.271492-.23802-.318375-.591585-1.210009-.954839-1.775276-.440287-.685139-1.222783-1.616568-1.476428-1.946685-.303642.532464-.709186 1.090054-1.188248 1.704187z" fill="url(#h)" stroke-width="2.64583"/><path d="m69.530746 64.91207c-1.008092 1.260395-2.088714 2.465734-3.228913 3.608009-1.142959 1.14504-2.349447 2.23022-3.610848 3.243304-.650531.522468-1.437717 1.123157-2.035057 1.457401.366885.295484 1.140689.919997 1.712663 1.377964.593784.475429 1.429102 1.142948 1.784726 1.422063.346087-.09284 1.498976-.98683 2.200093-1.544909 1.110477-.883925 2.163577-1.842419 3.166179-2.847045 1.000809-1.00283 1.984523-2.033548 2.835576-3.166242.512717-.682392 1.356642-2.171718 1.356642-2.171718s-.902537-1.132751-1.354858-1.698285c-.457838-.572432-1.375642-1.71559-1.375642-1.71559s-.930238 1.384499-1.450561 2.035048z" fill="url(#h)" stroke-width="8.46667"/></g></svg>