<svg height="500" viewBox="0 0 132.29167 132.29167" width="500" xmlns="http://www.w3.org/2000/svg" xmlns:xlink="http://www.w3.org/1999/xlink"><linearGradient id="a" gradientTransform="matrix(.11738552 -.22728798 .22728798 .11738552 -272.93955 21.383593)" gradientUnits="userSpaceOnUse" spreadMethod="reflect" x1="929.46143" x2="740.35199" y1="1611.5664" y2="2095.0156"><stop offset="0" stop-color="#93a0aa"/><stop offset=".25" stop-color="#9da9b2"/><stop offset=".375" stop-color="#7f8f9a"/><stop offset=".5" stop-color="#93a0aa"/><stop offset=".75" stop-color="#7c8c98"/><stop offset="1" stop-color="#93a0aa"/></linearGradient><linearGradient id="b" gradientUnits="userSpaceOnUse" x1="252.59357" x2="252.58954" y1="14.037109" y2="105.26836"><stop offset="0" stop-color="#4a4c4f"/><stop offset="1"/></linearGradient><filter id="c" color-interpolation-filters="sRGB" height="1.418372" width="1.137647" x="-.068824" y="-.209186"><feGaussianBlur stdDeviation="1.8815414"/></filter><g><ellipse cx="66.74826" cy="100.66056" fill-rule="evenodd" filter="url(#c)" opacity=".5" rx="32.806362" ry="10.793494" transform="matrix(1.2429058 0 0 1.3238886 -16.393148 -29.015221)"/><g stroke-width="1.27191" transform="matrix(.78621473 0 0 .78621473 -132.44402 13.999089)"><g stroke-width="1.27191"><g fill="#4a4c4f" stroke-width="1.27191"><path d="m299.05859 84.384538-4.66992 4.997554c-3.30273 3.11944-6.74336 5.640206-10.88086 7.963606l-4.97439 2.50196 3.35525 3.675132c3.17032 4.71333 6.23324 8.87465 9.54102 11.16666 3.93765 2.72785 8.05132 3.70824 11.38281 1.66993 3.5041-2.14398 4.42676-6.05771 4.04244-10.71516-.38433-4.65745-2.71799-11.099515-5.47923-16.644287z"/><path d="m240.08984 104.07571.35938 4.90221c.38674 6.05171 1.43726 11.93288 3.16601 15.67052 2.06575 4.46613 4.80522 7.41883 8.91797 7.5 3.95804.0782 6.93776-2.83464 8.99805-7.20508 1.77818-3.7725 2.84717-9.72572 3.20898-15.96843l.32422-4.89591c-4.12873.4642-8.7458 1.18289-12.47851 1.19051-4.44465.0565-8.05219-.5343-12.4961-1.19382z"/><path d="m205.83789 84.038923-2.86523 6.394671c-2.85042 5.718925-4.31898 10.818276-4.66016 14.955076-.40525 4.91103.51701 8.82654 3.93555 10.917s7.53134 1.11173 11.46879-1.61622c2.97262-2.05994 6.60931-5.43091 9.92382-10.35937l2.87891-4.535958-4.49609-2.248391c-4.08881-2.298584-8.28615-5.373685-11.53721-8.448075z"/></g><path d="m247.93856 122.64831c1.65946 3.58775 3.50837 4.71487 4.68841 4.73816 1.17925.0233 2.94746-.97446 4.59687-4.47331 1.35811-2.88131 2.42491-7.46291 2.76146-13.26972-2.42755.25532-4.89744.38781-7.3996.38781-2.49687 0-4.96094-.13156-7.38386-.38623.3597 5.62862 1.4011 10.11563 2.73672 13.00329z" fill="#7c8c98" stroke-width="12.115"/><path d="m285.84012 101.47347c2.96598 4.40954 5.85523 7.60701 8.3013 9.30193 3.14325 2.17752 5.15197 2.15318 6.18464 1.52136 1.03266-.63183 2.0865-2.57175 1.76106-6.51537-.2704-3.27554-1.80944-7.698847-4.4275-12.956118-3.58034 3.38164-7.37873 6.154495-11.8195 8.648198z" fill="#7c8c98" stroke-width="12.115"/><path d="m203.05887 105.78086c-.32544 3.94388.72814 5.88381 1.7608 6.51563 1.0332.63183 3.04192.65617 6.1849-1.52135 2.4474-1.69598 5.71735-4.69107 8.68466-9.10326-4.43918-2.49555-8.87648-5.729615-12.45496-9.113636-2.62388 5.264415-3.90499 9.943896-4.1754 13.222616z" fill="#7c8c98" stroke-width="12.115"/></g><path d="m241.08733-.3484156c-6.73494.34885003-19.00458 2.778304-28.61663 6.9577906-5.36876 2.3342661-10.00851 5.191488-13.57812 8.861328-3.6035 3.70468-6.18555 8.52187-6.18555 13.953125 0 2.695395.79441 5.182256 1.875 7.513672-2.40352 5.819793-3.78516 12.093123-3.78516 18.630859 0 30.24107 27.85377 54.462891 61.78907 54.462891 33.93554 0 61.79687-24.220897 61.79687-54.462891 0-6.540449-1.3886-12.813745-3.79297-18.630859 1.08035-2.331257 1.875-4.818044 1.875-7.513672 0-5.431246-2.58228-10.248366-6.18554-13.953125-3.57278-3.672444-8.22048-6.5277702-13.58789-8.861328-10.74976-4.6740558-24.7231-7.30664063-40.10547-7.30664062zm11.49861 9.1765406c14.27473 0 27.16011 2.539767 36.30859 6.517578 4.58144 1.991846 8.17313 4.315618 10.55664 6.765625 2.35197 2.418223 3.48828 4.885631 3.48828 7.3125 0 1.615627-.49536 3.208473-1.54687 4.875l-1.38867 2.201172 1.10156 2.355469c2.4266 5.194812 3.75195 10.819178 3.75195 16.71289 0 24.345731-22.82561 44.937501-52.27148 44.937501-29.44558 0-52.26367-20.590847-52.26367-44.937501 0-5.896559 1.31977-11.520851 3.74414-16.71289l1.10156-2.357422-1.38867-2.199219c-1.05118-1.665302-1.54688-3.259059-1.54688-4.875 0-2.426861 1.13655-4.894728 3.48828-7.3125 2.38563-2.452611 5.96731-4.774487 10.54688-6.765625 9.14722-3.97737 22.04356-6.517578 36.31836-6.517578z" fill="#4a4c4f" stroke-width="1.27191"/><path d="m252.58517 4.065498c-14.82857 0-28.26703 2.586302-38.21589 6.91224-4.97417 2.162704-9.08579 4.751917-12.06341 7.813146s-4.83659 6.704013-4.83659 10.633075c0 2.628901.83873 5.129742 2.28204 7.416271-2.70352 5.789878-4.19206 12.11633-4.19206 18.727738 0 27.293889 25.3357 49.700392 57.02617 49.700392 31.69074 0 57.03438-22.406503 57.03438-49.700392 0-6.611937-1.49569-12.937331-4.20026-18.727208 1.44304-2.287059 2.28203-4.7879 2.28203-7.416801 0-3.929062-1.85896-7.571581-4.83658-10.633075-2.97815-3.061229-7.09745-5.650442-12.07188-7.813146-9.94913-4.325938-23.37938-6.912504-38.20795-6.912504z" fill="url(#a)" stroke-width="12.115"/><path d="m1162.9666 111.20866c0 14.50758-7.7174 28.36275-18.7889 39.7446-11.2277 11.53989-26.5958 21.22806-45.3769 29.39454-37.5271 16.31701-88.1584 26.05078-144.14455 26.05078-55.9892 0-106.61838-9.74207-144.14648-26.0586-18.77382-8.16158-34.17148-17.83023-45.41407-29.38672-11.08664-11.39619-18.75513-25.27684-18.75513-39.7446l-17.99906-.0005c0 13.34206 4.87844 26.63786 15.4788 40.10825 10.60154 13.47188 26.83046 26.4933 47.36524 37.52929 41.0731 22.0764 99.2006 36.24024 163.46875 36.24024 64.2645 0 122.3961-14.16187 163.4668-36.23828 20.536-11.03894 36.7266-24.06086 47.3281-37.53125 10.6004-13.47187 15.5202-26.76619 15.5202-40.10824z" fill="#4a4c4f" transform="scale(.26458334)"/><path d="m250.52618 13.582296c-21.31748 0-38.62917 6.881284-38.62917 15.304559s17.31169 15.295563 38.62917 15.296357c10.59392 0 20.21523-1.74969 27.19441-4.482042-5.63986.883708-11.92319 1.54649-18.6944 1.54649-22.77163 0-41.25834-5.729817-41.25834-12.67513 0-6.945312 18.48591-12.510029 41.25807-12.510029 5.40544 0 10.56376.191823 15.29636.768879-6.5659-2.03835-14.80529-3.249084-23.79663-3.249084z" fill="url(#a)" stroke="#4a4c4f" stroke-width="12.115"/><path d="m252.58594 3.9824219c-14.84448.0004136-28.26908 2.5786283-38.24414 6.9160161-4.99037 2.169797-9.09029 4.742933-12.09961 7.835937-2.96121 3.044552-4.85547 6.78188-4.85547 10.689453 0 3.90767 1.88972 7.650662 4.85547 10.699219 3.00928 3.093307 7.10933 5.666501 12.09961 7.835937 9.97507 4.336979 23.39888 6.916016 38.24414 6.916016 14.84444 0 28.26933-2.578901 38.24414-6.916016 4.99232-2.170775 9.08472-4.74725 12.08984-7.835937h.002c2.96152-3.044536 4.86133-6.780428 4.86133-10.699219 0-3.918696-1.90423-7.648792-4.86133-10.689453h-.002c-3.00546-3.089376-7.09752-5.665287-12.08984-7.835937-9.97499-4.3373539-23.39943-6.9164298-38.24414-6.9160161zm0 10.0546871c13.64956-.00038 25.99864 2.500943 34.23437 6.082032 4.11287 1.788267 7.19728 3.882735 8.89258 5.625 1.74296 1.792212 2.01758 2.813662 2.01758 3.679687 0 .866458-.27708 1.902174-2.01563 3.689453-1.69545 1.742601-4.78148 3.836556-8.89453 5.625-8.23538 3.5808-20.5848 6.082031-34.23437 6.082031-13.65033 0-26.00016-2.501097-34.23633-6.082031-4.11455-1.788727-7.2091-3.88649-8.90039-5.625-1.73431-1.782728-2.00781-2.811873-2.00781-3.689453 0-.877148.26896-1.891894 2.00781-3.679687 1.69125-1.738281 4.78486-3.835578 8.90039-5.625 8.23566-3.581057 20.58654-6.081651 34.23633-6.082032z" fill="#7c8c98" stroke-width="1.27191"/><path d="m288.82462 15.508992c4.55295 1.979613 8.14255 4.314296 10.49284 6.730207 2.35003 2.416439 3.43959 4.792927 3.43959 7.18529 0 2.392627-1.08956 4.777581-3.43959 7.193491-2.35029 2.415646-5.93989 4.750859-10.49258 6.730471-9.1051 3.958961-21.99216 6.498696-36.23918 6.498696-14.24781 0-27.13435-2.54-36.23998-6.49896-4.55242-1.979084-8.15023-4.314296-10.50052-6.730207-2.35003-2.415645-3.43165-4.800864-3.43165-7.193491 0-2.392363 1.08162-4.768851 3.43165-7.185026 2.35029-2.415645 5.94783-4.750329 10.50078-6.729941 9.10537-3.959226 21.99217-6.498961 36.23932-6.499358s27.13395 2.539603 36.23932 6.498828z" fill="url(#b)" stroke-width="12.7881"/></g></g></svg>