<svg height="500" viewBox="0 0 500 500" width="500" xmlns="http://www.w3.org/2000/svg" xmlns:xlink="http://www.w3.org/1999/xlink"><filter id="a" color-interpolation-filters="sRGB" height="1.329149" width="1.097133" x="-.048566" y="-.164574"><feGaussianBlur stdDeviation="1.9684115"/></filter><radialGradient id="b" cx="494.25363" cy="332.55859" gradientTransform="matrix(-.26311448 .00021486 -.00015788 -.19682646 197.19156 83.662975)" gradientUnits="userSpaceOnUse" r="43.257179"><stop offset="0" stop-color="#deaa87"/><stop offset="1" stop-color="#d38d5f"/></radialGradient><linearGradient id="c" gradientTransform="matrix(.7055385 0 0 .70688605 132.98978 -45.797316)" gradientUnits="userSpaceOnUse" x1="-41.511055" x2="-67.161453" xlink:href="#d" y1="119.64599" y2="125.76756"/><linearGradient id="d"><stop offset="0" stop-color="#956c50"/><stop offset=".09237092" stop-color="#b78764"/><stop offset=".16595836" stop-color="#b78764"/><stop offset=".24554512" stop-color="#bf9576"/><stop offset=".34023133" stop-color="#b78764"/><stop offset=".70287007" stop-color="#b78764"/><stop offset="1" stop-color="#956c50"/></linearGradient><linearGradient id="e" gradientUnits="userSpaceOnUse" x1="85.247139" x2="366.19827" xlink:href="#d" y1="276.63998" y2="279.47495"/><g><path d="m250 38.477812c-12.99663 0-24.65811 2.572512-33.23743 6.882615-8.50095 4.220449-13.55884 8.452992-13.55884 16.356119v24.077179 37.884795l-9.8789 8.8654c-24.30766 9.37346-44.97905 20.12309-60.79921 36.06233-16.17357 16.29532-26.82259 37.91559-31.0335 66.79731l-.07.47727-1.34151 42.73856.002.17874c.75877 71.56538 5.61219 122.77501 27.49911 157.71972 21.88688 34.9447 60.96576 50.50936 122.41842 50.50936s100.53339-15.56466 122.42028-50.50936c21.88689-34.94471 26.74032-86.15434 27.49914-157.71972l.002-.17874-1.3415-42.73856-.07-.47727c-8.38467-57.50762-48.60026-89.63946-92.09089-103.09183l-9.62093-8.63321v-37.884795-24.077179c0-7.903127-5.05788-12.13567-13.55885-16.356119-8.5793-4.310103-20.24263-6.882616-33.23926-6.882615zm0 16.982647c10.58433 0 20.42885 2.467157 25.62324 5.078579l.0203.0092.0203.01106c3.03594 1.505664 3.9137 2.934497 4.15167 3.257956v21.976505 45.463971l18.02012 16.16816 1.83535.5436c39.83487 11.7897 74.32729 38.11837 81.96856 89.52377l1.29359 41.26806c-.75727 70.72473-6.51968 119.38741-24.90639 148.74374-18.3997 29.37702-49.28006 42.53954-108.02669 42.53954s-89.62513-13.16252-108.02482-42.53954c-18.38676-29.35637-24.151-78.01905-24.90828-148.74378l1.29544-41.2828c3.83996-25.90758 12.69101-43.27995 26.21659-56.90735 13.59321-13.69553 32.41423-23.69502 56.3619-32.80806l1.47604-.56203 17.76949-15.94335v-45.463965-21.976461c.23796-.323459 1.1139-1.752292 4.14984-3.257956l.0221-.01106.0203-.0092c5.1944-2.611388 15.03708-5.078545 25.62141-5.078545z" fill="#634836" stroke-width="3.77953"/><g transform="matrix(3.6867403 .83233039 -.83233039 3.6867403 111.70421 48.535457)"><path d="m88.333854 82.404501c3.902149-1.583601 8.301974-6.207519 10.714972-10.619349 4.359554-7.970829 6.510934-17.600539 5.710944-26.65039-.68356-7.732727-3.58496-15.811165-8.798835-21.5625-5.028231-5.546557-12.476353-9.273575-19.865232-10.478512-5.267476-.858991-15.801306 2.583839-15.801306 2.583839l12.713415 11.039208c4.502352.985623 8.902262 1.87374 11.947359 4.919443 3.638281 3.639005 5.153683 9.180844 5.874907 14.275869.782209 5.525846-1.425336 11.076471-1.82407 16.643143-.472985 6.603291-.672154 19.849249-.672154 19.849249z" fill="#634836"/><path d="m75.0537 17.740757c-.40159 1.396023-.74592 2.841012-1.02755 4.32285 5.09261 1.114839 11.201838 3.467846 15.011989 7.579536 3.87977 4.186819 6.006993 10.145048 6.533657 15.82877.606656 6.546988-1.39964 13.651015-4.04765 19.305342.50798.773439-.271448 8.592394.286863 9.499294s2.176318-2.744549 2.847437-4.339037c3.230878-7.676124 6.054234-16.10525 5.355824-24.404267-.565516-6.719851-3.042582-13.767441-7.578251-18.757823-4.391989-4.832297-11.557349-7.729155-17.382069-9.034913z" fill="url(#c)" stroke-width="9.525"/></g><g stroke-width="1.65366" transform="matrix(2.2855381 0 0 2.2855381 96.537194 8.948062)"><path d="m52.400186 20.363774 1.907076 10.813062 2.997515 7.309434c.53304 1.249855 1.21833 2.212549 2.50618 2.645833 4.40649 1.48235 10.744741 1.460067 15.073871.09066 1.40183-.443561 1.93709-1.509697 2.44718-2.888713l2.651369-7.157216 2.028358-10.723597s1.319323-2.93745 1.233481-4.485857c-.108234-1.952299-.83162-4.024781-2.1709-5.449393-1.56588-1.6656611-3.99536-2.3314561-6.20272-2.9264381-2.53252-.68263-5.21692-.675475-7.83983-.673859-2.64533.0016-5.36111-.0327-7.90598.689361-2.11531.600184-4.41048 1.339962-5.89318 2.9636461-1.34326 1.470991-2.12571 3.569258-2.19027 5.56024-.048 1.480987 1.35785 4.232839 1.35785 4.232839z" fill="#c36e36"/><path d="m56.808976 13.715668c-.85684.974441-1.1465 2.449269-1.0648 3.744272.10003 1.585465 1.707018 4.882503 2.333495 7.387929.640141 2.560074.65864 5.265231 1.44933 7.782881.437058 1.391645 1.802306 3.987601 1.802306 3.987601 3.47978 1.170599 8.585031 1.181474 12.119141.06355 0 0 1.176327-2.688166 1.566679-4.097303.698838-2.522741.761898-5.186642 1.369343-7.732936.597217-2.503419 2.172066-5.843675 2.230796-7.391718.0492-1.297136-.1986-2.782319-1.07016-3.744272-.90373-.997453-2.44365-1.180606-3.75449-1.486141-2.2014-.513115-4.49854-.549246-6.75896-.549265-2.26041-.000018-4.56506.0048-6.75896.549151-1.2194.302548-2.63409.542753-3.46372 1.486255z" fill="url(#b)"/></g><path d="m288.30597 61.716537c0 1.736005-1.88697 5.311795-8.86872 8.774373-6.88741 3.453138-17.64309 5.495228-29.4366 5.495228-11.7935 0-22.54918-2.04209-29.43659-5.495228-6.98175-3.462578-8.86871-7.038368-8.86871-8.774373v24.077626 41.673537l-13.77482 12.35959c-48.96663 18.63374-80.00714 41.79619-88.02677 96.8011l-1.32087 42.07923c1.50957 142.3712 21.22835 199.82916 141.42776 199.82916 120.19942 0 139.91816-57.45796 141.42773-199.82916l-1.32088-42.07923c-8.01958-55.00491-45.9475-84.34716-88.02672-96.8011l-13.77481-12.35959v-41.673537z" fill="url(#e)"/><path d="m197.92053 139.82729 13.77482-12.35959c13.20872 8.11393 26.01996 11.72589 39.96914 12.83723 14.63197 1.16574 43.52889-6.65743 43.52889-6.65743s-27.77918 20.86594-44.22565 22.28382c-18.41098 1.58725-36.11171-4.73509-53.0472-16.10403z" fill="#c39c7f" filter="url(#a)" opacity=".5"/><path d="m147.99989 304.86456c.2964 1.04611.58225 2.09666.85597 3.15275-.0478-2.13245-.0626-3.6668-.0626-3.6668zm5.31366 42.26053c-.06 2.14768-.15384 4.30492-.3154 6.48111-2.11602 28.49721.80067 51.72669 6.97716 71.15135 23.9485 17.36886 50.85852 29.18863 78.41749 27.06889-35.31509-26.47637-65.45834-59.1059-82.86371-98.25437-.83918-1.88795-1.57235-4.0725-2.21554-6.44698z" fill="#c39c7f"/><path d="m127.18215 436.7695c21.98384 35.09936 61.29046 50.7305 122.81833 50.7305 61.52784 0 100.83456-15.63114 122.81832-50.7305 21.98375-35.09936 26.8138-86.38015 27.57283-158.06062l-1.38022-43.12184c-8.4416-57.8995-48.78237-90.18319-92.35408-103.69256l-9.39066-8.42683v-37.672884l-.47194-24.429545-8.86414-13.431367s-3.60689 9.599158-7.60929 12.273431c-8.49581 5.676623-20.03292 4.986608-30.25063 4.952232-10.20683-.03434-21.7472.593813-30.18445-5.150175-3.96214-2.697383-7.44673-12.301071-7.44673-12.301071l-9.23234 13.654916-.47477 24.431579v37.672884l-9.66511 8.67191c-24.29906 9.37703-45.00609 20.14416-60.87666 36.1342-16.24523 16.36754-26.94004 38.10306-31.20299 67.31328l-1.379255 43.12184c.759975 71.68047 5.590015 122.96126 27.573785 158.06062zm93.47636-356.565591c8.13233 3.256413 18.17879 4.745312 29.34186 4.745312 11.16308 0 21.20955-1.488899 29.34188-4.745312v51.263051c6.73154 5.65168 13.46299 11.30334 20.19453 16.95501 39.70865 11.75233 74.00973 37.91338 81.63135 89.11468l1.2936 41.2312c-.75762 70.69732-6.54558 119.28558-24.83457 148.48576-18.30278 29.22236-48.95532 42.32026-107.62679 42.32026-58.67146 0-89.32392-13.0979-107.62678-42.32026-18.28899-29.20019-24.07696-77.78844-24.83457-148.48576l1.29549-41.24779c3.83081-25.81427 12.62934-43.06775 26.07837-56.61803 13.52158-13.62332 32.27816-23.59579 56.19605-32.6975 7.17177-4.32137 13.25958-11.09373 19.54958-16.73757z" fill="#634836" stroke-width="3.77953"/></g></svg>