<svg height="500" viewBox="0 0 500 500" width="500" xmlns="http://www.w3.org/2000/svg" xmlns:xlink="http://www.w3.org/1999/xlink"><filter id="a" color-interpolation-filters="sRGB" height="1.525132" width="1.699765" x="-.349882" y="-.262566"><feGaussianBlur stdDeviation="26.843146"/></filter><linearGradient id="b" gradientTransform="matrix(1.676832 -3.2467697 3.2467697 1.676832 -456.21877 1516.5568)" gradientUnits="userSpaceOnUse" spreadMethod="reflect" x1="445.36148" x2="356.64389" y1="-16.97254" y2="46.86293"><stop offset="0" stop-color="#aa9b93"/><stop offset=".25" stop-color="#b2a59d"/><stop offset=".375" stop-color="#9a8a7f"/><stop offset=".5" stop-color="#aa9f93"/><stop offset=".75" stop-color="#98897c"/><stop offset="1" stop-color="#aa9b93"/></linearGradient><text style="font-size:223.974;font-family:Julian Daniel;text-anchor:middle;fill:#a51d2d;stroke:#000;stroke-width:9.99999" transform="matrix(.70710678 .70710678 -.70710678 .70710678 0 0)" x="-399.61484" y="1040.4851"><tspan style="font-weight:bold;font-size:223.974;font-family:Action Man;fill:#a51d2d;stroke:#000;stroke-width:9.99999" x="-399.61484" y="1040.4851">TODO</tspan></text><g stroke-width="1.0842" transform="matrix(.91089065 -.14284934 .14274749 .91154058 -12.794934 57.142961)"><path d="m279.74414 126.06445c-24.10461-1.18996-45.63259 18.09168-64.14832 33.57121-16.84462 14.08245-31.77311 31.83276-40.39974 52.02281-7.43284 17.39606-10.25014 37.31821-8.32895 56.13786 2.3037 22.56662 13.34733 43.56513 23.38306 63.90828 6.55808 13.29371 10.24018 31.64433 23.841 37.53916 14.6615 6.35455 32.26779-2.97324 47.10224-8.91285 16.07157-6.43495 30.47198-16.93734 43.59327-28.23051 15.31157-13.17829 32.5496-26.67993 40.15122-45.39695 8.43609-20.77169 5.09588-44.84465 3.18755-67.18271-1.65161-19.33304-1.56253-40.86326-12.58137-56.83446-12.63425-18.31265-33.57894-35.52487-55.79996-36.62184z" fill="#ffda66" filter="url(#a)"/><path d="m311.94268 319.1093c9.7479-7.51162 18.501-14.14537 24.2364-26.27929l.031-.0664.031-.0664c8.5265-18.42848 8.227-40.13602 6.6953-61.64649-1.518-22.29516-5.6362-44.23473-10.5039-66.00391l-84.0889-27.09753c-19.0657 16.18079-30.9208 29.02083-47.1699 47.3457-13.769 16.57933-26.6677 34.01181-30.4668 53.94727l-.01.0449-.01.0449c-2.4566 13.25153.8002 23.72606 4.2949 35.50586l8.3301 22.39258c3.3849 8.95351 8.4294 14.91545 9.9082 23.74214.4641 3.08503-.6338 5.81675-2.4453 7.72656l-19.9532 20.74609 100.7852 32.59766-3.8164-28.32617c-.4759-3.12187.5925-5.82446 2.4394-7.77149 13.4108-9.77933 29.6347-18.69802 41.7129-26.83598z" fill="#6c6748"/><path d="m343.86538 112.56801c7.6565-3.52806 15.2096-9.76357 18.4922-20.011719 4.9893-15.501221-3.2087-29.183487-10.5192-36.325461s-16.1725-11.997353-25.95-15.156964c-7.3219-2.366097-14.7937-3.670087-19.7528-3.603365-4.9591.06672-7.4338.255472-13.8329 1.256177s-21.157 7.360369-26.1271 22.876895c-3.2866 10.211185-.8392 19.61855 3.3165 26.9375l-10.8737-2.680252c-3.6725-.35408-9.3018-1.697992-15.1205-2.636155-6.7683-1.183954-14.1223-1.958509-21.6816-1.474609-7.5992.486453-15.4024 2.239731-22.4102 5.804667s-11.3303 9.107783-12.7329 10.871154c-2.6489 3.329952-4.7414 6.599092-8.2517 12.206712s-8.6376 14.92096-17.15282 31.28956-21.66162 44.24647-34.13089 72.38337c-12.46927 28.13691-24.12256 56.43479-30.32595 73.71131-6.20339 17.27653-9.49006 27.36901-11.67247 36.05748l-.006.0195-.004.0215c-2.85458 11.33132-3.97444 22.14974.8308 32.11372 4.0744 8.06654 9.93402 14.44228 16.17871 19.29058l-12.15625 14.68555 223.75587 72.29687-1.3047-19.07031c7.79-.29696 16.2973-1.97453 24.3102-6.11142s12.7796-11.85072 14.4091-14.77859c6.7282-13.05955 11.1848-28.13369 14.891-41.04356v-.008-.008c6.7139-23.55272 13.7785-53.39428 20.0996-83.50586l.01-.0176v-.0195c6.2638-30.16491 11.8148-60.44659 14.453-78.68178 2.6381-18.23519 3.9133-28.84419 4.3499-35.47674 1.426-13.66404-.8568-25.33694-5.55-34.72088-5.5499-10.86396-18.889-19.58457-31.2658-25.63241zm-201.82143 198.31681.004-.008.002-.008c7.60139-21.11445 18.98554-48.78028 31.11323-76.24805l.01-.0156.012-.0156c12.0083-27.34205 24.9044-54.52177 32.8344-69.80332s12.7096-23.8011 14.9538-27.41321c3.1629-5.31284 7.8221-5.56633 13.214-4.73626l-11.8887 19.63671 122.748 39.6797 1.8086-22.89259c4.3645 2.19229 6.7268 4.14177 7.2085 9.95756.4817 5.8158-.6173 15.57661-2.3063 26.82179l-.01.0645-.01.0644c-3.2507 22.77725-8.6481 52.40216-14.8359 81.55273l-.01.0234-.01.0254c-6.1447 29.34332-13.0578 58.49635-19.1973 80.08008v.006.008c-3.0761 10.84962-8.456 25.41988-8.456 25.41988l-1.7627-22.29301-158.95707-51.28711-14.38755 16.96178c1.23894-5.9922 4.11221-15.02867 7.92299-25.58118z" fill="#70655c"/><path d="m252.49008 158.19711c-3.3825 2.94103-13.5789 12.16152-26.3151 25.83335 14.0259 13.11537 26.8343 30.04623 38.2229 48.01032 19.7918-7.94875 39.9758-14.14871 59.0178-16.61287-2.3634-18.5205-5.3035-31.95382-6.2998-36.40517zm-35.793 36.56416c-13.5154 16.13589-25.779 34.57697-28.3087 47.85132-1.1199 6.04104.7389 16.61285 3.8517 27.10515 16.5502-10.96926 36.9847-22.41542 58.7661-32.11287-10.5192-16.21539-22.3314-31.31795-34.3091-42.8436zm108.1123 34.97434c-16.4337 2.38468-34.7961 7.63081-52.8149 14.70518 12.0171 20.66668 21.9325 41.88977 28.9619 60.41033 8.6647-6.67694 16.3186-14.14871 18.9486-19.71283 5.7005-12.32054 6.4884-34.41801 4.9044-55.40268zm-66.1823 20.18978c-23.0064 10.09492-44.8875 22.41544-61.4595 33.78211 3.5999 8.98206 6.6956 15.18207 8.001 17.88465l66.7397 21.54106c2.6204-1.43078 8.7355-4.61028 16.9131-9.77695-6.8565-18.83846-17.3905-41.81028-30.1943-63.43087zm-47.5738 68.59754c.5677 4.13335.3317 8.26667-.9345 12.24104-1.2662 3.89489-3.4651 7.39229-6.3703 10.41284l46.2043 14.94361c-.5676-4.21283-.3316-8.26669.9346-12.24107 1.2661-3.89487 3.4651-7.39228 6.3704-10.41282z" fill="#ffd566"/><path d="m303.88458 55.507869c-1.7307.02111-3.4204.15021-5.0625.388672-6.4902 1.033337-13.25 4.134617-15.5097 11.208985-2.2597 6.994882 1.3986 13.512783 6.082 18.123047 3.2977 3.179489 7.4168 5.961262 12.127 8.107422l-2.7481 8.583985 13.5898 4.37109 2.7461-8.503904c5.1045.953846 10.0476 1.112459 14.6016.476563 6.4902-1.033337 13.2501-4.132663 15.5098-11.207031 2.2597-6.994879-1.3986-13.512785-6.0821-18.123047-4.7564-4.610261-11.1599-8.268312-18.7851-10.732422-5.7189-1.848077-11.2767-2.7567-16.4688-2.69336zm.2129 14.31836c3.3779-.01491 7.5697.597585 11.8731 1.96875 5.7378 1.82821 10.4685 4.769488 13.1328 7.392578 2.0946 1.98718 2.3708 3.178144 2.4512 3.496094.1-.0795.1001-.0795.076 0-.024.0795-.024.0795-.076 0-.2216.15898-1.1507.95471-4.0391 1.43164-3.6773.55641-9.2153.07823-14.9531-1.75-5.7378-1.8282-10.4684-4.767545-13.1328-7.390625-2.0945-1.98718-2.3728-3.180097-2.4532-3.498047-.1.0795-.098.0795-.074 0s.022-.0795.074 0c.2216-.158969 1.1527-.95472 4.041-1.43164.9194-.139103 1.9542-.213781 3.0801-.21875zm-33.7855 37.896511-20.8377 34.41798 79.4233 25.67434 3.1713-40.14105zm-14.683-3.33852c-5.1314-1.43077-10.1604-2.62308-15.1359-3.41796-11.7605-2.066667-23.3771-2.225641-33.5372 2.94104-3.1196 1.58974-4.3567 3.41793-6.1904 5.72313-1.8337 2.30504-3.7624 5.24609-5.9369 8.58461-4.1983 6.83592-9.2025 15.8974-14.7936 26.54872-11.0311 21.30262-24.08313 48.96416-36.48016 76.86421-12.29709 27.82055-23.83935 55.87955-31.86731 78.29494-4.01315 11.12823-7.14502 20.82567-9.08171 28.53592-.96835 3.89485-1.6211 7.15387-1.96335 10.17438-.29697 2.94102-.69868 5.48463 1.1183 9.22052 3.65582 6.99489 8.94812 12.08208 14.8809 15.89747l9.24891-11.12823c-4.84411-2.86155-8.46319-6.1205-10.99132-10.65131.022-.31792-.10962-.95385-.0686-1.82819.25804-1.9077.75713-4.68974 1.62636-8.18719 1.7141-6.91538 4.73347-16.2949 8.66603-27.18465 7.84081-21.7795 19.33421-49.67953 31.58269-77.42059 12.14856-27.66155 25.15196-55.08471 36.03706-75.98987 5.367-10.41281 10.2981-19.23592 14.226-25.51535 1.9262-3.17953 3.6577-5.64358 5.0214-7.31291.8913-1.19221 1.7874-1.9077 1.8873-1.98718 5.8423-2.86154 14.1419-3.25891 24.244-1.51021 3.0904.47693 6.4342 1.27183 9.7293 2.14618zm90.2949 29.17186-1.2096 14.94356c3.2731 1.19234 6.3467 2.54362 9.2205 3.97438 9.2254 4.45126 15.7231 9.69746 18.7896 15.42055.051.0798.3629 1.19233.3776 2.70253.1462 2.1462.076 5.16673-.1896 8.90262-.455 7.31278-1.6113 17.40769-3.3544 29.01283-3.3352 23.36924-8.7889 53.25648-15.0487 82.74623-6.2087 29.64875-13.1723 59.05906-19.5031 81.31549-3.1776 11.20771-6.197 20.58724-8.8171 27.18467-1.3222 3.33844-2.5763 5.88205-3.4383 7.55128-.4944.71538-.9668 1.19232-1.1397 1.43076-4.7196 2.22563-9.5562 2.78205-15.1308 2.22563l1.0187 14.46669c7.0528.31798 14.2932-.63588 21.358-4.21281 3.6188-1.90769 4.7754-4.21281 6.2804-6.83592 1.4294-2.62308 2.8296-5.64359 4.349-9.37949 2.888-7.39232 6.0048-17.08977 9.2554-28.45646 6.5256-22.89231 13.538-52.46157 19.7953-82.26931 6.2062-29.88723 11.7086-59.93339 15.1899-83.70012 1.6652-11.84354 2.8946-22.17693 3.4689-30.20512.2117-3.97439.3284-7.47179.1992-10.41281-.1293-2.94104-.1001-5.16674-1.6614-8.34623-5.2413-10.09485-14.7639-16.77178-25.5018-22.01798-4.5372-2.22557-9.3982-4.21278-14.308-6.04097zm-191.32837 206.82586-33.82024 40.85643 173.19101 55.95907-3.6265-53.01804z" fill="url(#b)"/><path d="m182.39048 294.75356-5.3962-14.5058s9.9878-7.28977 15.2458-10.53002c16.5502-10.96926 36.9847-22.41542 58.7661-32.11287-10.5192-16.21539-22.3314-31.31795-34.3091-42.8436-4.7326-5.33414-13.0506-12.25019-13.0506-12.25019l9.689-10.74248s8.983 7.74562 12.8395 12.26186c14.0259 13.11537 26.8343 30.04623 38.2229 48.01032 19.7918-7.94875 39.9758-14.14871 59.0178-16.61287 5.8306-1.3162 17.7414-2.50103 17.7414-2.50103.4462 3.32875.9322 7.97338 1.5124 14.53301 0 0-11.9871.96228-17.8601 2.27572-16.4337 2.38468-34.7961 7.63081-52.8149 14.70518 12.0171 20.66668 21.9325 41.88977 28.9619 60.41033 2.0584 5.6286 5.0202 12.49243 6.7477 17.04398l-12.135 7.56557c-1.5752-4.32789-4.5974-10.69587-6.7477-16.10441-6.8565-18.83846-17.3905-41.81028-30.1943-63.43087-23.0064 10.09492-44.8875 22.41544-61.4595 33.78211-5.17 3.33024-14.7771 11.04606-14.7771 11.04606z" fill="#70655c"/></g></svg>