<svg height="500" viewBox="0 0 500 500" width="500" xmlns="http://www.w3.org/2000/svg" xmlns:xlink="http://www.w3.org/1999/xlink"><linearGradient id="a" gradientTransform="matrix(3.498462 1.4302418 1.4302418 -3.498462 -25.021807 439.73391)" gradientUnits="userSpaceOnUse" x1="9.85492" x2="56.503056" y1="51.49437" y2="97.046967"><stop offset="0" stop-color="#d3b879"/><stop offset=".25" stop-color="#ebd6ad"/><stop offset=".5" stop-color="#ebd6ad"/><stop offset=".75" stop-color="#ebd6ad"/><stop offset="1" stop-color="#d3b879"/></linearGradient><path d="m141.05613 356.10011-105.216227-35.85597 12.510217-101.82168-6.224908-158.231805 20.48747 8.973807s130.657248 32.673378 217.004908 46.195088l85.99811-2.50405 2.2171 17.47831s3.21001 25.27241 6.70891 50.61638c1.74944 12.67196 3.57354 52.91512 5.08229 62.35343.75437 4.7192 1.43799 8.64888 1.94296 11.14583l2.74468 5.20528c1.71278 3.0463 3.88684 7.09976 6.4211 11.91586 5.0685 9.63221 11.53698 22.25776 17.93072 34.85197 12.67908 24.97504 24.83285 49.38229 25.04164 49.80125l30.455 76.93712-7.80828 6.64838-59.99405-14.87339c-84.87898-26.93601-255.30164-68.83581-255.30164-68.83581z" fill="#857347"/><path d="m56.990676 81.989269s129.466104 32.859551 220.173144 48.900021c25.2054 4.45727 76.77994 1.21047 76.77994 1.21047s12.86394 128.82844 15.23754 129.79883c1.22296.49996 15.0458 27.29439 28.16016 53.15502 1.2179 2.40158-7.91385 2.99051-6.71887 5.35419 1.19503 2.36368 12.71679 6.50211 13.86758 8.78426 9.35777 18.55714 16.90201 33.69812 16.90201 33.69812l18.57198 56.05406s-20.48147-1.52584-42.09728-8.35079c-83.32669-26.30956-253.16742-68.01517-253.16742-68.01517l-93.576697-31.89494 11.259424-91.67599z" fill="url(#a)" stroke-width="28"/></svg>