<svg height="500" viewBox="0 0 132.29167 132.29167" width="500" xmlns="http://www.w3.org/2000/svg" xmlns:xlink="http://www.w3.org/1999/xlink"><filter id="a" color-interpolation-filters="sRGB" height="1.037537" width="1.037537" x="-.018769" y="-.018769"><feGaussianBlur stdDeviation=".88971242"/></filter><filter id="b" color-interpolation-filters="sRGB" height="1.04094" width="1.031662" x="-.015831" y="-.02047"><feGaussianBlur stdDeviation=".38090473"/></filter><filter id="c" color-interpolation-filters="sRGB" height="1.344853" width="1.184042" x="-.092021" y="-.172427"><feGaussianBlur stdDeviation="2.4694315"/></filter><clipPath id="d"><path d="m475.5508 87.834967c-8.70162 6.68346-14.25816 33.732173-14.25816 45.371723 0 19.82676 16.1208 36.33645 36.45016 36.33645 20.329 0 36.45038-16.50969 36.45038-36.33645 0-11.63645-5.55498-38.680413-14.25276-45.364582z"/></clipPath><linearGradient id="e" gradientUnits="userSpaceOnUse" x1="438.25366" x2="595.85223" y1="67.465157" y2="206.71323"><stop offset="0" stop-color="#f3f3f1"/><stop offset=".03125" stop-color="#eef3f4"/><stop offset=".0625" stop-color="#ebf5f7"/><stop offset=".09375" stop-color="#eef3f4"/><stop offset=".15625" stop-color="#e4ebee"/><stop offset=".1875" stop-color="#dce8ef"/><stop offset=".21875" stop-color="#e4ebee"/><stop offset=".28125" stop-color="#e1e4ef"/><stop offset=".3125" stop-color="#dbe0f0"/><stop offset=".34375" stop-color="#e1e4ef"/><stop offset=".40625" stop-color="#d8e3eb"/><stop offset=".4375" stop-color="#dbe7f1"/><stop offset=".46875" stop-color="#d8e3eb"/><stop offset=".53125" stop-color="#f4eaea"/><stop offset=".5625" stop-color="#f8e8e8"/><stop offset=".59375" stop-color="#f4eaea"/><stop offset=".65625" stop-color="#eee4e7"/><stop offset=".71426684" stop-color="#eedde2"/><stop offset=".76595175" stop-color="#eee4e7"/><stop offset=".8775022" stop-color="#f3f3f1"/><stop offset=".9375" stop-color="#f3f1f1"/><stop offset="1" stop-color="#f3f3f1"/></linearGradient><filter id="f" color-interpolation-filters="sRGB" height="1.310821" width="1.126681" x="-.063341" y="-.15541"><feGaussianBlur stdDeviation="1.5271207"/></filter><g><path d="m84.30391 85.153499c-10.469942-.145009-19.119432 2.604477-19.799358 4.821166-4.258972.593967-4.607251 1.789992-6.677428 2.603692-5.369286 1.673237-8.440381 3.638517-11.247636 5.539994-2.88804 1.931239-3.667481 4.029659-.313837 5.678669 1.967652.73087-2.463891 1.91425.257343 2.71622 3.516376 1.70917 12.187116 2.22955 20.184359 2.21788 7.669746-.0413 16.636512-.58388 22.45477-2.21788 3.947956-.80262 1.317883-1.9865 4.398509-2.71812 5.865195-1.64863 8.285008-3.74605 8.343928-5.676471.0942-1.900975.0218-3.865645-2.791557-5.538692-.873479-.785439.696061-1.950058-2.484278-2.546985 2.928127-2.288413-1.459251-4.981697-12.324815-4.879473z" fill-rule="evenodd" filter="url(#f)" opacity=".5" stroke-width="1.05021" transform="matrix(1.0438023 0 .24810062 .86862235 -30.050918 21.551975)"/><g stroke-width="1.39535" transform="matrix(.71666601 0 0 .71666601 -290.74635 -16.468314)"><g fill-rule="evenodd" stroke-width="1.39535"><path d="m497.75 142.46484c-8.66522 0-16.56752 1.9484-22.66992 5.43946-6.1024 3.49105-10.80664 8.96248-10.80664 15.74804s4.70424 12.25895 10.80664 15.75c6.1024 3.49106 14.0047 5.43946 22.66992 5.43946s16.56557-1.9484 22.66797-5.43946c6.1024-3.49105 10.80664-8.96444 10.80664-15.75s-4.70424-12.25699-10.80664-15.74804c-6.1024-3.49106-14.00275-5.43946-22.66797-5.43946z" fill="#374548" stroke-width="1.39535"/><path d="m526.4628 163.65331a28.713474 16.426374 0 0 1 -28.71347 16.42637 28.713474 16.426374 0 0 1 -28.71348-16.42637 28.713474 16.426374 0 0 1 28.71348-16.42638 28.713474 16.426374 0 0 1 28.71347 16.42638z" fill="#6f8a91" stroke-width="13.2906"/></g><path d="m473.93359 83.072266-1.2832.986328c-6.4239 4.933996-9.50084 13.899425-12.08594 23.347656-2.58509 9.44823-4.03515 19.22317-4.03515 25.80078 0 22.40827 18.30508 41.09766 41.21289 41.09766 22.90747 0 41.21289-18.68929 41.21289-41.09766 0-6.57605-1.44903-16.35025-4.03321-25.79687-2.58417-9.446626-5.65899-18.409208-12.08007-23.343754l-1.28321-.986328z" fill="#374548" stroke-width="1.39535"/><path d="m475.55081 87.834968c-8.70164 6.68346-14.25816 33.732172-14.25816 45.371722 0 19.82676 16.12078 36.33645 36.45016 36.33645 20.329 0 36.45037-16.50969 36.45037-36.33645 0-11.63645-5.55497-38.680412-14.25275-45.364582z" fill="url(#e)"/><path clip-path="url(#d)" d="m466.19669 130.72066h.006c2.83147 13.35072 15.87581 23.43293 31.56451 23.43293 15.68831 0 28.60572-10.08173 31.43719-23.43293.38951 1.79547.762 3.57974.762 5.47688 0 15.94342-14.44412 28.89504-32.19938 28.89504-17.75546 0-32.20596-12.95162-32.20596-28.89504 0-1.89714.24574-3.68141.63506-5.47688z" fill="#fff" filter="url(#c)" opacity=".5"/><g stroke-width="1.39535"><g fill-rule="evenodd"><path d="m497.74609 66.757812c-7.37128 0-14.10102 1.64834-19.35547 4.654297-5.25444 3.005957-9.43359 7.808191-9.43359 13.853516s4.17915 10.847559 9.43359 13.853516c5.25445 3.005959 11.98419 4.654299 19.35547 4.654299s14.10103-1.64834 19.35547-4.654299c5.25445-3.005957 9.43555-7.808191 9.43555-13.853516s-4.1811-10.847559-9.43555-13.853516c-5.25444-3.005957-11.98419-4.654297-19.35547-4.654297z" fill="#374548" stroke-width="1.39535"/><path d="m521.77432 85.265877a24.027708 13.745746 0 0 1 -24.02771 13.745745 24.027708 13.745746 0 0 1 -24.02771-13.745745 24.027708 13.745746 0 0 1 24.02771-13.745746 24.027708 13.745746 0 0 1 24.02771 13.745746z" fill="#6f8a91" stroke-width="13.2906"/><circle cx="497.99213" cy="68.992859" fill="#374548" r="23.283335"/></g><g stroke-width="4.62622" transform="matrix(.30231117 0 0 .30092835 416.76872 31.935751)"><path d="m1015.4668 214.42188c-138.34171 0-251.00586 112.65635-251.00586 250.99804 0 138.34171 112.66415 251 251.00586 251 138.3417 0 251-112.65829 251-251 0-138.34169-112.6583-250.99805-251-250.99804z" fill="#374548" transform="scale(.26458334)"/><path d="m268.67494 61.494764c-34.02542 0-61.64792 27.622501-61.64792 61.647916 0 34.02542 27.6225 61.64792 61.64792 61.64792 34.02541 0 61.64791-27.6225 61.64791-61.64792 0-34.025415-27.6225-61.647916-61.64791-61.647916z" fill="#6f8a91" stroke-width="44.0645"/><path d="m268.67494 66.257264c31.4325 0 56.88541 25.452917 56.88541 56.885416 0 31.4325-25.45291 56.88542-56.88541 56.88542-31.43251 0-56.88542-25.45292-56.88542-56.88542 0-31.432499 25.45291-56.885416 56.88542-56.885416z" fill="#b7c4c8" filter="url(#a)" stroke-width=".986394"/><g fill="#dbe2e3" stroke-width="1.59575"><path d="m318.4166 127.77289c-8.62541 19.20875-29.39521 40.58709-57.94375 41.275 2.14313 2.40771 13.17625 4.78896 20.24063 2.38125 24.71208-8.41375 34.15771-31.56479 37.70312-43.65625z" filter="url(#b)"/><path d="m261.74285 74.454056c-8.22854 2.320396-16.95979 6.646333-24.07708 12.943417 2.01083 1.137708 3.99521 2.407708 5.92666 3.81 6.64105-6.217709 15.24-11.20775 26.00855-13.562542-2.93688-1.775354-5.82084-2.878667-7.85813-3.190875zm13.04396 7.104062c-11.69458 1.658938-20.66396 6.447896-27.43729 12.665605 2.72521 2.407708 5.23875 5.132917 7.43479 8.149167 5.60917-4.7625 13.89063-8.440209 26.19375-10.451042-.82021-4.074584-3.25437-7.593542-6.19125-10.36373zm-40.69292 9.331855c-5.50333 5.926667-9.54616 13.308537-10.86114 22.066247.55827 3.25438 1.55045 6.00605 2.83368 8.36084 1.7833-7.11729 5.22288-15.13417 10.72621-22.489587 1.05834-1.42875 2.19604-2.804583 3.41313-4.153958-1.98438-1.455209-4.04813-2.69875-6.11188-3.783542zm9.86896 6.746875c-1.21708 1.296458-2.32833 2.645832-3.36021 4.048122-6.11187 8.17563-9.49854 17.43605-10.74208 24.73855 3.88937 3.88937 8.73125 5.82083 12.83229 6.56166.66146-9.97479 2.16958-19.63208 8.67833-27.22562-2.14312-3.01625-4.65666-5.74146-7.40833-8.122712z" filter="url(#b)"/></g></g></g></g></g></svg>