<svg height="500" viewBox="0 0 132.29167 132.29167" width="500" xmlns="http://www.w3.org/2000/svg" xmlns:xlink="http://www.w3.org/1999/xlink"><linearGradient id="a" gradientUnits="userSpaceOnUse" x1="187.1608" x2="-21.311623" y1="527.59888" y2="92.112427"><stop offset="0" stop-color="#cbcbcb"/><stop offset=".40905663" stop-color="#d1d0cc"/><stop offset=".5" stop-color="#9e9e9c"/><stop offset=".59469599" stop-color="#b8b7b5"/><stop offset="1" stop-color="#a9aaa5"/></linearGradient><g stroke-width="1.12864" transform="matrix(.8869178 0 0 .88512779 2.121589 -204.72152)"><path d="m130.03906 1226.2949 63.25586 68.3711 49.4668-52.7812 4.48047-21.7539 27.03906-6.5918 4.00781-24.5157 25.39453-5.5742 1.6543-23.0234 25.30469-7.2715 3.0039-20.625 20.38868-5.5879 6.81445-22.7148 21.36328-8.3477 6.28906-18.4101 18.25586-7.3965 4.21485-16.1016 17.88476-7.2109 3.45508-15.3106 17.30273-6.6289 3.50782-15.6641 16.78515-4.039 2.15625-14.85158 7.06446-.47265 40.2832-42.96875-91.11523-33.64844-7.94922 6.39453-312.02539 250.93169 30.05468 30.6855z" fill="#81817e" stroke-width="4.26573" transform="scale(.26458334)"/><path d="m39.81226 323.28808 11.352213 12.26979 8.673042-9.25249 1.521354-7.39166 7.019925-1.71132 1.075002-6.56538 6.399742-1.40546.421481-5.86211 6.937376-1.99284.801687-5.49804 5.853903-1.60444 1.71186-5.70494 5.75469-2.24896 1.65364-4.83658 4.630215-1.87722 1.11654-4.26641 4.63815-1.86875.92604-4.10104 4.572-1.7526 1.01732-4.54766 4.19206-1.00886.66146-4.54739 3.83646-.25665 4.46458-4.7625-14.84181-5.48137-78.46563 63.10312z" fill="url(#a)" stroke-width="10.7502"/><g stroke-linecap="round" stroke-linejoin="round"><path d="m113.23438 1159.0273c-3.30984.2619-6.48278 1.434-9.16797 3.3868l-84.091801 61.1855c-6.178603 4.4961-8.84553 12.4029-6.652343 19.7227 16.641049 55.5205 51.740504 99.046 91.427734 138.5039 7.27594 7.2317 19.11503 6.9303 26.01367-.6621l71.6543-78.875c6.27666-6.9105 6.22917-17.4725-.10938-24.3262l-51.86132-56.0684 5.00585-15.0156c2.1343-6.4042.50635-13.4642-4.21679-18.2871 0 0-10.1239-11.7323-16.1728-16.4987-6.66085-5.2485-11.36162-13.8941-21.82915-13.0658zm13.79687 152.5313c-6.98331-28.8905-22.00249-53.3275-46.470703-69.7734l13.554687-9.1524 52.869146 57.5225z" fill="#861323" stroke-width="1.12864" transform="scale(.26458334)"/><path d="m30.336134 311.40634-22.2492889 16.18866c4.0698199 13.57842 12.7341269 24.44279 22.9861959 34.6356l18.958531-20.86901-14.676107-15.86619-.950847-1.03354.438217-1.33946 1.769401-5.3082-6.276102-6.40736zm-4.704106 8.49093 1.389062 1.50534 16.87494 18.35547 1.497065 1.62005-1.513086 1.61231-10.005073 10.72388-3.489193 3.72899-.611849-5.06844c-1.228455-10.06922-5.350664-17.2403-13.989844-21.53872l-3.654041-1.81901 3.381706-2.28979 8.425326-5.68854z" fill="#b1343a" stroke-width="10.7502"/></g></g></svg>