<svg height="500" viewBox="0 0 132.29167 132.29167" width="500" xmlns="http://www.w3.org/2000/svg" xmlns:xlink="http://www.w3.org/1999/xlink"><linearGradient id="a"><stop offset="0" stop-color="#c20a0a"/><stop offset=".23882161" stop-color="#f65555"/><stop offset=".3125" stop-color="#f65555"/><stop offset=".5" stop-color="#f88080"/><stop offset=".66440576" stop-color="#f65555"/><stop offset=".9360348" stop-color="#dd0a0a"/><stop offset="1" stop-color="#c20a0a"/></linearGradient><linearGradient id="b" gradientUnits="userSpaceOnUse" x1="172.93277" x2="198.63889" xlink:href="#a" y1="29.555481" y2="29.555613"/><linearGradient id="c" gradientTransform="matrix(-.00163968 -.99999866 .99999866 -.00163968 10.756637 262.516214)" gradientUnits="userSpaceOnUse" x1="172.93277" x2="198.63889" xlink:href="#a" y1="29.555481" y2="29.555613"/><g><g transform="matrix(.99554285 .09431026 -.09431026 .99554285 2.011651 -12.640749)"><path d="m125.26977 94.158222c1.5678-2.565734 3.01501-4.82488 4.09521-7.442274 1.34776-3.265665 2.93255-6.653608 2.92667-10.186453-.006-3.532215-1.60175-6.914233-2.96005-10.17485-1.08885-2.613808-2.65371-5.004945-4.11961-7.428796l-112.83932.07608c-1.4659 2.423851-3.03076 4.814988-4.11961 7.428796-1.3583 3.260616-2.95405 6.642635-2.96005 10.17485-.00588 3.532845 1.57891 6.920788 2.92667 10.186453 1.0802 2.617394 2.52741 4.87654 4.09521 7.442274z" fill="#6c131e" stroke-width=".264583"/><path d="m122.57235 89.399369s4.96346-8.26678 4.95593-12.861074c-.008-4.594294-4.99808-12.844761-4.99808-12.844761l-107.47574.07608s-4.99008 8.250468-4.99808 12.844762c-.0075 4.594294 4.95593 12.861074 4.95593 12.861074z" fill="url(#c)" stroke-width="9.525"/></g><g transform="matrix(-.1642694 -.98641551 .98641551 -.1642694 42.454485 291.986354)"><path d="m182.05006 31.377113.46593-5.336227c.9652-5.603875.83-11.115146-.79375-16.6354125l4.73815-1.397c1.75948 5.9838165 1.97327 11.9784815 1.08294 17.8924485l-.23948 5.620856c-1.74958-.03534-3.48261.05599-5.25379-.144665z"/><path d="m205.5372 61.195266c-.62653-1.490506-1.85036-2.568362-2.13477-4.355468l-.00009-33.79097-6.20312 1.966797c-7.62989 2.420499-15.42578 2.312025-22.8457-.0059l-6.03321-1.884766-.16407 9.804257c.0371 1.259335-.35349 1.568683-1.39248 3.053165-1.03898 1.484482-3.40968 5.475415-3.17383 8.486328.24239 3.094415 1.90685 7.357205 4.58008 8.107422v62.212889c2.56316 1.57201 4.81993 3.02292 7.43555 4.10742 3.26345 1.35311 6.64879 2.94345 10.18164 2.94336 3.53222-.00009 6.91685-1.59041 10.17969-2.94336 2.61559-1.08457 5.00929-2.6455 7.43554-4.10742v-35.583942c3.4498-1.316092 4.97968-5.549523 5.31446-9.024437.30468-3.162487-1.94854-6.056482-3.17969-8.985375z" fill="#6c131e" stroke-width=".264583"/><path d="m172.88354 31.655611c.20479 6.981296-4.60772 7.589838-4.53099 12.741276.0601 4.065323 3.22051 5.313893 4.58073 3.357562v64.344961s8.25863 4.97701 12.85293 4.97701 12.85294-4.97701 12.85294-4.97701v-37.697569c1.72243 1.98438 5.24668.41064 5.31601-4.29154.082-5.49592-4.46353-6.69263-5.31628-12.758208v-27.79648c-8.57038 2.718859-17.40958 2.591594-25.70611-.000132z" fill="url(#b)" stroke-width="9.525"/></g></g></svg>