<svg height="500" viewBox="0 0 132.29167 132.29167" width="500" xmlns="http://www.w3.org/2000/svg" xmlns:xlink="http://www.w3.org/1999/xlink"><radialGradient id="a" cx="503.08698" cy="60.963253" gradientTransform="matrix(-1.0291628 2.209561 -2.0885431 -.97276757 1148.1698 -815.51153)" gradientUnits="userSpaceOnUse" r="67.312119" spreadMethod="reflect" xlink:href="#b"/><linearGradient id="b" gradientTransform="matrix(391.584 0 0 -391.584 4037.17 7594.37)" gradientUnits="userSpaceOnUse" spreadMethod="pad" x1="0" x2="1" y1="0" y2="0"><stop offset="0" stop-color="#68222b"/><stop offset=".511236" stop-color="#fbc070"/><stop offset="1" stop-color="#681f2d"/></linearGradient><linearGradient id="c" gradientUnits="userSpaceOnUse" spreadMethod="reflect" x1="444.45746" x2="563.29956" xlink:href="#b" y1="289.70758" y2="313.31906"/><linearGradient id="d" gradientTransform="translate(269.6588 -212.98906)" gradientUnits="userSpaceOnUse" spreadMethod="reflect" x1="190.00603" x2="293.64075" xlink:href="#b" y1="479.62857" y2="550.88385"/><linearGradient id="e" gradientUnits="userSpaceOnUse" spreadMethod="reflect" x1="171.82255" x2="185.05171" y1="256.28154" y2="269.51069"><stop offset="0" stop-color="#523528"/><stop offset=".00561798" stop-color="#523528"/><stop offset=".275281" stop-color="#dff5fd"/><stop offset=".477528" stop-color="#dad9d6"/><stop offset=".668539" stop-color="#fff"/><stop offset="1" stop-color="#68574b"/></linearGradient><linearGradient id="f" gradientTransform="translate(269.6588 -212.98906)" gradientUnits="userSpaceOnUse" spreadMethod="reflect" x1="-97.836266" x2="-84.607109" xlink:href="#b" y1="492.02475" y2="505.25394"/><linearGradient id="g" gradientTransform="translate(269.6588 -212.98906)" gradientUnits="userSpaceOnUse" spreadMethod="reflect" x1="262.91541" x2="262.91541" xlink:href="#b" y1="493.31134" y2="519.77032"/><g stroke-width="1.01762" transform="matrix(.98268209 0 0 .98268209 -421.25201 -240.2944)"><g stroke-width="1.01762"><g><path d="m442.36914 313.31836-13.69336 13.375 2.74219 3.37305c16.05831 19.7544 40.58237 32.40429 67.96484 32.40429h.0137.0117c22.87895-.1215 44.78607-9.37695 60.67578-24.50195l3.21485-3.06055-2.82617-3.42187-9.35352-11.32422-3.70312 3.63672c-1.44184 1.41608-2.94865 2.76547-4.50977 4.04883l-5.37109 3.99218c-10.80353 7.10984-25.31352 11.55095-38.15235 11.58008-14.70633 0-28.26445-4.59578-39.40429-12.43164l-5.64844-4.43359c-3.16435-2.76139-6.07285-5.8043-8.68164-9.09571zm2.06445 16.94141c.0928.0921.18993.17981.28321.27148-.0934-.0918-.19028-.17919-.28321-.27148zm5.94532 5.30468 1.20507.94336c-.40324-.31378-.80817-.62189-1.20507-.94336zm5.88281 4.26758c1.92954 1.28272 3.93019 2.46183 5.97656 3.57227-2.04523-1.11394-4.04682-2.28564-5.97656-3.57227zm81.33789 2.83984c-.87108.48662-1.72294.99808-2.61328 1.45313.89829-.45081 1.7383-.97131 2.61328-1.45313zm-72.52734 2.3125c3.00099 1.46917 6.12312 2.72388 9.32617 3.80469-3.20122-1.08489-6.32646-2.33003-9.32617-3.80469zm65.39453 1.23438c-2.29812 1.00222-4.6418 1.89739-7.03321 2.68555 2.39553-.77621 4.7288-1.70183 7.03321-2.68555zm-8.7168 3.28516c-3.18294.97131-6.4508 1.6723-9.74805 2.24023 3.27418-.56512 6.54174-1.27637 9.74805-2.24023zm-44.27148.1914c2.52494.73714 5.09742 1.35552 7.7207 1.83789-2.62467-.48448-5.19541-1.09725-7.7207-1.83789zm10.89257 2.38867c3.60326.50929 7.25881.86078 11 .86133-3.74449-.00056-7.39735-.34999-11-.86133zm21.08985.0527c-3.30317.45784-6.63057.77982-9.99024.80273 3.29753-.0106 6.64653-.33703 9.99024-.80273z" fill="#663833" stroke-width="1.01762"/><path d="m556.80086 334.51891-6.04837-7.32208c-1.55737 1.52955-3.1822 2.98885-4.86966 4.37356l-5.67002 4.21535c-11.66357 7.69308-26.90985 12.36781-40.82997 12.39705-15.72075 0-30.26992-4.92919-42.19205-13.32892l-5.93592-4.65719c-3.4064-2.96623-6.53226-6.24-9.33794-9.7798l-6.80376 6.64501c15.19105 18.68753 38.35241 30.64616 64.26993 30.64616 21.60301-.11473 42.41394-8.9074 57.41776-23.18914z" fill="url(#a)" stroke-width="9.69286"/></g><g><path d="m1835.7363 1051.8086-42.2304 36.4902 5.832 20.791 12.8535 45.7422-7.2226 9.4961-42.8223 12.0274-3.1153-11.086-44.6972 58.7813c-3.454-.03-6.8154.3082-9.5899 1.5566-8.0565 3.6249-10.6496 7.6123-12.5879 9.9395 2.9803 3.0235 7.2452 7.0231 13.375 12.4414 6.7788 5.3194 13.6014 10.6735 22.4336 17.6015 5.2134 3.6021 10.4874 7.188 16.2793 10.6348l19.459-27.8945c10.826 6.4222 21.9863 12.3305 33.7051 16.9844 14.3042 5.6805 29.2092 9.6687 44.5215 12.58 7.9353 13.2748 22.1579 22.0654 37.6113 22.0684 15.4534 0 28.9451-7.5616 37.1758-19.3887 12.8424-1.4926 26.5349-3.1447 40.6953-7.2051 12.3422-3.539 23.0087-8.8201 32.6797-13.5175 5.4277-2.6364 10.7959-6.0579 16.2187-9.0723l19.6407 27.9473c4.5066-2.6525 7.2782-4.0427 15.7988-9.6133l21.4297-15.9336c4.6958-3.889 9.2629-7.8313 13.5566-11.8848-5.427-4.7325-10.9142-9.1182-17.3066-9.1836l-54.9883-76.166-69.0508-95.6035-12.9566-21.3194-8.3157 22.6056c-6.5506 9.7274-17.8897 12.5489-29.6171 12.5521-13.878-.01-22.0533-4.1645-27.7364-16.8255l-9.2037-16.878zm26.2715 67.248-3.7949 38.668-6.2149 63.3145c-1.3128 1.0813-2.8057 1.8775-3.9863 3.0996-10.5494-2.231-20.8553-5.0464-30.8633-9.0215-7.0685-2.8076-13.9629-6.1718-20.6914-9.8613z" fill="#663833" stroke-width="3.84614" transform="scale(.26458334)"/><path d="m495.07139 262.27316-4.58526 1.28778 1.59163 5.66632c-1.22235 1.56898-1.95543 3.53767-1.95543 5.68027 0 1.69372.32875 3.46197 1.1467 4.85087-3.60666 3.03295-7.27381 6.32369-10.60452 9.2413l-4.65962 4.19417 2.7404 9.75651-4.63954 1.14761c-.068.35507-.16944.71006-.31628 1.06249l-3.83093 5.03774-14.41394 18.95457c-2.07645-1.59938-3.27552-.17375-4.28967 1.04388 0 0 2.05428 1.612 3.08147 2.41793.95144.74649 2.85462 2.23914 2.85462 2.23914l8.2672-10.87168c3.67691 2.54834 7.69194 4.71678 11.86439 6.37376 4.25979 1.69167 8.65878 2.89274 13.27721 3.576.83003 3.09917 3.63617 5.25545 6.84454 5.25966 3.03249-.003 5.72751-1.93342 6.70711-4.80333 4.09448-.49744 8.39552-.89532 12.43332-2.05311 2.73481-.78418 5.3195-2.03999 7.87861-3.28301 2.66435-1.29415 5.28317-2.69803 7.75766-4.33358l7.99177 11.06755c.71305-.53015 1.7009-1.26484 2.55127-1.89707 1.03962-.7729 2.07584-1.54342 3.11867-2.3187-.76782-.85645-2.27338-1.40525-3.29282-.62685l-16.10964-22.31078-20.03649-27.74352c1.41208-1.66238 2.19773-3.78109 2.20038-5.98103 0-4.56009-3.29782-8.34738-7.63778-9.11521l3.22876 11.49491-4.58475 1.28777-3.4711-12.35842zm7.52597 21.41929 14.87318 20.59726 11.97499 16.584c-2.0225 1.32477-4.15833 2.5055-6.33762 3.56724-2.55302 1.24381-5.13858 2.48219-7.8667 3.2711-3.62638 1.04868-7.57841 1.59951-11.16364 1.90429-.21029-.56679-.49215-1.10459-.83873-1.59991l1.09244-3.21376 8.94807-26.31753-10.68348-14.79232-3.98938.51725c1.21287.18311 2.60397-.17366 3.99087-.51762zm-3.98974.5177-2.21538 22.56987-1.84949 18.85156c-1.57755.70972-2.84165 1.97136-3.55431 3.54759-4.15901-.63686-8.11924-1.7276-11.95845-3.25253-3.75915-1.49312-7.3806-3.43691-10.70271-5.71695l21.3832-28.11974 6.374-8.38211c.87683.24777 1.73556.45487 2.52314.50231z" fill="url(#c)" stroke-width="9.69286"/></g><g><path d="m1885.6289 1164.7578 35.1895 120.125-8.1348 15.252 25.5859 88.0136 97.0508-32.1035-28.6348-87.2617-17.0078-7.0039-31.7636-107.3555-29.5586-101.9961-5.9215-13.4053c0 19.472-15.7862 35.258-35.2582 35.2588-12.318-.021-23.884-6.4289-30.411-16.9266z" fill="#663833" stroke-width="3.84614" transform="scale(.26458334)"/><path d="m496.08495 283.70798 7.37591 23.07281 9.87214 33.70474-2.15371 4.04019 4.84981 16.68198 16.4764-5.45042-5.41205-16.48989-4.57809-1.88648-9.05536-30.60065-7.82837-27.02168c.48621.3986-.87775 3.24005-3.59338 4.07212-2.3409.71726-6.12041.283-5.9533-.12272z" fill="url(#d)" stroke-width="9.69286"/></g><path d="m472.83355 281.91172-4.58355 1.28359-9.16992 2.57617 6.33041 22.53926.82388 2.9334 3.72417-1.04592 7.60622-2.13618.88955-1.16979 1.02125-1.34298-3.56161-12.67504-1.3838-4.93456-.97742-3.47483z" fill="#594840"/></g><path d="m469.53705 287.78106-4.58444 1.28772 4.57861 16.30257 4.58523-1.28773-2.19921-7.82981-.39873-1.42002-1.98094-7.05247z" fill="url(#e)" stroke-width="9.69286"/><path d="m499.31445 260.81641c-7.72609 0-14.09179 6.3657-14.09179 14.09179 0 7.7261 6.3657 14.0918 14.09179 14.0918 7.7261 0 14.0918-6.3657 14.0918-14.0918 0-7.72609-6.3657-14.09179-14.0918-14.09179z" fill="#663833" fill-rule="evenodd" stroke-width="1.01762"/><path d="m508.64402 274.90802a9.3289909 9.3289909 0 0 1 -9.32899 9.32899 9.3289909 9.3289909 0 0 1 -9.32899-9.32899 9.3289909 9.3289909 0 0 1 9.32899-9.32899 9.3289909 9.3289909 0 0 1 9.32899 9.32899z" fill="url(#f)" fill-rule="evenodd" stroke-width="9.69286"/><g stroke-width="1.01762"><path d="m498.36914 256.40039-4.58594 1.28711-9.16992 2.57617 8.44122 30.0582 13.75586-3.86328-2.57535-9.17079-3.41307-12.13892-1.16472-4.16416z" fill="#594840" stroke-width="1.01762"/><path d="m495.0704 262.27311-4.58444 1.28772 5.86553 20.88811 4.58523-1.28773-3.48613-12.41535-.39873-1.42002-1.98094-7.05247z" fill="url(#e)" stroke-width="9.69286"/></g><g stroke-width="1.01762"><path d="m518.35937 278.4707v1.85157h-15.94726v2.38085h-12.70117v4.76368 16.93359h12.70117v2.38086h15.94726v1.85156h14.21485v-1.85156h12.69922v-4.23438h16.14062v-17.99023h-16.14062v-4.23437h-12.69922v-1.85157z" fill="#663833" stroke-width="1.01762"/><path d="m523.12179 283.23287v20.6375h4.68974v-20.6375zm-15.94776 1.85208v16.93334h11.18526v-16.93334zm25.4 0v16.93334h7.9375v-16.93334zm-38.1 2.38125v12.17084h7.9375v-12.17084zm50.8 1.85209v8.46666h11.37708v-8.46666z" fill="url(#g)" stroke-width="9.69286"/></g></g></svg>