<svg height="500" viewBox="0 0 500 500" width="500" xmlns="http://www.w3.org/2000/svg" xmlns:xlink="http://www.w3.org/1999/xlink"><linearGradient id="a" gradientTransform="matrix(391.593 0 0 -391.593 60.7962 7618.49)" gradientUnits="userSpaceOnUse" spreadMethod="pad" x1="0" x2="1" y1="0" y2="0"><stop offset="0" stop-color="#a06122"/><stop offset=".511236" stop-color="#efbd76"/><stop offset="1" stop-color="#b57720"/></linearGradient><linearGradient id="b" gradientTransform="matrix(.92382544 0 0 .92238029 -157.17213 -415.40092)" gradientUnits="userSpaceOnUse" spreadMethod="reflect" x1="231.9437" x2="651.0459" xlink:href="#a" y1="524.57825" y2="857.90717"/><linearGradient id="c" gradientTransform="matrix(3.7795275 0 0 3.7795275 168.70524 -1656.2256)" gradientUnits="userSpaceOnUse" spreadMethod="reflect" x1="-13.926189" x2="56.234142" xlink:href="#a" y1="505.79187" y2="527.67462"/><linearGradient id="d" gradientTransform="matrix(3.7795274 0 0 3.7795274 -545.91193 -431.88172)" gradientUnits="userSpaceOnUse" spreadMethod="reflect" x1="0" x2="132.29167" xlink:href="#a" y1="66.145836" y2="66.145836"/><linearGradient id="e" gradientTransform="translate(-190.74574 -471.39542)" gradientUnits="userSpaceOnUse" spreadMethod="reflect" x1="-97.836266" x2="-84.607109" xlink:href="#a" y1="492.02475" y2="505.25394"/><filter id="f" color-interpolation-filters="sRGB" height="1.041293" width="1.026636" x="-.013318" y="-.020646"><feGaussianBlur stdDeviation="1.5370606"/></filter><filter id="g" color-interpolation-filters="sRGB" height="1.033429" width="1.025607" x="-.012804" y="-.016715"><feGaussianBlur stdDeviation="1.5370606"/></filter><g stroke="none" transform="translate(.000494 .864027)"><path d="m34.682069 285.61261c9.847983-12.3844 36.348217-34.63625 57.970275-46.8917 23.289296-13.20044 46.133286-21.69503 75.409426-27.62618 23.47696-4.75628 51.45552-6.21104 75.40942-6.2002 23.70615.0107 52.2872.97103 75.40943 6.2002 25.66523 5.80429 51.16981 16.26466 75.40942 27.62618 25.87953 12.13018 56.43961 24.54418 74.17674 43.0097l16.90724-32.08163v-47.73492c0-13.73608-7.53786-21.27614-13.88574-30.44922-5.71868-8.26385-13.29301-15.25234-21.26367-21.37304-18.21025-13.98372-38.50119-25.54723-59.71484-34.33008-9.97481-4.12976-20.71009-6.19173-31.27149-8.42969-13.1561-2.78778-26.52009-4.53927-39.86523-6.20117-23.16711-2.885055-46.38747-6.310478-69.73243-6.53711-23.21097-.225331-46.4339 2.106909-69.44531 5.152344-13.4317 1.777616-26.76585 4.401866-39.92187 7.640626-10.80414 2.65977-21.72502 5.27695-31.95117 9.66211-20.195127 8.66003-39.557981 19.62069-57.320317 32.55664-7.829009 5.70171-15.585445 11.90465-21.410156 19.64258-6.730038 8.94063-14.966804 15.82622-14.966804 30.05078v50.35015z" fill="#86522c"/><path d="m30.624717 199.29889c0-11.60155 18.324207-27.06293 30.673863-37.44769 15.612676-13.12862 34.525606-22.08805 53.29348-30.08074 9.44144-4.02083 19.5213-6.4011 29.48841-8.84333 12.59831-3.08695 25.35998-5.61416 38.21835-7.31972 22.26232-2.95292 44.72877-5.2366 67.18499-5.01541 22.73618.22395 45.34679 3.60349 67.90935 6.41686 12.90625 1.60931 25.82866 3.30915 38.55746 5.98097 9.61577 2.01838 19.39607 3.84535 28.48596 7.57505 19.599 8.04173 39.31858 17.48271 55.19049 31.51384 12.4198 10.97938 29.77039 27.99926 29.77039 39.83603v66.43196c-38.97579-40.57635-92.74591-58.06808-144.68031-72.83609-24.21442-6.88559-50.05848-6.63017-75.23286-6.61536-24.84204.0146-49.73261 2.50318-74.23193 6.61537-11.84439 1.98807-23.55324 4.95243-34.96548 8.69445-19.0312 6.24024-38.18338 12.90637-55.573108 22.84239-19.63798 11.22061-41.473295 25.10258-54.089054 40.96761z" fill="url(#b)"/><path d="m451.62251 251.73198c-36.7502-29.13859-83.3608-43.66455-127.5192-56.22136-24.2144-6.88559-50.05844-6.63017-75.23282-6.61536-24.84204.0146-49.73261 2.50318-74.23193 6.61537-11.84439 1.98807-23.55324 4.95243-34.96548 8.69445-19.0312 6.24024-38.18338 12.90637-55.573114 22.84239-11.86827 6.78121-24.53911 14.53447-35.72027 23.28908v-78.95764c-.14345-14.71384 7.86044-22.27531 12.38736-26.82813 12.70125-12.77392 28.42933-20.42545 43.283204-25.82422 46.50732-16.9035 96.49041-24.135083 145.33594-24.134763 48.85601.00032 98.81651 7.282243 145.32031 24.130863 14.8342 5.37451 30.7099 12.93087 43.4844 25.85156 4.6076 4.66032 13.6041 12.29584 13.4316 26.83789z" fill="#86522c" opacity=".67"/><path d="m14.624993 285.64846c0 18.40512 9.333422 30.98661 19.605466 42.88281 13.363749 15.47675 33.064939 24.46964 51.476562 33.36523 22.266049 10.75786 46.459569 17.12791 70.300779 23.69336 5.69673 1.56878 11.48531 2.85586 17.32813 3.73633 25.19226 3.79629 50.66589 6.61298 76.14258 6.62305 25.68013.0102 51.35122-2.86369 76.75585-6.61524 5.95947-.88005 11.87343-2.13475 17.68555-3.71875 23.89684-6.5127 48.1151-12.94581 70.41797-23.71875 18.41299-8.89402 38.11807-17.88491 51.47852-33.36523 10.26693-11.89596 19.55762-24.50055 19.55762-42.88281v-115.14067c-.24045-19.68156-11.58975-36.49428-24.05371-50.25974-13.86194-15.30941-33.6211-24.924906-52.97656-32.128909-50.16781-18.672203-104.81376-26.766-158.34375-26.765625-53.52946.000375-108.17437 8.095886-158.341797 26.767578-19.355189 7.20376-39.178991 16.759966-52.976562 32.126956-12.641678 14.07962-24.056643 31.00832-24.056648 51.417zm421.613327-114.42575c-.0753 6.34882-5.40046 11.77305-9.84766 16.30468-15.16962 15.45763-35.07674 26.07919-54.9746 34.63086-19.92025 8.56129-41.62635 12.60444-63.0293 16.07227-19.23783 3.11702-38.8277 4.16805-58.31641 4.18164-19.61535.0137-39.28408-1.34509-58.70117-4.12695-21.68976-3.10746-44.11069-5.30443-64.22851-13.98633-19.75955-8.52729-38.466724-20.85691-53.271489-36.47656-4.456277-4.70156-10.042309-10.12203-10.105469-16.59961-.05788-5.93647 4.776967-11.18076 8.96289-15.39063 10.206719-10.26512 23.797279-17.12348 37.402348-22.06836 44.41637-16.14353 92.6119-23.17223 139.87105-23.17192 47.25927.00031 95.43819 7.07551 139.87109 23.17382 13.64979 4.9454 27.3495 11.73169 37.55673 22.05575 4.15828 4.20588 8.88063 9.48731 8.8105 15.40134z" fill="#86522c"/><path d="m61.671719 198.1779c-6.543957-7.7072-13.907268-18.0602-13.907268-26.95564s4.371542-17.84345 13.907268-26.95749c9.53665-9.11311 24.090596-17.90708 42.461791-25.33501 36.74515-14.85217 88.581-24.336999 145.86741-24.336999 57.28642 0 109.12504 9.484829 145.86835 24.338839 18.37211 7.42793 32.92514 16.22098 42.45901 25.33502 9.53665 9.11311 13.91097 18.06205 13.91097 26.95656 0 8.89359-7.17925 19.40993-13.91004 26.95472-12.44884 13.95436-30.54794 21.64446-46.60618 31.22729-4.70981 2.8106-9.43348 5.70828-14.55083 7.68173-21.25735 8.19765-43.73036 13.27954-66.21828 16.93602-20.07863 3.26473-40.52661 4.37098-60.86892 4.38898-20.38225.018-40.82179-1.38573-60.99613-4.28965-22.73647-3.27272-45.67555-7.04438-67.31538-14.74994-5.16057-1.83759-10.0043-4.53897-14.66341-7.4201-16.050902-9.92565-33.223745-19.38846-45.438361-33.77433zm321.712051 56.31494c5.17152-1.82025 10.19926-4.10632 14.98285-6.78499 14.49483-8.11669 28.66798-17.12018 41.2534-27.96398 8.85323-7.62808 18.10352-15.55845 23.74578-25.79232 3.78859-6.87171 6.03166-14.74886 6.03166-22.72744 0-14.6474-7.32501-28.12614-19.1315-39.40962-11.80465-11.28348-28.13049-20.86055-47.91883-28.86127-39.57668-15.998696-93.17334-25.59883-152.34713-25.599291s-112.77045 9.601518-152.34528 25.600211c-19.788341 7.9998-36.115108 17.57686-47.918826 28.86126-11.806489 11.28256-19.111176 24.7613-19.111176 39.40778 0 0 .381727 9.3094 2.038882 13.58482 4.439414 11.45358 11.564745 22.10073 20.244942 30.79251 13.738444 13.75678 31.751816 22.56947 48.693568 32.10734 4.65059 2.61819 9.45362 5.03019 14.46822 6.85684 21.44208 7.81063 43.76248 13.33501 66.2285 17.34083 22.32865 3.98132 45.04313 6.6576 67.72381 6.57744 22.57843-.0798 45.14776-3.03155 67.37052-7.02416 22.3543-4.01624 44.56673-9.42526 65.99061-16.96596zm-352.759052 26.41327v4.74281c0 10.8887 7.6729 23.34509 15.582162 32.27408 12.087857 13.64632 29.513946 21.8679 46.113671 29.40364 21.166969 9.60912 44.898389 16.49884 67.931399 22.83669 5.08799 1.40003 10.25652 2.55426 15.47441 3.34249 24.40272 3.68636 49.07834 6.43325 73.75793 6.44261 24.89586.009 49.78141-2.799 74.4092-6.44261 5.3319-.78884 10.6226-1.91391 15.82331-3.32955 23.07531-6.28112 46.81757-13.23102 68.00884-22.84947 16.60023-7.53463 34.02613-15.75704 46.11367-29.40364 7.90888-8.92897 15.55815-21.38447 15.55815-32.27408v-69.06737c-6.30973 8.00188-19.30021 17.35334-29.77039 24.91224-12.10735 8.74086-25.22629 16.00184-38.1418 23.49718-4.84491 2.81168-9.52423 6.03644-14.75154 8.04989-22.18265 8.54428-45.85164 13.007-69.34057 16.66-22.26181 3.46216-44.87993 4.91103-67.40935 4.91436-22.62105.003-45.34267-1.37416-67.68498-4.91436-23.3791-3.70448-46.79246-8.66728-68.94626-17.00486-5.22454-1.96625-9.98067-5.00963-14.869104-7.70503-12.578129-6.93535-25.497248-13.42383-37.184885-21.77293-10.934446-7.81107-23.389363-17.40533-30.673863-26.30443v32.73521z" fill="url(#b)"/></g><g transform="matrix(-1 0 0 -1 500.08984 621.10936)"><path d="m250.04492 165.32617c-48.60141 0-92.9433 15.3335-125.79101 41.10156-32.847714 25.76807-54.392582 62.79352-54.392582 104.12696s21.544868 78.35693 54.392582 104.125c32.84771 25.76807 77.1896 41.10351 125.79101 41.10351s92.94331-15.33544 125.79102-41.10351 54.39258-62.79156 54.39258-104.125-21.54487-78.35889-54.39258-104.12696c-32.84771-25.76806-77.18961-41.10156-125.79102-41.10156z" fill="#86522c"/><path d="m412.22812 310.55399a162.18382 127.22847 0 0 1 -162.18382 127.22847 162.18382 127.22847 0 0 1 -162.183826-127.22847 162.18382 127.22847 0 0 1 162.183826-127.22847 162.18382 127.22847 0 0 1 162.18382 127.22847z" fill="url(#c)"/><path d="m421.22852 310.55469c0-38.23321-19.84874-72.65098-50.94727-97.04688-31.09853-24.39588-73.54282-39.18164-118.83211-39.18164s-76.85226 18.06483-107.21434 39.86945c26.72043-17.39486 60.53711-25.73511 91.97614-24.8421 41.94192 1.19134 84.90761 18.85584 117.40429 45.39843 26.61455 21.73819 54.28892 52.45521 55.63086 86.79297.41565 10.63549-2.06331 21.28718-6.38451 31.4538 6.7064-14.49316 18.36694-26.01779 18.36694-42.44403z" fill="#86522c" filter="url(#f)" opacity=".5"/><path d="m265.0625 430.77344c-42.20059-.97468-85.95319-17.64694-118.58984-44.41797-26.61958-21.83537-53.354452-53.3613-54.445316-87.77344-.85728-27.04353 16.520406-54.09163 36.974606-72.50195-27.73597 24.01271-50.140622 48.68202-50.140622 84.47461 0 38.23317 19.848772 72.64904 50.947262 97.04492 31.0985 24.39586 73.54288 39.18359 120.23633 39.18359 46.69346 0 85.83705-23.81312 116.93555-48.20898-27.74871 22.35666-66.3342 33.02107-101.91797 32.19922z" fill="#efbd76" filter="url(#g)" opacity=".5" stroke-width="3.77953"/><path d="m250.04492 165.32617c-48.60136 0-92.94334 15.33353-125.79101 41.10156-32.847685 25.76805-54.392582 62.79356-54.392582 104.12696s21.544897 78.35695 54.392582 104.125c32.84767 25.76804 77.18965 41.10351 125.79101 41.10351s92.94334-15.33547 125.79102-41.10351c32.84767-25.76805 54.39258-62.7916 54.39258-104.125s-21.54491-78.35891-54.39258-104.12696c-32.84768-25.76803-77.18966-41.10156-125.79102-41.10156zm0 18a162.18382 127.22847 0 0 1 162.1836 127.22852 162.18382 127.22847 0 0 1 -162.1836 127.22851 162.18382 127.22847 0 0 1 -162.183592-127.22851 162.18382 127.22847 0 0 1 162.183592-127.22852z" fill="#86522c"/></g><g stroke-width="1.11768" transform="matrix(.89471223 0 0 .89471223 28.445475 27.946346)"><path d="m135.66362 229.73816c-2.38037 29.16827 17.34493 47.75827 75.79985 77.0277-30.3251-5.4441-59.35347-16.88435-87.08297-34.28416v.0161c3.81485 28.93475 26.7513 40.60099 89.35197 50.1903-30.5457 4.4955-61.09464 2.74411-91.63873-5.22886 9.44296 25.88824 32.82815 30.38643 91.05062 20.88373-27.00525 12.58632-55.16089 19.8367-84.47552 21.77532 14.87576 22.48555 39.15199 18.71161 96.05998-10.84621 1.27629 1.65721 2.69838 3.18154 4.27113 4.55736l-29.35768 34.31698 6.01982 21.97656 20.78261-6.00208 9.53335-45.63454c2.99001 1.46137 6.25066 2.45356 9.66896 2.90929l-9.48333 45.31386 14.34255 16.73048 15.28523-17.30137-10.25705-44.97864c3.40054-.622 6.61653-1.79175 9.55057-3.41238l10.74508 47.13035 19.78986 6.18769 5.46456-23.23667-29.82794-34.51974c1.39465-1.28219 2.66878-2.67738 3.81701-4.18718 57.11514 29.69557 81.44464 33.52117 96.34623 10.99689-29.31514-1.9381-57.47028-9.18847-84.47554-21.77533 58.22193 9.50324 81.60768 5.00505 91.05061-20.8832-30.53923 7.9719-61.08277 9.72115-91.62256 5.22994 62.60012-9.59039 85.51939-21.25662 89.33526-50.19137v-.0161c-27.73538 17.40197-56.75244 28.84006-87.0824 34.28415 58.45491-29.26888 78.17861-47.86049 75.79932-77.02715-28.46559 31.57985-60.71317 55.05222-96.76701 70.40255 2.47399-3.48017 3.91707-7.747 3.91707-12.34204.002-11.7663-9.53658-21.30343-21.30289-21.30343-11.76739 0-21.30397 9.53713-21.30397 21.30397 0 4.7118 1.52916 9.08247 4.11938 12.61052-36.31371-15.34396-68.78676-38.90295-97.42234-70.67113zm103.37546 81.50006 11.24815 24.51566 11.06416-24.09543c6.09353 3.81646 10.12198 10.57935 10.12198 18.34517 0 12.00951-9.63128 21.62358-21.64079 21.62358-12.00843 0-21.63919-9.61513-21.63919-21.62358 0-8.06715 4.35183-15.04256 10.84515-18.76487z" fill="#b57720" opacity=".5" stroke-width="4.22429"/><g stroke-width="4.22482"><path d="m364.42449 229.73982c2.37929 29.16663-17.34464 47.75878-75.79949 77.02763 8.38662-1.50536 16.66194-3.51624 24.84846-5.93756 41.90566-24.46947 53.03147-45.58685 50.95103-71.09007zm-223.92427 4.8346c-.0108.13195-.004.25582-.0142.38734 2.93214 3.11288 5.91022 6.12591 8.9205 9.07166-3.00518-3.07377-5.97888-6.21155-8.90397-9.45664zm12.88596 36.08116c10.02519 10.96688 26.30718 21.81309 50.48339 34.55072 2.52652.54128 5.0484 1.10194 7.59318 1.55879-27.23832-13.63872-45.97499-24.95765-58.07657-36.10951zm222.32061 1.84457c-3.81587 28.93472-26.73489 40.60015-89.33495 50.19053 6.87915 1.01165 13.75795 1.65964 20.63738 2.03823 49.83408-9.89908 65.22697-25.89792 68.69757-52.21459zm-110.37059.23616c3.25743 3.74153 6.2399 9.71273 6.23899 15.06355 0 4.59504-1.44423 8.86258-3.91822 12.34275 2.82854-1.20428 5.6263-2.47698 8.40799-3.78124.21272-1.21278.34719-2.45165.34719-3.72455.001-6.41589-5.28137-14.68709-11.07595-19.90051zm-127.08677 26.15691c10.07772 11.89606 29.08127 19.31069 61.25791 25.38459 4.7418-.39688 9.48342-.89164 14.2251-1.58949-38.73285-5.93319-62.25331-12.67335-75.48301-23.7951zm100.78965 12.34511c-6.49331 3.72231-10.84537 10.69733-10.84537 18.76447 0 7.24247 3.51719 13.59807 8.93232 17.51508-2.56936-3.55595-4.09536-7.92353-4.09536-12.67812 0-7.19882 3.47768-13.51055 8.83785-17.43478zm22.31189.4204-11.06265 24.09505 15.89961-19.25809c.42792.26801.82127.58219 1.22814.87859-1.633-2.27397-3.68496-4.22484-6.0651-5.71555zm116.6444 5.80057c-9.44292 25.88823-32.8301 30.3886-91.05197 20.88537 4.99219 2.3268 10.03757 4.40753 15.10841 6.36976 50.1861 6.75774 67.08016-2.95569 75.94356-27.25513zm-244.73406 16.39323c10.00426 12.52352 27.9683 16.00444 60.07465 12.67576 6.66916-2.42099 13.27405-5.14053 19.80839-8.18599-42.49401 6.9356-66.38024 6.36371-79.88304-4.48977zm141.8117 15.26901c-1.14823 1.5098-2.42201 2.90528-3.81666 4.18747l29.82712 34.52001-5.46283 23.23772-19.69975-6.15957 24.53671 10.99653 5.46283-23.23772-29.82712-34.52001c1.39464-1.28219 2.66843-2.67767 3.81666-4.18747 57.11508 29.69554 76.60858 28.68382 91.51016 6.15957-14.90158 22.52425-39.23204 18.69901-96.34712-10.99653zm-50.34405.15116c-48.49327 25.18724-73.25715 31.58115-88.73505 19.02899 14.95652 18.45298 39.30356 13.83542 92.14312-13.4646l.86206-1.00849c-1.57275-1.37582-2.99384-2.89869-4.27013-4.5559zm40.35601 8.47412c-2.93403 1.62063-6.15056 2.7908-9.5511 3.4128l10.25728 44.97805-15.28555 17.30252 4.83696 4.83696 15.28555-17.30252-10.25728-44.97805c2.14453-.39226 4.20515-1.02437 6.17846-1.82803zm-29.10677.73925-9.53458 45.63462-20.4319 5.89977 4.48742 4.93852 20.78144-6.00133 9.53457-45.63463c1.31129.64089 2.68242 1.1749 4.08827 1.62964l.74397-3.55686c-3.4183-.45573-6.67919-1.44837-9.66919-2.90973zm39.84586 46.36206.002.0165h.002z" fill="#efbd76"/><path d="m130.8263 224.9005c-1.27118 15.57666 3.85388 28.13752 17.72292 40.91812-10.10667-11.056-13.90756-22.25871-12.90013-35.69382-1.61783-1.71755-3.22639-3.45351-4.82043-5.22194zm227.79053 10.97291c-25.31506 25.59485-56.46541 42.13915-87.41717 55.76437-.56514 3.12073-1.77592 6.01951-3.54269 8.50483 33.64208-14.32349 63.9262-35.814 90.95986-64.2692zm-213.35759 3.99616c26.24052 26.67306 55.50338 46.88382 87.82812 60.54229-2.59022-3.52805-4.11898-7.9002-4.11898-12.612 0-5.88342 2.38401-11.20927 6.23894-15.06426 3.85493-3.855 9.18078-6.23914 15.06447-6.23914 4.69672 0 11.5427 3.66546 15.06441 6.23985-3.86108-5.42719-12.73294-11.07681-19.90137-11.07681-11.76738 0-21.3034 9.53658-21.3034 21.3034 0 4.7118 1.52875 9.08395 4.11897 12.612-30.34918-12.82372-58.00536-31.40898-82.99116-55.70533zm-25.71524 27.77472v.0165c1.45449 11.03195 5.71612 19.54204 13.86847 26.39543-5.03238-5.94037-7.89996-12.97592-9.03151-21.55848v-.0165c27.72947 17.39979 56.75672 28.83974 87.08179 34.28384-4.38221-2.19425-8.47625-4.31258-12.43013-6.39575-27.58091-5.90891-54.08611-16.78539-79.48862-32.72505zm256.16279 4.83932c-21.07434 13.22265-45.67624 20.19756-69.58561 25.17911-5.42448 2.93509-11.19144 5.94789-17.49618 9.10473 30.32993-5.44409 59.34644-16.88188 87.08179-34.28384zm-136.66771 38.75472c-.69891.40066-1.36098.85635-2.00752 1.32969l8.4198 18.3488 4.83587 4.83706zm23.54003 1.29899c2.54773 3.54773 4.05756 7.89605 4.05756 12.62852 0 12.0095-9.63164 21.62461-21.64114 21.62461-4.76596 0-9.14299-1.5319-12.70646-4.10953 3.91995 5.42514 10.28959 8.94649 17.54342 8.94649 12.0095 0 21.64114-9.61511 21.64114-21.62461 0-7.22046-3.50759-13.54118-8.89452-17.46548zm-145.32133.085c2.55095 6.99353 6.16875 12.37601 11.16657 16.39323-2.59281-3.24573-4.68859-7.05733-6.32961-11.55627 30.54406 7.97296 61.09203 9.72451 91.6377 5.22902-6.84734-1.04889-13.13695-2.129-19.06206-3.24747-25.80468 2.15979-51.60997-.0832-77.4126-6.81851zm254.85199 6.22334c-22.80769 4.84076-47.85242 4.0379-71.38765 1.45722-4.56111.81219-9.27935 1.61091-14.35028 2.38778 28.57796 4.2027 57.16001 2.86662 85.73793-3.845zm-158.96542 19.49664c-9.06421 1.47941-17.19099 2.57619-24.64535 3.34903-20.89327 7.58451-42.4445 12.12024-64.66598 13.58978 2.19959 3.32481 4.63817 6.00554 7.32393 8.18362-.85339-1.05289-1.69097-2.14346-2.48697-3.34666 29.3146-1.93862 57.46915-9.18946 84.47437-21.77577zm73.79905.002c25.17384 11.73325 51.36108 18.76593 78.54154 21.24435-22.72974-2.48441-47.17896-10.52753-69.13923-19.79893-3.03996-.44237-6.14837-.9143-9.40231-1.44542zm-62.21444 10.92803c-.49379.25647-.93999.47484-1.42889.72743l-28.49507 33.30841 10.85718 26.81348-6.02022-21.97652 29.35713-34.3169c-1.57275-1.37582-2.99384-2.89869-4.27013-4.5559zm40.35601 8.47412c-.9555.52778-1.94974.99065-2.96169 1.41944l13.70787 45.71257zm-25.01851 2.36888-8.73864 41.75656 19.17778 21.56793-14.34082-16.73097 9.48261-45.31342c-1.91919-.25587-3.78113-.69793-5.58093-1.2801z" fill="#86522c"/></g></g><circle cx="-295.9118" cy="-181.88173" fill="url(#d)" r="250" transform="matrix(.5000002 -.86602529 .86602529 .5000002 0 0)"/><g fill-rule="evenodd" transform="matrix(3.7795275 0 0 3.7795275 967.23345 269.357)"><path d="m-319.80283 20.629343h13.22917v13.229167h-13.22917z" fill="#b57720"/><path d="m-306.57367 20.629343h13.22917v13.229167h-13.22917z" fill="#a06122"/><path d="m-333.03198 20.629343h13.22917v13.229167h-13.22917z" fill="#efbd76"/><path d="m-346.26114 20.629343h13.22917v13.229167h-13.22917z" fill="#86522c"/><path d="m-288.582 20.629343h13.22917v13.229167h-13.22917z" fill="url(#e)" stroke="#86522c" stroke-width="9.525"/></g></svg>