<svg height="500" viewBox="0 0 500 500" width="500" xmlns="http://www.w3.org/2000/svg" xmlns:xlink="http://www.w3.org/1999/xlink"><linearGradient id="a" gradientTransform="matrix(391.593 0 0 -391.593 60.7962 7618.49)" gradientUnits="userSpaceOnUse" spreadMethod="pad" x1="0" x2="1" y1="0" y2="0"><stop offset="0" stop-color="#a06122"/><stop offset=".511236" stop-color="#efbd76"/><stop offset="1" stop-color="#b57720"/></linearGradient><linearGradient id="b" gradientTransform="matrix(.92382544 0 0 .92238029 -157.17213 -415.40092)" gradientUnits="userSpaceOnUse" spreadMethod="reflect" x1="231.9437" x2="651.0459" xlink:href="#a" y1="524.57825" y2="857.90717"/><linearGradient id="c" gradientTransform="matrix(3.7795275 0 0 3.7795275 168.70524 -1656.2256)" gradientUnits="userSpaceOnUse" spreadMethod="reflect" x1="-13.926189" x2="56.234142" xlink:href="#a" y1="505.79187" y2="527.67462"/><filter id="d" color-interpolation-filters="sRGB" height="1.041293" width="1.026636" x="-.013318" y="-.020646"><feGaussianBlur stdDeviation="1.5370606"/></filter><filter id="e" color-interpolation-filters="sRGB" height="1.033429" width="1.025607" x="-.012804" y="-.016715"><feGaussianBlur stdDeviation="1.5370606"/></filter><filter id="f" color-interpolation-filters="sRGB" height="1.006366" width="1.005674" x="-.002837" y="-.003183"><feGaussianBlur stdDeviation=".32449015"/></filter><g stroke="none" transform="translate(.000494 .864027)"><path d="m34.682069 285.61261c9.847983-12.3844 36.348217-34.63625 57.970275-46.8917 23.289296-13.20044 46.133286-21.69503 75.409426-27.62618 23.47696-4.75628 51.45552-6.21104 75.40942-6.2002 23.70615.0107 52.2872.97103 75.40943 6.2002 25.66523 5.80429 51.16981 16.26466 75.40942 27.62618 25.87953 12.13018 56.43961 24.54418 74.17674 43.0097l16.90724-32.08163v-47.73492c0-13.73608-7.53786-21.27614-13.88574-30.44922-5.71868-8.26385-13.29301-15.25234-21.26367-21.37304-18.21025-13.98372-38.50119-25.54723-59.71484-34.33008-9.97481-4.12976-20.71009-6.19173-31.27149-8.42969-13.1561-2.78778-26.52009-4.53927-39.86523-6.20117-23.16711-2.885055-46.38747-6.310478-69.73243-6.53711-23.21097-.225331-46.4339 2.106909-69.44531 5.152344-13.4317 1.777616-26.76585 4.401866-39.92187 7.640626-10.80414 2.65977-21.72502 5.27695-31.95117 9.66211-20.195127 8.66003-39.557981 19.62069-57.320317 32.55664-7.829009 5.70171-15.585445 11.90465-21.410156 19.64258-6.730038 8.94063-14.966804 15.82622-14.966804 30.05078v50.35015z" fill="#86522c"/><path d="m30.624717 199.29889c0-11.60155 18.324207-27.06293 30.673863-37.44769 15.612676-13.12862 34.525606-22.08805 53.29348-30.08074 9.44144-4.02083 19.5213-6.4011 29.48841-8.84333 12.59831-3.08695 25.35998-5.61416 38.21835-7.31972 22.26232-2.95292 44.72877-5.2366 67.18499-5.01541 22.73618.22395 45.34679 3.60349 67.90935 6.41686 12.90625 1.60931 25.82866 3.30915 38.55746 5.98097 9.61577 2.01838 19.39607 3.84535 28.48596 7.57505 19.599 8.04173 39.31858 17.48271 55.19049 31.51384 12.4198 10.97938 29.77039 27.99926 29.77039 39.83603v66.43196c-38.97579-40.57635-92.74591-58.06808-144.68031-72.83609-24.21442-6.88559-50.05848-6.63017-75.23286-6.61536-24.84204.0146-49.73261 2.50318-74.23193 6.61537-11.84439 1.98807-23.55324 4.95243-34.96548 8.69445-19.0312 6.24024-38.18338 12.90637-55.573108 22.84239-19.63798 11.22061-41.473295 25.10258-54.089054 40.96761z" fill="url(#b)"/><path d="m451.62251 251.73198c-36.7502-29.13859-83.3608-43.66455-127.5192-56.22136-24.2144-6.88559-50.05844-6.63017-75.23282-6.61536-24.84204.0146-49.73261 2.50318-74.23193 6.61537-11.84439 1.98807-23.55324 4.95243-34.96548 8.69445-19.0312 6.24024-38.18338 12.90637-55.573114 22.84239-11.86827 6.78121-24.53911 14.53447-35.72027 23.28908v-78.95764c-.14345-14.71384 7.86044-22.27531 12.38736-26.82813 12.70125-12.77392 28.42933-20.42545 43.283204-25.82422 46.50732-16.9035 96.49041-24.135083 145.33594-24.134763 48.85601.00032 98.81651 7.282243 145.32031 24.130863 14.8342 5.37451 30.7099 12.93087 43.4844 25.85156 4.6076 4.66032 13.6041 12.29584 13.4316 26.83789z" fill="#86522c" opacity=".67"/><path d="m14.624993 285.64846c0 18.40512 9.333422 30.98661 19.605466 42.88281 13.363749 15.47675 33.064939 24.46964 51.476562 33.36523 22.266049 10.75786 46.459569 17.12791 70.300779 23.69336 5.69673 1.56878 11.48531 2.85586 17.32813 3.73633 25.19226 3.79629 50.66589 6.61298 76.14258 6.62305 25.68013.0102 51.35122-2.86369 76.75585-6.61524 5.95947-.88005 11.87343-2.13475 17.68555-3.71875 23.89684-6.5127 48.1151-12.94581 70.41797-23.71875 18.41299-8.89402 38.11807-17.88491 51.47852-33.36523 10.26693-11.89596 19.55762-24.50055 19.55762-42.88281v-115.14067c-.24045-19.68156-11.58975-36.49428-24.05371-50.25974-13.86194-15.30941-33.6211-24.924906-52.97656-32.128909-50.16781-18.672203-104.81376-26.766-158.34375-26.765625-53.52946.000375-108.17437 8.095886-158.341797 26.767578-19.355189 7.20376-39.178991 16.759966-52.976562 32.126956-12.641678 14.07962-24.056643 31.00832-24.056648 51.417zm421.613327-114.42575c-.0753 6.34882-5.40046 11.77305-9.84766 16.30468-15.16962 15.45763-35.07674 26.07919-54.9746 34.63086-19.92025 8.56129-41.62635 12.60444-63.0293 16.07227-19.23783 3.11702-38.8277 4.16805-58.31641 4.18164-19.61535.0137-39.28408-1.34509-58.70117-4.12695-21.68976-3.10746-44.11069-5.30443-64.22851-13.98633-19.75955-8.52729-38.466724-20.85691-53.271489-36.47656-4.456277-4.70156-10.042309-10.12203-10.105469-16.59961-.05788-5.93647 4.776967-11.18076 8.96289-15.39063 10.206719-10.26512 23.797279-17.12348 37.402348-22.06836 44.41637-16.14353 92.6119-23.17223 139.87105-23.17192 47.25927.00031 95.43819 7.07551 139.87109 23.17382 13.64979 4.9454 27.3495 11.73169 37.55673 22.05575 4.15828 4.20588 8.88063 9.48731 8.8105 15.40134z" fill="#86522c"/><path d="m61.671719 198.1779c-6.543957-7.7072-13.907268-18.0602-13.907268-26.95564s4.371542-17.84345 13.907268-26.95749c9.53665-9.11311 24.090596-17.90708 42.461791-25.33501 36.74515-14.85217 88.581-24.336999 145.86741-24.336999 57.28642 0 109.12504 9.484829 145.86835 24.338839 18.37211 7.42793 32.92514 16.22098 42.45901 25.33502 9.53665 9.11311 13.91097 18.06205 13.91097 26.95656 0 8.89359-7.17925 19.40993-13.91004 26.95472-12.44884 13.95436-30.54794 21.64446-46.60618 31.22729-4.70981 2.8106-9.43348 5.70828-14.55083 7.68173-21.25735 8.19765-43.73036 13.27954-66.21828 16.93602-20.07863 3.26473-40.52661 4.37098-60.86892 4.38898-20.38225.018-40.82179-1.38573-60.99613-4.28965-22.73647-3.27272-45.67555-7.04438-67.31538-14.74994-5.16057-1.83759-10.0043-4.53897-14.66341-7.4201-16.050902-9.92565-33.223745-19.38846-45.438361-33.77433zm321.712051 56.31494c5.17152-1.82025 10.19926-4.10632 14.98285-6.78499 14.49483-8.11669 28.66798-17.12018 41.2534-27.96398 8.85323-7.62808 18.10352-15.55845 23.74578-25.79232 3.78859-6.87171 6.03166-14.74886 6.03166-22.72744 0-14.6474-7.32501-28.12614-19.1315-39.40962-11.80465-11.28348-28.13049-20.86055-47.91883-28.86127-39.57668-15.998696-93.17334-25.59883-152.34713-25.599291s-112.77045 9.601518-152.34528 25.600211c-19.788341 7.9998-36.115108 17.57686-47.918826 28.86126-11.806489 11.28256-19.111176 24.7613-19.111176 39.40778 0 0 .381727 9.3094 2.038882 13.58482 4.439414 11.45358 11.564745 22.10073 20.244942 30.79251 13.738444 13.75678 31.751816 22.56947 48.693568 32.10734 4.65059 2.61819 9.45362 5.03019 14.46822 6.85684 21.44208 7.81063 43.76248 13.33501 66.2285 17.34083 22.32865 3.98132 45.04313 6.6576 67.72381 6.57744 22.57843-.0798 45.14776-3.03155 67.37052-7.02416 22.3543-4.01624 44.56673-9.42526 65.99061-16.96596zm-352.759052 26.41327v4.74281c0 10.8887 7.6729 23.34509 15.582162 32.27408 12.087857 13.64632 29.513946 21.8679 46.113671 29.40364 21.166969 9.60912 44.898389 16.49884 67.931399 22.83669 5.08799 1.40003 10.25652 2.55426 15.47441 3.34249 24.40272 3.68636 49.07834 6.43325 73.75793 6.44261 24.89586.009 49.78141-2.799 74.4092-6.44261 5.3319-.78884 10.6226-1.91391 15.82331-3.32955 23.07531-6.28112 46.81757-13.23102 68.00884-22.84947 16.60023-7.53463 34.02613-15.75704 46.11367-29.40364 7.90888-8.92897 15.55815-21.38447 15.55815-32.27408v-69.06737c-6.30973 8.00188-19.30021 17.35334-29.77039 24.91224-12.10735 8.74086-25.22629 16.00184-38.1418 23.49718-4.84491 2.81168-9.52423 6.03644-14.75154 8.04989-22.18265 8.54428-45.85164 13.007-69.34057 16.66-22.26181 3.46216-44.87993 4.91103-67.40935 4.91436-22.62105.003-45.34267-1.37416-67.68498-4.91436-23.3791-3.70448-46.79246-8.66728-68.94626-17.00486-5.22454-1.96625-9.98067-5.00963-14.869104-7.70503-12.578129-6.93535-25.497248-13.42383-37.184885-21.77293-10.934446-7.81107-23.389363-17.40533-30.673863-26.30443v32.73521z" fill="url(#b)"/></g><g transform="matrix(-1 0 0 -1 500.08984 621.10936)"><path d="m250.04492 165.32617c-48.60141 0-92.9433 15.3335-125.79101 41.10156-32.847714 25.76807-54.392582 62.79352-54.392582 104.12696s21.544868 78.35693 54.392582 104.125c32.84771 25.76807 77.1896 41.10351 125.79101 41.10351s92.94331-15.33544 125.79102-41.10351 54.39258-62.79156 54.39258-104.125-21.54487-78.35889-54.39258-104.12696c-32.84771-25.76806-77.18961-41.10156-125.79102-41.10156z" fill="#86522c"/><path d="m412.22812 310.55399a162.18382 127.22847 0 0 1 -162.18382 127.22847 162.18382 127.22847 0 0 1 -162.183826-127.22847 162.18382 127.22847 0 0 1 162.183826-127.22847 162.18382 127.22847 0 0 1 162.18382 127.22847z" fill="url(#c)"/><g fill="#b57720" opacity=".5" stroke-width="3.77952" transform="matrix(-1 0 0 -1 500.08984 623.10936)"><path d="m239.23438 204.17383c-3.96918.2041-8.51368.98242-8.51368.98242s13.09218 10.57294 18.88086 16.64648c5.43044 5.69768 14.74805 18.44141 14.74805 18.44141s1.64789.00874 2.4668.02344c8.98793.19427 26.47461 3.58203 26.47461 3.58203s-12.87127-23.92901-23.60547-31.45313c-7.66517-5.37287-17.55804-7.16816-26.86328-8.18554-1.00555-.10994-2.26484-.10515-3.58789-.03711zm-43.29297 11.46679c-8.16036.2707-23.85938 5.54297-23.85938 5.54297s26.74962 10.43931 38.76953 18.1211c10.22834 6.53682 27.84961 23.46289 27.84961 23.46289l18.13672-14.33789s-28.02624-23.52366-44.74609-30.15235c-5.07052-2.01023-10.69893-2.81755-16.15039-2.63672zm.44531 26.25391c-19.61118 3.36265-39.43821 20.08076-52.75781 36.91016-17.44431 22.04097-30.90774 50.24591-31.17579 78.35351-.1555 16.30817 2.7068 30.64334 8.97461 45.32032 2.70247 2.44957 5.47492 4.84341 8.38086 7.12304 31.09853 24.39588 73.54282 39.18164 120.23633 39.18164 8.93883 0 17.71733-.55219 26.29492-1.59961l-17.81054-8.00976c-66.48659-24.07282-85.97064-141.52933-23.32227-129.78125 2.90445-7.04665 5.48242-20.62891 5.48242-20.62891s6.19441 10.20008 6.1836 15.88086c-.0121 6.34636-4.83694 11.88464-6.97657 17.71485 16.33911 42.4073 56.60268 79.94495 84.32618 83.67968.45524.0151.94736-.00126 1.46875-.04492 8.46553.51492 17.84039-2.09983 25.97461-11.0957l3.97265-4.39453-5.21094-2.81446c-3.23723-1.74871-7.11021-3.52961-9.03906-5.43554-.96415-.95324-1.3895-1.72627-1.52929-2.58399-.14022-.85818-.06467-2.10297 1.10937-4.26758l5.31055-9.77929-10.6875 3.0957c-3.13629.90796-8.60998-1.50828-11.55469-5.32813-1.47265-1.91039-2.19406-3.93385-2.18359-5.39453.0113-1.46164.35994-2.54867 2.36328-4.0039l9.67773-7.02735-11.88281-1.35351c-4.9621-.56565-8.14409-3.31323-9.53711-6.11719-1.39401-2.80293-1.15069-5.01615.68359-6.62109l6.07227-5.3125-7.64063-2.58985c-3.34173-1.13231-5.12199-3.75775-5.15234-5.28906-.0151-.68307.11782-1.32609.91602-2.22656 5.43775-1.18904 10.57667-.22493 13.9746 3.16992 3.06165 3.05767 4.15379 7.5277 3.47071 12.35547 4.2537-1.12134 8.45038-.80453 11.99609 1.24023 4.64671 2.68006 7.28601 7.80625 7.79492 13.91211 7.56809-5.04071 15.99533-6.33 22.51758-2.56836 7.69492 4.43777 10.62746 14.68305 8.36133 25.7461 11.93616-16.59427 17.20818-37.66912 2.79492-59.91407-23.24644-2.20996-40.643-15.26254-46.41406-33.65234-2.50046-7.96803-10.58986-14.26262-20.91602-18.80273-14.81566-5.33061-27.6685-8.579-41.0957-9.22852-1.12145-.008-2.24825-.04087-3.34375-.04687-4.74473 11.37995-14.25897 19.85046-28.57422 22.9121l-2.93945.62891-1.77735-2.41992c-7.07254-9.61677-20.51268-20.12601-36.8164-28.89258zm77.7168 32.46875c13.89407-.0381 22.32649 5.77867 20.9414 22.11328-17.83258 1.68654-25.83815-8.29922-31.38086-21.20898 3.73477-.57464 7.23278-.89556 10.43946-.9043zm24.08398 33.01563c1.84428.0345 3.55259.49395 4.98242 1.39843-.75122.54826-1.44246 1.13537-2.07031 1.76368-2.60988 2.60695-4.02219 6.03074-3.95703 9.32421.0911 4.63775 2.62013 8.54808 6.30664 11.22266-1.56215 4.03125-1.21868 8.68379.70117 12.54688 1.89702 3.81489 5.24241 7.10212 9.60156 9.15429-.7189 1.67467-1.18092 3.41336-1.19336 5.13867-.0302 4.18254 1.68092 7.98051 4.11524 11.13868 3.37908 4.38304 8.3892 7.92807 13.94336 8.91015-.0907 1.08461-.10137 2.15568.0664 3.1875.52241 3.2059 2.24706 5.80263 4.16993 7.70313 1.69651 1.6766 3.57608 2.92938 5.37109 3.97461-3.15666 2.38408-6.17521 3.51181-9.26172 3.87695-3.24125-3.9487-4.83085-9.49428-4.68164-15.64844-5.8541 3.07306-12.04437 3.56051-16.97461.7168-7.29739-4.20892-9.64808-14.44716-6.56055-25.04102-5.63973 1.3781-11.01057.45764-14.52148-3.05078-4.41536-4.41036-4.74346-11.75261-1.53906-18.8789-1.8288-.30614-3.46369-1.07844-4.73828-2.35157-4.38203-4.37706-2.87212-12.98002 3.37109-19.21679 3.90194-3.89794 8.72838-5.94773 12.86914-5.86914z" fill="#b57720" filter="url(#f)" stroke-width="3.77952"/><g stroke-width="3.78"><path d="m230.7207 205.15625s8.40701 6.89033 15.66407 13.56641c-6.39281-6.02441-15.66407-13.56641-15.66407-13.56641zm44.78321 12.66602c9.0671 9.93242 17.78711 26.02734 17.78711 26.02734s-17.48669-3.38776-26.47461-3.58203c-.81891-.0147-2.4668-.02344-2.4668-.02344 1.01661 1.36119 3.05664 4.07813 3.05664 4.07813s2.59125-.06939 3.41016-.05469c8.98792.19427 26.47461 3.58203 26.47461 3.58203s-11.47158-21.31133-21.78711-30.02734zm-27.01953 2.91211c.49473.46966.88266.88059 1.35156 1.33789-.0705-.0749-.16514-.19689-.23438-.26954-.29966-.31441-.78122-.73193-1.11718-1.06835zm-76.40235.44921s29.42119 13.20854 42.76953 22.1211c10.09526 6.7405 27.84961 23.46289 27.84961 23.46289l18.13672-14.33789s-2.53142-2.81728-4-4l-18.13672 14.33789s-17.62128-16.92608-27.84961-23.46289c-12.0199-7.68178-38.76953-18.1211-38.76953-18.1211zm56.94531 44.66211c1.54126 1.66273 2.98105 3.31687 4.17578 4.94141l1.77735 2.41992.80469-.17187c-1.90741-2.36777-4.16966-4.77271-6.75782-7.18946zm98.77149 4.79688c1.83015 2.20139 3.25198 4.55608 4.05078 7.10156 2.35937 7.51825 6.68825 14.12274 12.53906 19.48047-3.76078-4.17138-6.59462-9.28441-8.53906-15.48047-1.30719-4.16551-4.16791-7.86211-8.05078-11.10156zm-53.69531 3.7207c-3.20668.009-6.70469.32966-10.43946.9043 4.0445 9.42022 9.4211 17.25845 18.94922 20.16601-9.07401-6.30121-14.94922-16.16601-14.94922-16.16601s7.23278-.89556 10.43946-.9043c5.79705-.0159 10.6262 1.00776 14.20507 3.36914-3.44985-5.26238-9.82331-7.39212-18.20507-7.36914zm-33.41407 14.40039s-2.57797 13.58227-5.48242 20.62891c-52.9303-9.92571-47.22855 72.37144-4.08984 112.66211-39.42462-41.46922-43.14989-118.2708 8.08984-108.66211 2.4061-5.83759 4.23826-14.62554 4.91602-17.9961-1.65929-3.6272-3.4336-6.63281-3.4336-6.63281zm57.49805 18.61524c-4.14076-.0786-8.9672 1.9712-12.86914 5.86914-6.2432 6.23676-7.75312 14.83974-3.37109 19.21679.49828.49772 1.06355.89761 1.66211 1.24414-.4824-1.8223-.35251-3.92278.03906-6.15429.61013-3.47744 2.54831-7.18827 5.66992-10.30664 3.31003-3.30662 7.26405-5.19017 10.92187-5.66602.28689-.34746.53498-.71698.85938-1.04101.62785-.62831 1.31909-1.21542 2.07031-1.76368-1.42983-.90448-3.13814-1.36393-4.98242-1.39843zm80.07617 4.01757c14.41325 22.24493 9.14123 43.31981-2.79492 59.91407 5.96807-8.29712 14.16435-14.46595 15.2793-23.83789 1.50325-12.63595-5.27776-24.95371-12.48438-36.07618zm-66.91015 5.57422c-1.29949.0237-2.64058.18712-4 .48438-.7982.90047-.93112 1.54349-.91602 2.22656.0269 1.35476 1.49708 3.51101 4.13281 4.78711-.0658-.24575-.1153-.50346-.13281-.78711-.0151-.68307.11782-1.32609.91602-2.22656 4.35858-.95307 8.50845-.49592 11.74023 1.46094-.49356-.82477-1.07241-1.59871-1.76563-2.29102-2.54844-2.54613-6.07615-3.7253-9.9746-3.6543zm7.87695 10.58985-6.07227 5.3125c-1.83428 1.60494-2.0776 3.81816-.68359 6.62109.78203 1.57413 2.18953 3.08383 4.09766 4.24609-.0387-.0838-.05586-.16202-.09766-.24609-1.39401-2.80293-.35034-4.71233 0-7.0293.46449-3.07187 2.75586-8.90429 2.75586-8.90429zm11.06836 4.79883c-.76693-.03607-1.54483-.01731-2.33008.05468-1.047.096-2.1065.28607-3.16992.56641 0 0 11.93246 1.37136 15.99609 5.24023 2.56255 2.43974 3.79492 9.91211 3.79492 9.91211-.50891-6.10585-3.14821-11.23205-7.79492-13.91211-1.99446-1.15017-4.1953-1.75313-6.49609-1.86132zm14.29101 15.77343s10.44554-.96495 15.65235-.58398c3.67428.26884 7.60412.13481 10.86523 2.01562.45329.26143.77981.5516 1.17383.82617-1.37808-1.96037-3.08526-3.62166-5.17383-4.82617-6.52224-3.76163-14.94949-2.47234-22.51758 2.56836zm-57.90429-13.3164c-3.2044 7.12628-2.8763 14.46855 1.53906 18.8789.74185.74133 1.58174 1.34251 2.47461 1.85547-1.02428-1.92612-1.52241-4.17718-2.10156-6.27734-1.29242-4.68658-1.91211-14.45703-1.91211-14.45703zm47.20898 12.14843-9.67773 7.02735c-2.00334 1.45523-2.35198 2.54227-2.36328 4.0039-.0105 1.46068.71094 3.48415 2.18359 5.39453.9319 1.20886 2.12797 2.25424 3.41211 3.1211-1.05464-1.63541-1.60458-3.27735-1.5957-4.51563.0113-1.46163 1.61463-2.64692 2.36328-4.0039 1.99716-3.62002 5.67773-11.02735 5.67773-11.02735zm-24.10742 3.33789c.9859 1.34705 2.21476 2.5502 3.57031 3.65235.13525-.38866.23019-.78317.39453-1.16602-1.45671-.68578-2.75056-1.55128-3.96484-2.48633zm-7.04102 6.44336c-3.0761 10.55465-.74757 20.74863 6.48633 24.98633-1.26324-1.88781-2.24329-4.02403-3.10156-6.07226-2.47531-5.90728-3.38477-18.91407-3.38477-18.91407zm43.53321 8.87696-5.31055 9.77929c-1.17404 2.16461-1.24959 3.4094-1.10937 4.26758.13978.85772.56514 1.63075 1.52929 2.58399.68371.67559 1.65764 1.33222 2.71485 1.98047-.0983-.23351-.24414-.56446-.24414-.56446s-.15332-3.3521 0-5.01758c.4049-4.39862 2.41992-13.02929 2.41992-13.02929zm-74.63477 6.74609c17.0454 20.46339 36.28512 34.76431 47.68359 36.03711 18.82908 2.10253 28.20368-.51195 36.3379-9.50781l5.18164-5.57813-5.20899-2.8164-3.97265 4.39453c-8.13422 8.99586-17.50909 11.61062-25.97461 11.0957-.52139.0437-1.01351.06002-1.46875.04492-15.71288-2.11674-35.44806-15.10411-52.57813-33.66992zm49.12695.80469c2.54387 3.2615 5.98353 6.04981 9.88282 7.64258-.11514-.92517-.11779-1.87517-.03711-2.83985-3.63496-.64273-6.98157-2.44798-9.84571-4.80273zm5.50977 7.89648c-.14921 6.15416 1.44039 11.69974 4.68164 15.64844.52842-.0625 1.05262-.18139 1.57813-.29102-.39814-.9062-.78712-1.82276-1.19141-2.70703-1.88903-4.13167-5.06836-12.65039-5.06836-12.65039zm10.79102 9.66016c.55583.7768 1.14574 1.50861 1.78125 2.13672.18871.18649.39694.31779.58984.49414.26117-.18143.5183-.32094.78125-.51953-1.04318-.60745-2.1043-1.32069-3.15234-2.11133z" fill="#efbd76" opacity="1"/><path d="m235.23438 200.17383c-3.96918.2041-8.51368.98242-8.51368.98242s1.57686 1.97867 4 4c0 0 8.07939-1.38507 12.10157-.94531 9.30523 1.01738 19.19811 2.81268 26.86328 8.18554.60006.42062 1.20755.90969 1.81836 1.42579-1.95348-2.13991-3.91566-4.09209-5.81836-5.42579-7.66517-5.37286-17.55805-7.16816-26.86328-8.18554-1.00555-.10994-2.26485-.10516-3.58789-.0371zm-43.29297 11.46679c-9.1902.39183-26.75586 6.75001-26.75586 6.75 0 0 2.72557 1.15137 6.89648 2.79297 0 0 15.69902-5.27227 23.85938-5.54297 5.45145-.18082 11.07987.6265 16.15039 2.63672 12.69986 5.03495 31.77344 19.70049 40.2832 26.51758l4.46289 3.63477s-32.02626-27.52366-48.74609-34.15235c-5.07052-2.01022-10.70089-2.86904-16.15039-2.63672zm54.63867 7.26954c5.83606 6.35907 17.76953 21.33398 17.76953 21.33398s-9.31761-12.74373-14.74805-18.44141c-.81088-.85078-1.98005-1.90663-3.02148-2.89257zm-54.64453 23.99609c-18.53964 4.40682-39.08032 16.57279-52.30664 31.89844-18.36499 21.27992-30.90774 50.24594-31.17579 78.35351-.15703 16.46837 2.75473 30.92395 9.15235 45.75196 1.25256 1.2176 2.54156 2.40604 3.84375 3.58593-6.28321-14.68556-9.15161-29.02868-8.9961-45.33789.26805-28.10757 13.73149-56.31256 31.17579-78.35351 12.31185-15.55611 30.18462-30.99225 48.30664-35.89844zm70.55859 2.75977c-4.74472 11.37993-14.25898 19.85047-28.57422 22.9121l-2.13476.45704c.47067.58426.99261 1.17356 1.41796 1.75195l1.77735 2.41992 2.93945-.62891c14.31524-3.06163 23.8295-11.53217 28.57422-22.9121 1.0955.006 2.2223.0389 3.34375.0469 13.42719.64952 26.28006 3.89791 41.0957 9.22852 4.92787 2.16663 9.32072 4.744 12.86524 7.70117-3.8987-4.68954-9.83789-8.61146-16.86524-11.70117-14.81564-5.33061-27.66851-8.579-41.0957-9.22852-1.12145-.008-2.24825-.0409-3.34375-.0469zm25.81445 32.0664c2.26882 3.46083 3.28585 8.2636 2.73633 14.74414-8.90578.84228-15.36043-1.22658-20.28125-5.11718 5.30783 6.34784 12.70702 10.21183 24.28125 9.11718.80719-9.51926-1.73755-15.44589-6.73633-18.74414zm-47.61914 11.03125s-.42603 1.93472-.5664 2.63281c1.41573 3.09481 2.75497 6.63263 2.75 9.24805-.0121 6.34635-4.83694 11.88464-6.97657 17.71485 8.33269 21.62702 22.89552 41.95675 38.83594 57.21289-14.34595-14.73105-27.20801-33.41503-34.83594-53.21289 2.13963-5.83021 6.96447-11.3685 6.97657-17.71485.0108-5.68077-6.1836-15.88086-6.1836-15.88086zm100.22071 4.94141c8.22209 9.31251 24.54677 19.61517 39.39854 21.44549-.61947-1.29261-1.27344-2.56323-2.04492-3.75391-13.45934-1.27953-28.9374-10.21147-37.35362-17.69158zm-42.72266 13.67383c-.62815-.0119-1.29315.11803-1.94727.20312-2.02118 2.44794-3.15471 5.39911-3.09765 8.2832.0911 4.63775 2.62013 8.54808 6.30664 11.22266-1.56215 4.03125-1.21868 8.68379.70117 12.54688 1.26308 2.54004 3.21733 4.80493 5.63672 6.66796-.62397-.85252-1.17688-1.74325-1.63672-2.66796-1.91985-3.86309-2.26332-8.51563-.70117-12.54688-3.68651-2.67458-6.21554-6.58491-6.30664-11.22266-.0652-3.29346 1.34715-6.71727 3.95703-9.32421.62785-.62831 1.31909-1.21542 2.07031-1.76368-1.42983-.90448-3.13814-1.36393-4.98242-1.39843zm20.66602 11.38867c.59702 1.09044 1.07528 2.25422 1.61328 3.37109 1.68875 3.50581 4.33203 10.8418 4.33203 10.8418.68308-4.82777-.40906-9.2978-3.47071-12.35547-.74218-.74152-1.58138-1.34486-2.4746-1.85742zm-12.29297 1.38086c.30977 1.55392 1.9846 3.7906 5.02929 4.82226l7.64063 2.58985c-2.5469-.86318-8.10955-3.86729-11.64063-6.58985-.30434-.23466-.68192-.55654-1.02929-.82226zm-24.88477 11.95312c.10159.11383.16265.25457.27149.36328 1.27458 1.27313 2.90948 2.04543 4.73828 2.35157 0 0-2.59845-1.13712-5.00977-2.71485zm55.44531 2.33985c.36946.48937.76938.95771 1.12305 1.45117 2.67746 3.73568 6.3457 12.24023 6.3457 12.24023-.49632-5.95491-3.03374-10.9605-7.46875-13.6914zm-24.89843 4.37695c.0948.2295.13358.43778.25195.67578 1.39302 2.80396 4.57501 5.55154 9.53711 6.11719l11.88281 1.35351s-10.84658-2.93518-15.88281-5.35351c-1.79575-.86229-3.93744-1.74784-5.78906-2.79297zm55.51953 7.20508c1.29835 1.85144 2.3409 3.92402 3.28125 5.92968 2.81035 5.99428 4.44531 19.35743 4.44531 19.35743 2.19859-10.73335-.53677-20.65009-7.72656-25.28711zm-58.38477 3.93164c-.45637 1.31144-.78923 2.64177-.79883 3.97265-.0302 4.18254 1.68092 7.98051 4.11524 11.13868 1.16762 1.51452 2.58545 2.86415 4.09765 4.10742-.0295-.0378-.0684-.0695-.0976-.10742-2.43432-3.15817-4.14544-6.95614-4.11524-11.13868.0124-1.7253.47446-3.464 1.19336-5.13867-1.63293-.76874-3.06872-1.75602-4.39453-2.83398zm-22.96875 1.26367c.51318.88972 1.0955 1.73696 1.83594 2.47656 3.51091 3.50842 8.88176 4.42888 14.52148 3.05078 0 0-8.16756-2.10017-12.05859-3.6914-1.43088-.58517-2.93214-1.10397-4.29883-1.83594zm15.70313 8.38086c-.13783.68533-.2558 1.36275-.34766 2.03906.11339-.72558.22914-1.44028.34766-2.03906zm21.04882 2.45117c.26105.4472.55463.89638.89649 1.33984 2.94471 3.81985 8.4184 6.23609 11.55469 5.32813l10.6875-3.0957s-9.93075.2941-14.6875-.9043c-2.85067-.71818-5.87622-1.18898-8.45118-2.66797zm3.51368 14.76563c.0143.11502.0107.23355.0293.34765.52241 3.2059 2.3323 5.43497 4.16993 7.70313.79974.98712 2.01284 2.10446 3.29296 3.20898-1.61983-1.81174-3.00695-4.11412-3.46289-6.91211-.16777-1.03182-.1571-2.10289-.0664-3.1875-1.35932-.24035-2.68471-.63805-3.96289-1.16015zm-22.08985.41015c1.23233 1.86822 2.79925 3.43992 4.74219 4.56055 4.93024 2.84371 11.12052 2.35626 16.97461-.7168 0 0-8.5901-.706-12.83398-1.42383-2.74465-.46424-5.67551-.43751-8.14063-1.85937-.27457-.15837-.5008-.36801-.74219-.56055zm35.44727 2.86524c.20204.69635.5746 1.36883 1.37695 2.16211 1.92885 1.90592 5.80184 3.68683 9.03906 5.43554l5.21094 2.81446s-6.03577-4.69211-9.21094-6.81446c-1.93891-1.29601-4.3928-2.42753-6.41601-3.59765zm-9.67383 12.49218c-.74864.003-1.21484.0472-1.82031.0723.67807 1.46998 1.45871 2.86056 2.44531 4.0625 3.08651-.36514 6.10506-1.49288 9.26172-3.87695 0 0-5.72259-.27417-9.88672-.25782zm-103.2207 25.47071c8.77792 9.23315 19.30458 16.73536 31.41211 21.11914l17.80859 8.00976c1.25335-.15303 2.48995-.34697 3.73438-.52148l-25.54297-11.48828c-10.31339-3.73418-19.49185-9.72178-27.41211-17.11914z" fill="#86522c" opacity="1"/></g></g><path d="m421.22852 310.55469c0-38.23321-19.84874-72.65098-50.94727-97.04688-31.09853-24.39588-73.54282-39.18164-118.83211-39.18164s-76.85226 18.06483-107.21434 39.86945c26.72043-17.39486 60.53711-25.73511 91.97614-24.8421 41.94192 1.19134 84.90761 18.85584 117.40429 45.39843 26.61455 21.73819 54.28892 52.45521 55.63086 86.79297.41565 10.63549-2.06331 21.28718-6.38451 31.4538 6.7064-14.49316 18.36694-26.01779 18.36694-42.44403z" fill="#86522c" filter="url(#d)" opacity=".5"/><path d="m265.0625 430.77344c-42.20059-.97468-85.95319-17.64694-118.58984-44.41797-26.61958-21.83537-53.354452-53.3613-54.445316-87.77344-.85728-27.04353 16.520406-54.09163 36.974606-72.50195-27.73597 24.01271-50.140622 48.68202-50.140622 84.47461 0 38.23317 19.848772 72.64904 50.947262 97.04492 31.0985 24.39586 73.54288 39.18359 120.23633 39.18359 46.69346 0 85.83705-23.81312 116.93555-48.20898-27.74871 22.35666-66.3342 33.02107-101.91797 32.19922z" fill="#efbd76" filter="url(#e)" opacity=".5" stroke-width="3.77953"/><path d="m250.04492 165.32617c-48.60136 0-92.94334 15.33353-125.79101 41.10156-32.847685 25.76805-54.392582 62.79356-54.392582 104.12696s21.544897 78.35695 54.392582 104.125c32.84767 25.76804 77.18965 41.10351 125.79101 41.10351s92.94334-15.33547 125.79102-41.10351c32.84767-25.76805 54.39258-62.7916 54.39258-104.125s-21.54491-78.35891-54.39258-104.12696c-32.84768-25.76803-77.18966-41.10156-125.79102-41.10156zm0 18a162.18382 127.22847 0 0 1 162.1836 127.22852 162.18382 127.22847 0 0 1 -162.1836 127.22851 162.18382 127.22847 0 0 1 -162.183592-127.22851 162.18382 127.22847 0 0 1 162.183592-127.22852z" fill="#86522c"/></g></svg>