<svg height="500" viewBox="0 0 132.29167 132.29167" width="500" xmlns="http://www.w3.org/2000/svg" xmlns:xlink="http://www.w3.org/1999/xlink"><linearGradient id="a"><stop offset="0" stop-color="#93a0aa"/><stop offset=".25" stop-color="#9da9b2"/><stop offset=".375" stop-color="#7f8f9a"/><stop offset=".5" stop-color="#93a0aa"/><stop offset=".75" stop-color="#7c8c98"/><stop offset="1" stop-color="#93a0aa"/></linearGradient><linearGradient id="b" gradientUnits="userSpaceOnUse" x1="349.42004" x2="291.15082" xlink:href="#a" y1="36.779121" y2="28.492369"/><linearGradient id="c" gradientTransform="matrix(.11738552 -.22728798 .22728798 .11738552 197.19644 -178.51317)" gradientUnits="userSpaceOnUse" spreadMethod="reflect" x1="-612.31812" x2="-483.20636" xlink:href="#a" y1="920.28809" y2="931.4765"/><linearGradient id="d" gradientTransform="matrix(.11738552 -.22728798 .22728798 .11738552 197.19644 -178.51317)" gradientUnits="userSpaceOnUse" spreadMethod="reflect" x1="-569.57452" x2="-617.13391" xlink:href="#a" y1="704.43195" y2="902.24066"/><g transform="translate(-232.68653 10.394203)"><g><path d="m1083.4457 97.405735-6.9002 16.868385 9.9045 45.72511c4.7212 18.77322-.7573 20.52807 14.5214 29.65449l17.181 10.13811 37.108 21.99105 17.1576 10.54826 80.3068 47.96992c10.2782 7.3863 12.7269.0569 23.3233-6.93971l-27.4429-75.8685z" fill="#4a4c4f" transform="scale(.26458334)"/><path d="m290.44556 33.634382 2.61026 12.050616 2.97656 1.785938 17.85938 10.667997 15.93056 9.525-3.00228-11.986792z" fill="url(#d)"/><path d="m290.44556 33.634382 2.61026 12.050616 2.97656 1.785938 17.85938 10.667997 15.93056 9.525-3.00228-11.986792z" opacity=".15"/></g><g stroke-linecap="round" stroke-linejoin="round"><path d="m310.91359 60.98439c1.60521-1.448179 3.71942-2.7492 4.54375-4.789644.64198-1.589102.58918-3.516119.0454-5.141446-.55684-1.664333-1.85675-3.053808-3.2054-4.176848-1.79743-1.496746-3.93156-2.870802-6.24819-3.193604-2.4798-.345538-5.24717.01311-7.36802 1.459913l-6.74017 4.598004-52.83421 36.062611s-1.97584 2.466703-2.1155 3.955348c-.2694 2.871345.75355 6.031537 2.59018 8.255042 1.61941 1.96052 4.19053 3.323804 6.71638 3.617354 2.84738.33091 5.72282-.44817 8.30473-2.232763z" fill="#63452c"/><path d="m309.6746 50.824042c-.99567-1.443606-2.78295-2.479273-4.52456-2.68448-1.51497-.178502-4.3707 1.356413-4.3707 1.356413-1.27429.912774-2.98535 2.035695-4.30141 2.933505l-54.59811 37.246518c-.80152 1.457437.26113 3.888086 1.39633 5.333169.81527 1.037816 2.17027 1.752968 3.48377 1.881182 1.7881.174542 3.048-.14287 5.14826-1.595432l54.34352-37.073275 4.1967-2.950021c.99981-2.072404.0806-3.20884-.7738-4.447579z" fill="#865e3c" stroke-width="9.525"/></g><g><path d="m1336.9799 127.86222-144.3515-87.499762c-4.9013-4.029402-9.0473-3.447037-13.7134-3.050521-5.5794.474142-10.2982 2.83347-15.5473 6.362416l-80.0823 53.839145s-5.8563 3.901272-7.0822 6.981122c-1.2062 3.03057.3423 9.77944.3423 9.77944l148.4671 89.97037 16.9171 10.25167 16.3394-11.14692 72.8367-49.68992 15.8348-10.80266s-1.2341-6.97137-3.2122-9.77217c-1.6408-2.32338-6.7485-5.22221-6.7485-5.22221z" fill="#4a4c4f" transform="scale(.26458334)"/><path d="m312.29632 14.27631-21.1455 14.216063 37.29038 22.598062 20.97882-14.311313z" fill="url(#b)"/></g><g><path d="m1320.6426 139.0077-88.2392 60.19488 14.1691 56.53511 19.6143 11.72755 9.8613 5.89611 73.1182-48.28099c17.1894-9.13188 15.6893-11.36894 11.2362-28.98821l-13.4619-53.23555z" fill="#4a4c4f" transform="scale(.26458334)"/><path d="m352.18842 40.655679-21.12177 14.409483 3.42293 13.622711 21.24075-14.025563z" fill="url(#c)"/><path d="m352.18842 40.655679-21.12177 14.409483 3.42293 13.622711 21.24075-14.025563z" opacity=".1"/></g></g></svg>