<svg height="500" viewBox="0 0 132.29167 132.29167" width="500" xmlns="http://www.w3.org/2000/svg" xmlns:xlink="http://www.w3.org/1999/xlink"><radialGradient id="a" cx="6.717243" cy="-1.38719" gradientTransform="matrix(.58748298 .30107087 -.19754253 .38546685 10.944545 1.867729)" gradientUnits="userSpaceOnUse" r="47.911266" spreadMethod="reflect"><stop offset="0" stop-color="#f4eed7"/><stop offset="1" stop-color="#e0d8b8"/></radialGradient><g transform="matrix(.84669106 0 0 .84669106 30.956952 11.805257)"><g id="b" transform="matrix(.78850698 0 0 .78850698 2.098771 6.911934)"><path d="m106.22221 112.50035c-14.02509 1.26982-28.56459 1.44655-44.28776-.89197-9.21685-1.36732-19.65819-3.35597-28.41552-6.59167l-7.08155-1.26154c-.008 1.5805.88563 4.11586.76719 5.91098.13593 4.40844.5955 14.05954.75152 18.46732 10.43627 1.43898 20.87253 2.87795 31.3086 4.31836 1.00548-2.23911 2.01178-4.47784 3.01758-6.7168 1.28779 2.18553 2.57533 4.3712 3.86328 6.55664 15.80714 1.79133 31.92695 2.458 47.65679-.35468 8.16838-1.49917 16.39885-3.87159 23.27094-8.6961 1.84758-1.77626 1.92919-4.51265 1.95703-6.9043.56014-4.07592-.2737-7.98365-.88773-12.50279l-7.47553-.3058c-6.62665 6.3764-17.04505 7.67974-24.44484 8.97235z" fill="#472f1f" stroke-width=".355304"/><path d="m68.64659 30.470637c-9.60247-4.23372-16.75021-3.72726-25.38149 2.76356-11.32704-4.22306-17.29918-1.7303-24.28788 4.26614l-4.94688-5.0075c1.97605 24.10087 9.31039 47.35226 12.40704 71.262333.30216 1.94977.36876 3.96424.76719 5.91098.60099 1.00281 5.60485 1.85579 6.55447 2.33258 17.88474 5.1932 17.4337 4.3122 25.14575 5.7671l6.55515.86351c9.87147 1.0104 51.07319 4.20697 67.01555-7.78092-2.44382 1.54644 5.58572-3.08417 5.66709-7.01462-2.47783-10.260703-8.79901-19.721333-17.86411-25.274343-6.42805-4.01444-14.12514-5.67767-21.65129-5.38867-3.04184.10624-6.07071.52166-9.03824 1.19315 1.49757-15.31855 3.03308-30.63496 4.36133-45.96875l.66304-4.21813c-11.82591-4.77431-21.3642 2.74339-25.96672 6.29358z" fill="#645835" stroke-width=".355304"/><path d="m30.66396 31.306617c-4.38043.6466-7.16406 2.43521-11.68674 6.19372 0 0 3.02931 1.95405 3.11783 2.64684 2.7531 21.54603 9.05889 43.31712 11.4241 64.869323 15.36349 5.48334 36.64671 8.5307 55.57387 8.42894 9.8851-.0535 19.14194-.95882 26.53068-2.70836 4.8476-1.68199 12.10982-3.53158 15.3541-7.14116-4.89681-15.959634-20.28543-29.060334-44.72432-21.212034-3.60607.0632-4.40597-1.030139-4.32068-4.163133l4.1874-40.455046c.62629-5.06552 1.15054-10.24572 1.9854-15.0118-7.84347-.52799-15.1021 3.85663-19.45901 7.71673-6.41556-2.94563-14.9998-5.19062-25.38149 2.76356-3.61152-1.0052-8.80298-2.54524-12.60114-1.92758z" fill="#958450" stroke-width=".355304"/><path d="m132.47549 110.84736c.00004.00026-.00004.00079 0 .001.00027-.00022.0008-.00027.001-.00053zm0 .001c-3.94055 2.82466-9.17634 4.7571-15.21664 6.18773-8.13397 1.92594-17.83799 2.84384-28.12697 2.89905-7.71846.0417-15.75681-.3995-23.67194-1.30586l4.53048 7.68738c29.14052 3.27751 51.44311-.41847 62.53985-7.56904.26099-2.58334.23881-5.24232-.0548-7.89926zm-98.71646 1.15031.36174 10.57869 21.30103 2.93625 3.48299-7.74784c-8.92101-1.329-17.52327-3.25845-25.14576-5.7671z" fill="#593a26" stroke-width=".355304"/><g fill="#472f1f" transform="translate(235.66293 115.77701)"><path d="m-175.12657-85.776793-3.39258 5.986328 16.71218 9.473091 10.8238 6.222327.73741-7.124181-11.6899-6.718222z" fill="#472f1f"/><path d="m-148.56244-86.155172-13.37322 8.217722-16.30648 9.93843 3.65347 5.471883 12.7817-7.790237 12.25153-7.571113z" fill="#472f1f"/><path d="m-151.56497-58.474186c-4.60514 3.145409-11.51542 7.632095-12.41955 8.493105l-16.2425 10.975715 3.92358 5.297902 12.84822-8.68167 11.00479-7.530483z" fill="#472f1f"/><path d="m-177.05849-56.524283-3.1518 5.748655 16.75507 8.386494 9.72509 4.83288.71116-6.870644-10.96555-5.554183z" fill="#472f1f"/></g><path d="m81.9328 78.220753 4.32068 4.163133.003.0033c-10.03567 3.575464-12.75906 6.244604-17.68743 9.18704 3.03428-4.185069 8.01306-10.068448 13.36335-13.35345z" fill="#645835"/><path d="m70.86991-8.74619c-7.15069.3211-14.51514 1.5394-20.70703 5.3379-.32999.32801-.80963-.17988-1.18603-.22258-4.59099-1.65958-9.3747-3.55805-14.35373-3.01658-6.70784.90231-13.37035 3.61322-18.15687 8.50617-.46186.47359-.89538.97456-1.30141 1.49666-4.2524-.34083-8.25738 1.808594-11.39418 4.502615-3.20181 2.590859-4.75557 6.585687-5.77901 10.455673-.71718 2.485426-.87829 5.12963-.31119 7.662803.94432 4.657504 3.62923 8.701969 6.50894 12.387825.40925.350421.59626 1.351474 1.2573.964191 1.93479-.485147 3.74307-1.494396 5.76111-1.619594 1.30684.570712 1.9886 1.933718 3.02923 2.844437 1.48048 1.624135 2.96109 3.248143 4.44147 4.87236 3.25957-3.005153 6.32267-6.537871 10.6316-8.036306 2.46933-.989094 5.18909-.758623 7.73205-.119365 2.50418.520858 4.91567 1.392155 7.33361 2.210359 3.50144-3.058886 7.67391-5.669005 12.36782-6.255927 3.50793-.130984 6.8479 1.217081 10.04489 2.501101.90623.38489 1.80023.797827 2.70058 1.196232 4.33344-3.527917 8.91291-7.188074 14.4878-8.441145 2.09037-.525636 4.23148.11336 6.31506.362455 1.38276.260119 2.89827.650672 3.73068 1.887769 1.41579 1.581142 2.81105 3.180614 4.21646 4.770999 1.85404-3.960809 4.79683-7.515188 5.4639-11.949503.90897-4.356512 1.0588-9.007891-.53633-13.229714-2.12055-6.112252-6.44654-11.502555-12.18173-14.570375-5.57553-3.0478-11.97002-4.42274-18.2935-4.51486-.60738-.009-1.21428.002-1.82149.0164z" fill="#a39976"/><path d="m66.55999-2.93781c-5.79798.51434-12.50982 2.67875-16.31056 6.23662-5.24834-2.3828-10.12835-5.14047-15.42241-4.39854-6.63808.93029-13.61908 3.8119-17.07671 10.618475-8.50256-3.572842-12.19105 4.360822-14.20659 9.736292-1.65504 4.41402.78374 10.01269 3.53345 13.69377 6.6091-2.1955 8.22769.51685 11.90005 4.55153 3.29952-3.1187 7.33979-5.45749 11.68674-6.19372 4.18957-.70958 9.29988.80581 12.60114 1.92758 3.11986-2.47893 8.18239-5.11654 12.81872-5.55887 4.27061-.40744 9.32243 1.36494 12.56277 2.79531 4.12062-3.30582 9.76587-6.98878 15.48462-7.64294 4.43303-.50709 10.76636.49721 13.03113 3.06098.9815-1.76462 2.29672-7.99217 1.32371-11.84362-1.24778-4.939048-4.43643-9.782951-8.70754-12.559427-6.60567-4.29408-15.37063-5.11962-23.21852-4.42344z" fill="url(#a)"/></g><use height="100%" transform="translate(-28.75 15.911953)" width="100%" xlink:href="#b"/></g></svg>