<svg height="500" viewBox="0 0 132.29167 132.29167" width="500" xmlns="http://www.w3.org/2000/svg" xmlns:xlink="http://www.w3.org/1999/xlink"><linearGradient id="a" gradientTransform="matrix(.11738552 -.22728798 .22728798 .11738552 -192.12552 -16.993715)" gradientUnits="userSpaceOnUse" spreadMethod="reflect" x1="482.51413" x2="221.17265" y1="1045.0068" y2="1003.0035"><stop offset="0" stop-color="#93a0aa"/><stop offset=".25" stop-color="#9da9b2"/><stop offset=".375" stop-color="#7f8f9a"/><stop offset=".5" stop-color="#93a0aa"/><stop offset=".75" stop-color="#7c8c98"/><stop offset="1" stop-color="#93a0aa"/></linearGradient><g transform="matrix(-.88763528 .15715944 .15715944 .88763528 113.9493 -5.874887)"><path d="m66.146122 6.5648474c-10.193867 0-19.800095 3.3046456-28.38503 9.2109396h-14.353646v107.238803h14.262894c8.61351 5.94095 18.265775 9.27708 28.475782 9.27708 10.209742 0 19.855392-3.33639 28.467315-9.27708h14.263153v-107.238803h-14.345438c-8.584936-5.906294-18.191163-9.2106751-28.385295-9.2106751z" fill="#713e0e" stroke-width=".264583"/><path d="m30.550931 23.473046h71.205979v92.042454h-71.20545v-92.042454z" fill="#c0d1d8" stroke-width=".264583"/><path d="m33.989957 26.912659v29.818926l35.207717-29.819476h-35.20744zm55.63471 0-55.634156 47.123657v15.531251l64.326172-54.495421v-8.159762h-8.692016zm8.691732 38.42439-55.253609 46.738571h12.915751l42.337858-35.210677zm0 18.230693-34.279529 28.508428h34.279529v-28.508703z" fill="#9da9b2" opacity=".658385" stroke-width=".275918"/><path d="m66.146484 3.125c-10.539863.0001157-20.479691 3.380317-29.314453 9.210938h-16.865234v114.119142h16.775391c8.863042 5.86439 18.843144 9.27539 29.404296 9.27539 10.560814 0 20.533958-3.41167 29.394532-9.27539h16.775394v-114.119142h-16.857426c-8.834671-5.8305211-18.772477-9.2108223-29.3125-9.210938zm0 6.878906c9.45065.000104 18.344275 3.038819 26.435547 8.605469l.88086.605469h11.974609v100.359376h-11.896484l-.88086.60937c-8.119274 5.60086-17.053239 8.66797-26.513672 8.66797-9.46077 0-18.403159-3.06721-26.523437-8.66797l-.880859-.60937h-11.894532v-100.359376h11.982422l.88086-.605469c8.091244-5.566631 16.985186-8.605365 26.435546-8.605469zm-39.035156 10.029297v3.439453 95.482424h78.085942v-98.921877zm6.878906 6.878906h64.326172v85.164061h-64.326172z" fill="#4a4c4f"/><path d="m66.145622 6.5648474c-10.19368.0001119-19.80004 3.3046132-28.38485 9.2108086h-14.35364v107.238934h14.26321c8.61351 5.94095 18.26578 9.27695 28.47578 9.27695 10.20974 0 19.85508-3.33626 28.467-9.27695h14.263208v-107.238934h-14.345358c-8.58481-5.9061954-18.1909-9.2106967-28.38485-9.2108086zm-35.59421 16.9080116h71.205458v92.042441h-71.205458z" fill="url(#a)"/></g></svg>