<svg height="500" viewBox="0 0 132.29167 132.29167" width="500" xmlns="http://www.w3.org/2000/svg"><g><path d="m49.511602 84.83938-2.50974.20865c-5.925019.309713-12.910809.32891-18.001619-1.136664-.184993-11.80458 1.450623-21.901813 4.993546-33.522284 5.749966.867387 11.060817 1.354522 16.109525 1.150888l2.363619-.09522-.42816-12.88324-2.468763-.04934c-7.544374-.350341-15.335691-1.836858-19.03257-2.902299l-6.746649-1.884634-.833568 2.872976c-5.896961 17.996728-8.486489 36.402185-7.835198 55.140721l.07006 1.993057 1.82955.797224c9.056042 3.945272 18.396525 4.081565 27.308006 4.059298l2.555165-.0064z" fill="#68423a"/><path d="m25.964392 37.583007c-5.783765 17.651204-8.318317 35.669005-7.679603 54.045387 8.342348 3.634355 17.174479 3.81892 26.036789 3.796774.496321-2.335648.960793-4.754405 1.390872-7.218095-6.77132.353951-13.519451.531549-19.893618-1.924535-.491468-14.107128 1.459034-25.653958 5.906106-39.45059 5.76223 1.371062 11.603358 1.816128 17.560069 1.575032-.01404-2.471071-.08161-4.757778-.217263-6.81521-7.83991-.364067-15.523103-1.822874-23.103352-4.007703z" fill="#a36842"/><g fill="#68423a"><path d="m99.456037 31.983 3.574333-3.655153 4.5732-10.269253h-63.074273l3.260053 10.412504 4.143686 3.511902z"/><path d="m38.478156 102.52324c-2.120186 5.5135-4.242323 11.02624-6.363773 16.53926h85.153367l-7.42102-16.53926h-2.72008-63.696752z"/><path d="m103.03037 28.327847-55.24102.143251 1.813414 14.982159c.307802 3.345732.08895 12.684978-.771071 22.819517-.993204 11.701349-4.458932 24.557927-7.044573 34.886066l-1.136814 4.529h67.148474l-.34891-3.29238c-2.07612-10.987784-3.99802-24.671164-4.99247-36.131829-.80587-9.290927-1.0692-17.881171-.74791-21.253622z"/></g><path d="m40.650306 105.68784-3.928389 10.21037h75.658303l-4.58144-10.21037h-67.148052z" fill="#a36842"/><path d="m52.923587 39.77164c.652196 7.056935.410683 16.535371-.461101 26.808177-1.007623 11.871243-2.924777 24.573552-5.576614 35.166133h56.918698c-2.09499-11.087632-3.96806-23.542108-4.976728-35.166556-.81631-9.411358-1.10381-18.1644-.428192-25.252133l.702147-9.345499-47.168761.122996z" fill="#b06f48" stroke-width="4.67122"/><path d="m98.385996 31.983077-.666084.0016c-.0047.08469-.0047.174391.0094.273367.210475.09783-.319162.395622-.09269.577377-.07334.184227-.0891.335573-.09347.743493-.150429 1.158797-.439754 2.192726-.367708 3.550545-.278964.689194-.327978 1.51563-.368519 2.313538-.04557.910103 0 1.810081 0 2.725605 0 1.286688-.138881 2.575284-.259661 3.815847v7.733299c.102054 1.169404.230012 2.306542.351557 3.401361.137008.483173.222288 1.013029.184681 1.652296-.129207.722251.292899.948654.18468 1.65149.352135 2.182388.325014 4.608605.461227 7.185761.06804 1.294088.150272 2.536554.09113 3.799716-.119532 2.523863.08692 5.006235.183838 7.434934.154174.595937.254168.910484.277372 1.486181-.03511.82177-.142158 1.580931-.09191 2.47885-.161399.390334.120624.375024.09191.824132-.03917 1.081074.03558 2.06366.09269 3.058646.01248.108562.01404.597886-.09269.330622-.203578.01045-.03885.349141-.09191.494316.01092.899562-.04962 1.861733.09191 2.643355.0476.122481-.01576.239962-.05961.23869-.0094 0-.01732-.0053-.02356-.01615-.01404-.0216-.01857-.06499-.0078-.139505-.199708-.01326-.04166.292236-.09191.412069.07849 1.233626-.152301 2.191515 0 2.890913-.229482.393538.181544.595475.09191 1.238618v1.653105c-.01248.108531-.01576.596845.09191.329811.199739-.01404.04244.293201.09363.413682-.196104.910772.05742 1.714503 0 2.726409.38662.0919.05259.82848.232243 1.10557.01248.0187.02637.0351.04354.0492v.68382h.803982c-.0696-.43343-.149804-.85686-.251593-1.2612-.100494-2.289979-.459666-4.72108-.459666-7.187368 0-2.5106 0-5.0086.184681-7.432516-.192936-3.242728-.151989-6.412735-.462038-9.582356-.309455-3.169219.04042-6.356608-.1839-9.662996-.354194-1.334871-.18504-3.13941-.370096-4.626271-.232696-1.470079-.302137-3.086307-.45887-4.625463-.08723-1.29566-.488378-2.803463-.554776-4.377904-.06694-1.604391-.122964-3.267573-.09191-4.956083.247849-1.229117.159074-2.472748.277404-3.716659.119531-1.262584.123432-2.549147.183854-3.798913.117503-2.474666.789953-4.796597.829792-7.186566.127646-.42081.218699-.87458.287078-1.348287zm-1.889378.0048-.620924.0016c.0047.361355.01607.724627.05321 1.093469-.03714 1.161256.224738 2.300426.277419 3.469905.05321 1.200747-.02185 2.438213.09269 3.633602.02512.263094.163536.498232.18468.744299.04135.464511-.09644.99882-.09269 1.237813.01248.737142.05602 1.497756.105643 2.260319zm-2.317585.0064-.520103.0016c.07693 1.117455.09675 2.206014.150741 3.482.03059.732789.0047 2.209128.09191 3.469905.05477.811728.215687 1.609392.277372 2.478043.06804.953843.04182 1.905724.09191 2.891722.200379 3.916804.672576 7.762824.73785 11.89428.0047.106346-.09207.134325-.09347.164506-.0047.09926.08255.890079.09347 1.238618.04229 1.466549.130767 2.835027.183854 4.21259.03683.939953-.06273 1.839096.184681 2.726413.09909 1.563589.10065 3.212231.183853 4.789966.289701 1.534983.254699 3.10309.367693 4.70772.109232 1.553318.203094 3.198132.186288 4.791578-.05399 4.895741.03183 9.883756-.233056 14.654561-.03792.681541-.0827 1.35871-.136228 2.030496.04135.748575.0062 1.59813 0 2.560298-.0047.933847.05196 1.926517-.184665 2.726407-.0047.31042-.0047.62054-.0047.93057h.516092c-.02481-.19723-.05165-.39798-.05243-.60076-.0047-.771.06211-1.613356.09269-2.394977.305851-7.918064.324265-16.18428.275797-24.366748-.41126-3.819833-.404987-8.058157-.645939-12.0604-.03308-.560317-.137789-1.096689-.09113-1.65149-.170277-2.399831-.06367-4.668868-.183854-6.855946-.127958-2.325323-.268493-4.578828-.462053-7.020446-.160322-2.287652-.246397-4.605222-.460477-6.855946-.07287-.753009-.224676-1.487824-.277404-2.23048-.09253-1.302714-.05352-2.645033-.09113-3.965029-.0062-.237676.0955-.506676.09113-.74188-.0062-.33555-.08754-.664536-.09113-.991862-.000047-.0053.000078-.01 0-.01529zm-1.865971.0048-.491905.0016c.03589.466567.06273.917406.05321 1.330546-.03917 1.707358.01654 3.300573-.09269 4.954472-.148088 2.240126-.184681 4.540568-.184681 6.855945 0 4.574987.32428 9.288454.09113 13.878004-.02809.555141-.153706 1.082862-.182246 1.651492-.08505 1.665081-.100182 3.359767-.185461 5.038339-.233071 4.594645.340789 9.168077.367707 13.628828.0047.526842.0047 1.071086 0 1.570048-.0047.575032-.06538 1.091767-.09113 1.650682-.07584 1.584488-.02029 3.202962-.276576 4.62708.04666 2.409104-.282039 4.334564-.368535 6.772884-.534958-.208832-.132015-1.259271-.368488-1.735354.07849-.383273-.146372-.08604-.186288-.246758-.05259-.14517.112509-.487091-.09113-.496734.14996-1.807685-.26684-3.764099-.460478-5.534271-.209742.115053-.03433.575938-.09191.826551-.367536-.198534.0094-.555086-.09269-.991055.274969-.326686-.164411-.585512-.09191-.991862-.398012.05679-.08614.751462-.185461 1.074919-.142626.252579-.07927-.359228-.09113-.496736-.05524-.197529.115318-.598739-.09191-.660435-.218621.429484-.181217.942923-.185461 1.405543-.01732 1.767542.200394 3.453949.09269 5.20284-.04479.722259-.230761 1.420212-.277372 2.148226-.03261.511289.0078 1.030852.01248 1.548272.0047.172495-.0047.3446-.01248.516092-.04416.718048-.195402 1.427651-.275016 2.146616-.155579 1.393432-.161305 2.757529-.203173 4.070669h2.51592c.06101-.86136.09862-1.70033.08224-2.665931.302262-1.766968.569429-3.564855.553996-5.615718.181778-.852355.238064-1.733578.275796-2.643352.03558-.859352.108608-1.745439.183854-2.64335.153081-1.82956-.01248-3.690876.09269-5.534271.02934-.502742.160244-.987438.184681-1.486984.08427-1.711957-.130767-3.375661-.09113-5.037531-.292275-.894063-.127802-1.813431-.186288-2.726413-.0646-1.012001-.23538-2.000074-.276592-2.973167-.113446-2.714005.132483-5.699161.276592-8.756612.07443-1.589247 0-3.235576.09363-4.790772.103302-1.714929 0-4.974104 0-7.351071 0-2.208295-.128582-4.458993-.09363-6.607575.0047-.327981.09253-.662576.09363-.991862 0-.330618-.105956-.657561-.09363-.991057.05196-1.416784.204951-2.900828.277404-4.460153.07241-1.528792.0735-3.003326.07178-4.470638zm-4.460149.01124-.296769.000825c-.05477.684824-.121716 1.358515-.199989 1.979692-.214408 2.436015.04806 4.909022-.09191 7.351875-.02512.443359-.157217.885887-.185461 1.320871-.06086.94899-.04728 2.041994-.09113 2.891719-.106736 2.061056-.0047 4.136398-.05977 6.21406-.0078.296802-.01779.593372-.03308.890257-.08317 1.657106-.128894 3.273499-.09191 4.955277-.09722.188915-.05836.49897-.183854.661241-.226548 2.506822-.0504 5.17199-.185461 7.846195-.185805 3.66653-.09238 7.60024-.275812 11.645913.104707.260218-.145279.201326-.184665.331425.0062 2.586124-.464769 5.260048-.276593 7.681691.01935.141363-.156967.214946 0 .248368-.05914.08384-.211505.08331-.183854.245953-.04728 1.502488.122341 2.810056.183854 4.213399.06101.302536-.199006.317011-.183854.578183-.0078.419853-.0401.862284.183854 1.073307-.08255 1.722628-.341772 3.796207-.247552 5.825373.01405.289891.03433.579146.06367.866067-.45255.01974.03105-.799565-.277403-.908803-.346064 1.013577.141378 1.922555-.183854 3.302985-.02637-.0313-.04806-.0669-.06367-.10807-.109077-.28778.02356-.79152-.02809-1.129751-.500238.0092.0062.408501-.276624.578181-.02309.41121-.03964.35026-.09347.65963-.04307.22874.0156.36692.05727.51932h1.545843c.03183-.44873.06757-.88546.14918-1.34426.02887-.15841-.03714-.3388 0-.494318.02731-.113336.160696-.198762.184681-.331425.164941-.904992-.0078-1.754033 0-2.643357.0047-.472213.151677-.937108.183854-1.403927.106423-1.53784-.08271-3.047658-.09191-4.542405.103459-.395185-.287234-.349195-.184634-.744298v-5.947948c.351385-1.523401.19058-3.086669.276577-4.623852.02809-.510818.15706-.984573.184681-1.486986.03261-.571176-.09113-1.156886-.09191-1.734552-.0047-1.001386.137009-2.046874.184666-3.056224.152457-3.233781.183448-6.177442.276592-9.250929.06257-2.09982.09191-4.227862.09191-6.361625 0-6.164073.276639-12.582465.276639-18.915538 0-2.102945.03464-4.185516.184634-6.277761.01404-.190364.02388-.383495.03558-.575764zm-.987009.0033-.465314.000825c-.01404.05819-.03215.112556-.05805.159667-.08863 1.591382.171355 2.741279 0 3.633602.3879.127474.0156-.425241.276592-.41126.06336-1.180627.112198-2.238938.246772-3.382814zm-1.218472.0033-.345159.000825c-.02029.329423-.04198.657921-.06694.982992-.132015 3.529025-.553419 7.194593-.461258 10.654857-.280337 2.709231-.03589 5.461581-.367707 8.094564-.32027 2.529944-.368535 5.331458-.368535 8.094564 0 .885749-.131079 1.748153-.183854 2.642547-.05446.910747.01404 1.824959 0 2.726412-.0062.35588-.04182.714964-.08068 1.075723v.907998c-.0047-.000384-.0047-.0025-.0078-.0033v.1895c.0047-.0025.0078-.0037.0094-.0064v.416096c-.0047-.0056-.0078-.01202-.0094-.01776v.117737c.0047-.0033.0078-.0062.0094-.0097v.648341c-.0047-.01451-.0062-.03026-.0094-.04516v.48217c.0047-.02361.0047-.04536.0094-.07097v.256436c-.0047-.02044-.0062-.04249-.0094-.06371v2.897367c.0047-.000413.0062-.00019.0078-.000825-.000249.0081-.0062.01139-.0078.01776v.359654c.0047.0083.0062.01482.0078.02336v.316913c-.000078.000826.000078.0017 0 .0025.0231-.02271.04869-.04299.0799-.05886-.19718-.923662.106424-1.823391 0-3.057032.06632-.187924.08286-.421998.184634-.578183v-1.156366c.07568-.262442.05836-.608442.183901-.826552.0749-1.953585.379551-3.888954.277357-5.864083-.05103-.977208.118283-1.964527.183853-2.973973.113758-1.762127-.123276-3.609439.09113-5.286705-.06086-.302323.201347-.315927.186289-.577378.12983-5.069508.202548-10.076496.45965-15.032762.07287-1.398106.115006-2.814466.185461-4.212592.0181-.35532.02809-.710725.04198-1.066049zm-1.87407 40.690542c-.0047.002-.0062.0033-.0078.0056v-.348361c-.0156-.05543-.03792-.103677-.08629-.129019-.157061.652187-.0062.900612 0 1.816801-.0554.174039.02185.228632.09441.287879v-1.249101c-.02637-.10413-.01404-.243289 0-.383838zm-.0078-.702371v-.01693c-.07131.0156-.174678.0047-.177409.08225.06476-.01681.156733-.0095.177409-.06532zm0-2.9143v-.121763c-.0047.0428-.0047.08352 0 .121763zm0-.603987v-.593481c-.0156.01866-.03839.03563-.08473.04758.08146.110293.02965.340624.08473.545929zm0-.711239v-.391908c-.08879.07996-.264405.09683-.08473.144343-.02887.07806.04572.168209.08473.247565zm0-.581407v-.824131c.0047-.02697.0047-.05368.0078-.08065v-1.11443c-.02154.03001-.076.05324-.09347.0379-.03558-.03176.0206-.07526.06133-.08548v.000825c.01404-.0033.02606-.0037.03215.0017v-.244339c-.04775.123198-.09535.002-.09191-.08467.01248-.03183.02512-.04901.03636-.05402.03308-.01467.05727.06672.05555.131437v-.313742c-.0078-.02366-.01248-.05193 0-.09353v-.0516-1.052343c-.03215-.868598-.148713-1.662746-.369315-2.361921-.153706 1.101606-.153238 2.779186 0 3.87955-.09082.274032-.182606-.09347-.276577-.08386-.0799.319352.153862.358905.276577.496734-.127334.250272.04416.294875 0 .660435.02029.06137.04947.05326.09347.03386.02185-.0103.04822-.02258.07818-.03063.03012-.0081.06445-.01186.104083-.0033.02887.190882-.265763.09263-.275797.248366.03215.115958.161477.0062.183074-.08306.04884-.02514.09347.239834.09269.247563-.03511.284642.0047.166387-.275796.248368-.02684.09272.433263-.0058.183074.165309.157014.04923.0047.377576.177409.409648zm-.361263-6.189057c.000172-.0012 0-.003 0-.0041.000422.0012.000422.003 0 .0041zm.369315 3.873101v.0073c.000328-.000827 0-.000827 0-.0017.000094-.002 0-.0037 0-.0056zm-.223364-32.856443-.865246.0025c-.0062.549432-.0078 1.08529-.01607 1.636975-.0047.340492-.09347.735267-.09347 1.074921 0 .43425.104551.824956.09347 1.237811-.05368 2.149821-.388852 4.306089-.461273 6.443072-.03761 1.103203-.107204 2.219827-.184634 3.30379-.0749 1.060431-.224473 2.093381-.275797 3.140087-.07849 1.603731-.01701 3.184793-.09269 4.789163-.06804 1.438927-.339136 2.91169-.460446 4.377904-.126242 1.539829-.173399 2.993435-.09191 4.543214.0799 1.525594.18554 3.065075.183074 4.625463-.461476 2.118978-.218293 4.870366-1.382961 6.360014-1.279003 3.865401-1.321978 8.838179-1.751496 13.464324-.02512 1.077456.0078 2.158349.09269 3.220733.08052 1.015795.304244 1.987709.367708 2.973971.139193 2.149214.101742 4.274434.277403 6.360016.06164.732186.175927 1.446476.272535 2.169996h.280634c-.03261-.25437-.06554-.50866-.09269-.76526-.220057-2.076286-.317087-4.183948-.460431-6.443075-.127334-2.007198-.434589-4.168025-.553996-6.277763.08177-2.322732.342194-4.485214.370142-6.855136.255277-1.252302.362371-2.612213.552389-3.882778.193669-1.298526.453705-2.468707.829745-3.55135.232447-.508254.580867-.91062.828965-1.404733.277248-2.615389.81695-4.994529.645939-8.011506-.536066-2.436758-.207261-4.783869.09269-7.268818.09503-.787393.308363-1.549586.369315-2.313541.04338-.53934-.03636-1.119615 0-1.652295.03433-.490828.157545-.9408.183058-1.404734.03136-.589841-.09098-1.131506-.09191-1.732937 0-.555794.138881-1.151346.185508-1.735354.142314-1.788201.366287-3.838201.367692-5.864084-.04619-.115724.06039-.122528.09347-.165311.01576-.01971.01935-.04142.01935-.06612.000281-.07403-.03761-.176381.071-.346749-.07225-.367463.124057-.496354.09363-.826551.3137-2.933577.604118-6.016255.604789-9.155774zm-3.542487.0097-.354818.000826c.03761 2.983182.02185 5.938068-.119376 8.815478-.03589.732114-.149804 1.443594-.183854 2.147421-.0969 1.969956.0891 3.744428.09269 5.368152 0 .359803-.08629.714445-.09269 1.07492-.0047.301992.09425.606006.09269.907998-.01092 1.493847-.163209 3.391922-.276577 5.286705-.05524.927863-.120467 1.838952-.186288 2.807858-.122964 1.802578.02684 3.735387-.09035 5.781832-.08598 1.504697-.423244 3.039593-.645907 4.790772.03839-.003.07178-.01155.100026-.02419.197804-.08823.161227-.38598.176598-.63705.153393-.165402-.0078-.61239.184665-.743494-.111105 1.52535-.500722 2.802274-.645939 4.296457.03105-.000042.05883-.0056.08224-.01615.165643-.06966.163786-.354883.193544-.480608.133732-.562448.102679-1.356101.276592-1.981305.05181-.448788.244291-.773613.186289-1.321676.207885-.06128.03558-.463372.09113-.66124-.01732-.03146-.02606-.0632-.02887-.09516-.01779-.223562.262049-.442133-.06211-.39997-.04697.126787.07225.402641-.03308.476579-.01404.01046-.03511.01718-.06055.01854.08068-.973174.210818-1.903186.368535-2.807857.0969.299123-.209087.958253.18468.991056.126242-2.056717.0671-3.694587-.09191-5.69958.138101-.179285.156234-.464936.183854-.743492-.06055-1.375997.159089-2.501063.09363-3.881165.722526-3.809559.154798-8.217777.368519-11.978146.09035-1.595997.01092-3.211555.09113-4.790775.10892-2.153261.123277-4.312994.105643-6.502746zm-1.952265.0048-.458043.0016v1.788579c0 1.879252-.169981 3.751096-.09269 5.616519.07506 1.780714.276592 3.539058.276592 5.286706 0 5.64776.0735 11.210769-.09035 16.849561-.02637.901789-.06757 1.774623-.186288 2.643357-.110793.811158-.374215 1.646646-.183839 2.478041.271162-1.684332.481903-3.421477.645112-5.20284.277903-1.545256.168077-3.182085.183854-4.791582.04479-4.617746.149336-9.757565-.09113-14.702141-.01092-.196564.09331-.367393.09113-.578183-.0094-.934192-.180265-2.655707-.183854-3.717468-.0047-1.514893.09269-3.598273.09269-5.368958 0-.100868-.0047-.202284-.0047-.303203zm-2.636903.0073-.393502.000826c-.04135.206672-.08364.411444-.100026.625759-.05477.722097.03964 1.489479.09113 2.147423.01857.245906-.0969.430978-.09113.660434.02481.921939.214736 1.804475.27497 2.726412.119063 1.808022.17229 3.658795.277403 5.452015.219745 3.761685.379443 7.544697.461273 11.233042.04307 1.95876.09722 3.864835 0 5.781829-.093 1.832114-.142938 3.637102-.277419 5.451211-.13576 1.836305-.3786 3.637429-.5532 5.451209-.172462 1.785554-.103771 3.582553-.183027 5.369763-.08427 1.905065-.09363 3.791327-.09363 5.699579 0 1.788474.09925 3.561676.18468 5.368152.08505 1.809877-.09222 3.64538 0 5.452821.09566 1.889611.142003 3.74594.276593 5.615718.06351.885425.133575 1.774191.208041 2.665931h.204826c-.126554-1.43847-.256103-2.88163-.320145-4.318231-.09222-2.066668-.230621-4.147704-.185461-6.194701.02185-.981485.05664-1.924731 0-2.89011-.05446-.938711-.146995-1.86322-.183854-2.808665-.0078-.188605.09925-.389604.09191-.578183-.06133-1.532984-.09191-3.656829-.09191-5.452016 0-1.948413.151521-3.893952.183854-5.864886.01732-1.032557.08286-2.013239.185461-3.055424.08926-.91199.258085-1.861713.368535-2.809467.217295-1.861961.22828-3.796759.368535-5.697964.298673-4.065826-.06726-8.241976-.09269-12.473273-.01248-2.047997-.07896-4.154911-.184681-6.195509-.04837-.928434-.170137-1.892927-.183853-3.054613-.01248-1.000397-.09113-1.99446-.184666-2.973974-.172135-1.79889-.187411-3.573032-.05805-5.335089zm-1.162811.0033-.384669.000825c-.216265 2.782882-.280057 5.595066-.05321 8.386477.315962 3.890155.461257 7.765868.461257 11.646719 0 4.032106.03012 8.000399-.276592 11.895089-.141534 1.803811-.463239 3.59371-.553169 5.367346-.185461 3.660454-.460477 7.429784-.460477 11.399964 0 1.979564.04884 3.949053.09113 5.947946.01935.905984.139974 1.799569.185461 2.724799 0 .03015-.11563.195231-.09347.329812.09347.55898.06585 1.662002.09347 2.478044.06133 1.844027-.07225 3.668058 0 5.534266.05103 1.325962.09613 2.655987.137165 3.987607h.223365c-.04884-1.33714-.104863-2.669522-.174975-3.987607-.01732-.328234-.02856-.655357-.03558-.982182-.04837-2.28793.125462-4.538643.03558-6.700313-.103303-2.493574-.276623-5.02831-.276623-7.597824 0-5.390334.234584-10.421092.644315-15.281128.217388-2.578473.574266-5.173633.553169-7.763944.193965-3.07003.09363-6.15722.09363-9.250928 0-1.463345.03636-2.9411 0-4.37871-.04042-1.582506-.125618-3.128077-.276593-4.707716-.284457-2.976419-.187973-6.171546.06694-9.048523zm-3.718288.0097-.34029.000827c0 .451617-.0078.899801-.0047 1.357157.209773 2.561849.198881 5.098305.368519 7.680883.08286 1.265134.199584 2.511473.276593 3.799722.158948 2.655203.203297 5.16187.18468 7.598628 0-.002.05524.008.08068.03868v-9.206565c-.0206-.20938-.03885-.421203-.06133-.628987v-.278204c-.08224-.660168-.16878-1.321376-.20403-1.98453-.136229-2.567616-.146528-5.160961-.277373-7.763942-.01248-.202864-.01732-.408898-.02512-.613665zm.506433 10.362137c.0206.167391.04198.335136.06133.502382v.40481c.394797 3.976067.466672 8.220964.408046 12.142653.05118.36071.200363.734872.183854 1.156364.0969 1.537278-.208744 3.435832.18468 4.707719.06133-1.651924-.12156-3.524978.09269-5.039144.163505 3.918117-.251718 7.758309-.183854 11.315293.410855-3.648201.481122-7.514882.274985-11.232234-.111885-2.017165.000156-3.963041-.09113-5.864891-.08692-1.791078-.145591-3.555663-.183854-5.369765-.312748-1.290218-.0671-3.077432-.461257-4.294038-.09675-.698503-.199412-1.429702-.285456-2.180485zm-1.134613-10.360524-1.49828.0041c.484915 4.204469.456592 8.57393.676571 12.915173.118595 2.338721.03589 4.662893.184681 6.937392.05602.853585-.02309 1.570139 0 2.561907.0047.134294.108452.522924.09191.578183-.0062.02473-.09597-.000359-.09191.08225.259161 5.131838-.196853 11.263224 0 17.264044-.05961.373629.06335.373506.185461.412068v.661102c.07958.395746-.184338 1.102246.184681 1.239423.121872-1.271792.114069-2.262779.09113-3.55135.2341-1.048271.236129-2.16922.276592-3.222344.04307-1.113146.08177-1.859433 0-2.890913.291853-1.741233.276576-3.508394.276576-5.285903 0-5.417727.498225-10.699831.09191-15.859309-.24802-3.914716-.40313-7.851894-.469357-11.845898zm-1.772422.0041-.300779.000825c.08458.736935.16853 1.464102.237861 2.176452.1058 5.410234.324795 10.534923.368519 15.94237-.07709.178629-.237939.281286-.183853.578183-.05945 1.535878.02762 2.796655 0 4.624657-.06835.336611.296862.285064.183853.661245.0078 1.693624.0047 3.375366-.121716 4.948828-.0181.224776-.03885.447621-.06211.66769.0062-.401581-.0062-.935703 0-1.404734.0078-.524942.149024-1.035546-.09191-1.156365.0632 1.130837-.279229 2.33759 0 3.386845.05321-.144921-.111261-.48532.09191-.495931-.02559.874485.05118 1.738182-.09191 2.31354-.01576-.233492.07896-.566259-.184634-.578183-.03261 1.634246-.218246 3.694832-.01935 5.675386.02278-.191779.133263-.380297.01935-.388683.0062-.2422.35123-.181437.276577-.49593.02856-3.988098.393143-8.110059.367708-12.390211-.259942-.593703-.257789-1.859347-.09113-2.560298.06023.579232-.122653 1.375394.09113 1.816801.114382-5.305628.08302-10.920668-.183854-16.355242-.03308-.674396.03433-1.382583 0-2.063557-.08489-1.673546-.165565-3.308472-.305601-4.90367zm-1.510373.0041-.183853.000825c.0309.602286.06117 1.20967.09191 1.81922.09082.289468.172821.570888.248379.847519-.03558-.892768-.0916-1.781781-.156437-2.667545zm.156437 2.667544c0 .000825-.000047.0016 0 .0025.02107.528006.04806 1.055238.07662 1.582948.08614 1.583133.189752 3.168088.200784 4.776259.0047.798229-.04947 1.602285-.0774 2.411112-.0094.269611-.01607.540568-.01607.81123 0 3.214861.03917 6.455116-.09113 9.746057 0 .02932.107516.19716.09113.329812-.08286.665678-.09113 1.884276-.09113 2.80786 0 3.519413-.233555 7.793072-.09269 11.23465.02153.526268.0047.97512 0 1.486181 0 .06261.115474.08788.09269.165311-.05977.20561-.09269.863127-.09269 1.32087 0 .471984-.0094.936288 0 1.404737-.148712 6.070814.667442 11.624985 1.291019 17.92448.355348 2.426485.644315 4.98595.644315 7.599438 0 1.133229.05633 2.269642.110481 3.408622h.191125c-.05243-2.033586-.05274-4.026927-.208056-5.969725-.239547-2.992542-.677928-5.866437-.922484-8.754189-.241326-2.845763-.708934-5.666757-.828996-8.508241-.124057-2.93318-.183573-5.872866 0-9.004175-.274361-3.550244 0-7.648666 0-11.646718 0-4.020256.137321-8.122742.09113-12.058786-.03558-3.032364.14996-5.906199 0-9.086428-.02731-.580672-.170809-1.259438-.368535-1.983724zm-.248379-.847518c-.185102-.590217-.396202-1.202354-.611265-1.817607h-.119375c.103146 1.440801.121872 2.90462.242714 4.400481.05774.714286.02965 1.475654.01092 2.227254-.0047.250534-.01092.499553-.01092.745913 0 .991674.04869 1.933091 0 2.891722-.130143 2.576807-.649481 5.118108-.461257 7.516379.148712 1.894467-.107828 4.405037 0 6.607573.122028 2.486617.06367 5.058558.09347 7.599437.0047.256684-.10814.428661-.09347.661245.101586 1.594779.04416 3.483494-.06367 5.240743-.03589.585754-.07724 1.156469-.120156 1.69745v-2.395133c.06913-.374287-.253497.125258-.184681-.248369v-2.22969c.0094-.25634-.289622-.23572-.183838-.578183.07428-1.84116-.0047-3.848208-.09363-5.947946-.04276-.981148.02637-1.893985-.276577-2.724799v-.991925c-.389382-2.161747-.480341-4.305581-.367707-6.52613.05524-1.082978.221305-2.174783.276576-3.302982.113914-2.330431.170653-4.755807.183854-7.269625.04088-.26573.176348-.446628.183854-.741882.05555-2.088953-.0749-3.631968-.09191-5.53588.04479-.259888-.283318-.186719-.184681-.495125.0047-.206438 0-.403575-.01092-.597537l-8.259847.02177c.04666.115927.09768.227446.160447.329009.0696.509901.308785 1.301163.369346 2.063557.07958.149679.202517.259882.368488.331427-.01404.205609.144499.256596.183854.413679.01779.0674.09363.08228.09363.16531-.01092.283743-.04838.593801.183854.661241-.01576.260706-.0047.497597.18468.577377.0047-.06535-.0078-.143515-.0047-.20805.0047-.06454.02606-.114772.09441-.122574-.07662.570814.143875.878266.345112 1.200717v-4.286779c.03683.0072.07287.01358.112822.02902-.02606-.33556.03308-.18506.275796-.164504.08036-.120889.07443-.319912.370142-.248368.09004-.276327.475052-.288689.644284-.495126-.08239.266475.301107.115163.369362.246757-.0094-.03555-.01404-.06735-.01701-.09676-.01561-.206103.126242-.271397.292727-.315299.01779.203955.301232.369227.369362.08386-.133732-.05096.0094-.100275 0 0 .07443.01155.113602-.0087.149181-.03144.01779-.01155.03511-.02406.05477-.03386.01935-.0103.04229-.01731.07178-.01854-.267619.305118.138413.161198.183854.248368.237034.0072.13342.323219.370142.330622.10892-.04688.131859-.171812.233851-.224985.01732-.0092.03589-.01514.05805-.01935.02185-.0042.04791-.0061.07662-.0041.06195.244262.234756.309318.368519.08144.03058.19163.09488.419431.277373.248368-.02965.274696-.01404.509087.1839.57899-.03964.613523.226502.953237.368488 1.403929.222366 1.81427-.02809 3.893524.09269 5.616519.02856.32839-.212551.415104-.183901.743494-.207261 3.516187.167844 6.829171 0 10.655664-.01576.260877.244057.276274.183901.578183v2.394982c.161726.240313.193669.597053.276576.907998v1.818416c.104707.291372.102211.678952.184634.99025.122965 2.337495.15355 4.548467.275016 7.021255.126242 2.573622-.06367 5.309651.277373 7.516376.144499 2.875952.01404 5.881195.277404 8.755809.03511.383913.162803.775647.183853 1.156366.05337.959404.02684 1.963258.03464 2.948167.0047.246208.0062.490955.01404.733819.02029.607158.06476 1.200646.162054 1.765192.01935.112852.04151.225003.06538.335459.05586-.197973-.11719-.599557.09035-.661245.276452 1.302745-.0078 2.747028.184666 4.212593.255947.194353.08676.291642.277372.578183.157794 1.262595.272707 2.562929.552389 3.71666-.04947.7867.09503 1.401739.276576 1.981307.02481 1.020691.04993 2.087238.07334 3.162668h2.116769c-.246772-3.025306-.08302-6.03931-.529809-8.943692-.289044-.01623-.0774-.481805-.277403-.578183.06382-.331854-.08832-.471678-.09191-.743492.103303-1.266376-.159651-2.224794-.276576-3.220733-.07522-.637063-.01732-1.278424-.09113-1.900664-.02559-.217878-.154018-.4512-.185477-.66124-.281164-1.902868-.22324-3.59433-.552373-5.038339.07958-1.305934-.138413-2.205848-.184681-3.138478-.07849-1.577412.03433-3.01539-.184681-4.377903.35318-6.202801-.09144-13.452396.184681-19.988039.125149-.292698.149961-.162956.184681-.495121-.105799-2.821002-.04291-5.57564.09269-8.342935.165814-3.379459.0181-6.948678-.157264-10.430679zm-11.085472-1.79019-.507213.000825c-.03636.02373-.07334.04705-.109701.07097.06414.458993.135137.911898.245945 1.328933-.05056.788699.322002 1.199159.369315 1.89986.07225.541987.575421 1.133381.368519 1.650684-.247021-.384893-.282319-.95818-.460477-1.403121-.05821-.52717-.08848-1.077417-.368488-1.404736.01248-.758095-.171869-1.339975-.28789-1.982917-.15937.105581-.318537.212256-.476581.31933.227828 1.419921.43022 2.862733.763644 4.306941.442064.759913.487364 1.874393.920923 2.642545.243433.670109.501643 1.312625.73863 1.983726.355692 1.005246.695639 2.140641 1.014473 3.302979.0062.311908.02154.624326.03886.937027.124057 2.188894.451848 4.394579.237892 6.579354.133264 1.726654.236582 3.503506.437071 5.27219v-13.110383c.02856-.01061.06523-.01467.112821-.0081-.08239.435296-.07365.736948-.09269 1.486176.04619.000116.0852-.0058.117815-.01854.226704-.08639.142158-.451188.159651-.724138v-.991863c.03964-.280779.197398.362765.183854-.08144-.0094-1.35733-.0062-2.705551.183853-3.883584-.08286-.241946-.08286-.25237 0-.494317.0047-.01951.0062-.04204.0062-.06612-.000281-.168867-.09363-.421754.177425-.347554-.11407.602676-.190798 1.469499-.09113 1.816801.0838-.337683.08957-.744323.274969-.991057.22775.401592.630552.647686.645939 1.239425.334516.0813.0774-.433828.368534-.165309.390163.807037.31086 2.03395.828965 2.725604-.245289.622325.183355 1.310349.27742 1.899861v.825745c.305101.772245.24351 1.87521.55398 2.643352.0969 2.830291.4097 5.674902.553169 8.591298.151989 3.094122.296285 6.078609.461257 9.332377.08692 1.717132.138569 3.517492.274985 5.204453.238096 2.937619.0309 5.7899.185461 8.838056.05867 1.157164.22026 2.339015.275796 3.468293.127022 2.589306.347765 5.265113.645112 7.765553.249128 2.097847.399042 4.147789.923311 6.111646.08473 1.017732.163614 2.04114.224972 3.0788h.346766c-.04042-1.17371-.116255-2.296648-.204031-3.327171-.292197-.426691-.25111-1.151547-.461226-1.65149-.179641-1.711279-.351026-3.429867-.645111-5.038336.03433-.498998-.02512-.913683-.09113-1.321676-.08286-.579219-.135605-1.120644-.184681-1.650685-.08177-.874811-.237362-1.712195-.184681-2.97478-.432077-2.873632-.324233-5.712099-.461258-8.507436-.0838-1.703989-.0062-3.415668-.09269-5.122202-.101898-2.010835-.270631-4.021377-.368535-6.028586-.160634-3.265266-.122964-6.251227-.461211-9.498491.134825-.606861-.05602-1.186981-.09113-1.817606-.04229-.759434.05477-1.534459 0-2.313541-.02934-.408253-.159011-.825853-.185508-1.238618-.127333-2.009526-.0094-4.001703-.459619-5.86408 0-1.541394.03261-3.114266-.09363-4.543214-.03261-.129128-.161976.07094-.183854-.08386.02606-.133311-.08785-.140177-.09269-.245951-.09566-1.098342-.234085-2.159759-.183838-3.388458.08068-.291954.01248-.201548.09191-.493513-.07849-.149679-.237487-.228636-.276576-.413678-.41279-.06016-.03215.591036-.22981.724139-.01404.0092-.02809.01545-.04681.01935.05337-.268111-.06226-.384921-.09191-.578183-.0062-.02124-.0094-.04621-.0094-.07337-.0047-.190357.117347-.491727-.174194-.423357-.05259.144748.111261.486045-.09269.496737.08988-.411221-.1097-.561724-.367708-.66124-.02887.111854-.230464.06746-.368519.08144-.02278-.03901-.0401-.06186-.05243-.07258-.08583-.07445.04759.459414-.133888.404002-.21408-.05585-.134044-.375046-.368535-.412872-.12749.05106-.01404.318272-.183854.331427-.0156-.034-.03464-.06545-.05649-.09435-.150897-.201893-.421216-.296302-.495947-.566893-.247724-.147214-.178813.363513-.277357.08144.04619-.07406.05087-.195707-.01935-.209663v4.940766c-.094345-.301226-.182011-.609212-.253153-.931386-.921891-1.321148-1.406149-3.034091-2.120015-4.541601-.181497-.882119-.373278-1.755184-.551561-2.640128zm-1.514414.676562c-.343973.236248-.68417.476811-1.021698.720109.50275 2.923123.762364 6.064638 1.151544 9.090456.259989.80984.215266 1.687069.276577 2.55868.120467 1.71936.346079 3.491847.645111 5.204454.42738 2.446391.6132 5.196095.920923 7.846196.05384.462935.03464.954186.09347 1.405539.04088.316467.189799.708886.276623 1.156366.162757.842.297393 1.660053.461211 2.478044.339213 1.65093.766125 3.221782.92175 5.037532.200816 1.014538.164114 2.064226.183838 3.138476.02107 1.167846-.05181 2.359365-.09191 3.553769-.01779.518877.09737 1.053622.09191 1.567627-.01732 1.627165-.106579 3.389785-.275796 5.121397-.114382 1.16613-.125305 2.310196-.185461 3.469902-.181045 3.488877-.230995 6.90748-.736227 10.158926-.174616 1.612797-.511145 3.357185-.645938 5.20445-.03105.4212-.06694.83968-.100026 1.2612h.344301c.09628-1.21475.207744-2.427086.308035-3.573122.363573-1.853103.593882-3.632197.829793-5.535074.0047-.04177-.04666-.219301 0-.413677.221632-.920393.211349-2.2463.186288-3.386849.403052-2.657712.200285-5.377857.459619-8.093754.170309-2.738749.162584-5.636822.276623-8.425992-.266012-2.189377-.1342-4.267428-.645111-6.276954-.228405-.949909-.208088-1.704805-.461273-2.726413-.01092-.04238-.177487-.218182-.184681-.248368-.242387-.987889-.285955-2.046027-.461258-3.053804-.345611-1.990852-.409153-3.979838-.45965-6.277763-.275718-.302004.102367-1.398383-.277372-1.157174.01248-1.762698-.256837-3.205292-.183058-4.708521.0994.296567.230543.563469.274969.908803v.578183c.243432.09834.238236-.39708.276592 0-.14091.0012-.303011.225429 0 .165311-.138413 1.693694.434496 2.749083.368519 4.377904.31239 1.262172.368707 2.753307.370142 4.294036.09535.602674.371094 1.044688.368535 1.735354-.07771.730562.350933 1.007868.277404 1.734549.169232.536144.227406 1.171014.367707 1.734552.06023.194662.113602.313259.276577.578988-.05462.340859.0969.498085.160494.733815v-3.536834c-.113446-.360858-.01654-.910213-.25239-1.161203-.122808-.855245-.173789-1.747476-.277419-2.64416-.09784-.842662-.300436-1.69289-.368519-2.560295-.05914-.759107.03886-1.550816 0-2.313541-.03761-.747257-.17989-1.82587-.09191-2.311925.02231-.121388-.08864-.174046-.09191-.247563-.06164-1.448625-.01404-2.648149-.09269-3.800522.05243-.16803-.158122-.156169-.184681-.248371-.02606-.08834.193638-.193143 0-.246754-.04447-.295919-.149805-.477195 0-.743493-.03761-.01451-.06757-.03246-.09191-.05402-.170107-.150866-.04853-.457018-.09191-.688659-.05556-.301404-.13686-.531254-.183862-.745175-.046657-.536215-.371296-.823704-.461273-1.321675-.04697-.563124-.341648-.905308-.369315-1.486181-.479421-.754907-.510724-1.908138-.921734-2.724799-.225831-.981155-.370548-2.03555-.736227-2.892527.130611-.88739-.282912-1.287173-.185461-2.146616-.01404-.01915-.02481-.0423-.03792-.0629zm2.177284 4.476283c.219229-.0061.167297.661241.164488.955574-.249627-.162016-.07615-.703194-.276592-.908803.04322-.03135.08068-.04595.112041-.04677zm.48624 1.232167c.03761-.0022.05259.13317.04759.220145-.07131.149664-.09956-.05096-.09269-.166923.0181-.03767.03261-.0526.04525-.05323zm.139505.300784c.312249.133232.277529.577924.275797.992668-.348171-.101196-.272239-.58302-.275797-.992668zm.78301 1.681328c.03761-.0022.05259.132608.04759.219338v.412872c-.07162.150663-.09987-.04889-.09363-.164504v-.413679c.0181-.03758.03339-.05349.04603-.05402zm4.449662.127411c-.0078-.0014-.01248-.000025-.01248.0064 0 .03795-.09675.05321-.06133.08548.02559.02288.14013-.04029.09269-.08306-.0047-.0031-.01092-.0075-.01857-.0089zm-4.127114.752364c.180998.305841.341897.631399.370126 1.074114-.107828-.01311-.07755-.151006-.09191-.24837-.08957.0031-.07319.101462-.09363.165311-.157045-.244426-.101898-.679699-.184665-.991055zm.337887 1.15314c.01404-.0031.02606-.0028.03215.0033.04728.0427-.06663.10516-.09269.08306-.03542-.03227.01982-.07539.06055-.08548zm.103147.497543c.04291.0042.06975.02324.08957.04839v1.161205c-.06273-.39409-.120624-.793027-.160493-1.207975.02684-.0031.0504-.0036.071-.0016zm.33784.1129s.05149.132062.04588.218534v.413678c-.07131.150663-.09878-.04889-.09191-.164504v-.41368c.01779-.03728.03261-.05402.0451-.05402zm-1.732115 1.786158c.01404-.0033.02606-.0037.03215.0025.04728.04268-.06819.104723-.09347.08225-.03558-.03229.01935-.07487.06039-.08467zm35.997339.08467c-.38687.000825.09144.634341.184681.908806-.06975.4488.113757.669303.09269 1.074114.255323-.309643-.03137-1.206212.09113-1.404739.131859.250136.188379.567354.219355.907998.216998-.821075.198553-1.485697-.587062-1.486179zm.587889 1.486179c-.232369.879102-.734745 1.93826-.864481 2.561909.05805 1.76788-.0799 3.876363 0 5.451211.01092.243188.0047.513466 0 .743494-.03433 1.517617-.151521 3.024928-.184666 4.543209-.03339 1.510871-.01404 3.046674-.09191 4.54241-.152301 2.92413.07428 5.794276.185461 8.754994.113602.476439.232275.948537.368535 1.404737.04931 2.439934.150428 4.05469.1484 5.911661 0 .371383-.0047.752232-.01607 1.151525-.01982.798588-.06101 1.670249-.133888 2.682868-.07989 1.110021-.164863 2.235475-.183854 3.469097-.297596 1.468131-.518354 3.004863-.552372 4.708524-.09394 1.357348-.323656 3.059634-.370142 4.707715-.181623 1.505058-.303183 3.072492-.387073 4.648852h.723306c.04822-.91398.113133-1.826033.216139-2.748184.268946-2.406574.249503-4.826197.73785-7.02045.0593-1.50566.472618-3.065476.553169-4.709329.09784-1.996033.168077-4.321238.09347-6.111644.227-1.163566.280555-2.619049.367707-3.799721.242684.571829.06101 1.025547.09363 1.734549.142627.620027.15433.847471.367692 1.403929.171136 1.746084.210772 3.611648.183854 5.535074.02278.365552.189846.601303.185461.991055-.09066 2.4412-.172291 4.865627-.277357 7.268013-.104707 2.419083-.368534 4.79126-.368534 7.186558 0 .0898-.0047.18014-.0062.27015h.859597c.04837-1.934015.187396-3.839051.253216-5.805217.0047-.129534.106892-.349411.09269-.412068-.123745-.553171-.0401-1.840846 0-2.643351.04307-.856165.170356-1.642032.184681-2.478041.01404-.88181 0-1.768739 0-2.642547 0-5.330711-.05306-9.714692-.276624-14.620693.05337-.246411-.348264-.505228-.184634-.578183.02403.05934.0504.06103.06616.04112.0047-.0061.0094-.0156.01248-.02581.0094-.04104-.0062-.100931-.0774-.09758-.071-.07322-.09925-.187828-.09191-.33143-.117659-3.817532-.505528-7.873775-.553996-11.562855-.228358-1.498937-.238438-3.195679-.277419-4.708519-.0047-.135542-.09394-.292239-.09113-.412067.01248-.541974.0078-1.480818.09113-2.149037-.356831-.663696-.133888-1.487039-.183058-2.228868-.04697-.711557-.267089-1.324226-.184634-1.98372-.197898-.09906-.05789-.365339-.09113-.495126-.02762-.104692-.150429-.01882-.185492-.08225-.02107-.0379.105175-.102726.09285-.165311-.05446-.266381-.132795-.523662-.184681-.908802-.02185-.328008-.02887-.67013-.05805-.991865zm-36.401377-1.324157c-.04088.0103-.09644.05402-.06039.08629.02559.02288.14091-.04148.09347-.08386-.0062-.0061-.01857-.0055-.03215-.0025zm-1.223263.198373c.03339-.01514.0593.06975.05649.135479v.32981c.154798.641576.07459 1.692222 0 2.395794-.214111-.771354-.03012-1.899318-.09113-2.807857.01248-.03196.02356-.04813.03464-.05323zm-.402428 1.374899c.182449.100806.07131.465894.07912.723331 0 .03687.0047.07105.01248.102414-.353913.0206-.175146-.708382-.09113-.825745zm.703988 1.483761c.01404-.003.02559-.0037.03137.0017.04806.0431-.0657.106611-.09113.08386-.03589-.03191.0181-.07507.05883-.08548zm-.0047.179826c.0047-.000061.0094.002.01248.0064.04354.05097.02309.386284.02356.477383-.126554.26277-.09035-.291483-.09113-.412872.02356-.04922.04229-.06996.05571-.07016zm-2.878837 3.251373c-.0062.362713-.0156.729632-.02356 1.097499.02403.09107.04978.180256.08146.264494.01092 1.037326.467328 1.672341.460478 2.724799.540404 1.739346.582443 3.653456.830572 5.535074.119688.908204.335547 1.816227.45965 2.726414.12827.937399.119844 1.876217.276592 2.807856.494418 2.458645.453456 5.070658.277404 7.847001-.07958 1.255095-.380457 2.79843-.553996 4.212589-.191859 1.56392-.647467 3.497924-.737054 5.204455-.333486 2.363159-.562999 4.788889-.645111 7.268013-.02029.61361-.132327 1.212238-.184681 1.816801-.0554.640282-.04463 1.254716-.09347 1.899858-.04588.59978-.132483 1.196542-.183073 1.816801-.02637.328366.03433.664357 0 .992669-.02637.25601-.15277.493895-.184634.741879-.07849.613616-.05462 1.268387-.09285 1.900669-.02434.40883-.05306.83631-.08146 1.2612h.211271c.06055-1.38949.176832-2.740144.331411-4.070672.198632-1.71063.209212-3.408474.461274-5.119782-.0047-7.354279 1.731006-13.152761 2.120795-20.15496-.05384-1.273447-.134356-2.523658-.09347-3.881973-.632222-3.756835-1.121724-7.639214-1.566019-11.56366-.427364-1.712628-.77566-3.496425-1.071695-5.327024zm15.14566.799941c-.06335-.01139.02606.386247.02684.478995-.126865.262768-.08988-.291724-.09113-.412874.01607-.03286.02887-.0532.04042-.0629.0094-.008.03308-.0017.02434-.0033zm2.689335.215305c-.199537.966192-.172572 2.523915-.172572 3.650537 0 1.362844.01248 2.740591 0 4.048085-.0078.883862.02887 1.592179 0 2.723994-.0047.207827-.282787.588679.09191.745107.03886-.338469.06398-.68899.08068-1.047503v-3.458613c-.0062-.462352-.0062-.918873 0-1.369256zm-4.537595.508832c-.04042.0103-.09534.0526-.05961.08467.02606.02288.139973-.03885.09191-.08144-.0062-.0061-.03215.009-.03215-.0033zm-13.332851.0879c-.01404.523598-.03059 1.052177-.04915 1.585371.07896.407335.156437.812556.233851 1.220875.17212.908858.432857 1.811315.553996 2.725604.128114.963473.177441 1.924904.275797 2.890915.194714 1.916588.498412 3.814749.553995 5.781832.518886 1.995616.326746 4.443455.275797 6.772887-.353586 1.431852-.438756 2.894003-.645939 4.3779-.196166 1.411364-.438396 2.856411-.644284 4.295652-.418782 2.926036-.586781 5.898799-.92175 8.920308-.356722 1.305286-.249659 3.026121-.461211 4.460153-.133107 1.506122-.281664 2.996477-.553215 4.377906-.0062.3767-.02606.74084-.05571 1.09669h.484664c.03589-.37273.09644-.7186.216921-1.01444v-1.403123c.371093-1.545924.426505-3.179632.552388-4.790777.388961-4.973018.925776-10.003124 1.567595-14.702136.408873-1.424201.318241-3.294985.737054-4.710138.308706-1.512514.142782-3.45034.184681-5.202841-.663697-4.967614-.909345-9.729403-1.843438-14.372321-.155111-.770871-.30841-1.54052-.462038-2.310317zm30.541255.338685c-.08146.06161-.186288.102039-.186288.23708-.08863 1.255438-.139506 2.608686 0 3.63441-.06601.362366.184774-.06643.185508.165311v-.744302c-.01732-.01578-.01404-.03349 0-.04919zm0 4.036801c-.01248.513133-.0078 1.012235 0 1.505531zm-30.605-2.328054c-.01092.28925-.02403.582266-.03636.874126.0047.01709.0062.03369.0094.05081.281414 1.578974.496274 3.219883.645111 4.873028.07459.827617.176551 1.668865.276592 2.478042.107204.871297.139194 1.68467.183854 2.559489.08442 1.665735.323937 3.355536.461258 5.039949-.182122 3.470212-.641647 6.69249-1.105589 9.910559-.448212 1.479468-.54958 3.183844-.737849 4.873026-.188926 1.692031-.217092 3.412131-.461211 5.039949-.468046 3.214184-.690287 6.649294-1.198327 9.829113-.08614.32218-.190127.62814-.298345.93058h.478969c.337778-1.41327.367426-3.10213.649168-4.564989.289419-1.723223.265966-3.727145.553169-5.452016.365757-2.384717.482558-4.75944.737834-7.268818.03261-.322884.136228-.586346.183854-.907998.395874-2.655849.751394-5.298288 1.106384-7.930058.175053-1.825699.46352-3.549522.368519-5.616523-.303042-1.710399-.448586-3.5635-.55398-5.451208-.354709-3.149244-.646937-6.352752-1.262821-9.267056zm30.104232.623339c-.0206-.0061-.04479.0048-.05399.05161 0 .04564.07428.09385.09269 0 0-.02308-.01779-.04569-.03886-.05161zm-8.073606.13548c.06679.252146-.09425.300125-.09191.495126.357221-.0081.261269-.363134.09191-.495126zm8.019567.164501c.07428.659825-.284676 1.32014-.09113 1.816806-.247381-.05647-.177987.171878-.276577.248368.109701.05106-.04806.556221-.09113.743492-.05742.224276.115786.655811-.09363.743492.0047-.08773-.04307-.210634-.09269-.08306v.08306c.240249.468359-.136697 1.284304.09269 2.064364.04884.837476-.06523 1.242888.184681 1.735358-.01092.206911-.176332.25786.09269.329811.04666-.271151.08317-.365083 0-.578988.134512-.07159.291931-.123542.275796-.329815.0735-1.360201-.157513-2.885786-.09191-3.964222.01982.09252.101742.128239.18468.164506-.01092-.133763-.01404-.270256-.01248-.408843.01248-.970128.277778-2.017644-.07974-2.564329zm-7.942979.390297c-.02809.0025-.04994.000388-.06538.0073-.09441.04227.0094.232943-.01248.345942-.05228.273049-.170668.850249.184681.660435-.112978-.365318-.07287-.683152 0-.99025-.04338-.01326-.07802-.02572-.106424-.02337zm-6.944641.426581c-.0062-.0012-.01404.000131-.01404.0064 0 .03795-.09644.05331-.06055.08548.02606.02288.14091-.0412.09269-.08386-.0047-.003-.01092-.0067-.01857-.0081zm14.76503 1.162818c.01404-.0033.02481-.0037.03136.0017.04744.04279-.06694.106969-.09269.08386-.01248-.01061-.01404-.02221-.0094-.03386.0094-.02308.04291-.04477.07006-.0516zm-.02434.362068c.03386-.01514.05977.07021.05649.136276-.04837.126896-.09691.0048-.09363-.08306.01248-.03188.02606-.04813.03714-.05323zm.02356.298367v.000826s.02434-.0037.03059.0025c.04728.0431-.06616.104364-.09191.08144-.03558-.03229.01982-.07496.06055-.08467zm13.451447 1.79825v16.72763c.0891 1.171089.16853 2.344163.16853 3.531997 0 2.261652.05103 4.564544.09113 6.856751-.02559.279111-.145591.47231-.09113.824131.02481.150257-.101586.16571-.16853.233856v12.922435h1.191836c.01404-.42612-.07006-.95188-.0094-1.0967.07709.0964.119531.22255.09113.41368.45255-.0513-.04744-.44538.09191-.74349v-.990252c-.12078-.304212-.08161-.752683-.183058-1.074917.04135-2.928321-.3879-5.435024-.277372-8.424379.320894-2.844086-.136229-6.006707-.09191-8.921115 0-.231356-.252108.196545-.184634-.164504.344254-.06463.02481-.05658 0-.248368-.05836-.442715.02934-.935891 0-1.403927-.07287-1.146292-.403957-2.30324-.276623-3.551355-.08583-.281096-.122028-.606042-.183027-.909607-.08926-3.836203.0047-7.528181.09113-11.56447.06039-.328317-.244087-.33131-.183854-.659625.0062-.612634-.02762-1.191886-.07584-1.757939zm-21.471824 1.340227c-.04088.0103-.09659.05382-.06055.08548.02512.02288.140129-.03996.09269-.08306-.0062-.0061-.01904-.0058-.03214-.0017zm-3.472297.250786c-.07709 1.968393-.510568 4.056376-.275016 6.030202.141534-1.911152.537439-4.032616.275016-6.030202zm7.467958.247563c.214189.52396.03261 1.404494.09363 2.065979-.256353.06301-.09394-.213905-.09363-.33143.0047-.438273-.0047-1.22053 0-1.734549zm-4.1021.07258c-.02512.01124-.07178.06854-.0451.09274.02512.02278.138413-.03996.09113-.08225-.0062-.0061-.03214.0094-.03214-.0033 0-.0094-.0047-.01092-.01405-.0073zm3.042498 0c-.02559.01108-.07303.06854-.04588.09274.02512.02278.13935-.03996.09191-.08225-.0062-.0061-.03137.0091-.03137-.0033 0-.0095-.0062-.01092-.01404-.0073zm-3.035227.204822c-.02107-.0061-.04447.008-.05321.05402 0 .04564.07365.09385.09113 0 .000156-.02295-.01732-.04809-.03792-.05402zm2.989271.87413c-.02309-.0042-.05399-.003-.09191.0041-.252108 1.701441-.493887 3.412814-.645111 5.204454.309767.08508.143406-.256373.183854-.412872.106579-.09733.103458-.292302.09113-.495931-.0047-.418615.159744-.683808.09347-1.156369.194699-.746259.341976-1.854984.36852-2.725605.0047-.09602 0-.26873 0-.417711zm5.577004.363683c.03761-.002.05165.132546.04603.219339v1.156366c-.07069.150663-.09847-.04958-.09113-.165311v-1.156366c.01779-.0377.03261-.05342.0451-.05402zm-.723307.134666c-.04042.0103-.09425.0526-.05883.08467.02512.02275.138882-.03806.09113-.08065-.0062-.0061-.01779-.0064-.03137-.0033zm.360436.08146c-.01404-.0033-.03137.02142-.05072.08709-.03012.101508.01404.509744.09113.247563.02185-.07587.0047-.325505-.04042-.334653zm-8.257459.0033c-.322657.0012-.133576.540727-.183027.826554-.02559.279462-.146684.474797-.09285.826552-.141222.506693-.06835 1.20565-.277356 1.65149-.229108 1.576084-.253763 3.192418-.367755 4.789968-.114694 1.606945-.359687 3.166622-.369315 4.791582-.01982 3.320863 0 6.688277 0 10.077479 0 4.924981.02481 9.741937.16853 14.560218h.45965c-.17744-4.595503-.304821-9.352734-.0774-14.065092.141378 2.78625.210772 5.65304.369315 8.507436.103771 1.865907.250486 3.71475.399978 5.557656h.392738c-.204468-2.554358-.383687-5.115238-.515312-7.704272-.117347-2.32149-.07927-4.656788-.184681-7.021257-.05165-1.15369-.136384-2.309766-.184634-3.469902-.04884-1.164539-.09269-2.313407-.09269-3.469904 0-3.254413.159417-6.419779.277372-9.662192.0047-.112182.09566-.303805.09285-.413679-.0047-.146808-.106736-.176573-.09285-.331425.02278-.257013.161352-.485248.184681-.743492.07584-.830164-.07053-1.673312.183854-2.478047-.09222-.68822.789033-2.228619-.09035-2.229673zm-6.803513.277401c.03761-.002.05212.131812.04681.21853v2.47885c-.07178.150663-.09956-.05056-.09269-.166115v-2.477263c.0181-.0377.03339-.0534.04603-.05402zm2.78123.133045c-.04088.0103-.09659.0534-.06133.08548.02606.0228.14013-.03918.09269-.08225-.0062-.0061-.03137.0091-.03137-.0033zm.07818.167729c-.01248-.0033-.02731-.003-.04681.000826-.0047.105675-.117815.114163-.09191.247563.01732 1.63777-.09612 3.32637-.184634 5.038335-.09534 1.824798.06554 3.696535 0 5.452821-.128894 3.416601-.04385 7.057424 0 10.572605.02606.721191.10502 1.622624.184634 2.230484.02684.204942-.165643.62688.183885.659625.03589-1.51855-.171666-2.821415-.277403-4.213394.165237-3.35457.06101-6.680164.09347-9.827501.03511-3.357461.143094-6.594094.183885-10.077481-.0047-.03758-.0094-.07437-.04432-.08386zm12.571641.857194c.02107.0061.03917.02865.03886.05161-.01701.09375-.09176.04586-.09113 0 .0078-.04686.03136-.05753.05243-.05161zm-31.021893.121763c-.02185.267224-.0426.532407-.06538.800746-.06835.805763-.141846 1.61635-.218527 2.428851.0094.632905.0078 1.267371-.02434 1.905507-.02809.575045-.044 1.090599-.09269 1.65149-.103615 1.184784-.138569 2.220645-.552373 3.138477-.110637.410742-.14247.89202-.216108 1.336192-.02185.174979-.04307.350001-.06538.52496-.03792.938997.0671 1.841842.09753 2.76431.02934.909523-.107984 1.821244-.184681 2.725609-.158465 1.872898-.422074 3.68988-.645111 5.534266-.224441 1.8617-.446074 3.719722-.645111 5.534269-.09971.902692-.320644 1.765733-.461258 2.643352-.137008.85879-.336873 1.683718-.645907 2.478849-.06476.852873-.153237 1.683793-.258865 2.499823h.481403c.07147-.55702.137165-1.11571.145903-1.67569.257383-.485053.335047-1.129695.645939-1.567625-.06913-1.135632.42184-1.771521.370142-2.891723.178985-.941277.211349-2.012003.367707-2.973167-.0094-1.082644.35201-1.83318.368535-2.891724.316961-1.760481.417362-3.761847.645111-5.534265.239875-1.864282.182481-3.890594.368519-5.781832.122341-1.246876.364415-2.423733.645908-3.551349.03012-1.504152.03464-2.776874.276576-4.212595-.21369-1.581967-.284457-3.230038-.337856-4.886731zm24.644122 1.562784c-.01732-.0055-.02965-.0064-.02965.0041 0 .0211-.04213.0037-.05649.01123-.08583.04686-.02637.225598-.04198.335459-.180748 1.214717-.117815 2.647035-.461257 3.715854.05821.277902-.118908.766705.09191.907998.286454-1.560315.444092-3.234786.553169-4.954472-.01732-.0052-.03839-.01467-.05571-.02015zm-5.414903.347556c-.04088.0103-.09628.05292-.06055.08467.02512.02278.139818-.03988.09269-.08225-.0062-.0061-.01857-.0066-.03215-.0025zm-3.723906.445937c.02107.0061.03964.02885.03964.0516-.01732.09344-.09222.04586-.09191 0 .0078-.04667.03137-.05752.05243-.0516zm3.070743.0887c-.02637.630864-.05118 1.304388-.08068 1.945823-.01935.427535-.281039.917466.08068 1.225716v-.400805c.000031-.01326 0-.0287 0-.04193.000125-.0097 0-.01788 0-.02742zm.553169.15886c-.02107-.0061-.04557.0059-.05399.05242 0 .04596.07568.09416.09347 0 0-.0228-.01779-.0465-.03886-.05242zm-3.631183.04274c.0078-.0037.01404-.003.01404.0064 0 .01248.02606-.003.03214.0033.04775.04279-.06601.105815-.09191.08306-.02684-.0242.01982-.08141.0451-.09274zm3.652156.166121c-.0062-.0012-.01405-.000827-.01405.0056 0 .03808-.09706.05423-.06133.08628.0062.0061.01857.0058.03215.0017.04088-.0103.09706-.05321.06133-.08548-.0047-.003-.01092-.0067-.01857-.0081zm-.474974.0056c-.04042.0103-.09519.05423-.05961.08628.02512.02275.139661-.04074.09191-.08386-.0062-.0061-.01904-.0056-.03214-.0017zm.461257.220949c-.01732-.00016-.03839.008-.06211.02985-.05103.04553-.0047.16697.09269.08144.03839-.03439.0206-.110809-.03058-.111293zm11.891061.02664v.000825c-.04042.0103-.09488.05179-.05883.08386.02512.0228.139817-.03876.09113-.08144-.0047-.0061-.03215.009-.03215-.0033zm-11.999934.324152c-.02512.01123-.07147.06772-.04432.09193.02512.02288.138882-.03914.09113-.08225-.0062-.0061-.03214.0091-.03214-.0033 0-.0095-.0062-.01014-.01404-.0064zm6.776937.174988c-.329148.03472-.258959.427546-.275796.742688-.101586.23966-.08364.586895-.184681.826551v.578183c-.239219.667321-.217216 1.567454-.369315 2.312735-.03012.303635.07927.731498-.09191.908803.362886.132749.03214-.356549.277372-.329815.06694-1.811975.432483-3.357366.64433-5.039145zm-6.768885.277401c-.0206-.0061-.04385.0058-.05243.05242 0 .04585.07365.09375.09113 0 .000172-.02308-.01779-.04639-.03885-.05242zm5.631042.04919c-.04088.0103-.09659.05452-.06055.08628.02559.02308.141222-.04039.09363-.08306-.0062-.0061-.03308.0094-.03308-.0033zm-9.117867.161277c-.0047.0025-.0047.03072-.0047.09032 0 .18657.01982.370503.04432.553993-.0094-.349047-.02934-.653446-.03964-.644309zm.03964.644309c.0094.351184.0062.747799-.04432.932187-.03433.124353-.216218.06905-.184634.248368v2.973064c.03917.0042.07131.0017.09753-.0056.183558-.04984.07631-.341599.08707-.489477.05446-.737887-.115318-1.65562.09269-2.147421-.09347 1.501577.152769 2.941768 0 4.04728-.04089-.156839.125149-.497-.184634-.412874.01404 1.446319-.07303 2.984516.184634 4.213399.02185.154189.151677-.04764.183853.08144.451115-.02737-.139661-.08389-.09191-.246753.06039-.497318-.121404-1.211211.09191-1.570048.09753.346-.211474 1.136057.184681 1.156366v-1.321675c-.125773-.162178-.0877-.471349-.184681-.66124.138414-1.786811.0047-3.818616-.09191-5.69958-.01857-.370476-.09191-.732444-.140286-1.097499zm-.228987-.470939c-.119688.109872-.121092.306698.09269.329815-.01561-.123698.03214-.303751-.09269-.329815zm.07412.404809c-.0078-.0017-.01248-.000414-.01248.0056 0 .03793-.09644.05179-.06039.08386.02512.02275.140286-.03914.09269-.08146-.0047-.003-.01092-.0066-.01857-.0081zm3.640874.0089c-.07131.01829-.181373.000828-.183854.08065.07162-.01862.181669-.000825.183854-.08065zm5.531828.08065c-.383687.922601-.287063 2.2777-.553169 3.305401v.990252c-.07771.262846-.121248-.146559-.09191-.248373v-.412064c.03012-.606212.18646-1.098732.183854-1.734548-.333112-.07832-.12827.325029-.183854.49593-.127178.106096-.09113.358573-.09191.578988-.277529 2.795582-.06913 5.647727-.276577 8.588884.316556.404797.139506 1.250901.183854 1.899859.08036.384482-.239796-.113571-.277404.165309.32336-.05086.161009.297607 0 .08225.05321.145232-.110324.486301.09363.495929.01701-.09355.09191-.04596.09191 0v1.156366c.135917.397068-.230636.344047-.185461.660435.02637 2.024942.170263 4.551658.277404 6.608383.08692 1.679534.07397 3.321706.184634 4.955278.06039.887648.295411 1.745439.369362 2.643358.02762.33525.04494.67523.06367 1.01444h.288686c-.290001-3.502476-.639092-6.931223-.813661-10.347634-.10065-.66114.118283-.66164.09191-1.322483-.218371-2.669632-.0529-6.212047.09191-9.086425.136073-.397067-.229341-.343812-.183854-.659631.187537-1.566802-.260972-2.902977 0-4.129531.100806-.472326.08364.479101.09113.907997.01092.619372-.0078 1.259118 0 1.734549.309815.08508.143875-.256443.184634-.412873v-3.882779c.171761-1.33267.461258-2.596394.461258-4.047279zm-5.644712.08146c-.0206-.002-.04432-.000827-.071.0025-.0062 1.727749-.247771 3.686376 0 5.368154.178891-1.657109.05805-3.58191.183854-5.285902-.01576-.04841-.05087-.07784-.112822-.08386zm-3.556188.07418c-.02559.01139-.07287.06966-.04588.09355.02512.0232.140285-.04071.09269-.08306-.0062-.0061-.03136.0091-.03136-.0033 0-.0095-.0062-.01108-.01404-.0073zm3.269078.09032c-.04042.0103-.09597.05341-.06039.08548.02512.02288.139662-.03926.09191-.08225-.0062-.0061-.0181-.0066-.03137-.0025zm-.09597.80317c-.0156 0-.03433.0083-.05727.02419v.287884c.02185.0159.04151.03374.05399.05806v.53867c-.0062.0717-.0062.137274 0 .196759v.950735c.01404.01092.02356.02581.03964.03386-.0047-.12426-.0047-.26776-.0047-.419326.0047-.454684.02356-.986337.0047-1.315226-.0047-.07681.07006-.355616-.03558-.355616zm-.0047 2.056295c-.02107-.01673-.04401-.03088-.06055-.05242v-1.122498c0-.0059.0062-.02576.0062-.02985v-.539476c-.02965-.0216-.06616-.03736-.118595-.03873v2.229678c.231822-.0128-.03308.418385.172572.429805zm-3.070743-1.999851c.02185-.0037.03964.02885.03964.0516-.01732.09355-.09222.04596-.09191 0 .0047-.02348.01248-.0374.02185-.04516.0094-.0081.01935-.0044.03059-.0064zm18.169618.454808c-.02559.01108-.07287.06788-.04588.09193.02481.02275.139817-.03856.09269-.08144-.0062-.0061-.03214.0094-.03214-.0033 0-.0095-.0062-.01092-.01404-.0073zm-8.110681.03868c-.01092.0051-.02232.02135-.03464.05323-.0047.08773.04198.209942.09113.08306.0047-.06598-.02309-.151631-.05649-.136276zm-8.668719.463673c.01404-.0033.02606-.003.03214.0025.04775.0431-.06632.106626-.09191.08386-.03558-.03208.05961-.04838.05961-.08629zm8.60179 0c-.04088.0103-.09659.05419-.06055.08628.02512.0228.139194-.04074.09191-.08386-.0062-.0061-.0181-.0058-.03137-.0017zm5.368963.09597v.000826c-.01404.0041-.01607.0235.01092.07095.01248.02094-.0062.05969 0 .08306.03059.102147.153238.02754.09113-.08306-.01732-.03093-.05742-.06139-.08473-.06935-.0062-.002-.01248-.0033-.01701-.0025zm-5.375407.101602c-.02107-.0061-.04541.0061-.05399.05323 0 .04554.07443.09375.09269 0 0-.02308-.01779-.0472-.03885-.05323zm-8.694514.166115c-.02107-.0061-.04432.0058-.05321.05242 0 .04566.0749.09324.09191 0 0-.02328-.01779-.0465-.03886-.05242zm8.663851.04193c-.01982-.000825-.03808.0012-.05243.0064v-.000825c-.203797.05821.0941.566111-.155578.583022v.826549c-.446028.983047-.144655 2.472575-.368488 3.799721.02356.002.04432.0025.06289 0 .278558-.03522.044-.529875.121716-.744302.04276-.09416.04744-.36552.09269-.660435v-1.237813c.224098-.762956.251235-1.703132.368535-2.561903-.02606-.0061-.04947-.0087-.06928-.0097zm5.322991.25885c-.305898.08036.104239.163251.09363.248368.08785.153222-.27614.276005 0 .33062-.388025.269915-.162148.662256-.370142 1.156366v.741882c-.200083.01482-.04088-.291908-.09113-.412067-.299406.461629-.04557 1.267821 0 2.065172.02434.432592.0426.892252.05727 1.354736.01404.462487.02559.92751.03386 1.370059-.223443-.04769-.203173-.310183-.27497-.494316.103927-.169918-.0062-.07308.183839-.166115.06694-.361132-.182731.06671-.183839-.164505-.05196-.377494.162164-.515088.09113-.909612-.124994.02564-.07615.207729-.09113.331429-.02637-.02779-.04744-.0615-.06289-.09918-.108765-.26395.02153-.742341-.03059-1.057177-.0696-.350195.171136-.977579-.183854-1.073309-.129519.26663-.01404 1.286409-.277404 1.486181-.203625-.01061-.03917-.351577-.09191-.496739-.367536.220094-.238501.755169-.276577 1.240231-.03558.476101-.117503 1.475158-.183885 1.89986-.214329-.578905-.03183-1.514868-.09269-2.231288-.636482.366234-.273534 1.626495-.368488 2.47885-.202595-.369517-.191032-.930428-.183901-1.487795-.459978.607122.03511 2.070136-.277357 2.808666-.233117-.571502-.0206-1.600422 0-1.982112-.222334-.03051-.18827.256374-.18468.246755-.132016.371077-.25871.848928-.276593 1.322483.0047.211372-.06694.100728-.183838.08306.0078.117269.0156.233764-.09113.247561v1.568435c-.02388.402559-.308613.387543-.277404.66124.02606 1.722306-.435338 3.510606-.275796 5.203644.12078 1.297858.06601 2.690935.09191 3.469906.0047.09313-.08473.04856-.09191.08225-.0062.02514.184462.406887.09191.660437-.107516-.01295-.07755-.149758-.09191-.246758-.396202.132343.04853.575826-.09347.99025.04042 1.670887.139974 3.289097.09347 5.03834.120156.722707.244743 1.441957.266917 2.253067h2.218402c-.01248-.11865-.02512-.23874-.03885-.35724-.139974-1.23727-.279807-2.474898-.235459-3.877939-.04947-.23134-.133575-.429226-.183073-.661244.08239-1.110285.115786-2.261953.09113-3.468291.06679-.36209-.183323.06732-.184634-.164505.03839-1.166213.35048-1.95805.09347-3.221534-.06757-.361062.182121.06605.183853-.165311.01092-1.257056.391287-2.183156.275797-3.552964.133263-.59691.391661-1.080917.370142-1.815995.132639.01879.03214.246572.183854.247562.163084-.368853.139349-1.280463 0-1.6531-.114226-.266638.297939-.06212.183853-.329815.01248-.153206.06101-.275874.184681-.329817.02934-.442388.0607-.880042.183854-1.238618-.09066-.09517-.09456-.0142-.131547-.0629-.01248-.01623-.02934-.04678-.05321-.103225-.05867-.139068.01248-.243707-.09113-.329815.0646-.245159.111105-.407195 0-.495931.156718-.312857.151365.178321.275797.164501.361512-.696177.319676-1.375562.645938-1.98211v-.990247c.06788.0076.08505.0598.09347.120156v-1.775675c-.07849-.204496-.09878-.460655-.186288-.657211-.07787-.618793.212878-1.568004-.276593-1.817607zm-31.5412.370133c-.0047.04915-.01092.0984-.01701.147573.0047-.0075.0047-.01514.0078-.02258.0047-.04129.0062-.08366.0094-.124993zm19.313063 1.278133c-.01685.02027-.06039.0294-.06928.05242-.0047.0117-.0047.02408.0078.03467.01404.01264.05446-.0033.08068-.02581v-.05886c-.0062-.0012-.01404-.0075-.01857-.0025zm-1.382945.578183c-.04042.0103-.0955.05382-.05961.08628.02512.02258.138881-.04026.09113-.08306-.0062-.0061-.03136.0091-.03136-.0033zm0 .247563c-.04042.0103-.0955.05412-.05961.08628.02512.02308.138881-.03946.09113-.08306-.0062-.0052-.0181-.0066-.03136-.0025zm.01404.160472c-.0078-.0012-.01404-.000827-.01404.0056v.000825c0 .03765-.0955.05179-.05961.08386.02512.02246.138881-.03996.09113-.08225-.0047-.003-.01092-.0067-.01779-.0081zm1.341047.14595c-.0047-.0067-.0047.0012-.0047.02742 0 .0044-.0047.01061-.0078.01451v.883803c.0047.0025.0047.0073.0078.0097.103147-.128817.02559-.888223.0047-.935417zm-1.354764.0242c-.04042.0103-.0955.0538-.05961.08628.02512.02258.138881-.03996.09113-.08225-.0062-.0061-.0181-.0073-.03137-.0033zm7.671224.03307c-.0206-.0061-.04307.0067-.05165.05321 0 .04566.07475.09313.09191 0 0-.02328-.01935-.04741-.04042-.05321zm-9.154959.04837c.04385.0092.06257.259032.04042.334653-.0774.262765-.120936-.146402-.09113-.247562.01935-.06546.03636-.09016.05087-.08709zm3.156209.03224c-.01248.000825-.02731.01751-.04525.05483-.0062.115631.01935.315501.09113.164506.0047-.0867-.0094-.221065-.04588-.219339zm-1.672474.133856c-.04042.0103-.0955.05382-.05961.08548.02512.0232.138881-.04026.09113-.08306-.0062-.0061-.0181-.0058-.03137-.0017zm7.693804.07742c-.0078-.0017-.01404-.000827-.01404.0056 0 .03798-.09612.05373-.06055.08548.02512.02288.139662-.04029.09191-.08306-.0047-.0025-.01092-.0066-.01779-.0081zm-6.014074.203207c-.02107-.0061-.04354.0061-.05243.05323 0 .04553.07428.09324.09191 0 .000172-.0235-.01857-.0473-.03964-.05323zm-3.169114.04274c.0078-.0037.01404-.002.01404.0073 0 .01248.02481-.003.03137.0033.04775.04238-.0657.105425-.09113.08225-.02637-.02406.02029-.08164.04525-.09274zm9.109004.01046c-.000219.0012 0 .003 0 .0041 0-.0012 0-.003 0-.0041zm0 .0041c-.184681.457753-.193513.973831-.14762 1.51279.03183-.520062.07631-1.028243.14762-1.51279zm-.14762 1.51279c-.09207 1.514719-.06819 3.134151-.22093 4.594823-.04432.341532.283224-.110091.184634.330621-.05633.19756.116722.60054-.09113.661241-.05477-.17091.112665-.543056-.09347-.578988-.199755.674616-.0047 1.704283-.183854 2.396592-.06835.336282.296769.283612.183854.660437-.390085 2.640411.08068 4.385513 0 7.102702.08645.281108.123276.605805.184634.908803-.105956.929389.163614 1.991983.09269 3.139282.243838.948331.189004 1.926564.275001 2.890915.04479.50354.182793 1.00434.255619 1.50957h.290294c-.17226-1.64082-.363495-3.264772-.545117-4.89722.05742-1.179942-.07256-2.191479-.09113-3.302982-.189253-.262848-.184962.23291-.277404 0 .36287-.887375-.04042-2.117336.09347-3.303787.11407-.267277-.298626-.0634-.184665-.330624-.162055-1.377588-.01561-2.597415.09191-4.047279-.263906-.01092-.167703-.344307-.183854-.578183-.06835-.253814.252717-.15842.183854-.412874-.314122-.08863.256852-.02617.09269-.247561-.07631-1.197708.376337-2.359718.09113-3.469098-.0465.12738.07397.402749-.03136.476575-.0156.01046-.03433.01718-.05961.01854.06086-.63359-.123276-1.485777.09113-1.982115.05945.359806-.119687.933885.09269 1.157174.205888-.724467-.0156-1.831667.184665-2.561906-.461054.02828.03808.915247-.276576 1.073307-.05571-.4099-.115631-.814392-.149181-1.207975zm-5.784233-1.271681c.02278.0142-.0607.02779-.06929.05081-.0047.01155-.0047.02325.0094.03386.02606.02245.139037-.04079.09113-.08306-.0062-.0059-.0401-.0081-.03136-.0017zm-.283053.118548c-.103458.250729-.133419.566945-.172587.874935.174772 1.811149-.04869 4.101857-.02637 6.10116.0047.285642.01092.56557.02637.837038.0047.08923-.12905.501982.172587.494316v-.08144c-.0094-.05516-.0206-.108827-.02434-.169343-.0094-.171362.0047-.35969.02434-.54754v-1.022503c-.04088-1.299179-.07272-2.607247-.05399-3.960194v-.246756c.02029-.0025.03714-.002.05399-.0017zm0 2.278059v4.208559c.04853 1.538992.111105 3.065118.130611 4.630302.155266.223967-.145903.387287.184681.495929.0047-.419746.0047-.825877 0-1.220877-.03058-2.764954-.245586-5.014619-.183854-8.030856-.01576-.0482-.05165-.07704-.113758-.08306v-.000826c-.0047-.000413-.01248.000826-.01779.000826zm.315308-2.228065c-.07178.01862-.182122.0017-.184681.08144.07147-.01829.182199-.000414.184681-.08144zm22.619264.154018c.0094-.0037.01404-.002.01404.0073 0 .01248.02481-.003.03137.0033.04728.04279-.06663.105737-.09269.08225-.02684-.02383.02107-.0816.04681-.09274zm-22.658775.04112c-.02107-.0061-.04354.0048-.05243.05161 0 .04596.07428.09416.09191 0 .000156-.02278-.01857-.04569-.03964-.05161zm-.05243.216919c-.01404.09701.01576.233818-.09269.247563.06913 1.59188.09722 3.22807.184681 4.791581 0 .002-.09472.01061-.09113.08144.03339.613372.05524 1.592779.09113 2.230482.01092.181508-.125929.542952.183854.661241-.0206-.666868-.03012-1.328067-.03714-1.987756-.02138-1.979105-.02107-3.945943-.23872-6.024555zm10.838747.608021c.02107.0061.03964.03035.03964.05321-.0181.09416-.09191.04596-.09191 0 .0094-.04708.03137-.05936.05243-.05321zm.638666.125788c-.02512.01108-.07178.06805-.0451.09193.02512.02338.138881-.03914.09113-.08144-.0062-.0059-.03012.0076-.03136-.0033 0-.0083-.0062-.01077-.01404-.0073zm-.446776.08951c.01404-.0033.02559-.003.03215.0025.04713.0433-.06679.105379-.09191.08225-.03636-.03208.05961-.04656.05961-.08467zm-31.385591 1.732128c-.133575.973191-.27319 1.943616-.417689 2.911885-.01561.499732-.04245.993699-.08551 1.471664-.187912.823433-.272177 1.648382-.368535 2.477236-.0955.821188-.231916 1.63622-.368535 2.478851-.277575 1.708092-.359031 3.501829-.645891 5.368955-.151365.360818-.210975.801827-.276593 1.237813-.275.249929-.01248.979036-.368519 1.156366-.337981 1.419217-.426662 3.061883-.577371 4.648853h.397512c.114694-1.00482.18337-2.050497.271755-3.078807.833725-2.171664 1.05233-4.893651 1.383008-7.516379.226532-1.94362.563234-3.984353.829745-5.864085.09082-.641592.229763-1.332517.277404-1.983721.08021-1.097106.02434-2.194068-.05087-3.308631zm25.367522 1.025734s.0593.07005.05649.135464v.991055c-.126866.262749-.09253-.290674-.09347-.412062v-.661242c.01248-.03176.02512-.04822.03636-.05323zm-7.714776.714464v.98944c-.0078.130096-.235256.06529-.184665.248369.08177.559652.02731 1.243461.184665 1.735357.01404-.09744-.01654-.235532.09191-.248368-.04806.456556.05384.777977.09347 1.156366.0685.253463-.25395.159225-.185461.413677.237736.514018-.05649 1.317415.276592 1.569238.14091-.327308-.0047-.49692 0-.991055.0062-.130127.235256-.06524.184681-.248366-.175349-1.412925-.252858-2.911674-.275812-4.460154-.121872 0-.0852-.144264-.185461-.164504zm8.545349.02903c0 .03394.06023.06932.05727.135479v.743493c-.106112.267293-.104395-.222399-.09269-.33062v-.495934c.01248-.03183.03542-.0637.03542-.05242zm3.042514.247563c.03386-.01514.05992.06997.05649.135479-.04806.127865-.0955.0061-.09191-.08225.01248-.03176.02434-.04822.03542-.05323zm-4.017461.870901c-.0078-.0017-.01404-.000414-.01404.0056 0 .0377-.09644.05209-.06039.08467.02512.02258.139193-.03946.09191-.08225-.0047-.003-.01092-.0066-.01779-.0081zm-7.517175.616083c.02107.0061.03917.03043.03886.05323-.01779.09416-.09191.04699-.09191 0 .0094-.04647.03214-.05916.05321-.05323zm20.502512.788654c-.0078-.0017-.01248-.000413-.01248.0056 0 .03803-.0969.05281-.06133.08467.02512.02255.140441-.04026.09269-.08306-.0047-.0025-.01092-.0058-.01857-.0073zm-13.007885.120156c.02107.0061.04042.02965.04042.05242-.01779.09416-.09332.04595-.09269 0 .0078-.04688.03136-.05835.05243-.05242zm13.178037 1.619237c.01404-.003.02434-.003.03059.0033.04775.04279-.0657.105534-.09191.08306-.01248-.01061-.01404-.02303-.0078-.03469.0094-.02313.04088-.04469.06772-.0516zm-5.577003.15241c-.265529 1.144742-.529684 2.290798-.73863 3.486033v1.32087c-.319817.841629-.251687 2.032853-.644331 2.808661-.06273 2.082774.17435 4.125801.09113 6.443077.04915.12691.09628.004.09191-.0839.09098.52978.180718 1.06013.26854 1.59262h.931363v-3.319112c-.06679.103053-.273705.08138-.186288.32256-.01576.213963.08068.655915-.183027.412064-.0206.06434-.0047.164707-.09191.166925v-.909613c.123277-.496752-.276077-.5238-.184634-.991861v-3.054614c.347765-2.017489.316181-4.374666.645907-6.408395zm-12.210379.293528c-.0206-.0072-.04385.0048-.05243.0516 0 .04564.07365.09385.09113 0 .000202-.02275-.01779-.04558-.03886-.0516zm-2.495774.209661c-.0078-.0017-.01404-.000827-.01404.0056 0 .03765-.09534.05291-.05976.08467.02512.02308.139661-.03935.09191-.08225-.0047-.003-.01092-.0066-.01857-.0081zm29.180889.0879c-.04088.0103-.09644.05281-.06055.08467.02512.02328.139974-.03886.09269-.08225-.0062-.0061-.0181-.0058-.03137-.0017zm-29.109139.694303c-.02107-.007-.04494.005-.05399.05161-.00025.04592.07506.09414.09269 0 0-.02271-.01779-.04557-.03885-.05161zm-.05321.216919c-.406236 0-.189347.623187-.184681.991055.0047.288513.148088.6227.184681.907998.211552 1.63425.385825 3.502437.55398 4.956087.187864 1.623953.133576 3.738497.274985 5.53426.03542.4498.154486.93655.186288 1.40393.0062.0897.0078.18156.01248.27176h.346766c-.06117-1.17961-.221913-2.377142-.268524-3.574737-.02559-.675622-.03886-1.308296-.09113-1.982917-.0696-.887321-.05368-1.757363-.186289-2.807857-.03761-.295592-.15433-.536016-.183026-.825745-.06429-.650547-.01561-1.281218-.09191-1.900667-.181825-.550925-.200816-.885588-.369315-1.320872.112198-.257003 0-.333064 0-.744297-.05711-.307157.156062-.907998-.184681-.907998zm2.516747.329815v1.486986c.0685.337283-.296785.284399-.183854.66124v2.065172c-.02637.299779.258335.318747.276577.577375-.05665.22386.116254.655059-.09269.743497-.05696-.306864.150741-.849181-.183854-.907998-.0047 1.480371.03339 2.867351 0 4.211784-.01732.688779-.07615 1.332399-.09113 1.982917-.0047.255362.09706.481702.09113.743497-.01576.710735-.03917 1.437815-.0646 2.170805h.453221c.02559-2.420977.0451-4.788134-.01857-7.043835-.08208-.300997.162335-.440866 0-.578987-.107984-.01358-.07818-.15099-.09269-.248373-.02559-.147791.08707-.168068.09269-.08144v.248368c.07162.149992.09831-.05128.09113-.166925v-.412128c.02965-1.403283.000343-2.877157-.09113-4.212594-.0309-.448173.113601-.899951-.185461-1.239423zm-.626589 1.102338c-.01248 0-.02731.01673-.0451.05402-.0062.115646.01982.316128.09113.166115.0047-.0867-.0094-.221873-.04603-.220143zm.502392.133061v.000825s-.09503.05359-.05961.08628c.02512.02213.139349-.04121.09191-.08386-.0062-.0062-.01857-.0062-.03214-.0033zm-21.981425.140316c-.207636 1.16689-.423526 2.322231-.646719 3.465873-.112197.783343-.25214 1.54141-.452394 2.245801-.230496 1.111505-.468529 2.206544-.713647 3.286049-.175224 1.105362-.245211 2.261547-.355645 3.361847h.251609c.09175-1.04202.128894-2.112552.216093-3.243308.229888-.730177.426943-1.491118.5532-2.31354.423775-1.089076.605117-2.287067.73785-3.469902.124057-1.099113.285377-2.209431.409653-3.33282zm21.995126.102414c-.0078-.0017-.01404-.000826-.01404.0056 0 .03795-.09503.0534-.05961.08548.02512.02295.139349-.03898.09191-.08225-.0047-.0033-.01092-.0072-.01857-.0089zm-.388665.04034c-.05742.154938-.217185.218252-.172587.464481.05337.600969.112353 1.196381.172587 1.790996zm14.282003.378198v.000826c-.04042.01061-.09472.05384-.05883.08548.02559.02325.139193-.03956.09191-.08306-.0062-.0062-.01857-.0069-.03214-.0033zm.01404.325781c-.0078-.0017-.01404-.000825-.01404.0056 0 .03748-.09472.05263-.05883.08467.02559.02217.139193-.03918.09191-.08144-.0047-.0033-.01092-.0073-.01857-.0089zm-27.096376.09112c-.330178.0208-.17407.484188-.183854.743497-.01248.318044.0094.667925 0 .908803-.516997 2.427134-.775909 5.088334-.92331 7.847001.08957.300346-.447432.03885-.27497.413676.01092.56302.0047 1.04704-.0047 1.50876h.978972c.07428-1.55409.185618-3.149655.130611-4.64885-.01576-.234446.312748-.161404.185461-.495124.04541-.593915.109389-1.220527.159651-1.833734v-2.10549c-.02434.03588-.05384.03959-.0685-.02581zm27.058472.524963c-.01092.0052-.02356.02044-.03542.05242-.0047.08729.04338.210772.09191.08388.0047-.06637-.02309-.151755-.05649-.136275zm.01607.379809c-.01404-.003-.03261.0208-.05165.08629-.03012.101617.01404.510406.09191.247558.02231-.07568.0047-.324765-.04042-.333845zm0 .5298c-.0206-.0062-.04354.005-.05243.0516 0 .04554.07397.09372.09191 0 0-.02295-.01857-.04547-.03964-.0516zm.132327.299172c-.07178.01837-.1822.0025-.184681.08225.07162-.01837.182122-.00003.184681-.08225zm-13.940122.07983c.01404-.003.02481-.0033.03137.0025.04775.04369-.06507.107266-.09035.08386-.03589-.03183.0181-.07526.05883-.08548zm12.193464 1.23136v.159667c.01248-.03035.0206-.05811.02263-.07983.0047-.03605-.0078-.06045-.02263-.07983zm0 .205632v.28143c.01248-.09829.01779-.19602 0-.28143zm.14762.297562v.000825c-.04042.01061-.09675.05352-.06039.08548.02512.02242.140441-.04109.09191-.08386-.0062-.0051-.0181-.0059-.03136-.0025zm-.05477.333844c-.0094-.000826-.01404.0033-.01404.01295 0 .03522-.07209.02547-.07896.06048v.03224c.04978-.03282.110949-.04881.179016-.02338-.0078-.03893-.0607-.08027-.08629-.08225zm-.0078.247563c-.06055.0166-.07693.07315-.08551.136275v.628982c0 .0059.0047.01124 0 .01693v1.561979c.171994-.70218.08739-1.786525.179016-2.344178-.03917-.0075-.06975-.0073-.09363 0zm.259661 1.395864c-.0078-.0017-.01404-.000413-.01404.0056 0 .03758-.09519.05263-.05961.08467.02606.02325.139662-.03939.09191-.08225-.0047-.0033-.01092-.0066-.01857-.0081zm1.185407.912837s-.09613.05259-.06055.08467c.02559.02325.139193-.03856.09191-.08144-.0062-.0062-.01779-.0062-.03137-.0033zm-1.199108.249173c-.04042.0103-.09519.05209-.05961.08386.02606.02242.139661-.03876.09191-.08144-.0062-.0051-.01904-.0061-.03215-.0025zm1.190228.693499c-.0206-.0058-.04276.0067-.05165.05241 0 .04596.07459.09315.09191 0 0-.0227-.01857-.04621-.03963-.05241zm13.332072 1.86599c.01404-.003.02481-.0033.03136.0025.04775.04277-.06632.106174-.09269.08306-.03542-.03204.02029-.07526.06133-.08548zm-15.968974.07741c.0078.0017.01404.005.01779.0081.04775.04269-.06741.104426-.09363.08225-.03558-.03204.06211-.04711.06211-.08467v-.000826c0-.0062.0062-.0064.01404-.0048zm2.277247.08709c-.02731.007-.06133.0284-.07006.0516-.0047.01155-.0047.02386.0094.03469.02512.02242.140285-.04067.09269-.08306-.0062-.0062-.01904-.0062-.03214-.0033zm13.691727 0c.01404-.003.02481-.003.03136.0033.04775.04238-.06632.105503-.09269.08306-.03542-.03208.02029-.07537.06133-.08548zm-13.968304.577369s-.09644.0538-.06055.0863c.02606.0227.13935-.0403.09191-.0831-.0062-.006-.01779-.006-.03137-.003zm13.322397.82736v.00082c-.04088.0103-.09613.0519-.06055.0839.02606.023.141222-.0389.09269-.0822-.0062-.005-.01857-.005-.03214-.003z" fill="#68423a" fill-rule="evenodd" opacity=".689286" stroke-width=".067539"/><path d="m51.932376 28.460352-2.780279-7.226288h53.546403l-3.242464 7.226288h-47.523361z" fill="#a36842" stroke-width="6.35"/></g></svg>