<svg height="500" viewBox="0 0 500 500" width="500" xmlns="http://www.w3.org/2000/svg" xmlns:xlink="http://www.w3.org/1999/xlink"><linearGradient id="a" gradientTransform="translate(647.52336 -304.60449)" gradientUnits="userSpaceOnUse" spreadMethod="reflect" x1="-503.4317" x2="-372.50543" xlink:href="#b" y1="335.30862" y2="357.49716"/><linearGradient id="b" gradientTransform="matrix(392.59 0 0 -392.59 9596.87 3878.54)" gradientUnits="userSpaceOnUse" spreadMethod="pad" x1="0" x2="1" y1="0" y2="0"><stop offset="0" stop-color="#523528"/><stop offset=".00561798" stop-color="#523528"/><stop offset=".275281" stop-color="#dff5fd"/><stop offset=".477528" stop-color="#dad9d6"/><stop offset=".668539" stop-color="#fff"/><stop offset="1" stop-color="#68574b"/></linearGradient><linearGradient id="c" gradientTransform="translate(647.52336 -304.60449)" gradientUnits="userSpaceOnUse" spreadMethod="reflect" x1="-502.10876" x2="-378.54834" xlink:href="#b" y1="406.48276" y2="400.7948"/><linearGradient id="d" gradientTransform="translate(647.52336 -304.60449)" gradientUnits="userSpaceOnUse" spreadMethod="reflect" x1="-390.16354" x2="-486.77615" xlink:href="#b" y1="332.01047" y2="371.61066"/><linearGradient id="e" gradientTransform="translate(647.52336 -304.60449)" gradientUnits="userSpaceOnUse" spreadMethod="reflect" x1="-326.655" x2="-458.65744" xlink:href="#b" y1="477.10196" y2="433.41568"/><filter id="f" color-interpolation-filters="sRGB" height="1.005222" width="1.008852" x="-.004426" y="-.002611"><feGaussianBlur stdDeviation=".05093077"/></filter><radialGradient id="g" cx="-253.60388" cy="676.013" gradientTransform="matrix(.05065541 -.22403104 .29955503 .04603144 -231.74265 680.96259)" gradientUnits="userSpaceOnUse" r="145.23785" spreadMethod="reflect"><stop offset="0" stop-color="#585241"/><stop offset="1" stop-color="#50493a"/></radialGradient><filter id="h" color-interpolation-filters="sRGB" height="1.133439" width="1.24591" x="-.122955" y="-.066719"><feGaussianBlur stdDeviation="3.0469005"/></filter><filter id="i" color-interpolation-filters="sRGB" height="1.00478" width="1.008103" x="-.004052" y="-.00239"><feGaussianBlur stdDeviation=".046623102"/></filter><radialGradient id="j" cx="-200.55315" cy="527.75891" gradientTransform="matrix(-.66098662 -.00000139 .00000451 -1.2998797 -541.07182 1214.6265)" gradientUnits="userSpaceOnUse" r="30.256835"><stop offset="0" stop-color="#f4f2f1"/><stop offset="1" stop-color="#1f1d30"/></radialGradient><linearGradient id="k" gradientTransform="matrix(-.03546304 -.05278205 .07752421 -.03198281 -15.827094 581.25138)" gradientUnits="userSpaceOnUse" spreadMethod="reflect" x1="1232.0406" x2="428.67737" y1="3557.8494" y2="4147.4858"><stop offset="0" stop-color="#93a0aa"/><stop offset=".25" stop-color="#9da9b2"/><stop offset=".375" stop-color="#7f8f9a"/><stop offset=".5" stop-color="#93a0aa"/><stop offset=".75" stop-color="#7c8c98"/><stop offset="1" stop-color="#93a0aa"/></linearGradient><g stroke-width="1.42285" transform="matrix(2.6563102 0 0 2.6563102 -298.61625 52.470647)"><path d="m206.5332 19.064453c-15.33983.000297-31.0404 2.255001-45.64258 7.5625-4.98946 1.813535-10.43681 4.309473-14.6875 8.792969-2.40656 2.538379-5.55078 6.147996-5.55078 11.425781s3.14422 8.887403 5.55078 11.425781c4.25069 4.483495 9.69804 6.979435 14.6875 8.792969 14.60218 5.307498 30.30275 7.562203 45.64258 7.5625 15.34326.000297 31.04863-2.254053 45.6543-7.5625 4.98825-1.812984 10.43888-4.306947 14.68945-8.794922 2.40819-2.542683 5.53711-6.155132 5.53711-11.423828s-3.12892-8.883098-5.53711-11.425781c-4.25057-4.487975-9.7012-6.979984-14.68945-8.792969-14.60567-5.308447-30.31104-7.562797-45.6543-7.5625z" fill="#594840" stroke-width="1.42285"/><path d="m206.53332 23.826175c-14.87114.000288-30.03956 2.195949-44.01609 7.276042-4.67838 1.700465-9.43393 3.981141-12.85875 7.593542-2.10716 2.222574-4.24391 5.086494-4.24391 8.149167s2.13675 5.926593 4.24391 8.149167c3.42482 3.6124 8.18037 5.893076 12.85875 7.593541 13.97653 5.080092 29.14495 7.275754 44.01609 7.276042 14.87462.000288 30.04677-2.195031 44.02667-7.276042 4.67841-1.700374 9.43578-3.979391 12.85875-7.593541 2.10491-2.222469 4.23333-5.088121 4.23333-8.149167s-2.12842-5.926698-4.23333-8.149167c-3.42297-3.61415-8.18034-5.893167-12.85875-7.593542-13.9799-5.081011-29.15205-7.27633-44.02667-7.276042z" fill="url(#a)" stroke-width="13.5527"/><path d="m140.65234 45.185547v12.294922 44.398441c0 4.90681 2.45365 9.42816 6.23243 12.88086 3.99949 3.65702 9.78773 6.59969 15.28125 8.43554 14.34008 4.79222 29.57072 6.46471 44.36718 6.46485 14.79794.00013 30.03112-1.67085 44.37305-6.46485 5.49261-1.83598 11.27942-4.77838 15.27734-8.4375 3.77014-3.45062 6.23047-7.96728 6.23047-12.8789v-55.707035l-8.08984 7.902344c-3.81302 3.724789-8.58199 6.547874-13.69727 8.474609-13.79259 5.195154-29.07098 7.314102-44.09375 7.314453-15.02775.000352-30.31293-2.115908-44.10742-7.314453-5.16311-1.945752-10.52199-5.016731-13.49219-8.275391z" fill="#594840" stroke-width="1.42285"/><path d="m145.41461 57.481176v44.397084c0 3.4925 1.55575 6.50875 4.68312 9.36625 3.12473 2.8575 8.68427 5.79925 13.57842 7.4348 13.69103 4.57532 28.42191 6.21757 42.85721 6.2177 14.43704.00013 29.17015-1.64083 42.8625-6.2177 4.89256-1.63541 10.45104-4.5773 13.57312-7.4348 3.12209-2.8575 4.68313-5.87375 4.68313-9.36625v-44.397084c-4.3676 4.266535-9.71173 7.402843-15.34583 9.525-14.47485 5.452136-30.3053 7.619638-45.77292 7.62-15.47197.000362-31.30815-2.163871-45.78615-7.62-5.63024-2.121792-11.53416-5.35766-15.3326-9.525z" fill="url(#c)" stroke-width="13.5527"/><path d="m206.55982 27.405988c11.75309 0 23.68507 1.301569 34.95146 4.648729 3.92518 1.16614 8.05428 2.539342 11.08604 5.291667 2.27896 2.068903 4.7625 4.833056 4.7625 7.911042s-2.48354 5.842139-4.7625 7.911042c-3.03176 2.752325-7.16099 4.125088-11.08604 5.291666-11.26635 3.348516-23.19803 4.656667-34.95146 4.656667s-23.68433-1.310762-34.95146-4.656667c-3.92913-1.166802-8.06561-2.535505-11.09927-5.291666-2.27648-2.068247-4.74927-4.835328-4.74927-7.911042s2.47279-5.842795 4.74927-7.911042c3.03366-2.756161 7.17001-4.125304 11.09927-5.291667 11.26717-3.344549 23.19837-4.648729 34.95146-4.648729z" fill="#594840"/><path d="m173.03711 36.579092c-3.41353 1.002914-6.93956 2.251631-9.65465 4.550834-1.27739 1.081724-2.86014 2.453627-2.86014 4.1275s1.58275 3.045776 2.86014 4.1275c2.71509 2.299203 6.24112 3.547919 9.65465 4.550833 10.81381 3.177154 22.25183 4.418542 33.52271 4.418542s22.70873-1.241958 33.52271-4.418542c3.41435-1.002958 6.94197-2.250672 9.65729-4.550833 1.27683-1.081609 2.8575-2.454128 2.8575-4.1275s-1.58067-3.045891-2.8575-4.1275c-2.71532-2.300161-6.24294-3.547876-9.65729-4.550834-10.81399-3.176586-22.25184-4.418543-33.52273-4.418542-11.27088.000001-22.70888 1.241389-33.52269 4.418542z" fill="url(#d)"/></g><g stroke-width="2.06274" transform="matrix(-.15585163 .41165299 -.49934558 -.18905201 390.38545 482.68607)"><path d="m184.50764 423.57635 3.36949-9.00893-41.23062-69.60415-50.625102-35.2536-35.162493.26397-12.568466 10.53338-24.617176 21.40512-9.374734 28.27532-5.7990657 16.24197-.1260334 1.63176-1.710176 22.25943.4721687 17.36698 12.0476754 23.02815 39.502038 8.67879 68.002494 8.87279z" fill="#393523" stroke-width=".999995" transform="matrix(-.80440419 -1.7515571 2.1246835 -.6631387 -711.52741 1003.8702)"/><path d="m98.489584 699.78457 47.245846-11.42077 28.43911-9.61202 20.84488-19.32492-9.88044-55.5293-31.41077-109.51527-121.537696-61.54733-.003.00001-99.49613 102.66605-28.14767 92.27424 18.3331 39.03228 21.34016 9.87099 58.1076497 25.74505 60.3513303-2.07988z" fill="url(#g)"/><path d="m-133.60364 34.542848 12.45076 17.467793.55748 16.539105-6.68946-15.795096-17.28311-15.981894-3.64425-15.039619z" fill="#393523" filter="url(#i)" opacity=".9" transform="matrix(3.9504204 0 0 4.0171976 617.68742 345.52797)"/><path d="m-133.60364 34.542848 12.45076 17.467793.55748 16.539105-6.68946-15.795096-17.28311-15.981894-3.64425-15.039619z" fill="#393523" filter="url(#f)" opacity=".95" transform="matrix(-3.2992465 0 0 3.3550164 -455.76384 450.72218)"/><g filter="url(#h)" opacity=".1" stroke-width="1.25349" transform="matrix(-.95906055 -.42584466 .52892837 -.81957905 -529.88578 898.6166)"><g transform="matrix(.63644578 0 0 1 -155.78511 0)"><path d="m-373.7063 473.80273c-30.26516.00067-54.79957 24.53563-54.79956 54.80079 0 30.26516 24.5344 54.80011 54.79956 54.80078 1.67196-.0428 3.34109-.16201 5.00215-.35742-1.56589-.18145-3.12322-.43038-4.66765-.7461-22.69388-4.83599-35.07236-27.18377-35.13469-53.69727.005-1.78436.065-2.55255.17799-4.30078 1.58414-24.5017 13.77043-45.01755 34.94443-49.43164 1.78356-.3431 3.58307-.59732 5.39188-.76171-1.89806-.20166-3.80537-.30402-5.71411-.30665z" fill="url(#j)"/><path d="m-373.70508 473.80273a54.800777 54.800777 0 0 0 -54.80078 54.80079 54.800777 54.800777 0 0 0 54.80078 54.80078 54.800777 54.800777 0 0 0 5-.35742 54.800777 54.800777 0 0 1 -49.80078-54.44336 54.800777 54.800777 0 0 1 50.51367-54.49414 54.800777 54.800777 0 0 0 -5.71289-.30665z" fill="#1f1d30"/><path d="m-408.50586 529.60352c.0723-28.54964 14.1089-53.03886 39.71469-55.42556-33.12208-.15333-49.70322 25.15992-49.70321 55.42556-.00001 30.26564 17.02366 53.62207 49.7893 53.44336-25.661-2.75879-39.73429-25.16449-39.80078-53.44336z" fill="#f4f2f1"/></g><g transform="matrix(.52365341 0 0 .82277773 -187.11046 93.680313)"><path d="m-373.7063 473.80273c-30.26516.00067-54.79957 24.53563-54.79956 54.80079 0 30.26516 24.5344 54.80011 54.79956 54.80078 1.67196-.0428 3.34109-.16201 5.00215-.35742-1.56589-.18145-3.12322-.43038-4.66765-.7461-22.69388-4.83599-35.07236-27.18377-35.13469-53.69727.005-1.78436.065-2.55255.17799-4.30078 1.58414-24.5017 13.77043-45.01755 34.94443-49.43164 1.78356-.3431 3.58307-.59732 5.39188-.76171-1.89806-.20166-3.80537-.30402-5.71411-.30665z" fill="url(#j)"/><path d="m-373.70508 473.80273a54.800777 54.800777 0 0 0 -54.80078 54.80079 54.800777 54.800777 0 0 0 54.80078 54.80078 54.800777 54.800777 0 0 0 5-.35742 54.800777 54.800777 0 0 1 -49.80078-54.44336 54.800777 54.800777 0 0 1 50.51367-54.49414 54.800777 54.800777 0 0 0 -5.71289-.30665z" fill="#1f1d30"/><path d="m-408.50586 529.60352c.0723-28.54964 14.1089-53.03886 39.71469-55.42556-33.12208-.15333-49.70322 25.15992-49.70321 55.42556-.00001 30.26564 17.02366 53.62207 49.7893 53.44336-25.661-2.75879-39.73429-25.16449-39.80078-53.44336z" fill="#f4f2f1"/></g><g transform="matrix(.3321957 0 0 .52195444 -254.63922 252.69656)"><path d="m-373.7063 473.80273c-30.26516.00067-54.79957 24.53563-54.79956 54.80079 0 30.26516 24.5344 54.80011 54.79956 54.80078 1.67196-.0428 3.34109-.16201 5.00215-.35742-1.56589-.18145-3.12322-.43038-4.66765-.7461-22.69388-4.83599-35.07236-27.18377-35.13469-53.69727.005-1.78436.065-2.55255.17799-4.30078 1.58414-24.5017 13.77043-45.01755 34.94443-49.43164 1.78356-.3431 3.58307-.59732 5.39188-.76171-1.89806-.20166-3.80537-.30402-5.71411-.30665z" fill="url(#j)"/><path d="m-373.70508 473.80273a54.800777 54.800777 0 0 0 -54.80078 54.80079 54.800777 54.800777 0 0 0 54.80078 54.80078 54.800777 54.800777 0 0 0 5-.35742 54.800777 54.800777 0 0 1 -49.80078-54.44336 54.800777 54.800777 0 0 1 50.51367-54.49414 54.800777 54.800777 0 0 0 -5.71289-.30665z" fill="#1f1d30"/><path d="m-408.50586 529.60352c.0723-28.54964 14.1089-53.03886 39.71469-55.42556-33.12208-.15333-49.70322 25.15992-49.70321 55.42556-.00001 30.26564 17.02366 53.62207 49.7893 53.44336-25.661-2.75879-39.73429-25.16449-39.80078-53.44336z" fill="#f4f2f1"/></g><g transform="matrix(.25783234 0 0 .40511281 -274.15197 314.45946)"><path d="m-373.7063 473.80273c-30.26516.00067-54.79957 24.53563-54.79956 54.80079 0 30.26516 24.5344 54.80011 54.79956 54.80078 1.67196-.0428 3.34109-.16201 5.00215-.35742-1.56589-.18145-3.12322-.43038-4.66765-.7461-22.69388-4.83599-35.07236-27.18377-35.13469-53.69727.005-1.78436.065-2.55255.17799-4.30078 1.58414-24.5017 13.77043-45.01755 34.94443-49.43164 1.78356-.3431 3.58307-.59732 5.39188-.76171-1.89806-.20166-3.80537-.30402-5.71411-.30665z" fill="url(#j)"/><path d="m-373.70508 473.80273a54.800777 54.800777 0 0 0 -54.80078 54.80079 54.800777 54.800777 0 0 0 54.80078 54.80078 54.800777 54.800777 0 0 0 5-.35742 54.800777 54.800777 0 0 1 -49.80078-54.44336 54.800777 54.800777 0 0 1 50.51367-54.49414 54.800777 54.800777 0 0 0 -5.71289-.30665z" fill="#1f1d30"/><path d="m-408.50586 529.60352c.0723-28.54964 14.1089-53.03886 39.71469-55.42556-33.12208-.15333-49.70322 25.15992-49.70321 55.42556-.00001 30.26564 17.02366 53.62207 49.7893 53.44336-25.661-2.75879-39.73429-25.16449-39.80078-53.44336z" fill="#f4f2f1"/></g></g><g filter="url(#h)" opacity=".1" stroke-width="1.25349" transform="matrix(-.95906055 -.42584466 .52892837 -.81957905 -624.38775 860.05357)"><g transform="matrix(.63644578 0 0 1 -155.78511 0)"><path d="m-373.7063 473.80273c-30.26516.00067-54.79957 24.53563-54.79956 54.80079 0 30.26516 24.5344 54.80011 54.79956 54.80078 1.67196-.0428 3.34109-.16201 5.00215-.35742-1.56589-.18145-3.12322-.43038-4.66765-.7461-22.69388-4.83599-35.07236-27.18377-35.13469-53.69727.005-1.78436.065-2.55255.17799-4.30078 1.58414-24.5017 13.77043-45.01755 34.94443-49.43164 1.78356-.3431 3.58307-.59732 5.39188-.76171-1.89806-.20166-3.80537-.30402-5.71411-.30665z" fill="url(#j)"/><path d="m-373.70508 473.80273a54.800777 54.800777 0 0 0 -54.80078 54.80079 54.800777 54.800777 0 0 0 54.80078 54.80078 54.800777 54.800777 0 0 0 5-.35742 54.800777 54.800777 0 0 1 -49.80078-54.44336 54.800777 54.800777 0 0 1 50.51367-54.49414 54.800777 54.800777 0 0 0 -5.71289-.30665z" fill="#1f1d30"/><path d="m-408.50586 529.60352c.0723-28.54964 14.1089-53.03886 39.71469-55.42556-33.12208-.15333-49.70322 25.15992-49.70321 55.42556-.00001 30.26564 17.02366 53.62207 49.7893 53.44336-25.661-2.75879-39.73429-25.16449-39.80078-53.44336z" fill="#f4f2f1"/></g><g transform="matrix(.52365341 0 0 .82277773 -187.11046 93.680313)"><path d="m-373.7063 473.80273c-30.26516.00067-54.79957 24.53563-54.79956 54.80079 0 30.26516 24.5344 54.80011 54.79956 54.80078 1.67196-.0428 3.34109-.16201 5.00215-.35742-1.56589-.18145-3.12322-.43038-4.66765-.7461-22.69388-4.83599-35.07236-27.18377-35.13469-53.69727.005-1.78436.065-2.55255.17799-4.30078 1.58414-24.5017 13.77043-45.01755 34.94443-49.43164 1.78356-.3431 3.58307-.59732 5.39188-.76171-1.89806-.20166-3.80537-.30402-5.71411-.30665z" fill="url(#j)"/><path d="m-373.70508 473.80273a54.800777 54.800777 0 0 0 -54.80078 54.80079 54.800777 54.800777 0 0 0 54.80078 54.80078 54.800777 54.800777 0 0 0 5-.35742 54.800777 54.800777 0 0 1 -49.80078-54.44336 54.800777 54.800777 0 0 1 50.51367-54.49414 54.800777 54.800777 0 0 0 -5.71289-.30665z" fill="#1f1d30"/><path d="m-408.50586 529.60352c.0723-28.54964 14.1089-53.03886 39.71469-55.42556-33.12208-.15333-49.70322 25.15992-49.70321 55.42556-.00001 30.26564 17.02366 53.62207 49.7893 53.44336-25.661-2.75879-39.73429-25.16449-39.80078-53.44336z" fill="#f4f2f1"/></g><g transform="matrix(.3321957 0 0 .52195444 -254.63922 252.69656)"><path d="m-373.7063 473.80273c-30.26516.00067-54.79957 24.53563-54.79956 54.80079 0 30.26516 24.5344 54.80011 54.79956 54.80078 1.67196-.0428 3.34109-.16201 5.00215-.35742-1.56589-.18145-3.12322-.43038-4.66765-.7461-22.69388-4.83599-35.07236-27.18377-35.13469-53.69727.005-1.78436.065-2.55255.17799-4.30078 1.58414-24.5017 13.77043-45.01755 34.94443-49.43164 1.78356-.3431 3.58307-.59732 5.39188-.76171-1.89806-.20166-3.80537-.30402-5.71411-.30665z" fill="url(#j)"/><path d="m-373.70508 473.80273a54.800777 54.800777 0 0 0 -54.80078 54.80079 54.800777 54.800777 0 0 0 54.80078 54.80078 54.800777 54.800777 0 0 0 5-.35742 54.800777 54.800777 0 0 1 -49.80078-54.44336 54.800777 54.800777 0 0 1 50.51367-54.49414 54.800777 54.800777 0 0 0 -5.71289-.30665z" fill="#1f1d30"/><path d="m-408.50586 529.60352c.0723-28.54964 14.1089-53.03886 39.71469-55.42556-33.12208-.15333-49.70322 25.15992-49.70321 55.42556-.00001 30.26564 17.02366 53.62207 49.7893 53.44336-25.661-2.75879-39.73429-25.16449-39.80078-53.44336z" fill="#f4f2f1"/></g><g transform="matrix(.25783234 0 0 .40511281 -274.15197 314.45946)"><path d="m-373.7063 473.80273c-30.26516.00067-54.79957 24.53563-54.79956 54.80079 0 30.26516 24.5344 54.80011 54.79956 54.80078 1.67196-.0428 3.34109-.16201 5.00215-.35742-1.56589-.18145-3.12322-.43038-4.66765-.7461-22.69388-4.83599-35.07236-27.18377-35.13469-53.69727.005-1.78436.065-2.55255.17799-4.30078 1.58414-24.5017 13.77043-45.01755 34.94443-49.43164 1.78356-.3431 3.58307-.59732 5.39188-.76171-1.89806-.20166-3.80537-.30402-5.71411-.30665z" fill="url(#j)"/><path d="m-373.70508 473.80273a54.800777 54.800777 0 0 0 -54.80078 54.80079 54.800777 54.800777 0 0 0 54.80078 54.80078 54.800777 54.800777 0 0 0 5-.35742 54.800777 54.800777 0 0 1 -49.80078-54.44336 54.800777 54.800777 0 0 1 50.51367-54.49414 54.800777 54.800777 0 0 0 -5.71289-.30665z" fill="#1f1d30"/><path d="m-408.50586 529.60352c.0723-28.54964 14.1089-53.03886 39.71469-55.42556-33.12208-.15333-49.70322 25.15992-49.70321 55.42556-.00001 30.26564 17.02366 53.62207 49.7893 53.44336-25.661-2.75879-39.73429-25.16449-39.80078-53.44336z" fill="#f4f2f1"/></g></g><path d="m96.021477 309.70897-35.162109.26563-12.568359 10.5332-24.617188 21.4043-9.374999 28.27539-5.7988283 16.24218-.1269531 1.63086-1.7089842 22.25977.4707032 17.36719 12.0488284 23.02734 39.501953 8.67969 68.001949 8.87304 57.82032-44.6914 3.36914-9.00781-41.23047-69.60547zm-4.236328 15 41.689451 29.03125 35.75977 60.36719v.00195l-49.67578 38.39453-59.58008-7.77344-29.269532-6.42968-6.40039-12.23438-.367188-13.52539 1.660156-21.60742 5.302734-14.84766 8.367188-25.23828 21.912109-19.05273 8.253906-6.91797z" fill="#393523" stroke-width=".999995" transform="matrix(-.80440419 -1.7515571 2.1246835 -.6631387 -711.52741 1003.8702)"/></g><path d="m250 119.87695c-13.40436 0-27.2409 5.50701-37.13672 15.42578-9.67738 9.64676-14.42925 18.37879-15.99432 32.51416s13.67276 27.61387 26.47674 32.25928c9.32852 3.27793 17.66086 4.18164 26.6543 4.18164s17.32578-.90371 26.6543-4.18164c14.36522-7.12465 28.13297-18.65545 26.65352-32.25928s-7.75849-24.01972-16.1711-32.51416c-9.89582-9.91877-23.73236-15.42578-37.13672-15.42578z" fill="#594840" stroke-linecap="round" stroke-linejoin="round"/><path d="m286.5 172.49748c-4.98719 12.27818-23.24761 15.76017-36.5 15.76017s-31.51281-3.48199-36.5-15.76017c-3.51414-8.6516 4.09525-19.28347 10.6906-25.89412 6.58009-6.59535 16.49295-10.7257 25.8094-10.7257s19.22931 4.13035 25.8094 10.7257c6.59535 6.61065 14.20474 17.24252 10.6906 25.89412z" fill="url(#e)" stroke-width="36.000175"/><g stroke-width="1.25349" transform="matrix(.63644578 0 0 1 -277.44664 -135.45214)"><path d="m-373.7063 473.80273c-30.26516.00067-54.79957 24.53563-54.79956 54.80079 0 30.26516 24.5344 54.80011 54.79956 54.80078 1.67196-.0428 3.34109-.16201 5.00215-.35742-1.56589-.18145-3.12322-.43038-4.66765-.7461-22.69388-4.83599-35.07236-27.18377-35.13469-53.69727.005-1.78436.065-2.55255.17799-4.30078 1.58414-24.5017 13.77043-45.01755 34.94443-49.43164 1.78356-.3431 3.58307-.59732 5.39188-.76171-1.89806-.20166-3.80537-.30402-5.71411-.30665z" fill="url(#j)"/><path d="m-373.70508 473.80273a54.800777 54.800777 0 0 0 -54.80078 54.80079 54.800777 54.800777 0 0 0 54.80078 54.80078 54.800777 54.800777 0 0 0 5-.35742 54.800777 54.800777 0 0 1 -49.80078-54.44336 54.800777 54.800777 0 0 1 50.51367-54.49414 54.800777 54.800777 0 0 0 -5.71289-.30665z" fill="#1f1d30"/><path d="m-408.50586 529.60352c.0723-28.54964 14.1089-53.03886 39.71469-55.42556-33.12208-.15333-49.70322 25.15992-49.70321 55.42556-.00001 30.26564 17.02366 53.62207 49.7893 53.44336-25.661-2.75879-39.73429-25.16449-39.80078-53.44336z" fill="#f4f2f1"/></g><g stroke-width="1.25349" transform="matrix(.52365341 0 0 .82277773 -308.77199 -41.771827)"><path d="m-373.7063 473.80273c-30.26516.00067-54.79957 24.53563-54.79956 54.80079 0 30.26516 24.5344 54.80011 54.79956 54.80078 1.67196-.0428 3.34109-.16201 5.00215-.35742-1.56589-.18145-3.12322-.43038-4.66765-.7461-22.69388-4.83599-35.07236-27.18377-35.13469-53.69727.005-1.78436.065-2.55255.17799-4.30078 1.58414-24.5017 13.77043-45.01755 34.94443-49.43164 1.78356-.3431 3.58307-.59732 5.39188-.76171-1.89806-.20166-3.80537-.30402-5.71411-.30665z" fill="url(#j)"/><path d="m-373.70508 473.80273a54.800777 54.800777 0 0 0 -54.80078 54.80079 54.800777 54.800777 0 0 0 54.80078 54.80078 54.800777 54.800777 0 0 0 5-.35742 54.800777 54.800777 0 0 1 -49.80078-54.44336 54.800777 54.800777 0 0 1 50.51367-54.49414 54.800777 54.800777 0 0 0 -5.71289-.30665z" fill="#1f1d30"/><path d="m-408.50586 529.60352c.0723-28.54964 14.1089-53.03886 39.71469-55.42556-33.12208-.15333-49.70322 25.15992-49.70321 55.42556-.00001 30.26564 17.02366 53.62207 49.7893 53.44336-25.661-2.75879-39.73429-25.16449-39.80078-53.44336z" fill="#f4f2f1"/></g><g stroke-width="1.25349" transform="matrix(.3321957 0 0 .52195444 -376.30075 117.24442)"><path d="m-373.7063 473.80273c-30.26516.00067-54.79957 24.53563-54.79956 54.80079 0 30.26516 24.5344 54.80011 54.79956 54.80078 1.67196-.0428 3.34109-.16201 5.00215-.35742-1.56589-.18145-3.12322-.43038-4.66765-.7461-22.69388-4.83599-35.07236-27.18377-35.13469-53.69727.005-1.78436.065-2.55255.17799-4.30078 1.58414-24.5017 13.77043-45.01755 34.94443-49.43164 1.78356-.3431 3.58307-.59732 5.39188-.76171-1.89806-.20166-3.80537-.30402-5.71411-.30665z" fill="url(#j)"/><path d="m-373.70508 473.80273a54.800777 54.800777 0 0 0 -54.80078 54.80079 54.800777 54.800777 0 0 0 54.80078 54.80078 54.800777 54.800777 0 0 0 5-.35742 54.800777 54.800777 0 0 1 -49.80078-54.44336 54.800777 54.800777 0 0 1 50.51367-54.49414 54.800777 54.800777 0 0 0 -5.71289-.30665z" fill="#1f1d30"/><path d="m-408.50586 529.60352c.0723-28.54964 14.1089-53.03886 39.71469-55.42556-33.12208-.15333-49.70322 25.15992-49.70321 55.42556-.00001 30.26564 17.02366 53.62207 49.7893 53.44336-25.661-2.75879-39.73429-25.16449-39.80078-53.44336z" fill="#f4f2f1"/></g><g stroke-width="1.25349" transform="matrix(.25783234 0 0 .40511281 -395.8135 179.00732)"><path d="m-373.7063 473.80273c-30.26516.00067-54.79957 24.53563-54.79956 54.80079 0 30.26516 24.5344 54.80011 54.79956 54.80078 1.67196-.0428 3.34109-.16201 5.00215-.35742-1.56589-.18145-3.12322-.43038-4.66765-.7461-22.69388-4.83599-35.07236-27.18377-35.13469-53.69727.005-1.78436.065-2.55255.17799-4.30078 1.58414-24.5017 13.77043-45.01755 34.94443-49.43164 1.78356-.3431 3.58307-.59732 5.39188-.76171-1.89806-.20166-3.80537-.30402-5.71411-.30665z" fill="url(#j)"/><path d="m-373.70508 473.80273a54.800777 54.800777 0 0 0 -54.80078 54.80079 54.800777 54.800777 0 0 0 54.80078 54.80078 54.800777 54.800777 0 0 0 5-.35742 54.800777 54.800777 0 0 1 -49.80078-54.44336 54.800777 54.800777 0 0 1 50.51367-54.49414 54.800777 54.800777 0 0 0 -5.71289-.30665z" fill="#1f1d30"/><path d="m-408.50586 529.60352c.0723-28.54964 14.1089-53.03886 39.71469-55.42556-33.12208-.15333-49.70322 25.15992-49.70321 55.42556-.00001 30.26564 17.02366 53.62207 49.7893 53.44336-25.661-2.75879-39.73429-25.16449-39.80078-53.44336z" fill="#f4f2f1"/></g><path d="m489.29697 387.13086c3.61776-4.84684 5.73736-11.31168 5.32422-17.3457-.51666-7.54595-3.99072-15.45638-9.55273-20.58204-7.08949-6.53331-13.11374-10.18044-27.1397-9.99707 0 0-237.91845 40.35951-244.42779 41.47168-6.50933 1.11217-18.47623 8.31211-24.30566 16.08399-3.65133 4.86801-5.82502 11.3645-5.41015 17.43555.51981 7.60675 3.98029 15.66496 9.6875 20.7207 7.75384 6.86876 22.50475 10.86975 29.5332 9.66992s235.4786-40.16264 241.90044-41.25977c6.42185-1.09713 18.55283-8.37611 24.39067-16.19726z" fill="#5e6164"/><path d="m201.82438 406.58724c-1.38331 1.91413-2.2002 4.42099-2.06111 6.77855.20159 3.41683 1.62932 7.05882 4.12166 9.4048 4.24947 3.99991 12.68099 6.68597 16.43075 6.04533 3.74975-.64064 238.16747-40.62223 241.8969-41.25948 3.72942-.63725 10.93652-5.38675 14.37019-10.13802 1.38331-1.91413 2.2002-4.42098 2.06111-6.77854-.20158-3.41683-1.6293-7.05883-4.12164-9.40481-4.24946-3.99992-12.68101-6.68597-16.43075-6.04533-3.74975.64064-238.16747 40.62223-241.8969 41.25948-3.72944.63725-10.93654 5.38674-14.37021 10.13802z" fill="url(#k)" stroke-width="32"/><g stroke-width="3.27733"><g transform="matrix(.72311594 .89836073 -.89836073 .72311594 841.80263 621.68502)"><path d="m-354.25586 133.26172-2.58789 3.7168c-2.78472 3.9991-6.19457 5.73323-10.09375 6.38085-.002.00035-.004.002-.006.002-2.61802.42383-5.55218.33766-8.70117.0605l-12.94922-1.13867 9.14648 9.23438c2.55887 2.58325 4.45477 5.07452 5.23633 7.61914l1.0293 3.3457 3.49805.0195c10.59923.0577 20.66738-3.0751 29.29492-10.8164l3.06445-2.75-2.27734-3.42969c-2.8967-4.36133-6.8123-7.34912-10.8125-9.8457z" fill="#b99579"/><path d="m-352.93577 139.69974c-3.51896 5.05354-8.28146 7.54062-13.22916 8.36083-3.25437.52917-6.59077.39688-9.89806.10583 2.77812 2.80459 5.26785 5.86846 6.40556 9.57263 9.7102.0529 18.30916-2.61937 26.08791-9.59908-2.35479-3.54542-5.63563-6.11188-9.36625-8.44021z" fill="#cdb098" stroke-width="9.525"/></g><g transform="matrix(-1.153234 0 0 -1.153234 -.597753 582.65173)"><path d="m-354.25586 133.26172-2.58789 3.7168c-2.78472 3.9991-6.19457 5.73323-10.09375 6.38085-.002.00035-.004.002-.006.002-2.61802.42383-5.55218.33766-8.70117.0605l-12.94922-1.13867 9.14648 9.23438c2.55887 2.58325 4.45477 5.07452 5.23633 7.61914l1.0293 3.3457 3.49805.0195c10.59923.0577 20.66738-3.0751 29.29492-10.8164l3.06445-2.75-2.27734-3.42969c-2.8967-4.36133-6.8123-7.34912-10.8125-9.8457z" fill="#b99579"/><path d="m-352.93577 139.69974c-3.51896 5.05354-8.28146 7.54062-13.22916 8.36083-3.25437.52917-6.59077.39688-9.89806.10583 2.77812 2.80459 5.26785 5.86846 6.40556 9.57263 9.7102.0529 18.30916-2.61937 26.08791-9.59908-2.35479-3.54542-5.63563-6.11188-9.36625-8.44021z" fill="#cdb098" stroke-width="9.525"/></g><g transform="matrix(1.1064631 -.32509712 -.32509712 -1.1064631 819.42458 471.4688)"><path d="m-354.25586 133.26172-2.58789 3.7168c-2.78472 3.9991-6.19457 5.73323-10.09375 6.38085-.002.00035-.004.002-.006.002-2.61802.42383-5.55218.33766-8.70117.0605l-12.94922-1.13867 9.14648 9.23438c2.55887 2.58325 4.45477 5.07452 5.23633 7.61914l1.0293 3.3457 3.49805.0195c10.59923.0577 20.66738-3.0751 29.29492-10.8164l3.06445-2.75-2.27734-3.42969c-2.8967-4.36133-6.8123-7.34912-10.8125-9.8457z" fill="#b99579"/><path d="m-352.93577 139.69974c-3.51896 5.05354-8.28146 7.54062-13.22916 8.36083-3.25437.52917-6.59077.39688-9.89806.10583 2.77812 2.80459 5.26785 5.86846 6.40556 9.57263 9.7102.0529 18.30916-2.61937 26.08791-9.59908-2.35479-3.54542-5.63563-6.11188-9.36625-8.44021z" fill="#cdb098" stroke-width="9.525"/></g><g transform="matrix(1.153234 0 0 -1.153234 889.01392 593.31721)"><path d="m-354.25586 133.26172-2.58789 3.7168c-2.78472 3.9991-6.19457 5.73323-10.09375 6.38085-.002.00035-.004.002-.006.002-2.61802.42383-5.55218.33766-8.70117.0605l-12.94922-1.13867 9.14648 9.23438c2.55887 2.58325 4.45477 5.07452 5.23633 7.61914l1.0293 3.3457 3.49805.0195c10.59923.0577 20.66738-3.0751 29.29492-10.8164l3.06445-2.75-2.27734-3.42969c-2.8967-4.36133-6.8123-7.34912-10.8125-9.8457z" fill="#b99579"/><path d="m-352.93577 139.69974c-3.51896 5.05354-8.28146 7.54062-13.22916 8.36083-3.25437.52917-6.59077.39688-9.89806.10583 2.77812 2.80459 5.26785 5.86846 6.40556 9.57263 9.7102.0529 18.30916-2.61937 26.08791-9.59908-2.35479-3.54542-5.63563-6.11188-9.36625-8.44021z" fill="#cdb098" stroke-width="9.525"/></g><g transform="matrix(-1.153234 0 0 -1.153234 87.096776 708.5818)"><path d="m-292.89844 230.39258-.77539.0781c-4.91784.50012-10.02579 1.37819-14.62695 2.73828l-3.50586 1.03516.0937 3.6543c.0858 3.3484 1.27329 6.15698 2.48437 8.94531l1.8711 4.30859 4.33594-1.8125c5.42041-2.26845 13.53507-4.33251 21.70507-4.82617l16.65235-1.00586-14.67383-7.9375c-4.43258-2.39748-8.29238-3.98167-12.79883-5.00586z" fill="#b99579"/><path d="m-316.79687 219.28516-1.86329 1.4082c-5.22464 3.94885-8.17052 8.36375-8.95312 12.79101-.80914 4.34407.84602 8.69886 3.73437 11.19922l.70118.60743s10.19934 6.03845 15.82026 5.8613c1.79486-.0566 4.9238-2.18601 4.9238-2.18601l-3.27336-6.03467c-1.15753-2.13399-1.3743-4.15689-1.21094-5.9375v-.0117l.002-.0117c.11698-1.3452.65689-2.69281 1.93555-3.95508l.01-.0117.0117-.01c.49589-.49589 1.20226-1.03893 2.15429-1.63672l9.21485-5.78515z" fill="#b99579"/><g fill="#cdb098" stroke-width="9.525"><path d="m-293.19285 235.20903c-4.68313.47625-9.55146 1.32292-13.75833 2.56646.0529 2.06375.9525 4.55083 2.0902 7.17021 6.00605-2.51354 14.49917-4.65667 23.25688-5.18584-4.20688-2.27541-7.51417-3.62479-11.58875-4.55083z"/><path d="m-315.78827 224.49341c-4.55083 3.43958-6.64104 6.95854-7.14375 9.8425-.55562 2.93687.39688 5.21229 2.16959 6.74687l10.63625 3.62479c-1.03188-2.56646-1.79917-5.26521-1.53459-8.14916.21167-2.43417 1.27-4.8948 3.33375-6.93209.84667-.84666 1.85209-1.5875 2.98979-2.30187z"/></g></g><g transform="matrix(1.153234 0 0 1.153234 825.67769 268.05117)"><path d="m-354.25586 133.26172-2.58789 3.7168c-2.78472 3.9991-6.19457 5.73323-10.09375 6.38085-.002.00035-.004.002-.006.002-2.61802.42383-5.55218.33766-8.70117.0605l-12.94922-1.13867 9.14648 9.23438c2.55887 2.58325 4.45477 5.07452 5.23633 7.61914l1.0293 3.3457 3.49805.0195c10.59923.0577 20.66738-3.0751 29.29492-10.8164l3.06445-2.75-2.27734-3.42969c-2.8967-4.36133-6.8123-7.34912-10.8125-9.8457z" fill="#b99579"/><path d="m-352.93577 139.69974c-3.51896 5.05354-8.28146 7.54062-13.22916 8.36083-3.25437.52917-6.59077.39688-9.89806.10583 2.77812 2.80459 5.26785 5.86846 6.40556 9.57263 9.7102.0529 18.30916-2.61937 26.08791-9.59908-2.35479-3.54542-5.63563-6.11188-9.36625-8.44021z" fill="#cdb098" stroke-width="9.525"/></g><g transform="matrix(.89836073 -.72311594 .72311594 .89836073 675.67187 30.071123)"><path d="m-354.25586 133.26172-2.58789 3.7168c-2.78472 3.9991-6.19457 5.73323-10.09375 6.38085-.002.00035-.004.002-.006.002-2.61802.42383-5.55218.33766-8.70117.0605l-12.94922-1.13867 9.14648 9.23438c2.55887 2.58325 4.45477 5.07452 5.23633 7.61914l1.0293 3.3457 3.49805.0195c10.59923.0577 20.66738-3.0751 29.29492-10.8164l3.06445-2.75-2.27734-3.42969c-2.8967-4.36133-6.8123-7.34912-10.8125-9.8457z" fill="#b99579"/><path d="m-352.93577 139.69974c-3.51896 5.05354-8.28146 7.54062-13.22916 8.36083-3.25437.52917-6.59077.39688-9.89806.10583 2.77812 2.80459 5.26785 5.86846 6.40556 9.57263 9.7102.0529 18.30916-2.61937 26.08791-9.59908-2.35479-3.54542-5.63563-6.11188-9.36625-8.44021z" fill="#cdb098" stroke-width="9.525"/></g><g transform="matrix(-1.1064631 .32509712 .32509712 1.1064631 -89.329633 408.909)"><path d="m-354.25586 133.26172-2.58789 3.7168c-2.78472 3.9991-6.19457 5.73323-10.09375 6.38085-.002.00035-.004.002-.006.002-2.61802.42383-5.55218.33766-8.70117.0605l-12.94922-1.13867 9.14648 9.23438c2.55887 2.58325 4.45477 5.07452 5.23633 7.61914l1.0293 3.3457 3.49805.0195c10.59923.0577 20.66738-3.0751 29.29492-10.8164l3.06445-2.75-2.27734-3.42969c-2.8967-4.36133-6.8123-7.34912-10.8125-9.8457z" fill="#b99579"/><path d="m-352.93577 139.69974c-3.51896 5.05354-8.28146 7.54062-13.22916 8.36083-3.25437.52917-6.59077.39688-9.89806.10583 2.77812 2.80459 5.26785 5.86846 6.40556 9.57263 9.7102.0529 18.30916-2.61937 26.08791-9.59908-2.35479-3.54542-5.63563-6.11188-9.36625-8.44021z" fill="#cdb098" stroke-width="9.525"/></g><g transform="matrix(-1.153234 0 0 1.153234 40.982202 282.71669)"><path d="m-354.25586 133.26172-2.58789 3.7168c-2.78472 3.9991-6.19457 5.73323-10.09375 6.38085-.002.00035-.004.002-.006.002-2.61802.42383-5.55218.33766-8.70117.0605l-12.94922-1.13867 9.14648 9.23438c2.55887 2.58325 4.45477 5.07452 5.23633 7.61914l1.0293 3.3457 3.49805.0195c10.59923.0577 20.66738-3.0751 29.29492-10.8164l3.06445-2.75-2.27734-3.42969c-2.8967-4.36133-6.8123-7.34912-10.8125-9.8457z" fill="#b99579"/><path d="m-352.93577 139.69974c-3.51896 5.05354-8.28146 7.54062-13.22916 8.36083-3.25437.52917-6.59077.39688-9.89806.10583 2.77812 2.80459 5.26785 5.86846 6.40556 9.57263 9.7102.0529 18.30916-2.61937 26.08791-9.59908-2.35479-3.54542-5.63563-6.11188-9.36625-8.44021z" fill="#cdb098" stroke-width="9.525"/></g><g transform="matrix(1.153234 0 0 1.153234 757.48954 202.538)"><path d="m-292.89844 230.39258-.77539.0781c-4.91784.50012-10.02579 1.37819-14.62695 2.73828l-3.50586 1.03516.0937 3.6543c.0858 3.3484 1.27329 6.15698 2.48437 8.94531l1.8711 4.30859 4.33594-1.8125c5.42041-2.26845 13.53507-4.33251 21.70507-4.82617l16.65235-1.00586-14.67383-7.9375c-4.43258-2.39748-8.29238-3.98167-12.79883-5.00586z" fill="#b99579"/><path d="m-316.79687 219.28516-1.86329 1.4082c-5.22464 3.94885-8.17052 8.36375-8.95312 12.79101-.80914 4.34407.84602 8.69886 3.73437 11.19922l.70118.60743s10.19934 6.03845 15.82026 5.8613c1.79486-.0566 4.9238-2.18601 4.9238-2.18601l-3.27336-6.03467c-1.15753-2.13399-1.3743-4.15689-1.21094-5.9375v-.0117l.002-.0117c.11698-1.3452.65689-2.69281 1.93555-3.95508l.01-.0117.0117-.01c.49589-.49589 1.20226-1.03893 2.15429-1.63672l9.21485-5.78515z" fill="#b99579"/><g fill="#cdb098" stroke-width="9.525"><path d="m-293.19285 235.20903c-4.68313.47625-9.55146 1.32292-13.75833 2.56646.0529 2.06375.9525 4.55083 2.0902 7.17021 6.00605-2.51354 14.49917-4.65667 23.25688-5.18584-4.20688-2.27541-7.51417-3.62479-11.58875-4.55083z"/><path d="m-315.78827 224.49341c-4.55083 3.43958-6.64104 6.95854-7.14375 9.8425-.55562 2.93687.39688 5.21229 2.16959 6.74687l10.63625 3.62479c-1.03188-2.56646-1.79917-5.26521-1.53459-8.14916.21167-2.43417 1.27-4.8948 3.33375-6.93209.84667-.84666 1.85209-1.5875 2.98979-2.30187z"/></g></g></g></svg>