<svg height="500" viewBox="0 0 132.29167 132.29167" width="500" xmlns="http://www.w3.org/2000/svg" xmlns:xlink="http://www.w3.org/1999/xlink"><linearGradient id="a"><stop offset="0" stop-color="#47311f"/><stop offset=".25" stop-color="#63452c"/><stop offset=".5" stop-color="#63452c"/><stop offset=".75" stop-color="#63452c"/><stop offset="1" stop-color="#47311f"/></linearGradient><linearGradient id="b" gradientUnits="userSpaceOnUse" x1="275.88376" x2="258.86734" xlink:href="#a" y1="67.475739" y2="48.798141"/><linearGradient id="c" gradientUnits="userSpaceOnUse" x1="275.3624" x2="301.15939" xlink:href="#a" y1="24.95257" y2="53.271057"/><linearGradient id="d" gradientTransform="matrix(237.217 0 0 -237.217 781.597 942.031)" gradientUnits="userSpaceOnUse" spreadMethod="pad" x1="288.52774" x2="312.91837" y1="32.331642" y2="22.068602"><stop offset="0" stop-color="#f9e105"/><stop offset=".09343466" stop-color="#f9e105"/><stop offset=".266667" stop-color="#fbc408"/><stop offset="1" stop-color="#f03c1f"/></linearGradient><linearGradient id="e" gradientTransform="matrix(237.217 0 0 -237.217 781.597 942.031)" gradientUnits="userSpaceOnUse" spreadMethod="pad" x1="280.7493" x2="345.77036" y1="24.95257" y2="-12.003082"><stop offset="0" stop-color="#f03c1f"/><stop offset=".733333" stop-color="#fbc408"/><stop offset=".9818182" stop-color="#f9e105"/><stop offset="1" stop-color="#f9e105"/></linearGradient><filter id="f" color-interpolation-filters="sRGB" height="1.025472" width="1.022689" x="-.011345" y="-.012736"><feGaussianBlur stdDeviation=".20128542"/></filter><filter id="g" color-interpolation-filters="sRGB" height="1.020372" width="1.020547" x="-.010274" y="-.010186"><feGaussianBlur stdDeviation=".26723285"/></filter><filter id="h" color-interpolation-filters="sRGB" height="1.024306" width="1.023701" x="-.011851" y="-.012153"><feGaussianBlur stdDeviation=".38516507"/></filter><g stroke-width="1.08904" transform="matrix(.91667111 -.05405592 .05405307 .91662281 -196.11754 41.578874)"><g opacity=".9"><path d="m324.97461-17.697266s-8.48199 5.199321-12.96484 7.333985c-4.81676 2.2936668-11.9229 5.302099-14.89844 5.847656l8.57422-8.585938s-8.3504-.364005-12.35157.628907c-4.24381 1.053126-8.68633 2.5621024-11.89257 5.535156-2.94676 2.7324465-4.82636 6.64206328-5.89649 10.515625-1.24925 4.5219072-1.18371 11.484467-.39453 14.068359.78919 2.583893-.004 8.302503 1.16211 11.332079 1.16829 3.035932 2.55025 6.511214 4.81055 9.353515 3.31644 4.170417 8.42506 7.828552 12.89062 10.847656 4.46556 3.019105 14.40039 4.982375 14.40039 4.982375 2.57222 1.342116 6.59337 3.062604 9.96878 2.484422 5.02195-.860224 9.47553-4.523234 12.75586-8.421875 1.42975-1.699241 2.66602-6.105468 2.66602-6.105468l-1.65235-.136719c5.63376-4.360354 9.02358-10.535665 12.79297-16.333985 2.95667-4.548146 7.63672-14.371093 7.63672-14.371093-4.89305 2.735465-10.09649 5.736547-14.89648 8.353515.95518-2.546882 1.91313-5.230474 2.35547-7.96289 1.24679-7.7016064 1.31541-15.6090116.78125-23.392578-.17544-2.556448-1.30377-7.576016-1.30377-7.576016s-4.37762 5.443467-6.83475 7.916657c-1.64304 1.6537773-3.39877 3.2060656-5.26383 4.6046711-3.19045 2.3925155-6.60066 5.1990245-10.08398 6.43750002.28256-1.05702812.82274-2.59918302 1.33398-3.86132812 1.86391-4.6016249 6.30466-13.494188 6.30466-13.494188z" fill="#e01b24" filter="url(#h)" stroke-width="1.08904"/><path d="m314.3555-6.21892c-21.22382 12.006792-28.4578 6.196542-20.77773-1.496483-14.50579.740833-16.6034 23.329106-14.64337 29.740754 0 0 2.88773 9.534608 5.91581 13.342396 5.14039 6.464021 19.80645 14.885207 19.80645 14.885207 7.51152 3.913188 19.55378 1.933046 22.11759-3.935677-3.91001-.322792-7.17682-1.236662-8.73125-3.050646 11.64749-2.206625 17.66464-10.383044 22.69596-19.852217-8.90005 5.013854-11.1543 4.70535-14.81667 4.316148 9.39642-3.80074 12.40261-28.824503 10.25301-38.414326-1.39661 7.986448-33.07042 28.548542-21.8198 4.464844z" fill="url(#e)" filter="url(#g)" stroke-width="10.3732"/><path d="m283.5482 27.085508c-.5662-8.259763.1069-12.81774 5.15938-18.909771 3.64173 5.454121 4.89347 8.916987 13.77474 1.844145-2.48523 14.160501 14.4489 4.960144 23.48178 2.894013-4.03437 3.716867-9.3009 8.657961-10.28569 14.675909-.32808 2.007394 1.64254 4.742656 3.73725 6.780212-2.49846.591609-10.97334 2.357438-10.20313 6.937376.77046 4.579937 3.21204 3.144573.92604 4.042833-3.28163.731838-5.59753 1.476375-10.47565-.578644 0 0-11.60495-4.513473-14.81271-9.403834-1.5328-2.336799-1.30201-8.282239-1.30201-8.282239z" fill="url(#d)" filter="url(#f)"/></g><g><path d="m220.75 111.98242 62.29687-43.714842-24.30273-26.675781-49.31445 57.964844s1.31611 6.251769 3.38134 8.491709c2.00198 2.17135 7.93897 3.93407 7.93897 3.93407z" fill="#3c2a1a" stroke-width="1.08904"/><path d="m215.7736 99.44906s-.68234 4.07714.55724 5.39164c1.18518 1.2568 5.11489.834 5.11489.834l54.43802-38.198958-17.0164-18.677599z" fill="url(#b)" stroke-width="10.3732"/><path d="m280.52539 72.730469 27.88867-18.56836-33.26367-36.515625-21.08789 26.042969z" fill="#3c2a1a" stroke-width="1.08904"/><path d="m260.33922 43.506344 20.9513 22.993879 19.86888-13.229166-25.797-28.318487z" fill="url(#c)" stroke-width="10.3732"/></g></g></svg>