<svg height="500" viewBox="0 0 132.29167 132.29167" width="500" xmlns="http://www.w3.org/2000/svg" xmlns:xlink="http://www.w3.org/1999/xlink"><filter id="a" color-interpolation-filters="sRGB" height="1.006074" width="1.005927" x="-.002964" y="-.003037"><feGaussianBlur stdDeviation=".35225928"/></filter><filter id="b" color-interpolation-filters="sRGB" height="1.008763" width="1.008521" x="-.00426" y="-.004381"><feGaussianBlur stdDeviation=".12334782"/></filter><linearGradient id="c" gradientUnits="userSpaceOnUse" spreadMethod="reflect" x1="719.0635" x2="806.0982" y1="134.34543" y2="134.35911"><stop offset="0" stop-color="#68222b"/><stop offset=".511236" stop-color="#fbc070"/><stop offset="1" stop-color="#681f2d"/></linearGradient><linearGradient id="d" gradientUnits="userSpaceOnUse" spreadMethod="reflect" x1="756.1571" x2="759.16656" y1="63.097904" y2="67.277657"><stop offset="0" stop-color="#6b4330"/><stop offset="1" stop-color="#66402e"/></linearGradient><g><g stroke-width="2.51835" transform="matrix(.33402925 -.21471373 .4750795 .16666635 68.342679 23.88131)"><path d="m-233.65799 75.060863c-.007-.000026-.013.002-.0195.002-9.80064-.03336-19.58638 4.045083-25.45313 7.138671-2.16431 1.141119-6.14429 3.468932-11.11328 5.861329-4.96899 2.392403-10.80902 4.743423-15.71094 5.691413-8.62123 1.66677-15.49799 6.523314-19.20898 12.669924-1.8555 3.0733-2.93803 6.56573-2.6543 10.17969.28373 3.61395 2.12392 7.22905 5.19922 9.75586 6.30637 5.18129 9.10824 10.64358 9.55859 15.74023.45036 5.09665-1.37531 10.163-5.82226 14.86328-7.20693 7.61766-7.35029 18.06404-2.7168 25.40625s13.66029 12.14313 23.82813 10.91992c8.00037-.96231 13.23766-.83978 17.14648.23438 3.90883 1.07415 6.87005 3.04191 10.75391 6.92383 6.99276 6.98803 17.36719 8.73991 26.74414 6.8457 9.37694-1.89422 18.38381-7.64565 22.07226-17.20117 2.61913-6.78398 5.45807-12.72705 12.52149-15.23828 6.74006-2.39537 11.48635-7.61325 13.18945-13.65625 1.70311-6.043.35698-12.89082-4.0957-18.21875h-.002c-2.08066-2.48946-2.80364-4.13888-2.74415-6.83008.0595-2.6912 1.27236-6.80182 4.58008-12.83203 3.51844-6.41456 4.19717-13.86964.70117-19.83399-3.49599-5.964344-10.90416-9.345074-20.15234-8.828124-4.81145.26889-7.52737-.94024-10.75781-3.41602-3.23044-2.47577-6.65187-6.459841-11.1875-10.882815v-.002c-4.07471-3.972954-9.52225-5.272276-14.65625-5.292969zm-.041 9.97461c.00074.000003.001-.000003.002 0 3.52993.01457 6.06496.835125 7.73242 2.460937 4.12443 4.021996 7.60321 8.224186 12.08398 11.658206 4.48077 3.434024 10.28554 5.857464 17.38086 5.460944 6.78397-.37921 9.65521 1.63449 10.99024 3.9121 1.33502 2.27762 1.39799 5.91233-.83985 9.99219-3.69975 6.74491-5.69339 12.19703-5.80859 17.4082-.1152 5.21118 2.01854 9.80291 5.06445 13.44727 2.45771 2.94082 2.97448 6.18619 2.14844 9.11719-.82605 2.931-3.00087 5.56731-6.92774 6.96289h-.002c-11.08168 3.93982-15.66631 13.74565-18.48437 21.04492-2.16889 5.61884-8.00311 9.65428-14.74219 11.01563-6.73908 1.36134-13.75566-.16264-17.71875-4.12305-4.55978-4.5575-9.31695-7.88006-15.16211-9.48633s-12.39545-1.55412-20.98047-.52148c-6.41729.77201-11.63562-2.27253-14.20117-6.33789s-2.86293-8.58805 1.52734-13.22852c6.05409-6.39898 9.23221-14.4419 8.51172-22.5957s-5.26477-16.08349-13.16015-22.57032c-1.1956-.98235-1.50533-1.75347-1.58985-2.83007-.0845-1.0766.24727-2.58135 1.25-4.24219 2.00546-3.32169 6.62039-6.88207 12.56445-8.03125 6.38785-1.23536 12.77289-3.913744 18.14454-6.500004 5.37164-2.58626 9.84817-5.18547 11.4375-6.02344 4.80536-2.533909 14.04387-6.016323 20.77929-5.990233z" fill="#6c131e" stroke-width="2.51835"/><path d="m-233.67812 80.048213c-8.27141-.03281-17.78794 3.750204-23.12618 6.565106-3.75364 1.979084-16.91322 9.855197-28.20299 12.038547-14.56531 2.815964-22.98647 16.835434-14.44466 23.853774 14.20177 11.66813 14.6931 26.78536 4.19205 37.88463-11.59721 12.25815.30692 29.94184 16.89206 27.94662 16.58541-1.99496 23.57888.14366 32.02252 8.58308 10.95587 10.94846 34.78134 6.55029 40.63868-8.62409 2.7186-7.04163 6.43044-14.9151 15.503-18.14063 10.66694-3.79095 13.84697-15.70911 6.93658-23.97787-5.12657-6.13383-5.71765-12.4841 1.28984-25.25924 5.75628-10.49443 1.23217-22.179234-14.79999-21.283084-11.90678.665424-17.04579-7.2644-25.70586-15.709374-2.87126-2.799557-6.86277-3.860007-11.19532-3.877469z" fill="#c20a0a" stroke-width="25.12"/><path d="m-239.05243 95.443479c-25.8613 0-46.97079 21.099831-46.97079 46.963031 0 25.86295 21.10837 46.97284 46.97079 46.97284 25.86241 0 46.97078-21.10989 46.97078-46.97284 0-25.86249-21.10938-46.963031-46.97078-46.963031z" fill="#6c131e" stroke-width="2.51835"/><path d="m-239.05234 105.15056c-20.60893 0-37.25677 16.64706-37.25677 37.25678 0 20.60945 16.64811 37.26471 37.25703 37.26471 20.6084 0 37.26498-16.655 37.26498-37.26445 0-20.60893-16.65632-37.25677-37.26498-37.25677z" fill="#c20a0a" stroke-width="25.12"/><path d="m-920.52927 467.43942c-5.58909 1.05502-11.30953 2.76071-17.28515 5.22266l-28.51367 11.74805 29.24414 9.78906c3.26725 1.09376 6.49695 2.28987 9.67187 3.57226-17.47003 7.74917-32.36177 21.94399-43.49414 36.00977-7.71534 9.74835-14.67535 20.61841-20.2793 32.24023l-.96093 1.9961-.15235 2.21094c-.23924 3.48725-.37304 7.02705-.37305 10.61718 0 84.08701 68.22681 152.3418 152.31446 152.3418 11.53886 0 22.78934-1.28657 33.60351-3.71484l33.65625-7.5586-69.56836-31.29297-.40625-.14648c-27.95187-10.12052-47.95099-42.21489-52.66992-69.47266-2.35948-13.6289-.62176-25.44943 3.11328-31.5664 3.18078-5.20917 6.95916-7.81127 15.54493-7.10352l-.82227 2.23633 1.55664 4.03906c8.89965 23.09855 23.90307 44.20088 40.60352 60.44922 16.70041 16.24834 34.73237 28.04065 52.91601 30.49024l.57422.0781.58008.0195c.69051.0242 1.35402.005 2.00976-.0312 11.15653.43709 24.2631-3.74406 34.34375-14.89258l13.80274-15.25976 10.80859-9.32422c13.69459-19.03892 20.01888-46.78418 3.10742-72.88477l-3.02343-4.66797-5.53907-.52734c-19.53819-1.85745-32.26973-12.07115-36.52929-25.64453-4.10347-13.07622-15.35431-20.64424-27.18555-25.91797l-8.89648-3.9668-3.37696-6.12304c-8.03346-14.56562-15.58306-26.76765-26.81445-35.12305-6.37742-4.74395-14.09769-8.05702-22.95898-9.55273l-11.68358-.89832c-4.11065.0533-8.34623.44535-12.74609 1.04883l-27.91797 3.82812 12.48242 9.26758c-5.47103-1.64944-11.1903-2.71763-17.20708-2.7247z" fill="#6c131e" filter="url(#a)" stroke-width="2.51834" transform="matrix(.26458334 0 0 .26458334 -16.706824 -11.275074)"/><path d="m-245.15593 112.10707c-.91879.0114-1.92688.10189-3.00757.25011 3.62909 2.69424 6.72573 5.95642 8.89713 9.28367.2185 0 .436.002.65268.006 2.37806.0514 4.67142.38253 7.00525.94775-2.06596-3.74584-3.9406-6.6063-6.24613-8.32146-1.81876-1.35291-3.95721-2.12812-6.91327-2.16576-.12728-.002-.25673-.002-.38809 0zm-12.06541 3.02203c-.0961-.00026-.19213.001-.28888.003-1.84876.0408-3.86455.51597-6.1681 1.46503 7.39507 2.4756 14.08254 6.64319 17.62632 11.00243 2.419-.67526 3.87541-1.93744 4.79867-3.79306-4.5746-3.86812-8.22392-6.76283-11.83958-7.9778-1.33845-.44991-2.6897-.69851-4.12843-.6997zm-.0269 6.94842c-5.18893.88958-10.43468 5.31303-13.95883 9.76581-1.9101 2.41342-3.63409 5.10876-5.01055 7.96334-.059.85931-.0915 1.72633-.0915 2.60087 0 20.60945 16.64824 37.2644 37.25716 37.2644 2.827 0 5.57882-.31496 8.2243-.90899l-9.97871-4.48862c-17.59126-6.36927-22.7459-37.4463-6.17017-34.33795.76847-1.86443 1.3055-3.68921 1.45004-5.45807l2.45205.20051c-.22167 2.71055-1.16183 5.32933-2.3735 7.88995-.0964.26788-.19385.54264-.28784.7984 4.32306 11.22029 14.9756 21.15159 22.31078 22.13974.12045.004.25066.00018.38861-.0114 2.23984.13624 4.72027-.5561 6.87245-2.93626l1.0511-1.1622-1.37873-.74466c-.85652-.46267-1.88073-.93387-2.39107-1.43815-.2551-.25221-.36764-.45674-.40462-.68368-.0371-.22706-.0171-.55641.29352-1.12913l1.40456-2.58744-2.82773.81907c-.82981.24023-2.27806-.39906-3.05718-1.40973-.38964-.50546-.57999-1.04083-.57722-1.4273.003-.38673.0947-.67486.62476-1.05989l2.56057-1.85932-3.14399-.3576c-1.31289-.14966-2.15479-.87662-2.52336-1.6185-.36883-.74161-.30446-1.32719.18086-1.75183l1.60662-1.4056-2.02158-.68523c-.88417-.29959-1.35519-.99424-1.36322-1.3994-.004-.18073.0312-.35086.24236-.58911 1.43874-.3146 2.79841-.0595 3.69745.83871.81006.80901 1.09902 1.99118.91829 3.26853 1.12546-.29669 2.23582-.21235 3.17397.32866 1.22943.7091 1.92827 2.06541 2.06292 3.68092 2.00239-1.33369 4.23209-1.67482 5.95777-.67955 2.03595 1.17416 2.81185 3.88489 2.21227 6.81199 3.15811-4.39057 4.55249-9.96713.73898-15.85278-6.15063-.58472-10.75346-4.03769-12.28039-8.90333-.66158-2.10821-2.80147-3.77387-5.52835-4.98936l-.0103.0284c-3.91473-1.42464-7.31537-2.28395-10.87324-2.466l.0103.0207c-.30197-.0123-.60054-.0211-.89039-.0227-1.25538 3.01096-3.77268 5.25211-7.56026 6.06217l-.77721.16588-.47078-.64027c-1.87128-2.54444-5.42717-5.32437-9.741-7.64398zm20.56309 8.59017c3.67608-.01 5.9067 1.52945 5.54023 5.85132-4.71821.44623-6.83582-2.19635-8.30234-5.61206.98816-.15204 1.91374-.2365 2.76211-.23874zm6.37222 8.73539-.00053.00052c.48809.009.93996.1307 1.31827.37001-.19876.14506-.38114.29988-.54726.46612-.69053.68976-1.06472 1.59563-1.04748 2.46703.0241 1.22707.69376 2.2622 1.66915 2.96985-.41332 1.0666-.32296 2.29758.185 3.31969.50192 1.00936 1.38757 1.87859 2.54093 2.42156-.19021.44309-.31245.90363-.31574 1.36012-.008 1.10663.44474 2.11151 1.08882 2.94711.89405 1.15968 2.21964 2.09764 3.68918 2.35748-.024.28697-.0268.57036.0176.84336.13822.84823.59402 1.53476 1.10277 2.0376.44888.4436.94669.77558 1.42162 1.05213-.8352.63079-1.63437.92865-2.45101 1.02526-.85758-1.04476-1.27816-2.51202-1.23868-4.14031-1.5489.81308-3.18674.94205-4.4912.18965-1.93077-1.11361-2.55272-3.82196-1.73581-6.62492-1.49218.36462-2.9127.12108-3.84163-.80718-1.16823-1.16692-1.25556-3.11007-.40773-4.99557-.48387-.081-.91643-.28481-1.25367-.62166-1.15941-1.1581-.75991-3.4343.89194-5.08445 1.03239-1.03133 2.30977-1.57405 3.40548-1.55339z" fill="#c20a0a" filter="url(#b)" stroke-width="15.3252"/></g><g stroke-width="1.15622" transform="matrix(.81325394 .29438064 -.29438064 .81325394 -494.7095 -262.60976)"><path d="m713.75597 125.95573.54483 6.54077v9.44297c0 1.89632.92181 3.2788 1.67578 4.09375 1.857 1.91161 4.40932 2.75195 6.80274 3.73242 3.02223 1.23806 6.22052 2.05115 9.42773 2.66797 10.06003 1.93476 20.32202 3.20173 30.56641 3.19727 10.11636-.004 20.2484-1.26746 30.18164-3.18359 3.20643-.61852 6.40398-1.432 9.42578-2.66993 2.39312-.98038 5.11159-1.92832 6.80273-3.73047.75415-.81493 1.67774-2.19733 1.67774-4.09375v-9.4253l.5879-6.57212s-3.42025 2.50545-5.35105 3.33629c-4.89568 2.10667-10.22268 3.10981-15.47121 4.03646-9.18518 1.62168-18.53018 2.63025-27.85742 2.63464-9.45327.004-18.92658-1.00266-28.23633-2.64366-5.24881-.92519-15.93608-4.18419-15.46973-4.04241 1.99679.60704-5.30754-3.32131-5.30754-3.32131z" fill="#663833" fill-rule="evenodd" stroke-width="1.15622"/><path d="m719.06351 132.22876c0 2.2951 9.30721 4.61834 14.30685 5.87696 9.5552 2.40544 19.54855 3.0575 29.40187 3.05312 9.72595-.004 19.58849-.66089 29.01912-3.03942 4.99908-1.26084 14.30685-3.58186 14.30685-5.87696v9.7102c0 2.2951-9.30777 4.61612-14.30685 5.87697-9.43063 2.37855-19.29316 3.03519-29.01912 3.03952-9.85332.004-19.84667-.64768-29.40187-3.05312-4.99964-1.25862-14.30685-3.58187-14.30685-5.87697z" fill="url(#c)" fill-rule="evenodd"/><path d="m747.25781 53.111328v.002h-.002c-4.15644 2.775429-7.33008 7.566124-7.33008 13.248047.55301 6.594028 2.31546 13.397005 3.70361 18.951175 1.38644 5.528525 3.70994 13.620973 6.07168 20.9316h-18.375c-5.856 0-11.39145 2.77989-15.62695 7.02734-3.28153 3.26403-5.62358 7.30863-6.16433 10.94253-.21304 2.38821-.0392 4.53578 1.51059 6.15959.99426.98169 2.06775 1.596 3.25547 2.12289 1.55601.68805 3.14549 1.3068 4.76271 1.83518 2.59704.8485 5.23363 1.60224 7.9129 2.13708 11.80109 2.35575 23.7619 4.6975 35.79582 4.69008 11.92166-.007 23.76415-2.36123 35.45614-4.69008 2.66343-.53051 5.28731-1.26775 7.86983-2.10793 1.61776-.52631 3.25464-1.0465 4.76315-1.83299 1.3157-.68596 2.70487-1.43159 3.68928-2.49072.74772-.81573 1.66016-2.1892 1.11431-5.83572-.54584-3.64653-2.92548-7.67767-6.20611-10.92991-4.22545-4.25014-9.75901-7.02734-15.61132-7.02734h-18.375c2.36075-7.307538 4.68358-15.395374 6.07224-20.930638 1.14751-6.345191 3.66332-12.941558 3.70515-18.952207 0-5.681923-3.17422-10.475709-7.33398-13.25-4.33719-2.892625-9.77723-4.214844-15.32532-4.214832-5.54809.000011-10.9956 1.322236-15.33279 4.214855z" fill="#4e3123" stroke-width="1.15622"/><path d="m806.0982 116.6424c-3.43958-3.46605-8.01687-5.63563-12.2502-5.63563h-24.92376c3.18674-9.53141 6.17519-19.622671 8.3873-28.416251 1.95791-7.752292 3.175-14.602355 3.175-16.229542 0-4.233334-1.93146-7.098771-5.2123-9.286875-3.28083-2.188105-7.96395-3.415771-12.67354-3.415771-4.73604 0-9.41916 1.227666-12.7 3.415771-3.28083 2.19075-5.21229 5.053541-5.21229 9.286875 0 1.627187 1.21708 8.47725 3.175 16.229542 2.6706 10.31045 5.24339 18.984581 8.38729 28.416251h-24.92375c-4.23333 0-8.81062 2.16958-12.26344 5.63563-2.6617 2.64583-4.56935 6.00604-5.30754 9.31333 0 2.29509 9.31715 4.57951 14.30685 5.87696 11.22212 2.91805 22.94449 4.1305 34.53979 4.1305s23.31767-1.21245 34.53979-4.1305c4.9897-1.29746 14.30685-3.58187 14.30685-5.87697-.74083-3.30729-2.67875-6.66749-5.35105-9.31332z" fill="url(#d)" stroke-width="11.0129"/></g></g></svg>