<svg height="500" viewBox="0 0 132.29167 132.29167" width="500" xmlns="http://www.w3.org/2000/svg" xmlns:xlink="http://www.w3.org/1999/xlink"><linearGradient id="a"><stop offset="0" stop-color="#8b8792"/><stop offset=".40337995" stop-color="#77747e"/><stop offset=".60081583" stop-color="#64615b"/><stop offset="1" stop-color="#5d5955"/></linearGradient><linearGradient id="b" gradientUnits="userSpaceOnUse" x1="469.55811" x2="476.7951" xlink:href="#a" y1="249.17436" y2="262.09366"/><linearGradient id="c" gradientUnits="userSpaceOnUse" x1="434.24588" x2="427.75555" xlink:href="#a" y1="252.70706" y2="265.87476"/><linearGradient id="d" gradientUnits="userSpaceOnUse" spreadMethod="reflect" x1="446.34851" x2="466.08963" y1="237.55902" y2="233.16406"><stop offset="0" stop-color="#98949e"/><stop offset="1" stop-color="#8b8792"/></linearGradient><g fill="url(#b)" transform="translate(-399.92715 -178.18969)"><path d="m1936.6953 836.28516-99.8542-52.70686s-6.3357-2.24143-9.6321-2.23972c-3.295.002-9.6257 2.24879-9.6257 2.24879l-231.0911 122.27005s-5.1643 3.91838-6.5285 6.73051c-2.6977 5.5612-2.4617 18.37887-2.4617 18.37887v68.85542c-.5423 4.78938.5172 4.98598 4.4962 7.08648l104.992 55.4233s5.8049 3.2767 8.9961 3.2751c3.1938 0 9-3.2868 9-3.2868l235.5791-124.65355c4.8562-2.01029 5.1358-2.62894 5.1358-7.53342v-78.25247s-.7979-6.27555-2.3328-8.94891c-1.5632-2.7227-6.6731-6.64679-6.6731-6.64679z" fill="#55524e" stroke-width=".999999" transform="scale(.26458334)"/><g stroke-width="9.525"><path d="m422.14325 246.31831v16.59381l24.20525 12.77753v-16.59383z" fill="url(#c)"/><path d="m510.03762 227.91426-58.92562 31.17949v16.58968l58.92562-31.17948z" fill="url(#b)"/><path d="m483.45165 211.36333-14.64847 7.75043-14.64846 7.75044-29.29693 15.50086 23.87143 12.59974 14.64807-7.75056 14.64806-7.75056 29.29614-15.50112z" fill="url(#d)"/></g></g></svg>