<?xml version="1.0" encoding="UTF-8" standalone="no"?>
<svg
   width="500"
   height="500"
   viewBox="0 0 132.29167 132.29167"
   version="1.1"
   id="svg1005"
   inkscape:version="1.2.1 (9c6d41e410, 2022-07-14)"
   sodipodi:docname="Winter Blanket.svg"
   inkscape:export-filename="D:\Dropbox\Images\Ivy\Icons\Inventory\Winter Blanket.png"
   inkscape:export-xdpi="96"
   inkscape:export-ydpi="96"
   xmlns:inkscape="http://www.inkscape.org/namespaces/inkscape"
   xmlns:sodipodi="http://sodipodi.sourceforge.net/DTD/sodipodi-0.dtd"
   xmlns:xlink="http://www.w3.org/1999/xlink"
   xmlns="http://www.w3.org/2000/svg"
   xmlns:svg="http://www.w3.org/2000/svg"
   xmlns:rdf="http://www.w3.org/1999/02/22-rdf-syntax-ns#"
   xmlns:cc="http://creativecommons.org/ns#"
   xmlns:dc="http://purl.org/dc/elements/1.1/">
  <defs
     id="defs999">
    <linearGradient
       inkscape:collect="always"
       id="linearGradient7020">
      <stop
         style="stop-color:#277a8d;stop-opacity:1;"
         offset="0"
         id="stop7016" />
      <stop
         style="stop-color:#277a8d;stop-opacity:0;"
         offset="1"
         id="stop7018" />
    </linearGradient>
    <linearGradient
       inkscape:collect="always"
       id="linearGradient6955">
      <stop
         style="stop-color:#194f5b;stop-opacity:1;"
         offset="0"
         id="stop6951" />
      <stop
         style="stop-color:#36a9c5;stop-opacity:0;"
         offset="1"
         id="stop6953" />
    </linearGradient>
    <linearGradient
       inkscape:collect="always"
       xlink:href="#linearGradient6955"
       id="linearGradient6943"
       x1="706.42462"
       y1="10.724927"
       x2="868.44427"
       y2="21.809923"
       gradientUnits="userSpaceOnUse"
       spreadMethod="reflect" />
    <linearGradient
       inkscape:collect="always"
       xlink:href="#linearGradient7020"
       id="linearGradient7034"
       gradientUnits="userSpaceOnUse"
       x1="800.7265"
       y1="852.81866"
       x2="1138.3156"
       y2="864.117" />
  </defs>
  <sodipodi:namedview
     id="base"
     pagecolor="#ffffff"
     bordercolor="#666666"
     borderopacity="1.0"
     inkscape:pageopacity="0.0"
     inkscape:pageshadow="2"
     inkscape:zoom="1"
     inkscape:cx="250.5"
     inkscape:cy="250"
     inkscape:document-units="px"
     inkscape:current-layer="g7075"
     inkscape:document-rotation="0"
     showgrid="false"
     units="px"
     inkscape:showpageshadow="false"
     inkscape:snap-page="true"
     inkscape:snap-bbox="true"
     inkscape:snap-object-midpoints="true"
     inkscape:snap-bbox-midpoints="true"
     inkscape:pagecheckerboard="true"
     inkscape:bbox-paths="true"
     inkscape:bbox-nodes="true"
     inkscape:snap-bbox-edge-midpoints="true"
     inkscape:object-paths="true"
     inkscape:snap-intersection-paths="true"
     inkscape:snap-smooth-nodes="true"
     inkscape:window-width="1920"
     inkscape:window-height="1017"
     inkscape:window-x="1912"
     inkscape:window-y="-8"
     inkscape:window-maximized="1"
     inkscape:snap-center="true"
     showguides="true"
     inkscape:guide-bbox="true"
     inkscape:snap-global="true"
     inkscape:deskcolor="#d1d1d1">
    <sodipodi:guide
       position="-160.15433,-101.20154"
       orientation="0,-1"
       id="guide1273"
       inkscape:locked="false" />
  </sodipodi:namedview>
  <metadata
     id="metadata1002">
    <rdf:RDF>
      <cc:Work
         rdf:about="">
        <dc:format>image/svg+xml</dc:format>
        <dc:type
           rdf:resource="http://purl.org/dc/dcmitype/StillImage" />
      </cc:Work>
    </rdf:RDF>
  </metadata>
  <g
     inkscape:label="Canvas"
     inkscape:groupmode="layer"
     id="layer1">
    <g
       id="g7075"
       inkscape:label="Winter Blanket"
       transform="matrix(-0.0967138,0.02984231,0.02984231,0.0967138,161.6535,0.71090533)">
      <path
         d="m 1486.3279,724.03807 c 0,0 63.4298,-7.10565 87.8566,-4.95197 l 7.8091,-39.58313 c -16.9209,-3.07323 -40.738,-6.59129 -56.449,-8.55878 -0.5355,-9.61734 0.7721,-19.52116 0.2589,-29.11999 l 54.9279,0.0895 0.5318,-40.34318 c -17.9959,-0.23359 -37.5462,10e-4 -55.5422,-0.23673 -0.6,-11.91745 0.3761,-24.29797 -0.1826,-36.19333 l 49.0928,-0.81534 -0.6708,-40.33584 c -16.7422,0.27339 -33.4877,0.55173 -50.2307,0.8319 -0.3589,-8.31425 0.4023,-16.81353 0.065,-25.12019 16.877,-0.35796 32.6319,-0.53281 49.5107,-0.89543 l -0.8615,-40.33555 -49.8574,0.85702 c -0.2879,-7.9435 -0.7131,-22.09612 -0.978,-30.03449 l 48.6892,-2.36776 -1.8531,-38.77064 c -16.4649,0.86369 -31.6682,1.51235 -48.1333,2.36943 -0.3661,-12.76564 -0.918,-24.71778 -1.2214,-37.48049 17.0058,-0.31684 33.8222,-0.59359 50.8326,-0.90239 l -1.1261,-37.93213 c -17.036,0.30636 -33.8015,0.57688 -50.8389,0.89013 -0.2214,-12.00672 -0.7151,-22.40933 -0.8777,-34.42129 15.7676,0.20778 31.0713,0.49216 46.838,0.69569 l 0.527,-40.34237 -48.1401,-0.64973 c -0.078,-10.38687 -0.3163,-20.74263 -0.3489,-31.13701 15.7051,1.12777 31.449,2.25134 47.1533,3.38369 l 2.9015,-40.24066 c -16.6591,-1.20378 -33.3191,-2.40293 -49.9776,-3.60237 0.032,-9.25856 0.083,-18.51698 0.1559,-27.77527 15.6778,0.93214 31.3576,1.86166 47.0365,2.78918 l 2.3895,-40.27181 c -16.3319,-0.9731 -31.5641,-2.12338 -47.8969,-3.09188 0.139,-9.513008 0.8694,-19.125851 1.0572,-28.653548 l 45.0826,4.012486 3.2152,-40.214637 -46.5269,-4.338967 c 0.2295,-8.593812 0.9868,-17.279213 1.2556,-25.8906038 l 42.6988,4.1013574 3.1739,-40.2211676 -43.795,-4.349673 c 0.3569,-9.237281 1.055,-18.526031 1.4593,-27.761329 19.0175,2.219926 25.3002,1.080277 44.1648,3.805929 l -1.3584,-34.762284 c -20.1957,-2.961713 -93.9002,1.751439 -93.9002,1.751439 -1.8005,151.235566 -9.5617,216.465848 -3.8126,320.249268 6.0557,109.30034 8.9946,330.24332 15.8959,495.87493 z"
         fill-opacity="1"
         id="path19714-3-4-5"
         style="fill:#36a9c5;fill-opacity:1;stroke-width:2.19433"
         inkscape:label="Fringe"
         sodipodi:nodetypes="ccccccccccccccccccccccccccccccccccccccccccccccccsc"
         inkscape:transform-center-x="3.3725367"
         inkscape:transform-center-y="440.61027" />
      <path
         id="path19714-6-1-9-8"
         style="fill:#277a8d;fill-opacity:1;stroke-width:2.19433"
         inkscape:label="Blanket Outline"
         d="m 809.19772,-119.13847 c -60.64649,11.00284 -114.00345,60.280687 -125.0845,121.621737 -6.12297,58.568218 -10.45347,117.312803 -15.86318,175.958863 -16.50859,189.12233 -33.08908,378.24554 -49.55268,567.36742 1.35216,46.09435 12.62169,94.18349 43.16751,129.99331 31.09905,36.38946 80.61877,52.59049 127.5152,51.10176 71.03391,-1.44751 138.92735,-28.67264 199.25558,-64.65459 36.48295,-21.69477 74.23165,-40.54312 114.05965,-54.77748 94.1732,-35.18057 194.3247,-51.53871 294.7209,-55.49564 41.8627,-1.44203 83.6918,-0.39936 125.6355,1.79572 0.4812,-10.08376 0.8917,-20.15141 1.2374,-30.20543 5.7696,-167.70597 -6.3879,-331.62274 -8.2429,-502.93545 -1.0966,-101.24777 5.5153,-209.622207 10.7189,-310.91133 0.6172,-12.01395 1.2147,-23.9283 1.777,-35.71918 -127.7592,-19.80963 -223.3271,-12.15276 -350.5644,13.4392 -67.4066,13.420825 -133.6556,35.76063 -192.62585,71.527455 -31.75096,-50.57128 -90.77639,-84.749155 -151.1262,-81.001725 -8.39735,0.36737 -16.75493,1.41853 -25.02793,2.89536 z"
         sodipodi:nodetypes="ccccccccccsssccccc"
         inkscape:transform-center-x="454.92237"
         inkscape:transform-center-y="520.89331" />
      <path
         d="M 1486.3279,724.03807 C 1312.4343,715.5997 1115.1821,745.73296 963.92901,839.06477 849.04781,909.95559 648.22774,956.00153 641.8711,746.79576 L 706.4244,10.724853 c 11.08969,-53.769361 55.09629,-89.830893 105.252,-98.162573 50.15571,-8.331721 106.45671,11.070892 142.12727,68.219846 -12.39142,259.682454 -1.8651,497.263624 -26.3296,760.445144 -0.98764,10.64055 -12.11533,27.19216 -32.13975,41.21834 -37.53911,25.73199 -94.8074,41.84867 -139.32107,19.19587 -15.76208,-10.60171 -26.72247,-28.15468 -26.18032,-64.474 0.23637,-15.79641 6.25756,-24.0899 17.42614,-31.39407 25.28012,-15.96585 58.59704,-13.80723 86.36671,-1.87209 16.37532,9.58859 1.78955,24.63172 24.8635,34.54436 37.38429,8.20149 27.33784,-54.59501 -2.97008,-70.27885 -37.70448,-20.90805 -90.11819,-18.53469 -130.3467,3.8404 -19.97411,13.06597 -35.25288,36.10336 -35.67687,64.55662 -0.68231,45.8014 16.55064,80.08881 43.99954,98.55339 51.27346,33.09735 130.67524,15.16103 184.98201,-19.62236 25.66101,-17.96824 46.43506,-41.17012 49.16391,-70.53334 24.61554,-264.81213 14.31203,-501.89415 26.23752,-757.485277 131.03319,-81.166176 289.34739,-107.574643 480.36599,-79.562391 l -3.8126,320.249268 z"
         fill-opacity="1"
         id="path19714-6-2-8"
         style="fill:#36a9c5;fill-opacity:1;stroke-width:2.19433"
         inkscape:label="Blanket"
         sodipodi:nodetypes="cccsccccccccccccccscccc"
         inkscape:transform-center-x="464.4426"
         inkscape:transform-center-y="523.90082" />
      <path
         id="use6784-6"
         style="display:inline;fill:#87cdde;stroke-width:2.19433"
         inkscape:label="Whole Sheet"
         inkscape:transform-center-x="728.24111"
         inkscape:transform-center-y="426.66319"
         d="m 1332.2517,-102.89436 c -129.5235,0.0526 -241.8026,30.130189 -339.0538,90.370719 -11.9255,255.591211 -1.6225,492.673511 -26.2371,757.485551 -7.0902,29.4273 -16.2212,44.8349 -33.7976,58.5398 -35.80906,30.811 -98.22213,52.5993 -142.86017,48.91 24.89089,12.0291 44.68339,11.7375 67.52786,11.6974 30.41288,-0.053 61.40432,-5.1135 89.84471,-15.8879 10.3223,-3.9105 18.6506,-11.7602 28.2443,-17.287 151.8728,-87.4924 346.9958,-116.387 509.7276,-106.8961 L 1473.564,-92.086231 c -49.247,-7.22187 -96.32,-10.826389 -141.3123,-10.808129 z m -499.80623,13.615189 c -7.22175,0.0469 -14.39619,0.6701 -21.44935,1.84175 -50.15571,8.33168 -94.16227,44.39313 -105.25196,98.16249 L 646.11781,690.61121 c 16.5031,-57.554 73.78251,-91.1142 124.63167,-101.3633 59.59689,-12.0121 136.19829,16.4843 163.02312,64.5242 15.4165,-229.17365 8.3457,-442.36589 19.3508,-672.989921 -30.65443,-49.11238 -76.54511,-70.34791 -120.67793,-70.06136 z"
         sodipodi:nodetypes="sccccaasccssscccccs" />
      <path
         id="path1238-0-4"
         style="display:inline;opacity:0.5;mix-blend-mode:normal;fill:url(#linearGradient6943);fill-opacity:1;stroke-width:2.19433;stroke:#277a8d;stroke-opacity:1"
         inkscape:label="Roll"
         d="M 646.79832,690.61118 706.4244,10.724853 c 11.08969,-53.769361 55.09629,-89.830893 105.252,-98.162573 50.15571,-8.331721 106.45671,11.070892 142.12727,68.219846 C 942.7986,211.40615 949.86962,424.59847 934.45316,653.77214 907.62832,605.73228 831.02699,577.23588 771.4301,589.24795 720.58094,599.49703 663.30141,633.05722 646.79832,690.61118 Z"
         sodipodi:nodetypes="ccsccsc"
         inkscape:transform-center-x="728.24111"
         inkscape:transform-center-y="426.66319" />
      <path
         style="display:inline;opacity:0.5;mix-blend-mode:normal;fill:url(#linearGradient7034);fill-opacity:1;stroke-width:2.19433"
         d="m 1332.5919,-102.89443 c -129.5235,0.0526 -241.8025,30.130187 -339.0537,90.370727 C 981.61272,243.0675 991.9157,480.1498 967.30106,744.9618 c -7.09017,29.4273 -16.22113,44.8349 -33.79759,58.5398 -35.80905,30.811 -98.22212,52.5993 -142.86016,48.91 24.89089,12.0291 44.68339,11.7375 67.52786,11.6974 30.41288,-0.053 61.40432,-5.1135 89.84475,-15.8879 10.3223,-3.9105 18.65054,-11.7602 28.24422,-17.287 151.87276,-87.4924 346.99576,-116.387 509.72756,-106.8961 l -12.0835,-816.124303 c -49.247,-7.22187 -96.3199,-10.826387 -141.3123,-10.808127 z"
         id="path6796"
         inkscape:label="Sheet" />
      <path
         style="color:#000000;fill:#277a8d;stroke-linecap:round;stroke-linejoin:round;-inkscape-stroke:none"
         d="m 646.79832,690.61118 c 13.74657,-47.9407 76.65198,-74.10684 125.89895,-88.38852 28.95293,-8.39638 62.1806,-6.47247 90.3351,4.30227 28.38914,10.86454 53.49355,24.2924 70.71128,57.58254 l 18.08173,58.59979 c 0,0 8.73836,-58.96688 -2.86249,-84.73851 -13.52451,-30.04509 -41.83064,-54.17873 -71.74107,-67.99851 -26.19766,-12.10433 -57.30024,-11.36628 -86.0812,-9.24758 -28.77791,2.11848 -57.6547,9.52021 -83.79021,21.75096 -20.23372,9.46886 -40.04719,21.9748 -54.49014,39.0178 -13.86186,16.35731 -19.4914,26.7967 -28.3619,57.7323 z"
         id="path4528"
         sodipodi:nodetypes="caaccaaaaacc" />
    </g>
  </g>
</svg>
