<svg height="500" viewBox="0 0 132.29167 132.29167" width="500" xmlns="http://www.w3.org/2000/svg" xmlns:xlink="http://www.w3.org/1999/xlink"><filter id="a" color-interpolation-filters="sRGB" height="1.04295" width="1.051428" x="-.025717" y="-.021474"><feGaussianBlur stdDeviation=".20511494"/></filter><g stroke-width="1.17964" transform="matrix(.84772203 0 0 .84772203 -312.08192 -32.986445)"><path d="m415.13877 107.16833c-5.93917.1767-12.05994.24543-17.69922 2.11719-5.67302 1.88294-12.44336 3.82975-15.54492 8.93945-2.79555 4.60556-2.43466 11.054-.68164 16.14843 3.92295 11.40045 13.71688 20.41726 23.43945 27.54688 10.24731 7.51441 22.64747 12.38862 35.11719 14.83399 12.33055 2.41808 25.61958 3.01367 37.69336-.4668 11.70867-3.37522 24.12615-9.14196 31.18555-19.07422 3.06073-4.30631 4.7259-10.38329 3.36523-15.48828-1.60465-6.02039-7.5985-10.06341-12.5332-13.86719-5.12579-3.95108-11.17799-6.66638-17.24376-8.92274-9.82644-3.65527-20.30323-5.29131-30.59023-7.31554-7.88582-1.55174-15.83502-2.83886-23.82635-3.69485-4.21058-.45102-8.44867-.88225-12.68146-.75632z" fill="#1c1917" stroke-width="1.17964"/><path d="m425.48126 112.7207c-3.40671-.37192-6.82411-.85681-10.25042-.79053-5.49279.10624-11.12767.26298-16.37136 1.90181-4.65431 1.45463-10.3536 2.73237-12.90637 6.88711-2.1027 3.42222-1.61301 8.26637-.25665 12.047 3.75692 10.4718 12.77021 18.75382 21.76129 25.30618 9.71495 7.07988 21.43573 11.68939 33.23077 14.00932 11.60285 2.28212 24.09872 2.85812 35.47348-.37435 10.72336-3.04736 22.09087-8.25778 28.62977-17.28659 2.29416-3.16774 3.66477-7.66358 2.62943-11.43529-1.3793-5.02475-6.6142-8.19393-10.78971-11.31094-4.18901-3.12708-9.06963-5.29635-13.95677-7.15168-10.28428-3.90429-21.16883-6.08688-31.95797-8.23263-8.33237-1.65715-16.79011-2.64742-25.23549-3.56941z" fill="#3a332c" stroke-width="11.236"/><path d="m416.08408 122.49255c-.83344 2.11017-2.34269 4.67916-2.5154 7.22269-.18044 2.65739.23646 5.53441 1.58383 7.83199 1.73689 2.96182 4.82018 5.03063 7.81446 6.71094 7.2551 4.07136 15.54286 6.29251 23.74414 7.68946 8.07619 1.37564 16.49659 1.98576 24.57031.5957 3.21543-.55361 6.73476-1.29431 9.14257-3.49609 1.91926-1.75503 2.88973-4.46491 3.4258-7.00977.003-.0166 0-.0339-.003-.0508 0-.0163-.003-.0326-.004-.0488-.15219-1.88783-.2898-3.74492-.44924-5.66407l-.60288-7.26171c-.40103-5.64504-1.44547-22.14623.0744-32.910374.70036-4.960146 1.89572-9.717627 3.70936-14.085964 2.756-6.278576 7.49432-12.160693 13.08261-17.872811l7.81865-6.77168-10.22884-1.536857c-5.69537-.769938-10.18702-.708706-15.70086-.66612-11.34914.08968-24.22337 7.541655-35.40041 18.472775-11.77846 11.520083-23.54976 33.099421-26.94279 40.956971z" fill="#1c1917" stroke-width="1.17964"/><path d="m496.54044 60.543574c-3.0099-.452438-5.93196-.683684-14.95674-.612379-9.02479.07131-21.53615 6.7777-32.10625 17.115235-11.10827 10.864586-19.84375 25.82598-26.45834 41.14271l-2.50493 6.05248c-.81506 2.06361-1.59214 4.12631-2.33191 6.1763-.42201 1.65258.20652 3.29271 1.03372 4.64687 1.3651 2.23475 3.74895 3.7578 6.04415 5.01862 6.82956 3.75167 14.56845 5.86132 22.25013 7.16889 7.56658 1.28797 15.4395 1.79854 23.01875.58737 2.38356-.38089 4.97701-.87387 6.82096-2.43152.90957-.76835 1.8161-1.77959 1.74493-3.11679-.13679-1.83356-.28787-3.71131-.44662-5.6224l-.61621-6.32061c-.80645-11.33552-1.49225-23.49816.11955-34.913075.74612-5.284258 2.02882-10.433579 4.02696-15.24635 0 0 4.15422-6.868985 6.51756-10.106973 2.4269-3.325071 7.84429-9.538378 7.84429-9.538378z" fill="#3a332c" stroke-width="11.236"/><path d="m416.08408 122.49255c-.83344 2.11017-2.34269 4.67916-2.5154 7.22269-.18044 2.65739.23646 5.53441 1.58383 7.83199 1.73689 2.96182 4.82018 5.03063 7.81446 6.71094 7.2551 4.07136 15.54286 6.29251 23.74414 7.68946 8.07619 1.37564 16.49659 1.98576 24.57031.5957 3.21543-.55361 6.73475-1.29431 9.14258-3.4961 1.91926-1.75502 2.88973-4.46491 3.42578-7.00976.003-.0166-.00097-.0339-.002-.0508-.00099-.0163-.003-.0326-.004-.0488-.15218-1.88783-.2898-3.74492-.44922-5.66407l-.4639-5.57556s-3.10883 1.1516-4.71252 1.55855c-3.59234.9116-7.24304 1.7612-10.94366 1.96461-5.43237.29861-10.92819-.15042-16.28422-1.1058-6.35305-1.13322-12.75594-2.66333-18.57775-5.44755-3.78688-1.81104-7.15285-4.45522-10.3438-7.18252-1.34685-1.15115-3.67455-3.84058-3.67455-3.84058z" fill="#8e6e2f" stroke-width="1.17964"/><path d="m418.18227 130.41792c-.42201 1.65258.20653 3.29271 1.03372 4.64687 1.3651 2.23474 3.74895 3.7578 6.04415 5.01862 6.82956 3.75167 14.56845 5.86133 22.25013 7.16889 7.56658 1.28797 15.4395 1.79854 23.01875.58737 2.38356-.38089 4.97701-.87387 6.82096-2.43152.90957-.76835 1.8161-1.77959 1.74493-3.11679-.13679-1.83356-.28787-3.71131-.44662-5.6224-1.97062 1.06627-4.63187 1.77215-7.06914 2.06719-7.10134.85963-14.4009.34241-21.43918-.93451-7.41376-1.34504-14.8646-3.42199-21.48946-7.01145-3.06101-1.65851-6.12959-3.88976-8.13633-6.54857-.81506 2.06361-1.59214 4.12631-2.33191 6.1763z" fill="#b38b3c" stroke-width="11.236"/><path d="m482.17859 80.188925c-8.35369 8.318462-16.64706 17.310327-22.97748 25.061295 9.37102-18.57375 22.80709-32.119888 37.33933-44.706646 0 0-5.41739 6.213307-7.84429 9.538378-2.36334 3.237988-6.51756 10.106973-6.51756 10.106973z" style="opacity:.666;fill:#1c1917;stroke:#1c1917;stroke-width:.936332;stroke-linecap:round;stroke-linejoin:round;filter:url(#a)"/></g></svg>