<svg height="500" viewBox="0 0 132.29167 132.29167" width="500" xmlns="http://www.w3.org/2000/svg" xmlns:xlink="http://www.w3.org/1999/xlink"><linearGradient id="a"><stop offset="0" stop-color="#4a4c4f"/><stop offset="1" stop-color="#1a1a1b"/></linearGradient><linearGradient id="b"><stop offset="0" stop-color="#93a0aa"/><stop offset=".25" stop-color="#9da9b2"/><stop offset=".375" stop-color="#7f8f9a"/><stop offset=".5" stop-color="#93a0aa"/><stop offset=".75" stop-color="#7c8c98"/><stop offset="1" stop-color="#93a0aa"/></linearGradient><radialGradient id="c" cx="179.7868" cy="-25.493359" gradientTransform="matrix(-2.251819 .87245558 -1.4650379 -3.7812883 603.97474 -257.48559)" gradientUnits="userSpaceOnUse" r="40.546758" xlink:href="#b"/><linearGradient id="d" gradientTransform="matrix(.11738552 -.22728798 .22728798 .11738552 58.38813 -211.77599)" gradientUnits="userSpaceOnUse" spreadMethod="reflect" x1="-740.24646" x2="-663.06122" xlink:href="#b" y1="949.65472" y2="1247.7734"/><linearGradient id="e" gradientTransform="matrix(.11738552 -.22728798 .22728798 .11738552 58.38813 -211.77599)" gradientUnits="userSpaceOnUse" spreadMethod="reflect" x1="-800.8587" x2="-857.38501" xlink:href="#b" y1="979.75293" y2="1104.3381"/><linearGradient id="f" gradientTransform="matrix(.11738552 -.22728798 .22728798 .11738552 58.38813 -211.77599)" gradientUnits="userSpaceOnUse" spreadMethod="reflect" x1="-635.97369" x2="-781.10809" xlink:href="#b" y1="1211.5315" y2="1197.8364"/><linearGradient id="g" gradientUnits="userSpaceOnUse" x1="218.53534" x2="218.53534" xlink:href="#a" y1="-7.014821" y2="14.267604"/><linearGradient id="h" gradientUnits="userSpaceOnUse" x1="193.26445" x2="200.08684" xlink:href="#a" y1="-.97795" y2="1.029886"/><g stroke-width="1.02968" transform="matrix(.9711803 0 0 .9711803 -146.08354 22.373473)"><path d="m249.6247 67.510686-.75751 5.778376c-1.1892 2.324358-3.87296 4.824963-7.65039 6.794922-2.31072 1.204745-5.04184 2.24408-8.07618 3.048828l-6.90429 1.832032 4.3457 5.669922c2.39495 3.124895 4.74788 7.283068 6.94141 12.402344l1.42773 3.33203 3.5918-.48828c4.86659-.66175 9.58465-3.17284 13.58398-6.605469h.002c2.29358-1.969046 4.17778-4.184714 5.58007-6.470704 1.4023-2.285989 2.44922-4.566166 2.44922-7.404296 0-5.435392-3.354-10.159472-8.21093-13.765625z" fill="#4a4c4f"/><path d="m253.10728 75.458106c-1.81832 3.554011-5.30947 6.564631-9.68835 8.848251-2.67367 1.39398-5.72643 2.54722-9.05661 3.43043 2.71415 3.54139 5.22922 8.03529 7.53832 13.424293 3.4971-.47553 7.7524-2.604613 11.1252-5.499493 3.83691-3.29399 6.36937-7.5438 6.36937-10.26176 0-3.41281-2.17408-6.887292-6.28793-9.941721z" fill="url(#f)"/><path d="m180.5877 72.097644c-4.5482 3.547396-7.69141 8.078954-7.69141 13.302735 0 5.579906 3.3309 9.910777 7.86524 13.855468v-.002c3.97766 3.461043 8.76743 6.017053 13.80664 6.640623l3.55469.43945 1.4082-3.29296c2.19442-5.130898 4.54542-9.289363 6.94141-12.416019l4.33984-5.664063-6.89648-1.833984c-3.01427-.802044-5.72949-1.841536-8.03321-3.042969-3.78325-1.972827-7.37956-9.715369-8.56779-12.04679z" fill="#4a4c4f"/><path d="m183.98435 75.435486c-4.13623 3.060859-6.32531 6.541291-6.32531 9.964341 0 2.74677 2.45102 6.97563 6.22863 10.262 3.34423 2.90988 7.59214 5.052063 11.2657 5.506643 2.30981-5.400683 4.82251-9.895293 7.53832-13.439303-3.31303-.88154-6.34984-2.03502-9.01136-3.42305-4.38746-2.2879-7.88051-5.30709-9.69645-8.870155z" fill="url(#e)"/><path d="m251.97656 59.707031-5.25 4.023438c-7.94161 6.087052-18.04145 10.233052-28.38086 11.158203-10.21437-.916288-20.16737-4.990518-28.06445-10.966797l-5.39453-4.083984-2.02344 6.457031c-.36293 1.157867-.56055 2.375656-.56055 3.603515 0 6.264521 4.67734 11.265482 11.23633 14.685547 6.58614 3.434498 15.3336 5.4375 25.00977 5.4375 9.67683 0 18.42558-2.003006 25.01172-5.4375 6.55884-3.420267 11.23632-8.42115 11.23632-14.685547.00001-1.339896-.23327-2.674354-.66796-3.9375z" fill="#4a4c4f"/><path d="m249.6247 67.510686c-8.70823 6.674644-19.68817 11.189494-31.0896 12.159381l-.18645.0143-.19336-.0143c-11.27141-.961077-22.09728-5.404966-30.74789-11.951498-.22765.726281-.34242 1.454944-.34242 2.180749 0 3.701653 2.98799 7.496175 8.6768 10.462499 5.6888 2.96656 13.81268 4.89656 22.80761 4.89656 8.99565 0 17.11952-1.93 22.80833-4.89656 5.6888-2.966562 8.67656-6.760846 8.67656-10.462738 0-.794861-.13645-1.594723-.40958-2.388393z" fill="url(#d)"/><path d="m215.73246 79.712938 5.7207-.0664c16.13928-2.243395 31.05044-11.311265 39.88477-24.05957 2.00659-5.618161 2.77345-10.8725 2.28425-15.225586.77682-8.004106-.346-17.072382-2.8427-25.394531-2.53254-8.4418109-6.40325-16.3019313-13.18753-22.7021486-2.70409-2.7155544-5.0099-4.0350194-7.69534-5.0986324-5.36017-2.122934-12.465-3.392579-21.36139-3.392603-8.89674-.000025-16.00122 1.269121-20.0248 2.862693-4.02358 1.593573-6.32945 2.911984-11.07613 7.526431-4.74667 4.614447-8.59272 12.4217571-11.10816 20.806163-2.409 8.030009-3.53394 16.75244-2.91697 24.592774-.58489 7.129679 2.87837 14.988801 6.91117 22.128929 9.26092 9.674616 21.90513 16.267916 35.41213 18.022485z" fill="#4a4c4f"/><path d="m218.53534-11.464901c-8.43129 0-15.00759 1.235869-19.6084 3.058478-2.30029.911304-4.06527 1.957387-5.42449 3.199685-.68009.621506-1.27516 1.316831-1.69688 2.083594-4.93086 4.521041-8.56179 11.609784-10.91684 19.459575-2.25028 7.500938-3.29494 15.724585-2.73129 23.23219-.42387 5.42163 2.54507 13.124736 5.94598 19.295269l.015.03.007.0071c8.07553 8.325803 19.87343 14.48443 32.2214 16.08844v-60.766596c.72295.02524 1.45114.04477 2.18837.04477.76296 0 1.51448-.02095 2.26219-.05239v60.714732c14.75665-2.051208 28.70054-10.602754 36.33602-21.476018 1.50256-4.431506 2.1486-9.158287 1.74879-13.067109.70627-7.724299-.33171-16.276797-2.66391-24.050626-2.37172-7.90575-6.03099-15.039975-11.01328-19.556016-.41767-.728663-.98679-1.392317-1.63735-1.986915-1.35969-1.242298-3.1242-2.288381-5.42448-3.199447-4.60129-1.822371-11.17759-3.058478-19.60841-3.058478z" fill="url(#c)"/><g id="i" stroke-width="1.02968"><path d="m192.10156 2.1113281-.64648.8652344c-2.84534 3.8065241-5.27038 8.8727225-6.94336 14.4492185-1.76504 5.882743-2.72627 12.29873-2.70703 18.289063l.004 1.503906 1.10547-1.019531c3.38788-3.12656 6.10063-7.613021 8.01953-12.570313 2.37807-6.144758 3.49058-13.130165 2.14453-19.4843748l-.0176-.082031-.0371-.074219z" fill="#4a4c4f" stroke-width="1.02968"/><path d="m192.43041 4.281116c1.31016 6.18482.2286 13.058061-2.11336 19.109531-1.89143 4.886326-4.56629 9.291638-7.85098 12.322969-.019-5.917882.93297-12.278439 2.6789-18.0975 1.65402-5.513308 4.05456-10.517981 6.83895-14.242971z" fill="url(#h)" stroke-width="1.36218"/></g><path d="m218.53534-7.014821c7.99457 0 14.06295 1.246822 17.94081 2.782967 1.93906.767715 3.37376 1.499711 4.16719 2.22504.79367.724614.83344 1.305401.83344 1.391364 0 2.509838-1.97763 5.035868-6.11672 7.091363-4.13909 2.055733-10.16151 3.34137-16.82496 3.34137-6.69084 0-12.7023-1.209675-16.82544-3.199924-4.12289-1.989534-6.12409-4.395073-6.12409-7.232809 0-.08573.18097-.66675.97488-1.391602.79343-.725567 2.09407-1.457325 4.03312-2.225279 3.87787-1.535906 9.94648-2.783204 17.94129-2.783204z" fill="url(#g)"/><use height="100%" stroke-width="1.02968" transform="matrix(-1 0 0 1 436.82229 .268009)" width="100%" xlink:href="#i"/></g></svg>