<svg height="500" viewBox="0 0 132.29167 132.29167" width="500" xmlns="http://www.w3.org/2000/svg" xmlns:xlink="http://www.w3.org/1999/xlink"><radialGradient id="a" cx="-4.322882" cy="47.181576" gradientTransform="matrix(-.00000012 .13740082 .19394841 0 56.994394 11.971048)" gradientUnits="userSpaceOnUse" r="53.34" spreadMethod="reflect"><stop offset="0" stop-color="#716c79"/><stop offset=".25" stop-color="#7d7887"/><stop offset=".5" stop-color="#797481"/><stop offset=".75" stop-color="#716c79"/><stop offset="1" stop-color="#77727f"/></radialGradient><linearGradient id="b"><stop offset="0" stop-color="#a77858"/><stop offset="1" stop-color="#866046"/></linearGradient><linearGradient id="c" gradientUnits="userSpaceOnUse" spreadMethod="reflect" x1="66.146484" x2="98.056641" xlink:href="#b" y1="65.624023" y2="64.6875"/><linearGradient id="d" gradientUnits="userSpaceOnUse" x1="59.115807" x2="85.445251" xlink:href="#b" y1="78.342461" y2="103.56746"/><linearGradient id="e" gradientUnits="userSpaceOnUse" x1="66.146484" x2="60.969727" xlink:href="#b" y1="75.62674" y2="122.51972"/><linearGradient id="f" gradientUnits="userSpaceOnUse" x1="70.149376" x2="66.146484" xlink:href="#b" y1="76.632187" y2="103.34932"/><g><g stroke-linecap="round" transform="translate(0 -2.917642)"><path d="m53.716797 6.2558594-19.355469 6.4511716 1.380859 3.826172s.861074 2.38985 1.72461 5.408203c.863535 3.018353 1.652344 6.791489 1.652344 8.486328 0 1.69484-.788809 5.467975-1.652344 8.486328-.863536 3.018354-1.72461 5.406251-1.72461 5.40625l-.201171.554688-.0293.589844s-.72542 14.147965-1.097657 21.21289c-.27558 5.230451-.587701 10.481236-.845703 15.757813-.69123 14.136891-1.86914 42.335933-1.86914 42.335933l-.134766 3.23047 3.138672.78516c16.447906 4.11198 46.436859 4.11198 62.884766 0l3.138672-.78516-.13672-3.23242s-1.178972-27.907751-1.847656-41.890624c-.255305-5.338775-.543913-10.663753-.822262-15.978515-.37466-7.153693-1.142578-21.445313-1.142578-21.445313l-.03125-.585937-.199219-.550782s-.861329-2.388208-1.726563-5.40625c-.865233-3.018041-1.656249-6.791025-1.65625-8.484375 0-1.693349.791017-5.466333 1.65625-8.484375.865234-3.018041 1.726563-5.408203 1.726563-5.408203l1.384766-3.826172-19.357422-6.4531246-1.039063 4.1582036c-1.452027 5.808111-6.235035 8.423828-11.390625 8.423828s-9.936644-2.615717-11.388672-8.423828z" fill="#58555d"/><path d="m39.475186 15.187081 11.43-3.81c3.81 15.240001 26.67 15.240001 30.48 0l11.430001 3.81s-3.62066 10.018605-3.62066 15.240001 3.62066 15.240001 3.62066 15.240001.752494 14.297435 1.128742 21.446153c.279878 5.317689.582697 10.634221.839635 15.953068.674071 13.953874 1.841623 41.869956 1.841623 41.869956-15.240001 3.81-45.720001 3.81-60.960001 0 0 0 1.182958-28.208874 1.864732-42.309138.253917-5.251447.552664-10.50063.828997-15.750945.37209-7.069698 1.116271-21.209094 1.116271-21.209094s3.613261-10.019174 3.613261-15.240001-3.613261-15.240001-3.613261-15.240001z" fill="url(#a)" stroke-width="7.9375"/></g><g transform="matrix(-1 0 0 1 132.29102 -2.917642)"><path d="m97.772527 64.6875s-2.527457 1.519992-3.840422 2.188677c-3.337482 1.699758-6.720475 3.344768-10.240699 4.623823-2.54841.925951-5.1772 1.647094-7.833195 2.192498-2.964146.608681-6.580106 1.159859-8.998836 1.196174-2.410933.0362-6.132262-.515855-9.158731-1.047523-2.798677-.491651-5.595017-1.082484-8.292441-1.975915-3.809375-1.261728-7.44151-3.019433-11.061112-4.751998-1.319831-.631753-3.87918-2.054642-3.87918-2.054642l-.826162 15.90625c1.233906.762872 2.539596 1.474945 3.865707 2.10146 2.597015 1.226948 5.273108 2.292995 7.986685 3.234477 2.363513.820026 4.778815 1.492005 7.206389 2.096585 1.35314.336996 2.715371.654275 4.095785.851788 4.138112.59209 8.323529 1.13133 12.501465.992079 3.474266-.115798 6.926162-.753765 10.317899-1.515381 2.401757-.539315 4.773177-1.252038 7.063654-2.15371 2.78939-1.098074 5.481194-2.453888 8.081769-3.94502 1.334642-.765264 3.842502-2.55681 3.842502-2.55681z" fill="#533c2c"/><path d="m55.471654 84.711273c-2.915712-.571192-5.776794-1.428897-8.581994-2.407922-3.120376-1.089022-6.178242-2.30911-9.139784-3.843019l.351862-6.685379c3.328734 1.688228 6.582412 3.032931 10.027807 4.125201 3.274706 1.038158 6.660514 1.72197 10.049131 2.286529 2.891663.481764 5.81359.978424 8.744782.934417 2.941953-.04417 5.857714-.63355 8.744777-1.200905 3.174039-.62375 6.339588-1.364554 9.39867-2.416025 3.132202-1.076604 6.143356-2.390947 9.110596-3.965469l.335645 6.377252c-2.111788 1.441471-4.707028 2.745624-7.202029 3.824073-2.55597 1.104802-5.198323 2.051286-7.908596 2.690025-3.941098.928812-7.987789 1.591448-12.036618 1.635336-3.990126.04325-7.978323-.586978-11.894249-1.354114z" fill="url(#c)"/><path d="m55.292758 77.671057c-1.625099 1.601813-1.023544 4.447532-1.564192 6.664388-.33092 1.356895-.726079 2.73911-1.028036 4.061921-2.828673 12.391834-2.181096 18.381024-.792327 29.515494l.351563 2.81641 12.980468 3.53125-.03711-5.57813c-.08398-12.36551 1.038524-20.745039 4.185547-33.96364l.760705-8.086565s-2.628642-.941322-4.002892-1.005447c-1.740734-.08123-3.453884.476247-5.166947.795887-1.907807.355978-4.304606-.113936-5.686779 1.248432z" fill="#533c2c"/><path d="m58.335963 82.722988c1.663986.344868 5.469199.879547 6.933956 1.014713-3.230767 13.570356-4.386059 22.331709-4.300194 34.974179l-4.860394-1.32227c-2.45272-11.6546-2.186207-20.753676 2.226632-34.666622z" fill="url(#e)" stroke-width="8.46669"/><path d="m65.980469 71.371094c-2.299937.09653-4.800626.185679-6.765625 1.384765-1.79245 1.093793-3.666137 2.829508-3.945764 4.91063-.307551 2.288946 1.275703 4.585792 2.760217 6.354995 1.285891 1.532489 3.305469 2.256643 5.005859 3.310547 2.742799 1.69999 5.867475 2.824402 8.375 4.855469.770982.624487 1.521546 1.293509 2.197004 2.025608.878632.952311 1.707577 1.967126 2.396746 3.060329.954361 1.513867 1.234748 3.368163 2.042969 4.964843.679142 1.34168 1.122108 2.97937 2.345703 3.85352 1.816042 1.2974 4.426237 2.15863 6.539063 1.43945 2.165488-.73711 3.687708-3.08739 4.410156-5.25781.561775-1.68772.06971-3.58714-.294922-5.328128-.593248-2.83257-1.597695-5.62326-3.039063-8.132812-3.001461-5.225814-6.588301-10.424497-11.439453-14-2.211187-1.629737-4.978061-2.408758-7.638672-3.091797-.958862-.246162-1.960133-.391123-2.949218-.349609z" fill="#533c2c"/><path d="m65.269919 83.737701c-1.573611-.978607-3.428451-2.11491-4.642091-3.058805-1.059062-.823505-1.614908-1.579566-1.745997-1.724909.796206-2.599168 2.275576-2.53168 3.816196-3.075163 1.709375-.603014 3.978992-.278517 5.437858 0 2.091175.399233 4.217721 1.098186 5.93763 2.352902 4.254409 3.103695 8.000812 7.348222 10.026499 12.209242 1.691885 4.059997 5.419121 11.599332 1.345241 13.126492-3.353608 1.25715-3.882655-6.09814-6.125371-8.924625-1.612088-2.031707-3.230405-4.114185-5.246369-5.745918-2.643811-2.139917-5.915247-3.362992-8.803596-5.159216z" fill="url(#d)" stroke-width="8.46669"/><path d="m80.746048 84.706204c.333046-2.545629.10356-5.502187-1.417502-7.570403-2.242357-3.04897-6.328795-6.107341-10.030766-5.320073-1.58235.336505-2.267105 2.375204-2.991139 3.821869-1.156981 2.31172-1.688299 4.923319-2.023736 7.486547-.213859 1.634195-.355963 3.339342.01857 4.94435.534896 2.292225 1.217698 4.932661 3.101607 6.343795.558073.418022 1.364605.340395 2.061757.353338 1.392761.02586 2.826097-.09643 4.142316-.552519 1.327292-.459929 2.678322-1.110257 3.626309-2.146867 1.834548-2.006053 3.159932-4.664585 3.512579-7.360037z" fill="#533c2c"/><path d="m70.149376 76.632185c2.324668.42659 4.117645 1.24099 5.298135 3.196057.954618 1.581251 1.196145 2.853942 1.081048 4.143998-.114937 1.289889-.642803 2.641996-1.448341 4.134557-.522368.968006-1.285766 1.547866-2.411951 1.944275-.89682.315643-2.019677.465372-3.26064.481895-1.821285-4.720486-1.427516-9.214187.741749-13.900782z" fill="url(#f)" stroke-width="8.46669"/></g></g></svg>