<svg height="500" viewBox="0 0 132.29167 132.29167" width="500" xmlns="http://www.w3.org/2000/svg" xmlns:xlink="http://www.w3.org/1999/xlink"><linearGradient id="a"><stop offset="0" stop-color="#9f8a60"/><stop offset="1" stop-color="#97845e"/></linearGradient><linearGradient id="b"><stop offset="0" stop-color="#ccb588"/><stop offset="1" stop-color="#c8b488"/></linearGradient><radialGradient id="c" cx="487.2999" cy="254.65857" gradientTransform="matrix(-.07944152 .05500604 -.03978716 -.05746192 534.65781 10.042697)" gradientUnits="userSpaceOnUse" r="35.075211" spreadMethod="reflect" xlink:href="#b"/><radialGradient id="d" cx="159.41302" cy="-621.95459" gradientTransform="matrix(-.07944152 .05500604 -.03978716 -.05746192 534.65781 10.042697)" gradientUnits="userSpaceOnUse" r="35.075211" spreadMethod="reflect" xlink:href="#b"/><radialGradient id="e" cx="773.61456" cy="-626.01196" gradientTransform="matrix(.13028493 -.05897574 .02882237 .0636723 405.21499 172.27146)" gradientUnits="userSpaceOnUse" r="35.075211" spreadMethod="reflect" xlink:href="#b"/><radialGradient id="f" cx="347.00989" cy="49.940319" gradientTransform="matrix(.26958573 -.14280814 .12687828 .23951414 191.35107 83.942239)" gradientUnits="userSpaceOnUse" r="13.62016" spreadMethod="reflect" xlink:href="#a"/><radialGradient id="g" cx="1013.8229" cy="310.27643" gradientTransform="matrix(-.24234615 .22633341 -.36132634 -.38688947 844.16925 -133.30032)" gradientUnits="userSpaceOnUse" r="13.62016" spreadMethod="reflect" xlink:href="#a"/><g stroke-linejoin="round" stroke-width=".972504" transform="matrix(1.0282696 0 0 1.0282696 -464.13655 16.206402)"><path d="m516.77533 95.052171c8.78178-.532608 16.81207-1.214683 26.18462-3.316218 2.08632-.373941 4.99936-2.341814 5.22132-4.449726l1.91979-18.21129-4.73668-.49921s-17.37029 6.237155-26.44593 7.499284c-1.27066.176721-2.14.246181-3.2147.246184-1.07477.000003-1.94424-.06946-3.2149-.246184-9.07564-1.262129-26.44593-7.499284-26.44593-7.499284l-4.73668.49921 1.91979 18.21129c.22196 2.107912 3.135 4.075785 5.22132 4.449726 9.37255 2.101535 17.40284 2.78361 26.18462 3.316218z" fill="#9f8a60" stroke-width=".972504"/><path d="m518.91825 90.291113c8.23783-.58567 24.52688-3.50377 24.52688-3.50377l1.91938-18.211651s-17.37062 6.236982-26.44626 7.499111c-1.41513.1968-2.13992.246392-3.2146.246392s-1.79947-.04959-3.2146-.246392c-9.07564-1.262129-26.44626-7.499111-26.44626-7.499111l1.91938 18.211651s16.28905 2.9181 24.52688 3.50377c1.42515.10132 2.13992.246392 3.2146.246392s1.78945-.145072 3.2146-.246392z" fill="url(#e)" stroke-width="9.26316"/><path d="m516.77493 80.969818c9.57136-1.204018 19.53408-2.614435 28.03875-7.167623 2.09206-1.120034 4.11958-2.084586 5.2915-4.7624 2.42324-6.031701 1.61386-12.909783 1.98644-19.399364.15909-2.771331.10539-8.327012.10539-8.327012l-4.84463 6.985008c-.65527 1.437799-2.55723 1.862529-3.90726 2.683555-7.92094 4.817206-15.53393 10.860096-24.52667 13.113412-1.38588.347268-2.13068.491435-3.2147.49144-1.08408.000005-1.82902-.144172-3.2149-.49144-8.99274-2.253316-16.60573-8.296206-24.52667-13.113412-1.35003-.821026-3.25199-1.245756-3.90726-2.683555l-4.84463-6.985008s-.0537 5.555681.10539 8.327012c.37258 6.489581-.4368 13.367663 1.98644 19.399364 1.17192 2.677814 3.19944 3.642366 5.2915 4.7624 8.50467 4.553188 18.46739 5.963605 28.03875 7.167623z" fill="#9f8a60" stroke-width=".972504"/><path d="m512.48905 76.074803c-9.07564-1.262129-26.44626-7.499111-26.44626-7.499111l-1.98801-20.277217c.90124 1.297845 2.55737 1.862622 3.90739 2.683649 7.92094 4.817204 15.53414 10.859775 24.52688 13.113091 1.3859.347267 2.13061.491619 3.2146.491619s1.8287-.144352 3.2146-.491619c8.99274-2.253316 16.60594-8.295887 24.52688-13.113091 1.35002-.821027 3.00615-1.385804 3.90739-2.683649l-1.98801 20.277217s-17.37062 6.236982-26.44626 7.499111c-1.41513.1968-2.12831.308493-3.19991.308959-1.08135.000471-1.81416-.112157-3.22929-.308959z" fill="url(#d)" stroke-width="9.26316"/><path d="m511.3314 68.715762c-9.30261-2.901319-17.62239-8.432865-25.84375-13.664062-1.88348-1.198446-4.09692-2.185302-5.34375-4.03711-2.96485-4.403447-3.52364-10.109285-4.11524-15.384765-.61084-5.447031-2.14549-11.702194.625-16.431641 1.16307-1.985449 3.61418-3.2538 5.88867-3.602244 1.41623-.216961 2.77995.694954 4.16993 1.042432 9.30664 2.326545 18.39874 5.807583 27.91991 6.979637.70897.08727 1.43399.08727 2.14296 0 9.52117-1.172054 18.61327-4.653092 27.91991-6.979637 1.38998-.347478 2.7537-1.259393 4.16993-1.042432 2.27449.348444 4.7256 1.616795 5.88867 3.602244 2.77049 4.729447 1.23584 10.98461.625 16.431641-.5916 5.27548-1.15039 10.981318-4.11524 15.384765-1.24683 1.851808-3.46027 2.838664-5.34375 4.03711-8.22136 5.231197-16.54115 10.762718-25.84375 13.664062-1.40108.436975-2.90451.519612-4.37215.519616-1.46771.000004-2.97121-.08262-4.37235-.519616z" fill="#9f8a60" stroke-width=".972504"/><path d="m518.91825 64.095215c8.99274-2.253316 16.60594-8.295887 24.52688-13.113091 1.35002-.821027 3.00615-1.385804 3.90739-2.683649 2.57815-3.71272 2.8267-8.659026 3.28851-13.155455.5255-5.116545-.62103-15.417879-.62103-15.417879s-2.78052.694973-4.17076 1.042511c-8.97705 2.24411-17.74703 6.145032-26.93099 7.275668-1.41804.174575-2.13478.398979-3.2145.398983-1.07979.000004-1.79666-.224408-3.2147-.398983-9.18396-1.130636-17.95394-5.031558-26.93099-7.275668-1.39024-.347538-4.17076-1.042511-4.17076-1.042511s-1.14653 10.301334-.62103 15.417879c.46181 4.496429.71036 9.442735 3.28851 13.155455.90124 1.297845 2.55737 1.862622 3.90739 2.683649 7.92094 4.817204 15.53414 10.859775 24.52688 13.113091 1.3859.347267 2.13061.491619 3.2146.491619s1.8287-.144352 3.2146-.491619z" fill="url(#c)" stroke-width="9.26316"/><g stroke-width=".972504"><g transform="translate(194.57749 -24.133847)"><path d="m296.78086 30.855482c-3.50957.338867-7.45204.632964-11.11284 1.35749-2.36597.468261-4.7312 1.039853-6.97494 1.924563-2.06275.813343-4.10594 1.772295-5.89425 3.083168-5.12342 3.755583-9.18148 8.791969-13.50586 13.445313-.86835.934407-2.49414 2.902343-2.49414 2.902343s4.13417 8.958151 7.08556 12.863784c2.80879 3.716922 9.93592 9.829576 9.93592 9.829576l12.85858-12.361093s2.77763-11.775828 4.55744-17.552813c1.61491-5.241742 5.54453-15.492331 5.54453-15.492331z" fill="#7e6d4c"/><path d="m275.61556 41.060066c-4.83127 3.544544-12.71088 12.711351-12.71088 12.711351s2.25021 6.461103 4.28982 9.137107c1.89796 2.490143 7.14018 6.102898 7.14018 6.102898l6.13648-6.13649 6.33865-19.015944 3.33519-7.042013s-5.98045.349955-8.80181 1.25748c-2.0496.659279-3.9917 1.712015-5.72763 2.985611z" fill="url(#f)"/></g><g transform="matrix(-1 0 0 1 836.82981 -24.133607)"><path d="m296.78086 30.855482c-3.50957.338867-7.45204.632964-11.11284 1.35749-2.36597.468261-4.7312 1.039853-6.97494 1.924563-2.06275.813343-4.10594 1.772295-5.89425 3.083168-5.12342 3.755583-9.18148 8.791969-13.50586 13.445313-.86835.934407-2.49414 2.902343-2.49414 2.902343s4.13417 8.958151 7.08556 12.863784c2.80879 3.716922 9.93592 9.829576 9.93592 9.829576l12.85858-12.361093s2.77763-11.775828 4.55744-17.552813c1.61491-5.241742 5.54453-15.492331 5.54453-15.492331z" fill="#7e6d4c"/><path d="m275.61556 41.060066c-4.83127 3.544544-12.71088 12.711351-12.71088 12.711351s2.25021 6.461103 4.28982 9.137107c1.89796 2.490143 7.14018 6.102898 7.14018 6.102898l6.13648-6.13649 6.33865-19.015944 3.33519-7.042013s-5.98045.349955-8.80181 1.25748c-2.0496.659279-3.9917 1.712015-5.72763 2.985611z" fill="url(#f)"/></g><path d="m516.77511 28.380264c3.65099-.312726 7.25617-1.073129 10.83294-1.869513 9.79438-2.180763 20.00921-3.56362 29.03389-7.950045 2.75689-1.339979 7.38923-5.473849 7.38923-5.473849s-5.08354-2.983087-7.87085-3.8609825c-5.18382-1.6327146-10.73848-1.6843269-16.11117-2.5042389-1.5059-.2298145-3.08485-.1650683-4.51961-.6769603-2.78887-1.0495519-5.53027-3.9206257-9.26436-3.9638897-3.48803.00253-6.05037 3.5970515-9.43023 4.3370051-.73669.1612827-1.52571.161282-2.2624-.000001-3.37986-.7399551-5.9422-4.3344733-9.43023-4.3370051-3.73409.043264-6.47549 2.9143378-9.26436 3.9638897-1.43476.511892-3.01371.4471458-4.51961.6769603-5.37269.819912-10.92735.8715243-16.11117 2.5042389-2.78731.8778955-7.87085 3.8609825-7.87085 3.8609825s4.63234 4.13387 7.38923 5.473849c9.02468 4.386425 19.23951 5.769282 29.03389 7.950045 3.57677.796384 7.18195 1.556786 10.83294 1.869513.71163.06095 1.43109.06096 2.14272.000001z" fill="#7e6d4c"/><path d="m514.63218 23.618019c-3.30032-.406269-6.45192-1.6129-9.67787-2.41935l-29.03363-7.25805c5.61983-.802878 10.79042-1.66175 16.18213-2.514957 1.73561-.274648 3.52835-.310883 5.20451-.838319 2.72608-.8578033 4.86688-3.5644009 7.71996-3.7292813 1.64727-.095195 3.21847.8512122 4.67558 1.6253672 2.41087 1.4369794 2.22139 2.6455111 4.92932 2.7903671l2.14314.000001c2.1792.235263 3.42615-1.9486471 4.92932-2.7903671 1.45711-.774155 3.02831-1.7205617 4.67558-1.6253672 2.85308.1648804 4.99388 2.871478 7.71996 3.7292813 1.67616.527436 3.4689.563671 5.20451.838319 5.39171.853207 10.5623 1.712079 16.18213 2.514957l-29.03363 7.25805c-3.22595.80645-6.37755 2.013082-9.67787 2.41935-.70903.08728-1.43411.08728-2.14314-.000001z" fill="url(#g)"/></g></g></svg>