<svg height="500" viewBox="0 0 132.29167 132.29167" width="500" xmlns="http://www.w3.org/2000/svg" xmlns:xlink="http://www.w3.org/1999/xlink"><linearGradient id="a"><stop offset="0" stop-color="#716c79"/><stop offset=".25" stop-color="#7d7887"/><stop offset=".5" stop-color="#797481"/><stop offset=".75" stop-color="#716c79"/><stop offset="1" stop-color="#77727f"/></linearGradient><radialGradient id="b" cx="190.74084" cy="90.816475" gradientTransform="matrix(.00055145 .05037036 -.10118189 .00111105 46.659247 42.958059)" gradientUnits="userSpaceOnUse" r="56.302475" spreadMethod="reflect" xlink:href="#a"/><g><g transform="translate(-190.98989 4.579686)"><path d="m158.33398 18.236328v1.695313 3.757812l.002.05273c.11831 1.876899.60513 3.565317 1.41211 4.908204.90245 1.5215 2.27996 2.626953 3.91797 2.626953 1.638 0 3.01355-1.105465 3.91601-2.626953.80698-1.342887 1.29379-3.031305 1.41211-4.908204l.002-.05273v-5.453125h-5.33007z" fill="#58555d"/><path d="m160.02776 19.93072v3.704683c.10339 1.640116.54482 3.10127 1.1746 4.147551.71438 1.206521 1.59812 1.79989 2.4629 1.79989s1.74851-.593369 2.4629-1.79989c.62978-1.046281 1.07121-2.507435 1.1746-4.147551v-3.704683h-3.6375z" fill="url(#b)" stroke-width="3.388519"/></g><path d="m85.702265 9.7503095a1.323049 1.323049 0 0 0 -.522449.0873332 1.323049 1.323049 0 0 0 -.744141.7208863s-.815891 1.929636-2.025716 4.169771c-1.209824 2.240135-2.895046 4.784161-4.167704 5.78156-3.22572 2.52804-7.68875 3.921209-11.845789 3.919657-4.140304-.0016-8.569821-1.423814-11.824085-3.927409-1.251845-.963076-2.941826-3.416218-4.166154-5.576404-1.224328-2.160185-2.06034-4.02146-2.06034-4.02146a1.323049 1.323049 0 0 0 -1.570446-.730188s-1.658948.474283-3.679879 1.165821c-2.02093.691537-4.383566 1.571111-6.017204 2.546614-.715405.427192-1.399926 1.042707-1.982825 1.582333-.553191.512123-.93564.905734-.978235.949296l-14.951026 12.91394c-.066719.05142-3.671936 2.828893-5.468917 4.695321-1.553665 1.613715-4.03725 3.294751-4.9381995 6.146395-.3847962.644034-.6994874 1.309134-.9270752 1.992127-.0002063.000609.0002063.001367 0 .002067-.0004513.0014-.0016171.002734-.0020671.004134-.4610096 1.363471-.555118 2.849323-.0645955 4.234367.1588204.852293.5414897 1.616257 1.1115601 2.113049.5704567.49713 1.2335762.716719 1.8474322.839742.804851.288673 1.647646.356413 2.494422.312643-.02924.14027-.080651.276545-.101803.418062-.263055 1.208343-.254494 2.269844.101803 3.179651.327905.837311.967817 1.437992 1.650545 1.828312 1.411494 1.137614 3.249454 1.361021 4.954736 1.064018.29446-.04982.586306-.128049.879017-.206706.289332.01608.538377.040713.666109.068213.402778 1.186677 1.08841 2.301291 2.263428 2.964677 1.88959 1.066813 4.085313.647253 5.828068-.353467h.002067c.801043-.454912 1.548238-1.040745 2.234489-1.730127 1.226161-1.135543 2.210033-2.512309 2.753837-3.994588-.000228.0067.002267.012957.002067.019637l-.025321.054777c.01053-.01782.015361-.027778.025321-.044958-.02264.719523.01664 1.426765.134876 2.109432.000109.00063-.00011.001367 0 .002067.175464 1.041932.58989 2.019893 1.18339 2.888712l-3.183268 55.183713a1.323049 1.323049 0 0 0 -.002068.0801c.0063 1.42718-.069199 3.08051 0 4.76922v.67799a1.323049 1.323049 0 0 0 0 .05271l.002068.05271a1.323049 1.323049 0 0 0 .00155.03101c.07854 1.24603.309038 2.42916.683679 3.51761.247106.7581.58057 1.49414 1.031462 2.17765-.0056-.009.032893.0558.085783.13487.748176 1.14197 1.787328 2.09011 3.088183 2.58589.798185.44221 1.665457.63287 2.441195.51005.7752-.12274 1.398736-.49801 1.912028-.90072.750678-.44413 1.356653-1.06403 1.881022-1.75597.0685.0904.126748.18824.198954.27544.003.005.006719.00825.009819.01395.583535.99382 1.323451 1.71431 2.197282 2.07429.825758.34018 1.67914.27268 2.422074.0801 1.735707-.12363 3.129748-1.14885 4.128947-2.46135.632359.91581 1.414942 1.64962 2.345594 2.01177.655981.31268 1.387801.51211 2.162142.51211 1.35 0 2.55395-.57655 3.49591-1.39681.354823-.26487.562026-.71303.861447-1.05834.424817.53659.906983 1.00083 1.458825 1.34152.880579.66445 1.963254 1.11363 3.15278 1.11363 1.191648 0 2.276939-.45065 3.157946-1.11724.485797-.30077.935669-.67738 1.326018-1.1312.396374.46131.85442.84339 1.349788 1.1467.877332.65699 1.953038 1.10174 3.134693 1.10174 1.186257 0 2.266067-.44833 3.144511-1.10949.498614-.30701.944804-.71615 1.342037-1.18391.391596.45967.829288.86444 1.318265 1.1684.882892.66941 1.969258 1.125 3.164148 1.125 1.180839 0 2.254132-.4455 3.130559-1.10174.504927-.30875.942468-.74476 1.344104-1.21853.532254.68081 1.154919 1.20074 1.851566 1.54254.773894.46751 1.673306.77773 2.642216.77773 2.203802 0 3.936047-1.45967 5.000212-3.21531 1.276953-1.62937 2.048258-3.81279 1.654163-6.11487v-1.40457c.034-.41279.052861-.82491.060461-1.22266.046707-.52152.087319-1.06391-.016019-1.66295-.020785-.46378-.046576-.80197-.04806-.82114l-.002067-.02532-3.168282-54.925846c.924173-1.554548 1.303081-3.246093 1.44539-4.900476l.623218 1.066602a1.323049 1.323049 0 0 0 .027388.044441l.029456.044959a1.323049 1.323049 0 0 0 .015503.025321c.3014.448398.623461.867017.957047 1.261939.91125 1.225452 2.14369 2.421902 3.93361 3.029272 1.40613.701508 2.74953.837614 3.84576.466639.48983-.108618.97809-.270789 1.43351-.536919.96182-.562067 1.60129-1.434615 2.03501-2.377116.27196-.284925.51333-.47465.73846-.614949.69983.063992 1.40353.106951 2.09031-.01912a1.323049 1.323049 0 0 0 .05788-.002584c.0297-.0022.05266-.01496.08216-.01757l-.07338.008785c.04842-.009729.09751-.012669.14573-.024288 1.03367-.104755 1.93141-.442431 2.56264-1.044898.63471-.605789.91539-1.385209 1.05264-2.103747.42669-1.143841.38685-2.34632.13075-3.517615.21015.01358.41879.0547.6289.05116 1.53095-.02575 3.10058-.559664 4.18941-1.800924 1.17389-1.193539 1.63519-2.715173 1.59576-4.117062.10199-3.09592-1.38519-6.366524-3.9982-7.985559-.16924-.161528-.33993-.30571-.50798-.429431l-22.025013-18.813839a1.323049 1.323049 0 0 0 -.023771-.01912c-1.911743-1.555953-4.327496-2.51026-6.306592-3.541386-.09043-.04711-.168071-.083702-.191203-.095602l.027389.015503c-.756437-.411441-1.519623-.776537-2.271696-1.124996l-.019638-.009818c-1.319714-.636317-2.546614-1.2128463-2.546614-1.2128463a1.323049 1.323049 0 0 0 -.514697-.1245402zm-51.114194 42.9508675c.017511.053692.000391.093407-.002584.138493l-.017054-.103353c.0061-.01098.013808-.02461.019638-.03514zm-13.463262 2.753837c.03241.136534.126639.253607.167949.388607-.02615-.03189-.003656.007296-.031006-.040824zm30.924212 68.687796c.02595.0594.075807.09249.103353.15038-.0089-.013-.042513-.02541-.049093-.03721zm46.075741.11369-.033073.04599c.0026-.004.009266-.00482.011886-.00982l.002067-.00413c.011002-.01837.017129-.02879.01912-.03204z" fill="#58555d" stroke-linecap="round" stroke-linejoin="round"/><path d="m47.138726 11.446425s-6.50907 1.860893-9.38289 3.576948c-1.037436.619488-2.743339 2.36948-2.743339 2.36948l-14.982533 12.940728s-3.741685 2.910495-5.379986 4.612115c-1.761317 1.82939-4.133016 3.500806-4.7356377 5.967738-.3867846 4.39813 6.0082797 4.178008 7.9043807 6.061001 2.639378 2.853158 4.469327 5.09784 4.469327 5.09784s.04088.05914.05529.08062c.122665.239594.272946.467039.454235.678512.141795.165402.296249.313629.460954.445968.203339.202045.415012.378107.612883.468188 1.274598.580262 2.779112.555434 4.197676.173633 3.430766-.923379 9.533269-4.766634 9.533269-4.766634l-3.693958 64.045498v5.45312l1.33958 1.70014c15.763386 3.94086 45.576024 3.91966 61.339413-.0212 0 0 1.105338-.86918 1.374593-1.48857.752042-1.73001.421293-5.64349.421293-5.64349l-3.695002-64.045498 9.022106 4.511216 5.36737-4.297622 4.57132-3.883267s6.00373 2.696406 7.87334.833737c3.76907-3.75508-2.20274-10.209842-2.25838-10.165333l-22.574174-19.281724c-1.677612-1.365392-4.02396-2.320009-6.082981-3.392776-1.62759-.847989-4.953186-2.403988-4.953186-2.403988l4.933725 9.954504-24.441397 11.993131-20.745812-10.562773z" fill="#58555d"/><g stroke-width="1.03977"><g transform="matrix(.83749192795 .47282738654 -.47282738654 .83749192795 -97.99772007293 -45.74332403466)"><path d="m158.33398 18.236328v1.695313 3.757812l.002.05273c.11831 1.876899.60513 3.565317 1.41211 4.908204.90245 1.5215 2.27996 2.626953 3.91797 2.626953 1.638 0 3.01355-1.105465 3.91601-2.626953.80698-1.342887 1.29379-3.031305 1.41211-4.908204l.002-.05273v-5.453125h-5.33007z" fill="#58555d"/><path d="m160.02776 19.93072v3.704683c.10339 1.640116.54482 3.10127 1.1746 4.147551.71438 1.206521 1.59812 1.79989 2.4629 1.79989s1.74851-.593369 2.4629-1.79989c.62978-1.046281 1.07121-2.507435 1.1746-4.147551v-3.704683h-3.6375z" fill="url(#b)" stroke-width="3.38852"/></g><g transform="matrix(.62595173929 .73016634485 -.73016634485 .62595173929 -69.98964326136 -91.9870201987)"><path d="m158.33398 18.236328v1.695313 3.757812l.002.05273c.11831 1.876899.60513 3.565317 1.41211 4.908204.90245 1.5215 2.27996 2.626953 3.91797 2.626953 1.638 0 3.01355-1.105465 3.91601-2.626953.80698-1.342887 1.29379-3.031305 1.41211-4.908204l.002-.05273v-5.453125h-5.33007z" fill="#58555d"/><path d="m160.02776 19.93072v3.704683c.10339 1.640116.54482 3.10127 1.1746 4.147551.71438 1.206521 1.59812 1.79989 2.4629 1.79989s1.74851-.593369 2.4629-1.79989c.62978-1.046281 1.07121-2.507435 1.1746-4.147551v-3.704683h-3.6375z" fill="url(#b)" stroke-width="3.38852"/></g><g transform="matrix(.62595173929 .73016634485 -.73016634485 .62595173929 -64.3756215976 -85.4383209607)"><path d="m158.33398 18.236328v1.695313 3.757812l.002.05273c.11831 1.876899.60513 3.565317 1.41211 4.908204.90245 1.5215 2.27996 2.626953 3.91797 2.626953 1.638 0 3.01355-1.105465 3.91601-2.626953.80698-1.342887 1.29379-3.031305 1.41211-4.908204l.002-.05273v-5.453125h-5.33007z" fill="#58555d"/><path d="m160.02776 19.93072v3.704683c.10339 1.640116.54482 3.10127 1.1746 4.147551.71438 1.206521 1.59812 1.79989 2.4629 1.79989s1.74851-.593369 2.4629-1.79989c.62978-1.046281 1.07121-2.507435 1.1746-4.147551v-3.704683h-3.6375z" fill="url(#b)" stroke-width="3.38852"/></g><g transform="matrix(.62595173929 .73016634485 -.73016634485 .62595173929 -68.04032483761 -99.34703421656)"><path d="m163.66552 18.236516-.00032 11.34613c-.2955 2.077339.37043 2.69326 3.08109.201065.31055-.337957.5908-.720401.83582-1.13349.80698-1.342885 1.2936-3.031074 1.41192-4.907971l.002-.05274.00012-5.452998-5.32991-.00005z" fill="#58555d"/><path d="m163.66539 19.930725-.00019 9.651921c.86478 0 1.74844-.593108 2.46282-1.799628.62978-1.04628 1.07127-2.507317 1.17466-4.147431l-.00007-3.705055z" fill="url(#b)" stroke-width="3.38852"/></g><g transform="matrix(.62595173929 .73016634485 -.73016634485 .62595173929 -62.42562747884 -92.79891423349)"><path d="m158.33398 18.236328v1.695313 3.757812l.002.05273c.11831 1.876899.60513 3.565317 1.41211 4.908204.90245 1.5215 2.27996 2.626953 3.91797 2.626953 1.638 0 3.01355-1.105465 3.91601-2.626953.80698-1.342887 1.29379-3.031305 1.41211-4.908204l.002-.05273v-5.453125h-5.33007z" fill="#58555d"/><path d="m160.02776 19.93072v3.704683c.10339 1.640116.54482 3.10127 1.1746 4.147551.71438 1.206521 1.59812 1.79989 2.4629 1.79989s1.74851-.593369 2.4629-1.79989c.62978-1.046281 1.07121-2.507435 1.1746-4.147551v-3.704683h-3.6375z" fill="url(#b)" stroke-width="3.38852"/></g><g transform="matrix(.62595173929 .73016634485 -.73016634485 .62595173929 -59.53344541743 -100.95083409258)"><path d="m158.33398 18.236328v1.695313 3.757812l.002.05273c.11831 1.876899.60513 3.565317 1.41211 4.908204.90245 1.5215 2.27996 2.626953 3.91797 2.626953 1.638 0 3.01355-1.105465 3.91601-2.626953.80698-1.342887 1.29379-3.031305 1.41211-4.908204l.002-.05273v-5.453125h-5.33007z" fill="#58555d"/><path d="m160.02776 19.93072v3.704683c.10339 1.640116.54482 3.10127 1.1746 4.147551.71438 1.206521 1.59812 1.79989 2.4629 1.79989s1.74851-.593369 2.4629-1.79989c.62978-1.046281 1.07121-2.507435 1.1746-4.147551v-3.704683h-3.6375z" fill="url(#b)" stroke-width="3.38852"/></g><g transform="matrix(.62595173929 .73016634485 -.73016634485 .62595173929 -56.81160581508 -86.25021499548)"><path d="m158.33398 18.236328v1.695313 3.757812l.002.05273c.11831 1.876899.60513 3.565317 1.41211 4.908204.90245 1.5215 2.27996 2.626953 3.91797 2.626953 1.638 0 3.01355-1.105465 3.91601-2.626953.80698-1.342887 1.29379-3.031305 1.41211-4.908204l.002-.05273v-5.453125h-5.33007z" fill="#58555d"/><path d="m160.02776 19.93072v3.704683c.10339 1.640116.54482 3.10127 1.1746 4.147551.71438 1.206521 1.59812 1.79989 2.4629 1.79989s1.74851-.593369 2.4629-1.79989c.62978-1.046281 1.07121-2.507435 1.1746-4.147551v-3.704683h-3.6375z" fill="url(#b)" stroke-width="3.38852"/></g><g transform="matrix(.62595173929 .73016634485 -.73016634485 .62595173929 -53.91942375367 -94.40213485458)"><path d="m158.33398 18.236328v1.695313 3.757812l.002.05273c.11831 1.876899.60513 3.565317 1.41211 4.908204.90245 1.5215 2.27996 2.626953 3.91797 2.626953 1.638 0 3.01355-1.105465 3.91601-2.626953.80698-1.342887 1.29379-3.031305 1.41211-4.908204l.002-.05273v-5.453125h-5.33007z" fill="#58555d"/><path d="m160.02776 19.93072v3.704683c.10339 1.640116.54482 3.10127 1.1746 4.147551.71438 1.206521 1.59812 1.79989 2.4629 1.79989s1.74851-.593369 2.4629-1.79989c.62978-1.046281 1.07121-2.507435 1.1746-4.147551v-3.704683h-3.6375z" fill="url(#b)" stroke-width="3.38852"/></g><g transform="matrix(.62595173929 .73016634485 -.73016634485 .62595173929 -48.3054020899 -87.85343561658)"><path d="m158.33411 18.236176-.00001 1.695725-.00011 3.757274.00216.052802c.11831 1.876897.60519 3.565647 1.41217 4.908533.75268 1.268992 1.83591 2.247978 3.12503 2.538167l2.42624-9.703842-3.79007-3.248421z" fill="#58555d"/><path d="m160.02784 19.93092.00002 3.704297c.10339 1.640115.54484 3.101619 1.17462 4.147899.60977 1.02984 1.34273 1.612225 2.08216 1.760921l2.01495-8.059202.82253-2.725996z" fill="url(#b)" stroke-width="3.38852"/></g><g transform="matrix(.62595173929 .73016634485 -.73016634485 .62595173929 -57.58412699368 -108.31084811044)"><path d="m163.66555 18.23652-.0004 13.041097c.00025 0 .00051-.000058.00076-.000058 1.638 0 3.01377-1.105847 3.91623-2.627334.80697-1.342885 1.29359-3.031074 1.41191-4.907971l.00205-.052744.00011-5.452998-5.32991-.00005z" fill="#58555d"/><path d="m163.66542 19.930729-.0002 9.651921c.86478 0 1.74844-.593108 2.46283-1.799628.62978-1.04628 1.07127-2.507317 1.17466-4.147431l-.00008-3.705055z" fill="url(#b)" stroke-width="3.38852"/></g><g transform="matrix(.62595173929 .73016634485 -.73016634485 .62595173929 -51.96943722699 -101.76272161889)"><path d="m158.33398 18.236328v1.695313 3.757812l.002.05273c.11831 1.876899.60513 3.565317 1.41211 4.908204.90245 1.5215 2.27996 2.626953 3.91797 2.626953 1.638 0 3.01355-1.105465 3.91601-2.626953.80698-1.342887 1.29379-3.031305 1.41211-4.908204l.002-.05273v-5.453125h-5.33007z" fill="#58555d"/><path d="m160.02776 19.93072v3.704683c.10339 1.640116.54482 3.10127 1.1746 4.147551.71438 1.206521 1.59812 1.79989 2.4629 1.79989s1.74851-.593369 2.4629-1.79989c.62978-1.046281 1.07121-2.507435 1.1746-4.147551v-3.704683h-3.6375z" fill="url(#b)" stroke-width="3.38852"/></g><g transform="matrix(.62595173929 .73016634485 -.73016634485 .62595173929 -46.35541556323 -95.21402238088)"><path d="m158.33398 18.236328v1.695313 3.757812l.002.05273c.11831 1.876899.60513 3.565317 1.41211 4.908204.90245 1.5215 2.27996 2.626953 3.91797 2.626953 1.638 0 3.01355-1.105465 3.91601-2.626953.80698-1.342887 1.29379-3.031305 1.41211-4.908204l.002-.05273v-5.453125h-5.33007z" fill="#58555d"/><path d="m160.02776 19.93072v3.704683c.10339 1.640116.54482 3.10127 1.1746 4.147551.71438 1.206521 1.59812 1.79989 2.4629 1.79989s1.74851-.593369 2.4629-1.79989c.62978-1.046281 1.07121-2.507435 1.1746-4.147551v-3.704683h-3.6375z" fill="url(#b)" stroke-width="3.38852"/></g><g transform="matrix(.62595173929 .73016634485 -.73016634485 .62595173929 -49.23197413537 -109.78200511515)"><path d="m158.33398 18.236328v1.695313 3.757812l.002.05273c.11831 1.876899.60513 3.565317 1.41211 4.908204.90245 1.5215 2.27996 2.626953 3.91797 2.626953 1.638 0 3.01355-1.105465 3.91601-2.626953.80698-1.342887 1.29379-3.031305 1.41211-4.908204l.002-.05273v-5.453125h-5.33007z" fill="#58555d"/><path d="m160.02776 19.93072v3.704683c.10339 1.640116.54482 3.10127 1.1746 4.147551.71438 1.206521 1.59812 1.79989 2.4629 1.79989s1.74851-.593369 2.4629-1.79989c.62978-1.046281 1.07121-2.507435 1.1746-4.147551v-3.704683h-3.6375z" fill="url(#b)" stroke-width="3.38852"/></g><g transform="matrix(.62595173929 .73016634485 -.73016634485 .62595173929 -43.61795247161 -103.23330587715)"><path d="m158.33398 18.236328v1.695313 3.757812l.002.05273c.11831 1.876899.60513 3.565317 1.41211 4.908204.90245 1.5215 2.27996 2.626953 3.91797 2.626953 1.638 0 3.01355-1.105465 3.91601-2.626953.80698-1.342887 1.29379-3.031305 1.41211-4.908204l.002-.05273v-5.453125h-5.33007z" fill="#58555d"/><path d="m160.02776 19.93072v3.704683c.10339 1.640116.54482 3.10127 1.1746 4.147551.71438 1.206521 1.59812 1.79989 2.4629 1.79989s1.74851-.593369 2.4629-1.79989c.62978-1.046281 1.07121-2.507435 1.1746-4.147551v-3.704683h-3.6375z" fill="url(#b)" stroke-width="3.38852"/></g><g transform="matrix(.62595173929 .73016634485 -.73016634485 .62595173929 -47.28264811954 -117.14202564149)"><path d="m163.66537 21.488112.00008 9.789463c.00025 0 .0005-.000059.00076-.000059 1.638 0 3.01342-1.105439 3.91587-2.626925.4985-.829534.87481-1.791222 1.11757-2.847435z" fill="#58555d"/><path d="m163.66537 21.488112-.0002 8.094904c.86478 0 1.74879-.593517 2.46318-1.800037.51304-.852335.90102-1.980133 1.08315-3.255574l1.36368-4.482218z" fill="url(#b)" stroke-width="3.38852"/></g></g><path d="m168.99622 18.235998-3.86499.000264 1.93984 7.760432 1.60743-.105033c.16189-.679833.26834-1.399664.31563-2.149721l.00185-.052632z" fill="#58555d" transform="matrix(.65078821 -.75925931 .75925931 .65078821 -20.41068994658 163.8459429406)"/><g transform="matrix(.86338692807 -.50454236902 .50454236902 .86338692807 -48.91196108283 113.10086994632)"><path d="m158.33398 18.236328v1.695313 3.757812l.002.05273c.11831 1.876899.60513 3.565317 1.41211 4.908204.90245 1.5215 2.27996 2.626953 3.91797 2.626953 1.638 0 3.01355-1.105465 3.91601-2.626953.80698-1.342887 1.29379-3.031305 1.41211-4.908204l.002-.05273v-5.453125h-5.33007z" fill="#58555d"/><path d="m160.02776 19.93072v3.704683c.10339 1.640116.54482 3.10127 1.1746 4.147551.71438 1.206521 1.59812 1.79989 2.4629 1.79989s1.74851-.593369 2.4629-1.79989c.62978-1.046281 1.07121-2.507435 1.1746-4.147551v-3.704683h-3.6375z" fill="url(#b)" stroke-width="3.38852"/></g><g transform="matrix(.65078821 -.75925931 .75925931 .65078821 -14.5739136645 157.03631322626)"><path d="m158.33398 18.236328v1.695313 3.757812l.002.05273c.11831 1.876899.60513 3.565317 1.41211 4.908204.90245 1.5215 2.27996 2.626953 3.91797 2.626953 1.638 0 3.01355-1.105465 3.91601-2.626953.80698-1.342887 1.29379-3.031305 1.41211-4.908204l.002-.05273v-5.453125h-5.33007z" fill="#58555d"/><path d="m160.02776 19.93072v3.704683c.10339 1.640116.54482 3.10127 1.1746 4.147551.71438 1.206521 1.59812 1.79989 2.4629 1.79989s1.74851-.593369 2.4629-1.79989c.62978-1.046281 1.07121-2.507435 1.1746-4.147551v-3.704683h-3.6375z" fill="url(#b)" stroke-width="3.38852"/></g><g transform="matrix(.65078821 -.75925931 .75925931 .65078821 -8.73713738241 150.22668351191)"><path d="m158.33398 18.236328v1.695313 3.757812l.002.05273c.11831 1.876899.60513 3.565317 1.41211 4.908204.90245 1.5215 2.27996 2.626953 3.91797 2.626953 1.638 0 3.01355-1.105465 3.91601-2.626953.80698-1.342887 1.29379-3.031305 1.41211-4.908204l.002-.05273v-5.453125h-5.33007z" fill="#58555d"/><path d="m160.02776 19.93072v3.704683c.10339 1.640116.54482 3.10127 1.1746 4.147551.71438 1.206521 1.59812 1.79989 2.4629 1.79989s1.74851-.593369 2.4629-1.79989c.62978-1.046281 1.07121-2.507435 1.1746-4.147551v-3.704683h-3.6375z" fill="url(#b)" stroke-width="3.38852"/></g><g transform="matrix(.65078821 -.75925931 .75925931 .65078821 -22.44726273611 156.20257596786)"><path d="m158.33398 18.236328v1.695313 3.757812l.002.05273c.11831 1.876899.60513 3.565317 1.41211 4.908204.90245 1.5215 2.27996 2.626953 3.91797 2.626953 1.638 0 3.01355-1.105465 3.91601-2.626953.80698-1.342887 1.29379-3.031305 1.41211-4.908204l.002-.05273v-5.453125h-5.33007z" fill="#58555d"/><path d="m160.02776 19.93072v3.704683c.10339 1.640116.54482 3.10127 1.1746 4.147551.71438 1.206521 1.59812 1.79989 2.4629 1.79989s1.74851-.593369 2.4629-1.79989c.62978-1.046281 1.07121-2.507435 1.1746-4.147551v-3.704683h-3.6375z" fill="url(#b)" stroke-width="3.38852"/></g><g transform="matrix(.65078821 -.75925931 .75925931 .65078821 -16.61048645403 149.39294625352)"><path d="m158.33398 18.236328v1.695313 3.757812l.002.05273c.11831 1.876899.60513 3.565317 1.41211 4.908204.90245 1.5215 2.27996 2.626953 3.91797 2.626953 1.638 0 3.01355-1.105465 3.91601-2.626953.80698-1.342887 1.29379-3.031305 1.41211-4.908204l.002-.05273v-5.453125h-5.33007z" fill="#58555d"/><path d="m160.02776 19.93072v3.704683c.10339 1.640116.54482 3.10127 1.1746 4.147551.71438 1.206521 1.59812 1.79989 2.4629 1.79989s1.74851-.593369 2.4629-1.79989c.62978-1.046281 1.07121-2.507435 1.1746-4.147551v-3.704683h-3.6375z" fill="url(#b)" stroke-width="3.38852"/></g><g transform="matrix(.65078821 -.75925931 .75925931 .65078821 -10.77371017194 142.58331653917)"><path d="m163.6655 18.236385-5.33129-.000022.00005 1.695373-.0003 3.757937.00219.052576c.11831 1.876897.60464 3.565222 1.41162 4.908108.90218 1.521045 2.27952 2.626018 3.91689 2.626676l.00073.000056z" fill="#58555d"/><path d="m163.66527 19.930637-3.63777.000153.00016 3.704464c.10339 1.640115.54497 3.101104 1.17475 4.147384.71438 1.20652 1.59804 1.800535 2.46282 1.800535z" fill="url(#b)" stroke-width="3.38852"/></g><g transform="matrix(.65078821 -.75925931 .75925931 .65078821 -31.28350345098 154.52646704482)"><path d="m168.99617 18.236164-5.32983.00009-2.07433.000215 1.34682 5.55034.43976 7.218881 1.38938.09875c1.15269-.366938 2.12224-1.287973 2.81394-2.454123.80698-1.342886 1.29385-3.031312 1.41217-4.908209l.002-.05263z" fill="#58555d"/><path d="m167.30275 19.930633-3.63776.000153-1.66202.00005.93586 3.855973 1.41723 5.669c.63217-.232853 1.2478-.787343 1.772-1.672665.62978-1.04628 1.07106-2.507596 1.17445-4.14771z" fill="url(#b)" stroke-width="3.38852"/></g><g transform="matrix(.65078821 -.75925931 .75925931 .65078821 -25.4467271689 147.71683733047)"><path d="m158.33398 18.236328v1.695313 3.757812l.002.05273c.11831 1.876899.60513 3.565317 1.41211 4.908204.90245 1.5215 2.27996 2.626953 3.91797 2.626953 1.638 0 3.01355-1.105465 3.91601-2.626953.80698-1.342887 1.29379-3.031305 1.41211-4.908204l.002-.05273v-5.453125h-5.33007z" fill="#58555d"/><path d="m160.02776 19.93072v3.704683c.10339 1.640116.54482 3.10127 1.1746 4.147551.71438 1.206521 1.59812 1.79989 2.4629 1.79989s1.74851-.593369 2.4629-1.79989c.62978-1.046281 1.07121-2.507435 1.1746-4.147551v-3.704683h-3.6375z" fill="url(#b)" stroke-width="3.38852"/></g><g transform="matrix(.65078821 -.75925931 .75925931 .65078821 -19.60995088681 140.90720761613)"><path d="m158.33398 18.236328v1.695313 3.757812l.002.05273c.11831 1.876899.60513 3.565317 1.41211 4.908204.90245 1.5215 2.27996 2.626953 3.91797 2.626953 1.638 0 3.01355-1.105465 3.91601-2.626953.80698-1.342887 1.29379-3.031305 1.41211-4.908204l.002-.05273v-5.453125h-5.33007z" fill="#58555d"/><path d="m160.02776 19.93072v3.704683c.10339 1.640116.54482 3.10127 1.1746 4.147551.71438 1.206521 1.59812 1.79989 2.4629 1.79989s1.74851-.593369 2.4629-1.79989c.62978-1.046281 1.07121-2.507435 1.1746-4.147551v-3.704683h-3.6375z" fill="url(#b)" stroke-width="3.38852"/></g><g transform="matrix(.65078821 -.75925931 .75925931 .65078821 -33.32007624051 146.88310007208)"><path d="m158.33398 18.236328v1.695313 3.757812l.002.05273c.11831 1.876899.60513 3.565317 1.41211 4.908204.90245 1.5215 2.27996 2.626953 3.91797 2.626953 1.638 0 3.01355-1.105465 3.91601-2.626953.80698-1.342887 1.29379-3.031305 1.41211-4.908204l.002-.05273v-5.453125h-5.33007z" fill="#58555d"/><path d="m160.02776 19.93072v3.704683c.10339 1.640116.54482 3.10127 1.1746 4.147551.71438 1.206521 1.59812 1.79989 2.4629 1.79989s1.74851-.593369 2.4629-1.79989c.62978-1.046281 1.07121-2.507435 1.1746-4.147551v-3.704683h-3.6375z" fill="url(#b)" stroke-width="3.38852"/></g><g transform="matrix(.65078821 -.75925931 .75925931 .65078821 -27.48329995843 140.07347035773)"><path d="m158.33398 18.236328v1.695313 3.757812l.002.05273c.11831 1.876899.60513 3.565317 1.41211 4.908204.90245 1.5215 2.27996 2.626953 3.91797 2.626953 1.638 0 3.01355-1.105465 3.91601-2.626953.80698-1.342887 1.29379-3.031305 1.41211-4.908204l.002-.05273v-5.453125h-5.33007z" fill="#58555d"/><path d="m160.02776 19.93072v3.704683c.10339 1.640116.54482 3.10127 1.1746 4.147551.71438 1.206521 1.59812 1.79989 2.4629 1.79989s1.74851-.593369 2.4629-1.79989c.62978-1.046281 1.07121-2.507435 1.1746-4.147551v-3.704683h-3.6375z" fill="url(#b)" stroke-width="3.38852"/></g><g transform="matrix(.65078821 -.75925931 .75925931 .65078821 -21.64652367634 133.26384064339)"><path d="m163.66505 18.236887-5.33123-.000751.00005 1.695374.00043 3.757992.0018.052913c.11831 1.876897.60503 3.564886 1.41201 4.907772.90232 1.521271 2.27954 2.626738 3.91722 2.627068z" fill="#58555d"/><path d="m163.66521 19.930803-3.63737-.000183-.00024 3.7048c.10339 1.640115.54498 3.101104 1.17476 4.147384.71438 1.20652 1.59809 1.799807 2.46287 1.799807z" fill="url(#b)" stroke-width="3.38852"/></g><g transform="matrix(.65078821 -.75925931 .75925931 .65078821 -36.15865362551 138.53526345639)"><path d="m158.33398 18.236328v1.695313 3.757812l.002.05273c.11831 1.876899.60513 3.565317 1.41211 4.908204.90245 1.5215 2.27996 2.626953 3.91797 2.626953 1.638 0 3.01355-1.105465 3.91601-2.626953.80698-1.342887 1.29379-3.031305 1.41211-4.908204l.002-.05273v-5.453125h-5.33007z" fill="#58555d"/><path d="m160.02776 19.93072v3.704683c.10339 1.640116.54482 3.10127 1.1746 4.147551.71438 1.206521 1.59812 1.79989 2.4629 1.79989s1.74851-.593369 2.4629-1.79989c.62978-1.046281 1.07121-2.507435 1.1746-4.147551v-3.704683h-3.6375z" fill="url(#b)" stroke-width="3.38852"/></g><g transform="matrix(.65078821 -.75925931 .75925931 .65078821 -30.32187734342 131.72563374205)"><path d="m158.33398 18.236328v1.695313 3.757812l.002.05273c.11831 1.876899.60513 3.565317 1.41211 4.908204.90245 1.5215 2.27996 2.626953 3.91797 2.626953 1.638 0 3.01355-1.105465 3.91601-2.626953.80698-1.342887 1.29379-3.031305 1.41211-4.908204l.002-.05273v-5.453125h-5.33007z" fill="#58555d"/><path d="m160.02776 19.93072v3.704683c.10339 1.640116.54482 3.10127 1.1746 4.147551.71438 1.206521 1.59812 1.79989 2.4629 1.79989s1.74851-.593369 2.4629-1.79989c.62978-1.046281 1.07121-2.507435 1.1746-4.147551v-3.704683h-3.6375z" fill="url(#b)" stroke-width="3.38852"/></g><g><g transform="translate(-124.42558 94.961727)"><path d="m158.33398 18.236328v1.695313 3.757812l.002.05273c.11831 1.876899.60513 3.565317 1.41211 4.908204.90245 1.5215 2.27996 2.626953 3.91797 2.626953 1.638 0 3.01355-1.105465 3.91601-2.626953.80698-1.342887 1.29379-3.031305 1.41211-4.908204l.002-.05273v-5.453125h-5.33007z" fill="#58555d"/><path d="m160.02776 19.93072v3.704683c.10339 1.640116.54482 3.10127 1.1746 4.147551.71438 1.206521 1.59812 1.79989 2.4629 1.79989s1.74851-.593369 2.4629-1.79989c.62978-1.046281 1.07121-2.507435 1.1746-4.147551v-3.704683h-3.6375z" fill="url(#b)" stroke-width="3.38852"/></g><g transform="translate(-115.4568 94.961727)"><path d="m158.33398 18.236328v1.695313 3.757812l.002.05273c.11831 1.876899.60513 3.565317 1.41211 4.908204.90245 1.5215 2.27996 2.626953 3.91797 2.626953 1.638 0 3.01355-1.105465 3.91601-2.626953.80698-1.342887 1.29379-3.031305 1.41211-4.908204l.002-.05273v-5.453125h-5.33007z" fill="#58555d"/><path d="m160.02776 19.93072v3.704683c.10339 1.640116.54482 3.10127 1.1746 4.147551.71438 1.206521 1.59812 1.79989 2.4629 1.79989s1.74851-.593369 2.4629-1.79989c.62978-1.046281 1.07121-2.507435 1.1746-4.147551v-3.704683h-3.6375z" fill="url(#b)" stroke-width="3.38852"/></g><g transform="translate(-106.48802 94.961727)"><path d="m158.33398 18.236328v1.695313 3.757812l.002.05273c.11831 1.876899.60513 3.565317 1.41211 4.908204.90245 1.5215 2.27996 2.626953 3.91797 2.626953 1.638 0 3.01355-1.105465 3.91601-2.626953.80698-1.342887 1.29379-3.031305 1.41211-4.908204l.002-.05273v-5.453125h-5.33007z" fill="#58555d"/><path d="m160.02776 19.93072v3.704683c.10339 1.640116.54482 3.10127 1.1746 4.147551.71438 1.206521 1.59812 1.79989 2.4629 1.79989s1.74851-.593369 2.4629-1.79989c.62978-1.046281 1.07121-2.507435 1.1746-4.147551v-3.704683h-3.6375z" fill="url(#b)" stroke-width="3.38852"/></g><g transform="translate(-97.519243 94.961727)"><path d="m158.33398 18.236328v1.695313 3.757812l.002.05273c.11831 1.876899.60513 3.565317 1.41211 4.908204.90245 1.5215 2.27996 2.626953 3.91797 2.626953 1.638 0 3.01355-1.105465 3.91601-2.626953.80698-1.342887 1.29379-3.031305 1.41211-4.908204l.002-.05273v-5.453125h-5.33007z" fill="#58555d"/><path d="m160.02776 19.93072v3.704683c.10339 1.640116.54482 3.10127 1.1746 4.147551.71438 1.206521 1.59812 1.79989 2.4629 1.79989s1.74851-.593369 2.4629-1.79989c.62978-1.046281 1.07121-2.507435 1.1746-4.147551v-3.704683h-3.6375z" fill="url(#b)" stroke-width="3.38852"/></g><g transform="translate(-88.55046 94.961727)"><path d="m158.33398 18.236328v1.695313 3.757812l.002.05273c.11831 1.876899.60513 3.565317 1.41211 4.908204.90245 1.5215 2.27996 2.626953 3.91797 2.626953 1.638 0 3.01355-1.105465 3.91601-2.626953.80698-1.342887 1.29379-3.031305 1.41211-4.908204l.002-.05273v-5.453125h-5.33007z" fill="#58555d"/><path d="m160.02776 19.93072v3.704683c.10339 1.640116.54482 3.10127 1.1746 4.147551.71438 1.206521 1.59812 1.79989 2.4629 1.79989s1.74851-.593369 2.4629-1.79989c.62978-1.046281 1.07121-2.507435 1.1746-4.147551v-3.704683h-3.6375z" fill="url(#b)" stroke-width="3.38852"/></g><g transform="translate(-79.58168 94.961727)"><path d="m158.33398 18.236328v1.695313 3.757812l.002.05273c.11831 1.876899.60513 3.565317 1.41211 4.908204.90245 1.5215 2.27996 2.626953 3.91797 2.626953 1.638 0 3.01355-1.105465 3.91601-2.626953.80698-1.342887 1.29379-3.031305 1.41211-4.908204l.002-.05273v-5.453125h-5.33007z" fill="#58555d"/><path d="m160.02776 19.93072v3.704683c.10339 1.640116.54482 3.10127 1.1746 4.147551.71438 1.206521 1.59812 1.79989 2.4629 1.79989s1.74851-.593369 2.4629-1.79989c.62978-1.046281 1.07121-2.507435 1.1746-4.147551v-3.704683h-3.6375z" fill="url(#b)" stroke-width="3.38852"/></g><g transform="translate(-70.6129 94.961727)"><path d="m158.33398 18.236328v1.695313 3.757812l.002.05273c.11831 1.876899.60513 3.565317 1.41211 4.908204.90245 1.5215 2.27996 2.626953 3.91797 2.626953 1.638 0 3.01355-1.105465 3.91601-2.626953.80698-1.342887 1.29379-3.031305 1.41211-4.908204l.002-.05273v-5.453125h-5.33007z" fill="#58555d"/><path d="m160.02776 19.93072v3.704683c.10339 1.640116.54482 3.10127 1.1746 4.147551.71438 1.206521 1.59812 1.79989 2.4629 1.79989s1.74851-.593369 2.4629-1.79989c.62978-1.046281 1.07121-2.507435 1.1746-4.147551v-3.704683h-3.6375z" fill="url(#b)" stroke-width="3.38852"/></g><g transform="translate(-128.91644 88.442142)"><path d="m165.08012 18.236104-.69956 3.490328-.37029 7.675915.38465 1.800407c1.31689-.2717 2.42226-1.26233 3.1874-2.552299.80698-1.342885 1.29348-3.03133 1.4118-4.908227l.002-.05271v-5.453414z" fill="#58555d"/><path d="m164.99021 19.930574-.47159 6.519731-.0286 2.952042c.58509-.258702 1.15087-.79659 1.63814-1.619539.62978-1.04628 1.07122-2.507436 1.17461-4.147551v-3.704683z" fill="url(#b)" stroke-width="3.38852"/></g><g transform="translate(-119.94766 88.441221)"><path d="m158.33398 18.236328v1.695313 3.757812l.002.05273c.11831 1.876899.60513 3.565317 1.41211 4.908204.90245 1.5215 2.27996 2.626953 3.91797 2.626953 1.638 0 3.01355-1.105465 3.91601-2.626953.80698-1.342887 1.29379-3.031305 1.41211-4.908204l.002-.05273v-5.453125h-5.33007z" fill="#58555d"/><path d="m160.02776 19.93072v3.704683c.10339 1.640116.54482 3.10127 1.1746 4.147551.71438 1.206521 1.59812 1.79989 2.4629 1.79989s1.74851-.593369 2.4629-1.79989c.62978-1.046281 1.07121-2.507435 1.1746-4.147551v-3.704683h-3.6375z" fill="url(#b)" stroke-width="3.38852"/></g><g transform="translate(-110.97888 88.441221)"><path d="m158.33398 18.236328v1.695313 3.757812l.002.05273c.11831 1.876899.60513 3.565317 1.41211 4.908204.90245 1.5215 2.27996 2.626953 3.91797 2.626953 1.638 0 3.01355-1.105465 3.91601-2.626953.80698-1.342887 1.29379-3.031305 1.41211-4.908204l.002-.05273v-5.453125h-5.33007z" fill="#58555d"/><path d="m160.02776 19.93072v3.704683c.10339 1.640116.54482 3.10127 1.1746 4.147551.71438 1.206521 1.59812 1.79989 2.4629 1.79989s1.74851-.593369 2.4629-1.79989c.62978-1.046281 1.07121-2.507435 1.1746-4.147551v-3.704683h-3.6375z" fill="url(#b)" stroke-width="3.38852"/></g><g transform="translate(-102.0101 88.441221)"><path d="m158.33398 18.236328v1.695313 3.757812l.002.05273c.11831 1.876899.60513 3.565317 1.41211 4.908204.90245 1.5215 2.27996 2.626953 3.91797 2.626953 1.638 0 3.01355-1.105465 3.91601-2.626953.80698-1.342887 1.29379-3.031305 1.41211-4.908204l.002-.05273v-5.453125h-5.33007z" fill="#58555d"/><path d="m160.02776 19.93072v3.704683c.10339 1.640116.54482 3.10127 1.1746 4.147551.71438 1.206521 1.59812 1.79989 2.4629 1.79989s1.74851-.593369 2.4629-1.79989c.62978-1.046281 1.07121-2.507435 1.1746-4.147551v-3.704683h-3.6375z" fill="url(#b)" stroke-width="3.38852"/></g><g transform="translate(-93.041319 88.441221)"><path d="m158.33398 18.236328v1.695313 3.757812l.002.05273c.11831 1.876899.60513 3.565317 1.41211 4.908204.90245 1.5215 2.27996 2.626953 3.91797 2.626953 1.638 0 3.01355-1.105465 3.91601-2.626953.80698-1.342887 1.29379-3.031305 1.41211-4.908204l.002-.05273v-5.453125h-5.33007z" fill="#58555d"/><path d="m160.02776 19.93072v3.704683c.10339 1.640116.54482 3.10127 1.1746 4.147551.71438 1.206521 1.59812 1.79989 2.4629 1.79989s1.74851-.593369 2.4629-1.79989c.62978-1.046281 1.07121-2.507435 1.1746-4.147551v-3.704683h-3.6375z" fill="url(#b)" stroke-width="3.38852"/></g><g transform="translate(-84.07254 88.441221)"><path d="m158.33398 18.236328v1.695313 3.757812l.002.05273c.11831 1.876899.60513 3.565317 1.41211 4.908204.90245 1.5215 2.27996 2.626953 3.91797 2.626953 1.638 0 3.01355-1.105465 3.91601-2.626953.80698-1.342887 1.29379-3.031305 1.41211-4.908204l.002-.05273v-5.453125h-5.33007z" fill="#58555d"/><path d="m160.02776 19.93072v3.704683c.10339 1.640116.54482 3.10127 1.1746 4.147551.71438 1.206521 1.59812 1.79989 2.4629 1.79989s1.74851-.593369 2.4629-1.79989c.62978-1.046281 1.07121-2.507435 1.1746-4.147551v-3.704683h-3.6375z" fill="url(#b)" stroke-width="3.38852"/></g><g transform="translate(-75.10376 88.441221)"><path d="m158.33398 18.236328v1.695313 3.757812l.002.05273c.11831 1.876899.60513 3.565317 1.41211 4.908204.90245 1.5215 2.27996 2.626953 3.91797 2.626953 1.638 0 3.01355-1.105465 3.91601-2.626953.80698-1.342887 1.29379-3.031305 1.41211-4.908204l.002-.05273v-5.453125h-5.33007z" fill="#58555d"/><path d="m160.02776 19.93072v3.704683c.10339 1.640116.54482 3.10127 1.1746 4.147551.71438 1.206521 1.59812 1.79989 2.4629 1.79989s1.74851-.593369 2.4629-1.79989c.62978-1.046281 1.07121-2.507435 1.1746-4.147551v-3.704683h-3.6375z" fill="url(#b)" stroke-width="3.38852"/></g><g transform="translate(-66.13498 88.441221)"><path d="m158.33401 18.236508v1.694987 3.75791l.002.05271c.11831 1.876897.60482 3.565342 1.4118 4.908228.74221 1.251343 1.80613 2.220958 3.07165 2.525944l.60921-8.770832-1.29341-4.168947z" fill="#58555d"/><path d="m160.02796 19.930978v3.704167c.10339 1.640114.54483 3.101787 1.1746 4.148067.45426.767194.97702 1.285736 1.51981 1.562179l-.49713-9.414413z" fill="url(#b)" stroke-width="3.38852"/></g><g transform="translate(-124.42558 80.641438)"><path d="m160.26702 18.23625-.4774 10.414352.61258.926041c.85994 1.023521 1.98207 1.700672 3.26388 1.700672 1.638 0 3.01358-1.105227 3.91604-2.626713.80698-1.342886 1.294-3.031331 1.41232-4.908228l.002-.05271v-5.453414h-5.32991z" fill="#58555d"/><path d="m160.91173 19.93072-.3421 6.479192c.17764.509788.39107.971918.63252 1.373042.71438 1.20652 1.59812 1.799891 2.4629 1.799891s1.74851-.593371 2.4629-1.799891c.62977-1.04628 1.07121-2.507436 1.1746-4.14755v-3.704684h-3.6375z" fill="url(#b)" stroke-width="3.38852"/></g><g transform="translate(-115.4568 80.641438)"><path d="m158.33398 18.236328v1.695313 3.757812l.002.05273c.11831 1.876899.60513 3.565317 1.41211 4.908204.90245 1.5215 2.27996 2.626953 3.91797 2.626953 1.638 0 3.01355-1.105465 3.91601-2.626953.80698-1.342887 1.29379-3.031305 1.41211-4.908204l.002-.05273v-5.453125h-5.33007z" fill="#58555d"/><path d="m160.02776 19.93072v3.704683c.10339 1.640116.54482 3.10127 1.1746 4.147551.71438 1.206521 1.59812 1.79989 2.4629 1.79989s1.74851-.593369 2.4629-1.79989c.62978-1.046281 1.07121-2.507435 1.1746-4.147551v-3.704683h-3.6375z" fill="url(#b)" stroke-width="3.38852"/></g><g transform="translate(-106.48802 80.641438)"><path d="m158.33398 18.236328v1.695313 3.757812l.002.05273c.11831 1.876899.60513 3.565317 1.41211 4.908204.90245 1.5215 2.27996 2.626953 3.91797 2.626953 1.638 0 3.01355-1.105465 3.91601-2.626953.80698-1.342887 1.29379-3.031305 1.41211-4.908204l.002-.05273v-5.453125h-5.33007z" fill="#58555d"/><path d="m160.02776 19.93072v3.704683c.10339 1.640116.54482 3.10127 1.1746 4.147551.71438 1.206521 1.59812 1.79989 2.4629 1.79989s1.74851-.593369 2.4629-1.79989c.62978-1.046281 1.07121-2.507435 1.1746-4.147551v-3.704683h-3.6375z" fill="url(#b)" stroke-width="3.38852"/></g><g transform="translate(-97.519243 80.641438)"><path d="m158.33398 18.236328v1.695313 3.757812l.002.05273c.11831 1.876899.60513 3.565317 1.41211 4.908204.90245 1.5215 2.27996 2.626953 3.91797 2.626953 1.638 0 3.01355-1.105465 3.91601-2.626953.80698-1.342887 1.29379-3.031305 1.41211-4.908204l.002-.05273v-5.453125h-5.33007z" fill="#58555d"/><path d="m160.02776 19.93072v3.704683c.10339 1.640116.54482 3.10127 1.1746 4.147551.71438 1.206521 1.59812 1.79989 2.4629 1.79989s1.74851-.593369 2.4629-1.79989c.62978-1.046281 1.07121-2.507435 1.1746-4.147551v-3.704683h-3.6375z" fill="url(#b)" stroke-width="3.38852"/></g><g transform="translate(-88.55046 80.641438)"><path d="m158.33398 18.236328v1.695313 3.757812l.002.05273c.11831 1.876899.60513 3.565317 1.41211 4.908204.90245 1.5215 2.27996 2.626953 3.91797 2.626953 1.638 0 3.01355-1.105465 3.91601-2.626953.80698-1.342887 1.29379-3.031305 1.41211-4.908204l.002-.05273v-5.453125h-5.33007z" fill="#58555d"/><path d="m160.02776 19.93072v3.704683c.10339 1.640116.54482 3.10127 1.1746 4.147551.71438 1.206521 1.59812 1.79989 2.4629 1.79989s1.74851-.593369 2.4629-1.79989c.62978-1.046281 1.07121-2.507435 1.1746-4.147551v-3.704683h-3.6375z" fill="url(#b)" stroke-width="3.38852"/></g><g transform="translate(-79.58168 80.641438)"><path d="m158.33398 18.236328v1.695313 3.757812l.002.05273c.11831 1.876899.60513 3.565317 1.41211 4.908204.90245 1.5215 2.27996 2.626953 3.91797 2.626953 1.638 0 3.01355-1.105465 3.91601-2.626953.80698-1.342887 1.29379-3.031305 1.41211-4.908204l.002-.05273v-5.453125h-5.33007z" fill="#58555d"/><path d="m160.02776 19.93072v3.704683c.10339 1.640116.54482 3.10127 1.1746 4.147551.71438 1.206521 1.59812 1.79989 2.4629 1.79989s1.74851-.593369 2.4629-1.79989c.62978-1.046281 1.07121-2.507435 1.1746-4.147551v-3.704683h-3.6375z" fill="url(#b)" stroke-width="3.38852"/></g><g transform="translate(-70.6129 80.641438)"><path d="m158.33416 18.23625v1.695504 3.75791l.002.05271c.11831 1.876897.60482 3.565342 1.4118 4.908228.90245 1.521498 2.2801 2.626713 3.91811 2.626713 1.22271 0 2.29931-.61595 3.14192-1.561145.18549-1.988943.95725-3.844813-.32591-6.167111l-.28077-5.312809h-2.53524z" fill="#58555d"/><path d="m160.0276 19.93072v3.704684c.10339 1.640114.54483 3.10127 1.1746 4.14755.71438 1.20652 1.59812 1.799891 2.4629 1.799891s1.74851-.593371 2.4629-1.799891c.19278-.320261.36772-.679497.5209-1.070735l-.35812-6.781499h-2.62568z" fill="url(#b)" stroke-width="3.38852"/></g><g transform="translate(-128.91644 74.121853)"><path d="m165.83667 18.236336h-1.00752l-.35394 12.685955.68966.03161c.97887-.434886 1.80665-1.274009 2.41743-2.303735.80698-1.342886 1.29348-3.03133 1.4118-4.908228l.002-.05271v-5.452897z" fill="#58555d"/><path d="m165.74727 19.930806-.47232 8.94054c.30124-.279564.58878-.641772.85317-1.088305.62978-1.04628 1.07122-2.507437 1.17461-4.147551v-3.704684z" fill="url(#b)" stroke-width="3.38852"/></g><g transform="translate(-119.94766 74.120932)"><path d="m158.33398 18.236328v1.695313 3.757812l.002.05273c.11831 1.876899.60513 3.565317 1.41211 4.908204.90245 1.5215 2.27996 2.626953 3.91797 2.626953 1.638 0 3.01355-1.105465 3.91601-2.626953.80698-1.342887 1.29379-3.031305 1.41211-4.908204l.002-.05273v-5.453125h-5.33007z" fill="#58555d"/><path d="m160.02776 19.93072v3.704683c.10339 1.640116.54482 3.10127 1.1746 4.147551.71438 1.206521 1.59812 1.79989 2.4629 1.79989s1.74851-.593369 2.4629-1.79989c.62978-1.046281 1.07121-2.507435 1.1746-4.147551v-3.704683h-3.6375z" fill="url(#b)" stroke-width="3.38852"/></g><g transform="translate(-110.97888 74.120932)"><path d="m158.33398 18.236328v1.695313 3.757812l.002.05273c.11831 1.876899.60513 3.565317 1.41211 4.908204.90245 1.5215 2.27996 2.626953 3.91797 2.626953 1.638 0 3.01355-1.105465 3.91601-2.626953.80698-1.342887 1.29379-3.031305 1.41211-4.908204l.002-.05273v-5.453125h-5.33007z" fill="#58555d"/><path d="m160.02776 19.93072v3.704683c.10339 1.640116.54482 3.10127 1.1746 4.147551.71438 1.206521 1.59812 1.79989 2.4629 1.79989s1.74851-.593369 2.4629-1.79989c.62978-1.046281 1.07121-2.507435 1.1746-4.147551v-3.704683h-3.6375z" fill="url(#b)" stroke-width="3.38852"/></g><g transform="translate(-102.0101 74.120932)"><path d="m158.33398 18.236328v1.695313 3.757812l.002.05273c.11831 1.876899.60513 3.565317 1.41211 4.908204.90245 1.5215 2.27996 2.626953 3.91797 2.626953 1.638 0 3.01355-1.105465 3.91601-2.626953.80698-1.342887 1.29379-3.031305 1.41211-4.908204l.002-.05273v-5.453125h-5.33007z" fill="#58555d"/><path d="m160.02776 19.93072v3.704683c.10339 1.640116.54482 3.10127 1.1746 4.147551.71438 1.206521 1.59812 1.79989 2.4629 1.79989s1.74851-.593369 2.4629-1.79989c.62978-1.046281 1.07121-2.507435 1.1746-4.147551v-3.704683h-3.6375z" fill="url(#b)" stroke-width="3.38852"/></g><g transform="translate(-93.041319 74.120932)"><path d="m158.33398 18.236328v1.695313 3.757812l.002.05273c.11831 1.876899.60513 3.565317 1.41211 4.908204.90245 1.5215 2.27996 2.626953 3.91797 2.626953 1.638 0 3.01355-1.105465 3.91601-2.626953.80698-1.342887 1.29379-3.031305 1.41211-4.908204l.002-.05273v-5.453125h-5.33007z" fill="#58555d"/><path d="m160.02776 19.93072v3.704683c.10339 1.640116.54482 3.10127 1.1746 4.147551.71438 1.206521 1.59812 1.79989 2.4629 1.79989s1.74851-.593369 2.4629-1.79989c.62978-1.046281 1.07121-2.507435 1.1746-4.147551v-3.704683h-3.6375z" fill="url(#b)" stroke-width="3.38852"/></g><g transform="translate(-84.07254 74.120932)"><path d="m158.33398 18.236328v1.695313 3.757812l.002.05273c.11831 1.876899.60513 3.565317 1.41211 4.908204.90245 1.5215 2.27996 2.626953 3.91797 2.626953 1.638 0 3.01355-1.105465 3.91601-2.626953.80698-1.342887 1.29379-3.031305 1.41211-4.908204l.002-.05273v-5.453125h-5.33007z" fill="#58555d"/><path d="m160.02776 19.93072v3.704683c.10339 1.640116.54482 3.10127 1.1746 4.147551.71438 1.206521 1.59812 1.79989 2.4629 1.79989s1.74851-.593369 2.4629-1.79989c.62978-1.046281 1.07121-2.507435 1.1746-4.147551v-3.704683h-3.6375z" fill="url(#b)" stroke-width="3.38852"/></g><g transform="translate(-75.10376 74.120932)"><path d="m158.33398 18.236328v1.695313 3.757812l.002.05273c.11831 1.876899.60513 3.565317 1.41211 4.908204.90245 1.5215 2.27996 2.626953 3.91797 2.626953 1.638 0 3.01355-1.105465 3.91601-2.626953.80698-1.342887 1.29379-3.031305 1.41211-4.908204l.002-.05273v-5.453125h-5.33007z" fill="#58555d"/><path d="m160.02776 19.93072v3.704683c.10339 1.640116.54482 3.10127 1.1746 4.147551.71438 1.206521 1.59812 1.79989 2.4629 1.79989s1.74851-.593369 2.4629-1.79989c.62978-1.046281 1.07121-2.507435 1.1746-4.147551v-3.704683h-3.6375z" fill="url(#b)" stroke-width="3.38852"/></g><g transform="translate(-66.13498 74.120932)"><path d="m158.33401 18.236224v1.695503 3.757911l.002.05271c.11831 1.876897.60482 3.565342 1.4118 4.908227.58589.987778 1.37249 1.799499 2.30012 2.247925l.44242-3.400343-1.11163-9.261933z" fill="#58555d"/><path d="m160.02796 19.930694v3.704683c.10339 1.640115.54483 3.101271 1.1746 4.147551.22866.386174.47456.709291.73174.970483l-.46612-8.822717z" fill="url(#b)" stroke-width="3.38852"/></g><g transform="translate(-124.42558 66.533045)"><path d="m161.74733 18.23646h-.96324l-.53921 10.936787.86528 1.11364c.73521.614505 1.60126.990638 2.55592.990638 1.638 0 3.01358-1.105744 3.91604-2.62723.80698-1.342886 1.294-3.031331 1.41232-4.908228l.002-.05271v-5.452897h-5.32991z" fill="#58555d"/><path d="m161.65742 19.93093-.41807 7.913212c.70778 1.165145 1.57575 1.738912 2.4257 1.738912.86478 0 1.74851-.59337 2.4629-1.79989.62977-1.04628 1.07121-2.507436 1.1746-4.14755v-3.704684h-3.6375z" fill="url(#b)" stroke-width="3.38852"/></g><g transform="translate(-115.4568 66.533045)"><path d="m158.33398 18.236328v1.695313 3.757812l.002.05273c.11831 1.876899.60513 3.565317 1.41211 4.908204.90245 1.5215 2.27996 2.626953 3.91797 2.626953 1.638 0 3.01355-1.105465 3.91601-2.626953.80698-1.342887 1.29379-3.031305 1.41211-4.908204l.002-.05273v-5.453125h-5.33007z" fill="#58555d"/><path d="m160.02776 19.93072v3.704683c.10339 1.640116.54482 3.10127 1.1746 4.147551.71438 1.206521 1.59812 1.79989 2.4629 1.79989s1.74851-.593369 2.4629-1.79989c.62978-1.046281 1.07121-2.507435 1.1746-4.147551v-3.704683h-3.6375z" fill="url(#b)" stroke-width="3.38852"/></g><g transform="translate(-106.48802 66.533045)"><path d="m158.33398 18.236328v1.695313 3.757812l.002.05273c.11831 1.876899.60513 3.565317 1.41211 4.908204.90245 1.5215 2.27996 2.626953 3.91797 2.626953 1.638 0 3.01355-1.105465 3.91601-2.626953.80698-1.342887 1.29379-3.031305 1.41211-4.908204l.002-.05273v-5.453125h-5.33007z" fill="#58555d"/><path d="m160.02776 19.93072v3.704683c.10339 1.640116.54482 3.10127 1.1746 4.147551.71438 1.206521 1.59812 1.79989 2.4629 1.79989s1.74851-.593369 2.4629-1.79989c.62978-1.046281 1.07121-2.507435 1.1746-4.147551v-3.704683h-3.6375z" fill="url(#b)" stroke-width="3.38852"/></g><g transform="translate(-97.519243 66.533045)"><path d="m158.33398 18.236328v1.695313 3.757812l.002.05273c.11831 1.876899.60513 3.565317 1.41211 4.908204.90245 1.5215 2.27996 2.626953 3.91797 2.626953 1.638 0 3.01355-1.105465 3.91601-2.626953.80698-1.342887 1.29379-3.031305 1.41211-4.908204l.002-.05273v-5.453125h-5.33007z" fill="#58555d"/><path d="m160.02776 19.93072v3.704683c.10339 1.640116.54482 3.10127 1.1746 4.147551.71438 1.206521 1.59812 1.79989 2.4629 1.79989s1.74851-.593369 2.4629-1.79989c.62978-1.046281 1.07121-2.507435 1.1746-4.147551v-3.704683h-3.6375z" fill="url(#b)" stroke-width="3.38852"/></g><g transform="translate(-88.55046 66.533045)"><path d="m158.33398 18.236328v1.695313 3.757812l.002.05273c.11831 1.876899.60513 3.565317 1.41211 4.908204.90245 1.5215 2.27996 2.626953 3.91797 2.626953 1.638 0 3.01355-1.105465 3.91601-2.626953.80698-1.342887 1.29379-3.031305 1.41211-4.908204l.002-.05273v-5.453125h-5.33007z" fill="#58555d"/><path d="m160.02776 19.93072v3.704683c.10339 1.640116.54482 3.10127 1.1746 4.147551.71438 1.206521 1.59812 1.79989 2.4629 1.79989s1.74851-.593369 2.4629-1.79989c.62978-1.046281 1.07121-2.507435 1.1746-4.147551v-3.704683h-3.6375z" fill="url(#b)" stroke-width="3.38852"/></g><g transform="translate(-79.58168 66.533045)"><path d="m158.33398 18.236328v1.695313 3.757812l.002.05273c.11831 1.876899.60513 3.565317 1.41211 4.908204.90245 1.5215 2.27996 2.626953 3.91797 2.626953 1.638 0 3.01355-1.105465 3.91601-2.626953.80698-1.342887 1.29379-3.031305 1.41211-4.908204l.002-.05273v-5.453125h-5.33007z" fill="#58555d"/><path d="m160.02776 19.93072v3.704683c.10339 1.640116.54482 3.10127 1.1746 4.147551.71438 1.206521 1.59812 1.79989 2.4629 1.79989s1.74851-.593369 2.4629-1.79989c.62978-1.046281 1.07121-2.507435 1.1746-4.147551v-3.704683h-3.6375z" fill="url(#b)" stroke-width="3.38852"/></g><g transform="translate(-70.6129 66.533045)"><path d="m158.33416 18.23646v1.694987 3.75791l.002.05271c.11831 1.876897.60482 3.565342 1.4118 4.908228.90245 1.521498 2.2801 2.62723 3.91811 2.62723.90189 0 1.72378-.335711 2.43137-.890902l.43458-2.229301-1.0764-9.920862h-1.78955z" fill="#58555d"/><path d="m160.0276 19.93093v3.704684c.10339 1.640114.54483 3.10127 1.1746 4.14755.71438 1.20652 1.59812 1.79989 2.4629 1.79989.80334 0 1.62277-.512915 2.30787-1.552876l-.42788-8.099248h-1.87999z" fill="url(#b)" stroke-width="3.38852"/></g><g transform="translate(-128.91644 60.01346)"><path d="m166.58236 18.236546-.64854 12.273153c.64687-.464922 1.20505-1.111736 1.64848-1.859318.80698-1.342886 1.29348-3.031331 1.4118-4.908228l.00207-.05271v-5.452897z" fill="#58555d"/><path d="m166.49296 19.9305-.41961 7.943701c.01848-.030054.0365-.060612.05477-.091467.62978-1.04628 1.07122-2.507437 1.17461-4.147551v-3.704683z" fill="url(#b)" stroke-width="3.38852"/></g><g transform="translate(-119.94766 60.012539)"><path d="m158.33398 18.236328v1.695313 3.757812l.002.05273c.11831 1.876899.60513 3.565317 1.41211 4.908204.90245 1.5215 2.27996 2.626953 3.91797 2.626953 1.638 0 3.01355-1.105465 3.91601-2.626953.80698-1.342887 1.29379-3.031305 1.41211-4.908204l.002-.05273v-5.453125h-5.33007z" fill="#58555d"/><path d="m160.02776 19.93072v3.704683c.10339 1.640116.54482 3.10127 1.1746 4.147551.71438 1.206521 1.59812 1.79989 2.4629 1.79989s1.74851-.593369 2.4629-1.79989c.62978-1.046281 1.07121-2.507435 1.1746-4.147551v-3.704683h-3.6375z" fill="url(#b)" stroke-width="3.38852"/></g><g transform="translate(-110.97888 60.012539)"><path d="m158.33398 18.236328v1.695313 3.757812l.002.05273c.11831 1.876899.60513 3.565317 1.41211 4.908204.90245 1.5215 2.27996 2.626953 3.91797 2.626953 1.638 0 3.01355-1.105465 3.91601-2.626953.80698-1.342887 1.29379-3.031305 1.41211-4.908204l.002-.05273v-5.453125h-5.33007z" fill="#58555d"/><path d="m160.02776 19.93072v3.704683c.10339 1.640116.54482 3.10127 1.1746 4.147551.71438 1.206521 1.59812 1.79989 2.4629 1.79989s1.74851-.593369 2.4629-1.79989c.62978-1.046281 1.07121-2.507435 1.1746-4.147551v-3.704683h-3.6375z" fill="url(#b)" stroke-width="3.38852"/></g><g transform="translate(-102.0101 60.012539)"><path d="m158.33398 18.236328v1.695313 3.757812l.002.05273c.11831 1.876899.60513 3.565317 1.41211 4.908204.90245 1.5215 2.27996 2.626953 3.91797 2.626953 1.638 0 3.01355-1.105465 3.91601-2.626953.80698-1.342887 1.29379-3.031305 1.41211-4.908204l.002-.05273v-5.453125h-5.33007z" fill="#58555d"/><path d="m160.02776 19.93072v3.704683c.10339 1.640116.54482 3.10127 1.1746 4.147551.71438 1.206521 1.59812 1.79989 2.4629 1.79989s1.74851-.593369 2.4629-1.79989c.62978-1.046281 1.07121-2.507435 1.1746-4.147551v-3.704683h-3.6375z" fill="url(#b)" stroke-width="3.38852"/></g><g transform="translate(-93.041319 60.012539)"><path d="m158.33398 18.236328v1.695313 3.757812l.002.05273c.11831 1.876899.60513 3.565317 1.41211 4.908204.90245 1.5215 2.27996 2.626953 3.91797 2.626953 1.638 0 3.01355-1.105465 3.91601-2.626953.80698-1.342887 1.29379-3.031305 1.41211-4.908204l.002-.05273v-5.453125h-5.33007z" fill="#58555d"/><path d="m160.02776 19.93072v3.704683c.10339 1.640116.54482 3.10127 1.1746 4.147551.71438 1.206521 1.59812 1.79989 2.4629 1.79989s1.74851-.593369 2.4629-1.79989c.62978-1.046281 1.07121-2.507435 1.1746-4.147551v-3.704683h-3.6375z" fill="url(#b)" stroke-width="3.38852"/></g><g transform="translate(-84.07254 60.012539)"><path d="m158.33398 18.236328v1.695313 3.757812l.002.05273c.11831 1.876899.60513 3.565317 1.41211 4.908204.90245 1.5215 2.27996 2.626953 3.91797 2.626953 1.638 0 3.01355-1.105465 3.91601-2.626953.80698-1.342887 1.29379-3.031305 1.41211-4.908204l.002-.05273v-5.453125h-5.33007z" fill="#58555d"/><path d="m160.02776 19.93072v3.704683c.10339 1.640116.54482 3.10127 1.1746 4.147551.71438 1.206521 1.59812 1.79989 2.4629 1.79989s1.74851-.593369 2.4629-1.79989c.62978-1.046281 1.07121-2.507435 1.1746-4.147551v-3.704683h-3.6375z" fill="url(#b)" stroke-width="3.38852"/></g><g transform="translate(-75.10376 60.012539)"><path d="m158.33398 18.236328v1.695313 3.757812l.002.05273c.11831 1.876899.60513 3.565317 1.41211 4.908204.90245 1.5215 2.27996 2.626953 3.91797 2.626953 1.638 0 3.01355-1.105465 3.91601-2.626953.80698-1.342887 1.29379-3.031305 1.41211-4.908204l.002-.05273v-5.453125h-5.33007z" fill="#58555d"/><path d="m160.02776 19.93072v3.704683c.10339 1.640116.54482 3.10127 1.1746 4.147551.71438 1.206521 1.59812 1.79989 2.4629 1.79989s1.74851-.593369 2.4629-1.79989c.62978-1.046281 1.07121-2.507435 1.1746-4.147551v-3.704683h-3.6375z" fill="url(#b)" stroke-width="3.38852"/></g><g transform="translate(-66.13498 60.012539)"><path d="m158.33401 18.236434v1.694987 3.75791l.002.05271c.11831 1.876897.60482 3.565342 1.4118 4.908227.41576.700946.93268 1.3135 1.52911 1.770435l.48386-2.759005-1.12775-9.425264z" fill="#58555d"/><path d="m160.02796 19.930904v3.704683c.09946 1.577854.51138 2.989574 1.10329 4.026111l-.40876-7.730794z" fill="url(#b)" stroke-width="3.38852"/></g><g transform="translate(-124.42558 53.492033)"><path d="m161.88324 18.146453-.64389 10.503789.53537 2.103748c.57523.332197 1.21081.523482 1.89136.523482 1.638 0 3.01358-1.105744 3.91604-2.62723.80698-1.342886 1.294-3.031331 1.41232-4.908228l.002-.05271v-5.452897h-5.32991z" fill="#58555d"/><path d="m162.34678 19.930877-.46354 8.770008c.55999.590023 1.17557.882117 1.78181.882117.86478 0 1.74851-.593371 2.4629-1.799891.62977-1.046279 1.07121-2.507436 1.1746-4.14755v-3.704684h-3.6375z" fill="url(#b)" stroke-width="3.38852"/></g><g transform="translate(-115.4568 53.492033)"><path d="m158.33398 18.236328v1.695313 3.757812l.002.05273c.11831 1.876899.60513 3.565317 1.41211 4.908204.90245 1.5215 2.27996 2.626953 3.91797 2.626953 1.638 0 3.01355-1.105465 3.91601-2.626953.80698-1.342887 1.29379-3.031305 1.41211-4.908204l.002-.05273v-5.453125h-5.33007z" fill="#58555d"/><path d="m160.02776 19.93072v3.704683c.10339 1.640116.54482 3.10127 1.1746 4.147551.71438 1.206521 1.59812 1.79989 2.4629 1.79989s1.74851-.593369 2.4629-1.79989c.62978-1.046281 1.07121-2.507435 1.1746-4.147551v-3.704683h-3.6375z" fill="url(#b)" stroke-width="3.38852"/></g><g transform="translate(-106.48802 53.492033)"><path d="m158.33398 18.236328v1.695313 3.757812l.002.05273c.11831 1.876899.60513 3.565317 1.41211 4.908204.90245 1.5215 2.27996 2.626953 3.91797 2.626953 1.638 0 3.01355-1.105465 3.91601-2.626953.80698-1.342887 1.29379-3.031305 1.41211-4.908204l.002-.05273v-5.453125h-5.33007z" fill="#58555d"/><path d="m160.02776 19.93072v3.704683c.10339 1.640116.54482 3.10127 1.1746 4.147551.71438 1.206521 1.59812 1.79989 2.4629 1.79989s1.74851-.593369 2.4629-1.79989c.62978-1.046281 1.07121-2.507435 1.1746-4.147551v-3.704683h-3.6375z" fill="url(#b)" stroke-width="3.38852"/></g><g transform="translate(-97.519243 53.492033)"><path d="m158.33398 18.236328v1.695313 3.757812l.002.05273c.11831 1.876899.60513 3.565317 1.41211 4.908204.90245 1.5215 2.27996 2.626953 3.91797 2.626953 1.638 0 3.01355-1.105465 3.91601-2.626953.80698-1.342887 1.29379-3.031305 1.41211-4.908204l.002-.05273v-5.453125h-5.33007z" fill="#58555d"/><path d="m160.02776 19.93072v3.704683c.10339 1.640116.54482 3.10127 1.1746 4.147551.71438 1.206521 1.59812 1.79989 2.4629 1.79989s1.74851-.593369 2.4629-1.79989c.62978-1.046281 1.07121-2.507435 1.1746-4.147551v-3.704683h-3.6375z" fill="url(#b)" stroke-width="3.38852"/></g><g transform="translate(-88.55046 53.492033)"><path d="m158.33398 18.236328v1.695313 3.757812l.002.05273c.11831 1.876899.60513 3.565317 1.41211 4.908204.90245 1.5215 2.27996 2.626953 3.91797 2.626953 1.638 0 3.01355-1.105465 3.91601-2.626953.80698-1.342887 1.29379-3.031305 1.41211-4.908204l.002-.05273v-5.453125h-5.33007z" fill="#58555d"/><path d="m160.02776 19.93072v3.704683c.10339 1.640116.54482 3.10127 1.1746 4.147551.71438 1.206521 1.59812 1.79989 2.4629 1.79989s1.74851-.593369 2.4629-1.79989c.62978-1.046281 1.07121-2.507435 1.1746-4.147551v-3.704683h-3.6375z" fill="url(#b)" stroke-width="3.38852"/></g><g transform="translate(-79.58168 53.492033)"><path d="m158.33398 18.236328v1.695313 3.757812l.002.05273c.11831 1.876899.60513 3.565317 1.41211 4.908204.90245 1.5215 2.27996 2.626953 3.91797 2.626953 1.638 0 3.01355-1.105465 3.91601-2.626953.80698-1.342887 1.29379-3.031305 1.41211-4.908204l.002-.05273v-5.453125h-5.33007z" fill="#58555d"/><path d="m160.02776 19.93072v3.704683c.10339 1.640116.54482 3.10127 1.1746 4.147551.71438 1.206521 1.59812 1.79989 2.4629 1.79989s1.74851-.593369 2.4629-1.79989c.62978-1.046281 1.07121-2.507435 1.1746-4.147551v-3.704683h-3.6375z" fill="url(#b)" stroke-width="3.38852"/></g><g transform="translate(-70.6129 53.492033)"><path d="m158.33416 18.236407v1.694987 3.75791l.002.05271c.11831 1.876897.60482 3.565342 1.4118 4.908228.90245 1.521498 2.2801 2.62723 3.91811 2.62723.6316 0 1.22378-.165034 1.76526-.454236l.15084-2.127459-.81591-10.45937h-1.10019z" fill="#58555d"/><path d="m160.0276 19.930877v3.704684c.10339 1.640114.54483 3.101271 1.1746 4.14755.71438 1.20652 1.59812 1.799891 2.4629 1.799891.5629 0 1.13386-.251896 1.66088-.760161l-.46973-8.891964h-1.19115z" fill="url(#b)" stroke-width="3.38852"/></g><g transform="translate(-128.91644 46.972448)"><path d="m167.27172 18.236493-.61546 11.642701c.34666-.36084.65757-.776238.92604-1.228866.80698-1.342886 1.29348-3.03133 1.4118-4.908228l.00207-.052709v-5.452898z" fill="#58555d"/><path d="m167.18232 19.930964-.32763 6.19342c.23387-.750737.39155-1.592702.44804-2.488737v-3.704683z" fill="url(#b)" stroke-width="3.38852"/></g><g transform="translate(-119.94766 46.971527)"><path d="m158.33398 18.236328v1.695313 3.757812l.002.05273c.11831 1.876899.60513 3.565317 1.41211 4.908204.90245 1.5215 2.27996 2.626953 3.91797 2.626953 1.638 0 3.01355-1.105465 3.91601-2.626953.80698-1.342887 1.29379-3.031305 1.41211-4.908204l.002-.05273v-5.453125h-5.33007z" fill="#58555d"/><path d="m160.02776 19.93072v3.704683c.10339 1.640116.54482 3.10127 1.1746 4.147551.71438 1.206521 1.59812 1.79989 2.4629 1.79989s1.74851-.593369 2.4629-1.79989c.62978-1.046281 1.07121-2.507435 1.1746-4.147551v-3.704683h-3.6375z" fill="url(#b)" stroke-width="3.38852"/></g><g transform="translate(-110.97888 46.971527)"><path d="m158.33398 18.236328v1.695313 3.757812l.002.05273c.11831 1.876899.60513 3.565317 1.41211 4.908204.90245 1.5215 2.27996 2.626953 3.91797 2.626953 1.638 0 3.01355-1.105465 3.91601-2.626953.80698-1.342887 1.29379-3.031305 1.41211-4.908204l.002-.05273v-5.453125h-5.33007z" fill="#58555d"/><path d="m160.02776 19.93072v3.704683c.10339 1.640116.54482 3.10127 1.1746 4.147551.71438 1.206521 1.59812 1.79989 2.4629 1.79989s1.74851-.593369 2.4629-1.79989c.62978-1.046281 1.07121-2.507435 1.1746-4.147551v-3.704683h-3.6375z" fill="url(#b)" stroke-width="3.38852"/></g><g transform="translate(-102.0101 46.971527)"><path d="m158.33398 18.236328v1.695313 3.757812l.002.05273c.11831 1.876899.60513 3.565317 1.41211 4.908204.90245 1.5215 2.27996 2.626953 3.91797 2.626953 1.638 0 3.01355-1.105465 3.91601-2.626953.80698-1.342887 1.29379-3.031305 1.41211-4.908204l.002-.05273v-5.453125h-5.33007z" fill="#58555d"/><path d="m160.02776 19.93072v3.704683c.10339 1.640116.54482 3.10127 1.1746 4.147551.71438 1.206521 1.59812 1.79989 2.4629 1.79989s1.74851-.593369 2.4629-1.79989c.62978-1.046281 1.07121-2.507435 1.1746-4.147551v-3.704683h-3.6375z" fill="url(#b)" stroke-width="3.38852"/></g><g transform="translate(-93.041319 46.971527)"><path d="m158.33398 18.236328v1.695313 3.757812l.002.05273c.11831 1.876899.60513 3.565317 1.41211 4.908204.90245 1.5215 2.27996 2.626953 3.91797 2.626953 1.638 0 3.01355-1.105465 3.91601-2.626953.80698-1.342887 1.29379-3.031305 1.41211-4.908204l.002-.05273v-5.453125h-5.33007z" fill="#58555d"/><path d="m160.02776 19.93072v3.704683c.10339 1.640116.54482 3.10127 1.1746 4.147551.71438 1.206521 1.59812 1.79989 2.4629 1.79989s1.74851-.593369 2.4629-1.79989c.62978-1.046281 1.07121-2.507435 1.1746-4.147551v-3.704683h-3.6375z" fill="url(#b)" stroke-width="3.38852"/></g><g transform="translate(-84.07254 46.971527)"><path d="m158.33398 18.236328v1.695313 3.757812l.002.05273c.11831 1.876899.60513 3.565317 1.41211 4.908204.90245 1.5215 2.27996 2.626953 3.91797 2.626953 1.638 0 3.01355-1.105465 3.91601-2.626953.80698-1.342887 1.29379-3.031305 1.41211-4.908204l.002-.05273v-5.453125h-5.33007z" fill="#58555d"/><path d="m160.02776 19.93072v3.704683c.10339 1.640116.54482 3.10127 1.1746 4.147551.71438 1.206521 1.59812 1.79989 2.4629 1.79989s1.74851-.593369 2.4629-1.79989c.62978-1.046281 1.07121-2.507435 1.1746-4.147551v-3.704683h-3.6375z" fill="url(#b)" stroke-width="3.38852"/></g><g transform="translate(-75.10376 46.971527)"><path d="m158.33398 18.236328v1.695313 3.757812l.002.05273c.11831 1.876899.60513 3.565317 1.41211 4.908204.90245 1.5215 2.27996 2.626953 3.91797 2.626953 1.638 0 3.01355-1.105465 3.91601-2.626953.80698-1.342887 1.29379-3.031305 1.41211-4.908204l.002-.05273v-5.453125h-5.33007z" fill="#58555d"/><path d="m160.02776 19.93072v3.704683c.10339 1.640116.54482 3.10127 1.1746 4.147551.71438 1.206521 1.59812 1.79989 2.4629 1.79989s1.74851-.593369 2.4629-1.79989c.62978-1.046281 1.07121-2.507435 1.1746-4.147551v-3.704683h-3.6375z" fill="url(#b)" stroke-width="3.38852"/></g><g transform="translate(-66.13498 46.971527)"><path d="m158.33401 18.236381v1.695504 3.757393l.002.05271c.11831 1.876897.60482 3.565342 1.4118 4.908228.23666.398999.50647.769297.80461 1.098641l.55177-1.430708-.68077-10.081768z" fill="#58555d"/><path d="m160.02796 19.930851v3.704684c.04419.700941.15045 1.368773.30644 1.985925l-.30076-5.690609z" fill="url(#b)" stroke-width="3.38852"/></g><g transform="translate(-124.42558 40.451021)"><path d="m162.36383 18.086431-.78134 11.656139.86506 1.322976c.38623.136835.79347.211873 1.21853.211873 1.638 0 3.01358-1.105743 3.91604-2.62723.80698-1.342885 1.294-3.03133 1.41232-4.908227l.002-.05271v-5.452898h-5.32991z" fill="#58555d"/><path d="m163.03614 19.930825-.49247 9.314677c.36711.225213.74601.337447 1.12138.337447.86478 0 1.74851-.593371 2.4629-1.79989.62977-1.04628 1.07121-2.507437 1.1746-4.147551v-3.704683h-3.6375z" fill="url(#b)" stroke-width="3.38852"/></g><g transform="translate(-115.4568 40.451021)"><path d="m158.33398 18.236328v1.695313 3.757812l.002.05273c.11831 1.876899.60513 3.565317 1.41211 4.908204.90245 1.5215 2.27996 2.626953 3.91797 2.626953 1.638 0 3.01355-1.105465 3.91601-2.626953.80698-1.342887 1.29379-3.031305 1.41211-4.908204l.002-.05273v-5.453125h-5.33007z" fill="#58555d"/><path d="m160.02776 19.93072v3.704683c.10339 1.640116.54482 3.10127 1.1746 4.147551.71438 1.206521 1.59812 1.79989 2.4629 1.79989s1.74851-.593369 2.4629-1.79989c.62978-1.046281 1.07121-2.507435 1.1746-4.147551v-3.704683h-3.6375z" fill="url(#b)" stroke-width="3.38852"/></g><g transform="translate(-106.48802 40.451021)"><path d="m158.33398 18.236328v1.695313 3.757812l.002.05273c.11831 1.876899.60513 3.565317 1.41211 4.908204.90245 1.5215 2.27996 2.626953 3.91797 2.626953 1.638 0 3.01355-1.105465 3.91601-2.626953.80698-1.342887 1.29379-3.031305 1.41211-4.908204l.002-.05273v-5.453125h-5.33007z" fill="#58555d"/><path d="m160.02776 19.93072v3.704683c.10339 1.640116.54482 3.10127 1.1746 4.147551.71438 1.206521 1.59812 1.79989 2.4629 1.79989s1.74851-.593369 2.4629-1.79989c.62978-1.046281 1.07121-2.507435 1.1746-4.147551v-3.704683h-3.6375z" fill="url(#b)" stroke-width="3.38852"/></g><g transform="translate(-97.519243 40.451021)"><path d="m158.33398 18.236328v1.695313 3.757812l.002.05273c.11831 1.876899.60513 3.565317 1.41211 4.908204.90245 1.5215 2.27996 2.626953 3.91797 2.626953 1.638 0 3.01355-1.105465 3.91601-2.626953.80698-1.342887 1.29379-3.031305 1.41211-4.908204l.002-.05273v-5.453125h-5.33007z" fill="#58555d"/><path d="m160.02776 19.93072v3.704683c.10339 1.640116.54482 3.10127 1.1746 4.147551.71438 1.206521 1.59812 1.79989 2.4629 1.79989s1.74851-.593369 2.4629-1.79989c.62978-1.046281 1.07121-2.507435 1.1746-4.147551v-3.704683h-3.6375z" fill="url(#b)" stroke-width="3.38852"/></g><g transform="translate(-88.55046 40.451021)"><path d="m158.33398 18.236328v1.695313 3.757812l.002.05273c.11831 1.876899.60513 3.565317 1.41211 4.908204.90245 1.5215 2.27996 2.626953 3.91797 2.626953 1.638 0 3.01355-1.105465 3.91601-2.626953.80698-1.342887 1.29379-3.031305 1.41211-4.908204l.002-.05273v-5.453125h-5.33007z" fill="#58555d"/><path d="m160.02776 19.93072v3.704683c.10339 1.640116.54482 3.10127 1.1746 4.147551.71438 1.206521 1.59812 1.79989 2.4629 1.79989s1.74851-.593369 2.4629-1.79989c.62978-1.046281 1.07121-2.507435 1.1746-4.147551v-3.704683h-3.6375z" fill="url(#b)" stroke-width="3.38852"/></g><g transform="translate(-79.58168 40.451021)"><path d="m158.33398 18.236328v1.695313 3.757812l.002.05273c.11831 1.876899.60513 3.565317 1.41211 4.908204.90245 1.5215 2.27996 2.626953 3.91797 2.626953 1.638 0 3.01355-1.105465 3.91601-2.626953.80698-1.342887 1.29379-3.031305 1.41211-4.908204l.002-.05273v-5.453125h-5.33007z" fill="#58555d"/><path d="m160.02776 19.93072v3.704683c.10339 1.640116.54482 3.10127 1.1746 4.147551.71438 1.206521 1.59812 1.79989 2.4629 1.79989s1.74851-.593369 2.4629-1.79989c.62978-1.046281 1.07121-2.507435 1.1746-4.147551v-3.704683h-3.6375z" fill="url(#b)" stroke-width="3.38852"/></g><g transform="translate(-70.6129 40.451021)"><path d="m158.33416 18.236354v1.695504 3.757394l.002.05271c.11831 1.876897.60482 3.565342 1.4118 4.908227.90245 1.521499 2.2801 2.62723 3.91811 2.62723.37876 0 .74331-.0598 1.0914-.169499l.51565-.844173-1.03956-12.027393h-.56749z" fill="#58555d"/><path d="m160.0276 19.930825v3.704683c.10339 1.640114.54483 3.101271 1.1746 4.147551.71438 1.206519 1.59812 1.79989 2.4629 1.79989.33335 0 .66968-.088668.99788-.266134l-.4961-9.38599h-.50178z" fill="url(#b)" stroke-width="3.38852"/></g><g transform="translate(-119.94766 33.930515)"><path d="m158.33398 18.236328v1.695313 3.757812l.002.05273c.11831 1.876899.60513 3.565317 1.41211 4.908204.90245 1.5215 2.27996 2.626953 3.91797 2.626953 1.638 0 3.01355-1.105465 3.91601-2.626953.80698-1.342887 1.29379-3.031305 1.41211-4.908204l.002-.05273v-5.453125h-5.33007z" fill="#58555d"/><path d="m160.02776 19.93072v3.704683c.10339 1.640116.54482 3.10127 1.1746 4.147551.71438 1.206521 1.59812 1.79989 2.4629 1.79989s1.74851-.593369 2.4629-1.79989c.62978-1.046281 1.07121-2.507435 1.1746-4.147551v-3.704683h-3.6375z" fill="url(#b)" stroke-width="3.38852"/></g><g transform="translate(-110.97888 33.930515)"><path d="m158.33398 18.236328v1.695313 3.757812l.002.05273c.11831 1.876899.60513 3.565317 1.41211 4.908204.90245 1.5215 2.27996 2.626953 3.91797 2.626953 1.638 0 3.01355-1.105465 3.91601-2.626953.80698-1.342887 1.29379-3.031305 1.41211-4.908204l.002-.05273v-5.453125h-5.33007z" fill="#58555d"/><path d="m160.02776 19.93072v3.704683c.10339 1.640116.54482 3.10127 1.1746 4.147551.71438 1.206521 1.59812 1.79989 2.4629 1.79989s1.74851-.593369 2.4629-1.79989c.62978-1.046281 1.07121-2.507435 1.1746-4.147551v-3.704683h-3.6375z" fill="url(#b)" stroke-width="3.38852"/></g><g transform="translate(-102.0101 33.930515)"><path d="m158.33398 18.236328v1.695313 3.757812l.002.05273c.11831 1.876899.60513 3.565317 1.41211 4.908204.90245 1.5215 2.27996 2.626953 3.91797 2.626953 1.638 0 3.01355-1.105465 3.91601-2.626953.80698-1.342887 1.29379-3.031305 1.41211-4.908204l.002-.05273v-5.453125h-5.33007z" fill="#58555d"/><path d="m160.02776 19.93072v3.704683c.10339 1.640116.54482 3.10127 1.1746 4.147551.71438 1.206521 1.59812 1.79989 2.4629 1.79989s1.74851-.593369 2.4629-1.79989c.62978-1.046281 1.07121-2.507435 1.1746-4.147551v-3.704683h-3.6375z" fill="url(#b)" stroke-width="3.38852"/></g><g transform="translate(-93.041319 33.930515)"><path d="m158.33398 18.236328v1.695313 3.757812l.002.05273c.11831 1.876899.60513 3.565317 1.41211 4.908204.90245 1.5215 2.27996 2.626953 3.91797 2.626953 1.638 0 3.01355-1.105465 3.91601-2.626953.80698-1.342887 1.29379-3.031305 1.41211-4.908204l.002-.05273v-5.453125h-5.33007z" fill="#58555d"/><path d="m160.02776 19.93072v3.704683c.10339 1.640116.54482 3.10127 1.1746 4.147551.71438 1.206521 1.59812 1.79989 2.4629 1.79989s1.74851-.593369 2.4629-1.79989c.62978-1.046281 1.07121-2.507435 1.1746-4.147551v-3.704683h-3.6375z" fill="url(#b)" stroke-width="3.38852"/></g><g transform="translate(-84.07254 33.930515)"><path d="m158.33398 18.236328v1.695313 3.757812l.002.05273c.11831 1.876899.60513 3.565317 1.41211 4.908204.90245 1.5215 2.27996 2.626953 3.91797 2.626953 1.638 0 3.01355-1.105465 3.91601-2.626953.80698-1.342887 1.29379-3.031305 1.41211-4.908204l.002-.05273v-5.453125h-5.33007z" fill="#58555d"/><path d="m160.02776 19.93072v3.704683c.10339 1.640116.54482 3.10127 1.1746 4.147551.71438 1.206521 1.59812 1.79989 2.4629 1.79989s1.74851-.593369 2.4629-1.79989c.62978-1.046281 1.07121-2.507435 1.1746-4.147551v-3.704683h-3.6375z" fill="url(#b)" stroke-width="3.38852"/></g><g transform="translate(-75.10376 33.930515)"><path d="m158.33398 18.236328v1.695313 3.757812l.002.05273c.11831 1.876899.60513 3.565317 1.41211 4.908204.90245 1.5215 2.27996 2.626953 3.91797 2.626953 1.638 0 3.01355-1.105465 3.91601-2.626953.80698-1.342887 1.29379-3.031305 1.41211-4.908204l.002-.05273v-5.453125h-5.33007z" fill="#58555d"/><path d="m160.02776 19.93072v3.704683c.10339 1.640116.54482 3.10127 1.1746 4.147551.71438 1.206521 1.59812 1.79989 2.4629 1.79989s1.74851-.593369 2.4629-1.79989c.62978-1.046281 1.07121-2.507435 1.1746-4.147551v-3.704683h-3.6375z" fill="url(#b)" stroke-width="3.38852"/></g><g transform="matrix(.93254388 .36105667 -.36105667 .93254388 -102.736329 -29.57124)"><path d="m158.33398 18.236328v1.695313 3.757812l.002.05273c.11831 1.876899.60513 3.565317 1.41211 4.908204.90245 1.5215 2.27996 2.626953 3.91797 2.626953 1.638 0 3.01355-1.105465 3.91601-2.626953.80698-1.342887 1.29379-3.031305 1.41211-4.908204l.002-.05273v-5.453125h-5.33007z" fill="#58555d"/><path d="m160.02776 19.93072v3.704683c.10339 1.640116.54482 3.10127 1.1746 4.147551.71438 1.206521 1.59812 1.79989 2.4629 1.79989s1.74851-.593369 2.4629-1.79989c.62978-1.046281 1.07121-2.507435 1.1746-4.147551v-3.704683h-3.6375z" fill="url(#b)" stroke-width="3.38852"/></g><g transform="translate(-115.4568 27.410009)"><path d="m158.33398 18.236328v1.695313 3.757812l.002.05273c.11831 1.876899.60513 3.565317 1.41211 4.908204.90245 1.5215 2.27996 2.626953 3.91797 2.626953 1.638 0 3.01355-1.105465 3.91601-2.626953.80698-1.342887 1.29379-3.031305 1.41211-4.908204l.002-.05273v-5.453125h-5.33007z" fill="#58555d"/><path d="m160.02776 19.93072v3.704683c.10339 1.640116.54482 3.10127 1.1746 4.147551.71438 1.206521 1.59812 1.79989 2.4629 1.79989s1.74851-.593369 2.4629-1.79989c.62978-1.046281 1.07121-2.507435 1.1746-4.147551v-3.704683h-3.6375z" fill="url(#b)" stroke-width="3.38852"/></g><g transform="translate(-106.48802 27.410009)"><path d="m158.33398 18.236328v1.695313 3.757812l.002.05273c.11831 1.876899.60513 3.565317 1.41211 4.908204.90245 1.5215 2.27996 2.626953 3.91797 2.626953 1.638 0 3.01355-1.105465 3.91601-2.626953.80698-1.342887 1.29379-3.031305 1.41211-4.908204l.002-.05273v-5.453125h-5.33007z" fill="#58555d"/><path d="m160.02776 19.93072v3.704683c.10339 1.640116.54482 3.10127 1.1746 4.147551.71438 1.206521 1.59812 1.79989 2.4629 1.79989s1.74851-.593369 2.4629-1.79989c.62978-1.046281 1.07121-2.507435 1.1746-4.147551v-3.704683h-3.6375z" fill="url(#b)" stroke-width="3.38852"/></g><g transform="translate(-97.519243 27.410009)"><path d="m158.33398 18.236328v1.695313 3.757812l.002.05273c.11831 1.876899.60513 3.565317 1.41211 4.908204.90245 1.5215 2.27996 2.626953 3.91797 2.626953 1.638 0 3.01355-1.105465 3.91601-2.626953.80698-1.342887 1.29379-3.031305 1.41211-4.908204l.002-.05273v-5.453125h-5.33007z" fill="#58555d"/><path d="m160.02776 19.93072v3.704683c.10339 1.640116.54482 3.10127 1.1746 4.147551.71438 1.206521 1.59812 1.79989 2.4629 1.79989s1.74851-.593369 2.4629-1.79989c.62978-1.046281 1.07121-2.507435 1.1746-4.147551v-3.704683h-3.6375z" fill="url(#b)" stroke-width="3.38852"/></g><g transform="translate(-88.55046 27.410009)"><path d="m158.33398 18.236328v1.695313 3.757812l.002.05273c.11831 1.876899.60513 3.565317 1.41211 4.908204.90245 1.5215 2.27996 2.626953 3.91797 2.626953 1.638 0 3.01355-1.105465 3.91601-2.626953.80698-1.342887 1.29379-3.031305 1.41211-4.908204l.002-.05273v-5.453125h-5.33007z" fill="#58555d"/><path d="m160.02776 19.93072v3.704683c.10339 1.640116.54482 3.10127 1.1746 4.147551.71438 1.206521 1.59812 1.79989 2.4629 1.79989s1.74851-.593369 2.4629-1.79989c.62978-1.046281 1.07121-2.507435 1.1746-4.147551v-3.704683h-3.6375z" fill="url(#b)" stroke-width="3.38852"/></g><g transform="matrix(.95875807 -.28422345 .28422345 .95875807 -72.250206 75.237645)"><path d="m165.49005 18.236328h-1.82394-5.33213v1.695313 3.757812l.002.05273c.11831 1.876897.60513 3.565318 1.41211 4.908204.90245 1.521498 2.27996 2.626953 3.91797 2.626953 1.638 0 3.01355-1.105467 3.91601-2.626953.80698-1.342886 1.29379-3.031307 1.41211-4.908204l.002-.05273v-2.174875" fill="#58555d"/><path d="m160.02776 19.93072v3.704683c.10339 1.640116.54482 3.10127 1.1746 4.147551.71438 1.206521 1.59812 1.79989 2.4629 1.79989s1.74851-.593369 2.4629-1.79989c.62978-1.046281 1.07121-2.507435 1.1746-4.147551 0 0-.24421-2.579805-.17535-3.868938.0294-.550739.25055-1.635491.25055-1.635491l-3.71272 1.799746z" fill="url(#b)" stroke-width="3.38852"/></g><g transform="translate(-79.58168 27.410009)"><path d="m158.33398 18.236328v1.695313 3.757812l.002.05273c.11831 1.876899.60513 3.565317 1.41211 4.908204.90245 1.5215 2.27996 2.626953 3.91797 2.626953 1.638 0 3.01355-1.105465 3.91601-2.626953.80698-1.342887 1.29379-3.031305 1.41211-4.908204l.002-.05273v-5.453125h-5.33007z" fill="#58555d"/><path d="m160.02776 19.93072v3.704683c.10339 1.640116.54482 3.10127 1.1746 4.147551.71438 1.206521 1.59812 1.79989 2.4629 1.79989s1.74851-.593369 2.4629-1.79989c.62978-1.046281 1.07121-2.507435 1.1746-4.147551v-3.704683h-3.6375z" fill="url(#b)" stroke-width="3.38852"/></g><g transform="translate(-119.94766 20.889503)"><path d="m158.33398 18.236328v1.695313 3.757812l.002.05273c.11831 1.876899.60513 3.565317 1.41211 4.908204.90245 1.5215 2.27996 2.626953 3.91797 2.626953 1.638 0 3.01355-1.105465 3.91601-2.626953.80698-1.342887 1.29379-3.031305 1.41211-4.908204l.002-.05273v-5.453125h-5.33007z" fill="#58555d"/><path d="m160.02776 19.93072v3.704683c.10339 1.640116.54482 3.10127 1.1746 4.147551.71438 1.206521 1.59812 1.79989 2.4629 1.79989s1.74851-.593369 2.4629-1.79989c.62978-1.046281 1.07121-2.507435 1.1746-4.147551v-3.704683h-3.6375z" fill="url(#b)" stroke-width="3.38852"/></g><g transform="translate(-110.97888 20.889503)"><path d="m158.33398 18.236328v1.695313 3.757812l.002.05273c.11831 1.876899.60513 3.565317 1.41211 4.908204.90245 1.5215 2.27996 2.626953 3.91797 2.626953 1.638 0 3.01355-1.105465 3.91601-2.626953.80698-1.342887 1.29379-3.031305 1.41211-4.908204l.002-.05273v-5.453125h-5.33007z" fill="#58555d"/><path d="m160.02776 19.93072v3.704683c.10339 1.640116.54482 3.10127 1.1746 4.147551.71438 1.206521 1.59812 1.79989 2.4629 1.79989s1.74851-.593369 2.4629-1.79989c.62978-1.046281 1.07121-2.507435 1.1746-4.147551v-3.704683h-3.6375z" fill="url(#b)" stroke-width="3.38852"/></g><g transform="translate(-102.0101 20.889503)"><path d="m158.33398 18.236328v1.695313 3.757812l.002.05273c.11831 1.876899.60513 3.565317 1.41211 4.908204.90245 1.5215 2.27996 2.626953 3.91797 2.626953 1.638 0 3.01355-1.105465 3.91601-2.626953.80698-1.342887 1.29379-3.031305 1.41211-4.908204l.002-.05273v-5.453125h-5.33007z" fill="#58555d"/><path d="m160.02776 19.93072v3.704683c.10339 1.640116.54482 3.10127 1.1746 4.147551.71438 1.206521 1.59812 1.79989 2.4629 1.79989s1.74851-.593369 2.4629-1.79989c.62978-1.046281 1.07121-2.507435 1.1746-4.147551v-3.704683h-3.6375z" fill="url(#b)" stroke-width="3.38852"/></g><g transform="translate(-93.041319 20.889503)"><path d="m158.33398 18.236328v1.695313 3.757812l.002.05273c.11831 1.876899.60513 3.565317 1.41211 4.908204.90245 1.5215 2.27996 2.626953 3.91797 2.626953 1.638 0 3.01355-1.105465 3.91601-2.626953.80698-1.342887 1.29379-3.031305 1.41211-4.908204l.002-.05273v-5.453125h-5.33007z" fill="#58555d"/><path d="m160.02776 19.93072v3.704683c.10339 1.640116.54482 3.10127 1.1746 4.147551.71438 1.206521 1.59812 1.79989 2.4629 1.79989s1.74851-.593369 2.4629-1.79989c.62978-1.046281 1.07121-2.507435 1.1746-4.147551v-3.704683h-3.6375z" fill="url(#b)" stroke-width="3.38852"/></g><g transform="translate(-84.07254 20.889503)"><path d="m158.33398 18.236328v1.695313 3.757812l.002.05273c.11831 1.876899.60513 3.565317 1.41211 4.908204.90245 1.5215 2.27996 2.626953 3.91797 2.626953 1.638 0 3.01355-1.105465 3.91601-2.626953.80698-1.342887 1.29379-3.031305 1.41211-4.908204l.002-.05273v-5.453125h-5.33007z" fill="#58555d"/><path d="m160.02776 19.93072v3.704683c.10339 1.640116.54482 3.10127 1.1746 4.147551.71438 1.206521 1.59812 1.79989 2.4629 1.79989s1.74851-.593369 2.4629-1.79989c.62978-1.046281 1.07121-2.507435 1.1746-4.147551v-3.704683h-3.6375z" fill="url(#b)" stroke-width="3.38852"/></g><g transform="translate(-75.10376 20.889503)"><path d="m158.33398 18.236328v1.695313 3.757812l.002.05273c.11831 1.876899.60513 3.565317 1.41211 4.908204.90245 1.5215 2.27996 2.626953 3.91797 2.626953 1.638 0 3.01355-1.105465 3.91601-2.626953.80698-1.342887 1.29379-3.031305 1.41211-4.908204l.002-.05273v-5.453125h-5.33007z" fill="#58555d"/><path d="m160.02776 19.93072v3.704683c.10339 1.640116.54482 3.10127 1.1746 4.147551.71438 1.206521 1.59812 1.79989 2.4629 1.79989s1.74851-.593369 2.4629-1.79989c.62978-1.046281 1.07121-2.507435 1.1746-4.147551v-3.704683h-3.6375z" fill="url(#b)" stroke-width="3.38852"/></g><g transform="matrix(.93366143 .35815687 -.35815687 .93366143 -102.972964 -43.565633)"><path d="m158.33398 18.236328v1.695313 3.757812l.002.05273c.11831 1.876899.60513 3.565317 1.41211 4.908204.90245 1.5215 2.27996 2.626953 3.91797 2.626953 1.638 0 3.01355-1.105465 3.91601-2.626953.80698-1.342887 1.29379-3.031305 1.41211-4.908204l.002-.05273v-5.453125h-5.33007z" fill="#58555d"/><path d="m160.02776 19.93072v3.704683c.10339 1.640116.54482 3.10127 1.1746 4.147551.71438 1.206521 1.59812 1.79989 2.4629 1.79989s1.74851-.593369 2.4629-1.79989c.62978-1.046281 1.07121-2.507435 1.1746-4.147551v-3.704683h-3.6375z" fill="url(#b)" stroke-width="3.38852"/></g><g transform="translate(-115.4568 13.08972)"><path d="m158.33398 18.236328v1.695313 3.757812l.002.05273c.11831 1.876899.60513 3.565317 1.41211 4.908204.90245 1.5215 2.27996 2.626953 3.91797 2.626953 1.638 0 3.01355-1.105465 3.91601-2.626953.80698-1.342887 1.29379-3.031305 1.41211-4.908204l.002-.05273v-5.453125h-5.33007z" fill="#58555d"/><path d="m160.02776 19.93072v3.704683c.10339 1.640116.54482 3.10127 1.1746 4.147551.71438 1.206521 1.59812 1.79989 2.4629 1.79989s1.74851-.593369 2.4629-1.79989c.62978-1.046281 1.07121-2.507435 1.1746-4.147551v-3.704683h-3.6375z" fill="url(#b)" stroke-width="3.38852"/></g><g transform="translate(-106.48802 13.08972)"><path d="m158.33398 18.236328v1.695313 3.757812l.002.05273c.11831 1.876899.60513 3.565317 1.41211 4.908204.90245 1.5215 2.27996 2.626953 3.91797 2.626953 1.638 0 3.01355-1.105465 3.91601-2.626953.80698-1.342887 1.29379-3.031305 1.41211-4.908204l.002-.05273v-5.453125h-5.33007z" fill="#58555d"/><path d="m160.02776 19.93072v3.704683c.10339 1.640116.54482 3.10127 1.1746 4.147551.71438 1.206521 1.59812 1.79989 2.4629 1.79989s1.74851-.593369 2.4629-1.79989c.62978-1.046281 1.07121-2.507435 1.1746-4.147551v-3.704683h-3.6375z" fill="url(#b)" stroke-width="3.38852"/></g><g transform="translate(-97.519243 13.08972)"><path d="m158.33398 18.236328v1.695313 3.757812l.002.05273c.11831 1.876899.60513 3.565317 1.41211 4.908204.90245 1.5215 2.27996 2.626953 3.91797 2.626953 1.638 0 3.01355-1.105465 3.91601-2.626953.80698-1.342887 1.29379-3.031305 1.41211-4.908204l.002-.05273v-5.453125h-5.33007z" fill="#58555d"/><path d="m160.02776 19.93072v3.704683c.10339 1.640116.54482 3.10127 1.1746 4.147551.71438 1.206521 1.59812 1.79989 2.4629 1.79989s1.74851-.593369 2.4629-1.79989c.62978-1.046281 1.07121-2.507435 1.1746-4.147551v-3.704683h-3.6375z" fill="url(#b)" stroke-width="3.38852"/></g><g transform="translate(-88.55046 13.08972)"><path d="m158.33398 18.236328v1.695313 3.757812l.002.05273c.11831 1.876899.60513 3.565317 1.41211 4.908204.90245 1.5215 2.27996 2.626953 3.91797 2.626953 1.638 0 3.01355-1.105465 3.91601-2.626953.80698-1.342887 1.29379-3.031305 1.41211-4.908204l.002-.05273v-5.453125h-5.33007z" fill="#58555d"/><path d="m160.02776 19.93072v3.704683c.10339 1.640116.54482 3.10127 1.1746 4.147551.71438 1.206521 1.59812 1.79989 2.4629 1.79989s1.74851-.593369 2.4629-1.79989c.62978-1.046281 1.07121-2.507435 1.1746-4.147551v-3.704683h-3.6375z" fill="url(#b)" stroke-width="3.38852"/></g><g transform="translate(-79.58168 13.08972)"><path d="m158.33398 18.236328v1.695313 3.757812l.002.05273c.11831 1.876899.60513 3.565317 1.41211 4.908204.90245 1.5215 2.27996 2.626953 3.91797 2.626953 1.638 0 3.01355-1.105465 3.91601-2.626953.80698-1.342887 1.29379-3.031305 1.41211-4.908204l.002-.05273v-5.453125h-5.33007z" fill="#58555d"/><path d="m160.02776 19.93072v3.704683c.10339 1.640116.54482 3.10127 1.1746 4.147551.71438 1.206521 1.59812 1.79989 2.4629 1.79989s1.74851-.593369 2.4629-1.79989c.62978-1.046281 1.07121-2.507435 1.1746-4.147551v-3.704683h-3.6375z" fill="url(#b)" stroke-width="3.38852"/></g><g transform="matrix(.90628985 -.42265673 .42265673 .90628985 -66.322513 84.361583)"><path d="m158.33398 18.236328v1.695313 3.757812l.002.05273c.11831 1.876899.60513 3.565317 1.41211 4.908204.90245 1.5215 2.27996 2.626953 3.91797 2.626953 1.638 0 3.01355-1.105465 3.91601-2.626953.80698-1.342887 1.29379-3.031305 1.41211-4.908204l.002-.05273v-5.453125h-5.33007z" fill="#58555d"/><path d="m160.02776 19.93072v3.704683c.10339 1.640116.54482 3.10127 1.1746 4.147551.71438 1.206521 1.59812 1.79989 2.4629 1.79989s1.74851-.593369 2.4629-1.79989c.62978-1.046281 1.07121-2.507435 1.1746-4.147551v-3.704683h-3.6375z" fill="url(#b)" stroke-width="3.38852"/></g><g transform="translate(-119.94766 6.569214)"><path d="m158.33398 18.236328v1.695313 3.757812l.002.05273c.11831 1.876899.60513 3.565317 1.41211 4.908204.90245 1.5215 2.27996 2.626953 3.91797 2.626953 1.638 0 3.01355-1.105465 3.91601-2.626953.80698-1.342887 1.29379-3.031305 1.41211-4.908204l.002-.05273v-5.453125h-5.33007z" fill="#58555d"/><path d="m160.02776 19.93072v3.704683c.10339 1.640116.54482 3.10127 1.1746 4.147551.71438 1.206521 1.59812 1.79989 2.4629 1.79989s1.74851-.593369 2.4629-1.79989c.62978-1.046281 1.07121-2.507435 1.1746-4.147551v-3.704683h-3.6375z" fill="url(#b)" stroke-width="3.38852"/></g><g transform="translate(-110.97888 6.569214)"><path d="m158.33398 18.236328v1.695313 3.757812l.002.05273c.11831 1.876899.60513 3.565317 1.41211 4.908204.90245 1.5215 2.27996 2.626953 3.91797 2.626953 1.638 0 3.01355-1.105465 3.91601-2.626953.80698-1.342887 1.29379-3.031305 1.41211-4.908204l.002-.05273v-5.453125h-5.33007z" fill="#58555d"/><path d="m160.02776 19.93072v3.704683c.10339 1.640116.54482 3.10127 1.1746 4.147551.71438 1.206521 1.59812 1.79989 2.4629 1.79989s1.74851-.593369 2.4629-1.79989c.62978-1.046281 1.07121-2.507435 1.1746-4.147551v-3.704683h-3.6375z" fill="url(#b)" stroke-width="3.38852"/></g><g transform="translate(-102.0101 6.569214)"><path d="m158.33398 18.236328v1.695313 3.757812l.002.05273c.11831 1.876899.60513 3.565317 1.41211 4.908204.90245 1.5215 2.27996 2.626953 3.91797 2.626953 1.638 0 3.01355-1.105465 3.91601-2.626953.80698-1.342887 1.29379-3.031305 1.41211-4.908204z" fill="#58555d"/><path d="m160.02776 19.93072v3.704683c.10339 1.640116.54482 3.10127 1.1746 4.147551.71438 1.206521 1.59812 1.79989 2.4629 1.79989s1.74851-.593369 2.4629-1.79989c.62978-1.046281 1.07121-2.507435 1.1746-4.147551v-3.704683h-3.6375z" fill="url(#b)" stroke-width="3.38852"/></g><g transform="translate(-93.041319 6.569214)"><path d="m158.33398 19.931641v3.757812l.002.05273c.11831 1.876899.60513 3.565317 1.41211 4.908204.90245 1.5215 2.27996 2.626953 3.91797 2.626953 1.638 0 3.01355-1.105465 3.91601-2.626953.80698-1.342887 1.29379-3.031305 1.41211-4.908204l.002-.05273v-5.453125c-2.93225.871134-4.52198 2.402993-10.6622 1.695313z" fill="#58555d"/><path d="m160.02776 19.93072v3.704683c.10339 1.640116.54482 3.10127 1.1746 4.147551.71438 1.206521 1.59812 1.79989 2.4629 1.79989s1.74851-.593369 2.4629-1.79989c.62978-1.046281 1.07121-2.507435 1.1746-4.147551v-3.704683h-3.6375z" fill="url(#b)" stroke-width="3.38852"/></g><g transform="translate(-84.07254 6.569214)"><path d="m158.33398 18.236328v1.695313 3.757812l.002.05273c.11831 1.876899.60513 3.565317 1.41211 4.908204.90245 1.5215 2.27996 2.626953 3.91797 2.626953 1.638 0 3.01355-1.105465 3.91601-2.626953.80698-1.342887 1.29379-3.031305 1.41211-4.908204l.002-.05273v-5.453125h-5.33007z" fill="#58555d"/><path d="m160.02776 19.93072v3.704683c.10339 1.640116.54482 3.10127 1.1746 4.147551.71438 1.206521 1.59812 1.79989 2.4629 1.79989s1.74851-.593369 2.4629-1.79989c.62978-1.046281 1.07121-2.507435 1.1746-4.147551v-3.704683h-3.6375z" fill="url(#b)" stroke-width="3.38852"/></g><g transform="translate(-75.10376 6.569214)"><path d="m158.33398 18.236328v1.695313 3.757812l.002.05273c.11831 1.876899.60513 3.565317 1.41211 4.908204.90245 1.5215 2.27996 2.626953 3.91797 2.626953 1.638 0 3.01355-1.105465 3.91601-2.626953.80698-1.342887 1.29379-3.031305 1.41211-4.908204l.002-.05273v-5.453125h-5.33007z" fill="#58555d"/><path d="m160.02776 19.93072v3.704683c.10339 1.640116.54482 3.10127 1.1746 4.147551.71438 1.206521 1.59812 1.79989 2.4629 1.79989s1.74851-.593369 2.4629-1.79989c.62978-1.046281 1.07121-2.507435 1.1746-4.147551v-3.704683h-3.6375z" fill="url(#b)" stroke-width="3.38852"/></g><g transform="matrix(.90567364 .42397553 -.42397553 .90567364 -96.445238 -67.618297)"><path d="m158.33398 18.236328v1.695313 3.757812l.002.05273c.11831 1.876899.60513 3.565317 1.41211 4.908204.90245 1.5215 2.27996 2.626953 3.91797 2.626953 1.638 0 3.01355-1.105465 3.91601-2.626953.80698-1.342887 1.29379-3.031305 1.41211-4.908204l.002-.05273v-5.453125h-5.33007z" fill="#58555d"/><path d="m160.02776 19.93072v3.704683c.10339 1.640116.54482 3.10127 1.1746 4.147551.71438 1.206521 1.59812 1.79989 2.4629 1.79989s1.74851-.593369 2.4629-1.79989c.62978-1.046281 1.07121-2.507435 1.1746-4.147551v-3.704683h-3.6375z" fill="url(#b)" stroke-width="3.38852"/></g><g transform="translate(-115.4568 -1.018675)"><path d="m163.66611 18.236328h-5.33213v1.695313 3.757812l.002.05273c.11831 1.876899.60513 3.565317 1.41211 4.908204.90245 1.5215 2.27996 2.626953 3.91797 2.626953 1.638 0 3.01355-1.105465 3.91601-2.626953.80698-1.342887 1.29379-3.031305 1.41211-4.908204-3.62366-.320309-3.86351-3.415182-5.32807-5.505855z" fill="#58555d"/><path d="m163.66526 19.93072h-3.6375v3.704683c.10339 1.640116.54482 3.10127 1.1746 4.147551.71438 1.206521 1.59812 1.79989 2.4629 1.79989s1.74851-.593369 2.4629-1.79989c.62978-1.046281 1.07121-2.507435 1.1746-4.147551z" fill="url(#b)" stroke-width="3.38852"/></g><g transform="matrix(.94836301 -.31718701 .31718701 .94836301 -71.545009 52.421388)"><path d="m158.33398 18.236328v1.695313 3.757812l.002.05273c.11831 1.876899.60513 3.565317 1.41211 4.908204.90245 1.5215 2.27996 2.626953 3.91797 2.626953 1.638 0 3.01355-1.105465 3.91601-2.626953.80698-1.342887 1.29379-3.031305 1.41211-4.908204l.002-.05273v-5.453125h-5.33007z" fill="#58555d"/><path d="m160.02776 19.93072v3.704683c.10339 1.640116.54482 3.10127 1.1746 4.147551.71438 1.206521 1.59812 1.79989 2.4629 1.79989s1.74851-.593369 2.4629-1.79989c.62978-1.046281 1.07121-2.507435 1.1746-4.147551v-3.704683h-3.6375z" fill="url(#b)" stroke-width="3.38852"/></g></g><g transform="translate(0 8.799042)"><path d="m85.653689 2.2737631s-1.400236 3.2792396-2.32583 4.7957472c-1.234225 2.0221723-2.455668 4.1579437-4.269585 5.6818187-1.605322 1.348634-3.620165 2.178593-5.604826 2.854606-2.3072.785877-4.749276 1.343933-7.186641 1.348755-2.419288.0048-4.86668-.478988-7.138583-1.310514-2.193931-.802988-4.321537-1.947409-6.081799-3.483509-1.489076-1.299448-2.583072-3.013739-3.616217-4.6985311-.929155-1.5152107-2.291482-4.8147522-2.291482-4.8147522l-1.530656.7286377s-2.364097.9317562-3.416588 1.6270325c-1.427712.9431484-3.032683 1.8929004-3.848602 3.3969504-.749727 1.3820318-1.364171 3.2467547-.68833 4.6663817.675668 1.419263 2.52803 2.034204 4.05505 2.407089.900721.219948 1.815427.03119 2.777091-.157614-.488083 1.068042-.926592 2.078769-.885734 3.177584.05842 1.571166.333571 3.505773 1.600419 4.436939 1.266569.930962 3.185766.58191 4.711341.203088.77401-.192198 1.399169-.70232 2.064473-1.209228-.04767.993251-.09992 1.938435.255799 2.808614.594951 1.455392 1.480867 3.195166 2.985347 3.651973 1.503963.45665 3.195981-.513164 4.510319-1.375109.644634-.422752 1.052451-1.088674 1.500167-1.7601.24025.874202.452538 1.717426.999939 2.382284.999428 1.213877 2.345736 2.626905 3.918108 2.626713 1.5718-.000192 2.917616-1.412751 3.91604-2.626713.55066-.669536.764038-1.518167 1.00459-2.39882.436604.65918.832366 1.315284 1.461926 1.733744 1.30959.870467 2.994713 1.853883 4.502568 1.407666 1.507228-.446032 2.414065-2.175325 3.010152-3.629753.388269-.947361.330829-1.973718.262516-3.060278 1.032276.710357 2.014551 1.342737 3.173967 1.487765 1.560237.195166 3.515209.217774 4.632792-.888318 1.117238-1.105751 1.096751-3.058284.93586-4.621941-.103177-1.002752-.63035-1.867557-1.191142-2.779675 1.085427.257478 2.110978.488492 3.132626.256315 1.533184-.348427 3.38717-.963921 4.073136-2.378666.685798-1.414398.08396-3.2824943-.65474-4.6699993-.800054-1.5027552-2.163104-2.4867873-3.82354-3.4245974z" fill="#58555d"/><g transform="matrix(.42974465 .90295046 -.90295046 .42974465 -4.437928 -148.157215)"><path d="m158.33398 18.236328v1.695313 3.757812l.002.05273c.11831 1.876899.60513 3.565317 1.41211 4.908204.90245 1.5215 2.27996 2.626953 3.91797 2.626953 1.638 0 3.01355-1.105465 3.91601-2.626953.80698-1.342887 1.29379-3.031305 1.41211-4.908204l.002-.05273v-5.453125h-5.33007z" fill="#58555d"/><path d="m160.02776 19.93072v3.704683c.10339 1.640116.54482 3.10127 1.1746 4.147551.71438 1.206521 1.59812 1.79989 2.4629 1.79989s1.74851-.593369 2.4629-1.79989c.62978-1.046281 1.07121-2.507435 1.1746-4.147551v-3.704683h-3.6375z" fill="url(#b)" stroke-width="3.38852"/></g><g transform="matrix(.43632918 -.89978711 .89978711 .43632918 -4.493251 146.377129)"><path d="m158.33398 18.236328v1.695313 3.757812l.002.05273c.11831 1.876899.60513 3.565317 1.41211 4.908204.90245 1.5215 2.27996 2.626953 3.91797 2.626953 1.638 0 3.01355-1.105465 3.91601-2.626953.80698-1.342887 1.29379-3.031305 1.41211-4.908204l.002-.05273v-5.453125h-5.33007z" fill="#58555d"/><path d="m160.02776 19.93072v3.704683c.10339 1.640116.54482 3.10127 1.1746 4.147551.71438 1.206521 1.59812 1.79989 2.4629 1.79989s1.74851-.593369 2.4629-1.79989c.62978-1.046281 1.07121-2.507435 1.1746-4.147551v-3.704683h-3.6375z" fill="url(#b)" stroke-width="3.38852"/></g><g transform="matrix(.80568591 .59234299 -.59234299 .80568591 -68.13497 -99.215654)"><path d="m158.33398 18.236328v1.695313 3.757812l.002.05273c.11831 1.876899.60513 3.565317 1.41211 4.908204.90245 1.5215 2.27996 2.626953 3.91797 2.626953 1.638 0 3.01355-1.105465 3.91601-2.626953.80698-1.342887 1.29379-3.031305 1.41211-4.908204l.002-.05273v-5.453125h-5.33007z" fill="#58555d"/><path d="m160.02776 19.93072v3.704683c.10339 1.640116.54482 3.10127 1.1746 4.147551.71438 1.206521 1.59812 1.79989 2.4629 1.79989s1.74851-.593369 2.4629-1.79989c.62978-1.046281 1.07121-2.507435 1.1746-4.147551v-3.704683h-3.6375z" fill="url(#b)" stroke-width="3.38852"/></g><g transform="matrix(.71078556 -.70340876 .70340876 .71078556 -50.22072 115.176393)"><path d="m158.33398 18.236328v1.695313 3.757812l.002.05273c.11831 1.876899.60513 3.565317 1.41211 4.908204.90245 1.5215 2.27996 2.626953 3.91797 2.626953 1.638 0 3.01355-1.105465 3.91601-2.626953.80698-1.342887 1.29379-3.031305 1.41211-4.908204l.002-.05273v-5.453125h-5.33007z" fill="#58555d"/><path d="m160.02776 19.93072v3.704683c.10339 1.640116.54482 3.10127 1.1746 4.147551.71438 1.206521 1.59812 1.79989 2.4629 1.79989s1.74851-.593369 2.4629-1.79989c.62978-1.046281 1.07121-2.507435 1.1746-4.147551v-3.704683h-3.6375z" fill="url(#b)" stroke-width="3.38852"/></g><g transform="matrix(.95684156 .29061011 -.29061011 .95684156 -92.294778 -49.105415)"><path d="m158.33398 18.236328v1.695313 3.757812l.002.05273c.11831 1.876899.60513 3.565317 1.41211 4.908204.90245 1.5215 2.27996 2.626953 3.91797 2.626953 1.638 0 3.01355-1.105465 3.91601-2.626953.80698-1.342887 1.29379-3.031305 1.41211-4.908204l.002-.05273v-5.453125h-5.33007z" fill="#58555d"/><path d="m160.02776 19.93072v3.704683c.10339 1.640116.54482 3.10127 1.1746 4.147551.71438 1.206521 1.59812 1.79989 2.4629 1.79989s1.74851-.593369 2.4629-1.79989c.62978-1.046281 1.07121-2.507435 1.1746-4.147551v-3.704683h-3.6375z" fill="url(#b)" stroke-width="3.38852"/></g><g transform="matrix(.95893892 -.28361269 .28361269 .95893892 -88.784601 44.799253)"><path d="m158.33398 18.236328v1.695313 3.757812l.002.05273c.11831 1.876899.60513 3.565317 1.41211 4.908204.90245 1.5215 2.27996 2.626953 3.91797 2.626953 1.638 0 3.01355-1.105465 3.91601-2.626953.80698-1.342887 1.29379-3.031305 1.41211-4.908204l.002-.05273v-5.453125h-5.33007z" fill="#58555d"/><path d="m160.02776 19.93072v3.704683c.10339 1.640116.54482 3.10127 1.1746 4.147551.71438 1.206521 1.59812 1.79989 2.4629 1.79989s1.74851-.593369 2.4629-1.79989c.62978-1.046281 1.07121-2.507435 1.1746-4.147551v-3.704683h-3.6375z" fill="url(#b)" stroke-width="3.38852"/></g><g transform="translate(-97.519243 -1.018675)"><path d="m158.33398 18.236328v1.695313 3.757812l.002.05273c.11831 1.876899.60513 3.565317 1.41211 4.908204.90245 1.5215 2.27996 2.626953 3.91797 2.626953 1.638 0 3.01355-1.105465 3.91601-2.626953.80698-1.342887 1.29379-3.031305 1.41211-4.908204l.002-.05273v-5.453125h-5.33007z" fill="#58555d"/><path d="m160.02776 19.93072v3.704683c.10339 1.640116.54482 3.10127 1.1746 4.147551.71438 1.206521 1.59812 1.79989 2.4629 1.79989s1.74851-.593369 2.4629-1.79989c.62978-1.046281 1.07121-2.507435 1.1746-4.147551v-3.704683h-3.6375z" fill="url(#b)" stroke-width="3.38852"/></g></g></g></svg>