<svg height="500" viewBox="0 0 132.29167 132.29167" width="500" xmlns="http://www.w3.org/2000/svg" xmlns:xlink="http://www.w3.org/1999/xlink"><linearGradient id="a"><stop offset="0" stop-color="#4a4c4f"/><stop offset=".025" stop-color="#4a4c4f"/><stop offset=".10000001" stop-color="#7f8f9a"/><stop offset=".19999999" stop-color="#8795a1"/><stop offset=".29999995" stop-color="#7d8d98"/><stop offset=".49999991" stop-color="#7f8f9a"/><stop offset=".69999987" stop-color="#93a0aa"/><stop offset=".8999998" stop-color="#9da9b2"/><stop offset=".97499996" stop-color="#4a4c4f"/><stop offset="1" stop-color="#4a4c4f"/></linearGradient><linearGradient id="b"><stop offset="0" stop-color="#93a0aa"/><stop offset=".25" stop-color="#9da9b2"/><stop offset=".375" stop-color="#7f8f9a"/><stop offset=".5" stop-color="#93a0aa"/><stop offset=".75" stop-color="#7c8c98"/><stop offset="1" stop-color="#93a0aa"/></linearGradient><linearGradient id="c" gradientUnits="userSpaceOnUse" spreadMethod="repeat" x1="863.46472" x2="887.29572" xlink:href="#a" y1="278.81363" y2="285.05856"/><linearGradient id="d" gradientTransform="matrix(.11738552 -.22728798 .22728798 .11738552 -270.82288 21.383593)" gradientUnits="userSpaceOnUse" spreadMethod="reflect" x1="702.71765" x2="629.02594" xlink:href="#b" y1="1779.2511" y2="1872.3049"/><linearGradient id="e" gradientTransform="matrix(.11738552 -.22728798 .22728798 .11738552 -270.82288 21.383593)" gradientUnits="userSpaceOnUse" spreadMethod="reflect" x1="663.82343" x2="531.01959" xlink:href="#b" y1="1892.0667" y2="1833.9652"/><linearGradient id="f" gradientTransform="matrix(.11738552 -.22728798 .22728798 .11738552 -270.82288 21.383593)" gradientUnits="userSpaceOnUse" spreadMethod="reflect" x1="611.23047" x2="512.57544" xlink:href="#b" y1="1764.3661" y2="1835.5763"/><linearGradient id="g" gradientTransform="matrix(.11738552 -.22728798 .22728798 .11738552 -270.82288 21.383593)" gradientUnits="userSpaceOnUse" spreadMethod="reflect" x1="773.21594" x2="739.84912" xlink:href="#b" y1="1530.7548" y2="1657.4581"/><linearGradient id="h" gradientTransform="matrix(.11738552 -.22728798 .22728798 .11738552 -270.82288 21.383593)" gradientUnits="userSpaceOnUse" spreadMethod="reflect" x1="884.22675" x2="751.28259" xlink:href="#b" y1="1659.8732" y2="1673.259"/><linearGradient id="i" gradientTransform="matrix(.11738552 -.22728798 .22728798 .11738552 -270.82288 21.383593)" gradientUnits="userSpaceOnUse" spreadMethod="reflect" x1="850.85938" x2="811.89728" xlink:href="#b" y1="1588.4539" y2="1712.3905"/><linearGradient id="j" gradientTransform="matrix(.11738552 -.22728798 .22728798 .11738552 -270.82288 21.383593)" gradientUnits="userSpaceOnUse" spreadMethod="reflect" x1="886.43188" x2="836.85986" xlink:href="#b" y1="1591.4081" y2="1729.3871"/><filter id="k" color-interpolation-filters="sRGB" height="1.044355" width="1.075596" x="-.040618" y="-.022178"><feGaussianBlur stdDeviation=".21247707"/></filter><g stroke-width=".972129" transform="matrix(1.0286731 0 0 1.0286731 -152.11722 2.585875)"><g fill="#7c8c98" stroke-width=".972129" transform="matrix(-1 0 0 1 449.20132 -5.33944)"><path d="m904.29465 346.0974-16.81829.3105s-30.87089-12.63005-44.83632-21.57813c-12.19747-7.81529-33.48694-27.70086-33.48694-27.70086l-15.21447 9.97073c-5.88536 4.77737-9.40299 7.2617-21.4356 20.73405-12.0326 13.47235-17.2207 20.63127-21.6939 27.39195l-21.43804 36.23921c-2.58319 4.59927-10.52343 18.96874-10.52343 18.96874l9.92187 9.55079c27.75674 26.7236 60.1046 42.63103 96.50391 46.15234l15.71484 1.52148 3.55078-15.38476c1.95927-8.47106 4.32094-16.70436 10.17193-30.893s9.20481-20.18553 17.91062-31.49963c8.70582-11.3141 18.82314-17.81658 23.67205-21.86311z" fill="#4a4c4f" transform="scale(.26458334)"/><path d="m200.16451 100.53868c-1.39375 2.3391-2.7132 4.73154-4.04098 7.15136 6.72369 6.47343 14.11033 10.0715 22.68855 10.90137.55483-2.39887 1.22991-4.76108 2.06145-7.06184-7.87527-1.97596-15.10808-6.57939-20.70926-10.99089z" fill="url(#f)"/><path d="m206.64532 91.177747c-1.48828 1.794748-2.8444 3.6576-4.10766 5.566172 5.53117 4.391981 12.78684 8.942541 20.06203 10.618941.8763-1.85499 1.88119-3.6564 3.04396-5.38019-7.25329-2.312194-13.85888-6.686551-18.99809-10.804923z" fill="url(#e)"/><path d="m213.56618 84.294744c-1.41279 1.14681-2.71367 2.340054-3.92906 3.571875 5.24661 4.163616 12.04198 8.469392 18.93094 10.328434 1.20134-1.362075 2.52651-2.658428 3.99574-3.884533z" fill="url(#d)"/></g><g stroke-width=".972129" transform="translate(-25.05741 -5.339673)"><path d="m904.29465 346.0974-16.81829.3105s-30.87089-12.63005-44.83632-21.57813c-12.19747-7.81529-33.48694-27.70086-33.48694-27.70086l-15.21447 9.97073c-5.88536 4.77737-9.40299 7.2617-21.4356 20.73405-12.0326 13.47235-17.2207 20.63127-21.6939 27.39195l-21.43804 36.23921c-2.58319 4.59927-10.52343 18.96874-10.52343 18.96874l9.92187 9.55079c27.75674 26.7236 60.1046 42.63103 96.50391 46.15234l15.71484 1.52148 3.55078-15.38476c1.95927-8.47106 4.32094-16.70436 10.17193-30.893s9.20481-20.18553 17.91062-31.49963c8.70582-11.3141 18.82314-17.81658 23.67205-21.86311z" fill="#4a4c4f" transform="scale(.26458334)"/><path d="m200.16451 100.53868c-1.39375 2.3391-2.7132 4.73154-4.04098 7.15136 6.72369 6.47343 14.11033 10.0715 22.68855 10.90137.55483-2.39887 1.22991-4.76108 2.06145-7.06184-7.87527-1.97596-15.10808-6.57939-20.70926-10.99089z" fill="url(#f)"/><path d="m206.64532 91.177747c-1.48828 1.794748-2.8444 3.6576-4.10766 5.566172 5.53117 4.391981 12.78684 8.942541 20.06203 10.618941.8763-1.85499 1.88119-3.6564 3.04396-5.38019-7.25329-2.312194-13.85888-6.686551-18.99809-10.804923z" fill="url(#e)"/><path d="m213.56618 84.294744c-1.41279 1.14681-2.71367 2.340054-3.92906 3.571875 5.24661 4.163616 12.04198 8.469392 18.93094 10.328434 1.20134-1.362075 2.52651-2.658428 3.99574-3.884533z" fill="url(#d)"/></g><path d="m191.05392 11.803515-3.62288 16.367642 5.1856 2.25094c6.04532 2.96505 13.31216 4.90599 19.4617 4.85132 6.14955-.0547 13.7051-2.19192 19.69441-4.95586l5.37161-3.07198-4.02404-15.276052-6.66015.831422c-9.84256 4.27429-19.06281 5.54339-28.42578.61524z" fill="#4a4c4f"/><g stroke-width=".972129"><g transform="translate(-25.05741 -5.339673)"><g id="l" stroke-width=".972129"><path d="m205.26896 44.274503-3.36076 2.930575c-1.00625 3.213431-1.54297 6.579429-1.54297 10.017578 0 8.981287 3.65234 17.257011 9.6977 24.030792 5.81773 6.518714 13.84752 11.641831 23.17926 14.896943l3.90218 1.220961-.00001-61.223869c-5.71353.133297-11.80344-1.702486-16.2706-3.76447z" fill="#4a4c4f"/><path d="m896.29362 285.54102v-49.87891-18.11328-64.05078c-21.68549-1.12861-52.184-7.09134-73.5905-18.33594l-32.20117 23.48437-10.21093 25.14258c-.53958 1.72311-1.03354 3.45685-1.48829 5.20117l-3.11523 18.03711c-.26452 3.05984-.40234 6.14139-.40234 9.24414 0 12.5115 2.18458 24.67267 6.35839 36.13965l11.75293 24.30957c19.20632 30.40563 52.49468 55.18162 94.08008 69.6875l8.81706 3.5977v-46.31449z" fill="url(#c)" stroke-width="34.9965" transform="scale(.26458334)"/><path d="m237.14436 75.549397c-4.85089.01172-12.88748-2.072247-19.18555-3.742188-3.54443-.939811-5.87055-1.827904-10.42226-3.52035m-3.39007-18.99389s1.48315.567605 2.23243.830077c3.8332 1.342769 7.64424 2.783035 11.57421 3.808595 6.30457 1.645234 14.33466 3.753908 19.18555 3.742188m-.003-17.060739.009 51.99264" fill="none" filter="url(#k)" stroke="#4a4c4f" stroke-linecap="square" stroke-width="1.28604"/></g><use fill="#7c8c98" height="100%" transform="matrix(-1 0 0 1 474.28874 0)" width="100%" xlink:href="#l"/><path d="m234.76367 40.427891v52.177578c.00022 1.314823 1.06588 4.765668 2.3807 4.765883 1.31482-.000215 2.3808-3.45106 2.38102-4.765883v-52.177578l-2.38103-4.280408z" fill="#4a4c4f" stroke-linecap="round" stroke-width=".972129"/></g><g transform="translate(-25.05741 -5.339673)"><path d="m747.47461 77.185547c-13.91365 2.907069-26.89135 7.550477-38.33984 14.416015l-8.68165 5.197266-11.43554 10.998052c-15.29371 16.57756-23.60097 40.0475-23.24414 68.59374l.16797 13.71485 13.26562 3.47656c9.02644 2.36574 17.8104 3.89546 26.30859 4.68945l34.91407-.46875 18.96432-4.40838c5.83539-4.3308 13.22887-5.69145 20.89775-9.60565l25.14162-15.08536c2.71772-2.91272 8.55163-6.47574 13.79415-11.40814l8.03344-7.9027-4.55591-14.2299 12.09338-48.3471-17.99973-12.428781-24.53423-.877932c-11.36352-.135877-16.48497.08197-21.50115.465819z" fill="#4a4c4f" transform="scale(.26458334)"/><path d="m185.80224 31.750556c-3.17135 3.437573-4.97205 8.193167-4.88871 14.86043 4.25934 1.11633 8.20626 1.434941 11.83148 1.175385-3.82667-4.312444-6.28555-10.070307-6.94277-16.036291z" fill="url(#g)"/><path d="m205.26896 44.274503c-4.56724-5.588794-7.02279-12.563952-6.52606-19.191447-3.26183.681514-6.19696 1.754267-8.66918 3.236833-.046 6.969443 2.80893 14.610637 7.60476 18.722579 2.75916-.633412 5.28971-1.594009 7.59048-2.767965z" fill="url(#h)"/><path d="m203.28966 24.406305c-.74414 5.729288 1.45661 12.405122 5.86383 17.568863 1.72164-1.175148 3.27374-2.447925 4.65058-3.743325-1.46447-4.660107-2.45102-9.267111-2.7682-13.982224-.50959-.02262-1.02966-.06429-2.27314-.07786-2.36173.0047-3.9424.08644-5.47307.234551z" fill="url(#i)"/></g><g fill="#7c8c98" transform="matrix(-1 0 0 1 449.41585 -5.339666)"><path d="m747.47461 77.185547c-13.91365 2.907069-26.89135 7.550477-38.33984 14.416015l-8.68165 5.197266-11.43554 10.998052c-15.29371 16.57756-23.60097 40.0475-23.24414 68.59374l.16797 13.71485 13.26562 3.47656c9.02644 2.36574 17.8104 3.89546 26.30859 4.68945l34.91407-.46875 18.96432-4.40838c5.83539-4.3308 13.22887-5.69145 20.89775-9.60565l25.14162-15.08536c2.71772-2.91272 8.55163-6.47574 13.79415-11.40814l8.03344-7.9027-4.55591-14.2299 12.09338-48.3471-17.99973-12.428781-24.53423-.877932c-11.36352-.135877-16.48497.08197-21.50115.465819z" fill="#4a4c4f" transform="scale(.26458334)"/><path d="m185.80224 31.750556c-3.17135 3.437573-4.97205 8.193167-4.88871 14.86043 4.25934 1.11633 8.20626 1.434941 11.83148 1.175385-3.82667-4.312444-6.28555-10.070307-6.94277-16.036291z" fill="url(#g)"/><path d="m205.26896 44.274503c-4.56724-5.588794-7.02279-12.563952-6.52606-19.191447-3.26183.681514-6.19696 1.754267-8.66918 3.236833-.046 6.969443 2.80893 14.610637 7.60476 18.722579 2.75916-.633412 5.28971-1.594009 7.59048-2.767965z" fill="url(#h)"/><path d="m203.28966 24.406305c-.74414 5.729288 1.45661 12.405122 5.86383 17.568863 1.72164-1.175148 3.27374-2.447925 4.65058-3.743325-1.46447-4.660107-2.45102-9.267111-2.7682-13.982224-.50959-.02262-1.02966-.06429-2.27314-.07786-2.36173.0047-3.9424.08644-5.47307.234551z" fill="url(#i)"/></g></g><path d="m229.99946 17.168777c-10.59061 4.59914-24.89423 6.18005-35.75892.46148l1.57581 9.41308c10.92042 5.35615 21.54722 5.00682 32.54121-.0667z" fill="url(#j)"/></g></svg>