<svg height="500" viewBox="0 0 132.29167 132.29167" width="500" xmlns="http://www.w3.org/2000/svg" xmlns:xlink="http://www.w3.org/1999/xlink"><linearGradient id="a"><stop offset="0" stop-color="#fff"/><stop offset="1" stop-color="#fff" stop-opacity="0"/></linearGradient><linearGradient id="b"><stop offset="0" stop-opacity="0"/><stop offset="1"/></linearGradient><linearGradient id="c"><stop offset="0" stop-color="#301603"/><stop offset="1" stop-color="#73380d"/></linearGradient><linearGradient id="d" gradientTransform="matrix(391.593 0 0 -391.593 60.7962 7618.49)" gradientUnits="userSpaceOnUse" spreadMethod="pad" x1="64.451935" x2="67.84066" y1="34.377758" y2="37.766487"><stop offset="0" stop-color="#9f571d"/><stop offset=".511236" stop-color="#fde791"/><stop offset="1" stop-color="#b7671e"/></linearGradient><linearGradient id="e" gradientUnits="userSpaceOnUse" x1="29.693281" x2="37.608376" xlink:href="#c" y1="12.435751" y2="31.981449"/><linearGradient id="f" gradientUnits="userSpaceOnUse" x1="101.87317" x2="94.684227" xlink:href="#c" y1="13.98005" y2="31.981449"/><linearGradient id="g" gradientUnits="userSpaceOnUse" x1="66.146301" x2="66.204636" xlink:href="#c" y1="42.123425" y2="66.145836"/><linearGradient id="h" gradientUnits="userSpaceOnUse" x1="66.146301" x2="66.146301" xlink:href="#c" y1="62.237946" y2="91.502022"/><linearGradient id="i" gradientUnits="userSpaceOnUse" spreadMethod="reflect" x1="66.146301" x2="97.730453" y1="116.3727" y2="116.6153"><stop offset="0" stop-color="#73380d"/><stop offset=".74302846" stop-color="#5e2d09"/><stop offset="1" stop-color="#301603"/></linearGradient><clipPath id="j"><path d="m216.41043 32.813647-2.53837 2.136932-3.30594-.283859-2.13693-2.53837.28386-3.305938 2.53837-2.136932 3.30593.283859 2.13694 2.53837z" transform="matrix(.58175537 .18445912 -.18445912 .58175537 106.81227 -25.070564)"/></clipPath><linearGradient id="k" gradientUnits="userSpaceOnUse" x1="34.712775" x2="32.06694" xlink:href="#a" y1="-222.140703" y2="-224.786543"/><linearGradient id="l" gradientUnits="userSpaceOnUse" x1="224.786536" x2="227.432376" xlink:href="#b" y1="32.066933" y2="34.712765"/><linearGradient id="m" gradientUnits="userSpaceOnUse" x1="-222.140703" x2="-224.786538" xlink:href="#a" y1="-29.4211" y2="-32.06694"/><linearGradient id="n" gradientUnits="userSpaceOnUse" x1="-32.06694" x2="-29.4211" xlink:href="#b" y1="224.786533" y2="227.432365"/><g stroke-width=".242052" transform="matrix(1.1111111 0 0 1.1111111 -7.349538 -7.349537)"><path d="m66.196326 18.386093c-8.679828-.640097-14.194596-5.327353-18.681465-11.7715087-7.471414 1.4909541-14.94258 2.9831441-22.413628 4.4759367 2.717886 6.815509 5.439293 13.629608 8.158533 20.444577-2.537479 3.79739-5.073155 7.595997-7.611769 11.392636 1.38004 9.739938 2.80604 19.23909 4.059612 28.435145 1.533686 1.154457 3.068626 2.307232 4.602798 3.461039 1.095981 5.468788 2.191348 10.937695 3.287713 16.406404 1.008943.221602 2.017895.443122 3.026837.664688-.74211 2.976813-1.48423 5.953628-2.22635 8.93043-1.470444-.54284-2.941793-1.083242-4.411615-1.627772-1.543576 6.153342-3.085853 12.307022-4.626026 18.461222 9.415974 3.16361 18.842258 6.77761 28.817594 7.653 10.056665.89723 20.337778.20835 30.007066-2.81643 4.095171-1.22812 14.400224-4.83657 14.400224-4.83657l-4.272243-18.450502c-1.47581.54104-2.95052 1.083272-4.429476 1.615272l-2.220998-8.930434 3.295434-.662904c1.05278-4.914022 1.99627-11.280242 3.02449-16.406404 1.53416-1.153807 3.069103-2.306591 4.602793-3.461039 1.31398-9.483956 2.6936-18.95858 4.05962-28.435145-2.53862-3.79663-5.07429-7.595246-7.611783-11.392636 2.718653-6.814365 8.156753-20.442793 8.156753-20.442793l-22.499404-4.3544275c-4.605488 5.2796165-10.425044 11.6360575-18.49471 11.6482155z" fill="#301603"/><path d="m95.604027 104.33077 2.71098 10.81973s-13.603323 4.88944-20.719649 5.88185c-7.552021 1.04083-15.34609 1.04083-22.898119 0-7.116327-.99241-20.719642-5.88185-20.719642-5.88185l2.710978-10.81973c1.960625.75036 4.865249 1.79119 8.980135 3.04985 6.365964 1.96063 14.184249 3.96966 20.477593 3.96966s14.111629-2.00903 20.477593-3.96966c4.11488-1.25866 7.019504-2.29949 8.980131-3.04985z" fill="url(#i)"/><g fill="#492003"><path d="m56.004328 95.157007c2.638368.314669 5.349356.580924 7.963517.653545v11.085968c-2.904624-.21785-6.269147-.84718-9.633679-1.64595z"/><path d="m76.288277 95.157007 1.670154 10.093563c-3.364514.79877-6.729038 1.4281-9.633661 1.64595v-11.085968c2.614161-.07264 5.32514-.338876 7.963507-.653545z"/><path d="m44.289009 93.220588c2.105856.411487 4.647397.895594 7.382582 1.331288l-1.597542 9.585244c-1.065023-.29046-2.130054-.60512-3.146672-.91979-1.718568-.53252-3.31611-1.06503-4.744215-1.54913z"/><path d="m88.003588 93.220588 2.10586 8.447612c-1.428105.4841-3.025652 1.01661-4.744228 1.54913-1.016618.31467-2.081641.62933-3.146672.91979l-1.597543-9.585244c2.735185-.435694 5.276735-.919801 7.382583-1.331288z"/></g><path d="m66.146303 62.237944 19.025282 22.801292 8.011924-6.002891-1.791188 8.955918c-3.170878.750363-15.539737 3.509758-25.246018 3.509758s-22.075136-2.759395-25.246024-3.509758l-1.791178-8.955918 8.01192 6.002891z" fill="url(#h)"/><path d="m67.840663 42.123424v5.688222l.314669.508304s2.953037 4.93786 6.946889 9.924132c1.984823 2.493137 4.23591 5.01048 6.583816 6.971096 2.372103 1.960625 4.865239 3.533961 7.697255 3.533961 3.77601 0 7.261555-1.476518 10.093565-3.146681l-.50831 3.630779-13.11922 9.851521-19.703024-23.672679-19.703033 23.672679-13.119209-9.851521-.508314-3.630779c2.832013 1.670163 6.31756 3.146681 10.093571 3.146681 2.832003 0 5.325139-1.573336 7.697251-3.533961 2.347896-1.960616 4.598993-4.477959 6.583815-6.971096 3.993862-4.986272 6.946889-9.924132 6.946889-9.924132l.31466-.508304v-5.688222z" fill="url(#g)"/><path d="m67.840663 34.377759v3.38873h-3.38873v-3.38873z" fill="url(#d)"/><path d="m38.140887 12.435751c.363082.958525.798776 2.052603 1.282883 3.216877 1.500716 3.483123 3.340316 7.433411 5.809246 9.873294 3.727597 3.187822 12.199426 4.494902 12.199426 4.494902v4.356935h2.662566v3.38873h-2.662566v4.356935h2.662566v4.453752c-.411487.677752-2.85621 4.6232-6.293354 8.955928-1.888005 2.347905-3.993861 4.671604-6.002891 6.341757-1.984822 1.670163-3.84863 2.517343-4.889445 2.517343-3.146682 0-6.729047-1.694369-9.464232-3.509754-.532521-.363083-1.016619-.701949-1.452312-1.040825l-2.299492-15.999634 7.915094-11.860542-7.188938-18.003824z" fill="url(#e)"/><path d="m94.151717 12.435751 7.721453 1.544299-7.188943 18.001399 7.915103 11.860542-2.2995 15.999634c-.435693.338876-.919793.677742-1.452313 1.040825-2.73519 1.815385-6.317553 3.509754-9.464225 3.509754-1.040825 0-2.904627-.84718-4.889459-2.517343-2.009029-1.670153-4.114877-3.993852-6.002882-6.341757-3.437143-4.332728-5.881866-8.278176-6.293353-8.955928v-4.453752h2.662574v-4.356935h-2.662574v-3.38873h2.662574v-4.356935s9.415819-1.863798 12.199418-4.494902c2.468933-2.447147 4.308525-6.397435 5.80925-9.880558.484097-1.159434.919791-2.251088 1.282877-3.209613z" fill="url(#f)"/><path d="m86.430252 10.891461 3.388733.680167c-.290462.730995-.605131 1.529771-.968214 2.360008-1.403901 3.299167-3.437138 7.094545-4.841036 8.500867-1.186056 1.173944-4.792628 2.316435-8.01192 2.77875-2.710979.435694-5.421966.944007-8.157152.944007v3.865564h-3.38873v-3.865564c-2.904614.02424-5.857641-.629338-8.157142-.944007-3.219292-.4599-6.825874-1.602382-8.011921-2.771495-1.403907-1.406323-3.437143-5.201691-4.841041-8.498443-.363083-.832652-.677743-1.633853-.968205-2.369687l3.388721-.680167c2.033236 2.752128 9.197986 11.390962 20.283958 11.390962s18.250712-8.638834 20.283949-11.390962z" fill="#492003"/></g><g stroke-linejoin="round" stroke-width=".2844"><g clip-path="url(#j)" opacity=".448387" transform="matrix(.62500001 0 0 .62500001 -60.31216 12.429839)"><path d="m29.421108-227.43237h5.291667v5.291667h-5.291667z" fill="url(#k)" transform="rotate(90)"/><path d="m-34.712776 222.1407h5.291667v5.291667h-5.291667z" fill="url(#n)" transform="rotate(-90)"/><path d="m222.1407 29.421103h5.291667v5.291667h-5.291667z" fill="url(#l)"/><path d="m-227.43237-34.712776h5.291667v5.291667h-5.291667z" fill="url(#m)" transform="scale(-1)"/></g><g clip-path="url(#j)" opacity=".448387" transform="matrix(.62500001 0 0 .62500001 -52.253082 14.298637)"><path d="m29.421108-227.43237h5.291667v5.291667h-5.291667z" fill="url(#k)" transform="rotate(90)"/><path d="m-34.712776 222.1407h5.291667v5.291667h-5.291667z" fill="url(#n)" transform="rotate(-90)"/><path d="m222.1407 29.421103h5.291667v5.291667h-5.291667z" fill="url(#l)"/><path d="m-227.43237-34.712776h5.291667v5.291667h-5.291667z" fill="url(#m)" transform="scale(-1)"/></g><g clip-path="url(#j)" opacity=".448387" transform="matrix(.62500001 0 0 .62500001 -44.954825 12.429837)"><path d="m29.421108-227.43237h5.291667v5.291667h-5.291667z" fill="url(#k)" transform="rotate(90)"/><path d="m-34.712776 222.1407h5.291667v5.291667h-5.291667z" fill="url(#n)" transform="rotate(-90)"/><path d="m222.1407 29.421103h5.291667v5.291667h-5.291667z" fill="url(#l)"/><path d="m-227.43237-34.712776h5.291667v5.291667h-5.291667z" fill="url(#m)" transform="scale(-1)"/></g><g clip-path="url(#j)" opacity=".448387" transform="matrix(.62500002 0 0 .62500002 -59.763297 20.80887)"><path d="m29.421108-227.43237h5.291667v5.291667h-5.291667z" fill="url(#k)" transform="rotate(90)"/><path d="m-34.712776 222.1407h5.291667v5.291667h-5.291667z" fill="url(#n)" transform="rotate(-90)"/><path d="m222.1407 29.421103h5.291667v5.291667h-5.291667z" fill="url(#l)"/><path d="m-227.43237-34.712776h5.291667v5.291667h-5.291667z" fill="url(#m)" transform="scale(-1)"/></g><g clip-path="url(#j)" opacity=".448387" transform="matrix(.62500002 0 0 .62500002 -51.70422 22.2348)"><path d="m29.421108-227.43237h5.291667v5.291667h-5.291667z" fill="url(#k)" transform="rotate(90)"/><path d="m-34.712776 222.1407h5.291667v5.291667h-5.291667z" fill="url(#n)" transform="rotate(-90)"/><path d="m222.1407 29.421103h5.291667v5.291667h-5.291667z" fill="url(#l)"/><path d="m-227.43237-34.712776h5.291667v5.291667h-5.291667z" fill="url(#m)" transform="scale(-1)"/></g><g clip-path="url(#j)" opacity=".448387" transform="matrix(.62500002 0 0 .62500002 -44.405963 21.611869)"><path d="m29.421108-227.43237h5.291667v5.291667h-5.291667z" fill="url(#k)" transform="rotate(90)"/><path d="m-34.712776 222.1407h5.291667v5.291667h-5.291667z" fill="url(#n)" transform="rotate(-90)"/><path d="m222.1407 29.421103h5.291667v5.291667h-5.291667z" fill="url(#l)"/><path d="m-227.43237-34.712776h5.291667v5.291667h-5.291667z" fill="url(#m)" transform="scale(-1)"/></g><g clip-path="url(#j)" opacity=".448387" transform="matrix(.62500002 0 0 .62500002 -59.535227 29.187901)"><path d="m29.421108-227.43237h5.291667v5.291667h-5.291667z" fill="url(#k)" transform="rotate(90)"/><path d="m-34.712776 222.1407h5.291667v5.291667h-5.291667z" fill="url(#n)" transform="rotate(-90)"/><path d="m222.1407 29.421103h5.291667v5.291667h-5.291667z" fill="url(#l)"/><path d="m-227.43237-34.712776h5.291667v5.291667h-5.291667z" fill="url(#m)" transform="scale(-1)"/></g><g clip-path="url(#j)" opacity=".448387" transform="matrix(.62500002 0 0 .62500002 -51.47615 30.170964)"><path d="m29.421108-227.43237h5.291667v5.291667h-5.291667z" fill="url(#k)" transform="rotate(90)"/><path d="m-34.712776 222.1407h5.291667v5.291667h-5.291667z" fill="url(#n)" transform="rotate(-90)"/><path d="m222.1407 29.421103h5.291667v5.291667h-5.291667z" fill="url(#l)"/><path d="m-227.43237-34.712776h5.291667v5.291667h-5.291667z" fill="url(#m)" transform="scale(-1)"/></g><g clip-path="url(#j)" opacity=".448387" transform="matrix(.62500002 0 0 .62500002 -44.177892 30.793899)"><path d="m29.421108-227.43237h5.291667v5.291667h-5.291667z" fill="url(#k)" transform="rotate(90)"/><path d="m-34.712776 222.1407h5.291667v5.291667h-5.291667z" fill="url(#n)" transform="rotate(-90)"/><path d="m222.1407 29.421103h5.291667v5.291667h-5.291667z" fill="url(#l)"/><path d="m-227.43237-34.712776h5.291667v5.291667h-5.291667z" fill="url(#m)" transform="scale(-1)"/></g><g clip-path="url(#j)" opacity=".448387" transform="matrix(.62500002 0 0 .62500002 -53.275569 38.107128)"><path d="m29.421108-227.43237h5.291667v5.291667h-5.291667z" fill="url(#k)" transform="rotate(90)"/><path d="m-34.712776 222.1407h5.291667v5.291667h-5.291667z" fill="url(#n)" transform="rotate(-90)"/><path d="m222.1407 29.421103h5.291667v5.291667h-5.291667z" fill="url(#l)"/><path d="m-227.43237-34.712776h5.291667v5.291667h-5.291667z" fill="url(#m)" transform="scale(-1)"/></g><g clip-path="url(#j)" opacity=".448387" transform="matrix(.62500002 0 0 .62500002 -45.216491 39.975929)"><path d="m29.421108-227.43237h5.291667v5.291667h-5.291667z" fill="url(#k)" transform="rotate(90)"/><path d="m-34.712776 222.1407h5.291667v5.291667h-5.291667z" fill="url(#n)" transform="rotate(-90)"/><path d="m222.1407 29.421103h5.291667v5.291667h-5.291667z" fill="url(#l)"/><path d="m-227.43237-34.712776h5.291667v5.291667h-5.291667z" fill="url(#m)" transform="scale(-1)"/></g><g clip-path="url(#j)" opacity=".448387" transform="matrix(.62500002 0 0 .62500002 -37.50973 24.422896)"><path d="m29.421108-227.43237h5.291667v5.291667h-5.291667z" fill="url(#k)" transform="rotate(90)"/><path d="m-34.712776 222.1407h5.291667v5.291667h-5.291667z" fill="url(#n)" transform="rotate(-90)"/><path d="m222.1407 29.421103h5.291667v5.291667h-5.291667z" fill="url(#l)"/><path d="m-227.43237-34.712776h5.291667v5.291667h-5.291667z" fill="url(#m)" transform="scale(-1)"/></g><g clip-path="url(#j)" opacity=".448387" transform="matrix(.62500002 0 0 .62500002 -48.240698 6.295823)"><path d="m29.421108-227.43237h5.291667v5.291667h-5.291667z" fill="url(#k)" transform="rotate(90)"/><path d="m-34.712776 222.1407h5.291667v5.291667h-5.291667z" fill="url(#n)" transform="rotate(-90)"/><path d="m222.1407 29.421103h5.291667v5.291667h-5.291667z" fill="url(#l)"/><path d="m-227.43237-34.712776h5.291667v5.291667h-5.291667z" fill="url(#m)" transform="scale(-1)"/></g><g clip-path="url(#j)" opacity=".448387" transform="matrix(.62500002 0 0 .62500002 -88.841333 11.768376)"><path d="m29.421108-227.43237h5.291667v5.291667h-5.291667z" fill="url(#k)" transform="rotate(90)"/><path d="m-34.712776 222.1407h5.291667v5.291667h-5.291667z" fill="url(#n)" transform="rotate(-90)"/><path d="m222.1407 29.421103h5.291667v5.291667h-5.291667z" fill="url(#l)"/><path d="m-227.43237-34.712776h5.291667v5.291667h-5.291667z" fill="url(#m)" transform="scale(-1)"/></g><g clip-path="url(#j)" opacity=".448387" transform="matrix(.62500002 0 0 .62500002 -96.900413 13.637174)"><path d="m29.421108-227.43237h5.291667v5.291667h-5.291667z" fill="url(#k)" transform="rotate(90)"/><path d="m-34.712776 222.1407h5.291667v5.291667h-5.291667z" fill="url(#n)" transform="rotate(-90)"/><path d="m222.1407 29.421103h5.291667v5.291667h-5.291667z" fill="url(#l)"/><path d="m-227.43237-34.712776h5.291667v5.291667h-5.291667z" fill="url(#m)" transform="scale(-1)"/></g><g clip-path="url(#j)" opacity=".448387" transform="matrix(.62500002 0 0 .62500002 -104.19866 11.768374)"><path d="m29.421108-227.43237h5.291667v5.291667h-5.291667z" fill="url(#k)" transform="rotate(90)"/><path d="m-34.712776 222.1407h5.291667v5.291667h-5.291667z" fill="url(#n)" transform="rotate(-90)"/><path d="m222.1407 29.421103h5.291667v5.291667h-5.291667z" fill="url(#l)"/><path d="m-227.43237-34.712776h5.291667v5.291667h-5.291667z" fill="url(#m)" transform="scale(-1)"/></g><g clip-path="url(#j)" opacity=".448387" transform="matrix(.62500002 0 0 .62500002 -89.390203 20.147407)"><path d="m29.421108-227.43237h5.291667v5.291667h-5.291667z" fill="url(#k)" transform="rotate(90)"/><path d="m-34.712776 222.1407h5.291667v5.291667h-5.291667z" fill="url(#n)" transform="rotate(-90)"/><path d="m222.1407 29.421103h5.291667v5.291667h-5.291667z" fill="url(#l)"/><path d="m-227.43237-34.712776h5.291667v5.291667h-5.291667z" fill="url(#m)" transform="scale(-1)"/></g><g clip-path="url(#j)" opacity=".448387" transform="matrix(.62500002 0 0 .62500002 -97.449283 21.573337)"><path d="m29.421108-227.43237h5.291667v5.291667h-5.291667z" fill="url(#k)" transform="rotate(90)"/><path d="m-34.712776 222.1407h5.291667v5.291667h-5.291667z" fill="url(#n)" transform="rotate(-90)"/><path d="m222.1407 29.421103h5.291667v5.291667h-5.291667z" fill="url(#l)"/><path d="m-227.43237-34.712776h5.291667v5.291667h-5.291667z" fill="url(#m)" transform="scale(-1)"/></g><g clip-path="url(#j)" opacity=".448387" transform="matrix(.62500002 0 0 .62500002 -104.74753 20.950406)"><path d="m29.421108-227.43237h5.291667v5.291667h-5.291667z" fill="url(#k)" transform="rotate(90)"/><path d="m-34.712776 222.1407h5.291667v5.291667h-5.291667z" fill="url(#n)" transform="rotate(-90)"/><path d="m222.1407 29.421103h5.291667v5.291667h-5.291667z" fill="url(#l)"/><path d="m-227.43237-34.712776h5.291667v5.291667h-5.291667z" fill="url(#m)" transform="scale(-1)"/></g><g clip-path="url(#j)" opacity=".448387" transform="matrix(.62500002 0 0 .62500002 -89.618273 28.526438)"><path d="m29.421108-227.43237h5.291667v5.291667h-5.291667z" fill="url(#k)" transform="rotate(90)"/><path d="m-34.712776 222.1407h5.291667v5.291667h-5.291667z" fill="url(#n)" transform="rotate(-90)"/><path d="m222.1407 29.421103h5.291667v5.291667h-5.291667z" fill="url(#l)"/><path d="m-227.43237-34.712776h5.291667v5.291667h-5.291667z" fill="url(#m)" transform="scale(-1)"/></g><g clip-path="url(#j)" opacity=".448387" transform="matrix(.62500002 0 0 .62500002 -97.677353 29.509502)"><path d="m29.421108-227.43237h5.291667v5.291667h-5.291667z" fill="url(#k)" transform="rotate(90)"/><path d="m-34.712776 222.1407h5.291667v5.291667h-5.291667z" fill="url(#n)" transform="rotate(-90)"/><path d="m222.1407 29.421103h5.291667v5.291667h-5.291667z" fill="url(#l)"/><path d="m-227.43237-34.712776h5.291667v5.291667h-5.291667z" fill="url(#m)" transform="scale(-1)"/></g><g clip-path="url(#j)" opacity=".448387" transform="matrix(.62500002 0 0 .62500002 -104.9756 30.132437)"><path d="m29.421108-227.43237h5.291667v5.291667h-5.291667z" fill="url(#k)" transform="rotate(90)"/><path d="m-34.712776 222.1407h5.291667v5.291667h-5.291667z" fill="url(#n)" transform="rotate(-90)"/><path d="m222.1407 29.421103h5.291667v5.291667h-5.291667z" fill="url(#l)"/><path d="m-227.43237-34.712776h5.291667v5.291667h-5.291667z" fill="url(#m)" transform="scale(-1)"/></g><g clip-path="url(#j)" opacity=".448387" transform="matrix(.62500002 0 0 .62500002 -95.877933 37.445666)"><path d="m29.421108-227.43237h5.291667v5.291667h-5.291667z" fill="url(#k)" transform="rotate(90)"/><path d="m-34.712776 222.1407h5.291667v5.291667h-5.291667z" fill="url(#n)" transform="rotate(-90)"/><path d="m222.1407 29.421103h5.291667v5.291667h-5.291667z" fill="url(#l)"/><path d="m-227.43237-34.712776h5.291667v5.291667h-5.291667z" fill="url(#m)" transform="scale(-1)"/></g><g clip-path="url(#j)" opacity=".448387" transform="matrix(.62500002 0 0 .62500002 -103.937 39.314466)"><path d="m29.421108-227.43237h5.291667v5.291667h-5.291667z" fill="url(#k)" transform="rotate(90)"/><path d="m-34.712776 222.1407h5.291667v5.291667h-5.291667z" fill="url(#n)" transform="rotate(-90)"/><path d="m222.1407 29.421103h5.291667v5.291667h-5.291667z" fill="url(#l)"/><path d="m-227.43237-34.712776h5.291667v5.291667h-5.291667z" fill="url(#m)" transform="scale(-1)"/></g><g clip-path="url(#j)" opacity=".448387" transform="matrix(.62500002 0 0 .62500002 -111.64377 23.761433)"><path d="m29.421108-227.43237h5.291667v5.291667h-5.291667z" fill="url(#k)" transform="rotate(90)"/><path d="m-34.712776 222.1407h5.291667v5.291667h-5.291667z" fill="url(#n)" transform="rotate(-90)"/><path d="m222.1407 29.421103h5.291667v5.291667h-5.291667z" fill="url(#l)"/><path d="m-227.43237-34.712776h5.291667v5.291667h-5.291667z" fill="url(#m)" transform="scale(-1)"/></g><g clip-path="url(#j)" opacity=".448387" transform="matrix(.62500002 0 0 .62500002 -100.91279 5.63436)"><path d="m29.421108-227.43237h5.291667v5.291667h-5.291667z" fill="url(#k)" transform="rotate(90)"/><path d="m-34.712776 222.1407h5.291667v5.291667h-5.291667z" fill="url(#n)" transform="rotate(-90)"/><path d="m222.1407 29.421103h5.291667v5.291667h-5.291667z" fill="url(#l)"/><path d="m-227.43237-34.712776h5.291667v5.291667h-5.291667z" fill="url(#m)" transform="scale(-1)"/></g><g clip-path="url(#j)" opacity=".448387" transform="matrix(.62500002 0 0 .62500002 -74.3708 54.142462)"><path d="m29.421108-227.43237h5.291667v5.291667h-5.291667z" fill="url(#k)" transform="rotate(90)"/><path d="m-34.712776 222.1407h5.291667v5.291667h-5.291667z" fill="url(#n)" transform="rotate(-90)"/><path d="m222.1407 29.421103h5.291667v5.291667h-5.291667z" fill="url(#l)"/><path d="m-227.43237-34.712776h5.291667v5.291667h-5.291667z" fill="url(#m)" transform="scale(-1)"/></g><g clip-path="url(#j)" opacity=".448387" transform="matrix(.62500002 0 0 .62500002 -67.088078 62.618032)"><path d="m29.421108-227.43237h5.291667v5.291667h-5.291667z" fill="url(#k)" transform="rotate(90)"/><path d="m-34.712776 222.1407h5.291667v5.291667h-5.291667z" fill="url(#n)" transform="rotate(-90)"/><path d="m222.1407 29.421103h5.291667v5.291667h-5.291667z" fill="url(#l)"/><path d="m-227.43237-34.712776h5.291667v5.291667h-5.291667z" fill="url(#m)" transform="scale(-1)"/></g><g clip-path="url(#j)" opacity=".448387" transform="matrix(.62500002 0 0 .62500002 -81.602398 61.650412)"><path d="m29.421108-227.43237h5.291667v5.291667h-5.291667z" fill="url(#k)" transform="rotate(90)"/><path d="m-34.712776 222.1407h5.291667v5.291667h-5.291667z" fill="url(#n)" transform="rotate(-90)"/><path d="m222.1407 29.421103h5.291667v5.291667h-5.291667z" fill="url(#l)"/><path d="m-227.43237-34.712776h5.291667v5.291667h-5.291667z" fill="url(#m)" transform="scale(-1)"/></g><g clip-path="url(#j)" opacity=".448387" transform="matrix(.62500002 0 0 .62500002 -74.345238 62.134222)"><path d="m29.421108-227.43237h5.291667v5.291667h-5.291667z" fill="url(#k)" transform="rotate(90)"/><path d="m-34.712776 222.1407h5.291667v5.291667h-5.291667z" fill="url(#n)" transform="rotate(-90)"/><path d="m222.1407 29.421103h5.291667v5.291667h-5.291667z" fill="url(#l)"/><path d="m-227.43237-34.712776h5.291667v5.291667h-5.291667z" fill="url(#m)" transform="scale(-1)"/></g><g clip-path="url(#j)" opacity=".448387" transform="matrix(.62500002 0 0 .62500002 -74.345242 69.508489)"><path d="m29.421108-227.43237h5.291667v5.291667h-5.291667z" fill="url(#k)" transform="rotate(90)"/><path d="m-34.712776 222.1407h5.291667v5.291667h-5.291667z" fill="url(#n)" transform="rotate(-90)"/><path d="m222.1407 29.421103h5.291667v5.291667h-5.291667z" fill="url(#l)"/><path d="m-227.43237-34.712776h5.291667v5.291667h-5.291667z" fill="url(#m)" transform="scale(-1)"/></g><g clip-path="url(#j)" opacity=".448387" transform="matrix(.62500002 0 0 .62500002 -86.949877 67.85043)"><path d="m29.421108-227.43237h5.291667v5.291667h-5.291667z" fill="url(#k)" transform="rotate(90)"/><path d="m-34.712776 222.1407h5.291667v5.291667h-5.291667z" fill="url(#n)" transform="rotate(-90)"/><path d="m222.1407 29.421103h5.291667v5.291667h-5.291667z" fill="url(#l)"/><path d="m-227.43237-34.712776h5.291667v5.291667h-5.291667z" fill="url(#m)" transform="scale(-1)"/></g><g clip-path="url(#j)" opacity=".448387" transform="matrix(.62500002 0 0 .62500002 -60.340291 67.85043)"><path d="m29.421108-227.43237h5.291667v5.291667h-5.291667z" fill="url(#k)" transform="rotate(90)"/><path d="m-34.712776 222.1407h5.291667v5.291667h-5.291667z" fill="url(#n)" transform="rotate(-90)"/><path d="m222.1407 29.421103h5.291667v5.291667h-5.291667z" fill="url(#l)"/><path d="m-227.43237-34.712776h5.291667v5.291667h-5.291667z" fill="url(#m)" transform="scale(-1)"/></g></g></svg>